<?xml version="1.0" encoding="utf-8" standalone="no"?>
<!DOCTYPE svg PUBLIC "-//W3C//DTD SVG 1.1//EN"
  "http://www.w3.org/Graphics/SVG/1.1/DTD/svg11.dtd">
<svg height="1301.874375pt" version="1.1" viewBox="0 0 1724.98125 1301.874375" width="1724.98125pt" xmlns="http://www.w3.org/2000/svg" xmlns:xlink="http://www.w3.org/1999/xlink">
 <metadata>
  <rdf:RDF xmlns:cc="http://creativecommons.org/ns#" xmlns:dc="http://purl.org/dc/elements/1.1/" xmlns:rdf="http://www.w3.org/1999/02/22-rdf-syntax-ns#">
   <cc:Work>
    <dc:type rdf:resource="http://purl.org/dc/dcmitype/StillImage"/>
    <dc:date>2022-07-24T15:54:28.986930</dc:date>
    <dc:format>image/svg+xml</dc:format>
    <dc:creator>
     <cc:Agent>
      <dc:title>Matplotlib v3.4.2, https://matplotlib.org/</dc:title>
     </cc:Agent>
    </dc:creator>
   </cc:Work>
  </rdf:RDF>
 </metadata>
 <defs>
  <style type="text/css">*{stroke-linecap:butt;stroke-linejoin:round;}</style>
 </defs>
 <g id="figure_1">
  <g id="patch_1">
   <path d="M 0 1301.874375 
L 1724.98125 1301.874375 
L 1724.98125 0 
L 0 0 
z
" style="fill:#ffffff;"/>
  </g>
  <g id="axes_1">
   <g id="patch_2">
    <path d="M 43.78125 586.86358 
L 1717.78125 586.86358 
L 1717.78125 22.318125 
L 43.78125 22.318125 
z
" style="fill:#ffffff;"/>
   </g>
   <g id="matplotlib.axis_1">
    <g id="xtick_1">
     <g id="line2d_1">
      <defs>
       <path d="M 0 0 
L 0 3.5 
" id="mb2f7650d75" style="stroke:#000000;stroke-width:0.8;"/>
      </defs>
      <g>
       <use style="stroke:#000000;stroke-width:0.8;" x="119.872159" xlink:href="#mb2f7650d75" y="586.86358"/>
      </g>
     </g>
     <g id="text_1">
      <!-- 0 -->
      <g transform="translate(116.690909 601.462017)scale(0.1 -0.1)">
       <defs>
        <path d="M 2034 4250 
Q 1547 4250 1301 3770 
Q 1056 3291 1056 2328 
Q 1056 1369 1301 889 
Q 1547 409 2034 409 
Q 2525 409 2770 889 
Q 3016 1369 3016 2328 
Q 3016 3291 2770 3770 
Q 2525 4250 2034 4250 
z
M 2034 4750 
Q 2819 4750 3233 4129 
Q 3647 3509 3647 2328 
Q 3647 1150 3233 529 
Q 2819 -91 2034 -91 
Q 1250 -91 836 529 
Q 422 1150 422 2328 
Q 422 3509 836 4129 
Q 1250 4750 2034 4750 
z
" id="DejaVuSans-30" transform="scale(0.015625)"/>
       </defs>
       <use xlink:href="#DejaVuSans-30"/>
      </g>
     </g>
    </g>
    <g id="xtick_2">
     <g id="line2d_2">
      <g>
       <use style="stroke:#000000;stroke-width:0.8;" x="367.523613" xlink:href="#mb2f7650d75" y="586.86358"/>
      </g>
     </g>
     <g id="text_2">
      <!-- 200 -->
      <g transform="translate(357.979863 601.462017)scale(0.1 -0.1)">
       <defs>
        <path d="M 1228 531 
L 3431 531 
L 3431 0 
L 469 0 
L 469 531 
Q 828 903 1448 1529 
Q 2069 2156 2228 2338 
Q 2531 2678 2651 2914 
Q 2772 3150 2772 3378 
Q 2772 3750 2511 3984 
Q 2250 4219 1831 4219 
Q 1534 4219 1204 4116 
Q 875 4013 500 3803 
L 500 4441 
Q 881 4594 1212 4672 
Q 1544 4750 1819 4750 
Q 2544 4750 2975 4387 
Q 3406 4025 3406 3419 
Q 3406 3131 3298 2873 
Q 3191 2616 2906 2266 
Q 2828 2175 2409 1742 
Q 1991 1309 1228 531 
z
" id="DejaVuSans-32" transform="scale(0.015625)"/>
       </defs>
       <use xlink:href="#DejaVuSans-32"/>
       <use x="63.623047" xlink:href="#DejaVuSans-30"/>
       <use x="127.246094" xlink:href="#DejaVuSans-30"/>
      </g>
     </g>
    </g>
    <g id="xtick_3">
     <g id="line2d_3">
      <g>
       <use style="stroke:#000000;stroke-width:0.8;" x="615.175066" xlink:href="#mb2f7650d75" y="586.86358"/>
      </g>
     </g>
     <g id="text_3">
      <!-- 400 -->
      <g transform="translate(605.631316 601.462017)scale(0.1 -0.1)">
       <defs>
        <path d="M 2419 4116 
L 825 1625 
L 2419 1625 
L 2419 4116 
z
M 2253 4666 
L 3047 4666 
L 3047 1625 
L 3713 1625 
L 3713 1100 
L 3047 1100 
L 3047 0 
L 2419 0 
L 2419 1100 
L 313 1100 
L 313 1709 
L 2253 4666 
z
" id="DejaVuSans-34" transform="scale(0.015625)"/>
       </defs>
       <use xlink:href="#DejaVuSans-34"/>
       <use x="63.623047" xlink:href="#DejaVuSans-30"/>
       <use x="127.246094" xlink:href="#DejaVuSans-30"/>
      </g>
     </g>
    </g>
    <g id="xtick_4">
     <g id="line2d_4">
      <g>
       <use style="stroke:#000000;stroke-width:0.8;" x="862.82652" xlink:href="#mb2f7650d75" y="586.86358"/>
      </g>
     </g>
     <g id="text_4">
      <!-- 600 -->
      <g transform="translate(853.28277 601.462017)scale(0.1 -0.1)">
       <defs>
        <path d="M 2113 2584 
Q 1688 2584 1439 2293 
Q 1191 2003 1191 1497 
Q 1191 994 1439 701 
Q 1688 409 2113 409 
Q 2538 409 2786 701 
Q 3034 994 3034 1497 
Q 3034 2003 2786 2293 
Q 2538 2584 2113 2584 
z
M 3366 4563 
L 3366 3988 
Q 3128 4100 2886 4159 
Q 2644 4219 2406 4219 
Q 1781 4219 1451 3797 
Q 1122 3375 1075 2522 
Q 1259 2794 1537 2939 
Q 1816 3084 2150 3084 
Q 2853 3084 3261 2657 
Q 3669 2231 3669 1497 
Q 3669 778 3244 343 
Q 2819 -91 2113 -91 
Q 1303 -91 875 529 
Q 447 1150 447 2328 
Q 447 3434 972 4092 
Q 1497 4750 2381 4750 
Q 2619 4750 2861 4703 
Q 3103 4656 3366 4563 
z
" id="DejaVuSans-36" transform="scale(0.015625)"/>
       </defs>
       <use xlink:href="#DejaVuSans-36"/>
       <use x="63.623047" xlink:href="#DejaVuSans-30"/>
       <use x="127.246094" xlink:href="#DejaVuSans-30"/>
      </g>
     </g>
    </g>
    <g id="xtick_5">
     <g id="line2d_5">
      <g>
       <use style="stroke:#000000;stroke-width:0.8;" x="1110.477973" xlink:href="#mb2f7650d75" y="586.86358"/>
      </g>
     </g>
     <g id="text_5">
      <!-- 800 -->
      <g transform="translate(1100.934223 601.462017)scale(0.1 -0.1)">
       <defs>
        <path d="M 2034 2216 
Q 1584 2216 1326 1975 
Q 1069 1734 1069 1313 
Q 1069 891 1326 650 
Q 1584 409 2034 409 
Q 2484 409 2743 651 
Q 3003 894 3003 1313 
Q 3003 1734 2745 1975 
Q 2488 2216 2034 2216 
z
M 1403 2484 
Q 997 2584 770 2862 
Q 544 3141 544 3541 
Q 544 4100 942 4425 
Q 1341 4750 2034 4750 
Q 2731 4750 3128 4425 
Q 3525 4100 3525 3541 
Q 3525 3141 3298 2862 
Q 3072 2584 2669 2484 
Q 3125 2378 3379 2068 
Q 3634 1759 3634 1313 
Q 3634 634 3220 271 
Q 2806 -91 2034 -91 
Q 1263 -91 848 271 
Q 434 634 434 1313 
Q 434 1759 690 2068 
Q 947 2378 1403 2484 
z
M 1172 3481 
Q 1172 3119 1398 2916 
Q 1625 2713 2034 2713 
Q 2441 2713 2670 2916 
Q 2900 3119 2900 3481 
Q 2900 3844 2670 4047 
Q 2441 4250 2034 4250 
Q 1625 4250 1398 4047 
Q 1172 3844 1172 3481 
z
" id="DejaVuSans-38" transform="scale(0.015625)"/>
       </defs>
       <use xlink:href="#DejaVuSans-38"/>
       <use x="63.623047" xlink:href="#DejaVuSans-30"/>
       <use x="127.246094" xlink:href="#DejaVuSans-30"/>
      </g>
     </g>
    </g>
    <g id="xtick_6">
     <g id="line2d_6">
      <g>
       <use style="stroke:#000000;stroke-width:0.8;" x="1358.129427" xlink:href="#mb2f7650d75" y="586.86358"/>
      </g>
     </g>
     <g id="text_6">
      <!-- 1000 -->
      <g transform="translate(1345.404427 601.462017)scale(0.1 -0.1)">
       <defs>
        <path d="M 794 531 
L 1825 531 
L 1825 4091 
L 703 3866 
L 703 4441 
L 1819 4666 
L 2450 4666 
L 2450 531 
L 3481 531 
L 3481 0 
L 794 0 
L 794 531 
z
" id="DejaVuSans-31" transform="scale(0.015625)"/>
       </defs>
       <use xlink:href="#DejaVuSans-31"/>
       <use x="63.623047" xlink:href="#DejaVuSans-30"/>
       <use x="127.246094" xlink:href="#DejaVuSans-30"/>
       <use x="190.869141" xlink:href="#DejaVuSans-30"/>
      </g>
     </g>
    </g>
    <g id="xtick_7">
     <g id="line2d_7">
      <g>
       <use style="stroke:#000000;stroke-width:0.8;" x="1605.78088" xlink:href="#mb2f7650d75" y="586.86358"/>
      </g>
     </g>
     <g id="text_7">
      <!-- 1200 -->
      <g transform="translate(1593.05588 601.462017)scale(0.1 -0.1)">
       <use xlink:href="#DejaVuSans-31"/>
       <use x="63.623047" xlink:href="#DejaVuSans-32"/>
       <use x="127.246094" xlink:href="#DejaVuSans-30"/>
       <use x="190.869141" xlink:href="#DejaVuSans-30"/>
      </g>
     </g>
    </g>
    <g id="text_8">
     <!-- frame -->
     <g transform="translate(865.954687 615.140142)scale(0.1 -0.1)">
      <defs>
       <path d="M 2375 4863 
L 2375 4384 
L 1825 4384 
Q 1516 4384 1395 4259 
Q 1275 4134 1275 3809 
L 1275 3500 
L 2222 3500 
L 2222 3053 
L 1275 3053 
L 1275 0 
L 697 0 
L 697 3053 
L 147 3053 
L 147 3500 
L 697 3500 
L 697 3744 
Q 697 4328 969 4595 
Q 1241 4863 1831 4863 
L 2375 4863 
z
" id="DejaVuSans-66" transform="scale(0.015625)"/>
       <path d="M 2631 2963 
Q 2534 3019 2420 3045 
Q 2306 3072 2169 3072 
Q 1681 3072 1420 2755 
Q 1159 2438 1159 1844 
L 1159 0 
L 581 0 
L 581 3500 
L 1159 3500 
L 1159 2956 
Q 1341 3275 1631 3429 
Q 1922 3584 2338 3584 
Q 2397 3584 2469 3576 
Q 2541 3569 2628 3553 
L 2631 2963 
z
" id="DejaVuSans-72" transform="scale(0.015625)"/>
       <path d="M 2194 1759 
Q 1497 1759 1228 1600 
Q 959 1441 959 1056 
Q 959 750 1161 570 
Q 1363 391 1709 391 
Q 2188 391 2477 730 
Q 2766 1069 2766 1631 
L 2766 1759 
L 2194 1759 
z
M 3341 1997 
L 3341 0 
L 2766 0 
L 2766 531 
Q 2569 213 2275 61 
Q 1981 -91 1556 -91 
Q 1019 -91 701 211 
Q 384 513 384 1019 
Q 384 1609 779 1909 
Q 1175 2209 1959 2209 
L 2766 2209 
L 2766 2266 
Q 2766 2663 2505 2880 
Q 2244 3097 1772 3097 
Q 1472 3097 1187 3025 
Q 903 2953 641 2809 
L 641 3341 
Q 956 3463 1253 3523 
Q 1550 3584 1831 3584 
Q 2591 3584 2966 3190 
Q 3341 2797 3341 1997 
z
" id="DejaVuSans-61" transform="scale(0.015625)"/>
       <path d="M 3328 2828 
Q 3544 3216 3844 3400 
Q 4144 3584 4550 3584 
Q 5097 3584 5394 3201 
Q 5691 2819 5691 2113 
L 5691 0 
L 5113 0 
L 5113 2094 
Q 5113 2597 4934 2840 
Q 4756 3084 4391 3084 
Q 3944 3084 3684 2787 
Q 3425 2491 3425 1978 
L 3425 0 
L 2847 0 
L 2847 2094 
Q 2847 2600 2669 2842 
Q 2491 3084 2119 3084 
Q 1678 3084 1418 2786 
Q 1159 2488 1159 1978 
L 1159 0 
L 581 0 
L 581 3500 
L 1159 3500 
L 1159 2956 
Q 1356 3278 1631 3431 
Q 1906 3584 2284 3584 
Q 2666 3584 2933 3390 
Q 3200 3197 3328 2828 
z
" id="DejaVuSans-6d" transform="scale(0.015625)"/>
       <path d="M 3597 1894 
L 3597 1613 
L 953 1613 
Q 991 1019 1311 708 
Q 1631 397 2203 397 
Q 2534 397 2845 478 
Q 3156 559 3463 722 
L 3463 178 
Q 3153 47 2828 -22 
Q 2503 -91 2169 -91 
Q 1331 -91 842 396 
Q 353 884 353 1716 
Q 353 2575 817 3079 
Q 1281 3584 2069 3584 
Q 2775 3584 3186 3129 
Q 3597 2675 3597 1894 
z
M 3022 2063 
Q 3016 2534 2758 2815 
Q 2500 3097 2075 3097 
Q 1594 3097 1305 2825 
Q 1016 2553 972 2059 
L 3022 2063 
z
" id="DejaVuSans-65" transform="scale(0.015625)"/>
      </defs>
      <use xlink:href="#DejaVuSans-66"/>
      <use x="35.205078" xlink:href="#DejaVuSans-72"/>
      <use x="76.318359" xlink:href="#DejaVuSans-61"/>
      <use x="137.597656" xlink:href="#DejaVuSans-6d"/>
      <use x="235.009766" xlink:href="#DejaVuSans-65"/>
     </g>
    </g>
   </g>
   <g id="matplotlib.axis_2">
    <g id="ytick_1">
     <g id="line2d_8">
      <defs>
       <path d="M 0 0 
L -3.5 0 
" id="m9f192e8c93" style="stroke:#000000;stroke-width:0.8;"/>
      </defs>
      <g>
       <use style="stroke:#000000;stroke-width:0.8;" x="43.78125" xlink:href="#m9f192e8c93" y="541.565924"/>
      </g>
     </g>
     <g id="text_9">
      <!-- 2.4 -->
      <g transform="translate(20.878125 545.365143)scale(0.1 -0.1)">
       <defs>
        <path d="M 684 794 
L 1344 794 
L 1344 0 
L 684 0 
L 684 794 
z
" id="DejaVuSans-2e" transform="scale(0.015625)"/>
       </defs>
       <use xlink:href="#DejaVuSans-32"/>
       <use x="63.623047" xlink:href="#DejaVuSans-2e"/>
       <use x="95.410156" xlink:href="#DejaVuSans-34"/>
      </g>
     </g>
    </g>
    <g id="ytick_2">
     <g id="line2d_9">
      <g>
       <use style="stroke:#000000;stroke-width:0.8;" x="43.78125" xlink:href="#m9f192e8c93" y="470.470734"/>
      </g>
     </g>
     <g id="text_10">
      <!-- 2.6 -->
      <g transform="translate(20.878125 474.269952)scale(0.1 -0.1)">
       <use xlink:href="#DejaVuSans-32"/>
       <use x="63.623047" xlink:href="#DejaVuSans-2e"/>
       <use x="95.410156" xlink:href="#DejaVuSans-36"/>
      </g>
     </g>
    </g>
    <g id="ytick_3">
     <g id="line2d_10">
      <g>
       <use style="stroke:#000000;stroke-width:0.8;" x="43.78125" xlink:href="#m9f192e8c93" y="399.375543"/>
      </g>
     </g>
     <g id="text_11">
      <!-- 2.8 -->
      <g transform="translate(20.878125 403.174762)scale(0.1 -0.1)">
       <use xlink:href="#DejaVuSans-32"/>
       <use x="63.623047" xlink:href="#DejaVuSans-2e"/>
       <use x="95.410156" xlink:href="#DejaVuSans-38"/>
      </g>
     </g>
    </g>
    <g id="ytick_4">
     <g id="line2d_11">
      <g>
       <use style="stroke:#000000;stroke-width:0.8;" x="43.78125" xlink:href="#m9f192e8c93" y="328.280352"/>
      </g>
     </g>
     <g id="text_12">
      <!-- 3.0 -->
      <g transform="translate(20.878125 332.079571)scale(0.1 -0.1)">
       <defs>
        <path d="M 2597 2516 
Q 3050 2419 3304 2112 
Q 3559 1806 3559 1356 
Q 3559 666 3084 287 
Q 2609 -91 1734 -91 
Q 1441 -91 1130 -33 
Q 819 25 488 141 
L 488 750 
Q 750 597 1062 519 
Q 1375 441 1716 441 
Q 2309 441 2620 675 
Q 2931 909 2931 1356 
Q 2931 1769 2642 2001 
Q 2353 2234 1838 2234 
L 1294 2234 
L 1294 2753 
L 1863 2753 
Q 2328 2753 2575 2939 
Q 2822 3125 2822 3475 
Q 2822 3834 2567 4026 
Q 2313 4219 1838 4219 
Q 1578 4219 1281 4162 
Q 984 4106 628 3988 
L 628 4550 
Q 988 4650 1302 4700 
Q 1616 4750 1894 4750 
Q 2613 4750 3031 4423 
Q 3450 4097 3450 3541 
Q 3450 3153 3228 2886 
Q 3006 2619 2597 2516 
z
" id="DejaVuSans-33" transform="scale(0.015625)"/>
       </defs>
       <use xlink:href="#DejaVuSans-33"/>
       <use x="63.623047" xlink:href="#DejaVuSans-2e"/>
       <use x="95.410156" xlink:href="#DejaVuSans-30"/>
      </g>
     </g>
    </g>
    <g id="ytick_5">
     <g id="line2d_12">
      <g>
       <use style="stroke:#000000;stroke-width:0.8;" x="43.78125" xlink:href="#m9f192e8c93" y="257.185162"/>
      </g>
     </g>
     <g id="text_13">
      <!-- 3.2 -->
      <g transform="translate(20.878125 260.984381)scale(0.1 -0.1)">
       <use xlink:href="#DejaVuSans-33"/>
       <use x="63.623047" xlink:href="#DejaVuSans-2e"/>
       <use x="95.410156" xlink:href="#DejaVuSans-32"/>
      </g>
     </g>
    </g>
    <g id="ytick_6">
     <g id="line2d_13">
      <g>
       <use style="stroke:#000000;stroke-width:0.8;" x="43.78125" xlink:href="#m9f192e8c93" y="186.089971"/>
      </g>
     </g>
     <g id="text_14">
      <!-- 3.4 -->
      <g transform="translate(20.878125 189.88919)scale(0.1 -0.1)">
       <use xlink:href="#DejaVuSans-33"/>
       <use x="63.623047" xlink:href="#DejaVuSans-2e"/>
       <use x="95.410156" xlink:href="#DejaVuSans-34"/>
      </g>
     </g>
    </g>
    <g id="ytick_7">
     <g id="line2d_14">
      <g>
       <use style="stroke:#000000;stroke-width:0.8;" x="43.78125" xlink:href="#m9f192e8c93" y="114.994781"/>
      </g>
     </g>
     <g id="text_15">
      <!-- 3.6 -->
      <g transform="translate(20.878125 118.793999)scale(0.1 -0.1)">
       <use xlink:href="#DejaVuSans-33"/>
       <use x="63.623047" xlink:href="#DejaVuSans-2e"/>
       <use x="95.410156" xlink:href="#DejaVuSans-36"/>
      </g>
     </g>
    </g>
    <g id="ytick_8">
     <g id="line2d_15">
      <g>
       <use style="stroke:#000000;stroke-width:0.8;" x="43.78125" xlink:href="#m9f192e8c93" y="43.89959"/>
      </g>
     </g>
     <g id="text_16">
      <!-- 3.8 -->
      <g transform="translate(20.878125 47.698809)scale(0.1 -0.1)">
       <use xlink:href="#DejaVuSans-33"/>
       <use x="63.623047" xlink:href="#DejaVuSans-2e"/>
       <use x="95.410156" xlink:href="#DejaVuSans-38"/>
      </g>
     </g>
    </g>
    <g id="text_17">
     <!-- GCaMP -->
     <g transform="translate(14.798437 322.349446)rotate(-90)scale(0.1 -0.1)">
      <defs>
       <path d="M 3809 666 
L 3809 1919 
L 2778 1919 
L 2778 2438 
L 4434 2438 
L 4434 434 
Q 4069 175 3628 42 
Q 3188 -91 2688 -91 
Q 1594 -91 976 548 
Q 359 1188 359 2328 
Q 359 3472 976 4111 
Q 1594 4750 2688 4750 
Q 3144 4750 3555 4637 
Q 3966 4525 4313 4306 
L 4313 3634 
Q 3963 3931 3569 4081 
Q 3175 4231 2741 4231 
Q 1884 4231 1454 3753 
Q 1025 3275 1025 2328 
Q 1025 1384 1454 906 
Q 1884 428 2741 428 
Q 3075 428 3337 486 
Q 3600 544 3809 666 
z
" id="DejaVuSans-47" transform="scale(0.015625)"/>
       <path d="M 4122 4306 
L 4122 3641 
Q 3803 3938 3442 4084 
Q 3081 4231 2675 4231 
Q 1875 4231 1450 3742 
Q 1025 3253 1025 2328 
Q 1025 1406 1450 917 
Q 1875 428 2675 428 
Q 3081 428 3442 575 
Q 3803 722 4122 1019 
L 4122 359 
Q 3791 134 3420 21 
Q 3050 -91 2638 -91 
Q 1578 -91 968 557 
Q 359 1206 359 2328 
Q 359 3453 968 4101 
Q 1578 4750 2638 4750 
Q 3056 4750 3426 4639 
Q 3797 4528 4122 4306 
z
" id="DejaVuSans-43" transform="scale(0.015625)"/>
       <path d="M 628 4666 
L 1569 4666 
L 2759 1491 
L 3956 4666 
L 4897 4666 
L 4897 0 
L 4281 0 
L 4281 4097 
L 3078 897 
L 2444 897 
L 1241 4097 
L 1241 0 
L 628 0 
L 628 4666 
z
" id="DejaVuSans-4d" transform="scale(0.015625)"/>
       <path d="M 1259 4147 
L 1259 2394 
L 2053 2394 
Q 2494 2394 2734 2622 
Q 2975 2850 2975 3272 
Q 2975 3691 2734 3919 
Q 2494 4147 2053 4147 
L 1259 4147 
z
M 628 4666 
L 2053 4666 
Q 2838 4666 3239 4311 
Q 3641 3956 3641 3272 
Q 3641 2581 3239 2228 
Q 2838 1875 2053 1875 
L 1259 1875 
L 1259 0 
L 628 0 
L 628 4666 
z
" id="DejaVuSans-50" transform="scale(0.015625)"/>
      </defs>
      <use xlink:href="#DejaVuSans-47"/>
      <use x="77.490234" xlink:href="#DejaVuSans-43"/>
      <use x="147.314453" xlink:href="#DejaVuSans-61"/>
      <use x="208.59375" xlink:href="#DejaVuSans-4d"/>
      <use x="294.873047" xlink:href="#DejaVuSans-50"/>
     </g>
    </g>
   </g>
   <g id="line2d_16">
    <path clip-path="url(#p53cfe8b354)" d="M 119.872159 75.176033 
L 121.110416 78.152618 
L 122.348674 83.593282 
L 123.586931 94.344987 
L 124.825188 111.657793 
L 127.301703 153.402536 
L 128.53996 167.341881 
L 129.778217 172.524455 
L 131.016474 170.905806 
L 132.254732 166.377789 
L 133.492989 160.573349 
L 134.731246 152.587295 
L 135.969504 142.582367 
L 137.207761 134.266335 
L 138.446018 132.658184 
L 139.684275 139.298558 
L 140.922533 151.793876 
L 142.16079 167.931304 
L 144.637304 206.296807 
L 145.875562 221.449101 
L 147.113819 228.630637 
L 148.352076 227.396911 
L 149.590334 219.340569 
L 150.828591 206.548022 
L 152.066848 190.464398 
L 153.305105 171.340133 
L 155.78162 128.66312 
L 157.019877 110.598365 
L 158.258134 101.730476 
L 159.496392 108.234654 
L 160.734649 128.709216 
L 161.972906 153.2653 
L 163.211163 172.976464 
L 164.449421 186.002249 
L 165.687678 194.189249 
L 166.925935 198.384446 
L 168.164193 198.154207 
L 170.640707 191.031037 
L 171.878964 189.44457 
L 173.117222 189.523711 
L 174.355479 191.206419 
L 175.593736 194.425232 
L 176.831993 196.12131 
L 178.070251 191.7035 
L 179.308508 180.702969 
L 180.546765 168.562898 
L 181.785022 162.280599 
L 183.02328 165.927134 
L 184.261537 179.963794 
L 186.738052 225.412209 
L 187.976309 242.866012 
L 189.214566 248.022703 
L 190.452823 239.969348 
L 192.929338 207.602126 
L 194.167595 195.372765 
L 195.405852 185.836865 
L 196.64411 178.211976 
L 197.882367 175.347715 
L 199.120624 178.989614 
L 200.358881 187.406822 
L 201.597139 199.567447 
L 202.835396 216.377102 
L 204.073653 235.646456 
L 205.311911 250.485672 
L 206.550168 254.783956 
L 207.788425 247.70215 
L 209.026682 232.991979 
L 210.26494 216.096211 
L 211.503197 201.229182 
L 213.979711 175.133273 
L 215.217969 159.012776 
L 216.456226 144.689907 
L 217.694483 138.298182 
L 218.93274 140.972584 
L 220.170998 148.381231 
L 221.409255 156.514724 
L 222.647512 166.147008 
L 223.88577 179.889489 
L 225.124027 196.177193 
L 226.362284 209.233696 
L 227.600541 214.68248 
L 228.838799 213.368561 
L 230.077056 209.329481 
L 231.315313 205.978815 
L 232.55357 204.996629 
L 235.030085 206.50822 
L 236.268342 208.029415 
L 237.5066 211.751417 
L 238.744857 216.339083 
L 239.983114 218.710156 
L 241.221371 215.818339 
L 242.459629 206.435657 
L 243.697886 193.135178 
L 244.936143 181.295076 
L 246.1744 175.606204 
L 247.412658 175.515853 
L 248.650915 174.970988 
L 249.889172 169.287601 
L 251.127429 159.718484 
L 252.365687 151.14223 
L 253.603944 148.288637 
L 254.842201 153.59524 
L 256.080459 167.256591 
L 257.318716 188.177871 
L 259.79523 235.812202 
L 261.033488 250.996188 
L 262.271745 259.631559 
L 263.510002 266.138607 
L 264.748259 269.620556 
L 265.986517 263.556576 
L 267.224774 245.275848 
L 269.701288 197.085859 
L 272.177803 157.157045 
L 273.41606 139.673513 
L 274.654318 127.900581 
L 275.892575 124.574178 
L 277.130832 128.5926 
L 278.369089 137.666635 
L 279.607347 151.128777 
L 282.083861 183.899952 
L 283.322118 198.034174 
L 284.560376 209.595542 
L 285.798633 215.353824 
L 287.03689 210.165836 
L 288.275147 195.544356 
L 289.513405 183.675249 
L 290.751662 187.370454 
L 291.989919 206.470675 
L 293.228177 229.446244 
L 294.466434 247.028066 
L 295.704691 257.433822 
L 296.942948 261.20014 
L 298.181206 258.951241 
L 299.419463 253.361105 
L 300.65772 248.599733 
L 303.134235 243.985734 
L 305.610749 235.833687 
L 306.849006 234.29478 
L 308.087264 234.314834 
L 309.325521 232.169238 
L 310.563778 223.29111 
L 311.802036 205.032232 
L 314.27855 154.345936 
L 315.516807 137.56159 
L 316.755065 133.594914 
L 317.993322 142.264724 
L 319.231579 160.81105 
L 320.469836 183.187717 
L 321.708094 201.415801 
L 322.946351 211.503693 
L 324.184608 216.727729 
L 325.422866 224.108588 
L 326.661123 237.978044 
L 329.137637 276.18099 
L 330.375895 291.158115 
L 331.614152 299.510082 
L 332.852409 300.639199 
L 334.090666 295.780107 
L 335.328924 287.256611 
L 337.805438 266.560234 
L 339.043695 257.542609 
L 340.281953 249.88379 
L 341.52021 243.51566 
L 342.758467 239.604897 
L 343.996725 238.978467 
L 345.234982 241.169198 
L 346.473239 245.470805 
L 347.711496 250.223967 
L 348.949754 252.223603 
L 350.188011 249.186143 
L 352.664525 234.364743 
L 353.902783 231.810707 
L 355.14104 234.79961 
L 356.379297 237.18967 
L 357.617554 232.361141 
L 358.855812 219.35018 
L 360.094069 203.270398 
L 361.332326 192.228371 
L 362.570584 192.182266 
L 363.808841 203.351857 
L 365.047098 222.594174 
L 367.523613 271.977595 
L 368.76187 288.799826 
L 370.000127 292.854896 
L 371.238384 286.274533 
L 373.714899 261.511028 
L 376.191413 237.650642 
L 377.429671 227.750081 
L 378.667928 221.236545 
L 379.906185 218.476491 
L 381.144443 217.456151 
L 382.3827 215.224931 
L 383.620957 211.53677 
L 384.859214 207.119463 
L 386.097472 201.553717 
L 387.335729 197.874024 
L 388.573986 201.683062 
L 391.050501 223.71893 
L 392.288758 230.437845 
L 393.527015 233.17049 
L 394.765272 234.494055 
L 396.00353 234.505971 
L 397.241787 230.557189 
L 398.480044 221.581915 
L 399.718302 210.75629 
L 400.956559 203.013156 
L 402.194816 200.7447 
L 403.433073 202.933662 
L 404.671331 206.893612 
L 405.909588 209.032459 
L 407.147845 207.927963 
L 408.386102 207.659939 
L 409.62436 213.36591 
L 410.862617 225.029628 
L 412.100874 238.618182 
L 413.339132 250.340764 
L 414.577389 258.076859 
L 415.815646 260.948409 
L 417.053903 258.900675 
L 418.292161 252.099588 
L 420.768675 230.717593 
L 422.006932 222.663882 
L 423.24519 217.701599 
L 424.483447 215.442725 
L 425.721704 216.596188 
L 426.959961 220.052569 
L 428.198219 223.020733 
L 429.436476 225.369678 
L 430.674733 229.560098 
L 431.912991 236.934555 
L 434.389505 255.318575 
L 435.627762 260.569815 
L 436.86602 261.934169 
L 438.104277 262.111358 
L 439.342534 264.163425 
L 441.819049 272.903691 
L 443.057306 271.817102 
L 444.295563 261.448215 
L 445.53382 242.80519 
L 446.772078 221.94374 
L 448.010335 206.053251 
L 449.248592 199.256424 
L 450.48685 200.802854 
L 451.725107 205.667677 
L 452.963364 207.267949 
L 454.201621 203.071932 
L 455.439879 198.482802 
L 456.678136 202.352574 
L 457.916393 217.457497 
L 459.15465 236.821072 
L 460.392908 250.49617 
L 461.631165 254.233075 
L 462.869422 249.594192 
L 464.107679 239.259741 
L 465.345937 226.127741 
L 466.584194 214.684827 
L 467.822451 209.864777 
L 469.060709 213.06986 
L 470.298966 221.213615 
L 471.537223 231.441477 
L 472.77548 243.367336 
L 475.251995 269.479892 
L 476.490252 277.820484 
L 477.728509 276.154457 
L 478.966767 261.803447 
L 481.443281 216.509912 
L 482.681538 203.206299 
L 483.919796 199.361979 
L 485.158053 199.086209 
L 486.39631 197.330606 
L 488.872825 190.103737 
L 490.111082 186.978372 
L 491.349339 182.500191 
L 492.587597 176.761489 
L 493.825854 173.280591 
L 495.064111 175.619177 
L 496.302368 183.463664 
L 500.01714 212.508622 
L 501.255397 220.783077 
L 502.493655 224.006131 
L 503.731912 219.763531 
L 504.970169 209.279496 
L 506.208427 196.571314 
L 507.446684 186.883594 
L 508.684941 183.79111 
L 509.923198 187.401884 
L 511.161456 195.665903 
L 512.399713 205.500961 
L 513.63797 213.591467 
L 514.876227 217.637637 
L 516.114485 216.275277 
L 517.352742 209.562646 
L 518.590999 199.89912 
L 519.829257 188.763882 
L 521.067514 174.136554 
L 527.2588 77.889754 
L 528.497057 64.893133 
L 529.735315 68.848749 
L 530.973572 92.810141 
L 533.450086 165.471302 
L 534.688344 192.912994 
L 535.926601 206.652816 
L 537.164858 206.630361 
L 538.403116 197.089153 
L 540.87963 172.41277 
L 542.117887 163.354172 
L 543.356145 156.146675 
L 544.594402 147.812804 
L 545.832659 137.776033 
L 547.070916 129.651753 
L 548.309174 126.566277 
L 549.547431 128.830991 
L 550.785688 135.218417 
L 552.023945 142.788489 
L 553.262203 147.986988 
L 554.50046 149.382457 
L 555.738717 147.754817 
L 556.976975 144.624324 
L 558.215232 141.823641 
L 559.453489 141.342239 
L 560.691746 144.501374 
L 561.930004 151.790805 
L 563.168261 163.522264 
L 565.644775 193.185909 
L 566.883033 202.165059 
L 568.12129 204.489116 
L 569.359547 204.154413 
L 570.597804 205.052649 
L 571.836062 205.277523 
L 573.074319 199.155584 
L 574.312576 184.359081 
L 576.789091 144.471225 
L 578.027348 129.062897 
L 579.265605 119.794702 
L 580.503863 116.925229 
L 581.74212 121.058473 
L 582.980377 132.525957 
L 585.456892 166.846731 
L 586.695149 180.916153 
L 587.933406 190.600397 
L 591.648178 213.527617 
L 592.886435 217.439179 
L 594.124693 214.847259 
L 595.36295 205.880212 
L 596.601207 192.245581 
L 597.839464 176.594495 
L 599.077722 163.959513 
L 600.315979 158.935805 
L 601.554236 161.641569 
L 602.792493 167.958976 
L 604.030751 171.867397 
L 605.269008 168.238536 
L 607.745523 144.966444 
L 608.98378 141.162371 
L 610.222037 150.635594 
L 611.460294 171.816195 
L 612.698552 197.941773 
L 613.936809 220.074255 
L 615.175066 229.367181 
L 616.413323 219.956503 
L 617.651581 193.572255 
L 618.889838 161.141629 
L 620.128095 137.602074 
L 621.366352 132.009517 
L 622.60461 140.977957 
L 623.842867 153.011978 
L 625.081124 158.333073 
L 626.319382 153.916673 
L 627.557639 142.285786 
L 628.795896 128.677358 
L 630.034153 118.847422 
L 631.272411 115.487254 
L 632.510668 117.217372 
L 633.748925 123.291887 
L 634.987182 133.995492 
L 636.22544 145.752271 
L 637.463697 153.348597 
L 638.701954 157.192947 
L 639.940211 162.969136 
L 641.178469 173.749904 
L 642.416726 185.831805 
L 643.654983 191.57891 
L 644.893241 184.69382 
L 646.131498 167.646302 
L 647.369755 153.440648 
L 648.608012 153.08853 
L 649.84627 165.481199 
L 652.322784 201.559749 
L 653.561041 215.834262 
L 654.799299 225.575621 
L 656.037556 232.391932 
L 657.275813 235.458423 
L 658.51407 230.819635 
L 659.752328 217.225718 
L 662.228842 181.814065 
L 663.4671 166.649869 
L 664.705357 155.057549 
L 665.943614 150.178112 
L 667.181871 154.481035 
L 668.420129 167.398987 
L 669.658386 183.759288 
L 670.896643 194.567719 
L 672.1349 193.471123 
L 674.611415 172.488353 
L 675.849672 166.789212 
L 677.087929 166.381741 
L 678.326187 167.585079 
L 679.564444 165.979559 
L 680.802701 161.282161 
L 682.040959 157.67558 
L 683.279216 159.408947 
L 684.517473 168.497533 
L 686.993988 199.028505 
L 688.232245 206.988409 
L 689.470502 205.235478 
L 690.708759 198.458587 
L 691.947017 192.803876 
L 693.185274 191.069833 
L 694.423531 194.265446 
L 695.661789 204.338774 
L 698.138303 240.31864 
L 699.37656 249.891876 
L 700.614818 241.81554 
L 701.853075 218.081334 
L 703.091332 190.17623 
L 704.329589 167.978118 
L 705.567847 154.254854 
L 706.806104 150.16146 
L 708.044361 157.819718 
L 709.282618 175.762881 
L 710.520876 197.219022 
L 711.759133 213.078915 
L 712.99739 215.104657 
L 714.235648 200.199533 
L 716.712162 148.587686 
L 717.950419 134.461122 
L 719.188677 134.630284 
L 720.426934 145.825385 
L 721.665191 163.462333 
L 724.141706 202.301207 
L 725.379963 218.23367 
L 726.61822 229.435877 
L 727.856477 235.486125 
L 729.094735 238.310602 
L 730.332992 237.670943 
L 731.571249 229.344544 
L 734.047764 194.677078 
L 735.286021 185.471279 
L 736.524278 190.54771 
L 737.762536 210.683274 
L 739.000793 242.384764 
L 741.477307 311.950725 
L 742.715565 335.635812 
L 743.953822 345.048357 
L 745.192079 339.558343 
L 746.430336 323.531759 
L 750.145108 262.967853 
L 752.621623 229.183542 
L 753.85988 216.674132 
L 755.098137 212.51737 
L 756.336395 218.099482 
L 758.812909 243.154198 
L 760.051166 252.057717 
L 761.289424 254.71255 
L 762.527681 249.537201 
L 763.765938 235.252618 
L 766.242453 195.947665 
L 767.48071 184.848174 
L 768.718967 185.040627 
L 769.957225 198.345591 
L 771.195482 222.852927 
L 772.433739 250.234776 
L 773.671996 270.795617 
L 774.910254 280.877733 
L 776.148511 282.593027 
L 777.386768 278.459203 
L 778.625025 268.974692 
L 781.10154 241.23067 
L 782.339797 233.145388 
L 783.578054 233.522562 
L 784.816312 240.895554 
L 786.054569 252.274961 
L 789.769341 290.061301 
L 791.007598 298.376966 
L 792.245855 300.818474 
L 793.484113 300.248845 
L 794.72237 301.054317 
L 795.960627 303.775323 
L 797.198884 305.571701 
L 798.437142 304.09025 
L 799.675399 298.086954 
L 800.913656 286.839177 
L 802.151914 272.483838 
L 803.390171 260.003804 
L 804.628428 252.056653 
L 805.866685 245.705719 
L 807.104943 235.805738 
L 809.581457 208.332504 
L 810.819714 203.989393 
L 812.057972 212.981818 
L 813.296229 236.878593 
L 814.534486 273.571672 
L 815.772743 314.609823 
L 817.011001 347.360478 
L 818.249258 362.437935 
L 819.487515 359.608265 
L 820.725773 347.752328 
L 821.96403 339.420552 
L 823.202287 341.719177 
L 824.440544 351.899059 
L 828.155316 389.714883 
L 829.393573 402.58196 
L 830.631831 411.574459 
L 831.870088 409.979235 
L 834.346602 382.709698 
L 835.58486 382.621923 
L 836.823117 397.996627 
L 838.061374 417.440099 
L 839.299632 430.521418 
L 840.537889 434.803524 
L 841.776146 432.760875 
L 843.014403 430.434266 
L 844.252661 435.093431 
L 845.490918 448.252893 
L 846.729175 464.29154 
L 847.967432 475.796147 
L 849.20569 478.233823 
L 850.443947 473.098342 
L 851.682204 467.198498 
L 852.920461 466.668503 
L 855.396976 477.124727 
L 856.635233 473.763673 
L 857.873491 455.299802 
L 860.350005 394.978371 
L 861.588262 374.735747 
L 862.82652 367.269701 
L 864.064777 371.867287 
L 865.303034 384.619788 
L 866.541291 398.902192 
L 867.779549 407.85705 
L 869.017806 406.424126 
L 870.256063 395.476959 
L 871.49432 382.779885 
L 872.732578 375.519323 
L 873.970835 374.373677 
L 875.209092 375.875762 
L 876.44735 376.377297 
L 877.685607 374.239775 
L 878.923864 371.61458 
L 880.162121 371.816677 
L 881.400379 374.457667 
L 882.638636 377.521122 
L 883.876893 382.605837 
L 885.11515 393.690756 
L 886.353408 412.11163 
L 887.591665 434.400479 
L 888.829922 454.574129 
L 890.06818 469.289486 
L 891.306437 479.376537 
L 892.544694 485.813967 
L 893.782951 489.145825 
L 895.021209 492.964352 
L 896.259466 502.072253 
L 898.73598 529.357212 
L 899.974238 534.145104 
L 901.212495 528.939677 
L 906.165524 484.279739 
L 907.403781 470.491585 
L 908.642039 458.951261 
L 909.880296 453.649787 
L 911.118553 455.074709 
L 912.35681 461.586272 
L 913.595068 471.798613 
L 914.833325 485.303104 
L 917.309839 517.461358 
L 918.548097 527.695819 
L 919.786354 526.295746 
L 921.024611 511.663786 
L 922.262868 488.432466 
L 924.739383 437.026732 
L 927.215898 375.879999 
L 928.454155 351.283733 
L 929.692412 338.435805 
L 930.930669 335.227869 
L 932.168927 340.142329 
L 933.407184 352.710411 
L 935.883698 382.884202 
L 940.836727 434.822088 
L 942.074985 449.363733 
L 943.313242 465.940621 
L 945.789757 502.978676 
L 947.028014 513.322682 
L 948.266271 509.379728 
L 949.504528 489.909997 
L 953.2193 398.64847 
L 954.457557 375.800986 
L 955.695815 363.600896 
L 956.934072 369.189727 
L 958.172329 393.058541 
L 959.410586 422.389647 
L 960.648844 440.594725 
L 961.887101 440.88085 
L 963.125358 429.801913 
L 964.363616 420.143568 
L 965.601873 419.239263 
L 966.84013 425.236307 
L 968.078387 434.24882 
L 970.554902 454.701989 
L 973.031416 473.196092 
L 974.269674 480.269347 
L 975.507931 479.12799 
L 976.746188 464.581764 
L 977.984446 438.097723 
L 979.222703 407.690142 
L 980.46096 380.927385 
L 981.699217 361.290369 
L 982.937475 350.42693 
L 984.175732 348.109632 
L 985.413989 352.052135 
L 986.652246 359.880222 
L 987.890504 369.669629 
L 989.128761 381.318363 
L 990.367018 396.645533 
L 992.843533 434.565593 
L 994.08179 447.17252 
L 995.320047 448.77522 
L 996.558305 439.938996 
L 997.796562 424.614222 
L 999.034819 407.584732 
L 1000.273076 393.781324 
L 1001.511334 385.287002 
L 1002.749591 380.529321 
L 1003.987848 378.803846 
L 1005.226105 381.810848 
L 1006.464363 388.505427 
L 1007.70262 393.542856 
L 1008.940877 394.297863 
L 1010.179134 393.80655 
L 1011.417392 395.389434 
L 1012.655649 400.368319 
L 1013.893906 409.166929 
L 1017.608678 444.155563 
L 1018.846935 459.382973 
L 1020.085193 482.669291 
L 1021.32345 510.952895 
L 1022.561707 534.444312 
L 1023.799964 544.024153 
L 1025.038222 535.302323 
L 1026.276479 509.521363 
L 1028.752993 441.62087 
L 1029.991251 424.993316 
L 1031.229508 430.361825 
L 1032.467765 452.608755 
L 1033.706023 477.973153 
L 1034.94428 493.14467 
L 1036.182537 493.717094 
L 1037.420794 483.518806 
L 1039.897309 454.0276 
L 1041.135566 443.697697 
L 1042.373823 438.968947 
L 1043.612081 440.689625 
L 1044.850338 449.868923 
L 1046.088595 464.339155 
L 1047.326852 477.386536 
L 1048.56511 481.895658 
L 1049.803367 475.87983 
L 1051.041624 464.259943 
L 1052.279882 453.702397 
L 1053.518139 445.453093 
L 1054.756396 435.337529 
L 1055.994653 420.19872 
L 1057.232911 403.044316 
L 1058.471168 392.187802 
L 1059.709425 392.699674 
L 1062.18594 406.878511 
L 1063.424197 411.522223 
L 1064.662454 414.357307 
L 1065.900711 414.882268 
L 1067.138969 412.401222 
L 1068.377226 406.638646 
L 1069.615483 398.249401 
L 1070.853741 389.006677 
L 1072.091998 381.289621 
L 1073.330255 377.57707 
L 1074.568512 379.624513 
L 1075.80677 386.144759 
L 1077.045027 391.660326 
L 1078.283284 390.690188 
L 1079.521541 383.442198 
L 1080.759799 378.482755 
L 1081.998056 388.004954 
L 1083.236313 414.279359 
L 1084.474571 444.645267 
L 1085.712828 464.154003 
L 1086.951085 468.73246 
L 1088.189342 465.949582 
L 1089.4276 465.466189 
L 1090.665857 469.850223 
L 1091.904114 475.074035 
L 1093.142371 476.125335 
L 1094.380629 469.634835 
L 1095.618886 454.163477 
L 1096.857143 433.127571 
L 1098.0954 417.250978 
L 1099.333658 415.857232 
L 1100.571915 426.787704 
L 1101.810172 443.751253 
L 1103.04843 466.180087 
L 1105.524944 522.432044 
L 1106.763201 545.305911 
L 1108.001459 558.112236 
L 1109.239716 559.119205 
L 1110.477973 549.87854 
L 1111.71623 533.39267 
L 1115.431002 473.148252 
L 1116.669259 465.169446 
L 1117.907517 469.534666 
L 1120.384031 493.327938 
L 1121.622289 496.858096 
L 1122.860546 492.900129 
L 1124.098803 488.139706 
L 1125.33706 487.606226 
L 1126.575318 490.983097 
L 1127.813575 496.21286 
L 1130.290089 510.684479 
L 1131.528347 513.220329 
L 1132.766604 506.430946 
L 1135.243118 480.954225 
L 1136.481376 473.746359 
L 1137.719633 470.070762 
L 1138.95789 467.464041 
L 1140.196148 465.25589 
L 1141.434405 461.913299 
L 1142.672662 455.529708 
L 1143.910919 448.380993 
L 1145.149177 446.36471 
L 1146.387434 452.23628 
L 1147.625691 462.289858 
L 1148.863948 470.063808 
L 1150.102206 470.443643 
L 1151.340463 462.707846 
L 1152.57872 451.281036 
L 1153.816977 442.150399 
L 1155.055235 440.528024 
L 1156.293492 448.726791 
L 1157.531749 462.69676 
L 1158.770007 474.489779 
L 1160.008264 479.689007 
L 1162.484778 481.13463 
L 1163.723036 484.207844 
L 1164.961293 489.948901 
L 1167.437807 505.97571 
L 1168.676065 510.41638 
L 1169.914322 508.243285 
L 1172.390837 493.418347 
L 1173.629094 491.490871 
L 1174.867351 493.104396 
L 1176.105608 493.780987 
L 1177.343866 493.073933 
L 1178.582123 494.694388 
L 1179.82038 501.200296 
L 1181.058637 509.526009 
L 1182.296895 512.262001 
L 1183.535152 504.783481 
L 1184.773409 490.595857 
L 1186.011666 478.397627 
L 1187.249924 475.034274 
L 1188.488181 481.961479 
L 1189.726438 496.46633 
L 1192.202953 533.265494 
L 1193.44121 548.499143 
L 1194.679467 557.678326 
L 1195.917725 561.202423 
L 1197.155982 560.702153 
L 1198.394239 558.011396 
L 1199.632496 556.013021 
L 1200.870754 553.164475 
L 1202.109011 541.99466 
L 1203.347268 519.9614 
L 1204.585525 494.404981 
L 1205.823783 474.551998 
L 1207.06204 465.227327 
L 1208.300297 466.94954 
L 1209.538555 476.005764 
L 1210.776812 483.818129 
L 1212.015069 480.839875 
L 1213.253326 464.27199 
L 1214.491584 441.326424 
L 1215.729841 424.937128 
L 1216.968098 425.320869 
L 1218.206355 442.947201 
L 1219.444613 469.018768 
L 1220.68287 491.733275 
L 1221.921127 502.194796 
L 1223.159384 499.220178 
L 1224.397642 490.411451 
L 1225.635899 482.909814 
L 1226.874156 473.219497 
L 1228.112414 452.296126 
L 1229.350671 417.163745 
L 1230.588928 375.863825 
L 1231.827185 344.472385 
L 1233.065443 334.38945 
L 1234.3037 343.367129 
L 1235.541957 361.034702 
L 1236.780214 375.9574 
L 1238.018472 379.680389 
L 1239.256729 370.689059 
L 1240.494986 355.360321 
L 1241.733243 344.003759 
L 1242.971501 341.203194 
L 1244.209758 340.815479 
L 1245.448015 333.994248 
L 1246.686273 319.420585 
L 1247.92453 306.595854 
L 1249.162787 309.98747 
L 1250.401044 336.567918 
L 1252.877559 424.649621 
L 1254.115816 457.244967 
L 1255.354073 468.776523 
L 1256.592331 460.005204 
L 1259.068845 422.02669 
L 1260.307103 405.503489 
L 1261.54536 387.424607 
L 1262.783617 366.578973 
L 1264.021874 349.918282 
L 1265.260132 346.691143 
L 1266.498389 357.34297 
L 1267.736646 372.881174 
L 1268.974903 384.453708 
L 1270.213161 391.349775 
L 1271.451418 400.711937 
L 1272.689675 418.483557 
L 1275.16619 464.555299 
L 1276.404447 479.405063 
L 1277.642704 483.326209 
L 1278.880962 476.20249 
L 1280.119219 461.350709 
L 1283.833991 404.669103 
L 1285.072248 391.236909 
L 1286.310505 385.996768 
L 1287.548762 389.41889 
L 1288.78702 400.100851 
L 1291.263534 433.540086 
L 1292.501791 445.439037 
L 1293.740049 450.695439 
L 1294.978306 454.745854 
L 1296.216563 461.662639 
L 1297.454821 469.31105 
L 1298.693078 473.234496 
L 1299.931335 470.231699 
L 1301.169592 460.478397 
L 1302.40785 449.486721 
L 1303.646107 445.089265 
L 1304.884364 452.821816 
L 1306.122621 473.582111 
L 1307.360879 501.086102 
L 1308.599136 524.629273 
L 1309.837393 538.20555 
L 1311.07565 542.368481 
L 1312.313908 539.228393 
L 1313.552165 531.28275 
L 1314.790422 520.191594 
L 1316.02868 504.721565 
L 1317.266937 483.907741 
L 1318.505194 460.64471 
L 1319.743451 439.994865 
L 1320.981709 425.922691 
L 1322.219966 420.68544 
L 1323.458223 424.249868 
L 1324.69648 432.281323 
L 1325.934738 437.630913 
L 1327.172995 437.929372 
L 1328.411252 441.180832 
L 1329.649509 457.823833 
L 1330.887767 485.292448 
L 1332.126024 505.629101 
L 1333.364281 501.108948 
L 1334.602539 469.185461 
L 1337.079053 373.015822 
L 1338.31731 333.865564 
L 1339.555568 310.641674 
L 1340.793825 308.041805 
L 1342.032082 326.611739 
L 1344.508597 388.836037 
L 1345.746854 406.028222 
L 1346.985111 406.961257 
L 1348.223368 394.281515 
L 1349.461626 371.716198 
L 1350.699883 344.117456 
L 1351.93814 319.072874 
L 1353.176398 303.199252 
L 1354.414655 298.137675 
L 1355.652912 303.333814 
L 1356.891169 317.157423 
L 1358.129427 334.072359 
L 1359.367684 347.546983 
L 1360.605941 356.225216 
L 1361.844198 363.392589 
L 1363.082456 371.572615 
L 1365.55897 389.818843 
L 1366.797228 395.10638 
L 1368.035485 390.781881 
L 1369.273742 372.857292 
L 1371.750257 317.416444 
L 1372.988514 300.144792 
L 1374.226771 295.441474 
L 1375.465028 303.091463 
L 1376.703286 322.186692 
L 1377.941543 346.41156 
L 1379.1798 365.40785 
L 1380.418057 371.47135 
L 1381.656315 361.431846 
L 1382.894572 334.653778 
L 1384.132829 293.139422 
L 1386.609344 195.268379 
L 1387.847601 158.845489 
L 1389.085858 140.009668 
L 1390.324116 139.263178 
L 1391.562373 154.722635 
L 1392.80063 183.907443 
L 1394.038887 219.488744 
L 1395.277145 248.340463 
L 1396.515402 261.505829 
L 1397.753659 263.337417 
L 1398.991916 267.841788 
L 1400.230174 285.798468 
L 1401.468431 312.386734 
L 1402.706688 327.992418 
L 1403.944946 313.984154 
L 1405.183203 267.677806 
L 1406.42146 205.814779 
L 1407.659717 154.6054 
L 1408.897975 131.400069 
L 1410.136232 135.859993 
L 1411.374489 158.272356 
L 1412.612746 190.748086 
L 1416.327518 305.224723 
L 1417.565775 331.798058 
L 1418.804033 347.796189 
L 1420.04229 358.213022 
L 1421.280547 370.780815 
L 1423.757062 406.595382 
L 1424.995319 415.518158 
L 1426.233576 411.176209 
L 1427.471834 398.898916 
L 1428.710091 383.387502 
L 1429.948348 363.966854 
L 1432.424863 322.67601 
L 1437.377892 248.507068 
L 1438.616149 236.359626 
L 1439.854406 234.601596 
L 1441.092664 248.048841 
L 1443.569178 302.407796 
L 1444.807435 322.053811 
L 1446.045693 329.445298 
L 1447.28395 327.656177 
L 1448.522207 321.234007 
L 1449.760464 312.276571 
L 1450.998722 301.879325 
L 1453.475236 283.652534 
L 1454.713494 270.191555 
L 1455.951751 251.780783 
L 1457.190008 238.011037 
L 1458.428265 238.638429 
L 1459.666523 255.147664 
L 1463.381294 332.582011 
L 1464.619552 350.787727 
L 1465.857809 364.066264 
L 1467.096066 369.554092 
L 1468.334323 365.085483 
L 1469.572581 352.40803 
L 1470.810838 337.11357 
L 1472.049095 326.302761 
L 1473.287353 323.641454 
L 1474.52561 325.774734 
L 1475.763867 324.819039 
L 1477.002124 314.493762 
L 1478.240382 293.233094 
L 1479.478639 262.726158 
L 1481.955153 193.485181 
L 1483.193411 164.348192 
L 1484.431668 139.786537 
L 1485.669925 121.658019 
L 1486.908182 112.302186 
L 1488.14644 109.751439 
L 1489.384697 110.664075 
L 1490.622954 114.878796 
L 1491.861212 124.200348 
L 1493.099469 138.827972 
L 1496.814241 189.530752 
L 1498.052498 203.869244 
L 1499.290755 215.713801 
L 1500.529012 222.996422 
L 1501.76727 221.506143 
L 1503.005527 210.133253 
L 1504.243784 199.979 
L 1505.482041 211.474781 
L 1506.720299 252.94784 
L 1507.958556 306.289068 
L 1509.196813 344.220763 
L 1510.435071 356.554237 
L 1511.673328 353.457279 
L 1512.911585 348.891372 
L 1514.149842 345.701496 
L 1515.3881 337.428741 
L 1516.626357 322.472791 
L 1517.864614 310.768541 
L 1519.102871 312.286073 
L 1521.579386 336.146287 
L 1522.817643 344.021534 
L 1524.0559 349.621694 
L 1525.294158 353.861345 
L 1526.532415 351.341086 
L 1527.770672 332.043733 
L 1529.00893 293.903647 
L 1530.247187 251.039582 
L 1531.485444 222.84495 
L 1532.723701 219.49558 
L 1535.200216 253.715417 
L 1536.438473 256.114654 
L 1538.914988 231.87739 
L 1540.153245 232.392661 
L 1541.391502 245.177429 
L 1542.62976 264.822597 
L 1543.868017 290.255022 
L 1545.106274 322.980085 
L 1547.582789 394.247957 
L 1548.821046 420.278331 
L 1550.059303 434.330403 
L 1551.29756 432.997731 
L 1552.535818 418.454686 
L 1557.488847 340.016575 
L 1558.727104 326.713238 
L 1559.965361 319.483609 
L 1561.203619 316.211916 
L 1562.441876 311.240793 
L 1563.680133 299.5028 
L 1564.91839 282.261782 
L 1566.156648 267.579821 
L 1567.394905 265.447403 
L 1568.633162 280.372474 
L 1569.871419 305.143293 
L 1571.109677 326.364183 
L 1572.347934 337.151106 
L 1573.586191 338.009897 
L 1574.824448 328.175436 
L 1576.062706 304.637517 
L 1578.53922 234.798575 
L 1579.777478 210.837712 
L 1581.015735 205.302273 
L 1582.253992 217.710134 
L 1584.730507 261.366817 
L 1585.968764 273.542232 
L 1587.207021 273.02502 
L 1588.445278 260.503182 
L 1590.921793 220.932501 
L 1592.16005 212.147844 
L 1593.398307 213.235356 
L 1594.636565 212.35928 
L 1595.874822 196.121416 
L 1597.113079 160.263549 
L 1598.351337 113.448903 
L 1599.589594 72.014396 
L 1600.827851 48.98154 
L 1602.066108 47.979282 
L 1603.304366 66.099407 
L 1604.542623 97.392834 
L 1608.257395 208.637749 
L 1609.495652 233.203329 
L 1610.733909 245.891409 
L 1611.972166 249.863966 
L 1613.210424 244.00775 
L 1614.448681 226.068546 
L 1615.686938 201.356184 
L 1616.925196 180.101995 
L 1618.163453 169.806537 
L 1619.40171 172.759729 
L 1620.639967 187.629258 
L 1621.878225 210.836604 
L 1623.116482 236.156634 
L 1624.354739 257.285393 
L 1625.592996 272.275867 
L 1626.831254 281.047631 
L 1628.069511 283.973626 
L 1629.307768 285.612164 
L 1630.546026 290.278483 
L 1631.784283 296.039555 
L 1633.02254 299.539256 
L 1635.499055 303.312198 
L 1636.737312 302.323335 
L 1637.975569 292.290121 
L 1639.213826 268.49826 
L 1640.452084 230.759661 
L 1641.690341 184.179267 
L 1641.690341 184.179267 
" style="fill:none;stroke:#008000;stroke-linecap:square;stroke-width:1.5;"/>
   </g>
   <g id="patch_3">
    <path d="M 43.78125 586.86358 
L 43.78125 22.318125 
" style="fill:none;stroke:#000000;stroke-linecap:square;stroke-linejoin:miter;stroke-width:0.8;"/>
   </g>
   <g id="patch_4">
    <path d="M 1717.78125 586.86358 
L 1717.78125 22.318125 
" style="fill:none;stroke:#000000;stroke-linecap:square;stroke-linejoin:miter;stroke-width:0.8;"/>
   </g>
   <g id="patch_5">
    <path d="M 43.78125 586.86358 
L 1717.78125 586.86358 
" style="fill:none;stroke:#000000;stroke-linecap:square;stroke-linejoin:miter;stroke-width:0.8;"/>
   </g>
   <g id="patch_6">
    <path d="M 43.78125 22.318125 
L 1717.78125 22.318125 
" style="fill:none;stroke:#000000;stroke-linecap:square;stroke-linejoin:miter;stroke-width:0.8;"/>
   </g>
   <g id="text_18">
    <!-- before binarisation -->
    <g transform="translate(824.1825 16.318125)scale(0.12 -0.12)">
     <defs>
      <path d="M 3116 1747 
Q 3116 2381 2855 2742 
Q 2594 3103 2138 3103 
Q 1681 3103 1420 2742 
Q 1159 2381 1159 1747 
Q 1159 1113 1420 752 
Q 1681 391 2138 391 
Q 2594 391 2855 752 
Q 3116 1113 3116 1747 
z
M 1159 2969 
Q 1341 3281 1617 3432 
Q 1894 3584 2278 3584 
Q 2916 3584 3314 3078 
Q 3713 2572 3713 1747 
Q 3713 922 3314 415 
Q 2916 -91 2278 -91 
Q 1894 -91 1617 61 
Q 1341 213 1159 525 
L 1159 0 
L 581 0 
L 581 4863 
L 1159 4863 
L 1159 2969 
z
" id="DejaVuSans-62" transform="scale(0.015625)"/>
      <path d="M 1959 3097 
Q 1497 3097 1228 2736 
Q 959 2375 959 1747 
Q 959 1119 1226 758 
Q 1494 397 1959 397 
Q 2419 397 2687 759 
Q 2956 1122 2956 1747 
Q 2956 2369 2687 2733 
Q 2419 3097 1959 3097 
z
M 1959 3584 
Q 2709 3584 3137 3096 
Q 3566 2609 3566 1747 
Q 3566 888 3137 398 
Q 2709 -91 1959 -91 
Q 1206 -91 779 398 
Q 353 888 353 1747 
Q 353 2609 779 3096 
Q 1206 3584 1959 3584 
z
" id="DejaVuSans-6f" transform="scale(0.015625)"/>
      <path id="DejaVuSans-20" transform="scale(0.015625)"/>
      <path d="M 603 3500 
L 1178 3500 
L 1178 0 
L 603 0 
L 603 3500 
z
M 603 4863 
L 1178 4863 
L 1178 4134 
L 603 4134 
L 603 4863 
z
" id="DejaVuSans-69" transform="scale(0.015625)"/>
      <path d="M 3513 2113 
L 3513 0 
L 2938 0 
L 2938 2094 
Q 2938 2591 2744 2837 
Q 2550 3084 2163 3084 
Q 1697 3084 1428 2787 
Q 1159 2491 1159 1978 
L 1159 0 
L 581 0 
L 581 3500 
L 1159 3500 
L 1159 2956 
Q 1366 3272 1645 3428 
Q 1925 3584 2291 3584 
Q 2894 3584 3203 3211 
Q 3513 2838 3513 2113 
z
" id="DejaVuSans-6e" transform="scale(0.015625)"/>
      <path d="M 2834 3397 
L 2834 2853 
Q 2591 2978 2328 3040 
Q 2066 3103 1784 3103 
Q 1356 3103 1142 2972 
Q 928 2841 928 2578 
Q 928 2378 1081 2264 
Q 1234 2150 1697 2047 
L 1894 2003 
Q 2506 1872 2764 1633 
Q 3022 1394 3022 966 
Q 3022 478 2636 193 
Q 2250 -91 1575 -91 
Q 1294 -91 989 -36 
Q 684 19 347 128 
L 347 722 
Q 666 556 975 473 
Q 1284 391 1588 391 
Q 1994 391 2212 530 
Q 2431 669 2431 922 
Q 2431 1156 2273 1281 
Q 2116 1406 1581 1522 
L 1381 1569 
Q 847 1681 609 1914 
Q 372 2147 372 2553 
Q 372 3047 722 3315 
Q 1072 3584 1716 3584 
Q 2034 3584 2315 3537 
Q 2597 3491 2834 3397 
z
" id="DejaVuSans-73" transform="scale(0.015625)"/>
      <path d="M 1172 4494 
L 1172 3500 
L 2356 3500 
L 2356 3053 
L 1172 3053 
L 1172 1153 
Q 1172 725 1289 603 
Q 1406 481 1766 481 
L 2356 481 
L 2356 0 
L 1766 0 
Q 1100 0 847 248 
Q 594 497 594 1153 
L 594 3053 
L 172 3053 
L 172 3500 
L 594 3500 
L 594 4494 
L 1172 4494 
z
" id="DejaVuSans-74" transform="scale(0.015625)"/>
     </defs>
     <use xlink:href="#DejaVuSans-62"/>
     <use x="63.476562" xlink:href="#DejaVuSans-65"/>
     <use x="125" xlink:href="#DejaVuSans-66"/>
     <use x="160.205078" xlink:href="#DejaVuSans-6f"/>
     <use x="221.386719" xlink:href="#DejaVuSans-72"/>
     <use x="260.25" xlink:href="#DejaVuSans-65"/>
     <use x="321.773438" xlink:href="#DejaVuSans-20"/>
     <use x="353.560547" xlink:href="#DejaVuSans-62"/>
     <use x="417.037109" xlink:href="#DejaVuSans-69"/>
     <use x="444.820312" xlink:href="#DejaVuSans-6e"/>
     <use x="508.199219" xlink:href="#DejaVuSans-61"/>
     <use x="569.478516" xlink:href="#DejaVuSans-72"/>
     <use x="610.591797" xlink:href="#DejaVuSans-69"/>
     <use x="638.375" xlink:href="#DejaVuSans-73"/>
     <use x="690.474609" xlink:href="#DejaVuSans-61"/>
     <use x="751.753906" xlink:href="#DejaVuSans-74"/>
     <use x="790.962891" xlink:href="#DejaVuSans-69"/>
     <use x="818.746094" xlink:href="#DejaVuSans-6f"/>
     <use x="879.927734" xlink:href="#DejaVuSans-6e"/>
    </g>
   </g>
  </g>
  <g id="axes_2">
   <g id="patch_7">
    <path d="M 43.78125 1264.318125 
L 1717.78125 1264.318125 
L 1717.78125 699.77267 
L 43.78125 699.77267 
z
" style="fill:#ffffff;"/>
   </g>
   <g id="matplotlib.axis_3">
    <g id="xtick_8">
     <g id="line2d_17">
      <g>
       <use style="stroke:#000000;stroke-width:0.8;" x="119.872159" xlink:href="#mb2f7650d75" y="1264.318125"/>
      </g>
     </g>
     <g id="text_19">
      <!-- 0 -->
      <g transform="translate(116.690909 1278.916563)scale(0.1 -0.1)">
       <use xlink:href="#DejaVuSans-30"/>
      </g>
     </g>
    </g>
    <g id="xtick_9">
     <g id="line2d_18">
      <g>
       <use style="stroke:#000000;stroke-width:0.8;" x="367.523613" xlink:href="#mb2f7650d75" y="1264.318125"/>
      </g>
     </g>
     <g id="text_20">
      <!-- 200 -->
      <g transform="translate(357.979863 1278.916563)scale(0.1 -0.1)">
       <use xlink:href="#DejaVuSans-32"/>
       <use x="63.623047" xlink:href="#DejaVuSans-30"/>
       <use x="127.246094" xlink:href="#DejaVuSans-30"/>
      </g>
     </g>
    </g>
    <g id="xtick_10">
     <g id="line2d_19">
      <g>
       <use style="stroke:#000000;stroke-width:0.8;" x="615.175066" xlink:href="#mb2f7650d75" y="1264.318125"/>
      </g>
     </g>
     <g id="text_21">
      <!-- 400 -->
      <g transform="translate(605.631316 1278.916563)scale(0.1 -0.1)">
       <use xlink:href="#DejaVuSans-34"/>
       <use x="63.623047" xlink:href="#DejaVuSans-30"/>
       <use x="127.246094" xlink:href="#DejaVuSans-30"/>
      </g>
     </g>
    </g>
    <g id="xtick_11">
     <g id="line2d_20">
      <g>
       <use style="stroke:#000000;stroke-width:0.8;" x="862.82652" xlink:href="#mb2f7650d75" y="1264.318125"/>
      </g>
     </g>
     <g id="text_22">
      <!-- 600 -->
      <g transform="translate(853.28277 1278.916563)scale(0.1 -0.1)">
       <use xlink:href="#DejaVuSans-36"/>
       <use x="63.623047" xlink:href="#DejaVuSans-30"/>
       <use x="127.246094" xlink:href="#DejaVuSans-30"/>
      </g>
     </g>
    </g>
    <g id="xtick_12">
     <g id="line2d_21">
      <g>
       <use style="stroke:#000000;stroke-width:0.8;" x="1110.477973" xlink:href="#mb2f7650d75" y="1264.318125"/>
      </g>
     </g>
     <g id="text_23">
      <!-- 800 -->
      <g transform="translate(1100.934223 1278.916563)scale(0.1 -0.1)">
       <use xlink:href="#DejaVuSans-38"/>
       <use x="63.623047" xlink:href="#DejaVuSans-30"/>
       <use x="127.246094" xlink:href="#DejaVuSans-30"/>
      </g>
     </g>
    </g>
    <g id="xtick_13">
     <g id="line2d_22">
      <g>
       <use style="stroke:#000000;stroke-width:0.8;" x="1358.129427" xlink:href="#mb2f7650d75" y="1264.318125"/>
      </g>
     </g>
     <g id="text_24">
      <!-- 1000 -->
      <g transform="translate(1345.404427 1278.916563)scale(0.1 -0.1)">
       <use xlink:href="#DejaVuSans-31"/>
       <use x="63.623047" xlink:href="#DejaVuSans-30"/>
       <use x="127.246094" xlink:href="#DejaVuSans-30"/>
       <use x="190.869141" xlink:href="#DejaVuSans-30"/>
      </g>
     </g>
    </g>
    <g id="xtick_14">
     <g id="line2d_23">
      <g>
       <use style="stroke:#000000;stroke-width:0.8;" x="1605.78088" xlink:href="#mb2f7650d75" y="1264.318125"/>
      </g>
     </g>
     <g id="text_25">
      <!-- 1200 -->
      <g transform="translate(1593.05588 1278.916563)scale(0.1 -0.1)">
       <use xlink:href="#DejaVuSans-31"/>
       <use x="63.623047" xlink:href="#DejaVuSans-32"/>
       <use x="127.246094" xlink:href="#DejaVuSans-30"/>
       <use x="190.869141" xlink:href="#DejaVuSans-30"/>
      </g>
     </g>
    </g>
    <g id="text_26">
     <!-- frame -->
     <g transform="translate(865.954687 1292.594688)scale(0.1 -0.1)">
      <use xlink:href="#DejaVuSans-66"/>
      <use x="35.205078" xlink:href="#DejaVuSans-72"/>
      <use x="76.318359" xlink:href="#DejaVuSans-61"/>
      <use x="137.597656" xlink:href="#DejaVuSans-6d"/>
      <use x="235.009766" xlink:href="#DejaVuSans-65"/>
     </g>
    </g>
   </g>
   <g id="matplotlib.axis_4">
    <g id="ytick_9">
     <g id="line2d_24">
      <g>
       <use style="stroke:#000000;stroke-width:0.8;" x="43.78125" xlink:href="#m9f192e8c93" y="1238.656968"/>
      </g>
     </g>
     <g id="text_27">
      <!-- 0.0 -->
      <g transform="translate(20.878125 1242.456187)scale(0.1 -0.1)">
       <use xlink:href="#DejaVuSans-30"/>
       <use x="63.623047" xlink:href="#DejaVuSans-2e"/>
       <use x="95.410156" xlink:href="#DejaVuSans-30"/>
      </g>
     </g>
    </g>
    <g id="ytick_10">
     <g id="line2d_25">
      <g>
       <use style="stroke:#000000;stroke-width:0.8;" x="43.78125" xlink:href="#m9f192e8c93" y="1136.01234"/>
      </g>
     </g>
     <g id="text_28">
      <!-- 0.2 -->
      <g transform="translate(20.878125 1139.811559)scale(0.1 -0.1)">
       <use xlink:href="#DejaVuSans-30"/>
       <use x="63.623047" xlink:href="#DejaVuSans-2e"/>
       <use x="95.410156" xlink:href="#DejaVuSans-32"/>
      </g>
     </g>
    </g>
    <g id="ytick_11">
     <g id="line2d_26">
      <g>
       <use style="stroke:#000000;stroke-width:0.8;" x="43.78125" xlink:href="#m9f192e8c93" y="1033.367712"/>
      </g>
     </g>
     <g id="text_29">
      <!-- 0.4 -->
      <g transform="translate(20.878125 1037.166931)scale(0.1 -0.1)">
       <use xlink:href="#DejaVuSans-30"/>
       <use x="63.623047" xlink:href="#DejaVuSans-2e"/>
       <use x="95.410156" xlink:href="#DejaVuSans-34"/>
      </g>
     </g>
    </g>
    <g id="ytick_12">
     <g id="line2d_27">
      <g>
       <use style="stroke:#000000;stroke-width:0.8;" x="43.78125" xlink:href="#m9f192e8c93" y="930.723084"/>
      </g>
     </g>
     <g id="text_30">
      <!-- 0.6 -->
      <g transform="translate(20.878125 934.522302)scale(0.1 -0.1)">
       <use xlink:href="#DejaVuSans-30"/>
       <use x="63.623047" xlink:href="#DejaVuSans-2e"/>
       <use x="95.410156" xlink:href="#DejaVuSans-36"/>
      </g>
     </g>
    </g>
    <g id="ytick_13">
     <g id="line2d_28">
      <g>
       <use style="stroke:#000000;stroke-width:0.8;" x="43.78125" xlink:href="#m9f192e8c93" y="828.078456"/>
      </g>
     </g>
     <g id="text_31">
      <!-- 0.8 -->
      <g transform="translate(20.878125 831.877674)scale(0.1 -0.1)">
       <use xlink:href="#DejaVuSans-30"/>
       <use x="63.623047" xlink:href="#DejaVuSans-2e"/>
       <use x="95.410156" xlink:href="#DejaVuSans-38"/>
      </g>
     </g>
    </g>
    <g id="ytick_14">
     <g id="line2d_29">
      <g>
       <use style="stroke:#000000;stroke-width:0.8;" x="43.78125" xlink:href="#m9f192e8c93" y="725.433827"/>
      </g>
     </g>
     <g id="text_32">
      <!-- 1.0 -->
      <g transform="translate(20.878125 729.233046)scale(0.1 -0.1)">
       <use xlink:href="#DejaVuSans-31"/>
       <use x="63.623047" xlink:href="#DejaVuSans-2e"/>
       <use x="95.410156" xlink:href="#DejaVuSans-30"/>
      </g>
     </g>
    </g>
    <g id="text_33">
     <!-- GCaMP -->
     <g transform="translate(14.798437 999.803991)rotate(-90)scale(0.1 -0.1)">
      <use xlink:href="#DejaVuSans-47"/>
      <use x="77.490234" xlink:href="#DejaVuSans-43"/>
      <use x="147.314453" xlink:href="#DejaVuSans-61"/>
      <use x="208.59375" xlink:href="#DejaVuSans-4d"/>
      <use x="294.873047" xlink:href="#DejaVuSans-50"/>
     </g>
    </g>
   </g>
   <g id="line2d_30">
    <path clip-path="url(#pea361dcbff)" d="M 119.872159 725.433827 
L 142.16079 725.433827 
L 143.399047 1238.656968 
L 152.066848 1238.656968 
L 153.305105 725.433827 
L 163.211163 725.433827 
L 164.449421 1238.656968 
L 179.308508 1238.656968 
L 180.546765 725.433827 
L 183.02328 725.433827 
L 184.261537 1238.656968 
L 195.405852 1238.656968 
L 196.64411 725.433827 
L 197.882367 725.433827 
L 199.120624 1238.656968 
L 212.741454 1238.656968 
L 213.979711 725.433827 
L 222.647512 725.433827 
L 223.88577 1238.656968 
L 244.936143 1238.656968 
L 246.1744 725.433827 
L 256.080459 725.433827 
L 257.318716 1238.656968 
L 269.701288 1238.656968 
L 270.939546 725.433827 
L 280.845604 725.433827 
L 282.083861 1238.656968 
L 313.040293 1238.656968 
L 314.27855 725.433827 
L 319.231579 725.433827 
L 320.469836 1238.656968 
L 491.349339 1238.656968 
L 492.587597 725.433827 
L 495.064111 725.433827 
L 496.302368 1238.656968 
L 519.829257 1238.656968 
L 521.067514 725.433827 
L 533.450086 725.433827 
L 534.688344 1238.656968 
L 539.641373 1238.656968 
L 540.87963 725.433827 
L 564.406518 725.433827 
L 565.644775 1238.656968 
L 574.312576 1238.656968 
L 575.550834 725.433827 
L 585.456892 725.433827 
L 586.695149 1238.656968 
L 596.601207 1238.656968 
L 597.839464 725.433827 
L 611.460294 725.433827 
L 612.698552 1238.656968 
L 617.651581 1238.656968 
L 618.889838 725.433827 
L 641.178469 725.433827 
L 642.416726 1238.656968 
L 644.893241 1238.656968 
L 646.131498 725.433827 
L 649.84627 725.433827 
L 651.084527 1238.656968 
L 662.228842 1238.656968 
L 663.4671 725.433827 
L 668.420129 725.433827 
L 669.658386 1238.656968 
L 673.373158 1238.656968 
L 674.611415 725.433827 
L 684.517473 725.433827 
L 685.75573 1238.656968 
L 703.091332 1238.656968 
L 704.329589 725.433827 
L 709.282618 725.433827 
L 710.520876 1238.656968 
L 714.235648 1238.656968 
L 715.473905 725.433827 
L 721.665191 725.433827 
L 722.903448 1238.656968 
L 1386.609344 1238.656968 
L 1387.847601 725.433827 
L 1391.562373 725.433827 
L 1392.80063 1238.656968 
L 1406.42146 1238.656968 
L 1407.659717 725.433827 
L 1411.374489 725.433827 
L 1412.612746 1238.656968 
L 1481.955153 1238.656968 
L 1483.193411 725.433827 
L 1495.575983 725.433827 
L 1496.814241 1238.656968 
L 1595.874822 1238.656968 
L 1597.113079 725.433827 
L 1607.019137 725.433827 
L 1608.257395 1238.656968 
L 1616.925196 1238.656968 
L 1618.163453 725.433827 
L 1619.40171 725.433827 
L 1620.639967 1238.656968 
L 1641.690341 1238.656968 
L 1641.690341 1238.656968 
" style="fill:none;stroke:#008000;stroke-linecap:square;stroke-width:1.5;"/>
   </g>
   <g id="patch_8">
    <path d="M 43.78125 1264.318125 
L 43.78125 699.77267 
" style="fill:none;stroke:#000000;stroke-linecap:square;stroke-linejoin:miter;stroke-width:0.8;"/>
   </g>
   <g id="patch_9">
    <path d="M 1717.78125 1264.318125 
L 1717.78125 699.77267 
" style="fill:none;stroke:#000000;stroke-linecap:square;stroke-linejoin:miter;stroke-width:0.8;"/>
   </g>
   <g id="patch_10">
    <path d="M 43.78125 1264.318125 
L 1717.78125 1264.318125 
" style="fill:none;stroke:#000000;stroke-linecap:square;stroke-linejoin:miter;stroke-width:0.8;"/>
   </g>
   <g id="patch_11">
    <path d="M 43.78125 699.77267 
L 1717.78125 699.77267 
" style="fill:none;stroke:#000000;stroke-linecap:square;stroke-linejoin:miter;stroke-width:0.8;"/>
   </g>
   <g id="text_34">
    <!-- before binarisation -->
    <g transform="translate(824.1825 693.77267)scale(0.12 -0.12)">
     <use xlink:href="#DejaVuSans-62"/>
     <use x="63.476562" xlink:href="#DejaVuSans-65"/>
     <use x="125" xlink:href="#DejaVuSans-66"/>
     <use x="160.205078" xlink:href="#DejaVuSans-6f"/>
     <use x="221.386719" xlink:href="#DejaVuSans-72"/>
     <use x="260.25" xlink:href="#DejaVuSans-65"/>
     <use x="321.773438" xlink:href="#DejaVuSans-20"/>
     <use x="353.560547" xlink:href="#DejaVuSans-62"/>
     <use x="417.037109" xlink:href="#DejaVuSans-69"/>
     <use x="444.820312" xlink:href="#DejaVuSans-6e"/>
     <use x="508.199219" xlink:href="#DejaVuSans-61"/>
     <use x="569.478516" xlink:href="#DejaVuSans-72"/>
     <use x="610.591797" xlink:href="#DejaVuSans-69"/>
     <use x="638.375" xlink:href="#DejaVuSans-73"/>
     <use x="690.474609" xlink:href="#DejaVuSans-61"/>
     <use x="751.753906" xlink:href="#DejaVuSans-74"/>
     <use x="790.962891" xlink:href="#DejaVuSans-69"/>
     <use x="818.746094" xlink:href="#DejaVuSans-6f"/>
     <use x="879.927734" xlink:href="#DejaVuSans-6e"/>
    </g>
   </g>
  </g>
 </g>
 <defs>
  <clipPath id="p53cfe8b354">
   <rect height="564.545455" width="1674" x="43.78125" y="22.318125"/>
  </clipPath>
  <clipPath id="pea361dcbff">
   <rect height="564.545455" width="1674" x="43.78125" y="699.77267"/>
  </clipPath>
 </defs>
</svg>
