<?xml version="1.0" encoding="utf-8" standalone="no"?>
<!DOCTYPE svg PUBLIC "-//W3C//DTD SVG 1.1//EN"
  "http://www.w3.org/Graphics/SVG/1.1/DTD/svg11.dtd">
<svg height="1301.874375pt" version="1.1" viewBox="0 0 1731.34375 1301.874375" width="1731.34375pt" xmlns="http://www.w3.org/2000/svg" xmlns:xlink="http://www.w3.org/1999/xlink">
 <metadata>
  <rdf:RDF xmlns:cc="http://creativecommons.org/ns#" xmlns:dc="http://purl.org/dc/elements/1.1/" xmlns:rdf="http://www.w3.org/1999/02/22-rdf-syntax-ns#">
   <cc:Work>
    <dc:type rdf:resource="http://purl.org/dc/dcmitype/StillImage"/>
    <dc:date>2022-07-24T15:54:29.183411</dc:date>
    <dc:format>image/svg+xml</dc:format>
    <dc:creator>
     <cc:Agent>
      <dc:title>Matplotlib v3.4.2, https://matplotlib.org/</dc:title>
     </cc:Agent>
    </dc:creator>
   </cc:Work>
  </rdf:RDF>
 </metadata>
 <defs>
  <style type="text/css">*{stroke-linecap:butt;stroke-linejoin:round;}</style>
 </defs>
 <g id="figure_1">
  <g id="patch_1">
   <path d="M 0 1301.874375 
L 1731.34375 1301.874375 
L 1731.34375 0 
L 0 0 
z
" style="fill:#ffffff;"/>
  </g>
  <g id="axes_1">
   <g id="patch_2">
    <path d="M 50.14375 586.86358 
L 1724.14375 586.86358 
L 1724.14375 22.318125 
L 50.14375 22.318125 
z
" style="fill:#ffffff;"/>
   </g>
   <g id="matplotlib.axis_1">
    <g id="xtick_1">
     <g id="line2d_1">
      <defs>
       <path d="M 0 0 
L 0 3.5 
" id="md3aec90590" style="stroke:#000000;stroke-width:0.8;"/>
      </defs>
      <g>
       <use style="stroke:#000000;stroke-width:0.8;" x="126.234659" xlink:href="#md3aec90590" y="586.86358"/>
      </g>
     </g>
     <g id="text_1">
      <!-- 0 -->
      <g transform="translate(123.053409 601.462017)scale(0.1 -0.1)">
       <defs>
        <path d="M 2034 4250 
Q 1547 4250 1301 3770 
Q 1056 3291 1056 2328 
Q 1056 1369 1301 889 
Q 1547 409 2034 409 
Q 2525 409 2770 889 
Q 3016 1369 3016 2328 
Q 3016 3291 2770 3770 
Q 2525 4250 2034 4250 
z
M 2034 4750 
Q 2819 4750 3233 4129 
Q 3647 3509 3647 2328 
Q 3647 1150 3233 529 
Q 2819 -91 2034 -91 
Q 1250 -91 836 529 
Q 422 1150 422 2328 
Q 422 3509 836 4129 
Q 1250 4750 2034 4750 
z
" id="DejaVuSans-30" transform="scale(0.015625)"/>
       </defs>
       <use xlink:href="#DejaVuSans-30"/>
      </g>
     </g>
    </g>
    <g id="xtick_2">
     <g id="line2d_2">
      <g>
       <use style="stroke:#000000;stroke-width:0.8;" x="373.886113" xlink:href="#md3aec90590" y="586.86358"/>
      </g>
     </g>
     <g id="text_2">
      <!-- 200 -->
      <g transform="translate(364.342363 601.462017)scale(0.1 -0.1)">
       <defs>
        <path d="M 1228 531 
L 3431 531 
L 3431 0 
L 469 0 
L 469 531 
Q 828 903 1448 1529 
Q 2069 2156 2228 2338 
Q 2531 2678 2651 2914 
Q 2772 3150 2772 3378 
Q 2772 3750 2511 3984 
Q 2250 4219 1831 4219 
Q 1534 4219 1204 4116 
Q 875 4013 500 3803 
L 500 4441 
Q 881 4594 1212 4672 
Q 1544 4750 1819 4750 
Q 2544 4750 2975 4387 
Q 3406 4025 3406 3419 
Q 3406 3131 3298 2873 
Q 3191 2616 2906 2266 
Q 2828 2175 2409 1742 
Q 1991 1309 1228 531 
z
" id="DejaVuSans-32" transform="scale(0.015625)"/>
       </defs>
       <use xlink:href="#DejaVuSans-32"/>
       <use x="63.623047" xlink:href="#DejaVuSans-30"/>
       <use x="127.246094" xlink:href="#DejaVuSans-30"/>
      </g>
     </g>
    </g>
    <g id="xtick_3">
     <g id="line2d_3">
      <g>
       <use style="stroke:#000000;stroke-width:0.8;" x="621.537566" xlink:href="#md3aec90590" y="586.86358"/>
      </g>
     </g>
     <g id="text_3">
      <!-- 400 -->
      <g transform="translate(611.993816 601.462017)scale(0.1 -0.1)">
       <defs>
        <path d="M 2419 4116 
L 825 1625 
L 2419 1625 
L 2419 4116 
z
M 2253 4666 
L 3047 4666 
L 3047 1625 
L 3713 1625 
L 3713 1100 
L 3047 1100 
L 3047 0 
L 2419 0 
L 2419 1100 
L 313 1100 
L 313 1709 
L 2253 4666 
z
" id="DejaVuSans-34" transform="scale(0.015625)"/>
       </defs>
       <use xlink:href="#DejaVuSans-34"/>
       <use x="63.623047" xlink:href="#DejaVuSans-30"/>
       <use x="127.246094" xlink:href="#DejaVuSans-30"/>
      </g>
     </g>
    </g>
    <g id="xtick_4">
     <g id="line2d_4">
      <g>
       <use style="stroke:#000000;stroke-width:0.8;" x="869.18902" xlink:href="#md3aec90590" y="586.86358"/>
      </g>
     </g>
     <g id="text_4">
      <!-- 600 -->
      <g transform="translate(859.64527 601.462017)scale(0.1 -0.1)">
       <defs>
        <path d="M 2113 2584 
Q 1688 2584 1439 2293 
Q 1191 2003 1191 1497 
Q 1191 994 1439 701 
Q 1688 409 2113 409 
Q 2538 409 2786 701 
Q 3034 994 3034 1497 
Q 3034 2003 2786 2293 
Q 2538 2584 2113 2584 
z
M 3366 4563 
L 3366 3988 
Q 3128 4100 2886 4159 
Q 2644 4219 2406 4219 
Q 1781 4219 1451 3797 
Q 1122 3375 1075 2522 
Q 1259 2794 1537 2939 
Q 1816 3084 2150 3084 
Q 2853 3084 3261 2657 
Q 3669 2231 3669 1497 
Q 3669 778 3244 343 
Q 2819 -91 2113 -91 
Q 1303 -91 875 529 
Q 447 1150 447 2328 
Q 447 3434 972 4092 
Q 1497 4750 2381 4750 
Q 2619 4750 2861 4703 
Q 3103 4656 3366 4563 
z
" id="DejaVuSans-36" transform="scale(0.015625)"/>
       </defs>
       <use xlink:href="#DejaVuSans-36"/>
       <use x="63.623047" xlink:href="#DejaVuSans-30"/>
       <use x="127.246094" xlink:href="#DejaVuSans-30"/>
      </g>
     </g>
    </g>
    <g id="xtick_5">
     <g id="line2d_5">
      <g>
       <use style="stroke:#000000;stroke-width:0.8;" x="1116.840473" xlink:href="#md3aec90590" y="586.86358"/>
      </g>
     </g>
     <g id="text_5">
      <!-- 800 -->
      <g transform="translate(1107.296723 601.462017)scale(0.1 -0.1)">
       <defs>
        <path d="M 2034 2216 
Q 1584 2216 1326 1975 
Q 1069 1734 1069 1313 
Q 1069 891 1326 650 
Q 1584 409 2034 409 
Q 2484 409 2743 651 
Q 3003 894 3003 1313 
Q 3003 1734 2745 1975 
Q 2488 2216 2034 2216 
z
M 1403 2484 
Q 997 2584 770 2862 
Q 544 3141 544 3541 
Q 544 4100 942 4425 
Q 1341 4750 2034 4750 
Q 2731 4750 3128 4425 
Q 3525 4100 3525 3541 
Q 3525 3141 3298 2862 
Q 3072 2584 2669 2484 
Q 3125 2378 3379 2068 
Q 3634 1759 3634 1313 
Q 3634 634 3220 271 
Q 2806 -91 2034 -91 
Q 1263 -91 848 271 
Q 434 634 434 1313 
Q 434 1759 690 2068 
Q 947 2378 1403 2484 
z
M 1172 3481 
Q 1172 3119 1398 2916 
Q 1625 2713 2034 2713 
Q 2441 2713 2670 2916 
Q 2900 3119 2900 3481 
Q 2900 3844 2670 4047 
Q 2441 4250 2034 4250 
Q 1625 4250 1398 4047 
Q 1172 3844 1172 3481 
z
" id="DejaVuSans-38" transform="scale(0.015625)"/>
       </defs>
       <use xlink:href="#DejaVuSans-38"/>
       <use x="63.623047" xlink:href="#DejaVuSans-30"/>
       <use x="127.246094" xlink:href="#DejaVuSans-30"/>
      </g>
     </g>
    </g>
    <g id="xtick_6">
     <g id="line2d_6">
      <g>
       <use style="stroke:#000000;stroke-width:0.8;" x="1364.491927" xlink:href="#md3aec90590" y="586.86358"/>
      </g>
     </g>
     <g id="text_6">
      <!-- 1000 -->
      <g transform="translate(1351.766927 601.462017)scale(0.1 -0.1)">
       <defs>
        <path d="M 794 531 
L 1825 531 
L 1825 4091 
L 703 3866 
L 703 4441 
L 1819 4666 
L 2450 4666 
L 2450 531 
L 3481 531 
L 3481 0 
L 794 0 
L 794 531 
z
" id="DejaVuSans-31" transform="scale(0.015625)"/>
       </defs>
       <use xlink:href="#DejaVuSans-31"/>
       <use x="63.623047" xlink:href="#DejaVuSans-30"/>
       <use x="127.246094" xlink:href="#DejaVuSans-30"/>
       <use x="190.869141" xlink:href="#DejaVuSans-30"/>
      </g>
     </g>
    </g>
    <g id="xtick_7">
     <g id="line2d_7">
      <g>
       <use style="stroke:#000000;stroke-width:0.8;" x="1612.14338" xlink:href="#md3aec90590" y="586.86358"/>
      </g>
     </g>
     <g id="text_7">
      <!-- 1200 -->
      <g transform="translate(1599.41838 601.462017)scale(0.1 -0.1)">
       <use xlink:href="#DejaVuSans-31"/>
       <use x="63.623047" xlink:href="#DejaVuSans-32"/>
       <use x="127.246094" xlink:href="#DejaVuSans-30"/>
       <use x="190.869141" xlink:href="#DejaVuSans-30"/>
      </g>
     </g>
    </g>
    <g id="text_8">
     <!-- frame -->
     <g transform="translate(872.317187 615.140142)scale(0.1 -0.1)">
      <defs>
       <path d="M 2375 4863 
L 2375 4384 
L 1825 4384 
Q 1516 4384 1395 4259 
Q 1275 4134 1275 3809 
L 1275 3500 
L 2222 3500 
L 2222 3053 
L 1275 3053 
L 1275 0 
L 697 0 
L 697 3053 
L 147 3053 
L 147 3500 
L 697 3500 
L 697 3744 
Q 697 4328 969 4595 
Q 1241 4863 1831 4863 
L 2375 4863 
z
" id="DejaVuSans-66" transform="scale(0.015625)"/>
       <path d="M 2631 2963 
Q 2534 3019 2420 3045 
Q 2306 3072 2169 3072 
Q 1681 3072 1420 2755 
Q 1159 2438 1159 1844 
L 1159 0 
L 581 0 
L 581 3500 
L 1159 3500 
L 1159 2956 
Q 1341 3275 1631 3429 
Q 1922 3584 2338 3584 
Q 2397 3584 2469 3576 
Q 2541 3569 2628 3553 
L 2631 2963 
z
" id="DejaVuSans-72" transform="scale(0.015625)"/>
       <path d="M 2194 1759 
Q 1497 1759 1228 1600 
Q 959 1441 959 1056 
Q 959 750 1161 570 
Q 1363 391 1709 391 
Q 2188 391 2477 730 
Q 2766 1069 2766 1631 
L 2766 1759 
L 2194 1759 
z
M 3341 1997 
L 3341 0 
L 2766 0 
L 2766 531 
Q 2569 213 2275 61 
Q 1981 -91 1556 -91 
Q 1019 -91 701 211 
Q 384 513 384 1019 
Q 384 1609 779 1909 
Q 1175 2209 1959 2209 
L 2766 2209 
L 2766 2266 
Q 2766 2663 2505 2880 
Q 2244 3097 1772 3097 
Q 1472 3097 1187 3025 
Q 903 2953 641 2809 
L 641 3341 
Q 956 3463 1253 3523 
Q 1550 3584 1831 3584 
Q 2591 3584 2966 3190 
Q 3341 2797 3341 1997 
z
" id="DejaVuSans-61" transform="scale(0.015625)"/>
       <path d="M 3328 2828 
Q 3544 3216 3844 3400 
Q 4144 3584 4550 3584 
Q 5097 3584 5394 3201 
Q 5691 2819 5691 2113 
L 5691 0 
L 5113 0 
L 5113 2094 
Q 5113 2597 4934 2840 
Q 4756 3084 4391 3084 
Q 3944 3084 3684 2787 
Q 3425 2491 3425 1978 
L 3425 0 
L 2847 0 
L 2847 2094 
Q 2847 2600 2669 2842 
Q 2491 3084 2119 3084 
Q 1678 3084 1418 2786 
Q 1159 2488 1159 1978 
L 1159 0 
L 581 0 
L 581 3500 
L 1159 3500 
L 1159 2956 
Q 1356 3278 1631 3431 
Q 1906 3584 2284 3584 
Q 2666 3584 2933 3390 
Q 3200 3197 3328 2828 
z
" id="DejaVuSans-6d" transform="scale(0.015625)"/>
       <path d="M 3597 1894 
L 3597 1613 
L 953 1613 
Q 991 1019 1311 708 
Q 1631 397 2203 397 
Q 2534 397 2845 478 
Q 3156 559 3463 722 
L 3463 178 
Q 3153 47 2828 -22 
Q 2503 -91 2169 -91 
Q 1331 -91 842 396 
Q 353 884 353 1716 
Q 353 2575 817 3079 
Q 1281 3584 2069 3584 
Q 2775 3584 3186 3129 
Q 3597 2675 3597 1894 
z
M 3022 2063 
Q 3016 2534 2758 2815 
Q 2500 3097 2075 3097 
Q 1594 3097 1305 2825 
Q 1016 2553 972 2059 
L 3022 2063 
z
" id="DejaVuSans-65" transform="scale(0.015625)"/>
      </defs>
      <use xlink:href="#DejaVuSans-66"/>
      <use x="35.205078" xlink:href="#DejaVuSans-72"/>
      <use x="76.318359" xlink:href="#DejaVuSans-61"/>
      <use x="137.597656" xlink:href="#DejaVuSans-6d"/>
      <use x="235.009766" xlink:href="#DejaVuSans-65"/>
     </g>
    </g>
   </g>
   <g id="matplotlib.axis_2">
    <g id="ytick_1">
     <g id="line2d_8">
      <defs>
       <path d="M 0 0 
L -3.5 0 
" id="m5c56b6501a" style="stroke:#000000;stroke-width:0.8;"/>
      </defs>
      <g>
       <use style="stroke:#000000;stroke-width:0.8;" x="50.14375" xlink:href="#m5c56b6501a" y="561.202423"/>
      </g>
     </g>
     <g id="text_9">
      <!-- 0.0 -->
      <g transform="translate(27.240625 565.001641)scale(0.1 -0.1)">
       <defs>
        <path d="M 684 794 
L 1344 794 
L 1344 0 
L 684 0 
L 684 794 
z
" id="DejaVuSans-2e" transform="scale(0.015625)"/>
       </defs>
       <use xlink:href="#DejaVuSans-30"/>
       <use x="63.623047" xlink:href="#DejaVuSans-2e"/>
       <use x="95.410156" xlink:href="#DejaVuSans-30"/>
      </g>
     </g>
    </g>
    <g id="ytick_2">
     <g id="line2d_9">
      <g>
       <use style="stroke:#000000;stroke-width:0.8;" x="50.14375" xlink:href="#m5c56b6501a" y="498.387241"/>
      </g>
     </g>
     <g id="text_10">
      <!-- 2.5 -->
      <g transform="translate(27.240625 502.186459)scale(0.1 -0.1)">
       <defs>
        <path d="M 691 4666 
L 3169 4666 
L 3169 4134 
L 1269 4134 
L 1269 2991 
Q 1406 3038 1543 3061 
Q 1681 3084 1819 3084 
Q 2600 3084 3056 2656 
Q 3513 2228 3513 1497 
Q 3513 744 3044 326 
Q 2575 -91 1722 -91 
Q 1428 -91 1123 -41 
Q 819 9 494 109 
L 494 744 
Q 775 591 1075 516 
Q 1375 441 1709 441 
Q 2250 441 2565 725 
Q 2881 1009 2881 1497 
Q 2881 1984 2565 2268 
Q 2250 2553 1709 2553 
Q 1456 2553 1204 2497 
Q 953 2441 691 2322 
L 691 4666 
z
" id="DejaVuSans-35" transform="scale(0.015625)"/>
       </defs>
       <use xlink:href="#DejaVuSans-32"/>
       <use x="63.623047" xlink:href="#DejaVuSans-2e"/>
       <use x="95.410156" xlink:href="#DejaVuSans-35"/>
      </g>
     </g>
    </g>
    <g id="ytick_3">
     <g id="line2d_10">
      <g>
       <use style="stroke:#000000;stroke-width:0.8;" x="50.14375" xlink:href="#m5c56b6501a" y="435.572059"/>
      </g>
     </g>
     <g id="text_11">
      <!-- 5.0 -->
      <g transform="translate(27.240625 439.371278)scale(0.1 -0.1)">
       <use xlink:href="#DejaVuSans-35"/>
       <use x="63.623047" xlink:href="#DejaVuSans-2e"/>
       <use x="95.410156" xlink:href="#DejaVuSans-30"/>
      </g>
     </g>
    </g>
    <g id="ytick_4">
     <g id="line2d_11">
      <g>
       <use style="stroke:#000000;stroke-width:0.8;" x="50.14375" xlink:href="#m5c56b6501a" y="372.756877"/>
      </g>
     </g>
     <g id="text_12">
      <!-- 7.5 -->
      <g transform="translate(27.240625 376.556096)scale(0.1 -0.1)">
       <defs>
        <path d="M 525 4666 
L 3525 4666 
L 3525 4397 
L 1831 0 
L 1172 0 
L 2766 4134 
L 525 4134 
L 525 4666 
z
" id="DejaVuSans-37" transform="scale(0.015625)"/>
       </defs>
       <use xlink:href="#DejaVuSans-37"/>
       <use x="63.623047" xlink:href="#DejaVuSans-2e"/>
       <use x="95.410156" xlink:href="#DejaVuSans-35"/>
      </g>
     </g>
    </g>
    <g id="ytick_5">
     <g id="line2d_12">
      <g>
       <use style="stroke:#000000;stroke-width:0.8;" x="50.14375" xlink:href="#m5c56b6501a" y="309.941695"/>
      </g>
     </g>
     <g id="text_13">
      <!-- 10.0 -->
      <g transform="translate(20.878125 313.740914)scale(0.1 -0.1)">
       <use xlink:href="#DejaVuSans-31"/>
       <use x="63.623047" xlink:href="#DejaVuSans-30"/>
       <use x="127.246094" xlink:href="#DejaVuSans-2e"/>
       <use x="159.033203" xlink:href="#DejaVuSans-30"/>
      </g>
     </g>
    </g>
    <g id="ytick_6">
     <g id="line2d_13">
      <g>
       <use style="stroke:#000000;stroke-width:0.8;" x="50.14375" xlink:href="#m5c56b6501a" y="247.126513"/>
      </g>
     </g>
     <g id="text_14">
      <!-- 12.5 -->
      <g transform="translate(20.878125 250.925732)scale(0.1 -0.1)">
       <use xlink:href="#DejaVuSans-31"/>
       <use x="63.623047" xlink:href="#DejaVuSans-32"/>
       <use x="127.246094" xlink:href="#DejaVuSans-2e"/>
       <use x="159.033203" xlink:href="#DejaVuSans-35"/>
      </g>
     </g>
    </g>
    <g id="ytick_7">
     <g id="line2d_14">
      <g>
       <use style="stroke:#000000;stroke-width:0.8;" x="50.14375" xlink:href="#m5c56b6501a" y="184.311331"/>
      </g>
     </g>
     <g id="text_15">
      <!-- 15.0 -->
      <g transform="translate(20.878125 188.11055)scale(0.1 -0.1)">
       <use xlink:href="#DejaVuSans-31"/>
       <use x="63.623047" xlink:href="#DejaVuSans-35"/>
       <use x="127.246094" xlink:href="#DejaVuSans-2e"/>
       <use x="159.033203" xlink:href="#DejaVuSans-30"/>
      </g>
     </g>
    </g>
    <g id="ytick_8">
     <g id="line2d_15">
      <g>
       <use style="stroke:#000000;stroke-width:0.8;" x="50.14375" xlink:href="#m5c56b6501a" y="121.49615"/>
      </g>
     </g>
     <g id="text_16">
      <!-- 17.5 -->
      <g transform="translate(20.878125 125.295368)scale(0.1 -0.1)">
       <use xlink:href="#DejaVuSans-31"/>
       <use x="63.623047" xlink:href="#DejaVuSans-37"/>
       <use x="127.246094" xlink:href="#DejaVuSans-2e"/>
       <use x="159.033203" xlink:href="#DejaVuSans-35"/>
      </g>
     </g>
    </g>
    <g id="ytick_9">
     <g id="line2d_16">
      <g>
       <use style="stroke:#000000;stroke-width:0.8;" x="50.14375" xlink:href="#m5c56b6501a" y="58.680968"/>
      </g>
     </g>
     <g id="text_17">
      <!-- 20.0 -->
      <g transform="translate(20.878125 62.480186)scale(0.1 -0.1)">
       <use xlink:href="#DejaVuSans-32"/>
       <use x="63.623047" xlink:href="#DejaVuSans-30"/>
       <use x="127.246094" xlink:href="#DejaVuSans-2e"/>
       <use x="159.033203" xlink:href="#DejaVuSans-30"/>
      </g>
     </g>
    </g>
    <g id="text_18">
     <!-- GCaMP -->
     <g transform="translate(14.798438 322.349446)rotate(-90)scale(0.1 -0.1)">
      <defs>
       <path d="M 3809 666 
L 3809 1919 
L 2778 1919 
L 2778 2438 
L 4434 2438 
L 4434 434 
Q 4069 175 3628 42 
Q 3188 -91 2688 -91 
Q 1594 -91 976 548 
Q 359 1188 359 2328 
Q 359 3472 976 4111 
Q 1594 4750 2688 4750 
Q 3144 4750 3555 4637 
Q 3966 4525 4313 4306 
L 4313 3634 
Q 3963 3931 3569 4081 
Q 3175 4231 2741 4231 
Q 1884 4231 1454 3753 
Q 1025 3275 1025 2328 
Q 1025 1384 1454 906 
Q 1884 428 2741 428 
Q 3075 428 3337 486 
Q 3600 544 3809 666 
z
" id="DejaVuSans-47" transform="scale(0.015625)"/>
       <path d="M 4122 4306 
L 4122 3641 
Q 3803 3938 3442 4084 
Q 3081 4231 2675 4231 
Q 1875 4231 1450 3742 
Q 1025 3253 1025 2328 
Q 1025 1406 1450 917 
Q 1875 428 2675 428 
Q 3081 428 3442 575 
Q 3803 722 4122 1019 
L 4122 359 
Q 3791 134 3420 21 
Q 3050 -91 2638 -91 
Q 1578 -91 968 557 
Q 359 1206 359 2328 
Q 359 3453 968 4101 
Q 1578 4750 2638 4750 
Q 3056 4750 3426 4639 
Q 3797 4528 4122 4306 
z
" id="DejaVuSans-43" transform="scale(0.015625)"/>
       <path d="M 628 4666 
L 1569 4666 
L 2759 1491 
L 3956 4666 
L 4897 4666 
L 4897 0 
L 4281 0 
L 4281 4097 
L 3078 897 
L 2444 897 
L 1241 4097 
L 1241 0 
L 628 0 
L 628 4666 
z
" id="DejaVuSans-4d" transform="scale(0.015625)"/>
       <path d="M 1259 4147 
L 1259 2394 
L 2053 2394 
Q 2494 2394 2734 2622 
Q 2975 2850 2975 3272 
Q 2975 3691 2734 3919 
Q 2494 4147 2053 4147 
L 1259 4147 
z
M 628 4666 
L 2053 4666 
Q 2838 4666 3239 4311 
Q 3641 3956 3641 3272 
Q 3641 2581 3239 2228 
Q 2838 1875 2053 1875 
L 1259 1875 
L 1259 0 
L 628 0 
L 628 4666 
z
" id="DejaVuSans-50" transform="scale(0.015625)"/>
      </defs>
      <use xlink:href="#DejaVuSans-47"/>
      <use x="77.490234" xlink:href="#DejaVuSans-43"/>
      <use x="147.314453" xlink:href="#DejaVuSans-61"/>
      <use x="208.59375" xlink:href="#DejaVuSans-4d"/>
      <use x="294.873047" xlink:href="#DejaVuSans-50"/>
     </g>
    </g>
   </g>
   <g id="line2d_17">
    <path clip-path="url(#p582b126ade)" d="M 126.234659 58.67552 
L 127.472916 52.273462 
L 128.711174 48.234395 
L 129.949431 47.979282 
L 131.187688 51.452459 
L 132.425945 57.676104 
L 136.140717 80.343537 
L 138.617232 93.372191 
L 141.093746 107.500095 
L 142.332004 112.63516 
L 143.570261 115.037098 
L 144.808518 113.715197 
L 146.046775 109.120078 
L 147.285033 103.754418 
L 148.52329 100.198375 
L 149.761547 99.069528 
L 152.238062 99.168547 
L 153.476319 99.208243 
L 154.714576 100.50842 
L 155.952834 104.180734 
L 157.191091 110.205835 
L 159.667605 123.863112 
L 162.14412 134.593509 
L 164.620634 145.306808 
L 165.858892 149.941808 
L 167.097149 152.16762 
L 168.335406 151.056389 
L 170.811921 144.260716 
L 172.050178 144.191071 
L 173.288435 148.30998 
L 175.76495 161.521868 
L 177.003207 166.058636 
L 178.241464 168.295963 
L 179.479722 168.857985 
L 180.717979 168.455542 
L 181.956236 167.717797 
L 183.194493 167.229751 
L 189.38578 166.774394 
L 190.624037 167.088029 
L 191.862294 169.071835 
L 193.100552 174.065648 
L 194.338809 182.274547 
L 196.815323 201.526714 
L 198.053581 207.947016 
L 199.291838 211.075669 
L 200.530095 212.713225 
L 201.768352 215.342055 
L 203.00661 219.852578 
L 204.244867 225.103317 
L 205.483124 229.479335 
L 207.959639 235.456189 
L 209.197896 239.415778 
L 212.912668 255.369658 
L 214.150925 257.87807 
L 215.389182 257.231957 
L 216.62744 254.042409 
L 217.865697 249.395886 
L 221.580469 232.10061 
L 222.818726 227.759984 
L 224.056983 224.502649 
L 226.533498 219.344926 
L 227.771755 215.74889 
L 229.010012 211.148289 
L 230.24827 207.289005 
L 231.486527 206.261667 
L 232.724784 208.901825 
L 233.963041 214.770496 
L 235.201299 222.358825 
L 236.439556 229.218548 
L 237.677813 233.470706 
L 238.91607 234.928686 
L 240.154328 234.510461 
L 241.392585 233.324168 
L 242.630842 231.812577 
L 243.8691 229.339141 
L 245.107357 224.787822 
L 246.345614 217.654599 
L 247.583871 209.206415 
L 248.822129 202.784477 
L 250.060386 201.97718 
L 251.298643 207.994639 
L 252.5369 219.062633 
L 253.775158 231.947597 
L 255.013415 243.570607 
L 256.251672 251.842852 
L 257.489929 256.04749 
L 258.728187 256.649484 
L 259.966444 254.575111 
L 262.442959 247.156209 
L 263.681216 244.458871 
L 264.919473 242.985629 
L 266.15773 241.943481 
L 267.395988 240.578394 
L 268.634245 238.660565 
L 269.872502 236.088841 
L 271.110759 232.93312 
L 272.349017 230.16009 
L 273.587274 229.301357 
L 274.825531 231.004519 
L 276.063788 234.525725 
L 277.302046 238.5175 
L 278.540303 241.750777 
L 279.77856 243.436796 
L 281.016818 243.656845 
L 284.731589 242.600273 
L 285.969847 241.527457 
L 287.208104 240.619964 
L 288.446361 241.397875 
L 289.684618 244.864922 
L 292.161133 255.724653 
L 293.39939 258.550729 
L 294.637647 257.876089 
L 297.114162 251.394705 
L 298.352419 249.946169 
L 299.590677 251.077141 
L 302.067191 256.652845 
L 303.305448 258.543138 
L 304.543706 259.148653 
L 305.781963 258.157107 
L 307.02022 255.580264 
L 308.258477 252.354353 
L 309.496735 250.294437 
L 310.734992 251.081747 
L 311.973249 255.289882 
L 313.211506 262.266792 
L 314.449764 269.995391 
L 315.688021 275.460058 
L 316.926278 276.675734 
L 318.164536 274.374583 
L 319.402793 271.21108 
L 320.64105 269.474582 
L 321.879307 269.649433 
L 324.355822 272.048491 
L 325.594079 272.838596 
L 326.832336 273.291129 
L 328.070594 273.541393 
L 329.308851 273.664075 
L 330.547108 273.548111 
L 331.785366 272.9482 
L 333.023623 272.042367 
L 334.26188 271.470171 
L 335.500137 271.696763 
L 336.738395 272.747264 
L 341.691424 279.081875 
L 342.929681 281.411304 
L 344.167938 284.679843 
L 345.406195 288.318163 
L 346.644453 291.434279 
L 347.88271 293.422823 
L 349.120967 294.143108 
L 350.359225 293.852587 
L 351.597482 293.367397 
L 352.835739 293.953432 
L 354.073996 296.316647 
L 357.788768 306.990114 
L 359.027025 308.724865 
L 360.265283 309.221848 
L 361.50354 308.931816 
L 362.741797 308.066904 
L 366.456569 304.342373 
L 368.933084 302.750317 
L 370.171341 301.747383 
L 371.409598 300.558556 
L 372.647855 299.058261 
L 373.886113 296.883735 
L 376.362627 291.118959 
L 377.600884 289.155173 
L 378.839142 288.793794 
L 380.077399 290.041232 
L 381.315656 291.965301 
L 382.553913 293.155502 
L 383.792171 292.972233 
L 385.030428 292.177935 
L 386.268685 292.013872 
L 388.7452 293.638381 
L 389.983457 293.61396 
L 391.221714 292.392894 
L 392.459972 290.466752 
L 393.698229 288.815404 
L 394.936486 288.132486 
L 396.174743 288.116184 
L 397.413001 287.628219 
L 398.651258 285.733155 
L 399.889515 283.120247 
L 401.127772 282.176618 
L 402.36603 284.47446 
L 404.842544 293.474455 
L 406.080802 296.546018 
L 407.319059 297.725681 
L 408.557316 297.735272 
L 409.795573 297.968569 
L 411.033831 299.098574 
L 412.272088 300.544499 
L 413.510345 301.380473 
L 414.748602 301.285047 
L 418.463374 299.094903 
L 419.701632 298.728103 
L 420.939889 298.625368 
L 422.178146 299.084223 
L 423.416403 300.130453 
L 424.654661 301.713513 
L 425.892918 304.228122 
L 427.131175 307.928682 
L 429.60769 316.370393 
L 430.845947 319.556136 
L 432.084204 321.292049 
L 433.322461 321.294546 
L 434.560719 320.249056 
L 435.798976 319.629498 
L 437.037233 320.397992 
L 438.275491 322.362983 
L 439.513748 324.680121 
L 440.752005 326.339041 
L 441.990262 326.541589 
L 443.22852 325.309988 
L 444.466777 323.489025 
L 445.705034 322.127754 
L 446.943291 322.164711 
L 448.181549 324.133259 
L 450.658063 331.137804 
L 451.89632 333.103036 
L 453.134578 332.196454 
L 454.372835 328.318818 
L 455.611092 323.073006 
L 456.84935 318.693633 
L 458.087607 316.476344 
L 459.325864 316.471665 
L 460.564121 318.114832 
L 461.802379 320.77528 
L 464.278893 326.714661 
L 465.51715 328.547111 
L 466.755408 328.874832 
L 467.993665 328.029361 
L 469.231922 326.722416 
L 470.470179 325.134098 
L 471.708437 322.945015 
L 472.946694 320.271421 
L 474.184951 318.235607 
L 475.423209 318.111434 
L 476.661466 320.000017 
L 477.899723 322.699106 
L 479.13798 324.639888 
L 480.376238 324.697469 
L 481.614495 322.11606 
L 482.852752 316.457779 
L 485.329267 301.022176 
L 486.567524 296.634517 
L 487.805781 296.843402 
L 489.044038 300.884777 
L 490.282296 306.43333 
L 491.520553 311.269009 
L 492.75881 314.315607 
L 493.997068 315.569685 
L 495.235325 315.787987 
L 496.473582 316.182897 
L 497.711839 317.667748 
L 498.950097 319.937521 
L 500.188354 321.818656 
L 501.426611 322.761422 
L 502.664868 323.323792 
L 503.903126 324.246015 
L 505.141383 325.805639 
L 506.37964 327.782915 
L 507.617897 329.300606 
L 508.856155 329.238199 
L 510.094412 327.540399 
L 511.332669 325.560904 
L 512.570927 324.674476 
L 515.047441 325.183002 
L 516.285698 324.316303 
L 517.523956 322.2019 
L 518.762213 319.740861 
L 520.00047 318.163508 
L 521.238727 318.227077 
L 523.715242 320.872243 
L 524.953499 320.862312 
L 526.191757 319.617523 
L 528.668271 316.266944 
L 529.906528 315.847747 
L 531.144786 317.260294 
L 532.383043 320.139706 
L 533.6213 323.800512 
L 536.097815 331.47939 
L 537.336072 333.987399 
L 539.812586 336.877505 
L 542.289101 340.889193 
L 543.527358 341.446483 
L 544.765616 340.126005 
L 546.003873 337.464474 
L 547.24213 334.3741 
L 548.480387 331.890769 
L 549.718645 330.78195 
L 550.956902 330.794525 
L 552.195159 331.053594 
L 553.433416 331.115463 
L 554.671674 330.859307 
L 557.148188 329.312565 
L 558.386445 330.387925 
L 559.624703 334.656886 
L 562.101217 348.113611 
L 563.339475 353.495673 
L 564.577732 356.237846 
L 565.815989 355.400917 
L 567.054246 350.900907 
L 570.769018 330.505297 
L 572.007275 326.031835 
L 573.245533 323.449568 
L 574.48379 322.431938 
L 575.722047 322.260458 
L 576.960304 322.536236 
L 578.198562 323.692241 
L 579.436819 326.270767 
L 581.913334 333.72515 
L 583.151591 336.648384 
L 584.389848 338.432535 
L 585.628105 339.204772 
L 586.866363 339.204944 
L 588.10462 338.644805 
L 589.342877 337.585025 
L 590.581134 335.958172 
L 591.819392 333.748121 
L 593.057649 331.304609 
L 594.295906 329.596143 
L 595.534163 329.662751 
L 596.772421 331.947048 
L 598.010678 336.362705 
L 599.248935 341.952606 
L 600.487193 346.550606 
L 601.72545 348.10157 
L 602.963707 346.352221 
L 605.440222 339.512561 
L 606.678479 337.15368 
L 611.631508 330.408668 
L 612.869765 328.855527 
L 614.108023 327.676978 
L 615.34628 327.283934 
L 616.584537 327.665338 
L 619.061052 328.879797 
L 620.299309 329.50703 
L 621.537566 330.973703 
L 622.775823 333.754943 
L 624.014081 337.046206 
L 625.252338 339.26049 
L 626.490595 339.785996 
L 627.728852 339.848406 
L 628.96711 341.469101 
L 630.205367 345.565966 
L 632.681882 356.282824 
L 633.920139 359.750682 
L 635.158396 361.373986 
L 636.396653 361.66215 
L 638.873168 360.963136 
L 640.111425 360.992826 
L 641.349682 361.302548 
L 642.58794 361.480171 
L 643.826197 361.05003 
L 645.064454 359.860323 
L 648.779226 354.766332 
L 650.017483 353.720047 
L 651.255741 354.330755 
L 652.493998 357.096309 
L 654.970512 365.37378 
L 656.20877 367.73687 
L 657.447027 367.50141 
L 658.685284 365.122489 
L 659.923541 361.974084 
L 661.161799 359.282188 
L 662.400056 357.831324 
L 663.638313 358.339733 
L 664.87657 361.182458 
L 667.353085 370.130331 
L 668.591342 372.941613 
L 669.8296 373.499408 
L 671.067857 372.466294 
L 677.259143 364.706618 
L 678.4974 363.683923 
L 679.735658 363.110868 
L 682.212172 362.331269 
L 683.450429 362.184416 
L 684.688687 362.866938 
L 687.165201 365.725321 
L 689.641716 367.84654 
L 690.879973 368.684081 
L 692.11823 369.023376 
L 693.356488 368.435019 
L 694.594745 366.719369 
L 695.833002 364.255632 
L 697.071259 362.133443 
L 698.309517 361.708909 
L 699.547774 363.578861 
L 700.786031 367.091224 
L 702.024289 370.978354 
L 703.262546 373.977184 
L 704.500803 375.218944 
L 705.73906 374.874069 
L 708.215575 372.912205 
L 709.453832 370.897769 
L 710.692089 366.75003 
L 711.930347 360.427554 
L 713.168604 353.289323 
L 714.406861 347.329558 
L 715.645118 343.812609 
L 716.883376 342.443518 
L 718.121633 342.301175 
L 719.35989 342.836152 
L 721.836405 344.635993 
L 723.074662 345.880753 
L 724.312919 347.571568 
L 726.789434 351.371939 
L 728.027691 353.025995 
L 729.265948 354.468356 
L 730.504206 355.663454 
L 731.742463 356.469926 
L 732.98072 356.494603 
L 734.218977 355.432991 
L 735.457235 353.701225 
L 736.695492 352.224187 
L 737.933749 351.651541 
L 739.172007 352.166509 
L 740.410264 353.588819 
L 742.886778 357.025002 
L 745.363293 359.883523 
L 746.60155 361.128234 
L 747.839807 362.012335 
L 749.078065 362.296573 
L 750.316322 361.980088 
L 752.792836 360.979285 
L 754.031094 360.75415 
L 755.269351 360.748889 
L 756.507608 361.029991 
L 758.984123 362.142963 
L 760.22238 362.016934 
L 761.460637 360.897625 
L 762.698895 359.072278 
L 763.937152 357.561099 
L 765.175409 357.528375 
L 767.651924 360.48714 
L 768.890181 360.898693 
L 770.128438 360.440612 
L 771.366695 360.108824 
L 773.84321 360.457128 
L 775.081467 360.079423 
L 777.557982 358.529962 
L 778.796239 358.511216 
L 782.511011 360.337844 
L 783.749268 361.240878 
L 784.987525 363.308225 
L 786.225783 366.173526 
L 787.46404 368.50394 
L 788.702297 369.438971 
L 789.940554 369.346259 
L 791.178812 368.94506 
L 792.417069 368.180708 
L 793.655326 366.622729 
L 794.893584 364.520077 
L 796.131841 362.664319 
L 799.846613 358.825141 
L 801.08487 357.409792 
L 802.323127 357.110181 
L 803.561384 358.10102 
L 804.799642 359.327938 
L 806.037899 359.862776 
L 807.276156 359.696338 
L 809.752671 358.59749 
L 810.990928 357.701915 
L 812.229185 355.702209 
L 813.467443 351.979182 
L 814.7057 347.018291 
L 815.943957 342.543565 
L 817.182214 340.842075 
L 818.420472 343.081331 
L 820.896986 352.329653 
L 822.135243 354.358202 
L 823.373501 353.888182 
L 824.611758 352.19615 
L 825.850015 350.821927 
L 827.088273 350.967896 
L 828.32653 352.806232 
L 829.564787 354.927575 
L 830.803044 355.500675 
L 832.041302 354.029073 
L 833.279559 351.488039 
L 834.517816 349.244054 
L 835.756073 347.914137 
L 836.994331 347.138781 
L 838.232588 346.608906 
L 839.470845 346.715412 
L 840.709102 348.040245 
L 841.94736 350.604338 
L 843.185617 353.430185 
L 844.423874 354.928786 
L 845.662132 354.057006 
L 848.138646 348.496101 
L 849.376903 347.034884 
L 850.615161 346.990187 
L 851.853418 347.745554 
L 855.56819 351.022522 
L 856.806447 351.006303 
L 858.044704 349.266925 
L 859.282961 345.604368 
L 861.759476 336.251501 
L 862.997733 333.530172 
L 864.235991 333.346199 
L 865.474248 335.335896 
L 866.712505 338.532728 
L 869.18902 345.714601 
L 870.427277 348.746745 
L 871.665534 350.647266 
L 872.903791 351.035917 
L 874.142049 350.068246 
L 876.618563 346.874557 
L 877.85682 345.479874 
L 879.095078 343.521706 
L 881.571592 337.5913 
L 882.80985 336.453221 
L 884.048107 337.940861 
L 885.286364 340.663131 
L 886.524621 342.077209 
L 887.762879 340.746351 
L 889.001136 337.545055 
L 890.239393 334.773614 
L 891.47765 334.147797 
L 892.715908 335.829811 
L 893.954165 339.198991 
L 896.43068 347.772207 
L 897.668937 350.565007 
L 898.907194 350.843849 
L 900.145451 348.476892 
L 901.383709 344.133624 
L 902.621966 338.854082 
L 903.860223 334.224419 
L 905.09848 332.139671 
L 906.336738 333.231627 
L 908.813252 339.075737 
L 910.051509 341.257094 
L 912.528024 344.736282 
L 915.004539 348.639478 
L 916.242796 349.973584 
L 917.481053 350.354607 
L 918.71931 349.647274 
L 919.957568 347.825322 
L 921.195825 345.079498 
L 922.434082 342.000878 
L 923.672339 339.413211 
L 924.910597 338.152502 
L 926.148854 338.814787 
L 927.387111 341.202404 
L 929.863626 347.274188 
L 931.101883 349.730918 
L 932.34014 351.71988 
L 933.578398 353.320646 
L 934.816655 354.317479 
L 936.054912 354.002553 
L 937.293169 351.916211 
L 939.769684 345.685597 
L 941.007941 343.973296 
L 942.246198 343.540267 
L 948.437485 343.913632 
L 949.675742 344.760533 
L 950.913999 347.369324 
L 952.152257 351.722749 
L 953.390514 356.906385 
L 954.628771 361.610862 
L 955.867028 364.768942 
L 957.105286 366.188462 
L 958.343543 366.298052 
L 959.5818 365.416356 
L 960.820057 363.720247 
L 963.296572 359.487458 
L 964.534829 358.218885 
L 965.773086 358.199821 
L 967.011344 359.304238 
L 969.487858 362.715663 
L 971.964373 366.33775 
L 973.20263 368.23417 
L 975.679145 371.520368 
L 976.917402 373.675008 
L 979.393916 379.928867 
L 980.632174 382.202144 
L 981.870431 383.108746 
L 983.108688 383.114652 
L 985.585203 382.580068 
L 986.82346 381.752384 
L 988.061717 380.250588 
L 989.299975 378.268314 
L 991.776489 373.520538 
L 995.491261 365.666687 
L 996.729518 363.604968 
L 997.967775 363.241813 
L 999.206033 365.642091 
L 1001.682547 375.358214 
L 1002.920805 378.561692 
L 1004.159062 379.179855 
L 1005.397319 377.574515 
L 1006.635576 374.655918 
L 1009.112091 368.027188 
L 1011.588605 360.961545 
L 1012.826863 358.648533 
L 1014.06512 358.095546 
L 1015.303377 358.490154 
L 1016.541634 358.498167 
L 1017.779892 357.714274 
L 1019.018149 356.659219 
L 1020.256406 356.061952 
L 1021.494664 356.832088 
L 1022.732921 359.662156 
L 1023.971178 363.89474 
L 1025.209435 367.729136 
L 1026.447693 369.90119 
L 1027.68595 370.430118 
L 1028.924207 369.943729 
L 1030.162464 369.059231 
L 1031.400722 368.360827 
L 1032.638979 368.456796 
L 1033.877236 369.832387 
L 1035.115493 372.500112 
L 1036.353751 375.620188 
L 1037.592008 377.875352 
L 1038.830265 378.515658 
L 1040.068523 377.75278 
L 1041.30678 376.228835 
L 1045.021552 370.866511 
L 1047.498066 367.755871 
L 1048.736323 366.56236 
L 1049.974581 366.19306 
L 1051.212838 367.192364 
L 1052.451095 369.693973 
L 1053.689352 373.127764 
L 1054.92761 376.036103 
L 1056.165867 376.609669 
L 1057.404124 374.197404 
L 1059.880639 366.290286 
L 1061.118896 363.495745 
L 1062.357153 361.028479 
L 1064.833668 355.583818 
L 1066.071925 353.93559 
L 1067.310182 353.725196 
L 1068.54844 354.178479 
L 1069.786697 353.938393 
L 1071.024954 352.278633 
L 1072.263211 349.676566 
L 1073.501469 347.438176 
L 1074.739726 346.857815 
L 1075.977983 348.367114 
L 1078.454498 353.620724 
L 1080.931012 356.90977 
L 1083.407527 361.905775 
L 1084.645784 362.488905 
L 1085.884041 361.024012 
L 1087.122299 359.203246 
L 1088.360556 358.694936 
L 1089.598813 359.816153 
L 1092.075328 363.964261 
L 1095.7901 370.340076 
L 1097.028357 371.951371 
L 1098.266614 372.83293 
L 1099.504871 372.722728 
L 1101.981386 370.988367 
L 1103.219643 370.824848 
L 1104.4579 371.725937 
L 1106.934415 375.354143 
L 1108.172672 376.344418 
L 1109.41093 375.847492 
L 1110.649187 374.11549 
L 1111.887444 371.906272 
L 1113.125701 369.954638 
L 1114.363959 368.761082 
L 1115.602216 368.471466 
L 1116.840473 368.934518 
L 1118.07873 369.810049 
L 1119.316988 370.451196 
L 1120.555245 370.230632 
L 1123.031759 368.541326 
L 1124.270017 368.402418 
L 1130.461303 370.011816 
L 1131.69956 370.823568 
L 1132.937818 372.229329 
L 1135.414332 375.877434 
L 1136.652589 377.404225 
L 1137.890847 378.75288 
L 1139.129104 379.768486 
L 1140.367361 379.633461 
L 1141.605618 377.860951 
L 1142.843876 374.659182 
L 1144.082133 370.257958 
L 1146.558648 360.268911 
L 1147.796905 357.165462 
L 1149.035162 356.322645 
L 1150.273419 357.196373 
L 1151.511677 359.034669 
L 1152.749934 361.458051 
L 1153.988191 364.289433 
L 1156.464706 370.618837 
L 1158.94122 375.71049 
L 1160.179477 378.885585 
L 1161.417735 382.515545 
L 1162.655992 384.758759 
L 1163.894249 383.935598 
L 1165.132507 379.745572 
L 1166.370764 373.466869 
L 1167.609021 367.79639 
L 1168.847278 365.323975 
L 1170.085536 366.48221 
L 1171.323793 369.710119 
L 1172.56205 373.296465 
L 1173.800307 376.485953 
L 1178.753337 387.926595 
L 1179.991594 391.372534 
L 1181.229851 394.131997 
L 1182.468108 395.079392 
L 1183.706366 393.811933 
L 1184.944623 390.975543 
L 1186.18288 387.833253 
L 1188.659395 382.494701 
L 1189.897652 379.91346 
L 1191.135909 377.716567 
L 1192.374166 376.154104 
L 1193.612424 375.359301 
L 1194.850681 375.620139 
L 1197.327196 378.074704 
L 1198.565453 378.953814 
L 1199.80371 379.680456 
L 1201.041967 380.176332 
L 1202.280225 379.564057 
L 1203.518482 377.339239 
L 1207.233254 367.909108 
L 1208.471511 365.787354 
L 1209.709768 364.655765 
L 1210.948025 364.698782 
L 1212.186283 366.25364 
L 1213.42454 369.418548 
L 1214.662797 373.402274 
L 1215.901055 376.865685 
L 1217.139312 378.753613 
L 1218.377569 378.424339 
L 1219.615826 375.939232 
L 1220.854084 372.580098 
L 1222.092341 370.18678 
L 1223.330598 369.97129 
L 1224.568855 372.024416 
L 1227.04537 378.686919 
L 1229.521884 384.667186 
L 1231.998399 391.888265 
L 1233.236656 393.491038 
L 1234.474914 392.311279 
L 1235.713171 388.752964 
L 1238.189685 379.775898 
L 1239.427943 376.51598 
L 1240.6662 374.96776 
L 1241.904457 375.449042 
L 1243.142714 377.584469 
L 1244.380972 380.1512 
L 1245.619229 381.880351 
L 1246.857486 382.673463 
L 1248.095743 383.189809 
L 1249.334001 383.36576 
L 1250.572258 382.714294 
L 1251.810515 381.775907 
L 1253.048773 381.841629 
L 1254.28703 383.448304 
L 1255.525287 385.960312 
L 1256.763544 388.209506 
L 1258.001802 388.986854 
L 1259.240059 387.604698 
L 1261.716573 381.800745 
L 1262.954831 380.117184 
L 1264.193088 379.950283 
L 1266.669603 381.535747 
L 1267.90786 381.193732 
L 1269.146117 379.746386 
L 1270.384374 377.98203 
L 1271.622632 376.719837 
L 1272.860889 376.187664 
L 1274.099146 376.322165 
L 1275.337403 377.527945 
L 1276.575661 380.386089 
L 1277.813918 384.289447 
L 1279.052175 387.256658 
L 1280.290432 387.506882 
L 1281.52869 384.655396 
L 1282.766947 379.61171 
L 1284.005204 374.098843 
L 1285.243462 370.152806 
L 1286.481719 369.42104 
L 1287.719976 372.522464 
L 1288.958233 378.703511 
L 1290.196491 385.970669 
L 1291.434748 392.102977 
L 1292.673005 396.01852 
L 1293.911262 398.096007 
L 1295.14952 399.169951 
L 1296.387777 399.377943 
L 1297.626034 397.967023 
L 1298.864291 394.200659 
L 1302.579063 377.428836 
L 1303.817321 373.87906 
L 1305.055578 371.269115 
L 1306.293835 369.308265 
L 1307.532092 368.061677 
L 1308.77035 367.5132 
L 1310.008607 367.677166 
L 1311.246864 368.792392 
L 1312.485121 370.987555 
L 1313.723379 374.149795 
L 1316.199893 382.036915 
L 1317.43815 385.256187 
L 1318.676408 387.368221 
L 1319.914665 388.501379 
L 1321.152922 388.083701 
L 1322.39118 384.869934 
L 1323.629437 378.295363 
L 1326.105951 359.337992 
L 1327.344209 352.423948 
L 1328.582466 350.838784 
L 1329.820723 354.461666 
L 1331.05898 361.572922 
L 1332.297238 370.016664 
L 1333.535495 377.349649 
L 1334.773752 381.491104 
L 1336.012009 381.62755 
L 1337.250267 378.588348 
L 1338.488524 374.314457 
L 1339.726781 370.815559 
L 1340.965039 369.496232 
L 1342.203296 370.68256 
L 1343.441553 373.181709 
L 1344.67981 374.828493 
L 1345.918068 374.22753 
L 1347.156325 371.710914 
L 1349.632839 365.271547 
L 1350.871097 363.184289 
L 1352.109354 362.990254 
L 1353.347611 364.95564 
L 1354.585868 368.565363 
L 1355.824126 372.788754 
L 1357.062383 376.595702 
L 1358.30064 379.633987 
L 1359.538898 382.006346 
L 1360.777155 383.208991 
L 1362.015412 382.326484 
L 1363.253669 379.302414 
L 1365.730184 371.03347 
L 1368.206698 364.006488 
L 1369.444956 360.69232 
L 1370.683213 357.991889 
L 1371.92147 357.111099 
L 1373.159728 359.332164 
L 1374.397985 365.063281 
L 1375.636242 373.336803 
L 1378.112757 391.121695 
L 1379.351014 397.419863 
L 1380.589271 400.090759 
L 1381.827528 399.263282 
L 1383.065786 396.190152 
L 1384.304043 391.704935 
L 1386.780557 379.849921 
L 1388.018815 375.866151 
L 1389.257072 376.211199 
L 1390.495329 380.535617 
L 1391.733587 386.069455 
L 1392.971844 390.228748 
L 1394.210101 392.045973 
L 1395.448358 391.252475 
L 1396.686616 387.914708 
L 1401.639645 368.570295 
L 1402.877902 365.009693 
L 1404.116159 364.205443 
L 1405.354416 367.236011 
L 1406.592674 373.423839 
L 1407.830931 380.450295 
L 1409.069188 385.506538 
L 1410.307446 386.99828 
L 1411.545703 385.564361 
L 1412.78396 383.26102 
L 1414.022217 381.534103 
L 1415.260475 380.493593 
L 1416.498732 380.079802 
L 1418.975246 380.504065 
L 1420.213504 380.298907 
L 1421.451761 379.835825 
L 1422.690018 379.529739 
L 1423.928275 379.824695 
L 1425.166533 381.052832 
L 1427.643047 385.235113 
L 1428.881305 386.278082 
L 1430.119562 385.013625 
L 1431.357819 381.064143 
L 1432.596076 375.846893 
L 1433.834334 372.503294 
L 1435.072591 373.651817 
L 1436.310848 378.787514 
L 1437.549105 384.938662 
L 1438.787363 389.547725 
L 1440.02562 391.873067 
L 1441.263877 392.431749 
L 1443.740392 391.951706 
L 1444.978649 392.38186 
L 1446.216906 393.056461 
L 1447.455164 392.631575 
L 1448.693421 389.779045 
L 1449.931678 384.402289 
L 1451.169935 377.89066 
L 1452.408193 372.043835 
L 1453.64645 367.936082 
L 1454.884707 365.884727 
L 1456.122964 365.793411 
L 1457.361222 367.046694 
L 1458.599479 368.536036 
L 1459.837736 369.770465 
L 1461.075994 371.407554 
L 1463.552508 376.203407 
L 1464.790765 379.122945 
L 1466.029023 383.664098 
L 1468.505537 395.471669 
L 1469.743794 398.71036 
L 1470.982052 398.773558 
L 1472.220309 396.01972 
L 1473.458566 390.940105 
L 1475.935081 376.996671 
L 1477.173338 372.311609 
L 1478.411595 371.643017 
L 1479.649853 374.173426 
L 1480.88811 377.87323 
L 1482.126367 381.101807 
L 1483.364624 382.862673 
L 1484.602882 382.944291 
L 1485.841139 381.852666 
L 1487.079396 380.052019 
L 1488.317653 377.364636 
L 1489.555911 373.238397 
L 1492.032425 362.707596 
L 1493.270682 358.815949 
L 1494.50894 356.501085 
L 1495.747197 355.62831 
L 1496.985454 356.27411 
L 1498.223712 359.238131 
L 1499.461969 365.414869 
L 1501.938483 383.440962 
L 1503.176741 390.936238 
L 1504.414998 395.409419 
L 1505.653255 396.600628 
L 1506.891512 394.974807 
L 1508.12977 391.154795 
L 1509.368027 385.715081 
L 1513.082799 367.082087 
L 1514.321056 363.133671 
L 1515.559313 361.708167 
L 1516.797571 362.283526 
L 1518.035828 364.087756 
L 1519.274085 367.124058 
L 1520.512342 371.676902 
L 1522.988857 382.28246 
L 1524.227114 385.734357 
L 1525.465371 386.769061 
L 1526.703629 384.94191 
L 1527.941886 380.76901 
L 1529.180143 376.149933 
L 1530.4184 373.213705 
L 1531.656658 372.741546 
L 1532.894915 374.387919 
L 1534.133172 377.993588 
L 1535.37143 383.466575 
L 1537.847944 395.813881 
L 1539.086201 400.238193 
L 1540.324459 402.698778 
L 1541.562716 403.02081 
L 1542.800973 401.233591 
L 1544.03923 397.730129 
L 1545.277488 393.15356 
L 1546.515745 388.046005 
L 1547.754002 382.447438 
L 1550.230517 369.138606 
L 1551.468774 364.130317 
L 1552.707031 362.891924 
L 1553.945289 365.284261 
L 1555.183546 370.128483 
L 1557.66006 382.072525 
L 1558.898318 386.058476 
L 1560.136575 387.91845 
L 1561.374832 388.770706 
L 1562.613089 389.437635 
L 1563.851347 389.434685 
L 1565.089604 387.858877 
L 1566.327861 384.136081 
L 1567.566119 378.365731 
L 1568.804376 371.659419 
L 1570.042633 365.598364 
L 1571.28089 361.374955 
L 1572.519148 359.186985 
L 1573.757405 358.136239 
L 1574.995662 357.364338 
L 1576.233919 357.305023 
L 1577.472177 359.272474 
L 1578.710434 363.949253 
L 1581.186948 377.025108 
L 1582.425206 381.792335 
L 1583.663463 384.412368 
L 1584.90172 385.829449 
L 1586.139978 387.016876 
L 1587.378235 387.973477 
L 1588.616492 388.044105 
L 1589.854749 386.762232 
L 1591.093007 384.881442 
L 1592.331264 384.587123 
L 1593.569521 387.324865 
L 1594.807778 391.706109 
L 1596.046036 394.682385 
L 1597.284293 393.885928 
L 1598.52255 388.514921 
L 1600.999065 370.371096 
L 1602.237322 364.23261 
L 1603.475579 362.641323 
L 1604.713837 363.607086 
L 1605.952094 363.768822 
L 1607.190351 362.109177 
L 1608.428608 360.999992 
L 1609.666866 363.348747 
L 1610.905123 369.393125 
L 1612.14338 376.518963 
L 1613.381637 381.936334 
L 1614.619895 384.746546 
L 1615.858152 385.254386 
L 1617.096409 383.680802 
L 1619.572924 377.747724 
L 1620.811181 376.507072 
L 1622.049438 561.202423 
L 1623.287696 378.913782 
L 1624.525953 382.245316 
L 1625.76421 386.181405 
L 1627.002467 389.342712 
L 1628.240725 391.280197 
L 1629.478982 392.809684 
L 1631.955496 396.45735 
L 1633.193754 397.059204 
L 1634.432011 395.723484 
L 1636.908526 389.443478 
L 1638.146783 388.480933 
L 1639.38504 391.057541 
L 1640.623297 395.716422 
L 1641.861555 399.899953 
L 1643.099812 402.177516 
L 1644.338069 402.286718 
L 1645.576326 400.33551 
L 1646.814584 396.614175 
L 1648.052841 391.797067 
L 1648.052841 391.797067 
" style="fill:none;stroke:#008000;stroke-linecap:square;stroke-width:1.5;"/>
   </g>
   <g id="patch_3">
    <path d="M 50.14375 586.86358 
L 50.14375 22.318125 
" style="fill:none;stroke:#000000;stroke-linecap:square;stroke-linejoin:miter;stroke-width:0.8;"/>
   </g>
   <g id="patch_4">
    <path d="M 1724.14375 586.86358 
L 1724.14375 22.318125 
" style="fill:none;stroke:#000000;stroke-linecap:square;stroke-linejoin:miter;stroke-width:0.8;"/>
   </g>
   <g id="patch_5">
    <path d="M 50.14375 586.86358 
L 1724.14375 586.86358 
" style="fill:none;stroke:#000000;stroke-linecap:square;stroke-linejoin:miter;stroke-width:0.8;"/>
   </g>
   <g id="patch_6">
    <path d="M 50.14375 22.318125 
L 1724.14375 22.318125 
" style="fill:none;stroke:#000000;stroke-linecap:square;stroke-linejoin:miter;stroke-width:0.8;"/>
   </g>
   <g id="text_19">
    <!-- before binarisation -->
    <g transform="translate(830.545 16.318125)scale(0.12 -0.12)">
     <defs>
      <path d="M 3116 1747 
Q 3116 2381 2855 2742 
Q 2594 3103 2138 3103 
Q 1681 3103 1420 2742 
Q 1159 2381 1159 1747 
Q 1159 1113 1420 752 
Q 1681 391 2138 391 
Q 2594 391 2855 752 
Q 3116 1113 3116 1747 
z
M 1159 2969 
Q 1341 3281 1617 3432 
Q 1894 3584 2278 3584 
Q 2916 3584 3314 3078 
Q 3713 2572 3713 1747 
Q 3713 922 3314 415 
Q 2916 -91 2278 -91 
Q 1894 -91 1617 61 
Q 1341 213 1159 525 
L 1159 0 
L 581 0 
L 581 4863 
L 1159 4863 
L 1159 2969 
z
" id="DejaVuSans-62" transform="scale(0.015625)"/>
      <path d="M 1959 3097 
Q 1497 3097 1228 2736 
Q 959 2375 959 1747 
Q 959 1119 1226 758 
Q 1494 397 1959 397 
Q 2419 397 2687 759 
Q 2956 1122 2956 1747 
Q 2956 2369 2687 2733 
Q 2419 3097 1959 3097 
z
M 1959 3584 
Q 2709 3584 3137 3096 
Q 3566 2609 3566 1747 
Q 3566 888 3137 398 
Q 2709 -91 1959 -91 
Q 1206 -91 779 398 
Q 353 888 353 1747 
Q 353 2609 779 3096 
Q 1206 3584 1959 3584 
z
" id="DejaVuSans-6f" transform="scale(0.015625)"/>
      <path id="DejaVuSans-20" transform="scale(0.015625)"/>
      <path d="M 603 3500 
L 1178 3500 
L 1178 0 
L 603 0 
L 603 3500 
z
M 603 4863 
L 1178 4863 
L 1178 4134 
L 603 4134 
L 603 4863 
z
" id="DejaVuSans-69" transform="scale(0.015625)"/>
      <path d="M 3513 2113 
L 3513 0 
L 2938 0 
L 2938 2094 
Q 2938 2591 2744 2837 
Q 2550 3084 2163 3084 
Q 1697 3084 1428 2787 
Q 1159 2491 1159 1978 
L 1159 0 
L 581 0 
L 581 3500 
L 1159 3500 
L 1159 2956 
Q 1366 3272 1645 3428 
Q 1925 3584 2291 3584 
Q 2894 3584 3203 3211 
Q 3513 2838 3513 2113 
z
" id="DejaVuSans-6e" transform="scale(0.015625)"/>
      <path d="M 2834 3397 
L 2834 2853 
Q 2591 2978 2328 3040 
Q 2066 3103 1784 3103 
Q 1356 3103 1142 2972 
Q 928 2841 928 2578 
Q 928 2378 1081 2264 
Q 1234 2150 1697 2047 
L 1894 2003 
Q 2506 1872 2764 1633 
Q 3022 1394 3022 966 
Q 3022 478 2636 193 
Q 2250 -91 1575 -91 
Q 1294 -91 989 -36 
Q 684 19 347 128 
L 347 722 
Q 666 556 975 473 
Q 1284 391 1588 391 
Q 1994 391 2212 530 
Q 2431 669 2431 922 
Q 2431 1156 2273 1281 
Q 2116 1406 1581 1522 
L 1381 1569 
Q 847 1681 609 1914 
Q 372 2147 372 2553 
Q 372 3047 722 3315 
Q 1072 3584 1716 3584 
Q 2034 3584 2315 3537 
Q 2597 3491 2834 3397 
z
" id="DejaVuSans-73" transform="scale(0.015625)"/>
      <path d="M 1172 4494 
L 1172 3500 
L 2356 3500 
L 2356 3053 
L 1172 3053 
L 1172 1153 
Q 1172 725 1289 603 
Q 1406 481 1766 481 
L 2356 481 
L 2356 0 
L 1766 0 
Q 1100 0 847 248 
Q 594 497 594 1153 
L 594 3053 
L 172 3053 
L 172 3500 
L 594 3500 
L 594 4494 
L 1172 4494 
z
" id="DejaVuSans-74" transform="scale(0.015625)"/>
     </defs>
     <use xlink:href="#DejaVuSans-62"/>
     <use x="63.476562" xlink:href="#DejaVuSans-65"/>
     <use x="125" xlink:href="#DejaVuSans-66"/>
     <use x="160.205078" xlink:href="#DejaVuSans-6f"/>
     <use x="221.386719" xlink:href="#DejaVuSans-72"/>
     <use x="260.25" xlink:href="#DejaVuSans-65"/>
     <use x="321.773438" xlink:href="#DejaVuSans-20"/>
     <use x="353.560547" xlink:href="#DejaVuSans-62"/>
     <use x="417.037109" xlink:href="#DejaVuSans-69"/>
     <use x="444.820312" xlink:href="#DejaVuSans-6e"/>
     <use x="508.199219" xlink:href="#DejaVuSans-61"/>
     <use x="569.478516" xlink:href="#DejaVuSans-72"/>
     <use x="610.591797" xlink:href="#DejaVuSans-69"/>
     <use x="638.375" xlink:href="#DejaVuSans-73"/>
     <use x="690.474609" xlink:href="#DejaVuSans-61"/>
     <use x="751.753906" xlink:href="#DejaVuSans-74"/>
     <use x="790.962891" xlink:href="#DejaVuSans-69"/>
     <use x="818.746094" xlink:href="#DejaVuSans-6f"/>
     <use x="879.927734" xlink:href="#DejaVuSans-6e"/>
    </g>
   </g>
  </g>
  <g id="axes_2">
   <g id="patch_7">
    <path d="M 50.14375 1264.318125 
L 1724.14375 1264.318125 
L 1724.14375 699.77267 
L 50.14375 699.77267 
z
" style="fill:#ffffff;"/>
   </g>
   <g id="matplotlib.axis_3">
    <g id="xtick_8">
     <g id="line2d_18">
      <g>
       <use style="stroke:#000000;stroke-width:0.8;" x="126.234659" xlink:href="#md3aec90590" y="1264.318125"/>
      </g>
     </g>
     <g id="text_20">
      <!-- 0 -->
      <g transform="translate(123.053409 1278.916563)scale(0.1 -0.1)">
       <use xlink:href="#DejaVuSans-30"/>
      </g>
     </g>
    </g>
    <g id="xtick_9">
     <g id="line2d_19">
      <g>
       <use style="stroke:#000000;stroke-width:0.8;" x="373.886113" xlink:href="#md3aec90590" y="1264.318125"/>
      </g>
     </g>
     <g id="text_21">
      <!-- 200 -->
      <g transform="translate(364.342363 1278.916563)scale(0.1 -0.1)">
       <use xlink:href="#DejaVuSans-32"/>
       <use x="63.623047" xlink:href="#DejaVuSans-30"/>
       <use x="127.246094" xlink:href="#DejaVuSans-30"/>
      </g>
     </g>
    </g>
    <g id="xtick_10">
     <g id="line2d_20">
      <g>
       <use style="stroke:#000000;stroke-width:0.8;" x="621.537566" xlink:href="#md3aec90590" y="1264.318125"/>
      </g>
     </g>
     <g id="text_22">
      <!-- 400 -->
      <g transform="translate(611.993816 1278.916563)scale(0.1 -0.1)">
       <use xlink:href="#DejaVuSans-34"/>
       <use x="63.623047" xlink:href="#DejaVuSans-30"/>
       <use x="127.246094" xlink:href="#DejaVuSans-30"/>
      </g>
     </g>
    </g>
    <g id="xtick_11">
     <g id="line2d_21">
      <g>
       <use style="stroke:#000000;stroke-width:0.8;" x="869.18902" xlink:href="#md3aec90590" y="1264.318125"/>
      </g>
     </g>
     <g id="text_23">
      <!-- 600 -->
      <g transform="translate(859.64527 1278.916563)scale(0.1 -0.1)">
       <use xlink:href="#DejaVuSans-36"/>
       <use x="63.623047" xlink:href="#DejaVuSans-30"/>
       <use x="127.246094" xlink:href="#DejaVuSans-30"/>
      </g>
     </g>
    </g>
    <g id="xtick_12">
     <g id="line2d_22">
      <g>
       <use style="stroke:#000000;stroke-width:0.8;" x="1116.840473" xlink:href="#md3aec90590" y="1264.318125"/>
      </g>
     </g>
     <g id="text_24">
      <!-- 800 -->
      <g transform="translate(1107.296723 1278.916563)scale(0.1 -0.1)">
       <use xlink:href="#DejaVuSans-38"/>
       <use x="63.623047" xlink:href="#DejaVuSans-30"/>
       <use x="127.246094" xlink:href="#DejaVuSans-30"/>
      </g>
     </g>
    </g>
    <g id="xtick_13">
     <g id="line2d_23">
      <g>
       <use style="stroke:#000000;stroke-width:0.8;" x="1364.491927" xlink:href="#md3aec90590" y="1264.318125"/>
      </g>
     </g>
     <g id="text_25">
      <!-- 1000 -->
      <g transform="translate(1351.766927 1278.916563)scale(0.1 -0.1)">
       <use xlink:href="#DejaVuSans-31"/>
       <use x="63.623047" xlink:href="#DejaVuSans-30"/>
       <use x="127.246094" xlink:href="#DejaVuSans-30"/>
       <use x="190.869141" xlink:href="#DejaVuSans-30"/>
      </g>
     </g>
    </g>
    <g id="xtick_14">
     <g id="line2d_24">
      <g>
       <use style="stroke:#000000;stroke-width:0.8;" x="1612.14338" xlink:href="#md3aec90590" y="1264.318125"/>
      </g>
     </g>
     <g id="text_26">
      <!-- 1200 -->
      <g transform="translate(1599.41838 1278.916563)scale(0.1 -0.1)">
       <use xlink:href="#DejaVuSans-31"/>
       <use x="63.623047" xlink:href="#DejaVuSans-32"/>
       <use x="127.246094" xlink:href="#DejaVuSans-30"/>
       <use x="190.869141" xlink:href="#DejaVuSans-30"/>
      </g>
     </g>
    </g>
    <g id="text_27">
     <!-- frame -->
     <g transform="translate(872.317187 1292.594688)scale(0.1 -0.1)">
      <use xlink:href="#DejaVuSans-66"/>
      <use x="35.205078" xlink:href="#DejaVuSans-72"/>
      <use x="76.318359" xlink:href="#DejaVuSans-61"/>
      <use x="137.597656" xlink:href="#DejaVuSans-6d"/>
      <use x="235.009766" xlink:href="#DejaVuSans-65"/>
     </g>
    </g>
   </g>
   <g id="matplotlib.axis_4">
    <g id="ytick_10">
     <g id="line2d_25">
      <g>
       <use style="stroke:#000000;stroke-width:0.8;" x="50.14375" xlink:href="#m5c56b6501a" y="1238.656968"/>
      </g>
     </g>
     <g id="text_28">
      <!-- 0.0 -->
      <g transform="translate(27.240625 1242.456187)scale(0.1 -0.1)">
       <use xlink:href="#DejaVuSans-30"/>
       <use x="63.623047" xlink:href="#DejaVuSans-2e"/>
       <use x="95.410156" xlink:href="#DejaVuSans-30"/>
      </g>
     </g>
    </g>
    <g id="ytick_11">
     <g id="line2d_26">
      <g>
       <use style="stroke:#000000;stroke-width:0.8;" x="50.14375" xlink:href="#m5c56b6501a" y="1136.01234"/>
      </g>
     </g>
     <g id="text_29">
      <!-- 0.2 -->
      <g transform="translate(27.240625 1139.811559)scale(0.1 -0.1)">
       <use xlink:href="#DejaVuSans-30"/>
       <use x="63.623047" xlink:href="#DejaVuSans-2e"/>
       <use x="95.410156" xlink:href="#DejaVuSans-32"/>
      </g>
     </g>
    </g>
    <g id="ytick_12">
     <g id="line2d_27">
      <g>
       <use style="stroke:#000000;stroke-width:0.8;" x="50.14375" xlink:href="#m5c56b6501a" y="1033.367712"/>
      </g>
     </g>
     <g id="text_30">
      <!-- 0.4 -->
      <g transform="translate(27.240625 1037.166931)scale(0.1 -0.1)">
       <use xlink:href="#DejaVuSans-30"/>
       <use x="63.623047" xlink:href="#DejaVuSans-2e"/>
       <use x="95.410156" xlink:href="#DejaVuSans-34"/>
      </g>
     </g>
    </g>
    <g id="ytick_13">
     <g id="line2d_28">
      <g>
       <use style="stroke:#000000;stroke-width:0.8;" x="50.14375" xlink:href="#m5c56b6501a" y="930.723084"/>
      </g>
     </g>
     <g id="text_31">
      <!-- 0.6 -->
      <g transform="translate(27.240625 934.522302)scale(0.1 -0.1)">
       <use xlink:href="#DejaVuSans-30"/>
       <use x="63.623047" xlink:href="#DejaVuSans-2e"/>
       <use x="95.410156" xlink:href="#DejaVuSans-36"/>
      </g>
     </g>
    </g>
    <g id="ytick_14">
     <g id="line2d_29">
      <g>
       <use style="stroke:#000000;stroke-width:0.8;" x="50.14375" xlink:href="#m5c56b6501a" y="828.078456"/>
      </g>
     </g>
     <g id="text_32">
      <!-- 0.8 -->
      <g transform="translate(27.240625 831.877674)scale(0.1 -0.1)">
       <use xlink:href="#DejaVuSans-30"/>
       <use x="63.623047" xlink:href="#DejaVuSans-2e"/>
       <use x="95.410156" xlink:href="#DejaVuSans-38"/>
      </g>
     </g>
    </g>
    <g id="ytick_15">
     <g id="line2d_30">
      <g>
       <use style="stroke:#000000;stroke-width:0.8;" x="50.14375" xlink:href="#m5c56b6501a" y="725.433827"/>
      </g>
     </g>
     <g id="text_33">
      <!-- 1.0 -->
      <g transform="translate(27.240625 729.233046)scale(0.1 -0.1)">
       <use xlink:href="#DejaVuSans-31"/>
       <use x="63.623047" xlink:href="#DejaVuSans-2e"/>
       <use x="95.410156" xlink:href="#DejaVuSans-30"/>
      </g>
     </g>
    </g>
    <g id="text_34">
     <!-- GCaMP -->
     <g transform="translate(21.160938 999.803991)rotate(-90)scale(0.1 -0.1)">
      <use xlink:href="#DejaVuSans-47"/>
      <use x="77.490234" xlink:href="#DejaVuSans-43"/>
      <use x="147.314453" xlink:href="#DejaVuSans-61"/>
      <use x="208.59375" xlink:href="#DejaVuSans-4d"/>
      <use x="294.873047" xlink:href="#DejaVuSans-50"/>
     </g>
    </g>
   </g>
   <g id="line2d_31">
    <path clip-path="url(#pd21610c841)" d="M 126.234659 725.433827 
L 314.449764 725.433827 
L 315.688021 1238.656968 
L 318.164536 1238.656968 
L 319.402793 725.433827 
L 325.594079 725.433827 
L 326.832336 1238.656968 
L 330.547108 1238.656968 
L 331.785366 725.433827 
L 336.738395 725.433827 
L 337.976652 1238.656968 
L 1648.052841 1238.656968 
L 1648.052841 1238.656968 
" style="fill:none;stroke:#008000;stroke-linecap:square;stroke-width:1.5;"/>
   </g>
   <g id="patch_8">
    <path d="M 50.14375 1264.318125 
L 50.14375 699.77267 
" style="fill:none;stroke:#000000;stroke-linecap:square;stroke-linejoin:miter;stroke-width:0.8;"/>
   </g>
   <g id="patch_9">
    <path d="M 1724.14375 1264.318125 
L 1724.14375 699.77267 
" style="fill:none;stroke:#000000;stroke-linecap:square;stroke-linejoin:miter;stroke-width:0.8;"/>
   </g>
   <g id="patch_10">
    <path d="M 50.14375 1264.318125 
L 1724.14375 1264.318125 
" style="fill:none;stroke:#000000;stroke-linecap:square;stroke-linejoin:miter;stroke-width:0.8;"/>
   </g>
   <g id="patch_11">
    <path d="M 50.14375 699.77267 
L 1724.14375 699.77267 
" style="fill:none;stroke:#000000;stroke-linecap:square;stroke-linejoin:miter;stroke-width:0.8;"/>
   </g>
   <g id="text_35">
    <!-- before binarisation -->
    <g transform="translate(830.545 693.77267)scale(0.12 -0.12)">
     <use xlink:href="#DejaVuSans-62"/>
     <use x="63.476562" xlink:href="#DejaVuSans-65"/>
     <use x="125" xlink:href="#DejaVuSans-66"/>
     <use x="160.205078" xlink:href="#DejaVuSans-6f"/>
     <use x="221.386719" xlink:href="#DejaVuSans-72"/>
     <use x="260.25" xlink:href="#DejaVuSans-65"/>
     <use x="321.773438" xlink:href="#DejaVuSans-20"/>
     <use x="353.560547" xlink:href="#DejaVuSans-62"/>
     <use x="417.037109" xlink:href="#DejaVuSans-69"/>
     <use x="444.820312" xlink:href="#DejaVuSans-6e"/>
     <use x="508.199219" xlink:href="#DejaVuSans-61"/>
     <use x="569.478516" xlink:href="#DejaVuSans-72"/>
     <use x="610.591797" xlink:href="#DejaVuSans-69"/>
     <use x="638.375" xlink:href="#DejaVuSans-73"/>
     <use x="690.474609" xlink:href="#DejaVuSans-61"/>
     <use x="751.753906" xlink:href="#DejaVuSans-74"/>
     <use x="790.962891" xlink:href="#DejaVuSans-69"/>
     <use x="818.746094" xlink:href="#DejaVuSans-6f"/>
     <use x="879.927734" xlink:href="#DejaVuSans-6e"/>
    </g>
   </g>
  </g>
 </g>
 <defs>
  <clipPath id="p582b126ade">
   <rect height="564.545455" width="1674" x="50.14375" y="22.318125"/>
  </clipPath>
  <clipPath id="pd21610c841">
   <rect height="564.545455" width="1674" x="50.14375" y="699.77267"/>
  </clipPath>
 </defs>
</svg>
