<?xml version="1.0" encoding="utf-8" standalone="no"?>
<!DOCTYPE svg PUBLIC "-//W3C//DTD SVG 1.1//EN"
  "http://www.w3.org/Graphics/SVG/1.1/DTD/svg11.dtd">
<svg height="1301.874375pt" version="1.1" viewBox="0 0 1724.98125 1301.874375" width="1724.98125pt" xmlns="http://www.w3.org/2000/svg" xmlns:xlink="http://www.w3.org/1999/xlink">
 <metadata>
  <rdf:RDF xmlns:cc="http://creativecommons.org/ns#" xmlns:dc="http://purl.org/dc/elements/1.1/" xmlns:rdf="http://www.w3.org/1999/02/22-rdf-syntax-ns#">
   <cc:Work>
    <dc:type rdf:resource="http://purl.org/dc/dcmitype/StillImage"/>
    <dc:date>2022-07-24T15:54:29.375899</dc:date>
    <dc:format>image/svg+xml</dc:format>
    <dc:creator>
     <cc:Agent>
      <dc:title>Matplotlib v3.4.2, https://matplotlib.org/</dc:title>
     </cc:Agent>
    </dc:creator>
   </cc:Work>
  </rdf:RDF>
 </metadata>
 <defs>
  <style type="text/css">*{stroke-linecap:butt;stroke-linejoin:round;}</style>
 </defs>
 <g id="figure_1">
  <g id="patch_1">
   <path d="M 0 1301.874375 
L 1724.98125 1301.874375 
L 1724.98125 0 
L 0 0 
z
" style="fill:#ffffff;"/>
  </g>
  <g id="axes_1">
   <g id="patch_2">
    <path d="M 43.78125 586.86358 
L 1717.78125 586.86358 
L 1717.78125 22.318125 
L 43.78125 22.318125 
z
" style="fill:#ffffff;"/>
   </g>
   <g id="matplotlib.axis_1">
    <g id="xtick_1">
     <g id="line2d_1">
      <defs>
       <path d="M 0 0 
L 0 3.5 
" id="md9a355e191" style="stroke:#000000;stroke-width:0.8;"/>
      </defs>
      <g>
       <use style="stroke:#000000;stroke-width:0.8;" x="119.872159" xlink:href="#md9a355e191" y="586.86358"/>
      </g>
     </g>
     <g id="text_1">
      <!-- 0 -->
      <g transform="translate(116.690909 601.462017)scale(0.1 -0.1)">
       <defs>
        <path d="M 2034 4250 
Q 1547 4250 1301 3770 
Q 1056 3291 1056 2328 
Q 1056 1369 1301 889 
Q 1547 409 2034 409 
Q 2525 409 2770 889 
Q 3016 1369 3016 2328 
Q 3016 3291 2770 3770 
Q 2525 4250 2034 4250 
z
M 2034 4750 
Q 2819 4750 3233 4129 
Q 3647 3509 3647 2328 
Q 3647 1150 3233 529 
Q 2819 -91 2034 -91 
Q 1250 -91 836 529 
Q 422 1150 422 2328 
Q 422 3509 836 4129 
Q 1250 4750 2034 4750 
z
" id="DejaVuSans-30" transform="scale(0.015625)"/>
       </defs>
       <use xlink:href="#DejaVuSans-30"/>
      </g>
     </g>
    </g>
    <g id="xtick_2">
     <g id="line2d_2">
      <g>
       <use style="stroke:#000000;stroke-width:0.8;" x="367.523613" xlink:href="#md9a355e191" y="586.86358"/>
      </g>
     </g>
     <g id="text_2">
      <!-- 200 -->
      <g transform="translate(357.979863 601.462017)scale(0.1 -0.1)">
       <defs>
        <path d="M 1228 531 
L 3431 531 
L 3431 0 
L 469 0 
L 469 531 
Q 828 903 1448 1529 
Q 2069 2156 2228 2338 
Q 2531 2678 2651 2914 
Q 2772 3150 2772 3378 
Q 2772 3750 2511 3984 
Q 2250 4219 1831 4219 
Q 1534 4219 1204 4116 
Q 875 4013 500 3803 
L 500 4441 
Q 881 4594 1212 4672 
Q 1544 4750 1819 4750 
Q 2544 4750 2975 4387 
Q 3406 4025 3406 3419 
Q 3406 3131 3298 2873 
Q 3191 2616 2906 2266 
Q 2828 2175 2409 1742 
Q 1991 1309 1228 531 
z
" id="DejaVuSans-32" transform="scale(0.015625)"/>
       </defs>
       <use xlink:href="#DejaVuSans-32"/>
       <use x="63.623047" xlink:href="#DejaVuSans-30"/>
       <use x="127.246094" xlink:href="#DejaVuSans-30"/>
      </g>
     </g>
    </g>
    <g id="xtick_3">
     <g id="line2d_3">
      <g>
       <use style="stroke:#000000;stroke-width:0.8;" x="615.175066" xlink:href="#md9a355e191" y="586.86358"/>
      </g>
     </g>
     <g id="text_3">
      <!-- 400 -->
      <g transform="translate(605.631316 601.462017)scale(0.1 -0.1)">
       <defs>
        <path d="M 2419 4116 
L 825 1625 
L 2419 1625 
L 2419 4116 
z
M 2253 4666 
L 3047 4666 
L 3047 1625 
L 3713 1625 
L 3713 1100 
L 3047 1100 
L 3047 0 
L 2419 0 
L 2419 1100 
L 313 1100 
L 313 1709 
L 2253 4666 
z
" id="DejaVuSans-34" transform="scale(0.015625)"/>
       </defs>
       <use xlink:href="#DejaVuSans-34"/>
       <use x="63.623047" xlink:href="#DejaVuSans-30"/>
       <use x="127.246094" xlink:href="#DejaVuSans-30"/>
      </g>
     </g>
    </g>
    <g id="xtick_4">
     <g id="line2d_4">
      <g>
       <use style="stroke:#000000;stroke-width:0.8;" x="862.82652" xlink:href="#md9a355e191" y="586.86358"/>
      </g>
     </g>
     <g id="text_4">
      <!-- 600 -->
      <g transform="translate(853.28277 601.462017)scale(0.1 -0.1)">
       <defs>
        <path d="M 2113 2584 
Q 1688 2584 1439 2293 
Q 1191 2003 1191 1497 
Q 1191 994 1439 701 
Q 1688 409 2113 409 
Q 2538 409 2786 701 
Q 3034 994 3034 1497 
Q 3034 2003 2786 2293 
Q 2538 2584 2113 2584 
z
M 3366 4563 
L 3366 3988 
Q 3128 4100 2886 4159 
Q 2644 4219 2406 4219 
Q 1781 4219 1451 3797 
Q 1122 3375 1075 2522 
Q 1259 2794 1537 2939 
Q 1816 3084 2150 3084 
Q 2853 3084 3261 2657 
Q 3669 2231 3669 1497 
Q 3669 778 3244 343 
Q 2819 -91 2113 -91 
Q 1303 -91 875 529 
Q 447 1150 447 2328 
Q 447 3434 972 4092 
Q 1497 4750 2381 4750 
Q 2619 4750 2861 4703 
Q 3103 4656 3366 4563 
z
" id="DejaVuSans-36" transform="scale(0.015625)"/>
       </defs>
       <use xlink:href="#DejaVuSans-36"/>
       <use x="63.623047" xlink:href="#DejaVuSans-30"/>
       <use x="127.246094" xlink:href="#DejaVuSans-30"/>
      </g>
     </g>
    </g>
    <g id="xtick_5">
     <g id="line2d_5">
      <g>
       <use style="stroke:#000000;stroke-width:0.8;" x="1110.477973" xlink:href="#md9a355e191" y="586.86358"/>
      </g>
     </g>
     <g id="text_5">
      <!-- 800 -->
      <g transform="translate(1100.934223 601.462017)scale(0.1 -0.1)">
       <defs>
        <path d="M 2034 2216 
Q 1584 2216 1326 1975 
Q 1069 1734 1069 1313 
Q 1069 891 1326 650 
Q 1584 409 2034 409 
Q 2484 409 2743 651 
Q 3003 894 3003 1313 
Q 3003 1734 2745 1975 
Q 2488 2216 2034 2216 
z
M 1403 2484 
Q 997 2584 770 2862 
Q 544 3141 544 3541 
Q 544 4100 942 4425 
Q 1341 4750 2034 4750 
Q 2731 4750 3128 4425 
Q 3525 4100 3525 3541 
Q 3525 3141 3298 2862 
Q 3072 2584 2669 2484 
Q 3125 2378 3379 2068 
Q 3634 1759 3634 1313 
Q 3634 634 3220 271 
Q 2806 -91 2034 -91 
Q 1263 -91 848 271 
Q 434 634 434 1313 
Q 434 1759 690 2068 
Q 947 2378 1403 2484 
z
M 1172 3481 
Q 1172 3119 1398 2916 
Q 1625 2713 2034 2713 
Q 2441 2713 2670 2916 
Q 2900 3119 2900 3481 
Q 2900 3844 2670 4047 
Q 2441 4250 2034 4250 
Q 1625 4250 1398 4047 
Q 1172 3844 1172 3481 
z
" id="DejaVuSans-38" transform="scale(0.015625)"/>
       </defs>
       <use xlink:href="#DejaVuSans-38"/>
       <use x="63.623047" xlink:href="#DejaVuSans-30"/>
       <use x="127.246094" xlink:href="#DejaVuSans-30"/>
      </g>
     </g>
    </g>
    <g id="xtick_6">
     <g id="line2d_6">
      <g>
       <use style="stroke:#000000;stroke-width:0.8;" x="1358.129427" xlink:href="#md9a355e191" y="586.86358"/>
      </g>
     </g>
     <g id="text_6">
      <!-- 1000 -->
      <g transform="translate(1345.404427 601.462017)scale(0.1 -0.1)">
       <defs>
        <path d="M 794 531 
L 1825 531 
L 1825 4091 
L 703 3866 
L 703 4441 
L 1819 4666 
L 2450 4666 
L 2450 531 
L 3481 531 
L 3481 0 
L 794 0 
L 794 531 
z
" id="DejaVuSans-31" transform="scale(0.015625)"/>
       </defs>
       <use xlink:href="#DejaVuSans-31"/>
       <use x="63.623047" xlink:href="#DejaVuSans-30"/>
       <use x="127.246094" xlink:href="#DejaVuSans-30"/>
       <use x="190.869141" xlink:href="#DejaVuSans-30"/>
      </g>
     </g>
    </g>
    <g id="xtick_7">
     <g id="line2d_7">
      <g>
       <use style="stroke:#000000;stroke-width:0.8;" x="1605.78088" xlink:href="#md9a355e191" y="586.86358"/>
      </g>
     </g>
     <g id="text_7">
      <!-- 1200 -->
      <g transform="translate(1593.05588 601.462017)scale(0.1 -0.1)">
       <use xlink:href="#DejaVuSans-31"/>
       <use x="63.623047" xlink:href="#DejaVuSans-32"/>
       <use x="127.246094" xlink:href="#DejaVuSans-30"/>
       <use x="190.869141" xlink:href="#DejaVuSans-30"/>
      </g>
     </g>
    </g>
    <g id="text_8">
     <!-- frame -->
     <g transform="translate(865.954687 615.140142)scale(0.1 -0.1)">
      <defs>
       <path d="M 2375 4863 
L 2375 4384 
L 1825 4384 
Q 1516 4384 1395 4259 
Q 1275 4134 1275 3809 
L 1275 3500 
L 2222 3500 
L 2222 3053 
L 1275 3053 
L 1275 0 
L 697 0 
L 697 3053 
L 147 3053 
L 147 3500 
L 697 3500 
L 697 3744 
Q 697 4328 969 4595 
Q 1241 4863 1831 4863 
L 2375 4863 
z
" id="DejaVuSans-66" transform="scale(0.015625)"/>
       <path d="M 2631 2963 
Q 2534 3019 2420 3045 
Q 2306 3072 2169 3072 
Q 1681 3072 1420 2755 
Q 1159 2438 1159 1844 
L 1159 0 
L 581 0 
L 581 3500 
L 1159 3500 
L 1159 2956 
Q 1341 3275 1631 3429 
Q 1922 3584 2338 3584 
Q 2397 3584 2469 3576 
Q 2541 3569 2628 3553 
L 2631 2963 
z
" id="DejaVuSans-72" transform="scale(0.015625)"/>
       <path d="M 2194 1759 
Q 1497 1759 1228 1600 
Q 959 1441 959 1056 
Q 959 750 1161 570 
Q 1363 391 1709 391 
Q 2188 391 2477 730 
Q 2766 1069 2766 1631 
L 2766 1759 
L 2194 1759 
z
M 3341 1997 
L 3341 0 
L 2766 0 
L 2766 531 
Q 2569 213 2275 61 
Q 1981 -91 1556 -91 
Q 1019 -91 701 211 
Q 384 513 384 1019 
Q 384 1609 779 1909 
Q 1175 2209 1959 2209 
L 2766 2209 
L 2766 2266 
Q 2766 2663 2505 2880 
Q 2244 3097 1772 3097 
Q 1472 3097 1187 3025 
Q 903 2953 641 2809 
L 641 3341 
Q 956 3463 1253 3523 
Q 1550 3584 1831 3584 
Q 2591 3584 2966 3190 
Q 3341 2797 3341 1997 
z
" id="DejaVuSans-61" transform="scale(0.015625)"/>
       <path d="M 3328 2828 
Q 3544 3216 3844 3400 
Q 4144 3584 4550 3584 
Q 5097 3584 5394 3201 
Q 5691 2819 5691 2113 
L 5691 0 
L 5113 0 
L 5113 2094 
Q 5113 2597 4934 2840 
Q 4756 3084 4391 3084 
Q 3944 3084 3684 2787 
Q 3425 2491 3425 1978 
L 3425 0 
L 2847 0 
L 2847 2094 
Q 2847 2600 2669 2842 
Q 2491 3084 2119 3084 
Q 1678 3084 1418 2786 
Q 1159 2488 1159 1978 
L 1159 0 
L 581 0 
L 581 3500 
L 1159 3500 
L 1159 2956 
Q 1356 3278 1631 3431 
Q 1906 3584 2284 3584 
Q 2666 3584 2933 3390 
Q 3200 3197 3328 2828 
z
" id="DejaVuSans-6d" transform="scale(0.015625)"/>
       <path d="M 3597 1894 
L 3597 1613 
L 953 1613 
Q 991 1019 1311 708 
Q 1631 397 2203 397 
Q 2534 397 2845 478 
Q 3156 559 3463 722 
L 3463 178 
Q 3153 47 2828 -22 
Q 2503 -91 2169 -91 
Q 1331 -91 842 396 
Q 353 884 353 1716 
Q 353 2575 817 3079 
Q 1281 3584 2069 3584 
Q 2775 3584 3186 3129 
Q 3597 2675 3597 1894 
z
M 3022 2063 
Q 3016 2534 2758 2815 
Q 2500 3097 2075 3097 
Q 1594 3097 1305 2825 
Q 1016 2553 972 2059 
L 3022 2063 
z
" id="DejaVuSans-65" transform="scale(0.015625)"/>
      </defs>
      <use xlink:href="#DejaVuSans-66"/>
      <use x="35.205078" xlink:href="#DejaVuSans-72"/>
      <use x="76.318359" xlink:href="#DejaVuSans-61"/>
      <use x="137.597656" xlink:href="#DejaVuSans-6d"/>
      <use x="235.009766" xlink:href="#DejaVuSans-65"/>
     </g>
    </g>
   </g>
   <g id="matplotlib.axis_2">
    <g id="ytick_1">
     <g id="line2d_8">
      <defs>
       <path d="M 0 0 
L -3.5 0 
" id="mf2c870952a" style="stroke:#000000;stroke-width:0.8;"/>
      </defs>
      <g>
       <use style="stroke:#000000;stroke-width:0.8;" x="43.78125" xlink:href="#mf2c870952a" y="531.319362"/>
      </g>
     </g>
     <g id="text_9">
      <!-- 0.5 -->
      <g transform="translate(20.878125 535.118581)scale(0.1 -0.1)">
       <defs>
        <path d="M 684 794 
L 1344 794 
L 1344 0 
L 684 0 
L 684 794 
z
" id="DejaVuSans-2e" transform="scale(0.015625)"/>
        <path d="M 691 4666 
L 3169 4666 
L 3169 4134 
L 1269 4134 
L 1269 2991 
Q 1406 3038 1543 3061 
Q 1681 3084 1819 3084 
Q 2600 3084 3056 2656 
Q 3513 2228 3513 1497 
Q 3513 744 3044 326 
Q 2575 -91 1722 -91 
Q 1428 -91 1123 -41 
Q 819 9 494 109 
L 494 744 
Q 775 591 1075 516 
Q 1375 441 1709 441 
Q 2250 441 2565 725 
Q 2881 1009 2881 1497 
Q 2881 1984 2565 2268 
Q 2250 2553 1709 2553 
Q 1456 2553 1204 2497 
Q 953 2441 691 2322 
L 691 4666 
z
" id="DejaVuSans-35" transform="scale(0.015625)"/>
       </defs>
       <use xlink:href="#DejaVuSans-30"/>
       <use x="63.623047" xlink:href="#DejaVuSans-2e"/>
       <use x="95.410156" xlink:href="#DejaVuSans-35"/>
      </g>
     </g>
    </g>
    <g id="ytick_2">
     <g id="line2d_9">
      <g>
       <use style="stroke:#000000;stroke-width:0.8;" x="43.78125" xlink:href="#mf2c870952a" y="468.046333"/>
      </g>
     </g>
     <g id="text_10">
      <!-- 0.6 -->
      <g transform="translate(20.878125 471.845552)scale(0.1 -0.1)">
       <use xlink:href="#DejaVuSans-30"/>
       <use x="63.623047" xlink:href="#DejaVuSans-2e"/>
       <use x="95.410156" xlink:href="#DejaVuSans-36"/>
      </g>
     </g>
    </g>
    <g id="ytick_3">
     <g id="line2d_10">
      <g>
       <use style="stroke:#000000;stroke-width:0.8;" x="43.78125" xlink:href="#mf2c870952a" y="404.773304"/>
      </g>
     </g>
     <g id="text_11">
      <!-- 0.7 -->
      <g transform="translate(20.878125 408.572523)scale(0.1 -0.1)">
       <defs>
        <path d="M 525 4666 
L 3525 4666 
L 3525 4397 
L 1831 0 
L 1172 0 
L 2766 4134 
L 525 4134 
L 525 4666 
z
" id="DejaVuSans-37" transform="scale(0.015625)"/>
       </defs>
       <use xlink:href="#DejaVuSans-30"/>
       <use x="63.623047" xlink:href="#DejaVuSans-2e"/>
       <use x="95.410156" xlink:href="#DejaVuSans-37"/>
      </g>
     </g>
    </g>
    <g id="ytick_4">
     <g id="line2d_11">
      <g>
       <use style="stroke:#000000;stroke-width:0.8;" x="43.78125" xlink:href="#mf2c870952a" y="341.500275"/>
      </g>
     </g>
     <g id="text_12">
      <!-- 0.8 -->
      <g transform="translate(20.878125 345.299493)scale(0.1 -0.1)">
       <use xlink:href="#DejaVuSans-30"/>
       <use x="63.623047" xlink:href="#DejaVuSans-2e"/>
       <use x="95.410156" xlink:href="#DejaVuSans-38"/>
      </g>
     </g>
    </g>
    <g id="ytick_5">
     <g id="line2d_12">
      <g>
       <use style="stroke:#000000;stroke-width:0.8;" x="43.78125" xlink:href="#mf2c870952a" y="278.227245"/>
      </g>
     </g>
     <g id="text_13">
      <!-- 0.9 -->
      <g transform="translate(20.878125 282.026464)scale(0.1 -0.1)">
       <defs>
        <path d="M 703 97 
L 703 672 
Q 941 559 1184 500 
Q 1428 441 1663 441 
Q 2288 441 2617 861 
Q 2947 1281 2994 2138 
Q 2813 1869 2534 1725 
Q 2256 1581 1919 1581 
Q 1219 1581 811 2004 
Q 403 2428 403 3163 
Q 403 3881 828 4315 
Q 1253 4750 1959 4750 
Q 2769 4750 3195 4129 
Q 3622 3509 3622 2328 
Q 3622 1225 3098 567 
Q 2575 -91 1691 -91 
Q 1453 -91 1209 -44 
Q 966 3 703 97 
z
M 1959 2075 
Q 2384 2075 2632 2365 
Q 2881 2656 2881 3163 
Q 2881 3666 2632 3958 
Q 2384 4250 1959 4250 
Q 1534 4250 1286 3958 
Q 1038 3666 1038 3163 
Q 1038 2656 1286 2365 
Q 1534 2075 1959 2075 
z
" id="DejaVuSans-39" transform="scale(0.015625)"/>
       </defs>
       <use xlink:href="#DejaVuSans-30"/>
       <use x="63.623047" xlink:href="#DejaVuSans-2e"/>
       <use x="95.410156" xlink:href="#DejaVuSans-39"/>
      </g>
     </g>
    </g>
    <g id="ytick_6">
     <g id="line2d_13">
      <g>
       <use style="stroke:#000000;stroke-width:0.8;" x="43.78125" xlink:href="#mf2c870952a" y="214.954216"/>
      </g>
     </g>
     <g id="text_14">
      <!-- 1.0 -->
      <g transform="translate(20.878125 218.753435)scale(0.1 -0.1)">
       <use xlink:href="#DejaVuSans-31"/>
       <use x="63.623047" xlink:href="#DejaVuSans-2e"/>
       <use x="95.410156" xlink:href="#DejaVuSans-30"/>
      </g>
     </g>
    </g>
    <g id="ytick_7">
     <g id="line2d_14">
      <g>
       <use style="stroke:#000000;stroke-width:0.8;" x="43.78125" xlink:href="#mf2c870952a" y="151.681187"/>
      </g>
     </g>
     <g id="text_15">
      <!-- 1.1 -->
      <g transform="translate(20.878125 155.480405)scale(0.1 -0.1)">
       <use xlink:href="#DejaVuSans-31"/>
       <use x="63.623047" xlink:href="#DejaVuSans-2e"/>
       <use x="95.410156" xlink:href="#DejaVuSans-31"/>
      </g>
     </g>
    </g>
    <g id="ytick_8">
     <g id="line2d_15">
      <g>
       <use style="stroke:#000000;stroke-width:0.8;" x="43.78125" xlink:href="#mf2c870952a" y="88.408157"/>
      </g>
     </g>
     <g id="text_16">
      <!-- 1.2 -->
      <g transform="translate(20.878125 92.207376)scale(0.1 -0.1)">
       <use xlink:href="#DejaVuSans-31"/>
       <use x="63.623047" xlink:href="#DejaVuSans-2e"/>
       <use x="95.410156" xlink:href="#DejaVuSans-32"/>
      </g>
     </g>
    </g>
    <g id="ytick_9">
     <g id="line2d_16">
      <g>
       <use style="stroke:#000000;stroke-width:0.8;" x="43.78125" xlink:href="#mf2c870952a" y="25.135128"/>
      </g>
     </g>
     <g id="text_17">
      <!-- 1.3 -->
      <g transform="translate(20.878125 28.934347)scale(0.1 -0.1)">
       <defs>
        <path d="M 2597 2516 
Q 3050 2419 3304 2112 
Q 3559 1806 3559 1356 
Q 3559 666 3084 287 
Q 2609 -91 1734 -91 
Q 1441 -91 1130 -33 
Q 819 25 488 141 
L 488 750 
Q 750 597 1062 519 
Q 1375 441 1716 441 
Q 2309 441 2620 675 
Q 2931 909 2931 1356 
Q 2931 1769 2642 2001 
Q 2353 2234 1838 2234 
L 1294 2234 
L 1294 2753 
L 1863 2753 
Q 2328 2753 2575 2939 
Q 2822 3125 2822 3475 
Q 2822 3834 2567 4026 
Q 2313 4219 1838 4219 
Q 1578 4219 1281 4162 
Q 984 4106 628 3988 
L 628 4550 
Q 988 4650 1302 4700 
Q 1616 4750 1894 4750 
Q 2613 4750 3031 4423 
Q 3450 4097 3450 3541 
Q 3450 3153 3228 2886 
Q 3006 2619 2597 2516 
z
" id="DejaVuSans-33" transform="scale(0.015625)"/>
       </defs>
       <use xlink:href="#DejaVuSans-31"/>
       <use x="63.623047" xlink:href="#DejaVuSans-2e"/>
       <use x="95.410156" xlink:href="#DejaVuSans-33"/>
      </g>
     </g>
    </g>
    <g id="text_18">
     <!-- GCaMP -->
     <g transform="translate(14.798437 322.349446)rotate(-90)scale(0.1 -0.1)">
      <defs>
       <path d="M 3809 666 
L 3809 1919 
L 2778 1919 
L 2778 2438 
L 4434 2438 
L 4434 434 
Q 4069 175 3628 42 
Q 3188 -91 2688 -91 
Q 1594 -91 976 548 
Q 359 1188 359 2328 
Q 359 3472 976 4111 
Q 1594 4750 2688 4750 
Q 3144 4750 3555 4637 
Q 3966 4525 4313 4306 
L 4313 3634 
Q 3963 3931 3569 4081 
Q 3175 4231 2741 4231 
Q 1884 4231 1454 3753 
Q 1025 3275 1025 2328 
Q 1025 1384 1454 906 
Q 1884 428 2741 428 
Q 3075 428 3337 486 
Q 3600 544 3809 666 
z
" id="DejaVuSans-47" transform="scale(0.015625)"/>
       <path d="M 4122 4306 
L 4122 3641 
Q 3803 3938 3442 4084 
Q 3081 4231 2675 4231 
Q 1875 4231 1450 3742 
Q 1025 3253 1025 2328 
Q 1025 1406 1450 917 
Q 1875 428 2675 428 
Q 3081 428 3442 575 
Q 3803 722 4122 1019 
L 4122 359 
Q 3791 134 3420 21 
Q 3050 -91 2638 -91 
Q 1578 -91 968 557 
Q 359 1206 359 2328 
Q 359 3453 968 4101 
Q 1578 4750 2638 4750 
Q 3056 4750 3426 4639 
Q 3797 4528 4122 4306 
z
" id="DejaVuSans-43" transform="scale(0.015625)"/>
       <path d="M 628 4666 
L 1569 4666 
L 2759 1491 
L 3956 4666 
L 4897 4666 
L 4897 0 
L 4281 0 
L 4281 4097 
L 3078 897 
L 2444 897 
L 1241 4097 
L 1241 0 
L 628 0 
L 628 4666 
z
" id="DejaVuSans-4d" transform="scale(0.015625)"/>
       <path d="M 1259 4147 
L 1259 2394 
L 2053 2394 
Q 2494 2394 2734 2622 
Q 2975 2850 2975 3272 
Q 2975 3691 2734 3919 
Q 2494 4147 2053 4147 
L 1259 4147 
z
M 628 4666 
L 2053 4666 
Q 2838 4666 3239 4311 
Q 3641 3956 3641 3272 
Q 3641 2581 3239 2228 
Q 2838 1875 2053 1875 
L 1259 1875 
L 1259 0 
L 628 0 
L 628 4666 
z
" id="DejaVuSans-50" transform="scale(0.015625)"/>
      </defs>
      <use xlink:href="#DejaVuSans-47"/>
      <use x="77.490234" xlink:href="#DejaVuSans-43"/>
      <use x="147.314453" xlink:href="#DejaVuSans-61"/>
      <use x="208.59375" xlink:href="#DejaVuSans-4d"/>
      <use x="294.873047" xlink:href="#DejaVuSans-50"/>
     </g>
    </g>
   </g>
   <g id="line2d_17">
    <path clip-path="url(#p8fb0f99ffd)" d="M 119.872159 544.412571 
L 121.110416 547.227787 
L 124.825188 554.564551 
L 126.063445 557.688911 
L 127.301703 560.294589 
L 128.53996 561.202423 
L 129.778217 560.028677 
L 131.016474 557.758071 
L 132.254732 556.124226 
L 133.492989 555.913836 
L 134.731246 556.384252 
L 135.969504 556.524712 
L 137.207761 555.895727 
L 138.446018 554.425829 
L 139.684275 552.623044 
L 140.922533 551.7832 
L 142.16079 552.987739 
L 144.637304 558.783306 
L 145.875562 560.054494 
L 147.113819 559.290094 
L 148.352076 557.169104 
L 149.590334 554.184266 
L 152.066848 546.053599 
L 153.305105 543.055131 
L 154.543363 542.767261 
L 155.78162 545.152163 
L 157.019877 548.650151 
L 158.258134 551.556203 
L 159.496392 553.216301 
L 160.734649 553.641255 
L 161.972906 552.548219 
L 163.211163 549.27805 
L 164.449421 543.267365 
L 165.687678 534.240179 
L 166.925935 522.388288 
L 168.164193 509.113069 
L 169.40245 497.335336 
L 170.640707 490.102648 
L 171.878964 488.44082 
L 174.355479 492.621075 
L 175.593736 491.733316 
L 176.831993 487.087655 
L 178.070251 480.784325 
L 179.308508 476.229362 
L 180.546765 475.54699 
L 181.785022 478.450055 
L 183.02328 482.966186 
L 184.261537 486.725659 
L 185.499794 488.393226 
L 186.738052 487.817873 
L 187.976309 484.543943 
L 189.214566 477.923313 
L 190.452823 469.231289 
L 191.691081 461.69317 
L 192.929338 458.026249 
L 194.167595 458.755116 
L 195.405852 462.578455 
L 197.882367 472.882341 
L 199.120624 477.183218 
L 200.358881 479.923311 
L 201.597139 480.044056 
L 202.835396 477.353542 
L 204.073653 473.695325 
L 205.311911 471.650036 
L 206.550168 472.374735 
L 209.026682 477.499045 
L 210.26494 477.863275 
L 211.503197 475.032795 
L 212.741454 468.481395 
L 213.979711 458.357821 
L 215.217969 446.954131 
L 216.456226 438.457043 
L 217.694483 436.098021 
L 218.93274 439.890941 
L 220.170998 446.794564 
L 221.409255 452.653543 
L 222.647512 454.282884 
L 223.88577 450.058603 
L 225.124027 439.781003 
L 227.600541 410.677555 
L 230.077056 386.485422 
L 232.55357 361.608581 
L 233.791828 352.889956 
L 235.030085 351.816573 
L 236.268342 358.532703 
L 238.744857 381.661415 
L 239.983114 390.999961 
L 241.221371 396.61192 
L 242.459629 398.791949 
L 243.697886 397.847979 
L 246.1744 391.305775 
L 247.412658 391.114912 
L 248.650915 394.46985 
L 251.127429 405.075829 
L 252.365687 409.855053 
L 253.603944 415.459167 
L 256.080459 430.776416 
L 257.318716 436.868245 
L 258.556973 439.840769 
L 259.79523 438.978878 
L 261.033488 433.5717 
L 262.271745 424.21571 
L 263.510002 413.529775 
L 264.748259 404.530146 
L 265.986517 398.388709 
L 267.224774 393.625478 
L 268.463031 387.925782 
L 269.701288 381.233136 
L 270.939546 375.892256 
L 272.177803 373.778626 
L 273.41606 375.221673 
L 274.654318 379.985863 
L 277.130832 394.699165 
L 278.369089 400.127937 
L 279.607347 401.338467 
L 280.845604 398.325552 
L 282.083861 393.827414 
L 283.322118 391.073893 
L 284.560376 391.40209 
L 287.03689 396.523653 
L 288.275147 396.245388 
L 289.513405 390.102092 
L 290.751662 375.166359 
L 291.989919 350.584788 
L 295.704691 258.378883 
L 296.942948 237.982377 
L 298.181206 229.246267 
L 299.419463 232.046659 
L 301.895977 250.277649 
L 303.134235 253.321975 
L 304.372492 249.384151 
L 305.610749 240.783195 
L 306.849006 233.037476 
L 308.087264 231.325685 
L 309.325521 235.970382 
L 311.802036 251.231574 
L 313.040293 256.632582 
L 314.27855 256.934389 
L 315.516807 249.246076 
L 317.993322 219.768243 
L 319.231579 212.748395 
L 320.469836 217.762938 
L 321.708094 233.086311 
L 324.184608 273.842733 
L 325.422866 291.030572 
L 326.661123 302.605541 
L 327.89938 306.97703 
L 329.137637 304.151125 
L 330.375895 295.828676 
L 331.614152 285.58563 
L 332.852409 278.470865 
L 334.090666 278.455705 
L 335.328924 286.624196 
L 336.567181 301.444656 
L 339.043695 336.633208 
L 340.281953 350.6653 
L 341.52021 361.025045 
L 342.758467 368.101926 
L 343.996725 372.875249 
L 346.473239 380.596804 
L 347.711496 383.430155 
L 348.949754 384.675614 
L 350.188011 384.955933 
L 351.426268 385.743376 
L 352.664525 387.670705 
L 356.379297 394.448742 
L 357.617554 397.640943 
L 358.855812 400.14372 
L 360.094069 400.783287 
L 361.332326 399.354234 
L 362.570584 396.181139 
L 363.808841 392.414479 
L 365.047098 390.164077 
L 366.285355 390.981339 
L 367.523613 394.933124 
L 368.76187 401.269066 
L 370.000127 408.448413 
L 371.238384 413.677733 
L 372.476642 414.249525 
L 373.714899 409.923307 
L 374.953156 403.625713 
L 376.191413 399.450783 
L 377.429671 399.92786 
L 378.667928 405.242309 
L 381.144443 421.981803 
L 382.3827 426.84761 
L 383.620957 426.463809 
L 384.859214 421.326026 
L 386.097472 413.930048 
L 387.335729 407.744266 
L 388.573986 405.73749 
L 389.812243 408.960806 
L 392.288758 423.590441 
L 393.527015 428.516852 
L 394.765272 429.038922 
L 396.00353 426.108575 
L 397.241787 422.685326 
L 398.480044 421.692158 
L 399.718302 424.37372 
L 400.956559 429.310614 
L 402.194816 432.712053 
L 403.433073 431.049144 
L 404.671331 423.738532 
L 407.147845 403.31058 
L 408.386102 396.572564 
L 409.62436 393.699439 
L 410.862617 393.282149 
L 413.339132 393.44221 
L 414.577389 393.927555 
L 415.815646 394.786519 
L 417.053903 394.866859 
L 418.292161 393.005534 
L 420.768675 386.014213 
L 422.006932 384.914264 
L 423.24519 386.734694 
L 424.483447 389.847468 
L 425.721704 391.066471 
L 426.959961 387.102868 
L 428.198219 377.161397 
L 429.436476 365.443488 
L 430.674733 359.296226 
L 431.912991 363.149094 
L 433.151248 375.147542 
L 435.627762 404.314034 
L 436.86602 416.69352 
L 438.104277 426.570613 
L 439.342534 432.536648 
L 440.580791 433.681359 
L 441.819049 430.952948 
L 444.295563 422.395035 
L 445.53382 418.487448 
L 446.772078 414.959304 
L 448.010335 412.791009 
L 449.248592 412.585685 
L 450.48685 413.564069 
L 451.725107 415.396692 
L 452.963364 418.875546 
L 455.439879 428.778783 
L 456.678136 432.43307 
L 459.15465 437.536121 
L 460.392908 440.956267 
L 462.869422 450.668224 
L 464.107679 454.096106 
L 465.345937 454.54352 
L 466.584194 452.375117 
L 469.060709 444.269659 
L 470.298966 442.3257 
L 471.537223 444.581075 
L 472.77548 449.536543 
L 474.013738 453.72709 
L 475.251995 455.056292 
L 476.490252 453.857471 
L 477.728509 451.61042 
L 478.966767 449.595176 
L 480.205024 448.941066 
L 481.443281 450.352477 
L 482.681538 452.825996 
L 483.919796 454.240506 
L 485.158053 453.23438 
L 486.39631 449.794488 
L 487.634568 445.146894 
L 488.872825 441.004794 
L 490.111082 438.387818 
L 491.349339 437.332634 
L 492.587597 436.952735 
L 493.825854 435.589332 
L 496.302368 428.930525 
L 497.540626 428.594753 
L 498.778883 432.596353 
L 501.255397 446.005898 
L 502.493655 450.438066 
L 503.731912 450.736527 
L 504.970169 446.253509 
L 507.446684 430.568235 
L 508.684941 424.02029 
L 509.923198 419.622098 
L 511.161456 418.332771 
L 512.399713 420.920483 
L 513.63797 426.700474 
L 514.876227 433.619012 
L 516.114485 438.775103 
L 517.352742 439.293054 
L 518.590999 434.047765 
L 519.829257 424.281924 
L 522.305771 401.128241 
L 523.544028 393.005351 
L 524.782286 388.722095 
L 526.020543 387.419677 
L 527.2588 388.804576 
L 528.497057 393.024434 
L 529.735315 398.813858 
L 530.973572 403.27301 
L 532.211829 403.944207 
L 533.450086 401.402483 
L 534.688344 399.255941 
L 535.926601 400.914614 
L 537.164858 406.635422 
L 538.403116 413.714345 
L 539.641373 418.72354 
L 540.87963 419.490667 
L 542.117887 416.068062 
L 543.356145 410.748387 
L 544.594402 406.883369 
L 545.832659 406.45629 
L 547.070916 408.841804 
L 548.309174 412.530914 
L 549.547431 416.571554 
L 550.785688 419.852939 
L 552.023945 420.951362 
L 553.262203 419.303444 
L 554.50046 415.584801 
L 556.976975 405.725875 
L 559.453489 395.885869 
L 560.691746 392.298028 
L 561.930004 390.467214 
L 563.168261 390.765444 
L 564.406518 393.559909 
L 565.644775 398.197861 
L 566.883033 401.884767 
L 568.12129 401.775833 
L 569.359547 398.220177 
L 570.597804 393.913977 
L 571.836062 390.702171 
L 573.074319 389.168634 
L 574.312576 389.799884 
L 575.550834 392.553541 
L 578.027348 400.120303 
L 579.265605 403.34758 
L 580.503863 405.351264 
L 581.74212 404.553611 
L 582.980377 400.245433 
L 584.218634 394.210646 
L 585.456892 388.778313 
L 586.695149 384.481464 
L 587.933406 381.09 
L 589.171663 379.450416 
L 590.409921 380.822073 
L 591.648178 385.31447 
L 592.886435 391.93318 
L 594.124693 399.281221 
L 595.36295 405.7926 
L 596.601207 409.757564 
L 597.839464 409.390908 
L 599.077722 404.023724 
L 600.315979 395.299998 
L 602.792493 377.005052 
L 604.030751 370.148249 
L 605.269008 365.32129 
L 606.507265 361.591959 
L 607.745523 358.46266 
L 608.98378 356.377123 
L 610.222037 355.800149 
L 611.460294 357.166042 
L 612.698552 360.71527 
L 613.936809 365.986341 
L 616.413323 378.826548 
L 617.651581 383.312862 
L 618.889838 383.486644 
L 620.128095 379.538612 
L 622.60461 368.414723 
L 623.842867 365.75829 
L 625.081124 367.03213 
L 626.319382 371.523009 
L 627.557639 377.182668 
L 628.795896 381.733424 
L 630.034153 383.826734 
L 631.272411 384.00772 
L 632.510668 383.406646 
L 633.748925 381.881283 
L 634.987182 378.439132 
L 636.22544 372.880935 
L 637.463697 366.78385 
L 638.701954 362.521188 
L 639.940211 361.076227 
L 641.178469 361.865924 
L 642.416726 364.015253 
L 643.654983 366.460799 
L 646.131498 370.633064 
L 647.369755 373.405877 
L 648.608012 375.760852 
L 649.84627 376.379162 
L 652.322784 374.600949 
L 653.561041 374.746269 
L 654.799299 375.621823 
L 656.037556 376.253144 
L 657.275813 376.076413 
L 658.51407 375.452675 
L 659.752328 375.0465 
L 660.990585 374.979488 
L 663.4671 375.208348 
L 664.705357 374.967715 
L 665.943614 373.011009 
L 667.181871 368.089253 
L 668.420129 360.303587 
L 669.658386 351.124767 
L 670.896643 342.890467 
L 672.1349 337.815347 
L 673.373158 336.220578 
L 674.611415 336.752485 
L 675.849672 338.695006 
L 677.087929 342.280907 
L 678.326187 346.967626 
L 679.564444 351.129009 
L 680.802701 353.166567 
L 682.040959 352.297455 
L 683.279216 348.908056 
L 684.517473 344.035611 
L 688.232245 327.281184 
L 689.470502 324.398942 
L 690.708759 324.366764 
L 691.947017 327.741229 
L 693.185274 334.852367 
L 696.900046 364.627526 
L 698.138303 367.358125 
L 699.37656 363.211689 
L 701.853075 346.373933 
L 703.091332 342.980813 
L 704.329589 346.163815 
L 706.806104 360.387196 
L 708.044361 363.886158 
L 709.282618 363.705979 
L 710.520876 361.183539 
L 711.759133 357.627259 
L 714.235648 349.235745 
L 715.473905 344.998264 
L 716.712162 342.497443 
L 717.950419 343.193218 
L 720.426934 349.38081 
L 721.665191 349.057587 
L 722.903448 345.140213 
L 724.141706 340.670308 
L 725.379963 338.911715 
L 726.61822 340.294523 
L 727.856477 343.037012 
L 729.094735 345.150558 
L 730.332992 345.411825 
L 731.571249 344.156986 
L 732.809507 343.941877 
L 734.047764 347.588438 
L 735.286021 354.167035 
L 736.524278 359.089976 
L 737.762536 359.496115 
L 740.23905 354.100657 
L 741.477307 352.93288 
L 742.715565 353.890928 
L 743.953822 357.034788 
L 746.430336 366.637807 
L 747.668594 370.160994 
L 748.906851 371.529564 
L 750.145108 371.151138 
L 751.383366 370.101937 
L 752.621623 368.452035 
L 753.85988 365.23667 
L 756.336395 355.638787 
L 757.574652 352.243252 
L 758.812909 350.260845 
L 760.051166 348.980352 
L 761.289424 348.560981 
L 762.527681 350.597783 
L 763.765938 356.281772 
L 765.004195 364.233188 
L 766.242453 370.89045 
L 767.48071 372.570264 
L 768.718967 367.823826 
L 769.957225 358.52196 
L 771.195482 348.100889 
L 772.433739 339.34237 
L 773.671996 333.864551 
L 774.910254 332.293057 
L 776.148511 334.448796 
L 777.386768 339.379304 
L 779.863283 352.624872 
L 781.10154 359.321352 
L 782.339797 364.250955 
L 783.578054 365.832487 
L 784.816312 363.513856 
L 786.054569 357.832666 
L 788.531084 343.0732 
L 789.769341 336.802629 
L 791.007598 331.62215 
L 792.245855 328.099312 
L 793.484113 327.010587 
L 794.72237 328.146466 
L 795.960627 330.731961 
L 797.198884 334.473668 
L 799.675399 343.396639 
L 800.913656 345.785688 
L 802.151914 344.513172 
L 803.390171 338.76201 
L 804.628428 330.342661 
L 805.866685 323.631627 
L 807.104943 322.966607 
L 808.3432 329.492176 
L 809.581457 339.849285 
L 810.819714 348.401956 
L 812.057972 351.214575 
L 813.296229 347.997086 
L 814.534486 340.920245 
L 817.011001 323.606107 
L 818.249258 316.64005 
L 819.487515 312.216312 
L 820.725773 309.261715 
L 821.96403 306.851074 
L 823.202287 306.383041 
L 824.440544 309.595603 
L 825.678802 315.973822 
L 828.155316 331.406461 
L 829.393573 338.005222 
L 830.631831 342.685456 
L 831.870088 345.398162 
L 833.108345 346.288591 
L 834.346602 345.262622 
L 835.58486 342.345185 
L 836.823117 337.275074 
L 838.061374 329.524822 
L 841.776146 300.327281 
L 843.014403 297.213066 
L 844.252661 301.28301 
L 845.490918 309.557355 
L 846.729175 316.255389 
L 847.967432 317.600473 
L 849.20569 313.430078 
L 851.682204 298.36897 
L 852.920461 293.654035 
L 854.158719 292.994971 
L 855.396976 295.002385 
L 856.635233 297.722373 
L 857.873491 300.979169 
L 860.350005 308.800237 
L 861.588262 312.229245 
L 862.82652 316.153164 
L 864.064777 320.657231 
L 865.303034 323.730245 
L 866.541291 322.099621 
L 867.779549 313.912897 
L 870.256063 287.821319 
L 871.49432 278.228566 
L 872.732578 274.219293 
L 873.970835 276.05211 
L 875.209092 283.074848 
L 876.44735 294.653027 
L 878.923864 324.430585 
L 880.162121 334.926255 
L 881.400379 338.854165 
L 882.638636 336.978427 
L 883.876893 331.583169 
L 885.11515 324.16756 
L 887.591665 305.641029 
L 888.829922 299.004646 
L 890.06818 296.851707 
L 891.306437 298.205834 
L 892.544694 300.211604 
L 893.782951 300.608176 
L 896.259466 298.501248 
L 897.497723 297.312511 
L 898.73598 295.10991 
L 899.974238 292.044687 
L 901.212495 289.663772 
L 902.450752 288.519843 
L 903.689009 287.087657 
L 904.927267 284.026647 
L 906.165524 279.563186 
L 907.403781 274.128388 
L 909.880296 261.222661 
L 911.118553 257.240583 
L 912.35681 257.852364 
L 913.595068 262.788276 
L 914.833325 269.363585 
L 916.071582 274.237622 
L 917.309839 275.99562 
L 918.548097 275.91725 
L 919.786354 275.558316 
L 921.024611 274.319563 
L 922.262868 270.548021 
L 923.501126 264.158363 
L 924.739383 256.851013 
L 925.97764 250.247289 
L 927.215898 244.953829 
L 928.454155 241.765667 
L 929.692412 242.516348 
L 930.930669 248.34042 
L 932.168927 257.943723 
L 934.645441 278.825796 
L 935.883698 287.411672 
L 937.121956 293.368584 
L 938.360213 295.320637 
L 939.59847 292.308112 
L 940.836727 284.777624 
L 942.074985 275.553751 
L 943.313242 268.316727 
L 944.551499 264.713101 
L 945.789757 262.949018 
L 947.028014 259.042993 
L 948.266271 250.442935 
L 950.742786 225.278697 
L 951.981043 217.100007 
L 953.2193 217.550801 
L 954.457557 227.037144 
L 958.172329 271.324245 
L 959.410586 280.686134 
L 960.648844 287.43838 
L 961.887101 292.190948 
L 963.125358 294.485655 
L 964.363616 293.827598 
L 965.601873 289.56486 
L 966.84013 280.235192 
L 969.316645 250.368465 
L 970.554902 240.773606 
L 971.793159 240.54825 
L 973.031416 248.432482 
L 975.507931 270.921626 
L 976.746188 277.807675 
L 977.984446 281.227307 
L 979.222703 283.428121 
L 981.699217 288.390874 
L 982.937475 290.107825 
L 984.175732 291.382832 
L 985.413989 293.527537 
L 986.652246 296.932674 
L 987.890504 299.920063 
L 989.128761 300.100936 
L 990.367018 296.142503 
L 991.605275 288.274133 
L 994.08179 269.351063 
L 995.320047 263.088348 
L 997.796562 254.711211 
L 1000.273076 245.243791 
L 1001.511334 243.062029 
L 1002.749591 244.896677 
L 1003.987848 251.271843 
L 1005.226105 260.452498 
L 1006.464363 268.528055 
L 1007.70262 272.720161 
L 1008.940877 272.948765 
L 1010.179134 269.461746 
L 1011.417392 262.154873 
L 1013.893906 243.807347 
L 1015.132164 237.327345 
L 1016.370421 232.835011 
L 1017.608678 230.203558 
L 1018.846935 229.571978 
L 1020.085193 229.980794 
L 1021.32345 230.26767 
L 1022.561707 230.349531 
L 1023.799964 230.648726 
L 1026.276479 231.697306 
L 1027.514736 232.630087 
L 1028.752993 234.695066 
L 1029.991251 238.328899 
L 1031.229508 243.451861 
L 1032.467765 249.155084 
L 1033.706023 253.761576 
L 1034.94428 255.542195 
L 1036.182537 254.016857 
L 1037.420794 250.329569 
L 1038.659052 245.312382 
L 1039.897309 239.225767 
L 1041.135566 233.978948 
L 1042.373823 231.862428 
L 1043.612081 232.645753 
L 1044.850338 234.864595 
L 1046.088595 237.834144 
L 1048.56511 244.871037 
L 1049.803367 249.166225 
L 1052.279882 258.969821 
L 1053.518139 263.093792 
L 1054.756396 265.108148 
L 1055.994653 263.986707 
L 1057.232911 259.678067 
L 1058.471168 252.057332 
L 1060.947682 231.694402 
L 1062.18594 225.833401 
L 1063.424197 224.403675 
L 1064.662454 224.975164 
L 1065.900711 225.913228 
L 1067.138969 227.27733 
L 1068.377226 229.501714 
L 1069.615483 233.175969 
L 1072.091998 243.168804 
L 1073.330255 244.811506 
L 1074.568512 243.018072 
L 1075.80677 240.953464 
L 1077.045027 242.39986 
L 1078.283284 248.189947 
L 1080.759799 264.621069 
L 1081.998056 271.800689 
L 1083.236313 276.782922 
L 1084.474571 278.930569 
L 1085.712828 277.582512 
L 1086.951085 271.535878 
L 1088.189342 260.420449 
L 1090.665857 232.104564 
L 1091.904114 221.674289 
L 1093.142371 216.526264 
L 1094.380629 215.922542 
L 1095.618886 218.047606 
L 1096.857143 222.068738 
L 1098.0954 227.46781 
L 1099.333658 232.346217 
L 1100.571915 234.220961 
L 1101.810172 232.433561 
L 1103.04843 228.950853 
L 1104.286687 226.958993 
L 1105.524944 228.562129 
L 1106.763201 232.558219 
L 1108.001459 235.233 
L 1109.239716 234.682071 
L 1110.477973 232.718111 
L 1111.71623 232.026342 
L 1112.954488 233.523486 
L 1114.192745 236.209764 
L 1115.431002 238.021006 
L 1116.669259 237.517976 
L 1117.907517 235.089174 
L 1119.145774 232.04626 
L 1120.384031 229.803744 
L 1121.622289 229.731495 
L 1122.860546 232.10002 
L 1125.33706 239.878894 
L 1126.575318 242.113441 
L 1127.813575 240.711305 
L 1129.051832 235.071974 
L 1132.766604 209.268679 
L 1134.004861 203.8745 
L 1135.243118 200.540759 
L 1136.481376 198.599649 
L 1137.719633 198.108098 
L 1138.95789 198.879313 
L 1140.196148 199.785062 
L 1141.434405 200.112467 
L 1142.672662 200.738975 
L 1143.910919 203.388085 
L 1145.149177 208.523436 
L 1146.387434 214.248338 
L 1147.625691 218.122551 
L 1148.863948 219.735955 
L 1150.102206 220.587826 
L 1151.340463 222.39555 
L 1152.57872 226.309161 
L 1153.816977 231.642777 
L 1155.055235 235.715842 
L 1156.293492 237.113921 
L 1157.531749 237.304031 
L 1158.770007 238.299619 
L 1160.008264 240.320302 
L 1161.246521 242.007438 
L 1162.484778 242.266904 
L 1163.723036 241.272737 
L 1164.961293 240.99299 
L 1166.19955 244.286981 
L 1167.437807 250.58295 
L 1168.676065 254.776918 
L 1169.914322 252.799597 
L 1171.152579 245.243658 
L 1172.390837 235.541204 
L 1173.629094 227.220283 
L 1174.867351 222.442069 
L 1176.105608 221.551407 
L 1177.343866 223.969929 
L 1178.582123 229.804271 
L 1179.82038 239.226374 
L 1181.058637 250.390958 
L 1182.296895 259.524442 
L 1183.535152 262.823494 
L 1184.773409 258.352047 
L 1186.011666 247.469572 
L 1187.249924 234.59923 
L 1188.488181 223.906937 
L 1190.964696 208.458521 
L 1192.202953 200.954707 
L 1193.44121 194.639658 
L 1194.679467 191.350651 
L 1195.917725 192.50959 
L 1197.155982 197.982181 
L 1199.632496 212.378129 
L 1200.870754 216.998962 
L 1202.109011 217.768771 
L 1203.347268 213.593118 
L 1204.585525 205.448003 
L 1205.823783 196.270394 
L 1207.06204 189.066911 
L 1208.300297 185.442175 
L 1209.538555 185.734778 
L 1210.776812 189.245623 
L 1212.015069 193.922353 
L 1213.253326 197.721276 
L 1216.968098 206.182578 
L 1218.206355 206.16427 
L 1219.444613 202.628703 
L 1221.921127 192.002908 
L 1223.159384 188.923744 
L 1224.397642 189.04977 
L 1225.635899 192.509462 
L 1226.874156 197.759923 
L 1228.112414 202.295772 
L 1229.350671 204.587207 
L 1231.827185 206.393132 
L 1233.065443 205.6427 
L 1234.3037 200.712327 
L 1236.780214 184.376885 
L 1238.018472 181.25925 
L 1239.256729 184.041255 
L 1240.494986 190.490075 
L 1241.733243 196.280459 
L 1242.971501 197.561283 
L 1244.209758 193.696465 
L 1245.448015 187.482001 
L 1246.686273 182.652829 
L 1247.92453 181.226927 
L 1250.401044 183.430024 
L 1251.639302 183.126377 
L 1252.877559 182.192434 
L 1254.115816 181.416225 
L 1255.354073 180.852495 
L 1256.592331 181.374664 
L 1257.830588 184.44771 
L 1259.068845 190.351686 
L 1261.54536 205.749981 
L 1262.783617 210.396706 
L 1264.021874 210.361729 
L 1265.260132 206.877151 
L 1266.498389 201.882262 
L 1267.736646 194.973081 
L 1268.974903 183.9715 
L 1270.213161 167.593042 
L 1272.689675 124.445523 
L 1273.927932 108.936316 
L 1275.16619 107.578868 
L 1276.404447 121.66511 
L 1280.119219 190.968032 
L 1281.357476 204.958208 
L 1282.595733 211.127256 
L 1283.833991 209.524299 
L 1285.072248 202.066468 
L 1286.310505 192.304423 
L 1287.548762 184.185395 
L 1288.78702 180.025634 
L 1290.025277 179.918901 
L 1291.263534 182.8131 
L 1292.501791 186.789751 
L 1293.740049 188.896637 
L 1294.978306 186.694922 
L 1296.216563 179.966961 
L 1299.931335 151.970403 
L 1301.169592 145.579555 
L 1302.40785 142.091255 
L 1303.646107 142.930027 
L 1304.884364 148.249883 
L 1306.122621 156.173681 
L 1307.360879 163.236581 
L 1308.599136 165.994894 
L 1309.837393 163.614187 
L 1311.07565 158.542274 
L 1312.313908 154.339879 
L 1313.552165 153.445492 
L 1314.790422 156.296429 
L 1316.02868 160.815145 
L 1317.266937 163.609139 
L 1318.505194 162.657298 
L 1319.743451 157.802907 
L 1322.219966 143.303983 
L 1323.458223 141.688381 
L 1324.69648 147.780642 
L 1327.172995 172.172801 
L 1328.411252 180.703738 
L 1329.649509 183.326553 
L 1330.887767 180.752405 
L 1332.126024 173.384495 
L 1333.364281 161.229748 
L 1334.602539 146.350627 
L 1335.840796 132.837057 
L 1337.079053 124.694756 
L 1338.31731 124.077208 
L 1339.555568 129.966323 
L 1340.793825 138.203198 
L 1342.032082 144.281383 
L 1343.270339 146.868601 
L 1344.508597 147.608908 
L 1345.746854 148.587086 
L 1346.985111 151.712916 
L 1348.223368 157.821008 
L 1349.461626 164.702953 
L 1350.699883 168.510759 
L 1351.93814 167.781446 
L 1353.176398 164.113907 
L 1354.414655 158.895988 
L 1355.652912 152.092877 
L 1358.129427 136.257164 
L 1359.367684 131.692562 
L 1360.605941 133.374482 
L 1361.844198 142.294832 
L 1363.082456 157.229602 
L 1364.320713 174.907587 
L 1365.55897 189.525858 
L 1366.797228 195.468846 
L 1368.035485 191.222063 
L 1369.273742 179.795075 
L 1370.511999 166.791221 
L 1371.750257 157.610552 
L 1372.988514 154.481304 
L 1374.226771 156.558405 
L 1375.465028 162.075694 
L 1376.703286 168.216534 
L 1377.941543 170.81387 
L 1379.1798 166.605537 
L 1380.418057 155.426069 
L 1381.656315 140.575451 
L 1382.894572 127.47857 
L 1384.132829 121.574547 
L 1385.371087 126.084794 
L 1386.609344 139.292749 
L 1387.847601 155.195217 
L 1389.085858 169.021763 
L 1390.324116 180.128445 
L 1391.562373 189.286129 
L 1392.80063 196.482453 
L 1394.038887 201.842976 
L 1395.277145 206.022876 
L 1396.515402 209.331775 
L 1397.753659 211.421042 
L 1398.991916 210.590618 
L 1400.230174 203.661778 
L 1401.468431 189.374597 
L 1402.706688 171.975883 
L 1403.944946 158.194926 
L 1405.183203 150.317292 
L 1406.42146 145.459739 
L 1407.659717 141.443385 
L 1408.897975 140.379744 
L 1410.136232 145.611633 
L 1412.612746 167.554449 
L 1413.851004 173.914533 
L 1415.089261 173.537723 
L 1417.565775 163.448043 
L 1418.804033 162.185039 
L 1420.04229 165.442648 
L 1421.280547 170.132691 
L 1422.518805 172.26035 
L 1423.757062 171.638108 
L 1424.995319 171.949727 
L 1426.233576 175.842329 
L 1427.471834 182.615241 
L 1428.710091 190.070191 
L 1429.948348 196.365623 
L 1431.186605 200.949911 
L 1432.424863 204.035458 
L 1433.66312 204.605385 
L 1434.901377 200.762456 
L 1436.139634 191.429145 
L 1437.377892 175.738898 
L 1438.616149 153.684461 
L 1439.854406 128.961757 
L 1441.092664 108.552695 
L 1442.330921 98.749082 
L 1443.569178 101.874689 
L 1444.807435 115.771674 
L 1447.28395 156.292136 
L 1448.522207 173.048245 
L 1449.760464 182.611064 
L 1450.998722 184.463322 
L 1452.236979 180.292296 
L 1453.475236 171.469602 
L 1454.713494 158.404815 
L 1455.951751 141.539164 
L 1457.190008 122.480966 
L 1458.428265 105.233699 
L 1459.666523 94.945164 
L 1460.90478 94.514461 
L 1462.143037 103.216591 
L 1465.857809 144.312529 
L 1467.096066 154.307481 
L 1468.334323 162.107991 
L 1469.572581 166.839014 
L 1470.810838 167.174618 
L 1472.049095 162.422135 
L 1473.287353 153.444532 
L 1475.763867 130.810784 
L 1477.002124 123.583117 
L 1478.240382 123.291357 
L 1479.478639 129.481533 
L 1480.716896 139.118605 
L 1481.955153 147.526074 
L 1483.193411 150.087498 
L 1484.431668 145.180483 
L 1485.669925 133.744606 
L 1486.908182 117.327937 
L 1488.14644 99.173586 
L 1489.384697 85.240052 
L 1490.622954 81.373095 
L 1491.861212 88.983443 
L 1493.099469 103.326085 
L 1494.337726 116.128438 
L 1495.575983 120.634821 
L 1496.814241 115.374865 
L 1498.052498 104.689837 
L 1499.290755 95.33602 
L 1500.529012 91.640944 
L 1501.76727 93.766023 
L 1504.243784 104.877362 
L 1505.482041 108.500885 
L 1506.720299 109.680471 
L 1507.958556 110.200381 
L 1509.196813 113.508062 
L 1510.435071 122.548647 
L 1512.911585 150.352687 
L 1514.149842 158.042885 
L 1515.3881 156.86767 
L 1516.626357 148.33803 
L 1517.864614 137.321036 
L 1519.102871 129.631522 
L 1520.341129 128.757636 
L 1521.579386 134.126116 
L 1522.817643 141.893142 
L 1524.0559 147.048548 
L 1525.294158 145.137881 
L 1526.532415 133.892525 
L 1529.00893 96.125195 
L 1530.247187 84.774972 
L 1531.485444 86.406162 
L 1532.723701 99.413575 
L 1533.961959 117.170849 
L 1535.200216 132.596067 
L 1536.438473 141.540321 
L 1537.67673 143.168505 
L 1538.914988 138.548147 
L 1540.153245 130.553659 
L 1541.391502 124.632279 
L 1542.62976 126.35899 
L 1543.868017 135.957458 
L 1545.106274 146.876407 
L 1546.344531 151.203516 
L 1547.582789 145.195347 
L 1548.821046 130.746992 
L 1550.059303 113.550719 
L 1551.29756 98.374977 
L 1552.535818 86.069303 
L 1553.774075 77.063278 
L 1555.012332 75.351309 
L 1556.250589 85.10524 
L 1557.488847 104.930879 
L 1558.727104 128.169897 
L 1559.965361 147.892177 
L 1561.203619 160.759943 
L 1562.441876 166.497715 
L 1563.680133 164.889066 
L 1564.91839 155.58472 
L 1567.394905 127.623725 
L 1568.633162 120.280774 
L 1569.871419 118.861623 
L 1571.109677 120.17158 
L 1572.347934 123.059657 
L 1573.586191 128.467136 
L 1574.824448 137.074443 
L 1577.300963 159.657716 
L 1578.53922 167.015425 
L 1579.777478 168.408668 
L 1581.015735 166.177032 
L 1582.253992 164.980061 
L 1583.492249 167.596888 
L 1584.730507 172.723062 
L 1585.968764 176.311478 
L 1587.207021 174.551147 
L 1588.445278 166.518946 
L 1593.398307 118.176126 
L 1594.636565 104.116584 
L 1597.113079 71.114313 
L 1598.351337 60.978629 
L 1599.589594 58.136541 
L 1600.827851 61.074316 
L 1602.066108 68.616185 
L 1603.304366 80.195559 
L 1607.019137 121.443418 
L 1608.257395 133.781042 
L 1609.495652 142.530897 
L 1610.733909 145.205504 
L 1611.972166 141.816512 
L 1613.210424 134.072774 
L 1614.448681 123.941016 
L 1615.686938 111.983062 
L 1618.163453 83.971737 
L 1619.40171 73.620902 
L 1620.639967 67.696474 
L 1621.878225 63.298538 
L 1623.116482 57.618178 
L 1624.354739 51.339853 
L 1625.592996 47.979282 
L 1626.831254 50.140478 
L 1628.069511 56.499539 
L 1629.307768 63.672156 
L 1630.546026 70.09702 
L 1631.784283 74.873833 
L 1633.02254 75.511103 
L 1634.260797 70.770371 
L 1635.499055 63.156494 
L 1636.737312 56.858524 
L 1637.975569 54.993333 
L 1639.213826 57.738141 
L 1640.452084 61.974753 
L 1641.690341 65.12326 
L 1641.690341 65.12326 
" style="fill:none;stroke:#008000;stroke-linecap:square;stroke-width:1.5;"/>
   </g>
   <g id="patch_3">
    <path d="M 43.78125 586.86358 
L 43.78125 22.318125 
" style="fill:none;stroke:#000000;stroke-linecap:square;stroke-linejoin:miter;stroke-width:0.8;"/>
   </g>
   <g id="patch_4">
    <path d="M 1717.78125 586.86358 
L 1717.78125 22.318125 
" style="fill:none;stroke:#000000;stroke-linecap:square;stroke-linejoin:miter;stroke-width:0.8;"/>
   </g>
   <g id="patch_5">
    <path d="M 43.78125 586.86358 
L 1717.78125 586.86358 
" style="fill:none;stroke:#000000;stroke-linecap:square;stroke-linejoin:miter;stroke-width:0.8;"/>
   </g>
   <g id="patch_6">
    <path d="M 43.78125 22.318125 
L 1717.78125 22.318125 
" style="fill:none;stroke:#000000;stroke-linecap:square;stroke-linejoin:miter;stroke-width:0.8;"/>
   </g>
   <g id="text_19">
    <!-- before binarisation -->
    <g transform="translate(824.1825 16.318125)scale(0.12 -0.12)">
     <defs>
      <path d="M 3116 1747 
Q 3116 2381 2855 2742 
Q 2594 3103 2138 3103 
Q 1681 3103 1420 2742 
Q 1159 2381 1159 1747 
Q 1159 1113 1420 752 
Q 1681 391 2138 391 
Q 2594 391 2855 752 
Q 3116 1113 3116 1747 
z
M 1159 2969 
Q 1341 3281 1617 3432 
Q 1894 3584 2278 3584 
Q 2916 3584 3314 3078 
Q 3713 2572 3713 1747 
Q 3713 922 3314 415 
Q 2916 -91 2278 -91 
Q 1894 -91 1617 61 
Q 1341 213 1159 525 
L 1159 0 
L 581 0 
L 581 4863 
L 1159 4863 
L 1159 2969 
z
" id="DejaVuSans-62" transform="scale(0.015625)"/>
      <path d="M 1959 3097 
Q 1497 3097 1228 2736 
Q 959 2375 959 1747 
Q 959 1119 1226 758 
Q 1494 397 1959 397 
Q 2419 397 2687 759 
Q 2956 1122 2956 1747 
Q 2956 2369 2687 2733 
Q 2419 3097 1959 3097 
z
M 1959 3584 
Q 2709 3584 3137 3096 
Q 3566 2609 3566 1747 
Q 3566 888 3137 398 
Q 2709 -91 1959 -91 
Q 1206 -91 779 398 
Q 353 888 353 1747 
Q 353 2609 779 3096 
Q 1206 3584 1959 3584 
z
" id="DejaVuSans-6f" transform="scale(0.015625)"/>
      <path id="DejaVuSans-20" transform="scale(0.015625)"/>
      <path d="M 603 3500 
L 1178 3500 
L 1178 0 
L 603 0 
L 603 3500 
z
M 603 4863 
L 1178 4863 
L 1178 4134 
L 603 4134 
L 603 4863 
z
" id="DejaVuSans-69" transform="scale(0.015625)"/>
      <path d="M 3513 2113 
L 3513 0 
L 2938 0 
L 2938 2094 
Q 2938 2591 2744 2837 
Q 2550 3084 2163 3084 
Q 1697 3084 1428 2787 
Q 1159 2491 1159 1978 
L 1159 0 
L 581 0 
L 581 3500 
L 1159 3500 
L 1159 2956 
Q 1366 3272 1645 3428 
Q 1925 3584 2291 3584 
Q 2894 3584 3203 3211 
Q 3513 2838 3513 2113 
z
" id="DejaVuSans-6e" transform="scale(0.015625)"/>
      <path d="M 2834 3397 
L 2834 2853 
Q 2591 2978 2328 3040 
Q 2066 3103 1784 3103 
Q 1356 3103 1142 2972 
Q 928 2841 928 2578 
Q 928 2378 1081 2264 
Q 1234 2150 1697 2047 
L 1894 2003 
Q 2506 1872 2764 1633 
Q 3022 1394 3022 966 
Q 3022 478 2636 193 
Q 2250 -91 1575 -91 
Q 1294 -91 989 -36 
Q 684 19 347 128 
L 347 722 
Q 666 556 975 473 
Q 1284 391 1588 391 
Q 1994 391 2212 530 
Q 2431 669 2431 922 
Q 2431 1156 2273 1281 
Q 2116 1406 1581 1522 
L 1381 1569 
Q 847 1681 609 1914 
Q 372 2147 372 2553 
Q 372 3047 722 3315 
Q 1072 3584 1716 3584 
Q 2034 3584 2315 3537 
Q 2597 3491 2834 3397 
z
" id="DejaVuSans-73" transform="scale(0.015625)"/>
      <path d="M 1172 4494 
L 1172 3500 
L 2356 3500 
L 2356 3053 
L 1172 3053 
L 1172 1153 
Q 1172 725 1289 603 
Q 1406 481 1766 481 
L 2356 481 
L 2356 0 
L 1766 0 
Q 1100 0 847 248 
Q 594 497 594 1153 
L 594 3053 
L 172 3053 
L 172 3500 
L 594 3500 
L 594 4494 
L 1172 4494 
z
" id="DejaVuSans-74" transform="scale(0.015625)"/>
     </defs>
     <use xlink:href="#DejaVuSans-62"/>
     <use x="63.476562" xlink:href="#DejaVuSans-65"/>
     <use x="125" xlink:href="#DejaVuSans-66"/>
     <use x="160.205078" xlink:href="#DejaVuSans-6f"/>
     <use x="221.386719" xlink:href="#DejaVuSans-72"/>
     <use x="260.25" xlink:href="#DejaVuSans-65"/>
     <use x="321.773438" xlink:href="#DejaVuSans-20"/>
     <use x="353.560547" xlink:href="#DejaVuSans-62"/>
     <use x="417.037109" xlink:href="#DejaVuSans-69"/>
     <use x="444.820312" xlink:href="#DejaVuSans-6e"/>
     <use x="508.199219" xlink:href="#DejaVuSans-61"/>
     <use x="569.478516" xlink:href="#DejaVuSans-72"/>
     <use x="610.591797" xlink:href="#DejaVuSans-69"/>
     <use x="638.375" xlink:href="#DejaVuSans-73"/>
     <use x="690.474609" xlink:href="#DejaVuSans-61"/>
     <use x="751.753906" xlink:href="#DejaVuSans-74"/>
     <use x="790.962891" xlink:href="#DejaVuSans-69"/>
     <use x="818.746094" xlink:href="#DejaVuSans-6f"/>
     <use x="879.927734" xlink:href="#DejaVuSans-6e"/>
    </g>
   </g>
  </g>
  <g id="axes_2">
   <g id="patch_7">
    <path d="M 43.78125 1264.318125 
L 1717.78125 1264.318125 
L 1717.78125 699.77267 
L 43.78125 699.77267 
z
" style="fill:#ffffff;"/>
   </g>
   <g id="matplotlib.axis_3">
    <g id="xtick_8">
     <g id="line2d_18">
      <g>
       <use style="stroke:#000000;stroke-width:0.8;" x="119.872159" xlink:href="#md9a355e191" y="1264.318125"/>
      </g>
     </g>
     <g id="text_20">
      <!-- 0 -->
      <g transform="translate(116.690909 1278.916563)scale(0.1 -0.1)">
       <use xlink:href="#DejaVuSans-30"/>
      </g>
     </g>
    </g>
    <g id="xtick_9">
     <g id="line2d_19">
      <g>
       <use style="stroke:#000000;stroke-width:0.8;" x="367.523613" xlink:href="#md9a355e191" y="1264.318125"/>
      </g>
     </g>
     <g id="text_21">
      <!-- 200 -->
      <g transform="translate(357.979863 1278.916563)scale(0.1 -0.1)">
       <use xlink:href="#DejaVuSans-32"/>
       <use x="63.623047" xlink:href="#DejaVuSans-30"/>
       <use x="127.246094" xlink:href="#DejaVuSans-30"/>
      </g>
     </g>
    </g>
    <g id="xtick_10">
     <g id="line2d_20">
      <g>
       <use style="stroke:#000000;stroke-width:0.8;" x="615.175066" xlink:href="#md9a355e191" y="1264.318125"/>
      </g>
     </g>
     <g id="text_22">
      <!-- 400 -->
      <g transform="translate(605.631316 1278.916563)scale(0.1 -0.1)">
       <use xlink:href="#DejaVuSans-34"/>
       <use x="63.623047" xlink:href="#DejaVuSans-30"/>
       <use x="127.246094" xlink:href="#DejaVuSans-30"/>
      </g>
     </g>
    </g>
    <g id="xtick_11">
     <g id="line2d_21">
      <g>
       <use style="stroke:#000000;stroke-width:0.8;" x="862.82652" xlink:href="#md9a355e191" y="1264.318125"/>
      </g>
     </g>
     <g id="text_23">
      <!-- 600 -->
      <g transform="translate(853.28277 1278.916563)scale(0.1 -0.1)">
       <use xlink:href="#DejaVuSans-36"/>
       <use x="63.623047" xlink:href="#DejaVuSans-30"/>
       <use x="127.246094" xlink:href="#DejaVuSans-30"/>
      </g>
     </g>
    </g>
    <g id="xtick_12">
     <g id="line2d_22">
      <g>
       <use style="stroke:#000000;stroke-width:0.8;" x="1110.477973" xlink:href="#md9a355e191" y="1264.318125"/>
      </g>
     </g>
     <g id="text_24">
      <!-- 800 -->
      <g transform="translate(1100.934223 1278.916563)scale(0.1 -0.1)">
       <use xlink:href="#DejaVuSans-38"/>
       <use x="63.623047" xlink:href="#DejaVuSans-30"/>
       <use x="127.246094" xlink:href="#DejaVuSans-30"/>
      </g>
     </g>
    </g>
    <g id="xtick_13">
     <g id="line2d_23">
      <g>
       <use style="stroke:#000000;stroke-width:0.8;" x="1358.129427" xlink:href="#md9a355e191" y="1264.318125"/>
      </g>
     </g>
     <g id="text_25">
      <!-- 1000 -->
      <g transform="translate(1345.404427 1278.916563)scale(0.1 -0.1)">
       <use xlink:href="#DejaVuSans-31"/>
       <use x="63.623047" xlink:href="#DejaVuSans-30"/>
       <use x="127.246094" xlink:href="#DejaVuSans-30"/>
       <use x="190.869141" xlink:href="#DejaVuSans-30"/>
      </g>
     </g>
    </g>
    <g id="xtick_14">
     <g id="line2d_24">
      <g>
       <use style="stroke:#000000;stroke-width:0.8;" x="1605.78088" xlink:href="#md9a355e191" y="1264.318125"/>
      </g>
     </g>
     <g id="text_26">
      <!-- 1200 -->
      <g transform="translate(1593.05588 1278.916563)scale(0.1 -0.1)">
       <use xlink:href="#DejaVuSans-31"/>
       <use x="63.623047" xlink:href="#DejaVuSans-32"/>
       <use x="127.246094" xlink:href="#DejaVuSans-30"/>
       <use x="190.869141" xlink:href="#DejaVuSans-30"/>
      </g>
     </g>
    </g>
    <g id="text_27">
     <!-- frame -->
     <g transform="translate(865.954687 1292.594688)scale(0.1 -0.1)">
      <use xlink:href="#DejaVuSans-66"/>
      <use x="35.205078" xlink:href="#DejaVuSans-72"/>
      <use x="76.318359" xlink:href="#DejaVuSans-61"/>
      <use x="137.597656" xlink:href="#DejaVuSans-6d"/>
      <use x="235.009766" xlink:href="#DejaVuSans-65"/>
     </g>
    </g>
   </g>
   <g id="matplotlib.axis_4">
    <g id="ytick_10">
     <g id="line2d_25">
      <g>
       <use style="stroke:#000000;stroke-width:0.8;" x="43.78125" xlink:href="#mf2c870952a" y="1238.656968"/>
      </g>
     </g>
     <g id="text_28">
      <!-- 0.0 -->
      <g transform="translate(20.878125 1242.456187)scale(0.1 -0.1)">
       <use xlink:href="#DejaVuSans-30"/>
       <use x="63.623047" xlink:href="#DejaVuSans-2e"/>
       <use x="95.410156" xlink:href="#DejaVuSans-30"/>
      </g>
     </g>
    </g>
    <g id="ytick_11">
     <g id="line2d_26">
      <g>
       <use style="stroke:#000000;stroke-width:0.8;" x="43.78125" xlink:href="#mf2c870952a" y="1136.01234"/>
      </g>
     </g>
     <g id="text_29">
      <!-- 0.2 -->
      <g transform="translate(20.878125 1139.811559)scale(0.1 -0.1)">
       <use xlink:href="#DejaVuSans-30"/>
       <use x="63.623047" xlink:href="#DejaVuSans-2e"/>
       <use x="95.410156" xlink:href="#DejaVuSans-32"/>
      </g>
     </g>
    </g>
    <g id="ytick_12">
     <g id="line2d_27">
      <g>
       <use style="stroke:#000000;stroke-width:0.8;" x="43.78125" xlink:href="#mf2c870952a" y="1033.367712"/>
      </g>
     </g>
     <g id="text_30">
      <!-- 0.4 -->
      <g transform="translate(20.878125 1037.166931)scale(0.1 -0.1)">
       <use xlink:href="#DejaVuSans-30"/>
       <use x="63.623047" xlink:href="#DejaVuSans-2e"/>
       <use x="95.410156" xlink:href="#DejaVuSans-34"/>
      </g>
     </g>
    </g>
    <g id="ytick_13">
     <g id="line2d_28">
      <g>
       <use style="stroke:#000000;stroke-width:0.8;" x="43.78125" xlink:href="#mf2c870952a" y="930.723084"/>
      </g>
     </g>
     <g id="text_31">
      <!-- 0.6 -->
      <g transform="translate(20.878125 934.522302)scale(0.1 -0.1)">
       <use xlink:href="#DejaVuSans-30"/>
       <use x="63.623047" xlink:href="#DejaVuSans-2e"/>
       <use x="95.410156" xlink:href="#DejaVuSans-36"/>
      </g>
     </g>
    </g>
    <g id="ytick_14">
     <g id="line2d_29">
      <g>
       <use style="stroke:#000000;stroke-width:0.8;" x="43.78125" xlink:href="#mf2c870952a" y="828.078456"/>
      </g>
     </g>
     <g id="text_32">
      <!-- 0.8 -->
      <g transform="translate(20.878125 831.877674)scale(0.1 -0.1)">
       <use xlink:href="#DejaVuSans-30"/>
       <use x="63.623047" xlink:href="#DejaVuSans-2e"/>
       <use x="95.410156" xlink:href="#DejaVuSans-38"/>
      </g>
     </g>
    </g>
    <g id="ytick_15">
     <g id="line2d_30">
      <g>
       <use style="stroke:#000000;stroke-width:0.8;" x="43.78125" xlink:href="#mf2c870952a" y="725.433827"/>
      </g>
     </g>
     <g id="text_33">
      <!-- 1.0 -->
      <g transform="translate(20.878125 729.233046)scale(0.1 -0.1)">
       <use xlink:href="#DejaVuSans-31"/>
       <use x="63.623047" xlink:href="#DejaVuSans-2e"/>
       <use x="95.410156" xlink:href="#DejaVuSans-30"/>
      </g>
     </g>
    </g>
    <g id="text_34">
     <!-- GCaMP -->
     <g transform="translate(14.798437 999.803991)rotate(-90)scale(0.1 -0.1)">
      <use xlink:href="#DejaVuSans-47"/>
      <use x="77.490234" xlink:href="#DejaVuSans-43"/>
      <use x="147.314453" xlink:href="#DejaVuSans-61"/>
      <use x="208.59375" xlink:href="#DejaVuSans-4d"/>
      <use x="294.873047" xlink:href="#DejaVuSans-50"/>
     </g>
    </g>
   </g>
   <g id="line2d_31">
    <path clip-path="url(#pfeb8251447)" d="M 119.872159 1238.656968 
L 1268.974903 1238.656968 
L 1270.213161 725.433827 
L 1278.880962 725.433827 
L 1280.119219 1238.656968 
L 1296.216563 1238.656968 
L 1297.454821 725.433827 
L 1327.172995 725.433827 
L 1328.411252 1238.656968 
L 1332.126024 1238.656968 
L 1333.364281 725.433827 
L 1363.082456 725.433827 
L 1364.320713 1238.656968 
L 1369.273742 1238.656968 
L 1370.511999 725.433827 
L 1389.085858 725.433827 
L 1390.324116 1238.656968 
L 1401.468431 1238.656968 
L 1402.706688 725.433827 
L 1412.612746 725.433827 
L 1413.851004 1238.656968 
L 1415.089261 1238.656968 
L 1416.327518 725.433827 
L 1424.995319 725.433827 
L 1426.233576 1238.656968 
L 1437.377892 1238.656968 
L 1438.616149 725.433827 
L 1447.28395 725.433827 
L 1448.522207 1238.656968 
L 1452.236979 1238.656968 
L 1453.475236 725.433827 
L 1583.492249 725.433827 
L 1584.730507 1238.656968 
L 1587.207021 1238.656968 
L 1588.445278 725.433827 
L 1641.690341 725.433827 
L 1641.690341 725.433827 
" style="fill:none;stroke:#008000;stroke-linecap:square;stroke-width:1.5;"/>
   </g>
   <g id="patch_8">
    <path d="M 43.78125 1264.318125 
L 43.78125 699.77267 
" style="fill:none;stroke:#000000;stroke-linecap:square;stroke-linejoin:miter;stroke-width:0.8;"/>
   </g>
   <g id="patch_9">
    <path d="M 1717.78125 1264.318125 
L 1717.78125 699.77267 
" style="fill:none;stroke:#000000;stroke-linecap:square;stroke-linejoin:miter;stroke-width:0.8;"/>
   </g>
   <g id="patch_10">
    <path d="M 43.78125 1264.318125 
L 1717.78125 1264.318125 
" style="fill:none;stroke:#000000;stroke-linecap:square;stroke-linejoin:miter;stroke-width:0.8;"/>
   </g>
   <g id="patch_11">
    <path d="M 43.78125 699.77267 
L 1717.78125 699.77267 
" style="fill:none;stroke:#000000;stroke-linecap:square;stroke-linejoin:miter;stroke-width:0.8;"/>
   </g>
   <g id="text_35">
    <!-- before binarisation -->
    <g transform="translate(824.1825 693.77267)scale(0.12 -0.12)">
     <use xlink:href="#DejaVuSans-62"/>
     <use x="63.476562" xlink:href="#DejaVuSans-65"/>
     <use x="125" xlink:href="#DejaVuSans-66"/>
     <use x="160.205078" xlink:href="#DejaVuSans-6f"/>
     <use x="221.386719" xlink:href="#DejaVuSans-72"/>
     <use x="260.25" xlink:href="#DejaVuSans-65"/>
     <use x="321.773438" xlink:href="#DejaVuSans-20"/>
     <use x="353.560547" xlink:href="#DejaVuSans-62"/>
     <use x="417.037109" xlink:href="#DejaVuSans-69"/>
     <use x="444.820312" xlink:href="#DejaVuSans-6e"/>
     <use x="508.199219" xlink:href="#DejaVuSans-61"/>
     <use x="569.478516" xlink:href="#DejaVuSans-72"/>
     <use x="610.591797" xlink:href="#DejaVuSans-69"/>
     <use x="638.375" xlink:href="#DejaVuSans-73"/>
     <use x="690.474609" xlink:href="#DejaVuSans-61"/>
     <use x="751.753906" xlink:href="#DejaVuSans-74"/>
     <use x="790.962891" xlink:href="#DejaVuSans-69"/>
     <use x="818.746094" xlink:href="#DejaVuSans-6f"/>
     <use x="879.927734" xlink:href="#DejaVuSans-6e"/>
    </g>
   </g>
  </g>
 </g>
 <defs>
  <clipPath id="p8fb0f99ffd">
   <rect height="564.545455" width="1674" x="43.78125" y="22.318125"/>
  </clipPath>
  <clipPath id="pfeb8251447">
   <rect height="564.545455" width="1674" x="43.78125" y="699.77267"/>
  </clipPath>
 </defs>
</svg>
