<?xml version="1.0" encoding="utf-8" standalone="no"?>
<!DOCTYPE svg PUBLIC "-//W3C//DTD SVG 1.1//EN"
  "http://www.w3.org/Graphics/SVG/1.1/DTD/svg11.dtd">
<svg height="1301.874375pt" version="1.1" viewBox="0 0 1724.98125 1301.874375" width="1724.98125pt" xmlns="http://www.w3.org/2000/svg" xmlns:xlink="http://www.w3.org/1999/xlink">
 <metadata>
  <rdf:RDF xmlns:cc="http://creativecommons.org/ns#" xmlns:dc="http://purl.org/dc/elements/1.1/" xmlns:rdf="http://www.w3.org/1999/02/22-rdf-syntax-ns#">
   <cc:Work>
    <dc:type rdf:resource="http://purl.org/dc/dcmitype/StillImage"/>
    <dc:date>2022-07-24T15:54:29.566418</dc:date>
    <dc:format>image/svg+xml</dc:format>
    <dc:creator>
     <cc:Agent>
      <dc:title>Matplotlib v3.4.2, https://matplotlib.org/</dc:title>
     </cc:Agent>
    </dc:creator>
   </cc:Work>
  </rdf:RDF>
 </metadata>
 <defs>
  <style type="text/css">*{stroke-linecap:butt;stroke-linejoin:round;}</style>
 </defs>
 <g id="figure_1">
  <g id="patch_1">
   <path d="M 0 1301.874375 
L 1724.98125 1301.874375 
L 1724.98125 0 
L 0 0 
z
" style="fill:#ffffff;"/>
  </g>
  <g id="axes_1">
   <g id="patch_2">
    <path d="M 43.78125 586.86358 
L 1717.78125 586.86358 
L 1717.78125 22.318125 
L 43.78125 22.318125 
z
" style="fill:#ffffff;"/>
   </g>
   <g id="matplotlib.axis_1">
    <g id="xtick_1">
     <g id="line2d_1">
      <defs>
       <path d="M 0 0 
L 0 3.5 
" id="ma708c4b8b6" style="stroke:#000000;stroke-width:0.8;"/>
      </defs>
      <g>
       <use style="stroke:#000000;stroke-width:0.8;" x="119.872159" xlink:href="#ma708c4b8b6" y="586.86358"/>
      </g>
     </g>
     <g id="text_1">
      <!-- 0 -->
      <g transform="translate(116.690909 601.462017)scale(0.1 -0.1)">
       <defs>
        <path d="M 2034 4250 
Q 1547 4250 1301 3770 
Q 1056 3291 1056 2328 
Q 1056 1369 1301 889 
Q 1547 409 2034 409 
Q 2525 409 2770 889 
Q 3016 1369 3016 2328 
Q 3016 3291 2770 3770 
Q 2525 4250 2034 4250 
z
M 2034 4750 
Q 2819 4750 3233 4129 
Q 3647 3509 3647 2328 
Q 3647 1150 3233 529 
Q 2819 -91 2034 -91 
Q 1250 -91 836 529 
Q 422 1150 422 2328 
Q 422 3509 836 4129 
Q 1250 4750 2034 4750 
z
" id="DejaVuSans-30" transform="scale(0.015625)"/>
       </defs>
       <use xlink:href="#DejaVuSans-30"/>
      </g>
     </g>
    </g>
    <g id="xtick_2">
     <g id="line2d_2">
      <g>
       <use style="stroke:#000000;stroke-width:0.8;" x="367.523613" xlink:href="#ma708c4b8b6" y="586.86358"/>
      </g>
     </g>
     <g id="text_2">
      <!-- 200 -->
      <g transform="translate(357.979863 601.462017)scale(0.1 -0.1)">
       <defs>
        <path d="M 1228 531 
L 3431 531 
L 3431 0 
L 469 0 
L 469 531 
Q 828 903 1448 1529 
Q 2069 2156 2228 2338 
Q 2531 2678 2651 2914 
Q 2772 3150 2772 3378 
Q 2772 3750 2511 3984 
Q 2250 4219 1831 4219 
Q 1534 4219 1204 4116 
Q 875 4013 500 3803 
L 500 4441 
Q 881 4594 1212 4672 
Q 1544 4750 1819 4750 
Q 2544 4750 2975 4387 
Q 3406 4025 3406 3419 
Q 3406 3131 3298 2873 
Q 3191 2616 2906 2266 
Q 2828 2175 2409 1742 
Q 1991 1309 1228 531 
z
" id="DejaVuSans-32" transform="scale(0.015625)"/>
       </defs>
       <use xlink:href="#DejaVuSans-32"/>
       <use x="63.623047" xlink:href="#DejaVuSans-30"/>
       <use x="127.246094" xlink:href="#DejaVuSans-30"/>
      </g>
     </g>
    </g>
    <g id="xtick_3">
     <g id="line2d_3">
      <g>
       <use style="stroke:#000000;stroke-width:0.8;" x="615.175066" xlink:href="#ma708c4b8b6" y="586.86358"/>
      </g>
     </g>
     <g id="text_3">
      <!-- 400 -->
      <g transform="translate(605.631316 601.462017)scale(0.1 -0.1)">
       <defs>
        <path d="M 2419 4116 
L 825 1625 
L 2419 1625 
L 2419 4116 
z
M 2253 4666 
L 3047 4666 
L 3047 1625 
L 3713 1625 
L 3713 1100 
L 3047 1100 
L 3047 0 
L 2419 0 
L 2419 1100 
L 313 1100 
L 313 1709 
L 2253 4666 
z
" id="DejaVuSans-34" transform="scale(0.015625)"/>
       </defs>
       <use xlink:href="#DejaVuSans-34"/>
       <use x="63.623047" xlink:href="#DejaVuSans-30"/>
       <use x="127.246094" xlink:href="#DejaVuSans-30"/>
      </g>
     </g>
    </g>
    <g id="xtick_4">
     <g id="line2d_4">
      <g>
       <use style="stroke:#000000;stroke-width:0.8;" x="862.82652" xlink:href="#ma708c4b8b6" y="586.86358"/>
      </g>
     </g>
     <g id="text_4">
      <!-- 600 -->
      <g transform="translate(853.28277 601.462017)scale(0.1 -0.1)">
       <defs>
        <path d="M 2113 2584 
Q 1688 2584 1439 2293 
Q 1191 2003 1191 1497 
Q 1191 994 1439 701 
Q 1688 409 2113 409 
Q 2538 409 2786 701 
Q 3034 994 3034 1497 
Q 3034 2003 2786 2293 
Q 2538 2584 2113 2584 
z
M 3366 4563 
L 3366 3988 
Q 3128 4100 2886 4159 
Q 2644 4219 2406 4219 
Q 1781 4219 1451 3797 
Q 1122 3375 1075 2522 
Q 1259 2794 1537 2939 
Q 1816 3084 2150 3084 
Q 2853 3084 3261 2657 
Q 3669 2231 3669 1497 
Q 3669 778 3244 343 
Q 2819 -91 2113 -91 
Q 1303 -91 875 529 
Q 447 1150 447 2328 
Q 447 3434 972 4092 
Q 1497 4750 2381 4750 
Q 2619 4750 2861 4703 
Q 3103 4656 3366 4563 
z
" id="DejaVuSans-36" transform="scale(0.015625)"/>
       </defs>
       <use xlink:href="#DejaVuSans-36"/>
       <use x="63.623047" xlink:href="#DejaVuSans-30"/>
       <use x="127.246094" xlink:href="#DejaVuSans-30"/>
      </g>
     </g>
    </g>
    <g id="xtick_5">
     <g id="line2d_5">
      <g>
       <use style="stroke:#000000;stroke-width:0.8;" x="1110.477973" xlink:href="#ma708c4b8b6" y="586.86358"/>
      </g>
     </g>
     <g id="text_5">
      <!-- 800 -->
      <g transform="translate(1100.934223 601.462017)scale(0.1 -0.1)">
       <defs>
        <path d="M 2034 2216 
Q 1584 2216 1326 1975 
Q 1069 1734 1069 1313 
Q 1069 891 1326 650 
Q 1584 409 2034 409 
Q 2484 409 2743 651 
Q 3003 894 3003 1313 
Q 3003 1734 2745 1975 
Q 2488 2216 2034 2216 
z
M 1403 2484 
Q 997 2584 770 2862 
Q 544 3141 544 3541 
Q 544 4100 942 4425 
Q 1341 4750 2034 4750 
Q 2731 4750 3128 4425 
Q 3525 4100 3525 3541 
Q 3525 3141 3298 2862 
Q 3072 2584 2669 2484 
Q 3125 2378 3379 2068 
Q 3634 1759 3634 1313 
Q 3634 634 3220 271 
Q 2806 -91 2034 -91 
Q 1263 -91 848 271 
Q 434 634 434 1313 
Q 434 1759 690 2068 
Q 947 2378 1403 2484 
z
M 1172 3481 
Q 1172 3119 1398 2916 
Q 1625 2713 2034 2713 
Q 2441 2713 2670 2916 
Q 2900 3119 2900 3481 
Q 2900 3844 2670 4047 
Q 2441 4250 2034 4250 
Q 1625 4250 1398 4047 
Q 1172 3844 1172 3481 
z
" id="DejaVuSans-38" transform="scale(0.015625)"/>
       </defs>
       <use xlink:href="#DejaVuSans-38"/>
       <use x="63.623047" xlink:href="#DejaVuSans-30"/>
       <use x="127.246094" xlink:href="#DejaVuSans-30"/>
      </g>
     </g>
    </g>
    <g id="xtick_6">
     <g id="line2d_6">
      <g>
       <use style="stroke:#000000;stroke-width:0.8;" x="1358.129427" xlink:href="#ma708c4b8b6" y="586.86358"/>
      </g>
     </g>
     <g id="text_6">
      <!-- 1000 -->
      <g transform="translate(1345.404427 601.462017)scale(0.1 -0.1)">
       <defs>
        <path d="M 794 531 
L 1825 531 
L 1825 4091 
L 703 3866 
L 703 4441 
L 1819 4666 
L 2450 4666 
L 2450 531 
L 3481 531 
L 3481 0 
L 794 0 
L 794 531 
z
" id="DejaVuSans-31" transform="scale(0.015625)"/>
       </defs>
       <use xlink:href="#DejaVuSans-31"/>
       <use x="63.623047" xlink:href="#DejaVuSans-30"/>
       <use x="127.246094" xlink:href="#DejaVuSans-30"/>
       <use x="190.869141" xlink:href="#DejaVuSans-30"/>
      </g>
     </g>
    </g>
    <g id="xtick_7">
     <g id="line2d_7">
      <g>
       <use style="stroke:#000000;stroke-width:0.8;" x="1605.78088" xlink:href="#ma708c4b8b6" y="586.86358"/>
      </g>
     </g>
     <g id="text_7">
      <!-- 1200 -->
      <g transform="translate(1593.05588 601.462017)scale(0.1 -0.1)">
       <use xlink:href="#DejaVuSans-31"/>
       <use x="63.623047" xlink:href="#DejaVuSans-32"/>
       <use x="127.246094" xlink:href="#DejaVuSans-30"/>
       <use x="190.869141" xlink:href="#DejaVuSans-30"/>
      </g>
     </g>
    </g>
    <g id="text_8">
     <!-- frame -->
     <g transform="translate(865.954687 615.140142)scale(0.1 -0.1)">
      <defs>
       <path d="M 2375 4863 
L 2375 4384 
L 1825 4384 
Q 1516 4384 1395 4259 
Q 1275 4134 1275 3809 
L 1275 3500 
L 2222 3500 
L 2222 3053 
L 1275 3053 
L 1275 0 
L 697 0 
L 697 3053 
L 147 3053 
L 147 3500 
L 697 3500 
L 697 3744 
Q 697 4328 969 4595 
Q 1241 4863 1831 4863 
L 2375 4863 
z
" id="DejaVuSans-66" transform="scale(0.015625)"/>
       <path d="M 2631 2963 
Q 2534 3019 2420 3045 
Q 2306 3072 2169 3072 
Q 1681 3072 1420 2755 
Q 1159 2438 1159 1844 
L 1159 0 
L 581 0 
L 581 3500 
L 1159 3500 
L 1159 2956 
Q 1341 3275 1631 3429 
Q 1922 3584 2338 3584 
Q 2397 3584 2469 3576 
Q 2541 3569 2628 3553 
L 2631 2963 
z
" id="DejaVuSans-72" transform="scale(0.015625)"/>
       <path d="M 2194 1759 
Q 1497 1759 1228 1600 
Q 959 1441 959 1056 
Q 959 750 1161 570 
Q 1363 391 1709 391 
Q 2188 391 2477 730 
Q 2766 1069 2766 1631 
L 2766 1759 
L 2194 1759 
z
M 3341 1997 
L 3341 0 
L 2766 0 
L 2766 531 
Q 2569 213 2275 61 
Q 1981 -91 1556 -91 
Q 1019 -91 701 211 
Q 384 513 384 1019 
Q 384 1609 779 1909 
Q 1175 2209 1959 2209 
L 2766 2209 
L 2766 2266 
Q 2766 2663 2505 2880 
Q 2244 3097 1772 3097 
Q 1472 3097 1187 3025 
Q 903 2953 641 2809 
L 641 3341 
Q 956 3463 1253 3523 
Q 1550 3584 1831 3584 
Q 2591 3584 2966 3190 
Q 3341 2797 3341 1997 
z
" id="DejaVuSans-61" transform="scale(0.015625)"/>
       <path d="M 3328 2828 
Q 3544 3216 3844 3400 
Q 4144 3584 4550 3584 
Q 5097 3584 5394 3201 
Q 5691 2819 5691 2113 
L 5691 0 
L 5113 0 
L 5113 2094 
Q 5113 2597 4934 2840 
Q 4756 3084 4391 3084 
Q 3944 3084 3684 2787 
Q 3425 2491 3425 1978 
L 3425 0 
L 2847 0 
L 2847 2094 
Q 2847 2600 2669 2842 
Q 2491 3084 2119 3084 
Q 1678 3084 1418 2786 
Q 1159 2488 1159 1978 
L 1159 0 
L 581 0 
L 581 3500 
L 1159 3500 
L 1159 2956 
Q 1356 3278 1631 3431 
Q 1906 3584 2284 3584 
Q 2666 3584 2933 3390 
Q 3200 3197 3328 2828 
z
" id="DejaVuSans-6d" transform="scale(0.015625)"/>
       <path d="M 3597 1894 
L 3597 1613 
L 953 1613 
Q 991 1019 1311 708 
Q 1631 397 2203 397 
Q 2534 397 2845 478 
Q 3156 559 3463 722 
L 3463 178 
Q 3153 47 2828 -22 
Q 2503 -91 2169 -91 
Q 1331 -91 842 396 
Q 353 884 353 1716 
Q 353 2575 817 3079 
Q 1281 3584 2069 3584 
Q 2775 3584 3186 3129 
Q 3597 2675 3597 1894 
z
M 3022 2063 
Q 3016 2534 2758 2815 
Q 2500 3097 2075 3097 
Q 1594 3097 1305 2825 
Q 1016 2553 972 2059 
L 3022 2063 
z
" id="DejaVuSans-65" transform="scale(0.015625)"/>
      </defs>
      <use xlink:href="#DejaVuSans-66"/>
      <use x="35.205078" xlink:href="#DejaVuSans-72"/>
      <use x="76.318359" xlink:href="#DejaVuSans-61"/>
      <use x="137.597656" xlink:href="#DejaVuSans-6d"/>
      <use x="235.009766" xlink:href="#DejaVuSans-65"/>
     </g>
    </g>
   </g>
   <g id="matplotlib.axis_2">
    <g id="ytick_1">
     <g id="line2d_8">
      <defs>
       <path d="M 0 0 
L -3.5 0 
" id="m5cc7270825" style="stroke:#000000;stroke-width:0.8;"/>
      </defs>
      <g>
       <use style="stroke:#000000;stroke-width:0.8;" x="43.78125" xlink:href="#m5cc7270825" y="529.172093"/>
      </g>
     </g>
     <g id="text_9">
      <!-- 0.6 -->
      <g transform="translate(20.878125 532.971312)scale(0.1 -0.1)">
       <defs>
        <path d="M 684 794 
L 1344 794 
L 1344 0 
L 684 0 
L 684 794 
z
" id="DejaVuSans-2e" transform="scale(0.015625)"/>
       </defs>
       <use xlink:href="#DejaVuSans-30"/>
       <use x="63.623047" xlink:href="#DejaVuSans-2e"/>
       <use x="95.410156" xlink:href="#DejaVuSans-36"/>
      </g>
     </g>
    </g>
    <g id="ytick_2">
     <g id="line2d_9">
      <g>
       <use style="stroke:#000000;stroke-width:0.8;" x="43.78125" xlink:href="#m5cc7270825" y="461.685553"/>
      </g>
     </g>
     <g id="text_10">
      <!-- 0.7 -->
      <g transform="translate(20.878125 465.484772)scale(0.1 -0.1)">
       <defs>
        <path d="M 525 4666 
L 3525 4666 
L 3525 4397 
L 1831 0 
L 1172 0 
L 2766 4134 
L 525 4134 
L 525 4666 
z
" id="DejaVuSans-37" transform="scale(0.015625)"/>
       </defs>
       <use xlink:href="#DejaVuSans-30"/>
       <use x="63.623047" xlink:href="#DejaVuSans-2e"/>
       <use x="95.410156" xlink:href="#DejaVuSans-37"/>
      </g>
     </g>
    </g>
    <g id="ytick_3">
     <g id="line2d_10">
      <g>
       <use style="stroke:#000000;stroke-width:0.8;" x="43.78125" xlink:href="#m5cc7270825" y="394.199013"/>
      </g>
     </g>
     <g id="text_11">
      <!-- 0.8 -->
      <g transform="translate(20.878125 397.998231)scale(0.1 -0.1)">
       <use xlink:href="#DejaVuSans-30"/>
       <use x="63.623047" xlink:href="#DejaVuSans-2e"/>
       <use x="95.410156" xlink:href="#DejaVuSans-38"/>
      </g>
     </g>
    </g>
    <g id="ytick_4">
     <g id="line2d_11">
      <g>
       <use style="stroke:#000000;stroke-width:0.8;" x="43.78125" xlink:href="#m5cc7270825" y="326.712472"/>
      </g>
     </g>
     <g id="text_12">
      <!-- 0.9 -->
      <g transform="translate(20.878125 330.511691)scale(0.1 -0.1)">
       <defs>
        <path d="M 703 97 
L 703 672 
Q 941 559 1184 500 
Q 1428 441 1663 441 
Q 2288 441 2617 861 
Q 2947 1281 2994 2138 
Q 2813 1869 2534 1725 
Q 2256 1581 1919 1581 
Q 1219 1581 811 2004 
Q 403 2428 403 3163 
Q 403 3881 828 4315 
Q 1253 4750 1959 4750 
Q 2769 4750 3195 4129 
Q 3622 3509 3622 2328 
Q 3622 1225 3098 567 
Q 2575 -91 1691 -91 
Q 1453 -91 1209 -44 
Q 966 3 703 97 
z
M 1959 2075 
Q 2384 2075 2632 2365 
Q 2881 2656 2881 3163 
Q 2881 3666 2632 3958 
Q 2384 4250 1959 4250 
Q 1534 4250 1286 3958 
Q 1038 3666 1038 3163 
Q 1038 2656 1286 2365 
Q 1534 2075 1959 2075 
z
" id="DejaVuSans-39" transform="scale(0.015625)"/>
       </defs>
       <use xlink:href="#DejaVuSans-30"/>
       <use x="63.623047" xlink:href="#DejaVuSans-2e"/>
       <use x="95.410156" xlink:href="#DejaVuSans-39"/>
      </g>
     </g>
    </g>
    <g id="ytick_5">
     <g id="line2d_12">
      <g>
       <use style="stroke:#000000;stroke-width:0.8;" x="43.78125" xlink:href="#m5cc7270825" y="259.225932"/>
      </g>
     </g>
     <g id="text_13">
      <!-- 1.0 -->
      <g transform="translate(20.878125 263.025151)scale(0.1 -0.1)">
       <use xlink:href="#DejaVuSans-31"/>
       <use x="63.623047" xlink:href="#DejaVuSans-2e"/>
       <use x="95.410156" xlink:href="#DejaVuSans-30"/>
      </g>
     </g>
    </g>
    <g id="ytick_6">
     <g id="line2d_13">
      <g>
       <use style="stroke:#000000;stroke-width:0.8;" x="43.78125" xlink:href="#m5cc7270825" y="191.739392"/>
      </g>
     </g>
     <g id="text_14">
      <!-- 1.1 -->
      <g transform="translate(20.878125 195.53861)scale(0.1 -0.1)">
       <use xlink:href="#DejaVuSans-31"/>
       <use x="63.623047" xlink:href="#DejaVuSans-2e"/>
       <use x="95.410156" xlink:href="#DejaVuSans-31"/>
      </g>
     </g>
    </g>
    <g id="ytick_7">
     <g id="line2d_14">
      <g>
       <use style="stroke:#000000;stroke-width:0.8;" x="43.78125" xlink:href="#m5cc7270825" y="124.252851"/>
      </g>
     </g>
     <g id="text_15">
      <!-- 1.2 -->
      <g transform="translate(20.878125 128.05207)scale(0.1 -0.1)">
       <use xlink:href="#DejaVuSans-31"/>
       <use x="63.623047" xlink:href="#DejaVuSans-2e"/>
       <use x="95.410156" xlink:href="#DejaVuSans-32"/>
      </g>
     </g>
    </g>
    <g id="ytick_8">
     <g id="line2d_15">
      <g>
       <use style="stroke:#000000;stroke-width:0.8;" x="43.78125" xlink:href="#m5cc7270825" y="56.766311"/>
      </g>
     </g>
     <g id="text_16">
      <!-- 1.3 -->
      <g transform="translate(20.878125 60.56553)scale(0.1 -0.1)">
       <defs>
        <path d="M 2597 2516 
Q 3050 2419 3304 2112 
Q 3559 1806 3559 1356 
Q 3559 666 3084 287 
Q 2609 -91 1734 -91 
Q 1441 -91 1130 -33 
Q 819 25 488 141 
L 488 750 
Q 750 597 1062 519 
Q 1375 441 1716 441 
Q 2309 441 2620 675 
Q 2931 909 2931 1356 
Q 2931 1769 2642 2001 
Q 2353 2234 1838 2234 
L 1294 2234 
L 1294 2753 
L 1863 2753 
Q 2328 2753 2575 2939 
Q 2822 3125 2822 3475 
Q 2822 3834 2567 4026 
Q 2313 4219 1838 4219 
Q 1578 4219 1281 4162 
Q 984 4106 628 3988 
L 628 4550 
Q 988 4650 1302 4700 
Q 1616 4750 1894 4750 
Q 2613 4750 3031 4423 
Q 3450 4097 3450 3541 
Q 3450 3153 3228 2886 
Q 3006 2619 2597 2516 
z
" id="DejaVuSans-33" transform="scale(0.015625)"/>
       </defs>
       <use xlink:href="#DejaVuSans-31"/>
       <use x="63.623047" xlink:href="#DejaVuSans-2e"/>
       <use x="95.410156" xlink:href="#DejaVuSans-33"/>
      </g>
     </g>
    </g>
    <g id="text_17">
     <!-- GCaMP -->
     <g transform="translate(14.798437 322.349446)rotate(-90)scale(0.1 -0.1)">
      <defs>
       <path d="M 3809 666 
L 3809 1919 
L 2778 1919 
L 2778 2438 
L 4434 2438 
L 4434 434 
Q 4069 175 3628 42 
Q 3188 -91 2688 -91 
Q 1594 -91 976 548 
Q 359 1188 359 2328 
Q 359 3472 976 4111 
Q 1594 4750 2688 4750 
Q 3144 4750 3555 4637 
Q 3966 4525 4313 4306 
L 4313 3634 
Q 3963 3931 3569 4081 
Q 3175 4231 2741 4231 
Q 1884 4231 1454 3753 
Q 1025 3275 1025 2328 
Q 1025 1384 1454 906 
Q 1884 428 2741 428 
Q 3075 428 3337 486 
Q 3600 544 3809 666 
z
" id="DejaVuSans-47" transform="scale(0.015625)"/>
       <path d="M 4122 4306 
L 4122 3641 
Q 3803 3938 3442 4084 
Q 3081 4231 2675 4231 
Q 1875 4231 1450 3742 
Q 1025 3253 1025 2328 
Q 1025 1406 1450 917 
Q 1875 428 2675 428 
Q 3081 428 3442 575 
Q 3803 722 4122 1019 
L 4122 359 
Q 3791 134 3420 21 
Q 3050 -91 2638 -91 
Q 1578 -91 968 557 
Q 359 1206 359 2328 
Q 359 3453 968 4101 
Q 1578 4750 2638 4750 
Q 3056 4750 3426 4639 
Q 3797 4528 4122 4306 
z
" id="DejaVuSans-43" transform="scale(0.015625)"/>
       <path d="M 628 4666 
L 1569 4666 
L 2759 1491 
L 3956 4666 
L 4897 4666 
L 4897 0 
L 4281 0 
L 4281 4097 
L 3078 897 
L 2444 897 
L 1241 4097 
L 1241 0 
L 628 0 
L 628 4666 
z
" id="DejaVuSans-4d" transform="scale(0.015625)"/>
       <path d="M 1259 4147 
L 1259 2394 
L 2053 2394 
Q 2494 2394 2734 2622 
Q 2975 2850 2975 3272 
Q 2975 3691 2734 3919 
Q 2494 4147 2053 4147 
L 1259 4147 
z
M 628 4666 
L 2053 4666 
Q 2838 4666 3239 4311 
Q 3641 3956 3641 3272 
Q 3641 2581 3239 2228 
Q 2838 1875 2053 1875 
L 1259 1875 
L 1259 0 
L 628 0 
L 628 4666 
z
" id="DejaVuSans-50" transform="scale(0.015625)"/>
      </defs>
      <use xlink:href="#DejaVuSans-47"/>
      <use x="77.490234" xlink:href="#DejaVuSans-43"/>
      <use x="147.314453" xlink:href="#DejaVuSans-61"/>
      <use x="208.59375" xlink:href="#DejaVuSans-4d"/>
      <use x="294.873047" xlink:href="#DejaVuSans-50"/>
     </g>
    </g>
   </g>
   <g id="line2d_16">
    <path clip-path="url(#pc7df1c35c0)" d="M 119.872159 535.724095 
L 121.110416 527.826609 
L 122.348674 522.203025 
L 123.586931 519.912344 
L 124.825188 521.200796 
L 126.063445 525.73881 
L 128.53996 538.933741 
L 129.778217 544.327625 
L 131.016474 548.260358 
L 133.492989 554.110548 
L 135.969504 559.779096 
L 137.207761 561.202423 
L 138.446018 559.188637 
L 139.684275 552.730237 
L 140.922533 542.483307 
L 142.16079 529.388566 
L 144.637304 500.57197 
L 145.875562 492.080665 
L 147.113819 491.554969 
L 148.352076 497.996708 
L 149.590334 508.652257 
L 152.066848 532.973787 
L 153.305105 542.495638 
L 154.543363 548.572902 
L 155.78162 551.077725 
L 157.019877 550.913807 
L 158.258134 549.989962 
L 159.496392 550.470544 
L 160.734649 553.504023 
L 161.972906 557.890078 
L 163.211163 560.154092 
L 164.449421 556.657133 
L 165.687678 546.131583 
L 166.925935 530.313476 
L 168.164193 512.71402 
L 169.40245 497.752119 
L 170.640707 489.851374 
L 171.878964 491.047958 
L 173.117222 499.173392 
L 174.355479 508.80125 
L 175.593736 514.308289 
L 176.831993 513.235401 
L 178.070251 507.314523 
L 179.308508 500.20038 
L 180.546765 495.132493 
L 181.785022 494.343425 
L 183.02328 498.112585 
L 184.261537 503.96349 
L 185.499794 508.074356 
L 186.738052 507.41065 
L 187.976309 500.867543 
L 189.214566 489.697712 
L 190.452823 477.116051 
L 191.691081 466.915413 
L 192.929338 461.956237 
L 194.167595 463.144273 
L 195.405852 469.171596 
L 197.882367 486.695905 
L 199.120624 495.858355 
L 200.358881 503.60394 
L 201.597139 506.585409 
L 202.835396 502.258375 
L 205.311911 482.482228 
L 206.550168 476.942996 
L 207.788425 476.175302 
L 210.26494 480.109696 
L 211.503197 479.97966 
L 212.741454 476.552558 
L 213.979711 470.937914 
L 215.217969 466.024962 
L 216.456226 464.596033 
L 217.694483 467.221235 
L 220.170998 476.781096 
L 221.409255 480.317445 
L 222.647512 481.563008 
L 223.88577 478.861616 
L 225.124027 471.16993 
L 227.600541 447.995984 
L 228.838799 438.309834 
L 231.315313 423.411308 
L 232.55357 413.867185 
L 233.791828 402.427375 
L 235.030085 393.946097 
L 236.268342 394.403941 
L 237.5066 404.665026 
L 239.983114 433.828081 
L 241.221371 443.395887 
L 242.459629 447.195355 
L 243.697886 445.077189 
L 244.936143 437.653608 
L 247.412658 416.61031 
L 248.650915 409.669094 
L 249.889172 408.453006 
L 251.127429 413.691893 
L 252.365687 424.008644 
L 254.842201 450.253769 
L 256.080459 463.597526 
L 257.318716 475.046045 
L 258.556973 481.790306 
L 259.79523 481.921582 
L 261.033488 475.467595 
L 262.271745 464.451244 
L 264.748259 440.336417 
L 268.463031 407.784761 
L 269.701288 398.562077 
L 270.939546 395.232763 
L 272.177803 400.283431 
L 273.41606 412.442339 
L 274.654318 427.46412 
L 275.892575 439.703968 
L 277.130832 443.442148 
L 278.369089 435.10228 
L 279.607347 415.571259 
L 280.845604 390.928188 
L 282.083861 370.671419 
L 283.322118 363.072127 
L 284.560376 370.525121 
L 285.798633 388.855151 
L 287.03689 409.804697 
L 288.275147 424.215823 
L 289.513405 425.551069 
L 290.751662 412.224552 
L 291.989919 386.925337 
L 295.704691 292.087055 
L 296.942948 273.336522 
L 298.181206 267.813855 
L 299.419463 272.948924 
L 300.65772 280.802723 
L 301.895977 282.83583 
L 303.134235 274.791642 
L 304.372492 258.098752 
L 305.610749 238.393361 
L 306.849006 222.315536 
L 308.087264 214.430442 
L 309.325521 215.942387 
L 310.563778 224.178784 
L 311.802036 233.887578 
L 313.040293 240.819889 
L 314.27855 242.242676 
L 315.516807 235.000841 
L 316.755065 217.899934 
L 317.993322 195.121425 
L 319.231579 174.605833 
L 320.469836 163.777328 
L 321.708094 165.688818 
L 322.946351 178.221937 
L 324.184608 197.018203 
L 326.661123 237.852825 
L 327.89938 253.961008 
L 329.137637 263.385798 
L 330.375895 264.904994 
L 331.614152 260.838519 
L 332.852409 255.778347 
L 334.090666 253.773662 
L 335.328924 256.329611 
L 336.567181 262.549435 
L 337.805438 270.785918 
L 339.043695 280.450094 
L 340.281953 292.459851 
L 342.758467 320.663462 
L 343.996725 330.699175 
L 345.234982 335.970839 
L 346.473239 338.039964 
L 347.711496 339.532145 
L 348.949754 341.956713 
L 351.426268 347.917042 
L 352.664525 352.485273 
L 353.902783 358.954166 
L 356.379297 373.90604 
L 357.617554 378.938646 
L 358.855812 379.741692 
L 360.094069 375.832065 
L 361.332326 368.110413 
L 362.570584 359.003756 
L 363.808841 351.474188 
L 365.047098 347.326434 
L 366.285355 347.387266 
L 367.523613 351.786692 
L 368.76187 358.303773 
L 370.000127 362.693864 
L 371.238384 362.49193 
L 372.476642 358.476794 
L 373.714899 352.825688 
L 374.953156 348.079716 
L 376.191413 346.414907 
L 377.429671 348.290555 
L 382.3827 364.152473 
L 383.620957 366.710297 
L 384.859214 367.025973 
L 386.097472 365.94871 
L 387.335729 366.01958 
L 388.573986 369.122831 
L 389.812243 374.950714 
L 391.050501 381.468573 
L 392.288758 386.745287 
L 393.527015 390.372634 
L 394.765272 392.454631 
L 396.00353 391.590472 
L 397.241787 385.806081 
L 399.718302 365.097768 
L 400.956559 357.212391 
L 402.194816 352.752109 
L 403.433073 350.907385 
L 404.671331 350.475023 
L 405.909588 349.646921 
L 407.147845 347.493031 
L 408.386102 345.749091 
L 409.62436 346.855716 
L 410.862617 349.952226 
L 412.100874 350.678917 
L 413.339132 345.692859 
L 414.577389 336.619871 
L 415.815646 329.552461 
L 417.053903 330.765097 
L 418.292161 342.11161 
L 420.768675 377.080497 
L 422.006932 388.885171 
L 423.24519 393.387284 
L 424.483447 390.679439 
L 425.721704 381.115061 
L 428.198219 352.286083 
L 429.436476 344.482044 
L 430.674733 344.74407 
L 431.912991 350.750281 
L 433.151248 360.013358 
L 435.627762 383.264863 
L 436.86602 395.145877 
L 438.104277 404.774134 
L 439.342534 410.445166 
L 440.580791 412.145823 
L 441.819049 410.76635 
L 444.295563 404.361251 
L 445.53382 403.040349 
L 446.772078 403.646445 
L 448.010335 405.784276 
L 449.248592 409.365715 
L 450.48685 414.186174 
L 452.963364 425.019806 
L 454.201621 427.926512 
L 455.439879 427.155549 
L 456.678136 423.924429 
L 457.916393 421.567885 
L 459.15465 422.195037 
L 461.631165 427.453441 
L 462.869422 430.534792 
L 464.107679 435.003788 
L 465.345937 440.424674 
L 466.584194 444.79735 
L 467.822451 446.188063 
L 469.060709 444.311916 
L 470.298966 440.212747 
L 471.537223 434.772882 
L 475.251995 416.101635 
L 476.490252 411.063102 
L 477.728509 407.205748 
L 478.966767 404.206632 
L 480.205024 401.886945 
L 481.443281 400.150648 
L 482.681538 398.149317 
L 483.919796 394.726592 
L 485.158053 389.983138 
L 486.39631 386.519749 
L 487.634568 387.967871 
L 488.872825 395.118658 
L 491.349339 414.641283 
L 492.587597 420.68949 
L 493.825854 421.566702 
L 495.064111 417.233362 
L 496.302368 411.064185 
L 497.540626 408.791288 
L 498.778883 413.087052 
L 500.01714 420.352429 
L 501.255397 424.182129 
L 502.493655 421.17413 
L 504.970169 405.853606 
L 506.208427 403.567094 
L 507.446684 407.120422 
L 508.684941 412.76305 
L 509.923198 415.889581 
L 511.161456 414.986863 
L 513.63797 407.98428 
L 514.876227 405.491864 
L 516.114485 404.995499 
L 517.352742 406.351291 
L 519.829257 410.39556 
L 521.067514 412.232043 
L 522.305771 414.569848 
L 523.544028 416.666088 
L 524.782286 417.172365 
L 526.020543 416.643264 
L 527.2588 417.477929 
L 528.497057 421.025285 
L 529.735315 425.901881 
L 530.973572 429.190239 
L 532.211829 427.951832 
L 533.450086 420.345148 
L 534.688344 407.127446 
L 535.926601 392.080673 
L 537.164858 380.121081 
L 538.403116 374.0368 
L 539.641373 373.057824 
L 540.87963 374.876749 
L 542.117887 377.616821 
L 543.356145 379.883102 
L 544.594402 381.137033 
L 545.832659 381.672415 
L 547.070916 381.647741 
L 548.309174 381.837016 
L 549.547431 384.126149 
L 550.785688 389.33988 
L 552.023945 396.518726 
L 554.50046 411.907394 
L 555.738717 417.041075 
L 556.976975 419.082736 
L 558.215232 419.116905 
L 559.453489 418.044998 
L 560.691746 415.093298 
L 561.930004 409.981393 
L 563.168261 404.330867 
L 564.406518 399.53468 
L 565.644775 395.285939 
L 566.883033 390.587451 
L 569.359547 378.981632 
L 570.597804 375.955479 
L 571.836062 378.640101 
L 573.074319 386.54143 
L 574.312576 395.661439 
L 575.550834 401.761089 
L 576.789091 403.444218 
L 578.027348 401.941046 
L 579.265605 399.503082 
L 580.503863 398.670339 
L 581.74212 400.44596 
L 582.980377 402.642648 
L 584.218634 402.125611 
L 585.456892 398.200591 
L 586.695149 392.623733 
L 587.933406 387.583795 
L 589.171663 384.25428 
L 591.648178 380.260647 
L 592.886435 377.134277 
L 594.124693 371.326328 
L 595.36295 362.260243 
L 596.601207 351.660618 
L 597.839464 342.332588 
L 599.077722 336.385003 
L 600.315979 334.490166 
L 601.554236 335.92858 
L 602.792493 339.218147 
L 605.269008 346.405035 
L 606.507265 351.009873 
L 607.745523 358.174569 
L 608.98378 368.599114 
L 610.222037 380.681556 
L 611.460294 390.054651 
L 612.698552 392.60716 
L 613.936809 387.69273 
L 616.413323 367.924462 
L 617.651581 361.671724 
L 618.889838 362.526027 
L 620.128095 370.483695 
L 621.366352 381.663431 
L 622.60461 391.265975 
L 623.842867 396.570512 
L 625.081124 397.279292 
L 626.319382 394.678349 
L 628.795896 386.998819 
L 630.034153 384.82941 
L 631.272411 384.870045 
L 632.510668 387.599644 
L 633.748925 393.192191 
L 636.22544 409.629735 
L 637.463697 415.340789 
L 638.701954 415.692717 
L 639.940211 411.156161 
L 641.178469 403.835894 
L 643.654983 386.967346 
L 644.893241 381.332994 
L 646.131498 381.868649 
L 647.369755 389.324575 
L 648.608012 399.425291 
L 649.84627 407.301452 
L 651.084527 411.711903 
L 652.322784 413.182236 
L 653.561041 411.958591 
L 654.799299 409.250947 
L 656.037556 407.559108 
L 657.275813 408.549908 
L 658.51407 411.729013 
L 659.752328 415.479176 
L 660.990585 417.932998 
L 662.228842 416.181031 
L 663.4671 407.532803 
L 664.705357 392.941561 
L 665.943614 376.883876 
L 667.181871 364.408633 
L 668.420129 359.058445 
L 669.658386 361.046569 
L 672.1349 373.382463 
L 673.373158 377.9289 
L 674.611415 381.879802 
L 675.849672 387.866315 
L 678.326187 405.864569 
L 679.564444 413.077006 
L 680.802701 417.28181 
L 682.040959 418.571062 
L 683.279216 416.861782 
L 684.517473 411.483334 
L 685.75573 401.506058 
L 686.993988 387.279479 
L 688.232245 371.704255 
L 689.470502 358.531039 
L 690.708759 349.650161 
L 691.947017 344.411617 
L 693.185274 340.905982 
L 694.423531 338.635934 
L 695.661789 340.012638 
L 696.900046 347.314786 
L 701.853075 393.152123 
L 703.091332 401.982499 
L 704.329589 407.444327 
L 705.567847 406.984038 
L 706.806104 399.91756 
L 708.044361 388.257658 
L 709.282618 375.377952 
L 710.520876 364.368036 
L 711.759133 357.029537 
L 712.99739 353.951412 
L 714.235648 355.288127 
L 715.473905 360.563065 
L 716.712162 367.468358 
L 717.950419 372.636522 
L 719.188677 374.52669 
L 720.426934 374.364516 
L 721.665191 373.811862 
L 722.903448 372.769511 
L 724.141706 370.214144 
L 725.379963 366.515219 
L 726.61822 363.68892 
L 727.856477 363.126728 
L 729.094735 364.291608 
L 730.332992 366.370959 
L 731.571249 369.80304 
L 734.047764 379.352939 
L 735.286021 380.520843 
L 736.524278 377.120013 
L 742.715565 345.162529 
L 743.953822 341.842133 
L 745.192079 341.430927 
L 746.430336 342.620589 
L 747.668594 345.128585 
L 748.906851 349.566276 
L 751.383366 362.374284 
L 752.621623 365.872785 
L 753.85988 364.464321 
L 755.098137 359.329945 
L 756.336395 353.105516 
L 757.574652 347.782545 
L 758.812909 344.579035 
L 760.051166 344.357061 
L 761.289424 347.04005 
L 762.527681 350.987242 
L 763.765938 353.625675 
L 765.004195 353.305201 
L 766.242453 350.775311 
L 767.48071 347.703302 
L 768.718967 344.146115 
L 769.957225 339.303921 
L 772.433739 328.482117 
L 773.671996 324.645087 
L 774.910254 322.997416 
L 776.148511 324.882774 
L 777.386768 331.293782 
L 778.625025 341.952777 
L 779.863283 354.456417 
L 781.10154 364.908735 
L 782.339797 371.109311 
L 783.578054 374.122241 
L 784.816312 375.696434 
L 786.054569 375.633299 
L 787.292826 372.524722 
L 788.531084 365.698726 
L 789.769341 355.575341 
L 792.245855 331.115356 
L 793.484113 321.330428 
L 794.72237 315.333418 
L 795.960627 313.505819 
L 797.198884 316.643947 
L 798.437142 325.372157 
L 800.913656 350.060354 
L 802.151914 358.078542 
L 803.390171 359.543211 
L 804.628428 352.75321 
L 805.866685 338.590229 
L 807.104943 322.521817 
L 808.3432 312.43847 
L 809.581457 313.362352 
L 810.819714 323.851072 
L 812.057972 337.890645 
L 813.296229 349.861737 
L 814.534486 356.879231 
L 815.772743 358.069572 
L 817.011001 354.416011 
L 818.249258 348.312068 
L 820.725773 335.341003 
L 821.96403 332.298253 
L 823.202287 334.395195 
L 824.440544 339.920264 
L 825.678802 344.26635 
L 826.917059 343.381356 
L 828.155316 335.896161 
L 830.631831 311.615457 
L 831.870088 303.718665 
L 833.108345 300.164519 
L 834.346602 297.969201 
L 835.58486 296.105441 
L 836.823117 296.483314 
L 838.061374 299.93641 
L 839.299632 305.135609 
L 840.537889 311.288301 
L 843.014403 325.459628 
L 844.252661 329.031051 
L 845.490918 327.138803 
L 846.729175 320.973224 
L 847.967432 313.962674 
L 849.20569 309.577884 
L 850.443947 310.046008 
L 851.682204 315.382834 
L 854.158719 331.091612 
L 855.396976 336.328189 
L 856.635233 338.528947 
L 857.873491 337.39378 
L 859.111748 332.426095 
L 861.588262 316.936043 
L 862.82652 310.999656 
L 864.064777 306.567933 
L 865.303034 303.201901 
L 866.541291 301.786195 
L 867.779549 303.249265 
L 869.017806 307.454691 
L 870.256063 313.593937 
L 871.49432 320.340669 
L 872.732578 325.885718 
L 873.970835 328.626769 
L 875.209092 327.833169 
L 876.44735 324.187478 
L 877.685607 319.986226 
L 878.923864 318.008446 
L 880.162121 319.252989 
L 881.400379 321.75768 
L 882.638636 322.46244 
L 883.876893 320.562414 
L 885.11515 318.29978 
L 886.353408 317.872608 
L 887.591665 318.477143 
L 888.829922 317.282014 
L 890.06818 312.652744 
L 893.782951 292.175386 
L 895.021209 288.826882 
L 896.259466 290.52793 
L 897.497723 297.920718 
L 901.212495 330.828675 
L 902.450752 337.407974 
L 903.689009 336.872641 
L 904.927267 328.911478 
L 907.403781 303.68542 
L 908.642039 294.288923 
L 909.880296 289.936779 
L 911.118553 288.805276 
L 912.35681 288.112734 
L 913.595068 287.911603 
L 914.833325 290.075217 
L 916.071582 295.016958 
L 919.786354 315.135314 
L 921.024611 318.512228 
L 922.262868 317.815981 
L 923.501126 314.29996 
L 924.739383 311.299829 
L 925.97764 312.250336 
L 927.215898 317.139661 
L 928.454155 320.989284 
L 929.692412 318.388861 
L 930.930669 309.176438 
L 932.168927 298.125304 
L 933.407184 289.953602 
L 934.645441 286.389656 
L 935.883698 287.24961 
L 937.121956 291.381248 
L 938.360213 296.562499 
L 939.59847 300.440382 
L 940.836727 302.195215 
L 942.074985 303.239422 
L 944.551499 307.214875 
L 945.789757 307.487011 
L 947.028014 304.311953 
L 948.266271 297.731334 
L 949.504528 290.287496 
L 950.742786 285.241516 
L 951.981043 284.216519 
L 953.2193 287.482303 
L 954.457557 295.265399 
L 956.934072 317.82845 
L 958.172329 323.954259 
L 959.410586 322.352315 
L 960.648844 314.520219 
L 961.887101 305.098184 
L 963.125358 298.075064 
L 964.363616 294.47289 
L 965.601873 293.564596 
L 966.84013 294.05661 
L 968.078387 294.115435 
L 969.316645 292.217102 
L 970.554902 288.2246 
L 971.793159 283.452984 
L 973.031416 279.893594 
L 974.269674 279.023683 
L 975.507931 281.219742 
L 976.746188 286.337867 
L 977.984446 293.799406 
L 979.222703 301.955352 
L 980.46096 308.984617 
L 981.699217 313.864243 
L 982.937475 315.538155 
L 984.175732 312.695735 
L 985.413989 305.216235 
L 986.652246 295.438099 
L 987.890504 287.005244 
L 989.128761 282.032318 
L 990.367018 280.688591 
L 991.605275 282.768327 
L 994.08179 291.125202 
L 995.320047 293.898709 
L 996.558305 296.965504 
L 997.796562 300.932542 
L 999.034819 304.148382 
L 1000.273076 305.130889 
L 1002.749591 303.543611 
L 1003.987848 303.699583 
L 1005.226105 302.899756 
L 1006.464363 298.577939 
L 1007.70262 290.96372 
L 1012.655649 255.301818 
L 1013.893906 247.620973 
L 1015.132164 241.442168 
L 1016.370421 239.653805 
L 1017.608678 244.511125 
L 1020.085193 262.885638 
L 1021.32345 268.989569 
L 1022.561707 272.246402 
L 1023.799964 273.781068 
L 1025.038222 274.753559 
L 1026.276479 275.36785 
L 1027.514736 274.538919 
L 1028.752993 270.906429 
L 1031.229508 258.278112 
L 1032.467765 256.969761 
L 1033.706023 263.225745 
L 1034.94428 275.954892 
L 1036.182537 291.324656 
L 1037.420794 303.831968 
L 1038.659052 308.72351 
L 1039.897309 305.532115 
L 1044.850338 276.19881 
L 1046.088595 266.802997 
L 1047.326852 260.159547 
L 1048.56511 259.644273 
L 1049.803367 264.494924 
L 1051.041624 270.809676 
L 1052.279882 275.360475 
L 1053.518139 277.912348 
L 1054.756396 278.975372 
L 1055.994653 276.813918 
L 1057.232911 270.038348 
L 1058.471168 260.886736 
L 1059.709425 253.060909 
L 1060.947682 248.633846 
L 1062.18594 248.194238 
L 1063.424197 252.15087 
L 1065.900711 266.878246 
L 1067.138969 268.724756 
L 1068.377226 264.772073 
L 1069.615483 259.489759 
L 1070.853741 257.433546 
L 1072.091998 259.981054 
L 1073.330255 266.158649 
L 1077.045027 289.459943 
L 1079.521541 306.857563 
L 1080.759799 310.617222 
L 1081.998056 305.032731 
L 1083.236313 290.055843 
L 1084.474571 270.792246 
L 1085.712828 254.320037 
L 1086.951085 245.866015 
L 1088.189342 246.796825 
L 1089.4276 254.866777 
L 1091.904114 277.585715 
L 1093.142371 286.672719 
L 1094.380629 291.120239 
L 1095.618886 289.493326 
L 1096.857143 282.582067 
L 1098.0954 273.121908 
L 1099.333658 264.94405 
L 1100.571915 261.475833 
L 1101.810172 263.042643 
L 1103.04843 266.094685 
L 1104.286687 266.688818 
L 1106.763201 261.97617 
L 1108.001459 262.284406 
L 1109.239716 265.047772 
L 1110.477973 268.267171 
L 1111.71623 270.970271 
L 1112.954488 274.126112 
L 1115.431002 283.604624 
L 1116.669259 287.187478 
L 1117.907517 288.531368 
L 1119.145774 286.958068 
L 1120.384031 282.108258 
L 1121.622289 274.051487 
L 1124.098803 252.532277 
L 1125.33706 247.016446 
L 1126.575318 249.291508 
L 1127.813575 256.709878 
L 1130.290089 273.290389 
L 1131.528347 281.012101 
L 1132.766604 287.930124 
L 1134.004861 291.919995 
L 1135.243118 290.557908 
L 1136.481376 284.257296 
L 1137.719633 276.683239 
L 1138.95789 270.965579 
L 1140.196148 267.246297 
L 1141.434405 264.041348 
L 1145.149177 253.169948 
L 1146.387434 248.351906 
L 1148.863948 233.913319 
L 1150.102206 229.880844 
L 1151.340463 231.016028 
L 1152.57872 237.750175 
L 1153.816977 249.041599 
L 1155.055235 262.181024 
L 1156.293492 273.900271 
L 1157.531749 282.362304 
L 1161.246521 301.196075 
L 1162.484778 306.273857 
L 1163.723036 308.168994 
L 1164.961293 306.407361 
L 1166.19955 301.518827 
L 1168.676065 288.250237 
L 1171.152579 278.253749 
L 1172.390837 269.738103 
L 1173.629094 258.038916 
L 1174.867351 248.288462 
L 1176.105608 246.120844 
L 1177.343866 252.704821 
L 1179.82038 276.784878 
L 1181.058637 286.548399 
L 1182.296895 292.256083 
L 1183.535152 294.090127 
L 1184.773409 292.966805 
L 1186.011666 288.673992 
L 1187.249924 280.636867 
L 1192.202953 238.500123 
L 1193.44121 229.097969 
L 1194.679467 223.023592 
L 1195.917725 223.475897 
L 1198.394239 237.449617 
L 1199.632496 237.577487 
L 1200.870754 228.462643 
L 1204.585525 183.698681 
L 1205.823783 177.833535 
L 1207.06204 180.411036 
L 1208.300297 190.792049 
L 1210.776812 222.767702 
L 1212.015069 233.263539 
L 1213.253326 234.034587 
L 1214.491584 226.007822 
L 1215.729841 214.305055 
L 1216.968098 204.246433 
L 1218.206355 198.693447 
L 1219.444613 198.469678 
L 1220.68287 202.461596 
L 1221.921127 207.315502 
L 1223.159384 209.709201 
L 1224.397642 209.33106 
L 1225.635899 207.892425 
L 1226.874156 206.768923 
L 1228.112414 207.365067 
L 1229.350671 210.141863 
L 1230.588928 212.304725 
L 1231.827185 210.717233 
L 1233.065443 206.35044 
L 1234.3037 202.73036 
L 1235.541957 201.972757 
L 1238.018472 204.846823 
L 1239.256729 204.223714 
L 1240.494986 201.21456 
L 1242.971501 190.974931 
L 1244.209758 190.036911 
L 1245.448015 197.092 
L 1247.92453 223.110563 
L 1249.162787 231.262527 
L 1250.401044 234.255008 
L 1251.639302 233.72919 
L 1252.877559 230.897146 
L 1254.115816 226.11706 
L 1257.830588 207.860762 
L 1259.068845 205.446191 
L 1260.307103 206.071663 
L 1261.54536 207.655068 
L 1262.783617 208.171399 
L 1264.021874 207.334352 
L 1265.260132 205.198006 
L 1266.498389 200.797316 
L 1267.736646 193.100306 
L 1268.974903 183.150774 
L 1270.213161 175.818288 
L 1271.451418 177.292384 
L 1272.689675 188.836622 
L 1273.927932 205.025033 
L 1275.16619 218.468953 
L 1276.404447 225.010347 
L 1277.642704 225.321528 
L 1278.880962 222.581138 
L 1281.357476 215.293319 
L 1282.595733 212.489141 
L 1283.833991 212.519315 
L 1285.072248 216.14232 
L 1286.310505 222.629729 
L 1287.548762 230.185189 
L 1288.78702 236.618465 
L 1290.025277 240.611369 
L 1291.263534 241.28505 
L 1292.501791 238.118349 
L 1293.740049 232.094457 
L 1297.454821 209.565387 
L 1298.693078 203.792969 
L 1299.931335 200.252431 
L 1301.169592 198.544362 
L 1303.646107 196.78907 
L 1304.884364 196.595698 
L 1306.122621 198.625045 
L 1307.360879 203.063884 
L 1308.599136 208.107138 
L 1309.837393 210.702726 
L 1311.07565 207.302327 
L 1312.313908 196.233309 
L 1316.02868 147.718689 
L 1317.266937 137.983238 
L 1318.505194 134.441307 
L 1319.743451 135.893432 
L 1320.981709 140.226293 
L 1322.219966 147.515103 
L 1323.458223 159.705187 
L 1325.934738 193.438775 
L 1327.172995 207.836966 
L 1328.411252 217.86571 
L 1329.649509 221.53025 
L 1330.887767 216.091529 
L 1332.126024 201.228021 
L 1333.364281 181.574809 
L 1334.602539 164.360397 
L 1335.840796 154.542886 
L 1337.079053 152.079161 
L 1338.31731 152.732852 
L 1339.555568 152.050506 
L 1340.793825 149.321461 
L 1342.032082 147.02823 
L 1343.270339 146.799559 
L 1344.508597 147.721956 
L 1345.746854 148.152668 
L 1346.985111 146.889443 
L 1348.223368 143.582591 
L 1349.461626 139.953866 
L 1350.699883 139.181868 
L 1351.93814 142.719506 
L 1353.176398 148.436375 
L 1354.414655 152.754256 
L 1355.652912 154.5071 
L 1356.891169 155.400484 
L 1358.129427 157.10683 
L 1359.367684 160.310399 
L 1360.605941 165.605227 
L 1361.844198 173.28736 
L 1364.320713 191.131732 
L 1365.55897 197.160442 
L 1369.273742 208.998542 
L 1371.750257 218.267866 
L 1372.988514 221.443201 
L 1374.226771 221.439179 
L 1375.465028 216.639664 
L 1377.941543 197.735524 
L 1379.1798 191.959582 
L 1380.418057 192.824185 
L 1381.656315 200.566003 
L 1384.132829 226.031261 
L 1385.371087 233.367089 
L 1386.609344 232.3664 
L 1387.847601 225.221913 
L 1390.324116 207.792284 
L 1394.038887 184.88251 
L 1395.277145 178.666559 
L 1396.515402 173.673052 
L 1397.753659 169.82901 
L 1398.991916 168.490144 
L 1401.468431 171.556598 
L 1402.706688 169.000053 
L 1405.183203 155.392041 
L 1406.42146 152.045162 
L 1407.659717 153.98865 
L 1408.897975 160.005192 
L 1410.136232 167.368014 
L 1411.374489 173.679439 
L 1412.612746 177.611383 
L 1413.851004 179.208432 
L 1415.089261 179.737245 
L 1416.327518 181.010972 
L 1417.565775 184.297526 
L 1420.04229 193.63491 
L 1421.280547 197.005626 
L 1422.518805 198.5017 
L 1423.757062 197.797626 
L 1424.995319 195.057483 
L 1426.233576 190.253534 
L 1427.471834 184.472912 
L 1428.710091 180.430769 
L 1429.948348 178.728739 
L 1431.186605 176.814006 
L 1432.424863 172.843438 
L 1434.901377 162.460491 
L 1436.139634 160.482011 
L 1437.377892 163.50154 
L 1438.616149 170.993861 
L 1439.854406 179.274162 
L 1441.092664 184.239341 
L 1442.330921 184.554196 
L 1443.569178 181.352921 
L 1444.807435 176.320803 
L 1446.045693 171.770385 
L 1447.28395 170.540651 
L 1448.522207 173.280499 
L 1449.760464 177.788057 
L 1450.998722 181.788179 
L 1452.236979 183.342299 
L 1453.475236 180.115201 
L 1454.713494 172.077652 
L 1455.951751 162.885674 
L 1457.190008 156.7425 
L 1458.428265 156.443378 
L 1459.666523 163.37469 
L 1460.90478 176.032405 
L 1462.143037 190.043589 
L 1463.381294 200.719983 
L 1464.619552 204.406017 
L 1465.857809 199.092131 
L 1467.096066 184.985234 
L 1468.334323 163.929937 
L 1470.810838 114.505781 
L 1472.049095 92.500825 
L 1473.287353 74.614098 
L 1474.52561 64.214468 
L 1475.763867 64.720012 
L 1477.002124 74.887309 
L 1479.478639 102.537981 
L 1480.716896 113.571285 
L 1481.955153 122.399799 
L 1483.193411 128.768072 
L 1484.431668 133.026449 
L 1485.669925 136.663571 
L 1488.14644 144.965782 
L 1490.622954 153.995584 
L 1491.861212 159.78485 
L 1493.099469 167.829828 
L 1495.575983 189.812597 
L 1496.814241 198.253135 
L 1498.052498 200.702416 
L 1499.290755 196.128361 
L 1501.76727 178.988127 
L 1503.005527 175.169638 
L 1504.243784 176.400312 
L 1505.482041 182.167657 
L 1506.720299 190.736716 
L 1507.958556 198.184989 
L 1509.196813 199.742231 
L 1510.435071 193.515905 
L 1511.673328 182.76847 
L 1512.911585 173.286063 
L 1514.149842 169.289722 
L 1515.3881 172.477558 
L 1516.626357 181.855592 
L 1517.864614 193.617151 
L 1519.102871 203.493029 
L 1520.341129 209.377163 
L 1521.579386 211.86911 
L 1522.817643 212.90491 
L 1524.0559 212.987284 
L 1525.294158 210.88104 
L 1529.00893 198.985799 
L 1530.247187 192.207929 
L 1531.485444 180.842736 
L 1532.723701 167.361493 
L 1533.961959 155.609684 
L 1537.67673 125.372187 
L 1538.914988 120.426061 
L 1540.153245 123.169904 
L 1541.391502 132.312857 
L 1542.62976 143.162397 
L 1543.868017 150.518312 
L 1545.106274 151.682635 
L 1546.344531 147.223523 
L 1547.582789 140.326546 
L 1548.821046 134.998177 
L 1550.059303 133.645358 
L 1551.29756 136.14312 
L 1553.774075 144.725985 
L 1555.012332 147.784455 
L 1556.250589 148.83026 
L 1557.488847 147.152491 
L 1558.727104 143.975876 
L 1559.965361 141.119406 
L 1561.203619 138.816498 
L 1562.441876 136.271675 
L 1563.680133 132.540355 
L 1564.91839 126.654493 
L 1566.156648 118.328996 
L 1567.394905 109.204847 
L 1568.633162 102.174745 
L 1569.871419 98.366385 
L 1571.109677 95.401963 
L 1572.347934 90.142011 
L 1573.586191 83.529437 
L 1574.824448 80.417321 
L 1576.062706 84.185793 
L 1577.300963 94.025965 
L 1581.015735 132.406285 
L 1582.253992 141.071265 
L 1583.492249 145.989654 
L 1584.730507 147.380265 
L 1585.968764 146.55225 
L 1587.207021 146.007044 
L 1588.445278 148.576861 
L 1589.683536 154.779608 
L 1590.921793 161.683516 
L 1592.16005 165.982422 
L 1593.398307 166.938167 
L 1595.874822 165.278043 
L 1597.113079 164.857644 
L 1598.351337 163.287007 
L 1599.589594 159.291922 
L 1602.066108 147.195485 
L 1603.304366 144.84679 
L 1604.542623 146.786358 
L 1605.78088 149.93702 
L 1607.019137 151.602864 
L 1608.257395 152.698323 
L 1609.495652 155.319465 
L 1610.733909 158.704364 
L 1611.972166 160.000823 
L 1613.210424 157.543382 
L 1614.448681 151.048432 
L 1615.686938 140.948418 
L 1618.163453 117.710153 
L 1619.40171 106.813529 
L 1620.639967 93.895859 
L 1623.116482 59.9238 
L 1624.354739 48.030166 
L 1625.592996 47.979282 
L 1626.831254 61.802684 
L 1628.069511 86.701082 
L 1630.546026 145.103114 
L 1631.784283 168.866911 
L 1633.02254 187.133915 
L 1634.260797 200.299255 
L 1635.499055 207.943934 
L 1636.737312 207.216601 
L 1637.975569 193.501787 
L 1639.213826 164.4598 
L 1640.452084 123.557577 
L 1641.690341 77.495539 
L 1641.690341 77.495539 
" style="fill:none;stroke:#008000;stroke-linecap:square;stroke-width:1.5;"/>
   </g>
   <g id="patch_3">
    <path d="M 43.78125 586.86358 
L 43.78125 22.318125 
" style="fill:none;stroke:#000000;stroke-linecap:square;stroke-linejoin:miter;stroke-width:0.8;"/>
   </g>
   <g id="patch_4">
    <path d="M 1717.78125 586.86358 
L 1717.78125 22.318125 
" style="fill:none;stroke:#000000;stroke-linecap:square;stroke-linejoin:miter;stroke-width:0.8;"/>
   </g>
   <g id="patch_5">
    <path d="M 43.78125 586.86358 
L 1717.78125 586.86358 
" style="fill:none;stroke:#000000;stroke-linecap:square;stroke-linejoin:miter;stroke-width:0.8;"/>
   </g>
   <g id="patch_6">
    <path d="M 43.78125 22.318125 
L 1717.78125 22.318125 
" style="fill:none;stroke:#000000;stroke-linecap:square;stroke-linejoin:miter;stroke-width:0.8;"/>
   </g>
   <g id="text_18">
    <!-- before binarisation -->
    <g transform="translate(824.1825 16.318125)scale(0.12 -0.12)">
     <defs>
      <path d="M 3116 1747 
Q 3116 2381 2855 2742 
Q 2594 3103 2138 3103 
Q 1681 3103 1420 2742 
Q 1159 2381 1159 1747 
Q 1159 1113 1420 752 
Q 1681 391 2138 391 
Q 2594 391 2855 752 
Q 3116 1113 3116 1747 
z
M 1159 2969 
Q 1341 3281 1617 3432 
Q 1894 3584 2278 3584 
Q 2916 3584 3314 3078 
Q 3713 2572 3713 1747 
Q 3713 922 3314 415 
Q 2916 -91 2278 -91 
Q 1894 -91 1617 61 
Q 1341 213 1159 525 
L 1159 0 
L 581 0 
L 581 4863 
L 1159 4863 
L 1159 2969 
z
" id="DejaVuSans-62" transform="scale(0.015625)"/>
      <path d="M 1959 3097 
Q 1497 3097 1228 2736 
Q 959 2375 959 1747 
Q 959 1119 1226 758 
Q 1494 397 1959 397 
Q 2419 397 2687 759 
Q 2956 1122 2956 1747 
Q 2956 2369 2687 2733 
Q 2419 3097 1959 3097 
z
M 1959 3584 
Q 2709 3584 3137 3096 
Q 3566 2609 3566 1747 
Q 3566 888 3137 398 
Q 2709 -91 1959 -91 
Q 1206 -91 779 398 
Q 353 888 353 1747 
Q 353 2609 779 3096 
Q 1206 3584 1959 3584 
z
" id="DejaVuSans-6f" transform="scale(0.015625)"/>
      <path id="DejaVuSans-20" transform="scale(0.015625)"/>
      <path d="M 603 3500 
L 1178 3500 
L 1178 0 
L 603 0 
L 603 3500 
z
M 603 4863 
L 1178 4863 
L 1178 4134 
L 603 4134 
L 603 4863 
z
" id="DejaVuSans-69" transform="scale(0.015625)"/>
      <path d="M 3513 2113 
L 3513 0 
L 2938 0 
L 2938 2094 
Q 2938 2591 2744 2837 
Q 2550 3084 2163 3084 
Q 1697 3084 1428 2787 
Q 1159 2491 1159 1978 
L 1159 0 
L 581 0 
L 581 3500 
L 1159 3500 
L 1159 2956 
Q 1366 3272 1645 3428 
Q 1925 3584 2291 3584 
Q 2894 3584 3203 3211 
Q 3513 2838 3513 2113 
z
" id="DejaVuSans-6e" transform="scale(0.015625)"/>
      <path d="M 2834 3397 
L 2834 2853 
Q 2591 2978 2328 3040 
Q 2066 3103 1784 3103 
Q 1356 3103 1142 2972 
Q 928 2841 928 2578 
Q 928 2378 1081 2264 
Q 1234 2150 1697 2047 
L 1894 2003 
Q 2506 1872 2764 1633 
Q 3022 1394 3022 966 
Q 3022 478 2636 193 
Q 2250 -91 1575 -91 
Q 1294 -91 989 -36 
Q 684 19 347 128 
L 347 722 
Q 666 556 975 473 
Q 1284 391 1588 391 
Q 1994 391 2212 530 
Q 2431 669 2431 922 
Q 2431 1156 2273 1281 
Q 2116 1406 1581 1522 
L 1381 1569 
Q 847 1681 609 1914 
Q 372 2147 372 2553 
Q 372 3047 722 3315 
Q 1072 3584 1716 3584 
Q 2034 3584 2315 3537 
Q 2597 3491 2834 3397 
z
" id="DejaVuSans-73" transform="scale(0.015625)"/>
      <path d="M 1172 4494 
L 1172 3500 
L 2356 3500 
L 2356 3053 
L 1172 3053 
L 1172 1153 
Q 1172 725 1289 603 
Q 1406 481 1766 481 
L 2356 481 
L 2356 0 
L 1766 0 
Q 1100 0 847 248 
Q 594 497 594 1153 
L 594 3053 
L 172 3053 
L 172 3500 
L 594 3500 
L 594 4494 
L 1172 4494 
z
" id="DejaVuSans-74" transform="scale(0.015625)"/>
     </defs>
     <use xlink:href="#DejaVuSans-62"/>
     <use x="63.476562" xlink:href="#DejaVuSans-65"/>
     <use x="125" xlink:href="#DejaVuSans-66"/>
     <use x="160.205078" xlink:href="#DejaVuSans-6f"/>
     <use x="221.386719" xlink:href="#DejaVuSans-72"/>
     <use x="260.25" xlink:href="#DejaVuSans-65"/>
     <use x="321.773438" xlink:href="#DejaVuSans-20"/>
     <use x="353.560547" xlink:href="#DejaVuSans-62"/>
     <use x="417.037109" xlink:href="#DejaVuSans-69"/>
     <use x="444.820312" xlink:href="#DejaVuSans-6e"/>
     <use x="508.199219" xlink:href="#DejaVuSans-61"/>
     <use x="569.478516" xlink:href="#DejaVuSans-72"/>
     <use x="610.591797" xlink:href="#DejaVuSans-69"/>
     <use x="638.375" xlink:href="#DejaVuSans-73"/>
     <use x="690.474609" xlink:href="#DejaVuSans-61"/>
     <use x="751.753906" xlink:href="#DejaVuSans-74"/>
     <use x="790.962891" xlink:href="#DejaVuSans-69"/>
     <use x="818.746094" xlink:href="#DejaVuSans-6f"/>
     <use x="879.927734" xlink:href="#DejaVuSans-6e"/>
    </g>
   </g>
  </g>
  <g id="axes_2">
   <g id="patch_7">
    <path d="M 43.78125 1264.318125 
L 1717.78125 1264.318125 
L 1717.78125 699.77267 
L 43.78125 699.77267 
z
" style="fill:#ffffff;"/>
   </g>
   <g id="matplotlib.axis_3">
    <g id="xtick_8">
     <g id="line2d_17">
      <g>
       <use style="stroke:#000000;stroke-width:0.8;" x="119.872159" xlink:href="#ma708c4b8b6" y="1264.318125"/>
      </g>
     </g>
     <g id="text_19">
      <!-- 0 -->
      <g transform="translate(116.690909 1278.916563)scale(0.1 -0.1)">
       <use xlink:href="#DejaVuSans-30"/>
      </g>
     </g>
    </g>
    <g id="xtick_9">
     <g id="line2d_18">
      <g>
       <use style="stroke:#000000;stroke-width:0.8;" x="367.523613" xlink:href="#ma708c4b8b6" y="1264.318125"/>
      </g>
     </g>
     <g id="text_20">
      <!-- 200 -->
      <g transform="translate(357.979863 1278.916563)scale(0.1 -0.1)">
       <use xlink:href="#DejaVuSans-32"/>
       <use x="63.623047" xlink:href="#DejaVuSans-30"/>
       <use x="127.246094" xlink:href="#DejaVuSans-30"/>
      </g>
     </g>
    </g>
    <g id="xtick_10">
     <g id="line2d_19">
      <g>
       <use style="stroke:#000000;stroke-width:0.8;" x="615.175066" xlink:href="#ma708c4b8b6" y="1264.318125"/>
      </g>
     </g>
     <g id="text_21">
      <!-- 400 -->
      <g transform="translate(605.631316 1278.916563)scale(0.1 -0.1)">
       <use xlink:href="#DejaVuSans-34"/>
       <use x="63.623047" xlink:href="#DejaVuSans-30"/>
       <use x="127.246094" xlink:href="#DejaVuSans-30"/>
      </g>
     </g>
    </g>
    <g id="xtick_11">
     <g id="line2d_20">
      <g>
       <use style="stroke:#000000;stroke-width:0.8;" x="862.82652" xlink:href="#ma708c4b8b6" y="1264.318125"/>
      </g>
     </g>
     <g id="text_22">
      <!-- 600 -->
      <g transform="translate(853.28277 1278.916563)scale(0.1 -0.1)">
       <use xlink:href="#DejaVuSans-36"/>
       <use x="63.623047" xlink:href="#DejaVuSans-30"/>
       <use x="127.246094" xlink:href="#DejaVuSans-30"/>
      </g>
     </g>
    </g>
    <g id="xtick_12">
     <g id="line2d_21">
      <g>
       <use style="stroke:#000000;stroke-width:0.8;" x="1110.477973" xlink:href="#ma708c4b8b6" y="1264.318125"/>
      </g>
     </g>
     <g id="text_23">
      <!-- 800 -->
      <g transform="translate(1100.934223 1278.916563)scale(0.1 -0.1)">
       <use xlink:href="#DejaVuSans-38"/>
       <use x="63.623047" xlink:href="#DejaVuSans-30"/>
       <use x="127.246094" xlink:href="#DejaVuSans-30"/>
      </g>
     </g>
    </g>
    <g id="xtick_13">
     <g id="line2d_22">
      <g>
       <use style="stroke:#000000;stroke-width:0.8;" x="1358.129427" xlink:href="#ma708c4b8b6" y="1264.318125"/>
      </g>
     </g>
     <g id="text_24">
      <!-- 1000 -->
      <g transform="translate(1345.404427 1278.916563)scale(0.1 -0.1)">
       <use xlink:href="#DejaVuSans-31"/>
       <use x="63.623047" xlink:href="#DejaVuSans-30"/>
       <use x="127.246094" xlink:href="#DejaVuSans-30"/>
       <use x="190.869141" xlink:href="#DejaVuSans-30"/>
      </g>
     </g>
    </g>
    <g id="xtick_14">
     <g id="line2d_23">
      <g>
       <use style="stroke:#000000;stroke-width:0.8;" x="1605.78088" xlink:href="#ma708c4b8b6" y="1264.318125"/>
      </g>
     </g>
     <g id="text_25">
      <!-- 1200 -->
      <g transform="translate(1593.05588 1278.916563)scale(0.1 -0.1)">
       <use xlink:href="#DejaVuSans-31"/>
       <use x="63.623047" xlink:href="#DejaVuSans-32"/>
       <use x="127.246094" xlink:href="#DejaVuSans-30"/>
       <use x="190.869141" xlink:href="#DejaVuSans-30"/>
      </g>
     </g>
    </g>
    <g id="text_26">
     <!-- frame -->
     <g transform="translate(865.954687 1292.594688)scale(0.1 -0.1)">
      <use xlink:href="#DejaVuSans-66"/>
      <use x="35.205078" xlink:href="#DejaVuSans-72"/>
      <use x="76.318359" xlink:href="#DejaVuSans-61"/>
      <use x="137.597656" xlink:href="#DejaVuSans-6d"/>
      <use x="235.009766" xlink:href="#DejaVuSans-65"/>
     </g>
    </g>
   </g>
   <g id="matplotlib.axis_4">
    <g id="ytick_9">
     <g id="line2d_24">
      <g>
       <use style="stroke:#000000;stroke-width:0.8;" x="43.78125" xlink:href="#m5cc7270825" y="1238.656968"/>
      </g>
     </g>
     <g id="text_27">
      <!-- 0.0 -->
      <g transform="translate(20.878125 1242.456187)scale(0.1 -0.1)">
       <use xlink:href="#DejaVuSans-30"/>
       <use x="63.623047" xlink:href="#DejaVuSans-2e"/>
       <use x="95.410156" xlink:href="#DejaVuSans-30"/>
      </g>
     </g>
    </g>
    <g id="ytick_10">
     <g id="line2d_25">
      <g>
       <use style="stroke:#000000;stroke-width:0.8;" x="43.78125" xlink:href="#m5cc7270825" y="1136.01234"/>
      </g>
     </g>
     <g id="text_28">
      <!-- 0.2 -->
      <g transform="translate(20.878125 1139.811559)scale(0.1 -0.1)">
       <use xlink:href="#DejaVuSans-30"/>
       <use x="63.623047" xlink:href="#DejaVuSans-2e"/>
       <use x="95.410156" xlink:href="#DejaVuSans-32"/>
      </g>
     </g>
    </g>
    <g id="ytick_11">
     <g id="line2d_26">
      <g>
       <use style="stroke:#000000;stroke-width:0.8;" x="43.78125" xlink:href="#m5cc7270825" y="1033.367712"/>
      </g>
     </g>
     <g id="text_29">
      <!-- 0.4 -->
      <g transform="translate(20.878125 1037.166931)scale(0.1 -0.1)">
       <use xlink:href="#DejaVuSans-30"/>
       <use x="63.623047" xlink:href="#DejaVuSans-2e"/>
       <use x="95.410156" xlink:href="#DejaVuSans-34"/>
      </g>
     </g>
    </g>
    <g id="ytick_12">
     <g id="line2d_27">
      <g>
       <use style="stroke:#000000;stroke-width:0.8;" x="43.78125" xlink:href="#m5cc7270825" y="930.723084"/>
      </g>
     </g>
     <g id="text_30">
      <!-- 0.6 -->
      <g transform="translate(20.878125 934.522302)scale(0.1 -0.1)">
       <use xlink:href="#DejaVuSans-30"/>
       <use x="63.623047" xlink:href="#DejaVuSans-2e"/>
       <use x="95.410156" xlink:href="#DejaVuSans-36"/>
      </g>
     </g>
    </g>
    <g id="ytick_13">
     <g id="line2d_28">
      <g>
       <use style="stroke:#000000;stroke-width:0.8;" x="43.78125" xlink:href="#m5cc7270825" y="828.078456"/>
      </g>
     </g>
     <g id="text_31">
      <!-- 0.8 -->
      <g transform="translate(20.878125 831.877674)scale(0.1 -0.1)">
       <use xlink:href="#DejaVuSans-30"/>
       <use x="63.623047" xlink:href="#DejaVuSans-2e"/>
       <use x="95.410156" xlink:href="#DejaVuSans-38"/>
      </g>
     </g>
    </g>
    <g id="ytick_14">
     <g id="line2d_29">
      <g>
       <use style="stroke:#000000;stroke-width:0.8;" x="43.78125" xlink:href="#m5cc7270825" y="725.433827"/>
      </g>
     </g>
     <g id="text_32">
      <!-- 1.0 -->
      <g transform="translate(20.878125 729.233046)scale(0.1 -0.1)">
       <use xlink:href="#DejaVuSans-31"/>
       <use x="63.623047" xlink:href="#DejaVuSans-2e"/>
       <use x="95.410156" xlink:href="#DejaVuSans-30"/>
      </g>
     </g>
    </g>
    <g id="text_33">
     <!-- GCaMP -->
     <g transform="translate(14.798437 999.803991)rotate(-90)scale(0.1 -0.1)">
      <use xlink:href="#DejaVuSans-47"/>
      <use x="77.490234" xlink:href="#DejaVuSans-43"/>
      <use x="147.314453" xlink:href="#DejaVuSans-61"/>
      <use x="208.59375" xlink:href="#DejaVuSans-4d"/>
      <use x="294.873047" xlink:href="#DejaVuSans-50"/>
     </g>
    </g>
   </g>
   <g id="line2d_30">
    <path clip-path="url(#p0927432e43)" d="M 119.872159 1238.656968 
L 316.755065 1238.656968 
L 317.993322 725.433827 
L 322.946351 725.433827 
L 324.184608 1238.656968 
L 1203.347268 1238.656968 
L 1204.585525 725.433827 
L 1208.300297 725.433827 
L 1209.538555 1238.656968 
L 1240.494986 1238.656968 
L 1241.733243 725.433827 
L 1244.209758 725.433827 
L 1245.448015 1238.656968 
L 1266.498389 1238.656968 
L 1267.736646 725.433827 
L 1272.689675 725.433827 
L 1273.927932 1238.656968 
L 1311.07565 1238.656968 
L 1312.313908 725.433827 
L 1325.934738 725.433827 
L 1327.172995 1238.656968 
L 1332.126024 1238.656968 
L 1333.364281 725.433827 
L 1364.320713 725.433827 
L 1365.55897 1238.656968 
L 1377.941543 1238.656968 
L 1379.1798 725.433827 
L 1380.418057 725.433827 
L 1381.656315 1238.656968 
L 1391.562373 1238.656968 
L 1392.80063 725.433827 
L 1420.04229 725.433827 
L 1421.280547 1238.656968 
L 1423.757062 1238.656968 
L 1424.995319 725.433827 
L 1462.143037 725.433827 
L 1463.381294 1238.656968 
L 1465.857809 1238.656968 
L 1467.096066 725.433827 
L 1495.575983 725.433827 
L 1496.814241 1238.656968 
L 1498.052498 1238.656968 
L 1499.290755 725.433827 
L 1506.720299 725.433827 
L 1507.958556 1238.656968 
L 1509.196813 1238.656968 
L 1510.435071 725.433827 
L 1517.864614 725.433827 
L 1519.102871 1238.656968 
L 1529.00893 1238.656968 
L 1530.247187 725.433827 
L 1633.02254 725.433827 
L 1634.260797 1238.656968 
L 1636.737312 1238.656968 
L 1637.975569 725.433827 
L 1641.690341 725.433827 
L 1641.690341 725.433827 
" style="fill:none;stroke:#008000;stroke-linecap:square;stroke-width:1.5;"/>
   </g>
   <g id="patch_8">
    <path d="M 43.78125 1264.318125 
L 43.78125 699.77267 
" style="fill:none;stroke:#000000;stroke-linecap:square;stroke-linejoin:miter;stroke-width:0.8;"/>
   </g>
   <g id="patch_9">
    <path d="M 1717.78125 1264.318125 
L 1717.78125 699.77267 
" style="fill:none;stroke:#000000;stroke-linecap:square;stroke-linejoin:miter;stroke-width:0.8;"/>
   </g>
   <g id="patch_10">
    <path d="M 43.78125 1264.318125 
L 1717.78125 1264.318125 
" style="fill:none;stroke:#000000;stroke-linecap:square;stroke-linejoin:miter;stroke-width:0.8;"/>
   </g>
   <g id="patch_11">
    <path d="M 43.78125 699.77267 
L 1717.78125 699.77267 
" style="fill:none;stroke:#000000;stroke-linecap:square;stroke-linejoin:miter;stroke-width:0.8;"/>
   </g>
   <g id="text_34">
    <!-- before binarisation -->
    <g transform="translate(824.1825 693.77267)scale(0.12 -0.12)">
     <use xlink:href="#DejaVuSans-62"/>
     <use x="63.476562" xlink:href="#DejaVuSans-65"/>
     <use x="125" xlink:href="#DejaVuSans-66"/>
     <use x="160.205078" xlink:href="#DejaVuSans-6f"/>
     <use x="221.386719" xlink:href="#DejaVuSans-72"/>
     <use x="260.25" xlink:href="#DejaVuSans-65"/>
     <use x="321.773438" xlink:href="#DejaVuSans-20"/>
     <use x="353.560547" xlink:href="#DejaVuSans-62"/>
     <use x="417.037109" xlink:href="#DejaVuSans-69"/>
     <use x="444.820312" xlink:href="#DejaVuSans-6e"/>
     <use x="508.199219" xlink:href="#DejaVuSans-61"/>
     <use x="569.478516" xlink:href="#DejaVuSans-72"/>
     <use x="610.591797" xlink:href="#DejaVuSans-69"/>
     <use x="638.375" xlink:href="#DejaVuSans-73"/>
     <use x="690.474609" xlink:href="#DejaVuSans-61"/>
     <use x="751.753906" xlink:href="#DejaVuSans-74"/>
     <use x="790.962891" xlink:href="#DejaVuSans-69"/>
     <use x="818.746094" xlink:href="#DejaVuSans-6f"/>
     <use x="879.927734" xlink:href="#DejaVuSans-6e"/>
    </g>
   </g>
  </g>
 </g>
 <defs>
  <clipPath id="pc7df1c35c0">
   <rect height="564.545455" width="1674" x="43.78125" y="22.318125"/>
  </clipPath>
  <clipPath id="p0927432e43">
   <rect height="564.545455" width="1674" x="43.78125" y="699.77267"/>
  </clipPath>
 </defs>
</svg>
