<?xml version="1.0" encoding="utf-8" standalone="no"?>
<!DOCTYPE svg PUBLIC "-//W3C//DTD SVG 1.1//EN"
  "http://www.w3.org/Graphics/SVG/1.1/DTD/svg11.dtd">
<svg height="1301.874375pt" version="1.1" viewBox="0 0 1724.98125 1301.874375" width="1724.98125pt" xmlns="http://www.w3.org/2000/svg" xmlns:xlink="http://www.w3.org/1999/xlink">
 <metadata>
  <rdf:RDF xmlns:cc="http://creativecommons.org/ns#" xmlns:dc="http://purl.org/dc/elements/1.1/" xmlns:rdf="http://www.w3.org/1999/02/22-rdf-syntax-ns#">
   <cc:Work>
    <dc:type rdf:resource="http://purl.org/dc/dcmitype/StillImage"/>
    <dc:date>2022-07-24T15:54:29.761894</dc:date>
    <dc:format>image/svg+xml</dc:format>
    <dc:creator>
     <cc:Agent>
      <dc:title>Matplotlib v3.4.2, https://matplotlib.org/</dc:title>
     </cc:Agent>
    </dc:creator>
   </cc:Work>
  </rdf:RDF>
 </metadata>
 <defs>
  <style type="text/css">*{stroke-linecap:butt;stroke-linejoin:round;}</style>
 </defs>
 <g id="figure_1">
  <g id="patch_1">
   <path d="M 0 1301.874375 
L 1724.98125 1301.874375 
L 1724.98125 0 
L 0 0 
z
" style="fill:#ffffff;"/>
  </g>
  <g id="axes_1">
   <g id="patch_2">
    <path d="M 43.78125 586.86358 
L 1717.78125 586.86358 
L 1717.78125 22.318125 
L 43.78125 22.318125 
z
" style="fill:#ffffff;"/>
   </g>
   <g id="matplotlib.axis_1">
    <g id="xtick_1">
     <g id="line2d_1">
      <defs>
       <path d="M 0 0 
L 0 3.5 
" id="m0be53cd61e" style="stroke:#000000;stroke-width:0.8;"/>
      </defs>
      <g>
       <use style="stroke:#000000;stroke-width:0.8;" x="119.872159" xlink:href="#m0be53cd61e" y="586.86358"/>
      </g>
     </g>
     <g id="text_1">
      <!-- 0 -->
      <g transform="translate(116.690909 601.462017)scale(0.1 -0.1)">
       <defs>
        <path d="M 2034 4250 
Q 1547 4250 1301 3770 
Q 1056 3291 1056 2328 
Q 1056 1369 1301 889 
Q 1547 409 2034 409 
Q 2525 409 2770 889 
Q 3016 1369 3016 2328 
Q 3016 3291 2770 3770 
Q 2525 4250 2034 4250 
z
M 2034 4750 
Q 2819 4750 3233 4129 
Q 3647 3509 3647 2328 
Q 3647 1150 3233 529 
Q 2819 -91 2034 -91 
Q 1250 -91 836 529 
Q 422 1150 422 2328 
Q 422 3509 836 4129 
Q 1250 4750 2034 4750 
z
" id="DejaVuSans-30" transform="scale(0.015625)"/>
       </defs>
       <use xlink:href="#DejaVuSans-30"/>
      </g>
     </g>
    </g>
    <g id="xtick_2">
     <g id="line2d_2">
      <g>
       <use style="stroke:#000000;stroke-width:0.8;" x="367.523613" xlink:href="#m0be53cd61e" y="586.86358"/>
      </g>
     </g>
     <g id="text_2">
      <!-- 200 -->
      <g transform="translate(357.979863 601.462017)scale(0.1 -0.1)">
       <defs>
        <path d="M 1228 531 
L 3431 531 
L 3431 0 
L 469 0 
L 469 531 
Q 828 903 1448 1529 
Q 2069 2156 2228 2338 
Q 2531 2678 2651 2914 
Q 2772 3150 2772 3378 
Q 2772 3750 2511 3984 
Q 2250 4219 1831 4219 
Q 1534 4219 1204 4116 
Q 875 4013 500 3803 
L 500 4441 
Q 881 4594 1212 4672 
Q 1544 4750 1819 4750 
Q 2544 4750 2975 4387 
Q 3406 4025 3406 3419 
Q 3406 3131 3298 2873 
Q 3191 2616 2906 2266 
Q 2828 2175 2409 1742 
Q 1991 1309 1228 531 
z
" id="DejaVuSans-32" transform="scale(0.015625)"/>
       </defs>
       <use xlink:href="#DejaVuSans-32"/>
       <use x="63.623047" xlink:href="#DejaVuSans-30"/>
       <use x="127.246094" xlink:href="#DejaVuSans-30"/>
      </g>
     </g>
    </g>
    <g id="xtick_3">
     <g id="line2d_3">
      <g>
       <use style="stroke:#000000;stroke-width:0.8;" x="615.175066" xlink:href="#m0be53cd61e" y="586.86358"/>
      </g>
     </g>
     <g id="text_3">
      <!-- 400 -->
      <g transform="translate(605.631316 601.462017)scale(0.1 -0.1)">
       <defs>
        <path d="M 2419 4116 
L 825 1625 
L 2419 1625 
L 2419 4116 
z
M 2253 4666 
L 3047 4666 
L 3047 1625 
L 3713 1625 
L 3713 1100 
L 3047 1100 
L 3047 0 
L 2419 0 
L 2419 1100 
L 313 1100 
L 313 1709 
L 2253 4666 
z
" id="DejaVuSans-34" transform="scale(0.015625)"/>
       </defs>
       <use xlink:href="#DejaVuSans-34"/>
       <use x="63.623047" xlink:href="#DejaVuSans-30"/>
       <use x="127.246094" xlink:href="#DejaVuSans-30"/>
      </g>
     </g>
    </g>
    <g id="xtick_4">
     <g id="line2d_4">
      <g>
       <use style="stroke:#000000;stroke-width:0.8;" x="862.82652" xlink:href="#m0be53cd61e" y="586.86358"/>
      </g>
     </g>
     <g id="text_4">
      <!-- 600 -->
      <g transform="translate(853.28277 601.462017)scale(0.1 -0.1)">
       <defs>
        <path d="M 2113 2584 
Q 1688 2584 1439 2293 
Q 1191 2003 1191 1497 
Q 1191 994 1439 701 
Q 1688 409 2113 409 
Q 2538 409 2786 701 
Q 3034 994 3034 1497 
Q 3034 2003 2786 2293 
Q 2538 2584 2113 2584 
z
M 3366 4563 
L 3366 3988 
Q 3128 4100 2886 4159 
Q 2644 4219 2406 4219 
Q 1781 4219 1451 3797 
Q 1122 3375 1075 2522 
Q 1259 2794 1537 2939 
Q 1816 3084 2150 3084 
Q 2853 3084 3261 2657 
Q 3669 2231 3669 1497 
Q 3669 778 3244 343 
Q 2819 -91 2113 -91 
Q 1303 -91 875 529 
Q 447 1150 447 2328 
Q 447 3434 972 4092 
Q 1497 4750 2381 4750 
Q 2619 4750 2861 4703 
Q 3103 4656 3366 4563 
z
" id="DejaVuSans-36" transform="scale(0.015625)"/>
       </defs>
       <use xlink:href="#DejaVuSans-36"/>
       <use x="63.623047" xlink:href="#DejaVuSans-30"/>
       <use x="127.246094" xlink:href="#DejaVuSans-30"/>
      </g>
     </g>
    </g>
    <g id="xtick_5">
     <g id="line2d_5">
      <g>
       <use style="stroke:#000000;stroke-width:0.8;" x="1110.477973" xlink:href="#m0be53cd61e" y="586.86358"/>
      </g>
     </g>
     <g id="text_5">
      <!-- 800 -->
      <g transform="translate(1100.934223 601.462017)scale(0.1 -0.1)">
       <defs>
        <path d="M 2034 2216 
Q 1584 2216 1326 1975 
Q 1069 1734 1069 1313 
Q 1069 891 1326 650 
Q 1584 409 2034 409 
Q 2484 409 2743 651 
Q 3003 894 3003 1313 
Q 3003 1734 2745 1975 
Q 2488 2216 2034 2216 
z
M 1403 2484 
Q 997 2584 770 2862 
Q 544 3141 544 3541 
Q 544 4100 942 4425 
Q 1341 4750 2034 4750 
Q 2731 4750 3128 4425 
Q 3525 4100 3525 3541 
Q 3525 3141 3298 2862 
Q 3072 2584 2669 2484 
Q 3125 2378 3379 2068 
Q 3634 1759 3634 1313 
Q 3634 634 3220 271 
Q 2806 -91 2034 -91 
Q 1263 -91 848 271 
Q 434 634 434 1313 
Q 434 1759 690 2068 
Q 947 2378 1403 2484 
z
M 1172 3481 
Q 1172 3119 1398 2916 
Q 1625 2713 2034 2713 
Q 2441 2713 2670 2916 
Q 2900 3119 2900 3481 
Q 2900 3844 2670 4047 
Q 2441 4250 2034 4250 
Q 1625 4250 1398 4047 
Q 1172 3844 1172 3481 
z
" id="DejaVuSans-38" transform="scale(0.015625)"/>
       </defs>
       <use xlink:href="#DejaVuSans-38"/>
       <use x="63.623047" xlink:href="#DejaVuSans-30"/>
       <use x="127.246094" xlink:href="#DejaVuSans-30"/>
      </g>
     </g>
    </g>
    <g id="xtick_6">
     <g id="line2d_6">
      <g>
       <use style="stroke:#000000;stroke-width:0.8;" x="1358.129427" xlink:href="#m0be53cd61e" y="586.86358"/>
      </g>
     </g>
     <g id="text_6">
      <!-- 1000 -->
      <g transform="translate(1345.404427 601.462017)scale(0.1 -0.1)">
       <defs>
        <path d="M 794 531 
L 1825 531 
L 1825 4091 
L 703 3866 
L 703 4441 
L 1819 4666 
L 2450 4666 
L 2450 531 
L 3481 531 
L 3481 0 
L 794 0 
L 794 531 
z
" id="DejaVuSans-31" transform="scale(0.015625)"/>
       </defs>
       <use xlink:href="#DejaVuSans-31"/>
       <use x="63.623047" xlink:href="#DejaVuSans-30"/>
       <use x="127.246094" xlink:href="#DejaVuSans-30"/>
       <use x="190.869141" xlink:href="#DejaVuSans-30"/>
      </g>
     </g>
    </g>
    <g id="xtick_7">
     <g id="line2d_7">
      <g>
       <use style="stroke:#000000;stroke-width:0.8;" x="1605.78088" xlink:href="#m0be53cd61e" y="586.86358"/>
      </g>
     </g>
     <g id="text_7">
      <!-- 1200 -->
      <g transform="translate(1593.05588 601.462017)scale(0.1 -0.1)">
       <use xlink:href="#DejaVuSans-31"/>
       <use x="63.623047" xlink:href="#DejaVuSans-32"/>
       <use x="127.246094" xlink:href="#DejaVuSans-30"/>
       <use x="190.869141" xlink:href="#DejaVuSans-30"/>
      </g>
     </g>
    </g>
    <g id="text_8">
     <!-- frame -->
     <g transform="translate(865.954687 615.140142)scale(0.1 -0.1)">
      <defs>
       <path d="M 2375 4863 
L 2375 4384 
L 1825 4384 
Q 1516 4384 1395 4259 
Q 1275 4134 1275 3809 
L 1275 3500 
L 2222 3500 
L 2222 3053 
L 1275 3053 
L 1275 0 
L 697 0 
L 697 3053 
L 147 3053 
L 147 3500 
L 697 3500 
L 697 3744 
Q 697 4328 969 4595 
Q 1241 4863 1831 4863 
L 2375 4863 
z
" id="DejaVuSans-66" transform="scale(0.015625)"/>
       <path d="M 2631 2963 
Q 2534 3019 2420 3045 
Q 2306 3072 2169 3072 
Q 1681 3072 1420 2755 
Q 1159 2438 1159 1844 
L 1159 0 
L 581 0 
L 581 3500 
L 1159 3500 
L 1159 2956 
Q 1341 3275 1631 3429 
Q 1922 3584 2338 3584 
Q 2397 3584 2469 3576 
Q 2541 3569 2628 3553 
L 2631 2963 
z
" id="DejaVuSans-72" transform="scale(0.015625)"/>
       <path d="M 2194 1759 
Q 1497 1759 1228 1600 
Q 959 1441 959 1056 
Q 959 750 1161 570 
Q 1363 391 1709 391 
Q 2188 391 2477 730 
Q 2766 1069 2766 1631 
L 2766 1759 
L 2194 1759 
z
M 3341 1997 
L 3341 0 
L 2766 0 
L 2766 531 
Q 2569 213 2275 61 
Q 1981 -91 1556 -91 
Q 1019 -91 701 211 
Q 384 513 384 1019 
Q 384 1609 779 1909 
Q 1175 2209 1959 2209 
L 2766 2209 
L 2766 2266 
Q 2766 2663 2505 2880 
Q 2244 3097 1772 3097 
Q 1472 3097 1187 3025 
Q 903 2953 641 2809 
L 641 3341 
Q 956 3463 1253 3523 
Q 1550 3584 1831 3584 
Q 2591 3584 2966 3190 
Q 3341 2797 3341 1997 
z
" id="DejaVuSans-61" transform="scale(0.015625)"/>
       <path d="M 3328 2828 
Q 3544 3216 3844 3400 
Q 4144 3584 4550 3584 
Q 5097 3584 5394 3201 
Q 5691 2819 5691 2113 
L 5691 0 
L 5113 0 
L 5113 2094 
Q 5113 2597 4934 2840 
Q 4756 3084 4391 3084 
Q 3944 3084 3684 2787 
Q 3425 2491 3425 1978 
L 3425 0 
L 2847 0 
L 2847 2094 
Q 2847 2600 2669 2842 
Q 2491 3084 2119 3084 
Q 1678 3084 1418 2786 
Q 1159 2488 1159 1978 
L 1159 0 
L 581 0 
L 581 3500 
L 1159 3500 
L 1159 2956 
Q 1356 3278 1631 3431 
Q 1906 3584 2284 3584 
Q 2666 3584 2933 3390 
Q 3200 3197 3328 2828 
z
" id="DejaVuSans-6d" transform="scale(0.015625)"/>
       <path d="M 3597 1894 
L 3597 1613 
L 953 1613 
Q 991 1019 1311 708 
Q 1631 397 2203 397 
Q 2534 397 2845 478 
Q 3156 559 3463 722 
L 3463 178 
Q 3153 47 2828 -22 
Q 2503 -91 2169 -91 
Q 1331 -91 842 396 
Q 353 884 353 1716 
Q 353 2575 817 3079 
Q 1281 3584 2069 3584 
Q 2775 3584 3186 3129 
Q 3597 2675 3597 1894 
z
M 3022 2063 
Q 3016 2534 2758 2815 
Q 2500 3097 2075 3097 
Q 1594 3097 1305 2825 
Q 1016 2553 972 2059 
L 3022 2063 
z
" id="DejaVuSans-65" transform="scale(0.015625)"/>
      </defs>
      <use xlink:href="#DejaVuSans-66"/>
      <use x="35.205078" xlink:href="#DejaVuSans-72"/>
      <use x="76.318359" xlink:href="#DejaVuSans-61"/>
      <use x="137.597656" xlink:href="#DejaVuSans-6d"/>
      <use x="235.009766" xlink:href="#DejaVuSans-65"/>
     </g>
    </g>
   </g>
   <g id="matplotlib.axis_2">
    <g id="ytick_1">
     <g id="line2d_8">
      <defs>
       <path d="M 0 0 
L -3.5 0 
" id="m70b94f6e0d" style="stroke:#000000;stroke-width:0.8;"/>
      </defs>
      <g>
       <use style="stroke:#000000;stroke-width:0.8;" x="43.78125" xlink:href="#m70b94f6e0d" y="527.893951"/>
      </g>
     </g>
     <g id="text_9">
      <!-- 6 -->
      <g transform="translate(30.41875 531.69317)scale(0.1 -0.1)">
       <use xlink:href="#DejaVuSans-36"/>
      </g>
     </g>
    </g>
    <g id="ytick_2">
     <g id="line2d_9">
      <g>
       <use style="stroke:#000000;stroke-width:0.8;" x="43.78125" xlink:href="#m70b94f6e0d" y="453.719776"/>
      </g>
     </g>
     <g id="text_10">
      <!-- 8 -->
      <g transform="translate(30.41875 457.518995)scale(0.1 -0.1)">
       <use xlink:href="#DejaVuSans-38"/>
      </g>
     </g>
    </g>
    <g id="ytick_3">
     <g id="line2d_10">
      <g>
       <use style="stroke:#000000;stroke-width:0.8;" x="43.78125" xlink:href="#m70b94f6e0d" y="379.545602"/>
      </g>
     </g>
     <g id="text_11">
      <!-- 10 -->
      <g transform="translate(24.05625 383.34482)scale(0.1 -0.1)">
       <use xlink:href="#DejaVuSans-31"/>
       <use x="63.623047" xlink:href="#DejaVuSans-30"/>
      </g>
     </g>
    </g>
    <g id="ytick_4">
     <g id="line2d_11">
      <g>
       <use style="stroke:#000000;stroke-width:0.8;" x="43.78125" xlink:href="#m70b94f6e0d" y="305.371427"/>
      </g>
     </g>
     <g id="text_12">
      <!-- 12 -->
      <g transform="translate(24.05625 309.170646)scale(0.1 -0.1)">
       <use xlink:href="#DejaVuSans-31"/>
       <use x="63.623047" xlink:href="#DejaVuSans-32"/>
      </g>
     </g>
    </g>
    <g id="ytick_5">
     <g id="line2d_12">
      <g>
       <use style="stroke:#000000;stroke-width:0.8;" x="43.78125" xlink:href="#m70b94f6e0d" y="231.197252"/>
      </g>
     </g>
     <g id="text_13">
      <!-- 14 -->
      <g transform="translate(24.05625 234.996471)scale(0.1 -0.1)">
       <use xlink:href="#DejaVuSans-31"/>
       <use x="63.623047" xlink:href="#DejaVuSans-34"/>
      </g>
     </g>
    </g>
    <g id="ytick_6">
     <g id="line2d_13">
      <g>
       <use style="stroke:#000000;stroke-width:0.8;" x="43.78125" xlink:href="#m70b94f6e0d" y="157.023077"/>
      </g>
     </g>
     <g id="text_14">
      <!-- 16 -->
      <g transform="translate(24.05625 160.822296)scale(0.1 -0.1)">
       <use xlink:href="#DejaVuSans-31"/>
       <use x="63.623047" xlink:href="#DejaVuSans-36"/>
      </g>
     </g>
    </g>
    <g id="ytick_7">
     <g id="line2d_14">
      <g>
       <use style="stroke:#000000;stroke-width:0.8;" x="43.78125" xlink:href="#m70b94f6e0d" y="82.848902"/>
      </g>
     </g>
     <g id="text_15">
      <!-- 18 -->
      <g transform="translate(24.05625 86.648121)scale(0.1 -0.1)">
       <use xlink:href="#DejaVuSans-31"/>
       <use x="63.623047" xlink:href="#DejaVuSans-38"/>
      </g>
     </g>
    </g>
    <g id="text_16">
     <!-- GCaMP -->
     <g transform="translate(17.976562 322.349446)rotate(-90)scale(0.1 -0.1)">
      <defs>
       <path d="M 3809 666 
L 3809 1919 
L 2778 1919 
L 2778 2438 
L 4434 2438 
L 4434 434 
Q 4069 175 3628 42 
Q 3188 -91 2688 -91 
Q 1594 -91 976 548 
Q 359 1188 359 2328 
Q 359 3472 976 4111 
Q 1594 4750 2688 4750 
Q 3144 4750 3555 4637 
Q 3966 4525 4313 4306 
L 4313 3634 
Q 3963 3931 3569 4081 
Q 3175 4231 2741 4231 
Q 1884 4231 1454 3753 
Q 1025 3275 1025 2328 
Q 1025 1384 1454 906 
Q 1884 428 2741 428 
Q 3075 428 3337 486 
Q 3600 544 3809 666 
z
" id="DejaVuSans-47" transform="scale(0.015625)"/>
       <path d="M 4122 4306 
L 4122 3641 
Q 3803 3938 3442 4084 
Q 3081 4231 2675 4231 
Q 1875 4231 1450 3742 
Q 1025 3253 1025 2328 
Q 1025 1406 1450 917 
Q 1875 428 2675 428 
Q 3081 428 3442 575 
Q 3803 722 4122 1019 
L 4122 359 
Q 3791 134 3420 21 
Q 3050 -91 2638 -91 
Q 1578 -91 968 557 
Q 359 1206 359 2328 
Q 359 3453 968 4101 
Q 1578 4750 2638 4750 
Q 3056 4750 3426 4639 
Q 3797 4528 4122 4306 
z
" id="DejaVuSans-43" transform="scale(0.015625)"/>
       <path d="M 628 4666 
L 1569 4666 
L 2759 1491 
L 3956 4666 
L 4897 4666 
L 4897 0 
L 4281 0 
L 4281 4097 
L 3078 897 
L 2444 897 
L 1241 4097 
L 1241 0 
L 628 0 
L 628 4666 
z
" id="DejaVuSans-4d" transform="scale(0.015625)"/>
       <path d="M 1259 4147 
L 1259 2394 
L 2053 2394 
Q 2494 2394 2734 2622 
Q 2975 2850 2975 3272 
Q 2975 3691 2734 3919 
Q 2494 4147 2053 4147 
L 1259 4147 
z
M 628 4666 
L 2053 4666 
Q 2838 4666 3239 4311 
Q 3641 3956 3641 3272 
Q 3641 2581 3239 2228 
Q 2838 1875 2053 1875 
L 1259 1875 
L 1259 0 
L 628 0 
L 628 4666 
z
" id="DejaVuSans-50" transform="scale(0.015625)"/>
      </defs>
      <use xlink:href="#DejaVuSans-47"/>
      <use x="77.490234" xlink:href="#DejaVuSans-43"/>
      <use x="147.314453" xlink:href="#DejaVuSans-61"/>
      <use x="208.59375" xlink:href="#DejaVuSans-4d"/>
      <use x="294.873047" xlink:href="#DejaVuSans-50"/>
     </g>
    </g>
   </g>
   <g id="line2d_15">
    <path clip-path="url(#p765a8c450e)" d="M 119.872159 52.303846 
L 121.110416 51.171587 
L 123.586931 48.320259 
L 124.825188 47.979282 
L 126.063445 49.559019 
L 127.301703 53.30775 
L 128.53996 59.243444 
L 129.778217 67.419137 
L 133.492989 97.807031 
L 134.731246 105.590236 
L 135.969504 110.810474 
L 137.207761 113.563368 
L 138.446018 115.190405 
L 139.684275 117.308505 
L 142.16079 123.142006 
L 143.399047 124.436978 
L 144.637304 124.015298 
L 145.875562 123.879646 
L 147.113819 126.598461 
L 148.352076 132.701246 
L 149.590334 141.124438 
L 152.066848 160.87545 
L 153.305105 169.009853 
L 154.543363 174.741438 
L 155.78162 179.021109 
L 158.258134 186.142533 
L 161.972906 196.637686 
L 163.211163 197.956506 
L 164.449421 196.748984 
L 166.925935 190.232244 
L 168.164193 188.061286 
L 169.40245 188.183061 
L 170.640707 191.724712 
L 171.878964 199.347389 
L 173.117222 210.412657 
L 176.831993 248.435488 
L 178.070251 256.742927 
L 179.308508 260.906695 
L 180.546765 262.879115 
L 181.785022 265.738526 
L 183.02328 271.279259 
L 185.499794 287.942219 
L 186.738052 294.517257 
L 187.976309 297.148637 
L 189.214566 295.903442 
L 191.691081 288.341891 
L 192.929338 285.978819 
L 194.167595 286.355604 
L 195.405852 289.701678 
L 196.64411 295.828195 
L 197.882367 304.244892 
L 201.597139 334.399107 
L 202.835396 342.393495 
L 204.073653 346.634115 
L 205.311911 346.193424 
L 206.550168 341.705929 
L 207.788425 334.483106 
L 210.26494 317.124329 
L 211.503197 309.684579 
L 212.741454 304.428431 
L 213.979711 302.161201 
L 215.217969 303.426409 
L 216.456226 307.649529 
L 218.93274 318.323989 
L 221.409255 327.833323 
L 222.647512 330.84511 
L 223.88577 331.160774 
L 225.124027 328.606594 
L 226.362284 324.528531 
L 227.600541 321.078969 
L 228.838799 319.526443 
L 230.077056 319.562235 
L 232.55357 320.848905 
L 235.030085 321.612062 
L 236.268342 321.463787 
L 237.5066 319.313819 
L 238.744857 313.981392 
L 241.221371 298.49463 
L 242.459629 294.255613 
L 243.697886 294.853837 
L 244.936143 299.661697 
L 246.1744 307.496653 
L 248.650915 325.469232 
L 249.889172 332.252827 
L 251.127429 337.280024 
L 252.365687 341.280168 
L 253.603944 344.583118 
L 254.842201 347.067696 
L 256.080459 348.434606 
L 257.318716 348.229602 
L 258.556973 346.38261 
L 259.79523 343.966018 
L 261.033488 342.606618 
L 262.271745 343.1083 
L 263.510002 345.272473 
L 265.986517 351.766218 
L 267.224774 353.189057 
L 268.463031 351.712174 
L 269.701288 347.771858 
L 272.177803 337.774399 
L 273.41606 334.451411 
L 274.654318 333.389207 
L 275.892575 335.566952 
L 277.130832 341.483694 
L 279.607347 357.023808 
L 280.845604 361.942682 
L 282.083861 364.500849 
L 283.322118 366.559197 
L 284.560376 370.182793 
L 288.275147 386.49571 
L 289.513405 389.553672 
L 290.751662 390.824878 
L 294.466434 391.536927 
L 295.704691 391.214275 
L 296.942948 390.349457 
L 298.181206 390.62342 
L 299.419463 393.741498 
L 301.895977 405.407313 
L 303.134235 408.803691 
L 304.372492 408.652279 
L 305.610749 406.199121 
L 308.087264 400.375693 
L 309.325521 397.642165 
L 310.563778 394.441393 
L 311.802036 390.253599 
L 314.27855 380.421518 
L 315.516807 376.53386 
L 319.231579 366.516007 
L 320.469836 365.359601 
L 321.708094 366.716315 
L 322.946351 370.543405 
L 324.184608 376.774052 
L 326.661123 393.069495 
L 327.89938 399.326138 
L 329.137637 402.519138 
L 330.375895 402.88202 
L 331.614152 401.677165 
L 332.852409 400.851303 
L 334.090666 402.071769 
L 335.328924 405.632761 
L 336.567181 410.301776 
L 337.805438 414.27561 
L 339.043695 416.245156 
L 340.281953 415.740413 
L 341.52021 412.927323 
L 342.758467 408.328615 
L 343.996725 403.012243 
L 345.234982 398.908228 
L 346.473239 398.068356 
L 347.711496 401.442331 
L 348.949754 408.643478 
L 351.426268 427.721438 
L 352.664525 434.294201 
L 353.902783 435.888741 
L 355.14104 432.7383 
L 356.379297 426.784636 
L 358.855812 412.721845 
L 360.094069 406.457751 
L 361.332326 401.600316 
L 362.570584 398.505949 
L 363.808841 396.846193 
L 365.047098 395.448515 
L 366.285355 393.395652 
L 368.76187 388.488173 
L 370.000127 386.557689 
L 371.238384 385.545709 
L 372.476642 386.961158 
L 373.714899 391.792262 
L 374.953156 398.421579 
L 376.191413 403.954522 
L 377.429671 406.797855 
L 378.667928 406.780723 
L 379.906185 403.801987 
L 381.144443 397.881407 
L 382.3827 390.414939 
L 383.620957 383.962419 
L 384.859214 380.940415 
L 386.097472 382.817387 
L 387.335729 389.063783 
L 388.573986 396.94732 
L 389.812243 403.677455 
L 391.050501 408.164794 
L 392.288758 410.30399 
L 393.527015 409.998815 
L 394.765272 407.372633 
L 397.241787 398.804002 
L 398.480044 395.917577 
L 399.718302 395.052375 
L 400.956559 394.968152 
L 402.194816 393.222261 
L 403.433073 388.287542 
L 404.671331 381.293398 
L 405.909588 375.112719 
L 407.147845 372.506309 
L 408.386102 375.399427 
L 409.62436 384.027316 
L 412.100874 407.625639 
L 413.339132 415.020178 
L 414.577389 416.919502 
L 415.815646 414.62882 
L 417.053903 410.926812 
L 418.292161 408.611298 
L 419.530418 409.183513 
L 420.768675 412.376701 
L 422.006932 417.170701 
L 424.483447 428.22541 
L 425.721704 432.956177 
L 426.959961 436.306621 
L 428.198219 438.082329 
L 429.436476 438.375189 
L 430.674733 437.133562 
L 431.912991 434.11619 
L 433.151248 429.735165 
L 434.389505 425.835789 
L 435.627762 424.65122 
L 436.86602 426.711269 
L 438.104277 430.453938 
L 439.342534 433.492078 
L 440.580791 434.097708 
L 441.819049 432.633849 
L 443.057306 431.405412 
L 444.295563 432.280453 
L 445.53382 435.173333 
L 448.010335 442.671106 
L 449.248592 445.324239 
L 451.725107 448.694625 
L 452.963364 451.567237 
L 454.201621 455.085262 
L 455.439879 457.387201 
L 456.678136 456.535211 
L 457.916393 451.935661 
L 459.15465 444.673045 
L 460.392908 436.565637 
L 461.631165 429.415233 
L 462.869422 424.693381 
L 464.107679 422.668849 
L 465.345937 422.326058 
L 466.584194 423.05955 
L 467.822451 425.417895 
L 470.298966 433.674768 
L 471.537223 436.644279 
L 472.77548 437.699845 
L 474.013738 436.85063 
L 475.251995 434.949109 
L 476.490252 433.506524 
L 477.728509 433.507804 
L 478.966767 434.858478 
L 481.443281 438.798483 
L 482.681538 439.538387 
L 483.919796 438.425625 
L 485.158053 435.579935 
L 487.634568 427.543363 
L 488.872825 423.653845 
L 490.111082 421.456558 
L 491.349339 422.400153 
L 492.587597 426.457514 
L 493.825854 431.942738 
L 495.064111 436.660035 
L 496.302368 438.821886 
L 497.540626 437.728376 
L 498.778883 434.245906 
L 500.01714 430.256046 
L 501.255397 427.332862 
L 502.493655 425.741179 
L 503.731912 424.759554 
L 504.970169 424.11844 
L 506.208427 424.479198 
L 507.446684 426.217829 
L 509.923198 431.621717 
L 511.161456 434.322475 
L 512.399713 436.575707 
L 513.63797 438.292461 
L 514.876227 439.418116 
L 516.114485 439.218338 
L 517.352742 436.577832 
L 519.829257 426.234955 
L 521.067514 422.949809 
L 522.305771 422.95155 
L 523.544028 425.979473 
L 527.2588 440.1972 
L 529.735315 447.669151 
L 530.973572 450.811814 
L 532.211829 452.351719 
L 533.450086 452.325411 
L 534.688344 451.755973 
L 535.926601 451.642795 
L 537.164858 452.566151 
L 538.403116 454.551944 
L 539.641373 456.769531 
L 540.87963 457.889131 
L 542.117887 457.242417 
L 543.356145 455.281825 
L 544.594402 452.654541 
L 547.070916 446.562373 
L 548.309174 444.758978 
L 549.547431 444.872859 
L 550.785688 446.141144 
L 552.023945 447.072998 
L 553.262203 446.979303 
L 554.50046 446.637896 
L 555.738717 447.558481 
L 556.976975 450.749904 
L 558.215232 456.081966 
L 560.691746 469.035311 
L 561.930004 474.662283 
L 563.168261 478.324256 
L 564.406518 479.075103 
L 565.644775 476.876485 
L 566.883033 473.056846 
L 568.12129 469.988093 
L 569.359547 469.42101 
L 570.597804 471.016329 
L 571.836062 472.945388 
L 573.074319 473.427354 
L 574.312576 471.64609 
L 575.550834 467.965591 
L 578.027348 459.316423 
L 579.265605 456.015734 
L 581.74212 450.775979 
L 586.695149 438.031995 
L 587.933406 435.440049 
L 589.171663 433.455837 
L 590.409921 431.027192 
L 591.648178 426.550793 
L 594.124693 412.769098 
L 595.36295 407.814907 
L 596.601207 406.024215 
L 597.839464 406.176099 
L 599.077722 406.492328 
L 600.315979 406.62454 
L 601.554236 407.682751 
L 602.792493 410.733326 
L 605.269008 419.683117 
L 606.507265 421.841088 
L 607.745523 421.133175 
L 608.98378 418.026389 
L 611.460294 409.471485 
L 612.698552 406.127697 
L 613.936809 404.24234 
L 615.175066 404.616718 
L 616.413323 408.214023 
L 617.651581 414.857365 
L 621.366352 439.194422 
L 622.60461 445.141991 
L 623.842867 448.971146 
L 625.081124 451.052486 
L 626.319382 452.083135 
L 627.557639 452.786964 
L 628.795896 453.903992 
L 630.034153 455.835483 
L 631.272411 458.257541 
L 632.510668 460.375747 
L 636.22544 464.831713 
L 637.463697 466.858933 
L 638.701954 467.943639 
L 639.940211 466.922067 
L 641.178469 463.632046 
L 642.416726 458.732807 
L 643.654983 453.300887 
L 644.893241 448.79374 
L 646.131498 446.38962 
L 647.369755 446.186815 
L 648.608012 447.412441 
L 651.084527 450.851953 
L 652.322784 452.046836 
L 653.561041 452.983482 
L 654.799299 454.344812 
L 656.037556 456.417427 
L 657.275813 458.717254 
L 658.51407 460.424142 
L 659.752328 460.878708 
L 660.990585 459.925589 
L 662.228842 457.803459 
L 663.4671 454.818932 
L 664.705357 451.5146 
L 665.943614 448.709361 
L 667.181871 447.230472 
L 668.420129 447.868157 
L 669.658386 450.71278 
L 670.896643 454.178333 
L 672.1349 455.664649 
L 673.373158 453.560356 
L 674.611415 448.162874 
L 675.849672 440.705876 
L 678.326187 424.239863 
L 679.564444 417.34383 
L 680.802701 413.188022 
L 682.040959 413.352913 
L 683.279216 417.789383 
L 684.517473 424.093779 
L 685.75573 429.029263 
L 686.993988 430.76482 
L 688.232245 429.633943 
L 689.470502 426.929943 
L 693.185274 416.579801 
L 694.423531 412.907659 
L 695.661789 408.333946 
L 698.138303 398.006341 
L 699.37656 395.140089 
L 700.614818 394.948121 
L 701.853075 396.536019 
L 703.091332 398.384451 
L 704.329589 399.598813 
L 705.567847 400.501467 
L 706.806104 402.182773 
L 709.282618 408.006546 
L 710.520876 408.803415 
L 711.759133 407.382033 
L 712.99739 406.333346 
L 714.235648 408.022319 
L 716.712162 415.258693 
L 717.950419 417.182234 
L 719.188677 417.92355 
L 720.426934 418.167578 
L 721.665191 418.295439 
L 722.903448 418.654611 
L 724.141706 419.687554 
L 725.379963 421.601979 
L 726.61822 424.334116 
L 729.094735 431.371726 
L 730.332992 434.01179 
L 731.571249 434.183137 
L 732.809507 431.520809 
L 734.047764 427.611959 
L 735.286021 424.863499 
L 736.524278 424.525411 
L 737.762536 426.099907 
L 743.953822 438.273166 
L 745.192079 440.871236 
L 746.430336 442.932485 
L 747.668594 443.770094 
L 750.145108 443.274874 
L 751.383366 443.817028 
L 752.621623 445.170092 
L 755.098137 448.781044 
L 757.574652 452.762309 
L 760.051166 456.22602 
L 762.527681 459.425674 
L 763.765938 461.145882 
L 765.004195 462.30608 
L 766.242453 461.955348 
L 767.48071 459.767484 
L 768.718967 456.1374 
L 769.957225 452.011018 
L 771.195482 448.68616 
L 772.433739 446.889753 
L 773.671996 446.310539 
L 774.910254 446.346221 
L 776.148511 446.586599 
L 777.386768 446.675301 
L 778.625025 446.631925 
L 779.863283 447.089954 
L 781.10154 448.551242 
L 782.339797 450.425538 
L 783.578054 451.157856 
L 784.816312 449.864505 
L 786.054569 447.426224 
L 787.292826 445.280475 
L 788.531084 444.141307 
L 789.769341 444.333755 
L 791.007598 445.953088 
L 792.245855 448.311813 
L 793.484113 450.072784 
L 794.72237 450.129944 
L 795.960627 448.326482 
L 797.198884 445.644914 
L 798.437142 443.8582 
L 799.675399 444.404964 
L 800.913656 447.270327 
L 802.151914 451.093706 
L 803.390171 454.189814 
L 804.628428 455.775434 
L 805.866685 456.329784 
L 807.104943 456.663387 
L 808.3432 457.247273 
L 809.581457 458.342016 
L 810.819714 460.125053 
L 812.057972 462.432724 
L 813.296229 464.501648 
L 814.534486 465.471099 
L 815.772743 465.069909 
L 818.249258 462.261564 
L 819.487515 461.631066 
L 820.725773 461.567732 
L 821.96403 460.336284 
L 823.202287 456.443446 
L 824.440544 450.827929 
L 825.678802 446.594234 
L 826.917059 446.219185 
L 828.155316 449.29722 
L 830.631831 457.641325 
L 834.346602 468.563262 
L 836.823117 476.644372 
L 838.061374 479.425545 
L 839.299632 480.03152 
L 840.537889 478.276804 
L 841.776146 475.138787 
L 843.014403 472.536706 
L 844.252661 472.202728 
L 845.490918 474.42424 
L 847.967432 481.30792 
L 849.20569 483.387984 
L 850.443947 483.67465 
L 851.682204 481.765463 
L 852.920461 477.614358 
L 856.635233 459.703867 
L 857.873491 455.138031 
L 859.111748 452.278833 
L 860.350005 452.050339 
L 861.588262 455.375671 
L 864.064777 467.837603 
L 865.303034 471.194155 
L 866.541291 471.386764 
L 867.779549 470.169459 
L 869.017806 469.354182 
L 870.256063 469.648882 
L 871.49432 470.863368 
L 875.209092 476.017868 
L 876.44735 476.792209 
L 877.685607 476.741754 
L 878.923864 475.639436 
L 880.162121 473.099477 
L 881.400379 469.060509 
L 883.876893 459.623336 
L 885.11515 455.615046 
L 886.353408 452.429862 
L 887.591665 450.568982 
L 888.829922 450.621525 
L 890.06818 452.602956 
L 891.306437 455.803886 
L 892.544694 459.318163 
L 893.782951 462.36817 
L 895.021209 464.624425 
L 897.497723 468.428582 
L 898.73598 469.91606 
L 899.974238 470.160166 
L 901.212495 469.005024 
L 902.450752 467.110112 
L 903.689009 465.462272 
L 904.927267 464.918989 
L 906.165524 465.935488 
L 907.403781 468.313508 
L 908.642039 471.472918 
L 911.118553 478.643455 
L 912.35681 481.724628 
L 913.595068 483.625035 
L 914.833325 483.994231 
L 916.071582 483.113556 
L 917.309839 482.065397 
L 918.548097 482.123762 
L 919.786354 483.320513 
L 921.024611 484.217391 
L 923.501126 483.734814 
L 924.739383 485.040388 
L 925.97764 488.646268 
L 928.454155 500.265985 
L 929.692412 504.556841 
L 930.930669 505.11098 
L 932.168927 501.537541 
L 933.407184 495.140629 
L 934.645441 487.769992 
L 935.883698 481.192375 
L 937.121956 477.42873 
L 938.360213 478.040716 
L 939.59847 483.002547 
L 940.836727 491.160982 
L 943.313242 510.993629 
L 944.551499 518.966777 
L 945.789757 523.517096 
L 947.028014 524.390681 
L 948.266271 522.196412 
L 949.504528 517.559493 
L 950.742786 510.968589 
L 953.2193 495.607526 
L 954.457557 489.124315 
L 955.695815 484.202747 
L 956.934072 480.932636 
L 958.172329 479.487379 
L 959.410586 479.975422 
L 960.648844 482.195845 
L 963.125358 489.46923 
L 964.363616 492.090148 
L 965.601873 492.103983 
L 966.84013 489.261256 
L 968.078387 485.24139 
L 969.316645 482.450583 
L 970.554902 481.960494 
L 971.793159 483.432236 
L 973.031416 486.440776 
L 974.269674 490.890616 
L 976.746188 502.691235 
L 977.984446 508.473596 
L 979.222703 513.06554 
L 980.46096 515.706544 
L 981.699217 515.778774 
L 982.937475 513.232379 
L 984.175732 508.689511 
L 986.652246 497.173565 
L 987.890504 492.553516 
L 989.128761 490.525432 
L 990.367018 491.555226 
L 991.605275 495.116177 
L 994.08179 504.68906 
L 995.320047 507.519939 
L 996.558305 508.291724 
L 997.796562 508.068618 
L 999.034819 508.107882 
L 1000.273076 508.913692 
L 1001.511334 509.906396 
L 1002.749591 509.522451 
L 1003.987848 506.447365 
L 1006.464363 496.471086 
L 1007.70262 494.041045 
L 1008.940877 494.364405 
L 1010.179134 495.899102 
L 1011.417392 496.665871 
L 1013.893906 495.787432 
L 1015.132164 496.008858 
L 1016.370421 496.866916 
L 1017.608678 498.176518 
L 1020.085193 501.892036 
L 1021.32345 502.980439 
L 1022.561707 502.398224 
L 1023.799964 500.135569 
L 1026.276479 493.416121 
L 1027.514736 491.411509 
L 1028.752993 491.360698 
L 1029.991251 492.457578 
L 1031.229508 493.118416 
L 1032.467765 492.341669 
L 1033.706023 490.685563 
L 1034.94428 489.711995 
L 1036.182537 490.475722 
L 1037.420794 492.972649 
L 1038.659052 496.76941 
L 1041.135566 505.898431 
L 1042.373823 509.801346 
L 1043.612081 512.884038 
L 1044.850338 515.26861 
L 1048.56511 521.173647 
L 1049.803367 521.780508 
L 1051.041624 520.165936 
L 1052.279882 516.140633 
L 1054.756396 505.5477 
L 1055.994653 501.857969 
L 1057.232911 499.394869 
L 1058.471168 497.542991 
L 1059.709425 496.166006 
L 1060.947682 495.571675 
L 1063.424197 495.990756 
L 1064.662454 495.641084 
L 1065.900711 495.434182 
L 1067.138969 497.047368 
L 1068.377226 501.299606 
L 1069.615483 506.857944 
L 1070.853741 511.051624 
L 1072.091998 511.690036 
L 1073.330255 508.181163 
L 1075.80677 495.657414 
L 1077.045027 492.528509 
L 1078.283284 493.883669 
L 1079.521541 498.942605 
L 1081.998056 513.420988 
L 1083.236313 520.695479 
L 1084.474571 526.972393 
L 1085.712828 531.768733 
L 1086.951085 535.019891 
L 1088.189342 536.788756 
L 1089.4276 537.336987 
L 1090.665857 537.154848 
L 1091.904114 536.409742 
L 1093.142371 534.695346 
L 1094.380629 531.504338 
L 1096.857143 522.312705 
L 1098.0954 519.829858 
L 1099.333658 521.270312 
L 1100.571915 526.592439 
L 1101.810172 533.655475 
L 1103.04843 539.442267 
L 1104.286687 541.9394 
L 1105.524944 541.210234 
L 1108.001459 536.428067 
L 1109.239716 534.492479 
L 1110.477973 533.694578 
L 1111.71623 534.391386 
L 1114.192745 537.094612 
L 1115.431002 538.42191 
L 1116.669259 540.625037 
L 1117.907517 543.468648 
L 1119.145774 545.486268 
L 1120.384031 545.652281 
L 1121.622289 544.085557 
L 1122.860546 541.252921 
L 1124.098803 537.951182 
L 1125.33706 535.525894 
L 1126.575318 534.807744 
L 1127.813575 535.474134 
L 1129.051832 536.891741 
L 1131.528347 540.323593 
L 1132.766604 541.122513 
L 1134.004861 540.534191 
L 1136.481376 536.896588 
L 1137.719633 536.089358 
L 1138.95789 537.146113 
L 1140.196148 539.68468 
L 1141.434405 542.524878 
L 1142.672662 544.986575 
L 1143.910919 546.777527 
L 1145.149177 547.043493 
L 1146.387434 545.007969 
L 1147.625691 541.073101 
L 1148.863948 536.766048 
L 1150.102206 533.905518 
L 1151.340463 533.185268 
L 1152.57872 533.700294 
L 1153.816977 534.438747 
L 1155.055235 535.467849 
L 1156.293492 537.441441 
L 1158.770007 543.036632 
L 1160.008264 543.958954 
L 1161.246521 542.807742 
L 1163.723036 538.198045 
L 1164.961293 536.787622 
L 1166.19955 536.522193 
L 1167.437807 537.486877 
L 1168.676065 540.022698 
L 1171.152579 548.497574 
L 1172.390837 551.479837 
L 1173.629094 551.964597 
L 1174.867351 549.916097 
L 1177.343866 542.094924 
L 1178.582123 539.423373 
L 1179.82038 539.117869 
L 1181.058637 540.442876 
L 1182.296895 541.395344 
L 1183.535152 540.516185 
L 1184.773409 537.950701 
L 1186.011666 534.920109 
L 1187.249924 532.383278 
L 1188.488181 530.156771 
L 1190.964696 525.080502 
L 1192.202953 524.044282 
L 1193.44121 525.03755 
L 1194.679467 526.877989 
L 1195.917725 528.062725 
L 1197.155982 528.157451 
L 1198.394239 527.458314 
L 1202.109011 524.314659 
L 1203.347268 522.516425 
L 1205.823783 516.428168 
L 1207.06204 515.352807 
L 1208.300297 516.847993 
L 1210.776812 522.361031 
L 1212.015069 524.42995 
L 1213.253326 525.743291 
L 1214.491584 526.174927 
L 1215.729841 525.824357 
L 1216.968098 525.259996 
L 1218.206355 525.202693 
L 1219.444613 526.154233 
L 1220.68287 528.453569 
L 1221.921127 532.208729 
L 1223.159384 536.747201 
L 1224.397642 540.457441 
L 1225.635899 541.878365 
L 1226.874156 541.115665 
L 1229.350671 537.951952 
L 1230.588928 535.886501 
L 1231.827185 533.442371 
L 1233.065443 531.439107 
L 1234.3037 530.086268 
L 1235.541957 529.190241 
L 1236.780214 528.923247 
L 1238.018472 529.489601 
L 1239.256729 530.821952 
L 1240.494986 532.780616 
L 1241.733243 535.030282 
L 1242.971501 536.649859 
L 1244.209758 536.777809 
L 1245.448015 535.676453 
L 1246.686273 534.408404 
L 1247.92453 533.974433 
L 1249.162787 534.951648 
L 1250.401044 537.261246 
L 1251.639302 540.539901 
L 1254.115816 548.644434 
L 1255.354073 551.337608 
L 1256.592331 551.60356 
L 1257.830588 549.622305 
L 1259.068845 546.32835 
L 1260.307103 542.585003 
L 1261.54536 539.315358 
L 1262.783617 537.592027 
L 1264.021874 537.488913 
L 1265.260132 537.650477 
L 1266.498389 536.870773 
L 1267.736646 535.367359 
L 1268.974903 534.215933 
L 1270.213161 534.28206 
L 1271.451418 535.726945 
L 1273.927932 540.531663 
L 1276.404447 545.108431 
L 1277.642704 546.71659 
L 1278.880962 547.11424 
L 1280.119219 545.900253 
L 1281.357476 542.942979 
L 1282.595733 539.069568 
L 1283.833991 536.64687 
L 1285.072248 537.840757 
L 1286.310505 542.563357 
L 1288.78702 555.56408 
L 1290.025277 560.102034 
L 1291.263534 561.202423 
L 1292.501791 558.123889 
L 1293.740049 551.627019 
L 1294.978306 544.248398 
L 1296.216563 539.087311 
L 1297.454821 537.760277 
L 1298.693078 539.494505 
L 1299.931335 542.104636 
L 1301.169592 543.522666 
L 1302.40785 542.770682 
L 1303.646107 540.185199 
L 1304.884364 536.954658 
L 1306.122621 534.379137 
L 1307.360879 533.186459 
L 1308.599136 533.164033 
L 1309.837393 533.367409 
L 1311.07565 532.980544 
L 1312.313908 531.859269 
L 1313.552165 529.995428 
L 1316.02868 524.555929 
L 1317.266937 522.468074 
L 1318.505194 521.363316 
L 1319.743451 521.078631 
L 1320.981709 521.798162 
L 1322.219966 523.717981 
L 1327.172995 534.420211 
L 1328.411252 535.401073 
L 1329.649509 534.144214 
L 1332.126024 528.453866 
L 1334.602539 522.554785 
L 1337.079053 515.886786 
L 1339.555568 508.537953 
L 1340.793825 506.275515 
L 1343.270339 504.050464 
L 1344.508597 501.915564 
L 1349.461626 490.204027 
L 1350.699883 486.349875 
L 1351.93814 483.466353 
L 1353.176398 483.044496 
L 1354.414655 484.498414 
L 1355.652912 486.151929 
L 1358.129427 488.088049 
L 1359.367684 490.22687 
L 1360.605941 494.788266 
L 1361.844198 501.920864 
L 1363.082456 510.27919 
L 1364.320713 517.32526 
L 1365.55897 520.582766 
L 1366.797228 519.236582 
L 1369.273742 510.181966 
L 1370.511999 507.698795 
L 1371.750257 507.748704 
L 1372.988514 508.923275 
L 1374.226771 509.703651 
L 1375.465028 509.447459 
L 1376.703286 508.168242 
L 1380.418057 502.326859 
L 1381.656315 501.660176 
L 1382.894572 502.814125 
L 1384.132829 505.589203 
L 1385.371087 509.146834 
L 1386.609344 512.327045 
L 1387.847601 513.49455 
L 1389.085858 511.655896 
L 1390.324116 507.973645 
L 1391.562373 504.932461 
L 1392.80063 504.211563 
L 1394.038887 505.971223 
L 1395.277145 509.750592 
L 1396.515402 515.181782 
L 1397.753659 521.263718 
L 1398.991916 525.966185 
L 1400.230174 527.586898 
L 1401.468431 525.603286 
L 1402.706688 520.3389 
L 1405.183203 505.647697 
L 1406.42146 499.827941 
L 1407.659717 497.004091 
L 1408.897975 498.384776 
L 1410.136232 503.815614 
L 1411.374489 511.197313 
L 1412.612746 517.805466 
L 1413.851004 521.844946 
L 1415.089261 522.927933 
L 1416.327518 521.433408 
L 1417.565775 517.540534 
L 1420.04229 505.990042 
L 1421.280547 502.761283 
L 1422.518805 503.484669 
L 1423.757062 508.145943 
L 1424.995319 515.670701 
L 1426.233576 524.240349 
L 1427.471834 531.769446 
L 1428.710091 536.455096 
L 1429.948348 537.343365 
L 1431.186605 534.483924 
L 1432.424863 528.51634 
L 1433.66312 520.885086 
L 1434.901377 514.240594 
L 1436.139634 511.243397 
L 1437.377892 512.611469 
L 1438.616149 516.749503 
L 1439.854406 521.380206 
L 1441.092664 525.140887 
L 1442.330921 527.598727 
L 1443.569178 528.62795 
L 1444.807435 528.186655 
L 1447.28395 524.880091 
L 1448.522207 524.262232 
L 1449.760464 524.650374 
L 1450.998722 524.644879 
L 1452.236979 523.247099 
L 1453.475236 520.844511 
L 1455.951751 515.554288 
L 1457.190008 513.893349 
L 1458.428265 515.151639 
L 1459.666523 520.297912 
L 1460.90478 527.802976 
L 1462.143037 534.606866 
L 1463.381294 538.101138 
L 1464.619552 537.176888 
L 1465.857809 532.176542 
L 1467.096066 524.939936 
L 1468.334323 518.467311 
L 1469.572581 515.198096 
L 1470.810838 515.222474 
L 1472.049095 516.435485 
L 1473.287353 516.814909 
L 1474.52561 516.067737 
L 1475.763867 514.721555 
L 1477.002124 512.859127 
L 1478.240382 510.68317 
L 1479.478639 509.514129 
L 1480.716896 510.522392 
L 1481.955153 512.413415 
L 1483.193411 512.232744 
L 1484.431668 508.58143 
L 1485.669925 502.851302 
L 1486.908182 498.033607 
L 1488.14644 496.980703 
L 1489.384697 500.714064 
L 1491.861212 514.071616 
L 1493.099469 517.592082 
L 1494.337726 517.804412 
L 1495.575983 516.066752 
L 1496.814241 513.755499 
L 1498.052498 511.165208 
L 1499.290755 507.701583 
L 1501.76727 498.314693 
L 1503.005527 494.671069 
L 1504.243784 493.75291 
L 1505.482041 495.957756 
L 1506.720299 499.963805 
L 1507.958556 504.421094 
L 1509.196813 509.433209 
L 1512.911585 527.40234 
L 1514.149842 532.236075 
L 1515.3881 535.151278 
L 1516.626357 535.031376 
L 1517.864614 531.862688 
L 1519.102871 527.213979 
L 1520.341129 523.059924 
L 1521.579386 520.668212 
L 1522.817643 520.363385 
L 1524.0559 521.543784 
L 1525.294158 522.912251 
L 1526.532415 523.067533 
L 1527.770672 521.122798 
L 1529.00893 517.060556 
L 1531.485444 506.459304 
L 1532.723701 502.968209 
L 1533.961959 502.01558 
L 1535.200216 503.239757 
L 1536.438473 505.433688 
L 1537.67673 506.990847 
L 1538.914988 506.834203 
L 1540.153245 504.76553 
L 1541.391502 501.307883 
L 1542.62976 498.339577 
L 1543.868017 498.511187 
L 1545.106274 502.581867 
L 1547.582789 514.828015 
L 1548.821046 519.841424 
L 1550.059303 523.15468 
L 1551.29756 524.495193 
L 1552.535818 524.05637 
L 1553.774075 522.303726 
L 1555.012332 520.14115 
L 1556.250589 518.83677 
L 1557.488847 518.654761 
L 1558.727104 517.91393 
L 1559.965361 514.20553 
L 1561.203619 506.377001 
L 1563.680133 485.415021 
L 1564.91839 478.567388 
L 1566.156648 475.796725 
L 1567.394905 475.492255 
L 1568.633162 475.961226 
L 1569.871419 476.989593 
L 1571.109677 479.298703 
L 1572.347934 483.215861 
L 1576.062706 498.095255 
L 1577.300963 500.774098 
L 1578.53922 501.442561 
L 1579.777478 501.032978 
L 1581.015735 501.204525 
L 1582.253992 503.476253 
L 1583.492249 507.851199 
L 1584.730507 512.838554 
L 1585.968764 517.211297 
L 1587.207021 520.669613 
L 1588.445278 522.931602 
L 1589.683536 523.323294 
L 1590.921793 521.389916 
L 1592.16005 517.652845 
L 1597.113079 500.381747 
L 1598.351337 497.348599 
L 1599.589594 496.755995 
L 1600.827851 499.37627 
L 1602.066108 505.027323 
L 1604.542623 518.777892 
L 1605.78088 523.706764 
L 1607.019137 526.046156 
L 1608.257395 525.111755 
L 1609.495652 521.312678 
L 1610.733909 516.880738 
L 1611.972166 514.744237 
L 1613.210424 516.235068 
L 1614.448681 520.468301 
L 1616.925196 530.564385 
L 1619.40171 538.234927 
L 1621.878225 545.93902 
L 1623.116482 548.488204 
L 1624.354739 548.817197 
L 1625.592996 546.767453 
L 1626.831254 542.958363 
L 1633.02254 519.139347 
L 1634.260797 515.139259 
L 1635.499055 513.422761 
L 1636.737312 515.278999 
L 1637.975569 520.04161 
L 1639.213826 525.650496 
L 1640.452084 530.595802 
L 1641.690341 534.776661 
L 1641.690341 534.776661 
" style="fill:none;stroke:#008000;stroke-linecap:square;stroke-width:1.5;"/>
   </g>
   <g id="patch_3">
    <path d="M 43.78125 586.86358 
L 43.78125 22.318125 
" style="fill:none;stroke:#000000;stroke-linecap:square;stroke-linejoin:miter;stroke-width:0.8;"/>
   </g>
   <g id="patch_4">
    <path d="M 1717.78125 586.86358 
L 1717.78125 22.318125 
" style="fill:none;stroke:#000000;stroke-linecap:square;stroke-linejoin:miter;stroke-width:0.8;"/>
   </g>
   <g id="patch_5">
    <path d="M 43.78125 586.86358 
L 1717.78125 586.86358 
" style="fill:none;stroke:#000000;stroke-linecap:square;stroke-linejoin:miter;stroke-width:0.8;"/>
   </g>
   <g id="patch_6">
    <path d="M 43.78125 22.318125 
L 1717.78125 22.318125 
" style="fill:none;stroke:#000000;stroke-linecap:square;stroke-linejoin:miter;stroke-width:0.8;"/>
   </g>
   <g id="text_17">
    <!-- before binarisation -->
    <g transform="translate(824.1825 16.318125)scale(0.12 -0.12)">
     <defs>
      <path d="M 3116 1747 
Q 3116 2381 2855 2742 
Q 2594 3103 2138 3103 
Q 1681 3103 1420 2742 
Q 1159 2381 1159 1747 
Q 1159 1113 1420 752 
Q 1681 391 2138 391 
Q 2594 391 2855 752 
Q 3116 1113 3116 1747 
z
M 1159 2969 
Q 1341 3281 1617 3432 
Q 1894 3584 2278 3584 
Q 2916 3584 3314 3078 
Q 3713 2572 3713 1747 
Q 3713 922 3314 415 
Q 2916 -91 2278 -91 
Q 1894 -91 1617 61 
Q 1341 213 1159 525 
L 1159 0 
L 581 0 
L 581 4863 
L 1159 4863 
L 1159 2969 
z
" id="DejaVuSans-62" transform="scale(0.015625)"/>
      <path d="M 1959 3097 
Q 1497 3097 1228 2736 
Q 959 2375 959 1747 
Q 959 1119 1226 758 
Q 1494 397 1959 397 
Q 2419 397 2687 759 
Q 2956 1122 2956 1747 
Q 2956 2369 2687 2733 
Q 2419 3097 1959 3097 
z
M 1959 3584 
Q 2709 3584 3137 3096 
Q 3566 2609 3566 1747 
Q 3566 888 3137 398 
Q 2709 -91 1959 -91 
Q 1206 -91 779 398 
Q 353 888 353 1747 
Q 353 2609 779 3096 
Q 1206 3584 1959 3584 
z
" id="DejaVuSans-6f" transform="scale(0.015625)"/>
      <path id="DejaVuSans-20" transform="scale(0.015625)"/>
      <path d="M 603 3500 
L 1178 3500 
L 1178 0 
L 603 0 
L 603 3500 
z
M 603 4863 
L 1178 4863 
L 1178 4134 
L 603 4134 
L 603 4863 
z
" id="DejaVuSans-69" transform="scale(0.015625)"/>
      <path d="M 3513 2113 
L 3513 0 
L 2938 0 
L 2938 2094 
Q 2938 2591 2744 2837 
Q 2550 3084 2163 3084 
Q 1697 3084 1428 2787 
Q 1159 2491 1159 1978 
L 1159 0 
L 581 0 
L 581 3500 
L 1159 3500 
L 1159 2956 
Q 1366 3272 1645 3428 
Q 1925 3584 2291 3584 
Q 2894 3584 3203 3211 
Q 3513 2838 3513 2113 
z
" id="DejaVuSans-6e" transform="scale(0.015625)"/>
      <path d="M 2834 3397 
L 2834 2853 
Q 2591 2978 2328 3040 
Q 2066 3103 1784 3103 
Q 1356 3103 1142 2972 
Q 928 2841 928 2578 
Q 928 2378 1081 2264 
Q 1234 2150 1697 2047 
L 1894 2003 
Q 2506 1872 2764 1633 
Q 3022 1394 3022 966 
Q 3022 478 2636 193 
Q 2250 -91 1575 -91 
Q 1294 -91 989 -36 
Q 684 19 347 128 
L 347 722 
Q 666 556 975 473 
Q 1284 391 1588 391 
Q 1994 391 2212 530 
Q 2431 669 2431 922 
Q 2431 1156 2273 1281 
Q 2116 1406 1581 1522 
L 1381 1569 
Q 847 1681 609 1914 
Q 372 2147 372 2553 
Q 372 3047 722 3315 
Q 1072 3584 1716 3584 
Q 2034 3584 2315 3537 
Q 2597 3491 2834 3397 
z
" id="DejaVuSans-73" transform="scale(0.015625)"/>
      <path d="M 1172 4494 
L 1172 3500 
L 2356 3500 
L 2356 3053 
L 1172 3053 
L 1172 1153 
Q 1172 725 1289 603 
Q 1406 481 1766 481 
L 2356 481 
L 2356 0 
L 1766 0 
Q 1100 0 847 248 
Q 594 497 594 1153 
L 594 3053 
L 172 3053 
L 172 3500 
L 594 3500 
L 594 4494 
L 1172 4494 
z
" id="DejaVuSans-74" transform="scale(0.015625)"/>
     </defs>
     <use xlink:href="#DejaVuSans-62"/>
     <use x="63.476562" xlink:href="#DejaVuSans-65"/>
     <use x="125" xlink:href="#DejaVuSans-66"/>
     <use x="160.205078" xlink:href="#DejaVuSans-6f"/>
     <use x="221.386719" xlink:href="#DejaVuSans-72"/>
     <use x="260.25" xlink:href="#DejaVuSans-65"/>
     <use x="321.773438" xlink:href="#DejaVuSans-20"/>
     <use x="353.560547" xlink:href="#DejaVuSans-62"/>
     <use x="417.037109" xlink:href="#DejaVuSans-69"/>
     <use x="444.820312" xlink:href="#DejaVuSans-6e"/>
     <use x="508.199219" xlink:href="#DejaVuSans-61"/>
     <use x="569.478516" xlink:href="#DejaVuSans-72"/>
     <use x="610.591797" xlink:href="#DejaVuSans-69"/>
     <use x="638.375" xlink:href="#DejaVuSans-73"/>
     <use x="690.474609" xlink:href="#DejaVuSans-61"/>
     <use x="751.753906" xlink:href="#DejaVuSans-74"/>
     <use x="790.962891" xlink:href="#DejaVuSans-69"/>
     <use x="818.746094" xlink:href="#DejaVuSans-6f"/>
     <use x="879.927734" xlink:href="#DejaVuSans-6e"/>
    </g>
   </g>
  </g>
  <g id="axes_2">
   <g id="patch_7">
    <path d="M 43.78125 1264.318125 
L 1717.78125 1264.318125 
L 1717.78125 699.77267 
L 43.78125 699.77267 
z
" style="fill:#ffffff;"/>
   </g>
   <g id="matplotlib.axis_3">
    <g id="xtick_8">
     <g id="line2d_16">
      <g>
       <use style="stroke:#000000;stroke-width:0.8;" x="119.872159" xlink:href="#m0be53cd61e" y="1264.318125"/>
      </g>
     </g>
     <g id="text_18">
      <!-- 0 -->
      <g transform="translate(116.690909 1278.916563)scale(0.1 -0.1)">
       <use xlink:href="#DejaVuSans-30"/>
      </g>
     </g>
    </g>
    <g id="xtick_9">
     <g id="line2d_17">
      <g>
       <use style="stroke:#000000;stroke-width:0.8;" x="367.523613" xlink:href="#m0be53cd61e" y="1264.318125"/>
      </g>
     </g>
     <g id="text_19">
      <!-- 200 -->
      <g transform="translate(357.979863 1278.916563)scale(0.1 -0.1)">
       <use xlink:href="#DejaVuSans-32"/>
       <use x="63.623047" xlink:href="#DejaVuSans-30"/>
       <use x="127.246094" xlink:href="#DejaVuSans-30"/>
      </g>
     </g>
    </g>
    <g id="xtick_10">
     <g id="line2d_18">
      <g>
       <use style="stroke:#000000;stroke-width:0.8;" x="615.175066" xlink:href="#m0be53cd61e" y="1264.318125"/>
      </g>
     </g>
     <g id="text_20">
      <!-- 400 -->
      <g transform="translate(605.631316 1278.916563)scale(0.1 -0.1)">
       <use xlink:href="#DejaVuSans-34"/>
       <use x="63.623047" xlink:href="#DejaVuSans-30"/>
       <use x="127.246094" xlink:href="#DejaVuSans-30"/>
      </g>
     </g>
    </g>
    <g id="xtick_11">
     <g id="line2d_19">
      <g>
       <use style="stroke:#000000;stroke-width:0.8;" x="862.82652" xlink:href="#m0be53cd61e" y="1264.318125"/>
      </g>
     </g>
     <g id="text_21">
      <!-- 600 -->
      <g transform="translate(853.28277 1278.916563)scale(0.1 -0.1)">
       <use xlink:href="#DejaVuSans-36"/>
       <use x="63.623047" xlink:href="#DejaVuSans-30"/>
       <use x="127.246094" xlink:href="#DejaVuSans-30"/>
      </g>
     </g>
    </g>
    <g id="xtick_12">
     <g id="line2d_20">
      <g>
       <use style="stroke:#000000;stroke-width:0.8;" x="1110.477973" xlink:href="#m0be53cd61e" y="1264.318125"/>
      </g>
     </g>
     <g id="text_22">
      <!-- 800 -->
      <g transform="translate(1100.934223 1278.916563)scale(0.1 -0.1)">
       <use xlink:href="#DejaVuSans-38"/>
       <use x="63.623047" xlink:href="#DejaVuSans-30"/>
       <use x="127.246094" xlink:href="#DejaVuSans-30"/>
      </g>
     </g>
    </g>
    <g id="xtick_13">
     <g id="line2d_21">
      <g>
       <use style="stroke:#000000;stroke-width:0.8;" x="1358.129427" xlink:href="#m0be53cd61e" y="1264.318125"/>
      </g>
     </g>
     <g id="text_23">
      <!-- 1000 -->
      <g transform="translate(1345.404427 1278.916563)scale(0.1 -0.1)">
       <use xlink:href="#DejaVuSans-31"/>
       <use x="63.623047" xlink:href="#DejaVuSans-30"/>
       <use x="127.246094" xlink:href="#DejaVuSans-30"/>
       <use x="190.869141" xlink:href="#DejaVuSans-30"/>
      </g>
     </g>
    </g>
    <g id="xtick_14">
     <g id="line2d_22">
      <g>
       <use style="stroke:#000000;stroke-width:0.8;" x="1605.78088" xlink:href="#m0be53cd61e" y="1264.318125"/>
      </g>
     </g>
     <g id="text_24">
      <!-- 1200 -->
      <g transform="translate(1593.05588 1278.916563)scale(0.1 -0.1)">
       <use xlink:href="#DejaVuSans-31"/>
       <use x="63.623047" xlink:href="#DejaVuSans-32"/>
       <use x="127.246094" xlink:href="#DejaVuSans-30"/>
       <use x="190.869141" xlink:href="#DejaVuSans-30"/>
      </g>
     </g>
    </g>
    <g id="text_25">
     <!-- frame -->
     <g transform="translate(865.954687 1292.594688)scale(0.1 -0.1)">
      <use xlink:href="#DejaVuSans-66"/>
      <use x="35.205078" xlink:href="#DejaVuSans-72"/>
      <use x="76.318359" xlink:href="#DejaVuSans-61"/>
      <use x="137.597656" xlink:href="#DejaVuSans-6d"/>
      <use x="235.009766" xlink:href="#DejaVuSans-65"/>
     </g>
    </g>
   </g>
   <g id="matplotlib.axis_4">
    <g id="ytick_8">
     <g id="line2d_23">
      <g>
       <use style="stroke:#000000;stroke-width:0.8;" x="43.78125" xlink:href="#m70b94f6e0d" y="1238.656968"/>
      </g>
     </g>
     <g id="text_26">
      <!-- 0.0 -->
      <g transform="translate(20.878125 1242.456187)scale(0.1 -0.1)">
       <defs>
        <path d="M 684 794 
L 1344 794 
L 1344 0 
L 684 0 
L 684 794 
z
" id="DejaVuSans-2e" transform="scale(0.015625)"/>
       </defs>
       <use xlink:href="#DejaVuSans-30"/>
       <use x="63.623047" xlink:href="#DejaVuSans-2e"/>
       <use x="95.410156" xlink:href="#DejaVuSans-30"/>
      </g>
     </g>
    </g>
    <g id="ytick_9">
     <g id="line2d_24">
      <g>
       <use style="stroke:#000000;stroke-width:0.8;" x="43.78125" xlink:href="#m70b94f6e0d" y="1136.01234"/>
      </g>
     </g>
     <g id="text_27">
      <!-- 0.2 -->
      <g transform="translate(20.878125 1139.811559)scale(0.1 -0.1)">
       <use xlink:href="#DejaVuSans-30"/>
       <use x="63.623047" xlink:href="#DejaVuSans-2e"/>
       <use x="95.410156" xlink:href="#DejaVuSans-32"/>
      </g>
     </g>
    </g>
    <g id="ytick_10">
     <g id="line2d_25">
      <g>
       <use style="stroke:#000000;stroke-width:0.8;" x="43.78125" xlink:href="#m70b94f6e0d" y="1033.367712"/>
      </g>
     </g>
     <g id="text_28">
      <!-- 0.4 -->
      <g transform="translate(20.878125 1037.166931)scale(0.1 -0.1)">
       <use xlink:href="#DejaVuSans-30"/>
       <use x="63.623047" xlink:href="#DejaVuSans-2e"/>
       <use x="95.410156" xlink:href="#DejaVuSans-34"/>
      </g>
     </g>
    </g>
    <g id="ytick_11">
     <g id="line2d_26">
      <g>
       <use style="stroke:#000000;stroke-width:0.8;" x="43.78125" xlink:href="#m70b94f6e0d" y="930.723084"/>
      </g>
     </g>
     <g id="text_29">
      <!-- 0.6 -->
      <g transform="translate(20.878125 934.522302)scale(0.1 -0.1)">
       <use xlink:href="#DejaVuSans-30"/>
       <use x="63.623047" xlink:href="#DejaVuSans-2e"/>
       <use x="95.410156" xlink:href="#DejaVuSans-36"/>
      </g>
     </g>
    </g>
    <g id="ytick_12">
     <g id="line2d_27">
      <g>
       <use style="stroke:#000000;stroke-width:0.8;" x="43.78125" xlink:href="#m70b94f6e0d" y="828.078456"/>
      </g>
     </g>
     <g id="text_30">
      <!-- 0.8 -->
      <g transform="translate(20.878125 831.877674)scale(0.1 -0.1)">
       <use xlink:href="#DejaVuSans-30"/>
       <use x="63.623047" xlink:href="#DejaVuSans-2e"/>
       <use x="95.410156" xlink:href="#DejaVuSans-38"/>
      </g>
     </g>
    </g>
    <g id="ytick_13">
     <g id="line2d_28">
      <g>
       <use style="stroke:#000000;stroke-width:0.8;" x="43.78125" xlink:href="#m70b94f6e0d" y="725.433827"/>
      </g>
     </g>
     <g id="text_31">
      <!-- 1.0 -->
      <g transform="translate(20.878125 729.233046)scale(0.1 -0.1)">
       <use xlink:href="#DejaVuSans-31"/>
       <use x="63.623047" xlink:href="#DejaVuSans-2e"/>
       <use x="95.410156" xlink:href="#DejaVuSans-30"/>
      </g>
     </g>
    </g>
    <g id="text_32">
     <!-- GCaMP -->
     <g transform="translate(14.798437 999.803991)rotate(-90)scale(0.1 -0.1)">
      <use xlink:href="#DejaVuSans-47"/>
      <use x="77.490234" xlink:href="#DejaVuSans-43"/>
      <use x="147.314453" xlink:href="#DejaVuSans-61"/>
      <use x="208.59375" xlink:href="#DejaVuSans-4d"/>
      <use x="294.873047" xlink:href="#DejaVuSans-50"/>
     </g>
    </g>
   </g>
   <g id="line2d_29">
    <path clip-path="url(#p2e3808f51d)" d="M 119.872159 725.433827 
L 283.322118 725.433827 
L 284.560376 1238.656968 
L 317.993322 1238.656968 
L 319.231579 725.433827 
L 321.708094 725.433827 
L 322.946351 1238.656968 
L 1641.690341 1238.656968 
L 1641.690341 1238.656968 
" style="fill:none;stroke:#008000;stroke-linecap:square;stroke-width:1.5;"/>
   </g>
   <g id="patch_8">
    <path d="M 43.78125 1264.318125 
L 43.78125 699.77267 
" style="fill:none;stroke:#000000;stroke-linecap:square;stroke-linejoin:miter;stroke-width:0.8;"/>
   </g>
   <g id="patch_9">
    <path d="M 1717.78125 1264.318125 
L 1717.78125 699.77267 
" style="fill:none;stroke:#000000;stroke-linecap:square;stroke-linejoin:miter;stroke-width:0.8;"/>
   </g>
   <g id="patch_10">
    <path d="M 43.78125 1264.318125 
L 1717.78125 1264.318125 
" style="fill:none;stroke:#000000;stroke-linecap:square;stroke-linejoin:miter;stroke-width:0.8;"/>
   </g>
   <g id="patch_11">
    <path d="M 43.78125 699.77267 
L 1717.78125 699.77267 
" style="fill:none;stroke:#000000;stroke-linecap:square;stroke-linejoin:miter;stroke-width:0.8;"/>
   </g>
   <g id="text_33">
    <!-- before binarisation -->
    <g transform="translate(824.1825 693.77267)scale(0.12 -0.12)">
     <use xlink:href="#DejaVuSans-62"/>
     <use x="63.476562" xlink:href="#DejaVuSans-65"/>
     <use x="125" xlink:href="#DejaVuSans-66"/>
     <use x="160.205078" xlink:href="#DejaVuSans-6f"/>
     <use x="221.386719" xlink:href="#DejaVuSans-72"/>
     <use x="260.25" xlink:href="#DejaVuSans-65"/>
     <use x="321.773438" xlink:href="#DejaVuSans-20"/>
     <use x="353.560547" xlink:href="#DejaVuSans-62"/>
     <use x="417.037109" xlink:href="#DejaVuSans-69"/>
     <use x="444.820312" xlink:href="#DejaVuSans-6e"/>
     <use x="508.199219" xlink:href="#DejaVuSans-61"/>
     <use x="569.478516" xlink:href="#DejaVuSans-72"/>
     <use x="610.591797" xlink:href="#DejaVuSans-69"/>
     <use x="638.375" xlink:href="#DejaVuSans-73"/>
     <use x="690.474609" xlink:href="#DejaVuSans-61"/>
     <use x="751.753906" xlink:href="#DejaVuSans-74"/>
     <use x="790.962891" xlink:href="#DejaVuSans-69"/>
     <use x="818.746094" xlink:href="#DejaVuSans-6f"/>
     <use x="879.927734" xlink:href="#DejaVuSans-6e"/>
    </g>
   </g>
  </g>
 </g>
 <defs>
  <clipPath id="p765a8c450e">
   <rect height="564.545455" width="1674" x="43.78125" y="22.318125"/>
  </clipPath>
  <clipPath id="p2e3808f51d">
   <rect height="564.545455" width="1674" x="43.78125" y="699.77267"/>
  </clipPath>
 </defs>
</svg>
