<?xml version="1.0" encoding="utf-8" standalone="no"?>
<!DOCTYPE svg PUBLIC "-//W3C//DTD SVG 1.1//EN"
  "http://www.w3.org/Graphics/SVG/1.1/DTD/svg11.dtd">
<svg height="1301.874375pt" version="1.1" viewBox="0 0 1724.98125 1301.874375" width="1724.98125pt" xmlns="http://www.w3.org/2000/svg" xmlns:xlink="http://www.w3.org/1999/xlink">
 <metadata>
  <rdf:RDF xmlns:cc="http://creativecommons.org/ns#" xmlns:dc="http://purl.org/dc/elements/1.1/" xmlns:rdf="http://www.w3.org/1999/02/22-rdf-syntax-ns#">
   <cc:Work>
    <dc:type rdf:resource="http://purl.org/dc/dcmitype/StillImage"/>
    <dc:date>2022-07-24T15:54:29.963328</dc:date>
    <dc:format>image/svg+xml</dc:format>
    <dc:creator>
     <cc:Agent>
      <dc:title>Matplotlib v3.4.2, https://matplotlib.org/</dc:title>
     </cc:Agent>
    </dc:creator>
   </cc:Work>
  </rdf:RDF>
 </metadata>
 <defs>
  <style type="text/css">*{stroke-linecap:butt;stroke-linejoin:round;}</style>
 </defs>
 <g id="figure_1">
  <g id="patch_1">
   <path d="M 0 1301.874375 
L 1724.98125 1301.874375 
L 1724.98125 0 
L 0 0 
z
" style="fill:#ffffff;"/>
  </g>
  <g id="axes_1">
   <g id="patch_2">
    <path d="M 43.78125 586.86358 
L 1717.78125 586.86358 
L 1717.78125 22.318125 
L 43.78125 22.318125 
z
" style="fill:#ffffff;"/>
   </g>
   <g id="matplotlib.axis_1">
    <g id="xtick_1">
     <g id="line2d_1">
      <defs>
       <path d="M 0 0 
L 0 3.5 
" id="mcb68fe8e36" style="stroke:#000000;stroke-width:0.8;"/>
      </defs>
      <g>
       <use style="stroke:#000000;stroke-width:0.8;" x="119.872159" xlink:href="#mcb68fe8e36" y="586.86358"/>
      </g>
     </g>
     <g id="text_1">
      <!-- 0 -->
      <g transform="translate(116.690909 601.462017)scale(0.1 -0.1)">
       <defs>
        <path d="M 2034 4250 
Q 1547 4250 1301 3770 
Q 1056 3291 1056 2328 
Q 1056 1369 1301 889 
Q 1547 409 2034 409 
Q 2525 409 2770 889 
Q 3016 1369 3016 2328 
Q 3016 3291 2770 3770 
Q 2525 4250 2034 4250 
z
M 2034 4750 
Q 2819 4750 3233 4129 
Q 3647 3509 3647 2328 
Q 3647 1150 3233 529 
Q 2819 -91 2034 -91 
Q 1250 -91 836 529 
Q 422 1150 422 2328 
Q 422 3509 836 4129 
Q 1250 4750 2034 4750 
z
" id="DejaVuSans-30" transform="scale(0.015625)"/>
       </defs>
       <use xlink:href="#DejaVuSans-30"/>
      </g>
     </g>
    </g>
    <g id="xtick_2">
     <g id="line2d_2">
      <g>
       <use style="stroke:#000000;stroke-width:0.8;" x="367.523613" xlink:href="#mcb68fe8e36" y="586.86358"/>
      </g>
     </g>
     <g id="text_2">
      <!-- 200 -->
      <g transform="translate(357.979863 601.462017)scale(0.1 -0.1)">
       <defs>
        <path d="M 1228 531 
L 3431 531 
L 3431 0 
L 469 0 
L 469 531 
Q 828 903 1448 1529 
Q 2069 2156 2228 2338 
Q 2531 2678 2651 2914 
Q 2772 3150 2772 3378 
Q 2772 3750 2511 3984 
Q 2250 4219 1831 4219 
Q 1534 4219 1204 4116 
Q 875 4013 500 3803 
L 500 4441 
Q 881 4594 1212 4672 
Q 1544 4750 1819 4750 
Q 2544 4750 2975 4387 
Q 3406 4025 3406 3419 
Q 3406 3131 3298 2873 
Q 3191 2616 2906 2266 
Q 2828 2175 2409 1742 
Q 1991 1309 1228 531 
z
" id="DejaVuSans-32" transform="scale(0.015625)"/>
       </defs>
       <use xlink:href="#DejaVuSans-32"/>
       <use x="63.623047" xlink:href="#DejaVuSans-30"/>
       <use x="127.246094" xlink:href="#DejaVuSans-30"/>
      </g>
     </g>
    </g>
    <g id="xtick_3">
     <g id="line2d_3">
      <g>
       <use style="stroke:#000000;stroke-width:0.8;" x="615.175066" xlink:href="#mcb68fe8e36" y="586.86358"/>
      </g>
     </g>
     <g id="text_3">
      <!-- 400 -->
      <g transform="translate(605.631316 601.462017)scale(0.1 -0.1)">
       <defs>
        <path d="M 2419 4116 
L 825 1625 
L 2419 1625 
L 2419 4116 
z
M 2253 4666 
L 3047 4666 
L 3047 1625 
L 3713 1625 
L 3713 1100 
L 3047 1100 
L 3047 0 
L 2419 0 
L 2419 1100 
L 313 1100 
L 313 1709 
L 2253 4666 
z
" id="DejaVuSans-34" transform="scale(0.015625)"/>
       </defs>
       <use xlink:href="#DejaVuSans-34"/>
       <use x="63.623047" xlink:href="#DejaVuSans-30"/>
       <use x="127.246094" xlink:href="#DejaVuSans-30"/>
      </g>
     </g>
    </g>
    <g id="xtick_4">
     <g id="line2d_4">
      <g>
       <use style="stroke:#000000;stroke-width:0.8;" x="862.82652" xlink:href="#mcb68fe8e36" y="586.86358"/>
      </g>
     </g>
     <g id="text_4">
      <!-- 600 -->
      <g transform="translate(853.28277 601.462017)scale(0.1 -0.1)">
       <defs>
        <path d="M 2113 2584 
Q 1688 2584 1439 2293 
Q 1191 2003 1191 1497 
Q 1191 994 1439 701 
Q 1688 409 2113 409 
Q 2538 409 2786 701 
Q 3034 994 3034 1497 
Q 3034 2003 2786 2293 
Q 2538 2584 2113 2584 
z
M 3366 4563 
L 3366 3988 
Q 3128 4100 2886 4159 
Q 2644 4219 2406 4219 
Q 1781 4219 1451 3797 
Q 1122 3375 1075 2522 
Q 1259 2794 1537 2939 
Q 1816 3084 2150 3084 
Q 2853 3084 3261 2657 
Q 3669 2231 3669 1497 
Q 3669 778 3244 343 
Q 2819 -91 2113 -91 
Q 1303 -91 875 529 
Q 447 1150 447 2328 
Q 447 3434 972 4092 
Q 1497 4750 2381 4750 
Q 2619 4750 2861 4703 
Q 3103 4656 3366 4563 
z
" id="DejaVuSans-36" transform="scale(0.015625)"/>
       </defs>
       <use xlink:href="#DejaVuSans-36"/>
       <use x="63.623047" xlink:href="#DejaVuSans-30"/>
       <use x="127.246094" xlink:href="#DejaVuSans-30"/>
      </g>
     </g>
    </g>
    <g id="xtick_5">
     <g id="line2d_5">
      <g>
       <use style="stroke:#000000;stroke-width:0.8;" x="1110.477973" xlink:href="#mcb68fe8e36" y="586.86358"/>
      </g>
     </g>
     <g id="text_5">
      <!-- 800 -->
      <g transform="translate(1100.934223 601.462017)scale(0.1 -0.1)">
       <defs>
        <path d="M 2034 2216 
Q 1584 2216 1326 1975 
Q 1069 1734 1069 1313 
Q 1069 891 1326 650 
Q 1584 409 2034 409 
Q 2484 409 2743 651 
Q 3003 894 3003 1313 
Q 3003 1734 2745 1975 
Q 2488 2216 2034 2216 
z
M 1403 2484 
Q 997 2584 770 2862 
Q 544 3141 544 3541 
Q 544 4100 942 4425 
Q 1341 4750 2034 4750 
Q 2731 4750 3128 4425 
Q 3525 4100 3525 3541 
Q 3525 3141 3298 2862 
Q 3072 2584 2669 2484 
Q 3125 2378 3379 2068 
Q 3634 1759 3634 1313 
Q 3634 634 3220 271 
Q 2806 -91 2034 -91 
Q 1263 -91 848 271 
Q 434 634 434 1313 
Q 434 1759 690 2068 
Q 947 2378 1403 2484 
z
M 1172 3481 
Q 1172 3119 1398 2916 
Q 1625 2713 2034 2713 
Q 2441 2713 2670 2916 
Q 2900 3119 2900 3481 
Q 2900 3844 2670 4047 
Q 2441 4250 2034 4250 
Q 1625 4250 1398 4047 
Q 1172 3844 1172 3481 
z
" id="DejaVuSans-38" transform="scale(0.015625)"/>
       </defs>
       <use xlink:href="#DejaVuSans-38"/>
       <use x="63.623047" xlink:href="#DejaVuSans-30"/>
       <use x="127.246094" xlink:href="#DejaVuSans-30"/>
      </g>
     </g>
    </g>
    <g id="xtick_6">
     <g id="line2d_6">
      <g>
       <use style="stroke:#000000;stroke-width:0.8;" x="1358.129427" xlink:href="#mcb68fe8e36" y="586.86358"/>
      </g>
     </g>
     <g id="text_6">
      <!-- 1000 -->
      <g transform="translate(1345.404427 601.462017)scale(0.1 -0.1)">
       <defs>
        <path d="M 794 531 
L 1825 531 
L 1825 4091 
L 703 3866 
L 703 4441 
L 1819 4666 
L 2450 4666 
L 2450 531 
L 3481 531 
L 3481 0 
L 794 0 
L 794 531 
z
" id="DejaVuSans-31" transform="scale(0.015625)"/>
       </defs>
       <use xlink:href="#DejaVuSans-31"/>
       <use x="63.623047" xlink:href="#DejaVuSans-30"/>
       <use x="127.246094" xlink:href="#DejaVuSans-30"/>
       <use x="190.869141" xlink:href="#DejaVuSans-30"/>
      </g>
     </g>
    </g>
    <g id="xtick_7">
     <g id="line2d_7">
      <g>
       <use style="stroke:#000000;stroke-width:0.8;" x="1605.78088" xlink:href="#mcb68fe8e36" y="586.86358"/>
      </g>
     </g>
     <g id="text_7">
      <!-- 1200 -->
      <g transform="translate(1593.05588 601.462017)scale(0.1 -0.1)">
       <use xlink:href="#DejaVuSans-31"/>
       <use x="63.623047" xlink:href="#DejaVuSans-32"/>
       <use x="127.246094" xlink:href="#DejaVuSans-30"/>
       <use x="190.869141" xlink:href="#DejaVuSans-30"/>
      </g>
     </g>
    </g>
    <g id="text_8">
     <!-- frame -->
     <g transform="translate(865.954687 615.140142)scale(0.1 -0.1)">
      <defs>
       <path d="M 2375 4863 
L 2375 4384 
L 1825 4384 
Q 1516 4384 1395 4259 
Q 1275 4134 1275 3809 
L 1275 3500 
L 2222 3500 
L 2222 3053 
L 1275 3053 
L 1275 0 
L 697 0 
L 697 3053 
L 147 3053 
L 147 3500 
L 697 3500 
L 697 3744 
Q 697 4328 969 4595 
Q 1241 4863 1831 4863 
L 2375 4863 
z
" id="DejaVuSans-66" transform="scale(0.015625)"/>
       <path d="M 2631 2963 
Q 2534 3019 2420 3045 
Q 2306 3072 2169 3072 
Q 1681 3072 1420 2755 
Q 1159 2438 1159 1844 
L 1159 0 
L 581 0 
L 581 3500 
L 1159 3500 
L 1159 2956 
Q 1341 3275 1631 3429 
Q 1922 3584 2338 3584 
Q 2397 3584 2469 3576 
Q 2541 3569 2628 3553 
L 2631 2963 
z
" id="DejaVuSans-72" transform="scale(0.015625)"/>
       <path d="M 2194 1759 
Q 1497 1759 1228 1600 
Q 959 1441 959 1056 
Q 959 750 1161 570 
Q 1363 391 1709 391 
Q 2188 391 2477 730 
Q 2766 1069 2766 1631 
L 2766 1759 
L 2194 1759 
z
M 3341 1997 
L 3341 0 
L 2766 0 
L 2766 531 
Q 2569 213 2275 61 
Q 1981 -91 1556 -91 
Q 1019 -91 701 211 
Q 384 513 384 1019 
Q 384 1609 779 1909 
Q 1175 2209 1959 2209 
L 2766 2209 
L 2766 2266 
Q 2766 2663 2505 2880 
Q 2244 3097 1772 3097 
Q 1472 3097 1187 3025 
Q 903 2953 641 2809 
L 641 3341 
Q 956 3463 1253 3523 
Q 1550 3584 1831 3584 
Q 2591 3584 2966 3190 
Q 3341 2797 3341 1997 
z
" id="DejaVuSans-61" transform="scale(0.015625)"/>
       <path d="M 3328 2828 
Q 3544 3216 3844 3400 
Q 4144 3584 4550 3584 
Q 5097 3584 5394 3201 
Q 5691 2819 5691 2113 
L 5691 0 
L 5113 0 
L 5113 2094 
Q 5113 2597 4934 2840 
Q 4756 3084 4391 3084 
Q 3944 3084 3684 2787 
Q 3425 2491 3425 1978 
L 3425 0 
L 2847 0 
L 2847 2094 
Q 2847 2600 2669 2842 
Q 2491 3084 2119 3084 
Q 1678 3084 1418 2786 
Q 1159 2488 1159 1978 
L 1159 0 
L 581 0 
L 581 3500 
L 1159 3500 
L 1159 2956 
Q 1356 3278 1631 3431 
Q 1906 3584 2284 3584 
Q 2666 3584 2933 3390 
Q 3200 3197 3328 2828 
z
" id="DejaVuSans-6d" transform="scale(0.015625)"/>
       <path d="M 3597 1894 
L 3597 1613 
L 953 1613 
Q 991 1019 1311 708 
Q 1631 397 2203 397 
Q 2534 397 2845 478 
Q 3156 559 3463 722 
L 3463 178 
Q 3153 47 2828 -22 
Q 2503 -91 2169 -91 
Q 1331 -91 842 396 
Q 353 884 353 1716 
Q 353 2575 817 3079 
Q 1281 3584 2069 3584 
Q 2775 3584 3186 3129 
Q 3597 2675 3597 1894 
z
M 3022 2063 
Q 3016 2534 2758 2815 
Q 2500 3097 2075 3097 
Q 1594 3097 1305 2825 
Q 1016 2553 972 2059 
L 3022 2063 
z
" id="DejaVuSans-65" transform="scale(0.015625)"/>
      </defs>
      <use xlink:href="#DejaVuSans-66"/>
      <use x="35.205078" xlink:href="#DejaVuSans-72"/>
      <use x="76.318359" xlink:href="#DejaVuSans-61"/>
      <use x="137.597656" xlink:href="#DejaVuSans-6d"/>
      <use x="235.009766" xlink:href="#DejaVuSans-65"/>
     </g>
    </g>
   </g>
   <g id="matplotlib.axis_2">
    <g id="ytick_1">
     <g id="line2d_8">
      <defs>
       <path d="M 0 0 
L -3.5 0 
" id="m23a87df2cf" style="stroke:#000000;stroke-width:0.8;"/>
      </defs>
      <g>
       <use style="stroke:#000000;stroke-width:0.8;" x="43.78125" xlink:href="#m23a87df2cf" y="560.388711"/>
      </g>
     </g>
     <g id="text_9">
      <!-- 6 -->
      <g transform="translate(30.41875 564.18793)scale(0.1 -0.1)">
       <use xlink:href="#DejaVuSans-36"/>
      </g>
     </g>
    </g>
    <g id="ytick_2">
     <g id="line2d_9">
      <g>
       <use style="stroke:#000000;stroke-width:0.8;" x="43.78125" xlink:href="#m23a87df2cf" y="490.26832"/>
      </g>
     </g>
     <g id="text_10">
      <!-- 8 -->
      <g transform="translate(30.41875 494.067539)scale(0.1 -0.1)">
       <use xlink:href="#DejaVuSans-38"/>
      </g>
     </g>
    </g>
    <g id="ytick_3">
     <g id="line2d_10">
      <g>
       <use style="stroke:#000000;stroke-width:0.8;" x="43.78125" xlink:href="#m23a87df2cf" y="420.147929"/>
      </g>
     </g>
     <g id="text_11">
      <!-- 10 -->
      <g transform="translate(24.05625 423.947148)scale(0.1 -0.1)">
       <use xlink:href="#DejaVuSans-31"/>
       <use x="63.623047" xlink:href="#DejaVuSans-30"/>
      </g>
     </g>
    </g>
    <g id="ytick_4">
     <g id="line2d_11">
      <g>
       <use style="stroke:#000000;stroke-width:0.8;" x="43.78125" xlink:href="#m23a87df2cf" y="350.027538"/>
      </g>
     </g>
     <g id="text_12">
      <!-- 12 -->
      <g transform="translate(24.05625 353.826757)scale(0.1 -0.1)">
       <use xlink:href="#DejaVuSans-31"/>
       <use x="63.623047" xlink:href="#DejaVuSans-32"/>
      </g>
     </g>
    </g>
    <g id="ytick_5">
     <g id="line2d_12">
      <g>
       <use style="stroke:#000000;stroke-width:0.8;" x="43.78125" xlink:href="#m23a87df2cf" y="279.907147"/>
      </g>
     </g>
     <g id="text_13">
      <!-- 14 -->
      <g transform="translate(24.05625 283.706366)scale(0.1 -0.1)">
       <use xlink:href="#DejaVuSans-31"/>
       <use x="63.623047" xlink:href="#DejaVuSans-34"/>
      </g>
     </g>
    </g>
    <g id="ytick_6">
     <g id="line2d_13">
      <g>
       <use style="stroke:#000000;stroke-width:0.8;" x="43.78125" xlink:href="#m23a87df2cf" y="209.786756"/>
      </g>
     </g>
     <g id="text_14">
      <!-- 16 -->
      <g transform="translate(24.05625 213.585975)scale(0.1 -0.1)">
       <use xlink:href="#DejaVuSans-31"/>
       <use x="63.623047" xlink:href="#DejaVuSans-36"/>
      </g>
     </g>
    </g>
    <g id="ytick_7">
     <g id="line2d_14">
      <g>
       <use style="stroke:#000000;stroke-width:0.8;" x="43.78125" xlink:href="#m23a87df2cf" y="139.666365"/>
      </g>
     </g>
     <g id="text_15">
      <!-- 18 -->
      <g transform="translate(24.05625 143.465584)scale(0.1 -0.1)">
       <use xlink:href="#DejaVuSans-31"/>
       <use x="63.623047" xlink:href="#DejaVuSans-38"/>
      </g>
     </g>
    </g>
    <g id="ytick_8">
     <g id="line2d_15">
      <g>
       <use style="stroke:#000000;stroke-width:0.8;" x="43.78125" xlink:href="#m23a87df2cf" y="69.545974"/>
      </g>
     </g>
     <g id="text_16">
      <!-- 20 -->
      <g transform="translate(24.05625 73.345193)scale(0.1 -0.1)">
       <use xlink:href="#DejaVuSans-32"/>
       <use x="63.623047" xlink:href="#DejaVuSans-30"/>
      </g>
     </g>
    </g>
    <g id="text_17">
     <!-- GCaMP -->
     <g transform="translate(17.976562 322.349446)rotate(-90)scale(0.1 -0.1)">
      <defs>
       <path d="M 3809 666 
L 3809 1919 
L 2778 1919 
L 2778 2438 
L 4434 2438 
L 4434 434 
Q 4069 175 3628 42 
Q 3188 -91 2688 -91 
Q 1594 -91 976 548 
Q 359 1188 359 2328 
Q 359 3472 976 4111 
Q 1594 4750 2688 4750 
Q 3144 4750 3555 4637 
Q 3966 4525 4313 4306 
L 4313 3634 
Q 3963 3931 3569 4081 
Q 3175 4231 2741 4231 
Q 1884 4231 1454 3753 
Q 1025 3275 1025 2328 
Q 1025 1384 1454 906 
Q 1884 428 2741 428 
Q 3075 428 3337 486 
Q 3600 544 3809 666 
z
" id="DejaVuSans-47" transform="scale(0.015625)"/>
       <path d="M 4122 4306 
L 4122 3641 
Q 3803 3938 3442 4084 
Q 3081 4231 2675 4231 
Q 1875 4231 1450 3742 
Q 1025 3253 1025 2328 
Q 1025 1406 1450 917 
Q 1875 428 2675 428 
Q 3081 428 3442 575 
Q 3803 722 4122 1019 
L 4122 359 
Q 3791 134 3420 21 
Q 3050 -91 2638 -91 
Q 1578 -91 968 557 
Q 359 1206 359 2328 
Q 359 3453 968 4101 
Q 1578 4750 2638 4750 
Q 3056 4750 3426 4639 
Q 3797 4528 4122 4306 
z
" id="DejaVuSans-43" transform="scale(0.015625)"/>
       <path d="M 628 4666 
L 1569 4666 
L 2759 1491 
L 3956 4666 
L 4897 4666 
L 4897 0 
L 4281 0 
L 4281 4097 
L 3078 897 
L 2444 897 
L 1241 4097 
L 1241 0 
L 628 0 
L 628 4666 
z
" id="DejaVuSans-4d" transform="scale(0.015625)"/>
       <path d="M 1259 4147 
L 1259 2394 
L 2053 2394 
Q 2494 2394 2734 2622 
Q 2975 2850 2975 3272 
Q 2975 3691 2734 3919 
Q 2494 4147 2053 4147 
L 1259 4147 
z
M 628 4666 
L 2053 4666 
Q 2838 4666 3239 4311 
Q 3641 3956 3641 3272 
Q 3641 2581 3239 2228 
Q 2838 1875 2053 1875 
L 1259 1875 
L 1259 0 
L 628 0 
L 628 4666 
z
" id="DejaVuSans-50" transform="scale(0.015625)"/>
      </defs>
      <use xlink:href="#DejaVuSans-47"/>
      <use x="77.490234" xlink:href="#DejaVuSans-43"/>
      <use x="147.314453" xlink:href="#DejaVuSans-61"/>
      <use x="208.59375" xlink:href="#DejaVuSans-4d"/>
      <use x="294.873047" xlink:href="#DejaVuSans-50"/>
     </g>
    </g>
   </g>
   <g id="line2d_16">
    <path clip-path="url(#pdd67eb7dcf)" d="M 119.872159 129.183315 
L 121.110416 131.671876 
L 122.348674 128.605874 
L 123.586931 119.187449 
L 124.825188 107.302225 
L 126.063445 97.200729 
L 128.53996 83.207391 
L 129.778217 74.495856 
L 131.016474 64.66771 
L 132.254732 57.966626 
L 133.492989 57.105892 
L 134.731246 60.457726 
L 135.969504 64.229403 
L 137.207761 65.848891 
L 138.446018 65.907978 
L 139.684275 67.085891 
L 142.16079 73.735244 
L 143.399047 73.694966 
L 144.637304 69.362659 
L 145.875562 62.929656 
L 147.113819 58.45235 
L 148.352076 59.34449 
L 149.590334 66.57953 
L 150.828591 79.096058 
L 153.305105 110.188994 
L 154.543363 122.031861 
L 155.78162 128.718237 
L 157.019877 130.958519 
L 158.258134 130.255437 
L 159.496392 127.056546 
L 160.734649 119.988523 
L 161.972906 107.828991 
L 165.687678 58.818837 
L 166.925935 48.880551 
L 168.164193 47.979282 
L 169.40245 55.887677 
L 170.640707 67.93796 
L 171.878964 78.330238 
L 173.117222 83.770481 
L 174.355479 84.355196 
L 175.593736 81.857576 
L 176.831993 78.273807 
L 178.070251 75.746919 
L 179.308508 76.303219 
L 180.546765 81.021592 
L 181.785022 89.165378 
L 183.02328 98.209145 
L 184.261537 105.59248 
L 185.499794 110.298035 
L 186.738052 112.17604 
L 187.976309 111.041297 
L 190.452823 104.454649 
L 191.691081 103.429454 
L 192.929338 105.031749 
L 194.167595 108.619468 
L 195.405852 113.462228 
L 196.64411 118.755793 
L 197.882367 123.368736 
L 199.120624 126.244245 
L 200.358881 126.921532 
L 201.597139 125.423074 
L 202.835396 122.137214 
L 205.311911 113.806223 
L 206.550168 111.127181 
L 207.788425 110.623432 
L 209.026682 112.57311 
L 210.26494 116.657716 
L 211.503197 121.310973 
L 212.741454 123.878158 
L 213.979711 122.542574 
L 216.456226 114.434323 
L 217.694483 113.373129 
L 218.93274 115.611861 
L 220.170998 120.384092 
L 222.647512 132.753159 
L 223.88577 137.629344 
L 225.124027 140.023276 
L 226.362284 139.53096 
L 227.600541 136.846192 
L 228.838799 133.519962 
L 230.077056 130.987848 
L 232.55357 127.491519 
L 235.030085 122.96411 
L 236.268342 120.847479 
L 237.5066 118.173908 
L 238.744857 114.99702 
L 239.983114 112.815045 
L 241.221371 113.400141 
L 242.459629 116.792398 
L 243.697886 121.345189 
L 244.936143 125.411735 
L 246.1744 128.107815 
L 247.412658 129.773109 
L 248.650915 132.127362 
L 249.889172 136.516354 
L 253.603944 154.296293 
L 254.842201 158.37675 
L 256.080459 161.950356 
L 257.318716 165.907339 
L 258.556973 170.640795 
L 259.79523 176.683428 
L 262.271745 191.011282 
L 263.510002 195.819489 
L 264.748259 197.437279 
L 265.986517 195.899266 
L 267.224774 191.807422 
L 269.701288 180.85695 
L 270.939546 177.104372 
L 272.177803 175.46461 
L 273.41606 175.473348 
L 274.654318 176.194431 
L 275.892575 176.758985 
L 277.130832 176.725863 
L 278.369089 176.223546 
L 279.607347 176.165126 
L 280.845604 177.669139 
L 283.322118 183.395057 
L 284.560376 183.793387 
L 285.798633 181.089722 
L 288.275147 172.641826 
L 289.513405 170.029849 
L 290.751662 168.85262 
L 291.989919 168.130276 
L 293.228177 166.592758 
L 295.704691 161.231433 
L 296.942948 159.278806 
L 298.181206 158.936635 
L 299.419463 160.926184 
L 300.65772 164.446357 
L 301.895977 166.790411 
L 303.134235 166.504837 
L 304.372492 165.166082 
L 305.610749 165.280814 
L 306.849006 167.984677 
L 308.087264 172.404986 
L 309.325521 176.372678 
L 310.563778 178.10071 
L 311.802036 177.49464 
L 313.040293 175.597709 
L 315.516807 170.766801 
L 316.755065 170.014618 
L 317.993322 172.575201 
L 319.231579 177.696786 
L 320.469836 182.150821 
L 321.708094 182.832812 
L 322.946351 178.938231 
L 324.184608 172.647024 
L 325.422866 167.65022 
L 326.661123 165.806276 
L 330.375895 165.773458 
L 331.614152 167.974798 
L 332.852409 174.230161 
L 334.090666 184.256504 
L 335.328924 195.659482 
L 336.567181 205.942945 
L 337.805438 213.945791 
L 339.043695 219.128164 
L 340.281953 220.795138 
L 341.52021 218.957078 
L 342.758467 215.221525 
L 343.996725 212.261559 
L 345.234982 212.133 
L 346.473239 214.959836 
L 347.711496 219.084724 
L 348.949754 222.295229 
L 350.188011 223.555679 
L 352.664525 223.861377 
L 353.902783 224.153142 
L 355.14104 223.775486 
L 356.379297 222.301305 
L 358.855812 217.78096 
L 360.094069 215.942646 
L 361.332326 214.89723 
L 363.808841 214.131439 
L 365.047098 212.850699 
L 366.285355 209.943545 
L 367.523613 205.922171 
L 368.76187 202.513538 
L 370.000127 200.957762 
L 371.238384 200.799076 
L 372.476642 200.274612 
L 374.953156 196.086368 
L 376.191413 195.707394 
L 377.429671 197.161606 
L 378.667928 199.212281 
L 379.906185 200.878552 
L 381.144443 201.535876 
L 382.3827 200.99146 
L 383.620957 199.776162 
L 384.859214 198.909492 
L 386.097472 199.205129 
L 387.335729 200.900706 
L 388.573986 203.907681 
L 389.812243 207.62605 
L 391.050501 210.6254 
L 392.288758 211.979449 
L 393.527015 212.521727 
L 394.765272 213.262068 
L 396.00353 213.830198 
L 397.241787 214.070824 
L 398.480044 215.366074 
L 399.718302 218.959508 
L 400.956559 224.605084 
L 402.194816 231.562805 
L 404.671331 246.747107 
L 405.909588 251.749071 
L 407.147845 253.354706 
L 408.386102 252.824196 
L 409.62436 251.992626 
L 410.862617 251.541404 
L 412.100874 250.89066 
L 413.339132 248.74653 
L 414.577389 244.387076 
L 415.815646 238.786429 
L 417.053903 233.906664 
L 418.292161 230.946814 
L 419.530418 229.585691 
L 420.768675 228.931228 
L 422.006932 228.796161 
L 423.24519 229.567896 
L 424.483447 231.34933 
L 425.721704 233.879938 
L 428.198219 239.659602 
L 429.436476 242.120775 
L 430.674733 243.493781 
L 431.912991 242.605797 
L 433.151248 238.314934 
L 434.389505 230.667444 
L 436.86602 212.348926 
L 438.104277 205.364173 
L 439.342534 200.499217 
L 440.580791 197.660496 
L 441.819049 197.91336 
L 443.057306 201.91429 
L 445.53382 214.34998 
L 446.772078 219.728903 
L 450.48685 232.998343 
L 451.725107 237.125259 
L 452.963364 239.465811 
L 454.201621 239.053302 
L 455.439879 236.256126 
L 456.678136 232.870339 
L 457.916393 230.668852 
L 460.392908 228.947692 
L 461.631165 227.467432 
L 464.107679 223.157961 
L 465.345937 222.383953 
L 466.584194 224.247366 
L 469.060709 231.534341 
L 470.298966 233.93448 
L 471.537223 236.682954 
L 474.013738 244.66825 
L 475.251995 246.787648 
L 476.490252 246.430063 
L 477.728509 244.335634 
L 478.966767 241.685819 
L 480.205024 239.37824 
L 481.443281 237.536842 
L 482.681538 235.335726 
L 483.919796 232.054814 
L 485.158053 228.331261 
L 486.39631 225.647111 
L 487.634568 225.291229 
L 488.872825 228.234296 
L 490.111082 234.708757 
L 491.349339 243.269931 
L 492.587597 250.965321 
L 493.825854 255.455477 
L 495.064111 257.109741 
L 496.302368 257.737161 
L 497.540626 257.447111 
L 498.778883 254.527661 
L 500.01714 247.865497 
L 503.731912 219.148781 
L 504.970169 214.894984 
L 506.208427 215.331692 
L 507.446684 219.539579 
L 508.684941 226.003752 
L 509.923198 233.164518 
L 511.161456 239.407243 
L 512.399713 243.159768 
L 513.63797 243.826828 
L 514.876227 242.15677 
L 516.114485 239.482395 
L 517.352742 237.135395 
L 518.590999 235.813282 
L 519.829257 235.112278 
L 521.067514 234.605837 
L 523.544028 234.399672 
L 524.782286 232.614899 
L 527.2588 224.709326 
L 528.497057 222.687097 
L 529.735315 223.379562 
L 532.211829 228.45446 
L 533.450086 229.437866 
L 534.688344 228.803303 
L 535.926601 227.241796 
L 537.164858 224.993338 
L 538.403116 222.273298 
L 539.641373 220.06359 
L 540.87963 219.461994 
L 542.117887 220.346719 
L 543.356145 221.925898 
L 545.832659 225.926548 
L 547.070916 225.770546 
L 548.309174 223.336154 
L 549.547431 221.218353 
L 550.785688 222.191358 
L 552.023945 227.134453 
L 554.50046 242.576645 
L 555.738717 248.080017 
L 558.215232 255.793138 
L 559.453489 260.263819 
L 560.691746 262.964039 
L 561.930004 262.550426 
L 563.168261 260.433434 
L 564.406518 258.772753 
L 565.644775 258.429998 
L 566.883033 259.173571 
L 568.12129 260.250723 
L 569.359547 260.725018 
L 570.597804 259.907329 
L 571.836062 257.511844 
L 573.074319 253.71433 
L 574.312576 249.435595 
L 575.550834 246.291283 
L 576.789091 245.071247 
L 578.027348 244.332147 
L 579.265605 241.540299 
L 581.74212 229.938582 
L 582.980377 226.969877 
L 584.218634 227.695989 
L 585.456892 229.912978 
L 586.695149 230.571991 
L 587.933406 228.100688 
L 590.409921 218.487821 
L 591.648178 215.005574 
L 592.886435 214.370049 
L 594.124693 216.120736 
L 595.36295 217.666535 
L 596.601207 217.435901 
L 597.839464 216.934603 
L 599.077722 218.81246 
L 600.315979 224.060752 
L 602.792493 238.486547 
L 604.030751 243.701053 
L 605.269008 246.278028 
L 606.507265 245.994679 
L 608.98378 241.160568 
L 610.222037 240.014663 
L 611.460294 240.280782 
L 612.698552 241.557197 
L 613.936809 243.327234 
L 615.175066 244.70518 
L 616.413323 244.920751 
L 617.651581 243.595235 
L 618.889838 241.107468 
L 620.128095 238.895434 
L 622.60461 236.634666 
L 623.842867 233.855881 
L 625.081124 229.778878 
L 626.319382 226.573533 
L 627.557639 226.669969 
L 628.795896 230.564716 
L 630.034153 236.052098 
L 631.272411 240.450155 
L 632.510668 242.742724 
L 634.987182 244.222598 
L 636.22544 245.639704 
L 637.463697 247.251579 
L 638.701954 247.930955 
L 639.940211 247.166675 
L 641.178469 245.649695 
L 642.416726 244.655186 
L 643.654983 244.522197 
L 644.893241 244.201019 
L 646.131498 242.611172 
L 647.369755 240.065816 
L 648.608012 237.987203 
L 649.84627 237.697748 
L 651.084527 239.461165 
L 652.322784 241.818041 
L 653.561041 242.723619 
L 654.799299 241.889058 
L 656.037556 240.659863 
L 657.275813 240.010072 
L 659.752328 239.807003 
L 660.990585 239.997681 
L 662.228842 241.399215 
L 663.4671 244.810982 
L 665.943614 254.958364 
L 667.181871 258.445095 
L 668.420129 259.097908 
L 669.658386 256.543598 
L 670.896643 251.166935 
L 672.1349 244.788296 
L 673.373158 240.284505 
L 674.611415 239.032633 
L 675.849672 240.057844 
L 677.087929 242.033201 
L 678.326187 244.570043 
L 679.564444 247.940636 
L 680.802701 252.406186 
L 683.279216 262.8183 
L 684.517473 266.752616 
L 685.75573 268.280573 
L 686.993988 266.337663 
L 688.232245 260.869812 
L 689.470502 253.681953 
L 690.708759 247.304691 
L 691.947017 243.020887 
L 693.185274 240.729468 
L 694.423531 239.87386 
L 695.661789 239.947447 
L 696.900046 240.688034 
L 698.138303 241.579895 
L 699.37656 241.679901 
L 700.614818 240.841535 
L 701.853075 240.162635 
L 703.091332 240.753764 
L 704.329589 242.864902 
L 706.806104 248.805803 
L 708.044361 250.672622 
L 709.282618 252.16183 
L 710.520876 254.608997 
L 711.759133 258.48156 
L 712.99739 262.85659 
L 714.235648 265.395186 
L 715.473905 263.027103 
L 716.712162 254.091308 
L 719.188677 226.220779 
L 720.426934 217.899566 
L 721.665191 217.960447 
L 722.903448 224.640478 
L 725.379963 243.506246 
L 726.61822 250.511667 
L 727.856477 254.422302 
L 729.094735 255.147708 
L 730.332992 253.288407 
L 731.571249 249.993335 
L 732.809507 245.956286 
L 734.047764 241.367741 
L 735.286021 237.287843 
L 736.524278 235.86757 
L 737.762536 238.912936 
L 739.000793 246.546591 
L 741.477307 266.960489 
L 742.715565 273.630765 
L 743.953822 275.033267 
L 745.192079 271.722059 
L 747.668594 260.427187 
L 748.906851 255.626139 
L 751.383366 247.61511 
L 752.621623 244.741856 
L 753.85988 243.957721 
L 755.098137 245.634926 
L 756.336395 249.446926 
L 760.051166 265.623925 
L 761.289424 269.195948 
L 762.527681 271.105123 
L 763.765938 271.857593 
L 765.004195 272.124813 
L 766.242453 272.242965 
L 767.48071 272.0975 
L 768.718967 271.449214 
L 771.195482 268.976452 
L 772.433739 268.10634 
L 773.671996 267.488577 
L 774.910254 266.1686 
L 777.386768 261.191416 
L 778.625025 259.837153 
L 781.10154 259.332707 
L 782.339797 258.346241 
L 783.578054 257.900624 
L 784.816312 259.996107 
L 786.054569 264.540464 
L 787.292826 268.498918 
L 788.531084 269.069747 
L 789.769341 266.57257 
L 791.007598 263.812382 
L 792.245855 263.385994 
L 794.72237 267.282328 
L 795.960627 267.313343 
L 797.198884 265.831332 
L 798.437142 264.706792 
L 799.675399 265.620757 
L 800.913656 269.044483 
L 802.151914 273.758414 
L 803.390171 277.541648 
L 804.628428 278.457014 
L 805.866685 275.61643 
L 807.104943 269.641321 
L 808.3432 262.405354 
L 809.581457 256.092596 
L 810.819714 252.802113 
L 812.057972 254.134741 
L 813.296229 260.033242 
L 815.772743 276.422336 
L 817.011001 282.48478 
L 818.249258 285.955483 
L 819.487515 286.353081 
L 820.725773 283.152871 
L 821.96403 276.37025 
L 823.202287 267.811549 
L 824.440544 261.300699 
L 825.678802 259.985346 
L 826.917059 263.805779 
L 829.393573 276.426232 
L 830.631831 280.244296 
L 831.870088 281.415881 
L 833.108345 280.97363 
L 834.346602 279.717309 
L 835.58486 277.594389 
L 836.823117 274.469551 
L 840.537889 263.329111 
L 841.776146 261.020497 
L 843.014403 260.107778 
L 844.252661 260.274617 
L 845.490918 261.354025 
L 846.729175 263.759964 
L 847.967432 267.894037 
L 849.20569 273.779058 
L 850.443947 280.553599 
L 851.682204 285.940093 
L 852.920461 287.61499 
L 854.158719 285.414111 
L 856.635233 276.706678 
L 857.873491 273.085622 
L 859.111748 271.032856 
L 860.350005 270.883085 
L 861.588262 272.316744 
L 862.82652 274.1912 
L 864.064777 274.798872 
L 865.303034 273.113616 
L 866.541291 269.379103 
L 867.779549 264.239285 
L 869.017806 258.575357 
L 870.256063 253.802844 
L 871.49432 251.044089 
L 872.732578 250.561214 
L 873.970835 252.209493 
L 875.209092 255.600901 
L 878.923864 268.502814 
L 880.162121 271.823537 
L 881.400379 273.118609 
L 882.638636 272.067324 
L 885.11515 267.495144 
L 886.353408 265.878333 
L 887.591665 265.89475 
L 888.829922 268.321374 
L 892.544694 281.115812 
L 893.782951 283.791702 
L 895.021209 285.760781 
L 896.259466 286.362889 
L 897.497723 284.353539 
L 898.73598 279.079066 
L 901.212495 263.074441 
L 902.450752 257.006982 
L 903.689009 254.624403 
L 904.927267 255.645161 
L 906.165524 258.110867 
L 907.403781 260.151674 
L 908.642039 261.500222 
L 909.880296 262.590818 
L 911.118553 262.821725 
L 912.35681 260.853042 
L 913.595068 256.43208 
L 914.833325 251.367164 
L 916.071582 248.65487 
L 917.309839 250.286103 
L 918.548097 255.542182 
L 919.786354 261.629767 
L 921.024611 266.099867 
L 923.501126 271.101888 
L 924.739383 274.884612 
L 925.97764 279.424945 
L 927.215898 282.233026 
L 928.454155 281.251727 
L 929.692412 276.540412 
L 933.407184 256.639068 
L 934.645441 252.675652 
L 935.883698 251.286532 
L 937.121956 252.931645 
L 938.360213 257.903852 
L 940.836727 271.976786 
L 942.074985 275.985932 
L 943.313242 276.511826 
L 944.551499 274.873049 
L 945.789757 272.786061 
L 947.028014 271.099941 
L 948.266271 270.263313 
L 949.504528 270.41525 
L 950.742786 270.442156 
L 951.981043 268.361415 
L 953.2193 263.359972 
L 954.457557 256.941483 
L 955.695815 251.760144 
L 956.934072 249.548776 
L 958.172329 250.039967 
L 959.410586 251.735345 
L 960.648844 253.736842 
L 964.363616 261.06822 
L 965.601873 263.050379 
L 968.078387 268.057045 
L 969.316645 270.001722 
L 970.554902 271.202802 
L 971.793159 272.641024 
L 974.269674 277.143281 
L 976.746188 279.630958 
L 977.984446 281.937046 
L 979.222703 285.097785 
L 980.46096 287.273501 
L 981.699217 286.225974 
L 982.937475 281.12637 
L 984.175732 273.693226 
L 985.413989 267.110802 
L 986.652246 263.890655 
L 987.890504 264.472643 
L 989.128761 267.341862 
L 991.605275 274.334969 
L 992.843533 278.320238 
L 994.08179 281.820594 
L 995.320047 283.417371 
L 996.558305 282.994343 
L 997.796562 281.311284 
L 999.034819 278.330453 
L 1000.273076 273.390163 
L 1002.749591 260.816553 
L 1003.987848 257.561576 
L 1005.226105 257.809058 
L 1006.464363 260.821299 
L 1007.70262 265.733278 
L 1010.179134 278.249023 
L 1011.417392 283.467767 
L 1013.893906 292.014286 
L 1015.132164 296.72186 
L 1016.370421 300.529586 
L 1017.608678 302.319833 
L 1018.846935 302.1963 
L 1020.085193 301.51182 
L 1021.32345 302.010872 
L 1022.561707 304.21518 
L 1023.799964 307.257144 
L 1025.038222 309.935459 
L 1026.276479 310.821255 
L 1027.514736 308.569346 
L 1028.752993 302.996636 
L 1031.229508 288.639601 
L 1032.467765 285.241421 
L 1033.706023 286.567337 
L 1036.182537 296.240264 
L 1037.420794 298.658143 
L 1038.659052 297.240475 
L 1041.135566 288.747254 
L 1042.373823 286.659858 
L 1044.850338 285.935079 
L 1047.326852 283.651903 
L 1048.56511 283.488724 
L 1049.803367 285.546931 
L 1051.041624 290.304407 
L 1053.518139 302.856386 
L 1054.756396 307.427687 
L 1055.994653 310.041053 
L 1057.232911 310.582534 
L 1058.471168 308.288241 
L 1059.709425 302.00636 
L 1062.18594 281.970767 
L 1063.424197 275.473192 
L 1064.662454 274.812668 
L 1065.900711 279.666155 
L 1068.377226 295.5635 
L 1069.615483 300.827393 
L 1070.853741 303.644729 
L 1072.091998 305.921044 
L 1073.330255 309.445761 
L 1074.568512 314.594834 
L 1075.80677 320.40559 
L 1077.045027 325.638576 
L 1078.283284 329.258268 
L 1079.521541 330.129897 
L 1080.759799 327.779738 
L 1083.236313 318.799454 
L 1084.474571 316.131678 
L 1085.712828 316.96475 
L 1086.951085 321.405296 
L 1088.189342 327.162249 
L 1089.4276 331.104788 
L 1090.665857 331.908452 
L 1091.904114 330.628568 
L 1093.142371 329.150716 
L 1094.380629 328.907017 
L 1095.618886 330.275598 
L 1096.857143 332.304376 
L 1098.0954 333.479517 
L 1099.333658 333.203015 
L 1100.571915 332.426637 
L 1101.810172 332.50325 
L 1103.04843 333.713419 
L 1104.286687 335.680908 
L 1105.524944 338.376732 
L 1106.763201 341.405194 
L 1108.001459 343.367919 
L 1109.239716 343.109943 
L 1110.477973 340.816287 
L 1112.954488 334.726878 
L 1114.192745 332.723187 
L 1115.431002 331.881381 
L 1116.669259 332.501654 
L 1117.907517 334.862804 
L 1119.145774 338.837349 
L 1121.622289 349.010916 
L 1124.098803 359.516988 
L 1125.33706 363.606223 
L 1126.575318 366.341078 
L 1127.813575 368.046444 
L 1129.051832 368.453004 
L 1130.290089 367.114011 
L 1136.481376 354.575111 
L 1137.719633 354.285047 
L 1138.95789 357.505865 
L 1140.196148 364.33097 
L 1141.434405 373.795446 
L 1143.910919 394.016005 
L 1145.149177 400.649493 
L 1146.387434 402.203961 
L 1147.625691 397.958375 
L 1148.863948 389.549622 
L 1150.102206 380.15776 
L 1151.340463 372.300611 
L 1152.57872 366.805388 
L 1153.816977 363.762306 
L 1155.055235 363.380213 
L 1156.293492 365.847604 
L 1157.531749 370.989322 
L 1160.008264 384.405552 
L 1161.246521 389.273828 
L 1162.484778 391.594358 
L 1163.723036 391.08565 
L 1164.961293 387.995899 
L 1166.19955 383.191924 
L 1167.437807 377.827545 
L 1168.676065 373.06799 
L 1169.914322 369.834058 
L 1171.152579 368.30902 
L 1172.390837 368.118972 
L 1173.629094 369.059401 
L 1174.867351 370.961599 
L 1177.343866 375.353493 
L 1178.582123 377.149304 
L 1179.82038 378.285368 
L 1181.058637 377.735455 
L 1182.296895 374.988709 
L 1183.535152 370.97437 
L 1184.773409 367.367871 
L 1186.011666 365.452478 
L 1187.249924 365.695583 
L 1188.488181 368.422214 
L 1189.726438 373.894613 
L 1192.202953 387.70707 
L 1193.44121 391.844131 
L 1194.679467 392.811931 
L 1195.917725 391.058876 
L 1197.155982 388.166872 
L 1198.394239 386.427317 
L 1199.632496 387.333658 
L 1200.870754 390.425254 
L 1202.109011 394.091782 
L 1203.347268 397.229019 
L 1204.585525 399.584899 
L 1205.823783 401.144569 
L 1207.06204 402.069306 
L 1208.300297 402.854109 
L 1210.776812 404.90519 
L 1213.253326 406.379291 
L 1214.491584 408.299573 
L 1215.729841 412.339426 
L 1216.968098 418.327776 
L 1218.206355 425.043945 
L 1219.444613 431.005535 
L 1220.68287 435.233304 
L 1221.921127 437.626629 
L 1223.159384 438.803813 
L 1224.397642 439.431187 
L 1225.635899 439.780458 
L 1229.350671 440.388989 
L 1230.588928 440.714268 
L 1231.827185 441.175668 
L 1233.065443 442.31563 
L 1234.3037 444.907926 
L 1235.541957 449.334755 
L 1239.256729 466.287391 
L 1240.494986 470.319075 
L 1241.733243 473.160808 
L 1242.971501 474.706026 
L 1244.209758 474.919126 
L 1245.448015 473.937419 
L 1246.686273 471.95421 
L 1247.92453 469.22234 
L 1249.162787 465.911718 
L 1250.401044 461.584967 
L 1251.639302 455.722594 
L 1254.115816 442.368633 
L 1255.354073 437.392521 
L 1256.592331 435.34255 
L 1257.830588 437.552965 
L 1259.068845 443.840354 
L 1260.307103 451.585526 
L 1261.54536 456.870245 
L 1262.783617 456.93391 
L 1264.021874 451.914746 
L 1265.260132 444.637981 
L 1266.498389 438.662072 
L 1267.736646 436.080251 
L 1268.974903 436.624206 
L 1270.213161 437.995002 
L 1271.451418 437.105784 
L 1272.689675 432.097076 
L 1275.16619 415.209447 
L 1276.404447 409.627415 
L 1277.642704 408.475883 
L 1278.880962 411.007805 
L 1281.357476 419.650802 
L 1282.595733 424.228109 
L 1286.310505 439.491107 
L 1287.548762 442.319489 
L 1288.78702 443.345782 
L 1290.025277 442.773246 
L 1291.263534 440.652848 
L 1292.501791 437.175181 
L 1296.216563 424.362936 
L 1297.454821 421.153284 
L 1299.931335 415.727062 
L 1301.169592 413.979851 
L 1302.40785 413.868249 
L 1303.646107 415.183451 
L 1304.884364 417.29674 
L 1306.122621 420.03356 
L 1307.360879 423.32321 
L 1311.07565 434.480661 
L 1312.313908 437.054888 
L 1313.552165 437.545317 
L 1314.790422 435.999011 
L 1316.02868 433.002261 
L 1318.505194 424.891725 
L 1319.743451 421.474295 
L 1320.981709 419.096606 
L 1322.219966 418.059139 
L 1323.458223 418.963585 
L 1325.934738 424.347763 
L 1327.172995 425.66932 
L 1328.411252 424.835969 
L 1329.649509 422.866495 
L 1330.887767 422.278054 
L 1332.126024 424.977562 
L 1333.364281 430.515224 
L 1334.602539 436.604042 
L 1335.840796 440.827179 
L 1337.079053 442.065082 
L 1338.31731 440.852228 
L 1339.555568 438.62748 
L 1340.793825 436.669652 
L 1343.270339 434.18779 
L 1344.508597 432.104796 
L 1345.746854 428.693751 
L 1348.223368 420.536971 
L 1349.461626 417.890579 
L 1350.699883 416.506551 
L 1351.93814 415.442567 
L 1353.176398 413.692716 
L 1354.414655 411.022513 
L 1355.652912 407.949011 
L 1356.891169 405.467728 
L 1358.129427 404.763769 
L 1359.367684 406.30154 
L 1360.605941 409.154258 
L 1361.844198 411.307529 
L 1363.082456 410.85725 
L 1364.320713 407.900662 
L 1365.55897 404.577248 
L 1366.797228 402.470943 
L 1368.035485 401.480541 
L 1369.273742 401.340936 
L 1370.511999 402.30627 
L 1371.750257 404.332334 
L 1375.465028 412.026468 
L 1376.703286 413.400211 
L 1377.941543 413.167073 
L 1379.1798 411.812058 
L 1380.418057 411.23959 
L 1381.656315 413.695155 
L 1382.894572 419.929564 
L 1385.371087 437.597981 
L 1386.609344 444.87803 
L 1387.847601 449.177777 
L 1389.085858 450.499035 
L 1390.324116 449.744286 
L 1392.80063 445.936264 
L 1394.038887 445.404548 
L 1395.277145 447.259807 
L 1396.515402 451.819261 
L 1397.753659 458.590643 
L 1398.991916 465.991667 
L 1400.230174 471.630307 
L 1401.468431 473.480306 
L 1402.706688 471.425664 
L 1403.944946 467.467758 
L 1405.183203 464.032277 
L 1406.42146 462.474686 
L 1407.659717 462.863871 
L 1410.136232 466.069757 
L 1411.374489 466.808644 
L 1412.612746 466.273423 
L 1413.851004 464.387493 
L 1415.089261 460.639913 
L 1416.327518 454.946187 
L 1420.04229 434.042442 
L 1421.280547 428.690346 
L 1422.518805 426.696241 
L 1423.757062 429.276314 
L 1424.995319 435.557774 
L 1426.233576 442.669967 
L 1427.471834 448.095068 
L 1428.710091 451.159751 
L 1429.948348 452.455352 
L 1431.186605 452.878896 
L 1432.424863 452.972586 
L 1433.66312 452.721304 
L 1434.901377 452.098426 
L 1437.377892 450.547342 
L 1438.616149 449.44556 
L 1439.854406 447.61923 
L 1441.092664 444.938153 
L 1442.330921 441.910217 
L 1443.569178 440.058336 
L 1444.807435 441.73487 
L 1446.045693 448.388733 
L 1447.28395 459.063738 
L 1448.522207 471.112075 
L 1449.760464 481.762696 
L 1450.998722 488.977392 
L 1452.236979 491.918804 
L 1453.475236 491.306157 
L 1454.713494 488.848587 
L 1455.951751 485.633053 
L 1457.190008 481.52932 
L 1459.666523 472.069826 
L 1460.90478 469.88404 
L 1462.143037 470.797467 
L 1464.619552 476.442693 
L 1465.857809 478.046668 
L 1467.096066 478.139606 
L 1468.334323 477.065939 
L 1469.572581 475.836417 
L 1470.810838 475.700321 
L 1472.049095 477.234961 
L 1474.52561 482.594802 
L 1477.002124 487.116327 
L 1478.240382 490.04869 
L 1481.955153 501.379105 
L 1484.431668 507.375895 
L 1485.669925 509.858118 
L 1486.908182 511.368369 
L 1488.14644 511.07557 
L 1489.384697 508.386058 
L 1490.622954 503.39458 
L 1494.337726 484.266351 
L 1495.575983 481.093482 
L 1496.814241 481.630146 
L 1498.052498 485.341519 
L 1499.290755 490.289011 
L 1500.529012 494.756749 
L 1501.76727 498.366522 
L 1504.243784 504.328608 
L 1505.482041 506.786724 
L 1506.720299 508.752889 
L 1507.958556 510.061173 
L 1509.196813 510.681679 
L 1510.435071 510.814027 
L 1511.673328 510.546043 
L 1512.911585 509.711551 
L 1514.149842 508.209533 
L 1515.3881 506.124005 
L 1517.864614 501.312137 
L 1519.102871 499.375972 
L 1520.341129 498.064434 
L 1521.579386 497.588781 
L 1522.817643 497.773097 
L 1524.0559 497.547679 
L 1525.294158 495.604642 
L 1526.532415 491.711078 
L 1527.770672 487.245496 
L 1529.00893 484.104447 
L 1530.247187 483.110088 
L 1531.485444 483.791624 
L 1533.961959 486.878076 
L 1535.200216 488.502526 
L 1536.438473 490.573921 
L 1538.914988 495.81764 
L 1540.153245 497.044939 
L 1541.391502 496.400109 
L 1543.868017 492.209443 
L 1545.106274 491.981347 
L 1546.344531 494.845087 
L 1547.582789 500.306633 
L 1548.821046 506.634575 
L 1550.059303 511.99956 
L 1551.29756 515.086865 
L 1552.535818 515.397729 
L 1553.774075 513.522267 
L 1555.012332 510.909004 
L 1556.250589 509.112236 
L 1557.488847 509.126694 
L 1558.727104 511.004066 
L 1559.965361 513.949828 
L 1562.441876 520.777339 
L 1563.680133 524.623621 
L 1564.91839 528.089737 
L 1566.156648 530.509591 
L 1567.394905 531.70944 
L 1568.633162 531.487165 
L 1569.871419 529.895574 
L 1571.109677 527.900348 
L 1572.347934 526.335511 
L 1573.586191 525.225708 
L 1574.824448 524.87724 
L 1576.062706 525.770145 
L 1577.300963 527.623935 
L 1579.777478 532.154804 
L 1581.015735 533.154062 
L 1582.253992 531.929056 
L 1584.730507 526.209492 
L 1585.968764 524.882817 
L 1587.207021 525.369721 
L 1588.445278 527.254541 
L 1589.683536 530.076139 
L 1593.398307 540.671884 
L 1594.636565 543.4844 
L 1595.874822 545.203391 
L 1597.113079 545.513273 
L 1598.351337 544.488042 
L 1599.589594 542.460634 
L 1600.827851 539.956945 
L 1602.066108 537.856348 
L 1603.304366 537.108275 
L 1604.542623 537.988501 
L 1605.78088 539.781361 
L 1607.019137 541.247227 
L 1608.257395 541.436656 
L 1609.495652 540.02307 
L 1610.733909 536.956822 
L 1613.210424 528.350937 
L 1614.448681 525.830329 
L 1615.686938 525.705046 
L 1618.163453 528.794949 
L 1619.40171 529.264517 
L 1620.639967 528.155415 
L 1623.116482 523.823524 
L 1624.354739 523.038927 
L 1625.592996 524.143307 
L 1626.831254 526.939554 
L 1628.069511 530.948441 
L 1629.307768 536.080023 
L 1631.784283 549.013098 
L 1633.02254 554.367791 
L 1634.260797 557.694867 
L 1635.499055 559.543643 
L 1636.737312 560.678006 
L 1637.975569 561.202423 
L 1639.213826 560.679712 
L 1640.452084 558.675511 
L 1641.690341 555.492372 
L 1641.690341 555.492372 
" style="fill:none;stroke:#008000;stroke-linecap:square;stroke-width:1.5;"/>
   </g>
   <g id="patch_3">
    <path d="M 43.78125 586.86358 
L 43.78125 22.318125 
" style="fill:none;stroke:#000000;stroke-linecap:square;stroke-linejoin:miter;stroke-width:0.8;"/>
   </g>
   <g id="patch_4">
    <path d="M 1717.78125 586.86358 
L 1717.78125 22.318125 
" style="fill:none;stroke:#000000;stroke-linecap:square;stroke-linejoin:miter;stroke-width:0.8;"/>
   </g>
   <g id="patch_5">
    <path d="M 43.78125 586.86358 
L 1717.78125 586.86358 
" style="fill:none;stroke:#000000;stroke-linecap:square;stroke-linejoin:miter;stroke-width:0.8;"/>
   </g>
   <g id="patch_6">
    <path d="M 43.78125 22.318125 
L 1717.78125 22.318125 
" style="fill:none;stroke:#000000;stroke-linecap:square;stroke-linejoin:miter;stroke-width:0.8;"/>
   </g>
   <g id="text_18">
    <!-- before binarisation -->
    <g transform="translate(824.1825 16.318125)scale(0.12 -0.12)">
     <defs>
      <path d="M 3116 1747 
Q 3116 2381 2855 2742 
Q 2594 3103 2138 3103 
Q 1681 3103 1420 2742 
Q 1159 2381 1159 1747 
Q 1159 1113 1420 752 
Q 1681 391 2138 391 
Q 2594 391 2855 752 
Q 3116 1113 3116 1747 
z
M 1159 2969 
Q 1341 3281 1617 3432 
Q 1894 3584 2278 3584 
Q 2916 3584 3314 3078 
Q 3713 2572 3713 1747 
Q 3713 922 3314 415 
Q 2916 -91 2278 -91 
Q 1894 -91 1617 61 
Q 1341 213 1159 525 
L 1159 0 
L 581 0 
L 581 4863 
L 1159 4863 
L 1159 2969 
z
" id="DejaVuSans-62" transform="scale(0.015625)"/>
      <path d="M 1959 3097 
Q 1497 3097 1228 2736 
Q 959 2375 959 1747 
Q 959 1119 1226 758 
Q 1494 397 1959 397 
Q 2419 397 2687 759 
Q 2956 1122 2956 1747 
Q 2956 2369 2687 2733 
Q 2419 3097 1959 3097 
z
M 1959 3584 
Q 2709 3584 3137 3096 
Q 3566 2609 3566 1747 
Q 3566 888 3137 398 
Q 2709 -91 1959 -91 
Q 1206 -91 779 398 
Q 353 888 353 1747 
Q 353 2609 779 3096 
Q 1206 3584 1959 3584 
z
" id="DejaVuSans-6f" transform="scale(0.015625)"/>
      <path id="DejaVuSans-20" transform="scale(0.015625)"/>
      <path d="M 603 3500 
L 1178 3500 
L 1178 0 
L 603 0 
L 603 3500 
z
M 603 4863 
L 1178 4863 
L 1178 4134 
L 603 4134 
L 603 4863 
z
" id="DejaVuSans-69" transform="scale(0.015625)"/>
      <path d="M 3513 2113 
L 3513 0 
L 2938 0 
L 2938 2094 
Q 2938 2591 2744 2837 
Q 2550 3084 2163 3084 
Q 1697 3084 1428 2787 
Q 1159 2491 1159 1978 
L 1159 0 
L 581 0 
L 581 3500 
L 1159 3500 
L 1159 2956 
Q 1366 3272 1645 3428 
Q 1925 3584 2291 3584 
Q 2894 3584 3203 3211 
Q 3513 2838 3513 2113 
z
" id="DejaVuSans-6e" transform="scale(0.015625)"/>
      <path d="M 2834 3397 
L 2834 2853 
Q 2591 2978 2328 3040 
Q 2066 3103 1784 3103 
Q 1356 3103 1142 2972 
Q 928 2841 928 2578 
Q 928 2378 1081 2264 
Q 1234 2150 1697 2047 
L 1894 2003 
Q 2506 1872 2764 1633 
Q 3022 1394 3022 966 
Q 3022 478 2636 193 
Q 2250 -91 1575 -91 
Q 1294 -91 989 -36 
Q 684 19 347 128 
L 347 722 
Q 666 556 975 473 
Q 1284 391 1588 391 
Q 1994 391 2212 530 
Q 2431 669 2431 922 
Q 2431 1156 2273 1281 
Q 2116 1406 1581 1522 
L 1381 1569 
Q 847 1681 609 1914 
Q 372 2147 372 2553 
Q 372 3047 722 3315 
Q 1072 3584 1716 3584 
Q 2034 3584 2315 3537 
Q 2597 3491 2834 3397 
z
" id="DejaVuSans-73" transform="scale(0.015625)"/>
      <path d="M 1172 4494 
L 1172 3500 
L 2356 3500 
L 2356 3053 
L 1172 3053 
L 1172 1153 
Q 1172 725 1289 603 
Q 1406 481 1766 481 
L 2356 481 
L 2356 0 
L 1766 0 
Q 1100 0 847 248 
Q 594 497 594 1153 
L 594 3053 
L 172 3053 
L 172 3500 
L 594 3500 
L 594 4494 
L 1172 4494 
z
" id="DejaVuSans-74" transform="scale(0.015625)"/>
     </defs>
     <use xlink:href="#DejaVuSans-62"/>
     <use x="63.476562" xlink:href="#DejaVuSans-65"/>
     <use x="125" xlink:href="#DejaVuSans-66"/>
     <use x="160.205078" xlink:href="#DejaVuSans-6f"/>
     <use x="221.386719" xlink:href="#DejaVuSans-72"/>
     <use x="260.25" xlink:href="#DejaVuSans-65"/>
     <use x="321.773438" xlink:href="#DejaVuSans-20"/>
     <use x="353.560547" xlink:href="#DejaVuSans-62"/>
     <use x="417.037109" xlink:href="#DejaVuSans-69"/>
     <use x="444.820312" xlink:href="#DejaVuSans-6e"/>
     <use x="508.199219" xlink:href="#DejaVuSans-61"/>
     <use x="569.478516" xlink:href="#DejaVuSans-72"/>
     <use x="610.591797" xlink:href="#DejaVuSans-69"/>
     <use x="638.375" xlink:href="#DejaVuSans-73"/>
     <use x="690.474609" xlink:href="#DejaVuSans-61"/>
     <use x="751.753906" xlink:href="#DejaVuSans-74"/>
     <use x="790.962891" xlink:href="#DejaVuSans-69"/>
     <use x="818.746094" xlink:href="#DejaVuSans-6f"/>
     <use x="879.927734" xlink:href="#DejaVuSans-6e"/>
    </g>
   </g>
  </g>
  <g id="axes_2">
   <g id="patch_7">
    <path d="M 43.78125 1264.318125 
L 1717.78125 1264.318125 
L 1717.78125 699.77267 
L 43.78125 699.77267 
z
" style="fill:#ffffff;"/>
   </g>
   <g id="matplotlib.axis_3">
    <g id="xtick_8">
     <g id="line2d_17">
      <g>
       <use style="stroke:#000000;stroke-width:0.8;" x="119.872159" xlink:href="#mcb68fe8e36" y="1264.318125"/>
      </g>
     </g>
     <g id="text_19">
      <!-- 0 -->
      <g transform="translate(116.690909 1278.916563)scale(0.1 -0.1)">
       <use xlink:href="#DejaVuSans-30"/>
      </g>
     </g>
    </g>
    <g id="xtick_9">
     <g id="line2d_18">
      <g>
       <use style="stroke:#000000;stroke-width:0.8;" x="367.523613" xlink:href="#mcb68fe8e36" y="1264.318125"/>
      </g>
     </g>
     <g id="text_20">
      <!-- 200 -->
      <g transform="translate(357.979863 1278.916563)scale(0.1 -0.1)">
       <use xlink:href="#DejaVuSans-32"/>
       <use x="63.623047" xlink:href="#DejaVuSans-30"/>
       <use x="127.246094" xlink:href="#DejaVuSans-30"/>
      </g>
     </g>
    </g>
    <g id="xtick_10">
     <g id="line2d_19">
      <g>
       <use style="stroke:#000000;stroke-width:0.8;" x="615.175066" xlink:href="#mcb68fe8e36" y="1264.318125"/>
      </g>
     </g>
     <g id="text_21">
      <!-- 400 -->
      <g transform="translate(605.631316 1278.916563)scale(0.1 -0.1)">
       <use xlink:href="#DejaVuSans-34"/>
       <use x="63.623047" xlink:href="#DejaVuSans-30"/>
       <use x="127.246094" xlink:href="#DejaVuSans-30"/>
      </g>
     </g>
    </g>
    <g id="xtick_11">
     <g id="line2d_20">
      <g>
       <use style="stroke:#000000;stroke-width:0.8;" x="862.82652" xlink:href="#mcb68fe8e36" y="1264.318125"/>
      </g>
     </g>
     <g id="text_22">
      <!-- 600 -->
      <g transform="translate(853.28277 1278.916563)scale(0.1 -0.1)">
       <use xlink:href="#DejaVuSans-36"/>
       <use x="63.623047" xlink:href="#DejaVuSans-30"/>
       <use x="127.246094" xlink:href="#DejaVuSans-30"/>
      </g>
     </g>
    </g>
    <g id="xtick_12">
     <g id="line2d_21">
      <g>
       <use style="stroke:#000000;stroke-width:0.8;" x="1110.477973" xlink:href="#mcb68fe8e36" y="1264.318125"/>
      </g>
     </g>
     <g id="text_23">
      <!-- 800 -->
      <g transform="translate(1100.934223 1278.916563)scale(0.1 -0.1)">
       <use xlink:href="#DejaVuSans-38"/>
       <use x="63.623047" xlink:href="#DejaVuSans-30"/>
       <use x="127.246094" xlink:href="#DejaVuSans-30"/>
      </g>
     </g>
    </g>
    <g id="xtick_13">
     <g id="line2d_22">
      <g>
       <use style="stroke:#000000;stroke-width:0.8;" x="1358.129427" xlink:href="#mcb68fe8e36" y="1264.318125"/>
      </g>
     </g>
     <g id="text_24">
      <!-- 1000 -->
      <g transform="translate(1345.404427 1278.916563)scale(0.1 -0.1)">
       <use xlink:href="#DejaVuSans-31"/>
       <use x="63.623047" xlink:href="#DejaVuSans-30"/>
       <use x="127.246094" xlink:href="#DejaVuSans-30"/>
       <use x="190.869141" xlink:href="#DejaVuSans-30"/>
      </g>
     </g>
    </g>
    <g id="xtick_14">
     <g id="line2d_23">
      <g>
       <use style="stroke:#000000;stroke-width:0.8;" x="1605.78088" xlink:href="#mcb68fe8e36" y="1264.318125"/>
      </g>
     </g>
     <g id="text_25">
      <!-- 1200 -->
      <g transform="translate(1593.05588 1278.916563)scale(0.1 -0.1)">
       <use xlink:href="#DejaVuSans-31"/>
       <use x="63.623047" xlink:href="#DejaVuSans-32"/>
       <use x="127.246094" xlink:href="#DejaVuSans-30"/>
       <use x="190.869141" xlink:href="#DejaVuSans-30"/>
      </g>
     </g>
    </g>
    <g id="text_26">
     <!-- frame -->
     <g transform="translate(865.954687 1292.594688)scale(0.1 -0.1)">
      <use xlink:href="#DejaVuSans-66"/>
      <use x="35.205078" xlink:href="#DejaVuSans-72"/>
      <use x="76.318359" xlink:href="#DejaVuSans-61"/>
      <use x="137.597656" xlink:href="#DejaVuSans-6d"/>
      <use x="235.009766" xlink:href="#DejaVuSans-65"/>
     </g>
    </g>
   </g>
   <g id="matplotlib.axis_4">
    <g id="ytick_9">
     <g id="line2d_24">
      <g>
       <use style="stroke:#000000;stroke-width:0.8;" x="43.78125" xlink:href="#m23a87df2cf" y="1238.656968"/>
      </g>
     </g>
     <g id="text_27">
      <!-- 0.0 -->
      <g transform="translate(20.878125 1242.456187)scale(0.1 -0.1)">
       <defs>
        <path d="M 684 794 
L 1344 794 
L 1344 0 
L 684 0 
L 684 794 
z
" id="DejaVuSans-2e" transform="scale(0.015625)"/>
       </defs>
       <use xlink:href="#DejaVuSans-30"/>
       <use x="63.623047" xlink:href="#DejaVuSans-2e"/>
       <use x="95.410156" xlink:href="#DejaVuSans-30"/>
      </g>
     </g>
    </g>
    <g id="ytick_10">
     <g id="line2d_25">
      <g>
       <use style="stroke:#000000;stroke-width:0.8;" x="43.78125" xlink:href="#m23a87df2cf" y="1136.01234"/>
      </g>
     </g>
     <g id="text_28">
      <!-- 0.2 -->
      <g transform="translate(20.878125 1139.811559)scale(0.1 -0.1)">
       <use xlink:href="#DejaVuSans-30"/>
       <use x="63.623047" xlink:href="#DejaVuSans-2e"/>
       <use x="95.410156" xlink:href="#DejaVuSans-32"/>
      </g>
     </g>
    </g>
    <g id="ytick_11">
     <g id="line2d_26">
      <g>
       <use style="stroke:#000000;stroke-width:0.8;" x="43.78125" xlink:href="#m23a87df2cf" y="1033.367712"/>
      </g>
     </g>
     <g id="text_29">
      <!-- 0.4 -->
      <g transform="translate(20.878125 1037.166931)scale(0.1 -0.1)">
       <use xlink:href="#DejaVuSans-30"/>
       <use x="63.623047" xlink:href="#DejaVuSans-2e"/>
       <use x="95.410156" xlink:href="#DejaVuSans-34"/>
      </g>
     </g>
    </g>
    <g id="ytick_12">
     <g id="line2d_27">
      <g>
       <use style="stroke:#000000;stroke-width:0.8;" x="43.78125" xlink:href="#m23a87df2cf" y="930.723084"/>
      </g>
     </g>
     <g id="text_30">
      <!-- 0.6 -->
      <g transform="translate(20.878125 934.522302)scale(0.1 -0.1)">
       <use xlink:href="#DejaVuSans-30"/>
       <use x="63.623047" xlink:href="#DejaVuSans-2e"/>
       <use x="95.410156" xlink:href="#DejaVuSans-36"/>
      </g>
     </g>
    </g>
    <g id="ytick_13">
     <g id="line2d_28">
      <g>
       <use style="stroke:#000000;stroke-width:0.8;" x="43.78125" xlink:href="#m23a87df2cf" y="828.078456"/>
      </g>
     </g>
     <g id="text_31">
      <!-- 0.8 -->
      <g transform="translate(20.878125 831.877674)scale(0.1 -0.1)">
       <use xlink:href="#DejaVuSans-30"/>
       <use x="63.623047" xlink:href="#DejaVuSans-2e"/>
       <use x="95.410156" xlink:href="#DejaVuSans-38"/>
      </g>
     </g>
    </g>
    <g id="ytick_14">
     <g id="line2d_29">
      <g>
       <use style="stroke:#000000;stroke-width:0.8;" x="43.78125" xlink:href="#m23a87df2cf" y="725.433827"/>
      </g>
     </g>
     <g id="text_32">
      <!-- 1.0 -->
      <g transform="translate(20.878125 729.233046)scale(0.1 -0.1)">
       <use xlink:href="#DejaVuSans-31"/>
       <use x="63.623047" xlink:href="#DejaVuSans-2e"/>
       <use x="95.410156" xlink:href="#DejaVuSans-30"/>
      </g>
     </g>
    </g>
    <g id="text_33">
     <!-- GCaMP -->
     <g transform="translate(14.798437 999.803991)rotate(-90)scale(0.1 -0.1)">
      <use xlink:href="#DejaVuSans-47"/>
      <use x="77.490234" xlink:href="#DejaVuSans-43"/>
      <use x="147.314453" xlink:href="#DejaVuSans-61"/>
      <use x="208.59375" xlink:href="#DejaVuSans-4d"/>
      <use x="294.873047" xlink:href="#DejaVuSans-50"/>
     </g>
    </g>
   </g>
   <g id="line2d_30">
    <path clip-path="url(#p48727c49c5)" d="M 119.872159 725.433827 
L 261.033488 725.433827 
L 262.271745 1238.656968 
L 268.463031 1238.656968 
L 269.701288 725.433827 
L 334.090666 725.433827 
L 335.328924 1238.656968 
L 1641.690341 1238.656968 
L 1641.690341 1238.656968 
" style="fill:none;stroke:#008000;stroke-linecap:square;stroke-width:1.5;"/>
   </g>
   <g id="patch_8">
    <path d="M 43.78125 1264.318125 
L 43.78125 699.77267 
" style="fill:none;stroke:#000000;stroke-linecap:square;stroke-linejoin:miter;stroke-width:0.8;"/>
   </g>
   <g id="patch_9">
    <path d="M 1717.78125 1264.318125 
L 1717.78125 699.77267 
" style="fill:none;stroke:#000000;stroke-linecap:square;stroke-linejoin:miter;stroke-width:0.8;"/>
   </g>
   <g id="patch_10">
    <path d="M 43.78125 1264.318125 
L 1717.78125 1264.318125 
" style="fill:none;stroke:#000000;stroke-linecap:square;stroke-linejoin:miter;stroke-width:0.8;"/>
   </g>
   <g id="patch_11">
    <path d="M 43.78125 699.77267 
L 1717.78125 699.77267 
" style="fill:none;stroke:#000000;stroke-linecap:square;stroke-linejoin:miter;stroke-width:0.8;"/>
   </g>
   <g id="text_34">
    <!-- before binarisation -->
    <g transform="translate(824.1825 693.77267)scale(0.12 -0.12)">
     <use xlink:href="#DejaVuSans-62"/>
     <use x="63.476562" xlink:href="#DejaVuSans-65"/>
     <use x="125" xlink:href="#DejaVuSans-66"/>
     <use x="160.205078" xlink:href="#DejaVuSans-6f"/>
     <use x="221.386719" xlink:href="#DejaVuSans-72"/>
     <use x="260.25" xlink:href="#DejaVuSans-65"/>
     <use x="321.773438" xlink:href="#DejaVuSans-20"/>
     <use x="353.560547" xlink:href="#DejaVuSans-62"/>
     <use x="417.037109" xlink:href="#DejaVuSans-69"/>
     <use x="444.820312" xlink:href="#DejaVuSans-6e"/>
     <use x="508.199219" xlink:href="#DejaVuSans-61"/>
     <use x="569.478516" xlink:href="#DejaVuSans-72"/>
     <use x="610.591797" xlink:href="#DejaVuSans-69"/>
     <use x="638.375" xlink:href="#DejaVuSans-73"/>
     <use x="690.474609" xlink:href="#DejaVuSans-61"/>
     <use x="751.753906" xlink:href="#DejaVuSans-74"/>
     <use x="790.962891" xlink:href="#DejaVuSans-69"/>
     <use x="818.746094" xlink:href="#DejaVuSans-6f"/>
     <use x="879.927734" xlink:href="#DejaVuSans-6e"/>
    </g>
   </g>
  </g>
 </g>
 <defs>
  <clipPath id="pdd67eb7dcf">
   <rect height="564.545455" width="1674" x="43.78125" y="22.318125"/>
  </clipPath>
  <clipPath id="p48727c49c5">
   <rect height="564.545455" width="1674" x="43.78125" y="699.77267"/>
  </clipPath>
 </defs>
</svg>
