<?xml version="1.0" encoding="utf-8" standalone="no"?>
<!DOCTYPE svg PUBLIC "-//W3C//DTD SVG 1.1//EN"
  "http://www.w3.org/Graphics/SVG/1.1/DTD/svg11.dtd">
<svg height="1301.874375pt" version="1.1" viewBox="0 0 1724.98125 1301.874375" width="1724.98125pt" xmlns="http://www.w3.org/2000/svg" xmlns:xlink="http://www.w3.org/1999/xlink">
 <metadata>
  <rdf:RDF xmlns:cc="http://creativecommons.org/ns#" xmlns:dc="http://purl.org/dc/elements/1.1/" xmlns:rdf="http://www.w3.org/1999/02/22-rdf-syntax-ns#">
   <cc:Work>
    <dc:type rdf:resource="http://purl.org/dc/dcmitype/StillImage"/>
    <dc:date>2022-07-24T15:54:30.143846</dc:date>
    <dc:format>image/svg+xml</dc:format>
    <dc:creator>
     <cc:Agent>
      <dc:title>Matplotlib v3.4.2, https://matplotlib.org/</dc:title>
     </cc:Agent>
    </dc:creator>
   </cc:Work>
  </rdf:RDF>
 </metadata>
 <defs>
  <style type="text/css">*{stroke-linecap:butt;stroke-linejoin:round;}</style>
 </defs>
 <g id="figure_1">
  <g id="patch_1">
   <path d="M 0 1301.874375 
L 1724.98125 1301.874375 
L 1724.98125 0 
L 0 0 
z
" style="fill:#ffffff;"/>
  </g>
  <g id="axes_1">
   <g id="patch_2">
    <path d="M 43.78125 586.86358 
L 1717.78125 586.86358 
L 1717.78125 22.318125 
L 43.78125 22.318125 
z
" style="fill:#ffffff;"/>
   </g>
   <g id="matplotlib.axis_1">
    <g id="xtick_1">
     <g id="line2d_1">
      <defs>
       <path d="M 0 0 
L 0 3.5 
" id="m5bafff329e" style="stroke:#000000;stroke-width:0.8;"/>
      </defs>
      <g>
       <use style="stroke:#000000;stroke-width:0.8;" x="119.872159" xlink:href="#m5bafff329e" y="586.86358"/>
      </g>
     </g>
     <g id="text_1">
      <!-- 0 -->
      <g transform="translate(116.690909 601.462017)scale(0.1 -0.1)">
       <defs>
        <path d="M 2034 4250 
Q 1547 4250 1301 3770 
Q 1056 3291 1056 2328 
Q 1056 1369 1301 889 
Q 1547 409 2034 409 
Q 2525 409 2770 889 
Q 3016 1369 3016 2328 
Q 3016 3291 2770 3770 
Q 2525 4250 2034 4250 
z
M 2034 4750 
Q 2819 4750 3233 4129 
Q 3647 3509 3647 2328 
Q 3647 1150 3233 529 
Q 2819 -91 2034 -91 
Q 1250 -91 836 529 
Q 422 1150 422 2328 
Q 422 3509 836 4129 
Q 1250 4750 2034 4750 
z
" id="DejaVuSans-30" transform="scale(0.015625)"/>
       </defs>
       <use xlink:href="#DejaVuSans-30"/>
      </g>
     </g>
    </g>
    <g id="xtick_2">
     <g id="line2d_2">
      <g>
       <use style="stroke:#000000;stroke-width:0.8;" x="367.523613" xlink:href="#m5bafff329e" y="586.86358"/>
      </g>
     </g>
     <g id="text_2">
      <!-- 200 -->
      <g transform="translate(357.979863 601.462017)scale(0.1 -0.1)">
       <defs>
        <path d="M 1228 531 
L 3431 531 
L 3431 0 
L 469 0 
L 469 531 
Q 828 903 1448 1529 
Q 2069 2156 2228 2338 
Q 2531 2678 2651 2914 
Q 2772 3150 2772 3378 
Q 2772 3750 2511 3984 
Q 2250 4219 1831 4219 
Q 1534 4219 1204 4116 
Q 875 4013 500 3803 
L 500 4441 
Q 881 4594 1212 4672 
Q 1544 4750 1819 4750 
Q 2544 4750 2975 4387 
Q 3406 4025 3406 3419 
Q 3406 3131 3298 2873 
Q 3191 2616 2906 2266 
Q 2828 2175 2409 1742 
Q 1991 1309 1228 531 
z
" id="DejaVuSans-32" transform="scale(0.015625)"/>
       </defs>
       <use xlink:href="#DejaVuSans-32"/>
       <use x="63.623047" xlink:href="#DejaVuSans-30"/>
       <use x="127.246094" xlink:href="#DejaVuSans-30"/>
      </g>
     </g>
    </g>
    <g id="xtick_3">
     <g id="line2d_3">
      <g>
       <use style="stroke:#000000;stroke-width:0.8;" x="615.175066" xlink:href="#m5bafff329e" y="586.86358"/>
      </g>
     </g>
     <g id="text_3">
      <!-- 400 -->
      <g transform="translate(605.631316 601.462017)scale(0.1 -0.1)">
       <defs>
        <path d="M 2419 4116 
L 825 1625 
L 2419 1625 
L 2419 4116 
z
M 2253 4666 
L 3047 4666 
L 3047 1625 
L 3713 1625 
L 3713 1100 
L 3047 1100 
L 3047 0 
L 2419 0 
L 2419 1100 
L 313 1100 
L 313 1709 
L 2253 4666 
z
" id="DejaVuSans-34" transform="scale(0.015625)"/>
       </defs>
       <use xlink:href="#DejaVuSans-34"/>
       <use x="63.623047" xlink:href="#DejaVuSans-30"/>
       <use x="127.246094" xlink:href="#DejaVuSans-30"/>
      </g>
     </g>
    </g>
    <g id="xtick_4">
     <g id="line2d_4">
      <g>
       <use style="stroke:#000000;stroke-width:0.8;" x="862.82652" xlink:href="#m5bafff329e" y="586.86358"/>
      </g>
     </g>
     <g id="text_4">
      <!-- 600 -->
      <g transform="translate(853.28277 601.462017)scale(0.1 -0.1)">
       <defs>
        <path d="M 2113 2584 
Q 1688 2584 1439 2293 
Q 1191 2003 1191 1497 
Q 1191 994 1439 701 
Q 1688 409 2113 409 
Q 2538 409 2786 701 
Q 3034 994 3034 1497 
Q 3034 2003 2786 2293 
Q 2538 2584 2113 2584 
z
M 3366 4563 
L 3366 3988 
Q 3128 4100 2886 4159 
Q 2644 4219 2406 4219 
Q 1781 4219 1451 3797 
Q 1122 3375 1075 2522 
Q 1259 2794 1537 2939 
Q 1816 3084 2150 3084 
Q 2853 3084 3261 2657 
Q 3669 2231 3669 1497 
Q 3669 778 3244 343 
Q 2819 -91 2113 -91 
Q 1303 -91 875 529 
Q 447 1150 447 2328 
Q 447 3434 972 4092 
Q 1497 4750 2381 4750 
Q 2619 4750 2861 4703 
Q 3103 4656 3366 4563 
z
" id="DejaVuSans-36" transform="scale(0.015625)"/>
       </defs>
       <use xlink:href="#DejaVuSans-36"/>
       <use x="63.623047" xlink:href="#DejaVuSans-30"/>
       <use x="127.246094" xlink:href="#DejaVuSans-30"/>
      </g>
     </g>
    </g>
    <g id="xtick_5">
     <g id="line2d_5">
      <g>
       <use style="stroke:#000000;stroke-width:0.8;" x="1110.477973" xlink:href="#m5bafff329e" y="586.86358"/>
      </g>
     </g>
     <g id="text_5">
      <!-- 800 -->
      <g transform="translate(1100.934223 601.462017)scale(0.1 -0.1)">
       <defs>
        <path d="M 2034 2216 
Q 1584 2216 1326 1975 
Q 1069 1734 1069 1313 
Q 1069 891 1326 650 
Q 1584 409 2034 409 
Q 2484 409 2743 651 
Q 3003 894 3003 1313 
Q 3003 1734 2745 1975 
Q 2488 2216 2034 2216 
z
M 1403 2484 
Q 997 2584 770 2862 
Q 544 3141 544 3541 
Q 544 4100 942 4425 
Q 1341 4750 2034 4750 
Q 2731 4750 3128 4425 
Q 3525 4100 3525 3541 
Q 3525 3141 3298 2862 
Q 3072 2584 2669 2484 
Q 3125 2378 3379 2068 
Q 3634 1759 3634 1313 
Q 3634 634 3220 271 
Q 2806 -91 2034 -91 
Q 1263 -91 848 271 
Q 434 634 434 1313 
Q 434 1759 690 2068 
Q 947 2378 1403 2484 
z
M 1172 3481 
Q 1172 3119 1398 2916 
Q 1625 2713 2034 2713 
Q 2441 2713 2670 2916 
Q 2900 3119 2900 3481 
Q 2900 3844 2670 4047 
Q 2441 4250 2034 4250 
Q 1625 4250 1398 4047 
Q 1172 3844 1172 3481 
z
" id="DejaVuSans-38" transform="scale(0.015625)"/>
       </defs>
       <use xlink:href="#DejaVuSans-38"/>
       <use x="63.623047" xlink:href="#DejaVuSans-30"/>
       <use x="127.246094" xlink:href="#DejaVuSans-30"/>
      </g>
     </g>
    </g>
    <g id="xtick_6">
     <g id="line2d_6">
      <g>
       <use style="stroke:#000000;stroke-width:0.8;" x="1358.129427" xlink:href="#m5bafff329e" y="586.86358"/>
      </g>
     </g>
     <g id="text_6">
      <!-- 1000 -->
      <g transform="translate(1345.404427 601.462017)scale(0.1 -0.1)">
       <defs>
        <path d="M 794 531 
L 1825 531 
L 1825 4091 
L 703 3866 
L 703 4441 
L 1819 4666 
L 2450 4666 
L 2450 531 
L 3481 531 
L 3481 0 
L 794 0 
L 794 531 
z
" id="DejaVuSans-31" transform="scale(0.015625)"/>
       </defs>
       <use xlink:href="#DejaVuSans-31"/>
       <use x="63.623047" xlink:href="#DejaVuSans-30"/>
       <use x="127.246094" xlink:href="#DejaVuSans-30"/>
       <use x="190.869141" xlink:href="#DejaVuSans-30"/>
      </g>
     </g>
    </g>
    <g id="xtick_7">
     <g id="line2d_7">
      <g>
       <use style="stroke:#000000;stroke-width:0.8;" x="1605.78088" xlink:href="#m5bafff329e" y="586.86358"/>
      </g>
     </g>
     <g id="text_7">
      <!-- 1200 -->
      <g transform="translate(1593.05588 601.462017)scale(0.1 -0.1)">
       <use xlink:href="#DejaVuSans-31"/>
       <use x="63.623047" xlink:href="#DejaVuSans-32"/>
       <use x="127.246094" xlink:href="#DejaVuSans-30"/>
       <use x="190.869141" xlink:href="#DejaVuSans-30"/>
      </g>
     </g>
    </g>
    <g id="text_8">
     <!-- frame -->
     <g transform="translate(865.954687 615.140142)scale(0.1 -0.1)">
      <defs>
       <path d="M 2375 4863 
L 2375 4384 
L 1825 4384 
Q 1516 4384 1395 4259 
Q 1275 4134 1275 3809 
L 1275 3500 
L 2222 3500 
L 2222 3053 
L 1275 3053 
L 1275 0 
L 697 0 
L 697 3053 
L 147 3053 
L 147 3500 
L 697 3500 
L 697 3744 
Q 697 4328 969 4595 
Q 1241 4863 1831 4863 
L 2375 4863 
z
" id="DejaVuSans-66" transform="scale(0.015625)"/>
       <path d="M 2631 2963 
Q 2534 3019 2420 3045 
Q 2306 3072 2169 3072 
Q 1681 3072 1420 2755 
Q 1159 2438 1159 1844 
L 1159 0 
L 581 0 
L 581 3500 
L 1159 3500 
L 1159 2956 
Q 1341 3275 1631 3429 
Q 1922 3584 2338 3584 
Q 2397 3584 2469 3576 
Q 2541 3569 2628 3553 
L 2631 2963 
z
" id="DejaVuSans-72" transform="scale(0.015625)"/>
       <path d="M 2194 1759 
Q 1497 1759 1228 1600 
Q 959 1441 959 1056 
Q 959 750 1161 570 
Q 1363 391 1709 391 
Q 2188 391 2477 730 
Q 2766 1069 2766 1631 
L 2766 1759 
L 2194 1759 
z
M 3341 1997 
L 3341 0 
L 2766 0 
L 2766 531 
Q 2569 213 2275 61 
Q 1981 -91 1556 -91 
Q 1019 -91 701 211 
Q 384 513 384 1019 
Q 384 1609 779 1909 
Q 1175 2209 1959 2209 
L 2766 2209 
L 2766 2266 
Q 2766 2663 2505 2880 
Q 2244 3097 1772 3097 
Q 1472 3097 1187 3025 
Q 903 2953 641 2809 
L 641 3341 
Q 956 3463 1253 3523 
Q 1550 3584 1831 3584 
Q 2591 3584 2966 3190 
Q 3341 2797 3341 1997 
z
" id="DejaVuSans-61" transform="scale(0.015625)"/>
       <path d="M 3328 2828 
Q 3544 3216 3844 3400 
Q 4144 3584 4550 3584 
Q 5097 3584 5394 3201 
Q 5691 2819 5691 2113 
L 5691 0 
L 5113 0 
L 5113 2094 
Q 5113 2597 4934 2840 
Q 4756 3084 4391 3084 
Q 3944 3084 3684 2787 
Q 3425 2491 3425 1978 
L 3425 0 
L 2847 0 
L 2847 2094 
Q 2847 2600 2669 2842 
Q 2491 3084 2119 3084 
Q 1678 3084 1418 2786 
Q 1159 2488 1159 1978 
L 1159 0 
L 581 0 
L 581 3500 
L 1159 3500 
L 1159 2956 
Q 1356 3278 1631 3431 
Q 1906 3584 2284 3584 
Q 2666 3584 2933 3390 
Q 3200 3197 3328 2828 
z
" id="DejaVuSans-6d" transform="scale(0.015625)"/>
       <path d="M 3597 1894 
L 3597 1613 
L 953 1613 
Q 991 1019 1311 708 
Q 1631 397 2203 397 
Q 2534 397 2845 478 
Q 3156 559 3463 722 
L 3463 178 
Q 3153 47 2828 -22 
Q 2503 -91 2169 -91 
Q 1331 -91 842 396 
Q 353 884 353 1716 
Q 353 2575 817 3079 
Q 1281 3584 2069 3584 
Q 2775 3584 3186 3129 
Q 3597 2675 3597 1894 
z
M 3022 2063 
Q 3016 2534 2758 2815 
Q 2500 3097 2075 3097 
Q 1594 3097 1305 2825 
Q 1016 2553 972 2059 
L 3022 2063 
z
" id="DejaVuSans-65" transform="scale(0.015625)"/>
      </defs>
      <use xlink:href="#DejaVuSans-66"/>
      <use x="35.205078" xlink:href="#DejaVuSans-72"/>
      <use x="76.318359" xlink:href="#DejaVuSans-61"/>
      <use x="137.597656" xlink:href="#DejaVuSans-6d"/>
      <use x="235.009766" xlink:href="#DejaVuSans-65"/>
     </g>
    </g>
   </g>
   <g id="matplotlib.axis_2">
    <g id="ytick_1">
     <g id="line2d_8">
      <defs>
       <path d="M 0 0 
L -3.5 0 
" id="mca80ff739c" style="stroke:#000000;stroke-width:0.8;"/>
      </defs>
      <g>
       <use style="stroke:#000000;stroke-width:0.8;" x="43.78125" xlink:href="#mca80ff739c" y="571.962855"/>
      </g>
     </g>
     <g id="text_9">
      <!-- 0.5 -->
      <g transform="translate(20.878125 575.762074)scale(0.1 -0.1)">
       <defs>
        <path d="M 684 794 
L 1344 794 
L 1344 0 
L 684 0 
L 684 794 
z
" id="DejaVuSans-2e" transform="scale(0.015625)"/>
        <path d="M 691 4666 
L 3169 4666 
L 3169 4134 
L 1269 4134 
L 1269 2991 
Q 1406 3038 1543 3061 
Q 1681 3084 1819 3084 
Q 2600 3084 3056 2656 
Q 3513 2228 3513 1497 
Q 3513 744 3044 326 
Q 2575 -91 1722 -91 
Q 1428 -91 1123 -41 
Q 819 9 494 109 
L 494 744 
Q 775 591 1075 516 
Q 1375 441 1709 441 
Q 2250 441 2565 725 
Q 2881 1009 2881 1497 
Q 2881 1984 2565 2268 
Q 2250 2553 1709 2553 
Q 1456 2553 1204 2497 
Q 953 2441 691 2322 
L 691 4666 
z
" id="DejaVuSans-35" transform="scale(0.015625)"/>
       </defs>
       <use xlink:href="#DejaVuSans-30"/>
       <use x="63.623047" xlink:href="#DejaVuSans-2e"/>
       <use x="95.410156" xlink:href="#DejaVuSans-35"/>
      </g>
     </g>
    </g>
    <g id="ytick_2">
     <g id="line2d_9">
      <g>
       <use style="stroke:#000000;stroke-width:0.8;" x="43.78125" xlink:href="#mca80ff739c" y="453.84074"/>
      </g>
     </g>
     <g id="text_10">
      <!-- 1.0 -->
      <g transform="translate(20.878125 457.639958)scale(0.1 -0.1)">
       <use xlink:href="#DejaVuSans-31"/>
       <use x="63.623047" xlink:href="#DejaVuSans-2e"/>
       <use x="95.410156" xlink:href="#DejaVuSans-30"/>
      </g>
     </g>
    </g>
    <g id="ytick_3">
     <g id="line2d_10">
      <g>
       <use style="stroke:#000000;stroke-width:0.8;" x="43.78125" xlink:href="#mca80ff739c" y="335.718624"/>
      </g>
     </g>
     <g id="text_11">
      <!-- 1.5 -->
      <g transform="translate(20.878125 339.517843)scale(0.1 -0.1)">
       <use xlink:href="#DejaVuSans-31"/>
       <use x="63.623047" xlink:href="#DejaVuSans-2e"/>
       <use x="95.410156" xlink:href="#DejaVuSans-35"/>
      </g>
     </g>
    </g>
    <g id="ytick_4">
     <g id="line2d_11">
      <g>
       <use style="stroke:#000000;stroke-width:0.8;" x="43.78125" xlink:href="#mca80ff739c" y="217.596508"/>
      </g>
     </g>
     <g id="text_12">
      <!-- 2.0 -->
      <g transform="translate(20.878125 221.395727)scale(0.1 -0.1)">
       <use xlink:href="#DejaVuSans-32"/>
       <use x="63.623047" xlink:href="#DejaVuSans-2e"/>
       <use x="95.410156" xlink:href="#DejaVuSans-30"/>
      </g>
     </g>
    </g>
    <g id="ytick_5">
     <g id="line2d_12">
      <g>
       <use style="stroke:#000000;stroke-width:0.8;" x="43.78125" xlink:href="#mca80ff739c" y="99.474392"/>
      </g>
     </g>
     <g id="text_13">
      <!-- 2.5 -->
      <g transform="translate(20.878125 103.273611)scale(0.1 -0.1)">
       <use xlink:href="#DejaVuSans-32"/>
       <use x="63.623047" xlink:href="#DejaVuSans-2e"/>
       <use x="95.410156" xlink:href="#DejaVuSans-35"/>
      </g>
     </g>
    </g>
    <g id="text_14">
     <!-- GCaMP -->
     <g transform="translate(14.798437 322.349446)rotate(-90)scale(0.1 -0.1)">
      <defs>
       <path d="M 3809 666 
L 3809 1919 
L 2778 1919 
L 2778 2438 
L 4434 2438 
L 4434 434 
Q 4069 175 3628 42 
Q 3188 -91 2688 -91 
Q 1594 -91 976 548 
Q 359 1188 359 2328 
Q 359 3472 976 4111 
Q 1594 4750 2688 4750 
Q 3144 4750 3555 4637 
Q 3966 4525 4313 4306 
L 4313 3634 
Q 3963 3931 3569 4081 
Q 3175 4231 2741 4231 
Q 1884 4231 1454 3753 
Q 1025 3275 1025 2328 
Q 1025 1384 1454 906 
Q 1884 428 2741 428 
Q 3075 428 3337 486 
Q 3600 544 3809 666 
z
" id="DejaVuSans-47" transform="scale(0.015625)"/>
       <path d="M 4122 4306 
L 4122 3641 
Q 3803 3938 3442 4084 
Q 3081 4231 2675 4231 
Q 1875 4231 1450 3742 
Q 1025 3253 1025 2328 
Q 1025 1406 1450 917 
Q 1875 428 2675 428 
Q 3081 428 3442 575 
Q 3803 722 4122 1019 
L 4122 359 
Q 3791 134 3420 21 
Q 3050 -91 2638 -91 
Q 1578 -91 968 557 
Q 359 1206 359 2328 
Q 359 3453 968 4101 
Q 1578 4750 2638 4750 
Q 3056 4750 3426 4639 
Q 3797 4528 4122 4306 
z
" id="DejaVuSans-43" transform="scale(0.015625)"/>
       <path d="M 628 4666 
L 1569 4666 
L 2759 1491 
L 3956 4666 
L 4897 4666 
L 4897 0 
L 4281 0 
L 4281 4097 
L 3078 897 
L 2444 897 
L 1241 4097 
L 1241 0 
L 628 0 
L 628 4666 
z
" id="DejaVuSans-4d" transform="scale(0.015625)"/>
       <path d="M 1259 4147 
L 1259 2394 
L 2053 2394 
Q 2494 2394 2734 2622 
Q 2975 2850 2975 3272 
Q 2975 3691 2734 3919 
Q 2494 4147 2053 4147 
L 1259 4147 
z
M 628 4666 
L 2053 4666 
Q 2838 4666 3239 4311 
Q 3641 3956 3641 3272 
Q 3641 2581 3239 2228 
Q 2838 1875 2053 1875 
L 1259 1875 
L 1259 0 
L 628 0 
L 628 4666 
z
" id="DejaVuSans-50" transform="scale(0.015625)"/>
      </defs>
      <use xlink:href="#DejaVuSans-47"/>
      <use x="77.490234" xlink:href="#DejaVuSans-43"/>
      <use x="147.314453" xlink:href="#DejaVuSans-61"/>
      <use x="208.59375" xlink:href="#DejaVuSans-4d"/>
      <use x="294.873047" xlink:href="#DejaVuSans-50"/>
     </g>
    </g>
   </g>
   <g id="line2d_13">
    <path clip-path="url(#pd26995abc3)" d="M 119.872159 545.714813 
L 123.586931 558.389193 
L 124.825188 561.202423 
L 126.063445 560.977927 
L 127.301703 555.281437 
L 128.53996 541.371522 
L 129.778217 517.320215 
L 131.016474 483.990749 
L 132.254732 447.022981 
L 133.492989 415.774675 
L 134.731246 397.765536 
L 135.969504 393.941476 
L 137.207761 400.016261 
L 138.446018 411.01041 
L 142.16079 448.955038 
L 143.399047 459.707988 
L 144.637304 467.618038 
L 145.875562 469.81315 
L 147.113819 461.969645 
L 148.352076 440.705604 
L 149.590334 407.211395 
L 150.828591 368.687412 
L 152.066848 335.144845 
L 153.305105 314.023658 
L 154.543363 307.397705 
L 155.78162 312.485479 
L 157.019877 323.861532 
L 160.734649 363.219017 
L 164.449421 406.41151 
L 165.687678 418.064014 
L 166.925935 427.660873 
L 171.878964 460.979848 
L 173.117222 467.383872 
L 174.355479 471.260843 
L 175.593736 473.0588 
L 176.831993 474.150411 
L 178.070251 475.4865 
L 179.308508 477.185039 
L 180.546765 479.222634 
L 181.785022 481.789462 
L 183.02328 484.989492 
L 187.976309 499.466122 
L 189.214566 501.863979 
L 190.452823 503.218972 
L 191.691081 503.773546 
L 192.929338 504.102967 
L 194.167595 505.022855 
L 195.405852 507.321221 
L 196.64411 511.226238 
L 197.882367 516.085499 
L 199.120624 520.28296 
L 200.358881 521.48073 
L 201.597139 517.082603 
L 202.835396 504.734939 
L 204.073653 483.825867 
L 206.550168 433.097227 
L 207.788425 416.793022 
L 209.026682 411.21214 
L 210.26494 414.889317 
L 211.503197 424.641037 
L 215.217969 461.158669 
L 216.456226 470.438746 
L 217.694483 477.639751 
L 218.93274 483.180519 
L 220.170998 487.734358 
L 221.409255 491.550582 
L 222.647512 493.349724 
L 223.88577 490.123114 
L 225.124027 478.682727 
L 226.362284 458.061655 
L 228.838799 405.949843 
L 230.077056 388.637905 
L 231.315313 382.219304 
L 232.55357 384.382967 
L 233.791828 391.07889 
L 235.030085 399.806534 
L 236.268342 410.234735 
L 239.983114 445.535851 
L 241.221371 452.120507 
L 242.459629 452.171258 
L 243.697886 442.948998 
L 244.936143 423.135448 
L 247.412658 367.377342 
L 248.650915 347.016154 
L 249.889172 339.374447 
L 251.127429 344.527718 
L 252.365687 358.75646 
L 254.842201 393.309301 
L 256.080459 406.386931 
L 257.318716 415.550306 
L 258.556973 421.939619 
L 262.271745 437.63038 
L 263.510002 444.223963 
L 265.986517 459.095996 
L 267.224774 465.505315 
L 268.463031 470.719231 
L 269.701288 474.839694 
L 270.939546 478.038627 
L 272.177803 480.590715 
L 273.41606 482.748007 
L 274.654318 484.59882 
L 277.130832 487.955371 
L 285.798633 502.219364 
L 287.03689 504.744705 
L 289.513405 511.229084 
L 290.751662 514.339273 
L 291.989919 516.918031 
L 293.228177 519.115569 
L 294.466434 521.085444 
L 295.704691 522.84218 
L 296.942948 524.340716 
L 298.181206 525.317793 
L 299.419463 525.376158 
L 300.65772 524.422967 
L 301.895977 522.898431 
L 303.134235 521.789891 
L 304.372492 522.225899 
L 305.610749 524.413368 
L 306.849006 527.242972 
L 308.087264 529.47316 
L 309.325521 530.821188 
L 310.563778 531.611637 
L 313.040293 532.780755 
L 315.516807 534.561432 
L 316.755065 535.189359 
L 317.993322 535.667536 
L 319.231579 535.727258 
L 320.469836 534.571908 
L 321.708094 531.839624 
L 322.946351 528.394074 
L 324.184608 525.87886 
L 325.422866 525.276811 
L 326.661123 526.080084 
L 327.89938 527.112321 
L 329.137637 527.915639 
L 330.375895 529.019125 
L 331.614152 530.91679 
L 334.090666 535.384477 
L 335.328924 537.000787 
L 337.805438 539.553364 
L 339.043695 540.565902 
L 340.281953 540.714236 
L 341.52021 539.005665 
L 342.758467 533.903463 
L 343.996725 522.976445 
L 345.234982 503.80679 
L 346.473239 476.559301 
L 347.711496 445.891442 
L 348.949754 419.150729 
L 350.188011 402.007049 
L 351.426268 396.226313 
L 352.664525 400.388789 
L 353.902783 411.069008 
L 356.379297 437.155048 
L 357.617554 448.149736 
L 358.855812 456.806581 
L 361.332326 470.216689 
L 363.808841 485.932554 
L 365.047098 492.295411 
L 366.285355 495.660034 
L 367.523613 496.176956 
L 370.000127 493.893428 
L 371.238384 493.544621 
L 372.476642 494.419191 
L 373.714899 496.464672 
L 374.953156 499.22902 
L 376.191413 502.353908 
L 377.429671 505.989169 
L 379.906185 514.297737 
L 381.144443 517.613101 
L 382.3827 519.741889 
L 383.620957 519.821592 
L 384.859214 515.448863 
L 386.097472 503.137048 
L 387.335729 480.305319 
L 388.573986 447.740655 
L 389.812243 411.229507 
L 391.050501 379.469197 
L 392.288758 358.5691 
L 393.527015 349.28154 
L 394.765272 349.229261 
L 396.00353 356.060894 
L 397.241787 368.385885 
L 400.956559 415.266178 
L 402.194816 426.595023 
L 403.433073 435.53372 
L 404.671331 443.004595 
L 405.909588 449.474624 
L 407.147845 455.058514 
L 410.862617 469.997901 
L 412.100874 474.54728 
L 413.339132 478.42376 
L 414.577389 481.76033 
L 415.815646 484.626008 
L 417.053903 486.867412 
L 419.530418 489.934005 
L 420.768675 492.001752 
L 422.006932 495.062653 
L 423.24519 498.455419 
L 424.483447 500.921322 
L 425.721704 501.927722 
L 426.959961 502.273559 
L 428.198219 503.301975 
L 429.436476 505.580474 
L 431.912991 511.490365 
L 433.151248 514.144479 
L 434.389505 516.237734 
L 435.627762 516.889023 
L 436.86602 515.358829 
L 439.342534 508.984893 
L 440.580791 508.012756 
L 441.819049 510.459711 
L 443.057306 515.637426 
L 444.295563 521.304144 
L 445.53382 524.657163 
L 446.772078 522.787747 
L 448.010335 512.835088 
L 449.248592 492.432454 
L 450.48685 461.181384 
L 452.963364 386.756019 
L 454.201621 361.71126 
L 455.439879 351.812169 
L 456.678136 354.6388 
L 457.916393 365.471004 
L 459.15465 380.439945 
L 461.631165 412.548698 
L 462.869422 425.500595 
L 464.107679 434.394735 
L 465.345937 438.976559 
L 466.584194 439.9946 
L 467.822451 438.127705 
L 469.060709 432.048617 
L 470.298966 418.088653 
L 471.537223 393.42978 
L 474.013738 325.920438 
L 475.251995 299.287866 
L 476.490252 286.015361 
L 477.728509 286.872886 
L 478.966767 298.723048 
L 481.443281 334.975938 
L 482.681538 348.566869 
L 483.919796 352.229083 
L 485.158053 341.677099 
L 486.39631 315.29273 
L 488.872825 235.578701 
L 490.111082 205.041546 
L 491.349339 193.723279 
L 492.587597 201.350911 
L 493.825854 221.404152 
L 497.540626 295.292438 
L 498.778883 315.14189 
L 500.01714 330.450191 
L 501.255397 339.545364 
L 502.493655 339.898273 
L 503.731912 328.343673 
L 504.970169 303.239149 
L 507.446684 232.767812 
L 508.684941 207.51585 
L 509.923198 197.218206 
L 511.161456 200.391003 
L 512.399713 212.658544 
L 517.352742 279.13538 
L 519.829257 304.621338 
L 522.305771 329.447272 
L 523.544028 339.133213 
L 524.782286 340.452987 
L 526.020543 328.572133 
L 527.2588 303.658945 
L 528.497057 272.745625 
L 529.735315 246.36829 
L 530.973572 232.127194 
L 532.211829 231.487859 
L 533.450086 241.729499 
L 534.688344 258.620679 
L 535.926601 277.080379 
L 537.164858 291.861734 
L 538.403116 298.92771 
L 539.641373 295.841427 
L 540.87963 282.32536 
L 543.356145 242.504057 
L 544.594402 231.080187 
L 545.832659 231.770473 
L 547.070916 244.321117 
L 548.309174 265.3748 
L 550.785688 313.064051 
L 552.023945 329.923578 
L 553.262203 336.544398 
L 554.50046 329.76642 
L 555.738717 308.343469 
L 556.976975 274.406856 
L 558.215232 234.832441 
L 559.453489 200.646012 
L 560.691746 182.516848 
L 561.930004 184.448271 
L 563.168261 202.063498 
L 565.644775 250.750099 
L 566.883033 264.154831 
L 568.12129 260.473005 
L 569.359547 239.85066 
L 570.597804 211.180238 
L 571.836062 187.40461 
L 573.074319 178.002957 
L 574.312576 185.131624 
L 575.550834 204.633425 
L 578.027348 254.129026 
L 579.265605 274.990889 
L 580.503863 292.082842 
L 581.74212 306.771774 
L 582.980377 319.594294 
L 584.218634 329.950564 
L 585.456892 337.52597 
L 586.695149 342.877673 
L 587.933406 347.241649 
L 589.171663 352.129503 
L 590.409921 358.351953 
L 592.886435 373.433262 
L 597.839464 405.177902 
L 599.077722 411.561778 
L 600.315979 416.196367 
L 601.554236 418.706828 
L 602.792493 419.510118 
L 604.030751 419.86029 
L 605.269008 421.340836 
L 606.507265 425.0194 
L 608.98378 436.698824 
L 610.222037 441.208781 
L 611.460294 444.047877 
L 612.698552 446.567133 
L 613.936809 449.882694 
L 616.413323 457.607949 
L 617.651581 460.509414 
L 618.889838 463.089771 
L 621.366352 468.883057 
L 622.60461 470.557195 
L 623.842867 470.217367 
L 625.081124 468.879569 
L 626.319382 468.688131 
L 627.557639 471.012221 
L 628.795896 475.502803 
L 630.034153 480.475894 
L 631.272411 484.3569 
L 632.510668 486.770111 
L 633.748925 488.119913 
L 634.987182 488.633843 
L 636.22544 488.069208 
L 637.463697 486.388576 
L 638.701954 484.319069 
L 639.940211 482.715186 
L 642.416726 480.543094 
L 643.654983 479.208169 
L 644.893241 478.614719 
L 646.131498 480.10038 
L 647.369755 484.13983 
L 648.608012 489.613261 
L 649.84627 493.577999 
L 651.084527 492.051403 
L 652.322784 481.42977 
L 653.561041 459.276389 
L 654.799299 425.074295 
L 657.275813 341.592827 
L 658.51407 313.198362 
L 659.752328 302.699149 
L 660.990585 307.342568 
L 662.228842 320.799988 
L 664.705357 353.660808 
L 665.943614 367.26992 
L 667.181871 378.274016 
L 672.1349 415.89698 
L 673.373158 424.895212 
L 674.611415 432.448412 
L 675.849672 437.668136 
L 677.087929 440.242592 
L 678.326187 440.995112 
L 679.564444 441.545673 
L 680.802701 443.266718 
L 682.040959 446.488812 
L 683.279216 450.399394 
L 684.517473 453.499523 
L 685.75573 454.594031 
L 686.993988 453.858399 
L 688.232245 452.866298 
L 689.470502 453.464825 
L 690.708759 456.5771 
L 691.947017 461.861843 
L 693.185274 468.036252 
L 694.423531 473.259825 
L 695.661789 476.036325 
L 696.900046 476.468769 
L 698.138303 476.030305 
L 699.37656 475.824204 
L 700.614818 475.757325 
L 703.091332 474.939598 
L 704.329589 475.514652 
L 705.567847 478.03319 
L 709.282618 490.564157 
L 710.520876 493.212869 
L 711.759133 494.562518 
L 712.99739 494.648106 
L 714.235648 493.90882 
L 716.712162 491.718504 
L 717.950419 490.107109 
L 719.188677 487.113727 
L 720.426934 480.902461 
L 721.665191 468.76235 
L 722.903448 447.894045 
L 724.141706 417.559463 
L 726.61822 348.51015 
L 727.856477 324.825447 
L 729.094735 313.019246 
L 730.332992 311.769733 
L 731.571249 318.583271 
L 732.809507 331.07883 
L 737.762536 393.548296 
L 739.000793 403.388331 
L 740.23905 410.062356 
L 741.477307 414.640357 
L 742.715565 418.198245 
L 743.953822 421.11179 
L 745.192079 423.153112 
L 747.668594 425.691197 
L 748.906851 428.5382 
L 750.145108 433.675449 
L 752.621623 446.487137 
L 753.85988 450.862574 
L 755.098137 453.127325 
L 756.336395 454.073014 
L 757.574652 454.49002 
L 758.812909 454.569091 
L 760.051166 454.499755 
L 761.289424 455.007919 
L 762.527681 456.757733 
L 766.242453 464.960668 
L 767.48071 466.453131 
L 769.957225 468.510287 
L 771.195482 469.831271 
L 772.433739 470.491149 
L 773.671996 468.069427 
L 774.910254 459.253808 
L 776.148511 441.433524 
L 777.386768 414.695934 
L 778.625025 383.713992 
L 779.863283 356.858254 
L 781.10154 341.121423 
L 782.339797 337.792735 
L 783.578054 343.317543 
L 784.816312 353.168895 
L 788.531084 386.990752 
L 789.769341 396.692307 
L 791.007598 404.777687 
L 792.245855 411.254541 
L 795.960627 427.409515 
L 797.198884 433.96322 
L 800.913656 455.426528 
L 802.151914 458.164641 
L 803.390171 453.676687 
L 804.628428 438.630783 
L 805.866685 410.754158 
L 807.104943 371.298362 
L 808.3432 327.559025 
L 809.581457 290.931282 
L 810.819714 270.4222 
L 812.057972 268.102738 
L 813.296229 280.050428 
L 814.534486 299.869961 
L 815.772743 321.514483 
L 817.011001 340.669612 
L 818.249258 355.169118 
L 819.487515 364.821914 
L 820.725773 370.881398 
L 824.440544 384.226578 
L 825.678802 389.889385 
L 826.917059 397.037135 
L 829.393573 414.633758 
L 830.631831 421.090838 
L 831.870088 423.090396 
L 833.108345 419.240934 
L 834.346602 407.390466 
L 835.58486 384.345207 
L 836.823117 349.424543 
L 838.061374 308.654114 
L 839.299632 273.254597 
L 840.537889 252.409414 
L 841.776146 248.030695 
L 843.014403 256.366248 
L 844.252661 272.469765 
L 846.729175 314.095296 
L 847.967432 335.072139 
L 849.20569 353.81859 
L 850.443947 368.997174 
L 851.682204 379.866824 
L 852.920461 386.517004 
L 854.158719 389.655347 
L 855.396976 390.11063 
L 856.635233 388.911008 
L 857.873491 387.548565 
L 859.111748 387.70716 
L 860.350005 390.977429 
L 861.588262 398.206823 
L 864.064777 418.007847 
L 865.303034 424.675216 
L 866.541291 427.552098 
L 867.779549 427.961049 
L 869.017806 428.09292 
L 870.256063 429.769696 
L 871.49432 433.560558 
L 873.970835 444.015146 
L 875.209092 447.955902 
L 876.44735 449.896917 
L 877.685607 450.175658 
L 878.923864 450.232311 
L 880.162121 451.750015 
L 881.400379 454.958288 
L 883.876893 461.928889 
L 885.11515 465.270535 
L 887.591665 472.915428 
L 888.829922 475.482699 
L 890.06818 474.834708 
L 891.306437 468.799229 
L 892.544694 454.978887 
L 893.782951 431.051479 
L 895.021209 395.931358 
L 897.497723 309.669493 
L 898.73598 279.198357 
L 899.974238 267.621277 
L 901.212495 272.949488 
L 903.689009 303.525141 
L 904.927267 312.251044 
L 906.165524 306.781165 
L 907.403781 282.329878 
L 908.642039 240.543125 
L 909.880296 191.823254 
L 911.118553 150.628621 
L 912.35681 126.869989 
L 913.595068 122.503074 
L 914.833325 134.62322 
L 916.071582 158.859004 
L 917.309839 190.688327 
L 919.786354 260.105739 
L 921.024611 286.933989 
L 922.262868 300.07344 
L 923.501126 295.757786 
L 924.739383 274.102924 
L 927.215898 202.375924 
L 928.454155 174.195049 
L 929.692412 163.131947 
L 930.930669 169.159539 
L 932.168927 186.814953 
L 934.645441 235.601042 
L 935.883698 260.687598 
L 937.121956 282.493481 
L 938.360213 298.68587 
L 939.59847 309.599053 
L 943.313242 334.616809 
L 944.551499 341.669368 
L 945.789757 346.584034 
L 947.028014 350.130354 
L 948.266271 354.135249 
L 949.504528 359.816196 
L 953.2193 381.173866 
L 954.457557 386.501892 
L 959.410586 405.251906 
L 960.648844 408.375711 
L 963.125358 412.323564 
L 964.363616 414.824991 
L 965.601873 418.145506 
L 966.84013 422.415238 
L 968.078387 427.899428 
L 970.554902 440.853804 
L 971.793159 445.474251 
L 973.031416 448.143133 
L 974.269674 450.337108 
L 975.507931 453.392715 
L 976.746188 457.000267 
L 977.984446 459.488858 
L 979.222703 459.456675 
L 980.46096 456.992785 
L 982.937475 449.719767 
L 984.175732 447.005144 
L 985.413989 445.864531 
L 986.652246 446.732851 
L 989.128761 451.308653 
L 990.367018 452.251593 
L 991.605275 451.800821 
L 992.843533 450.750655 
L 994.08179 450.334351 
L 995.320047 451.486614 
L 997.796562 456.58344 
L 999.034819 458.148034 
L 1000.273076 458.274717 
L 1001.511334 456.999066 
L 1002.749591 454.598038 
L 1003.987848 451.882801 
L 1005.226105 450.124728 
L 1006.464363 450.321341 
L 1007.70262 452.502682 
L 1008.940877 455.60268 
L 1010.179134 457.570689 
L 1011.417392 455.53038 
L 1012.655649 446.077244 
L 1013.893906 425.59492 
L 1015.132164 391.631921 
L 1017.608678 300.60292 
L 1018.846935 266.595819 
L 1020.085193 251.874129 
L 1021.32345 254.879882 
L 1022.561707 269.392524 
L 1026.276479 328.457314 
L 1027.514736 344.971759 
L 1028.752993 358.839043 
L 1029.991251 369.455166 
L 1031.229508 376.344592 
L 1032.467765 380.09016 
L 1033.706023 382.288813 
L 1036.182537 386.152716 
L 1037.420794 387.787822 
L 1038.659052 389.069425 
L 1039.897309 390.029415 
L 1041.135566 390.80486 
L 1042.373823 391.95932 
L 1043.612081 394.512448 
L 1044.850338 399.242139 
L 1047.326852 412.989041 
L 1048.56511 418.276027 
L 1049.803367 420.653084 
L 1051.041624 420.8623 
L 1052.279882 420.707255 
L 1053.518139 421.762848 
L 1054.756396 424.363399 
L 1057.232911 431.63682 
L 1059.709425 439.186462 
L 1062.18594 446.039401 
L 1063.424197 448.341865 
L 1064.662454 449.270013 
L 1067.138969 449.191034 
L 1068.377226 449.955284 
L 1069.615483 450.870536 
L 1070.853741 449.1983 
L 1072.091998 440.74559 
L 1073.330255 421.141013 
L 1074.568512 387.737914 
L 1077.045027 294.411193 
L 1078.283284 256.568229 
L 1079.521541 239.215927 
L 1080.759799 243.440668 
L 1081.998056 262.519736 
L 1084.474571 312.979894 
L 1085.712828 334.215278 
L 1086.951085 350.171729 
L 1088.189342 361.377848 
L 1089.4276 369.517057 
L 1091.904114 382.623398 
L 1093.142371 388.350252 
L 1095.618886 398.199685 
L 1096.857143 402.651332 
L 1098.0954 405.963958 
L 1099.333658 407.53514 
L 1100.571915 408.289394 
L 1101.810172 410.148228 
L 1103.04843 414.177183 
L 1105.524944 425.599576 
L 1106.763201 430.408412 
L 1108.001459 433.530396 
L 1109.239716 434.756448 
L 1110.477973 434.519104 
L 1111.71623 433.533866 
L 1114.192745 431.100715 
L 1115.431002 430.536458 
L 1116.669259 431.076208 
L 1117.907517 432.803062 
L 1120.384031 437.338237 
L 1124.098803 442.993256 
L 1125.33706 444.133396 
L 1126.575318 444.057539 
L 1127.813575 443.316436 
L 1129.051832 442.952649 
L 1130.290089 443.858446 
L 1131.528347 446.212045 
L 1134.004861 452.03228 
L 1135.243118 454.075047 
L 1136.481376 455.44519 
L 1138.95789 457.468203 
L 1140.196148 458.202933 
L 1141.434405 458.110694 
L 1142.672662 457.390561 
L 1143.910919 457.21738 
L 1145.149177 458.282742 
L 1146.387434 459.81406 
L 1147.625691 460.456 
L 1148.863948 459.501944 
L 1152.57872 452.857594 
L 1153.816977 450.278456 
L 1155.055235 447.01047 
L 1156.293492 444.262236 
L 1157.531749 443.979994 
L 1158.770007 446.87755 
L 1160.008264 451.289671 
L 1161.246521 454.604667 
L 1162.484778 455.310172 
L 1163.723036 453.572362 
L 1166.19955 447.885166 
L 1167.437807 445.78904 
L 1171.152579 440.994291 
L 1172.390837 439.18406 
L 1173.629094 437.587846 
L 1174.867351 436.517688 
L 1176.105608 436.402404 
L 1177.343866 437.671033 
L 1178.582123 440.674136 
L 1181.058637 450.341047 
L 1182.296895 452.840071 
L 1183.535152 448.388542 
L 1184.773409 431.974043 
L 1186.011666 400.11586 
L 1187.249924 354.080667 
L 1188.488181 302.356598 
L 1189.726438 258.563292 
L 1190.964696 234.319055 
L 1192.202953 232.784891 
L 1193.44121 248.381306 
L 1197.155982 318.997921 
L 1198.394239 336.528518 
L 1199.632496 349.097815 
L 1200.870754 356.128325 
L 1202.109011 356.115563 
L 1203.347268 346.551091 
L 1204.585525 324.61278 
L 1205.823783 290.349825 
L 1207.06204 250.437412 
L 1208.300297 217.017517 
L 1209.538555 200.976168 
L 1210.776812 205.472274 
L 1212.015069 225.603599 
L 1214.491584 281.383397 
L 1215.729841 305.720886 
L 1216.968098 324.21394 
L 1218.206355 336.409118 
L 1219.444613 343.156243 
L 1220.68287 346.159868 
L 1221.921127 347.45609 
L 1223.159384 349.294894 
L 1224.397642 353.540229 
L 1225.635899 360.587638 
L 1228.112414 377.69642 
L 1229.350671 383.84985 
L 1230.588928 386.617149 
L 1231.827185 386.765291 
L 1233.065443 386.794636 
L 1234.3037 389.210253 
L 1235.541957 394.480345 
L 1236.780214 400.767341 
L 1238.018472 405.559222 
L 1239.256729 407.309306 
L 1240.494986 406.152686 
L 1241.733243 403.780219 
L 1242.971501 402.382685 
L 1244.209758 403.31299 
L 1245.448015 406.670591 
L 1247.92453 416.624263 
L 1249.162787 420.510963 
L 1250.401044 422.793478 
L 1252.877559 425.359908 
L 1254.115816 427.111823 
L 1255.354073 428.650117 
L 1256.592331 429.300085 
L 1257.830588 429.111747 
L 1259.068845 428.640215 
L 1260.307103 428.684765 
L 1261.54536 430.291096 
L 1262.783617 434.189392 
L 1265.260132 445.865607 
L 1266.498389 450.328184 
L 1267.736646 452.363035 
L 1268.974903 452.239094 
L 1270.213161 451.217819 
L 1271.451418 450.422372 
L 1272.689675 449.923898 
L 1273.927932 449.078422 
L 1275.16619 447.201477 
L 1276.404447 444.064258 
L 1277.642704 440.341262 
L 1278.880962 437.253722 
L 1280.119219 435.633795 
L 1281.357476 435.546054 
L 1282.595733 436.334425 
L 1283.833991 436.878738 
L 1285.072248 436.296496 
L 1287.548762 433.123327 
L 1288.78702 432.717468 
L 1290.025277 433.556413 
L 1291.263534 435.074706 
L 1292.501791 436.882352 
L 1293.740049 439.026594 
L 1294.978306 441.497031 
L 1296.216563 443.687451 
L 1297.454821 444.874538 
L 1298.693078 445.099013 
L 1299.931335 444.95545 
L 1301.169592 444.606515 
L 1303.646107 442.921537 
L 1304.884364 442.957283 
L 1306.122621 444.537604 
L 1308.599136 449.878573 
L 1309.837393 451.58348 
L 1311.07565 452.142641 
L 1312.313908 451.684413 
L 1313.552165 450.651938 
L 1314.790422 449.827063 
L 1317.266937 449.23603 
L 1318.505194 448.215087 
L 1320.981709 444.323435 
L 1322.219966 443.062247 
L 1323.458223 443.055031 
L 1324.69648 444.106332 
L 1325.934738 445.940769 
L 1327.172995 448.659516 
L 1328.411252 452.115012 
L 1329.649509 454.336812 
L 1330.887767 450.116572 
L 1332.126024 431.617346 
L 1333.364281 392.092525 
L 1334.602539 331.123265 
L 1335.840796 258.518106 
L 1337.079053 192.814979 
L 1338.31731 151.46011 
L 1339.555568 140.067919 
L 1340.793825 152.148903 
L 1342.032082 176.905662 
L 1343.270339 205.023392 
L 1344.508597 230.431174 
L 1345.746854 250.765021 
L 1346.985111 266.815318 
L 1349.461626 293.276056 
L 1350.699883 304.840223 
L 1355.652912 347.211112 
L 1356.891169 355.33147 
L 1358.129427 355.938071 
L 1359.367684 343.307913 
L 1360.605941 312.301744 
L 1361.844198 262.670424 
L 1363.082456 203.205815 
L 1364.320713 149.332826 
L 1365.55897 114.404391 
L 1366.797228 103.371207 
L 1368.035485 113.217036 
L 1369.273742 136.979917 
L 1371.750257 201.265917 
L 1372.988514 233.464838 
L 1374.226771 261.792759 
L 1375.465028 284.10638 
L 1376.703286 297.305193 
L 1377.941543 296.248432 
L 1379.1798 275.472439 
L 1380.418057 233.230699 
L 1382.894572 115.655767 
L 1384.132829 70.137014 
L 1385.371087 48.195977 
L 1386.609344 47.979282 
L 1387.847601 60.550991 
L 1389.085858 77.644009 
L 1390.324116 96.618292 
L 1391.562373 119.694484 
L 1392.80063 148.407232 
L 1395.277145 209.842422 
L 1396.515402 235.125213 
L 1397.753659 255.511125 
L 1398.991916 271.938321 
L 1400.230174 285.600218 
L 1401.468431 297.12788 
L 1402.706688 306.366794 
L 1403.944946 313.292412 
L 1406.42146 324.143492 
L 1407.659717 330.367902 
L 1408.897975 337.726181 
L 1412.612746 362.229521 
L 1413.851004 369.000376 
L 1415.089261 373.934662 
L 1416.327518 376.606903 
L 1417.565775 377.414835 
L 1418.804033 377.537898 
L 1420.04229 378.225715 
L 1421.280547 380.333081 
L 1422.518805 384.361138 
L 1423.757062 390.299885 
L 1424.995319 397.073531 
L 1426.233576 402.639501 
L 1427.471834 405.165849 
L 1428.710091 404.289022 
L 1429.948348 401.470112 
L 1431.186605 399.046388 
L 1432.424863 398.587841 
L 1433.66312 400.242033 
L 1434.901377 403.458887 
L 1438.616149 415.947614 
L 1439.854406 417.748659 
L 1441.092664 417.027594 
L 1443.569178 411.499156 
L 1444.807435 409.830237 
L 1446.045693 409.683397 
L 1447.28395 410.752293 
L 1448.522207 412.991132 
L 1452.236979 422.663214 
L 1453.475236 424.270757 
L 1454.713494 424.17584 
L 1455.951751 423.010241 
L 1457.190008 422.420556 
L 1458.428265 423.651496 
L 1459.666523 426.55533 
L 1463.381294 437.470409 
L 1464.619552 439.357494 
L 1465.857809 438.813633 
L 1467.096066 436.106309 
L 1468.334323 432.604696 
L 1469.572581 429.883875 
L 1470.810838 429.048562 
L 1472.049095 430.21426 
L 1474.52561 434.732729 
L 1475.763867 436.401823 
L 1477.002124 437.350532 
L 1479.478639 438.450916 
L 1483.193411 440.363542 
L 1484.431668 441.435189 
L 1485.669925 442.708661 
L 1486.908182 443.598719 
L 1488.14644 443.64656 
L 1489.384697 442.965849 
L 1490.622954 441.7592 
L 1491.861212 439.828923 
L 1493.099469 437.244653 
L 1494.337726 434.961265 
L 1495.575983 434.124942 
L 1496.814241 435.129357 
L 1499.290755 439.871819 
L 1500.529012 441.073201 
L 1501.76727 440.291828 
L 1503.005527 438.020362 
L 1504.243784 435.495947 
L 1505.482041 433.635152 
L 1506.720299 432.731999 
L 1507.958556 432.692501 
L 1509.196813 433.319847 
L 1511.673328 435.440446 
L 1512.911585 435.531387 
L 1514.149842 434.14172 
L 1515.3881 431.544498 
L 1516.626357 428.436115 
L 1517.864614 425.671693 
L 1519.102871 424.353354 
L 1520.341129 425.1516 
L 1522.817643 430.315746 
L 1524.0559 430.381728 
L 1525.294158 423.008658 
L 1526.532415 402.916944 
L 1527.770672 367.525756 
L 1530.247187 271.522564 
L 1531.485444 235.48507 
L 1532.723701 220.707497 
L 1533.961959 226.113906 
L 1535.200216 244.253808 
L 1537.67673 288.203841 
L 1538.914988 305.103564 
L 1540.153245 317.351203 
L 1542.62976 336.576973 
L 1546.344531 369.809034 
L 1547.582789 378.216696 
L 1548.821046 383.847782 
L 1550.059303 386.810461 
L 1551.29756 388.325235 
L 1552.535818 390.415932 
L 1553.774075 394.27598 
L 1557.488847 409.644291 
L 1558.727104 413.662206 
L 1559.965361 416.871341 
L 1562.441876 422.211563 
L 1563.680133 424.314425 
L 1564.91839 424.989818 
L 1566.156648 423.66691 
L 1567.394905 420.997131 
L 1568.633162 418.604844 
L 1569.871419 417.996356 
L 1572.347934 420.588505 
L 1573.586191 418.987725 
L 1574.824448 410.910525 
L 1576.062706 392.175465 
L 1577.300963 359.082529 
L 1578.53922 311.343552 
L 1579.777478 255.850091 
L 1581.015735 206.469842 
L 1582.253992 176.360046 
L 1583.492249 170.46928 
L 1584.730507 185.343937 
L 1585.968764 212.954329 
L 1588.445278 275.052233 
L 1589.683536 300.482554 
L 1590.921793 319.873566 
L 1592.16005 333.134612 
L 1593.398307 341.421767 
L 1594.636565 346.827292 
L 1595.874822 351.007711 
L 1597.113079 354.422962 
L 1598.351337 357.273621 
L 1599.589594 360.590752 
L 1600.827851 365.975295 
L 1602.066108 373.990299 
L 1603.304366 382.904378 
L 1604.542623 389.977382 
L 1605.78088 394.169647 
L 1607.019137 396.968142 
L 1608.257395 400.575171 
L 1610.733909 410.653431 
L 1611.972166 413.75994 
L 1613.210424 414.173737 
L 1614.448681 412.500494 
L 1616.925196 407.192418 
L 1618.163453 405.640788 
L 1619.40171 405.929336 
L 1620.639967 408.000476 
L 1621.878225 411.275939 
L 1623.116482 415.468012 
L 1626.831254 431.033376 
L 1628.069511 434.754577 
L 1629.307768 435.979349 
L 1630.546026 434.139853 
L 1631.784283 429.851015 
L 1634.260797 419.421377 
L 1635.499055 415.100141 
L 1636.737312 411.201559 
L 1637.975569 406.835992 
L 1639.213826 400.659136 
L 1640.452084 391.394937 
L 1641.690341 379.455091 
L 1641.690341 379.455091 
" style="fill:none;stroke:#008000;stroke-linecap:square;stroke-width:1.5;"/>
   </g>
   <g id="patch_3">
    <path d="M 43.78125 586.86358 
L 43.78125 22.318125 
" style="fill:none;stroke:#000000;stroke-linecap:square;stroke-linejoin:miter;stroke-width:0.8;"/>
   </g>
   <g id="patch_4">
    <path d="M 1717.78125 586.86358 
L 1717.78125 22.318125 
" style="fill:none;stroke:#000000;stroke-linecap:square;stroke-linejoin:miter;stroke-width:0.8;"/>
   </g>
   <g id="patch_5">
    <path d="M 43.78125 586.86358 
L 1717.78125 586.86358 
" style="fill:none;stroke:#000000;stroke-linecap:square;stroke-linejoin:miter;stroke-width:0.8;"/>
   </g>
   <g id="patch_6">
    <path d="M 43.78125 22.318125 
L 1717.78125 22.318125 
" style="fill:none;stroke:#000000;stroke-linecap:square;stroke-linejoin:miter;stroke-width:0.8;"/>
   </g>
   <g id="text_15">
    <!-- before binarisation -->
    <g transform="translate(824.1825 16.318125)scale(0.12 -0.12)">
     <defs>
      <path d="M 3116 1747 
Q 3116 2381 2855 2742 
Q 2594 3103 2138 3103 
Q 1681 3103 1420 2742 
Q 1159 2381 1159 1747 
Q 1159 1113 1420 752 
Q 1681 391 2138 391 
Q 2594 391 2855 752 
Q 3116 1113 3116 1747 
z
M 1159 2969 
Q 1341 3281 1617 3432 
Q 1894 3584 2278 3584 
Q 2916 3584 3314 3078 
Q 3713 2572 3713 1747 
Q 3713 922 3314 415 
Q 2916 -91 2278 -91 
Q 1894 -91 1617 61 
Q 1341 213 1159 525 
L 1159 0 
L 581 0 
L 581 4863 
L 1159 4863 
L 1159 2969 
z
" id="DejaVuSans-62" transform="scale(0.015625)"/>
      <path d="M 1959 3097 
Q 1497 3097 1228 2736 
Q 959 2375 959 1747 
Q 959 1119 1226 758 
Q 1494 397 1959 397 
Q 2419 397 2687 759 
Q 2956 1122 2956 1747 
Q 2956 2369 2687 2733 
Q 2419 3097 1959 3097 
z
M 1959 3584 
Q 2709 3584 3137 3096 
Q 3566 2609 3566 1747 
Q 3566 888 3137 398 
Q 2709 -91 1959 -91 
Q 1206 -91 779 398 
Q 353 888 353 1747 
Q 353 2609 779 3096 
Q 1206 3584 1959 3584 
z
" id="DejaVuSans-6f" transform="scale(0.015625)"/>
      <path id="DejaVuSans-20" transform="scale(0.015625)"/>
      <path d="M 603 3500 
L 1178 3500 
L 1178 0 
L 603 0 
L 603 3500 
z
M 603 4863 
L 1178 4863 
L 1178 4134 
L 603 4134 
L 603 4863 
z
" id="DejaVuSans-69" transform="scale(0.015625)"/>
      <path d="M 3513 2113 
L 3513 0 
L 2938 0 
L 2938 2094 
Q 2938 2591 2744 2837 
Q 2550 3084 2163 3084 
Q 1697 3084 1428 2787 
Q 1159 2491 1159 1978 
L 1159 0 
L 581 0 
L 581 3500 
L 1159 3500 
L 1159 2956 
Q 1366 3272 1645 3428 
Q 1925 3584 2291 3584 
Q 2894 3584 3203 3211 
Q 3513 2838 3513 2113 
z
" id="DejaVuSans-6e" transform="scale(0.015625)"/>
      <path d="M 2834 3397 
L 2834 2853 
Q 2591 2978 2328 3040 
Q 2066 3103 1784 3103 
Q 1356 3103 1142 2972 
Q 928 2841 928 2578 
Q 928 2378 1081 2264 
Q 1234 2150 1697 2047 
L 1894 2003 
Q 2506 1872 2764 1633 
Q 3022 1394 3022 966 
Q 3022 478 2636 193 
Q 2250 -91 1575 -91 
Q 1294 -91 989 -36 
Q 684 19 347 128 
L 347 722 
Q 666 556 975 473 
Q 1284 391 1588 391 
Q 1994 391 2212 530 
Q 2431 669 2431 922 
Q 2431 1156 2273 1281 
Q 2116 1406 1581 1522 
L 1381 1569 
Q 847 1681 609 1914 
Q 372 2147 372 2553 
Q 372 3047 722 3315 
Q 1072 3584 1716 3584 
Q 2034 3584 2315 3537 
Q 2597 3491 2834 3397 
z
" id="DejaVuSans-73" transform="scale(0.015625)"/>
      <path d="M 1172 4494 
L 1172 3500 
L 2356 3500 
L 2356 3053 
L 1172 3053 
L 1172 1153 
Q 1172 725 1289 603 
Q 1406 481 1766 481 
L 2356 481 
L 2356 0 
L 1766 0 
Q 1100 0 847 248 
Q 594 497 594 1153 
L 594 3053 
L 172 3053 
L 172 3500 
L 594 3500 
L 594 4494 
L 1172 4494 
z
" id="DejaVuSans-74" transform="scale(0.015625)"/>
     </defs>
     <use xlink:href="#DejaVuSans-62"/>
     <use x="63.476562" xlink:href="#DejaVuSans-65"/>
     <use x="125" xlink:href="#DejaVuSans-66"/>
     <use x="160.205078" xlink:href="#DejaVuSans-6f"/>
     <use x="221.386719" xlink:href="#DejaVuSans-72"/>
     <use x="260.25" xlink:href="#DejaVuSans-65"/>
     <use x="321.773438" xlink:href="#DejaVuSans-20"/>
     <use x="353.560547" xlink:href="#DejaVuSans-62"/>
     <use x="417.037109" xlink:href="#DejaVuSans-69"/>
     <use x="444.820312" xlink:href="#DejaVuSans-6e"/>
     <use x="508.199219" xlink:href="#DejaVuSans-61"/>
     <use x="569.478516" xlink:href="#DejaVuSans-72"/>
     <use x="610.591797" xlink:href="#DejaVuSans-69"/>
     <use x="638.375" xlink:href="#DejaVuSans-73"/>
     <use x="690.474609" xlink:href="#DejaVuSans-61"/>
     <use x="751.753906" xlink:href="#DejaVuSans-74"/>
     <use x="790.962891" xlink:href="#DejaVuSans-69"/>
     <use x="818.746094" xlink:href="#DejaVuSans-6f"/>
     <use x="879.927734" xlink:href="#DejaVuSans-6e"/>
    </g>
   </g>
  </g>
  <g id="axes_2">
   <g id="patch_7">
    <path d="M 43.78125 1264.318125 
L 1717.78125 1264.318125 
L 1717.78125 699.77267 
L 43.78125 699.77267 
z
" style="fill:#ffffff;"/>
   </g>
   <g id="matplotlib.axis_3">
    <g id="xtick_8">
     <g id="line2d_14">
      <g>
       <use style="stroke:#000000;stroke-width:0.8;" x="119.872159" xlink:href="#m5bafff329e" y="1264.318125"/>
      </g>
     </g>
     <g id="text_16">
      <!-- 0 -->
      <g transform="translate(116.690909 1278.916563)scale(0.1 -0.1)">
       <use xlink:href="#DejaVuSans-30"/>
      </g>
     </g>
    </g>
    <g id="xtick_9">
     <g id="line2d_15">
      <g>
       <use style="stroke:#000000;stroke-width:0.8;" x="367.523613" xlink:href="#m5bafff329e" y="1264.318125"/>
      </g>
     </g>
     <g id="text_17">
      <!-- 200 -->
      <g transform="translate(357.979863 1278.916563)scale(0.1 -0.1)">
       <use xlink:href="#DejaVuSans-32"/>
       <use x="63.623047" xlink:href="#DejaVuSans-30"/>
       <use x="127.246094" xlink:href="#DejaVuSans-30"/>
      </g>
     </g>
    </g>
    <g id="xtick_10">
     <g id="line2d_16">
      <g>
       <use style="stroke:#000000;stroke-width:0.8;" x="615.175066" xlink:href="#m5bafff329e" y="1264.318125"/>
      </g>
     </g>
     <g id="text_18">
      <!-- 400 -->
      <g transform="translate(605.631316 1278.916563)scale(0.1 -0.1)">
       <use xlink:href="#DejaVuSans-34"/>
       <use x="63.623047" xlink:href="#DejaVuSans-30"/>
       <use x="127.246094" xlink:href="#DejaVuSans-30"/>
      </g>
     </g>
    </g>
    <g id="xtick_11">
     <g id="line2d_17">
      <g>
       <use style="stroke:#000000;stroke-width:0.8;" x="862.82652" xlink:href="#m5bafff329e" y="1264.318125"/>
      </g>
     </g>
     <g id="text_19">
      <!-- 600 -->
      <g transform="translate(853.28277 1278.916563)scale(0.1 -0.1)">
       <use xlink:href="#DejaVuSans-36"/>
       <use x="63.623047" xlink:href="#DejaVuSans-30"/>
       <use x="127.246094" xlink:href="#DejaVuSans-30"/>
      </g>
     </g>
    </g>
    <g id="xtick_12">
     <g id="line2d_18">
      <g>
       <use style="stroke:#000000;stroke-width:0.8;" x="1110.477973" xlink:href="#m5bafff329e" y="1264.318125"/>
      </g>
     </g>
     <g id="text_20">
      <!-- 800 -->
      <g transform="translate(1100.934223 1278.916563)scale(0.1 -0.1)">
       <use xlink:href="#DejaVuSans-38"/>
       <use x="63.623047" xlink:href="#DejaVuSans-30"/>
       <use x="127.246094" xlink:href="#DejaVuSans-30"/>
      </g>
     </g>
    </g>
    <g id="xtick_13">
     <g id="line2d_19">
      <g>
       <use style="stroke:#000000;stroke-width:0.8;" x="1358.129427" xlink:href="#m5bafff329e" y="1264.318125"/>
      </g>
     </g>
     <g id="text_21">
      <!-- 1000 -->
      <g transform="translate(1345.404427 1278.916563)scale(0.1 -0.1)">
       <use xlink:href="#DejaVuSans-31"/>
       <use x="63.623047" xlink:href="#DejaVuSans-30"/>
       <use x="127.246094" xlink:href="#DejaVuSans-30"/>
       <use x="190.869141" xlink:href="#DejaVuSans-30"/>
      </g>
     </g>
    </g>
    <g id="xtick_14">
     <g id="line2d_20">
      <g>
       <use style="stroke:#000000;stroke-width:0.8;" x="1605.78088" xlink:href="#m5bafff329e" y="1264.318125"/>
      </g>
     </g>
     <g id="text_22">
      <!-- 1200 -->
      <g transform="translate(1593.05588 1278.916563)scale(0.1 -0.1)">
       <use xlink:href="#DejaVuSans-31"/>
       <use x="63.623047" xlink:href="#DejaVuSans-32"/>
       <use x="127.246094" xlink:href="#DejaVuSans-30"/>
       <use x="190.869141" xlink:href="#DejaVuSans-30"/>
      </g>
     </g>
    </g>
    <g id="text_23">
     <!-- frame -->
     <g transform="translate(865.954687 1292.594688)scale(0.1 -0.1)">
      <use xlink:href="#DejaVuSans-66"/>
      <use x="35.205078" xlink:href="#DejaVuSans-72"/>
      <use x="76.318359" xlink:href="#DejaVuSans-61"/>
      <use x="137.597656" xlink:href="#DejaVuSans-6d"/>
      <use x="235.009766" xlink:href="#DejaVuSans-65"/>
     </g>
    </g>
   </g>
   <g id="matplotlib.axis_4">
    <g id="ytick_6">
     <g id="line2d_21">
      <g>
       <use style="stroke:#000000;stroke-width:0.8;" x="43.78125" xlink:href="#mca80ff739c" y="1238.656968"/>
      </g>
     </g>
     <g id="text_24">
      <!-- 0.0 -->
      <g transform="translate(20.878125 1242.456187)scale(0.1 -0.1)">
       <use xlink:href="#DejaVuSans-30"/>
       <use x="63.623047" xlink:href="#DejaVuSans-2e"/>
       <use x="95.410156" xlink:href="#DejaVuSans-30"/>
      </g>
     </g>
    </g>
    <g id="ytick_7">
     <g id="line2d_22">
      <g>
       <use style="stroke:#000000;stroke-width:0.8;" x="43.78125" xlink:href="#mca80ff739c" y="1136.01234"/>
      </g>
     </g>
     <g id="text_25">
      <!-- 0.2 -->
      <g transform="translate(20.878125 1139.811559)scale(0.1 -0.1)">
       <use xlink:href="#DejaVuSans-30"/>
       <use x="63.623047" xlink:href="#DejaVuSans-2e"/>
       <use x="95.410156" xlink:href="#DejaVuSans-32"/>
      </g>
     </g>
    </g>
    <g id="ytick_8">
     <g id="line2d_23">
      <g>
       <use style="stroke:#000000;stroke-width:0.8;" x="43.78125" xlink:href="#mca80ff739c" y="1033.367712"/>
      </g>
     </g>
     <g id="text_26">
      <!-- 0.4 -->
      <g transform="translate(20.878125 1037.166931)scale(0.1 -0.1)">
       <use xlink:href="#DejaVuSans-30"/>
       <use x="63.623047" xlink:href="#DejaVuSans-2e"/>
       <use x="95.410156" xlink:href="#DejaVuSans-34"/>
      </g>
     </g>
    </g>
    <g id="ytick_9">
     <g id="line2d_24">
      <g>
       <use style="stroke:#000000;stroke-width:0.8;" x="43.78125" xlink:href="#mca80ff739c" y="930.723084"/>
      </g>
     </g>
     <g id="text_27">
      <!-- 0.6 -->
      <g transform="translate(20.878125 934.522302)scale(0.1 -0.1)">
       <use xlink:href="#DejaVuSans-30"/>
       <use x="63.623047" xlink:href="#DejaVuSans-2e"/>
       <use x="95.410156" xlink:href="#DejaVuSans-36"/>
      </g>
     </g>
    </g>
    <g id="ytick_10">
     <g id="line2d_25">
      <g>
       <use style="stroke:#000000;stroke-width:0.8;" x="43.78125" xlink:href="#mca80ff739c" y="828.078456"/>
      </g>
     </g>
     <g id="text_28">
      <!-- 0.8 -->
      <g transform="translate(20.878125 831.877674)scale(0.1 -0.1)">
       <use xlink:href="#DejaVuSans-30"/>
       <use x="63.623047" xlink:href="#DejaVuSans-2e"/>
       <use x="95.410156" xlink:href="#DejaVuSans-38"/>
      </g>
     </g>
    </g>
    <g id="ytick_11">
     <g id="line2d_26">
      <g>
       <use style="stroke:#000000;stroke-width:0.8;" x="43.78125" xlink:href="#mca80ff739c" y="725.433827"/>
      </g>
     </g>
     <g id="text_29">
      <!-- 1.0 -->
      <g transform="translate(20.878125 729.233046)scale(0.1 -0.1)">
       <use xlink:href="#DejaVuSans-31"/>
       <use x="63.623047" xlink:href="#DejaVuSans-2e"/>
       <use x="95.410156" xlink:href="#DejaVuSans-30"/>
      </g>
     </g>
    </g>
    <g id="text_30">
     <!-- GCaMP -->
     <g transform="translate(14.798437 999.803991)rotate(-90)scale(0.1 -0.1)">
      <use xlink:href="#DejaVuSans-47"/>
      <use x="77.490234" xlink:href="#DejaVuSans-43"/>
      <use x="147.314453" xlink:href="#DejaVuSans-61"/>
      <use x="208.59375" xlink:href="#DejaVuSans-4d"/>
      <use x="294.873047" xlink:href="#DejaVuSans-50"/>
     </g>
    </g>
   </g>
   <g id="line2d_27">
    <path clip-path="url(#p4bc25240d1)" d="M 119.872159 1238.656968 
L 153.305105 1238.656968 
L 154.543363 725.433827 
L 155.78162 1238.656968 
L 474.013738 1238.656968 
L 475.251995 725.433827 
L 478.966767 725.433827 
L 480.205024 1238.656968 
L 486.39631 1238.656968 
L 487.634568 725.433827 
L 497.540626 725.433827 
L 498.778883 1238.656968 
L 503.731912 1238.656968 
L 504.970169 725.433827 
L 519.829257 725.433827 
L 521.067514 1238.656968 
L 526.020543 1238.656968 
L 527.2588 725.433827 
L 549.547431 725.433827 
L 550.785688 1238.656968 
L 555.738717 1238.656968 
L 556.976975 725.433827 
L 581.74212 725.433827 
L 582.980377 1238.656968 
L 658.51407 1238.656968 
L 659.752328 725.433827 
L 660.990585 725.433827 
L 662.228842 1238.656968 
L 808.3432 1238.656968 
L 809.581457 725.433827 
L 814.534486 725.433827 
L 815.772743 1238.656968 
L 838.061374 1238.656968 
L 839.299632 725.433827 
L 845.490918 725.433827 
L 846.729175 1238.656968 
L 897.497723 1238.656968 
L 898.73598 725.433827 
L 903.689009 725.433827 
L 904.927267 1238.656968 
L 906.165524 725.433827 
L 938.360213 725.433827 
L 939.59847 1238.656968 
L 1016.370421 1238.656968 
L 1017.608678 725.433827 
L 1023.799964 725.433827 
L 1025.038222 1238.656968 
L 1075.80677 1238.656968 
L 1077.045027 725.433827 
L 1083.236313 725.433827 
L 1084.474571 1238.656968 
L 1187.249924 1238.656968 
L 1188.488181 725.433827 
L 1195.917725 725.433827 
L 1197.155982 1238.656968 
L 1204.585525 1238.656968 
L 1205.823783 725.433827 
L 1215.729841 725.433827 
L 1216.968098 1238.656968 
L 1334.602539 1238.656968 
L 1335.840796 725.433827 
L 1350.699883 725.433827 
L 1351.93814 1238.656968 
L 1360.605941 1238.656968 
L 1361.844198 725.433827 
L 1402.706688 725.433827 
L 1403.944946 1238.656968 
L 1529.00893 1238.656968 
L 1530.247187 725.433827 
L 1538.914988 725.433827 
L 1540.153245 1238.656968 
L 1578.53922 1238.656968 
L 1579.777478 725.433827 
L 1589.683536 725.433827 
L 1590.921793 1238.656968 
L 1641.690341 1238.656968 
L 1641.690341 1238.656968 
" style="fill:none;stroke:#008000;stroke-linecap:square;stroke-width:1.5;"/>
   </g>
   <g id="patch_8">
    <path d="M 43.78125 1264.318125 
L 43.78125 699.77267 
" style="fill:none;stroke:#000000;stroke-linecap:square;stroke-linejoin:miter;stroke-width:0.8;"/>
   </g>
   <g id="patch_9">
    <path d="M 1717.78125 1264.318125 
L 1717.78125 699.77267 
" style="fill:none;stroke:#000000;stroke-linecap:square;stroke-linejoin:miter;stroke-width:0.8;"/>
   </g>
   <g id="patch_10">
    <path d="M 43.78125 1264.318125 
L 1717.78125 1264.318125 
" style="fill:none;stroke:#000000;stroke-linecap:square;stroke-linejoin:miter;stroke-width:0.8;"/>
   </g>
   <g id="patch_11">
    <path d="M 43.78125 699.77267 
L 1717.78125 699.77267 
" style="fill:none;stroke:#000000;stroke-linecap:square;stroke-linejoin:miter;stroke-width:0.8;"/>
   </g>
   <g id="text_31">
    <!-- before binarisation -->
    <g transform="translate(824.1825 693.77267)scale(0.12 -0.12)">
     <use xlink:href="#DejaVuSans-62"/>
     <use x="63.476562" xlink:href="#DejaVuSans-65"/>
     <use x="125" xlink:href="#DejaVuSans-66"/>
     <use x="160.205078" xlink:href="#DejaVuSans-6f"/>
     <use x="221.386719" xlink:href="#DejaVuSans-72"/>
     <use x="260.25" xlink:href="#DejaVuSans-65"/>
     <use x="321.773438" xlink:href="#DejaVuSans-20"/>
     <use x="353.560547" xlink:href="#DejaVuSans-62"/>
     <use x="417.037109" xlink:href="#DejaVuSans-69"/>
     <use x="444.820312" xlink:href="#DejaVuSans-6e"/>
     <use x="508.199219" xlink:href="#DejaVuSans-61"/>
     <use x="569.478516" xlink:href="#DejaVuSans-72"/>
     <use x="610.591797" xlink:href="#DejaVuSans-69"/>
     <use x="638.375" xlink:href="#DejaVuSans-73"/>
     <use x="690.474609" xlink:href="#DejaVuSans-61"/>
     <use x="751.753906" xlink:href="#DejaVuSans-74"/>
     <use x="790.962891" xlink:href="#DejaVuSans-69"/>
     <use x="818.746094" xlink:href="#DejaVuSans-6f"/>
     <use x="879.927734" xlink:href="#DejaVuSans-6e"/>
    </g>
   </g>
  </g>
 </g>
 <defs>
  <clipPath id="pd26995abc3">
   <rect height="564.545455" width="1674" x="43.78125" y="22.318125"/>
  </clipPath>
  <clipPath id="p4bc25240d1">
   <rect height="564.545455" width="1674" x="43.78125" y="699.77267"/>
  </clipPath>
 </defs>
</svg>
