<?xml version="1.0" encoding="utf-8" standalone="no"?>
<!DOCTYPE svg PUBLIC "-//W3C//DTD SVG 1.1//EN"
  "http://www.w3.org/Graphics/SVG/1.1/DTD/svg11.dtd">
<svg height="1301.874375pt" version="1.1" viewBox="0 0 1724.98125 1301.874375" width="1724.98125pt" xmlns="http://www.w3.org/2000/svg" xmlns:xlink="http://www.w3.org/1999/xlink">
 <metadata>
  <rdf:RDF xmlns:cc="http://creativecommons.org/ns#" xmlns:dc="http://purl.org/dc/elements/1.1/" xmlns:rdf="http://www.w3.org/1999/02/22-rdf-syntax-ns#">
   <cc:Work>
    <dc:type rdf:resource="http://purl.org/dc/dcmitype/StillImage"/>
    <dc:date>2022-07-24T15:54:30.335271</dc:date>
    <dc:format>image/svg+xml</dc:format>
    <dc:creator>
     <cc:Agent>
      <dc:title>Matplotlib v3.4.2, https://matplotlib.org/</dc:title>
     </cc:Agent>
    </dc:creator>
   </cc:Work>
  </rdf:RDF>
 </metadata>
 <defs>
  <style type="text/css">*{stroke-linecap:butt;stroke-linejoin:round;}</style>
 </defs>
 <g id="figure_1">
  <g id="patch_1">
   <path d="M 0 1301.874375 
L 1724.98125 1301.874375 
L 1724.98125 0 
L 0 0 
z
" style="fill:#ffffff;"/>
  </g>
  <g id="axes_1">
   <g id="patch_2">
    <path d="M 43.78125 586.86358 
L 1717.78125 586.86358 
L 1717.78125 22.318125 
L 43.78125 22.318125 
z
" style="fill:#ffffff;"/>
   </g>
   <g id="matplotlib.axis_1">
    <g id="xtick_1">
     <g id="line2d_1">
      <defs>
       <path d="M 0 0 
L 0 3.5 
" id="m058311732f" style="stroke:#000000;stroke-width:0.8;"/>
      </defs>
      <g>
       <use style="stroke:#000000;stroke-width:0.8;" x="119.872159" xlink:href="#m058311732f" y="586.86358"/>
      </g>
     </g>
     <g id="text_1">
      <!-- 0 -->
      <g transform="translate(116.690909 601.462017)scale(0.1 -0.1)">
       <defs>
        <path d="M 2034 4250 
Q 1547 4250 1301 3770 
Q 1056 3291 1056 2328 
Q 1056 1369 1301 889 
Q 1547 409 2034 409 
Q 2525 409 2770 889 
Q 3016 1369 3016 2328 
Q 3016 3291 2770 3770 
Q 2525 4250 2034 4250 
z
M 2034 4750 
Q 2819 4750 3233 4129 
Q 3647 3509 3647 2328 
Q 3647 1150 3233 529 
Q 2819 -91 2034 -91 
Q 1250 -91 836 529 
Q 422 1150 422 2328 
Q 422 3509 836 4129 
Q 1250 4750 2034 4750 
z
" id="DejaVuSans-30" transform="scale(0.015625)"/>
       </defs>
       <use xlink:href="#DejaVuSans-30"/>
      </g>
     </g>
    </g>
    <g id="xtick_2">
     <g id="line2d_2">
      <g>
       <use style="stroke:#000000;stroke-width:0.8;" x="367.523613" xlink:href="#m058311732f" y="586.86358"/>
      </g>
     </g>
     <g id="text_2">
      <!-- 200 -->
      <g transform="translate(357.979863 601.462017)scale(0.1 -0.1)">
       <defs>
        <path d="M 1228 531 
L 3431 531 
L 3431 0 
L 469 0 
L 469 531 
Q 828 903 1448 1529 
Q 2069 2156 2228 2338 
Q 2531 2678 2651 2914 
Q 2772 3150 2772 3378 
Q 2772 3750 2511 3984 
Q 2250 4219 1831 4219 
Q 1534 4219 1204 4116 
Q 875 4013 500 3803 
L 500 4441 
Q 881 4594 1212 4672 
Q 1544 4750 1819 4750 
Q 2544 4750 2975 4387 
Q 3406 4025 3406 3419 
Q 3406 3131 3298 2873 
Q 3191 2616 2906 2266 
Q 2828 2175 2409 1742 
Q 1991 1309 1228 531 
z
" id="DejaVuSans-32" transform="scale(0.015625)"/>
       </defs>
       <use xlink:href="#DejaVuSans-32"/>
       <use x="63.623047" xlink:href="#DejaVuSans-30"/>
       <use x="127.246094" xlink:href="#DejaVuSans-30"/>
      </g>
     </g>
    </g>
    <g id="xtick_3">
     <g id="line2d_3">
      <g>
       <use style="stroke:#000000;stroke-width:0.8;" x="615.175066" xlink:href="#m058311732f" y="586.86358"/>
      </g>
     </g>
     <g id="text_3">
      <!-- 400 -->
      <g transform="translate(605.631316 601.462017)scale(0.1 -0.1)">
       <defs>
        <path d="M 2419 4116 
L 825 1625 
L 2419 1625 
L 2419 4116 
z
M 2253 4666 
L 3047 4666 
L 3047 1625 
L 3713 1625 
L 3713 1100 
L 3047 1100 
L 3047 0 
L 2419 0 
L 2419 1100 
L 313 1100 
L 313 1709 
L 2253 4666 
z
" id="DejaVuSans-34" transform="scale(0.015625)"/>
       </defs>
       <use xlink:href="#DejaVuSans-34"/>
       <use x="63.623047" xlink:href="#DejaVuSans-30"/>
       <use x="127.246094" xlink:href="#DejaVuSans-30"/>
      </g>
     </g>
    </g>
    <g id="xtick_4">
     <g id="line2d_4">
      <g>
       <use style="stroke:#000000;stroke-width:0.8;" x="862.82652" xlink:href="#m058311732f" y="586.86358"/>
      </g>
     </g>
     <g id="text_4">
      <!-- 600 -->
      <g transform="translate(853.28277 601.462017)scale(0.1 -0.1)">
       <defs>
        <path d="M 2113 2584 
Q 1688 2584 1439 2293 
Q 1191 2003 1191 1497 
Q 1191 994 1439 701 
Q 1688 409 2113 409 
Q 2538 409 2786 701 
Q 3034 994 3034 1497 
Q 3034 2003 2786 2293 
Q 2538 2584 2113 2584 
z
M 3366 4563 
L 3366 3988 
Q 3128 4100 2886 4159 
Q 2644 4219 2406 4219 
Q 1781 4219 1451 3797 
Q 1122 3375 1075 2522 
Q 1259 2794 1537 2939 
Q 1816 3084 2150 3084 
Q 2853 3084 3261 2657 
Q 3669 2231 3669 1497 
Q 3669 778 3244 343 
Q 2819 -91 2113 -91 
Q 1303 -91 875 529 
Q 447 1150 447 2328 
Q 447 3434 972 4092 
Q 1497 4750 2381 4750 
Q 2619 4750 2861 4703 
Q 3103 4656 3366 4563 
z
" id="DejaVuSans-36" transform="scale(0.015625)"/>
       </defs>
       <use xlink:href="#DejaVuSans-36"/>
       <use x="63.623047" xlink:href="#DejaVuSans-30"/>
       <use x="127.246094" xlink:href="#DejaVuSans-30"/>
      </g>
     </g>
    </g>
    <g id="xtick_5">
     <g id="line2d_5">
      <g>
       <use style="stroke:#000000;stroke-width:0.8;" x="1110.477973" xlink:href="#m058311732f" y="586.86358"/>
      </g>
     </g>
     <g id="text_5">
      <!-- 800 -->
      <g transform="translate(1100.934223 601.462017)scale(0.1 -0.1)">
       <defs>
        <path d="M 2034 2216 
Q 1584 2216 1326 1975 
Q 1069 1734 1069 1313 
Q 1069 891 1326 650 
Q 1584 409 2034 409 
Q 2484 409 2743 651 
Q 3003 894 3003 1313 
Q 3003 1734 2745 1975 
Q 2488 2216 2034 2216 
z
M 1403 2484 
Q 997 2584 770 2862 
Q 544 3141 544 3541 
Q 544 4100 942 4425 
Q 1341 4750 2034 4750 
Q 2731 4750 3128 4425 
Q 3525 4100 3525 3541 
Q 3525 3141 3298 2862 
Q 3072 2584 2669 2484 
Q 3125 2378 3379 2068 
Q 3634 1759 3634 1313 
Q 3634 634 3220 271 
Q 2806 -91 2034 -91 
Q 1263 -91 848 271 
Q 434 634 434 1313 
Q 434 1759 690 2068 
Q 947 2378 1403 2484 
z
M 1172 3481 
Q 1172 3119 1398 2916 
Q 1625 2713 2034 2713 
Q 2441 2713 2670 2916 
Q 2900 3119 2900 3481 
Q 2900 3844 2670 4047 
Q 2441 4250 2034 4250 
Q 1625 4250 1398 4047 
Q 1172 3844 1172 3481 
z
" id="DejaVuSans-38" transform="scale(0.015625)"/>
       </defs>
       <use xlink:href="#DejaVuSans-38"/>
       <use x="63.623047" xlink:href="#DejaVuSans-30"/>
       <use x="127.246094" xlink:href="#DejaVuSans-30"/>
      </g>
     </g>
    </g>
    <g id="xtick_6">
     <g id="line2d_6">
      <g>
       <use style="stroke:#000000;stroke-width:0.8;" x="1358.129427" xlink:href="#m058311732f" y="586.86358"/>
      </g>
     </g>
     <g id="text_6">
      <!-- 1000 -->
      <g transform="translate(1345.404427 601.462017)scale(0.1 -0.1)">
       <defs>
        <path d="M 794 531 
L 1825 531 
L 1825 4091 
L 703 3866 
L 703 4441 
L 1819 4666 
L 2450 4666 
L 2450 531 
L 3481 531 
L 3481 0 
L 794 0 
L 794 531 
z
" id="DejaVuSans-31" transform="scale(0.015625)"/>
       </defs>
       <use xlink:href="#DejaVuSans-31"/>
       <use x="63.623047" xlink:href="#DejaVuSans-30"/>
       <use x="127.246094" xlink:href="#DejaVuSans-30"/>
       <use x="190.869141" xlink:href="#DejaVuSans-30"/>
      </g>
     </g>
    </g>
    <g id="xtick_7">
     <g id="line2d_7">
      <g>
       <use style="stroke:#000000;stroke-width:0.8;" x="1605.78088" xlink:href="#m058311732f" y="586.86358"/>
      </g>
     </g>
     <g id="text_7">
      <!-- 1200 -->
      <g transform="translate(1593.05588 601.462017)scale(0.1 -0.1)">
       <use xlink:href="#DejaVuSans-31"/>
       <use x="63.623047" xlink:href="#DejaVuSans-32"/>
       <use x="127.246094" xlink:href="#DejaVuSans-30"/>
       <use x="190.869141" xlink:href="#DejaVuSans-30"/>
      </g>
     </g>
    </g>
    <g id="text_8">
     <!-- frame -->
     <g transform="translate(865.954687 615.140142)scale(0.1 -0.1)">
      <defs>
       <path d="M 2375 4863 
L 2375 4384 
L 1825 4384 
Q 1516 4384 1395 4259 
Q 1275 4134 1275 3809 
L 1275 3500 
L 2222 3500 
L 2222 3053 
L 1275 3053 
L 1275 0 
L 697 0 
L 697 3053 
L 147 3053 
L 147 3500 
L 697 3500 
L 697 3744 
Q 697 4328 969 4595 
Q 1241 4863 1831 4863 
L 2375 4863 
z
" id="DejaVuSans-66" transform="scale(0.015625)"/>
       <path d="M 2631 2963 
Q 2534 3019 2420 3045 
Q 2306 3072 2169 3072 
Q 1681 3072 1420 2755 
Q 1159 2438 1159 1844 
L 1159 0 
L 581 0 
L 581 3500 
L 1159 3500 
L 1159 2956 
Q 1341 3275 1631 3429 
Q 1922 3584 2338 3584 
Q 2397 3584 2469 3576 
Q 2541 3569 2628 3553 
L 2631 2963 
z
" id="DejaVuSans-72" transform="scale(0.015625)"/>
       <path d="M 2194 1759 
Q 1497 1759 1228 1600 
Q 959 1441 959 1056 
Q 959 750 1161 570 
Q 1363 391 1709 391 
Q 2188 391 2477 730 
Q 2766 1069 2766 1631 
L 2766 1759 
L 2194 1759 
z
M 3341 1997 
L 3341 0 
L 2766 0 
L 2766 531 
Q 2569 213 2275 61 
Q 1981 -91 1556 -91 
Q 1019 -91 701 211 
Q 384 513 384 1019 
Q 384 1609 779 1909 
Q 1175 2209 1959 2209 
L 2766 2209 
L 2766 2266 
Q 2766 2663 2505 2880 
Q 2244 3097 1772 3097 
Q 1472 3097 1187 3025 
Q 903 2953 641 2809 
L 641 3341 
Q 956 3463 1253 3523 
Q 1550 3584 1831 3584 
Q 2591 3584 2966 3190 
Q 3341 2797 3341 1997 
z
" id="DejaVuSans-61" transform="scale(0.015625)"/>
       <path d="M 3328 2828 
Q 3544 3216 3844 3400 
Q 4144 3584 4550 3584 
Q 5097 3584 5394 3201 
Q 5691 2819 5691 2113 
L 5691 0 
L 5113 0 
L 5113 2094 
Q 5113 2597 4934 2840 
Q 4756 3084 4391 3084 
Q 3944 3084 3684 2787 
Q 3425 2491 3425 1978 
L 3425 0 
L 2847 0 
L 2847 2094 
Q 2847 2600 2669 2842 
Q 2491 3084 2119 3084 
Q 1678 3084 1418 2786 
Q 1159 2488 1159 1978 
L 1159 0 
L 581 0 
L 581 3500 
L 1159 3500 
L 1159 2956 
Q 1356 3278 1631 3431 
Q 1906 3584 2284 3584 
Q 2666 3584 2933 3390 
Q 3200 3197 3328 2828 
z
" id="DejaVuSans-6d" transform="scale(0.015625)"/>
       <path d="M 3597 1894 
L 3597 1613 
L 953 1613 
Q 991 1019 1311 708 
Q 1631 397 2203 397 
Q 2534 397 2845 478 
Q 3156 559 3463 722 
L 3463 178 
Q 3153 47 2828 -22 
Q 2503 -91 2169 -91 
Q 1331 -91 842 396 
Q 353 884 353 1716 
Q 353 2575 817 3079 
Q 1281 3584 2069 3584 
Q 2775 3584 3186 3129 
Q 3597 2675 3597 1894 
z
M 3022 2063 
Q 3016 2534 2758 2815 
Q 2500 3097 2075 3097 
Q 1594 3097 1305 2825 
Q 1016 2553 972 2059 
L 3022 2063 
z
" id="DejaVuSans-65" transform="scale(0.015625)"/>
      </defs>
      <use xlink:href="#DejaVuSans-66"/>
      <use x="35.205078" xlink:href="#DejaVuSans-72"/>
      <use x="76.318359" xlink:href="#DejaVuSans-61"/>
      <use x="137.597656" xlink:href="#DejaVuSans-6d"/>
      <use x="235.009766" xlink:href="#DejaVuSans-65"/>
     </g>
    </g>
   </g>
   <g id="matplotlib.axis_2">
    <g id="ytick_1">
     <g id="line2d_8">
      <defs>
       <path d="M 0 0 
L -3.5 0 
" id="m4869deaa84" style="stroke:#000000;stroke-width:0.8;"/>
      </defs>
      <g>
       <use style="stroke:#000000;stroke-width:0.8;" x="43.78125" xlink:href="#m4869deaa84" y="532.609348"/>
      </g>
     </g>
     <g id="text_9">
      <!-- 1.0 -->
      <g transform="translate(20.878125 536.408566)scale(0.1 -0.1)">
       <defs>
        <path d="M 684 794 
L 1344 794 
L 1344 0 
L 684 0 
L 684 794 
z
" id="DejaVuSans-2e" transform="scale(0.015625)"/>
       </defs>
       <use xlink:href="#DejaVuSans-31"/>
       <use x="63.623047" xlink:href="#DejaVuSans-2e"/>
       <use x="95.410156" xlink:href="#DejaVuSans-30"/>
      </g>
     </g>
    </g>
    <g id="ytick_2">
     <g id="line2d_9">
      <g>
       <use style="stroke:#000000;stroke-width:0.8;" x="43.78125" xlink:href="#m4869deaa84" y="469.376805"/>
      </g>
     </g>
     <g id="text_10">
      <!-- 1.5 -->
      <g transform="translate(20.878125 473.176024)scale(0.1 -0.1)">
       <defs>
        <path d="M 691 4666 
L 3169 4666 
L 3169 4134 
L 1269 4134 
L 1269 2991 
Q 1406 3038 1543 3061 
Q 1681 3084 1819 3084 
Q 2600 3084 3056 2656 
Q 3513 2228 3513 1497 
Q 3513 744 3044 326 
Q 2575 -91 1722 -91 
Q 1428 -91 1123 -41 
Q 819 9 494 109 
L 494 744 
Q 775 591 1075 516 
Q 1375 441 1709 441 
Q 2250 441 2565 725 
Q 2881 1009 2881 1497 
Q 2881 1984 2565 2268 
Q 2250 2553 1709 2553 
Q 1456 2553 1204 2497 
Q 953 2441 691 2322 
L 691 4666 
z
" id="DejaVuSans-35" transform="scale(0.015625)"/>
       </defs>
       <use xlink:href="#DejaVuSans-31"/>
       <use x="63.623047" xlink:href="#DejaVuSans-2e"/>
       <use x="95.410156" xlink:href="#DejaVuSans-35"/>
      </g>
     </g>
    </g>
    <g id="ytick_3">
     <g id="line2d_10">
      <g>
       <use style="stroke:#000000;stroke-width:0.8;" x="43.78125" xlink:href="#m4869deaa84" y="406.144263"/>
      </g>
     </g>
     <g id="text_11">
      <!-- 2.0 -->
      <g transform="translate(20.878125 409.943481)scale(0.1 -0.1)">
       <use xlink:href="#DejaVuSans-32"/>
       <use x="63.623047" xlink:href="#DejaVuSans-2e"/>
       <use x="95.410156" xlink:href="#DejaVuSans-30"/>
      </g>
     </g>
    </g>
    <g id="ytick_4">
     <g id="line2d_11">
      <g>
       <use style="stroke:#000000;stroke-width:0.8;" x="43.78125" xlink:href="#m4869deaa84" y="342.91172"/>
      </g>
     </g>
     <g id="text_12">
      <!-- 2.5 -->
      <g transform="translate(20.878125 346.710939)scale(0.1 -0.1)">
       <use xlink:href="#DejaVuSans-32"/>
       <use x="63.623047" xlink:href="#DejaVuSans-2e"/>
       <use x="95.410156" xlink:href="#DejaVuSans-35"/>
      </g>
     </g>
    </g>
    <g id="ytick_5">
     <g id="line2d_12">
      <g>
       <use style="stroke:#000000;stroke-width:0.8;" x="43.78125" xlink:href="#m4869deaa84" y="279.679178"/>
      </g>
     </g>
     <g id="text_13">
      <!-- 3.0 -->
      <g transform="translate(20.878125 283.478397)scale(0.1 -0.1)">
       <defs>
        <path d="M 2597 2516 
Q 3050 2419 3304 2112 
Q 3559 1806 3559 1356 
Q 3559 666 3084 287 
Q 2609 -91 1734 -91 
Q 1441 -91 1130 -33 
Q 819 25 488 141 
L 488 750 
Q 750 597 1062 519 
Q 1375 441 1716 441 
Q 2309 441 2620 675 
Q 2931 909 2931 1356 
Q 2931 1769 2642 2001 
Q 2353 2234 1838 2234 
L 1294 2234 
L 1294 2753 
L 1863 2753 
Q 2328 2753 2575 2939 
Q 2822 3125 2822 3475 
Q 2822 3834 2567 4026 
Q 2313 4219 1838 4219 
Q 1578 4219 1281 4162 
Q 984 4106 628 3988 
L 628 4550 
Q 988 4650 1302 4700 
Q 1616 4750 1894 4750 
Q 2613 4750 3031 4423 
Q 3450 4097 3450 3541 
Q 3450 3153 3228 2886 
Q 3006 2619 2597 2516 
z
" id="DejaVuSans-33" transform="scale(0.015625)"/>
       </defs>
       <use xlink:href="#DejaVuSans-33"/>
       <use x="63.623047" xlink:href="#DejaVuSans-2e"/>
       <use x="95.410156" xlink:href="#DejaVuSans-30"/>
      </g>
     </g>
    </g>
    <g id="ytick_6">
     <g id="line2d_13">
      <g>
       <use style="stroke:#000000;stroke-width:0.8;" x="43.78125" xlink:href="#m4869deaa84" y="216.446635"/>
      </g>
     </g>
     <g id="text_14">
      <!-- 3.5 -->
      <g transform="translate(20.878125 220.245854)scale(0.1 -0.1)">
       <use xlink:href="#DejaVuSans-33"/>
       <use x="63.623047" xlink:href="#DejaVuSans-2e"/>
       <use x="95.410156" xlink:href="#DejaVuSans-35"/>
      </g>
     </g>
    </g>
    <g id="ytick_7">
     <g id="line2d_14">
      <g>
       <use style="stroke:#000000;stroke-width:0.8;" x="43.78125" xlink:href="#m4869deaa84" y="153.214093"/>
      </g>
     </g>
     <g id="text_15">
      <!-- 4.0 -->
      <g transform="translate(20.878125 157.013312)scale(0.1 -0.1)">
       <use xlink:href="#DejaVuSans-34"/>
       <use x="63.623047" xlink:href="#DejaVuSans-2e"/>
       <use x="95.410156" xlink:href="#DejaVuSans-30"/>
      </g>
     </g>
    </g>
    <g id="ytick_8">
     <g id="line2d_15">
      <g>
       <use style="stroke:#000000;stroke-width:0.8;" x="43.78125" xlink:href="#m4869deaa84" y="89.98155"/>
      </g>
     </g>
     <g id="text_16">
      <!-- 4.5 -->
      <g transform="translate(20.878125 93.780769)scale(0.1 -0.1)">
       <use xlink:href="#DejaVuSans-34"/>
       <use x="63.623047" xlink:href="#DejaVuSans-2e"/>
       <use x="95.410156" xlink:href="#DejaVuSans-35"/>
      </g>
     </g>
    </g>
    <g id="ytick_9">
     <g id="line2d_16">
      <g>
       <use style="stroke:#000000;stroke-width:0.8;" x="43.78125" xlink:href="#m4869deaa84" y="26.749008"/>
      </g>
     </g>
     <g id="text_17">
      <!-- 5.0 -->
      <g transform="translate(20.878125 30.548227)scale(0.1 -0.1)">
       <use xlink:href="#DejaVuSans-35"/>
       <use x="63.623047" xlink:href="#DejaVuSans-2e"/>
       <use x="95.410156" xlink:href="#DejaVuSans-30"/>
      </g>
     </g>
    </g>
    <g id="text_18">
     <!-- GCaMP -->
     <g transform="translate(14.798437 322.349446)rotate(-90)scale(0.1 -0.1)">
      <defs>
       <path d="M 3809 666 
L 3809 1919 
L 2778 1919 
L 2778 2438 
L 4434 2438 
L 4434 434 
Q 4069 175 3628 42 
Q 3188 -91 2688 -91 
Q 1594 -91 976 548 
Q 359 1188 359 2328 
Q 359 3472 976 4111 
Q 1594 4750 2688 4750 
Q 3144 4750 3555 4637 
Q 3966 4525 4313 4306 
L 4313 3634 
Q 3963 3931 3569 4081 
Q 3175 4231 2741 4231 
Q 1884 4231 1454 3753 
Q 1025 3275 1025 2328 
Q 1025 1384 1454 906 
Q 1884 428 2741 428 
Q 3075 428 3337 486 
Q 3600 544 3809 666 
z
" id="DejaVuSans-47" transform="scale(0.015625)"/>
       <path d="M 4122 4306 
L 4122 3641 
Q 3803 3938 3442 4084 
Q 3081 4231 2675 4231 
Q 1875 4231 1450 3742 
Q 1025 3253 1025 2328 
Q 1025 1406 1450 917 
Q 1875 428 2675 428 
Q 3081 428 3442 575 
Q 3803 722 4122 1019 
L 4122 359 
Q 3791 134 3420 21 
Q 3050 -91 2638 -91 
Q 1578 -91 968 557 
Q 359 1206 359 2328 
Q 359 3453 968 4101 
Q 1578 4750 2638 4750 
Q 3056 4750 3426 4639 
Q 3797 4528 4122 4306 
z
" id="DejaVuSans-43" transform="scale(0.015625)"/>
       <path d="M 628 4666 
L 1569 4666 
L 2759 1491 
L 3956 4666 
L 4897 4666 
L 4897 0 
L 4281 0 
L 4281 4097 
L 3078 897 
L 2444 897 
L 1241 4097 
L 1241 0 
L 628 0 
L 628 4666 
z
" id="DejaVuSans-4d" transform="scale(0.015625)"/>
       <path d="M 1259 4147 
L 1259 2394 
L 2053 2394 
Q 2494 2394 2734 2622 
Q 2975 2850 2975 3272 
Q 2975 3691 2734 3919 
Q 2494 4147 2053 4147 
L 1259 4147 
z
M 628 4666 
L 2053 4666 
Q 2838 4666 3239 4311 
Q 3641 3956 3641 3272 
Q 3641 2581 3239 2228 
Q 2838 1875 2053 1875 
L 1259 1875 
L 1259 0 
L 628 0 
L 628 4666 
z
" id="DejaVuSans-50" transform="scale(0.015625)"/>
      </defs>
      <use xlink:href="#DejaVuSans-47"/>
      <use x="77.490234" xlink:href="#DejaVuSans-43"/>
      <use x="147.314453" xlink:href="#DejaVuSans-61"/>
      <use x="208.59375" xlink:href="#DejaVuSans-4d"/>
      <use x="294.873047" xlink:href="#DejaVuSans-50"/>
     </g>
    </g>
   </g>
   <g id="line2d_17">
    <path clip-path="url(#peaa2aa403e)" d="M 119.872159 557.555548 
L 121.110416 559.788965 
L 122.348674 561.202423 
L 123.586931 561.11462 
L 124.825188 559.317243 
L 126.063445 556.022006 
L 127.301703 551.421608 
L 128.53996 545.450706 
L 129.778217 538.067714 
L 133.492989 513.324215 
L 134.731246 506.853529 
L 135.969504 501.798309 
L 138.446018 493.351228 
L 139.684275 487.354588 
L 140.922533 478.191561 
L 142.16079 464.67779 
L 143.399047 445.627743 
L 144.637304 419.679426 
L 145.875562 386.033231 
L 148.352076 301.504519 
L 149.590334 258.886467 
L 150.828591 222.810198 
L 152.066848 196.079465 
L 153.305105 178.168638 
L 154.543363 166.291985 
L 155.78162 157.559527 
L 157.019877 150.353731 
L 160.734649 131.961362 
L 164.449421 113.732432 
L 165.687678 106.134547 
L 166.925935 96.13557 
L 170.640707 59.411166 
L 171.878964 51.550656 
L 173.117222 48.044076 
L 174.355479 47.979282 
L 175.593736 49.496153 
L 176.831993 51.553681 
L 178.070251 54.451833 
L 179.308508 58.630112 
L 183.02328 74.709386 
L 184.261537 78.558055 
L 185.499794 80.709655 
L 186.738052 81.447147 
L 189.214566 81.147655 
L 190.452823 82.585691 
L 191.691081 86.321571 
L 192.929338 91.357573 
L 194.167595 95.450814 
L 195.405852 97.218833 
L 196.64411 97.291294 
L 197.882367 97.191318 
L 199.120624 97.981896 
L 200.358881 100.105092 
L 201.597139 103.545905 
L 202.835396 107.667906 
L 204.073653 111.363186 
L 205.311911 113.877905 
L 206.550168 115.716181 
L 207.788425 118.413666 
L 210.26494 127.123319 
L 211.503197 129.270926 
L 212.741454 128.447508 
L 213.979711 126.124129 
L 215.217969 124.449088 
L 216.456226 125.123895 
L 217.694483 129.061906 
L 218.93274 136.211468 
L 222.647512 164.102589 
L 223.88577 169.739558 
L 225.124027 172.043853 
L 226.362284 172.487668 
L 227.600541 173.083546 
L 228.838799 174.534201 
L 231.315313 177.803426 
L 236.268342 184.558834 
L 237.5066 187.617622 
L 239.983114 196.56361 
L 241.221371 199.717341 
L 242.459629 200.393072 
L 243.697886 198.627193 
L 244.936143 195.139329 
L 247.412658 186.833571 
L 248.650915 183.957315 
L 249.889172 183.069468 
L 251.127429 184.760374 
L 252.365687 189.147198 
L 253.603944 195.65031 
L 256.080459 210.27189 
L 257.318716 216.320353 
L 258.556973 221.193303 
L 261.033488 229.204035 
L 262.271745 232.523206 
L 263.510002 234.397292 
L 264.748259 234.576838 
L 265.986517 234.100868 
L 268.463031 233.743837 
L 269.701288 232.72186 
L 270.939546 230.962185 
L 272.177803 229.631736 
L 273.41606 229.87858 
L 274.654318 232.25399 
L 275.892575 236.83046 
L 277.130832 242.65472 
L 278.369089 247.345479 
L 279.607347 248.599396 
L 280.845604 246.150232 
L 282.083861 241.806645 
L 283.322118 238.053977 
L 284.560376 236.873419 
L 285.798633 239.019923 
L 288.275147 248.574496 
L 289.513405 251.871008 
L 290.751662 252.698868 
L 291.989919 252.032913 
L 293.228177 251.868715 
L 294.466434 253.255275 
L 296.942948 257.733006 
L 300.65772 263.510878 
L 303.134235 268.540322 
L 304.372492 270.554756 
L 305.610749 271.681117 
L 306.849006 272.225316 
L 308.087264 272.990927 
L 309.325521 274.603347 
L 310.563778 277.010539 
L 313.040293 282.355569 
L 314.27855 284.296818 
L 315.516807 284.688805 
L 316.755065 283.356075 
L 319.231579 279.214292 
L 320.469836 278.232164 
L 321.708094 278.96056 
L 322.946351 281.676075 
L 325.422866 290.51168 
L 326.661123 293.990302 
L 327.89938 295.455278 
L 329.137637 295.199142 
L 330.375895 294.456665 
L 331.614152 294.46709 
L 332.852409 295.954505 
L 334.090666 299.336068 
L 336.567181 309.515816 
L 337.805438 312.904361 
L 339.043695 313.787673 
L 340.281953 313.626049 
L 341.52021 315.013828 
L 342.758467 319.096568 
L 346.473239 336.457826 
L 347.711496 341.297803 
L 351.426268 353.160388 
L 352.664525 357.146869 
L 353.902783 360.642189 
L 355.14104 363.452798 
L 356.379297 365.244429 
L 357.617554 365.647549 
L 361.332326 363.989931 
L 362.570584 362.859882 
L 363.808841 361.466907 
L 365.047098 361.14823 
L 366.285355 362.720032 
L 367.523613 365.564901 
L 368.76187 368.049592 
L 370.000127 368.818591 
L 371.238384 367.679067 
L 372.476642 364.977016 
L 373.714899 360.958188 
L 374.953156 356.313744 
L 376.191413 352.468374 
L 377.429671 350.819725 
L 378.667928 351.797998 
L 379.906185 354.704811 
L 382.3827 362.514445 
L 384.859214 370.079855 
L 386.097472 373.172451 
L 387.335729 375.655916 
L 388.573986 377.574173 
L 389.812243 378.833951 
L 391.050501 379.317142 
L 392.288758 379.307141 
L 393.527015 379.515732 
L 394.765272 380.586529 
L 397.241787 384.188517 
L 398.480044 384.850099 
L 399.718302 384.257396 
L 400.956559 382.881905 
L 405.909588 376.052647 
L 407.147845 373.776183 
L 408.386102 370.289916 
L 410.862617 361.916788 
L 412.100874 358.426498 
L 413.339132 355.681426 
L 414.577389 353.808033 
L 415.815646 352.885361 
L 417.053903 352.789174 
L 418.292161 353.491138 
L 419.530418 355.419614 
L 420.768675 359.001646 
L 423.24519 369.122426 
L 424.483447 373.251904 
L 425.721704 374.797743 
L 426.959961 372.950717 
L 429.436476 364.310162 
L 430.674733 361.972434 
L 431.912991 362.762579 
L 433.151248 366.673709 
L 434.389505 372.722193 
L 438.104277 392.968229 
L 439.342534 398.111627 
L 440.580791 401.670098 
L 441.819049 404.151387 
L 445.53382 410.34101 
L 450.48685 418.385147 
L 451.725107 420.998333 
L 452.963364 424.27224 
L 455.439879 431.387388 
L 456.678136 434.13897 
L 457.916393 436.15685 
L 459.15465 437.668122 
L 460.392908 438.793787 
L 461.631165 439.472502 
L 462.869422 439.716986 
L 464.107679 439.828411 
L 466.584194 440.340671 
L 467.822451 440.454771 
L 469.060709 440.975365 
L 470.298966 442.582739 
L 472.77548 447.799986 
L 474.013738 449.813721 
L 475.251995 450.823487 
L 476.490252 450.528589 
L 477.728509 448.226645 
L 478.966767 443.701203 
L 480.205024 438.508126 
L 481.443281 434.958929 
L 482.681538 433.802341 
L 483.919796 434.014303 
L 487.634568 435.464399 
L 488.872825 436.05935 
L 490.111082 436.914592 
L 491.349339 438.369527 
L 492.587597 440.535011 
L 495.064111 445.63785 
L 496.302368 447.127514 
L 497.540626 446.917839 
L 498.778883 445.220705 
L 500.01714 443.01617 
L 501.255397 441.193544 
L 502.493655 440.084672 
L 503.731912 439.67981 
L 504.970169 440.012413 
L 506.208427 441.224327 
L 507.446684 443.475179 
L 508.684941 446.748099 
L 511.161456 454.065262 
L 512.399713 456.342585 
L 513.63797 456.915888 
L 514.876227 456.109959 
L 516.114485 454.854167 
L 517.352742 454.012271 
L 518.590999 453.967303 
L 519.829257 454.662456 
L 521.067514 455.875024 
L 522.305771 457.502601 
L 523.544028 459.673058 
L 524.782286 462.516487 
L 527.2588 468.791309 
L 528.497057 471.246536 
L 529.735315 473.146779 
L 530.973572 474.538991 
L 532.211829 475.485016 
L 537.164858 478.62325 
L 538.403116 478.950618 
L 539.641373 478.771335 
L 540.87963 478.373787 
L 542.117887 478.346812 
L 543.356145 478.978375 
L 544.594402 479.95044 
L 545.832659 480.721779 
L 547.070916 481.248248 
L 548.309174 482.055878 
L 549.547431 483.451075 
L 552.023945 486.850697 
L 554.50046 489.660126 
L 559.453489 494.831486 
L 560.691746 495.505901 
L 561.930004 495.616465 
L 563.168261 495.501471 
L 564.406518 495.566411 
L 569.359547 496.692418 
L 571.836062 497.641512 
L 573.074319 497.604953 
L 574.312576 497.17605 
L 575.550834 496.969369 
L 576.789091 497.503665 
L 578.027348 498.667974 
L 579.265605 499.99954 
L 580.503863 500.997959 
L 581.74212 501.102618 
L 582.980377 499.936197 
L 584.218634 497.673502 
L 586.695149 492.208348 
L 587.933406 489.749449 
L 589.171663 487.832827 
L 590.409921 486.964753 
L 591.648178 487.313146 
L 594.124693 489.374514 
L 595.36295 490.012208 
L 596.601207 490.456319 
L 599.077722 491.715356 
L 600.315979 492.013232 
L 601.554236 491.753231 
L 602.792493 491.274506 
L 604.030751 491.010316 
L 606.507265 490.874569 
L 607.745523 490.641878 
L 608.98378 490.146879 
L 610.222037 489.158291 
L 611.460294 487.803607 
L 612.698552 486.619354 
L 613.936809 486.169275 
L 615.175066 486.822191 
L 617.651581 489.679077 
L 618.889838 489.883371 
L 620.128095 488.759278 
L 622.60461 484.808318 
L 623.842867 483.489721 
L 625.081124 483.554063 
L 626.319382 485.109423 
L 627.557639 487.404337 
L 628.795896 489.265781 
L 630.034153 489.907685 
L 631.272411 489.360609 
L 632.510668 488.02996 
L 634.987182 484.157471 
L 636.22544 482.840677 
L 637.463697 482.90795 
L 638.701954 484.225651 
L 639.940211 486.244112 
L 641.178469 488.78435 
L 642.416726 491.968779 
L 644.893241 499.180279 
L 646.131498 501.76332 
L 647.369755 503.028343 
L 648.608012 503.094913 
L 649.84627 502.122026 
L 651.084527 500.192581 
L 653.561041 495.243034 
L 654.799299 493.62435 
L 656.037556 493.091641 
L 657.275813 493.366376 
L 658.51407 494.007133 
L 659.752328 494.860817 
L 662.228842 496.792051 
L 663.4671 497.545881 
L 664.705357 498.13901 
L 665.943614 498.486238 
L 667.181871 498.436939 
L 668.420129 497.96099 
L 669.658386 497.142099 
L 670.896643 496.060504 
L 673.373158 493.276552 
L 675.849672 490.307991 
L 677.087929 488.991628 
L 678.326187 488.242874 
L 679.564444 488.399075 
L 680.802701 489.082635 
L 682.040959 489.093063 
L 683.279216 487.274659 
L 684.517473 483.715027 
L 685.75573 479.784567 
L 686.993988 476.832255 
L 688.232245 475.237125 
L 689.470502 474.759366 
L 690.708759 475.142123 
L 693.185274 477.165534 
L 694.423531 477.745708 
L 695.661789 477.520782 
L 696.900046 476.480311 
L 698.138303 474.814587 
L 699.37656 472.932952 
L 700.614818 471.299021 
L 701.853075 470.180575 
L 703.091332 469.644536 
L 705.567847 469.147034 
L 706.806104 468.649097 
L 708.044361 468.521357 
L 709.282618 469.484122 
L 710.520876 471.584527 
L 711.759133 473.999211 
L 712.99739 475.805119 
L 714.235648 476.660344 
L 715.473905 476.818364 
L 717.950419 476.727776 
L 720.426934 476.696983 
L 721.665191 476.293792 
L 722.903448 475.268864 
L 724.141706 473.77567 
L 725.379963 472.533918 
L 726.61822 472.590274 
L 727.856477 474.860361 
L 729.094735 479.363941 
L 730.332992 484.900483 
L 731.571249 489.773011 
L 732.809507 492.743768 
L 734.047764 493.367126 
L 735.286021 491.850737 
L 737.762536 486.032838 
L 739.000793 484.020339 
L 740.23905 483.774265 
L 741.477307 485.771784 
L 742.715565 489.640434 
L 743.953822 494.118468 
L 745.192079 497.788849 
L 746.430336 499.678058 
L 747.668594 499.54538 
L 750.145108 496.625997 
L 751.383366 496.094652 
L 752.621623 496.248149 
L 753.85988 496.139517 
L 756.336395 494.752176 
L 757.574652 495.285029 
L 760.051166 498.587917 
L 761.289424 499.290568 
L 762.527681 499.067352 
L 763.765938 498.408534 
L 767.48071 495.880958 
L 768.718967 495.813141 
L 769.957225 496.023992 
L 771.195482 496.013984 
L 772.433739 495.845605 
L 773.671996 496.234121 
L 774.910254 497.888939 
L 776.148511 500.698615 
L 777.386768 503.815875 
L 778.625025 506.554602 
L 779.863283 508.716097 
L 781.10154 510.155984 
L 782.339797 510.623162 
L 783.578054 510.089103 
L 786.054569 507.865957 
L 787.292826 507.11362 
L 788.531084 506.755622 
L 789.769341 506.880473 
L 791.007598 507.744933 
L 792.245855 509.552697 
L 794.72237 514.831459 
L 795.960627 516.911065 
L 797.198884 518.157679 
L 800.913656 520.839666 
L 802.151914 521.052462 
L 803.390171 520.254959 
L 804.628428 518.923137 
L 805.866685 517.907453 
L 807.104943 517.684209 
L 808.3432 518.237695 
L 809.581457 519.336791 
L 813.296229 523.471141 
L 814.534486 524.496584 
L 815.772743 525.092723 
L 817.011001 525.168537 
L 818.249258 524.637656 
L 819.487515 523.485878 
L 820.725773 522.014653 
L 821.96403 520.859928 
L 823.202287 520.426564 
L 824.440544 520.401469 
L 825.678802 520.116475 
L 826.917059 519.259273 
L 828.155316 518.181193 
L 829.393573 517.65577 
L 830.631831 518.13015 
L 831.870088 519.166452 
L 833.108345 519.88125 
L 834.346602 519.792238 
L 835.58486 518.953394 
L 836.823117 517.546986 
L 839.299632 514.087261 
L 840.537889 512.853712 
L 841.776146 512.226779 
L 847.967432 510.971317 
L 849.20569 511.004564 
L 850.443947 511.333523 
L 851.682204 512.136388 
L 852.920461 513.666387 
L 854.158719 515.668176 
L 855.396976 517.262894 
L 856.635233 517.767604 
L 857.873491 517.305775 
L 860.350005 515.843316 
L 861.588262 515.238763 
L 864.064777 513.71533 
L 865.303034 513.198934 
L 866.541291 513.103988 
L 867.779549 513.500834 
L 869.017806 514.521219 
L 870.256063 516.307259 
L 872.732578 521.245085 
L 873.970835 523.283563 
L 876.44735 526.190688 
L 877.685607 527.517221 
L 878.923864 528.360062 
L 880.162121 528.167559 
L 882.638636 525.842337 
L 883.876893 525.641358 
L 885.11515 526.595212 
L 886.353408 527.850093 
L 887.591665 528.27841 
L 888.829922 527.288512 
L 890.06818 525.048474 
L 891.306437 522.279049 
L 892.544694 519.793462 
L 893.782951 518.030714 
L 895.021209 517.097469 
L 896.259466 517.115505 
L 897.497723 518.045868 
L 898.73598 519.342562 
L 899.974238 520.334707 
L 901.212495 520.752839 
L 902.450752 520.632942 
L 903.689009 519.976082 
L 904.927267 518.574982 
L 906.165524 516.24601 
L 907.403781 513.368851 
L 908.642039 510.936361 
L 909.880296 509.84771 
L 911.118553 510.247188 
L 912.35681 511.614172 
L 914.833325 515.020511 
L 916.071582 516.366143 
L 917.309839 517.172787 
L 918.548097 517.314638 
L 919.786354 516.691586 
L 921.024611 515.343868 
L 922.262868 513.488938 
L 924.739383 509.53848 
L 925.97764 508.318698 
L 927.215898 508.096354 
L 928.454155 508.936222 
L 929.692412 510.759628 
L 933.407184 518.399535 
L 934.645441 520.217193 
L 937.121956 523.438336 
L 938.360213 524.78048 
L 939.59847 525.502208 
L 940.836727 525.489804 
L 942.074985 524.735022 
L 943.313242 523.260154 
L 945.789757 519.31886 
L 947.028014 517.826662 
L 948.266271 517.305439 
L 949.504528 517.832448 
L 951.981043 520.041371 
L 953.2193 520.703058 
L 954.457557 521.130263 
L 955.695815 521.709342 
L 956.934072 522.479808 
L 958.172329 523.019738 
L 959.410586 522.876881 
L 961.887101 521.133448 
L 963.125358 520.776823 
L 964.363616 521.266378 
L 965.601873 522.234282 
L 966.84013 522.979958 
L 968.078387 523.084129 
L 969.316645 522.591327 
L 970.554902 521.614988 
L 971.793159 520.180544 
L 973.031416 518.525251 
L 974.269674 517.192821 
L 975.507931 516.708214 
L 976.746188 517.214269 
L 977.984446 518.324339 
L 979.222703 519.281063 
L 980.46096 519.405633 
L 981.699217 518.52947 
L 984.175732 515.712965 
L 985.413989 514.95797 
L 986.652246 514.971119 
L 989.128761 516.271824 
L 990.367018 516.378016 
L 991.605275 515.703713 
L 992.843533 514.784955 
L 994.08179 514.437067 
L 995.320047 514.997857 
L 996.558305 516.2565 
L 997.796562 517.972149 
L 999.034819 519.933118 
L 1000.273076 521.635419 
L 1001.511334 522.370375 
L 1002.749591 521.653455 
L 1003.987848 519.569025 
L 1005.226105 516.815022 
L 1006.464363 514.346832 
L 1007.70262 512.821136 
L 1008.940877 512.268352 
L 1010.179134 512.178908 
L 1011.417392 511.869614 
L 1012.655649 510.902819 
L 1013.893906 509.221638 
L 1016.370421 504.766485 
L 1017.608678 503.115705 
L 1018.846935 502.669918 
L 1020.085193 503.444797 
L 1022.561707 506.234413 
L 1023.799964 507.391746 
L 1025.038222 508.109539 
L 1026.276479 508.177592 
L 1027.514736 507.545754 
L 1029.991251 505.189664 
L 1031.229508 504.650833 
L 1032.467765 505.12675 
L 1034.94428 507.7086 
L 1036.182537 508.550475 
L 1037.420794 508.545007 
L 1038.659052 507.715991 
L 1041.135566 505.012097 
L 1042.373823 504.043862 
L 1043.612081 503.6447 
L 1044.850338 503.746215 
L 1046.088595 504.261139 
L 1047.326852 505.283928 
L 1048.56511 506.993984 
L 1049.803367 509.113644 
L 1051.041624 510.674225 
L 1052.279882 510.755584 
L 1053.518139 509.334745 
L 1054.756396 507.227334 
L 1055.994653 505.407775 
L 1057.232911 504.378207 
L 1058.471168 504.000903 
L 1059.709425 503.939246 
L 1060.947682 504.096899 
L 1062.18594 504.533961 
L 1063.424197 505.304995 
L 1064.662454 506.541334 
L 1065.900711 508.344601 
L 1067.138969 510.407461 
L 1068.377226 512.057432 
L 1069.615483 512.828752 
L 1070.853741 512.81839 
L 1073.330255 512.19765 
L 1075.80677 511.730301 
L 1077.045027 511.622519 
L 1080.759799 511.772509 
L 1083.236313 511.079786 
L 1084.474571 511.145669 
L 1086.951085 512.182469 
L 1088.189342 512.457635 
L 1089.4276 512.256555 
L 1091.904114 511.123989 
L 1093.142371 511.148064 
L 1094.380629 511.944619 
L 1096.857143 514.616762 
L 1098.0954 515.608657 
L 1099.333658 516.110147 
L 1100.571915 516.143771 
L 1101.810172 515.810233 
L 1104.286687 514.877059 
L 1105.524944 514.83938 
L 1106.763201 515.295296 
L 1108.001459 515.878069 
L 1109.239716 515.990928 
L 1110.477973 515.385473 
L 1111.71623 514.40619 
L 1112.954488 513.778757 
L 1114.192745 514.106866 
L 1115.431002 515.353638 
L 1116.669259 516.895976 
L 1117.907517 518.226911 
L 1120.384031 520.359306 
L 1121.622289 521.191677 
L 1122.860546 521.638013 
L 1124.098803 521.5887 
L 1125.33706 521.121169 
L 1126.575318 520.501363 
L 1127.813575 520.227085 
L 1129.051832 520.851615 
L 1131.528347 523.699253 
L 1132.766604 523.921134 
L 1134.004861 522.73004 
L 1136.481376 518.89781 
L 1137.719633 517.60294 
L 1138.95789 517.024805 
L 1140.196148 517.163457 
L 1141.434405 517.846048 
L 1142.672662 518.697551 
L 1143.910919 519.385814 
L 1146.387434 520.397808 
L 1148.863948 521.776937 
L 1150.102206 522.568124 
L 1151.340463 523.22217 
L 1152.57872 523.376714 
L 1153.816977 522.784419 
L 1156.293492 520.71463 
L 1158.770007 518.84937 
L 1160.008264 517.81578 
L 1161.246521 517.188561 
L 1162.484778 517.376602 
L 1163.723036 518.414834 
L 1166.19955 521.364842 
L 1167.437807 522.375716 
L 1168.676065 522.793476 
L 1169.914322 522.541679 
L 1171.152579 521.723005 
L 1173.629094 519.468386 
L 1174.867351 518.655858 
L 1176.105608 518.844827 
L 1177.343866 520.496562 
L 1178.582123 523.021983 
L 1179.82038 525.011924 
L 1181.058637 525.512521 
L 1182.296895 524.525928 
L 1183.535152 522.347197 
L 1184.773409 519.211692 
L 1186.011666 515.633155 
L 1187.249924 512.619865 
L 1188.488181 511.244376 
L 1189.726438 511.782308 
L 1192.202953 514.982144 
L 1193.44121 515.89931 
L 1194.679467 516.387268 
L 1195.917725 516.727862 
L 1197.155982 516.648587 
L 1198.394239 515.8256 
L 1200.870754 512.98997 
L 1202.109011 511.295446 
L 1203.347268 508.765115 
L 1204.585525 504.976422 
L 1205.823783 500.52788 
L 1207.06204 496.627236 
L 1208.300297 494.066019 
L 1209.538555 492.991204 
L 1210.776812 493.382288 
L 1212.015069 495.28118 
L 1214.491584 501.625502 
L 1215.729841 504.046688 
L 1216.968098 505.118546 
L 1218.206355 504.931548 
L 1220.68287 503.15097 
L 1221.921127 503.051026 
L 1223.159384 504.050226 
L 1224.397642 505.749087 
L 1225.635899 507.243847 
L 1226.874156 507.928028 
L 1228.112414 507.805864 
L 1229.350671 507.102246 
L 1231.827185 504.840786 
L 1233.065443 503.749255 
L 1234.3037 503.085845 
L 1235.541957 503.341852 
L 1236.780214 504.820107 
L 1238.018472 507.340341 
L 1240.494986 513.141106 
L 1241.733243 515.165083 
L 1242.971501 516.083241 
L 1244.209758 515.970556 
L 1246.686273 514.872948 
L 1249.162787 514.088618 
L 1250.401044 513.585232 
L 1251.639302 512.939421 
L 1252.877559 511.875438 
L 1254.115816 510.103852 
L 1255.354073 507.831885 
L 1256.592331 505.925563 
L 1257.830588 505.358997 
L 1259.068845 506.475435 
L 1261.54536 510.841384 
L 1262.783617 512.028317 
L 1264.021874 511.951504 
L 1265.260132 510.677447 
L 1266.498389 508.430462 
L 1267.736646 505.46832 
L 1271.451418 495.335676 
L 1272.689675 493.251867 
L 1273.927932 492.743761 
L 1275.16619 493.877116 
L 1276.404447 496.165878 
L 1277.642704 498.751105 
L 1278.880962 500.878667 
L 1280.119219 502.194487 
L 1281.357476 502.743308 
L 1282.595733 503.082447 
L 1283.833991 504.0863 
L 1285.072248 506.150038 
L 1286.310505 508.704964 
L 1287.548762 510.630547 
L 1288.78702 510.863726 
L 1290.025277 508.642076 
L 1291.263534 503.682427 
L 1292.501791 496.251167 
L 1294.978306 477.464486 
L 1296.216563 469.620488 
L 1297.454821 465.452914 
L 1298.693078 465.397643 
L 1299.931335 468.335607 
L 1303.646107 481.106152 
L 1304.884364 484.438001 
L 1306.122621 487.336076 
L 1307.360879 489.829813 
L 1308.599136 491.817316 
L 1311.07565 494.848072 
L 1312.313908 496.139409 
L 1313.552165 496.838164 
L 1314.790422 495.950641 
L 1316.02868 492.122987 
L 1317.266937 484.152346 
L 1318.505194 471.704605 
L 1320.981709 440.625712 
L 1322.219966 429.112272 
L 1323.458223 424.105021 
L 1324.69648 425.870488 
L 1325.934738 432.93045 
L 1328.411252 453.182582 
L 1329.649509 461.321166 
L 1330.887767 465.353723 
L 1332.126024 464.246255 
L 1333.364281 458.271365 
L 1335.840796 439.417695 
L 1337.079053 431.757604 
L 1338.31731 426.965137 
L 1339.555568 424.031335 
L 1340.793825 420.729028 
L 1342.032082 414.382091 
L 1343.270339 403.204998 
L 1345.746854 373.535777 
L 1346.985111 364.886795 
L 1348.223368 364.708835 
L 1349.461626 371.532924 
L 1350.699883 382.220638 
L 1354.414655 418.445283 
L 1355.652912 428.475948 
L 1356.891169 435.745372 
L 1358.129427 439.12668 
L 1359.367684 437.918428 
L 1360.605941 432.634592 
L 1363.082456 417.840786 
L 1364.320713 413.385481 
L 1365.55897 413.0829 
L 1366.797228 416.667099 
L 1368.035485 422.717819 
L 1369.273742 429.500524 
L 1370.511999 435.604524 
L 1371.750257 440.369199 
L 1372.988514 443.914034 
L 1374.226771 446.496324 
L 1375.465028 447.787383 
L 1376.703286 447.106417 
L 1377.941543 444.105647 
L 1379.1798 438.713515 
L 1381.656315 423.171566 
L 1382.894572 417.272908 
L 1384.132829 415.278582 
L 1385.371087 416.989342 
L 1386.609344 421.337526 
L 1387.847601 427.612012 
L 1390.324116 443.189097 
L 1391.562373 449.789401 
L 1392.80063 453.771329 
L 1394.038887 454.812276 
L 1395.277145 453.745389 
L 1396.515402 451.947345 
L 1397.753659 450.389599 
L 1398.991916 449.372885 
L 1400.230174 448.962458 
L 1401.468431 449.310211 
L 1402.706688 450.583144 
L 1403.944946 452.665596 
L 1406.42146 457.17604 
L 1407.659717 459.265043 
L 1410.136232 463.807813 
L 1411.374489 465.151032 
L 1412.612746 465.268649 
L 1415.089261 463.677875 
L 1416.327518 463.334555 
L 1417.565775 463.40745 
L 1418.804033 463.336568 
L 1420.04229 462.898827 
L 1421.280547 462.59942 
L 1422.518805 463.307927 
L 1423.757062 465.537965 
L 1426.233576 472.039048 
L 1427.471834 474.210796 
L 1428.710091 475.205002 
L 1431.186605 475.647935 
L 1432.424863 476.38122 
L 1433.66312 478.158946 
L 1436.139634 483.339642 
L 1437.377892 485.326758 
L 1438.616149 486.583022 
L 1439.854406 487.217273 
L 1441.092664 487.416898 
L 1442.330921 487.489176 
L 1443.569178 487.862402 
L 1444.807435 488.874686 
L 1446.045693 490.527713 
L 1447.28395 492.436679 
L 1448.522207 494.021933 
L 1449.760464 494.880228 
L 1450.998722 494.975038 
L 1452.236979 494.349054 
L 1453.475236 492.861298 
L 1454.713494 490.470811 
L 1455.951751 487.722019 
L 1457.190008 485.769534 
L 1458.428265 485.638708 
L 1459.666523 487.390472 
L 1462.143037 493.160564 
L 1463.381294 495.518864 
L 1464.619552 496.903331 
L 1465.857809 497.116183 
L 1467.096066 496.114807 
L 1469.572581 492.497254 
L 1470.810838 491.43282 
L 1472.049095 491.434711 
L 1473.287353 492.545113 
L 1475.763867 496.222777 
L 1477.002124 497.244895 
L 1478.240382 497.264209 
L 1480.716896 496.260767 
L 1481.955153 496.088273 
L 1483.193411 495.397976 
L 1484.431668 492.549306 
L 1485.669925 486.295824 
L 1486.908182 476.82282 
L 1488.14644 465.943224 
L 1489.384697 456.498694 
L 1490.622954 450.916306 
L 1491.861212 449.898053 
L 1493.099469 452.364198 
L 1495.575983 460.080903 
L 1496.814241 462.740683 
L 1498.052498 464.351552 
L 1499.290755 465.267615 
L 1500.529012 466.022542 
L 1501.76727 467.179901 
L 1503.005527 468.926287 
L 1504.243784 471.116758 
L 1507.958556 478.515337 
L 1510.435071 482.636081 
L 1514.149842 488.395475 
L 1515.3881 489.636954 
L 1516.626357 489.464657 
L 1517.864614 487.750645 
L 1519.102871 485.296775 
L 1520.341129 483.374813 
L 1521.579386 482.625777 
L 1522.817643 482.541916 
L 1524.0559 481.926856 
L 1525.294158 479.454234 
L 1526.532415 474.293348 
L 1529.00893 459.103161 
L 1530.247187 453.435972 
L 1531.485444 451.845858 
L 1532.723701 454.658537 
L 1535.200216 466.123912 
L 1536.438473 470.094114 
L 1537.67673 471.712911 
L 1538.914988 471.754044 
L 1540.153245 471.385616 
L 1541.391502 471.613637 
L 1542.62976 472.767523 
L 1543.868017 474.337292 
L 1545.106274 475.601362 
L 1546.344531 476.277396 
L 1547.582789 476.490513 
L 1548.821046 476.518818 
L 1550.059303 476.929379 
L 1551.29756 478.435599 
L 1553.774075 483.223258 
L 1555.012332 484.316436 
L 1556.250589 484.329257 
L 1557.488847 484.005251 
L 1558.727104 483.879341 
L 1559.965361 483.879974 
L 1561.203619 483.534646 
L 1562.441876 482.534556 
L 1563.680133 480.937558 
L 1564.91839 479.050738 
L 1566.156648 477.382055 
L 1567.394905 476.43875 
L 1568.633162 476.441611 
L 1569.871419 477.361578 
L 1572.347934 480.564863 
L 1573.586191 480.607924 
L 1574.824448 477.365879 
L 1576.062706 469.831626 
L 1577.300963 458.503135 
L 1578.53922 445.773882 
L 1579.777478 435.295154 
L 1581.015735 429.907375 
L 1582.253992 429.988618 
L 1583.492249 433.913214 
L 1585.968764 445.173992 
L 1587.207021 449.420184 
L 1588.445278 451.794906 
L 1589.683536 452.741857 
L 1590.921793 453.045041 
L 1592.16005 453.118246 
L 1594.636565 452.801744 
L 1595.874822 452.646141 
L 1597.113079 452.626017 
L 1598.351337 453.150817 
L 1599.589594 455.015958 
L 1600.827851 458.402498 
L 1602.066108 462.314828 
L 1603.304366 465.446087 
L 1604.542623 467.244254 
L 1605.78088 467.89825 
L 1607.019137 467.505086 
L 1608.257395 465.918802 
L 1609.495652 463.55547 
L 1610.733909 461.550303 
L 1611.972166 460.811539 
L 1613.210424 461.328248 
L 1614.448681 462.542767 
L 1616.925196 465.319713 
L 1618.163453 466.397291 
L 1619.40171 467.095348 
L 1620.639967 467.401874 
L 1621.878225 467.375477 
L 1623.116482 466.898025 
L 1624.354739 465.552954 
L 1625.592996 463.014889 
L 1626.831254 459.400425 
L 1628.069511 454.937875 
L 1629.307768 449.542336 
L 1633.02254 429.825342 
L 1634.260797 425.485654 
L 1635.499055 423.27848 
L 1636.737312 422.566311 
L 1637.975569 422.937309 
L 1639.213826 424.842287 
L 1640.452084 428.981919 
L 1641.690341 434.923826 
L 1641.690341 434.923826 
" style="fill:none;stroke:#008000;stroke-linecap:square;stroke-width:1.5;"/>
   </g>
   <g id="patch_3">
    <path d="M 43.78125 586.86358 
L 43.78125 22.318125 
" style="fill:none;stroke:#000000;stroke-linecap:square;stroke-linejoin:miter;stroke-width:0.8;"/>
   </g>
   <g id="patch_4">
    <path d="M 1717.78125 586.86358 
L 1717.78125 22.318125 
" style="fill:none;stroke:#000000;stroke-linecap:square;stroke-linejoin:miter;stroke-width:0.8;"/>
   </g>
   <g id="patch_5">
    <path d="M 43.78125 586.86358 
L 1717.78125 586.86358 
" style="fill:none;stroke:#000000;stroke-linecap:square;stroke-linejoin:miter;stroke-width:0.8;"/>
   </g>
   <g id="patch_6">
    <path d="M 43.78125 22.318125 
L 1717.78125 22.318125 
" style="fill:none;stroke:#000000;stroke-linecap:square;stroke-linejoin:miter;stroke-width:0.8;"/>
   </g>
   <g id="text_19">
    <!-- before binarisation -->
    <g transform="translate(824.1825 16.318125)scale(0.12 -0.12)">
     <defs>
      <path d="M 3116 1747 
Q 3116 2381 2855 2742 
Q 2594 3103 2138 3103 
Q 1681 3103 1420 2742 
Q 1159 2381 1159 1747 
Q 1159 1113 1420 752 
Q 1681 391 2138 391 
Q 2594 391 2855 752 
Q 3116 1113 3116 1747 
z
M 1159 2969 
Q 1341 3281 1617 3432 
Q 1894 3584 2278 3584 
Q 2916 3584 3314 3078 
Q 3713 2572 3713 1747 
Q 3713 922 3314 415 
Q 2916 -91 2278 -91 
Q 1894 -91 1617 61 
Q 1341 213 1159 525 
L 1159 0 
L 581 0 
L 581 4863 
L 1159 4863 
L 1159 2969 
z
" id="DejaVuSans-62" transform="scale(0.015625)"/>
      <path d="M 1959 3097 
Q 1497 3097 1228 2736 
Q 959 2375 959 1747 
Q 959 1119 1226 758 
Q 1494 397 1959 397 
Q 2419 397 2687 759 
Q 2956 1122 2956 1747 
Q 2956 2369 2687 2733 
Q 2419 3097 1959 3097 
z
M 1959 3584 
Q 2709 3584 3137 3096 
Q 3566 2609 3566 1747 
Q 3566 888 3137 398 
Q 2709 -91 1959 -91 
Q 1206 -91 779 398 
Q 353 888 353 1747 
Q 353 2609 779 3096 
Q 1206 3584 1959 3584 
z
" id="DejaVuSans-6f" transform="scale(0.015625)"/>
      <path id="DejaVuSans-20" transform="scale(0.015625)"/>
      <path d="M 603 3500 
L 1178 3500 
L 1178 0 
L 603 0 
L 603 3500 
z
M 603 4863 
L 1178 4863 
L 1178 4134 
L 603 4134 
L 603 4863 
z
" id="DejaVuSans-69" transform="scale(0.015625)"/>
      <path d="M 3513 2113 
L 3513 0 
L 2938 0 
L 2938 2094 
Q 2938 2591 2744 2837 
Q 2550 3084 2163 3084 
Q 1697 3084 1428 2787 
Q 1159 2491 1159 1978 
L 1159 0 
L 581 0 
L 581 3500 
L 1159 3500 
L 1159 2956 
Q 1366 3272 1645 3428 
Q 1925 3584 2291 3584 
Q 2894 3584 3203 3211 
Q 3513 2838 3513 2113 
z
" id="DejaVuSans-6e" transform="scale(0.015625)"/>
      <path d="M 2834 3397 
L 2834 2853 
Q 2591 2978 2328 3040 
Q 2066 3103 1784 3103 
Q 1356 3103 1142 2972 
Q 928 2841 928 2578 
Q 928 2378 1081 2264 
Q 1234 2150 1697 2047 
L 1894 2003 
Q 2506 1872 2764 1633 
Q 3022 1394 3022 966 
Q 3022 478 2636 193 
Q 2250 -91 1575 -91 
Q 1294 -91 989 -36 
Q 684 19 347 128 
L 347 722 
Q 666 556 975 473 
Q 1284 391 1588 391 
Q 1994 391 2212 530 
Q 2431 669 2431 922 
Q 2431 1156 2273 1281 
Q 2116 1406 1581 1522 
L 1381 1569 
Q 847 1681 609 1914 
Q 372 2147 372 2553 
Q 372 3047 722 3315 
Q 1072 3584 1716 3584 
Q 2034 3584 2315 3537 
Q 2597 3491 2834 3397 
z
" id="DejaVuSans-73" transform="scale(0.015625)"/>
      <path d="M 1172 4494 
L 1172 3500 
L 2356 3500 
L 2356 3053 
L 1172 3053 
L 1172 1153 
Q 1172 725 1289 603 
Q 1406 481 1766 481 
L 2356 481 
L 2356 0 
L 1766 0 
Q 1100 0 847 248 
Q 594 497 594 1153 
L 594 3053 
L 172 3053 
L 172 3500 
L 594 3500 
L 594 4494 
L 1172 4494 
z
" id="DejaVuSans-74" transform="scale(0.015625)"/>
     </defs>
     <use xlink:href="#DejaVuSans-62"/>
     <use x="63.476562" xlink:href="#DejaVuSans-65"/>
     <use x="125" xlink:href="#DejaVuSans-66"/>
     <use x="160.205078" xlink:href="#DejaVuSans-6f"/>
     <use x="221.386719" xlink:href="#DejaVuSans-72"/>
     <use x="260.25" xlink:href="#DejaVuSans-65"/>
     <use x="321.773438" xlink:href="#DejaVuSans-20"/>
     <use x="353.560547" xlink:href="#DejaVuSans-62"/>
     <use x="417.037109" xlink:href="#DejaVuSans-69"/>
     <use x="444.820312" xlink:href="#DejaVuSans-6e"/>
     <use x="508.199219" xlink:href="#DejaVuSans-61"/>
     <use x="569.478516" xlink:href="#DejaVuSans-72"/>
     <use x="610.591797" xlink:href="#DejaVuSans-69"/>
     <use x="638.375" xlink:href="#DejaVuSans-73"/>
     <use x="690.474609" xlink:href="#DejaVuSans-61"/>
     <use x="751.753906" xlink:href="#DejaVuSans-74"/>
     <use x="790.962891" xlink:href="#DejaVuSans-69"/>
     <use x="818.746094" xlink:href="#DejaVuSans-6f"/>
     <use x="879.927734" xlink:href="#DejaVuSans-6e"/>
    </g>
   </g>
  </g>
  <g id="axes_2">
   <g id="patch_7">
    <path d="M 43.78125 1264.318125 
L 1717.78125 1264.318125 
L 1717.78125 699.77267 
L 43.78125 699.77267 
z
" style="fill:#ffffff;"/>
   </g>
   <g id="matplotlib.axis_3">
    <g id="xtick_8">
     <g id="line2d_18">
      <g>
       <use style="stroke:#000000;stroke-width:0.8;" x="119.872159" xlink:href="#m058311732f" y="1264.318125"/>
      </g>
     </g>
     <g id="text_20">
      <!-- 0 -->
      <g transform="translate(116.690909 1278.916563)scale(0.1 -0.1)">
       <use xlink:href="#DejaVuSans-30"/>
      </g>
     </g>
    </g>
    <g id="xtick_9">
     <g id="line2d_19">
      <g>
       <use style="stroke:#000000;stroke-width:0.8;" x="367.523613" xlink:href="#m058311732f" y="1264.318125"/>
      </g>
     </g>
     <g id="text_21">
      <!-- 200 -->
      <g transform="translate(357.979863 1278.916563)scale(0.1 -0.1)">
       <use xlink:href="#DejaVuSans-32"/>
       <use x="63.623047" xlink:href="#DejaVuSans-30"/>
       <use x="127.246094" xlink:href="#DejaVuSans-30"/>
      </g>
     </g>
    </g>
    <g id="xtick_10">
     <g id="line2d_20">
      <g>
       <use style="stroke:#000000;stroke-width:0.8;" x="615.175066" xlink:href="#m058311732f" y="1264.318125"/>
      </g>
     </g>
     <g id="text_22">
      <!-- 400 -->
      <g transform="translate(605.631316 1278.916563)scale(0.1 -0.1)">
       <use xlink:href="#DejaVuSans-34"/>
       <use x="63.623047" xlink:href="#DejaVuSans-30"/>
       <use x="127.246094" xlink:href="#DejaVuSans-30"/>
      </g>
     </g>
    </g>
    <g id="xtick_11">
     <g id="line2d_21">
      <g>
       <use style="stroke:#000000;stroke-width:0.8;" x="862.82652" xlink:href="#m058311732f" y="1264.318125"/>
      </g>
     </g>
     <g id="text_23">
      <!-- 600 -->
      <g transform="translate(853.28277 1278.916563)scale(0.1 -0.1)">
       <use xlink:href="#DejaVuSans-36"/>
       <use x="63.623047" xlink:href="#DejaVuSans-30"/>
       <use x="127.246094" xlink:href="#DejaVuSans-30"/>
      </g>
     </g>
    </g>
    <g id="xtick_12">
     <g id="line2d_22">
      <g>
       <use style="stroke:#000000;stroke-width:0.8;" x="1110.477973" xlink:href="#m058311732f" y="1264.318125"/>
      </g>
     </g>
     <g id="text_24">
      <!-- 800 -->
      <g transform="translate(1100.934223 1278.916563)scale(0.1 -0.1)">
       <use xlink:href="#DejaVuSans-38"/>
       <use x="63.623047" xlink:href="#DejaVuSans-30"/>
       <use x="127.246094" xlink:href="#DejaVuSans-30"/>
      </g>
     </g>
    </g>
    <g id="xtick_13">
     <g id="line2d_23">
      <g>
       <use style="stroke:#000000;stroke-width:0.8;" x="1358.129427" xlink:href="#m058311732f" y="1264.318125"/>
      </g>
     </g>
     <g id="text_25">
      <!-- 1000 -->
      <g transform="translate(1345.404427 1278.916563)scale(0.1 -0.1)">
       <use xlink:href="#DejaVuSans-31"/>
       <use x="63.623047" xlink:href="#DejaVuSans-30"/>
       <use x="127.246094" xlink:href="#DejaVuSans-30"/>
       <use x="190.869141" xlink:href="#DejaVuSans-30"/>
      </g>
     </g>
    </g>
    <g id="xtick_14">
     <g id="line2d_24">
      <g>
       <use style="stroke:#000000;stroke-width:0.8;" x="1605.78088" xlink:href="#m058311732f" y="1264.318125"/>
      </g>
     </g>
     <g id="text_26">
      <!-- 1200 -->
      <g transform="translate(1593.05588 1278.916563)scale(0.1 -0.1)">
       <use xlink:href="#DejaVuSans-31"/>
       <use x="63.623047" xlink:href="#DejaVuSans-32"/>
       <use x="127.246094" xlink:href="#DejaVuSans-30"/>
       <use x="190.869141" xlink:href="#DejaVuSans-30"/>
      </g>
     </g>
    </g>
    <g id="text_27">
     <!-- frame -->
     <g transform="translate(865.954687 1292.594688)scale(0.1 -0.1)">
      <use xlink:href="#DejaVuSans-66"/>
      <use x="35.205078" xlink:href="#DejaVuSans-72"/>
      <use x="76.318359" xlink:href="#DejaVuSans-61"/>
      <use x="137.597656" xlink:href="#DejaVuSans-6d"/>
      <use x="235.009766" xlink:href="#DejaVuSans-65"/>
     </g>
    </g>
   </g>
   <g id="matplotlib.axis_4">
    <g id="ytick_10">
     <g id="line2d_25">
      <g>
       <use style="stroke:#000000;stroke-width:0.8;" x="43.78125" xlink:href="#m4869deaa84" y="1238.656968"/>
      </g>
     </g>
     <g id="text_28">
      <!-- 0.0 -->
      <g transform="translate(20.878125 1242.456187)scale(0.1 -0.1)">
       <use xlink:href="#DejaVuSans-30"/>
       <use x="63.623047" xlink:href="#DejaVuSans-2e"/>
       <use x="95.410156" xlink:href="#DejaVuSans-30"/>
      </g>
     </g>
    </g>
    <g id="ytick_11">
     <g id="line2d_26">
      <g>
       <use style="stroke:#000000;stroke-width:0.8;" x="43.78125" xlink:href="#m4869deaa84" y="1136.01234"/>
      </g>
     </g>
     <g id="text_29">
      <!-- 0.2 -->
      <g transform="translate(20.878125 1139.811559)scale(0.1 -0.1)">
       <use xlink:href="#DejaVuSans-30"/>
       <use x="63.623047" xlink:href="#DejaVuSans-2e"/>
       <use x="95.410156" xlink:href="#DejaVuSans-32"/>
      </g>
     </g>
    </g>
    <g id="ytick_12">
     <g id="line2d_27">
      <g>
       <use style="stroke:#000000;stroke-width:0.8;" x="43.78125" xlink:href="#m4869deaa84" y="1033.367712"/>
      </g>
     </g>
     <g id="text_30">
      <!-- 0.4 -->
      <g transform="translate(20.878125 1037.166931)scale(0.1 -0.1)">
       <use xlink:href="#DejaVuSans-30"/>
       <use x="63.623047" xlink:href="#DejaVuSans-2e"/>
       <use x="95.410156" xlink:href="#DejaVuSans-34"/>
      </g>
     </g>
    </g>
    <g id="ytick_13">
     <g id="line2d_28">
      <g>
       <use style="stroke:#000000;stroke-width:0.8;" x="43.78125" xlink:href="#m4869deaa84" y="930.723084"/>
      </g>
     </g>
     <g id="text_31">
      <!-- 0.6 -->
      <g transform="translate(20.878125 934.522302)scale(0.1 -0.1)">
       <use xlink:href="#DejaVuSans-30"/>
       <use x="63.623047" xlink:href="#DejaVuSans-2e"/>
       <use x="95.410156" xlink:href="#DejaVuSans-36"/>
      </g>
     </g>
    </g>
    <g id="ytick_14">
     <g id="line2d_29">
      <g>
       <use style="stroke:#000000;stroke-width:0.8;" x="43.78125" xlink:href="#m4869deaa84" y="828.078456"/>
      </g>
     </g>
     <g id="text_32">
      <!-- 0.8 -->
      <g transform="translate(20.878125 831.877674)scale(0.1 -0.1)">
       <use xlink:href="#DejaVuSans-30"/>
       <use x="63.623047" xlink:href="#DejaVuSans-2e"/>
       <use x="95.410156" xlink:href="#DejaVuSans-38"/>
      </g>
     </g>
    </g>
    <g id="ytick_15">
     <g id="line2d_30">
      <g>
       <use style="stroke:#000000;stroke-width:0.8;" x="43.78125" xlink:href="#m4869deaa84" y="725.433827"/>
      </g>
     </g>
     <g id="text_33">
      <!-- 1.0 -->
      <g transform="translate(20.878125 729.233046)scale(0.1 -0.1)">
       <use xlink:href="#DejaVuSans-31"/>
       <use x="63.623047" xlink:href="#DejaVuSans-2e"/>
       <use x="95.410156" xlink:href="#DejaVuSans-30"/>
      </g>
     </g>
    </g>
    <g id="text_34">
     <!-- GCaMP -->
     <g transform="translate(14.798437 999.803991)rotate(-90)scale(0.1 -0.1)">
      <use xlink:href="#DejaVuSans-47"/>
      <use x="77.490234" xlink:href="#DejaVuSans-43"/>
      <use x="147.314453" xlink:href="#DejaVuSans-61"/>
      <use x="208.59375" xlink:href="#DejaVuSans-4d"/>
      <use x="294.873047" xlink:href="#DejaVuSans-50"/>
     </g>
    </g>
   </g>
   <g id="line2d_31">
    <path clip-path="url(#p14ae56940b)" d="M 119.872159 1238.656968 
L 147.113819 1238.656968 
L 148.352076 725.433827 
L 345.234982 725.433827 
L 346.473239 1238.656968 
L 1641.690341 1238.656968 
L 1641.690341 1238.656968 
" style="fill:none;stroke:#008000;stroke-linecap:square;stroke-width:1.5;"/>
   </g>
   <g id="patch_8">
    <path d="M 43.78125 1264.318125 
L 43.78125 699.77267 
" style="fill:none;stroke:#000000;stroke-linecap:square;stroke-linejoin:miter;stroke-width:0.8;"/>
   </g>
   <g id="patch_9">
    <path d="M 1717.78125 1264.318125 
L 1717.78125 699.77267 
" style="fill:none;stroke:#000000;stroke-linecap:square;stroke-linejoin:miter;stroke-width:0.8;"/>
   </g>
   <g id="patch_10">
    <path d="M 43.78125 1264.318125 
L 1717.78125 1264.318125 
" style="fill:none;stroke:#000000;stroke-linecap:square;stroke-linejoin:miter;stroke-width:0.8;"/>
   </g>
   <g id="patch_11">
    <path d="M 43.78125 699.77267 
L 1717.78125 699.77267 
" style="fill:none;stroke:#000000;stroke-linecap:square;stroke-linejoin:miter;stroke-width:0.8;"/>
   </g>
   <g id="text_35">
    <!-- before binarisation -->
    <g transform="translate(824.1825 693.77267)scale(0.12 -0.12)">
     <use xlink:href="#DejaVuSans-62"/>
     <use x="63.476562" xlink:href="#DejaVuSans-65"/>
     <use x="125" xlink:href="#DejaVuSans-66"/>
     <use x="160.205078" xlink:href="#DejaVuSans-6f"/>
     <use x="221.386719" xlink:href="#DejaVuSans-72"/>
     <use x="260.25" xlink:href="#DejaVuSans-65"/>
     <use x="321.773438" xlink:href="#DejaVuSans-20"/>
     <use x="353.560547" xlink:href="#DejaVuSans-62"/>
     <use x="417.037109" xlink:href="#DejaVuSans-69"/>
     <use x="444.820312" xlink:href="#DejaVuSans-6e"/>
     <use x="508.199219" xlink:href="#DejaVuSans-61"/>
     <use x="569.478516" xlink:href="#DejaVuSans-72"/>
     <use x="610.591797" xlink:href="#DejaVuSans-69"/>
     <use x="638.375" xlink:href="#DejaVuSans-73"/>
     <use x="690.474609" xlink:href="#DejaVuSans-61"/>
     <use x="751.753906" xlink:href="#DejaVuSans-74"/>
     <use x="790.962891" xlink:href="#DejaVuSans-69"/>
     <use x="818.746094" xlink:href="#DejaVuSans-6f"/>
     <use x="879.927734" xlink:href="#DejaVuSans-6e"/>
    </g>
   </g>
  </g>
 </g>
 <defs>
  <clipPath id="peaa2aa403e">
   <rect height="564.545455" width="1674" x="43.78125" y="22.318125"/>
  </clipPath>
  <clipPath id="p14ae56940b">
   <rect height="564.545455" width="1674" x="43.78125" y="699.77267"/>
  </clipPath>
 </defs>
</svg>
