<?xml version="1.0" encoding="utf-8" standalone="no"?>
<!DOCTYPE svg PUBLIC "-//W3C//DTD SVG 1.1//EN"
  "http://www.w3.org/Graphics/SVG/1.1/DTD/svg11.dtd">
<svg height="1301.874375pt" version="1.1" viewBox="0 0 1724.98125 1301.874375" width="1724.98125pt" xmlns="http://www.w3.org/2000/svg" xmlns:xlink="http://www.w3.org/1999/xlink">
 <metadata>
  <rdf:RDF xmlns:cc="http://creativecommons.org/ns#" xmlns:dc="http://purl.org/dc/elements/1.1/" xmlns:rdf="http://www.w3.org/1999/02/22-rdf-syntax-ns#">
   <cc:Work>
    <dc:type rdf:resource="http://purl.org/dc/dcmitype/StillImage"/>
    <dc:date>2022-07-24T15:54:30.521671</dc:date>
    <dc:format>image/svg+xml</dc:format>
    <dc:creator>
     <cc:Agent>
      <dc:title>Matplotlib v3.4.2, https://matplotlib.org/</dc:title>
     </cc:Agent>
    </dc:creator>
   </cc:Work>
  </rdf:RDF>
 </metadata>
 <defs>
  <style type="text/css">*{stroke-linecap:butt;stroke-linejoin:round;}</style>
 </defs>
 <g id="figure_1">
  <g id="patch_1">
   <path d="M 0 1301.874375 
L 1724.98125 1301.874375 
L 1724.98125 0 
L 0 0 
z
" style="fill:#ffffff;"/>
  </g>
  <g id="axes_1">
   <g id="patch_2">
    <path d="M 43.78125 586.86358 
L 1717.78125 586.86358 
L 1717.78125 22.318125 
L 43.78125 22.318125 
z
" style="fill:#ffffff;"/>
   </g>
   <g id="matplotlib.axis_1">
    <g id="xtick_1">
     <g id="line2d_1">
      <defs>
       <path d="M 0 0 
L 0 3.5 
" id="m4d6421f97f" style="stroke:#000000;stroke-width:0.8;"/>
      </defs>
      <g>
       <use style="stroke:#000000;stroke-width:0.8;" x="119.872159" xlink:href="#m4d6421f97f" y="586.86358"/>
      </g>
     </g>
     <g id="text_1">
      <!-- 0 -->
      <g transform="translate(116.690909 601.462017)scale(0.1 -0.1)">
       <defs>
        <path d="M 2034 4250 
Q 1547 4250 1301 3770 
Q 1056 3291 1056 2328 
Q 1056 1369 1301 889 
Q 1547 409 2034 409 
Q 2525 409 2770 889 
Q 3016 1369 3016 2328 
Q 3016 3291 2770 3770 
Q 2525 4250 2034 4250 
z
M 2034 4750 
Q 2819 4750 3233 4129 
Q 3647 3509 3647 2328 
Q 3647 1150 3233 529 
Q 2819 -91 2034 -91 
Q 1250 -91 836 529 
Q 422 1150 422 2328 
Q 422 3509 836 4129 
Q 1250 4750 2034 4750 
z
" id="DejaVuSans-30" transform="scale(0.015625)"/>
       </defs>
       <use xlink:href="#DejaVuSans-30"/>
      </g>
     </g>
    </g>
    <g id="xtick_2">
     <g id="line2d_2">
      <g>
       <use style="stroke:#000000;stroke-width:0.8;" x="367.523613" xlink:href="#m4d6421f97f" y="586.86358"/>
      </g>
     </g>
     <g id="text_2">
      <!-- 200 -->
      <g transform="translate(357.979863 601.462017)scale(0.1 -0.1)">
       <defs>
        <path d="M 1228 531 
L 3431 531 
L 3431 0 
L 469 0 
L 469 531 
Q 828 903 1448 1529 
Q 2069 2156 2228 2338 
Q 2531 2678 2651 2914 
Q 2772 3150 2772 3378 
Q 2772 3750 2511 3984 
Q 2250 4219 1831 4219 
Q 1534 4219 1204 4116 
Q 875 4013 500 3803 
L 500 4441 
Q 881 4594 1212 4672 
Q 1544 4750 1819 4750 
Q 2544 4750 2975 4387 
Q 3406 4025 3406 3419 
Q 3406 3131 3298 2873 
Q 3191 2616 2906 2266 
Q 2828 2175 2409 1742 
Q 1991 1309 1228 531 
z
" id="DejaVuSans-32" transform="scale(0.015625)"/>
       </defs>
       <use xlink:href="#DejaVuSans-32"/>
       <use x="63.623047" xlink:href="#DejaVuSans-30"/>
       <use x="127.246094" xlink:href="#DejaVuSans-30"/>
      </g>
     </g>
    </g>
    <g id="xtick_3">
     <g id="line2d_3">
      <g>
       <use style="stroke:#000000;stroke-width:0.8;" x="615.175066" xlink:href="#m4d6421f97f" y="586.86358"/>
      </g>
     </g>
     <g id="text_3">
      <!-- 400 -->
      <g transform="translate(605.631316 601.462017)scale(0.1 -0.1)">
       <defs>
        <path d="M 2419 4116 
L 825 1625 
L 2419 1625 
L 2419 4116 
z
M 2253 4666 
L 3047 4666 
L 3047 1625 
L 3713 1625 
L 3713 1100 
L 3047 1100 
L 3047 0 
L 2419 0 
L 2419 1100 
L 313 1100 
L 313 1709 
L 2253 4666 
z
" id="DejaVuSans-34" transform="scale(0.015625)"/>
       </defs>
       <use xlink:href="#DejaVuSans-34"/>
       <use x="63.623047" xlink:href="#DejaVuSans-30"/>
       <use x="127.246094" xlink:href="#DejaVuSans-30"/>
      </g>
     </g>
    </g>
    <g id="xtick_4">
     <g id="line2d_4">
      <g>
       <use style="stroke:#000000;stroke-width:0.8;" x="862.82652" xlink:href="#m4d6421f97f" y="586.86358"/>
      </g>
     </g>
     <g id="text_4">
      <!-- 600 -->
      <g transform="translate(853.28277 601.462017)scale(0.1 -0.1)">
       <defs>
        <path d="M 2113 2584 
Q 1688 2584 1439 2293 
Q 1191 2003 1191 1497 
Q 1191 994 1439 701 
Q 1688 409 2113 409 
Q 2538 409 2786 701 
Q 3034 994 3034 1497 
Q 3034 2003 2786 2293 
Q 2538 2584 2113 2584 
z
M 3366 4563 
L 3366 3988 
Q 3128 4100 2886 4159 
Q 2644 4219 2406 4219 
Q 1781 4219 1451 3797 
Q 1122 3375 1075 2522 
Q 1259 2794 1537 2939 
Q 1816 3084 2150 3084 
Q 2853 3084 3261 2657 
Q 3669 2231 3669 1497 
Q 3669 778 3244 343 
Q 2819 -91 2113 -91 
Q 1303 -91 875 529 
Q 447 1150 447 2328 
Q 447 3434 972 4092 
Q 1497 4750 2381 4750 
Q 2619 4750 2861 4703 
Q 3103 4656 3366 4563 
z
" id="DejaVuSans-36" transform="scale(0.015625)"/>
       </defs>
       <use xlink:href="#DejaVuSans-36"/>
       <use x="63.623047" xlink:href="#DejaVuSans-30"/>
       <use x="127.246094" xlink:href="#DejaVuSans-30"/>
      </g>
     </g>
    </g>
    <g id="xtick_5">
     <g id="line2d_5">
      <g>
       <use style="stroke:#000000;stroke-width:0.8;" x="1110.477973" xlink:href="#m4d6421f97f" y="586.86358"/>
      </g>
     </g>
     <g id="text_5">
      <!-- 800 -->
      <g transform="translate(1100.934223 601.462017)scale(0.1 -0.1)">
       <defs>
        <path d="M 2034 2216 
Q 1584 2216 1326 1975 
Q 1069 1734 1069 1313 
Q 1069 891 1326 650 
Q 1584 409 2034 409 
Q 2484 409 2743 651 
Q 3003 894 3003 1313 
Q 3003 1734 2745 1975 
Q 2488 2216 2034 2216 
z
M 1403 2484 
Q 997 2584 770 2862 
Q 544 3141 544 3541 
Q 544 4100 942 4425 
Q 1341 4750 2034 4750 
Q 2731 4750 3128 4425 
Q 3525 4100 3525 3541 
Q 3525 3141 3298 2862 
Q 3072 2584 2669 2484 
Q 3125 2378 3379 2068 
Q 3634 1759 3634 1313 
Q 3634 634 3220 271 
Q 2806 -91 2034 -91 
Q 1263 -91 848 271 
Q 434 634 434 1313 
Q 434 1759 690 2068 
Q 947 2378 1403 2484 
z
M 1172 3481 
Q 1172 3119 1398 2916 
Q 1625 2713 2034 2713 
Q 2441 2713 2670 2916 
Q 2900 3119 2900 3481 
Q 2900 3844 2670 4047 
Q 2441 4250 2034 4250 
Q 1625 4250 1398 4047 
Q 1172 3844 1172 3481 
z
" id="DejaVuSans-38" transform="scale(0.015625)"/>
       </defs>
       <use xlink:href="#DejaVuSans-38"/>
       <use x="63.623047" xlink:href="#DejaVuSans-30"/>
       <use x="127.246094" xlink:href="#DejaVuSans-30"/>
      </g>
     </g>
    </g>
    <g id="xtick_6">
     <g id="line2d_6">
      <g>
       <use style="stroke:#000000;stroke-width:0.8;" x="1358.129427" xlink:href="#m4d6421f97f" y="586.86358"/>
      </g>
     </g>
     <g id="text_6">
      <!-- 1000 -->
      <g transform="translate(1345.404427 601.462017)scale(0.1 -0.1)">
       <defs>
        <path d="M 794 531 
L 1825 531 
L 1825 4091 
L 703 3866 
L 703 4441 
L 1819 4666 
L 2450 4666 
L 2450 531 
L 3481 531 
L 3481 0 
L 794 0 
L 794 531 
z
" id="DejaVuSans-31" transform="scale(0.015625)"/>
       </defs>
       <use xlink:href="#DejaVuSans-31"/>
       <use x="63.623047" xlink:href="#DejaVuSans-30"/>
       <use x="127.246094" xlink:href="#DejaVuSans-30"/>
       <use x="190.869141" xlink:href="#DejaVuSans-30"/>
      </g>
     </g>
    </g>
    <g id="xtick_7">
     <g id="line2d_7">
      <g>
       <use style="stroke:#000000;stroke-width:0.8;" x="1605.78088" xlink:href="#m4d6421f97f" y="586.86358"/>
      </g>
     </g>
     <g id="text_7">
      <!-- 1200 -->
      <g transform="translate(1593.05588 601.462017)scale(0.1 -0.1)">
       <use xlink:href="#DejaVuSans-31"/>
       <use x="63.623047" xlink:href="#DejaVuSans-32"/>
       <use x="127.246094" xlink:href="#DejaVuSans-30"/>
       <use x="190.869141" xlink:href="#DejaVuSans-30"/>
      </g>
     </g>
    </g>
    <g id="text_8">
     <!-- frame -->
     <g transform="translate(865.954687 615.140142)scale(0.1 -0.1)">
      <defs>
       <path d="M 2375 4863 
L 2375 4384 
L 1825 4384 
Q 1516 4384 1395 4259 
Q 1275 4134 1275 3809 
L 1275 3500 
L 2222 3500 
L 2222 3053 
L 1275 3053 
L 1275 0 
L 697 0 
L 697 3053 
L 147 3053 
L 147 3500 
L 697 3500 
L 697 3744 
Q 697 4328 969 4595 
Q 1241 4863 1831 4863 
L 2375 4863 
z
" id="DejaVuSans-66" transform="scale(0.015625)"/>
       <path d="M 2631 2963 
Q 2534 3019 2420 3045 
Q 2306 3072 2169 3072 
Q 1681 3072 1420 2755 
Q 1159 2438 1159 1844 
L 1159 0 
L 581 0 
L 581 3500 
L 1159 3500 
L 1159 2956 
Q 1341 3275 1631 3429 
Q 1922 3584 2338 3584 
Q 2397 3584 2469 3576 
Q 2541 3569 2628 3553 
L 2631 2963 
z
" id="DejaVuSans-72" transform="scale(0.015625)"/>
       <path d="M 2194 1759 
Q 1497 1759 1228 1600 
Q 959 1441 959 1056 
Q 959 750 1161 570 
Q 1363 391 1709 391 
Q 2188 391 2477 730 
Q 2766 1069 2766 1631 
L 2766 1759 
L 2194 1759 
z
M 3341 1997 
L 3341 0 
L 2766 0 
L 2766 531 
Q 2569 213 2275 61 
Q 1981 -91 1556 -91 
Q 1019 -91 701 211 
Q 384 513 384 1019 
Q 384 1609 779 1909 
Q 1175 2209 1959 2209 
L 2766 2209 
L 2766 2266 
Q 2766 2663 2505 2880 
Q 2244 3097 1772 3097 
Q 1472 3097 1187 3025 
Q 903 2953 641 2809 
L 641 3341 
Q 956 3463 1253 3523 
Q 1550 3584 1831 3584 
Q 2591 3584 2966 3190 
Q 3341 2797 3341 1997 
z
" id="DejaVuSans-61" transform="scale(0.015625)"/>
       <path d="M 3328 2828 
Q 3544 3216 3844 3400 
Q 4144 3584 4550 3584 
Q 5097 3584 5394 3201 
Q 5691 2819 5691 2113 
L 5691 0 
L 5113 0 
L 5113 2094 
Q 5113 2597 4934 2840 
Q 4756 3084 4391 3084 
Q 3944 3084 3684 2787 
Q 3425 2491 3425 1978 
L 3425 0 
L 2847 0 
L 2847 2094 
Q 2847 2600 2669 2842 
Q 2491 3084 2119 3084 
Q 1678 3084 1418 2786 
Q 1159 2488 1159 1978 
L 1159 0 
L 581 0 
L 581 3500 
L 1159 3500 
L 1159 2956 
Q 1356 3278 1631 3431 
Q 1906 3584 2284 3584 
Q 2666 3584 2933 3390 
Q 3200 3197 3328 2828 
z
" id="DejaVuSans-6d" transform="scale(0.015625)"/>
       <path d="M 3597 1894 
L 3597 1613 
L 953 1613 
Q 991 1019 1311 708 
Q 1631 397 2203 397 
Q 2534 397 2845 478 
Q 3156 559 3463 722 
L 3463 178 
Q 3153 47 2828 -22 
Q 2503 -91 2169 -91 
Q 1331 -91 842 396 
Q 353 884 353 1716 
Q 353 2575 817 3079 
Q 1281 3584 2069 3584 
Q 2775 3584 3186 3129 
Q 3597 2675 3597 1894 
z
M 3022 2063 
Q 3016 2534 2758 2815 
Q 2500 3097 2075 3097 
Q 1594 3097 1305 2825 
Q 1016 2553 972 2059 
L 3022 2063 
z
" id="DejaVuSans-65" transform="scale(0.015625)"/>
      </defs>
      <use xlink:href="#DejaVuSans-66"/>
      <use x="35.205078" xlink:href="#DejaVuSans-72"/>
      <use x="76.318359" xlink:href="#DejaVuSans-61"/>
      <use x="137.597656" xlink:href="#DejaVuSans-6d"/>
      <use x="235.009766" xlink:href="#DejaVuSans-65"/>
     </g>
    </g>
   </g>
   <g id="matplotlib.axis_2">
    <g id="ytick_1">
     <g id="line2d_8">
      <defs>
       <path d="M 0 0 
L -3.5 0 
" id="m529fc0e293" style="stroke:#000000;stroke-width:0.8;"/>
      </defs>
      <g>
       <use style="stroke:#000000;stroke-width:0.8;" x="43.78125" xlink:href="#m529fc0e293" y="545.096506"/>
      </g>
     </g>
     <g id="text_9">
      <!-- 0.6 -->
      <g transform="translate(20.878125 548.895725)scale(0.1 -0.1)">
       <defs>
        <path d="M 684 794 
L 1344 794 
L 1344 0 
L 684 0 
L 684 794 
z
" id="DejaVuSans-2e" transform="scale(0.015625)"/>
       </defs>
       <use xlink:href="#DejaVuSans-30"/>
       <use x="63.623047" xlink:href="#DejaVuSans-2e"/>
       <use x="95.410156" xlink:href="#DejaVuSans-36"/>
      </g>
     </g>
    </g>
    <g id="ytick_2">
     <g id="line2d_9">
      <g>
       <use style="stroke:#000000;stroke-width:0.8;" x="43.78125" xlink:href="#m529fc0e293" y="471.676655"/>
      </g>
     </g>
     <g id="text_10">
      <!-- 0.8 -->
      <g transform="translate(20.878125 475.475874)scale(0.1 -0.1)">
       <use xlink:href="#DejaVuSans-30"/>
       <use x="63.623047" xlink:href="#DejaVuSans-2e"/>
       <use x="95.410156" xlink:href="#DejaVuSans-38"/>
      </g>
     </g>
    </g>
    <g id="ytick_3">
     <g id="line2d_10">
      <g>
       <use style="stroke:#000000;stroke-width:0.8;" x="43.78125" xlink:href="#m529fc0e293" y="398.256804"/>
      </g>
     </g>
     <g id="text_11">
      <!-- 1.0 -->
      <g transform="translate(20.878125 402.056023)scale(0.1 -0.1)">
       <use xlink:href="#DejaVuSans-31"/>
       <use x="63.623047" xlink:href="#DejaVuSans-2e"/>
       <use x="95.410156" xlink:href="#DejaVuSans-30"/>
      </g>
     </g>
    </g>
    <g id="ytick_4">
     <g id="line2d_11">
      <g>
       <use style="stroke:#000000;stroke-width:0.8;" x="43.78125" xlink:href="#m529fc0e293" y="324.836953"/>
      </g>
     </g>
     <g id="text_12">
      <!-- 1.2 -->
      <g transform="translate(20.878125 328.636172)scale(0.1 -0.1)">
       <use xlink:href="#DejaVuSans-31"/>
       <use x="63.623047" xlink:href="#DejaVuSans-2e"/>
       <use x="95.410156" xlink:href="#DejaVuSans-32"/>
      </g>
     </g>
    </g>
    <g id="ytick_5">
     <g id="line2d_12">
      <g>
       <use style="stroke:#000000;stroke-width:0.8;" x="43.78125" xlink:href="#m529fc0e293" y="251.417102"/>
      </g>
     </g>
     <g id="text_13">
      <!-- 1.4 -->
      <g transform="translate(20.878125 255.216321)scale(0.1 -0.1)">
       <use xlink:href="#DejaVuSans-31"/>
       <use x="63.623047" xlink:href="#DejaVuSans-2e"/>
       <use x="95.410156" xlink:href="#DejaVuSans-34"/>
      </g>
     </g>
    </g>
    <g id="ytick_6">
     <g id="line2d_13">
      <g>
       <use style="stroke:#000000;stroke-width:0.8;" x="43.78125" xlink:href="#m529fc0e293" y="177.997251"/>
      </g>
     </g>
     <g id="text_14">
      <!-- 1.6 -->
      <g transform="translate(20.878125 181.79647)scale(0.1 -0.1)">
       <use xlink:href="#DejaVuSans-31"/>
       <use x="63.623047" xlink:href="#DejaVuSans-2e"/>
       <use x="95.410156" xlink:href="#DejaVuSans-36"/>
      </g>
     </g>
    </g>
    <g id="ytick_7">
     <g id="line2d_14">
      <g>
       <use style="stroke:#000000;stroke-width:0.8;" x="43.78125" xlink:href="#m529fc0e293" y="104.5774"/>
      </g>
     </g>
     <g id="text_15">
      <!-- 1.8 -->
      <g transform="translate(20.878125 108.376619)scale(0.1 -0.1)">
       <use xlink:href="#DejaVuSans-31"/>
       <use x="63.623047" xlink:href="#DejaVuSans-2e"/>
       <use x="95.410156" xlink:href="#DejaVuSans-38"/>
      </g>
     </g>
    </g>
    <g id="ytick_8">
     <g id="line2d_15">
      <g>
       <use style="stroke:#000000;stroke-width:0.8;" x="43.78125" xlink:href="#m529fc0e293" y="31.15755"/>
      </g>
     </g>
     <g id="text_16">
      <!-- 2.0 -->
      <g transform="translate(20.878125 34.956768)scale(0.1 -0.1)">
       <use xlink:href="#DejaVuSans-32"/>
       <use x="63.623047" xlink:href="#DejaVuSans-2e"/>
       <use x="95.410156" xlink:href="#DejaVuSans-30"/>
      </g>
     </g>
    </g>
    <g id="text_17">
     <!-- GCaMP -->
     <g transform="translate(14.798437 322.349446)rotate(-90)scale(0.1 -0.1)">
      <defs>
       <path d="M 3809 666 
L 3809 1919 
L 2778 1919 
L 2778 2438 
L 4434 2438 
L 4434 434 
Q 4069 175 3628 42 
Q 3188 -91 2688 -91 
Q 1594 -91 976 548 
Q 359 1188 359 2328 
Q 359 3472 976 4111 
Q 1594 4750 2688 4750 
Q 3144 4750 3555 4637 
Q 3966 4525 4313 4306 
L 4313 3634 
Q 3963 3931 3569 4081 
Q 3175 4231 2741 4231 
Q 1884 4231 1454 3753 
Q 1025 3275 1025 2328 
Q 1025 1384 1454 906 
Q 1884 428 2741 428 
Q 3075 428 3337 486 
Q 3600 544 3809 666 
z
" id="DejaVuSans-47" transform="scale(0.015625)"/>
       <path d="M 4122 4306 
L 4122 3641 
Q 3803 3938 3442 4084 
Q 3081 4231 2675 4231 
Q 1875 4231 1450 3742 
Q 1025 3253 1025 2328 
Q 1025 1406 1450 917 
Q 1875 428 2675 428 
Q 3081 428 3442 575 
Q 3803 722 4122 1019 
L 4122 359 
Q 3791 134 3420 21 
Q 3050 -91 2638 -91 
Q 1578 -91 968 557 
Q 359 1206 359 2328 
Q 359 3453 968 4101 
Q 1578 4750 2638 4750 
Q 3056 4750 3426 4639 
Q 3797 4528 4122 4306 
z
" id="DejaVuSans-43" transform="scale(0.015625)"/>
       <path d="M 628 4666 
L 1569 4666 
L 2759 1491 
L 3956 4666 
L 4897 4666 
L 4897 0 
L 4281 0 
L 4281 4097 
L 3078 897 
L 2444 897 
L 1241 4097 
L 1241 0 
L 628 0 
L 628 4666 
z
" id="DejaVuSans-4d" transform="scale(0.015625)"/>
       <path d="M 1259 4147 
L 1259 2394 
L 2053 2394 
Q 2494 2394 2734 2622 
Q 2975 2850 2975 3272 
Q 2975 3691 2734 3919 
Q 2494 4147 2053 4147 
L 1259 4147 
z
M 628 4666 
L 2053 4666 
Q 2838 4666 3239 4311 
Q 3641 3956 3641 3272 
Q 3641 2581 3239 2228 
Q 2838 1875 2053 1875 
L 1259 1875 
L 1259 0 
L 628 0 
L 628 4666 
z
" id="DejaVuSans-50" transform="scale(0.015625)"/>
      </defs>
      <use xlink:href="#DejaVuSans-47"/>
      <use x="77.490234" xlink:href="#DejaVuSans-43"/>
      <use x="147.314453" xlink:href="#DejaVuSans-61"/>
      <use x="208.59375" xlink:href="#DejaVuSans-4d"/>
      <use x="294.873047" xlink:href="#DejaVuSans-50"/>
     </g>
    </g>
   </g>
   <g id="line2d_16">
    <path clip-path="url(#pf57160f542)" d="M 119.872159 543.274354 
L 123.586931 558.442554 
L 124.825188 561.202423 
L 126.063445 559.678684 
L 127.301703 550.228307 
L 128.53996 527.642096 
L 129.778217 487.655837 
L 131.016474 431.698462 
L 132.254732 369.897738 
L 133.492989 317.075222 
L 134.731246 283.624716 
L 135.969504 270.568873 
L 137.207761 272.721098 
L 138.446018 284.498182 
L 139.684275 302.379541 
L 143.399047 364.794937 
L 144.637304 376.001071 
L 145.875562 373.539755 
L 147.113819 351.169373 
L 148.352076 304.97538 
L 152.066848 108.36209 
L 153.305105 73.224233 
L 154.543363 62.324738 
L 155.78162 69.856041 
L 157.019877 89.387072 
L 158.258134 116.520579 
L 160.734649 178.683451 
L 161.972906 205.789335 
L 163.211163 226.497814 
L 164.449421 239.754434 
L 165.687678 247.54888 
L 166.925935 254.441569 
L 168.164193 263.766604 
L 169.40245 275.91174 
L 174.355479 331.467436 
L 175.593736 341.558112 
L 176.831993 349.03814 
L 179.308508 362.314327 
L 181.785022 376.756633 
L 185.499794 397.481838 
L 186.738052 405.747596 
L 190.452823 434.841249 
L 191.691081 441.658504 
L 192.929338 445.925934 
L 194.167595 448.283756 
L 195.405852 450.351564 
L 196.64411 453.729987 
L 199.120624 463.241661 
L 200.358881 463.716933 
L 201.597139 455.886941 
L 202.835396 436.108891 
L 204.073653 403.429176 
L 205.311911 363.428268 
L 206.550168 327.962778 
L 207.788425 307.542951 
L 209.026682 304.480992 
L 210.26494 314.232607 
L 211.503197 330.841995 
L 215.217969 387.221255 
L 216.456226 402.726757 
L 217.694483 415.514921 
L 218.93274 424.99827 
L 220.170998 430.49638 
L 221.409255 431.575587 
L 222.647512 428.336523 
L 223.88577 421.097241 
L 225.124027 409.151419 
L 226.362284 391.399753 
L 228.838799 349.884988 
L 230.077056 337.744145 
L 231.315313 335.29207 
L 232.55357 341.025257 
L 233.791828 352.321606 
L 235.030085 367.005826 
L 237.5066 399.053164 
L 238.744857 412.479007 
L 239.983114 422.060141 
L 241.221371 425.747919 
L 242.459629 420.979044 
L 243.697886 406.175338 
L 244.936143 381.871859 
L 247.412658 321.941015 
L 248.650915 300.805758 
L 249.889172 292.732016 
L 251.127429 297.082602 
L 252.365687 309.714829 
L 256.080459 357.863191 
L 257.318716 370.715848 
L 258.556973 381.256578 
L 259.79523 390.016308 
L 264.748259 422.336699 
L 267.224774 438.279135 
L 268.463031 445.424118 
L 269.701288 450.800024 
L 270.939546 453.876278 
L 272.177803 456.103138 
L 273.41606 459.707936 
L 274.654318 465.502973 
L 275.892575 472.38106 
L 277.130832 478.45236 
L 278.369089 482.581039 
L 279.607347 485.095569 
L 280.845604 487.319213 
L 282.083861 490.65455 
L 283.322118 495.68083 
L 285.798633 507.424843 
L 287.03689 511.57294 
L 288.275147 513.32062 
L 289.513405 512.677548 
L 290.751662 510.939588 
L 291.989919 510.071197 
L 293.228177 511.365002 
L 294.466434 514.595278 
L 295.704691 518.425295 
L 296.942948 521.546396 
L 298.181206 523.222486 
L 299.419463 523.086017 
L 300.65772 521.206513 
L 301.895977 518.437804 
L 303.134235 516.159885 
L 304.372492 515.472409 
L 305.610749 516.951548 
L 306.849006 521.008907 
L 309.325521 533.565564 
L 310.563778 537.398475 
L 311.802036 537.686772 
L 313.040293 534.751399 
L 315.516807 524.8921 
L 316.755065 522.239796 
L 317.993322 522.854309 
L 319.231579 526.348329 
L 320.469836 530.928466 
L 321.708094 534.287792 
L 322.946351 535.374557 
L 324.184608 534.556919 
L 325.422866 532.31496 
L 327.89938 525.908963 
L 329.137637 523.830047 
L 330.375895 523.323085 
L 331.614152 524.158288 
L 332.852409 526.081316 
L 334.090666 529.292218 
L 335.328924 534.128976 
L 337.805438 546.251063 
L 339.043695 550.865304 
L 340.281953 552.944255 
L 341.52021 550.892022 
L 342.758467 542.150636 
L 343.996725 523.83198 
L 345.234982 494.580455 
L 347.711496 420.436037 
L 348.949754 393.695097 
L 350.188011 382.063063 
L 351.426268 383.742546 
L 352.664525 393.466887 
L 355.14104 418.605217 
L 356.379297 429.430187 
L 361.332326 467.081197 
L 362.570584 475.242949 
L 363.808841 481.088417 
L 365.047098 484.714565 
L 366.285355 486.954369 
L 367.523613 488.276835 
L 368.76187 488.78489 
L 370.000127 488.865503 
L 371.238384 488.800378 
L 372.476642 488.514809 
L 373.714899 488.388878 
L 376.191413 489.314043 
L 377.429671 489.489942 
L 378.667928 490.861499 
L 379.906185 495.084812 
L 382.3827 508.612914 
L 383.620957 512.072454 
L 384.859214 507.389832 
L 386.097472 489.710016 
L 387.335729 456.450845 
L 391.050501 320.234692 
L 392.288758 297.870273 
L 393.527015 294.292635 
L 394.765272 304.609556 
L 396.00353 322.720483 
L 398.480044 362.703867 
L 399.718302 377.056926 
L 400.956559 385.020034 
L 402.194816 387.540722 
L 403.433073 387.336611 
L 404.671331 387.748021 
L 405.909588 391.119797 
L 407.147845 397.673819 
L 408.386102 406.423716 
L 410.862617 424.835 
L 412.100874 431.548857 
L 413.339132 435.786468 
L 414.577389 437.55541 
L 415.815646 437.656011 
L 417.053903 437.87199 
L 418.292161 439.983995 
L 419.530418 444.863005 
L 420.768675 452.034371 
L 422.006932 459.982961 
L 423.24519 467.190392 
L 424.483447 472.714261 
L 425.721704 476.432715 
L 429.436476 484.620969 
L 430.674733 485.940555 
L 431.912991 486.213271 
L 433.151248 486.824275 
L 434.389505 488.961388 
L 438.104277 499.561257 
L 439.342534 502.664211 
L 440.580791 507.402272 
L 441.819049 514.368522 
L 443.057306 522.309303 
L 444.295563 528.624003 
L 445.53382 529.838518 
L 446.772078 521.697758 
L 448.010335 499.529517 
L 449.248592 459.730857 
L 450.48685 403.211407 
L 451.725107 338.955851 
L 452.963364 282.41464 
L 454.201621 247.024356 
L 455.439879 236.202829 
L 456.678136 244.173603 
L 457.916393 263.006331 
L 461.631165 334.435462 
L 462.869422 353.721307 
L 464.107679 368.293023 
L 465.345937 377.671261 
L 466.584194 382.086459 
L 467.822451 381.356246 
L 469.060709 373.559889 
L 470.298966 355.300998 
L 471.537223 324.158189 
L 474.013738 241.40372 
L 475.251995 210.772461 
L 476.490252 197.249655 
L 477.728509 200.463332 
L 478.966767 216.05669 
L 481.443281 259.768598 
L 482.681538 275.687229 
L 483.919796 280.822441 
L 485.158053 270.82765 
L 486.39631 243.423639 
L 490.111082 121.647527 
L 491.349339 101.689102 
L 492.587597 99.890512 
L 493.825854 115.187975 
L 495.064111 142.555015 
L 497.540626 206.258902 
L 498.778883 234.213995 
L 500.01714 256.349948 
L 501.255397 269.300765 
L 502.493655 268.370197 
L 503.731912 249.141719 
L 504.970169 210.866015 
L 507.446684 112.045031 
L 508.684941 79.967397 
L 509.923198 70.05202 
L 511.161456 78.598648 
L 512.399713 98.087248 
L 516.114485 170.135833 
L 517.352742 189.632652 
L 518.590999 206.359089 
L 519.829257 221.362841 
L 521.067514 234.781223 
L 522.305771 245.625799 
L 523.544028 251.628419 
L 524.782286 248.539575 
L 526.020543 231.784597 
L 527.2588 201.472269 
L 528.497057 165.943046 
L 529.735315 138.349485 
L 530.973572 128.384618 
L 532.211829 137.357032 
L 533.450086 159.696485 
L 534.688344 186.666348 
L 535.926601 209.38875 
L 537.164858 221.284911 
L 538.403116 218.713398 
L 539.641373 200.199334 
L 540.87963 168.104069 
L 542.117887 131.810934 
L 543.356145 104.487164 
L 544.594402 94.028148 
L 545.832659 100.22048 
L 547.070916 119.584585 
L 548.309174 148.267833 
L 550.785688 213.233024 
L 552.023945 238.060231 
L 553.262203 251.166294 
L 554.50046 249.40641 
L 555.738717 232.155641 
L 556.976975 202.516384 
L 558.215232 168.593973 
L 559.453489 141.956034 
L 560.691746 131.572057 
L 561.930004 138.739251 
L 563.168261 157.648507 
L 564.406518 179.327568 
L 565.644775 195.313109 
L 566.883033 198.936293 
L 568.12129 185.810468 
L 569.359547 157.274718 
L 570.597804 123.021916 
L 571.836062 95.825451 
L 573.074319 83.27657 
L 574.312576 85.976826 
L 575.550834 100.622505 
L 576.789091 122.83047 
L 581.74212 225.380707 
L 582.980377 244.137572 
L 584.218634 258.520246 
L 585.456892 269.679892 
L 587.933406 288.28306 
L 589.171663 295.940036 
L 590.409921 301.768382 
L 592.886435 311.370098 
L 595.36295 322.176142 
L 599.077722 339.266782 
L 600.315979 343.175015 
L 601.554236 344.984001 
L 602.792493 346.03605 
L 604.030751 348.635432 
L 605.269008 353.73749 
L 606.507265 360.674163 
L 610.222037 384.039382 
L 612.698552 395.654584 
L 615.175066 409.33857 
L 616.413323 414.555337 
L 617.651581 416.391156 
L 620.128095 414.775221 
L 622.60461 415.42106 
L 623.842867 415.220099 
L 625.081124 416.214461 
L 626.319382 420.777571 
L 627.557639 429.246533 
L 630.034153 449.6034 
L 631.272411 457.59774 
L 632.510668 463.267112 
L 633.748925 467.157559 
L 634.987182 470.166359 
L 637.463697 475.214229 
L 638.701954 477.432287 
L 642.416726 483.14739 
L 643.654983 485.805662 
L 644.893241 489.214002 
L 647.369755 497.596053 
L 648.608012 500.519823 
L 649.84627 499.393183 
L 651.084527 490.861135 
L 652.322784 471.156648 
L 653.561041 436.089245 
L 654.799299 383.858614 
L 657.275813 262.502441 
L 658.51407 225.306821 
L 659.752328 216.197368 
L 660.990585 230.471905 
L 662.228842 257.175295 
L 663.4671 286.342779 
L 664.705357 312.28958 
L 665.943614 332.932609 
L 667.181871 348.442054 
L 668.420129 360.093923 
L 669.658386 369.425967 
L 670.896643 377.637108 
L 672.1349 384.865219 
L 673.373158 390.236656 
L 674.611415 393.126494 
L 675.849672 394.085804 
L 677.087929 394.757404 
L 678.326187 397.401453 
L 679.564444 403.465817 
L 683.279216 430.304068 
L 684.517473 436.680551 
L 685.75573 440.5588 
L 686.993988 441.760404 
L 688.232245 440.758125 
L 690.708759 436.828771 
L 691.947017 435.475688 
L 693.185274 435.935606 
L 694.423531 439.316182 
L 696.900046 450.661554 
L 698.138303 453.676397 
L 699.37656 453.179262 
L 700.614818 450.219674 
L 701.853075 446.831886 
L 703.091332 444.952338 
L 704.329589 445.445929 
L 705.567847 447.817469 
L 708.044361 454.436637 
L 709.282618 456.872611 
L 710.520876 457.783109 
L 711.759133 457.851878 
L 712.99739 458.539853 
L 714.235648 460.744156 
L 715.473905 464.601782 
L 716.712162 469.654456 
L 717.950419 474.025579 
L 719.188677 473.861691 
L 720.426934 464.134389 
L 721.665191 439.941558 
L 722.903448 398.290862 
L 724.141706 341.10519 
L 725.379963 278.261737 
L 726.61822 225.819965 
L 727.856477 197.472555 
L 729.094735 197.074555 
L 730.332992 218.440408 
L 732.809507 282.05833 
L 734.047764 308.294029 
L 735.286021 327.320043 
L 736.524278 340.062475 
L 737.762536 349.055748 
L 740.23905 365.287681 
L 741.477307 372.365588 
L 742.715565 376.44744 
L 743.953822 377.713311 
L 745.192079 378.624425 
L 746.430336 381.323274 
L 750.145108 394.482567 
L 752.621623 402.219208 
L 757.574652 418.946679 
L 760.051166 425.508292 
L 762.527681 431.664767 
L 763.765938 433.694137 
L 765.004195 433.901589 
L 767.48071 431.07216 
L 768.718967 430.988963 
L 769.957225 432.931711 
L 771.195482 436.359934 
L 772.433739 439.411879 
L 773.671996 438.516812 
L 774.910254 428.585939 
L 776.148511 404.805024 
L 777.386768 365.830915 
L 779.863283 273.001563 
L 781.10154 244.700763 
L 782.339797 236.971192 
L 783.578054 246.119377 
L 784.816312 265.923972 
L 787.292826 319.531466 
L 788.531084 345.693312 
L 789.769341 365.544861 
L 791.007598 376.012624 
L 792.245855 377.366936 
L 793.484113 373.409147 
L 794.72237 369.970316 
L 795.960627 372.159906 
L 797.198884 381.60012 
L 798.437142 396.329315 
L 799.675399 412.912251 
L 800.913656 427.667235 
L 802.151914 436.224634 
L 803.390171 433.150195 
L 804.628428 413.184604 
L 805.866685 373.860834 
L 809.581457 211.103263 
L 810.819714 184.852386 
L 812.057972 182.746814 
L 813.296229 199.908831 
L 817.011001 284.600966 
L 818.249258 303.881331 
L 819.487515 317.25441 
L 821.96403 338.396401 
L 823.202287 348.011218 
L 824.440544 355.070223 
L 826.917059 364.288558 
L 828.155316 371.476934 
L 830.631831 392.394272 
L 831.870088 397.874193 
L 833.108345 392.644317 
L 834.346602 372.886223 
L 835.58486 337.487786 
L 838.061374 241.77133 
L 839.299632 204.74056 
L 840.537889 187.622431 
L 841.776146 191.033037 
L 843.014403 209.518418 
L 844.252661 235.732481 
L 846.729175 292.359138 
L 847.967432 317.177767 
L 849.20569 335.981645 
L 850.443947 347.428397 
L 851.682204 352.373902 
L 852.920461 353.296603 
L 854.158719 353.022091 
L 855.396976 353.458977 
L 856.635233 355.144311 
L 857.873491 357.898935 
L 859.111748 361.680198 
L 860.350005 366.698046 
L 861.588262 373.236086 
L 862.82652 381.278012 
L 865.303034 398.617441 
L 866.541291 406.343213 
L 867.779549 413.141676 
L 869.017806 418.558603 
L 870.256063 421.98737 
L 871.49432 423.695212 
L 872.732578 424.819058 
L 873.970835 426.158077 
L 875.209092 427.777628 
L 876.44735 429.820655 
L 877.685607 432.779546 
L 878.923864 436.915097 
L 881.400379 447.541547 
L 882.638636 452.738391 
L 883.876893 456.60594 
L 885.11515 458.589043 
L 886.353408 458.903366 
L 887.591665 458.199276 
L 888.829922 457.121918 
L 890.06818 455.303203 
L 891.306437 450.223839 
L 892.544694 437.725224 
L 893.782951 413.439969 
L 895.021209 374.505292 
L 897.497723 271.198503 
L 898.73598 231.960959 
L 899.974238 214.661982 
L 901.212495 219.077112 
L 902.450752 238.755329 
L 904.927267 291.761424 
L 906.165524 310.408558 
L 907.403781 314.436646 
L 908.642039 298.796559 
L 909.880296 264.258369 
L 911.118553 220.80108 
L 912.35681 184.484066 
L 913.595068 167.496051 
L 914.833325 172.230692 
L 916.071582 193.901605 
L 919.786354 287.542582 
L 921.024611 306.344794 
L 922.262868 310.732215 
L 923.501126 298.175247 
L 924.739383 269.623658 
L 927.215898 195.850037 
L 928.454155 173.214415 
L 929.692412 169.480124 
L 930.930669 183.150759 
L 934.645441 253.902617 
L 935.883698 270.359114 
L 937.121956 283.347943 
L 938.360213 294.157117 
L 939.59847 302.589992 
L 940.836727 307.359584 
L 942.074985 308.196574 
L 943.313242 308.082778 
L 944.551499 311.985 
L 945.789757 322.088621 
L 948.266271 349.451769 
L 949.504528 360.975758 
L 950.742786 370.392521 
L 951.981043 378.334272 
L 953.2193 384.767447 
L 954.457557 388.993103 
L 955.695815 391.143085 
L 958.172329 393.563873 
L 959.410586 395.066631 
L 960.648844 397.139226 
L 963.125358 402.558768 
L 964.363616 403.727951 
L 965.601873 402.630845 
L 966.84013 400.510061 
L 968.078387 399.669124 
L 969.316645 401.373786 
L 970.554902 405.279949 
L 974.269674 420.663825 
L 975.507931 423.755901 
L 976.746188 424.465519 
L 979.222703 422.281777 
L 980.46096 422.187126 
L 981.699217 423.433899 
L 982.937475 426.178988 
L 985.413989 434.254203 
L 986.652246 437.327806 
L 987.890504 438.929896 
L 989.128761 439.380614 
L 991.605275 439.470142 
L 992.843533 439.204242 
L 994.08179 437.798433 
L 995.320047 435.542656 
L 996.558305 433.682689 
L 999.034819 431.485966 
L 1000.273076 429.21786 
L 1002.749591 422.083799 
L 1003.987848 420.16129 
L 1005.226105 421.120066 
L 1006.464363 424.725087 
L 1008.940877 434.795786 
L 1010.179134 436.534398 
L 1011.417392 430.469993 
L 1012.655649 412.173936 
L 1013.893906 379.250905 
L 1015.132164 332.035603 
L 1017.608678 224.041878 
L 1018.846935 190.941754 
L 1020.085193 183.426905 
L 1021.32345 197.44203 
L 1022.561707 223.710951 
L 1023.799964 253.414212 
L 1025.038222 280.324572 
L 1026.276479 300.946919 
L 1027.514736 314.577449 
L 1028.752993 323.197896 
L 1031.229508 337.318338 
L 1033.706023 353.710415 
L 1034.94428 360.683608 
L 1036.182537 366.046439 
L 1037.420794 370.749964 
L 1038.659052 375.890333 
L 1042.373823 392.866282 
L 1043.612081 397.90167 
L 1044.850338 402.257581 
L 1046.088595 405.840065 
L 1047.326852 408.274435 
L 1048.56511 408.797864 
L 1049.803367 407.071201 
L 1051.041624 404.015934 
L 1052.279882 401.455041 
L 1053.518139 400.979931 
L 1054.756396 403.479667 
L 1055.994653 409.316645 
L 1057.232911 418.189533 
L 1058.471168 428.586582 
L 1059.709425 437.808923 
L 1060.947682 443.326067 
L 1062.18594 444.420772 
L 1063.424197 442.39332 
L 1064.662454 439.553387 
L 1065.900711 438.243154 
L 1067.138969 439.481989 
L 1068.377226 441.68065 
L 1069.615483 441.095558 
L 1070.853741 432.946439 
L 1072.091998 411.788661 
L 1073.330255 372.721835 
L 1074.568512 314.704766 
L 1077.045027 178.945309 
L 1078.283284 134.049837 
L 1079.521541 116.988629 
L 1080.759799 123.365563 
L 1081.998056 143.828995 
L 1086.951085 246.081887 
L 1091.904114 339.290675 
L 1093.142371 354.418578 
L 1094.380629 363.422241 
L 1095.618886 367.219231 
L 1096.857143 366.962634 
L 1098.0954 363.975989 
L 1099.333658 360.02889 
L 1100.571915 356.725605 
L 1101.810172 355.01305 
L 1103.04843 355.188377 
L 1104.286687 356.991786 
L 1105.524944 359.841689 
L 1109.239716 370.005441 
L 1110.477973 373.923753 
L 1112.954488 382.726514 
L 1114.192745 385.565782 
L 1115.431002 387.5907 
L 1116.669259 390.364917 
L 1117.907517 394.707667 
L 1119.145774 399.699408 
L 1120.384031 403.383773 
L 1121.622289 404.948124 
L 1122.860546 405.881484 
L 1124.098803 408.135622 
L 1127.813575 419.580226 
L 1129.051832 422.388761 
L 1130.290089 423.130828 
L 1131.528347 420.807249 
L 1134.004861 410.614994 
L 1135.243118 407.748638 
L 1136.481376 408.509378 
L 1137.719633 412.08985 
L 1140.196148 422.601937 
L 1141.434405 426.510651 
L 1142.672662 427.184428 
L 1143.910919 424.108487 
L 1146.387434 412.58535 
L 1147.625691 408.407092 
L 1148.863948 406.725273 
L 1150.102206 407.876872 
L 1151.340463 411.862618 
L 1155.055235 429.956337 
L 1156.293492 434.077855 
L 1157.531749 435.932383 
L 1158.770007 435.588829 
L 1160.008264 433.964268 
L 1161.246521 431.787647 
L 1162.484778 428.731171 
L 1163.723036 424.868282 
L 1164.961293 422.143001 
L 1166.19955 422.54137 
L 1167.437807 425.533998 
L 1168.676065 428.962366 
L 1169.914322 431.670975 
L 1171.152579 433.76749 
L 1172.390837 435.262539 
L 1173.629094 435.852653 
L 1174.867351 435.503019 
L 1176.105608 434.818531 
L 1177.343866 434.882057 
L 1178.582123 436.451012 
L 1179.82038 439.30886 
L 1181.058637 441.838073 
L 1182.296895 440.686798 
L 1183.535152 431.443787 
L 1184.773409 409.852687 
L 1186.011666 372.950465 
L 1189.726438 224.507547 
L 1190.964696 205.999541 
L 1192.202953 211.365044 
L 1193.44121 230.789146 
L 1194.679467 253.875655 
L 1195.917725 274.84505 
L 1197.155982 292.16375 
L 1198.394239 306.178187 
L 1199.632496 316.960832 
L 1200.870754 322.940372 
L 1202.109011 320.488413 
L 1203.347268 304.406483 
L 1204.585525 270.561133 
L 1207.06204 167.504624 
L 1208.300297 127.673867 
L 1209.538555 113.764958 
L 1210.776812 124.682517 
L 1212.015069 149.656538 
L 1213.253326 177.973704 
L 1214.491584 203.685168 
L 1215.729841 224.123805 
L 1216.968098 238.485859 
L 1218.206355 248.211741 
L 1219.444613 256.395448 
L 1220.68287 265.979326 
L 1221.921127 278.312244 
L 1224.397642 305.417245 
L 1225.635899 314.92418 
L 1226.874156 320.461772 
L 1228.112414 323.158537 
L 1229.350671 325.56874 
L 1230.588928 331.083864 
L 1231.827185 341.033512 
L 1233.065443 352.901519 
L 1234.3037 362.642361 
L 1235.541957 368.280894 
L 1236.780214 370.855196 
L 1238.018472 372.524429 
L 1239.256729 374.757658 
L 1240.494986 378.151991 
L 1241.733243 382.926287 
L 1242.971501 389.121043 
L 1244.209758 396.120323 
L 1245.448015 402.358581 
L 1246.686273 406.608529 
L 1247.92453 409.277518 
L 1250.401044 413.921382 
L 1251.639302 416.489726 
L 1252.877559 418.545914 
L 1254.115816 418.935533 
L 1256.592331 416.475293 
L 1257.830588 417.144581 
L 1259.068845 419.171693 
L 1260.307103 420.533443 
L 1261.54536 419.844658 
L 1262.783617 417.630667 
L 1264.021874 415.67368 
L 1265.260132 415.229568 
L 1266.498389 415.608792 
L 1267.736646 414.991669 
L 1270.213161 411.085567 
L 1271.451418 411.149437 
L 1272.689675 412.995463 
L 1273.927932 415.333444 
L 1275.16619 417.287056 
L 1276.404447 418.692523 
L 1277.642704 419.310318 
L 1278.880962 418.412896 
L 1280.119219 415.352329 
L 1281.357476 410.246201 
L 1282.595733 404.481941 
L 1283.833991 400.704932 
L 1285.072248 401.150075 
L 1286.310505 405.626998 
L 1288.78702 418.166359 
L 1290.025277 422.727038 
L 1291.263534 425.058769 
L 1292.501791 425.34303 
L 1293.740049 423.851964 
L 1294.978306 420.590786 
L 1296.216563 415.891308 
L 1297.454821 410.265527 
L 1299.931335 397.782357 
L 1301.169592 392.78207 
L 1302.40785 389.379451 
L 1303.646107 387.911814 
L 1304.884364 389.690266 
L 1306.122621 395.714807 
L 1309.837393 422.865215 
L 1311.07565 426.884723 
L 1312.313908 426.341619 
L 1313.552165 421.909421 
L 1314.790422 415.679046 
L 1316.02868 410.844374 
L 1317.266937 410.332937 
L 1318.505194 414.890638 
L 1319.743451 422.812358 
L 1322.219966 439.896274 
L 1323.458223 445.907381 
L 1324.69648 448.385295 
L 1325.934738 446.970311 
L 1327.172995 443.137712 
L 1329.649509 434.315757 
L 1330.887767 426.109104 
L 1332.126024 407.880881 
L 1333.364281 372.782828 
L 1334.602539 319.1858 
L 1335.840796 255.40456 
L 1337.079053 198.100364 
L 1338.31731 163.332842 
L 1339.555568 156.810273 
L 1340.793825 172.422634 
L 1345.746854 278.010965 
L 1348.223368 320.958127 
L 1349.461626 338.361585 
L 1350.699883 351.982767 
L 1351.93814 362.166003 
L 1353.176398 369.992053 
L 1355.652912 383.433231 
L 1356.891169 387.443576 
L 1358.129427 382.889804 
L 1359.367684 362.912515 
L 1360.605941 323.207462 
L 1361.844198 264.717567 
L 1364.320713 133.502465 
L 1365.55897 92.353477 
L 1366.797228 80.177971 
L 1368.035485 94.083536 
L 1369.273742 125.390791 
L 1371.750257 203.001792 
L 1372.988514 235.10155 
L 1374.226771 258.691847 
L 1375.465028 274.365149 
L 1376.703286 282.421653 
L 1377.941543 280.196996 
L 1379.1798 262.238565 
L 1380.418057 224.312427 
L 1382.894572 110.047558 
L 1384.132829 65.214366 
L 1385.371087 47.979282 
L 1386.609344 59.785571 
L 1387.847601 92.103181 
L 1390.324116 170.354495 
L 1391.562373 200.558119 
L 1392.80063 221.521151 
L 1394.038887 234.505738 
L 1395.277145 242.830551 
L 1396.515402 249.940767 
L 1397.753659 257.812104 
L 1398.991916 266.442245 
L 1400.230174 273.858004 
L 1401.468431 277.967766 
L 1402.706688 279.5563 
L 1403.944946 282.073395 
L 1405.183203 287.960666 
L 1407.659717 306.019392 
L 1410.136232 323.195481 
L 1412.612746 338.079795 
L 1415.089261 350.688257 
L 1418.804033 371.84271 
L 1420.04229 373.868057 
L 1421.280547 371.106498 
L 1422.518805 365.730706 
L 1423.757062 361.573641 
L 1424.995319 361.655529 
L 1426.233576 365.726092 
L 1427.471834 370.996496 
L 1428.710091 375.238198 
L 1429.948348 377.932359 
L 1431.186605 379.045751 
L 1432.424863 378.539521 
L 1433.66312 377.229846 
L 1434.901377 377.202525 
L 1436.139634 380.723336 
L 1437.377892 387.932301 
L 1438.616149 395.989619 
L 1439.854406 401.557673 
L 1441.092664 403.694351 
L 1442.330921 403.91806 
L 1443.569178 404.000551 
L 1444.807435 404.442457 
L 1446.045693 405.282177 
L 1447.28395 407.00585 
L 1448.522207 409.789882 
L 1449.760464 412.910116 
L 1450.998722 415.479612 
L 1452.236979 417.125877 
L 1453.475236 417.763084 
L 1454.713494 417.142778 
L 1455.951751 414.707901 
L 1457.190008 409.806819 
L 1458.428265 402.346727 
L 1459.666523 393.661236 
L 1460.90478 386.611197 
L 1462.143037 383.897057 
L 1463.381294 385.770619 
L 1465.857809 394.072519 
L 1467.096066 396.881173 
L 1468.334323 398.61036 
L 1469.572581 399.826764 
L 1470.810838 400.551555 
L 1472.049095 400.149839 
L 1474.52561 396.976381 
L 1475.763867 397.372139 
L 1477.002124 399.898664 
L 1478.240382 403.631904 
L 1480.716896 411.8931 
L 1481.955153 413.067417 
L 1483.193411 409.154766 
L 1484.431668 400.10975 
L 1486.908182 376.987423 
L 1488.14644 368.888503 
L 1489.384697 365.143758 
L 1490.622954 365.84357 
L 1491.861212 370.686834 
L 1493.099469 378.730094 
L 1494.337726 387.888253 
L 1495.575983 395.428808 
L 1496.814241 399.730706 
L 1498.052498 401.496417 
L 1499.290755 402.424041 
L 1500.529012 403.032932 
L 1501.76727 402.423478 
L 1504.243784 398.195579 
L 1505.482041 398.355288 
L 1506.720299 400.491612 
L 1507.958556 402.375928 
L 1509.196813 401.90094 
L 1510.435071 398.44659 
L 1512.911585 387.359522 
L 1514.149842 382.957481 
L 1515.3881 379.994093 
L 1516.626357 378.399856 
L 1517.864614 379.378772 
L 1519.102871 384.815306 
L 1521.579386 405.111035 
L 1522.817643 411.761444 
L 1524.0559 410.216003 
L 1525.294158 396.606581 
L 1526.532415 367.194168 
L 1527.770672 320.029218 
L 1530.247187 197.86189 
L 1531.485444 153.729323 
L 1532.723701 136.700241 
L 1533.961959 143.464486 
L 1535.200216 163.839534 
L 1537.67673 213.278472 
L 1538.914988 234.16392 
L 1540.153245 250.992197 
L 1541.391502 264.71385 
L 1542.62976 276.375161 
L 1545.106274 297.365876 
L 1548.821046 332.453414 
L 1550.059303 341.587168 
L 1551.29756 347.691232 
L 1552.535818 350.281654 
L 1553.774075 349.802642 
L 1555.012332 347.77574 
L 1556.250589 346.744834 
L 1557.488847 348.974501 
L 1559.965361 360.033598 
L 1561.203619 363.534081 
L 1562.441876 364.413368 
L 1563.680133 364.956091 
L 1564.91839 367.122567 
L 1567.394905 373.546674 
L 1569.871419 378.868184 
L 1571.109677 382.090695 
L 1572.347934 386.943347 
L 1573.586191 392.779486 
L 1574.824448 395.211603 
L 1576.062706 387.280365 
L 1577.300963 363.610271 
L 1578.53922 324.761132 
L 1579.777478 279.032569 
L 1581.015735 239.197752 
L 1582.253992 214.509511 
L 1583.492249 205.451833 
L 1584.730507 207.292311 
L 1585.968764 216.027387 
L 1587.207021 229.265109 
L 1589.683536 261.67116 
L 1593.398307 313.173093 
L 1594.636565 324.375915 
L 1595.874822 329.614928 
L 1597.113079 329.294837 
L 1598.351337 325.53539 
L 1599.589594 321.387922 
L 1600.827851 319.15348 
L 1602.066108 319.287006 
L 1603.304366 320.953569 
L 1605.78088 325.671691 
L 1607.019137 328.427614 
L 1608.257395 331.819249 
L 1609.495652 335.607748 
L 1610.733909 338.949237 
L 1611.972166 341.36742 
L 1614.448681 345.449715 
L 1615.686938 347.526665 
L 1616.925196 348.543206 
L 1618.163453 347.929665 
L 1619.40171 346.02253 
L 1620.639967 343.824191 
L 1621.878225 342.737725 
L 1623.116482 343.800464 
L 1624.354739 347.345586 
L 1625.592996 353.765679 
L 1626.831254 363.21479 
L 1628.069511 374.024156 
L 1629.307768 382.892735 
L 1630.546026 387.287483 
L 1631.784283 387.071978 
L 1633.02254 384.062372 
L 1634.260797 380.753882 
L 1635.499055 378.953777 
L 1636.737312 378.689139 
L 1637.975569 378.202794 
L 1639.213826 374.68419 
L 1640.452084 365.831161 
L 1641.690341 352.484761 
L 1641.690341 352.484761 
" style="fill:none;stroke:#008000;stroke-linecap:square;stroke-width:1.5;"/>
   </g>
   <g id="patch_3">
    <path d="M 43.78125 586.86358 
L 43.78125 22.318125 
" style="fill:none;stroke:#000000;stroke-linecap:square;stroke-linejoin:miter;stroke-width:0.8;"/>
   </g>
   <g id="patch_4">
    <path d="M 1717.78125 586.86358 
L 1717.78125 22.318125 
" style="fill:none;stroke:#000000;stroke-linecap:square;stroke-linejoin:miter;stroke-width:0.8;"/>
   </g>
   <g id="patch_5">
    <path d="M 43.78125 586.86358 
L 1717.78125 586.86358 
" style="fill:none;stroke:#000000;stroke-linecap:square;stroke-linejoin:miter;stroke-width:0.8;"/>
   </g>
   <g id="patch_6">
    <path d="M 43.78125 22.318125 
L 1717.78125 22.318125 
" style="fill:none;stroke:#000000;stroke-linecap:square;stroke-linejoin:miter;stroke-width:0.8;"/>
   </g>
   <g id="text_18">
    <!-- before binarisation -->
    <g transform="translate(824.1825 16.318125)scale(0.12 -0.12)">
     <defs>
      <path d="M 3116 1747 
Q 3116 2381 2855 2742 
Q 2594 3103 2138 3103 
Q 1681 3103 1420 2742 
Q 1159 2381 1159 1747 
Q 1159 1113 1420 752 
Q 1681 391 2138 391 
Q 2594 391 2855 752 
Q 3116 1113 3116 1747 
z
M 1159 2969 
Q 1341 3281 1617 3432 
Q 1894 3584 2278 3584 
Q 2916 3584 3314 3078 
Q 3713 2572 3713 1747 
Q 3713 922 3314 415 
Q 2916 -91 2278 -91 
Q 1894 -91 1617 61 
Q 1341 213 1159 525 
L 1159 0 
L 581 0 
L 581 4863 
L 1159 4863 
L 1159 2969 
z
" id="DejaVuSans-62" transform="scale(0.015625)"/>
      <path d="M 1959 3097 
Q 1497 3097 1228 2736 
Q 959 2375 959 1747 
Q 959 1119 1226 758 
Q 1494 397 1959 397 
Q 2419 397 2687 759 
Q 2956 1122 2956 1747 
Q 2956 2369 2687 2733 
Q 2419 3097 1959 3097 
z
M 1959 3584 
Q 2709 3584 3137 3096 
Q 3566 2609 3566 1747 
Q 3566 888 3137 398 
Q 2709 -91 1959 -91 
Q 1206 -91 779 398 
Q 353 888 353 1747 
Q 353 2609 779 3096 
Q 1206 3584 1959 3584 
z
" id="DejaVuSans-6f" transform="scale(0.015625)"/>
      <path id="DejaVuSans-20" transform="scale(0.015625)"/>
      <path d="M 603 3500 
L 1178 3500 
L 1178 0 
L 603 0 
L 603 3500 
z
M 603 4863 
L 1178 4863 
L 1178 4134 
L 603 4134 
L 603 4863 
z
" id="DejaVuSans-69" transform="scale(0.015625)"/>
      <path d="M 3513 2113 
L 3513 0 
L 2938 0 
L 2938 2094 
Q 2938 2591 2744 2837 
Q 2550 3084 2163 3084 
Q 1697 3084 1428 2787 
Q 1159 2491 1159 1978 
L 1159 0 
L 581 0 
L 581 3500 
L 1159 3500 
L 1159 2956 
Q 1366 3272 1645 3428 
Q 1925 3584 2291 3584 
Q 2894 3584 3203 3211 
Q 3513 2838 3513 2113 
z
" id="DejaVuSans-6e" transform="scale(0.015625)"/>
      <path d="M 2834 3397 
L 2834 2853 
Q 2591 2978 2328 3040 
Q 2066 3103 1784 3103 
Q 1356 3103 1142 2972 
Q 928 2841 928 2578 
Q 928 2378 1081 2264 
Q 1234 2150 1697 2047 
L 1894 2003 
Q 2506 1872 2764 1633 
Q 3022 1394 3022 966 
Q 3022 478 2636 193 
Q 2250 -91 1575 -91 
Q 1294 -91 989 -36 
Q 684 19 347 128 
L 347 722 
Q 666 556 975 473 
Q 1284 391 1588 391 
Q 1994 391 2212 530 
Q 2431 669 2431 922 
Q 2431 1156 2273 1281 
Q 2116 1406 1581 1522 
L 1381 1569 
Q 847 1681 609 1914 
Q 372 2147 372 2553 
Q 372 3047 722 3315 
Q 1072 3584 1716 3584 
Q 2034 3584 2315 3537 
Q 2597 3491 2834 3397 
z
" id="DejaVuSans-73" transform="scale(0.015625)"/>
      <path d="M 1172 4494 
L 1172 3500 
L 2356 3500 
L 2356 3053 
L 1172 3053 
L 1172 1153 
Q 1172 725 1289 603 
Q 1406 481 1766 481 
L 2356 481 
L 2356 0 
L 1766 0 
Q 1100 0 847 248 
Q 594 497 594 1153 
L 594 3053 
L 172 3053 
L 172 3500 
L 594 3500 
L 594 4494 
L 1172 4494 
z
" id="DejaVuSans-74" transform="scale(0.015625)"/>
     </defs>
     <use xlink:href="#DejaVuSans-62"/>
     <use x="63.476562" xlink:href="#DejaVuSans-65"/>
     <use x="125" xlink:href="#DejaVuSans-66"/>
     <use x="160.205078" xlink:href="#DejaVuSans-6f"/>
     <use x="221.386719" xlink:href="#DejaVuSans-72"/>
     <use x="260.25" xlink:href="#DejaVuSans-65"/>
     <use x="321.773438" xlink:href="#DejaVuSans-20"/>
     <use x="353.560547" xlink:href="#DejaVuSans-62"/>
     <use x="417.037109" xlink:href="#DejaVuSans-69"/>
     <use x="444.820312" xlink:href="#DejaVuSans-6e"/>
     <use x="508.199219" xlink:href="#DejaVuSans-61"/>
     <use x="569.478516" xlink:href="#DejaVuSans-72"/>
     <use x="610.591797" xlink:href="#DejaVuSans-69"/>
     <use x="638.375" xlink:href="#DejaVuSans-73"/>
     <use x="690.474609" xlink:href="#DejaVuSans-61"/>
     <use x="751.753906" xlink:href="#DejaVuSans-74"/>
     <use x="790.962891" xlink:href="#DejaVuSans-69"/>
     <use x="818.746094" xlink:href="#DejaVuSans-6f"/>
     <use x="879.927734" xlink:href="#DejaVuSans-6e"/>
    </g>
   </g>
  </g>
  <g id="axes_2">
   <g id="patch_7">
    <path d="M 43.78125 1264.318125 
L 1717.78125 1264.318125 
L 1717.78125 699.77267 
L 43.78125 699.77267 
z
" style="fill:#ffffff;"/>
   </g>
   <g id="matplotlib.axis_3">
    <g id="xtick_8">
     <g id="line2d_17">
      <g>
       <use style="stroke:#000000;stroke-width:0.8;" x="119.872159" xlink:href="#m4d6421f97f" y="1264.318125"/>
      </g>
     </g>
     <g id="text_19">
      <!-- 0 -->
      <g transform="translate(116.690909 1278.916563)scale(0.1 -0.1)">
       <use xlink:href="#DejaVuSans-30"/>
      </g>
     </g>
    </g>
    <g id="xtick_9">
     <g id="line2d_18">
      <g>
       <use style="stroke:#000000;stroke-width:0.8;" x="367.523613" xlink:href="#m4d6421f97f" y="1264.318125"/>
      </g>
     </g>
     <g id="text_20">
      <!-- 200 -->
      <g transform="translate(357.979863 1278.916563)scale(0.1 -0.1)">
       <use xlink:href="#DejaVuSans-32"/>
       <use x="63.623047" xlink:href="#DejaVuSans-30"/>
       <use x="127.246094" xlink:href="#DejaVuSans-30"/>
      </g>
     </g>
    </g>
    <g id="xtick_10">
     <g id="line2d_19">
      <g>
       <use style="stroke:#000000;stroke-width:0.8;" x="615.175066" xlink:href="#m4d6421f97f" y="1264.318125"/>
      </g>
     </g>
     <g id="text_21">
      <!-- 400 -->
      <g transform="translate(605.631316 1278.916563)scale(0.1 -0.1)">
       <use xlink:href="#DejaVuSans-34"/>
       <use x="63.623047" xlink:href="#DejaVuSans-30"/>
       <use x="127.246094" xlink:href="#DejaVuSans-30"/>
      </g>
     </g>
    </g>
    <g id="xtick_11">
     <g id="line2d_20">
      <g>
       <use style="stroke:#000000;stroke-width:0.8;" x="862.82652" xlink:href="#m4d6421f97f" y="1264.318125"/>
      </g>
     </g>
     <g id="text_22">
      <!-- 600 -->
      <g transform="translate(853.28277 1278.916563)scale(0.1 -0.1)">
       <use xlink:href="#DejaVuSans-36"/>
       <use x="63.623047" xlink:href="#DejaVuSans-30"/>
       <use x="127.246094" xlink:href="#DejaVuSans-30"/>
      </g>
     </g>
    </g>
    <g id="xtick_12">
     <g id="line2d_21">
      <g>
       <use style="stroke:#000000;stroke-width:0.8;" x="1110.477973" xlink:href="#m4d6421f97f" y="1264.318125"/>
      </g>
     </g>
     <g id="text_23">
      <!-- 800 -->
      <g transform="translate(1100.934223 1278.916563)scale(0.1 -0.1)">
       <use xlink:href="#DejaVuSans-38"/>
       <use x="63.623047" xlink:href="#DejaVuSans-30"/>
       <use x="127.246094" xlink:href="#DejaVuSans-30"/>
      </g>
     </g>
    </g>
    <g id="xtick_13">
     <g id="line2d_22">
      <g>
       <use style="stroke:#000000;stroke-width:0.8;" x="1358.129427" xlink:href="#m4d6421f97f" y="1264.318125"/>
      </g>
     </g>
     <g id="text_24">
      <!-- 1000 -->
      <g transform="translate(1345.404427 1278.916563)scale(0.1 -0.1)">
       <use xlink:href="#DejaVuSans-31"/>
       <use x="63.623047" xlink:href="#DejaVuSans-30"/>
       <use x="127.246094" xlink:href="#DejaVuSans-30"/>
       <use x="190.869141" xlink:href="#DejaVuSans-30"/>
      </g>
     </g>
    </g>
    <g id="xtick_14">
     <g id="line2d_23">
      <g>
       <use style="stroke:#000000;stroke-width:0.8;" x="1605.78088" xlink:href="#m4d6421f97f" y="1264.318125"/>
      </g>
     </g>
     <g id="text_25">
      <!-- 1200 -->
      <g transform="translate(1593.05588 1278.916563)scale(0.1 -0.1)">
       <use xlink:href="#DejaVuSans-31"/>
       <use x="63.623047" xlink:href="#DejaVuSans-32"/>
       <use x="127.246094" xlink:href="#DejaVuSans-30"/>
       <use x="190.869141" xlink:href="#DejaVuSans-30"/>
      </g>
     </g>
    </g>
    <g id="text_26">
     <!-- frame -->
     <g transform="translate(865.954687 1292.594688)scale(0.1 -0.1)">
      <use xlink:href="#DejaVuSans-66"/>
      <use x="35.205078" xlink:href="#DejaVuSans-72"/>
      <use x="76.318359" xlink:href="#DejaVuSans-61"/>
      <use x="137.597656" xlink:href="#DejaVuSans-6d"/>
      <use x="235.009766" xlink:href="#DejaVuSans-65"/>
     </g>
    </g>
   </g>
   <g id="matplotlib.axis_4">
    <g id="ytick_9">
     <g id="line2d_24">
      <g>
       <use style="stroke:#000000;stroke-width:0.8;" x="43.78125" xlink:href="#m529fc0e293" y="1238.656968"/>
      </g>
     </g>
     <g id="text_27">
      <!-- 0.0 -->
      <g transform="translate(20.878125 1242.456187)scale(0.1 -0.1)">
       <use xlink:href="#DejaVuSans-30"/>
       <use x="63.623047" xlink:href="#DejaVuSans-2e"/>
       <use x="95.410156" xlink:href="#DejaVuSans-30"/>
      </g>
     </g>
    </g>
    <g id="ytick_10">
     <g id="line2d_25">
      <g>
       <use style="stroke:#000000;stroke-width:0.8;" x="43.78125" xlink:href="#m529fc0e293" y="1136.01234"/>
      </g>
     </g>
     <g id="text_28">
      <!-- 0.2 -->
      <g transform="translate(20.878125 1139.811559)scale(0.1 -0.1)">
       <use xlink:href="#DejaVuSans-30"/>
       <use x="63.623047" xlink:href="#DejaVuSans-2e"/>
       <use x="95.410156" xlink:href="#DejaVuSans-32"/>
      </g>
     </g>
    </g>
    <g id="ytick_11">
     <g id="line2d_26">
      <g>
       <use style="stroke:#000000;stroke-width:0.8;" x="43.78125" xlink:href="#m529fc0e293" y="1033.367712"/>
      </g>
     </g>
     <g id="text_29">
      <!-- 0.4 -->
      <g transform="translate(20.878125 1037.166931)scale(0.1 -0.1)">
       <use xlink:href="#DejaVuSans-30"/>
       <use x="63.623047" xlink:href="#DejaVuSans-2e"/>
       <use x="95.410156" xlink:href="#DejaVuSans-34"/>
      </g>
     </g>
    </g>
    <g id="ytick_12">
     <g id="line2d_27">
      <g>
       <use style="stroke:#000000;stroke-width:0.8;" x="43.78125" xlink:href="#m529fc0e293" y="930.723084"/>
      </g>
     </g>
     <g id="text_30">
      <!-- 0.6 -->
      <g transform="translate(20.878125 934.522302)scale(0.1 -0.1)">
       <use xlink:href="#DejaVuSans-30"/>
       <use x="63.623047" xlink:href="#DejaVuSans-2e"/>
       <use x="95.410156" xlink:href="#DejaVuSans-36"/>
      </g>
     </g>
    </g>
    <g id="ytick_13">
     <g id="line2d_28">
      <g>
       <use style="stroke:#000000;stroke-width:0.8;" x="43.78125" xlink:href="#m529fc0e293" y="828.078456"/>
      </g>
     </g>
     <g id="text_31">
      <!-- 0.8 -->
      <g transform="translate(20.878125 831.877674)scale(0.1 -0.1)">
       <use xlink:href="#DejaVuSans-30"/>
       <use x="63.623047" xlink:href="#DejaVuSans-2e"/>
       <use x="95.410156" xlink:href="#DejaVuSans-38"/>
      </g>
     </g>
    </g>
    <g id="ytick_14">
     <g id="line2d_29">
      <g>
       <use style="stroke:#000000;stroke-width:0.8;" x="43.78125" xlink:href="#m529fc0e293" y="725.433827"/>
      </g>
     </g>
     <g id="text_32">
      <!-- 1.0 -->
      <g transform="translate(20.878125 729.233046)scale(0.1 -0.1)">
       <use xlink:href="#DejaVuSans-31"/>
       <use x="63.623047" xlink:href="#DejaVuSans-2e"/>
       <use x="95.410156" xlink:href="#DejaVuSans-30"/>
      </g>
     </g>
    </g>
    <g id="text_33">
     <!-- GCaMP -->
     <g transform="translate(14.798437 999.803991)rotate(-90)scale(0.1 -0.1)">
      <use xlink:href="#DejaVuSans-47"/>
      <use x="77.490234" xlink:href="#DejaVuSans-43"/>
      <use x="147.314453" xlink:href="#DejaVuSans-61"/>
      <use x="208.59375" xlink:href="#DejaVuSans-4d"/>
      <use x="294.873047" xlink:href="#DejaVuSans-50"/>
     </g>
    </g>
   </g>
   <g id="line2d_30">
    <path clip-path="url(#p003af687bf)" d="M 119.872159 1238.656968 
L 148.352076 1238.656968 
L 149.590334 725.433827 
L 166.925935 725.433827 
L 168.164193 1238.656968 
L 452.963364 1238.656968 
L 454.201621 725.433827 
L 456.678136 725.433827 
L 457.916393 1238.656968 
L 472.77548 1238.656968 
L 474.013738 725.433827 
L 480.205024 725.433827 
L 481.443281 1238.656968 
L 485.158053 1238.656968 
L 486.39631 725.433827 
L 498.778883 725.433827 
L 500.01714 1238.656968 
L 502.493655 1238.656968 
L 503.731912 725.433827 
L 582.980377 725.433827 
L 584.218634 1238.656968 
L 657.275813 1238.656968 
L 658.51407 725.433827 
L 660.990585 725.433827 
L 662.228842 1238.656968 
L 725.379963 1238.656968 
L 726.61822 725.433827 
L 731.571249 725.433827 
L 732.809507 1238.656968 
L 779.863283 1238.656968 
L 781.10154 725.433827 
L 783.578054 725.433827 
L 784.816312 1238.656968 
L 808.3432 1238.656968 
L 809.581457 725.433827 
L 814.534486 725.433827 
L 815.772743 1238.656968 
L 836.823117 1238.656968 
L 838.061374 725.433827 
L 844.252661 725.433827 
L 845.490918 1238.656968 
L 897.497723 1238.656968 
L 898.73598 725.433827 
L 902.450752 725.433827 
L 903.689009 1238.656968 
L 909.880296 1238.656968 
L 911.118553 725.433827 
L 917.309839 725.433827 
L 918.548097 1238.656968 
L 924.739383 1238.656968 
L 925.97764 725.433827 
L 934.645441 725.433827 
L 935.883698 1238.656968 
L 1016.370421 1238.656968 
L 1017.608678 725.433827 
L 1023.799964 725.433827 
L 1025.038222 1238.656968 
L 1074.568512 1238.656968 
L 1075.80677 725.433827 
L 1086.951085 725.433827 
L 1088.189342 1238.656968 
L 1188.488181 1238.656968 
L 1189.726438 725.433827 
L 1194.679467 725.433827 
L 1195.917725 1238.656968 
L 1204.585525 1238.656968 
L 1205.823783 725.433827 
L 1218.206355 725.433827 
L 1219.444613 1238.656968 
L 1334.602539 1238.656968 
L 1335.840796 725.433827 
L 1344.508597 725.433827 
L 1345.746854 1238.656968 
L 1361.844198 1238.656968 
L 1363.082456 725.433827 
L 1372.988514 725.433827 
L 1374.226771 1238.656968 
L 1379.1798 1238.656968 
L 1380.418057 725.433827 
L 1396.515402 725.433827 
L 1397.753659 1238.656968 
L 1529.00893 1238.656968 
L 1530.247187 725.433827 
L 1540.153245 725.433827 
L 1541.391502 1238.656968 
L 1579.777478 1238.656968 
L 1581.015735 725.433827 
L 1588.445278 725.433827 
L 1589.683536 1238.656968 
L 1641.690341 1238.656968 
L 1641.690341 1238.656968 
" style="fill:none;stroke:#008000;stroke-linecap:square;stroke-width:1.5;"/>
   </g>
   <g id="patch_8">
    <path d="M 43.78125 1264.318125 
L 43.78125 699.77267 
" style="fill:none;stroke:#000000;stroke-linecap:square;stroke-linejoin:miter;stroke-width:0.8;"/>
   </g>
   <g id="patch_9">
    <path d="M 1717.78125 1264.318125 
L 1717.78125 699.77267 
" style="fill:none;stroke:#000000;stroke-linecap:square;stroke-linejoin:miter;stroke-width:0.8;"/>
   </g>
   <g id="patch_10">
    <path d="M 43.78125 1264.318125 
L 1717.78125 1264.318125 
" style="fill:none;stroke:#000000;stroke-linecap:square;stroke-linejoin:miter;stroke-width:0.8;"/>
   </g>
   <g id="patch_11">
    <path d="M 43.78125 699.77267 
L 1717.78125 699.77267 
" style="fill:none;stroke:#000000;stroke-linecap:square;stroke-linejoin:miter;stroke-width:0.8;"/>
   </g>
   <g id="text_34">
    <!-- before binarisation -->
    <g transform="translate(824.1825 693.77267)scale(0.12 -0.12)">
     <use xlink:href="#DejaVuSans-62"/>
     <use x="63.476562" xlink:href="#DejaVuSans-65"/>
     <use x="125" xlink:href="#DejaVuSans-66"/>
     <use x="160.205078" xlink:href="#DejaVuSans-6f"/>
     <use x="221.386719" xlink:href="#DejaVuSans-72"/>
     <use x="260.25" xlink:href="#DejaVuSans-65"/>
     <use x="321.773438" xlink:href="#DejaVuSans-20"/>
     <use x="353.560547" xlink:href="#DejaVuSans-62"/>
     <use x="417.037109" xlink:href="#DejaVuSans-69"/>
     <use x="444.820312" xlink:href="#DejaVuSans-6e"/>
     <use x="508.199219" xlink:href="#DejaVuSans-61"/>
     <use x="569.478516" xlink:href="#DejaVuSans-72"/>
     <use x="610.591797" xlink:href="#DejaVuSans-69"/>
     <use x="638.375" xlink:href="#DejaVuSans-73"/>
     <use x="690.474609" xlink:href="#DejaVuSans-61"/>
     <use x="751.753906" xlink:href="#DejaVuSans-74"/>
     <use x="790.962891" xlink:href="#DejaVuSans-69"/>
     <use x="818.746094" xlink:href="#DejaVuSans-6f"/>
     <use x="879.927734" xlink:href="#DejaVuSans-6e"/>
    </g>
   </g>
  </g>
 </g>
 <defs>
  <clipPath id="pf57160f542">
   <rect height="564.545455" width="1674" x="43.78125" y="22.318125"/>
  </clipPath>
  <clipPath id="p003af687bf">
   <rect height="564.545455" width="1674" x="43.78125" y="699.77267"/>
  </clipPath>
 </defs>
</svg>
