<?xml version="1.0" encoding="utf-8" standalone="no"?>
<!DOCTYPE svg PUBLIC "-//W3C//DTD SVG 1.1//EN"
  "http://www.w3.org/Graphics/SVG/1.1/DTD/svg11.dtd">
<svg height="1301.874375pt" version="1.1" viewBox="0 0 1724.98125 1301.874375" width="1724.98125pt" xmlns="http://www.w3.org/2000/svg" xmlns:xlink="http://www.w3.org/1999/xlink">
 <metadata>
  <rdf:RDF xmlns:cc="http://creativecommons.org/ns#" xmlns:dc="http://purl.org/dc/elements/1.1/" xmlns:rdf="http://www.w3.org/1999/02/22-rdf-syntax-ns#">
   <cc:Work>
    <dc:type rdf:resource="http://purl.org/dc/dcmitype/StillImage"/>
    <dc:date>2022-07-24T15:54:30.763809</dc:date>
    <dc:format>image/svg+xml</dc:format>
    <dc:creator>
     <cc:Agent>
      <dc:title>Matplotlib v3.4.2, https://matplotlib.org/</dc:title>
     </cc:Agent>
    </dc:creator>
   </cc:Work>
  </rdf:RDF>
 </metadata>
 <defs>
  <style type="text/css">*{stroke-linecap:butt;stroke-linejoin:round;}</style>
 </defs>
 <g id="figure_1">
  <g id="patch_1">
   <path d="M 0 1301.874375 
L 1724.98125 1301.874375 
L 1724.98125 0 
L 0 0 
z
" style="fill:#ffffff;"/>
  </g>
  <g id="axes_1">
   <g id="patch_2">
    <path d="M 43.78125 586.86358 
L 1717.78125 586.86358 
L 1717.78125 22.318125 
L 43.78125 22.318125 
z
" style="fill:#ffffff;"/>
   </g>
   <g id="matplotlib.axis_1">
    <g id="xtick_1">
     <g id="line2d_1">
      <defs>
       <path d="M 0 0 
L 0 3.5 
" id="mc21cd7498c" style="stroke:#000000;stroke-width:0.8;"/>
      </defs>
      <g>
       <use style="stroke:#000000;stroke-width:0.8;" x="119.872159" xlink:href="#mc21cd7498c" y="586.86358"/>
      </g>
     </g>
     <g id="text_1">
      <!-- 0 -->
      <g transform="translate(116.690909 601.462017)scale(0.1 -0.1)">
       <defs>
        <path d="M 2034 4250 
Q 1547 4250 1301 3770 
Q 1056 3291 1056 2328 
Q 1056 1369 1301 889 
Q 1547 409 2034 409 
Q 2525 409 2770 889 
Q 3016 1369 3016 2328 
Q 3016 3291 2770 3770 
Q 2525 4250 2034 4250 
z
M 2034 4750 
Q 2819 4750 3233 4129 
Q 3647 3509 3647 2328 
Q 3647 1150 3233 529 
Q 2819 -91 2034 -91 
Q 1250 -91 836 529 
Q 422 1150 422 2328 
Q 422 3509 836 4129 
Q 1250 4750 2034 4750 
z
" id="DejaVuSans-30" transform="scale(0.015625)"/>
       </defs>
       <use xlink:href="#DejaVuSans-30"/>
      </g>
     </g>
    </g>
    <g id="xtick_2">
     <g id="line2d_2">
      <g>
       <use style="stroke:#000000;stroke-width:0.8;" x="367.523613" xlink:href="#mc21cd7498c" y="586.86358"/>
      </g>
     </g>
     <g id="text_2">
      <!-- 200 -->
      <g transform="translate(357.979863 601.462017)scale(0.1 -0.1)">
       <defs>
        <path d="M 1228 531 
L 3431 531 
L 3431 0 
L 469 0 
L 469 531 
Q 828 903 1448 1529 
Q 2069 2156 2228 2338 
Q 2531 2678 2651 2914 
Q 2772 3150 2772 3378 
Q 2772 3750 2511 3984 
Q 2250 4219 1831 4219 
Q 1534 4219 1204 4116 
Q 875 4013 500 3803 
L 500 4441 
Q 881 4594 1212 4672 
Q 1544 4750 1819 4750 
Q 2544 4750 2975 4387 
Q 3406 4025 3406 3419 
Q 3406 3131 3298 2873 
Q 3191 2616 2906 2266 
Q 2828 2175 2409 1742 
Q 1991 1309 1228 531 
z
" id="DejaVuSans-32" transform="scale(0.015625)"/>
       </defs>
       <use xlink:href="#DejaVuSans-32"/>
       <use x="63.623047" xlink:href="#DejaVuSans-30"/>
       <use x="127.246094" xlink:href="#DejaVuSans-30"/>
      </g>
     </g>
    </g>
    <g id="xtick_3">
     <g id="line2d_3">
      <g>
       <use style="stroke:#000000;stroke-width:0.8;" x="615.175066" xlink:href="#mc21cd7498c" y="586.86358"/>
      </g>
     </g>
     <g id="text_3">
      <!-- 400 -->
      <g transform="translate(605.631316 601.462017)scale(0.1 -0.1)">
       <defs>
        <path d="M 2419 4116 
L 825 1625 
L 2419 1625 
L 2419 4116 
z
M 2253 4666 
L 3047 4666 
L 3047 1625 
L 3713 1625 
L 3713 1100 
L 3047 1100 
L 3047 0 
L 2419 0 
L 2419 1100 
L 313 1100 
L 313 1709 
L 2253 4666 
z
" id="DejaVuSans-34" transform="scale(0.015625)"/>
       </defs>
       <use xlink:href="#DejaVuSans-34"/>
       <use x="63.623047" xlink:href="#DejaVuSans-30"/>
       <use x="127.246094" xlink:href="#DejaVuSans-30"/>
      </g>
     </g>
    </g>
    <g id="xtick_4">
     <g id="line2d_4">
      <g>
       <use style="stroke:#000000;stroke-width:0.8;" x="862.82652" xlink:href="#mc21cd7498c" y="586.86358"/>
      </g>
     </g>
     <g id="text_4">
      <!-- 600 -->
      <g transform="translate(853.28277 601.462017)scale(0.1 -0.1)">
       <defs>
        <path d="M 2113 2584 
Q 1688 2584 1439 2293 
Q 1191 2003 1191 1497 
Q 1191 994 1439 701 
Q 1688 409 2113 409 
Q 2538 409 2786 701 
Q 3034 994 3034 1497 
Q 3034 2003 2786 2293 
Q 2538 2584 2113 2584 
z
M 3366 4563 
L 3366 3988 
Q 3128 4100 2886 4159 
Q 2644 4219 2406 4219 
Q 1781 4219 1451 3797 
Q 1122 3375 1075 2522 
Q 1259 2794 1537 2939 
Q 1816 3084 2150 3084 
Q 2853 3084 3261 2657 
Q 3669 2231 3669 1497 
Q 3669 778 3244 343 
Q 2819 -91 2113 -91 
Q 1303 -91 875 529 
Q 447 1150 447 2328 
Q 447 3434 972 4092 
Q 1497 4750 2381 4750 
Q 2619 4750 2861 4703 
Q 3103 4656 3366 4563 
z
" id="DejaVuSans-36" transform="scale(0.015625)"/>
       </defs>
       <use xlink:href="#DejaVuSans-36"/>
       <use x="63.623047" xlink:href="#DejaVuSans-30"/>
       <use x="127.246094" xlink:href="#DejaVuSans-30"/>
      </g>
     </g>
    </g>
    <g id="xtick_5">
     <g id="line2d_5">
      <g>
       <use style="stroke:#000000;stroke-width:0.8;" x="1110.477973" xlink:href="#mc21cd7498c" y="586.86358"/>
      </g>
     </g>
     <g id="text_5">
      <!-- 800 -->
      <g transform="translate(1100.934223 601.462017)scale(0.1 -0.1)">
       <defs>
        <path d="M 2034 2216 
Q 1584 2216 1326 1975 
Q 1069 1734 1069 1313 
Q 1069 891 1326 650 
Q 1584 409 2034 409 
Q 2484 409 2743 651 
Q 3003 894 3003 1313 
Q 3003 1734 2745 1975 
Q 2488 2216 2034 2216 
z
M 1403 2484 
Q 997 2584 770 2862 
Q 544 3141 544 3541 
Q 544 4100 942 4425 
Q 1341 4750 2034 4750 
Q 2731 4750 3128 4425 
Q 3525 4100 3525 3541 
Q 3525 3141 3298 2862 
Q 3072 2584 2669 2484 
Q 3125 2378 3379 2068 
Q 3634 1759 3634 1313 
Q 3634 634 3220 271 
Q 2806 -91 2034 -91 
Q 1263 -91 848 271 
Q 434 634 434 1313 
Q 434 1759 690 2068 
Q 947 2378 1403 2484 
z
M 1172 3481 
Q 1172 3119 1398 2916 
Q 1625 2713 2034 2713 
Q 2441 2713 2670 2916 
Q 2900 3119 2900 3481 
Q 2900 3844 2670 4047 
Q 2441 4250 2034 4250 
Q 1625 4250 1398 4047 
Q 1172 3844 1172 3481 
z
" id="DejaVuSans-38" transform="scale(0.015625)"/>
       </defs>
       <use xlink:href="#DejaVuSans-38"/>
       <use x="63.623047" xlink:href="#DejaVuSans-30"/>
       <use x="127.246094" xlink:href="#DejaVuSans-30"/>
      </g>
     </g>
    </g>
    <g id="xtick_6">
     <g id="line2d_6">
      <g>
       <use style="stroke:#000000;stroke-width:0.8;" x="1358.129427" xlink:href="#mc21cd7498c" y="586.86358"/>
      </g>
     </g>
     <g id="text_6">
      <!-- 1000 -->
      <g transform="translate(1345.404427 601.462017)scale(0.1 -0.1)">
       <defs>
        <path d="M 794 531 
L 1825 531 
L 1825 4091 
L 703 3866 
L 703 4441 
L 1819 4666 
L 2450 4666 
L 2450 531 
L 3481 531 
L 3481 0 
L 794 0 
L 794 531 
z
" id="DejaVuSans-31" transform="scale(0.015625)"/>
       </defs>
       <use xlink:href="#DejaVuSans-31"/>
       <use x="63.623047" xlink:href="#DejaVuSans-30"/>
       <use x="127.246094" xlink:href="#DejaVuSans-30"/>
       <use x="190.869141" xlink:href="#DejaVuSans-30"/>
      </g>
     </g>
    </g>
    <g id="xtick_7">
     <g id="line2d_7">
      <g>
       <use style="stroke:#000000;stroke-width:0.8;" x="1605.78088" xlink:href="#mc21cd7498c" y="586.86358"/>
      </g>
     </g>
     <g id="text_7">
      <!-- 1200 -->
      <g transform="translate(1593.05588 601.462017)scale(0.1 -0.1)">
       <use xlink:href="#DejaVuSans-31"/>
       <use x="63.623047" xlink:href="#DejaVuSans-32"/>
       <use x="127.246094" xlink:href="#DejaVuSans-30"/>
       <use x="190.869141" xlink:href="#DejaVuSans-30"/>
      </g>
     </g>
    </g>
    <g id="text_8">
     <!-- frame -->
     <g transform="translate(865.954687 615.140142)scale(0.1 -0.1)">
      <defs>
       <path d="M 2375 4863 
L 2375 4384 
L 1825 4384 
Q 1516 4384 1395 4259 
Q 1275 4134 1275 3809 
L 1275 3500 
L 2222 3500 
L 2222 3053 
L 1275 3053 
L 1275 0 
L 697 0 
L 697 3053 
L 147 3053 
L 147 3500 
L 697 3500 
L 697 3744 
Q 697 4328 969 4595 
Q 1241 4863 1831 4863 
L 2375 4863 
z
" id="DejaVuSans-66" transform="scale(0.015625)"/>
       <path d="M 2631 2963 
Q 2534 3019 2420 3045 
Q 2306 3072 2169 3072 
Q 1681 3072 1420 2755 
Q 1159 2438 1159 1844 
L 1159 0 
L 581 0 
L 581 3500 
L 1159 3500 
L 1159 2956 
Q 1341 3275 1631 3429 
Q 1922 3584 2338 3584 
Q 2397 3584 2469 3576 
Q 2541 3569 2628 3553 
L 2631 2963 
z
" id="DejaVuSans-72" transform="scale(0.015625)"/>
       <path d="M 2194 1759 
Q 1497 1759 1228 1600 
Q 959 1441 959 1056 
Q 959 750 1161 570 
Q 1363 391 1709 391 
Q 2188 391 2477 730 
Q 2766 1069 2766 1631 
L 2766 1759 
L 2194 1759 
z
M 3341 1997 
L 3341 0 
L 2766 0 
L 2766 531 
Q 2569 213 2275 61 
Q 1981 -91 1556 -91 
Q 1019 -91 701 211 
Q 384 513 384 1019 
Q 384 1609 779 1909 
Q 1175 2209 1959 2209 
L 2766 2209 
L 2766 2266 
Q 2766 2663 2505 2880 
Q 2244 3097 1772 3097 
Q 1472 3097 1187 3025 
Q 903 2953 641 2809 
L 641 3341 
Q 956 3463 1253 3523 
Q 1550 3584 1831 3584 
Q 2591 3584 2966 3190 
Q 3341 2797 3341 1997 
z
" id="DejaVuSans-61" transform="scale(0.015625)"/>
       <path d="M 3328 2828 
Q 3544 3216 3844 3400 
Q 4144 3584 4550 3584 
Q 5097 3584 5394 3201 
Q 5691 2819 5691 2113 
L 5691 0 
L 5113 0 
L 5113 2094 
Q 5113 2597 4934 2840 
Q 4756 3084 4391 3084 
Q 3944 3084 3684 2787 
Q 3425 2491 3425 1978 
L 3425 0 
L 2847 0 
L 2847 2094 
Q 2847 2600 2669 2842 
Q 2491 3084 2119 3084 
Q 1678 3084 1418 2786 
Q 1159 2488 1159 1978 
L 1159 0 
L 581 0 
L 581 3500 
L 1159 3500 
L 1159 2956 
Q 1356 3278 1631 3431 
Q 1906 3584 2284 3584 
Q 2666 3584 2933 3390 
Q 3200 3197 3328 2828 
z
" id="DejaVuSans-6d" transform="scale(0.015625)"/>
       <path d="M 3597 1894 
L 3597 1613 
L 953 1613 
Q 991 1019 1311 708 
Q 1631 397 2203 397 
Q 2534 397 2845 478 
Q 3156 559 3463 722 
L 3463 178 
Q 3153 47 2828 -22 
Q 2503 -91 2169 -91 
Q 1331 -91 842 396 
Q 353 884 353 1716 
Q 353 2575 817 3079 
Q 1281 3584 2069 3584 
Q 2775 3584 3186 3129 
Q 3597 2675 3597 1894 
z
M 3022 2063 
Q 3016 2534 2758 2815 
Q 2500 3097 2075 3097 
Q 1594 3097 1305 2825 
Q 1016 2553 972 2059 
L 3022 2063 
z
" id="DejaVuSans-65" transform="scale(0.015625)"/>
      </defs>
      <use xlink:href="#DejaVuSans-66"/>
      <use x="35.205078" xlink:href="#DejaVuSans-72"/>
      <use x="76.318359" xlink:href="#DejaVuSans-61"/>
      <use x="137.597656" xlink:href="#DejaVuSans-6d"/>
      <use x="235.009766" xlink:href="#DejaVuSans-65"/>
     </g>
    </g>
   </g>
   <g id="matplotlib.axis_2">
    <g id="ytick_1">
     <g id="line2d_8">
      <defs>
       <path d="M 0 0 
L -3.5 0 
" id="ma4ad74fcfb" style="stroke:#000000;stroke-width:0.8;"/>
      </defs>
      <g>
       <use style="stroke:#000000;stroke-width:0.8;" x="43.78125" xlink:href="#ma4ad74fcfb" y="561.202423"/>
      </g>
     </g>
     <g id="text_9">
      <!-- 0 -->
      <g transform="translate(30.41875 565.001641)scale(0.1 -0.1)">
       <use xlink:href="#DejaVuSans-30"/>
      </g>
     </g>
    </g>
    <g id="ytick_2">
     <g id="line2d_9">
      <g>
       <use style="stroke:#000000;stroke-width:0.8;" x="43.78125" xlink:href="#ma4ad74fcfb" y="465.418238"/>
      </g>
     </g>
     <g id="text_10">
      <!-- 1 -->
      <g transform="translate(30.41875 469.217457)scale(0.1 -0.1)">
       <use xlink:href="#DejaVuSans-31"/>
      </g>
     </g>
    </g>
    <g id="ytick_3">
     <g id="line2d_10">
      <g>
       <use style="stroke:#000000;stroke-width:0.8;" x="43.78125" xlink:href="#ma4ad74fcfb" y="369.634054"/>
      </g>
     </g>
     <g id="text_11">
      <!-- 2 -->
      <g transform="translate(30.41875 373.433273)scale(0.1 -0.1)">
       <use xlink:href="#DejaVuSans-32"/>
      </g>
     </g>
    </g>
    <g id="ytick_4">
     <g id="line2d_11">
      <g>
       <use style="stroke:#000000;stroke-width:0.8;" x="43.78125" xlink:href="#ma4ad74fcfb" y="273.84987"/>
      </g>
     </g>
     <g id="text_12">
      <!-- 3 -->
      <g transform="translate(30.41875 277.649089)scale(0.1 -0.1)">
       <defs>
        <path d="M 2597 2516 
Q 3050 2419 3304 2112 
Q 3559 1806 3559 1356 
Q 3559 666 3084 287 
Q 2609 -91 1734 -91 
Q 1441 -91 1130 -33 
Q 819 25 488 141 
L 488 750 
Q 750 597 1062 519 
Q 1375 441 1716 441 
Q 2309 441 2620 675 
Q 2931 909 2931 1356 
Q 2931 1769 2642 2001 
Q 2353 2234 1838 2234 
L 1294 2234 
L 1294 2753 
L 1863 2753 
Q 2328 2753 2575 2939 
Q 2822 3125 2822 3475 
Q 2822 3834 2567 4026 
Q 2313 4219 1838 4219 
Q 1578 4219 1281 4162 
Q 984 4106 628 3988 
L 628 4550 
Q 988 4650 1302 4700 
Q 1616 4750 1894 4750 
Q 2613 4750 3031 4423 
Q 3450 4097 3450 3541 
Q 3450 3153 3228 2886 
Q 3006 2619 2597 2516 
z
" id="DejaVuSans-33" transform="scale(0.015625)"/>
       </defs>
       <use xlink:href="#DejaVuSans-33"/>
      </g>
     </g>
    </g>
    <g id="ytick_5">
     <g id="line2d_12">
      <g>
       <use style="stroke:#000000;stroke-width:0.8;" x="43.78125" xlink:href="#ma4ad74fcfb" y="178.065686"/>
      </g>
     </g>
     <g id="text_13">
      <!-- 4 -->
      <g transform="translate(30.41875 181.864905)scale(0.1 -0.1)">
       <use xlink:href="#DejaVuSans-34"/>
      </g>
     </g>
    </g>
    <g id="ytick_6">
     <g id="line2d_13">
      <g>
       <use style="stroke:#000000;stroke-width:0.8;" x="43.78125" xlink:href="#ma4ad74fcfb" y="82.281502"/>
      </g>
     </g>
     <g id="text_14">
      <!-- 5 -->
      <g transform="translate(30.41875 86.080721)scale(0.1 -0.1)">
       <defs>
        <path d="M 691 4666 
L 3169 4666 
L 3169 4134 
L 1269 4134 
L 1269 2991 
Q 1406 3038 1543 3061 
Q 1681 3084 1819 3084 
Q 2600 3084 3056 2656 
Q 3513 2228 3513 1497 
Q 3513 744 3044 326 
Q 2575 -91 1722 -91 
Q 1428 -91 1123 -41 
Q 819 9 494 109 
L 494 744 
Q 775 591 1075 516 
Q 1375 441 1709 441 
Q 2250 441 2565 725 
Q 2881 1009 2881 1497 
Q 2881 1984 2565 2268 
Q 2250 2553 1709 2553 
Q 1456 2553 1204 2497 
Q 953 2441 691 2322 
L 691 4666 
z
" id="DejaVuSans-35" transform="scale(0.015625)"/>
       </defs>
       <use xlink:href="#DejaVuSans-35"/>
      </g>
     </g>
    </g>
    <g id="text_15">
     <!-- GCaMP -->
     <g transform="translate(24.339062 322.349446)rotate(-90)scale(0.1 -0.1)">
      <defs>
       <path d="M 3809 666 
L 3809 1919 
L 2778 1919 
L 2778 2438 
L 4434 2438 
L 4434 434 
Q 4069 175 3628 42 
Q 3188 -91 2688 -91 
Q 1594 -91 976 548 
Q 359 1188 359 2328 
Q 359 3472 976 4111 
Q 1594 4750 2688 4750 
Q 3144 4750 3555 4637 
Q 3966 4525 4313 4306 
L 4313 3634 
Q 3963 3931 3569 4081 
Q 3175 4231 2741 4231 
Q 1884 4231 1454 3753 
Q 1025 3275 1025 2328 
Q 1025 1384 1454 906 
Q 1884 428 2741 428 
Q 3075 428 3337 486 
Q 3600 544 3809 666 
z
" id="DejaVuSans-47" transform="scale(0.015625)"/>
       <path d="M 4122 4306 
L 4122 3641 
Q 3803 3938 3442 4084 
Q 3081 4231 2675 4231 
Q 1875 4231 1450 3742 
Q 1025 3253 1025 2328 
Q 1025 1406 1450 917 
Q 1875 428 2675 428 
Q 3081 428 3442 575 
Q 3803 722 4122 1019 
L 4122 359 
Q 3791 134 3420 21 
Q 3050 -91 2638 -91 
Q 1578 -91 968 557 
Q 359 1206 359 2328 
Q 359 3453 968 4101 
Q 1578 4750 2638 4750 
Q 3056 4750 3426 4639 
Q 3797 4528 4122 4306 
z
" id="DejaVuSans-43" transform="scale(0.015625)"/>
       <path d="M 628 4666 
L 1569 4666 
L 2759 1491 
L 3956 4666 
L 4897 4666 
L 4897 0 
L 4281 0 
L 4281 4097 
L 3078 897 
L 2444 897 
L 1241 4097 
L 1241 0 
L 628 0 
L 628 4666 
z
" id="DejaVuSans-4d" transform="scale(0.015625)"/>
       <path d="M 1259 4147 
L 1259 2394 
L 2053 2394 
Q 2494 2394 2734 2622 
Q 2975 2850 2975 3272 
Q 2975 3691 2734 3919 
Q 2494 4147 2053 4147 
L 1259 4147 
z
M 628 4666 
L 2053 4666 
Q 2838 4666 3239 4311 
Q 3641 3956 3641 3272 
Q 3641 2581 3239 2228 
Q 2838 1875 2053 1875 
L 1259 1875 
L 1259 0 
L 628 0 
L 628 4666 
z
" id="DejaVuSans-50" transform="scale(0.015625)"/>
      </defs>
      <use xlink:href="#DejaVuSans-47"/>
      <use x="77.490234" xlink:href="#DejaVuSans-43"/>
      <use x="147.314453" xlink:href="#DejaVuSans-61"/>
      <use x="208.59375" xlink:href="#DejaVuSans-4d"/>
      <use x="294.873047" xlink:href="#DejaVuSans-50"/>
     </g>
    </g>
   </g>
   <g id="line2d_14">
    <path clip-path="url(#pd1a81e60af)" d="M 119.872159 384.469497 
L 121.110416 380.898325 
L 122.348674 378.469079 
L 123.586931 377.572159 
L 124.825188 377.778818 
L 126.063445 378.333943 
L 128.53996 379.132134 
L 129.778217 379.893607 
L 131.016474 381.376755 
L 134.731246 387.651607 
L 135.969504 389.076623 
L 137.207761 389.898752 
L 138.446018 390.257747 
L 139.684275 390.466184 
L 140.922533 391.093414 
L 142.16079 392.786222 
L 143.399047 395.763455 
L 145.875562 403.15734 
L 147.113819 405.819503 
L 148.352076 407.325532 
L 152.066848 409.637663 
L 153.305105 410.216386 
L 155.78162 411.052263 
L 157.019877 411.795086 
L 158.258134 413.000432 
L 159.496392 414.754982 
L 161.972906 418.799778 
L 163.211163 420.355646 
L 164.449421 421.369151 
L 165.687678 421.886161 
L 168.164193 422.499509 
L 169.40245 423.067529 
L 170.640707 424.006359 
L 171.878964 425.454866 
L 174.355479 428.948076 
L 176.831993 431.488026 
L 180.546765 435.101861 
L 183.02328 437.186858 
L 184.261537 438.558688 
L 185.499794 440.543944 
L 187.976309 445.193727 
L 189.214566 446.52589 
L 190.452823 446.746133 
L 191.691081 446.132983 
L 195.405852 443.192915 
L 196.64411 442.475896 
L 197.882367 442.203679 
L 199.120624 442.566571 
L 200.358881 443.5618 
L 201.597139 445.117821 
L 202.835396 447.190954 
L 204.073653 449.515151 
L 205.311911 451.569703 
L 206.550168 452.96894 
L 207.788425 453.58256 
L 209.026682 453.448024 
L 211.503197 452.211177 
L 212.741454 451.828297 
L 213.979711 451.781799 
L 215.217969 452.008771 
L 217.694483 452.636743 
L 218.93274 452.721639 
L 221.409255 452.28112 
L 222.647512 452.3097 
L 223.88577 452.815898 
L 225.124027 453.459395 
L 226.362284 453.633861 
L 227.600541 453.101696 
L 228.838799 452.190479 
L 230.077056 451.430107 
L 231.315313 451.255179 
L 232.55357 451.878096 
L 233.791828 453.201628 
L 237.5066 458.570791 
L 238.744857 459.88179 
L 239.983114 460.813555 
L 241.221371 461.376225 
L 242.459629 461.42882 
L 243.697886 460.891705 
L 246.1744 459.265086 
L 247.412658 458.84918 
L 249.889172 458.523996 
L 251.127429 458.706144 
L 252.365687 459.352964 
L 254.842201 461.350399 
L 256.080459 462.112927 
L 257.318716 462.467469 
L 258.556973 462.342179 
L 259.79523 461.771073 
L 261.033488 461.024737 
L 262.271745 460.484824 
L 263.510002 460.361786 
L 264.748259 460.646379 
L 265.986517 461.115416 
L 267.224774 461.436013 
L 268.463031 461.442421 
L 269.701288 461.086409 
L 270.939546 460.290657 
L 272.177803 459.228941 
L 273.41606 458.436445 
L 274.654318 458.349313 
L 275.892575 458.947058 
L 277.130832 459.947168 
L 278.369089 461.166955 
L 279.607347 462.617449 
L 282.083861 465.9267 
L 283.322118 466.870966 
L 284.560376 466.649275 
L 285.798633 465.457417 
L 287.03689 464.045505 
L 288.275147 463.045606 
L 289.513405 462.592988 
L 291.989919 462.194863 
L 298.181206 460.431883 
L 303.134235 459.665354 
L 304.372492 459.922739 
L 305.610749 460.548712 
L 306.849006 461.312212 
L 308.087264 461.917584 
L 309.325521 462.102267 
L 310.563778 461.78728 
L 313.040293 460.658324 
L 314.27855 460.612234 
L 315.516807 461.147141 
L 316.755065 461.929793 
L 317.993322 462.570287 
L 321.708094 464.059471 
L 322.946351 464.320325 
L 325.422866 464.23888 
L 327.89938 464.034178 
L 329.137637 463.771621 
L 330.375895 463.371694 
L 331.614152 463.125484 
L 332.852409 463.423733 
L 334.090666 464.471777 
L 336.567181 467.75416 
L 337.805438 468.636097 
L 339.043695 468.323827 
L 340.281953 466.9846 
L 341.52021 465.277595 
L 342.758467 463.947 
L 343.996725 463.445321 
L 345.234982 463.866265 
L 346.473239 465.033162 
L 347.711496 466.531083 
L 348.949754 467.776184 
L 350.188011 468.253932 
L 351.426268 467.806965 
L 353.902783 465.582534 
L 355.14104 464.803272 
L 356.379297 464.56972 
L 357.617554 464.998026 
L 358.855812 466.177185 
L 360.094069 467.847005 
L 361.332326 469.264225 
L 362.570584 469.643035 
L 363.808841 468.847957 
L 365.047098 467.562606 
L 366.285355 466.639322 
L 367.523613 466.340733 
L 371.238384 466.399067 
L 372.476642 466.261225 
L 376.191413 465.272689 
L 377.429671 465.20698 
L 378.667928 465.332292 
L 379.906185 465.682866 
L 382.3827 466.654679 
L 383.620957 466.950183 
L 384.859214 466.902515 
L 386.097472 466.422472 
L 387.335729 465.732859 
L 388.573986 465.25265 
L 391.050501 465.097531 
L 392.288758 464.562909 
L 393.527015 463.34677 
L 394.765272 461.857121 
L 396.00353 460.670541 
L 397.241787 459.964086 
L 399.718302 458.932439 
L 400.956559 458.316349 
L 402.194816 457.851541 
L 403.433073 457.70117 
L 404.671331 457.974269 
L 405.909588 458.712299 
L 407.147845 459.714112 
L 408.386102 460.540347 
L 409.62436 460.673258 
L 410.862617 459.818184 
L 413.339132 456.860289 
L 414.577389 456.188662 
L 415.815646 456.352448 
L 417.053903 457.199167 
L 419.530418 459.836649 
L 420.768675 460.680438 
L 422.006932 460.691711 
L 423.24519 459.895428 
L 426.959961 455.910291 
L 428.198219 455.144655 
L 430.674733 454.235052 
L 431.912991 453.361257 
L 434.389505 450.913554 
L 435.627762 450.09963 
L 436.86602 450.188569 
L 438.104277 451.318634 
L 440.580791 454.740071 
L 441.819049 455.758993 
L 443.057306 456.050624 
L 444.295563 455.815605 
L 445.53382 455.196403 
L 446.772078 454.156056 
L 450.48685 449.896188 
L 451.725107 449.074539 
L 455.439879 447.11349 
L 456.678136 446.962064 
L 457.916393 447.275011 
L 459.15465 447.923429 
L 460.392908 448.971906 
L 462.869422 451.847335 
L 464.107679 453.03598 
L 465.345937 453.90301 
L 466.584194 454.366241 
L 467.822451 454.334321 
L 469.060709 453.967735 
L 470.298966 453.456538 
L 471.537223 452.707979 
L 474.013738 450.845183 
L 475.251995 450.418768 
L 476.490252 450.233062 
L 477.728509 449.89951 
L 478.966767 449.268644 
L 481.443281 447.796195 
L 482.681538 447.485082 
L 486.39631 447.656009 
L 490.111082 446.80601 
L 491.349339 447.073721 
L 492.587597 447.934155 
L 496.302368 451.408959 
L 497.540626 451.8902 
L 498.778883 451.065572 
L 500.01714 448.932342 
L 501.255397 446.354543 
L 502.493655 444.573621 
L 503.731912 444.434065 
L 504.970169 445.803022 
L 507.446684 449.698546 
L 508.684941 450.848174 
L 509.923198 451.174669 
L 511.161456 450.927328 
L 514.876227 449.673498 
L 516.114485 448.859268 
L 517.352742 447.525936 
L 518.590999 445.937163 
L 519.829257 444.789694 
L 521.067514 444.620061 
L 522.305771 445.223783 
L 523.544028 445.968544 
L 524.782286 446.42787 
L 526.020543 446.545673 
L 527.2588 446.494768 
L 528.497057 446.594761 
L 529.735315 447.169807 
L 530.973572 448.25571 
L 532.211829 449.528703 
L 533.450086 450.577062 
L 534.688344 451.175463 
L 535.926601 451.321828 
L 537.164858 451.070398 
L 538.403116 450.447236 
L 540.87963 448.787308 
L 542.117887 448.146164 
L 545.832659 446.575425 
L 547.070916 445.516897 
L 548.309174 444.202186 
L 549.547431 443.428079 
L 550.785688 443.923436 
L 552.023945 445.732444 
L 553.262203 448.204622 
L 554.50046 450.24432 
L 555.738717 450.855176 
L 556.976975 449.803924 
L 558.215232 447.650892 
L 560.691746 442.923937 
L 561.930004 441.217779 
L 563.168261 440.269855 
L 564.406518 440.277892 
L 565.644775 441.4226 
L 566.883033 443.618672 
L 568.12129 446.238458 
L 569.359547 448.313127 
L 570.597804 449.058911 
L 571.836062 448.215254 
L 573.074319 446.146009 
L 574.312576 443.737375 
L 575.550834 441.909943 
L 576.789091 441.055705 
L 578.027348 441.007259 
L 580.503863 441.796157 
L 581.74212 441.785847 
L 582.980377 441.20121 
L 586.695149 438.287044 
L 587.933406 437.868654 
L 589.171663 437.913014 
L 591.648178 438.723116 
L 594.124693 439.533738 
L 595.36295 439.732192 
L 596.601207 439.373449 
L 597.839464 438.379991 
L 599.077722 437.228118 
L 600.315979 436.617015 
L 601.554236 436.937488 
L 602.792493 438.05753 
L 605.269008 441.294312 
L 606.507265 442.891004 
L 607.745523 444.043503 
L 608.98378 444.244714 
L 610.222037 443.146423 
L 611.460294 440.934067 
L 613.936809 435.85032 
L 615.175066 434.132119 
L 616.413323 433.148084 
L 617.651581 432.686283 
L 618.889838 432.683977 
L 620.128095 433.301766 
L 621.366352 434.518828 
L 622.60461 435.920112 
L 623.842867 436.91025 
L 625.081124 436.97219 
L 626.319382 435.711055 
L 627.557639 432.978982 
L 628.795896 429.060827 
L 630.034153 424.32112 
L 631.272411 418.601552 
L 632.510668 411.265196 
L 633.748925 401.922976 
L 636.22544 379.425059 
L 639.940211 344.61126 
L 641.178469 334.099646 
L 643.654983 314.934866 
L 644.893241 303.666492 
L 647.369755 278.603986 
L 648.608012 267.842785 
L 649.84627 258.980099 
L 651.084527 252.088051 
L 652.322784 247.700846 
L 653.561041 246.333816 
L 656.037556 248.434249 
L 657.275813 247.126705 
L 658.51407 242.740638 
L 660.990585 229.964795 
L 662.228842 224.561998 
L 663.4671 221.078116 
L 665.943614 217.420882 
L 667.181871 214.039801 
L 668.420129 208.813138 
L 669.658386 202.778334 
L 670.896643 197.434082 
L 672.1349 193.581637 
L 673.373158 190.913406 
L 674.611415 188.874167 
L 675.849672 187.612825 
L 677.087929 188.124294 
L 678.326187 191.243823 
L 679.564444 196.493634 
L 680.802701 202.378728 
L 682.040959 207.210183 
L 683.279216 209.430379 
L 684.517473 208.538569 
L 685.75573 206.136141 
L 686.993988 204.900002 
L 688.232245 206.099035 
L 689.470502 208.646619 
L 690.708759 210.825395 
L 691.947017 212.688617 
L 693.185274 216.036805 
L 694.423531 221.877527 
L 695.661789 229.034005 
L 696.900046 235.443242 
L 698.138303 239.593305 
L 699.37656 240.855966 
L 700.614818 239.545081 
L 701.853075 236.627556 
L 703.091332 233.242359 
L 704.329589 230.471819 
L 705.567847 229.046097 
L 706.806104 228.992619 
L 708.044361 229.542907 
L 709.282618 229.545444 
L 710.520876 228.26335 
L 711.759133 225.825929 
L 712.99739 223.006687 
L 714.235648 220.549211 
L 715.473905 218.389558 
L 716.712162 215.565505 
L 717.950419 211.340484 
L 720.426934 201.262992 
L 721.665191 197.033478 
L 722.903448 193.825905 
L 724.141706 192.00954 
L 725.379963 191.572984 
L 727.856477 192.301355 
L 730.332992 192.294863 
L 731.571249 193.11529 
L 732.809507 194.725126 
L 734.047764 195.617135 
L 735.286021 194.157516 
L 736.524278 189.954716 
L 737.762536 183.632685 
L 740.23905 168.97792 
L 741.477307 162.734677 
L 742.715565 157.685175 
L 743.953822 154.401684 
L 745.192079 153.97012 
L 746.430336 156.620048 
L 747.668594 161.538026 
L 750.145108 173.788257 
L 751.383366 178.831811 
L 752.621623 183.302501 
L 753.85988 188.553689 
L 755.098137 194.609914 
L 756.336395 199.97307 
L 757.574652 203.705733 
L 758.812909 206.30432 
L 762.527681 212.760981 
L 763.765938 215.97691 
L 765.004195 220.577757 
L 767.48071 231.279574 
L 768.718967 235.143776 
L 769.957225 237.791008 
L 771.195482 239.676394 
L 772.433739 240.797208 
L 773.671996 241.518156 
L 774.910254 243.187306 
L 776.148511 246.731685 
L 778.625025 256.174648 
L 779.863283 259.578832 
L 781.10154 261.147675 
L 782.339797 260.873407 
L 783.578054 259.344004 
L 784.816312 257.552908 
L 786.054569 256.565554 
L 787.292826 256.805733 
L 788.531084 257.858657 
L 789.769341 259.598321 
L 791.007598 262.649146 
L 792.245855 267.223473 
L 793.484113 272.512023 
L 794.72237 277.294805 
L 795.960627 280.411221 
L 797.198884 281.084417 
L 798.437142 279.57503 
L 799.675399 277.220011 
L 800.913656 275.468588 
L 802.151914 275.155434 
L 803.390171 276.496921 
L 804.628428 279.10999 
L 805.866685 281.987142 
L 807.104943 283.946647 
L 808.3432 284.35884 
L 809.581457 283.490962 
L 810.819714 282.386851 
L 812.057972 282.184441 
L 813.296229 283.20788 
L 817.011001 288.490217 
L 818.249258 289.499875 
L 820.725773 290.910449 
L 821.96403 291.400954 
L 823.202287 291.674592 
L 824.440544 291.558348 
L 825.678802 290.90173 
L 826.917059 289.875199 
L 828.155316 289.126419 
L 829.393573 289.664208 
L 830.631831 292.045175 
L 833.108345 299.42762 
L 834.346602 302.558383 
L 835.58486 305.15638 
L 836.823117 307.39757 
L 838.061374 309.020191 
L 839.299632 309.857903 
L 840.537889 310.098153 
L 841.776146 309.581029 
L 843.014403 307.870537 
L 845.490918 302.858466 
L 846.729175 301.641949 
L 847.967432 301.62485 
L 849.20569 302.36561 
L 850.443947 303.942411 
L 851.682204 306.916678 
L 852.920461 311.374623 
L 855.396976 321.608696 
L 856.635233 325.696932 
L 857.873491 328.576203 
L 859.111748 330.358444 
L 860.350005 331.369297 
L 861.588262 331.851884 
L 864.064777 332.243471 
L 865.303034 333.352587 
L 866.541291 336.201857 
L 867.779549 341.010717 
L 870.256063 352.199228 
L 871.49432 356.246683 
L 872.732578 358.878765 
L 873.970835 360.398707 
L 876.44735 361.982018 
L 877.685607 362.755244 
L 878.923864 363.14789 
L 880.162121 362.896203 
L 881.400379 362.491905 
L 882.638636 362.695435 
L 883.876893 363.894295 
L 885.11515 366.062999 
L 887.591665 371.343894 
L 888.829922 373.24005 
L 890.06818 374.59865 
L 891.306437 375.766129 
L 892.544694 377.241103 
L 893.782951 379.713733 
L 896.259466 387.022902 
L 897.497723 389.426822 
L 898.73598 389.732583 
L 899.974238 388.384132 
L 901.212495 386.601285 
L 902.450752 385.338829 
L 903.689009 384.81961 
L 904.927267 384.939147 
L 906.165524 385.599177 
L 907.403781 386.460485 
L 908.642039 386.723612 
L 909.880296 385.647964 
L 911.118553 383.246395 
L 912.35681 380.2547 
L 913.595068 377.718583 
L 914.833325 376.475634 
L 916.071582 376.643791 
L 917.309839 377.756939 
L 918.548097 379.203996 
L 919.786354 380.219751 
L 921.024611 379.93466 
L 922.262868 377.96034 
L 923.501126 374.747742 
L 924.739383 371.179907 
L 925.97764 368.07067 
L 927.215898 366.197849 
L 928.454155 366.516332 
L 929.692412 369.700049 
L 930.930669 375.198686 
L 932.168927 381.231047 
L 933.407184 385.947949 
L 934.645441 388.450433 
L 935.883698 388.887505 
L 937.121956 387.952628 
L 938.360213 386.544995 
L 939.59847 385.581888 
L 940.836727 385.4831 
L 942.074985 386.081441 
L 943.313242 387.177573 
L 944.551499 388.594756 
L 945.789757 389.840291 
L 947.028014 390.212189 
L 948.266271 389.28857 
L 950.742786 385.2239 
L 951.981043 383.750624 
L 953.2193 383.093068 
L 954.457557 382.942119 
L 959.410586 382.934472 
L 960.648844 382.810488 
L 961.887101 382.18639 
L 963.125358 380.870644 
L 964.363616 378.713412 
L 965.601873 375.388452 
L 966.84013 370.673876 
L 970.554902 353.856781 
L 971.793159 348.65111 
L 973.031416 342.685636 
L 974.269674 335.117671 
L 975.507931 325.437353 
L 979.222703 289.821099 
L 980.46096 280.662552 
L 981.699217 274.799676 
L 982.937475 272.667277 
L 984.175732 273.516191 
L 985.413989 275.520579 
L 986.652246 277.104951 
L 987.890504 277.888794 
L 989.128761 278.473376 
L 990.367018 279.408724 
L 991.605275 280.11164 
L 992.843533 279.207135 
L 994.08179 276.293567 
L 995.320047 272.706348 
L 996.558305 270.284408 
L 997.796562 270.184736 
L 999.034819 272.658988 
L 1000.273076 276.649905 
L 1001.511334 280.09185 
L 1002.749591 281.822985 
L 1003.987848 282.406888 
L 1005.226105 282.591585 
L 1006.464363 282.08223 
L 1007.70262 279.934949 
L 1008.940877 275.321088 
L 1010.179134 267.995713 
L 1011.417392 258.468779 
L 1013.893906 237.452021 
L 1015.132164 228.614517 
L 1016.370421 221.901348 
L 1018.846935 212.095134 
L 1021.32345 201.681956 
L 1023.799964 190.217012 
L 1026.276479 180.181574 
L 1027.514736 174.272094 
L 1029.991251 160.373984 
L 1031.229508 156.266969 
L 1032.467765 156.034331 
L 1033.706023 158.943886 
L 1034.94428 162.904064 
L 1036.182537 165.971895 
L 1037.420794 167.448426 
L 1038.659052 168.147744 
L 1039.897309 169.574974 
L 1041.135566 172.435163 
L 1042.373823 175.931663 
L 1043.612081 178.72127 
L 1044.850338 180.399532 
L 1046.088595 181.851526 
L 1047.326852 184.261872 
L 1048.56511 188.029574 
L 1049.803367 192.811274 
L 1051.041624 198.278646 
L 1052.279882 204.415332 
L 1055.994653 224.372589 
L 1057.232911 229.89352 
L 1058.471168 234.11345 
L 1059.709425 237.010874 
L 1062.18594 240.826462 
L 1063.424197 243.40913 
L 1064.662454 247.690372 
L 1065.900711 253.906632 
L 1068.377226 269.15497 
L 1069.615483 275.60731 
L 1070.853741 279.911939 
L 1072.091998 281.924162 
L 1073.330255 282.267682 
L 1074.568512 282.121155 
L 1075.80677 282.855901 
L 1077.045027 285.732402 
L 1078.283284 291.428136 
L 1080.759799 307.034441 
L 1081.998056 313.199527 
L 1083.236313 317.361665 
L 1084.474571 319.934043 
L 1085.712828 321.440706 
L 1086.951085 322.231936 
L 1089.4276 322.819506 
L 1090.665857 323.848728 
L 1091.904114 325.834866 
L 1093.142371 328.467499 
L 1096.857143 337.64945 
L 1098.0954 340.032183 
L 1100.571915 343.544546 
L 1101.810172 345.801057 
L 1105.524944 353.946361 
L 1106.763201 355.87274 
L 1108.001459 357.23233 
L 1110.477973 359.352177 
L 1114.192745 361.878286 
L 1115.431002 363.267251 
L 1116.669259 365.335241 
L 1119.145774 370.300481 
L 1120.384031 372.23051 
L 1121.622289 373.557495 
L 1124.098803 375.333419 
L 1125.33706 375.954832 
L 1126.575318 376.045136 
L 1127.813575 375.189346 
L 1129.051832 373.203763 
L 1131.528347 368.009135 
L 1132.766604 366.356465 
L 1134.004861 365.981273 
L 1135.243118 367.293461 
L 1136.481376 370.436001 
L 1140.196148 384.179358 
L 1141.434405 387.653018 
L 1142.672662 390.131769 
L 1143.910919 391.497079 
L 1145.149177 391.696345 
L 1147.625691 390.313498 
L 1148.863948 390.201199 
L 1150.102206 390.845809 
L 1152.57872 393.198358 
L 1153.816977 394.353298 
L 1155.055235 395.207458 
L 1157.531749 396.322598 
L 1160.008264 398.209044 
L 1161.246521 398.834632 
L 1162.484778 398.970541 
L 1163.723036 398.843213 
L 1164.961293 398.592417 
L 1166.19955 398.055746 
L 1167.437807 396.986179 
L 1169.914322 393.77023 
L 1171.152579 392.577755 
L 1172.390837 391.973345 
L 1173.629094 391.604382 
L 1174.867351 391.026795 
L 1176.105608 389.9747 
L 1178.582123 386.947774 
L 1179.82038 386.335921 
L 1181.058637 387.410962 
L 1182.296895 390.183436 
L 1184.773409 397.804717 
L 1187.249924 405.455593 
L 1188.488181 408.150925 
L 1189.726438 409.197439 
L 1190.964696 408.731512 
L 1192.202953 407.320948 
L 1193.44121 405.544056 
L 1194.679467 403.967605 
L 1195.917725 403.115627 
L 1197.155982 403.204679 
L 1198.394239 403.967931 
L 1199.632496 405.005629 
L 1200.870754 406.269843 
L 1202.109011 407.749447 
L 1203.347268 408.918396 
L 1204.585525 409.138169 
L 1205.823783 408.364326 
L 1207.06204 407.137954 
L 1208.300297 406.231762 
L 1209.538555 406.28324 
L 1212.015069 408.013516 
L 1213.253326 407.677783 
L 1214.491584 406.07487 
L 1216.968098 401.467601 
L 1219.444613 396.008332 
L 1220.68287 393.816487 
L 1221.921127 393.342724 
L 1223.159384 395.183087 
L 1226.874156 405.635839 
L 1228.112414 407.328931 
L 1229.350671 407.516811 
L 1230.588928 406.222505 
L 1233.065443 401.853267 
L 1234.3037 400.071503 
L 1235.541957 398.694603 
L 1236.780214 397.720388 
L 1238.018472 397.258669 
L 1240.494986 397.023618 
L 1241.733243 396.508925 
L 1242.971501 395.715173 
L 1244.209758 394.762252 
L 1245.448015 393.55334 
L 1246.686273 392.131945 
L 1247.92453 390.931293 
L 1249.162787 390.47755 
L 1250.401044 391.210134 
L 1251.639302 393.25562 
L 1252.877559 395.942535 
L 1254.115816 398.003099 
L 1255.354073 398.569016 
L 1256.592331 397.677685 
L 1257.830588 395.828691 
L 1259.068845 393.596473 
L 1260.307103 391.827048 
L 1261.54536 391.643026 
L 1262.783617 393.675807 
L 1265.260132 400.982239 
L 1266.498389 403.177329 
L 1267.736646 403.471449 
L 1268.974903 402.410609 
L 1270.213161 400.640213 
L 1272.689675 396.401476 
L 1273.927932 394.672794 
L 1275.16619 393.508698 
L 1276.404447 392.534054 
L 1278.880962 390.305101 
L 1280.119219 390.189539 
L 1281.357476 391.235953 
L 1282.595733 393.119468 
L 1283.833991 395.360388 
L 1285.072248 397.18995 
L 1286.310505 397.815035 
L 1287.548762 397.242774 
L 1288.78702 396.178456 
L 1290.025277 395.299148 
L 1291.263534 394.865254 
L 1292.501791 394.602994 
L 1293.740049 394.10768 
L 1294.978306 393.29772 
L 1296.216563 392.229255 
L 1299.931335 388.257421 
L 1301.169592 387.58605 
L 1302.40785 387.573915 
L 1304.884364 388.222268 
L 1307.360879 388.176769 
L 1308.599136 388.577186 
L 1309.837393 389.271943 
L 1312.313908 390.191329 
L 1313.552165 391.388283 
L 1314.790422 393.788351 
L 1316.02868 396.67923 
L 1317.266937 398.945963 
L 1318.505194 399.907343 
L 1319.743451 399.129004 
L 1320.981709 396.368159 
L 1323.458223 388.278722 
L 1324.69648 385.831421 
L 1325.934738 384.988429 
L 1327.172995 385.061838 
L 1329.649509 385.927484 
L 1330.887767 386.131358 
L 1332.126024 385.961034 
L 1333.364281 385.580646 
L 1334.602539 385.575409 
L 1335.840796 386.615989 
L 1337.079053 388.757514 
L 1338.31731 391.235478 
L 1339.555568 393.047672 
L 1340.793825 393.444991 
L 1342.032082 392.062544 
L 1343.270339 389.250114 
L 1344.508597 386.115477 
L 1345.746854 383.86026 
L 1346.985111 383.179774 
L 1348.223368 384.177283 
L 1350.699883 388.682995 
L 1351.93814 389.621056 
L 1353.176398 388.542522 
L 1354.414655 385.904069 
L 1355.652912 382.698871 
L 1356.891169 379.88776 
L 1358.129427 378.169015 
L 1359.367684 377.795904 
L 1360.605941 378.263252 
L 1361.844198 378.574269 
L 1363.082456 378.216539 
L 1365.55897 376.676104 
L 1366.797228 376.077584 
L 1370.511999 374.918455 
L 1371.750257 374.183911 
L 1372.988514 372.930753 
L 1374.226771 371.441146 
L 1375.465028 370.919317 
L 1376.703286 372.574437 
L 1377.941543 376.273332 
L 1379.1798 380.665536 
L 1380.418057 384.349424 
L 1381.656315 386.396487 
L 1382.894572 386.330085 
L 1384.132829 384.336104 
L 1385.371087 381.176906 
L 1386.609344 377.680262 
L 1387.847601 374.6014 
L 1389.085858 372.619881 
L 1390.324116 371.911393 
L 1391.562373 371.861041 
L 1392.80063 371.688139 
L 1394.038887 371.322328 
L 1395.277145 371.166032 
L 1396.515402 371.348787 
L 1397.753659 371.772632 
L 1398.991916 372.330773 
L 1400.230174 372.750981 
L 1401.468431 372.822011 
L 1403.944946 372.515401 
L 1405.183203 372.095916 
L 1406.42146 371.351969 
L 1410.136232 368.621256 
L 1411.374489 367.873429 
L 1412.612746 366.701412 
L 1413.851004 365.032038 
L 1415.089261 363.577549 
L 1416.327518 363.044925 
L 1420.04229 363.691246 
L 1421.280547 363.663178 
L 1422.518805 363.423081 
L 1423.757062 363.026368 
L 1424.995319 363.028241 
L 1426.233576 364.053935 
L 1427.471834 366.258971 
L 1428.710091 369.027013 
L 1429.948348 371.001059 
L 1431.186605 370.949265 
L 1432.424863 368.93034 
L 1433.66312 366.347969 
L 1434.901377 364.624 
L 1436.139634 364.071572 
L 1437.377892 364.256692 
L 1439.854406 365.107389 
L 1441.092664 365.241811 
L 1442.330921 365.54672 
L 1443.569178 366.497665 
L 1444.807435 367.819639 
L 1446.045693 368.555394 
L 1447.28395 367.898913 
L 1448.522207 365.871006 
L 1449.760464 363.265804 
L 1450.998722 360.943288 
L 1452.236979 359.134582 
L 1454.713494 356.109005 
L 1455.951751 355.07411 
L 1457.190008 354.663609 
L 1458.428265 354.728091 
L 1459.666523 355.093614 
L 1460.90478 355.825561 
L 1463.381294 357.821049 
L 1464.619552 358.342739 
L 1465.857809 358.237207 
L 1468.334323 356.924531 
L 1469.572581 357.31832 
L 1470.810838 359.299753 
L 1472.049095 362.246839 
L 1473.287353 364.625663 
L 1474.52561 365.315429 
L 1475.763867 364.662561 
L 1477.002124 363.854142 
L 1478.240382 363.527939 
L 1480.716896 363.362694 
L 1481.955153 362.886635 
L 1483.193411 361.581987 
L 1484.431668 358.576376 
L 1485.669925 353.420057 
L 1488.14644 340.092539 
L 1489.384697 334.44785 
L 1490.622954 330.842861 
L 1491.861212 329.872751 
L 1493.099469 331.577645 
L 1494.337726 335.278515 
L 1496.814241 344.232712 
L 1498.052498 347.649137 
L 1499.290755 349.296777 
L 1500.529012 348.541767 
L 1501.76727 345.332437 
L 1503.005527 340.902658 
L 1504.243784 337.513358 
L 1505.482041 336.755086 
L 1506.720299 338.752374 
L 1507.958556 342.704193 
L 1509.196813 347.288625 
L 1510.435071 351.064845 
L 1511.673328 353.053355 
L 1512.911585 353.076485 
L 1514.149842 351.535139 
L 1515.3881 348.874513 
L 1516.626357 345.327082 
L 1520.341129 332.484106 
L 1521.579386 329.746189 
L 1522.817643 328.703698 
L 1524.0559 329.388409 
L 1525.294158 331.11785 
L 1526.532415 332.535919 
L 1527.770672 332.14501 
L 1529.00893 329.276623 
L 1531.485444 320.110558 
L 1532.723701 316.780186 
L 1533.961959 315.017325 
L 1535.200216 314.480591 
L 1536.438473 314.941968 
L 1537.67673 316.36852 
L 1538.914988 318.39361 
L 1540.153245 320.136724 
L 1541.391502 320.62572 
L 1542.62976 319.522844 
L 1546.344531 313.35881 
L 1547.582789 311.046629 
L 1548.821046 307.679566 
L 1550.059303 302.645289 
L 1551.29756 296.055638 
L 1553.774075 282.216365 
L 1555.012332 277.279909 
L 1556.250589 274.902613 
L 1557.488847 275.717895 
L 1558.727104 279.304346 
L 1559.965361 283.82004 
L 1561.203619 287.268738 
L 1562.441876 288.745162 
L 1563.680133 288.608563 
L 1564.91839 288.092791 
L 1566.156648 288.483675 
L 1567.394905 290.40384 
L 1568.633162 293.708074 
L 1569.871419 297.642798 
L 1571.109677 301.055703 
L 1572.347934 302.838371 
L 1573.586191 302.675127 
L 1574.824448 301.502745 
L 1576.062706 300.66382 
L 1577.300963 300.610547 
L 1579.777478 301.186361 
L 1582.253992 301.195463 
L 1583.492249 301.099866 
L 1584.730507 300.344706 
L 1585.968764 298.067221 
L 1587.207021 293.622012 
L 1588.445278 286.88286 
L 1589.683536 278.12922 
L 1592.16005 258.558256 
L 1593.398307 251.364264 
L 1594.636565 247.135631 
L 1595.874822 244.908536 
L 1597.113079 243.44117 
L 1598.351337 242.489759 
L 1599.589594 242.625041 
L 1600.827851 243.982911 
L 1602.066108 245.878307 
L 1603.304366 247.209772 
L 1604.542623 246.837355 
L 1605.78088 244.535166 
L 1607.019137 241.480469 
L 1608.257395 238.842278 
L 1609.495652 236.555262 
L 1610.733909 233.982756 
L 1611.972166 230.696665 
L 1613.210424 226.137302 
L 1614.448681 219.458421 
L 1615.686938 561.202423 
L 1616.925196 200.530503 
L 1618.163453 192.480438 
L 1619.40171 188.854963 
L 1620.639967 189.478006 
L 1621.878225 190.991958 
L 1623.116482 189.389853 
L 1624.354739 182.77723 
L 1625.592996 171.727654 
L 1628.069511 143.10402 
L 1630.546026 114.212702 
L 1631.784283 102.301179 
L 1633.02254 93.157032 
L 1634.260797 87.322604 
L 1635.499055 85.012816 
L 1636.737312 85.032928 
L 1637.975569 84.141765 
L 1639.213826 78.303132 
L 1640.452084 65.589123 
L 1641.690341 47.979282 
L 1641.690341 47.979282 
" style="fill:none;stroke:#008000;stroke-linecap:square;stroke-width:1.5;"/>
   </g>
   <g id="patch_3">
    <path d="M 43.78125 586.86358 
L 43.78125 22.318125 
" style="fill:none;stroke:#000000;stroke-linecap:square;stroke-linejoin:miter;stroke-width:0.8;"/>
   </g>
   <g id="patch_4">
    <path d="M 1717.78125 586.86358 
L 1717.78125 22.318125 
" style="fill:none;stroke:#000000;stroke-linecap:square;stroke-linejoin:miter;stroke-width:0.8;"/>
   </g>
   <g id="patch_5">
    <path d="M 43.78125 586.86358 
L 1717.78125 586.86358 
" style="fill:none;stroke:#000000;stroke-linecap:square;stroke-linejoin:miter;stroke-width:0.8;"/>
   </g>
   <g id="patch_6">
    <path d="M 43.78125 22.318125 
L 1717.78125 22.318125 
" style="fill:none;stroke:#000000;stroke-linecap:square;stroke-linejoin:miter;stroke-width:0.8;"/>
   </g>
   <g id="text_16">
    <!-- before binarisation -->
    <g transform="translate(824.1825 16.318125)scale(0.12 -0.12)">
     <defs>
      <path d="M 3116 1747 
Q 3116 2381 2855 2742 
Q 2594 3103 2138 3103 
Q 1681 3103 1420 2742 
Q 1159 2381 1159 1747 
Q 1159 1113 1420 752 
Q 1681 391 2138 391 
Q 2594 391 2855 752 
Q 3116 1113 3116 1747 
z
M 1159 2969 
Q 1341 3281 1617 3432 
Q 1894 3584 2278 3584 
Q 2916 3584 3314 3078 
Q 3713 2572 3713 1747 
Q 3713 922 3314 415 
Q 2916 -91 2278 -91 
Q 1894 -91 1617 61 
Q 1341 213 1159 525 
L 1159 0 
L 581 0 
L 581 4863 
L 1159 4863 
L 1159 2969 
z
" id="DejaVuSans-62" transform="scale(0.015625)"/>
      <path d="M 1959 3097 
Q 1497 3097 1228 2736 
Q 959 2375 959 1747 
Q 959 1119 1226 758 
Q 1494 397 1959 397 
Q 2419 397 2687 759 
Q 2956 1122 2956 1747 
Q 2956 2369 2687 2733 
Q 2419 3097 1959 3097 
z
M 1959 3584 
Q 2709 3584 3137 3096 
Q 3566 2609 3566 1747 
Q 3566 888 3137 398 
Q 2709 -91 1959 -91 
Q 1206 -91 779 398 
Q 353 888 353 1747 
Q 353 2609 779 3096 
Q 1206 3584 1959 3584 
z
" id="DejaVuSans-6f" transform="scale(0.015625)"/>
      <path id="DejaVuSans-20" transform="scale(0.015625)"/>
      <path d="M 603 3500 
L 1178 3500 
L 1178 0 
L 603 0 
L 603 3500 
z
M 603 4863 
L 1178 4863 
L 1178 4134 
L 603 4134 
L 603 4863 
z
" id="DejaVuSans-69" transform="scale(0.015625)"/>
      <path d="M 3513 2113 
L 3513 0 
L 2938 0 
L 2938 2094 
Q 2938 2591 2744 2837 
Q 2550 3084 2163 3084 
Q 1697 3084 1428 2787 
Q 1159 2491 1159 1978 
L 1159 0 
L 581 0 
L 581 3500 
L 1159 3500 
L 1159 2956 
Q 1366 3272 1645 3428 
Q 1925 3584 2291 3584 
Q 2894 3584 3203 3211 
Q 3513 2838 3513 2113 
z
" id="DejaVuSans-6e" transform="scale(0.015625)"/>
      <path d="M 2834 3397 
L 2834 2853 
Q 2591 2978 2328 3040 
Q 2066 3103 1784 3103 
Q 1356 3103 1142 2972 
Q 928 2841 928 2578 
Q 928 2378 1081 2264 
Q 1234 2150 1697 2047 
L 1894 2003 
Q 2506 1872 2764 1633 
Q 3022 1394 3022 966 
Q 3022 478 2636 193 
Q 2250 -91 1575 -91 
Q 1294 -91 989 -36 
Q 684 19 347 128 
L 347 722 
Q 666 556 975 473 
Q 1284 391 1588 391 
Q 1994 391 2212 530 
Q 2431 669 2431 922 
Q 2431 1156 2273 1281 
Q 2116 1406 1581 1522 
L 1381 1569 
Q 847 1681 609 1914 
Q 372 2147 372 2553 
Q 372 3047 722 3315 
Q 1072 3584 1716 3584 
Q 2034 3584 2315 3537 
Q 2597 3491 2834 3397 
z
" id="DejaVuSans-73" transform="scale(0.015625)"/>
      <path d="M 1172 4494 
L 1172 3500 
L 2356 3500 
L 2356 3053 
L 1172 3053 
L 1172 1153 
Q 1172 725 1289 603 
Q 1406 481 1766 481 
L 2356 481 
L 2356 0 
L 1766 0 
Q 1100 0 847 248 
Q 594 497 594 1153 
L 594 3053 
L 172 3053 
L 172 3500 
L 594 3500 
L 594 4494 
L 1172 4494 
z
" id="DejaVuSans-74" transform="scale(0.015625)"/>
     </defs>
     <use xlink:href="#DejaVuSans-62"/>
     <use x="63.476562" xlink:href="#DejaVuSans-65"/>
     <use x="125" xlink:href="#DejaVuSans-66"/>
     <use x="160.205078" xlink:href="#DejaVuSans-6f"/>
     <use x="221.386719" xlink:href="#DejaVuSans-72"/>
     <use x="260.25" xlink:href="#DejaVuSans-65"/>
     <use x="321.773438" xlink:href="#DejaVuSans-20"/>
     <use x="353.560547" xlink:href="#DejaVuSans-62"/>
     <use x="417.037109" xlink:href="#DejaVuSans-69"/>
     <use x="444.820312" xlink:href="#DejaVuSans-6e"/>
     <use x="508.199219" xlink:href="#DejaVuSans-61"/>
     <use x="569.478516" xlink:href="#DejaVuSans-72"/>
     <use x="610.591797" xlink:href="#DejaVuSans-69"/>
     <use x="638.375" xlink:href="#DejaVuSans-73"/>
     <use x="690.474609" xlink:href="#DejaVuSans-61"/>
     <use x="751.753906" xlink:href="#DejaVuSans-74"/>
     <use x="790.962891" xlink:href="#DejaVuSans-69"/>
     <use x="818.746094" xlink:href="#DejaVuSans-6f"/>
     <use x="879.927734" xlink:href="#DejaVuSans-6e"/>
    </g>
   </g>
  </g>
  <g id="axes_2">
   <g id="patch_7">
    <path d="M 43.78125 1264.318125 
L 1717.78125 1264.318125 
L 1717.78125 699.77267 
L 43.78125 699.77267 
z
" style="fill:#ffffff;"/>
   </g>
   <g id="matplotlib.axis_3">
    <g id="xtick_8">
     <g id="line2d_15">
      <g>
       <use style="stroke:#000000;stroke-width:0.8;" x="119.872159" xlink:href="#mc21cd7498c" y="1264.318125"/>
      </g>
     </g>
     <g id="text_17">
      <!-- 0 -->
      <g transform="translate(116.690909 1278.916563)scale(0.1 -0.1)">
       <use xlink:href="#DejaVuSans-30"/>
      </g>
     </g>
    </g>
    <g id="xtick_9">
     <g id="line2d_16">
      <g>
       <use style="stroke:#000000;stroke-width:0.8;" x="367.523613" xlink:href="#mc21cd7498c" y="1264.318125"/>
      </g>
     </g>
     <g id="text_18">
      <!-- 200 -->
      <g transform="translate(357.979863 1278.916563)scale(0.1 -0.1)">
       <use xlink:href="#DejaVuSans-32"/>
       <use x="63.623047" xlink:href="#DejaVuSans-30"/>
       <use x="127.246094" xlink:href="#DejaVuSans-30"/>
      </g>
     </g>
    </g>
    <g id="xtick_10">
     <g id="line2d_17">
      <g>
       <use style="stroke:#000000;stroke-width:0.8;" x="615.175066" xlink:href="#mc21cd7498c" y="1264.318125"/>
      </g>
     </g>
     <g id="text_19">
      <!-- 400 -->
      <g transform="translate(605.631316 1278.916563)scale(0.1 -0.1)">
       <use xlink:href="#DejaVuSans-34"/>
       <use x="63.623047" xlink:href="#DejaVuSans-30"/>
       <use x="127.246094" xlink:href="#DejaVuSans-30"/>
      </g>
     </g>
    </g>
    <g id="xtick_11">
     <g id="line2d_18">
      <g>
       <use style="stroke:#000000;stroke-width:0.8;" x="862.82652" xlink:href="#mc21cd7498c" y="1264.318125"/>
      </g>
     </g>
     <g id="text_20">
      <!-- 600 -->
      <g transform="translate(853.28277 1278.916563)scale(0.1 -0.1)">
       <use xlink:href="#DejaVuSans-36"/>
       <use x="63.623047" xlink:href="#DejaVuSans-30"/>
       <use x="127.246094" xlink:href="#DejaVuSans-30"/>
      </g>
     </g>
    </g>
    <g id="xtick_12">
     <g id="line2d_19">
      <g>
       <use style="stroke:#000000;stroke-width:0.8;" x="1110.477973" xlink:href="#mc21cd7498c" y="1264.318125"/>
      </g>
     </g>
     <g id="text_21">
      <!-- 800 -->
      <g transform="translate(1100.934223 1278.916563)scale(0.1 -0.1)">
       <use xlink:href="#DejaVuSans-38"/>
       <use x="63.623047" xlink:href="#DejaVuSans-30"/>
       <use x="127.246094" xlink:href="#DejaVuSans-30"/>
      </g>
     </g>
    </g>
    <g id="xtick_13">
     <g id="line2d_20">
      <g>
       <use style="stroke:#000000;stroke-width:0.8;" x="1358.129427" xlink:href="#mc21cd7498c" y="1264.318125"/>
      </g>
     </g>
     <g id="text_22">
      <!-- 1000 -->
      <g transform="translate(1345.404427 1278.916563)scale(0.1 -0.1)">
       <use xlink:href="#DejaVuSans-31"/>
       <use x="63.623047" xlink:href="#DejaVuSans-30"/>
       <use x="127.246094" xlink:href="#DejaVuSans-30"/>
       <use x="190.869141" xlink:href="#DejaVuSans-30"/>
      </g>
     </g>
    </g>
    <g id="xtick_14">
     <g id="line2d_21">
      <g>
       <use style="stroke:#000000;stroke-width:0.8;" x="1605.78088" xlink:href="#mc21cd7498c" y="1264.318125"/>
      </g>
     </g>
     <g id="text_23">
      <!-- 1200 -->
      <g transform="translate(1593.05588 1278.916563)scale(0.1 -0.1)">
       <use xlink:href="#DejaVuSans-31"/>
       <use x="63.623047" xlink:href="#DejaVuSans-32"/>
       <use x="127.246094" xlink:href="#DejaVuSans-30"/>
       <use x="190.869141" xlink:href="#DejaVuSans-30"/>
      </g>
     </g>
    </g>
    <g id="text_24">
     <!-- frame -->
     <g transform="translate(865.954687 1292.594688)scale(0.1 -0.1)">
      <use xlink:href="#DejaVuSans-66"/>
      <use x="35.205078" xlink:href="#DejaVuSans-72"/>
      <use x="76.318359" xlink:href="#DejaVuSans-61"/>
      <use x="137.597656" xlink:href="#DejaVuSans-6d"/>
      <use x="235.009766" xlink:href="#DejaVuSans-65"/>
     </g>
    </g>
   </g>
   <g id="matplotlib.axis_4">
    <g id="ytick_7">
     <g id="line2d_22">
      <g>
       <use style="stroke:#000000;stroke-width:0.8;" x="43.78125" xlink:href="#ma4ad74fcfb" y="1238.656968"/>
      </g>
     </g>
     <g id="text_25">
      <!-- 0.0 -->
      <g transform="translate(20.878125 1242.456187)scale(0.1 -0.1)">
       <defs>
        <path d="M 684 794 
L 1344 794 
L 1344 0 
L 684 0 
L 684 794 
z
" id="DejaVuSans-2e" transform="scale(0.015625)"/>
       </defs>
       <use xlink:href="#DejaVuSans-30"/>
       <use x="63.623047" xlink:href="#DejaVuSans-2e"/>
       <use x="95.410156" xlink:href="#DejaVuSans-30"/>
      </g>
     </g>
    </g>
    <g id="ytick_8">
     <g id="line2d_23">
      <g>
       <use style="stroke:#000000;stroke-width:0.8;" x="43.78125" xlink:href="#ma4ad74fcfb" y="1136.01234"/>
      </g>
     </g>
     <g id="text_26">
      <!-- 0.2 -->
      <g transform="translate(20.878125 1139.811559)scale(0.1 -0.1)">
       <use xlink:href="#DejaVuSans-30"/>
       <use x="63.623047" xlink:href="#DejaVuSans-2e"/>
       <use x="95.410156" xlink:href="#DejaVuSans-32"/>
      </g>
     </g>
    </g>
    <g id="ytick_9">
     <g id="line2d_24">
      <g>
       <use style="stroke:#000000;stroke-width:0.8;" x="43.78125" xlink:href="#ma4ad74fcfb" y="1033.367712"/>
      </g>
     </g>
     <g id="text_27">
      <!-- 0.4 -->
      <g transform="translate(20.878125 1037.166931)scale(0.1 -0.1)">
       <use xlink:href="#DejaVuSans-30"/>
       <use x="63.623047" xlink:href="#DejaVuSans-2e"/>
       <use x="95.410156" xlink:href="#DejaVuSans-34"/>
      </g>
     </g>
    </g>
    <g id="ytick_10">
     <g id="line2d_25">
      <g>
       <use style="stroke:#000000;stroke-width:0.8;" x="43.78125" xlink:href="#ma4ad74fcfb" y="930.723084"/>
      </g>
     </g>
     <g id="text_28">
      <!-- 0.6 -->
      <g transform="translate(20.878125 934.522302)scale(0.1 -0.1)">
       <use xlink:href="#DejaVuSans-30"/>
       <use x="63.623047" xlink:href="#DejaVuSans-2e"/>
       <use x="95.410156" xlink:href="#DejaVuSans-36"/>
      </g>
     </g>
    </g>
    <g id="ytick_11">
     <g id="line2d_26">
      <g>
       <use style="stroke:#000000;stroke-width:0.8;" x="43.78125" xlink:href="#ma4ad74fcfb" y="828.078456"/>
      </g>
     </g>
     <g id="text_29">
      <!-- 0.8 -->
      <g transform="translate(20.878125 831.877674)scale(0.1 -0.1)">
       <use xlink:href="#DejaVuSans-30"/>
       <use x="63.623047" xlink:href="#DejaVuSans-2e"/>
       <use x="95.410156" xlink:href="#DejaVuSans-38"/>
      </g>
     </g>
    </g>
    <g id="ytick_12">
     <g id="line2d_27">
      <g>
       <use style="stroke:#000000;stroke-width:0.8;" x="43.78125" xlink:href="#ma4ad74fcfb" y="725.433827"/>
      </g>
     </g>
     <g id="text_30">
      <!-- 1.0 -->
      <g transform="translate(20.878125 729.233046)scale(0.1 -0.1)">
       <use xlink:href="#DejaVuSans-31"/>
       <use x="63.623047" xlink:href="#DejaVuSans-2e"/>
       <use x="95.410156" xlink:href="#DejaVuSans-30"/>
      </g>
     </g>
    </g>
    <g id="text_31">
     <!-- GCaMP -->
     <g transform="translate(14.798437 999.803991)rotate(-90)scale(0.1 -0.1)">
      <use xlink:href="#DejaVuSans-47"/>
      <use x="77.490234" xlink:href="#DejaVuSans-43"/>
      <use x="147.314453" xlink:href="#DejaVuSans-61"/>
      <use x="208.59375" xlink:href="#DejaVuSans-4d"/>
      <use x="294.873047" xlink:href="#DejaVuSans-50"/>
     </g>
    </g>
   </g>
   <g id="line2d_28">
    <path clip-path="url(#p951bb38dd6)" d="M 119.872159 1238.656968 
L 647.369755 1238.656968 
L 648.608012 725.433827 
L 793.484113 725.433827 
L 794.72237 1238.656968 
L 981.699217 1238.656968 
L 982.937475 725.433827 
L 984.175732 725.433827 
L 985.413989 1238.656968 
L 994.08179 1238.656968 
L 995.320047 725.433827 
L 999.034819 725.433827 
L 1000.273076 1238.656968 
L 1008.940877 1238.656968 
L 1010.179134 725.433827 
L 1068.377226 725.433827 
L 1069.615483 1238.656968 
L 1589.683536 1238.656968 
L 1590.921793 725.433827 
L 1614.448681 725.433827 
L 1615.686938 1238.656968 
L 1616.925196 725.433827 
L 1641.690341 725.433827 
L 1641.690341 725.433827 
" style="fill:none;stroke:#008000;stroke-linecap:square;stroke-width:1.5;"/>
   </g>
   <g id="patch_8">
    <path d="M 43.78125 1264.318125 
L 43.78125 699.77267 
" style="fill:none;stroke:#000000;stroke-linecap:square;stroke-linejoin:miter;stroke-width:0.8;"/>
   </g>
   <g id="patch_9">
    <path d="M 1717.78125 1264.318125 
L 1717.78125 699.77267 
" style="fill:none;stroke:#000000;stroke-linecap:square;stroke-linejoin:miter;stroke-width:0.8;"/>
   </g>
   <g id="patch_10">
    <path d="M 43.78125 1264.318125 
L 1717.78125 1264.318125 
" style="fill:none;stroke:#000000;stroke-linecap:square;stroke-linejoin:miter;stroke-width:0.8;"/>
   </g>
   <g id="patch_11">
    <path d="M 43.78125 699.77267 
L 1717.78125 699.77267 
" style="fill:none;stroke:#000000;stroke-linecap:square;stroke-linejoin:miter;stroke-width:0.8;"/>
   </g>
   <g id="text_32">
    <!-- before binarisation -->
    <g transform="translate(824.1825 693.77267)scale(0.12 -0.12)">
     <use xlink:href="#DejaVuSans-62"/>
     <use x="63.476562" xlink:href="#DejaVuSans-65"/>
     <use x="125" xlink:href="#DejaVuSans-66"/>
     <use x="160.205078" xlink:href="#DejaVuSans-6f"/>
     <use x="221.386719" xlink:href="#DejaVuSans-72"/>
     <use x="260.25" xlink:href="#DejaVuSans-65"/>
     <use x="321.773438" xlink:href="#DejaVuSans-20"/>
     <use x="353.560547" xlink:href="#DejaVuSans-62"/>
     <use x="417.037109" xlink:href="#DejaVuSans-69"/>
     <use x="444.820312" xlink:href="#DejaVuSans-6e"/>
     <use x="508.199219" xlink:href="#DejaVuSans-61"/>
     <use x="569.478516" xlink:href="#DejaVuSans-72"/>
     <use x="610.591797" xlink:href="#DejaVuSans-69"/>
     <use x="638.375" xlink:href="#DejaVuSans-73"/>
     <use x="690.474609" xlink:href="#DejaVuSans-61"/>
     <use x="751.753906" xlink:href="#DejaVuSans-74"/>
     <use x="790.962891" xlink:href="#DejaVuSans-69"/>
     <use x="818.746094" xlink:href="#DejaVuSans-6f"/>
     <use x="879.927734" xlink:href="#DejaVuSans-6e"/>
    </g>
   </g>
  </g>
 </g>
 <defs>
  <clipPath id="pd1a81e60af">
   <rect height="564.545455" width="1674" x="43.78125" y="22.318125"/>
  </clipPath>
  <clipPath id="p951bb38dd6">
   <rect height="564.545455" width="1674" x="43.78125" y="699.77267"/>
  </clipPath>
 </defs>
</svg>
