<?xml version="1.0" encoding="utf-8" standalone="no"?>
<!DOCTYPE svg PUBLIC "-//W3C//DTD SVG 1.1//EN"
  "http://www.w3.org/Graphics/SVG/1.1/DTD/svg11.dtd">
<svg height="1301.874375pt" version="1.1" viewBox="0 0 1724.98125 1301.874375" width="1724.98125pt" xmlns="http://www.w3.org/2000/svg" xmlns:xlink="http://www.w3.org/1999/xlink">
 <metadata>
  <rdf:RDF xmlns:cc="http://creativecommons.org/ns#" xmlns:dc="http://purl.org/dc/elements/1.1/" xmlns:rdf="http://www.w3.org/1999/02/22-rdf-syntax-ns#">
   <cc:Work>
    <dc:type rdf:resource="http://purl.org/dc/dcmitype/StillImage"/>
    <dc:date>2022-07-24T15:54:30.939342</dc:date>
    <dc:format>image/svg+xml</dc:format>
    <dc:creator>
     <cc:Agent>
      <dc:title>Matplotlib v3.4.2, https://matplotlib.org/</dc:title>
     </cc:Agent>
    </dc:creator>
   </cc:Work>
  </rdf:RDF>
 </metadata>
 <defs>
  <style type="text/css">*{stroke-linecap:butt;stroke-linejoin:round;}</style>
 </defs>
 <g id="figure_1">
  <g id="patch_1">
   <path d="M 0 1301.874375 
L 1724.98125 1301.874375 
L 1724.98125 0 
L 0 0 
z
" style="fill:#ffffff;"/>
  </g>
  <g id="axes_1">
   <g id="patch_2">
    <path d="M 43.78125 586.86358 
L 1717.78125 586.86358 
L 1717.78125 22.318125 
L 43.78125 22.318125 
z
" style="fill:#ffffff;"/>
   </g>
   <g id="matplotlib.axis_1">
    <g id="xtick_1">
     <g id="line2d_1">
      <defs>
       <path d="M 0 0 
L 0 3.5 
" id="m1e07894f26" style="stroke:#000000;stroke-width:0.8;"/>
      </defs>
      <g>
       <use style="stroke:#000000;stroke-width:0.8;" x="119.872159" xlink:href="#m1e07894f26" y="586.86358"/>
      </g>
     </g>
     <g id="text_1">
      <!-- 0 -->
      <g transform="translate(116.690909 601.462017)scale(0.1 -0.1)">
       <defs>
        <path d="M 2034 4250 
Q 1547 4250 1301 3770 
Q 1056 3291 1056 2328 
Q 1056 1369 1301 889 
Q 1547 409 2034 409 
Q 2525 409 2770 889 
Q 3016 1369 3016 2328 
Q 3016 3291 2770 3770 
Q 2525 4250 2034 4250 
z
M 2034 4750 
Q 2819 4750 3233 4129 
Q 3647 3509 3647 2328 
Q 3647 1150 3233 529 
Q 2819 -91 2034 -91 
Q 1250 -91 836 529 
Q 422 1150 422 2328 
Q 422 3509 836 4129 
Q 1250 4750 2034 4750 
z
" id="DejaVuSans-30" transform="scale(0.015625)"/>
       </defs>
       <use xlink:href="#DejaVuSans-30"/>
      </g>
     </g>
    </g>
    <g id="xtick_2">
     <g id="line2d_2">
      <g>
       <use style="stroke:#000000;stroke-width:0.8;" x="367.523613" xlink:href="#m1e07894f26" y="586.86358"/>
      </g>
     </g>
     <g id="text_2">
      <!-- 200 -->
      <g transform="translate(357.979863 601.462017)scale(0.1 -0.1)">
       <defs>
        <path d="M 1228 531 
L 3431 531 
L 3431 0 
L 469 0 
L 469 531 
Q 828 903 1448 1529 
Q 2069 2156 2228 2338 
Q 2531 2678 2651 2914 
Q 2772 3150 2772 3378 
Q 2772 3750 2511 3984 
Q 2250 4219 1831 4219 
Q 1534 4219 1204 4116 
Q 875 4013 500 3803 
L 500 4441 
Q 881 4594 1212 4672 
Q 1544 4750 1819 4750 
Q 2544 4750 2975 4387 
Q 3406 4025 3406 3419 
Q 3406 3131 3298 2873 
Q 3191 2616 2906 2266 
Q 2828 2175 2409 1742 
Q 1991 1309 1228 531 
z
" id="DejaVuSans-32" transform="scale(0.015625)"/>
       </defs>
       <use xlink:href="#DejaVuSans-32"/>
       <use x="63.623047" xlink:href="#DejaVuSans-30"/>
       <use x="127.246094" xlink:href="#DejaVuSans-30"/>
      </g>
     </g>
    </g>
    <g id="xtick_3">
     <g id="line2d_3">
      <g>
       <use style="stroke:#000000;stroke-width:0.8;" x="615.175066" xlink:href="#m1e07894f26" y="586.86358"/>
      </g>
     </g>
     <g id="text_3">
      <!-- 400 -->
      <g transform="translate(605.631316 601.462017)scale(0.1 -0.1)">
       <defs>
        <path d="M 2419 4116 
L 825 1625 
L 2419 1625 
L 2419 4116 
z
M 2253 4666 
L 3047 4666 
L 3047 1625 
L 3713 1625 
L 3713 1100 
L 3047 1100 
L 3047 0 
L 2419 0 
L 2419 1100 
L 313 1100 
L 313 1709 
L 2253 4666 
z
" id="DejaVuSans-34" transform="scale(0.015625)"/>
       </defs>
       <use xlink:href="#DejaVuSans-34"/>
       <use x="63.623047" xlink:href="#DejaVuSans-30"/>
       <use x="127.246094" xlink:href="#DejaVuSans-30"/>
      </g>
     </g>
    </g>
    <g id="xtick_4">
     <g id="line2d_4">
      <g>
       <use style="stroke:#000000;stroke-width:0.8;" x="862.82652" xlink:href="#m1e07894f26" y="586.86358"/>
      </g>
     </g>
     <g id="text_4">
      <!-- 600 -->
      <g transform="translate(853.28277 601.462017)scale(0.1 -0.1)">
       <defs>
        <path d="M 2113 2584 
Q 1688 2584 1439 2293 
Q 1191 2003 1191 1497 
Q 1191 994 1439 701 
Q 1688 409 2113 409 
Q 2538 409 2786 701 
Q 3034 994 3034 1497 
Q 3034 2003 2786 2293 
Q 2538 2584 2113 2584 
z
M 3366 4563 
L 3366 3988 
Q 3128 4100 2886 4159 
Q 2644 4219 2406 4219 
Q 1781 4219 1451 3797 
Q 1122 3375 1075 2522 
Q 1259 2794 1537 2939 
Q 1816 3084 2150 3084 
Q 2853 3084 3261 2657 
Q 3669 2231 3669 1497 
Q 3669 778 3244 343 
Q 2819 -91 2113 -91 
Q 1303 -91 875 529 
Q 447 1150 447 2328 
Q 447 3434 972 4092 
Q 1497 4750 2381 4750 
Q 2619 4750 2861 4703 
Q 3103 4656 3366 4563 
z
" id="DejaVuSans-36" transform="scale(0.015625)"/>
       </defs>
       <use xlink:href="#DejaVuSans-36"/>
       <use x="63.623047" xlink:href="#DejaVuSans-30"/>
       <use x="127.246094" xlink:href="#DejaVuSans-30"/>
      </g>
     </g>
    </g>
    <g id="xtick_5">
     <g id="line2d_5">
      <g>
       <use style="stroke:#000000;stroke-width:0.8;" x="1110.477973" xlink:href="#m1e07894f26" y="586.86358"/>
      </g>
     </g>
     <g id="text_5">
      <!-- 800 -->
      <g transform="translate(1100.934223 601.462017)scale(0.1 -0.1)">
       <defs>
        <path d="M 2034 2216 
Q 1584 2216 1326 1975 
Q 1069 1734 1069 1313 
Q 1069 891 1326 650 
Q 1584 409 2034 409 
Q 2484 409 2743 651 
Q 3003 894 3003 1313 
Q 3003 1734 2745 1975 
Q 2488 2216 2034 2216 
z
M 1403 2484 
Q 997 2584 770 2862 
Q 544 3141 544 3541 
Q 544 4100 942 4425 
Q 1341 4750 2034 4750 
Q 2731 4750 3128 4425 
Q 3525 4100 3525 3541 
Q 3525 3141 3298 2862 
Q 3072 2584 2669 2484 
Q 3125 2378 3379 2068 
Q 3634 1759 3634 1313 
Q 3634 634 3220 271 
Q 2806 -91 2034 -91 
Q 1263 -91 848 271 
Q 434 634 434 1313 
Q 434 1759 690 2068 
Q 947 2378 1403 2484 
z
M 1172 3481 
Q 1172 3119 1398 2916 
Q 1625 2713 2034 2713 
Q 2441 2713 2670 2916 
Q 2900 3119 2900 3481 
Q 2900 3844 2670 4047 
Q 2441 4250 2034 4250 
Q 1625 4250 1398 4047 
Q 1172 3844 1172 3481 
z
" id="DejaVuSans-38" transform="scale(0.015625)"/>
       </defs>
       <use xlink:href="#DejaVuSans-38"/>
       <use x="63.623047" xlink:href="#DejaVuSans-30"/>
       <use x="127.246094" xlink:href="#DejaVuSans-30"/>
      </g>
     </g>
    </g>
    <g id="xtick_6">
     <g id="line2d_6">
      <g>
       <use style="stroke:#000000;stroke-width:0.8;" x="1358.129427" xlink:href="#m1e07894f26" y="586.86358"/>
      </g>
     </g>
     <g id="text_6">
      <!-- 1000 -->
      <g transform="translate(1345.404427 601.462017)scale(0.1 -0.1)">
       <defs>
        <path d="M 794 531 
L 1825 531 
L 1825 4091 
L 703 3866 
L 703 4441 
L 1819 4666 
L 2450 4666 
L 2450 531 
L 3481 531 
L 3481 0 
L 794 0 
L 794 531 
z
" id="DejaVuSans-31" transform="scale(0.015625)"/>
       </defs>
       <use xlink:href="#DejaVuSans-31"/>
       <use x="63.623047" xlink:href="#DejaVuSans-30"/>
       <use x="127.246094" xlink:href="#DejaVuSans-30"/>
       <use x="190.869141" xlink:href="#DejaVuSans-30"/>
      </g>
     </g>
    </g>
    <g id="xtick_7">
     <g id="line2d_7">
      <g>
       <use style="stroke:#000000;stroke-width:0.8;" x="1605.78088" xlink:href="#m1e07894f26" y="586.86358"/>
      </g>
     </g>
     <g id="text_7">
      <!-- 1200 -->
      <g transform="translate(1593.05588 601.462017)scale(0.1 -0.1)">
       <use xlink:href="#DejaVuSans-31"/>
       <use x="63.623047" xlink:href="#DejaVuSans-32"/>
       <use x="127.246094" xlink:href="#DejaVuSans-30"/>
       <use x="190.869141" xlink:href="#DejaVuSans-30"/>
      </g>
     </g>
    </g>
    <g id="text_8">
     <!-- frame -->
     <g transform="translate(865.954687 615.140142)scale(0.1 -0.1)">
      <defs>
       <path d="M 2375 4863 
L 2375 4384 
L 1825 4384 
Q 1516 4384 1395 4259 
Q 1275 4134 1275 3809 
L 1275 3500 
L 2222 3500 
L 2222 3053 
L 1275 3053 
L 1275 0 
L 697 0 
L 697 3053 
L 147 3053 
L 147 3500 
L 697 3500 
L 697 3744 
Q 697 4328 969 4595 
Q 1241 4863 1831 4863 
L 2375 4863 
z
" id="DejaVuSans-66" transform="scale(0.015625)"/>
       <path d="M 2631 2963 
Q 2534 3019 2420 3045 
Q 2306 3072 2169 3072 
Q 1681 3072 1420 2755 
Q 1159 2438 1159 1844 
L 1159 0 
L 581 0 
L 581 3500 
L 1159 3500 
L 1159 2956 
Q 1341 3275 1631 3429 
Q 1922 3584 2338 3584 
Q 2397 3584 2469 3576 
Q 2541 3569 2628 3553 
L 2631 2963 
z
" id="DejaVuSans-72" transform="scale(0.015625)"/>
       <path d="M 2194 1759 
Q 1497 1759 1228 1600 
Q 959 1441 959 1056 
Q 959 750 1161 570 
Q 1363 391 1709 391 
Q 2188 391 2477 730 
Q 2766 1069 2766 1631 
L 2766 1759 
L 2194 1759 
z
M 3341 1997 
L 3341 0 
L 2766 0 
L 2766 531 
Q 2569 213 2275 61 
Q 1981 -91 1556 -91 
Q 1019 -91 701 211 
Q 384 513 384 1019 
Q 384 1609 779 1909 
Q 1175 2209 1959 2209 
L 2766 2209 
L 2766 2266 
Q 2766 2663 2505 2880 
Q 2244 3097 1772 3097 
Q 1472 3097 1187 3025 
Q 903 2953 641 2809 
L 641 3341 
Q 956 3463 1253 3523 
Q 1550 3584 1831 3584 
Q 2591 3584 2966 3190 
Q 3341 2797 3341 1997 
z
" id="DejaVuSans-61" transform="scale(0.015625)"/>
       <path d="M 3328 2828 
Q 3544 3216 3844 3400 
Q 4144 3584 4550 3584 
Q 5097 3584 5394 3201 
Q 5691 2819 5691 2113 
L 5691 0 
L 5113 0 
L 5113 2094 
Q 5113 2597 4934 2840 
Q 4756 3084 4391 3084 
Q 3944 3084 3684 2787 
Q 3425 2491 3425 1978 
L 3425 0 
L 2847 0 
L 2847 2094 
Q 2847 2600 2669 2842 
Q 2491 3084 2119 3084 
Q 1678 3084 1418 2786 
Q 1159 2488 1159 1978 
L 1159 0 
L 581 0 
L 581 3500 
L 1159 3500 
L 1159 2956 
Q 1356 3278 1631 3431 
Q 1906 3584 2284 3584 
Q 2666 3584 2933 3390 
Q 3200 3197 3328 2828 
z
" id="DejaVuSans-6d" transform="scale(0.015625)"/>
       <path d="M 3597 1894 
L 3597 1613 
L 953 1613 
Q 991 1019 1311 708 
Q 1631 397 2203 397 
Q 2534 397 2845 478 
Q 3156 559 3463 722 
L 3463 178 
Q 3153 47 2828 -22 
Q 2503 -91 2169 -91 
Q 1331 -91 842 396 
Q 353 884 353 1716 
Q 353 2575 817 3079 
Q 1281 3584 2069 3584 
Q 2775 3584 3186 3129 
Q 3597 2675 3597 1894 
z
M 3022 2063 
Q 3016 2534 2758 2815 
Q 2500 3097 2075 3097 
Q 1594 3097 1305 2825 
Q 1016 2553 972 2059 
L 3022 2063 
z
" id="DejaVuSans-65" transform="scale(0.015625)"/>
      </defs>
      <use xlink:href="#DejaVuSans-66"/>
      <use x="35.205078" xlink:href="#DejaVuSans-72"/>
      <use x="76.318359" xlink:href="#DejaVuSans-61"/>
      <use x="137.597656" xlink:href="#DejaVuSans-6d"/>
      <use x="235.009766" xlink:href="#DejaVuSans-65"/>
     </g>
    </g>
   </g>
   <g id="matplotlib.axis_2">
    <g id="ytick_1">
     <g id="line2d_8">
      <defs>
       <path d="M 0 0 
L -3.5 0 
" id="m23a84fe6db" style="stroke:#000000;stroke-width:0.8;"/>
      </defs>
      <g>
       <use style="stroke:#000000;stroke-width:0.8;" x="43.78125" xlink:href="#m23a84fe6db" y="556.60166"/>
      </g>
     </g>
     <g id="text_9">
      <!-- 0.6 -->
      <g transform="translate(20.878125 560.400879)scale(0.1 -0.1)">
       <defs>
        <path d="M 684 794 
L 1344 794 
L 1344 0 
L 684 0 
L 684 794 
z
" id="DejaVuSans-2e" transform="scale(0.015625)"/>
       </defs>
       <use xlink:href="#DejaVuSans-30"/>
       <use x="63.623047" xlink:href="#DejaVuSans-2e"/>
       <use x="95.410156" xlink:href="#DejaVuSans-36"/>
      </g>
     </g>
    </g>
    <g id="ytick_2">
     <g id="line2d_9">
      <g>
       <use style="stroke:#000000;stroke-width:0.8;" x="43.78125" xlink:href="#m23a84fe6db" y="448.895528"/>
      </g>
     </g>
     <g id="text_10">
      <!-- 0.8 -->
      <g transform="translate(20.878125 452.694746)scale(0.1 -0.1)">
       <use xlink:href="#DejaVuSans-30"/>
       <use x="63.623047" xlink:href="#DejaVuSans-2e"/>
       <use x="95.410156" xlink:href="#DejaVuSans-38"/>
      </g>
     </g>
    </g>
    <g id="ytick_3">
     <g id="line2d_10">
      <g>
       <use style="stroke:#000000;stroke-width:0.8;" x="43.78125" xlink:href="#m23a84fe6db" y="341.189395"/>
      </g>
     </g>
     <g id="text_11">
      <!-- 1.0 -->
      <g transform="translate(20.878125 344.988614)scale(0.1 -0.1)">
       <use xlink:href="#DejaVuSans-31"/>
       <use x="63.623047" xlink:href="#DejaVuSans-2e"/>
       <use x="95.410156" xlink:href="#DejaVuSans-30"/>
      </g>
     </g>
    </g>
    <g id="ytick_4">
     <g id="line2d_11">
      <g>
       <use style="stroke:#000000;stroke-width:0.8;" x="43.78125" xlink:href="#m23a84fe6db" y="233.483262"/>
      </g>
     </g>
     <g id="text_12">
      <!-- 1.2 -->
      <g transform="translate(20.878125 237.282481)scale(0.1 -0.1)">
       <use xlink:href="#DejaVuSans-31"/>
       <use x="63.623047" xlink:href="#DejaVuSans-2e"/>
       <use x="95.410156" xlink:href="#DejaVuSans-32"/>
      </g>
     </g>
    </g>
    <g id="ytick_5">
     <g id="line2d_12">
      <g>
       <use style="stroke:#000000;stroke-width:0.8;" x="43.78125" xlink:href="#m23a84fe6db" y="125.77713"/>
      </g>
     </g>
     <g id="text_13">
      <!-- 1.4 -->
      <g transform="translate(20.878125 129.576349)scale(0.1 -0.1)">
       <use xlink:href="#DejaVuSans-31"/>
       <use x="63.623047" xlink:href="#DejaVuSans-2e"/>
       <use x="95.410156" xlink:href="#DejaVuSans-34"/>
      </g>
     </g>
    </g>
    <g id="text_14">
     <!-- GCaMP -->
     <g transform="translate(14.798437 322.349446)rotate(-90)scale(0.1 -0.1)">
      <defs>
       <path d="M 3809 666 
L 3809 1919 
L 2778 1919 
L 2778 2438 
L 4434 2438 
L 4434 434 
Q 4069 175 3628 42 
Q 3188 -91 2688 -91 
Q 1594 -91 976 548 
Q 359 1188 359 2328 
Q 359 3472 976 4111 
Q 1594 4750 2688 4750 
Q 3144 4750 3555 4637 
Q 3966 4525 4313 4306 
L 4313 3634 
Q 3963 3931 3569 4081 
Q 3175 4231 2741 4231 
Q 1884 4231 1454 3753 
Q 1025 3275 1025 2328 
Q 1025 1384 1454 906 
Q 1884 428 2741 428 
Q 3075 428 3337 486 
Q 3600 544 3809 666 
z
" id="DejaVuSans-47" transform="scale(0.015625)"/>
       <path d="M 4122 4306 
L 4122 3641 
Q 3803 3938 3442 4084 
Q 3081 4231 2675 4231 
Q 1875 4231 1450 3742 
Q 1025 3253 1025 2328 
Q 1025 1406 1450 917 
Q 1875 428 2675 428 
Q 3081 428 3442 575 
Q 3803 722 4122 1019 
L 4122 359 
Q 3791 134 3420 21 
Q 3050 -91 2638 -91 
Q 1578 -91 968 557 
Q 359 1206 359 2328 
Q 359 3453 968 4101 
Q 1578 4750 2638 4750 
Q 3056 4750 3426 4639 
Q 3797 4528 4122 4306 
z
" id="DejaVuSans-43" transform="scale(0.015625)"/>
       <path d="M 628 4666 
L 1569 4666 
L 2759 1491 
L 3956 4666 
L 4897 4666 
L 4897 0 
L 4281 0 
L 4281 4097 
L 3078 897 
L 2444 897 
L 1241 4097 
L 1241 0 
L 628 0 
L 628 4666 
z
" id="DejaVuSans-4d" transform="scale(0.015625)"/>
       <path d="M 1259 4147 
L 1259 2394 
L 2053 2394 
Q 2494 2394 2734 2622 
Q 2975 2850 2975 3272 
Q 2975 3691 2734 3919 
Q 2494 4147 2053 4147 
L 1259 4147 
z
M 628 4666 
L 2053 4666 
Q 2838 4666 3239 4311 
Q 3641 3956 3641 3272 
Q 3641 2581 3239 2228 
Q 2838 1875 2053 1875 
L 1259 1875 
L 1259 0 
L 628 0 
L 628 4666 
z
" id="DejaVuSans-50" transform="scale(0.015625)"/>
      </defs>
      <use xlink:href="#DejaVuSans-47"/>
      <use x="77.490234" xlink:href="#DejaVuSans-43"/>
      <use x="147.314453" xlink:href="#DejaVuSans-61"/>
      <use x="208.59375" xlink:href="#DejaVuSans-4d"/>
      <use x="294.873047" xlink:href="#DejaVuSans-50"/>
     </g>
    </g>
   </g>
   <g id="line2d_13">
    <path clip-path="url(#p00257a38be)" d="M 119.872159 561.202423 
L 121.110416 550.639246 
L 122.348674 542.777864 
L 123.586931 538.697213 
L 124.825188 537.545598 
L 127.301703 537.784683 
L 128.53996 537.635722 
L 129.778217 537.034795 
L 131.016474 535.954559 
L 132.254732 534.725393 
L 133.492989 533.726818 
L 134.731246 532.907644 
L 135.969504 531.91988 
L 137.207761 530.721085 
L 138.446018 529.980054 
L 139.684275 530.454351 
L 142.16079 533.392214 
L 143.399047 534.967016 
L 145.875562 539.218622 
L 147.113819 540.841694 
L 148.352076 541.841307 
L 150.828591 543.568284 
L 152.066848 544.920947 
L 153.305105 546.700197 
L 154.543363 548.273336 
L 155.78162 549.170933 
L 157.019877 549.393328 
L 158.258134 548.563608 
L 159.496392 545.619583 
L 160.734649 539.954158 
L 161.972906 532.710298 
L 163.211163 526.330187 
L 164.449421 522.433517 
L 166.925935 518.513369 
L 168.164193 516.018779 
L 169.40245 514.796024 
L 170.640707 517.555604 
L 171.878964 524.691623 
L 174.355479 542.138553 
L 175.593736 548.327348 
L 176.831993 552.159189 
L 178.070251 553.60656 
L 179.308508 552.305035 
L 180.546765 548.186443 
L 183.02328 536.828021 
L 184.261537 533.602123 
L 185.499794 533.682452 
L 186.738052 536.6109 
L 187.976309 540.753089 
L 189.214566 544.178774 
L 190.452823 545.667195 
L 191.691081 545.414757 
L 192.929338 544.766274 
L 194.167595 545.206094 
L 195.405852 547.585031 
L 197.882367 556.081388 
L 199.120624 558.957401 
L 200.358881 559.468593 
L 201.597139 557.574006 
L 202.835396 553.565837 
L 204.073653 548.692164 
L 205.311911 544.777202 
L 206.550168 542.606882 
L 207.788425 541.648316 
L 209.026682 541.220248 
L 210.26494 541.498833 
L 211.503197 543.125625 
L 213.979711 548.691842 
L 215.217969 549.968564 
L 216.456226 548.974696 
L 217.694483 546.140178 
L 218.93274 542.753405 
L 220.170998 540.004972 
L 221.409255 538.427121 
L 222.647512 537.636843 
L 223.88577 536.597433 
L 225.124027 534.752728 
L 227.600541 530.365325 
L 228.838799 529.121019 
L 230.077056 529.71265 
L 231.315313 532.392306 
L 232.55357 535.96031 
L 233.791828 538.82134 
L 235.030085 539.871951 
L 236.268342 538.601217 
L 237.5066 535.822756 
L 238.744857 533.574981 
L 239.983114 533.38813 
L 241.221371 535.037458 
L 242.459629 536.951485 
L 243.697886 537.722929 
L 244.936143 536.957783 
L 246.1744 534.634365 
L 247.412658 530.719536 
L 249.889172 520.911501 
L 251.127429 517.480579 
L 252.365687 516.543899 
L 253.603944 518.810387 
L 254.842201 523.612989 
L 256.080459 529.094624 
L 257.318716 533.880993 
L 258.556973 537.365111 
L 259.79523 539.175379 
L 261.033488 539.255525 
L 262.271745 537.687732 
L 263.510002 534.647302 
L 264.748259 530.881048 
L 265.986517 527.84343 
L 267.224774 526.89042 
L 268.463031 528.024289 
L 269.701288 529.746236 
L 270.939546 530.530232 
L 272.177803 530.044248 
L 273.41606 528.397517 
L 274.654318 525.132887 
L 277.130832 515.015169 
L 278.369089 512.095653 
L 279.607347 512.955095 
L 280.845604 517.255645 
L 282.083861 523.072008 
L 283.322118 527.945596 
L 284.560376 529.984156 
L 285.798633 528.517352 
L 287.03689 524.295296 
L 288.275147 519.25589 
L 289.513405 515.495248 
L 290.751662 513.575334 
L 293.228177 511.01812 
L 294.466434 510.384725 
L 295.704691 511.270498 
L 296.942948 514.0281 
L 298.181206 518.903866 
L 299.419463 525.253569 
L 300.65772 530.848867 
L 301.895977 533.256489 
L 303.134235 531.813849 
L 304.372492 527.87502 
L 306.849006 519.105325 
L 308.087264 515.813197 
L 309.325521 514.114639 
L 310.563778 514.430576 
L 313.040293 518.059699 
L 314.27855 519.130695 
L 315.516807 519.288081 
L 317.993322 518.987961 
L 319.231579 517.874262 
L 320.469836 514.538175 
L 321.708094 509.166983 
L 322.946351 504.484886 
L 324.184608 503.559029 
L 325.422866 507.045999 
L 327.89938 519.965983 
L 329.137637 524.414345 
L 330.375895 525.645648 
L 331.614152 524.436745 
L 332.852409 522.466556 
L 335.328924 519.121169 
L 336.567181 516.755185 
L 337.805438 513.618519 
L 339.043695 509.942194 
L 340.281953 505.441344 
L 342.758467 493.224679 
L 343.996725 489.30428 
L 345.234982 490.037383 
L 346.473239 494.315429 
L 347.711496 499.188044 
L 348.949754 502.57119 
L 350.188011 503.749761 
L 351.426268 503.363829 
L 352.664525 503.519811 
L 353.902783 505.957576 
L 356.379297 514.774934 
L 358.855812 523.03862 
L 360.094069 526.775977 
L 361.332326 530.045897 
L 362.570584 531.912123 
L 363.808841 531.709928 
L 365.047098 529.887849 
L 366.285355 527.18184 
L 367.523613 523.921495 
L 368.76187 520.242213 
L 371.238384 511.954305 
L 372.476642 508.471987 
L 373.714899 506.167547 
L 378.667928 499.710722 
L 379.906185 497.826706 
L 381.144443 494.979973 
L 383.620957 487.673902 
L 384.859214 485.338677 
L 386.097472 485.843577 
L 387.335729 490.132915 
L 389.812243 502.998315 
L 391.050501 506.535386 
L 392.288758 506.599959 
L 393.527015 503.284087 
L 394.765272 498.294767 
L 396.00353 494.801975 
L 397.241787 495.087461 
L 398.480044 498.745995 
L 399.718302 503.639276 
L 400.956559 507.703823 
L 402.194816 510.081946 
L 403.433073 511.37649 
L 404.671331 512.483802 
L 405.909588 513.122927 
L 407.147845 512.085808 
L 408.386102 508.952649 
L 409.62436 504.93228 
L 410.862617 501.642374 
L 412.100874 499.666111 
L 413.339132 498.763533 
L 414.577389 498.649858 
L 415.815646 498.999174 
L 417.053903 499.232308 
L 418.292161 498.36527 
L 419.530418 495.396547 
L 420.768675 491.103002 
L 422.006932 488.517492 
L 423.24519 489.93167 
L 424.483447 494.620983 
L 425.721704 500.183595 
L 426.959961 504.828872 
L 429.436476 512.232708 
L 431.912991 521.672353 
L 433.151248 525.209762 
L 434.389505 526.192664 
L 435.627762 524.299146 
L 436.86602 520.714567 
L 438.104277 517.509828 
L 439.342534 516.251271 
L 440.580791 516.981327 
L 441.819049 518.043064 
L 443.057306 517.295491 
L 444.295563 514.035148 
L 445.53382 509.439223 
L 446.772078 505.32548 
L 448.010335 502.915889 
L 449.248592 502.460365 
L 450.48685 503.449075 
L 451.725107 504.940891 
L 452.963364 505.797163 
L 454.201621 505.087939 
L 455.439879 502.691998 
L 456.678136 498.959806 
L 457.916393 493.750289 
L 459.15465 486.78391 
L 460.392908 479.010445 
L 461.631165 472.728392 
L 462.869422 469.782197 
L 464.107679 470.202232 
L 465.345937 472.894702 
L 466.584194 476.43099 
L 467.822451 479.064507 
L 469.060709 479.649617 
L 470.298966 479.045269 
L 471.537223 479.453911 
L 472.77548 481.746184 
L 474.013738 484.523679 
L 475.251995 486.095739 
L 476.490252 486.034464 
L 478.966767 484.054961 
L 480.205024 483.734501 
L 481.443281 483.602742 
L 482.681538 482.721464 
L 483.919796 480.548255 
L 485.158053 477.615116 
L 486.39631 475.352249 
L 487.634568 474.659756 
L 488.872825 474.908243 
L 490.111082 474.935987 
L 491.349339 474.584997 
L 492.587597 474.803882 
L 495.064111 477.586935 
L 496.302368 477.427215 
L 497.540626 475.365858 
L 500.01714 469.280247 
L 501.255397 466.770532 
L 502.493655 465.509411 
L 503.731912 465.655956 
L 504.970169 466.188983 
L 506.208427 466.042624 
L 508.684941 464.289565 
L 509.923198 463.416255 
L 511.161456 462.045212 
L 513.63797 457.535145 
L 514.876227 456.008092 
L 516.114485 455.547074 
L 517.352742 456.669003 
L 518.590999 460.066111 
L 521.067514 470.08965 
L 522.305771 472.989751 
L 523.544028 473.537655 
L 524.782286 472.125406 
L 527.2588 466.658318 
L 528.497057 465.115956 
L 529.735315 465.548151 
L 532.211829 469.855726 
L 533.450086 470.081295 
L 534.688344 467.805453 
L 535.926601 464.061792 
L 538.403116 455.095299 
L 539.641373 451.766537 
L 540.87963 451.477315 
L 542.117887 454.901246 
L 543.356145 461.306519 
L 544.594402 468.524892 
L 545.832659 473.739151 
L 547.070916 475.803811 
L 548.309174 475.80731 
L 549.547431 474.935901 
L 550.785688 473.244439 
L 553.262203 467.922103 
L 554.50046 466.093293 
L 555.738717 465.595128 
L 556.976975 465.54313 
L 558.215232 464.038789 
L 559.453489 459.837181 
L 560.691746 453.818162 
L 561.930004 448.413782 
L 563.168261 445.73486 
L 564.406518 446.236178 
L 566.883033 451.031688 
L 568.12129 452.382942 
L 569.359547 452.182091 
L 570.597804 450.105228 
L 573.074319 443.730068 
L 574.312576 441.396999 
L 575.550834 439.352625 
L 576.789091 438.156039 
L 578.027348 439.705233 
L 579.265605 444.389717 
L 580.503863 449.814008 
L 581.74212 453.38226 
L 582.980377 454.363495 
L 584.218634 453.784288 
L 585.456892 453.375745 
L 587.933406 454.301589 
L 589.171663 453.104376 
L 590.409921 448.537074 
L 591.648178 440.053701 
L 592.886435 429.678243 
L 594.124693 421.45229 
L 595.36295 419.226328 
L 596.601207 424.450018 
L 597.839464 435.465845 
L 599.077722 448.784051 
L 600.315979 460.615861 
L 601.554236 468.011722 
L 602.792493 470.003318 
L 604.030751 467.539294 
L 605.269008 462.137301 
L 606.507265 454.898556 
L 610.222037 430.149425 
L 611.460294 423.883656 
L 612.698552 419.303083 
L 613.936809 416.306734 
L 615.175066 414.957262 
L 616.413323 415.10529 
L 617.651581 416.509849 
L 618.889838 419.089147 
L 623.842867 431.803264 
L 625.081124 432.328636 
L 626.319382 429.522917 
L 627.557639 425.530042 
L 628.795896 423.91203 
L 630.034153 426.291331 
L 631.272411 431.087234 
L 632.510668 434.964841 
L 633.748925 435.779959 
L 634.987182 433.901763 
L 636.22544 431.035865 
L 637.463697 428.950746 
L 638.701954 428.686402 
L 639.940211 430.360836 
L 642.416726 436.557665 
L 643.654983 437.802939 
L 644.893241 436.5782 
L 646.131498 434.044486 
L 647.369755 431.835267 
L 648.608012 431.124921 
L 649.84627 432.670833 
L 652.322784 439.983038 
L 653.561041 441.787953 
L 654.799299 440.801439 
L 656.037556 437.797382 
L 657.275813 434.191393 
L 658.51407 430.968091 
L 659.752328 428.757445 
L 660.990585 428.319195 
L 663.4671 430.702247 
L 664.705357 430.027854 
L 665.943614 427.941992 
L 667.181871 426.219512 
L 668.420129 425.802999 
L 669.658386 426.448007 
L 672.1349 429.091388 
L 673.373158 428.676319 
L 674.611415 425.255944 
L 675.849672 419.763947 
L 677.087929 414.814635 
L 678.326187 412.540793 
L 679.564444 412.884267 
L 680.802701 414.317806 
L 682.040959 416.330572 
L 683.279216 419.595011 
L 684.517473 423.835077 
L 685.75573 427.528668 
L 686.993988 429.583096 
L 688.232245 430.086396 
L 689.470502 429.611468 
L 690.708759 428.326653 
L 691.947017 425.63039 
L 693.185274 420.967801 
L 695.661789 409.692252 
L 696.900046 405.890023 
L 698.138303 404.105151 
L 699.37656 404.207461 
L 701.853075 407.136618 
L 703.091332 407.206042 
L 704.329589 404.382565 
L 706.806104 392.963461 
L 708.044361 389.829303 
L 709.282618 389.899696 
L 712.99739 394.677801 
L 714.235648 397.522062 
L 715.473905 402.199977 
L 717.950419 414.769943 
L 719.188677 419.573244 
L 720.426934 422.020878 
L 721.665191 422.918474 
L 722.903448 423.353724 
L 724.141706 423.480394 
L 725.379963 422.59403 
L 726.61822 419.928429 
L 729.094735 411.554711 
L 730.332992 408.612345 
L 731.571249 407.05954 
L 734.047764 404.961615 
L 735.286021 404.478159 
L 736.524278 404.601121 
L 737.762536 403.647483 
L 739.000793 400.013518 
L 740.23905 394.491573 
L 741.477307 389.590228 
L 742.715565 386.897712 
L 743.953822 386.249379 
L 746.430336 387.201681 
L 747.668594 387.69004 
L 748.906851 389.262119 
L 750.145108 392.999236 
L 751.383366 397.976211 
L 752.621623 401.035708 
L 753.85988 398.931303 
L 755.098137 390.947087 
L 756.336395 379.838147 
L 757.574652 370.17971 
L 758.812909 365.127829 
L 760.051166 364.851862 
L 761.289424 368.080283 
L 763.765938 378.799305 
L 765.004195 382.698018 
L 768.718967 390.179477 
L 769.957225 391.696828 
L 771.195482 390.345233 
L 773.671996 382.883067 
L 774.910254 380.487871 
L 776.148511 379.819443 
L 777.386768 380.646458 
L 778.625025 382.956949 
L 779.863283 386.89498 
L 781.10154 392.262163 
L 782.339797 398.279603 
L 783.578054 403.134111 
L 784.816312 403.95443 
L 786.054569 398.848711 
L 788.531084 379.975883 
L 789.769341 374.348748 
L 791.007598 373.318436 
L 792.245855 375.370037 
L 793.484113 378.63474 
L 794.72237 382.465601 
L 797.198884 392.229736 
L 798.437142 395.634863 
L 799.675399 395.064107 
L 800.913656 390.084003 
L 802.151914 382.448966 
L 804.628428 365.168318 
L 805.866685 355.007952 
L 808.3432 332.884013 
L 809.581457 324.906518 
L 810.819714 321.216567 
L 812.057972 322.123803 
L 813.296229 326.982896 
L 817.011001 347.333491 
L 818.249258 355.92337 
L 819.487515 365.784191 
L 820.725773 374.472109 
L 821.96403 379.695285 
L 823.202287 380.589065 
L 824.440544 377.925327 
L 825.678802 374.1522 
L 826.917059 371.827832 
L 828.155316 371.393541 
L 829.393573 371.540502 
L 830.631831 371.066085 
L 833.108345 368.340837 
L 834.346602 367.958396 
L 835.58486 369.051525 
L 836.823117 370.930115 
L 838.061374 372.468248 
L 839.299632 373.544207 
L 840.537889 375.138049 
L 841.776146 377.51162 
L 843.014403 379.079769 
L 844.252661 377.953345 
L 846.729175 370.421536 
L 847.967432 367.957595 
L 849.20569 367.110615 
L 850.443947 367.253878 
L 851.682204 367.788747 
L 852.920461 368.887327 
L 854.158719 371.626143 
L 856.635233 380.794981 
L 857.873491 381.18229 
L 859.111748 375.076074 
L 861.588262 352.760442 
L 862.82652 345.552357 
L 864.064777 343.03946 
L 865.303034 343.2287 
L 867.779549 344.981018 
L 869.017806 347.256096 
L 870.256063 352.225172 
L 871.49432 359.721196 
L 873.970835 376.370683 
L 875.209092 381.562576 
L 876.44735 382.73183 
L 878.923864 378.879586 
L 880.162121 380.136464 
L 881.400379 384.97849 
L 882.638636 390.59264 
L 883.876893 393.841916 
L 885.11515 393.74616 
L 886.353408 391.028339 
L 887.591665 386.598884 
L 890.06818 376.881524 
L 891.306437 372.562654 
L 892.544694 367.254265 
L 895.021209 353.481291 
L 896.259466 348.137958 
L 897.497723 346.058544 
L 898.73598 346.937222 
L 899.974238 348.549399 
L 901.212495 349.025125 
L 902.450752 348.219662 
L 903.689009 346.462894 
L 904.927267 343.355156 
L 907.403781 334.057232 
L 908.642039 332.530741 
L 909.880296 335.689377 
L 911.118553 341.363826 
L 912.35681 345.930999 
L 913.595068 347.538268 
L 914.833325 346.389696 
L 916.071582 343.9491 
L 917.309839 342.217892 
L 918.548097 342.274381 
L 919.786354 343.61276 
L 921.024611 345.213106 
L 922.262868 346.298337 
L 923.501126 346.295774 
L 924.739383 344.962221 
L 925.97764 342.490776 
L 927.215898 339.241077 
L 928.454155 335.425598 
L 929.692412 331.174297 
L 930.930669 326.330775 
L 932.168927 320.500527 
L 933.407184 314.119867 
L 934.645441 308.49407 
L 935.883698 304.949092 
L 937.121956 304.851103 
L 938.360213 308.452948 
L 939.59847 313.160472 
L 940.836727 315.552906 
L 942.074985 315.421376 
L 943.313242 316.412377 
L 944.551499 322.410696 
L 947.028014 344.564078 
L 948.266271 351.604704 
L 949.504528 353.19748 
L 950.742786 351.475617 
L 951.981043 348.650789 
L 953.2193 345.010533 
L 955.695815 336.042963 
L 956.934072 332.934594 
L 958.172329 330.777308 
L 959.410586 328.264071 
L 961.887101 321.566585 
L 963.125358 319.350562 
L 964.363616 319.056608 
L 965.601873 321.047074 
L 968.078387 328.025465 
L 969.316645 329.124131 
L 970.554902 327.759057 
L 971.793159 325.638574 
L 973.031416 324.491202 
L 975.507931 324.212154 
L 976.746188 323.62664 
L 977.984446 323.248354 
L 979.222703 323.435769 
L 980.46096 324.306289 
L 981.699217 326.831073 
L 982.937475 332.246381 
L 985.413989 347.298307 
L 986.652246 351.083958 
L 987.890504 350.049586 
L 989.128761 344.433522 
L 990.367018 335.273325 
L 991.605275 324.626681 
L 992.843533 315.06244 
L 994.08179 308.074016 
L 995.320047 303.577561 
L 996.558305 300.804811 
L 997.796562 299.351504 
L 999.034819 299.414809 
L 1000.273076 301.059441 
L 1001.511334 303.849261 
L 1002.749591 307.154276 
L 1003.987848 309.955139 
L 1005.226105 310.75566 
L 1006.464363 308.662386 
L 1007.70262 304.06748 
L 1010.179134 292.339273 
L 1011.417392 288.966617 
L 1012.655649 289.209103 
L 1013.893906 292.633712 
L 1017.608678 308.285383 
L 1018.846935 311.216028 
L 1020.085193 312.358366 
L 1021.32345 311.937558 
L 1022.561707 309.912404 
L 1023.799964 306.626457 
L 1028.752993 291.439872 
L 1029.991251 287.373488 
L 1031.229508 285.126333 
L 1032.467765 285.354846 
L 1033.706023 286.448995 
L 1034.94428 285.949033 
L 1036.182537 282.556116 
L 1038.659052 272.075619 
L 1039.897309 269.675018 
L 1041.135566 270.945727 
L 1042.373823 274.766897 
L 1044.850338 284.137714 
L 1046.088595 289.52306 
L 1047.326852 294.020339 
L 1048.56511 296.364204 
L 1049.803367 296.860102 
L 1051.041624 296.171889 
L 1052.279882 294.486594 
L 1053.518139 291.732173 
L 1054.756396 288.426074 
L 1055.994653 286.300583 
L 1057.232911 287.427545 
L 1058.471168 292.525962 
L 1060.947682 307.661802 
L 1062.18594 312.96859 
L 1063.424197 314.994277 
L 1064.662454 313.531667 
L 1065.900711 308.660182 
L 1069.615483 286.304999 
L 1070.853741 282.682734 
L 1072.091998 281.697174 
L 1073.330255 282.703687 
L 1074.568512 286.114323 
L 1075.80677 292.850445 
L 1077.045027 301.517505 
L 1078.283284 307.652788 
L 1079.521541 308.139734 
L 1081.998056 301.905406 
L 1083.236313 300.093005 
L 1085.712828 295.450598 
L 1086.951085 295.541679 
L 1088.189342 298.91355 
L 1089.4276 302.949661 
L 1090.665857 305.261271 
L 1091.904114 305.509652 
L 1093.142371 304.189201 
L 1094.380629 302.046616 
L 1095.618886 300.128598 
L 1096.857143 299.039945 
L 1098.0954 298.143685 
L 1099.333658 295.775239 
L 1100.571915 290.244496 
L 1103.04843 272.020751 
L 1104.286687 267.078818 
L 1105.524944 269.921734 
L 1106.763201 279.231861 
L 1108.001459 290.1033 
L 1109.239716 298.004878 
L 1110.477973 301.391545 
L 1111.71623 301.342903 
L 1114.192745 298.067807 
L 1116.669259 295.56563 
L 1117.907517 293.243071 
L 1119.145774 289.133864 
L 1120.384031 283.354826 
L 1122.860546 270.425008 
L 1124.098803 266.832752 
L 1125.33706 267.182455 
L 1126.575318 270.553908 
L 1130.290089 284.364258 
L 1131.528347 287.01317 
L 1132.766604 285.848513 
L 1134.004861 279.671142 
L 1135.243118 270.52739 
L 1136.481376 262.569332 
L 1137.719633 257.642265 
L 1138.95789 254.170684 
L 1140.196148 250.214675 
L 1141.434405 245.586118 
L 1142.672662 241.537805 
L 1143.910919 239.690478 
L 1145.149177 240.512663 
L 1146.387434 242.733221 
L 1147.625691 245.286069 
L 1148.863948 248.687883 
L 1150.102206 253.529072 
L 1151.340463 259.174142 
L 1152.57872 264.265797 
L 1153.816977 267.986309 
L 1155.055235 270.980695 
L 1156.293492 274.513475 
L 1158.770007 282.72188 
L 1160.008264 284.640288 
L 1161.246521 283.565249 
L 1162.484778 279.701344 
L 1163.723036 274.552605 
L 1164.961293 269.902867 
L 1166.19955 266.585552 
L 1167.437807 264.402259 
L 1168.676065 263.002023 
L 1169.914322 262.587526 
L 1171.152579 263.388932 
L 1173.629094 266.548292 
L 1174.867351 267.793269 
L 1176.105608 268.487211 
L 1177.343866 268.329512 
L 1178.582123 267.158914 
L 1179.82038 265.338564 
L 1182.296895 261.112636 
L 1183.535152 258.346959 
L 1184.773409 254.18066 
L 1186.011666 248.445607 
L 1187.249924 243.278871 
L 1188.488181 242.341793 
L 1189.726438 247.327737 
L 1190.964696 255.72613 
L 1192.202953 262.730719 
L 1193.44121 264.961967 
L 1194.679467 262.097834 
L 1195.917725 255.706825 
L 1198.394239 239.208473 
L 1199.632496 233.15384 
L 1200.870754 231.180718 
L 1202.109011 233.017913 
L 1204.585525 240.104163 
L 1205.823783 241.665399 
L 1207.06204 239.885323 
L 1208.300297 233.069052 
L 1209.538555 221.038081 
L 1210.776812 207.138684 
L 1212.015069 197.947238 
L 1213.253326 198.983779 
L 1214.491584 209.522692 
L 1215.729841 223.436936 
L 1216.968098 235.320321 
L 1218.206355 243.88734 
L 1219.444613 250.233121 
L 1220.68287 255.362857 
L 1221.921127 259.249816 
L 1223.159384 260.378653 
L 1224.397642 256.746817 
L 1225.635899 248.490253 
L 1228.112414 228.446293 
L 1229.350671 219.68672 
L 1230.588928 212.093188 
L 1231.827185 206.499339 
L 1233.065443 203.27461 
L 1235.541957 198.890344 
L 1236.780214 198.044378 
L 1238.018472 200.698772 
L 1239.256729 205.884892 
L 1240.494986 209.934077 
L 1241.733243 209.961329 
L 1242.971501 205.759785 
L 1244.209758 198.967786 
L 1246.686273 183.609856 
L 1247.92453 176.924936 
L 1249.162787 172.367399 
L 1250.401044 171.241632 
L 1251.639302 173.57543 
L 1252.877559 176.777957 
L 1254.115816 177.525173 
L 1255.354073 174.928925 
L 1256.592331 170.025935 
L 1257.830588 163.164091 
L 1260.307103 145.408392 
L 1261.54536 139.049788 
L 1262.783617 137.6958 
L 1264.021874 141.486488 
L 1265.260132 147.013923 
L 1266.498389 148.925959 
L 1267.736646 144.014936 
L 1268.974903 133.188829 
L 1270.213161 120.60258 
L 1271.451418 111.974033 
L 1272.689675 111.135231 
L 1273.927932 117.090811 
L 1276.404447 133.523234 
L 1277.642704 139.359987 
L 1278.880962 143.132281 
L 1280.119219 144.855086 
L 1281.357476 144.469819 
L 1282.595733 142.597808 
L 1283.833991 141.950428 
L 1285.072248 146.567744 
L 1286.310505 157.933874 
L 1287.548762 172.325854 
L 1288.78702 182.699827 
L 1290.025277 183.377942 
L 1291.263534 174.02109 
L 1293.740049 146.419648 
L 1294.978306 137.215522 
L 1296.216563 132.443127 
L 1297.454821 131.063815 
L 1298.693078 130.526286 
L 1299.931335 128.256015 
L 1301.169592 123.633661 
L 1303.646107 111.585294 
L 1304.884364 104.480772 
L 1306.122621 94.130377 
L 1307.360879 79.729553 
L 1308.599136 63.735557 
L 1309.837393 51.411231 
L 1311.07565 47.979282 
L 1312.313908 54.463511 
L 1313.552165 67.180781 
L 1314.790422 81.131303 
L 1316.02868 92.930236 
L 1317.266937 101.569005 
L 1318.505194 107.246132 
L 1319.743451 109.513277 
L 1320.981709 107.468396 
L 1322.219966 102.280531 
L 1323.458223 98.037866 
L 1324.69648 98.871971 
L 1325.934738 105.385269 
L 1327.172995 114.263646 
L 1328.411252 121.057236 
L 1329.649509 123.094708 
L 1330.887767 120.815431 
L 1332.126024 116.330578 
L 1334.602539 105.313082 
L 1335.840796 102.01094 
L 1337.079053 102.582889 
L 1340.793825 111.302025 
L 1342.032082 113.460311 
L 1343.270339 112.084132 
L 1344.508597 105.765221 
L 1345.746854 97.381319 
L 1346.985111 90.140504 
L 1348.223368 84.91591 
L 1349.461626 81.778874 
L 1350.699883 80.592201 
L 1351.93814 80.611516 
L 1353.176398 81.767771 
L 1354.414655 85.564694 
L 1355.652912 92.671441 
L 1356.891169 101.124508 
L 1358.129427 108.735971 
L 1359.367684 114.678329 
L 1360.605941 118.336017 
L 1361.844198 119.536901 
L 1363.082456 119.500819 
L 1364.320713 119.810507 
L 1365.55897 121.24643 
L 1366.797228 124.556966 
L 1368.035485 130.834099 
L 1370.511999 149.455546 
L 1371.750257 156.462905 
L 1372.988514 158.408461 
L 1374.226771 153.578234 
L 1375.465028 142.444413 
L 1376.703286 128.718732 
L 1377.941543 117.503116 
L 1379.1798 111.988635 
L 1380.418057 111.569404 
L 1381.656315 113.020977 
L 1382.894572 113.546007 
L 1384.132829 112.259656 
L 1385.371087 109.357593 
L 1386.609344 105.588198 
L 1387.847601 103.095163 
L 1389.085858 104.828554 
L 1390.324116 111.036129 
L 1391.562373 118.248795 
L 1392.80063 123.257763 
L 1394.038887 125.475795 
L 1395.277145 126.028235 
L 1396.515402 127.034927 
L 1397.753659 130.261985 
L 1400.230174 140.737742 
L 1401.468431 143.717938 
L 1402.706688 143.243243 
L 1403.944946 139.72776 
L 1405.183203 134.225272 
L 1406.42146 127.770767 
L 1407.659717 122.100624 
L 1408.897975 119.682763 
L 1410.136232 122.257539 
L 1411.374489 129.621483 
L 1412.612746 139.305437 
L 1413.851004 147.383043 
L 1415.089261 150.68025 
L 1416.327518 148.850386 
L 1417.565775 144.424373 
L 1418.804033 140.879706 
L 1420.04229 140.556662 
L 1421.280547 143.598614 
L 1424.995319 157.05076 
L 1427.471834 168.592665 
L 1428.710091 170.654878 
L 1429.948348 165.992326 
L 1432.424863 145.554639 
L 1433.66312 140.594261 
L 1434.901377 143.528029 
L 1436.139634 152.730997 
L 1437.377892 164.095048 
L 1438.616149 173.644514 
L 1439.854406 178.978812 
L 1441.092664 179.102718 
L 1442.330921 173.818281 
L 1444.807435 155.930307 
L 1446.045693 152.059548 
L 1447.28395 154.666566 
L 1449.760464 169.604939 
L 1450.998722 172.766878 
L 1452.236979 168.344914 
L 1453.475236 155.854741 
L 1454.713494 137.029116 
L 1455.951751 115.516125 
L 1457.190008 96.855433 
L 1458.428265 87.00479 
L 1459.666523 88.948243 
L 1460.90478 101.271148 
L 1463.381294 139.653583 
L 1464.619552 155.095256 
L 1465.857809 163.201712 
L 1467.096066 164.963661 
L 1468.334323 164.369471 
L 1469.572581 165.047791 
L 1470.810838 167.712726 
L 1472.049095 170.757219 
L 1473.287353 172.617077 
L 1474.52561 172.940683 
L 1475.763867 171.664799 
L 1477.002124 168.628825 
L 1479.478639 160.972643 
L 1481.955153 154.701496 
L 1483.193411 151.11905 
L 1484.431668 148.419315 
L 1485.669925 149.587814 
L 1486.908182 155.82544 
L 1488.14644 163.060858 
L 1489.384697 165.13589 
L 1490.622954 160.218402 
L 1491.861212 151.777633 
L 1493.099469 144.123263 
L 1494.337726 138.932682 
L 1495.575983 136.699823 
L 1496.814241 139.346682 
L 1498.052498 147.804854 
L 1499.290755 158.584415 
L 1500.529012 166.240674 
L 1501.76727 167.621764 
L 1503.005527 162.922131 
L 1505.482041 147.978874 
L 1506.720299 143.147257 
L 1507.958556 141.152087 
L 1509.196813 143.348279 
L 1510.435071 149.876107 
L 1511.673328 157.133116 
L 1512.911585 160.25781 
L 1514.149842 157.719514 
L 1515.3881 152.352294 
L 1516.626357 148.723029 
L 1517.864614 149.394638 
L 1519.102871 153.441153 
L 1521.579386 164.951525 
L 1522.817643 170.681166 
L 1524.0559 175.585577 
L 1525.294158 178.831002 
L 1526.532415 179.358158 
L 1527.770672 177.680895 
L 1530.247187 173.265881 
L 1531.485444 170.476717 
L 1532.723701 168.0106 
L 1533.961959 166.890977 
L 1535.200216 166.863415 
L 1536.438473 167.491706 
L 1537.67673 169.249121 
L 1538.914988 172.356938 
L 1540.153245 175.109618 
L 1541.391502 174.900046 
L 1543.868017 168.415602 
L 1545.106274 168.904211 
L 1546.344531 171.373367 
L 1547.582789 170.676739 
L 1548.821046 163.700917 
L 1550.059303 151.935279 
L 1551.29756 139.097723 
L 1552.535818 128.189537 
L 1553.774075 121.457431 
L 1555.012332 119.943218 
L 1556.250589 122.102891 
L 1557.488847 125.838004 
L 1558.727104 130.997273 
L 1559.965361 138.156354 
L 1562.441876 155.671233 
L 1563.680133 163.186906 
L 1564.91839 168.00884 
L 1566.156648 169.836466 
L 1567.394905 170.273482 
L 1568.633162 171.102387 
L 1569.871419 172.551109 
L 1572.347934 176.399691 
L 1573.586191 177.368378 
L 1574.824448 175.463529 
L 1576.062706 169.567038 
L 1577.300963 159.334351 
L 1578.53922 145.213625 
L 1579.777478 129.33009 
L 1581.015735 115.038595 
L 1582.253992 104.955382 
L 1583.492249 100.511058 
L 1584.730507 102.880875 
L 1585.968764 111.833994 
L 1587.207021 124.065035 
L 1588.445278 135.07931 
L 1589.683536 141.733483 
L 1590.921793 142.411881 
L 1592.16005 137.209853 
L 1593.398307 128.230679 
L 1594.636565 118.339433 
L 1595.874822 109.441652 
L 1597.113079 102.064859 
L 1598.351337 96.081448 
L 1602.066108 80.566283 
L 1603.304366 78.022659 
L 1604.542623 79.241053 
L 1605.78088 83.960556 
L 1607.019137 90.630567 
L 1608.257395 96.666735 
L 1609.495652 100.639115 
L 1613.210424 109.14273 
L 1614.448681 112.547833 
L 1615.686938 117.305202 
L 1616.925196 123.120741 
L 1618.163453 128.163124 
L 1619.40171 131.239703 
L 1620.639967 132.238897 
L 1621.878225 131.271228 
L 1623.116482 129.483216 
L 1624.354739 129.417775 
L 1625.592996 132.543727 
L 1626.831254 136.558812 
L 1628.069511 137.22353 
L 1629.307768 132.647808 
L 1630.546026 123.92376 
L 1633.02254 102.759163 
L 1634.260797 94.019633 
L 1635.499055 87.757006 
L 1636.737312 85.523783 
L 1637.975569 90.336568 
L 1639.213826 103.654472 
L 1640.452084 123.014777 
L 1641.690341 144.64152 
L 1641.690341 144.64152 
" style="fill:none;stroke:#008000;stroke-linecap:square;stroke-width:1.5;"/>
   </g>
   <g id="patch_3">
    <path d="M 43.78125 586.86358 
L 43.78125 22.318125 
" style="fill:none;stroke:#000000;stroke-linecap:square;stroke-linejoin:miter;stroke-width:0.8;"/>
   </g>
   <g id="patch_4">
    <path d="M 1717.78125 586.86358 
L 1717.78125 22.318125 
" style="fill:none;stroke:#000000;stroke-linecap:square;stroke-linejoin:miter;stroke-width:0.8;"/>
   </g>
   <g id="patch_5">
    <path d="M 43.78125 586.86358 
L 1717.78125 586.86358 
" style="fill:none;stroke:#000000;stroke-linecap:square;stroke-linejoin:miter;stroke-width:0.8;"/>
   </g>
   <g id="patch_6">
    <path d="M 43.78125 22.318125 
L 1717.78125 22.318125 
" style="fill:none;stroke:#000000;stroke-linecap:square;stroke-linejoin:miter;stroke-width:0.8;"/>
   </g>
   <g id="text_15">
    <!-- before binarisation -->
    <g transform="translate(824.1825 16.318125)scale(0.12 -0.12)">
     <defs>
      <path d="M 3116 1747 
Q 3116 2381 2855 2742 
Q 2594 3103 2138 3103 
Q 1681 3103 1420 2742 
Q 1159 2381 1159 1747 
Q 1159 1113 1420 752 
Q 1681 391 2138 391 
Q 2594 391 2855 752 
Q 3116 1113 3116 1747 
z
M 1159 2969 
Q 1341 3281 1617 3432 
Q 1894 3584 2278 3584 
Q 2916 3584 3314 3078 
Q 3713 2572 3713 1747 
Q 3713 922 3314 415 
Q 2916 -91 2278 -91 
Q 1894 -91 1617 61 
Q 1341 213 1159 525 
L 1159 0 
L 581 0 
L 581 4863 
L 1159 4863 
L 1159 2969 
z
" id="DejaVuSans-62" transform="scale(0.015625)"/>
      <path d="M 1959 3097 
Q 1497 3097 1228 2736 
Q 959 2375 959 1747 
Q 959 1119 1226 758 
Q 1494 397 1959 397 
Q 2419 397 2687 759 
Q 2956 1122 2956 1747 
Q 2956 2369 2687 2733 
Q 2419 3097 1959 3097 
z
M 1959 3584 
Q 2709 3584 3137 3096 
Q 3566 2609 3566 1747 
Q 3566 888 3137 398 
Q 2709 -91 1959 -91 
Q 1206 -91 779 398 
Q 353 888 353 1747 
Q 353 2609 779 3096 
Q 1206 3584 1959 3584 
z
" id="DejaVuSans-6f" transform="scale(0.015625)"/>
      <path id="DejaVuSans-20" transform="scale(0.015625)"/>
      <path d="M 603 3500 
L 1178 3500 
L 1178 0 
L 603 0 
L 603 3500 
z
M 603 4863 
L 1178 4863 
L 1178 4134 
L 603 4134 
L 603 4863 
z
" id="DejaVuSans-69" transform="scale(0.015625)"/>
      <path d="M 3513 2113 
L 3513 0 
L 2938 0 
L 2938 2094 
Q 2938 2591 2744 2837 
Q 2550 3084 2163 3084 
Q 1697 3084 1428 2787 
Q 1159 2491 1159 1978 
L 1159 0 
L 581 0 
L 581 3500 
L 1159 3500 
L 1159 2956 
Q 1366 3272 1645 3428 
Q 1925 3584 2291 3584 
Q 2894 3584 3203 3211 
Q 3513 2838 3513 2113 
z
" id="DejaVuSans-6e" transform="scale(0.015625)"/>
      <path d="M 2834 3397 
L 2834 2853 
Q 2591 2978 2328 3040 
Q 2066 3103 1784 3103 
Q 1356 3103 1142 2972 
Q 928 2841 928 2578 
Q 928 2378 1081 2264 
Q 1234 2150 1697 2047 
L 1894 2003 
Q 2506 1872 2764 1633 
Q 3022 1394 3022 966 
Q 3022 478 2636 193 
Q 2250 -91 1575 -91 
Q 1294 -91 989 -36 
Q 684 19 347 128 
L 347 722 
Q 666 556 975 473 
Q 1284 391 1588 391 
Q 1994 391 2212 530 
Q 2431 669 2431 922 
Q 2431 1156 2273 1281 
Q 2116 1406 1581 1522 
L 1381 1569 
Q 847 1681 609 1914 
Q 372 2147 372 2553 
Q 372 3047 722 3315 
Q 1072 3584 1716 3584 
Q 2034 3584 2315 3537 
Q 2597 3491 2834 3397 
z
" id="DejaVuSans-73" transform="scale(0.015625)"/>
      <path d="M 1172 4494 
L 1172 3500 
L 2356 3500 
L 2356 3053 
L 1172 3053 
L 1172 1153 
Q 1172 725 1289 603 
Q 1406 481 1766 481 
L 2356 481 
L 2356 0 
L 1766 0 
Q 1100 0 847 248 
Q 594 497 594 1153 
L 594 3053 
L 172 3053 
L 172 3500 
L 594 3500 
L 594 4494 
L 1172 4494 
z
" id="DejaVuSans-74" transform="scale(0.015625)"/>
     </defs>
     <use xlink:href="#DejaVuSans-62"/>
     <use x="63.476562" xlink:href="#DejaVuSans-65"/>
     <use x="125" xlink:href="#DejaVuSans-66"/>
     <use x="160.205078" xlink:href="#DejaVuSans-6f"/>
     <use x="221.386719" xlink:href="#DejaVuSans-72"/>
     <use x="260.25" xlink:href="#DejaVuSans-65"/>
     <use x="321.773438" xlink:href="#DejaVuSans-20"/>
     <use x="353.560547" xlink:href="#DejaVuSans-62"/>
     <use x="417.037109" xlink:href="#DejaVuSans-69"/>
     <use x="444.820312" xlink:href="#DejaVuSans-6e"/>
     <use x="508.199219" xlink:href="#DejaVuSans-61"/>
     <use x="569.478516" xlink:href="#DejaVuSans-72"/>
     <use x="610.591797" xlink:href="#DejaVuSans-69"/>
     <use x="638.375" xlink:href="#DejaVuSans-73"/>
     <use x="690.474609" xlink:href="#DejaVuSans-61"/>
     <use x="751.753906" xlink:href="#DejaVuSans-74"/>
     <use x="790.962891" xlink:href="#DejaVuSans-69"/>
     <use x="818.746094" xlink:href="#DejaVuSans-6f"/>
     <use x="879.927734" xlink:href="#DejaVuSans-6e"/>
    </g>
   </g>
  </g>
  <g id="axes_2">
   <g id="patch_7">
    <path d="M 43.78125 1264.318125 
L 1717.78125 1264.318125 
L 1717.78125 699.77267 
L 43.78125 699.77267 
z
" style="fill:#ffffff;"/>
   </g>
   <g id="matplotlib.axis_3">
    <g id="xtick_8">
     <g id="line2d_14">
      <g>
       <use style="stroke:#000000;stroke-width:0.8;" x="119.872159" xlink:href="#m1e07894f26" y="1264.318125"/>
      </g>
     </g>
     <g id="text_16">
      <!-- 0 -->
      <g transform="translate(116.690909 1278.916563)scale(0.1 -0.1)">
       <use xlink:href="#DejaVuSans-30"/>
      </g>
     </g>
    </g>
    <g id="xtick_9">
     <g id="line2d_15">
      <g>
       <use style="stroke:#000000;stroke-width:0.8;" x="367.523613" xlink:href="#m1e07894f26" y="1264.318125"/>
      </g>
     </g>
     <g id="text_17">
      <!-- 200 -->
      <g transform="translate(357.979863 1278.916563)scale(0.1 -0.1)">
       <use xlink:href="#DejaVuSans-32"/>
       <use x="63.623047" xlink:href="#DejaVuSans-30"/>
       <use x="127.246094" xlink:href="#DejaVuSans-30"/>
      </g>
     </g>
    </g>
    <g id="xtick_10">
     <g id="line2d_16">
      <g>
       <use style="stroke:#000000;stroke-width:0.8;" x="615.175066" xlink:href="#m1e07894f26" y="1264.318125"/>
      </g>
     </g>
     <g id="text_18">
      <!-- 400 -->
      <g transform="translate(605.631316 1278.916563)scale(0.1 -0.1)">
       <use xlink:href="#DejaVuSans-34"/>
       <use x="63.623047" xlink:href="#DejaVuSans-30"/>
       <use x="127.246094" xlink:href="#DejaVuSans-30"/>
      </g>
     </g>
    </g>
    <g id="xtick_11">
     <g id="line2d_17">
      <g>
       <use style="stroke:#000000;stroke-width:0.8;" x="862.82652" xlink:href="#m1e07894f26" y="1264.318125"/>
      </g>
     </g>
     <g id="text_19">
      <!-- 600 -->
      <g transform="translate(853.28277 1278.916563)scale(0.1 -0.1)">
       <use xlink:href="#DejaVuSans-36"/>
       <use x="63.623047" xlink:href="#DejaVuSans-30"/>
       <use x="127.246094" xlink:href="#DejaVuSans-30"/>
      </g>
     </g>
    </g>
    <g id="xtick_12">
     <g id="line2d_18">
      <g>
       <use style="stroke:#000000;stroke-width:0.8;" x="1110.477973" xlink:href="#m1e07894f26" y="1264.318125"/>
      </g>
     </g>
     <g id="text_20">
      <!-- 800 -->
      <g transform="translate(1100.934223 1278.916563)scale(0.1 -0.1)">
       <use xlink:href="#DejaVuSans-38"/>
       <use x="63.623047" xlink:href="#DejaVuSans-30"/>
       <use x="127.246094" xlink:href="#DejaVuSans-30"/>
      </g>
     </g>
    </g>
    <g id="xtick_13">
     <g id="line2d_19">
      <g>
       <use style="stroke:#000000;stroke-width:0.8;" x="1358.129427" xlink:href="#m1e07894f26" y="1264.318125"/>
      </g>
     </g>
     <g id="text_21">
      <!-- 1000 -->
      <g transform="translate(1345.404427 1278.916563)scale(0.1 -0.1)">
       <use xlink:href="#DejaVuSans-31"/>
       <use x="63.623047" xlink:href="#DejaVuSans-30"/>
       <use x="127.246094" xlink:href="#DejaVuSans-30"/>
       <use x="190.869141" xlink:href="#DejaVuSans-30"/>
      </g>
     </g>
    </g>
    <g id="xtick_14">
     <g id="line2d_20">
      <g>
       <use style="stroke:#000000;stroke-width:0.8;" x="1605.78088" xlink:href="#m1e07894f26" y="1264.318125"/>
      </g>
     </g>
     <g id="text_22">
      <!-- 1200 -->
      <g transform="translate(1593.05588 1278.916563)scale(0.1 -0.1)">
       <use xlink:href="#DejaVuSans-31"/>
       <use x="63.623047" xlink:href="#DejaVuSans-32"/>
       <use x="127.246094" xlink:href="#DejaVuSans-30"/>
       <use x="190.869141" xlink:href="#DejaVuSans-30"/>
      </g>
     </g>
    </g>
    <g id="text_23">
     <!-- frame -->
     <g transform="translate(865.954687 1292.594688)scale(0.1 -0.1)">
      <use xlink:href="#DejaVuSans-66"/>
      <use x="35.205078" xlink:href="#DejaVuSans-72"/>
      <use x="76.318359" xlink:href="#DejaVuSans-61"/>
      <use x="137.597656" xlink:href="#DejaVuSans-6d"/>
      <use x="235.009766" xlink:href="#DejaVuSans-65"/>
     </g>
    </g>
   </g>
   <g id="matplotlib.axis_4">
    <g id="ytick_6">
     <g id="line2d_21">
      <g>
       <use style="stroke:#000000;stroke-width:0.8;" x="43.78125" xlink:href="#m23a84fe6db" y="1238.656968"/>
      </g>
     </g>
     <g id="text_24">
      <!-- 0.0 -->
      <g transform="translate(20.878125 1242.456187)scale(0.1 -0.1)">
       <use xlink:href="#DejaVuSans-30"/>
       <use x="63.623047" xlink:href="#DejaVuSans-2e"/>
       <use x="95.410156" xlink:href="#DejaVuSans-30"/>
      </g>
     </g>
    </g>
    <g id="ytick_7">
     <g id="line2d_22">
      <g>
       <use style="stroke:#000000;stroke-width:0.8;" x="43.78125" xlink:href="#m23a84fe6db" y="1136.01234"/>
      </g>
     </g>
     <g id="text_25">
      <!-- 0.2 -->
      <g transform="translate(20.878125 1139.811559)scale(0.1 -0.1)">
       <use xlink:href="#DejaVuSans-30"/>
       <use x="63.623047" xlink:href="#DejaVuSans-2e"/>
       <use x="95.410156" xlink:href="#DejaVuSans-32"/>
      </g>
     </g>
    </g>
    <g id="ytick_8">
     <g id="line2d_23">
      <g>
       <use style="stroke:#000000;stroke-width:0.8;" x="43.78125" xlink:href="#m23a84fe6db" y="1033.367712"/>
      </g>
     </g>
     <g id="text_26">
      <!-- 0.4 -->
      <g transform="translate(20.878125 1037.166931)scale(0.1 -0.1)">
       <use xlink:href="#DejaVuSans-30"/>
       <use x="63.623047" xlink:href="#DejaVuSans-2e"/>
       <use x="95.410156" xlink:href="#DejaVuSans-34"/>
      </g>
     </g>
    </g>
    <g id="ytick_9">
     <g id="line2d_24">
      <g>
       <use style="stroke:#000000;stroke-width:0.8;" x="43.78125" xlink:href="#m23a84fe6db" y="930.723084"/>
      </g>
     </g>
     <g id="text_27">
      <!-- 0.6 -->
      <g transform="translate(20.878125 934.522302)scale(0.1 -0.1)">
       <use xlink:href="#DejaVuSans-30"/>
       <use x="63.623047" xlink:href="#DejaVuSans-2e"/>
       <use x="95.410156" xlink:href="#DejaVuSans-36"/>
      </g>
     </g>
    </g>
    <g id="ytick_10">
     <g id="line2d_25">
      <g>
       <use style="stroke:#000000;stroke-width:0.8;" x="43.78125" xlink:href="#m23a84fe6db" y="828.078456"/>
      </g>
     </g>
     <g id="text_28">
      <!-- 0.8 -->
      <g transform="translate(20.878125 831.877674)scale(0.1 -0.1)">
       <use xlink:href="#DejaVuSans-30"/>
       <use x="63.623047" xlink:href="#DejaVuSans-2e"/>
       <use x="95.410156" xlink:href="#DejaVuSans-38"/>
      </g>
     </g>
    </g>
    <g id="ytick_11">
     <g id="line2d_26">
      <g>
       <use style="stroke:#000000;stroke-width:0.8;" x="43.78125" xlink:href="#m23a84fe6db" y="725.433827"/>
      </g>
     </g>
     <g id="text_29">
      <!-- 1.0 -->
      <g transform="translate(20.878125 729.233046)scale(0.1 -0.1)">
       <use xlink:href="#DejaVuSans-31"/>
       <use x="63.623047" xlink:href="#DejaVuSans-2e"/>
       <use x="95.410156" xlink:href="#DejaVuSans-30"/>
      </g>
     </g>
    </g>
    <g id="text_30">
     <!-- GCaMP -->
     <g transform="translate(14.798437 999.803991)rotate(-90)scale(0.1 -0.1)">
      <use xlink:href="#DejaVuSans-47"/>
      <use x="77.490234" xlink:href="#DejaVuSans-43"/>
      <use x="147.314453" xlink:href="#DejaVuSans-61"/>
      <use x="208.59375" xlink:href="#DejaVuSans-4d"/>
      <use x="294.873047" xlink:href="#DejaVuSans-50"/>
     </g>
    </g>
   </g>
   <g id="line2d_27">
    <path clip-path="url(#p8e63ab7ddc)" d="M 119.872159 1238.656968 
L 1245.448015 1238.656968 
L 1246.686273 725.433827 
L 1641.690341 725.433827 
L 1641.690341 725.433827 
" style="fill:none;stroke:#008000;stroke-linecap:square;stroke-width:1.5;"/>
   </g>
   <g id="patch_8">
    <path d="M 43.78125 1264.318125 
L 43.78125 699.77267 
" style="fill:none;stroke:#000000;stroke-linecap:square;stroke-linejoin:miter;stroke-width:0.8;"/>
   </g>
   <g id="patch_9">
    <path d="M 1717.78125 1264.318125 
L 1717.78125 699.77267 
" style="fill:none;stroke:#000000;stroke-linecap:square;stroke-linejoin:miter;stroke-width:0.8;"/>
   </g>
   <g id="patch_10">
    <path d="M 43.78125 1264.318125 
L 1717.78125 1264.318125 
" style="fill:none;stroke:#000000;stroke-linecap:square;stroke-linejoin:miter;stroke-width:0.8;"/>
   </g>
   <g id="patch_11">
    <path d="M 43.78125 699.77267 
L 1717.78125 699.77267 
" style="fill:none;stroke:#000000;stroke-linecap:square;stroke-linejoin:miter;stroke-width:0.8;"/>
   </g>
   <g id="text_31">
    <!-- before binarisation -->
    <g transform="translate(824.1825 693.77267)scale(0.12 -0.12)">
     <use xlink:href="#DejaVuSans-62"/>
     <use x="63.476562" xlink:href="#DejaVuSans-65"/>
     <use x="125" xlink:href="#DejaVuSans-66"/>
     <use x="160.205078" xlink:href="#DejaVuSans-6f"/>
     <use x="221.386719" xlink:href="#DejaVuSans-72"/>
     <use x="260.25" xlink:href="#DejaVuSans-65"/>
     <use x="321.773438" xlink:href="#DejaVuSans-20"/>
     <use x="353.560547" xlink:href="#DejaVuSans-62"/>
     <use x="417.037109" xlink:href="#DejaVuSans-69"/>
     <use x="444.820312" xlink:href="#DejaVuSans-6e"/>
     <use x="508.199219" xlink:href="#DejaVuSans-61"/>
     <use x="569.478516" xlink:href="#DejaVuSans-72"/>
     <use x="610.591797" xlink:href="#DejaVuSans-69"/>
     <use x="638.375" xlink:href="#DejaVuSans-73"/>
     <use x="690.474609" xlink:href="#DejaVuSans-61"/>
     <use x="751.753906" xlink:href="#DejaVuSans-74"/>
     <use x="790.962891" xlink:href="#DejaVuSans-69"/>
     <use x="818.746094" xlink:href="#DejaVuSans-6f"/>
     <use x="879.927734" xlink:href="#DejaVuSans-6e"/>
    </g>
   </g>
  </g>
 </g>
 <defs>
  <clipPath id="p00257a38be">
   <rect height="564.545455" width="1674" x="43.78125" y="22.318125"/>
  </clipPath>
  <clipPath id="p8e63ab7ddc">
   <rect height="564.545455" width="1674" x="43.78125" y="699.77267"/>
  </clipPath>
 </defs>
</svg>
