<?xml version="1.0" encoding="utf-8" standalone="no"?>
<!DOCTYPE svg PUBLIC "-//W3C//DTD SVG 1.1//EN"
  "http://www.w3.org/Graphics/SVG/1.1/DTD/svg11.dtd">
<svg height="1301.874375pt" version="1.1" viewBox="0 0 1731.34375 1301.874375" width="1731.34375pt" xmlns="http://www.w3.org/2000/svg" xmlns:xlink="http://www.w3.org/1999/xlink">
 <metadata>
  <rdf:RDF xmlns:cc="http://creativecommons.org/ns#" xmlns:dc="http://purl.org/dc/elements/1.1/" xmlns:rdf="http://www.w3.org/1999/02/22-rdf-syntax-ns#">
   <cc:Work>
    <dc:type rdf:resource="http://purl.org/dc/dcmitype/StillImage"/>
    <dc:date>2022-07-24T15:54:31.115899</dc:date>
    <dc:format>image/svg+xml</dc:format>
    <dc:creator>
     <cc:Agent>
      <dc:title>Matplotlib v3.4.2, https://matplotlib.org/</dc:title>
     </cc:Agent>
    </dc:creator>
   </cc:Work>
  </rdf:RDF>
 </metadata>
 <defs>
  <style type="text/css">*{stroke-linecap:butt;stroke-linejoin:round;}</style>
 </defs>
 <g id="figure_1">
  <g id="patch_1">
   <path d="M 0 1301.874375 
L 1731.34375 1301.874375 
L 1731.34375 0 
L 0 0 
z
" style="fill:#ffffff;"/>
  </g>
  <g id="axes_1">
   <g id="patch_2">
    <path d="M 50.14375 586.86358 
L 1724.14375 586.86358 
L 1724.14375 22.318125 
L 50.14375 22.318125 
z
" style="fill:#ffffff;"/>
   </g>
   <g id="matplotlib.axis_1">
    <g id="xtick_1">
     <g id="line2d_1">
      <defs>
       <path d="M 0 0 
L 0 3.5 
" id="m8ae5c752b2" style="stroke:#000000;stroke-width:0.8;"/>
      </defs>
      <g>
       <use style="stroke:#000000;stroke-width:0.8;" x="126.234659" xlink:href="#m8ae5c752b2" y="586.86358"/>
      </g>
     </g>
     <g id="text_1">
      <!-- 0 -->
      <g transform="translate(123.053409 601.462017)scale(0.1 -0.1)">
       <defs>
        <path d="M 2034 4250 
Q 1547 4250 1301 3770 
Q 1056 3291 1056 2328 
Q 1056 1369 1301 889 
Q 1547 409 2034 409 
Q 2525 409 2770 889 
Q 3016 1369 3016 2328 
Q 3016 3291 2770 3770 
Q 2525 4250 2034 4250 
z
M 2034 4750 
Q 2819 4750 3233 4129 
Q 3647 3509 3647 2328 
Q 3647 1150 3233 529 
Q 2819 -91 2034 -91 
Q 1250 -91 836 529 
Q 422 1150 422 2328 
Q 422 3509 836 4129 
Q 1250 4750 2034 4750 
z
" id="DejaVuSans-30" transform="scale(0.015625)"/>
       </defs>
       <use xlink:href="#DejaVuSans-30"/>
      </g>
     </g>
    </g>
    <g id="xtick_2">
     <g id="line2d_2">
      <g>
       <use style="stroke:#000000;stroke-width:0.8;" x="373.886113" xlink:href="#m8ae5c752b2" y="586.86358"/>
      </g>
     </g>
     <g id="text_2">
      <!-- 200 -->
      <g transform="translate(364.342363 601.462017)scale(0.1 -0.1)">
       <defs>
        <path d="M 1228 531 
L 3431 531 
L 3431 0 
L 469 0 
L 469 531 
Q 828 903 1448 1529 
Q 2069 2156 2228 2338 
Q 2531 2678 2651 2914 
Q 2772 3150 2772 3378 
Q 2772 3750 2511 3984 
Q 2250 4219 1831 4219 
Q 1534 4219 1204 4116 
Q 875 4013 500 3803 
L 500 4441 
Q 881 4594 1212 4672 
Q 1544 4750 1819 4750 
Q 2544 4750 2975 4387 
Q 3406 4025 3406 3419 
Q 3406 3131 3298 2873 
Q 3191 2616 2906 2266 
Q 2828 2175 2409 1742 
Q 1991 1309 1228 531 
z
" id="DejaVuSans-32" transform="scale(0.015625)"/>
       </defs>
       <use xlink:href="#DejaVuSans-32"/>
       <use x="63.623047" xlink:href="#DejaVuSans-30"/>
       <use x="127.246094" xlink:href="#DejaVuSans-30"/>
      </g>
     </g>
    </g>
    <g id="xtick_3">
     <g id="line2d_3">
      <g>
       <use style="stroke:#000000;stroke-width:0.8;" x="621.537566" xlink:href="#m8ae5c752b2" y="586.86358"/>
      </g>
     </g>
     <g id="text_3">
      <!-- 400 -->
      <g transform="translate(611.993816 601.462017)scale(0.1 -0.1)">
       <defs>
        <path d="M 2419 4116 
L 825 1625 
L 2419 1625 
L 2419 4116 
z
M 2253 4666 
L 3047 4666 
L 3047 1625 
L 3713 1625 
L 3713 1100 
L 3047 1100 
L 3047 0 
L 2419 0 
L 2419 1100 
L 313 1100 
L 313 1709 
L 2253 4666 
z
" id="DejaVuSans-34" transform="scale(0.015625)"/>
       </defs>
       <use xlink:href="#DejaVuSans-34"/>
       <use x="63.623047" xlink:href="#DejaVuSans-30"/>
       <use x="127.246094" xlink:href="#DejaVuSans-30"/>
      </g>
     </g>
    </g>
    <g id="xtick_4">
     <g id="line2d_4">
      <g>
       <use style="stroke:#000000;stroke-width:0.8;" x="869.18902" xlink:href="#m8ae5c752b2" y="586.86358"/>
      </g>
     </g>
     <g id="text_4">
      <!-- 600 -->
      <g transform="translate(859.64527 601.462017)scale(0.1 -0.1)">
       <defs>
        <path d="M 2113 2584 
Q 1688 2584 1439 2293 
Q 1191 2003 1191 1497 
Q 1191 994 1439 701 
Q 1688 409 2113 409 
Q 2538 409 2786 701 
Q 3034 994 3034 1497 
Q 3034 2003 2786 2293 
Q 2538 2584 2113 2584 
z
M 3366 4563 
L 3366 3988 
Q 3128 4100 2886 4159 
Q 2644 4219 2406 4219 
Q 1781 4219 1451 3797 
Q 1122 3375 1075 2522 
Q 1259 2794 1537 2939 
Q 1816 3084 2150 3084 
Q 2853 3084 3261 2657 
Q 3669 2231 3669 1497 
Q 3669 778 3244 343 
Q 2819 -91 2113 -91 
Q 1303 -91 875 529 
Q 447 1150 447 2328 
Q 447 3434 972 4092 
Q 1497 4750 2381 4750 
Q 2619 4750 2861 4703 
Q 3103 4656 3366 4563 
z
" id="DejaVuSans-36" transform="scale(0.015625)"/>
       </defs>
       <use xlink:href="#DejaVuSans-36"/>
       <use x="63.623047" xlink:href="#DejaVuSans-30"/>
       <use x="127.246094" xlink:href="#DejaVuSans-30"/>
      </g>
     </g>
    </g>
    <g id="xtick_5">
     <g id="line2d_5">
      <g>
       <use style="stroke:#000000;stroke-width:0.8;" x="1116.840473" xlink:href="#m8ae5c752b2" y="586.86358"/>
      </g>
     </g>
     <g id="text_5">
      <!-- 800 -->
      <g transform="translate(1107.296723 601.462017)scale(0.1 -0.1)">
       <defs>
        <path d="M 2034 2216 
Q 1584 2216 1326 1975 
Q 1069 1734 1069 1313 
Q 1069 891 1326 650 
Q 1584 409 2034 409 
Q 2484 409 2743 651 
Q 3003 894 3003 1313 
Q 3003 1734 2745 1975 
Q 2488 2216 2034 2216 
z
M 1403 2484 
Q 997 2584 770 2862 
Q 544 3141 544 3541 
Q 544 4100 942 4425 
Q 1341 4750 2034 4750 
Q 2731 4750 3128 4425 
Q 3525 4100 3525 3541 
Q 3525 3141 3298 2862 
Q 3072 2584 2669 2484 
Q 3125 2378 3379 2068 
Q 3634 1759 3634 1313 
Q 3634 634 3220 271 
Q 2806 -91 2034 -91 
Q 1263 -91 848 271 
Q 434 634 434 1313 
Q 434 1759 690 2068 
Q 947 2378 1403 2484 
z
M 1172 3481 
Q 1172 3119 1398 2916 
Q 1625 2713 2034 2713 
Q 2441 2713 2670 2916 
Q 2900 3119 2900 3481 
Q 2900 3844 2670 4047 
Q 2441 4250 2034 4250 
Q 1625 4250 1398 4047 
Q 1172 3844 1172 3481 
z
" id="DejaVuSans-38" transform="scale(0.015625)"/>
       </defs>
       <use xlink:href="#DejaVuSans-38"/>
       <use x="63.623047" xlink:href="#DejaVuSans-30"/>
       <use x="127.246094" xlink:href="#DejaVuSans-30"/>
      </g>
     </g>
    </g>
    <g id="xtick_6">
     <g id="line2d_6">
      <g>
       <use style="stroke:#000000;stroke-width:0.8;" x="1364.491927" xlink:href="#m8ae5c752b2" y="586.86358"/>
      </g>
     </g>
     <g id="text_6">
      <!-- 1000 -->
      <g transform="translate(1351.766927 601.462017)scale(0.1 -0.1)">
       <defs>
        <path d="M 794 531 
L 1825 531 
L 1825 4091 
L 703 3866 
L 703 4441 
L 1819 4666 
L 2450 4666 
L 2450 531 
L 3481 531 
L 3481 0 
L 794 0 
L 794 531 
z
" id="DejaVuSans-31" transform="scale(0.015625)"/>
       </defs>
       <use xlink:href="#DejaVuSans-31"/>
       <use x="63.623047" xlink:href="#DejaVuSans-30"/>
       <use x="127.246094" xlink:href="#DejaVuSans-30"/>
       <use x="190.869141" xlink:href="#DejaVuSans-30"/>
      </g>
     </g>
    </g>
    <g id="xtick_7">
     <g id="line2d_7">
      <g>
       <use style="stroke:#000000;stroke-width:0.8;" x="1612.14338" xlink:href="#m8ae5c752b2" y="586.86358"/>
      </g>
     </g>
     <g id="text_7">
      <!-- 1200 -->
      <g transform="translate(1599.41838 601.462017)scale(0.1 -0.1)">
       <use xlink:href="#DejaVuSans-31"/>
       <use x="63.623047" xlink:href="#DejaVuSans-32"/>
       <use x="127.246094" xlink:href="#DejaVuSans-30"/>
       <use x="190.869141" xlink:href="#DejaVuSans-30"/>
      </g>
     </g>
    </g>
    <g id="text_8">
     <!-- frame -->
     <g transform="translate(872.317187 615.140142)scale(0.1 -0.1)">
      <defs>
       <path d="M 2375 4863 
L 2375 4384 
L 1825 4384 
Q 1516 4384 1395 4259 
Q 1275 4134 1275 3809 
L 1275 3500 
L 2222 3500 
L 2222 3053 
L 1275 3053 
L 1275 0 
L 697 0 
L 697 3053 
L 147 3053 
L 147 3500 
L 697 3500 
L 697 3744 
Q 697 4328 969 4595 
Q 1241 4863 1831 4863 
L 2375 4863 
z
" id="DejaVuSans-66" transform="scale(0.015625)"/>
       <path d="M 2631 2963 
Q 2534 3019 2420 3045 
Q 2306 3072 2169 3072 
Q 1681 3072 1420 2755 
Q 1159 2438 1159 1844 
L 1159 0 
L 581 0 
L 581 3500 
L 1159 3500 
L 1159 2956 
Q 1341 3275 1631 3429 
Q 1922 3584 2338 3584 
Q 2397 3584 2469 3576 
Q 2541 3569 2628 3553 
L 2631 2963 
z
" id="DejaVuSans-72" transform="scale(0.015625)"/>
       <path d="M 2194 1759 
Q 1497 1759 1228 1600 
Q 959 1441 959 1056 
Q 959 750 1161 570 
Q 1363 391 1709 391 
Q 2188 391 2477 730 
Q 2766 1069 2766 1631 
L 2766 1759 
L 2194 1759 
z
M 3341 1997 
L 3341 0 
L 2766 0 
L 2766 531 
Q 2569 213 2275 61 
Q 1981 -91 1556 -91 
Q 1019 -91 701 211 
Q 384 513 384 1019 
Q 384 1609 779 1909 
Q 1175 2209 1959 2209 
L 2766 2209 
L 2766 2266 
Q 2766 2663 2505 2880 
Q 2244 3097 1772 3097 
Q 1472 3097 1187 3025 
Q 903 2953 641 2809 
L 641 3341 
Q 956 3463 1253 3523 
Q 1550 3584 1831 3584 
Q 2591 3584 2966 3190 
Q 3341 2797 3341 1997 
z
" id="DejaVuSans-61" transform="scale(0.015625)"/>
       <path d="M 3328 2828 
Q 3544 3216 3844 3400 
Q 4144 3584 4550 3584 
Q 5097 3584 5394 3201 
Q 5691 2819 5691 2113 
L 5691 0 
L 5113 0 
L 5113 2094 
Q 5113 2597 4934 2840 
Q 4756 3084 4391 3084 
Q 3944 3084 3684 2787 
Q 3425 2491 3425 1978 
L 3425 0 
L 2847 0 
L 2847 2094 
Q 2847 2600 2669 2842 
Q 2491 3084 2119 3084 
Q 1678 3084 1418 2786 
Q 1159 2488 1159 1978 
L 1159 0 
L 581 0 
L 581 3500 
L 1159 3500 
L 1159 2956 
Q 1356 3278 1631 3431 
Q 1906 3584 2284 3584 
Q 2666 3584 2933 3390 
Q 3200 3197 3328 2828 
z
" id="DejaVuSans-6d" transform="scale(0.015625)"/>
       <path d="M 3597 1894 
L 3597 1613 
L 953 1613 
Q 991 1019 1311 708 
Q 1631 397 2203 397 
Q 2534 397 2845 478 
Q 3156 559 3463 722 
L 3463 178 
Q 3153 47 2828 -22 
Q 2503 -91 2169 -91 
Q 1331 -91 842 396 
Q 353 884 353 1716 
Q 353 2575 817 3079 
Q 1281 3584 2069 3584 
Q 2775 3584 3186 3129 
Q 3597 2675 3597 1894 
z
M 3022 2063 
Q 3016 2534 2758 2815 
Q 2500 3097 2075 3097 
Q 1594 3097 1305 2825 
Q 1016 2553 972 2059 
L 3022 2063 
z
" id="DejaVuSans-65" transform="scale(0.015625)"/>
      </defs>
      <use xlink:href="#DejaVuSans-66"/>
      <use x="35.205078" xlink:href="#DejaVuSans-72"/>
      <use x="76.318359" xlink:href="#DejaVuSans-61"/>
      <use x="137.597656" xlink:href="#DejaVuSans-6d"/>
      <use x="235.009766" xlink:href="#DejaVuSans-65"/>
     </g>
    </g>
   </g>
   <g id="matplotlib.axis_2">
    <g id="ytick_1">
     <g id="line2d_8">
      <defs>
       <path d="M 0 0 
L -3.5 0 
" id="m8eb6a0123c" style="stroke:#000000;stroke-width:0.8;"/>
      </defs>
      <g>
       <use style="stroke:#000000;stroke-width:0.8;" x="50.14375" xlink:href="#m8eb6a0123c" y="561.202423"/>
      </g>
     </g>
     <g id="text_9">
      <!-- 0.0 -->
      <g transform="translate(27.240625 565.001641)scale(0.1 -0.1)">
       <defs>
        <path d="M 684 794 
L 1344 794 
L 1344 0 
L 684 0 
L 684 794 
z
" id="DejaVuSans-2e" transform="scale(0.015625)"/>
       </defs>
       <use xlink:href="#DejaVuSans-30"/>
       <use x="63.623047" xlink:href="#DejaVuSans-2e"/>
       <use x="95.410156" xlink:href="#DejaVuSans-30"/>
      </g>
     </g>
    </g>
    <g id="ytick_2">
     <g id="line2d_9">
      <g>
       <use style="stroke:#000000;stroke-width:0.8;" x="50.14375" xlink:href="#m8eb6a0123c" y="490.251581"/>
      </g>
     </g>
     <g id="text_10">
      <!-- 2.5 -->
      <g transform="translate(27.240625 494.0508)scale(0.1 -0.1)">
       <defs>
        <path d="M 691 4666 
L 3169 4666 
L 3169 4134 
L 1269 4134 
L 1269 2991 
Q 1406 3038 1543 3061 
Q 1681 3084 1819 3084 
Q 2600 3084 3056 2656 
Q 3513 2228 3513 1497 
Q 3513 744 3044 326 
Q 2575 -91 1722 -91 
Q 1428 -91 1123 -41 
Q 819 9 494 109 
L 494 744 
Q 775 591 1075 516 
Q 1375 441 1709 441 
Q 2250 441 2565 725 
Q 2881 1009 2881 1497 
Q 2881 1984 2565 2268 
Q 2250 2553 1709 2553 
Q 1456 2553 1204 2497 
Q 953 2441 691 2322 
L 691 4666 
z
" id="DejaVuSans-35" transform="scale(0.015625)"/>
       </defs>
       <use xlink:href="#DejaVuSans-32"/>
       <use x="63.623047" xlink:href="#DejaVuSans-2e"/>
       <use x="95.410156" xlink:href="#DejaVuSans-35"/>
      </g>
     </g>
    </g>
    <g id="ytick_3">
     <g id="line2d_10">
      <g>
       <use style="stroke:#000000;stroke-width:0.8;" x="50.14375" xlink:href="#m8eb6a0123c" y="419.30074"/>
      </g>
     </g>
     <g id="text_11">
      <!-- 5.0 -->
      <g transform="translate(27.240625 423.099959)scale(0.1 -0.1)">
       <use xlink:href="#DejaVuSans-35"/>
       <use x="63.623047" xlink:href="#DejaVuSans-2e"/>
       <use x="95.410156" xlink:href="#DejaVuSans-30"/>
      </g>
     </g>
    </g>
    <g id="ytick_4">
     <g id="line2d_11">
      <g>
       <use style="stroke:#000000;stroke-width:0.8;" x="50.14375" xlink:href="#m8eb6a0123c" y="348.349899"/>
      </g>
     </g>
     <g id="text_12">
      <!-- 7.5 -->
      <g transform="translate(27.240625 352.149117)scale(0.1 -0.1)">
       <defs>
        <path d="M 525 4666 
L 3525 4666 
L 3525 4397 
L 1831 0 
L 1172 0 
L 2766 4134 
L 525 4134 
L 525 4666 
z
" id="DejaVuSans-37" transform="scale(0.015625)"/>
       </defs>
       <use xlink:href="#DejaVuSans-37"/>
       <use x="63.623047" xlink:href="#DejaVuSans-2e"/>
       <use x="95.410156" xlink:href="#DejaVuSans-35"/>
      </g>
     </g>
    </g>
    <g id="ytick_5">
     <g id="line2d_12">
      <g>
       <use style="stroke:#000000;stroke-width:0.8;" x="50.14375" xlink:href="#m8eb6a0123c" y="277.399057"/>
      </g>
     </g>
     <g id="text_13">
      <!-- 10.0 -->
      <g transform="translate(20.878125 281.198276)scale(0.1 -0.1)">
       <use xlink:href="#DejaVuSans-31"/>
       <use x="63.623047" xlink:href="#DejaVuSans-30"/>
       <use x="127.246094" xlink:href="#DejaVuSans-2e"/>
       <use x="159.033203" xlink:href="#DejaVuSans-30"/>
      </g>
     </g>
    </g>
    <g id="ytick_6">
     <g id="line2d_13">
      <g>
       <use style="stroke:#000000;stroke-width:0.8;" x="50.14375" xlink:href="#m8eb6a0123c" y="206.448216"/>
      </g>
     </g>
     <g id="text_14">
      <!-- 12.5 -->
      <g transform="translate(20.878125 210.247435)scale(0.1 -0.1)">
       <use xlink:href="#DejaVuSans-31"/>
       <use x="63.623047" xlink:href="#DejaVuSans-32"/>
       <use x="127.246094" xlink:href="#DejaVuSans-2e"/>
       <use x="159.033203" xlink:href="#DejaVuSans-35"/>
      </g>
     </g>
    </g>
    <g id="ytick_7">
     <g id="line2d_14">
      <g>
       <use style="stroke:#000000;stroke-width:0.8;" x="50.14375" xlink:href="#m8eb6a0123c" y="135.497375"/>
      </g>
     </g>
     <g id="text_15">
      <!-- 15.0 -->
      <g transform="translate(20.878125 139.296594)scale(0.1 -0.1)">
       <use xlink:href="#DejaVuSans-31"/>
       <use x="63.623047" xlink:href="#DejaVuSans-35"/>
       <use x="127.246094" xlink:href="#DejaVuSans-2e"/>
       <use x="159.033203" xlink:href="#DejaVuSans-30"/>
      </g>
     </g>
    </g>
    <g id="ytick_8">
     <g id="line2d_15">
      <g>
       <use style="stroke:#000000;stroke-width:0.8;" x="50.14375" xlink:href="#m8eb6a0123c" y="64.546534"/>
      </g>
     </g>
     <g id="text_16">
      <!-- 17.5 -->
      <g transform="translate(20.878125 68.345752)scale(0.1 -0.1)">
       <use xlink:href="#DejaVuSans-31"/>
       <use x="63.623047" xlink:href="#DejaVuSans-37"/>
       <use x="127.246094" xlink:href="#DejaVuSans-2e"/>
       <use x="159.033203" xlink:href="#DejaVuSans-35"/>
      </g>
     </g>
    </g>
    <g id="text_17">
     <!-- GCaMP -->
     <g transform="translate(14.798438 322.349446)rotate(-90)scale(0.1 -0.1)">
      <defs>
       <path d="M 3809 666 
L 3809 1919 
L 2778 1919 
L 2778 2438 
L 4434 2438 
L 4434 434 
Q 4069 175 3628 42 
Q 3188 -91 2688 -91 
Q 1594 -91 976 548 
Q 359 1188 359 2328 
Q 359 3472 976 4111 
Q 1594 4750 2688 4750 
Q 3144 4750 3555 4637 
Q 3966 4525 4313 4306 
L 4313 3634 
Q 3963 3931 3569 4081 
Q 3175 4231 2741 4231 
Q 1884 4231 1454 3753 
Q 1025 3275 1025 2328 
Q 1025 1384 1454 906 
Q 1884 428 2741 428 
Q 3075 428 3337 486 
Q 3600 544 3809 666 
z
" id="DejaVuSans-47" transform="scale(0.015625)"/>
       <path d="M 4122 4306 
L 4122 3641 
Q 3803 3938 3442 4084 
Q 3081 4231 2675 4231 
Q 1875 4231 1450 3742 
Q 1025 3253 1025 2328 
Q 1025 1406 1450 917 
Q 1875 428 2675 428 
Q 3081 428 3442 575 
Q 3803 722 4122 1019 
L 4122 359 
Q 3791 134 3420 21 
Q 3050 -91 2638 -91 
Q 1578 -91 968 557 
Q 359 1206 359 2328 
Q 359 3453 968 4101 
Q 1578 4750 2638 4750 
Q 3056 4750 3426 4639 
Q 3797 4528 4122 4306 
z
" id="DejaVuSans-43" transform="scale(0.015625)"/>
       <path d="M 628 4666 
L 1569 4666 
L 2759 1491 
L 3956 4666 
L 4897 4666 
L 4897 0 
L 4281 0 
L 4281 4097 
L 3078 897 
L 2444 897 
L 1241 4097 
L 1241 0 
L 628 0 
L 628 4666 
z
" id="DejaVuSans-4d" transform="scale(0.015625)"/>
       <path d="M 1259 4147 
L 1259 2394 
L 2053 2394 
Q 2494 2394 2734 2622 
Q 2975 2850 2975 3272 
Q 2975 3691 2734 3919 
Q 2494 4147 2053 4147 
L 1259 4147 
z
M 628 4666 
L 2053 4666 
Q 2838 4666 3239 4311 
Q 3641 3956 3641 3272 
Q 3641 2581 3239 2228 
Q 2838 1875 2053 1875 
L 1259 1875 
L 1259 0 
L 628 0 
L 628 4666 
z
" id="DejaVuSans-50" transform="scale(0.015625)"/>
      </defs>
      <use xlink:href="#DejaVuSans-47"/>
      <use x="77.490234" xlink:href="#DejaVuSans-43"/>
      <use x="147.314453" xlink:href="#DejaVuSans-61"/>
      <use x="208.59375" xlink:href="#DejaVuSans-4d"/>
      <use x="294.873047" xlink:href="#DejaVuSans-50"/>
     </g>
    </g>
   </g>
   <g id="line2d_16">
    <path clip-path="url(#pb2bd060243)" d="M 126.234659 445.796541 
L 127.472916 444.892381 
L 128.711174 444.230441 
L 129.949431 443.88846 
L 131.187688 443.668808 
L 132.425945 443.244902 
L 133.664203 442.377339 
L 134.90246 441.051801 
L 137.378974 438.051472 
L 138.617232 436.834301 
L 143.570261 432.915855 
L 144.808518 432.128597 
L 146.046775 431.816359 
L 147.285033 432.157346 
L 148.52329 433.259873 
L 149.761547 435.057431 
L 154.714576 443.780707 
L 157.191091 447.633467 
L 158.429348 449.138483 
L 159.667605 450.253628 
L 160.905863 451.033188 
L 162.14412 451.511041 
L 164.620634 451.978905 
L 165.858892 452.543162 
L 167.097149 453.620424 
L 169.573663 456.669065 
L 172.050178 460.164047 
L 174.526693 463.901562 
L 175.76495 465.241848 
L 177.003207 465.991468 
L 181.956236 467.766651 
L 184.432751 468.157528 
L 185.671008 468.669582 
L 188.147522 470.343452 
L 189.38578 471.154209 
L 190.624037 471.635912 
L 191.862294 471.449135 
L 193.100552 470.51335 
L 194.338809 469.34279 
L 195.577066 468.723761 
L 196.815323 469.050682 
L 198.053581 470.213863 
L 199.291838 472.010862 
L 200.530095 474.316813 
L 203.00661 479.49155 
L 204.244867 481.493187 
L 205.483124 482.479489 
L 206.721381 482.19381 
L 207.959639 480.672605 
L 211.674411 473.517857 
L 212.912668 472.16987 
L 214.150925 472.111256 
L 215.389182 473.322479 
L 217.865697 476.970279 
L 220.342211 479.896304 
L 221.580469 481.048485 
L 222.818726 481.769068 
L 225.29524 482.617744 
L 226.533498 483.320409 
L 229.010012 484.932108 
L 230.24827 485.541135 
L 235.201299 487.422537 
L 236.439556 487.460861 
L 237.677813 487.116371 
L 241.392585 485.352806 
L 242.630842 485.178448 
L 243.8691 485.422119 
L 247.583871 487.108809 
L 248.822129 487.307246 
L 253.775158 487.458793 
L 255.013415 487.475435 
L 256.251672 487.294929 
L 261.204701 485.789587 
L 262.442959 485.627742 
L 263.681216 485.599844 
L 264.919473 485.797612 
L 266.15773 486.367228 
L 267.395988 487.381373 
L 268.634245 488.805489 
L 271.110759 492.102312 
L 272.349017 493.227605 
L 273.587274 493.604407 
L 274.825531 493.253615 
L 276.063788 492.348113 
L 278.540303 489.762245 
L 281.016818 487.138658 
L 282.255075 486.04163 
L 283.493332 485.443573 
L 284.731589 485.45234 
L 285.969847 485.959272 
L 287.208104 486.847752 
L 289.684618 489.321353 
L 290.922876 490.535506 
L 292.161133 491.540051 
L 293.39939 492.295721 
L 294.637647 492.811232 
L 295.875905 493.06957 
L 297.114162 492.984164 
L 298.352419 492.548471 
L 299.590677 491.971965 
L 300.828934 491.579782 
L 302.067191 491.604398 
L 303.305448 492.0261 
L 305.781963 493.119237 
L 307.02022 493.385765 
L 310.734992 493.465887 
L 314.449764 494.517525 
L 315.688021 494.389589 
L 318.164536 493.737285 
L 319.402793 493.872765 
L 320.64105 494.532065 
L 323.117565 496.305362 
L 324.355822 496.803729 
L 325.594079 496.849481 
L 326.832336 496.38463 
L 328.070594 495.427886 
L 330.547108 492.905429 
L 331.785366 492.046682 
L 333.023623 491.723202 
L 334.26188 491.934281 
L 336.738395 492.907462 
L 337.976652 492.960889 
L 339.214909 492.619635 
L 340.453166 491.99747 
L 345.406195 488.801098 
L 347.88271 487.671612 
L 349.120967 487.231292 
L 350.359225 486.657825 
L 351.597482 485.525161 
L 354.073996 481.750328 
L 355.312254 480.698944 
L 356.550511 481.221373 
L 359.027025 484.7671 
L 360.265283 486.006698 
L 361.50354 486.434144 
L 362.741797 486.226223 
L 363.980054 485.762225 
L 365.218312 485.438474 
L 366.456569 485.497858 
L 367.694826 485.929915 
L 368.933084 486.498418 
L 370.171341 486.863772 
L 371.409598 486.659287 
L 372.647855 485.686151 
L 373.886113 484.24628 
L 375.12437 483.003446 
L 376.362627 482.404575 
L 377.600884 482.486992 
L 378.839142 483.110836 
L 381.315656 485.047218 
L 382.553913 485.739456 
L 383.792171 486.02969 
L 385.030428 486.036502 
L 386.268685 485.916961 
L 387.506943 485.659405 
L 388.7452 485.168354 
L 391.221714 483.82766 
L 392.459972 483.355031 
L 393.698229 483.203353 
L 394.936486 483.475517 
L 396.174743 484.27404 
L 397.413001 485.562095 
L 398.651258 487.03503 
L 399.889515 488.284788 
L 401.127772 489.029663 
L 403.604287 489.49171 
L 404.842544 490.00554 
L 406.080802 490.776499 
L 407.319059 491.336204 
L 408.557316 491.221611 
L 409.795573 490.284766 
L 412.272088 487.157695 
L 413.510345 486.037488 
L 414.748602 485.595304 
L 415.98686 485.599139 
L 418.463374 485.808263 
L 419.701632 485.822204 
L 420.939889 485.605824 
L 422.178146 485.070979 
L 423.416403 484.40666 
L 427.131175 482.802973 
L 429.60769 480.593445 
L 430.845947 480.123906 
L 432.084204 480.809382 
L 433.322461 482.428993 
L 437.037233 488.449677 
L 438.275491 490.004985 
L 439.513748 490.825792 
L 440.752005 490.981281 
L 441.990262 490.744338 
L 443.22852 490.226902 
L 444.466777 489.356241 
L 445.705034 488.073882 
L 448.181549 484.659211 
L 450.658063 481.413107 
L 453.134578 478.369191 
L 454.372835 477.322398 
L 455.611092 476.976098 
L 456.84935 477.265364 
L 461.802379 479.846273 
L 466.755408 481.718881 
L 467.993665 481.98763 
L 469.231922 481.897979 
L 470.470179 481.439724 
L 474.184951 479.397083 
L 475.423209 479.094584 
L 476.661466 479.261277 
L 477.899723 479.91765 
L 479.13798 481.005672 
L 482.852752 485.30045 
L 484.091009 486.175543 
L 485.329267 486.638 
L 486.567524 486.73122 
L 487.805781 486.418531 
L 489.044038 485.599665 
L 490.282296 484.228167 
L 492.75881 480.752961 
L 493.997068 479.605591 
L 495.235325 479.336819 
L 497.711839 480.142559 
L 498.950097 480.202866 
L 500.188354 479.888134 
L 503.903126 478.572008 
L 507.617897 476.529309 
L 508.856155 476.145296 
L 510.094412 476.226699 
L 511.332669 476.922853 
L 513.809184 479.271141 
L 515.047441 479.857123 
L 516.285698 479.746043 
L 520.00047 478.172804 
L 521.238727 477.880629 
L 523.715242 477.743737 
L 524.953499 477.303047 
L 526.191757 476.268412 
L 527.430014 474.908913 
L 528.668271 473.945558 
L 529.906528 473.98516 
L 531.144786 475.100851 
L 533.6213 478.87734 
L 534.859557 480.357365 
L 536.097815 480.95762 
L 537.336072 480.719417 
L 539.812586 479.203467 
L 541.050844 478.426422 
L 542.289101 477.889537 
L 544.765616 477.523265 
L 546.003873 476.886015 
L 549.718645 473.412826 
L 550.956902 472.911768 
L 555.909931 472.366898 
L 557.148188 472.084944 
L 560.86296 470.854043 
L 562.101217 471.267757 
L 564.577732 473.047326 
L 565.815989 473.4711 
L 567.054246 473.419276 
L 568.292504 472.978064 
L 570.769018 471.424955 
L 572.007275 470.673462 
L 574.48379 469.528091 
L 575.722047 468.500579 
L 578.198562 465.648039 
L 579.436819 464.496474 
L 580.675076 463.702464 
L 581.913334 463.334955 
L 583.151591 463.486439 
L 584.389848 464.12752 
L 586.866363 465.950671 
L 590.581134 468.196337 
L 593.057649 470.405344 
L 594.295906 471.22777 
L 595.534163 471.725268 
L 596.772421 471.973516 
L 599.248935 472.135558 
L 600.487193 472.578966 
L 602.963707 474.186022 
L 604.201964 474.555254 
L 605.440222 474.308853 
L 612.869765 470.661673 
L 614.108023 470.509589 
L 617.822794 470.91541 
L 619.061052 470.79804 
L 620.299309 470.492217 
L 621.537566 561.202423 
L 979.393916 561.202423 
L 980.632174 438.625581 
L 981.870431 426.208602 
L 983.108688 415.001329 
L 984.346946 405.460904 
L 985.585203 397.444877 
L 986.82346 391.201679 
L 988.061717 387.43428 
L 989.299975 386.364166 
L 990.538232 387.31621 
L 991.776489 389.536758 
L 993.014746 392.620445 
L 994.253004 396.010167 
L 995.491261 398.983505 
L 996.729518 401.114654 
L 997.967775 402.361918 
L 999.206033 402.953725 
L 1001.682547 403.501781 
L 1002.920805 403.973288 
L 1004.159062 404.970396 
L 1005.397319 406.612708 
L 1006.635576 408.463221 
L 1007.873834 409.852598 
L 1009.112091 410.345604 
L 1010.350348 409.791571 
L 1011.588605 408.363909 
L 1012.826863 406.445736 
L 1014.06512 404.177765 
L 1015.303377 401.376196 
L 1017.779892 394.843816 
L 1019.018149 392.368066 
L 1020.256406 390.783621 
L 1023.971178 387.330209 
L 1025.209435 385.611756 
L 1026.447693 383.655107 
L 1027.68595 382.167527 
L 1028.924207 381.931521 
L 1030.162464 383.227256 
L 1031.400722 385.617331 
L 1032.638979 388.331785 
L 1033.877236 390.749115 
L 1035.115493 392.318595 
L 1036.353751 392.445797 
L 1037.592008 390.973714 
L 1038.830265 388.3445 
L 1040.068523 384.848836 
L 1041.30678 380.125188 
L 1042.545037 373.651797 
L 1046.259809 349.58794 
L 1048.736323 335.4248 
L 1049.974581 328.830411 
L 1051.212838 323.671262 
L 1052.451095 321.035675 
L 1053.689352 321.457959 
L 1054.92761 324.304836 
L 1056.165867 328.070375 
L 1057.404124 331.354881 
L 1058.642382 333.22348 
L 1059.880639 333.408365 
L 1061.118896 332.757416 
L 1062.357153 332.816787 
L 1063.595411 334.816618 
L 1064.833668 339.181539 
L 1068.54844 357.614796 
L 1069.786697 360.988034 
L 1071.024954 361.883352 
L 1072.263211 360.919384 
L 1073.501469 359.544225 
L 1074.739726 359.14035 
L 1075.977983 360.09036 
L 1077.216241 362.155305 
L 1078.454498 365.181432 
L 1085.884041 387.446114 
L 1087.122299 390.102055 
L 1090.837071 396.169949 
L 1095.7901 405.751585 
L 1097.028357 407.229908 
L 1098.266614 408.043687 
L 1099.504871 408.396816 
L 1100.743129 408.352132 
L 1101.981386 407.763006 
L 1103.219643 406.55755 
L 1104.4579 405.056785 
L 1105.696158 403.856648 
L 1106.934415 403.411209 
L 1108.172672 403.815645 
L 1109.41093 404.821694 
L 1111.887444 407.351553 
L 1113.125701 408.885429 
L 1115.602216 412.458002 
L 1116.840473 413.66065 
L 1118.07873 413.991559 
L 1120.555245 413.350084 
L 1121.793502 413.333841 
L 1123.031759 413.88894 
L 1124.270017 415.006995 
L 1125.508274 416.360598 
L 1126.746531 417.404459 
L 1127.984789 417.713606 
L 1129.223046 417.259107 
L 1130.461303 416.440307 
L 1131.69956 415.898292 
L 1132.937818 416.082679 
L 1134.176075 416.991821 
L 1135.414332 418.405469 
L 1137.890847 421.838023 
L 1139.129104 423.099878 
L 1140.367361 423.477151 
L 1141.605618 423.117015 
L 1142.843876 422.625216 
L 1144.082133 422.456293 
L 1145.32039 422.753651 
L 1146.558648 423.483746 
L 1147.796905 424.399522 
L 1149.035162 425.082911 
L 1150.273419 425.216843 
L 1151.511677 424.777521 
L 1153.988191 423.271176 
L 1156.464706 421.992123 
L 1158.94122 419.989886 
L 1160.179477 419.470053 
L 1161.417735 419.583765 
L 1162.655992 420.180657 
L 1165.132507 421.782889 
L 1168.847278 423.577547 
L 1170.085536 423.669843 
L 1172.56205 422.773028 
L 1173.800307 422.77347 
L 1177.515079 423.831855 
L 1178.753337 423.91764 
L 1179.991594 423.279075 
L 1181.229851 421.39714 
L 1182.468108 418.359413 
L 1183.706366 414.9756 
L 1184.944623 412.279509 
L 1186.18288 410.876298 
L 1187.421137 410.537925 
L 1188.659395 410.429052 
L 1189.897652 409.921676 
L 1191.135909 409.126436 
L 1192.374166 408.585787 
L 1193.612424 408.711737 
L 1194.850681 409.545548 
L 1196.088938 410.694325 
L 1197.327196 411.476567 
L 1198.565453 411.463881 
L 1199.80371 410.940508 
L 1201.041967 410.693778 
L 1202.280225 411.310198 
L 1204.756739 414.16024 
L 1205.994996 414.987636 
L 1207.233254 414.840935 
L 1209.709768 413.283067 
L 1210.948025 412.795911 
L 1213.42454 412.195683 
L 1214.662797 412.121491 
L 1215.901055 412.350674 
L 1217.139312 412.74919 
L 1218.377569 412.878506 
L 1219.615826 412.358553 
L 1220.854084 411.406087 
L 1222.092341 410.835937 
L 1223.330598 411.385771 
L 1224.568855 413.133949 
L 1227.04537 417.982428 
L 1228.283627 419.428529 
L 1229.521884 419.530459 
L 1231.998399 417.676893 
L 1233.236656 417.465863 
L 1234.474914 418.27171 
L 1235.713171 419.535259 
L 1236.951428 420.470719 
L 1238.189685 420.745501 
L 1239.427943 420.560634 
L 1240.6662 420.098011 
L 1241.904457 419.248443 
L 1243.142714 418.120444 
L 1244.380972 417.20651 
L 1245.619229 416.748283 
L 1246.857486 416.620474 
L 1248.095743 416.89531 
L 1249.334001 417.804217 
L 1250.572258 419.134131 
L 1251.810515 420.120541 
L 1253.048773 420.10808 
L 1254.28703 419.146604 
L 1258.001802 415.032497 
L 1260.478316 413.051763 
L 1262.954831 410.928224 
L 1264.193088 410.154889 
L 1265.431345 410.20122 
L 1266.669603 411.273361 
L 1267.90786 413.100505 
L 1270.384374 417.454389 
L 1272.860889 422.455639 
L 1274.099146 424.323146 
L 1275.337403 424.583285 
L 1276.575661 423.112798 
L 1277.813918 420.929451 
L 1279.052175 419.405555 
L 1280.290432 419.21622 
L 1281.52869 419.946601 
L 1282.766947 420.377987 
L 1284.005204 419.229303 
L 1285.243462 416.181493 
L 1286.481719 412.253206 
L 1287.719976 408.938168 
L 1288.958233 407.316192 
L 1290.196491 407.93142 
L 1291.434748 410.653593 
L 1293.911262 418.272449 
L 1295.14952 421.006671 
L 1296.387777 422.302053 
L 1297.626034 422.028808 
L 1298.864291 420.305379 
L 1300.102549 417.494862 
L 1302.579063 410.980572 
L 1303.817321 408.771218 
L 1305.055578 408.370757 
L 1306.293835 410.120803 
L 1307.532092 413.469172 
L 1308.77035 417.331837 
L 1310.008607 420.650184 
L 1311.246864 422.722754 
L 1312.485121 423.544139 
L 1313.723379 423.723962 
L 1314.961636 423.779618 
L 1316.199893 423.688134 
L 1317.43815 423.127873 
L 1318.676408 421.960158 
L 1321.152922 418.971442 
L 1322.39118 417.86503 
L 1323.629437 417.345206 
L 1324.867694 417.469667 
L 1331.05898 420.002682 
L 1332.297238 420.133749 
L 1333.535495 419.61748 
L 1334.773752 418.579788 
L 1336.012009 417.366227 
L 1337.250267 416.309195 
L 1338.488524 415.488179 
L 1339.726781 414.505817 
L 1340.965039 412.886031 
L 1342.203296 410.827882 
L 1343.441553 409.26136 
L 1344.67981 409.049538 
L 1345.918068 410.360217 
L 1348.394582 415.125125 
L 1349.632839 416.487553 
L 1350.871097 416.547935 
L 1353.347611 415.604024 
L 1354.585868 415.422932 
L 1357.062383 415.392376 
L 1358.30064 415.470026 
L 1359.538898 415.346603 
L 1362.015412 414.268569 
L 1363.253669 414.123769 
L 1364.491927 414.789234 
L 1365.730184 416.352687 
L 1366.968441 418.422162 
L 1368.206698 420.23289 
L 1369.444956 421.134652 
L 1370.683213 420.8569 
L 1371.92147 419.56839 
L 1373.159728 417.86675 
L 1374.397985 416.400145 
L 1375.636242 415.349955 
L 1376.874499 414.554309 
L 1378.112757 413.969126 
L 1380.589271 413.114298 
L 1381.827528 412.29834 
L 1383.065786 410.980813 
L 1384.304043 409.353671 
L 1385.5423 407.945081 
L 1386.780557 407.268252 
L 1388.018815 407.290654 
L 1390.495329 407.817632 
L 1391.733587 408.863842 
L 1394.210101 412.733681 
L 1395.448358 413.953808 
L 1396.686616 414.611595 
L 1397.924873 415.113564 
L 1399.16313 415.463053 
L 1400.401387 415.358601 
L 1401.639645 414.622037 
L 1402.877902 413.528239 
L 1404.116159 412.72452 
L 1405.354416 412.805027 
L 1406.592674 413.896971 
L 1407.830931 415.516395 
L 1409.069188 416.801744 
L 1410.307446 417.018913 
L 1411.545703 415.969956 
L 1412.78396 414.151926 
L 1414.022217 412.6304 
L 1415.260475 412.356682 
L 1416.498732 413.37464 
L 1417.736989 414.919327 
L 1418.975246 416.108139 
L 1420.213504 416.310616 
L 1421.451761 415.291114 
L 1422.690018 413.349651 
L 1423.928275 411.199465 
L 1425.166533 409.551568 
L 1426.40479 408.875786 
L 1427.643047 409.493075 
L 1428.881305 411.374159 
L 1430.119562 413.674176 
L 1431.357819 415.015848 
L 1432.596076 414.552266 
L 1433.834334 412.595953 
L 1435.072591 410.169468 
L 1436.310848 408.192056 
L 1437.549105 407.174959 
L 1438.787363 407.279821 
L 1441.263877 409.107586 
L 1442.502134 409.069251 
L 1443.740392 407.997517 
L 1446.216906 404.867795 
L 1447.455164 403.858342 
L 1448.693421 404.090581 
L 1449.931678 405.862091 
L 1453.64645 414.403326 
L 1454.884707 415.932789 
L 1458.599479 419.62702 
L 1459.837736 420.494976 
L 1461.075994 420.693257 
L 1462.314251 420.016548 
L 1463.552508 418.524357 
L 1466.029023 414.603359 
L 1467.26728 413.032177 
L 1468.505537 412.09654 
L 1469.743794 411.697931 
L 1470.982052 411.43044 
L 1473.458566 410.596706 
L 1474.696823 410.466231 
L 1475.935081 410.856737 
L 1477.173338 411.91818 
L 1478.411595 413.770303 
L 1479.649853 416.375048 
L 1480.88811 419.328813 
L 1482.126367 421.698011 
L 1483.364624 422.498501 
L 1484.602882 421.534318 
L 1485.841139 419.364274 
L 1487.079396 416.582642 
L 1489.555911 410.330956 
L 1490.794168 407.689091 
L 1492.032425 406.117576 
L 1493.270682 405.682533 
L 1494.50894 405.812189 
L 1495.747197 405.735547 
L 1498.223712 404.588412 
L 1499.461969 404.539552 
L 1500.700226 405.331729 
L 1503.176741 407.891091 
L 1504.414998 408.460256 
L 1506.891512 408.705635 
L 1508.12977 409.639625 
L 1509.368027 411.490393 
L 1510.606284 413.705438 
L 1511.844541 415.278737 
L 1513.082799 415.240592 
L 1514.321056 413.315782 
L 1515.559313 410.435934 
L 1516.797571 408.352691 
L 1518.035828 408.423051 
L 1519.274085 410.713721 
L 1521.7506 417.22813 
L 1522.988857 419.01729 
L 1524.227114 419.216176 
L 1525.465371 418.044184 
L 1526.703629 416.079783 
L 1527.941886 414.331334 
L 1529.180143 413.602445 
L 1530.4184 413.307004 
L 1531.656658 411.747917 
L 1532.894915 408.012431 
L 1536.609687 392.310693 
L 1537.847944 388.093072 
L 1539.086201 385.962683 
L 1540.324459 386.354119 
L 1541.562716 388.757547 
L 1542.800973 392.490347 
L 1545.277488 400.964456 
L 1546.515745 403.85293 
L 1547.754002 404.928558 
L 1548.99226 404.42279 
L 1551.468774 402.267495 
L 1552.707031 401.450086 
L 1553.945289 400.461554 
L 1555.183546 399.045448 
L 1556.421803 397.322917 
L 1557.66006 395.833191 
L 1558.898318 395.311667 
L 1560.136575 396.332577 
L 1561.374832 398.796228 
L 1565.089604 408.129239 
L 1566.327861 410.297964 
L 1567.566119 411.20146 
L 1568.804376 410.631825 
L 1571.28089 407.687901 
L 1572.519148 407.250027 
L 1573.757405 407.773068 
L 1574.995662 408.685757 
L 1576.233919 409.443316 
L 1578.710434 410.469529 
L 1579.948691 411.450582 
L 1581.186948 412.784534 
L 1582.425206 413.607164 
L 1583.663463 412.75529 
L 1584.90172 409.826994 
L 1587.378235 401.361691 
L 1588.616492 398.065681 
L 1589.854749 396.074483 
L 1591.093007 395.437493 
L 1592.331264 395.919063 
L 1593.569521 396.891135 
L 1594.807778 397.635568 
L 1596.046036 397.722639 
L 1597.284293 397.079849 
L 1598.52255 396.072175 
L 1599.760807 395.494034 
L 1600.999065 395.784821 
L 1602.237322 396.199995 
L 1603.475579 395.331997 
L 1604.713837 392.323941 
L 1605.952094 387.416761 
L 1608.428608 376.132582 
L 1610.905123 365.714875 
L 1612.14338 358.961445 
L 1617.096409 325.203482 
L 1618.334666 314.440448 
L 1619.572924 300.05849 
L 1623.287696 249.018175 
L 1624.525953 234.769438 
L 1627.002467 210.448962 
L 1629.478982 187.189814 
L 1631.955496 159.702691 
L 1633.193754 148.785343 
L 1634.432011 144.378627 
L 1635.670268 147.503108 
L 1636.908526 157.029652 
L 1638.146783 171.11716 
L 1639.38504 187.246237 
L 1640.623297 201.816043 
L 1641.861555 210.598947 
L 1643.099812 209.141398 
L 1644.338069 193.177097 
L 1645.576326 159.806385 
L 1646.814584 109.41197 
L 1648.052841 47.979282 
L 1648.052841 47.979282 
" style="fill:none;stroke:#008000;stroke-linecap:square;stroke-width:1.5;"/>
   </g>
   <g id="patch_3">
    <path d="M 50.14375 586.86358 
L 50.14375 22.318125 
" style="fill:none;stroke:#000000;stroke-linecap:square;stroke-linejoin:miter;stroke-width:0.8;"/>
   </g>
   <g id="patch_4">
    <path d="M 1724.14375 586.86358 
L 1724.14375 22.318125 
" style="fill:none;stroke:#000000;stroke-linecap:square;stroke-linejoin:miter;stroke-width:0.8;"/>
   </g>
   <g id="patch_5">
    <path d="M 50.14375 586.86358 
L 1724.14375 586.86358 
" style="fill:none;stroke:#000000;stroke-linecap:square;stroke-linejoin:miter;stroke-width:0.8;"/>
   </g>
   <g id="patch_6">
    <path d="M 50.14375 22.318125 
L 1724.14375 22.318125 
" style="fill:none;stroke:#000000;stroke-linecap:square;stroke-linejoin:miter;stroke-width:0.8;"/>
   </g>
   <g id="text_18">
    <!-- before binarisation -->
    <g transform="translate(830.545 16.318125)scale(0.12 -0.12)">
     <defs>
      <path d="M 3116 1747 
Q 3116 2381 2855 2742 
Q 2594 3103 2138 3103 
Q 1681 3103 1420 2742 
Q 1159 2381 1159 1747 
Q 1159 1113 1420 752 
Q 1681 391 2138 391 
Q 2594 391 2855 752 
Q 3116 1113 3116 1747 
z
M 1159 2969 
Q 1341 3281 1617 3432 
Q 1894 3584 2278 3584 
Q 2916 3584 3314 3078 
Q 3713 2572 3713 1747 
Q 3713 922 3314 415 
Q 2916 -91 2278 -91 
Q 1894 -91 1617 61 
Q 1341 213 1159 525 
L 1159 0 
L 581 0 
L 581 4863 
L 1159 4863 
L 1159 2969 
z
" id="DejaVuSans-62" transform="scale(0.015625)"/>
      <path d="M 1959 3097 
Q 1497 3097 1228 2736 
Q 959 2375 959 1747 
Q 959 1119 1226 758 
Q 1494 397 1959 397 
Q 2419 397 2687 759 
Q 2956 1122 2956 1747 
Q 2956 2369 2687 2733 
Q 2419 3097 1959 3097 
z
M 1959 3584 
Q 2709 3584 3137 3096 
Q 3566 2609 3566 1747 
Q 3566 888 3137 398 
Q 2709 -91 1959 -91 
Q 1206 -91 779 398 
Q 353 888 353 1747 
Q 353 2609 779 3096 
Q 1206 3584 1959 3584 
z
" id="DejaVuSans-6f" transform="scale(0.015625)"/>
      <path id="DejaVuSans-20" transform="scale(0.015625)"/>
      <path d="M 603 3500 
L 1178 3500 
L 1178 0 
L 603 0 
L 603 3500 
z
M 603 4863 
L 1178 4863 
L 1178 4134 
L 603 4134 
L 603 4863 
z
" id="DejaVuSans-69" transform="scale(0.015625)"/>
      <path d="M 3513 2113 
L 3513 0 
L 2938 0 
L 2938 2094 
Q 2938 2591 2744 2837 
Q 2550 3084 2163 3084 
Q 1697 3084 1428 2787 
Q 1159 2491 1159 1978 
L 1159 0 
L 581 0 
L 581 3500 
L 1159 3500 
L 1159 2956 
Q 1366 3272 1645 3428 
Q 1925 3584 2291 3584 
Q 2894 3584 3203 3211 
Q 3513 2838 3513 2113 
z
" id="DejaVuSans-6e" transform="scale(0.015625)"/>
      <path d="M 2834 3397 
L 2834 2853 
Q 2591 2978 2328 3040 
Q 2066 3103 1784 3103 
Q 1356 3103 1142 2972 
Q 928 2841 928 2578 
Q 928 2378 1081 2264 
Q 1234 2150 1697 2047 
L 1894 2003 
Q 2506 1872 2764 1633 
Q 3022 1394 3022 966 
Q 3022 478 2636 193 
Q 2250 -91 1575 -91 
Q 1294 -91 989 -36 
Q 684 19 347 128 
L 347 722 
Q 666 556 975 473 
Q 1284 391 1588 391 
Q 1994 391 2212 530 
Q 2431 669 2431 922 
Q 2431 1156 2273 1281 
Q 2116 1406 1581 1522 
L 1381 1569 
Q 847 1681 609 1914 
Q 372 2147 372 2553 
Q 372 3047 722 3315 
Q 1072 3584 1716 3584 
Q 2034 3584 2315 3537 
Q 2597 3491 2834 3397 
z
" id="DejaVuSans-73" transform="scale(0.015625)"/>
      <path d="M 1172 4494 
L 1172 3500 
L 2356 3500 
L 2356 3053 
L 1172 3053 
L 1172 1153 
Q 1172 725 1289 603 
Q 1406 481 1766 481 
L 2356 481 
L 2356 0 
L 1766 0 
Q 1100 0 847 248 
Q 594 497 594 1153 
L 594 3053 
L 172 3053 
L 172 3500 
L 594 3500 
L 594 4494 
L 1172 4494 
z
" id="DejaVuSans-74" transform="scale(0.015625)"/>
     </defs>
     <use xlink:href="#DejaVuSans-62"/>
     <use x="63.476562" xlink:href="#DejaVuSans-65"/>
     <use x="125" xlink:href="#DejaVuSans-66"/>
     <use x="160.205078" xlink:href="#DejaVuSans-6f"/>
     <use x="221.386719" xlink:href="#DejaVuSans-72"/>
     <use x="260.25" xlink:href="#DejaVuSans-65"/>
     <use x="321.773438" xlink:href="#DejaVuSans-20"/>
     <use x="353.560547" xlink:href="#DejaVuSans-62"/>
     <use x="417.037109" xlink:href="#DejaVuSans-69"/>
     <use x="444.820312" xlink:href="#DejaVuSans-6e"/>
     <use x="508.199219" xlink:href="#DejaVuSans-61"/>
     <use x="569.478516" xlink:href="#DejaVuSans-72"/>
     <use x="610.591797" xlink:href="#DejaVuSans-69"/>
     <use x="638.375" xlink:href="#DejaVuSans-73"/>
     <use x="690.474609" xlink:href="#DejaVuSans-61"/>
     <use x="751.753906" xlink:href="#DejaVuSans-74"/>
     <use x="790.962891" xlink:href="#DejaVuSans-69"/>
     <use x="818.746094" xlink:href="#DejaVuSans-6f"/>
     <use x="879.927734" xlink:href="#DejaVuSans-6e"/>
    </g>
   </g>
  </g>
  <g id="axes_2">
   <g id="patch_7">
    <path d="M 50.14375 1264.318125 
L 1724.14375 1264.318125 
L 1724.14375 699.77267 
L 50.14375 699.77267 
z
" style="fill:#ffffff;"/>
   </g>
   <g id="matplotlib.axis_3">
    <g id="xtick_8">
     <g id="line2d_17">
      <g>
       <use style="stroke:#000000;stroke-width:0.8;" x="126.234659" xlink:href="#m8ae5c752b2" y="1264.318125"/>
      </g>
     </g>
     <g id="text_19">
      <!-- 0 -->
      <g transform="translate(123.053409 1278.916563)scale(0.1 -0.1)">
       <use xlink:href="#DejaVuSans-30"/>
      </g>
     </g>
    </g>
    <g id="xtick_9">
     <g id="line2d_18">
      <g>
       <use style="stroke:#000000;stroke-width:0.8;" x="373.886113" xlink:href="#m8ae5c752b2" y="1264.318125"/>
      </g>
     </g>
     <g id="text_20">
      <!-- 200 -->
      <g transform="translate(364.342363 1278.916563)scale(0.1 -0.1)">
       <use xlink:href="#DejaVuSans-32"/>
       <use x="63.623047" xlink:href="#DejaVuSans-30"/>
       <use x="127.246094" xlink:href="#DejaVuSans-30"/>
      </g>
     </g>
    </g>
    <g id="xtick_10">
     <g id="line2d_19">
      <g>
       <use style="stroke:#000000;stroke-width:0.8;" x="621.537566" xlink:href="#m8ae5c752b2" y="1264.318125"/>
      </g>
     </g>
     <g id="text_21">
      <!-- 400 -->
      <g transform="translate(611.993816 1278.916563)scale(0.1 -0.1)">
       <use xlink:href="#DejaVuSans-34"/>
       <use x="63.623047" xlink:href="#DejaVuSans-30"/>
       <use x="127.246094" xlink:href="#DejaVuSans-30"/>
      </g>
     </g>
    </g>
    <g id="xtick_11">
     <g id="line2d_20">
      <g>
       <use style="stroke:#000000;stroke-width:0.8;" x="869.18902" xlink:href="#m8ae5c752b2" y="1264.318125"/>
      </g>
     </g>
     <g id="text_22">
      <!-- 600 -->
      <g transform="translate(859.64527 1278.916563)scale(0.1 -0.1)">
       <use xlink:href="#DejaVuSans-36"/>
       <use x="63.623047" xlink:href="#DejaVuSans-30"/>
       <use x="127.246094" xlink:href="#DejaVuSans-30"/>
      </g>
     </g>
    </g>
    <g id="xtick_12">
     <g id="line2d_21">
      <g>
       <use style="stroke:#000000;stroke-width:0.8;" x="1116.840473" xlink:href="#m8ae5c752b2" y="1264.318125"/>
      </g>
     </g>
     <g id="text_23">
      <!-- 800 -->
      <g transform="translate(1107.296723 1278.916563)scale(0.1 -0.1)">
       <use xlink:href="#DejaVuSans-38"/>
       <use x="63.623047" xlink:href="#DejaVuSans-30"/>
       <use x="127.246094" xlink:href="#DejaVuSans-30"/>
      </g>
     </g>
    </g>
    <g id="xtick_13">
     <g id="line2d_22">
      <g>
       <use style="stroke:#000000;stroke-width:0.8;" x="1364.491927" xlink:href="#m8ae5c752b2" y="1264.318125"/>
      </g>
     </g>
     <g id="text_24">
      <!-- 1000 -->
      <g transform="translate(1351.766927 1278.916563)scale(0.1 -0.1)">
       <use xlink:href="#DejaVuSans-31"/>
       <use x="63.623047" xlink:href="#DejaVuSans-30"/>
       <use x="127.246094" xlink:href="#DejaVuSans-30"/>
       <use x="190.869141" xlink:href="#DejaVuSans-30"/>
      </g>
     </g>
    </g>
    <g id="xtick_14">
     <g id="line2d_23">
      <g>
       <use style="stroke:#000000;stroke-width:0.8;" x="1612.14338" xlink:href="#m8ae5c752b2" y="1264.318125"/>
      </g>
     </g>
     <g id="text_25">
      <!-- 1200 -->
      <g transform="translate(1599.41838 1278.916563)scale(0.1 -0.1)">
       <use xlink:href="#DejaVuSans-31"/>
       <use x="63.623047" xlink:href="#DejaVuSans-32"/>
       <use x="127.246094" xlink:href="#DejaVuSans-30"/>
       <use x="190.869141" xlink:href="#DejaVuSans-30"/>
      </g>
     </g>
    </g>
    <g id="text_26">
     <!-- frame -->
     <g transform="translate(872.317187 1292.594688)scale(0.1 -0.1)">
      <use xlink:href="#DejaVuSans-66"/>
      <use x="35.205078" xlink:href="#DejaVuSans-72"/>
      <use x="76.318359" xlink:href="#DejaVuSans-61"/>
      <use x="137.597656" xlink:href="#DejaVuSans-6d"/>
      <use x="235.009766" xlink:href="#DejaVuSans-65"/>
     </g>
    </g>
   </g>
   <g id="matplotlib.axis_4">
    <g id="ytick_9">
     <g id="line2d_24">
      <g>
       <use style="stroke:#000000;stroke-width:0.8;" x="50.14375" xlink:href="#m8eb6a0123c" y="1238.656968"/>
      </g>
     </g>
     <g id="text_27">
      <!-- 0.0 -->
      <g transform="translate(27.240625 1242.456187)scale(0.1 -0.1)">
       <use xlink:href="#DejaVuSans-30"/>
       <use x="63.623047" xlink:href="#DejaVuSans-2e"/>
       <use x="95.410156" xlink:href="#DejaVuSans-30"/>
      </g>
     </g>
    </g>
    <g id="ytick_10">
     <g id="line2d_25">
      <g>
       <use style="stroke:#000000;stroke-width:0.8;" x="50.14375" xlink:href="#m8eb6a0123c" y="1136.01234"/>
      </g>
     </g>
     <g id="text_28">
      <!-- 0.2 -->
      <g transform="translate(27.240625 1139.811559)scale(0.1 -0.1)">
       <use xlink:href="#DejaVuSans-30"/>
       <use x="63.623047" xlink:href="#DejaVuSans-2e"/>
       <use x="95.410156" xlink:href="#DejaVuSans-32"/>
      </g>
     </g>
    </g>
    <g id="ytick_11">
     <g id="line2d_26">
      <g>
       <use style="stroke:#000000;stroke-width:0.8;" x="50.14375" xlink:href="#m8eb6a0123c" y="1033.367712"/>
      </g>
     </g>
     <g id="text_29">
      <!-- 0.4 -->
      <g transform="translate(27.240625 1037.166931)scale(0.1 -0.1)">
       <use xlink:href="#DejaVuSans-30"/>
       <use x="63.623047" xlink:href="#DejaVuSans-2e"/>
       <use x="95.410156" xlink:href="#DejaVuSans-34"/>
      </g>
     </g>
    </g>
    <g id="ytick_12">
     <g id="line2d_27">
      <g>
       <use style="stroke:#000000;stroke-width:0.8;" x="50.14375" xlink:href="#m8eb6a0123c" y="930.723084"/>
      </g>
     </g>
     <g id="text_30">
      <!-- 0.6 -->
      <g transform="translate(27.240625 934.522302)scale(0.1 -0.1)">
       <use xlink:href="#DejaVuSans-30"/>
       <use x="63.623047" xlink:href="#DejaVuSans-2e"/>
       <use x="95.410156" xlink:href="#DejaVuSans-36"/>
      </g>
     </g>
    </g>
    <g id="ytick_13">
     <g id="line2d_28">
      <g>
       <use style="stroke:#000000;stroke-width:0.8;" x="50.14375" xlink:href="#m8eb6a0123c" y="828.078456"/>
      </g>
     </g>
     <g id="text_31">
      <!-- 0.8 -->
      <g transform="translate(27.240625 831.877674)scale(0.1 -0.1)">
       <use xlink:href="#DejaVuSans-30"/>
       <use x="63.623047" xlink:href="#DejaVuSans-2e"/>
       <use x="95.410156" xlink:href="#DejaVuSans-38"/>
      </g>
     </g>
    </g>
    <g id="ytick_14">
     <g id="line2d_29">
      <g>
       <use style="stroke:#000000;stroke-width:0.8;" x="50.14375" xlink:href="#m8eb6a0123c" y="725.433827"/>
      </g>
     </g>
     <g id="text_32">
      <!-- 1.0 -->
      <g transform="translate(27.240625 729.233046)scale(0.1 -0.1)">
       <use xlink:href="#DejaVuSans-31"/>
       <use x="63.623047" xlink:href="#DejaVuSans-2e"/>
       <use x="95.410156" xlink:href="#DejaVuSans-30"/>
      </g>
     </g>
    </g>
    <g id="text_33">
     <!-- GCaMP -->
     <g transform="translate(21.160938 999.803991)rotate(-90)scale(0.1 -0.1)">
      <use xlink:href="#DejaVuSans-47"/>
      <use x="77.490234" xlink:href="#DejaVuSans-43"/>
      <use x="147.314453" xlink:href="#DejaVuSans-61"/>
      <use x="208.59375" xlink:href="#DejaVuSans-4d"/>
      <use x="294.873047" xlink:href="#DejaVuSans-50"/>
     </g>
    </g>
   </g>
   <g id="line2d_30">
    <path clip-path="url(#p32bbf8ff19)" d="M 126.234659 1238.656968 
L 986.82346 1238.656968 
L 988.061717 725.433827 
L 990.538232 725.433827 
L 991.776489 1238.656968 
L 1022.732921 1238.656968 
L 1023.971178 725.433827 
L 1031.400722 725.433827 
L 1032.638979 1238.656968 
L 1038.830265 1238.656968 
L 1040.068523 725.433827 
L 1085.884041 725.433827 
L 1087.122299 1238.656968 
L 1537.847944 1238.656968 
L 1539.086201 725.433827 
L 1540.324459 725.433827 
L 1541.562716 1238.656968 
L 1604.713837 1238.656968 
L 1605.952094 725.433827 
L 1648.052841 725.433827 
L 1648.052841 725.433827 
" style="fill:none;stroke:#008000;stroke-linecap:square;stroke-width:1.5;"/>
   </g>
   <g id="patch_8">
    <path d="M 50.14375 1264.318125 
L 50.14375 699.77267 
" style="fill:none;stroke:#000000;stroke-linecap:square;stroke-linejoin:miter;stroke-width:0.8;"/>
   </g>
   <g id="patch_9">
    <path d="M 1724.14375 1264.318125 
L 1724.14375 699.77267 
" style="fill:none;stroke:#000000;stroke-linecap:square;stroke-linejoin:miter;stroke-width:0.8;"/>
   </g>
   <g id="patch_10">
    <path d="M 50.14375 1264.318125 
L 1724.14375 1264.318125 
" style="fill:none;stroke:#000000;stroke-linecap:square;stroke-linejoin:miter;stroke-width:0.8;"/>
   </g>
   <g id="patch_11">
    <path d="M 50.14375 699.77267 
L 1724.14375 699.77267 
" style="fill:none;stroke:#000000;stroke-linecap:square;stroke-linejoin:miter;stroke-width:0.8;"/>
   </g>
   <g id="text_34">
    <!-- before binarisation -->
    <g transform="translate(830.545 693.77267)scale(0.12 -0.12)">
     <use xlink:href="#DejaVuSans-62"/>
     <use x="63.476562" xlink:href="#DejaVuSans-65"/>
     <use x="125" xlink:href="#DejaVuSans-66"/>
     <use x="160.205078" xlink:href="#DejaVuSans-6f"/>
     <use x="221.386719" xlink:href="#DejaVuSans-72"/>
     <use x="260.25" xlink:href="#DejaVuSans-65"/>
     <use x="321.773438" xlink:href="#DejaVuSans-20"/>
     <use x="353.560547" xlink:href="#DejaVuSans-62"/>
     <use x="417.037109" xlink:href="#DejaVuSans-69"/>
     <use x="444.820312" xlink:href="#DejaVuSans-6e"/>
     <use x="508.199219" xlink:href="#DejaVuSans-61"/>
     <use x="569.478516" xlink:href="#DejaVuSans-72"/>
     <use x="610.591797" xlink:href="#DejaVuSans-69"/>
     <use x="638.375" xlink:href="#DejaVuSans-73"/>
     <use x="690.474609" xlink:href="#DejaVuSans-61"/>
     <use x="751.753906" xlink:href="#DejaVuSans-74"/>
     <use x="790.962891" xlink:href="#DejaVuSans-69"/>
     <use x="818.746094" xlink:href="#DejaVuSans-6f"/>
     <use x="879.927734" xlink:href="#DejaVuSans-6e"/>
    </g>
   </g>
  </g>
 </g>
 <defs>
  <clipPath id="pb2bd060243">
   <rect height="564.545455" width="1674" x="50.14375" y="22.318125"/>
  </clipPath>
  <clipPath id="p32bbf8ff19">
   <rect height="564.545455" width="1674" x="50.14375" y="699.77267"/>
  </clipPath>
 </defs>
</svg>
