<?xml version="1.0" encoding="utf-8" standalone="no"?>
<!DOCTYPE svg PUBLIC "-//W3C//DTD SVG 1.1//EN"
  "http://www.w3.org/Graphics/SVG/1.1/DTD/svg11.dtd">
<svg height="1301.874375pt" version="1.1" viewBox="0 0 1724.98125 1301.874375" width="1724.98125pt" xmlns="http://www.w3.org/2000/svg" xmlns:xlink="http://www.w3.org/1999/xlink">
 <metadata>
  <rdf:RDF xmlns:cc="http://creativecommons.org/ns#" xmlns:dc="http://purl.org/dc/elements/1.1/" xmlns:rdf="http://www.w3.org/1999/02/22-rdf-syntax-ns#">
   <cc:Work>
    <dc:type rdf:resource="http://purl.org/dc/dcmitype/StillImage"/>
    <dc:date>2022-07-24T15:54:31.301405</dc:date>
    <dc:format>image/svg+xml</dc:format>
    <dc:creator>
     <cc:Agent>
      <dc:title>Matplotlib v3.4.2, https://matplotlib.org/</dc:title>
     </cc:Agent>
    </dc:creator>
   </cc:Work>
  </rdf:RDF>
 </metadata>
 <defs>
  <style type="text/css">*{stroke-linecap:butt;stroke-linejoin:round;}</style>
 </defs>
 <g id="figure_1">
  <g id="patch_1">
   <path d="M 0 1301.874375 
L 1724.98125 1301.874375 
L 1724.98125 0 
L 0 0 
z
" style="fill:#ffffff;"/>
  </g>
  <g id="axes_1">
   <g id="patch_2">
    <path d="M 43.78125 586.86358 
L 1717.78125 586.86358 
L 1717.78125 22.318125 
L 43.78125 22.318125 
z
" style="fill:#ffffff;"/>
   </g>
   <g id="matplotlib.axis_1">
    <g id="xtick_1">
     <g id="line2d_1">
      <defs>
       <path d="M 0 0 
L 0 3.5 
" id="mbc11a66d5f" style="stroke:#000000;stroke-width:0.8;"/>
      </defs>
      <g>
       <use style="stroke:#000000;stroke-width:0.8;" x="119.872159" xlink:href="#mbc11a66d5f" y="586.86358"/>
      </g>
     </g>
     <g id="text_1">
      <!-- 0 -->
      <g transform="translate(116.690909 601.462017)scale(0.1 -0.1)">
       <defs>
        <path d="M 2034 4250 
Q 1547 4250 1301 3770 
Q 1056 3291 1056 2328 
Q 1056 1369 1301 889 
Q 1547 409 2034 409 
Q 2525 409 2770 889 
Q 3016 1369 3016 2328 
Q 3016 3291 2770 3770 
Q 2525 4250 2034 4250 
z
M 2034 4750 
Q 2819 4750 3233 4129 
Q 3647 3509 3647 2328 
Q 3647 1150 3233 529 
Q 2819 -91 2034 -91 
Q 1250 -91 836 529 
Q 422 1150 422 2328 
Q 422 3509 836 4129 
Q 1250 4750 2034 4750 
z
" id="DejaVuSans-30" transform="scale(0.015625)"/>
       </defs>
       <use xlink:href="#DejaVuSans-30"/>
      </g>
     </g>
    </g>
    <g id="xtick_2">
     <g id="line2d_2">
      <g>
       <use style="stroke:#000000;stroke-width:0.8;" x="367.523613" xlink:href="#mbc11a66d5f" y="586.86358"/>
      </g>
     </g>
     <g id="text_2">
      <!-- 200 -->
      <g transform="translate(357.979863 601.462017)scale(0.1 -0.1)">
       <defs>
        <path d="M 1228 531 
L 3431 531 
L 3431 0 
L 469 0 
L 469 531 
Q 828 903 1448 1529 
Q 2069 2156 2228 2338 
Q 2531 2678 2651 2914 
Q 2772 3150 2772 3378 
Q 2772 3750 2511 3984 
Q 2250 4219 1831 4219 
Q 1534 4219 1204 4116 
Q 875 4013 500 3803 
L 500 4441 
Q 881 4594 1212 4672 
Q 1544 4750 1819 4750 
Q 2544 4750 2975 4387 
Q 3406 4025 3406 3419 
Q 3406 3131 3298 2873 
Q 3191 2616 2906 2266 
Q 2828 2175 2409 1742 
Q 1991 1309 1228 531 
z
" id="DejaVuSans-32" transform="scale(0.015625)"/>
       </defs>
       <use xlink:href="#DejaVuSans-32"/>
       <use x="63.623047" xlink:href="#DejaVuSans-30"/>
       <use x="127.246094" xlink:href="#DejaVuSans-30"/>
      </g>
     </g>
    </g>
    <g id="xtick_3">
     <g id="line2d_3">
      <g>
       <use style="stroke:#000000;stroke-width:0.8;" x="615.175066" xlink:href="#mbc11a66d5f" y="586.86358"/>
      </g>
     </g>
     <g id="text_3">
      <!-- 400 -->
      <g transform="translate(605.631316 601.462017)scale(0.1 -0.1)">
       <defs>
        <path d="M 2419 4116 
L 825 1625 
L 2419 1625 
L 2419 4116 
z
M 2253 4666 
L 3047 4666 
L 3047 1625 
L 3713 1625 
L 3713 1100 
L 3047 1100 
L 3047 0 
L 2419 0 
L 2419 1100 
L 313 1100 
L 313 1709 
L 2253 4666 
z
" id="DejaVuSans-34" transform="scale(0.015625)"/>
       </defs>
       <use xlink:href="#DejaVuSans-34"/>
       <use x="63.623047" xlink:href="#DejaVuSans-30"/>
       <use x="127.246094" xlink:href="#DejaVuSans-30"/>
      </g>
     </g>
    </g>
    <g id="xtick_4">
     <g id="line2d_4">
      <g>
       <use style="stroke:#000000;stroke-width:0.8;" x="862.82652" xlink:href="#mbc11a66d5f" y="586.86358"/>
      </g>
     </g>
     <g id="text_4">
      <!-- 600 -->
      <g transform="translate(853.28277 601.462017)scale(0.1 -0.1)">
       <defs>
        <path d="M 2113 2584 
Q 1688 2584 1439 2293 
Q 1191 2003 1191 1497 
Q 1191 994 1439 701 
Q 1688 409 2113 409 
Q 2538 409 2786 701 
Q 3034 994 3034 1497 
Q 3034 2003 2786 2293 
Q 2538 2584 2113 2584 
z
M 3366 4563 
L 3366 3988 
Q 3128 4100 2886 4159 
Q 2644 4219 2406 4219 
Q 1781 4219 1451 3797 
Q 1122 3375 1075 2522 
Q 1259 2794 1537 2939 
Q 1816 3084 2150 3084 
Q 2853 3084 3261 2657 
Q 3669 2231 3669 1497 
Q 3669 778 3244 343 
Q 2819 -91 2113 -91 
Q 1303 -91 875 529 
Q 447 1150 447 2328 
Q 447 3434 972 4092 
Q 1497 4750 2381 4750 
Q 2619 4750 2861 4703 
Q 3103 4656 3366 4563 
z
" id="DejaVuSans-36" transform="scale(0.015625)"/>
       </defs>
       <use xlink:href="#DejaVuSans-36"/>
       <use x="63.623047" xlink:href="#DejaVuSans-30"/>
       <use x="127.246094" xlink:href="#DejaVuSans-30"/>
      </g>
     </g>
    </g>
    <g id="xtick_5">
     <g id="line2d_5">
      <g>
       <use style="stroke:#000000;stroke-width:0.8;" x="1110.477973" xlink:href="#mbc11a66d5f" y="586.86358"/>
      </g>
     </g>
     <g id="text_5">
      <!-- 800 -->
      <g transform="translate(1100.934223 601.462017)scale(0.1 -0.1)">
       <defs>
        <path d="M 2034 2216 
Q 1584 2216 1326 1975 
Q 1069 1734 1069 1313 
Q 1069 891 1326 650 
Q 1584 409 2034 409 
Q 2484 409 2743 651 
Q 3003 894 3003 1313 
Q 3003 1734 2745 1975 
Q 2488 2216 2034 2216 
z
M 1403 2484 
Q 997 2584 770 2862 
Q 544 3141 544 3541 
Q 544 4100 942 4425 
Q 1341 4750 2034 4750 
Q 2731 4750 3128 4425 
Q 3525 4100 3525 3541 
Q 3525 3141 3298 2862 
Q 3072 2584 2669 2484 
Q 3125 2378 3379 2068 
Q 3634 1759 3634 1313 
Q 3634 634 3220 271 
Q 2806 -91 2034 -91 
Q 1263 -91 848 271 
Q 434 634 434 1313 
Q 434 1759 690 2068 
Q 947 2378 1403 2484 
z
M 1172 3481 
Q 1172 3119 1398 2916 
Q 1625 2713 2034 2713 
Q 2441 2713 2670 2916 
Q 2900 3119 2900 3481 
Q 2900 3844 2670 4047 
Q 2441 4250 2034 4250 
Q 1625 4250 1398 4047 
Q 1172 3844 1172 3481 
z
" id="DejaVuSans-38" transform="scale(0.015625)"/>
       </defs>
       <use xlink:href="#DejaVuSans-38"/>
       <use x="63.623047" xlink:href="#DejaVuSans-30"/>
       <use x="127.246094" xlink:href="#DejaVuSans-30"/>
      </g>
     </g>
    </g>
    <g id="xtick_6">
     <g id="line2d_6">
      <g>
       <use style="stroke:#000000;stroke-width:0.8;" x="1358.129427" xlink:href="#mbc11a66d5f" y="586.86358"/>
      </g>
     </g>
     <g id="text_6">
      <!-- 1000 -->
      <g transform="translate(1345.404427 601.462017)scale(0.1 -0.1)">
       <defs>
        <path d="M 794 531 
L 1825 531 
L 1825 4091 
L 703 3866 
L 703 4441 
L 1819 4666 
L 2450 4666 
L 2450 531 
L 3481 531 
L 3481 0 
L 794 0 
L 794 531 
z
" id="DejaVuSans-31" transform="scale(0.015625)"/>
       </defs>
       <use xlink:href="#DejaVuSans-31"/>
       <use x="63.623047" xlink:href="#DejaVuSans-30"/>
       <use x="127.246094" xlink:href="#DejaVuSans-30"/>
       <use x="190.869141" xlink:href="#DejaVuSans-30"/>
      </g>
     </g>
    </g>
    <g id="xtick_7">
     <g id="line2d_7">
      <g>
       <use style="stroke:#000000;stroke-width:0.8;" x="1605.78088" xlink:href="#mbc11a66d5f" y="586.86358"/>
      </g>
     </g>
     <g id="text_7">
      <!-- 1200 -->
      <g transform="translate(1593.05588 601.462017)scale(0.1 -0.1)">
       <use xlink:href="#DejaVuSans-31"/>
       <use x="63.623047" xlink:href="#DejaVuSans-32"/>
       <use x="127.246094" xlink:href="#DejaVuSans-30"/>
       <use x="190.869141" xlink:href="#DejaVuSans-30"/>
      </g>
     </g>
    </g>
    <g id="text_8">
     <!-- frame -->
     <g transform="translate(865.954687 615.140142)scale(0.1 -0.1)">
      <defs>
       <path d="M 2375 4863 
L 2375 4384 
L 1825 4384 
Q 1516 4384 1395 4259 
Q 1275 4134 1275 3809 
L 1275 3500 
L 2222 3500 
L 2222 3053 
L 1275 3053 
L 1275 0 
L 697 0 
L 697 3053 
L 147 3053 
L 147 3500 
L 697 3500 
L 697 3744 
Q 697 4328 969 4595 
Q 1241 4863 1831 4863 
L 2375 4863 
z
" id="DejaVuSans-66" transform="scale(0.015625)"/>
       <path d="M 2631 2963 
Q 2534 3019 2420 3045 
Q 2306 3072 2169 3072 
Q 1681 3072 1420 2755 
Q 1159 2438 1159 1844 
L 1159 0 
L 581 0 
L 581 3500 
L 1159 3500 
L 1159 2956 
Q 1341 3275 1631 3429 
Q 1922 3584 2338 3584 
Q 2397 3584 2469 3576 
Q 2541 3569 2628 3553 
L 2631 2963 
z
" id="DejaVuSans-72" transform="scale(0.015625)"/>
       <path d="M 2194 1759 
Q 1497 1759 1228 1600 
Q 959 1441 959 1056 
Q 959 750 1161 570 
Q 1363 391 1709 391 
Q 2188 391 2477 730 
Q 2766 1069 2766 1631 
L 2766 1759 
L 2194 1759 
z
M 3341 1997 
L 3341 0 
L 2766 0 
L 2766 531 
Q 2569 213 2275 61 
Q 1981 -91 1556 -91 
Q 1019 -91 701 211 
Q 384 513 384 1019 
Q 384 1609 779 1909 
Q 1175 2209 1959 2209 
L 2766 2209 
L 2766 2266 
Q 2766 2663 2505 2880 
Q 2244 3097 1772 3097 
Q 1472 3097 1187 3025 
Q 903 2953 641 2809 
L 641 3341 
Q 956 3463 1253 3523 
Q 1550 3584 1831 3584 
Q 2591 3584 2966 3190 
Q 3341 2797 3341 1997 
z
" id="DejaVuSans-61" transform="scale(0.015625)"/>
       <path d="M 3328 2828 
Q 3544 3216 3844 3400 
Q 4144 3584 4550 3584 
Q 5097 3584 5394 3201 
Q 5691 2819 5691 2113 
L 5691 0 
L 5113 0 
L 5113 2094 
Q 5113 2597 4934 2840 
Q 4756 3084 4391 3084 
Q 3944 3084 3684 2787 
Q 3425 2491 3425 1978 
L 3425 0 
L 2847 0 
L 2847 2094 
Q 2847 2600 2669 2842 
Q 2491 3084 2119 3084 
Q 1678 3084 1418 2786 
Q 1159 2488 1159 1978 
L 1159 0 
L 581 0 
L 581 3500 
L 1159 3500 
L 1159 2956 
Q 1356 3278 1631 3431 
Q 1906 3584 2284 3584 
Q 2666 3584 2933 3390 
Q 3200 3197 3328 2828 
z
" id="DejaVuSans-6d" transform="scale(0.015625)"/>
       <path d="M 3597 1894 
L 3597 1613 
L 953 1613 
Q 991 1019 1311 708 
Q 1631 397 2203 397 
Q 2534 397 2845 478 
Q 3156 559 3463 722 
L 3463 178 
Q 3153 47 2828 -22 
Q 2503 -91 2169 -91 
Q 1331 -91 842 396 
Q 353 884 353 1716 
Q 353 2575 817 3079 
Q 1281 3584 2069 3584 
Q 2775 3584 3186 3129 
Q 3597 2675 3597 1894 
z
M 3022 2063 
Q 3016 2534 2758 2815 
Q 2500 3097 2075 3097 
Q 1594 3097 1305 2825 
Q 1016 2553 972 2059 
L 3022 2063 
z
" id="DejaVuSans-65" transform="scale(0.015625)"/>
      </defs>
      <use xlink:href="#DejaVuSans-66"/>
      <use x="35.205078" xlink:href="#DejaVuSans-72"/>
      <use x="76.318359" xlink:href="#DejaVuSans-61"/>
      <use x="137.597656" xlink:href="#DejaVuSans-6d"/>
      <use x="235.009766" xlink:href="#DejaVuSans-65"/>
     </g>
    </g>
   </g>
   <g id="matplotlib.axis_2">
    <g id="ytick_1">
     <g id="line2d_8">
      <defs>
       <path d="M 0 0 
L -3.5 0 
" id="m53ceb66349" style="stroke:#000000;stroke-width:0.8;"/>
      </defs>
      <g>
       <use style="stroke:#000000;stroke-width:0.8;" x="43.78125" xlink:href="#m53ceb66349" y="561.202423"/>
      </g>
     </g>
     <g id="text_9">
      <!-- 0.0 -->
      <g transform="translate(20.878125 565.001641)scale(0.1 -0.1)">
       <defs>
        <path d="M 684 794 
L 1344 794 
L 1344 0 
L 684 0 
L 684 794 
z
" id="DejaVuSans-2e" transform="scale(0.015625)"/>
       </defs>
       <use xlink:href="#DejaVuSans-30"/>
       <use x="63.623047" xlink:href="#DejaVuSans-2e"/>
       <use x="95.410156" xlink:href="#DejaVuSans-30"/>
      </g>
     </g>
    </g>
    <g id="ytick_2">
     <g id="line2d_9">
      <g>
       <use style="stroke:#000000;stroke-width:0.8;" x="43.78125" xlink:href="#m53ceb66349" y="456.895411"/>
      </g>
     </g>
     <g id="text_10">
      <!-- 0.5 -->
      <g transform="translate(20.878125 460.69463)scale(0.1 -0.1)">
       <defs>
        <path d="M 691 4666 
L 3169 4666 
L 3169 4134 
L 1269 4134 
L 1269 2991 
Q 1406 3038 1543 3061 
Q 1681 3084 1819 3084 
Q 2600 3084 3056 2656 
Q 3513 2228 3513 1497 
Q 3513 744 3044 326 
Q 2575 -91 1722 -91 
Q 1428 -91 1123 -41 
Q 819 9 494 109 
L 494 744 
Q 775 591 1075 516 
Q 1375 441 1709 441 
Q 2250 441 2565 725 
Q 2881 1009 2881 1497 
Q 2881 1984 2565 2268 
Q 2250 2553 1709 2553 
Q 1456 2553 1204 2497 
Q 953 2441 691 2322 
L 691 4666 
z
" id="DejaVuSans-35" transform="scale(0.015625)"/>
       </defs>
       <use xlink:href="#DejaVuSans-30"/>
       <use x="63.623047" xlink:href="#DejaVuSans-2e"/>
       <use x="95.410156" xlink:href="#DejaVuSans-35"/>
      </g>
     </g>
    </g>
    <g id="ytick_3">
     <g id="line2d_10">
      <g>
       <use style="stroke:#000000;stroke-width:0.8;" x="43.78125" xlink:href="#m53ceb66349" y="352.588399"/>
      </g>
     </g>
     <g id="text_11">
      <!-- 1.0 -->
      <g transform="translate(20.878125 356.387618)scale(0.1 -0.1)">
       <use xlink:href="#DejaVuSans-31"/>
       <use x="63.623047" xlink:href="#DejaVuSans-2e"/>
       <use x="95.410156" xlink:href="#DejaVuSans-30"/>
      </g>
     </g>
    </g>
    <g id="ytick_4">
     <g id="line2d_11">
      <g>
       <use style="stroke:#000000;stroke-width:0.8;" x="43.78125" xlink:href="#m53ceb66349" y="248.281387"/>
      </g>
     </g>
     <g id="text_12">
      <!-- 1.5 -->
      <g transform="translate(20.878125 252.080606)scale(0.1 -0.1)">
       <use xlink:href="#DejaVuSans-31"/>
       <use x="63.623047" xlink:href="#DejaVuSans-2e"/>
       <use x="95.410156" xlink:href="#DejaVuSans-35"/>
      </g>
     </g>
    </g>
    <g id="ytick_5">
     <g id="line2d_12">
      <g>
       <use style="stroke:#000000;stroke-width:0.8;" x="43.78125" xlink:href="#m53ceb66349" y="143.974375"/>
      </g>
     </g>
     <g id="text_13">
      <!-- 2.0 -->
      <g transform="translate(20.878125 147.773594)scale(0.1 -0.1)">
       <use xlink:href="#DejaVuSans-32"/>
       <use x="63.623047" xlink:href="#DejaVuSans-2e"/>
       <use x="95.410156" xlink:href="#DejaVuSans-30"/>
      </g>
     </g>
    </g>
    <g id="ytick_6">
     <g id="line2d_13">
      <g>
       <use style="stroke:#000000;stroke-width:0.8;" x="43.78125" xlink:href="#m53ceb66349" y="39.667364"/>
      </g>
     </g>
     <g id="text_14">
      <!-- 2.5 -->
      <g transform="translate(20.878125 43.466582)scale(0.1 -0.1)">
       <use xlink:href="#DejaVuSans-32"/>
       <use x="63.623047" xlink:href="#DejaVuSans-2e"/>
       <use x="95.410156" xlink:href="#DejaVuSans-35"/>
      </g>
     </g>
    </g>
    <g id="text_15">
     <!-- GCaMP -->
     <g transform="translate(14.798437 322.349446)rotate(-90)scale(0.1 -0.1)">
      <defs>
       <path d="M 3809 666 
L 3809 1919 
L 2778 1919 
L 2778 2438 
L 4434 2438 
L 4434 434 
Q 4069 175 3628 42 
Q 3188 -91 2688 -91 
Q 1594 -91 976 548 
Q 359 1188 359 2328 
Q 359 3472 976 4111 
Q 1594 4750 2688 4750 
Q 3144 4750 3555 4637 
Q 3966 4525 4313 4306 
L 4313 3634 
Q 3963 3931 3569 4081 
Q 3175 4231 2741 4231 
Q 1884 4231 1454 3753 
Q 1025 3275 1025 2328 
Q 1025 1384 1454 906 
Q 1884 428 2741 428 
Q 3075 428 3337 486 
Q 3600 544 3809 666 
z
" id="DejaVuSans-47" transform="scale(0.015625)"/>
       <path d="M 4122 4306 
L 4122 3641 
Q 3803 3938 3442 4084 
Q 3081 4231 2675 4231 
Q 1875 4231 1450 3742 
Q 1025 3253 1025 2328 
Q 1025 1406 1450 917 
Q 1875 428 2675 428 
Q 3081 428 3442 575 
Q 3803 722 4122 1019 
L 4122 359 
Q 3791 134 3420 21 
Q 3050 -91 2638 -91 
Q 1578 -91 968 557 
Q 359 1206 359 2328 
Q 359 3453 968 4101 
Q 1578 4750 2638 4750 
Q 3056 4750 3426 4639 
Q 3797 4528 4122 4306 
z
" id="DejaVuSans-43" transform="scale(0.015625)"/>
       <path d="M 628 4666 
L 1569 4666 
L 2759 1491 
L 3956 4666 
L 4897 4666 
L 4897 0 
L 4281 0 
L 4281 4097 
L 3078 897 
L 2444 897 
L 1241 4097 
L 1241 0 
L 628 0 
L 628 4666 
z
" id="DejaVuSans-4d" transform="scale(0.015625)"/>
       <path d="M 1259 4147 
L 1259 2394 
L 2053 2394 
Q 2494 2394 2734 2622 
Q 2975 2850 2975 3272 
Q 2975 3691 2734 3919 
Q 2494 4147 2053 4147 
L 1259 4147 
z
M 628 4666 
L 2053 4666 
Q 2838 4666 3239 4311 
Q 3641 3956 3641 3272 
Q 3641 2581 3239 2228 
Q 2838 1875 2053 1875 
L 1259 1875 
L 1259 0 
L 628 0 
L 628 4666 
z
" id="DejaVuSans-50" transform="scale(0.015625)"/>
      </defs>
      <use xlink:href="#DejaVuSans-47"/>
      <use x="77.490234" xlink:href="#DejaVuSans-43"/>
      <use x="147.314453" xlink:href="#DejaVuSans-61"/>
      <use x="208.59375" xlink:href="#DejaVuSans-4d"/>
      <use x="294.873047" xlink:href="#DejaVuSans-50"/>
     </g>
    </g>
   </g>
   <g id="line2d_14">
    <path clip-path="url(#p9e57ea7503)" d="M 119.872159 434.58989 
L 121.110416 432.215213 
L 122.348674 430.936084 
L 123.586931 430.924016 
L 124.825188 431.587093 
L 128.53996 434.184407 
L 131.016474 435.486149 
L 132.254732 436.336982 
L 133.492989 437.028853 
L 134.731246 437.103267 
L 135.969504 436.454051 
L 138.446018 434.448785 
L 139.684275 434.090759 
L 140.922533 434.496777 
L 142.16079 435.508984 
L 143.399047 436.693585 
L 144.637304 437.56679 
L 145.875562 437.990435 
L 148.352076 438.615367 
L 149.590334 438.917952 
L 150.828591 438.810783 
L 153.305105 437.92985 
L 154.543363 437.928766 
L 155.78162 438.118571 
L 157.019877 438.01684 
L 158.258134 437.404788 
L 159.496392 436.603806 
L 160.734649 436.176591 
L 161.972906 436.414474 
L 163.211163 437.193647 
L 164.449421 438.173306 
L 165.687678 438.949441 
L 166.925935 439.153291 
L 168.164193 438.634208 
L 170.640707 436.394311 
L 171.878964 435.621442 
L 173.117222 435.599676 
L 175.593736 436.79278 
L 176.831993 437.003707 
L 178.070251 436.989037 
L 179.308508 437.184161 
L 180.546765 437.768546 
L 183.02328 439.38344 
L 184.261537 439.912902 
L 185.499794 440.198447 
L 186.738052 440.337623 
L 187.976309 440.277091 
L 189.214566 439.918172 
L 191.691081 438.916997 
L 194.167595 438.437969 
L 195.405852 437.856309 
L 196.64411 436.560599 
L 197.882367 434.480848 
L 199.120624 432.09951 
L 200.358881 430.223389 
L 201.597139 429.478127 
L 202.835396 429.884187 
L 204.073653 430.804836 
L 205.311911 431.401233 
L 206.550168 431.090929 
L 209.026682 428.46038 
L 210.26494 428.282776 
L 211.503197 430.01683 
L 213.979711 435.936388 
L 215.217969 437.845791 
L 216.456226 438.657919 
L 217.694483 438.739135 
L 218.93274 438.565554 
L 220.170998 438.593685 
L 221.409255 438.95699 
L 222.647512 439.167813 
L 223.88577 438.455078 
L 225.124027 436.603365 
L 226.362284 434.269698 
L 227.600541 432.309613 
L 228.838799 431.098356 
L 230.077056 430.424472 
L 231.315313 429.500486 
L 232.55357 427.556764 
L 233.791828 424.961159 
L 235.030085 423.162181 
L 236.268342 423.318135 
L 237.5066 425.267909 
L 238.744857 427.828906 
L 239.983114 429.923262 
L 241.221371 431.113008 
L 242.459629 431.301723 
L 243.697886 430.48405 
L 244.936143 428.800239 
L 247.412658 424.622427 
L 248.650915 423.025243 
L 249.889172 422.098956 
L 251.127429 422.102625 
L 252.365687 423.137728 
L 254.842201 426.536583 
L 256.080459 427.690091 
L 258.556973 429.117814 
L 259.79523 430.193527 
L 261.033488 431.814264 
L 263.510002 435.897024 
L 264.748259 437.202575 
L 265.986517 437.403626 
L 267.224774 436.335785 
L 268.463031 433.974963 
L 272.177803 423.764389 
L 273.41606 421.621464 
L 274.654318 420.689764 
L 275.892575 420.661854 
L 277.130832 421.193769 
L 278.369089 422.154748 
L 280.845604 424.727224 
L 282.083861 425.759749 
L 283.322118 426.418493 
L 284.560376 426.626994 
L 285.798633 426.220465 
L 288.275147 424.346208 
L 291.989919 422.261859 
L 293.228177 421.450457 
L 294.466434 421.016748 
L 296.942948 420.917682 
L 298.181206 420.321661 
L 300.65772 418.101706 
L 301.895977 417.782121 
L 303.134235 418.722396 
L 305.610749 422.638345 
L 306.849006 424.023502 
L 308.087264 424.427965 
L 309.325521 423.936403 
L 311.802036 422.183177 
L 313.040293 421.935677 
L 314.27855 422.442439 
L 315.516807 423.193714 
L 316.755065 423.346981 
L 317.993322 422.64371 
L 319.231579 421.726002 
L 320.469836 421.488757 
L 321.708094 422.258694 
L 322.946351 423.737564 
L 326.661123 428.809488 
L 327.89938 430.407237 
L 329.137637 431.730926 
L 330.375895 432.374867 
L 331.614152 432.237958 
L 334.090666 430.959192 
L 335.328924 430.678254 
L 336.567181 430.671237 
L 337.805438 430.345357 
L 339.043695 429.341463 
L 341.52021 426.4318 
L 342.758467 425.305897 
L 345.234982 423.969959 
L 346.473239 422.93823 
L 347.711496 421.408384 
L 348.949754 420.137202 
L 350.188011 419.918632 
L 351.426268 420.718142 
L 352.664525 422.066954 
L 353.902783 423.790638 
L 356.379297 427.961929 
L 357.617554 429.06707 
L 358.855812 428.585055 
L 360.094069 427.074625 
L 361.332326 425.890844 
L 362.570584 425.687355 
L 363.808841 425.689139 
L 365.047098 424.774182 
L 367.523613 421.102099 
L 368.76187 420.323497 
L 370.000127 420.884521 
L 372.476642 423.450044 
L 373.714899 423.897835 
L 376.191413 423.357896 
L 377.429671 423.488153 
L 378.667928 424.119739 
L 382.3827 427.05186 
L 383.620957 427.203091 
L 384.859214 426.578883 
L 386.097472 425.255315 
L 387.335729 423.561877 
L 388.573986 422.129538 
L 389.812243 421.440252 
L 391.050501 421.420815 
L 396.00353 422.369626 
L 399.718302 424.379801 
L 400.956559 424.621842 
L 402.194816 424.243567 
L 404.671331 422.517373 
L 407.147845 421.485534 
L 408.386102 420.213531 
L 410.862617 416.45351 
L 412.100874 415.255186 
L 413.339132 415.07549 
L 415.815646 415.989503 
L 417.053903 415.600242 
L 418.292161 414.069942 
L 419.530418 411.884281 
L 420.768675 410.245005 
L 422.006932 410.314227 
L 423.24519 412.531051 
L 425.721704 420.075074 
L 426.959961 422.803456 
L 428.198219 423.980715 
L 429.436476 423.544291 
L 430.674733 421.385247 
L 431.912991 417.645714 
L 433.151248 413.262634 
L 434.389505 409.693737 
L 435.627762 407.961075 
L 436.86602 408.036217 
L 438.104277 409.171635 
L 443.057306 415.237893 
L 444.295563 416.120958 
L 445.53382 416.518217 
L 448.010335 416.815691 
L 449.248592 417.29357 
L 451.725107 418.748511 
L 452.963364 419.303071 
L 454.201621 419.169319 
L 455.439879 417.698907 
L 456.678136 414.965291 
L 457.916393 411.952788 
L 459.15465 409.746013 
L 460.392908 408.809294 
L 461.631165 408.886106 
L 462.869422 409.284755 
L 464.107679 409.354405 
L 466.584194 408.756083 
L 467.822451 408.723819 
L 469.060709 408.564149 
L 470.298966 408.141206 
L 471.537223 407.863652 
L 472.77548 408.057331 
L 474.013738 408.699525 
L 475.251995 409.778463 
L 478.966767 414.349785 
L 480.205024 414.815141 
L 481.443281 414.194573 
L 482.681538 412.602956 
L 486.39631 406.006329 
L 487.634568 404.806505 
L 488.872825 404.635262 
L 490.111082 405.00025 
L 491.349339 405.122178 
L 492.587597 404.818438 
L 493.825854 404.851995 
L 495.064111 405.961539 
L 496.302368 407.696985 
L 497.540626 408.971028 
L 498.778883 409.449659 
L 500.01714 409.703516 
L 501.255397 410.299013 
L 502.493655 411.092637 
L 503.731912 411.328441 
L 504.970169 410.359831 
L 506.208427 408.284971 
L 507.446684 405.965314 
L 508.684941 404.455305 
L 509.923198 404.284223 
L 512.399713 406.095729 
L 513.63797 406.504708 
L 514.876227 406.384778 
L 517.352742 405.950438 
L 518.590999 405.798034 
L 519.829257 405.871854 
L 521.067514 406.429127 
L 522.305771 407.221528 
L 523.544028 407.54156 
L 524.782286 406.98485 
L 526.020543 405.674622 
L 528.497057 402.326124 
L 529.735315 401.142574 
L 530.973572 400.269285 
L 532.211829 399.197036 
L 533.450086 397.642986 
L 534.688344 395.887128 
L 535.926601 394.471533 
L 537.164858 393.857535 
L 538.403116 394.210672 
L 539.641373 395.277016 
L 543.356145 399.524842 
L 545.832659 401.808994 
L 547.070916 402.667649 
L 548.309174 403.016574 
L 549.547431 402.870351 
L 550.785688 402.367053 
L 552.023945 401.486787 
L 553.262203 400.083507 
L 554.50046 398.163117 
L 556.976975 393.832884 
L 558.215232 391.87949 
L 559.453489 390.325757 
L 560.691746 389.526987 
L 561.930004 389.891262 
L 564.406518 392.689492 
L 565.644775 392.879747 
L 566.883033 391.684127 
L 568.12129 390.021583 
L 569.359547 388.983202 
L 570.597804 389.100562 
L 571.836062 390.433031 
L 574.312576 395.047428 
L 575.550834 396.586074 
L 576.789091 396.860379 
L 578.027348 396.124221 
L 580.503863 393.906594 
L 581.74212 393.154856 
L 582.980377 392.996666 
L 584.218634 393.580076 
L 585.456892 394.444173 
L 586.695149 394.766122 
L 587.933406 394.316349 
L 589.171663 393.474287 
L 590.409921 392.422587 
L 592.886435 390.124818 
L 594.124693 389.58403 
L 595.36295 389.899277 
L 596.601207 391.168668 
L 597.839464 392.942804 
L 599.077722 394.360019 
L 600.315979 394.846057 
L 601.554236 394.510254 
L 602.792493 393.709766 
L 606.507265 390.414179 
L 607.745523 390.21436 
L 608.98378 390.211688 
L 610.222037 389.790272 
L 611.460294 389.03562 
L 612.698552 388.46913 
L 620.128095 387.148894 
L 621.366352 386.184793 
L 622.60461 384.644299 
L 623.842867 383.34834 
L 625.081124 383.377178 
L 626.319382 385.090313 
L 627.557639 387.550382 
L 628.795896 389.417494 
L 630.034153 390.167448 
L 631.272411 389.970504 
L 632.510668 388.929744 
L 633.748925 387.066144 
L 634.987182 384.5185 
L 637.463697 378.542276 
L 638.701954 376.76017 
L 639.940211 376.771876 
L 641.178469 378.397144 
L 642.416726 381.043025 
L 643.654983 384.00286 
L 644.893241 386.571559 
L 646.131498 387.952681 
L 647.369755 387.510521 
L 649.84627 383.637172 
L 651.084527 382.389577 
L 652.322784 381.529919 
L 653.561041 380.158929 
L 657.275813 373.768423 
L 658.51407 372.310033 
L 659.752328 371.313686 
L 660.990585 371.176306 
L 662.228842 372.44057 
L 663.4671 375.255969 
L 665.943614 382.482611 
L 667.181871 384.166206 
L 668.420129 383.478576 
L 669.658386 380.956344 
L 670.896643 377.761715 
L 672.1349 375.000868 
L 673.373158 373.362574 
L 674.611415 373.05735 
L 675.849672 374.032926 
L 677.087929 376.114613 
L 678.326187 378.687972 
L 679.564444 380.541203 
L 680.802701 380.612061 
L 682.040959 378.954549 
L 683.279216 376.615663 
L 684.517473 374.625749 
L 685.75573 373.499037 
L 686.993988 373.436217 
L 688.232245 374.54463 
L 689.470502 376.957114 
L 691.947017 383.937892 
L 693.185274 385.922514 
L 694.423531 385.918392 
L 695.661789 384.2402 
L 696.900046 381.298089 
L 699.37656 374.375707 
L 700.614818 371.8021 
L 701.853075 370.086255 
L 703.091332 369.049673 
L 705.567847 367.777097 
L 706.806104 366.942527 
L 708.044361 365.961408 
L 709.282618 365.512844 
L 710.520876 366.588641 
L 711.759133 369.718957 
L 715.473905 383.618755 
L 716.712162 385.874624 
L 717.950419 386.571055 
L 719.188677 386.57056 
L 720.426934 386.18434 
L 721.665191 384.98954 
L 722.903448 382.63723 
L 725.379963 376.622468 
L 726.61822 374.780288 
L 727.856477 374.112642 
L 729.094735 374.429149 
L 730.332992 375.605298 
L 731.571249 377.147391 
L 732.809507 377.989438 
L 734.047764 377.336799 
L 735.286021 375.305212 
L 737.762536 369.891194 
L 739.000793 367.938021 
L 740.23905 366.835375 
L 743.953822 365.081113 
L 745.192079 364.617129 
L 746.430336 364.806456 
L 747.668594 365.809774 
L 748.906851 367.344096 
L 751.383366 370.951195 
L 752.621623 373.061484 
L 753.85988 374.910476 
L 755.098137 375.648993 
L 756.336395 374.830572 
L 758.812909 371.18717 
L 760.051166 370.709411 
L 761.289424 371.707736 
L 762.527681 373.317652 
L 763.765938 374.339781 
L 765.004195 374.142465 
L 766.242453 372.787038 
L 768.718967 368.758197 
L 769.957225 368.063175 
L 771.195482 368.948137 
L 773.671996 372.407976 
L 774.910254 373.762593 
L 776.148511 374.605146 
L 779.863283 376.07 
L 781.10154 376.49094 
L 782.339797 376.677045 
L 783.578054 376.331798 
L 786.054569 374.394379 
L 787.292826 373.999696 
L 788.531084 374.111134 
L 789.769341 373.923522 
L 791.007598 372.90557 
L 792.245855 371.306608 
L 793.484113 369.939592 
L 794.72237 369.730912 
L 795.960627 371.06693 
L 797.198884 373.302931 
L 798.437142 375.045023 
L 799.675399 375.087794 
L 800.913656 373.124172 
L 802.151914 369.681759 
L 803.390171 365.524989 
L 804.628428 360.929758 
L 805.866685 355.592824 
L 809.581457 337.16023 
L 810.819714 332.614885 
L 812.057972 330.265828 
L 813.296229 329.819961 
L 814.534486 329.643948 
L 815.772743 329.022106 
L 817.011001 329.340563 
L 818.249258 332.233323 
L 819.487515 337.740726 
L 821.96403 350.909012 
L 823.202287 355.313373 
L 824.440544 356.51477 
L 825.678802 353.960363 
L 828.155316 342.641535 
L 829.393573 338.944226 
L 830.631831 338.392503 
L 831.870088 340.177798 
L 834.346602 345.823447 
L 835.58486 348.02933 
L 836.823117 348.876924 
L 838.061374 347.798825 
L 839.299632 345.330428 
L 840.537889 343.155945 
L 841.776146 342.50101 
L 843.014403 343.082175 
L 844.252661 343.824814 
L 845.490918 344.220343 
L 846.729175 344.803136 
L 849.20569 347.201335 
L 850.443947 347.724715 
L 851.682204 347.605832 
L 854.158719 346.802675 
L 855.396976 347.030173 
L 856.635233 348.184023 
L 859.111748 351.648934 
L 860.350005 352.984806 
L 861.588262 353.710955 
L 864.064777 354.019872 
L 865.303034 354.391987 
L 866.541291 354.210462 
L 867.779549 352.360498 
L 869.017806 348.705164 
L 870.256063 344.638417 
L 871.49432 342.035366 
L 872.732578 341.336178 
L 873.970835 341.418083 
L 875.209092 341.290996 
L 876.44735 341.003161 
L 877.685607 341.339098 
L 878.923864 343.008274 
L 881.400379 348.712575 
L 882.638636 350.672114 
L 883.876893 351.40164 
L 885.11515 351.447994 
L 886.353408 351.619953 
L 887.591665 352.189244 
L 888.829922 352.559013 
L 890.06818 351.848304 
L 891.306437 349.603061 
L 892.544694 345.834813 
L 895.021209 335.806652 
L 896.259466 331.661962 
L 897.497723 329.439019 
L 898.73598 329.307783 
L 899.974238 331.068254 
L 902.450752 336.984245 
L 903.689009 338.260286 
L 904.927267 338.374651 
L 906.165524 338.816451 
L 907.403781 340.334789 
L 908.642039 342.456215 
L 909.880296 344.244276 
L 911.118553 345.188 
L 913.595068 345.83088 
L 914.833325 346.421366 
L 916.071582 347.38655 
L 917.309839 348.13896 
L 918.548097 347.478851 
L 919.786354 344.782709 
L 923.501126 332.37191 
L 924.739383 329.392028 
L 925.97764 327.421651 
L 927.215898 326.245864 
L 928.454155 326.20547 
L 929.692412 328.411274 
L 930.930669 333.185318 
L 932.168927 338.921134 
L 933.407184 343.20212 
L 934.645441 344.642038 
L 935.883698 343.682882 
L 937.121956 342.013764 
L 938.360213 341.140873 
L 939.59847 341.408266 
L 940.836727 342.105098 
L 942.074985 342.181471 
L 943.313242 341.058768 
L 944.551499 338.91564 
L 945.789757 336.356313 
L 947.028014 334.147363 
L 948.266271 333.050527 
L 949.504528 333.57026 
L 950.742786 335.731738 
L 951.981043 338.735123 
L 953.2193 341.149893 
L 954.457557 341.885319 
L 955.695815 340.624875 
L 956.934072 337.69933 
L 958.172329 334.031098 
L 959.410586 330.887199 
L 960.648844 329.246438 
L 961.887101 329.116817 
L 963.125358 329.79057 
L 964.363616 330.782764 
L 965.601873 332.05928 
L 966.84013 333.560365 
L 968.078387 334.881703 
L 969.316645 335.316807 
L 970.554902 334.179611 
L 971.793159 331.392165 
L 973.031416 327.746112 
L 974.269674 324.513155 
L 975.507931 322.958496 
L 976.746188 324.001593 
L 977.984446 327.854254 
L 980.46096 339.827649 
L 981.699217 343.823135 
L 982.937475 344.006581 
L 984.175732 340.437671 
L 986.652246 329.68665 
L 987.890504 327.246503 
L 989.128761 328.822961 
L 990.367018 333.990672 
L 992.843533 347.671452 
L 994.08179 352.559572 
L 995.320047 354.808808 
L 996.558305 354.631027 
L 997.796562 353.223061 
L 999.034819 352.151464 
L 1000.273076 352.524368 
L 1001.511334 354.527854 
L 1003.987848 360.167686 
L 1005.226105 361.501155 
L 1006.464363 360.976267 
L 1007.70262 358.929255 
L 1008.940877 355.843749 
L 1010.179134 351.592355 
L 1011.417392 345.543083 
L 1012.655649 337.411137 
L 1013.893906 328.179044 
L 1015.132164 319.926011 
L 1016.370421 314.521231 
L 1017.608678 312.525408 
L 1018.846935 312.984927 
L 1020.085193 313.915395 
L 1021.32345 313.203963 
L 1022.561707 309.796248 
L 1025.038222 298.664391 
L 1026.276479 294.538221 
L 1027.514736 292.734784 
L 1029.991251 291.845607 
L 1032.467765 289.748095 
L 1034.94428 288.029971 
L 1036.182537 287.010839 
L 1037.420794 286.291063 
L 1038.659052 286.62872 
L 1039.897309 288.599259 
L 1041.135566 291.745263 
L 1042.373823 294.475325 
L 1043.612081 295.028261 
L 1044.850338 292.473956 
L 1046.088595 287.192598 
L 1048.56511 274.691239 
L 1049.803367 270.116544 
L 1051.041624 266.619673 
L 1052.279882 264.082034 
L 1053.518139 263.636313 
L 1054.756396 266.187403 
L 1057.232911 274.754456 
L 1058.471168 277.063432 
L 1059.709425 277.659716 
L 1060.947682 277.251945 
L 1062.18594 276.629043 
L 1063.424197 276.197051 
L 1064.662454 275.430173 
L 1065.900711 273.478126 
L 1067.138969 270.846705 
L 1068.377226 269.57783 
L 1069.615483 270.938562 
L 1072.091998 276.661519 
L 1074.568512 280.857326 
L 1077.045027 286.685898 
L 1078.283284 288.334696 
L 1079.521541 287.500783 
L 1080.759799 284.140428 
L 1081.998056 278.70227 
L 1083.236313 272.192773 
L 1084.474571 266.864724 
L 1085.712828 265.433944 
L 1086.951085 269.02323 
L 1089.4276 283.101458 
L 1090.665857 286.670322 
L 1091.904114 285.433914 
L 1093.142371 280.302641 
L 1096.857143 258.046426 
L 1098.0954 252.241859 
L 1101.810172 237.515295 
L 1103.04843 232.722484 
L 1104.286687 229.415319 
L 1105.524944 227.53682 
L 1109.239716 223.358402 
L 1110.477973 222.477595 
L 1111.71623 221.151014 
L 1112.954488 218.166405 
L 1114.192745 212.970017 
L 1115.431002 206.086933 
L 1117.907517 191.032887 
L 1119.145774 185.022729 
L 1120.384031 181.55747 
L 1121.622289 180.851357 
L 1124.098803 183.126654 
L 1125.33706 182.713151 
L 1126.575318 179.44715 
L 1127.813575 172.858779 
L 1130.290089 154.988542 
L 1131.528347 149.091495 
L 1132.766604 147.731991 
L 1134.004861 150.741796 
L 1136.481376 162.83852 
L 1137.719633 167.093192 
L 1138.95789 168.364005 
L 1140.196148 167.080301 
L 1141.434405 164.206875 
L 1143.910919 156.977725 
L 1145.149177 153.886307 
L 1146.387434 151.748301 
L 1147.625691 151.065704 
L 1148.863948 151.899591 
L 1150.102206 153.108214 
L 1151.340463 153.083827 
L 1152.57872 151.044914 
L 1153.816977 147.187254 
L 1155.055235 142.364763 
L 1156.293492 138.220521 
L 1157.531749 136.817587 
L 1158.770007 139.236102 
L 1160.008264 144.721132 
L 1162.484778 157.799059 
L 1163.723036 162.495875 
L 1164.961293 164.830067 
L 1166.19955 164.927277 
L 1167.437807 162.962025 
L 1168.676065 158.44719 
L 1169.914322 151.205328 
L 1172.390837 134.145225 
L 1173.629094 127.799669 
L 1174.867351 123.172144 
L 1178.582123 111.494029 
L 1179.82038 109.990887 
L 1181.058637 112.688745 
L 1182.296895 119.925091 
L 1183.535152 130.440897 
L 1184.773409 141.976666 
L 1186.011666 151.922003 
L 1187.249924 158.51997 
L 1188.488181 161.470085 
L 1189.726438 160.978952 
L 1190.964696 156.927859 
L 1192.202953 149.863926 
L 1193.44121 142.047065 
L 1194.679467 136.347904 
L 1195.917725 134.338874 
L 1197.155982 135.796422 
L 1198.394239 139.173718 
L 1199.632496 142.06115 
L 1200.870754 142.490464 
L 1203.347268 138.863363 
L 1204.585525 137.75291 
L 1205.823783 135.9461 
L 1207.06204 132.073738 
L 1208.300297 127.050122 
L 1209.538555 123.166718 
L 1210.776812 122.420931 
L 1212.015069 125.36513 
L 1214.491584 135.194426 
L 1215.729841 137.888813 
L 1216.968098 137.673953 
L 1218.206355 134.40042 
L 1219.444613 128.839358 
L 1220.68287 122.689973 
L 1221.921127 118.243678 
L 1223.159384 117.520463 
L 1224.397642 120.86122 
L 1226.874156 131.725276 
L 1228.112414 134.101445 
L 1229.350671 131.18993 
L 1230.588928 121.809044 
L 1233.065443 94.480464 
L 1234.3037 85.493051 
L 1235.541957 81.244991 
L 1236.780214 79.109087 
L 1238.018472 76.331903 
L 1239.256729 71.058801 
L 1240.494986 62.809954 
L 1241.733243 53.673347 
L 1242.971501 47.979282 
L 1244.209758 49.488355 
L 1245.448015 58.66897 
L 1247.92453 87.140072 
L 1249.162787 98.601019 
L 1250.401044 104.908894 
L 1251.639302 106.260347 
L 1252.877559 105.214393 
L 1254.115816 105.306644 
L 1255.354073 108.680068 
L 1256.592331 115.047062 
L 1259.068845 130.00851 
L 1260.307103 135.185876 
L 1261.54536 137.499522 
L 1262.783617 136.772371 
L 1264.021874 133.538994 
L 1266.498389 125.028319 
L 1267.736646 122.945125 
L 1268.974903 123.631177 
L 1271.451418 128.60405 
L 1272.689675 129.878049 
L 1273.927932 129.946321 
L 1275.16619 128.474567 
L 1276.404447 125.045131 
L 1277.642704 120.460735 
L 1278.880962 116.651456 
L 1280.119219 114.926384 
L 1281.357476 115.023028 
L 1282.595733 116.208494 
L 1283.833991 118.127277 
L 1285.072248 120.274232 
L 1286.310505 121.920619 
L 1287.548762 122.428023 
L 1288.78702 121.133981 
L 1290.025277 117.813565 
L 1291.263534 113.122495 
L 1293.740049 102.844226 
L 1294.978306 98.287969 
L 1296.216563 94.497761 
L 1297.454821 92.072595 
L 1298.693078 91.474624 
L 1299.931335 91.819541 
L 1301.169592 91.876535 
L 1302.40785 91.612199 
L 1303.646107 91.722357 
L 1304.884364 92.445566 
L 1306.122621 92.985083 
L 1307.360879 92.181536 
L 1308.599136 90.134786 
L 1309.837393 88.487394 
L 1311.07565 88.702223 
L 1312.313908 90.902856 
L 1313.552165 94.469495 
L 1314.790422 98.506823 
L 1316.02868 101.614733 
L 1317.266937 102.260207 
L 1318.505194 99.829439 
L 1319.743451 95.368233 
L 1320.981709 91.484214 
L 1322.219966 91.141673 
L 1323.458223 95.044274 
L 1324.69648 100.356213 
L 1325.934738 103.654938 
L 1327.172995 104.008215 
L 1328.411252 102.082305 
L 1329.649509 98.6628 
L 1333.364281 86.731388 
L 1334.602539 81.736462 
L 1335.840796 77.381296 
L 1337.079053 75.869986 
L 1338.31731 79.063595 
L 1339.555568 87.027222 
L 1342.032082 107.323893 
L 1343.270339 114.221408 
L 1344.508597 117.695479 
L 1345.746854 118.890098 
L 1346.985111 119.202162 
L 1348.223368 118.765096 
L 1349.461626 116.903777 
L 1350.699883 113.986701 
L 1351.93814 111.834067 
L 1353.176398 112.033624 
L 1354.414655 114.588659 
L 1355.652912 118.514365 
L 1356.891169 123.266135 
L 1359.367684 134.102488 
L 1360.605941 138.499171 
L 1361.844198 141.939989 
L 1363.082456 144.415297 
L 1364.320713 144.987574 
L 1365.55897 142.830578 
L 1368.035485 134.529749 
L 1369.273742 132.89493 
L 1370.511999 135.008562 
L 1371.750257 140.329208 
L 1372.988514 146.671007 
L 1374.226771 151.635597 
L 1375.465028 154.007218 
L 1376.703286 153.848111 
L 1377.941543 151.939537 
L 1380.418057 146.430588 
L 1382.894572 139.902174 
L 1385.371087 132.436157 
L 1386.609344 128.241836 
L 1387.847601 123.549937 
L 1389.085858 117.939388 
L 1391.562373 103.665272 
L 1392.80063 98.520221 
L 1394.038887 98.635894 
L 1395.277145 105.762162 
L 1396.515402 119.223669 
L 1398.991916 151.638319 
L 1400.230174 163.755857 
L 1401.468431 171.56211 
L 1402.706688 175.846386 
L 1403.944946 177.748642 
L 1405.183203 178.268556 
L 1406.42146 178.118092 
L 1407.659717 177.530881 
L 1408.897975 176.462846 
L 1410.136232 174.922692 
L 1415.089261 166.989398 
L 1416.327518 161.597459 
L 1417.565775 151.117786 
L 1420.04229 124.66898 
L 1421.280547 117.03291 
L 1422.518805 115.410464 
L 1423.757062 118.189255 
L 1424.995319 122.959251 
L 1426.233576 129.213415 
L 1427.471834 138.656335 
L 1429.948348 165.266664 
L 1431.186605 174.166327 
L 1432.424863 175.268639 
L 1433.66312 169.036746 
L 1436.139634 148.054717 
L 1437.377892 139.426198 
L 1438.616149 134.365257 
L 1439.854406 133.528567 
L 1441.092664 135.827256 
L 1442.330921 138.847385 
L 1443.569178 141.004009 
L 1444.807435 142.636889 
L 1446.045693 144.812763 
L 1447.28395 147.962149 
L 1448.522207 151.651616 
L 1449.760464 154.801684 
L 1450.998722 156.65034 
L 1452.236979 157.812802 
L 1453.475236 159.615679 
L 1454.713494 162.585217 
L 1457.190008 169.282766 
L 1458.428265 171.709136 
L 1459.666523 173.002257 
L 1460.90478 172.842712 
L 1463.381294 170.361575 
L 1464.619552 171.361967 
L 1465.857809 176.495924 
L 1467.096066 186.286386 
L 1468.334323 198.717852 
L 1469.572581 210.003824 
L 1470.810838 216.641 
L 1472.049095 216.545949 
L 1473.287353 209.507737 
L 1474.52561 197.615848 
L 1475.763867 184.547693 
L 1477.002124 173.621429 
L 1478.240382 166.402965 
L 1479.478639 162.875121 
L 1480.716896 162.352085 
L 1481.955153 163.864718 
L 1483.193411 166.275189 
L 1484.431668 169.272737 
L 1485.669925 173.667329 
L 1486.908182 179.782569 
L 1490.622954 201.064129 
L 1491.861212 206.406637 
L 1493.099469 208.477621 
L 1494.337726 206.42351 
L 1495.575983 200.82085 
L 1496.814241 193.579341 
L 1498.052498 187.03764 
L 1499.290755 183.076942 
L 1500.529012 182.730899 
L 1501.76727 185.708762 
L 1503.005527 190.741539 
L 1504.243784 196.919979 
L 1505.482041 204.061461 
L 1509.196813 226.84772 
L 1510.435071 231.660082 
L 1511.673328 232.154083 
L 1512.911585 227.794045 
L 1515.3881 213.059827 
L 1516.626357 208.396498 
L 1517.864614 207.225602 
L 1519.102871 209.038131 
L 1520.341129 213.264592 
L 1521.579386 219.259356 
L 1524.0559 232.336221 
L 1525.294158 237.608213 
L 1526.532415 240.537293 
L 1527.770672 239.863595 
L 1529.00893 235.413113 
L 1530.247187 229.010801 
L 1531.485444 223.695965 
L 1532.723701 221.306052 
L 1533.961959 221.261384 
L 1536.438473 222.707572 
L 1537.67673 223.321156 
L 1538.914988 224.443899 
L 1540.153245 225.903574 
L 1541.391502 226.267649 
L 1543.868017 223.213612 
L 1545.106274 224.336752 
L 1546.344531 229.140607 
L 1547.582789 235.871197 
L 1548.821046 241.693904 
L 1550.059303 244.502353 
L 1551.29756 244.053414 
L 1553.774075 239.383426 
L 1555.012332 238.028634 
L 1556.250589 237.804679 
L 1557.488847 237.196025 
L 1558.727104 234.205825 
L 1559.965361 228.149264 
L 1562.441876 211.913191 
L 1563.680133 205.942412 
L 1564.91839 204.423897 
L 1566.156648 208.668187 
L 1567.394905 217.368227 
L 1568.633162 226.948308 
L 1569.871419 234.275836 
L 1571.109677 238.514627 
L 1572.347934 240.456 
L 1573.586191 240.878001 
L 1574.824448 239.945366 
L 1577.300963 236.248454 
L 1578.53922 235.39605 
L 1581.015735 234.757885 
L 1582.253992 234.912608 
L 1583.492249 237.010669 
L 1584.730507 241.302981 
L 1585.968764 246.052801 
L 1587.207021 249.156489 
L 1588.445278 250.184013 
L 1589.683536 250.357618 
L 1590.921793 250.67405 
L 1592.16005 250.868939 
L 1593.398307 250.43449 
L 1597.113079 247.924732 
L 1598.351337 247.837383 
L 1599.589594 248.769185 
L 1600.827851 250.349801 
L 1602.066108 251.245408 
L 1603.304366 250.153634 
L 1605.78088 243.95852 
L 1607.019137 243.023839 
L 1608.257395 245.49567 
L 1609.495652 250.565607 
L 1611.972166 262.653283 
L 1613.210424 268.16315 
L 1614.448681 272.837033 
L 1615.686938 275.857205 
L 1616.925196 561.202423 
L 1618.163453 274.186897 
L 1620.639967 266.694605 
L 1621.878225 264.111847 
L 1623.116482 263.050488 
L 1624.354739 262.984906 
L 1625.592996 262.731103 
L 1628.069511 260.778993 
L 1629.307768 260.66324 
L 1630.546026 260.845156 
L 1631.784283 260.227066 
L 1634.260797 256.886762 
L 1635.499055 256.177798 
L 1636.737312 256.902083 
L 1637.975569 259.815544 
L 1639.213826 265.905904 
L 1640.452084 275.317841 
L 1641.690341 286.853599 
L 1641.690341 286.853599 
" style="fill:none;stroke:#008000;stroke-linecap:square;stroke-width:1.5;"/>
   </g>
   <g id="patch_3">
    <path d="M 43.78125 586.86358 
L 43.78125 22.318125 
" style="fill:none;stroke:#000000;stroke-linecap:square;stroke-linejoin:miter;stroke-width:0.8;"/>
   </g>
   <g id="patch_4">
    <path d="M 1717.78125 586.86358 
L 1717.78125 22.318125 
" style="fill:none;stroke:#000000;stroke-linecap:square;stroke-linejoin:miter;stroke-width:0.8;"/>
   </g>
   <g id="patch_5">
    <path d="M 43.78125 586.86358 
L 1717.78125 586.86358 
" style="fill:none;stroke:#000000;stroke-linecap:square;stroke-linejoin:miter;stroke-width:0.8;"/>
   </g>
   <g id="patch_6">
    <path d="M 43.78125 22.318125 
L 1717.78125 22.318125 
" style="fill:none;stroke:#000000;stroke-linecap:square;stroke-linejoin:miter;stroke-width:0.8;"/>
   </g>
   <g id="text_16">
    <!-- before binarisation -->
    <g transform="translate(824.1825 16.318125)scale(0.12 -0.12)">
     <defs>
      <path d="M 3116 1747 
Q 3116 2381 2855 2742 
Q 2594 3103 2138 3103 
Q 1681 3103 1420 2742 
Q 1159 2381 1159 1747 
Q 1159 1113 1420 752 
Q 1681 391 2138 391 
Q 2594 391 2855 752 
Q 3116 1113 3116 1747 
z
M 1159 2969 
Q 1341 3281 1617 3432 
Q 1894 3584 2278 3584 
Q 2916 3584 3314 3078 
Q 3713 2572 3713 1747 
Q 3713 922 3314 415 
Q 2916 -91 2278 -91 
Q 1894 -91 1617 61 
Q 1341 213 1159 525 
L 1159 0 
L 581 0 
L 581 4863 
L 1159 4863 
L 1159 2969 
z
" id="DejaVuSans-62" transform="scale(0.015625)"/>
      <path d="M 1959 3097 
Q 1497 3097 1228 2736 
Q 959 2375 959 1747 
Q 959 1119 1226 758 
Q 1494 397 1959 397 
Q 2419 397 2687 759 
Q 2956 1122 2956 1747 
Q 2956 2369 2687 2733 
Q 2419 3097 1959 3097 
z
M 1959 3584 
Q 2709 3584 3137 3096 
Q 3566 2609 3566 1747 
Q 3566 888 3137 398 
Q 2709 -91 1959 -91 
Q 1206 -91 779 398 
Q 353 888 353 1747 
Q 353 2609 779 3096 
Q 1206 3584 1959 3584 
z
" id="DejaVuSans-6f" transform="scale(0.015625)"/>
      <path id="DejaVuSans-20" transform="scale(0.015625)"/>
      <path d="M 603 3500 
L 1178 3500 
L 1178 0 
L 603 0 
L 603 3500 
z
M 603 4863 
L 1178 4863 
L 1178 4134 
L 603 4134 
L 603 4863 
z
" id="DejaVuSans-69" transform="scale(0.015625)"/>
      <path d="M 3513 2113 
L 3513 0 
L 2938 0 
L 2938 2094 
Q 2938 2591 2744 2837 
Q 2550 3084 2163 3084 
Q 1697 3084 1428 2787 
Q 1159 2491 1159 1978 
L 1159 0 
L 581 0 
L 581 3500 
L 1159 3500 
L 1159 2956 
Q 1366 3272 1645 3428 
Q 1925 3584 2291 3584 
Q 2894 3584 3203 3211 
Q 3513 2838 3513 2113 
z
" id="DejaVuSans-6e" transform="scale(0.015625)"/>
      <path d="M 2834 3397 
L 2834 2853 
Q 2591 2978 2328 3040 
Q 2066 3103 1784 3103 
Q 1356 3103 1142 2972 
Q 928 2841 928 2578 
Q 928 2378 1081 2264 
Q 1234 2150 1697 2047 
L 1894 2003 
Q 2506 1872 2764 1633 
Q 3022 1394 3022 966 
Q 3022 478 2636 193 
Q 2250 -91 1575 -91 
Q 1294 -91 989 -36 
Q 684 19 347 128 
L 347 722 
Q 666 556 975 473 
Q 1284 391 1588 391 
Q 1994 391 2212 530 
Q 2431 669 2431 922 
Q 2431 1156 2273 1281 
Q 2116 1406 1581 1522 
L 1381 1569 
Q 847 1681 609 1914 
Q 372 2147 372 2553 
Q 372 3047 722 3315 
Q 1072 3584 1716 3584 
Q 2034 3584 2315 3537 
Q 2597 3491 2834 3397 
z
" id="DejaVuSans-73" transform="scale(0.015625)"/>
      <path d="M 1172 4494 
L 1172 3500 
L 2356 3500 
L 2356 3053 
L 1172 3053 
L 1172 1153 
Q 1172 725 1289 603 
Q 1406 481 1766 481 
L 2356 481 
L 2356 0 
L 1766 0 
Q 1100 0 847 248 
Q 594 497 594 1153 
L 594 3053 
L 172 3053 
L 172 3500 
L 594 3500 
L 594 4494 
L 1172 4494 
z
" id="DejaVuSans-74" transform="scale(0.015625)"/>
     </defs>
     <use xlink:href="#DejaVuSans-62"/>
     <use x="63.476562" xlink:href="#DejaVuSans-65"/>
     <use x="125" xlink:href="#DejaVuSans-66"/>
     <use x="160.205078" xlink:href="#DejaVuSans-6f"/>
     <use x="221.386719" xlink:href="#DejaVuSans-72"/>
     <use x="260.25" xlink:href="#DejaVuSans-65"/>
     <use x="321.773438" xlink:href="#DejaVuSans-20"/>
     <use x="353.560547" xlink:href="#DejaVuSans-62"/>
     <use x="417.037109" xlink:href="#DejaVuSans-69"/>
     <use x="444.820312" xlink:href="#DejaVuSans-6e"/>
     <use x="508.199219" xlink:href="#DejaVuSans-61"/>
     <use x="569.478516" xlink:href="#DejaVuSans-72"/>
     <use x="610.591797" xlink:href="#DejaVuSans-69"/>
     <use x="638.375" xlink:href="#DejaVuSans-73"/>
     <use x="690.474609" xlink:href="#DejaVuSans-61"/>
     <use x="751.753906" xlink:href="#DejaVuSans-74"/>
     <use x="790.962891" xlink:href="#DejaVuSans-69"/>
     <use x="818.746094" xlink:href="#DejaVuSans-6f"/>
     <use x="879.927734" xlink:href="#DejaVuSans-6e"/>
    </g>
   </g>
  </g>
  <g id="axes_2">
   <g id="patch_7">
    <path d="M 43.78125 1264.318125 
L 1717.78125 1264.318125 
L 1717.78125 699.77267 
L 43.78125 699.77267 
z
" style="fill:#ffffff;"/>
   </g>
   <g id="matplotlib.axis_3">
    <g id="xtick_8">
     <g id="line2d_15">
      <g>
       <use style="stroke:#000000;stroke-width:0.8;" x="119.872159" xlink:href="#mbc11a66d5f" y="1264.318125"/>
      </g>
     </g>
     <g id="text_17">
      <!-- 0 -->
      <g transform="translate(116.690909 1278.916563)scale(0.1 -0.1)">
       <use xlink:href="#DejaVuSans-30"/>
      </g>
     </g>
    </g>
    <g id="xtick_9">
     <g id="line2d_16">
      <g>
       <use style="stroke:#000000;stroke-width:0.8;" x="367.523613" xlink:href="#mbc11a66d5f" y="1264.318125"/>
      </g>
     </g>
     <g id="text_18">
      <!-- 200 -->
      <g transform="translate(357.979863 1278.916563)scale(0.1 -0.1)">
       <use xlink:href="#DejaVuSans-32"/>
       <use x="63.623047" xlink:href="#DejaVuSans-30"/>
       <use x="127.246094" xlink:href="#DejaVuSans-30"/>
      </g>
     </g>
    </g>
    <g id="xtick_10">
     <g id="line2d_17">
      <g>
       <use style="stroke:#000000;stroke-width:0.8;" x="615.175066" xlink:href="#mbc11a66d5f" y="1264.318125"/>
      </g>
     </g>
     <g id="text_19">
      <!-- 400 -->
      <g transform="translate(605.631316 1278.916563)scale(0.1 -0.1)">
       <use xlink:href="#DejaVuSans-34"/>
       <use x="63.623047" xlink:href="#DejaVuSans-30"/>
       <use x="127.246094" xlink:href="#DejaVuSans-30"/>
      </g>
     </g>
    </g>
    <g id="xtick_11">
     <g id="line2d_18">
      <g>
       <use style="stroke:#000000;stroke-width:0.8;" x="862.82652" xlink:href="#mbc11a66d5f" y="1264.318125"/>
      </g>
     </g>
     <g id="text_20">
      <!-- 600 -->
      <g transform="translate(853.28277 1278.916563)scale(0.1 -0.1)">
       <use xlink:href="#DejaVuSans-36"/>
       <use x="63.623047" xlink:href="#DejaVuSans-30"/>
       <use x="127.246094" xlink:href="#DejaVuSans-30"/>
      </g>
     </g>
    </g>
    <g id="xtick_12">
     <g id="line2d_19">
      <g>
       <use style="stroke:#000000;stroke-width:0.8;" x="1110.477973" xlink:href="#mbc11a66d5f" y="1264.318125"/>
      </g>
     </g>
     <g id="text_21">
      <!-- 800 -->
      <g transform="translate(1100.934223 1278.916563)scale(0.1 -0.1)">
       <use xlink:href="#DejaVuSans-38"/>
       <use x="63.623047" xlink:href="#DejaVuSans-30"/>
       <use x="127.246094" xlink:href="#DejaVuSans-30"/>
      </g>
     </g>
    </g>
    <g id="xtick_13">
     <g id="line2d_20">
      <g>
       <use style="stroke:#000000;stroke-width:0.8;" x="1358.129427" xlink:href="#mbc11a66d5f" y="1264.318125"/>
      </g>
     </g>
     <g id="text_22">
      <!-- 1000 -->
      <g transform="translate(1345.404427 1278.916563)scale(0.1 -0.1)">
       <use xlink:href="#DejaVuSans-31"/>
       <use x="63.623047" xlink:href="#DejaVuSans-30"/>
       <use x="127.246094" xlink:href="#DejaVuSans-30"/>
       <use x="190.869141" xlink:href="#DejaVuSans-30"/>
      </g>
     </g>
    </g>
    <g id="xtick_14">
     <g id="line2d_21">
      <g>
       <use style="stroke:#000000;stroke-width:0.8;" x="1605.78088" xlink:href="#mbc11a66d5f" y="1264.318125"/>
      </g>
     </g>
     <g id="text_23">
      <!-- 1200 -->
      <g transform="translate(1593.05588 1278.916563)scale(0.1 -0.1)">
       <use xlink:href="#DejaVuSans-31"/>
       <use x="63.623047" xlink:href="#DejaVuSans-32"/>
       <use x="127.246094" xlink:href="#DejaVuSans-30"/>
       <use x="190.869141" xlink:href="#DejaVuSans-30"/>
      </g>
     </g>
    </g>
    <g id="text_24">
     <!-- frame -->
     <g transform="translate(865.954687 1292.594688)scale(0.1 -0.1)">
      <use xlink:href="#DejaVuSans-66"/>
      <use x="35.205078" xlink:href="#DejaVuSans-72"/>
      <use x="76.318359" xlink:href="#DejaVuSans-61"/>
      <use x="137.597656" xlink:href="#DejaVuSans-6d"/>
      <use x="235.009766" xlink:href="#DejaVuSans-65"/>
     </g>
    </g>
   </g>
   <g id="matplotlib.axis_4">
    <g id="ytick_7">
     <g id="line2d_22">
      <g>
       <use style="stroke:#000000;stroke-width:0.8;" x="43.78125" xlink:href="#m53ceb66349" y="1238.656968"/>
      </g>
     </g>
     <g id="text_25">
      <!-- 0.0 -->
      <g transform="translate(20.878125 1242.456187)scale(0.1 -0.1)">
       <use xlink:href="#DejaVuSans-30"/>
       <use x="63.623047" xlink:href="#DejaVuSans-2e"/>
       <use x="95.410156" xlink:href="#DejaVuSans-30"/>
      </g>
     </g>
    </g>
    <g id="ytick_8">
     <g id="line2d_23">
      <g>
       <use style="stroke:#000000;stroke-width:0.8;" x="43.78125" xlink:href="#m53ceb66349" y="1136.01234"/>
      </g>
     </g>
     <g id="text_26">
      <!-- 0.2 -->
      <g transform="translate(20.878125 1139.811559)scale(0.1 -0.1)">
       <use xlink:href="#DejaVuSans-30"/>
       <use x="63.623047" xlink:href="#DejaVuSans-2e"/>
       <use x="95.410156" xlink:href="#DejaVuSans-32"/>
      </g>
     </g>
    </g>
    <g id="ytick_9">
     <g id="line2d_24">
      <g>
       <use style="stroke:#000000;stroke-width:0.8;" x="43.78125" xlink:href="#m53ceb66349" y="1033.367712"/>
      </g>
     </g>
     <g id="text_27">
      <!-- 0.4 -->
      <g transform="translate(20.878125 1037.166931)scale(0.1 -0.1)">
       <use xlink:href="#DejaVuSans-30"/>
       <use x="63.623047" xlink:href="#DejaVuSans-2e"/>
       <use x="95.410156" xlink:href="#DejaVuSans-34"/>
      </g>
     </g>
    </g>
    <g id="ytick_10">
     <g id="line2d_25">
      <g>
       <use style="stroke:#000000;stroke-width:0.8;" x="43.78125" xlink:href="#m53ceb66349" y="930.723084"/>
      </g>
     </g>
     <g id="text_28">
      <!-- 0.6 -->
      <g transform="translate(20.878125 934.522302)scale(0.1 -0.1)">
       <use xlink:href="#DejaVuSans-30"/>
       <use x="63.623047" xlink:href="#DejaVuSans-2e"/>
       <use x="95.410156" xlink:href="#DejaVuSans-36"/>
      </g>
     </g>
    </g>
    <g id="ytick_11">
     <g id="line2d_26">
      <g>
       <use style="stroke:#000000;stroke-width:0.8;" x="43.78125" xlink:href="#m53ceb66349" y="828.078456"/>
      </g>
     </g>
     <g id="text_29">
      <!-- 0.8 -->
      <g transform="translate(20.878125 831.877674)scale(0.1 -0.1)">
       <use xlink:href="#DejaVuSans-30"/>
       <use x="63.623047" xlink:href="#DejaVuSans-2e"/>
       <use x="95.410156" xlink:href="#DejaVuSans-38"/>
      </g>
     </g>
    </g>
    <g id="ytick_12">
     <g id="line2d_27">
      <g>
       <use style="stroke:#000000;stroke-width:0.8;" x="43.78125" xlink:href="#m53ceb66349" y="725.433827"/>
      </g>
     </g>
     <g id="text_30">
      <!-- 1.0 -->
      <g transform="translate(20.878125 729.233046)scale(0.1 -0.1)">
       <use xlink:href="#DejaVuSans-31"/>
       <use x="63.623047" xlink:href="#DejaVuSans-2e"/>
       <use x="95.410156" xlink:href="#DejaVuSans-30"/>
      </g>
     </g>
    </g>
    <g id="text_31">
     <!-- GCaMP -->
     <g transform="translate(14.798437 999.803991)rotate(-90)scale(0.1 -0.1)">
      <use xlink:href="#DejaVuSans-47"/>
      <use x="77.490234" xlink:href="#DejaVuSans-43"/>
      <use x="147.314453" xlink:href="#DejaVuSans-61"/>
      <use x="208.59375" xlink:href="#DejaVuSans-4d"/>
      <use x="294.873047" xlink:href="#DejaVuSans-50"/>
     </g>
    </g>
   </g>
   <g id="line2d_28">
    <path clip-path="url(#pdfa5819814)" d="M 119.872159 1238.656968 
L 1117.907517 1238.656968 
L 1119.145774 725.433827 
L 1467.096066 725.433827 
L 1468.334323 1238.656968 
L 1474.52561 1238.656968 
L 1475.763867 725.433827 
L 1488.14644 725.433827 
L 1489.384697 1238.656968 
L 1496.814241 1238.656968 
L 1498.052498 725.433827 
L 1501.76727 725.433827 
L 1503.005527 1238.656968 
L 1641.690341 1238.656968 
L 1641.690341 1238.656968 
" style="fill:none;stroke:#008000;stroke-linecap:square;stroke-width:1.5;"/>
   </g>
   <g id="patch_8">
    <path d="M 43.78125 1264.318125 
L 43.78125 699.77267 
" style="fill:none;stroke:#000000;stroke-linecap:square;stroke-linejoin:miter;stroke-width:0.8;"/>
   </g>
   <g id="patch_9">
    <path d="M 1717.78125 1264.318125 
L 1717.78125 699.77267 
" style="fill:none;stroke:#000000;stroke-linecap:square;stroke-linejoin:miter;stroke-width:0.8;"/>
   </g>
   <g id="patch_10">
    <path d="M 43.78125 1264.318125 
L 1717.78125 1264.318125 
" style="fill:none;stroke:#000000;stroke-linecap:square;stroke-linejoin:miter;stroke-width:0.8;"/>
   </g>
   <g id="patch_11">
    <path d="M 43.78125 699.77267 
L 1717.78125 699.77267 
" style="fill:none;stroke:#000000;stroke-linecap:square;stroke-linejoin:miter;stroke-width:0.8;"/>
   </g>
   <g id="text_32">
    <!-- before binarisation -->
    <g transform="translate(824.1825 693.77267)scale(0.12 -0.12)">
     <use xlink:href="#DejaVuSans-62"/>
     <use x="63.476562" xlink:href="#DejaVuSans-65"/>
     <use x="125" xlink:href="#DejaVuSans-66"/>
     <use x="160.205078" xlink:href="#DejaVuSans-6f"/>
     <use x="221.386719" xlink:href="#DejaVuSans-72"/>
     <use x="260.25" xlink:href="#DejaVuSans-65"/>
     <use x="321.773438" xlink:href="#DejaVuSans-20"/>
     <use x="353.560547" xlink:href="#DejaVuSans-62"/>
     <use x="417.037109" xlink:href="#DejaVuSans-69"/>
     <use x="444.820312" xlink:href="#DejaVuSans-6e"/>
     <use x="508.199219" xlink:href="#DejaVuSans-61"/>
     <use x="569.478516" xlink:href="#DejaVuSans-72"/>
     <use x="610.591797" xlink:href="#DejaVuSans-69"/>
     <use x="638.375" xlink:href="#DejaVuSans-73"/>
     <use x="690.474609" xlink:href="#DejaVuSans-61"/>
     <use x="751.753906" xlink:href="#DejaVuSans-74"/>
     <use x="790.962891" xlink:href="#DejaVuSans-69"/>
     <use x="818.746094" xlink:href="#DejaVuSans-6f"/>
     <use x="879.927734" xlink:href="#DejaVuSans-6e"/>
    </g>
   </g>
  </g>
 </g>
 <defs>
  <clipPath id="p9e57ea7503">
   <rect height="564.545455" width="1674" x="43.78125" y="22.318125"/>
  </clipPath>
  <clipPath id="pdfa5819814">
   <rect height="564.545455" width="1674" x="43.78125" y="699.77267"/>
  </clipPath>
 </defs>
</svg>
