<?xml version="1.0" encoding="utf-8" standalone="no"?>
<!DOCTYPE svg PUBLIC "-//W3C//DTD SVG 1.1//EN"
  "http://www.w3.org/Graphics/SVG/1.1/DTD/svg11.dtd">
<svg height="1301.874375pt" version="1.1" viewBox="0 0 1724.98125 1301.874375" width="1724.98125pt" xmlns="http://www.w3.org/2000/svg" xmlns:xlink="http://www.w3.org/1999/xlink">
 <metadata>
  <rdf:RDF xmlns:cc="http://creativecommons.org/ns#" xmlns:dc="http://purl.org/dc/elements/1.1/" xmlns:rdf="http://www.w3.org/1999/02/22-rdf-syntax-ns#">
   <cc:Work>
    <dc:type rdf:resource="http://purl.org/dc/dcmitype/StillImage"/>
    <dc:date>2022-07-24T15:54:31.846863</dc:date>
    <dc:format>image/svg+xml</dc:format>
    <dc:creator>
     <cc:Agent>
      <dc:title>Matplotlib v3.4.2, https://matplotlib.org/</dc:title>
     </cc:Agent>
    </dc:creator>
   </cc:Work>
  </rdf:RDF>
 </metadata>
 <defs>
  <style type="text/css">*{stroke-linecap:butt;stroke-linejoin:round;}</style>
 </defs>
 <g id="figure_1">
  <g id="patch_1">
   <path d="M 0 1301.874375 
L 1724.98125 1301.874375 
L 1724.98125 0 
L 0 0 
z
" style="fill:#ffffff;"/>
  </g>
  <g id="axes_1">
   <g id="patch_2">
    <path d="M 43.78125 586.86358 
L 1717.78125 586.86358 
L 1717.78125 22.318125 
L 43.78125 22.318125 
z
" style="fill:#ffffff;"/>
   </g>
   <g id="matplotlib.axis_1">
    <g id="xtick_1">
     <g id="line2d_1">
      <defs>
       <path d="M 0 0 
L 0 3.5 
" id="m2ec1b6ba9b" style="stroke:#000000;stroke-width:0.8;"/>
      </defs>
      <g>
       <use style="stroke:#000000;stroke-width:0.8;" x="119.872159" xlink:href="#m2ec1b6ba9b" y="586.86358"/>
      </g>
     </g>
     <g id="text_1">
      <!-- 0 -->
      <g transform="translate(116.690909 601.462017)scale(0.1 -0.1)">
       <defs>
        <path d="M 2034 4250 
Q 1547 4250 1301 3770 
Q 1056 3291 1056 2328 
Q 1056 1369 1301 889 
Q 1547 409 2034 409 
Q 2525 409 2770 889 
Q 3016 1369 3016 2328 
Q 3016 3291 2770 3770 
Q 2525 4250 2034 4250 
z
M 2034 4750 
Q 2819 4750 3233 4129 
Q 3647 3509 3647 2328 
Q 3647 1150 3233 529 
Q 2819 -91 2034 -91 
Q 1250 -91 836 529 
Q 422 1150 422 2328 
Q 422 3509 836 4129 
Q 1250 4750 2034 4750 
z
" id="DejaVuSans-30" transform="scale(0.015625)"/>
       </defs>
       <use xlink:href="#DejaVuSans-30"/>
      </g>
     </g>
    </g>
    <g id="xtick_2">
     <g id="line2d_2">
      <g>
       <use style="stroke:#000000;stroke-width:0.8;" x="367.523613" xlink:href="#m2ec1b6ba9b" y="586.86358"/>
      </g>
     </g>
     <g id="text_2">
      <!-- 200 -->
      <g transform="translate(357.979863 601.462017)scale(0.1 -0.1)">
       <defs>
        <path d="M 1228 531 
L 3431 531 
L 3431 0 
L 469 0 
L 469 531 
Q 828 903 1448 1529 
Q 2069 2156 2228 2338 
Q 2531 2678 2651 2914 
Q 2772 3150 2772 3378 
Q 2772 3750 2511 3984 
Q 2250 4219 1831 4219 
Q 1534 4219 1204 4116 
Q 875 4013 500 3803 
L 500 4441 
Q 881 4594 1212 4672 
Q 1544 4750 1819 4750 
Q 2544 4750 2975 4387 
Q 3406 4025 3406 3419 
Q 3406 3131 3298 2873 
Q 3191 2616 2906 2266 
Q 2828 2175 2409 1742 
Q 1991 1309 1228 531 
z
" id="DejaVuSans-32" transform="scale(0.015625)"/>
       </defs>
       <use xlink:href="#DejaVuSans-32"/>
       <use x="63.623047" xlink:href="#DejaVuSans-30"/>
       <use x="127.246094" xlink:href="#DejaVuSans-30"/>
      </g>
     </g>
    </g>
    <g id="xtick_3">
     <g id="line2d_3">
      <g>
       <use style="stroke:#000000;stroke-width:0.8;" x="615.175066" xlink:href="#m2ec1b6ba9b" y="586.86358"/>
      </g>
     </g>
     <g id="text_3">
      <!-- 400 -->
      <g transform="translate(605.631316 601.462017)scale(0.1 -0.1)">
       <defs>
        <path d="M 2419 4116 
L 825 1625 
L 2419 1625 
L 2419 4116 
z
M 2253 4666 
L 3047 4666 
L 3047 1625 
L 3713 1625 
L 3713 1100 
L 3047 1100 
L 3047 0 
L 2419 0 
L 2419 1100 
L 313 1100 
L 313 1709 
L 2253 4666 
z
" id="DejaVuSans-34" transform="scale(0.015625)"/>
       </defs>
       <use xlink:href="#DejaVuSans-34"/>
       <use x="63.623047" xlink:href="#DejaVuSans-30"/>
       <use x="127.246094" xlink:href="#DejaVuSans-30"/>
      </g>
     </g>
    </g>
    <g id="xtick_4">
     <g id="line2d_4">
      <g>
       <use style="stroke:#000000;stroke-width:0.8;" x="862.82652" xlink:href="#m2ec1b6ba9b" y="586.86358"/>
      </g>
     </g>
     <g id="text_4">
      <!-- 600 -->
      <g transform="translate(853.28277 601.462017)scale(0.1 -0.1)">
       <defs>
        <path d="M 2113 2584 
Q 1688 2584 1439 2293 
Q 1191 2003 1191 1497 
Q 1191 994 1439 701 
Q 1688 409 2113 409 
Q 2538 409 2786 701 
Q 3034 994 3034 1497 
Q 3034 2003 2786 2293 
Q 2538 2584 2113 2584 
z
M 3366 4563 
L 3366 3988 
Q 3128 4100 2886 4159 
Q 2644 4219 2406 4219 
Q 1781 4219 1451 3797 
Q 1122 3375 1075 2522 
Q 1259 2794 1537 2939 
Q 1816 3084 2150 3084 
Q 2853 3084 3261 2657 
Q 3669 2231 3669 1497 
Q 3669 778 3244 343 
Q 2819 -91 2113 -91 
Q 1303 -91 875 529 
Q 447 1150 447 2328 
Q 447 3434 972 4092 
Q 1497 4750 2381 4750 
Q 2619 4750 2861 4703 
Q 3103 4656 3366 4563 
z
" id="DejaVuSans-36" transform="scale(0.015625)"/>
       </defs>
       <use xlink:href="#DejaVuSans-36"/>
       <use x="63.623047" xlink:href="#DejaVuSans-30"/>
       <use x="127.246094" xlink:href="#DejaVuSans-30"/>
      </g>
     </g>
    </g>
    <g id="xtick_5">
     <g id="line2d_5">
      <g>
       <use style="stroke:#000000;stroke-width:0.8;" x="1110.477973" xlink:href="#m2ec1b6ba9b" y="586.86358"/>
      </g>
     </g>
     <g id="text_5">
      <!-- 800 -->
      <g transform="translate(1100.934223 601.462017)scale(0.1 -0.1)">
       <defs>
        <path d="M 2034 2216 
Q 1584 2216 1326 1975 
Q 1069 1734 1069 1313 
Q 1069 891 1326 650 
Q 1584 409 2034 409 
Q 2484 409 2743 651 
Q 3003 894 3003 1313 
Q 3003 1734 2745 1975 
Q 2488 2216 2034 2216 
z
M 1403 2484 
Q 997 2584 770 2862 
Q 544 3141 544 3541 
Q 544 4100 942 4425 
Q 1341 4750 2034 4750 
Q 2731 4750 3128 4425 
Q 3525 4100 3525 3541 
Q 3525 3141 3298 2862 
Q 3072 2584 2669 2484 
Q 3125 2378 3379 2068 
Q 3634 1759 3634 1313 
Q 3634 634 3220 271 
Q 2806 -91 2034 -91 
Q 1263 -91 848 271 
Q 434 634 434 1313 
Q 434 1759 690 2068 
Q 947 2378 1403 2484 
z
M 1172 3481 
Q 1172 3119 1398 2916 
Q 1625 2713 2034 2713 
Q 2441 2713 2670 2916 
Q 2900 3119 2900 3481 
Q 2900 3844 2670 4047 
Q 2441 4250 2034 4250 
Q 1625 4250 1398 4047 
Q 1172 3844 1172 3481 
z
" id="DejaVuSans-38" transform="scale(0.015625)"/>
       </defs>
       <use xlink:href="#DejaVuSans-38"/>
       <use x="63.623047" xlink:href="#DejaVuSans-30"/>
       <use x="127.246094" xlink:href="#DejaVuSans-30"/>
      </g>
     </g>
    </g>
    <g id="xtick_6">
     <g id="line2d_6">
      <g>
       <use style="stroke:#000000;stroke-width:0.8;" x="1358.129427" xlink:href="#m2ec1b6ba9b" y="586.86358"/>
      </g>
     </g>
     <g id="text_6">
      <!-- 1000 -->
      <g transform="translate(1345.404427 601.462017)scale(0.1 -0.1)">
       <defs>
        <path d="M 794 531 
L 1825 531 
L 1825 4091 
L 703 3866 
L 703 4441 
L 1819 4666 
L 2450 4666 
L 2450 531 
L 3481 531 
L 3481 0 
L 794 0 
L 794 531 
z
" id="DejaVuSans-31" transform="scale(0.015625)"/>
       </defs>
       <use xlink:href="#DejaVuSans-31"/>
       <use x="63.623047" xlink:href="#DejaVuSans-30"/>
       <use x="127.246094" xlink:href="#DejaVuSans-30"/>
       <use x="190.869141" xlink:href="#DejaVuSans-30"/>
      </g>
     </g>
    </g>
    <g id="xtick_7">
     <g id="line2d_7">
      <g>
       <use style="stroke:#000000;stroke-width:0.8;" x="1605.78088" xlink:href="#m2ec1b6ba9b" y="586.86358"/>
      </g>
     </g>
     <g id="text_7">
      <!-- 1200 -->
      <g transform="translate(1593.05588 601.462017)scale(0.1 -0.1)">
       <use xlink:href="#DejaVuSans-31"/>
       <use x="63.623047" xlink:href="#DejaVuSans-32"/>
       <use x="127.246094" xlink:href="#DejaVuSans-30"/>
       <use x="190.869141" xlink:href="#DejaVuSans-30"/>
      </g>
     </g>
    </g>
    <g id="text_8">
     <!-- frame -->
     <g transform="translate(865.954687 615.140142)scale(0.1 -0.1)">
      <defs>
       <path d="M 2375 4863 
L 2375 4384 
L 1825 4384 
Q 1516 4384 1395 4259 
Q 1275 4134 1275 3809 
L 1275 3500 
L 2222 3500 
L 2222 3053 
L 1275 3053 
L 1275 0 
L 697 0 
L 697 3053 
L 147 3053 
L 147 3500 
L 697 3500 
L 697 3744 
Q 697 4328 969 4595 
Q 1241 4863 1831 4863 
L 2375 4863 
z
" id="DejaVuSans-66" transform="scale(0.015625)"/>
       <path d="M 2631 2963 
Q 2534 3019 2420 3045 
Q 2306 3072 2169 3072 
Q 1681 3072 1420 2755 
Q 1159 2438 1159 1844 
L 1159 0 
L 581 0 
L 581 3500 
L 1159 3500 
L 1159 2956 
Q 1341 3275 1631 3429 
Q 1922 3584 2338 3584 
Q 2397 3584 2469 3576 
Q 2541 3569 2628 3553 
L 2631 2963 
z
" id="DejaVuSans-72" transform="scale(0.015625)"/>
       <path d="M 2194 1759 
Q 1497 1759 1228 1600 
Q 959 1441 959 1056 
Q 959 750 1161 570 
Q 1363 391 1709 391 
Q 2188 391 2477 730 
Q 2766 1069 2766 1631 
L 2766 1759 
L 2194 1759 
z
M 3341 1997 
L 3341 0 
L 2766 0 
L 2766 531 
Q 2569 213 2275 61 
Q 1981 -91 1556 -91 
Q 1019 -91 701 211 
Q 384 513 384 1019 
Q 384 1609 779 1909 
Q 1175 2209 1959 2209 
L 2766 2209 
L 2766 2266 
Q 2766 2663 2505 2880 
Q 2244 3097 1772 3097 
Q 1472 3097 1187 3025 
Q 903 2953 641 2809 
L 641 3341 
Q 956 3463 1253 3523 
Q 1550 3584 1831 3584 
Q 2591 3584 2966 3190 
Q 3341 2797 3341 1997 
z
" id="DejaVuSans-61" transform="scale(0.015625)"/>
       <path d="M 3328 2828 
Q 3544 3216 3844 3400 
Q 4144 3584 4550 3584 
Q 5097 3584 5394 3201 
Q 5691 2819 5691 2113 
L 5691 0 
L 5113 0 
L 5113 2094 
Q 5113 2597 4934 2840 
Q 4756 3084 4391 3084 
Q 3944 3084 3684 2787 
Q 3425 2491 3425 1978 
L 3425 0 
L 2847 0 
L 2847 2094 
Q 2847 2600 2669 2842 
Q 2491 3084 2119 3084 
Q 1678 3084 1418 2786 
Q 1159 2488 1159 1978 
L 1159 0 
L 581 0 
L 581 3500 
L 1159 3500 
L 1159 2956 
Q 1356 3278 1631 3431 
Q 1906 3584 2284 3584 
Q 2666 3584 2933 3390 
Q 3200 3197 3328 2828 
z
" id="DejaVuSans-6d" transform="scale(0.015625)"/>
       <path d="M 3597 1894 
L 3597 1613 
L 953 1613 
Q 991 1019 1311 708 
Q 1631 397 2203 397 
Q 2534 397 2845 478 
Q 3156 559 3463 722 
L 3463 178 
Q 3153 47 2828 -22 
Q 2503 -91 2169 -91 
Q 1331 -91 842 396 
Q 353 884 353 1716 
Q 353 2575 817 3079 
Q 1281 3584 2069 3584 
Q 2775 3584 3186 3129 
Q 3597 2675 3597 1894 
z
M 3022 2063 
Q 3016 2534 2758 2815 
Q 2500 3097 2075 3097 
Q 1594 3097 1305 2825 
Q 1016 2553 972 2059 
L 3022 2063 
z
" id="DejaVuSans-65" transform="scale(0.015625)"/>
      </defs>
      <use xlink:href="#DejaVuSans-66"/>
      <use x="35.205078" xlink:href="#DejaVuSans-72"/>
      <use x="76.318359" xlink:href="#DejaVuSans-61"/>
      <use x="137.597656" xlink:href="#DejaVuSans-6d"/>
      <use x="235.009766" xlink:href="#DejaVuSans-65"/>
     </g>
    </g>
   </g>
   <g id="matplotlib.axis_2">
    <g id="ytick_1">
     <g id="line2d_8">
      <defs>
       <path d="M 0 0 
L -3.5 0 
" id="md192f6a5d1" style="stroke:#000000;stroke-width:0.8;"/>
      </defs>
      <g>
       <use style="stroke:#000000;stroke-width:0.8;" x="43.78125" xlink:href="#md192f6a5d1" y="543.836155"/>
      </g>
     </g>
     <g id="text_9">
      <!-- 4 -->
      <g transform="translate(30.41875 547.635373)scale(0.1 -0.1)">
       <use xlink:href="#DejaVuSans-34"/>
      </g>
     </g>
    </g>
    <g id="ytick_2">
     <g id="line2d_9">
      <g>
       <use style="stroke:#000000;stroke-width:0.8;" x="43.78125" xlink:href="#md192f6a5d1" y="454.717064"/>
      </g>
     </g>
     <g id="text_10">
      <!-- 6 -->
      <g transform="translate(30.41875 458.516283)scale(0.1 -0.1)">
       <use xlink:href="#DejaVuSans-36"/>
      </g>
     </g>
    </g>
    <g id="ytick_3">
     <g id="line2d_10">
      <g>
       <use style="stroke:#000000;stroke-width:0.8;" x="43.78125" xlink:href="#md192f6a5d1" y="365.597974"/>
      </g>
     </g>
     <g id="text_11">
      <!-- 8 -->
      <g transform="translate(30.41875 369.397193)scale(0.1 -0.1)">
       <use xlink:href="#DejaVuSans-38"/>
      </g>
     </g>
    </g>
    <g id="ytick_4">
     <g id="line2d_11">
      <g>
       <use style="stroke:#000000;stroke-width:0.8;" x="43.78125" xlink:href="#md192f6a5d1" y="276.478883"/>
      </g>
     </g>
     <g id="text_12">
      <!-- 10 -->
      <g transform="translate(24.05625 280.278102)scale(0.1 -0.1)">
       <use xlink:href="#DejaVuSans-31"/>
       <use x="63.623047" xlink:href="#DejaVuSans-30"/>
      </g>
     </g>
    </g>
    <g id="ytick_5">
     <g id="line2d_12">
      <g>
       <use style="stroke:#000000;stroke-width:0.8;" x="43.78125" xlink:href="#md192f6a5d1" y="187.359793"/>
      </g>
     </g>
     <g id="text_13">
      <!-- 12 -->
      <g transform="translate(24.05625 191.159012)scale(0.1 -0.1)">
       <use xlink:href="#DejaVuSans-31"/>
       <use x="63.623047" xlink:href="#DejaVuSans-32"/>
      </g>
     </g>
    </g>
    <g id="ytick_6">
     <g id="line2d_13">
      <g>
       <use style="stroke:#000000;stroke-width:0.8;" x="43.78125" xlink:href="#md192f6a5d1" y="98.240703"/>
      </g>
     </g>
     <g id="text_14">
      <!-- 14 -->
      <g transform="translate(24.05625 102.039921)scale(0.1 -0.1)">
       <use xlink:href="#DejaVuSans-31"/>
       <use x="63.623047" xlink:href="#DejaVuSans-34"/>
      </g>
     </g>
    </g>
    <g id="text_15">
     <!-- GCaMP -->
     <g transform="translate(17.976562 322.349446)rotate(-90)scale(0.1 -0.1)">
      <defs>
       <path d="M 3809 666 
L 3809 1919 
L 2778 1919 
L 2778 2438 
L 4434 2438 
L 4434 434 
Q 4069 175 3628 42 
Q 3188 -91 2688 -91 
Q 1594 -91 976 548 
Q 359 1188 359 2328 
Q 359 3472 976 4111 
Q 1594 4750 2688 4750 
Q 3144 4750 3555 4637 
Q 3966 4525 4313 4306 
L 4313 3634 
Q 3963 3931 3569 4081 
Q 3175 4231 2741 4231 
Q 1884 4231 1454 3753 
Q 1025 3275 1025 2328 
Q 1025 1384 1454 906 
Q 1884 428 2741 428 
Q 3075 428 3337 486 
Q 3600 544 3809 666 
z
" id="DejaVuSans-47" transform="scale(0.015625)"/>
       <path d="M 4122 4306 
L 4122 3641 
Q 3803 3938 3442 4084 
Q 3081 4231 2675 4231 
Q 1875 4231 1450 3742 
Q 1025 3253 1025 2328 
Q 1025 1406 1450 917 
Q 1875 428 2675 428 
Q 3081 428 3442 575 
Q 3803 722 4122 1019 
L 4122 359 
Q 3791 134 3420 21 
Q 3050 -91 2638 -91 
Q 1578 -91 968 557 
Q 359 1206 359 2328 
Q 359 3453 968 4101 
Q 1578 4750 2638 4750 
Q 3056 4750 3426 4639 
Q 3797 4528 4122 4306 
z
" id="DejaVuSans-43" transform="scale(0.015625)"/>
       <path d="M 628 4666 
L 1569 4666 
L 2759 1491 
L 3956 4666 
L 4897 4666 
L 4897 0 
L 4281 0 
L 4281 4097 
L 3078 897 
L 2444 897 
L 1241 4097 
L 1241 0 
L 628 0 
L 628 4666 
z
" id="DejaVuSans-4d" transform="scale(0.015625)"/>
       <path d="M 1259 4147 
L 1259 2394 
L 2053 2394 
Q 2494 2394 2734 2622 
Q 2975 2850 2975 3272 
Q 2975 3691 2734 3919 
Q 2494 4147 2053 4147 
L 1259 4147 
z
M 628 4666 
L 2053 4666 
Q 2838 4666 3239 4311 
Q 3641 3956 3641 3272 
Q 3641 2581 3239 2228 
Q 2838 1875 2053 1875 
L 1259 1875 
L 1259 0 
L 628 0 
L 628 4666 
z
" id="DejaVuSans-50" transform="scale(0.015625)"/>
      </defs>
      <use xlink:href="#DejaVuSans-47"/>
      <use x="77.490234" xlink:href="#DejaVuSans-43"/>
      <use x="147.314453" xlink:href="#DejaVuSans-61"/>
      <use x="208.59375" xlink:href="#DejaVuSans-4d"/>
      <use x="294.873047" xlink:href="#DejaVuSans-50"/>
     </g>
    </g>
   </g>
   <g id="line2d_14">
    <path clip-path="url(#p965bc435da)" d="M 119.872159 189.416454 
L 121.110416 187.824421 
L 123.586931 183.471894 
L 124.825188 182.240958 
L 126.063445 183.05076 
L 127.301703 186.064358 
L 128.53996 190.622344 
L 131.016474 201.062817 
L 132.254732 205.586894 
L 133.492989 209.220122 
L 134.731246 211.765495 
L 135.969504 213.200612 
L 137.207761 214.233192 
L 138.446018 216.090027 
L 139.684275 219.565211 
L 140.922533 224.47448 
L 144.637304 240.634328 
L 145.875562 245.758181 
L 147.113819 251.783993 
L 148.352076 259.534459 
L 152.066848 288.660408 
L 153.305105 296.346058 
L 154.543363 302.169812 
L 158.258134 315.955591 
L 159.496392 321.637618 
L 163.211163 340.964325 
L 164.449421 346.602336 
L 165.687678 351.313291 
L 166.925935 354.49202 
L 169.40245 357.867322 
L 170.640707 360.795248 
L 171.878964 365.41407 
L 174.355479 376.210024 
L 175.593736 379.424218 
L 176.831993 379.951833 
L 178.070251 378.123056 
L 179.308508 374.843711 
L 180.546765 371.097721 
L 181.785022 367.817208 
L 183.02328 365.824555 
L 184.261537 365.279109 
L 185.499794 365.498595 
L 187.976309 366.24585 
L 189.214566 366.696516 
L 190.452823 366.82018 
L 192.929338 365.666509 
L 194.167595 366.20937 
L 195.405852 368.924076 
L 196.64411 373.66504 
L 197.882367 379.064051 
L 199.120624 383.209247 
L 200.358881 384.911498 
L 201.597139 384.402783 
L 204.073653 381.246043 
L 205.311911 380.194516 
L 206.550168 379.976051 
L 207.788425 380.906919 
L 209.026682 383.411929 
L 210.26494 387.930202 
L 211.503197 394.544212 
L 213.979711 409.869103 
L 215.217969 415.156034 
L 216.456226 418.112682 
L 217.694483 419.635358 
L 218.93274 420.676586 
L 220.170998 421.883259 
L 221.409255 423.629824 
L 222.647512 426.150922 
L 223.88577 429.452988 
L 227.600541 440.839827 
L 228.838799 443.469017 
L 230.077056 444.227355 
L 231.315313 443.282843 
L 232.55357 441.740224 
L 233.791828 440.660872 
L 235.030085 440.308882 
L 236.268342 440.27111 
L 237.5066 439.962266 
L 238.744857 438.871518 
L 239.983114 436.643866 
L 241.221371 433.039132 
L 242.459629 427.803263 
L 243.697886 420.98546 
L 246.1744 405.491163 
L 247.412658 399.008077 
L 248.650915 395.174151 
L 249.889172 394.613102 
L 251.127429 396.808252 
L 252.365687 400.925161 
L 253.603944 406.429943 
L 256.080459 419.236713 
L 258.556973 433.106459 
L 259.79523 438.707129 
L 261.033488 441.113467 
L 262.271745 440.109151 
L 263.510002 436.55777 
L 264.748259 431.705295 
L 265.986517 427.403107 
L 267.224774 425.815982 
L 268.463031 427.942879 
L 269.701288 432.780903 
L 273.41606 449.940584 
L 274.654318 454.499364 
L 275.892575 457.488585 
L 277.130832 458.487126 
L 278.369089 457.710604 
L 279.607347 456.404467 
L 280.845604 456.023828 
L 282.083861 457.395657 
L 283.322118 460.645019 
L 285.798633 469.099857 
L 287.03689 471.952505 
L 288.275147 473.716578 
L 289.513405 475.161516 
L 291.989919 478.564587 
L 293.228177 479.59866 
L 294.466434 479.474042 
L 295.704691 478.425494 
L 296.942948 477.157848 
L 298.181206 476.633702 
L 299.419463 477.683857 
L 301.895977 482.714749 
L 303.134235 484.138921 
L 304.372492 484.188181 
L 305.610749 483.571466 
L 306.849006 483.246782 
L 308.087264 483.95641 
L 309.325521 486.046522 
L 310.563778 489.374501 
L 311.802036 493.241374 
L 313.040293 496.28985 
L 314.27855 497.146057 
L 315.516807 495.905009 
L 316.755065 494.438443 
L 317.993322 494.708188 
L 319.231579 497.20461 
L 320.469836 501.262687 
L 322.946351 510.710077 
L 324.184608 514.461784 
L 325.422866 517.029893 
L 326.661123 518.375526 
L 327.89938 518.47812 
L 329.137637 517.577301 
L 330.375895 516.051042 
L 331.614152 513.951197 
L 332.852409 511.000661 
L 335.328924 503.592546 
L 336.567181 501.307009 
L 337.805438 501.390078 
L 339.043695 503.703151 
L 340.281953 506.821391 
L 341.52021 509.246956 
L 342.758467 510.594899 
L 345.234982 512.166203 
L 346.473239 513.292435 
L 347.711496 514.743653 
L 350.188011 517.870735 
L 351.426268 518.959306 
L 352.664525 519.615147 
L 353.902783 519.913823 
L 355.14104 519.765688 
L 356.379297 518.967561 
L 357.617554 517.546834 
L 358.855812 515.910092 
L 360.094069 514.524868 
L 361.332326 513.705197 
L 362.570584 513.583636 
L 363.808841 513.745688 
L 365.047098 513.175216 
L 366.285355 511.133515 
L 368.76187 504.544367 
L 370.000127 501.876309 
L 371.238384 500.113188 
L 372.476642 499.086996 
L 373.714899 498.644539 
L 374.953156 498.797268 
L 376.191413 499.775811 
L 377.429671 501.802326 
L 379.906185 507.647894 
L 381.144443 509.553437 
L 382.3827 509.684657 
L 383.620957 508.1792 
L 384.859214 505.622952 
L 387.335729 499.340735 
L 388.573986 497.147739 
L 389.812243 497.155916 
L 391.050501 499.600471 
L 392.288758 503.053278 
L 393.527015 505.254796 
L 394.765272 504.783564 
L 396.00353 501.789597 
L 398.480044 493.51999 
L 399.718302 490.964049 
L 400.956559 489.867486 
L 402.194816 489.746166 
L 403.433073 490.306701 
L 405.909588 492.338962 
L 407.147845 492.901064 
L 409.62436 493.292618 
L 410.862617 494.143639 
L 413.339132 497.026401 
L 414.577389 497.706222 
L 415.815646 496.609695 
L 417.053903 493.498895 
L 418.292161 489.577188 
L 419.530418 486.517741 
L 420.768675 485.347292 
L 422.006932 486.746397 
L 423.24519 491.148174 
L 426.959961 511.007964 
L 428.198219 514.119963 
L 429.436476 514.77645 
L 430.674733 514.444075 
L 431.912991 514.829772 
L 433.151248 517.038338 
L 434.389505 521.122371 
L 435.627762 525.958286 
L 436.86602 530.093806 
L 438.104277 532.887964 
L 439.342534 534.355574 
L 440.580791 534.386017 
L 441.819049 532.896135 
L 444.295563 528.02145 
L 445.53382 526.30754 
L 446.772078 525.189024 
L 449.248592 523.346369 
L 450.48685 522.802673 
L 451.725107 523.170644 
L 452.963364 524.948823 
L 454.201621 527.761248 
L 455.439879 530.087518 
L 456.678136 530.571759 
L 457.916393 529.381405 
L 459.15465 527.707036 
L 460.392908 526.463136 
L 461.631165 525.951419 
L 464.107679 526.038146 
L 465.345937 525.304695 
L 466.584194 523.596148 
L 467.822451 521.650053 
L 469.060709 520.838984 
L 470.298966 521.977896 
L 471.537223 524.693707 
L 475.251995 534.787183 
L 476.490252 536.117464 
L 477.728509 535.073483 
L 478.966767 531.958736 
L 481.443281 523.864583 
L 482.681538 520.909396 
L 483.919796 519.48592 
L 485.158053 519.850792 
L 487.634568 523.299639 
L 488.872825 524.460825 
L 490.111082 524.484511 
L 491.349339 523.031821 
L 492.587597 520.263631 
L 495.064111 513.652976 
L 496.302368 511.139239 
L 497.540626 509.834294 
L 498.778883 510.375122 
L 500.01714 513.283976 
L 501.255397 518.303384 
L 502.493655 524.151687 
L 503.731912 529.044938 
L 504.970169 531.59668 
L 506.208427 531.569753 
L 508.684941 528.381325 
L 509.923198 527.525727 
L 511.161456 527.124937 
L 512.399713 526.869481 
L 513.63797 527.026175 
L 514.876227 527.769239 
L 517.352742 529.981728 
L 521.067514 533.530289 
L 522.305771 534.414106 
L 523.544028 534.79485 
L 524.782286 534.105663 
L 527.2588 530.702978 
L 528.497057 530.101796 
L 529.735315 530.368595 
L 530.973572 530.407588 
L 532.211829 529.611154 
L 533.450086 528.457878 
L 534.688344 527.96966 
L 535.926601 528.919157 
L 537.164858 531.517657 
L 540.87963 543.147944 
L 547.070916 556.998735 
L 548.309174 559.210371 
L 549.547431 560.780449 
L 550.785688 561.202423 
L 552.023945 560.009846 
L 554.50046 555.027067 
L 555.738717 553.719344 
L 556.976975 553.724555 
L 558.215232 554.333749 
L 559.453489 554.81199 
L 560.691746 554.834469 
L 561.930004 554.5322 
L 563.168261 554.059444 
L 564.406518 553.23554 
L 565.644775 551.925492 
L 568.12129 548.989053 
L 569.359547 547.715889 
L 570.597804 546.67954 
L 573.074319 545.338807 
L 574.312576 543.827129 
L 575.550834 540.895882 
L 576.789091 536.726539 
L 578.027348 532.107327 
L 579.265605 527.975902 
L 580.503863 525.102042 
L 581.74212 523.813149 
L 582.980377 523.750454 
L 584.218634 524.236639 
L 585.456892 525.172924 
L 586.695149 527.082774 
L 589.171663 533.118717 
L 590.409921 534.926194 
L 591.648178 534.768965 
L 592.886435 532.91077 
L 594.124693 530.244692 
L 595.36295 528.002471 
L 596.601207 527.120936 
L 597.839464 527.638054 
L 599.077722 528.996339 
L 601.554236 532.016056 
L 604.030751 534.585185 
L 605.269008 536.076966 
L 606.507265 537.359954 
L 607.745523 537.962569 
L 608.98378 537.638304 
L 610.222037 536.259233 
L 611.460294 533.837555 
L 613.936809 527.543602 
L 615.175066 525.308147 
L 616.413323 524.966144 
L 617.651581 526.661194 
L 618.889838 529.787282 
L 622.60461 541.188664 
L 623.842867 544.127318 
L 625.081124 546.207393 
L 626.319382 547.232915 
L 627.557639 547.252694 
L 628.795896 546.867441 
L 630.034153 546.831746 
L 631.272411 547.322926 
L 634.987182 549.271544 
L 636.22544 550.438397 
L 637.463697 551.886526 
L 638.701954 553.100948 
L 639.940211 553.833945 
L 641.178469 553.936043 
L 642.416726 552.94017 
L 643.654983 550.337136 
L 644.893241 546.180229 
L 646.131498 541.354988 
L 647.369755 537.193919 
L 648.608012 534.552436 
L 649.84627 533.339813 
L 652.322784 532.47785 
L 653.561041 531.438843 
L 656.037556 527.997162 
L 657.275813 526.681481 
L 659.752328 524.95606 
L 660.990585 523.458896 
L 662.228842 520.642334 
L 664.705357 512.89393 
L 665.943614 510.566474 
L 667.181871 510.265087 
L 669.658386 512.394003 
L 670.896643 512.43044 
L 672.1349 511.353625 
L 673.373158 509.383715 
L 674.611415 506.694418 
L 677.087929 500.573672 
L 678.326187 497.905217 
L 679.564444 495.945576 
L 680.802701 495.152513 
L 682.040959 495.63208 
L 683.279216 497.056991 
L 684.517473 499.361261 
L 685.75573 502.744234 
L 686.993988 506.642877 
L 688.232245 509.535716 
L 689.470502 510.313451 
L 690.708759 509.180631 
L 691.947017 506.853775 
L 693.185274 503.552453 
L 694.423531 499.206094 
L 696.900046 489.505723 
L 698.138303 485.395094 
L 699.37656 481.849329 
L 700.614818 478.956794 
L 701.853075 476.906796 
L 705.567847 472.339542 
L 706.806104 470.161702 
L 708.044361 466.979279 
L 710.520876 458.489724 
L 711.759133 456.116901 
L 712.99739 456.465922 
L 714.235648 458.930213 
L 717.950419 469.502398 
L 719.188677 473.277753 
L 722.903448 486.057708 
L 724.141706 488.677734 
L 725.379963 489.082807 
L 726.61822 487.447048 
L 727.856477 485.12607 
L 729.094735 483.914478 
L 730.332992 484.627267 
L 731.571249 486.389162 
L 732.809507 487.509537 
L 734.047764 486.713703 
L 735.286021 483.688551 
L 736.524278 479.343167 
L 737.762536 475.71141 
L 739.000793 474.663611 
L 740.23905 476.325631 
L 741.477307 479.217344 
L 742.715565 481.66535 
L 743.953822 482.876716 
L 745.192079 483.181501 
L 746.430336 483.294609 
L 747.668594 483.546418 
L 748.906851 484.159045 
L 750.145108 485.544785 
L 751.383366 487.852423 
L 752.621623 490.52874 
L 753.85988 492.537927 
L 755.098137 493.141132 
L 756.336395 492.302194 
L 757.574652 490.387875 
L 758.812909 488.054011 
L 760.051166 486.303774 
L 761.289424 485.974522 
L 762.527681 487.181137 
L 763.765938 489.582556 
L 765.004195 492.995994 
L 766.242453 497.521306 
L 767.48071 503.17199 
L 769.957225 515.263516 
L 771.195482 519.218001 
L 772.433739 520.198687 
L 773.671996 518.158999 
L 776.148511 510.58656 
L 777.386768 508.257725 
L 778.625025 508.062649 
L 779.863283 509.758388 
L 781.10154 512.541003 
L 782.339797 515.601001 
L 783.578054 518.069438 
L 784.816312 519.07656 
L 786.054569 518.531562 
L 787.292826 517.508186 
L 788.531084 517.403865 
L 789.769341 518.695406 
L 792.245855 522.66403 
L 797.198884 529.468379 
L 798.437142 531.047115 
L 799.675399 532.165297 
L 802.151914 533.501768 
L 803.390171 534.889448 
L 804.628428 536.815889 
L 805.866685 538.453418 
L 807.104943 538.950377 
L 808.3432 537.898025 
L 809.581457 535.453098 
L 810.819714 532.412287 
L 812.057972 530.132289 
L 813.296229 529.768404 
L 814.534486 531.364962 
L 817.011001 536.227921 
L 818.249258 537.719582 
L 819.487515 538.44434 
L 821.96403 539.314648 
L 824.440544 540.498238 
L 825.678802 540.901163 
L 826.917059 541.003686 
L 828.155316 540.744185 
L 829.393573 540.224606 
L 830.631831 539.836806 
L 831.870088 540.009246 
L 833.108345 540.518517 
L 834.346602 540.471546 
L 835.58486 539.391013 
L 836.823117 537.965055 
L 838.061374 537.361109 
L 839.299632 537.992185 
L 844.252661 543.021116 
L 845.490918 544.023714 
L 846.729175 544.637482 
L 849.20569 545.386151 
L 851.682204 546.680824 
L 852.920461 546.444367 
L 854.158719 544.86473 
L 855.396976 542.061607 
L 857.873491 535.259513 
L 859.111748 532.810271 
L 860.350005 531.910785 
L 861.588262 532.90886 
L 862.82652 535.462521 
L 864.064777 538.411941 
L 865.303034 540.532451 
L 866.541291 541.272707 
L 867.779549 540.633127 
L 870.256063 537.332576 
L 871.49432 536.413793 
L 872.732578 536.637655 
L 873.970835 537.929287 
L 875.209092 539.940932 
L 877.685607 544.251307 
L 878.923864 545.758254 
L 880.162121 546.42694 
L 881.400379 546.184212 
L 882.638636 545.231945 
L 883.876893 543.773324 
L 885.11515 541.660769 
L 886.353408 538.716858 
L 887.591665 535.362167 
L 888.829922 532.494422 
L 890.06818 530.866174 
L 891.306437 530.807272 
L 892.544694 532.22195 
L 895.021209 536.835676 
L 896.259466 538.341613 
L 897.497723 538.780804 
L 898.73598 538.375649 
L 901.212495 536.681081 
L 902.450752 536.046889 
L 903.689009 535.606611 
L 904.927267 535.322728 
L 906.165524 535.259354 
L 908.642039 535.388231 
L 909.880296 535.708304 
L 911.118553 536.676459 
L 912.35681 538.387663 
L 913.595068 540.312951 
L 914.833325 541.48074 
L 916.071582 541.303652 
L 918.548097 538.933393 
L 919.786354 538.199388 
L 921.024611 537.868106 
L 922.262868 537.805192 
L 923.501126 537.917554 
L 924.739383 537.868876 
L 925.97764 537.61542 
L 927.215898 537.684772 
L 928.454155 538.123837 
L 929.692412 538.079812 
L 930.930669 536.890743 
L 932.168927 534.64905 
L 934.645441 529.260761 
L 935.883698 528.117144 
L 937.121956 528.920934 
L 939.59847 533.168699 
L 940.836727 534.54829 
L 942.074985 534.892171 
L 943.313242 534.587909 
L 944.551499 534.15891 
L 945.789757 533.890819 
L 947.028014 533.935619 
L 948.266271 534.469417 
L 949.504528 535.584979 
L 950.742786 536.927585 
L 951.981043 537.719014 
L 953.2193 537.350102 
L 954.457557 535.848133 
L 955.695815 533.933212 
L 956.934072 532.46737 
L 958.172329 531.740645 
L 959.410586 531.626035 
L 961.887101 532.268071 
L 963.125358 531.954691 
L 964.363616 530.800707 
L 965.601873 529.32966 
L 966.84013 528.330933 
L 968.078387 528.096307 
L 969.316645 528.368212 
L 970.554902 528.919316 
L 973.031416 530.454104 
L 974.269674 530.38459 
L 975.507931 528.425322 
L 976.746188 524.172933 
L 977.984446 518.680539 
L 979.222703 513.779261 
L 980.46096 510.530181 
L 981.699217 508.83861 
L 982.937475 508.408892 
L 984.175732 509.328102 
L 985.413989 511.554991 
L 986.652246 514.322413 
L 987.890504 516.441245 
L 989.128761 517.183563 
L 990.367018 516.814837 
L 991.605275 516.195313 
L 992.843533 515.818438 
L 994.08179 515.645746 
L 995.320047 515.879628 
L 996.558305 517.15786 
L 997.796562 519.819316 
L 999.034819 523.225678 
L 1000.273076 525.910912 
L 1001.511334 526.678829 
L 1002.749591 525.550952 
L 1003.987848 523.526657 
L 1005.226105 521.829145 
L 1006.464363 521.292574 
L 1007.70262 521.92084 
L 1012.655649 526.781154 
L 1013.893906 527.742361 
L 1015.132164 528.517521 
L 1016.370421 529.038784 
L 1017.608678 529.212279 
L 1018.846935 528.655619 
L 1020.085193 526.861007 
L 1021.32345 523.822932 
L 1022.561707 520.290302 
L 1023.799964 517.204071 
L 1025.038222 515.04942 
L 1026.276479 513.858188 
L 1027.514736 513.617768 
L 1028.752993 514.35692 
L 1032.467765 518.635917 
L 1033.706023 519.517989 
L 1034.94428 520.070541 
L 1036.182537 520.241917 
L 1037.420794 519.548846 
L 1038.659052 517.326767 
L 1039.897309 513.364679 
L 1042.373823 502.898274 
L 1043.612081 498.351509 
L 1044.850338 494.655416 
L 1046.088595 491.883455 
L 1047.326852 490.755803 
L 1048.56511 491.97569 
L 1049.803367 495.421142 
L 1051.041624 500.065877 
L 1052.279882 504.274775 
L 1053.518139 506.52198 
L 1054.756396 506.39809 
L 1057.232911 503.608845 
L 1058.471168 503.118112 
L 1059.709425 503.047515 
L 1060.947682 502.676069 
L 1063.424197 500.918786 
L 1064.662454 500.951472 
L 1065.900711 502.274357 
L 1067.138969 504.296204 
L 1068.377226 505.842434 
L 1069.615483 506.316803 
L 1070.853741 506.259226 
L 1072.091998 506.622273 
L 1073.330255 507.799727 
L 1077.045027 513.002434 
L 1081.998056 518.262998 
L 1083.236313 518.557634 
L 1084.474571 517.456655 
L 1088.189342 511.064644 
L 1089.4276 509.368002 
L 1090.665857 507.953162 
L 1093.142371 505.529811 
L 1094.380629 503.678234 
L 1096.857143 499.248693 
L 1098.0954 496.515636 
L 1099.333658 492.674871 
L 1103.04843 478.588202 
L 1104.286687 475.173857 
L 1105.524944 472.60852 
L 1106.763201 470.999848 
L 1109.239716 469.651945 
L 1110.477973 467.849395 
L 1111.71623 464.404719 
L 1112.954488 459.681209 
L 1116.669259 443.507977 
L 1117.907517 439.157907 
L 1119.145774 436.323923 
L 1121.622289 433.48772 
L 1122.860546 430.865169 
L 1124.098803 426.458994 
L 1125.33706 421.048844 
L 1126.575318 416.392236 
L 1127.813575 414.071323 
L 1129.051832 414.234122 
L 1130.290089 415.729098 
L 1132.766604 419.034479 
L 1134.004861 419.863701 
L 1135.243118 418.699961 
L 1136.481376 414.448878 
L 1137.719633 407.054804 
L 1140.196148 388.759642 
L 1141.434405 382.30934 
L 1142.672662 379.392708 
L 1143.910919 379.153928 
L 1145.149177 379.672014 
L 1146.387434 379.301615 
L 1147.625691 377.536469 
L 1148.863948 375.379637 
L 1150.102206 374.591583 
L 1151.340463 375.820756 
L 1152.57872 377.790659 
L 1153.816977 378.858227 
L 1155.055235 378.875708 
L 1156.293492 379.007341 
L 1157.531749 380.087728 
L 1158.770007 381.421804 
L 1160.008264 381.192563 
L 1161.246521 378.209989 
L 1163.723036 368.418394 
L 1164.961293 365.497426 
L 1166.19955 364.960511 
L 1167.437807 366.591738 
L 1168.676065 370.20938 
L 1169.914322 375.572339 
L 1172.390837 388.081441 
L 1173.629094 393.236364 
L 1174.867351 396.843799 
L 1176.105608 398.583895 
L 1177.343866 398.649511 
L 1178.582123 397.870027 
L 1179.82038 397.324425 
L 1181.058637 397.94798 
L 1182.296895 399.987166 
L 1183.535152 402.614701 
L 1184.773409 404.643594 
L 1186.011666 405.534577 
L 1187.249924 405.378432 
L 1188.488181 404.214747 
L 1189.726438 402.009938 
L 1190.964696 399.37212 
L 1192.202953 397.404513 
L 1193.44121 396.872191 
L 1194.679467 397.96176 
L 1197.155982 402.198124 
L 1198.394239 403.373918 
L 1199.632496 403.546416 
L 1200.870754 402.902674 
L 1202.109011 402.010307 
L 1203.347268 402.025034 
L 1204.585525 404.093042 
L 1205.823783 408.485432 
L 1208.300297 420.272049 
L 1209.538555 424.305375 
L 1210.776812 424.973441 
L 1212.015069 421.982647 
L 1213.253326 416.351203 
L 1214.491584 409.873095 
L 1215.729841 404.099935 
L 1218.206355 394.759376 
L 1219.444613 390.133585 
L 1220.68287 386.016499 
L 1221.921127 383.541866 
L 1223.159384 383.114157 
L 1224.397642 383.648555 
L 1225.635899 383.161708 
L 1226.874156 380.106708 
L 1228.112414 374.377047 
L 1231.827185 353.0862 
L 1233.065443 347.158392 
L 1234.3037 343.431538 
L 1235.541957 344.12677 
L 1236.780214 349.850753 
L 1240.494986 375.160715 
L 1242.971501 390.110565 
L 1244.209758 396.331051 
L 1245.448015 400.3311 
L 1246.686273 402.249306 
L 1247.92453 403.203738 
L 1249.162787 404.46068 
L 1250.401044 406.826408 
L 1251.639302 410.501336 
L 1252.877559 415.190087 
L 1256.592331 430.843149 
L 1259.068845 442.060799 
L 1260.307103 446.770958 
L 1261.54536 449.228247 
L 1262.783617 449.155311 
L 1264.021874 447.726 
L 1265.260132 446.627399 
L 1266.498389 446.499351 
L 1267.736646 446.546575 
L 1268.974903 446.043747 
L 1270.213161 445.372176 
L 1272.689675 444.807623 
L 1273.927932 443.883307 
L 1275.16619 442.102962 
L 1276.404447 439.57273 
L 1277.642704 436.017898 
L 1280.119219 426.643545 
L 1281.357476 423.467078 
L 1282.595733 423.137238 
L 1283.833991 425.921141 
L 1287.548762 440.288663 
L 1288.78702 443.4391 
L 1290.025277 444.360234 
L 1291.263534 442.462355 
L 1292.501791 437.876184 
L 1296.216563 419.383014 
L 1297.454821 416.135333 
L 1298.693078 415.391842 
L 1299.931335 416.667423 
L 1301.169592 419.185281 
L 1302.40785 422.492471 
L 1306.122621 434.23161 
L 1307.360879 436.004521 
L 1308.599136 435.565822 
L 1309.837393 433.139179 
L 1311.07565 429.547282 
L 1312.313908 426.373492 
L 1313.552165 425.203758 
L 1314.790422 426.191052 
L 1318.505194 432.317586 
L 1319.743451 433.614409 
L 1320.981709 433.837833 
L 1322.219966 432.621578 
L 1323.458223 429.883135 
L 1324.69648 425.695589 
L 1325.934738 419.998136 
L 1327.172995 412.570494 
L 1329.649509 395.611867 
L 1330.887767 389.841594 
L 1332.126024 388.044229 
L 1333.364281 390.734871 
L 1334.602539 396.977367 
L 1335.840796 404.594047 
L 1337.079053 411.379461 
L 1338.31731 415.963498 
L 1339.555568 418.131649 
L 1340.793825 418.790194 
L 1342.032082 419.146079 
L 1345.746854 420.821072 
L 1346.985111 421.841189 
L 1348.223368 423.862921 
L 1349.461626 426.488814 
L 1350.699883 428.781802 
L 1353.176398 431.835559 
L 1354.414655 434.107789 
L 1356.891169 439.789658 
L 1358.129427 441.339475 
L 1359.367684 441.361338 
L 1360.605941 440.069058 
L 1361.844198 437.802871 
L 1364.320713 431.613725 
L 1366.797228 425.481098 
L 1368.035485 421.895111 
L 1369.273742 416.386859 
L 1370.511999 408.068225 
L 1371.750257 397.14347 
L 1375.465028 359.931336 
L 1377.941543 338.41826 
L 1379.1798 328.518556 
L 1380.418057 319.999671 
L 1381.656315 314.603274 
L 1382.894572 313.988607 
L 1384.132829 317.926002 
L 1385.371087 323.087599 
L 1386.609344 324.940999 
L 1387.847601 321.373761 
L 1389.085858 313.962981 
L 1390.324116 305.86464 
L 1395.277145 277.409265 
L 1396.515402 270.155934 
L 1397.753659 264.516727 
L 1398.991916 260.530908 
L 1401.468431 254.62577 
L 1402.706688 250.050224 
L 1403.944946 242.567799 
L 1406.42146 223.01788 
L 1407.659717 217.873945 
L 1408.897975 218.779757 
L 1410.136232 223.149194 
L 1411.374489 226.533797 
L 1412.612746 226.429152 
L 1413.851004 223.980073 
L 1415.089261 222.696439 
L 1416.327518 224.822004 
L 1417.565775 228.781763 
L 1418.804033 230.875619 
L 1420.04229 228.975659 
L 1421.280547 224.310441 
L 1422.518805 220.655769 
L 1423.757062 221.63547 
L 1424.995319 227.965866 
L 1428.710091 256.804598 
L 1429.948348 264.105826 
L 1431.186605 269.665641 
L 1432.424863 273.533417 
L 1433.66312 275.065989 
L 1434.901377 273.352615 
L 1437.377892 263.82455 
L 1438.616149 261.710996 
L 1439.854406 263.982348 
L 1441.092664 268.843107 
L 1442.330921 272.849815 
L 1443.569178 274.082113 
L 1444.807435 272.963206 
L 1447.28395 268.661434 
L 1448.522207 267.634424 
L 1449.760464 268.585833 
L 1452.236979 274.479463 
L 1453.475236 275.017128 
L 1454.713494 271.754888 
L 1455.951751 265.389472 
L 1457.190008 257.862542 
L 1458.428265 251.119462 
L 1459.666523 246.734746 
L 1460.90478 246.285472 
L 1462.143037 250.868183 
L 1463.381294 260.051838 
L 1467.096066 295.016171 
L 1470.810838 320.82481 
L 1474.52561 353.761578 
L 1475.763867 361.614852 
L 1477.002124 366.32668 
L 1478.240382 368.282833 
L 1479.478639 368.520422 
L 1480.716896 367.892418 
L 1481.955153 366.09814 
L 1483.193411 361.726702 
L 1484.431668 353.735548 
L 1486.908182 331.167957 
L 1489.384697 309.439782 
L 1490.622954 299.725293 
L 1491.861212 291.516719 
L 1493.099469 285.499192 
L 1494.337726 281.828846 
L 1495.575983 280.428787 
L 1496.814241 280.912896 
L 1499.290755 283.815872 
L 1500.529012 284.736479 
L 1503.005527 285.91768 
L 1504.243784 286.799517 
L 1505.482041 288.403636 
L 1506.720299 291.074958 
L 1507.958556 295.022252 
L 1509.196813 300.088481 
L 1512.911585 317.234776 
L 1516.626357 335.475726 
L 1517.864614 339.751034 
L 1519.102871 341.922295 
L 1520.341129 341.856119 
L 1521.579386 339.807193 
L 1524.0559 333.961552 
L 1525.294158 332.533478 
L 1526.532415 333.341137 
L 1527.770672 336.978349 
L 1529.00893 342.988903 
L 1530.247187 349.66665 
L 1531.485444 355.238634 
L 1532.723701 359.022539 
L 1533.961959 361.373161 
L 1535.200216 362.751019 
L 1536.438473 362.663099 
L 1537.67673 359.973212 
L 1540.153245 349.190691 
L 1541.391502 346.041655 
L 1542.62976 347.312577 
L 1543.868017 352.769058 
L 1545.106274 359.415325 
L 1546.344531 363.530358 
L 1547.582789 363.619783 
L 1548.821046 360.766616 
L 1550.059303 357.06477 
L 1551.29756 354.601912 
L 1552.535818 354.786532 
L 1553.774075 357.423293 
L 1556.250589 364.148325 
L 1557.488847 367.519355 
L 1558.727104 372.659901 
L 1559.965361 380.854339 
L 1562.441876 401.195682 
L 1563.680133 407.503303 
L 1564.91839 409.122254 
L 1566.156648 407.043726 
L 1567.394905 403.623523 
L 1568.633162 401.037209 
L 1569.871419 400.364581 
L 1571.109677 401.958391 
L 1572.347934 405.872098 
L 1574.824448 417.61874 
L 1576.062706 421.299472 
L 1577.300963 420.896455 
L 1578.53922 416.892752 
L 1579.777478 411.771945 
L 1581.015735 408.376311 
L 1582.253992 408.425195 
L 1583.492249 412.369808 
L 1584.730507 419.602481 
L 1585.968764 428.251748 
L 1587.207021 435.681973 
L 1588.445278 439.671566 
L 1589.683536 439.177496 
L 1590.921793 434.760751 
L 1592.16005 428.535848 
L 1593.398307 423.237209 
L 1594.636565 420.953254 
L 1595.874822 422.004109 
L 1597.113079 424.967276 
L 1600.827851 434.794568 
L 1602.066108 437.151219 
L 1603.304366 437.686909 
L 1604.542623 435.983968 
L 1607.019137 430.253289 
L 1609.495652 426.320723 
L 1610.733909 423.307838 
L 1611.972166 419.10866 
L 1613.210424 413.833242 
L 1615.686938 401.1307 
L 1616.925196 393.97565 
L 1618.163453 385.935827 
L 1619.40171 376.932168 
L 1620.639967 366.707473 
L 1623.116482 342.480397 
L 1624.354739 329.797426 
L 1625.592996 315.93064 
L 1626.831254 298.315942 
L 1628.069511 275.107753 
L 1633.02254 163.615271 
L 1634.260797 143.300004 
L 1635.499055 127.877483 
L 1636.737312 116.772873 
L 1637.975569 107.313715 
L 1639.213826 94.723751 
L 1640.452084 74.751084 
L 1641.690341 47.979282 
L 1641.690341 47.979282 
" style="fill:none;stroke:#008000;stroke-linecap:square;stroke-width:1.5;"/>
   </g>
   <g id="patch_3">
    <path d="M 43.78125 586.86358 
L 43.78125 22.318125 
" style="fill:none;stroke:#000000;stroke-linecap:square;stroke-linejoin:miter;stroke-width:0.8;"/>
   </g>
   <g id="patch_4">
    <path d="M 1717.78125 586.86358 
L 1717.78125 22.318125 
" style="fill:none;stroke:#000000;stroke-linecap:square;stroke-linejoin:miter;stroke-width:0.8;"/>
   </g>
   <g id="patch_5">
    <path d="M 43.78125 586.86358 
L 1717.78125 586.86358 
" style="fill:none;stroke:#000000;stroke-linecap:square;stroke-linejoin:miter;stroke-width:0.8;"/>
   </g>
   <g id="patch_6">
    <path d="M 43.78125 22.318125 
L 1717.78125 22.318125 
" style="fill:none;stroke:#000000;stroke-linecap:square;stroke-linejoin:miter;stroke-width:0.8;"/>
   </g>
   <g id="text_16">
    <!-- before binarisation -->
    <g transform="translate(824.1825 16.318125)scale(0.12 -0.12)">
     <defs>
      <path d="M 3116 1747 
Q 3116 2381 2855 2742 
Q 2594 3103 2138 3103 
Q 1681 3103 1420 2742 
Q 1159 2381 1159 1747 
Q 1159 1113 1420 752 
Q 1681 391 2138 391 
Q 2594 391 2855 752 
Q 3116 1113 3116 1747 
z
M 1159 2969 
Q 1341 3281 1617 3432 
Q 1894 3584 2278 3584 
Q 2916 3584 3314 3078 
Q 3713 2572 3713 1747 
Q 3713 922 3314 415 
Q 2916 -91 2278 -91 
Q 1894 -91 1617 61 
Q 1341 213 1159 525 
L 1159 0 
L 581 0 
L 581 4863 
L 1159 4863 
L 1159 2969 
z
" id="DejaVuSans-62" transform="scale(0.015625)"/>
      <path d="M 1959 3097 
Q 1497 3097 1228 2736 
Q 959 2375 959 1747 
Q 959 1119 1226 758 
Q 1494 397 1959 397 
Q 2419 397 2687 759 
Q 2956 1122 2956 1747 
Q 2956 2369 2687 2733 
Q 2419 3097 1959 3097 
z
M 1959 3584 
Q 2709 3584 3137 3096 
Q 3566 2609 3566 1747 
Q 3566 888 3137 398 
Q 2709 -91 1959 -91 
Q 1206 -91 779 398 
Q 353 888 353 1747 
Q 353 2609 779 3096 
Q 1206 3584 1959 3584 
z
" id="DejaVuSans-6f" transform="scale(0.015625)"/>
      <path id="DejaVuSans-20" transform="scale(0.015625)"/>
      <path d="M 603 3500 
L 1178 3500 
L 1178 0 
L 603 0 
L 603 3500 
z
M 603 4863 
L 1178 4863 
L 1178 4134 
L 603 4134 
L 603 4863 
z
" id="DejaVuSans-69" transform="scale(0.015625)"/>
      <path d="M 3513 2113 
L 3513 0 
L 2938 0 
L 2938 2094 
Q 2938 2591 2744 2837 
Q 2550 3084 2163 3084 
Q 1697 3084 1428 2787 
Q 1159 2491 1159 1978 
L 1159 0 
L 581 0 
L 581 3500 
L 1159 3500 
L 1159 2956 
Q 1366 3272 1645 3428 
Q 1925 3584 2291 3584 
Q 2894 3584 3203 3211 
Q 3513 2838 3513 2113 
z
" id="DejaVuSans-6e" transform="scale(0.015625)"/>
      <path d="M 2834 3397 
L 2834 2853 
Q 2591 2978 2328 3040 
Q 2066 3103 1784 3103 
Q 1356 3103 1142 2972 
Q 928 2841 928 2578 
Q 928 2378 1081 2264 
Q 1234 2150 1697 2047 
L 1894 2003 
Q 2506 1872 2764 1633 
Q 3022 1394 3022 966 
Q 3022 478 2636 193 
Q 2250 -91 1575 -91 
Q 1294 -91 989 -36 
Q 684 19 347 128 
L 347 722 
Q 666 556 975 473 
Q 1284 391 1588 391 
Q 1994 391 2212 530 
Q 2431 669 2431 922 
Q 2431 1156 2273 1281 
Q 2116 1406 1581 1522 
L 1381 1569 
Q 847 1681 609 1914 
Q 372 2147 372 2553 
Q 372 3047 722 3315 
Q 1072 3584 1716 3584 
Q 2034 3584 2315 3537 
Q 2597 3491 2834 3397 
z
" id="DejaVuSans-73" transform="scale(0.015625)"/>
      <path d="M 1172 4494 
L 1172 3500 
L 2356 3500 
L 2356 3053 
L 1172 3053 
L 1172 1153 
Q 1172 725 1289 603 
Q 1406 481 1766 481 
L 2356 481 
L 2356 0 
L 1766 0 
Q 1100 0 847 248 
Q 594 497 594 1153 
L 594 3053 
L 172 3053 
L 172 3500 
L 594 3500 
L 594 4494 
L 1172 4494 
z
" id="DejaVuSans-74" transform="scale(0.015625)"/>
     </defs>
     <use xlink:href="#DejaVuSans-62"/>
     <use x="63.476562" xlink:href="#DejaVuSans-65"/>
     <use x="125" xlink:href="#DejaVuSans-66"/>
     <use x="160.205078" xlink:href="#DejaVuSans-6f"/>
     <use x="221.386719" xlink:href="#DejaVuSans-72"/>
     <use x="260.25" xlink:href="#DejaVuSans-65"/>
     <use x="321.773438" xlink:href="#DejaVuSans-20"/>
     <use x="353.560547" xlink:href="#DejaVuSans-62"/>
     <use x="417.037109" xlink:href="#DejaVuSans-69"/>
     <use x="444.820312" xlink:href="#DejaVuSans-6e"/>
     <use x="508.199219" xlink:href="#DejaVuSans-61"/>
     <use x="569.478516" xlink:href="#DejaVuSans-72"/>
     <use x="610.591797" xlink:href="#DejaVuSans-69"/>
     <use x="638.375" xlink:href="#DejaVuSans-73"/>
     <use x="690.474609" xlink:href="#DejaVuSans-61"/>
     <use x="751.753906" xlink:href="#DejaVuSans-74"/>
     <use x="790.962891" xlink:href="#DejaVuSans-69"/>
     <use x="818.746094" xlink:href="#DejaVuSans-6f"/>
     <use x="879.927734" xlink:href="#DejaVuSans-6e"/>
    </g>
   </g>
  </g>
  <g id="axes_2">
   <g id="patch_7">
    <path d="M 43.78125 1264.318125 
L 1717.78125 1264.318125 
L 1717.78125 699.77267 
L 43.78125 699.77267 
z
" style="fill:#ffffff;"/>
   </g>
   <g id="matplotlib.axis_3">
    <g id="xtick_8">
     <g id="line2d_15">
      <g>
       <use style="stroke:#000000;stroke-width:0.8;" x="119.872159" xlink:href="#m2ec1b6ba9b" y="1264.318125"/>
      </g>
     </g>
     <g id="text_17">
      <!-- 0 -->
      <g transform="translate(116.690909 1278.916563)scale(0.1 -0.1)">
       <use xlink:href="#DejaVuSans-30"/>
      </g>
     </g>
    </g>
    <g id="xtick_9">
     <g id="line2d_16">
      <g>
       <use style="stroke:#000000;stroke-width:0.8;" x="367.523613" xlink:href="#m2ec1b6ba9b" y="1264.318125"/>
      </g>
     </g>
     <g id="text_18">
      <!-- 200 -->
      <g transform="translate(357.979863 1278.916563)scale(0.1 -0.1)">
       <use xlink:href="#DejaVuSans-32"/>
       <use x="63.623047" xlink:href="#DejaVuSans-30"/>
       <use x="127.246094" xlink:href="#DejaVuSans-30"/>
      </g>
     </g>
    </g>
    <g id="xtick_10">
     <g id="line2d_17">
      <g>
       <use style="stroke:#000000;stroke-width:0.8;" x="615.175066" xlink:href="#m2ec1b6ba9b" y="1264.318125"/>
      </g>
     </g>
     <g id="text_19">
      <!-- 400 -->
      <g transform="translate(605.631316 1278.916563)scale(0.1 -0.1)">
       <use xlink:href="#DejaVuSans-34"/>
       <use x="63.623047" xlink:href="#DejaVuSans-30"/>
       <use x="127.246094" xlink:href="#DejaVuSans-30"/>
      </g>
     </g>
    </g>
    <g id="xtick_11">
     <g id="line2d_18">
      <g>
       <use style="stroke:#000000;stroke-width:0.8;" x="862.82652" xlink:href="#m2ec1b6ba9b" y="1264.318125"/>
      </g>
     </g>
     <g id="text_20">
      <!-- 600 -->
      <g transform="translate(853.28277 1278.916563)scale(0.1 -0.1)">
       <use xlink:href="#DejaVuSans-36"/>
       <use x="63.623047" xlink:href="#DejaVuSans-30"/>
       <use x="127.246094" xlink:href="#DejaVuSans-30"/>
      </g>
     </g>
    </g>
    <g id="xtick_12">
     <g id="line2d_19">
      <g>
       <use style="stroke:#000000;stroke-width:0.8;" x="1110.477973" xlink:href="#m2ec1b6ba9b" y="1264.318125"/>
      </g>
     </g>
     <g id="text_21">
      <!-- 800 -->
      <g transform="translate(1100.934223 1278.916563)scale(0.1 -0.1)">
       <use xlink:href="#DejaVuSans-38"/>
       <use x="63.623047" xlink:href="#DejaVuSans-30"/>
       <use x="127.246094" xlink:href="#DejaVuSans-30"/>
      </g>
     </g>
    </g>
    <g id="xtick_13">
     <g id="line2d_20">
      <g>
       <use style="stroke:#000000;stroke-width:0.8;" x="1358.129427" xlink:href="#m2ec1b6ba9b" y="1264.318125"/>
      </g>
     </g>
     <g id="text_22">
      <!-- 1000 -->
      <g transform="translate(1345.404427 1278.916563)scale(0.1 -0.1)">
       <use xlink:href="#DejaVuSans-31"/>
       <use x="63.623047" xlink:href="#DejaVuSans-30"/>
       <use x="127.246094" xlink:href="#DejaVuSans-30"/>
       <use x="190.869141" xlink:href="#DejaVuSans-30"/>
      </g>
     </g>
    </g>
    <g id="xtick_14">
     <g id="line2d_21">
      <g>
       <use style="stroke:#000000;stroke-width:0.8;" x="1605.78088" xlink:href="#m2ec1b6ba9b" y="1264.318125"/>
      </g>
     </g>
     <g id="text_23">
      <!-- 1200 -->
      <g transform="translate(1593.05588 1278.916563)scale(0.1 -0.1)">
       <use xlink:href="#DejaVuSans-31"/>
       <use x="63.623047" xlink:href="#DejaVuSans-32"/>
       <use x="127.246094" xlink:href="#DejaVuSans-30"/>
       <use x="190.869141" xlink:href="#DejaVuSans-30"/>
      </g>
     </g>
    </g>
    <g id="text_24">
     <!-- frame -->
     <g transform="translate(865.954687 1292.594688)scale(0.1 -0.1)">
      <use xlink:href="#DejaVuSans-66"/>
      <use x="35.205078" xlink:href="#DejaVuSans-72"/>
      <use x="76.318359" xlink:href="#DejaVuSans-61"/>
      <use x="137.597656" xlink:href="#DejaVuSans-6d"/>
      <use x="235.009766" xlink:href="#DejaVuSans-65"/>
     </g>
    </g>
   </g>
   <g id="matplotlib.axis_4">
    <g id="ytick_7">
     <g id="line2d_22">
      <g>
       <use style="stroke:#000000;stroke-width:0.8;" x="43.78125" xlink:href="#md192f6a5d1" y="1238.656968"/>
      </g>
     </g>
     <g id="text_25">
      <!-- 0.0 -->
      <g transform="translate(20.878125 1242.456187)scale(0.1 -0.1)">
       <defs>
        <path d="M 684 794 
L 1344 794 
L 1344 0 
L 684 0 
L 684 794 
z
" id="DejaVuSans-2e" transform="scale(0.015625)"/>
       </defs>
       <use xlink:href="#DejaVuSans-30"/>
       <use x="63.623047" xlink:href="#DejaVuSans-2e"/>
       <use x="95.410156" xlink:href="#DejaVuSans-30"/>
      </g>
     </g>
    </g>
    <g id="ytick_8">
     <g id="line2d_23">
      <g>
       <use style="stroke:#000000;stroke-width:0.8;" x="43.78125" xlink:href="#md192f6a5d1" y="1136.01234"/>
      </g>
     </g>
     <g id="text_26">
      <!-- 0.2 -->
      <g transform="translate(20.878125 1139.811559)scale(0.1 -0.1)">
       <use xlink:href="#DejaVuSans-30"/>
       <use x="63.623047" xlink:href="#DejaVuSans-2e"/>
       <use x="95.410156" xlink:href="#DejaVuSans-32"/>
      </g>
     </g>
    </g>
    <g id="ytick_9">
     <g id="line2d_24">
      <g>
       <use style="stroke:#000000;stroke-width:0.8;" x="43.78125" xlink:href="#md192f6a5d1" y="1033.367712"/>
      </g>
     </g>
     <g id="text_27">
      <!-- 0.4 -->
      <g transform="translate(20.878125 1037.166931)scale(0.1 -0.1)">
       <use xlink:href="#DejaVuSans-30"/>
       <use x="63.623047" xlink:href="#DejaVuSans-2e"/>
       <use x="95.410156" xlink:href="#DejaVuSans-34"/>
      </g>
     </g>
    </g>
    <g id="ytick_10">
     <g id="line2d_25">
      <g>
       <use style="stroke:#000000;stroke-width:0.8;" x="43.78125" xlink:href="#md192f6a5d1" y="930.723084"/>
      </g>
     </g>
     <g id="text_28">
      <!-- 0.6 -->
      <g transform="translate(20.878125 934.522302)scale(0.1 -0.1)">
       <use xlink:href="#DejaVuSans-30"/>
       <use x="63.623047" xlink:href="#DejaVuSans-2e"/>
       <use x="95.410156" xlink:href="#DejaVuSans-36"/>
      </g>
     </g>
    </g>
    <g id="ytick_11">
     <g id="line2d_26">
      <g>
       <use style="stroke:#000000;stroke-width:0.8;" x="43.78125" xlink:href="#md192f6a5d1" y="828.078456"/>
      </g>
     </g>
     <g id="text_29">
      <!-- 0.8 -->
      <g transform="translate(20.878125 831.877674)scale(0.1 -0.1)">
       <use xlink:href="#DejaVuSans-30"/>
       <use x="63.623047" xlink:href="#DejaVuSans-2e"/>
       <use x="95.410156" xlink:href="#DejaVuSans-38"/>
      </g>
     </g>
    </g>
    <g id="ytick_12">
     <g id="line2d_27">
      <g>
       <use style="stroke:#000000;stroke-width:0.8;" x="43.78125" xlink:href="#md192f6a5d1" y="725.433827"/>
      </g>
     </g>
     <g id="text_30">
      <!-- 1.0 -->
      <g transform="translate(20.878125 729.233046)scale(0.1 -0.1)">
       <use xlink:href="#DejaVuSans-31"/>
       <use x="63.623047" xlink:href="#DejaVuSans-2e"/>
       <use x="95.410156" xlink:href="#DejaVuSans-30"/>
      </g>
     </g>
    </g>
    <g id="text_31">
     <!-- GCaMP -->
     <g transform="translate(14.798437 999.803991)rotate(-90)scale(0.1 -0.1)">
      <use xlink:href="#DejaVuSans-47"/>
      <use x="77.490234" xlink:href="#DejaVuSans-43"/>
      <use x="147.314453" xlink:href="#DejaVuSans-61"/>
      <use x="208.59375" xlink:href="#DejaVuSans-4d"/>
      <use x="294.873047" xlink:href="#DejaVuSans-50"/>
     </g>
    </g>
   </g>
   <g id="line2d_28">
    <path clip-path="url(#pa0477c2a9a)" d="M 119.872159 725.433827 
L 165.687678 725.433827 
L 166.925935 1238.656968 
L 1230.588928 1238.656968 
L 1231.827185 725.433827 
L 1236.780214 725.433827 
L 1238.018472 1238.656968 
L 1375.465028 1238.656968 
L 1376.703286 725.433827 
L 1474.52561 725.433827 
L 1475.763867 1238.656968 
L 1483.193411 1238.656968 
L 1484.431668 725.433827 
L 1530.247187 725.433827 
L 1531.485444 1238.656968 
L 1538.914988 1238.656968 
L 1540.153245 725.433827 
L 1543.868017 725.433827 
L 1545.106274 1238.656968 
L 1621.878225 1238.656968 
L 1623.116482 725.433827 
L 1641.690341 725.433827 
L 1641.690341 725.433827 
" style="fill:none;stroke:#008000;stroke-linecap:square;stroke-width:1.5;"/>
   </g>
   <g id="patch_8">
    <path d="M 43.78125 1264.318125 
L 43.78125 699.77267 
" style="fill:none;stroke:#000000;stroke-linecap:square;stroke-linejoin:miter;stroke-width:0.8;"/>
   </g>
   <g id="patch_9">
    <path d="M 1717.78125 1264.318125 
L 1717.78125 699.77267 
" style="fill:none;stroke:#000000;stroke-linecap:square;stroke-linejoin:miter;stroke-width:0.8;"/>
   </g>
   <g id="patch_10">
    <path d="M 43.78125 1264.318125 
L 1717.78125 1264.318125 
" style="fill:none;stroke:#000000;stroke-linecap:square;stroke-linejoin:miter;stroke-width:0.8;"/>
   </g>
   <g id="patch_11">
    <path d="M 43.78125 699.77267 
L 1717.78125 699.77267 
" style="fill:none;stroke:#000000;stroke-linecap:square;stroke-linejoin:miter;stroke-width:0.8;"/>
   </g>
   <g id="text_32">
    <!-- before binarisation -->
    <g transform="translate(824.1825 693.77267)scale(0.12 -0.12)">
     <use xlink:href="#DejaVuSans-62"/>
     <use x="63.476562" xlink:href="#DejaVuSans-65"/>
     <use x="125" xlink:href="#DejaVuSans-66"/>
     <use x="160.205078" xlink:href="#DejaVuSans-6f"/>
     <use x="221.386719" xlink:href="#DejaVuSans-72"/>
     <use x="260.25" xlink:href="#DejaVuSans-65"/>
     <use x="321.773438" xlink:href="#DejaVuSans-20"/>
     <use x="353.560547" xlink:href="#DejaVuSans-62"/>
     <use x="417.037109" xlink:href="#DejaVuSans-69"/>
     <use x="444.820312" xlink:href="#DejaVuSans-6e"/>
     <use x="508.199219" xlink:href="#DejaVuSans-61"/>
     <use x="569.478516" xlink:href="#DejaVuSans-72"/>
     <use x="610.591797" xlink:href="#DejaVuSans-69"/>
     <use x="638.375" xlink:href="#DejaVuSans-73"/>
     <use x="690.474609" xlink:href="#DejaVuSans-61"/>
     <use x="751.753906" xlink:href="#DejaVuSans-74"/>
     <use x="790.962891" xlink:href="#DejaVuSans-69"/>
     <use x="818.746094" xlink:href="#DejaVuSans-6f"/>
     <use x="879.927734" xlink:href="#DejaVuSans-6e"/>
    </g>
   </g>
  </g>
 </g>
 <defs>
  <clipPath id="p965bc435da">
   <rect height="564.545455" width="1674" x="43.78125" y="22.318125"/>
  </clipPath>
  <clipPath id="pa0477c2a9a">
   <rect height="564.545455" width="1674" x="43.78125" y="699.77267"/>
  </clipPath>
 </defs>
</svg>
