<?xml version="1.0" encoding="utf-8" standalone="no"?>
<!DOCTYPE svg PUBLIC "-//W3C//DTD SVG 1.1//EN"
  "http://www.w3.org/Graphics/SVG/1.1/DTD/svg11.dtd">
<svg height="1301.874375pt" version="1.1" viewBox="0 0 1724.98125 1301.874375" width="1724.98125pt" xmlns="http://www.w3.org/2000/svg" xmlns:xlink="http://www.w3.org/1999/xlink">
 <metadata>
  <rdf:RDF xmlns:cc="http://creativecommons.org/ns#" xmlns:dc="http://purl.org/dc/elements/1.1/" xmlns:rdf="http://www.w3.org/1999/02/22-rdf-syntax-ns#">
   <cc:Work>
    <dc:type rdf:resource="http://purl.org/dc/dcmitype/StillImage"/>
    <dc:date>2022-07-24T15:54:32.025384</dc:date>
    <dc:format>image/svg+xml</dc:format>
    <dc:creator>
     <cc:Agent>
      <dc:title>Matplotlib v3.4.2, https://matplotlib.org/</dc:title>
     </cc:Agent>
    </dc:creator>
   </cc:Work>
  </rdf:RDF>
 </metadata>
 <defs>
  <style type="text/css">*{stroke-linecap:butt;stroke-linejoin:round;}</style>
 </defs>
 <g id="figure_1">
  <g id="patch_1">
   <path d="M 0 1301.874375 
L 1724.98125 1301.874375 
L 1724.98125 0 
L 0 0 
z
" style="fill:#ffffff;"/>
  </g>
  <g id="axes_1">
   <g id="patch_2">
    <path d="M 43.78125 586.86358 
L 1717.78125 586.86358 
L 1717.78125 22.318125 
L 43.78125 22.318125 
z
" style="fill:#ffffff;"/>
   </g>
   <g id="matplotlib.axis_1">
    <g id="xtick_1">
     <g id="line2d_1">
      <defs>
       <path d="M 0 0 
L 0 3.5 
" id="m67454f185d" style="stroke:#000000;stroke-width:0.8;"/>
      </defs>
      <g>
       <use style="stroke:#000000;stroke-width:0.8;" x="119.872159" xlink:href="#m67454f185d" y="586.86358"/>
      </g>
     </g>
     <g id="text_1">
      <!-- 0 -->
      <g transform="translate(116.690909 601.462017)scale(0.1 -0.1)">
       <defs>
        <path d="M 2034 4250 
Q 1547 4250 1301 3770 
Q 1056 3291 1056 2328 
Q 1056 1369 1301 889 
Q 1547 409 2034 409 
Q 2525 409 2770 889 
Q 3016 1369 3016 2328 
Q 3016 3291 2770 3770 
Q 2525 4250 2034 4250 
z
M 2034 4750 
Q 2819 4750 3233 4129 
Q 3647 3509 3647 2328 
Q 3647 1150 3233 529 
Q 2819 -91 2034 -91 
Q 1250 -91 836 529 
Q 422 1150 422 2328 
Q 422 3509 836 4129 
Q 1250 4750 2034 4750 
z
" id="DejaVuSans-30" transform="scale(0.015625)"/>
       </defs>
       <use xlink:href="#DejaVuSans-30"/>
      </g>
     </g>
    </g>
    <g id="xtick_2">
     <g id="line2d_2">
      <g>
       <use style="stroke:#000000;stroke-width:0.8;" x="367.523613" xlink:href="#m67454f185d" y="586.86358"/>
      </g>
     </g>
     <g id="text_2">
      <!-- 200 -->
      <g transform="translate(357.979863 601.462017)scale(0.1 -0.1)">
       <defs>
        <path d="M 1228 531 
L 3431 531 
L 3431 0 
L 469 0 
L 469 531 
Q 828 903 1448 1529 
Q 2069 2156 2228 2338 
Q 2531 2678 2651 2914 
Q 2772 3150 2772 3378 
Q 2772 3750 2511 3984 
Q 2250 4219 1831 4219 
Q 1534 4219 1204 4116 
Q 875 4013 500 3803 
L 500 4441 
Q 881 4594 1212 4672 
Q 1544 4750 1819 4750 
Q 2544 4750 2975 4387 
Q 3406 4025 3406 3419 
Q 3406 3131 3298 2873 
Q 3191 2616 2906 2266 
Q 2828 2175 2409 1742 
Q 1991 1309 1228 531 
z
" id="DejaVuSans-32" transform="scale(0.015625)"/>
       </defs>
       <use xlink:href="#DejaVuSans-32"/>
       <use x="63.623047" xlink:href="#DejaVuSans-30"/>
       <use x="127.246094" xlink:href="#DejaVuSans-30"/>
      </g>
     </g>
    </g>
    <g id="xtick_3">
     <g id="line2d_3">
      <g>
       <use style="stroke:#000000;stroke-width:0.8;" x="615.175066" xlink:href="#m67454f185d" y="586.86358"/>
      </g>
     </g>
     <g id="text_3">
      <!-- 400 -->
      <g transform="translate(605.631316 601.462017)scale(0.1 -0.1)">
       <defs>
        <path d="M 2419 4116 
L 825 1625 
L 2419 1625 
L 2419 4116 
z
M 2253 4666 
L 3047 4666 
L 3047 1625 
L 3713 1625 
L 3713 1100 
L 3047 1100 
L 3047 0 
L 2419 0 
L 2419 1100 
L 313 1100 
L 313 1709 
L 2253 4666 
z
" id="DejaVuSans-34" transform="scale(0.015625)"/>
       </defs>
       <use xlink:href="#DejaVuSans-34"/>
       <use x="63.623047" xlink:href="#DejaVuSans-30"/>
       <use x="127.246094" xlink:href="#DejaVuSans-30"/>
      </g>
     </g>
    </g>
    <g id="xtick_4">
     <g id="line2d_4">
      <g>
       <use style="stroke:#000000;stroke-width:0.8;" x="862.82652" xlink:href="#m67454f185d" y="586.86358"/>
      </g>
     </g>
     <g id="text_4">
      <!-- 600 -->
      <g transform="translate(853.28277 601.462017)scale(0.1 -0.1)">
       <defs>
        <path d="M 2113 2584 
Q 1688 2584 1439 2293 
Q 1191 2003 1191 1497 
Q 1191 994 1439 701 
Q 1688 409 2113 409 
Q 2538 409 2786 701 
Q 3034 994 3034 1497 
Q 3034 2003 2786 2293 
Q 2538 2584 2113 2584 
z
M 3366 4563 
L 3366 3988 
Q 3128 4100 2886 4159 
Q 2644 4219 2406 4219 
Q 1781 4219 1451 3797 
Q 1122 3375 1075 2522 
Q 1259 2794 1537 2939 
Q 1816 3084 2150 3084 
Q 2853 3084 3261 2657 
Q 3669 2231 3669 1497 
Q 3669 778 3244 343 
Q 2819 -91 2113 -91 
Q 1303 -91 875 529 
Q 447 1150 447 2328 
Q 447 3434 972 4092 
Q 1497 4750 2381 4750 
Q 2619 4750 2861 4703 
Q 3103 4656 3366 4563 
z
" id="DejaVuSans-36" transform="scale(0.015625)"/>
       </defs>
       <use xlink:href="#DejaVuSans-36"/>
       <use x="63.623047" xlink:href="#DejaVuSans-30"/>
       <use x="127.246094" xlink:href="#DejaVuSans-30"/>
      </g>
     </g>
    </g>
    <g id="xtick_5">
     <g id="line2d_5">
      <g>
       <use style="stroke:#000000;stroke-width:0.8;" x="1110.477973" xlink:href="#m67454f185d" y="586.86358"/>
      </g>
     </g>
     <g id="text_5">
      <!-- 800 -->
      <g transform="translate(1100.934223 601.462017)scale(0.1 -0.1)">
       <defs>
        <path d="M 2034 2216 
Q 1584 2216 1326 1975 
Q 1069 1734 1069 1313 
Q 1069 891 1326 650 
Q 1584 409 2034 409 
Q 2484 409 2743 651 
Q 3003 894 3003 1313 
Q 3003 1734 2745 1975 
Q 2488 2216 2034 2216 
z
M 1403 2484 
Q 997 2584 770 2862 
Q 544 3141 544 3541 
Q 544 4100 942 4425 
Q 1341 4750 2034 4750 
Q 2731 4750 3128 4425 
Q 3525 4100 3525 3541 
Q 3525 3141 3298 2862 
Q 3072 2584 2669 2484 
Q 3125 2378 3379 2068 
Q 3634 1759 3634 1313 
Q 3634 634 3220 271 
Q 2806 -91 2034 -91 
Q 1263 -91 848 271 
Q 434 634 434 1313 
Q 434 1759 690 2068 
Q 947 2378 1403 2484 
z
M 1172 3481 
Q 1172 3119 1398 2916 
Q 1625 2713 2034 2713 
Q 2441 2713 2670 2916 
Q 2900 3119 2900 3481 
Q 2900 3844 2670 4047 
Q 2441 4250 2034 4250 
Q 1625 4250 1398 4047 
Q 1172 3844 1172 3481 
z
" id="DejaVuSans-38" transform="scale(0.015625)"/>
       </defs>
       <use xlink:href="#DejaVuSans-38"/>
       <use x="63.623047" xlink:href="#DejaVuSans-30"/>
       <use x="127.246094" xlink:href="#DejaVuSans-30"/>
      </g>
     </g>
    </g>
    <g id="xtick_6">
     <g id="line2d_6">
      <g>
       <use style="stroke:#000000;stroke-width:0.8;" x="1358.129427" xlink:href="#m67454f185d" y="586.86358"/>
      </g>
     </g>
     <g id="text_6">
      <!-- 1000 -->
      <g transform="translate(1345.404427 601.462017)scale(0.1 -0.1)">
       <defs>
        <path d="M 794 531 
L 1825 531 
L 1825 4091 
L 703 3866 
L 703 4441 
L 1819 4666 
L 2450 4666 
L 2450 531 
L 3481 531 
L 3481 0 
L 794 0 
L 794 531 
z
" id="DejaVuSans-31" transform="scale(0.015625)"/>
       </defs>
       <use xlink:href="#DejaVuSans-31"/>
       <use x="63.623047" xlink:href="#DejaVuSans-30"/>
       <use x="127.246094" xlink:href="#DejaVuSans-30"/>
       <use x="190.869141" xlink:href="#DejaVuSans-30"/>
      </g>
     </g>
    </g>
    <g id="xtick_7">
     <g id="line2d_7">
      <g>
       <use style="stroke:#000000;stroke-width:0.8;" x="1605.78088" xlink:href="#m67454f185d" y="586.86358"/>
      </g>
     </g>
     <g id="text_7">
      <!-- 1200 -->
      <g transform="translate(1593.05588 601.462017)scale(0.1 -0.1)">
       <use xlink:href="#DejaVuSans-31"/>
       <use x="63.623047" xlink:href="#DejaVuSans-32"/>
       <use x="127.246094" xlink:href="#DejaVuSans-30"/>
       <use x="190.869141" xlink:href="#DejaVuSans-30"/>
      </g>
     </g>
    </g>
    <g id="text_8">
     <!-- frame -->
     <g transform="translate(865.954687 615.140142)scale(0.1 -0.1)">
      <defs>
       <path d="M 2375 4863 
L 2375 4384 
L 1825 4384 
Q 1516 4384 1395 4259 
Q 1275 4134 1275 3809 
L 1275 3500 
L 2222 3500 
L 2222 3053 
L 1275 3053 
L 1275 0 
L 697 0 
L 697 3053 
L 147 3053 
L 147 3500 
L 697 3500 
L 697 3744 
Q 697 4328 969 4595 
Q 1241 4863 1831 4863 
L 2375 4863 
z
" id="DejaVuSans-66" transform="scale(0.015625)"/>
       <path d="M 2631 2963 
Q 2534 3019 2420 3045 
Q 2306 3072 2169 3072 
Q 1681 3072 1420 2755 
Q 1159 2438 1159 1844 
L 1159 0 
L 581 0 
L 581 3500 
L 1159 3500 
L 1159 2956 
Q 1341 3275 1631 3429 
Q 1922 3584 2338 3584 
Q 2397 3584 2469 3576 
Q 2541 3569 2628 3553 
L 2631 2963 
z
" id="DejaVuSans-72" transform="scale(0.015625)"/>
       <path d="M 2194 1759 
Q 1497 1759 1228 1600 
Q 959 1441 959 1056 
Q 959 750 1161 570 
Q 1363 391 1709 391 
Q 2188 391 2477 730 
Q 2766 1069 2766 1631 
L 2766 1759 
L 2194 1759 
z
M 3341 1997 
L 3341 0 
L 2766 0 
L 2766 531 
Q 2569 213 2275 61 
Q 1981 -91 1556 -91 
Q 1019 -91 701 211 
Q 384 513 384 1019 
Q 384 1609 779 1909 
Q 1175 2209 1959 2209 
L 2766 2209 
L 2766 2266 
Q 2766 2663 2505 2880 
Q 2244 3097 1772 3097 
Q 1472 3097 1187 3025 
Q 903 2953 641 2809 
L 641 3341 
Q 956 3463 1253 3523 
Q 1550 3584 1831 3584 
Q 2591 3584 2966 3190 
Q 3341 2797 3341 1997 
z
" id="DejaVuSans-61" transform="scale(0.015625)"/>
       <path d="M 3328 2828 
Q 3544 3216 3844 3400 
Q 4144 3584 4550 3584 
Q 5097 3584 5394 3201 
Q 5691 2819 5691 2113 
L 5691 0 
L 5113 0 
L 5113 2094 
Q 5113 2597 4934 2840 
Q 4756 3084 4391 3084 
Q 3944 3084 3684 2787 
Q 3425 2491 3425 1978 
L 3425 0 
L 2847 0 
L 2847 2094 
Q 2847 2600 2669 2842 
Q 2491 3084 2119 3084 
Q 1678 3084 1418 2786 
Q 1159 2488 1159 1978 
L 1159 0 
L 581 0 
L 581 3500 
L 1159 3500 
L 1159 2956 
Q 1356 3278 1631 3431 
Q 1906 3584 2284 3584 
Q 2666 3584 2933 3390 
Q 3200 3197 3328 2828 
z
" id="DejaVuSans-6d" transform="scale(0.015625)"/>
       <path d="M 3597 1894 
L 3597 1613 
L 953 1613 
Q 991 1019 1311 708 
Q 1631 397 2203 397 
Q 2534 397 2845 478 
Q 3156 559 3463 722 
L 3463 178 
Q 3153 47 2828 -22 
Q 2503 -91 2169 -91 
Q 1331 -91 842 396 
Q 353 884 353 1716 
Q 353 2575 817 3079 
Q 1281 3584 2069 3584 
Q 2775 3584 3186 3129 
Q 3597 2675 3597 1894 
z
M 3022 2063 
Q 3016 2534 2758 2815 
Q 2500 3097 2075 3097 
Q 1594 3097 1305 2825 
Q 1016 2553 972 2059 
L 3022 2063 
z
" id="DejaVuSans-65" transform="scale(0.015625)"/>
      </defs>
      <use xlink:href="#DejaVuSans-66"/>
      <use x="35.205078" xlink:href="#DejaVuSans-72"/>
      <use x="76.318359" xlink:href="#DejaVuSans-61"/>
      <use x="137.597656" xlink:href="#DejaVuSans-6d"/>
      <use x="235.009766" xlink:href="#DejaVuSans-65"/>
     </g>
    </g>
   </g>
   <g id="matplotlib.axis_2">
    <g id="ytick_1">
     <g id="line2d_8">
      <defs>
       <path d="M 0 0 
L -3.5 0 
" id="m6bceec8b7f" style="stroke:#000000;stroke-width:0.8;"/>
      </defs>
      <g>
       <use style="stroke:#000000;stroke-width:0.8;" x="43.78125" xlink:href="#m6bceec8b7f" y="561.202423"/>
      </g>
     </g>
     <g id="text_9">
      <!-- 0 -->
      <g transform="translate(30.41875 565.001641)scale(0.1 -0.1)">
       <use xlink:href="#DejaVuSans-30"/>
      </g>
     </g>
    </g>
    <g id="ytick_2">
     <g id="line2d_9">
      <g>
       <use style="stroke:#000000;stroke-width:0.8;" x="43.78125" xlink:href="#m6bceec8b7f" y="438.352487"/>
      </g>
     </g>
     <g id="text_10">
      <!-- 1 -->
      <g transform="translate(30.41875 442.151706)scale(0.1 -0.1)">
       <use xlink:href="#DejaVuSans-31"/>
      </g>
     </g>
    </g>
    <g id="ytick_3">
     <g id="line2d_10">
      <g>
       <use style="stroke:#000000;stroke-width:0.8;" x="43.78125" xlink:href="#m6bceec8b7f" y="315.502552"/>
      </g>
     </g>
     <g id="text_11">
      <!-- 2 -->
      <g transform="translate(30.41875 319.301771)scale(0.1 -0.1)">
       <use xlink:href="#DejaVuSans-32"/>
      </g>
     </g>
    </g>
    <g id="ytick_4">
     <g id="line2d_11">
      <g>
       <use style="stroke:#000000;stroke-width:0.8;" x="43.78125" xlink:href="#m6bceec8b7f" y="192.652617"/>
      </g>
     </g>
     <g id="text_12">
      <!-- 3 -->
      <g transform="translate(30.41875 196.451836)scale(0.1 -0.1)">
       <defs>
        <path d="M 2597 2516 
Q 3050 2419 3304 2112 
Q 3559 1806 3559 1356 
Q 3559 666 3084 287 
Q 2609 -91 1734 -91 
Q 1441 -91 1130 -33 
Q 819 25 488 141 
L 488 750 
Q 750 597 1062 519 
Q 1375 441 1716 441 
Q 2309 441 2620 675 
Q 2931 909 2931 1356 
Q 2931 1769 2642 2001 
Q 2353 2234 1838 2234 
L 1294 2234 
L 1294 2753 
L 1863 2753 
Q 2328 2753 2575 2939 
Q 2822 3125 2822 3475 
Q 2822 3834 2567 4026 
Q 2313 4219 1838 4219 
Q 1578 4219 1281 4162 
Q 984 4106 628 3988 
L 628 4550 
Q 988 4650 1302 4700 
Q 1616 4750 1894 4750 
Q 2613 4750 3031 4423 
Q 3450 4097 3450 3541 
Q 3450 3153 3228 2886 
Q 3006 2619 2597 2516 
z
" id="DejaVuSans-33" transform="scale(0.015625)"/>
       </defs>
       <use xlink:href="#DejaVuSans-33"/>
      </g>
     </g>
    </g>
    <g id="ytick_5">
     <g id="line2d_12">
      <g>
       <use style="stroke:#000000;stroke-width:0.8;" x="43.78125" xlink:href="#m6bceec8b7f" y="69.802682"/>
      </g>
     </g>
     <g id="text_13">
      <!-- 4 -->
      <g transform="translate(30.41875 73.601901)scale(0.1 -0.1)">
       <use xlink:href="#DejaVuSans-34"/>
      </g>
     </g>
    </g>
    <g id="text_14">
     <!-- GCaMP -->
     <g transform="translate(24.339062 322.349446)rotate(-90)scale(0.1 -0.1)">
      <defs>
       <path d="M 3809 666 
L 3809 1919 
L 2778 1919 
L 2778 2438 
L 4434 2438 
L 4434 434 
Q 4069 175 3628 42 
Q 3188 -91 2688 -91 
Q 1594 -91 976 548 
Q 359 1188 359 2328 
Q 359 3472 976 4111 
Q 1594 4750 2688 4750 
Q 3144 4750 3555 4637 
Q 3966 4525 4313 4306 
L 4313 3634 
Q 3963 3931 3569 4081 
Q 3175 4231 2741 4231 
Q 1884 4231 1454 3753 
Q 1025 3275 1025 2328 
Q 1025 1384 1454 906 
Q 1884 428 2741 428 
Q 3075 428 3337 486 
Q 3600 544 3809 666 
z
" id="DejaVuSans-47" transform="scale(0.015625)"/>
       <path d="M 4122 4306 
L 4122 3641 
Q 3803 3938 3442 4084 
Q 3081 4231 2675 4231 
Q 1875 4231 1450 3742 
Q 1025 3253 1025 2328 
Q 1025 1406 1450 917 
Q 1875 428 2675 428 
Q 3081 428 3442 575 
Q 3803 722 4122 1019 
L 4122 359 
Q 3791 134 3420 21 
Q 3050 -91 2638 -91 
Q 1578 -91 968 557 
Q 359 1206 359 2328 
Q 359 3453 968 4101 
Q 1578 4750 2638 4750 
Q 3056 4750 3426 4639 
Q 3797 4528 4122 4306 
z
" id="DejaVuSans-43" transform="scale(0.015625)"/>
       <path d="M 628 4666 
L 1569 4666 
L 2759 1491 
L 3956 4666 
L 4897 4666 
L 4897 0 
L 4281 0 
L 4281 4097 
L 3078 897 
L 2444 897 
L 1241 4097 
L 1241 0 
L 628 0 
L 628 4666 
z
" id="DejaVuSans-4d" transform="scale(0.015625)"/>
       <path d="M 1259 4147 
L 1259 2394 
L 2053 2394 
Q 2494 2394 2734 2622 
Q 2975 2850 2975 3272 
Q 2975 3691 2734 3919 
Q 2494 4147 2053 4147 
L 1259 4147 
z
M 628 4666 
L 2053 4666 
Q 2838 4666 3239 4311 
Q 3641 3956 3641 3272 
Q 3641 2581 3239 2228 
Q 2838 1875 2053 1875 
L 1259 1875 
L 1259 0 
L 628 0 
L 628 4666 
z
" id="DejaVuSans-50" transform="scale(0.015625)"/>
      </defs>
      <use xlink:href="#DejaVuSans-47"/>
      <use x="77.490234" xlink:href="#DejaVuSans-43"/>
      <use x="147.314453" xlink:href="#DejaVuSans-61"/>
      <use x="208.59375" xlink:href="#DejaVuSans-4d"/>
      <use x="294.873047" xlink:href="#DejaVuSans-50"/>
     </g>
    </g>
   </g>
   <g id="line2d_13">
    <path clip-path="url(#pa890bc6e76)" d="M 119.872159 96.458965 
L 121.110416 125.694552 
L 122.348674 150.560126 
L 123.586931 169.241674 
L 124.825188 182.31523 
L 126.063445 191.304223 
L 128.53996 204.677035 
L 129.778217 212.693964 
L 132.254732 231.794955 
L 133.492989 240.06584 
L 134.731246 246.589076 
L 137.207761 258.252403 
L 139.684275 270.945667 
L 140.922533 276.290949 
L 142.16079 280.80974 
L 143.399047 284.774204 
L 144.637304 287.923366 
L 145.875562 289.321071 
L 147.113819 288.514153 
L 148.352076 286.649164 
L 149.590334 285.733182 
L 150.828591 286.938419 
L 152.066848 290.083896 
L 154.543363 298.960706 
L 158.258134 312.623309 
L 159.496392 317.413642 
L 160.734649 321.577422 
L 161.972906 324.295797 
L 163.211163 325.458596 
L 164.449421 325.494435 
L 165.687678 324.214663 
L 166.925935 320.845983 
L 169.40245 310.651528 
L 170.640707 307.66744 
L 171.878964 307.324064 
L 173.117222 308.712925 
L 174.355479 309.866801 
L 175.593736 308.743755 
L 176.831993 304.795065 
L 178.070251 299.753774 
L 179.308508 296.481755 
L 180.546765 296.77873 
L 181.785022 300.347465 
L 184.261537 310.834676 
L 185.499794 314.254001 
L 186.738052 314.343378 
L 187.976309 310.280043 
L 189.214566 302.520793 
L 191.691081 284.115859 
L 192.929338 278.497448 
L 194.167595 277.560914 
L 195.405852 281.871803 
L 196.64411 290.958371 
L 199.120624 314.971473 
L 200.358881 324.038728 
L 201.597139 328.580674 
L 202.835396 328.721535 
L 204.073653 325.908501 
L 205.311911 322.267394 
L 206.550168 319.86087 
L 207.788425 319.837194 
L 210.26494 323.566316 
L 211.503197 323.661146 
L 212.741454 321.479677 
L 215.217969 313.742572 
L 216.456226 310.872639 
L 217.694483 310.335539 
L 218.93274 312.304717 
L 220.170998 315.510589 
L 221.409255 318.09437 
L 222.647512 318.731516 
L 223.88577 317.094496 
L 226.362284 311.265308 
L 227.600541 310.214622 
L 228.838799 311.030531 
L 230.077056 312.593492 
L 231.315313 313.152902 
L 232.55357 311.274462 
L 233.791828 306.98716 
L 235.030085 302.231501 
L 236.268342 299.705486 
L 237.5066 300.947378 
L 238.744857 305.29049 
L 239.983114 310.398447 
L 241.221371 313.814857 
L 242.459629 314.331365 
L 243.697886 312.371564 
L 244.936143 309.386744 
L 246.1744 307.203489 
L 247.412658 307.626222 
L 248.650915 311.358518 
L 251.127429 322.584614 
L 252.365687 326.169432 
L 253.603944 327.549763 
L 254.842201 327.3808 
L 256.080459 326.69111 
L 257.318716 326.271543 
L 258.556973 326.390773 
L 259.79523 326.720304 
L 261.033488 326.338331 
L 262.271745 324.357699 
L 263.510002 320.70743 
L 264.748259 315.86678 
L 265.986517 310.202411 
L 268.463031 298.003678 
L 269.701288 293.900578 
L 270.939546 293.587439 
L 272.177803 297.562753 
L 273.41606 304.580438 
L 274.654318 312.622846 
L 275.892575 319.576607 
L 277.130832 323.502836 
L 278.369089 323.212041 
L 279.607347 318.851522 
L 283.322118 298.065446 
L 284.560376 295.035767 
L 285.798633 295.255691 
L 287.03689 297.681853 
L 288.275147 300.780056 
L 289.513405 302.927457 
L 290.751662 302.406669 
L 291.989919 297.950505 
L 293.228177 289.583369 
L 296.942948 257.248095 
L 298.181206 252.517802 
L 299.419463 253.648633 
L 300.65772 258.956875 
L 301.895977 265.677992 
L 303.134235 271.302275 
L 304.372492 273.72197 
L 305.610749 272.012727 
L 306.849006 267.753166 
L 308.087264 264.300072 
L 309.325521 264.255396 
L 310.563778 268.1169 
L 313.040293 281.335793 
L 314.27855 286.219 
L 315.516807 288.28188 
L 316.755065 288.021972 
L 317.993322 287.083407 
L 319.231579 287.391096 
L 320.469836 289.758674 
L 322.946351 296.52516 
L 324.184608 298.908145 
L 325.422866 300.588826 
L 329.137637 305.066026 
L 330.375895 305.570206 
L 331.614152 305.060397 
L 332.852409 304.281681 
L 334.090666 304.197809 
L 335.328924 305.196783 
L 336.567181 307.205353 
L 340.281953 315.458794 
L 341.52021 316.314677 
L 342.758467 315.589651 
L 345.234982 312.640685 
L 346.473239 311.948329 
L 347.711496 311.912315 
L 348.949754 312.423378 
L 350.188011 313.961529 
L 351.426268 316.952524 
L 352.664525 320.846518 
L 353.902783 324.316415 
L 355.14104 326.246432 
L 356.379297 326.357919 
L 357.617554 325.015427 
L 360.094069 320.593714 
L 361.332326 318.852169 
L 362.570584 317.859137 
L 363.808841 317.905114 
L 365.047098 319.38359 
L 366.285355 322.299027 
L 367.523613 326.036541 
L 368.76187 329.405826 
L 370.000127 331.017302 
L 371.238384 329.959958 
L 372.476642 326.207112 
L 374.953156 315.110877 
L 376.191413 311.231752 
L 377.429671 310.043369 
L 378.667928 311.251814 
L 379.906185 313.687744 
L 381.144443 316.459152 
L 382.3827 319.608905 
L 383.620957 323.274105 
L 384.859214 326.476855 
L 386.097472 327.700118 
L 387.335729 326.823675 
L 388.573986 325.37938 
L 389.812243 324.551907 
L 391.050501 323.92021 
L 392.288758 322.337122 
L 393.527015 319.419895 
L 394.765272 316.059636 
L 396.00353 313.60987 
L 397.241787 312.702386 
L 398.480044 312.843237 
L 400.956559 313.374422 
L 402.194816 314.01856 
L 404.671331 316.836037 
L 405.909588 317.029771 
L 407.147845 314.908472 
L 409.62436 306.595345 
L 410.862617 303.774924 
L 412.100874 302.865661 
L 414.577389 302.993021 
L 415.815646 302.78449 
L 417.053903 303.096387 
L 418.292161 304.692696 
L 419.530418 307.707629 
L 420.768675 311.268058 
L 422.006932 313.906658 
L 423.24519 314.500387 
L 424.483447 312.775649 
L 425.721704 309.419756 
L 426.959961 305.691452 
L 428.198219 302.703426 
L 429.436476 301.120963 
L 430.674733 301.038451 
L 431.912991 301.967098 
L 433.151248 303.329763 
L 435.627762 306.577577 
L 439.342534 312.32504 
L 440.580791 313.169694 
L 441.819049 312.632974 
L 443.057306 311.095091 
L 444.295563 309.803143 
L 445.53382 309.97701 
L 446.772078 311.743837 
L 448.010335 314.117202 
L 449.248592 316.131047 
L 451.725107 319.574518 
L 452.963364 320.91053 
L 454.201621 320.71172 
L 455.439879 318.727387 
L 456.678136 316.185114 
L 457.916393 314.746924 
L 459.15465 315.187011 
L 460.392908 317.259583 
L 461.631165 320.050322 
L 462.869422 322.035207 
L 464.107679 321.916125 
L 465.345937 319.883345 
L 466.584194 317.519472 
L 467.822451 316.572498 
L 469.060709 317.735862 
L 471.537223 322.554032 
L 472.77548 323.925507 
L 474.013738 324.248764 
L 475.251995 323.75799 
L 476.490252 322.676605 
L 477.728509 321.254151 
L 478.966767 320.002941 
L 480.205024 319.473663 
L 481.443281 319.407613 
L 482.681538 318.768497 
L 483.919796 317.075307 
L 485.158053 314.912292 
L 486.39631 312.995449 
L 488.872825 310.081909 
L 490.111082 309.074459 
L 491.349339 309.267698 
L 492.587597 311.566212 
L 493.825854 316.111158 
L 496.302368 327.774267 
L 497.540626 331.482328 
L 498.778883 331.584304 
L 500.01714 327.67054 
L 501.255397 320.84953 
L 502.493655 313.208961 
L 503.731912 307.098459 
L 504.970169 304.554314 
L 506.208427 306.299287 
L 508.684941 316.038165 
L 509.923198 319.261241 
L 511.161456 319.817701 
L 512.399713 318.223117 
L 513.63797 315.824062 
L 514.876227 313.985313 
L 516.114485 313.398904 
L 517.352742 314.019769 
L 519.829257 316.722148 
L 521.067514 317.261808 
L 522.305771 316.464877 
L 523.544028 314.421241 
L 526.020543 309.334087 
L 527.2588 307.692523 
L 528.497057 307.300104 
L 529.735315 308.537983 
L 530.973572 311.28915 
L 532.211829 314.373623 
L 533.450086 316.01065 
L 534.688344 315.172388 
L 535.926601 312.237127 
L 537.164858 308.138197 
L 538.403116 303.323676 
L 540.87963 293.181381 
L 542.117887 290.027913 
L 543.356145 288.941502 
L 544.594402 289.471989 
L 545.832659 291.354378 
L 547.070916 294.485311 
L 550.785688 306.590696 
L 552.023945 309.422839 
L 553.262203 310.628566 
L 554.50046 310.009187 
L 555.738717 307.779638 
L 556.976975 304.942569 
L 558.215232 303.057488 
L 559.453489 302.951493 
L 561.930004 305.095046 
L 563.168261 305.186615 
L 564.406518 304.203076 
L 565.644775 302.785518 
L 566.883033 301.648959 
L 568.12129 301.036595 
L 569.359547 300.961437 
L 570.597804 301.708404 
L 571.836062 303.654767 
L 574.312576 309.095788 
L 575.550834 310.425137 
L 576.789091 310.4929 
L 578.027348 309.93596 
L 579.265605 309.114925 
L 580.503863 307.888644 
L 581.74212 305.619495 
L 582.980377 301.575219 
L 584.218634 296.214924 
L 585.456892 291.614511 
L 586.695149 289.66769 
L 587.933406 290.231298 
L 589.171663 291.641798 
L 590.409921 292.477392 
L 591.648178 292.19117 
L 592.886435 290.650648 
L 595.36295 285.561671 
L 596.601207 284.653618 
L 597.839464 286.193639 
L 600.315979 292.267297 
L 601.554236 293.792235 
L 602.792493 293.685437 
L 604.030751 291.969285 
L 605.269008 288.261182 
L 606.507265 282.481712 
L 607.745523 275.899823 
L 608.98378 270.667005 
L 610.222037 268.054047 
L 611.460294 267.742013 
L 612.698552 268.888425 
L 613.936809 270.885427 
L 616.413323 275.446691 
L 617.651581 277.065926 
L 618.889838 277.981232 
L 620.128095 278.415766 
L 621.366352 278.337397 
L 622.60461 277.962347 
L 623.842867 278.357889 
L 625.081124 280.184518 
L 626.319382 282.758553 
L 627.557639 284.942068 
L 628.795896 286.241484 
L 630.034153 287.29003 
L 631.272411 289.312151 
L 633.748925 295.898729 
L 634.987182 297.653948 
L 636.22544 297.490079 
L 637.463697 296.131725 
L 641.178469 291.307716 
L 642.416726 288.567818 
L 644.893241 281.324373 
L 646.131498 279.010215 
L 647.369755 278.59845 
L 648.608012 280.215566 
L 649.84627 283.030921 
L 651.084527 285.496884 
L 652.322784 286.356218 
L 653.561041 285.336674 
L 654.799299 282.840111 
L 659.752328 269.287043 
L 662.228842 263.739181 
L 663.4671 260.273981 
L 664.705357 256.361843 
L 665.943614 252.87954 
L 667.181871 250.859018 
L 668.420129 250.694041 
L 669.658386 251.735852 
L 670.896643 252.967242 
L 673.373158 255.151337 
L 674.611415 256.471143 
L 675.849672 258.061364 
L 677.087929 260.073373 
L 679.564444 264.731354 
L 682.040959 268.968283 
L 683.279216 270.609984 
L 684.517473 271.119456 
L 685.75573 270.518578 
L 688.232245 268.203392 
L 689.470502 267.712446 
L 690.708759 268.667412 
L 691.947017 271.262823 
L 694.423531 278.095562 
L 695.661789 280.312986 
L 696.900046 280.955145 
L 698.138303 280.032024 
L 699.37656 277.898905 
L 700.614818 274.940856 
L 703.091332 268.000041 
L 704.329589 265.47501 
L 705.567847 264.97002 
L 706.806104 267.235337 
L 708.044361 271.939324 
L 709.282618 277.360262 
L 710.520876 281.529896 
L 711.759133 283.502498 
L 712.99739 283.328212 
L 714.235648 281.590208 
L 715.473905 279.006006 
L 717.950419 273.291109 
L 719.188677 271.290549 
L 720.426934 270.275744 
L 721.665191 269.984023 
L 722.903448 270.24751 
L 724.141706 271.013644 
L 725.379963 272.136393 
L 727.856477 274.770127 
L 730.332992 277.530466 
L 731.571249 277.982083 
L 732.809507 277.091881 
L 734.047764 274.76361 
L 735.286021 271.186111 
L 737.762536 262.966843 
L 739.000793 260.43504 
L 740.23905 259.927724 
L 741.477307 261.261079 
L 742.715565 263.486768 
L 743.953822 265.11195 
L 745.192079 265.037992 
L 746.430336 263.813021 
L 747.668594 263.206037 
L 748.906851 264.333283 
L 751.383366 269.169201 
L 752.621623 269.804413 
L 753.85988 267.873325 
L 755.098137 263.953304 
L 757.574652 255.071855 
L 758.812909 251.674288 
L 760.051166 249.607288 
L 761.289424 249.28391 
L 762.527681 250.925916 
L 763.765938 254.312783 
L 766.242453 262.656778 
L 768.718967 270.10622 
L 769.957225 273.209816 
L 771.195482 274.681137 
L 772.433739 273.40745 
L 773.671996 269.312465 
L 774.910254 263.302489 
L 777.386768 249.685399 
L 778.625025 244.767774 
L 779.863283 243.072816 
L 781.10154 244.734283 
L 782.339797 248.23396 
L 783.578054 251.130298 
L 784.816312 251.819836 
L 786.054569 250.678936 
L 787.292826 249.081046 
L 788.531084 247.864806 
L 789.769341 247.160381 
L 791.007598 247.014038 
L 792.245855 247.60962 
L 793.484113 249.045637 
L 794.72237 251.251917 
L 797.198884 256.792316 
L 798.437142 258.676589 
L 799.675399 259.529283 
L 800.913656 259.884775 
L 802.151914 260.036252 
L 803.390171 259.61695 
L 804.628428 257.605242 
L 805.866685 252.955221 
L 808.3432 238.608944 
L 809.581457 233.24888 
L 810.819714 231.183527 
L 812.057972 232.328441 
L 814.534486 238.491238 
L 817.011001 243.073097 
L 818.249258 246.415954 
L 821.96403 259.560046 
L 823.202287 261.613731 
L 824.440544 260.730735 
L 825.678802 257.127625 
L 828.155316 246.809344 
L 829.393573 242.462545 
L 830.631831 239.652123 
L 831.870088 238.587531 
L 833.108345 239.123218 
L 834.346602 240.707366 
L 835.58486 242.507854 
L 836.823117 243.972505 
L 838.061374 244.934379 
L 839.299632 245.417512 
L 840.537889 245.774234 
L 841.776146 246.468359 
L 843.014403 247.452799 
L 844.252661 248.25802 
L 845.490918 248.660604 
L 846.729175 248.651591 
L 847.967432 248.089739 
L 849.20569 246.938309 
L 850.443947 245.180843 
L 852.920461 240.246362 
L 854.158719 239.563334 
L 855.396976 241.539845 
L 859.111748 252.665408 
L 860.350005 255.61666 
L 861.588262 257.752723 
L 862.82652 258.82513 
L 864.064777 258.473296 
L 865.303034 256.505464 
L 867.779549 250.150731 
L 869.017806 247.679102 
L 870.256063 246.057419 
L 873.970835 242.03693 
L 875.209092 240.305272 
L 876.44735 238.239783 
L 877.685607 236.710627 
L 878.923864 236.811021 
L 880.162121 238.927274 
L 881.400379 242.629777 
L 882.638636 247.033099 
L 883.876893 250.778015 
L 885.11515 252.269304 
L 886.353408 251.025583 
L 887.591665 248.286378 
L 888.829922 245.835789 
L 890.06818 244.663602 
L 891.306437 244.290265 
L 892.544694 243.019247 
L 893.782951 239.302076 
L 895.021209 233.099463 
L 896.259466 225.964186 
L 897.497723 219.912696 
L 898.73598 216.406847 
L 899.974238 216.083769 
L 901.212495 218.599449 
L 902.450752 222.581611 
L 903.689009 225.917742 
L 904.927267 226.347739 
L 906.165524 222.369521 
L 907.403781 214.09823 
L 908.642039 204.22514 
L 909.880296 197.673413 
L 911.118553 197.902223 
L 912.35681 203.885729 
L 913.595068 211.978661 
L 914.833325 218.965996 
L 916.071582 223.218034 
L 917.309839 224.861224 
L 918.548097 224.598884 
L 919.786354 222.037045 
L 921.024611 215.752729 
L 922.262868 204.665935 
L 925.97764 160.251027 
L 927.215898 153.653877 
L 928.454155 154.05936 
L 929.692412 160.674996 
L 930.930669 171.923599 
L 933.407184 198.72513 
L 934.645441 209.207973 
L 935.883698 215.906845 
L 937.121956 219.577992 
L 938.360213 221.286589 
L 939.59847 220.796708 
L 940.836727 217.477686 
L 943.313242 206.483086 
L 944.551499 201.928596 
L 945.789757 198.453697 
L 947.028014 196.039757 
L 948.266271 195.425923 
L 949.504528 197.375667 
L 950.742786 201.642403 
L 951.981043 206.46611 
L 953.2193 209.531282 
L 954.457557 210.039539 
L 955.695815 209.162235 
L 956.934072 208.763496 
L 958.172329 210.409646 
L 959.410586 215.019621 
L 960.648844 222.426108 
L 961.887101 230.848182 
L 963.125358 237.590309 
L 964.363616 240.810982 
L 965.601873 240.628592 
L 966.84013 238.819848 
L 968.078387 237.453104 
L 969.316645 237.674045 
L 970.554902 239.370083 
L 971.793159 241.506604 
L 973.031416 242.901935 
L 974.269674 242.819658 
L 976.746188 239.842657 
L 977.984446 239.745306 
L 979.222703 241.612755 
L 980.46096 244.735593 
L 981.699217 247.433085 
L 982.937475 247.723119 
L 984.175732 244.761211 
L 985.413989 239.764292 
L 986.652246 235.313454 
L 987.890504 233.687042 
L 989.128761 235.505947 
L 991.605275 243.594269 
L 992.843533 246.024737 
L 994.08179 245.925945 
L 995.320047 243.073428 
L 996.558305 237.810799 
L 999.034819 225.017495 
L 1000.273076 221.147321 
L 1001.511334 219.786059 
L 1002.749591 219.515455 
L 1003.987848 218.652849 
L 1005.226105 216.285114 
L 1006.464363 212.207031 
L 1007.70262 206.52847 
L 1008.940877 199.467545 
L 1012.655649 174.197143 
L 1013.893906 168.562829 
L 1015.132164 166.814881 
L 1016.370421 169.180605 
L 1017.608678 174.45054 
L 1020.085193 188.192119 
L 1021.32345 195.424077 
L 1022.561707 201.471099 
L 1023.799964 204.917117 
L 1025.038222 205.481394 
L 1026.276479 203.983409 
L 1027.514736 201.178685 
L 1028.752993 197.325443 
L 1029.991251 192.994318 
L 1031.229508 189.194694 
L 1032.467765 186.569647 
L 1033.706023 185.66933 
L 1034.94428 187.305824 
L 1036.182537 191.346099 
L 1041.135566 211.139703 
L 1042.373823 216.592925 
L 1043.612081 220.119731 
L 1044.850338 220.140393 
L 1046.088595 217.123916 
L 1047.326852 213.581874 
L 1048.56511 212.231731 
L 1049.803367 213.644357 
L 1051.041624 215.589846 
L 1052.279882 215.311917 
L 1053.518139 212.020249 
L 1055.994653 202.285761 
L 1057.232911 199.299328 
L 1058.471168 198.397973 
L 1059.709425 199.10556 
L 1060.947682 201.309843 
L 1062.18594 205.764764 
L 1063.424197 212.513428 
L 1064.662454 219.945822 
L 1065.900711 226.066542 
L 1067.138969 229.65557 
L 1068.377226 230.274323 
L 1069.615483 227.874791 
L 1070.853741 222.499934 
L 1072.091998 214.305309 
L 1074.568512 194.411892 
L 1075.80677 189.152608 
L 1077.045027 190.827541 
L 1078.283284 198.099288 
L 1079.521541 206.897231 
L 1080.759799 213.279973 
L 1081.998056 215.28265 
L 1083.236313 213.081315 
L 1084.474571 208.302488 
L 1085.712828 202.976906 
L 1086.951085 198.671797 
L 1088.189342 196.574823 
L 1089.4276 197.6732 
L 1090.665857 202.306617 
L 1093.142371 216.293257 
L 1094.380629 219.952004 
L 1095.618886 219.033576 
L 1096.857143 214.093521 
L 1098.0954 206.715111 
L 1100.571915 190.544675 
L 1101.810172 183.381884 
L 1103.04843 178.731107 
L 1104.286687 178.673314 
L 1105.524944 183.630414 
L 1108.001459 199.303877 
L 1109.239716 204.500342 
L 1110.477973 206.28887 
L 1111.71623 204.876592 
L 1112.954488 200.665588 
L 1114.192745 194.053492 
L 1115.431002 186.456078 
L 1116.669259 180.669089 
L 1117.907517 179.020117 
L 1119.145774 181.435095 
L 1121.622289 190.037592 
L 1122.860546 191.728113 
L 1124.098803 189.964979 
L 1125.33706 185.51171 
L 1126.575318 180.324935 
L 1127.813575 176.144653 
L 1129.051832 173.763137 
L 1130.290089 173.196116 
L 1131.528347 174.04549 
L 1132.766604 175.605391 
L 1134.004861 176.771318 
L 1135.243118 176.447185 
L 1136.481376 174.296385 
L 1137.719633 170.655844 
L 1140.196148 161.070452 
L 1141.434405 157.259191 
L 1142.672662 155.957237 
L 1143.910919 157.285172 
L 1145.149177 159.790676 
L 1146.387434 161.938366 
L 1147.625691 163.186057 
L 1148.863948 163.212641 
L 1150.102206 161.419356 
L 1151.340463 157.643303 
L 1152.57872 152.699942 
L 1153.816977 148.298769 
L 1155.055235 146.302445 
L 1156.293492 147.908558 
L 1157.531749 153.134675 
L 1158.770007 160.136508 
L 1160.008264 165.963819 
L 1161.246521 169.056805 
L 1162.484778 170.066973 
L 1163.723036 170.11505 
L 1164.961293 169.61309 
L 1166.19955 169.316431 
L 1167.437807 170.809265 
L 1168.676065 174.844577 
L 1169.914322 180.705893 
L 1171.152579 187.234665 
L 1172.390837 193.102986 
L 1173.629094 196.95145 
L 1174.867351 198.29289 
L 1176.105608 197.577061 
L 1177.343866 195.332908 
L 1178.582123 191.823494 
L 1181.058637 182.508765 
L 1182.296895 178.701237 
L 1183.535152 176.6895 
L 1184.773409 176.380998 
L 1186.011666 177.19544 
L 1187.249924 178.232596 
L 1188.488181 178.667904 
L 1189.726438 178.931548 
L 1190.964696 180.717026 
L 1192.202953 184.958702 
L 1194.679467 196.668908 
L 1195.917725 201.552517 
L 1197.155982 204.297763 
L 1198.394239 203.486732 
L 1199.632496 197.676109 
L 1200.870754 186.310889 
L 1204.585525 141.267161 
L 1205.823783 130.123344 
L 1207.06204 122.411464 
L 1208.300297 120.019616 
L 1209.538555 124.554033 
L 1210.776812 135.153641 
L 1213.253326 160.996563 
L 1214.491584 171.127415 
L 1215.729841 178.528558 
L 1216.968098 182.958934 
L 1218.206355 184.54556 
L 1219.444613 184.563118 
L 1220.68287 185.027212 
L 1221.921127 187.139977 
L 1223.159384 190.403051 
L 1224.397642 193.331154 
L 1225.635899 194.690872 
L 1226.874156 194.472017 
L 1228.112414 193.460231 
L 1229.350671 191.625179 
L 1230.588928 188.018075 
L 1231.827185 182.348064 
L 1233.065443 175.75668 
L 1234.3037 170.13987 
L 1235.541957 167.369064 
L 1236.780214 168.776705 
L 1238.018472 174.309663 
L 1239.256729 181.858616 
L 1240.494986 187.81877 
L 1241.733243 188.936168 
L 1242.971501 184.116949 
L 1245.448015 165.253213 
L 1246.686273 158.461617 
L 1247.92453 156.472904 
L 1249.162787 158.497688 
L 1250.401044 162.636165 
L 1251.639302 168.24171 
L 1252.877559 175.732831 
L 1254.115816 184.329245 
L 1255.354073 191.09218 
L 1256.592331 192.362501 
L 1257.830588 185.964395 
L 1259.068845 172.626991 
L 1260.307103 156.164499 
L 1261.54536 141.464342 
L 1262.783617 131.184549 
L 1264.021874 124.768224 
L 1266.498389 115.043517 
L 1268.974903 103.140269 
L 1270.213161 99.222672 
L 1271.451418 99.1717 
L 1272.689675 104.513468 
L 1273.927932 115.424363 
L 1276.404447 142.765056 
L 1277.642704 152.273509 
L 1278.880962 157.455111 
L 1280.119219 159.48155 
L 1282.595733 160.656647 
L 1283.833991 162.776938 
L 1285.072248 166.996246 
L 1286.310505 172.293782 
L 1287.548762 176.488102 
L 1288.78702 177.870281 
L 1290.025277 176.084584 
L 1291.263534 171.903377 
L 1294.978306 155.791814 
L 1296.216563 153.336447 
L 1297.454821 154.746187 
L 1298.693078 159.836855 
L 1301.169592 174.280425 
L 1302.40785 180.200235 
L 1303.646107 184.313738 
L 1304.884364 185.973866 
L 1306.122621 183.988484 
L 1307.360879 177.783418 
L 1308.599136 168.319981 
L 1309.837393 157.869206 
L 1311.07565 148.91002 
L 1312.313908 142.850043 
L 1313.552165 139.784705 
L 1314.790422 139.326838 
L 1317.266937 142.341695 
L 1318.505194 141.796929 
L 1319.743451 138.529041 
L 1320.981709 134.242865 
L 1322.219966 132.340013 
L 1323.458223 135.869118 
L 1324.69648 144.979095 
L 1325.934738 156.763535 
L 1327.172995 167.447823 
L 1328.411252 174.332062 
L 1329.649509 176.302581 
L 1330.887767 173.431392 
L 1332.126024 166.378347 
L 1334.602539 145.429935 
L 1335.840796 137.081399 
L 1337.079053 133.673464 
L 1338.31731 134.570074 
L 1339.555568 136.669026 
L 1340.793825 136.556439 
L 1342.032082 131.488388 
L 1343.270339 120.113841 
L 1345.746854 86.734016 
L 1346.985111 73.608964 
L 1348.223368 67.995732 
L 1349.461626 70.7048 
L 1350.699883 78.981035 
L 1351.93814 88.119054 
L 1353.176398 94.898003 
L 1354.414655 99.339015 
L 1355.652912 103.266048 
L 1356.891169 107.933271 
L 1358.129427 113.22683 
L 1359.367684 117.953798 
L 1360.605941 120.503988 
L 1361.844198 120.458042 
L 1363.082456 119.470536 
L 1364.320713 119.641875 
L 1365.55897 121.611144 
L 1368.035485 127.924903 
L 1369.273742 131.412414 
L 1370.511999 135.938346 
L 1371.750257 142.077191 
L 1372.988514 149.17654 
L 1374.226771 155.515213 
L 1375.465028 159.06328 
L 1376.703286 158.257559 
L 1377.941543 153.127143 
L 1380.418057 138.579226 
L 1381.656315 133.735797 
L 1382.894572 132.218351 
L 1384.132829 133.902373 
L 1385.371087 138.486014 
L 1386.609344 146.558144 
L 1387.847601 158.247597 
L 1389.085858 171.31775 
L 1390.324116 181.713916 
L 1391.562373 186.312346 
L 1392.80063 184.746642 
L 1394.038887 178.566255 
L 1396.515402 160.463708 
L 1397.753659 153.326172 
L 1398.991916 150.162999 
L 1400.230174 150.175803 
L 1401.468431 150.499112 
L 1402.706688 149.149816 
L 1403.944946 146.317701 
L 1405.183203 143.14649 
L 1406.42146 140.687602 
L 1407.659717 139.529288 
L 1408.897975 139.539504 
L 1411.374489 140.628172 
L 1412.612746 140.544658 
L 1413.851004 140.58587 
L 1415.089261 142.185053 
L 1416.327518 145.86589 
L 1417.565775 151.072329 
L 1418.804033 157.350668 
L 1421.280547 170.63793 
L 1422.518805 175.166224 
L 1423.757062 176.76855 
L 1424.995319 174.998341 
L 1426.233576 170.976874 
L 1427.471834 167.354808 
L 1428.710091 166.220353 
L 1429.948348 167.327375 
L 1431.186605 168.590675 
L 1432.424863 167.70881 
L 1433.66312 163.769434 
L 1434.901377 158.065736 
L 1436.139634 153.221046 
L 1437.377892 151.64788 
L 1438.616149 154.764876 
L 1439.854406 162.253947 
L 1441.092664 171.287763 
L 1442.330921 177.948895 
L 1443.569178 180.210494 
L 1444.807435 178.830284 
L 1447.28395 172.96977 
L 1448.522207 171.295336 
L 1449.760464 170.685716 
L 1450.998722 169.416547 
L 1452.236979 165.239344 
L 1453.475236 157.397526 
L 1454.713494 146.842897 
L 1457.190008 123.95921 
L 1458.428265 114.486072 
L 1459.666523 107.760312 
L 1460.90478 105.003957 
L 1462.143037 107.287211 
L 1463.381294 114.742945 
L 1464.619552 126.397736 
L 1467.096066 155.205857 
L 1468.334323 167.710172 
L 1469.572581 176.073912 
L 1470.810838 179.118328 
L 1472.049095 176.006726 
L 1473.287353 166.675493 
L 1477.002124 126.654794 
L 1478.240382 120.978544 
L 1479.478639 121.567317 
L 1480.716896 126.64478 
L 1481.955153 133.618271 
L 1483.193411 139.526718 
L 1484.431668 141.429876 
L 1485.669925 137.075125 
L 1486.908182 126.299509 
L 1488.14644 112.565596 
L 1489.384697 101.74706 
L 1490.622954 98.555344 
L 1491.861212 104.219267 
L 1493.099469 116.610866 
L 1494.337726 131.11148 
L 1495.575983 141.912068 
L 1496.814241 145.141915 
L 1498.052498 141.214088 
L 1499.290755 133.122272 
L 1500.529012 123.67586 
L 1501.76727 115.242309 
L 1503.005527 110.391136 
L 1504.243784 110.444084 
L 1505.482041 114.226474 
L 1506.720299 120.071657 
L 1509.196813 134.556556 
L 1510.435071 139.990639 
L 1511.673328 142.167364 
L 1512.911585 141.839089 
L 1514.149842 141.688623 
L 1515.3881 144.459135 
L 1516.626357 150.796681 
L 1517.864614 158.750189 
L 1519.102871 165.54628 
L 1520.341129 169.812636 
L 1521.579386 171.880572 
L 1522.817643 172.422353 
L 1524.0559 171.66006 
L 1525.294158 169.847471 
L 1527.770672 165.540433 
L 1529.00893 164.265475 
L 1530.247187 164.484886 
L 1531.485444 166.661067 
L 1532.723701 170.734509 
L 1535.200216 181.241873 
L 1536.438473 185.356128 
L 1541.391502 197.790337 
L 1542.62976 196.893819 
L 1543.868017 190.11774 
L 1545.106274 177.329021 
L 1546.344531 159.399804 
L 1547.582789 136.878341 
L 1550.059303 86.016241 
L 1551.29756 65.955462 
L 1552.535818 54.731067 
L 1553.774075 52.286864 
L 1555.012332 54.780793 
L 1557.488847 62.288256 
L 1558.727104 65.100687 
L 1559.965361 66.455452 
L 1561.203619 65.821339 
L 1562.441876 62.288774 
L 1564.91839 49.726096 
L 1566.156648 47.979282 
L 1567.394905 52.824387 
L 1568.633162 62.553299 
L 1569.871419 73.629436 
L 1571.109677 83.217025 
L 1572.347934 89.934615 
L 1573.586191 93.558029 
L 1574.824448 94.883527 
L 1577.300963 95.497941 
L 1578.53922 96.890195 
L 1579.777478 100.090226 
L 1581.015735 104.456326 
L 1582.253992 107.827389 
L 1583.492249 108.185023 
L 1585.968764 103.386497 
L 1587.207021 104.27466 
L 1588.445278 110.078605 
L 1590.921793 127.525337 
L 1592.16005 132.866837 
L 1593.398307 133.93246 
L 1594.636565 129.952804 
L 1595.874822 120.788086 
L 1597.113079 108.622216 
L 1598.351337 97.931533 
L 1599.589594 92.408086 
L 1600.827851 92.617605 
L 1602.066108 96.737365 
L 1603.304366 102.025617 
L 1605.78088 111.663482 
L 1607.019137 119.505691 
L 1608.257395 129.700791 
L 1609.495652 138.486429 
L 1610.733909 142.534942 
L 1611.972166 141.365688 
L 1613.210424 136.366444 
L 1614.448681 129.594932 
L 1615.686938 123.532973 
L 1616.925196 561.202423 
L 1618.163453 118.332831 
L 1619.40171 117.086118 
L 1620.639967 115.454026 
L 1621.878225 114.428907 
L 1623.116482 114.889072 
L 1624.354739 115.945104 
L 1625.592996 116.240956 
L 1626.831254 116.228149 
L 1628.069511 117.12728 
L 1629.307768 118.187758 
L 1630.546026 117.053837 
L 1631.784283 112.470385 
L 1633.02254 105.70522 
L 1634.260797 99.682692 
L 1635.499055 96.944018 
L 1636.737312 98.241072 
L 1637.975569 102.451894 
L 1639.213826 107.281046 
L 1640.452084 110.714303 
L 1641.690341 112.541078 
L 1641.690341 112.541078 
" style="fill:none;stroke:#008000;stroke-linecap:square;stroke-width:1.5;"/>
   </g>
   <g id="patch_3">
    <path d="M 43.78125 586.86358 
L 43.78125 22.318125 
" style="fill:none;stroke:#000000;stroke-linecap:square;stroke-linejoin:miter;stroke-width:0.8;"/>
   </g>
   <g id="patch_4">
    <path d="M 1717.78125 586.86358 
L 1717.78125 22.318125 
" style="fill:none;stroke:#000000;stroke-linecap:square;stroke-linejoin:miter;stroke-width:0.8;"/>
   </g>
   <g id="patch_5">
    <path d="M 43.78125 586.86358 
L 1717.78125 586.86358 
" style="fill:none;stroke:#000000;stroke-linecap:square;stroke-linejoin:miter;stroke-width:0.8;"/>
   </g>
   <g id="patch_6">
    <path d="M 43.78125 22.318125 
L 1717.78125 22.318125 
" style="fill:none;stroke:#000000;stroke-linecap:square;stroke-linejoin:miter;stroke-width:0.8;"/>
   </g>
   <g id="text_15">
    <!-- before binarisation -->
    <g transform="translate(824.1825 16.318125)scale(0.12 -0.12)">
     <defs>
      <path d="M 3116 1747 
Q 3116 2381 2855 2742 
Q 2594 3103 2138 3103 
Q 1681 3103 1420 2742 
Q 1159 2381 1159 1747 
Q 1159 1113 1420 752 
Q 1681 391 2138 391 
Q 2594 391 2855 752 
Q 3116 1113 3116 1747 
z
M 1159 2969 
Q 1341 3281 1617 3432 
Q 1894 3584 2278 3584 
Q 2916 3584 3314 3078 
Q 3713 2572 3713 1747 
Q 3713 922 3314 415 
Q 2916 -91 2278 -91 
Q 1894 -91 1617 61 
Q 1341 213 1159 525 
L 1159 0 
L 581 0 
L 581 4863 
L 1159 4863 
L 1159 2969 
z
" id="DejaVuSans-62" transform="scale(0.015625)"/>
      <path d="M 1959 3097 
Q 1497 3097 1228 2736 
Q 959 2375 959 1747 
Q 959 1119 1226 758 
Q 1494 397 1959 397 
Q 2419 397 2687 759 
Q 2956 1122 2956 1747 
Q 2956 2369 2687 2733 
Q 2419 3097 1959 3097 
z
M 1959 3584 
Q 2709 3584 3137 3096 
Q 3566 2609 3566 1747 
Q 3566 888 3137 398 
Q 2709 -91 1959 -91 
Q 1206 -91 779 398 
Q 353 888 353 1747 
Q 353 2609 779 3096 
Q 1206 3584 1959 3584 
z
" id="DejaVuSans-6f" transform="scale(0.015625)"/>
      <path id="DejaVuSans-20" transform="scale(0.015625)"/>
      <path d="M 603 3500 
L 1178 3500 
L 1178 0 
L 603 0 
L 603 3500 
z
M 603 4863 
L 1178 4863 
L 1178 4134 
L 603 4134 
L 603 4863 
z
" id="DejaVuSans-69" transform="scale(0.015625)"/>
      <path d="M 3513 2113 
L 3513 0 
L 2938 0 
L 2938 2094 
Q 2938 2591 2744 2837 
Q 2550 3084 2163 3084 
Q 1697 3084 1428 2787 
Q 1159 2491 1159 1978 
L 1159 0 
L 581 0 
L 581 3500 
L 1159 3500 
L 1159 2956 
Q 1366 3272 1645 3428 
Q 1925 3584 2291 3584 
Q 2894 3584 3203 3211 
Q 3513 2838 3513 2113 
z
" id="DejaVuSans-6e" transform="scale(0.015625)"/>
      <path d="M 2834 3397 
L 2834 2853 
Q 2591 2978 2328 3040 
Q 2066 3103 1784 3103 
Q 1356 3103 1142 2972 
Q 928 2841 928 2578 
Q 928 2378 1081 2264 
Q 1234 2150 1697 2047 
L 1894 2003 
Q 2506 1872 2764 1633 
Q 3022 1394 3022 966 
Q 3022 478 2636 193 
Q 2250 -91 1575 -91 
Q 1294 -91 989 -36 
Q 684 19 347 128 
L 347 722 
Q 666 556 975 473 
Q 1284 391 1588 391 
Q 1994 391 2212 530 
Q 2431 669 2431 922 
Q 2431 1156 2273 1281 
Q 2116 1406 1581 1522 
L 1381 1569 
Q 847 1681 609 1914 
Q 372 2147 372 2553 
Q 372 3047 722 3315 
Q 1072 3584 1716 3584 
Q 2034 3584 2315 3537 
Q 2597 3491 2834 3397 
z
" id="DejaVuSans-73" transform="scale(0.015625)"/>
      <path d="M 1172 4494 
L 1172 3500 
L 2356 3500 
L 2356 3053 
L 1172 3053 
L 1172 1153 
Q 1172 725 1289 603 
Q 1406 481 1766 481 
L 2356 481 
L 2356 0 
L 1766 0 
Q 1100 0 847 248 
Q 594 497 594 1153 
L 594 3053 
L 172 3053 
L 172 3500 
L 594 3500 
L 594 4494 
L 1172 4494 
z
" id="DejaVuSans-74" transform="scale(0.015625)"/>
     </defs>
     <use xlink:href="#DejaVuSans-62"/>
     <use x="63.476562" xlink:href="#DejaVuSans-65"/>
     <use x="125" xlink:href="#DejaVuSans-66"/>
     <use x="160.205078" xlink:href="#DejaVuSans-6f"/>
     <use x="221.386719" xlink:href="#DejaVuSans-72"/>
     <use x="260.25" xlink:href="#DejaVuSans-65"/>
     <use x="321.773438" xlink:href="#DejaVuSans-20"/>
     <use x="353.560547" xlink:href="#DejaVuSans-62"/>
     <use x="417.037109" xlink:href="#DejaVuSans-69"/>
     <use x="444.820312" xlink:href="#DejaVuSans-6e"/>
     <use x="508.199219" xlink:href="#DejaVuSans-61"/>
     <use x="569.478516" xlink:href="#DejaVuSans-72"/>
     <use x="610.591797" xlink:href="#DejaVuSans-69"/>
     <use x="638.375" xlink:href="#DejaVuSans-73"/>
     <use x="690.474609" xlink:href="#DejaVuSans-61"/>
     <use x="751.753906" xlink:href="#DejaVuSans-74"/>
     <use x="790.962891" xlink:href="#DejaVuSans-69"/>
     <use x="818.746094" xlink:href="#DejaVuSans-6f"/>
     <use x="879.927734" xlink:href="#DejaVuSans-6e"/>
    </g>
   </g>
  </g>
  <g id="axes_2">
   <g id="patch_7">
    <path d="M 43.78125 1264.318125 
L 1717.78125 1264.318125 
L 1717.78125 699.77267 
L 43.78125 699.77267 
z
" style="fill:#ffffff;"/>
   </g>
   <g id="matplotlib.axis_3">
    <g id="xtick_8">
     <g id="line2d_14">
      <g>
       <use style="stroke:#000000;stroke-width:0.8;" x="119.872159" xlink:href="#m67454f185d" y="1264.318125"/>
      </g>
     </g>
     <g id="text_16">
      <!-- 0 -->
      <g transform="translate(116.690909 1278.916563)scale(0.1 -0.1)">
       <use xlink:href="#DejaVuSans-30"/>
      </g>
     </g>
    </g>
    <g id="xtick_9">
     <g id="line2d_15">
      <g>
       <use style="stroke:#000000;stroke-width:0.8;" x="367.523613" xlink:href="#m67454f185d" y="1264.318125"/>
      </g>
     </g>
     <g id="text_17">
      <!-- 200 -->
      <g transform="translate(357.979863 1278.916563)scale(0.1 -0.1)">
       <use xlink:href="#DejaVuSans-32"/>
       <use x="63.623047" xlink:href="#DejaVuSans-30"/>
       <use x="127.246094" xlink:href="#DejaVuSans-30"/>
      </g>
     </g>
    </g>
    <g id="xtick_10">
     <g id="line2d_16">
      <g>
       <use style="stroke:#000000;stroke-width:0.8;" x="615.175066" xlink:href="#m67454f185d" y="1264.318125"/>
      </g>
     </g>
     <g id="text_18">
      <!-- 400 -->
      <g transform="translate(605.631316 1278.916563)scale(0.1 -0.1)">
       <use xlink:href="#DejaVuSans-34"/>
       <use x="63.623047" xlink:href="#DejaVuSans-30"/>
       <use x="127.246094" xlink:href="#DejaVuSans-30"/>
      </g>
     </g>
    </g>
    <g id="xtick_11">
     <g id="line2d_17">
      <g>
       <use style="stroke:#000000;stroke-width:0.8;" x="862.82652" xlink:href="#m67454f185d" y="1264.318125"/>
      </g>
     </g>
     <g id="text_19">
      <!-- 600 -->
      <g transform="translate(853.28277 1278.916563)scale(0.1 -0.1)">
       <use xlink:href="#DejaVuSans-36"/>
       <use x="63.623047" xlink:href="#DejaVuSans-30"/>
       <use x="127.246094" xlink:href="#DejaVuSans-30"/>
      </g>
     </g>
    </g>
    <g id="xtick_12">
     <g id="line2d_18">
      <g>
       <use style="stroke:#000000;stroke-width:0.8;" x="1110.477973" xlink:href="#m67454f185d" y="1264.318125"/>
      </g>
     </g>
     <g id="text_20">
      <!-- 800 -->
      <g transform="translate(1100.934223 1278.916563)scale(0.1 -0.1)">
       <use xlink:href="#DejaVuSans-38"/>
       <use x="63.623047" xlink:href="#DejaVuSans-30"/>
       <use x="127.246094" xlink:href="#DejaVuSans-30"/>
      </g>
     </g>
    </g>
    <g id="xtick_13">
     <g id="line2d_19">
      <g>
       <use style="stroke:#000000;stroke-width:0.8;" x="1358.129427" xlink:href="#m67454f185d" y="1264.318125"/>
      </g>
     </g>
     <g id="text_21">
      <!-- 1000 -->
      <g transform="translate(1345.404427 1278.916563)scale(0.1 -0.1)">
       <use xlink:href="#DejaVuSans-31"/>
       <use x="63.623047" xlink:href="#DejaVuSans-30"/>
       <use x="127.246094" xlink:href="#DejaVuSans-30"/>
       <use x="190.869141" xlink:href="#DejaVuSans-30"/>
      </g>
     </g>
    </g>
    <g id="xtick_14">
     <g id="line2d_20">
      <g>
       <use style="stroke:#000000;stroke-width:0.8;" x="1605.78088" xlink:href="#m67454f185d" y="1264.318125"/>
      </g>
     </g>
     <g id="text_22">
      <!-- 1200 -->
      <g transform="translate(1593.05588 1278.916563)scale(0.1 -0.1)">
       <use xlink:href="#DejaVuSans-31"/>
       <use x="63.623047" xlink:href="#DejaVuSans-32"/>
       <use x="127.246094" xlink:href="#DejaVuSans-30"/>
       <use x="190.869141" xlink:href="#DejaVuSans-30"/>
      </g>
     </g>
    </g>
    <g id="text_23">
     <!-- frame -->
     <g transform="translate(865.954687 1292.594688)scale(0.1 -0.1)">
      <use xlink:href="#DejaVuSans-66"/>
      <use x="35.205078" xlink:href="#DejaVuSans-72"/>
      <use x="76.318359" xlink:href="#DejaVuSans-61"/>
      <use x="137.597656" xlink:href="#DejaVuSans-6d"/>
      <use x="235.009766" xlink:href="#DejaVuSans-65"/>
     </g>
    </g>
   </g>
   <g id="matplotlib.axis_4">
    <g id="ytick_6">
     <g id="line2d_21">
      <g>
       <use style="stroke:#000000;stroke-width:0.8;" x="43.78125" xlink:href="#m6bceec8b7f" y="1238.656968"/>
      </g>
     </g>
     <g id="text_24">
      <!-- 0.0 -->
      <g transform="translate(20.878125 1242.456187)scale(0.1 -0.1)">
       <defs>
        <path d="M 684 794 
L 1344 794 
L 1344 0 
L 684 0 
L 684 794 
z
" id="DejaVuSans-2e" transform="scale(0.015625)"/>
       </defs>
       <use xlink:href="#DejaVuSans-30"/>
       <use x="63.623047" xlink:href="#DejaVuSans-2e"/>
       <use x="95.410156" xlink:href="#DejaVuSans-30"/>
      </g>
     </g>
    </g>
    <g id="ytick_7">
     <g id="line2d_22">
      <g>
       <use style="stroke:#000000;stroke-width:0.8;" x="43.78125" xlink:href="#m6bceec8b7f" y="1136.01234"/>
      </g>
     </g>
     <g id="text_25">
      <!-- 0.2 -->
      <g transform="translate(20.878125 1139.811559)scale(0.1 -0.1)">
       <use xlink:href="#DejaVuSans-30"/>
       <use x="63.623047" xlink:href="#DejaVuSans-2e"/>
       <use x="95.410156" xlink:href="#DejaVuSans-32"/>
      </g>
     </g>
    </g>
    <g id="ytick_8">
     <g id="line2d_23">
      <g>
       <use style="stroke:#000000;stroke-width:0.8;" x="43.78125" xlink:href="#m6bceec8b7f" y="1033.367712"/>
      </g>
     </g>
     <g id="text_26">
      <!-- 0.4 -->
      <g transform="translate(20.878125 1037.166931)scale(0.1 -0.1)">
       <use xlink:href="#DejaVuSans-30"/>
       <use x="63.623047" xlink:href="#DejaVuSans-2e"/>
       <use x="95.410156" xlink:href="#DejaVuSans-34"/>
      </g>
     </g>
    </g>
    <g id="ytick_9">
     <g id="line2d_24">
      <g>
       <use style="stroke:#000000;stroke-width:0.8;" x="43.78125" xlink:href="#m6bceec8b7f" y="930.723084"/>
      </g>
     </g>
     <g id="text_27">
      <!-- 0.6 -->
      <g transform="translate(20.878125 934.522302)scale(0.1 -0.1)">
       <use xlink:href="#DejaVuSans-30"/>
       <use x="63.623047" xlink:href="#DejaVuSans-2e"/>
       <use x="95.410156" xlink:href="#DejaVuSans-36"/>
      </g>
     </g>
    </g>
    <g id="ytick_10">
     <g id="line2d_25">
      <g>
       <use style="stroke:#000000;stroke-width:0.8;" x="43.78125" xlink:href="#m6bceec8b7f" y="828.078456"/>
      </g>
     </g>
     <g id="text_28">
      <!-- 0.8 -->
      <g transform="translate(20.878125 831.877674)scale(0.1 -0.1)">
       <use xlink:href="#DejaVuSans-30"/>
       <use x="63.623047" xlink:href="#DejaVuSans-2e"/>
       <use x="95.410156" xlink:href="#DejaVuSans-38"/>
      </g>
     </g>
    </g>
    <g id="ytick_11">
     <g id="line2d_26">
      <g>
       <use style="stroke:#000000;stroke-width:0.8;" x="43.78125" xlink:href="#m6bceec8b7f" y="725.433827"/>
      </g>
     </g>
     <g id="text_29">
      <!-- 1.0 -->
      <g transform="translate(20.878125 729.233046)scale(0.1 -0.1)">
       <use xlink:href="#DejaVuSans-31"/>
       <use x="63.623047" xlink:href="#DejaVuSans-2e"/>
       <use x="95.410156" xlink:href="#DejaVuSans-30"/>
      </g>
     </g>
    </g>
    <g id="text_30">
     <!-- GCaMP -->
     <g transform="translate(14.798437 999.803991)rotate(-90)scale(0.1 -0.1)">
      <use xlink:href="#DejaVuSans-47"/>
      <use x="77.490234" xlink:href="#DejaVuSans-43"/>
      <use x="147.314453" xlink:href="#DejaVuSans-61"/>
      <use x="208.59375" xlink:href="#DejaVuSans-4d"/>
      <use x="294.873047" xlink:href="#DejaVuSans-50"/>
     </g>
    </g>
   </g>
   <g id="line2d_27">
    <path clip-path="url(#pefd2374be7)" d="M 119.872159 725.433827 
L 122.348674 725.433827 
L 123.586931 1238.656968 
L 925.97764 1238.656968 
L 927.215898 725.433827 
L 928.454155 725.433827 
L 929.692412 1238.656968 
L 1151.340463 1238.656968 
L 1152.57872 725.433827 
L 1157.531749 725.433827 
L 1158.770007 1238.656968 
L 1202.109011 1238.656968 
L 1203.347268 725.433827 
L 1212.015069 725.433827 
L 1213.253326 1238.656968 
L 1260.307103 1238.656968 
L 1261.54536 725.433827 
L 1277.642704 725.433827 
L 1278.880962 1238.656968 
L 1294.978306 1238.656968 
L 1296.216563 725.433827 
L 1297.454821 725.433827 
L 1298.693078 1238.656968 
L 1309.837393 1238.656968 
L 1311.07565 725.433827 
L 1324.69648 725.433827 
L 1325.934738 1238.656968 
L 1333.364281 1238.656968 
L 1334.602539 725.433827 
L 1374.226771 725.433827 
L 1375.465028 1238.656968 
L 1376.703286 1238.656968 
L 1377.941543 725.433827 
L 1386.609344 725.433827 
L 1387.847601 1238.656968 
L 1396.515402 1238.656968 
L 1397.753659 725.433827 
L 1417.565775 725.433827 
L 1418.804033 1238.656968 
L 1434.901377 1238.656968 
L 1436.139634 725.433827 
L 1438.616149 725.433827 
L 1439.854406 1238.656968 
L 1453.475236 1238.656968 
L 1454.713494 725.433827 
L 1467.096066 725.433827 
L 1468.334323 1238.656968 
L 1473.287353 1238.656968 
L 1474.52561 725.433827 
L 1516.626357 725.433827 
L 1517.864614 1238.656968 
L 1546.344531 1238.656968 
L 1547.582789 725.433827 
L 1615.686938 725.433827 
L 1616.925196 1238.656968 
L 1618.163453 725.433827 
L 1641.690341 725.433827 
L 1641.690341 725.433827 
" style="fill:none;stroke:#008000;stroke-linecap:square;stroke-width:1.5;"/>
   </g>
   <g id="patch_8">
    <path d="M 43.78125 1264.318125 
L 43.78125 699.77267 
" style="fill:none;stroke:#000000;stroke-linecap:square;stroke-linejoin:miter;stroke-width:0.8;"/>
   </g>
   <g id="patch_9">
    <path d="M 1717.78125 1264.318125 
L 1717.78125 699.77267 
" style="fill:none;stroke:#000000;stroke-linecap:square;stroke-linejoin:miter;stroke-width:0.8;"/>
   </g>
   <g id="patch_10">
    <path d="M 43.78125 1264.318125 
L 1717.78125 1264.318125 
" style="fill:none;stroke:#000000;stroke-linecap:square;stroke-linejoin:miter;stroke-width:0.8;"/>
   </g>
   <g id="patch_11">
    <path d="M 43.78125 699.77267 
L 1717.78125 699.77267 
" style="fill:none;stroke:#000000;stroke-linecap:square;stroke-linejoin:miter;stroke-width:0.8;"/>
   </g>
   <g id="text_31">
    <!-- before binarisation -->
    <g transform="translate(824.1825 693.77267)scale(0.12 -0.12)">
     <use xlink:href="#DejaVuSans-62"/>
     <use x="63.476562" xlink:href="#DejaVuSans-65"/>
     <use x="125" xlink:href="#DejaVuSans-66"/>
     <use x="160.205078" xlink:href="#DejaVuSans-6f"/>
     <use x="221.386719" xlink:href="#DejaVuSans-72"/>
     <use x="260.25" xlink:href="#DejaVuSans-65"/>
     <use x="321.773438" xlink:href="#DejaVuSans-20"/>
     <use x="353.560547" xlink:href="#DejaVuSans-62"/>
     <use x="417.037109" xlink:href="#DejaVuSans-69"/>
     <use x="444.820312" xlink:href="#DejaVuSans-6e"/>
     <use x="508.199219" xlink:href="#DejaVuSans-61"/>
     <use x="569.478516" xlink:href="#DejaVuSans-72"/>
     <use x="610.591797" xlink:href="#DejaVuSans-69"/>
     <use x="638.375" xlink:href="#DejaVuSans-73"/>
     <use x="690.474609" xlink:href="#DejaVuSans-61"/>
     <use x="751.753906" xlink:href="#DejaVuSans-74"/>
     <use x="790.962891" xlink:href="#DejaVuSans-69"/>
     <use x="818.746094" xlink:href="#DejaVuSans-6f"/>
     <use x="879.927734" xlink:href="#DejaVuSans-6e"/>
    </g>
   </g>
  </g>
 </g>
 <defs>
  <clipPath id="pa890bc6e76">
   <rect height="564.545455" width="1674" x="43.78125" y="22.318125"/>
  </clipPath>
  <clipPath id="pefd2374be7">
   <rect height="564.545455" width="1674" x="43.78125" y="699.77267"/>
  </clipPath>
 </defs>
</svg>
