<?xml version="1.0" encoding="utf-8" standalone="no"?>
<!DOCTYPE svg PUBLIC "-//W3C//DTD SVG 1.1//EN"
  "http://www.w3.org/Graphics/SVG/1.1/DTD/svg11.dtd">
<svg height="1301.874375pt" version="1.1" viewBox="0 0 1724.98125 1301.874375" width="1724.98125pt" xmlns="http://www.w3.org/2000/svg" xmlns:xlink="http://www.w3.org/1999/xlink">
 <metadata>
  <rdf:RDF xmlns:cc="http://creativecommons.org/ns#" xmlns:dc="http://purl.org/dc/elements/1.1/" xmlns:rdf="http://www.w3.org/1999/02/22-rdf-syntax-ns#">
   <cc:Work>
    <dc:type rdf:resource="http://purl.org/dc/dcmitype/StillImage"/>
    <dc:date>2022-07-24T15:54:32.203880</dc:date>
    <dc:format>image/svg+xml</dc:format>
    <dc:creator>
     <cc:Agent>
      <dc:title>Matplotlib v3.4.2, https://matplotlib.org/</dc:title>
     </cc:Agent>
    </dc:creator>
   </cc:Work>
  </rdf:RDF>
 </metadata>
 <defs>
  <style type="text/css">*{stroke-linecap:butt;stroke-linejoin:round;}</style>
 </defs>
 <g id="figure_1">
  <g id="patch_1">
   <path d="M 0 1301.874375 
L 1724.98125 1301.874375 
L 1724.98125 0 
L 0 0 
z
" style="fill:#ffffff;"/>
  </g>
  <g id="axes_1">
   <g id="patch_2">
    <path d="M 43.78125 586.86358 
L 1717.78125 586.86358 
L 1717.78125 22.318125 
L 43.78125 22.318125 
z
" style="fill:#ffffff;"/>
   </g>
   <g id="matplotlib.axis_1">
    <g id="xtick_1">
     <g id="line2d_1">
      <defs>
       <path d="M 0 0 
L 0 3.5 
" id="m6568e7234b" style="stroke:#000000;stroke-width:0.8;"/>
      </defs>
      <g>
       <use style="stroke:#000000;stroke-width:0.8;" x="119.872159" xlink:href="#m6568e7234b" y="586.86358"/>
      </g>
     </g>
     <g id="text_1">
      <!-- 0 -->
      <g transform="translate(116.690909 601.462017)scale(0.1 -0.1)">
       <defs>
        <path d="M 2034 4250 
Q 1547 4250 1301 3770 
Q 1056 3291 1056 2328 
Q 1056 1369 1301 889 
Q 1547 409 2034 409 
Q 2525 409 2770 889 
Q 3016 1369 3016 2328 
Q 3016 3291 2770 3770 
Q 2525 4250 2034 4250 
z
M 2034 4750 
Q 2819 4750 3233 4129 
Q 3647 3509 3647 2328 
Q 3647 1150 3233 529 
Q 2819 -91 2034 -91 
Q 1250 -91 836 529 
Q 422 1150 422 2328 
Q 422 3509 836 4129 
Q 1250 4750 2034 4750 
z
" id="DejaVuSans-30" transform="scale(0.015625)"/>
       </defs>
       <use xlink:href="#DejaVuSans-30"/>
      </g>
     </g>
    </g>
    <g id="xtick_2">
     <g id="line2d_2">
      <g>
       <use style="stroke:#000000;stroke-width:0.8;" x="367.523613" xlink:href="#m6568e7234b" y="586.86358"/>
      </g>
     </g>
     <g id="text_2">
      <!-- 200 -->
      <g transform="translate(357.979863 601.462017)scale(0.1 -0.1)">
       <defs>
        <path d="M 1228 531 
L 3431 531 
L 3431 0 
L 469 0 
L 469 531 
Q 828 903 1448 1529 
Q 2069 2156 2228 2338 
Q 2531 2678 2651 2914 
Q 2772 3150 2772 3378 
Q 2772 3750 2511 3984 
Q 2250 4219 1831 4219 
Q 1534 4219 1204 4116 
Q 875 4013 500 3803 
L 500 4441 
Q 881 4594 1212 4672 
Q 1544 4750 1819 4750 
Q 2544 4750 2975 4387 
Q 3406 4025 3406 3419 
Q 3406 3131 3298 2873 
Q 3191 2616 2906 2266 
Q 2828 2175 2409 1742 
Q 1991 1309 1228 531 
z
" id="DejaVuSans-32" transform="scale(0.015625)"/>
       </defs>
       <use xlink:href="#DejaVuSans-32"/>
       <use x="63.623047" xlink:href="#DejaVuSans-30"/>
       <use x="127.246094" xlink:href="#DejaVuSans-30"/>
      </g>
     </g>
    </g>
    <g id="xtick_3">
     <g id="line2d_3">
      <g>
       <use style="stroke:#000000;stroke-width:0.8;" x="615.175066" xlink:href="#m6568e7234b" y="586.86358"/>
      </g>
     </g>
     <g id="text_3">
      <!-- 400 -->
      <g transform="translate(605.631316 601.462017)scale(0.1 -0.1)">
       <defs>
        <path d="M 2419 4116 
L 825 1625 
L 2419 1625 
L 2419 4116 
z
M 2253 4666 
L 3047 4666 
L 3047 1625 
L 3713 1625 
L 3713 1100 
L 3047 1100 
L 3047 0 
L 2419 0 
L 2419 1100 
L 313 1100 
L 313 1709 
L 2253 4666 
z
" id="DejaVuSans-34" transform="scale(0.015625)"/>
       </defs>
       <use xlink:href="#DejaVuSans-34"/>
       <use x="63.623047" xlink:href="#DejaVuSans-30"/>
       <use x="127.246094" xlink:href="#DejaVuSans-30"/>
      </g>
     </g>
    </g>
    <g id="xtick_4">
     <g id="line2d_4">
      <g>
       <use style="stroke:#000000;stroke-width:0.8;" x="862.82652" xlink:href="#m6568e7234b" y="586.86358"/>
      </g>
     </g>
     <g id="text_4">
      <!-- 600 -->
      <g transform="translate(853.28277 601.462017)scale(0.1 -0.1)">
       <defs>
        <path d="M 2113 2584 
Q 1688 2584 1439 2293 
Q 1191 2003 1191 1497 
Q 1191 994 1439 701 
Q 1688 409 2113 409 
Q 2538 409 2786 701 
Q 3034 994 3034 1497 
Q 3034 2003 2786 2293 
Q 2538 2584 2113 2584 
z
M 3366 4563 
L 3366 3988 
Q 3128 4100 2886 4159 
Q 2644 4219 2406 4219 
Q 1781 4219 1451 3797 
Q 1122 3375 1075 2522 
Q 1259 2794 1537 2939 
Q 1816 3084 2150 3084 
Q 2853 3084 3261 2657 
Q 3669 2231 3669 1497 
Q 3669 778 3244 343 
Q 2819 -91 2113 -91 
Q 1303 -91 875 529 
Q 447 1150 447 2328 
Q 447 3434 972 4092 
Q 1497 4750 2381 4750 
Q 2619 4750 2861 4703 
Q 3103 4656 3366 4563 
z
" id="DejaVuSans-36" transform="scale(0.015625)"/>
       </defs>
       <use xlink:href="#DejaVuSans-36"/>
       <use x="63.623047" xlink:href="#DejaVuSans-30"/>
       <use x="127.246094" xlink:href="#DejaVuSans-30"/>
      </g>
     </g>
    </g>
    <g id="xtick_5">
     <g id="line2d_5">
      <g>
       <use style="stroke:#000000;stroke-width:0.8;" x="1110.477973" xlink:href="#m6568e7234b" y="586.86358"/>
      </g>
     </g>
     <g id="text_5">
      <!-- 800 -->
      <g transform="translate(1100.934223 601.462017)scale(0.1 -0.1)">
       <defs>
        <path d="M 2034 2216 
Q 1584 2216 1326 1975 
Q 1069 1734 1069 1313 
Q 1069 891 1326 650 
Q 1584 409 2034 409 
Q 2484 409 2743 651 
Q 3003 894 3003 1313 
Q 3003 1734 2745 1975 
Q 2488 2216 2034 2216 
z
M 1403 2484 
Q 997 2584 770 2862 
Q 544 3141 544 3541 
Q 544 4100 942 4425 
Q 1341 4750 2034 4750 
Q 2731 4750 3128 4425 
Q 3525 4100 3525 3541 
Q 3525 3141 3298 2862 
Q 3072 2584 2669 2484 
Q 3125 2378 3379 2068 
Q 3634 1759 3634 1313 
Q 3634 634 3220 271 
Q 2806 -91 2034 -91 
Q 1263 -91 848 271 
Q 434 634 434 1313 
Q 434 1759 690 2068 
Q 947 2378 1403 2484 
z
M 1172 3481 
Q 1172 3119 1398 2916 
Q 1625 2713 2034 2713 
Q 2441 2713 2670 2916 
Q 2900 3119 2900 3481 
Q 2900 3844 2670 4047 
Q 2441 4250 2034 4250 
Q 1625 4250 1398 4047 
Q 1172 3844 1172 3481 
z
" id="DejaVuSans-38" transform="scale(0.015625)"/>
       </defs>
       <use xlink:href="#DejaVuSans-38"/>
       <use x="63.623047" xlink:href="#DejaVuSans-30"/>
       <use x="127.246094" xlink:href="#DejaVuSans-30"/>
      </g>
     </g>
    </g>
    <g id="xtick_6">
     <g id="line2d_6">
      <g>
       <use style="stroke:#000000;stroke-width:0.8;" x="1358.129427" xlink:href="#m6568e7234b" y="586.86358"/>
      </g>
     </g>
     <g id="text_6">
      <!-- 1000 -->
      <g transform="translate(1345.404427 601.462017)scale(0.1 -0.1)">
       <defs>
        <path d="M 794 531 
L 1825 531 
L 1825 4091 
L 703 3866 
L 703 4441 
L 1819 4666 
L 2450 4666 
L 2450 531 
L 3481 531 
L 3481 0 
L 794 0 
L 794 531 
z
" id="DejaVuSans-31" transform="scale(0.015625)"/>
       </defs>
       <use xlink:href="#DejaVuSans-31"/>
       <use x="63.623047" xlink:href="#DejaVuSans-30"/>
       <use x="127.246094" xlink:href="#DejaVuSans-30"/>
       <use x="190.869141" xlink:href="#DejaVuSans-30"/>
      </g>
     </g>
    </g>
    <g id="xtick_7">
     <g id="line2d_7">
      <g>
       <use style="stroke:#000000;stroke-width:0.8;" x="1605.78088" xlink:href="#m6568e7234b" y="586.86358"/>
      </g>
     </g>
     <g id="text_7">
      <!-- 1200 -->
      <g transform="translate(1593.05588 601.462017)scale(0.1 -0.1)">
       <use xlink:href="#DejaVuSans-31"/>
       <use x="63.623047" xlink:href="#DejaVuSans-32"/>
       <use x="127.246094" xlink:href="#DejaVuSans-30"/>
       <use x="190.869141" xlink:href="#DejaVuSans-30"/>
      </g>
     </g>
    </g>
    <g id="text_8">
     <!-- frame -->
     <g transform="translate(865.954687 615.140142)scale(0.1 -0.1)">
      <defs>
       <path d="M 2375 4863 
L 2375 4384 
L 1825 4384 
Q 1516 4384 1395 4259 
Q 1275 4134 1275 3809 
L 1275 3500 
L 2222 3500 
L 2222 3053 
L 1275 3053 
L 1275 0 
L 697 0 
L 697 3053 
L 147 3053 
L 147 3500 
L 697 3500 
L 697 3744 
Q 697 4328 969 4595 
Q 1241 4863 1831 4863 
L 2375 4863 
z
" id="DejaVuSans-66" transform="scale(0.015625)"/>
       <path d="M 2631 2963 
Q 2534 3019 2420 3045 
Q 2306 3072 2169 3072 
Q 1681 3072 1420 2755 
Q 1159 2438 1159 1844 
L 1159 0 
L 581 0 
L 581 3500 
L 1159 3500 
L 1159 2956 
Q 1341 3275 1631 3429 
Q 1922 3584 2338 3584 
Q 2397 3584 2469 3576 
Q 2541 3569 2628 3553 
L 2631 2963 
z
" id="DejaVuSans-72" transform="scale(0.015625)"/>
       <path d="M 2194 1759 
Q 1497 1759 1228 1600 
Q 959 1441 959 1056 
Q 959 750 1161 570 
Q 1363 391 1709 391 
Q 2188 391 2477 730 
Q 2766 1069 2766 1631 
L 2766 1759 
L 2194 1759 
z
M 3341 1997 
L 3341 0 
L 2766 0 
L 2766 531 
Q 2569 213 2275 61 
Q 1981 -91 1556 -91 
Q 1019 -91 701 211 
Q 384 513 384 1019 
Q 384 1609 779 1909 
Q 1175 2209 1959 2209 
L 2766 2209 
L 2766 2266 
Q 2766 2663 2505 2880 
Q 2244 3097 1772 3097 
Q 1472 3097 1187 3025 
Q 903 2953 641 2809 
L 641 3341 
Q 956 3463 1253 3523 
Q 1550 3584 1831 3584 
Q 2591 3584 2966 3190 
Q 3341 2797 3341 1997 
z
" id="DejaVuSans-61" transform="scale(0.015625)"/>
       <path d="M 3328 2828 
Q 3544 3216 3844 3400 
Q 4144 3584 4550 3584 
Q 5097 3584 5394 3201 
Q 5691 2819 5691 2113 
L 5691 0 
L 5113 0 
L 5113 2094 
Q 5113 2597 4934 2840 
Q 4756 3084 4391 3084 
Q 3944 3084 3684 2787 
Q 3425 2491 3425 1978 
L 3425 0 
L 2847 0 
L 2847 2094 
Q 2847 2600 2669 2842 
Q 2491 3084 2119 3084 
Q 1678 3084 1418 2786 
Q 1159 2488 1159 1978 
L 1159 0 
L 581 0 
L 581 3500 
L 1159 3500 
L 1159 2956 
Q 1356 3278 1631 3431 
Q 1906 3584 2284 3584 
Q 2666 3584 2933 3390 
Q 3200 3197 3328 2828 
z
" id="DejaVuSans-6d" transform="scale(0.015625)"/>
       <path d="M 3597 1894 
L 3597 1613 
L 953 1613 
Q 991 1019 1311 708 
Q 1631 397 2203 397 
Q 2534 397 2845 478 
Q 3156 559 3463 722 
L 3463 178 
Q 3153 47 2828 -22 
Q 2503 -91 2169 -91 
Q 1331 -91 842 396 
Q 353 884 353 1716 
Q 353 2575 817 3079 
Q 1281 3584 2069 3584 
Q 2775 3584 3186 3129 
Q 3597 2675 3597 1894 
z
M 3022 2063 
Q 3016 2534 2758 2815 
Q 2500 3097 2075 3097 
Q 1594 3097 1305 2825 
Q 1016 2553 972 2059 
L 3022 2063 
z
" id="DejaVuSans-65" transform="scale(0.015625)"/>
      </defs>
      <use xlink:href="#DejaVuSans-66"/>
      <use x="35.205078" xlink:href="#DejaVuSans-72"/>
      <use x="76.318359" xlink:href="#DejaVuSans-61"/>
      <use x="137.597656" xlink:href="#DejaVuSans-6d"/>
      <use x="235.009766" xlink:href="#DejaVuSans-65"/>
     </g>
    </g>
   </g>
   <g id="matplotlib.axis_2">
    <g id="ytick_1">
     <g id="line2d_8">
      <defs>
       <path d="M 0 0 
L -3.5 0 
" id="m883891d1bb" style="stroke:#000000;stroke-width:0.8;"/>
      </defs>
      <g>
       <use style="stroke:#000000;stroke-width:0.8;" x="43.78125" xlink:href="#m883891d1bb" y="525.193057"/>
      </g>
     </g>
     <g id="text_9">
      <!-- 0.8 -->
      <g transform="translate(20.878125 528.992276)scale(0.1 -0.1)">
       <defs>
        <path d="M 684 794 
L 1344 794 
L 1344 0 
L 684 0 
L 684 794 
z
" id="DejaVuSans-2e" transform="scale(0.015625)"/>
       </defs>
       <use xlink:href="#DejaVuSans-30"/>
       <use x="63.623047" xlink:href="#DejaVuSans-2e"/>
       <use x="95.410156" xlink:href="#DejaVuSans-38"/>
      </g>
     </g>
    </g>
    <g id="ytick_2">
     <g id="line2d_9">
      <g>
       <use style="stroke:#000000;stroke-width:0.8;" x="43.78125" xlink:href="#m883891d1bb" y="447.92403"/>
      </g>
     </g>
     <g id="text_10">
      <!-- 1.0 -->
      <g transform="translate(20.878125 451.723249)scale(0.1 -0.1)">
       <use xlink:href="#DejaVuSans-31"/>
       <use x="63.623047" xlink:href="#DejaVuSans-2e"/>
       <use x="95.410156" xlink:href="#DejaVuSans-30"/>
      </g>
     </g>
    </g>
    <g id="ytick_3">
     <g id="line2d_10">
      <g>
       <use style="stroke:#000000;stroke-width:0.8;" x="43.78125" xlink:href="#m883891d1bb" y="370.655003"/>
      </g>
     </g>
     <g id="text_11">
      <!-- 1.2 -->
      <g transform="translate(20.878125 374.454222)scale(0.1 -0.1)">
       <use xlink:href="#DejaVuSans-31"/>
       <use x="63.623047" xlink:href="#DejaVuSans-2e"/>
       <use x="95.410156" xlink:href="#DejaVuSans-32"/>
      </g>
     </g>
    </g>
    <g id="ytick_4">
     <g id="line2d_11">
      <g>
       <use style="stroke:#000000;stroke-width:0.8;" x="43.78125" xlink:href="#m883891d1bb" y="293.385976"/>
      </g>
     </g>
     <g id="text_12">
      <!-- 1.4 -->
      <g transform="translate(20.878125 297.185194)scale(0.1 -0.1)">
       <use xlink:href="#DejaVuSans-31"/>
       <use x="63.623047" xlink:href="#DejaVuSans-2e"/>
       <use x="95.410156" xlink:href="#DejaVuSans-34"/>
      </g>
     </g>
    </g>
    <g id="ytick_5">
     <g id="line2d_12">
      <g>
       <use style="stroke:#000000;stroke-width:0.8;" x="43.78125" xlink:href="#m883891d1bb" y="216.116948"/>
      </g>
     </g>
     <g id="text_13">
      <!-- 1.6 -->
      <g transform="translate(20.878125 219.916167)scale(0.1 -0.1)">
       <use xlink:href="#DejaVuSans-31"/>
       <use x="63.623047" xlink:href="#DejaVuSans-2e"/>
       <use x="95.410156" xlink:href="#DejaVuSans-36"/>
      </g>
     </g>
    </g>
    <g id="ytick_6">
     <g id="line2d_13">
      <g>
       <use style="stroke:#000000;stroke-width:0.8;" x="43.78125" xlink:href="#m883891d1bb" y="138.847921"/>
      </g>
     </g>
     <g id="text_14">
      <!-- 1.8 -->
      <g transform="translate(20.878125 142.64714)scale(0.1 -0.1)">
       <use xlink:href="#DejaVuSans-31"/>
       <use x="63.623047" xlink:href="#DejaVuSans-2e"/>
       <use x="95.410156" xlink:href="#DejaVuSans-38"/>
      </g>
     </g>
    </g>
    <g id="ytick_7">
     <g id="line2d_14">
      <g>
       <use style="stroke:#000000;stroke-width:0.8;" x="43.78125" xlink:href="#m883891d1bb" y="61.578894"/>
      </g>
     </g>
     <g id="text_15">
      <!-- 2.0 -->
      <g transform="translate(20.878125 65.378113)scale(0.1 -0.1)">
       <use xlink:href="#DejaVuSans-32"/>
       <use x="63.623047" xlink:href="#DejaVuSans-2e"/>
       <use x="95.410156" xlink:href="#DejaVuSans-30"/>
      </g>
     </g>
    </g>
    <g id="text_16">
     <!-- GCaMP -->
     <g transform="translate(14.798437 322.349446)rotate(-90)scale(0.1 -0.1)">
      <defs>
       <path d="M 3809 666 
L 3809 1919 
L 2778 1919 
L 2778 2438 
L 4434 2438 
L 4434 434 
Q 4069 175 3628 42 
Q 3188 -91 2688 -91 
Q 1594 -91 976 548 
Q 359 1188 359 2328 
Q 359 3472 976 4111 
Q 1594 4750 2688 4750 
Q 3144 4750 3555 4637 
Q 3966 4525 4313 4306 
L 4313 3634 
Q 3963 3931 3569 4081 
Q 3175 4231 2741 4231 
Q 1884 4231 1454 3753 
Q 1025 3275 1025 2328 
Q 1025 1384 1454 906 
Q 1884 428 2741 428 
Q 3075 428 3337 486 
Q 3600 544 3809 666 
z
" id="DejaVuSans-47" transform="scale(0.015625)"/>
       <path d="M 4122 4306 
L 4122 3641 
Q 3803 3938 3442 4084 
Q 3081 4231 2675 4231 
Q 1875 4231 1450 3742 
Q 1025 3253 1025 2328 
Q 1025 1406 1450 917 
Q 1875 428 2675 428 
Q 3081 428 3442 575 
Q 3803 722 4122 1019 
L 4122 359 
Q 3791 134 3420 21 
Q 3050 -91 2638 -91 
Q 1578 -91 968 557 
Q 359 1206 359 2328 
Q 359 3453 968 4101 
Q 1578 4750 2638 4750 
Q 3056 4750 3426 4639 
Q 3797 4528 4122 4306 
z
" id="DejaVuSans-43" transform="scale(0.015625)"/>
       <path d="M 628 4666 
L 1569 4666 
L 2759 1491 
L 3956 4666 
L 4897 4666 
L 4897 0 
L 4281 0 
L 4281 4097 
L 3078 897 
L 2444 897 
L 1241 4097 
L 1241 0 
L 628 0 
L 628 4666 
z
" id="DejaVuSans-4d" transform="scale(0.015625)"/>
       <path d="M 1259 4147 
L 1259 2394 
L 2053 2394 
Q 2494 2394 2734 2622 
Q 2975 2850 2975 3272 
Q 2975 3691 2734 3919 
Q 2494 4147 2053 4147 
L 1259 4147 
z
M 628 4666 
L 2053 4666 
Q 2838 4666 3239 4311 
Q 3641 3956 3641 3272 
Q 3641 2581 3239 2228 
Q 2838 1875 2053 1875 
L 1259 1875 
L 1259 0 
L 628 0 
L 628 4666 
z
" id="DejaVuSans-50" transform="scale(0.015625)"/>
      </defs>
      <use xlink:href="#DejaVuSans-47"/>
      <use x="77.490234" xlink:href="#DejaVuSans-43"/>
      <use x="147.314453" xlink:href="#DejaVuSans-61"/>
      <use x="208.59375" xlink:href="#DejaVuSans-4d"/>
      <use x="294.873047" xlink:href="#DejaVuSans-50"/>
     </g>
    </g>
   </g>
   <g id="line2d_15">
    <path clip-path="url(#p4f632f19b7)" d="M 119.872159 514.807285 
L 122.348674 531.235541 
L 123.586931 538.124165 
L 124.825188 543.082551 
L 126.063445 545.743148 
L 127.301703 546.168378 
L 128.53996 544.632446 
L 129.778217 541.443943 
L 132.254732 533.432151 
L 133.492989 530.766993 
L 134.731246 529.928548 
L 135.969504 531.390966 
L 137.207761 535.187044 
L 139.684275 545.741734 
L 140.922533 549.833829 
L 142.16079 552.015459 
L 143.399047 552.160128 
L 145.875562 550.031885 
L 147.113819 550.040368 
L 148.352076 550.455274 
L 149.590334 549.584455 
L 150.828591 546.190909 
L 153.305105 534.87581 
L 154.543363 530.661457 
L 155.78162 529.005302 
L 157.019877 529.543683 
L 158.258134 530.957641 
L 159.496392 531.936628 
L 161.972906 532.577075 
L 163.211163 533.993432 
L 164.449421 536.697154 
L 168.164193 547.279844 
L 170.640707 552.76557 
L 173.117222 557.910377 
L 174.355479 559.75819 
L 175.593736 560.088455 
L 176.831993 558.642758 
L 179.308508 553.056212 
L 180.546765 551.160175 
L 181.785022 550.926341 
L 183.02328 552.325014 
L 184.261537 554.777961 
L 185.499794 557.531536 
L 186.738052 559.895385 
L 187.976309 561.202423 
L 189.214566 561.065049 
L 191.691081 558.771844 
L 192.929338 557.845349 
L 195.405852 555.763213 
L 196.64411 555.598071 
L 199.120624 556.571761 
L 200.358881 556.773417 
L 201.597139 557.115013 
L 202.835396 557.278859 
L 204.073653 556.291798 
L 206.550168 551.648966 
L 207.788425 550.261644 
L 209.026682 550.002431 
L 210.26494 550.147249 
L 211.503197 549.625319 
L 213.979711 546.434111 
L 215.217969 545.764851 
L 216.456226 545.8752 
L 217.694483 545.81309 
L 218.93274 544.988975 
L 220.170998 543.810797 
L 221.409255 543.684897 
L 222.647512 545.783692 
L 225.124027 553.289023 
L 226.362284 555.07846 
L 227.600541 554.23032 
L 228.838799 551.194322 
L 230.077056 547.340753 
L 231.315313 543.94821 
L 232.55357 541.382418 
L 233.791828 539.635059 
L 235.030085 539.205757 
L 236.268342 540.654765 
L 237.5066 543.676486 
L 238.744857 547.195555 
L 239.983114 549.891859 
L 241.221371 550.788202 
L 242.459629 549.951112 
L 243.697886 548.398213 
L 247.412658 544.222581 
L 248.650915 542.115567 
L 251.127429 537.60495 
L 252.365687 536.302356 
L 253.603944 536.490628 
L 254.842201 538.37416 
L 256.080459 541.523227 
L 257.318716 545.214455 
L 258.556973 548.453585 
L 259.79523 549.963281 
L 261.033488 548.79446 
L 262.271745 544.966092 
L 263.510002 539.388877 
L 264.748259 533.245829 
L 265.986517 527.867228 
L 267.224774 524.978996 
L 268.463031 526.142309 
L 269.701288 531.459112 
L 270.939546 538.931776 
L 272.177803 545.582192 
L 273.41606 549.52027 
L 274.654318 551.017444 
L 277.130832 552.245107 
L 278.369089 552.442012 
L 279.607347 551.469065 
L 280.845604 549.338931 
L 283.322118 543.756895 
L 284.560376 540.38968 
L 287.03689 532.451056 
L 288.275147 529.854689 
L 289.513405 529.641886 
L 290.751662 531.685321 
L 294.466434 541.501665 
L 295.704691 543.564849 
L 296.942948 544.474758 
L 298.181206 544.285795 
L 299.419463 542.802918 
L 300.65772 539.837337 
L 301.895977 536.125604 
L 303.134235 532.987882 
L 304.372492 531.012103 
L 305.610749 529.907092 
L 306.849006 529.504197 
L 308.087264 529.950152 
L 310.563778 531.936825 
L 311.802036 533.333755 
L 313.040293 536.117823 
L 314.27855 539.882912 
L 315.516807 542.194107 
L 316.755065 540.645871 
L 317.993322 535.201587 
L 319.231579 528.26717 
L 320.469836 522.589741 
L 321.708094 519.693154 
L 322.946351 520.048237 
L 324.184608 523.195189 
L 327.89938 536.872335 
L 329.137637 539.358357 
L 331.614152 542.09829 
L 334.090666 546.11743 
L 335.328924 546.416569 
L 336.567181 544.767738 
L 337.805438 542.581235 
L 339.043695 541.724203 
L 340.281953 542.597116 
L 341.52021 544.048358 
L 342.758467 544.688448 
L 343.996725 543.697176 
L 346.473239 538.538945 
L 347.711496 536.978269 
L 348.949754 536.694173 
L 350.188011 536.853107 
L 351.426268 536.859886 
L 352.664525 536.654758 
L 353.902783 536.264397 
L 355.14104 535.672013 
L 356.379297 534.604606 
L 357.617554 532.942124 
L 358.855812 531.622877 
L 361.332326 531.08618 
L 363.808841 529.072642 
L 365.047098 529.698432 
L 366.285355 532.121249 
L 368.76187 538.314814 
L 370.000127 540.953777 
L 371.238384 543.292562 
L 372.476642 544.896131 
L 373.714899 544.977501 
L 374.953156 543.302374 
L 376.191413 540.740655 
L 377.429671 538.525617 
L 378.667928 537.565338 
L 379.906185 538.388188 
L 382.3827 542.751296 
L 383.620957 543.404507 
L 384.859214 542.391219 
L 386.097472 540.036045 
L 387.335729 536.567077 
L 389.812243 528.533391 
L 391.050501 526.408971 
L 392.288758 527.197329 
L 393.527015 530.372648 
L 394.765272 534.093875 
L 396.00353 536.902177 
L 397.241787 538.127914 
L 398.480044 537.429018 
L 399.718302 535.399725 
L 400.956559 533.630142 
L 402.194816 533.148006 
L 403.433073 533.793725 
L 405.909588 536.382026 
L 407.147845 537.101088 
L 408.386102 536.881437 
L 409.62436 536.063161 
L 410.862617 535.40019 
L 412.100874 535.457645 
L 413.339132 535.750554 
L 414.577389 535.051821 
L 415.815646 533.019269 
L 418.292161 527.386679 
L 419.530418 524.50178 
L 420.768675 522.169921 
L 422.006932 520.726126 
L 424.483447 519.140333 
L 426.959961 516.150207 
L 428.198219 515.233649 
L 430.674733 514.717457 
L 431.912991 514.018923 
L 433.151248 512.938181 
L 434.389505 511.357196 
L 435.627762 508.767484 
L 438.104277 501.436992 
L 439.342534 499.172731 
L 440.580791 499.79427 
L 441.819049 503.787909 
L 444.295563 516.703728 
L 445.53382 521.652431 
L 446.772078 524.840764 
L 449.248592 530.180873 
L 450.48685 532.298782 
L 451.725107 532.799087 
L 452.963364 531.484541 
L 454.201621 528.686218 
L 455.439879 524.764007 
L 456.678136 520.310846 
L 457.916393 516.607711 
L 459.15465 515.12317 
L 460.392908 516.257532 
L 462.869422 522.092326 
L 464.107679 524.216036 
L 465.345937 525.189686 
L 466.584194 525.331604 
L 467.822451 524.713881 
L 469.060709 523.05308 
L 470.298966 520.303757 
L 471.537223 516.786019 
L 474.013738 509.309484 
L 475.251995 506.653456 
L 476.490252 505.484192 
L 478.966767 505.441651 
L 480.205024 503.889387 
L 481.443281 500.926159 
L 482.681538 498.287066 
L 483.919796 498.064468 
L 485.158053 501.050376 
L 486.39631 505.983166 
L 487.634568 510.31729 
L 488.872825 511.948328 
L 490.111082 510.339454 
L 491.349339 506.335132 
L 492.587597 501.596211 
L 493.825854 498.037904 
L 495.064111 496.621227 
L 496.302368 496.709959 
L 497.540626 497.281967 
L 498.778883 498.053391 
L 500.01714 499.072354 
L 501.255397 500.383267 
L 502.493655 502.527017 
L 503.731912 506.411886 
L 504.970169 512.189346 
L 506.208427 518.584686 
L 507.446684 523.693999 
L 508.684941 526.428626 
L 509.923198 526.855187 
L 511.161456 525.466974 
L 513.63797 520.08696 
L 514.876227 518.221483 
L 516.114485 517.912587 
L 517.352742 518.644249 
L 518.590999 518.843489 
L 519.829257 517.284574 
L 521.067514 514.058738 
L 522.305771 509.611157 
L 524.782286 499.387821 
L 526.020543 495.742983 
L 527.2588 493.565462 
L 528.497057 492.592228 
L 529.735315 492.481535 
L 530.973572 492.691249 
L 532.211829 492.578275 
L 533.450086 491.617631 
L 534.688344 490.01802 
L 535.926601 489.1393 
L 537.164858 490.265543 
L 539.641373 495.468637 
L 540.87963 496.448336 
L 542.117887 495.410997 
L 543.356145 492.431567 
L 545.832659 484.699615 
L 547.070916 482.145731 
L 548.309174 480.642484 
L 549.547431 480.059451 
L 550.785688 480.225429 
L 552.023945 480.742372 
L 553.262203 481.557097 
L 554.50046 482.977155 
L 555.738717 485.051883 
L 558.215232 489.807502 
L 559.453489 491.881197 
L 560.691746 493.532588 
L 561.930004 493.707913 
L 563.168261 490.90288 
L 565.644775 479.24548 
L 566.883033 475.096422 
L 568.12129 473.982404 
L 569.359547 475.820219 
L 570.597804 479.791825 
L 571.836062 484.479785 
L 573.074319 488.203481 
L 574.312576 489.960818 
L 575.550834 490.093598 
L 576.789091 489.93497 
L 578.027348 490.894649 
L 579.265605 493.385515 
L 580.503863 496.254421 
L 581.74212 497.72204 
L 582.980377 496.935701 
L 587.933406 487.294375 
L 589.171663 483.949025 
L 591.648178 475.018188 
L 592.886435 472.035972 
L 594.124693 471.665494 
L 595.36295 473.933249 
L 596.601207 478.224153 
L 597.839464 483.168432 
L 599.077722 486.641525 
L 600.315979 486.530594 
L 601.554236 481.886381 
L 602.792493 473.481928 
L 604.030751 463.605454 
L 605.269008 455.141753 
L 606.507265 449.678583 
L 607.745523 446.53767 
L 608.98378 444.408655 
L 610.222037 443.357106 
L 611.460294 444.261443 
L 612.698552 447.07622 
L 616.413323 458.93168 
L 617.651581 461.516815 
L 618.889838 462.885601 
L 620.128095 464.912291 
L 621.366352 470.069218 
L 622.60461 478.719957 
L 623.842867 488.459009 
L 625.081124 495.699352 
L 626.319382 497.714161 
L 627.557639 494.056753 
L 628.795896 486.451441 
L 630.034153 477.549624 
L 631.272411 469.693992 
L 632.510668 464.339751 
L 633.748925 461.916846 
L 634.987182 461.58455 
L 636.22544 461.497338 
L 637.463697 460.04841 
L 639.940211 454.208102 
L 641.178469 452.58571 
L 642.416726 452.899513 
L 643.654983 454.383181 
L 644.893241 455.024773 
L 646.131498 453.211425 
L 647.369755 448.856333 
L 648.608012 442.69086 
L 649.84627 435.312182 
L 652.322784 419.554016 
L 653.561041 413.575896 
L 654.799299 410.698164 
L 656.037556 412.032361 
L 657.275813 417.717731 
L 659.752328 434.641379 
L 660.990585 440.606743 
L 662.228842 443.218605 
L 663.4671 442.721089 
L 664.705357 439.796905 
L 665.943614 435.90302 
L 667.181871 433.121558 
L 668.420129 433.023134 
L 669.658386 435.731863 
L 670.896643 440.28422 
L 674.611415 457.202757 
L 675.849672 460.331994 
L 677.087929 460.542988 
L 678.326187 458.517848 
L 680.802701 452.836117 
L 686.993988 440.136762 
L 688.232245 439.756714 
L 689.470502 441.767131 
L 690.708759 446.285998 
L 693.185274 459.086219 
L 694.423531 463.300248 
L 695.661789 463.924785 
L 696.900046 461.345232 
L 698.138303 457.134709 
L 701.853075 442.754015 
L 703.091332 439.299911 
L 704.329589 438.314533 
L 705.567847 440.123128 
L 708.044361 446.853679 
L 709.282618 448.473497 
L 710.520876 448.347762 
L 711.759133 446.781813 
L 714.235648 441.610538 
L 715.473905 441.458531 
L 716.712162 444.812939 
L 717.950419 450.123201 
L 719.188677 454.253956 
L 720.426934 455.532577 
L 721.665191 454.482991 
L 722.903448 451.928195 
L 725.379963 444.609198 
L 726.61822 442.201964 
L 727.856477 442.038869 
L 729.094735 444.067124 
L 730.332992 447.045131 
L 731.571249 449.47629 
L 734.047764 452.975737 
L 735.286021 455.198627 
L 736.524278 456.719125 
L 737.762536 455.520905 
L 739.000793 450.47572 
L 741.477307 435.544493 
L 742.715565 431.09178 
L 743.953822 429.864711 
L 745.192079 430.174684 
L 746.430336 429.890053 
L 747.668594 428.774043 
L 748.906851 428.322408 
L 750.145108 429.18101 
L 751.383366 430.28732 
L 752.621623 430.672412 
L 753.85988 430.872572 
L 755.098137 432.194515 
L 756.336395 435.219772 
L 757.574652 439.035383 
L 758.812909 441.525817 
L 760.051166 440.812705 
L 761.289424 436.951303 
L 762.527681 432.026061 
L 763.765938 428.270945 
L 765.004195 426.594613 
L 766.242453 427.070019 
L 767.48071 429.697117 
L 768.718967 434.014993 
L 769.957225 438.786532 
L 771.195482 442.887941 
L 772.433739 445.880636 
L 773.671996 447.35685 
L 774.910254 447.005327 
L 776.148511 445.105974 
L 777.386768 441.752368 
L 778.625025 436.621392 
L 781.10154 423.59442 
L 782.339797 418.781712 
L 783.578054 416.6097 
L 784.816312 417.384448 
L 786.054569 421.16494 
L 788.531084 433.888439 
L 789.769341 438.503175 
L 791.007598 439.529114 
L 792.245855 437.286846 
L 794.72237 429.282382 
L 795.960627 427.240286 
L 797.198884 427.872638 
L 798.437142 430.590243 
L 800.913656 438.14264 
L 802.151914 440.374695 
L 803.390171 440.395804 
L 804.628428 437.900758 
L 807.104943 429.693632 
L 808.3432 426.867754 
L 809.581457 424.748331 
L 810.819714 423.26579 
L 812.057972 423.814505 
L 813.296229 427.401017 
L 814.534486 432.371624 
L 815.772743 435.315231 
L 817.011001 434.178717 
L 818.249258 429.951121 
L 819.487515 425.18745 
L 820.725773 421.411791 
L 821.96403 418.576466 
L 823.202287 416.202488 
L 825.678802 412.135289 
L 826.917059 409.618667 
L 828.155316 406.603503 
L 829.393573 404.780723 
L 830.631831 405.959337 
L 833.108345 413.370065 
L 834.346602 413.291363 
L 835.58486 408.271224 
L 838.061374 391.701463 
L 839.299632 385.661446 
L 840.537889 383.655411 
L 841.776146 386.056341 
L 844.252661 397.048711 
L 845.490918 400.400842 
L 846.729175 399.656094 
L 847.967432 394.491953 
L 849.20569 386.755314 
L 850.443947 380.193802 
L 851.682204 378.365855 
L 852.920461 382.449066 
L 854.158719 391.069053 
L 856.635233 411.991232 
L 857.873491 420.38631 
L 859.111748 426.772559 
L 860.350005 431.623262 
L 861.588262 434.847324 
L 862.82652 435.64192 
L 864.064777 433.204252 
L 865.303034 427.451692 
L 867.779549 410.37209 
L 869.017806 404.853265 
L 870.256063 405.660113 
L 871.49432 411.81477 
L 872.732578 418.756186 
L 873.970835 422.632711 
L 875.209092 423.435205 
L 876.44735 423.70303 
L 877.685607 425.120178 
L 878.923864 427.042914 
L 880.162121 427.696487 
L 881.400379 426.142656 
L 883.876893 419.904502 
L 885.11515 418.32367 
L 886.353408 418.197089 
L 887.591665 417.610851 
L 888.829922 414.925851 
L 891.306437 406.27495 
L 892.544694 404.380083 
L 893.782951 405.627681 
L 896.259466 412.314596 
L 897.497723 413.973032 
L 898.73598 413.718863 
L 899.974238 412.434777 
L 901.212495 410.876221 
L 902.450752 409.030768 
L 904.927267 404.21148 
L 906.165524 402.590163 
L 907.403781 402.169345 
L 908.642039 402.705379 
L 909.880296 403.928684 
L 912.35681 407.237432 
L 913.595068 409.406805 
L 914.833325 412.421436 
L 917.309839 419.186196 
L 918.548097 422.034493 
L 919.786354 424.387669 
L 921.024611 424.695421 
L 922.262868 421.411195 
L 923.501126 415.093392 
L 924.739383 408.049328 
L 925.97764 403.123182 
L 927.215898 402.315982 
L 928.454155 405.14854 
L 929.692412 408.941924 
L 930.930669 411.22418 
L 932.168927 411.141831 
L 933.407184 409.013432 
L 934.645441 406.025691 
L 935.883698 403.649495 
L 938.360213 400.600236 
L 939.59847 398.247309 
L 940.836727 395.575593 
L 943.313242 391.171657 
L 944.551499 387.812036 
L 947.028014 378.95184 
L 948.266271 375.565547 
L 949.504528 373.103434 
L 950.742786 371.670335 
L 951.981043 372.358081 
L 953.2193 376.563471 
L 954.457557 384.419839 
L 955.695815 393.932847 
L 956.934072 402.137868 
L 958.172329 406.902165 
L 959.410586 407.701247 
L 960.648844 405.781744 
L 961.887101 403.231582 
L 963.125358 401.122372 
L 964.363616 399.570596 
L 965.601873 399.097837 
L 966.84013 400.098044 
L 968.078387 402.11233 
L 970.554902 406.986674 
L 971.793159 408.457305 
L 973.031416 408.418454 
L 974.269674 406.831114 
L 975.507931 404.066723 
L 976.746188 401.016959 
L 977.984446 398.52541 
L 979.222703 396.935309 
L 980.46096 396.565508 
L 981.699217 397.655273 
L 984.175732 401.600776 
L 986.652246 404.330163 
L 987.890504 405.540008 
L 989.128761 405.794749 
L 990.367018 404.311025 
L 991.605275 400.753611 
L 992.843533 395.9048 
L 994.08179 391.714595 
L 995.320047 389.305319 
L 996.558305 387.972033 
L 997.796562 386.864597 
L 1000.273076 384.945983 
L 1001.511334 382.855745 
L 1002.749591 378.710478 
L 1003.987848 372.281915 
L 1006.464363 356.836442 
L 1007.70262 351.391758 
L 1008.940877 348.611659 
L 1010.179134 347.950552 
L 1011.417392 349.295119 
L 1012.655649 352.836505 
L 1015.132164 362.440762 
L 1016.370421 367.996482 
L 1017.608678 374.523593 
L 1018.846935 379.533626 
L 1020.085193 380.235548 
L 1021.32345 376.363973 
L 1022.561707 369.444178 
L 1023.799964 361.530698 
L 1025.038222 354.616102 
L 1026.276479 350.026647 
L 1027.514736 348.490904 
L 1028.752993 350.512274 
L 1029.991251 355.928385 
L 1031.229508 363.070387 
L 1032.467765 369.474362 
L 1033.706023 373.979965 
L 1034.94428 377.080381 
L 1036.182537 379.269381 
L 1037.420794 380.25913 
L 1038.659052 379.390974 
L 1039.897309 376.267256 
L 1041.135566 371.933693 
L 1042.373823 369.476749 
L 1043.612081 371.884623 
L 1046.088595 384.977091 
L 1047.326852 386.963264 
L 1048.56511 383.536882 
L 1051.041624 369.251945 
L 1052.279882 364.183454 
L 1053.518139 363.615346 
L 1054.756396 367.973495 
L 1055.994653 375.022885 
L 1057.232911 381.265807 
L 1058.471168 384.922533 
L 1059.709425 386.434595 
L 1060.947682 386.587151 
L 1063.424197 385.51025 
L 1065.900711 384.817419 
L 1067.138969 384.242376 
L 1068.377226 384.380279 
L 1069.615483 386.695798 
L 1072.091998 394.84015 
L 1073.330255 396.086402 
L 1074.568512 393.512006 
L 1075.80677 387.388667 
L 1077.045027 379.802066 
L 1078.283284 373.398167 
L 1079.521541 369.202451 
L 1080.759799 365.824948 
L 1081.998056 360.993152 
L 1084.474571 348.01331 
L 1085.712828 345.17764 
L 1086.951085 347.445189 
L 1088.189342 354.586163 
L 1090.665857 374.032825 
L 1091.904114 381.923897 
L 1093.142371 387.209968 
L 1094.380629 388.487011 
L 1095.618886 384.524088 
L 1098.0954 368.09084 
L 1099.333658 363.553722 
L 1100.571915 363.714917 
L 1101.810172 366.831612 
L 1103.04843 370.930544 
L 1104.286687 374.359828 
L 1105.524944 375.479058 
L 1106.763201 373.605931 
L 1108.001459 369.982967 
L 1109.239716 367.096898 
L 1110.477973 366.547169 
L 1111.71623 367.950648 
L 1112.954488 370.113217 
L 1114.192745 372.044519 
L 1115.431002 372.751643 
L 1116.669259 371.604233 
L 1117.907517 369.287185 
L 1119.145774 367.54662 
L 1120.384031 367.713694 
L 1121.622289 369.446155 
L 1122.860546 370.790829 
L 1124.098803 370.02905 
L 1126.575318 364.73659 
L 1127.813575 363.533389 
L 1129.051832 364.764384 
L 1130.290089 368.109288 
L 1131.528347 372.028259 
L 1132.766604 374.789209 
L 1134.004861 374.975375 
L 1135.243118 371.575038 
L 1136.481376 365.083056 
L 1137.719633 357.646708 
L 1138.95789 351.056989 
L 1142.672662 334.79616 
L 1143.910919 330.319148 
L 1145.149177 329.378146 
L 1146.387434 333.620637 
L 1147.625691 342.397863 
L 1150.102206 364.967918 
L 1151.340463 373.829343 
L 1152.57872 378.208676 
L 1153.816977 377.399294 
L 1155.055235 372.147804 
L 1156.293492 364.191863 
L 1157.531749 355.481272 
L 1158.770007 347.611166 
L 1160.008264 341.79289 
L 1161.246521 338.872711 
L 1162.484778 339.505984 
L 1163.723036 344.306912 
L 1164.961293 352.692319 
L 1166.19955 361.840887 
L 1167.437807 368.412518 
L 1168.676065 370.895185 
L 1169.914322 369.596574 
L 1171.152579 365.940942 
L 1172.390837 362.66212 
L 1173.629094 362.848244 
L 1174.867351 367.349078 
L 1176.105608 373.921251 
L 1177.343866 378.899348 
L 1178.582123 379.242829 
L 1179.82038 374.433063 
L 1181.058637 366.611239 
L 1184.773409 340.867328 
L 1186.011666 334.586555 
L 1187.249924 331.514015 
L 1188.488181 330.636736 
L 1189.726438 329.978222 
L 1190.964696 328.583459 
L 1192.202953 326.98587 
L 1193.44121 326.338069 
L 1194.679467 327.088463 
L 1195.917725 328.482982 
L 1197.155982 329.438801 
L 1198.394239 329.29195 
L 1199.632496 327.566055 
L 1202.109011 321.129075 
L 1203.347268 319.429788 
L 1204.585525 318.294585 
L 1205.823783 315.249785 
L 1207.06204 310.648311 
L 1208.300297 308.235832 
L 1209.538555 309.818868 
L 1210.776812 312.772019 
L 1212.015069 314.398794 
L 1213.253326 315.105781 
L 1214.491584 316.294042 
L 1215.729841 318.332987 
L 1216.968098 321.036216 
L 1219.444613 327.171746 
L 1220.68287 330.764263 
L 1221.921127 334.834017 
L 1223.159384 337.859048 
L 1224.397642 338.216688 
L 1225.635899 335.748533 
L 1226.874156 331.360206 
L 1228.112414 325.961647 
L 1229.350671 319.628699 
L 1230.588928 311.443001 
L 1231.827185 300.79966 
L 1233.065443 288.999101 
L 1234.3037 279.117176 
L 1235.541957 274.278771 
L 1236.780214 275.867619 
L 1238.018472 282.818061 
L 1239.256729 291.906005 
L 1240.494986 298.646799 
L 1241.733243 299.470872 
L 1242.971501 294.22491 
L 1244.209758 286.23989 
L 1245.448015 279.947314 
L 1246.686273 278.135829 
L 1247.92453 280.573929 
L 1249.162787 284.862592 
L 1250.401044 288.476266 
L 1251.639302 290.192325 
L 1252.877559 290.157516 
L 1254.115816 288.863026 
L 1255.354073 286.480581 
L 1256.592331 283.263244 
L 1257.830588 279.422442 
L 1259.068845 274.61927 
L 1261.54536 262.262119 
L 1262.783617 257.710831 
L 1264.021874 256.177348 
L 1265.260132 256.10236 
L 1266.498389 255.17769 
L 1267.736646 252.851887 
L 1268.974903 249.423341 
L 1270.213161 244.887169 
L 1271.451418 239.52307 
L 1272.689675 234.74461 
L 1273.927932 232.894615 
L 1275.16619 235.066747 
L 1276.404447 239.12714 
L 1277.642704 241.595041 
L 1278.880962 241.09713 
L 1280.119219 238.820225 
L 1281.357476 236.812233 
L 1282.595733 236.84296 
L 1283.833991 240.129696 
L 1285.072248 246.594279 
L 1286.310505 254.384102 
L 1287.548762 261.271736 
L 1288.78702 265.665972 
L 1290.025277 266.442671 
L 1291.263534 263.214276 
L 1292.501791 256.337496 
L 1293.740049 246.601102 
L 1296.216563 224.441512 
L 1297.454821 215.443415 
L 1298.693078 209.135641 
L 1299.931335 205.022598 
L 1301.169592 201.699283 
L 1302.40785 198.879055 
L 1303.646107 198.109219 
L 1304.884364 200.510686 
L 1306.122621 205.347575 
L 1308.599136 216.524265 
L 1309.837393 219.705523 
L 1311.07565 219.687139 
L 1312.313908 217.950735 
L 1313.552165 216.768953 
L 1314.790422 215.750411 
L 1316.02868 211.209694 
L 1317.266937 199.29352 
L 1318.505194 179.712864 
L 1320.981709 134.421085 
L 1322.219966 118.335842 
L 1323.458223 109.495526 
L 1324.69648 107.783714 
L 1325.934738 112.037074 
L 1327.172995 119.148315 
L 1328.411252 125.427942 
L 1329.649509 129.518552 
L 1330.887767 132.219614 
L 1332.126024 133.904365 
L 1333.364281 133.810699 
L 1334.602539 130.898368 
L 1335.840796 124.697214 
L 1337.079053 117.012632 
L 1338.31731 111.714504 
L 1339.555568 110.347355 
L 1340.793825 109.186135 
L 1342.032082 102.391938 
L 1343.270339 87.806908 
L 1344.508597 69.41002 
L 1345.746854 54.435094 
L 1346.985111 47.979282 
L 1348.223368 49.931682 
L 1349.461626 57.196755 
L 1350.699883 67.685136 
L 1351.93814 80.647131 
L 1355.652912 123.843168 
L 1356.891169 135.179826 
L 1358.129427 142.390069 
L 1359.367684 145.275402 
L 1360.605941 146.154802 
L 1361.844198 149.000639 
L 1363.082456 156.561243 
L 1364.320713 168.693847 
L 1365.55897 182.719938 
L 1366.797228 194.636486 
L 1368.035485 201.034981 
L 1369.273742 200.444811 
L 1370.511999 193.921057 
L 1371.750257 185.233499 
L 1372.988514 178.917557 
L 1374.226771 177.043757 
L 1375.465028 178.426959 
L 1376.703286 181.041337 
L 1377.941543 183.934751 
L 1379.1798 186.106044 
L 1380.418057 185.699612 
L 1381.656315 182.256283 
L 1382.894572 178.243073 
L 1384.132829 176.794532 
L 1385.371087 178.713923 
L 1387.847601 186.002519 
L 1389.085858 190.697382 
L 1390.324116 197.92403 
L 1391.562373 206.620441 
L 1392.80063 213.474974 
L 1394.038887 215.896679 
L 1395.277145 213.68964 
L 1396.515402 208.776061 
L 1398.991916 198.327227 
L 1400.230174 193.731595 
L 1401.468431 190.251672 
L 1402.706688 188.346089 
L 1403.944946 187.554302 
L 1405.183203 186.609159 
L 1406.42146 183.583537 
L 1407.659717 177.289181 
L 1408.897975 169.143584 
L 1410.136232 163.192792 
L 1411.374489 164.33706 
L 1412.612746 174.48646 
L 1413.851004 189.58045 
L 1415.089261 202.788756 
L 1416.327518 210.450504 
L 1417.565775 213.452096 
L 1420.04229 215.368808 
L 1421.280547 216.23026 
L 1422.518805 216.637502 
L 1423.757062 217.166603 
L 1424.995319 219.11167 
L 1427.471834 227.028948 
L 1428.710091 229.465982 
L 1429.948348 229.907841 
L 1431.186605 228.708675 
L 1432.424863 224.997029 
L 1433.66312 217.981323 
L 1436.139634 199.935343 
L 1437.377892 194.402686 
L 1438.616149 193.944768 
L 1439.854406 199.278864 
L 1441.092664 209.734295 
L 1443.569178 236.769178 
L 1444.807435 247.952997 
L 1446.045693 254.662681 
L 1447.28395 256.193733 
L 1448.522207 254.144287 
L 1449.760464 251.347637 
L 1452.236979 247.100101 
L 1453.475236 244.362748 
L 1454.713494 240.893332 
L 1455.951751 236.318984 
L 1457.190008 229.579145 
L 1459.666523 212.144983 
L 1460.90478 207.637435 
L 1462.143037 208.270246 
L 1463.381294 212.236308 
L 1464.619552 217.287121 
L 1465.857809 223.167381 
L 1467.096066 230.878986 
L 1468.334323 239.386445 
L 1469.572581 245.040075 
L 1470.810838 244.837888 
L 1472.049095 238.808244 
L 1473.287353 228.881217 
L 1477.002124 191.250874 
L 1478.240382 182.499171 
L 1479.478639 178.951973 
L 1480.716896 180.852079 
L 1481.955153 186.859691 
L 1484.431668 203.546438 
L 1485.669925 210.449647 
L 1486.908182 213.606115 
L 1488.14644 211.686418 
L 1489.384697 205.085533 
L 1490.622954 196.291713 
L 1491.861212 189.09565 
L 1493.099469 186.521905 
L 1494.337726 189.002918 
L 1496.814241 200.00453 
L 1498.052498 204.117118 
L 1499.290755 205.80881 
L 1500.529012 205.124658 
L 1501.76727 203.584854 
L 1503.005527 203.222942 
L 1504.243784 205.229849 
L 1506.720299 213.712123 
L 1507.958556 216.384387 
L 1510.435071 218.645292 
L 1511.673328 220.873345 
L 1512.911585 224.128342 
L 1514.149842 228.729908 
L 1515.3881 236.230719 
L 1516.626357 248.223759 
L 1517.864614 263.033592 
L 1519.102871 275.042504 
L 1520.341129 279.14532 
L 1521.579386 274.692496 
L 1522.817643 264.361317 
L 1524.0559 250.86794 
L 1526.532415 222.213937 
L 1527.770672 213.139409 
L 1529.00893 211.128387 
L 1530.247187 214.700862 
L 1531.485444 219.374232 
L 1532.723701 221.353894 
L 1533.961959 219.764986 
L 1536.438473 211.587261 
L 1537.67673 210.270472 
L 1538.914988 213.628495 
L 1540.153245 220.936923 
L 1541.391502 229.806017 
L 1542.62976 237.547781 
L 1543.868017 241.916971 
L 1545.106274 241.361983 
L 1546.344531 234.842999 
L 1547.582789 222.56052 
L 1548.821046 207.686199 
L 1550.059303 196.288781 
L 1551.29756 193.344616 
L 1552.535818 197.597064 
L 1553.774075 202.253262 
L 1555.012332 202.017119 
L 1556.250589 197.544753 
L 1557.488847 193.517569 
L 1558.727104 194.452113 
L 1559.965361 201.200949 
L 1561.203619 210.284366 
L 1562.441876 217.230483 
L 1563.680133 220.352643 
L 1564.91839 221.20885 
L 1566.156648 222.738115 
L 1567.394905 226.534934 
L 1568.633162 230.805971 
L 1569.871419 232.607527 
L 1572.347934 231.373254 
L 1573.586191 231.312185 
L 1574.824448 230.373711 
L 1576.062706 227.559882 
L 1577.300963 223.896714 
L 1578.53922 221.197797 
L 1579.777478 219.490232 
L 1581.015735 216.637522 
L 1582.253992 210.983238 
L 1583.492249 203.298103 
L 1584.730507 196.479206 
L 1585.968764 194.536738 
L 1587.207021 200.119644 
L 1588.445278 212.103517 
L 1590.921793 239.944323 
L 1592.16005 249.321235 
L 1593.398307 253.599436 
L 1594.636565 252.496809 
L 1595.874822 247.137254 
L 1597.113079 240.414741 
L 1598.351337 235.498269 
L 1599.589594 233.851891 
L 1602.066108 235.083581 
L 1603.304366 234.46506 
L 1604.542623 232.456114 
L 1605.78088 229.050175 
L 1607.019137 224.690129 
L 1608.257395 221.112593 
L 1609.495652 220.235559 
L 1610.733909 221.870198 
L 1611.972166 223.782152 
L 1613.210424 223.64742 
L 1614.448681 220.786826 
L 1615.686938 217.04333 
L 1616.925196 215.107038 
L 1618.163453 216.128212 
L 1619.40171 220.135039 
L 1620.639967 226.88548 
L 1623.116482 243.42909 
L 1624.354739 250.216198 
L 1625.592996 255.314206 
L 1626.831254 258.962376 
L 1628.069511 261.172427 
L 1629.307768 261.653047 
L 1630.546026 259.401252 
L 1631.784283 252.830985 
L 1634.260797 231.506106 
L 1635.499055 222.746465 
L 1636.737312 216.602209 
L 1637.975569 212.824602 
L 1639.213826 211.219856 
L 1640.452084 211.405085 
L 1641.690341 212.656788 
L 1641.690341 212.656788 
" style="fill:none;stroke:#008000;stroke-linecap:square;stroke-width:1.5;"/>
   </g>
   <g id="patch_3">
    <path d="M 43.78125 586.86358 
L 43.78125 22.318125 
" style="fill:none;stroke:#000000;stroke-linecap:square;stroke-linejoin:miter;stroke-width:0.8;"/>
   </g>
   <g id="patch_4">
    <path d="M 1717.78125 586.86358 
L 1717.78125 22.318125 
" style="fill:none;stroke:#000000;stroke-linecap:square;stroke-linejoin:miter;stroke-width:0.8;"/>
   </g>
   <g id="patch_5">
    <path d="M 43.78125 586.86358 
L 1717.78125 586.86358 
" style="fill:none;stroke:#000000;stroke-linecap:square;stroke-linejoin:miter;stroke-width:0.8;"/>
   </g>
   <g id="patch_6">
    <path d="M 43.78125 22.318125 
L 1717.78125 22.318125 
" style="fill:none;stroke:#000000;stroke-linecap:square;stroke-linejoin:miter;stroke-width:0.8;"/>
   </g>
   <g id="text_17">
    <!-- before binarisation -->
    <g transform="translate(824.1825 16.318125)scale(0.12 -0.12)">
     <defs>
      <path d="M 3116 1747 
Q 3116 2381 2855 2742 
Q 2594 3103 2138 3103 
Q 1681 3103 1420 2742 
Q 1159 2381 1159 1747 
Q 1159 1113 1420 752 
Q 1681 391 2138 391 
Q 2594 391 2855 752 
Q 3116 1113 3116 1747 
z
M 1159 2969 
Q 1341 3281 1617 3432 
Q 1894 3584 2278 3584 
Q 2916 3584 3314 3078 
Q 3713 2572 3713 1747 
Q 3713 922 3314 415 
Q 2916 -91 2278 -91 
Q 1894 -91 1617 61 
Q 1341 213 1159 525 
L 1159 0 
L 581 0 
L 581 4863 
L 1159 4863 
L 1159 2969 
z
" id="DejaVuSans-62" transform="scale(0.015625)"/>
      <path d="M 1959 3097 
Q 1497 3097 1228 2736 
Q 959 2375 959 1747 
Q 959 1119 1226 758 
Q 1494 397 1959 397 
Q 2419 397 2687 759 
Q 2956 1122 2956 1747 
Q 2956 2369 2687 2733 
Q 2419 3097 1959 3097 
z
M 1959 3584 
Q 2709 3584 3137 3096 
Q 3566 2609 3566 1747 
Q 3566 888 3137 398 
Q 2709 -91 1959 -91 
Q 1206 -91 779 398 
Q 353 888 353 1747 
Q 353 2609 779 3096 
Q 1206 3584 1959 3584 
z
" id="DejaVuSans-6f" transform="scale(0.015625)"/>
      <path id="DejaVuSans-20" transform="scale(0.015625)"/>
      <path d="M 603 3500 
L 1178 3500 
L 1178 0 
L 603 0 
L 603 3500 
z
M 603 4863 
L 1178 4863 
L 1178 4134 
L 603 4134 
L 603 4863 
z
" id="DejaVuSans-69" transform="scale(0.015625)"/>
      <path d="M 3513 2113 
L 3513 0 
L 2938 0 
L 2938 2094 
Q 2938 2591 2744 2837 
Q 2550 3084 2163 3084 
Q 1697 3084 1428 2787 
Q 1159 2491 1159 1978 
L 1159 0 
L 581 0 
L 581 3500 
L 1159 3500 
L 1159 2956 
Q 1366 3272 1645 3428 
Q 1925 3584 2291 3584 
Q 2894 3584 3203 3211 
Q 3513 2838 3513 2113 
z
" id="DejaVuSans-6e" transform="scale(0.015625)"/>
      <path d="M 2834 3397 
L 2834 2853 
Q 2591 2978 2328 3040 
Q 2066 3103 1784 3103 
Q 1356 3103 1142 2972 
Q 928 2841 928 2578 
Q 928 2378 1081 2264 
Q 1234 2150 1697 2047 
L 1894 2003 
Q 2506 1872 2764 1633 
Q 3022 1394 3022 966 
Q 3022 478 2636 193 
Q 2250 -91 1575 -91 
Q 1294 -91 989 -36 
Q 684 19 347 128 
L 347 722 
Q 666 556 975 473 
Q 1284 391 1588 391 
Q 1994 391 2212 530 
Q 2431 669 2431 922 
Q 2431 1156 2273 1281 
Q 2116 1406 1581 1522 
L 1381 1569 
Q 847 1681 609 1914 
Q 372 2147 372 2553 
Q 372 3047 722 3315 
Q 1072 3584 1716 3584 
Q 2034 3584 2315 3537 
Q 2597 3491 2834 3397 
z
" id="DejaVuSans-73" transform="scale(0.015625)"/>
      <path d="M 1172 4494 
L 1172 3500 
L 2356 3500 
L 2356 3053 
L 1172 3053 
L 1172 1153 
Q 1172 725 1289 603 
Q 1406 481 1766 481 
L 2356 481 
L 2356 0 
L 1766 0 
Q 1100 0 847 248 
Q 594 497 594 1153 
L 594 3053 
L 172 3053 
L 172 3500 
L 594 3500 
L 594 4494 
L 1172 4494 
z
" id="DejaVuSans-74" transform="scale(0.015625)"/>
     </defs>
     <use xlink:href="#DejaVuSans-62"/>
     <use x="63.476562" xlink:href="#DejaVuSans-65"/>
     <use x="125" xlink:href="#DejaVuSans-66"/>
     <use x="160.205078" xlink:href="#DejaVuSans-6f"/>
     <use x="221.386719" xlink:href="#DejaVuSans-72"/>
     <use x="260.25" xlink:href="#DejaVuSans-65"/>
     <use x="321.773438" xlink:href="#DejaVuSans-20"/>
     <use x="353.560547" xlink:href="#DejaVuSans-62"/>
     <use x="417.037109" xlink:href="#DejaVuSans-69"/>
     <use x="444.820312" xlink:href="#DejaVuSans-6e"/>
     <use x="508.199219" xlink:href="#DejaVuSans-61"/>
     <use x="569.478516" xlink:href="#DejaVuSans-72"/>
     <use x="610.591797" xlink:href="#DejaVuSans-69"/>
     <use x="638.375" xlink:href="#DejaVuSans-73"/>
     <use x="690.474609" xlink:href="#DejaVuSans-61"/>
     <use x="751.753906" xlink:href="#DejaVuSans-74"/>
     <use x="790.962891" xlink:href="#DejaVuSans-69"/>
     <use x="818.746094" xlink:href="#DejaVuSans-6f"/>
     <use x="879.927734" xlink:href="#DejaVuSans-6e"/>
    </g>
   </g>
  </g>
  <g id="axes_2">
   <g id="patch_7">
    <path d="M 43.78125 1264.318125 
L 1717.78125 1264.318125 
L 1717.78125 699.77267 
L 43.78125 699.77267 
z
" style="fill:#ffffff;"/>
   </g>
   <g id="matplotlib.axis_3">
    <g id="xtick_8">
     <g id="line2d_16">
      <g>
       <use style="stroke:#000000;stroke-width:0.8;" x="119.872159" xlink:href="#m6568e7234b" y="1264.318125"/>
      </g>
     </g>
     <g id="text_18">
      <!-- 0 -->
      <g transform="translate(116.690909 1278.916563)scale(0.1 -0.1)">
       <use xlink:href="#DejaVuSans-30"/>
      </g>
     </g>
    </g>
    <g id="xtick_9">
     <g id="line2d_17">
      <g>
       <use style="stroke:#000000;stroke-width:0.8;" x="367.523613" xlink:href="#m6568e7234b" y="1264.318125"/>
      </g>
     </g>
     <g id="text_19">
      <!-- 200 -->
      <g transform="translate(357.979863 1278.916563)scale(0.1 -0.1)">
       <use xlink:href="#DejaVuSans-32"/>
       <use x="63.623047" xlink:href="#DejaVuSans-30"/>
       <use x="127.246094" xlink:href="#DejaVuSans-30"/>
      </g>
     </g>
    </g>
    <g id="xtick_10">
     <g id="line2d_18">
      <g>
       <use style="stroke:#000000;stroke-width:0.8;" x="615.175066" xlink:href="#m6568e7234b" y="1264.318125"/>
      </g>
     </g>
     <g id="text_20">
      <!-- 400 -->
      <g transform="translate(605.631316 1278.916563)scale(0.1 -0.1)">
       <use xlink:href="#DejaVuSans-34"/>
       <use x="63.623047" xlink:href="#DejaVuSans-30"/>
       <use x="127.246094" xlink:href="#DejaVuSans-30"/>
      </g>
     </g>
    </g>
    <g id="xtick_11">
     <g id="line2d_19">
      <g>
       <use style="stroke:#000000;stroke-width:0.8;" x="862.82652" xlink:href="#m6568e7234b" y="1264.318125"/>
      </g>
     </g>
     <g id="text_21">
      <!-- 600 -->
      <g transform="translate(853.28277 1278.916563)scale(0.1 -0.1)">
       <use xlink:href="#DejaVuSans-36"/>
       <use x="63.623047" xlink:href="#DejaVuSans-30"/>
       <use x="127.246094" xlink:href="#DejaVuSans-30"/>
      </g>
     </g>
    </g>
    <g id="xtick_12">
     <g id="line2d_20">
      <g>
       <use style="stroke:#000000;stroke-width:0.8;" x="1110.477973" xlink:href="#m6568e7234b" y="1264.318125"/>
      </g>
     </g>
     <g id="text_22">
      <!-- 800 -->
      <g transform="translate(1100.934223 1278.916563)scale(0.1 -0.1)">
       <use xlink:href="#DejaVuSans-38"/>
       <use x="63.623047" xlink:href="#DejaVuSans-30"/>
       <use x="127.246094" xlink:href="#DejaVuSans-30"/>
      </g>
     </g>
    </g>
    <g id="xtick_13">
     <g id="line2d_21">
      <g>
       <use style="stroke:#000000;stroke-width:0.8;" x="1358.129427" xlink:href="#m6568e7234b" y="1264.318125"/>
      </g>
     </g>
     <g id="text_23">
      <!-- 1000 -->
      <g transform="translate(1345.404427 1278.916563)scale(0.1 -0.1)">
       <use xlink:href="#DejaVuSans-31"/>
       <use x="63.623047" xlink:href="#DejaVuSans-30"/>
       <use x="127.246094" xlink:href="#DejaVuSans-30"/>
       <use x="190.869141" xlink:href="#DejaVuSans-30"/>
      </g>
     </g>
    </g>
    <g id="xtick_14">
     <g id="line2d_22">
      <g>
       <use style="stroke:#000000;stroke-width:0.8;" x="1605.78088" xlink:href="#m6568e7234b" y="1264.318125"/>
      </g>
     </g>
     <g id="text_24">
      <!-- 1200 -->
      <g transform="translate(1593.05588 1278.916563)scale(0.1 -0.1)">
       <use xlink:href="#DejaVuSans-31"/>
       <use x="63.623047" xlink:href="#DejaVuSans-32"/>
       <use x="127.246094" xlink:href="#DejaVuSans-30"/>
       <use x="190.869141" xlink:href="#DejaVuSans-30"/>
      </g>
     </g>
    </g>
    <g id="text_25">
     <!-- frame -->
     <g transform="translate(865.954687 1292.594688)scale(0.1 -0.1)">
      <use xlink:href="#DejaVuSans-66"/>
      <use x="35.205078" xlink:href="#DejaVuSans-72"/>
      <use x="76.318359" xlink:href="#DejaVuSans-61"/>
      <use x="137.597656" xlink:href="#DejaVuSans-6d"/>
      <use x="235.009766" xlink:href="#DejaVuSans-65"/>
     </g>
    </g>
   </g>
   <g id="matplotlib.axis_4">
    <g id="ytick_8">
     <g id="line2d_23">
      <g>
       <use style="stroke:#000000;stroke-width:0.8;" x="43.78125" xlink:href="#m883891d1bb" y="1238.656968"/>
      </g>
     </g>
     <g id="text_26">
      <!-- 0.0 -->
      <g transform="translate(20.878125 1242.456187)scale(0.1 -0.1)">
       <use xlink:href="#DejaVuSans-30"/>
       <use x="63.623047" xlink:href="#DejaVuSans-2e"/>
       <use x="95.410156" xlink:href="#DejaVuSans-30"/>
      </g>
     </g>
    </g>
    <g id="ytick_9">
     <g id="line2d_24">
      <g>
       <use style="stroke:#000000;stroke-width:0.8;" x="43.78125" xlink:href="#m883891d1bb" y="1136.01234"/>
      </g>
     </g>
     <g id="text_27">
      <!-- 0.2 -->
      <g transform="translate(20.878125 1139.811559)scale(0.1 -0.1)">
       <use xlink:href="#DejaVuSans-30"/>
       <use x="63.623047" xlink:href="#DejaVuSans-2e"/>
       <use x="95.410156" xlink:href="#DejaVuSans-32"/>
      </g>
     </g>
    </g>
    <g id="ytick_10">
     <g id="line2d_25">
      <g>
       <use style="stroke:#000000;stroke-width:0.8;" x="43.78125" xlink:href="#m883891d1bb" y="1033.367712"/>
      </g>
     </g>
     <g id="text_28">
      <!-- 0.4 -->
      <g transform="translate(20.878125 1037.166931)scale(0.1 -0.1)">
       <use xlink:href="#DejaVuSans-30"/>
       <use x="63.623047" xlink:href="#DejaVuSans-2e"/>
       <use x="95.410156" xlink:href="#DejaVuSans-34"/>
      </g>
     </g>
    </g>
    <g id="ytick_11">
     <g id="line2d_26">
      <g>
       <use style="stroke:#000000;stroke-width:0.8;" x="43.78125" xlink:href="#m883891d1bb" y="930.723084"/>
      </g>
     </g>
     <g id="text_29">
      <!-- 0.6 -->
      <g transform="translate(20.878125 934.522302)scale(0.1 -0.1)">
       <use xlink:href="#DejaVuSans-30"/>
       <use x="63.623047" xlink:href="#DejaVuSans-2e"/>
       <use x="95.410156" xlink:href="#DejaVuSans-36"/>
      </g>
     </g>
    </g>
    <g id="ytick_12">
     <g id="line2d_27">
      <g>
       <use style="stroke:#000000;stroke-width:0.8;" x="43.78125" xlink:href="#m883891d1bb" y="828.078456"/>
      </g>
     </g>
     <g id="text_30">
      <!-- 0.8 -->
      <g transform="translate(20.878125 831.877674)scale(0.1 -0.1)">
       <use xlink:href="#DejaVuSans-30"/>
       <use x="63.623047" xlink:href="#DejaVuSans-2e"/>
       <use x="95.410156" xlink:href="#DejaVuSans-38"/>
      </g>
     </g>
    </g>
    <g id="ytick_13">
     <g id="line2d_28">
      <g>
       <use style="stroke:#000000;stroke-width:0.8;" x="43.78125" xlink:href="#m883891d1bb" y="725.433827"/>
      </g>
     </g>
     <g id="text_31">
      <!-- 1.0 -->
      <g transform="translate(20.878125 729.233046)scale(0.1 -0.1)">
       <use xlink:href="#DejaVuSans-31"/>
       <use x="63.623047" xlink:href="#DejaVuSans-2e"/>
       <use x="95.410156" xlink:href="#DejaVuSans-30"/>
      </g>
     </g>
    </g>
    <g id="text_32">
     <!-- GCaMP -->
     <g transform="translate(14.798437 999.803991)rotate(-90)scale(0.1 -0.1)">
      <use xlink:href="#DejaVuSans-47"/>
      <use x="77.490234" xlink:href="#DejaVuSans-43"/>
      <use x="147.314453" xlink:href="#DejaVuSans-61"/>
      <use x="208.59375" xlink:href="#DejaVuSans-4d"/>
      <use x="294.873047" xlink:href="#DejaVuSans-50"/>
     </g>
    </g>
   </g>
   <g id="line2d_29">
    <path clip-path="url(#p354e1534d3)" d="M 119.872159 1238.656968 
L 1260.307103 1238.656968 
L 1261.54536 725.433827 
L 1287.548762 725.433827 
L 1288.78702 1238.656968 
L 1290.025277 1238.656968 
L 1291.263534 725.433827 
L 1517.864614 725.433827 
L 1519.102871 1238.656968 
L 1522.817643 1238.656968 
L 1524.0559 725.433827 
L 1641.690341 725.433827 
L 1641.690341 725.433827 
" style="fill:none;stroke:#008000;stroke-linecap:square;stroke-width:1.5;"/>
   </g>
   <g id="patch_8">
    <path d="M 43.78125 1264.318125 
L 43.78125 699.77267 
" style="fill:none;stroke:#000000;stroke-linecap:square;stroke-linejoin:miter;stroke-width:0.8;"/>
   </g>
   <g id="patch_9">
    <path d="M 1717.78125 1264.318125 
L 1717.78125 699.77267 
" style="fill:none;stroke:#000000;stroke-linecap:square;stroke-linejoin:miter;stroke-width:0.8;"/>
   </g>
   <g id="patch_10">
    <path d="M 43.78125 1264.318125 
L 1717.78125 1264.318125 
" style="fill:none;stroke:#000000;stroke-linecap:square;stroke-linejoin:miter;stroke-width:0.8;"/>
   </g>
   <g id="patch_11">
    <path d="M 43.78125 699.77267 
L 1717.78125 699.77267 
" style="fill:none;stroke:#000000;stroke-linecap:square;stroke-linejoin:miter;stroke-width:0.8;"/>
   </g>
   <g id="text_33">
    <!-- before binarisation -->
    <g transform="translate(824.1825 693.77267)scale(0.12 -0.12)">
     <use xlink:href="#DejaVuSans-62"/>
     <use x="63.476562" xlink:href="#DejaVuSans-65"/>
     <use x="125" xlink:href="#DejaVuSans-66"/>
     <use x="160.205078" xlink:href="#DejaVuSans-6f"/>
     <use x="221.386719" xlink:href="#DejaVuSans-72"/>
     <use x="260.25" xlink:href="#DejaVuSans-65"/>
     <use x="321.773438" xlink:href="#DejaVuSans-20"/>
     <use x="353.560547" xlink:href="#DejaVuSans-62"/>
     <use x="417.037109" xlink:href="#DejaVuSans-69"/>
     <use x="444.820312" xlink:href="#DejaVuSans-6e"/>
     <use x="508.199219" xlink:href="#DejaVuSans-61"/>
     <use x="569.478516" xlink:href="#DejaVuSans-72"/>
     <use x="610.591797" xlink:href="#DejaVuSans-69"/>
     <use x="638.375" xlink:href="#DejaVuSans-73"/>
     <use x="690.474609" xlink:href="#DejaVuSans-61"/>
     <use x="751.753906" xlink:href="#DejaVuSans-74"/>
     <use x="790.962891" xlink:href="#DejaVuSans-69"/>
     <use x="818.746094" xlink:href="#DejaVuSans-6f"/>
     <use x="879.927734" xlink:href="#DejaVuSans-6e"/>
    </g>
   </g>
  </g>
 </g>
 <defs>
  <clipPath id="p4f632f19b7">
   <rect height="564.545455" width="1674" x="43.78125" y="22.318125"/>
  </clipPath>
  <clipPath id="p354e1534d3">
   <rect height="564.545455" width="1674" x="43.78125" y="699.77267"/>
  </clipPath>
 </defs>
</svg>
