<?xml version="1.0" encoding="utf-8" standalone="no"?>
<!DOCTYPE svg PUBLIC "-//W3C//DTD SVG 1.1//EN"
  "http://www.w3.org/Graphics/SVG/1.1/DTD/svg11.dtd">
<svg height="1301.874375pt" version="1.1" viewBox="0 0 1731.34375 1301.874375" width="1731.34375pt" xmlns="http://www.w3.org/2000/svg" xmlns:xlink="http://www.w3.org/1999/xlink">
 <metadata>
  <rdf:RDF xmlns:cc="http://creativecommons.org/ns#" xmlns:dc="http://purl.org/dc/elements/1.1/" xmlns:rdf="http://www.w3.org/1999/02/22-rdf-syntax-ns#">
   <cc:Work>
    <dc:type rdf:resource="http://purl.org/dc/dcmitype/StillImage"/>
    <dc:date>2022-07-24T15:54:32.385424</dc:date>
    <dc:format>image/svg+xml</dc:format>
    <dc:creator>
     <cc:Agent>
      <dc:title>Matplotlib v3.4.2, https://matplotlib.org/</dc:title>
     </cc:Agent>
    </dc:creator>
   </cc:Work>
  </rdf:RDF>
 </metadata>
 <defs>
  <style type="text/css">*{stroke-linecap:butt;stroke-linejoin:round;}</style>
 </defs>
 <g id="figure_1">
  <g id="patch_1">
   <path d="M 0 1301.874375 
L 1731.34375 1301.874375 
L 1731.34375 0 
L 0 0 
z
" style="fill:#ffffff;"/>
  </g>
  <g id="axes_1">
   <g id="patch_2">
    <path d="M 50.14375 586.86358 
L 1724.14375 586.86358 
L 1724.14375 22.318125 
L 50.14375 22.318125 
z
" style="fill:#ffffff;"/>
   </g>
   <g id="matplotlib.axis_1">
    <g id="xtick_1">
     <g id="line2d_1">
      <defs>
       <path d="M 0 0 
L 0 3.5 
" id="m54d579f644" style="stroke:#000000;stroke-width:0.8;"/>
      </defs>
      <g>
       <use style="stroke:#000000;stroke-width:0.8;" x="126.234659" xlink:href="#m54d579f644" y="586.86358"/>
      </g>
     </g>
     <g id="text_1">
      <!-- 0 -->
      <g transform="translate(123.053409 601.462017)scale(0.1 -0.1)">
       <defs>
        <path d="M 2034 4250 
Q 1547 4250 1301 3770 
Q 1056 3291 1056 2328 
Q 1056 1369 1301 889 
Q 1547 409 2034 409 
Q 2525 409 2770 889 
Q 3016 1369 3016 2328 
Q 3016 3291 2770 3770 
Q 2525 4250 2034 4250 
z
M 2034 4750 
Q 2819 4750 3233 4129 
Q 3647 3509 3647 2328 
Q 3647 1150 3233 529 
Q 2819 -91 2034 -91 
Q 1250 -91 836 529 
Q 422 1150 422 2328 
Q 422 3509 836 4129 
Q 1250 4750 2034 4750 
z
" id="DejaVuSans-30" transform="scale(0.015625)"/>
       </defs>
       <use xlink:href="#DejaVuSans-30"/>
      </g>
     </g>
    </g>
    <g id="xtick_2">
     <g id="line2d_2">
      <g>
       <use style="stroke:#000000;stroke-width:0.8;" x="373.886113" xlink:href="#m54d579f644" y="586.86358"/>
      </g>
     </g>
     <g id="text_2">
      <!-- 200 -->
      <g transform="translate(364.342363 601.462017)scale(0.1 -0.1)">
       <defs>
        <path d="M 1228 531 
L 3431 531 
L 3431 0 
L 469 0 
L 469 531 
Q 828 903 1448 1529 
Q 2069 2156 2228 2338 
Q 2531 2678 2651 2914 
Q 2772 3150 2772 3378 
Q 2772 3750 2511 3984 
Q 2250 4219 1831 4219 
Q 1534 4219 1204 4116 
Q 875 4013 500 3803 
L 500 4441 
Q 881 4594 1212 4672 
Q 1544 4750 1819 4750 
Q 2544 4750 2975 4387 
Q 3406 4025 3406 3419 
Q 3406 3131 3298 2873 
Q 3191 2616 2906 2266 
Q 2828 2175 2409 1742 
Q 1991 1309 1228 531 
z
" id="DejaVuSans-32" transform="scale(0.015625)"/>
       </defs>
       <use xlink:href="#DejaVuSans-32"/>
       <use x="63.623047" xlink:href="#DejaVuSans-30"/>
       <use x="127.246094" xlink:href="#DejaVuSans-30"/>
      </g>
     </g>
    </g>
    <g id="xtick_3">
     <g id="line2d_3">
      <g>
       <use style="stroke:#000000;stroke-width:0.8;" x="621.537566" xlink:href="#m54d579f644" y="586.86358"/>
      </g>
     </g>
     <g id="text_3">
      <!-- 400 -->
      <g transform="translate(611.993816 601.462017)scale(0.1 -0.1)">
       <defs>
        <path d="M 2419 4116 
L 825 1625 
L 2419 1625 
L 2419 4116 
z
M 2253 4666 
L 3047 4666 
L 3047 1625 
L 3713 1625 
L 3713 1100 
L 3047 1100 
L 3047 0 
L 2419 0 
L 2419 1100 
L 313 1100 
L 313 1709 
L 2253 4666 
z
" id="DejaVuSans-34" transform="scale(0.015625)"/>
       </defs>
       <use xlink:href="#DejaVuSans-34"/>
       <use x="63.623047" xlink:href="#DejaVuSans-30"/>
       <use x="127.246094" xlink:href="#DejaVuSans-30"/>
      </g>
     </g>
    </g>
    <g id="xtick_4">
     <g id="line2d_4">
      <g>
       <use style="stroke:#000000;stroke-width:0.8;" x="869.18902" xlink:href="#m54d579f644" y="586.86358"/>
      </g>
     </g>
     <g id="text_4">
      <!-- 600 -->
      <g transform="translate(859.64527 601.462017)scale(0.1 -0.1)">
       <defs>
        <path d="M 2113 2584 
Q 1688 2584 1439 2293 
Q 1191 2003 1191 1497 
Q 1191 994 1439 701 
Q 1688 409 2113 409 
Q 2538 409 2786 701 
Q 3034 994 3034 1497 
Q 3034 2003 2786 2293 
Q 2538 2584 2113 2584 
z
M 3366 4563 
L 3366 3988 
Q 3128 4100 2886 4159 
Q 2644 4219 2406 4219 
Q 1781 4219 1451 3797 
Q 1122 3375 1075 2522 
Q 1259 2794 1537 2939 
Q 1816 3084 2150 3084 
Q 2853 3084 3261 2657 
Q 3669 2231 3669 1497 
Q 3669 778 3244 343 
Q 2819 -91 2113 -91 
Q 1303 -91 875 529 
Q 447 1150 447 2328 
Q 447 3434 972 4092 
Q 1497 4750 2381 4750 
Q 2619 4750 2861 4703 
Q 3103 4656 3366 4563 
z
" id="DejaVuSans-36" transform="scale(0.015625)"/>
       </defs>
       <use xlink:href="#DejaVuSans-36"/>
       <use x="63.623047" xlink:href="#DejaVuSans-30"/>
       <use x="127.246094" xlink:href="#DejaVuSans-30"/>
      </g>
     </g>
    </g>
    <g id="xtick_5">
     <g id="line2d_5">
      <g>
       <use style="stroke:#000000;stroke-width:0.8;" x="1116.840473" xlink:href="#m54d579f644" y="586.86358"/>
      </g>
     </g>
     <g id="text_5">
      <!-- 800 -->
      <g transform="translate(1107.296723 601.462017)scale(0.1 -0.1)">
       <defs>
        <path d="M 2034 2216 
Q 1584 2216 1326 1975 
Q 1069 1734 1069 1313 
Q 1069 891 1326 650 
Q 1584 409 2034 409 
Q 2484 409 2743 651 
Q 3003 894 3003 1313 
Q 3003 1734 2745 1975 
Q 2488 2216 2034 2216 
z
M 1403 2484 
Q 997 2584 770 2862 
Q 544 3141 544 3541 
Q 544 4100 942 4425 
Q 1341 4750 2034 4750 
Q 2731 4750 3128 4425 
Q 3525 4100 3525 3541 
Q 3525 3141 3298 2862 
Q 3072 2584 2669 2484 
Q 3125 2378 3379 2068 
Q 3634 1759 3634 1313 
Q 3634 634 3220 271 
Q 2806 -91 2034 -91 
Q 1263 -91 848 271 
Q 434 634 434 1313 
Q 434 1759 690 2068 
Q 947 2378 1403 2484 
z
M 1172 3481 
Q 1172 3119 1398 2916 
Q 1625 2713 2034 2713 
Q 2441 2713 2670 2916 
Q 2900 3119 2900 3481 
Q 2900 3844 2670 4047 
Q 2441 4250 2034 4250 
Q 1625 4250 1398 4047 
Q 1172 3844 1172 3481 
z
" id="DejaVuSans-38" transform="scale(0.015625)"/>
       </defs>
       <use xlink:href="#DejaVuSans-38"/>
       <use x="63.623047" xlink:href="#DejaVuSans-30"/>
       <use x="127.246094" xlink:href="#DejaVuSans-30"/>
      </g>
     </g>
    </g>
    <g id="xtick_6">
     <g id="line2d_6">
      <g>
       <use style="stroke:#000000;stroke-width:0.8;" x="1364.491927" xlink:href="#m54d579f644" y="586.86358"/>
      </g>
     </g>
     <g id="text_6">
      <!-- 1000 -->
      <g transform="translate(1351.766927 601.462017)scale(0.1 -0.1)">
       <defs>
        <path d="M 794 531 
L 1825 531 
L 1825 4091 
L 703 3866 
L 703 4441 
L 1819 4666 
L 2450 4666 
L 2450 531 
L 3481 531 
L 3481 0 
L 794 0 
L 794 531 
z
" id="DejaVuSans-31" transform="scale(0.015625)"/>
       </defs>
       <use xlink:href="#DejaVuSans-31"/>
       <use x="63.623047" xlink:href="#DejaVuSans-30"/>
       <use x="127.246094" xlink:href="#DejaVuSans-30"/>
       <use x="190.869141" xlink:href="#DejaVuSans-30"/>
      </g>
     </g>
    </g>
    <g id="xtick_7">
     <g id="line2d_7">
      <g>
       <use style="stroke:#000000;stroke-width:0.8;" x="1612.14338" xlink:href="#m54d579f644" y="586.86358"/>
      </g>
     </g>
     <g id="text_7">
      <!-- 1200 -->
      <g transform="translate(1599.41838 601.462017)scale(0.1 -0.1)">
       <use xlink:href="#DejaVuSans-31"/>
       <use x="63.623047" xlink:href="#DejaVuSans-32"/>
       <use x="127.246094" xlink:href="#DejaVuSans-30"/>
       <use x="190.869141" xlink:href="#DejaVuSans-30"/>
      </g>
     </g>
    </g>
    <g id="text_8">
     <!-- frame -->
     <g transform="translate(872.317187 615.140142)scale(0.1 -0.1)">
      <defs>
       <path d="M 2375 4863 
L 2375 4384 
L 1825 4384 
Q 1516 4384 1395 4259 
Q 1275 4134 1275 3809 
L 1275 3500 
L 2222 3500 
L 2222 3053 
L 1275 3053 
L 1275 0 
L 697 0 
L 697 3053 
L 147 3053 
L 147 3500 
L 697 3500 
L 697 3744 
Q 697 4328 969 4595 
Q 1241 4863 1831 4863 
L 2375 4863 
z
" id="DejaVuSans-66" transform="scale(0.015625)"/>
       <path d="M 2631 2963 
Q 2534 3019 2420 3045 
Q 2306 3072 2169 3072 
Q 1681 3072 1420 2755 
Q 1159 2438 1159 1844 
L 1159 0 
L 581 0 
L 581 3500 
L 1159 3500 
L 1159 2956 
Q 1341 3275 1631 3429 
Q 1922 3584 2338 3584 
Q 2397 3584 2469 3576 
Q 2541 3569 2628 3553 
L 2631 2963 
z
" id="DejaVuSans-72" transform="scale(0.015625)"/>
       <path d="M 2194 1759 
Q 1497 1759 1228 1600 
Q 959 1441 959 1056 
Q 959 750 1161 570 
Q 1363 391 1709 391 
Q 2188 391 2477 730 
Q 2766 1069 2766 1631 
L 2766 1759 
L 2194 1759 
z
M 3341 1997 
L 3341 0 
L 2766 0 
L 2766 531 
Q 2569 213 2275 61 
Q 1981 -91 1556 -91 
Q 1019 -91 701 211 
Q 384 513 384 1019 
Q 384 1609 779 1909 
Q 1175 2209 1959 2209 
L 2766 2209 
L 2766 2266 
Q 2766 2663 2505 2880 
Q 2244 3097 1772 3097 
Q 1472 3097 1187 3025 
Q 903 2953 641 2809 
L 641 3341 
Q 956 3463 1253 3523 
Q 1550 3584 1831 3584 
Q 2591 3584 2966 3190 
Q 3341 2797 3341 1997 
z
" id="DejaVuSans-61" transform="scale(0.015625)"/>
       <path d="M 3328 2828 
Q 3544 3216 3844 3400 
Q 4144 3584 4550 3584 
Q 5097 3584 5394 3201 
Q 5691 2819 5691 2113 
L 5691 0 
L 5113 0 
L 5113 2094 
Q 5113 2597 4934 2840 
Q 4756 3084 4391 3084 
Q 3944 3084 3684 2787 
Q 3425 2491 3425 1978 
L 3425 0 
L 2847 0 
L 2847 2094 
Q 2847 2600 2669 2842 
Q 2491 3084 2119 3084 
Q 1678 3084 1418 2786 
Q 1159 2488 1159 1978 
L 1159 0 
L 581 0 
L 581 3500 
L 1159 3500 
L 1159 2956 
Q 1356 3278 1631 3431 
Q 1906 3584 2284 3584 
Q 2666 3584 2933 3390 
Q 3200 3197 3328 2828 
z
" id="DejaVuSans-6d" transform="scale(0.015625)"/>
       <path d="M 3597 1894 
L 3597 1613 
L 953 1613 
Q 991 1019 1311 708 
Q 1631 397 2203 397 
Q 2534 397 2845 478 
Q 3156 559 3463 722 
L 3463 178 
Q 3153 47 2828 -22 
Q 2503 -91 2169 -91 
Q 1331 -91 842 396 
Q 353 884 353 1716 
Q 353 2575 817 3079 
Q 1281 3584 2069 3584 
Q 2775 3584 3186 3129 
Q 3597 2675 3597 1894 
z
M 3022 2063 
Q 3016 2534 2758 2815 
Q 2500 3097 2075 3097 
Q 1594 3097 1305 2825 
Q 1016 2553 972 2059 
L 3022 2063 
z
" id="DejaVuSans-65" transform="scale(0.015625)"/>
      </defs>
      <use xlink:href="#DejaVuSans-66"/>
      <use x="35.205078" xlink:href="#DejaVuSans-72"/>
      <use x="76.318359" xlink:href="#DejaVuSans-61"/>
      <use x="137.597656" xlink:href="#DejaVuSans-6d"/>
      <use x="235.009766" xlink:href="#DejaVuSans-65"/>
     </g>
    </g>
   </g>
   <g id="matplotlib.axis_2">
    <g id="ytick_1">
     <g id="line2d_8">
      <defs>
       <path d="M 0 0 
L -3.5 0 
" id="m23283c72c7" style="stroke:#000000;stroke-width:0.8;"/>
      </defs>
      <g>
       <use style="stroke:#000000;stroke-width:0.8;" x="50.14375" xlink:href="#m23283c72c7" y="536.23457"/>
      </g>
     </g>
     <g id="text_9">
      <!-- 1.25 -->
      <g transform="translate(20.878125 540.033789)scale(0.1 -0.1)">
       <defs>
        <path d="M 684 794 
L 1344 794 
L 1344 0 
L 684 0 
L 684 794 
z
" id="DejaVuSans-2e" transform="scale(0.015625)"/>
        <path d="M 691 4666 
L 3169 4666 
L 3169 4134 
L 1269 4134 
L 1269 2991 
Q 1406 3038 1543 3061 
Q 1681 3084 1819 3084 
Q 2600 3084 3056 2656 
Q 3513 2228 3513 1497 
Q 3513 744 3044 326 
Q 2575 -91 1722 -91 
Q 1428 -91 1123 -41 
Q 819 9 494 109 
L 494 744 
Q 775 591 1075 516 
Q 1375 441 1709 441 
Q 2250 441 2565 725 
Q 2881 1009 2881 1497 
Q 2881 1984 2565 2268 
Q 2250 2553 1709 2553 
Q 1456 2553 1204 2497 
Q 953 2441 691 2322 
L 691 4666 
z
" id="DejaVuSans-35" transform="scale(0.015625)"/>
       </defs>
       <use xlink:href="#DejaVuSans-31"/>
       <use x="63.623047" xlink:href="#DejaVuSans-2e"/>
       <use x="95.410156" xlink:href="#DejaVuSans-32"/>
       <use x="159.033203" xlink:href="#DejaVuSans-35"/>
      </g>
     </g>
    </g>
    <g id="ytick_2">
     <g id="line2d_9">
      <g>
       <use style="stroke:#000000;stroke-width:0.8;" x="50.14375" xlink:href="#m23283c72c7" y="462.273112"/>
      </g>
     </g>
     <g id="text_10">
      <!-- 1.50 -->
      <g transform="translate(20.878125 466.072331)scale(0.1 -0.1)">
       <use xlink:href="#DejaVuSans-31"/>
       <use x="63.623047" xlink:href="#DejaVuSans-2e"/>
       <use x="95.410156" xlink:href="#DejaVuSans-35"/>
       <use x="159.033203" xlink:href="#DejaVuSans-30"/>
      </g>
     </g>
    </g>
    <g id="ytick_3">
     <g id="line2d_10">
      <g>
       <use style="stroke:#000000;stroke-width:0.8;" x="50.14375" xlink:href="#m23283c72c7" y="388.311654"/>
      </g>
     </g>
     <g id="text_11">
      <!-- 1.75 -->
      <g transform="translate(20.878125 392.110873)scale(0.1 -0.1)">
       <defs>
        <path d="M 525 4666 
L 3525 4666 
L 3525 4397 
L 1831 0 
L 1172 0 
L 2766 4134 
L 525 4134 
L 525 4666 
z
" id="DejaVuSans-37" transform="scale(0.015625)"/>
       </defs>
       <use xlink:href="#DejaVuSans-31"/>
       <use x="63.623047" xlink:href="#DejaVuSans-2e"/>
       <use x="95.410156" xlink:href="#DejaVuSans-37"/>
       <use x="159.033203" xlink:href="#DejaVuSans-35"/>
      </g>
     </g>
    </g>
    <g id="ytick_4">
     <g id="line2d_11">
      <g>
       <use style="stroke:#000000;stroke-width:0.8;" x="50.14375" xlink:href="#m23283c72c7" y="314.350197"/>
      </g>
     </g>
     <g id="text_12">
      <!-- 2.00 -->
      <g transform="translate(20.878125 318.149415)scale(0.1 -0.1)">
       <use xlink:href="#DejaVuSans-32"/>
       <use x="63.623047" xlink:href="#DejaVuSans-2e"/>
       <use x="95.410156" xlink:href="#DejaVuSans-30"/>
       <use x="159.033203" xlink:href="#DejaVuSans-30"/>
      </g>
     </g>
    </g>
    <g id="ytick_5">
     <g id="line2d_12">
      <g>
       <use style="stroke:#000000;stroke-width:0.8;" x="50.14375" xlink:href="#m23283c72c7" y="240.388739"/>
      </g>
     </g>
     <g id="text_13">
      <!-- 2.25 -->
      <g transform="translate(20.878125 244.187958)scale(0.1 -0.1)">
       <use xlink:href="#DejaVuSans-32"/>
       <use x="63.623047" xlink:href="#DejaVuSans-2e"/>
       <use x="95.410156" xlink:href="#DejaVuSans-32"/>
       <use x="159.033203" xlink:href="#DejaVuSans-35"/>
      </g>
     </g>
    </g>
    <g id="ytick_6">
     <g id="line2d_13">
      <g>
       <use style="stroke:#000000;stroke-width:0.8;" x="50.14375" xlink:href="#m23283c72c7" y="166.427281"/>
      </g>
     </g>
     <g id="text_14">
      <!-- 2.50 -->
      <g transform="translate(20.878125 170.2265)scale(0.1 -0.1)">
       <use xlink:href="#DejaVuSans-32"/>
       <use x="63.623047" xlink:href="#DejaVuSans-2e"/>
       <use x="95.410156" xlink:href="#DejaVuSans-35"/>
       <use x="159.033203" xlink:href="#DejaVuSans-30"/>
      </g>
     </g>
    </g>
    <g id="ytick_7">
     <g id="line2d_14">
      <g>
       <use style="stroke:#000000;stroke-width:0.8;" x="50.14375" xlink:href="#m23283c72c7" y="92.465824"/>
      </g>
     </g>
     <g id="text_15">
      <!-- 2.75 -->
      <g transform="translate(20.878125 96.265042)scale(0.1 -0.1)">
       <use xlink:href="#DejaVuSans-32"/>
       <use x="63.623047" xlink:href="#DejaVuSans-2e"/>
       <use x="95.410156" xlink:href="#DejaVuSans-37"/>
       <use x="159.033203" xlink:href="#DejaVuSans-35"/>
      </g>
     </g>
    </g>
    <g id="text_16">
     <!-- GCaMP -->
     <g transform="translate(14.798438 322.349446)rotate(-90)scale(0.1 -0.1)">
      <defs>
       <path d="M 3809 666 
L 3809 1919 
L 2778 1919 
L 2778 2438 
L 4434 2438 
L 4434 434 
Q 4069 175 3628 42 
Q 3188 -91 2688 -91 
Q 1594 -91 976 548 
Q 359 1188 359 2328 
Q 359 3472 976 4111 
Q 1594 4750 2688 4750 
Q 3144 4750 3555 4637 
Q 3966 4525 4313 4306 
L 4313 3634 
Q 3963 3931 3569 4081 
Q 3175 4231 2741 4231 
Q 1884 4231 1454 3753 
Q 1025 3275 1025 2328 
Q 1025 1384 1454 906 
Q 1884 428 2741 428 
Q 3075 428 3337 486 
Q 3600 544 3809 666 
z
" id="DejaVuSans-47" transform="scale(0.015625)"/>
       <path d="M 4122 4306 
L 4122 3641 
Q 3803 3938 3442 4084 
Q 3081 4231 2675 4231 
Q 1875 4231 1450 3742 
Q 1025 3253 1025 2328 
Q 1025 1406 1450 917 
Q 1875 428 2675 428 
Q 3081 428 3442 575 
Q 3803 722 4122 1019 
L 4122 359 
Q 3791 134 3420 21 
Q 3050 -91 2638 -91 
Q 1578 -91 968 557 
Q 359 1206 359 2328 
Q 359 3453 968 4101 
Q 1578 4750 2638 4750 
Q 3056 4750 3426 4639 
Q 3797 4528 4122 4306 
z
" id="DejaVuSans-43" transform="scale(0.015625)"/>
       <path d="M 628 4666 
L 1569 4666 
L 2759 1491 
L 3956 4666 
L 4897 4666 
L 4897 0 
L 4281 0 
L 4281 4097 
L 3078 897 
L 2444 897 
L 1241 4097 
L 1241 0 
L 628 0 
L 628 4666 
z
" id="DejaVuSans-4d" transform="scale(0.015625)"/>
       <path d="M 1259 4147 
L 1259 2394 
L 2053 2394 
Q 2494 2394 2734 2622 
Q 2975 2850 2975 3272 
Q 2975 3691 2734 3919 
Q 2494 4147 2053 4147 
L 1259 4147 
z
M 628 4666 
L 2053 4666 
Q 2838 4666 3239 4311 
Q 3641 3956 3641 3272 
Q 3641 2581 3239 2228 
Q 2838 1875 2053 1875 
L 1259 1875 
L 1259 0 
L 628 0 
L 628 4666 
z
" id="DejaVuSans-50" transform="scale(0.015625)"/>
      </defs>
      <use xlink:href="#DejaVuSans-47"/>
      <use x="77.490234" xlink:href="#DejaVuSans-43"/>
      <use x="147.314453" xlink:href="#DejaVuSans-61"/>
      <use x="208.59375" xlink:href="#DejaVuSans-4d"/>
      <use x="294.873047" xlink:href="#DejaVuSans-50"/>
     </g>
    </g>
   </g>
   <g id="line2d_15">
    <path clip-path="url(#pf1ab7c594f)" d="M 126.234659 452.051247 
L 127.472916 466.249353 
L 128.711174 478.551242 
L 129.949431 487.693862 
L 131.187688 494.008045 
L 132.425945 497.870477 
L 133.664203 499.398754 
L 134.90246 499.065048 
L 136.140717 497.568877 
L 137.378974 495.194634 
L 138.617232 491.645275 
L 139.855489 486.703055 
L 141.093746 481.264259 
L 142.332004 477.447785 
L 143.570261 477.113058 
L 144.808518 480.346458 
L 146.046775 485.814664 
L 147.285033 492.03499 
L 148.52329 497.516593 
L 149.761547 500.732304 
L 150.999804 501.189669 
L 152.238062 499.833314 
L 153.476319 497.99307 
L 154.714576 496.759574 
L 155.952834 497.136214 
L 157.191091 499.643965 
L 158.429348 503.825608 
L 160.905863 513.190521 
L 162.14412 516.545492 
L 163.382377 517.818129 
L 164.620634 516.880556 
L 165.858892 514.780505 
L 167.097149 512.957735 
L 168.335406 512.562921 
L 169.573663 513.962176 
L 170.811921 516.261977 
L 172.050178 517.80498 
L 173.288435 517.630675 
L 174.526693 516.707544 
L 175.76495 517.254833 
L 177.003207 520.26567 
L 178.241464 524.328592 
L 179.479722 527.202905 
L 180.717979 527.686551 
L 181.956236 525.975797 
L 183.194493 523.585671 
L 184.432751 523.079907 
L 185.671008 526.13302 
L 186.909265 531.5531 
L 188.147522 536.333242 
L 189.38578 537.941626 
L 190.624037 535.261363 
L 191.862294 528.999403 
L 193.100552 521.942873 
L 194.338809 517.893779 
L 195.577066 519.189997 
L 196.815323 524.975633 
L 198.053581 531.967625 
L 199.291838 537.198931 
L 200.530095 540.289669 
L 201.768352 542.481237 
L 203.00661 544.039858 
L 204.244867 543.742955 
L 205.483124 540.520611 
L 206.721381 534.837055 
L 207.959639 528.413269 
L 209.197896 523.587151 
L 210.436153 522.561438 
L 211.674411 525.613335 
L 212.912668 530.594655 
L 214.150925 534.563665 
L 215.389182 535.25055 
L 216.62744 532.421604 
L 217.865697 528.889639 
L 219.103954 528.581114 
L 220.342211 533.003789 
L 221.580469 540.775124 
L 222.818726 549.698664 
L 224.056983 557.43377 
L 225.29524 561.202423 
L 226.533498 559.121506 
L 227.771755 551.893053 
L 230.24827 532.219344 
L 231.486527 524.640644 
L 232.724784 520.840986 
L 233.963041 521.167319 
L 235.201299 524.860868 
L 236.439556 530.119155 
L 237.677813 534.441786 
L 238.91607 536.108873 
L 240.154328 535.537547 
L 241.392585 534.483701 
L 242.630842 534.19603 
L 243.8691 534.952644 
L 245.107357 536.835925 
L 247.583871 543.337273 
L 248.822129 544.41427 
L 250.060386 540.90702 
L 252.5369 525.59438 
L 253.775158 520.346081 
L 255.013415 518.407143 
L 256.251672 517.993451 
L 258.728187 516.374406 
L 259.966444 518.131064 
L 261.204701 523.934743 
L 264.919473 550.209288 
L 266.15773 555.612591 
L 267.395988 558.386802 
L 268.634245 558.691161 
L 269.872502 556.893383 
L 271.110759 553.628817 
L 272.349017 549.222269 
L 273.587274 543.296994 
L 276.063788 528.919957 
L 277.302046 523.878397 
L 278.540303 521.057302 
L 279.77856 519.838242 
L 281.016818 520.085044 
L 282.255075 521.22398 
L 283.493332 522.009004 
L 284.731589 522.44179 
L 285.969847 523.827705 
L 287.208104 527.008837 
L 288.446361 532.076149 
L 290.922876 544.447514 
L 292.161133 547.001281 
L 293.39939 544.97016 
L 294.637647 540.41526 
L 295.875905 536.649163 
L 297.114162 535.216002 
L 298.352419 535.37223 
L 299.590677 535.36875 
L 300.828934 533.694087 
L 302.067191 530.160491 
L 303.305448 526.121002 
L 304.543706 522.933702 
L 307.02022 518.275279 
L 308.258477 515.533166 
L 309.496735 513.066239 
L 310.734992 512.144635 
L 311.973249 513.812261 
L 314.449764 521.650936 
L 315.688021 523.759993 
L 316.926278 523.996551 
L 318.164536 522.949761 
L 319.402793 520.803885 
L 320.64105 517.633387 
L 323.117565 510.046269 
L 324.355822 508.242499 
L 325.594079 509.740125 
L 326.832336 514.284863 
L 329.308851 526.58142 
L 330.547108 530.694388 
L 331.785366 531.004541 
L 333.023623 527.691537 
L 334.26188 523.659132 
L 335.500137 522.198964 
L 336.738395 523.662639 
L 339.214909 528.517696 
L 340.453166 532.089308 
L 341.691424 536.966047 
L 342.929681 541.001252 
L 344.167938 541.405932 
L 345.406195 537.204649 
L 346.644453 529.35786 
L 349.120967 510.998865 
L 350.359225 504.940558 
L 351.597482 502.719327 
L 352.835739 503.747634 
L 354.073996 505.900688 
L 355.312254 507.360418 
L 356.550511 507.727915 
L 357.788768 507.084748 
L 359.027025 505.234303 
L 360.265283 502.079304 
L 361.50354 497.771867 
L 362.741797 492.299878 
L 363.980054 485.936442 
L 365.218312 480.54867 
L 366.456569 479.182928 
L 367.694826 483.281383 
L 368.933084 491.387588 
L 371.409598 509.977306 
L 372.647855 516.762084 
L 373.886113 519.768105 
L 375.12437 517.895875 
L 376.362627 510.71211 
L 378.839142 486.940226 
L 380.077399 478.902991 
L 381.315656 477.596127 
L 382.553913 482.000422 
L 383.792171 489.361551 
L 386.268685 505.168177 
L 387.506943 510.77006 
L 388.7452 512.765836 
L 389.983457 511.382858 
L 391.221714 507.994149 
L 392.459972 503.476663 
L 393.698229 498.011725 
L 396.174743 486.240113 
L 397.413001 481.572034 
L 399.889515 474.047952 
L 401.127772 470.538823 
L 402.36603 467.896164 
L 403.604287 466.897048 
L 406.080802 467.361075 
L 407.319059 467.469793 
L 408.557316 469.473668 
L 409.795573 474.777195 
L 412.272088 491.939961 
L 413.510345 498.224916 
L 414.748602 499.91589 
L 415.98686 497.413655 
L 418.463374 488.09881 
L 419.701632 486.487937 
L 422.178146 488.576291 
L 423.416403 488.112271 
L 427.131175 483.953849 
L 428.369432 481.763642 
L 430.845947 475.512784 
L 433.322461 469.502384 
L 434.560719 467.662107 
L 435.798976 467.98572 
L 437.037233 470.856819 
L 438.275491 475.554306 
L 439.513748 480.753491 
L 440.752005 485.193104 
L 441.990262 488.019285 
L 443.22852 488.753866 
L 444.466777 487.219492 
L 446.943291 480.493178 
L 448.181549 478.126005 
L 449.419806 477.000857 
L 450.658063 476.633171 
L 451.89632 477.141553 
L 453.134578 479.017041 
L 455.611092 485.627227 
L 456.84935 487.972221 
L 458.087607 488.453455 
L 459.325864 487.449061 
L 460.564121 485.809862 
L 461.802379 483.730628 
L 463.040636 480.410545 
L 465.51715 470.16577 
L 466.755408 466.65477 
L 467.993665 465.343886 
L 469.231922 465.594528 
L 470.470179 467.142886 
L 471.708437 469.829911 
L 472.946694 472.965679 
L 474.184951 475.70723 
L 475.423209 477.544332 
L 476.661466 478.392328 
L 477.899723 478.469756 
L 479.13798 477.909227 
L 480.376238 476.47628 
L 482.852752 471.415323 
L 484.091009 470.533298 
L 485.329267 472.69332 
L 486.567524 476.557235 
L 487.805781 478.737144 
L 489.044038 477.323233 
L 490.282296 473.943666 
L 491.520553 471.751497 
L 492.75881 472.11022 
L 493.997068 473.349124 
L 495.235325 472.369741 
L 496.473582 467.329435 
L 498.950097 451.174454 
L 500.188354 446.607214 
L 501.426611 446.581133 
L 502.664868 449.785598 
L 503.903126 453.405585 
L 505.141383 454.112249 
L 506.37964 449.385053 
L 507.617897 439.442045 
L 508.856155 427.965661 
L 510.094412 419.639945 
L 511.332669 417.239934 
L 512.570927 420.617088 
L 513.809184 426.720907 
L 515.047441 431.730645 
L 516.285698 433.875776 
L 517.523956 433.321132 
L 518.762213 430.765933 
L 520.00047 427.274891 
L 521.238727 424.224063 
L 522.476985 422.790015 
L 523.715242 423.435151 
L 524.953499 425.371123 
L 526.191757 427.060261 
L 527.430014 427.660361 
L 528.668271 427.473093 
L 529.906528 427.110421 
L 531.144786 426.60657 
L 532.383043 425.872349 
L 533.6213 425.80392 
L 534.859557 427.499735 
L 537.336072 433.633502 
L 538.574329 435.073287 
L 539.812586 434.226378 
L 541.050844 431.458726 
L 542.289101 427.998017 
L 543.527358 424.921097 
L 544.765616 422.430041 
L 546.003873 420.334868 
L 547.24213 418.623845 
L 548.480387 417.478128 
L 549.718645 417.490927 
L 550.956902 419.53122 
L 552.195159 423.64641 
L 553.433416 428.400061 
L 554.671674 432.108742 
L 557.148188 437.079585 
L 558.386445 440.434619 
L 560.86296 449.240581 
L 562.101217 450.934728 
L 563.339475 448.898142 
L 564.577732 443.938361 
L 567.054246 431.418742 
L 568.292504 426.583603 
L 569.530761 424.366102 
L 570.769018 425.934977 
L 572.007275 431.480149 
L 573.245533 438.593158 
L 574.48379 443.02173 
L 575.722047 442.562601 
L 576.960304 438.285109 
L 580.675076 420.261663 
L 581.913334 416.303237 
L 583.151591 413.127343 
L 584.389848 410.522781 
L 585.628105 409.21467 
L 586.866363 410.058302 
L 588.10462 413.29458 
L 589.342877 417.612996 
L 590.581134 420.222667 
L 591.819392 419.634575 
L 593.057649 417.206551 
L 594.295906 415.45129 
L 595.534163 416.620397 
L 596.772421 421.387496 
L 598.010678 427.254766 
L 599.248935 430.401263 
L 600.487193 429.379911 
L 601.72545 425.19304 
L 602.963707 419.162486 
L 606.678479 398.026074 
L 607.916736 392.653683 
L 609.154993 390.857945 
L 610.393251 392.673764 
L 611.631508 394.713567 
L 612.869765 393.353663 
L 614.108023 389.368764 
L 615.34628 387.032927 
L 616.584537 389.118341 
L 617.822794 395.034412 
L 619.061052 402.536448 
L 620.299309 409.175732 
L 621.537566 413.143758 
L 622.775823 414.235724 
L 624.014081 414.051186 
L 625.252338 414.056736 
L 627.728852 413.830588 
L 628.96711 416.031059 
L 631.443624 426.508921 
L 632.681882 427.053878 
L 633.920139 421.076234 
L 636.396653 400.73486 
L 637.634911 396.40525 
L 638.873168 398.793947 
L 640.111425 406.266122 
L 641.349682 416.788074 
L 642.58794 428.278392 
L 643.826197 438.609239 
L 645.064454 445.714044 
L 646.302711 447.232911 
L 647.540969 442.018332 
L 651.255741 411.80141 
L 652.493998 401.542781 
L 653.732255 389.231929 
L 656.20877 362.476141 
L 657.447027 352.341303 
L 658.685284 346.158147 
L 659.923541 343.898287 
L 661.161799 343.983673 
L 662.400056 343.696916 
L 663.638313 340.766694 
L 664.87657 334.570308 
L 666.114828 326.556704 
L 667.353085 319.609716 
L 668.591342 315.881192 
L 669.8296 315.922994 
L 671.067857 319.853303 
L 673.544371 334.085969 
L 674.782629 338.412879 
L 677.259143 341.178876 
L 678.4974 344.964955 
L 679.735658 350.344091 
L 680.973915 354.984436 
L 682.212172 357.39013 
L 683.450429 357.217004 
L 684.688687 354.161055 
L 685.926944 347.707272 
L 688.403459 328.194249 
L 689.641716 322.035712 
L 690.879973 324.51755 
L 692.11823 336.05249 
L 694.594745 368.814069 
L 695.833002 381.538626 
L 697.071259 388.968318 
L 698.309517 391.955688 
L 699.547774 393.29179 
L 700.786031 395.559728 
L 702.024289 398.719341 
L 703.262546 400.467565 
L 704.500803 399.20564 
L 706.977318 392.088001 
L 708.215575 390.770264 
L 709.453832 392.340512 
L 711.930347 398.784702 
L 713.168604 399.631183 
L 714.406861 396.297014 
L 715.645118 388.398912 
L 716.883376 377.951732 
L 718.121633 368.463256 
L 719.35989 363.25717 
L 720.598148 363.725179 
L 723.074662 372.670798 
L 724.312919 374.454833 
L 725.551177 372.981062 
L 726.789434 369.141883 
L 730.504206 353.495555 
L 731.742463 350.001216 
L 732.98072 348.659856 
L 734.218977 350.094007 
L 735.457235 353.814049 
L 736.695492 358.037985 
L 737.933749 360.729516 
L 739.172007 360.858748 
L 740.410264 358.906007 
L 741.648521 356.61994 
L 742.886778 355.52185 
L 744.125036 355.556248 
L 746.60155 356.108257 
L 747.839807 356.990581 
L 749.078065 359.446042 
L 750.316322 363.232537 
L 751.554579 366.576679 
L 752.792836 368.189587 
L 754.031094 368.601492 
L 755.269351 369.311525 
L 756.507608 371.865003 
L 757.745866 377.000606 
L 758.984123 383.442685 
L 760.22238 388.156436 
L 761.460637 388.680721 
L 762.698895 384.929286 
L 766.413666 365.556664 
L 768.890181 355.283322 
L 770.128438 350.901022 
L 771.366695 348.792995 
L 772.604953 350.575533 
L 773.84321 357.688432 
L 775.081467 370.861605 
L 776.319725 387.648341 
L 777.557982 402.403689 
L 778.796239 410.338009 
L 780.034496 410.915419 
L 781.272754 407.175661 
L 783.749268 396.955805 
L 784.987525 390.789898 
L 788.702297 369.259298 
L 789.940554 365.139573 
L 791.178812 365.450034 
L 792.417069 370.016959 
L 793.655326 376.042838 
L 794.893584 379.218433 
L 796.131841 376.858133 
L 798.608355 364.013147 
L 799.846613 361.456625 
L 801.08487 362.704401 
L 804.799642 372.116807 
L 806.037899 374.036343 
L 807.276156 374.732183 
L 808.514414 374.169081 
L 809.752671 372.43153 
L 810.990928 368.913583 
L 812.229185 363.829397 
L 813.467443 360.176557 
L 814.7057 361.508883 
L 815.943957 368.170332 
L 817.182214 377.038263 
L 818.420472 384.461933 
L 819.658729 388.171944 
L 820.896986 387.029543 
L 822.135243 380.928472 
L 823.373501 370.782013 
L 825.850015 346.403859 
L 827.088273 338.608175 
L 828.32653 337.000539 
L 829.564787 340.146733 
L 830.803044 344.045155 
L 832.041302 345.922467 
L 833.279559 345.900089 
L 834.517816 344.815853 
L 835.756073 342.218369 
L 836.994331 336.464975 
L 838.232588 326.678631 
L 841.94736 290.532301 
L 843.185617 280.273901 
L 844.423874 274.937636 
L 845.662132 275.350864 
L 846.900389 278.005824 
L 848.138646 278.220995 
L 849.376903 273.541286 
L 850.615161 263.437696 
L 851.853418 247.124577 
L 853.091675 224.360138 
L 855.56819 171.925075 
L 856.806447 149.467762 
L 858.044704 130.676136 
L 859.282961 115.04035 
L 860.521219 102.719409 
L 861.759476 93.819976 
L 862.997733 87.56421 
L 864.235991 83.582216 
L 865.474248 82.783228 
L 866.712505 85.835477 
L 867.950762 92.295195 
L 869.18902 101.463731 
L 871.665534 123.164516 
L 872.903791 132.119051 
L 875.380306 148.495213 
L 881.571592 194.516719 
L 882.80985 206.774757 
L 886.524621 252.478828 
L 887.762879 261.608729 
L 889.001136 262.851369 
L 890.239393 256.710158 
L 891.47765 247.811684 
L 892.715908 242.778621 
L 893.954165 246.289789 
L 895.192422 257.857834 
L 896.43068 272.513074 
L 897.668937 284.683445 
L 898.907194 291.360027 
L 900.145451 291.957941 
L 901.383709 286.280258 
L 902.621966 274.719025 
L 903.860223 260.465282 
L 905.09848 249.177445 
L 906.336738 245.003139 
L 907.574995 247.787943 
L 908.813252 254.751694 
L 911.289767 271.845346 
L 912.528024 280.96489 
L 913.766281 292.183984 
L 915.004539 306.768929 
L 916.242796 323.096538 
L 917.481053 335.716005 
L 918.71931 338.855874 
L 919.957568 331.111338 
L 922.434082 300.875287 
L 923.672339 289.313436 
L 924.910597 282.631781 
L 926.148854 279.241364 
L 927.387111 277.577161 
L 928.625368 277.107538 
L 929.863626 277.149377 
L 931.101883 275.889051 
L 932.34014 271.990533 
L 934.816655 260.904668 
L 936.054912 256.955645 
L 937.293169 255.273943 
L 938.531427 257.01897 
L 939.769684 263.165075 
L 941.007941 273.036257 
L 943.484456 295.193915 
L 944.722713 303.402032 
L 945.96097 307.649094 
L 947.199227 307.348166 
L 948.437485 303.202605 
L 949.675742 297.088721 
L 950.913999 292.003195 
L 952.152257 290.918294 
L 953.390514 294.161588 
L 954.628771 299.385168 
L 955.867028 304.079172 
L 957.105286 306.591171 
L 958.343543 306.266983 
L 959.5818 303.613102 
L 960.820057 299.369871 
L 962.058315 293.871696 
L 963.296572 287.85096 
L 964.534829 283.092785 
L 965.773086 281.47373 
L 967.011344 283.569317 
L 968.249601 288.742978 
L 969.487858 296.026788 
L 971.964373 312.916868 
L 973.20263 319.732099 
L 974.440887 322.970445 
L 975.679145 321.685464 
L 976.917402 317.403536 
L 978.155659 314.538975 
L 979.393916 317.108023 
L 980.632174 324.584372 
L 983.108688 342.619552 
L 984.346946 350.7531 
L 985.585203 356.305539 
L 986.82346 356.898992 
L 988.061717 352.179059 
L 989.299975 344.697439 
L 990.538232 338.044979 
L 991.776489 334.69949 
L 993.014746 335.08105 
L 994.253004 337.37126 
L 995.491261 338.369713 
L 996.729518 335.547462 
L 997.967775 328.947223 
L 999.206033 321.408986 
L 1000.44429 316.697548 
L 1001.682547 316.987129 
L 1002.920805 321.753251 
L 1004.159062 328.991607 
L 1006.635576 346.525731 
L 1007.873834 355.312196 
L 1009.112091 361.986113 
L 1010.350348 364.602278 
L 1011.588605 362.544831 
L 1014.06512 353.233165 
L 1015.303377 349.705889 
L 1016.541634 347.305282 
L 1017.779892 346.698724 
L 1019.018149 348.099154 
L 1020.256406 349.83476 
L 1021.494664 349.696669 
L 1022.732921 347.037811 
L 1025.209435 338.314419 
L 1026.447693 335.004885 
L 1027.68595 333.102454 
L 1028.924207 331.473853 
L 1030.162464 329.16989 
L 1031.400722 326.230952 
L 1032.638979 322.706234 
L 1033.877236 318.282753 
L 1035.115493 312.548776 
L 1036.353751 305.916024 
L 1037.592008 300.476983 
L 1038.830265 298.550977 
L 1040.068523 300.986018 
L 1042.545037 311.786994 
L 1043.783294 312.662948 
L 1045.021552 308.005334 
L 1047.498066 291.771485 
L 1048.736323 288.00646 
L 1049.974581 290.131754 
L 1051.212838 295.791629 
L 1052.451095 300.465586 
L 1053.689352 301.179689 
L 1054.92761 297.813002 
L 1056.165867 291.644193 
L 1059.880639 269.068161 
L 1061.118896 266.140708 
L 1062.357153 267.8553 
L 1063.595411 273.273472 
L 1064.833668 279.857976 
L 1066.071925 284.613622 
L 1067.310182 286.125803 
L 1068.54844 284.930685 
L 1069.786697 282.250196 
L 1071.024954 279.25908 
L 1072.263211 276.950652 
L 1073.501469 276.117237 
L 1074.739726 277.488223 
L 1075.977983 281.840706 
L 1078.454498 296.315203 
L 1079.692755 299.629583 
L 1080.931012 296.639468 
L 1082.16927 288.355239 
L 1083.407527 278.59138 
L 1084.645784 272.039728 
L 1085.884041 270.615297 
L 1087.122299 272.272761 
L 1088.360556 274.678167 
L 1089.598813 277.724233 
L 1090.837071 281.943097 
L 1093.313585 292.51334 
L 1094.551842 296.628913 
L 1095.7901 297.775363 
L 1097.028357 295.602048 
L 1098.266614 291.85887 
L 1099.504871 289.238197 
L 1100.743129 288.939681 
L 1103.219643 290.963214 
L 1104.4579 291.230749 
L 1105.696158 289.382153 
L 1106.934415 283.962378 
L 1108.172672 274.547492 
L 1110.649187 249.619251 
L 1111.887444 240.665678 
L 1113.125701 237.626026 
L 1114.363959 241.167051 
L 1115.602216 250.579956 
L 1116.840473 262.530142 
L 1118.07873 271.504678 
L 1119.316988 273.70284 
L 1120.555245 270.157778 
L 1121.793502 264.467166 
L 1123.031759 258.18648 
L 1124.270017 251.250515 
L 1125.508274 245.120885 
L 1126.746531 242.217297 
L 1127.984789 243.342314 
L 1129.223046 247.121073 
L 1130.461303 251.688383 
L 1131.69956 255.816506 
L 1132.937818 258.383177 
L 1134.176075 258.884305 
L 1135.414332 258.493016 
L 1136.652589 258.892877 
L 1137.890847 260.677952 
L 1139.129104 263.732374 
L 1140.367361 268.821764 
L 1141.605618 278.059288 
L 1142.843876 292.493889 
L 1144.082133 309.258436 
L 1145.32039 322.384457 
L 1146.558648 327.002298 
L 1147.796905 322.499196 
L 1149.035162 312.041426 
L 1150.273419 300.492272 
L 1151.511677 292.188216 
L 1152.749934 289.03255 
L 1153.988191 290.538087 
L 1155.226448 295.689564 
L 1156.464706 303.901625 
L 1157.702963 313.308405 
L 1158.94122 320.425191 
L 1160.179477 323.66696 
L 1161.417735 324.20231 
L 1162.655992 322.237245 
L 1163.894249 315.914483 
L 1165.132507 304.299369 
L 1167.609021 274.03698 
L 1168.847278 262.952607 
L 1170.085536 257.993702 
L 1171.323793 257.973045 
L 1172.56205 260.857398 
L 1173.800307 266.606721 
L 1176.276822 284.784094 
L 1177.515079 289.468725 
L 1178.753337 286.7792 
L 1179.991594 279.155323 
L 1181.229851 272.661447 
L 1182.468108 272.086416 
L 1183.706366 277.859063 
L 1186.18288 296.304101 
L 1187.421137 302.143989 
L 1188.659395 304.091509 
L 1189.897652 304.111987 
L 1191.135909 303.051109 
L 1192.374166 299.052842 
L 1193.612424 291.329832 
L 1194.850681 282.425154 
L 1196.088938 275.782675 
L 1197.327196 273.527319 
L 1198.565453 276.81209 
L 1199.80371 285.904361 
L 1201.041967 299.750962 
L 1202.280225 315.726592 
L 1203.518482 329.350775 
L 1204.756739 336.380463 
L 1205.994996 335.732462 
L 1207.233254 328.719744 
L 1208.471511 316.254096 
L 1209.709768 299.035208 
L 1210.948025 280.195847 
L 1212.186283 264.483399 
L 1213.42454 254.37995 
L 1214.662797 249.330622 
L 1215.901055 247.57018 
L 1217.139312 247.358589 
L 1218.377569 247.982336 
L 1219.615826 249.742106 
L 1220.854084 253.427404 
L 1222.092341 260.515301 
L 1224.568855 281.580754 
L 1225.807113 286.694832 
L 1227.04537 284.91728 
L 1228.283627 279.241718 
L 1229.521884 274.353528 
L 1230.760142 273.220473 
L 1231.998399 275.654822 
L 1233.236656 278.935933 
L 1234.474914 280.218658 
L 1235.713171 278.559175 
L 1236.951428 274.153573 
L 1238.189685 268.156287 
L 1239.427943 263.82661 
L 1240.6662 264.008892 
L 1241.904457 267.4327 
L 1243.142714 269.865083 
L 1244.380972 268.324612 
L 1245.619229 263.512345 
L 1249.334001 245.62637 
L 1250.572258 242.785374 
L 1251.810515 244.859344 
L 1253.048773 251.943179 
L 1255.525287 271.665908 
L 1256.763544 277.907547 
L 1258.001802 280.183539 
L 1259.240059 279.681854 
L 1260.478316 278.391806 
L 1261.716573 278.201903 
L 1262.954831 279.788459 
L 1264.193088 281.789714 
L 1265.431345 282.096383 
L 1266.669603 280.219343 
L 1267.90786 277.398238 
L 1269.146117 274.254829 
L 1270.384374 269.480457 
L 1272.860889 256.080834 
L 1274.099146 253.562074 
L 1275.337403 255.602421 
L 1276.575661 260.358891 
L 1277.813918 264.516827 
L 1279.052175 264.462645 
L 1280.290432 258.394614 
L 1281.52869 247.166622 
L 1284.005204 221.194813 
L 1285.243462 212.125118 
L 1286.481719 206.400538 
L 1287.719976 203.792855 
L 1288.958233 205.322084 
L 1290.196491 211.95478 
L 1291.434748 222.728951 
L 1293.911262 246.848559 
L 1297.626034 278.46184 
L 1298.864291 285.796948 
L 1300.102549 287.893536 
L 1301.340806 284.792496 
L 1302.579063 278.084443 
L 1306.293835 251.675588 
L 1307.532092 244.49671 
L 1308.77035 239.28819 
L 1310.008607 238.020522 
L 1311.246864 240.986561 
L 1312.485121 246.623676 
L 1316.199893 267.339128 
L 1317.43815 270.338787 
L 1318.676408 268.014417 
L 1319.914665 260.830289 
L 1321.152922 252.646901 
L 1322.39118 247.982522 
L 1323.629437 247.952375 
L 1324.867694 249.152646 
L 1326.105951 246.783623 
L 1327.344209 238.810748 
L 1329.820723 216.460269 
L 1331.05898 209.718531 
L 1332.297238 208.749288 
L 1333.535495 214.110954 
L 1336.012009 234.132918 
L 1338.488524 250.681823 
L 1339.726781 260.835885 
L 1340.965039 269.892147 
L 1342.203296 272.005922 
L 1343.441553 263.986292 
L 1345.918068 233.189166 
L 1347.156325 222.953569 
L 1348.394582 220.371761 
L 1349.632839 224.827951 
L 1352.109354 241.785512 
L 1353.347611 244.030124 
L 1354.585868 237.924363 
L 1355.824126 226.953978 
L 1357.062383 217.361265 
L 1358.30064 213.423609 
L 1359.538898 215.463486 
L 1362.015412 226.641713 
L 1363.253669 230.803546 
L 1364.491927 234.01022 
L 1365.730184 238.293083 
L 1366.968441 243.331625 
L 1368.206698 247.323723 
L 1369.444956 250.087011 
L 1370.683213 252.011106 
L 1371.92147 252.366355 
L 1373.159728 250.101117 
L 1374.397985 245.68064 
L 1375.636242 242.104492 
L 1376.874499 243.676033 
L 1378.112757 252.828314 
L 1379.351014 267.10774 
L 1380.589271 279.442432 
L 1381.827528 283.400702 
L 1383.065786 278.457774 
L 1388.018815 239.167728 
L 1389.257072 232.097443 
L 1390.495329 231.49911 
L 1391.733587 238.285349 
L 1392.971844 247.159543 
L 1394.210101 252.295846 
L 1395.448358 251.969816 
L 1396.686616 247.666135 
L 1397.924873 241.846467 
L 1399.16313 236.865154 
L 1400.401387 233.93541 
L 1401.639645 231.989241 
L 1402.877902 228.132182 
L 1404.116159 220.107802 
L 1405.354416 209.077227 
L 1406.592674 199.589858 
L 1407.830931 196.760247 
L 1409.069188 203.313147 
L 1410.307446 217.4672 
L 1411.545703 233.601131 
L 1412.78396 246.019171 
L 1414.022217 251.878649 
L 1415.260475 251.457491 
L 1416.498732 246.690141 
L 1417.736989 238.89887 
L 1418.975246 228.243394 
L 1420.213504 215.899922 
L 1421.451761 205.066414 
L 1422.690018 198.608607 
L 1423.928275 196.577682 
L 1425.166533 196.64884 
L 1426.40479 196.855387 
L 1427.643047 197.899615 
L 1428.881305 202.609616 
L 1430.119562 212.363755 
L 1431.357819 224.477514 
L 1432.596076 233.812238 
L 1433.834334 236.344829 
L 1435.072591 231.392762 
L 1437.549105 211.249498 
L 1438.787363 205.651722 
L 1440.02562 206.693767 
L 1441.263877 211.841372 
L 1442.502134 216.391106 
L 1443.740392 216.951528 
L 1444.978649 213.066006 
L 1446.216906 206.100265 
L 1448.693421 188.970346 
L 1449.931678 183.5209 
L 1451.169935 183.608667 
L 1452.408193 188.474465 
L 1453.64645 194.323926 
L 1454.884707 197.27514 
L 1456.122964 195.849032 
L 1458.599479 186.969613 
L 1459.837736 183.870608 
L 1461.075994 182.433209 
L 1462.314251 182.338355 
L 1463.552508 183.198585 
L 1464.790765 185.080597 
L 1466.029023 187.683484 
L 1468.505537 191.946973 
L 1469.743794 195.889941 
L 1470.982052 201.017866 
L 1472.220309 202.207415 
L 1473.458566 194.875821 
L 1475.935081 167.054116 
L 1477.173338 159.269633 
L 1478.411595 159.835896 
L 1479.649853 167.822983 
L 1483.364624 204.170644 
L 1487.079396 242.333114 
L 1488.317653 247.879578 
L 1489.555911 242.012826 
L 1490.794168 223.925957 
L 1492.032425 199.497134 
L 1493.270682 178.330775 
L 1494.50894 166.53473 
L 1495.747197 162.654908 
L 1499.461969 159.843166 
L 1500.700226 160.451997 
L 1501.938483 165.932103 
L 1503.176741 177.432482 
L 1504.414998 191.966553 
L 1505.653255 205.134755 
L 1506.891512 213.420045 
L 1508.12977 213.920012 
L 1509.368027 205.209665 
L 1510.606284 189.323491 
L 1511.844541 171.126763 
L 1513.082799 154.786519 
L 1514.321056 142.423388 
L 1515.559313 134.978318 
L 1516.797571 131.597637 
L 1518.035828 131.232513 
L 1519.274085 134.686575 
L 1521.7506 148.551392 
L 1522.988857 153.272983 
L 1524.227114 154.979827 
L 1525.465371 153.558862 
L 1526.703629 149.465814 
L 1527.941886 144.219123 
L 1529.180143 140.494965 
L 1530.4184 141.700485 
L 1531.656658 149.352885 
L 1532.894915 160.636708 
L 1534.133172 170.336315 
L 1535.37143 174.982901 
L 1536.609687 174.880183 
L 1537.847944 173.090791 
L 1539.086201 172.59054 
L 1540.324459 173.991978 
L 1541.562716 174.976497 
L 1542.800973 171.226137 
L 1544.03923 159.951268 
L 1546.515745 125.1389 
L 1547.754002 110.694303 
L 1548.99226 102.66165 
L 1550.230517 101.761556 
L 1551.468774 106.443129 
L 1552.707031 113.418255 
L 1553.945289 117.994153 
L 1555.183546 117.945711 
L 1556.421803 117.093215 
L 1557.66006 121.743906 
L 1558.898318 135.312273 
L 1560.136575 156.680972 
L 1561.374832 180.673557 
L 1562.613089 200.337823 
L 1563.851347 209.852063 
L 1565.089604 205.61908 
L 1566.327861 187.952947 
L 1567.566119 163.112348 
L 1568.804376 141.300109 
L 1570.042633 130.595866 
L 1571.28089 130.722986 
L 1572.519148 133.820566 
L 1573.757405 133.101868 
L 1574.995662 129.506856 
L 1576.233919 130.035762 
L 1577.472177 139.387162 
L 1578.710434 153.69747 
L 1579.948691 164.671572 
L 1581.186948 167.143181 
L 1582.425206 160.59742 
L 1583.663463 146.681948 
L 1584.90172 127.202646 
L 1586.139978 105.312519 
L 1587.378235 87.841103 
L 1588.616492 82.522846 
L 1589.854749 91.643075 
L 1592.331264 127.07193 
L 1593.569521 136.437094 
L 1594.807778 138.308927 
L 1597.284293 137.660495 
L 1598.52255 135.800856 
L 1599.760807 132.351593 
L 1600.999065 130.875429 
L 1602.237322 133.902303 
L 1603.475579 138.902917 
L 1604.713837 141.56795 
L 1605.952094 141.524 
L 1607.190351 141.599621 
L 1608.428608 142.415084 
L 1609.666866 140.223374 
L 1610.905123 131.063169 
L 1612.14338 115.589564 
L 1614.619895 81.391983 
L 1615.858152 67.695298 
L 1617.096409 57.425035 
L 1618.334666 50.713049 
L 1619.572924 47.979282 
L 1620.811181 50.411902 
L 1622.049438 58.169122 
L 1624.525953 80.501367 
L 1625.76421 89.386049 
L 1627.002467 92.910802 
L 1628.240725 90.460047 
L 1629.478982 83.471297 
L 1631.955496 63.601087 
L 1633.193754 55.788196 
L 1634.432011 53.004433 
L 1635.670268 56.041845 
L 1636.908526 62.773706 
L 1638.146783 70.12366 
L 1639.38504 76.126071 
L 1640.623297 79.959067 
L 1641.861555 81.537307 
L 1643.099812 81.544537 
L 1644.338069 81.077462 
L 1645.576326 80.107094 
L 1646.814584 76.97028 
L 1648.052841 71.211747 
L 1648.052841 71.211747 
" style="fill:none;stroke:#008000;stroke-linecap:square;stroke-width:1.5;"/>
   </g>
   <g id="patch_3">
    <path d="M 50.14375 586.86358 
L 50.14375 22.318125 
" style="fill:none;stroke:#000000;stroke-linecap:square;stroke-linejoin:miter;stroke-width:0.8;"/>
   </g>
   <g id="patch_4">
    <path d="M 1724.14375 586.86358 
L 1724.14375 22.318125 
" style="fill:none;stroke:#000000;stroke-linecap:square;stroke-linejoin:miter;stroke-width:0.8;"/>
   </g>
   <g id="patch_5">
    <path d="M 50.14375 586.86358 
L 1724.14375 586.86358 
" style="fill:none;stroke:#000000;stroke-linecap:square;stroke-linejoin:miter;stroke-width:0.8;"/>
   </g>
   <g id="patch_6">
    <path d="M 50.14375 22.318125 
L 1724.14375 22.318125 
" style="fill:none;stroke:#000000;stroke-linecap:square;stroke-linejoin:miter;stroke-width:0.8;"/>
   </g>
   <g id="text_17">
    <!-- before binarisation -->
    <g transform="translate(830.545 16.318125)scale(0.12 -0.12)">
     <defs>
      <path d="M 3116 1747 
Q 3116 2381 2855 2742 
Q 2594 3103 2138 3103 
Q 1681 3103 1420 2742 
Q 1159 2381 1159 1747 
Q 1159 1113 1420 752 
Q 1681 391 2138 391 
Q 2594 391 2855 752 
Q 3116 1113 3116 1747 
z
M 1159 2969 
Q 1341 3281 1617 3432 
Q 1894 3584 2278 3584 
Q 2916 3584 3314 3078 
Q 3713 2572 3713 1747 
Q 3713 922 3314 415 
Q 2916 -91 2278 -91 
Q 1894 -91 1617 61 
Q 1341 213 1159 525 
L 1159 0 
L 581 0 
L 581 4863 
L 1159 4863 
L 1159 2969 
z
" id="DejaVuSans-62" transform="scale(0.015625)"/>
      <path d="M 1959 3097 
Q 1497 3097 1228 2736 
Q 959 2375 959 1747 
Q 959 1119 1226 758 
Q 1494 397 1959 397 
Q 2419 397 2687 759 
Q 2956 1122 2956 1747 
Q 2956 2369 2687 2733 
Q 2419 3097 1959 3097 
z
M 1959 3584 
Q 2709 3584 3137 3096 
Q 3566 2609 3566 1747 
Q 3566 888 3137 398 
Q 2709 -91 1959 -91 
Q 1206 -91 779 398 
Q 353 888 353 1747 
Q 353 2609 779 3096 
Q 1206 3584 1959 3584 
z
" id="DejaVuSans-6f" transform="scale(0.015625)"/>
      <path id="DejaVuSans-20" transform="scale(0.015625)"/>
      <path d="M 603 3500 
L 1178 3500 
L 1178 0 
L 603 0 
L 603 3500 
z
M 603 4863 
L 1178 4863 
L 1178 4134 
L 603 4134 
L 603 4863 
z
" id="DejaVuSans-69" transform="scale(0.015625)"/>
      <path d="M 3513 2113 
L 3513 0 
L 2938 0 
L 2938 2094 
Q 2938 2591 2744 2837 
Q 2550 3084 2163 3084 
Q 1697 3084 1428 2787 
Q 1159 2491 1159 1978 
L 1159 0 
L 581 0 
L 581 3500 
L 1159 3500 
L 1159 2956 
Q 1366 3272 1645 3428 
Q 1925 3584 2291 3584 
Q 2894 3584 3203 3211 
Q 3513 2838 3513 2113 
z
" id="DejaVuSans-6e" transform="scale(0.015625)"/>
      <path d="M 2834 3397 
L 2834 2853 
Q 2591 2978 2328 3040 
Q 2066 3103 1784 3103 
Q 1356 3103 1142 2972 
Q 928 2841 928 2578 
Q 928 2378 1081 2264 
Q 1234 2150 1697 2047 
L 1894 2003 
Q 2506 1872 2764 1633 
Q 3022 1394 3022 966 
Q 3022 478 2636 193 
Q 2250 -91 1575 -91 
Q 1294 -91 989 -36 
Q 684 19 347 128 
L 347 722 
Q 666 556 975 473 
Q 1284 391 1588 391 
Q 1994 391 2212 530 
Q 2431 669 2431 922 
Q 2431 1156 2273 1281 
Q 2116 1406 1581 1522 
L 1381 1569 
Q 847 1681 609 1914 
Q 372 2147 372 2553 
Q 372 3047 722 3315 
Q 1072 3584 1716 3584 
Q 2034 3584 2315 3537 
Q 2597 3491 2834 3397 
z
" id="DejaVuSans-73" transform="scale(0.015625)"/>
      <path d="M 1172 4494 
L 1172 3500 
L 2356 3500 
L 2356 3053 
L 1172 3053 
L 1172 1153 
Q 1172 725 1289 603 
Q 1406 481 1766 481 
L 2356 481 
L 2356 0 
L 1766 0 
Q 1100 0 847 248 
Q 594 497 594 1153 
L 594 3053 
L 172 3053 
L 172 3500 
L 594 3500 
L 594 4494 
L 1172 4494 
z
" id="DejaVuSans-74" transform="scale(0.015625)"/>
     </defs>
     <use xlink:href="#DejaVuSans-62"/>
     <use x="63.476562" xlink:href="#DejaVuSans-65"/>
     <use x="125" xlink:href="#DejaVuSans-66"/>
     <use x="160.205078" xlink:href="#DejaVuSans-6f"/>
     <use x="221.386719" xlink:href="#DejaVuSans-72"/>
     <use x="260.25" xlink:href="#DejaVuSans-65"/>
     <use x="321.773438" xlink:href="#DejaVuSans-20"/>
     <use x="353.560547" xlink:href="#DejaVuSans-62"/>
     <use x="417.037109" xlink:href="#DejaVuSans-69"/>
     <use x="444.820312" xlink:href="#DejaVuSans-6e"/>
     <use x="508.199219" xlink:href="#DejaVuSans-61"/>
     <use x="569.478516" xlink:href="#DejaVuSans-72"/>
     <use x="610.591797" xlink:href="#DejaVuSans-69"/>
     <use x="638.375" xlink:href="#DejaVuSans-73"/>
     <use x="690.474609" xlink:href="#DejaVuSans-61"/>
     <use x="751.753906" xlink:href="#DejaVuSans-74"/>
     <use x="790.962891" xlink:href="#DejaVuSans-69"/>
     <use x="818.746094" xlink:href="#DejaVuSans-6f"/>
     <use x="879.927734" xlink:href="#DejaVuSans-6e"/>
    </g>
   </g>
  </g>
  <g id="axes_2">
   <g id="patch_7">
    <path d="M 50.14375 1264.318125 
L 1724.14375 1264.318125 
L 1724.14375 699.77267 
L 50.14375 699.77267 
z
" style="fill:#ffffff;"/>
   </g>
   <g id="matplotlib.axis_3">
    <g id="xtick_8">
     <g id="line2d_16">
      <g>
       <use style="stroke:#000000;stroke-width:0.8;" x="126.234659" xlink:href="#m54d579f644" y="1264.318125"/>
      </g>
     </g>
     <g id="text_18">
      <!-- 0 -->
      <g transform="translate(123.053409 1278.916563)scale(0.1 -0.1)">
       <use xlink:href="#DejaVuSans-30"/>
      </g>
     </g>
    </g>
    <g id="xtick_9">
     <g id="line2d_17">
      <g>
       <use style="stroke:#000000;stroke-width:0.8;" x="373.886113" xlink:href="#m54d579f644" y="1264.318125"/>
      </g>
     </g>
     <g id="text_19">
      <!-- 200 -->
      <g transform="translate(364.342363 1278.916563)scale(0.1 -0.1)">
       <use xlink:href="#DejaVuSans-32"/>
       <use x="63.623047" xlink:href="#DejaVuSans-30"/>
       <use x="127.246094" xlink:href="#DejaVuSans-30"/>
      </g>
     </g>
    </g>
    <g id="xtick_10">
     <g id="line2d_18">
      <g>
       <use style="stroke:#000000;stroke-width:0.8;" x="621.537566" xlink:href="#m54d579f644" y="1264.318125"/>
      </g>
     </g>
     <g id="text_20">
      <!-- 400 -->
      <g transform="translate(611.993816 1278.916563)scale(0.1 -0.1)">
       <use xlink:href="#DejaVuSans-34"/>
       <use x="63.623047" xlink:href="#DejaVuSans-30"/>
       <use x="127.246094" xlink:href="#DejaVuSans-30"/>
      </g>
     </g>
    </g>
    <g id="xtick_11">
     <g id="line2d_19">
      <g>
       <use style="stroke:#000000;stroke-width:0.8;" x="869.18902" xlink:href="#m54d579f644" y="1264.318125"/>
      </g>
     </g>
     <g id="text_21">
      <!-- 600 -->
      <g transform="translate(859.64527 1278.916563)scale(0.1 -0.1)">
       <use xlink:href="#DejaVuSans-36"/>
       <use x="63.623047" xlink:href="#DejaVuSans-30"/>
       <use x="127.246094" xlink:href="#DejaVuSans-30"/>
      </g>
     </g>
    </g>
    <g id="xtick_12">
     <g id="line2d_20">
      <g>
       <use style="stroke:#000000;stroke-width:0.8;" x="1116.840473" xlink:href="#m54d579f644" y="1264.318125"/>
      </g>
     </g>
     <g id="text_22">
      <!-- 800 -->
      <g transform="translate(1107.296723 1278.916563)scale(0.1 -0.1)">
       <use xlink:href="#DejaVuSans-38"/>
       <use x="63.623047" xlink:href="#DejaVuSans-30"/>
       <use x="127.246094" xlink:href="#DejaVuSans-30"/>
      </g>
     </g>
    </g>
    <g id="xtick_13">
     <g id="line2d_21">
      <g>
       <use style="stroke:#000000;stroke-width:0.8;" x="1364.491927" xlink:href="#m54d579f644" y="1264.318125"/>
      </g>
     </g>
     <g id="text_23">
      <!-- 1000 -->
      <g transform="translate(1351.766927 1278.916563)scale(0.1 -0.1)">
       <use xlink:href="#DejaVuSans-31"/>
       <use x="63.623047" xlink:href="#DejaVuSans-30"/>
       <use x="127.246094" xlink:href="#DejaVuSans-30"/>
       <use x="190.869141" xlink:href="#DejaVuSans-30"/>
      </g>
     </g>
    </g>
    <g id="xtick_14">
     <g id="line2d_22">
      <g>
       <use style="stroke:#000000;stroke-width:0.8;" x="1612.14338" xlink:href="#m54d579f644" y="1264.318125"/>
      </g>
     </g>
     <g id="text_24">
      <!-- 1200 -->
      <g transform="translate(1599.41838 1278.916563)scale(0.1 -0.1)">
       <use xlink:href="#DejaVuSans-31"/>
       <use x="63.623047" xlink:href="#DejaVuSans-32"/>
       <use x="127.246094" xlink:href="#DejaVuSans-30"/>
       <use x="190.869141" xlink:href="#DejaVuSans-30"/>
      </g>
     </g>
    </g>
    <g id="text_25">
     <!-- frame -->
     <g transform="translate(872.317187 1292.594688)scale(0.1 -0.1)">
      <use xlink:href="#DejaVuSans-66"/>
      <use x="35.205078" xlink:href="#DejaVuSans-72"/>
      <use x="76.318359" xlink:href="#DejaVuSans-61"/>
      <use x="137.597656" xlink:href="#DejaVuSans-6d"/>
      <use x="235.009766" xlink:href="#DejaVuSans-65"/>
     </g>
    </g>
   </g>
   <g id="matplotlib.axis_4">
    <g id="ytick_8">
     <g id="line2d_23">
      <g>
       <use style="stroke:#000000;stroke-width:0.8;" x="50.14375" xlink:href="#m23283c72c7" y="1238.656968"/>
      </g>
     </g>
     <g id="text_26">
      <!-- 0.0 -->
      <g transform="translate(27.240625 1242.456187)scale(0.1 -0.1)">
       <use xlink:href="#DejaVuSans-30"/>
       <use x="63.623047" xlink:href="#DejaVuSans-2e"/>
       <use x="95.410156" xlink:href="#DejaVuSans-30"/>
      </g>
     </g>
    </g>
    <g id="ytick_9">
     <g id="line2d_24">
      <g>
       <use style="stroke:#000000;stroke-width:0.8;" x="50.14375" xlink:href="#m23283c72c7" y="1136.01234"/>
      </g>
     </g>
     <g id="text_27">
      <!-- 0.2 -->
      <g transform="translate(27.240625 1139.811559)scale(0.1 -0.1)">
       <use xlink:href="#DejaVuSans-30"/>
       <use x="63.623047" xlink:href="#DejaVuSans-2e"/>
       <use x="95.410156" xlink:href="#DejaVuSans-32"/>
      </g>
     </g>
    </g>
    <g id="ytick_10">
     <g id="line2d_25">
      <g>
       <use style="stroke:#000000;stroke-width:0.8;" x="50.14375" xlink:href="#m23283c72c7" y="1033.367712"/>
      </g>
     </g>
     <g id="text_28">
      <!-- 0.4 -->
      <g transform="translate(27.240625 1037.166931)scale(0.1 -0.1)">
       <use xlink:href="#DejaVuSans-30"/>
       <use x="63.623047" xlink:href="#DejaVuSans-2e"/>
       <use x="95.410156" xlink:href="#DejaVuSans-34"/>
      </g>
     </g>
    </g>
    <g id="ytick_11">
     <g id="line2d_26">
      <g>
       <use style="stroke:#000000;stroke-width:0.8;" x="50.14375" xlink:href="#m23283c72c7" y="930.723084"/>
      </g>
     </g>
     <g id="text_29">
      <!-- 0.6 -->
      <g transform="translate(27.240625 934.522302)scale(0.1 -0.1)">
       <use xlink:href="#DejaVuSans-30"/>
       <use x="63.623047" xlink:href="#DejaVuSans-2e"/>
       <use x="95.410156" xlink:href="#DejaVuSans-36"/>
      </g>
     </g>
    </g>
    <g id="ytick_12">
     <g id="line2d_27">
      <g>
       <use style="stroke:#000000;stroke-width:0.8;" x="50.14375" xlink:href="#m23283c72c7" y="828.078456"/>
      </g>
     </g>
     <g id="text_30">
      <!-- 0.8 -->
      <g transform="translate(27.240625 831.877674)scale(0.1 -0.1)">
       <use xlink:href="#DejaVuSans-30"/>
       <use x="63.623047" xlink:href="#DejaVuSans-2e"/>
       <use x="95.410156" xlink:href="#DejaVuSans-38"/>
      </g>
     </g>
    </g>
    <g id="ytick_13">
     <g id="line2d_28">
      <g>
       <use style="stroke:#000000;stroke-width:0.8;" x="50.14375" xlink:href="#m23283c72c7" y="725.433827"/>
      </g>
     </g>
     <g id="text_31">
      <!-- 1.0 -->
      <g transform="translate(27.240625 729.233046)scale(0.1 -0.1)">
       <use xlink:href="#DejaVuSans-31"/>
       <use x="63.623047" xlink:href="#DejaVuSans-2e"/>
       <use x="95.410156" xlink:href="#DejaVuSans-30"/>
      </g>
     </g>
    </g>
    <g id="text_32">
     <!-- GCaMP -->
     <g transform="translate(21.160938 999.803991)rotate(-90)scale(0.1 -0.1)">
      <use xlink:href="#DejaVuSans-47"/>
      <use x="77.490234" xlink:href="#DejaVuSans-43"/>
      <use x="147.314453" xlink:href="#DejaVuSans-61"/>
      <use x="208.59375" xlink:href="#DejaVuSans-4d"/>
      <use x="294.873047" xlink:href="#DejaVuSans-50"/>
     </g>
    </g>
   </g>
   <g id="line2d_29">
    <path clip-path="url(#p10f9335414)" d="M 126.234659 1238.656968 
L 853.091675 1238.656968 
L 854.329932 725.433827 
L 882.80985 725.433827 
L 884.048107 1238.656968 
L 1285.243462 1238.656968 
L 1286.481719 725.433827 
L 1288.958233 725.433827 
L 1290.196491 1238.656968 
L 1329.820723 1238.656968 
L 1331.05898 725.433827 
L 1332.297238 725.433827 
L 1333.535495 1238.656968 
L 1404.116159 1238.656968 
L 1405.354416 725.433827 
L 1409.069188 725.433827 
L 1410.307446 1238.656968 
L 1420.213504 1238.656968 
L 1421.451761 725.433827 
L 1428.881305 725.433827 
L 1430.119562 1238.656968 
L 1437.549105 1238.656968 
L 1438.787363 725.433827 
L 1440.02562 725.433827 
L 1441.263877 1238.656968 
L 1444.978649 1238.656968 
L 1446.216906 725.433827 
L 1483.364624 725.433827 
L 1484.602882 1238.656968 
L 1490.794168 1238.656968 
L 1492.032425 725.433827 
L 1505.653255 725.433827 
L 1506.891512 1238.656968 
L 1508.12977 1238.656968 
L 1509.368027 725.433827 
L 1648.052841 725.433827 
L 1648.052841 725.433827 
" style="fill:none;stroke:#008000;stroke-linecap:square;stroke-width:1.5;"/>
   </g>
   <g id="patch_8">
    <path d="M 50.14375 1264.318125 
L 50.14375 699.77267 
" style="fill:none;stroke:#000000;stroke-linecap:square;stroke-linejoin:miter;stroke-width:0.8;"/>
   </g>
   <g id="patch_9">
    <path d="M 1724.14375 1264.318125 
L 1724.14375 699.77267 
" style="fill:none;stroke:#000000;stroke-linecap:square;stroke-linejoin:miter;stroke-width:0.8;"/>
   </g>
   <g id="patch_10">
    <path d="M 50.14375 1264.318125 
L 1724.14375 1264.318125 
" style="fill:none;stroke:#000000;stroke-linecap:square;stroke-linejoin:miter;stroke-width:0.8;"/>
   </g>
   <g id="patch_11">
    <path d="M 50.14375 699.77267 
L 1724.14375 699.77267 
" style="fill:none;stroke:#000000;stroke-linecap:square;stroke-linejoin:miter;stroke-width:0.8;"/>
   </g>
   <g id="text_33">
    <!-- before binarisation -->
    <g transform="translate(830.545 693.77267)scale(0.12 -0.12)">
     <use xlink:href="#DejaVuSans-62"/>
     <use x="63.476562" xlink:href="#DejaVuSans-65"/>
     <use x="125" xlink:href="#DejaVuSans-66"/>
     <use x="160.205078" xlink:href="#DejaVuSans-6f"/>
     <use x="221.386719" xlink:href="#DejaVuSans-72"/>
     <use x="260.25" xlink:href="#DejaVuSans-65"/>
     <use x="321.773438" xlink:href="#DejaVuSans-20"/>
     <use x="353.560547" xlink:href="#DejaVuSans-62"/>
     <use x="417.037109" xlink:href="#DejaVuSans-69"/>
     <use x="444.820312" xlink:href="#DejaVuSans-6e"/>
     <use x="508.199219" xlink:href="#DejaVuSans-61"/>
     <use x="569.478516" xlink:href="#DejaVuSans-72"/>
     <use x="610.591797" xlink:href="#DejaVuSans-69"/>
     <use x="638.375" xlink:href="#DejaVuSans-73"/>
     <use x="690.474609" xlink:href="#DejaVuSans-61"/>
     <use x="751.753906" xlink:href="#DejaVuSans-74"/>
     <use x="790.962891" xlink:href="#DejaVuSans-69"/>
     <use x="818.746094" xlink:href="#DejaVuSans-6f"/>
     <use x="879.927734" xlink:href="#DejaVuSans-6e"/>
    </g>
   </g>
  </g>
 </g>
 <defs>
  <clipPath id="pf1ab7c594f">
   <rect height="564.545455" width="1674" x="50.14375" y="22.318125"/>
  </clipPath>
  <clipPath id="p10f9335414">
   <rect height="564.545455" width="1674" x="50.14375" y="699.77267"/>
  </clipPath>
 </defs>
</svg>
