<?xml version="1.0" encoding="utf-8" standalone="no"?>
<!DOCTYPE svg PUBLIC "-//W3C//DTD SVG 1.1//EN"
  "http://www.w3.org/Graphics/SVG/1.1/DTD/svg11.dtd">
<svg height="1301.874375pt" version="1.1" viewBox="0 0 1724.98125 1301.874375" width="1724.98125pt" xmlns="http://www.w3.org/2000/svg" xmlns:xlink="http://www.w3.org/1999/xlink">
 <metadata>
  <rdf:RDF xmlns:cc="http://creativecommons.org/ns#" xmlns:dc="http://purl.org/dc/elements/1.1/" xmlns:rdf="http://www.w3.org/1999/02/22-rdf-syntax-ns#">
   <cc:Work>
    <dc:type rdf:resource="http://purl.org/dc/dcmitype/StillImage"/>
    <dc:date>2022-07-24T15:54:32.565912</dc:date>
    <dc:format>image/svg+xml</dc:format>
    <dc:creator>
     <cc:Agent>
      <dc:title>Matplotlib v3.4.2, https://matplotlib.org/</dc:title>
     </cc:Agent>
    </dc:creator>
   </cc:Work>
  </rdf:RDF>
 </metadata>
 <defs>
  <style type="text/css">*{stroke-linecap:butt;stroke-linejoin:round;}</style>
 </defs>
 <g id="figure_1">
  <g id="patch_1">
   <path d="M 0 1301.874375 
L 1724.98125 1301.874375 
L 1724.98125 0 
L 0 0 
z
" style="fill:#ffffff;"/>
  </g>
  <g id="axes_1">
   <g id="patch_2">
    <path d="M 43.78125 586.86358 
L 1717.78125 586.86358 
L 1717.78125 22.318125 
L 43.78125 22.318125 
z
" style="fill:#ffffff;"/>
   </g>
   <g id="matplotlib.axis_1">
    <g id="xtick_1">
     <g id="line2d_1">
      <defs>
       <path d="M 0 0 
L 0 3.5 
" id="m8c2ad6befd" style="stroke:#000000;stroke-width:0.8;"/>
      </defs>
      <g>
       <use style="stroke:#000000;stroke-width:0.8;" x="119.872159" xlink:href="#m8c2ad6befd" y="586.86358"/>
      </g>
     </g>
     <g id="text_1">
      <!-- 0 -->
      <g transform="translate(116.690909 601.462017)scale(0.1 -0.1)">
       <defs>
        <path d="M 2034 4250 
Q 1547 4250 1301 3770 
Q 1056 3291 1056 2328 
Q 1056 1369 1301 889 
Q 1547 409 2034 409 
Q 2525 409 2770 889 
Q 3016 1369 3016 2328 
Q 3016 3291 2770 3770 
Q 2525 4250 2034 4250 
z
M 2034 4750 
Q 2819 4750 3233 4129 
Q 3647 3509 3647 2328 
Q 3647 1150 3233 529 
Q 2819 -91 2034 -91 
Q 1250 -91 836 529 
Q 422 1150 422 2328 
Q 422 3509 836 4129 
Q 1250 4750 2034 4750 
z
" id="DejaVuSans-30" transform="scale(0.015625)"/>
       </defs>
       <use xlink:href="#DejaVuSans-30"/>
      </g>
     </g>
    </g>
    <g id="xtick_2">
     <g id="line2d_2">
      <g>
       <use style="stroke:#000000;stroke-width:0.8;" x="367.523613" xlink:href="#m8c2ad6befd" y="586.86358"/>
      </g>
     </g>
     <g id="text_2">
      <!-- 200 -->
      <g transform="translate(357.979863 601.462017)scale(0.1 -0.1)">
       <defs>
        <path d="M 1228 531 
L 3431 531 
L 3431 0 
L 469 0 
L 469 531 
Q 828 903 1448 1529 
Q 2069 2156 2228 2338 
Q 2531 2678 2651 2914 
Q 2772 3150 2772 3378 
Q 2772 3750 2511 3984 
Q 2250 4219 1831 4219 
Q 1534 4219 1204 4116 
Q 875 4013 500 3803 
L 500 4441 
Q 881 4594 1212 4672 
Q 1544 4750 1819 4750 
Q 2544 4750 2975 4387 
Q 3406 4025 3406 3419 
Q 3406 3131 3298 2873 
Q 3191 2616 2906 2266 
Q 2828 2175 2409 1742 
Q 1991 1309 1228 531 
z
" id="DejaVuSans-32" transform="scale(0.015625)"/>
       </defs>
       <use xlink:href="#DejaVuSans-32"/>
       <use x="63.623047" xlink:href="#DejaVuSans-30"/>
       <use x="127.246094" xlink:href="#DejaVuSans-30"/>
      </g>
     </g>
    </g>
    <g id="xtick_3">
     <g id="line2d_3">
      <g>
       <use style="stroke:#000000;stroke-width:0.8;" x="615.175066" xlink:href="#m8c2ad6befd" y="586.86358"/>
      </g>
     </g>
     <g id="text_3">
      <!-- 400 -->
      <g transform="translate(605.631316 601.462017)scale(0.1 -0.1)">
       <defs>
        <path d="M 2419 4116 
L 825 1625 
L 2419 1625 
L 2419 4116 
z
M 2253 4666 
L 3047 4666 
L 3047 1625 
L 3713 1625 
L 3713 1100 
L 3047 1100 
L 3047 0 
L 2419 0 
L 2419 1100 
L 313 1100 
L 313 1709 
L 2253 4666 
z
" id="DejaVuSans-34" transform="scale(0.015625)"/>
       </defs>
       <use xlink:href="#DejaVuSans-34"/>
       <use x="63.623047" xlink:href="#DejaVuSans-30"/>
       <use x="127.246094" xlink:href="#DejaVuSans-30"/>
      </g>
     </g>
    </g>
    <g id="xtick_4">
     <g id="line2d_4">
      <g>
       <use style="stroke:#000000;stroke-width:0.8;" x="862.82652" xlink:href="#m8c2ad6befd" y="586.86358"/>
      </g>
     </g>
     <g id="text_4">
      <!-- 600 -->
      <g transform="translate(853.28277 601.462017)scale(0.1 -0.1)">
       <defs>
        <path d="M 2113 2584 
Q 1688 2584 1439 2293 
Q 1191 2003 1191 1497 
Q 1191 994 1439 701 
Q 1688 409 2113 409 
Q 2538 409 2786 701 
Q 3034 994 3034 1497 
Q 3034 2003 2786 2293 
Q 2538 2584 2113 2584 
z
M 3366 4563 
L 3366 3988 
Q 3128 4100 2886 4159 
Q 2644 4219 2406 4219 
Q 1781 4219 1451 3797 
Q 1122 3375 1075 2522 
Q 1259 2794 1537 2939 
Q 1816 3084 2150 3084 
Q 2853 3084 3261 2657 
Q 3669 2231 3669 1497 
Q 3669 778 3244 343 
Q 2819 -91 2113 -91 
Q 1303 -91 875 529 
Q 447 1150 447 2328 
Q 447 3434 972 4092 
Q 1497 4750 2381 4750 
Q 2619 4750 2861 4703 
Q 3103 4656 3366 4563 
z
" id="DejaVuSans-36" transform="scale(0.015625)"/>
       </defs>
       <use xlink:href="#DejaVuSans-36"/>
       <use x="63.623047" xlink:href="#DejaVuSans-30"/>
       <use x="127.246094" xlink:href="#DejaVuSans-30"/>
      </g>
     </g>
    </g>
    <g id="xtick_5">
     <g id="line2d_5">
      <g>
       <use style="stroke:#000000;stroke-width:0.8;" x="1110.477973" xlink:href="#m8c2ad6befd" y="586.86358"/>
      </g>
     </g>
     <g id="text_5">
      <!-- 800 -->
      <g transform="translate(1100.934223 601.462017)scale(0.1 -0.1)">
       <defs>
        <path d="M 2034 2216 
Q 1584 2216 1326 1975 
Q 1069 1734 1069 1313 
Q 1069 891 1326 650 
Q 1584 409 2034 409 
Q 2484 409 2743 651 
Q 3003 894 3003 1313 
Q 3003 1734 2745 1975 
Q 2488 2216 2034 2216 
z
M 1403 2484 
Q 997 2584 770 2862 
Q 544 3141 544 3541 
Q 544 4100 942 4425 
Q 1341 4750 2034 4750 
Q 2731 4750 3128 4425 
Q 3525 4100 3525 3541 
Q 3525 3141 3298 2862 
Q 3072 2584 2669 2484 
Q 3125 2378 3379 2068 
Q 3634 1759 3634 1313 
Q 3634 634 3220 271 
Q 2806 -91 2034 -91 
Q 1263 -91 848 271 
Q 434 634 434 1313 
Q 434 1759 690 2068 
Q 947 2378 1403 2484 
z
M 1172 3481 
Q 1172 3119 1398 2916 
Q 1625 2713 2034 2713 
Q 2441 2713 2670 2916 
Q 2900 3119 2900 3481 
Q 2900 3844 2670 4047 
Q 2441 4250 2034 4250 
Q 1625 4250 1398 4047 
Q 1172 3844 1172 3481 
z
" id="DejaVuSans-38" transform="scale(0.015625)"/>
       </defs>
       <use xlink:href="#DejaVuSans-38"/>
       <use x="63.623047" xlink:href="#DejaVuSans-30"/>
       <use x="127.246094" xlink:href="#DejaVuSans-30"/>
      </g>
     </g>
    </g>
    <g id="xtick_6">
     <g id="line2d_6">
      <g>
       <use style="stroke:#000000;stroke-width:0.8;" x="1358.129427" xlink:href="#m8c2ad6befd" y="586.86358"/>
      </g>
     </g>
     <g id="text_6">
      <!-- 1000 -->
      <g transform="translate(1345.404427 601.462017)scale(0.1 -0.1)">
       <defs>
        <path d="M 794 531 
L 1825 531 
L 1825 4091 
L 703 3866 
L 703 4441 
L 1819 4666 
L 2450 4666 
L 2450 531 
L 3481 531 
L 3481 0 
L 794 0 
L 794 531 
z
" id="DejaVuSans-31" transform="scale(0.015625)"/>
       </defs>
       <use xlink:href="#DejaVuSans-31"/>
       <use x="63.623047" xlink:href="#DejaVuSans-30"/>
       <use x="127.246094" xlink:href="#DejaVuSans-30"/>
       <use x="190.869141" xlink:href="#DejaVuSans-30"/>
      </g>
     </g>
    </g>
    <g id="xtick_7">
     <g id="line2d_7">
      <g>
       <use style="stroke:#000000;stroke-width:0.8;" x="1605.78088" xlink:href="#m8c2ad6befd" y="586.86358"/>
      </g>
     </g>
     <g id="text_7">
      <!-- 1200 -->
      <g transform="translate(1593.05588 601.462017)scale(0.1 -0.1)">
       <use xlink:href="#DejaVuSans-31"/>
       <use x="63.623047" xlink:href="#DejaVuSans-32"/>
       <use x="127.246094" xlink:href="#DejaVuSans-30"/>
       <use x="190.869141" xlink:href="#DejaVuSans-30"/>
      </g>
     </g>
    </g>
    <g id="text_8">
     <!-- frame -->
     <g transform="translate(865.954687 615.140142)scale(0.1 -0.1)">
      <defs>
       <path d="M 2375 4863 
L 2375 4384 
L 1825 4384 
Q 1516 4384 1395 4259 
Q 1275 4134 1275 3809 
L 1275 3500 
L 2222 3500 
L 2222 3053 
L 1275 3053 
L 1275 0 
L 697 0 
L 697 3053 
L 147 3053 
L 147 3500 
L 697 3500 
L 697 3744 
Q 697 4328 969 4595 
Q 1241 4863 1831 4863 
L 2375 4863 
z
" id="DejaVuSans-66" transform="scale(0.015625)"/>
       <path d="M 2631 2963 
Q 2534 3019 2420 3045 
Q 2306 3072 2169 3072 
Q 1681 3072 1420 2755 
Q 1159 2438 1159 1844 
L 1159 0 
L 581 0 
L 581 3500 
L 1159 3500 
L 1159 2956 
Q 1341 3275 1631 3429 
Q 1922 3584 2338 3584 
Q 2397 3584 2469 3576 
Q 2541 3569 2628 3553 
L 2631 2963 
z
" id="DejaVuSans-72" transform="scale(0.015625)"/>
       <path d="M 2194 1759 
Q 1497 1759 1228 1600 
Q 959 1441 959 1056 
Q 959 750 1161 570 
Q 1363 391 1709 391 
Q 2188 391 2477 730 
Q 2766 1069 2766 1631 
L 2766 1759 
L 2194 1759 
z
M 3341 1997 
L 3341 0 
L 2766 0 
L 2766 531 
Q 2569 213 2275 61 
Q 1981 -91 1556 -91 
Q 1019 -91 701 211 
Q 384 513 384 1019 
Q 384 1609 779 1909 
Q 1175 2209 1959 2209 
L 2766 2209 
L 2766 2266 
Q 2766 2663 2505 2880 
Q 2244 3097 1772 3097 
Q 1472 3097 1187 3025 
Q 903 2953 641 2809 
L 641 3341 
Q 956 3463 1253 3523 
Q 1550 3584 1831 3584 
Q 2591 3584 2966 3190 
Q 3341 2797 3341 1997 
z
" id="DejaVuSans-61" transform="scale(0.015625)"/>
       <path d="M 3328 2828 
Q 3544 3216 3844 3400 
Q 4144 3584 4550 3584 
Q 5097 3584 5394 3201 
Q 5691 2819 5691 2113 
L 5691 0 
L 5113 0 
L 5113 2094 
Q 5113 2597 4934 2840 
Q 4756 3084 4391 3084 
Q 3944 3084 3684 2787 
Q 3425 2491 3425 1978 
L 3425 0 
L 2847 0 
L 2847 2094 
Q 2847 2600 2669 2842 
Q 2491 3084 2119 3084 
Q 1678 3084 1418 2786 
Q 1159 2488 1159 1978 
L 1159 0 
L 581 0 
L 581 3500 
L 1159 3500 
L 1159 2956 
Q 1356 3278 1631 3431 
Q 1906 3584 2284 3584 
Q 2666 3584 2933 3390 
Q 3200 3197 3328 2828 
z
" id="DejaVuSans-6d" transform="scale(0.015625)"/>
       <path d="M 3597 1894 
L 3597 1613 
L 953 1613 
Q 991 1019 1311 708 
Q 1631 397 2203 397 
Q 2534 397 2845 478 
Q 3156 559 3463 722 
L 3463 178 
Q 3153 47 2828 -22 
Q 2503 -91 2169 -91 
Q 1331 -91 842 396 
Q 353 884 353 1716 
Q 353 2575 817 3079 
Q 1281 3584 2069 3584 
Q 2775 3584 3186 3129 
Q 3597 2675 3597 1894 
z
M 3022 2063 
Q 3016 2534 2758 2815 
Q 2500 3097 2075 3097 
Q 1594 3097 1305 2825 
Q 1016 2553 972 2059 
L 3022 2063 
z
" id="DejaVuSans-65" transform="scale(0.015625)"/>
      </defs>
      <use xlink:href="#DejaVuSans-66"/>
      <use x="35.205078" xlink:href="#DejaVuSans-72"/>
      <use x="76.318359" xlink:href="#DejaVuSans-61"/>
      <use x="137.597656" xlink:href="#DejaVuSans-6d"/>
      <use x="235.009766" xlink:href="#DejaVuSans-65"/>
     </g>
    </g>
   </g>
   <g id="matplotlib.axis_2">
    <g id="ytick_1">
     <g id="line2d_8">
      <defs>
       <path d="M 0 0 
L -3.5 0 
" id="m86aedb92f8" style="stroke:#000000;stroke-width:0.8;"/>
      </defs>
      <g>
       <use style="stroke:#000000;stroke-width:0.8;" x="43.78125" xlink:href="#m86aedb92f8" y="550.333459"/>
      </g>
     </g>
     <g id="text_9">
      <!-- 2.5 -->
      <g transform="translate(20.878125 554.132678)scale(0.1 -0.1)">
       <defs>
        <path d="M 684 794 
L 1344 794 
L 1344 0 
L 684 0 
L 684 794 
z
" id="DejaVuSans-2e" transform="scale(0.015625)"/>
        <path d="M 691 4666 
L 3169 4666 
L 3169 4134 
L 1269 4134 
L 1269 2991 
Q 1406 3038 1543 3061 
Q 1681 3084 1819 3084 
Q 2600 3084 3056 2656 
Q 3513 2228 3513 1497 
Q 3513 744 3044 326 
Q 2575 -91 1722 -91 
Q 1428 -91 1123 -41 
Q 819 9 494 109 
L 494 744 
Q 775 591 1075 516 
Q 1375 441 1709 441 
Q 2250 441 2565 725 
Q 2881 1009 2881 1497 
Q 2881 1984 2565 2268 
Q 2250 2553 1709 2553 
Q 1456 2553 1204 2497 
Q 953 2441 691 2322 
L 691 4666 
z
" id="DejaVuSans-35" transform="scale(0.015625)"/>
       </defs>
       <use xlink:href="#DejaVuSans-32"/>
       <use x="63.623047" xlink:href="#DejaVuSans-2e"/>
       <use x="95.410156" xlink:href="#DejaVuSans-35"/>
      </g>
     </g>
    </g>
    <g id="ytick_2">
     <g id="line2d_9">
      <g>
       <use style="stroke:#000000;stroke-width:0.8;" x="43.78125" xlink:href="#m86aedb92f8" y="428.976326"/>
      </g>
     </g>
     <g id="text_10">
      <!-- 3.0 -->
      <g transform="translate(20.878125 432.775545)scale(0.1 -0.1)">
       <defs>
        <path d="M 2597 2516 
Q 3050 2419 3304 2112 
Q 3559 1806 3559 1356 
Q 3559 666 3084 287 
Q 2609 -91 1734 -91 
Q 1441 -91 1130 -33 
Q 819 25 488 141 
L 488 750 
Q 750 597 1062 519 
Q 1375 441 1716 441 
Q 2309 441 2620 675 
Q 2931 909 2931 1356 
Q 2931 1769 2642 2001 
Q 2353 2234 1838 2234 
L 1294 2234 
L 1294 2753 
L 1863 2753 
Q 2328 2753 2575 2939 
Q 2822 3125 2822 3475 
Q 2822 3834 2567 4026 
Q 2313 4219 1838 4219 
Q 1578 4219 1281 4162 
Q 984 4106 628 3988 
L 628 4550 
Q 988 4650 1302 4700 
Q 1616 4750 1894 4750 
Q 2613 4750 3031 4423 
Q 3450 4097 3450 3541 
Q 3450 3153 3228 2886 
Q 3006 2619 2597 2516 
z
" id="DejaVuSans-33" transform="scale(0.015625)"/>
       </defs>
       <use xlink:href="#DejaVuSans-33"/>
       <use x="63.623047" xlink:href="#DejaVuSans-2e"/>
       <use x="95.410156" xlink:href="#DejaVuSans-30"/>
      </g>
     </g>
    </g>
    <g id="ytick_3">
     <g id="line2d_10">
      <g>
       <use style="stroke:#000000;stroke-width:0.8;" x="43.78125" xlink:href="#m86aedb92f8" y="307.619193"/>
      </g>
     </g>
     <g id="text_11">
      <!-- 3.5 -->
      <g transform="translate(20.878125 311.418411)scale(0.1 -0.1)">
       <use xlink:href="#DejaVuSans-33"/>
       <use x="63.623047" xlink:href="#DejaVuSans-2e"/>
       <use x="95.410156" xlink:href="#DejaVuSans-35"/>
      </g>
     </g>
    </g>
    <g id="ytick_4">
     <g id="line2d_11">
      <g>
       <use style="stroke:#000000;stroke-width:0.8;" x="43.78125" xlink:href="#m86aedb92f8" y="186.262059"/>
      </g>
     </g>
     <g id="text_12">
      <!-- 4.0 -->
      <g transform="translate(20.878125 190.061278)scale(0.1 -0.1)">
       <use xlink:href="#DejaVuSans-34"/>
       <use x="63.623047" xlink:href="#DejaVuSans-2e"/>
       <use x="95.410156" xlink:href="#DejaVuSans-30"/>
      </g>
     </g>
    </g>
    <g id="ytick_5">
     <g id="line2d_12">
      <g>
       <use style="stroke:#000000;stroke-width:0.8;" x="43.78125" xlink:href="#m86aedb92f8" y="64.904926"/>
      </g>
     </g>
     <g id="text_13">
      <!-- 4.5 -->
      <g transform="translate(20.878125 68.704145)scale(0.1 -0.1)">
       <use xlink:href="#DejaVuSans-34"/>
       <use x="63.623047" xlink:href="#DejaVuSans-2e"/>
       <use x="95.410156" xlink:href="#DejaVuSans-35"/>
      </g>
     </g>
    </g>
    <g id="text_14">
     <!-- GCaMP -->
     <g transform="translate(14.798437 322.349446)rotate(-90)scale(0.1 -0.1)">
      <defs>
       <path d="M 3809 666 
L 3809 1919 
L 2778 1919 
L 2778 2438 
L 4434 2438 
L 4434 434 
Q 4069 175 3628 42 
Q 3188 -91 2688 -91 
Q 1594 -91 976 548 
Q 359 1188 359 2328 
Q 359 3472 976 4111 
Q 1594 4750 2688 4750 
Q 3144 4750 3555 4637 
Q 3966 4525 4313 4306 
L 4313 3634 
Q 3963 3931 3569 4081 
Q 3175 4231 2741 4231 
Q 1884 4231 1454 3753 
Q 1025 3275 1025 2328 
Q 1025 1384 1454 906 
Q 1884 428 2741 428 
Q 3075 428 3337 486 
Q 3600 544 3809 666 
z
" id="DejaVuSans-47" transform="scale(0.015625)"/>
       <path d="M 4122 4306 
L 4122 3641 
Q 3803 3938 3442 4084 
Q 3081 4231 2675 4231 
Q 1875 4231 1450 3742 
Q 1025 3253 1025 2328 
Q 1025 1406 1450 917 
Q 1875 428 2675 428 
Q 3081 428 3442 575 
Q 3803 722 4122 1019 
L 4122 359 
Q 3791 134 3420 21 
Q 3050 -91 2638 -91 
Q 1578 -91 968 557 
Q 359 1206 359 2328 
Q 359 3453 968 4101 
Q 1578 4750 2638 4750 
Q 3056 4750 3426 4639 
Q 3797 4528 4122 4306 
z
" id="DejaVuSans-43" transform="scale(0.015625)"/>
       <path d="M 628 4666 
L 1569 4666 
L 2759 1491 
L 3956 4666 
L 4897 4666 
L 4897 0 
L 4281 0 
L 4281 4097 
L 3078 897 
L 2444 897 
L 1241 4097 
L 1241 0 
L 628 0 
L 628 4666 
z
" id="DejaVuSans-4d" transform="scale(0.015625)"/>
       <path d="M 1259 4147 
L 1259 2394 
L 2053 2394 
Q 2494 2394 2734 2622 
Q 2975 2850 2975 3272 
Q 2975 3691 2734 3919 
Q 2494 4147 2053 4147 
L 1259 4147 
z
M 628 4666 
L 2053 4666 
Q 2838 4666 3239 4311 
Q 3641 3956 3641 3272 
Q 3641 2581 3239 2228 
Q 2838 1875 2053 1875 
L 1259 1875 
L 1259 0 
L 628 0 
L 628 4666 
z
" id="DejaVuSans-50" transform="scale(0.015625)"/>
      </defs>
      <use xlink:href="#DejaVuSans-47"/>
      <use x="77.490234" xlink:href="#DejaVuSans-43"/>
      <use x="147.314453" xlink:href="#DejaVuSans-61"/>
      <use x="208.59375" xlink:href="#DejaVuSans-4d"/>
      <use x="294.873047" xlink:href="#DejaVuSans-50"/>
     </g>
    </g>
   </g>
   <g id="line2d_13">
    <path clip-path="url(#p4801b3ea89)" d="M 119.872159 47.979282 
L 121.110416 55.379792 
L 122.348674 61.684198 
L 124.825188 73.260623 
L 126.063445 79.844688 
L 127.301703 87.904735 
L 128.53996 98.298701 
L 131.016474 122.144801 
L 132.254732 132.590341 
L 133.492989 140.494332 
L 134.731246 145.187354 
L 135.969504 148.32501 
L 137.207761 153.404245 
L 138.446018 162.371999 
L 140.922533 183.884645 
L 142.16079 192.120626 
L 143.399047 199.450618 
L 144.637304 207.849564 
L 145.875562 218.973846 
L 148.352076 247.869928 
L 149.590334 262.104275 
L 150.828591 274.439737 
L 152.066848 283.834204 
L 153.305105 289.919584 
L 154.543363 292.741819 
L 155.78162 292.798702 
L 157.019877 292.499481 
L 158.258134 294.790502 
L 159.496392 300.221652 
L 160.734649 306.878095 
L 161.972906 312.206156 
L 163.211163 315.499962 
L 164.449421 319.520678 
L 165.687678 328.174927 
L 166.925935 342.265961 
L 168.164193 358.104244 
L 169.40245 369.449899 
L 170.640707 371.639687 
L 171.878964 365.723632 
L 173.117222 357.910175 
L 174.355479 354.499764 
L 175.593736 357.934724 
L 176.831993 366.506812 
L 178.070251 376.282296 
L 179.308508 383.350181 
L 180.546765 385.577533 
L 181.785022 383.387756 
L 184.261537 374.450994 
L 185.499794 372.873252 
L 186.738052 376.309615 
L 187.976309 385.319094 
L 191.691081 423.535409 
L 192.929338 430.613142 
L 194.167595 432.674325 
L 195.405852 430.266997 
L 196.64411 425.460078 
L 197.882367 421.334704 
L 199.120624 419.525213 
L 200.358881 418.301605 
L 201.597139 414.02668 
L 202.835396 404.94114 
L 204.073653 394.282808 
L 205.311911 388.690484 
L 206.550168 392.166394 
L 207.788425 402.889093 
L 209.026682 415.931428 
L 210.26494 426.916117 
L 211.503197 433.373607 
L 212.741454 434.731232 
L 213.979711 431.742702 
L 216.456226 419.908049 
L 217.694483 416.106946 
L 218.93274 416.169951 
L 220.170998 419.722128 
L 221.409255 424.640096 
L 222.647512 428.442384 
L 223.88577 429.841305 
L 225.124027 429.596369 
L 226.362284 430.757792 
L 227.600541 436.32999 
L 228.838799 445.373156 
L 230.077056 453.545082 
L 231.315313 457.825124 
L 232.55357 458.907104 
L 233.791828 459.511205 
L 235.030085 461.749797 
L 236.268342 466.035813 
L 237.5066 471.879951 
L 239.983114 486.571354 
L 241.221371 493.7382 
L 242.459629 499.440077 
L 243.697886 503.226095 
L 244.936143 504.824943 
L 246.1744 504.762197 
L 247.412658 504.374584 
L 248.650915 504.355715 
L 249.889172 504.646077 
L 251.127429 505.336621 
L 252.365687 506.376453 
L 253.603944 507.15104 
L 254.842201 507.094411 
L 256.080459 506.103926 
L 257.318716 503.999472 
L 258.556973 500.678981 
L 259.79523 496.829929 
L 261.033488 493.355126 
L 262.271745 490.905208 
L 263.510002 490.497562 
L 264.748259 493.215976 
L 267.224774 504.195461 
L 268.463031 507.470517 
L 269.701288 507.940729 
L 270.939546 506.460969 
L 272.177803 503.245459 
L 273.41606 498.705777 
L 274.654318 494.859646 
L 275.892575 493.032106 
L 277.130832 491.859372 
L 278.369089 489.276904 
L 280.845604 481.076282 
L 282.083861 479.916197 
L 283.322118 483.089007 
L 284.560376 490.429954 
L 287.03689 509.355322 
L 288.275147 516.588191 
L 289.513405 521.422899 
L 290.751662 524.304533 
L 291.989919 525.612001 
L 293.228177 525.45967 
L 294.466434 524.520559 
L 295.704691 523.877005 
L 296.942948 523.593841 
L 298.181206 522.486248 
L 299.419463 519.611437 
L 301.895977 510.985604 
L 303.134235 507.378589 
L 304.372492 505.902969 
L 305.610749 507.754697 
L 306.849006 512.587963 
L 308.087264 518.519129 
L 309.325521 522.814698 
L 310.563778 522.75224 
L 311.802036 517.493541 
L 314.27855 501.188607 
L 316.755065 486.656714 
L 317.993322 477.100342 
L 319.231579 464.911723 
L 320.469836 450.218195 
L 321.708094 433.207012 
L 325.422866 377.001072 
L 326.661123 362.647406 
L 327.89938 352.74745 
L 329.137637 348.695154 
L 330.375895 351.808449 
L 331.614152 362.013934 
L 332.852409 378.311843 
L 336.567181 439.847062 
L 337.805438 450.140561 
L 339.043695 452.802235 
L 340.281953 451.596003 
L 341.52021 450.932789 
L 342.758467 453.515317 
L 343.996725 459.545365 
L 347.711496 483.020111 
L 348.949754 488.420506 
L 350.188011 491.392171 
L 351.426268 491.753991 
L 352.664525 490.621207 
L 353.902783 489.815371 
L 355.14104 491.333509 
L 356.379297 497.079731 
L 358.855812 517.320593 
L 360.094069 524.229087 
L 361.332326 525.562909 
L 362.570584 521.759666 
L 363.808841 513.947258 
L 365.047098 503.821806 
L 366.285355 494.849979 
L 367.523613 490.03224 
L 368.76187 489.089261 
L 370.000127 490.537225 
L 371.238384 493.916051 
L 373.714899 503.096078 
L 374.953156 507.232955 
L 376.191413 512.071273 
L 377.429671 518.921417 
L 378.667928 528.500297 
L 381.144443 551.26422 
L 382.3827 556.067862 
L 383.620957 551.929349 
L 386.097472 530.709045 
L 387.335729 523.733797 
L 388.573986 522.11889 
L 389.812243 525.321187 
L 391.050501 531.707212 
L 394.765272 555.351841 
L 396.00353 560.425073 
L 397.241787 561.202423 
L 398.480044 557.293543 
L 399.718302 550.015394 
L 402.194816 532.114612 
L 403.433073 524.469138 
L 404.671331 520.299378 
L 405.909588 520.079322 
L 409.62436 525.67674 
L 410.862617 526.658597 
L 412.100874 524.915351 
L 413.339132 518.409736 
L 414.577389 506.619112 
L 415.815646 490.732797 
L 417.053903 473.189586 
L 418.292161 457.567097 
L 419.530418 447.999495 
L 420.768675 446.918722 
L 422.006932 453.650356 
L 424.483447 478.37912 
L 425.721704 487.09473 
L 426.959961 489.074595 
L 428.198219 486.035407 
L 429.436476 481.490865 
L 430.674733 478.244599 
L 431.912991 477.821952 
L 433.151248 479.889445 
L 435.627762 486.052737 
L 436.86602 489.286356 
L 438.104277 491.716497 
L 439.342534 493.10271 
L 440.580791 494.78376 
L 441.819049 498.409646 
L 443.057306 504.485556 
L 444.295563 511.7404 
L 445.53382 517.996767 
L 446.772078 521.773949 
L 448.010335 522.956433 
L 449.248592 521.840199 
L 450.48685 517.741026 
L 451.725107 510.155635 
L 454.201621 491.137535 
L 455.439879 483.150246 
L 457.916393 469.073474 
L 459.15465 459.527043 
L 460.392908 448.022527 
L 461.631165 437.901217 
L 462.869422 433.292996 
L 464.107679 435.08032 
L 465.345937 439.726193 
L 466.584194 442.050827 
L 467.822451 438.726023 
L 469.060709 431.015199 
L 470.298966 424.196833 
L 471.537223 422.531318 
L 472.77548 425.754419 
L 474.013738 430.806732 
L 475.251995 434.98357 
L 476.490252 437.542597 
L 477.728509 439.762933 
L 478.966767 443.444629 
L 481.443281 455.217115 
L 482.681538 459.444624 
L 483.919796 460.566233 
L 486.39631 459.177213 
L 488.872825 458.758618 
L 490.111082 460.057061 
L 491.349339 465.187797 
L 492.587597 474.542903 
L 495.064111 497.206181 
L 496.302368 505.895364 
L 497.540626 510.087617 
L 498.778883 508.766794 
L 500.01714 503.308955 
L 502.493655 490.293796 
L 503.731912 485.404284 
L 504.970169 483.20081 
L 506.208427 484.673808 
L 507.446684 489.60458 
L 508.684941 497.333157 
L 511.161456 515.788968 
L 512.399713 521.446221 
L 513.63797 522.854841 
L 514.876227 520.926891 
L 516.114485 517.106347 
L 517.352742 512.357199 
L 518.590999 506.627899 
L 519.829257 499.472805 
L 521.067514 491.405205 
L 522.305771 484.323099 
L 523.544028 480.391976 
L 524.782286 480.161937 
L 527.2588 483.832033 
L 528.497057 484.487438 
L 529.735315 483.480414 
L 532.211829 478.521461 
L 533.450086 477.196629 
L 534.688344 476.967392 
L 535.926601 476.5852 
L 538.403116 474.176144 
L 539.641373 474.053854 
L 540.87963 475.680004 
L 542.117887 478.136705 
L 543.356145 479.44336 
L 544.594402 478.04724 
L 545.832659 473.741567 
L 548.309174 461.520174 
L 549.547431 455.21752 
L 550.785688 449.527712 
L 552.023945 446.667736 
L 553.262203 447.954148 
L 555.738717 455.508136 
L 556.976975 457.39031 
L 558.215232 456.798251 
L 559.453489 453.346122 
L 560.691746 447.585904 
L 563.168261 434.676672 
L 564.406518 429.485924 
L 565.644775 427.498119 
L 566.883033 429.306786 
L 568.12129 432.044252 
L 569.359547 433.187535 
L 570.597804 433.397137 
L 571.836062 434.378011 
L 573.074319 437.188518 
L 574.312576 442.309252 
L 575.550834 449.740131 
L 578.027348 468.540187 
L 579.265605 476.511294 
L 580.503863 481.151347 
L 581.74212 482.09462 
L 582.980377 481.093557 
L 584.218634 480.866965 
L 585.456892 482.467271 
L 586.695149 484.674634 
L 587.933406 486.481854 
L 589.171663 489.092806 
L 590.409921 494.639564 
L 591.648178 503.595275 
L 592.886435 514.041245 
L 594.124693 523.21702 
L 595.36295 529.198163 
L 596.601207 530.973684 
L 597.839464 528.15935 
L 599.077722 521.417314 
L 602.792493 494.103152 
L 604.030751 488.674382 
L 605.269008 487.341325 
L 606.507265 490.424881 
L 608.98378 502.77193 
L 610.222037 504.805063 
L 611.460294 501.503329 
L 613.936809 489.020628 
L 615.175066 486.492126 
L 616.413323 487.998979 
L 617.651581 491.757222 
L 618.889838 494.580649 
L 620.128095 493.174281 
L 621.366352 486.185351 
L 623.842867 465.234875 
L 625.081124 458.151627 
L 627.557639 450.072251 
L 628.795896 444.285339 
L 631.272411 431.078311 
L 632.510668 423.401253 
L 633.748925 414.37365 
L 634.987182 406.740398 
L 636.22544 403.349403 
L 637.463697 404.112849 
L 638.701954 407.191177 
L 639.940211 411.004478 
L 641.178469 413.978169 
L 643.654983 417.004518 
L 644.893241 420.322811 
L 646.131498 424.018387 
L 647.369755 425.923916 
L 648.608012 425.738611 
L 649.84627 424.697569 
L 651.084527 424.478173 
L 652.322784 426.264983 
L 654.799299 432.635477 
L 656.037556 434.452861 
L 657.275813 434.454607 
L 658.51407 431.152136 
L 659.752328 423.539912 
L 662.228842 403.838898 
L 664.705357 387.578787 
L 665.943614 378.334981 
L 668.420129 356.343824 
L 669.658386 345.275408 
L 670.896643 335.265631 
L 672.1349 326.732513 
L 673.373158 321.198964 
L 674.611415 321.155778 
L 675.849672 327.658463 
L 677.087929 339.163133 
L 679.564444 365.602938 
L 680.802701 375.755856 
L 682.040959 382.427412 
L 683.279216 385.896215 
L 684.517473 386.965683 
L 685.75573 386.427736 
L 686.993988 385.053782 
L 688.232245 383.340156 
L 689.470502 380.861197 
L 691.947017 373.623741 
L 693.185274 372.563898 
L 694.423531 374.750429 
L 695.661789 377.542822 
L 696.900046 377.311707 
L 698.138303 372.519982 
L 699.37656 363.718218 
L 701.853075 340.844078 
L 703.091332 330.99208 
L 709.282618 292.813748 
L 710.520876 287.819126 
L 711.759133 284.28256 
L 712.99739 281.79154 
L 714.235648 281.460432 
L 715.473905 285.139859 
L 717.950419 300.021378 
L 719.188677 304.57787 
L 721.665191 307.577212 
L 722.903448 310.768349 
L 724.141706 312.592577 
L 725.379963 309.227833 
L 726.61822 300.639465 
L 729.094735 279.278309 
L 730.332992 270.601604 
L 731.571249 263.369275 
L 732.809507 256.850943 
L 734.047764 251.149339 
L 735.286021 247.433035 
L 736.524278 247.101817 
L 739.000793 252.351615 
L 740.23905 253.320939 
L 741.477307 253.886739 
L 742.715565 256.681656 
L 743.953822 262.680778 
L 745.192079 271.180467 
L 748.906851 300.070878 
L 751.383366 316.187109 
L 752.621623 322.774193 
L 753.85988 328.43515 
L 755.098137 335.280028 
L 757.574652 353.124154 
L 758.812909 360.352761 
L 760.051166 365.823516 
L 761.289424 369.180672 
L 762.527681 370.140744 
L 763.765938 371.303558 
L 765.004195 376.805306 
L 766.242453 387.342326 
L 767.48071 399.000042 
L 768.718967 407.277199 
L 769.957225 409.913687 
L 771.195482 406.565259 
L 772.433739 398.928464 
L 773.671996 390.494463 
L 774.910254 384.286021 
L 776.148511 381.500616 
L 777.386768 382.323223 
L 778.625025 387.151625 
L 779.863283 396.428489 
L 781.10154 409.275576 
L 783.578054 436.185439 
L 784.816312 446.269633 
L 786.054569 453.228348 
L 787.292826 456.944503 
L 788.531084 457.630552 
L 789.769341 456.357043 
L 791.007598 454.121119 
L 792.245855 450.876736 
L 793.484113 445.90245 
L 794.72237 438.688083 
L 795.960627 430.1037 
L 797.198884 423.113274 
L 798.437142 421.188424 
L 799.675399 425.33318 
L 800.913656 432.980247 
L 802.151914 439.351764 
L 803.390171 440.039195 
L 804.628428 434.422899 
L 805.866685 426.78361 
L 807.104943 422.256879 
L 808.3432 422.565614 
L 809.581457 426.113981 
L 810.819714 430.295613 
L 812.057972 433.639846 
L 814.534486 439.390899 
L 815.772743 442.49515 
L 817.011001 444.495832 
L 818.249258 443.855024 
L 819.487515 440.651925 
L 820.725773 436.959375 
L 821.96403 434.964372 
L 823.202287 435.601044 
L 824.440544 438.452664 
L 825.678802 442.416681 
L 826.917059 447.037534 
L 828.155316 452.283551 
L 829.393573 456.811179 
L 830.631831 458.637154 
L 831.870088 457.801145 
L 833.108345 456.608223 
L 834.346602 457.284591 
L 835.58486 460.240039 
L 838.061374 468.220722 
L 839.299632 470.33744 
L 840.537889 470.239426 
L 841.776146 469.252401 
L 843.014403 469.757174 
L 844.252661 472.946975 
L 845.490918 477.537127 
L 846.729175 481.336068 
L 847.967432 483.230726 
L 849.20569 483.26973 
L 851.682204 481.380715 
L 852.920461 481.075915 
L 854.158719 481.766894 
L 855.396976 483.642247 
L 856.635233 486.107296 
L 857.873491 488.167287 
L 859.111748 489.204339 
L 860.350005 489.080903 
L 861.588262 488.256428 
L 862.82652 488.007971 
L 864.064777 489.646602 
L 865.303034 493.639716 
L 866.541291 500.183195 
L 869.017806 519.193451 
L 870.256063 526.060743 
L 871.49432 526.631479 
L 872.732578 521.177866 
L 873.970835 513.691389 
L 875.209092 508.621117 
L 876.44735 507.781179 
L 877.685607 510.431812 
L 878.923864 514.958293 
L 881.400379 524.984109 
L 882.638636 528.272407 
L 883.876893 527.850613 
L 885.11515 522.19824 
L 886.353408 512.06519 
L 887.591665 500.601609 
L 888.829922 491.396168 
L 890.06818 486.547764 
L 891.306437 486.656263 
L 892.544694 491.028248 
L 893.782951 497.154335 
L 895.021209 501.3975 
L 896.259466 501.165878 
L 897.497723 496.334064 
L 901.212495 473.604451 
L 902.450752 468.290545 
L 903.689009 465.471153 
L 904.927267 465.683835 
L 906.165524 467.289151 
L 907.403781 468.390295 
L 909.880296 469.915018 
L 911.118553 469.862618 
L 912.35681 467.760585 
L 913.595068 464.311962 
L 914.833325 461.552565 
L 916.071582 460.607234 
L 917.309839 461.417906 
L 918.548097 464.359892 
L 919.786354 470.536362 
L 922.262868 489.44071 
L 923.501126 495.718223 
L 924.739383 496.541198 
L 925.97764 491.883725 
L 927.215898 483.034703 
L 930.930669 449.626592 
L 934.645441 421.586355 
L 935.883698 411.214344 
L 937.121956 402.642528 
L 938.360213 397.611025 
L 939.59847 396.39829 
L 940.836727 398.205362 
L 942.074985 401.967572 
L 944.551499 411.911059 
L 947.028014 422.772606 
L 948.266271 426.499231 
L 949.504528 426.791866 
L 950.742786 422.54987 
L 953.2193 406.349943 
L 954.457557 401.333703 
L 955.695815 401.411498 
L 956.934072 405.860896 
L 958.172329 411.966228 
L 959.410586 416.522536 
L 960.648844 417.160072 
L 961.887101 412.7989 
L 963.125358 404.236816 
L 964.363616 394.179693 
L 965.601873 385.657253 
L 966.84013 380.506424 
L 968.078387 378.921684 
L 969.316645 379.817748 
L 970.554902 381.680423 
L 971.793159 382.844975 
L 973.031416 381.992082 
L 974.269674 379.359128 
L 975.507931 376.130464 
L 976.746188 372.449351 
L 977.984446 367.580202 
L 979.222703 361.048117 
L 980.46096 351.785156 
L 981.699217 337.555385 
L 982.937475 317.398886 
L 985.413989 272.584704 
L 986.652246 255.809783 
L 987.890504 243.802468 
L 990.367018 225.285867 
L 991.605275 217.240445 
L 992.843533 212.255409 
L 995.320047 207.482088 
L 997.796562 200.03511 
L 999.034819 200.679412 
L 1000.273076 206.711015 
L 1001.511334 214.327483 
L 1002.749591 218.846827 
L 1003.987848 218.963879 
L 1006.464363 213.744843 
L 1008.940877 210.157021 
L 1010.179134 207.099239 
L 1011.417392 201.657001 
L 1012.655649 193.506145 
L 1013.893906 184.21086 
L 1015.132164 177.084213 
L 1016.370421 174.021577 
L 1017.608678 174.006399 
L 1018.846935 175.654743 
L 1020.085193 179.062103 
L 1021.32345 183.729443 
L 1022.561707 186.812141 
L 1023.799964 185.494427 
L 1025.038222 179.612373 
L 1026.276479 171.171224 
L 1027.514736 161.794654 
L 1028.752993 151.009661 
L 1032.467765 112.482583 
L 1033.706023 102.282115 
L 1034.94428 94.083229 
L 1036.182537 87.428927 
L 1037.420794 82.842063 
L 1038.659052 82.852822 
L 1039.897309 89.474359 
L 1043.612081 123.416164 
L 1044.850338 129.199253 
L 1046.088595 132.228562 
L 1047.326852 135.709848 
L 1048.56511 142.469344 
L 1049.803367 151.898917 
L 1051.041624 160.023355 
L 1052.279882 163.522838 
L 1054.756396 162.841087 
L 1055.994653 165.15667 
L 1057.232911 169.770996 
L 1058.471168 175.526436 
L 1059.709425 184.173698 
L 1060.947682 197.965549 
L 1062.18594 214.341168 
L 1063.424197 228.059989 
L 1064.662454 236.350956 
L 1065.900711 239.236446 
L 1067.138969 237.957998 
L 1068.377226 234.101499 
L 1070.853741 224.425091 
L 1072.091998 220.738687 
L 1073.330255 218.14597 
L 1074.568512 214.873733 
L 1075.80677 208.393969 
L 1077.045027 198.893754 
L 1078.283284 190.712371 
L 1079.521541 189.926855 
L 1080.759799 199.358287 
L 1083.236313 231.792118 
L 1084.474571 243.647742 
L 1085.712828 249.3975 
L 1086.951085 249.469297 
L 1088.189342 246.077843 
L 1089.4276 242.20964 
L 1090.665857 240.557244 
L 1091.904114 243.230074 
L 1093.142371 250.653803 
L 1096.857143 282.761147 
L 1098.0954 290.089382 
L 1099.333658 292.553068 
L 1100.571915 290.987837 
L 1101.810172 288.537189 
L 1103.04843 288.095136 
L 1104.286687 290.326564 
L 1105.524944 293.616475 
L 1106.763201 295.832241 
L 1108.001459 297.13365 
L 1109.239716 300.581492 
L 1110.477973 308.967514 
L 1112.954488 334.451551 
L 1114.192745 343.712013 
L 1115.431002 347.608229 
L 1116.669259 346.198071 
L 1117.907517 340.460924 
L 1120.384031 324.648404 
L 1121.622289 320.63717 
L 1122.860546 321.275672 
L 1124.098803 325.059846 
L 1125.33706 329.570481 
L 1126.575318 332.955688 
L 1127.813575 334.123992 
L 1129.051832 333.100257 
L 1130.290089 331.786685 
L 1131.528347 332.45671 
L 1132.766604 335.237255 
L 1136.481376 346.22172 
L 1137.719633 347.977626 
L 1138.95789 347.004521 
L 1140.196148 344.911925 
L 1141.434405 344.71799 
L 1142.672662 347.517673 
L 1145.149177 355.816764 
L 1146.387434 358.776902 
L 1147.625691 361.315026 
L 1148.863948 364.914892 
L 1150.102206 371.167103 
L 1152.57872 388.034461 
L 1153.816977 393.491924 
L 1155.055235 395.116023 
L 1156.293492 392.915273 
L 1157.531749 387.125095 
L 1158.770007 379.215714 
L 1160.008264 372.639294 
L 1161.246521 369.989512 
L 1162.484778 370.648075 
L 1163.723036 372.846289 
L 1164.961293 375.799341 
L 1166.19955 379.563382 
L 1167.437807 384.972989 
L 1168.676065 392.676395 
L 1173.629094 428.789201 
L 1174.867351 435.746426 
L 1176.105608 441.192825 
L 1177.343866 447.751975 
L 1178.582123 455.773853 
L 1179.82038 462.299306 
L 1181.058637 464.338878 
L 1182.296895 461.513651 
L 1184.773409 450.010493 
L 1186.011666 445.218472 
L 1187.249924 442.821865 
L 1188.488181 444.512104 
L 1189.726438 450.00963 
L 1190.964696 456.141249 
L 1192.202953 459.77507 
L 1193.44121 460.361261 
L 1194.679467 459.663775 
L 1195.917725 459.843009 
L 1197.155982 460.65851 
L 1198.394239 459.484219 
L 1199.632496 455.399972 
L 1203.347268 440.332554 
L 1204.585525 436.313403 
L 1205.823783 435.303638 
L 1207.06204 437.993039 
L 1208.300297 443.687473 
L 1213.253326 473.736472 
L 1214.491584 479.381685 
L 1215.729841 481.43814 
L 1216.968098 478.144045 
L 1218.206355 469.306591 
L 1219.444613 457.365981 
L 1220.68287 447.216846 
L 1221.921127 442.920734 
L 1223.159384 445.043758 
L 1224.397642 451.399557 
L 1228.112414 475.038784 
L 1229.350671 481.798434 
L 1230.588928 486.151957 
L 1231.827185 488.550608 
L 1233.065443 489.684721 
L 1234.3037 489.502806 
L 1235.541957 489.10088 
L 1236.780214 490.534508 
L 1238.018472 494.62198 
L 1240.494986 505.462076 
L 1241.733243 509.041377 
L 1242.971501 510.386381 
L 1244.209758 509.159615 
L 1245.448015 505.566859 
L 1246.686273 500.054114 
L 1249.162787 486.525193 
L 1250.401044 482.014009 
L 1251.639302 480.194591 
L 1252.877559 480.803519 
L 1254.115816 483.221525 
L 1255.354073 486.143593 
L 1256.592331 488.506503 
L 1257.830588 490.208287 
L 1259.068845 491.200001 
L 1261.54536 491.338069 
L 1262.783617 493.091263 
L 1264.021874 496.961956 
L 1265.260132 501.691738 
L 1266.498389 505.006936 
L 1267.736646 504.298373 
L 1268.974903 498.498672 
L 1271.451418 481.035786 
L 1272.689675 476.230742 
L 1273.927932 477.11604 
L 1275.16619 483.250666 
L 1276.404447 490.726932 
L 1277.642704 494.91042 
L 1278.880962 494.739093 
L 1280.119219 492.489256 
L 1283.833991 484.881023 
L 1285.072248 484.482062 
L 1287.548762 488.053057 
L 1288.78702 486.922611 
L 1290.025277 482.66059 
L 1291.263534 477.067428 
L 1292.501791 472.923421 
L 1293.740049 472.942217 
L 1294.978306 478.286558 
L 1296.216563 487.701064 
L 1297.454821 498.042362 
L 1298.693078 505.850867 
L 1299.931335 509.118458 
L 1301.169592 507.747152 
L 1302.40785 502.743462 
L 1304.884364 489.259286 
L 1306.122621 484.648328 
L 1307.360879 482.282623 
L 1308.599136 482.213716 
L 1309.837393 485.709809 
L 1311.07565 493.736299 
L 1312.313908 503.911276 
L 1313.552165 510.675522 
L 1314.790422 509.215844 
L 1316.02868 499.128587 
L 1317.266937 485.183731 
L 1318.505194 474.65421 
L 1319.743451 471.766069 
L 1320.981709 474.958195 
L 1324.69648 491.346636 
L 1328.411252 504.849867 
L 1332.126024 517.524486 
L 1333.364281 519.994512 
L 1334.602539 519.282217 
L 1335.840796 514.953677 
L 1337.079053 508.078045 
L 1339.555568 491.728561 
L 1340.793825 484.629608 
L 1342.032082 481.014382 
L 1343.270339 483.056236 
L 1344.508597 490.570699 
L 1345.746854 500.030362 
L 1346.985111 506.708983 
L 1348.223368 508.005272 
L 1349.461626 504.77642 
L 1351.93814 494.766715 
L 1353.176398 491.527926 
L 1354.414655 489.734658 
L 1355.652912 488.553951 
L 1356.891169 488.295338 
L 1358.129427 489.521364 
L 1359.367684 491.262613 
L 1360.605941 492.640705 
L 1361.844198 494.983755 
L 1363.082456 500.285275 
L 1365.55897 516.566075 
L 1366.797228 521.755409 
L 1368.035485 522.226243 
L 1369.273742 518.641399 
L 1370.511999 513.580564 
L 1371.750257 509.412074 
L 1372.988514 506.3342 
L 1374.226771 502.679661 
L 1376.703286 491.51184 
L 1377.941543 487.400576 
L 1379.1798 485.936721 
L 1380.418057 487.2505 
L 1381.656315 491.671743 
L 1384.132829 504.782355 
L 1385.371087 508.107394 
L 1386.609344 507.335313 
L 1387.847601 503.154588 
L 1389.085858 497.907839 
L 1390.324116 494.245847 
L 1392.80063 490.921227 
L 1394.038887 488.132597 
L 1398.991916 472.775379 
L 1400.230174 468.468493 
L 1401.468431 463.421844 
L 1402.706688 459.261727 
L 1403.944946 458.342918 
L 1405.183203 461.6473 
L 1406.42146 467.891503 
L 1408.897975 481.502222 
L 1410.136232 486.372493 
L 1411.374489 488.353803 
L 1412.612746 487.301917 
L 1413.851004 485.313511 
L 1415.089261 485.387283 
L 1416.327518 488.070434 
L 1417.565775 490.116227 
L 1418.804033 487.483019 
L 1420.04229 479.352142 
L 1421.280547 469.371705 
L 1422.518805 463.552349 
L 1423.757062 465.871241 
L 1424.995319 475.019919 
L 1426.233576 485.914826 
L 1427.471834 493.881053 
L 1428.710091 496.801054 
L 1429.948348 495.311857 
L 1431.186605 492.608278 
L 1432.424863 492.160273 
L 1433.66312 494.094219 
L 1434.901377 494.950621 
L 1436.139634 491.335065 
L 1438.616149 474.942907 
L 1439.854406 470.078652 
L 1441.092664 469.473226 
L 1443.569178 473.009352 
L 1444.807435 473.217904 
L 1446.045693 470.903499 
L 1447.28395 467.01147 
L 1448.522207 463.94032 
L 1449.760464 463.772144 
L 1450.998722 467.532017 
L 1452.236979 475.027268 
L 1453.475236 484.08791 
L 1454.713494 491.540064 
L 1455.951751 495.743285 
L 1457.190008 496.6933 
L 1458.428265 494.363828 
L 1459.666523 489.062443 
L 1462.143037 475.778255 
L 1463.381294 469.856905 
L 1464.619552 465.094866 
L 1465.857809 462.566276 
L 1467.096066 462.891454 
L 1468.334323 464.547767 
L 1469.572581 464.444422 
L 1470.810838 461.026978 
L 1472.049095 455.878792 
L 1473.287353 452.458919 
L 1474.52561 453.426062 
L 1475.763867 458.621578 
L 1478.240382 473.001314 
L 1479.478639 478.236355 
L 1480.716896 480.443443 
L 1481.955153 479.672888 
L 1483.193411 476.629038 
L 1484.431668 472.866949 
L 1485.669925 471.049815 
L 1486.908182 472.325714 
L 1488.14644 474.997304 
L 1489.384697 477.104252 
L 1490.622954 478.179045 
L 1493.099469 479.333346 
L 1494.337726 479.457146 
L 1495.575983 477.820949 
L 1496.814241 473.014152 
L 1498.052498 464.372216 
L 1501.76727 430.060437 
L 1503.005527 422.17577 
L 1504.243784 417.312193 
L 1505.482041 416.558751 
L 1506.720299 420.665075 
L 1507.958556 428.583641 
L 1509.196813 438.019619 
L 1510.435071 446.362512 
L 1511.673328 450.795978 
L 1512.911585 450.009701 
L 1514.149842 445.885584 
L 1515.3881 441.293308 
L 1517.864614 433.541955 
L 1519.102871 430.465124 
L 1520.341129 429.302903 
L 1521.579386 430.984882 
L 1524.0559 438.83058 
L 1525.294158 441.635246 
L 1526.532415 442.491787 
L 1527.770672 440.828105 
L 1530.247187 432.802517 
L 1531.485444 430.278707 
L 1532.723701 430.140223 
L 1535.200216 433.52109 
L 1536.438473 433.489079 
L 1537.67673 430.915518 
L 1541.391502 419.292005 
L 1542.62976 416.974216 
L 1543.868017 416.477908 
L 1545.106274 417.633604 
L 1546.344531 420.719783 
L 1547.582789 426.278547 
L 1551.29756 448.372666 
L 1552.535818 452.296372 
L 1553.774075 450.700077 
L 1555.012332 445.387534 
L 1556.250589 441.244843 
L 1557.488847 441.881968 
L 1558.727104 447.910509 
L 1559.965361 456.411536 
L 1561.203619 461.954027 
L 1562.441876 460.690541 
L 1563.680133 452.822416 
L 1564.91839 440.757148 
L 1566.156648 427.531947 
L 1567.394905 417.340763 
L 1568.633162 413.704629 
L 1569.871419 416.571034 
L 1572.347934 428.907628 
L 1573.586191 431.55946 
L 1574.824448 430.00261 
L 1576.062706 424.667451 
L 1577.300963 417.126867 
L 1578.53922 410.515692 
L 1579.777478 407.665685 
L 1581.015735 408.294463 
L 1582.253992 409.172657 
L 1583.492249 408.081033 
L 1584.730507 406.320125 
L 1585.968764 405.936419 
L 1587.207021 406.539714 
L 1588.445278 406.30415 
L 1589.683536 404.676875 
L 1590.921793 402.648901 
L 1592.16005 401.135308 
L 1593.398307 400.506774 
L 1594.636565 400.760739 
L 1595.874822 401.410193 
L 1597.113079 402.350329 
L 1598.351337 404.766774 
L 1599.589594 410.000217 
L 1600.827851 417.767258 
L 1603.304366 434.367404 
L 1604.542623 440.203004 
L 1605.78088 442.606552 
L 1607.019137 440.973707 
L 1608.257395 435.951306 
L 1609.495652 428.273841 
L 1610.733909 417.685491 
L 1611.972166 405.129143 
L 1613.210424 394.839269 
L 1614.448681 391.201446 
L 1615.686938 393.944304 
L 1616.925196 397.945629 
L 1618.163453 397.156938 
L 1619.40171 389.116954 
L 1620.639967 377.084612 
L 1621.878225 367.097837 
L 1623.116482 362.68332 
L 1624.354739 363.2202 
L 1625.592996 366.226167 
L 1626.831254 369.546616 
L 1628.069511 371.932761 
L 1630.546026 374.94502 
L 1631.784283 376.765941 
L 1633.02254 377.795472 
L 1634.260797 377.234122 
L 1635.499055 374.696636 
L 1636.737312 369.363029 
L 1637.975569 359.742482 
L 1639.213826 343.30545 
L 1640.452084 317.698547 
L 1641.690341 284.78707 
L 1641.690341 284.78707 
" style="fill:none;stroke:#008000;stroke-linecap:square;stroke-width:1.5;"/>
   </g>
   <g id="patch_3">
    <path d="M 43.78125 586.86358 
L 43.78125 22.318125 
" style="fill:none;stroke:#000000;stroke-linecap:square;stroke-linejoin:miter;stroke-width:0.8;"/>
   </g>
   <g id="patch_4">
    <path d="M 1717.78125 586.86358 
L 1717.78125 22.318125 
" style="fill:none;stroke:#000000;stroke-linecap:square;stroke-linejoin:miter;stroke-width:0.8;"/>
   </g>
   <g id="patch_5">
    <path d="M 43.78125 586.86358 
L 1717.78125 586.86358 
" style="fill:none;stroke:#000000;stroke-linecap:square;stroke-linejoin:miter;stroke-width:0.8;"/>
   </g>
   <g id="patch_6">
    <path d="M 43.78125 22.318125 
L 1717.78125 22.318125 
" style="fill:none;stroke:#000000;stroke-linecap:square;stroke-linejoin:miter;stroke-width:0.8;"/>
   </g>
   <g id="text_15">
    <!-- before binarisation -->
    <g transform="translate(824.1825 16.318125)scale(0.12 -0.12)">
     <defs>
      <path d="M 3116 1747 
Q 3116 2381 2855 2742 
Q 2594 3103 2138 3103 
Q 1681 3103 1420 2742 
Q 1159 2381 1159 1747 
Q 1159 1113 1420 752 
Q 1681 391 2138 391 
Q 2594 391 2855 752 
Q 3116 1113 3116 1747 
z
M 1159 2969 
Q 1341 3281 1617 3432 
Q 1894 3584 2278 3584 
Q 2916 3584 3314 3078 
Q 3713 2572 3713 1747 
Q 3713 922 3314 415 
Q 2916 -91 2278 -91 
Q 1894 -91 1617 61 
Q 1341 213 1159 525 
L 1159 0 
L 581 0 
L 581 4863 
L 1159 4863 
L 1159 2969 
z
" id="DejaVuSans-62" transform="scale(0.015625)"/>
      <path d="M 1959 3097 
Q 1497 3097 1228 2736 
Q 959 2375 959 1747 
Q 959 1119 1226 758 
Q 1494 397 1959 397 
Q 2419 397 2687 759 
Q 2956 1122 2956 1747 
Q 2956 2369 2687 2733 
Q 2419 3097 1959 3097 
z
M 1959 3584 
Q 2709 3584 3137 3096 
Q 3566 2609 3566 1747 
Q 3566 888 3137 398 
Q 2709 -91 1959 -91 
Q 1206 -91 779 398 
Q 353 888 353 1747 
Q 353 2609 779 3096 
Q 1206 3584 1959 3584 
z
" id="DejaVuSans-6f" transform="scale(0.015625)"/>
      <path id="DejaVuSans-20" transform="scale(0.015625)"/>
      <path d="M 603 3500 
L 1178 3500 
L 1178 0 
L 603 0 
L 603 3500 
z
M 603 4863 
L 1178 4863 
L 1178 4134 
L 603 4134 
L 603 4863 
z
" id="DejaVuSans-69" transform="scale(0.015625)"/>
      <path d="M 3513 2113 
L 3513 0 
L 2938 0 
L 2938 2094 
Q 2938 2591 2744 2837 
Q 2550 3084 2163 3084 
Q 1697 3084 1428 2787 
Q 1159 2491 1159 1978 
L 1159 0 
L 581 0 
L 581 3500 
L 1159 3500 
L 1159 2956 
Q 1366 3272 1645 3428 
Q 1925 3584 2291 3584 
Q 2894 3584 3203 3211 
Q 3513 2838 3513 2113 
z
" id="DejaVuSans-6e" transform="scale(0.015625)"/>
      <path d="M 2834 3397 
L 2834 2853 
Q 2591 2978 2328 3040 
Q 2066 3103 1784 3103 
Q 1356 3103 1142 2972 
Q 928 2841 928 2578 
Q 928 2378 1081 2264 
Q 1234 2150 1697 2047 
L 1894 2003 
Q 2506 1872 2764 1633 
Q 3022 1394 3022 966 
Q 3022 478 2636 193 
Q 2250 -91 1575 -91 
Q 1294 -91 989 -36 
Q 684 19 347 128 
L 347 722 
Q 666 556 975 473 
Q 1284 391 1588 391 
Q 1994 391 2212 530 
Q 2431 669 2431 922 
Q 2431 1156 2273 1281 
Q 2116 1406 1581 1522 
L 1381 1569 
Q 847 1681 609 1914 
Q 372 2147 372 2553 
Q 372 3047 722 3315 
Q 1072 3584 1716 3584 
Q 2034 3584 2315 3537 
Q 2597 3491 2834 3397 
z
" id="DejaVuSans-73" transform="scale(0.015625)"/>
      <path d="M 1172 4494 
L 1172 3500 
L 2356 3500 
L 2356 3053 
L 1172 3053 
L 1172 1153 
Q 1172 725 1289 603 
Q 1406 481 1766 481 
L 2356 481 
L 2356 0 
L 1766 0 
Q 1100 0 847 248 
Q 594 497 594 1153 
L 594 3053 
L 172 3053 
L 172 3500 
L 594 3500 
L 594 4494 
L 1172 4494 
z
" id="DejaVuSans-74" transform="scale(0.015625)"/>
     </defs>
     <use xlink:href="#DejaVuSans-62"/>
     <use x="63.476562" xlink:href="#DejaVuSans-65"/>
     <use x="125" xlink:href="#DejaVuSans-66"/>
     <use x="160.205078" xlink:href="#DejaVuSans-6f"/>
     <use x="221.386719" xlink:href="#DejaVuSans-72"/>
     <use x="260.25" xlink:href="#DejaVuSans-65"/>
     <use x="321.773438" xlink:href="#DejaVuSans-20"/>
     <use x="353.560547" xlink:href="#DejaVuSans-62"/>
     <use x="417.037109" xlink:href="#DejaVuSans-69"/>
     <use x="444.820312" xlink:href="#DejaVuSans-6e"/>
     <use x="508.199219" xlink:href="#DejaVuSans-61"/>
     <use x="569.478516" xlink:href="#DejaVuSans-72"/>
     <use x="610.591797" xlink:href="#DejaVuSans-69"/>
     <use x="638.375" xlink:href="#DejaVuSans-73"/>
     <use x="690.474609" xlink:href="#DejaVuSans-61"/>
     <use x="751.753906" xlink:href="#DejaVuSans-74"/>
     <use x="790.962891" xlink:href="#DejaVuSans-69"/>
     <use x="818.746094" xlink:href="#DejaVuSans-6f"/>
     <use x="879.927734" xlink:href="#DejaVuSans-6e"/>
    </g>
   </g>
  </g>
  <g id="axes_2">
   <g id="patch_7">
    <path d="M 43.78125 1264.318125 
L 1717.78125 1264.318125 
L 1717.78125 699.77267 
L 43.78125 699.77267 
z
" style="fill:#ffffff;"/>
   </g>
   <g id="matplotlib.axis_3">
    <g id="xtick_8">
     <g id="line2d_14">
      <g>
       <use style="stroke:#000000;stroke-width:0.8;" x="119.872159" xlink:href="#m8c2ad6befd" y="1264.318125"/>
      </g>
     </g>
     <g id="text_16">
      <!-- 0 -->
      <g transform="translate(116.690909 1278.916563)scale(0.1 -0.1)">
       <use xlink:href="#DejaVuSans-30"/>
      </g>
     </g>
    </g>
    <g id="xtick_9">
     <g id="line2d_15">
      <g>
       <use style="stroke:#000000;stroke-width:0.8;" x="367.523613" xlink:href="#m8c2ad6befd" y="1264.318125"/>
      </g>
     </g>
     <g id="text_17">
      <!-- 200 -->
      <g transform="translate(357.979863 1278.916563)scale(0.1 -0.1)">
       <use xlink:href="#DejaVuSans-32"/>
       <use x="63.623047" xlink:href="#DejaVuSans-30"/>
       <use x="127.246094" xlink:href="#DejaVuSans-30"/>
      </g>
     </g>
    </g>
    <g id="xtick_10">
     <g id="line2d_16">
      <g>
       <use style="stroke:#000000;stroke-width:0.8;" x="615.175066" xlink:href="#m8c2ad6befd" y="1264.318125"/>
      </g>
     </g>
     <g id="text_18">
      <!-- 400 -->
      <g transform="translate(605.631316 1278.916563)scale(0.1 -0.1)">
       <use xlink:href="#DejaVuSans-34"/>
       <use x="63.623047" xlink:href="#DejaVuSans-30"/>
       <use x="127.246094" xlink:href="#DejaVuSans-30"/>
      </g>
     </g>
    </g>
    <g id="xtick_11">
     <g id="line2d_17">
      <g>
       <use style="stroke:#000000;stroke-width:0.8;" x="862.82652" xlink:href="#m8c2ad6befd" y="1264.318125"/>
      </g>
     </g>
     <g id="text_19">
      <!-- 600 -->
      <g transform="translate(853.28277 1278.916563)scale(0.1 -0.1)">
       <use xlink:href="#DejaVuSans-36"/>
       <use x="63.623047" xlink:href="#DejaVuSans-30"/>
       <use x="127.246094" xlink:href="#DejaVuSans-30"/>
      </g>
     </g>
    </g>
    <g id="xtick_12">
     <g id="line2d_18">
      <g>
       <use style="stroke:#000000;stroke-width:0.8;" x="1110.477973" xlink:href="#m8c2ad6befd" y="1264.318125"/>
      </g>
     </g>
     <g id="text_20">
      <!-- 800 -->
      <g transform="translate(1100.934223 1278.916563)scale(0.1 -0.1)">
       <use xlink:href="#DejaVuSans-38"/>
       <use x="63.623047" xlink:href="#DejaVuSans-30"/>
       <use x="127.246094" xlink:href="#DejaVuSans-30"/>
      </g>
     </g>
    </g>
    <g id="xtick_13">
     <g id="line2d_19">
      <g>
       <use style="stroke:#000000;stroke-width:0.8;" x="1358.129427" xlink:href="#m8c2ad6befd" y="1264.318125"/>
      </g>
     </g>
     <g id="text_21">
      <!-- 1000 -->
      <g transform="translate(1345.404427 1278.916563)scale(0.1 -0.1)">
       <use xlink:href="#DejaVuSans-31"/>
       <use x="63.623047" xlink:href="#DejaVuSans-30"/>
       <use x="127.246094" xlink:href="#DejaVuSans-30"/>
       <use x="190.869141" xlink:href="#DejaVuSans-30"/>
      </g>
     </g>
    </g>
    <g id="xtick_14">
     <g id="line2d_20">
      <g>
       <use style="stroke:#000000;stroke-width:0.8;" x="1605.78088" xlink:href="#m8c2ad6befd" y="1264.318125"/>
      </g>
     </g>
     <g id="text_22">
      <!-- 1200 -->
      <g transform="translate(1593.05588 1278.916563)scale(0.1 -0.1)">
       <use xlink:href="#DejaVuSans-31"/>
       <use x="63.623047" xlink:href="#DejaVuSans-32"/>
       <use x="127.246094" xlink:href="#DejaVuSans-30"/>
       <use x="190.869141" xlink:href="#DejaVuSans-30"/>
      </g>
     </g>
    </g>
    <g id="text_23">
     <!-- frame -->
     <g transform="translate(865.954687 1292.594688)scale(0.1 -0.1)">
      <use xlink:href="#DejaVuSans-66"/>
      <use x="35.205078" xlink:href="#DejaVuSans-72"/>
      <use x="76.318359" xlink:href="#DejaVuSans-61"/>
      <use x="137.597656" xlink:href="#DejaVuSans-6d"/>
      <use x="235.009766" xlink:href="#DejaVuSans-65"/>
     </g>
    </g>
   </g>
   <g id="matplotlib.axis_4">
    <g id="ytick_6">
     <g id="line2d_21">
      <g>
       <use style="stroke:#000000;stroke-width:0.8;" x="43.78125" xlink:href="#m86aedb92f8" y="1238.656968"/>
      </g>
     </g>
     <g id="text_24">
      <!-- 0.0 -->
      <g transform="translate(20.878125 1242.456187)scale(0.1 -0.1)">
       <use xlink:href="#DejaVuSans-30"/>
       <use x="63.623047" xlink:href="#DejaVuSans-2e"/>
       <use x="95.410156" xlink:href="#DejaVuSans-30"/>
      </g>
     </g>
    </g>
    <g id="ytick_7">
     <g id="line2d_22">
      <g>
       <use style="stroke:#000000;stroke-width:0.8;" x="43.78125" xlink:href="#m86aedb92f8" y="1136.01234"/>
      </g>
     </g>
     <g id="text_25">
      <!-- 0.2 -->
      <g transform="translate(20.878125 1139.811559)scale(0.1 -0.1)">
       <use xlink:href="#DejaVuSans-30"/>
       <use x="63.623047" xlink:href="#DejaVuSans-2e"/>
       <use x="95.410156" xlink:href="#DejaVuSans-32"/>
      </g>
     </g>
    </g>
    <g id="ytick_8">
     <g id="line2d_23">
      <g>
       <use style="stroke:#000000;stroke-width:0.8;" x="43.78125" xlink:href="#m86aedb92f8" y="1033.367712"/>
      </g>
     </g>
     <g id="text_26">
      <!-- 0.4 -->
      <g transform="translate(20.878125 1037.166931)scale(0.1 -0.1)">
       <use xlink:href="#DejaVuSans-30"/>
       <use x="63.623047" xlink:href="#DejaVuSans-2e"/>
       <use x="95.410156" xlink:href="#DejaVuSans-34"/>
      </g>
     </g>
    </g>
    <g id="ytick_9">
     <g id="line2d_24">
      <g>
       <use style="stroke:#000000;stroke-width:0.8;" x="43.78125" xlink:href="#m86aedb92f8" y="930.723084"/>
      </g>
     </g>
     <g id="text_27">
      <!-- 0.6 -->
      <g transform="translate(20.878125 934.522302)scale(0.1 -0.1)">
       <use xlink:href="#DejaVuSans-30"/>
       <use x="63.623047" xlink:href="#DejaVuSans-2e"/>
       <use x="95.410156" xlink:href="#DejaVuSans-36"/>
      </g>
     </g>
    </g>
    <g id="ytick_10">
     <g id="line2d_25">
      <g>
       <use style="stroke:#000000;stroke-width:0.8;" x="43.78125" xlink:href="#m86aedb92f8" y="828.078456"/>
      </g>
     </g>
     <g id="text_28">
      <!-- 0.8 -->
      <g transform="translate(20.878125 831.877674)scale(0.1 -0.1)">
       <use xlink:href="#DejaVuSans-30"/>
       <use x="63.623047" xlink:href="#DejaVuSans-2e"/>
       <use x="95.410156" xlink:href="#DejaVuSans-38"/>
      </g>
     </g>
    </g>
    <g id="ytick_11">
     <g id="line2d_26">
      <g>
       <use style="stroke:#000000;stroke-width:0.8;" x="43.78125" xlink:href="#m86aedb92f8" y="725.433827"/>
      </g>
     </g>
     <g id="text_29">
      <!-- 1.0 -->
      <g transform="translate(20.878125 729.233046)scale(0.1 -0.1)">
       <use xlink:href="#DejaVuSans-31"/>
       <use x="63.623047" xlink:href="#DejaVuSans-2e"/>
       <use x="95.410156" xlink:href="#DejaVuSans-30"/>
      </g>
     </g>
    </g>
    <g id="text_30">
     <!-- GCaMP -->
     <g transform="translate(14.798437 999.803991)rotate(-90)scale(0.1 -0.1)">
      <use xlink:href="#DejaVuSans-47"/>
      <use x="77.490234" xlink:href="#DejaVuSans-43"/>
      <use x="147.314453" xlink:href="#DejaVuSans-61"/>
      <use x="208.59375" xlink:href="#DejaVuSans-4d"/>
      <use x="294.873047" xlink:href="#DejaVuSans-50"/>
     </g>
    </g>
   </g>
   <g id="line2d_27">
    <path clip-path="url(#p2d92567cca)" d="M 119.872159 725.433827 
L 164.449421 725.433827 
L 165.687678 1238.656968 
L 704.329589 1238.656968 
L 705.567847 725.433827 
L 751.383366 725.433827 
L 752.621623 1238.656968 
L 981.699217 1238.656968 
L 982.937475 725.433827 
L 1110.477973 725.433827 
L 1111.71623 1238.656968 
L 1120.384031 1238.656968 
L 1121.622289 725.433827 
L 1122.860546 1238.656968 
L 1639.213826 1238.656968 
L 1640.452084 725.433827 
L 1641.690341 725.433827 
L 1641.690341 725.433827 
" style="fill:none;stroke:#008000;stroke-linecap:square;stroke-width:1.5;"/>
   </g>
   <g id="patch_8">
    <path d="M 43.78125 1264.318125 
L 43.78125 699.77267 
" style="fill:none;stroke:#000000;stroke-linecap:square;stroke-linejoin:miter;stroke-width:0.8;"/>
   </g>
   <g id="patch_9">
    <path d="M 1717.78125 1264.318125 
L 1717.78125 699.77267 
" style="fill:none;stroke:#000000;stroke-linecap:square;stroke-linejoin:miter;stroke-width:0.8;"/>
   </g>
   <g id="patch_10">
    <path d="M 43.78125 1264.318125 
L 1717.78125 1264.318125 
" style="fill:none;stroke:#000000;stroke-linecap:square;stroke-linejoin:miter;stroke-width:0.8;"/>
   </g>
   <g id="patch_11">
    <path d="M 43.78125 699.77267 
L 1717.78125 699.77267 
" style="fill:none;stroke:#000000;stroke-linecap:square;stroke-linejoin:miter;stroke-width:0.8;"/>
   </g>
   <g id="text_31">
    <!-- before binarisation -->
    <g transform="translate(824.1825 693.77267)scale(0.12 -0.12)">
     <use xlink:href="#DejaVuSans-62"/>
     <use x="63.476562" xlink:href="#DejaVuSans-65"/>
     <use x="125" xlink:href="#DejaVuSans-66"/>
     <use x="160.205078" xlink:href="#DejaVuSans-6f"/>
     <use x="221.386719" xlink:href="#DejaVuSans-72"/>
     <use x="260.25" xlink:href="#DejaVuSans-65"/>
     <use x="321.773438" xlink:href="#DejaVuSans-20"/>
     <use x="353.560547" xlink:href="#DejaVuSans-62"/>
     <use x="417.037109" xlink:href="#DejaVuSans-69"/>
     <use x="444.820312" xlink:href="#DejaVuSans-6e"/>
     <use x="508.199219" xlink:href="#DejaVuSans-61"/>
     <use x="569.478516" xlink:href="#DejaVuSans-72"/>
     <use x="610.591797" xlink:href="#DejaVuSans-69"/>
     <use x="638.375" xlink:href="#DejaVuSans-73"/>
     <use x="690.474609" xlink:href="#DejaVuSans-61"/>
     <use x="751.753906" xlink:href="#DejaVuSans-74"/>
     <use x="790.962891" xlink:href="#DejaVuSans-69"/>
     <use x="818.746094" xlink:href="#DejaVuSans-6f"/>
     <use x="879.927734" xlink:href="#DejaVuSans-6e"/>
    </g>
   </g>
  </g>
 </g>
 <defs>
  <clipPath id="p4801b3ea89">
   <rect height="564.545455" width="1674" x="43.78125" y="22.318125"/>
  </clipPath>
  <clipPath id="p2d92567cca">
   <rect height="564.545455" width="1674" x="43.78125" y="699.77267"/>
  </clipPath>
 </defs>
</svg>
