<?xml version="1.0" encoding="utf-8" standalone="no"?>
<!DOCTYPE svg PUBLIC "-//W3C//DTD SVG 1.1//EN"
  "http://www.w3.org/Graphics/SVG/1.1/DTD/svg11.dtd">
<svg height="1301.874375pt" version="1.1" viewBox="0 0 1724.98125 1301.874375" width="1724.98125pt" xmlns="http://www.w3.org/2000/svg" xmlns:xlink="http://www.w3.org/1999/xlink">
 <metadata>
  <rdf:RDF xmlns:cc="http://creativecommons.org/ns#" xmlns:dc="http://purl.org/dc/elements/1.1/" xmlns:rdf="http://www.w3.org/1999/02/22-rdf-syntax-ns#">
   <cc:Work>
    <dc:type rdf:resource="http://purl.org/dc/dcmitype/StillImage"/>
    <dc:date>2022-07-24T15:54:32.820231</dc:date>
    <dc:format>image/svg+xml</dc:format>
    <dc:creator>
     <cc:Agent>
      <dc:title>Matplotlib v3.4.2, https://matplotlib.org/</dc:title>
     </cc:Agent>
    </dc:creator>
   </cc:Work>
  </rdf:RDF>
 </metadata>
 <defs>
  <style type="text/css">*{stroke-linecap:butt;stroke-linejoin:round;}</style>
 </defs>
 <g id="figure_1">
  <g id="patch_1">
   <path d="M 0 1301.874375 
L 1724.98125 1301.874375 
L 1724.98125 0 
L 0 0 
z
" style="fill:#ffffff;"/>
  </g>
  <g id="axes_1">
   <g id="patch_2">
    <path d="M 43.78125 586.86358 
L 1717.78125 586.86358 
L 1717.78125 22.318125 
L 43.78125 22.318125 
z
" style="fill:#ffffff;"/>
   </g>
   <g id="matplotlib.axis_1">
    <g id="xtick_1">
     <g id="line2d_1">
      <defs>
       <path d="M 0 0 
L 0 3.5 
" id="m0069edf6b6" style="stroke:#000000;stroke-width:0.8;"/>
      </defs>
      <g>
       <use style="stroke:#000000;stroke-width:0.8;" x="119.872159" xlink:href="#m0069edf6b6" y="586.86358"/>
      </g>
     </g>
     <g id="text_1">
      <!-- 0 -->
      <g transform="translate(116.690909 601.462017)scale(0.1 -0.1)">
       <defs>
        <path d="M 2034 4250 
Q 1547 4250 1301 3770 
Q 1056 3291 1056 2328 
Q 1056 1369 1301 889 
Q 1547 409 2034 409 
Q 2525 409 2770 889 
Q 3016 1369 3016 2328 
Q 3016 3291 2770 3770 
Q 2525 4250 2034 4250 
z
M 2034 4750 
Q 2819 4750 3233 4129 
Q 3647 3509 3647 2328 
Q 3647 1150 3233 529 
Q 2819 -91 2034 -91 
Q 1250 -91 836 529 
Q 422 1150 422 2328 
Q 422 3509 836 4129 
Q 1250 4750 2034 4750 
z
" id="DejaVuSans-30" transform="scale(0.015625)"/>
       </defs>
       <use xlink:href="#DejaVuSans-30"/>
      </g>
     </g>
    </g>
    <g id="xtick_2">
     <g id="line2d_2">
      <g>
       <use style="stroke:#000000;stroke-width:0.8;" x="367.523613" xlink:href="#m0069edf6b6" y="586.86358"/>
      </g>
     </g>
     <g id="text_2">
      <!-- 200 -->
      <g transform="translate(357.979863 601.462017)scale(0.1 -0.1)">
       <defs>
        <path d="M 1228 531 
L 3431 531 
L 3431 0 
L 469 0 
L 469 531 
Q 828 903 1448 1529 
Q 2069 2156 2228 2338 
Q 2531 2678 2651 2914 
Q 2772 3150 2772 3378 
Q 2772 3750 2511 3984 
Q 2250 4219 1831 4219 
Q 1534 4219 1204 4116 
Q 875 4013 500 3803 
L 500 4441 
Q 881 4594 1212 4672 
Q 1544 4750 1819 4750 
Q 2544 4750 2975 4387 
Q 3406 4025 3406 3419 
Q 3406 3131 3298 2873 
Q 3191 2616 2906 2266 
Q 2828 2175 2409 1742 
Q 1991 1309 1228 531 
z
" id="DejaVuSans-32" transform="scale(0.015625)"/>
       </defs>
       <use xlink:href="#DejaVuSans-32"/>
       <use x="63.623047" xlink:href="#DejaVuSans-30"/>
       <use x="127.246094" xlink:href="#DejaVuSans-30"/>
      </g>
     </g>
    </g>
    <g id="xtick_3">
     <g id="line2d_3">
      <g>
       <use style="stroke:#000000;stroke-width:0.8;" x="615.175066" xlink:href="#m0069edf6b6" y="586.86358"/>
      </g>
     </g>
     <g id="text_3">
      <!-- 400 -->
      <g transform="translate(605.631316 601.462017)scale(0.1 -0.1)">
       <defs>
        <path d="M 2419 4116 
L 825 1625 
L 2419 1625 
L 2419 4116 
z
M 2253 4666 
L 3047 4666 
L 3047 1625 
L 3713 1625 
L 3713 1100 
L 3047 1100 
L 3047 0 
L 2419 0 
L 2419 1100 
L 313 1100 
L 313 1709 
L 2253 4666 
z
" id="DejaVuSans-34" transform="scale(0.015625)"/>
       </defs>
       <use xlink:href="#DejaVuSans-34"/>
       <use x="63.623047" xlink:href="#DejaVuSans-30"/>
       <use x="127.246094" xlink:href="#DejaVuSans-30"/>
      </g>
     </g>
    </g>
    <g id="xtick_4">
     <g id="line2d_4">
      <g>
       <use style="stroke:#000000;stroke-width:0.8;" x="862.82652" xlink:href="#m0069edf6b6" y="586.86358"/>
      </g>
     </g>
     <g id="text_4">
      <!-- 600 -->
      <g transform="translate(853.28277 601.462017)scale(0.1 -0.1)">
       <defs>
        <path d="M 2113 2584 
Q 1688 2584 1439 2293 
Q 1191 2003 1191 1497 
Q 1191 994 1439 701 
Q 1688 409 2113 409 
Q 2538 409 2786 701 
Q 3034 994 3034 1497 
Q 3034 2003 2786 2293 
Q 2538 2584 2113 2584 
z
M 3366 4563 
L 3366 3988 
Q 3128 4100 2886 4159 
Q 2644 4219 2406 4219 
Q 1781 4219 1451 3797 
Q 1122 3375 1075 2522 
Q 1259 2794 1537 2939 
Q 1816 3084 2150 3084 
Q 2853 3084 3261 2657 
Q 3669 2231 3669 1497 
Q 3669 778 3244 343 
Q 2819 -91 2113 -91 
Q 1303 -91 875 529 
Q 447 1150 447 2328 
Q 447 3434 972 4092 
Q 1497 4750 2381 4750 
Q 2619 4750 2861 4703 
Q 3103 4656 3366 4563 
z
" id="DejaVuSans-36" transform="scale(0.015625)"/>
       </defs>
       <use xlink:href="#DejaVuSans-36"/>
       <use x="63.623047" xlink:href="#DejaVuSans-30"/>
       <use x="127.246094" xlink:href="#DejaVuSans-30"/>
      </g>
     </g>
    </g>
    <g id="xtick_5">
     <g id="line2d_5">
      <g>
       <use style="stroke:#000000;stroke-width:0.8;" x="1110.477973" xlink:href="#m0069edf6b6" y="586.86358"/>
      </g>
     </g>
     <g id="text_5">
      <!-- 800 -->
      <g transform="translate(1100.934223 601.462017)scale(0.1 -0.1)">
       <defs>
        <path d="M 2034 2216 
Q 1584 2216 1326 1975 
Q 1069 1734 1069 1313 
Q 1069 891 1326 650 
Q 1584 409 2034 409 
Q 2484 409 2743 651 
Q 3003 894 3003 1313 
Q 3003 1734 2745 1975 
Q 2488 2216 2034 2216 
z
M 1403 2484 
Q 997 2584 770 2862 
Q 544 3141 544 3541 
Q 544 4100 942 4425 
Q 1341 4750 2034 4750 
Q 2731 4750 3128 4425 
Q 3525 4100 3525 3541 
Q 3525 3141 3298 2862 
Q 3072 2584 2669 2484 
Q 3125 2378 3379 2068 
Q 3634 1759 3634 1313 
Q 3634 634 3220 271 
Q 2806 -91 2034 -91 
Q 1263 -91 848 271 
Q 434 634 434 1313 
Q 434 1759 690 2068 
Q 947 2378 1403 2484 
z
M 1172 3481 
Q 1172 3119 1398 2916 
Q 1625 2713 2034 2713 
Q 2441 2713 2670 2916 
Q 2900 3119 2900 3481 
Q 2900 3844 2670 4047 
Q 2441 4250 2034 4250 
Q 1625 4250 1398 4047 
Q 1172 3844 1172 3481 
z
" id="DejaVuSans-38" transform="scale(0.015625)"/>
       </defs>
       <use xlink:href="#DejaVuSans-38"/>
       <use x="63.623047" xlink:href="#DejaVuSans-30"/>
       <use x="127.246094" xlink:href="#DejaVuSans-30"/>
      </g>
     </g>
    </g>
    <g id="xtick_6">
     <g id="line2d_6">
      <g>
       <use style="stroke:#000000;stroke-width:0.8;" x="1358.129427" xlink:href="#m0069edf6b6" y="586.86358"/>
      </g>
     </g>
     <g id="text_6">
      <!-- 1000 -->
      <g transform="translate(1345.404427 601.462017)scale(0.1 -0.1)">
       <defs>
        <path d="M 794 531 
L 1825 531 
L 1825 4091 
L 703 3866 
L 703 4441 
L 1819 4666 
L 2450 4666 
L 2450 531 
L 3481 531 
L 3481 0 
L 794 0 
L 794 531 
z
" id="DejaVuSans-31" transform="scale(0.015625)"/>
       </defs>
       <use xlink:href="#DejaVuSans-31"/>
       <use x="63.623047" xlink:href="#DejaVuSans-30"/>
       <use x="127.246094" xlink:href="#DejaVuSans-30"/>
       <use x="190.869141" xlink:href="#DejaVuSans-30"/>
      </g>
     </g>
    </g>
    <g id="xtick_7">
     <g id="line2d_7">
      <g>
       <use style="stroke:#000000;stroke-width:0.8;" x="1605.78088" xlink:href="#m0069edf6b6" y="586.86358"/>
      </g>
     </g>
     <g id="text_7">
      <!-- 1200 -->
      <g transform="translate(1593.05588 601.462017)scale(0.1 -0.1)">
       <use xlink:href="#DejaVuSans-31"/>
       <use x="63.623047" xlink:href="#DejaVuSans-32"/>
       <use x="127.246094" xlink:href="#DejaVuSans-30"/>
       <use x="190.869141" xlink:href="#DejaVuSans-30"/>
      </g>
     </g>
    </g>
    <g id="text_8">
     <!-- frame -->
     <g transform="translate(865.954687 615.140142)scale(0.1 -0.1)">
      <defs>
       <path d="M 2375 4863 
L 2375 4384 
L 1825 4384 
Q 1516 4384 1395 4259 
Q 1275 4134 1275 3809 
L 1275 3500 
L 2222 3500 
L 2222 3053 
L 1275 3053 
L 1275 0 
L 697 0 
L 697 3053 
L 147 3053 
L 147 3500 
L 697 3500 
L 697 3744 
Q 697 4328 969 4595 
Q 1241 4863 1831 4863 
L 2375 4863 
z
" id="DejaVuSans-66" transform="scale(0.015625)"/>
       <path d="M 2631 2963 
Q 2534 3019 2420 3045 
Q 2306 3072 2169 3072 
Q 1681 3072 1420 2755 
Q 1159 2438 1159 1844 
L 1159 0 
L 581 0 
L 581 3500 
L 1159 3500 
L 1159 2956 
Q 1341 3275 1631 3429 
Q 1922 3584 2338 3584 
Q 2397 3584 2469 3576 
Q 2541 3569 2628 3553 
L 2631 2963 
z
" id="DejaVuSans-72" transform="scale(0.015625)"/>
       <path d="M 2194 1759 
Q 1497 1759 1228 1600 
Q 959 1441 959 1056 
Q 959 750 1161 570 
Q 1363 391 1709 391 
Q 2188 391 2477 730 
Q 2766 1069 2766 1631 
L 2766 1759 
L 2194 1759 
z
M 3341 1997 
L 3341 0 
L 2766 0 
L 2766 531 
Q 2569 213 2275 61 
Q 1981 -91 1556 -91 
Q 1019 -91 701 211 
Q 384 513 384 1019 
Q 384 1609 779 1909 
Q 1175 2209 1959 2209 
L 2766 2209 
L 2766 2266 
Q 2766 2663 2505 2880 
Q 2244 3097 1772 3097 
Q 1472 3097 1187 3025 
Q 903 2953 641 2809 
L 641 3341 
Q 956 3463 1253 3523 
Q 1550 3584 1831 3584 
Q 2591 3584 2966 3190 
Q 3341 2797 3341 1997 
z
" id="DejaVuSans-61" transform="scale(0.015625)"/>
       <path d="M 3328 2828 
Q 3544 3216 3844 3400 
Q 4144 3584 4550 3584 
Q 5097 3584 5394 3201 
Q 5691 2819 5691 2113 
L 5691 0 
L 5113 0 
L 5113 2094 
Q 5113 2597 4934 2840 
Q 4756 3084 4391 3084 
Q 3944 3084 3684 2787 
Q 3425 2491 3425 1978 
L 3425 0 
L 2847 0 
L 2847 2094 
Q 2847 2600 2669 2842 
Q 2491 3084 2119 3084 
Q 1678 3084 1418 2786 
Q 1159 2488 1159 1978 
L 1159 0 
L 581 0 
L 581 3500 
L 1159 3500 
L 1159 2956 
Q 1356 3278 1631 3431 
Q 1906 3584 2284 3584 
Q 2666 3584 2933 3390 
Q 3200 3197 3328 2828 
z
" id="DejaVuSans-6d" transform="scale(0.015625)"/>
       <path d="M 3597 1894 
L 3597 1613 
L 953 1613 
Q 991 1019 1311 708 
Q 1631 397 2203 397 
Q 2534 397 2845 478 
Q 3156 559 3463 722 
L 3463 178 
Q 3153 47 2828 -22 
Q 2503 -91 2169 -91 
Q 1331 -91 842 396 
Q 353 884 353 1716 
Q 353 2575 817 3079 
Q 1281 3584 2069 3584 
Q 2775 3584 3186 3129 
Q 3597 2675 3597 1894 
z
M 3022 2063 
Q 3016 2534 2758 2815 
Q 2500 3097 2075 3097 
Q 1594 3097 1305 2825 
Q 1016 2553 972 2059 
L 3022 2063 
z
" id="DejaVuSans-65" transform="scale(0.015625)"/>
      </defs>
      <use xlink:href="#DejaVuSans-66"/>
      <use x="35.205078" xlink:href="#DejaVuSans-72"/>
      <use x="76.318359" xlink:href="#DejaVuSans-61"/>
      <use x="137.597656" xlink:href="#DejaVuSans-6d"/>
      <use x="235.009766" xlink:href="#DejaVuSans-65"/>
     </g>
    </g>
   </g>
   <g id="matplotlib.axis_2">
    <g id="ytick_1">
     <g id="line2d_8">
      <defs>
       <path d="M 0 0 
L -3.5 0 
" id="m3b294f999f" style="stroke:#000000;stroke-width:0.8;"/>
      </defs>
      <g>
       <use style="stroke:#000000;stroke-width:0.8;" x="43.78125" xlink:href="#m3b294f999f" y="571.462367"/>
      </g>
     </g>
     <g id="text_9">
      <!-- 3 -->
      <g transform="translate(30.41875 575.261585)scale(0.1 -0.1)">
       <defs>
        <path d="M 2597 2516 
Q 3050 2419 3304 2112 
Q 3559 1806 3559 1356 
Q 3559 666 3084 287 
Q 2609 -91 1734 -91 
Q 1441 -91 1130 -33 
Q 819 25 488 141 
L 488 750 
Q 750 597 1062 519 
Q 1375 441 1716 441 
Q 2309 441 2620 675 
Q 2931 909 2931 1356 
Q 2931 1769 2642 2001 
Q 2353 2234 1838 2234 
L 1294 2234 
L 1294 2753 
L 1863 2753 
Q 2328 2753 2575 2939 
Q 2822 3125 2822 3475 
Q 2822 3834 2567 4026 
Q 2313 4219 1838 4219 
Q 1578 4219 1281 4162 
Q 984 4106 628 3988 
L 628 4550 
Q 988 4650 1302 4700 
Q 1616 4750 1894 4750 
Q 2613 4750 3031 4423 
Q 3450 4097 3450 3541 
Q 3450 3153 3228 2886 
Q 3006 2619 2597 2516 
z
" id="DejaVuSans-33" transform="scale(0.015625)"/>
       </defs>
       <use xlink:href="#DejaVuSans-33"/>
      </g>
     </g>
    </g>
    <g id="ytick_2">
     <g id="line2d_9">
      <g>
       <use style="stroke:#000000;stroke-width:0.8;" x="43.78125" xlink:href="#m3b294f999f" y="497.562376"/>
      </g>
     </g>
     <g id="text_10">
      <!-- 4 -->
      <g transform="translate(30.41875 501.361595)scale(0.1 -0.1)">
       <use xlink:href="#DejaVuSans-34"/>
      </g>
     </g>
    </g>
    <g id="ytick_3">
     <g id="line2d_10">
      <g>
       <use style="stroke:#000000;stroke-width:0.8;" x="43.78125" xlink:href="#m3b294f999f" y="423.662386"/>
      </g>
     </g>
     <g id="text_11">
      <!-- 5 -->
      <g transform="translate(30.41875 427.461605)scale(0.1 -0.1)">
       <defs>
        <path d="M 691 4666 
L 3169 4666 
L 3169 4134 
L 1269 4134 
L 1269 2991 
Q 1406 3038 1543 3061 
Q 1681 3084 1819 3084 
Q 2600 3084 3056 2656 
Q 3513 2228 3513 1497 
Q 3513 744 3044 326 
Q 2575 -91 1722 -91 
Q 1428 -91 1123 -41 
Q 819 9 494 109 
L 494 744 
Q 775 591 1075 516 
Q 1375 441 1709 441 
Q 2250 441 2565 725 
Q 2881 1009 2881 1497 
Q 2881 1984 2565 2268 
Q 2250 2553 1709 2553 
Q 1456 2553 1204 2497 
Q 953 2441 691 2322 
L 691 4666 
z
" id="DejaVuSans-35" transform="scale(0.015625)"/>
       </defs>
       <use xlink:href="#DejaVuSans-35"/>
      </g>
     </g>
    </g>
    <g id="ytick_4">
     <g id="line2d_11">
      <g>
       <use style="stroke:#000000;stroke-width:0.8;" x="43.78125" xlink:href="#m3b294f999f" y="349.762396"/>
      </g>
     </g>
     <g id="text_12">
      <!-- 6 -->
      <g transform="translate(30.41875 353.561614)scale(0.1 -0.1)">
       <use xlink:href="#DejaVuSans-36"/>
      </g>
     </g>
    </g>
    <g id="ytick_5">
     <g id="line2d_12">
      <g>
       <use style="stroke:#000000;stroke-width:0.8;" x="43.78125" xlink:href="#m3b294f999f" y="275.862405"/>
      </g>
     </g>
     <g id="text_13">
      <!-- 7 -->
      <g transform="translate(30.41875 279.661624)scale(0.1 -0.1)">
       <defs>
        <path d="M 525 4666 
L 3525 4666 
L 3525 4397 
L 1831 0 
L 1172 0 
L 2766 4134 
L 525 4134 
L 525 4666 
z
" id="DejaVuSans-37" transform="scale(0.015625)"/>
       </defs>
       <use xlink:href="#DejaVuSans-37"/>
      </g>
     </g>
    </g>
    <g id="ytick_6">
     <g id="line2d_13">
      <g>
       <use style="stroke:#000000;stroke-width:0.8;" x="43.78125" xlink:href="#m3b294f999f" y="201.962415"/>
      </g>
     </g>
     <g id="text_14">
      <!-- 8 -->
      <g transform="translate(30.41875 205.761634)scale(0.1 -0.1)">
       <use xlink:href="#DejaVuSans-38"/>
      </g>
     </g>
    </g>
    <g id="ytick_7">
     <g id="line2d_14">
      <g>
       <use style="stroke:#000000;stroke-width:0.8;" x="43.78125" xlink:href="#m3b294f999f" y="128.062425"/>
      </g>
     </g>
     <g id="text_15">
      <!-- 9 -->
      <g transform="translate(30.41875 131.861643)scale(0.1 -0.1)">
       <defs>
        <path d="M 703 97 
L 703 672 
Q 941 559 1184 500 
Q 1428 441 1663 441 
Q 2288 441 2617 861 
Q 2947 1281 2994 2138 
Q 2813 1869 2534 1725 
Q 2256 1581 1919 1581 
Q 1219 1581 811 2004 
Q 403 2428 403 3163 
Q 403 3881 828 4315 
Q 1253 4750 1959 4750 
Q 2769 4750 3195 4129 
Q 3622 3509 3622 2328 
Q 3622 1225 3098 567 
Q 2575 -91 1691 -91 
Q 1453 -91 1209 -44 
Q 966 3 703 97 
z
M 1959 2075 
Q 2384 2075 2632 2365 
Q 2881 2656 2881 3163 
Q 2881 3666 2632 3958 
Q 2384 4250 1959 4250 
Q 1534 4250 1286 3958 
Q 1038 3666 1038 3163 
Q 1038 2656 1286 2365 
Q 1534 2075 1959 2075 
z
" id="DejaVuSans-39" transform="scale(0.015625)"/>
       </defs>
       <use xlink:href="#DejaVuSans-39"/>
      </g>
     </g>
    </g>
    <g id="ytick_8">
     <g id="line2d_15">
      <g>
       <use style="stroke:#000000;stroke-width:0.8;" x="43.78125" xlink:href="#m3b294f999f" y="54.162434"/>
      </g>
     </g>
     <g id="text_16">
      <!-- 10 -->
      <g transform="translate(24.05625 57.961653)scale(0.1 -0.1)">
       <use xlink:href="#DejaVuSans-31"/>
       <use x="63.623047" xlink:href="#DejaVuSans-30"/>
      </g>
     </g>
    </g>
    <g id="text_17">
     <!-- GCaMP -->
     <g transform="translate(17.976562 322.349446)rotate(-90)scale(0.1 -0.1)">
      <defs>
       <path d="M 3809 666 
L 3809 1919 
L 2778 1919 
L 2778 2438 
L 4434 2438 
L 4434 434 
Q 4069 175 3628 42 
Q 3188 -91 2688 -91 
Q 1594 -91 976 548 
Q 359 1188 359 2328 
Q 359 3472 976 4111 
Q 1594 4750 2688 4750 
Q 3144 4750 3555 4637 
Q 3966 4525 4313 4306 
L 4313 3634 
Q 3963 3931 3569 4081 
Q 3175 4231 2741 4231 
Q 1884 4231 1454 3753 
Q 1025 3275 1025 2328 
Q 1025 1384 1454 906 
Q 1884 428 2741 428 
Q 3075 428 3337 486 
Q 3600 544 3809 666 
z
" id="DejaVuSans-47" transform="scale(0.015625)"/>
       <path d="M 4122 4306 
L 4122 3641 
Q 3803 3938 3442 4084 
Q 3081 4231 2675 4231 
Q 1875 4231 1450 3742 
Q 1025 3253 1025 2328 
Q 1025 1406 1450 917 
Q 1875 428 2675 428 
Q 3081 428 3442 575 
Q 3803 722 4122 1019 
L 4122 359 
Q 3791 134 3420 21 
Q 3050 -91 2638 -91 
Q 1578 -91 968 557 
Q 359 1206 359 2328 
Q 359 3453 968 4101 
Q 1578 4750 2638 4750 
Q 3056 4750 3426 4639 
Q 3797 4528 4122 4306 
z
" id="DejaVuSans-43" transform="scale(0.015625)"/>
       <path d="M 628 4666 
L 1569 4666 
L 2759 1491 
L 3956 4666 
L 4897 4666 
L 4897 0 
L 4281 0 
L 4281 4097 
L 3078 897 
L 2444 897 
L 1241 4097 
L 1241 0 
L 628 0 
L 628 4666 
z
" id="DejaVuSans-4d" transform="scale(0.015625)"/>
       <path d="M 1259 4147 
L 1259 2394 
L 2053 2394 
Q 2494 2394 2734 2622 
Q 2975 2850 2975 3272 
Q 2975 3691 2734 3919 
Q 2494 4147 2053 4147 
L 1259 4147 
z
M 628 4666 
L 2053 4666 
Q 2838 4666 3239 4311 
Q 3641 3956 3641 3272 
Q 3641 2581 3239 2228 
Q 2838 1875 2053 1875 
L 1259 1875 
L 1259 0 
L 628 0 
L 628 4666 
z
" id="DejaVuSans-50" transform="scale(0.015625)"/>
      </defs>
      <use xlink:href="#DejaVuSans-47"/>
      <use x="77.490234" xlink:href="#DejaVuSans-43"/>
      <use x="147.314453" xlink:href="#DejaVuSans-61"/>
      <use x="208.59375" xlink:href="#DejaVuSans-4d"/>
      <use x="294.873047" xlink:href="#DejaVuSans-50"/>
     </g>
    </g>
   </g>
   <g id="line2d_16">
    <path clip-path="url(#p105d05ed15)" d="M 119.872159 102.541462 
L 121.110416 78.18655 
L 122.348674 59.381754 
L 123.586931 49.338861 
L 124.825188 47.979282 
L 126.063445 52.944559 
L 127.301703 61.75643 
L 128.53996 73.030037 
L 131.016474 97.645091 
L 132.254732 107.55407 
L 133.492989 115.098498 
L 134.731246 121.787766 
L 135.969504 129.685862 
L 137.207761 139.790738 
L 140.922533 175.698022 
L 143.399047 199.527929 
L 144.637304 210.634276 
L 145.875562 220.41595 
L 147.113819 227.851603 
L 148.352076 232.694206 
L 149.590334 235.7772 
L 152.066848 239.815222 
L 153.305105 243.027947 
L 154.543363 249.114898 
L 155.78162 258.226315 
L 158.258134 279.969172 
L 159.496392 289.009551 
L 160.734649 294.518382 
L 161.972906 295.693185 
L 163.211163 293.302135 
L 165.687678 285.075857 
L 166.925935 282.75303 
L 168.164193 283.832373 
L 169.40245 289.034058 
L 171.878964 305.035686 
L 173.117222 311.214658 
L 174.355479 315.218674 
L 175.593736 317.641227 
L 176.831993 319.00138 
L 178.070251 319.309207 
L 179.308508 318.72977 
L 180.546765 318.59083 
L 181.785022 320.54912 
L 184.261537 328.69252 
L 185.499794 330.714127 
L 186.738052 329.307007 
L 187.976309 324.727584 
L 189.214566 319.168805 
L 190.452823 315.485253 
L 191.691081 315.25769 
L 192.929338 318.304669 
L 195.405852 327.89085 
L 196.64411 331.302836 
L 197.882367 333.208807 
L 199.120624 334.103334 
L 200.358881 334.741169 
L 201.597139 335.867965 
L 202.835396 338.155592 
L 205.311911 345.370772 
L 206.550168 347.144678 
L 207.788425 346.214897 
L 213.979711 333.402253 
L 215.217969 331.621111 
L 216.456226 332.016348 
L 217.694483 335.483574 
L 218.93274 340.972184 
L 220.170998 345.8581 
L 221.409255 348.103398 
L 222.647512 347.885468 
L 226.362284 344.269714 
L 227.600541 343.83324 
L 228.838799 344.326208 
L 231.315313 346.670342 
L 233.791828 349.281398 
L 235.030085 350.240962 
L 236.268342 350.197057 
L 237.5066 349.027828 
L 239.983114 344.999897 
L 241.221371 343.602221 
L 243.697886 342.654228 
L 244.936143 341.711965 
L 246.1744 340.16886 
L 247.412658 337.853303 
L 248.650915 334.438492 
L 249.889172 330.530507 
L 251.127429 328.226951 
L 252.365687 329.945568 
L 253.603944 336.511952 
L 254.842201 345.949115 
L 256.080459 354.419245 
L 257.318716 359.322989 
L 258.556973 360.979573 
L 261.033488 361.138361 
L 262.271745 362.451423 
L 263.510002 365.750059 
L 264.748259 370.832045 
L 268.463031 390.150203 
L 269.701288 394.595488 
L 270.939546 395.718542 
L 272.177803 392.461241 
L 273.41606 385.031285 
L 275.892575 365.050904 
L 277.130832 358.034252 
L 278.369089 356.051195 
L 279.607347 359.59177 
L 282.083861 372.658558 
L 283.322118 376.534387 
L 284.560376 379.199276 
L 287.03689 385.414461 
L 290.751662 394.192085 
L 291.989919 398.409855 
L 296.942948 419.999004 
L 298.181206 425.817286 
L 300.65772 439.071283 
L 301.895977 445.600803 
L 303.134235 450.367591 
L 304.372492 452.518702 
L 305.610749 452.242358 
L 306.849006 449.999408 
L 309.325521 442.819251 
L 310.563778 441.021051 
L 311.802036 441.556041 
L 313.040293 443.283304 
L 314.27855 444.400041 
L 315.516807 443.515136 
L 316.755065 440.033868 
L 317.993322 435.025309 
L 319.231579 431.455966 
L 320.469836 431.640653 
L 321.708094 434.987613 
L 322.946351 439.362798 
L 324.184608 443.12169 
L 325.422866 445.37909 
L 327.89938 446.840717 
L 329.137637 449.355438 
L 330.375895 454.353625 
L 331.614152 460.314997 
L 332.852409 465.112289 
L 334.090666 467.824563 
L 335.328924 468.76408 
L 336.567181 468.483284 
L 337.805438 467.255822 
L 339.043695 465.230964 
L 340.281953 462.495489 
L 341.52021 459.018711 
L 343.996725 450.781507 
L 345.234982 447.687169 
L 346.473239 446.405686 
L 347.711496 446.78216 
L 348.949754 447.701009 
L 350.188011 448.119132 
L 351.426268 448.22743 
L 352.664525 449.090706 
L 353.902783 451.350847 
L 356.379297 457.490991 
L 362.570584 468.410332 
L 363.808841 471.824962 
L 366.285355 482.011166 
L 367.523613 485.608746 
L 368.76187 487.125784 
L 370.000127 487.448929 
L 371.238384 487.350442 
L 372.476642 487.132766 
L 373.714899 487.190138 
L 377.429671 488.579942 
L 378.667928 489.335696 
L 379.906185 491.182235 
L 381.144443 494.479766 
L 382.3827 498.155378 
L 383.620957 500.252924 
L 384.859214 499.84182 
L 387.335729 496.018713 
L 388.573986 495.112795 
L 391.050501 494.573411 
L 392.288758 493.908036 
L 394.765272 491.806121 
L 396.00353 491.349791 
L 397.241787 491.822966 
L 398.480044 492.721974 
L 399.718302 493.240084 
L 400.956559 493.101056 
L 402.194816 492.242666 
L 403.433073 490.152341 
L 404.671331 486.185526 
L 405.909588 480.178907 
L 408.386102 464.433212 
L 409.62436 456.721599 
L 410.862617 450.340539 
L 412.100874 445.854533 
L 413.339132 443.247887 
L 414.577389 442.031315 
L 415.815646 441.803453 
L 417.053903 442.510555 
L 418.292161 444.139185 
L 419.530418 446.652274 
L 420.768675 450.259194 
L 423.24519 459.330058 
L 424.483447 462.351904 
L 425.721704 463.248528 
L 428.198219 461.971451 
L 429.436476 462.996326 
L 430.674733 466.243548 
L 433.151248 476.299351 
L 434.389505 480.203815 
L 435.627762 482.166445 
L 436.86602 482.865197 
L 438.104277 483.88244 
L 439.342534 486.444707 
L 441.819049 494.843944 
L 443.057306 497.773749 
L 444.295563 498.822808 
L 445.53382 499.210888 
L 446.772078 500.437566 
L 448.010335 502.923239 
L 449.248592 506.396346 
L 451.725107 515.027116 
L 452.963364 517.855424 
L 454.201621 517.768986 
L 455.439879 515.137256 
L 456.678136 511.905968 
L 457.916393 510.151148 
L 459.15465 510.686371 
L 460.392908 512.925097 
L 462.869422 518.390362 
L 464.107679 520.428835 
L 466.584194 524.104285 
L 467.822451 526.075325 
L 469.060709 527.432199 
L 470.298966 527.241062 
L 471.537223 524.658829 
L 472.77548 519.743535 
L 475.251995 507.817078 
L 476.490252 504.019609 
L 477.728509 503.540176 
L 478.966767 506.565088 
L 480.205024 512.142948 
L 481.443281 518.652925 
L 482.681538 524.301488 
L 483.919796 527.696723 
L 485.158053 528.637157 
L 486.39631 528.522629 
L 487.634568 529.207196 
L 488.872825 531.487984 
L 491.349339 538.521447 
L 492.587597 540.867925 
L 493.825854 541.342686 
L 495.064111 540.278643 
L 497.540626 536.820186 
L 498.778883 535.50686 
L 500.01714 534.567628 
L 501.255397 533.948152 
L 502.493655 533.826451 
L 503.731912 534.497372 
L 504.970169 536.146687 
L 506.208427 538.651172 
L 507.446684 541.424975 
L 508.684941 543.796142 
L 512.399713 549.727716 
L 513.63797 551.228527 
L 514.876227 551.510472 
L 516.114485 550.56888 
L 517.352742 549.106397 
L 518.590999 547.951227 
L 519.829257 547.23516 
L 521.067514 546.388045 
L 522.305771 545.10473 
L 523.544028 543.598043 
L 524.782286 541.855446 
L 527.2588 537.779507 
L 528.497057 536.928248 
L 529.735315 537.268029 
L 530.973572 538.064735 
L 532.211829 538.653289 
L 533.450086 538.816546 
L 534.688344 538.601566 
L 535.926601 538.142312 
L 537.164858 537.486413 
L 539.641373 535.751472 
L 540.87963 535.358826 
L 542.117887 535.381491 
L 543.356145 535.103926 
L 544.594402 534.02412 
L 545.832659 532.728419 
L 547.070916 532.138416 
L 550.785688 532.363061 
L 552.023945 533.222302 
L 553.262203 535.238891 
L 555.738717 540.806777 
L 556.976975 542.845645 
L 558.215232 544.318297 
L 560.691746 546.860303 
L 561.930004 547.80883 
L 563.168261 547.891774 
L 564.406518 546.766698 
L 566.883033 542.627062 
L 568.12129 541.647005 
L 569.359547 541.899786 
L 570.597804 542.821389 
L 571.836062 543.956384 
L 573.074319 545.404425 
L 574.312576 547.465054 
L 575.550834 549.842047 
L 576.789091 551.754464 
L 578.027348 552.897224 
L 579.265605 553.488457 
L 580.503863 553.528447 
L 581.74212 552.770345 
L 582.980377 551.160841 
L 584.218634 548.843266 
L 585.456892 546.155353 
L 586.695149 543.900689 
L 587.933406 542.913232 
L 589.171663 543.20182 
L 591.648178 544.983505 
L 595.36295 547.150724 
L 596.601207 547.552721 
L 597.839464 547.340313 
L 599.077722 546.459127 
L 601.554236 543.781095 
L 602.792493 543.026211 
L 604.030751 542.583669 
L 605.269008 541.060167 
L 606.507265 537.344487 
L 607.745523 532.134625 
L 608.98378 527.633922 
L 610.222037 526.205001 
L 611.460294 529.19499 
L 612.698552 535.988841 
L 613.936809 543.949355 
L 615.175066 550.084752 
L 616.413323 553.146787 
L 617.651581 553.949232 
L 618.889838 553.968088 
L 620.128095 554.208661 
L 621.366352 555.106511 
L 622.60461 556.372032 
L 623.842867 556.875104 
L 625.081124 555.526142 
L 626.319382 552.271911 
L 627.557639 548.348157 
L 628.795896 545.74216 
L 630.034153 545.554659 
L 631.272411 546.998705 
L 632.510668 548.696135 
L 633.748925 549.899334 
L 634.987182 550.182603 
L 636.22544 549.315842 
L 638.701954 545.794671 
L 639.940211 545.011599 
L 641.178469 546.078306 
L 642.416726 548.788324 
L 643.654983 551.78912 
L 644.893241 553.557941 
L 646.131498 553.545411 
L 647.369755 552.486896 
L 648.608012 551.656624 
L 649.84627 551.904715 
L 651.084527 553.381184 
L 654.799299 560.102441 
L 656.037556 561.202423 
L 657.275813 561.198673 
L 658.51407 560.106195 
L 662.228842 554.952735 
L 665.943614 551.132542 
L 667.181871 550.147612 
L 668.420129 549.514279 
L 669.658386 549.442844 
L 670.896643 550.184363 
L 672.1349 551.362699 
L 673.373158 551.842198 
L 674.611415 550.401778 
L 675.849672 546.500721 
L 678.326187 534.583965 
L 679.564444 530.211855 
L 680.802701 528.475041 
L 682.040959 528.633736 
L 683.279216 529.169307 
L 684.517473 528.806648 
L 685.75573 526.826664 
L 686.993988 523.265688 
L 688.232245 519.263119 
L 689.470502 516.565843 
L 690.708759 516.310595 
L 691.947017 518.672391 
L 693.185274 523.385036 
L 696.900046 541.968351 
L 698.138303 545.040636 
L 699.37656 544.830584 
L 700.614818 541.175788 
L 701.853075 534.943607 
L 703.091332 527.803016 
L 704.329589 521.793243 
L 705.567847 518.607647 
L 706.806104 518.562594 
L 708.044361 520.642164 
L 710.520876 526.302839 
L 711.759133 528.898334 
L 712.99739 532.110968 
L 714.235648 536.079663 
L 715.473905 539.35624 
L 716.712162 540.190779 
L 717.950419 538.324924 
L 719.188677 535.119327 
L 720.426934 532.427591 
L 721.665191 531.533283 
L 722.903448 532.717288 
L 725.379963 538.071792 
L 726.61822 540.09668 
L 727.856477 541.564781 
L 729.094735 543.256728 
L 730.332992 545.834661 
L 732.809507 552.82916 
L 734.047764 554.792049 
L 735.286021 554.180208 
L 736.524278 551.270785 
L 737.762536 547.457601 
L 739.000793 544.262258 
L 740.23905 542.275239 
L 742.715565 539.87432 
L 746.430336 536.81604 
L 747.668594 534.968269 
L 748.906851 532.711877 
L 750.145108 530.882108 
L 751.383366 530.09032 
L 752.621623 530.196656 
L 753.85988 530.637143 
L 755.098137 530.9295 
L 756.336395 530.864787 
L 757.574652 530.520238 
L 758.812909 530.332022 
L 760.051166 531.159328 
L 761.289424 533.630895 
L 765.004195 544.485664 
L 766.242453 546.418445 
L 767.48071 546.860743 
L 768.718967 545.9546 
L 769.957225 544.001007 
L 772.433739 539.084115 
L 773.671996 537.840122 
L 774.910254 538.087206 
L 776.148511 539.884057 
L 777.386768 543.018308 
L 778.625025 546.746284 
L 779.863283 549.916119 
L 781.10154 551.517649 
L 782.339797 551.282591 
L 784.816312 548.607403 
L 786.054569 548.270207 
L 787.292826 548.893258 
L 788.531084 549.84823 
L 789.769341 550.539218 
L 791.007598 550.707981 
L 792.245855 550.370811 
L 793.484113 549.794222 
L 794.72237 549.514371 
L 795.960627 549.965053 
L 797.198884 550.87995 
L 798.437142 551.424661 
L 799.675399 551.212207 
L 800.913656 550.865697 
L 802.151914 551.15507 
L 803.390171 551.958401 
L 804.628428 552.543015 
L 805.866685 552.386623 
L 807.104943 551.265285 
L 808.3432 548.931405 
L 809.581457 545.299651 
L 812.057972 536.252589 
L 813.296229 532.531138 
L 814.534486 530.495556 
L 815.772743 530.315922 
L 817.011001 531.330713 
L 819.487515 533.934411 
L 820.725773 534.854064 
L 821.96403 535.124056 
L 823.202287 534.625202 
L 824.440544 533.956408 
L 825.678802 534.046023 
L 826.917059 535.338203 
L 829.393573 539.279286 
L 830.631831 540.174323 
L 831.870088 539.742614 
L 833.108345 538.137603 
L 834.346602 536.118294 
L 835.58486 534.44655 
L 838.061374 531.715076 
L 840.537889 528.785813 
L 841.776146 528.038731 
L 843.014403 527.998636 
L 844.252661 528.22721 
L 845.490918 528.617401 
L 846.729175 529.555081 
L 847.967432 531.144952 
L 850.443947 535.057993 
L 852.920461 539.436337 
L 854.158719 540.609542 
L 855.396976 540.057082 
L 856.635233 537.89481 
L 857.873491 535.071421 
L 859.111748 532.855356 
L 860.350005 531.877938 
L 862.82652 531.612858 
L 864.064777 531.243202 
L 865.303034 531.094858 
L 866.541291 531.76865 
L 867.779549 532.971213 
L 869.017806 533.823097 
L 871.49432 534.259312 
L 872.732578 534.94626 
L 873.970835 536.136384 
L 875.209092 537.03591 
L 876.44735 536.702004 
L 877.685607 534.790272 
L 880.162121 528.29386 
L 881.400379 525.856962 
L 882.638636 524.982579 
L 883.876893 525.366833 
L 885.11515 526.047333 
L 886.353408 526.198914 
L 887.591665 525.83861 
L 888.829922 525.344526 
L 890.06818 524.484057 
L 891.306437 522.860128 
L 892.544694 520.985843 
L 893.782951 519.765121 
L 895.021209 519.372242 
L 896.259466 519.546476 
L 897.497723 520.133686 
L 898.73598 520.876063 
L 899.974238 521.485368 
L 901.212495 521.923876 
L 902.450752 522.542111 
L 903.689009 524.101936 
L 904.927267 527.056896 
L 907.403781 534.390593 
L 908.642039 536.70903 
L 909.880296 537.12145 
L 911.118553 535.376042 
L 913.595068 529.233641 
L 914.833325 527.839215 
L 916.071582 528.091672 
L 917.309839 528.854066 
L 918.548097 528.780508 
L 919.786354 527.248415 
L 921.024611 524.846583 
L 922.262868 523.094199 
L 923.501126 523.11544 
L 924.739383 524.725092 
L 927.215898 529.701869 
L 928.454155 532.14535 
L 929.692412 533.832904 
L 930.930669 534.22511 
L 932.168927 533.385217 
L 933.407184 531.722992 
L 934.645441 529.461907 
L 935.883698 526.702685 
L 937.121956 523.564912 
L 940.836727 513.473235 
L 942.074985 511.731244 
L 943.313242 511.819633 
L 944.551499 513.38931 
L 945.789757 515.298976 
L 947.028014 516.380722 
L 948.266271 516.041166 
L 949.504528 514.198403 
L 951.981043 508.407077 
L 953.2193 506.316469 
L 954.457557 505.348712 
L 955.695815 505.251924 
L 956.934072 505.317283 
L 958.172329 504.914646 
L 959.410586 503.928017 
L 961.887101 501.259722 
L 963.125358 500.254149 
L 964.363616 499.575402 
L 968.078387 498.052146 
L 969.316645 497.955139 
L 970.554902 498.474239 
L 971.793159 499.593645 
L 973.031416 500.917144 
L 974.269674 501.807604 
L 975.507931 501.555826 
L 976.746188 499.594405 
L 977.984446 495.878821 
L 979.222703 490.684312 
L 982.937475 471.426804 
L 984.175732 468.499395 
L 985.413989 468.461269 
L 986.652246 470.943019 
L 987.890504 476.193364 
L 989.128761 484.132752 
L 990.367018 492.950067 
L 991.605275 499.847942 
L 992.843533 503.215841 
L 994.08179 503.702403 
L 995.320047 503.485826 
L 996.558305 504.580889 
L 997.796562 507.536586 
L 1001.511334 519.483631 
L 1002.749591 522.464362 
L 1003.987848 523.771277 
L 1005.226105 522.414279 
L 1006.464363 518.75223 
L 1008.940877 510.047682 
L 1010.179134 506.788677 
L 1011.417392 504.969356 
L 1012.655649 504.900092 
L 1013.893906 506.156033 
L 1015.132164 507.588377 
L 1016.370421 508.15519 
L 1017.608678 507.558586 
L 1018.846935 506.119335 
L 1020.085193 504.409149 
L 1021.32345 502.952216 
L 1022.561707 502.051651 
L 1023.799964 501.803537 
L 1025.038222 502.004768 
L 1026.276479 501.834923 
L 1027.514736 500.052242 
L 1028.752993 495.758417 
L 1029.991251 488.665789 
L 1033.706023 460.500262 
L 1034.94428 455.301134 
L 1036.182537 452.908022 
L 1037.420794 451.271576 
L 1038.659052 448.379151 
L 1039.897309 443.682533 
L 1041.135566 438.346799 
L 1042.373823 433.782866 
L 1043.612081 430.507005 
L 1044.850338 428.767518 
L 1046.088595 428.825094 
L 1047.326852 430.359306 
L 1048.56511 432.644129 
L 1049.803367 435.19212 
L 1051.041624 438.143729 
L 1052.279882 442.019283 
L 1057.232911 461.252637 
L 1060.947682 473.5 
L 1062.18594 476.573304 
L 1063.424197 477.096884 
L 1064.662454 475.124965 
L 1065.900711 472.823342 
L 1067.138969 472.557345 
L 1068.377226 474.88434 
L 1070.853741 482.388349 
L 1072.091998 484.859742 
L 1073.330255 486.194122 
L 1074.568512 487.312556 
L 1075.80677 488.867414 
L 1078.283284 492.565794 
L 1079.521541 493.745782 
L 1080.759799 493.699438 
L 1081.998056 491.968904 
L 1083.236313 488.493508 
L 1084.474571 483.652205 
L 1085.712828 478.323616 
L 1086.951085 473.941958 
L 1088.189342 471.903167 
L 1089.4276 472.306015 
L 1090.665857 473.790188 
L 1091.904114 475.004758 
L 1093.142371 475.564279 
L 1094.380629 475.542553 
L 1095.618886 474.82443 
L 1096.857143 473.321154 
L 1099.333658 469.283893 
L 1103.04843 462.868294 
L 1104.286687 461.346839 
L 1105.524944 460.189786 
L 1106.763201 458.707187 
L 1108.001459 456.281984 
L 1109.239716 452.796364 
L 1110.477973 448.417418 
L 1111.71623 443.253235 
L 1114.192745 431.862006 
L 1116.669259 421.881813 
L 1119.145774 412.622312 
L 1120.384031 407.08809 
L 1124.098803 386.93982 
L 1125.33706 383.035446 
L 1126.575318 381.667207 
L 1127.813575 383.088364 
L 1130.290089 390.191218 
L 1131.528347 391.985767 
L 1132.766604 391.537126 
L 1134.004861 389.773687 
L 1135.243118 387.74078 
L 1136.481376 385.094155 
L 1137.719633 380.266 
L 1138.95789 372.346974 
L 1142.672662 341.285079 
L 1143.910919 333.057932 
L 1148.863948 305.414578 
L 1150.102206 297.781005 
L 1151.340463 291.21567 
L 1152.57872 286.99794 
L 1153.816977 285.968087 
L 1156.293492 289.31575 
L 1157.531749 288.711109 
L 1158.770007 284.72111 
L 1160.008264 277.704761 
L 1162.484778 260.417729 
L 1163.723036 253.022244 
L 1164.961293 247.243209 
L 1166.19955 243.846364 
L 1167.437807 243.698432 
L 1168.676065 246.433355 
L 1171.152579 254.246166 
L 1172.390837 256.329228 
L 1173.629094 255.579346 
L 1174.867351 252.5585 
L 1176.105608 249.83996 
L 1177.343866 249.516879 
L 1178.582123 251.559554 
L 1181.058637 257.878941 
L 1183.535152 263.128768 
L 1184.773409 266.705785 
L 1186.011666 271.084872 
L 1187.249924 276.208167 
L 1188.488181 282.967013 
L 1192.202953 309.343569 
L 1193.44121 314.509863 
L 1194.679467 316.850006 
L 1195.917725 317.477409 
L 1197.155982 317.931909 
L 1198.394239 319.386582 
L 1199.632496 322.349403 
L 1200.870754 326.862441 
L 1203.347268 337.980644 
L 1204.585525 341.451965 
L 1205.823783 341.526522 
L 1207.06204 338.337478 
L 1208.300297 332.951395 
L 1209.538555 326.930035 
L 1210.776812 322.556912 
L 1212.015069 321.768051 
L 1214.491584 326.556475 
L 1215.729841 326.856026 
L 1216.968098 325.333399 
L 1218.206355 324.133645 
L 1219.444613 324.560325 
L 1220.68287 325.689174 
L 1221.921127 325.607606 
L 1223.159384 323.620182 
L 1224.397642 320.434658 
L 1225.635899 316.433519 
L 1226.874156 310.884693 
L 1228.112414 303.199521 
L 1230.588928 285.858529 
L 1231.827185 278.737834 
L 1233.065443 273.020014 
L 1234.3037 269.528417 
L 1235.541957 269.958432 
L 1236.780214 274.991203 
L 1239.256729 291.862027 
L 1241.733243 307.754511 
L 1244.209758 324.185721 
L 1246.686273 341.404024 
L 1247.92453 348.237493 
L 1250.401044 360.202819 
L 1251.639302 368.501064 
L 1255.354073 400.278501 
L 1256.592331 406.899103 
L 1257.830588 409.333936 
L 1259.068845 408.877967 
L 1260.307103 408.147861 
L 1261.54536 408.870813 
L 1262.783617 410.963952 
L 1264.021874 413.684576 
L 1265.260132 416.710874 
L 1266.498389 419.346843 
L 1267.736646 420.034847 
L 1268.974903 417.701817 
L 1270.213161 412.64024 
L 1271.451418 405.843445 
L 1275.16619 381.815998 
L 1276.404447 376.349975 
L 1277.642704 374.171395 
L 1278.880962 374.218467 
L 1280.119219 374.576664 
L 1281.357476 374.267753 
L 1282.595733 373.560034 
L 1283.833991 373.156743 
L 1285.072248 373.66561 
L 1286.310505 375.261079 
L 1287.548762 377.237623 
L 1288.78702 378.146683 
L 1290.025277 376.673639 
L 1291.263534 372.601295 
L 1292.501791 367.273615 
L 1293.740049 363.069762 
L 1294.978306 361.694508 
L 1296.216563 362.694763 
L 1297.454821 364.117232 
L 1298.693078 364.210243 
L 1299.931335 362.01774 
L 1301.169592 357.366965 
L 1303.646107 345.028822 
L 1304.884364 340.924783 
L 1306.122621 340.350404 
L 1307.360879 344.00562 
L 1308.599136 350.959999 
L 1309.837393 358.722873 
L 1311.07565 364.399246 
L 1312.313908 366.170745 
L 1313.552165 364.266472 
L 1314.790422 360.729106 
L 1316.02868 357.998232 
L 1317.266937 357.484981 
L 1318.505194 359.293179 
L 1320.981709 365.346599 
L 1322.219966 366.850673 
L 1323.458223 367.005029 
L 1324.69648 366.360932 
L 1325.934738 365.149489 
L 1327.172995 363.580191 
L 1328.411252 362.376271 
L 1329.649509 362.316804 
L 1330.887767 363.776161 
L 1332.126024 366.782701 
L 1333.364281 371.170403 
L 1334.602539 376.941754 
L 1335.840796 384.132067 
L 1337.079053 391.979347 
L 1338.31731 398.723953 
L 1339.555568 402.706313 
L 1340.793825 403.750658 
L 1342.032082 403.139199 
L 1343.270339 402.173937 
L 1344.508597 401.455309 
L 1345.746854 401.636757 
L 1346.985111 403.685271 
L 1348.223368 407.775563 
L 1349.461626 412.677394 
L 1350.699883 416.61048 
L 1351.93814 418.437448 
L 1353.176398 418.332138 
L 1355.652912 416.399909 
L 1356.891169 415.302308 
L 1359.367684 412.482783 
L 1360.605941 411.848231 
L 1361.844198 412.691979 
L 1363.082456 414.913468 
L 1364.320713 417.509673 
L 1365.55897 418.777117 
L 1366.797228 416.866784 
L 1368.035485 410.845042 
L 1369.273742 401.341167 
L 1371.750257 377.236072 
L 1374.226771 350.153342 
L 1376.703286 320.13222 
L 1377.941543 307.005282 
L 1379.1798 297.925109 
L 1380.418057 293.71738 
L 1381.656315 293.979868 
L 1382.894572 297.218152 
L 1384.132829 300.833696 
L 1385.371087 302.646324 
L 1386.609344 303.085191 
L 1387.847601 304.275505 
L 1389.085858 306.531907 
L 1390.324116 307.227797 
L 1391.562373 303.693642 
L 1392.80063 296.004824 
L 1394.038887 286.47881 
L 1395.277145 277.982235 
L 1396.515402 272.648974 
L 1398.991916 268.078348 
L 1400.230174 262.737683 
L 1401.468431 253.435301 
L 1402.706688 242.356097 
L 1403.944946 233.055917 
L 1405.183203 228.40448 
L 1406.42146 229.386029 
L 1407.659717 234.808489 
L 1408.897975 241.774906 
L 1410.136232 246.700692 
L 1411.374489 247.307481 
L 1413.851004 241.643585 
L 1415.089261 240.973617 
L 1416.327518 242.794043 
L 1417.565775 246.033455 
L 1420.04229 252.927199 
L 1421.280547 255.44844 
L 1422.518805 256.902574 
L 1423.757062 257.911244 
L 1424.995319 259.913095 
L 1426.233576 263.958552 
L 1428.710091 275.504136 
L 1429.948348 279.440592 
L 1431.186605 279.676886 
L 1432.424863 275.540856 
L 1433.66312 268.07747 
L 1434.901377 259.685222 
L 1436.139634 253.348928 
L 1437.377892 251.077009 
L 1438.616149 252.477526 
L 1441.092664 259.118304 
L 1442.330921 261.731152 
L 1443.569178 263.341734 
L 1444.807435 264.739584 
L 1447.28395 268.162616 
L 1448.522207 269.02154 
L 1449.760464 269.468555 
L 1450.998722 270.379567 
L 1452.236979 272.183745 
L 1454.713494 277.187833 
L 1455.951751 280.306147 
L 1457.190008 284.43572 
L 1458.428265 288.974343 
L 1459.666523 292.789117 
L 1462.143037 298.827116 
L 1463.381294 302.743333 
L 1464.619552 307.881125 
L 1467.096066 319.761381 
L 1468.334323 324.279451 
L 1469.572581 328.141174 
L 1470.810838 333.197061 
L 1472.049095 340.543815 
L 1477.002124 376.851744 
L 1478.240382 382.792663 
L 1479.478639 385.734323 
L 1480.716896 385.68389 
L 1481.955153 383.778207 
L 1483.193411 381.558363 
L 1485.669925 378.191204 
L 1488.14644 374.519052 
L 1489.384697 372.618626 
L 1490.622954 371.123694 
L 1491.861212 369.82185 
L 1493.099469 367.573569 
L 1494.337726 363.62861 
L 1495.575983 358.740527 
L 1496.814241 354.762795 
L 1498.052498 353.362124 
L 1499.290755 354.728954 
L 1500.529012 357.501605 
L 1501.76727 359.881938 
L 1503.005527 360.781844 
L 1504.243784 360.415289 
L 1506.720299 358.950811 
L 1507.958556 358.048352 
L 1509.196813 356.937674 
L 1510.435071 356.357189 
L 1511.673328 357.469057 
L 1512.911585 360.488873 
L 1514.149842 363.942976 
L 1515.3881 365.494688 
L 1516.626357 363.830085 
L 1519.102871 356.204837 
L 1520.341129 353.925248 
L 1521.579386 352.504849 
L 1522.817643 350.353212 
L 1525.294158 343.418489 
L 1526.532415 343.162104 
L 1527.770672 348.828293 
L 1529.00893 360.65647 
L 1530.247187 375.344474 
L 1531.485444 388.136402 
L 1532.723701 396.188882 
L 1533.961959 399.730558 
L 1535.200216 400.538711 
L 1536.438473 400.017013 
L 1538.914988 397.987345 
L 1540.153245 397.792052 
L 1541.391502 398.773315 
L 1542.62976 401.051207 
L 1543.868017 404.4952 
L 1545.106274 409.130174 
L 1547.582789 420.192055 
L 1548.821046 422.891492 
L 1550.059303 421.221784 
L 1551.29756 415.56582 
L 1552.535818 408.215646 
L 1553.774075 401.764639 
L 1555.012332 397.744539 
L 1556.250589 396.452054 
L 1557.488847 397.138349 
L 1558.727104 398.624269 
L 1561.203619 402.1437 
L 1563.680133 405.854559 
L 1564.91839 408.654736 
L 1566.156648 413.096101 
L 1567.394905 419.308497 
L 1568.633162 426.980795 
L 1571.109677 443.401772 
L 1572.347934 449.421344 
L 1573.586191 452.966887 
L 1576.062706 457.230948 
L 1578.53922 462.950715 
L 1579.777478 464.638672 
L 1581.015735 464.645993 
L 1582.253992 463.071705 
L 1583.492249 460.108343 
L 1584.730507 455.828437 
L 1585.968764 450.279162 
L 1587.207021 443.624711 
L 1588.445278 436.058266 
L 1589.683536 427.452688 
L 1592.16005 407.225978 
L 1593.398307 399.027204 
L 1594.636565 395.097925 
L 1595.874822 395.227313 
L 1597.113079 397.105557 
L 1598.351337 397.940734 
L 1599.589594 395.732602 
L 1600.827851 389.835153 
L 1604.542623 363.336448 
L 1605.78088 356.481413 
L 1607.019137 352.290736 
L 1608.257395 352.382293 
L 1609.495652 357.487717 
L 1610.733909 365.530888 
L 1611.972166 372.49653 
L 1613.210424 375.033023 
L 1614.448681 371.986452 
L 1615.686938 364.575474 
L 1618.163453 346.578055 
L 1619.40171 339.72797 
L 1620.639967 335.101535 
L 1621.878225 331.986361 
L 1623.116482 330.055295 
L 1624.354739 330.13364 
L 1625.592996 332.773546 
L 1626.831254 337.195179 
L 1628.069511 342.388157 
L 1630.546026 354.074249 
L 1633.02254 366.634289 
L 1634.260797 373.224608 
L 1635.499055 378.589464 
L 1636.737312 380.46559 
L 1637.975569 376.203259 
L 1639.213826 364.003431 
L 1640.452084 344.615081 
L 1641.690341 321.208662 
L 1641.690341 321.208662 
" style="fill:none;stroke:#008000;stroke-linecap:square;stroke-width:1.5;"/>
   </g>
   <g id="patch_3">
    <path d="M 43.78125 586.86358 
L 43.78125 22.318125 
" style="fill:none;stroke:#000000;stroke-linecap:square;stroke-linejoin:miter;stroke-width:0.8;"/>
   </g>
   <g id="patch_4">
    <path d="M 1717.78125 586.86358 
L 1717.78125 22.318125 
" style="fill:none;stroke:#000000;stroke-linecap:square;stroke-linejoin:miter;stroke-width:0.8;"/>
   </g>
   <g id="patch_5">
    <path d="M 43.78125 586.86358 
L 1717.78125 586.86358 
" style="fill:none;stroke:#000000;stroke-linecap:square;stroke-linejoin:miter;stroke-width:0.8;"/>
   </g>
   <g id="patch_6">
    <path d="M 43.78125 22.318125 
L 1717.78125 22.318125 
" style="fill:none;stroke:#000000;stroke-linecap:square;stroke-linejoin:miter;stroke-width:0.8;"/>
   </g>
   <g id="text_18">
    <!-- before binarisation -->
    <g transform="translate(824.1825 16.318125)scale(0.12 -0.12)">
     <defs>
      <path d="M 3116 1747 
Q 3116 2381 2855 2742 
Q 2594 3103 2138 3103 
Q 1681 3103 1420 2742 
Q 1159 2381 1159 1747 
Q 1159 1113 1420 752 
Q 1681 391 2138 391 
Q 2594 391 2855 752 
Q 3116 1113 3116 1747 
z
M 1159 2969 
Q 1341 3281 1617 3432 
Q 1894 3584 2278 3584 
Q 2916 3584 3314 3078 
Q 3713 2572 3713 1747 
Q 3713 922 3314 415 
Q 2916 -91 2278 -91 
Q 1894 -91 1617 61 
Q 1341 213 1159 525 
L 1159 0 
L 581 0 
L 581 4863 
L 1159 4863 
L 1159 2969 
z
" id="DejaVuSans-62" transform="scale(0.015625)"/>
      <path d="M 1959 3097 
Q 1497 3097 1228 2736 
Q 959 2375 959 1747 
Q 959 1119 1226 758 
Q 1494 397 1959 397 
Q 2419 397 2687 759 
Q 2956 1122 2956 1747 
Q 2956 2369 2687 2733 
Q 2419 3097 1959 3097 
z
M 1959 3584 
Q 2709 3584 3137 3096 
Q 3566 2609 3566 1747 
Q 3566 888 3137 398 
Q 2709 -91 1959 -91 
Q 1206 -91 779 398 
Q 353 888 353 1747 
Q 353 2609 779 3096 
Q 1206 3584 1959 3584 
z
" id="DejaVuSans-6f" transform="scale(0.015625)"/>
      <path id="DejaVuSans-20" transform="scale(0.015625)"/>
      <path d="M 603 3500 
L 1178 3500 
L 1178 0 
L 603 0 
L 603 3500 
z
M 603 4863 
L 1178 4863 
L 1178 4134 
L 603 4134 
L 603 4863 
z
" id="DejaVuSans-69" transform="scale(0.015625)"/>
      <path d="M 3513 2113 
L 3513 0 
L 2938 0 
L 2938 2094 
Q 2938 2591 2744 2837 
Q 2550 3084 2163 3084 
Q 1697 3084 1428 2787 
Q 1159 2491 1159 1978 
L 1159 0 
L 581 0 
L 581 3500 
L 1159 3500 
L 1159 2956 
Q 1366 3272 1645 3428 
Q 1925 3584 2291 3584 
Q 2894 3584 3203 3211 
Q 3513 2838 3513 2113 
z
" id="DejaVuSans-6e" transform="scale(0.015625)"/>
      <path d="M 2834 3397 
L 2834 2853 
Q 2591 2978 2328 3040 
Q 2066 3103 1784 3103 
Q 1356 3103 1142 2972 
Q 928 2841 928 2578 
Q 928 2378 1081 2264 
Q 1234 2150 1697 2047 
L 1894 2003 
Q 2506 1872 2764 1633 
Q 3022 1394 3022 966 
Q 3022 478 2636 193 
Q 2250 -91 1575 -91 
Q 1294 -91 989 -36 
Q 684 19 347 128 
L 347 722 
Q 666 556 975 473 
Q 1284 391 1588 391 
Q 1994 391 2212 530 
Q 2431 669 2431 922 
Q 2431 1156 2273 1281 
Q 2116 1406 1581 1522 
L 1381 1569 
Q 847 1681 609 1914 
Q 372 2147 372 2553 
Q 372 3047 722 3315 
Q 1072 3584 1716 3584 
Q 2034 3584 2315 3537 
Q 2597 3491 2834 3397 
z
" id="DejaVuSans-73" transform="scale(0.015625)"/>
      <path d="M 1172 4494 
L 1172 3500 
L 2356 3500 
L 2356 3053 
L 1172 3053 
L 1172 1153 
Q 1172 725 1289 603 
Q 1406 481 1766 481 
L 2356 481 
L 2356 0 
L 1766 0 
Q 1100 0 847 248 
Q 594 497 594 1153 
L 594 3053 
L 172 3053 
L 172 3500 
L 594 3500 
L 594 4494 
L 1172 4494 
z
" id="DejaVuSans-74" transform="scale(0.015625)"/>
     </defs>
     <use xlink:href="#DejaVuSans-62"/>
     <use x="63.476562" xlink:href="#DejaVuSans-65"/>
     <use x="125" xlink:href="#DejaVuSans-66"/>
     <use x="160.205078" xlink:href="#DejaVuSans-6f"/>
     <use x="221.386719" xlink:href="#DejaVuSans-72"/>
     <use x="260.25" xlink:href="#DejaVuSans-65"/>
     <use x="321.773438" xlink:href="#DejaVuSans-20"/>
     <use x="353.560547" xlink:href="#DejaVuSans-62"/>
     <use x="417.037109" xlink:href="#DejaVuSans-69"/>
     <use x="444.820312" xlink:href="#DejaVuSans-6e"/>
     <use x="508.199219" xlink:href="#DejaVuSans-61"/>
     <use x="569.478516" xlink:href="#DejaVuSans-72"/>
     <use x="610.591797" xlink:href="#DejaVuSans-69"/>
     <use x="638.375" xlink:href="#DejaVuSans-73"/>
     <use x="690.474609" xlink:href="#DejaVuSans-61"/>
     <use x="751.753906" xlink:href="#DejaVuSans-74"/>
     <use x="790.962891" xlink:href="#DejaVuSans-69"/>
     <use x="818.746094" xlink:href="#DejaVuSans-6f"/>
     <use x="879.927734" xlink:href="#DejaVuSans-6e"/>
    </g>
   </g>
  </g>
  <g id="axes_2">
   <g id="patch_7">
    <path d="M 43.78125 1264.318125 
L 1717.78125 1264.318125 
L 1717.78125 699.77267 
L 43.78125 699.77267 
z
" style="fill:#ffffff;"/>
   </g>
   <g id="matplotlib.axis_3">
    <g id="xtick_8">
     <g id="line2d_17">
      <g>
       <use style="stroke:#000000;stroke-width:0.8;" x="119.872159" xlink:href="#m0069edf6b6" y="1264.318125"/>
      </g>
     </g>
     <g id="text_19">
      <!-- 0 -->
      <g transform="translate(116.690909 1278.916563)scale(0.1 -0.1)">
       <use xlink:href="#DejaVuSans-30"/>
      </g>
     </g>
    </g>
    <g id="xtick_9">
     <g id="line2d_18">
      <g>
       <use style="stroke:#000000;stroke-width:0.8;" x="367.523613" xlink:href="#m0069edf6b6" y="1264.318125"/>
      </g>
     </g>
     <g id="text_20">
      <!-- 200 -->
      <g transform="translate(357.979863 1278.916563)scale(0.1 -0.1)">
       <use xlink:href="#DejaVuSans-32"/>
       <use x="63.623047" xlink:href="#DejaVuSans-30"/>
       <use x="127.246094" xlink:href="#DejaVuSans-30"/>
      </g>
     </g>
    </g>
    <g id="xtick_10">
     <g id="line2d_19">
      <g>
       <use style="stroke:#000000;stroke-width:0.8;" x="615.175066" xlink:href="#m0069edf6b6" y="1264.318125"/>
      </g>
     </g>
     <g id="text_21">
      <!-- 400 -->
      <g transform="translate(605.631316 1278.916563)scale(0.1 -0.1)">
       <use xlink:href="#DejaVuSans-34"/>
       <use x="63.623047" xlink:href="#DejaVuSans-30"/>
       <use x="127.246094" xlink:href="#DejaVuSans-30"/>
      </g>
     </g>
    </g>
    <g id="xtick_11">
     <g id="line2d_20">
      <g>
       <use style="stroke:#000000;stroke-width:0.8;" x="862.82652" xlink:href="#m0069edf6b6" y="1264.318125"/>
      </g>
     </g>
     <g id="text_22">
      <!-- 600 -->
      <g transform="translate(853.28277 1278.916563)scale(0.1 -0.1)">
       <use xlink:href="#DejaVuSans-36"/>
       <use x="63.623047" xlink:href="#DejaVuSans-30"/>
       <use x="127.246094" xlink:href="#DejaVuSans-30"/>
      </g>
     </g>
    </g>
    <g id="xtick_12">
     <g id="line2d_21">
      <g>
       <use style="stroke:#000000;stroke-width:0.8;" x="1110.477973" xlink:href="#m0069edf6b6" y="1264.318125"/>
      </g>
     </g>
     <g id="text_23">
      <!-- 800 -->
      <g transform="translate(1100.934223 1278.916563)scale(0.1 -0.1)">
       <use xlink:href="#DejaVuSans-38"/>
       <use x="63.623047" xlink:href="#DejaVuSans-30"/>
       <use x="127.246094" xlink:href="#DejaVuSans-30"/>
      </g>
     </g>
    </g>
    <g id="xtick_13">
     <g id="line2d_22">
      <g>
       <use style="stroke:#000000;stroke-width:0.8;" x="1358.129427" xlink:href="#m0069edf6b6" y="1264.318125"/>
      </g>
     </g>
     <g id="text_24">
      <!-- 1000 -->
      <g transform="translate(1345.404427 1278.916563)scale(0.1 -0.1)">
       <use xlink:href="#DejaVuSans-31"/>
       <use x="63.623047" xlink:href="#DejaVuSans-30"/>
       <use x="127.246094" xlink:href="#DejaVuSans-30"/>
       <use x="190.869141" xlink:href="#DejaVuSans-30"/>
      </g>
     </g>
    </g>
    <g id="xtick_14">
     <g id="line2d_23">
      <g>
       <use style="stroke:#000000;stroke-width:0.8;" x="1605.78088" xlink:href="#m0069edf6b6" y="1264.318125"/>
      </g>
     </g>
     <g id="text_25">
      <!-- 1200 -->
      <g transform="translate(1593.05588 1278.916563)scale(0.1 -0.1)">
       <use xlink:href="#DejaVuSans-31"/>
       <use x="63.623047" xlink:href="#DejaVuSans-32"/>
       <use x="127.246094" xlink:href="#DejaVuSans-30"/>
       <use x="190.869141" xlink:href="#DejaVuSans-30"/>
      </g>
     </g>
    </g>
    <g id="text_26">
     <!-- frame -->
     <g transform="translate(865.954687 1292.594688)scale(0.1 -0.1)">
      <use xlink:href="#DejaVuSans-66"/>
      <use x="35.205078" xlink:href="#DejaVuSans-72"/>
      <use x="76.318359" xlink:href="#DejaVuSans-61"/>
      <use x="137.597656" xlink:href="#DejaVuSans-6d"/>
      <use x="235.009766" xlink:href="#DejaVuSans-65"/>
     </g>
    </g>
   </g>
   <g id="matplotlib.axis_4">
    <g id="ytick_9">
     <g id="line2d_24">
      <g>
       <use style="stroke:#000000;stroke-width:0.8;" x="43.78125" xlink:href="#m3b294f999f" y="1238.656968"/>
      </g>
     </g>
     <g id="text_27">
      <!-- 0.0 -->
      <g transform="translate(20.878125 1242.456187)scale(0.1 -0.1)">
       <defs>
        <path d="M 684 794 
L 1344 794 
L 1344 0 
L 684 0 
L 684 794 
z
" id="DejaVuSans-2e" transform="scale(0.015625)"/>
       </defs>
       <use xlink:href="#DejaVuSans-30"/>
       <use x="63.623047" xlink:href="#DejaVuSans-2e"/>
       <use x="95.410156" xlink:href="#DejaVuSans-30"/>
      </g>
     </g>
    </g>
    <g id="ytick_10">
     <g id="line2d_25">
      <g>
       <use style="stroke:#000000;stroke-width:0.8;" x="43.78125" xlink:href="#m3b294f999f" y="1136.01234"/>
      </g>
     </g>
     <g id="text_28">
      <!-- 0.2 -->
      <g transform="translate(20.878125 1139.811559)scale(0.1 -0.1)">
       <use xlink:href="#DejaVuSans-30"/>
       <use x="63.623047" xlink:href="#DejaVuSans-2e"/>
       <use x="95.410156" xlink:href="#DejaVuSans-32"/>
      </g>
     </g>
    </g>
    <g id="ytick_11">
     <g id="line2d_26">
      <g>
       <use style="stroke:#000000;stroke-width:0.8;" x="43.78125" xlink:href="#m3b294f999f" y="1033.367712"/>
      </g>
     </g>
     <g id="text_29">
      <!-- 0.4 -->
      <g transform="translate(20.878125 1037.166931)scale(0.1 -0.1)">
       <use xlink:href="#DejaVuSans-30"/>
       <use x="63.623047" xlink:href="#DejaVuSans-2e"/>
       <use x="95.410156" xlink:href="#DejaVuSans-34"/>
      </g>
     </g>
    </g>
    <g id="ytick_12">
     <g id="line2d_27">
      <g>
       <use style="stroke:#000000;stroke-width:0.8;" x="43.78125" xlink:href="#m3b294f999f" y="930.723084"/>
      </g>
     </g>
     <g id="text_30">
      <!-- 0.6 -->
      <g transform="translate(20.878125 934.522302)scale(0.1 -0.1)">
       <use xlink:href="#DejaVuSans-30"/>
       <use x="63.623047" xlink:href="#DejaVuSans-2e"/>
       <use x="95.410156" xlink:href="#DejaVuSans-36"/>
      </g>
     </g>
    </g>
    <g id="ytick_13">
     <g id="line2d_28">
      <g>
       <use style="stroke:#000000;stroke-width:0.8;" x="43.78125" xlink:href="#m3b294f999f" y="828.078456"/>
      </g>
     </g>
     <g id="text_31">
      <!-- 0.8 -->
      <g transform="translate(20.878125 831.877674)scale(0.1 -0.1)">
       <use xlink:href="#DejaVuSans-30"/>
       <use x="63.623047" xlink:href="#DejaVuSans-2e"/>
       <use x="95.410156" xlink:href="#DejaVuSans-38"/>
      </g>
     </g>
    </g>
    <g id="ytick_14">
     <g id="line2d_29">
      <g>
       <use style="stroke:#000000;stroke-width:0.8;" x="43.78125" xlink:href="#m3b294f999f" y="725.433827"/>
      </g>
     </g>
     <g id="text_32">
      <!-- 1.0 -->
      <g transform="translate(20.878125 729.233046)scale(0.1 -0.1)">
       <use xlink:href="#DejaVuSans-31"/>
       <use x="63.623047" xlink:href="#DejaVuSans-2e"/>
       <use x="95.410156" xlink:href="#DejaVuSans-30"/>
      </g>
     </g>
    </g>
    <g id="text_33">
     <!-- GCaMP -->
     <g transform="translate(14.798437 999.803991)rotate(-90)scale(0.1 -0.1)">
      <use xlink:href="#DejaVuSans-47"/>
      <use x="77.490234" xlink:href="#DejaVuSans-43"/>
      <use x="147.314453" xlink:href="#DejaVuSans-61"/>
      <use x="208.59375" xlink:href="#DejaVuSans-4d"/>
      <use x="294.873047" xlink:href="#DejaVuSans-50"/>
     </g>
    </g>
   </g>
   <g id="line2d_30">
    <path clip-path="url(#p95108e7c5d)" d="M 119.872159 725.433827 
L 183.02328 725.433827 
L 184.261537 1238.656968 
L 186.738052 1238.656968 
L 187.976309 725.433827 
L 195.405852 725.433827 
L 196.64411 1238.656968 
L 1143.910919 1238.656968 
L 1145.149177 725.433827 
L 1200.870754 725.433827 
L 1202.109011 1238.656968 
L 1208.300297 1238.656968 
L 1209.538555 725.433827 
L 1244.209758 725.433827 
L 1245.448015 1238.656968 
L 1375.465028 1238.656968 
L 1376.703286 725.433827 
L 1468.334323 725.433827 
L 1469.572581 1238.656968 
L 1640.452084 1238.656968 
L 1641.690341 725.433827 
L 1641.690341 725.433827 
" style="fill:none;stroke:#008000;stroke-linecap:square;stroke-width:1.5;"/>
   </g>
   <g id="patch_8">
    <path d="M 43.78125 1264.318125 
L 43.78125 699.77267 
" style="fill:none;stroke:#000000;stroke-linecap:square;stroke-linejoin:miter;stroke-width:0.8;"/>
   </g>
   <g id="patch_9">
    <path d="M 1717.78125 1264.318125 
L 1717.78125 699.77267 
" style="fill:none;stroke:#000000;stroke-linecap:square;stroke-linejoin:miter;stroke-width:0.8;"/>
   </g>
   <g id="patch_10">
    <path d="M 43.78125 1264.318125 
L 1717.78125 1264.318125 
" style="fill:none;stroke:#000000;stroke-linecap:square;stroke-linejoin:miter;stroke-width:0.8;"/>
   </g>
   <g id="patch_11">
    <path d="M 43.78125 699.77267 
L 1717.78125 699.77267 
" style="fill:none;stroke:#000000;stroke-linecap:square;stroke-linejoin:miter;stroke-width:0.8;"/>
   </g>
   <g id="text_34">
    <!-- before binarisation -->
    <g transform="translate(824.1825 693.77267)scale(0.12 -0.12)">
     <use xlink:href="#DejaVuSans-62"/>
     <use x="63.476562" xlink:href="#DejaVuSans-65"/>
     <use x="125" xlink:href="#DejaVuSans-66"/>
     <use x="160.205078" xlink:href="#DejaVuSans-6f"/>
     <use x="221.386719" xlink:href="#DejaVuSans-72"/>
     <use x="260.25" xlink:href="#DejaVuSans-65"/>
     <use x="321.773438" xlink:href="#DejaVuSans-20"/>
     <use x="353.560547" xlink:href="#DejaVuSans-62"/>
     <use x="417.037109" xlink:href="#DejaVuSans-69"/>
     <use x="444.820312" xlink:href="#DejaVuSans-6e"/>
     <use x="508.199219" xlink:href="#DejaVuSans-61"/>
     <use x="569.478516" xlink:href="#DejaVuSans-72"/>
     <use x="610.591797" xlink:href="#DejaVuSans-69"/>
     <use x="638.375" xlink:href="#DejaVuSans-73"/>
     <use x="690.474609" xlink:href="#DejaVuSans-61"/>
     <use x="751.753906" xlink:href="#DejaVuSans-74"/>
     <use x="790.962891" xlink:href="#DejaVuSans-69"/>
     <use x="818.746094" xlink:href="#DejaVuSans-6f"/>
     <use x="879.927734" xlink:href="#DejaVuSans-6e"/>
    </g>
   </g>
  </g>
 </g>
 <defs>
  <clipPath id="p105d05ed15">
   <rect height="564.545455" width="1674" x="43.78125" y="22.318125"/>
  </clipPath>
  <clipPath id="p95108e7c5d">
   <rect height="564.545455" width="1674" x="43.78125" y="699.77267"/>
  </clipPath>
 </defs>
</svg>
