<?xml version="1.0" encoding="utf-8" standalone="no"?>
<!DOCTYPE svg PUBLIC "-//W3C//DTD SVG 1.1//EN"
  "http://www.w3.org/Graphics/SVG/1.1/DTD/svg11.dtd">
<svg height="1301.874375pt" version="1.1" viewBox="0 0 1724.98125 1301.874375" width="1724.98125pt" xmlns="http://www.w3.org/2000/svg" xmlns:xlink="http://www.w3.org/1999/xlink">
 <metadata>
  <rdf:RDF xmlns:cc="http://creativecommons.org/ns#" xmlns:dc="http://purl.org/dc/elements/1.1/" xmlns:rdf="http://www.w3.org/1999/02/22-rdf-syntax-ns#">
   <cc:Work>
    <dc:type rdf:resource="http://purl.org/dc/dcmitype/StillImage"/>
    <dc:date>2022-07-24T15:54:33.001691</dc:date>
    <dc:format>image/svg+xml</dc:format>
    <dc:creator>
     <cc:Agent>
      <dc:title>Matplotlib v3.4.2, https://matplotlib.org/</dc:title>
     </cc:Agent>
    </dc:creator>
   </cc:Work>
  </rdf:RDF>
 </metadata>
 <defs>
  <style type="text/css">*{stroke-linecap:butt;stroke-linejoin:round;}</style>
 </defs>
 <g id="figure_1">
  <g id="patch_1">
   <path d="M 0 1301.874375 
L 1724.98125 1301.874375 
L 1724.98125 0 
L 0 0 
z
" style="fill:#ffffff;"/>
  </g>
  <g id="axes_1">
   <g id="patch_2">
    <path d="M 43.78125 586.86358 
L 1717.78125 586.86358 
L 1717.78125 22.318125 
L 43.78125 22.318125 
z
" style="fill:#ffffff;"/>
   </g>
   <g id="matplotlib.axis_1">
    <g id="xtick_1">
     <g id="line2d_1">
      <defs>
       <path d="M 0 0 
L 0 3.5 
" id="m6c15cd0d26" style="stroke:#000000;stroke-width:0.8;"/>
      </defs>
      <g>
       <use style="stroke:#000000;stroke-width:0.8;" x="119.872159" xlink:href="#m6c15cd0d26" y="586.86358"/>
      </g>
     </g>
     <g id="text_1">
      <!-- 0 -->
      <g transform="translate(116.690909 601.462017)scale(0.1 -0.1)">
       <defs>
        <path d="M 2034 4250 
Q 1547 4250 1301 3770 
Q 1056 3291 1056 2328 
Q 1056 1369 1301 889 
Q 1547 409 2034 409 
Q 2525 409 2770 889 
Q 3016 1369 3016 2328 
Q 3016 3291 2770 3770 
Q 2525 4250 2034 4250 
z
M 2034 4750 
Q 2819 4750 3233 4129 
Q 3647 3509 3647 2328 
Q 3647 1150 3233 529 
Q 2819 -91 2034 -91 
Q 1250 -91 836 529 
Q 422 1150 422 2328 
Q 422 3509 836 4129 
Q 1250 4750 2034 4750 
z
" id="DejaVuSans-30" transform="scale(0.015625)"/>
       </defs>
       <use xlink:href="#DejaVuSans-30"/>
      </g>
     </g>
    </g>
    <g id="xtick_2">
     <g id="line2d_2">
      <g>
       <use style="stroke:#000000;stroke-width:0.8;" x="367.523613" xlink:href="#m6c15cd0d26" y="586.86358"/>
      </g>
     </g>
     <g id="text_2">
      <!-- 200 -->
      <g transform="translate(357.979863 601.462017)scale(0.1 -0.1)">
       <defs>
        <path d="M 1228 531 
L 3431 531 
L 3431 0 
L 469 0 
L 469 531 
Q 828 903 1448 1529 
Q 2069 2156 2228 2338 
Q 2531 2678 2651 2914 
Q 2772 3150 2772 3378 
Q 2772 3750 2511 3984 
Q 2250 4219 1831 4219 
Q 1534 4219 1204 4116 
Q 875 4013 500 3803 
L 500 4441 
Q 881 4594 1212 4672 
Q 1544 4750 1819 4750 
Q 2544 4750 2975 4387 
Q 3406 4025 3406 3419 
Q 3406 3131 3298 2873 
Q 3191 2616 2906 2266 
Q 2828 2175 2409 1742 
Q 1991 1309 1228 531 
z
" id="DejaVuSans-32" transform="scale(0.015625)"/>
       </defs>
       <use xlink:href="#DejaVuSans-32"/>
       <use x="63.623047" xlink:href="#DejaVuSans-30"/>
       <use x="127.246094" xlink:href="#DejaVuSans-30"/>
      </g>
     </g>
    </g>
    <g id="xtick_3">
     <g id="line2d_3">
      <g>
       <use style="stroke:#000000;stroke-width:0.8;" x="615.175066" xlink:href="#m6c15cd0d26" y="586.86358"/>
      </g>
     </g>
     <g id="text_3">
      <!-- 400 -->
      <g transform="translate(605.631316 601.462017)scale(0.1 -0.1)">
       <defs>
        <path d="M 2419 4116 
L 825 1625 
L 2419 1625 
L 2419 4116 
z
M 2253 4666 
L 3047 4666 
L 3047 1625 
L 3713 1625 
L 3713 1100 
L 3047 1100 
L 3047 0 
L 2419 0 
L 2419 1100 
L 313 1100 
L 313 1709 
L 2253 4666 
z
" id="DejaVuSans-34" transform="scale(0.015625)"/>
       </defs>
       <use xlink:href="#DejaVuSans-34"/>
       <use x="63.623047" xlink:href="#DejaVuSans-30"/>
       <use x="127.246094" xlink:href="#DejaVuSans-30"/>
      </g>
     </g>
    </g>
    <g id="xtick_4">
     <g id="line2d_4">
      <g>
       <use style="stroke:#000000;stroke-width:0.8;" x="862.82652" xlink:href="#m6c15cd0d26" y="586.86358"/>
      </g>
     </g>
     <g id="text_4">
      <!-- 600 -->
      <g transform="translate(853.28277 601.462017)scale(0.1 -0.1)">
       <defs>
        <path d="M 2113 2584 
Q 1688 2584 1439 2293 
Q 1191 2003 1191 1497 
Q 1191 994 1439 701 
Q 1688 409 2113 409 
Q 2538 409 2786 701 
Q 3034 994 3034 1497 
Q 3034 2003 2786 2293 
Q 2538 2584 2113 2584 
z
M 3366 4563 
L 3366 3988 
Q 3128 4100 2886 4159 
Q 2644 4219 2406 4219 
Q 1781 4219 1451 3797 
Q 1122 3375 1075 2522 
Q 1259 2794 1537 2939 
Q 1816 3084 2150 3084 
Q 2853 3084 3261 2657 
Q 3669 2231 3669 1497 
Q 3669 778 3244 343 
Q 2819 -91 2113 -91 
Q 1303 -91 875 529 
Q 447 1150 447 2328 
Q 447 3434 972 4092 
Q 1497 4750 2381 4750 
Q 2619 4750 2861 4703 
Q 3103 4656 3366 4563 
z
" id="DejaVuSans-36" transform="scale(0.015625)"/>
       </defs>
       <use xlink:href="#DejaVuSans-36"/>
       <use x="63.623047" xlink:href="#DejaVuSans-30"/>
       <use x="127.246094" xlink:href="#DejaVuSans-30"/>
      </g>
     </g>
    </g>
    <g id="xtick_5">
     <g id="line2d_5">
      <g>
       <use style="stroke:#000000;stroke-width:0.8;" x="1110.477973" xlink:href="#m6c15cd0d26" y="586.86358"/>
      </g>
     </g>
     <g id="text_5">
      <!-- 800 -->
      <g transform="translate(1100.934223 601.462017)scale(0.1 -0.1)">
       <defs>
        <path d="M 2034 2216 
Q 1584 2216 1326 1975 
Q 1069 1734 1069 1313 
Q 1069 891 1326 650 
Q 1584 409 2034 409 
Q 2484 409 2743 651 
Q 3003 894 3003 1313 
Q 3003 1734 2745 1975 
Q 2488 2216 2034 2216 
z
M 1403 2484 
Q 997 2584 770 2862 
Q 544 3141 544 3541 
Q 544 4100 942 4425 
Q 1341 4750 2034 4750 
Q 2731 4750 3128 4425 
Q 3525 4100 3525 3541 
Q 3525 3141 3298 2862 
Q 3072 2584 2669 2484 
Q 3125 2378 3379 2068 
Q 3634 1759 3634 1313 
Q 3634 634 3220 271 
Q 2806 -91 2034 -91 
Q 1263 -91 848 271 
Q 434 634 434 1313 
Q 434 1759 690 2068 
Q 947 2378 1403 2484 
z
M 1172 3481 
Q 1172 3119 1398 2916 
Q 1625 2713 2034 2713 
Q 2441 2713 2670 2916 
Q 2900 3119 2900 3481 
Q 2900 3844 2670 4047 
Q 2441 4250 2034 4250 
Q 1625 4250 1398 4047 
Q 1172 3844 1172 3481 
z
" id="DejaVuSans-38" transform="scale(0.015625)"/>
       </defs>
       <use xlink:href="#DejaVuSans-38"/>
       <use x="63.623047" xlink:href="#DejaVuSans-30"/>
       <use x="127.246094" xlink:href="#DejaVuSans-30"/>
      </g>
     </g>
    </g>
    <g id="xtick_6">
     <g id="line2d_6">
      <g>
       <use style="stroke:#000000;stroke-width:0.8;" x="1358.129427" xlink:href="#m6c15cd0d26" y="586.86358"/>
      </g>
     </g>
     <g id="text_6">
      <!-- 1000 -->
      <g transform="translate(1345.404427 601.462017)scale(0.1 -0.1)">
       <defs>
        <path d="M 794 531 
L 1825 531 
L 1825 4091 
L 703 3866 
L 703 4441 
L 1819 4666 
L 2450 4666 
L 2450 531 
L 3481 531 
L 3481 0 
L 794 0 
L 794 531 
z
" id="DejaVuSans-31" transform="scale(0.015625)"/>
       </defs>
       <use xlink:href="#DejaVuSans-31"/>
       <use x="63.623047" xlink:href="#DejaVuSans-30"/>
       <use x="127.246094" xlink:href="#DejaVuSans-30"/>
       <use x="190.869141" xlink:href="#DejaVuSans-30"/>
      </g>
     </g>
    </g>
    <g id="xtick_7">
     <g id="line2d_7">
      <g>
       <use style="stroke:#000000;stroke-width:0.8;" x="1605.78088" xlink:href="#m6c15cd0d26" y="586.86358"/>
      </g>
     </g>
     <g id="text_7">
      <!-- 1200 -->
      <g transform="translate(1593.05588 601.462017)scale(0.1 -0.1)">
       <use xlink:href="#DejaVuSans-31"/>
       <use x="63.623047" xlink:href="#DejaVuSans-32"/>
       <use x="127.246094" xlink:href="#DejaVuSans-30"/>
       <use x="190.869141" xlink:href="#DejaVuSans-30"/>
      </g>
     </g>
    </g>
    <g id="text_8">
     <!-- frame -->
     <g transform="translate(865.954687 615.140142)scale(0.1 -0.1)">
      <defs>
       <path d="M 2375 4863 
L 2375 4384 
L 1825 4384 
Q 1516 4384 1395 4259 
Q 1275 4134 1275 3809 
L 1275 3500 
L 2222 3500 
L 2222 3053 
L 1275 3053 
L 1275 0 
L 697 0 
L 697 3053 
L 147 3053 
L 147 3500 
L 697 3500 
L 697 3744 
Q 697 4328 969 4595 
Q 1241 4863 1831 4863 
L 2375 4863 
z
" id="DejaVuSans-66" transform="scale(0.015625)"/>
       <path d="M 2631 2963 
Q 2534 3019 2420 3045 
Q 2306 3072 2169 3072 
Q 1681 3072 1420 2755 
Q 1159 2438 1159 1844 
L 1159 0 
L 581 0 
L 581 3500 
L 1159 3500 
L 1159 2956 
Q 1341 3275 1631 3429 
Q 1922 3584 2338 3584 
Q 2397 3584 2469 3576 
Q 2541 3569 2628 3553 
L 2631 2963 
z
" id="DejaVuSans-72" transform="scale(0.015625)"/>
       <path d="M 2194 1759 
Q 1497 1759 1228 1600 
Q 959 1441 959 1056 
Q 959 750 1161 570 
Q 1363 391 1709 391 
Q 2188 391 2477 730 
Q 2766 1069 2766 1631 
L 2766 1759 
L 2194 1759 
z
M 3341 1997 
L 3341 0 
L 2766 0 
L 2766 531 
Q 2569 213 2275 61 
Q 1981 -91 1556 -91 
Q 1019 -91 701 211 
Q 384 513 384 1019 
Q 384 1609 779 1909 
Q 1175 2209 1959 2209 
L 2766 2209 
L 2766 2266 
Q 2766 2663 2505 2880 
Q 2244 3097 1772 3097 
Q 1472 3097 1187 3025 
Q 903 2953 641 2809 
L 641 3341 
Q 956 3463 1253 3523 
Q 1550 3584 1831 3584 
Q 2591 3584 2966 3190 
Q 3341 2797 3341 1997 
z
" id="DejaVuSans-61" transform="scale(0.015625)"/>
       <path d="M 3328 2828 
Q 3544 3216 3844 3400 
Q 4144 3584 4550 3584 
Q 5097 3584 5394 3201 
Q 5691 2819 5691 2113 
L 5691 0 
L 5113 0 
L 5113 2094 
Q 5113 2597 4934 2840 
Q 4756 3084 4391 3084 
Q 3944 3084 3684 2787 
Q 3425 2491 3425 1978 
L 3425 0 
L 2847 0 
L 2847 2094 
Q 2847 2600 2669 2842 
Q 2491 3084 2119 3084 
Q 1678 3084 1418 2786 
Q 1159 2488 1159 1978 
L 1159 0 
L 581 0 
L 581 3500 
L 1159 3500 
L 1159 2956 
Q 1356 3278 1631 3431 
Q 1906 3584 2284 3584 
Q 2666 3584 2933 3390 
Q 3200 3197 3328 2828 
z
" id="DejaVuSans-6d" transform="scale(0.015625)"/>
       <path d="M 3597 1894 
L 3597 1613 
L 953 1613 
Q 991 1019 1311 708 
Q 1631 397 2203 397 
Q 2534 397 2845 478 
Q 3156 559 3463 722 
L 3463 178 
Q 3153 47 2828 -22 
Q 2503 -91 2169 -91 
Q 1331 -91 842 396 
Q 353 884 353 1716 
Q 353 2575 817 3079 
Q 1281 3584 2069 3584 
Q 2775 3584 3186 3129 
Q 3597 2675 3597 1894 
z
M 3022 2063 
Q 3016 2534 2758 2815 
Q 2500 3097 2075 3097 
Q 1594 3097 1305 2825 
Q 1016 2553 972 2059 
L 3022 2063 
z
" id="DejaVuSans-65" transform="scale(0.015625)"/>
      </defs>
      <use xlink:href="#DejaVuSans-66"/>
      <use x="35.205078" xlink:href="#DejaVuSans-72"/>
      <use x="76.318359" xlink:href="#DejaVuSans-61"/>
      <use x="137.597656" xlink:href="#DejaVuSans-6d"/>
      <use x="235.009766" xlink:href="#DejaVuSans-65"/>
     </g>
    </g>
   </g>
   <g id="matplotlib.axis_2">
    <g id="ytick_1">
     <g id="line2d_8">
      <defs>
       <path d="M 0 0 
L -3.5 0 
" id="m50ab61337a" style="stroke:#000000;stroke-width:0.8;"/>
      </defs>
      <g>
       <use style="stroke:#000000;stroke-width:0.8;" x="43.78125" xlink:href="#m50ab61337a" y="561.202423"/>
      </g>
     </g>
     <g id="text_9">
      <!-- 0 -->
      <g transform="translate(30.41875 565.001641)scale(0.1 -0.1)">
       <use xlink:href="#DejaVuSans-30"/>
      </g>
     </g>
    </g>
    <g id="ytick_2">
     <g id="line2d_9">
      <g>
       <use style="stroke:#000000;stroke-width:0.8;" x="43.78125" xlink:href="#m50ab61337a" y="440.524171"/>
      </g>
     </g>
     <g id="text_10">
      <!-- 1 -->
      <g transform="translate(30.41875 444.32339)scale(0.1 -0.1)">
       <use xlink:href="#DejaVuSans-31"/>
      </g>
     </g>
    </g>
    <g id="ytick_3">
     <g id="line2d_10">
      <g>
       <use style="stroke:#000000;stroke-width:0.8;" x="43.78125" xlink:href="#m50ab61337a" y="319.845919"/>
      </g>
     </g>
     <g id="text_11">
      <!-- 2 -->
      <g transform="translate(30.41875 323.645138)scale(0.1 -0.1)">
       <use xlink:href="#DejaVuSans-32"/>
      </g>
     </g>
    </g>
    <g id="ytick_4">
     <g id="line2d_11">
      <g>
       <use style="stroke:#000000;stroke-width:0.8;" x="43.78125" xlink:href="#m50ab61337a" y="199.167667"/>
      </g>
     </g>
     <g id="text_12">
      <!-- 3 -->
      <g transform="translate(30.41875 202.966886)scale(0.1 -0.1)">
       <defs>
        <path d="M 2597 2516 
Q 3050 2419 3304 2112 
Q 3559 1806 3559 1356 
Q 3559 666 3084 287 
Q 2609 -91 1734 -91 
Q 1441 -91 1130 -33 
Q 819 25 488 141 
L 488 750 
Q 750 597 1062 519 
Q 1375 441 1716 441 
Q 2309 441 2620 675 
Q 2931 909 2931 1356 
Q 2931 1769 2642 2001 
Q 2353 2234 1838 2234 
L 1294 2234 
L 1294 2753 
L 1863 2753 
Q 2328 2753 2575 2939 
Q 2822 3125 2822 3475 
Q 2822 3834 2567 4026 
Q 2313 4219 1838 4219 
Q 1578 4219 1281 4162 
Q 984 4106 628 3988 
L 628 4550 
Q 988 4650 1302 4700 
Q 1616 4750 1894 4750 
Q 2613 4750 3031 4423 
Q 3450 4097 3450 3541 
Q 3450 3153 3228 2886 
Q 3006 2619 2597 2516 
z
" id="DejaVuSans-33" transform="scale(0.015625)"/>
       </defs>
       <use xlink:href="#DejaVuSans-33"/>
      </g>
     </g>
    </g>
    <g id="ytick_5">
     <g id="line2d_12">
      <g>
       <use style="stroke:#000000;stroke-width:0.8;" x="43.78125" xlink:href="#m50ab61337a" y="78.489416"/>
      </g>
     </g>
     <g id="text_13">
      <!-- 4 -->
      <g transform="translate(30.41875 82.288634)scale(0.1 -0.1)">
       <use xlink:href="#DejaVuSans-34"/>
      </g>
     </g>
    </g>
    <g id="text_14">
     <!-- GCaMP -->
     <g transform="translate(24.339062 322.349446)rotate(-90)scale(0.1 -0.1)">
      <defs>
       <path d="M 3809 666 
L 3809 1919 
L 2778 1919 
L 2778 2438 
L 4434 2438 
L 4434 434 
Q 4069 175 3628 42 
Q 3188 -91 2688 -91 
Q 1594 -91 976 548 
Q 359 1188 359 2328 
Q 359 3472 976 4111 
Q 1594 4750 2688 4750 
Q 3144 4750 3555 4637 
Q 3966 4525 4313 4306 
L 4313 3634 
Q 3963 3931 3569 4081 
Q 3175 4231 2741 4231 
Q 1884 4231 1454 3753 
Q 1025 3275 1025 2328 
Q 1025 1384 1454 906 
Q 1884 428 2741 428 
Q 3075 428 3337 486 
Q 3600 544 3809 666 
z
" id="DejaVuSans-47" transform="scale(0.015625)"/>
       <path d="M 4122 4306 
L 4122 3641 
Q 3803 3938 3442 4084 
Q 3081 4231 2675 4231 
Q 1875 4231 1450 3742 
Q 1025 3253 1025 2328 
Q 1025 1406 1450 917 
Q 1875 428 2675 428 
Q 3081 428 3442 575 
Q 3803 722 4122 1019 
L 4122 359 
Q 3791 134 3420 21 
Q 3050 -91 2638 -91 
Q 1578 -91 968 557 
Q 359 1206 359 2328 
Q 359 3453 968 4101 
Q 1578 4750 2638 4750 
Q 3056 4750 3426 4639 
Q 3797 4528 4122 4306 
z
" id="DejaVuSans-43" transform="scale(0.015625)"/>
       <path d="M 628 4666 
L 1569 4666 
L 2759 1491 
L 3956 4666 
L 4897 4666 
L 4897 0 
L 4281 0 
L 4281 4097 
L 3078 897 
L 2444 897 
L 1241 4097 
L 1241 0 
L 628 0 
L 628 4666 
z
" id="DejaVuSans-4d" transform="scale(0.015625)"/>
       <path d="M 1259 4147 
L 1259 2394 
L 2053 2394 
Q 2494 2394 2734 2622 
Q 2975 2850 2975 3272 
Q 2975 3691 2734 3919 
Q 2494 4147 2053 4147 
L 1259 4147 
z
M 628 4666 
L 2053 4666 
Q 2838 4666 3239 4311 
Q 3641 3956 3641 3272 
Q 3641 2581 3239 2228 
Q 2838 1875 2053 1875 
L 1259 1875 
L 1259 0 
L 628 0 
L 628 4666 
z
" id="DejaVuSans-50" transform="scale(0.015625)"/>
      </defs>
      <use xlink:href="#DejaVuSans-47"/>
      <use x="77.490234" xlink:href="#DejaVuSans-43"/>
      <use x="147.314453" xlink:href="#DejaVuSans-61"/>
      <use x="208.59375" xlink:href="#DejaVuSans-4d"/>
      <use x="294.873047" xlink:href="#DejaVuSans-50"/>
     </g>
    </g>
   </g>
   <g id="line2d_13">
    <path clip-path="url(#p9e34313f49)" d="M 119.872159 209.941804 
L 123.586931 219.939232 
L 124.825188 223.890513 
L 126.063445 228.476086 
L 127.301703 233.8348 
L 128.53996 240.217692 
L 131.016474 255.013799 
L 132.254732 261.249096 
L 134.731246 271.653067 
L 135.969504 277.802968 
L 138.446018 291.685899 
L 139.684275 297.888131 
L 140.922533 303.042247 
L 142.16079 307.319409 
L 143.399047 310.936774 
L 144.637304 313.744522 
L 145.875562 315.329325 
L 147.113819 315.579453 
L 148.352076 315.033556 
L 149.590334 314.723606 
L 150.828591 315.685066 
L 152.066848 318.33222 
L 153.305105 322.229032 
L 157.019877 335.252386 
L 158.258134 338.356293 
L 159.496392 340.371548 
L 160.734649 341.598347 
L 161.972906 342.556648 
L 164.449421 344.710918 
L 165.687678 344.885356 
L 166.925935 343.576895 
L 169.40245 338.227901 
L 170.640707 336.422839 
L 171.878964 335.958498 
L 173.117222 336.251308 
L 174.355479 336.426507 
L 175.593736 335.698184 
L 176.831993 333.641646 
L 178.070251 330.848153 
L 179.308508 328.926116 
L 180.546765 329.231463 
L 181.785022 331.769375 
L 184.261537 339.414804 
L 185.499794 342.595566 
L 186.738052 343.96184 
L 187.976309 342.381703 
L 189.214566 337.872203 
L 190.452823 332.197808 
L 191.691081 327.79802 
L 192.929338 326.1763 
L 194.167595 327.382877 
L 195.405852 330.581041 
L 197.882367 338.505738 
L 199.120624 341.207276 
L 200.358881 342.486301 
L 201.597139 342.717571 
L 202.835396 342.313813 
L 204.073653 341.379767 
L 205.311911 340.103251 
L 206.550168 338.991795 
L 207.788425 338.604677 
L 209.026682 339.32677 
L 210.26494 341.247492 
L 211.503197 343.901273 
L 212.741454 346.143481 
L 213.979711 346.731626 
L 215.217969 345.372142 
L 216.456226 342.996214 
L 217.694483 341.012132 
L 218.93274 340.518514 
L 220.170998 341.800747 
L 221.409255 344.11855 
L 222.647512 346.044496 
L 223.88577 346.193097 
L 225.124027 344.117001 
L 227.600541 337.498113 
L 228.838799 334.951413 
L 230.077056 332.729344 
L 231.315313 330.148071 
L 233.791828 323.982934 
L 235.030085 322.902534 
L 236.268342 324.707467 
L 237.5066 329.022072 
L 238.744857 334.937904 
L 241.221371 348.242861 
L 242.459629 353.431929 
L 243.697886 356.449916 
L 244.936143 357.605127 
L 246.1744 358.256088 
L 247.412658 359.978245 
L 248.650915 363.478249 
L 249.889172 368.067331 
L 251.127429 372.014115 
L 252.365687 373.428958 
L 253.603944 371.302769 
L 254.842201 366.211939 
L 257.318716 354.069154 
L 258.556973 349.349478 
L 259.79523 345.939645 
L 261.033488 344.128059 
L 262.271745 344.057948 
L 263.510002 345.431006 
L 264.748259 347.518568 
L 265.986517 348.868004 
L 267.224774 347.974089 
L 268.463031 344.964773 
L 269.701288 341.61417 
L 270.939546 339.749059 
L 272.177803 340.371146 
L 273.41606 343.598766 
L 274.654318 348.689974 
L 275.892575 354.298343 
L 277.130832 358.912169 
L 278.369089 361.24584 
L 279.607347 360.620357 
L 280.845604 357.383652 
L 283.322118 348.850927 
L 284.560376 346.312163 
L 285.798633 345.88448 
L 287.03689 347.705499 
L 289.513405 354.422261 
L 290.751662 355.226189 
L 291.989919 351.513884 
L 293.228177 343.335622 
L 294.466434 333.244462 
L 295.704691 324.639442 
L 296.942948 319.75497 
L 298.181206 318.884499 
L 299.419463 320.901822 
L 301.895977 327.224736 
L 303.134235 328.395428 
L 304.372492 326.691509 
L 305.610749 322.401873 
L 306.849006 317.583839 
L 308.087264 315.06209 
L 309.325521 316.194893 
L 310.563778 320.176727 
L 314.27855 336.717689 
L 315.516807 339.344717 
L 316.755065 338.339209 
L 317.993322 334.223105 
L 319.231579 329.309107 
L 320.469836 326.19704 
L 321.708094 326.018771 
L 322.946351 328.144216 
L 324.184608 331.196719 
L 325.422866 333.912722 
L 326.661123 335.355737 
L 327.89938 335.070069 
L 329.137637 333.318505 
L 330.375895 331.130511 
L 331.614152 329.769902 
L 332.852409 329.94229 
L 334.090666 331.62833 
L 335.328924 334.462178 
L 337.805438 341.620474 
L 339.043695 344.567789 
L 340.281953 346.223186 
L 341.52021 346.388431 
L 342.758467 345.328418 
L 343.996725 343.727509 
L 345.234982 342.50137 
L 346.473239 342.347212 
L 347.711496 343.441893 
L 348.949754 345.521233 
L 350.188011 347.877001 
L 351.426268 349.611397 
L 352.664525 350.312564 
L 353.902783 350.184809 
L 357.617554 348.611211 
L 358.855812 348.525633 
L 360.094069 349.237694 
L 361.332326 351.231907 
L 363.808841 357.427909 
L 365.047098 359.941466 
L 366.285355 361.090692 
L 367.523613 360.25095 
L 368.76187 357.437679 
L 372.476642 345.84364 
L 373.714899 342.700151 
L 374.953156 340.243768 
L 376.191413 338.60123 
L 377.429671 337.904506 
L 378.667928 338.143415 
L 381.144443 339.473183 
L 382.3827 340.017511 
L 383.620957 340.909262 
L 384.859214 342.377584 
L 386.097472 344.047086 
L 387.335729 345.178873 
L 388.573986 345.47836 
L 389.812243 345.463533 
L 391.050501 345.741788 
L 392.288758 346.397588 
L 393.527015 347.34186 
L 394.765272 348.438534 
L 396.00353 348.831522 
L 397.241787 347.16753 
L 398.480044 343.105135 
L 399.718302 337.925191 
L 400.956559 333.668259 
L 402.194816 331.857529 
L 403.433073 332.489488 
L 404.671331 334.134637 
L 405.909588 334.986167 
L 407.147845 333.841075 
L 408.386102 330.768559 
L 409.62436 327.145827 
L 410.862617 324.683948 
L 412.100874 324.240315 
L 413.339132 325.53678 
L 417.053903 332.361535 
L 420.768675 337.925527 
L 422.006932 339.285936 
L 423.24519 339.403874 
L 424.483447 338.194442 
L 425.721704 336.35651 
L 426.959961 334.740441 
L 428.198219 334.020453 
L 429.436476 334.909282 
L 430.674733 337.82704 
L 433.151248 346.077902 
L 434.389505 348.190377 
L 435.627762 347.992902 
L 436.86602 346.157581 
L 438.104277 343.899654 
L 439.342534 342.294794 
L 440.580791 341.585133 
L 443.057306 340.993445 
L 444.295563 341.420218 
L 445.53382 342.984848 
L 446.772078 345.2393 
L 448.010335 347.078989 
L 449.248592 347.545131 
L 450.48685 346.312028 
L 451.725107 343.671192 
L 452.963364 340.385651 
L 454.201621 337.528285 
L 455.439879 335.904863 
L 456.678136 335.717939 
L 457.916393 337.025201 
L 459.15465 339.770782 
L 461.631165 346.755921 
L 462.869422 349.080146 
L 464.107679 349.788486 
L 465.345937 349.005733 
L 466.584194 347.277638 
L 467.822451 345.351675 
L 469.060709 344.095655 
L 470.298966 343.940348 
L 474.013738 345.688747 
L 475.251995 346.689115 
L 476.490252 348.669498 
L 478.966767 354.281108 
L 480.205024 355.539725 
L 481.443281 354.710263 
L 482.681538 352.143921 
L 483.919796 348.527265 
L 487.634568 335.571169 
L 488.872825 332.458907 
L 490.111082 330.994417 
L 491.349339 331.112676 
L 492.587597 332.354856 
L 493.825854 333.838891 
L 495.064111 334.396339 
L 496.302368 333.395239 
L 497.540626 331.503119 
L 498.778883 330.223491 
L 500.01714 330.590083 
L 501.255397 332.3824 
L 502.493655 334.445215 
L 503.731912 335.645775 
L 504.970169 335.480551 
L 506.208427 333.925314 
L 508.684941 328.835777 
L 509.923198 327.552174 
L 511.161456 327.972084 
L 512.399713 329.730249 
L 514.876227 334.942559 
L 516.114485 337.472011 
L 517.352742 339.529061 
L 518.590999 340.884601 
L 519.829257 341.293686 
L 521.067514 340.535732 
L 522.305771 338.59626 
L 523.544028 335.802699 
L 524.782286 332.726234 
L 526.020543 330.238297 
L 527.2588 329.342981 
L 528.497057 330.062493 
L 529.735315 330.996523 
L 530.973572 330.75096 
L 533.450086 327.664587 
L 534.688344 326.799736 
L 535.926601 326.920416 
L 537.164858 327.826114 
L 538.403116 329.045574 
L 539.641373 329.904543 
L 540.87963 330.111301 
L 542.117887 330.072614 
L 543.356145 330.372501 
L 544.594402 331.180095 
L 545.832659 332.120731 
L 547.070916 332.48963 
L 548.309174 331.900724 
L 549.547431 330.884599 
L 550.785688 330.356134 
L 553.262203 330.737395 
L 554.50046 330.289135 
L 555.738717 329.254653 
L 556.976975 328.461968 
L 558.215232 328.411697 
L 559.453489 328.66077 
L 560.691746 328.554935 
L 561.930004 328.071009 
L 563.168261 327.401238 
L 564.406518 326.186423 
L 565.644775 324.038902 
L 568.12129 318.715527 
L 569.359547 317.095805 
L 570.597804 317.064851 
L 571.836062 318.619822 
L 573.074319 320.742764 
L 574.312576 321.97001 
L 575.550834 321.884855 
L 576.789091 321.539946 
L 578.027348 322.137254 
L 580.503863 325.664434 
L 581.74212 326.318301 
L 582.980377 325.31074 
L 585.456892 321.244904 
L 586.695149 319.649683 
L 587.933406 318.543199 
L 589.171663 317.951583 
L 590.409921 318.196569 
L 591.648178 319.659822 
L 594.124693 324.649208 
L 595.36295 325.980419 
L 596.601207 325.55671 
L 597.839464 323.691843 
L 599.077722 320.927999 
L 600.315979 317.800789 
L 601.554236 315.172548 
L 602.792493 313.90738 
L 604.030751 314.276384 
L 605.269008 315.901841 
L 606.507265 317.97376 
L 607.745523 319.711562 
L 608.98378 320.922215 
L 610.222037 321.824557 
L 611.460294 322.391267 
L 612.698552 322.213891 
L 613.936809 320.740877 
L 615.175066 317.789838 
L 616.413323 314.25585 
L 617.651581 311.544758 
L 618.889838 310.265694 
L 620.128095 310.311733 
L 622.60461 312.242762 
L 623.842867 312.289163 
L 625.081124 311.717981 
L 626.319382 311.671076 
L 627.557639 312.683838 
L 630.034153 316.007925 
L 631.272411 317.226762 
L 632.510668 317.667217 
L 633.748925 317.439589 
L 634.987182 317.089255 
L 636.22544 317.315202 
L 637.463697 318.729006 
L 639.940211 323.708253 
L 641.178469 325.110992 
L 642.416726 325.367883 
L 643.654983 325.149234 
L 644.893241 325.048288 
L 646.131498 325.374113 
L 647.369755 326.230072 
L 648.608012 327.344143 
L 649.84627 328.059179 
L 651.084527 327.757534 
L 652.322784 326.359966 
L 654.799299 322.606917 
L 656.037556 321.303996 
L 657.275813 320.552329 
L 658.51407 320.575019 
L 659.752328 321.636596 
L 663.4671 327.106183 
L 664.705357 328.135626 
L 665.943614 328.325798 
L 667.181871 327.864558 
L 669.658386 326.55664 
L 670.896643 325.640381 
L 672.1349 324.169455 
L 673.373158 321.901155 
L 674.611415 318.921804 
L 677.087929 312.455181 
L 678.326187 310.338028 
L 679.564444 310.18583 
L 680.802701 311.705755 
L 682.040959 313.419013 
L 683.279216 314.196551 
L 684.517473 314.037469 
L 685.75573 313.572523 
L 686.993988 313.312702 
L 688.232245 313.21354 
L 689.470502 312.753715 
L 690.708759 311.303243 
L 691.947017 308.513482 
L 695.661789 297.188019 
L 696.900046 295.420281 
L 698.138303 295.277167 
L 699.37656 296.297509 
L 703.091332 301.237026 
L 704.329589 302.271279 
L 705.567847 302.475563 
L 706.806104 301.860625 
L 708.044361 301.024259 
L 709.282618 300.899892 
L 711.759133 302.514268 
L 712.99739 301.74442 
L 714.235648 298.965369 
L 716.712162 291.373506 
L 717.950419 289.556657 
L 719.188677 290.442949 
L 720.426934 293.842568 
L 722.903448 303.454533 
L 724.141706 307.081327 
L 725.379963 308.713117 
L 726.61822 308.061018 
L 727.856477 305.613715 
L 729.094735 302.465969 
L 730.332992 299.860708 
L 731.571249 298.600722 
L 732.809507 298.608494 
L 734.047764 299.451677 
L 735.286021 301.041962 
L 736.524278 303.162424 
L 737.762536 304.967091 
L 739.000793 305.518313 
L 740.23905 304.465536 
L 741.477307 302.392303 
L 742.715565 300.569875 
L 743.953822 300.035916 
L 745.192079 301.068748 
L 746.430336 303.389012 
L 748.906851 309.471743 
L 750.145108 311.988989 
L 751.383366 313.592289 
L 752.621623 314.037374 
L 753.85988 313.339749 
L 758.812909 307.649565 
L 760.051166 305.663788 
L 762.527681 300.617408 
L 763.765938 299.201954 
L 765.004195 298.975349 
L 766.242453 298.999186 
L 767.48071 298.299817 
L 768.718967 296.64184 
L 769.957225 294.447713 
L 771.195482 292.539332 
L 772.433739 291.666752 
L 773.671996 292.039071 
L 774.910254 293.309298 
L 777.386768 296.341099 
L 778.625025 298.171582 
L 779.863283 300.823262 
L 783.578054 310.894749 
L 784.816312 312.816846 
L 786.054569 313.430443 
L 787.292826 312.759404 
L 788.531084 311.11792 
L 789.769341 309.199554 
L 791.007598 307.82596 
L 792.245855 307.563361 
L 793.484113 308.332303 
L 794.72237 309.514651 
L 795.960627 310.525736 
L 797.198884 310.980495 
L 798.437142 310.534142 
L 799.675399 308.927962 
L 800.913656 306.094272 
L 802.151914 302.465343 
L 803.390171 299.214753 
L 804.628428 297.606636 
L 805.866685 298.153549 
L 807.104943 300.3615 
L 808.3432 302.93076 
L 809.581457 304.733714 
L 810.819714 305.621104 
L 812.057972 305.771538 
L 813.296229 305.012194 
L 815.772743 301.576481 
L 817.011001 300.574816 
L 818.249258 300.616666 
L 819.487515 301.155107 
L 820.725773 301.368411 
L 821.96403 300.764665 
L 824.440544 298.076242 
L 825.678802 297.34422 
L 826.917059 297.717866 
L 828.155316 298.795831 
L 829.393573 299.693648 
L 831.870088 300.596201 
L 833.108345 301.535866 
L 836.823117 305.796704 
L 838.061374 306.721177 
L 840.537889 307.889337 
L 841.776146 308.031148 
L 843.014403 307.439655 
L 844.252661 306.262406 
L 845.490918 304.758148 
L 846.729175 302.934311 
L 849.20569 298.77698 
L 850.443947 297.225617 
L 854.158719 293.598604 
L 855.396976 293.223042 
L 856.635233 293.838817 
L 857.873491 295.442169 
L 860.350005 299.776334 
L 861.588262 301.05736 
L 862.82652 300.966218 
L 864.064777 299.553248 
L 865.303034 297.548293 
L 866.541291 295.901797 
L 867.779549 295.382295 
L 869.017806 296.032503 
L 870.256063 296.945664 
L 871.49432 297.168777 
L 872.732578 296.268245 
L 873.970835 293.952488 
L 876.44735 286.728952 
L 877.685607 284.613693 
L 878.923864 284.758881 
L 880.162121 286.672631 
L 881.400379 289.175023 
L 882.638636 291.41372 
L 883.876893 293.177467 
L 885.11515 294.344925 
L 886.353408 294.652396 
L 887.591665 293.819534 
L 888.829922 291.685909 
L 890.06818 288.405953 
L 891.306437 284.316306 
L 895.021209 270.508422 
L 896.259466 268.511938 
L 897.497723 270.116564 
L 898.73598 275.132963 
L 899.974238 281.675867 
L 901.212495 287.415152 
L 902.450752 290.635493 
L 903.689009 290.432051 
L 904.927267 286.531094 
L 906.165524 279.352928 
L 907.403781 270.42136 
L 908.642039 262.380469 
L 909.880296 257.78951 
L 911.118553 257.437733 
L 912.35681 260.058322 
L 913.595068 263.696981 
L 914.833325 266.955605 
L 916.071582 269.136294 
L 917.309839 270.106403 
L 921.024611 270.730087 
L 922.262868 269.692107 
L 923.501126 266.174874 
L 924.739383 260.163458 
L 925.97764 253.063942 
L 927.215898 246.731211 
L 928.454155 242.280319 
L 929.692412 239.830434 
L 930.930669 239.031173 
L 932.168927 239.484451 
L 933.407184 241.143373 
L 934.645441 244.500741 
L 935.883698 249.692019 
L 937.121956 255.5129 
L 938.360213 260.251514 
L 939.59847 263.274524 
L 940.836727 265.171638 
L 942.074985 266.685851 
L 943.313242 267.90048 
L 944.551499 268.440398 
L 945.789757 268.129755 
L 947.028014 267.197621 
L 948.266271 265.977584 
L 949.504528 264.560585 
L 951.981043 261.024356 
L 954.457557 257.488377 
L 955.695815 256.053217 
L 956.934072 255.041132 
L 958.172329 254.76165 
L 959.410586 255.638008 
L 960.648844 257.758196 
L 961.887101 260.453815 
L 963.125358 262.703435 
L 964.363616 263.894399 
L 965.601873 263.974031 
L 966.84013 263.073862 
L 968.078387 261.328947 
L 969.316645 259.115822 
L 970.554902 257.253225 
L 971.793159 256.707708 
L 973.031416 257.787297 
L 974.269674 259.609456 
L 975.507931 260.920707 
L 977.984446 262.205398 
L 980.46096 265.049157 
L 981.699217 265.418531 
L 982.937475 264.260441 
L 984.175732 262.430507 
L 985.413989 261.29136 
L 986.652246 261.802257 
L 987.890504 264.400867 
L 989.128761 268.802487 
L 990.367018 273.674633 
L 991.605275 277.345672 
L 992.843533 278.971754 
L 994.08179 278.857771 
L 995.320047 277.887351 
L 996.558305 276.6724 
L 999.034819 273.821739 
L 1001.511334 270.820909 
L 1002.749591 268.61396 
L 1003.987848 264.848341 
L 1005.226105 258.531061 
L 1006.464363 249.415575 
L 1010.179134 216.433369 
L 1011.417392 207.968635 
L 1012.655649 202.126278 
L 1013.893906 199.028456 
L 1015.132164 198.146087 
L 1016.370421 198.412101 
L 1018.846935 199.145273 
L 1020.085193 200.006327 
L 1021.32345 202.29898 
L 1022.561707 206.520452 
L 1025.038222 217.265794 
L 1026.276479 220.615989 
L 1027.514736 221.838982 
L 1028.752993 221.986757 
L 1029.991251 222.53463 
L 1031.229508 223.861012 
L 1032.467765 224.469532 
L 1033.706023 222.259676 
L 1034.94428 216.907457 
L 1036.182537 210.539023 
L 1037.420794 205.887913 
L 1038.659052 204.475153 
L 1039.897309 206.649114 
L 1041.135566 212.118007 
L 1043.612081 226.166243 
L 1044.850338 230.279696 
L 1046.088595 231.713537 
L 1047.326852 231.876881 
L 1048.56511 232.543559 
L 1049.803367 234.770112 
L 1051.041624 238.598565 
L 1053.518139 248.15018 
L 1054.756396 251.295448 
L 1055.994653 251.57079 
L 1057.232911 248.775744 
L 1059.709425 239.156175 
L 1060.947682 236.443804 
L 1062.18594 237.008737 
L 1063.424197 240.201596 
L 1064.662454 243.849869 
L 1065.900711 245.889192 
L 1067.138969 245.534057 
L 1069.615483 240.951383 
L 1070.853741 240.28523 
L 1072.091998 242.379667 
L 1074.568512 250.662114 
L 1075.80677 252.680782 
L 1077.045027 252.538734 
L 1078.283284 252.188399 
L 1079.521541 253.739402 
L 1081.998056 260.583004 
L 1083.236313 261.663373 
L 1084.474571 260.430856 
L 1086.951085 256.114673 
L 1088.189342 254.643511 
L 1089.4276 253.625496 
L 1090.665857 252.458061 
L 1091.904114 250.900077 
L 1093.142371 249.083181 
L 1094.380629 246.687548 
L 1095.618886 243.212865 
L 1096.857143 238.703655 
L 1099.333658 228.241814 
L 1100.571915 223.754454 
L 1101.810172 221.136652 
L 1103.04843 220.969937 
L 1104.286687 223.398799 
L 1105.524944 228.255011 
L 1108.001459 240.928157 
L 1109.239716 244.893555 
L 1110.477973 245.167182 
L 1111.71623 241.464529 
L 1112.954488 234.456069 
L 1116.669259 207.688608 
L 1117.907517 202.853502 
L 1119.145774 202.648649 
L 1120.384031 206.60179 
L 1122.860546 219.18824 
L 1124.098803 224.053374 
L 1125.33706 226.108661 
L 1126.575318 225.188652 
L 1127.813575 222.357963 
L 1129.051832 219.208665 
L 1130.290089 217.191335 
L 1131.528347 216.864705 
L 1132.766604 217.3814 
L 1134.004861 217.141717 
L 1135.243118 214.830444 
L 1136.481376 209.861776 
L 1140.196148 189.082061 
L 1141.434405 184.530991 
L 1142.672662 182.433252 
L 1143.910919 182.901375 
L 1146.387434 187.17059 
L 1147.625691 188.472239 
L 1148.863948 188.52571 
L 1150.102206 187.98813 
L 1151.340463 188.290075 
L 1152.57872 190.742673 
L 1153.816977 195.429395 
L 1155.055235 200.805992 
L 1156.293492 204.744805 
L 1157.531749 206.116991 
L 1158.770007 205.209118 
L 1160.008264 203.203296 
L 1161.246521 201.7168 
L 1162.484778 202.227577 
L 1163.723036 205.251829 
L 1166.19955 214.286975 
L 1167.437807 217.45346 
L 1168.676065 219.212944 
L 1169.914322 219.814535 
L 1171.152579 219.659708 
L 1172.390837 219.058838 
L 1173.629094 217.846054 
L 1174.867351 215.507175 
L 1176.105608 211.501143 
L 1177.343866 205.687422 
L 1182.296895 178.004088 
L 1183.535152 172.984707 
L 1184.773409 169.343457 
L 1186.011666 166.533287 
L 1187.249924 164.151496 
L 1188.488181 162.398251 
L 1189.726438 161.756658 
L 1190.964696 162.919595 
L 1192.202953 166.504134 
L 1193.44121 172.472062 
L 1197.155982 195.082751 
L 1198.394239 198.243187 
L 1199.632496 196.813274 
L 1200.870754 191.299314 
L 1202.109011 183.322143 
L 1204.585525 166.52253 
L 1205.823783 161.155939 
L 1207.06204 159.835056 
L 1208.300297 161.989644 
L 1210.776812 169.693371 
L 1212.015069 173.848089 
L 1213.253326 178.459401 
L 1215.729841 188.730681 
L 1216.968098 192.412063 
L 1218.206355 193.647735 
L 1219.444613 193.328498 
L 1220.68287 193.747789 
L 1221.921127 196.321636 
L 1223.159384 200.781205 
L 1224.397642 206.092239 
L 1225.635899 210.762176 
L 1226.874156 212.722447 
L 1228.112414 209.552965 
L 1229.350671 198.69296 
L 1230.588928 178.243629 
L 1231.827185 148.5462 
L 1234.3037 80.384027 
L 1235.541957 57.513791 
L 1236.780214 47.979282 
L 1238.018472 48.488966 
L 1239.256729 53.835727 
L 1241.733243 67.604373 
L 1242.971501 73.410084 
L 1244.209758 77.118508 
L 1245.448015 78.133177 
L 1246.686273 76.957726 
L 1247.92453 75.3305 
L 1249.162787 75.485466 
L 1250.401044 78.894376 
L 1251.639302 85.046137 
L 1252.877559 91.954273 
L 1254.115816 98.147057 
L 1257.830588 114.236803 
L 1260.307103 125.757258 
L 1261.54536 129.76962 
L 1262.783617 131.242194 
L 1264.021874 129.584873 
L 1265.260132 125.403354 
L 1266.498389 120.356596 
L 1267.736646 116.122417 
L 1268.974903 113.755978 
L 1270.213161 114.026534 
L 1271.451418 117.196136 
L 1277.642704 142.367491 
L 1278.880962 144.797716 
L 1280.119219 144.01358 
L 1281.357476 140.800568 
L 1282.595733 137.026783 
L 1283.833991 134.859082 
L 1285.072248 136.124091 
L 1286.310505 141.123386 
L 1287.548762 148.25656 
L 1288.78702 154.725374 
L 1290.025277 157.178963 
L 1291.263534 153.062301 
L 1292.501791 142.714403 
L 1294.978306 116.556705 
L 1296.216563 106.568911 
L 1297.454821 100.651527 
L 1298.693078 99.167017 
L 1299.931335 101.376825 
L 1301.169592 106.092052 
L 1303.646107 117.50004 
L 1304.884364 120.443137 
L 1306.122621 119.689732 
L 1307.360879 115.581922 
L 1308.599136 109.949677 
L 1309.837393 105.536292 
L 1311.07565 104.497601 
L 1312.313908 106.921064 
L 1313.552165 111.4309 
L 1316.02868 122.27946 
L 1317.266937 126.354641 
L 1318.505194 127.251433 
L 1319.743451 124.560627 
L 1320.981709 120.305385 
L 1322.219966 117.095163 
L 1323.458223 115.903958 
L 1324.69648 116.718082 
L 1325.934738 120.220439 
L 1327.172995 127.010201 
L 1328.411252 135.67994 
L 1329.649509 143.284685 
L 1330.887767 147.648176 
L 1332.126024 148.555791 
L 1333.364281 147.080924 
L 1334.602539 144.820863 
L 1335.840796 143.975901 
L 1337.079053 146.495546 
L 1339.555568 158.001766 
L 1340.793825 160.778874 
L 1342.032082 158.464301 
L 1343.270339 150.615431 
L 1344.508597 137.772509 
L 1346.985111 105.728313 
L 1348.223368 92.629769 
L 1349.461626 84.523901 
L 1350.699883 82.43309 
L 1351.93814 86.661351 
L 1353.176398 96.659824 
L 1355.652912 123.880439 
L 1356.891169 134.19679 
L 1358.129427 561.202423 
L 1641.690341 561.202423 
L 1641.690341 561.202423 
" style="fill:none;stroke:#008000;stroke-linecap:square;stroke-width:1.5;"/>
   </g>
   <g id="patch_3">
    <path d="M 43.78125 586.86358 
L 43.78125 22.318125 
" style="fill:none;stroke:#000000;stroke-linecap:square;stroke-linejoin:miter;stroke-width:0.8;"/>
   </g>
   <g id="patch_4">
    <path d="M 1717.78125 586.86358 
L 1717.78125 22.318125 
" style="fill:none;stroke:#000000;stroke-linecap:square;stroke-linejoin:miter;stroke-width:0.8;"/>
   </g>
   <g id="patch_5">
    <path d="M 43.78125 586.86358 
L 1717.78125 586.86358 
" style="fill:none;stroke:#000000;stroke-linecap:square;stroke-linejoin:miter;stroke-width:0.8;"/>
   </g>
   <g id="patch_6">
    <path d="M 43.78125 22.318125 
L 1717.78125 22.318125 
" style="fill:none;stroke:#000000;stroke-linecap:square;stroke-linejoin:miter;stroke-width:0.8;"/>
   </g>
   <g id="text_15">
    <!-- before binarisation -->
    <g transform="translate(824.1825 16.318125)scale(0.12 -0.12)">
     <defs>
      <path d="M 3116 1747 
Q 3116 2381 2855 2742 
Q 2594 3103 2138 3103 
Q 1681 3103 1420 2742 
Q 1159 2381 1159 1747 
Q 1159 1113 1420 752 
Q 1681 391 2138 391 
Q 2594 391 2855 752 
Q 3116 1113 3116 1747 
z
M 1159 2969 
Q 1341 3281 1617 3432 
Q 1894 3584 2278 3584 
Q 2916 3584 3314 3078 
Q 3713 2572 3713 1747 
Q 3713 922 3314 415 
Q 2916 -91 2278 -91 
Q 1894 -91 1617 61 
Q 1341 213 1159 525 
L 1159 0 
L 581 0 
L 581 4863 
L 1159 4863 
L 1159 2969 
z
" id="DejaVuSans-62" transform="scale(0.015625)"/>
      <path d="M 1959 3097 
Q 1497 3097 1228 2736 
Q 959 2375 959 1747 
Q 959 1119 1226 758 
Q 1494 397 1959 397 
Q 2419 397 2687 759 
Q 2956 1122 2956 1747 
Q 2956 2369 2687 2733 
Q 2419 3097 1959 3097 
z
M 1959 3584 
Q 2709 3584 3137 3096 
Q 3566 2609 3566 1747 
Q 3566 888 3137 398 
Q 2709 -91 1959 -91 
Q 1206 -91 779 398 
Q 353 888 353 1747 
Q 353 2609 779 3096 
Q 1206 3584 1959 3584 
z
" id="DejaVuSans-6f" transform="scale(0.015625)"/>
      <path id="DejaVuSans-20" transform="scale(0.015625)"/>
      <path d="M 603 3500 
L 1178 3500 
L 1178 0 
L 603 0 
L 603 3500 
z
M 603 4863 
L 1178 4863 
L 1178 4134 
L 603 4134 
L 603 4863 
z
" id="DejaVuSans-69" transform="scale(0.015625)"/>
      <path d="M 3513 2113 
L 3513 0 
L 2938 0 
L 2938 2094 
Q 2938 2591 2744 2837 
Q 2550 3084 2163 3084 
Q 1697 3084 1428 2787 
Q 1159 2491 1159 1978 
L 1159 0 
L 581 0 
L 581 3500 
L 1159 3500 
L 1159 2956 
Q 1366 3272 1645 3428 
Q 1925 3584 2291 3584 
Q 2894 3584 3203 3211 
Q 3513 2838 3513 2113 
z
" id="DejaVuSans-6e" transform="scale(0.015625)"/>
      <path d="M 2834 3397 
L 2834 2853 
Q 2591 2978 2328 3040 
Q 2066 3103 1784 3103 
Q 1356 3103 1142 2972 
Q 928 2841 928 2578 
Q 928 2378 1081 2264 
Q 1234 2150 1697 2047 
L 1894 2003 
Q 2506 1872 2764 1633 
Q 3022 1394 3022 966 
Q 3022 478 2636 193 
Q 2250 -91 1575 -91 
Q 1294 -91 989 -36 
Q 684 19 347 128 
L 347 722 
Q 666 556 975 473 
Q 1284 391 1588 391 
Q 1994 391 2212 530 
Q 2431 669 2431 922 
Q 2431 1156 2273 1281 
Q 2116 1406 1581 1522 
L 1381 1569 
Q 847 1681 609 1914 
Q 372 2147 372 2553 
Q 372 3047 722 3315 
Q 1072 3584 1716 3584 
Q 2034 3584 2315 3537 
Q 2597 3491 2834 3397 
z
" id="DejaVuSans-73" transform="scale(0.015625)"/>
      <path d="M 1172 4494 
L 1172 3500 
L 2356 3500 
L 2356 3053 
L 1172 3053 
L 1172 1153 
Q 1172 725 1289 603 
Q 1406 481 1766 481 
L 2356 481 
L 2356 0 
L 1766 0 
Q 1100 0 847 248 
Q 594 497 594 1153 
L 594 3053 
L 172 3053 
L 172 3500 
L 594 3500 
L 594 4494 
L 1172 4494 
z
" id="DejaVuSans-74" transform="scale(0.015625)"/>
     </defs>
     <use xlink:href="#DejaVuSans-62"/>
     <use x="63.476562" xlink:href="#DejaVuSans-65"/>
     <use x="125" xlink:href="#DejaVuSans-66"/>
     <use x="160.205078" xlink:href="#DejaVuSans-6f"/>
     <use x="221.386719" xlink:href="#DejaVuSans-72"/>
     <use x="260.25" xlink:href="#DejaVuSans-65"/>
     <use x="321.773438" xlink:href="#DejaVuSans-20"/>
     <use x="353.560547" xlink:href="#DejaVuSans-62"/>
     <use x="417.037109" xlink:href="#DejaVuSans-69"/>
     <use x="444.820312" xlink:href="#DejaVuSans-6e"/>
     <use x="508.199219" xlink:href="#DejaVuSans-61"/>
     <use x="569.478516" xlink:href="#DejaVuSans-72"/>
     <use x="610.591797" xlink:href="#DejaVuSans-69"/>
     <use x="638.375" xlink:href="#DejaVuSans-73"/>
     <use x="690.474609" xlink:href="#DejaVuSans-61"/>
     <use x="751.753906" xlink:href="#DejaVuSans-74"/>
     <use x="790.962891" xlink:href="#DejaVuSans-69"/>
     <use x="818.746094" xlink:href="#DejaVuSans-6f"/>
     <use x="879.927734" xlink:href="#DejaVuSans-6e"/>
    </g>
   </g>
  </g>
  <g id="axes_2">
   <g id="patch_7">
    <path d="M 43.78125 1264.318125 
L 1717.78125 1264.318125 
L 1717.78125 699.77267 
L 43.78125 699.77267 
z
" style="fill:#ffffff;"/>
   </g>
   <g id="matplotlib.axis_3">
    <g id="xtick_8">
     <g id="line2d_14">
      <g>
       <use style="stroke:#000000;stroke-width:0.8;" x="119.872159" xlink:href="#m6c15cd0d26" y="1264.318125"/>
      </g>
     </g>
     <g id="text_16">
      <!-- 0 -->
      <g transform="translate(116.690909 1278.916563)scale(0.1 -0.1)">
       <use xlink:href="#DejaVuSans-30"/>
      </g>
     </g>
    </g>
    <g id="xtick_9">
     <g id="line2d_15">
      <g>
       <use style="stroke:#000000;stroke-width:0.8;" x="367.523613" xlink:href="#m6c15cd0d26" y="1264.318125"/>
      </g>
     </g>
     <g id="text_17">
      <!-- 200 -->
      <g transform="translate(357.979863 1278.916563)scale(0.1 -0.1)">
       <use xlink:href="#DejaVuSans-32"/>
       <use x="63.623047" xlink:href="#DejaVuSans-30"/>
       <use x="127.246094" xlink:href="#DejaVuSans-30"/>
      </g>
     </g>
    </g>
    <g id="xtick_10">
     <g id="line2d_16">
      <g>
       <use style="stroke:#000000;stroke-width:0.8;" x="615.175066" xlink:href="#m6c15cd0d26" y="1264.318125"/>
      </g>
     </g>
     <g id="text_18">
      <!-- 400 -->
      <g transform="translate(605.631316 1278.916563)scale(0.1 -0.1)">
       <use xlink:href="#DejaVuSans-34"/>
       <use x="63.623047" xlink:href="#DejaVuSans-30"/>
       <use x="127.246094" xlink:href="#DejaVuSans-30"/>
      </g>
     </g>
    </g>
    <g id="xtick_11">
     <g id="line2d_17">
      <g>
       <use style="stroke:#000000;stroke-width:0.8;" x="862.82652" xlink:href="#m6c15cd0d26" y="1264.318125"/>
      </g>
     </g>
     <g id="text_19">
      <!-- 600 -->
      <g transform="translate(853.28277 1278.916563)scale(0.1 -0.1)">
       <use xlink:href="#DejaVuSans-36"/>
       <use x="63.623047" xlink:href="#DejaVuSans-30"/>
       <use x="127.246094" xlink:href="#DejaVuSans-30"/>
      </g>
     </g>
    </g>
    <g id="xtick_12">
     <g id="line2d_18">
      <g>
       <use style="stroke:#000000;stroke-width:0.8;" x="1110.477973" xlink:href="#m6c15cd0d26" y="1264.318125"/>
      </g>
     </g>
     <g id="text_20">
      <!-- 800 -->
      <g transform="translate(1100.934223 1278.916563)scale(0.1 -0.1)">
       <use xlink:href="#DejaVuSans-38"/>
       <use x="63.623047" xlink:href="#DejaVuSans-30"/>
       <use x="127.246094" xlink:href="#DejaVuSans-30"/>
      </g>
     </g>
    </g>
    <g id="xtick_13">
     <g id="line2d_19">
      <g>
       <use style="stroke:#000000;stroke-width:0.8;" x="1358.129427" xlink:href="#m6c15cd0d26" y="1264.318125"/>
      </g>
     </g>
     <g id="text_21">
      <!-- 1000 -->
      <g transform="translate(1345.404427 1278.916563)scale(0.1 -0.1)">
       <use xlink:href="#DejaVuSans-31"/>
       <use x="63.623047" xlink:href="#DejaVuSans-30"/>
       <use x="127.246094" xlink:href="#DejaVuSans-30"/>
       <use x="190.869141" xlink:href="#DejaVuSans-30"/>
      </g>
     </g>
    </g>
    <g id="xtick_14">
     <g id="line2d_20">
      <g>
       <use style="stroke:#000000;stroke-width:0.8;" x="1605.78088" xlink:href="#m6c15cd0d26" y="1264.318125"/>
      </g>
     </g>
     <g id="text_22">
      <!-- 1200 -->
      <g transform="translate(1593.05588 1278.916563)scale(0.1 -0.1)">
       <use xlink:href="#DejaVuSans-31"/>
       <use x="63.623047" xlink:href="#DejaVuSans-32"/>
       <use x="127.246094" xlink:href="#DejaVuSans-30"/>
       <use x="190.869141" xlink:href="#DejaVuSans-30"/>
      </g>
     </g>
    </g>
    <g id="text_23">
     <!-- frame -->
     <g transform="translate(865.954687 1292.594688)scale(0.1 -0.1)">
      <use xlink:href="#DejaVuSans-66"/>
      <use x="35.205078" xlink:href="#DejaVuSans-72"/>
      <use x="76.318359" xlink:href="#DejaVuSans-61"/>
      <use x="137.597656" xlink:href="#DejaVuSans-6d"/>
      <use x="235.009766" xlink:href="#DejaVuSans-65"/>
     </g>
    </g>
   </g>
   <g id="matplotlib.axis_4">
    <g id="ytick_6">
     <g id="line2d_21">
      <g>
       <use style="stroke:#000000;stroke-width:0.8;" x="43.78125" xlink:href="#m50ab61337a" y="1238.656968"/>
      </g>
     </g>
     <g id="text_24">
      <!-- 0.0 -->
      <g transform="translate(20.878125 1242.456187)scale(0.1 -0.1)">
       <defs>
        <path d="M 684 794 
L 1344 794 
L 1344 0 
L 684 0 
L 684 794 
z
" id="DejaVuSans-2e" transform="scale(0.015625)"/>
       </defs>
       <use xlink:href="#DejaVuSans-30"/>
       <use x="63.623047" xlink:href="#DejaVuSans-2e"/>
       <use x="95.410156" xlink:href="#DejaVuSans-30"/>
      </g>
     </g>
    </g>
    <g id="ytick_7">
     <g id="line2d_22">
      <g>
       <use style="stroke:#000000;stroke-width:0.8;" x="43.78125" xlink:href="#m50ab61337a" y="1136.01234"/>
      </g>
     </g>
     <g id="text_25">
      <!-- 0.2 -->
      <g transform="translate(20.878125 1139.811559)scale(0.1 -0.1)">
       <use xlink:href="#DejaVuSans-30"/>
       <use x="63.623047" xlink:href="#DejaVuSans-2e"/>
       <use x="95.410156" xlink:href="#DejaVuSans-32"/>
      </g>
     </g>
    </g>
    <g id="ytick_8">
     <g id="line2d_23">
      <g>
       <use style="stroke:#000000;stroke-width:0.8;" x="43.78125" xlink:href="#m50ab61337a" y="1033.367712"/>
      </g>
     </g>
     <g id="text_26">
      <!-- 0.4 -->
      <g transform="translate(20.878125 1037.166931)scale(0.1 -0.1)">
       <use xlink:href="#DejaVuSans-30"/>
       <use x="63.623047" xlink:href="#DejaVuSans-2e"/>
       <use x="95.410156" xlink:href="#DejaVuSans-34"/>
      </g>
     </g>
    </g>
    <g id="ytick_9">
     <g id="line2d_24">
      <g>
       <use style="stroke:#000000;stroke-width:0.8;" x="43.78125" xlink:href="#m50ab61337a" y="930.723084"/>
      </g>
     </g>
     <g id="text_27">
      <!-- 0.6 -->
      <g transform="translate(20.878125 934.522302)scale(0.1 -0.1)">
       <use xlink:href="#DejaVuSans-30"/>
       <use x="63.623047" xlink:href="#DejaVuSans-2e"/>
       <use x="95.410156" xlink:href="#DejaVuSans-36"/>
      </g>
     </g>
    </g>
    <g id="ytick_10">
     <g id="line2d_25">
      <g>
       <use style="stroke:#000000;stroke-width:0.8;" x="43.78125" xlink:href="#m50ab61337a" y="828.078456"/>
      </g>
     </g>
     <g id="text_28">
      <!-- 0.8 -->
      <g transform="translate(20.878125 831.877674)scale(0.1 -0.1)">
       <use xlink:href="#DejaVuSans-30"/>
       <use x="63.623047" xlink:href="#DejaVuSans-2e"/>
       <use x="95.410156" xlink:href="#DejaVuSans-38"/>
      </g>
     </g>
    </g>
    <g id="ytick_11">
     <g id="line2d_26">
      <g>
       <use style="stroke:#000000;stroke-width:0.8;" x="43.78125" xlink:href="#m50ab61337a" y="725.433827"/>
      </g>
     </g>
     <g id="text_29">
      <!-- 1.0 -->
      <g transform="translate(20.878125 729.233046)scale(0.1 -0.1)">
       <use xlink:href="#DejaVuSans-31"/>
       <use x="63.623047" xlink:href="#DejaVuSans-2e"/>
       <use x="95.410156" xlink:href="#DejaVuSans-30"/>
      </g>
     </g>
    </g>
    <g id="text_30">
     <!-- GCaMP -->
     <g transform="translate(14.798437 999.803991)rotate(-90)scale(0.1 -0.1)">
      <use xlink:href="#DejaVuSans-47"/>
      <use x="77.490234" xlink:href="#DejaVuSans-43"/>
      <use x="147.314453" xlink:href="#DejaVuSans-61"/>
      <use x="208.59375" xlink:href="#DejaVuSans-4d"/>
      <use x="294.873047" xlink:href="#DejaVuSans-50"/>
     </g>
    </g>
   </g>
   <g id="line2d_27">
    <path clip-path="url(#p303fca0114)" d="M 119.872159 1238.656968 
L 1012.655649 1238.656968 
L 1013.893906 725.433827 
L 1020.085193 725.433827 
L 1021.32345 1238.656968 
L 1137.719633 1238.656968 
L 1138.95789 725.433827 
L 1155.055235 725.433827 
L 1156.293492 1238.656968 
L 1177.343866 1238.656968 
L 1178.582123 725.433827 
L 1223.159384 725.433827 
L 1224.397642 1238.656968 
L 1228.112414 1238.656968 
L 1229.350671 725.433827 
L 1356.891169 725.433827 
L 1358.129427 1238.656968 
L 1641.690341 1238.656968 
L 1641.690341 1238.656968 
" style="fill:none;stroke:#008000;stroke-linecap:square;stroke-width:1.5;"/>
   </g>
   <g id="patch_8">
    <path d="M 43.78125 1264.318125 
L 43.78125 699.77267 
" style="fill:none;stroke:#000000;stroke-linecap:square;stroke-linejoin:miter;stroke-width:0.8;"/>
   </g>
   <g id="patch_9">
    <path d="M 1717.78125 1264.318125 
L 1717.78125 699.77267 
" style="fill:none;stroke:#000000;stroke-linecap:square;stroke-linejoin:miter;stroke-width:0.8;"/>
   </g>
   <g id="patch_10">
    <path d="M 43.78125 1264.318125 
L 1717.78125 1264.318125 
" style="fill:none;stroke:#000000;stroke-linecap:square;stroke-linejoin:miter;stroke-width:0.8;"/>
   </g>
   <g id="patch_11">
    <path d="M 43.78125 699.77267 
L 1717.78125 699.77267 
" style="fill:none;stroke:#000000;stroke-linecap:square;stroke-linejoin:miter;stroke-width:0.8;"/>
   </g>
   <g id="text_31">
    <!-- before binarisation -->
    <g transform="translate(824.1825 693.77267)scale(0.12 -0.12)">
     <use xlink:href="#DejaVuSans-62"/>
     <use x="63.476562" xlink:href="#DejaVuSans-65"/>
     <use x="125" xlink:href="#DejaVuSans-66"/>
     <use x="160.205078" xlink:href="#DejaVuSans-6f"/>
     <use x="221.386719" xlink:href="#DejaVuSans-72"/>
     <use x="260.25" xlink:href="#DejaVuSans-65"/>
     <use x="321.773438" xlink:href="#DejaVuSans-20"/>
     <use x="353.560547" xlink:href="#DejaVuSans-62"/>
     <use x="417.037109" xlink:href="#DejaVuSans-69"/>
     <use x="444.820312" xlink:href="#DejaVuSans-6e"/>
     <use x="508.199219" xlink:href="#DejaVuSans-61"/>
     <use x="569.478516" xlink:href="#DejaVuSans-72"/>
     <use x="610.591797" xlink:href="#DejaVuSans-69"/>
     <use x="638.375" xlink:href="#DejaVuSans-73"/>
     <use x="690.474609" xlink:href="#DejaVuSans-61"/>
     <use x="751.753906" xlink:href="#DejaVuSans-74"/>
     <use x="790.962891" xlink:href="#DejaVuSans-69"/>
     <use x="818.746094" xlink:href="#DejaVuSans-6f"/>
     <use x="879.927734" xlink:href="#DejaVuSans-6e"/>
    </g>
   </g>
  </g>
 </g>
 <defs>
  <clipPath id="p9e34313f49">
   <rect height="564.545455" width="1674" x="43.78125" y="22.318125"/>
  </clipPath>
  <clipPath id="p303fca0114">
   <rect height="564.545455" width="1674" x="43.78125" y="699.77267"/>
  </clipPath>
 </defs>
</svg>
