<?xml version="1.0" encoding="utf-8" standalone="no"?>
<!DOCTYPE svg PUBLIC "-//W3C//DTD SVG 1.1//EN"
  "http://www.w3.org/Graphics/SVG/1.1/DTD/svg11.dtd">
<svg height="1301.874375pt" version="1.1" viewBox="0 0 1724.98125 1301.874375" width="1724.98125pt" xmlns="http://www.w3.org/2000/svg" xmlns:xlink="http://www.w3.org/1999/xlink">
 <metadata>
  <rdf:RDF xmlns:cc="http://creativecommons.org/ns#" xmlns:dc="http://purl.org/dc/elements/1.1/" xmlns:rdf="http://www.w3.org/1999/02/22-rdf-syntax-ns#">
   <cc:Work>
    <dc:type rdf:resource="http://purl.org/dc/dcmitype/StillImage"/>
    <dc:date>2022-07-24T15:54:33.179218</dc:date>
    <dc:format>image/svg+xml</dc:format>
    <dc:creator>
     <cc:Agent>
      <dc:title>Matplotlib v3.4.2, https://matplotlib.org/</dc:title>
     </cc:Agent>
    </dc:creator>
   </cc:Work>
  </rdf:RDF>
 </metadata>
 <defs>
  <style type="text/css">*{stroke-linecap:butt;stroke-linejoin:round;}</style>
 </defs>
 <g id="figure_1">
  <g id="patch_1">
   <path d="M 0 1301.874375 
L 1724.98125 1301.874375 
L 1724.98125 0 
L 0 0 
z
" style="fill:#ffffff;"/>
  </g>
  <g id="axes_1">
   <g id="patch_2">
    <path d="M 43.78125 586.86358 
L 1717.78125 586.86358 
L 1717.78125 22.318125 
L 43.78125 22.318125 
z
" style="fill:#ffffff;"/>
   </g>
   <g id="matplotlib.axis_1">
    <g id="xtick_1">
     <g id="line2d_1">
      <defs>
       <path d="M 0 0 
L 0 3.5 
" id="m24014a777b" style="stroke:#000000;stroke-width:0.8;"/>
      </defs>
      <g>
       <use style="stroke:#000000;stroke-width:0.8;" x="119.872159" xlink:href="#m24014a777b" y="586.86358"/>
      </g>
     </g>
     <g id="text_1">
      <!-- 0 -->
      <g transform="translate(116.690909 601.462017)scale(0.1 -0.1)">
       <defs>
        <path d="M 2034 4250 
Q 1547 4250 1301 3770 
Q 1056 3291 1056 2328 
Q 1056 1369 1301 889 
Q 1547 409 2034 409 
Q 2525 409 2770 889 
Q 3016 1369 3016 2328 
Q 3016 3291 2770 3770 
Q 2525 4250 2034 4250 
z
M 2034 4750 
Q 2819 4750 3233 4129 
Q 3647 3509 3647 2328 
Q 3647 1150 3233 529 
Q 2819 -91 2034 -91 
Q 1250 -91 836 529 
Q 422 1150 422 2328 
Q 422 3509 836 4129 
Q 1250 4750 2034 4750 
z
" id="DejaVuSans-30" transform="scale(0.015625)"/>
       </defs>
       <use xlink:href="#DejaVuSans-30"/>
      </g>
     </g>
    </g>
    <g id="xtick_2">
     <g id="line2d_2">
      <g>
       <use style="stroke:#000000;stroke-width:0.8;" x="367.523613" xlink:href="#m24014a777b" y="586.86358"/>
      </g>
     </g>
     <g id="text_2">
      <!-- 200 -->
      <g transform="translate(357.979863 601.462017)scale(0.1 -0.1)">
       <defs>
        <path d="M 1228 531 
L 3431 531 
L 3431 0 
L 469 0 
L 469 531 
Q 828 903 1448 1529 
Q 2069 2156 2228 2338 
Q 2531 2678 2651 2914 
Q 2772 3150 2772 3378 
Q 2772 3750 2511 3984 
Q 2250 4219 1831 4219 
Q 1534 4219 1204 4116 
Q 875 4013 500 3803 
L 500 4441 
Q 881 4594 1212 4672 
Q 1544 4750 1819 4750 
Q 2544 4750 2975 4387 
Q 3406 4025 3406 3419 
Q 3406 3131 3298 2873 
Q 3191 2616 2906 2266 
Q 2828 2175 2409 1742 
Q 1991 1309 1228 531 
z
" id="DejaVuSans-32" transform="scale(0.015625)"/>
       </defs>
       <use xlink:href="#DejaVuSans-32"/>
       <use x="63.623047" xlink:href="#DejaVuSans-30"/>
       <use x="127.246094" xlink:href="#DejaVuSans-30"/>
      </g>
     </g>
    </g>
    <g id="xtick_3">
     <g id="line2d_3">
      <g>
       <use style="stroke:#000000;stroke-width:0.8;" x="615.175066" xlink:href="#m24014a777b" y="586.86358"/>
      </g>
     </g>
     <g id="text_3">
      <!-- 400 -->
      <g transform="translate(605.631316 601.462017)scale(0.1 -0.1)">
       <defs>
        <path d="M 2419 4116 
L 825 1625 
L 2419 1625 
L 2419 4116 
z
M 2253 4666 
L 3047 4666 
L 3047 1625 
L 3713 1625 
L 3713 1100 
L 3047 1100 
L 3047 0 
L 2419 0 
L 2419 1100 
L 313 1100 
L 313 1709 
L 2253 4666 
z
" id="DejaVuSans-34" transform="scale(0.015625)"/>
       </defs>
       <use xlink:href="#DejaVuSans-34"/>
       <use x="63.623047" xlink:href="#DejaVuSans-30"/>
       <use x="127.246094" xlink:href="#DejaVuSans-30"/>
      </g>
     </g>
    </g>
    <g id="xtick_4">
     <g id="line2d_4">
      <g>
       <use style="stroke:#000000;stroke-width:0.8;" x="862.82652" xlink:href="#m24014a777b" y="586.86358"/>
      </g>
     </g>
     <g id="text_4">
      <!-- 600 -->
      <g transform="translate(853.28277 601.462017)scale(0.1 -0.1)">
       <defs>
        <path d="M 2113 2584 
Q 1688 2584 1439 2293 
Q 1191 2003 1191 1497 
Q 1191 994 1439 701 
Q 1688 409 2113 409 
Q 2538 409 2786 701 
Q 3034 994 3034 1497 
Q 3034 2003 2786 2293 
Q 2538 2584 2113 2584 
z
M 3366 4563 
L 3366 3988 
Q 3128 4100 2886 4159 
Q 2644 4219 2406 4219 
Q 1781 4219 1451 3797 
Q 1122 3375 1075 2522 
Q 1259 2794 1537 2939 
Q 1816 3084 2150 3084 
Q 2853 3084 3261 2657 
Q 3669 2231 3669 1497 
Q 3669 778 3244 343 
Q 2819 -91 2113 -91 
Q 1303 -91 875 529 
Q 447 1150 447 2328 
Q 447 3434 972 4092 
Q 1497 4750 2381 4750 
Q 2619 4750 2861 4703 
Q 3103 4656 3366 4563 
z
" id="DejaVuSans-36" transform="scale(0.015625)"/>
       </defs>
       <use xlink:href="#DejaVuSans-36"/>
       <use x="63.623047" xlink:href="#DejaVuSans-30"/>
       <use x="127.246094" xlink:href="#DejaVuSans-30"/>
      </g>
     </g>
    </g>
    <g id="xtick_5">
     <g id="line2d_5">
      <g>
       <use style="stroke:#000000;stroke-width:0.8;" x="1110.477973" xlink:href="#m24014a777b" y="586.86358"/>
      </g>
     </g>
     <g id="text_5">
      <!-- 800 -->
      <g transform="translate(1100.934223 601.462017)scale(0.1 -0.1)">
       <defs>
        <path d="M 2034 2216 
Q 1584 2216 1326 1975 
Q 1069 1734 1069 1313 
Q 1069 891 1326 650 
Q 1584 409 2034 409 
Q 2484 409 2743 651 
Q 3003 894 3003 1313 
Q 3003 1734 2745 1975 
Q 2488 2216 2034 2216 
z
M 1403 2484 
Q 997 2584 770 2862 
Q 544 3141 544 3541 
Q 544 4100 942 4425 
Q 1341 4750 2034 4750 
Q 2731 4750 3128 4425 
Q 3525 4100 3525 3541 
Q 3525 3141 3298 2862 
Q 3072 2584 2669 2484 
Q 3125 2378 3379 2068 
Q 3634 1759 3634 1313 
Q 3634 634 3220 271 
Q 2806 -91 2034 -91 
Q 1263 -91 848 271 
Q 434 634 434 1313 
Q 434 1759 690 2068 
Q 947 2378 1403 2484 
z
M 1172 3481 
Q 1172 3119 1398 2916 
Q 1625 2713 2034 2713 
Q 2441 2713 2670 2916 
Q 2900 3119 2900 3481 
Q 2900 3844 2670 4047 
Q 2441 4250 2034 4250 
Q 1625 4250 1398 4047 
Q 1172 3844 1172 3481 
z
" id="DejaVuSans-38" transform="scale(0.015625)"/>
       </defs>
       <use xlink:href="#DejaVuSans-38"/>
       <use x="63.623047" xlink:href="#DejaVuSans-30"/>
       <use x="127.246094" xlink:href="#DejaVuSans-30"/>
      </g>
     </g>
    </g>
    <g id="xtick_6">
     <g id="line2d_6">
      <g>
       <use style="stroke:#000000;stroke-width:0.8;" x="1358.129427" xlink:href="#m24014a777b" y="586.86358"/>
      </g>
     </g>
     <g id="text_6">
      <!-- 1000 -->
      <g transform="translate(1345.404427 601.462017)scale(0.1 -0.1)">
       <defs>
        <path d="M 794 531 
L 1825 531 
L 1825 4091 
L 703 3866 
L 703 4441 
L 1819 4666 
L 2450 4666 
L 2450 531 
L 3481 531 
L 3481 0 
L 794 0 
L 794 531 
z
" id="DejaVuSans-31" transform="scale(0.015625)"/>
       </defs>
       <use xlink:href="#DejaVuSans-31"/>
       <use x="63.623047" xlink:href="#DejaVuSans-30"/>
       <use x="127.246094" xlink:href="#DejaVuSans-30"/>
       <use x="190.869141" xlink:href="#DejaVuSans-30"/>
      </g>
     </g>
    </g>
    <g id="xtick_7">
     <g id="line2d_7">
      <g>
       <use style="stroke:#000000;stroke-width:0.8;" x="1605.78088" xlink:href="#m24014a777b" y="586.86358"/>
      </g>
     </g>
     <g id="text_7">
      <!-- 1200 -->
      <g transform="translate(1593.05588 601.462017)scale(0.1 -0.1)">
       <use xlink:href="#DejaVuSans-31"/>
       <use x="63.623047" xlink:href="#DejaVuSans-32"/>
       <use x="127.246094" xlink:href="#DejaVuSans-30"/>
       <use x="190.869141" xlink:href="#DejaVuSans-30"/>
      </g>
     </g>
    </g>
    <g id="text_8">
     <!-- frame -->
     <g transform="translate(865.954687 615.140142)scale(0.1 -0.1)">
      <defs>
       <path d="M 2375 4863 
L 2375 4384 
L 1825 4384 
Q 1516 4384 1395 4259 
Q 1275 4134 1275 3809 
L 1275 3500 
L 2222 3500 
L 2222 3053 
L 1275 3053 
L 1275 0 
L 697 0 
L 697 3053 
L 147 3053 
L 147 3500 
L 697 3500 
L 697 3744 
Q 697 4328 969 4595 
Q 1241 4863 1831 4863 
L 2375 4863 
z
" id="DejaVuSans-66" transform="scale(0.015625)"/>
       <path d="M 2631 2963 
Q 2534 3019 2420 3045 
Q 2306 3072 2169 3072 
Q 1681 3072 1420 2755 
Q 1159 2438 1159 1844 
L 1159 0 
L 581 0 
L 581 3500 
L 1159 3500 
L 1159 2956 
Q 1341 3275 1631 3429 
Q 1922 3584 2338 3584 
Q 2397 3584 2469 3576 
Q 2541 3569 2628 3553 
L 2631 2963 
z
" id="DejaVuSans-72" transform="scale(0.015625)"/>
       <path d="M 2194 1759 
Q 1497 1759 1228 1600 
Q 959 1441 959 1056 
Q 959 750 1161 570 
Q 1363 391 1709 391 
Q 2188 391 2477 730 
Q 2766 1069 2766 1631 
L 2766 1759 
L 2194 1759 
z
M 3341 1997 
L 3341 0 
L 2766 0 
L 2766 531 
Q 2569 213 2275 61 
Q 1981 -91 1556 -91 
Q 1019 -91 701 211 
Q 384 513 384 1019 
Q 384 1609 779 1909 
Q 1175 2209 1959 2209 
L 2766 2209 
L 2766 2266 
Q 2766 2663 2505 2880 
Q 2244 3097 1772 3097 
Q 1472 3097 1187 3025 
Q 903 2953 641 2809 
L 641 3341 
Q 956 3463 1253 3523 
Q 1550 3584 1831 3584 
Q 2591 3584 2966 3190 
Q 3341 2797 3341 1997 
z
" id="DejaVuSans-61" transform="scale(0.015625)"/>
       <path d="M 3328 2828 
Q 3544 3216 3844 3400 
Q 4144 3584 4550 3584 
Q 5097 3584 5394 3201 
Q 5691 2819 5691 2113 
L 5691 0 
L 5113 0 
L 5113 2094 
Q 5113 2597 4934 2840 
Q 4756 3084 4391 3084 
Q 3944 3084 3684 2787 
Q 3425 2491 3425 1978 
L 3425 0 
L 2847 0 
L 2847 2094 
Q 2847 2600 2669 2842 
Q 2491 3084 2119 3084 
Q 1678 3084 1418 2786 
Q 1159 2488 1159 1978 
L 1159 0 
L 581 0 
L 581 3500 
L 1159 3500 
L 1159 2956 
Q 1356 3278 1631 3431 
Q 1906 3584 2284 3584 
Q 2666 3584 2933 3390 
Q 3200 3197 3328 2828 
z
" id="DejaVuSans-6d" transform="scale(0.015625)"/>
       <path d="M 3597 1894 
L 3597 1613 
L 953 1613 
Q 991 1019 1311 708 
Q 1631 397 2203 397 
Q 2534 397 2845 478 
Q 3156 559 3463 722 
L 3463 178 
Q 3153 47 2828 -22 
Q 2503 -91 2169 -91 
Q 1331 -91 842 396 
Q 353 884 353 1716 
Q 353 2575 817 3079 
Q 1281 3584 2069 3584 
Q 2775 3584 3186 3129 
Q 3597 2675 3597 1894 
z
M 3022 2063 
Q 3016 2534 2758 2815 
Q 2500 3097 2075 3097 
Q 1594 3097 1305 2825 
Q 1016 2553 972 2059 
L 3022 2063 
z
" id="DejaVuSans-65" transform="scale(0.015625)"/>
      </defs>
      <use xlink:href="#DejaVuSans-66"/>
      <use x="35.205078" xlink:href="#DejaVuSans-72"/>
      <use x="76.318359" xlink:href="#DejaVuSans-61"/>
      <use x="137.597656" xlink:href="#DejaVuSans-6d"/>
      <use x="235.009766" xlink:href="#DejaVuSans-65"/>
     </g>
    </g>
   </g>
   <g id="matplotlib.axis_2">
    <g id="ytick_1">
     <g id="line2d_8">
      <defs>
       <path d="M 0 0 
L -3.5 0 
" id="mbff02b6245" style="stroke:#000000;stroke-width:0.8;"/>
      </defs>
      <g>
       <use style="stroke:#000000;stroke-width:0.8;" x="43.78125" xlink:href="#mbff02b6245" y="528.599729"/>
      </g>
     </g>
     <g id="text_9">
      <!-- 4.0 -->
      <g transform="translate(20.878125 532.398948)scale(0.1 -0.1)">
       <defs>
        <path d="M 684 794 
L 1344 794 
L 1344 0 
L 684 0 
L 684 794 
z
" id="DejaVuSans-2e" transform="scale(0.015625)"/>
       </defs>
       <use xlink:href="#DejaVuSans-34"/>
       <use x="63.623047" xlink:href="#DejaVuSans-2e"/>
       <use x="95.410156" xlink:href="#DejaVuSans-30"/>
      </g>
     </g>
    </g>
    <g id="ytick_2">
     <g id="line2d_9">
      <g>
       <use style="stroke:#000000;stroke-width:0.8;" x="43.78125" xlink:href="#mbff02b6245" y="448.47638"/>
      </g>
     </g>
     <g id="text_10">
      <!-- 4.5 -->
      <g transform="translate(20.878125 452.275599)scale(0.1 -0.1)">
       <defs>
        <path d="M 691 4666 
L 3169 4666 
L 3169 4134 
L 1269 4134 
L 1269 2991 
Q 1406 3038 1543 3061 
Q 1681 3084 1819 3084 
Q 2600 3084 3056 2656 
Q 3513 2228 3513 1497 
Q 3513 744 3044 326 
Q 2575 -91 1722 -91 
Q 1428 -91 1123 -41 
Q 819 9 494 109 
L 494 744 
Q 775 591 1075 516 
Q 1375 441 1709 441 
Q 2250 441 2565 725 
Q 2881 1009 2881 1497 
Q 2881 1984 2565 2268 
Q 2250 2553 1709 2553 
Q 1456 2553 1204 2497 
Q 953 2441 691 2322 
L 691 4666 
z
" id="DejaVuSans-35" transform="scale(0.015625)"/>
       </defs>
       <use xlink:href="#DejaVuSans-34"/>
       <use x="63.623047" xlink:href="#DejaVuSans-2e"/>
       <use x="95.410156" xlink:href="#DejaVuSans-35"/>
      </g>
     </g>
    </g>
    <g id="ytick_3">
     <g id="line2d_10">
      <g>
       <use style="stroke:#000000;stroke-width:0.8;" x="43.78125" xlink:href="#mbff02b6245" y="368.353031"/>
      </g>
     </g>
     <g id="text_11">
      <!-- 5.0 -->
      <g transform="translate(20.878125 372.15225)scale(0.1 -0.1)">
       <use xlink:href="#DejaVuSans-35"/>
       <use x="63.623047" xlink:href="#DejaVuSans-2e"/>
       <use x="95.410156" xlink:href="#DejaVuSans-30"/>
      </g>
     </g>
    </g>
    <g id="ytick_4">
     <g id="line2d_11">
      <g>
       <use style="stroke:#000000;stroke-width:0.8;" x="43.78125" xlink:href="#mbff02b6245" y="288.229682"/>
      </g>
     </g>
     <g id="text_12">
      <!-- 5.5 -->
      <g transform="translate(20.878125 292.028901)scale(0.1 -0.1)">
       <use xlink:href="#DejaVuSans-35"/>
       <use x="63.623047" xlink:href="#DejaVuSans-2e"/>
       <use x="95.410156" xlink:href="#DejaVuSans-35"/>
      </g>
     </g>
    </g>
    <g id="ytick_5">
     <g id="line2d_12">
      <g>
       <use style="stroke:#000000;stroke-width:0.8;" x="43.78125" xlink:href="#mbff02b6245" y="208.106333"/>
      </g>
     </g>
     <g id="text_13">
      <!-- 6.0 -->
      <g transform="translate(20.878125 211.905552)scale(0.1 -0.1)">
       <use xlink:href="#DejaVuSans-36"/>
       <use x="63.623047" xlink:href="#DejaVuSans-2e"/>
       <use x="95.410156" xlink:href="#DejaVuSans-30"/>
      </g>
     </g>
    </g>
    <g id="ytick_6">
     <g id="line2d_13">
      <g>
       <use style="stroke:#000000;stroke-width:0.8;" x="43.78125" xlink:href="#mbff02b6245" y="127.982984"/>
      </g>
     </g>
     <g id="text_14">
      <!-- 6.5 -->
      <g transform="translate(20.878125 131.782203)scale(0.1 -0.1)">
       <use xlink:href="#DejaVuSans-36"/>
       <use x="63.623047" xlink:href="#DejaVuSans-2e"/>
       <use x="95.410156" xlink:href="#DejaVuSans-35"/>
      </g>
     </g>
    </g>
    <g id="ytick_7">
     <g id="line2d_14">
      <g>
       <use style="stroke:#000000;stroke-width:0.8;" x="43.78125" xlink:href="#mbff02b6245" y="47.859635"/>
      </g>
     </g>
     <g id="text_15">
      <!-- 7.0 -->
      <g transform="translate(20.878125 51.658854)scale(0.1 -0.1)">
       <defs>
        <path d="M 525 4666 
L 3525 4666 
L 3525 4397 
L 1831 0 
L 1172 0 
L 2766 4134 
L 525 4134 
L 525 4666 
z
" id="DejaVuSans-37" transform="scale(0.015625)"/>
       </defs>
       <use xlink:href="#DejaVuSans-37"/>
       <use x="63.623047" xlink:href="#DejaVuSans-2e"/>
       <use x="95.410156" xlink:href="#DejaVuSans-30"/>
      </g>
     </g>
    </g>
    <g id="text_16">
     <!-- GCaMP -->
     <g transform="translate(14.798437 322.349446)rotate(-90)scale(0.1 -0.1)">
      <defs>
       <path d="M 3809 666 
L 3809 1919 
L 2778 1919 
L 2778 2438 
L 4434 2438 
L 4434 434 
Q 4069 175 3628 42 
Q 3188 -91 2688 -91 
Q 1594 -91 976 548 
Q 359 1188 359 2328 
Q 359 3472 976 4111 
Q 1594 4750 2688 4750 
Q 3144 4750 3555 4637 
Q 3966 4525 4313 4306 
L 4313 3634 
Q 3963 3931 3569 4081 
Q 3175 4231 2741 4231 
Q 1884 4231 1454 3753 
Q 1025 3275 1025 2328 
Q 1025 1384 1454 906 
Q 1884 428 2741 428 
Q 3075 428 3337 486 
Q 3600 544 3809 666 
z
" id="DejaVuSans-47" transform="scale(0.015625)"/>
       <path d="M 4122 4306 
L 4122 3641 
Q 3803 3938 3442 4084 
Q 3081 4231 2675 4231 
Q 1875 4231 1450 3742 
Q 1025 3253 1025 2328 
Q 1025 1406 1450 917 
Q 1875 428 2675 428 
Q 3081 428 3442 575 
Q 3803 722 4122 1019 
L 4122 359 
Q 3791 134 3420 21 
Q 3050 -91 2638 -91 
Q 1578 -91 968 557 
Q 359 1206 359 2328 
Q 359 3453 968 4101 
Q 1578 4750 2638 4750 
Q 3056 4750 3426 4639 
Q 3797 4528 4122 4306 
z
" id="DejaVuSans-43" transform="scale(0.015625)"/>
       <path d="M 628 4666 
L 1569 4666 
L 2759 1491 
L 3956 4666 
L 4897 4666 
L 4897 0 
L 4281 0 
L 4281 4097 
L 3078 897 
L 2444 897 
L 1241 4097 
L 1241 0 
L 628 0 
L 628 4666 
z
" id="DejaVuSans-4d" transform="scale(0.015625)"/>
       <path d="M 1259 4147 
L 1259 2394 
L 2053 2394 
Q 2494 2394 2734 2622 
Q 2975 2850 2975 3272 
Q 2975 3691 2734 3919 
Q 2494 4147 2053 4147 
L 1259 4147 
z
M 628 4666 
L 2053 4666 
Q 2838 4666 3239 4311 
Q 3641 3956 3641 3272 
Q 3641 2581 3239 2228 
Q 2838 1875 2053 1875 
L 1259 1875 
L 1259 0 
L 628 0 
L 628 4666 
z
" id="DejaVuSans-50" transform="scale(0.015625)"/>
      </defs>
      <use xlink:href="#DejaVuSans-47"/>
      <use x="77.490234" xlink:href="#DejaVuSans-43"/>
      <use x="147.314453" xlink:href="#DejaVuSans-61"/>
      <use x="208.59375" xlink:href="#DejaVuSans-4d"/>
      <use x="294.873047" xlink:href="#DejaVuSans-50"/>
     </g>
    </g>
   </g>
   <g id="line2d_15">
    <path clip-path="url(#pccfe0473d3)" d="M 119.872159 320.570359 
L 121.110416 302.722432 
L 122.348674 287.806125 
L 123.586931 276.913044 
L 124.825188 269.555018 
L 126.063445 265.079352 
L 127.301703 263.4511 
L 128.53996 265.253263 
L 129.778217 270.65931 
L 132.254732 287.238536 
L 133.492989 293.876974 
L 134.731246 296.464799 
L 135.969504 295.182222 
L 137.207761 292.556146 
L 138.446018 291.290026 
L 139.684275 292.084578 
L 142.16079 295.050842 
L 143.399047 297.571212 
L 144.637304 303.098568 
L 145.875562 311.802859 
L 147.113819 321.758112 
L 148.352076 330.015933 
L 149.590334 334.78829 
L 150.828591 336.712786 
L 152.066848 337.638774 
L 154.543363 339.886569 
L 155.78162 339.399685 
L 157.019877 337.906851 
L 158.258134 338.923645 
L 159.496392 345.798177 
L 160.734649 358.107769 
L 161.972906 371.732855 
L 163.211163 382.222962 
L 164.449421 387.628335 
L 165.687678 388.385177 
L 166.925935 385.975407 
L 169.40245 378.535061 
L 170.640707 375.676631 
L 171.878964 373.779951 
L 173.117222 373.960256 
L 174.355479 377.750866 
L 175.593736 385.16002 
L 176.831993 394.070348 
L 178.070251 401.348195 
L 179.308508 405.013897 
L 180.546765 406.004798 
L 181.785022 407.164175 
L 183.02328 410.340539 
L 184.261537 415.447482 
L 189.214566 439.915805 
L 190.452823 447.821389 
L 192.929338 467.880535 
L 194.167595 474.064375 
L 195.405852 474.92822 
L 196.64411 470.745431 
L 200.358881 448.405497 
L 201.597139 444.465096 
L 202.835396 442.595256 
L 204.073653 442.440037 
L 205.311911 444.215783 
L 206.550168 447.933953 
L 207.788425 452.344846 
L 209.026682 455.031868 
L 210.26494 453.739124 
L 211.503197 447.670742 
L 213.979711 428.324732 
L 215.217969 421.79671 
L 216.456226 420.207141 
L 217.694483 422.234463 
L 218.93274 424.72566 
L 220.170998 425.081891 
L 221.409255 423.053982 
L 222.647512 420.612397 
L 223.88577 420.322153 
L 225.124027 423.494614 
L 226.362284 428.846643 
L 227.600541 432.989549 
L 228.838799 433.052183 
L 230.077056 428.889144 
L 231.315313 422.991221 
L 232.55357 418.636119 
L 233.791828 417.546403 
L 235.030085 419.021067 
L 236.268342 421.291427 
L 237.5066 422.718159 
L 238.744857 421.877671 
L 239.983114 418.393949 
L 241.221371 414.034839 
L 242.459629 411.881182 
L 243.697886 414.031808 
L 244.936143 420.527935 
L 246.1744 430.066097 
L 247.412658 440.503944 
L 248.650915 449.068211 
L 249.889172 453.157344 
L 251.127429 451.305663 
L 252.365687 443.777081 
L 253.603944 432.334764 
L 254.842201 419.59453 
L 256.080459 408.144012 
L 257.318716 399.332562 
L 258.556973 393.399226 
L 259.79523 390.844223 
L 261.033488 392.397814 
L 262.271745 397.341273 
L 263.510002 403.075024 
L 264.748259 406.73696 
L 265.986517 406.279912 
L 267.224774 401.109502 
L 270.939546 376.702496 
L 272.177803 372.416578 
L 273.41606 372.291532 
L 274.654318 375.492571 
L 275.892575 379.286153 
L 277.130832 380.214464 
L 278.369089 375.389026 
L 279.607347 363.900195 
L 283.322118 314.802156 
L 284.560376 308.20707 
L 285.798633 311.664972 
L 287.03689 323.550826 
L 288.275147 340.279243 
L 290.751662 378.384608 
L 291.989919 398.545456 
L 293.228177 416.619498 
L 294.466434 428.410148 
L 295.704691 432.466955 
L 296.942948 431.722151 
L 298.181206 431.39038 
L 299.419463 435.31859 
L 301.895977 450.942551 
L 303.134235 456.022499 
L 304.372492 456.144543 
L 305.610749 447.834612 
L 306.849006 428.141775 
L 309.325521 368.232067 
L 310.563778 350.11778 
L 311.802036 353.674859 
L 313.040293 375.770984 
L 314.27855 403.416014 
L 315.516807 423.844121 
L 316.755065 429.862389 
L 317.993322 418.671042 
L 319.231579 391.497441 
L 322.946351 277.822407 
L 324.184608 246.450615 
L 325.422866 222.784449 
L 326.661123 209.484827 
L 327.89938 209.118044 
L 329.137637 223.526926 
L 330.375895 251.961368 
L 332.852409 323.909313 
L 334.090666 349.499197 
L 335.328924 362.215299 
L 336.567181 362.856164 
L 337.805438 354.28347 
L 339.043695 342.472875 
L 340.281953 334.62651 
L 341.52021 333.776172 
L 342.758467 337.674202 
L 343.996725 342.332796 
L 345.234982 345.161117 
L 346.473239 345.785593 
L 347.711496 345.559177 
L 348.949754 346.434801 
L 351.426268 351.888589 
L 352.664525 351.992944 
L 353.902783 347.264173 
L 355.14104 337.380129 
L 357.617554 312.499809 
L 358.855812 306.08305 
L 360.094069 306.900539 
L 361.332326 312.799251 
L 362.570584 320.06115 
L 363.808841 326.536626 
L 365.047098 331.501692 
L 366.285355 333.792547 
L 367.523613 333.018392 
L 368.76187 331.642209 
L 370.000127 332.549025 
L 371.238384 335.618787 
L 372.476642 339.147551 
L 373.714899 343.071583 
L 374.953156 348.632223 
L 377.429671 363.12302 
L 378.667928 367.373109 
L 379.906185 365.477479 
L 381.144443 355.673041 
L 383.620957 324.361622 
L 384.859214 314.243856 
L 386.097472 312.162262 
L 387.335729 317.801609 
L 388.573986 330.174428 
L 389.812243 348.062251 
L 391.050501 368.596714 
L 392.288758 385.495464 
L 393.527015 391.552201 
L 394.765272 385.447984 
L 396.00353 373.516974 
L 397.241787 363.951512 
L 398.480044 361.769685 
L 399.718302 367.977244 
L 400.956559 380.126557 
L 403.433073 407.554585 
L 404.671331 417.726082 
L 405.909588 422.431803 
L 407.147845 420.701802 
L 408.386102 413.857859 
L 410.862617 393.900072 
L 412.100874 386.337941 
L 413.339132 382.144794 
L 414.577389 379.610519 
L 415.815646 376.342785 
L 417.053903 370.126545 
L 418.292161 360.314838 
L 419.530418 349.335014 
L 420.768675 341.343707 
L 422.006932 339.632705 
L 423.24519 346.015817 
L 424.483447 361.140374 
L 425.721704 383.530526 
L 426.959961 408.324809 
L 428.198219 428.282049 
L 429.436476 437.864841 
L 430.674733 436.766248 
L 433.151248 421.245564 
L 434.389505 417.116232 
L 435.627762 418.20219 
L 436.86602 422.794353 
L 438.104277 428.233888 
L 439.342534 432.694668 
L 440.580791 435.193547 
L 441.819049 434.720958 
L 443.057306 430.476731 
L 445.53382 416.357698 
L 446.772078 411.964658 
L 448.010335 410.737694 
L 449.248592 411.421751 
L 450.48685 412.529424 
L 451.725107 413.838911 
L 452.963364 417.060972 
L 454.201621 424.242661 
L 455.439879 434.357486 
L 456.678136 442.614093 
L 457.916393 444.681477 
L 459.15465 440.601166 
L 460.392908 434.048137 
L 461.631165 429.137533 
L 462.869422 428.107887 
L 464.107679 431.176677 
L 465.345937 437.589238 
L 467.822451 455.211894 
L 469.060709 462.306892 
L 470.298966 465.092277 
L 471.537223 462.447502 
L 472.77548 454.819169 
L 475.251995 433.104824 
L 476.490252 427.153744 
L 477.728509 429.715888 
L 478.966767 440.453516 
L 480.205024 455.171899 
L 481.443281 468.3954 
L 482.681538 475.991425 
L 483.919796 476.906292 
L 485.158053 473.588546 
L 486.39631 469.673025 
L 487.634568 466.607021 
L 488.872825 463.064689 
L 490.111082 457.315563 
L 491.349339 450.14949 
L 492.587597 444.721885 
L 493.825854 443.102904 
L 495.064111 444.940502 
L 496.302368 448.463552 
L 497.540626 450.954421 
L 498.778883 449.820695 
L 500.01714 443.994348 
L 501.255397 434.95614 
L 502.493655 426.941439 
L 503.731912 424.390932 
L 504.970169 428.686415 
L 507.446684 446.753335 
L 508.684941 450.20899 
L 509.923198 445.802163 
L 511.161456 437.456717 
L 512.399713 432.018208 
L 513.63797 433.676014 
L 514.876227 442.348775 
L 517.352742 467.756091 
L 518.590999 476.76156 
L 519.829257 481.215405 
L 521.067514 481.629995 
L 522.305771 478.616093 
L 523.544028 473.684701 
L 524.782286 469.522708 
L 526.020543 467.849884 
L 527.2588 467.321388 
L 528.497057 464.453809 
L 529.735315 457.650628 
L 530.973572 449.670535 
L 532.211829 444.78678 
L 533.450086 444.979278 
L 534.688344 449.827353 
L 537.164858 464.790607 
L 538.403116 467.746329 
L 539.641373 464.00313 
L 540.87963 453.286441 
L 542.117887 437.349942 
L 543.356145 419.671275 
L 544.594402 404.234544 
L 545.832659 394.151729 
L 547.070916 391.080045 
L 548.309174 394.89765 
L 549.547431 403.826515 
L 553.262203 438.629796 
L 554.50046 445.097537 
L 555.738717 445.813616 
L 556.976975 442.067573 
L 558.215232 436.166686 
L 559.453489 428.664383 
L 560.691746 418.669514 
L 561.930004 405.663135 
L 564.406518 376.129469 
L 565.644775 366.687783 
L 566.883033 364.451159 
L 568.12129 368.045309 
L 569.359547 373.78186 
L 570.597804 377.45005 
L 571.836062 376.100189 
L 573.074319 369.362193 
L 574.312576 358.754829 
L 576.789091 335.264015 
L 578.027348 326.880161 
L 579.265605 322.007554 
L 580.503863 320.315634 
L 581.74212 321.520888 
L 582.980377 325.856536 
L 584.218634 333.666413 
L 585.456892 344.617045 
L 587.933406 369.543725 
L 589.171663 378.9268 
L 590.409921 382.961488 
L 591.648178 380.326804 
L 592.886435 373.525558 
L 594.124693 368.211656 
L 595.36295 368.39263 
L 596.601207 373.743128 
L 597.839464 381.054273 
L 599.077722 387.115908 
L 600.315979 390.898232 
L 601.554236 393.214074 
L 604.030751 396.637919 
L 605.269008 400.646312 
L 606.507265 408.845225 
L 607.745523 419.800706 
L 608.98378 429.061116 
L 610.222037 433.13194 
L 611.460294 431.898624 
L 612.698552 427.421481 
L 615.175066 416.685042 
L 616.413323 412.980554 
L 617.651581 411.172678 
L 618.889838 411.221644 
L 620.128095 412.55801 
L 621.366352 414.329076 
L 622.60461 415.462534 
L 623.842867 414.686249 
L 625.081124 411.179108 
L 626.319382 405.222699 
L 630.034153 384.314999 
L 631.272411 376.092395 
L 633.748925 355.972741 
L 634.987182 350.360887 
L 636.22544 351.209108 
L 637.463697 356.920161 
L 638.701954 364.326121 
L 639.940211 370.782723 
L 641.178469 374.241768 
L 642.416726 374.134097 
L 643.654983 372.471455 
L 644.893241 372.253182 
L 646.131498 374.304815 
L 647.369755 375.72377 
L 648.608012 371.991047 
L 649.84627 360.529581 
L 651.084527 342.088396 
L 656.037556 252.222832 
L 657.275813 236.431175 
L 658.51407 225.691178 
L 659.752328 218.778344 
L 662.228842 208.815664 
L 663.4671 201.945776 
L 664.705357 191.316057 
L 665.943614 176.595143 
L 669.658386 124.403599 
L 670.896643 109.393803 
L 672.1349 99.423716 
L 673.373158 95.852267 
L 674.611415 96.742738 
L 675.849672 98.488434 
L 677.087929 98.91594 
L 678.326187 98.996538 
L 679.564444 101.096487 
L 683.279216 114.226512 
L 684.517473 120.545968 
L 685.75573 128.797058 
L 686.993988 135.510332 
L 688.232245 137.570128 
L 689.470502 135.092727 
L 690.708759 130.16674 
L 691.947017 124.601409 
L 693.185274 119.79719 
L 694.423531 117.346837 
L 695.661789 117.719923 
L 696.900046 119.244099 
L 698.138303 120.048416 
L 699.37656 119.937284 
L 700.614818 119.512447 
L 701.853075 118.636387 
L 703.091332 116.749377 
L 705.567847 111.043839 
L 708.044361 104.982389 
L 709.282618 101.469679 
L 710.520876 97.179791 
L 711.759133 91.784454 
L 712.99739 85.350759 
L 714.235648 78.034093 
L 715.473905 69.532134 
L 716.712162 59.912766 
L 717.950419 51.349074 
L 719.188677 47.979282 
L 720.426934 51.783048 
L 722.903448 68.481034 
L 724.141706 76.875134 
L 725.379963 84.302111 
L 726.61822 89.211642 
L 727.856477 91.296735 
L 729.094735 91.261423 
L 730.332992 90.126837 
L 731.571249 89.341217 
L 732.809507 88.717034 
L 734.047764 85.859209 
L 736.524278 73.865513 
L 737.762536 71.703179 
L 739.000793 75.324939 
L 740.23905 83.710252 
L 741.477307 95.290236 
L 742.715565 109.635602 
L 743.953822 125.691998 
L 745.192079 139.947917 
L 746.430336 148.282936 
L 747.668594 149.366564 
L 748.906851 146.258403 
L 750.145108 145.509906 
L 751.383366 153.028641 
L 752.621623 168.788212 
L 753.85988 186.865875 
L 755.098137 200.791356 
L 756.336395 207.268731 
L 757.574652 207.014688 
L 758.812909 204.75708 
L 760.051166 206.51697 
L 761.289424 214.995111 
L 762.527681 228.334441 
L 765.004195 256.463994 
L 768.718967 293.96041 
L 769.957225 304.963872 
L 771.195482 314.784931 
L 772.433739 321.802671 
L 773.671996 323.507897 
L 774.910254 320.261257 
L 776.148511 316.262316 
L 777.386768 315.555942 
L 778.625025 318.555314 
L 779.863283 323.790333 
L 781.10154 330.776543 
L 786.054569 364.466363 
L 787.292826 370.120281 
L 788.531084 371.648005 
L 789.769341 367.012874 
L 791.007598 357.434749 
L 792.245855 346.941788 
L 793.484113 339.920511 
L 794.72237 339.779805 
L 795.960627 347.673069 
L 798.437142 374.928349 
L 799.675399 385.658064 
L 800.913656 392.695908 
L 802.151914 395.979551 
L 803.390171 393.64364 
L 804.628428 384.274496 
L 807.104943 355.671806 
L 808.3432 344.790575 
L 809.581457 339.181307 
L 810.819714 339.448216 
L 812.057972 345.040524 
L 814.534486 361.288432 
L 815.772743 366.602294 
L 817.011001 370.028185 
L 818.249258 373.808221 
L 819.487515 380.73296 
L 820.725773 392.132118 
L 821.96403 406.001143 
L 823.202287 417.905638 
L 824.440544 422.987821 
L 825.678802 417.695995 
L 826.917059 402.862667 
L 828.155316 385.161734 
L 829.393573 372.696969 
L 830.631831 368.863678 
L 831.870088 371.321206 
L 835.58486 384.908081 
L 839.299632 401.582961 
L 840.537889 408.451678 
L 841.776146 418.646499 
L 844.252661 443.517183 
L 845.490918 452.226793 
L 846.729175 457.069062 
L 847.967432 458.251832 
L 849.20569 454.830971 
L 850.443947 445.732873 
L 852.920461 419.834994 
L 854.158719 412.900912 
L 855.396976 413.638391 
L 856.635233 420.151996 
L 857.873491 429.405078 
L 860.350005 450.009256 
L 861.588262 459.012969 
L 862.82652 465.716764 
L 864.064777 470.279002 
L 865.303034 472.94568 
L 866.541291 473.553823 
L 867.779549 472.016991 
L 869.017806 468.125869 
L 870.256063 461.760593 
L 871.49432 454.387741 
L 872.732578 448.934968 
L 873.970835 447.71607 
L 875.209092 450.998054 
L 877.685607 462.937095 
L 878.923864 467.129169 
L 880.162121 468.269204 
L 881.400379 465.489557 
L 882.638636 459.894769 
L 883.876893 454.947109 
L 885.11515 453.283321 
L 886.353408 454.740694 
L 887.591665 458.047033 
L 888.829922 462.138427 
L 890.06818 465.523975 
L 891.306437 466.174374 
L 892.544694 463.036624 
L 893.782951 457.426689 
L 895.021209 452.415777 
L 896.259466 450.344781 
L 897.497723 450.845296 
L 898.73598 451.694819 
L 899.974238 451.422282 
L 901.212495 450.584807 
L 902.450752 450.242408 
L 903.689009 449.325297 
L 904.927267 445.202729 
L 907.403781 429.622476 
L 908.642039 425.866459 
L 909.880296 428.166141 
L 911.118553 435.058316 
L 912.35681 442.953322 
L 913.595068 447.703522 
L 914.833325 446.105595 
L 916.071582 437.330791 
L 917.309839 423.031391 
L 918.548097 406.448946 
L 919.786354 392.121076 
L 921.024611 385.09784 
L 922.262868 388.159319 
L 923.501126 399.667815 
L 925.97764 428.61639 
L 927.215898 439.082418 
L 928.454155 446.052087 
L 929.692412 448.399618 
L 930.930669 443.929885 
L 932.168927 432.583417 
L 933.407184 417.929649 
L 934.645441 405.5504 
L 935.883698 399.633868 
L 937.121956 399.785294 
L 938.360213 401.775324 
L 939.59847 401.517987 
L 940.836727 397.279803 
L 942.074985 389.530208 
L 945.789757 360.386344 
L 947.028014 350.501681 
L 948.266271 342.953981 
L 949.504528 339.816257 
L 951.981043 340.578813 
L 953.2193 338.331459 
L 954.457557 333.172732 
L 956.934072 319.969007 
L 958.172329 314.994854 
L 960.648844 308.601113 
L 961.887101 304.093864 
L 963.125358 299.007529 
L 964.363616 296.403482 
L 965.601873 298.090852 
L 966.84013 303.112656 
L 968.078387 309.388636 
L 969.316645 315.035421 
L 970.554902 318.70386 
L 973.031416 322.455428 
L 974.269674 326.525452 
L 975.507931 334.096521 
L 976.746188 346.433123 
L 977.984446 363.773535 
L 979.222703 383.141201 
L 980.46096 398.615893 
L 981.699217 404.92803 
L 982.937475 400.550691 
L 984.175732 387.211436 
L 985.413989 367.607217 
L 987.890504 321.104722 
L 989.128761 301.344721 
L 990.367018 287.552972 
L 991.605275 279.585168 
L 992.843533 275.240114 
L 994.08179 272.357694 
L 995.320047 270.852922 
L 996.558305 271.239626 
L 997.796562 271.924199 
L 999.034819 270.233061 
L 1000.273076 264.889083 
L 1003.987848 240.576683 
L 1005.226105 237.447623 
L 1006.464363 239.127659 
L 1007.70262 243.464658 
L 1008.940877 246.377953 
L 1010.179134 246.069694 
L 1011.417392 243.599152 
L 1012.655649 239.913418 
L 1013.893906 235.207468 
L 1017.608678 218.966074 
L 1018.846935 212.112552 
L 1021.32345 196.828025 
L 1022.561707 191.183886 
L 1023.799964 188.430574 
L 1025.038222 188.698835 
L 1026.276479 189.93894 
L 1027.514736 189.403723 
L 1028.752993 186.269846 
L 1029.991251 182.153649 
L 1031.229508 179.555172 
L 1032.467765 179.514779 
L 1033.706023 180.699869 
L 1036.182537 182.515043 
L 1037.420794 185.128289 
L 1038.659052 190.347331 
L 1039.897309 198.570161 
L 1043.612081 231.01053 
L 1044.850338 234.72318 
L 1046.088595 231.311605 
L 1048.56511 213.422097 
L 1049.803367 207.906154 
L 1051.041624 206.904634 
L 1052.279882 209.442583 
L 1053.518139 216.03722 
L 1054.756396 228.37125 
L 1058.471168 279.787377 
L 1059.709425 292.687023 
L 1064.662454 340.14655 
L 1068.377226 378.96709 
L 1069.615483 390.285441 
L 1070.853741 398.167834 
L 1072.091998 400.462663 
L 1073.330255 398.348254 
L 1074.568512 396.490075 
L 1075.80677 399.693822 
L 1077.045027 408.852562 
L 1079.521541 432.153791 
L 1080.759799 440.723976 
L 1081.998056 445.005077 
L 1083.236313 444.380291 
L 1084.474571 439.40258 
L 1085.712828 431.151397 
L 1086.951085 421.727371 
L 1088.189342 414.157198 
L 1089.4276 410.123424 
L 1090.665857 408.224143 
L 1091.904114 404.841306 
L 1093.142371 396.887526 
L 1094.380629 384.105906 
L 1096.857143 354.757715 
L 1098.0954 343.093086 
L 1099.333658 333.789034 
L 1100.571915 326.167011 
L 1101.810172 320.824674 
L 1103.04843 319.243096 
L 1104.286687 321.500183 
L 1105.524944 325.238953 
L 1106.763201 326.941501 
L 1108.001459 324.085999 
L 1109.239716 316.897397 
L 1112.954488 290.31021 
L 1114.192745 283.637482 
L 1115.431002 281.154867 
L 1116.669259 283.430384 
L 1120.384031 297.728062 
L 1121.622289 303.173368 
L 1124.098803 317.343908 
L 1125.33706 322.474358 
L 1126.575318 324.159797 
L 1129.051832 322.512753 
L 1130.290089 323.955383 
L 1131.528347 328.633461 
L 1132.766604 335.102234 
L 1134.004861 340.176812 
L 1135.243118 341.988229 
L 1137.719633 341.181626 
L 1138.95789 341.496169 
L 1140.196148 342.249555 
L 1141.434405 342.806052 
L 1142.672662 342.833863 
L 1143.910919 342.312583 
L 1145.149177 340.871316 
L 1146.387434 337.683128 
L 1147.625691 332.005642 
L 1148.863948 323.170786 
L 1151.340463 298.121564 
L 1152.57872 288.981842 
L 1153.816977 289.001161 
L 1155.055235 299.751687 
L 1156.293492 317.880295 
L 1157.531749 338.012372 
L 1158.770007 354.800341 
L 1160.008264 363.64419 
L 1161.246521 362.311025 
L 1162.484778 351.947469 
L 1164.961293 320.50269 
L 1166.19955 308.583936 
L 1167.437807 303.021177 
L 1168.676065 303.243106 
L 1169.914322 306.675429 
L 1171.152579 311.633897 
L 1172.390837 318.705769 
L 1173.629094 328.907414 
L 1176.105608 352.669545 
L 1177.343866 361.030062 
L 1178.582123 366.755647 
L 1179.82038 371.525683 
L 1181.058637 375.554532 
L 1182.296895 377.509591 
L 1183.535152 376.871985 
L 1184.773409 374.983662 
L 1186.011666 373.818835 
L 1187.249924 374.974161 
L 1188.488181 379.031667 
L 1190.964696 390.081728 
L 1192.202953 394.625217 
L 1193.44121 399.676393 
L 1195.917725 412.874745 
L 1197.155982 417.542562 
L 1198.394239 418.636853 
L 1199.632496 416.013295 
L 1202.109011 406.43286 
L 1203.347268 404.454694 
L 1204.585525 404.002073 
L 1205.823783 402.124867 
L 1207.06204 397.692372 
L 1208.300297 392.235452 
L 1209.538555 387.611413 
L 1210.776812 384.935831 
L 1212.015069 385.024837 
L 1213.253326 388.137865 
L 1215.729841 398.273805 
L 1216.968098 399.732057 
L 1218.206355 395.2704 
L 1219.444613 384.649212 
L 1220.68287 370.750628 
L 1221.921127 358.439006 
L 1223.159384 351.287115 
L 1224.397642 349.578926 
L 1225.635899 351.408389 
L 1226.874156 354.487006 
L 1228.112414 356.710389 
L 1229.350671 356.165477 
L 1230.588928 351.412637 
L 1231.827185 342.016808 
L 1234.3037 317.625384 
L 1235.541957 311.403404 
L 1236.780214 312.87927 
L 1238.018472 320.691774 
L 1239.256729 332.37613 
L 1240.494986 345.568042 
L 1241.733243 357.3165 
L 1242.971501 364.612234 
L 1244.209758 366.528779 
L 1245.448015 365.083533 
L 1246.686273 362.944606 
L 1247.92453 360.546266 
L 1249.162787 356.390394 
L 1250.401044 349.742759 
L 1251.639302 342.157849 
L 1252.877559 336.37967 
L 1254.115816 334.588853 
L 1255.354073 337.911094 
L 1256.592331 345.814312 
L 1257.830588 355.403171 
L 1259.068845 363.213727 
L 1260.307103 367.283279 
L 1261.54536 366.256688 
L 1262.783617 359.296034 
L 1265.260132 337.41872 
L 1266.498389 330.142439 
L 1267.736646 328.297495 
L 1268.974903 331.540018 
L 1273.927932 355.002991 
L 1276.404447 369.817481 
L 1277.642704 372.780378 
L 1278.880962 369.283271 
L 1280.119219 359.876994 
L 1282.595733 335.942664 
L 1283.833991 329.391173 
L 1285.072248 330.09869 
L 1286.310505 336.388401 
L 1287.548762 344.07551 
L 1288.78702 350.556212 
L 1290.025277 356.092205 
L 1291.263534 362.512773 
L 1292.501791 371.734409 
L 1294.978306 396.588419 
L 1296.216563 406.514549 
L 1297.454821 410.607223 
L 1298.693078 407.86621 
L 1299.931335 400.549276 
L 1301.169592 392.492631 
L 1302.40785 386.400961 
L 1303.646107 383.416295 
L 1304.884364 383.543907 
L 1306.122621 385.067135 
L 1307.360879 385.627975 
L 1308.599136 384.705624 
L 1309.837393 383.491858 
L 1311.07565 383.274084 
L 1312.313908 384.979686 
L 1313.552165 388.918038 
L 1314.790422 394.505382 
L 1317.266937 406.625187 
L 1318.505194 410.31399 
L 1320.981709 413.069611 
L 1322.219966 416.637155 
L 1323.458223 421.982184 
L 1324.69648 426.793962 
L 1325.934738 429.563218 
L 1327.172995 430.754773 
L 1328.411252 431.278867 
L 1329.649509 430.741875 
L 1330.887767 427.844213 
L 1332.126024 422.068467 
L 1333.364281 415.014546 
L 1334.602539 410.32336 
L 1335.840796 411.790425 
L 1337.079053 421.017191 
L 1338.31731 436.5581 
L 1339.555568 454.688528 
L 1340.793825 470.536368 
L 1342.032082 479.447178 
L 1343.270339 479.104723 
L 1344.508597 471.410643 
L 1345.746854 461.835511 
L 1346.985111 455.517895 
L 1348.223368 453.763261 
L 1349.461626 454.634402 
L 1350.699883 455.678253 
L 1351.93814 455.718597 
L 1353.176398 455.161504 
L 1354.414655 455.07563 
L 1355.652912 456.446814 
L 1356.891169 460.039541 
L 1358.129427 465.834782 
L 1361.844198 486.455307 
L 1363.082456 490.544779 
L 1364.320713 491.718622 
L 1365.55897 490.306902 
L 1366.797228 486.87501 
L 1368.035485 481.964288 
L 1370.511999 471.381128 
L 1372.988514 462.637314 
L 1374.226771 458.58357 
L 1375.465028 455.916454 
L 1376.703286 455.115017 
L 1377.941543 455.885896 
L 1379.1798 458.578123 
L 1380.418057 463.476822 
L 1382.894572 475.578635 
L 1384.132829 479.504951 
L 1385.371087 480.303254 
L 1386.609344 479.291535 
L 1387.847601 479.0639 
L 1389.085858 479.578394 
L 1390.324116 478.54141 
L 1391.562373 476.138445 
L 1392.80063 476.132224 
L 1394.038887 481.376337 
L 1395.277145 489.788691 
L 1396.515402 495.680693 
L 1397.753659 495.301529 
L 1398.991916 490.822229 
L 1400.230174 488.04417 
L 1401.468431 490.435832 
L 1403.944946 503.146032 
L 1405.183203 507.002973 
L 1406.42146 506.853562 
L 1407.659717 502.797932 
L 1410.136232 489.736872 
L 1411.374489 484.423138 
L 1412.612746 480.373093 
L 1413.851004 475.850137 
L 1415.089261 468.466673 
L 1416.327518 456.851282 
L 1417.565775 442.363479 
L 1418.804033 429.228002 
L 1420.04229 422.164006 
L 1421.280547 423.935895 
L 1422.518805 434.021029 
L 1424.995319 462.161492 
L 1426.233576 471.169579 
L 1427.471834 474.515079 
L 1428.710091 474.717135 
L 1429.948348 475.750272 
L 1431.186605 479.596149 
L 1432.424863 485.898431 
L 1433.66312 493.152366 
L 1434.901377 498.985848 
L 1436.139634 501.299469 
L 1437.377892 499.714169 
L 1439.854406 492.113586 
L 1441.092664 490.882377 
L 1442.330921 492.426488 
L 1443.569178 496.154417 
L 1444.807435 500.472403 
L 1446.045693 502.346772 
L 1447.28395 499.266939 
L 1448.522207 491.260718 
L 1449.760464 479.781746 
L 1452.236979 451.562723 
L 1453.475236 441.119266 
L 1454.713494 438.784256 
L 1455.951751 444.657631 
L 1457.190008 455.565256 
L 1458.428265 467.938111 
L 1459.666523 478.611193 
L 1460.90478 485.656864 
L 1462.143037 489.48842 
L 1463.381294 492.203195 
L 1464.619552 495.910725 
L 1465.857809 501.409699 
L 1469.572581 521.083604 
L 1470.810838 525.719222 
L 1472.049095 527.288212 
L 1473.287353 524.633686 
L 1474.52561 518.544603 
L 1475.763867 511.443836 
L 1477.002124 505.59818 
L 1478.240382 502.016694 
L 1479.478639 500.361909 
L 1480.716896 499.496655 
L 1481.955153 498.32182 
L 1483.193411 496.335871 
L 1485.669925 490.839503 
L 1486.908182 490.104881 
L 1488.14644 493.301656 
L 1490.622954 506.656218 
L 1491.861212 512.02202 
L 1494.337726 520.864776 
L 1495.575983 525.551603 
L 1496.814241 528.534102 
L 1498.052498 527.798664 
L 1499.290755 522.640188 
L 1500.529012 514.21835 
L 1501.76727 505.031433 
L 1503.005527 497.823068 
L 1504.243784 494.841132 
L 1505.482041 497.60306 
L 1506.720299 506.008885 
L 1509.196813 527.889015 
L 1510.435071 535.640229 
L 1511.673328 541.358697 
L 1512.911585 546.167262 
L 1514.149842 550.075047 
L 1515.3881 552.825476 
L 1519.102871 559.281415 
L 1520.341129 560.799589 
L 1521.579386 561.202423 
L 1522.817643 560.179106 
L 1524.0559 558.554959 
L 1525.294158 558.215935 
L 1526.532415 559.427886 
L 1527.770672 559.718182 
L 1529.00893 557.257057 
L 1530.247187 553.554281 
L 1531.485444 551.186776 
L 1532.723701 550.859964 
L 1533.961959 551.489545 
L 1535.200216 551.092527 
L 1536.438473 547.483203 
L 1537.67673 539.760633 
L 1540.153245 519.127564 
L 1541.391502 513.811475 
L 1542.62976 516.099669 
L 1543.868017 524.572254 
L 1545.106274 534.482127 
L 1546.344531 541.609593 
L 1547.582789 544.775695 
L 1548.821046 544.720677 
L 1550.059303 541.910591 
L 1551.29756 536.779801 
L 1552.535818 531.165094 
L 1553.774075 527.53529 
L 1555.012332 526.712313 
L 1556.250589 526.973598 
L 1557.488847 525.667304 
L 1558.727104 521.898667 
L 1559.965361 516.531248 
L 1561.203619 509.775038 
L 1562.441876 501.650706 
L 1563.680133 494.560499 
L 1564.91839 492.13576 
L 1566.156648 495.499082 
L 1567.394905 502.197872 
L 1568.633162 508.142377 
L 1569.871419 510.009907 
L 1571.109677 506.947443 
L 1572.347934 501.489534 
L 1573.586191 498.713597 
L 1574.824448 502.694017 
L 1576.062706 513.38052 
L 1578.53922 540.477184 
L 1579.777478 549.717104 
L 1581.015735 554.334336 
L 1582.253992 555.592423 
L 1587.207021 555.027411 
L 1588.445278 554.680693 
L 1589.683536 553.078615 
L 1592.16005 546.313624 
L 1593.398307 544.020786 
L 1594.636565 541.235048 
L 1595.874822 535.10643 
L 1597.113079 524.803724 
L 1599.589594 500.557297 
L 1600.827851 492.114958 
L 1602.066108 488.323147 
L 1603.304366 489.348882 
L 1604.542623 493.995614 
L 1605.78088 499.869472 
L 1607.019137 504.467894 
L 1608.257395 506.014513 
L 1609.495652 503.377665 
L 1610.733909 496.369463 
L 1614.448681 467.477867 
L 1615.686938 459.163422 
L 1616.925196 451.899586 
L 1618.163453 447.64302 
L 1619.40171 447.666408 
L 1620.639967 451.220358 
L 1621.878225 456.414682 
L 1623.116482 461.023579 
L 1624.354739 462.858731 
L 1625.592996 460.57689 
L 1626.831254 454.202639 
L 1628.069511 445.773186 
L 1629.307768 439.403822 
L 1630.546026 438.786759 
L 1631.784283 444.197811 
L 1633.02254 452.457078 
L 1634.260797 459.679208 
L 1635.499055 463.19864 
L 1636.737312 460.792753 
L 1637.975569 450.695172 
L 1639.213826 433.530624 
L 1641.690341 388.597792 
L 1641.690341 388.597792 
" style="fill:none;stroke:#008000;stroke-linecap:square;stroke-width:1.5;"/>
   </g>
   <g id="patch_3">
    <path d="M 43.78125 586.86358 
L 43.78125 22.318125 
" style="fill:none;stroke:#000000;stroke-linecap:square;stroke-linejoin:miter;stroke-width:0.8;"/>
   </g>
   <g id="patch_4">
    <path d="M 1717.78125 586.86358 
L 1717.78125 22.318125 
" style="fill:none;stroke:#000000;stroke-linecap:square;stroke-linejoin:miter;stroke-width:0.8;"/>
   </g>
   <g id="patch_5">
    <path d="M 43.78125 586.86358 
L 1717.78125 586.86358 
" style="fill:none;stroke:#000000;stroke-linecap:square;stroke-linejoin:miter;stroke-width:0.8;"/>
   </g>
   <g id="patch_6">
    <path d="M 43.78125 22.318125 
L 1717.78125 22.318125 
" style="fill:none;stroke:#000000;stroke-linecap:square;stroke-linejoin:miter;stroke-width:0.8;"/>
   </g>
   <g id="text_17">
    <!-- before binarisation -->
    <g transform="translate(824.1825 16.318125)scale(0.12 -0.12)">
     <defs>
      <path d="M 3116 1747 
Q 3116 2381 2855 2742 
Q 2594 3103 2138 3103 
Q 1681 3103 1420 2742 
Q 1159 2381 1159 1747 
Q 1159 1113 1420 752 
Q 1681 391 2138 391 
Q 2594 391 2855 752 
Q 3116 1113 3116 1747 
z
M 1159 2969 
Q 1341 3281 1617 3432 
Q 1894 3584 2278 3584 
Q 2916 3584 3314 3078 
Q 3713 2572 3713 1747 
Q 3713 922 3314 415 
Q 2916 -91 2278 -91 
Q 1894 -91 1617 61 
Q 1341 213 1159 525 
L 1159 0 
L 581 0 
L 581 4863 
L 1159 4863 
L 1159 2969 
z
" id="DejaVuSans-62" transform="scale(0.015625)"/>
      <path d="M 1959 3097 
Q 1497 3097 1228 2736 
Q 959 2375 959 1747 
Q 959 1119 1226 758 
Q 1494 397 1959 397 
Q 2419 397 2687 759 
Q 2956 1122 2956 1747 
Q 2956 2369 2687 2733 
Q 2419 3097 1959 3097 
z
M 1959 3584 
Q 2709 3584 3137 3096 
Q 3566 2609 3566 1747 
Q 3566 888 3137 398 
Q 2709 -91 1959 -91 
Q 1206 -91 779 398 
Q 353 888 353 1747 
Q 353 2609 779 3096 
Q 1206 3584 1959 3584 
z
" id="DejaVuSans-6f" transform="scale(0.015625)"/>
      <path id="DejaVuSans-20" transform="scale(0.015625)"/>
      <path d="M 603 3500 
L 1178 3500 
L 1178 0 
L 603 0 
L 603 3500 
z
M 603 4863 
L 1178 4863 
L 1178 4134 
L 603 4134 
L 603 4863 
z
" id="DejaVuSans-69" transform="scale(0.015625)"/>
      <path d="M 3513 2113 
L 3513 0 
L 2938 0 
L 2938 2094 
Q 2938 2591 2744 2837 
Q 2550 3084 2163 3084 
Q 1697 3084 1428 2787 
Q 1159 2491 1159 1978 
L 1159 0 
L 581 0 
L 581 3500 
L 1159 3500 
L 1159 2956 
Q 1366 3272 1645 3428 
Q 1925 3584 2291 3584 
Q 2894 3584 3203 3211 
Q 3513 2838 3513 2113 
z
" id="DejaVuSans-6e" transform="scale(0.015625)"/>
      <path d="M 2834 3397 
L 2834 2853 
Q 2591 2978 2328 3040 
Q 2066 3103 1784 3103 
Q 1356 3103 1142 2972 
Q 928 2841 928 2578 
Q 928 2378 1081 2264 
Q 1234 2150 1697 2047 
L 1894 2003 
Q 2506 1872 2764 1633 
Q 3022 1394 3022 966 
Q 3022 478 2636 193 
Q 2250 -91 1575 -91 
Q 1294 -91 989 -36 
Q 684 19 347 128 
L 347 722 
Q 666 556 975 473 
Q 1284 391 1588 391 
Q 1994 391 2212 530 
Q 2431 669 2431 922 
Q 2431 1156 2273 1281 
Q 2116 1406 1581 1522 
L 1381 1569 
Q 847 1681 609 1914 
Q 372 2147 372 2553 
Q 372 3047 722 3315 
Q 1072 3584 1716 3584 
Q 2034 3584 2315 3537 
Q 2597 3491 2834 3397 
z
" id="DejaVuSans-73" transform="scale(0.015625)"/>
      <path d="M 1172 4494 
L 1172 3500 
L 2356 3500 
L 2356 3053 
L 1172 3053 
L 1172 1153 
Q 1172 725 1289 603 
Q 1406 481 1766 481 
L 2356 481 
L 2356 0 
L 1766 0 
Q 1100 0 847 248 
Q 594 497 594 1153 
L 594 3053 
L 172 3053 
L 172 3500 
L 594 3500 
L 594 4494 
L 1172 4494 
z
" id="DejaVuSans-74" transform="scale(0.015625)"/>
     </defs>
     <use xlink:href="#DejaVuSans-62"/>
     <use x="63.476562" xlink:href="#DejaVuSans-65"/>
     <use x="125" xlink:href="#DejaVuSans-66"/>
     <use x="160.205078" xlink:href="#DejaVuSans-6f"/>
     <use x="221.386719" xlink:href="#DejaVuSans-72"/>
     <use x="260.25" xlink:href="#DejaVuSans-65"/>
     <use x="321.773438" xlink:href="#DejaVuSans-20"/>
     <use x="353.560547" xlink:href="#DejaVuSans-62"/>
     <use x="417.037109" xlink:href="#DejaVuSans-69"/>
     <use x="444.820312" xlink:href="#DejaVuSans-6e"/>
     <use x="508.199219" xlink:href="#DejaVuSans-61"/>
     <use x="569.478516" xlink:href="#DejaVuSans-72"/>
     <use x="610.591797" xlink:href="#DejaVuSans-69"/>
     <use x="638.375" xlink:href="#DejaVuSans-73"/>
     <use x="690.474609" xlink:href="#DejaVuSans-61"/>
     <use x="751.753906" xlink:href="#DejaVuSans-74"/>
     <use x="790.962891" xlink:href="#DejaVuSans-69"/>
     <use x="818.746094" xlink:href="#DejaVuSans-6f"/>
     <use x="879.927734" xlink:href="#DejaVuSans-6e"/>
    </g>
   </g>
  </g>
  <g id="axes_2">
   <g id="patch_7">
    <path d="M 43.78125 1264.318125 
L 1717.78125 1264.318125 
L 1717.78125 699.77267 
L 43.78125 699.77267 
z
" style="fill:#ffffff;"/>
   </g>
   <g id="matplotlib.axis_3">
    <g id="xtick_8">
     <g id="line2d_16">
      <g>
       <use style="stroke:#000000;stroke-width:0.8;" x="119.872159" xlink:href="#m24014a777b" y="1264.318125"/>
      </g>
     </g>
     <g id="text_18">
      <!-- 0 -->
      <g transform="translate(116.690909 1278.916563)scale(0.1 -0.1)">
       <use xlink:href="#DejaVuSans-30"/>
      </g>
     </g>
    </g>
    <g id="xtick_9">
     <g id="line2d_17">
      <g>
       <use style="stroke:#000000;stroke-width:0.8;" x="367.523613" xlink:href="#m24014a777b" y="1264.318125"/>
      </g>
     </g>
     <g id="text_19">
      <!-- 200 -->
      <g transform="translate(357.979863 1278.916563)scale(0.1 -0.1)">
       <use xlink:href="#DejaVuSans-32"/>
       <use x="63.623047" xlink:href="#DejaVuSans-30"/>
       <use x="127.246094" xlink:href="#DejaVuSans-30"/>
      </g>
     </g>
    </g>
    <g id="xtick_10">
     <g id="line2d_18">
      <g>
       <use style="stroke:#000000;stroke-width:0.8;" x="615.175066" xlink:href="#m24014a777b" y="1264.318125"/>
      </g>
     </g>
     <g id="text_20">
      <!-- 400 -->
      <g transform="translate(605.631316 1278.916563)scale(0.1 -0.1)">
       <use xlink:href="#DejaVuSans-34"/>
       <use x="63.623047" xlink:href="#DejaVuSans-30"/>
       <use x="127.246094" xlink:href="#DejaVuSans-30"/>
      </g>
     </g>
    </g>
    <g id="xtick_11">
     <g id="line2d_19">
      <g>
       <use style="stroke:#000000;stroke-width:0.8;" x="862.82652" xlink:href="#m24014a777b" y="1264.318125"/>
      </g>
     </g>
     <g id="text_21">
      <!-- 600 -->
      <g transform="translate(853.28277 1278.916563)scale(0.1 -0.1)">
       <use xlink:href="#DejaVuSans-36"/>
       <use x="63.623047" xlink:href="#DejaVuSans-30"/>
       <use x="127.246094" xlink:href="#DejaVuSans-30"/>
      </g>
     </g>
    </g>
    <g id="xtick_12">
     <g id="line2d_20">
      <g>
       <use style="stroke:#000000;stroke-width:0.8;" x="1110.477973" xlink:href="#m24014a777b" y="1264.318125"/>
      </g>
     </g>
     <g id="text_22">
      <!-- 800 -->
      <g transform="translate(1100.934223 1278.916563)scale(0.1 -0.1)">
       <use xlink:href="#DejaVuSans-38"/>
       <use x="63.623047" xlink:href="#DejaVuSans-30"/>
       <use x="127.246094" xlink:href="#DejaVuSans-30"/>
      </g>
     </g>
    </g>
    <g id="xtick_13">
     <g id="line2d_21">
      <g>
       <use style="stroke:#000000;stroke-width:0.8;" x="1358.129427" xlink:href="#m24014a777b" y="1264.318125"/>
      </g>
     </g>
     <g id="text_23">
      <!-- 1000 -->
      <g transform="translate(1345.404427 1278.916563)scale(0.1 -0.1)">
       <use xlink:href="#DejaVuSans-31"/>
       <use x="63.623047" xlink:href="#DejaVuSans-30"/>
       <use x="127.246094" xlink:href="#DejaVuSans-30"/>
       <use x="190.869141" xlink:href="#DejaVuSans-30"/>
      </g>
     </g>
    </g>
    <g id="xtick_14">
     <g id="line2d_22">
      <g>
       <use style="stroke:#000000;stroke-width:0.8;" x="1605.78088" xlink:href="#m24014a777b" y="1264.318125"/>
      </g>
     </g>
     <g id="text_24">
      <!-- 1200 -->
      <g transform="translate(1593.05588 1278.916563)scale(0.1 -0.1)">
       <use xlink:href="#DejaVuSans-31"/>
       <use x="63.623047" xlink:href="#DejaVuSans-32"/>
       <use x="127.246094" xlink:href="#DejaVuSans-30"/>
       <use x="190.869141" xlink:href="#DejaVuSans-30"/>
      </g>
     </g>
    </g>
    <g id="text_25">
     <!-- frame -->
     <g transform="translate(865.954687 1292.594688)scale(0.1 -0.1)">
      <use xlink:href="#DejaVuSans-66"/>
      <use x="35.205078" xlink:href="#DejaVuSans-72"/>
      <use x="76.318359" xlink:href="#DejaVuSans-61"/>
      <use x="137.597656" xlink:href="#DejaVuSans-6d"/>
      <use x="235.009766" xlink:href="#DejaVuSans-65"/>
     </g>
    </g>
   </g>
   <g id="matplotlib.axis_4">
    <g id="ytick_8">
     <g id="line2d_23">
      <g>
       <use style="stroke:#000000;stroke-width:0.8;" x="43.78125" xlink:href="#mbff02b6245" y="1238.656968"/>
      </g>
     </g>
     <g id="text_26">
      <!-- 0.0 -->
      <g transform="translate(20.878125 1242.456187)scale(0.1 -0.1)">
       <use xlink:href="#DejaVuSans-30"/>
       <use x="63.623047" xlink:href="#DejaVuSans-2e"/>
       <use x="95.410156" xlink:href="#DejaVuSans-30"/>
      </g>
     </g>
    </g>
    <g id="ytick_9">
     <g id="line2d_24">
      <g>
       <use style="stroke:#000000;stroke-width:0.8;" x="43.78125" xlink:href="#mbff02b6245" y="1136.01234"/>
      </g>
     </g>
     <g id="text_27">
      <!-- 0.2 -->
      <g transform="translate(20.878125 1139.811559)scale(0.1 -0.1)">
       <use xlink:href="#DejaVuSans-30"/>
       <use x="63.623047" xlink:href="#DejaVuSans-2e"/>
       <use x="95.410156" xlink:href="#DejaVuSans-32"/>
      </g>
     </g>
    </g>
    <g id="ytick_10">
     <g id="line2d_25">
      <g>
       <use style="stroke:#000000;stroke-width:0.8;" x="43.78125" xlink:href="#mbff02b6245" y="1033.367712"/>
      </g>
     </g>
     <g id="text_28">
      <!-- 0.4 -->
      <g transform="translate(20.878125 1037.166931)scale(0.1 -0.1)">
       <use xlink:href="#DejaVuSans-30"/>
       <use x="63.623047" xlink:href="#DejaVuSans-2e"/>
       <use x="95.410156" xlink:href="#DejaVuSans-34"/>
      </g>
     </g>
    </g>
    <g id="ytick_11">
     <g id="line2d_26">
      <g>
       <use style="stroke:#000000;stroke-width:0.8;" x="43.78125" xlink:href="#mbff02b6245" y="930.723084"/>
      </g>
     </g>
     <g id="text_29">
      <!-- 0.6 -->
      <g transform="translate(20.878125 934.522302)scale(0.1 -0.1)">
       <use xlink:href="#DejaVuSans-30"/>
       <use x="63.623047" xlink:href="#DejaVuSans-2e"/>
       <use x="95.410156" xlink:href="#DejaVuSans-36"/>
      </g>
     </g>
    </g>
    <g id="ytick_12">
     <g id="line2d_27">
      <g>
       <use style="stroke:#000000;stroke-width:0.8;" x="43.78125" xlink:href="#mbff02b6245" y="828.078456"/>
      </g>
     </g>
     <g id="text_30">
      <!-- 0.8 -->
      <g transform="translate(20.878125 831.877674)scale(0.1 -0.1)">
       <use xlink:href="#DejaVuSans-30"/>
       <use x="63.623047" xlink:href="#DejaVuSans-2e"/>
       <use x="95.410156" xlink:href="#DejaVuSans-38"/>
      </g>
     </g>
    </g>
    <g id="ytick_13">
     <g id="line2d_28">
      <g>
       <use style="stroke:#000000;stroke-width:0.8;" x="43.78125" xlink:href="#mbff02b6245" y="725.433827"/>
      </g>
     </g>
     <g id="text_31">
      <!-- 1.0 -->
      <g transform="translate(20.878125 729.233046)scale(0.1 -0.1)">
       <use xlink:href="#DejaVuSans-31"/>
       <use x="63.623047" xlink:href="#DejaVuSans-2e"/>
       <use x="95.410156" xlink:href="#DejaVuSans-30"/>
      </g>
     </g>
    </g>
    <g id="text_32">
     <!-- GCaMP -->
     <g transform="translate(14.798437 999.803991)rotate(-90)scale(0.1 -0.1)">
      <use xlink:href="#DejaVuSans-47"/>
      <use x="77.490234" xlink:href="#DejaVuSans-43"/>
      <use x="147.314453" xlink:href="#DejaVuSans-61"/>
      <use x="208.59375" xlink:href="#DejaVuSans-4d"/>
      <use x="294.873047" xlink:href="#DejaVuSans-50"/>
     </g>
    </g>
   </g>
   <g id="line2d_29">
    <path clip-path="url(#pf93fa58713)" d="M 119.872159 1238.656968 
L 122.348674 1238.656968 
L 123.586931 725.433827 
L 129.778217 725.433827 
L 131.016474 1238.656968 
L 322.946351 1238.656968 
L 324.184608 725.433827 
L 330.375895 725.433827 
L 331.614152 1238.656968 
L 653.561041 1238.656968 
L 654.799299 725.433827 
L 766.242453 725.433827 
L 767.48071 1238.656968 
L 991.605275 1238.656968 
L 992.843533 725.433827 
L 1057.232911 725.433827 
L 1058.471168 1238.656968 
L 1641.690341 1238.656968 
L 1641.690341 1238.656968 
" style="fill:none;stroke:#008000;stroke-linecap:square;stroke-width:1.5;"/>
   </g>
   <g id="patch_8">
    <path d="M 43.78125 1264.318125 
L 43.78125 699.77267 
" style="fill:none;stroke:#000000;stroke-linecap:square;stroke-linejoin:miter;stroke-width:0.8;"/>
   </g>
   <g id="patch_9">
    <path d="M 1717.78125 1264.318125 
L 1717.78125 699.77267 
" style="fill:none;stroke:#000000;stroke-linecap:square;stroke-linejoin:miter;stroke-width:0.8;"/>
   </g>
   <g id="patch_10">
    <path d="M 43.78125 1264.318125 
L 1717.78125 1264.318125 
" style="fill:none;stroke:#000000;stroke-linecap:square;stroke-linejoin:miter;stroke-width:0.8;"/>
   </g>
   <g id="patch_11">
    <path d="M 43.78125 699.77267 
L 1717.78125 699.77267 
" style="fill:none;stroke:#000000;stroke-linecap:square;stroke-linejoin:miter;stroke-width:0.8;"/>
   </g>
   <g id="text_33">
    <!-- before binarisation -->
    <g transform="translate(824.1825 693.77267)scale(0.12 -0.12)">
     <use xlink:href="#DejaVuSans-62"/>
     <use x="63.476562" xlink:href="#DejaVuSans-65"/>
     <use x="125" xlink:href="#DejaVuSans-66"/>
     <use x="160.205078" xlink:href="#DejaVuSans-6f"/>
     <use x="221.386719" xlink:href="#DejaVuSans-72"/>
     <use x="260.25" xlink:href="#DejaVuSans-65"/>
     <use x="321.773438" xlink:href="#DejaVuSans-20"/>
     <use x="353.560547" xlink:href="#DejaVuSans-62"/>
     <use x="417.037109" xlink:href="#DejaVuSans-69"/>
     <use x="444.820312" xlink:href="#DejaVuSans-6e"/>
     <use x="508.199219" xlink:href="#DejaVuSans-61"/>
     <use x="569.478516" xlink:href="#DejaVuSans-72"/>
     <use x="610.591797" xlink:href="#DejaVuSans-69"/>
     <use x="638.375" xlink:href="#DejaVuSans-73"/>
     <use x="690.474609" xlink:href="#DejaVuSans-61"/>
     <use x="751.753906" xlink:href="#DejaVuSans-74"/>
     <use x="790.962891" xlink:href="#DejaVuSans-69"/>
     <use x="818.746094" xlink:href="#DejaVuSans-6f"/>
     <use x="879.927734" xlink:href="#DejaVuSans-6e"/>
    </g>
   </g>
  </g>
 </g>
 <defs>
  <clipPath id="pccfe0473d3">
   <rect height="564.545455" width="1674" x="43.78125" y="22.318125"/>
  </clipPath>
  <clipPath id="pf93fa58713">
   <rect height="564.545455" width="1674" x="43.78125" y="699.77267"/>
  </clipPath>
 </defs>
</svg>
