<?xml version="1.0" encoding="utf-8" standalone="no"?>
<!DOCTYPE svg PUBLIC "-//W3C//DTD SVG 1.1//EN"
  "http://www.w3.org/Graphics/SVG/1.1/DTD/svg11.dtd">
<svg height="1301.874375pt" version="1.1" viewBox="0 0 1724.98125 1301.874375" width="1724.98125pt" xmlns="http://www.w3.org/2000/svg" xmlns:xlink="http://www.w3.org/1999/xlink">
 <metadata>
  <rdf:RDF xmlns:cc="http://creativecommons.org/ns#" xmlns:dc="http://purl.org/dc/elements/1.1/" xmlns:rdf="http://www.w3.org/1999/02/22-rdf-syntax-ns#">
   <cc:Work>
    <dc:type rdf:resource="http://purl.org/dc/dcmitype/StillImage"/>
    <dc:date>2022-07-24T15:54:33.359735</dc:date>
    <dc:format>image/svg+xml</dc:format>
    <dc:creator>
     <cc:Agent>
      <dc:title>Matplotlib v3.4.2, https://matplotlib.org/</dc:title>
     </cc:Agent>
    </dc:creator>
   </cc:Work>
  </rdf:RDF>
 </metadata>
 <defs>
  <style type="text/css">*{stroke-linecap:butt;stroke-linejoin:round;}</style>
 </defs>
 <g id="figure_1">
  <g id="patch_1">
   <path d="M 0 1301.874375 
L 1724.98125 1301.874375 
L 1724.98125 0 
L 0 0 
z
" style="fill:#ffffff;"/>
  </g>
  <g id="axes_1">
   <g id="patch_2">
    <path d="M 43.78125 586.86358 
L 1717.78125 586.86358 
L 1717.78125 22.318125 
L 43.78125 22.318125 
z
" style="fill:#ffffff;"/>
   </g>
   <g id="matplotlib.axis_1">
    <g id="xtick_1">
     <g id="line2d_1">
      <defs>
       <path d="M 0 0 
L 0 3.5 
" id="m2ebca6b468" style="stroke:#000000;stroke-width:0.8;"/>
      </defs>
      <g>
       <use style="stroke:#000000;stroke-width:0.8;" x="119.872159" xlink:href="#m2ebca6b468" y="586.86358"/>
      </g>
     </g>
     <g id="text_1">
      <!-- 0 -->
      <g transform="translate(116.690909 601.462017)scale(0.1 -0.1)">
       <defs>
        <path d="M 2034 4250 
Q 1547 4250 1301 3770 
Q 1056 3291 1056 2328 
Q 1056 1369 1301 889 
Q 1547 409 2034 409 
Q 2525 409 2770 889 
Q 3016 1369 3016 2328 
Q 3016 3291 2770 3770 
Q 2525 4250 2034 4250 
z
M 2034 4750 
Q 2819 4750 3233 4129 
Q 3647 3509 3647 2328 
Q 3647 1150 3233 529 
Q 2819 -91 2034 -91 
Q 1250 -91 836 529 
Q 422 1150 422 2328 
Q 422 3509 836 4129 
Q 1250 4750 2034 4750 
z
" id="DejaVuSans-30" transform="scale(0.015625)"/>
       </defs>
       <use xlink:href="#DejaVuSans-30"/>
      </g>
     </g>
    </g>
    <g id="xtick_2">
     <g id="line2d_2">
      <g>
       <use style="stroke:#000000;stroke-width:0.8;" x="367.523613" xlink:href="#m2ebca6b468" y="586.86358"/>
      </g>
     </g>
     <g id="text_2">
      <!-- 200 -->
      <g transform="translate(357.979863 601.462017)scale(0.1 -0.1)">
       <defs>
        <path d="M 1228 531 
L 3431 531 
L 3431 0 
L 469 0 
L 469 531 
Q 828 903 1448 1529 
Q 2069 2156 2228 2338 
Q 2531 2678 2651 2914 
Q 2772 3150 2772 3378 
Q 2772 3750 2511 3984 
Q 2250 4219 1831 4219 
Q 1534 4219 1204 4116 
Q 875 4013 500 3803 
L 500 4441 
Q 881 4594 1212 4672 
Q 1544 4750 1819 4750 
Q 2544 4750 2975 4387 
Q 3406 4025 3406 3419 
Q 3406 3131 3298 2873 
Q 3191 2616 2906 2266 
Q 2828 2175 2409 1742 
Q 1991 1309 1228 531 
z
" id="DejaVuSans-32" transform="scale(0.015625)"/>
       </defs>
       <use xlink:href="#DejaVuSans-32"/>
       <use x="63.623047" xlink:href="#DejaVuSans-30"/>
       <use x="127.246094" xlink:href="#DejaVuSans-30"/>
      </g>
     </g>
    </g>
    <g id="xtick_3">
     <g id="line2d_3">
      <g>
       <use style="stroke:#000000;stroke-width:0.8;" x="615.175066" xlink:href="#m2ebca6b468" y="586.86358"/>
      </g>
     </g>
     <g id="text_3">
      <!-- 400 -->
      <g transform="translate(605.631316 601.462017)scale(0.1 -0.1)">
       <defs>
        <path d="M 2419 4116 
L 825 1625 
L 2419 1625 
L 2419 4116 
z
M 2253 4666 
L 3047 4666 
L 3047 1625 
L 3713 1625 
L 3713 1100 
L 3047 1100 
L 3047 0 
L 2419 0 
L 2419 1100 
L 313 1100 
L 313 1709 
L 2253 4666 
z
" id="DejaVuSans-34" transform="scale(0.015625)"/>
       </defs>
       <use xlink:href="#DejaVuSans-34"/>
       <use x="63.623047" xlink:href="#DejaVuSans-30"/>
       <use x="127.246094" xlink:href="#DejaVuSans-30"/>
      </g>
     </g>
    </g>
    <g id="xtick_4">
     <g id="line2d_4">
      <g>
       <use style="stroke:#000000;stroke-width:0.8;" x="862.82652" xlink:href="#m2ebca6b468" y="586.86358"/>
      </g>
     </g>
     <g id="text_4">
      <!-- 600 -->
      <g transform="translate(853.28277 601.462017)scale(0.1 -0.1)">
       <defs>
        <path d="M 2113 2584 
Q 1688 2584 1439 2293 
Q 1191 2003 1191 1497 
Q 1191 994 1439 701 
Q 1688 409 2113 409 
Q 2538 409 2786 701 
Q 3034 994 3034 1497 
Q 3034 2003 2786 2293 
Q 2538 2584 2113 2584 
z
M 3366 4563 
L 3366 3988 
Q 3128 4100 2886 4159 
Q 2644 4219 2406 4219 
Q 1781 4219 1451 3797 
Q 1122 3375 1075 2522 
Q 1259 2794 1537 2939 
Q 1816 3084 2150 3084 
Q 2853 3084 3261 2657 
Q 3669 2231 3669 1497 
Q 3669 778 3244 343 
Q 2819 -91 2113 -91 
Q 1303 -91 875 529 
Q 447 1150 447 2328 
Q 447 3434 972 4092 
Q 1497 4750 2381 4750 
Q 2619 4750 2861 4703 
Q 3103 4656 3366 4563 
z
" id="DejaVuSans-36" transform="scale(0.015625)"/>
       </defs>
       <use xlink:href="#DejaVuSans-36"/>
       <use x="63.623047" xlink:href="#DejaVuSans-30"/>
       <use x="127.246094" xlink:href="#DejaVuSans-30"/>
      </g>
     </g>
    </g>
    <g id="xtick_5">
     <g id="line2d_5">
      <g>
       <use style="stroke:#000000;stroke-width:0.8;" x="1110.477973" xlink:href="#m2ebca6b468" y="586.86358"/>
      </g>
     </g>
     <g id="text_5">
      <!-- 800 -->
      <g transform="translate(1100.934223 601.462017)scale(0.1 -0.1)">
       <defs>
        <path d="M 2034 2216 
Q 1584 2216 1326 1975 
Q 1069 1734 1069 1313 
Q 1069 891 1326 650 
Q 1584 409 2034 409 
Q 2484 409 2743 651 
Q 3003 894 3003 1313 
Q 3003 1734 2745 1975 
Q 2488 2216 2034 2216 
z
M 1403 2484 
Q 997 2584 770 2862 
Q 544 3141 544 3541 
Q 544 4100 942 4425 
Q 1341 4750 2034 4750 
Q 2731 4750 3128 4425 
Q 3525 4100 3525 3541 
Q 3525 3141 3298 2862 
Q 3072 2584 2669 2484 
Q 3125 2378 3379 2068 
Q 3634 1759 3634 1313 
Q 3634 634 3220 271 
Q 2806 -91 2034 -91 
Q 1263 -91 848 271 
Q 434 634 434 1313 
Q 434 1759 690 2068 
Q 947 2378 1403 2484 
z
M 1172 3481 
Q 1172 3119 1398 2916 
Q 1625 2713 2034 2713 
Q 2441 2713 2670 2916 
Q 2900 3119 2900 3481 
Q 2900 3844 2670 4047 
Q 2441 4250 2034 4250 
Q 1625 4250 1398 4047 
Q 1172 3844 1172 3481 
z
" id="DejaVuSans-38" transform="scale(0.015625)"/>
       </defs>
       <use xlink:href="#DejaVuSans-38"/>
       <use x="63.623047" xlink:href="#DejaVuSans-30"/>
       <use x="127.246094" xlink:href="#DejaVuSans-30"/>
      </g>
     </g>
    </g>
    <g id="xtick_6">
     <g id="line2d_6">
      <g>
       <use style="stroke:#000000;stroke-width:0.8;" x="1358.129427" xlink:href="#m2ebca6b468" y="586.86358"/>
      </g>
     </g>
     <g id="text_6">
      <!-- 1000 -->
      <g transform="translate(1345.404427 601.462017)scale(0.1 -0.1)">
       <defs>
        <path d="M 794 531 
L 1825 531 
L 1825 4091 
L 703 3866 
L 703 4441 
L 1819 4666 
L 2450 4666 
L 2450 531 
L 3481 531 
L 3481 0 
L 794 0 
L 794 531 
z
" id="DejaVuSans-31" transform="scale(0.015625)"/>
       </defs>
       <use xlink:href="#DejaVuSans-31"/>
       <use x="63.623047" xlink:href="#DejaVuSans-30"/>
       <use x="127.246094" xlink:href="#DejaVuSans-30"/>
       <use x="190.869141" xlink:href="#DejaVuSans-30"/>
      </g>
     </g>
    </g>
    <g id="xtick_7">
     <g id="line2d_7">
      <g>
       <use style="stroke:#000000;stroke-width:0.8;" x="1605.78088" xlink:href="#m2ebca6b468" y="586.86358"/>
      </g>
     </g>
     <g id="text_7">
      <!-- 1200 -->
      <g transform="translate(1593.05588 601.462017)scale(0.1 -0.1)">
       <use xlink:href="#DejaVuSans-31"/>
       <use x="63.623047" xlink:href="#DejaVuSans-32"/>
       <use x="127.246094" xlink:href="#DejaVuSans-30"/>
       <use x="190.869141" xlink:href="#DejaVuSans-30"/>
      </g>
     </g>
    </g>
    <g id="text_8">
     <!-- frame -->
     <g transform="translate(865.954687 615.140142)scale(0.1 -0.1)">
      <defs>
       <path d="M 2375 4863 
L 2375 4384 
L 1825 4384 
Q 1516 4384 1395 4259 
Q 1275 4134 1275 3809 
L 1275 3500 
L 2222 3500 
L 2222 3053 
L 1275 3053 
L 1275 0 
L 697 0 
L 697 3053 
L 147 3053 
L 147 3500 
L 697 3500 
L 697 3744 
Q 697 4328 969 4595 
Q 1241 4863 1831 4863 
L 2375 4863 
z
" id="DejaVuSans-66" transform="scale(0.015625)"/>
       <path d="M 2631 2963 
Q 2534 3019 2420 3045 
Q 2306 3072 2169 3072 
Q 1681 3072 1420 2755 
Q 1159 2438 1159 1844 
L 1159 0 
L 581 0 
L 581 3500 
L 1159 3500 
L 1159 2956 
Q 1341 3275 1631 3429 
Q 1922 3584 2338 3584 
Q 2397 3584 2469 3576 
Q 2541 3569 2628 3553 
L 2631 2963 
z
" id="DejaVuSans-72" transform="scale(0.015625)"/>
       <path d="M 2194 1759 
Q 1497 1759 1228 1600 
Q 959 1441 959 1056 
Q 959 750 1161 570 
Q 1363 391 1709 391 
Q 2188 391 2477 730 
Q 2766 1069 2766 1631 
L 2766 1759 
L 2194 1759 
z
M 3341 1997 
L 3341 0 
L 2766 0 
L 2766 531 
Q 2569 213 2275 61 
Q 1981 -91 1556 -91 
Q 1019 -91 701 211 
Q 384 513 384 1019 
Q 384 1609 779 1909 
Q 1175 2209 1959 2209 
L 2766 2209 
L 2766 2266 
Q 2766 2663 2505 2880 
Q 2244 3097 1772 3097 
Q 1472 3097 1187 3025 
Q 903 2953 641 2809 
L 641 3341 
Q 956 3463 1253 3523 
Q 1550 3584 1831 3584 
Q 2591 3584 2966 3190 
Q 3341 2797 3341 1997 
z
" id="DejaVuSans-61" transform="scale(0.015625)"/>
       <path d="M 3328 2828 
Q 3544 3216 3844 3400 
Q 4144 3584 4550 3584 
Q 5097 3584 5394 3201 
Q 5691 2819 5691 2113 
L 5691 0 
L 5113 0 
L 5113 2094 
Q 5113 2597 4934 2840 
Q 4756 3084 4391 3084 
Q 3944 3084 3684 2787 
Q 3425 2491 3425 1978 
L 3425 0 
L 2847 0 
L 2847 2094 
Q 2847 2600 2669 2842 
Q 2491 3084 2119 3084 
Q 1678 3084 1418 2786 
Q 1159 2488 1159 1978 
L 1159 0 
L 581 0 
L 581 3500 
L 1159 3500 
L 1159 2956 
Q 1356 3278 1631 3431 
Q 1906 3584 2284 3584 
Q 2666 3584 2933 3390 
Q 3200 3197 3328 2828 
z
" id="DejaVuSans-6d" transform="scale(0.015625)"/>
       <path d="M 3597 1894 
L 3597 1613 
L 953 1613 
Q 991 1019 1311 708 
Q 1631 397 2203 397 
Q 2534 397 2845 478 
Q 3156 559 3463 722 
L 3463 178 
Q 3153 47 2828 -22 
Q 2503 -91 2169 -91 
Q 1331 -91 842 396 
Q 353 884 353 1716 
Q 353 2575 817 3079 
Q 1281 3584 2069 3584 
Q 2775 3584 3186 3129 
Q 3597 2675 3597 1894 
z
M 3022 2063 
Q 3016 2534 2758 2815 
Q 2500 3097 2075 3097 
Q 1594 3097 1305 2825 
Q 1016 2553 972 2059 
L 3022 2063 
z
" id="DejaVuSans-65" transform="scale(0.015625)"/>
      </defs>
      <use xlink:href="#DejaVuSans-66"/>
      <use x="35.205078" xlink:href="#DejaVuSans-72"/>
      <use x="76.318359" xlink:href="#DejaVuSans-61"/>
      <use x="137.597656" xlink:href="#DejaVuSans-6d"/>
      <use x="235.009766" xlink:href="#DejaVuSans-65"/>
     </g>
    </g>
   </g>
   <g id="matplotlib.axis_2">
    <g id="ytick_1">
     <g id="line2d_8">
      <defs>
       <path d="M 0 0 
L -3.5 0 
" id="mbd8239d17d" style="stroke:#000000;stroke-width:0.8;"/>
      </defs>
      <g>
       <use style="stroke:#000000;stroke-width:0.8;" x="43.78125" xlink:href="#mbd8239d17d" y="534.06043"/>
      </g>
     </g>
     <g id="text_9">
      <!-- 4 -->
      <g transform="translate(30.41875 537.859649)scale(0.1 -0.1)">
       <use xlink:href="#DejaVuSans-34"/>
      </g>
     </g>
    </g>
    <g id="ytick_2">
     <g id="line2d_9">
      <g>
       <use style="stroke:#000000;stroke-width:0.8;" x="43.78125" xlink:href="#mbd8239d17d" y="409.301997"/>
      </g>
     </g>
     <g id="text_10">
      <!-- 6 -->
      <g transform="translate(30.41875 413.101216)scale(0.1 -0.1)">
       <use xlink:href="#DejaVuSans-36"/>
      </g>
     </g>
    </g>
    <g id="ytick_3">
     <g id="line2d_10">
      <g>
       <use style="stroke:#000000;stroke-width:0.8;" x="43.78125" xlink:href="#mbd8239d17d" y="284.543565"/>
      </g>
     </g>
     <g id="text_11">
      <!-- 8 -->
      <g transform="translate(30.41875 288.342783)scale(0.1 -0.1)">
       <use xlink:href="#DejaVuSans-38"/>
      </g>
     </g>
    </g>
    <g id="ytick_4">
     <g id="line2d_11">
      <g>
       <use style="stroke:#000000;stroke-width:0.8;" x="43.78125" xlink:href="#mbd8239d17d" y="159.785132"/>
      </g>
     </g>
     <g id="text_12">
      <!-- 10 -->
      <g transform="translate(24.05625 163.584351)scale(0.1 -0.1)">
       <use xlink:href="#DejaVuSans-31"/>
       <use x="63.623047" xlink:href="#DejaVuSans-30"/>
      </g>
     </g>
    </g>
    <g id="ytick_5">
     <g id="line2d_12">
      <g>
       <use style="stroke:#000000;stroke-width:0.8;" x="43.78125" xlink:href="#mbd8239d17d" y="35.026699"/>
      </g>
     </g>
     <g id="text_13">
      <!-- 12 -->
      <g transform="translate(24.05625 38.825918)scale(0.1 -0.1)">
       <use xlink:href="#DejaVuSans-31"/>
       <use x="63.623047" xlink:href="#DejaVuSans-32"/>
      </g>
     </g>
    </g>
    <g id="text_14">
     <!-- GCaMP -->
     <g transform="translate(17.976562 322.349446)rotate(-90)scale(0.1 -0.1)">
      <defs>
       <path d="M 3809 666 
L 3809 1919 
L 2778 1919 
L 2778 2438 
L 4434 2438 
L 4434 434 
Q 4069 175 3628 42 
Q 3188 -91 2688 -91 
Q 1594 -91 976 548 
Q 359 1188 359 2328 
Q 359 3472 976 4111 
Q 1594 4750 2688 4750 
Q 3144 4750 3555 4637 
Q 3966 4525 4313 4306 
L 4313 3634 
Q 3963 3931 3569 4081 
Q 3175 4231 2741 4231 
Q 1884 4231 1454 3753 
Q 1025 3275 1025 2328 
Q 1025 1384 1454 906 
Q 1884 428 2741 428 
Q 3075 428 3337 486 
Q 3600 544 3809 666 
z
" id="DejaVuSans-47" transform="scale(0.015625)"/>
       <path d="M 4122 4306 
L 4122 3641 
Q 3803 3938 3442 4084 
Q 3081 4231 2675 4231 
Q 1875 4231 1450 3742 
Q 1025 3253 1025 2328 
Q 1025 1406 1450 917 
Q 1875 428 2675 428 
Q 3081 428 3442 575 
Q 3803 722 4122 1019 
L 4122 359 
Q 3791 134 3420 21 
Q 3050 -91 2638 -91 
Q 1578 -91 968 557 
Q 359 1206 359 2328 
Q 359 3453 968 4101 
Q 1578 4750 2638 4750 
Q 3056 4750 3426 4639 
Q 3797 4528 4122 4306 
z
" id="DejaVuSans-43" transform="scale(0.015625)"/>
       <path d="M 628 4666 
L 1569 4666 
L 2759 1491 
L 3956 4666 
L 4897 4666 
L 4897 0 
L 4281 0 
L 4281 4097 
L 3078 897 
L 2444 897 
L 1241 4097 
L 1241 0 
L 628 0 
L 628 4666 
z
" id="DejaVuSans-4d" transform="scale(0.015625)"/>
       <path d="M 1259 4147 
L 1259 2394 
L 2053 2394 
Q 2494 2394 2734 2622 
Q 2975 2850 2975 3272 
Q 2975 3691 2734 3919 
Q 2494 4147 2053 4147 
L 1259 4147 
z
M 628 4666 
L 2053 4666 
Q 2838 4666 3239 4311 
Q 3641 3956 3641 3272 
Q 3641 2581 3239 2228 
Q 2838 1875 2053 1875 
L 1259 1875 
L 1259 0 
L 628 0 
L 628 4666 
z
" id="DejaVuSans-50" transform="scale(0.015625)"/>
      </defs>
      <use xlink:href="#DejaVuSans-47"/>
      <use x="77.490234" xlink:href="#DejaVuSans-43"/>
      <use x="147.314453" xlink:href="#DejaVuSans-61"/>
      <use x="208.59375" xlink:href="#DejaVuSans-4d"/>
      <use x="294.873047" xlink:href="#DejaVuSans-50"/>
     </g>
    </g>
   </g>
   <g id="line2d_13">
    <path clip-path="url(#p750d271bd1)" d="M 119.872159 164.001813 
L 121.110416 174.551517 
L 122.348674 181.869487 
L 123.586931 184.355995 
L 124.825188 182.425778 
L 126.063445 177.712129 
L 127.301703 172.222789 
L 128.53996 168.13313 
L 129.778217 167.514374 
L 131.016474 171.690096 
L 132.254732 180.931261 
L 135.969504 219.989009 
L 137.207761 229.806509 
L 138.446018 237.379295 
L 139.684275 242.98913 
L 140.922533 247.127739 
L 142.16079 250.721685 
L 143.399047 255.089561 
L 144.637304 260.913635 
L 147.113819 273.314768 
L 149.590334 283.843684 
L 150.828591 289.833306 
L 153.305105 302.911511 
L 154.543363 308.47599 
L 155.78162 313.025933 
L 158.258134 320.936883 
L 159.496392 326.469729 
L 160.734649 334.397804 
L 161.972906 344.597559 
L 164.449421 367.486702 
L 165.687678 377.821726 
L 166.925935 386.400336 
L 168.164193 392.274645 
L 169.40245 394.475373 
L 170.640707 392.870088 
L 171.878964 388.288757 
L 174.355479 375.760913 
L 175.593736 371.087016 
L 176.831993 368.727142 
L 178.070251 368.180697 
L 179.308508 368.743356 
L 180.546765 370.28162 
L 181.785022 373.147055 
L 183.02328 377.542727 
L 184.261537 382.773813 
L 185.499794 387.318648 
L 186.738052 389.838079 
L 187.976309 389.841094 
L 190.452823 385.759107 
L 191.691081 385.351678 
L 192.929338 387.09202 
L 194.167595 390.286185 
L 195.405852 394.637283 
L 196.64411 400.23878 
L 197.882367 406.422926 
L 199.120624 411.168075 
L 200.358881 411.61652 
L 201.597139 405.984469 
L 202.835396 395.227051 
L 204.073653 382.721519 
L 205.311911 373.033004 
L 206.550168 369.70612 
L 207.788425 372.707787 
L 210.26494 384.680552 
L 211.503197 388.685225 
L 213.979711 393.997812 
L 215.217969 396.26148 
L 216.456226 397.282597 
L 217.694483 397.035921 
L 218.93274 396.930674 
L 220.170998 398.456971 
L 221.409255 402.161536 
L 222.647512 408.031661 
L 225.124027 423.398823 
L 226.362284 429.704375 
L 227.600541 434.148183 
L 228.838799 437.601293 
L 230.077056 440.464012 
L 231.315313 442.194221 
L 232.55357 442.361774 
L 233.791828 441.121256 
L 235.030085 438.858015 
L 236.268342 436.164755 
L 237.5066 433.791096 
L 238.744857 432.174296 
L 241.221371 429.943001 
L 243.697886 426.384232 
L 244.936143 426.046776 
L 246.1744 428.421713 
L 247.412658 434.19449 
L 248.650915 442.790635 
L 249.889172 452.23437 
L 251.127429 460.076832 
L 252.365687 464.49018 
L 253.603944 464.640717 
L 254.842201 460.745449 
L 257.318716 448.683323 
L 258.556973 446.028612 
L 259.79523 447.539169 
L 261.033488 452.336412 
L 262.271745 458.253887 
L 263.510002 463.222907 
L 264.748259 466.125456 
L 265.986517 466.654907 
L 267.224774 465.079191 
L 269.701288 459.422107 
L 270.939546 457.328245 
L 274.654318 452.38543 
L 275.892575 451.873143 
L 277.130832 452.40622 
L 278.369089 453.712687 
L 279.607347 455.645803 
L 280.845604 458.128267 
L 282.083861 461.296911 
L 283.322118 465.53006 
L 285.798633 476.079875 
L 287.03689 480.672371 
L 288.275147 484.524679 
L 289.513405 487.928597 
L 290.751662 490.729772 
L 291.989919 492.460213 
L 293.228177 492.98976 
L 294.466434 492.689399 
L 295.704691 492.15499 
L 296.942948 492.343229 
L 298.181206 494.475589 
L 299.419463 499.058205 
L 301.895977 511.836393 
L 303.134235 516.713307 
L 304.372492 518.436527 
L 305.610749 516.605285 
L 309.325521 504.178388 
L 310.563778 501.828433 
L 311.802036 500.291371 
L 313.040293 499.151168 
L 314.27855 498.237344 
L 315.516807 497.778736 
L 316.755065 498.002468 
L 317.993322 498.619952 
L 319.231579 499.015166 
L 320.469836 498.726609 
L 321.708094 497.712089 
L 325.422866 493.656517 
L 326.661123 492.421337 
L 327.89938 491.553737 
L 329.137637 491.443163 
L 330.375895 492.20744 
L 331.614152 493.675056 
L 334.090666 497.257512 
L 335.328924 498.473379 
L 336.567181 498.902424 
L 337.805438 498.620813 
L 339.043695 497.955427 
L 340.281953 497.426323 
L 341.52021 497.527131 
L 342.758467 498.210899 
L 345.234982 500.066518 
L 346.473239 501.086253 
L 347.711496 501.75812 
L 348.949754 501.622861 
L 350.188011 500.830575 
L 351.426268 500.370481 
L 352.664525 501.251828 
L 355.14104 505.773449 
L 356.379297 506.773806 
L 357.617554 505.843285 
L 358.855812 503.437591 
L 360.094069 500.487225 
L 361.332326 497.960443 
L 362.570584 496.861301 
L 363.808841 497.994078 
L 365.047098 501.458276 
L 368.76187 516.72505 
L 370.000127 519.632039 
L 371.238384 520.683503 
L 372.476642 520.464044 
L 373.714899 519.56505 
L 376.191413 517.134985 
L 377.429671 515.633521 
L 378.667928 513.414828 
L 382.3827 504.642044 
L 383.620957 503.033213 
L 384.859214 503.045476 
L 387.335729 505.573197 
L 388.573986 505.456727 
L 389.812243 503.604124 
L 391.050501 501.027438 
L 392.288758 499.445633 
L 393.527015 500.136926 
L 396.00353 505.928368 
L 397.241787 506.441517 
L 398.480044 502.78554 
L 399.718302 495.120449 
L 403.433073 464.358786 
L 404.671331 457.934564 
L 405.909588 454.759869 
L 408.386102 451.569286 
L 409.62436 448.76127 
L 410.862617 443.987496 
L 412.100874 436.440368 
L 413.339132 426.389926 
L 417.053903 393.238391 
L 418.292161 385.519664 
L 419.530418 383.020585 
L 420.768675 386.627482 
L 422.006932 394.843292 
L 424.483447 414.875881 
L 425.721704 422.925946 
L 426.959961 428.804091 
L 428.198219 432.480547 
L 429.436476 433.757185 
L 430.674733 432.732139 
L 433.151248 427.929792 
L 434.389505 426.168381 
L 435.627762 425.165807 
L 436.86602 425.149163 
L 438.104277 427.233862 
L 439.342534 432.544705 
L 443.057306 456.041289 
L 444.295563 461.391463 
L 445.53382 464.209698 
L 446.772078 464.207658 
L 448.010335 461.859519 
L 450.48685 454.451242 
L 451.725107 451.860972 
L 452.963364 450.812703 
L 454.201621 450.918681 
L 456.678136 452.145915 
L 457.916393 453.073178 
L 459.15465 454.840726 
L 460.392908 457.569452 
L 461.631165 460.66142 
L 462.869422 463.414266 
L 464.107679 465.410799 
L 465.345937 466.425711 
L 466.584194 466.400522 
L 467.822451 465.564912 
L 469.060709 464.54436 
L 470.298966 463.963204 
L 471.537223 463.835121 
L 472.77548 463.482252 
L 474.013738 462.242669 
L 475.251995 460.53866 
L 476.490252 459.561515 
L 477.728509 459.75599 
L 478.966767 460.608112 
L 481.443281 462.824741 
L 482.681538 463.95731 
L 485.158053 466.002793 
L 486.39631 467.664827 
L 487.634568 470.062039 
L 490.111082 475.707792 
L 491.349339 477.737267 
L 492.587597 479.154794 
L 493.825854 480.807728 
L 495.064111 483.344676 
L 496.302368 486.819969 
L 497.540626 491.150512 
L 498.778883 496.295433 
L 501.255397 507.670362 
L 502.493655 512.098388 
L 503.731912 513.920219 
L 504.970169 512.602777 
L 506.208427 508.947996 
L 508.684941 499.546523 
L 509.923198 495.452427 
L 511.161456 492.824511 
L 512.399713 492.079535 
L 513.63797 492.561355 
L 514.876227 492.908733 
L 516.114485 492.309665 
L 517.352742 491.017059 
L 519.829257 487.759946 
L 521.067514 486.053927 
L 522.305771 485.005454 
L 523.544028 485.59929 
L 524.782286 488.06402 
L 526.020543 491.221032 
L 527.2588 493.623934 
L 528.497057 494.767433 
L 529.735315 494.947869 
L 530.973572 494.573621 
L 532.211829 493.811309 
L 533.450086 492.674011 
L 537.164858 488.363468 
L 538.403116 488.588771 
L 539.641373 490.684823 
L 542.117887 496.970795 
L 543.356145 498.815425 
L 544.594402 499.602783 
L 545.832659 499.779317 
L 547.070916 500.072962 
L 548.309174 501.511254 
L 550.785688 507.28866 
L 552.023945 509.041997 
L 553.262203 509.321895 
L 554.50046 508.987188 
L 555.738717 509.102724 
L 558.215232 510.801015 
L 559.453489 511.202526 
L 560.691746 511.433996 
L 561.930004 511.977093 
L 564.406518 513.74707 
L 565.644775 514.218663 
L 566.883033 513.622203 
L 568.12129 511.83065 
L 569.359547 509.469063 
L 570.597804 507.504528 
L 571.836062 506.57279 
L 574.312576 506.485983 
L 575.550834 505.981298 
L 576.789091 504.805005 
L 578.027348 503.094498 
L 579.265605 500.970926 
L 581.74212 496.384812 
L 582.980377 494.857882 
L 584.218634 494.594512 
L 585.456892 496.240965 
L 586.695149 500.107752 
L 589.171663 511.252796 
L 590.409921 515.965598 
L 591.648178 519.36685 
L 595.36295 526.933386 
L 597.839464 533.101937 
L 599.077722 535.158731 
L 600.315979 536.088098 
L 601.554236 536.505401 
L 602.792493 537.127515 
L 604.030751 537.883312 
L 605.269008 538.265127 
L 606.507265 538.084856 
L 607.745523 537.268207 
L 608.98378 535.534014 
L 610.222037 532.762827 
L 611.460294 529.154571 
L 613.936809 520.905927 
L 615.175066 517.61213 
L 616.413323 516.09255 
L 617.651581 516.662102 
L 618.889838 518.823058 
L 620.128095 522.061199 
L 621.366352 526.212375 
L 623.842867 535.408669 
L 625.081124 538.84144 
L 626.319382 540.863188 
L 627.557639 541.561806 
L 630.034153 541.190384 
L 631.272411 541.848457 
L 632.510668 543.632151 
L 633.748925 545.834611 
L 634.987182 547.608061 
L 636.22544 548.768654 
L 638.701954 550.396371 
L 639.940211 550.91086 
L 641.178469 550.578714 
L 642.416726 549.276766 
L 643.654983 547.777686 
L 644.893241 546.870403 
L 646.131498 546.554941 
L 647.369755 546.522104 
L 648.608012 546.820803 
L 649.84627 547.748356 
L 651.084527 549.414454 
L 652.322784 551.691246 
L 656.037556 559.752447 
L 657.275813 560.301678 
L 658.51407 559.030613 
L 662.228842 552.589461 
L 663.4671 551.230667 
L 664.705357 550.74769 
L 665.943614 551.435423 
L 668.420129 554.463682 
L 669.658386 554.925273 
L 670.896643 554.206551 
L 672.1349 552.154464 
L 673.373158 548.518644 
L 674.611415 543.787638 
L 675.849672 539.518574 
L 677.087929 537.266477 
L 678.326187 537.097728 
L 682.040959 539.057403 
L 683.279216 540.753922 
L 684.517473 543.275717 
L 686.993988 548.633931 
L 688.232245 550.575342 
L 689.470502 551.27956 
L 690.708759 550.539973 
L 691.947017 549.409029 
L 693.185274 549.661838 
L 694.423531 552.193713 
L 696.900046 559.939633 
L 698.138303 561.202423 
L 699.37656 558.951452 
L 700.614818 553.777139 
L 701.853075 547.498188 
L 703.091332 542.006377 
L 704.329589 538.458697 
L 705.567847 536.952705 
L 706.806104 536.452332 
L 708.044361 535.44066 
L 710.520876 531.373676 
L 711.759133 530.875035 
L 712.99739 532.23033 
L 715.473905 536.955941 
L 716.712162 537.82756 
L 717.950419 536.482582 
L 719.188677 532.857257 
L 720.426934 527.474474 
L 721.665191 520.991317 
L 722.903448 513.686978 
L 725.379963 496.513651 
L 726.61822 487.964053 
L 731.571249 458.307339 
L 734.047764 444.514901 
L 735.286021 438.122344 
L 736.524278 433.384684 
L 737.762536 432.266769 
L 739.000793 435.275522 
L 743.953822 456.849593 
L 745.192079 462.096874 
L 746.430336 466.825438 
L 747.668594 469.526993 
L 748.906851 469.376557 
L 750.145108 467.018593 
L 751.383366 464.054923 
L 752.621623 462.223032 
L 753.85988 462.220878 
L 755.098137 463.308271 
L 756.336395 464.670666 
L 757.574652 466.281599 
L 760.051166 469.991524 
L 761.289424 471.306154 
L 762.527681 471.811739 
L 763.765938 471.615756 
L 765.004195 471.582902 
L 766.242453 472.945292 
L 767.48071 476.000124 
L 768.718967 479.663463 
L 769.957225 482.850202 
L 773.671996 490.96072 
L 774.910254 494.459897 
L 776.148511 499.204225 
L 777.386768 505.584038 
L 778.625025 512.94455 
L 779.863283 519.61405 
L 781.10154 524.079609 
L 782.339797 526.000109 
L 783.578054 526.043973 
L 784.816312 525.09651 
L 786.054569 523.582746 
L 788.531084 519.872877 
L 789.769341 519.338185 
L 791.007598 520.556801 
L 792.245855 523.386112 
L 793.484113 526.86146 
L 794.72237 529.28279 
L 795.960627 529.498185 
L 798.437142 526.580749 
L 799.675399 525.708345 
L 800.913656 525.476179 
L 802.151914 525.776333 
L 803.390171 526.642476 
L 804.628428 528.28881 
L 805.866685 530.80521 
L 809.581457 540.086797 
L 810.819714 543.260356 
L 812.057972 545.746253 
L 813.296229 546.620847 
L 814.534486 545.448893 
L 815.772743 542.485289 
L 817.011001 538.914614 
L 818.249258 536.482767 
L 819.487515 536.315619 
L 820.725773 538.059581 
L 821.96403 540.249941 
L 823.202287 541.518533 
L 824.440544 541.342906 
L 825.678802 539.975162 
L 826.917059 538.077308 
L 828.155316 536.467434 
L 829.393573 535.973817 
L 830.631831 536.922094 
L 831.870088 538.539656 
L 833.108345 539.535488 
L 834.346602 539.493238 
L 836.823117 538.483876 
L 838.061374 537.536398 
L 839.299632 535.997852 
L 840.537889 534.761969 
L 841.776146 535.029021 
L 843.014403 537.013007 
L 846.729175 545.872571 
L 847.967432 547.336289 
L 849.20569 547.230784 
L 850.443947 546.177957 
L 851.682204 545.271309 
L 852.920461 545.301395 
L 854.158719 546.639695 
L 855.396976 549.206688 
L 856.635233 552.22632 
L 857.873491 554.461835 
L 859.111748 555.0882 
L 860.350005 554.318282 
L 864.064777 550.352725 
L 865.303034 549.425074 
L 866.541291 549.103065 
L 867.779549 549.449663 
L 870.256063 551.090357 
L 871.49432 551.485295 
L 872.732578 551.067414 
L 873.970835 550.088041 
L 875.209092 549.532533 
L 876.44735 550.13707 
L 877.685607 551.38318 
L 878.923864 551.886416 
L 880.162121 550.72491 
L 881.400379 548.266686 
L 883.876893 542.727726 
L 885.11515 540.369694 
L 886.353408 538.98848 
L 887.591665 538.86253 
L 888.829922 539.244038 
L 890.06818 539.017754 
L 891.306437 537.89048 
L 892.544694 536.453686 
L 893.782951 535.257136 
L 895.021209 534.435655 
L 896.259466 534.380566 
L 897.497723 535.887481 
L 899.974238 542.16138 
L 901.212495 544.158747 
L 902.450752 544.446421 
L 903.689009 543.257346 
L 906.165524 539.650101 
L 907.403781 538.451571 
L 908.642039 537.578981 
L 909.880296 537.049282 
L 911.118553 537.105541 
L 913.595068 538.214213 
L 916.071582 537.943435 
L 917.309839 538.775923 
L 919.786354 543.058618 
L 921.024611 544.277786 
L 922.262868 544.023172 
L 923.501126 542.970612 
L 924.739383 542.249461 
L 925.97764 542.493346 
L 927.215898 543.593932 
L 928.454155 544.882169 
L 929.692412 545.297752 
L 930.930669 543.909093 
L 932.168927 540.720676 
L 933.407184 536.857786 
L 934.645441 533.904547 
L 935.883698 533.310135 
L 937.121956 535.959637 
L 938.360213 541.455694 
L 939.59847 547.99255 
L 940.836727 553.444097 
L 942.074985 556.618469 
L 943.313242 557.555483 
L 944.551499 556.915516 
L 945.789757 555.389024 
L 947.028014 553.63562 
L 948.266271 552.260515 
L 949.504528 551.571446 
L 950.742786 551.521477 
L 951.981043 551.797896 
L 953.2193 551.782517 
L 954.457557 550.658188 
L 955.695815 547.863899 
L 956.934072 543.456126 
L 958.172329 537.908916 
L 960.648844 525.692196 
L 961.887101 520.802533 
L 963.125358 517.45357 
L 964.363616 514.786626 
L 965.601873 511.533925 
L 966.84013 506.766038 
L 968.078387 500.142821 
L 970.554902 484.623806 
L 973.031416 470.99279 
L 974.269674 463.005769 
L 975.507931 453.271931 
L 977.984446 432.252214 
L 980.46096 414.961411 
L 981.699217 407.428408 
L 982.937475 401.921584 
L 984.175732 399.873327 
L 985.413989 401.812549 
L 986.652246 407.451242 
L 987.890504 415.761004 
L 990.367018 434.590486 
L 991.605275 442.776137 
L 992.843533 449.248556 
L 994.08179 453.48066 
L 995.320047 455.165734 
L 996.558305 454.903389 
L 997.796562 453.986437 
L 999.034819 453.263111 
L 1000.273076 452.674492 
L 1005.226105 449.688894 
L 1006.464363 447.812343 
L 1007.70262 443.573553 
L 1008.940877 435.831585 
L 1010.179134 424.354263 
L 1012.655649 397.340902 
L 1013.893906 387.174978 
L 1015.132164 380.726075 
L 1016.370421 376.45644 
L 1018.846935 369.162051 
L 1020.085193 365.782599 
L 1021.32345 361.904729 
L 1022.561707 356.655225 
L 1023.799964 350.423862 
L 1025.038222 344.807092 
L 1026.276479 340.892058 
L 1027.514736 338.055646 
L 1028.752993 334.369066 
L 1029.991251 328.082496 
L 1031.229508 318.499494 
L 1032.467765 305.371273 
L 1033.706023 288.332794 
L 1034.94428 267.61568 
L 1038.659052 201.113695 
L 1041.135566 155.464684 
L 1044.850338 82.500427 
L 1046.088595 63.265578 
L 1047.326852 50.892843 
L 1048.56511 47.979282 
L 1049.803367 54.516385 
L 1051.041624 67.285392 
L 1053.518139 96.013186 
L 1054.756396 109.748469 
L 1055.994653 124.739657 
L 1058.471168 158.469493 
L 1059.709425 171.700587 
L 1060.947682 180.024175 
L 1062.18594 185.10162 
L 1064.662454 193.201945 
L 1065.900711 198.130037 
L 1067.138969 206.003733 
L 1068.377226 218.98625 
L 1069.615483 237.063926 
L 1072.091998 278.231214 
L 1073.330255 295.710858 
L 1074.568512 308.758421 
L 1075.80677 316.928547 
L 1077.045027 320.837141 
L 1078.283284 321.76307 
L 1079.521541 321.867305 
L 1080.759799 323.893086 
L 1081.998056 329.301649 
L 1083.236313 337.362396 
L 1085.712828 354.49698 
L 1086.951085 360.419848 
L 1088.189342 363.102358 
L 1089.4276 362.317004 
L 1090.665857 358.323228 
L 1091.904114 351.843847 
L 1093.142371 344.458384 
L 1094.380629 338.167103 
L 1095.618886 334.0654 
L 1096.857143 331.398743 
L 1098.0954 327.88407 
L 1099.333658 321.103397 
L 1100.571915 309.81515 
L 1101.810172 294.540397 
L 1104.286687 261.16524 
L 1105.524944 247.626548 
L 1106.763201 237.552319 
L 1108.001459 231.149135 
L 1109.239716 228.218233 
L 1110.477973 227.738098 
L 1111.71623 227.821066 
L 1112.954488 226.409166 
L 1114.192745 222.059583 
L 1115.431002 214.097177 
L 1119.145774 181.959157 
L 1120.384031 175.617134 
L 1122.860546 167.862018 
L 1124.098803 161.748989 
L 1125.33706 151.458498 
L 1127.813575 123.140686 
L 1129.051832 112.88438 
L 1130.290089 109.779105 
L 1131.528347 113.317253 
L 1134.004861 126.87295 
L 1135.243118 130.974453 
L 1136.481376 131.577044 
L 1137.719633 129.093851 
L 1140.196148 121.250379 
L 1141.434405 119.147585 
L 1142.672662 119.203006 
L 1143.910919 120.700615 
L 1145.149177 122.962769 
L 1146.387434 126.401467 
L 1147.625691 132.340887 
L 1148.863948 142.367672 
L 1150.102206 157.406974 
L 1153.816977 214.672256 
L 1155.055235 225.339849 
L 1156.293492 227.525876 
L 1157.531749 222.520513 
L 1158.770007 212.322299 
L 1160.008264 198.187583 
L 1161.246521 182.587335 
L 1162.484778 170.067232 
L 1163.723036 164.232722 
L 1164.961293 165.06384 
L 1166.19955 169.303503 
L 1167.437807 172.672994 
L 1168.676065 172.606575 
L 1169.914322 169.997066 
L 1171.152579 168.2103 
L 1172.390837 169.461156 
L 1173.629094 172.571517 
L 1174.867351 175.072678 
L 1176.105608 175.609573 
L 1177.343866 173.585963 
L 1178.582123 168.691047 
L 1181.058637 155.177808 
L 1182.296895 151.008614 
L 1183.535152 149.738196 
L 1184.773409 151.570298 
L 1186.011666 157.732962 
L 1187.249924 169.121929 
L 1189.726438 200.372145 
L 1190.964696 213.307559 
L 1192.202953 221.673795 
L 1193.44121 226.300955 
L 1194.679467 228.355777 
L 1195.917725 227.605462 
L 1197.155982 223.647552 
L 1198.394239 217.988138 
L 1199.632496 213.38207 
L 1200.870754 211.191693 
L 1202.109011 210.423975 
L 1203.347268 209.207927 
L 1204.585525 206.974702 
L 1205.823783 205.408822 
L 1207.06204 207.020248 
L 1208.300297 212.967124 
L 1212.015069 240.526687 
L 1213.253326 244.868384 
L 1214.491584 245.474636 
L 1215.729841 243.430125 
L 1216.968098 239.579522 
L 1218.206355 234.470927 
L 1220.68287 223.252371 
L 1221.921127 218.170011 
L 1223.159384 214.358687 
L 1224.397642 213.141857 
L 1225.635899 214.860639 
L 1226.874156 217.741048 
L 1228.112414 219.140495 
L 1229.350671 217.925482 
L 1230.588928 215.337252 
L 1231.827185 213.821428 
L 1233.065443 215.373557 
L 1234.3037 220.261033 
L 1235.541957 226.649458 
L 1236.780214 232.237273 
L 1238.018472 236.776708 
L 1239.256729 242.165851 
L 1240.494986 250.143884 
L 1241.733243 260.767192 
L 1242.971501 272.377193 
L 1244.209758 282.533111 
L 1245.448015 290.052864 
L 1250.401044 313.726342 
L 1251.639302 317.404081 
L 1252.877559 318.974328 
L 1254.115816 318.522626 
L 1255.354073 317.029024 
L 1256.592331 315.85229 
L 1257.830588 315.966656 
L 1259.068845 318.316667 
L 1260.307103 323.487716 
L 1266.498389 359.300243 
L 1267.736646 364.426585 
L 1268.974903 366.387331 
L 1270.213161 364.929542 
L 1271.451418 361.744297 
L 1272.689675 359.506141 
L 1273.927932 359.810659 
L 1275.16619 361.725451 
L 1276.404447 362.763893 
L 1277.642704 361.4076 
L 1280.119219 355.556118 
L 1281.357476 354.111498 
L 1282.595733 354.182487 
L 1283.833991 354.854442 
L 1285.072248 354.644044 
L 1286.310505 353.372217 
L 1287.548762 352.986304 
L 1288.78702 355.496192 
L 1290.025277 360.855093 
L 1291.263534 367.126397 
L 1292.501791 371.941407 
L 1293.740049 373.938494 
L 1294.978306 373.551622 
L 1296.216563 372.055437 
L 1297.454821 369.788179 
L 1298.693078 366.127839 
L 1299.931335 360.633101 
L 1301.169592 353.43807 
L 1303.646107 337.040766 
L 1304.884364 329.714932 
L 1306.122621 323.368902 
L 1307.360879 318.495605 
L 1308.599136 316.615479 
L 1309.837393 319.25669 
L 1311.07565 326.391864 
L 1312.313908 335.710818 
L 1313.552165 343.604616 
L 1314.790422 347.425959 
L 1316.02868 346.847484 
L 1317.266937 343.083672 
L 1319.743451 332.397193 
L 1320.981709 328.254035 
L 1322.219966 325.681593 
L 1323.458223 324.767188 
L 1324.69648 325.416999 
L 1325.934738 327.334406 
L 1327.172995 330.844849 
L 1328.411252 337.024599 
L 1329.649509 346.075301 
L 1333.364281 376.798244 
L 1334.602539 385.074667 
L 1335.840796 390.576783 
L 1337.079053 393.116342 
L 1338.31731 394.595338 
L 1339.555568 396.95204 
L 1340.793825 400.540023 
L 1342.032082 405.060043 
L 1344.508597 414.779587 
L 1345.746854 418.106931 
L 1346.985111 419.566714 
L 1348.223368 419.606711 
L 1349.461626 419.786696 
L 1350.699883 421.53709 
L 1351.93814 425.053892 
L 1353.176398 429.917919 
L 1354.414655 435.891064 
L 1355.652912 442.448447 
L 1356.891169 448.028636 
L 1358.129427 450.788514 
L 1359.367684 450.475358 
L 1360.605941 448.940974 
L 1361.844198 448.6646 
L 1363.082456 450.781477 
L 1364.320713 454.103796 
L 1365.55897 456.125412 
L 1366.797228 455.242187 
L 1368.035485 451.705861 
L 1369.273742 446.288541 
L 1370.511999 438.999153 
L 1374.226771 411.341474 
L 1375.465028 404.394256 
L 1377.941543 391.766576 
L 1379.1798 385.09407 
L 1380.418057 379.366957 
L 1381.656315 376.635672 
L 1382.894572 377.524795 
L 1384.132829 379.118619 
L 1385.371087 377.338823 
L 1386.609344 370.996974 
L 1387.847601 361.760492 
L 1390.324116 339.782637 
L 1392.80063 317.229132 
L 1395.277145 297.403575 
L 1396.515402 288.685093 
L 1397.753659 281.517368 
L 1398.991916 275.887343 
L 1400.230174 271.087309 
L 1401.468431 266.895046 
L 1402.706688 263.425562 
L 1403.944946 259.615862 
L 1405.183203 253.921856 
L 1407.659717 239.464951 
L 1408.897975 233.159515 
L 1410.136232 228.655379 
L 1411.374489 227.738903 
L 1412.612746 231.706512 
L 1413.851004 239.598308 
L 1415.089261 248.539307 
L 1416.327518 255.983451 
L 1417.565775 260.995379 
L 1418.804033 263.449868 
L 1420.04229 263.299567 
L 1421.280547 261.039733 
L 1422.518805 257.649519 
L 1424.995319 249.722169 
L 1426.233576 247.70878 
L 1427.471834 250.151846 
L 1428.710091 257.769633 
L 1431.186605 277.963849 
L 1432.424863 283.936255 
L 1433.66312 285.66119 
L 1434.901377 284.212202 
L 1436.139634 281.536456 
L 1437.377892 279.510049 
L 1438.616149 278.606795 
L 1439.854406 278.189056 
L 1441.092664 278.0513 
L 1442.330921 278.52585 
L 1443.569178 279.681063 
L 1446.045693 282.658766 
L 1447.28395 283.401536 
L 1448.522207 283.70879 
L 1449.760464 284.555176 
L 1450.998722 286.360899 
L 1452.236979 288.530638 
L 1453.475236 290.281864 
L 1455.951751 292.757141 
L 1458.428265 296.521176 
L 1459.666523 297.914556 
L 1460.90478 299.543177 
L 1462.143037 302.159885 
L 1464.619552 308.676086 
L 1465.857809 311.152083 
L 1467.096066 313.278507 
L 1468.334323 316.050539 
L 1469.572581 320.136789 
L 1470.810838 325.481173 
L 1473.287353 337.584448 
L 1474.52561 344.067058 
L 1477.002124 358.192582 
L 1479.478639 370.086181 
L 1480.716896 375.445837 
L 1481.955153 378.987943 
L 1483.193411 379.140085 
L 1484.431668 376.349476 
L 1485.669925 372.782342 
L 1486.908182 370.036465 
L 1488.14644 367.868324 
L 1489.384697 365.131744 
L 1493.099469 354.251243 
L 1494.337726 352.176951 
L 1495.575983 351.198774 
L 1496.814241 351.92164 
L 1498.052498 355.084436 
L 1501.76727 370.144734 
L 1503.005527 374.130593 
L 1504.243784 377.280508 
L 1507.958556 384.746386 
L 1509.196813 387.066844 
L 1510.435071 389.069257 
L 1511.673328 390.536273 
L 1512.911585 391.643388 
L 1514.149842 393.085621 
L 1515.3881 395.450351 
L 1516.626357 398.366008 
L 1517.864614 400.390099 
L 1519.102871 400.159301 
L 1520.341129 397.679736 
L 1521.579386 394.448613 
L 1522.817643 392.617711 
L 1524.0559 393.786594 
L 1525.294158 398.039389 
L 1526.532415 403.813748 
L 1527.770672 408.833719 
L 1529.00893 411.861818 
L 1530.247187 413.310848 
L 1531.485444 413.597102 
L 1532.723701 412.002541 
L 1533.961959 407.832794 
L 1535.200216 401.441317 
L 1536.438473 393.941985 
L 1537.67673 387.23132 
L 1538.914988 383.943334 
L 1540.153245 385.763971 
L 1542.62976 396.567596 
L 1543.868017 397.611618 
L 1545.106274 394.020589 
L 1546.344531 388.918487 
L 1547.582789 386.116362 
L 1548.821046 387.289203 
L 1550.059303 391.772126 
L 1552.535818 403.635202 
L 1553.774075 407.920014 
L 1555.012332 410.486791 
L 1556.250589 411.783778 
L 1557.488847 411.892911 
L 1558.727104 410.947462 
L 1559.965361 410.389646 
L 1561.203619 412.203536 
L 1562.441876 416.987186 
L 1564.91839 430.08311 
L 1566.156648 435.283941 
L 1567.394905 438.579631 
L 1568.633162 439.541273 
L 1569.871419 438.218378 
L 1571.109677 435.427035 
L 1572.347934 432.305516 
L 1573.586191 430.246571 
L 1574.824448 430.72858 
L 1576.062706 434.460013 
L 1577.300963 441.016522 
L 1579.777478 456.888167 
L 1581.015735 462.915611 
L 1582.253992 466.776211 
L 1585.968764 474.126657 
L 1587.207021 475.390095 
L 1588.445278 474.483503 
L 1589.683536 471.260694 
L 1590.921793 466.395443 
L 1593.398307 454.971317 
L 1595.874822 441.916262 
L 1597.113079 436.505342 
L 1598.351337 432.79228 
L 1599.589594 429.523631 
L 1600.827851 424.881382 
L 1602.066108 417.881904 
L 1603.304366 407.954415 
L 1604.542623 394.505138 
L 1608.257395 344.559927 
L 1609.495652 330.849724 
L 1610.733909 319.245342 
L 1611.972166 309.970564 
L 1613.210424 303.459621 
L 1614.448681 298.930884 
L 1616.925196 290.967828 
L 1618.163453 289.349498 
L 1619.40171 292.215699 
L 1620.639967 299.274654 
L 1621.878225 307.546185 
L 1623.116482 313.778034 
L 1624.354739 316.2972 
L 1625.592996 315.332691 
L 1626.831254 312.326304 
L 1628.069511 308.484792 
L 1629.307768 303.985429 
L 1630.546026 298.463458 
L 1634.260797 278.616844 
L 1635.499055 275.2566 
L 1636.737312 274.281122 
L 1637.975569 275.766071 
L 1639.213826 280.491573 
L 1640.452084 288.487594 
L 1641.690341 298.389891 
L 1641.690341 298.389891 
" style="fill:none;stroke:#008000;stroke-linecap:square;stroke-width:1.5;"/>
   </g>
   <g id="patch_3">
    <path d="M 43.78125 586.86358 
L 43.78125 22.318125 
" style="fill:none;stroke:#000000;stroke-linecap:square;stroke-linejoin:miter;stroke-width:0.8;"/>
   </g>
   <g id="patch_4">
    <path d="M 1717.78125 586.86358 
L 1717.78125 22.318125 
" style="fill:none;stroke:#000000;stroke-linecap:square;stroke-linejoin:miter;stroke-width:0.8;"/>
   </g>
   <g id="patch_5">
    <path d="M 43.78125 586.86358 
L 1717.78125 586.86358 
" style="fill:none;stroke:#000000;stroke-linecap:square;stroke-linejoin:miter;stroke-width:0.8;"/>
   </g>
   <g id="patch_6">
    <path d="M 43.78125 22.318125 
L 1717.78125 22.318125 
" style="fill:none;stroke:#000000;stroke-linecap:square;stroke-linejoin:miter;stroke-width:0.8;"/>
   </g>
   <g id="text_15">
    <!-- before binarisation -->
    <g transform="translate(824.1825 16.318125)scale(0.12 -0.12)">
     <defs>
      <path d="M 3116 1747 
Q 3116 2381 2855 2742 
Q 2594 3103 2138 3103 
Q 1681 3103 1420 2742 
Q 1159 2381 1159 1747 
Q 1159 1113 1420 752 
Q 1681 391 2138 391 
Q 2594 391 2855 752 
Q 3116 1113 3116 1747 
z
M 1159 2969 
Q 1341 3281 1617 3432 
Q 1894 3584 2278 3584 
Q 2916 3584 3314 3078 
Q 3713 2572 3713 1747 
Q 3713 922 3314 415 
Q 2916 -91 2278 -91 
Q 1894 -91 1617 61 
Q 1341 213 1159 525 
L 1159 0 
L 581 0 
L 581 4863 
L 1159 4863 
L 1159 2969 
z
" id="DejaVuSans-62" transform="scale(0.015625)"/>
      <path d="M 1959 3097 
Q 1497 3097 1228 2736 
Q 959 2375 959 1747 
Q 959 1119 1226 758 
Q 1494 397 1959 397 
Q 2419 397 2687 759 
Q 2956 1122 2956 1747 
Q 2956 2369 2687 2733 
Q 2419 3097 1959 3097 
z
M 1959 3584 
Q 2709 3584 3137 3096 
Q 3566 2609 3566 1747 
Q 3566 888 3137 398 
Q 2709 -91 1959 -91 
Q 1206 -91 779 398 
Q 353 888 353 1747 
Q 353 2609 779 3096 
Q 1206 3584 1959 3584 
z
" id="DejaVuSans-6f" transform="scale(0.015625)"/>
      <path id="DejaVuSans-20" transform="scale(0.015625)"/>
      <path d="M 603 3500 
L 1178 3500 
L 1178 0 
L 603 0 
L 603 3500 
z
M 603 4863 
L 1178 4863 
L 1178 4134 
L 603 4134 
L 603 4863 
z
" id="DejaVuSans-69" transform="scale(0.015625)"/>
      <path d="M 3513 2113 
L 3513 0 
L 2938 0 
L 2938 2094 
Q 2938 2591 2744 2837 
Q 2550 3084 2163 3084 
Q 1697 3084 1428 2787 
Q 1159 2491 1159 1978 
L 1159 0 
L 581 0 
L 581 3500 
L 1159 3500 
L 1159 2956 
Q 1366 3272 1645 3428 
Q 1925 3584 2291 3584 
Q 2894 3584 3203 3211 
Q 3513 2838 3513 2113 
z
" id="DejaVuSans-6e" transform="scale(0.015625)"/>
      <path d="M 2834 3397 
L 2834 2853 
Q 2591 2978 2328 3040 
Q 2066 3103 1784 3103 
Q 1356 3103 1142 2972 
Q 928 2841 928 2578 
Q 928 2378 1081 2264 
Q 1234 2150 1697 2047 
L 1894 2003 
Q 2506 1872 2764 1633 
Q 3022 1394 3022 966 
Q 3022 478 2636 193 
Q 2250 -91 1575 -91 
Q 1294 -91 989 -36 
Q 684 19 347 128 
L 347 722 
Q 666 556 975 473 
Q 1284 391 1588 391 
Q 1994 391 2212 530 
Q 2431 669 2431 922 
Q 2431 1156 2273 1281 
Q 2116 1406 1581 1522 
L 1381 1569 
Q 847 1681 609 1914 
Q 372 2147 372 2553 
Q 372 3047 722 3315 
Q 1072 3584 1716 3584 
Q 2034 3584 2315 3537 
Q 2597 3491 2834 3397 
z
" id="DejaVuSans-73" transform="scale(0.015625)"/>
      <path d="M 1172 4494 
L 1172 3500 
L 2356 3500 
L 2356 3053 
L 1172 3053 
L 1172 1153 
Q 1172 725 1289 603 
Q 1406 481 1766 481 
L 2356 481 
L 2356 0 
L 1766 0 
Q 1100 0 847 248 
Q 594 497 594 1153 
L 594 3053 
L 172 3053 
L 172 3500 
L 594 3500 
L 594 4494 
L 1172 4494 
z
" id="DejaVuSans-74" transform="scale(0.015625)"/>
     </defs>
     <use xlink:href="#DejaVuSans-62"/>
     <use x="63.476562" xlink:href="#DejaVuSans-65"/>
     <use x="125" xlink:href="#DejaVuSans-66"/>
     <use x="160.205078" xlink:href="#DejaVuSans-6f"/>
     <use x="221.386719" xlink:href="#DejaVuSans-72"/>
     <use x="260.25" xlink:href="#DejaVuSans-65"/>
     <use x="321.773438" xlink:href="#DejaVuSans-20"/>
     <use x="353.560547" xlink:href="#DejaVuSans-62"/>
     <use x="417.037109" xlink:href="#DejaVuSans-69"/>
     <use x="444.820312" xlink:href="#DejaVuSans-6e"/>
     <use x="508.199219" xlink:href="#DejaVuSans-61"/>
     <use x="569.478516" xlink:href="#DejaVuSans-72"/>
     <use x="610.591797" xlink:href="#DejaVuSans-69"/>
     <use x="638.375" xlink:href="#DejaVuSans-73"/>
     <use x="690.474609" xlink:href="#DejaVuSans-61"/>
     <use x="751.753906" xlink:href="#DejaVuSans-74"/>
     <use x="790.962891" xlink:href="#DejaVuSans-69"/>
     <use x="818.746094" xlink:href="#DejaVuSans-6f"/>
     <use x="879.927734" xlink:href="#DejaVuSans-6e"/>
    </g>
   </g>
  </g>
  <g id="axes_2">
   <g id="patch_7">
    <path d="M 43.78125 1264.318125 
L 1717.78125 1264.318125 
L 1717.78125 699.77267 
L 43.78125 699.77267 
z
" style="fill:#ffffff;"/>
   </g>
   <g id="matplotlib.axis_3">
    <g id="xtick_8">
     <g id="line2d_14">
      <g>
       <use style="stroke:#000000;stroke-width:0.8;" x="119.872159" xlink:href="#m2ebca6b468" y="1264.318125"/>
      </g>
     </g>
     <g id="text_16">
      <!-- 0 -->
      <g transform="translate(116.690909 1278.916563)scale(0.1 -0.1)">
       <use xlink:href="#DejaVuSans-30"/>
      </g>
     </g>
    </g>
    <g id="xtick_9">
     <g id="line2d_15">
      <g>
       <use style="stroke:#000000;stroke-width:0.8;" x="367.523613" xlink:href="#m2ebca6b468" y="1264.318125"/>
      </g>
     </g>
     <g id="text_17">
      <!-- 200 -->
      <g transform="translate(357.979863 1278.916563)scale(0.1 -0.1)">
       <use xlink:href="#DejaVuSans-32"/>
       <use x="63.623047" xlink:href="#DejaVuSans-30"/>
       <use x="127.246094" xlink:href="#DejaVuSans-30"/>
      </g>
     </g>
    </g>
    <g id="xtick_10">
     <g id="line2d_16">
      <g>
       <use style="stroke:#000000;stroke-width:0.8;" x="615.175066" xlink:href="#m2ebca6b468" y="1264.318125"/>
      </g>
     </g>
     <g id="text_18">
      <!-- 400 -->
      <g transform="translate(605.631316 1278.916563)scale(0.1 -0.1)">
       <use xlink:href="#DejaVuSans-34"/>
       <use x="63.623047" xlink:href="#DejaVuSans-30"/>
       <use x="127.246094" xlink:href="#DejaVuSans-30"/>
      </g>
     </g>
    </g>
    <g id="xtick_11">
     <g id="line2d_17">
      <g>
       <use style="stroke:#000000;stroke-width:0.8;" x="862.82652" xlink:href="#m2ebca6b468" y="1264.318125"/>
      </g>
     </g>
     <g id="text_19">
      <!-- 600 -->
      <g transform="translate(853.28277 1278.916563)scale(0.1 -0.1)">
       <use xlink:href="#DejaVuSans-36"/>
       <use x="63.623047" xlink:href="#DejaVuSans-30"/>
       <use x="127.246094" xlink:href="#DejaVuSans-30"/>
      </g>
     </g>
    </g>
    <g id="xtick_12">
     <g id="line2d_18">
      <g>
       <use style="stroke:#000000;stroke-width:0.8;" x="1110.477973" xlink:href="#m2ebca6b468" y="1264.318125"/>
      </g>
     </g>
     <g id="text_20">
      <!-- 800 -->
      <g transform="translate(1100.934223 1278.916563)scale(0.1 -0.1)">
       <use xlink:href="#DejaVuSans-38"/>
       <use x="63.623047" xlink:href="#DejaVuSans-30"/>
       <use x="127.246094" xlink:href="#DejaVuSans-30"/>
      </g>
     </g>
    </g>
    <g id="xtick_13">
     <g id="line2d_19">
      <g>
       <use style="stroke:#000000;stroke-width:0.8;" x="1358.129427" xlink:href="#m2ebca6b468" y="1264.318125"/>
      </g>
     </g>
     <g id="text_21">
      <!-- 1000 -->
      <g transform="translate(1345.404427 1278.916563)scale(0.1 -0.1)">
       <use xlink:href="#DejaVuSans-31"/>
       <use x="63.623047" xlink:href="#DejaVuSans-30"/>
       <use x="127.246094" xlink:href="#DejaVuSans-30"/>
       <use x="190.869141" xlink:href="#DejaVuSans-30"/>
      </g>
     </g>
    </g>
    <g id="xtick_14">
     <g id="line2d_20">
      <g>
       <use style="stroke:#000000;stroke-width:0.8;" x="1605.78088" xlink:href="#m2ebca6b468" y="1264.318125"/>
      </g>
     </g>
     <g id="text_22">
      <!-- 1200 -->
      <g transform="translate(1593.05588 1278.916563)scale(0.1 -0.1)">
       <use xlink:href="#DejaVuSans-31"/>
       <use x="63.623047" xlink:href="#DejaVuSans-32"/>
       <use x="127.246094" xlink:href="#DejaVuSans-30"/>
       <use x="190.869141" xlink:href="#DejaVuSans-30"/>
      </g>
     </g>
    </g>
    <g id="text_23">
     <!-- frame -->
     <g transform="translate(865.954687 1292.594688)scale(0.1 -0.1)">
      <use xlink:href="#DejaVuSans-66"/>
      <use x="35.205078" xlink:href="#DejaVuSans-72"/>
      <use x="76.318359" xlink:href="#DejaVuSans-61"/>
      <use x="137.597656" xlink:href="#DejaVuSans-6d"/>
      <use x="235.009766" xlink:href="#DejaVuSans-65"/>
     </g>
    </g>
   </g>
   <g id="matplotlib.axis_4">
    <g id="ytick_6">
     <g id="line2d_21">
      <g>
       <use style="stroke:#000000;stroke-width:0.8;" x="43.78125" xlink:href="#mbd8239d17d" y="1238.656968"/>
      </g>
     </g>
     <g id="text_24">
      <!-- 0.0 -->
      <g transform="translate(20.878125 1242.456187)scale(0.1 -0.1)">
       <defs>
        <path d="M 684 794 
L 1344 794 
L 1344 0 
L 684 0 
L 684 794 
z
" id="DejaVuSans-2e" transform="scale(0.015625)"/>
       </defs>
       <use xlink:href="#DejaVuSans-30"/>
       <use x="63.623047" xlink:href="#DejaVuSans-2e"/>
       <use x="95.410156" xlink:href="#DejaVuSans-30"/>
      </g>
     </g>
    </g>
    <g id="ytick_7">
     <g id="line2d_22">
      <g>
       <use style="stroke:#000000;stroke-width:0.8;" x="43.78125" xlink:href="#mbd8239d17d" y="1136.01234"/>
      </g>
     </g>
     <g id="text_25">
      <!-- 0.2 -->
      <g transform="translate(20.878125 1139.811559)scale(0.1 -0.1)">
       <use xlink:href="#DejaVuSans-30"/>
       <use x="63.623047" xlink:href="#DejaVuSans-2e"/>
       <use x="95.410156" xlink:href="#DejaVuSans-32"/>
      </g>
     </g>
    </g>
    <g id="ytick_8">
     <g id="line2d_23">
      <g>
       <use style="stroke:#000000;stroke-width:0.8;" x="43.78125" xlink:href="#mbd8239d17d" y="1033.367712"/>
      </g>
     </g>
     <g id="text_26">
      <!-- 0.4 -->
      <g transform="translate(20.878125 1037.166931)scale(0.1 -0.1)">
       <use xlink:href="#DejaVuSans-30"/>
       <use x="63.623047" xlink:href="#DejaVuSans-2e"/>
       <use x="95.410156" xlink:href="#DejaVuSans-34"/>
      </g>
     </g>
    </g>
    <g id="ytick_9">
     <g id="line2d_24">
      <g>
       <use style="stroke:#000000;stroke-width:0.8;" x="43.78125" xlink:href="#mbd8239d17d" y="930.723084"/>
      </g>
     </g>
     <g id="text_27">
      <!-- 0.6 -->
      <g transform="translate(20.878125 934.522302)scale(0.1 -0.1)">
       <use xlink:href="#DejaVuSans-30"/>
       <use x="63.623047" xlink:href="#DejaVuSans-2e"/>
       <use x="95.410156" xlink:href="#DejaVuSans-36"/>
      </g>
     </g>
    </g>
    <g id="ytick_10">
     <g id="line2d_25">
      <g>
       <use style="stroke:#000000;stroke-width:0.8;" x="43.78125" xlink:href="#mbd8239d17d" y="828.078456"/>
      </g>
     </g>
     <g id="text_28">
      <!-- 0.8 -->
      <g transform="translate(20.878125 831.877674)scale(0.1 -0.1)">
       <use xlink:href="#DejaVuSans-30"/>
       <use x="63.623047" xlink:href="#DejaVuSans-2e"/>
       <use x="95.410156" xlink:href="#DejaVuSans-38"/>
      </g>
     </g>
    </g>
    <g id="ytick_11">
     <g id="line2d_26">
      <g>
       <use style="stroke:#000000;stroke-width:0.8;" x="43.78125" xlink:href="#mbd8239d17d" y="725.433827"/>
      </g>
     </g>
     <g id="text_29">
      <!-- 1.0 -->
      <g transform="translate(20.878125 729.233046)scale(0.1 -0.1)">
       <use xlink:href="#DejaVuSans-31"/>
       <use x="63.623047" xlink:href="#DejaVuSans-2e"/>
       <use x="95.410156" xlink:href="#DejaVuSans-30"/>
      </g>
     </g>
    </g>
    <g id="text_30">
     <!-- GCaMP -->
     <g transform="translate(14.798437 999.803991)rotate(-90)scale(0.1 -0.1)">
      <use xlink:href="#DejaVuSans-47"/>
      <use x="77.490234" xlink:href="#DejaVuSans-43"/>
      <use x="147.314453" xlink:href="#DejaVuSans-61"/>
      <use x="208.59375" xlink:href="#DejaVuSans-4d"/>
      <use x="294.873047" xlink:href="#DejaVuSans-50"/>
     </g>
    </g>
   </g>
   <g id="line2d_27">
    <path clip-path="url(#p8964dc596d)" d="M 119.872159 725.433827 
L 149.590334 725.433827 
L 150.828591 1238.656968 
L 1032.467765 1238.656968 
L 1033.706023 725.433827 
L 1072.091998 725.433827 
L 1073.330255 1238.656968 
L 1101.810172 1238.656968 
L 1103.04843 725.433827 
L 1244.209758 725.433827 
L 1245.448015 1238.656968 
L 1395.277145 1238.656968 
L 1396.515402 725.433827 
L 1452.236979 725.433827 
L 1453.475236 1238.656968 
L 1631.784283 1238.656968 
L 1633.02254 725.433827 
L 1640.452084 725.433827 
L 1641.690341 1238.656968 
L 1641.690341 1238.656968 
" style="fill:none;stroke:#008000;stroke-linecap:square;stroke-width:1.5;"/>
   </g>
   <g id="patch_8">
    <path d="M 43.78125 1264.318125 
L 43.78125 699.77267 
" style="fill:none;stroke:#000000;stroke-linecap:square;stroke-linejoin:miter;stroke-width:0.8;"/>
   </g>
   <g id="patch_9">
    <path d="M 1717.78125 1264.318125 
L 1717.78125 699.77267 
" style="fill:none;stroke:#000000;stroke-linecap:square;stroke-linejoin:miter;stroke-width:0.8;"/>
   </g>
   <g id="patch_10">
    <path d="M 43.78125 1264.318125 
L 1717.78125 1264.318125 
" style="fill:none;stroke:#000000;stroke-linecap:square;stroke-linejoin:miter;stroke-width:0.8;"/>
   </g>
   <g id="patch_11">
    <path d="M 43.78125 699.77267 
L 1717.78125 699.77267 
" style="fill:none;stroke:#000000;stroke-linecap:square;stroke-linejoin:miter;stroke-width:0.8;"/>
   </g>
   <g id="text_31">
    <!-- before binarisation -->
    <g transform="translate(824.1825 693.77267)scale(0.12 -0.12)">
     <use xlink:href="#DejaVuSans-62"/>
     <use x="63.476562" xlink:href="#DejaVuSans-65"/>
     <use x="125" xlink:href="#DejaVuSans-66"/>
     <use x="160.205078" xlink:href="#DejaVuSans-6f"/>
     <use x="221.386719" xlink:href="#DejaVuSans-72"/>
     <use x="260.25" xlink:href="#DejaVuSans-65"/>
     <use x="321.773438" xlink:href="#DejaVuSans-20"/>
     <use x="353.560547" xlink:href="#DejaVuSans-62"/>
     <use x="417.037109" xlink:href="#DejaVuSans-69"/>
     <use x="444.820312" xlink:href="#DejaVuSans-6e"/>
     <use x="508.199219" xlink:href="#DejaVuSans-61"/>
     <use x="569.478516" xlink:href="#DejaVuSans-72"/>
     <use x="610.591797" xlink:href="#DejaVuSans-69"/>
     <use x="638.375" xlink:href="#DejaVuSans-73"/>
     <use x="690.474609" xlink:href="#DejaVuSans-61"/>
     <use x="751.753906" xlink:href="#DejaVuSans-74"/>
     <use x="790.962891" xlink:href="#DejaVuSans-69"/>
     <use x="818.746094" xlink:href="#DejaVuSans-6f"/>
     <use x="879.927734" xlink:href="#DejaVuSans-6e"/>
    </g>
   </g>
  </g>
 </g>
 <defs>
  <clipPath id="p750d271bd1">
   <rect height="564.545455" width="1674" x="43.78125" y="22.318125"/>
  </clipPath>
  <clipPath id="p8964dc596d">
   <rect height="564.545455" width="1674" x="43.78125" y="699.77267"/>
  </clipPath>
 </defs>
</svg>
