<?xml version="1.0" encoding="utf-8" standalone="no"?>
<!DOCTYPE svg PUBLIC "-//W3C//DTD SVG 1.1//EN"
  "http://www.w3.org/Graphics/SVG/1.1/DTD/svg11.dtd">
<svg height="1301.874375pt" version="1.1" viewBox="0 0 1724.98125 1301.874375" width="1724.98125pt" xmlns="http://www.w3.org/2000/svg" xmlns:xlink="http://www.w3.org/1999/xlink">
 <metadata>
  <rdf:RDF xmlns:cc="http://creativecommons.org/ns#" xmlns:dc="http://purl.org/dc/elements/1.1/" xmlns:rdf="http://www.w3.org/1999/02/22-rdf-syntax-ns#">
   <cc:Work>
    <dc:type rdf:resource="http://purl.org/dc/dcmitype/StillImage"/>
    <dc:date>2022-07-24T15:54:33.539284</dc:date>
    <dc:format>image/svg+xml</dc:format>
    <dc:creator>
     <cc:Agent>
      <dc:title>Matplotlib v3.4.2, https://matplotlib.org/</dc:title>
     </cc:Agent>
    </dc:creator>
   </cc:Work>
  </rdf:RDF>
 </metadata>
 <defs>
  <style type="text/css">*{stroke-linecap:butt;stroke-linejoin:round;}</style>
 </defs>
 <g id="figure_1">
  <g id="patch_1">
   <path d="M 0 1301.874375 
L 1724.98125 1301.874375 
L 1724.98125 0 
L 0 0 
z
" style="fill:#ffffff;"/>
  </g>
  <g id="axes_1">
   <g id="patch_2">
    <path d="M 43.78125 586.86358 
L 1717.78125 586.86358 
L 1717.78125 22.318125 
L 43.78125 22.318125 
z
" style="fill:#ffffff;"/>
   </g>
   <g id="matplotlib.axis_1">
    <g id="xtick_1">
     <g id="line2d_1">
      <defs>
       <path d="M 0 0 
L 0 3.5 
" id="m9754645150" style="stroke:#000000;stroke-width:0.8;"/>
      </defs>
      <g>
       <use style="stroke:#000000;stroke-width:0.8;" x="119.872159" xlink:href="#m9754645150" y="586.86358"/>
      </g>
     </g>
     <g id="text_1">
      <!-- 0 -->
      <g transform="translate(116.690909 601.462017)scale(0.1 -0.1)">
       <defs>
        <path d="M 2034 4250 
Q 1547 4250 1301 3770 
Q 1056 3291 1056 2328 
Q 1056 1369 1301 889 
Q 1547 409 2034 409 
Q 2525 409 2770 889 
Q 3016 1369 3016 2328 
Q 3016 3291 2770 3770 
Q 2525 4250 2034 4250 
z
M 2034 4750 
Q 2819 4750 3233 4129 
Q 3647 3509 3647 2328 
Q 3647 1150 3233 529 
Q 2819 -91 2034 -91 
Q 1250 -91 836 529 
Q 422 1150 422 2328 
Q 422 3509 836 4129 
Q 1250 4750 2034 4750 
z
" id="DejaVuSans-30" transform="scale(0.015625)"/>
       </defs>
       <use xlink:href="#DejaVuSans-30"/>
      </g>
     </g>
    </g>
    <g id="xtick_2">
     <g id="line2d_2">
      <g>
       <use style="stroke:#000000;stroke-width:0.8;" x="367.523613" xlink:href="#m9754645150" y="586.86358"/>
      </g>
     </g>
     <g id="text_2">
      <!-- 200 -->
      <g transform="translate(357.979863 601.462017)scale(0.1 -0.1)">
       <defs>
        <path d="M 1228 531 
L 3431 531 
L 3431 0 
L 469 0 
L 469 531 
Q 828 903 1448 1529 
Q 2069 2156 2228 2338 
Q 2531 2678 2651 2914 
Q 2772 3150 2772 3378 
Q 2772 3750 2511 3984 
Q 2250 4219 1831 4219 
Q 1534 4219 1204 4116 
Q 875 4013 500 3803 
L 500 4441 
Q 881 4594 1212 4672 
Q 1544 4750 1819 4750 
Q 2544 4750 2975 4387 
Q 3406 4025 3406 3419 
Q 3406 3131 3298 2873 
Q 3191 2616 2906 2266 
Q 2828 2175 2409 1742 
Q 1991 1309 1228 531 
z
" id="DejaVuSans-32" transform="scale(0.015625)"/>
       </defs>
       <use xlink:href="#DejaVuSans-32"/>
       <use x="63.623047" xlink:href="#DejaVuSans-30"/>
       <use x="127.246094" xlink:href="#DejaVuSans-30"/>
      </g>
     </g>
    </g>
    <g id="xtick_3">
     <g id="line2d_3">
      <g>
       <use style="stroke:#000000;stroke-width:0.8;" x="615.175066" xlink:href="#m9754645150" y="586.86358"/>
      </g>
     </g>
     <g id="text_3">
      <!-- 400 -->
      <g transform="translate(605.631316 601.462017)scale(0.1 -0.1)">
       <defs>
        <path d="M 2419 4116 
L 825 1625 
L 2419 1625 
L 2419 4116 
z
M 2253 4666 
L 3047 4666 
L 3047 1625 
L 3713 1625 
L 3713 1100 
L 3047 1100 
L 3047 0 
L 2419 0 
L 2419 1100 
L 313 1100 
L 313 1709 
L 2253 4666 
z
" id="DejaVuSans-34" transform="scale(0.015625)"/>
       </defs>
       <use xlink:href="#DejaVuSans-34"/>
       <use x="63.623047" xlink:href="#DejaVuSans-30"/>
       <use x="127.246094" xlink:href="#DejaVuSans-30"/>
      </g>
     </g>
    </g>
    <g id="xtick_4">
     <g id="line2d_4">
      <g>
       <use style="stroke:#000000;stroke-width:0.8;" x="862.82652" xlink:href="#m9754645150" y="586.86358"/>
      </g>
     </g>
     <g id="text_4">
      <!-- 600 -->
      <g transform="translate(853.28277 601.462017)scale(0.1 -0.1)">
       <defs>
        <path d="M 2113 2584 
Q 1688 2584 1439 2293 
Q 1191 2003 1191 1497 
Q 1191 994 1439 701 
Q 1688 409 2113 409 
Q 2538 409 2786 701 
Q 3034 994 3034 1497 
Q 3034 2003 2786 2293 
Q 2538 2584 2113 2584 
z
M 3366 4563 
L 3366 3988 
Q 3128 4100 2886 4159 
Q 2644 4219 2406 4219 
Q 1781 4219 1451 3797 
Q 1122 3375 1075 2522 
Q 1259 2794 1537 2939 
Q 1816 3084 2150 3084 
Q 2853 3084 3261 2657 
Q 3669 2231 3669 1497 
Q 3669 778 3244 343 
Q 2819 -91 2113 -91 
Q 1303 -91 875 529 
Q 447 1150 447 2328 
Q 447 3434 972 4092 
Q 1497 4750 2381 4750 
Q 2619 4750 2861 4703 
Q 3103 4656 3366 4563 
z
" id="DejaVuSans-36" transform="scale(0.015625)"/>
       </defs>
       <use xlink:href="#DejaVuSans-36"/>
       <use x="63.623047" xlink:href="#DejaVuSans-30"/>
       <use x="127.246094" xlink:href="#DejaVuSans-30"/>
      </g>
     </g>
    </g>
    <g id="xtick_5">
     <g id="line2d_5">
      <g>
       <use style="stroke:#000000;stroke-width:0.8;" x="1110.477973" xlink:href="#m9754645150" y="586.86358"/>
      </g>
     </g>
     <g id="text_5">
      <!-- 800 -->
      <g transform="translate(1100.934223 601.462017)scale(0.1 -0.1)">
       <defs>
        <path d="M 2034 2216 
Q 1584 2216 1326 1975 
Q 1069 1734 1069 1313 
Q 1069 891 1326 650 
Q 1584 409 2034 409 
Q 2484 409 2743 651 
Q 3003 894 3003 1313 
Q 3003 1734 2745 1975 
Q 2488 2216 2034 2216 
z
M 1403 2484 
Q 997 2584 770 2862 
Q 544 3141 544 3541 
Q 544 4100 942 4425 
Q 1341 4750 2034 4750 
Q 2731 4750 3128 4425 
Q 3525 4100 3525 3541 
Q 3525 3141 3298 2862 
Q 3072 2584 2669 2484 
Q 3125 2378 3379 2068 
Q 3634 1759 3634 1313 
Q 3634 634 3220 271 
Q 2806 -91 2034 -91 
Q 1263 -91 848 271 
Q 434 634 434 1313 
Q 434 1759 690 2068 
Q 947 2378 1403 2484 
z
M 1172 3481 
Q 1172 3119 1398 2916 
Q 1625 2713 2034 2713 
Q 2441 2713 2670 2916 
Q 2900 3119 2900 3481 
Q 2900 3844 2670 4047 
Q 2441 4250 2034 4250 
Q 1625 4250 1398 4047 
Q 1172 3844 1172 3481 
z
" id="DejaVuSans-38" transform="scale(0.015625)"/>
       </defs>
       <use xlink:href="#DejaVuSans-38"/>
       <use x="63.623047" xlink:href="#DejaVuSans-30"/>
       <use x="127.246094" xlink:href="#DejaVuSans-30"/>
      </g>
     </g>
    </g>
    <g id="xtick_6">
     <g id="line2d_6">
      <g>
       <use style="stroke:#000000;stroke-width:0.8;" x="1358.129427" xlink:href="#m9754645150" y="586.86358"/>
      </g>
     </g>
     <g id="text_6">
      <!-- 1000 -->
      <g transform="translate(1345.404427 601.462017)scale(0.1 -0.1)">
       <defs>
        <path d="M 794 531 
L 1825 531 
L 1825 4091 
L 703 3866 
L 703 4441 
L 1819 4666 
L 2450 4666 
L 2450 531 
L 3481 531 
L 3481 0 
L 794 0 
L 794 531 
z
" id="DejaVuSans-31" transform="scale(0.015625)"/>
       </defs>
       <use xlink:href="#DejaVuSans-31"/>
       <use x="63.623047" xlink:href="#DejaVuSans-30"/>
       <use x="127.246094" xlink:href="#DejaVuSans-30"/>
       <use x="190.869141" xlink:href="#DejaVuSans-30"/>
      </g>
     </g>
    </g>
    <g id="xtick_7">
     <g id="line2d_7">
      <g>
       <use style="stroke:#000000;stroke-width:0.8;" x="1605.78088" xlink:href="#m9754645150" y="586.86358"/>
      </g>
     </g>
     <g id="text_7">
      <!-- 1200 -->
      <g transform="translate(1593.05588 601.462017)scale(0.1 -0.1)">
       <use xlink:href="#DejaVuSans-31"/>
       <use x="63.623047" xlink:href="#DejaVuSans-32"/>
       <use x="127.246094" xlink:href="#DejaVuSans-30"/>
       <use x="190.869141" xlink:href="#DejaVuSans-30"/>
      </g>
     </g>
    </g>
    <g id="text_8">
     <!-- frame -->
     <g transform="translate(865.954687 615.140142)scale(0.1 -0.1)">
      <defs>
       <path d="M 2375 4863 
L 2375 4384 
L 1825 4384 
Q 1516 4384 1395 4259 
Q 1275 4134 1275 3809 
L 1275 3500 
L 2222 3500 
L 2222 3053 
L 1275 3053 
L 1275 0 
L 697 0 
L 697 3053 
L 147 3053 
L 147 3500 
L 697 3500 
L 697 3744 
Q 697 4328 969 4595 
Q 1241 4863 1831 4863 
L 2375 4863 
z
" id="DejaVuSans-66" transform="scale(0.015625)"/>
       <path d="M 2631 2963 
Q 2534 3019 2420 3045 
Q 2306 3072 2169 3072 
Q 1681 3072 1420 2755 
Q 1159 2438 1159 1844 
L 1159 0 
L 581 0 
L 581 3500 
L 1159 3500 
L 1159 2956 
Q 1341 3275 1631 3429 
Q 1922 3584 2338 3584 
Q 2397 3584 2469 3576 
Q 2541 3569 2628 3553 
L 2631 2963 
z
" id="DejaVuSans-72" transform="scale(0.015625)"/>
       <path d="M 2194 1759 
Q 1497 1759 1228 1600 
Q 959 1441 959 1056 
Q 959 750 1161 570 
Q 1363 391 1709 391 
Q 2188 391 2477 730 
Q 2766 1069 2766 1631 
L 2766 1759 
L 2194 1759 
z
M 3341 1997 
L 3341 0 
L 2766 0 
L 2766 531 
Q 2569 213 2275 61 
Q 1981 -91 1556 -91 
Q 1019 -91 701 211 
Q 384 513 384 1019 
Q 384 1609 779 1909 
Q 1175 2209 1959 2209 
L 2766 2209 
L 2766 2266 
Q 2766 2663 2505 2880 
Q 2244 3097 1772 3097 
Q 1472 3097 1187 3025 
Q 903 2953 641 2809 
L 641 3341 
Q 956 3463 1253 3523 
Q 1550 3584 1831 3584 
Q 2591 3584 2966 3190 
Q 3341 2797 3341 1997 
z
" id="DejaVuSans-61" transform="scale(0.015625)"/>
       <path d="M 3328 2828 
Q 3544 3216 3844 3400 
Q 4144 3584 4550 3584 
Q 5097 3584 5394 3201 
Q 5691 2819 5691 2113 
L 5691 0 
L 5113 0 
L 5113 2094 
Q 5113 2597 4934 2840 
Q 4756 3084 4391 3084 
Q 3944 3084 3684 2787 
Q 3425 2491 3425 1978 
L 3425 0 
L 2847 0 
L 2847 2094 
Q 2847 2600 2669 2842 
Q 2491 3084 2119 3084 
Q 1678 3084 1418 2786 
Q 1159 2488 1159 1978 
L 1159 0 
L 581 0 
L 581 3500 
L 1159 3500 
L 1159 2956 
Q 1356 3278 1631 3431 
Q 1906 3584 2284 3584 
Q 2666 3584 2933 3390 
Q 3200 3197 3328 2828 
z
" id="DejaVuSans-6d" transform="scale(0.015625)"/>
       <path d="M 3597 1894 
L 3597 1613 
L 953 1613 
Q 991 1019 1311 708 
Q 1631 397 2203 397 
Q 2534 397 2845 478 
Q 3156 559 3463 722 
L 3463 178 
Q 3153 47 2828 -22 
Q 2503 -91 2169 -91 
Q 1331 -91 842 396 
Q 353 884 353 1716 
Q 353 2575 817 3079 
Q 1281 3584 2069 3584 
Q 2775 3584 3186 3129 
Q 3597 2675 3597 1894 
z
M 3022 2063 
Q 3016 2534 2758 2815 
Q 2500 3097 2075 3097 
Q 1594 3097 1305 2825 
Q 1016 2553 972 2059 
L 3022 2063 
z
" id="DejaVuSans-65" transform="scale(0.015625)"/>
      </defs>
      <use xlink:href="#DejaVuSans-66"/>
      <use x="35.205078" xlink:href="#DejaVuSans-72"/>
      <use x="76.318359" xlink:href="#DejaVuSans-61"/>
      <use x="137.597656" xlink:href="#DejaVuSans-6d"/>
      <use x="235.009766" xlink:href="#DejaVuSans-65"/>
     </g>
    </g>
   </g>
   <g id="matplotlib.axis_2">
    <g id="ytick_1">
     <g id="line2d_8">
      <defs>
       <path d="M 0 0 
L -3.5 0 
" id="m9e21102403" style="stroke:#000000;stroke-width:0.8;"/>
      </defs>
      <g>
       <use style="stroke:#000000;stroke-width:0.8;" x="43.78125" xlink:href="#m9e21102403" y="579.139551"/>
      </g>
     </g>
     <g id="text_9">
      <!-- 3 -->
      <g transform="translate(30.41875 582.93877)scale(0.1 -0.1)">
       <defs>
        <path d="M 2597 2516 
Q 3050 2419 3304 2112 
Q 3559 1806 3559 1356 
Q 3559 666 3084 287 
Q 2609 -91 1734 -91 
Q 1441 -91 1130 -33 
Q 819 25 488 141 
L 488 750 
Q 750 597 1062 519 
Q 1375 441 1716 441 
Q 2309 441 2620 675 
Q 2931 909 2931 1356 
Q 2931 1769 2642 2001 
Q 2353 2234 1838 2234 
L 1294 2234 
L 1294 2753 
L 1863 2753 
Q 2328 2753 2575 2939 
Q 2822 3125 2822 3475 
Q 2822 3834 2567 4026 
Q 2313 4219 1838 4219 
Q 1578 4219 1281 4162 
Q 984 4106 628 3988 
L 628 4550 
Q 988 4650 1302 4700 
Q 1616 4750 1894 4750 
Q 2613 4750 3031 4423 
Q 3450 4097 3450 3541 
Q 3450 3153 3228 2886 
Q 3006 2619 2597 2516 
z
" id="DejaVuSans-33" transform="scale(0.015625)"/>
       </defs>
       <use xlink:href="#DejaVuSans-33"/>
      </g>
     </g>
    </g>
    <g id="ytick_2">
     <g id="line2d_9">
      <g>
       <use style="stroke:#000000;stroke-width:0.8;" x="43.78125" xlink:href="#m9e21102403" y="505.937383"/>
      </g>
     </g>
     <g id="text_10">
      <!-- 4 -->
      <g transform="translate(30.41875 509.736602)scale(0.1 -0.1)">
       <use xlink:href="#DejaVuSans-34"/>
      </g>
     </g>
    </g>
    <g id="ytick_3">
     <g id="line2d_10">
      <g>
       <use style="stroke:#000000;stroke-width:0.8;" x="43.78125" xlink:href="#m9e21102403" y="432.735214"/>
      </g>
     </g>
     <g id="text_11">
      <!-- 5 -->
      <g transform="translate(30.41875 436.534433)scale(0.1 -0.1)">
       <defs>
        <path d="M 691 4666 
L 3169 4666 
L 3169 4134 
L 1269 4134 
L 1269 2991 
Q 1406 3038 1543 3061 
Q 1681 3084 1819 3084 
Q 2600 3084 3056 2656 
Q 3513 2228 3513 1497 
Q 3513 744 3044 326 
Q 2575 -91 1722 -91 
Q 1428 -91 1123 -41 
Q 819 9 494 109 
L 494 744 
Q 775 591 1075 516 
Q 1375 441 1709 441 
Q 2250 441 2565 725 
Q 2881 1009 2881 1497 
Q 2881 1984 2565 2268 
Q 2250 2553 1709 2553 
Q 1456 2553 1204 2497 
Q 953 2441 691 2322 
L 691 4666 
z
" id="DejaVuSans-35" transform="scale(0.015625)"/>
       </defs>
       <use xlink:href="#DejaVuSans-35"/>
      </g>
     </g>
    </g>
    <g id="ytick_4">
     <g id="line2d_11">
      <g>
       <use style="stroke:#000000;stroke-width:0.8;" x="43.78125" xlink:href="#m9e21102403" y="359.533046"/>
      </g>
     </g>
     <g id="text_12">
      <!-- 6 -->
      <g transform="translate(30.41875 363.332265)scale(0.1 -0.1)">
       <use xlink:href="#DejaVuSans-36"/>
      </g>
     </g>
    </g>
    <g id="ytick_5">
     <g id="line2d_12">
      <g>
       <use style="stroke:#000000;stroke-width:0.8;" x="43.78125" xlink:href="#m9e21102403" y="286.330877"/>
      </g>
     </g>
     <g id="text_13">
      <!-- 7 -->
      <g transform="translate(30.41875 290.130096)scale(0.1 -0.1)">
       <defs>
        <path d="M 525 4666 
L 3525 4666 
L 3525 4397 
L 1831 0 
L 1172 0 
L 2766 4134 
L 525 4134 
L 525 4666 
z
" id="DejaVuSans-37" transform="scale(0.015625)"/>
       </defs>
       <use xlink:href="#DejaVuSans-37"/>
      </g>
     </g>
    </g>
    <g id="ytick_6">
     <g id="line2d_13">
      <g>
       <use style="stroke:#000000;stroke-width:0.8;" x="43.78125" xlink:href="#m9e21102403" y="213.128709"/>
      </g>
     </g>
     <g id="text_14">
      <!-- 8 -->
      <g transform="translate(30.41875 216.927928)scale(0.1 -0.1)">
       <use xlink:href="#DejaVuSans-38"/>
      </g>
     </g>
    </g>
    <g id="ytick_7">
     <g id="line2d_14">
      <g>
       <use style="stroke:#000000;stroke-width:0.8;" x="43.78125" xlink:href="#m9e21102403" y="139.92654"/>
      </g>
     </g>
     <g id="text_15">
      <!-- 9 -->
      <g transform="translate(30.41875 143.725759)scale(0.1 -0.1)">
       <defs>
        <path d="M 703 97 
L 703 672 
Q 941 559 1184 500 
Q 1428 441 1663 441 
Q 2288 441 2617 861 
Q 2947 1281 2994 2138 
Q 2813 1869 2534 1725 
Q 2256 1581 1919 1581 
Q 1219 1581 811 2004 
Q 403 2428 403 3163 
Q 403 3881 828 4315 
Q 1253 4750 1959 4750 
Q 2769 4750 3195 4129 
Q 3622 3509 3622 2328 
Q 3622 1225 3098 567 
Q 2575 -91 1691 -91 
Q 1453 -91 1209 -44 
Q 966 3 703 97 
z
M 1959 2075 
Q 2384 2075 2632 2365 
Q 2881 2656 2881 3163 
Q 2881 3666 2632 3958 
Q 2384 4250 1959 4250 
Q 1534 4250 1286 3958 
Q 1038 3666 1038 3163 
Q 1038 2656 1286 2365 
Q 1534 2075 1959 2075 
z
" id="DejaVuSans-39" transform="scale(0.015625)"/>
       </defs>
       <use xlink:href="#DejaVuSans-39"/>
      </g>
     </g>
    </g>
    <g id="ytick_8">
     <g id="line2d_15">
      <g>
       <use style="stroke:#000000;stroke-width:0.8;" x="43.78125" xlink:href="#m9e21102403" y="66.724372"/>
      </g>
     </g>
     <g id="text_16">
      <!-- 10 -->
      <g transform="translate(24.05625 70.523591)scale(0.1 -0.1)">
       <use xlink:href="#DejaVuSans-31"/>
       <use x="63.623047" xlink:href="#DejaVuSans-30"/>
      </g>
     </g>
    </g>
    <g id="text_17">
     <!-- GCaMP -->
     <g transform="translate(17.976562 322.349446)rotate(-90)scale(0.1 -0.1)">
      <defs>
       <path d="M 3809 666 
L 3809 1919 
L 2778 1919 
L 2778 2438 
L 4434 2438 
L 4434 434 
Q 4069 175 3628 42 
Q 3188 -91 2688 -91 
Q 1594 -91 976 548 
Q 359 1188 359 2328 
Q 359 3472 976 4111 
Q 1594 4750 2688 4750 
Q 3144 4750 3555 4637 
Q 3966 4525 4313 4306 
L 4313 3634 
Q 3963 3931 3569 4081 
Q 3175 4231 2741 4231 
Q 1884 4231 1454 3753 
Q 1025 3275 1025 2328 
Q 1025 1384 1454 906 
Q 1884 428 2741 428 
Q 3075 428 3337 486 
Q 3600 544 3809 666 
z
" id="DejaVuSans-47" transform="scale(0.015625)"/>
       <path d="M 4122 4306 
L 4122 3641 
Q 3803 3938 3442 4084 
Q 3081 4231 2675 4231 
Q 1875 4231 1450 3742 
Q 1025 3253 1025 2328 
Q 1025 1406 1450 917 
Q 1875 428 2675 428 
Q 3081 428 3442 575 
Q 3803 722 4122 1019 
L 4122 359 
Q 3791 134 3420 21 
Q 3050 -91 2638 -91 
Q 1578 -91 968 557 
Q 359 1206 359 2328 
Q 359 3453 968 4101 
Q 1578 4750 2638 4750 
Q 3056 4750 3426 4639 
Q 3797 4528 4122 4306 
z
" id="DejaVuSans-43" transform="scale(0.015625)"/>
       <path d="M 628 4666 
L 1569 4666 
L 2759 1491 
L 3956 4666 
L 4897 4666 
L 4897 0 
L 4281 0 
L 4281 4097 
L 3078 897 
L 2444 897 
L 1241 4097 
L 1241 0 
L 628 0 
L 628 4666 
z
" id="DejaVuSans-4d" transform="scale(0.015625)"/>
       <path d="M 1259 4147 
L 1259 2394 
L 2053 2394 
Q 2494 2394 2734 2622 
Q 2975 2850 2975 3272 
Q 2975 3691 2734 3919 
Q 2494 4147 2053 4147 
L 1259 4147 
z
M 628 4666 
L 2053 4666 
Q 2838 4666 3239 4311 
Q 3641 3956 3641 3272 
Q 3641 2581 3239 2228 
Q 2838 1875 2053 1875 
L 1259 1875 
L 1259 0 
L 628 0 
L 628 4666 
z
" id="DejaVuSans-50" transform="scale(0.015625)"/>
      </defs>
      <use xlink:href="#DejaVuSans-47"/>
      <use x="77.490234" xlink:href="#DejaVuSans-43"/>
      <use x="147.314453" xlink:href="#DejaVuSans-61"/>
      <use x="208.59375" xlink:href="#DejaVuSans-4d"/>
      <use x="294.873047" xlink:href="#DejaVuSans-50"/>
     </g>
    </g>
   </g>
   <g id="line2d_16">
    <path clip-path="url(#pa825a160b8)" d="M 119.872159 100.916259 
L 121.110416 94.970794 
L 123.586931 81.883243 
L 124.825188 77.901111 
L 126.063445 79.303256 
L 127.301703 85.954499 
L 128.53996 94.755587 
L 129.778217 102.727981 
L 131.016474 109.069452 
L 132.254732 114.228553 
L 133.492989 118.361626 
L 135.969504 125.055112 
L 137.207761 130.177059 
L 138.446018 137.676701 
L 139.684275 147.104261 
L 142.16079 168.284071 
L 144.637304 191.990925 
L 147.113819 216.942086 
L 148.352076 227.423488 
L 149.590334 234.904795 
L 150.828591 239.714451 
L 152.066848 243.515692 
L 153.305105 247.785932 
L 154.543363 253.321935 
L 157.019877 267.661055 
L 159.496392 281.817409 
L 160.734649 288.724998 
L 161.972906 296.310446 
L 163.211163 305.03332 
L 165.687678 324.48527 
L 166.925935 332.496789 
L 168.164193 337.570443 
L 169.40245 340.000597 
L 170.640707 341.448514 
L 171.878964 343.459824 
L 173.117222 346.454737 
L 175.593736 354.037551 
L 176.831993 357.165609 
L 178.070251 358.430786 
L 179.308508 357.221394 
L 180.546765 354.289469 
L 181.785022 351.812424 
L 183.02328 351.620302 
L 184.261537 353.617256 
L 187.976309 362.670096 
L 190.452823 367.711106 
L 191.691081 370.135054 
L 192.929338 373.055841 
L 194.167595 376.778467 
L 196.64411 385.029321 
L 197.882367 388.05691 
L 199.120624 388.932572 
L 200.358881 386.613987 
L 202.835396 376.590955 
L 204.073653 374.411537 
L 205.311911 376.076195 
L 206.550168 380.668363 
L 207.788425 387.04485 
L 211.503197 409.455384 
L 212.741454 414.928309 
L 213.979711 418.642166 
L 215.217969 420.761286 
L 216.456226 421.653331 
L 217.694483 421.881792 
L 218.93274 421.93645 
L 220.170998 422.122168 
L 221.409255 423.056016 
L 222.647512 425.586254 
L 223.88577 429.826055 
L 226.362284 439.721508 
L 227.600541 443.735409 
L 228.838799 446.897985 
L 230.077056 449.120365 
L 231.315313 449.892425 
L 232.55357 448.46447 
L 233.791828 444.472366 
L 235.030085 438.441763 
L 236.268342 431.65254 
L 237.5066 425.592661 
L 238.744857 421.461733 
L 239.983114 419.689262 
L 241.221371 419.741169 
L 242.459629 420.965562 
L 243.697886 423.462341 
L 244.936143 427.725014 
L 246.1744 434.157427 
L 247.412658 442.821083 
L 249.889172 462.125919 
L 251.127429 468.588454 
L 252.365687 470.747981 
L 253.603944 468.403437 
L 254.842201 462.709862 
L 256.080459 456.005875 
L 257.318716 451.007637 
L 258.556973 449.614704 
L 259.79523 452.173523 
L 261.033488 457.40394 
L 262.271745 463.270211 
L 263.510002 468.403999 
L 264.748259 472.287978 
L 265.986517 474.45425 
L 267.224774 474.773594 
L 268.463031 474.286122 
L 269.701288 474.690835 
L 270.939546 476.991904 
L 273.41606 484.375447 
L 274.654318 486.086958 
L 275.892575 485.090323 
L 277.130832 482.031625 
L 278.369089 478.561704 
L 279.607347 476.222556 
L 280.845604 475.614229 
L 282.083861 476.50052 
L 283.322118 478.29496 
L 284.560376 480.315389 
L 285.798633 481.912035 
L 287.03689 482.449471 
L 288.275147 481.275087 
L 289.513405 478.153581 
L 291.989919 469.599903 
L 293.228177 467.541742 
L 294.466434 469.01463 
L 295.704691 474.240135 
L 296.942948 482.321649 
L 299.419463 500.22855 
L 300.65772 505.82983 
L 301.895977 507.163887 
L 303.134235 504.762839 
L 304.372492 500.96837 
L 305.610749 498.14408 
L 306.849006 496.819755 
L 308.087264 495.858767 
L 309.325521 494.30653 
L 310.563778 492.573796 
L 311.802036 491.675265 
L 313.040293 491.99527 
L 314.27855 493.105893 
L 315.516807 494.466026 
L 316.755065 496.111687 
L 319.231579 500.087071 
L 320.469836 500.805534 
L 321.708094 499.987623 
L 324.184608 495.910902 
L 325.422866 494.4639 
L 326.661123 494.060686 
L 327.89938 494.424864 
L 330.375895 495.789016 
L 331.614152 496.829848 
L 332.852409 498.388821 
L 334.090666 500.403531 
L 335.328924 503.047096 
L 336.567181 506.953565 
L 337.805438 511.973114 
L 339.043695 516.467462 
L 340.281953 518.76919 
L 341.52021 518.642422 
L 342.758467 517.093967 
L 346.473239 511.591551 
L 347.711496 509.356092 
L 348.949754 507.873666 
L 350.188011 508.630112 
L 351.426268 512.144716 
L 353.902783 522.149191 
L 355.14104 525.5513 
L 356.379297 527.187894 
L 357.617554 527.016588 
L 358.855812 525.451295 
L 360.094069 523.606417 
L 361.332326 522.472053 
L 363.808841 521.803165 
L 365.047098 520.917121 
L 366.285355 519.242113 
L 370.000127 512.865081 
L 373.714899 507.369968 
L 374.953156 504.449988 
L 376.191413 500.253665 
L 378.667928 490.212425 
L 379.906185 486.489956 
L 381.144443 484.531488 
L 382.3827 483.856882 
L 383.620957 483.45778 
L 384.859214 482.477549 
L 386.097472 480.520221 
L 388.573986 474.884264 
L 389.812243 473.212414 
L 391.050501 473.556678 
L 393.527015 477.249663 
L 394.765272 477.496919 
L 396.00353 475.506855 
L 397.241787 471.454009 
L 400.956559 455.176063 
L 402.194816 451.433826 
L 403.433073 449.52028 
L 404.671331 448.953366 
L 405.909588 449.221885 
L 407.147845 450.102773 
L 408.386102 450.59398 
L 409.62436 449.053001 
L 410.862617 444.914858 
L 414.577389 427.718386 
L 415.815646 423.311855 
L 417.053903 420.666921 
L 418.292161 419.93004 
L 419.530418 421.127263 
L 420.768675 424.187009 
L 422.006932 428.211258 
L 423.24519 431.250535 
L 424.483447 431.106388 
L 425.721704 426.838625 
L 426.959961 419.910047 
L 428.198219 413.791473 
L 429.436476 412.070811 
L 430.674733 416.056771 
L 433.151248 431.549365 
L 434.389505 436.981206 
L 435.627762 439.955333 
L 436.86602 441.83962 
L 438.104277 444.032661 
L 439.342534 447.286083 
L 440.580791 451.382702 
L 441.819049 455.014573 
L 443.057306 456.501076 
L 444.295563 455.07806 
L 445.53382 451.447912 
L 446.772078 447.309339 
L 448.010335 444.742476 
L 449.248592 445.31153 
L 450.48685 448.870544 
L 451.725107 453.402833 
L 452.963364 456.494179 
L 454.201621 457.170705 
L 455.439879 456.188987 
L 456.678136 454.807786 
L 457.916393 453.99509 
L 459.15465 454.704166 
L 460.392908 457.787483 
L 461.631165 462.757108 
L 462.869422 467.262765 
L 464.107679 468.898061 
L 465.345937 467.158598 
L 466.584194 463.186148 
L 469.060709 453.985255 
L 470.298966 450.678945 
L 471.537223 449.323136 
L 472.77548 450.493594 
L 474.013738 454.0635 
L 476.490252 464.572315 
L 477.728509 468.322161 
L 478.966767 469.341421 
L 480.205024 468.284141 
L 481.443281 466.816694 
L 483.919796 464.852649 
L 485.158053 464.156773 
L 486.39631 464.42292 
L 487.634568 466.091212 
L 488.872825 469.130298 
L 490.111082 473.390902 
L 492.587597 483.00762 
L 493.825854 486.657895 
L 495.064111 488.79235 
L 496.302368 489.120186 
L 497.540626 488.030739 
L 498.778883 486.723209 
L 500.01714 486.21107 
L 502.493655 486.553495 
L 504.970169 486.137528 
L 506.208427 486.894049 
L 507.446684 489.760832 
L 508.684941 495.120227 
L 511.161456 508.295008 
L 512.399713 512.768557 
L 513.63797 514.539052 
L 514.876227 513.662227 
L 516.114485 510.75072 
L 517.352742 507.110888 
L 518.590999 504.635364 
L 519.829257 504.288666 
L 521.067514 505.376632 
L 522.305771 507.127873 
L 523.544028 509.676694 
L 524.782286 512.949649 
L 526.020543 515.864274 
L 527.2588 517.408542 
L 529.735315 518.254238 
L 530.973572 518.713837 
L 532.211829 518.775968 
L 533.450086 517.982873 
L 534.688344 516.072111 
L 535.926601 513.134151 
L 537.164858 509.882948 
L 538.403116 507.505127 
L 539.641373 507.056166 
L 540.87963 508.903118 
L 542.117887 512.688127 
L 543.356145 517.345598 
L 544.594402 521.148311 
L 545.832659 522.647588 
L 547.070916 521.837538 
L 548.309174 520.094913 
L 549.547431 518.936986 
L 550.785688 518.755226 
L 552.023945 518.800593 
L 554.50046 518.233305 
L 555.738717 519.135498 
L 556.976975 522.004246 
L 559.453489 531.114698 
L 560.691746 533.853249 
L 561.930004 533.67055 
L 563.168261 530.478506 
L 564.406518 525.104027 
L 566.883033 513.293267 
L 568.12129 508.435806 
L 573.074319 491.426448 
L 574.312576 487.900138 
L 575.550834 485.918427 
L 576.789091 486.183069 
L 578.027348 488.748509 
L 580.503863 496.963474 
L 581.74212 500.096962 
L 584.218634 503.646248 
L 585.456892 506.869242 
L 587.933406 515.804822 
L 589.171663 518.887698 
L 590.409921 520.450534 
L 591.648178 520.569542 
L 592.886435 519.873779 
L 594.124693 519.551093 
L 595.36295 520.399349 
L 597.839464 523.826621 
L 599.077722 524.538308 
L 600.315979 524.33023 
L 601.554236 523.879074 
L 602.792493 523.728062 
L 604.030751 523.763479 
L 605.269008 523.157873 
L 606.507265 520.99612 
L 608.98378 513.444501 
L 610.222037 510.586214 
L 611.460294 508.681819 
L 613.936809 505.459424 
L 615.175066 504.533156 
L 616.413323 504.885672 
L 617.651581 506.683557 
L 618.889838 509.534063 
L 620.128095 513.298416 
L 621.366352 518.190962 
L 623.842867 529.219122 
L 625.081124 532.990543 
L 626.319382 535.045715 
L 627.557639 536.10655 
L 628.795896 536.997933 
L 630.034153 538.287985 
L 633.748925 543.678694 
L 634.987182 545.166972 
L 636.22544 546.316854 
L 637.463697 546.600685 
L 638.701954 545.815406 
L 639.940211 544.097171 
L 641.178469 541.839756 
L 642.416726 540.124845 
L 643.654983 539.95262 
L 644.893241 541.069432 
L 646.131498 542.656313 
L 647.369755 544.433146 
L 648.608012 546.477738 
L 651.084527 551.009282 
L 652.322784 552.941794 
L 653.561041 554.126096 
L 654.799299 554.003923 
L 656.037556 552.067883 
L 657.275813 548.473268 
L 659.752328 540.246125 
L 660.990585 536.975331 
L 662.228842 534.561305 
L 663.4671 533.243129 
L 664.705357 533.262133 
L 665.943614 534.816697 
L 667.181871 537.788517 
L 668.420129 541.272753 
L 669.658386 543.681275 
L 670.896643 543.717656 
L 672.1349 541.379892 
L 673.373158 537.98233 
L 674.611415 535.305729 
L 675.849672 534.684728 
L 677.087929 536.592557 
L 678.326187 540.630959 
L 679.564444 545.482561 
L 680.802701 549.340293 
L 682.040959 551.105925 
L 683.279216 550.747652 
L 684.517473 548.321181 
L 685.75573 543.711443 
L 686.993988 537.711743 
L 688.232245 532.271928 
L 689.470502 529.14728 
L 690.708759 528.902605 
L 691.947017 530.999991 
L 693.185274 534.152578 
L 694.423531 536.885073 
L 695.661789 538.038172 
L 696.900046 536.969492 
L 698.138303 533.886233 
L 699.37656 529.915956 
L 700.614818 526.415206 
L 701.853075 524.249427 
L 703.091332 523.645004 
L 704.329589 524.286203 
L 705.567847 525.437354 
L 706.806104 526.293455 
L 708.044361 526.347924 
L 709.282618 525.41853 
L 710.520876 523.550559 
L 711.759133 520.907652 
L 714.235648 514.798369 
L 715.473905 512.384697 
L 716.712162 510.555166 
L 717.950419 509.238592 
L 720.426934 507.569464 
L 721.665191 506.210764 
L 722.903448 503.947737 
L 724.141706 500.534177 
L 725.379963 495.520201 
L 727.856477 482.567727 
L 729.094735 478.115455 
L 730.332992 476.250937 
L 731.571249 475.676856 
L 732.809507 474.825413 
L 734.047764 473.730646 
L 735.286021 473.419449 
L 737.762536 474.773099 
L 739.000793 475.178761 
L 740.23905 475.84237 
L 741.477307 477.053357 
L 742.715565 477.956705 
L 743.953822 477.404128 
L 745.192079 475.100251 
L 747.668594 468.285861 
L 748.906851 465.464728 
L 751.383366 460.746103 
L 753.85988 456.635358 
L 755.098137 454.14323 
L 756.336395 452.058581 
L 757.574652 452.425693 
L 758.812909 456.4679 
L 762.527681 476.795899 
L 763.765938 481.494825 
L 765.004195 483.835555 
L 766.242453 484.528048 
L 767.48071 485.92947 
L 768.718967 490.091637 
L 769.957225 496.825932 
L 771.195482 504.275194 
L 772.433739 510.727678 
L 773.671996 515.46144 
L 774.910254 518.62619 
L 776.148511 520.781871 
L 777.386768 522.398515 
L 778.625025 523.646616 
L 779.863283 524.407694 
L 781.10154 524.761535 
L 782.339797 525.457249 
L 783.578054 526.835905 
L 784.816312 527.949842 
L 786.054569 528.065642 
L 787.292826 527.9118 
L 788.531084 528.555767 
L 789.769341 529.857972 
L 791.007598 530.635163 
L 792.245855 530.076615 
L 793.484113 528.631423 
L 794.72237 527.735696 
L 795.960627 528.630735 
L 797.198884 531.320097 
L 798.437142 534.743436 
L 799.675399 537.374529 
L 800.913656 537.739168 
L 802.151914 535.339579 
L 803.390171 531.310881 
L 804.628428 528.025709 
L 805.866685 527.653496 
L 807.104943 530.455602 
L 808.3432 534.678028 
L 809.581457 538.371076 
L 810.819714 540.840382 
L 812.057972 542.362544 
L 813.296229 543.282864 
L 814.534486 543.866465 
L 815.772743 544.594909 
L 818.249258 547.022729 
L 819.487515 547.439758 
L 821.96403 546.401526 
L 823.202287 546.87926 
L 824.440544 548.732406 
L 825.678802 551.693265 
L 826.917059 554.95166 
L 828.155316 557.487848 
L 829.393573 558.489272 
L 830.631831 557.347342 
L 831.870088 554.057694 
L 833.108345 549.91416 
L 834.346602 546.779798 
L 835.58486 545.590046 
L 836.823117 546.028377 
L 840.537889 549.510825 
L 843.014403 552.329683 
L 844.252661 553.402809 
L 845.490918 553.978385 
L 846.729175 554.329264 
L 847.967432 555.06655 
L 849.20569 556.593761 
L 850.443947 558.615046 
L 851.682204 560.360685 
L 852.920461 561.202423 
L 854.158719 560.713008 
L 855.396976 558.583647 
L 856.635233 555.114849 
L 857.873491 551.285223 
L 859.111748 548.156563 
L 860.350005 546.488336 
L 861.588262 546.256379 
L 862.82652 546.453626 
L 864.064777 546.056939 
L 866.541291 544.056539 
L 867.779549 544.014674 
L 870.256063 545.503625 
L 871.49432 545.091307 
L 872.732578 543.232443 
L 875.209092 537.042173 
L 876.44735 534.637266 
L 877.685607 533.795921 
L 878.923864 534.666451 
L 880.162121 537.032207 
L 883.876893 546.912917 
L 885.11515 548.83545 
L 886.353408 549.331953 
L 887.591665 548.325808 
L 888.829922 545.968848 
L 890.06818 542.579012 
L 892.544694 535.195967 
L 893.782951 532.578835 
L 895.021209 531.0618 
L 896.259466 530.792642 
L 897.497723 532.014884 
L 898.73598 534.580248 
L 899.974238 537.543882 
L 901.212495 539.653724 
L 902.450752 540.121445 
L 903.689009 538.864604 
L 904.927267 536.411942 
L 907.403781 530.528482 
L 908.642039 528.315734 
L 909.880296 527.052147 
L 911.118553 526.079645 
L 912.35681 524.747845 
L 914.833325 521.782655 
L 916.071582 520.818133 
L 917.309839 520.756853 
L 918.548097 521.835903 
L 919.786354 523.547786 
L 921.024611 524.98245 
L 922.262868 525.632475 
L 923.501126 525.958516 
L 924.739383 526.830514 
L 925.97764 528.497291 
L 928.454155 532.73812 
L 929.692412 534.418511 
L 930.930669 535.045444 
L 932.168927 534.462435 
L 935.883698 530.808027 
L 938.360213 527.718499 
L 939.59847 526.540626 
L 940.836727 525.888596 
L 942.074985 525.486705 
L 943.313242 524.818131 
L 945.789757 522.539556 
L 947.028014 522.400013 
L 948.266271 523.125346 
L 949.504528 523.039639 
L 950.742786 520.593919 
L 951.981043 516.020521 
L 953.2193 510.801001 
L 954.457557 506.11647 
L 955.695815 502.280509 
L 956.934072 499.139782 
L 959.410586 493.914747 
L 960.648844 491.559648 
L 961.887101 489.73937 
L 963.125358 488.968495 
L 964.363616 489.275049 
L 965.601873 490.076644 
L 966.84013 490.632704 
L 968.078387 490.066839 
L 969.316645 487.149421 
L 970.554902 481.073546 
L 973.031416 465.129753 
L 974.269674 460.427081 
L 975.507931 458.832079 
L 976.746188 458.196253 
L 977.984446 455.6481 
L 979.222703 449.403402 
L 980.46096 439.769175 
L 981.699217 429.034356 
L 982.937475 420.617179 
L 984.175732 417.563313 
L 985.413989 420.882599 
L 986.652246 428.79942 
L 987.890504 437.74496 
L 989.128761 444.411887 
L 990.367018 447.225105 
L 991.605275 446.621862 
L 994.08179 441.667253 
L 995.320047 439.797115 
L 996.558305 439.149579 
L 997.796562 439.765382 
L 999.034819 440.625775 
L 1000.273076 440.185015 
L 1001.511334 437.789327 
L 1002.749591 433.773254 
L 1003.987848 428.578183 
L 1006.464363 416.762954 
L 1007.70262 412.183031 
L 1008.940877 409.941023 
L 1010.179134 410.020221 
L 1011.417392 411.388904 
L 1012.655649 413.102221 
L 1013.893906 414.535135 
L 1015.132164 414.930191 
L 1016.370421 413.938639 
L 1017.608678 412.43302 
L 1018.846935 411.975072 
L 1020.085193 413.252205 
L 1021.32345 415.097381 
L 1022.561707 414.95598 
L 1023.799964 410.600849 
L 1025.038222 401.883678 
L 1027.514736 379.667142 
L 1028.752993 369.776736 
L 1029.991251 361.267088 
L 1031.229508 354.394302 
L 1032.467765 349.949016 
L 1033.706023 348.03795 
L 1036.182537 346.695088 
L 1037.420794 345.896017 
L 1039.897309 344.493836 
L 1041.135566 343.137197 
L 1042.373823 340.283695 
L 1043.612081 334.992729 
L 1044.850338 327.938576 
L 1046.088595 321.649039 
L 1047.326852 318.518275 
L 1048.56511 319.637506 
L 1049.803367 324.695026 
L 1053.518139 346.371406 
L 1054.756396 350.778343 
L 1055.994653 352.244294 
L 1057.232911 352.031558 
L 1058.471168 352.572031 
L 1059.709425 354.795626 
L 1060.947682 357.886264 
L 1062.18594 361.442292 
L 1063.424197 366.374301 
L 1064.662454 373.627977 
L 1068.377226 400.830484 
L 1069.615483 407.72527 
L 1070.853741 412.980898 
L 1072.091998 416.360366 
L 1073.330255 417.344336 
L 1074.568512 415.965784 
L 1075.80677 413.594175 
L 1077.045027 412.780169 
L 1078.283284 415.950997 
L 1079.521541 423.375498 
L 1080.759799 432.36981 
L 1081.998056 439.51397 
L 1083.236313 443.358479 
L 1084.474571 444.525431 
L 1085.712828 444.206584 
L 1086.951085 442.971139 
L 1088.189342 440.602225 
L 1089.4276 436.81078 
L 1090.665857 431.672329 
L 1093.142371 419.321599 
L 1094.380629 414.158776 
L 1096.857143 406.723318 
L 1098.0954 400.732993 
L 1099.333658 391.377816 
L 1101.810172 368.829848 
L 1103.04843 362.34194 
L 1104.286687 361.693102 
L 1105.524944 365.238894 
L 1106.763201 369.650155 
L 1108.001459 372.076737 
L 1109.239716 371.3398 
L 1110.477973 367.80826 
L 1111.71623 362.677382 
L 1112.954488 356.891057 
L 1114.192745 350.492097 
L 1115.431002 343.203397 
L 1117.907517 327.234889 
L 1119.145774 320.252912 
L 1120.384031 314.807928 
L 1124.098803 302.430667 
L 1125.33706 298.568366 
L 1126.575318 296.008829 
L 1127.813575 295.1716 
L 1129.051832 296.039967 
L 1131.528347 299.977156 
L 1132.766604 300.398392 
L 1134.004861 299.133047 
L 1135.243118 296.331569 
L 1136.481376 291.663958 
L 1137.719633 285.948683 
L 1138.95789 281.697764 
L 1140.196148 280.414833 
L 1141.434405 280.963215 
L 1142.672662 281.070867 
L 1143.910919 279.595893 
L 1145.149177 277.347042 
L 1146.387434 276.094987 
L 1147.625691 276.48482 
L 1148.863948 276.745599 
L 1150.102206 274.2744 
L 1151.340463 268.381598 
L 1152.57872 260.818106 
L 1153.816977 254.178746 
L 1155.055235 249.848179 
L 1156.293492 246.655782 
L 1157.531749 241.950109 
L 1160.008264 227.812677 
L 1161.246521 222.952798 
L 1162.484778 220.114814 
L 1164.961293 215.565122 
L 1166.19955 212.292006 
L 1167.437807 207.288409 
L 1168.676065 201.125806 
L 1169.914322 195.636126 
L 1171.152579 191.653869 
L 1173.629094 185.238166 
L 1174.867351 183.261348 
L 1176.105608 184.140958 
L 1177.343866 188.398027 
L 1181.058637 207.039482 
L 1182.296895 210.651233 
L 1184.773409 214.907335 
L 1186.011666 218.855159 
L 1187.249924 224.908283 
L 1188.488181 232.139603 
L 1189.726438 238.442486 
L 1190.964696 240.666541 
L 1192.202953 235.959805 
L 1193.44121 223.861015 
L 1195.917725 189.97611 
L 1197.155982 177.195162 
L 1198.394239 170.349327 
L 1199.632496 167.692507 
L 1200.870754 166.084798 
L 1202.109011 163.846306 
L 1203.347268 162.122469 
L 1204.585525 163.708071 
L 1205.823783 170.373363 
L 1208.300297 191.101078 
L 1209.538555 197.231073 
L 1210.776812 197.564663 
L 1212.015069 192.96252 
L 1214.491584 179.248108 
L 1215.729841 174.039619 
L 1218.206355 166.119751 
L 1220.68287 158.933684 
L 1221.921127 154.828978 
L 1223.159384 149.640637 
L 1224.397642 143.206605 
L 1225.635899 134.864013 
L 1226.874156 123.327882 
L 1228.112414 108.318076 
L 1230.588928 74.847314 
L 1231.827185 60.735506 
L 1233.065443 51.188892 
L 1234.3037 47.979282 
L 1235.541957 51.818869 
L 1236.780214 62.118714 
L 1238.018472 77.941195 
L 1239.256729 98.940159 
L 1241.733243 148.336039 
L 1242.971501 168.449749 
L 1244.209758 183.429966 
L 1246.686273 209.980748 
L 1251.639302 270.801053 
L 1252.877559 281.583012 
L 1254.115816 290.049775 
L 1256.592331 304.186222 
L 1259.068845 317.401618 
L 1260.307103 321.82011 
L 1261.54536 323.620675 
L 1262.783617 324.175082 
L 1264.021874 325.088781 
L 1265.260132 326.478698 
L 1266.498389 326.654381 
L 1267.736646 323.129545 
L 1268.974903 314.733606 
L 1271.451418 291.066786 
L 1272.689675 282.191936 
L 1273.927932 277.206158 
L 1275.16619 274.656074 
L 1276.404447 272.647838 
L 1278.880962 268.230788 
L 1280.119219 266.708915 
L 1281.357476 266.553333 
L 1282.595733 268.375345 
L 1283.833991 272.045397 
L 1286.310505 280.267742 
L 1287.548762 283.848686 
L 1288.78702 286.64163 
L 1290.025277 286.530501 
L 1291.263534 281.101426 
L 1292.501791 269.999357 
L 1297.454821 212.292231 
L 1298.693078 204.327223 
L 1299.931335 202.576374 
L 1301.169592 205.957754 
L 1302.40785 211.254083 
L 1303.646107 215.642069 
L 1304.884364 217.88388 
L 1306.122621 217.999218 
L 1307.360879 217.153898 
L 1308.599136 217.373804 
L 1309.837393 220.344453 
L 1311.07565 226.048337 
L 1312.313908 232.300989 
L 1313.552165 236.238499 
L 1314.790422 236.855536 
L 1316.02868 236.045909 
L 1317.266937 237.018475 
L 1318.505194 241.62198 
L 1320.981709 256.970758 
L 1322.219966 262.138822 
L 1323.458223 262.766626 
L 1324.69648 259.073506 
L 1325.934738 253.81109 
L 1327.172995 250.890789 
L 1328.411252 252.613594 
L 1329.649509 259.087515 
L 1330.887767 269.87463 
L 1332.126024 284.303188 
L 1333.364281 300.198124 
L 1334.602539 314.069856 
L 1335.840796 323.476403 
L 1337.079053 328.617474 
L 1339.555568 334.329803 
L 1340.793825 339.35025 
L 1342.032082 347.908387 
L 1343.270339 359.851853 
L 1344.508597 373.13956 
L 1345.746854 384.894544 
L 1346.985111 393.252514 
L 1348.223368 398.064401 
L 1349.461626 400.456022 
L 1350.699883 401.894497 
L 1351.93814 402.928345 
L 1353.176398 403.064689 
L 1354.414655 402.128834 
L 1355.652912 400.621505 
L 1356.891169 398.425846 
L 1358.129427 394.421651 
L 1359.367684 387.660678 
L 1360.605941 378.357223 
L 1363.082456 357.440033 
L 1364.320713 348.463176 
L 1366.797228 333.889684 
L 1369.273742 319.999796 
L 1370.511999 311.877004 
L 1371.750257 302.042611 
L 1374.226771 279.004361 
L 1376.703286 253.860309 
L 1377.941543 240.667283 
L 1379.1798 229.428287 
L 1380.418057 223.021133 
L 1381.656315 223.519059 
L 1382.894572 230.142933 
L 1385.371087 248.084348 
L 1386.609344 254.488451 
L 1387.847601 259.245922 
L 1389.085858 263.457671 
L 1390.324116 266.440306 
L 1391.562373 266.383938 
L 1392.80063 263.124129 
L 1397.753659 243.689669 
L 1400.230174 233.348808 
L 1401.468431 229.833516 
L 1402.706688 229.927055 
L 1403.944946 235.204476 
L 1405.183203 245.474787 
L 1407.659717 270.36854 
L 1408.897975 278.443192 
L 1410.136232 282.672574 
L 1411.374489 284.386856 
L 1412.612746 283.999854 
L 1413.851004 281.519008 
L 1417.565775 269.837697 
L 1418.804033 267.43739 
L 1420.04229 267.482267 
L 1421.280547 270.852324 
L 1422.518805 277.45677 
L 1424.995319 294.320482 
L 1426.233576 300.790191 
L 1427.471834 304.070873 
L 1428.710091 303.256144 
L 1429.948348 298.254909 
L 1432.424863 283.365007 
L 1433.66312 279.273 
L 1434.901377 279.377411 
L 1436.139634 282.631737 
L 1437.377892 287.809857 
L 1439.854406 300.69687 
L 1441.092664 303.920756 
L 1442.330921 302.434867 
L 1443.569178 297.565259 
L 1448.522207 274.351584 
L 1449.760464 269.281243 
L 1450.998722 265.202874 
L 1452.236979 262.913187 
L 1453.475236 263.463023 
L 1454.713494 267.669194 
L 1455.951751 275.893705 
L 1457.190008 287.436468 
L 1459.666523 312.893868 
L 1460.90478 323.700227 
L 1462.143037 331.667258 
L 1463.381294 335.576425 
L 1464.619552 335.04289 
L 1467.096066 328.192276 
L 1468.334323 327.387378 
L 1469.572581 329.606667 
L 1470.810838 333.858341 
L 1473.287353 344.110435 
L 1474.52561 348.587512 
L 1477.002124 356.614132 
L 1478.240382 360.06601 
L 1479.478639 361.49595 
L 1480.716896 360.018621 
L 1481.955153 356.277727 
L 1483.193411 352.096462 
L 1484.431668 349.672238 
L 1485.669925 350.482291 
L 1488.14644 357.824487 
L 1489.384697 358.140193 
L 1490.622954 352.81166 
L 1491.861212 342.00738 
L 1494.337726 314.672789 
L 1495.575983 304.275445 
L 1496.814241 297.48553 
L 1498.052498 293.886375 
L 1499.290755 293.471827 
L 1500.529012 296.387293 
L 1503.005527 307.468924 
L 1504.243784 309.257144 
L 1505.482041 304.890987 
L 1506.720299 296.423778 
L 1507.958556 289.410943 
L 1509.196813 288.457461 
L 1510.435071 293.278221 
L 1511.673328 299.339877 
L 1512.911585 302.693134 
L 1514.149842 303.114805 
L 1515.3881 302.730426 
L 1516.626357 303.137625 
L 1517.864614 303.987037 
L 1519.102871 303.976623 
L 1520.341129 302.303458 
L 1521.579386 298.742118 
L 1524.0559 288.297794 
L 1525.294158 283.097183 
L 1526.532415 278.822943 
L 1527.770672 277.070087 
L 1529.00893 279.223091 
L 1530.247187 284.95909 
L 1531.485444 293.000371 
L 1532.723701 302.772402 
L 1536.438473 336.591717 
L 1537.67673 343.489113 
L 1538.914988 345.776118 
L 1540.153245 343.59961 
L 1541.391502 339.025827 
L 1542.62976 335.610988 
L 1543.868017 335.641239 
L 1545.106274 338.583802 
L 1546.344531 342.737547 
L 1547.582789 346.42048 
L 1548.821046 347.574699 
L 1550.059303 344.736286 
L 1551.29756 338.664037 
L 1552.535818 331.970729 
L 1553.774075 327.879093 
L 1555.012332 329.184074 
L 1556.250589 336.406078 
L 1558.727104 356.33674 
L 1559.965361 363.083464 
L 1561.203619 367.033442 
L 1562.441876 368.756174 
L 1563.680133 369.264028 
L 1564.91839 370.207441 
L 1566.156648 372.771474 
L 1568.633162 380.776416 
L 1569.871419 382.98209 
L 1571.109677 382.415634 
L 1573.586191 376.929187 
L 1574.824448 376.306195 
L 1576.062706 378.729762 
L 1578.53922 387.762283 
L 1579.777478 390.591532 
L 1581.015735 390.678217 
L 1582.253992 387.782004 
L 1585.968764 373.116566 
L 1587.207021 368.633983 
L 1588.445278 363.10738 
L 1590.921793 349.029073 
L 1592.16005 343.121374 
L 1593.398307 339.048078 
L 1594.636565 335.882069 
L 1595.874822 331.564558 
L 1597.113079 323.781529 
L 1598.351337 311.491653 
L 1600.827851 280.239868 
L 1602.066108 267.033253 
L 1603.304366 257.710854 
L 1604.542623 251.84627 
L 1607.019137 244.078974 
L 1608.257395 240.92218 
L 1609.495652 239.423271 
L 1610.733909 239.841566 
L 1613.210424 243.30332 
L 1614.448681 242.310643 
L 1615.686938 236.632303 
L 1616.925196 226.891951 
L 1620.639967 192.540467 
L 1621.878225 183.908755 
L 1623.116482 178.849018 
L 1624.354739 178.238183 
L 1625.592996 181.653579 
L 1626.831254 187.361765 
L 1630.546026 207.145663 
L 1631.784283 212.019585 
L 1633.02254 214.207747 
L 1634.260797 214.440802 
L 1635.499055 214.406146 
L 1636.737312 216.089298 
L 1637.975569 221.674918 
L 1639.213826 232.644951 
L 1640.452084 248.831528 
L 1641.690341 268.271743 
L 1641.690341 268.271743 
" style="fill:none;stroke:#008000;stroke-linecap:square;stroke-width:1.5;"/>
   </g>
   <g id="patch_3">
    <path d="M 43.78125 586.86358 
L 43.78125 22.318125 
" style="fill:none;stroke:#000000;stroke-linecap:square;stroke-linejoin:miter;stroke-width:0.8;"/>
   </g>
   <g id="patch_4">
    <path d="M 1717.78125 586.86358 
L 1717.78125 22.318125 
" style="fill:none;stroke:#000000;stroke-linecap:square;stroke-linejoin:miter;stroke-width:0.8;"/>
   </g>
   <g id="patch_5">
    <path d="M 43.78125 586.86358 
L 1717.78125 586.86358 
" style="fill:none;stroke:#000000;stroke-linecap:square;stroke-linejoin:miter;stroke-width:0.8;"/>
   </g>
   <g id="patch_6">
    <path d="M 43.78125 22.318125 
L 1717.78125 22.318125 
" style="fill:none;stroke:#000000;stroke-linecap:square;stroke-linejoin:miter;stroke-width:0.8;"/>
   </g>
   <g id="text_18">
    <!-- before binarisation -->
    <g transform="translate(824.1825 16.318125)scale(0.12 -0.12)">
     <defs>
      <path d="M 3116 1747 
Q 3116 2381 2855 2742 
Q 2594 3103 2138 3103 
Q 1681 3103 1420 2742 
Q 1159 2381 1159 1747 
Q 1159 1113 1420 752 
Q 1681 391 2138 391 
Q 2594 391 2855 752 
Q 3116 1113 3116 1747 
z
M 1159 2969 
Q 1341 3281 1617 3432 
Q 1894 3584 2278 3584 
Q 2916 3584 3314 3078 
Q 3713 2572 3713 1747 
Q 3713 922 3314 415 
Q 2916 -91 2278 -91 
Q 1894 -91 1617 61 
Q 1341 213 1159 525 
L 1159 0 
L 581 0 
L 581 4863 
L 1159 4863 
L 1159 2969 
z
" id="DejaVuSans-62" transform="scale(0.015625)"/>
      <path d="M 1959 3097 
Q 1497 3097 1228 2736 
Q 959 2375 959 1747 
Q 959 1119 1226 758 
Q 1494 397 1959 397 
Q 2419 397 2687 759 
Q 2956 1122 2956 1747 
Q 2956 2369 2687 2733 
Q 2419 3097 1959 3097 
z
M 1959 3584 
Q 2709 3584 3137 3096 
Q 3566 2609 3566 1747 
Q 3566 888 3137 398 
Q 2709 -91 1959 -91 
Q 1206 -91 779 398 
Q 353 888 353 1747 
Q 353 2609 779 3096 
Q 1206 3584 1959 3584 
z
" id="DejaVuSans-6f" transform="scale(0.015625)"/>
      <path id="DejaVuSans-20" transform="scale(0.015625)"/>
      <path d="M 603 3500 
L 1178 3500 
L 1178 0 
L 603 0 
L 603 3500 
z
M 603 4863 
L 1178 4863 
L 1178 4134 
L 603 4134 
L 603 4863 
z
" id="DejaVuSans-69" transform="scale(0.015625)"/>
      <path d="M 3513 2113 
L 3513 0 
L 2938 0 
L 2938 2094 
Q 2938 2591 2744 2837 
Q 2550 3084 2163 3084 
Q 1697 3084 1428 2787 
Q 1159 2491 1159 1978 
L 1159 0 
L 581 0 
L 581 3500 
L 1159 3500 
L 1159 2956 
Q 1366 3272 1645 3428 
Q 1925 3584 2291 3584 
Q 2894 3584 3203 3211 
Q 3513 2838 3513 2113 
z
" id="DejaVuSans-6e" transform="scale(0.015625)"/>
      <path d="M 2834 3397 
L 2834 2853 
Q 2591 2978 2328 3040 
Q 2066 3103 1784 3103 
Q 1356 3103 1142 2972 
Q 928 2841 928 2578 
Q 928 2378 1081 2264 
Q 1234 2150 1697 2047 
L 1894 2003 
Q 2506 1872 2764 1633 
Q 3022 1394 3022 966 
Q 3022 478 2636 193 
Q 2250 -91 1575 -91 
Q 1294 -91 989 -36 
Q 684 19 347 128 
L 347 722 
Q 666 556 975 473 
Q 1284 391 1588 391 
Q 1994 391 2212 530 
Q 2431 669 2431 922 
Q 2431 1156 2273 1281 
Q 2116 1406 1581 1522 
L 1381 1569 
Q 847 1681 609 1914 
Q 372 2147 372 2553 
Q 372 3047 722 3315 
Q 1072 3584 1716 3584 
Q 2034 3584 2315 3537 
Q 2597 3491 2834 3397 
z
" id="DejaVuSans-73" transform="scale(0.015625)"/>
      <path d="M 1172 4494 
L 1172 3500 
L 2356 3500 
L 2356 3053 
L 1172 3053 
L 1172 1153 
Q 1172 725 1289 603 
Q 1406 481 1766 481 
L 2356 481 
L 2356 0 
L 1766 0 
Q 1100 0 847 248 
Q 594 497 594 1153 
L 594 3053 
L 172 3053 
L 172 3500 
L 594 3500 
L 594 4494 
L 1172 4494 
z
" id="DejaVuSans-74" transform="scale(0.015625)"/>
     </defs>
     <use xlink:href="#DejaVuSans-62"/>
     <use x="63.476562" xlink:href="#DejaVuSans-65"/>
     <use x="125" xlink:href="#DejaVuSans-66"/>
     <use x="160.205078" xlink:href="#DejaVuSans-6f"/>
     <use x="221.386719" xlink:href="#DejaVuSans-72"/>
     <use x="260.25" xlink:href="#DejaVuSans-65"/>
     <use x="321.773438" xlink:href="#DejaVuSans-20"/>
     <use x="353.560547" xlink:href="#DejaVuSans-62"/>
     <use x="417.037109" xlink:href="#DejaVuSans-69"/>
     <use x="444.820312" xlink:href="#DejaVuSans-6e"/>
     <use x="508.199219" xlink:href="#DejaVuSans-61"/>
     <use x="569.478516" xlink:href="#DejaVuSans-72"/>
     <use x="610.591797" xlink:href="#DejaVuSans-69"/>
     <use x="638.375" xlink:href="#DejaVuSans-73"/>
     <use x="690.474609" xlink:href="#DejaVuSans-61"/>
     <use x="751.753906" xlink:href="#DejaVuSans-74"/>
     <use x="790.962891" xlink:href="#DejaVuSans-69"/>
     <use x="818.746094" xlink:href="#DejaVuSans-6f"/>
     <use x="879.927734" xlink:href="#DejaVuSans-6e"/>
    </g>
   </g>
  </g>
  <g id="axes_2">
   <g id="patch_7">
    <path d="M 43.78125 1264.318125 
L 1717.78125 1264.318125 
L 1717.78125 699.77267 
L 43.78125 699.77267 
z
" style="fill:#ffffff;"/>
   </g>
   <g id="matplotlib.axis_3">
    <g id="xtick_8">
     <g id="line2d_17">
      <g>
       <use style="stroke:#000000;stroke-width:0.8;" x="119.872159" xlink:href="#m9754645150" y="1264.318125"/>
      </g>
     </g>
     <g id="text_19">
      <!-- 0 -->
      <g transform="translate(116.690909 1278.916563)scale(0.1 -0.1)">
       <use xlink:href="#DejaVuSans-30"/>
      </g>
     </g>
    </g>
    <g id="xtick_9">
     <g id="line2d_18">
      <g>
       <use style="stroke:#000000;stroke-width:0.8;" x="367.523613" xlink:href="#m9754645150" y="1264.318125"/>
      </g>
     </g>
     <g id="text_20">
      <!-- 200 -->
      <g transform="translate(357.979863 1278.916563)scale(0.1 -0.1)">
       <use xlink:href="#DejaVuSans-32"/>
       <use x="63.623047" xlink:href="#DejaVuSans-30"/>
       <use x="127.246094" xlink:href="#DejaVuSans-30"/>
      </g>
     </g>
    </g>
    <g id="xtick_10">
     <g id="line2d_19">
      <g>
       <use style="stroke:#000000;stroke-width:0.8;" x="615.175066" xlink:href="#m9754645150" y="1264.318125"/>
      </g>
     </g>
     <g id="text_21">
      <!-- 400 -->
      <g transform="translate(605.631316 1278.916563)scale(0.1 -0.1)">
       <use xlink:href="#DejaVuSans-34"/>
       <use x="63.623047" xlink:href="#DejaVuSans-30"/>
       <use x="127.246094" xlink:href="#DejaVuSans-30"/>
      </g>
     </g>
    </g>
    <g id="xtick_11">
     <g id="line2d_20">
      <g>
       <use style="stroke:#000000;stroke-width:0.8;" x="862.82652" xlink:href="#m9754645150" y="1264.318125"/>
      </g>
     </g>
     <g id="text_22">
      <!-- 600 -->
      <g transform="translate(853.28277 1278.916563)scale(0.1 -0.1)">
       <use xlink:href="#DejaVuSans-36"/>
       <use x="63.623047" xlink:href="#DejaVuSans-30"/>
       <use x="127.246094" xlink:href="#DejaVuSans-30"/>
      </g>
     </g>
    </g>
    <g id="xtick_12">
     <g id="line2d_21">
      <g>
       <use style="stroke:#000000;stroke-width:0.8;" x="1110.477973" xlink:href="#m9754645150" y="1264.318125"/>
      </g>
     </g>
     <g id="text_23">
      <!-- 800 -->
      <g transform="translate(1100.934223 1278.916563)scale(0.1 -0.1)">
       <use xlink:href="#DejaVuSans-38"/>
       <use x="63.623047" xlink:href="#DejaVuSans-30"/>
       <use x="127.246094" xlink:href="#DejaVuSans-30"/>
      </g>
     </g>
    </g>
    <g id="xtick_13">
     <g id="line2d_22">
      <g>
       <use style="stroke:#000000;stroke-width:0.8;" x="1358.129427" xlink:href="#m9754645150" y="1264.318125"/>
      </g>
     </g>
     <g id="text_24">
      <!-- 1000 -->
      <g transform="translate(1345.404427 1278.916563)scale(0.1 -0.1)">
       <use xlink:href="#DejaVuSans-31"/>
       <use x="63.623047" xlink:href="#DejaVuSans-30"/>
       <use x="127.246094" xlink:href="#DejaVuSans-30"/>
       <use x="190.869141" xlink:href="#DejaVuSans-30"/>
      </g>
     </g>
    </g>
    <g id="xtick_14">
     <g id="line2d_23">
      <g>
       <use style="stroke:#000000;stroke-width:0.8;" x="1605.78088" xlink:href="#m9754645150" y="1264.318125"/>
      </g>
     </g>
     <g id="text_25">
      <!-- 1200 -->
      <g transform="translate(1593.05588 1278.916563)scale(0.1 -0.1)">
       <use xlink:href="#DejaVuSans-31"/>
       <use x="63.623047" xlink:href="#DejaVuSans-32"/>
       <use x="127.246094" xlink:href="#DejaVuSans-30"/>
       <use x="190.869141" xlink:href="#DejaVuSans-30"/>
      </g>
     </g>
    </g>
    <g id="text_26">
     <!-- frame -->
     <g transform="translate(865.954687 1292.594688)scale(0.1 -0.1)">
      <use xlink:href="#DejaVuSans-66"/>
      <use x="35.205078" xlink:href="#DejaVuSans-72"/>
      <use x="76.318359" xlink:href="#DejaVuSans-61"/>
      <use x="137.597656" xlink:href="#DejaVuSans-6d"/>
      <use x="235.009766" xlink:href="#DejaVuSans-65"/>
     </g>
    </g>
   </g>
   <g id="matplotlib.axis_4">
    <g id="ytick_9">
     <g id="line2d_24">
      <g>
       <use style="stroke:#000000;stroke-width:0.8;" x="43.78125" xlink:href="#m9e21102403" y="1238.656968"/>
      </g>
     </g>
     <g id="text_27">
      <!-- 0.0 -->
      <g transform="translate(20.878125 1242.456187)scale(0.1 -0.1)">
       <defs>
        <path d="M 684 794 
L 1344 794 
L 1344 0 
L 684 0 
L 684 794 
z
" id="DejaVuSans-2e" transform="scale(0.015625)"/>
       </defs>
       <use xlink:href="#DejaVuSans-30"/>
       <use x="63.623047" xlink:href="#DejaVuSans-2e"/>
       <use x="95.410156" xlink:href="#DejaVuSans-30"/>
      </g>
     </g>
    </g>
    <g id="ytick_10">
     <g id="line2d_25">
      <g>
       <use style="stroke:#000000;stroke-width:0.8;" x="43.78125" xlink:href="#m9e21102403" y="1136.01234"/>
      </g>
     </g>
     <g id="text_28">
      <!-- 0.2 -->
      <g transform="translate(20.878125 1139.811559)scale(0.1 -0.1)">
       <use xlink:href="#DejaVuSans-30"/>
       <use x="63.623047" xlink:href="#DejaVuSans-2e"/>
       <use x="95.410156" xlink:href="#DejaVuSans-32"/>
      </g>
     </g>
    </g>
    <g id="ytick_11">
     <g id="line2d_26">
      <g>
       <use style="stroke:#000000;stroke-width:0.8;" x="43.78125" xlink:href="#m9e21102403" y="1033.367712"/>
      </g>
     </g>
     <g id="text_29">
      <!-- 0.4 -->
      <g transform="translate(20.878125 1037.166931)scale(0.1 -0.1)">
       <use xlink:href="#DejaVuSans-30"/>
       <use x="63.623047" xlink:href="#DejaVuSans-2e"/>
       <use x="95.410156" xlink:href="#DejaVuSans-34"/>
      </g>
     </g>
    </g>
    <g id="ytick_12">
     <g id="line2d_27">
      <g>
       <use style="stroke:#000000;stroke-width:0.8;" x="43.78125" xlink:href="#m9e21102403" y="930.723084"/>
      </g>
     </g>
     <g id="text_30">
      <!-- 0.6 -->
      <g transform="translate(20.878125 934.522302)scale(0.1 -0.1)">
       <use xlink:href="#DejaVuSans-30"/>
       <use x="63.623047" xlink:href="#DejaVuSans-2e"/>
       <use x="95.410156" xlink:href="#DejaVuSans-36"/>
      </g>
     </g>
    </g>
    <g id="ytick_13">
     <g id="line2d_28">
      <g>
       <use style="stroke:#000000;stroke-width:0.8;" x="43.78125" xlink:href="#m9e21102403" y="828.078456"/>
      </g>
     </g>
     <g id="text_31">
      <!-- 0.8 -->
      <g transform="translate(20.878125 831.877674)scale(0.1 -0.1)">
       <use xlink:href="#DejaVuSans-30"/>
       <use x="63.623047" xlink:href="#DejaVuSans-2e"/>
       <use x="95.410156" xlink:href="#DejaVuSans-38"/>
      </g>
     </g>
    </g>
    <g id="ytick_14">
     <g id="line2d_29">
      <g>
       <use style="stroke:#000000;stroke-width:0.8;" x="43.78125" xlink:href="#m9e21102403" y="725.433827"/>
      </g>
     </g>
     <g id="text_32">
      <!-- 1.0 -->
      <g transform="translate(20.878125 729.233046)scale(0.1 -0.1)">
       <use xlink:href="#DejaVuSans-31"/>
       <use x="63.623047" xlink:href="#DejaVuSans-2e"/>
       <use x="95.410156" xlink:href="#DejaVuSans-30"/>
      </g>
     </g>
    </g>
    <g id="text_33">
     <!-- GCaMP -->
     <g transform="translate(14.798437 999.803991)rotate(-90)scale(0.1 -0.1)">
      <use xlink:href="#DejaVuSans-47"/>
      <use x="77.490234" xlink:href="#DejaVuSans-43"/>
      <use x="147.314453" xlink:href="#DejaVuSans-61"/>
      <use x="208.59375" xlink:href="#DejaVuSans-4d"/>
      <use x="294.873047" xlink:href="#DejaVuSans-50"/>
     </g>
    </g>
   </g>
   <g id="line2d_30">
    <path clip-path="url(#pd5edaca7a6)" d="M 119.872159 725.433827 
L 158.258134 725.433827 
L 159.496392 1238.656968 
L 1143.910919 1238.656968 
L 1145.149177 725.433827 
L 1251.639302 725.433827 
L 1252.877559 1238.656968 
L 1272.689675 1238.656968 
L 1273.927932 725.433827 
L 1285.072248 725.433827 
L 1286.310505 1238.656968 
L 1291.263534 1238.656968 
L 1292.501791 725.433827 
L 1330.887767 725.433827 
L 1332.126024 1238.656968 
L 1374.226771 1238.656968 
L 1375.465028 725.433827 
L 1408.897975 725.433827 
L 1410.136232 1238.656968 
L 1413.851004 1238.656968 
L 1415.089261 725.433827 
L 1422.518805 725.433827 
L 1423.757062 1238.656968 
L 1447.28395 1238.656968 
L 1448.522207 725.433827 
L 1455.951751 725.433827 
L 1457.190008 1238.656968 
L 1526.532415 1238.656968 
L 1527.770672 725.433827 
L 1529.00893 1238.656968 
L 1600.827851 1238.656968 
L 1602.066108 725.433827 
L 1641.690341 725.433827 
L 1641.690341 725.433827 
" style="fill:none;stroke:#008000;stroke-linecap:square;stroke-width:1.5;"/>
   </g>
   <g id="patch_8">
    <path d="M 43.78125 1264.318125 
L 43.78125 699.77267 
" style="fill:none;stroke:#000000;stroke-linecap:square;stroke-linejoin:miter;stroke-width:0.8;"/>
   </g>
   <g id="patch_9">
    <path d="M 1717.78125 1264.318125 
L 1717.78125 699.77267 
" style="fill:none;stroke:#000000;stroke-linecap:square;stroke-linejoin:miter;stroke-width:0.8;"/>
   </g>
   <g id="patch_10">
    <path d="M 43.78125 1264.318125 
L 1717.78125 1264.318125 
" style="fill:none;stroke:#000000;stroke-linecap:square;stroke-linejoin:miter;stroke-width:0.8;"/>
   </g>
   <g id="patch_11">
    <path d="M 43.78125 699.77267 
L 1717.78125 699.77267 
" style="fill:none;stroke:#000000;stroke-linecap:square;stroke-linejoin:miter;stroke-width:0.8;"/>
   </g>
   <g id="text_34">
    <!-- before binarisation -->
    <g transform="translate(824.1825 693.77267)scale(0.12 -0.12)">
     <use xlink:href="#DejaVuSans-62"/>
     <use x="63.476562" xlink:href="#DejaVuSans-65"/>
     <use x="125" xlink:href="#DejaVuSans-66"/>
     <use x="160.205078" xlink:href="#DejaVuSans-6f"/>
     <use x="221.386719" xlink:href="#DejaVuSans-72"/>
     <use x="260.25" xlink:href="#DejaVuSans-65"/>
     <use x="321.773438" xlink:href="#DejaVuSans-20"/>
     <use x="353.560547" xlink:href="#DejaVuSans-62"/>
     <use x="417.037109" xlink:href="#DejaVuSans-69"/>
     <use x="444.820312" xlink:href="#DejaVuSans-6e"/>
     <use x="508.199219" xlink:href="#DejaVuSans-61"/>
     <use x="569.478516" xlink:href="#DejaVuSans-72"/>
     <use x="610.591797" xlink:href="#DejaVuSans-69"/>
     <use x="638.375" xlink:href="#DejaVuSans-73"/>
     <use x="690.474609" xlink:href="#DejaVuSans-61"/>
     <use x="751.753906" xlink:href="#DejaVuSans-74"/>
     <use x="790.962891" xlink:href="#DejaVuSans-69"/>
     <use x="818.746094" xlink:href="#DejaVuSans-6f"/>
     <use x="879.927734" xlink:href="#DejaVuSans-6e"/>
    </g>
   </g>
  </g>
 </g>
 <defs>
  <clipPath id="pa825a160b8">
   <rect height="564.545455" width="1674" x="43.78125" y="22.318125"/>
  </clipPath>
  <clipPath id="pd5edaca7a6">
   <rect height="564.545455" width="1674" x="43.78125" y="699.77267"/>
  </clipPath>
 </defs>
</svg>
