<?xml version="1.0" encoding="utf-8" standalone="no"?>
<!DOCTYPE svg PUBLIC "-//W3C//DTD SVG 1.1//EN"
  "http://www.w3.org/Graphics/SVG/1.1/DTD/svg11.dtd">
<svg height="1301.874375pt" version="1.1" viewBox="0 0 1724.98125 1301.874375" width="1724.98125pt" xmlns="http://www.w3.org/2000/svg" xmlns:xlink="http://www.w3.org/1999/xlink">
 <metadata>
  <rdf:RDF xmlns:cc="http://creativecommons.org/ns#" xmlns:dc="http://purl.org/dc/elements/1.1/" xmlns:rdf="http://www.w3.org/1999/02/22-rdf-syntax-ns#">
   <cc:Work>
    <dc:type rdf:resource="http://purl.org/dc/dcmitype/StillImage"/>
    <dc:date>2022-07-24T15:54:33.719442</dc:date>
    <dc:format>image/svg+xml</dc:format>
    <dc:creator>
     <cc:Agent>
      <dc:title>Matplotlib v3.4.2, https://matplotlib.org/</dc:title>
     </cc:Agent>
    </dc:creator>
   </cc:Work>
  </rdf:RDF>
 </metadata>
 <defs>
  <style type="text/css">*{stroke-linecap:butt;stroke-linejoin:round;}</style>
 </defs>
 <g id="figure_1">
  <g id="patch_1">
   <path d="M 0 1301.874375 
L 1724.98125 1301.874375 
L 1724.98125 0 
L 0 0 
z
" style="fill:#ffffff;"/>
  </g>
  <g id="axes_1">
   <g id="patch_2">
    <path d="M 43.78125 586.86358 
L 1717.78125 586.86358 
L 1717.78125 22.318125 
L 43.78125 22.318125 
z
" style="fill:#ffffff;"/>
   </g>
   <g id="matplotlib.axis_1">
    <g id="xtick_1">
     <g id="line2d_1">
      <defs>
       <path d="M 0 0 
L 0 3.5 
" id="mbe2b2cf3c8" style="stroke:#000000;stroke-width:0.8;"/>
      </defs>
      <g>
       <use style="stroke:#000000;stroke-width:0.8;" x="119.872159" xlink:href="#mbe2b2cf3c8" y="586.86358"/>
      </g>
     </g>
     <g id="text_1">
      <!-- 0 -->
      <g transform="translate(116.690909 601.462017)scale(0.1 -0.1)">
       <defs>
        <path d="M 2034 4250 
Q 1547 4250 1301 3770 
Q 1056 3291 1056 2328 
Q 1056 1369 1301 889 
Q 1547 409 2034 409 
Q 2525 409 2770 889 
Q 3016 1369 3016 2328 
Q 3016 3291 2770 3770 
Q 2525 4250 2034 4250 
z
M 2034 4750 
Q 2819 4750 3233 4129 
Q 3647 3509 3647 2328 
Q 3647 1150 3233 529 
Q 2819 -91 2034 -91 
Q 1250 -91 836 529 
Q 422 1150 422 2328 
Q 422 3509 836 4129 
Q 1250 4750 2034 4750 
z
" id="DejaVuSans-30" transform="scale(0.015625)"/>
       </defs>
       <use xlink:href="#DejaVuSans-30"/>
      </g>
     </g>
    </g>
    <g id="xtick_2">
     <g id="line2d_2">
      <g>
       <use style="stroke:#000000;stroke-width:0.8;" x="367.523613" xlink:href="#mbe2b2cf3c8" y="586.86358"/>
      </g>
     </g>
     <g id="text_2">
      <!-- 200 -->
      <g transform="translate(357.979863 601.462017)scale(0.1 -0.1)">
       <defs>
        <path d="M 1228 531 
L 3431 531 
L 3431 0 
L 469 0 
L 469 531 
Q 828 903 1448 1529 
Q 2069 2156 2228 2338 
Q 2531 2678 2651 2914 
Q 2772 3150 2772 3378 
Q 2772 3750 2511 3984 
Q 2250 4219 1831 4219 
Q 1534 4219 1204 4116 
Q 875 4013 500 3803 
L 500 4441 
Q 881 4594 1212 4672 
Q 1544 4750 1819 4750 
Q 2544 4750 2975 4387 
Q 3406 4025 3406 3419 
Q 3406 3131 3298 2873 
Q 3191 2616 2906 2266 
Q 2828 2175 2409 1742 
Q 1991 1309 1228 531 
z
" id="DejaVuSans-32" transform="scale(0.015625)"/>
       </defs>
       <use xlink:href="#DejaVuSans-32"/>
       <use x="63.623047" xlink:href="#DejaVuSans-30"/>
       <use x="127.246094" xlink:href="#DejaVuSans-30"/>
      </g>
     </g>
    </g>
    <g id="xtick_3">
     <g id="line2d_3">
      <g>
       <use style="stroke:#000000;stroke-width:0.8;" x="615.175066" xlink:href="#mbe2b2cf3c8" y="586.86358"/>
      </g>
     </g>
     <g id="text_3">
      <!-- 400 -->
      <g transform="translate(605.631316 601.462017)scale(0.1 -0.1)">
       <defs>
        <path d="M 2419 4116 
L 825 1625 
L 2419 1625 
L 2419 4116 
z
M 2253 4666 
L 3047 4666 
L 3047 1625 
L 3713 1625 
L 3713 1100 
L 3047 1100 
L 3047 0 
L 2419 0 
L 2419 1100 
L 313 1100 
L 313 1709 
L 2253 4666 
z
" id="DejaVuSans-34" transform="scale(0.015625)"/>
       </defs>
       <use xlink:href="#DejaVuSans-34"/>
       <use x="63.623047" xlink:href="#DejaVuSans-30"/>
       <use x="127.246094" xlink:href="#DejaVuSans-30"/>
      </g>
     </g>
    </g>
    <g id="xtick_4">
     <g id="line2d_4">
      <g>
       <use style="stroke:#000000;stroke-width:0.8;" x="862.82652" xlink:href="#mbe2b2cf3c8" y="586.86358"/>
      </g>
     </g>
     <g id="text_4">
      <!-- 600 -->
      <g transform="translate(853.28277 601.462017)scale(0.1 -0.1)">
       <defs>
        <path d="M 2113 2584 
Q 1688 2584 1439 2293 
Q 1191 2003 1191 1497 
Q 1191 994 1439 701 
Q 1688 409 2113 409 
Q 2538 409 2786 701 
Q 3034 994 3034 1497 
Q 3034 2003 2786 2293 
Q 2538 2584 2113 2584 
z
M 3366 4563 
L 3366 3988 
Q 3128 4100 2886 4159 
Q 2644 4219 2406 4219 
Q 1781 4219 1451 3797 
Q 1122 3375 1075 2522 
Q 1259 2794 1537 2939 
Q 1816 3084 2150 3084 
Q 2853 3084 3261 2657 
Q 3669 2231 3669 1497 
Q 3669 778 3244 343 
Q 2819 -91 2113 -91 
Q 1303 -91 875 529 
Q 447 1150 447 2328 
Q 447 3434 972 4092 
Q 1497 4750 2381 4750 
Q 2619 4750 2861 4703 
Q 3103 4656 3366 4563 
z
" id="DejaVuSans-36" transform="scale(0.015625)"/>
       </defs>
       <use xlink:href="#DejaVuSans-36"/>
       <use x="63.623047" xlink:href="#DejaVuSans-30"/>
       <use x="127.246094" xlink:href="#DejaVuSans-30"/>
      </g>
     </g>
    </g>
    <g id="xtick_5">
     <g id="line2d_5">
      <g>
       <use style="stroke:#000000;stroke-width:0.8;" x="1110.477973" xlink:href="#mbe2b2cf3c8" y="586.86358"/>
      </g>
     </g>
     <g id="text_5">
      <!-- 800 -->
      <g transform="translate(1100.934223 601.462017)scale(0.1 -0.1)">
       <defs>
        <path d="M 2034 2216 
Q 1584 2216 1326 1975 
Q 1069 1734 1069 1313 
Q 1069 891 1326 650 
Q 1584 409 2034 409 
Q 2484 409 2743 651 
Q 3003 894 3003 1313 
Q 3003 1734 2745 1975 
Q 2488 2216 2034 2216 
z
M 1403 2484 
Q 997 2584 770 2862 
Q 544 3141 544 3541 
Q 544 4100 942 4425 
Q 1341 4750 2034 4750 
Q 2731 4750 3128 4425 
Q 3525 4100 3525 3541 
Q 3525 3141 3298 2862 
Q 3072 2584 2669 2484 
Q 3125 2378 3379 2068 
Q 3634 1759 3634 1313 
Q 3634 634 3220 271 
Q 2806 -91 2034 -91 
Q 1263 -91 848 271 
Q 434 634 434 1313 
Q 434 1759 690 2068 
Q 947 2378 1403 2484 
z
M 1172 3481 
Q 1172 3119 1398 2916 
Q 1625 2713 2034 2713 
Q 2441 2713 2670 2916 
Q 2900 3119 2900 3481 
Q 2900 3844 2670 4047 
Q 2441 4250 2034 4250 
Q 1625 4250 1398 4047 
Q 1172 3844 1172 3481 
z
" id="DejaVuSans-38" transform="scale(0.015625)"/>
       </defs>
       <use xlink:href="#DejaVuSans-38"/>
       <use x="63.623047" xlink:href="#DejaVuSans-30"/>
       <use x="127.246094" xlink:href="#DejaVuSans-30"/>
      </g>
     </g>
    </g>
    <g id="xtick_6">
     <g id="line2d_6">
      <g>
       <use style="stroke:#000000;stroke-width:0.8;" x="1358.129427" xlink:href="#mbe2b2cf3c8" y="586.86358"/>
      </g>
     </g>
     <g id="text_6">
      <!-- 1000 -->
      <g transform="translate(1345.404427 601.462017)scale(0.1 -0.1)">
       <defs>
        <path d="M 794 531 
L 1825 531 
L 1825 4091 
L 703 3866 
L 703 4441 
L 1819 4666 
L 2450 4666 
L 2450 531 
L 3481 531 
L 3481 0 
L 794 0 
L 794 531 
z
" id="DejaVuSans-31" transform="scale(0.015625)"/>
       </defs>
       <use xlink:href="#DejaVuSans-31"/>
       <use x="63.623047" xlink:href="#DejaVuSans-30"/>
       <use x="127.246094" xlink:href="#DejaVuSans-30"/>
       <use x="190.869141" xlink:href="#DejaVuSans-30"/>
      </g>
     </g>
    </g>
    <g id="xtick_7">
     <g id="line2d_7">
      <g>
       <use style="stroke:#000000;stroke-width:0.8;" x="1605.78088" xlink:href="#mbe2b2cf3c8" y="586.86358"/>
      </g>
     </g>
     <g id="text_7">
      <!-- 1200 -->
      <g transform="translate(1593.05588 601.462017)scale(0.1 -0.1)">
       <use xlink:href="#DejaVuSans-31"/>
       <use x="63.623047" xlink:href="#DejaVuSans-32"/>
       <use x="127.246094" xlink:href="#DejaVuSans-30"/>
       <use x="190.869141" xlink:href="#DejaVuSans-30"/>
      </g>
     </g>
    </g>
    <g id="text_8">
     <!-- frame -->
     <g transform="translate(865.954687 615.140142)scale(0.1 -0.1)">
      <defs>
       <path d="M 2375 4863 
L 2375 4384 
L 1825 4384 
Q 1516 4384 1395 4259 
Q 1275 4134 1275 3809 
L 1275 3500 
L 2222 3500 
L 2222 3053 
L 1275 3053 
L 1275 0 
L 697 0 
L 697 3053 
L 147 3053 
L 147 3500 
L 697 3500 
L 697 3744 
Q 697 4328 969 4595 
Q 1241 4863 1831 4863 
L 2375 4863 
z
" id="DejaVuSans-66" transform="scale(0.015625)"/>
       <path d="M 2631 2963 
Q 2534 3019 2420 3045 
Q 2306 3072 2169 3072 
Q 1681 3072 1420 2755 
Q 1159 2438 1159 1844 
L 1159 0 
L 581 0 
L 581 3500 
L 1159 3500 
L 1159 2956 
Q 1341 3275 1631 3429 
Q 1922 3584 2338 3584 
Q 2397 3584 2469 3576 
Q 2541 3569 2628 3553 
L 2631 2963 
z
" id="DejaVuSans-72" transform="scale(0.015625)"/>
       <path d="M 2194 1759 
Q 1497 1759 1228 1600 
Q 959 1441 959 1056 
Q 959 750 1161 570 
Q 1363 391 1709 391 
Q 2188 391 2477 730 
Q 2766 1069 2766 1631 
L 2766 1759 
L 2194 1759 
z
M 3341 1997 
L 3341 0 
L 2766 0 
L 2766 531 
Q 2569 213 2275 61 
Q 1981 -91 1556 -91 
Q 1019 -91 701 211 
Q 384 513 384 1019 
Q 384 1609 779 1909 
Q 1175 2209 1959 2209 
L 2766 2209 
L 2766 2266 
Q 2766 2663 2505 2880 
Q 2244 3097 1772 3097 
Q 1472 3097 1187 3025 
Q 903 2953 641 2809 
L 641 3341 
Q 956 3463 1253 3523 
Q 1550 3584 1831 3584 
Q 2591 3584 2966 3190 
Q 3341 2797 3341 1997 
z
" id="DejaVuSans-61" transform="scale(0.015625)"/>
       <path d="M 3328 2828 
Q 3544 3216 3844 3400 
Q 4144 3584 4550 3584 
Q 5097 3584 5394 3201 
Q 5691 2819 5691 2113 
L 5691 0 
L 5113 0 
L 5113 2094 
Q 5113 2597 4934 2840 
Q 4756 3084 4391 3084 
Q 3944 3084 3684 2787 
Q 3425 2491 3425 1978 
L 3425 0 
L 2847 0 
L 2847 2094 
Q 2847 2600 2669 2842 
Q 2491 3084 2119 3084 
Q 1678 3084 1418 2786 
Q 1159 2488 1159 1978 
L 1159 0 
L 581 0 
L 581 3500 
L 1159 3500 
L 1159 2956 
Q 1356 3278 1631 3431 
Q 1906 3584 2284 3584 
Q 2666 3584 2933 3390 
Q 3200 3197 3328 2828 
z
" id="DejaVuSans-6d" transform="scale(0.015625)"/>
       <path d="M 3597 1894 
L 3597 1613 
L 953 1613 
Q 991 1019 1311 708 
Q 1631 397 2203 397 
Q 2534 397 2845 478 
Q 3156 559 3463 722 
L 3463 178 
Q 3153 47 2828 -22 
Q 2503 -91 2169 -91 
Q 1331 -91 842 396 
Q 353 884 353 1716 
Q 353 2575 817 3079 
Q 1281 3584 2069 3584 
Q 2775 3584 3186 3129 
Q 3597 2675 3597 1894 
z
M 3022 2063 
Q 3016 2534 2758 2815 
Q 2500 3097 2075 3097 
Q 1594 3097 1305 2825 
Q 1016 2553 972 2059 
L 3022 2063 
z
" id="DejaVuSans-65" transform="scale(0.015625)"/>
      </defs>
      <use xlink:href="#DejaVuSans-66"/>
      <use x="35.205078" xlink:href="#DejaVuSans-72"/>
      <use x="76.318359" xlink:href="#DejaVuSans-61"/>
      <use x="137.597656" xlink:href="#DejaVuSans-6d"/>
      <use x="235.009766" xlink:href="#DejaVuSans-65"/>
     </g>
    </g>
   </g>
   <g id="matplotlib.axis_2">
    <g id="ytick_1">
     <g id="line2d_8">
      <defs>
       <path d="M 0 0 
L -3.5 0 
" id="ma03ec3e89d" style="stroke:#000000;stroke-width:0.8;"/>
      </defs>
      <g>
       <use style="stroke:#000000;stroke-width:0.8;" x="43.78125" xlink:href="#ma03ec3e89d" y="561.202423"/>
      </g>
     </g>
     <g id="text_9">
      <!-- 0 -->
      <g transform="translate(30.41875 565.001641)scale(0.1 -0.1)">
       <use xlink:href="#DejaVuSans-30"/>
      </g>
     </g>
    </g>
    <g id="ytick_2">
     <g id="line2d_9">
      <g>
       <use style="stroke:#000000;stroke-width:0.8;" x="43.78125" xlink:href="#ma03ec3e89d" y="458.732768"/>
      </g>
     </g>
     <g id="text_10">
      <!-- 2 -->
      <g transform="translate(30.41875 462.531987)scale(0.1 -0.1)">
       <use xlink:href="#DejaVuSans-32"/>
      </g>
     </g>
    </g>
    <g id="ytick_3">
     <g id="line2d_10">
      <g>
       <use style="stroke:#000000;stroke-width:0.8;" x="43.78125" xlink:href="#ma03ec3e89d" y="356.263114"/>
      </g>
     </g>
     <g id="text_11">
      <!-- 4 -->
      <g transform="translate(30.41875 360.062333)scale(0.1 -0.1)">
       <use xlink:href="#DejaVuSans-34"/>
      </g>
     </g>
    </g>
    <g id="ytick_4">
     <g id="line2d_11">
      <g>
       <use style="stroke:#000000;stroke-width:0.8;" x="43.78125" xlink:href="#ma03ec3e89d" y="253.79346"/>
      </g>
     </g>
     <g id="text_12">
      <!-- 6 -->
      <g transform="translate(30.41875 257.592679)scale(0.1 -0.1)">
       <use xlink:href="#DejaVuSans-36"/>
      </g>
     </g>
    </g>
    <g id="ytick_5">
     <g id="line2d_12">
      <g>
       <use style="stroke:#000000;stroke-width:0.8;" x="43.78125" xlink:href="#ma03ec3e89d" y="151.323806"/>
      </g>
     </g>
     <g id="text_13">
      <!-- 8 -->
      <g transform="translate(30.41875 155.123025)scale(0.1 -0.1)">
       <use xlink:href="#DejaVuSans-38"/>
      </g>
     </g>
    </g>
    <g id="ytick_6">
     <g id="line2d_13">
      <g>
       <use style="stroke:#000000;stroke-width:0.8;" x="43.78125" xlink:href="#ma03ec3e89d" y="48.854152"/>
      </g>
     </g>
     <g id="text_14">
      <!-- 10 -->
      <g transform="translate(24.05625 52.653371)scale(0.1 -0.1)">
       <use xlink:href="#DejaVuSans-31"/>
       <use x="63.623047" xlink:href="#DejaVuSans-30"/>
      </g>
     </g>
    </g>
    <g id="text_15">
     <!-- GCaMP -->
     <g transform="translate(17.976562 322.349446)rotate(-90)scale(0.1 -0.1)">
      <defs>
       <path d="M 3809 666 
L 3809 1919 
L 2778 1919 
L 2778 2438 
L 4434 2438 
L 4434 434 
Q 4069 175 3628 42 
Q 3188 -91 2688 -91 
Q 1594 -91 976 548 
Q 359 1188 359 2328 
Q 359 3472 976 4111 
Q 1594 4750 2688 4750 
Q 3144 4750 3555 4637 
Q 3966 4525 4313 4306 
L 4313 3634 
Q 3963 3931 3569 4081 
Q 3175 4231 2741 4231 
Q 1884 4231 1454 3753 
Q 1025 3275 1025 2328 
Q 1025 1384 1454 906 
Q 1884 428 2741 428 
Q 3075 428 3337 486 
Q 3600 544 3809 666 
z
" id="DejaVuSans-47" transform="scale(0.015625)"/>
       <path d="M 4122 4306 
L 4122 3641 
Q 3803 3938 3442 4084 
Q 3081 4231 2675 4231 
Q 1875 4231 1450 3742 
Q 1025 3253 1025 2328 
Q 1025 1406 1450 917 
Q 1875 428 2675 428 
Q 3081 428 3442 575 
Q 3803 722 4122 1019 
L 4122 359 
Q 3791 134 3420 21 
Q 3050 -91 2638 -91 
Q 1578 -91 968 557 
Q 359 1206 359 2328 
Q 359 3453 968 4101 
Q 1578 4750 2638 4750 
Q 3056 4750 3426 4639 
Q 3797 4528 4122 4306 
z
" id="DejaVuSans-43" transform="scale(0.015625)"/>
       <path d="M 628 4666 
L 1569 4666 
L 2759 1491 
L 3956 4666 
L 4897 4666 
L 4897 0 
L 4281 0 
L 4281 4097 
L 3078 897 
L 2444 897 
L 1241 4097 
L 1241 0 
L 628 0 
L 628 4666 
z
" id="DejaVuSans-4d" transform="scale(0.015625)"/>
       <path d="M 1259 4147 
L 1259 2394 
L 2053 2394 
Q 2494 2394 2734 2622 
Q 2975 2850 2975 3272 
Q 2975 3691 2734 3919 
Q 2494 4147 2053 4147 
L 1259 4147 
z
M 628 4666 
L 2053 4666 
Q 2838 4666 3239 4311 
Q 3641 3956 3641 3272 
Q 3641 2581 3239 2228 
Q 2838 1875 2053 1875 
L 1259 1875 
L 1259 0 
L 628 0 
L 628 4666 
z
" id="DejaVuSans-50" transform="scale(0.015625)"/>
      </defs>
      <use xlink:href="#DejaVuSans-47"/>
      <use x="77.490234" xlink:href="#DejaVuSans-43"/>
      <use x="147.314453" xlink:href="#DejaVuSans-61"/>
      <use x="208.59375" xlink:href="#DejaVuSans-4d"/>
      <use x="294.873047" xlink:href="#DejaVuSans-50"/>
     </g>
    </g>
   </g>
   <g id="line2d_14">
    <path clip-path="url(#p8e9b552121)" d="M 119.872159 200.360993 
L 121.110416 200.129368 
L 122.348674 200.477561 
L 123.586931 201.788125 
L 124.825188 204.234917 
L 126.063445 207.866347 
L 127.301703 212.515089 
L 129.778217 222.366899 
L 131.016474 225.562607 
L 132.254732 226.555797 
L 133.492989 225.665461 
L 134.731246 224.124632 
L 135.969504 223.034984 
L 137.207761 222.572053 
L 138.446018 222.560123 
L 139.684275 223.2476 
L 140.922533 225.00483 
L 143.399047 229.914917 
L 144.637304 231.23999 
L 145.875562 231.987873 
L 147.113819 233.574144 
L 148.352076 237.018567 
L 149.590334 242.165515 
L 152.066848 253.279678 
L 153.305105 257.503475 
L 154.543363 260.429294 
L 155.78162 262.022079 
L 157.019877 262.529883 
L 158.258134 262.513287 
L 159.496392 262.616084 
L 160.734649 263.263183 
L 161.972906 264.455988 
L 164.449421 267.339912 
L 165.687678 268.32662 
L 166.925935 268.574731 
L 168.164193 268.286457 
L 169.40245 268.127173 
L 170.640707 268.828191 
L 171.878964 270.877964 
L 173.117222 274.15883 
L 174.355479 277.795318 
L 175.593736 280.761614 
L 176.831993 282.51562 
L 178.070251 282.816735 
L 179.308508 281.595417 
L 184.261537 272.569968 
L 186.738052 267.531662 
L 187.976309 265.385924 
L 190.452823 261.756306 
L 191.691081 260.330311 
L 192.929338 259.615699 
L 194.167595 259.914295 
L 195.405852 261.209675 
L 196.64411 262.872249 
L 197.882367 263.743747 
L 199.120624 262.672648 
L 200.358881 259.411312 
L 202.835396 250.459873 
L 204.073653 246.649947 
L 206.550168 240.054134 
L 207.788425 237.681865 
L 209.026682 237.071377 
L 210.26494 238.232166 
L 212.741454 242.448181 
L 213.979711 243.622231 
L 215.217969 242.815541 
L 216.456226 239.760389 
L 218.93274 230.897641 
L 220.170998 227.811473 
L 221.409255 226.681926 
L 222.647512 227.207462 
L 223.88577 228.222859 
L 225.124027 228.2965 
L 226.362284 226.605355 
L 227.600541 223.28949 
L 231.315313 211.023315 
L 232.55357 208.124774 
L 233.791828 206.657787 
L 235.030085 206.674693 
L 236.268342 207.488015 
L 237.5066 208.087574 
L 238.744857 207.629944 
L 239.983114 205.7847 
L 241.221371 202.810341 
L 243.697886 195.303194 
L 246.1744 187.093343 
L 248.650915 178.306152 
L 249.889172 174.845647 
L 251.127429 172.781516 
L 252.365687 172.48287 
L 253.603944 173.76419 
L 254.842201 175.576905 
L 256.080459 176.721273 
L 257.318716 176.753844 
L 258.556973 175.551042 
L 259.79523 172.835647 
L 261.033488 168.805958 
L 262.271745 164.352813 
L 263.510002 160.395291 
L 264.748259 157.251855 
L 267.224774 151.776256 
L 268.463031 148.778606 
L 269.701288 146.289672 
L 270.939546 145.313096 
L 272.177803 146.014795 
L 273.41606 147.475142 
L 274.654318 148.132938 
L 275.892575 146.230242 
L 277.130832 140.899604 
L 282.083861 110.616314 
L 283.322118 104.794572 
L 284.560376 100.243468 
L 285.798633 97.254982 
L 287.03689 96.151872 
L 288.275147 97.026993 
L 290.751662 101.683357 
L 291.989919 103.203719 
L 293.228177 103.516189 
L 294.466434 103.49736 
L 295.704691 104.300691 
L 298.181206 107.404072 
L 299.419463 107.872687 
L 300.65772 106.921566 
L 303.134235 102.291683 
L 304.372492 101.831807 
L 305.610749 104.646805 
L 306.849006 110.21688 
L 308.087264 116.367579 
L 309.325521 120.806609 
L 310.563778 122.153661 
L 311.802036 119.828177 
L 313.040293 113.844412 
L 315.516807 95.713621 
L 316.755065 88.468635 
L 317.993322 85.593197 
L 319.231579 86.798189 
L 320.469836 89.474037 
L 321.708094 91.266099 
L 322.946351 91.57149 
L 324.184608 90.58113 
L 325.422866 88.245828 
L 326.661123 84.435683 
L 327.89938 79.280074 
L 330.375895 67.212889 
L 331.614152 61.806518 
L 332.852409 57.17528 
L 334.090666 53.161428 
L 335.328924 49.832171 
L 336.567181 47.979282 
L 337.805438 49.04731 
L 339.043695 53.452369 
L 341.52021 66.126115 
L 342.758467 73.12168 
L 345.234982 88.627136 
L 346.473239 94.910477 
L 347.711496 98.383322 
L 348.949754 99.373904 
L 350.188011 99.383309 
L 351.426268 99.227959 
L 352.664525 98.678373 
L 353.902783 97.502055 
L 355.14104 96.043179 
L 356.379297 94.880938 
L 357.617554 94.371544 
L 358.855812 94.479423 
L 360.094069 94.807413 
L 361.332326 94.729486 
L 362.570584 93.741996 
L 366.285355 88.399735 
L 367.523613 87.438218 
L 368.76187 86.739171 
L 370.000127 85.838301 
L 371.238384 84.544095 
L 372.476642 82.868607 
L 376.191413 76.849005 
L 377.429671 75.850827 
L 378.667928 75.784829 
L 379.906185 76.456701 
L 381.144443 78.28799 
L 382.3827 81.983671 
L 383.620957 87.446505 
L 384.859214 93.631027 
L 386.097472 99.051286 
L 387.335729 102.601014 
L 388.573986 104.196812 
L 389.812243 104.4735 
L 392.288758 103.758373 
L 393.527015 103.787625 
L 394.765272 104.261448 
L 396.00353 104.45723 
L 397.241787 103.456159 
L 399.718302 99.068356 
L 400.956559 98.633063 
L 402.194816 99.987748 
L 403.433073 101.762441 
L 404.671331 103.18918 
L 405.909588 104.94087 
L 407.147845 107.82171 
L 408.386102 111.104514 
L 409.62436 112.975888 
L 410.862617 112.737344 
L 413.339132 110.182973 
L 414.577389 109.833676 
L 415.815646 111.211836 
L 417.053903 114.984268 
L 419.530418 125.401852 
L 420.768675 128.270642 
L 422.006932 128.626474 
L 423.24519 126.994454 
L 424.483447 124.441256 
L 425.721704 122.68054 
L 426.959961 123.267731 
L 428.198219 126.485658 
L 430.674733 136.549614 
L 431.912991 140.7497 
L 433.151248 143.710849 
L 434.389505 145.573589 
L 435.627762 146.274887 
L 436.86602 145.829778 
L 438.104277 144.537709 
L 439.342534 142.616382 
L 440.580791 140.423117 
L 441.819049 139.150913 
L 443.057306 140.13285 
L 444.295563 143.179772 
L 445.53382 146.683334 
L 446.772078 149.390138 
L 448.010335 151.129806 
L 449.248592 152.024398 
L 450.48685 151.949102 
L 451.725107 150.843217 
L 452.963364 149.058633 
L 454.201621 147.004415 
L 455.439879 144.425991 
L 456.678136 140.634633 
L 459.15465 130.477668 
L 460.392908 126.92875 
L 461.631165 126.075059 
L 462.869422 127.376906 
L 464.107679 128.841307 
L 465.345937 128.82121 
L 466.584194 127.769187 
L 467.822451 127.884435 
L 469.060709 130.648364 
L 471.537223 139.58361 
L 472.77548 142.156236 
L 474.013738 142.816955 
L 475.251995 142.414671 
L 476.490252 141.590243 
L 477.728509 140.470299 
L 481.443281 136.546004 
L 482.681538 135.491559 
L 483.919796 134.706352 
L 485.158053 133.582681 
L 486.39631 131.715071 
L 487.634568 130.078599 
L 488.872825 130.802456 
L 490.111082 135.639953 
L 491.349339 144.215959 
L 492.587597 153.861588 
L 493.825854 161.50451 
L 495.064111 165.125476 
L 496.302368 163.967787 
L 497.540626 158.861802 
L 498.778883 152.328003 
L 500.01714 147.341125 
L 501.255397 145.509071 
L 502.493655 146.536649 
L 503.731912 149.303226 
L 504.970169 152.999186 
L 507.446684 161.027107 
L 508.684941 163.69026 
L 509.923198 164.821781 
L 512.399713 165.219803 
L 513.63797 166.104969 
L 514.876227 168.190206 
L 516.114485 171.523724 
L 518.590999 179.605564 
L 519.829257 182.498804 
L 521.067514 183.795282 
L 522.305771 183.060619 
L 523.544028 179.969933 
L 526.020543 170.80052 
L 527.2588 167.75759 
L 528.497057 165.793988 
L 529.735315 163.315375 
L 530.973572 159.05583 
L 532.211829 153.793238 
L 533.450086 149.580175 
L 534.688344 147.209052 
L 535.926601 145.910861 
L 538.403116 144.116554 
L 539.641373 143.4356 
L 540.87963 143.290451 
L 542.117887 144.186438 
L 543.356145 146.178765 
L 547.070916 154.211948 
L 548.309174 155.849855 
L 549.547431 156.108765 
L 550.785688 154.460698 
L 552.023945 150.963646 
L 554.50046 141.763847 
L 555.738717 138.571578 
L 556.976975 138.688601 
L 558.215232 142.652169 
L 559.453489 148.072607 
L 560.691746 151.367027 
L 561.930004 150.452672 
L 563.168261 145.429283 
L 565.644775 131.626604 
L 566.883033 127.523496 
L 568.12129 125.862445 
L 569.359547 126.048322 
L 570.597804 128.057088 
L 571.836062 131.841979 
L 574.312576 140.962327 
L 576.789091 148.656825 
L 578.027348 153.929982 
L 579.265605 159.853379 
L 580.503863 164.595935 
L 581.74212 167.184047 
L 582.980377 168.372099 
L 584.218634 169.72274 
L 585.456892 172.492979 
L 586.695149 177.041759 
L 589.171663 188.501832 
L 590.409921 193.306892 
L 591.648178 196.463116 
L 592.886435 198.113153 
L 594.124693 199.284288 
L 595.36295 200.984672 
L 599.077722 208.136778 
L 600.315979 209.737167 
L 601.554236 210.924013 
L 602.792493 211.407034 
L 605.269008 210.615996 
L 606.507265 210.655635 
L 607.745523 210.32826 
L 608.98378 208.416368 
L 610.222037 204.74461 
L 612.698552 195.602869 
L 613.936809 192.294193 
L 615.175066 190.679287 
L 616.413323 190.393848 
L 617.651581 190.782678 
L 618.889838 191.311206 
L 620.128095 191.318249 
L 621.366352 190.435281 
L 622.60461 189.206296 
L 623.842867 188.517844 
L 626.319382 188.708052 
L 627.557639 187.98256 
L 628.795896 185.386773 
L 630.034153 180.642087 
L 631.272411 175.051682 
L 632.510668 170.763432 
L 633.748925 169.014509 
L 634.987182 169.393876 
L 636.22544 170.471575 
L 637.463697 170.87038 
L 638.701954 169.917507 
L 639.940211 167.707402 
L 643.654983 159.367518 
L 644.893241 157.362544 
L 647.369755 155.170076 
L 648.608012 152.71124 
L 651.084527 145.112269 
L 652.322784 142.62593 
L 653.561041 141.47328 
L 656.037556 140.844847 
L 657.275813 139.835739 
L 659.752328 135.867974 
L 660.990585 134.760801 
L 662.228842 135.122926 
L 664.705357 137.842242 
L 665.943614 138.567952 
L 667.181871 138.675221 
L 668.420129 138.633299 
L 670.896643 139.003251 
L 672.1349 138.799885 
L 673.373158 137.52168 
L 674.611415 135.059974 
L 675.849672 132.259395 
L 677.087929 130.971145 
L 678.326187 132.8646 
L 680.802701 141.610847 
L 682.040959 143.727653 
L 683.279216 144.298811 
L 684.517473 145.262426 
L 685.75573 147.766914 
L 686.993988 151.703393 
L 688.232245 156.569757 
L 691.947017 172.741519 
L 693.185274 176.438532 
L 694.423531 178.740131 
L 695.661789 179.383606 
L 696.900046 178.060137 
L 698.138303 175.086723 
L 699.37656 171.439398 
L 700.614818 168.179547 
L 701.853075 165.934432 
L 703.091332 164.687986 
L 704.329589 163.810204 
L 705.567847 162.347201 
L 706.806104 159.704369 
L 708.044361 156.401051 
L 709.282618 153.76341 
L 710.520876 152.736691 
L 711.759133 153.598877 
L 712.99739 156.359862 
L 715.473905 164.851962 
L 716.712162 167.779906 
L 717.950419 168.854622 
L 719.188677 169.134397 
L 720.426934 170.005229 
L 721.665191 172.043193 
L 722.903448 175.253974 
L 724.141706 179.544366 
L 725.379963 184.734621 
L 727.856477 196.336212 
L 729.094735 201.260878 
L 730.332992 204.109239 
L 731.571249 204.043776 
L 732.809507 200.994271 
L 734.047764 195.758983 
L 736.524278 183.891364 
L 737.762536 179.659102 
L 739.000793 177.5808 
L 740.23905 177.612381 
L 741.477307 179.338871 
L 743.953822 185.138535 
L 745.192079 188.162533 
L 746.430336 191.843855 
L 747.668594 196.958369 
L 748.906851 203.590588 
L 751.383366 218.179184 
L 752.621623 223.608561 
L 753.85988 226.718772 
L 755.098137 227.828039 
L 756.336395 227.985738 
L 757.574652 228.316435 
L 758.812909 229.617454 
L 760.051166 232.264806 
L 761.289424 235.825659 
L 762.527681 239.000231 
L 763.765938 240.467615 
L 765.004195 239.799787 
L 767.48071 235.38274 
L 768.718967 234.021805 
L 769.957225 234.054017 
L 771.195482 235.554786 
L 772.433739 238.782307 
L 773.671996 243.807154 
L 776.148511 254.959383 
L 778.625025 264.482551 
L 779.863283 269.487996 
L 781.10154 273.422124 
L 782.339797 275.105374 
L 783.578054 274.646098 
L 784.816312 273.243907 
L 786.054569 272.297053 
L 787.292826 272.395349 
L 788.531084 272.736557 
L 789.769341 272.042769 
L 791.007598 269.922188 
L 793.484113 264.259446 
L 794.72237 262.461444 
L 795.960627 261.742775 
L 797.198884 261.548482 
L 798.437142 261.193339 
L 799.675399 260.666208 
L 800.913656 260.499908 
L 802.151914 260.930031 
L 803.390171 261.494107 
L 804.628428 261.256677 
L 805.866685 259.64229 
L 808.3432 254.912832 
L 809.581457 253.628106 
L 810.819714 253.366592 
L 814.534486 254.312765 
L 815.772743 254.144993 
L 817.011001 253.502634 
L 818.249258 252.678075 
L 819.487515 252.456729 
L 820.725773 253.415328 
L 821.96403 255.462739 
L 823.202287 258.246412 
L 825.678802 264.801799 
L 826.917059 267.522181 
L 828.155316 269.252023 
L 829.393573 269.920671 
L 830.631831 269.994086 
L 831.870088 270.307461 
L 833.108345 271.009561 
L 834.346602 271.427041 
L 835.58486 271.488502 
L 836.823117 272.245078 
L 838.061374 274.537381 
L 840.537889 281.007693 
L 843.014403 286.225046 
L 844.252661 288.614814 
L 845.490918 290.295624 
L 846.729175 290.723343 
L 847.967432 289.787283 
L 849.20569 287.788332 
L 851.682204 283.004055 
L 852.920461 281.388979 
L 854.158719 280.731452 
L 855.396976 281.345761 
L 856.635233 283.183623 
L 857.873491 285.476626 
L 859.111748 287.135066 
L 860.350005 287.501444 
L 861.588262 286.785705 
L 862.82652 285.844419 
L 864.064777 285.450251 
L 865.303034 285.836218 
L 866.541291 287.140158 
L 867.779549 289.670738 
L 870.256063 296.780661 
L 871.49432 299.460424 
L 872.732578 301.000573 
L 873.970835 301.652724 
L 876.44735 302.1024 
L 877.685607 302.581853 
L 878.923864 302.839201 
L 880.162121 302.410747 
L 881.400379 301.258953 
L 882.638636 299.338429 
L 883.876893 296.430217 
L 885.11515 292.488657 
L 886.353408 287.72126 
L 887.591665 282.300278 
L 891.306437 264.157296 
L 892.544694 260.474379 
L 893.782951 259.93749 
L 896.259466 263.616863 
L 897.497723 263.95959 
L 898.73598 262.550744 
L 899.974238 259.588057 
L 901.212495 255.211386 
L 902.450752 249.472096 
L 904.927267 235.317331 
L 906.165524 229.889501 
L 907.403781 227.419556 
L 908.642039 227.28073 
L 909.880296 227.833354 
L 911.118553 227.735593 
L 912.35681 226.719675 
L 913.595068 225.449759 
L 914.833325 224.898878 
L 916.071582 226.032873 
L 917.309839 229.048973 
L 918.548097 232.773036 
L 919.786354 235.714596 
L 921.024611 237.284891 
L 923.501126 238.486172 
L 924.739383 240.323695 
L 925.97764 243.566395 
L 927.215898 247.269815 
L 928.454155 250.276092 
L 929.692412 252.033647 
L 930.930669 252.608891 
L 932.168927 252.31111 
L 934.645441 250.910614 
L 938.360213 249.30379 
L 939.59847 248.389179 
L 940.836727 246.863313 
L 942.074985 244.742886 
L 944.551499 239.906289 
L 945.789757 237.990816 
L 947.028014 236.837733 
L 948.266271 236.660836 
L 949.504528 237.304697 
L 950.742786 238.100777 
L 951.981043 238.537769 
L 953.2193 238.574241 
L 954.457557 238.314984 
L 956.934072 237.500275 
L 958.172329 236.827704 
L 959.410586 235.97656 
L 960.648844 235.382959 
L 963.125358 234.781346 
L 964.363616 234.324314 
L 965.601873 234.35822 
L 966.84013 235.689484 
L 968.078387 238.551722 
L 969.316645 242.234904 
L 970.554902 245.512364 
L 971.793159 247.485556 
L 973.031416 247.907149 
L 974.269674 246.841264 
L 975.507931 244.436462 
L 977.984446 238.026439 
L 979.222703 235.925383 
L 981.699217 233.784135 
L 982.937475 232.166433 
L 985.413989 227.994882 
L 986.652246 226.444018 
L 987.890504 224.572509 
L 989.128761 221.023202 
L 992.843533 205.075158 
L 994.08179 202.407178 
L 995.320047 201.270737 
L 996.558305 201.020979 
L 1000.273076 201.195248 
L 1001.511334 201.061628 
L 1002.749591 200.496785 
L 1003.987848 199.145329 
L 1007.70262 193.553766 
L 1008.940877 192.369676 
L 1011.417392 191.048292 
L 1012.655649 190.851723 
L 1013.893906 191.902466 
L 1016.370421 195.754807 
L 1017.608678 196.894399 
L 1020.085193 198.505867 
L 1021.32345 198.821962 
L 1022.561707 198.031774 
L 1023.799964 196.285503 
L 1025.038222 194.193082 
L 1026.276479 192.380811 
L 1027.514736 191.467273 
L 1028.752993 191.795264 
L 1029.991251 193.138501 
L 1031.229508 194.799132 
L 1032.467765 195.996816 
L 1033.706023 196.337594 
L 1034.94428 195.96098 
L 1036.182537 195.371818 
L 1037.420794 195.183951 
L 1038.659052 195.640958 
L 1039.897309 196.346519 
L 1041.135566 196.85394 
L 1042.373823 197.621725 
L 1043.612081 199.953158 
L 1044.850338 204.584235 
L 1049.803367 229.297507 
L 1051.041624 234.584144 
L 1052.279882 239.003243 
L 1053.518139 242.469418 
L 1054.756396 244.755835 
L 1055.994653 245.659134 
L 1057.232911 245.41386 
L 1058.471168 244.707935 
L 1059.709425 244.315041 
L 1060.947682 244.607074 
L 1062.18594 245.516663 
L 1063.424197 246.971414 
L 1064.662454 249.046237 
L 1065.900711 251.485823 
L 1067.138969 253.338114 
L 1068.377226 253.570358 
L 1069.615483 252.175338 
L 1070.853741 250.445104 
L 1072.091998 250.059723 
L 1073.330255 251.774719 
L 1074.568512 254.801089 
L 1075.80677 257.43495 
L 1077.045027 258.258551 
L 1078.283284 256.841126 
L 1079.521541 253.747172 
L 1080.759799 250.284558 
L 1081.998056 248.046215 
L 1083.236313 248.002639 
L 1084.474571 249.818653 
L 1085.712828 252.311522 
L 1086.951085 254.33371 
L 1088.189342 255.26838 
L 1089.4276 255.430499 
L 1090.665857 255.904831 
L 1091.904114 257.616558 
L 1093.142371 260.731833 
L 1095.618886 268.628623 
L 1096.857143 271.894676 
L 1098.0954 274.141153 
L 1099.333658 275.291811 
L 1100.571915 275.584275 
L 1101.810172 275.502751 
L 1103.04843 275.702826 
L 1105.524944 277.246471 
L 1108.001459 277.747 
L 1109.239716 279.162285 
L 1110.477973 282.318689 
L 1111.71623 286.436326 
L 1112.954488 289.684695 
L 1114.192745 290.234163 
L 1115.431002 287.471608 
L 1119.145774 272.694281 
L 1120.384031 270.20697 
L 1121.622289 269.713069 
L 1122.860546 271.027261 
L 1124.098803 273.815972 
L 1126.575318 280.839181 
L 1127.813575 283.809667 
L 1131.528347 291.486076 
L 1132.766604 293.779841 
L 1134.004861 295.179592 
L 1135.243118 295.350089 
L 1136.481376 294.328338 
L 1137.719633 292.275561 
L 1138.95789 289.471459 
L 1141.434405 283.3382 
L 1142.672662 281.813858 
L 1143.910919 282.536308 
L 1145.149177 285.458466 
L 1146.387434 289.993324 
L 1147.625691 294.974373 
L 1148.863948 298.708951 
L 1150.102206 300.247293 
L 1151.340463 300.396877 
L 1152.57872 300.928153 
L 1153.816977 302.913355 
L 1156.293492 309.062244 
L 1157.531749 310.879921 
L 1158.770007 310.865396 
L 1160.008264 309.446834 
L 1161.246521 307.817334 
L 1162.484778 306.961234 
L 1163.723036 307.313408 
L 1164.961293 309.113008 
L 1166.19955 312.329138 
L 1167.437807 316.549003 
L 1169.914322 326.585068 
L 1171.152579 331.576184 
L 1172.390837 335.579406 
L 1173.629094 338.250059 
L 1177.343866 343.659827 
L 1178.582123 345.960314 
L 1179.82038 347.73734 
L 1181.058637 348.321007 
L 1182.296895 347.417547 
L 1183.535152 345.026201 
L 1184.773409 341.738189 
L 1186.011666 338.780658 
L 1187.249924 337.259882 
L 1188.488181 337.434623 
L 1189.726438 338.797055 
L 1190.964696 340.568217 
L 1192.202953 341.991846 
L 1193.44121 342.656907 
L 1194.679467 342.890002 
L 1195.917725 343.514371 
L 1197.155982 345.031593 
L 1199.632496 349.41803 
L 1200.870754 351.068121 
L 1202.109011 351.724594 
L 1203.347268 350.972293 
L 1204.585525 348.827307 
L 1205.823783 346.232578 
L 1207.06204 344.485386 
L 1208.300297 344.150897 
L 1209.538555 344.836335 
L 1210.776812 345.774868 
L 1212.015069 346.398714 
L 1213.253326 346.542447 
L 1214.491584 346.331403 
L 1215.729841 345.914352 
L 1216.968098 345.21919 
L 1218.206355 344.076608 
L 1220.68287 341.368378 
L 1221.921127 340.705115 
L 1223.159384 341.075652 
L 1224.397642 342.796048 
L 1226.874156 348.323248 
L 1228.112414 350.442343 
L 1229.350671 351.587188 
L 1230.588928 351.672658 
L 1231.827185 351.309848 
L 1233.065443 351.750317 
L 1234.3037 353.654151 
L 1236.780214 359.649874 
L 1238.018472 561.202423 
L 1239.256729 364.662863 
L 1241.733243 369.241104 
L 1242.971501 371.692562 
L 1244.209758 373.868479 
L 1245.448015 375.182758 
L 1246.686273 375.217947 
L 1247.92453 374.226748 
L 1251.639302 370.118735 
L 1252.877559 370.223086 
L 1254.115816 372.319163 
L 1257.830588 382.703827 
L 1259.068845 384.613689 
L 1260.307103 385.242645 
L 1261.54536 384.102086 
L 1262.783617 380.76601 
L 1264.021874 375.646311 
L 1265.260132 369.986695 
L 1266.498389 365.221287 
L 1267.736646 362.422276 
L 1268.974903 362.025147 
L 1270.213161 363.595533 
L 1271.451418 365.941071 
L 1272.689675 367.882852 
L 1273.927932 368.807718 
L 1275.16619 368.607306 
L 1276.404447 367.496663 
L 1278.880962 364.294169 
L 1280.119219 363.471275 
L 1281.357476 363.966574 
L 1282.595733 365.745945 
L 1283.833991 368.088352 
L 1285.072248 370.130154 
L 1286.310505 371.392248 
L 1287.548762 371.683469 
L 1288.78702 370.972231 
L 1290.025277 369.553114 
L 1291.263534 367.957908 
L 1292.501791 366.723455 
L 1293.740049 366.273492 
L 1294.978306 366.674843 
L 1296.216563 367.524087 
L 1297.454821 368.202099 
L 1298.693078 368.291969 
L 1299.931335 367.972929 
L 1301.169592 368.01995 
L 1302.40785 369.274468 
L 1303.646107 371.947532 
L 1304.884364 375.33771 
L 1306.122621 378.202452 
L 1307.360879 379.332369 
L 1308.599136 378.080625 
L 1309.837393 374.790746 
L 1311.07565 370.838531 
L 1312.313908 368.131871 
L 1313.552165 368.074154 
L 1314.790422 370.584098 
L 1316.02868 374.246761 
L 1317.266937 377.490441 
L 1318.505194 561.202423 
L 1319.743451 380.67404 
L 1320.981709 381.457148 
L 1322.219966 561.202423 
L 1323.458223 383.85859 
L 1324.69648 385.401776 
L 1325.934738 385.944231 
L 1327.172995 384.599577 
L 1329.649509 379.200846 
L 1330.887767 377.520208 
L 1333.364281 375.386102 
L 1334.602539 373.753067 
L 1335.840796 371.717242 
L 1337.079053 370.118793 
L 1338.31731 370.112021 
L 1339.555568 372.185865 
L 1342.032082 378.992208 
L 1343.270339 381.393158 
L 1344.508597 382.548095 
L 1345.746854 382.563221 
L 1346.985111 381.720345 
L 1350.699883 377.682694 
L 1351.93814 376.897491 
L 1353.176398 376.766364 
L 1354.414655 377.349779 
L 1355.652912 378.537749 
L 1358.129427 381.679887 
L 1359.367684 382.867583 
L 1360.605941 383.264639 
L 1361.844198 382.76091 
L 1364.320713 380.699283 
L 1365.55897 380.087619 
L 1366.797228 379.86173 
L 1368.035485 379.874975 
L 1369.273742 380.041722 
L 1370.511999 380.536014 
L 1371.750257 381.64937 
L 1374.226771 384.915137 
L 1375.465028 385.590238 
L 1376.703286 384.931496 
L 1377.941543 383.223519 
L 1381.656315 376.876657 
L 1384.132829 373.13456 
L 1385.371087 372.045115 
L 1386.609344 372.13198 
L 1387.847601 373.204889 
L 1390.324116 376.242245 
L 1391.562373 377.292942 
L 1392.80063 377.420253 
L 1394.038887 376.600349 
L 1397.753659 372.401089 
L 1398.991916 371.743351 
L 1400.230174 371.929787 
L 1401.468431 372.846242 
L 1403.944946 375.806266 
L 1405.183203 376.434385 
L 1406.42146 375.758994 
L 1408.897975 372.776427 
L 1410.136232 371.924451 
L 1411.374489 371.520329 
L 1412.612746 370.973656 
L 1413.851004 370.173017 
L 1415.089261 369.664078 
L 1416.327518 369.840952 
L 1417.565775 370.507813 
L 1418.804033 371.303579 
L 1420.04229 371.936628 
L 1421.280547 372.082062 
L 1422.518805 371.68467 
L 1424.995319 370.44983 
L 1426.233576 370.110826 
L 1427.471834 370.289186 
L 1428.710091 371.017959 
L 1432.424863 374.113404 
L 1433.66312 375.362505 
L 1434.901377 376.362826 
L 1436.139634 376.586358 
L 1437.377892 375.910408 
L 1439.854406 373.407519 
L 1443.569178 369.011908 
L 1444.807435 368.601428 
L 1446.045693 369.164014 
L 1448.522207 371.606775 
L 1449.760464 372.21412 
L 1450.998722 372.01898 
L 1452.236979 371.115593 
L 1453.475236 369.576213 
L 1454.713494 367.663697 
L 1455.951751 365.984713 
L 1457.190008 365.073689 
L 1458.428265 364.940647 
L 1462.143037 365.678103 
L 1463.381294 366.360594 
L 1464.619552 367.185394 
L 1465.857809 367.443647 
L 1467.096066 366.774664 
L 1468.334323 365.448546 
L 1469.572581 363.800189 
L 1472.049095 359.983499 
L 1473.287353 358.506342 
L 1474.52561 357.890122 
L 1475.763867 358.057818 
L 1478.240382 359.302511 
L 1479.478639 359.90611 
L 1480.716896 360.191675 
L 1481.955153 359.94054 
L 1485.669925 357.847258 
L 1486.908182 357.81204 
L 1488.14644 358.323369 
L 1491.861212 360.652269 
L 1495.575983 362.254138 
L 1498.052498 363.630408 
L 1499.290755 364.330402 
L 1500.529012 364.683105 
L 1501.76727 364.400196 
L 1505.482041 362.294512 
L 1506.720299 361.153352 
L 1507.958556 358.60939 
L 1509.196813 354.303791 
L 1512.911585 338.176824 
L 1514.149842 335.244759 
L 1515.3881 335.186262 
L 1516.626357 337.823156 
L 1517.864614 341.695815 
L 1519.102871 345.026327 
L 1520.341129 346.969814 
L 1521.579386 347.717413 
L 1522.817643 347.751344 
L 1524.0559 347.52504 
L 1525.294158 347.590758 
L 1526.532415 348.410886 
L 1527.770672 350.017489 
L 1530.247187 353.929284 
L 1531.485444 355.325215 
L 1532.723701 356.036582 
L 1533.961959 356.064902 
L 1535.200216 355.390943 
L 1536.438473 353.867574 
L 1537.67673 351.302616 
L 1541.391502 340.941818 
L 1542.62976 339.983342 
L 1543.868017 341.400222 
L 1546.344531 347.759266 
L 1547.582789 349.88799 
L 1548.821046 350.223731 
L 1550.059303 348.850054 
L 1553.774075 341.6678 
L 1555.012332 340.248669 
L 1556.250589 340.096854 
L 1557.488847 341.311051 
L 1558.727104 343.988013 
L 1559.965361 348.163108 
L 1561.203619 353.157221 
L 1562.441876 357.555637 
L 1563.680133 360.215011 
L 1564.91839 360.972836 
L 1566.156648 360.294396 
L 1569.871419 356.049595 
L 1571.109677 355.339395 
L 1572.347934 354.914041 
L 1573.586191 354.299677 
L 1574.824448 352.828082 
L 1576.062706 350.220569 
L 1577.300963 347.305154 
L 1578.53922 345.633233 
L 1579.777478 346.170862 
L 1581.015735 348.606466 
L 1582.253992 351.807866 
L 1583.492249 354.587191 
L 1584.730507 356.285104 
L 1585.968764 356.993648 
L 1587.207021 356.984168 
L 1588.445278 356.059976 
L 1589.683536 353.894048 
L 1590.921793 350.665028 
L 1592.16005 347.030841 
L 1593.398307 343.856206 
L 1594.636565 342.048593 
L 1595.874822 342.022368 
L 1597.113079 343.295198 
L 1599.589594 346.710904 
L 1600.827851 347.795799 
L 1602.066108 348.16023 
L 1603.304366 348.199478 
L 1604.542623 348.565447 
L 1605.78088 349.720116 
L 1608.257395 353.63598 
L 1609.495652 355.123585 
L 1610.733909 355.598811 
L 1611.972166 354.761245 
L 1613.210424 352.557818 
L 1614.448681 349.331762 
L 1616.925196 342.331063 
L 1618.163453 339.843478 
L 1619.40171 338.773536 
L 1620.639967 339.297132 
L 1623.116482 342.521854 
L 1624.354739 343.434457 
L 1625.592996 343.4608 
L 1626.831254 342.693675 
L 1628.069511 341.273454 
L 1630.546026 337.874057 
L 1631.784283 336.62176 
L 1633.02254 336.028315 
L 1634.260797 336.336907 
L 1635.499055 337.230998 
L 1636.737312 337.859435 
L 1639.213826 337.887027 
L 1640.452084 338.518117 
L 1641.690341 339.751551 
L 1641.690341 339.751551 
" style="fill:none;stroke:#008000;stroke-linecap:square;stroke-width:1.5;"/>
   </g>
   <g id="patch_3">
    <path d="M 43.78125 586.86358 
L 43.78125 22.318125 
" style="fill:none;stroke:#000000;stroke-linecap:square;stroke-linejoin:miter;stroke-width:0.8;"/>
   </g>
   <g id="patch_4">
    <path d="M 1717.78125 586.86358 
L 1717.78125 22.318125 
" style="fill:none;stroke:#000000;stroke-linecap:square;stroke-linejoin:miter;stroke-width:0.8;"/>
   </g>
   <g id="patch_5">
    <path d="M 43.78125 586.86358 
L 1717.78125 586.86358 
" style="fill:none;stroke:#000000;stroke-linecap:square;stroke-linejoin:miter;stroke-width:0.8;"/>
   </g>
   <g id="patch_6">
    <path d="M 43.78125 22.318125 
L 1717.78125 22.318125 
" style="fill:none;stroke:#000000;stroke-linecap:square;stroke-linejoin:miter;stroke-width:0.8;"/>
   </g>
   <g id="text_16">
    <!-- before binarisation -->
    <g transform="translate(824.1825 16.318125)scale(0.12 -0.12)">
     <defs>
      <path d="M 3116 1747 
Q 3116 2381 2855 2742 
Q 2594 3103 2138 3103 
Q 1681 3103 1420 2742 
Q 1159 2381 1159 1747 
Q 1159 1113 1420 752 
Q 1681 391 2138 391 
Q 2594 391 2855 752 
Q 3116 1113 3116 1747 
z
M 1159 2969 
Q 1341 3281 1617 3432 
Q 1894 3584 2278 3584 
Q 2916 3584 3314 3078 
Q 3713 2572 3713 1747 
Q 3713 922 3314 415 
Q 2916 -91 2278 -91 
Q 1894 -91 1617 61 
Q 1341 213 1159 525 
L 1159 0 
L 581 0 
L 581 4863 
L 1159 4863 
L 1159 2969 
z
" id="DejaVuSans-62" transform="scale(0.015625)"/>
      <path d="M 1959 3097 
Q 1497 3097 1228 2736 
Q 959 2375 959 1747 
Q 959 1119 1226 758 
Q 1494 397 1959 397 
Q 2419 397 2687 759 
Q 2956 1122 2956 1747 
Q 2956 2369 2687 2733 
Q 2419 3097 1959 3097 
z
M 1959 3584 
Q 2709 3584 3137 3096 
Q 3566 2609 3566 1747 
Q 3566 888 3137 398 
Q 2709 -91 1959 -91 
Q 1206 -91 779 398 
Q 353 888 353 1747 
Q 353 2609 779 3096 
Q 1206 3584 1959 3584 
z
" id="DejaVuSans-6f" transform="scale(0.015625)"/>
      <path id="DejaVuSans-20" transform="scale(0.015625)"/>
      <path d="M 603 3500 
L 1178 3500 
L 1178 0 
L 603 0 
L 603 3500 
z
M 603 4863 
L 1178 4863 
L 1178 4134 
L 603 4134 
L 603 4863 
z
" id="DejaVuSans-69" transform="scale(0.015625)"/>
      <path d="M 3513 2113 
L 3513 0 
L 2938 0 
L 2938 2094 
Q 2938 2591 2744 2837 
Q 2550 3084 2163 3084 
Q 1697 3084 1428 2787 
Q 1159 2491 1159 1978 
L 1159 0 
L 581 0 
L 581 3500 
L 1159 3500 
L 1159 2956 
Q 1366 3272 1645 3428 
Q 1925 3584 2291 3584 
Q 2894 3584 3203 3211 
Q 3513 2838 3513 2113 
z
" id="DejaVuSans-6e" transform="scale(0.015625)"/>
      <path d="M 2834 3397 
L 2834 2853 
Q 2591 2978 2328 3040 
Q 2066 3103 1784 3103 
Q 1356 3103 1142 2972 
Q 928 2841 928 2578 
Q 928 2378 1081 2264 
Q 1234 2150 1697 2047 
L 1894 2003 
Q 2506 1872 2764 1633 
Q 3022 1394 3022 966 
Q 3022 478 2636 193 
Q 2250 -91 1575 -91 
Q 1294 -91 989 -36 
Q 684 19 347 128 
L 347 722 
Q 666 556 975 473 
Q 1284 391 1588 391 
Q 1994 391 2212 530 
Q 2431 669 2431 922 
Q 2431 1156 2273 1281 
Q 2116 1406 1581 1522 
L 1381 1569 
Q 847 1681 609 1914 
Q 372 2147 372 2553 
Q 372 3047 722 3315 
Q 1072 3584 1716 3584 
Q 2034 3584 2315 3537 
Q 2597 3491 2834 3397 
z
" id="DejaVuSans-73" transform="scale(0.015625)"/>
      <path d="M 1172 4494 
L 1172 3500 
L 2356 3500 
L 2356 3053 
L 1172 3053 
L 1172 1153 
Q 1172 725 1289 603 
Q 1406 481 1766 481 
L 2356 481 
L 2356 0 
L 1766 0 
Q 1100 0 847 248 
Q 594 497 594 1153 
L 594 3053 
L 172 3053 
L 172 3500 
L 594 3500 
L 594 4494 
L 1172 4494 
z
" id="DejaVuSans-74" transform="scale(0.015625)"/>
     </defs>
     <use xlink:href="#DejaVuSans-62"/>
     <use x="63.476562" xlink:href="#DejaVuSans-65"/>
     <use x="125" xlink:href="#DejaVuSans-66"/>
     <use x="160.205078" xlink:href="#DejaVuSans-6f"/>
     <use x="221.386719" xlink:href="#DejaVuSans-72"/>
     <use x="260.25" xlink:href="#DejaVuSans-65"/>
     <use x="321.773438" xlink:href="#DejaVuSans-20"/>
     <use x="353.560547" xlink:href="#DejaVuSans-62"/>
     <use x="417.037109" xlink:href="#DejaVuSans-69"/>
     <use x="444.820312" xlink:href="#DejaVuSans-6e"/>
     <use x="508.199219" xlink:href="#DejaVuSans-61"/>
     <use x="569.478516" xlink:href="#DejaVuSans-72"/>
     <use x="610.591797" xlink:href="#DejaVuSans-69"/>
     <use x="638.375" xlink:href="#DejaVuSans-73"/>
     <use x="690.474609" xlink:href="#DejaVuSans-61"/>
     <use x="751.753906" xlink:href="#DejaVuSans-74"/>
     <use x="790.962891" xlink:href="#DejaVuSans-69"/>
     <use x="818.746094" xlink:href="#DejaVuSans-6f"/>
     <use x="879.927734" xlink:href="#DejaVuSans-6e"/>
    </g>
   </g>
  </g>
  <g id="axes_2">
   <g id="patch_7">
    <path d="M 43.78125 1264.318125 
L 1717.78125 1264.318125 
L 1717.78125 699.77267 
L 43.78125 699.77267 
z
" style="fill:#ffffff;"/>
   </g>
   <g id="matplotlib.axis_3">
    <g id="xtick_8">
     <g id="line2d_15">
      <g>
       <use style="stroke:#000000;stroke-width:0.8;" x="119.872159" xlink:href="#mbe2b2cf3c8" y="1264.318125"/>
      </g>
     </g>
     <g id="text_17">
      <!-- 0 -->
      <g transform="translate(116.690909 1278.916563)scale(0.1 -0.1)">
       <use xlink:href="#DejaVuSans-30"/>
      </g>
     </g>
    </g>
    <g id="xtick_9">
     <g id="line2d_16">
      <g>
       <use style="stroke:#000000;stroke-width:0.8;" x="367.523613" xlink:href="#mbe2b2cf3c8" y="1264.318125"/>
      </g>
     </g>
     <g id="text_18">
      <!-- 200 -->
      <g transform="translate(357.979863 1278.916563)scale(0.1 -0.1)">
       <use xlink:href="#DejaVuSans-32"/>
       <use x="63.623047" xlink:href="#DejaVuSans-30"/>
       <use x="127.246094" xlink:href="#DejaVuSans-30"/>
      </g>
     </g>
    </g>
    <g id="xtick_10">
     <g id="line2d_17">
      <g>
       <use style="stroke:#000000;stroke-width:0.8;" x="615.175066" xlink:href="#mbe2b2cf3c8" y="1264.318125"/>
      </g>
     </g>
     <g id="text_19">
      <!-- 400 -->
      <g transform="translate(605.631316 1278.916563)scale(0.1 -0.1)">
       <use xlink:href="#DejaVuSans-34"/>
       <use x="63.623047" xlink:href="#DejaVuSans-30"/>
       <use x="127.246094" xlink:href="#DejaVuSans-30"/>
      </g>
     </g>
    </g>
    <g id="xtick_11">
     <g id="line2d_18">
      <g>
       <use style="stroke:#000000;stroke-width:0.8;" x="862.82652" xlink:href="#mbe2b2cf3c8" y="1264.318125"/>
      </g>
     </g>
     <g id="text_20">
      <!-- 600 -->
      <g transform="translate(853.28277 1278.916563)scale(0.1 -0.1)">
       <use xlink:href="#DejaVuSans-36"/>
       <use x="63.623047" xlink:href="#DejaVuSans-30"/>
       <use x="127.246094" xlink:href="#DejaVuSans-30"/>
      </g>
     </g>
    </g>
    <g id="xtick_12">
     <g id="line2d_19">
      <g>
       <use style="stroke:#000000;stroke-width:0.8;" x="1110.477973" xlink:href="#mbe2b2cf3c8" y="1264.318125"/>
      </g>
     </g>
     <g id="text_21">
      <!-- 800 -->
      <g transform="translate(1100.934223 1278.916563)scale(0.1 -0.1)">
       <use xlink:href="#DejaVuSans-38"/>
       <use x="63.623047" xlink:href="#DejaVuSans-30"/>
       <use x="127.246094" xlink:href="#DejaVuSans-30"/>
      </g>
     </g>
    </g>
    <g id="xtick_13">
     <g id="line2d_20">
      <g>
       <use style="stroke:#000000;stroke-width:0.8;" x="1358.129427" xlink:href="#mbe2b2cf3c8" y="1264.318125"/>
      </g>
     </g>
     <g id="text_22">
      <!-- 1000 -->
      <g transform="translate(1345.404427 1278.916563)scale(0.1 -0.1)">
       <use xlink:href="#DejaVuSans-31"/>
       <use x="63.623047" xlink:href="#DejaVuSans-30"/>
       <use x="127.246094" xlink:href="#DejaVuSans-30"/>
       <use x="190.869141" xlink:href="#DejaVuSans-30"/>
      </g>
     </g>
    </g>
    <g id="xtick_14">
     <g id="line2d_21">
      <g>
       <use style="stroke:#000000;stroke-width:0.8;" x="1605.78088" xlink:href="#mbe2b2cf3c8" y="1264.318125"/>
      </g>
     </g>
     <g id="text_23">
      <!-- 1200 -->
      <g transform="translate(1593.05588 1278.916563)scale(0.1 -0.1)">
       <use xlink:href="#DejaVuSans-31"/>
       <use x="63.623047" xlink:href="#DejaVuSans-32"/>
       <use x="127.246094" xlink:href="#DejaVuSans-30"/>
       <use x="190.869141" xlink:href="#DejaVuSans-30"/>
      </g>
     </g>
    </g>
    <g id="text_24">
     <!-- frame -->
     <g transform="translate(865.954687 1292.594688)scale(0.1 -0.1)">
      <use xlink:href="#DejaVuSans-66"/>
      <use x="35.205078" xlink:href="#DejaVuSans-72"/>
      <use x="76.318359" xlink:href="#DejaVuSans-61"/>
      <use x="137.597656" xlink:href="#DejaVuSans-6d"/>
      <use x="235.009766" xlink:href="#DejaVuSans-65"/>
     </g>
    </g>
   </g>
   <g id="matplotlib.axis_4">
    <g id="ytick_7">
     <g id="line2d_22">
      <g>
       <use style="stroke:#000000;stroke-width:0.8;" x="43.78125" xlink:href="#ma03ec3e89d" y="1238.656968"/>
      </g>
     </g>
     <g id="text_25">
      <!-- 0.0 -->
      <g transform="translate(20.878125 1242.456187)scale(0.1 -0.1)">
       <defs>
        <path d="M 684 794 
L 1344 794 
L 1344 0 
L 684 0 
L 684 794 
z
" id="DejaVuSans-2e" transform="scale(0.015625)"/>
       </defs>
       <use xlink:href="#DejaVuSans-30"/>
       <use x="63.623047" xlink:href="#DejaVuSans-2e"/>
       <use x="95.410156" xlink:href="#DejaVuSans-30"/>
      </g>
     </g>
    </g>
    <g id="ytick_8">
     <g id="line2d_23">
      <g>
       <use style="stroke:#000000;stroke-width:0.8;" x="43.78125" xlink:href="#ma03ec3e89d" y="1136.01234"/>
      </g>
     </g>
     <g id="text_26">
      <!-- 0.2 -->
      <g transform="translate(20.878125 1139.811559)scale(0.1 -0.1)">
       <use xlink:href="#DejaVuSans-30"/>
       <use x="63.623047" xlink:href="#DejaVuSans-2e"/>
       <use x="95.410156" xlink:href="#DejaVuSans-32"/>
      </g>
     </g>
    </g>
    <g id="ytick_9">
     <g id="line2d_24">
      <g>
       <use style="stroke:#000000;stroke-width:0.8;" x="43.78125" xlink:href="#ma03ec3e89d" y="1033.367712"/>
      </g>
     </g>
     <g id="text_27">
      <!-- 0.4 -->
      <g transform="translate(20.878125 1037.166931)scale(0.1 -0.1)">
       <use xlink:href="#DejaVuSans-30"/>
       <use x="63.623047" xlink:href="#DejaVuSans-2e"/>
       <use x="95.410156" xlink:href="#DejaVuSans-34"/>
      </g>
     </g>
    </g>
    <g id="ytick_10">
     <g id="line2d_25">
      <g>
       <use style="stroke:#000000;stroke-width:0.8;" x="43.78125" xlink:href="#ma03ec3e89d" y="930.723084"/>
      </g>
     </g>
     <g id="text_28">
      <!-- 0.6 -->
      <g transform="translate(20.878125 934.522302)scale(0.1 -0.1)">
       <use xlink:href="#DejaVuSans-30"/>
       <use x="63.623047" xlink:href="#DejaVuSans-2e"/>
       <use x="95.410156" xlink:href="#DejaVuSans-36"/>
      </g>
     </g>
    </g>
    <g id="ytick_11">
     <g id="line2d_26">
      <g>
       <use style="stroke:#000000;stroke-width:0.8;" x="43.78125" xlink:href="#ma03ec3e89d" y="828.078456"/>
      </g>
     </g>
     <g id="text_29">
      <!-- 0.8 -->
      <g transform="translate(20.878125 831.877674)scale(0.1 -0.1)">
       <use xlink:href="#DejaVuSans-30"/>
       <use x="63.623047" xlink:href="#DejaVuSans-2e"/>
       <use x="95.410156" xlink:href="#DejaVuSans-38"/>
      </g>
     </g>
    </g>
    <g id="ytick_12">
     <g id="line2d_27">
      <g>
       <use style="stroke:#000000;stroke-width:0.8;" x="43.78125" xlink:href="#ma03ec3e89d" y="725.433827"/>
      </g>
     </g>
     <g id="text_30">
      <!-- 1.0 -->
      <g transform="translate(20.878125 729.233046)scale(0.1 -0.1)">
       <use xlink:href="#DejaVuSans-31"/>
       <use x="63.623047" xlink:href="#DejaVuSans-2e"/>
       <use x="95.410156" xlink:href="#DejaVuSans-30"/>
      </g>
     </g>
    </g>
    <g id="text_31">
     <!-- GCaMP -->
     <g transform="translate(14.798437 999.803991)rotate(-90)scale(0.1 -0.1)">
      <use xlink:href="#DejaVuSans-47"/>
      <use x="77.490234" xlink:href="#DejaVuSans-43"/>
      <use x="147.314453" xlink:href="#DejaVuSans-61"/>
      <use x="208.59375" xlink:href="#DejaVuSans-4d"/>
      <use x="294.873047" xlink:href="#DejaVuSans-50"/>
     </g>
    </g>
   </g>
   <g id="line2d_28">
    <path clip-path="url(#p26a7293e63)" d="M 119.872159 1238.656968 
L 264.748259 1238.656968 
L 265.986517 725.433827 
L 492.587597 725.433827 
L 493.825854 1238.656968 
L 497.540626 1238.656968 
L 498.778883 725.433827 
L 504.970169 725.433827 
L 506.208427 1238.656968 
L 530.973572 1238.656968 
L 532.211829 725.433827 
L 547.070916 725.433827 
L 548.309174 1238.656968 
L 549.547431 1238.656968 
L 550.785688 725.433827 
L 578.027348 725.433827 
L 579.265605 1238.656968 
L 646.131498 1238.656968 
L 647.369755 725.433827 
L 686.993988 725.433827 
L 688.232245 1238.656968 
L 708.044361 1238.656968 
L 709.282618 725.433827 
L 711.759133 725.433827 
L 712.99739 1238.656968 
L 1641.690341 1238.656968 
L 1641.690341 1238.656968 
" style="fill:none;stroke:#008000;stroke-linecap:square;stroke-width:1.5;"/>
   </g>
   <g id="patch_8">
    <path d="M 43.78125 1264.318125 
L 43.78125 699.77267 
" style="fill:none;stroke:#000000;stroke-linecap:square;stroke-linejoin:miter;stroke-width:0.8;"/>
   </g>
   <g id="patch_9">
    <path d="M 1717.78125 1264.318125 
L 1717.78125 699.77267 
" style="fill:none;stroke:#000000;stroke-linecap:square;stroke-linejoin:miter;stroke-width:0.8;"/>
   </g>
   <g id="patch_10">
    <path d="M 43.78125 1264.318125 
L 1717.78125 1264.318125 
" style="fill:none;stroke:#000000;stroke-linecap:square;stroke-linejoin:miter;stroke-width:0.8;"/>
   </g>
   <g id="patch_11">
    <path d="M 43.78125 699.77267 
L 1717.78125 699.77267 
" style="fill:none;stroke:#000000;stroke-linecap:square;stroke-linejoin:miter;stroke-width:0.8;"/>
   </g>
   <g id="text_32">
    <!-- before binarisation -->
    <g transform="translate(824.1825 693.77267)scale(0.12 -0.12)">
     <use xlink:href="#DejaVuSans-62"/>
     <use x="63.476562" xlink:href="#DejaVuSans-65"/>
     <use x="125" xlink:href="#DejaVuSans-66"/>
     <use x="160.205078" xlink:href="#DejaVuSans-6f"/>
     <use x="221.386719" xlink:href="#DejaVuSans-72"/>
     <use x="260.25" xlink:href="#DejaVuSans-65"/>
     <use x="321.773438" xlink:href="#DejaVuSans-20"/>
     <use x="353.560547" xlink:href="#DejaVuSans-62"/>
     <use x="417.037109" xlink:href="#DejaVuSans-69"/>
     <use x="444.820312" xlink:href="#DejaVuSans-6e"/>
     <use x="508.199219" xlink:href="#DejaVuSans-61"/>
     <use x="569.478516" xlink:href="#DejaVuSans-72"/>
     <use x="610.591797" xlink:href="#DejaVuSans-69"/>
     <use x="638.375" xlink:href="#DejaVuSans-73"/>
     <use x="690.474609" xlink:href="#DejaVuSans-61"/>
     <use x="751.753906" xlink:href="#DejaVuSans-74"/>
     <use x="790.962891" xlink:href="#DejaVuSans-69"/>
     <use x="818.746094" xlink:href="#DejaVuSans-6f"/>
     <use x="879.927734" xlink:href="#DejaVuSans-6e"/>
    </g>
   </g>
  </g>
 </g>
 <defs>
  <clipPath id="p8e9b552121">
   <rect height="564.545455" width="1674" x="43.78125" y="22.318125"/>
  </clipPath>
  <clipPath id="p26a7293e63">
   <rect height="564.545455" width="1674" x="43.78125" y="699.77267"/>
  </clipPath>
 </defs>
</svg>
