<?xml version="1.0" encoding="utf-8" standalone="no"?>
<!DOCTYPE svg PUBLIC "-//W3C//DTD SVG 1.1//EN"
  "http://www.w3.org/Graphics/SVG/1.1/DTD/svg11.dtd">
<svg height="1301.874375pt" version="1.1" viewBox="0 0 1724.98125 1301.874375" width="1724.98125pt" xmlns="http://www.w3.org/2000/svg" xmlns:xlink="http://www.w3.org/1999/xlink">
 <metadata>
  <rdf:RDF xmlns:cc="http://creativecommons.org/ns#" xmlns:dc="http://purl.org/dc/elements/1.1/" xmlns:rdf="http://www.w3.org/1999/02/22-rdf-syntax-ns#">
   <cc:Work>
    <dc:type rdf:resource="http://purl.org/dc/dcmitype/StillImage"/>
    <dc:date>2022-07-24T15:54:33.900988</dc:date>
    <dc:format>image/svg+xml</dc:format>
    <dc:creator>
     <cc:Agent>
      <dc:title>Matplotlib v3.4.2, https://matplotlib.org/</dc:title>
     </cc:Agent>
    </dc:creator>
   </cc:Work>
  </rdf:RDF>
 </metadata>
 <defs>
  <style type="text/css">*{stroke-linecap:butt;stroke-linejoin:round;}</style>
 </defs>
 <g id="figure_1">
  <g id="patch_1">
   <path d="M 0 1301.874375 
L 1724.98125 1301.874375 
L 1724.98125 0 
L 0 0 
z
" style="fill:#ffffff;"/>
  </g>
  <g id="axes_1">
   <g id="patch_2">
    <path d="M 43.78125 586.86358 
L 1717.78125 586.86358 
L 1717.78125 22.318125 
L 43.78125 22.318125 
z
" style="fill:#ffffff;"/>
   </g>
   <g id="matplotlib.axis_1">
    <g id="xtick_1">
     <g id="line2d_1">
      <defs>
       <path d="M 0 0 
L 0 3.5 
" id="me2ddfc9ce4" style="stroke:#000000;stroke-width:0.8;"/>
      </defs>
      <g>
       <use style="stroke:#000000;stroke-width:0.8;" x="119.872159" xlink:href="#me2ddfc9ce4" y="586.86358"/>
      </g>
     </g>
     <g id="text_1">
      <!-- 0 -->
      <g transform="translate(116.690909 601.462017)scale(0.1 -0.1)">
       <defs>
        <path d="M 2034 4250 
Q 1547 4250 1301 3770 
Q 1056 3291 1056 2328 
Q 1056 1369 1301 889 
Q 1547 409 2034 409 
Q 2525 409 2770 889 
Q 3016 1369 3016 2328 
Q 3016 3291 2770 3770 
Q 2525 4250 2034 4250 
z
M 2034 4750 
Q 2819 4750 3233 4129 
Q 3647 3509 3647 2328 
Q 3647 1150 3233 529 
Q 2819 -91 2034 -91 
Q 1250 -91 836 529 
Q 422 1150 422 2328 
Q 422 3509 836 4129 
Q 1250 4750 2034 4750 
z
" id="DejaVuSans-30" transform="scale(0.015625)"/>
       </defs>
       <use xlink:href="#DejaVuSans-30"/>
      </g>
     </g>
    </g>
    <g id="xtick_2">
     <g id="line2d_2">
      <g>
       <use style="stroke:#000000;stroke-width:0.8;" x="367.523613" xlink:href="#me2ddfc9ce4" y="586.86358"/>
      </g>
     </g>
     <g id="text_2">
      <!-- 200 -->
      <g transform="translate(357.979863 601.462017)scale(0.1 -0.1)">
       <defs>
        <path d="M 1228 531 
L 3431 531 
L 3431 0 
L 469 0 
L 469 531 
Q 828 903 1448 1529 
Q 2069 2156 2228 2338 
Q 2531 2678 2651 2914 
Q 2772 3150 2772 3378 
Q 2772 3750 2511 3984 
Q 2250 4219 1831 4219 
Q 1534 4219 1204 4116 
Q 875 4013 500 3803 
L 500 4441 
Q 881 4594 1212 4672 
Q 1544 4750 1819 4750 
Q 2544 4750 2975 4387 
Q 3406 4025 3406 3419 
Q 3406 3131 3298 2873 
Q 3191 2616 2906 2266 
Q 2828 2175 2409 1742 
Q 1991 1309 1228 531 
z
" id="DejaVuSans-32" transform="scale(0.015625)"/>
       </defs>
       <use xlink:href="#DejaVuSans-32"/>
       <use x="63.623047" xlink:href="#DejaVuSans-30"/>
       <use x="127.246094" xlink:href="#DejaVuSans-30"/>
      </g>
     </g>
    </g>
    <g id="xtick_3">
     <g id="line2d_3">
      <g>
       <use style="stroke:#000000;stroke-width:0.8;" x="615.175066" xlink:href="#me2ddfc9ce4" y="586.86358"/>
      </g>
     </g>
     <g id="text_3">
      <!-- 400 -->
      <g transform="translate(605.631316 601.462017)scale(0.1 -0.1)">
       <defs>
        <path d="M 2419 4116 
L 825 1625 
L 2419 1625 
L 2419 4116 
z
M 2253 4666 
L 3047 4666 
L 3047 1625 
L 3713 1625 
L 3713 1100 
L 3047 1100 
L 3047 0 
L 2419 0 
L 2419 1100 
L 313 1100 
L 313 1709 
L 2253 4666 
z
" id="DejaVuSans-34" transform="scale(0.015625)"/>
       </defs>
       <use xlink:href="#DejaVuSans-34"/>
       <use x="63.623047" xlink:href="#DejaVuSans-30"/>
       <use x="127.246094" xlink:href="#DejaVuSans-30"/>
      </g>
     </g>
    </g>
    <g id="xtick_4">
     <g id="line2d_4">
      <g>
       <use style="stroke:#000000;stroke-width:0.8;" x="862.82652" xlink:href="#me2ddfc9ce4" y="586.86358"/>
      </g>
     </g>
     <g id="text_4">
      <!-- 600 -->
      <g transform="translate(853.28277 601.462017)scale(0.1 -0.1)">
       <defs>
        <path d="M 2113 2584 
Q 1688 2584 1439 2293 
Q 1191 2003 1191 1497 
Q 1191 994 1439 701 
Q 1688 409 2113 409 
Q 2538 409 2786 701 
Q 3034 994 3034 1497 
Q 3034 2003 2786 2293 
Q 2538 2584 2113 2584 
z
M 3366 4563 
L 3366 3988 
Q 3128 4100 2886 4159 
Q 2644 4219 2406 4219 
Q 1781 4219 1451 3797 
Q 1122 3375 1075 2522 
Q 1259 2794 1537 2939 
Q 1816 3084 2150 3084 
Q 2853 3084 3261 2657 
Q 3669 2231 3669 1497 
Q 3669 778 3244 343 
Q 2819 -91 2113 -91 
Q 1303 -91 875 529 
Q 447 1150 447 2328 
Q 447 3434 972 4092 
Q 1497 4750 2381 4750 
Q 2619 4750 2861 4703 
Q 3103 4656 3366 4563 
z
" id="DejaVuSans-36" transform="scale(0.015625)"/>
       </defs>
       <use xlink:href="#DejaVuSans-36"/>
       <use x="63.623047" xlink:href="#DejaVuSans-30"/>
       <use x="127.246094" xlink:href="#DejaVuSans-30"/>
      </g>
     </g>
    </g>
    <g id="xtick_5">
     <g id="line2d_5">
      <g>
       <use style="stroke:#000000;stroke-width:0.8;" x="1110.477973" xlink:href="#me2ddfc9ce4" y="586.86358"/>
      </g>
     </g>
     <g id="text_5">
      <!-- 800 -->
      <g transform="translate(1100.934223 601.462017)scale(0.1 -0.1)">
       <defs>
        <path d="M 2034 2216 
Q 1584 2216 1326 1975 
Q 1069 1734 1069 1313 
Q 1069 891 1326 650 
Q 1584 409 2034 409 
Q 2484 409 2743 651 
Q 3003 894 3003 1313 
Q 3003 1734 2745 1975 
Q 2488 2216 2034 2216 
z
M 1403 2484 
Q 997 2584 770 2862 
Q 544 3141 544 3541 
Q 544 4100 942 4425 
Q 1341 4750 2034 4750 
Q 2731 4750 3128 4425 
Q 3525 4100 3525 3541 
Q 3525 3141 3298 2862 
Q 3072 2584 2669 2484 
Q 3125 2378 3379 2068 
Q 3634 1759 3634 1313 
Q 3634 634 3220 271 
Q 2806 -91 2034 -91 
Q 1263 -91 848 271 
Q 434 634 434 1313 
Q 434 1759 690 2068 
Q 947 2378 1403 2484 
z
M 1172 3481 
Q 1172 3119 1398 2916 
Q 1625 2713 2034 2713 
Q 2441 2713 2670 2916 
Q 2900 3119 2900 3481 
Q 2900 3844 2670 4047 
Q 2441 4250 2034 4250 
Q 1625 4250 1398 4047 
Q 1172 3844 1172 3481 
z
" id="DejaVuSans-38" transform="scale(0.015625)"/>
       </defs>
       <use xlink:href="#DejaVuSans-38"/>
       <use x="63.623047" xlink:href="#DejaVuSans-30"/>
       <use x="127.246094" xlink:href="#DejaVuSans-30"/>
      </g>
     </g>
    </g>
    <g id="xtick_6">
     <g id="line2d_6">
      <g>
       <use style="stroke:#000000;stroke-width:0.8;" x="1358.129427" xlink:href="#me2ddfc9ce4" y="586.86358"/>
      </g>
     </g>
     <g id="text_6">
      <!-- 1000 -->
      <g transform="translate(1345.404427 601.462017)scale(0.1 -0.1)">
       <defs>
        <path d="M 794 531 
L 1825 531 
L 1825 4091 
L 703 3866 
L 703 4441 
L 1819 4666 
L 2450 4666 
L 2450 531 
L 3481 531 
L 3481 0 
L 794 0 
L 794 531 
z
" id="DejaVuSans-31" transform="scale(0.015625)"/>
       </defs>
       <use xlink:href="#DejaVuSans-31"/>
       <use x="63.623047" xlink:href="#DejaVuSans-30"/>
       <use x="127.246094" xlink:href="#DejaVuSans-30"/>
       <use x="190.869141" xlink:href="#DejaVuSans-30"/>
      </g>
     </g>
    </g>
    <g id="xtick_7">
     <g id="line2d_7">
      <g>
       <use style="stroke:#000000;stroke-width:0.8;" x="1605.78088" xlink:href="#me2ddfc9ce4" y="586.86358"/>
      </g>
     </g>
     <g id="text_7">
      <!-- 1200 -->
      <g transform="translate(1593.05588 601.462017)scale(0.1 -0.1)">
       <use xlink:href="#DejaVuSans-31"/>
       <use x="63.623047" xlink:href="#DejaVuSans-32"/>
       <use x="127.246094" xlink:href="#DejaVuSans-30"/>
       <use x="190.869141" xlink:href="#DejaVuSans-30"/>
      </g>
     </g>
    </g>
    <g id="text_8">
     <!-- frame -->
     <g transform="translate(865.954687 615.140142)scale(0.1 -0.1)">
      <defs>
       <path d="M 2375 4863 
L 2375 4384 
L 1825 4384 
Q 1516 4384 1395 4259 
Q 1275 4134 1275 3809 
L 1275 3500 
L 2222 3500 
L 2222 3053 
L 1275 3053 
L 1275 0 
L 697 0 
L 697 3053 
L 147 3053 
L 147 3500 
L 697 3500 
L 697 3744 
Q 697 4328 969 4595 
Q 1241 4863 1831 4863 
L 2375 4863 
z
" id="DejaVuSans-66" transform="scale(0.015625)"/>
       <path d="M 2631 2963 
Q 2534 3019 2420 3045 
Q 2306 3072 2169 3072 
Q 1681 3072 1420 2755 
Q 1159 2438 1159 1844 
L 1159 0 
L 581 0 
L 581 3500 
L 1159 3500 
L 1159 2956 
Q 1341 3275 1631 3429 
Q 1922 3584 2338 3584 
Q 2397 3584 2469 3576 
Q 2541 3569 2628 3553 
L 2631 2963 
z
" id="DejaVuSans-72" transform="scale(0.015625)"/>
       <path d="M 2194 1759 
Q 1497 1759 1228 1600 
Q 959 1441 959 1056 
Q 959 750 1161 570 
Q 1363 391 1709 391 
Q 2188 391 2477 730 
Q 2766 1069 2766 1631 
L 2766 1759 
L 2194 1759 
z
M 3341 1997 
L 3341 0 
L 2766 0 
L 2766 531 
Q 2569 213 2275 61 
Q 1981 -91 1556 -91 
Q 1019 -91 701 211 
Q 384 513 384 1019 
Q 384 1609 779 1909 
Q 1175 2209 1959 2209 
L 2766 2209 
L 2766 2266 
Q 2766 2663 2505 2880 
Q 2244 3097 1772 3097 
Q 1472 3097 1187 3025 
Q 903 2953 641 2809 
L 641 3341 
Q 956 3463 1253 3523 
Q 1550 3584 1831 3584 
Q 2591 3584 2966 3190 
Q 3341 2797 3341 1997 
z
" id="DejaVuSans-61" transform="scale(0.015625)"/>
       <path d="M 3328 2828 
Q 3544 3216 3844 3400 
Q 4144 3584 4550 3584 
Q 5097 3584 5394 3201 
Q 5691 2819 5691 2113 
L 5691 0 
L 5113 0 
L 5113 2094 
Q 5113 2597 4934 2840 
Q 4756 3084 4391 3084 
Q 3944 3084 3684 2787 
Q 3425 2491 3425 1978 
L 3425 0 
L 2847 0 
L 2847 2094 
Q 2847 2600 2669 2842 
Q 2491 3084 2119 3084 
Q 1678 3084 1418 2786 
Q 1159 2488 1159 1978 
L 1159 0 
L 581 0 
L 581 3500 
L 1159 3500 
L 1159 2956 
Q 1356 3278 1631 3431 
Q 1906 3584 2284 3584 
Q 2666 3584 2933 3390 
Q 3200 3197 3328 2828 
z
" id="DejaVuSans-6d" transform="scale(0.015625)"/>
       <path d="M 3597 1894 
L 3597 1613 
L 953 1613 
Q 991 1019 1311 708 
Q 1631 397 2203 397 
Q 2534 397 2845 478 
Q 3156 559 3463 722 
L 3463 178 
Q 3153 47 2828 -22 
Q 2503 -91 2169 -91 
Q 1331 -91 842 396 
Q 353 884 353 1716 
Q 353 2575 817 3079 
Q 1281 3584 2069 3584 
Q 2775 3584 3186 3129 
Q 3597 2675 3597 1894 
z
M 3022 2063 
Q 3016 2534 2758 2815 
Q 2500 3097 2075 3097 
Q 1594 3097 1305 2825 
Q 1016 2553 972 2059 
L 3022 2063 
z
" id="DejaVuSans-65" transform="scale(0.015625)"/>
      </defs>
      <use xlink:href="#DejaVuSans-66"/>
      <use x="35.205078" xlink:href="#DejaVuSans-72"/>
      <use x="76.318359" xlink:href="#DejaVuSans-61"/>
      <use x="137.597656" xlink:href="#DejaVuSans-6d"/>
      <use x="235.009766" xlink:href="#DejaVuSans-65"/>
     </g>
    </g>
   </g>
   <g id="matplotlib.axis_2">
    <g id="ytick_1">
     <g id="line2d_8">
      <defs>
       <path d="M 0 0 
L -3.5 0 
" id="m216b5f66ba" style="stroke:#000000;stroke-width:0.8;"/>
      </defs>
      <g>
       <use style="stroke:#000000;stroke-width:0.8;" x="43.78125" xlink:href="#m216b5f66ba" y="561.202423"/>
      </g>
     </g>
     <g id="text_9">
      <!-- 0.0 -->
      <g transform="translate(20.878125 565.001641)scale(0.1 -0.1)">
       <defs>
        <path d="M 684 794 
L 1344 794 
L 1344 0 
L 684 0 
L 684 794 
z
" id="DejaVuSans-2e" transform="scale(0.015625)"/>
       </defs>
       <use xlink:href="#DejaVuSans-30"/>
       <use x="63.623047" xlink:href="#DejaVuSans-2e"/>
       <use x="95.410156" xlink:href="#DejaVuSans-30"/>
      </g>
     </g>
    </g>
    <g id="ytick_2">
     <g id="line2d_9">
      <g>
       <use style="stroke:#000000;stroke-width:0.8;" x="43.78125" xlink:href="#m216b5f66ba" y="468.046091"/>
      </g>
     </g>
     <g id="text_10">
      <!-- 0.5 -->
      <g transform="translate(20.878125 471.84531)scale(0.1 -0.1)">
       <defs>
        <path d="M 691 4666 
L 3169 4666 
L 3169 4134 
L 1269 4134 
L 1269 2991 
Q 1406 3038 1543 3061 
Q 1681 3084 1819 3084 
Q 2600 3084 3056 2656 
Q 3513 2228 3513 1497 
Q 3513 744 3044 326 
Q 2575 -91 1722 -91 
Q 1428 -91 1123 -41 
Q 819 9 494 109 
L 494 744 
Q 775 591 1075 516 
Q 1375 441 1709 441 
Q 2250 441 2565 725 
Q 2881 1009 2881 1497 
Q 2881 1984 2565 2268 
Q 2250 2553 1709 2553 
Q 1456 2553 1204 2497 
Q 953 2441 691 2322 
L 691 4666 
z
" id="DejaVuSans-35" transform="scale(0.015625)"/>
       </defs>
       <use xlink:href="#DejaVuSans-30"/>
       <use x="63.623047" xlink:href="#DejaVuSans-2e"/>
       <use x="95.410156" xlink:href="#DejaVuSans-35"/>
      </g>
     </g>
    </g>
    <g id="ytick_3">
     <g id="line2d_10">
      <g>
       <use style="stroke:#000000;stroke-width:0.8;" x="43.78125" xlink:href="#m216b5f66ba" y="374.889759"/>
      </g>
     </g>
     <g id="text_11">
      <!-- 1.0 -->
      <g transform="translate(20.878125 378.688978)scale(0.1 -0.1)">
       <use xlink:href="#DejaVuSans-31"/>
       <use x="63.623047" xlink:href="#DejaVuSans-2e"/>
       <use x="95.410156" xlink:href="#DejaVuSans-30"/>
      </g>
     </g>
    </g>
    <g id="ytick_4">
     <g id="line2d_11">
      <g>
       <use style="stroke:#000000;stroke-width:0.8;" x="43.78125" xlink:href="#m216b5f66ba" y="281.733428"/>
      </g>
     </g>
     <g id="text_12">
      <!-- 1.5 -->
      <g transform="translate(20.878125 285.532647)scale(0.1 -0.1)">
       <use xlink:href="#DejaVuSans-31"/>
       <use x="63.623047" xlink:href="#DejaVuSans-2e"/>
       <use x="95.410156" xlink:href="#DejaVuSans-35"/>
      </g>
     </g>
    </g>
    <g id="ytick_5">
     <g id="line2d_12">
      <g>
       <use style="stroke:#000000;stroke-width:0.8;" x="43.78125" xlink:href="#m216b5f66ba" y="188.577096"/>
      </g>
     </g>
     <g id="text_13">
      <!-- 2.0 -->
      <g transform="translate(20.878125 192.376315)scale(0.1 -0.1)">
       <use xlink:href="#DejaVuSans-32"/>
       <use x="63.623047" xlink:href="#DejaVuSans-2e"/>
       <use x="95.410156" xlink:href="#DejaVuSans-30"/>
      </g>
     </g>
    </g>
    <g id="ytick_6">
     <g id="line2d_13">
      <g>
       <use style="stroke:#000000;stroke-width:0.8;" x="43.78125" xlink:href="#m216b5f66ba" y="95.420765"/>
      </g>
     </g>
     <g id="text_14">
      <!-- 2.5 -->
      <g transform="translate(20.878125 99.219984)scale(0.1 -0.1)">
       <use xlink:href="#DejaVuSans-32"/>
       <use x="63.623047" xlink:href="#DejaVuSans-2e"/>
       <use x="95.410156" xlink:href="#DejaVuSans-35"/>
      </g>
     </g>
    </g>
    <g id="text_15">
     <!-- GCaMP -->
     <g transform="translate(14.798437 322.349446)rotate(-90)scale(0.1 -0.1)">
      <defs>
       <path d="M 3809 666 
L 3809 1919 
L 2778 1919 
L 2778 2438 
L 4434 2438 
L 4434 434 
Q 4069 175 3628 42 
Q 3188 -91 2688 -91 
Q 1594 -91 976 548 
Q 359 1188 359 2328 
Q 359 3472 976 4111 
Q 1594 4750 2688 4750 
Q 3144 4750 3555 4637 
Q 3966 4525 4313 4306 
L 4313 3634 
Q 3963 3931 3569 4081 
Q 3175 4231 2741 4231 
Q 1884 4231 1454 3753 
Q 1025 3275 1025 2328 
Q 1025 1384 1454 906 
Q 1884 428 2741 428 
Q 3075 428 3337 486 
Q 3600 544 3809 666 
z
" id="DejaVuSans-47" transform="scale(0.015625)"/>
       <path d="M 4122 4306 
L 4122 3641 
Q 3803 3938 3442 4084 
Q 3081 4231 2675 4231 
Q 1875 4231 1450 3742 
Q 1025 3253 1025 2328 
Q 1025 1406 1450 917 
Q 1875 428 2675 428 
Q 3081 428 3442 575 
Q 3803 722 4122 1019 
L 4122 359 
Q 3791 134 3420 21 
Q 3050 -91 2638 -91 
Q 1578 -91 968 557 
Q 359 1206 359 2328 
Q 359 3453 968 4101 
Q 1578 4750 2638 4750 
Q 3056 4750 3426 4639 
Q 3797 4528 4122 4306 
z
" id="DejaVuSans-43" transform="scale(0.015625)"/>
       <path d="M 628 4666 
L 1569 4666 
L 2759 1491 
L 3956 4666 
L 4897 4666 
L 4897 0 
L 4281 0 
L 4281 4097 
L 3078 897 
L 2444 897 
L 1241 4097 
L 1241 0 
L 628 0 
L 628 4666 
z
" id="DejaVuSans-4d" transform="scale(0.015625)"/>
       <path d="M 1259 4147 
L 1259 2394 
L 2053 2394 
Q 2494 2394 2734 2622 
Q 2975 2850 2975 3272 
Q 2975 3691 2734 3919 
Q 2494 4147 2053 4147 
L 1259 4147 
z
M 628 4666 
L 2053 4666 
Q 2838 4666 3239 4311 
Q 3641 3956 3641 3272 
Q 3641 2581 3239 2228 
Q 2838 1875 2053 1875 
L 1259 1875 
L 1259 0 
L 628 0 
L 628 4666 
z
" id="DejaVuSans-50" transform="scale(0.015625)"/>
      </defs>
      <use xlink:href="#DejaVuSans-47"/>
      <use x="77.490234" xlink:href="#DejaVuSans-43"/>
      <use x="147.314453" xlink:href="#DejaVuSans-61"/>
      <use x="208.59375" xlink:href="#DejaVuSans-4d"/>
      <use x="294.873047" xlink:href="#DejaVuSans-50"/>
     </g>
    </g>
   </g>
   <g id="line2d_14">
    <path clip-path="url(#pdb079ac0e6)" d="M 119.872159 79.122295 
L 122.348674 104.493845 
L 123.586931 116.23277 
L 124.825188 126.650179 
L 126.063445 135.758305 
L 127.301703 143.717055 
L 128.53996 150.455298 
L 129.778217 155.575412 
L 131.016474 158.145155 
L 132.254732 157.560436 
L 134.731246 152.043643 
L 135.969504 150.7082 
L 137.207761 150.828377 
L 138.446018 151.844755 
L 139.684275 153.780547 
L 140.922533 157.156512 
L 142.16079 162.22064 
L 148.352076 192.712357 
L 149.590334 198.294523 
L 150.828591 201.720784 
L 152.066848 202.629701 
L 153.305105 201.714691 
L 154.543363 200.452543 
L 155.78162 200.49969 
L 157.019877 202.783186 
L 158.258134 207.171775 
L 161.972906 224.264844 
L 163.211163 228.47434 
L 164.449421 230.919184 
L 165.687678 231.545116 
L 166.925935 230.435408 
L 169.40245 225.866129 
L 170.640707 225.428154 
L 171.878964 227.43828 
L 174.355479 234.361814 
L 175.593736 235.848692 
L 176.831993 235.329866 
L 178.070251 234.047853 
L 179.308508 233.385544 
L 181.785022 233.808324 
L 184.261537 233.067026 
L 185.499794 233.560741 
L 186.738052 235.103329 
L 189.214566 239.489446 
L 190.452823 240.606183 
L 191.691081 240.220572 
L 195.405852 236.082653 
L 196.64411 235.094079 
L 197.882367 234.870708 
L 199.120624 235.805919 
L 200.358881 237.591243 
L 202.835396 241.694414 
L 204.073653 243.458131 
L 206.550168 246.284952 
L 207.788425 247.47994 
L 209.026682 248.008078 
L 210.26494 247.469224 
L 212.741454 245.183615 
L 213.979711 244.527023 
L 215.217969 244.578396 
L 216.456226 245.471871 
L 218.93274 248.3702 
L 220.170998 249.555234 
L 221.409255 250.285921 
L 222.647512 250.871848 
L 223.88577 251.920048 
L 225.124027 253.350001 
L 226.362284 254.394406 
L 227.600541 254.696779 
L 228.838799 254.351432 
L 230.077056 253.148691 
L 231.315313 250.878109 
L 233.791828 245.20851 
L 235.030085 243.102037 
L 238.744857 238.63379 
L 239.983114 237.950875 
L 241.221371 238.845025 
L 242.459629 241.243225 
L 244.936143 248.103521 
L 246.1744 250.24047 
L 247.412658 250.107679 
L 248.650915 248.084308 
L 249.889172 245.512167 
L 251.127429 243.603855 
L 252.365687 243.007423 
L 253.603944 244.10898 
L 254.842201 246.733122 
L 256.080459 249.619871 
L 257.318716 251.038436 
L 258.556973 250.026322 
L 261.033488 244.288174 
L 262.271745 243.282051 
L 263.510002 244.534456 
L 264.748259 246.678682 
L 265.986517 247.768866 
L 267.224774 247.081342 
L 268.463031 245.653886 
L 269.701288 245.04625 
L 272.177803 246.164555 
L 273.41606 245.196806 
L 274.654318 242.230762 
L 275.892575 237.653422 
L 278.369089 226.932264 
L 279.607347 222.276792 
L 280.845604 218.634429 
L 282.083861 215.882753 
L 283.322118 213.726779 
L 285.798633 209.862879 
L 288.275147 205.311134 
L 290.751662 202.050969 
L 293.228177 197.768443 
L 294.466434 196.504622 
L 296.942948 196.177724 
L 298.181206 195.235336 
L 299.419463 193.832744 
L 300.65772 192.97415 
L 303.134235 193.059544 
L 304.372492 192.701932 
L 305.610749 192.898567 
L 306.849006 195.13237 
L 308.087264 200.096715 
L 309.325521 207.449409 
L 310.563778 216.417947 
L 314.27855 247.20301 
L 315.516807 254.127642 
L 316.755065 256.51508 
L 317.993322 254.468402 
L 319.231579 249.187637 
L 324.184608 220.501278 
L 325.422866 214.651624 
L 326.661123 209.984774 
L 327.89938 206.984331 
L 329.137637 205.77964 
L 330.375895 206.118256 
L 331.614152 207.124226 
L 332.852409 207.500027 
L 335.328924 206.149434 
L 336.567181 206.82759 
L 337.805438 208.940354 
L 340.281953 214.701307 
L 341.52021 216.274915 
L 342.758467 215.964632 
L 345.234982 213.097483 
L 347.711496 211.091261 
L 348.949754 210.399053 
L 350.188011 210.518134 
L 351.426268 211.170081 
L 352.664525 211.334713 
L 353.902783 210.349551 
L 355.14104 207.951485 
L 356.379297 204.148902 
L 357.617554 199.862908 
L 358.855812 196.81711 
L 360.094069 196.239914 
L 361.332326 197.785132 
L 362.570584 199.928542 
L 363.808841 201.355237 
L 365.047098 201.6864 
L 366.285355 201.459682 
L 367.523613 201.754759 
L 368.76187 203.155974 
L 370.000127 204.984452 
L 371.238384 205.673171 
L 372.476642 204.216349 
L 373.714899 201.597393 
L 374.953156 199.766487 
L 376.191413 199.283246 
L 377.429671 199.381634 
L 378.667928 199.608532 
L 379.906185 199.964812 
L 381.144443 200.098082 
L 383.620957 199.267364 
L 384.859214 199.998769 
L 386.097472 202.188518 
L 387.335729 204.874277 
L 388.573986 206.641049 
L 389.812243 206.79361 
L 391.050501 205.682088 
L 392.288758 204.158771 
L 393.527015 203.094083 
L 394.765272 203.188244 
L 396.00353 204.456171 
L 397.241787 205.921305 
L 398.480044 206.409659 
L 400.956559 204.997491 
L 402.194816 205.544425 
L 403.433073 207.672573 
L 407.147845 216.745567 
L 410.862617 226.791279 
L 412.100874 228.425227 
L 413.339132 228.706262 
L 414.577389 227.517627 
L 415.815646 224.826136 
L 418.292161 217.914947 
L 419.530418 215.66036 
L 420.768675 214.382451 
L 422.006932 213.490903 
L 423.24519 212.746598 
L 424.483447 212.362502 
L 425.721704 212.59729 
L 426.959961 213.509982 
L 428.198219 214.591418 
L 429.436476 214.80817 
L 430.674733 213.92035 
L 431.912991 213.491616 
L 433.151248 215.614574 
L 435.627762 225.392429 
L 436.86602 228.343271 
L 438.104277 228.747909 
L 439.342534 227.119207 
L 440.580791 224.030865 
L 441.819049 220.30076 
L 443.057306 217.20055 
L 444.295563 215.984186 
L 445.53382 217.08688 
L 448.010335 222.756953 
L 449.248592 224.654244 
L 450.48685 225.097858 
L 451.725107 224.318829 
L 454.201621 221.008553 
L 455.439879 220.131542 
L 457.916393 220.255758 
L 459.15465 219.761979 
L 460.392908 218.88056 
L 461.631165 218.199883 
L 462.869422 217.950245 
L 464.107679 217.894138 
L 465.345937 217.641168 
L 466.584194 217.1425 
L 467.822451 216.983436 
L 469.060709 217.764528 
L 470.298966 219.165049 
L 471.537223 220.093073 
L 472.77548 219.939634 
L 474.013738 219.284666 
L 475.251995 219.227129 
L 476.490252 220.412837 
L 477.728509 222.636705 
L 478.966767 225.123342 
L 480.205024 227.294399 
L 482.681538 231.085886 
L 483.919796 232.714877 
L 485.158053 233.454749 
L 486.39631 232.905581 
L 487.634568 230.98963 
L 488.872825 228.068707 
L 490.111082 225.565665 
L 491.349339 225.505741 
L 492.587597 228.794079 
L 495.064111 239.878125 
L 496.302368 243.411949 
L 497.540626 244.158183 
L 498.778883 242.147739 
L 500.01714 237.242748 
L 501.255397 229.583284 
L 502.493655 220.762184 
L 503.731912 213.768912 
L 504.970169 211.587853 
L 506.208427 215.133841 
L 508.684941 229.474741 
L 509.923198 234.273819 
L 511.161456 236.291149 
L 512.399713 236.442874 
L 513.63797 235.601656 
L 516.114485 232.424085 
L 517.352742 232.139938 
L 518.590999 233.834831 
L 519.829257 236.508109 
L 521.067514 238.459348 
L 522.305771 238.586311 
L 523.544028 237.034688 
L 524.782286 234.913781 
L 527.2588 231.159651 
L 528.497057 228.346921 
L 530.973572 220.336887 
L 532.211829 217.36229 
L 533.450086 216.592668 
L 534.688344 217.811449 
L 535.926601 219.553666 
L 537.164858 220.187318 
L 538.403116 218.828133 
L 539.641373 215.473283 
L 542.117887 205.813977 
L 543.356145 201.801624 
L 544.594402 199.387233 
L 545.832659 198.638951 
L 547.070916 199.558825 
L 549.547431 203.765675 
L 550.785688 204.066735 
L 553.262203 200.945626 
L 554.50046 201.00861 
L 555.738717 202.629614 
L 556.976975 203.807653 
L 558.215232 202.403754 
L 559.453489 197.914287 
L 561.930004 185.715212 
L 563.168261 180.662789 
L 564.406518 176.813615 
L 565.644775 174.402998 
L 566.883033 173.948088 
L 568.12129 175.727391 
L 569.359547 179.112837 
L 570.597804 182.911584 
L 571.836062 186.108835 
L 573.074319 188.11343 
L 574.312576 188.779443 
L 576.789091 188.308169 
L 578.027348 189.372 
L 579.265605 192.221536 
L 580.503863 196.14502 
L 581.74212 199.552644 
L 582.980377 200.93179 
L 584.218634 199.764172 
L 586.695149 193.908703 
L 587.933406 191.972647 
L 589.171663 191.535676 
L 590.409921 192.629881 
L 592.886435 196.806329 
L 594.124693 197.727523 
L 595.36295 197.32301 
L 596.601207 196.348933 
L 597.839464 196.23299 
L 599.077722 198.163675 
L 600.315979 202.235303 
L 601.554236 207.74959 
L 604.030751 220.062549 
L 605.269008 224.454663 
L 606.507265 225.537186 
L 607.745523 222.987091 
L 608.98378 217.873163 
L 611.460294 205.405184 
L 612.698552 199.772662 
L 613.936809 194.817559 
L 615.175066 190.781487 
L 616.413323 187.896808 
L 617.651581 185.57009 
L 618.889838 182.529562 
L 621.366352 173.999551 
L 622.60461 171.316894 
L 623.842867 170.735455 
L 625.081124 171.57723 
L 626.319382 172.570644 
L 627.557639 172.357396 
L 628.795896 170.425285 
L 631.272411 164.011825 
L 632.510668 160.806224 
L 633.748925 157.163855 
L 636.22544 147.359758 
L 637.463697 144.379663 
L 638.701954 145.001256 
L 639.940211 148.639697 
L 642.416726 158.418854 
L 643.654983 160.888221 
L 644.893241 159.617242 
L 646.131498 154.595909 
L 647.369755 147.75298 
L 648.608012 142.208346 
L 649.84627 140.466702 
L 651.084527 143.365587 
L 652.322784 149.25837 
L 653.561041 154.04061 
L 654.799299 153.80739 
L 656.037556 147.303666 
L 657.275813 135.986089 
L 658.51407 122.987293 
L 659.752328 111.652653 
L 660.990585 104.103659 
L 662.228842 100.432051 
L 664.705357 97.417653 
L 665.943614 94.43933 
L 667.181871 89.397752 
L 669.658386 76.180437 
L 670.896643 70.942201 
L 672.1349 67.872658 
L 674.611415 64.846733 
L 675.849672 61.688797 
L 678.326187 52.57332 
L 679.564444 48.9201 
L 680.802701 47.979282 
L 682.040959 51.06806 
L 685.75573 69.293161 
L 688.232245 79.32215 
L 689.470502 83.424782 
L 690.708759 86.582984 
L 691.947017 88.806016 
L 693.185274 90.494283 
L 694.423531 91.511751 
L 695.661789 90.772516 
L 696.900046 87.52008 
L 698.138303 82.314714 
L 699.37656 76.598612 
L 700.614818 71.734899 
L 701.853075 68.100789 
L 703.091332 65.260802 
L 704.329589 63.202728 
L 705.567847 62.531186 
L 706.806104 63.882554 
L 708.044361 67.928518 
L 709.282618 74.651928 
L 710.520876 82.256951 
L 711.759133 88.598236 
L 715.473905 103.898814 
L 716.712162 105.519814 
L 717.950419 102.934914 
L 719.188677 98.618817 
L 720.426934 96.616141 
L 721.665191 99.233461 
L 722.903448 105.711892 
L 724.141706 113.646993 
L 725.379963 120.408694 
L 726.61822 124.047899 
L 727.856477 124.534981 
L 729.094735 123.631052 
L 730.332992 123.313813 
L 731.571249 124.70499 
L 734.047764 130.904559 
L 735.286021 132.511284 
L 736.524278 131.844356 
L 737.762536 130.097405 
L 739.000793 129.262393 
L 741.477307 130.892801 
L 742.715565 129.980527 
L 743.953822 127.686693 
L 745.192079 126.225361 
L 746.430336 126.969916 
L 747.668594 129.438348 
L 748.906851 132.454942 
L 750.145108 135.057589 
L 751.383366 136.384186 
L 752.621623 135.722445 
L 755.098137 131.23388 
L 756.336395 131.80645 
L 757.574652 135.421838 
L 758.812909 139.520253 
L 760.051166 141.215753 
L 761.289424 139.802271 
L 763.765938 133.662295 
L 765.004195 131.360061 
L 766.242453 129.482951 
L 767.48071 127.823132 
L 768.718967 127.35939 
L 769.957225 130.097626 
L 771.195482 136.803099 
L 772.433739 145.516548 
L 773.671996 153.336858 
L 774.910254 158.850616 
L 776.148511 162.46377 
L 777.386768 165.213881 
L 778.625025 167.490848 
L 779.863283 168.733266 
L 781.10154 168.162144 
L 782.339797 165.694621 
L 783.578054 162.432647 
L 784.816312 160.137836 
L 786.054569 159.627203 
L 787.292826 160.115523 
L 788.531084 160.749948 
L 789.769341 162.03945 
L 791.007598 165.34371 
L 792.245855 171.097082 
L 793.484113 177.383008 
L 794.72237 180.860726 
L 795.960627 179.570984 
L 797.198884 174.226223 
L 799.675399 159.486849 
L 800.913656 153.266204 
L 802.151914 148.807814 
L 803.390171 146.130644 
L 804.628428 145.369687 
L 805.866685 146.64007 
L 807.104943 148.871751 
L 808.3432 150.023311 
L 809.581457 149.077993 
L 812.057972 144.404823 
L 813.296229 142.981597 
L 814.534486 143.254246 
L 815.772743 145.198656 
L 817.011001 147.666428 
L 818.249258 149.173159 
L 819.487515 148.907493 
L 820.725773 146.791421 
L 821.96403 143.044344 
L 824.440544 133.471668 
L 825.678802 130.40489 
L 826.917059 130.165606 
L 828.155316 132.736512 
L 830.631831 140.950312 
L 831.870088 143.825755 
L 833.108345 145.085862 
L 836.823117 145.918566 
L 838.061374 145.213343 
L 839.299632 143.148214 
L 840.537889 140.094796 
L 841.776146 136.230773 
L 844.252661 127.321728 
L 845.490918 124.400808 
L 846.729175 123.933185 
L 847.967432 125.762371 
L 849.20569 128.689739 
L 850.443947 130.987987 
L 851.682204 131.246373 
L 852.920461 129.504065 
L 854.158719 127.13285 
L 855.396976 125.322222 
L 856.635233 124.15427 
L 859.111748 122.378514 
L 860.350005 121.558538 
L 861.588262 121.122008 
L 862.82652 121.847233 
L 864.064777 124.52467 
L 865.303034 129.48469 
L 866.541291 135.762038 
L 867.779549 141.076708 
L 869.017806 143.3196 
L 870.256063 141.810523 
L 872.732578 133.393261 
L 873.970835 131.806868 
L 875.209092 133.85123 
L 877.685607 143.015585 
L 878.923864 146.380611 
L 880.162121 147.870307 
L 881.400379 147.816398 
L 882.638636 147.185878 
L 885.11515 146.412771 
L 886.353408 144.99584 
L 887.591665 142.587874 
L 888.829922 140.505006 
L 890.06818 139.886358 
L 891.306437 141.230974 
L 892.544694 145.160124 
L 895.021209 158.337052 
L 896.259466 162.223843 
L 897.497723 161.891399 
L 898.73598 158.188395 
L 901.212495 147.549569 
L 902.450752 144.074718 
L 903.689009 143.327423 
L 904.927267 144.843142 
L 906.165524 147.0004 
L 907.403781 148.001029 
L 908.642039 146.446467 
L 909.880296 141.774944 
L 912.35681 128.333421 
L 913.595068 123.167579 
L 914.833325 119.910749 
L 916.071582 118.094191 
L 917.309839 116.864749 
L 918.548097 115.451173 
L 919.786354 113.390293 
L 921.024611 111.090189 
L 922.262868 110.101267 
L 923.501126 111.829142 
L 924.739383 116.099594 
L 925.97764 121.321583 
L 927.215898 125.896008 
L 928.454155 128.845665 
L 929.692412 129.172961 
L 930.930669 126.38719 
L 934.645441 111.883428 
L 935.883698 108.101851 
L 938.360213 101.382423 
L 939.59847 98.708979 
L 940.836727 97.413324 
L 942.074985 97.623503 
L 943.313242 98.958125 
L 944.551499 101.133722 
L 949.504528 112.355146 
L 950.742786 116.094659 
L 953.2193 124.410209 
L 954.457557 127.470017 
L 955.695815 129.266989 
L 956.934072 129.601914 
L 958.172329 127.983641 
L 959.410586 123.987788 
L 960.648844 118.594163 
L 961.887101 114.436448 
L 963.125358 113.767227 
L 964.363616 116.221096 
L 965.601873 119.249345 
L 966.84013 120.749317 
L 968.078387 120.431255 
L 969.316645 119.344834 
L 970.554902 119.408488 
L 971.793159 122.222018 
L 974.269674 132.860955 
L 975.507931 136.832949 
L 976.746188 138.408676 
L 977.984446 137.042361 
L 979.222703 132.616204 
L 980.46096 126.344904 
L 981.699217 120.696111 
L 982.937475 117.862548 
L 984.175732 118.155541 
L 985.413989 119.806099 
L 986.652246 120.374377 
L 987.890504 118.410833 
L 989.128761 114.090671 
L 992.843533 98.172066 
L 994.08179 93.615346 
L 995.320047 90.423868 
L 996.558305 89.556462 
L 997.796562 90.256961 
L 999.034819 90.130817 
L 1000.273076 87.517304 
L 1002.749591 78.141787 
L 1003.987848 75.49255 
L 1005.226105 75.225714 
L 1006.464363 75.527264 
L 1007.70262 74.598817 
L 1008.940877 72.613114 
L 1010.179134 71.405732 
L 1011.417392 72.471118 
L 1012.655649 75.524764 
L 1013.893906 79.072502 
L 1015.132164 81.54216 
L 1016.370421 81.755628 
L 1017.608678 79.481723 
L 1018.846935 75.482943 
L 1021.32345 66.272509 
L 1022.561707 63.72399 
L 1023.799964 63.933026 
L 1025.038222 66.413264 
L 1026.276479 69.771074 
L 1027.514736 72.33625 
L 1028.752993 73.071453 
L 1029.991251 72.24046 
L 1033.706023 67.692718 
L 1034.94428 65.712389 
L 1036.182537 63.097805 
L 1037.420794 60.746236 
L 1038.659052 59.539176 
L 1039.897309 59.499433 
L 1041.135566 60.313173 
L 1042.373823 62.056339 
L 1043.612081 64.986771 
L 1046.088595 72.818039 
L 1047.326852 76.830517 
L 1048.56511 81.649455 
L 1049.803367 88.173754 
L 1052.279882 103.255101 
L 1053.518139 107.892397 
L 1054.756396 109.02337 
L 1055.994653 107.27255 
L 1058.471168 101.247661 
L 1059.709425 98.692533 
L 1064.662454 89.765439 
L 1065.900711 89.485405 
L 1067.138969 92.176727 
L 1068.377226 98.14208 
L 1069.615483 105.537102 
L 1070.853741 111.463394 
L 1072.091998 114.411043 
L 1073.330255 115.07997 
L 1074.568512 114.709632 
L 1075.80677 113.197619 
L 1077.045027 109.625221 
L 1079.521541 98.683677 
L 1080.759799 95.274104 
L 1081.998056 95.300114 
L 1083.236313 98.637792 
L 1086.951085 114.710704 
L 1088.189342 117.462419 
L 1089.4276 118.179082 
L 1090.665857 117.519678 
L 1091.904114 116.458238 
L 1093.142371 115.934214 
L 1094.380629 116.907567 
L 1095.618886 120.047486 
L 1096.857143 125.093087 
L 1099.333658 136.735639 
L 1100.571915 141.472335 
L 1101.810172 144.785602 
L 1103.04843 146.527933 
L 1104.286687 146.605087 
L 1105.524944 144.917276 
L 1108.001459 138.553411 
L 1109.239716 136.993588 
L 1110.477973 138.487064 
L 1111.71623 143.028097 
L 1112.954488 148.935201 
L 1114.192745 153.877061 
L 1115.431002 156.786926 
L 1116.669259 158.135978 
L 1117.907517 158.267107 
L 1119.145774 156.7762 
L 1120.384031 153.760279 
L 1121.622289 150.326019 
L 1122.860546 147.455886 
L 1124.098803 145.264939 
L 1125.33706 143.501516 
L 1126.575318 142.032217 
L 1127.813575 140.891596 
L 1129.051832 140.485722 
L 1130.290089 141.581606 
L 1131.528347 144.56424 
L 1134.004861 153.08975 
L 1135.243118 155.637987 
L 1136.481376 155.382271 
L 1137.719633 152.208113 
L 1140.196148 141.254215 
L 1141.434405 137.199478 
L 1142.672662 135.284045 
L 1143.910919 134.6637 
L 1145.149177 134.94463 
L 1146.387434 136.88861 
L 1147.625691 141.380759 
L 1148.863948 148.385414 
L 1150.102206 156.597591 
L 1151.340463 163.759247 
L 1152.57872 167.612622 
L 1153.816977 167.076919 
L 1155.055235 162.932674 
L 1157.531749 151.405276 
L 1158.770007 146.919166 
L 1160.008264 144.459673 
L 1161.246521 144.628652 
L 1162.484778 147.514787 
L 1163.723036 152.285381 
L 1166.19955 163.118466 
L 1167.437807 167.47564 
L 1168.676065 169.736239 
L 1169.914322 169.564695 
L 1171.152579 167.768661 
L 1172.390837 165.559993 
L 1173.629094 163.906245 
L 1174.867351 163.489825 
L 1176.105608 164.612012 
L 1177.343866 166.870756 
L 1181.058637 175.332688 
L 1182.296895 176.801338 
L 1184.773409 177.215536 
L 1187.249924 179.141988 
L 1188.488181 179.265797 
L 1189.726438 178.80163 
L 1190.964696 178.683674 
L 1192.202953 179.53932 
L 1193.44121 181.608331 
L 1194.679467 184.804362 
L 1195.917725 188.573161 
L 1197.155982 191.971266 
L 1198.394239 194.037696 
L 1199.632496 194.352042 
L 1202.109011 192.521735 
L 1203.347268 193.142471 
L 1205.823783 197.322765 
L 1207.06204 197.052799 
L 1208.300297 194.154082 
L 1209.538555 189.999588 
L 1210.776812 186.471417 
L 1212.015069 184.939339 
L 1213.253326 185.879867 
L 1214.491584 188.657647 
L 1215.729841 191.793744 
L 1216.968098 193.907542 
L 1218.206355 194.530263 
L 1219.444613 194.17177 
L 1221.921127 192.889803 
L 1223.159384 191.910973 
L 1224.397642 190.689954 
L 1225.635899 189.207469 
L 1228.112414 184.914621 
L 1229.350671 183.87961 
L 1230.588928 185.525238 
L 1231.827185 190.162435 
L 1234.3037 202.469993 
L 1235.541957 205.369815 
L 1236.780214 204.624766 
L 1239.256729 198.524672 
L 1240.494986 196.74509 
L 1241.733243 197.061135 
L 1242.971501 199.104337 
L 1244.209758 201.396276 
L 1245.448015 202.03247 
L 1246.686273 199.845298 
L 1249.162787 190.609302 
L 1250.401044 187.077201 
L 1251.639302 185.299174 
L 1252.877559 185.08219 
L 1254.115816 186.042011 
L 1255.354073 187.380397 
L 1256.592331 187.920333 
L 1257.830588 187.178191 
L 1259.068845 185.85 
L 1260.307103 184.910087 
L 1261.54536 184.91391 
L 1262.783617 185.917845 
L 1266.498389 190.755127 
L 1267.736646 191.826284 
L 1268.974903 192.274319 
L 1270.213161 191.73197 
L 1271.451418 190.41865 
L 1272.689675 189.387529 
L 1273.927932 189.588909 
L 1275.16619 191.126428 
L 1277.642704 195.522149 
L 1278.880962 196.867473 
L 1280.119219 196.864224 
L 1281.357476 195.231088 
L 1283.833991 190.008564 
L 1285.072248 188.618215 
L 1286.310505 188.458775 
L 1287.548762 189.210874 
L 1288.78702 190.778078 
L 1290.025277 193.348902 
L 1291.263534 196.607921 
L 1292.501791 199.417436 
L 1293.740049 200.861472 
L 1294.978306 200.832556 
L 1296.216563 199.405909 
L 1297.454821 196.599748 
L 1298.693078 192.662645 
L 1299.931335 188.156654 
L 1301.169592 184.139168 
L 1302.40785 182.003468 
L 1303.646107 182.225374 
L 1304.884364 183.943812 
L 1306.122621 186.389315 
L 1308.599136 192.399846 
L 1309.837393 194.296703 
L 1311.07565 194.511634 
L 1312.313908 193.675117 
L 1314.790422 191.716418 
L 1316.02868 191.031903 
L 1317.266937 191.35309 
L 1318.505194 192.823566 
L 1319.743451 194.46967 
L 1320.981709 195.168685 
L 1322.219966 194.351468 
L 1323.458223 192.141509 
L 1324.69648 189.438528 
L 1327.172995 184.562579 
L 1329.649509 178.430089 
L 1330.887767 177.288383 
L 1332.126024 179.195113 
L 1333.364281 183.13348 
L 1334.602539 186.243347 
L 1335.840796 186.030152 
L 1337.079053 182.327282 
L 1339.555568 171.416111 
L 1340.793825 168.133469 
L 1342.032082 168.506199 
L 1343.270339 172.63937 
L 1344.508597 178.723165 
L 1345.746854 184.141891 
L 1346.985111 187.197257 
L 1348.223368 188.141851 
L 1350.699883 188.604917 
L 1351.93814 188.503582 
L 1353.176398 187.512015 
L 1354.414655 185.617685 
L 1355.652912 183.061335 
L 1358.129427 177.100073 
L 1359.367684 175.605777 
L 1360.605941 176.375294 
L 1361.844198 179.197602 
L 1363.082456 182.629753 
L 1364.320713 184.65074 
L 1365.55897 184.196592 
L 1368.035485 179.965699 
L 1369.273742 179.233933 
L 1370.511999 179.641303 
L 1371.750257 180.186363 
L 1372.988514 179.737518 
L 1374.226771 177.272628 
L 1376.703286 168.649335 
L 1377.941543 166.409429 
L 1379.1798 167.391919 
L 1380.418057 171.691731 
L 1381.656315 177.740503 
L 1382.894572 182.813118 
L 1384.132829 185.228954 
L 1385.371087 185.416925 
L 1386.609344 184.608177 
L 1389.085858 182.479514 
L 1390.324116 181.652287 
L 1391.562373 181.110551 
L 1392.80063 180.897001 
L 1394.038887 181.076212 
L 1395.277145 181.502542 
L 1396.515402 181.622635 
L 1397.753659 180.747615 
L 1400.230174 176.979885 
L 1401.468431 176.649228 
L 1402.706688 178.519636 
L 1403.944946 181.518115 
L 1405.183203 183.259125 
L 1406.42146 182.096878 
L 1407.659717 178.466024 
L 1408.897975 174.143811 
L 1410.136232 171.078323 
L 1411.374489 170.659377 
L 1412.612746 173.199746 
L 1413.851004 177.953167 
L 1415.089261 183.375115 
L 1416.327518 187.421521 
L 1417.565775 188.362444 
L 1418.804033 185.793493 
L 1421.280547 176.890481 
L 1422.518805 174.615686 
L 1424.995319 173.121705 
L 1426.233576 171.442887 
L 1427.471834 169.25972 
L 1428.710091 167.904217 
L 1429.948348 168.403615 
L 1431.186605 170.646981 
L 1432.424863 173.187269 
L 1433.66312 173.80092 
L 1434.901377 171.332931 
L 1437.377892 162.902055 
L 1438.616149 159.835383 
L 1439.854406 157.50401 
L 1441.092664 155.566555 
L 1442.330921 154.063452 
L 1443.569178 153.665144 
L 1444.807435 155.252319 
L 1446.045693 158.741859 
L 1448.522207 167.048106 
L 1449.760464 170.278222 
L 1450.998722 172.026999 
L 1452.236979 171.882948 
L 1453.475236 170.192203 
L 1454.713494 167.648796 
L 1457.190008 162.185896 
L 1458.428265 160.169077 
L 1459.666523 159.270577 
L 1460.90478 159.842498 
L 1463.381294 162.844192 
L 1464.619552 163.165642 
L 1465.857809 162.378452 
L 1467.096066 161.363766 
L 1468.334323 161.027796 
L 1469.572581 161.114996 
L 1470.810838 160.59277 
L 1472.049095 159.173981 
L 1474.52561 155.75595 
L 1477.002124 151.551211 
L 1478.240382 149.948716 
L 1479.478639 149.64319 
L 1480.716896 150.475451 
L 1481.955153 151.117453 
L 1483.193411 150.319461 
L 1484.431668 148.476739 
L 1485.669925 147.061657 
L 1486.908182 147.271668 
L 1488.14644 149.798357 
L 1489.384697 154.730191 
L 1490.622954 161.012831 
L 1491.861212 166.689285 
L 1493.099469 170.296658 
L 1494.337726 171.63498 
L 1495.575983 171.157997 
L 1496.814241 169.317895 
L 1499.290755 164.007603 
L 1500.529012 162.007347 
L 1503.005527 159.15356 
L 1505.482041 156.19897 
L 1506.720299 155.484867 
L 1507.958556 156.103961 
L 1510.435071 158.922987 
L 1511.673328 159.458694 
L 1512.911585 158.868013 
L 1514.149842 157.560589 
L 1515.3881 155.833598 
L 1516.626357 153.303415 
L 1519.102871 146.634907 
L 1520.341129 144.258099 
L 1521.579386 143.354562 
L 1522.817643 144.138466 
L 1524.0559 146.421552 
L 1525.294158 150.282845 
L 1526.532415 156.591863 
L 1529.00893 174.233133 
L 1530.247187 179.994416 
L 1531.485444 180.847942 
L 1532.723701 176.684962 
L 1533.961959 168.945201 
L 1535.200216 160.093844 
L 1536.438473 152.636962 
L 1537.67673 148.395031 
L 1538.914988 147.720775 
L 1540.153245 149.452605 
L 1542.62976 154.433403 
L 1543.868017 155.741177 
L 1545.106274 155.4796 
L 1546.344531 153.818176 
L 1548.821046 149.302253 
L 1555.012332 138.95533 
L 1556.250589 134.523268 
L 1557.488847 127.476425 
L 1561.203619 100.664134 
L 1562.441876 95.022291 
L 1563.680133 94.337372 
L 1564.91839 98.804532 
L 1567.394905 113.645532 
L 1568.633162 119.591767 
L 1573.586191 139.334569 
L 1574.824448 141.682683 
L 1576.062706 141.12751 
L 1577.300963 138.472212 
L 1578.53922 135.23052 
L 1579.777478 132.646786 
L 1581.015735 131.896696 
L 1582.253992 134.103104 
L 1583.492249 139.414783 
L 1585.968764 153.907966 
L 1587.207021 158.894888 
L 1588.445278 160.522612 
L 1589.683536 159.376873 
L 1590.921793 156.695242 
L 1593.398307 150.399672 
L 1594.636565 147.715954 
L 1595.874822 144.667327 
L 1598.351337 137.545364 
L 1599.589594 135.872374 
L 1600.827851 136.738977 
L 1603.304366 142.344869 
L 1604.542623 144.28189 
L 1605.78088 144.945771 
L 1607.019137 144.627032 
L 1608.257395 143.968537 
L 1609.495652 143.713751 
L 1610.733909 144.083792 
L 1611.972166 144.282212 
L 1613.210424 143.100141 
L 1614.448681 139.909006 
L 1615.686938 561.202423 
L 1616.925196 128.886634 
L 1618.163453 123.370765 
L 1619.40171 119.674191 
L 1620.639967 118.510463 
L 1621.878225 120.402898 
L 1623.116482 125.642213 
L 1625.592996 140.879397 
L 1626.831254 147.104741 
L 1628.069511 151.221136 
L 1629.307768 153.043875 
L 1630.546026 152.829468 
L 1633.02254 150.1539 
L 1634.260797 149.777268 
L 1635.499055 149.933389 
L 1636.737312 149.294167 
L 1637.975569 146.532663 
L 1639.213826 141.099694 
L 1640.452084 133.658766 
L 1641.690341 125.419391 
L 1641.690341 125.419391 
" style="fill:none;stroke:#008000;stroke-linecap:square;stroke-width:1.5;"/>
   </g>
   <g id="patch_3">
    <path d="M 43.78125 586.86358 
L 43.78125 22.318125 
" style="fill:none;stroke:#000000;stroke-linecap:square;stroke-linejoin:miter;stroke-width:0.8;"/>
   </g>
   <g id="patch_4">
    <path d="M 1717.78125 586.86358 
L 1717.78125 22.318125 
" style="fill:none;stroke:#000000;stroke-linecap:square;stroke-linejoin:miter;stroke-width:0.8;"/>
   </g>
   <g id="patch_5">
    <path d="M 43.78125 586.86358 
L 1717.78125 586.86358 
" style="fill:none;stroke:#000000;stroke-linecap:square;stroke-linejoin:miter;stroke-width:0.8;"/>
   </g>
   <g id="patch_6">
    <path d="M 43.78125 22.318125 
L 1717.78125 22.318125 
" style="fill:none;stroke:#000000;stroke-linecap:square;stroke-linejoin:miter;stroke-width:0.8;"/>
   </g>
   <g id="text_16">
    <!-- before binarisation -->
    <g transform="translate(824.1825 16.318125)scale(0.12 -0.12)">
     <defs>
      <path d="M 3116 1747 
Q 3116 2381 2855 2742 
Q 2594 3103 2138 3103 
Q 1681 3103 1420 2742 
Q 1159 2381 1159 1747 
Q 1159 1113 1420 752 
Q 1681 391 2138 391 
Q 2594 391 2855 752 
Q 3116 1113 3116 1747 
z
M 1159 2969 
Q 1341 3281 1617 3432 
Q 1894 3584 2278 3584 
Q 2916 3584 3314 3078 
Q 3713 2572 3713 1747 
Q 3713 922 3314 415 
Q 2916 -91 2278 -91 
Q 1894 -91 1617 61 
Q 1341 213 1159 525 
L 1159 0 
L 581 0 
L 581 4863 
L 1159 4863 
L 1159 2969 
z
" id="DejaVuSans-62" transform="scale(0.015625)"/>
      <path d="M 1959 3097 
Q 1497 3097 1228 2736 
Q 959 2375 959 1747 
Q 959 1119 1226 758 
Q 1494 397 1959 397 
Q 2419 397 2687 759 
Q 2956 1122 2956 1747 
Q 2956 2369 2687 2733 
Q 2419 3097 1959 3097 
z
M 1959 3584 
Q 2709 3584 3137 3096 
Q 3566 2609 3566 1747 
Q 3566 888 3137 398 
Q 2709 -91 1959 -91 
Q 1206 -91 779 398 
Q 353 888 353 1747 
Q 353 2609 779 3096 
Q 1206 3584 1959 3584 
z
" id="DejaVuSans-6f" transform="scale(0.015625)"/>
      <path id="DejaVuSans-20" transform="scale(0.015625)"/>
      <path d="M 603 3500 
L 1178 3500 
L 1178 0 
L 603 0 
L 603 3500 
z
M 603 4863 
L 1178 4863 
L 1178 4134 
L 603 4134 
L 603 4863 
z
" id="DejaVuSans-69" transform="scale(0.015625)"/>
      <path d="M 3513 2113 
L 3513 0 
L 2938 0 
L 2938 2094 
Q 2938 2591 2744 2837 
Q 2550 3084 2163 3084 
Q 1697 3084 1428 2787 
Q 1159 2491 1159 1978 
L 1159 0 
L 581 0 
L 581 3500 
L 1159 3500 
L 1159 2956 
Q 1366 3272 1645 3428 
Q 1925 3584 2291 3584 
Q 2894 3584 3203 3211 
Q 3513 2838 3513 2113 
z
" id="DejaVuSans-6e" transform="scale(0.015625)"/>
      <path d="M 2834 3397 
L 2834 2853 
Q 2591 2978 2328 3040 
Q 2066 3103 1784 3103 
Q 1356 3103 1142 2972 
Q 928 2841 928 2578 
Q 928 2378 1081 2264 
Q 1234 2150 1697 2047 
L 1894 2003 
Q 2506 1872 2764 1633 
Q 3022 1394 3022 966 
Q 3022 478 2636 193 
Q 2250 -91 1575 -91 
Q 1294 -91 989 -36 
Q 684 19 347 128 
L 347 722 
Q 666 556 975 473 
Q 1284 391 1588 391 
Q 1994 391 2212 530 
Q 2431 669 2431 922 
Q 2431 1156 2273 1281 
Q 2116 1406 1581 1522 
L 1381 1569 
Q 847 1681 609 1914 
Q 372 2147 372 2553 
Q 372 3047 722 3315 
Q 1072 3584 1716 3584 
Q 2034 3584 2315 3537 
Q 2597 3491 2834 3397 
z
" id="DejaVuSans-73" transform="scale(0.015625)"/>
      <path d="M 1172 4494 
L 1172 3500 
L 2356 3500 
L 2356 3053 
L 1172 3053 
L 1172 1153 
Q 1172 725 1289 603 
Q 1406 481 1766 481 
L 2356 481 
L 2356 0 
L 1766 0 
Q 1100 0 847 248 
Q 594 497 594 1153 
L 594 3053 
L 172 3053 
L 172 3500 
L 594 3500 
L 594 4494 
L 1172 4494 
z
" id="DejaVuSans-74" transform="scale(0.015625)"/>
     </defs>
     <use xlink:href="#DejaVuSans-62"/>
     <use x="63.476562" xlink:href="#DejaVuSans-65"/>
     <use x="125" xlink:href="#DejaVuSans-66"/>
     <use x="160.205078" xlink:href="#DejaVuSans-6f"/>
     <use x="221.386719" xlink:href="#DejaVuSans-72"/>
     <use x="260.25" xlink:href="#DejaVuSans-65"/>
     <use x="321.773438" xlink:href="#DejaVuSans-20"/>
     <use x="353.560547" xlink:href="#DejaVuSans-62"/>
     <use x="417.037109" xlink:href="#DejaVuSans-69"/>
     <use x="444.820312" xlink:href="#DejaVuSans-6e"/>
     <use x="508.199219" xlink:href="#DejaVuSans-61"/>
     <use x="569.478516" xlink:href="#DejaVuSans-72"/>
     <use x="610.591797" xlink:href="#DejaVuSans-69"/>
     <use x="638.375" xlink:href="#DejaVuSans-73"/>
     <use x="690.474609" xlink:href="#DejaVuSans-61"/>
     <use x="751.753906" xlink:href="#DejaVuSans-74"/>
     <use x="790.962891" xlink:href="#DejaVuSans-69"/>
     <use x="818.746094" xlink:href="#DejaVuSans-6f"/>
     <use x="879.927734" xlink:href="#DejaVuSans-6e"/>
    </g>
   </g>
  </g>
  <g id="axes_2">
   <g id="patch_7">
    <path d="M 43.78125 1264.318125 
L 1717.78125 1264.318125 
L 1717.78125 699.77267 
L 43.78125 699.77267 
z
" style="fill:#ffffff;"/>
   </g>
   <g id="matplotlib.axis_3">
    <g id="xtick_8">
     <g id="line2d_15">
      <g>
       <use style="stroke:#000000;stroke-width:0.8;" x="119.872159" xlink:href="#me2ddfc9ce4" y="1264.318125"/>
      </g>
     </g>
     <g id="text_17">
      <!-- 0 -->
      <g transform="translate(116.690909 1278.916563)scale(0.1 -0.1)">
       <use xlink:href="#DejaVuSans-30"/>
      </g>
     </g>
    </g>
    <g id="xtick_9">
     <g id="line2d_16">
      <g>
       <use style="stroke:#000000;stroke-width:0.8;" x="367.523613" xlink:href="#me2ddfc9ce4" y="1264.318125"/>
      </g>
     </g>
     <g id="text_18">
      <!-- 200 -->
      <g transform="translate(357.979863 1278.916563)scale(0.1 -0.1)">
       <use xlink:href="#DejaVuSans-32"/>
       <use x="63.623047" xlink:href="#DejaVuSans-30"/>
       <use x="127.246094" xlink:href="#DejaVuSans-30"/>
      </g>
     </g>
    </g>
    <g id="xtick_10">
     <g id="line2d_17">
      <g>
       <use style="stroke:#000000;stroke-width:0.8;" x="615.175066" xlink:href="#me2ddfc9ce4" y="1264.318125"/>
      </g>
     </g>
     <g id="text_19">
      <!-- 400 -->
      <g transform="translate(605.631316 1278.916563)scale(0.1 -0.1)">
       <use xlink:href="#DejaVuSans-34"/>
       <use x="63.623047" xlink:href="#DejaVuSans-30"/>
       <use x="127.246094" xlink:href="#DejaVuSans-30"/>
      </g>
     </g>
    </g>
    <g id="xtick_11">
     <g id="line2d_18">
      <g>
       <use style="stroke:#000000;stroke-width:0.8;" x="862.82652" xlink:href="#me2ddfc9ce4" y="1264.318125"/>
      </g>
     </g>
     <g id="text_20">
      <!-- 600 -->
      <g transform="translate(853.28277 1278.916563)scale(0.1 -0.1)">
       <use xlink:href="#DejaVuSans-36"/>
       <use x="63.623047" xlink:href="#DejaVuSans-30"/>
       <use x="127.246094" xlink:href="#DejaVuSans-30"/>
      </g>
     </g>
    </g>
    <g id="xtick_12">
     <g id="line2d_19">
      <g>
       <use style="stroke:#000000;stroke-width:0.8;" x="1110.477973" xlink:href="#me2ddfc9ce4" y="1264.318125"/>
      </g>
     </g>
     <g id="text_21">
      <!-- 800 -->
      <g transform="translate(1100.934223 1278.916563)scale(0.1 -0.1)">
       <use xlink:href="#DejaVuSans-38"/>
       <use x="63.623047" xlink:href="#DejaVuSans-30"/>
       <use x="127.246094" xlink:href="#DejaVuSans-30"/>
      </g>
     </g>
    </g>
    <g id="xtick_13">
     <g id="line2d_20">
      <g>
       <use style="stroke:#000000;stroke-width:0.8;" x="1358.129427" xlink:href="#me2ddfc9ce4" y="1264.318125"/>
      </g>
     </g>
     <g id="text_22">
      <!-- 1000 -->
      <g transform="translate(1345.404427 1278.916563)scale(0.1 -0.1)">
       <use xlink:href="#DejaVuSans-31"/>
       <use x="63.623047" xlink:href="#DejaVuSans-30"/>
       <use x="127.246094" xlink:href="#DejaVuSans-30"/>
       <use x="190.869141" xlink:href="#DejaVuSans-30"/>
      </g>
     </g>
    </g>
    <g id="xtick_14">
     <g id="line2d_21">
      <g>
       <use style="stroke:#000000;stroke-width:0.8;" x="1605.78088" xlink:href="#me2ddfc9ce4" y="1264.318125"/>
      </g>
     </g>
     <g id="text_23">
      <!-- 1200 -->
      <g transform="translate(1593.05588 1278.916563)scale(0.1 -0.1)">
       <use xlink:href="#DejaVuSans-31"/>
       <use x="63.623047" xlink:href="#DejaVuSans-32"/>
       <use x="127.246094" xlink:href="#DejaVuSans-30"/>
       <use x="190.869141" xlink:href="#DejaVuSans-30"/>
      </g>
     </g>
    </g>
    <g id="text_24">
     <!-- frame -->
     <g transform="translate(865.954687 1292.594688)scale(0.1 -0.1)">
      <use xlink:href="#DejaVuSans-66"/>
      <use x="35.205078" xlink:href="#DejaVuSans-72"/>
      <use x="76.318359" xlink:href="#DejaVuSans-61"/>
      <use x="137.597656" xlink:href="#DejaVuSans-6d"/>
      <use x="235.009766" xlink:href="#DejaVuSans-65"/>
     </g>
    </g>
   </g>
   <g id="matplotlib.axis_4">
    <g id="ytick_7">
     <g id="line2d_22">
      <g>
       <use style="stroke:#000000;stroke-width:0.8;" x="43.78125" xlink:href="#m216b5f66ba" y="1238.656968"/>
      </g>
     </g>
     <g id="text_25">
      <!-- 0.0 -->
      <g transform="translate(20.878125 1242.456187)scale(0.1 -0.1)">
       <use xlink:href="#DejaVuSans-30"/>
       <use x="63.623047" xlink:href="#DejaVuSans-2e"/>
       <use x="95.410156" xlink:href="#DejaVuSans-30"/>
      </g>
     </g>
    </g>
    <g id="ytick_8">
     <g id="line2d_23">
      <g>
       <use style="stroke:#000000;stroke-width:0.8;" x="43.78125" xlink:href="#m216b5f66ba" y="1136.01234"/>
      </g>
     </g>
     <g id="text_26">
      <!-- 0.2 -->
      <g transform="translate(20.878125 1139.811559)scale(0.1 -0.1)">
       <use xlink:href="#DejaVuSans-30"/>
       <use x="63.623047" xlink:href="#DejaVuSans-2e"/>
       <use x="95.410156" xlink:href="#DejaVuSans-32"/>
      </g>
     </g>
    </g>
    <g id="ytick_9">
     <g id="line2d_24">
      <g>
       <use style="stroke:#000000;stroke-width:0.8;" x="43.78125" xlink:href="#m216b5f66ba" y="1033.367712"/>
      </g>
     </g>
     <g id="text_27">
      <!-- 0.4 -->
      <g transform="translate(20.878125 1037.166931)scale(0.1 -0.1)">
       <use xlink:href="#DejaVuSans-30"/>
       <use x="63.623047" xlink:href="#DejaVuSans-2e"/>
       <use x="95.410156" xlink:href="#DejaVuSans-34"/>
      </g>
     </g>
    </g>
    <g id="ytick_10">
     <g id="line2d_25">
      <g>
       <use style="stroke:#000000;stroke-width:0.8;" x="43.78125" xlink:href="#m216b5f66ba" y="930.723084"/>
      </g>
     </g>
     <g id="text_28">
      <!-- 0.6 -->
      <g transform="translate(20.878125 934.522302)scale(0.1 -0.1)">
       <use xlink:href="#DejaVuSans-30"/>
       <use x="63.623047" xlink:href="#DejaVuSans-2e"/>
       <use x="95.410156" xlink:href="#DejaVuSans-36"/>
      </g>
     </g>
    </g>
    <g id="ytick_11">
     <g id="line2d_26">
      <g>
       <use style="stroke:#000000;stroke-width:0.8;" x="43.78125" xlink:href="#m216b5f66ba" y="828.078456"/>
      </g>
     </g>
     <g id="text_29">
      <!-- 0.8 -->
      <g transform="translate(20.878125 831.877674)scale(0.1 -0.1)">
       <use xlink:href="#DejaVuSans-30"/>
       <use x="63.623047" xlink:href="#DejaVuSans-2e"/>
       <use x="95.410156" xlink:href="#DejaVuSans-38"/>
      </g>
     </g>
    </g>
    <g id="ytick_12">
     <g id="line2d_27">
      <g>
       <use style="stroke:#000000;stroke-width:0.8;" x="43.78125" xlink:href="#m216b5f66ba" y="725.433827"/>
      </g>
     </g>
     <g id="text_30">
      <!-- 1.0 -->
      <g transform="translate(20.878125 729.233046)scale(0.1 -0.1)">
       <use xlink:href="#DejaVuSans-31"/>
       <use x="63.623047" xlink:href="#DejaVuSans-2e"/>
       <use x="95.410156" xlink:href="#DejaVuSans-30"/>
      </g>
     </g>
    </g>
    <g id="text_31">
     <!-- GCaMP -->
     <g transform="translate(14.798437 999.803991)rotate(-90)scale(0.1 -0.1)">
      <use xlink:href="#DejaVuSans-47"/>
      <use x="77.490234" xlink:href="#DejaVuSans-43"/>
      <use x="147.314453" xlink:href="#DejaVuSans-61"/>
      <use x="208.59375" xlink:href="#DejaVuSans-4d"/>
      <use x="294.873047" xlink:href="#DejaVuSans-50"/>
     </g>
    </g>
   </g>
   <g id="line2d_28">
    <path clip-path="url(#pbf9ebef26e)" d="M 119.872159 725.433827 
L 123.586931 725.433827 
L 124.825188 1238.656968 
L 658.51407 1238.656968 
L 659.752328 725.433827 
L 724.141706 725.433827 
L 725.379963 1238.656968 
L 913.595068 1238.656968 
L 914.833325 725.433827 
L 924.739383 725.433827 
L 925.97764 1238.656968 
L 932.168927 1238.656968 
L 933.407184 725.433827 
L 950.742786 725.433827 
L 951.981043 1238.656968 
L 959.410586 1238.656968 
L 960.648844 725.433827 
L 965.601873 725.433827 
L 966.84013 1238.656968 
L 968.078387 1238.656968 
L 969.316645 725.433827 
L 970.554902 725.433827 
L 971.793159 1238.656968 
L 981.699217 1238.656968 
L 982.937475 725.433827 
L 985.413989 725.433827 
L 986.652246 1238.656968 
L 987.890504 725.433827 
L 1094.380629 725.433827 
L 1095.618886 1238.656968 
L 1557.488847 1238.656968 
L 1558.727104 725.433827 
L 1568.633162 725.433827 
L 1569.871419 1238.656968 
L 1618.163453 1238.656968 
L 1619.40171 725.433827 
L 1620.639967 725.433827 
L 1621.878225 1238.656968 
L 1641.690341 1238.656968 
L 1641.690341 1238.656968 
" style="fill:none;stroke:#008000;stroke-linecap:square;stroke-width:1.5;"/>
   </g>
   <g id="patch_8">
    <path d="M 43.78125 1264.318125 
L 43.78125 699.77267 
" style="fill:none;stroke:#000000;stroke-linecap:square;stroke-linejoin:miter;stroke-width:0.8;"/>
   </g>
   <g id="patch_9">
    <path d="M 1717.78125 1264.318125 
L 1717.78125 699.77267 
" style="fill:none;stroke:#000000;stroke-linecap:square;stroke-linejoin:miter;stroke-width:0.8;"/>
   </g>
   <g id="patch_10">
    <path d="M 43.78125 1264.318125 
L 1717.78125 1264.318125 
" style="fill:none;stroke:#000000;stroke-linecap:square;stroke-linejoin:miter;stroke-width:0.8;"/>
   </g>
   <g id="patch_11">
    <path d="M 43.78125 699.77267 
L 1717.78125 699.77267 
" style="fill:none;stroke:#000000;stroke-linecap:square;stroke-linejoin:miter;stroke-width:0.8;"/>
   </g>
   <g id="text_32">
    <!-- before binarisation -->
    <g transform="translate(824.1825 693.77267)scale(0.12 -0.12)">
     <use xlink:href="#DejaVuSans-62"/>
     <use x="63.476562" xlink:href="#DejaVuSans-65"/>
     <use x="125" xlink:href="#DejaVuSans-66"/>
     <use x="160.205078" xlink:href="#DejaVuSans-6f"/>
     <use x="221.386719" xlink:href="#DejaVuSans-72"/>
     <use x="260.25" xlink:href="#DejaVuSans-65"/>
     <use x="321.773438" xlink:href="#DejaVuSans-20"/>
     <use x="353.560547" xlink:href="#DejaVuSans-62"/>
     <use x="417.037109" xlink:href="#DejaVuSans-69"/>
     <use x="444.820312" xlink:href="#DejaVuSans-6e"/>
     <use x="508.199219" xlink:href="#DejaVuSans-61"/>
     <use x="569.478516" xlink:href="#DejaVuSans-72"/>
     <use x="610.591797" xlink:href="#DejaVuSans-69"/>
     <use x="638.375" xlink:href="#DejaVuSans-73"/>
     <use x="690.474609" xlink:href="#DejaVuSans-61"/>
     <use x="751.753906" xlink:href="#DejaVuSans-74"/>
     <use x="790.962891" xlink:href="#DejaVuSans-69"/>
     <use x="818.746094" xlink:href="#DejaVuSans-6f"/>
     <use x="879.927734" xlink:href="#DejaVuSans-6e"/>
    </g>
   </g>
  </g>
 </g>
 <defs>
  <clipPath id="pdb079ac0e6">
   <rect height="564.545455" width="1674" x="43.78125" y="22.318125"/>
  </clipPath>
  <clipPath id="pbf9ebef26e">
   <rect height="564.545455" width="1674" x="43.78125" y="699.77267"/>
  </clipPath>
 </defs>
</svg>
