<?xml version="1.0" encoding="utf-8" standalone="no"?>
<!DOCTYPE svg PUBLIC "-//W3C//DTD SVG 1.1//EN"
  "http://www.w3.org/Graphics/SVG/1.1/DTD/svg11.dtd">
<svg height="1301.874375pt" version="1.1" viewBox="0 0 1724.98125 1301.874375" width="1724.98125pt" xmlns="http://www.w3.org/2000/svg" xmlns:xlink="http://www.w3.org/1999/xlink">
 <metadata>
  <rdf:RDF xmlns:cc="http://creativecommons.org/ns#" xmlns:dc="http://purl.org/dc/elements/1.1/" xmlns:rdf="http://www.w3.org/1999/02/22-rdf-syntax-ns#">
   <cc:Work>
    <dc:type rdf:resource="http://purl.org/dc/dcmitype/StillImage"/>
    <dc:date>2022-07-24T15:54:34.080479</dc:date>
    <dc:format>image/svg+xml</dc:format>
    <dc:creator>
     <cc:Agent>
      <dc:title>Matplotlib v3.4.2, https://matplotlib.org/</dc:title>
     </cc:Agent>
    </dc:creator>
   </cc:Work>
  </rdf:RDF>
 </metadata>
 <defs>
  <style type="text/css">*{stroke-linecap:butt;stroke-linejoin:round;}</style>
 </defs>
 <g id="figure_1">
  <g id="patch_1">
   <path d="M 0 1301.874375 
L 1724.98125 1301.874375 
L 1724.98125 0 
L 0 0 
z
" style="fill:#ffffff;"/>
  </g>
  <g id="axes_1">
   <g id="patch_2">
    <path d="M 43.78125 586.86358 
L 1717.78125 586.86358 
L 1717.78125 22.318125 
L 43.78125 22.318125 
z
" style="fill:#ffffff;"/>
   </g>
   <g id="matplotlib.axis_1">
    <g id="xtick_1">
     <g id="line2d_1">
      <defs>
       <path d="M 0 0 
L 0 3.5 
" id="md7ed1ea0a2" style="stroke:#000000;stroke-width:0.8;"/>
      </defs>
      <g>
       <use style="stroke:#000000;stroke-width:0.8;" x="119.872159" xlink:href="#md7ed1ea0a2" y="586.86358"/>
      </g>
     </g>
     <g id="text_1">
      <!-- 0 -->
      <g transform="translate(116.690909 601.462017)scale(0.1 -0.1)">
       <defs>
        <path d="M 2034 4250 
Q 1547 4250 1301 3770 
Q 1056 3291 1056 2328 
Q 1056 1369 1301 889 
Q 1547 409 2034 409 
Q 2525 409 2770 889 
Q 3016 1369 3016 2328 
Q 3016 3291 2770 3770 
Q 2525 4250 2034 4250 
z
M 2034 4750 
Q 2819 4750 3233 4129 
Q 3647 3509 3647 2328 
Q 3647 1150 3233 529 
Q 2819 -91 2034 -91 
Q 1250 -91 836 529 
Q 422 1150 422 2328 
Q 422 3509 836 4129 
Q 1250 4750 2034 4750 
z
" id="DejaVuSans-30" transform="scale(0.015625)"/>
       </defs>
       <use xlink:href="#DejaVuSans-30"/>
      </g>
     </g>
    </g>
    <g id="xtick_2">
     <g id="line2d_2">
      <g>
       <use style="stroke:#000000;stroke-width:0.8;" x="367.523613" xlink:href="#md7ed1ea0a2" y="586.86358"/>
      </g>
     </g>
     <g id="text_2">
      <!-- 200 -->
      <g transform="translate(357.979863 601.462017)scale(0.1 -0.1)">
       <defs>
        <path d="M 1228 531 
L 3431 531 
L 3431 0 
L 469 0 
L 469 531 
Q 828 903 1448 1529 
Q 2069 2156 2228 2338 
Q 2531 2678 2651 2914 
Q 2772 3150 2772 3378 
Q 2772 3750 2511 3984 
Q 2250 4219 1831 4219 
Q 1534 4219 1204 4116 
Q 875 4013 500 3803 
L 500 4441 
Q 881 4594 1212 4672 
Q 1544 4750 1819 4750 
Q 2544 4750 2975 4387 
Q 3406 4025 3406 3419 
Q 3406 3131 3298 2873 
Q 3191 2616 2906 2266 
Q 2828 2175 2409 1742 
Q 1991 1309 1228 531 
z
" id="DejaVuSans-32" transform="scale(0.015625)"/>
       </defs>
       <use xlink:href="#DejaVuSans-32"/>
       <use x="63.623047" xlink:href="#DejaVuSans-30"/>
       <use x="127.246094" xlink:href="#DejaVuSans-30"/>
      </g>
     </g>
    </g>
    <g id="xtick_3">
     <g id="line2d_3">
      <g>
       <use style="stroke:#000000;stroke-width:0.8;" x="615.175066" xlink:href="#md7ed1ea0a2" y="586.86358"/>
      </g>
     </g>
     <g id="text_3">
      <!-- 400 -->
      <g transform="translate(605.631316 601.462017)scale(0.1 -0.1)">
       <defs>
        <path d="M 2419 4116 
L 825 1625 
L 2419 1625 
L 2419 4116 
z
M 2253 4666 
L 3047 4666 
L 3047 1625 
L 3713 1625 
L 3713 1100 
L 3047 1100 
L 3047 0 
L 2419 0 
L 2419 1100 
L 313 1100 
L 313 1709 
L 2253 4666 
z
" id="DejaVuSans-34" transform="scale(0.015625)"/>
       </defs>
       <use xlink:href="#DejaVuSans-34"/>
       <use x="63.623047" xlink:href="#DejaVuSans-30"/>
       <use x="127.246094" xlink:href="#DejaVuSans-30"/>
      </g>
     </g>
    </g>
    <g id="xtick_4">
     <g id="line2d_4">
      <g>
       <use style="stroke:#000000;stroke-width:0.8;" x="862.82652" xlink:href="#md7ed1ea0a2" y="586.86358"/>
      </g>
     </g>
     <g id="text_4">
      <!-- 600 -->
      <g transform="translate(853.28277 601.462017)scale(0.1 -0.1)">
       <defs>
        <path d="M 2113 2584 
Q 1688 2584 1439 2293 
Q 1191 2003 1191 1497 
Q 1191 994 1439 701 
Q 1688 409 2113 409 
Q 2538 409 2786 701 
Q 3034 994 3034 1497 
Q 3034 2003 2786 2293 
Q 2538 2584 2113 2584 
z
M 3366 4563 
L 3366 3988 
Q 3128 4100 2886 4159 
Q 2644 4219 2406 4219 
Q 1781 4219 1451 3797 
Q 1122 3375 1075 2522 
Q 1259 2794 1537 2939 
Q 1816 3084 2150 3084 
Q 2853 3084 3261 2657 
Q 3669 2231 3669 1497 
Q 3669 778 3244 343 
Q 2819 -91 2113 -91 
Q 1303 -91 875 529 
Q 447 1150 447 2328 
Q 447 3434 972 4092 
Q 1497 4750 2381 4750 
Q 2619 4750 2861 4703 
Q 3103 4656 3366 4563 
z
" id="DejaVuSans-36" transform="scale(0.015625)"/>
       </defs>
       <use xlink:href="#DejaVuSans-36"/>
       <use x="63.623047" xlink:href="#DejaVuSans-30"/>
       <use x="127.246094" xlink:href="#DejaVuSans-30"/>
      </g>
     </g>
    </g>
    <g id="xtick_5">
     <g id="line2d_5">
      <g>
       <use style="stroke:#000000;stroke-width:0.8;" x="1110.477973" xlink:href="#md7ed1ea0a2" y="586.86358"/>
      </g>
     </g>
     <g id="text_5">
      <!-- 800 -->
      <g transform="translate(1100.934223 601.462017)scale(0.1 -0.1)">
       <defs>
        <path d="M 2034 2216 
Q 1584 2216 1326 1975 
Q 1069 1734 1069 1313 
Q 1069 891 1326 650 
Q 1584 409 2034 409 
Q 2484 409 2743 651 
Q 3003 894 3003 1313 
Q 3003 1734 2745 1975 
Q 2488 2216 2034 2216 
z
M 1403 2484 
Q 997 2584 770 2862 
Q 544 3141 544 3541 
Q 544 4100 942 4425 
Q 1341 4750 2034 4750 
Q 2731 4750 3128 4425 
Q 3525 4100 3525 3541 
Q 3525 3141 3298 2862 
Q 3072 2584 2669 2484 
Q 3125 2378 3379 2068 
Q 3634 1759 3634 1313 
Q 3634 634 3220 271 
Q 2806 -91 2034 -91 
Q 1263 -91 848 271 
Q 434 634 434 1313 
Q 434 1759 690 2068 
Q 947 2378 1403 2484 
z
M 1172 3481 
Q 1172 3119 1398 2916 
Q 1625 2713 2034 2713 
Q 2441 2713 2670 2916 
Q 2900 3119 2900 3481 
Q 2900 3844 2670 4047 
Q 2441 4250 2034 4250 
Q 1625 4250 1398 4047 
Q 1172 3844 1172 3481 
z
" id="DejaVuSans-38" transform="scale(0.015625)"/>
       </defs>
       <use xlink:href="#DejaVuSans-38"/>
       <use x="63.623047" xlink:href="#DejaVuSans-30"/>
       <use x="127.246094" xlink:href="#DejaVuSans-30"/>
      </g>
     </g>
    </g>
    <g id="xtick_6">
     <g id="line2d_6">
      <g>
       <use style="stroke:#000000;stroke-width:0.8;" x="1358.129427" xlink:href="#md7ed1ea0a2" y="586.86358"/>
      </g>
     </g>
     <g id="text_6">
      <!-- 1000 -->
      <g transform="translate(1345.404427 601.462017)scale(0.1 -0.1)">
       <defs>
        <path d="M 794 531 
L 1825 531 
L 1825 4091 
L 703 3866 
L 703 4441 
L 1819 4666 
L 2450 4666 
L 2450 531 
L 3481 531 
L 3481 0 
L 794 0 
L 794 531 
z
" id="DejaVuSans-31" transform="scale(0.015625)"/>
       </defs>
       <use xlink:href="#DejaVuSans-31"/>
       <use x="63.623047" xlink:href="#DejaVuSans-30"/>
       <use x="127.246094" xlink:href="#DejaVuSans-30"/>
       <use x="190.869141" xlink:href="#DejaVuSans-30"/>
      </g>
     </g>
    </g>
    <g id="xtick_7">
     <g id="line2d_7">
      <g>
       <use style="stroke:#000000;stroke-width:0.8;" x="1605.78088" xlink:href="#md7ed1ea0a2" y="586.86358"/>
      </g>
     </g>
     <g id="text_7">
      <!-- 1200 -->
      <g transform="translate(1593.05588 601.462017)scale(0.1 -0.1)">
       <use xlink:href="#DejaVuSans-31"/>
       <use x="63.623047" xlink:href="#DejaVuSans-32"/>
       <use x="127.246094" xlink:href="#DejaVuSans-30"/>
       <use x="190.869141" xlink:href="#DejaVuSans-30"/>
      </g>
     </g>
    </g>
    <g id="text_8">
     <!-- frame -->
     <g transform="translate(865.954687 615.140142)scale(0.1 -0.1)">
      <defs>
       <path d="M 2375 4863 
L 2375 4384 
L 1825 4384 
Q 1516 4384 1395 4259 
Q 1275 4134 1275 3809 
L 1275 3500 
L 2222 3500 
L 2222 3053 
L 1275 3053 
L 1275 0 
L 697 0 
L 697 3053 
L 147 3053 
L 147 3500 
L 697 3500 
L 697 3744 
Q 697 4328 969 4595 
Q 1241 4863 1831 4863 
L 2375 4863 
z
" id="DejaVuSans-66" transform="scale(0.015625)"/>
       <path d="M 2631 2963 
Q 2534 3019 2420 3045 
Q 2306 3072 2169 3072 
Q 1681 3072 1420 2755 
Q 1159 2438 1159 1844 
L 1159 0 
L 581 0 
L 581 3500 
L 1159 3500 
L 1159 2956 
Q 1341 3275 1631 3429 
Q 1922 3584 2338 3584 
Q 2397 3584 2469 3576 
Q 2541 3569 2628 3553 
L 2631 2963 
z
" id="DejaVuSans-72" transform="scale(0.015625)"/>
       <path d="M 2194 1759 
Q 1497 1759 1228 1600 
Q 959 1441 959 1056 
Q 959 750 1161 570 
Q 1363 391 1709 391 
Q 2188 391 2477 730 
Q 2766 1069 2766 1631 
L 2766 1759 
L 2194 1759 
z
M 3341 1997 
L 3341 0 
L 2766 0 
L 2766 531 
Q 2569 213 2275 61 
Q 1981 -91 1556 -91 
Q 1019 -91 701 211 
Q 384 513 384 1019 
Q 384 1609 779 1909 
Q 1175 2209 1959 2209 
L 2766 2209 
L 2766 2266 
Q 2766 2663 2505 2880 
Q 2244 3097 1772 3097 
Q 1472 3097 1187 3025 
Q 903 2953 641 2809 
L 641 3341 
Q 956 3463 1253 3523 
Q 1550 3584 1831 3584 
Q 2591 3584 2966 3190 
Q 3341 2797 3341 1997 
z
" id="DejaVuSans-61" transform="scale(0.015625)"/>
       <path d="M 3328 2828 
Q 3544 3216 3844 3400 
Q 4144 3584 4550 3584 
Q 5097 3584 5394 3201 
Q 5691 2819 5691 2113 
L 5691 0 
L 5113 0 
L 5113 2094 
Q 5113 2597 4934 2840 
Q 4756 3084 4391 3084 
Q 3944 3084 3684 2787 
Q 3425 2491 3425 1978 
L 3425 0 
L 2847 0 
L 2847 2094 
Q 2847 2600 2669 2842 
Q 2491 3084 2119 3084 
Q 1678 3084 1418 2786 
Q 1159 2488 1159 1978 
L 1159 0 
L 581 0 
L 581 3500 
L 1159 3500 
L 1159 2956 
Q 1356 3278 1631 3431 
Q 1906 3584 2284 3584 
Q 2666 3584 2933 3390 
Q 3200 3197 3328 2828 
z
" id="DejaVuSans-6d" transform="scale(0.015625)"/>
       <path d="M 3597 1894 
L 3597 1613 
L 953 1613 
Q 991 1019 1311 708 
Q 1631 397 2203 397 
Q 2534 397 2845 478 
Q 3156 559 3463 722 
L 3463 178 
Q 3153 47 2828 -22 
Q 2503 -91 2169 -91 
Q 1331 -91 842 396 
Q 353 884 353 1716 
Q 353 2575 817 3079 
Q 1281 3584 2069 3584 
Q 2775 3584 3186 3129 
Q 3597 2675 3597 1894 
z
M 3022 2063 
Q 3016 2534 2758 2815 
Q 2500 3097 2075 3097 
Q 1594 3097 1305 2825 
Q 1016 2553 972 2059 
L 3022 2063 
z
" id="DejaVuSans-65" transform="scale(0.015625)"/>
      </defs>
      <use xlink:href="#DejaVuSans-66"/>
      <use x="35.205078" xlink:href="#DejaVuSans-72"/>
      <use x="76.318359" xlink:href="#DejaVuSans-61"/>
      <use x="137.597656" xlink:href="#DejaVuSans-6d"/>
      <use x="235.009766" xlink:href="#DejaVuSans-65"/>
     </g>
    </g>
   </g>
   <g id="matplotlib.axis_2">
    <g id="ytick_1">
     <g id="line2d_8">
      <defs>
       <path d="M 0 0 
L -3.5 0 
" id="m259de22962" style="stroke:#000000;stroke-width:0.8;"/>
      </defs>
      <g>
       <use style="stroke:#000000;stroke-width:0.8;" x="43.78125" xlink:href="#m259de22962" y="559.443562"/>
      </g>
     </g>
     <g id="text_9">
      <!-- 4 -->
      <g transform="translate(30.41875 563.242781)scale(0.1 -0.1)">
       <use xlink:href="#DejaVuSans-34"/>
      </g>
     </g>
    </g>
    <g id="ytick_2">
     <g id="line2d_9">
      <g>
       <use style="stroke:#000000;stroke-width:0.8;" x="43.78125" xlink:href="#m259de22962" y="448.848386"/>
      </g>
     </g>
     <g id="text_10">
      <!-- 5 -->
      <g transform="translate(30.41875 452.647605)scale(0.1 -0.1)">
       <defs>
        <path d="M 691 4666 
L 3169 4666 
L 3169 4134 
L 1269 4134 
L 1269 2991 
Q 1406 3038 1543 3061 
Q 1681 3084 1819 3084 
Q 2600 3084 3056 2656 
Q 3513 2228 3513 1497 
Q 3513 744 3044 326 
Q 2575 -91 1722 -91 
Q 1428 -91 1123 -41 
Q 819 9 494 109 
L 494 744 
Q 775 591 1075 516 
Q 1375 441 1709 441 
Q 2250 441 2565 725 
Q 2881 1009 2881 1497 
Q 2881 1984 2565 2268 
Q 2250 2553 1709 2553 
Q 1456 2553 1204 2497 
Q 953 2441 691 2322 
L 691 4666 
z
" id="DejaVuSans-35" transform="scale(0.015625)"/>
       </defs>
       <use xlink:href="#DejaVuSans-35"/>
      </g>
     </g>
    </g>
    <g id="ytick_3">
     <g id="line2d_10">
      <g>
       <use style="stroke:#000000;stroke-width:0.8;" x="43.78125" xlink:href="#m259de22962" y="338.253211"/>
      </g>
     </g>
     <g id="text_11">
      <!-- 6 -->
      <g transform="translate(30.41875 342.052429)scale(0.1 -0.1)">
       <use xlink:href="#DejaVuSans-36"/>
      </g>
     </g>
    </g>
    <g id="ytick_4">
     <g id="line2d_11">
      <g>
       <use style="stroke:#000000;stroke-width:0.8;" x="43.78125" xlink:href="#m259de22962" y="227.658035"/>
      </g>
     </g>
     <g id="text_12">
      <!-- 7 -->
      <g transform="translate(30.41875 231.457254)scale(0.1 -0.1)">
       <defs>
        <path d="M 525 4666 
L 3525 4666 
L 3525 4397 
L 1831 0 
L 1172 0 
L 2766 4134 
L 525 4134 
L 525 4666 
z
" id="DejaVuSans-37" transform="scale(0.015625)"/>
       </defs>
       <use xlink:href="#DejaVuSans-37"/>
      </g>
     </g>
    </g>
    <g id="ytick_5">
     <g id="line2d_12">
      <g>
       <use style="stroke:#000000;stroke-width:0.8;" x="43.78125" xlink:href="#m259de22962" y="117.062859"/>
      </g>
     </g>
     <g id="text_13">
      <!-- 8 -->
      <g transform="translate(30.41875 120.862078)scale(0.1 -0.1)">
       <use xlink:href="#DejaVuSans-38"/>
      </g>
     </g>
    </g>
    <g id="text_14">
     <!-- GCaMP -->
     <g transform="translate(24.339062 322.349446)rotate(-90)scale(0.1 -0.1)">
      <defs>
       <path d="M 3809 666 
L 3809 1919 
L 2778 1919 
L 2778 2438 
L 4434 2438 
L 4434 434 
Q 4069 175 3628 42 
Q 3188 -91 2688 -91 
Q 1594 -91 976 548 
Q 359 1188 359 2328 
Q 359 3472 976 4111 
Q 1594 4750 2688 4750 
Q 3144 4750 3555 4637 
Q 3966 4525 4313 4306 
L 4313 3634 
Q 3963 3931 3569 4081 
Q 3175 4231 2741 4231 
Q 1884 4231 1454 3753 
Q 1025 3275 1025 2328 
Q 1025 1384 1454 906 
Q 1884 428 2741 428 
Q 3075 428 3337 486 
Q 3600 544 3809 666 
z
" id="DejaVuSans-47" transform="scale(0.015625)"/>
       <path d="M 4122 4306 
L 4122 3641 
Q 3803 3938 3442 4084 
Q 3081 4231 2675 4231 
Q 1875 4231 1450 3742 
Q 1025 3253 1025 2328 
Q 1025 1406 1450 917 
Q 1875 428 2675 428 
Q 3081 428 3442 575 
Q 3803 722 4122 1019 
L 4122 359 
Q 3791 134 3420 21 
Q 3050 -91 2638 -91 
Q 1578 -91 968 557 
Q 359 1206 359 2328 
Q 359 3453 968 4101 
Q 1578 4750 2638 4750 
Q 3056 4750 3426 4639 
Q 3797 4528 4122 4306 
z
" id="DejaVuSans-43" transform="scale(0.015625)"/>
       <path d="M 628 4666 
L 1569 4666 
L 2759 1491 
L 3956 4666 
L 4897 4666 
L 4897 0 
L 4281 0 
L 4281 4097 
L 3078 897 
L 2444 897 
L 1241 4097 
L 1241 0 
L 628 0 
L 628 4666 
z
" id="DejaVuSans-4d" transform="scale(0.015625)"/>
       <path d="M 1259 4147 
L 1259 2394 
L 2053 2394 
Q 2494 2394 2734 2622 
Q 2975 2850 2975 3272 
Q 2975 3691 2734 3919 
Q 2494 4147 2053 4147 
L 1259 4147 
z
M 628 4666 
L 2053 4666 
Q 2838 4666 3239 4311 
Q 3641 3956 3641 3272 
Q 3641 2581 3239 2228 
Q 2838 1875 2053 1875 
L 1259 1875 
L 1259 0 
L 628 0 
L 628 4666 
z
" id="DejaVuSans-50" transform="scale(0.015625)"/>
      </defs>
      <use xlink:href="#DejaVuSans-47"/>
      <use x="77.490234" xlink:href="#DejaVuSans-43"/>
      <use x="147.314453" xlink:href="#DejaVuSans-61"/>
      <use x="208.59375" xlink:href="#DejaVuSans-4d"/>
      <use x="294.873047" xlink:href="#DejaVuSans-50"/>
     </g>
    </g>
   </g>
   <g id="line2d_13">
    <path clip-path="url(#p0367de1837)" d="M 119.872159 175.706888 
L 122.348674 204.78446 
L 123.586931 217.448012 
L 124.825188 226.792032 
L 126.063445 232.43469 
L 127.301703 234.74783 
L 128.53996 233.874412 
L 129.778217 230.087075 
L 132.254732 219.571134 
L 133.492989 217.368545 
L 134.731246 219.125807 
L 135.969504 223.671604 
L 140.922533 244.556283 
L 143.399047 254.378845 
L 144.637304 261.283177 
L 145.875562 270.586191 
L 147.113819 280.812525 
L 148.352076 288.981491 
L 149.590334 292.533212 
L 150.828591 291.43491 
L 153.305105 284.356322 
L 154.543363 281.485797 
L 157.019877 276.910192 
L 158.258134 275.334287 
L 159.496392 275.84256 
L 160.734649 279.164485 
L 161.972906 284.586487 
L 164.449421 298.052558 
L 166.925935 312.455406 
L 168.164193 318.488243 
L 169.40245 322.77936 
L 170.640707 325.135865 
L 171.878964 326.462472 
L 173.117222 328.466707 
L 174.355479 332.015635 
L 175.593736 336.398189 
L 176.831993 340.181938 
L 178.070251 342.083816 
L 179.308508 341.475081 
L 180.546765 338.524047 
L 183.02328 330.039797 
L 184.261537 327.415508 
L 185.499794 327.182508 
L 186.738052 329.388043 
L 187.976309 333.292097 
L 189.214566 338.146758 
L 192.929338 353.735306 
L 194.167595 357.862484 
L 195.405852 360.905276 
L 196.64411 362.764809 
L 197.882367 363.560483 
L 199.120624 363.202362 
L 200.358881 361.131175 
L 201.597139 356.798196 
L 204.073653 344.528706 
L 205.311911 341.171712 
L 206.550168 341.919966 
L 207.788425 346.013087 
L 209.026682 350.962616 
L 210.26494 353.633908 
L 211.503197 352.038354 
L 212.741454 346.882646 
L 213.979711 341.21391 
L 215.217969 337.90814 
L 216.456226 337.259486 
L 217.694483 337.220869 
L 218.93274 335.497526 
L 220.170998 331.420609 
L 221.409255 326.329728 
L 222.647512 321.822282 
L 223.88577 318.226775 
L 225.124027 315.419951 
L 226.362284 313.951278 
L 227.600541 314.75891 
L 228.838799 318.381628 
L 230.077056 324.502892 
L 231.315313 331.696186 
L 232.55357 337.743611 
L 233.791828 340.994232 
L 235.030085 341.371656 
L 236.268342 339.912718 
L 237.5066 337.70985 
L 238.744857 334.986764 
L 239.983114 330.919645 
L 243.697886 313.582944 
L 244.936143 310.129894 
L 246.1744 307.701227 
L 248.650915 303.948119 
L 251.127429 299.364787 
L 252.365687 297.563295 
L 253.603944 297.175401 
L 254.842201 298.179398 
L 256.080459 298.735798 
L 257.318716 296.573212 
L 258.556973 290.870619 
L 261.033488 273.881883 
L 262.271745 267.895704 
L 263.510002 265.711462 
L 264.748259 266.111419 
L 265.986517 268.030632 
L 267.224774 271.844843 
L 269.701288 284.033393 
L 270.939546 288.325338 
L 272.177803 288.533325 
L 273.41606 284.718606 
L 274.654318 278.552334 
L 275.892575 270.971244 
L 277.130832 261.310012 
L 279.607347 237.016786 
L 280.845604 227.654031 
L 282.083861 224.193507 
L 283.322118 227.236271 
L 284.560376 233.901986 
L 285.798633 239.347532 
L 287.03689 240.042051 
L 288.275147 235.658064 
L 290.751662 220.983534 
L 291.989919 215.054392 
L 293.228177 211.269358 
L 294.466434 209.493944 
L 295.704691 209.195206 
L 296.942948 209.429743 
L 298.181206 208.569393 
L 299.419463 205.53992 
L 300.65772 201.488005 
L 301.895977 198.563126 
L 303.134235 197.304687 
L 304.372492 196.384728 
L 305.610749 194.112883 
L 306.849006 189.779749 
L 308.087264 184.347284 
L 309.325521 179.622258 
L 310.563778 176.465413 
L 311.802036 174.237436 
L 313.040293 171.099507 
L 314.27855 164.510354 
L 315.516807 153.143725 
L 317.993322 124.097419 
L 319.231579 112.95983 
L 320.469836 106.623338 
L 321.708094 104.736073 
L 322.946351 105.071368 
L 324.184608 104.900718 
L 325.422866 103.252795 
L 326.661123 100.661132 
L 327.89938 97.296692 
L 330.375895 88.4422 
L 331.614152 85.095514 
L 332.852409 84.820497 
L 334.090666 89.000267 
L 335.328924 97.205907 
L 336.567181 106.934486 
L 337.805438 115.619938 
L 339.043695 121.957994 
L 340.281953 124.764765 
L 341.52021 122.642971 
L 342.758467 115.667995 
L 343.996725 106.147258 
L 345.234982 97.529851 
L 346.473239 92.723441 
L 347.711496 92.385477 
L 348.949754 94.45512 
L 350.188011 96.303629 
L 352.664525 98.105317 
L 355.14104 100.505305 
L 356.379297 100.996186 
L 357.617554 100.057096 
L 358.855812 97.619701 
L 360.094069 94.747765 
L 361.332326 93.032833 
L 362.570584 93.328482 
L 367.523613 99.770931 
L 368.76187 101.089783 
L 370.000127 100.526052 
L 372.476642 95.295031 
L 373.714899 94.16452 
L 374.953156 94.570105 
L 377.429671 97.33199 
L 378.667928 96.694754 
L 379.906185 91.989993 
L 382.3827 74.360441 
L 383.620957 68.549177 
L 384.859214 66.859136 
L 386.097472 67.498244 
L 387.335729 68.714469 
L 388.573986 70.370872 
L 389.812243 73.420832 
L 391.050501 78.606875 
L 392.288758 85.343359 
L 393.527015 91.151347 
L 394.765272 92.843558 
L 396.00353 88.877432 
L 397.241787 80.105872 
L 399.718302 58.14018 
L 400.956559 50.582592 
L 402.194816 47.979282 
L 403.433073 51.036966 
L 404.671331 58.954245 
L 407.147845 78.887046 
L 408.386102 86.48235 
L 409.62436 92.091017 
L 410.862617 95.832731 
L 412.100874 97.17649 
L 413.339132 95.499942 
L 414.577389 91.228814 
L 415.815646 85.811997 
L 417.053903 81.071444 
L 418.292161 79.67767 
L 419.530418 84.169993 
L 422.006932 102.94836 
L 423.24519 106.36306 
L 424.483447 103.135524 
L 425.721704 97.531664 
L 426.959961 93.886408 
L 428.198219 93.008748 
L 429.436476 93.318988 
L 430.674733 93.43019 
L 431.912991 93.12987 
L 433.151248 92.950653 
L 434.389505 93.29196 
L 435.627762 94.108048 
L 436.86602 95.792717 
L 438.104277 99.370942 
L 439.342534 105.003061 
L 440.580791 111.761284 
L 441.819049 119.152135 
L 443.057306 127.410448 
L 445.53382 145.67327 
L 446.772078 152.532045 
L 448.010335 154.047637 
L 449.248592 148.556711 
L 450.48685 137.149503 
L 452.963364 109.605282 
L 454.201621 100.793714 
L 455.439879 99.000743 
L 456.678136 104.37737 
L 459.15465 122.765573 
L 460.392908 129.164462 
L 461.631165 133.077106 
L 462.869422 135.719015 
L 464.107679 138.679517 
L 465.345937 143.091134 
L 466.584194 148.625524 
L 467.822451 153.48868 
L 469.060709 155.838009 
L 470.298966 155.372789 
L 471.537223 153.178998 
L 474.013738 147.310901 
L 476.490252 141.351768 
L 478.966767 136.421794 
L 480.205024 133.400329 
L 481.443281 130.712287 
L 482.681538 129.597573 
L 483.919796 131.099286 
L 485.158053 136.670339 
L 486.39631 147.556097 
L 487.634568 163.029944 
L 488.872825 180.02465 
L 490.111082 195.172954 
L 491.349339 206.433894 
L 492.587597 212.086336 
L 493.825854 210.744157 
L 495.064111 203.286407 
L 498.778883 170.541633 
L 500.01714 164.419253 
L 501.255397 163.393471 
L 502.493655 166.679722 
L 506.208427 182.541478 
L 507.446684 185.854541 
L 508.684941 187.842643 
L 509.923198 188.953433 
L 511.161456 189.750611 
L 512.399713 190.891332 
L 514.876227 194.410986 
L 516.114485 196.295236 
L 517.352742 198.47039 
L 518.590999 200.188517 
L 521.067514 201.251784 
L 522.305771 203.814475 
L 524.782286 213.959288 
L 526.020543 215.747064 
L 527.2588 213.664019 
L 528.497057 209.220944 
L 530.973572 198.825286 
L 532.211829 194.974482 
L 533.450086 192.22821 
L 537.164858 184.797071 
L 538.403116 183.95631 
L 539.641373 186.246921 
L 540.87963 192.689025 
L 543.356145 212.318218 
L 544.594402 218.485074 
L 545.832659 218.828781 
L 547.070916 214.619157 
L 550.785688 197.263552 
L 552.023945 192.432564 
L 553.262203 189.095799 
L 554.50046 187.245289 
L 555.738717 185.933041 
L 556.976975 184.146857 
L 559.453489 179.256646 
L 560.691746 176.601079 
L 561.930004 173.039855 
L 564.406518 163.306673 
L 565.644775 159.426928 
L 566.883033 157.862609 
L 568.12129 158.807945 
L 569.359547 161.479903 
L 571.836062 168.778575 
L 573.074319 173.0904 
L 575.550834 182.981327 
L 576.789091 185.282976 
L 578.027348 184.353649 
L 579.265605 181.716441 
L 580.503863 179.535036 
L 581.74212 179.545655 
L 582.980377 182.534183 
L 584.218634 187.217567 
L 585.456892 190.511829 
L 586.695149 190.253091 
L 587.933406 186.978764 
L 589.171663 182.85318 
L 590.409921 180.356453 
L 591.648178 181.497463 
L 592.886435 186.409402 
L 595.36295 199.833739 
L 597.839464 211.498642 
L 599.077722 216.433251 
L 600.315979 219.761723 
L 601.554236 220.872863 
L 602.792493 221.003222 
L 604.030751 222.586062 
L 605.269008 226.595544 
L 606.507265 231.308318 
L 607.745523 234.014236 
L 608.98378 233.116122 
L 610.222037 228.253223 
L 611.460294 220.002931 
L 612.698552 210.51208 
L 613.936809 202.726956 
L 615.175066 197.877466 
L 616.413323 194.698537 
L 617.651581 191.139066 
L 618.889838 186.181235 
L 621.366352 174.045032 
L 625.081124 154.947557 
L 626.319382 153.000601 
L 627.557639 156.400167 
L 630.034153 170.131409 
L 631.272411 173.316626 
L 632.510668 171.379314 
L 634.987182 159.668297 
L 636.22544 157.426622 
L 637.463697 160.122857 
L 638.701954 166.461128 
L 641.178469 182.114348 
L 642.416726 188.556274 
L 643.654983 192.159872 
L 644.893241 191.716825 
L 646.131498 187.218021 
L 648.608012 174.132151 
L 649.84627 170.39286 
L 651.084527 169.737733 
L 652.322784 171.408536 
L 653.561041 173.752128 
L 654.799299 174.046304 
L 656.037556 169.304619 
L 657.275813 158.363149 
L 659.752328 127.999709 
L 660.990585 116.363577 
L 662.228842 108.225227 
L 663.4671 100.831351 
L 665.943614 84.062389 
L 667.181871 77.13216 
L 668.420129 72.193841 
L 669.658386 68.984829 
L 670.896643 67.777841 
L 672.1349 69.871481 
L 673.373158 75.496326 
L 674.611415 81.771369 
L 675.849672 84.969207 
L 677.087929 84.008544 
L 678.326187 80.971909 
L 679.564444 79.949992 
L 680.802701 84.798921 
L 682.040959 96.256471 
L 684.517473 126.590628 
L 685.75573 137.311265 
L 686.993988 141.095696 
L 688.232245 138.052097 
L 689.470502 130.495276 
L 690.708759 121.501484 
L 691.947017 114.474859 
L 693.185274 112.110662 
L 694.423531 114.646033 
L 695.661789 120.199524 
L 696.900046 126.645774 
L 698.138303 132.009729 
L 699.37656 134.17145 
L 700.614818 131.844227 
L 701.853075 125.762238 
L 703.091332 118.668542 
L 704.329589 113.792066 
L 705.567847 112.606723 
L 706.806104 113.870116 
L 708.044361 114.700245 
L 709.282618 113.290046 
L 710.520876 111.236191 
L 711.759133 111.9247 
L 712.99739 116.977935 
L 715.473905 132.893758 
L 716.712162 135.976515 
L 717.950419 132.27255 
L 719.188677 122.788853 
L 720.426934 111.146892 
L 721.665191 102.511594 
L 722.903448 100.714507 
L 724.141706 106.065243 
L 725.379963 116.62363 
L 726.61822 129.438591 
L 727.856477 140.73325 
L 729.094735 148.155819 
L 730.332992 152.215436 
L 731.571249 153.274585 
L 732.809507 149.42356 
L 734.047764 139.711904 
L 735.286021 127.193974 
L 736.524278 116.482415 
L 737.762536 109.890355 
L 739.000793 107.806329 
L 740.23905 110.980461 
L 741.477307 120.011482 
L 745.192079 160.637069 
L 746.430336 170.998967 
L 747.668594 179.19762 
L 748.906851 185.546037 
L 750.145108 190.388806 
L 751.383366 194.695478 
L 752.621623 199.624741 
L 753.85988 205.589161 
L 757.574652 225.660082 
L 758.812909 231.414647 
L 762.527681 246.844294 
L 763.765938 253.200723 
L 766.242453 266.799858 
L 767.48071 271.252123 
L 768.718967 272.29381 
L 769.957225 270.042769 
L 771.195482 266.873272 
L 772.433739 266.320122 
L 773.671996 271.026283 
L 774.910254 281.824124 
L 778.625025 327.805482 
L 779.863283 338.936595 
L 781.10154 347.385801 
L 782.339797 353.806252 
L 783.578054 358.594156 
L 784.816312 361.963106 
L 786.054569 364.165914 
L 787.292826 365.078022 
L 788.531084 363.766174 
L 789.769341 359.807999 
L 791.007598 355.185887 
L 792.245855 353.251884 
L 793.484113 355.587914 
L 795.960627 366.467199 
L 797.198884 369.173498 
L 798.437142 367.305205 
L 799.675399 361.636075 
L 802.151914 347.602688 
L 804.628428 335.503297 
L 807.104943 324.477823 
L 809.581457 313.486765 
L 810.819714 307.502733 
L 812.057972 302.612673 
L 813.296229 301.299342 
L 814.534486 305.921828 
L 815.772743 316.281215 
L 817.011001 328.806353 
L 818.249258 338.943954 
L 819.487515 343.473379 
L 820.725773 341.351382 
L 821.96403 334.080861 
L 823.202287 325.365442 
L 824.440544 319.356145 
L 825.678802 318.312741 
L 826.917059 321.995563 
L 828.155316 328.866732 
L 830.631831 344.874766 
L 831.870088 351.233299 
L 834.346602 362.559863 
L 836.823117 375.395274 
L 838.061374 380.445737 
L 839.299632 384.311908 
L 840.537889 386.810735 
L 841.776146 387.297261 
L 843.014403 385.407562 
L 844.252661 382.072662 
L 845.490918 379.261363 
L 846.729175 378.014124 
L 847.967432 377.482028 
L 849.20569 376.815545 
L 850.443947 376.662453 
L 851.682204 378.197604 
L 852.920461 382.238603 
L 854.158719 389.026106 
L 856.635233 405.60761 
L 857.873491 410.190494 
L 859.111748 409.489667 
L 860.350005 403.968703 
L 861.588262 396.798408 
L 862.82652 392.132369 
L 864.064777 392.248927 
L 865.303034 396.670495 
L 866.541291 403.703394 
L 867.779549 411.560333 
L 869.017806 418.292915 
L 870.256063 422.408317 
L 871.49432 424.034922 
L 872.732578 424.770319 
L 873.970835 426.110546 
L 875.209092 428.362603 
L 877.685607 433.679552 
L 878.923864 435.478182 
L 880.162121 436.127559 
L 881.400379 435.456058 
L 882.638636 432.942308 
L 885.11515 424.153616 
L 886.353408 421.03889 
L 887.591665 419.54319 
L 888.829922 418.875666 
L 890.06818 418.55672 
L 891.306437 418.812074 
L 892.544694 419.94231 
L 895.021209 423.726342 
L 896.259466 425.155183 
L 897.497723 424.933369 
L 898.73598 421.934329 
L 899.974238 416.055608 
L 902.450752 400.908771 
L 903.689009 394.561468 
L 904.927267 389.477988 
L 908.642039 377.08985 
L 911.118553 367.052683 
L 912.35681 364.826272 
L 913.595068 366.183798 
L 916.071582 373.923208 
L 917.309839 375.614994 
L 918.548097 374.142032 
L 921.024611 366.308741 
L 922.262868 364.86686 
L 923.501126 367.169093 
L 924.739383 372.251043 
L 925.97764 378.183659 
L 927.215898 383.181357 
L 928.454155 385.94314 
L 929.692412 386.184533 
L 930.930669 384.464463 
L 932.168927 380.954761 
L 933.407184 375.221558 
L 937.121956 352.329622 
L 938.360213 348.035536 
L 939.59847 346.804178 
L 940.836727 347.738777 
L 943.313242 351.010434 
L 944.551499 353.373091 
L 945.789757 356.184486 
L 947.028014 357.561542 
L 948.266271 355.12833 
L 949.504528 347.5069 
L 951.981043 325.424818 
L 953.2193 319.948583 
L 954.457557 320.866782 
L 956.934072 330.603429 
L 958.172329 333.505049 
L 959.410586 334.073788 
L 960.648844 332.995226 
L 961.887101 330.507196 
L 963.125358 326.370485 
L 964.363616 320.693787 
L 965.601873 314.310813 
L 966.84013 309.195114 
L 968.078387 308.146118 
L 969.316645 313.161991 
L 970.554902 323.973846 
L 973.031416 352.194415 
L 974.269674 364.468234 
L 975.507931 374.012535 
L 976.746188 380.132462 
L 977.984446 382.226982 
L 979.222703 380.490105 
L 980.46096 375.900691 
L 981.699217 369.324379 
L 982.937475 361.027856 
L 984.175732 351.129209 
L 986.652246 329.974895 
L 987.890504 321.528363 
L 989.128761 315.67433 
L 990.367018 312.500158 
L 991.605275 311.870528 
L 992.843533 313.496858 
L 994.08179 316.157402 
L 995.320047 317.33511 
L 996.558305 314.750682 
L 997.796562 308.327264 
L 999.034819 300.470902 
L 1000.273076 294.0002 
L 1001.511334 289.56092 
L 1002.749591 285.71204 
L 1006.464363 272.660647 
L 1007.70262 269.515583 
L 1008.940877 267.627173 
L 1010.179134 267.52213 
L 1011.417392 269.667472 
L 1012.655649 273.465449 
L 1013.893906 276.542261 
L 1015.132164 276.371375 
L 1016.370421 271.972465 
L 1017.608678 263.563157 
L 1021.32345 230.723334 
L 1022.561707 224.345979 
L 1023.799964 222.70004 
L 1025.038222 225.220312 
L 1028.752993 239.085736 
L 1029.991251 240.820099 
L 1031.229508 239.196188 
L 1032.467765 235.232995 
L 1033.706023 232.218557 
L 1034.94428 233.542544 
L 1036.182537 240.590502 
L 1038.659052 264.514525 
L 1039.897309 273.886361 
L 1041.135566 277.886633 
L 1042.373823 277.456572 
L 1044.850338 272.906424 
L 1046.088595 271.514647 
L 1047.326852 272.913147 
L 1048.56511 279.222701 
L 1049.803367 290.539019 
L 1052.279882 317.81582 
L 1053.518139 328.251176 
L 1054.756396 335.207776 
L 1055.994653 339.652696 
L 1058.471168 346.562663 
L 1059.709425 350.878736 
L 1060.947682 356.146331 
L 1062.18594 362.420362 
L 1064.662454 377.300651 
L 1065.900711 386.087756 
L 1067.138969 396.845917 
L 1069.615483 421.28953 
L 1070.853741 431.487819 
L 1072.091998 439.432471 
L 1074.568512 452.469595 
L 1075.80677 458.085032 
L 1077.045027 461.274906 
L 1078.283284 460.546344 
L 1079.521541 455.773022 
L 1080.759799 448.218147 
L 1083.236313 431.110976 
L 1084.474571 424.439741 
L 1085.712828 420.561609 
L 1086.951085 419.838885 
L 1088.189342 421.927628 
L 1089.4276 425.518435 
L 1090.665857 428.225191 
L 1091.904114 427.595206 
L 1093.142371 422.477157 
L 1094.380629 413.465998 
L 1095.618886 402.682513 
L 1096.857143 393.187699 
L 1098.0954 387.540068 
L 1099.333658 386.211189 
L 1100.571915 387.697769 
L 1101.810172 389.891269 
L 1103.04843 390.907545 
L 1104.286687 389.967763 
L 1106.763201 386.050178 
L 1108.001459 384.39166 
L 1109.239716 382.970025 
L 1110.477973 382.3438 
L 1111.71623 383.337516 
L 1114.192745 388.274073 
L 1115.431002 389.161671 
L 1116.669259 389.31455 
L 1117.907517 390.377869 
L 1119.145774 392.232066 
L 1120.384031 393.291195 
L 1121.622289 392.937707 
L 1122.860546 392.098135 
L 1124.098803 391.776508 
L 1125.33706 391.956003 
L 1126.575318 391.799909 
L 1129.051832 390.087955 
L 1130.290089 390.101897 
L 1131.528347 391.116786 
L 1132.766604 393.006055 
L 1134.004861 395.568232 
L 1136.481376 401.891139 
L 1137.719633 404.477873 
L 1138.95789 406.023945 
L 1140.196148 407.362744 
L 1141.434405 409.762282 
L 1142.672662 413.985651 
L 1143.910919 420.032946 
L 1147.625691 440.809222 
L 1148.863948 446.368749 
L 1150.102206 450.13156 
L 1151.340463 451.450691 
L 1152.57872 450.610495 
L 1153.816977 449.573616 
L 1155.055235 450.896334 
L 1156.293492 455.730401 
L 1158.770007 469.65769 
L 1160.008264 472.778048 
L 1161.246521 471.574612 
L 1163.723036 463.97809 
L 1164.961293 462.459098 
L 1166.19955 463.283403 
L 1167.437807 464.949067 
L 1168.676065 466.037009 
L 1169.914322 466.578826 
L 1171.152579 468.123904 
L 1172.390837 472.037731 
L 1176.105608 489.3819 
L 1177.343866 493.729087 
L 1178.582123 497.199319 
L 1179.82038 499.848302 
L 1181.058637 501.613522 
L 1182.296895 502.6313 
L 1184.773409 503.94107 
L 1186.011666 504.818799 
L 1187.249924 506.425915 
L 1188.488181 509.42215 
L 1190.964696 517.43655 
L 1192.202953 519.562658 
L 1193.44121 519.452896 
L 1194.679467 517.565417 
L 1197.155982 511.745416 
L 1198.394239 510.459206 
L 1199.632496 511.597489 
L 1200.870754 514.002107 
L 1202.109011 515.416963 
L 1203.347268 514.450688 
L 1204.585525 511.801858 
L 1205.823783 509.558947 
L 1207.06204 509.238277 
L 1208.300297 510.892738 
L 1210.776812 516.504597 
L 1212.015069 518.402889 
L 1213.253326 518.839561 
L 1214.491584 517.814943 
L 1215.729841 515.714822 
L 1216.968098 512.841357 
L 1218.206355 509.090946 
L 1219.444613 504.265055 
L 1220.68287 498.446212 
L 1223.159384 485.361513 
L 1224.397642 479.575795 
L 1225.635899 475.431939 
L 1226.874156 473.537285 
L 1228.112414 474.360545 
L 1229.350671 477.690368 
L 1230.588928 481.913813 
L 1231.827185 484.702436 
L 1233.065443 485.162516 
L 1234.3037 484.656815 
L 1235.541957 484.755502 
L 1236.780214 485.462559 
L 1238.018472 485.781834 
L 1239.256729 484.730769 
L 1240.494986 482.1606 
L 1241.733243 479.328889 
L 1242.971501 477.785002 
L 1244.209758 477.650681 
L 1247.92453 478.433105 
L 1249.162787 479.121534 
L 1250.401044 479.571515 
L 1252.877559 479.773013 
L 1254.115816 479.329146 
L 1255.354073 476.837016 
L 1256.592331 471.926737 
L 1259.068845 460.522337 
L 1260.307103 456.611771 
L 1261.54536 455.005401 
L 1262.783617 455.811434 
L 1264.021874 458.131505 
L 1265.260132 460.78459 
L 1266.498389 463.129921 
L 1267.736646 465.079907 
L 1268.974903 466.552052 
L 1270.213161 467.076671 
L 1272.689675 465.8862 
L 1275.16619 465.982077 
L 1276.404447 464.706384 
L 1277.642704 462.381872 
L 1278.880962 460.685579 
L 1280.119219 461.175883 
L 1281.357476 464.326672 
L 1282.595733 469.444328 
L 1285.072248 480.481564 
L 1286.310505 484.579941 
L 1287.548762 487.156947 
L 1288.78702 488.366037 
L 1291.263534 489.245431 
L 1292.501791 490.474323 
L 1294.978306 494.590726 
L 1296.216563 495.90009 
L 1297.454821 495.91375 
L 1299.931335 493.597132 
L 1301.169592 493.896287 
L 1302.40785 496.182595 
L 1303.646107 499.239763 
L 1304.884364 501.11031 
L 1306.122621 500.622765 
L 1307.360879 497.768669 
L 1308.599136 493.63472 
L 1309.837393 490.219978 
L 1311.07565 489.335139 
L 1312.313908 491.459223 
L 1313.552165 495.89283 
L 1314.790422 501.771625 
L 1317.266937 514.717367 
L 1318.505194 519.642495 
L 1319.743451 523.184177 
L 1320.981709 525.841289 
L 1322.219966 527.434889 
L 1323.458223 527.570215 
L 1324.69648 526.246457 
L 1325.934738 523.772278 
L 1327.172995 520.82632 
L 1328.411252 518.246564 
L 1329.649509 516.452923 
L 1330.887767 515.493204 
L 1332.126024 515.353884 
L 1333.364281 515.81381 
L 1337.079053 518.023577 
L 1338.31731 519.487141 
L 1339.555568 522.518884 
L 1342.032082 531.954494 
L 1343.270339 535.153341 
L 1344.508597 535.869275 
L 1345.746854 534.991999 
L 1349.461626 530.942186 
L 1350.699883 530.090975 
L 1351.93814 529.92371 
L 1353.176398 530.326528 
L 1354.414655 530.936865 
L 1355.652912 531.09222 
L 1356.891169 529.77861 
L 1358.129427 526.197717 
L 1359.367684 521.03649 
L 1360.605941 516.802693 
L 1361.844198 515.873226 
L 1363.082456 518.443774 
L 1365.55897 527.535322 
L 1366.797228 530.444479 
L 1368.035485 530.700827 
L 1369.273742 528.706247 
L 1370.511999 526.124402 
L 1371.750257 525.195249 
L 1372.988514 527.736196 
L 1374.226771 534.246643 
L 1376.703286 553.329134 
L 1377.941543 559.818698 
L 1379.1798 561.202423 
L 1380.418057 558.447265 
L 1381.656315 554.576028 
L 1382.894572 552.492413 
L 1384.132829 552.68406 
L 1385.371087 553.062735 
L 1386.609344 551.163987 
L 1387.847601 545.812255 
L 1389.085858 537.555734 
L 1391.562373 519.8109 
L 1392.80063 513.003456 
L 1394.038887 508.32399 
L 1395.277145 506.30402 
L 1396.515402 507.150966 
L 1397.753659 510.598334 
L 1398.991916 516.423591 
L 1401.468431 531.502404 
L 1402.706688 536.45212 
L 1403.944946 537.741808 
L 1405.183203 536.128784 
L 1406.42146 533.513845 
L 1407.659717 531.837907 
L 1408.897975 532.475168 
L 1410.136232 535.566286 
L 1411.374489 539.491365 
L 1412.612746 542.152466 
L 1413.851004 542.870694 
L 1416.327518 542.118194 
L 1417.565775 541.949647 
L 1418.804033 541.284823 
L 1420.04229 539.595177 
L 1421.280547 536.925675 
L 1422.518805 533.313631 
L 1424.995319 524.783645 
L 1426.233576 522.840818 
L 1427.471834 523.690374 
L 1432.424863 533.234138 
L 1433.66312 535.213449 
L 1434.901377 536.303804 
L 1436.139634 536.277328 
L 1438.616149 534.432463 
L 1439.854406 533.913104 
L 1441.092664 533.927729 
L 1442.330921 534.328694 
L 1446.045693 536.055524 
L 1447.28395 535.74751 
L 1448.522207 534.149129 
L 1449.760464 531.476453 
L 1452.236979 525.360318 
L 1453.475236 522.994642 
L 1454.713494 521.713545 
L 1455.951751 521.823917 
L 1457.190008 523.399476 
L 1458.428265 526.215458 
L 1459.666523 530.236699 
L 1460.90478 535.667022 
L 1464.619552 555.408424 
L 1465.857809 558.576182 
L 1467.096066 558.04491 
L 1468.334323 554.235981 
L 1473.287353 531.490524 
L 1474.52561 527.352051 
L 1475.763867 524.198165 
L 1477.002124 522.556102 
L 1478.240382 522.842637 
L 1480.716896 525.801889 
L 1481.955153 526.044426 
L 1483.193411 524.924848 
L 1484.431668 523.097751 
L 1485.669925 521.858966 
L 1486.908182 522.040595 
L 1488.14644 523.362275 
L 1489.384697 524.89228 
L 1490.622954 525.507809 
L 1491.861212 524.346067 
L 1493.099469 521.370094 
L 1494.337726 517.568903 
L 1495.575983 514.825199 
L 1496.814241 515.202292 
L 1498.052498 519.621055 
L 1499.290755 527.208631 
L 1500.529012 535.74053 
L 1501.76727 542.348785 
L 1503.005527 544.83567 
L 1504.243784 543.282261 
L 1507.958556 532.512288 
L 1509.196813 530.192357 
L 1510.435071 529.266716 
L 1511.673328 529.605267 
L 1514.149842 531.318665 
L 1516.626357 533.66261 
L 1517.864614 533.531874 
L 1519.102871 531.014758 
L 1520.341129 526.861595 
L 1521.579386 523.344332 
L 1522.817643 522.08136 
L 1524.0559 522.653233 
L 1526.532415 524.734205 
L 1527.770672 526.29341 
L 1529.00893 528.19619 
L 1530.247187 529.079691 
L 1531.485444 527.879684 
L 1532.723701 524.928491 
L 1535.200216 517.813333 
L 1537.67673 511.474899 
L 1538.914988 508.92474 
L 1540.153245 506.655973 
L 1541.391502 504.028559 
L 1543.868017 497.613424 
L 1545.106274 495.973582 
L 1546.344531 496.959335 
L 1547.582789 500.907108 
L 1548.821046 507.223789 
L 1550.059303 514.241831 
L 1551.29756 519.726965 
L 1552.535818 522.261058 
L 1553.774075 522.131575 
L 1556.250589 519.243083 
L 1557.488847 518.735672 
L 1558.727104 519.238578 
L 1559.965361 520.014557 
L 1561.203619 520.198995 
L 1562.441876 519.488663 
L 1563.680133 518.275893 
L 1564.91839 517.313574 
L 1566.156648 517.21265 
L 1567.394905 517.94394 
L 1568.633162 518.842845 
L 1569.871419 519.275654 
L 1571.109677 519.048519 
L 1572.347934 518.073692 
L 1573.586191 516.219529 
L 1574.824448 513.982316 
L 1576.062706 512.5503 
L 1577.300963 512.344986 
L 1579.777478 512.668622 
L 1581.015735 513.761224 
L 1582.253992 516.666527 
L 1583.492249 521.235082 
L 1584.730507 526.965252 
L 1587.207021 540.153482 
L 1588.445278 544.307828 
L 1589.683536 544.012456 
L 1590.921793 539.539802 
L 1592.16005 532.519217 
L 1593.398307 523.926762 
L 1595.874822 503.272936 
L 1597.113079 493.232742 
L 1598.351337 486.169292 
L 1599.589594 483.543087 
L 1600.827851 484.470898 
L 1602.066108 486.458173 
L 1603.304366 487.340056 
L 1604.542623 486.331618 
L 1607.019137 481.603983 
L 1608.257395 480.000052 
L 1609.495652 479.829954 
L 1610.733909 481.394526 
L 1611.972166 483.754661 
L 1613.210424 484.911018 
L 1614.448681 483.7641 
L 1615.686938 481.372248 
L 1616.925196 479.659026 
L 1618.163453 479.06474 
L 1619.40171 478.09487 
L 1620.639967 475.410436 
L 1621.878225 471.840593 
L 1623.116482 469.313744 
L 1624.354739 468.152781 
L 1625.592996 466.748794 
L 1626.831254 463.578084 
L 1628.069511 458.894738 
L 1629.307768 454.811919 
L 1630.546026 453.529355 
L 1631.784283 455.3903 
L 1633.02254 458.981715 
L 1634.260797 462.089124 
L 1635.499055 462.29919 
L 1636.737312 458.437626 
L 1640.452084 438.818471 
L 1641.690341 434.169125 
L 1641.690341 434.169125 
" style="fill:none;stroke:#008000;stroke-linecap:square;stroke-width:1.5;"/>
   </g>
   <g id="patch_3">
    <path d="M 43.78125 586.86358 
L 43.78125 22.318125 
" style="fill:none;stroke:#000000;stroke-linecap:square;stroke-linejoin:miter;stroke-width:0.8;"/>
   </g>
   <g id="patch_4">
    <path d="M 1717.78125 586.86358 
L 1717.78125 22.318125 
" style="fill:none;stroke:#000000;stroke-linecap:square;stroke-linejoin:miter;stroke-width:0.8;"/>
   </g>
   <g id="patch_5">
    <path d="M 43.78125 586.86358 
L 1717.78125 586.86358 
" style="fill:none;stroke:#000000;stroke-linecap:square;stroke-linejoin:miter;stroke-width:0.8;"/>
   </g>
   <g id="patch_6">
    <path d="M 43.78125 22.318125 
L 1717.78125 22.318125 
" style="fill:none;stroke:#000000;stroke-linecap:square;stroke-linejoin:miter;stroke-width:0.8;"/>
   </g>
   <g id="text_15">
    <!-- before binarisation -->
    <g transform="translate(824.1825 16.318125)scale(0.12 -0.12)">
     <defs>
      <path d="M 3116 1747 
Q 3116 2381 2855 2742 
Q 2594 3103 2138 3103 
Q 1681 3103 1420 2742 
Q 1159 2381 1159 1747 
Q 1159 1113 1420 752 
Q 1681 391 2138 391 
Q 2594 391 2855 752 
Q 3116 1113 3116 1747 
z
M 1159 2969 
Q 1341 3281 1617 3432 
Q 1894 3584 2278 3584 
Q 2916 3584 3314 3078 
Q 3713 2572 3713 1747 
Q 3713 922 3314 415 
Q 2916 -91 2278 -91 
Q 1894 -91 1617 61 
Q 1341 213 1159 525 
L 1159 0 
L 581 0 
L 581 4863 
L 1159 4863 
L 1159 2969 
z
" id="DejaVuSans-62" transform="scale(0.015625)"/>
      <path d="M 1959 3097 
Q 1497 3097 1228 2736 
Q 959 2375 959 1747 
Q 959 1119 1226 758 
Q 1494 397 1959 397 
Q 2419 397 2687 759 
Q 2956 1122 2956 1747 
Q 2956 2369 2687 2733 
Q 2419 3097 1959 3097 
z
M 1959 3584 
Q 2709 3584 3137 3096 
Q 3566 2609 3566 1747 
Q 3566 888 3137 398 
Q 2709 -91 1959 -91 
Q 1206 -91 779 398 
Q 353 888 353 1747 
Q 353 2609 779 3096 
Q 1206 3584 1959 3584 
z
" id="DejaVuSans-6f" transform="scale(0.015625)"/>
      <path id="DejaVuSans-20" transform="scale(0.015625)"/>
      <path d="M 603 3500 
L 1178 3500 
L 1178 0 
L 603 0 
L 603 3500 
z
M 603 4863 
L 1178 4863 
L 1178 4134 
L 603 4134 
L 603 4863 
z
" id="DejaVuSans-69" transform="scale(0.015625)"/>
      <path d="M 3513 2113 
L 3513 0 
L 2938 0 
L 2938 2094 
Q 2938 2591 2744 2837 
Q 2550 3084 2163 3084 
Q 1697 3084 1428 2787 
Q 1159 2491 1159 1978 
L 1159 0 
L 581 0 
L 581 3500 
L 1159 3500 
L 1159 2956 
Q 1366 3272 1645 3428 
Q 1925 3584 2291 3584 
Q 2894 3584 3203 3211 
Q 3513 2838 3513 2113 
z
" id="DejaVuSans-6e" transform="scale(0.015625)"/>
      <path d="M 2834 3397 
L 2834 2853 
Q 2591 2978 2328 3040 
Q 2066 3103 1784 3103 
Q 1356 3103 1142 2972 
Q 928 2841 928 2578 
Q 928 2378 1081 2264 
Q 1234 2150 1697 2047 
L 1894 2003 
Q 2506 1872 2764 1633 
Q 3022 1394 3022 966 
Q 3022 478 2636 193 
Q 2250 -91 1575 -91 
Q 1294 -91 989 -36 
Q 684 19 347 128 
L 347 722 
Q 666 556 975 473 
Q 1284 391 1588 391 
Q 1994 391 2212 530 
Q 2431 669 2431 922 
Q 2431 1156 2273 1281 
Q 2116 1406 1581 1522 
L 1381 1569 
Q 847 1681 609 1914 
Q 372 2147 372 2553 
Q 372 3047 722 3315 
Q 1072 3584 1716 3584 
Q 2034 3584 2315 3537 
Q 2597 3491 2834 3397 
z
" id="DejaVuSans-73" transform="scale(0.015625)"/>
      <path d="M 1172 4494 
L 1172 3500 
L 2356 3500 
L 2356 3053 
L 1172 3053 
L 1172 1153 
Q 1172 725 1289 603 
Q 1406 481 1766 481 
L 2356 481 
L 2356 0 
L 1766 0 
Q 1100 0 847 248 
Q 594 497 594 1153 
L 594 3053 
L 172 3053 
L 172 3500 
L 594 3500 
L 594 4494 
L 1172 4494 
z
" id="DejaVuSans-74" transform="scale(0.015625)"/>
     </defs>
     <use xlink:href="#DejaVuSans-62"/>
     <use x="63.476562" xlink:href="#DejaVuSans-65"/>
     <use x="125" xlink:href="#DejaVuSans-66"/>
     <use x="160.205078" xlink:href="#DejaVuSans-6f"/>
     <use x="221.386719" xlink:href="#DejaVuSans-72"/>
     <use x="260.25" xlink:href="#DejaVuSans-65"/>
     <use x="321.773438" xlink:href="#DejaVuSans-20"/>
     <use x="353.560547" xlink:href="#DejaVuSans-62"/>
     <use x="417.037109" xlink:href="#DejaVuSans-69"/>
     <use x="444.820312" xlink:href="#DejaVuSans-6e"/>
     <use x="508.199219" xlink:href="#DejaVuSans-61"/>
     <use x="569.478516" xlink:href="#DejaVuSans-72"/>
     <use x="610.591797" xlink:href="#DejaVuSans-69"/>
     <use x="638.375" xlink:href="#DejaVuSans-73"/>
     <use x="690.474609" xlink:href="#DejaVuSans-61"/>
     <use x="751.753906" xlink:href="#DejaVuSans-74"/>
     <use x="790.962891" xlink:href="#DejaVuSans-69"/>
     <use x="818.746094" xlink:href="#DejaVuSans-6f"/>
     <use x="879.927734" xlink:href="#DejaVuSans-6e"/>
    </g>
   </g>
  </g>
  <g id="axes_2">
   <g id="patch_7">
    <path d="M 43.78125 1264.318125 
L 1717.78125 1264.318125 
L 1717.78125 699.77267 
L 43.78125 699.77267 
z
" style="fill:#ffffff;"/>
   </g>
   <g id="matplotlib.axis_3">
    <g id="xtick_8">
     <g id="line2d_14">
      <g>
       <use style="stroke:#000000;stroke-width:0.8;" x="119.872159" xlink:href="#md7ed1ea0a2" y="1264.318125"/>
      </g>
     </g>
     <g id="text_16">
      <!-- 0 -->
      <g transform="translate(116.690909 1278.916563)scale(0.1 -0.1)">
       <use xlink:href="#DejaVuSans-30"/>
      </g>
     </g>
    </g>
    <g id="xtick_9">
     <g id="line2d_15">
      <g>
       <use style="stroke:#000000;stroke-width:0.8;" x="367.523613" xlink:href="#md7ed1ea0a2" y="1264.318125"/>
      </g>
     </g>
     <g id="text_17">
      <!-- 200 -->
      <g transform="translate(357.979863 1278.916563)scale(0.1 -0.1)">
       <use xlink:href="#DejaVuSans-32"/>
       <use x="63.623047" xlink:href="#DejaVuSans-30"/>
       <use x="127.246094" xlink:href="#DejaVuSans-30"/>
      </g>
     </g>
    </g>
    <g id="xtick_10">
     <g id="line2d_16">
      <g>
       <use style="stroke:#000000;stroke-width:0.8;" x="615.175066" xlink:href="#md7ed1ea0a2" y="1264.318125"/>
      </g>
     </g>
     <g id="text_18">
      <!-- 400 -->
      <g transform="translate(605.631316 1278.916563)scale(0.1 -0.1)">
       <use xlink:href="#DejaVuSans-34"/>
       <use x="63.623047" xlink:href="#DejaVuSans-30"/>
       <use x="127.246094" xlink:href="#DejaVuSans-30"/>
      </g>
     </g>
    </g>
    <g id="xtick_11">
     <g id="line2d_17">
      <g>
       <use style="stroke:#000000;stroke-width:0.8;" x="862.82652" xlink:href="#md7ed1ea0a2" y="1264.318125"/>
      </g>
     </g>
     <g id="text_19">
      <!-- 600 -->
      <g transform="translate(853.28277 1278.916563)scale(0.1 -0.1)">
       <use xlink:href="#DejaVuSans-36"/>
       <use x="63.623047" xlink:href="#DejaVuSans-30"/>
       <use x="127.246094" xlink:href="#DejaVuSans-30"/>
      </g>
     </g>
    </g>
    <g id="xtick_12">
     <g id="line2d_18">
      <g>
       <use style="stroke:#000000;stroke-width:0.8;" x="1110.477973" xlink:href="#md7ed1ea0a2" y="1264.318125"/>
      </g>
     </g>
     <g id="text_20">
      <!-- 800 -->
      <g transform="translate(1100.934223 1278.916563)scale(0.1 -0.1)">
       <use xlink:href="#DejaVuSans-38"/>
       <use x="63.623047" xlink:href="#DejaVuSans-30"/>
       <use x="127.246094" xlink:href="#DejaVuSans-30"/>
      </g>
     </g>
    </g>
    <g id="xtick_13">
     <g id="line2d_19">
      <g>
       <use style="stroke:#000000;stroke-width:0.8;" x="1358.129427" xlink:href="#md7ed1ea0a2" y="1264.318125"/>
      </g>
     </g>
     <g id="text_21">
      <!-- 1000 -->
      <g transform="translate(1345.404427 1278.916563)scale(0.1 -0.1)">
       <use xlink:href="#DejaVuSans-31"/>
       <use x="63.623047" xlink:href="#DejaVuSans-30"/>
       <use x="127.246094" xlink:href="#DejaVuSans-30"/>
       <use x="190.869141" xlink:href="#DejaVuSans-30"/>
      </g>
     </g>
    </g>
    <g id="xtick_14">
     <g id="line2d_20">
      <g>
       <use style="stroke:#000000;stroke-width:0.8;" x="1605.78088" xlink:href="#md7ed1ea0a2" y="1264.318125"/>
      </g>
     </g>
     <g id="text_22">
      <!-- 1200 -->
      <g transform="translate(1593.05588 1278.916563)scale(0.1 -0.1)">
       <use xlink:href="#DejaVuSans-31"/>
       <use x="63.623047" xlink:href="#DejaVuSans-32"/>
       <use x="127.246094" xlink:href="#DejaVuSans-30"/>
       <use x="190.869141" xlink:href="#DejaVuSans-30"/>
      </g>
     </g>
    </g>
    <g id="text_23">
     <!-- frame -->
     <g transform="translate(865.954687 1292.594688)scale(0.1 -0.1)">
      <use xlink:href="#DejaVuSans-66"/>
      <use x="35.205078" xlink:href="#DejaVuSans-72"/>
      <use x="76.318359" xlink:href="#DejaVuSans-61"/>
      <use x="137.597656" xlink:href="#DejaVuSans-6d"/>
      <use x="235.009766" xlink:href="#DejaVuSans-65"/>
     </g>
    </g>
   </g>
   <g id="matplotlib.axis_4">
    <g id="ytick_6">
     <g id="line2d_21">
      <g>
       <use style="stroke:#000000;stroke-width:0.8;" x="43.78125" xlink:href="#m259de22962" y="1238.656968"/>
      </g>
     </g>
     <g id="text_24">
      <!-- 0.0 -->
      <g transform="translate(20.878125 1242.456187)scale(0.1 -0.1)">
       <defs>
        <path d="M 684 794 
L 1344 794 
L 1344 0 
L 684 0 
L 684 794 
z
" id="DejaVuSans-2e" transform="scale(0.015625)"/>
       </defs>
       <use xlink:href="#DejaVuSans-30"/>
       <use x="63.623047" xlink:href="#DejaVuSans-2e"/>
       <use x="95.410156" xlink:href="#DejaVuSans-30"/>
      </g>
     </g>
    </g>
    <g id="ytick_7">
     <g id="line2d_22">
      <g>
       <use style="stroke:#000000;stroke-width:0.8;" x="43.78125" xlink:href="#m259de22962" y="1136.01234"/>
      </g>
     </g>
     <g id="text_25">
      <!-- 0.2 -->
      <g transform="translate(20.878125 1139.811559)scale(0.1 -0.1)">
       <use xlink:href="#DejaVuSans-30"/>
       <use x="63.623047" xlink:href="#DejaVuSans-2e"/>
       <use x="95.410156" xlink:href="#DejaVuSans-32"/>
      </g>
     </g>
    </g>
    <g id="ytick_8">
     <g id="line2d_23">
      <g>
       <use style="stroke:#000000;stroke-width:0.8;" x="43.78125" xlink:href="#m259de22962" y="1033.367712"/>
      </g>
     </g>
     <g id="text_26">
      <!-- 0.4 -->
      <g transform="translate(20.878125 1037.166931)scale(0.1 -0.1)">
       <use xlink:href="#DejaVuSans-30"/>
       <use x="63.623047" xlink:href="#DejaVuSans-2e"/>
       <use x="95.410156" xlink:href="#DejaVuSans-34"/>
      </g>
     </g>
    </g>
    <g id="ytick_9">
     <g id="line2d_24">
      <g>
       <use style="stroke:#000000;stroke-width:0.8;" x="43.78125" xlink:href="#m259de22962" y="930.723084"/>
      </g>
     </g>
     <g id="text_27">
      <!-- 0.6 -->
      <g transform="translate(20.878125 934.522302)scale(0.1 -0.1)">
       <use xlink:href="#DejaVuSans-30"/>
       <use x="63.623047" xlink:href="#DejaVuSans-2e"/>
       <use x="95.410156" xlink:href="#DejaVuSans-36"/>
      </g>
     </g>
    </g>
    <g id="ytick_10">
     <g id="line2d_25">
      <g>
       <use style="stroke:#000000;stroke-width:0.8;" x="43.78125" xlink:href="#m259de22962" y="828.078456"/>
      </g>
     </g>
     <g id="text_28">
      <!-- 0.8 -->
      <g transform="translate(20.878125 831.877674)scale(0.1 -0.1)">
       <use xlink:href="#DejaVuSans-30"/>
       <use x="63.623047" xlink:href="#DejaVuSans-2e"/>
       <use x="95.410156" xlink:href="#DejaVuSans-38"/>
      </g>
     </g>
    </g>
    <g id="ytick_11">
     <g id="line2d_26">
      <g>
       <use style="stroke:#000000;stroke-width:0.8;" x="43.78125" xlink:href="#m259de22962" y="725.433827"/>
      </g>
     </g>
     <g id="text_29">
      <!-- 1.0 -->
      <g transform="translate(20.878125 729.233046)scale(0.1 -0.1)">
       <use xlink:href="#DejaVuSans-31"/>
       <use x="63.623047" xlink:href="#DejaVuSans-2e"/>
       <use x="95.410156" xlink:href="#DejaVuSans-30"/>
      </g>
     </g>
    </g>
    <g id="text_30">
     <!-- GCaMP -->
     <g transform="translate(14.798437 999.803991)rotate(-90)scale(0.1 -0.1)">
      <use xlink:href="#DejaVuSans-47"/>
      <use x="77.490234" xlink:href="#DejaVuSans-43"/>
      <use x="147.314453" xlink:href="#DejaVuSans-61"/>
      <use x="208.59375" xlink:href="#DejaVuSans-4d"/>
      <use x="294.873047" xlink:href="#DejaVuSans-50"/>
     </g>
    </g>
   </g>
   <g id="line2d_27">
    <path clip-path="url(#paef3169401)" d="M 119.872159 725.433827 
L 121.110416 1238.656968 
L 308.087264 1238.656968 
L 309.325521 725.433827 
L 488.872825 725.433827 
L 490.111082 1238.656968 
L 496.302368 1238.656968 
L 497.540626 725.433827 
L 504.970169 725.433827 
L 506.208427 1238.656968 
L 558.215232 1238.656968 
L 559.453489 725.433827 
L 574.312576 725.433827 
L 575.550834 1238.656968 
L 579.265605 1238.656968 
L 580.503863 725.433827 
L 581.74212 725.433827 
L 582.980377 1238.656968 
L 589.171663 1238.656968 
L 590.409921 725.433827 
L 591.648178 1238.656968 
L 618.889838 1238.656968 
L 620.128095 725.433827 
L 639.940211 725.433827 
L 641.178469 1238.656968 
L 646.131498 1238.656968 
L 647.369755 725.433827 
L 747.668594 725.433827 
L 748.906851 1238.656968 
L 1641.690341 1238.656968 
L 1641.690341 1238.656968 
" style="fill:none;stroke:#008000;stroke-linecap:square;stroke-width:1.5;"/>
   </g>
   <g id="patch_8">
    <path d="M 43.78125 1264.318125 
L 43.78125 699.77267 
" style="fill:none;stroke:#000000;stroke-linecap:square;stroke-linejoin:miter;stroke-width:0.8;"/>
   </g>
   <g id="patch_9">
    <path d="M 1717.78125 1264.318125 
L 1717.78125 699.77267 
" style="fill:none;stroke:#000000;stroke-linecap:square;stroke-linejoin:miter;stroke-width:0.8;"/>
   </g>
   <g id="patch_10">
    <path d="M 43.78125 1264.318125 
L 1717.78125 1264.318125 
" style="fill:none;stroke:#000000;stroke-linecap:square;stroke-linejoin:miter;stroke-width:0.8;"/>
   </g>
   <g id="patch_11">
    <path d="M 43.78125 699.77267 
L 1717.78125 699.77267 
" style="fill:none;stroke:#000000;stroke-linecap:square;stroke-linejoin:miter;stroke-width:0.8;"/>
   </g>
   <g id="text_31">
    <!-- before binarisation -->
    <g transform="translate(824.1825 693.77267)scale(0.12 -0.12)">
     <use xlink:href="#DejaVuSans-62"/>
     <use x="63.476562" xlink:href="#DejaVuSans-65"/>
     <use x="125" xlink:href="#DejaVuSans-66"/>
     <use x="160.205078" xlink:href="#DejaVuSans-6f"/>
     <use x="221.386719" xlink:href="#DejaVuSans-72"/>
     <use x="260.25" xlink:href="#DejaVuSans-65"/>
     <use x="321.773438" xlink:href="#DejaVuSans-20"/>
     <use x="353.560547" xlink:href="#DejaVuSans-62"/>
     <use x="417.037109" xlink:href="#DejaVuSans-69"/>
     <use x="444.820312" xlink:href="#DejaVuSans-6e"/>
     <use x="508.199219" xlink:href="#DejaVuSans-61"/>
     <use x="569.478516" xlink:href="#DejaVuSans-72"/>
     <use x="610.591797" xlink:href="#DejaVuSans-69"/>
     <use x="638.375" xlink:href="#DejaVuSans-73"/>
     <use x="690.474609" xlink:href="#DejaVuSans-61"/>
     <use x="751.753906" xlink:href="#DejaVuSans-74"/>
     <use x="790.962891" xlink:href="#DejaVuSans-69"/>
     <use x="818.746094" xlink:href="#DejaVuSans-6f"/>
     <use x="879.927734" xlink:href="#DejaVuSans-6e"/>
    </g>
   </g>
  </g>
 </g>
 <defs>
  <clipPath id="p0367de1837">
   <rect height="564.545455" width="1674" x="43.78125" y="22.318125"/>
  </clipPath>
  <clipPath id="paef3169401">
   <rect height="564.545455" width="1674" x="43.78125" y="699.77267"/>
  </clipPath>
 </defs>
</svg>
