<?xml version="1.0" encoding="utf-8" standalone="no"?>
<!DOCTYPE svg PUBLIC "-//W3C//DTD SVG 1.1//EN"
  "http://www.w3.org/Graphics/SVG/1.1/DTD/svg11.dtd">
<svg height="1301.874375pt" version="1.1" viewBox="0 0 1724.98125 1301.874375" width="1724.98125pt" xmlns="http://www.w3.org/2000/svg" xmlns:xlink="http://www.w3.org/1999/xlink">
 <metadata>
  <rdf:RDF xmlns:cc="http://creativecommons.org/ns#" xmlns:dc="http://purl.org/dc/elements/1.1/" xmlns:rdf="http://www.w3.org/1999/02/22-rdf-syntax-ns#">
   <cc:Work>
    <dc:type rdf:resource="http://purl.org/dc/dcmitype/StillImage"/>
    <dc:date>2022-07-24T15:54:34.264986</dc:date>
    <dc:format>image/svg+xml</dc:format>
    <dc:creator>
     <cc:Agent>
      <dc:title>Matplotlib v3.4.2, https://matplotlib.org/</dc:title>
     </cc:Agent>
    </dc:creator>
   </cc:Work>
  </rdf:RDF>
 </metadata>
 <defs>
  <style type="text/css">*{stroke-linecap:butt;stroke-linejoin:round;}</style>
 </defs>
 <g id="figure_1">
  <g id="patch_1">
   <path d="M 0 1301.874375 
L 1724.98125 1301.874375 
L 1724.98125 0 
L 0 0 
z
" style="fill:#ffffff;"/>
  </g>
  <g id="axes_1">
   <g id="patch_2">
    <path d="M 43.78125 586.86358 
L 1717.78125 586.86358 
L 1717.78125 22.318125 
L 43.78125 22.318125 
z
" style="fill:#ffffff;"/>
   </g>
   <g id="matplotlib.axis_1">
    <g id="xtick_1">
     <g id="line2d_1">
      <defs>
       <path d="M 0 0 
L 0 3.5 
" id="m5698702ff4" style="stroke:#000000;stroke-width:0.8;"/>
      </defs>
      <g>
       <use style="stroke:#000000;stroke-width:0.8;" x="119.872159" xlink:href="#m5698702ff4" y="586.86358"/>
      </g>
     </g>
     <g id="text_1">
      <!-- 0 -->
      <g transform="translate(116.690909 601.462017)scale(0.1 -0.1)">
       <defs>
        <path d="M 2034 4250 
Q 1547 4250 1301 3770 
Q 1056 3291 1056 2328 
Q 1056 1369 1301 889 
Q 1547 409 2034 409 
Q 2525 409 2770 889 
Q 3016 1369 3016 2328 
Q 3016 3291 2770 3770 
Q 2525 4250 2034 4250 
z
M 2034 4750 
Q 2819 4750 3233 4129 
Q 3647 3509 3647 2328 
Q 3647 1150 3233 529 
Q 2819 -91 2034 -91 
Q 1250 -91 836 529 
Q 422 1150 422 2328 
Q 422 3509 836 4129 
Q 1250 4750 2034 4750 
z
" id="DejaVuSans-30" transform="scale(0.015625)"/>
       </defs>
       <use xlink:href="#DejaVuSans-30"/>
      </g>
     </g>
    </g>
    <g id="xtick_2">
     <g id="line2d_2">
      <g>
       <use style="stroke:#000000;stroke-width:0.8;" x="367.523613" xlink:href="#m5698702ff4" y="586.86358"/>
      </g>
     </g>
     <g id="text_2">
      <!-- 200 -->
      <g transform="translate(357.979863 601.462017)scale(0.1 -0.1)">
       <defs>
        <path d="M 1228 531 
L 3431 531 
L 3431 0 
L 469 0 
L 469 531 
Q 828 903 1448 1529 
Q 2069 2156 2228 2338 
Q 2531 2678 2651 2914 
Q 2772 3150 2772 3378 
Q 2772 3750 2511 3984 
Q 2250 4219 1831 4219 
Q 1534 4219 1204 4116 
Q 875 4013 500 3803 
L 500 4441 
Q 881 4594 1212 4672 
Q 1544 4750 1819 4750 
Q 2544 4750 2975 4387 
Q 3406 4025 3406 3419 
Q 3406 3131 3298 2873 
Q 3191 2616 2906 2266 
Q 2828 2175 2409 1742 
Q 1991 1309 1228 531 
z
" id="DejaVuSans-32" transform="scale(0.015625)"/>
       </defs>
       <use xlink:href="#DejaVuSans-32"/>
       <use x="63.623047" xlink:href="#DejaVuSans-30"/>
       <use x="127.246094" xlink:href="#DejaVuSans-30"/>
      </g>
     </g>
    </g>
    <g id="xtick_3">
     <g id="line2d_3">
      <g>
       <use style="stroke:#000000;stroke-width:0.8;" x="615.175066" xlink:href="#m5698702ff4" y="586.86358"/>
      </g>
     </g>
     <g id="text_3">
      <!-- 400 -->
      <g transform="translate(605.631316 601.462017)scale(0.1 -0.1)">
       <defs>
        <path d="M 2419 4116 
L 825 1625 
L 2419 1625 
L 2419 4116 
z
M 2253 4666 
L 3047 4666 
L 3047 1625 
L 3713 1625 
L 3713 1100 
L 3047 1100 
L 3047 0 
L 2419 0 
L 2419 1100 
L 313 1100 
L 313 1709 
L 2253 4666 
z
" id="DejaVuSans-34" transform="scale(0.015625)"/>
       </defs>
       <use xlink:href="#DejaVuSans-34"/>
       <use x="63.623047" xlink:href="#DejaVuSans-30"/>
       <use x="127.246094" xlink:href="#DejaVuSans-30"/>
      </g>
     </g>
    </g>
    <g id="xtick_4">
     <g id="line2d_4">
      <g>
       <use style="stroke:#000000;stroke-width:0.8;" x="862.82652" xlink:href="#m5698702ff4" y="586.86358"/>
      </g>
     </g>
     <g id="text_4">
      <!-- 600 -->
      <g transform="translate(853.28277 601.462017)scale(0.1 -0.1)">
       <defs>
        <path d="M 2113 2584 
Q 1688 2584 1439 2293 
Q 1191 2003 1191 1497 
Q 1191 994 1439 701 
Q 1688 409 2113 409 
Q 2538 409 2786 701 
Q 3034 994 3034 1497 
Q 3034 2003 2786 2293 
Q 2538 2584 2113 2584 
z
M 3366 4563 
L 3366 3988 
Q 3128 4100 2886 4159 
Q 2644 4219 2406 4219 
Q 1781 4219 1451 3797 
Q 1122 3375 1075 2522 
Q 1259 2794 1537 2939 
Q 1816 3084 2150 3084 
Q 2853 3084 3261 2657 
Q 3669 2231 3669 1497 
Q 3669 778 3244 343 
Q 2819 -91 2113 -91 
Q 1303 -91 875 529 
Q 447 1150 447 2328 
Q 447 3434 972 4092 
Q 1497 4750 2381 4750 
Q 2619 4750 2861 4703 
Q 3103 4656 3366 4563 
z
" id="DejaVuSans-36" transform="scale(0.015625)"/>
       </defs>
       <use xlink:href="#DejaVuSans-36"/>
       <use x="63.623047" xlink:href="#DejaVuSans-30"/>
       <use x="127.246094" xlink:href="#DejaVuSans-30"/>
      </g>
     </g>
    </g>
    <g id="xtick_5">
     <g id="line2d_5">
      <g>
       <use style="stroke:#000000;stroke-width:0.8;" x="1110.477973" xlink:href="#m5698702ff4" y="586.86358"/>
      </g>
     </g>
     <g id="text_5">
      <!-- 800 -->
      <g transform="translate(1100.934223 601.462017)scale(0.1 -0.1)">
       <defs>
        <path d="M 2034 2216 
Q 1584 2216 1326 1975 
Q 1069 1734 1069 1313 
Q 1069 891 1326 650 
Q 1584 409 2034 409 
Q 2484 409 2743 651 
Q 3003 894 3003 1313 
Q 3003 1734 2745 1975 
Q 2488 2216 2034 2216 
z
M 1403 2484 
Q 997 2584 770 2862 
Q 544 3141 544 3541 
Q 544 4100 942 4425 
Q 1341 4750 2034 4750 
Q 2731 4750 3128 4425 
Q 3525 4100 3525 3541 
Q 3525 3141 3298 2862 
Q 3072 2584 2669 2484 
Q 3125 2378 3379 2068 
Q 3634 1759 3634 1313 
Q 3634 634 3220 271 
Q 2806 -91 2034 -91 
Q 1263 -91 848 271 
Q 434 634 434 1313 
Q 434 1759 690 2068 
Q 947 2378 1403 2484 
z
M 1172 3481 
Q 1172 3119 1398 2916 
Q 1625 2713 2034 2713 
Q 2441 2713 2670 2916 
Q 2900 3119 2900 3481 
Q 2900 3844 2670 4047 
Q 2441 4250 2034 4250 
Q 1625 4250 1398 4047 
Q 1172 3844 1172 3481 
z
" id="DejaVuSans-38" transform="scale(0.015625)"/>
       </defs>
       <use xlink:href="#DejaVuSans-38"/>
       <use x="63.623047" xlink:href="#DejaVuSans-30"/>
       <use x="127.246094" xlink:href="#DejaVuSans-30"/>
      </g>
     </g>
    </g>
    <g id="xtick_6">
     <g id="line2d_6">
      <g>
       <use style="stroke:#000000;stroke-width:0.8;" x="1358.129427" xlink:href="#m5698702ff4" y="586.86358"/>
      </g>
     </g>
     <g id="text_6">
      <!-- 1000 -->
      <g transform="translate(1345.404427 601.462017)scale(0.1 -0.1)">
       <defs>
        <path d="M 794 531 
L 1825 531 
L 1825 4091 
L 703 3866 
L 703 4441 
L 1819 4666 
L 2450 4666 
L 2450 531 
L 3481 531 
L 3481 0 
L 794 0 
L 794 531 
z
" id="DejaVuSans-31" transform="scale(0.015625)"/>
       </defs>
       <use xlink:href="#DejaVuSans-31"/>
       <use x="63.623047" xlink:href="#DejaVuSans-30"/>
       <use x="127.246094" xlink:href="#DejaVuSans-30"/>
       <use x="190.869141" xlink:href="#DejaVuSans-30"/>
      </g>
     </g>
    </g>
    <g id="xtick_7">
     <g id="line2d_7">
      <g>
       <use style="stroke:#000000;stroke-width:0.8;" x="1605.78088" xlink:href="#m5698702ff4" y="586.86358"/>
      </g>
     </g>
     <g id="text_7">
      <!-- 1200 -->
      <g transform="translate(1593.05588 601.462017)scale(0.1 -0.1)">
       <use xlink:href="#DejaVuSans-31"/>
       <use x="63.623047" xlink:href="#DejaVuSans-32"/>
       <use x="127.246094" xlink:href="#DejaVuSans-30"/>
       <use x="190.869141" xlink:href="#DejaVuSans-30"/>
      </g>
     </g>
    </g>
    <g id="text_8">
     <!-- frame -->
     <g transform="translate(865.954687 615.140142)scale(0.1 -0.1)">
      <defs>
       <path d="M 2375 4863 
L 2375 4384 
L 1825 4384 
Q 1516 4384 1395 4259 
Q 1275 4134 1275 3809 
L 1275 3500 
L 2222 3500 
L 2222 3053 
L 1275 3053 
L 1275 0 
L 697 0 
L 697 3053 
L 147 3053 
L 147 3500 
L 697 3500 
L 697 3744 
Q 697 4328 969 4595 
Q 1241 4863 1831 4863 
L 2375 4863 
z
" id="DejaVuSans-66" transform="scale(0.015625)"/>
       <path d="M 2631 2963 
Q 2534 3019 2420 3045 
Q 2306 3072 2169 3072 
Q 1681 3072 1420 2755 
Q 1159 2438 1159 1844 
L 1159 0 
L 581 0 
L 581 3500 
L 1159 3500 
L 1159 2956 
Q 1341 3275 1631 3429 
Q 1922 3584 2338 3584 
Q 2397 3584 2469 3576 
Q 2541 3569 2628 3553 
L 2631 2963 
z
" id="DejaVuSans-72" transform="scale(0.015625)"/>
       <path d="M 2194 1759 
Q 1497 1759 1228 1600 
Q 959 1441 959 1056 
Q 959 750 1161 570 
Q 1363 391 1709 391 
Q 2188 391 2477 730 
Q 2766 1069 2766 1631 
L 2766 1759 
L 2194 1759 
z
M 3341 1997 
L 3341 0 
L 2766 0 
L 2766 531 
Q 2569 213 2275 61 
Q 1981 -91 1556 -91 
Q 1019 -91 701 211 
Q 384 513 384 1019 
Q 384 1609 779 1909 
Q 1175 2209 1959 2209 
L 2766 2209 
L 2766 2266 
Q 2766 2663 2505 2880 
Q 2244 3097 1772 3097 
Q 1472 3097 1187 3025 
Q 903 2953 641 2809 
L 641 3341 
Q 956 3463 1253 3523 
Q 1550 3584 1831 3584 
Q 2591 3584 2966 3190 
Q 3341 2797 3341 1997 
z
" id="DejaVuSans-61" transform="scale(0.015625)"/>
       <path d="M 3328 2828 
Q 3544 3216 3844 3400 
Q 4144 3584 4550 3584 
Q 5097 3584 5394 3201 
Q 5691 2819 5691 2113 
L 5691 0 
L 5113 0 
L 5113 2094 
Q 5113 2597 4934 2840 
Q 4756 3084 4391 3084 
Q 3944 3084 3684 2787 
Q 3425 2491 3425 1978 
L 3425 0 
L 2847 0 
L 2847 2094 
Q 2847 2600 2669 2842 
Q 2491 3084 2119 3084 
Q 1678 3084 1418 2786 
Q 1159 2488 1159 1978 
L 1159 0 
L 581 0 
L 581 3500 
L 1159 3500 
L 1159 2956 
Q 1356 3278 1631 3431 
Q 1906 3584 2284 3584 
Q 2666 3584 2933 3390 
Q 3200 3197 3328 2828 
z
" id="DejaVuSans-6d" transform="scale(0.015625)"/>
       <path d="M 3597 1894 
L 3597 1613 
L 953 1613 
Q 991 1019 1311 708 
Q 1631 397 2203 397 
Q 2534 397 2845 478 
Q 3156 559 3463 722 
L 3463 178 
Q 3153 47 2828 -22 
Q 2503 -91 2169 -91 
Q 1331 -91 842 396 
Q 353 884 353 1716 
Q 353 2575 817 3079 
Q 1281 3584 2069 3584 
Q 2775 3584 3186 3129 
Q 3597 2675 3597 1894 
z
M 3022 2063 
Q 3016 2534 2758 2815 
Q 2500 3097 2075 3097 
Q 1594 3097 1305 2825 
Q 1016 2553 972 2059 
L 3022 2063 
z
" id="DejaVuSans-65" transform="scale(0.015625)"/>
      </defs>
      <use xlink:href="#DejaVuSans-66"/>
      <use x="35.205078" xlink:href="#DejaVuSans-72"/>
      <use x="76.318359" xlink:href="#DejaVuSans-61"/>
      <use x="137.597656" xlink:href="#DejaVuSans-6d"/>
      <use x="235.009766" xlink:href="#DejaVuSans-65"/>
     </g>
    </g>
   </g>
   <g id="matplotlib.axis_2">
    <g id="ytick_1">
     <g id="line2d_8">
      <defs>
       <path d="M 0 0 
L -3.5 0 
" id="m4e0c64d90a" style="stroke:#000000;stroke-width:0.8;"/>
      </defs>
      <g>
       <use style="stroke:#000000;stroke-width:0.8;" x="43.78125" xlink:href="#m4e0c64d90a" y="561.202423"/>
      </g>
     </g>
     <g id="text_9">
      <!-- 0 -->
      <g transform="translate(30.41875 565.001641)scale(0.1 -0.1)">
       <use xlink:href="#DejaVuSans-30"/>
      </g>
     </g>
    </g>
    <g id="ytick_2">
     <g id="line2d_9">
      <g>
       <use style="stroke:#000000;stroke-width:0.8;" x="43.78125" xlink:href="#m4e0c64d90a" y="485.697587"/>
      </g>
     </g>
     <g id="text_10">
      <!-- 2 -->
      <g transform="translate(30.41875 489.496806)scale(0.1 -0.1)">
       <use xlink:href="#DejaVuSans-32"/>
      </g>
     </g>
    </g>
    <g id="ytick_3">
     <g id="line2d_10">
      <g>
       <use style="stroke:#000000;stroke-width:0.8;" x="43.78125" xlink:href="#m4e0c64d90a" y="410.192752"/>
      </g>
     </g>
     <g id="text_11">
      <!-- 4 -->
      <g transform="translate(30.41875 413.991971)scale(0.1 -0.1)">
       <use xlink:href="#DejaVuSans-34"/>
      </g>
     </g>
    </g>
    <g id="ytick_4">
     <g id="line2d_11">
      <g>
       <use style="stroke:#000000;stroke-width:0.8;" x="43.78125" xlink:href="#m4e0c64d90a" y="334.687917"/>
      </g>
     </g>
     <g id="text_12">
      <!-- 6 -->
      <g transform="translate(30.41875 338.487135)scale(0.1 -0.1)">
       <use xlink:href="#DejaVuSans-36"/>
      </g>
     </g>
    </g>
    <g id="ytick_5">
     <g id="line2d_12">
      <g>
       <use style="stroke:#000000;stroke-width:0.8;" x="43.78125" xlink:href="#m4e0c64d90a" y="259.183081"/>
      </g>
     </g>
     <g id="text_13">
      <!-- 8 -->
      <g transform="translate(30.41875 262.9823)scale(0.1 -0.1)">
       <use xlink:href="#DejaVuSans-38"/>
      </g>
     </g>
    </g>
    <g id="ytick_6">
     <g id="line2d_13">
      <g>
       <use style="stroke:#000000;stroke-width:0.8;" x="43.78125" xlink:href="#m4e0c64d90a" y="183.678246"/>
      </g>
     </g>
     <g id="text_14">
      <!-- 10 -->
      <g transform="translate(24.05625 187.477465)scale(0.1 -0.1)">
       <use xlink:href="#DejaVuSans-31"/>
       <use x="63.623047" xlink:href="#DejaVuSans-30"/>
      </g>
     </g>
    </g>
    <g id="ytick_7">
     <g id="line2d_14">
      <g>
       <use style="stroke:#000000;stroke-width:0.8;" x="43.78125" xlink:href="#m4e0c64d90a" y="108.173411"/>
      </g>
     </g>
     <g id="text_15">
      <!-- 12 -->
      <g transform="translate(24.05625 111.972629)scale(0.1 -0.1)">
       <use xlink:href="#DejaVuSans-31"/>
       <use x="63.623047" xlink:href="#DejaVuSans-32"/>
      </g>
     </g>
    </g>
    <g id="ytick_8">
     <g id="line2d_15">
      <g>
       <use style="stroke:#000000;stroke-width:0.8;" x="43.78125" xlink:href="#m4e0c64d90a" y="32.668575"/>
      </g>
     </g>
     <g id="text_16">
      <!-- 14 -->
      <g transform="translate(24.05625 36.467794)scale(0.1 -0.1)">
       <use xlink:href="#DejaVuSans-31"/>
       <use x="63.623047" xlink:href="#DejaVuSans-34"/>
      </g>
     </g>
    </g>
    <g id="text_17">
     <!-- GCaMP -->
     <g transform="translate(17.976562 322.349446)rotate(-90)scale(0.1 -0.1)">
      <defs>
       <path d="M 3809 666 
L 3809 1919 
L 2778 1919 
L 2778 2438 
L 4434 2438 
L 4434 434 
Q 4069 175 3628 42 
Q 3188 -91 2688 -91 
Q 1594 -91 976 548 
Q 359 1188 359 2328 
Q 359 3472 976 4111 
Q 1594 4750 2688 4750 
Q 3144 4750 3555 4637 
Q 3966 4525 4313 4306 
L 4313 3634 
Q 3963 3931 3569 4081 
Q 3175 4231 2741 4231 
Q 1884 4231 1454 3753 
Q 1025 3275 1025 2328 
Q 1025 1384 1454 906 
Q 1884 428 2741 428 
Q 3075 428 3337 486 
Q 3600 544 3809 666 
z
" id="DejaVuSans-47" transform="scale(0.015625)"/>
       <path d="M 4122 4306 
L 4122 3641 
Q 3803 3938 3442 4084 
Q 3081 4231 2675 4231 
Q 1875 4231 1450 3742 
Q 1025 3253 1025 2328 
Q 1025 1406 1450 917 
Q 1875 428 2675 428 
Q 3081 428 3442 575 
Q 3803 722 4122 1019 
L 4122 359 
Q 3791 134 3420 21 
Q 3050 -91 2638 -91 
Q 1578 -91 968 557 
Q 359 1206 359 2328 
Q 359 3453 968 4101 
Q 1578 4750 2638 4750 
Q 3056 4750 3426 4639 
Q 3797 4528 4122 4306 
z
" id="DejaVuSans-43" transform="scale(0.015625)"/>
       <path d="M 628 4666 
L 1569 4666 
L 2759 1491 
L 3956 4666 
L 4897 4666 
L 4897 0 
L 4281 0 
L 4281 4097 
L 3078 897 
L 2444 897 
L 1241 4097 
L 1241 0 
L 628 0 
L 628 4666 
z
" id="DejaVuSans-4d" transform="scale(0.015625)"/>
       <path d="M 1259 4147 
L 1259 2394 
L 2053 2394 
Q 2494 2394 2734 2622 
Q 2975 2850 2975 3272 
Q 2975 3691 2734 3919 
Q 2494 4147 2053 4147 
L 1259 4147 
z
M 628 4666 
L 2053 4666 
Q 2838 4666 3239 4311 
Q 3641 3956 3641 3272 
Q 3641 2581 3239 2228 
Q 2838 1875 2053 1875 
L 1259 1875 
L 1259 0 
L 628 0 
L 628 4666 
z
" id="DejaVuSans-50" transform="scale(0.015625)"/>
      </defs>
      <use xlink:href="#DejaVuSans-47"/>
      <use x="77.490234" xlink:href="#DejaVuSans-43"/>
      <use x="147.314453" xlink:href="#DejaVuSans-61"/>
      <use x="208.59375" xlink:href="#DejaVuSans-4d"/>
      <use x="294.873047" xlink:href="#DejaVuSans-50"/>
     </g>
    </g>
   </g>
   <g id="line2d_16">
    <path clip-path="url(#p5134ca6de8)" d="M 119.872159 511.333259 
L 122.348674 510.223779 
L 123.586931 509.562228 
L 124.825188 508.717537 
L 128.53996 505.744607 
L 129.778217 505.138813 
L 133.492989 504.252864 
L 138.446018 502.044415 
L 139.684275 501.898126 
L 143.399047 502.199971 
L 144.637304 501.905147 
L 147.113819 500.907294 
L 148.352076 500.796715 
L 149.590334 501.171507 
L 152.066848 502.645907 
L 154.543363 504.264185 
L 155.78162 505.12764 
L 157.019877 505.843695 
L 158.258134 506.255786 
L 159.496392 506.283174 
L 161.972906 505.692711 
L 163.211163 505.630098 
L 164.449421 505.86107 
L 165.687678 506.324457 
L 168.164193 507.78535 
L 169.40245 508.481922 
L 170.640707 508.873682 
L 171.878964 508.899494 
L 175.593736 508.281421 
L 176.831993 508.435232 
L 178.070251 508.8876 
L 181.785022 511.083392 
L 183.02328 511.308404 
L 184.261537 511.153012 
L 185.499794 510.729873 
L 189.214566 508.99945 
L 190.452823 508.875593 
L 191.691081 509.196726 
L 194.167595 510.378737 
L 195.405852 510.837932 
L 196.64411 511.151254 
L 197.882367 511.265152 
L 199.120624 511.103196 
L 200.358881 510.674056 
L 204.073653 508.907236 
L 205.311911 508.498532 
L 206.550168 508.238108 
L 207.788425 508.137014 
L 209.026682 508.280942 
L 210.26494 508.801164 
L 212.741454 510.558502 
L 213.979711 511.063836 
L 215.217969 510.938082 
L 216.456226 510.249069 
L 218.93274 508.410373 
L 220.170998 507.702713 
L 221.409255 507.172545 
L 222.647512 506.807313 
L 223.88577 506.671886 
L 227.600541 507.055937 
L 228.838799 506.879295 
L 230.077056 506.459929 
L 232.55357 505.400497 
L 233.791828 505.129239 
L 235.030085 505.160017 
L 238.744857 505.852476 
L 239.983114 506.212486 
L 242.459629 507.255106 
L 244.936143 507.878656 
L 247.412658 508.365618 
L 248.650915 508.491735 
L 252.365687 508.386723 
L 256.080459 508.253513 
L 257.318716 508.031455 
L 261.033488 506.594142 
L 262.271745 506.524628 
L 265.986517 507.038934 
L 267.224774 506.888619 
L 268.463031 506.430369 
L 269.701288 505.793919 
L 270.939546 505.299989 
L 272.177803 505.161319 
L 273.41606 505.328997 
L 278.369089 506.493627 
L 279.607347 506.405456 
L 280.845604 505.96468 
L 282.083861 505.35348 
L 283.322118 504.975061 
L 284.560376 505.19026 
L 288.275147 507.427745 
L 289.513405 507.454202 
L 290.751662 507.095746 
L 293.228177 506.264114 
L 300.65772 504.827211 
L 301.895977 504.875333 
L 305.610749 505.920143 
L 306.849006 505.946328 
L 308.087264 505.668172 
L 309.325521 505.143537 
L 311.802036 503.851513 
L 313.040293 503.477738 
L 314.27855 503.500815 
L 317.993322 504.476807 
L 319.231579 504.2718 
L 320.469836 503.67476 
L 321.708094 502.934049 
L 322.946351 502.414642 
L 324.184608 502.40516 
L 325.422866 502.966154 
L 326.661123 503.857168 
L 327.89938 504.589094 
L 329.137637 504.736609 
L 330.375895 504.29491 
L 331.614152 503.63722 
L 332.852409 503.167434 
L 334.090666 503.123063 
L 335.328924 503.503008 
L 336.567181 504.014719 
L 337.805438 504.316923 
L 340.281953 504.512011 
L 345.234982 505.392938 
L 347.711496 505.210824 
L 350.188011 504.928603 
L 352.664525 504.86422 
L 355.14104 504.9471 
L 356.379297 504.871108 
L 357.617554 504.564074 
L 360.094069 503.480437 
L 362.570584 502.245708 
L 363.808841 501.825767 
L 365.047098 501.983889 
L 366.285355 502.854109 
L 367.523613 504.101595 
L 368.76187 505.13445 
L 370.000127 505.541456 
L 371.238384 505.353269 
L 373.714899 504.633222 
L 376.191413 504.477997 
L 378.667928 504.516076 
L 379.906185 504.401956 
L 382.3827 503.731777 
L 386.097472 502.295655 
L 387.335729 502.233602 
L 388.573986 502.677963 
L 391.050501 503.896116 
L 393.527015 504.781071 
L 394.765272 505.032511 
L 397.241787 505.149995 
L 399.718302 505.023971 
L 400.956559 504.684807 
L 402.194816 504.042391 
L 403.433073 503.118041 
L 407.147845 499.948611 
L 408.386102 499.323571 
L 409.62436 499.395023 
L 410.862617 500.201212 
L 413.339132 502.460657 
L 414.577389 503.162035 
L 415.815646 503.459885 
L 417.053903 503.372051 
L 418.292161 502.856118 
L 419.530418 501.938991 
L 420.768675 500.860661 
L 422.006932 499.938522 
L 423.24519 499.356634 
L 424.483447 499.194721 
L 425.721704 499.536043 
L 426.959961 500.467211 
L 428.198219 501.949036 
L 429.436476 503.610487 
L 430.674733 504.79359 
L 431.912991 504.990999 
L 433.151248 504.220782 
L 434.389505 502.998023 
L 435.627762 501.991368 
L 436.86602 501.555832 
L 439.342534 501.48354 
L 440.580791 501.061309 
L 444.295563 498.61894 
L 445.53382 498.256883 
L 446.772078 498.190075 
L 448.010335 498.486933 
L 449.248592 499.194684 
L 451.725107 501.008481 
L 452.963364 501.559169 
L 454.201621 501.756648 
L 456.678136 501.597045 
L 457.916393 501.275122 
L 459.15465 500.601073 
L 461.631165 498.689781 
L 462.869422 498.154133 
L 464.107679 498.044543 
L 466.584194 498.204808 
L 467.822451 498.011789 
L 469.060709 497.492305 
L 470.298966 496.647904 
L 472.77548 494.632386 
L 474.013738 493.939256 
L 475.251995 493.786244 
L 476.490252 494.381482 
L 477.728509 495.600174 
L 480.205024 498.413395 
L 481.443281 499.521895 
L 482.681538 500.30247 
L 483.919796 500.69643 
L 485.158053 500.588658 
L 486.39631 499.916848 
L 490.111082 496.755704 
L 491.349339 496.408399 
L 492.587597 496.662435 
L 493.825854 497.428865 
L 496.302368 499.530601 
L 497.540626 500.301353 
L 498.778883 500.5255 
L 500.01714 500.056233 
L 502.493655 498.029915 
L 503.731912 497.404489 
L 504.970169 497.424289 
L 506.208427 497.83167 
L 507.446684 498.050912 
L 508.684941 497.732136 
L 509.923198 497.090626 
L 511.161456 496.605664 
L 513.63797 496.056002 
L 514.876227 495.286069 
L 516.114485 494.200813 
L 517.352742 493.329235 
L 518.590999 493.292882 
L 519.829257 494.332699 
L 522.305771 497.504146 
L 523.544028 498.207492 
L 524.782286 498.048678 
L 527.2588 496.890897 
L 530.973572 495.756211 
L 532.211829 495.594832 
L 535.926601 495.852303 
L 538.403116 495.218054 
L 540.87963 494.43374 
L 542.117887 493.727933 
L 547.070916 490.208013 
L 549.547431 487.876498 
L 550.785688 487.253125 
L 552.023945 487.466653 
L 554.50046 489.177175 
L 555.738717 489.731657 
L 556.976975 489.78246 
L 558.215232 489.324131 
L 560.691746 487.71012 
L 561.930004 487.293779 
L 563.168261 487.510299 
L 566.883033 489.692723 
L 570.597804 491.79937 
L 571.836062 491.865802 
L 573.074319 491.236065 
L 575.550834 489.231935 
L 576.789091 488.651643 
L 578.027348 488.450491 
L 579.265605 488.561031 
L 580.503863 489.009012 
L 581.74212 489.831155 
L 582.980377 490.824842 
L 584.218634 491.470954 
L 585.456892 491.286431 
L 586.695149 490.242109 
L 589.171663 487.39593 
L 590.409921 486.752383 
L 591.648178 487.113338 
L 592.886435 488.302089 
L 594.124693 489.814649 
L 595.36295 491.135022 
L 596.601207 491.936521 
L 597.839464 492.089386 
L 599.077722 491.596006 
L 601.554236 489.830181 
L 602.792493 489.53862 
L 604.030751 489.915267 
L 606.507265 491.29314 
L 607.745523 491.618207 
L 612.698552 492.029382 
L 613.936809 491.674275 
L 615.175066 491.050265 
L 617.651581 489.603649 
L 618.889838 489.253064 
L 620.128095 489.094628 
L 621.366352 488.670776 
L 622.60461 487.787198 
L 625.081124 485.73934 
L 626.319382 485.137759 
L 628.795896 484.490648 
L 631.272411 483.66132 
L 632.510668 483.628632 
L 634.987182 484.232652 
L 636.22544 484.35458 
L 637.463697 484.350564 
L 638.701954 484.544514 
L 641.178469 485.587209 
L 642.416726 485.536051 
L 643.654983 484.827479 
L 644.893241 483.902776 
L 646.131498 483.268562 
L 647.369755 483.114878 
L 648.608012 483.215089 
L 649.84627 483.120794 
L 652.322784 482.24905 
L 654.799299 482.003742 
L 656.037556 481.553046 
L 657.275813 480.449164 
L 660.990585 475.717186 
L 662.228842 474.796004 
L 663.4671 474.338185 
L 667.181871 473.948072 
L 668.420129 473.40962 
L 669.658386 472.729408 
L 670.896643 472.253477 
L 673.373158 471.889193 
L 674.611415 471.558284 
L 675.849672 471.347037 
L 677.087929 471.431391 
L 678.326187 471.732017 
L 679.564444 472.221354 
L 682.040959 473.579327 
L 683.279216 474.075783 
L 684.517473 474.289526 
L 686.993988 474.325905 
L 688.232245 474.439163 
L 689.470502 474.351374 
L 690.708759 473.849028 
L 691.947017 473.165899 
L 693.185274 472.748275 
L 694.423531 472.817547 
L 699.37656 474.465295 
L 700.614818 474.837646 
L 704.329589 476.613888 
L 705.567847 476.767646 
L 706.806104 476.595282 
L 708.044361 476.021693 
L 710.520876 474.201826 
L 711.759133 473.718497 
L 715.473905 473.313894 
L 716.712162 473.354631 
L 719.188677 473.734413 
L 720.426934 473.318566 
L 721.665191 472.05648 
L 722.903448 470.008956 
L 724.141706 467.448176 
L 726.61822 461.726237 
L 727.856477 459.236694 
L 729.094735 457.364406 
L 734.047764 451.415495 
L 736.524278 449.197958 
L 737.762536 448.345215 
L 739.000793 447.958412 
L 740.23905 448.460752 
L 741.477307 450.015877 
L 745.192079 456.596319 
L 746.430336 458.066809 
L 747.668594 458.97784 
L 748.906851 459.268435 
L 750.145108 459.022036 
L 751.383366 458.620677 
L 752.621623 458.498925 
L 753.85988 458.855223 
L 755.098137 459.636147 
L 757.574652 461.810824 
L 760.051166 464.291847 
L 761.289424 465.281167 
L 762.527681 465.782429 
L 763.765938 465.825366 
L 765.004195 465.579398 
L 766.242453 465.076387 
L 767.48071 464.193123 
L 771.195482 460.632163 
L 772.433739 459.94044 
L 773.671996 459.576198 
L 774.910254 459.480124 
L 776.148511 459.686732 
L 777.386768 460.212932 
L 779.863283 461.685339 
L 781.10154 462.262727 
L 782.339797 462.558251 
L 783.578054 462.625716 
L 786.054569 462.399054 
L 787.292826 462.262698 
L 788.531084 462.390996 
L 789.769341 462.951101 
L 792.245855 464.701046 
L 794.72237 466.074054 
L 795.960627 466.622468 
L 797.198884 466.828645 
L 798.437142 466.442962 
L 799.675399 465.424209 
L 800.913656 463.879361 
L 802.151914 462.110604 
L 803.390171 460.740911 
L 804.628428 460.482073 
L 805.866685 461.735535 
L 807.104943 464.294931 
L 808.3432 467.296597 
L 809.581457 469.759171 
L 810.819714 471.303869 
L 812.057972 472.116791 
L 813.296229 472.372361 
L 814.534486 472.040076 
L 815.772743 471.172083 
L 818.249258 469.068948 
L 819.487515 468.400105 
L 820.725773 468.195035 
L 821.96403 468.24963 
L 823.202287 467.95499 
L 824.440544 466.888759 
L 825.678802 465.322414 
L 826.917059 463.971918 
L 828.155316 463.43732 
L 829.393573 463.880588 
L 831.870088 465.95937 
L 833.108345 466.464946 
L 834.346602 466.675288 
L 835.58486 467.060582 
L 838.061374 468.304138 
L 845.490918 470.508265 
L 846.729175 470.420327 
L 849.20569 469.681356 
L 851.682204 469.315204 
L 852.920461 468.831847 
L 854.158719 467.972941 
L 856.635233 465.909562 
L 857.873491 465.227861 
L 859.111748 465.135752 
L 860.350005 465.895526 
L 861.588262 467.68055 
L 864.064777 472.924765 
L 865.303034 474.597658 
L 866.541291 474.807346 
L 867.779549 473.694695 
L 871.49432 467.938771 
L 872.732578 466.721472 
L 875.209092 465.138602 
L 877.685607 463.905244 
L 880.162121 462.706049 
L 881.400379 461.809268 
L 885.11515 458.497917 
L 886.353408 457.905379 
L 887.591665 458.076669 
L 888.829922 459.07846 
L 891.306437 462.158138 
L 892.544694 463.137106 
L 893.782951 463.491917 
L 896.259466 463.688563 
L 897.497723 464.151662 
L 898.73598 464.925142 
L 901.212495 466.98884 
L 902.450752 468.094555 
L 903.689009 468.960751 
L 904.927267 469.394321 
L 906.165524 469.382709 
L 907.403781 468.969541 
L 908.642039 468.125079 
L 909.880296 466.99399 
L 911.118553 466.173455 
L 912.35681 466.361574 
L 913.595068 467.738103 
L 914.833325 469.746311 
L 916.071582 471.342386 
L 917.309839 471.679797 
L 918.548097 470.714888 
L 921.024611 467.519655 
L 922.262868 466.737545 
L 924.739383 466.634621 
L 925.97764 465.862084 
L 927.215898 464.565617 
L 928.454155 463.563629 
L 929.692412 463.295247 
L 932.168927 463.604769 
L 934.645441 463.783664 
L 935.883698 464.176351 
L 937.121956 464.704305 
L 938.360213 464.899881 
L 939.59847 464.328571 
L 940.836727 462.958417 
L 942.074985 461.233214 
L 943.313242 459.768711 
L 944.551499 458.948518 
L 945.789757 458.913501 
L 947.028014 459.6299 
L 948.266271 460.650658 
L 949.504528 461.199092 
L 950.742786 460.796399 
L 951.981043 459.556559 
L 954.457557 456.419865 
L 955.695815 455.533206 
L 956.934072 455.544789 
L 958.172329 456.325291 
L 959.410586 457.314407 
L 960.648844 457.906689 
L 961.887101 457.749076 
L 963.125358 456.732072 
L 964.363616 455.034275 
L 966.84013 450.790667 
L 968.078387 448.074253 
L 969.316645 444.533101 
L 970.554902 440.100426 
L 973.031416 430.166941 
L 974.269674 425.77178 
L 975.507931 421.998563 
L 976.746188 418.843698 
L 977.984446 416.361087 
L 979.222703 414.477108 
L 980.46096 413.068901 
L 981.699217 412.087247 
L 984.175732 410.78172 
L 985.413989 409.91033 
L 986.652246 408.73231 
L 987.890504 407.791709 
L 989.128761 407.954154 
L 990.367018 409.498019 
L 994.08179 416.454006 
L 995.320047 418.218983 
L 996.558305 419.745214 
L 997.796562 420.945816 
L 999.034819 421.307797 
L 1000.273076 420.227459 
L 1001.511334 417.571988 
L 1003.987848 410.597667 
L 1005.226105 408.463172 
L 1006.464363 407.721574 
L 1008.940877 407.867947 
L 1010.179134 407.60756 
L 1013.893906 405.435742 
L 1015.132164 405.023782 
L 1016.370421 404.359938 
L 1017.608678 403.08858 
L 1020.085193 399.454321 
L 1021.32345 398.040131 
L 1022.561707 397.309549 
L 1023.799964 397.25546 
L 1025.038222 397.678686 
L 1026.276479 398.370967 
L 1027.514736 399.273987 
L 1028.752993 400.336629 
L 1029.991251 401.187772 
L 1031.229508 401.238822 
L 1032.467765 400.279067 
L 1033.706023 398.592598 
L 1034.94428 396.173153 
L 1036.182537 392.384176 
L 1037.420794 386.715382 
L 1041.135566 364.973704 
L 1042.373823 359.777149 
L 1043.612081 355.877101 
L 1044.850338 352.994479 
L 1046.088595 351.394979 
L 1047.326852 351.323569 
L 1048.56511 352.565039 
L 1049.803367 354.921454 
L 1051.041624 358.429626 
L 1053.518139 366.766998 
L 1054.756396 369.889131 
L 1055.994653 561.202423 
L 1109.239716 561.202423 
L 1110.477973 404.666131 
L 1111.71623 415.484455 
L 1112.954488 423.933936 
L 1114.192745 429.776414 
L 1115.431002 433.205721 
L 1116.669259 434.350025 
L 1117.907517 433.649893 
L 1119.145774 431.999965 
L 1122.860546 426.293713 
L 1124.098803 424.391924 
L 1125.33706 423.058104 
L 1126.575318 422.457519 
L 1127.813575 422.454531 
L 1129.051832 422.960968 
L 1130.290089 424.0175 
L 1131.528347 425.671393 
L 1134.004861 429.758637 
L 1135.243118 431.129349 
L 1136.481376 431.509866 
L 1137.719633 431.010434 
L 1138.95789 430.019307 
L 1141.434405 427.783686 
L 1142.672662 427.217445 
L 1143.910919 427.273789 
L 1145.149177 427.798559 
L 1146.387434 428.68467 
L 1147.625691 429.74422 
L 1148.863948 430.600005 
L 1151.340463 431.795977 
L 1153.816977 433.559367 
L 1155.055235 433.831993 
L 1156.293492 433.409666 
L 1160.008264 431.130232 
L 1161.246521 430.645561 
L 1163.723036 430.252332 
L 1164.961293 429.575809 
L 1166.19955 428.038551 
L 1167.437807 425.675062 
L 1168.676065 422.659127 
L 1171.152579 416.083256 
L 1172.390837 413.924111 
L 1173.629094 413.020247 
L 1174.867351 413.162178 
L 1176.105608 414.125414 
L 1178.582123 417.220167 
L 1179.82038 418.236726 
L 1181.058637 418.35676 
L 1183.535152 417.441296 
L 1186.011666 417.033876 
L 1187.249924 416.367361 
L 1188.488181 415.532822 
L 1189.726438 415.113486 
L 1190.964696 415.457798 
L 1193.44121 417.103144 
L 1194.679467 417.127089 
L 1195.917725 416.194169 
L 1197.155982 414.637051 
L 1198.394239 561.202423 
L 1480.716896 561.202423 
L 1481.955153 381.880805 
L 1483.193411 370.850654 
L 1484.431668 362.144824 
L 1485.669925 356.374519 
L 1486.908182 352.58937 
L 1488.14644 349.330735 
L 1489.384697 345.664159 
L 1491.861212 337.264899 
L 1493.099469 334.266028 
L 1494.337726 333.022745 
L 1495.575983 333.210113 
L 1496.814241 334.589529 
L 1498.052498 337.279756 
L 1501.76727 347.686237 
L 1504.243784 354.427283 
L 1505.482041 357.362658 
L 1506.720299 359.124696 
L 1507.958556 359.499739 
L 1509.196813 359.002194 
L 1511.673328 357.459299 
L 1512.911585 356.120794 
L 1514.149842 353.948268 
L 1515.3881 350.788497 
L 1516.626357 346.431826 
L 1517.864614 340.848546 
L 1520.341129 328.146778 
L 1521.579386 322.602145 
L 1522.817643 318.52224 
L 1524.0559 316.211099 
L 1525.294158 315.636999 
L 1526.532415 316.560674 
L 1527.770672 318.332889 
L 1529.00893 319.883434 
L 1530.247187 320.485555 
L 1531.485444 320.21554 
L 1532.723701 319.354509 
L 1535.200216 316.70427 
L 1536.438473 315.161605 
L 1537.67673 313.049548 
L 1538.914988 310.097898 
L 1540.153245 305.981195 
L 1541.391502 300.213444 
L 1545.106274 278.927775 
L 1547.582789 267.564524 
L 1548.821046 260.767205 
L 1551.29756 245.50668 
L 1552.535818 240.242065 
L 1553.774075 237.888992 
L 1555.012332 237.716967 
L 1556.250589 238.75197 
L 1557.488847 240.558121 
L 1558.727104 243.106015 
L 1562.441876 252.750228 
L 1563.680133 253.836447 
L 1564.91839 252.847376 
L 1566.156648 250.138202 
L 1568.633162 242.738504 
L 1569.871419 239.669292 
L 1571.109677 237.5131 
L 1572.347934 236.014059 
L 1573.586191 235.157383 
L 1574.824448 235.014012 
L 1576.062706 234.616174 
L 1577.300963 232.319567 
L 1578.53922 227.806004 
L 1579.777478 222.634385 
L 1581.015735 218.721336 
L 1582.253992 217.334745 
L 1583.492249 219.014701 
L 1584.730507 223.367261 
L 1585.968764 228.884684 
L 1587.207021 233.174416 
L 1588.445278 234.061025 
L 1589.683536 230.808115 
L 1590.921793 224.172779 
L 1592.16005 216.238111 
L 1593.398307 209.771687 
L 1594.636565 206.038253 
L 1595.874822 203.819802 
L 1597.113079 201.078327 
L 1598.351337 196.656885 
L 1599.589594 190.629813 
L 1600.827851 183.568359 
L 1602.066108 175.544295 
L 1603.304366 166.15647 
L 1605.78088 145.085923 
L 1607.019137 136.813964 
L 1608.257395 130.98686 
L 1609.495652 125.885436 
L 1610.733909 119.981832 
L 1614.448681 99.290914 
L 1615.686938 93.431375 
L 1616.925196 88.399062 
L 1618.163453 84.077159 
L 1619.40171 80.924994 
L 1620.639967 79.509375 
L 1621.878225 78.915072 
L 1623.116482 77.025665 
L 1624.354739 72.807225 
L 1625.592996 67.372598 
L 1626.831254 62.927085 
L 1628.069511 61.076495 
L 1629.307768 61.575304 
L 1630.546026 62.434311 
L 1631.784283 61.759582 
L 1633.02254 59.46717 
L 1635.499055 54.204964 
L 1636.737312 52.049352 
L 1637.975569 50.207486 
L 1639.213826 48.804511 
L 1640.452084 48.083388 
L 1641.690341 47.979282 
L 1641.690341 47.979282 
" style="fill:none;stroke:#008000;stroke-linecap:square;stroke-width:1.5;"/>
   </g>
   <g id="patch_3">
    <path d="M 43.78125 586.86358 
L 43.78125 22.318125 
" style="fill:none;stroke:#000000;stroke-linecap:square;stroke-linejoin:miter;stroke-width:0.8;"/>
   </g>
   <g id="patch_4">
    <path d="M 1717.78125 586.86358 
L 1717.78125 22.318125 
" style="fill:none;stroke:#000000;stroke-linecap:square;stroke-linejoin:miter;stroke-width:0.8;"/>
   </g>
   <g id="patch_5">
    <path d="M 43.78125 586.86358 
L 1717.78125 586.86358 
" style="fill:none;stroke:#000000;stroke-linecap:square;stroke-linejoin:miter;stroke-width:0.8;"/>
   </g>
   <g id="patch_6">
    <path d="M 43.78125 22.318125 
L 1717.78125 22.318125 
" style="fill:none;stroke:#000000;stroke-linecap:square;stroke-linejoin:miter;stroke-width:0.8;"/>
   </g>
   <g id="text_18">
    <!-- before binarisation -->
    <g transform="translate(824.1825 16.318125)scale(0.12 -0.12)">
     <defs>
      <path d="M 3116 1747 
Q 3116 2381 2855 2742 
Q 2594 3103 2138 3103 
Q 1681 3103 1420 2742 
Q 1159 2381 1159 1747 
Q 1159 1113 1420 752 
Q 1681 391 2138 391 
Q 2594 391 2855 752 
Q 3116 1113 3116 1747 
z
M 1159 2969 
Q 1341 3281 1617 3432 
Q 1894 3584 2278 3584 
Q 2916 3584 3314 3078 
Q 3713 2572 3713 1747 
Q 3713 922 3314 415 
Q 2916 -91 2278 -91 
Q 1894 -91 1617 61 
Q 1341 213 1159 525 
L 1159 0 
L 581 0 
L 581 4863 
L 1159 4863 
L 1159 2969 
z
" id="DejaVuSans-62" transform="scale(0.015625)"/>
      <path d="M 1959 3097 
Q 1497 3097 1228 2736 
Q 959 2375 959 1747 
Q 959 1119 1226 758 
Q 1494 397 1959 397 
Q 2419 397 2687 759 
Q 2956 1122 2956 1747 
Q 2956 2369 2687 2733 
Q 2419 3097 1959 3097 
z
M 1959 3584 
Q 2709 3584 3137 3096 
Q 3566 2609 3566 1747 
Q 3566 888 3137 398 
Q 2709 -91 1959 -91 
Q 1206 -91 779 398 
Q 353 888 353 1747 
Q 353 2609 779 3096 
Q 1206 3584 1959 3584 
z
" id="DejaVuSans-6f" transform="scale(0.015625)"/>
      <path id="DejaVuSans-20" transform="scale(0.015625)"/>
      <path d="M 603 3500 
L 1178 3500 
L 1178 0 
L 603 0 
L 603 3500 
z
M 603 4863 
L 1178 4863 
L 1178 4134 
L 603 4134 
L 603 4863 
z
" id="DejaVuSans-69" transform="scale(0.015625)"/>
      <path d="M 3513 2113 
L 3513 0 
L 2938 0 
L 2938 2094 
Q 2938 2591 2744 2837 
Q 2550 3084 2163 3084 
Q 1697 3084 1428 2787 
Q 1159 2491 1159 1978 
L 1159 0 
L 581 0 
L 581 3500 
L 1159 3500 
L 1159 2956 
Q 1366 3272 1645 3428 
Q 1925 3584 2291 3584 
Q 2894 3584 3203 3211 
Q 3513 2838 3513 2113 
z
" id="DejaVuSans-6e" transform="scale(0.015625)"/>
      <path d="M 2834 3397 
L 2834 2853 
Q 2591 2978 2328 3040 
Q 2066 3103 1784 3103 
Q 1356 3103 1142 2972 
Q 928 2841 928 2578 
Q 928 2378 1081 2264 
Q 1234 2150 1697 2047 
L 1894 2003 
Q 2506 1872 2764 1633 
Q 3022 1394 3022 966 
Q 3022 478 2636 193 
Q 2250 -91 1575 -91 
Q 1294 -91 989 -36 
Q 684 19 347 128 
L 347 722 
Q 666 556 975 473 
Q 1284 391 1588 391 
Q 1994 391 2212 530 
Q 2431 669 2431 922 
Q 2431 1156 2273 1281 
Q 2116 1406 1581 1522 
L 1381 1569 
Q 847 1681 609 1914 
Q 372 2147 372 2553 
Q 372 3047 722 3315 
Q 1072 3584 1716 3584 
Q 2034 3584 2315 3537 
Q 2597 3491 2834 3397 
z
" id="DejaVuSans-73" transform="scale(0.015625)"/>
      <path d="M 1172 4494 
L 1172 3500 
L 2356 3500 
L 2356 3053 
L 1172 3053 
L 1172 1153 
Q 1172 725 1289 603 
Q 1406 481 1766 481 
L 2356 481 
L 2356 0 
L 1766 0 
Q 1100 0 847 248 
Q 594 497 594 1153 
L 594 3053 
L 172 3053 
L 172 3500 
L 594 3500 
L 594 4494 
L 1172 4494 
z
" id="DejaVuSans-74" transform="scale(0.015625)"/>
     </defs>
     <use xlink:href="#DejaVuSans-62"/>
     <use x="63.476562" xlink:href="#DejaVuSans-65"/>
     <use x="125" xlink:href="#DejaVuSans-66"/>
     <use x="160.205078" xlink:href="#DejaVuSans-6f"/>
     <use x="221.386719" xlink:href="#DejaVuSans-72"/>
     <use x="260.25" xlink:href="#DejaVuSans-65"/>
     <use x="321.773438" xlink:href="#DejaVuSans-20"/>
     <use x="353.560547" xlink:href="#DejaVuSans-62"/>
     <use x="417.037109" xlink:href="#DejaVuSans-69"/>
     <use x="444.820312" xlink:href="#DejaVuSans-6e"/>
     <use x="508.199219" xlink:href="#DejaVuSans-61"/>
     <use x="569.478516" xlink:href="#DejaVuSans-72"/>
     <use x="610.591797" xlink:href="#DejaVuSans-69"/>
     <use x="638.375" xlink:href="#DejaVuSans-73"/>
     <use x="690.474609" xlink:href="#DejaVuSans-61"/>
     <use x="751.753906" xlink:href="#DejaVuSans-74"/>
     <use x="790.962891" xlink:href="#DejaVuSans-69"/>
     <use x="818.746094" xlink:href="#DejaVuSans-6f"/>
     <use x="879.927734" xlink:href="#DejaVuSans-6e"/>
    </g>
   </g>
  </g>
  <g id="axes_2">
   <g id="patch_7">
    <path d="M 43.78125 1264.318125 
L 1717.78125 1264.318125 
L 1717.78125 699.77267 
L 43.78125 699.77267 
z
" style="fill:#ffffff;"/>
   </g>
   <g id="matplotlib.axis_3">
    <g id="xtick_8">
     <g id="line2d_17">
      <g>
       <use style="stroke:#000000;stroke-width:0.8;" x="119.872159" xlink:href="#m5698702ff4" y="1264.318125"/>
      </g>
     </g>
     <g id="text_19">
      <!-- 0 -->
      <g transform="translate(116.690909 1278.916563)scale(0.1 -0.1)">
       <use xlink:href="#DejaVuSans-30"/>
      </g>
     </g>
    </g>
    <g id="xtick_9">
     <g id="line2d_18">
      <g>
       <use style="stroke:#000000;stroke-width:0.8;" x="367.523613" xlink:href="#m5698702ff4" y="1264.318125"/>
      </g>
     </g>
     <g id="text_20">
      <!-- 200 -->
      <g transform="translate(357.979863 1278.916563)scale(0.1 -0.1)">
       <use xlink:href="#DejaVuSans-32"/>
       <use x="63.623047" xlink:href="#DejaVuSans-30"/>
       <use x="127.246094" xlink:href="#DejaVuSans-30"/>
      </g>
     </g>
    </g>
    <g id="xtick_10">
     <g id="line2d_19">
      <g>
       <use style="stroke:#000000;stroke-width:0.8;" x="615.175066" xlink:href="#m5698702ff4" y="1264.318125"/>
      </g>
     </g>
     <g id="text_21">
      <!-- 400 -->
      <g transform="translate(605.631316 1278.916563)scale(0.1 -0.1)">
       <use xlink:href="#DejaVuSans-34"/>
       <use x="63.623047" xlink:href="#DejaVuSans-30"/>
       <use x="127.246094" xlink:href="#DejaVuSans-30"/>
      </g>
     </g>
    </g>
    <g id="xtick_11">
     <g id="line2d_20">
      <g>
       <use style="stroke:#000000;stroke-width:0.8;" x="862.82652" xlink:href="#m5698702ff4" y="1264.318125"/>
      </g>
     </g>
     <g id="text_22">
      <!-- 600 -->
      <g transform="translate(853.28277 1278.916563)scale(0.1 -0.1)">
       <use xlink:href="#DejaVuSans-36"/>
       <use x="63.623047" xlink:href="#DejaVuSans-30"/>
       <use x="127.246094" xlink:href="#DejaVuSans-30"/>
      </g>
     </g>
    </g>
    <g id="xtick_12">
     <g id="line2d_21">
      <g>
       <use style="stroke:#000000;stroke-width:0.8;" x="1110.477973" xlink:href="#m5698702ff4" y="1264.318125"/>
      </g>
     </g>
     <g id="text_23">
      <!-- 800 -->
      <g transform="translate(1100.934223 1278.916563)scale(0.1 -0.1)">
       <use xlink:href="#DejaVuSans-38"/>
       <use x="63.623047" xlink:href="#DejaVuSans-30"/>
       <use x="127.246094" xlink:href="#DejaVuSans-30"/>
      </g>
     </g>
    </g>
    <g id="xtick_13">
     <g id="line2d_22">
      <g>
       <use style="stroke:#000000;stroke-width:0.8;" x="1358.129427" xlink:href="#m5698702ff4" y="1264.318125"/>
      </g>
     </g>
     <g id="text_24">
      <!-- 1000 -->
      <g transform="translate(1345.404427 1278.916563)scale(0.1 -0.1)">
       <use xlink:href="#DejaVuSans-31"/>
       <use x="63.623047" xlink:href="#DejaVuSans-30"/>
       <use x="127.246094" xlink:href="#DejaVuSans-30"/>
       <use x="190.869141" xlink:href="#DejaVuSans-30"/>
      </g>
     </g>
    </g>
    <g id="xtick_14">
     <g id="line2d_23">
      <g>
       <use style="stroke:#000000;stroke-width:0.8;" x="1605.78088" xlink:href="#m5698702ff4" y="1264.318125"/>
      </g>
     </g>
     <g id="text_25">
      <!-- 1200 -->
      <g transform="translate(1593.05588 1278.916563)scale(0.1 -0.1)">
       <use xlink:href="#DejaVuSans-31"/>
       <use x="63.623047" xlink:href="#DejaVuSans-32"/>
       <use x="127.246094" xlink:href="#DejaVuSans-30"/>
       <use x="190.869141" xlink:href="#DejaVuSans-30"/>
      </g>
     </g>
    </g>
    <g id="text_26">
     <!-- frame -->
     <g transform="translate(865.954687 1292.594688)scale(0.1 -0.1)">
      <use xlink:href="#DejaVuSans-66"/>
      <use x="35.205078" xlink:href="#DejaVuSans-72"/>
      <use x="76.318359" xlink:href="#DejaVuSans-61"/>
      <use x="137.597656" xlink:href="#DejaVuSans-6d"/>
      <use x="235.009766" xlink:href="#DejaVuSans-65"/>
     </g>
    </g>
   </g>
   <g id="matplotlib.axis_4">
    <g id="ytick_9">
     <g id="line2d_24">
      <g>
       <use style="stroke:#000000;stroke-width:0.8;" x="43.78125" xlink:href="#m4e0c64d90a" y="1238.656968"/>
      </g>
     </g>
     <g id="text_27">
      <!-- 0.0 -->
      <g transform="translate(20.878125 1242.456187)scale(0.1 -0.1)">
       <defs>
        <path d="M 684 794 
L 1344 794 
L 1344 0 
L 684 0 
L 684 794 
z
" id="DejaVuSans-2e" transform="scale(0.015625)"/>
       </defs>
       <use xlink:href="#DejaVuSans-30"/>
       <use x="63.623047" xlink:href="#DejaVuSans-2e"/>
       <use x="95.410156" xlink:href="#DejaVuSans-30"/>
      </g>
     </g>
    </g>
    <g id="ytick_10">
     <g id="line2d_25">
      <g>
       <use style="stroke:#000000;stroke-width:0.8;" x="43.78125" xlink:href="#m4e0c64d90a" y="1136.01234"/>
      </g>
     </g>
     <g id="text_28">
      <!-- 0.2 -->
      <g transform="translate(20.878125 1139.811559)scale(0.1 -0.1)">
       <use xlink:href="#DejaVuSans-30"/>
       <use x="63.623047" xlink:href="#DejaVuSans-2e"/>
       <use x="95.410156" xlink:href="#DejaVuSans-32"/>
      </g>
     </g>
    </g>
    <g id="ytick_11">
     <g id="line2d_26">
      <g>
       <use style="stroke:#000000;stroke-width:0.8;" x="43.78125" xlink:href="#m4e0c64d90a" y="1033.367712"/>
      </g>
     </g>
     <g id="text_29">
      <!-- 0.4 -->
      <g transform="translate(20.878125 1037.166931)scale(0.1 -0.1)">
       <use xlink:href="#DejaVuSans-30"/>
       <use x="63.623047" xlink:href="#DejaVuSans-2e"/>
       <use x="95.410156" xlink:href="#DejaVuSans-34"/>
      </g>
     </g>
    </g>
    <g id="ytick_12">
     <g id="line2d_27">
      <g>
       <use style="stroke:#000000;stroke-width:0.8;" x="43.78125" xlink:href="#m4e0c64d90a" y="930.723084"/>
      </g>
     </g>
     <g id="text_30">
      <!-- 0.6 -->
      <g transform="translate(20.878125 934.522302)scale(0.1 -0.1)">
       <use xlink:href="#DejaVuSans-30"/>
       <use x="63.623047" xlink:href="#DejaVuSans-2e"/>
       <use x="95.410156" xlink:href="#DejaVuSans-36"/>
      </g>
     </g>
    </g>
    <g id="ytick_13">
     <g id="line2d_28">
      <g>
       <use style="stroke:#000000;stroke-width:0.8;" x="43.78125" xlink:href="#m4e0c64d90a" y="828.078456"/>
      </g>
     </g>
     <g id="text_31">
      <!-- 0.8 -->
      <g transform="translate(20.878125 831.877674)scale(0.1 -0.1)">
       <use xlink:href="#DejaVuSans-30"/>
       <use x="63.623047" xlink:href="#DejaVuSans-2e"/>
       <use x="95.410156" xlink:href="#DejaVuSans-38"/>
      </g>
     </g>
    </g>
    <g id="ytick_14">
     <g id="line2d_29">
      <g>
       <use style="stroke:#000000;stroke-width:0.8;" x="43.78125" xlink:href="#m4e0c64d90a" y="725.433827"/>
      </g>
     </g>
     <g id="text_32">
      <!-- 1.0 -->
      <g transform="translate(20.878125 729.233046)scale(0.1 -0.1)">
       <use xlink:href="#DejaVuSans-31"/>
       <use x="63.623047" xlink:href="#DejaVuSans-2e"/>
       <use x="95.410156" xlink:href="#DejaVuSans-30"/>
      </g>
     </g>
    </g>
    <g id="text_33">
     <!-- GCaMP -->
     <g transform="translate(14.798437 999.803991)rotate(-90)scale(0.1 -0.1)">
      <use xlink:href="#DejaVuSans-47"/>
      <use x="77.490234" xlink:href="#DejaVuSans-43"/>
      <use x="147.314453" xlink:href="#DejaVuSans-61"/>
      <use x="208.59375" xlink:href="#DejaVuSans-4d"/>
      <use x="294.873047" xlink:href="#DejaVuSans-50"/>
     </g>
    </g>
   </g>
   <g id="line2d_30">
    <path clip-path="url(#p4206aa2beb)" d="M 119.872159 1238.656968 
L 1039.897309 1238.656968 
L 1041.135566 725.433827 
L 1054.756396 725.433827 
L 1055.994653 1238.656968 
L 1481.955153 1238.656968 
L 1483.193411 725.433827 
L 1641.690341 725.433827 
L 1641.690341 725.433827 
" style="fill:none;stroke:#008000;stroke-linecap:square;stroke-width:1.5;"/>
   </g>
   <g id="patch_8">
    <path d="M 43.78125 1264.318125 
L 43.78125 699.77267 
" style="fill:none;stroke:#000000;stroke-linecap:square;stroke-linejoin:miter;stroke-width:0.8;"/>
   </g>
   <g id="patch_9">
    <path d="M 1717.78125 1264.318125 
L 1717.78125 699.77267 
" style="fill:none;stroke:#000000;stroke-linecap:square;stroke-linejoin:miter;stroke-width:0.8;"/>
   </g>
   <g id="patch_10">
    <path d="M 43.78125 1264.318125 
L 1717.78125 1264.318125 
" style="fill:none;stroke:#000000;stroke-linecap:square;stroke-linejoin:miter;stroke-width:0.8;"/>
   </g>
   <g id="patch_11">
    <path d="M 43.78125 699.77267 
L 1717.78125 699.77267 
" style="fill:none;stroke:#000000;stroke-linecap:square;stroke-linejoin:miter;stroke-width:0.8;"/>
   </g>
   <g id="text_34">
    <!-- before binarisation -->
    <g transform="translate(824.1825 693.77267)scale(0.12 -0.12)">
     <use xlink:href="#DejaVuSans-62"/>
     <use x="63.476562" xlink:href="#DejaVuSans-65"/>
     <use x="125" xlink:href="#DejaVuSans-66"/>
     <use x="160.205078" xlink:href="#DejaVuSans-6f"/>
     <use x="221.386719" xlink:href="#DejaVuSans-72"/>
     <use x="260.25" xlink:href="#DejaVuSans-65"/>
     <use x="321.773438" xlink:href="#DejaVuSans-20"/>
     <use x="353.560547" xlink:href="#DejaVuSans-62"/>
     <use x="417.037109" xlink:href="#DejaVuSans-69"/>
     <use x="444.820312" xlink:href="#DejaVuSans-6e"/>
     <use x="508.199219" xlink:href="#DejaVuSans-61"/>
     <use x="569.478516" xlink:href="#DejaVuSans-72"/>
     <use x="610.591797" xlink:href="#DejaVuSans-69"/>
     <use x="638.375" xlink:href="#DejaVuSans-73"/>
     <use x="690.474609" xlink:href="#DejaVuSans-61"/>
     <use x="751.753906" xlink:href="#DejaVuSans-74"/>
     <use x="790.962891" xlink:href="#DejaVuSans-69"/>
     <use x="818.746094" xlink:href="#DejaVuSans-6f"/>
     <use x="879.927734" xlink:href="#DejaVuSans-6e"/>
    </g>
   </g>
  </g>
 </g>
 <defs>
  <clipPath id="p5134ca6de8">
   <rect height="564.545455" width="1674" x="43.78125" y="22.318125"/>
  </clipPath>
  <clipPath id="p4206aa2beb">
   <rect height="564.545455" width="1674" x="43.78125" y="699.77267"/>
  </clipPath>
 </defs>
</svg>
