<?xml version="1.0" encoding="utf-8" standalone="no"?>
<!DOCTYPE svg PUBLIC "-//W3C//DTD SVG 1.1//EN"
  "http://www.w3.org/Graphics/SVG/1.1/DTD/svg11.dtd">
<svg height="1301.874375pt" version="1.1" viewBox="0 0 1724.98125 1301.874375" width="1724.98125pt" xmlns="http://www.w3.org/2000/svg" xmlns:xlink="http://www.w3.org/1999/xlink">
 <metadata>
  <rdf:RDF xmlns:cc="http://creativecommons.org/ns#" xmlns:dc="http://purl.org/dc/elements/1.1/" xmlns:rdf="http://www.w3.org/1999/02/22-rdf-syntax-ns#">
   <cc:Work>
    <dc:type rdf:resource="http://purl.org/dc/dcmitype/StillImage"/>
    <dc:date>2022-07-24T15:54:34.448495</dc:date>
    <dc:format>image/svg+xml</dc:format>
    <dc:creator>
     <cc:Agent>
      <dc:title>Matplotlib v3.4.2, https://matplotlib.org/</dc:title>
     </cc:Agent>
    </dc:creator>
   </cc:Work>
  </rdf:RDF>
 </metadata>
 <defs>
  <style type="text/css">*{stroke-linecap:butt;stroke-linejoin:round;}</style>
 </defs>
 <g id="figure_1">
  <g id="patch_1">
   <path d="M 0 1301.874375 
L 1724.98125 1301.874375 
L 1724.98125 0 
L 0 0 
z
" style="fill:#ffffff;"/>
  </g>
  <g id="axes_1">
   <g id="patch_2">
    <path d="M 43.78125 586.86358 
L 1717.78125 586.86358 
L 1717.78125 22.318125 
L 43.78125 22.318125 
z
" style="fill:#ffffff;"/>
   </g>
   <g id="matplotlib.axis_1">
    <g id="xtick_1">
     <g id="line2d_1">
      <defs>
       <path d="M 0 0 
L 0 3.5 
" id="m9067fb2523" style="stroke:#000000;stroke-width:0.8;"/>
      </defs>
      <g>
       <use style="stroke:#000000;stroke-width:0.8;" x="119.872159" xlink:href="#m9067fb2523" y="586.86358"/>
      </g>
     </g>
     <g id="text_1">
      <!-- 0 -->
      <g transform="translate(116.690909 601.462017)scale(0.1 -0.1)">
       <defs>
        <path d="M 2034 4250 
Q 1547 4250 1301 3770 
Q 1056 3291 1056 2328 
Q 1056 1369 1301 889 
Q 1547 409 2034 409 
Q 2525 409 2770 889 
Q 3016 1369 3016 2328 
Q 3016 3291 2770 3770 
Q 2525 4250 2034 4250 
z
M 2034 4750 
Q 2819 4750 3233 4129 
Q 3647 3509 3647 2328 
Q 3647 1150 3233 529 
Q 2819 -91 2034 -91 
Q 1250 -91 836 529 
Q 422 1150 422 2328 
Q 422 3509 836 4129 
Q 1250 4750 2034 4750 
z
" id="DejaVuSans-30" transform="scale(0.015625)"/>
       </defs>
       <use xlink:href="#DejaVuSans-30"/>
      </g>
     </g>
    </g>
    <g id="xtick_2">
     <g id="line2d_2">
      <g>
       <use style="stroke:#000000;stroke-width:0.8;" x="367.523613" xlink:href="#m9067fb2523" y="586.86358"/>
      </g>
     </g>
     <g id="text_2">
      <!-- 200 -->
      <g transform="translate(357.979863 601.462017)scale(0.1 -0.1)">
       <defs>
        <path d="M 1228 531 
L 3431 531 
L 3431 0 
L 469 0 
L 469 531 
Q 828 903 1448 1529 
Q 2069 2156 2228 2338 
Q 2531 2678 2651 2914 
Q 2772 3150 2772 3378 
Q 2772 3750 2511 3984 
Q 2250 4219 1831 4219 
Q 1534 4219 1204 4116 
Q 875 4013 500 3803 
L 500 4441 
Q 881 4594 1212 4672 
Q 1544 4750 1819 4750 
Q 2544 4750 2975 4387 
Q 3406 4025 3406 3419 
Q 3406 3131 3298 2873 
Q 3191 2616 2906 2266 
Q 2828 2175 2409 1742 
Q 1991 1309 1228 531 
z
" id="DejaVuSans-32" transform="scale(0.015625)"/>
       </defs>
       <use xlink:href="#DejaVuSans-32"/>
       <use x="63.623047" xlink:href="#DejaVuSans-30"/>
       <use x="127.246094" xlink:href="#DejaVuSans-30"/>
      </g>
     </g>
    </g>
    <g id="xtick_3">
     <g id="line2d_3">
      <g>
       <use style="stroke:#000000;stroke-width:0.8;" x="615.175066" xlink:href="#m9067fb2523" y="586.86358"/>
      </g>
     </g>
     <g id="text_3">
      <!-- 400 -->
      <g transform="translate(605.631316 601.462017)scale(0.1 -0.1)">
       <defs>
        <path d="M 2419 4116 
L 825 1625 
L 2419 1625 
L 2419 4116 
z
M 2253 4666 
L 3047 4666 
L 3047 1625 
L 3713 1625 
L 3713 1100 
L 3047 1100 
L 3047 0 
L 2419 0 
L 2419 1100 
L 313 1100 
L 313 1709 
L 2253 4666 
z
" id="DejaVuSans-34" transform="scale(0.015625)"/>
       </defs>
       <use xlink:href="#DejaVuSans-34"/>
       <use x="63.623047" xlink:href="#DejaVuSans-30"/>
       <use x="127.246094" xlink:href="#DejaVuSans-30"/>
      </g>
     </g>
    </g>
    <g id="xtick_4">
     <g id="line2d_4">
      <g>
       <use style="stroke:#000000;stroke-width:0.8;" x="862.82652" xlink:href="#m9067fb2523" y="586.86358"/>
      </g>
     </g>
     <g id="text_4">
      <!-- 600 -->
      <g transform="translate(853.28277 601.462017)scale(0.1 -0.1)">
       <defs>
        <path d="M 2113 2584 
Q 1688 2584 1439 2293 
Q 1191 2003 1191 1497 
Q 1191 994 1439 701 
Q 1688 409 2113 409 
Q 2538 409 2786 701 
Q 3034 994 3034 1497 
Q 3034 2003 2786 2293 
Q 2538 2584 2113 2584 
z
M 3366 4563 
L 3366 3988 
Q 3128 4100 2886 4159 
Q 2644 4219 2406 4219 
Q 1781 4219 1451 3797 
Q 1122 3375 1075 2522 
Q 1259 2794 1537 2939 
Q 1816 3084 2150 3084 
Q 2853 3084 3261 2657 
Q 3669 2231 3669 1497 
Q 3669 778 3244 343 
Q 2819 -91 2113 -91 
Q 1303 -91 875 529 
Q 447 1150 447 2328 
Q 447 3434 972 4092 
Q 1497 4750 2381 4750 
Q 2619 4750 2861 4703 
Q 3103 4656 3366 4563 
z
" id="DejaVuSans-36" transform="scale(0.015625)"/>
       </defs>
       <use xlink:href="#DejaVuSans-36"/>
       <use x="63.623047" xlink:href="#DejaVuSans-30"/>
       <use x="127.246094" xlink:href="#DejaVuSans-30"/>
      </g>
     </g>
    </g>
    <g id="xtick_5">
     <g id="line2d_5">
      <g>
       <use style="stroke:#000000;stroke-width:0.8;" x="1110.477973" xlink:href="#m9067fb2523" y="586.86358"/>
      </g>
     </g>
     <g id="text_5">
      <!-- 800 -->
      <g transform="translate(1100.934223 601.462017)scale(0.1 -0.1)">
       <defs>
        <path d="M 2034 2216 
Q 1584 2216 1326 1975 
Q 1069 1734 1069 1313 
Q 1069 891 1326 650 
Q 1584 409 2034 409 
Q 2484 409 2743 651 
Q 3003 894 3003 1313 
Q 3003 1734 2745 1975 
Q 2488 2216 2034 2216 
z
M 1403 2484 
Q 997 2584 770 2862 
Q 544 3141 544 3541 
Q 544 4100 942 4425 
Q 1341 4750 2034 4750 
Q 2731 4750 3128 4425 
Q 3525 4100 3525 3541 
Q 3525 3141 3298 2862 
Q 3072 2584 2669 2484 
Q 3125 2378 3379 2068 
Q 3634 1759 3634 1313 
Q 3634 634 3220 271 
Q 2806 -91 2034 -91 
Q 1263 -91 848 271 
Q 434 634 434 1313 
Q 434 1759 690 2068 
Q 947 2378 1403 2484 
z
M 1172 3481 
Q 1172 3119 1398 2916 
Q 1625 2713 2034 2713 
Q 2441 2713 2670 2916 
Q 2900 3119 2900 3481 
Q 2900 3844 2670 4047 
Q 2441 4250 2034 4250 
Q 1625 4250 1398 4047 
Q 1172 3844 1172 3481 
z
" id="DejaVuSans-38" transform="scale(0.015625)"/>
       </defs>
       <use xlink:href="#DejaVuSans-38"/>
       <use x="63.623047" xlink:href="#DejaVuSans-30"/>
       <use x="127.246094" xlink:href="#DejaVuSans-30"/>
      </g>
     </g>
    </g>
    <g id="xtick_6">
     <g id="line2d_6">
      <g>
       <use style="stroke:#000000;stroke-width:0.8;" x="1358.129427" xlink:href="#m9067fb2523" y="586.86358"/>
      </g>
     </g>
     <g id="text_6">
      <!-- 1000 -->
      <g transform="translate(1345.404427 601.462017)scale(0.1 -0.1)">
       <defs>
        <path d="M 794 531 
L 1825 531 
L 1825 4091 
L 703 3866 
L 703 4441 
L 1819 4666 
L 2450 4666 
L 2450 531 
L 3481 531 
L 3481 0 
L 794 0 
L 794 531 
z
" id="DejaVuSans-31" transform="scale(0.015625)"/>
       </defs>
       <use xlink:href="#DejaVuSans-31"/>
       <use x="63.623047" xlink:href="#DejaVuSans-30"/>
       <use x="127.246094" xlink:href="#DejaVuSans-30"/>
       <use x="190.869141" xlink:href="#DejaVuSans-30"/>
      </g>
     </g>
    </g>
    <g id="xtick_7">
     <g id="line2d_7">
      <g>
       <use style="stroke:#000000;stroke-width:0.8;" x="1605.78088" xlink:href="#m9067fb2523" y="586.86358"/>
      </g>
     </g>
     <g id="text_7">
      <!-- 1200 -->
      <g transform="translate(1593.05588 601.462017)scale(0.1 -0.1)">
       <use xlink:href="#DejaVuSans-31"/>
       <use x="63.623047" xlink:href="#DejaVuSans-32"/>
       <use x="127.246094" xlink:href="#DejaVuSans-30"/>
       <use x="190.869141" xlink:href="#DejaVuSans-30"/>
      </g>
     </g>
    </g>
    <g id="text_8">
     <!-- frame -->
     <g transform="translate(865.954687 615.140142)scale(0.1 -0.1)">
      <defs>
       <path d="M 2375 4863 
L 2375 4384 
L 1825 4384 
Q 1516 4384 1395 4259 
Q 1275 4134 1275 3809 
L 1275 3500 
L 2222 3500 
L 2222 3053 
L 1275 3053 
L 1275 0 
L 697 0 
L 697 3053 
L 147 3053 
L 147 3500 
L 697 3500 
L 697 3744 
Q 697 4328 969 4595 
Q 1241 4863 1831 4863 
L 2375 4863 
z
" id="DejaVuSans-66" transform="scale(0.015625)"/>
       <path d="M 2631 2963 
Q 2534 3019 2420 3045 
Q 2306 3072 2169 3072 
Q 1681 3072 1420 2755 
Q 1159 2438 1159 1844 
L 1159 0 
L 581 0 
L 581 3500 
L 1159 3500 
L 1159 2956 
Q 1341 3275 1631 3429 
Q 1922 3584 2338 3584 
Q 2397 3584 2469 3576 
Q 2541 3569 2628 3553 
L 2631 2963 
z
" id="DejaVuSans-72" transform="scale(0.015625)"/>
       <path d="M 2194 1759 
Q 1497 1759 1228 1600 
Q 959 1441 959 1056 
Q 959 750 1161 570 
Q 1363 391 1709 391 
Q 2188 391 2477 730 
Q 2766 1069 2766 1631 
L 2766 1759 
L 2194 1759 
z
M 3341 1997 
L 3341 0 
L 2766 0 
L 2766 531 
Q 2569 213 2275 61 
Q 1981 -91 1556 -91 
Q 1019 -91 701 211 
Q 384 513 384 1019 
Q 384 1609 779 1909 
Q 1175 2209 1959 2209 
L 2766 2209 
L 2766 2266 
Q 2766 2663 2505 2880 
Q 2244 3097 1772 3097 
Q 1472 3097 1187 3025 
Q 903 2953 641 2809 
L 641 3341 
Q 956 3463 1253 3523 
Q 1550 3584 1831 3584 
Q 2591 3584 2966 3190 
Q 3341 2797 3341 1997 
z
" id="DejaVuSans-61" transform="scale(0.015625)"/>
       <path d="M 3328 2828 
Q 3544 3216 3844 3400 
Q 4144 3584 4550 3584 
Q 5097 3584 5394 3201 
Q 5691 2819 5691 2113 
L 5691 0 
L 5113 0 
L 5113 2094 
Q 5113 2597 4934 2840 
Q 4756 3084 4391 3084 
Q 3944 3084 3684 2787 
Q 3425 2491 3425 1978 
L 3425 0 
L 2847 0 
L 2847 2094 
Q 2847 2600 2669 2842 
Q 2491 3084 2119 3084 
Q 1678 3084 1418 2786 
Q 1159 2488 1159 1978 
L 1159 0 
L 581 0 
L 581 3500 
L 1159 3500 
L 1159 2956 
Q 1356 3278 1631 3431 
Q 1906 3584 2284 3584 
Q 2666 3584 2933 3390 
Q 3200 3197 3328 2828 
z
" id="DejaVuSans-6d" transform="scale(0.015625)"/>
       <path d="M 3597 1894 
L 3597 1613 
L 953 1613 
Q 991 1019 1311 708 
Q 1631 397 2203 397 
Q 2534 397 2845 478 
Q 3156 559 3463 722 
L 3463 178 
Q 3153 47 2828 -22 
Q 2503 -91 2169 -91 
Q 1331 -91 842 396 
Q 353 884 353 1716 
Q 353 2575 817 3079 
Q 1281 3584 2069 3584 
Q 2775 3584 3186 3129 
Q 3597 2675 3597 1894 
z
M 3022 2063 
Q 3016 2534 2758 2815 
Q 2500 3097 2075 3097 
Q 1594 3097 1305 2825 
Q 1016 2553 972 2059 
L 3022 2063 
z
" id="DejaVuSans-65" transform="scale(0.015625)"/>
      </defs>
      <use xlink:href="#DejaVuSans-66"/>
      <use x="35.205078" xlink:href="#DejaVuSans-72"/>
      <use x="76.318359" xlink:href="#DejaVuSans-61"/>
      <use x="137.597656" xlink:href="#DejaVuSans-6d"/>
      <use x="235.009766" xlink:href="#DejaVuSans-65"/>
     </g>
    </g>
   </g>
   <g id="matplotlib.axis_2">
    <g id="ytick_1">
     <g id="line2d_8">
      <defs>
       <path d="M 0 0 
L -3.5 0 
" id="meb59ef9512" style="stroke:#000000;stroke-width:0.8;"/>
      </defs>
      <g>
       <use style="stroke:#000000;stroke-width:0.8;" x="43.78125" xlink:href="#meb59ef9512" y="540.010179"/>
      </g>
     </g>
     <g id="text_9">
      <!-- 0.6 -->
      <g transform="translate(20.878125 543.809398)scale(0.1 -0.1)">
       <defs>
        <path d="M 684 794 
L 1344 794 
L 1344 0 
L 684 0 
L 684 794 
z
" id="DejaVuSans-2e" transform="scale(0.015625)"/>
       </defs>
       <use xlink:href="#DejaVuSans-30"/>
       <use x="63.623047" xlink:href="#DejaVuSans-2e"/>
       <use x="95.410156" xlink:href="#DejaVuSans-36"/>
      </g>
     </g>
    </g>
    <g id="ytick_2">
     <g id="line2d_9">
      <g>
       <use style="stroke:#000000;stroke-width:0.8;" x="43.78125" xlink:href="#meb59ef9512" y="453.877071"/>
      </g>
     </g>
     <g id="text_10">
      <!-- 0.8 -->
      <g transform="translate(20.878125 457.676289)scale(0.1 -0.1)">
       <use xlink:href="#DejaVuSans-30"/>
       <use x="63.623047" xlink:href="#DejaVuSans-2e"/>
       <use x="95.410156" xlink:href="#DejaVuSans-38"/>
      </g>
     </g>
    </g>
    <g id="ytick_3">
     <g id="line2d_10">
      <g>
       <use style="stroke:#000000;stroke-width:0.8;" x="43.78125" xlink:href="#meb59ef9512" y="367.743962"/>
      </g>
     </g>
     <g id="text_11">
      <!-- 1.0 -->
      <g transform="translate(20.878125 371.543181)scale(0.1 -0.1)">
       <use xlink:href="#DejaVuSans-31"/>
       <use x="63.623047" xlink:href="#DejaVuSans-2e"/>
       <use x="95.410156" xlink:href="#DejaVuSans-30"/>
      </g>
     </g>
    </g>
    <g id="ytick_4">
     <g id="line2d_11">
      <g>
       <use style="stroke:#000000;stroke-width:0.8;" x="43.78125" xlink:href="#meb59ef9512" y="281.610854"/>
      </g>
     </g>
     <g id="text_12">
      <!-- 1.2 -->
      <g transform="translate(20.878125 285.410073)scale(0.1 -0.1)">
       <use xlink:href="#DejaVuSans-31"/>
       <use x="63.623047" xlink:href="#DejaVuSans-2e"/>
       <use x="95.410156" xlink:href="#DejaVuSans-32"/>
      </g>
     </g>
    </g>
    <g id="ytick_5">
     <g id="line2d_12">
      <g>
       <use style="stroke:#000000;stroke-width:0.8;" x="43.78125" xlink:href="#meb59ef9512" y="195.477746"/>
      </g>
     </g>
     <g id="text_13">
      <!-- 1.4 -->
      <g transform="translate(20.878125 199.276964)scale(0.1 -0.1)">
       <use xlink:href="#DejaVuSans-31"/>
       <use x="63.623047" xlink:href="#DejaVuSans-2e"/>
       <use x="95.410156" xlink:href="#DejaVuSans-34"/>
      </g>
     </g>
    </g>
    <g id="ytick_6">
     <g id="line2d_13">
      <g>
       <use style="stroke:#000000;stroke-width:0.8;" x="43.78125" xlink:href="#meb59ef9512" y="109.344637"/>
      </g>
     </g>
     <g id="text_14">
      <!-- 1.6 -->
      <g transform="translate(20.878125 113.143856)scale(0.1 -0.1)">
       <use xlink:href="#DejaVuSans-31"/>
       <use x="63.623047" xlink:href="#DejaVuSans-2e"/>
       <use x="95.410156" xlink:href="#DejaVuSans-36"/>
      </g>
     </g>
    </g>
    <g id="ytick_7">
     <g id="line2d_14">
      <g>
       <use style="stroke:#000000;stroke-width:0.8;" x="43.78125" xlink:href="#meb59ef9512" y="23.211529"/>
      </g>
     </g>
     <g id="text_15">
      <!-- 1.8 -->
      <g transform="translate(20.878125 27.010748)scale(0.1 -0.1)">
       <use xlink:href="#DejaVuSans-31"/>
       <use x="63.623047" xlink:href="#DejaVuSans-2e"/>
       <use x="95.410156" xlink:href="#DejaVuSans-38"/>
      </g>
     </g>
    </g>
    <g id="text_16">
     <!-- GCaMP -->
     <g transform="translate(14.798437 322.349446)rotate(-90)scale(0.1 -0.1)">
      <defs>
       <path d="M 3809 666 
L 3809 1919 
L 2778 1919 
L 2778 2438 
L 4434 2438 
L 4434 434 
Q 4069 175 3628 42 
Q 3188 -91 2688 -91 
Q 1594 -91 976 548 
Q 359 1188 359 2328 
Q 359 3472 976 4111 
Q 1594 4750 2688 4750 
Q 3144 4750 3555 4637 
Q 3966 4525 4313 4306 
L 4313 3634 
Q 3963 3931 3569 4081 
Q 3175 4231 2741 4231 
Q 1884 4231 1454 3753 
Q 1025 3275 1025 2328 
Q 1025 1384 1454 906 
Q 1884 428 2741 428 
Q 3075 428 3337 486 
Q 3600 544 3809 666 
z
" id="DejaVuSans-47" transform="scale(0.015625)"/>
       <path d="M 4122 4306 
L 4122 3641 
Q 3803 3938 3442 4084 
Q 3081 4231 2675 4231 
Q 1875 4231 1450 3742 
Q 1025 3253 1025 2328 
Q 1025 1406 1450 917 
Q 1875 428 2675 428 
Q 3081 428 3442 575 
Q 3803 722 4122 1019 
L 4122 359 
Q 3791 134 3420 21 
Q 3050 -91 2638 -91 
Q 1578 -91 968 557 
Q 359 1206 359 2328 
Q 359 3453 968 4101 
Q 1578 4750 2638 4750 
Q 3056 4750 3426 4639 
Q 3797 4528 4122 4306 
z
" id="DejaVuSans-43" transform="scale(0.015625)"/>
       <path d="M 628 4666 
L 1569 4666 
L 2759 1491 
L 3956 4666 
L 4897 4666 
L 4897 0 
L 4281 0 
L 4281 4097 
L 3078 897 
L 2444 897 
L 1241 4097 
L 1241 0 
L 628 0 
L 628 4666 
z
" id="DejaVuSans-4d" transform="scale(0.015625)"/>
       <path d="M 1259 4147 
L 1259 2394 
L 2053 2394 
Q 2494 2394 2734 2622 
Q 2975 2850 2975 3272 
Q 2975 3691 2734 3919 
Q 2494 4147 2053 4147 
L 1259 4147 
z
M 628 4666 
L 2053 4666 
Q 2838 4666 3239 4311 
Q 3641 3956 3641 3272 
Q 3641 2581 3239 2228 
Q 2838 1875 2053 1875 
L 1259 1875 
L 1259 0 
L 628 0 
L 628 4666 
z
" id="DejaVuSans-50" transform="scale(0.015625)"/>
      </defs>
      <use xlink:href="#DejaVuSans-47"/>
      <use x="77.490234" xlink:href="#DejaVuSans-43"/>
      <use x="147.314453" xlink:href="#DejaVuSans-61"/>
      <use x="208.59375" xlink:href="#DejaVuSans-4d"/>
      <use x="294.873047" xlink:href="#DejaVuSans-50"/>
     </g>
    </g>
   </g>
   <g id="line2d_15">
    <path clip-path="url(#p097a6f23a5)" d="M 119.872159 561.202423 
L 122.348674 552.910573 
L 123.586931 549.244555 
L 124.825188 546.288736 
L 126.063445 544.171066 
L 127.301703 542.726592 
L 128.53996 541.951279 
L 129.778217 542.314679 
L 131.016474 543.988832 
L 132.254732 546.149523 
L 133.492989 547.775855 
L 134.731246 548.548289 
L 135.969504 548.667538 
L 137.207761 548.296031 
L 138.446018 547.235993 
L 139.684275 545.136603 
L 142.16079 538.771789 
L 143.399047 536.785134 
L 144.637304 537.262674 
L 145.875562 540.049126 
L 148.352076 547.250847 
L 149.590334 549.965735 
L 150.828591 551.707101 
L 152.066848 552.01978 
L 153.305105 550.876176 
L 154.543363 549.110048 
L 155.78162 547.809065 
L 157.019877 547.414894 
L 158.258134 547.625151 
L 159.496392 548.093874 
L 160.734649 548.766134 
L 161.972906 549.720458 
L 164.449421 552.566834 
L 165.687678 553.525162 
L 166.925935 553.738866 
L 168.164193 553.80536 
L 169.40245 554.423762 
L 170.640707 555.836959 
L 173.117222 559.662142 
L 174.355479 560.750005 
L 175.593736 560.548622 
L 176.831993 558.983012 
L 178.070251 556.388863 
L 180.546765 549.982254 
L 181.785022 547.406375 
L 183.02328 546.270978 
L 184.261537 546.533079 
L 185.499794 547.301576 
L 186.738052 547.513609 
L 187.976309 546.465185 
L 189.214566 544.089593 
L 190.452823 541.039977 
L 191.691081 538.492224 
L 192.929338 537.350102 
L 194.167595 537.498047 
L 195.405852 538.303509 
L 196.64411 539.560371 
L 199.120624 543.152751 
L 200.358881 543.782559 
L 201.597139 542.310377 
L 202.835396 539.056682 
L 204.073653 535.403131 
L 205.311911 532.880592 
L 206.550168 532.378289 
L 207.788425 533.635456 
L 209.026682 535.5404 
L 210.26494 537.055362 
L 211.503197 537.6471 
L 212.741454 537.459141 
L 213.979711 537.474464 
L 215.217969 538.824865 
L 217.694483 544.408825 
L 218.93274 546.073583 
L 220.170998 545.837516 
L 221.409255 543.414061 
L 223.88577 534.54914 
L 225.124027 531.342255 
L 226.362284 530.269431 
L 227.600541 530.84698 
L 230.077056 533.245925 
L 232.55357 534.745865 
L 233.791828 535.371204 
L 235.030085 535.628011 
L 237.5066 535.496157 
L 238.744857 535.071883 
L 239.983114 533.474875 
L 241.221371 530.151327 
L 243.697886 521.55574 
L 244.936143 518.582903 
L 246.1744 517.797057 
L 247.412658 520.010396 
L 248.650915 524.739515 
L 249.889172 530.200292 
L 251.127429 534.561912 
L 252.365687 536.984026 
L 253.603944 537.749797 
L 254.842201 537.591234 
L 256.080459 537.158505 
L 257.318716 537.009439 
L 258.556973 537.257077 
L 259.79523 537.160274 
L 261.033488 535.64069 
L 262.271745 532.347498 
L 263.510002 528.317819 
L 264.748259 525.375381 
L 265.986517 524.580651 
L 267.224774 525.498743 
L 268.463031 526.920417 
L 269.701288 527.759199 
L 270.939546 527.421492 
L 273.41606 524.852292 
L 274.654318 524.818705 
L 275.892575 526.14937 
L 277.130832 527.685114 
L 278.369089 528.198497 
L 279.607347 527.427949 
L 280.845604 525.757155 
L 282.083861 523.832417 
L 283.322118 522.382645 
L 284.560376 521.736689 
L 285.798633 521.863363 
L 287.03689 522.803279 
L 289.513405 526.281221 
L 290.751662 527.355782 
L 291.989919 527.108511 
L 293.228177 525.269168 
L 294.466434 521.600043 
L 296.942948 510.835477 
L 298.181206 507.191194 
L 299.419463 506.17404 
L 300.65772 507.110537 
L 301.895977 509.236208 
L 304.372492 515.161485 
L 305.610749 516.764303 
L 306.849006 516.033199 
L 309.325521 510.608132 
L 310.563778 509.162654 
L 311.802036 509.570736 
L 313.040293 511.460401 
L 314.27855 514.285547 
L 315.516807 517.418692 
L 316.755065 519.93677 
L 317.993322 521.219614 
L 319.231579 521.765546 
L 320.469836 522.531656 
L 321.708094 523.505352 
L 322.946351 523.797414 
L 324.184608 522.908342 
L 325.422866 521.039873 
L 326.661123 518.782086 
L 327.89938 516.929686 
L 329.137637 515.825837 
L 330.375895 515.170601 
L 331.614152 514.782214 
L 334.090666 514.786855 
L 335.328924 514.21052 
L 336.567181 512.226968 
L 337.805438 508.432896 
L 340.281953 498.239671 
L 341.52021 495.895329 
L 342.758467 497.113971 
L 343.996725 500.60215 
L 345.234982 504.501688 
L 346.473239 507.674748 
L 347.711496 509.572599 
L 348.949754 510.025642 
L 350.188011 509.236234 
L 352.664525 506.352214 
L 353.902783 505.387776 
L 355.14104 504.578895 
L 356.379297 503.507027 
L 357.617554 502.276215 
L 358.855812 501.266319 
L 360.094069 500.717081 
L 361.332326 500.805551 
L 363.808841 502.285123 
L 365.047098 502.208755 
L 366.285355 500.482615 
L 367.523613 497.474563 
L 368.76187 495.24096 
L 370.000127 495.949353 
L 371.238384 499.470252 
L 372.476642 503.610542 
L 373.714899 506.499943 
L 374.953156 507.678424 
L 376.191413 507.484861 
L 377.429671 506.318185 
L 378.667928 504.118998 
L 379.906185 500.647329 
L 381.144443 496.677207 
L 382.3827 493.855751 
L 383.620957 493.11068 
L 384.859214 494.272966 
L 386.097472 496.552399 
L 387.335729 498.490673 
L 388.573986 498.583114 
L 389.812243 496.599258 
L 391.050501 494.055095 
L 392.288758 493.274003 
L 393.527015 495.26257 
L 394.765272 498.59188 
L 396.00353 501.001577 
L 397.241787 501.535581 
L 398.480044 500.868268 
L 400.956559 499.210729 
L 402.194816 498.622427 
L 403.433073 498.838782 
L 404.671331 500.199962 
L 405.909588 502.160889 
L 407.147845 503.579828 
L 408.386102 503.291608 
L 410.862617 499.275292 
L 412.100874 498.241312 
L 413.339132 498.168466 
L 414.577389 498.637064 
L 415.815646 499.494459 
L 417.053903 500.896208 
L 418.292161 503.091381 
L 420.768675 508.619001 
L 422.006932 509.996811 
L 423.24519 509.324631 
L 424.483447 506.599028 
L 425.721704 502.573188 
L 428.198219 493.555241 
L 431.912991 478.371256 
L 433.151248 475.404949 
L 434.389505 473.881529 
L 435.627762 473.230052 
L 436.86602 473.752053 
L 438.104277 475.772109 
L 443.057306 486.912019 
L 444.295563 488.913476 
L 445.53382 490.452146 
L 446.772078 492.234852 
L 448.010335 494.350091 
L 449.248592 495.994355 
L 450.48685 496.562754 
L 451.725107 496.12176 
L 452.963364 494.770026 
L 454.201621 492.184679 
L 455.439879 488.165929 
L 456.678136 483.494639 
L 457.916393 479.866431 
L 459.15465 478.861093 
L 460.392908 481.021059 
L 461.631165 485.528171 
L 462.869422 490.625264 
L 464.107679 494.827282 
L 465.345937 497.589601 
L 466.584194 498.861408 
L 467.822451 498.982195 
L 469.060709 498.938832 
L 470.298966 499.586098 
L 471.537223 500.643856 
L 472.77548 501.090037 
L 474.013738 500.320475 
L 475.251995 498.554227 
L 476.490252 496.032454 
L 477.728509 492.509348 
L 478.966767 488.330755 
L 480.205024 484.92289 
L 481.443281 483.224173 
L 482.681538 482.834956 
L 486.39631 483.413733 
L 487.634568 483.989084 
L 488.872825 485.43408 
L 492.587597 491.522004 
L 493.825854 492.29216 
L 495.064111 491.292491 
L 496.302368 489.282132 
L 497.540626 488.024039 
L 498.778883 488.162254 
L 500.01714 488.659874 
L 501.255397 488.203788 
L 502.493655 486.053182 
L 503.731912 482.091619 
L 506.208427 472.064915 
L 507.446684 468.964792 
L 508.684941 468.389817 
L 509.923198 469.637667 
L 513.63797 475.0431 
L 517.352742 482.766152 
L 518.590999 484.68304 
L 519.829257 485.9925 
L 521.067514 486.354153 
L 522.305771 485.917301 
L 523.544028 485.216521 
L 524.782286 484.3127 
L 526.020543 482.52989 
L 527.2588 479.476203 
L 528.497057 475.809898 
L 529.735315 472.52061 
L 530.973572 470.160697 
L 532.211829 468.896756 
L 533.450086 468.682294 
L 534.688344 469.458942 
L 535.926601 471.306098 
L 538.403116 476.939199 
L 539.641373 478.173713 
L 540.87963 476.769206 
L 542.117887 473.277504 
L 543.356145 469.156946 
L 544.594402 465.562751 
L 545.832659 463.248438 
L 547.070916 462.809391 
L 548.309174 464.200215 
L 549.547431 466.276429 
L 550.785688 466.968738 
L 552.023945 464.32211 
L 554.50046 453.420747 
L 555.738717 452.879742 
L 556.976975 458.267954 
L 559.453489 475.288151 
L 560.691746 479.382491 
L 561.930004 478.459997 
L 563.168261 473.509473 
L 564.406518 466.81175 
L 565.644775 461.104955 
L 566.883033 457.784644 
L 569.359547 454.299839 
L 570.597804 452.242994 
L 571.836062 450.550989 
L 573.074319 449.762471 
L 574.312576 449.92143 
L 575.550834 450.736875 
L 578.027348 453.052429 
L 579.265605 454.36358 
L 580.503863 455.462081 
L 581.74212 455.81775 
L 582.980377 455.068638 
L 584.218634 453.325773 
L 586.695149 448.674226 
L 587.933406 446.772405 
L 589.171663 446.15897 
L 590.409921 447.777431 
L 591.648178 451.563162 
L 594.124693 460.83725 
L 595.36295 464.440568 
L 596.601207 466.415142 
L 597.839464 466.551294 
L 599.077722 465.376675 
L 600.315979 463.491022 
L 601.554236 460.897493 
L 602.792493 457.187332 
L 604.030751 452.29613 
L 605.269008 446.823095 
L 606.507265 441.936657 
L 607.745523 438.963502 
L 608.98378 438.588841 
L 610.222037 440.848253 
L 611.460294 445.562261 
L 612.698552 451.540532 
L 613.936809 455.983554 
L 615.175066 456.201376 
L 616.413323 451.953339 
L 617.651581 445.567749 
L 618.889838 440.037377 
L 620.128095 437.283338 
L 621.366352 437.615992 
L 622.60461 440.076707 
L 623.842867 443.231702 
L 625.081124 445.781029 
L 626.319382 446.405959 
L 627.557639 443.856767 
L 628.795896 438.075213 
L 631.272411 423.900627 
L 632.510668 419.753654 
L 633.748925 419.066927 
L 634.987182 421.666886 
L 636.22544 426.946282 
L 637.463697 434.206665 
L 638.701954 442.136877 
L 639.940211 448.327396 
L 641.178469 450.271492 
L 642.416726 447.24457 
L 643.654983 440.889039 
L 644.893241 433.684844 
L 646.131498 427.414156 
L 647.369755 422.803974 
L 648.608012 419.197991 
L 649.84627 415.159668 
L 652.322784 405.605067 
L 653.561041 402.247798 
L 654.799299 400.379189 
L 656.037556 398.806536 
L 657.275813 395.488906 
L 658.51407 388.555597 
L 659.752328 377.535422 
L 662.228842 350.695503 
L 663.4671 338.851314 
L 664.705357 328.697895 
L 668.420129 303.187703 
L 669.658386 291.869851 
L 670.896643 277.363604 
L 674.611415 224.280044 
L 675.849672 214.036929 
L 677.087929 210.550311 
L 678.326187 213.517945 
L 679.564444 221.567846 
L 680.802701 230.814321 
L 682.040959 237.13165 
L 683.279216 239.084878 
L 684.517473 237.722733 
L 685.75573 235.37109 
L 686.993988 234.496163 
L 688.232245 236.314724 
L 689.470502 240.381673 
L 690.708759 245.374123 
L 691.947017 249.286158 
L 693.185274 249.112534 
L 694.423531 241.934757 
L 695.661789 227.217314 
L 698.138303 190.304887 
L 699.37656 179.368299 
L 700.614818 177.733702 
L 701.853075 184.547551 
L 703.091332 197.79599 
L 706.806104 249.956357 
L 708.044361 262.658957 
L 709.282618 270.801307 
L 710.520876 273.804261 
L 711.759133 271.243915 
L 712.99739 262.909074 
L 716.712162 225.069654 
L 717.950419 218.626369 
L 719.188677 215.570132 
L 721.665191 210.843848 
L 722.903448 208.463186 
L 725.379963 202.83955 
L 726.61822 202.180828 
L 727.856477 205.699592 
L 729.094735 214.029189 
L 730.332992 226.98827 
L 731.571249 242.105199 
L 732.809507 254.314616 
L 734.047764 259.817183 
L 735.286021 258.893925 
L 737.762536 250.274182 
L 739.000793 249.70992 
L 740.23905 255.475092 
L 741.477307 268.498675 
L 745.192079 324.309066 
L 746.430336 337.05228 
L 747.668594 344.770711 
L 748.906851 348.655707 
L 750.145108 350.452865 
L 751.383366 350.977732 
L 752.621623 350.652906 
L 753.85988 350.807575 
L 755.098137 352.859595 
L 756.336395 357.422433 
L 757.574652 364.70258 
L 760.051166 382.664868 
L 761.289424 388.780976 
L 762.527681 391.436717 
L 763.765938 390.835355 
L 765.004195 387.438327 
L 767.48071 376.597151 
L 768.718967 372.510288 
L 769.957225 370.773809 
L 771.195482 371.799095 
L 772.433739 376.105012 
L 773.671996 383.612664 
L 774.910254 392.563684 
L 776.148511 399.946516 
L 777.386768 403.544716 
L 778.625025 403.430113 
L 779.863283 401.176826 
L 781.10154 398.369168 
L 782.339797 396.230374 
L 783.578054 395.584482 
L 784.816312 396.60981 
L 786.054569 398.826496 
L 787.292826 401.35314 
L 789.769341 405.637344 
L 791.007598 407.389324 
L 792.245855 408.125418 
L 793.484113 407.674509 
L 794.72237 406.904928 
L 795.960627 406.605151 
L 797.198884 406.832668 
L 798.437142 406.925629 
L 799.675399 405.96852 
L 800.913656 404.062509 
L 802.151914 402.585798 
L 803.390171 403.044442 
L 804.628428 406.116253 
L 807.104943 416.311902 
L 808.3432 420.522999 
L 809.581457 422.958204 
L 810.819714 423.051398 
L 812.057972 421.125056 
L 815.772743 412.943663 
L 818.249258 406.520875 
L 819.487515 404.306913 
L 820.725773 402.827526 
L 821.96403 400.90384 
L 824.440544 395.561451 
L 825.678802 394.60572 
L 826.917059 395.653569 
L 828.155316 398.124445 
L 829.393573 400.930976 
L 830.631831 402.762969 
L 831.870088 403.117933 
L 833.108345 403.274394 
L 834.346602 404.99547 
L 835.58486 408.049616 
L 836.823117 410.005525 
L 838.061374 408.862053 
L 839.299632 405.492212 
L 840.537889 402.754025 
L 841.776146 402.151751 
L 845.490918 403.767689 
L 846.729175 405.474006 
L 847.967432 407.982758 
L 849.20569 410.13177 
L 850.443947 411.12551 
L 851.682204 411.064142 
L 852.920461 410.07513 
L 854.158719 408.163504 
L 855.396976 406.022241 
L 857.873491 402.867406 
L 860.350005 398.815933 
L 861.588262 397.182736 
L 862.82652 396.098293 
L 864.064777 395.7946 
L 865.303034 396.635767 
L 867.779549 400.255644 
L 869.017806 400.825851 
L 870.256063 399.799961 
L 871.49432 398.221042 
L 872.732578 397.70418 
L 873.970835 398.909196 
L 875.209092 401.15046 
L 876.44735 403.660858 
L 877.685607 406.850023 
L 878.923864 411.513614 
L 880.162121 416.844228 
L 881.400379 420.676284 
L 882.638636 421.777909 
L 883.876893 420.508059 
L 885.11515 417.763259 
L 886.353408 414.507845 
L 887.591665 411.648778 
L 888.829922 409.638574 
L 891.306437 406.792343 
L 892.544694 404.905688 
L 893.782951 403.26148 
L 895.021209 402.612979 
L 896.259466 402.793055 
L 897.497723 403.216528 
L 898.73598 403.357325 
L 899.974238 402.292056 
L 901.212495 399.290429 
L 902.450752 395.176664 
L 903.689009 391.855913 
L 904.927267 390.875938 
L 906.165524 392.647255 
L 907.403781 396.086638 
L 908.642039 399.120813 
L 909.880296 399.949083 
L 911.118553 398.181095 
L 912.35681 394.842713 
L 914.833325 387.703135 
L 916.071582 384.791952 
L 917.309839 382.662039 
L 918.548097 381.685833 
L 919.786354 382.254533 
L 921.024611 384.429124 
L 923.501126 390.575759 
L 924.739383 392.619385 
L 925.97764 393.340125 
L 927.215898 392.592976 
L 928.454155 390.370268 
L 930.930669 384.058459 
L 934.645441 375.838766 
L 935.883698 373.904982 
L 937.121956 373.186247 
L 938.360213 373.244346 
L 939.59847 372.87138 
L 940.836727 371.327547 
L 943.313242 366.762621 
L 944.551499 364.815795 
L 945.789757 362.452991 
L 947.028014 358.13201 
L 948.266271 350.857761 
L 950.742786 332.144435 
L 951.981043 326.982253 
L 953.2193 327.564933 
L 954.457557 332.559014 
L 956.934072 345.484809 
L 958.172329 351.665875 
L 960.648844 366.180181 
L 961.887101 371.906648 
L 963.125358 374.311774 
L 964.363616 373.534382 
L 966.84013 368.678976 
L 968.078387 367.426986 
L 969.316645 367.736122 
L 970.554902 369.703216 
L 971.793159 373.194291 
L 973.031416 377.207694 
L 974.269674 380.08853 
L 975.507931 380.989949 
L 976.746188 380.521784 
L 977.984446 379.738943 
L 979.222703 379.198158 
L 980.46096 379.207929 
L 981.699217 379.749889 
L 982.937475 379.900797 
L 984.175732 378.415926 
L 985.413989 374.906345 
L 986.652246 370.505492 
L 987.890504 367.345468 
L 989.128761 366.663158 
L 990.367018 367.733499 
L 991.605275 369.019405 
L 992.843533 370.000843 
L 994.08179 371.364856 
L 995.320047 373.296568 
L 996.558305 374.749884 
L 997.796562 374.93712 
L 999.034819 374.635688 
L 1000.273076 375.728439 
L 1001.511334 379.352522 
L 1002.749591 384.430283 
L 1003.987848 388.762657 
L 1005.226105 391.440013 
L 1006.464363 393.225423 
L 1007.70262 394.726212 
L 1008.940877 395.325499 
L 1010.179134 394.353763 
L 1011.417392 392.177972 
L 1012.655649 389.347498 
L 1013.893906 385.611988 
L 1017.608678 371.160138 
L 1018.846935 368.20268 
L 1020.085193 365.976906 
L 1021.32345 364.298621 
L 1022.561707 363.76414 
L 1023.799964 365.021508 
L 1025.038222 367.466009 
L 1026.276479 369.111902 
L 1027.514736 368.41217 
L 1028.752993 365.4831 
L 1029.991251 361.113978 
L 1031.229508 355.725246 
L 1033.706023 343.76663 
L 1034.94428 338.837117 
L 1036.182537 335.625302 
L 1037.420794 333.569329 
L 1038.659052 331.260798 
L 1039.897309 327.856935 
L 1042.373823 319.508532 
L 1043.612081 316.660985 
L 1044.850338 314.982001 
L 1046.088595 313.80454 
L 1047.326852 312.199081 
L 1048.56511 308.778922 
L 1049.803367 302.918253 
L 1051.041624 295.901057 
L 1052.279882 289.738569 
L 1053.518139 285.70062 
L 1054.756396 284.396656 
L 1055.994653 286.315323 
L 1057.232911 291.778511 
L 1058.471168 300.420646 
L 1060.947682 320.25719 
L 1062.18594 327.304055 
L 1063.424197 331.431325 
L 1064.662454 333.489168 
L 1065.900711 335.240401 
L 1067.138969 337.989689 
L 1068.377226 341.653008 
L 1069.615483 345.973132 
L 1072.091998 356.474752 
L 1073.330255 360.446541 
L 1074.568512 361.992953 
L 1075.80677 361.611196 
L 1077.045027 360.991518 
L 1078.283284 361.735353 
L 1079.521541 364.131963 
L 1081.998056 370.467836 
L 1084.474571 376.117176 
L 1085.712828 378.676065 
L 1086.951085 380.236023 
L 1088.189342 380.319987 
L 1089.4276 378.815551 
L 1090.665857 375.222668 
L 1091.904114 369.197306 
L 1094.380629 353.67092 
L 1095.618886 347.397168 
L 1096.857143 344.236829 
L 1098.0954 345.310721 
L 1099.333658 350.545544 
L 1101.810172 365.52122 
L 1103.04843 371.079773 
L 1104.286687 375.075264 
L 1105.524944 378.32877 
L 1106.763201 380.83023 
L 1108.001459 381.774907 
L 1109.239716 380.619562 
L 1110.477973 377.73798 
L 1111.71623 373.526617 
L 1112.954488 367.812266 
L 1114.192745 361.071156 
L 1115.431002 354.980189 
L 1116.669259 351.077165 
L 1119.145774 347.298551 
L 1120.384031 343.63446 
L 1125.33706 322.660368 
L 1126.575318 316.200664 
L 1127.813575 307.821479 
L 1130.290089 288.678966 
L 1131.528347 281.000221 
L 1132.766604 275.427757 
L 1134.004861 271.53834 
L 1135.243118 269.242529 
L 1136.481376 268.944259 
L 1138.95789 271.75329 
L 1140.196148 271.406217 
L 1142.672662 266.710365 
L 1143.910919 266.088041 
L 1145.149177 267.052435 
L 1146.387434 267.151677 
L 1147.625691 264.042592 
L 1148.863948 257.793515 
L 1151.340463 243.286785 
L 1155.055235 223.777092 
L 1156.293492 218.07252 
L 1157.531749 214.291332 
L 1158.770007 213.737316 
L 1160.008264 217.072224 
L 1163.723036 234.935095 
L 1164.961293 237.445271 
L 1166.19955 236.95788 
L 1167.437807 234.720205 
L 1168.676065 233.329136 
L 1169.914322 234.206252 
L 1171.152579 236.19053 
L 1172.390837 237.524468 
L 1173.629094 238.13677 
L 1174.867351 239.382393 
L 1176.105608 241.899248 
L 1177.343866 244.141797 
L 1178.582123 243.556974 
L 1179.82038 239.178193 
L 1181.058637 232.55108 
L 1182.296895 226.627969 
L 1183.535152 224.271134 
L 1184.773409 226.650516 
L 1186.011666 232.136202 
L 1187.249924 237.105821 
L 1188.488181 238.660931 
L 1189.726438 236.679389 
L 1190.964696 232.792177 
L 1192.202953 228.04657 
L 1193.44121 222.261754 
L 1195.917725 208.075448 
L 1197.155982 202.265607 
L 1198.394239 198.516186 
L 1199.632496 197.361043 
L 1200.870754 199.916543 
L 1202.109011 206.517807 
L 1204.585525 223.381159 
L 1207.06204 235.896306 
L 1208.300297 243.730861 
L 1210.776812 261.059079 
L 1212.015069 268.410893 
L 1213.253326 274.282681 
L 1214.491584 278.305398 
L 1216.968098 283.5458 
L 1218.206355 288.096185 
L 1221.921127 307.21205 
L 1223.159384 311.367271 
L 1224.397642 312.683782 
L 1225.635899 310.372209 
L 1226.874156 304.956171 
L 1228.112414 298.436301 
L 1229.350671 293.374384 
L 1230.588928 291.505567 
L 1231.827185 293.495336 
L 1233.065443 299.883017 
L 1234.3037 310.510245 
L 1235.541957 322.666966 
L 1236.780214 331.74727 
L 1238.018472 334.666169 
L 1239.256729 331.968031 
L 1240.494986 327.136492 
L 1241.733243 324.414973 
L 1242.971501 325.840287 
L 1246.686273 338.384617 
L 1247.92453 340.61475 
L 1249.162787 340.214892 
L 1250.401044 336.787998 
L 1254.115816 320.883803 
L 1255.354073 317.543284 
L 1256.592331 316.444319 
L 1257.830588 317.266722 
L 1259.068845 319.21486 
L 1260.307103 322.195351 
L 1261.54536 326.162973 
L 1264.021874 334.763361 
L 1265.260132 338.372659 
L 1266.498389 340.345608 
L 1267.736646 339.762923 
L 1268.974903 336.699454 
L 1273.927932 319.386598 
L 1275.16619 313.392493 
L 1276.404447 305.665133 
L 1280.119219 279.878776 
L 1281.357476 273.358308 
L 1282.595733 270.390012 
L 1283.833991 271.501591 
L 1285.072248 276.525875 
L 1286.310505 284.614779 
L 1288.78702 302.297024 
L 1290.025277 308.832376 
L 1291.263534 313.161006 
L 1293.740049 318.905587 
L 1296.216563 326.466511 
L 1297.454821 328.038481 
L 1298.693078 327.561151 
L 1299.931335 326.854343 
L 1301.169592 327.212927 
L 1302.40785 327.974333 
L 1303.646107 327.483536 
L 1304.884364 324.751817 
L 1307.360879 315.094094 
L 1308.599136 311.755564 
L 1309.837393 311.866113 
L 1311.07565 316.064751 
L 1312.313908 323.681895 
L 1313.552165 332.899873 
L 1314.790422 341.202988 
L 1316.02868 346.679336 
L 1317.266937 349.383827 
L 1318.505194 350.87412 
L 1319.743451 352.795023 
L 1320.981709 356.167062 
L 1323.458223 365.658853 
L 1324.69648 369.331633 
L 1325.934738 371.336394 
L 1327.172995 371.429022 
L 1328.411252 368.943326 
L 1329.649509 362.816305 
L 1330.887767 352.834462 
L 1333.364281 328.739275 
L 1334.602539 319.641321 
L 1335.840796 315.052041 
L 1337.079053 315.579896 
L 1338.31731 320.081327 
L 1339.555568 325.795128 
L 1340.793825 330.300221 
L 1342.032082 334.032202 
L 1343.270339 339.741767 
L 1344.508597 348.826063 
L 1345.746854 358.875652 
L 1346.985111 365.862477 
L 1348.223368 368.232267 
L 1349.461626 367.509607 
L 1350.699883 366.048733 
L 1353.176398 364.260047 
L 1354.414655 363.310533 
L 1355.652912 363.358937 
L 1356.891169 365.487928 
L 1358.129427 369.156699 
L 1359.367684 372.178062 
L 1360.605941 371.77667 
L 1361.844198 366.294189 
L 1363.082456 356.349714 
L 1364.320713 344.779792 
L 1365.55897 335.423617 
L 1366.797228 331.332371 
L 1368.035485 333.477607 
L 1369.273742 340.169242 
L 1370.511999 347.678517 
L 1371.750257 352.389954 
L 1372.988514 352.529442 
L 1374.226771 348.125945 
L 1375.465028 340.270103 
L 1376.703286 330.861713 
L 1377.941543 322.70193 
L 1379.1798 318.35359 
L 1380.418057 317.776872 
L 1381.656315 317.815169 
L 1382.894572 315.004205 
L 1384.132829 308.76117 
L 1385.371087 301.452431 
L 1386.609344 295.988659 
L 1387.847601 294.135588 
L 1389.085858 296.307987 
L 1390.324116 301.60689 
L 1391.562373 308.100287 
L 1392.80063 313.896989 
L 1394.038887 318.289779 
L 1395.277145 321.910367 
L 1396.515402 325.989151 
L 1397.753659 331.390112 
L 1398.991916 338.252836 
L 1402.706688 362.377888 
L 1403.944946 365.819929 
L 1405.183203 365.317343 
L 1406.42146 362.253245 
L 1411.374489 345.136884 
L 1413.851004 338.295219 
L 1415.089261 335.387867 
L 1416.327518 333.430093 
L 1417.565775 333.255774 
L 1418.804033 334.940699 
L 1421.280547 340.581544 
L 1422.518805 341.571578 
L 1423.757062 339.062359 
L 1424.995319 334.060458 
L 1426.233576 330.500258 
L 1427.471834 331.87984 
L 1428.710091 338.211277 
L 1429.948348 346.478694 
L 1431.186605 353.388259 
L 1432.424863 357.361284 
L 1433.66312 358.649123 
L 1434.901377 358.598847 
L 1436.139634 358.695958 
L 1437.377892 359.424725 
L 1438.616149 359.781391 
L 1439.854406 358.505906 
L 1441.092664 355.998651 
L 1442.330921 354.049671 
L 1443.569178 353.469907 
L 1444.807435 353.301329 
L 1446.045693 352.551038 
L 1447.28395 351.472569 
L 1448.522207 350.734359 
L 1449.760464 350.30863 
L 1450.998722 349.736229 
L 1452.236979 348.384987 
L 1453.475236 345.212512 
L 1455.951751 334.304797 
L 1457.190008 331.571273 
L 1458.428265 333.037989 
L 1460.90478 342.057624 
L 1462.143037 344.898358 
L 1463.381294 345.647269 
L 1464.619552 345.111763 
L 1467.096066 343.08076 
L 1468.334323 343.051612 
L 1469.572581 344.676545 
L 1470.810838 348.468458 
L 1474.52561 365.287853 
L 1475.763867 367.021091 
L 1477.002124 364.251208 
L 1478.240382 356.881714 
L 1480.716896 335.888931 
L 1481.955153 327.017441 
L 1483.193411 320.749927 
L 1484.431668 316.884582 
L 1485.669925 314.452531 
L 1486.908182 311.724904 
L 1488.14644 307.069901 
L 1489.384697 299.665154 
L 1490.622954 289.378136 
L 1491.861212 276.407043 
L 1493.099469 260.883873 
L 1495.575983 225.780583 
L 1496.814241 212.438877 
L 1498.052498 207.245112 
L 1499.290755 211.249956 
L 1501.76727 232.709462 
L 1503.005527 238.481812 
L 1504.243784 235.168559 
L 1505.482041 222.427375 
L 1506.720299 201.997462 
L 1509.196813 154.663821 
L 1510.435071 141.437516 
L 1511.673328 139.78132 
L 1514.149842 149.584279 
L 1515.3881 150.194757 
L 1516.626357 145.580585 
L 1519.102871 129.383154 
L 1520.341129 126.161444 
L 1521.579386 130.513172 
L 1522.817643 141.346135 
L 1524.0559 153.652256 
L 1525.294158 161.587513 
L 1526.532415 162.660666 
L 1527.770672 159.531337 
L 1529.00893 157.484183 
L 1530.247187 159.796113 
L 1532.723701 171.059753 
L 1533.961959 173.999147 
L 1535.200216 173.671331 
L 1536.438473 170.178959 
L 1537.67673 163.76704 
L 1538.914988 155.860995 
L 1540.153245 148.788286 
L 1541.391502 143.687073 
L 1542.62976 140.473061 
L 1543.868017 140.063329 
L 1545.106274 144.449755 
L 1546.344531 154.274221 
L 1547.582789 167.849712 
L 1550.059303 198.478289 
L 1553.774075 246.405765 
L 1555.012332 257.603538 
L 1556.250589 263.922096 
L 1557.488847 264.436509 
L 1558.727104 258.634432 
L 1559.965361 247.866088 
L 1561.203619 235.551902 
L 1562.441876 225.475907 
L 1563.680133 220.179018 
L 1564.91839 220.383745 
L 1566.156648 225.620797 
L 1568.633162 243.771916 
L 1569.871419 249.807999 
L 1571.109677 251.567663 
L 1572.347934 250.650722 
L 1573.586191 248.723496 
L 1576.062706 244.382403 
L 1577.300963 242.568455 
L 1578.53922 241.000131 
L 1579.777478 238.820331 
L 1581.015735 234.207902 
L 1583.492249 218.36921 
L 1584.730507 213.484993 
L 1585.968764 213.309313 
L 1587.207021 216.882158 
L 1588.445278 223.166901 
L 1590.921793 240.409807 
L 1592.16005 246.282264 
L 1593.398307 246.551954 
L 1594.636565 241.188978 
L 1597.113079 223.653753 
L 1598.351337 217.080271 
L 1599.589594 214.476144 
L 1600.827851 215.748354 
L 1602.066108 218.350146 
L 1603.304366 218.705371 
L 1604.542623 215.011872 
L 1605.78088 207.637136 
L 1607.019137 197.349022 
L 1609.495652 172.939443 
L 1610.733909 162.285337 
L 1611.972166 154.53933 
L 1613.210424 150.681032 
L 1614.448681 150.188304 
L 1615.686938 150.884979 
L 1616.925196 150.048892 
L 1618.163453 145.636757 
L 1619.40171 137.33233 
L 1621.878225 116.330594 
L 1623.116482 108.909262 
L 1624.354739 105.404672 
L 1625.592996 105.036879 
L 1626.831254 106.503966 
L 1629.307768 111.457949 
L 1630.546026 111.63674 
L 1631.784283 107.022818 
L 1634.260797 88.519942 
L 1635.499055 81.423163 
L 1636.737312 77.524178 
L 1637.975569 74.379849 
L 1639.213826 68.580998 
L 1640.452084 59.229249 
L 1641.690341 47.979282 
L 1641.690341 47.979282 
" style="fill:none;stroke:#008000;stroke-linecap:square;stroke-width:1.5;"/>
   </g>
   <g id="patch_3">
    <path d="M 43.78125 586.86358 
L 43.78125 22.318125 
" style="fill:none;stroke:#000000;stroke-linecap:square;stroke-linejoin:miter;stroke-width:0.8;"/>
   </g>
   <g id="patch_4">
    <path d="M 1717.78125 586.86358 
L 1717.78125 22.318125 
" style="fill:none;stroke:#000000;stroke-linecap:square;stroke-linejoin:miter;stroke-width:0.8;"/>
   </g>
   <g id="patch_5">
    <path d="M 43.78125 586.86358 
L 1717.78125 586.86358 
" style="fill:none;stroke:#000000;stroke-linecap:square;stroke-linejoin:miter;stroke-width:0.8;"/>
   </g>
   <g id="patch_6">
    <path d="M 43.78125 22.318125 
L 1717.78125 22.318125 
" style="fill:none;stroke:#000000;stroke-linecap:square;stroke-linejoin:miter;stroke-width:0.8;"/>
   </g>
   <g id="text_17">
    <!-- before binarisation -->
    <g transform="translate(824.1825 16.318125)scale(0.12 -0.12)">
     <defs>
      <path d="M 3116 1747 
Q 3116 2381 2855 2742 
Q 2594 3103 2138 3103 
Q 1681 3103 1420 2742 
Q 1159 2381 1159 1747 
Q 1159 1113 1420 752 
Q 1681 391 2138 391 
Q 2594 391 2855 752 
Q 3116 1113 3116 1747 
z
M 1159 2969 
Q 1341 3281 1617 3432 
Q 1894 3584 2278 3584 
Q 2916 3584 3314 3078 
Q 3713 2572 3713 1747 
Q 3713 922 3314 415 
Q 2916 -91 2278 -91 
Q 1894 -91 1617 61 
Q 1341 213 1159 525 
L 1159 0 
L 581 0 
L 581 4863 
L 1159 4863 
L 1159 2969 
z
" id="DejaVuSans-62" transform="scale(0.015625)"/>
      <path d="M 1959 3097 
Q 1497 3097 1228 2736 
Q 959 2375 959 1747 
Q 959 1119 1226 758 
Q 1494 397 1959 397 
Q 2419 397 2687 759 
Q 2956 1122 2956 1747 
Q 2956 2369 2687 2733 
Q 2419 3097 1959 3097 
z
M 1959 3584 
Q 2709 3584 3137 3096 
Q 3566 2609 3566 1747 
Q 3566 888 3137 398 
Q 2709 -91 1959 -91 
Q 1206 -91 779 398 
Q 353 888 353 1747 
Q 353 2609 779 3096 
Q 1206 3584 1959 3584 
z
" id="DejaVuSans-6f" transform="scale(0.015625)"/>
      <path id="DejaVuSans-20" transform="scale(0.015625)"/>
      <path d="M 603 3500 
L 1178 3500 
L 1178 0 
L 603 0 
L 603 3500 
z
M 603 4863 
L 1178 4863 
L 1178 4134 
L 603 4134 
L 603 4863 
z
" id="DejaVuSans-69" transform="scale(0.015625)"/>
      <path d="M 3513 2113 
L 3513 0 
L 2938 0 
L 2938 2094 
Q 2938 2591 2744 2837 
Q 2550 3084 2163 3084 
Q 1697 3084 1428 2787 
Q 1159 2491 1159 1978 
L 1159 0 
L 581 0 
L 581 3500 
L 1159 3500 
L 1159 2956 
Q 1366 3272 1645 3428 
Q 1925 3584 2291 3584 
Q 2894 3584 3203 3211 
Q 3513 2838 3513 2113 
z
" id="DejaVuSans-6e" transform="scale(0.015625)"/>
      <path d="M 2834 3397 
L 2834 2853 
Q 2591 2978 2328 3040 
Q 2066 3103 1784 3103 
Q 1356 3103 1142 2972 
Q 928 2841 928 2578 
Q 928 2378 1081 2264 
Q 1234 2150 1697 2047 
L 1894 2003 
Q 2506 1872 2764 1633 
Q 3022 1394 3022 966 
Q 3022 478 2636 193 
Q 2250 -91 1575 -91 
Q 1294 -91 989 -36 
Q 684 19 347 128 
L 347 722 
Q 666 556 975 473 
Q 1284 391 1588 391 
Q 1994 391 2212 530 
Q 2431 669 2431 922 
Q 2431 1156 2273 1281 
Q 2116 1406 1581 1522 
L 1381 1569 
Q 847 1681 609 1914 
Q 372 2147 372 2553 
Q 372 3047 722 3315 
Q 1072 3584 1716 3584 
Q 2034 3584 2315 3537 
Q 2597 3491 2834 3397 
z
" id="DejaVuSans-73" transform="scale(0.015625)"/>
      <path d="M 1172 4494 
L 1172 3500 
L 2356 3500 
L 2356 3053 
L 1172 3053 
L 1172 1153 
Q 1172 725 1289 603 
Q 1406 481 1766 481 
L 2356 481 
L 2356 0 
L 1766 0 
Q 1100 0 847 248 
Q 594 497 594 1153 
L 594 3053 
L 172 3053 
L 172 3500 
L 594 3500 
L 594 4494 
L 1172 4494 
z
" id="DejaVuSans-74" transform="scale(0.015625)"/>
     </defs>
     <use xlink:href="#DejaVuSans-62"/>
     <use x="63.476562" xlink:href="#DejaVuSans-65"/>
     <use x="125" xlink:href="#DejaVuSans-66"/>
     <use x="160.205078" xlink:href="#DejaVuSans-6f"/>
     <use x="221.386719" xlink:href="#DejaVuSans-72"/>
     <use x="260.25" xlink:href="#DejaVuSans-65"/>
     <use x="321.773438" xlink:href="#DejaVuSans-20"/>
     <use x="353.560547" xlink:href="#DejaVuSans-62"/>
     <use x="417.037109" xlink:href="#DejaVuSans-69"/>
     <use x="444.820312" xlink:href="#DejaVuSans-6e"/>
     <use x="508.199219" xlink:href="#DejaVuSans-61"/>
     <use x="569.478516" xlink:href="#DejaVuSans-72"/>
     <use x="610.591797" xlink:href="#DejaVuSans-69"/>
     <use x="638.375" xlink:href="#DejaVuSans-73"/>
     <use x="690.474609" xlink:href="#DejaVuSans-61"/>
     <use x="751.753906" xlink:href="#DejaVuSans-74"/>
     <use x="790.962891" xlink:href="#DejaVuSans-69"/>
     <use x="818.746094" xlink:href="#DejaVuSans-6f"/>
     <use x="879.927734" xlink:href="#DejaVuSans-6e"/>
    </g>
   </g>
  </g>
  <g id="axes_2">
   <g id="patch_7">
    <path d="M 43.78125 1264.318125 
L 1717.78125 1264.318125 
L 1717.78125 699.77267 
L 43.78125 699.77267 
z
" style="fill:#ffffff;"/>
   </g>
   <g id="matplotlib.axis_3">
    <g id="xtick_8">
     <g id="line2d_16">
      <g>
       <use style="stroke:#000000;stroke-width:0.8;" x="119.872159" xlink:href="#m9067fb2523" y="1264.318125"/>
      </g>
     </g>
     <g id="text_18">
      <!-- 0 -->
      <g transform="translate(116.690909 1278.916563)scale(0.1 -0.1)">
       <use xlink:href="#DejaVuSans-30"/>
      </g>
     </g>
    </g>
    <g id="xtick_9">
     <g id="line2d_17">
      <g>
       <use style="stroke:#000000;stroke-width:0.8;" x="367.523613" xlink:href="#m9067fb2523" y="1264.318125"/>
      </g>
     </g>
     <g id="text_19">
      <!-- 200 -->
      <g transform="translate(357.979863 1278.916563)scale(0.1 -0.1)">
       <use xlink:href="#DejaVuSans-32"/>
       <use x="63.623047" xlink:href="#DejaVuSans-30"/>
       <use x="127.246094" xlink:href="#DejaVuSans-30"/>
      </g>
     </g>
    </g>
    <g id="xtick_10">
     <g id="line2d_18">
      <g>
       <use style="stroke:#000000;stroke-width:0.8;" x="615.175066" xlink:href="#m9067fb2523" y="1264.318125"/>
      </g>
     </g>
     <g id="text_20">
      <!-- 400 -->
      <g transform="translate(605.631316 1278.916563)scale(0.1 -0.1)">
       <use xlink:href="#DejaVuSans-34"/>
       <use x="63.623047" xlink:href="#DejaVuSans-30"/>
       <use x="127.246094" xlink:href="#DejaVuSans-30"/>
      </g>
     </g>
    </g>
    <g id="xtick_11">
     <g id="line2d_19">
      <g>
       <use style="stroke:#000000;stroke-width:0.8;" x="862.82652" xlink:href="#m9067fb2523" y="1264.318125"/>
      </g>
     </g>
     <g id="text_21">
      <!-- 600 -->
      <g transform="translate(853.28277 1278.916563)scale(0.1 -0.1)">
       <use xlink:href="#DejaVuSans-36"/>
       <use x="63.623047" xlink:href="#DejaVuSans-30"/>
       <use x="127.246094" xlink:href="#DejaVuSans-30"/>
      </g>
     </g>
    </g>
    <g id="xtick_12">
     <g id="line2d_20">
      <g>
       <use style="stroke:#000000;stroke-width:0.8;" x="1110.477973" xlink:href="#m9067fb2523" y="1264.318125"/>
      </g>
     </g>
     <g id="text_22">
      <!-- 800 -->
      <g transform="translate(1100.934223 1278.916563)scale(0.1 -0.1)">
       <use xlink:href="#DejaVuSans-38"/>
       <use x="63.623047" xlink:href="#DejaVuSans-30"/>
       <use x="127.246094" xlink:href="#DejaVuSans-30"/>
      </g>
     </g>
    </g>
    <g id="xtick_13">
     <g id="line2d_21">
      <g>
       <use style="stroke:#000000;stroke-width:0.8;" x="1358.129427" xlink:href="#m9067fb2523" y="1264.318125"/>
      </g>
     </g>
     <g id="text_23">
      <!-- 1000 -->
      <g transform="translate(1345.404427 1278.916563)scale(0.1 -0.1)">
       <use xlink:href="#DejaVuSans-31"/>
       <use x="63.623047" xlink:href="#DejaVuSans-30"/>
       <use x="127.246094" xlink:href="#DejaVuSans-30"/>
       <use x="190.869141" xlink:href="#DejaVuSans-30"/>
      </g>
     </g>
    </g>
    <g id="xtick_14">
     <g id="line2d_22">
      <g>
       <use style="stroke:#000000;stroke-width:0.8;" x="1605.78088" xlink:href="#m9067fb2523" y="1264.318125"/>
      </g>
     </g>
     <g id="text_24">
      <!-- 1200 -->
      <g transform="translate(1593.05588 1278.916563)scale(0.1 -0.1)">
       <use xlink:href="#DejaVuSans-31"/>
       <use x="63.623047" xlink:href="#DejaVuSans-32"/>
       <use x="127.246094" xlink:href="#DejaVuSans-30"/>
       <use x="190.869141" xlink:href="#DejaVuSans-30"/>
      </g>
     </g>
    </g>
    <g id="text_25">
     <!-- frame -->
     <g transform="translate(865.954687 1292.594688)scale(0.1 -0.1)">
      <use xlink:href="#DejaVuSans-66"/>
      <use x="35.205078" xlink:href="#DejaVuSans-72"/>
      <use x="76.318359" xlink:href="#DejaVuSans-61"/>
      <use x="137.597656" xlink:href="#DejaVuSans-6d"/>
      <use x="235.009766" xlink:href="#DejaVuSans-65"/>
     </g>
    </g>
   </g>
   <g id="matplotlib.axis_4">
    <g id="ytick_8">
     <g id="line2d_23">
      <g>
       <use style="stroke:#000000;stroke-width:0.8;" x="43.78125" xlink:href="#meb59ef9512" y="1238.656968"/>
      </g>
     </g>
     <g id="text_26">
      <!-- 0.0 -->
      <g transform="translate(20.878125 1242.456187)scale(0.1 -0.1)">
       <use xlink:href="#DejaVuSans-30"/>
       <use x="63.623047" xlink:href="#DejaVuSans-2e"/>
       <use x="95.410156" xlink:href="#DejaVuSans-30"/>
      </g>
     </g>
    </g>
    <g id="ytick_9">
     <g id="line2d_24">
      <g>
       <use style="stroke:#000000;stroke-width:0.8;" x="43.78125" xlink:href="#meb59ef9512" y="1136.01234"/>
      </g>
     </g>
     <g id="text_27">
      <!-- 0.2 -->
      <g transform="translate(20.878125 1139.811559)scale(0.1 -0.1)">
       <use xlink:href="#DejaVuSans-30"/>
       <use x="63.623047" xlink:href="#DejaVuSans-2e"/>
       <use x="95.410156" xlink:href="#DejaVuSans-32"/>
      </g>
     </g>
    </g>
    <g id="ytick_10">
     <g id="line2d_25">
      <g>
       <use style="stroke:#000000;stroke-width:0.8;" x="43.78125" xlink:href="#meb59ef9512" y="1033.367712"/>
      </g>
     </g>
     <g id="text_28">
      <!-- 0.4 -->
      <g transform="translate(20.878125 1037.166931)scale(0.1 -0.1)">
       <use xlink:href="#DejaVuSans-30"/>
       <use x="63.623047" xlink:href="#DejaVuSans-2e"/>
       <use x="95.410156" xlink:href="#DejaVuSans-34"/>
      </g>
     </g>
    </g>
    <g id="ytick_11">
     <g id="line2d_26">
      <g>
       <use style="stroke:#000000;stroke-width:0.8;" x="43.78125" xlink:href="#meb59ef9512" y="930.723084"/>
      </g>
     </g>
     <g id="text_29">
      <!-- 0.6 -->
      <g transform="translate(20.878125 934.522302)scale(0.1 -0.1)">
       <use xlink:href="#DejaVuSans-30"/>
       <use x="63.623047" xlink:href="#DejaVuSans-2e"/>
       <use x="95.410156" xlink:href="#DejaVuSans-36"/>
      </g>
     </g>
    </g>
    <g id="ytick_12">
     <g id="line2d_27">
      <g>
       <use style="stroke:#000000;stroke-width:0.8;" x="43.78125" xlink:href="#meb59ef9512" y="828.078456"/>
      </g>
     </g>
     <g id="text_30">
      <!-- 0.8 -->
      <g transform="translate(20.878125 831.877674)scale(0.1 -0.1)">
       <use xlink:href="#DejaVuSans-30"/>
       <use x="63.623047" xlink:href="#DejaVuSans-2e"/>
       <use x="95.410156" xlink:href="#DejaVuSans-38"/>
      </g>
     </g>
    </g>
    <g id="ytick_13">
     <g id="line2d_28">
      <g>
       <use style="stroke:#000000;stroke-width:0.8;" x="43.78125" xlink:href="#meb59ef9512" y="725.433827"/>
      </g>
     </g>
     <g id="text_31">
      <!-- 1.0 -->
      <g transform="translate(20.878125 729.233046)scale(0.1 -0.1)">
       <use xlink:href="#DejaVuSans-31"/>
       <use x="63.623047" xlink:href="#DejaVuSans-2e"/>
       <use x="95.410156" xlink:href="#DejaVuSans-30"/>
      </g>
     </g>
    </g>
    <g id="text_32">
     <!-- GCaMP -->
     <g transform="translate(14.798437 999.803991)rotate(-90)scale(0.1 -0.1)">
      <use xlink:href="#DejaVuSans-47"/>
      <use x="77.490234" xlink:href="#DejaVuSans-43"/>
      <use x="147.314453" xlink:href="#DejaVuSans-61"/>
      <use x="208.59375" xlink:href="#DejaVuSans-4d"/>
      <use x="294.873047" xlink:href="#DejaVuSans-50"/>
     </g>
    </g>
   </g>
   <g id="line2d_29">
    <path clip-path="url(#p3a5fd9da89)" d="M 119.872159 1238.656968 
L 670.896643 1238.656968 
L 672.1349 725.433827 
L 708.044361 725.433827 
L 709.282618 1238.656968 
L 711.759133 1238.656968 
L 712.99739 725.433827 
L 740.23905 725.433827 
L 741.477307 1238.656968 
L 1146.387434 1238.656968 
L 1147.625691 725.433827 
L 1210.776812 725.433827 
L 1212.015069 1238.656968 
L 1491.861212 1238.656968 
L 1493.099469 725.433827 
L 1641.690341 725.433827 
L 1641.690341 725.433827 
" style="fill:none;stroke:#008000;stroke-linecap:square;stroke-width:1.5;"/>
   </g>
   <g id="patch_8">
    <path d="M 43.78125 1264.318125 
L 43.78125 699.77267 
" style="fill:none;stroke:#000000;stroke-linecap:square;stroke-linejoin:miter;stroke-width:0.8;"/>
   </g>
   <g id="patch_9">
    <path d="M 1717.78125 1264.318125 
L 1717.78125 699.77267 
" style="fill:none;stroke:#000000;stroke-linecap:square;stroke-linejoin:miter;stroke-width:0.8;"/>
   </g>
   <g id="patch_10">
    <path d="M 43.78125 1264.318125 
L 1717.78125 1264.318125 
" style="fill:none;stroke:#000000;stroke-linecap:square;stroke-linejoin:miter;stroke-width:0.8;"/>
   </g>
   <g id="patch_11">
    <path d="M 43.78125 699.77267 
L 1717.78125 699.77267 
" style="fill:none;stroke:#000000;stroke-linecap:square;stroke-linejoin:miter;stroke-width:0.8;"/>
   </g>
   <g id="text_33">
    <!-- before binarisation -->
    <g transform="translate(824.1825 693.77267)scale(0.12 -0.12)">
     <use xlink:href="#DejaVuSans-62"/>
     <use x="63.476562" xlink:href="#DejaVuSans-65"/>
     <use x="125" xlink:href="#DejaVuSans-66"/>
     <use x="160.205078" xlink:href="#DejaVuSans-6f"/>
     <use x="221.386719" xlink:href="#DejaVuSans-72"/>
     <use x="260.25" xlink:href="#DejaVuSans-65"/>
     <use x="321.773438" xlink:href="#DejaVuSans-20"/>
     <use x="353.560547" xlink:href="#DejaVuSans-62"/>
     <use x="417.037109" xlink:href="#DejaVuSans-69"/>
     <use x="444.820312" xlink:href="#DejaVuSans-6e"/>
     <use x="508.199219" xlink:href="#DejaVuSans-61"/>
     <use x="569.478516" xlink:href="#DejaVuSans-72"/>
     <use x="610.591797" xlink:href="#DejaVuSans-69"/>
     <use x="638.375" xlink:href="#DejaVuSans-73"/>
     <use x="690.474609" xlink:href="#DejaVuSans-61"/>
     <use x="751.753906" xlink:href="#DejaVuSans-74"/>
     <use x="790.962891" xlink:href="#DejaVuSans-69"/>
     <use x="818.746094" xlink:href="#DejaVuSans-6f"/>
     <use x="879.927734" xlink:href="#DejaVuSans-6e"/>
    </g>
   </g>
  </g>
 </g>
 <defs>
  <clipPath id="p097a6f23a5">
   <rect height="564.545455" width="1674" x="43.78125" y="22.318125"/>
  </clipPath>
  <clipPath id="p3a5fd9da89">
   <rect height="564.545455" width="1674" x="43.78125" y="699.77267"/>
  </clipPath>
 </defs>
</svg>
