<?xml version="1.0" encoding="utf-8" standalone="no"?>
<!DOCTYPE svg PUBLIC "-//W3C//DTD SVG 1.1//EN"
  "http://www.w3.org/Graphics/SVG/1.1/DTD/svg11.dtd">
<svg height="1301.874375pt" version="1.1" viewBox="0 0 1724.98125 1301.874375" width="1724.98125pt" xmlns="http://www.w3.org/2000/svg" xmlns:xlink="http://www.w3.org/1999/xlink">
 <metadata>
  <rdf:RDF xmlns:cc="http://creativecommons.org/ns#" xmlns:dc="http://purl.org/dc/elements/1.1/" xmlns:rdf="http://www.w3.org/1999/02/22-rdf-syntax-ns#">
   <cc:Work>
    <dc:type rdf:resource="http://purl.org/dc/dcmitype/StillImage"/>
    <dc:date>2022-07-24T15:54:34.633314</dc:date>
    <dc:format>image/svg+xml</dc:format>
    <dc:creator>
     <cc:Agent>
      <dc:title>Matplotlib v3.4.2, https://matplotlib.org/</dc:title>
     </cc:Agent>
    </dc:creator>
   </cc:Work>
  </rdf:RDF>
 </metadata>
 <defs>
  <style type="text/css">*{stroke-linecap:butt;stroke-linejoin:round;}</style>
 </defs>
 <g id="figure_1">
  <g id="patch_1">
   <path d="M 0 1301.874375 
L 1724.98125 1301.874375 
L 1724.98125 0 
L 0 0 
z
" style="fill:#ffffff;"/>
  </g>
  <g id="axes_1">
   <g id="patch_2">
    <path d="M 43.78125 586.86358 
L 1717.78125 586.86358 
L 1717.78125 22.318125 
L 43.78125 22.318125 
z
" style="fill:#ffffff;"/>
   </g>
   <g id="matplotlib.axis_1">
    <g id="xtick_1">
     <g id="line2d_1">
      <defs>
       <path d="M 0 0 
L 0 3.5 
" id="mb6a0b5ef70" style="stroke:#000000;stroke-width:0.8;"/>
      </defs>
      <g>
       <use style="stroke:#000000;stroke-width:0.8;" x="119.872159" xlink:href="#mb6a0b5ef70" y="586.86358"/>
      </g>
     </g>
     <g id="text_1">
      <!-- 0 -->
      <g transform="translate(116.690909 601.462017)scale(0.1 -0.1)">
       <defs>
        <path d="M 2034 4250 
Q 1547 4250 1301 3770 
Q 1056 3291 1056 2328 
Q 1056 1369 1301 889 
Q 1547 409 2034 409 
Q 2525 409 2770 889 
Q 3016 1369 3016 2328 
Q 3016 3291 2770 3770 
Q 2525 4250 2034 4250 
z
M 2034 4750 
Q 2819 4750 3233 4129 
Q 3647 3509 3647 2328 
Q 3647 1150 3233 529 
Q 2819 -91 2034 -91 
Q 1250 -91 836 529 
Q 422 1150 422 2328 
Q 422 3509 836 4129 
Q 1250 4750 2034 4750 
z
" id="DejaVuSans-30" transform="scale(0.015625)"/>
       </defs>
       <use xlink:href="#DejaVuSans-30"/>
      </g>
     </g>
    </g>
    <g id="xtick_2">
     <g id="line2d_2">
      <g>
       <use style="stroke:#000000;stroke-width:0.8;" x="367.523613" xlink:href="#mb6a0b5ef70" y="586.86358"/>
      </g>
     </g>
     <g id="text_2">
      <!-- 200 -->
      <g transform="translate(357.979863 601.462017)scale(0.1 -0.1)">
       <defs>
        <path d="M 1228 531 
L 3431 531 
L 3431 0 
L 469 0 
L 469 531 
Q 828 903 1448 1529 
Q 2069 2156 2228 2338 
Q 2531 2678 2651 2914 
Q 2772 3150 2772 3378 
Q 2772 3750 2511 3984 
Q 2250 4219 1831 4219 
Q 1534 4219 1204 4116 
Q 875 4013 500 3803 
L 500 4441 
Q 881 4594 1212 4672 
Q 1544 4750 1819 4750 
Q 2544 4750 2975 4387 
Q 3406 4025 3406 3419 
Q 3406 3131 3298 2873 
Q 3191 2616 2906 2266 
Q 2828 2175 2409 1742 
Q 1991 1309 1228 531 
z
" id="DejaVuSans-32" transform="scale(0.015625)"/>
       </defs>
       <use xlink:href="#DejaVuSans-32"/>
       <use x="63.623047" xlink:href="#DejaVuSans-30"/>
       <use x="127.246094" xlink:href="#DejaVuSans-30"/>
      </g>
     </g>
    </g>
    <g id="xtick_3">
     <g id="line2d_3">
      <g>
       <use style="stroke:#000000;stroke-width:0.8;" x="615.175066" xlink:href="#mb6a0b5ef70" y="586.86358"/>
      </g>
     </g>
     <g id="text_3">
      <!-- 400 -->
      <g transform="translate(605.631316 601.462017)scale(0.1 -0.1)">
       <defs>
        <path d="M 2419 4116 
L 825 1625 
L 2419 1625 
L 2419 4116 
z
M 2253 4666 
L 3047 4666 
L 3047 1625 
L 3713 1625 
L 3713 1100 
L 3047 1100 
L 3047 0 
L 2419 0 
L 2419 1100 
L 313 1100 
L 313 1709 
L 2253 4666 
z
" id="DejaVuSans-34" transform="scale(0.015625)"/>
       </defs>
       <use xlink:href="#DejaVuSans-34"/>
       <use x="63.623047" xlink:href="#DejaVuSans-30"/>
       <use x="127.246094" xlink:href="#DejaVuSans-30"/>
      </g>
     </g>
    </g>
    <g id="xtick_4">
     <g id="line2d_4">
      <g>
       <use style="stroke:#000000;stroke-width:0.8;" x="862.82652" xlink:href="#mb6a0b5ef70" y="586.86358"/>
      </g>
     </g>
     <g id="text_4">
      <!-- 600 -->
      <g transform="translate(853.28277 601.462017)scale(0.1 -0.1)">
       <defs>
        <path d="M 2113 2584 
Q 1688 2584 1439 2293 
Q 1191 2003 1191 1497 
Q 1191 994 1439 701 
Q 1688 409 2113 409 
Q 2538 409 2786 701 
Q 3034 994 3034 1497 
Q 3034 2003 2786 2293 
Q 2538 2584 2113 2584 
z
M 3366 4563 
L 3366 3988 
Q 3128 4100 2886 4159 
Q 2644 4219 2406 4219 
Q 1781 4219 1451 3797 
Q 1122 3375 1075 2522 
Q 1259 2794 1537 2939 
Q 1816 3084 2150 3084 
Q 2853 3084 3261 2657 
Q 3669 2231 3669 1497 
Q 3669 778 3244 343 
Q 2819 -91 2113 -91 
Q 1303 -91 875 529 
Q 447 1150 447 2328 
Q 447 3434 972 4092 
Q 1497 4750 2381 4750 
Q 2619 4750 2861 4703 
Q 3103 4656 3366 4563 
z
" id="DejaVuSans-36" transform="scale(0.015625)"/>
       </defs>
       <use xlink:href="#DejaVuSans-36"/>
       <use x="63.623047" xlink:href="#DejaVuSans-30"/>
       <use x="127.246094" xlink:href="#DejaVuSans-30"/>
      </g>
     </g>
    </g>
    <g id="xtick_5">
     <g id="line2d_5">
      <g>
       <use style="stroke:#000000;stroke-width:0.8;" x="1110.477973" xlink:href="#mb6a0b5ef70" y="586.86358"/>
      </g>
     </g>
     <g id="text_5">
      <!-- 800 -->
      <g transform="translate(1100.934223 601.462017)scale(0.1 -0.1)">
       <defs>
        <path d="M 2034 2216 
Q 1584 2216 1326 1975 
Q 1069 1734 1069 1313 
Q 1069 891 1326 650 
Q 1584 409 2034 409 
Q 2484 409 2743 651 
Q 3003 894 3003 1313 
Q 3003 1734 2745 1975 
Q 2488 2216 2034 2216 
z
M 1403 2484 
Q 997 2584 770 2862 
Q 544 3141 544 3541 
Q 544 4100 942 4425 
Q 1341 4750 2034 4750 
Q 2731 4750 3128 4425 
Q 3525 4100 3525 3541 
Q 3525 3141 3298 2862 
Q 3072 2584 2669 2484 
Q 3125 2378 3379 2068 
Q 3634 1759 3634 1313 
Q 3634 634 3220 271 
Q 2806 -91 2034 -91 
Q 1263 -91 848 271 
Q 434 634 434 1313 
Q 434 1759 690 2068 
Q 947 2378 1403 2484 
z
M 1172 3481 
Q 1172 3119 1398 2916 
Q 1625 2713 2034 2713 
Q 2441 2713 2670 2916 
Q 2900 3119 2900 3481 
Q 2900 3844 2670 4047 
Q 2441 4250 2034 4250 
Q 1625 4250 1398 4047 
Q 1172 3844 1172 3481 
z
" id="DejaVuSans-38" transform="scale(0.015625)"/>
       </defs>
       <use xlink:href="#DejaVuSans-38"/>
       <use x="63.623047" xlink:href="#DejaVuSans-30"/>
       <use x="127.246094" xlink:href="#DejaVuSans-30"/>
      </g>
     </g>
    </g>
    <g id="xtick_6">
     <g id="line2d_6">
      <g>
       <use style="stroke:#000000;stroke-width:0.8;" x="1358.129427" xlink:href="#mb6a0b5ef70" y="586.86358"/>
      </g>
     </g>
     <g id="text_6">
      <!-- 1000 -->
      <g transform="translate(1345.404427 601.462017)scale(0.1 -0.1)">
       <defs>
        <path d="M 794 531 
L 1825 531 
L 1825 4091 
L 703 3866 
L 703 4441 
L 1819 4666 
L 2450 4666 
L 2450 531 
L 3481 531 
L 3481 0 
L 794 0 
L 794 531 
z
" id="DejaVuSans-31" transform="scale(0.015625)"/>
       </defs>
       <use xlink:href="#DejaVuSans-31"/>
       <use x="63.623047" xlink:href="#DejaVuSans-30"/>
       <use x="127.246094" xlink:href="#DejaVuSans-30"/>
       <use x="190.869141" xlink:href="#DejaVuSans-30"/>
      </g>
     </g>
    </g>
    <g id="xtick_7">
     <g id="line2d_7">
      <g>
       <use style="stroke:#000000;stroke-width:0.8;" x="1605.78088" xlink:href="#mb6a0b5ef70" y="586.86358"/>
      </g>
     </g>
     <g id="text_7">
      <!-- 1200 -->
      <g transform="translate(1593.05588 601.462017)scale(0.1 -0.1)">
       <use xlink:href="#DejaVuSans-31"/>
       <use x="63.623047" xlink:href="#DejaVuSans-32"/>
       <use x="127.246094" xlink:href="#DejaVuSans-30"/>
       <use x="190.869141" xlink:href="#DejaVuSans-30"/>
      </g>
     </g>
    </g>
    <g id="text_8">
     <!-- frame -->
     <g transform="translate(865.954687 615.140142)scale(0.1 -0.1)">
      <defs>
       <path d="M 2375 4863 
L 2375 4384 
L 1825 4384 
Q 1516 4384 1395 4259 
Q 1275 4134 1275 3809 
L 1275 3500 
L 2222 3500 
L 2222 3053 
L 1275 3053 
L 1275 0 
L 697 0 
L 697 3053 
L 147 3053 
L 147 3500 
L 697 3500 
L 697 3744 
Q 697 4328 969 4595 
Q 1241 4863 1831 4863 
L 2375 4863 
z
" id="DejaVuSans-66" transform="scale(0.015625)"/>
       <path d="M 2631 2963 
Q 2534 3019 2420 3045 
Q 2306 3072 2169 3072 
Q 1681 3072 1420 2755 
Q 1159 2438 1159 1844 
L 1159 0 
L 581 0 
L 581 3500 
L 1159 3500 
L 1159 2956 
Q 1341 3275 1631 3429 
Q 1922 3584 2338 3584 
Q 2397 3584 2469 3576 
Q 2541 3569 2628 3553 
L 2631 2963 
z
" id="DejaVuSans-72" transform="scale(0.015625)"/>
       <path d="M 2194 1759 
Q 1497 1759 1228 1600 
Q 959 1441 959 1056 
Q 959 750 1161 570 
Q 1363 391 1709 391 
Q 2188 391 2477 730 
Q 2766 1069 2766 1631 
L 2766 1759 
L 2194 1759 
z
M 3341 1997 
L 3341 0 
L 2766 0 
L 2766 531 
Q 2569 213 2275 61 
Q 1981 -91 1556 -91 
Q 1019 -91 701 211 
Q 384 513 384 1019 
Q 384 1609 779 1909 
Q 1175 2209 1959 2209 
L 2766 2209 
L 2766 2266 
Q 2766 2663 2505 2880 
Q 2244 3097 1772 3097 
Q 1472 3097 1187 3025 
Q 903 2953 641 2809 
L 641 3341 
Q 956 3463 1253 3523 
Q 1550 3584 1831 3584 
Q 2591 3584 2966 3190 
Q 3341 2797 3341 1997 
z
" id="DejaVuSans-61" transform="scale(0.015625)"/>
       <path d="M 3328 2828 
Q 3544 3216 3844 3400 
Q 4144 3584 4550 3584 
Q 5097 3584 5394 3201 
Q 5691 2819 5691 2113 
L 5691 0 
L 5113 0 
L 5113 2094 
Q 5113 2597 4934 2840 
Q 4756 3084 4391 3084 
Q 3944 3084 3684 2787 
Q 3425 2491 3425 1978 
L 3425 0 
L 2847 0 
L 2847 2094 
Q 2847 2600 2669 2842 
Q 2491 3084 2119 3084 
Q 1678 3084 1418 2786 
Q 1159 2488 1159 1978 
L 1159 0 
L 581 0 
L 581 3500 
L 1159 3500 
L 1159 2956 
Q 1356 3278 1631 3431 
Q 1906 3584 2284 3584 
Q 2666 3584 2933 3390 
Q 3200 3197 3328 2828 
z
" id="DejaVuSans-6d" transform="scale(0.015625)"/>
       <path d="M 3597 1894 
L 3597 1613 
L 953 1613 
Q 991 1019 1311 708 
Q 1631 397 2203 397 
Q 2534 397 2845 478 
Q 3156 559 3463 722 
L 3463 178 
Q 3153 47 2828 -22 
Q 2503 -91 2169 -91 
Q 1331 -91 842 396 
Q 353 884 353 1716 
Q 353 2575 817 3079 
Q 1281 3584 2069 3584 
Q 2775 3584 3186 3129 
Q 3597 2675 3597 1894 
z
M 3022 2063 
Q 3016 2534 2758 2815 
Q 2500 3097 2075 3097 
Q 1594 3097 1305 2825 
Q 1016 2553 972 2059 
L 3022 2063 
z
" id="DejaVuSans-65" transform="scale(0.015625)"/>
      </defs>
      <use xlink:href="#DejaVuSans-66"/>
      <use x="35.205078" xlink:href="#DejaVuSans-72"/>
      <use x="76.318359" xlink:href="#DejaVuSans-61"/>
      <use x="137.597656" xlink:href="#DejaVuSans-6d"/>
      <use x="235.009766" xlink:href="#DejaVuSans-65"/>
     </g>
    </g>
   </g>
   <g id="matplotlib.axis_2">
    <g id="ytick_1">
     <g id="line2d_8">
      <defs>
       <path d="M 0 0 
L -3.5 0 
" id="mbee5c2472f" style="stroke:#000000;stroke-width:0.8;"/>
      </defs>
      <g>
       <use style="stroke:#000000;stroke-width:0.8;" x="43.78125" xlink:href="#mbee5c2472f" y="559.854064"/>
      </g>
     </g>
     <g id="text_9">
      <!-- 0.6 -->
      <g transform="translate(20.878125 563.653283)scale(0.1 -0.1)">
       <defs>
        <path d="M 684 794 
L 1344 794 
L 1344 0 
L 684 0 
L 684 794 
z
" id="DejaVuSans-2e" transform="scale(0.015625)"/>
       </defs>
       <use xlink:href="#DejaVuSans-30"/>
       <use x="63.623047" xlink:href="#DejaVuSans-2e"/>
       <use x="95.410156" xlink:href="#DejaVuSans-36"/>
      </g>
     </g>
    </g>
    <g id="ytick_2">
     <g id="line2d_9">
      <g>
       <use style="stroke:#000000;stroke-width:0.8;" x="43.78125" xlink:href="#mbee5c2472f" y="487.134874"/>
      </g>
     </g>
     <g id="text_10">
      <!-- 0.8 -->
      <g transform="translate(20.878125 490.934092)scale(0.1 -0.1)">
       <use xlink:href="#DejaVuSans-30"/>
       <use x="63.623047" xlink:href="#DejaVuSans-2e"/>
       <use x="95.410156" xlink:href="#DejaVuSans-38"/>
      </g>
     </g>
    </g>
    <g id="ytick_3">
     <g id="line2d_10">
      <g>
       <use style="stroke:#000000;stroke-width:0.8;" x="43.78125" xlink:href="#mbee5c2472f" y="414.415683"/>
      </g>
     </g>
     <g id="text_11">
      <!-- 1.0 -->
      <g transform="translate(20.878125 418.214902)scale(0.1 -0.1)">
       <use xlink:href="#DejaVuSans-31"/>
       <use x="63.623047" xlink:href="#DejaVuSans-2e"/>
       <use x="95.410156" xlink:href="#DejaVuSans-30"/>
      </g>
     </g>
    </g>
    <g id="ytick_4">
     <g id="line2d_11">
      <g>
       <use style="stroke:#000000;stroke-width:0.8;" x="43.78125" xlink:href="#mbee5c2472f" y="341.696493"/>
      </g>
     </g>
     <g id="text_12">
      <!-- 1.2 -->
      <g transform="translate(20.878125 345.495712)scale(0.1 -0.1)">
       <use xlink:href="#DejaVuSans-31"/>
       <use x="63.623047" xlink:href="#DejaVuSans-2e"/>
       <use x="95.410156" xlink:href="#DejaVuSans-32"/>
      </g>
     </g>
    </g>
    <g id="ytick_5">
     <g id="line2d_12">
      <g>
       <use style="stroke:#000000;stroke-width:0.8;" x="43.78125" xlink:href="#mbee5c2472f" y="268.977303"/>
      </g>
     </g>
     <g id="text_13">
      <!-- 1.4 -->
      <g transform="translate(20.878125 272.776521)scale(0.1 -0.1)">
       <use xlink:href="#DejaVuSans-31"/>
       <use x="63.623047" xlink:href="#DejaVuSans-2e"/>
       <use x="95.410156" xlink:href="#DejaVuSans-34"/>
      </g>
     </g>
    </g>
    <g id="ytick_6">
     <g id="line2d_13">
      <g>
       <use style="stroke:#000000;stroke-width:0.8;" x="43.78125" xlink:href="#mbee5c2472f" y="196.258112"/>
      </g>
     </g>
     <g id="text_14">
      <!-- 1.6 -->
      <g transform="translate(20.878125 200.057331)scale(0.1 -0.1)">
       <use xlink:href="#DejaVuSans-31"/>
       <use x="63.623047" xlink:href="#DejaVuSans-2e"/>
       <use x="95.410156" xlink:href="#DejaVuSans-36"/>
      </g>
     </g>
    </g>
    <g id="ytick_7">
     <g id="line2d_14">
      <g>
       <use style="stroke:#000000;stroke-width:0.8;" x="43.78125" xlink:href="#mbee5c2472f" y="123.538922"/>
      </g>
     </g>
     <g id="text_15">
      <!-- 1.8 -->
      <g transform="translate(20.878125 127.338141)scale(0.1 -0.1)">
       <use xlink:href="#DejaVuSans-31"/>
       <use x="63.623047" xlink:href="#DejaVuSans-2e"/>
       <use x="95.410156" xlink:href="#DejaVuSans-38"/>
      </g>
     </g>
    </g>
    <g id="ytick_8">
     <g id="line2d_15">
      <g>
       <use style="stroke:#000000;stroke-width:0.8;" x="43.78125" xlink:href="#mbee5c2472f" y="50.819732"/>
      </g>
     </g>
     <g id="text_16">
      <!-- 2.0 -->
      <g transform="translate(20.878125 54.61895)scale(0.1 -0.1)">
       <use xlink:href="#DejaVuSans-32"/>
       <use x="63.623047" xlink:href="#DejaVuSans-2e"/>
       <use x="95.410156" xlink:href="#DejaVuSans-30"/>
      </g>
     </g>
    </g>
    <g id="text_17">
     <!-- GCaMP -->
     <g transform="translate(14.798437 322.349446)rotate(-90)scale(0.1 -0.1)">
      <defs>
       <path d="M 3809 666 
L 3809 1919 
L 2778 1919 
L 2778 2438 
L 4434 2438 
L 4434 434 
Q 4069 175 3628 42 
Q 3188 -91 2688 -91 
Q 1594 -91 976 548 
Q 359 1188 359 2328 
Q 359 3472 976 4111 
Q 1594 4750 2688 4750 
Q 3144 4750 3555 4637 
Q 3966 4525 4313 4306 
L 4313 3634 
Q 3963 3931 3569 4081 
Q 3175 4231 2741 4231 
Q 1884 4231 1454 3753 
Q 1025 3275 1025 2328 
Q 1025 1384 1454 906 
Q 1884 428 2741 428 
Q 3075 428 3337 486 
Q 3600 544 3809 666 
z
" id="DejaVuSans-47" transform="scale(0.015625)"/>
       <path d="M 4122 4306 
L 4122 3641 
Q 3803 3938 3442 4084 
Q 3081 4231 2675 4231 
Q 1875 4231 1450 3742 
Q 1025 3253 1025 2328 
Q 1025 1406 1450 917 
Q 1875 428 2675 428 
Q 3081 428 3442 575 
Q 3803 722 4122 1019 
L 4122 359 
Q 3791 134 3420 21 
Q 3050 -91 2638 -91 
Q 1578 -91 968 557 
Q 359 1206 359 2328 
Q 359 3453 968 4101 
Q 1578 4750 2638 4750 
Q 3056 4750 3426 4639 
Q 3797 4528 4122 4306 
z
" id="DejaVuSans-43" transform="scale(0.015625)"/>
       <path d="M 628 4666 
L 1569 4666 
L 2759 1491 
L 3956 4666 
L 4897 4666 
L 4897 0 
L 4281 0 
L 4281 4097 
L 3078 897 
L 2444 897 
L 1241 4097 
L 1241 0 
L 628 0 
L 628 4666 
z
" id="DejaVuSans-4d" transform="scale(0.015625)"/>
       <path d="M 1259 4147 
L 1259 2394 
L 2053 2394 
Q 2494 2394 2734 2622 
Q 2975 2850 2975 3272 
Q 2975 3691 2734 3919 
Q 2494 4147 2053 4147 
L 1259 4147 
z
M 628 4666 
L 2053 4666 
Q 2838 4666 3239 4311 
Q 3641 3956 3641 3272 
Q 3641 2581 3239 2228 
Q 2838 1875 2053 1875 
L 1259 1875 
L 1259 0 
L 628 0 
L 628 4666 
z
" id="DejaVuSans-50" transform="scale(0.015625)"/>
      </defs>
      <use xlink:href="#DejaVuSans-47"/>
      <use x="77.490234" xlink:href="#DejaVuSans-43"/>
      <use x="147.314453" xlink:href="#DejaVuSans-61"/>
      <use x="208.59375" xlink:href="#DejaVuSans-4d"/>
      <use x="294.873047" xlink:href="#DejaVuSans-50"/>
     </g>
    </g>
   </g>
   <g id="line2d_16">
    <path clip-path="url(#pe0a9027e1c)" d="M 119.872159 556.268401 
L 121.110416 555.578878 
L 122.348674 554.705532 
L 123.586931 554.17614 
L 124.825188 554.749591 
L 126.063445 556.34334 
L 127.301703 558.159242 
L 128.53996 559.498062 
L 129.778217 559.887759 
L 131.016474 559.085897 
L 132.254732 557.322516 
L 133.492989 555.254937 
L 134.731246 553.654594 
L 135.969504 552.953094 
L 137.207761 553.090405 
L 138.446018 554.038496 
L 139.684275 555.934806 
L 140.922533 558.361324 
L 142.16079 560.240209 
L 143.399047 560.751814 
L 144.637304 560.037935 
L 145.875562 558.98182 
L 147.113819 558.299442 
L 149.590334 557.673634 
L 150.828591 556.791368 
L 152.066848 555.138683 
L 153.305105 553.146456 
L 154.543363 551.426023 
L 155.78162 550.119619 
L 157.019877 549.010589 
L 158.258134 548.053731 
L 159.496392 547.701038 
L 160.734649 548.635458 
L 161.972906 550.969978 
L 163.211163 553.835067 
L 164.449421 555.942416 
L 165.687678 556.541465 
L 166.925935 555.934437 
L 168.164193 555.138135 
L 169.40245 555.115967 
L 170.640707 556.335536 
L 173.117222 560.490524 
L 174.355479 561.202423 
L 175.593736 560.407982 
L 176.831993 558.370783 
L 179.308508 553.05274 
L 180.546765 551.501982 
L 181.785022 550.739635 
L 183.02328 550.389317 
L 184.261537 550.528674 
L 185.499794 551.20738 
L 189.214566 554.296529 
L 190.452823 554.735032 
L 191.691081 554.254742 
L 192.929338 553.187578 
L 194.167595 552.367714 
L 197.882367 551.04006 
L 199.120624 551.252283 
L 200.358881 551.904366 
L 201.597139 552.317742 
L 202.835396 552.604006 
L 204.073653 553.554948 
L 206.550168 557.327659 
L 207.788425 557.728169 
L 209.026682 556.191788 
L 211.503197 551.298996 
L 213.979711 547.507138 
L 215.217969 545.784244 
L 216.456226 544.28948 
L 217.694483 543.470732 
L 218.93274 543.804252 
L 220.170998 545.283185 
L 221.409255 547.221562 
L 222.647512 548.781086 
L 223.88577 549.443044 
L 225.124027 548.932651 
L 226.362284 547.244412 
L 228.838799 542.380503 
L 230.077056 540.395978 
L 231.315313 539.266907 
L 232.55357 539.101668 
L 233.791828 539.211615 
L 235.030085 538.627014 
L 236.268342 537.435982 
L 237.5066 536.666235 
L 238.744857 536.848081 
L 239.983114 537.43756 
L 241.221371 537.589435 
L 242.459629 537.155958 
L 243.697886 537.184184 
L 244.936143 539.485407 
L 246.1744 544.91214 
L 247.412658 551.954508 
L 248.650915 557.804056 
L 249.889172 560.700703 
L 251.127429 560.786298 
L 252.365687 559.148788 
L 254.842201 554.353377 
L 256.080459 552.38638 
L 257.318716 551.213168 
L 259.79523 550.325967 
L 261.033488 549.259302 
L 262.271745 547.196791 
L 263.510002 544.182313 
L 264.748259 540.753997 
L 265.986517 537.756225 
L 267.224774 535.692495 
L 268.463031 534.618817 
L 269.701288 534.341534 
L 270.939546 534.57394 
L 272.177803 535.303652 
L 273.41606 536.43453 
L 274.654318 537.235926 
L 275.892575 536.979962 
L 277.130832 535.627519 
L 278.369089 533.772284 
L 279.607347 532.296792 
L 280.845604 531.937106 
L 282.083861 533.061813 
L 284.560376 537.64429 
L 285.798633 538.072572 
L 287.03689 535.721999 
L 289.513405 527.087487 
L 290.751662 524.435176 
L 291.989919 524.266207 
L 293.228177 526.477887 
L 294.466434 529.858769 
L 295.704691 532.631491 
L 296.942948 533.765671 
L 298.181206 533.484949 
L 301.895977 530.642923 
L 303.134235 530.355555 
L 304.372492 530.306011 
L 305.610749 529.689407 
L 306.849006 527.874154 
L 308.087264 524.828185 
L 310.563778 517.139522 
L 311.802036 514.19772 
L 313.040293 513.200099 
L 314.27855 514.475782 
L 315.516807 517.378298 
L 317.993322 524.609654 
L 319.231579 527.500154 
L 320.469836 529.005825 
L 321.708094 529.098005 
L 322.946351 528.337679 
L 324.184608 527.104304 
L 325.422866 525.485813 
L 327.89938 521.626428 
L 329.137637 519.672358 
L 330.375895 518.172935 
L 331.614152 517.368117 
L 332.852409 516.906957 
L 334.090666 516.033186 
L 335.328924 514.3598 
L 336.567181 512.49673 
L 337.805438 511.64575 
L 339.043695 512.520687 
L 340.281953 514.916125 
L 342.758467 521.218953 
L 343.996725 523.611623 
L 345.234982 524.91114 
L 346.473239 524.752141 
L 347.711496 522.7933 
L 348.949754 519.183269 
L 350.188011 514.853539 
L 351.426268 511.276767 
L 352.664525 509.73052 
L 353.902783 510.494188 
L 355.14104 512.714361 
L 357.617554 517.618196 
L 358.855812 519.46762 
L 360.094069 520.356599 
L 361.332326 519.79819 
L 362.570584 517.88583 
L 363.808841 515.655035 
L 365.047098 514.38031 
L 366.285355 514.453063 
L 367.523613 515.377144 
L 370.000127 517.653608 
L 372.476642 519.50949 
L 373.714899 520.259034 
L 374.953156 520.365423 
L 376.191413 519.481456 
L 377.429671 517.744721 
L 378.667928 515.391477 
L 381.144443 510.07155 
L 382.3827 508.630251 
L 383.620957 509.052915 
L 384.859214 511.362302 
L 387.335729 518.002598 
L 388.573986 519.889775 
L 389.812243 519.841464 
L 391.050501 518.047152 
L 392.288758 515.136257 
L 396.00353 504.707813 
L 397.241787 502.92835 
L 398.480044 502.385499 
L 400.956559 502.372044 
L 402.194816 502.624509 
L 403.433073 503.11733 
L 404.671331 503.86383 
L 405.909588 505.029781 
L 407.147845 506.704425 
L 409.62436 510.65251 
L 410.862617 511.853417 
L 412.100874 511.948873 
L 413.339132 510.985724 
L 414.577389 509.470981 
L 415.815646 508.374074 
L 417.053903 508.562157 
L 418.292161 510.083742 
L 420.768675 514.503079 
L 422.006932 515.709422 
L 423.24519 515.346303 
L 424.483447 514.00855 
L 425.721704 512.923572 
L 426.959961 512.311966 
L 428.198219 510.978251 
L 429.436476 507.783979 
L 430.674733 503.227984 
L 431.912991 499.232646 
L 433.151248 497.563299 
L 434.389505 498.69161 
L 435.627762 501.785049 
L 436.86602 505.397684 
L 438.104277 508.377709 
L 439.342534 510.342229 
L 440.580791 511.32424 
L 441.819049 511.201575 
L 443.057306 509.774993 
L 444.295563 507.303571 
L 448.010335 498.348499 
L 449.248592 496.977996 
L 450.48685 497.891572 
L 451.725107 500.777745 
L 452.963364 504.355576 
L 454.201621 506.665754 
L 455.439879 506.159224 
L 456.678136 503.216031 
L 457.916393 499.983865 
L 459.15465 498.5117 
L 460.392908 499.525433 
L 461.631165 502.605172 
L 462.869422 506.53467 
L 464.107679 509.662072 
L 465.345937 510.687914 
L 466.584194 509.330385 
L 467.822451 506.183194 
L 469.060709 501.896946 
L 470.298966 496.670014 
L 472.77548 485.422201 
L 474.013738 482.095766 
L 475.251995 481.384398 
L 476.490252 482.808298 
L 477.728509 485.675779 
L 480.205024 493.190936 
L 482.681538 500.617968 
L 483.919796 503.11235 
L 485.158053 504.244015 
L 486.39631 504.882937 
L 487.634568 506.117805 
L 488.872825 508.061514 
L 490.111082 509.788974 
L 491.349339 510.010938 
L 492.587597 507.790736 
L 493.825854 503.27333 
L 495.064111 497.88726 
L 496.302368 493.185923 
L 497.540626 489.877732 
L 498.778883 488.43306 
L 500.01714 489.279826 
L 501.255397 491.851223 
L 502.493655 494.756646 
L 503.731912 497.147245 
L 504.970169 498.995647 
L 506.208427 500.156176 
L 507.446684 499.992688 
L 508.684941 498.15634 
L 509.923198 495.1375 
L 512.399713 488.225517 
L 513.63797 485.210945 
L 514.876227 482.979222 
L 516.114485 481.548687 
L 517.352742 480.893098 
L 518.590999 481.378084 
L 519.829257 483.329217 
L 521.067514 486.181941 
L 522.305771 488.610783 
L 523.544028 489.401784 
L 524.782286 488.005103 
L 526.020543 484.592336 
L 527.2588 479.796981 
L 529.735315 469.551261 
L 530.973572 466.269889 
L 532.211829 465.417436 
L 533.450086 466.510104 
L 534.688344 468.156476 
L 535.926601 469.467062 
L 539.641373 472.333203 
L 540.87963 473.843245 
L 543.356145 477.637443 
L 544.594402 478.967928 
L 545.832659 478.956279 
L 547.070916 477.250825 
L 549.547431 471.374303 
L 550.785688 469.970867 
L 553.262203 470.124428 
L 554.50046 468.876099 
L 555.738717 466.096916 
L 556.976975 462.226904 
L 559.453489 453.617547 
L 560.691746 450.361196 
L 561.930004 448.828171 
L 563.168261 449.168425 
L 565.644775 452.549234 
L 566.883033 453.460099 
L 569.359547 453.738619 
L 570.597804 454.256282 
L 571.836062 454.544241 
L 573.074319 454.021862 
L 575.550834 452.041292 
L 576.789091 451.245549 
L 579.265605 449.872922 
L 580.503863 448.534382 
L 581.74212 446.589441 
L 582.980377 444.929838 
L 584.218634 444.564748 
L 585.456892 446.015641 
L 586.695149 449.036428 
L 587.933406 452.576695 
L 589.171663 455.484878 
L 590.409921 457.39169 
L 591.648178 458.44783 
L 592.886435 458.33836 
L 594.124693 456.2282 
L 595.36295 451.88784 
L 596.601207 446.60081 
L 597.839464 442.340611 
L 599.077722 440.090579 
L 600.315979 439.56851 
L 602.792493 440.454386 
L 604.030751 440.175216 
L 605.269008 439.081132 
L 606.507265 438.30037 
L 607.745523 438.941085 
L 608.98378 440.403564 
L 610.222037 441.424571 
L 611.460294 442.21195 
L 612.698552 443.735316 
L 613.936809 445.764022 
L 615.175066 447.193574 
L 616.413323 447.619766 
L 617.651581 447.663026 
L 618.889838 448.015863 
L 620.128095 448.537061 
L 621.366352 448.314351 
L 622.60461 446.727867 
L 623.842867 444.427934 
L 625.081124 442.679141 
L 626.319382 441.825572 
L 627.557639 441.399709 
L 628.795896 441.533797 
L 630.034153 443.036769 
L 631.272411 446.115121 
L 632.510668 449.756854 
L 633.748925 452.407142 
L 634.987182 453.265614 
L 636.22544 452.89132 
L 638.701954 451.706353 
L 639.940211 451.272466 
L 641.178469 451.165377 
L 642.416726 451.58021 
L 644.893241 453.517464 
L 646.131498 453.738251 
L 647.369755 452.633276 
L 648.608012 450.520046 
L 652.322784 442.474753 
L 653.561041 441.053455 
L 654.799299 440.83266 
L 656.037556 441.068694 
L 657.275813 441.089061 
L 658.51407 440.549481 
L 659.752328 438.981445 
L 660.990585 435.68105 
L 662.228842 430.252285 
L 663.4671 423.40179 
L 664.705357 417.199474 
L 665.943614 413.755237 
L 667.181871 413.40782 
L 668.420129 414.716442 
L 669.658386 415.840473 
L 670.896643 415.685222 
L 672.1349 414.065037 
L 673.373158 411.050376 
L 675.849672 402.554836 
L 677.087929 399.805473 
L 678.326187 399.826278 
L 679.564444 402.524108 
L 680.802701 406.436911 
L 682.040959 409.550154 
L 683.279216 410.571973 
L 684.517473 409.280926 
L 685.75573 406.091513 
L 688.232245 398.12927 
L 689.470502 396.056172 
L 690.708759 396.216392 
L 691.947017 398.136636 
L 693.185274 400.575413 
L 694.423531 402.089278 
L 695.661789 402.035696 
L 696.900046 400.437975 
L 698.138303 397.11706 
L 701.853075 382.261536 
L 703.091332 377.138463 
L 704.329589 370.59423 
L 706.806104 355.465759 
L 708.044361 350.850523 
L 709.282618 349.763226 
L 710.520876 352.201068 
L 711.759133 357.887251 
L 712.99739 365.26877 
L 714.235648 371.287732 
L 715.473905 373.19415 
L 716.712162 370.212167 
L 717.950419 363.726192 
L 720.426934 348.963706 
L 721.665191 342.851542 
L 724.141706 331.297143 
L 725.379963 323.787871 
L 726.61822 315.354046 
L 727.856477 308.37658 
L 729.094735 305.648696 
L 730.332992 308.329898 
L 732.809507 321.743474 
L 734.047764 324.837154 
L 735.286021 321.083437 
L 736.524278 310.25552 
L 739.000793 280.50601 
L 740.23905 271.040805 
L 741.477307 269.34618 
L 742.715565 273.873644 
L 743.953822 280.389222 
L 745.192079 285.859847 
L 746.430336 290.157141 
L 747.668594 293.93598 
L 748.906851 296.796859 
L 750.145108 297.98631 
L 751.383366 297.248099 
L 752.621623 294.676706 
L 753.85988 290.560056 
L 757.574652 275.601845 
L 758.812909 272.43747 
L 760.051166 271.089615 
L 761.289424 271.029244 
L 762.527681 270.610496 
L 763.765938 268.238769 
L 765.004195 263.882192 
L 766.242453 259.028965 
L 767.48071 255.729915 
L 768.718967 255.508229 
L 769.957225 258.285243 
L 771.195482 262.922623 
L 774.910254 279.569542 
L 776.148511 282.543035 
L 778.625025 285.070048 
L 779.863283 288.013424 
L 782.339797 296.864473 
L 783.578054 300.526867 
L 784.816312 303.627015 
L 786.054569 305.993996 
L 787.292826 307.019643 
L 788.531084 307.168552 
L 789.769341 308.042724 
L 791.007598 310.615488 
L 792.245855 314.292503 
L 793.484113 317.610609 
L 794.72237 319.665743 
L 795.960627 320.679653 
L 798.437142 321.618356 
L 799.675399 323.262616 
L 800.913656 326.860697 
L 802.151914 331.354375 
L 803.390171 334.386476 
L 804.628428 333.877212 
L 805.866685 329.276901 
L 807.104943 322.31046 
L 808.3432 316.304341 
L 809.581457 314.010818 
L 810.819714 316.011714 
L 812.057972 321.417283 
L 813.296229 329.403324 
L 815.772743 347.863403 
L 817.011001 354.296742 
L 818.249258 357.526081 
L 819.487515 357.586621 
L 820.725773 354.604707 
L 821.96403 348.936529 
L 823.202287 341.748338 
L 824.440544 335.383739 
L 825.678802 332.80134 
L 826.917059 335.775875 
L 828.155316 343.202312 
L 829.393573 351.930003 
L 830.631831 359.320475 
L 831.870088 364.401086 
L 833.108345 367.385339 
L 834.346602 368.798343 
L 835.58486 368.633761 
L 836.823117 366.535885 
L 839.299632 359.101288 
L 840.537889 357.231967 
L 841.776146 358.42597 
L 844.252661 365.11986 
L 845.490918 367.1687 
L 846.729175 368.244025 
L 847.967432 369.157474 
L 849.20569 370.489549 
L 850.443947 372.252263 
L 851.682204 373.573236 
L 852.920461 373.353954 
L 855.396976 369.905694 
L 856.635233 368.704176 
L 857.873491 367.23716 
L 859.111748 364.47384 
L 860.350005 361.097421 
L 861.588262 359.516026 
L 862.82652 361.362592 
L 864.064777 365.36202 
L 865.303034 368.663173 
L 866.541291 369.344227 
L 867.779549 367.164568 
L 870.256063 360.013251 
L 871.49432 357.9367 
L 872.732578 356.867738 
L 875.209092 355.026847 
L 876.44735 355.003011 
L 877.685607 357.360104 
L 878.923864 362.524772 
L 880.162121 369.188221 
L 881.400379 374.824311 
L 882.638636 377.238645 
L 883.876893 376.201533 
L 885.11515 373.497181 
L 886.353408 371.060119 
L 887.591665 369.425322 
L 888.829922 368.040285 
L 891.306437 364.495296 
L 892.544694 364.042293 
L 893.782951 366.409316 
L 896.259466 375.177976 
L 897.497723 376.325438 
L 898.73598 373.090098 
L 899.974238 365.628654 
L 903.689009 334.616142 
L 904.927267 326.510802 
L 906.165524 320.054959 
L 907.403781 315.556362 
L 908.642039 313.846521 
L 909.880296 314.747337 
L 911.118553 316.059004 
L 912.35681 315.099963 
L 913.595068 311.239844 
L 914.833325 306.227342 
L 916.071582 301.968313 
L 917.309839 298.589946 
L 918.548097 294.631666 
L 919.786354 288.537706 
L 921.024611 280.097812 
L 923.501126 261.146058 
L 925.97764 244.56426 
L 927.215898 237.507887 
L 928.454155 232.052277 
L 929.692412 229.077111 
L 930.930669 228.734015 
L 933.407184 231.455581 
L 934.645441 232.400448 
L 935.883698 234.120869 
L 937.121956 238.163806 
L 938.360213 243.785704 
L 939.59847 247.767802 
L 940.836727 247.189695 
L 942.074985 242.054423 
L 943.313242 235.176565 
L 944.551499 229.904383 
L 945.789757 228.142541 
L 947.028014 229.927784 
L 949.504528 237.647419 
L 950.742786 239.578135 
L 951.981043 238.282317 
L 953.2193 233.254247 
L 954.457557 226.123568 
L 955.695815 220.281738 
L 956.934072 217.85377 
L 958.172329 218.0224 
L 959.410586 218.950155 
L 960.648844 220.562744 
L 961.887101 224.499153 
L 963.125358 231.548276 
L 964.363616 240.317646 
L 965.601873 248.266236 
L 966.84013 253.091653 
L 968.078387 253.697213 
L 969.316645 250.899875 
L 970.554902 247.113969 
L 971.793159 244.617032 
L 973.031416 244.179009 
L 974.269674 245.544614 
L 975.507931 248.4734 
L 976.746188 253.169429 
L 977.984446 259.810432 
L 979.222703 267.321326 
L 980.46096 273.495541 
L 981.699217 276.846271 
L 982.937475 277.53748 
L 984.175732 277.122798 
L 985.413989 278.100168 
L 986.652246 282.233216 
L 989.128761 294.73731 
L 990.367018 298.247246 
L 991.605275 298.743744 
L 992.843533 297.338296 
L 995.320047 293.083489 
L 996.558305 291.962509 
L 997.796562 293.058274 
L 999.034819 295.971128 
L 1000.273076 299.169279 
L 1001.511334 301.107339 
L 1002.749591 300.404324 
L 1003.987848 296.536078 
L 1005.226105 290.767097 
L 1006.464363 285.576716 
L 1007.70262 282.698317 
L 1008.940877 281.700819 
L 1010.179134 280.87074 
L 1011.417392 279.233469 
L 1013.893906 274.618187 
L 1015.132164 272.936946 
L 1016.370421 272.049643 
L 1017.608678 271.348649 
L 1018.846935 270.224122 
L 1020.085193 268.178164 
L 1021.32345 264.437889 
L 1022.561707 257.944753 
L 1023.799964 248.02513 
L 1027.514736 210.915836 
L 1028.752993 201.69739 
L 1029.991251 195.187066 
L 1031.229508 191.845023 
L 1032.467765 191.280061 
L 1033.706023 191.523281 
L 1034.94428 190.094206 
L 1036.182537 185.671573 
L 1037.420794 179.132435 
L 1038.659052 173.390849 
L 1039.897309 171.055025 
L 1041.135566 171.465161 
L 1042.373823 171.557517 
L 1043.612081 169.852664 
L 1044.850338 167.609545 
L 1046.088595 166.567209 
L 1047.326852 167.30716 
L 1048.56511 168.965284 
L 1049.803367 169.757859 
L 1051.041624 168.49934 
L 1052.279882 165.158972 
L 1053.518139 159.970395 
L 1054.756396 153.113909 
L 1057.232911 137.82734 
L 1058.471168 133.729339 
L 1059.709425 134.350927 
L 1060.947682 138.543284 
L 1063.424197 148.793427 
L 1065.900711 157.49244 
L 1067.138969 160.713863 
L 1068.377226 163.036525 
L 1069.615483 165.680727 
L 1070.853741 169.913109 
L 1072.091998 175.175245 
L 1073.330255 179.417007 
L 1074.568512 181.48079 
L 1075.80677 182.256959 
L 1077.045027 183.535842 
L 1078.283284 186.65336 
L 1079.521541 192.266724 
L 1080.759799 200.281008 
L 1083.236313 218.834757 
L 1084.474571 226.845156 
L 1085.712828 233.50707 
L 1089.4276 251.793731 
L 1090.665857 256.719732 
L 1091.904114 259.54815 
L 1094.380629 262.571937 
L 1095.618886 263.849889 
L 1096.857143 262.912755 
L 1098.0954 258.850991 
L 1099.333658 253.606729 
L 1100.571915 250.42963 
L 1101.810172 250.976254 
L 1104.286687 257.771098 
L 1105.524944 259.333509 
L 1106.763201 258.18129 
L 1108.001459 255.584538 
L 1109.239716 253.835378 
L 1110.477973 254.516935 
L 1111.71623 257.353309 
L 1116.669259 271.912836 
L 1117.907517 274.777506 
L 1119.145774 275.74945 
L 1120.384031 274.306467 
L 1121.622289 270.396244 
L 1122.860546 264.030077 
L 1126.575318 238.893963 
L 1127.813575 233.113673 
L 1129.051832 229.005991 
L 1130.290089 225.593592 
L 1131.528347 221.504658 
L 1132.766604 215.642851 
L 1134.004861 207.902043 
L 1136.481376 190.749556 
L 1137.719633 183.188901 
L 1140.196148 170.430448 
L 1141.434405 164.433031 
L 1142.672662 160.129094 
L 1143.910919 159.797881 
L 1145.149177 163.545884 
L 1147.625691 174.951988 
L 1148.863948 179.944393 
L 1150.102206 183.721391 
L 1151.340463 185.772883 
L 1152.57872 186.450386 
L 1153.816977 186.890943 
L 1155.055235 187.850316 
L 1156.293492 188.502714 
L 1157.531749 186.749602 
L 1158.770007 181.642537 
L 1162.484778 159.888404 
L 1163.723036 154.833968 
L 1164.961293 153.272457 
L 1166.19955 155.19131 
L 1167.437807 158.554346 
L 1168.676065 161.101105 
L 1169.914322 162.537531 
L 1171.152579 164.996532 
L 1172.390837 170.963631 
L 1174.867351 189.356512 
L 1176.105608 193.580598 
L 1177.343866 190.74158 
L 1179.82038 175.93028 
L 1181.058637 172.470891 
L 1182.296895 171.743128 
L 1183.535152 170.771654 
L 1186.011666 166.53849 
L 1187.249924 165.963269 
L 1188.488181 165.980452 
L 1189.726438 164.780034 
L 1190.964696 162.245938 
L 1192.202953 160.588751 
L 1193.44121 161.977382 
L 1194.679467 166.335646 
L 1195.917725 171.797891 
L 1197.155982 176.429614 
L 1198.394239 179.127122 
L 1199.632496 179.378935 
L 1200.870754 176.797674 
L 1202.109011 171.476544 
L 1203.347268 164.89232 
L 1204.585525 159.481996 
L 1205.823783 156.483773 
L 1207.06204 154.89271 
L 1208.300297 153.049394 
L 1209.538555 150.301949 
L 1210.776812 146.835977 
L 1212.015069 142.972001 
L 1213.253326 139.542283 
L 1214.491584 138.29476 
L 1215.729841 140.180117 
L 1216.968098 143.739247 
L 1218.206355 146.571494 
L 1219.444613 147.524653 
L 1220.68287 147.270348 
L 1221.921127 147.390428 
L 1223.159384 148.772 
L 1226.874156 155.92391 
L 1228.112414 157.669888 
L 1229.350671 160.200658 
L 1230.588928 163.952138 
L 1231.827185 168.384503 
L 1233.065443 173.48907 
L 1234.3037 179.913828 
L 1236.780214 195.185868 
L 1238.018472 201.564062 
L 1239.256729 205.373025 
L 1240.494986 205.36783 
L 1241.733243 201.6476 
L 1242.971501 196.367106 
L 1244.209758 192.56306 
L 1245.448015 192.587147 
L 1246.686273 197.01629 
L 1250.401044 217.811653 
L 1251.639302 223.653977 
L 1252.877559 228.453263 
L 1254.115816 231.070826 
L 1255.354073 231.09458 
L 1256.592331 228.624026 
L 1257.830588 224.010167 
L 1259.068845 218.855015 
L 1260.307103 215.731556 
L 1261.54536 215.843612 
L 1264.021874 219.967737 
L 1266.498389 222.263795 
L 1267.736646 224.584731 
L 1270.213161 232.151782 
L 1271.451418 234.794171 
L 1275.16619 239.902605 
L 1276.404447 240.512243 
L 1277.642704 239.166804 
L 1278.880962 235.754526 
L 1280.119219 231.810495 
L 1281.357476 230.491437 
L 1282.595733 233.951955 
L 1283.833991 241.788792 
L 1287.548762 274.190551 
L 1288.78702 281.37097 
L 1290.025277 284.272492 
L 1291.263534 283.540761 
L 1292.501791 280.86852 
L 1293.740049 277.035924 
L 1297.454821 261.778732 
L 1299.931335 254.083751 
L 1301.169592 251.18299 
L 1302.40785 249.449934 
L 1303.646107 248.650686 
L 1304.884364 248.512124 
L 1306.122621 249.259117 
L 1307.360879 251.594655 
L 1308.599136 256.382463 
L 1309.837393 263.85408 
L 1312.313908 281.205218 
L 1313.552165 287.226892 
L 1314.790422 290.502615 
L 1316.02868 291.24955 
L 1317.266937 289.515902 
L 1319.743451 281.807488 
L 1320.981709 279.652948 
L 1322.219966 279.727462 
L 1323.458223 280.512234 
L 1325.934738 281.076316 
L 1327.172995 282.550674 
L 1328.411252 286.237881 
L 1330.887767 298.2772 
L 1332.126024 302.82518 
L 1333.364281 304.776641 
L 1334.602539 304.30662 
L 1335.840796 301.710063 
L 1337.079053 297.37962 
L 1338.31731 292.464093 
L 1339.555568 288.553212 
L 1340.793825 286.820042 
L 1342.032082 287.983812 
L 1343.270339 292.141132 
L 1344.508597 297.838694 
L 1345.746854 302.086946 
L 1346.985111 302.500695 
L 1348.223368 299.53529 
L 1349.461626 295.671022 
L 1350.699883 292.630111 
L 1351.93814 290.557413 
L 1353.176398 289.250952 
L 1354.414655 288.697513 
L 1355.652912 288.842357 
L 1356.891169 289.655449 
L 1359.367684 292.369825 
L 1360.605941 293.844406 
L 1361.844198 296.398306 
L 1363.082456 300.776272 
L 1364.320713 306.231825 
L 1365.55897 311.003804 
L 1366.797228 313.699632 
L 1368.035485 314.062845 
L 1369.273742 312.73331 
L 1370.511999 310.758854 
L 1371.750257 309.381152 
L 1372.988514 309.618462 
L 1374.226771 311.225984 
L 1375.465028 312.24967 
L 1376.703286 310.612704 
L 1377.941543 306.333647 
L 1379.1798 301.609589 
L 1380.418057 298.77606 
L 1381.656315 298.772227 
L 1382.894572 301.211379 
L 1384.132829 304.850652 
L 1385.371087 308.044789 
L 1386.609344 309.463392 
L 1387.847601 308.812533 
L 1389.085858 307.16868 
L 1390.324116 305.951306 
L 1391.562373 305.111694 
L 1392.80063 303.479423 
L 1395.277145 298.595414 
L 1396.515402 297.429336 
L 1397.753659 297.574436 
L 1398.991916 298.920881 
L 1401.468431 302.889444 
L 1402.706688 304.055986 
L 1403.944946 304.495981 
L 1405.183203 304.805223 
L 1406.42146 306.018696 
L 1407.659717 308.888495 
L 1410.136232 316.703379 
L 1411.374489 318.521799 
L 1412.612746 317.314797 
L 1413.851004 313.376694 
L 1415.089261 309.029634 
L 1416.327518 307.307996 
L 1417.565775 309.54908 
L 1420.04229 319.132936 
L 1421.280547 320.939145 
L 1422.518805 318.846643 
L 1423.757062 313.972315 
L 1424.995319 308.449532 
L 1426.233576 303.670936 
L 1427.471834 299.463 
L 1431.186605 285.78414 
L 1432.424863 283.509188 
L 1433.66312 283.232072 
L 1434.901377 284.990664 
L 1436.139634 287.962067 
L 1437.377892 290.569349 
L 1438.616149 291.932592 
L 1439.854406 292.055038 
L 1441.092664 291.469549 
L 1442.330921 291.709864 
L 1443.569178 294.25845 
L 1446.045693 302.726327 
L 1447.28395 305.344205 
L 1448.522207 305.802099 
L 1449.760464 304.089617 
L 1450.998722 300.976092 
L 1452.236979 297.527871 
L 1453.475236 294.574073 
L 1454.713494 292.657946 
L 1455.951751 292.282663 
L 1457.190008 294.042815 
L 1459.666523 301.864698 
L 1460.90478 304.228908 
L 1462.143037 304.062053 
L 1463.381294 302.14888 
L 1467.096066 294.223094 
L 1468.334323 292.289135 
L 1469.572581 291.161699 
L 1470.810838 290.84199 
L 1472.049095 291.18205 
L 1473.287353 290.768146 
L 1474.52561 287.557864 
L 1477.002124 274.978049 
L 1478.240382 270.547914 
L 1479.478639 269.76415 
L 1480.716896 272.435362 
L 1481.955153 276.672009 
L 1483.193411 280.258787 
L 1484.431668 282.367935 
L 1486.908182 284.822785 
L 1488.14644 285.938738 
L 1490.622954 287.600659 
L 1491.861212 289.90605 
L 1493.099469 295.099817 
L 1495.575983 309.505112 
L 1496.814241 312.270377 
L 1498.052498 309.372787 
L 1500.529012 295.296147 
L 1501.76727 290.783975 
L 1503.005527 289.1556 
L 1504.243784 288.572673 
L 1505.482041 286.370915 
L 1506.720299 280.457568 
L 1507.958556 270.720442 
L 1509.196813 259.640981 
L 1510.435071 250.915628 
L 1511.673328 246.421601 
L 1512.911585 244.924531 
L 1514.149842 243.974335 
L 1515.3881 241.895118 
L 1516.626357 238.103317 
L 1517.864614 233.219226 
L 1519.102871 229.177344 
L 1520.341129 228.146757 
L 1521.579386 230.624099 
L 1522.817643 234.523818 
L 1524.0559 236.820811 
L 1525.294158 236.469902 
L 1526.532415 234.69935 
L 1527.770672 232.429549 
L 1529.00893 229.354962 
L 1530.247187 225.851982 
L 1531.485444 223.861775 
L 1532.723701 225.066277 
L 1533.961959 229.382802 
L 1535.200216 235.702594 
L 1536.438473 242.740603 
L 1537.67673 248.740346 
L 1538.914988 252.084562 
L 1541.391502 254.314183 
L 1542.62976 255.842585 
L 1543.868017 256.528304 
L 1545.106274 255.286572 
L 1547.582789 249.505989 
L 1548.821046 247.516385 
L 1550.059303 246.632794 
L 1551.29756 246.481573 
L 1552.535818 246.833387 
L 1553.774075 247.375334 
L 1555.012332 247.297753 
L 1556.250589 245.553128 
L 1557.488847 241.803716 
L 1558.727104 237.192147 
L 1559.965361 233.630861 
L 1561.203619 231.987408 
L 1562.441876 231.261075 
L 1563.680133 229.59539 
L 1564.91839 225.784367 
L 1566.156648 219.855015 
L 1567.394905 212.933023 
L 1568.633162 206.946564 
L 1569.871419 203.664448 
L 1571.109677 203.085079 
L 1572.347934 203.249846 
L 1574.824448 201.849838 
L 1576.062706 202.865816 
L 1577.300963 205.61534 
L 1578.53922 207.493838 
L 1579.777478 205.237044 
L 1581.015735 197.915034 
L 1582.253992 188.219822 
L 1583.492249 179.873141 
L 1584.730507 174.290771 
L 1585.968764 170.738506 
L 1587.207021 167.976474 
L 1588.445278 164.785943 
L 1589.683536 160.694771 
L 1590.921793 157.096419 
L 1592.16005 156.55428 
L 1593.398307 159.741311 
L 1594.636565 163.700958 
L 1595.874822 164.15725 
L 1597.113079 159.170578 
L 1598.351337 150.92411 
L 1599.589594 144.112483 
L 1600.827851 141.733849 
L 1603.304366 143.715523 
L 1604.542623 141.839407 
L 1605.78088 136.481531 
L 1607.019137 128.415884 
L 1609.495652 109.010463 
L 1610.733909 101.39993 
L 1611.972166 97.542379 
L 1613.210424 97.492505 
L 1614.448681 99.744743 
L 1615.686938 102.41239 
L 1616.925196 103.609269 
L 1618.163453 101.335661 
L 1619.40171 94.710679 
L 1621.878225 75.804853 
L 1623.116482 67.988482 
L 1625.592996 54.664058 
L 1626.831254 50.035597 
L 1628.069511 48.066253 
L 1629.307768 47.979282 
L 1630.546026 48.361001 
L 1631.784283 49.081436 
L 1633.02254 51.565696 
L 1634.260797 56.654129 
L 1635.499055 62.878264 
L 1636.737312 68.015792 
L 1637.975569 71.69783 
L 1639.213826 74.311342 
L 1640.452084 74.958308 
L 1641.690341 73.376049 
L 1641.690341 73.376049 
" style="fill:none;stroke:#008000;stroke-linecap:square;stroke-width:1.5;"/>
   </g>
   <g id="patch_3">
    <path d="M 43.78125 586.86358 
L 43.78125 22.318125 
" style="fill:none;stroke:#000000;stroke-linecap:square;stroke-linejoin:miter;stroke-width:0.8;"/>
   </g>
   <g id="patch_4">
    <path d="M 1717.78125 586.86358 
L 1717.78125 22.318125 
" style="fill:none;stroke:#000000;stroke-linecap:square;stroke-linejoin:miter;stroke-width:0.8;"/>
   </g>
   <g id="patch_5">
    <path d="M 43.78125 586.86358 
L 1717.78125 586.86358 
" style="fill:none;stroke:#000000;stroke-linecap:square;stroke-linejoin:miter;stroke-width:0.8;"/>
   </g>
   <g id="patch_6">
    <path d="M 43.78125 22.318125 
L 1717.78125 22.318125 
" style="fill:none;stroke:#000000;stroke-linecap:square;stroke-linejoin:miter;stroke-width:0.8;"/>
   </g>
   <g id="text_18">
    <!-- before binarisation -->
    <g transform="translate(824.1825 16.318125)scale(0.12 -0.12)">
     <defs>
      <path d="M 3116 1747 
Q 3116 2381 2855 2742 
Q 2594 3103 2138 3103 
Q 1681 3103 1420 2742 
Q 1159 2381 1159 1747 
Q 1159 1113 1420 752 
Q 1681 391 2138 391 
Q 2594 391 2855 752 
Q 3116 1113 3116 1747 
z
M 1159 2969 
Q 1341 3281 1617 3432 
Q 1894 3584 2278 3584 
Q 2916 3584 3314 3078 
Q 3713 2572 3713 1747 
Q 3713 922 3314 415 
Q 2916 -91 2278 -91 
Q 1894 -91 1617 61 
Q 1341 213 1159 525 
L 1159 0 
L 581 0 
L 581 4863 
L 1159 4863 
L 1159 2969 
z
" id="DejaVuSans-62" transform="scale(0.015625)"/>
      <path d="M 1959 3097 
Q 1497 3097 1228 2736 
Q 959 2375 959 1747 
Q 959 1119 1226 758 
Q 1494 397 1959 397 
Q 2419 397 2687 759 
Q 2956 1122 2956 1747 
Q 2956 2369 2687 2733 
Q 2419 3097 1959 3097 
z
M 1959 3584 
Q 2709 3584 3137 3096 
Q 3566 2609 3566 1747 
Q 3566 888 3137 398 
Q 2709 -91 1959 -91 
Q 1206 -91 779 398 
Q 353 888 353 1747 
Q 353 2609 779 3096 
Q 1206 3584 1959 3584 
z
" id="DejaVuSans-6f" transform="scale(0.015625)"/>
      <path id="DejaVuSans-20" transform="scale(0.015625)"/>
      <path d="M 603 3500 
L 1178 3500 
L 1178 0 
L 603 0 
L 603 3500 
z
M 603 4863 
L 1178 4863 
L 1178 4134 
L 603 4134 
L 603 4863 
z
" id="DejaVuSans-69" transform="scale(0.015625)"/>
      <path d="M 3513 2113 
L 3513 0 
L 2938 0 
L 2938 2094 
Q 2938 2591 2744 2837 
Q 2550 3084 2163 3084 
Q 1697 3084 1428 2787 
Q 1159 2491 1159 1978 
L 1159 0 
L 581 0 
L 581 3500 
L 1159 3500 
L 1159 2956 
Q 1366 3272 1645 3428 
Q 1925 3584 2291 3584 
Q 2894 3584 3203 3211 
Q 3513 2838 3513 2113 
z
" id="DejaVuSans-6e" transform="scale(0.015625)"/>
      <path d="M 2834 3397 
L 2834 2853 
Q 2591 2978 2328 3040 
Q 2066 3103 1784 3103 
Q 1356 3103 1142 2972 
Q 928 2841 928 2578 
Q 928 2378 1081 2264 
Q 1234 2150 1697 2047 
L 1894 2003 
Q 2506 1872 2764 1633 
Q 3022 1394 3022 966 
Q 3022 478 2636 193 
Q 2250 -91 1575 -91 
Q 1294 -91 989 -36 
Q 684 19 347 128 
L 347 722 
Q 666 556 975 473 
Q 1284 391 1588 391 
Q 1994 391 2212 530 
Q 2431 669 2431 922 
Q 2431 1156 2273 1281 
Q 2116 1406 1581 1522 
L 1381 1569 
Q 847 1681 609 1914 
Q 372 2147 372 2553 
Q 372 3047 722 3315 
Q 1072 3584 1716 3584 
Q 2034 3584 2315 3537 
Q 2597 3491 2834 3397 
z
" id="DejaVuSans-73" transform="scale(0.015625)"/>
      <path d="M 1172 4494 
L 1172 3500 
L 2356 3500 
L 2356 3053 
L 1172 3053 
L 1172 1153 
Q 1172 725 1289 603 
Q 1406 481 1766 481 
L 2356 481 
L 2356 0 
L 1766 0 
Q 1100 0 847 248 
Q 594 497 594 1153 
L 594 3053 
L 172 3053 
L 172 3500 
L 594 3500 
L 594 4494 
L 1172 4494 
z
" id="DejaVuSans-74" transform="scale(0.015625)"/>
     </defs>
     <use xlink:href="#DejaVuSans-62"/>
     <use x="63.476562" xlink:href="#DejaVuSans-65"/>
     <use x="125" xlink:href="#DejaVuSans-66"/>
     <use x="160.205078" xlink:href="#DejaVuSans-6f"/>
     <use x="221.386719" xlink:href="#DejaVuSans-72"/>
     <use x="260.25" xlink:href="#DejaVuSans-65"/>
     <use x="321.773438" xlink:href="#DejaVuSans-20"/>
     <use x="353.560547" xlink:href="#DejaVuSans-62"/>
     <use x="417.037109" xlink:href="#DejaVuSans-69"/>
     <use x="444.820312" xlink:href="#DejaVuSans-6e"/>
     <use x="508.199219" xlink:href="#DejaVuSans-61"/>
     <use x="569.478516" xlink:href="#DejaVuSans-72"/>
     <use x="610.591797" xlink:href="#DejaVuSans-69"/>
     <use x="638.375" xlink:href="#DejaVuSans-73"/>
     <use x="690.474609" xlink:href="#DejaVuSans-61"/>
     <use x="751.753906" xlink:href="#DejaVuSans-74"/>
     <use x="790.962891" xlink:href="#DejaVuSans-69"/>
     <use x="818.746094" xlink:href="#DejaVuSans-6f"/>
     <use x="879.927734" xlink:href="#DejaVuSans-6e"/>
    </g>
   </g>
  </g>
  <g id="axes_2">
   <g id="patch_7">
    <path d="M 43.78125 1264.318125 
L 1717.78125 1264.318125 
L 1717.78125 699.77267 
L 43.78125 699.77267 
z
" style="fill:#ffffff;"/>
   </g>
   <g id="matplotlib.axis_3">
    <g id="xtick_8">
     <g id="line2d_17">
      <g>
       <use style="stroke:#000000;stroke-width:0.8;" x="119.872159" xlink:href="#mb6a0b5ef70" y="1264.318125"/>
      </g>
     </g>
     <g id="text_19">
      <!-- 0 -->
      <g transform="translate(116.690909 1278.916563)scale(0.1 -0.1)">
       <use xlink:href="#DejaVuSans-30"/>
      </g>
     </g>
    </g>
    <g id="xtick_9">
     <g id="line2d_18">
      <g>
       <use style="stroke:#000000;stroke-width:0.8;" x="367.523613" xlink:href="#mb6a0b5ef70" y="1264.318125"/>
      </g>
     </g>
     <g id="text_20">
      <!-- 200 -->
      <g transform="translate(357.979863 1278.916563)scale(0.1 -0.1)">
       <use xlink:href="#DejaVuSans-32"/>
       <use x="63.623047" xlink:href="#DejaVuSans-30"/>
       <use x="127.246094" xlink:href="#DejaVuSans-30"/>
      </g>
     </g>
    </g>
    <g id="xtick_10">
     <g id="line2d_19">
      <g>
       <use style="stroke:#000000;stroke-width:0.8;" x="615.175066" xlink:href="#mb6a0b5ef70" y="1264.318125"/>
      </g>
     </g>
     <g id="text_21">
      <!-- 400 -->
      <g transform="translate(605.631316 1278.916563)scale(0.1 -0.1)">
       <use xlink:href="#DejaVuSans-34"/>
       <use x="63.623047" xlink:href="#DejaVuSans-30"/>
       <use x="127.246094" xlink:href="#DejaVuSans-30"/>
      </g>
     </g>
    </g>
    <g id="xtick_11">
     <g id="line2d_20">
      <g>
       <use style="stroke:#000000;stroke-width:0.8;" x="862.82652" xlink:href="#mb6a0b5ef70" y="1264.318125"/>
      </g>
     </g>
     <g id="text_22">
      <!-- 600 -->
      <g transform="translate(853.28277 1278.916563)scale(0.1 -0.1)">
       <use xlink:href="#DejaVuSans-36"/>
       <use x="63.623047" xlink:href="#DejaVuSans-30"/>
       <use x="127.246094" xlink:href="#DejaVuSans-30"/>
      </g>
     </g>
    </g>
    <g id="xtick_12">
     <g id="line2d_21">
      <g>
       <use style="stroke:#000000;stroke-width:0.8;" x="1110.477973" xlink:href="#mb6a0b5ef70" y="1264.318125"/>
      </g>
     </g>
     <g id="text_23">
      <!-- 800 -->
      <g transform="translate(1100.934223 1278.916563)scale(0.1 -0.1)">
       <use xlink:href="#DejaVuSans-38"/>
       <use x="63.623047" xlink:href="#DejaVuSans-30"/>
       <use x="127.246094" xlink:href="#DejaVuSans-30"/>
      </g>
     </g>
    </g>
    <g id="xtick_13">
     <g id="line2d_22">
      <g>
       <use style="stroke:#000000;stroke-width:0.8;" x="1358.129427" xlink:href="#mb6a0b5ef70" y="1264.318125"/>
      </g>
     </g>
     <g id="text_24">
      <!-- 1000 -->
      <g transform="translate(1345.404427 1278.916563)scale(0.1 -0.1)">
       <use xlink:href="#DejaVuSans-31"/>
       <use x="63.623047" xlink:href="#DejaVuSans-30"/>
       <use x="127.246094" xlink:href="#DejaVuSans-30"/>
       <use x="190.869141" xlink:href="#DejaVuSans-30"/>
      </g>
     </g>
    </g>
    <g id="xtick_14">
     <g id="line2d_23">
      <g>
       <use style="stroke:#000000;stroke-width:0.8;" x="1605.78088" xlink:href="#mb6a0b5ef70" y="1264.318125"/>
      </g>
     </g>
     <g id="text_25">
      <!-- 1200 -->
      <g transform="translate(1593.05588 1278.916563)scale(0.1 -0.1)">
       <use xlink:href="#DejaVuSans-31"/>
       <use x="63.623047" xlink:href="#DejaVuSans-32"/>
       <use x="127.246094" xlink:href="#DejaVuSans-30"/>
       <use x="190.869141" xlink:href="#DejaVuSans-30"/>
      </g>
     </g>
    </g>
    <g id="text_26">
     <!-- frame -->
     <g transform="translate(865.954687 1292.594688)scale(0.1 -0.1)">
      <use xlink:href="#DejaVuSans-66"/>
      <use x="35.205078" xlink:href="#DejaVuSans-72"/>
      <use x="76.318359" xlink:href="#DejaVuSans-61"/>
      <use x="137.597656" xlink:href="#DejaVuSans-6d"/>
      <use x="235.009766" xlink:href="#DejaVuSans-65"/>
     </g>
    </g>
   </g>
   <g id="matplotlib.axis_4">
    <g id="ytick_9">
     <g id="line2d_24">
      <g>
       <use style="stroke:#000000;stroke-width:0.8;" x="43.78125" xlink:href="#mbee5c2472f" y="1238.656968"/>
      </g>
     </g>
     <g id="text_27">
      <!-- 0.0 -->
      <g transform="translate(20.878125 1242.456187)scale(0.1 -0.1)">
       <use xlink:href="#DejaVuSans-30"/>
       <use x="63.623047" xlink:href="#DejaVuSans-2e"/>
       <use x="95.410156" xlink:href="#DejaVuSans-30"/>
      </g>
     </g>
    </g>
    <g id="ytick_10">
     <g id="line2d_25">
      <g>
       <use style="stroke:#000000;stroke-width:0.8;" x="43.78125" xlink:href="#mbee5c2472f" y="1136.01234"/>
      </g>
     </g>
     <g id="text_28">
      <!-- 0.2 -->
      <g transform="translate(20.878125 1139.811559)scale(0.1 -0.1)">
       <use xlink:href="#DejaVuSans-30"/>
       <use x="63.623047" xlink:href="#DejaVuSans-2e"/>
       <use x="95.410156" xlink:href="#DejaVuSans-32"/>
      </g>
     </g>
    </g>
    <g id="ytick_11">
     <g id="line2d_26">
      <g>
       <use style="stroke:#000000;stroke-width:0.8;" x="43.78125" xlink:href="#mbee5c2472f" y="1033.367712"/>
      </g>
     </g>
     <g id="text_29">
      <!-- 0.4 -->
      <g transform="translate(20.878125 1037.166931)scale(0.1 -0.1)">
       <use xlink:href="#DejaVuSans-30"/>
       <use x="63.623047" xlink:href="#DejaVuSans-2e"/>
       <use x="95.410156" xlink:href="#DejaVuSans-34"/>
      </g>
     </g>
    </g>
    <g id="ytick_12">
     <g id="line2d_27">
      <g>
       <use style="stroke:#000000;stroke-width:0.8;" x="43.78125" xlink:href="#mbee5c2472f" y="930.723084"/>
      </g>
     </g>
     <g id="text_30">
      <!-- 0.6 -->
      <g transform="translate(20.878125 934.522302)scale(0.1 -0.1)">
       <use xlink:href="#DejaVuSans-30"/>
       <use x="63.623047" xlink:href="#DejaVuSans-2e"/>
       <use x="95.410156" xlink:href="#DejaVuSans-36"/>
      </g>
     </g>
    </g>
    <g id="ytick_13">
     <g id="line2d_28">
      <g>
       <use style="stroke:#000000;stroke-width:0.8;" x="43.78125" xlink:href="#mbee5c2472f" y="828.078456"/>
      </g>
     </g>
     <g id="text_31">
      <!-- 0.8 -->
      <g transform="translate(20.878125 831.877674)scale(0.1 -0.1)">
       <use xlink:href="#DejaVuSans-30"/>
       <use x="63.623047" xlink:href="#DejaVuSans-2e"/>
       <use x="95.410156" xlink:href="#DejaVuSans-38"/>
      </g>
     </g>
    </g>
    <g id="ytick_14">
     <g id="line2d_29">
      <g>
       <use style="stroke:#000000;stroke-width:0.8;" x="43.78125" xlink:href="#mbee5c2472f" y="725.433827"/>
      </g>
     </g>
     <g id="text_32">
      <!-- 1.0 -->
      <g transform="translate(20.878125 729.233046)scale(0.1 -0.1)">
       <use xlink:href="#DejaVuSans-31"/>
       <use x="63.623047" xlink:href="#DejaVuSans-2e"/>
       <use x="95.410156" xlink:href="#DejaVuSans-30"/>
      </g>
     </g>
    </g>
    <g id="text_33">
     <!-- GCaMP -->
     <g transform="translate(14.798437 999.803991)rotate(-90)scale(0.1 -0.1)">
      <use xlink:href="#DejaVuSans-47"/>
      <use x="77.490234" xlink:href="#DejaVuSans-43"/>
      <use x="147.314453" xlink:href="#DejaVuSans-61"/>
      <use x="208.59375" xlink:href="#DejaVuSans-4d"/>
      <use x="294.873047" xlink:href="#DejaVuSans-50"/>
     </g>
    </g>
   </g>
   <g id="line2d_30">
    <path clip-path="url(#pb7a95e87a3)" d="M 119.872159 1238.656968 
L 1026.276479 1238.656968 
L 1027.514736 725.433827 
L 1081.998056 725.433827 
L 1083.236313 1238.656968 
L 1132.766604 1238.656968 
L 1134.004861 725.433827 
L 1249.162787 725.433827 
L 1250.401044 1238.656968 
L 1566.156648 1238.656968 
L 1567.394905 725.433827 
L 1641.690341 725.433827 
L 1641.690341 725.433827 
" style="fill:none;stroke:#008000;stroke-linecap:square;stroke-width:1.5;"/>
   </g>
   <g id="patch_8">
    <path d="M 43.78125 1264.318125 
L 43.78125 699.77267 
" style="fill:none;stroke:#000000;stroke-linecap:square;stroke-linejoin:miter;stroke-width:0.8;"/>
   </g>
   <g id="patch_9">
    <path d="M 1717.78125 1264.318125 
L 1717.78125 699.77267 
" style="fill:none;stroke:#000000;stroke-linecap:square;stroke-linejoin:miter;stroke-width:0.8;"/>
   </g>
   <g id="patch_10">
    <path d="M 43.78125 1264.318125 
L 1717.78125 1264.318125 
" style="fill:none;stroke:#000000;stroke-linecap:square;stroke-linejoin:miter;stroke-width:0.8;"/>
   </g>
   <g id="patch_11">
    <path d="M 43.78125 699.77267 
L 1717.78125 699.77267 
" style="fill:none;stroke:#000000;stroke-linecap:square;stroke-linejoin:miter;stroke-width:0.8;"/>
   </g>
   <g id="text_34">
    <!-- before binarisation -->
    <g transform="translate(824.1825 693.77267)scale(0.12 -0.12)">
     <use xlink:href="#DejaVuSans-62"/>
     <use x="63.476562" xlink:href="#DejaVuSans-65"/>
     <use x="125" xlink:href="#DejaVuSans-66"/>
     <use x="160.205078" xlink:href="#DejaVuSans-6f"/>
     <use x="221.386719" xlink:href="#DejaVuSans-72"/>
     <use x="260.25" xlink:href="#DejaVuSans-65"/>
     <use x="321.773438" xlink:href="#DejaVuSans-20"/>
     <use x="353.560547" xlink:href="#DejaVuSans-62"/>
     <use x="417.037109" xlink:href="#DejaVuSans-69"/>
     <use x="444.820312" xlink:href="#DejaVuSans-6e"/>
     <use x="508.199219" xlink:href="#DejaVuSans-61"/>
     <use x="569.478516" xlink:href="#DejaVuSans-72"/>
     <use x="610.591797" xlink:href="#DejaVuSans-69"/>
     <use x="638.375" xlink:href="#DejaVuSans-73"/>
     <use x="690.474609" xlink:href="#DejaVuSans-61"/>
     <use x="751.753906" xlink:href="#DejaVuSans-74"/>
     <use x="790.962891" xlink:href="#DejaVuSans-69"/>
     <use x="818.746094" xlink:href="#DejaVuSans-6f"/>
     <use x="879.927734" xlink:href="#DejaVuSans-6e"/>
    </g>
   </g>
  </g>
 </g>
 <defs>
  <clipPath id="pe0a9027e1c">
   <rect height="564.545455" width="1674" x="43.78125" y="22.318125"/>
  </clipPath>
  <clipPath id="pb7a95e87a3">
   <rect height="564.545455" width="1674" x="43.78125" y="699.77267"/>
  </clipPath>
 </defs>
</svg>
