<?xml version="1.0" encoding="utf-8" standalone="no"?>
<!DOCTYPE svg PUBLIC "-//W3C//DTD SVG 1.1//EN"
  "http://www.w3.org/Graphics/SVG/1.1/DTD/svg11.dtd">
<svg height="1301.874375pt" version="1.1" viewBox="0 0 1724.98125 1301.874375" width="1724.98125pt" xmlns="http://www.w3.org/2000/svg" xmlns:xlink="http://www.w3.org/1999/xlink">
 <metadata>
  <rdf:RDF xmlns:cc="http://creativecommons.org/ns#" xmlns:dc="http://purl.org/dc/elements/1.1/" xmlns:rdf="http://www.w3.org/1999/02/22-rdf-syntax-ns#">
   <cc:Work>
    <dc:type rdf:resource="http://purl.org/dc/dcmitype/StillImage"/>
    <dc:date>2022-07-24T15:54:35.085108</dc:date>
    <dc:format>image/svg+xml</dc:format>
    <dc:creator>
     <cc:Agent>
      <dc:title>Matplotlib v3.4.2, https://matplotlib.org/</dc:title>
     </cc:Agent>
    </dc:creator>
   </cc:Work>
  </rdf:RDF>
 </metadata>
 <defs>
  <style type="text/css">*{stroke-linecap:butt;stroke-linejoin:round;}</style>
 </defs>
 <g id="figure_1">
  <g id="patch_1">
   <path d="M 0 1301.874375 
L 1724.98125 1301.874375 
L 1724.98125 0 
L 0 0 
z
" style="fill:#ffffff;"/>
  </g>
  <g id="axes_1">
   <g id="patch_2">
    <path d="M 43.78125 586.86358 
L 1717.78125 586.86358 
L 1717.78125 22.318125 
L 43.78125 22.318125 
z
" style="fill:#ffffff;"/>
   </g>
   <g id="matplotlib.axis_1">
    <g id="xtick_1">
     <g id="line2d_1">
      <defs>
       <path d="M 0 0 
L 0 3.5 
" id="m54ab07504c" style="stroke:#000000;stroke-width:0.8;"/>
      </defs>
      <g>
       <use style="stroke:#000000;stroke-width:0.8;" x="119.872159" xlink:href="#m54ab07504c" y="586.86358"/>
      </g>
     </g>
     <g id="text_1">
      <!-- 0 -->
      <g transform="translate(116.690909 601.462017)scale(0.1 -0.1)">
       <defs>
        <path d="M 2034 4250 
Q 1547 4250 1301 3770 
Q 1056 3291 1056 2328 
Q 1056 1369 1301 889 
Q 1547 409 2034 409 
Q 2525 409 2770 889 
Q 3016 1369 3016 2328 
Q 3016 3291 2770 3770 
Q 2525 4250 2034 4250 
z
M 2034 4750 
Q 2819 4750 3233 4129 
Q 3647 3509 3647 2328 
Q 3647 1150 3233 529 
Q 2819 -91 2034 -91 
Q 1250 -91 836 529 
Q 422 1150 422 2328 
Q 422 3509 836 4129 
Q 1250 4750 2034 4750 
z
" id="DejaVuSans-30" transform="scale(0.015625)"/>
       </defs>
       <use xlink:href="#DejaVuSans-30"/>
      </g>
     </g>
    </g>
    <g id="xtick_2">
     <g id="line2d_2">
      <g>
       <use style="stroke:#000000;stroke-width:0.8;" x="367.523613" xlink:href="#m54ab07504c" y="586.86358"/>
      </g>
     </g>
     <g id="text_2">
      <!-- 200 -->
      <g transform="translate(357.979863 601.462017)scale(0.1 -0.1)">
       <defs>
        <path d="M 1228 531 
L 3431 531 
L 3431 0 
L 469 0 
L 469 531 
Q 828 903 1448 1529 
Q 2069 2156 2228 2338 
Q 2531 2678 2651 2914 
Q 2772 3150 2772 3378 
Q 2772 3750 2511 3984 
Q 2250 4219 1831 4219 
Q 1534 4219 1204 4116 
Q 875 4013 500 3803 
L 500 4441 
Q 881 4594 1212 4672 
Q 1544 4750 1819 4750 
Q 2544 4750 2975 4387 
Q 3406 4025 3406 3419 
Q 3406 3131 3298 2873 
Q 3191 2616 2906 2266 
Q 2828 2175 2409 1742 
Q 1991 1309 1228 531 
z
" id="DejaVuSans-32" transform="scale(0.015625)"/>
       </defs>
       <use xlink:href="#DejaVuSans-32"/>
       <use x="63.623047" xlink:href="#DejaVuSans-30"/>
       <use x="127.246094" xlink:href="#DejaVuSans-30"/>
      </g>
     </g>
    </g>
    <g id="xtick_3">
     <g id="line2d_3">
      <g>
       <use style="stroke:#000000;stroke-width:0.8;" x="615.175066" xlink:href="#m54ab07504c" y="586.86358"/>
      </g>
     </g>
     <g id="text_3">
      <!-- 400 -->
      <g transform="translate(605.631316 601.462017)scale(0.1 -0.1)">
       <defs>
        <path d="M 2419 4116 
L 825 1625 
L 2419 1625 
L 2419 4116 
z
M 2253 4666 
L 3047 4666 
L 3047 1625 
L 3713 1625 
L 3713 1100 
L 3047 1100 
L 3047 0 
L 2419 0 
L 2419 1100 
L 313 1100 
L 313 1709 
L 2253 4666 
z
" id="DejaVuSans-34" transform="scale(0.015625)"/>
       </defs>
       <use xlink:href="#DejaVuSans-34"/>
       <use x="63.623047" xlink:href="#DejaVuSans-30"/>
       <use x="127.246094" xlink:href="#DejaVuSans-30"/>
      </g>
     </g>
    </g>
    <g id="xtick_4">
     <g id="line2d_4">
      <g>
       <use style="stroke:#000000;stroke-width:0.8;" x="862.82652" xlink:href="#m54ab07504c" y="586.86358"/>
      </g>
     </g>
     <g id="text_4">
      <!-- 600 -->
      <g transform="translate(853.28277 601.462017)scale(0.1 -0.1)">
       <defs>
        <path d="M 2113 2584 
Q 1688 2584 1439 2293 
Q 1191 2003 1191 1497 
Q 1191 994 1439 701 
Q 1688 409 2113 409 
Q 2538 409 2786 701 
Q 3034 994 3034 1497 
Q 3034 2003 2786 2293 
Q 2538 2584 2113 2584 
z
M 3366 4563 
L 3366 3988 
Q 3128 4100 2886 4159 
Q 2644 4219 2406 4219 
Q 1781 4219 1451 3797 
Q 1122 3375 1075 2522 
Q 1259 2794 1537 2939 
Q 1816 3084 2150 3084 
Q 2853 3084 3261 2657 
Q 3669 2231 3669 1497 
Q 3669 778 3244 343 
Q 2819 -91 2113 -91 
Q 1303 -91 875 529 
Q 447 1150 447 2328 
Q 447 3434 972 4092 
Q 1497 4750 2381 4750 
Q 2619 4750 2861 4703 
Q 3103 4656 3366 4563 
z
" id="DejaVuSans-36" transform="scale(0.015625)"/>
       </defs>
       <use xlink:href="#DejaVuSans-36"/>
       <use x="63.623047" xlink:href="#DejaVuSans-30"/>
       <use x="127.246094" xlink:href="#DejaVuSans-30"/>
      </g>
     </g>
    </g>
    <g id="xtick_5">
     <g id="line2d_5">
      <g>
       <use style="stroke:#000000;stroke-width:0.8;" x="1110.477973" xlink:href="#m54ab07504c" y="586.86358"/>
      </g>
     </g>
     <g id="text_5">
      <!-- 800 -->
      <g transform="translate(1100.934223 601.462017)scale(0.1 -0.1)">
       <defs>
        <path d="M 2034 2216 
Q 1584 2216 1326 1975 
Q 1069 1734 1069 1313 
Q 1069 891 1326 650 
Q 1584 409 2034 409 
Q 2484 409 2743 651 
Q 3003 894 3003 1313 
Q 3003 1734 2745 1975 
Q 2488 2216 2034 2216 
z
M 1403 2484 
Q 997 2584 770 2862 
Q 544 3141 544 3541 
Q 544 4100 942 4425 
Q 1341 4750 2034 4750 
Q 2731 4750 3128 4425 
Q 3525 4100 3525 3541 
Q 3525 3141 3298 2862 
Q 3072 2584 2669 2484 
Q 3125 2378 3379 2068 
Q 3634 1759 3634 1313 
Q 3634 634 3220 271 
Q 2806 -91 2034 -91 
Q 1263 -91 848 271 
Q 434 634 434 1313 
Q 434 1759 690 2068 
Q 947 2378 1403 2484 
z
M 1172 3481 
Q 1172 3119 1398 2916 
Q 1625 2713 2034 2713 
Q 2441 2713 2670 2916 
Q 2900 3119 2900 3481 
Q 2900 3844 2670 4047 
Q 2441 4250 2034 4250 
Q 1625 4250 1398 4047 
Q 1172 3844 1172 3481 
z
" id="DejaVuSans-38" transform="scale(0.015625)"/>
       </defs>
       <use xlink:href="#DejaVuSans-38"/>
       <use x="63.623047" xlink:href="#DejaVuSans-30"/>
       <use x="127.246094" xlink:href="#DejaVuSans-30"/>
      </g>
     </g>
    </g>
    <g id="xtick_6">
     <g id="line2d_6">
      <g>
       <use style="stroke:#000000;stroke-width:0.8;" x="1358.129427" xlink:href="#m54ab07504c" y="586.86358"/>
      </g>
     </g>
     <g id="text_6">
      <!-- 1000 -->
      <g transform="translate(1345.404427 601.462017)scale(0.1 -0.1)">
       <defs>
        <path d="M 794 531 
L 1825 531 
L 1825 4091 
L 703 3866 
L 703 4441 
L 1819 4666 
L 2450 4666 
L 2450 531 
L 3481 531 
L 3481 0 
L 794 0 
L 794 531 
z
" id="DejaVuSans-31" transform="scale(0.015625)"/>
       </defs>
       <use xlink:href="#DejaVuSans-31"/>
       <use x="63.623047" xlink:href="#DejaVuSans-30"/>
       <use x="127.246094" xlink:href="#DejaVuSans-30"/>
       <use x="190.869141" xlink:href="#DejaVuSans-30"/>
      </g>
     </g>
    </g>
    <g id="xtick_7">
     <g id="line2d_7">
      <g>
       <use style="stroke:#000000;stroke-width:0.8;" x="1605.78088" xlink:href="#m54ab07504c" y="586.86358"/>
      </g>
     </g>
     <g id="text_7">
      <!-- 1200 -->
      <g transform="translate(1593.05588 601.462017)scale(0.1 -0.1)">
       <use xlink:href="#DejaVuSans-31"/>
       <use x="63.623047" xlink:href="#DejaVuSans-32"/>
       <use x="127.246094" xlink:href="#DejaVuSans-30"/>
       <use x="190.869141" xlink:href="#DejaVuSans-30"/>
      </g>
     </g>
    </g>
    <g id="text_8">
     <!-- frame -->
     <g transform="translate(865.954687 615.140142)scale(0.1 -0.1)">
      <defs>
       <path d="M 2375 4863 
L 2375 4384 
L 1825 4384 
Q 1516 4384 1395 4259 
Q 1275 4134 1275 3809 
L 1275 3500 
L 2222 3500 
L 2222 3053 
L 1275 3053 
L 1275 0 
L 697 0 
L 697 3053 
L 147 3053 
L 147 3500 
L 697 3500 
L 697 3744 
Q 697 4328 969 4595 
Q 1241 4863 1831 4863 
L 2375 4863 
z
" id="DejaVuSans-66" transform="scale(0.015625)"/>
       <path d="M 2631 2963 
Q 2534 3019 2420 3045 
Q 2306 3072 2169 3072 
Q 1681 3072 1420 2755 
Q 1159 2438 1159 1844 
L 1159 0 
L 581 0 
L 581 3500 
L 1159 3500 
L 1159 2956 
Q 1341 3275 1631 3429 
Q 1922 3584 2338 3584 
Q 2397 3584 2469 3576 
Q 2541 3569 2628 3553 
L 2631 2963 
z
" id="DejaVuSans-72" transform="scale(0.015625)"/>
       <path d="M 2194 1759 
Q 1497 1759 1228 1600 
Q 959 1441 959 1056 
Q 959 750 1161 570 
Q 1363 391 1709 391 
Q 2188 391 2477 730 
Q 2766 1069 2766 1631 
L 2766 1759 
L 2194 1759 
z
M 3341 1997 
L 3341 0 
L 2766 0 
L 2766 531 
Q 2569 213 2275 61 
Q 1981 -91 1556 -91 
Q 1019 -91 701 211 
Q 384 513 384 1019 
Q 384 1609 779 1909 
Q 1175 2209 1959 2209 
L 2766 2209 
L 2766 2266 
Q 2766 2663 2505 2880 
Q 2244 3097 1772 3097 
Q 1472 3097 1187 3025 
Q 903 2953 641 2809 
L 641 3341 
Q 956 3463 1253 3523 
Q 1550 3584 1831 3584 
Q 2591 3584 2966 3190 
Q 3341 2797 3341 1997 
z
" id="DejaVuSans-61" transform="scale(0.015625)"/>
       <path d="M 3328 2828 
Q 3544 3216 3844 3400 
Q 4144 3584 4550 3584 
Q 5097 3584 5394 3201 
Q 5691 2819 5691 2113 
L 5691 0 
L 5113 0 
L 5113 2094 
Q 5113 2597 4934 2840 
Q 4756 3084 4391 3084 
Q 3944 3084 3684 2787 
Q 3425 2491 3425 1978 
L 3425 0 
L 2847 0 
L 2847 2094 
Q 2847 2600 2669 2842 
Q 2491 3084 2119 3084 
Q 1678 3084 1418 2786 
Q 1159 2488 1159 1978 
L 1159 0 
L 581 0 
L 581 3500 
L 1159 3500 
L 1159 2956 
Q 1356 3278 1631 3431 
Q 1906 3584 2284 3584 
Q 2666 3584 2933 3390 
Q 3200 3197 3328 2828 
z
" id="DejaVuSans-6d" transform="scale(0.015625)"/>
       <path d="M 3597 1894 
L 3597 1613 
L 953 1613 
Q 991 1019 1311 708 
Q 1631 397 2203 397 
Q 2534 397 2845 478 
Q 3156 559 3463 722 
L 3463 178 
Q 3153 47 2828 -22 
Q 2503 -91 2169 -91 
Q 1331 -91 842 396 
Q 353 884 353 1716 
Q 353 2575 817 3079 
Q 1281 3584 2069 3584 
Q 2775 3584 3186 3129 
Q 3597 2675 3597 1894 
z
M 3022 2063 
Q 3016 2534 2758 2815 
Q 2500 3097 2075 3097 
Q 1594 3097 1305 2825 
Q 1016 2553 972 2059 
L 3022 2063 
z
" id="DejaVuSans-65" transform="scale(0.015625)"/>
      </defs>
      <use xlink:href="#DejaVuSans-66"/>
      <use x="35.205078" xlink:href="#DejaVuSans-72"/>
      <use x="76.318359" xlink:href="#DejaVuSans-61"/>
      <use x="137.597656" xlink:href="#DejaVuSans-6d"/>
      <use x="235.009766" xlink:href="#DejaVuSans-65"/>
     </g>
    </g>
   </g>
   <g id="matplotlib.axis_2">
    <g id="ytick_1">
     <g id="line2d_8">
      <defs>
       <path d="M 0 0 
L -3.5 0 
" id="m5ef97a475a" style="stroke:#000000;stroke-width:0.8;"/>
      </defs>
      <g>
       <use style="stroke:#000000;stroke-width:0.8;" x="43.78125" xlink:href="#m5ef97a475a" y="536.558977"/>
      </g>
     </g>
     <g id="text_9">
      <!-- 0.8 -->
      <g transform="translate(20.878125 540.358196)scale(0.1 -0.1)">
       <defs>
        <path d="M 684 794 
L 1344 794 
L 1344 0 
L 684 0 
L 684 794 
z
" id="DejaVuSans-2e" transform="scale(0.015625)"/>
       </defs>
       <use xlink:href="#DejaVuSans-30"/>
       <use x="63.623047" xlink:href="#DejaVuSans-2e"/>
       <use x="95.410156" xlink:href="#DejaVuSans-38"/>
      </g>
     </g>
    </g>
    <g id="ytick_2">
     <g id="line2d_9">
      <g>
       <use style="stroke:#000000;stroke-width:0.8;" x="43.78125" xlink:href="#m5ef97a475a" y="443.427002"/>
      </g>
     </g>
     <g id="text_10">
      <!-- 1.0 -->
      <g transform="translate(20.878125 447.226221)scale(0.1 -0.1)">
       <use xlink:href="#DejaVuSans-31"/>
       <use x="63.623047" xlink:href="#DejaVuSans-2e"/>
       <use x="95.410156" xlink:href="#DejaVuSans-30"/>
      </g>
     </g>
    </g>
    <g id="ytick_3">
     <g id="line2d_10">
      <g>
       <use style="stroke:#000000;stroke-width:0.8;" x="43.78125" xlink:href="#m5ef97a475a" y="350.295027"/>
      </g>
     </g>
     <g id="text_11">
      <!-- 1.2 -->
      <g transform="translate(20.878125 354.094245)scale(0.1 -0.1)">
       <use xlink:href="#DejaVuSans-31"/>
       <use x="63.623047" xlink:href="#DejaVuSans-2e"/>
       <use x="95.410156" xlink:href="#DejaVuSans-32"/>
      </g>
     </g>
    </g>
    <g id="ytick_4">
     <g id="line2d_11">
      <g>
       <use style="stroke:#000000;stroke-width:0.8;" x="43.78125" xlink:href="#m5ef97a475a" y="257.163051"/>
      </g>
     </g>
     <g id="text_12">
      <!-- 1.4 -->
      <g transform="translate(20.878125 260.96227)scale(0.1 -0.1)">
       <use xlink:href="#DejaVuSans-31"/>
       <use x="63.623047" xlink:href="#DejaVuSans-2e"/>
       <use x="95.410156" xlink:href="#DejaVuSans-34"/>
      </g>
     </g>
    </g>
    <g id="ytick_5">
     <g id="line2d_12">
      <g>
       <use style="stroke:#000000;stroke-width:0.8;" x="43.78125" xlink:href="#m5ef97a475a" y="164.031076"/>
      </g>
     </g>
     <g id="text_13">
      <!-- 1.6 -->
      <g transform="translate(20.878125 167.830295)scale(0.1 -0.1)">
       <use xlink:href="#DejaVuSans-31"/>
       <use x="63.623047" xlink:href="#DejaVuSans-2e"/>
       <use x="95.410156" xlink:href="#DejaVuSans-36"/>
      </g>
     </g>
    </g>
    <g id="ytick_6">
     <g id="line2d_13">
      <g>
       <use style="stroke:#000000;stroke-width:0.8;" x="43.78125" xlink:href="#m5ef97a475a" y="70.899101"/>
      </g>
     </g>
     <g id="text_14">
      <!-- 1.8 -->
      <g transform="translate(20.878125 74.698319)scale(0.1 -0.1)">
       <use xlink:href="#DejaVuSans-31"/>
       <use x="63.623047" xlink:href="#DejaVuSans-2e"/>
       <use x="95.410156" xlink:href="#DejaVuSans-38"/>
      </g>
     </g>
    </g>
    <g id="text_15">
     <!-- GCaMP -->
     <g transform="translate(14.798437 322.349446)rotate(-90)scale(0.1 -0.1)">
      <defs>
       <path d="M 3809 666 
L 3809 1919 
L 2778 1919 
L 2778 2438 
L 4434 2438 
L 4434 434 
Q 4069 175 3628 42 
Q 3188 -91 2688 -91 
Q 1594 -91 976 548 
Q 359 1188 359 2328 
Q 359 3472 976 4111 
Q 1594 4750 2688 4750 
Q 3144 4750 3555 4637 
Q 3966 4525 4313 4306 
L 4313 3634 
Q 3963 3931 3569 4081 
Q 3175 4231 2741 4231 
Q 1884 4231 1454 3753 
Q 1025 3275 1025 2328 
Q 1025 1384 1454 906 
Q 1884 428 2741 428 
Q 3075 428 3337 486 
Q 3600 544 3809 666 
z
" id="DejaVuSans-47" transform="scale(0.015625)"/>
       <path d="M 4122 4306 
L 4122 3641 
Q 3803 3938 3442 4084 
Q 3081 4231 2675 4231 
Q 1875 4231 1450 3742 
Q 1025 3253 1025 2328 
Q 1025 1406 1450 917 
Q 1875 428 2675 428 
Q 3081 428 3442 575 
Q 3803 722 4122 1019 
L 4122 359 
Q 3791 134 3420 21 
Q 3050 -91 2638 -91 
Q 1578 -91 968 557 
Q 359 1206 359 2328 
Q 359 3453 968 4101 
Q 1578 4750 2638 4750 
Q 3056 4750 3426 4639 
Q 3797 4528 4122 4306 
z
" id="DejaVuSans-43" transform="scale(0.015625)"/>
       <path d="M 628 4666 
L 1569 4666 
L 2759 1491 
L 3956 4666 
L 4897 4666 
L 4897 0 
L 4281 0 
L 4281 4097 
L 3078 897 
L 2444 897 
L 1241 4097 
L 1241 0 
L 628 0 
L 628 4666 
z
" id="DejaVuSans-4d" transform="scale(0.015625)"/>
       <path d="M 1259 4147 
L 1259 2394 
L 2053 2394 
Q 2494 2394 2734 2622 
Q 2975 2850 2975 3272 
Q 2975 3691 2734 3919 
Q 2494 4147 2053 4147 
L 1259 4147 
z
M 628 4666 
L 2053 4666 
Q 2838 4666 3239 4311 
Q 3641 3956 3641 3272 
Q 3641 2581 3239 2228 
Q 2838 1875 2053 1875 
L 1259 1875 
L 1259 0 
L 628 0 
L 628 4666 
z
" id="DejaVuSans-50" transform="scale(0.015625)"/>
      </defs>
      <use xlink:href="#DejaVuSans-47"/>
      <use x="77.490234" xlink:href="#DejaVuSans-43"/>
      <use x="147.314453" xlink:href="#DejaVuSans-61"/>
      <use x="208.59375" xlink:href="#DejaVuSans-4d"/>
      <use x="294.873047" xlink:href="#DejaVuSans-50"/>
     </g>
    </g>
   </g>
   <g id="line2d_14">
    <path clip-path="url(#p8b188c1a06)" d="M 119.872159 519.536284 
L 123.586931 526.863036 
L 124.825188 528.527262 
L 126.063445 529.082704 
L 127.301703 529.004863 
L 128.53996 529.240549 
L 129.778217 530.329076 
L 131.016474 532.240759 
L 132.254732 534.491397 
L 133.492989 536.380089 
L 134.731246 537.598519 
L 135.969504 538.286421 
L 137.207761 538.56253 
L 138.446018 538.484452 
L 140.922533 537.896245 
L 142.16079 538.391658 
L 143.399047 540.314292 
L 145.875562 546.787483 
L 147.113819 549.174781 
L 148.352076 550.292425 
L 149.590334 550.282386 
L 150.828591 549.216059 
L 152.066848 547.104655 
L 154.543363 541.12768 
L 155.78162 538.749846 
L 157.019877 537.819715 
L 158.258134 538.194344 
L 159.496392 539.01183 
L 160.734649 539.675755 
L 161.972906 540.160921 
L 163.211163 540.785182 
L 164.449421 542.167063 
L 166.925935 547.306505 
L 168.164193 548.202008 
L 169.40245 546.108702 
L 170.640707 541.215196 
L 173.117222 528.439863 
L 174.355479 523.643715 
L 175.593736 521.536706 
L 176.831993 523.119019 
L 178.070251 528.531646 
L 181.785022 552.118933 
L 183.02328 556.754117 
L 184.261537 558.329772 
L 185.499794 556.956498 
L 186.738052 553.520276 
L 187.976309 549.393406 
L 189.214566 545.664277 
L 190.452823 542.884192 
L 191.691081 541.595117 
L 192.929338 542.30873 
L 195.405852 546.765199 
L 196.64411 547.134284 
L 197.882367 545.534877 
L 199.120624 543.199767 
L 200.358881 541.419438 
L 201.597139 540.797524 
L 202.835396 541.336762 
L 204.073653 542.678661 
L 205.311911 544.18865 
L 206.550168 545.103694 
L 207.788425 545.088755 
L 209.026682 544.363209 
L 210.26494 543.150044 
L 212.741454 540.3843 
L 213.979711 539.542076 
L 215.217969 539.369024 
L 216.456226 539.983583 
L 217.694483 541.213088 
L 218.93274 542.851617 
L 220.170998 544.968193 
L 221.409255 547.723935 
L 223.88577 554.050094 
L 225.124027 556.14664 
L 226.362284 556.845352 
L 227.600541 556.099542 
L 228.838799 553.889387 
L 230.077056 550.347911 
L 232.55357 542.282266 
L 233.791828 539.824816 
L 235.030085 539.251485 
L 236.268342 540.099664 
L 237.5066 541.682302 
L 238.744857 544.074679 
L 239.983114 547.514261 
L 242.459629 555.052798 
L 243.697886 557.91988 
L 244.936143 560.056579 
L 246.1744 561.202423 
L 247.412658 560.814867 
L 248.650915 558.294519 
L 249.889172 553.336294 
L 252.365687 539.979527 
L 253.603944 535.161854 
L 254.842201 533.062137 
L 256.080459 533.529302 
L 257.318716 535.645274 
L 258.556973 538.051053 
L 259.79523 539.551651 
L 262.271745 540.568004 
L 263.510002 542.013029 
L 264.748259 544.343366 
L 265.986517 547.17561 
L 269.701288 556.814231 
L 270.939546 558.464826 
L 272.177803 557.30743 
L 273.41606 552.883496 
L 275.892575 540.32683 
L 277.130832 536.314369 
L 278.369089 534.995585 
L 279.607347 535.938625 
L 282.083861 540.359535 
L 283.322118 541.201842 
L 284.560376 539.962161 
L 285.798633 536.975586 
L 287.03689 533.238103 
L 288.275147 529.978146 
L 289.513405 528.357105 
L 290.751662 528.712858 
L 293.228177 532.165834 
L 294.466434 533.030264 
L 295.704691 532.178455 
L 298.181206 527.588805 
L 299.419463 526.271638 
L 300.65772 525.921938 
L 301.895977 526.06856 
L 303.134235 527.005846 
L 304.372492 529.148357 
L 306.849006 534.58098 
L 309.325521 538.691724 
L 311.802036 542.62719 
L 314.27855 547.624654 
L 315.516807 549.499377 
L 316.755065 549.246969 
L 317.993322 545.725657 
L 319.231579 538.993015 
L 321.708094 522.10856 
L 322.946351 515.346219 
L 324.184608 511.572167 
L 325.422866 511.582889 
L 326.661123 514.54474 
L 327.89938 518.303781 
L 329.137637 520.769351 
L 330.375895 520.780362 
L 331.614152 518.502098 
L 332.852409 515.521439 
L 334.090666 514.002167 
L 335.328924 515.068161 
L 337.805438 521.00699 
L 339.043695 522.801376 
L 340.281953 523.06678 
L 341.52021 521.936639 
L 342.758467 519.584923 
L 343.996725 516.702123 
L 345.234982 514.330618 
L 346.473239 512.973957 
L 347.711496 512.394478 
L 348.949754 511.6834 
L 350.188011 509.56344 
L 352.664525 501.76069 
L 353.902783 500.132958 
L 355.14104 502.273214 
L 357.617554 512.11297 
L 358.855812 514.526585 
L 360.094069 513.918638 
L 361.332326 511.195135 
L 362.570584 508.01688 
L 363.808841 506.302187 
L 365.047098 506.984272 
L 366.285355 509.140653 
L 367.523613 510.945725 
L 368.76187 511.396339 
L 370.000127 510.572799 
L 371.238384 508.628888 
L 373.714899 503.064052 
L 374.953156 501.424876 
L 376.191413 500.858258 
L 379.906185 500.383125 
L 381.144443 500.572944 
L 382.3827 501.192118 
L 383.620957 502.198623 
L 384.859214 503.624695 
L 388.573986 508.921393 
L 389.812243 510.798938 
L 391.050501 512.271679 
L 392.288758 512.548218 
L 393.527015 511.373758 
L 396.00353 506.528704 
L 397.241787 505.263579 
L 398.480044 506.132284 
L 399.718302 508.303542 
L 400.956559 509.802102 
L 402.194816 508.963218 
L 403.433073 505.744222 
L 404.671331 501.56473 
L 405.909588 497.840549 
L 407.147845 495.114807 
L 408.386102 493.20113 
L 409.62436 491.908277 
L 410.862617 491.588262 
L 412.100874 492.540112 
L 415.815646 497.803694 
L 417.053903 499.967444 
L 418.292161 502.74318 
L 419.530418 505.134616 
L 420.768675 505.971517 
L 422.006932 504.883605 
L 423.24519 502.222207 
L 425.721704 494.770345 
L 426.959961 491.069594 
L 428.198219 487.785061 
L 429.436476 485.066745 
L 430.674733 483.220586 
L 431.912991 482.345185 
L 433.151248 481.771092 
L 434.389505 480.643138 
L 435.627762 479.005657 
L 436.86602 478.291724 
L 438.104277 480.464909 
L 439.342534 486.046428 
L 440.580791 493.435819 
L 441.819049 499.975168 
L 443.057306 503.368096 
L 444.295563 503.109127 
L 446.772078 498.607268 
L 448.010335 497.628902 
L 449.248592 497.766403 
L 450.48685 498.399434 
L 451.725107 498.371121 
L 452.963364 496.306105 
L 455.439879 488.066357 
L 456.678136 485.660783 
L 457.916393 485.005061 
L 459.15465 485.01468 
L 460.392908 484.84753 
L 461.631165 484.211265 
L 462.869422 483.391923 
L 464.107679 483.22197 
L 465.345937 484.3696 
L 467.822451 488.603539 
L 470.298966 491.971679 
L 472.77548 494.734661 
L 475.251995 497.278137 
L 476.490252 498.414443 
L 477.728509 499.139432 
L 478.966767 499.273297 
L 480.205024 499.173219 
L 481.443281 499.523591 
L 482.681538 500.715482 
L 483.919796 502.163249 
L 485.158053 502.34941 
L 486.39631 499.931097 
L 487.634568 494.760907 
L 488.872825 487.741734 
L 491.349339 472.348366 
L 492.587597 467.006685 
L 493.825854 465.318694 
L 495.064111 467.023364 
L 497.540626 474.347085 
L 498.778883 476.507695 
L 500.01714 476.109563 
L 501.255397 473.09657 
L 503.731912 463.320396 
L 504.970169 459.524049 
L 506.208427 457.445885 
L 507.446684 456.592646 
L 508.684941 456.248032 
L 509.923198 456.155743 
L 511.161456 456.630901 
L 512.399713 457.915244 
L 513.63797 459.69954 
L 514.876227 461.860933 
L 517.352742 467.220807 
L 518.590999 468.393267 
L 519.829257 467.149771 
L 521.067514 464.026952 
L 522.305771 461.212225 
L 523.544028 461.078014 
L 524.782286 464.237064 
L 526.020543 469.125241 
L 527.2588 473.110496 
L 528.497057 474.451691 
L 530.973572 472.943902 
L 532.211829 473.287675 
L 534.688344 475.785935 
L 535.926601 476.210208 
L 537.164858 474.991556 
L 539.641373 469.220131 
L 540.87963 467.62051 
L 542.117887 468.494824 
L 543.356145 471.63298 
L 544.594402 475.496784 
L 545.832659 478.100628 
L 547.070916 478.166132 
L 548.309174 475.437057 
L 552.023945 461.312782 
L 553.262203 458.150092 
L 554.50046 456.242751 
L 555.738717 455.771298 
L 556.976975 456.55524 
L 558.215232 457.784501 
L 559.453489 458.671569 
L 560.691746 458.993917 
L 561.930004 458.209431 
L 563.168261 455.254331 
L 564.406518 450.534711 
L 565.644775 446.37642 
L 566.883033 444.590733 
L 568.12129 444.816196 
L 569.359547 445.450007 
L 570.597804 445.574359 
L 571.836062 445.326947 
L 573.074319 444.787099 
L 574.312576 443.76318 
L 576.789091 440.720287 
L 578.027348 439.116723 
L 579.265605 437.917084 
L 580.503863 438.28357 
L 581.74212 441.376371 
L 582.980377 446.483033 
L 584.218634 450.888379 
L 585.456892 452.043622 
L 586.695149 449.666275 
L 587.933406 445.903179 
L 589.171663 443.447042 
L 590.409921 443.317974 
L 591.648178 444.456072 
L 592.886435 445.14902 
L 594.124693 444.356067 
L 595.36295 442.177644 
L 596.601207 439.713897 
L 597.839464 437.978594 
L 599.077722 437.009185 
L 600.315979 436.324142 
L 601.554236 435.485074 
L 602.792493 434.452739 
L 604.030751 433.881358 
L 606.507265 434.479969 
L 607.745523 433.978361 
L 610.222037 431.354778 
L 611.460294 431.114014 
L 612.698552 432.716398 
L 615.175066 438.755021 
L 616.413323 441.135734 
L 617.651581 441.677989 
L 618.889838 439.726833 
L 621.366352 432.083098 
L 622.60461 428.970671 
L 623.842867 426.924262 
L 625.081124 425.782565 
L 626.319382 425.389302 
L 627.557639 425.649773 
L 628.795896 426.596082 
L 631.272411 429.80022 
L 632.510668 430.297413 
L 633.748925 429.569687 
L 634.987182 429.006517 
L 636.22544 430.195307 
L 637.463697 432.943615 
L 638.701954 435.146429 
L 639.940211 434.797538 
L 641.178469 431.442041 
L 642.416726 425.935155 
L 643.654983 419.682774 
L 644.893241 414.094759 
L 646.131498 410.090263 
L 647.369755 407.986374 
L 648.608012 407.897531 
L 649.84627 409.588686 
L 651.084527 412.493656 
L 652.322784 416.445027 
L 653.561041 421.1128 
L 654.799299 424.734102 
L 656.037556 424.729659 
L 657.275813 419.832891 
L 659.752328 403.027519 
L 660.990585 397.631515 
L 662.228842 395.538082 
L 663.4671 394.267265 
L 664.705357 391.69179 
L 665.943614 388.737175 
L 667.181871 388.029342 
L 668.420129 390.696334 
L 670.896643 400.150743 
L 672.1349 402.172673 
L 673.373158 400.9856 
L 674.611415 397.687391 
L 679.564444 381.420007 
L 680.802701 378.887786 
L 682.040959 378.107537 
L 683.279216 379.35607 
L 684.517473 381.366076 
L 685.75573 382.303977 
L 686.993988 382.06445 
L 688.232245 382.18167 
L 689.470502 383.568018 
L 690.708759 385.97879 
L 693.185274 392.294791 
L 695.661789 398.886863 
L 696.900046 401.591165 
L 699.37656 404.871273 
L 700.614818 407.330543 
L 701.853075 410.099584 
L 703.091332 411.01482 
L 704.329589 408.512945 
L 705.567847 402.902519 
L 708.044361 388.689717 
L 709.282618 383.741201 
L 710.520876 381.398242 
L 711.759133 381.0818 
L 712.99739 381.882116 
L 714.235648 382.972543 
L 717.950419 385.818721 
L 720.426934 388.981759 
L 721.665191 388.598586 
L 722.903448 384.786685 
L 725.379963 372.478692 
L 726.61822 368.217098 
L 727.856477 366.111977 
L 729.094735 366.2535 
L 730.332992 368.486583 
L 731.571249 372.397087 
L 732.809507 377.092501 
L 734.047764 380.915909 
L 735.286021 382.399297 
L 736.524278 381.392839 
L 737.762536 378.889988 
L 739.000793 376.073327 
L 741.477307 370.920935 
L 742.715565 367.288364 
L 743.953822 362.689801 
L 745.192079 358.62884 
L 746.430336 356.508001 
L 747.668594 356.503739 
L 748.906851 358.276093 
L 750.145108 361.840384 
L 751.383366 367.340584 
L 753.85988 380.283255 
L 755.098137 384.739762 
L 758.812909 394.176113 
L 760.051166 395.624157 
L 761.289424 394.052962 
L 762.527681 389.847122 
L 765.004195 379.435186 
L 766.242453 374.864786 
L 767.48071 371.320701 
L 768.718967 369.375911 
L 769.957225 369.619957 
L 771.195482 372.437265 
L 772.433739 377.693725 
L 774.910254 390.440105 
L 776.148511 394.621428 
L 777.386768 396.707844 
L 778.625025 397.392509 
L 779.863283 397.236903 
L 781.10154 396.381689 
L 782.339797 394.763595 
L 783.578054 392.531348 
L 784.816312 390.545621 
L 786.054569 389.724369 
L 787.292826 389.683942 
L 788.531084 389.005894 
L 789.769341 386.682724 
L 791.007598 382.899566 
L 792.245855 378.669941 
L 793.484113 374.882939 
L 794.72237 372.18708 
L 795.960627 371.401434 
L 797.198884 372.953968 
L 799.675399 379.31429 
L 800.913656 381.132763 
L 802.151914 381.299701 
L 803.390171 380.497367 
L 804.628428 379.540499 
L 805.866685 379.131813 
L 807.104943 379.910707 
L 809.581457 383.583758 
L 810.819714 383.496769 
L 812.057972 380.637843 
L 813.296229 376.110709 
L 814.534486 372.380937 
L 815.772743 370.937683 
L 818.249258 371.237929 
L 819.487515 370.865297 
L 820.725773 370.98068 
L 821.96403 372.601315 
L 823.202287 375.830374 
L 824.440544 380.256487 
L 826.917059 389.889924 
L 828.155316 392.677331 
L 829.393573 392.036241 
L 830.631831 387.74399 
L 831.870088 381.770137 
L 833.108345 377.301523 
L 834.346602 376.581547 
L 835.58486 379.589972 
L 838.061374 390.249183 
L 839.299632 394.489462 
L 840.537889 396.46052 
L 841.776146 395.577668 
L 843.014403 391.760731 
L 845.490918 379.610207 
L 846.729175 374.824318 
L 847.967432 373.035276 
L 849.20569 374.725906 
L 851.682204 382.129431 
L 852.920461 384.161819 
L 854.158719 384.692971 
L 855.396976 384.170414 
L 856.635233 382.649821 
L 857.873491 380.038314 
L 859.111748 376.943055 
L 860.350005 375.039832 
L 861.588262 375.54417 
L 862.82652 377.264499 
L 864.064777 377.383937 
L 865.303034 374.046063 
L 867.779549 361.362843 
L 869.017806 357.513304 
L 870.256063 357.659535 
L 871.49432 361.114318 
L 872.732578 365.518873 
L 873.970835 368.475349 
L 875.209092 369.041614 
L 876.44735 367.125546 
L 877.685607 362.294144 
L 878.923864 354.221117 
L 881.400379 333.937989 
L 882.638636 327.151962 
L 883.876893 324.896624 
L 885.11515 325.758673 
L 886.353408 327.299261 
L 887.591665 329.02624 
L 888.829922 332.696831 
L 890.06818 339.820337 
L 893.782951 368.772059 
L 895.021209 374.186285 
L 896.259466 376.528564 
L 897.497723 376.322032 
L 898.73598 374.062152 
L 899.974238 371.020894 
L 901.212495 369.070667 
L 902.450752 369.068557 
L 904.927267 371.681138 
L 906.165524 371.631102 
L 907.403781 369.769731 
L 909.880296 363.654287 
L 911.118553 362.709071 
L 912.35681 364.220767 
L 913.595068 366.691533 
L 914.833325 368.70309 
L 916.071582 370.423305 
L 917.309839 372.655922 
L 918.548097 375.273625 
L 919.786354 376.915586 
L 921.024611 375.965265 
L 922.262868 372.044094 
L 923.501126 366.559544 
L 924.739383 361.687385 
L 925.97764 358.987563 
L 927.215898 358.377176 
L 928.454155 358.098507 
L 929.692412 356.403442 
L 930.930669 353.091725 
L 933.407184 344.885968 
L 934.645441 340.034015 
L 935.883698 334.093187 
L 937.121956 328.97319 
L 938.360213 328.450531 
L 939.59847 334.192161 
L 940.836727 343.234485 
L 942.074985 350.769152 
L 943.313242 354.013985 
L 944.551499 352.617325 
L 945.789757 347.912687 
L 947.028014 342.594331 
L 948.266271 339.378597 
L 949.504528 339.503146 
L 951.981043 344.960423 
L 953.2193 345.246301 
L 954.457557 342.200347 
L 955.695815 337.522083 
L 956.934072 334.016511 
L 958.172329 333.391068 
L 959.410586 336.014009 
L 960.648844 341.570811 
L 961.887101 348.615698 
L 963.125358 354.78018 
L 964.363616 358.366697 
L 965.601873 358.954534 
L 966.84013 356.841361 
L 968.078387 352.770544 
L 969.316645 347.520772 
L 973.031416 329.327186 
L 974.269674 326.339683 
L 975.507931 326.683681 
L 976.746188 329.393392 
L 977.984446 332.610657 
L 979.222703 335.128006 
L 980.46096 336.445631 
L 981.699217 335.815833 
L 982.937475 332.786026 
L 984.175732 328.532956 
L 985.413989 325.441754 
L 986.652246 325.108143 
L 987.890504 326.914687 
L 989.128761 329.151875 
L 991.605275 332.908863 
L 992.843533 334.500109 
L 994.08179 335.806702 
L 995.320047 336.026363 
L 996.558305 334.249168 
L 997.796562 331.308149 
L 999.034819 328.98368 
L 1000.273076 327.862619 
L 1001.511334 327.196629 
L 1002.749591 325.718867 
L 1003.987848 322.008078 
L 1005.226105 315.348709 
L 1007.70262 297.001741 
L 1008.940877 288.062365 
L 1010.179134 281.152884 
L 1011.417392 277.254468 
L 1012.655649 276.41374 
L 1013.893906 278.109582 
L 1015.132164 280.97243 
L 1016.370421 282.789243 
L 1017.608678 281.874898 
L 1018.846935 277.934061 
L 1020.085193 271.427388 
L 1023.799964 247.091196 
L 1025.038222 242.938602 
L 1026.276479 241.325796 
L 1027.514736 240.39121 
L 1028.752993 237.551531 
L 1029.991251 229.815982 
L 1031.229508 215.743718 
L 1033.706023 179.863611 
L 1034.94428 166.116714 
L 1036.182537 156.752284 
L 1037.420794 150.748491 
L 1038.659052 148.755947 
L 1039.897309 153.400715 
L 1041.135566 165.966697 
L 1042.373823 184.60623 
L 1044.850338 228.083676 
L 1046.088595 247.503797 
L 1047.326852 262.791589 
L 1048.56511 273.842424 
L 1049.803367 281.081304 
L 1051.041624 284.413224 
L 1052.279882 283.416311 
L 1053.518139 277.642896 
L 1054.756396 267.560081 
L 1055.994653 255.992814 
L 1057.232911 247.202524 
L 1058.471168 243.791638 
L 1059.709425 244.963018 
L 1060.947682 247.339625 
L 1062.18594 247.320492 
L 1063.424197 244.019615 
L 1064.662454 240.305586 
L 1065.900711 240.48196 
L 1067.138969 247.175741 
L 1068.377226 260.104927 
L 1070.853741 294.215621 
L 1072.091998 308.153829 
L 1073.330255 315.547815 
L 1074.568512 316.149845 
L 1075.80677 313.495748 
L 1077.045027 312.434767 
L 1078.283284 314.936653 
L 1079.521541 319.142796 
L 1080.759799 322.006746 
L 1081.998056 321.267229 
L 1083.236313 316.638448 
L 1084.474571 311.230069 
L 1085.712828 310.173764 
L 1086.951085 316.175924 
L 1089.4276 337.937858 
L 1090.665857 344.376742 
L 1091.904114 345.497237 
L 1093.142371 343.776797 
L 1094.380629 342.34842 
L 1095.618886 342.190105 
L 1098.0954 343.068933 
L 1099.333658 343.087892 
L 1100.571915 341.746868 
L 1101.810172 338.403461 
L 1104.286687 328.855586 
L 1105.524944 324.953453 
L 1108.001459 317.872269 
L 1109.239716 314.904602 
L 1110.477973 314.057529 
L 1111.71623 315.903312 
L 1112.954488 318.821294 
L 1114.192745 320.428883 
L 1115.431002 319.831409 
L 1116.669259 317.619144 
L 1117.907517 314.444626 
L 1120.384031 307.208321 
L 1121.622289 305.558935 
L 1122.860546 306.67794 
L 1124.098803 310.581755 
L 1126.575318 321.350492 
L 1127.813575 323.676849 
L 1129.051832 322.351439 
L 1130.290089 317.72906 
L 1134.004861 297.593658 
L 1135.243118 295.297154 
L 1136.481376 297.964872 
L 1137.719633 305.409217 
L 1138.95789 314.85737 
L 1140.196148 322.583531 
L 1141.434405 326.745923 
L 1142.672662 327.811807 
L 1143.910919 326.527684 
L 1145.149177 322.921343 
L 1146.387434 317.170282 
L 1150.102206 296.446973 
L 1151.340463 291.65148 
L 1152.57872 287.996725 
L 1153.816977 285.51573 
L 1155.055235 285.145631 
L 1156.293492 287.3238 
L 1158.770007 295.149351 
L 1160.008264 297.609194 
L 1161.246521 297.968366 
L 1162.484778 296.381847 
L 1164.961293 290.684896 
L 1166.19955 289.56897 
L 1168.676065 290.372941 
L 1169.914322 290.442066 
L 1171.152579 291.094117 
L 1172.390837 292.750439 
L 1173.629094 294.139145 
L 1174.867351 293.014592 
L 1176.105608 288.383154 
L 1178.582123 275.142032 
L 1179.82038 271.176871 
L 1181.058637 270.692702 
L 1182.296895 273.411085 
L 1184.773409 282.710581 
L 1186.011666 286.387302 
L 1187.249924 288.905321 
L 1188.488181 290.242583 
L 1190.964696 290.68889 
L 1192.202953 292.560444 
L 1193.44121 297.048163 
L 1197.155982 317.139105 
L 1198.394239 321.390837 
L 1199.632496 322.927223 
L 1200.870754 321.680205 
L 1202.109011 318.402451 
L 1204.585525 309.555748 
L 1205.823783 306.173325 
L 1207.06204 303.986427 
L 1208.300297 302.292219 
L 1209.538555 300.075363 
L 1210.776812 296.109823 
L 1212.015069 289.509267 
L 1214.491584 271.767891 
L 1215.729841 266.090968 
L 1216.968098 266.057024 
L 1218.206355 271.540374 
L 1220.68287 289.504734 
L 1221.921127 296.926112 
L 1223.159384 301.05154 
L 1224.397642 301.3335 
L 1225.635899 298.073701 
L 1226.874156 291.589154 
L 1228.112414 282.419144 
L 1230.588928 262.162773 
L 1231.827185 254.157775 
L 1233.065443 249.333148 
L 1234.3037 247.775228 
L 1235.541957 247.226722 
L 1236.780214 245.189754 
L 1239.256729 237.815934 
L 1240.494986 235.335185 
L 1241.733243 236.015119 
L 1242.971501 241.46303 
L 1245.448015 258.524224 
L 1246.686273 264.011571 
L 1247.92453 266.774353 
L 1249.162787 266.93297 
L 1250.401044 264.313234 
L 1251.639302 260.285139 
L 1252.877559 257.715379 
L 1254.115816 257.993708 
L 1255.354073 259.718896 
L 1256.592331 261.237509 
L 1257.830588 262.341955 
L 1259.068845 263.244654 
L 1261.54536 264.638287 
L 1262.783617 265.073244 
L 1264.021874 265.344256 
L 1265.260132 265.466586 
L 1266.498389 264.618462 
L 1267.736646 261.521072 
L 1270.213161 250.285166 
L 1271.451418 246.135149 
L 1272.689675 244.764584 
L 1273.927932 245.76145 
L 1275.16619 247.68586 
L 1276.404447 248.699284 
L 1277.642704 247.295717 
L 1278.880962 243.082192 
L 1280.119219 236.749765 
L 1281.357476 229.562946 
L 1282.595733 223.478513 
L 1283.833991 220.815521 
L 1285.072248 223.078917 
L 1286.310505 230.46765 
L 1288.78702 253.238587 
L 1290.025277 262.26797 
L 1291.263534 267.731383 
L 1292.501791 270.20122 
L 1293.740049 270.227444 
L 1294.978306 268.186158 
L 1296.216563 264.464798 
L 1297.454821 259.820269 
L 1298.693078 255.831813 
L 1299.931335 254.218533 
L 1301.169592 255.03632 
L 1302.40785 256.164849 
L 1303.646107 255.486756 
L 1304.884364 252.907867 
L 1306.122621 249.413067 
L 1307.360879 245.30967 
L 1308.599136 240.444954 
L 1309.837393 234.899308 
L 1313.552165 216.58949 
L 1314.790422 211.993811 
L 1316.02868 209.722989 
L 1317.266937 211.58507 
L 1318.505194 217.896952 
L 1319.743451 225.860589 
L 1320.981709 231.757287 
L 1322.219966 233.879119 
L 1323.458223 232.973028 
L 1324.69648 230.895879 
L 1325.934738 229.50355 
L 1327.172995 230.04319 
L 1328.411252 232.094843 
L 1329.649509 233.315354 
L 1330.887767 231.563479 
L 1332.126024 226.778244 
L 1334.602539 214.453565 
L 1335.840796 211.191558 
L 1337.079053 211.571628 
L 1338.31731 214.796768 
L 1339.555568 219.965244 
L 1342.032082 233.442175 
L 1343.270339 237.130153 
L 1344.508597 235.493461 
L 1345.746854 229.552169 
L 1346.985111 222.715804 
L 1348.223368 217.499756 
L 1349.461626 214.127 
L 1350.699883 212.075037 
L 1353.176398 209.742475 
L 1354.414655 207.066738 
L 1356.891169 199.490364 
L 1358.129427 197.888462 
L 1359.367684 199.128218 
L 1361.844198 206.003643 
L 1363.082456 207.071593 
L 1364.320713 204.657193 
L 1365.55897 199.163317 
L 1368.035485 184.145788 
L 1369.273742 179.340403 
L 1370.511999 179.896727 
L 1371.750257 185.870637 
L 1374.226771 202.506501 
L 1375.465028 207.29427 
L 1376.703286 208.278979 
L 1377.941543 206.893295 
L 1380.418057 203.377664 
L 1381.656315 200.541688 
L 1382.894572 195.388231 
L 1385.371087 179.911832 
L 1386.609344 174.012577 
L 1387.847601 171.669187 
L 1389.085858 171.593949 
L 1390.324116 170.403531 
L 1391.562373 165.628633 
L 1392.80063 157.298629 
L 1395.277145 135.872604 
L 1396.515402 126.700032 
L 1397.753659 119.527414 
L 1398.991916 113.290104 
L 1400.230174 108.148068 
L 1401.468431 105.235247 
L 1402.706688 103.87428 
L 1403.944946 101.770283 
L 1405.183203 98.230801 
L 1406.42146 95.287057 
L 1407.659717 95.861463 
L 1408.897975 102.299393 
L 1410.136232 115.000754 
L 1412.612746 146.013918 
L 1413.851004 156.847203 
L 1415.089261 162.792386 
L 1416.327518 163.950081 
L 1417.565775 159.503189 
L 1418.804033 147.821219 
L 1420.04229 129.183084 
L 1422.518805 85.695284 
L 1423.757062 67.445564 
L 1424.995319 53.826715 
L 1426.233576 47.979282 
L 1427.471834 53.905425 
L 1428.710091 72.695714 
L 1431.186605 128.977048 
L 1432.424863 151.835287 
L 1433.66312 166.050198 
L 1434.901377 172.570604 
L 1436.139634 173.835134 
L 1437.377892 172.374049 
L 1439.854406 167.267945 
L 1441.092664 167.057084 
L 1442.330921 171.143088 
L 1444.807435 186.323581 
L 1446.045693 192.524924 
L 1447.28395 195.947064 
L 1448.522207 196.418826 
L 1449.760464 195.236173 
L 1450.998722 194.256894 
L 1452.236979 194.771459 
L 1453.475236 197.389484 
L 1454.713494 201.1838 
L 1455.951751 203.622363 
L 1457.190008 202.771367 
L 1458.428265 198.280101 
L 1459.666523 190.685495 
L 1460.90478 181.818359 
L 1462.143037 174.762086 
L 1463.381294 171.587526 
L 1464.619552 171.741498 
L 1465.857809 172.850568 
L 1467.096066 172.406076 
L 1468.334323 169.360767 
L 1469.572581 164.972872 
L 1470.810838 161.691517 
L 1472.049095 160.947423 
L 1473.287353 162.2909 
L 1474.52561 164.440423 
L 1475.763867 167.007214 
L 1477.002124 170.807181 
L 1478.240382 175.809975 
L 1479.478639 180.021868 
L 1480.716896 181.46085 
L 1481.955153 179.791509 
L 1483.193411 175.547648 
L 1484.431668 169.097706 
L 1485.669925 160.618451 
L 1486.908182 150.316107 
L 1488.14644 138.993089 
L 1489.384697 129.035641 
L 1490.622954 123.871353 
L 1491.861212 125.718076 
L 1493.099469 134.5633 
L 1494.337726 148.736393 
L 1496.814241 181.565007 
L 1498.052498 194.443546 
L 1499.290755 201.910761 
L 1500.529012 203.020958 
L 1501.76727 198.484317 
L 1504.243784 183.066917 
L 1505.482041 179.708448 
L 1506.720299 182.024989 
L 1509.196813 194.216985 
L 1510.435071 197.411704 
L 1511.673328 196.970901 
L 1512.911585 192.866471 
L 1514.149842 185.875636 
L 1516.626357 170.704722 
L 1517.864614 164.893207 
L 1519.102871 160.710266 
L 1521.579386 154.424056 
L 1522.817643 151.650023 
L 1524.0559 150.368223 
L 1525.294158 151.162704 
L 1526.532415 154.145902 
L 1527.770672 159.826626 
L 1529.00893 168.557594 
L 1531.485444 190.466066 
L 1532.723701 199.250083 
L 1533.961959 204.78491 
L 1535.200216 207.449289 
L 1536.438473 208.102153 
L 1537.67673 207.895904 
L 1538.914988 208.356475 
L 1541.391502 211.452977 
L 1542.62976 210.902396 
L 1543.868017 208.01452 
L 1545.106274 204.536768 
L 1546.344531 202.242787 
L 1547.582789 200.479951 
L 1548.821046 197.320271 
L 1550.059303 192.078143 
L 1552.535818 178.40914 
L 1553.774075 173.559692 
L 1555.012332 173.092 
L 1556.250589 177.656553 
L 1557.488847 186.32965 
L 1559.965361 206.992424 
L 1561.203619 213.792763 
L 1562.441876 216.764582 
L 1563.680133 216.05336 
L 1564.91839 212.233231 
L 1566.156648 206.900414 
L 1567.394905 202.135931 
L 1568.633162 198.77215 
L 1569.871419 196.28998 
L 1571.109677 194.66366 
L 1572.347934 194.760676 
L 1573.586191 196.68873 
L 1576.062706 202.194707 
L 1577.300963 206.21992 
L 1578.53922 212.908489 
L 1581.015735 231.148613 
L 1582.253992 236.870365 
L 1583.492249 237.505219 
L 1584.730507 233.749403 
L 1587.207021 222.658483 
L 1588.445278 218.525006 
L 1590.921793 211.277397 
L 1592.16005 206.556022 
L 1594.636565 196.269015 
L 1595.874822 192.908317 
L 1597.113079 191.883239 
L 1598.351337 193.570165 
L 1599.589594 197.589076 
L 1600.827851 202.279824 
L 1602.066108 205.188041 
L 1603.304366 203.9837 
L 1604.542623 197.354613 
L 1605.78088 186.234433 
L 1607.019137 173.770733 
L 1608.257395 163.659365 
L 1609.495652 159.101968 
L 1610.733909 161.819149 
L 1611.972166 170.519396 
L 1613.210424 181.249409 
L 1614.448681 189.268983 
L 1615.686938 191.114964 
L 1616.925196 186.572948 
L 1618.163453 178.73889 
L 1619.40171 171.845452 
L 1620.639967 168.362988 
L 1621.878225 167.520333 
L 1623.116482 166.813416 
L 1624.354739 164.714754 
L 1625.592996 162.068446 
L 1626.831254 161.432245 
L 1628.069511 164.98583 
L 1629.307768 172.671212 
L 1630.546026 181.827524 
L 1631.784283 188.561151 
L 1633.02254 190.067599 
L 1634.260797 186.212727 
L 1636.737312 172.977947 
L 1637.975569 169.059938 
L 1639.213826 167.931467 
L 1640.452084 169.231519 
L 1641.690341 172.282367 
L 1641.690341 172.282367 
" style="fill:none;stroke:#008000;stroke-linecap:square;stroke-width:1.5;"/>
   </g>
   <g id="patch_3">
    <path d="M 43.78125 586.86358 
L 43.78125 22.318125 
" style="fill:none;stroke:#000000;stroke-linecap:square;stroke-linejoin:miter;stroke-width:0.8;"/>
   </g>
   <g id="patch_4">
    <path d="M 1717.78125 586.86358 
L 1717.78125 22.318125 
" style="fill:none;stroke:#000000;stroke-linecap:square;stroke-linejoin:miter;stroke-width:0.8;"/>
   </g>
   <g id="patch_5">
    <path d="M 43.78125 586.86358 
L 1717.78125 586.86358 
" style="fill:none;stroke:#000000;stroke-linecap:square;stroke-linejoin:miter;stroke-width:0.8;"/>
   </g>
   <g id="patch_6">
    <path d="M 43.78125 22.318125 
L 1717.78125 22.318125 
" style="fill:none;stroke:#000000;stroke-linecap:square;stroke-linejoin:miter;stroke-width:0.8;"/>
   </g>
   <g id="text_16">
    <!-- before binarisation -->
    <g transform="translate(824.1825 16.318125)scale(0.12 -0.12)">
     <defs>
      <path d="M 3116 1747 
Q 3116 2381 2855 2742 
Q 2594 3103 2138 3103 
Q 1681 3103 1420 2742 
Q 1159 2381 1159 1747 
Q 1159 1113 1420 752 
Q 1681 391 2138 391 
Q 2594 391 2855 752 
Q 3116 1113 3116 1747 
z
M 1159 2969 
Q 1341 3281 1617 3432 
Q 1894 3584 2278 3584 
Q 2916 3584 3314 3078 
Q 3713 2572 3713 1747 
Q 3713 922 3314 415 
Q 2916 -91 2278 -91 
Q 1894 -91 1617 61 
Q 1341 213 1159 525 
L 1159 0 
L 581 0 
L 581 4863 
L 1159 4863 
L 1159 2969 
z
" id="DejaVuSans-62" transform="scale(0.015625)"/>
      <path d="M 1959 3097 
Q 1497 3097 1228 2736 
Q 959 2375 959 1747 
Q 959 1119 1226 758 
Q 1494 397 1959 397 
Q 2419 397 2687 759 
Q 2956 1122 2956 1747 
Q 2956 2369 2687 2733 
Q 2419 3097 1959 3097 
z
M 1959 3584 
Q 2709 3584 3137 3096 
Q 3566 2609 3566 1747 
Q 3566 888 3137 398 
Q 2709 -91 1959 -91 
Q 1206 -91 779 398 
Q 353 888 353 1747 
Q 353 2609 779 3096 
Q 1206 3584 1959 3584 
z
" id="DejaVuSans-6f" transform="scale(0.015625)"/>
      <path id="DejaVuSans-20" transform="scale(0.015625)"/>
      <path d="M 603 3500 
L 1178 3500 
L 1178 0 
L 603 0 
L 603 3500 
z
M 603 4863 
L 1178 4863 
L 1178 4134 
L 603 4134 
L 603 4863 
z
" id="DejaVuSans-69" transform="scale(0.015625)"/>
      <path d="M 3513 2113 
L 3513 0 
L 2938 0 
L 2938 2094 
Q 2938 2591 2744 2837 
Q 2550 3084 2163 3084 
Q 1697 3084 1428 2787 
Q 1159 2491 1159 1978 
L 1159 0 
L 581 0 
L 581 3500 
L 1159 3500 
L 1159 2956 
Q 1366 3272 1645 3428 
Q 1925 3584 2291 3584 
Q 2894 3584 3203 3211 
Q 3513 2838 3513 2113 
z
" id="DejaVuSans-6e" transform="scale(0.015625)"/>
      <path d="M 2834 3397 
L 2834 2853 
Q 2591 2978 2328 3040 
Q 2066 3103 1784 3103 
Q 1356 3103 1142 2972 
Q 928 2841 928 2578 
Q 928 2378 1081 2264 
Q 1234 2150 1697 2047 
L 1894 2003 
Q 2506 1872 2764 1633 
Q 3022 1394 3022 966 
Q 3022 478 2636 193 
Q 2250 -91 1575 -91 
Q 1294 -91 989 -36 
Q 684 19 347 128 
L 347 722 
Q 666 556 975 473 
Q 1284 391 1588 391 
Q 1994 391 2212 530 
Q 2431 669 2431 922 
Q 2431 1156 2273 1281 
Q 2116 1406 1581 1522 
L 1381 1569 
Q 847 1681 609 1914 
Q 372 2147 372 2553 
Q 372 3047 722 3315 
Q 1072 3584 1716 3584 
Q 2034 3584 2315 3537 
Q 2597 3491 2834 3397 
z
" id="DejaVuSans-73" transform="scale(0.015625)"/>
      <path d="M 1172 4494 
L 1172 3500 
L 2356 3500 
L 2356 3053 
L 1172 3053 
L 1172 1153 
Q 1172 725 1289 603 
Q 1406 481 1766 481 
L 2356 481 
L 2356 0 
L 1766 0 
Q 1100 0 847 248 
Q 594 497 594 1153 
L 594 3053 
L 172 3053 
L 172 3500 
L 594 3500 
L 594 4494 
L 1172 4494 
z
" id="DejaVuSans-74" transform="scale(0.015625)"/>
     </defs>
     <use xlink:href="#DejaVuSans-62"/>
     <use x="63.476562" xlink:href="#DejaVuSans-65"/>
     <use x="125" xlink:href="#DejaVuSans-66"/>
     <use x="160.205078" xlink:href="#DejaVuSans-6f"/>
     <use x="221.386719" xlink:href="#DejaVuSans-72"/>
     <use x="260.25" xlink:href="#DejaVuSans-65"/>
     <use x="321.773438" xlink:href="#DejaVuSans-20"/>
     <use x="353.560547" xlink:href="#DejaVuSans-62"/>
     <use x="417.037109" xlink:href="#DejaVuSans-69"/>
     <use x="444.820312" xlink:href="#DejaVuSans-6e"/>
     <use x="508.199219" xlink:href="#DejaVuSans-61"/>
     <use x="569.478516" xlink:href="#DejaVuSans-72"/>
     <use x="610.591797" xlink:href="#DejaVuSans-69"/>
     <use x="638.375" xlink:href="#DejaVuSans-73"/>
     <use x="690.474609" xlink:href="#DejaVuSans-61"/>
     <use x="751.753906" xlink:href="#DejaVuSans-74"/>
     <use x="790.962891" xlink:href="#DejaVuSans-69"/>
     <use x="818.746094" xlink:href="#DejaVuSans-6f"/>
     <use x="879.927734" xlink:href="#DejaVuSans-6e"/>
    </g>
   </g>
  </g>
  <g id="axes_2">
   <g id="patch_7">
    <path d="M 43.78125 1264.318125 
L 1717.78125 1264.318125 
L 1717.78125 699.77267 
L 43.78125 699.77267 
z
" style="fill:#ffffff;"/>
   </g>
   <g id="matplotlib.axis_3">
    <g id="xtick_8">
     <g id="line2d_15">
      <g>
       <use style="stroke:#000000;stroke-width:0.8;" x="119.872159" xlink:href="#m54ab07504c" y="1264.318125"/>
      </g>
     </g>
     <g id="text_17">
      <!-- 0 -->
      <g transform="translate(116.690909 1278.916563)scale(0.1 -0.1)">
       <use xlink:href="#DejaVuSans-30"/>
      </g>
     </g>
    </g>
    <g id="xtick_9">
     <g id="line2d_16">
      <g>
       <use style="stroke:#000000;stroke-width:0.8;" x="367.523613" xlink:href="#m54ab07504c" y="1264.318125"/>
      </g>
     </g>
     <g id="text_18">
      <!-- 200 -->
      <g transform="translate(357.979863 1278.916563)scale(0.1 -0.1)">
       <use xlink:href="#DejaVuSans-32"/>
       <use x="63.623047" xlink:href="#DejaVuSans-30"/>
       <use x="127.246094" xlink:href="#DejaVuSans-30"/>
      </g>
     </g>
    </g>
    <g id="xtick_10">
     <g id="line2d_17">
      <g>
       <use style="stroke:#000000;stroke-width:0.8;" x="615.175066" xlink:href="#m54ab07504c" y="1264.318125"/>
      </g>
     </g>
     <g id="text_19">
      <!-- 400 -->
      <g transform="translate(605.631316 1278.916563)scale(0.1 -0.1)">
       <use xlink:href="#DejaVuSans-34"/>
       <use x="63.623047" xlink:href="#DejaVuSans-30"/>
       <use x="127.246094" xlink:href="#DejaVuSans-30"/>
      </g>
     </g>
    </g>
    <g id="xtick_11">
     <g id="line2d_18">
      <g>
       <use style="stroke:#000000;stroke-width:0.8;" x="862.82652" xlink:href="#m54ab07504c" y="1264.318125"/>
      </g>
     </g>
     <g id="text_20">
      <!-- 600 -->
      <g transform="translate(853.28277 1278.916563)scale(0.1 -0.1)">
       <use xlink:href="#DejaVuSans-36"/>
       <use x="63.623047" xlink:href="#DejaVuSans-30"/>
       <use x="127.246094" xlink:href="#DejaVuSans-30"/>
      </g>
     </g>
    </g>
    <g id="xtick_12">
     <g id="line2d_19">
      <g>
       <use style="stroke:#000000;stroke-width:0.8;" x="1110.477973" xlink:href="#m54ab07504c" y="1264.318125"/>
      </g>
     </g>
     <g id="text_21">
      <!-- 800 -->
      <g transform="translate(1100.934223 1278.916563)scale(0.1 -0.1)">
       <use xlink:href="#DejaVuSans-38"/>
       <use x="63.623047" xlink:href="#DejaVuSans-30"/>
       <use x="127.246094" xlink:href="#DejaVuSans-30"/>
      </g>
     </g>
    </g>
    <g id="xtick_13">
     <g id="line2d_20">
      <g>
       <use style="stroke:#000000;stroke-width:0.8;" x="1358.129427" xlink:href="#m54ab07504c" y="1264.318125"/>
      </g>
     </g>
     <g id="text_22">
      <!-- 1000 -->
      <g transform="translate(1345.404427 1278.916563)scale(0.1 -0.1)">
       <use xlink:href="#DejaVuSans-31"/>
       <use x="63.623047" xlink:href="#DejaVuSans-30"/>
       <use x="127.246094" xlink:href="#DejaVuSans-30"/>
       <use x="190.869141" xlink:href="#DejaVuSans-30"/>
      </g>
     </g>
    </g>
    <g id="xtick_14">
     <g id="line2d_21">
      <g>
       <use style="stroke:#000000;stroke-width:0.8;" x="1605.78088" xlink:href="#m54ab07504c" y="1264.318125"/>
      </g>
     </g>
     <g id="text_23">
      <!-- 1200 -->
      <g transform="translate(1593.05588 1278.916563)scale(0.1 -0.1)">
       <use xlink:href="#DejaVuSans-31"/>
       <use x="63.623047" xlink:href="#DejaVuSans-32"/>
       <use x="127.246094" xlink:href="#DejaVuSans-30"/>
       <use x="190.869141" xlink:href="#DejaVuSans-30"/>
      </g>
     </g>
    </g>
    <g id="text_24">
     <!-- frame -->
     <g transform="translate(865.954687 1292.594688)scale(0.1 -0.1)">
      <use xlink:href="#DejaVuSans-66"/>
      <use x="35.205078" xlink:href="#DejaVuSans-72"/>
      <use x="76.318359" xlink:href="#DejaVuSans-61"/>
      <use x="137.597656" xlink:href="#DejaVuSans-6d"/>
      <use x="235.009766" xlink:href="#DejaVuSans-65"/>
     </g>
    </g>
   </g>
   <g id="matplotlib.axis_4">
    <g id="ytick_7">
     <g id="line2d_22">
      <g>
       <use style="stroke:#000000;stroke-width:0.8;" x="43.78125" xlink:href="#m5ef97a475a" y="1238.656968"/>
      </g>
     </g>
     <g id="text_25">
      <!-- 0.0 -->
      <g transform="translate(20.878125 1242.456187)scale(0.1 -0.1)">
       <use xlink:href="#DejaVuSans-30"/>
       <use x="63.623047" xlink:href="#DejaVuSans-2e"/>
       <use x="95.410156" xlink:href="#DejaVuSans-30"/>
      </g>
     </g>
    </g>
    <g id="ytick_8">
     <g id="line2d_23">
      <g>
       <use style="stroke:#000000;stroke-width:0.8;" x="43.78125" xlink:href="#m5ef97a475a" y="1136.01234"/>
      </g>
     </g>
     <g id="text_26">
      <!-- 0.2 -->
      <g transform="translate(20.878125 1139.811559)scale(0.1 -0.1)">
       <use xlink:href="#DejaVuSans-30"/>
       <use x="63.623047" xlink:href="#DejaVuSans-2e"/>
       <use x="95.410156" xlink:href="#DejaVuSans-32"/>
      </g>
     </g>
    </g>
    <g id="ytick_9">
     <g id="line2d_24">
      <g>
       <use style="stroke:#000000;stroke-width:0.8;" x="43.78125" xlink:href="#m5ef97a475a" y="1033.367712"/>
      </g>
     </g>
     <g id="text_27">
      <!-- 0.4 -->
      <g transform="translate(20.878125 1037.166931)scale(0.1 -0.1)">
       <use xlink:href="#DejaVuSans-30"/>
       <use x="63.623047" xlink:href="#DejaVuSans-2e"/>
       <use x="95.410156" xlink:href="#DejaVuSans-34"/>
      </g>
     </g>
    </g>
    <g id="ytick_10">
     <g id="line2d_25">
      <g>
       <use style="stroke:#000000;stroke-width:0.8;" x="43.78125" xlink:href="#m5ef97a475a" y="930.723084"/>
      </g>
     </g>
     <g id="text_28">
      <!-- 0.6 -->
      <g transform="translate(20.878125 934.522302)scale(0.1 -0.1)">
       <use xlink:href="#DejaVuSans-30"/>
       <use x="63.623047" xlink:href="#DejaVuSans-2e"/>
       <use x="95.410156" xlink:href="#DejaVuSans-36"/>
      </g>
     </g>
    </g>
    <g id="ytick_11">
     <g id="line2d_26">
      <g>
       <use style="stroke:#000000;stroke-width:0.8;" x="43.78125" xlink:href="#m5ef97a475a" y="828.078456"/>
      </g>
     </g>
     <g id="text_29">
      <!-- 0.8 -->
      <g transform="translate(20.878125 831.877674)scale(0.1 -0.1)">
       <use xlink:href="#DejaVuSans-30"/>
       <use x="63.623047" xlink:href="#DejaVuSans-2e"/>
       <use x="95.410156" xlink:href="#DejaVuSans-38"/>
      </g>
     </g>
    </g>
    <g id="ytick_12">
     <g id="line2d_27">
      <g>
       <use style="stroke:#000000;stroke-width:0.8;" x="43.78125" xlink:href="#m5ef97a475a" y="725.433827"/>
      </g>
     </g>
     <g id="text_30">
      <!-- 1.0 -->
      <g transform="translate(20.878125 729.233046)scale(0.1 -0.1)">
       <use xlink:href="#DejaVuSans-31"/>
       <use x="63.623047" xlink:href="#DejaVuSans-2e"/>
       <use x="95.410156" xlink:href="#DejaVuSans-30"/>
      </g>
     </g>
    </g>
    <g id="text_31">
     <!-- GCaMP -->
     <g transform="translate(14.798437 999.803991)rotate(-90)scale(0.1 -0.1)">
      <use xlink:href="#DejaVuSans-47"/>
      <use x="77.490234" xlink:href="#DejaVuSans-43"/>
      <use x="147.314453" xlink:href="#DejaVuSans-61"/>
      <use x="208.59375" xlink:href="#DejaVuSans-4d"/>
      <use x="294.873047" xlink:href="#DejaVuSans-50"/>
     </g>
    </g>
   </g>
   <g id="line2d_28">
    <path clip-path="url(#p4221e1004b)" d="M 119.872159 1238.656968 
L 1029.991251 1238.656968 
L 1031.229508 725.433827 
L 1044.850338 725.433827 
L 1046.088595 1238.656968 
L 1281.357476 1238.656968 
L 1282.595733 725.433827 
L 1285.072248 725.433827 
L 1286.310505 1238.656968 
L 1311.07565 1238.656968 
L 1312.313908 725.433827 
L 1319.743451 725.433827 
L 1320.981709 1238.656968 
L 1330.887767 1238.656968 
L 1332.126024 725.433827 
L 1340.793825 725.433827 
L 1342.032082 1238.656968 
L 1345.746854 1238.656968 
L 1346.985111 725.433827 
L 1579.777478 725.433827 
L 1581.015735 1238.656968 
L 1584.730507 1238.656968 
L 1585.968764 725.433827 
L 1641.690341 725.433827 
L 1641.690341 725.433827 
" style="fill:none;stroke:#008000;stroke-linecap:square;stroke-width:1.5;"/>
   </g>
   <g id="patch_8">
    <path d="M 43.78125 1264.318125 
L 43.78125 699.77267 
" style="fill:none;stroke:#000000;stroke-linecap:square;stroke-linejoin:miter;stroke-width:0.8;"/>
   </g>
   <g id="patch_9">
    <path d="M 1717.78125 1264.318125 
L 1717.78125 699.77267 
" style="fill:none;stroke:#000000;stroke-linecap:square;stroke-linejoin:miter;stroke-width:0.8;"/>
   </g>
   <g id="patch_10">
    <path d="M 43.78125 1264.318125 
L 1717.78125 1264.318125 
" style="fill:none;stroke:#000000;stroke-linecap:square;stroke-linejoin:miter;stroke-width:0.8;"/>
   </g>
   <g id="patch_11">
    <path d="M 43.78125 699.77267 
L 1717.78125 699.77267 
" style="fill:none;stroke:#000000;stroke-linecap:square;stroke-linejoin:miter;stroke-width:0.8;"/>
   </g>
   <g id="text_32">
    <!-- before binarisation -->
    <g transform="translate(824.1825 693.77267)scale(0.12 -0.12)">
     <use xlink:href="#DejaVuSans-62"/>
     <use x="63.476562" xlink:href="#DejaVuSans-65"/>
     <use x="125" xlink:href="#DejaVuSans-66"/>
     <use x="160.205078" xlink:href="#DejaVuSans-6f"/>
     <use x="221.386719" xlink:href="#DejaVuSans-72"/>
     <use x="260.25" xlink:href="#DejaVuSans-65"/>
     <use x="321.773438" xlink:href="#DejaVuSans-20"/>
     <use x="353.560547" xlink:href="#DejaVuSans-62"/>
     <use x="417.037109" xlink:href="#DejaVuSans-69"/>
     <use x="444.820312" xlink:href="#DejaVuSans-6e"/>
     <use x="508.199219" xlink:href="#DejaVuSans-61"/>
     <use x="569.478516" xlink:href="#DejaVuSans-72"/>
     <use x="610.591797" xlink:href="#DejaVuSans-69"/>
     <use x="638.375" xlink:href="#DejaVuSans-73"/>
     <use x="690.474609" xlink:href="#DejaVuSans-61"/>
     <use x="751.753906" xlink:href="#DejaVuSans-74"/>
     <use x="790.962891" xlink:href="#DejaVuSans-69"/>
     <use x="818.746094" xlink:href="#DejaVuSans-6f"/>
     <use x="879.927734" xlink:href="#DejaVuSans-6e"/>
    </g>
   </g>
  </g>
 </g>
 <defs>
  <clipPath id="p8b188c1a06">
   <rect height="564.545455" width="1674" x="43.78125" y="22.318125"/>
  </clipPath>
  <clipPath id="p4221e1004b">
   <rect height="564.545455" width="1674" x="43.78125" y="699.77267"/>
  </clipPath>
 </defs>
</svg>
