<?xml version="1.0" encoding="utf-8" standalone="no"?>
<!DOCTYPE svg PUBLIC "-//W3C//DTD SVG 1.1//EN"
  "http://www.w3.org/Graphics/SVG/1.1/DTD/svg11.dtd">
<svg height="1301.874375pt" version="1.1" viewBox="0 0 1724.98125 1301.874375" width="1724.98125pt" xmlns="http://www.w3.org/2000/svg" xmlns:xlink="http://www.w3.org/1999/xlink">
 <metadata>
  <rdf:RDF xmlns:cc="http://creativecommons.org/ns#" xmlns:dc="http://purl.org/dc/elements/1.1/" xmlns:rdf="http://www.w3.org/1999/02/22-rdf-syntax-ns#">
   <cc:Work>
    <dc:type rdf:resource="http://purl.org/dc/dcmitype/StillImage"/>
    <dc:date>2022-07-24T15:54:34.813833</dc:date>
    <dc:format>image/svg+xml</dc:format>
    <dc:creator>
     <cc:Agent>
      <dc:title>Matplotlib v3.4.2, https://matplotlib.org/</dc:title>
     </cc:Agent>
    </dc:creator>
   </cc:Work>
  </rdf:RDF>
 </metadata>
 <defs>
  <style type="text/css">*{stroke-linecap:butt;stroke-linejoin:round;}</style>
 </defs>
 <g id="figure_1">
  <g id="patch_1">
   <path d="M 0 1301.874375 
L 1724.98125 1301.874375 
L 1724.98125 0 
L 0 0 
z
" style="fill:#ffffff;"/>
  </g>
  <g id="axes_1">
   <g id="patch_2">
    <path d="M 43.78125 586.86358 
L 1717.78125 586.86358 
L 1717.78125 22.318125 
L 43.78125 22.318125 
z
" style="fill:#ffffff;"/>
   </g>
   <g id="matplotlib.axis_1">
    <g id="xtick_1">
     <g id="line2d_1">
      <defs>
       <path d="M 0 0 
L 0 3.5 
" id="mff6f3027a2" style="stroke:#000000;stroke-width:0.8;"/>
      </defs>
      <g>
       <use style="stroke:#000000;stroke-width:0.8;" x="119.872159" xlink:href="#mff6f3027a2" y="586.86358"/>
      </g>
     </g>
     <g id="text_1">
      <!-- 0 -->
      <g transform="translate(116.690909 601.462017)scale(0.1 -0.1)">
       <defs>
        <path d="M 2034 4250 
Q 1547 4250 1301 3770 
Q 1056 3291 1056 2328 
Q 1056 1369 1301 889 
Q 1547 409 2034 409 
Q 2525 409 2770 889 
Q 3016 1369 3016 2328 
Q 3016 3291 2770 3770 
Q 2525 4250 2034 4250 
z
M 2034 4750 
Q 2819 4750 3233 4129 
Q 3647 3509 3647 2328 
Q 3647 1150 3233 529 
Q 2819 -91 2034 -91 
Q 1250 -91 836 529 
Q 422 1150 422 2328 
Q 422 3509 836 4129 
Q 1250 4750 2034 4750 
z
" id="DejaVuSans-30" transform="scale(0.015625)"/>
       </defs>
       <use xlink:href="#DejaVuSans-30"/>
      </g>
     </g>
    </g>
    <g id="xtick_2">
     <g id="line2d_2">
      <g>
       <use style="stroke:#000000;stroke-width:0.8;" x="367.523613" xlink:href="#mff6f3027a2" y="586.86358"/>
      </g>
     </g>
     <g id="text_2">
      <!-- 200 -->
      <g transform="translate(357.979863 601.462017)scale(0.1 -0.1)">
       <defs>
        <path d="M 1228 531 
L 3431 531 
L 3431 0 
L 469 0 
L 469 531 
Q 828 903 1448 1529 
Q 2069 2156 2228 2338 
Q 2531 2678 2651 2914 
Q 2772 3150 2772 3378 
Q 2772 3750 2511 3984 
Q 2250 4219 1831 4219 
Q 1534 4219 1204 4116 
Q 875 4013 500 3803 
L 500 4441 
Q 881 4594 1212 4672 
Q 1544 4750 1819 4750 
Q 2544 4750 2975 4387 
Q 3406 4025 3406 3419 
Q 3406 3131 3298 2873 
Q 3191 2616 2906 2266 
Q 2828 2175 2409 1742 
Q 1991 1309 1228 531 
z
" id="DejaVuSans-32" transform="scale(0.015625)"/>
       </defs>
       <use xlink:href="#DejaVuSans-32"/>
       <use x="63.623047" xlink:href="#DejaVuSans-30"/>
       <use x="127.246094" xlink:href="#DejaVuSans-30"/>
      </g>
     </g>
    </g>
    <g id="xtick_3">
     <g id="line2d_3">
      <g>
       <use style="stroke:#000000;stroke-width:0.8;" x="615.175066" xlink:href="#mff6f3027a2" y="586.86358"/>
      </g>
     </g>
     <g id="text_3">
      <!-- 400 -->
      <g transform="translate(605.631316 601.462017)scale(0.1 -0.1)">
       <defs>
        <path d="M 2419 4116 
L 825 1625 
L 2419 1625 
L 2419 4116 
z
M 2253 4666 
L 3047 4666 
L 3047 1625 
L 3713 1625 
L 3713 1100 
L 3047 1100 
L 3047 0 
L 2419 0 
L 2419 1100 
L 313 1100 
L 313 1709 
L 2253 4666 
z
" id="DejaVuSans-34" transform="scale(0.015625)"/>
       </defs>
       <use xlink:href="#DejaVuSans-34"/>
       <use x="63.623047" xlink:href="#DejaVuSans-30"/>
       <use x="127.246094" xlink:href="#DejaVuSans-30"/>
      </g>
     </g>
    </g>
    <g id="xtick_4">
     <g id="line2d_4">
      <g>
       <use style="stroke:#000000;stroke-width:0.8;" x="862.82652" xlink:href="#mff6f3027a2" y="586.86358"/>
      </g>
     </g>
     <g id="text_4">
      <!-- 600 -->
      <g transform="translate(853.28277 601.462017)scale(0.1 -0.1)">
       <defs>
        <path d="M 2113 2584 
Q 1688 2584 1439 2293 
Q 1191 2003 1191 1497 
Q 1191 994 1439 701 
Q 1688 409 2113 409 
Q 2538 409 2786 701 
Q 3034 994 3034 1497 
Q 3034 2003 2786 2293 
Q 2538 2584 2113 2584 
z
M 3366 4563 
L 3366 3988 
Q 3128 4100 2886 4159 
Q 2644 4219 2406 4219 
Q 1781 4219 1451 3797 
Q 1122 3375 1075 2522 
Q 1259 2794 1537 2939 
Q 1816 3084 2150 3084 
Q 2853 3084 3261 2657 
Q 3669 2231 3669 1497 
Q 3669 778 3244 343 
Q 2819 -91 2113 -91 
Q 1303 -91 875 529 
Q 447 1150 447 2328 
Q 447 3434 972 4092 
Q 1497 4750 2381 4750 
Q 2619 4750 2861 4703 
Q 3103 4656 3366 4563 
z
" id="DejaVuSans-36" transform="scale(0.015625)"/>
       </defs>
       <use xlink:href="#DejaVuSans-36"/>
       <use x="63.623047" xlink:href="#DejaVuSans-30"/>
       <use x="127.246094" xlink:href="#DejaVuSans-30"/>
      </g>
     </g>
    </g>
    <g id="xtick_5">
     <g id="line2d_5">
      <g>
       <use style="stroke:#000000;stroke-width:0.8;" x="1110.477973" xlink:href="#mff6f3027a2" y="586.86358"/>
      </g>
     </g>
     <g id="text_5">
      <!-- 800 -->
      <g transform="translate(1100.934223 601.462017)scale(0.1 -0.1)">
       <defs>
        <path d="M 2034 2216 
Q 1584 2216 1326 1975 
Q 1069 1734 1069 1313 
Q 1069 891 1326 650 
Q 1584 409 2034 409 
Q 2484 409 2743 651 
Q 3003 894 3003 1313 
Q 3003 1734 2745 1975 
Q 2488 2216 2034 2216 
z
M 1403 2484 
Q 997 2584 770 2862 
Q 544 3141 544 3541 
Q 544 4100 942 4425 
Q 1341 4750 2034 4750 
Q 2731 4750 3128 4425 
Q 3525 4100 3525 3541 
Q 3525 3141 3298 2862 
Q 3072 2584 2669 2484 
Q 3125 2378 3379 2068 
Q 3634 1759 3634 1313 
Q 3634 634 3220 271 
Q 2806 -91 2034 -91 
Q 1263 -91 848 271 
Q 434 634 434 1313 
Q 434 1759 690 2068 
Q 947 2378 1403 2484 
z
M 1172 3481 
Q 1172 3119 1398 2916 
Q 1625 2713 2034 2713 
Q 2441 2713 2670 2916 
Q 2900 3119 2900 3481 
Q 2900 3844 2670 4047 
Q 2441 4250 2034 4250 
Q 1625 4250 1398 4047 
Q 1172 3844 1172 3481 
z
" id="DejaVuSans-38" transform="scale(0.015625)"/>
       </defs>
       <use xlink:href="#DejaVuSans-38"/>
       <use x="63.623047" xlink:href="#DejaVuSans-30"/>
       <use x="127.246094" xlink:href="#DejaVuSans-30"/>
      </g>
     </g>
    </g>
    <g id="xtick_6">
     <g id="line2d_6">
      <g>
       <use style="stroke:#000000;stroke-width:0.8;" x="1358.129427" xlink:href="#mff6f3027a2" y="586.86358"/>
      </g>
     </g>
     <g id="text_6">
      <!-- 1000 -->
      <g transform="translate(1345.404427 601.462017)scale(0.1 -0.1)">
       <defs>
        <path d="M 794 531 
L 1825 531 
L 1825 4091 
L 703 3866 
L 703 4441 
L 1819 4666 
L 2450 4666 
L 2450 531 
L 3481 531 
L 3481 0 
L 794 0 
L 794 531 
z
" id="DejaVuSans-31" transform="scale(0.015625)"/>
       </defs>
       <use xlink:href="#DejaVuSans-31"/>
       <use x="63.623047" xlink:href="#DejaVuSans-30"/>
       <use x="127.246094" xlink:href="#DejaVuSans-30"/>
       <use x="190.869141" xlink:href="#DejaVuSans-30"/>
      </g>
     </g>
    </g>
    <g id="xtick_7">
     <g id="line2d_7">
      <g>
       <use style="stroke:#000000;stroke-width:0.8;" x="1605.78088" xlink:href="#mff6f3027a2" y="586.86358"/>
      </g>
     </g>
     <g id="text_7">
      <!-- 1200 -->
      <g transform="translate(1593.05588 601.462017)scale(0.1 -0.1)">
       <use xlink:href="#DejaVuSans-31"/>
       <use x="63.623047" xlink:href="#DejaVuSans-32"/>
       <use x="127.246094" xlink:href="#DejaVuSans-30"/>
       <use x="190.869141" xlink:href="#DejaVuSans-30"/>
      </g>
     </g>
    </g>
    <g id="text_8">
     <!-- frame -->
     <g transform="translate(865.954687 615.140142)scale(0.1 -0.1)">
      <defs>
       <path d="M 2375 4863 
L 2375 4384 
L 1825 4384 
Q 1516 4384 1395 4259 
Q 1275 4134 1275 3809 
L 1275 3500 
L 2222 3500 
L 2222 3053 
L 1275 3053 
L 1275 0 
L 697 0 
L 697 3053 
L 147 3053 
L 147 3500 
L 697 3500 
L 697 3744 
Q 697 4328 969 4595 
Q 1241 4863 1831 4863 
L 2375 4863 
z
" id="DejaVuSans-66" transform="scale(0.015625)"/>
       <path d="M 2631 2963 
Q 2534 3019 2420 3045 
Q 2306 3072 2169 3072 
Q 1681 3072 1420 2755 
Q 1159 2438 1159 1844 
L 1159 0 
L 581 0 
L 581 3500 
L 1159 3500 
L 1159 2956 
Q 1341 3275 1631 3429 
Q 1922 3584 2338 3584 
Q 2397 3584 2469 3576 
Q 2541 3569 2628 3553 
L 2631 2963 
z
" id="DejaVuSans-72" transform="scale(0.015625)"/>
       <path d="M 2194 1759 
Q 1497 1759 1228 1600 
Q 959 1441 959 1056 
Q 959 750 1161 570 
Q 1363 391 1709 391 
Q 2188 391 2477 730 
Q 2766 1069 2766 1631 
L 2766 1759 
L 2194 1759 
z
M 3341 1997 
L 3341 0 
L 2766 0 
L 2766 531 
Q 2569 213 2275 61 
Q 1981 -91 1556 -91 
Q 1019 -91 701 211 
Q 384 513 384 1019 
Q 384 1609 779 1909 
Q 1175 2209 1959 2209 
L 2766 2209 
L 2766 2266 
Q 2766 2663 2505 2880 
Q 2244 3097 1772 3097 
Q 1472 3097 1187 3025 
Q 903 2953 641 2809 
L 641 3341 
Q 956 3463 1253 3523 
Q 1550 3584 1831 3584 
Q 2591 3584 2966 3190 
Q 3341 2797 3341 1997 
z
" id="DejaVuSans-61" transform="scale(0.015625)"/>
       <path d="M 3328 2828 
Q 3544 3216 3844 3400 
Q 4144 3584 4550 3584 
Q 5097 3584 5394 3201 
Q 5691 2819 5691 2113 
L 5691 0 
L 5113 0 
L 5113 2094 
Q 5113 2597 4934 2840 
Q 4756 3084 4391 3084 
Q 3944 3084 3684 2787 
Q 3425 2491 3425 1978 
L 3425 0 
L 2847 0 
L 2847 2094 
Q 2847 2600 2669 2842 
Q 2491 3084 2119 3084 
Q 1678 3084 1418 2786 
Q 1159 2488 1159 1978 
L 1159 0 
L 581 0 
L 581 3500 
L 1159 3500 
L 1159 2956 
Q 1356 3278 1631 3431 
Q 1906 3584 2284 3584 
Q 2666 3584 2933 3390 
Q 3200 3197 3328 2828 
z
" id="DejaVuSans-6d" transform="scale(0.015625)"/>
       <path d="M 3597 1894 
L 3597 1613 
L 953 1613 
Q 991 1019 1311 708 
Q 1631 397 2203 397 
Q 2534 397 2845 478 
Q 3156 559 3463 722 
L 3463 178 
Q 3153 47 2828 -22 
Q 2503 -91 2169 -91 
Q 1331 -91 842 396 
Q 353 884 353 1716 
Q 353 2575 817 3079 
Q 1281 3584 2069 3584 
Q 2775 3584 3186 3129 
Q 3597 2675 3597 1894 
z
M 3022 2063 
Q 3016 2534 2758 2815 
Q 2500 3097 2075 3097 
Q 1594 3097 1305 2825 
Q 1016 2553 972 2059 
L 3022 2063 
z
" id="DejaVuSans-65" transform="scale(0.015625)"/>
      </defs>
      <use xlink:href="#DejaVuSans-66"/>
      <use x="35.205078" xlink:href="#DejaVuSans-72"/>
      <use x="76.318359" xlink:href="#DejaVuSans-61"/>
      <use x="137.597656" xlink:href="#DejaVuSans-6d"/>
      <use x="235.009766" xlink:href="#DejaVuSans-65"/>
     </g>
    </g>
   </g>
   <g id="matplotlib.axis_2">
    <g id="ytick_1">
     <g id="line2d_8">
      <defs>
       <path d="M 0 0 
L -3.5 0 
" id="mee17ec246a" style="stroke:#000000;stroke-width:0.8;"/>
      </defs>
      <g>
       <use style="stroke:#000000;stroke-width:0.8;" x="43.78125" xlink:href="#mee17ec246a" y="513.722475"/>
      </g>
     </g>
     <g id="text_9">
      <!-- 0.6 -->
      <g transform="translate(20.878125 517.521694)scale(0.1 -0.1)">
       <defs>
        <path d="M 684 794 
L 1344 794 
L 1344 0 
L 684 0 
L 684 794 
z
" id="DejaVuSans-2e" transform="scale(0.015625)"/>
       </defs>
       <use xlink:href="#DejaVuSans-30"/>
       <use x="63.623047" xlink:href="#DejaVuSans-2e"/>
       <use x="95.410156" xlink:href="#DejaVuSans-36"/>
      </g>
     </g>
    </g>
    <g id="ytick_2">
     <g id="line2d_9">
      <g>
       <use style="stroke:#000000;stroke-width:0.8;" x="43.78125" xlink:href="#mee17ec246a" y="413.659907"/>
      </g>
     </g>
     <g id="text_10">
      <!-- 0.8 -->
      <g transform="translate(20.878125 417.459126)scale(0.1 -0.1)">
       <use xlink:href="#DejaVuSans-30"/>
       <use x="63.623047" xlink:href="#DejaVuSans-2e"/>
       <use x="95.410156" xlink:href="#DejaVuSans-38"/>
      </g>
     </g>
    </g>
    <g id="ytick_3">
     <g id="line2d_10">
      <g>
       <use style="stroke:#000000;stroke-width:0.8;" x="43.78125" xlink:href="#mee17ec246a" y="313.597339"/>
      </g>
     </g>
     <g id="text_11">
      <!-- 1.0 -->
      <g transform="translate(20.878125 317.396558)scale(0.1 -0.1)">
       <use xlink:href="#DejaVuSans-31"/>
       <use x="63.623047" xlink:href="#DejaVuSans-2e"/>
       <use x="95.410156" xlink:href="#DejaVuSans-30"/>
      </g>
     </g>
    </g>
    <g id="ytick_4">
     <g id="line2d_11">
      <g>
       <use style="stroke:#000000;stroke-width:0.8;" x="43.78125" xlink:href="#mee17ec246a" y="213.534772"/>
      </g>
     </g>
     <g id="text_12">
      <!-- 1.2 -->
      <g transform="translate(20.878125 217.33399)scale(0.1 -0.1)">
       <use xlink:href="#DejaVuSans-31"/>
       <use x="63.623047" xlink:href="#DejaVuSans-2e"/>
       <use x="95.410156" xlink:href="#DejaVuSans-32"/>
      </g>
     </g>
    </g>
    <g id="ytick_5">
     <g id="line2d_12">
      <g>
       <use style="stroke:#000000;stroke-width:0.8;" x="43.78125" xlink:href="#mee17ec246a" y="113.472204"/>
      </g>
     </g>
     <g id="text_13">
      <!-- 1.4 -->
      <g transform="translate(20.878125 117.271423)scale(0.1 -0.1)">
       <use xlink:href="#DejaVuSans-31"/>
       <use x="63.623047" xlink:href="#DejaVuSans-2e"/>
       <use x="95.410156" xlink:href="#DejaVuSans-34"/>
      </g>
     </g>
    </g>
    <g id="text_14">
     <!-- GCaMP -->
     <g transform="translate(14.798437 322.349446)rotate(-90)scale(0.1 -0.1)">
      <defs>
       <path d="M 3809 666 
L 3809 1919 
L 2778 1919 
L 2778 2438 
L 4434 2438 
L 4434 434 
Q 4069 175 3628 42 
Q 3188 -91 2688 -91 
Q 1594 -91 976 548 
Q 359 1188 359 2328 
Q 359 3472 976 4111 
Q 1594 4750 2688 4750 
Q 3144 4750 3555 4637 
Q 3966 4525 4313 4306 
L 4313 3634 
Q 3963 3931 3569 4081 
Q 3175 4231 2741 4231 
Q 1884 4231 1454 3753 
Q 1025 3275 1025 2328 
Q 1025 1384 1454 906 
Q 1884 428 2741 428 
Q 3075 428 3337 486 
Q 3600 544 3809 666 
z
" id="DejaVuSans-47" transform="scale(0.015625)"/>
       <path d="M 4122 4306 
L 4122 3641 
Q 3803 3938 3442 4084 
Q 3081 4231 2675 4231 
Q 1875 4231 1450 3742 
Q 1025 3253 1025 2328 
Q 1025 1406 1450 917 
Q 1875 428 2675 428 
Q 3081 428 3442 575 
Q 3803 722 4122 1019 
L 4122 359 
Q 3791 134 3420 21 
Q 3050 -91 2638 -91 
Q 1578 -91 968 557 
Q 359 1206 359 2328 
Q 359 3453 968 4101 
Q 1578 4750 2638 4750 
Q 3056 4750 3426 4639 
Q 3797 4528 4122 4306 
z
" id="DejaVuSans-43" transform="scale(0.015625)"/>
       <path d="M 628 4666 
L 1569 4666 
L 2759 1491 
L 3956 4666 
L 4897 4666 
L 4897 0 
L 4281 0 
L 4281 4097 
L 3078 897 
L 2444 897 
L 1241 4097 
L 1241 0 
L 628 0 
L 628 4666 
z
" id="DejaVuSans-4d" transform="scale(0.015625)"/>
       <path d="M 1259 4147 
L 1259 2394 
L 2053 2394 
Q 2494 2394 2734 2622 
Q 2975 2850 2975 3272 
Q 2975 3691 2734 3919 
Q 2494 4147 2053 4147 
L 1259 4147 
z
M 628 4666 
L 2053 4666 
Q 2838 4666 3239 4311 
Q 3641 3956 3641 3272 
Q 3641 2581 3239 2228 
Q 2838 1875 2053 1875 
L 1259 1875 
L 1259 0 
L 628 0 
L 628 4666 
z
" id="DejaVuSans-50" transform="scale(0.015625)"/>
      </defs>
      <use xlink:href="#DejaVuSans-47"/>
      <use x="77.490234" xlink:href="#DejaVuSans-43"/>
      <use x="147.314453" xlink:href="#DejaVuSans-61"/>
      <use x="208.59375" xlink:href="#DejaVuSans-4d"/>
      <use x="294.873047" xlink:href="#DejaVuSans-50"/>
     </g>
    </g>
   </g>
   <g id="line2d_13">
    <path clip-path="url(#p3ed03731fc)" d="M 119.872159 561.202423 
L 121.110416 560.704346 
L 124.825188 558.398158 
L 126.063445 557.309057 
L 129.778217 552.342034 
L 131.016474 551.194899 
L 132.254732 550.587902 
L 133.492989 550.485138 
L 135.969504 550.965327 
L 137.207761 550.407242 
L 138.446018 548.748602 
L 140.922533 544.1551 
L 142.16079 542.934536 
L 143.399047 543.279474 
L 144.637304 545.122389 
L 145.875562 547.55776 
L 147.113819 549.522508 
L 148.352076 550.705254 
L 149.590334 551.319632 
L 150.828591 551.445378 
L 152.066848 551.038001 
L 153.305105 550.220293 
L 157.019877 547.222247 
L 158.258134 546.818133 
L 159.496392 546.892576 
L 160.734649 547.179169 
L 161.972906 547.702768 
L 164.449421 549.441347 
L 165.687678 549.446745 
L 166.925935 548.171234 
L 168.164193 546.218877 
L 169.40245 544.479054 
L 170.640707 543.358405 
L 171.878964 543.216312 
L 173.117222 544.335348 
L 174.355479 545.928388 
L 175.593736 546.359613 
L 176.831993 544.825123 
L 178.070251 542.139468 
L 179.308508 539.774196 
L 180.546765 538.625866 
L 181.785022 538.527421 
L 183.02328 538.580318 
L 184.261537 538.156011 
L 185.499794 537.460747 
L 186.738052 536.943998 
L 187.976309 536.665078 
L 189.214566 536.610021 
L 190.452823 537.107835 
L 191.691081 538.303156 
L 192.929338 539.811522 
L 194.167595 541.498952 
L 195.405852 543.723101 
L 196.64411 546.390946 
L 197.882367 548.594829 
L 199.120624 549.402582 
L 200.358881 548.571746 
L 204.073653 542.730184 
L 206.550168 539.465649 
L 209.026682 535.660932 
L 210.26494 534.853962 
L 211.503197 535.566163 
L 212.741454 537.140147 
L 213.979711 538.445274 
L 215.217969 538.764969 
L 216.456226 538.128504 
L 217.694483 537.193777 
L 218.93274 536.676661 
L 220.170998 536.83758 
L 222.647512 537.903872 
L 223.88577 537.967883 
L 227.600541 537.60844 
L 228.838799 536.657375 
L 230.077056 534.975111 
L 231.315313 532.853968 
L 232.55357 530.388963 
L 235.030085 524.869535 
L 236.268342 523.021313 
L 237.5066 522.541704 
L 238.744857 523.371246 
L 241.221371 526.310153 
L 242.459629 527.9282 
L 243.697886 529.918804 
L 247.412658 536.928502 
L 248.650915 538.445574 
L 249.889172 538.508717 
L 251.127429 537.059344 
L 252.365687 534.86354 
L 253.603944 532.971093 
L 254.842201 531.867826 
L 256.080459 531.279493 
L 257.318716 530.920003 
L 259.79523 530.864176 
L 261.033488 529.857142 
L 263.510002 524.723931 
L 264.748259 523.380314 
L 265.986517 523.459799 
L 267.224774 523.838397 
L 268.463031 523.651962 
L 269.701288 522.860825 
L 272.177803 521.011134 
L 273.41606 520.14842 
L 275.892575 517.892194 
L 277.130832 517.317854 
L 278.369089 518.194864 
L 279.607347 520.870694 
L 280.845604 524.372273 
L 282.083861 526.735982 
L 283.322118 526.509077 
L 284.560376 523.94341 
L 285.798633 520.505699 
L 287.03689 517.449964 
L 288.275147 515.30027 
L 289.513405 514.11629 
L 290.751662 513.767846 
L 291.989919 514.025161 
L 293.228177 514.438711 
L 294.466434 514.466469 
L 295.704691 513.826967 
L 296.942948 512.759011 
L 298.181206 512.223216 
L 299.419463 513.357342 
L 300.65772 516.183123 
L 301.895977 519.417426 
L 303.134235 521.68886 
L 304.372492 522.296284 
L 305.610749 521.007948 
L 306.849006 517.907727 
L 310.563778 504.848006 
L 311.802036 503.291758 
L 313.040293 504.323738 
L 314.27855 507.248261 
L 315.516807 510.870699 
L 316.755065 513.527545 
L 317.993322 513.577516 
L 319.231579 510.761865 
L 322.946351 497.372922 
L 324.184608 493.564156 
L 325.422866 490.720222 
L 326.661123 489.992441 
L 327.89938 492.001336 
L 330.375895 499.549424 
L 331.614152 502.381807 
L 332.852409 504.379812 
L 334.090666 505.935551 
L 335.328924 507.00835 
L 336.567181 507.58314 
L 339.043695 508.564571 
L 340.281953 509.280848 
L 341.52021 510.269705 
L 343.996725 512.560984 
L 345.234982 513.355959 
L 347.711496 514.645443 
L 348.949754 514.835831 
L 350.188011 513.296947 
L 351.426268 509.204548 
L 353.902783 497.363521 
L 355.14104 492.930023 
L 356.379297 491.157127 
L 357.617554 492.511395 
L 360.094069 499.777597 
L 361.332326 502.268944 
L 365.047098 506.372908 
L 366.285355 507.552422 
L 367.523613 507.373535 
L 368.76187 504.982716 
L 371.238384 496.476888 
L 372.476642 493.703055 
L 373.714899 492.818713 
L 374.953156 493.466196 
L 376.191413 495.246827 
L 377.429671 497.399899 
L 378.667928 498.436579 
L 379.906185 496.950383 
L 381.144443 492.868113 
L 382.3827 487.766129 
L 383.620957 483.85564 
L 384.859214 482.490562 
L 386.097472 483.431266 
L 388.573986 487.075637 
L 389.812243 488.231665 
L 391.050501 488.83115 
L 392.288758 488.825052 
L 393.527015 488.137449 
L 394.765272 487.00855 
L 396.00353 486.047039 
L 397.241787 485.78948 
L 399.718302 486.467422 
L 400.956559 486.453288 
L 402.194816 486.740399 
L 404.671331 488.687651 
L 405.909588 488.91096 
L 407.147845 488.46702 
L 409.62436 486.926584 
L 410.862617 486.960021 
L 412.100874 488.280813 
L 413.339132 490.033132 
L 414.577389 490.552247 
L 415.815646 488.771659 
L 417.053903 484.80909 
L 418.292161 479.383051 
L 420.768675 467.476067 
L 422.006932 462.892151 
L 423.24519 459.934507 
L 424.483447 459.038807 
L 425.721704 461.016239 
L 426.959961 465.934403 
L 428.198219 471.884475 
L 429.436476 475.758146 
L 430.674733 475.75239 
L 431.912991 472.760752 
L 433.151248 469.130684 
L 434.389505 466.443899 
L 436.86602 462.640429 
L 438.104277 460.510605 
L 439.342534 459.295851 
L 440.580791 460.023439 
L 441.819049 462.462115 
L 443.057306 465.524118 
L 444.295563 468.167909 
L 445.53382 469.762516 
L 446.772078 470.34192 
L 448.010335 470.633756 
L 449.248592 471.542722 
L 450.48685 473.588471 
L 452.963364 479.847735 
L 454.201621 481.731977 
L 455.439879 481.446353 
L 456.678136 479.387307 
L 457.916393 476.265639 
L 459.15465 472.077675 
L 461.631165 461.559898 
L 462.869422 458.045558 
L 464.107679 457.24124 
L 465.345937 458.828765 
L 466.584194 461.470183 
L 467.822451 463.729223 
L 469.060709 465.077413 
L 470.298966 465.812657 
L 471.537223 466.359104 
L 472.77548 467.152314 
L 474.013738 468.38203 
L 475.251995 469.427288 
L 476.490252 469.523721 
L 477.728509 469.00317 
L 478.966767 468.84922 
L 480.205024 469.421216 
L 481.443281 470.610629 
L 483.919796 474.37142 
L 485.158053 475.291845 
L 486.39631 473.792841 
L 487.634568 469.368179 
L 490.111082 456.029675 
L 491.349339 451.274281 
L 492.587597 449.768542 
L 493.825854 450.573849 
L 495.064111 451.553659 
L 496.302368 450.927077 
L 497.540626 448.089838 
L 498.778883 444.230607 
L 500.01714 442.017377 
L 501.255397 443.602197 
L 502.493655 448.85784 
L 503.731912 455.540263 
L 504.970169 460.801514 
L 506.208427 462.984805 
L 507.446684 462.609765 
L 508.684941 461.709673 
L 509.923198 462.100688 
L 511.161456 464.069405 
L 512.399713 466.348944 
L 513.63797 467.394893 
L 514.876227 466.889373 
L 517.352742 464.528121 
L 518.590999 462.992776 
L 519.829257 460.679192 
L 524.782286 449.368692 
L 526.020543 446.8947 
L 527.2588 445.28762 
L 528.497057 445.205536 
L 529.735315 446.565187 
L 530.973572 448.748835 
L 532.211829 451.375629 
L 534.688344 457.52037 
L 535.926601 460.601068 
L 537.164858 462.890249 
L 538.403116 463.410372 
L 539.641373 461.779127 
L 540.87963 458.429913 
L 544.594402 445.637738 
L 545.832659 443.309843 
L 547.070916 442.668459 
L 549.547431 443.581254 
L 550.785688 443.353378 
L 552.023945 442.885727 
L 553.262203 442.928055 
L 554.50046 443.913287 
L 555.738717 446.017036 
L 558.215232 452.312949 
L 559.453489 454.466242 
L 560.691746 454.565061 
L 561.930004 452.075847 
L 564.406518 442.585508 
L 565.644775 439.493869 
L 566.883033 439.023656 
L 568.12129 440.804515 
L 570.597804 446.690036 
L 571.836062 448.203873 
L 573.074319 447.500286 
L 575.550834 442.465366 
L 576.789091 440.865613 
L 578.027348 440.852022 
L 579.265605 442.09431 
L 581.74212 445.673356 
L 582.980377 446.867449 
L 584.218634 446.057015 
L 585.456892 442.137016 
L 587.933406 430.504538 
L 589.171663 426.227494 
L 591.648178 418.528902 
L 592.886435 415.501294 
L 594.124693 414.864562 
L 595.36295 417.464727 
L 596.601207 423.087604 
L 599.077722 437.013246 
L 600.315979 441.24236 
L 601.554236 442.075074 
L 602.792493 439.69711 
L 604.030751 435.27066 
L 605.269008 430.42766 
L 606.507265 426.593544 
L 607.745523 424.40933 
L 608.98378 423.60555 
L 610.222037 423.359323 
L 611.460294 422.769352 
L 612.698552 421.252084 
L 613.936809 418.714165 
L 615.175066 415.816842 
L 616.413323 414.098542 
L 617.651581 414.62089 
L 618.889838 416.348033 
L 620.128095 417.35379 
L 621.366352 417.481448 
L 622.60461 418.443713 
L 623.842867 421.571696 
L 626.319382 430.623014 
L 627.557639 432.299608 
L 628.795896 430.225597 
L 631.272411 419.74879 
L 632.510668 416.321904 
L 633.748925 415.634297 
L 634.987182 416.759694 
L 636.22544 418.16897 
L 637.463697 418.362292 
L 638.701954 416.489099 
L 639.940211 412.873529 
L 643.654983 400.058212 
L 644.893241 397.041199 
L 646.131498 395.999784 
L 647.369755 396.84119 
L 648.608012 398.931861 
L 651.084527 404.129118 
L 652.322784 405.864048 
L 653.561041 406.200119 
L 654.799299 404.388866 
L 656.037556 400.332869 
L 657.275813 395.203905 
L 658.51407 391.335593 
L 659.752328 390.980253 
L 660.990585 394.336748 
L 662.228842 399.340289 
L 663.4671 403.750948 
L 664.705357 406.934105 
L 665.943614 409.748119 
L 667.181871 413.230324 
L 669.658386 421.926052 
L 670.896643 425.22936 
L 672.1349 425.693585 
L 673.373158 422.121232 
L 675.849672 409.191587 
L 677.087929 405.538248 
L 678.326187 404.760528 
L 679.564444 405.225942 
L 680.802701 405.442462 
L 682.040959 404.947268 
L 683.279216 404.051699 
L 684.517473 403.505755 
L 685.75573 404.116689 
L 686.993988 406.089955 
L 688.232245 408.70606 
L 689.470502 410.720949 
L 690.708759 411.256757 
L 691.947017 410.385375 
L 693.185274 408.59407 
L 694.423531 405.822786 
L 695.661789 401.379065 
L 696.900046 395.034211 
L 698.138303 388.096942 
L 699.37656 383.055877 
L 700.614818 382.333138 
L 701.853075 386.845712 
L 704.329589 403.506381 
L 705.567847 409.807145 
L 706.806104 412.253975 
L 708.044361 410.357784 
L 709.282618 404.704198 
L 712.99739 380.830234 
L 714.235648 376.280312 
L 715.473905 374.019646 
L 716.712162 373.629363 
L 717.950419 374.949745 
L 719.188677 377.598065 
L 720.426934 380.807722 
L 721.665191 383.39818 
L 722.903448 384.204559 
L 724.141706 383.204621 
L 725.379963 381.429346 
L 726.61822 379.352838 
L 727.856477 376.676762 
L 729.094735 373.684457 
L 730.332992 371.416245 
L 731.571249 370.718608 
L 732.809507 371.527031 
L 734.047764 372.817506 
L 735.286021 373.617292 
L 736.524278 373.975189 
L 737.762536 374.538347 
L 739.000793 375.805825 
L 740.23905 377.929598 
L 741.477307 380.509379 
L 742.715565 382.772342 
L 743.953822 384.118333 
L 745.192079 384.422637 
L 746.430336 384.014327 
L 747.668594 382.951136 
L 750.145108 378.816165 
L 751.383366 378.014214 
L 752.621623 378.566449 
L 753.85988 378.460626 
L 755.098137 376.0814 
L 756.336395 372.303413 
L 757.574652 369.760618 
L 758.812909 370.389426 
L 760.051166 373.701283 
L 761.289424 377.421593 
L 762.527681 379.895239 
L 763.765938 381.136644 
L 765.004195 381.422779 
L 766.242453 380.227329 
L 767.48071 376.794864 
L 768.718967 371.185746 
L 769.957225 364.877025 
L 771.195482 359.974415 
L 772.433739 357.531643 
L 773.671996 357.104473 
L 776.148511 358.236384 
L 777.386768 358.176848 
L 778.625025 357.897576 
L 779.863283 358.469354 
L 781.10154 360.643495 
L 782.339797 364.63949 
L 783.578054 369.500085 
L 784.816312 372.879572 
L 786.054569 372.875114 
L 787.292826 369.359107 
L 791.007598 352.148987 
L 792.245855 350.03866 
L 793.484113 351.45965 
L 794.72237 355.900793 
L 797.198884 367.850732 
L 798.437142 371.791642 
L 799.675399 373.39148 
L 800.913656 373.333889 
L 802.151914 372.065052 
L 803.390171 369.728038 
L 805.866685 364.262932 
L 807.104943 362.455552 
L 808.3432 362.360553 
L 809.581457 364.131552 
L 810.819714 366.500757 
L 812.057972 368.039583 
L 813.296229 368.005593 
L 814.534486 366.180809 
L 815.772743 362.974039 
L 817.011001 359.395921 
L 818.249258 356.63684 
L 819.487515 355.253656 
L 820.725773 354.438679 
L 821.96403 352.873533 
L 824.440544 347.733284 
L 825.678802 345.836584 
L 826.917059 345.328923 
L 828.155316 346.529506 
L 830.631831 351.094866 
L 831.870088 352.871753 
L 833.108345 354.202588 
L 834.346602 354.933722 
L 835.58486 354.943722 
L 836.823117 354.43723 
L 838.061374 353.348466 
L 839.299632 351.308809 
L 840.537889 348.248078 
L 843.014403 340.423473 
L 844.252661 337.622288 
L 845.490918 337.043056 
L 846.729175 338.647064 
L 847.967432 341.312641 
L 849.20569 343.398331 
L 850.443947 343.763696 
L 851.682204 342.370216 
L 852.920461 339.746632 
L 855.396976 332.666536 
L 856.635233 330.181545 
L 857.873491 330.651214 
L 859.111748 334.344313 
L 860.350005 339.206755 
L 861.588262 342.676329 
L 862.82652 343.80784 
L 864.064777 343.454431 
L 865.303034 342.967137 
L 866.541291 343.180781 
L 867.779549 343.984605 
L 869.017806 343.953862 
L 870.256063 341.171439 
L 871.49432 335.091777 
L 875.209092 311.018807 
L 876.44735 305.698392 
L 877.685607 303.253738 
L 878.923864 303.521758 
L 880.162121 305.706546 
L 881.400379 309.388777 
L 885.11515 324.432785 
L 886.353408 327.579958 
L 887.591665 331.261108 
L 888.829922 336.762306 
L 890.06818 342.874216 
L 891.306437 347.189336 
L 892.544694 348.700261 
L 893.782951 348.42953 
L 895.021209 348.014216 
L 896.259466 348.614475 
L 897.497723 350.653608 
L 899.974238 356.373147 
L 901.212495 358.462156 
L 902.450752 359.459677 
L 903.689009 358.439235 
L 904.927267 354.638256 
L 906.165524 348.295571 
L 908.642039 332.911486 
L 909.880296 328.95554 
L 911.118553 330.486751 
L 912.35681 336.762434 
L 914.833325 353.323915 
L 916.071582 359.702203 
L 917.309839 363.304853 
L 918.548097 362.972787 
L 919.786354 358.351653 
L 921.024611 350.582523 
L 923.501126 333.399745 
L 924.739383 326.616164 
L 925.97764 321.978173 
L 927.215898 319.951088 
L 928.454155 320.522955 
L 929.692412 323.074525 
L 932.168927 329.690709 
L 933.407184 331.823511 
L 935.883698 334.252714 
L 938.360213 337.860352 
L 939.59847 338.233119 
L 940.836727 335.906767 
L 943.313242 327.35831 
L 944.551499 325.564162 
L 945.789757 326.376447 
L 947.028014 327.682465 
L 948.266271 327.342255 
L 950.742786 322.984048 
L 951.981043 322.562477 
L 953.2193 324.398783 
L 954.457557 327.248112 
L 955.695815 329.404258 
L 956.934072 330.139319 
L 958.172329 329.918446 
L 959.410586 329.322202 
L 960.648844 328.115556 
L 961.887101 325.682559 
L 963.125358 322.297297 
L 964.363616 319.256402 
L 965.601873 317.546671 
L 966.84013 317.18249 
L 968.078387 317.735907 
L 969.316645 318.662635 
L 970.554902 319.100406 
L 971.793159 317.918268 
L 973.031416 314.41791 
L 974.269674 308.791458 
L 975.507931 302.017455 
L 976.746188 296.065499 
L 977.984446 293.617001 
L 979.222703 296.145747 
L 980.46096 302.44845 
L 981.699217 309.833726 
L 982.937475 316.128716 
L 984.175732 320.356612 
L 985.413989 322.607601 
L 987.890504 324.876363 
L 989.128761 326.751777 
L 990.367018 329.007526 
L 991.605275 330.632689 
L 992.843533 331.016536 
L 994.08179 330.104875 
L 995.320047 328.672273 
L 996.558305 328.666628 
L 997.796562 331.111923 
L 999.034819 334.063162 
L 1000.273076 334.508742 
L 1001.511334 331.645361 
L 1002.749591 327.409538 
L 1003.987848 324.136336 
L 1006.464363 320.353568 
L 1007.70262 317.454925 
L 1010.179134 310.021716 
L 1011.417392 307.457189 
L 1012.655649 307.308425 
L 1013.893906 309.920218 
L 1016.370421 318.549832 
L 1017.608678 322.158148 
L 1018.846935 324.917152 
L 1020.085193 326.653 
L 1021.32345 326.933671 
L 1022.561707 325.52259 
L 1023.799964 322.646753 
L 1025.038222 319.199254 
L 1026.276479 316.45503 
L 1027.514736 315.129975 
L 1029.991251 314.548975 
L 1031.229508 313.332684 
L 1032.467765 311.751671 
L 1033.706023 310.987728 
L 1034.94428 310.868654 
L 1036.182537 309.808224 
L 1037.420794 306.969437 
L 1039.897309 299.494457 
L 1041.135566 296.476457 
L 1042.373823 294.262917 
L 1043.612081 293.050248 
L 1044.850338 292.968862 
L 1046.088595 293.654495 
L 1047.326852 294.172191 
L 1048.56511 293.810425 
L 1049.803367 292.513046 
L 1051.041624 290.245698 
L 1052.279882 286.789239 
L 1054.756396 278.201542 
L 1057.232911 271.126394 
L 1058.471168 266.861089 
L 1060.947682 256.673194 
L 1062.18594 254.561256 
L 1063.424197 256.84768 
L 1064.662454 262.81248 
L 1065.900711 270.086665 
L 1067.138969 276.473511 
L 1068.377226 280.998377 
L 1069.615483 283.89084 
L 1073.330255 290.599176 
L 1074.568512 293.381323 
L 1075.80677 297.529101 
L 1077.045027 303.685345 
L 1078.283284 311.040073 
L 1079.521541 317.663361 
L 1080.759799 321.445274 
L 1081.998056 320.925312 
L 1083.236313 316.658703 
L 1084.474571 311.722965 
L 1085.712828 309.594869 
L 1086.951085 311.665985 
L 1088.189342 317.235617 
L 1090.665857 331.533943 
L 1091.904114 335.353463 
L 1093.142371 334.72729 
L 1094.380629 330.390924 
L 1095.618886 324.513132 
L 1096.857143 319.233209 
L 1098.0954 315.521134 
L 1099.333658 313.243563 
L 1100.571915 312.04237 
L 1101.810172 311.340041 
L 1103.04843 309.942541 
L 1105.524944 304.715992 
L 1106.763201 303.933659 
L 1108.001459 305.196702 
L 1109.239716 307.731801 
L 1111.71623 314.227441 
L 1112.954488 316.813749 
L 1114.192745 317.854558 
L 1115.431002 316.960671 
L 1116.669259 313.699792 
L 1117.907517 307.524442 
L 1120.384031 290.115646 
L 1121.622289 284.771781 
L 1122.860546 285.277013 
L 1124.098803 291.896916 
L 1126.575318 313.072748 
L 1127.813575 319.813501 
L 1129.051832 321.318499 
L 1130.290089 318.558787 
L 1131.528347 313.298016 
L 1134.004861 301.587436 
L 1135.243118 297.201888 
L 1136.481376 294.218771 
L 1137.719633 292.45696 
L 1142.672662 287.892855 
L 1143.910919 287.134708 
L 1145.149177 287.738011 
L 1146.387434 290.572648 
L 1147.625691 295.526265 
L 1148.863948 301.158672 
L 1150.102206 305.28 
L 1151.340463 306.270591 
L 1152.57872 304.224038 
L 1153.816977 300.297581 
L 1155.055235 295.088902 
L 1156.293492 288.986444 
L 1157.531749 283.626981 
L 1158.770007 281.086404 
L 1160.008264 281.622588 
L 1161.246521 283.530782 
L 1162.484778 285.198697 
L 1163.723036 286.091049 
L 1164.961293 286.086445 
L 1166.19955 285.370452 
L 1167.437807 284.960648 
L 1168.676065 286.13936 
L 1171.152579 291.570812 
L 1172.390837 291.836965 
L 1173.629094 288.735127 
L 1174.867351 283.915868 
L 1176.105608 280.399388 
L 1177.343866 279.530313 
L 1178.582123 280.134319 
L 1179.82038 280.526008 
L 1181.058637 280.143473 
L 1184.773409 277.701263 
L 1186.011666 276.198465 
L 1187.249924 274.182357 
L 1188.488181 273.173393 
L 1189.726438 273.934891 
L 1190.964696 275.410765 
L 1192.202953 276.250941 
L 1193.44121 275.984676 
L 1194.679467 274.669077 
L 1198.394239 268.562389 
L 1200.870754 266.005129 
L 1202.109011 263.929392 
L 1203.347268 260.500022 
L 1204.585525 256.543308 
L 1205.823783 254.033048 
L 1207.06204 254.629647 
L 1208.300297 257.644686 
L 1209.538555 260.351482 
L 1210.776812 260.942478 
L 1213.253326 258.974527 
L 1214.491584 258.617124 
L 1215.729841 259.246152 
L 1216.968098 261.20382 
L 1218.206355 264.045912 
L 1219.444613 266.355232 
L 1220.68287 267.36878 
L 1221.921127 267.547495 
L 1223.159384 267.223044 
L 1224.397642 266.114196 
L 1225.635899 263.851183 
L 1226.874156 259.923834 
L 1228.112414 254.081975 
L 1229.350671 247.618594 
L 1230.588928 243.128002 
L 1231.827185 242.329181 
L 1233.065443 244.702007 
L 1238.018472 259.550059 
L 1239.256729 262.255987 
L 1240.494986 265.582346 
L 1241.733243 270.269644 
L 1242.971501 275.791969 
L 1244.209758 280.362645 
L 1245.448015 281.170043 
L 1246.686273 276.112594 
L 1247.92453 266.049251 
L 1249.162787 254.295536 
L 1250.401044 244.293511 
L 1251.639302 238.506092 
L 1252.877559 237.88494 
L 1254.115816 241.180992 
L 1256.592331 250.390814 
L 1257.830588 253.250377 
L 1259.068845 254.980319 
L 1260.307103 257.375893 
L 1262.783617 265.143077 
L 1264.021874 266.177476 
L 1265.260132 262.091958 
L 1266.498389 252.538618 
L 1268.974903 225.635224 
L 1270.213161 215.754684 
L 1271.451418 213.250116 
L 1272.689675 218.566558 
L 1275.16619 237.67753 
L 1276.404447 244.668974 
L 1277.642704 248.716431 
L 1278.880962 249.679904 
L 1280.119219 247.720681 
L 1281.357476 244.907949 
L 1282.595733 244.217163 
L 1283.833991 246.305885 
L 1285.072248 249.878268 
L 1286.310505 254.278574 
L 1287.548762 259.128231 
L 1288.78702 262.306508 
L 1290.025277 260.510297 
L 1291.263534 253.117853 
L 1292.501791 244.330587 
L 1293.740049 239.472217 
L 1294.978306 240.585254 
L 1296.216563 246.527421 
L 1298.693078 262.93187 
L 1299.931335 269.128427 
L 1301.169592 272.303445 
L 1302.40785 272.119079 
L 1303.646107 269.088817 
L 1304.884364 264.061979 
L 1306.122621 258.50492 
L 1307.360879 254.333082 
L 1308.599136 252.036857 
L 1309.837393 250.167277 
L 1311.07565 247.279551 
L 1312.313908 243.51468 
L 1313.552165 240.297446 
L 1314.790422 238.554839 
L 1317.266937 236.703041 
L 1318.505194 236.655508 
L 1319.743451 238.441771 
L 1320.981709 242.500162 
L 1322.219966 249.210779 
L 1324.69648 266.050302 
L 1325.934738 270.822429 
L 1327.172995 271.037345 
L 1328.411252 267.048688 
L 1329.649509 260.595755 
L 1330.887767 254.756376 
L 1332.126024 252.23047 
L 1333.364281 253.077477 
L 1334.602539 254.687581 
L 1335.840796 254.652297 
L 1337.079053 253.043 
L 1338.31731 250.682625 
L 1339.555568 247.006794 
L 1340.793825 241.445909 
L 1343.270339 228.570204 
L 1344.508597 223.418721 
L 1345.746854 219.998423 
L 1348.223368 216.048979 
L 1350.699883 210.966236 
L 1351.93814 207.300792 
L 1353.176398 200.332522 
L 1354.414655 187.600258 
L 1355.652912 167.673494 
L 1359.367684 92.408774 
L 1360.605941 78.309436 
L 1361.844198 70.808639 
L 1363.082456 64.396685 
L 1364.320713 55.90432 
L 1365.55897 48.454818 
L 1366.797228 47.979282 
L 1368.035485 56.694541 
L 1370.511999 87.048563 
L 1371.750257 103.589212 
L 1372.988514 125.337489 
L 1376.703286 212.035645 
L 1377.941543 229.430864 
L 1379.1798 238.349054 
L 1380.418057 241.675944 
L 1381.656315 243.242156 
L 1382.894572 245.812649 
L 1384.132829 250.166871 
L 1385.371087 255.40528 
L 1386.609344 259.496265 
L 1387.847601 260.839623 
L 1389.085858 260.079284 
L 1390.324116 259.061013 
L 1391.562373 257.735963 
L 1392.80063 253.968694 
L 1394.038887 246.841923 
L 1395.277145 238.2731 
L 1396.515402 230.63582 
L 1398.991916 218.012416 
L 1400.230174 212.341743 
L 1401.468431 208.742018 
L 1402.706688 208.952119 
L 1403.944946 213.547166 
L 1406.42146 227.479439 
L 1407.659717 232.811036 
L 1408.897975 237.264397 
L 1410.136232 240.865205 
L 1411.374489 242.540079 
L 1412.612746 241.650917 
L 1416.327518 234.092476 
L 1417.565775 231.35954 
L 1418.804033 229.55991 
L 1420.04229 230.830857 
L 1421.280547 235.773704 
L 1423.757062 249.28544 
L 1424.995319 253.955747 
L 1426.233576 256.741207 
L 1427.471834 257.623861 
L 1428.710091 255.907975 
L 1429.948348 251.589933 
L 1431.186605 245.891687 
L 1432.424863 239.600612 
L 1434.901377 225.404921 
L 1436.139634 219.981349 
L 1437.377892 217.647263 
L 1438.616149 217.905043 
L 1439.854406 218.931525 
L 1441.092664 218.140319 
L 1442.330921 213.439472 
L 1443.569178 205.108218 
L 1444.807435 195.533411 
L 1446.045693 187.867168 
L 1447.28395 185.093913 
L 1448.522207 188.08239 
L 1450.998722 200.202787 
L 1452.236979 203.265367 
L 1453.475236 202.908992 
L 1454.713494 199.488963 
L 1455.951751 194.391479 
L 1457.190008 189.79271 
L 1458.428265 187.722694 
L 1459.666523 189.278399 
L 1462.143037 198.56209 
L 1463.381294 200.888396 
L 1464.619552 199.965632 
L 1465.857809 197.290307 
L 1467.096066 194.956136 
L 1468.334323 193.386014 
L 1469.572581 190.981772 
L 1470.810838 186.131426 
L 1472.049095 178.772547 
L 1474.52561 161.593937 
L 1475.763867 155.001469 
L 1477.002124 151.457434 
L 1478.240382 152.455622 
L 1479.478639 159.867843 
L 1480.716896 174.405065 
L 1484.431668 232.871763 
L 1485.669925 244.848915 
L 1486.908182 252.676973 
L 1488.14644 258.105834 
L 1489.384697 261.405686 
L 1490.622954 261.834157 
L 1491.861212 259.093211 
L 1494.337726 248.673655 
L 1495.575983 244.891324 
L 1496.814241 243.884863 
L 1499.290755 245.493913 
L 1500.529012 244.542067 
L 1503.005527 238.850333 
L 1504.243784 238.373123 
L 1505.482041 241.009645 
L 1506.720299 244.874987 
L 1507.958556 247.401947 
L 1509.196813 247.684105 
L 1510.435071 246.731947 
L 1511.673328 246.131583 
L 1512.911585 246.843963 
L 1514.149842 248.348666 
L 1515.3881 248.904408 
L 1516.626357 247.420944 
L 1520.341129 238.702168 
L 1521.579386 236.708755 
L 1522.817643 234.998608 
L 1524.0559 233.596041 
L 1525.294158 233.241724 
L 1526.532415 234.504904 
L 1527.770672 236.757561 
L 1529.00893 239.3964 
L 1531.485444 245.915997 
L 1532.723701 247.4015 
L 1533.961959 246.234032 
L 1535.200216 243.866009 
L 1536.438473 242.734973 
L 1537.67673 244.473725 
L 1538.914988 249.04105 
L 1540.153245 254.401107 
L 1541.391502 257.29219 
L 1542.62976 254.961513 
L 1543.868017 246.792807 
L 1546.344531 221.571957 
L 1547.582789 209.106502 
L 1548.821046 197.995808 
L 1550.059303 188.641826 
L 1551.29756 182.145985 
L 1552.535818 180.103995 
L 1553.774075 182.8406 
L 1555.012332 189.047503 
L 1556.250589 196.46178 
L 1557.488847 201.552595 
L 1558.727104 200.902132 
L 1559.965361 194.435393 
L 1563.680133 166.444542 
L 1564.91839 159.304332 
L 1566.156648 155.820107 
L 1567.394905 156.450246 
L 1568.633162 159.712023 
L 1573.586191 176.082712 
L 1574.824448 181.169461 
L 1576.062706 188.891492 
L 1577.300963 199.174642 
L 1579.777478 221.257193 
L 1581.015735 228.186211 
L 1582.253992 229.61954 
L 1583.492249 226.075135 
L 1587.207021 207.345479 
L 1588.445278 204.401092 
L 1590.921793 202.405147 
L 1592.16005 200.059168 
L 1593.398307 195.754833 
L 1595.874822 184.590894 
L 1597.113079 179.915699 
L 1598.351337 175.749279 
L 1600.827851 166.481383 
L 1602.066108 163.740705 
L 1603.304366 164.350789 
L 1604.542623 168.674281 
L 1605.78088 176.166246 
L 1608.257395 195.47502 
L 1609.495652 203.302206 
L 1610.733909 207.050356 
L 1611.972166 207.176414 
L 1613.210424 206.521313 
L 1614.448681 207.307781 
L 1615.686938 209.168686 
L 1616.925196 210.513625 
L 1618.163453 211.088642 
L 1619.40171 212.388473 
L 1620.639967 215.021545 
L 1621.878225 216.346332 
L 1623.116482 212.103158 
L 1624.354739 200.343147 
L 1626.831254 165.029962 
L 1628.069511 151.276631 
L 1629.307768 145.284063 
L 1630.546026 147.200746 
L 1631.784283 153.496048 
L 1633.02254 158.933106 
L 1634.260797 160.573333 
L 1635.499055 159.568314 
L 1636.737312 158.820735 
L 1637.975569 160.505254 
L 1639.213826 165.401726 
L 1640.452084 172.913687 
L 1641.690341 181.761659 
L 1641.690341 181.761659 
" style="fill:none;stroke:#008000;stroke-linecap:square;stroke-width:1.5;"/>
   </g>
   <g id="patch_3">
    <path d="M 43.78125 586.86358 
L 43.78125 22.318125 
" style="fill:none;stroke:#000000;stroke-linecap:square;stroke-linejoin:miter;stroke-width:0.8;"/>
   </g>
   <g id="patch_4">
    <path d="M 1717.78125 586.86358 
L 1717.78125 22.318125 
" style="fill:none;stroke:#000000;stroke-linecap:square;stroke-linejoin:miter;stroke-width:0.8;"/>
   </g>
   <g id="patch_5">
    <path d="M 43.78125 586.86358 
L 1717.78125 586.86358 
" style="fill:none;stroke:#000000;stroke-linecap:square;stroke-linejoin:miter;stroke-width:0.8;"/>
   </g>
   <g id="patch_6">
    <path d="M 43.78125 22.318125 
L 1717.78125 22.318125 
" style="fill:none;stroke:#000000;stroke-linecap:square;stroke-linejoin:miter;stroke-width:0.8;"/>
   </g>
   <g id="text_15">
    <!-- before binarisation -->
    <g transform="translate(824.1825 16.318125)scale(0.12 -0.12)">
     <defs>
      <path d="M 3116 1747 
Q 3116 2381 2855 2742 
Q 2594 3103 2138 3103 
Q 1681 3103 1420 2742 
Q 1159 2381 1159 1747 
Q 1159 1113 1420 752 
Q 1681 391 2138 391 
Q 2594 391 2855 752 
Q 3116 1113 3116 1747 
z
M 1159 2969 
Q 1341 3281 1617 3432 
Q 1894 3584 2278 3584 
Q 2916 3584 3314 3078 
Q 3713 2572 3713 1747 
Q 3713 922 3314 415 
Q 2916 -91 2278 -91 
Q 1894 -91 1617 61 
Q 1341 213 1159 525 
L 1159 0 
L 581 0 
L 581 4863 
L 1159 4863 
L 1159 2969 
z
" id="DejaVuSans-62" transform="scale(0.015625)"/>
      <path d="M 1959 3097 
Q 1497 3097 1228 2736 
Q 959 2375 959 1747 
Q 959 1119 1226 758 
Q 1494 397 1959 397 
Q 2419 397 2687 759 
Q 2956 1122 2956 1747 
Q 2956 2369 2687 2733 
Q 2419 3097 1959 3097 
z
M 1959 3584 
Q 2709 3584 3137 3096 
Q 3566 2609 3566 1747 
Q 3566 888 3137 398 
Q 2709 -91 1959 -91 
Q 1206 -91 779 398 
Q 353 888 353 1747 
Q 353 2609 779 3096 
Q 1206 3584 1959 3584 
z
" id="DejaVuSans-6f" transform="scale(0.015625)"/>
      <path id="DejaVuSans-20" transform="scale(0.015625)"/>
      <path d="M 603 3500 
L 1178 3500 
L 1178 0 
L 603 0 
L 603 3500 
z
M 603 4863 
L 1178 4863 
L 1178 4134 
L 603 4134 
L 603 4863 
z
" id="DejaVuSans-69" transform="scale(0.015625)"/>
      <path d="M 3513 2113 
L 3513 0 
L 2938 0 
L 2938 2094 
Q 2938 2591 2744 2837 
Q 2550 3084 2163 3084 
Q 1697 3084 1428 2787 
Q 1159 2491 1159 1978 
L 1159 0 
L 581 0 
L 581 3500 
L 1159 3500 
L 1159 2956 
Q 1366 3272 1645 3428 
Q 1925 3584 2291 3584 
Q 2894 3584 3203 3211 
Q 3513 2838 3513 2113 
z
" id="DejaVuSans-6e" transform="scale(0.015625)"/>
      <path d="M 2834 3397 
L 2834 2853 
Q 2591 2978 2328 3040 
Q 2066 3103 1784 3103 
Q 1356 3103 1142 2972 
Q 928 2841 928 2578 
Q 928 2378 1081 2264 
Q 1234 2150 1697 2047 
L 1894 2003 
Q 2506 1872 2764 1633 
Q 3022 1394 3022 966 
Q 3022 478 2636 193 
Q 2250 -91 1575 -91 
Q 1294 -91 989 -36 
Q 684 19 347 128 
L 347 722 
Q 666 556 975 473 
Q 1284 391 1588 391 
Q 1994 391 2212 530 
Q 2431 669 2431 922 
Q 2431 1156 2273 1281 
Q 2116 1406 1581 1522 
L 1381 1569 
Q 847 1681 609 1914 
Q 372 2147 372 2553 
Q 372 3047 722 3315 
Q 1072 3584 1716 3584 
Q 2034 3584 2315 3537 
Q 2597 3491 2834 3397 
z
" id="DejaVuSans-73" transform="scale(0.015625)"/>
      <path d="M 1172 4494 
L 1172 3500 
L 2356 3500 
L 2356 3053 
L 1172 3053 
L 1172 1153 
Q 1172 725 1289 603 
Q 1406 481 1766 481 
L 2356 481 
L 2356 0 
L 1766 0 
Q 1100 0 847 248 
Q 594 497 594 1153 
L 594 3053 
L 172 3053 
L 172 3500 
L 594 3500 
L 594 4494 
L 1172 4494 
z
" id="DejaVuSans-74" transform="scale(0.015625)"/>
     </defs>
     <use xlink:href="#DejaVuSans-62"/>
     <use x="63.476562" xlink:href="#DejaVuSans-65"/>
     <use x="125" xlink:href="#DejaVuSans-66"/>
     <use x="160.205078" xlink:href="#DejaVuSans-6f"/>
     <use x="221.386719" xlink:href="#DejaVuSans-72"/>
     <use x="260.25" xlink:href="#DejaVuSans-65"/>
     <use x="321.773438" xlink:href="#DejaVuSans-20"/>
     <use x="353.560547" xlink:href="#DejaVuSans-62"/>
     <use x="417.037109" xlink:href="#DejaVuSans-69"/>
     <use x="444.820312" xlink:href="#DejaVuSans-6e"/>
     <use x="508.199219" xlink:href="#DejaVuSans-61"/>
     <use x="569.478516" xlink:href="#DejaVuSans-72"/>
     <use x="610.591797" xlink:href="#DejaVuSans-69"/>
     <use x="638.375" xlink:href="#DejaVuSans-73"/>
     <use x="690.474609" xlink:href="#DejaVuSans-61"/>
     <use x="751.753906" xlink:href="#DejaVuSans-74"/>
     <use x="790.962891" xlink:href="#DejaVuSans-69"/>
     <use x="818.746094" xlink:href="#DejaVuSans-6f"/>
     <use x="879.927734" xlink:href="#DejaVuSans-6e"/>
    </g>
   </g>
  </g>
  <g id="axes_2">
   <g id="patch_7">
    <path d="M 43.78125 1264.318125 
L 1717.78125 1264.318125 
L 1717.78125 699.77267 
L 43.78125 699.77267 
z
" style="fill:#ffffff;"/>
   </g>
   <g id="matplotlib.axis_3">
    <g id="xtick_8">
     <g id="line2d_14">
      <g>
       <use style="stroke:#000000;stroke-width:0.8;" x="119.872159" xlink:href="#mff6f3027a2" y="1264.318125"/>
      </g>
     </g>
     <g id="text_16">
      <!-- 0 -->
      <g transform="translate(116.690909 1278.916563)scale(0.1 -0.1)">
       <use xlink:href="#DejaVuSans-30"/>
      </g>
     </g>
    </g>
    <g id="xtick_9">
     <g id="line2d_15">
      <g>
       <use style="stroke:#000000;stroke-width:0.8;" x="367.523613" xlink:href="#mff6f3027a2" y="1264.318125"/>
      </g>
     </g>
     <g id="text_17">
      <!-- 200 -->
      <g transform="translate(357.979863 1278.916563)scale(0.1 -0.1)">
       <use xlink:href="#DejaVuSans-32"/>
       <use x="63.623047" xlink:href="#DejaVuSans-30"/>
       <use x="127.246094" xlink:href="#DejaVuSans-30"/>
      </g>
     </g>
    </g>
    <g id="xtick_10">
     <g id="line2d_16">
      <g>
       <use style="stroke:#000000;stroke-width:0.8;" x="615.175066" xlink:href="#mff6f3027a2" y="1264.318125"/>
      </g>
     </g>
     <g id="text_18">
      <!-- 400 -->
      <g transform="translate(605.631316 1278.916563)scale(0.1 -0.1)">
       <use xlink:href="#DejaVuSans-34"/>
       <use x="63.623047" xlink:href="#DejaVuSans-30"/>
       <use x="127.246094" xlink:href="#DejaVuSans-30"/>
      </g>
     </g>
    </g>
    <g id="xtick_11">
     <g id="line2d_17">
      <g>
       <use style="stroke:#000000;stroke-width:0.8;" x="862.82652" xlink:href="#mff6f3027a2" y="1264.318125"/>
      </g>
     </g>
     <g id="text_19">
      <!-- 600 -->
      <g transform="translate(853.28277 1278.916563)scale(0.1 -0.1)">
       <use xlink:href="#DejaVuSans-36"/>
       <use x="63.623047" xlink:href="#DejaVuSans-30"/>
       <use x="127.246094" xlink:href="#DejaVuSans-30"/>
      </g>
     </g>
    </g>
    <g id="xtick_12">
     <g id="line2d_18">
      <g>
       <use style="stroke:#000000;stroke-width:0.8;" x="1110.477973" xlink:href="#mff6f3027a2" y="1264.318125"/>
      </g>
     </g>
     <g id="text_20">
      <!-- 800 -->
      <g transform="translate(1100.934223 1278.916563)scale(0.1 -0.1)">
       <use xlink:href="#DejaVuSans-38"/>
       <use x="63.623047" xlink:href="#DejaVuSans-30"/>
       <use x="127.246094" xlink:href="#DejaVuSans-30"/>
      </g>
     </g>
    </g>
    <g id="xtick_13">
     <g id="line2d_19">
      <g>
       <use style="stroke:#000000;stroke-width:0.8;" x="1358.129427" xlink:href="#mff6f3027a2" y="1264.318125"/>
      </g>
     </g>
     <g id="text_21">
      <!-- 1000 -->
      <g transform="translate(1345.404427 1278.916563)scale(0.1 -0.1)">
       <use xlink:href="#DejaVuSans-31"/>
       <use x="63.623047" xlink:href="#DejaVuSans-30"/>
       <use x="127.246094" xlink:href="#DejaVuSans-30"/>
       <use x="190.869141" xlink:href="#DejaVuSans-30"/>
      </g>
     </g>
    </g>
    <g id="xtick_14">
     <g id="line2d_20">
      <g>
       <use style="stroke:#000000;stroke-width:0.8;" x="1605.78088" xlink:href="#mff6f3027a2" y="1264.318125"/>
      </g>
     </g>
     <g id="text_22">
      <!-- 1200 -->
      <g transform="translate(1593.05588 1278.916563)scale(0.1 -0.1)">
       <use xlink:href="#DejaVuSans-31"/>
       <use x="63.623047" xlink:href="#DejaVuSans-32"/>
       <use x="127.246094" xlink:href="#DejaVuSans-30"/>
       <use x="190.869141" xlink:href="#DejaVuSans-30"/>
      </g>
     </g>
    </g>
    <g id="text_23">
     <!-- frame -->
     <g transform="translate(865.954687 1292.594688)scale(0.1 -0.1)">
      <use xlink:href="#DejaVuSans-66"/>
      <use x="35.205078" xlink:href="#DejaVuSans-72"/>
      <use x="76.318359" xlink:href="#DejaVuSans-61"/>
      <use x="137.597656" xlink:href="#DejaVuSans-6d"/>
      <use x="235.009766" xlink:href="#DejaVuSans-65"/>
     </g>
    </g>
   </g>
   <g id="matplotlib.axis_4">
    <g id="ytick_6">
     <g id="line2d_21">
      <g>
       <use style="stroke:#000000;stroke-width:0.8;" x="43.78125" xlink:href="#mee17ec246a" y="1238.656968"/>
      </g>
     </g>
     <g id="text_24">
      <!-- 0.0 -->
      <g transform="translate(20.878125 1242.456187)scale(0.1 -0.1)">
       <use xlink:href="#DejaVuSans-30"/>
       <use x="63.623047" xlink:href="#DejaVuSans-2e"/>
       <use x="95.410156" xlink:href="#DejaVuSans-30"/>
      </g>
     </g>
    </g>
    <g id="ytick_7">
     <g id="line2d_22">
      <g>
       <use style="stroke:#000000;stroke-width:0.8;" x="43.78125" xlink:href="#mee17ec246a" y="1136.01234"/>
      </g>
     </g>
     <g id="text_25">
      <!-- 0.2 -->
      <g transform="translate(20.878125 1139.811559)scale(0.1 -0.1)">
       <use xlink:href="#DejaVuSans-30"/>
       <use x="63.623047" xlink:href="#DejaVuSans-2e"/>
       <use x="95.410156" xlink:href="#DejaVuSans-32"/>
      </g>
     </g>
    </g>
    <g id="ytick_8">
     <g id="line2d_23">
      <g>
       <use style="stroke:#000000;stroke-width:0.8;" x="43.78125" xlink:href="#mee17ec246a" y="1033.367712"/>
      </g>
     </g>
     <g id="text_26">
      <!-- 0.4 -->
      <g transform="translate(20.878125 1037.166931)scale(0.1 -0.1)">
       <use xlink:href="#DejaVuSans-30"/>
       <use x="63.623047" xlink:href="#DejaVuSans-2e"/>
       <use x="95.410156" xlink:href="#DejaVuSans-34"/>
      </g>
     </g>
    </g>
    <g id="ytick_9">
     <g id="line2d_24">
      <g>
       <use style="stroke:#000000;stroke-width:0.8;" x="43.78125" xlink:href="#mee17ec246a" y="930.723084"/>
      </g>
     </g>
     <g id="text_27">
      <!-- 0.6 -->
      <g transform="translate(20.878125 934.522302)scale(0.1 -0.1)">
       <use xlink:href="#DejaVuSans-30"/>
       <use x="63.623047" xlink:href="#DejaVuSans-2e"/>
       <use x="95.410156" xlink:href="#DejaVuSans-36"/>
      </g>
     </g>
    </g>
    <g id="ytick_10">
     <g id="line2d_25">
      <g>
       <use style="stroke:#000000;stroke-width:0.8;" x="43.78125" xlink:href="#mee17ec246a" y="828.078456"/>
      </g>
     </g>
     <g id="text_28">
      <!-- 0.8 -->
      <g transform="translate(20.878125 831.877674)scale(0.1 -0.1)">
       <use xlink:href="#DejaVuSans-30"/>
       <use x="63.623047" xlink:href="#DejaVuSans-2e"/>
       <use x="95.410156" xlink:href="#DejaVuSans-38"/>
      </g>
     </g>
    </g>
    <g id="ytick_11">
     <g id="line2d_26">
      <g>
       <use style="stroke:#000000;stroke-width:0.8;" x="43.78125" xlink:href="#mee17ec246a" y="725.433827"/>
      </g>
     </g>
     <g id="text_29">
      <!-- 1.0 -->
      <g transform="translate(20.878125 729.233046)scale(0.1 -0.1)">
       <use xlink:href="#DejaVuSans-31"/>
       <use x="63.623047" xlink:href="#DejaVuSans-2e"/>
       <use x="95.410156" xlink:href="#DejaVuSans-30"/>
      </g>
     </g>
    </g>
    <g id="text_30">
     <!-- GCaMP -->
     <g transform="translate(14.798437 999.803991)rotate(-90)scale(0.1 -0.1)">
      <use xlink:href="#DejaVuSans-47"/>
      <use x="77.490234" xlink:href="#DejaVuSans-43"/>
      <use x="147.314453" xlink:href="#DejaVuSans-61"/>
      <use x="208.59375" xlink:href="#DejaVuSans-4d"/>
      <use x="294.873047" xlink:href="#DejaVuSans-50"/>
     </g>
    </g>
   </g>
   <g id="line2d_27">
    <path clip-path="url(#p81ce0cd2a6)" d="M 119.872159 1238.656968 
L 1250.401044 1238.656968 
L 1251.639302 725.433827 
L 1252.877559 725.433827 
L 1254.115816 1238.656968 
L 1266.498389 1238.656968 
L 1267.736646 725.433827 
L 1275.16619 725.433827 
L 1276.404447 1238.656968 
L 1292.501791 1238.656968 
L 1293.740049 725.433827 
L 1294.978306 1238.656968 
L 1312.313908 1238.656968 
L 1313.552165 725.433827 
L 1319.743451 725.433827 
L 1320.981709 1238.656968 
L 1340.793825 1238.656968 
L 1342.032082 725.433827 
L 1379.1798 725.433827 
L 1380.418057 1238.656968 
L 1394.038887 1238.656968 
L 1395.277145 725.433827 
L 1408.897975 725.433827 
L 1410.136232 1238.656968 
L 1412.612746 1238.656968 
L 1413.851004 725.433827 
L 1421.280547 725.433827 
L 1422.518805 1238.656968 
L 1431.186605 1238.656968 
L 1432.424863 725.433827 
L 1484.431668 725.433827 
L 1485.669925 1238.656968 
L 1501.76727 1238.656968 
L 1503.005527 725.433827 
L 1504.243784 725.433827 
L 1505.482041 1238.656968 
L 1519.102871 1238.656968 
L 1520.341129 725.433827 
L 1529.00893 725.433827 
L 1530.247187 1238.656968 
L 1543.868017 1238.656968 
L 1545.106274 725.433827 
L 1641.690341 725.433827 
L 1641.690341 725.433827 
" style="fill:none;stroke:#008000;stroke-linecap:square;stroke-width:1.5;"/>
   </g>
   <g id="patch_8">
    <path d="M 43.78125 1264.318125 
L 43.78125 699.77267 
" style="fill:none;stroke:#000000;stroke-linecap:square;stroke-linejoin:miter;stroke-width:0.8;"/>
   </g>
   <g id="patch_9">
    <path d="M 1717.78125 1264.318125 
L 1717.78125 699.77267 
" style="fill:none;stroke:#000000;stroke-linecap:square;stroke-linejoin:miter;stroke-width:0.8;"/>
   </g>
   <g id="patch_10">
    <path d="M 43.78125 1264.318125 
L 1717.78125 1264.318125 
" style="fill:none;stroke:#000000;stroke-linecap:square;stroke-linejoin:miter;stroke-width:0.8;"/>
   </g>
   <g id="patch_11">
    <path d="M 43.78125 699.77267 
L 1717.78125 699.77267 
" style="fill:none;stroke:#000000;stroke-linecap:square;stroke-linejoin:miter;stroke-width:0.8;"/>
   </g>
   <g id="text_31">
    <!-- before binarisation -->
    <g transform="translate(824.1825 693.77267)scale(0.12 -0.12)">
     <use xlink:href="#DejaVuSans-62"/>
     <use x="63.476562" xlink:href="#DejaVuSans-65"/>
     <use x="125" xlink:href="#DejaVuSans-66"/>
     <use x="160.205078" xlink:href="#DejaVuSans-6f"/>
     <use x="221.386719" xlink:href="#DejaVuSans-72"/>
     <use x="260.25" xlink:href="#DejaVuSans-65"/>
     <use x="321.773438" xlink:href="#DejaVuSans-20"/>
     <use x="353.560547" xlink:href="#DejaVuSans-62"/>
     <use x="417.037109" xlink:href="#DejaVuSans-69"/>
     <use x="444.820312" xlink:href="#DejaVuSans-6e"/>
     <use x="508.199219" xlink:href="#DejaVuSans-61"/>
     <use x="569.478516" xlink:href="#DejaVuSans-72"/>
     <use x="610.591797" xlink:href="#DejaVuSans-69"/>
     <use x="638.375" xlink:href="#DejaVuSans-73"/>
     <use x="690.474609" xlink:href="#DejaVuSans-61"/>
     <use x="751.753906" xlink:href="#DejaVuSans-74"/>
     <use x="790.962891" xlink:href="#DejaVuSans-69"/>
     <use x="818.746094" xlink:href="#DejaVuSans-6f"/>
     <use x="879.927734" xlink:href="#DejaVuSans-6e"/>
    </g>
   </g>
  </g>
 </g>
 <defs>
  <clipPath id="p3ed03731fc">
   <rect height="564.545455" width="1674" x="43.78125" y="22.318125"/>
  </clipPath>
  <clipPath id="p81ce0cd2a6">
   <rect height="564.545455" width="1674" x="43.78125" y="699.77267"/>
  </clipPath>
 </defs>
</svg>
