<?xml version="1.0" encoding="utf-8" standalone="no"?>
<!DOCTYPE svg PUBLIC "-//W3C//DTD SVG 1.1//EN"
  "http://www.w3.org/Graphics/SVG/1.1/DTD/svg11.dtd">
<svg height="1301.874375pt" version="1.1" viewBox="0 0 1731.34375 1301.874375" width="1731.34375pt" xmlns="http://www.w3.org/2000/svg" xmlns:xlink="http://www.w3.org/1999/xlink">
 <metadata>
  <rdf:RDF xmlns:cc="http://creativecommons.org/ns#" xmlns:dc="http://purl.org/dc/elements/1.1/" xmlns:rdf="http://www.w3.org/1999/02/22-rdf-syntax-ns#">
   <cc:Work>
    <dc:type rdf:resource="http://purl.org/dc/dcmitype/StillImage"/>
    <dc:date>2022-07-24T15:54:35.268286</dc:date>
    <dc:format>image/svg+xml</dc:format>
    <dc:creator>
     <cc:Agent>
      <dc:title>Matplotlib v3.4.2, https://matplotlib.org/</dc:title>
     </cc:Agent>
    </dc:creator>
   </cc:Work>
  </rdf:RDF>
 </metadata>
 <defs>
  <style type="text/css">*{stroke-linecap:butt;stroke-linejoin:round;}</style>
 </defs>
 <g id="figure_1">
  <g id="patch_1">
   <path d="M 0 1301.874375 
L 1731.34375 1301.874375 
L 1731.34375 0 
L 0 0 
z
" style="fill:#ffffff;"/>
  </g>
  <g id="axes_1">
   <g id="patch_2">
    <path d="M 50.14375 586.86358 
L 1724.14375 586.86358 
L 1724.14375 22.318125 
L 50.14375 22.318125 
z
" style="fill:#ffffff;"/>
   </g>
   <g id="matplotlib.axis_1">
    <g id="xtick_1">
     <g id="line2d_1">
      <defs>
       <path d="M 0 0 
L 0 3.5 
" id="m6446559864" style="stroke:#000000;stroke-width:0.8;"/>
      </defs>
      <g>
       <use style="stroke:#000000;stroke-width:0.8;" x="126.234659" xlink:href="#m6446559864" y="586.86358"/>
      </g>
     </g>
     <g id="text_1">
      <!-- 0 -->
      <g transform="translate(123.053409 601.462017)scale(0.1 -0.1)">
       <defs>
        <path d="M 2034 4250 
Q 1547 4250 1301 3770 
Q 1056 3291 1056 2328 
Q 1056 1369 1301 889 
Q 1547 409 2034 409 
Q 2525 409 2770 889 
Q 3016 1369 3016 2328 
Q 3016 3291 2770 3770 
Q 2525 4250 2034 4250 
z
M 2034 4750 
Q 2819 4750 3233 4129 
Q 3647 3509 3647 2328 
Q 3647 1150 3233 529 
Q 2819 -91 2034 -91 
Q 1250 -91 836 529 
Q 422 1150 422 2328 
Q 422 3509 836 4129 
Q 1250 4750 2034 4750 
z
" id="DejaVuSans-30" transform="scale(0.015625)"/>
       </defs>
       <use xlink:href="#DejaVuSans-30"/>
      </g>
     </g>
    </g>
    <g id="xtick_2">
     <g id="line2d_2">
      <g>
       <use style="stroke:#000000;stroke-width:0.8;" x="373.886113" xlink:href="#m6446559864" y="586.86358"/>
      </g>
     </g>
     <g id="text_2">
      <!-- 200 -->
      <g transform="translate(364.342363 601.462017)scale(0.1 -0.1)">
       <defs>
        <path d="M 1228 531 
L 3431 531 
L 3431 0 
L 469 0 
L 469 531 
Q 828 903 1448 1529 
Q 2069 2156 2228 2338 
Q 2531 2678 2651 2914 
Q 2772 3150 2772 3378 
Q 2772 3750 2511 3984 
Q 2250 4219 1831 4219 
Q 1534 4219 1204 4116 
Q 875 4013 500 3803 
L 500 4441 
Q 881 4594 1212 4672 
Q 1544 4750 1819 4750 
Q 2544 4750 2975 4387 
Q 3406 4025 3406 3419 
Q 3406 3131 3298 2873 
Q 3191 2616 2906 2266 
Q 2828 2175 2409 1742 
Q 1991 1309 1228 531 
z
" id="DejaVuSans-32" transform="scale(0.015625)"/>
       </defs>
       <use xlink:href="#DejaVuSans-32"/>
       <use x="63.623047" xlink:href="#DejaVuSans-30"/>
       <use x="127.246094" xlink:href="#DejaVuSans-30"/>
      </g>
     </g>
    </g>
    <g id="xtick_3">
     <g id="line2d_3">
      <g>
       <use style="stroke:#000000;stroke-width:0.8;" x="621.537566" xlink:href="#m6446559864" y="586.86358"/>
      </g>
     </g>
     <g id="text_3">
      <!-- 400 -->
      <g transform="translate(611.993816 601.462017)scale(0.1 -0.1)">
       <defs>
        <path d="M 2419 4116 
L 825 1625 
L 2419 1625 
L 2419 4116 
z
M 2253 4666 
L 3047 4666 
L 3047 1625 
L 3713 1625 
L 3713 1100 
L 3047 1100 
L 3047 0 
L 2419 0 
L 2419 1100 
L 313 1100 
L 313 1709 
L 2253 4666 
z
" id="DejaVuSans-34" transform="scale(0.015625)"/>
       </defs>
       <use xlink:href="#DejaVuSans-34"/>
       <use x="63.623047" xlink:href="#DejaVuSans-30"/>
       <use x="127.246094" xlink:href="#DejaVuSans-30"/>
      </g>
     </g>
    </g>
    <g id="xtick_4">
     <g id="line2d_4">
      <g>
       <use style="stroke:#000000;stroke-width:0.8;" x="869.18902" xlink:href="#m6446559864" y="586.86358"/>
      </g>
     </g>
     <g id="text_4">
      <!-- 600 -->
      <g transform="translate(859.64527 601.462017)scale(0.1 -0.1)">
       <defs>
        <path d="M 2113 2584 
Q 1688 2584 1439 2293 
Q 1191 2003 1191 1497 
Q 1191 994 1439 701 
Q 1688 409 2113 409 
Q 2538 409 2786 701 
Q 3034 994 3034 1497 
Q 3034 2003 2786 2293 
Q 2538 2584 2113 2584 
z
M 3366 4563 
L 3366 3988 
Q 3128 4100 2886 4159 
Q 2644 4219 2406 4219 
Q 1781 4219 1451 3797 
Q 1122 3375 1075 2522 
Q 1259 2794 1537 2939 
Q 1816 3084 2150 3084 
Q 2853 3084 3261 2657 
Q 3669 2231 3669 1497 
Q 3669 778 3244 343 
Q 2819 -91 2113 -91 
Q 1303 -91 875 529 
Q 447 1150 447 2328 
Q 447 3434 972 4092 
Q 1497 4750 2381 4750 
Q 2619 4750 2861 4703 
Q 3103 4656 3366 4563 
z
" id="DejaVuSans-36" transform="scale(0.015625)"/>
       </defs>
       <use xlink:href="#DejaVuSans-36"/>
       <use x="63.623047" xlink:href="#DejaVuSans-30"/>
       <use x="127.246094" xlink:href="#DejaVuSans-30"/>
      </g>
     </g>
    </g>
    <g id="xtick_5">
     <g id="line2d_5">
      <g>
       <use style="stroke:#000000;stroke-width:0.8;" x="1116.840473" xlink:href="#m6446559864" y="586.86358"/>
      </g>
     </g>
     <g id="text_5">
      <!-- 800 -->
      <g transform="translate(1107.296723 601.462017)scale(0.1 -0.1)">
       <defs>
        <path d="M 2034 2216 
Q 1584 2216 1326 1975 
Q 1069 1734 1069 1313 
Q 1069 891 1326 650 
Q 1584 409 2034 409 
Q 2484 409 2743 651 
Q 3003 894 3003 1313 
Q 3003 1734 2745 1975 
Q 2488 2216 2034 2216 
z
M 1403 2484 
Q 997 2584 770 2862 
Q 544 3141 544 3541 
Q 544 4100 942 4425 
Q 1341 4750 2034 4750 
Q 2731 4750 3128 4425 
Q 3525 4100 3525 3541 
Q 3525 3141 3298 2862 
Q 3072 2584 2669 2484 
Q 3125 2378 3379 2068 
Q 3634 1759 3634 1313 
Q 3634 634 3220 271 
Q 2806 -91 2034 -91 
Q 1263 -91 848 271 
Q 434 634 434 1313 
Q 434 1759 690 2068 
Q 947 2378 1403 2484 
z
M 1172 3481 
Q 1172 3119 1398 2916 
Q 1625 2713 2034 2713 
Q 2441 2713 2670 2916 
Q 2900 3119 2900 3481 
Q 2900 3844 2670 4047 
Q 2441 4250 2034 4250 
Q 1625 4250 1398 4047 
Q 1172 3844 1172 3481 
z
" id="DejaVuSans-38" transform="scale(0.015625)"/>
       </defs>
       <use xlink:href="#DejaVuSans-38"/>
       <use x="63.623047" xlink:href="#DejaVuSans-30"/>
       <use x="127.246094" xlink:href="#DejaVuSans-30"/>
      </g>
     </g>
    </g>
    <g id="xtick_6">
     <g id="line2d_6">
      <g>
       <use style="stroke:#000000;stroke-width:0.8;" x="1364.491927" xlink:href="#m6446559864" y="586.86358"/>
      </g>
     </g>
     <g id="text_6">
      <!-- 1000 -->
      <g transform="translate(1351.766927 601.462017)scale(0.1 -0.1)">
       <defs>
        <path d="M 794 531 
L 1825 531 
L 1825 4091 
L 703 3866 
L 703 4441 
L 1819 4666 
L 2450 4666 
L 2450 531 
L 3481 531 
L 3481 0 
L 794 0 
L 794 531 
z
" id="DejaVuSans-31" transform="scale(0.015625)"/>
       </defs>
       <use xlink:href="#DejaVuSans-31"/>
       <use x="63.623047" xlink:href="#DejaVuSans-30"/>
       <use x="127.246094" xlink:href="#DejaVuSans-30"/>
       <use x="190.869141" xlink:href="#DejaVuSans-30"/>
      </g>
     </g>
    </g>
    <g id="xtick_7">
     <g id="line2d_7">
      <g>
       <use style="stroke:#000000;stroke-width:0.8;" x="1612.14338" xlink:href="#m6446559864" y="586.86358"/>
      </g>
     </g>
     <g id="text_7">
      <!-- 1200 -->
      <g transform="translate(1599.41838 601.462017)scale(0.1 -0.1)">
       <use xlink:href="#DejaVuSans-31"/>
       <use x="63.623047" xlink:href="#DejaVuSans-32"/>
       <use x="127.246094" xlink:href="#DejaVuSans-30"/>
       <use x="190.869141" xlink:href="#DejaVuSans-30"/>
      </g>
     </g>
    </g>
    <g id="text_8">
     <!-- frame -->
     <g transform="translate(872.317187 615.140142)scale(0.1 -0.1)">
      <defs>
       <path d="M 2375 4863 
L 2375 4384 
L 1825 4384 
Q 1516 4384 1395 4259 
Q 1275 4134 1275 3809 
L 1275 3500 
L 2222 3500 
L 2222 3053 
L 1275 3053 
L 1275 0 
L 697 0 
L 697 3053 
L 147 3053 
L 147 3500 
L 697 3500 
L 697 3744 
Q 697 4328 969 4595 
Q 1241 4863 1831 4863 
L 2375 4863 
z
" id="DejaVuSans-66" transform="scale(0.015625)"/>
       <path d="M 2631 2963 
Q 2534 3019 2420 3045 
Q 2306 3072 2169 3072 
Q 1681 3072 1420 2755 
Q 1159 2438 1159 1844 
L 1159 0 
L 581 0 
L 581 3500 
L 1159 3500 
L 1159 2956 
Q 1341 3275 1631 3429 
Q 1922 3584 2338 3584 
Q 2397 3584 2469 3576 
Q 2541 3569 2628 3553 
L 2631 2963 
z
" id="DejaVuSans-72" transform="scale(0.015625)"/>
       <path d="M 2194 1759 
Q 1497 1759 1228 1600 
Q 959 1441 959 1056 
Q 959 750 1161 570 
Q 1363 391 1709 391 
Q 2188 391 2477 730 
Q 2766 1069 2766 1631 
L 2766 1759 
L 2194 1759 
z
M 3341 1997 
L 3341 0 
L 2766 0 
L 2766 531 
Q 2569 213 2275 61 
Q 1981 -91 1556 -91 
Q 1019 -91 701 211 
Q 384 513 384 1019 
Q 384 1609 779 1909 
Q 1175 2209 1959 2209 
L 2766 2209 
L 2766 2266 
Q 2766 2663 2505 2880 
Q 2244 3097 1772 3097 
Q 1472 3097 1187 3025 
Q 903 2953 641 2809 
L 641 3341 
Q 956 3463 1253 3523 
Q 1550 3584 1831 3584 
Q 2591 3584 2966 3190 
Q 3341 2797 3341 1997 
z
" id="DejaVuSans-61" transform="scale(0.015625)"/>
       <path d="M 3328 2828 
Q 3544 3216 3844 3400 
Q 4144 3584 4550 3584 
Q 5097 3584 5394 3201 
Q 5691 2819 5691 2113 
L 5691 0 
L 5113 0 
L 5113 2094 
Q 5113 2597 4934 2840 
Q 4756 3084 4391 3084 
Q 3944 3084 3684 2787 
Q 3425 2491 3425 1978 
L 3425 0 
L 2847 0 
L 2847 2094 
Q 2847 2600 2669 2842 
Q 2491 3084 2119 3084 
Q 1678 3084 1418 2786 
Q 1159 2488 1159 1978 
L 1159 0 
L 581 0 
L 581 3500 
L 1159 3500 
L 1159 2956 
Q 1356 3278 1631 3431 
Q 1906 3584 2284 3584 
Q 2666 3584 2933 3390 
Q 3200 3197 3328 2828 
z
" id="DejaVuSans-6d" transform="scale(0.015625)"/>
       <path d="M 3597 1894 
L 3597 1613 
L 953 1613 
Q 991 1019 1311 708 
Q 1631 397 2203 397 
Q 2534 397 2845 478 
Q 3156 559 3463 722 
L 3463 178 
Q 3153 47 2828 -22 
Q 2503 -91 2169 -91 
Q 1331 -91 842 396 
Q 353 884 353 1716 
Q 353 2575 817 3079 
Q 1281 3584 2069 3584 
Q 2775 3584 3186 3129 
Q 3597 2675 3597 1894 
z
M 3022 2063 
Q 3016 2534 2758 2815 
Q 2500 3097 2075 3097 
Q 1594 3097 1305 2825 
Q 1016 2553 972 2059 
L 3022 2063 
z
" id="DejaVuSans-65" transform="scale(0.015625)"/>
      </defs>
      <use xlink:href="#DejaVuSans-66"/>
      <use x="35.205078" xlink:href="#DejaVuSans-72"/>
      <use x="76.318359" xlink:href="#DejaVuSans-61"/>
      <use x="137.597656" xlink:href="#DejaVuSans-6d"/>
      <use x="235.009766" xlink:href="#DejaVuSans-65"/>
     </g>
    </g>
   </g>
   <g id="matplotlib.axis_2">
    <g id="ytick_1">
     <g id="line2d_8">
      <defs>
       <path d="M 0 0 
L -3.5 0 
" id="m62fccdc329" style="stroke:#000000;stroke-width:0.8;"/>
      </defs>
      <g>
       <use style="stroke:#000000;stroke-width:0.8;" x="50.14375" xlink:href="#m62fccdc329" y="570.864917"/>
      </g>
     </g>
     <g id="text_9">
      <!-- 0.50 -->
      <g transform="translate(20.878125 574.664136)scale(0.1 -0.1)">
       <defs>
        <path d="M 684 794 
L 1344 794 
L 1344 0 
L 684 0 
L 684 794 
z
" id="DejaVuSans-2e" transform="scale(0.015625)"/>
        <path d="M 691 4666 
L 3169 4666 
L 3169 4134 
L 1269 4134 
L 1269 2991 
Q 1406 3038 1543 3061 
Q 1681 3084 1819 3084 
Q 2600 3084 3056 2656 
Q 3513 2228 3513 1497 
Q 3513 744 3044 326 
Q 2575 -91 1722 -91 
Q 1428 -91 1123 -41 
Q 819 9 494 109 
L 494 744 
Q 775 591 1075 516 
Q 1375 441 1709 441 
Q 2250 441 2565 725 
Q 2881 1009 2881 1497 
Q 2881 1984 2565 2268 
Q 2250 2553 1709 2553 
Q 1456 2553 1204 2497 
Q 953 2441 691 2322 
L 691 4666 
z
" id="DejaVuSans-35" transform="scale(0.015625)"/>
       </defs>
       <use xlink:href="#DejaVuSans-30"/>
       <use x="63.623047" xlink:href="#DejaVuSans-2e"/>
       <use x="95.410156" xlink:href="#DejaVuSans-35"/>
       <use x="159.033203" xlink:href="#DejaVuSans-30"/>
      </g>
     </g>
    </g>
    <g id="ytick_2">
     <g id="line2d_9">
      <g>
       <use style="stroke:#000000;stroke-width:0.8;" x="50.14375" xlink:href="#m62fccdc329" y="493.387659"/>
      </g>
     </g>
     <g id="text_10">
      <!-- 0.75 -->
      <g transform="translate(20.878125 497.186878)scale(0.1 -0.1)">
       <defs>
        <path d="M 525 4666 
L 3525 4666 
L 3525 4397 
L 1831 0 
L 1172 0 
L 2766 4134 
L 525 4134 
L 525 4666 
z
" id="DejaVuSans-37" transform="scale(0.015625)"/>
       </defs>
       <use xlink:href="#DejaVuSans-30"/>
       <use x="63.623047" xlink:href="#DejaVuSans-2e"/>
       <use x="95.410156" xlink:href="#DejaVuSans-37"/>
       <use x="159.033203" xlink:href="#DejaVuSans-35"/>
      </g>
     </g>
    </g>
    <g id="ytick_3">
     <g id="line2d_10">
      <g>
       <use style="stroke:#000000;stroke-width:0.8;" x="50.14375" xlink:href="#m62fccdc329" y="415.910401"/>
      </g>
     </g>
     <g id="text_11">
      <!-- 1.00 -->
      <g transform="translate(20.878125 419.70962)scale(0.1 -0.1)">
       <use xlink:href="#DejaVuSans-31"/>
       <use x="63.623047" xlink:href="#DejaVuSans-2e"/>
       <use x="95.410156" xlink:href="#DejaVuSans-30"/>
       <use x="159.033203" xlink:href="#DejaVuSans-30"/>
      </g>
     </g>
    </g>
    <g id="ytick_4">
     <g id="line2d_11">
      <g>
       <use style="stroke:#000000;stroke-width:0.8;" x="50.14375" xlink:href="#m62fccdc329" y="338.433143"/>
      </g>
     </g>
     <g id="text_12">
      <!-- 1.25 -->
      <g transform="translate(20.878125 342.232361)scale(0.1 -0.1)">
       <use xlink:href="#DejaVuSans-31"/>
       <use x="63.623047" xlink:href="#DejaVuSans-2e"/>
       <use x="95.410156" xlink:href="#DejaVuSans-32"/>
       <use x="159.033203" xlink:href="#DejaVuSans-35"/>
      </g>
     </g>
    </g>
    <g id="ytick_5">
     <g id="line2d_12">
      <g>
       <use style="stroke:#000000;stroke-width:0.8;" x="50.14375" xlink:href="#m62fccdc329" y="260.955884"/>
      </g>
     </g>
     <g id="text_13">
      <!-- 1.50 -->
      <g transform="translate(20.878125 264.755103)scale(0.1 -0.1)">
       <use xlink:href="#DejaVuSans-31"/>
       <use x="63.623047" xlink:href="#DejaVuSans-2e"/>
       <use x="95.410156" xlink:href="#DejaVuSans-35"/>
       <use x="159.033203" xlink:href="#DejaVuSans-30"/>
      </g>
     </g>
    </g>
    <g id="ytick_6">
     <g id="line2d_13">
      <g>
       <use style="stroke:#000000;stroke-width:0.8;" x="50.14375" xlink:href="#m62fccdc329" y="183.478626"/>
      </g>
     </g>
     <g id="text_14">
      <!-- 1.75 -->
      <g transform="translate(20.878125 187.277845)scale(0.1 -0.1)">
       <use xlink:href="#DejaVuSans-31"/>
       <use x="63.623047" xlink:href="#DejaVuSans-2e"/>
       <use x="95.410156" xlink:href="#DejaVuSans-37"/>
       <use x="159.033203" xlink:href="#DejaVuSans-35"/>
      </g>
     </g>
    </g>
    <g id="ytick_7">
     <g id="line2d_14">
      <g>
       <use style="stroke:#000000;stroke-width:0.8;" x="50.14375" xlink:href="#m62fccdc329" y="106.001368"/>
      </g>
     </g>
     <g id="text_15">
      <!-- 2.00 -->
      <g transform="translate(20.878125 109.800587)scale(0.1 -0.1)">
       <use xlink:href="#DejaVuSans-32"/>
       <use x="63.623047" xlink:href="#DejaVuSans-2e"/>
       <use x="95.410156" xlink:href="#DejaVuSans-30"/>
       <use x="159.033203" xlink:href="#DejaVuSans-30"/>
      </g>
     </g>
    </g>
    <g id="ytick_8">
     <g id="line2d_15">
      <g>
       <use style="stroke:#000000;stroke-width:0.8;" x="50.14375" xlink:href="#m62fccdc329" y="28.52411"/>
      </g>
     </g>
     <g id="text_16">
      <!-- 2.25 -->
      <g transform="translate(20.878125 32.323328)scale(0.1 -0.1)">
       <use xlink:href="#DejaVuSans-32"/>
       <use x="63.623047" xlink:href="#DejaVuSans-2e"/>
       <use x="95.410156" xlink:href="#DejaVuSans-32"/>
       <use x="159.033203" xlink:href="#DejaVuSans-35"/>
      </g>
     </g>
    </g>
    <g id="text_17">
     <!-- GCaMP -->
     <g transform="translate(14.798438 322.349446)rotate(-90)scale(0.1 -0.1)">
      <defs>
       <path d="M 3809 666 
L 3809 1919 
L 2778 1919 
L 2778 2438 
L 4434 2438 
L 4434 434 
Q 4069 175 3628 42 
Q 3188 -91 2688 -91 
Q 1594 -91 976 548 
Q 359 1188 359 2328 
Q 359 3472 976 4111 
Q 1594 4750 2688 4750 
Q 3144 4750 3555 4637 
Q 3966 4525 4313 4306 
L 4313 3634 
Q 3963 3931 3569 4081 
Q 3175 4231 2741 4231 
Q 1884 4231 1454 3753 
Q 1025 3275 1025 2328 
Q 1025 1384 1454 906 
Q 1884 428 2741 428 
Q 3075 428 3337 486 
Q 3600 544 3809 666 
z
" id="DejaVuSans-47" transform="scale(0.015625)"/>
       <path d="M 4122 4306 
L 4122 3641 
Q 3803 3938 3442 4084 
Q 3081 4231 2675 4231 
Q 1875 4231 1450 3742 
Q 1025 3253 1025 2328 
Q 1025 1406 1450 917 
Q 1875 428 2675 428 
Q 3081 428 3442 575 
Q 3803 722 4122 1019 
L 4122 359 
Q 3791 134 3420 21 
Q 3050 -91 2638 -91 
Q 1578 -91 968 557 
Q 359 1206 359 2328 
Q 359 3453 968 4101 
Q 1578 4750 2638 4750 
Q 3056 4750 3426 4639 
Q 3797 4528 4122 4306 
z
" id="DejaVuSans-43" transform="scale(0.015625)"/>
       <path d="M 628 4666 
L 1569 4666 
L 2759 1491 
L 3956 4666 
L 4897 4666 
L 4897 0 
L 4281 0 
L 4281 4097 
L 3078 897 
L 2444 897 
L 1241 4097 
L 1241 0 
L 628 0 
L 628 4666 
z
" id="DejaVuSans-4d" transform="scale(0.015625)"/>
       <path d="M 1259 4147 
L 1259 2394 
L 2053 2394 
Q 2494 2394 2734 2622 
Q 2975 2850 2975 3272 
Q 2975 3691 2734 3919 
Q 2494 4147 2053 4147 
L 1259 4147 
z
M 628 4666 
L 2053 4666 
Q 2838 4666 3239 4311 
Q 3641 3956 3641 3272 
Q 3641 2581 3239 2228 
Q 2838 1875 2053 1875 
L 1259 1875 
L 1259 0 
L 628 0 
L 628 4666 
z
" id="DejaVuSans-50" transform="scale(0.015625)"/>
      </defs>
      <use xlink:href="#DejaVuSans-47"/>
      <use x="77.490234" xlink:href="#DejaVuSans-43"/>
      <use x="147.314453" xlink:href="#DejaVuSans-61"/>
      <use x="208.59375" xlink:href="#DejaVuSans-4d"/>
      <use x="294.873047" xlink:href="#DejaVuSans-50"/>
     </g>
    </g>
   </g>
   <g id="line2d_16">
    <path clip-path="url(#p1aeb876208)" d="M 126.234659 561.202423 
L 129.949431 551.179346 
L 131.187688 548.827629 
L 132.425945 547.555094 
L 133.664203 547.819222 
L 134.90246 549.787797 
L 136.140717 552.736809 
L 137.378974 555.320047 
L 138.617232 556.376368 
L 139.855489 555.445596 
L 141.093746 552.921372 
L 142.332004 549.860981 
L 143.570261 547.443048 
L 144.808518 546.47746 
L 146.046775 547.16277 
L 147.285033 549.122309 
L 149.761547 554.354148 
L 150.999804 556.500697 
L 152.238062 557.930763 
L 153.476319 558.671645 
L 154.714576 558.921674 
L 155.952834 558.878618 
L 157.191091 558.515973 
L 158.429348 557.680585 
L 160.905863 555.036334 
L 163.382377 552.60459 
L 164.620634 551.430784 
L 165.858892 550.076539 
L 167.097149 548.403847 
L 169.573663 544.406539 
L 170.811921 543.576691 
L 172.050178 544.335666 
L 174.526693 547.694221 
L 175.76495 548.713986 
L 177.003207 549.196939 
L 179.479722 549.810696 
L 180.717979 549.631254 
L 181.956236 548.366642 
L 183.194493 546.257116 
L 184.432751 544.629304 
L 185.671008 544.612227 
L 186.909265 546.069758 
L 188.147522 548.114853 
L 189.38578 549.882076 
L 190.624037 550.639978 
L 191.862294 550.054771 
L 193.100552 548.479786 
L 194.338809 546.67159 
L 195.577066 545.188523 
L 196.815323 544.104574 
L 198.053581 543.428502 
L 199.291838 543.352836 
L 200.530095 543.917934 
L 201.768352 544.973213 
L 204.244867 547.655948 
L 205.483124 548.432004 
L 206.721381 548.241305 
L 207.959639 547.180721 
L 209.197896 545.81519 
L 210.436153 544.729922 
L 211.674411 544.305622 
L 212.912668 544.722951 
L 214.150925 545.957012 
L 216.62744 549.741542 
L 217.865697 551.110926 
L 219.103954 551.140836 
L 220.342211 549.423524 
L 222.818726 543.242767 
L 224.056983 541.355791 
L 225.29524 541.083632 
L 227.771755 542.586916 
L 229.010012 542.648796 
L 230.24827 541.614665 
L 232.724784 537.760519 
L 233.963041 536.652095 
L 235.201299 537.108016 
L 236.439556 539.285179 
L 238.91607 545.497412 
L 240.154328 547.427078 
L 241.392585 548.066155 
L 242.630842 547.757945 
L 243.8691 547.211814 
L 245.107357 547.267936 
L 246.345614 548.39168 
L 247.583871 550.196597 
L 248.822129 551.58463 
L 250.060386 551.564224 
L 251.298643 549.924206 
L 252.5369 547.075126 
L 253.775158 543.483568 
L 256.251672 535.877275 
L 257.489929 533.423665 
L 258.728187 532.832722 
L 259.966444 533.836934 
L 262.442959 537.184353 
L 263.681216 538.592812 
L 264.919473 539.468755 
L 266.15773 539.681903 
L 267.395988 539.759343 
L 268.634245 540.244126 
L 269.872502 540.864462 
L 271.110759 540.914728 
L 272.349017 539.996202 
L 273.587274 538.208838 
L 277.302046 531.442056 
L 278.540303 530.576815 
L 279.77856 531.016201 
L 281.016818 532.067345 
L 282.255075 532.600805 
L 283.493332 532.175702 
L 284.731589 531.409888 
L 285.969847 531.054835 
L 287.208104 531.215008 
L 288.446361 531.495497 
L 289.684618 531.617152 
L 290.922876 531.861113 
L 293.39939 533.403592 
L 294.637647 533.573191 
L 297.114162 532.574569 
L 298.352419 532.93207 
L 299.590677 534.004954 
L 300.828934 534.786516 
L 302.067191 534.353231 
L 303.305448 532.765815 
L 304.543706 530.913109 
L 305.781963 529.54345 
L 308.258477 527.593904 
L 309.496735 526.265181 
L 310.734992 525.12494 
L 311.973249 525.120737 
L 313.211506 526.674538 
L 314.449764 528.993173 
L 315.688021 530.709987 
L 316.926278 531.150319 
L 319.402793 530.504519 
L 320.64105 530.508542 
L 321.879307 530.04978 
L 323.117565 528.333943 
L 324.355822 525.354167 
L 325.594079 522.026619 
L 326.832336 519.544231 
L 328.070594 518.482058 
L 329.308851 518.810947 
L 330.547108 520.482197 
L 331.785366 523.423998 
L 335.500137 535.067691 
L 336.738395 537.366023 
L 337.976652 537.908229 
L 339.214909 536.966665 
L 340.453166 535.441812 
L 341.691424 534.523231 
L 342.929681 534.878622 
L 344.167938 536.075686 
L 345.406195 536.956283 
L 346.644453 536.467975 
L 347.88271 534.337882 
L 350.359225 527.85696 
L 351.597482 525.217835 
L 352.835739 523.965816 
L 354.073996 524.5626 
L 356.550511 528.385866 
L 357.788768 528.896484 
L 359.027025 527.935298 
L 361.50354 524.688215 
L 362.741797 523.851903 
L 363.980054 523.775813 
L 365.218312 524.205555 
L 366.456569 524.780099 
L 367.694826 525.061786 
L 370.171341 524.835024 
L 371.409598 524.895083 
L 372.647855 524.707786 
L 373.886113 523.771027 
L 375.12437 522.301596 
L 376.362627 521.197369 
L 377.600884 520.925078 
L 378.839142 521.007566 
L 380.077399 520.976473 
L 381.315656 521.076443 
L 382.553913 521.78229 
L 383.792171 523.198148 
L 387.506943 528.837937 
L 388.7452 529.989743 
L 389.983457 530.411971 
L 391.221714 529.939665 
L 392.459972 528.50211 
L 397.413001 520.359351 
L 398.651258 518.824873 
L 399.889515 517.949766 
L 401.127772 517.489171 
L 402.36603 516.75375 
L 403.604287 515.20637 
L 404.842544 512.81481 
L 406.080802 510.093312 
L 407.319059 508.100583 
L 408.557316 507.827834 
L 409.795573 509.381749 
L 411.033831 511.943541 
L 412.272088 514.24321 
L 413.510345 515.24357 
L 414.748602 514.767813 
L 415.98686 513.543046 
L 417.225117 512.715924 
L 418.463374 513.025366 
L 420.939889 515.187486 
L 422.178146 515.549849 
L 423.416403 515.440917 
L 424.654661 515.505963 
L 425.892918 516.314398 
L 428.369432 519.512048 
L 429.60769 520.548312 
L 430.845947 520.557336 
L 432.084204 519.541076 
L 433.322461 517.682394 
L 434.560719 515.009064 
L 437.037233 508.074913 
L 438.275491 505.429198 
L 439.513748 504.369463 
L 440.752005 504.977369 
L 441.990262 506.810969 
L 444.466777 511.80599 
L 445.705034 513.933627 
L 446.943291 515.310941 
L 448.181549 515.890688 
L 450.658063 515.892481 
L 451.89632 516.206444 
L 453.134578 516.758744 
L 454.372835 517.03894 
L 455.611092 516.793692 
L 456.84935 516.133109 
L 458.087607 515.045748 
L 459.325864 513.214486 
L 460.564121 510.414264 
L 461.802379 507.151976 
L 463.040636 504.490067 
L 464.278893 502.896826 
L 465.51715 502.015499 
L 466.755408 501.705805 
L 467.993665 502.496509 
L 469.231922 504.906307 
L 470.470179 508.707343 
L 471.708437 512.994932 
L 472.946694 516.614837 
L 474.184951 518.366032 
L 475.423209 517.587401 
L 477.899723 512.052165 
L 479.13798 510.231351 
L 480.376238 509.72627 
L 481.614495 510.000648 
L 482.852752 510.480363 
L 484.091009 511.23687 
L 485.329267 512.866077 
L 486.567524 515.578648 
L 487.805781 518.798812 
L 489.044038 521.538699 
L 490.282296 522.797136 
L 491.520553 521.939337 
L 492.75881 519.038179 
L 496.473582 506.765856 
L 497.711839 503.852431 
L 498.950097 502.007951 
L 500.188354 501.339904 
L 501.426611 501.279012 
L 502.664868 500.779307 
L 503.903126 499.328525 
L 506.37964 495.302099 
L 507.617897 494.335574 
L 508.856155 494.621369 
L 511.332669 496.687949 
L 512.570927 497.394691 
L 513.809184 497.668725 
L 515.047441 497.33381 
L 516.285698 496.306866 
L 518.762213 493.28339 
L 520.00047 492.051483 
L 521.238727 491.362785 
L 522.476985 491.347031 
L 523.715242 491.992943 
L 524.953499 492.853082 
L 526.191757 493.223694 
L 527.430014 492.745883 
L 528.668271 491.67749 
L 529.906528 490.80506 
L 531.144786 491.065807 
L 532.383043 492.932217 
L 533.6213 496.061005 
L 534.859557 499.556165 
L 536.097815 502.544543 
L 537.336072 504.596768 
L 538.574329 505.684819 
L 539.812586 505.873156 
L 541.050844 505.347691 
L 543.527358 503.64271 
L 546.003873 501.397831 
L 547.24213 500.859287 
L 548.480387 501.505036 
L 550.956902 504.377702 
L 552.195159 504.591897 
L 553.433416 503.239415 
L 555.909931 498.431887 
L 557.148188 496.774679 
L 558.386445 495.916089 
L 559.624703 495.643339 
L 560.86296 495.719797 
L 562.101217 495.917666 
L 563.339475 495.85034 
L 564.577732 494.953916 
L 565.815989 492.964423 
L 568.292504 487.791678 
L 569.530761 486.374324 
L 570.769018 486.097434 
L 573.245533 486.606425 
L 574.48379 486.070205 
L 575.722047 484.284838 
L 578.198562 479.138389 
L 579.436819 477.65162 
L 580.675076 477.414778 
L 581.913334 478.856331 
L 584.389848 485.249271 
L 585.628105 487.358325 
L 586.866363 488.297271 
L 588.10462 489.011811 
L 589.342877 489.878895 
L 590.581134 489.824905 
L 591.819392 487.152222 
L 593.057649 481.711514 
L 594.295906 475.445469 
L 595.534163 470.542509 
L 596.772421 468.036169 
L 598.010678 468.020837 
L 599.248935 470.036768 
L 602.963707 479.65693 
L 604.201964 482.004743 
L 605.440222 482.915869 
L 606.678479 482.328124 
L 609.154993 479.472054 
L 610.393251 478.343512 
L 612.869765 476.476062 
L 615.34628 474.000593 
L 616.584537 472.778197 
L 617.822794 471.892482 
L 620.299309 470.998161 
L 621.537566 470.644081 
L 622.775823 471.249087 
L 624.014081 473.709541 
L 626.490595 481.122378 
L 627.728852 483.203239 
L 628.96711 483.123812 
L 630.205367 480.866558 
L 631.443624 476.997865 
L 633.920139 467.828453 
L 635.158396 464.507336 
L 636.396653 462.814588 
L 637.634911 462.420448 
L 638.873168 462.851673 
L 640.111425 463.929332 
L 641.349682 465.613758 
L 642.58794 467.942674 
L 643.826197 471.042399 
L 646.302711 478.536655 
L 647.540969 481.189934 
L 648.779226 482.009535 
L 650.017483 480.6841 
L 651.255741 477.000388 
L 652.493998 470.903681 
L 653.732255 462.943922 
L 656.20877 445.72505 
L 657.447027 438.534185 
L 658.685284 433.239572 
L 659.923541 429.884739 
L 661.161799 427.896894 
L 663.638313 425.0359 
L 664.87657 423.294406 
L 666.114828 420.696668 
L 667.353085 416.316307 
L 668.591342 409.035836 
L 669.8296 397.908618 
L 673.544371 353.23842 
L 674.782629 343.02261 
L 676.020886 336.270192 
L 677.259143 330.838904 
L 678.4974 324.637201 
L 679.735658 316.68383 
L 683.450429 287.004391 
L 684.688687 279.826035 
L 685.926944 276.355206 
L 687.165201 276.444189 
L 688.403459 278.7628 
L 689.641716 282.71169 
L 690.879973 288.716861 
L 692.11823 296.686213 
L 695.833002 323.201029 
L 697.071259 330.023158 
L 698.309517 334.008012 
L 699.547774 334.18606 
L 700.786031 330.596448 
L 702.024289 323.494866 
L 703.262546 313.076324 
L 705.73906 288.996893 
L 706.977318 280.788705 
L 708.215575 277.443222 
L 709.453832 278.753997 
L 710.692089 282.622209 
L 711.930347 285.401327 
L 713.168604 283.61307 
L 714.406861 275.834981 
L 718.121633 239.491371 
L 719.35989 231.258322 
L 720.598148 225.437645 
L 721.836405 221.99032 
L 723.074662 220.644609 
L 724.312919 220.107713 
L 725.551177 218.907871 
L 726.789434 216.459323 
L 728.027691 213.415124 
L 729.265948 211.59089 
L 730.504206 213.152022 
L 731.742463 219.162441 
L 735.457235 247.012896 
L 737.933749 261.066274 
L 739.172007 269.782963 
L 740.410264 281.720891 
L 741.648521 295.400311 
L 742.886778 307.762012 
L 744.125036 317.069461 
L 745.363293 323.747845 
L 746.60155 328.673029 
L 747.839807 332.037735 
L 749.078065 334.118599 
L 750.316322 335.721719 
L 751.554579 337.519757 
L 752.792836 340.015221 
L 754.031094 343.750032 
L 755.269351 348.687772 
L 757.745866 359.730249 
L 758.984123 364.582213 
L 760.22238 368.468686 
L 761.460637 371.970301 
L 762.698895 376.040502 
L 766.413666 391.371264 
L 767.651924 395.175647 
L 768.890181 397.227418 
L 770.128438 397.149656 
L 771.366695 395.393128 
L 772.604953 393.405805 
L 773.84321 392.756331 
L 775.081467 393.945931 
L 776.319725 396.279333 
L 777.557982 398.95123 
L 778.796239 401.91102 
L 780.034496 405.473535 
L 781.272754 409.693609 
L 784.987525 423.549274 
L 786.225783 425.431634 
L 787.46404 424.369109 
L 789.940554 418.55709 
L 791.178812 416.225348 
L 792.417069 414.35877 
L 793.655326 413.354379 
L 794.893584 414.186159 
L 796.131841 416.970222 
L 797.370098 420.459267 
L 798.608355 423.299024 
L 799.846613 425.015171 
L 801.08487 425.952766 
L 802.323127 427.079345 
L 803.561384 429.181244 
L 804.799642 431.892011 
L 806.037899 434.093009 
L 807.276156 434.920324 
L 808.514414 434.433733 
L 809.752671 433.638689 
L 810.990928 433.390792 
L 812.229185 433.63084 
L 813.467443 434.231394 
L 814.7057 435.590373 
L 815.943957 437.905226 
L 819.658729 446.513754 
L 820.896986 448.063643 
L 822.135243 448.755101 
L 823.373501 449.298602 
L 824.611758 450.219367 
L 827.088273 452.769096 
L 828.32653 454.507712 
L 830.803044 459.677126 
L 832.041302 461.475988 
L 833.279559 462.031176 
L 834.517816 461.253877 
L 835.756073 458.597073 
L 836.994331 453.954241 
L 839.470845 443.161493 
L 840.709102 439.587944 
L 841.94736 438.551639 
L 843.185617 440.074514 
L 844.423874 442.638332 
L 845.662132 444.278068 
L 846.900389 444.364195 
L 848.138646 443.695125 
L 849.376903 443.367419 
L 850.615161 444.002531 
L 851.853418 445.520906 
L 853.091675 447.429251 
L 854.329932 449.553083 
L 855.56819 452.326086 
L 856.806447 456.050535 
L 858.044704 460.132753 
L 859.282961 463.512052 
L 860.521219 465.540915 
L 861.759476 465.946768 
L 862.997733 464.451664 
L 864.235991 461.218422 
L 869.18902 445.147132 
L 870.427277 441.998598 
L 871.665534 440.344228 
L 872.903791 440.109709 
L 874.142049 440.639334 
L 875.380306 441.790782 
L 876.618563 443.95736 
L 880.333335 453.252497 
L 882.80985 457.787533 
L 884.048107 459.733705 
L 885.286364 460.823928 
L 886.524621 460.145861 
L 887.762879 457.246377 
L 889.001136 453.06275 
L 890.239393 449.373206 
L 891.47765 446.895124 
L 892.715908 444.94952 
L 893.954165 442.749013 
L 896.43068 437.130432 
L 897.668937 434.864416 
L 898.907194 433.685712 
L 900.145451 433.307803 
L 901.383709 433.597436 
L 902.621966 434.923829 
L 905.09848 439.859408 
L 906.336738 441.578288 
L 907.574995 441.930154 
L 908.813252 440.904554 
L 911.289767 436.61079 
L 912.528024 435.167775 
L 913.766281 435.089862 
L 915.004539 436.248884 
L 916.242796 438.360278 
L 917.481053 441.564291 
L 918.71931 446.184594 
L 919.957568 451.689362 
L 921.195825 456.580531 
L 922.434082 459.538494 
L 923.672339 459.941487 
L 924.910597 457.797547 
L 926.148854 453.798612 
L 928.625368 443.573366 
L 929.863626 438.301321 
L 931.101883 433.857164 
L 932.34014 431.28908 
L 933.578398 430.918367 
L 934.816655 432.043481 
L 936.054912 433.675094 
L 937.293169 434.924797 
L 938.531427 435.242965 
L 942.246198 434.373423 
L 945.96097 432.402 
L 947.199227 431.221825 
L 948.437485 428.941955 
L 949.675742 426.249957 
L 950.913999 424.434666 
L 952.152257 424.102477 
L 953.390514 424.473696 
L 954.628771 423.83547 
L 955.867028 421.128258 
L 958.343543 412.861309 
L 963.296572 399.074478 
L 964.534829 397.802938 
L 965.773086 398.447828 
L 967.011344 400.27822 
L 968.249601 402.790932 
L 971.964373 411.883052 
L 974.440887 418.666263 
L 975.679145 421.411456 
L 976.917402 423.293781 
L 978.155659 424.612579 
L 979.393916 425.7362 
L 980.632174 426.598344 
L 981.870431 426.829768 
L 984.346946 426.335565 
L 985.585203 426.384502 
L 986.82346 426.625766 
L 988.061717 427.23028 
L 989.299975 428.323819 
L 990.538232 429.580781 
L 991.776489 430.413136 
L 993.014746 430.557844 
L 994.253004 429.976004 
L 995.491261 428.24532 
L 997.967775 421.807828 
L 999.206033 419.819331 
L 1000.44429 419.978888 
L 1001.682547 421.941216 
L 1004.159062 427.505197 
L 1005.397319 429.643572 
L 1006.635576 430.943151 
L 1007.873834 431.340817 
L 1009.112091 430.524247 
L 1010.350348 427.989407 
L 1011.588605 423.871287 
L 1014.06512 414.197799 
L 1015.303377 409.794484 
L 1016.541634 406.156628 
L 1017.779892 403.397243 
L 1019.018149 400.947834 
L 1020.256406 397.645302 
L 1021.494664 392.53235 
L 1025.209435 372.751716 
L 1026.447693 366.956755 
L 1027.68595 360.167909 
L 1028.924207 351.148386 
L 1030.162464 339.710008 
L 1033.877236 302.185825 
L 1035.115493 292.066727 
L 1036.353751 284.213837 
L 1037.592008 278.85114 
L 1038.830265 275.385091 
L 1040.068523 272.34007 
L 1042.545037 264.812651 
L 1043.783294 261.979169 
L 1046.259809 258.831834 
L 1047.498066 256.710467 
L 1048.736323 253.296492 
L 1049.974581 247.23176 
L 1051.212838 237.703808 
L 1054.92761 203.292933 
L 1056.165867 194.854529 
L 1057.404124 190.795745 
L 1058.642382 191.81516 
L 1059.880639 195.988543 
L 1061.118896 199.477479 
L 1062.357153 198.623167 
L 1063.595411 192.446422 
L 1064.833668 183.400691 
L 1066.071925 175.94036 
L 1067.310182 174.899158 
L 1068.54844 183.821373 
L 1069.786697 202.926595 
L 1073.501469 282.916989 
L 1074.739726 304.087161 
L 1075.977983 318.996047 
L 1077.216241 327.663691 
L 1078.454498 331.144342 
L 1079.692755 330.850024 
L 1080.931012 328.332602 
L 1082.16927 325.162253 
L 1083.407527 322.792637 
L 1084.645784 322.544372 
L 1085.884041 324.891832 
L 1089.598813 337.078533 
L 1090.837071 340.09296 
L 1093.313585 345.402613 
L 1095.7901 352.044489 
L 1097.028357 354.152233 
L 1098.266614 354.65335 
L 1099.504871 353.987854 
L 1101.981386 351.068637 
L 1103.219643 350.525527 
L 1104.4579 351.696683 
L 1105.696158 354.34387 
L 1106.934415 357.323035 
L 1108.172672 359.436121 
L 1109.41093 359.909371 
L 1110.649187 358.331571 
L 1111.887444 355.080417 
L 1113.125701 351.466675 
L 1114.363959 348.869663 
L 1115.602216 347.976145 
L 1116.840473 348.416107 
L 1118.07873 348.574498 
L 1119.316988 346.410806 
L 1120.555245 341.106452 
L 1123.031759 325.596598 
L 1124.270017 317.92011 
L 1125.508274 310.942456 
L 1126.746531 304.963569 
L 1127.984789 299.724661 
L 1129.223046 293.848042 
L 1130.461303 285.92584 
L 1131.69956 275.687113 
L 1134.176075 252.279298 
L 1135.414332 242.470905 
L 1137.890847 225.724547 
L 1139.129104 214.776421 
L 1142.843876 175.132562 
L 1144.082133 168.221137 
L 1145.32039 166.507324 
L 1146.558648 167.935915 
L 1147.796905 169.81448 
L 1149.035162 170.498387 
L 1150.273419 169.419418 
L 1151.511677 166.302706 
L 1152.749934 161.12999 
L 1153.988191 154.364047 
L 1156.464706 138.236383 
L 1158.94122 121.350963 
L 1160.179477 114.853233 
L 1161.417735 109.958514 
L 1162.655992 106.08383 
L 1163.894249 102.872481 
L 1166.370764 97.46643 
L 1167.609021 95.142367 
L 1168.847278 93.23738 
L 1170.085536 92.068825 
L 1171.323793 92.6574 
L 1172.56205 96.079941 
L 1173.800307 101.630193 
L 1175.038565 106.534863 
L 1176.276822 108.150911 
L 1177.515079 105.46098 
L 1178.753337 98.894537 
L 1182.468108 71.702085 
L 1183.706366 64.674197 
L 1184.944623 61.102527 
L 1186.18288 61.826205 
L 1188.659395 70.172591 
L 1189.897652 71.228763 
L 1191.135909 68.62913 
L 1194.850681 56.51527 
L 1196.088938 53.398327 
L 1197.327196 52.300703 
L 1198.565453 53.381531 
L 1199.80371 54.947821 
L 1201.041967 55.118304 
L 1202.280225 53.242364 
L 1203.518482 50.125485 
L 1204.756739 47.979282 
L 1205.994996 49.181327 
L 1207.233254 54.581242 
L 1208.471511 63.280178 
L 1209.709768 73.057941 
L 1210.948025 81.328178 
L 1212.186283 86.829278 
L 1213.42454 90.041547 
L 1214.662797 92.169066 
L 1215.901055 94.94311 
L 1217.139312 100.833297 
L 1218.377569 111.255475 
L 1220.854084 137.811802 
L 1222.092341 149.042356 
L 1224.568855 169.898825 
L 1228.283627 209.365115 
L 1229.521884 217.799216 
L 1230.760142 221.325188 
L 1231.998399 220.852315 
L 1233.236656 217.443678 
L 1234.474914 211.58405 
L 1236.951428 197.246178 
L 1238.189685 192.248012 
L 1240.6662 184.82389 
L 1241.904457 180.203258 
L 1243.142714 176.189811 
L 1244.380972 175.225145 
L 1245.619229 178.897662 
L 1246.857486 186.821662 
L 1250.572258 216.965663 
L 1253.048773 234.606529 
L 1255.525287 254.132706 
L 1256.763544 261.224246 
L 1258.001802 265.065922 
L 1259.240059 265.92815 
L 1260.478316 263.996254 
L 1261.716573 259.498892 
L 1264.193088 247.826678 
L 1265.431345 244.098956 
L 1266.669603 243.981008 
L 1267.90786 247.82394 
L 1269.146117 254.180637 
L 1270.384374 261.520112 
L 1271.622632 269.576841 
L 1272.860889 278.708094 
L 1275.337403 298.706485 
L 1276.575661 307.139117 
L 1277.813918 313.509292 
L 1279.052175 317.873234 
L 1280.290432 319.943977 
L 1281.52869 319.053755 
L 1282.766947 315.208658 
L 1285.243462 303.992716 
L 1286.481719 300.104536 
L 1287.719976 298.887423 
L 1288.958233 300.162003 
L 1290.196491 303.554467 
L 1291.434748 309.526382 
L 1292.673005 318.562944 
L 1295.14952 341.184782 
L 1296.387777 350.703759 
L 1297.626034 358.025566 
L 1298.864291 364.099396 
L 1300.102549 369.454705 
L 1301.340806 373.229686 
L 1302.579063 374.393425 
L 1303.817321 373.129302 
L 1305.055578 370.623576 
L 1306.293835 368.473183 
L 1307.532092 367.892686 
L 1308.77035 369.044682 
L 1310.008607 371.505846 
L 1312.485121 377.758309 
L 1313.723379 379.981644 
L 1314.961636 381.013485 
L 1316.199893 381.221663 
L 1317.43815 381.761321 
L 1318.676408 383.791688 
L 1319.914665 387.309454 
L 1322.39118 394.987709 
L 1323.629437 398.573697 
L 1324.867694 401.675601 
L 1326.105951 403.368764 
L 1327.344209 403.538427 
L 1328.582466 403.586242 
L 1329.820723 404.912388 
L 1331.05898 407.07979 
L 1332.297238 408.484787 
L 1333.535495 408.501094 
L 1334.773752 407.963883 
L 1336.012009 408.028913 
L 1337.250267 409.642502 
L 1338.488524 413.35582 
L 1340.965039 424.567046 
L 1342.203296 428.840718 
L 1343.441553 430.241477 
L 1344.67981 429.37038 
L 1345.918068 428.027421 
L 1347.156325 427.303347 
L 1348.394582 427.238358 
L 1349.632839 427.364813 
L 1350.871097 427.167333 
L 1352.109354 426.382036 
L 1353.347611 424.959403 
L 1354.585868 423.176283 
L 1355.824126 421.68457 
L 1357.062383 420.838081 
L 1358.30064 420.255181 
L 1360.777155 418.528898 
L 1362.015412 418.084777 
L 1363.253669 418.151624 
L 1364.491927 418.358811 
L 1365.730184 418.688858 
L 1366.968441 419.185774 
L 1368.206698 419.197421 
L 1369.444956 417.84656 
L 1370.683213 414.796682 
L 1373.159728 406.343 
L 1374.397985 404.228355 
L 1375.636242 404.445282 
L 1376.874499 406.201817 
L 1378.112757 408.863621 
L 1379.351014 412.113852 
L 1381.827528 419.037506 
L 1383.065786 421.061604 
L 1384.304043 420.661479 
L 1385.5423 417.762159 
L 1386.780557 413.816967 
L 1388.018815 410.714848 
L 1389.257072 408.742 
L 1390.495329 406.383232 
L 1391.733587 402.322704 
L 1392.971844 396.510399 
L 1394.210101 389.76198 
L 1395.448358 383.643289 
L 1396.686616 379.784412 
L 1397.924873 378.88182 
L 1399.16313 381.047193 
L 1400.401387 385.785606 
L 1401.639645 391.394621 
L 1404.116159 401.02391 
L 1405.354416 407.281089 
L 1409.069188 432.355764 
L 1410.307446 437.2352 
L 1411.545703 438.621006 
L 1412.78396 436.756623 
L 1415.260475 428.676113 
L 1416.498732 425.557674 
L 1417.736989 423.786634 
L 1418.975246 423.255303 
L 1420.213504 424.133994 
L 1421.451761 426.552587 
L 1423.928275 433.009698 
L 1425.166533 434.409787 
L 1426.40479 433.220869 
L 1427.643047 428.86877 
L 1428.881305 421.113547 
L 1431.357819 401.321132 
L 1432.596076 395.524569 
L 1433.834334 395.213102 
L 1435.072591 399.462003 
L 1436.310848 406.306903 
L 1437.549105 414.701265 
L 1440.02562 432.625024 
L 1441.263877 438.379218 
L 1442.502134 440.726947 
L 1443.740392 440.454975 
L 1444.978649 438.370143 
L 1447.455164 431.829912 
L 1448.693421 428.024017 
L 1449.931678 422.99188 
L 1451.169935 417.420045 
L 1452.408193 413.708293 
L 1453.64645 413.565717 
L 1454.884707 416.357275 
L 1456.122964 419.952889 
L 1457.361222 422.330066 
L 1458.599479 422.458326 
L 1459.837736 420.70541 
L 1461.075994 418.409463 
L 1462.314251 416.812705 
L 1463.552508 416.510957 
L 1464.790765 417.295181 
L 1466.029023 418.323135 
L 1467.26728 418.891894 
L 1468.505537 418.728797 
L 1469.743794 417.899017 
L 1470.982052 417.241819 
L 1472.220309 417.993791 
L 1473.458566 420.362178 
L 1474.696823 423.306162 
L 1475.935081 425.756917 
L 1477.173338 427.295765 
L 1478.411595 427.901535 
L 1479.649853 427.766409 
L 1480.88811 427.11135 
L 1482.126367 425.815983 
L 1483.364624 423.443009 
L 1485.841139 415.9899 
L 1487.079396 413.592423 
L 1488.317653 413.577367 
L 1489.555911 415.097713 
L 1490.794168 416.172681 
L 1492.032425 415.103524 
L 1493.270682 411.424081 
L 1494.50894 405.652624 
L 1496.985454 392.423682 
L 1501.938483 370.653844 
L 1503.176741 366.508479 
L 1504.414998 364.321491 
L 1506.891512 362.56409 
L 1508.12977 360.197808 
L 1510.606284 352.115465 
L 1511.844541 350.313823 
L 1513.082799 350.761664 
L 1514.321056 351.544288 
L 1515.559313 350.954353 
L 1516.797571 348.732021 
L 1518.035828 345.356961 
L 1520.512342 336.945388 
L 1521.7506 333.71337 
L 1522.988857 332.152838 
L 1524.227114 332.276605 
L 1525.465371 333.705909 
L 1529.180143 339.841633 
L 1530.4184 340.85516 
L 1531.656658 340.683709 
L 1532.894915 339.874302 
L 1534.133172 339.742678 
L 1535.37143 341.123838 
L 1536.609687 343.413212 
L 1537.847944 344.961045 
L 1539.086201 344.357507 
L 1540.324459 341.201219 
L 1541.562716 335.651126 
L 1542.800973 327.647724 
L 1545.277488 306.853404 
L 1546.515745 298.925402 
L 1547.754002 294.686252 
L 1548.99226 292.557888 
L 1550.230517 290.960133 
L 1551.468774 290.909951 
L 1552.707031 295.392268 
L 1553.945289 305.559816 
L 1556.421803 331.839619 
L 1557.66006 343.381635 
L 1558.898318 353.7093 
L 1560.136575 362.865439 
L 1561.374832 370.416367 
L 1562.613089 376.204017 
L 1563.851347 380.757858 
L 1565.089604 384.666704 
L 1566.327861 387.862036 
L 1567.566119 389.942428 
L 1568.804376 390.757252 
L 1570.042633 390.268876 
L 1571.28089 388.483955 
L 1573.757405 383.33072 
L 1574.995662 382.743225 
L 1576.233919 384.929836 
L 1577.472177 388.501596 
L 1578.710434 390.146266 
L 1579.948691 386.905256 
L 1581.186948 378.580723 
L 1583.663463 357.374083 
L 1584.90172 348.897495 
L 1586.139978 342.21183 
L 1592.331264 313.297914 
L 1593.569521 308.384808 
L 1597.284293 295.927118 
L 1598.52255 292.220229 
L 1599.760807 289.025057 
L 1600.999065 286.80376 
L 1602.237322 285.956923 
L 1603.475579 286.518276 
L 1604.713837 288.656922 
L 1605.952094 292.704239 
L 1608.428608 304.189276 
L 1609.666866 308.258607 
L 1610.905123 308.363295 
L 1612.14338 303.243266 
L 1613.381637 293.533274 
L 1615.858152 268.942093 
L 1617.096409 258.02891 
L 1618.334666 249.088984 
L 1619.572924 242.100119 
L 1620.811181 236.93455 
L 1622.049438 233.095976 
L 1623.287696 230.073065 
L 1624.525953 227.467714 
L 1625.76421 224.26343 
L 1627.002467 219.073064 
L 1629.478982 204.803463 
L 1630.717239 200.748766 
L 1633.193754 198.641181 
L 1634.432011 195.569777 
L 1635.670268 190.400435 
L 1638.146783 178.086594 
L 1639.38504 173.498212 
L 1640.623297 171.186413 
L 1641.861555 171.189841 
L 1643.099812 171.883781 
L 1644.338069 170.257296 
L 1645.576326 164.162802 
L 1646.814584 153.992694 
L 1648.052841 141.780654 
L 1648.052841 141.780654 
" style="fill:none;stroke:#008000;stroke-linecap:square;stroke-width:1.5;"/>
   </g>
   <g id="patch_3">
    <path d="M 50.14375 586.86358 
L 50.14375 22.318125 
" style="fill:none;stroke:#000000;stroke-linecap:square;stroke-linejoin:miter;stroke-width:0.8;"/>
   </g>
   <g id="patch_4">
    <path d="M 1724.14375 586.86358 
L 1724.14375 22.318125 
" style="fill:none;stroke:#000000;stroke-linecap:square;stroke-linejoin:miter;stroke-width:0.8;"/>
   </g>
   <g id="patch_5">
    <path d="M 50.14375 586.86358 
L 1724.14375 586.86358 
" style="fill:none;stroke:#000000;stroke-linecap:square;stroke-linejoin:miter;stroke-width:0.8;"/>
   </g>
   <g id="patch_6">
    <path d="M 50.14375 22.318125 
L 1724.14375 22.318125 
" style="fill:none;stroke:#000000;stroke-linecap:square;stroke-linejoin:miter;stroke-width:0.8;"/>
   </g>
   <g id="text_18">
    <!-- before binarisation -->
    <g transform="translate(830.545 16.318125)scale(0.12 -0.12)">
     <defs>
      <path d="M 3116 1747 
Q 3116 2381 2855 2742 
Q 2594 3103 2138 3103 
Q 1681 3103 1420 2742 
Q 1159 2381 1159 1747 
Q 1159 1113 1420 752 
Q 1681 391 2138 391 
Q 2594 391 2855 752 
Q 3116 1113 3116 1747 
z
M 1159 2969 
Q 1341 3281 1617 3432 
Q 1894 3584 2278 3584 
Q 2916 3584 3314 3078 
Q 3713 2572 3713 1747 
Q 3713 922 3314 415 
Q 2916 -91 2278 -91 
Q 1894 -91 1617 61 
Q 1341 213 1159 525 
L 1159 0 
L 581 0 
L 581 4863 
L 1159 4863 
L 1159 2969 
z
" id="DejaVuSans-62" transform="scale(0.015625)"/>
      <path d="M 1959 3097 
Q 1497 3097 1228 2736 
Q 959 2375 959 1747 
Q 959 1119 1226 758 
Q 1494 397 1959 397 
Q 2419 397 2687 759 
Q 2956 1122 2956 1747 
Q 2956 2369 2687 2733 
Q 2419 3097 1959 3097 
z
M 1959 3584 
Q 2709 3584 3137 3096 
Q 3566 2609 3566 1747 
Q 3566 888 3137 398 
Q 2709 -91 1959 -91 
Q 1206 -91 779 398 
Q 353 888 353 1747 
Q 353 2609 779 3096 
Q 1206 3584 1959 3584 
z
" id="DejaVuSans-6f" transform="scale(0.015625)"/>
      <path id="DejaVuSans-20" transform="scale(0.015625)"/>
      <path d="M 603 3500 
L 1178 3500 
L 1178 0 
L 603 0 
L 603 3500 
z
M 603 4863 
L 1178 4863 
L 1178 4134 
L 603 4134 
L 603 4863 
z
" id="DejaVuSans-69" transform="scale(0.015625)"/>
      <path d="M 3513 2113 
L 3513 0 
L 2938 0 
L 2938 2094 
Q 2938 2591 2744 2837 
Q 2550 3084 2163 3084 
Q 1697 3084 1428 2787 
Q 1159 2491 1159 1978 
L 1159 0 
L 581 0 
L 581 3500 
L 1159 3500 
L 1159 2956 
Q 1366 3272 1645 3428 
Q 1925 3584 2291 3584 
Q 2894 3584 3203 3211 
Q 3513 2838 3513 2113 
z
" id="DejaVuSans-6e" transform="scale(0.015625)"/>
      <path d="M 2834 3397 
L 2834 2853 
Q 2591 2978 2328 3040 
Q 2066 3103 1784 3103 
Q 1356 3103 1142 2972 
Q 928 2841 928 2578 
Q 928 2378 1081 2264 
Q 1234 2150 1697 2047 
L 1894 2003 
Q 2506 1872 2764 1633 
Q 3022 1394 3022 966 
Q 3022 478 2636 193 
Q 2250 -91 1575 -91 
Q 1294 -91 989 -36 
Q 684 19 347 128 
L 347 722 
Q 666 556 975 473 
Q 1284 391 1588 391 
Q 1994 391 2212 530 
Q 2431 669 2431 922 
Q 2431 1156 2273 1281 
Q 2116 1406 1581 1522 
L 1381 1569 
Q 847 1681 609 1914 
Q 372 2147 372 2553 
Q 372 3047 722 3315 
Q 1072 3584 1716 3584 
Q 2034 3584 2315 3537 
Q 2597 3491 2834 3397 
z
" id="DejaVuSans-73" transform="scale(0.015625)"/>
      <path d="M 1172 4494 
L 1172 3500 
L 2356 3500 
L 2356 3053 
L 1172 3053 
L 1172 1153 
Q 1172 725 1289 603 
Q 1406 481 1766 481 
L 2356 481 
L 2356 0 
L 1766 0 
Q 1100 0 847 248 
Q 594 497 594 1153 
L 594 3053 
L 172 3053 
L 172 3500 
L 594 3500 
L 594 4494 
L 1172 4494 
z
" id="DejaVuSans-74" transform="scale(0.015625)"/>
     </defs>
     <use xlink:href="#DejaVuSans-62"/>
     <use x="63.476562" xlink:href="#DejaVuSans-65"/>
     <use x="125" xlink:href="#DejaVuSans-66"/>
     <use x="160.205078" xlink:href="#DejaVuSans-6f"/>
     <use x="221.386719" xlink:href="#DejaVuSans-72"/>
     <use x="260.25" xlink:href="#DejaVuSans-65"/>
     <use x="321.773438" xlink:href="#DejaVuSans-20"/>
     <use x="353.560547" xlink:href="#DejaVuSans-62"/>
     <use x="417.037109" xlink:href="#DejaVuSans-69"/>
     <use x="444.820312" xlink:href="#DejaVuSans-6e"/>
     <use x="508.199219" xlink:href="#DejaVuSans-61"/>
     <use x="569.478516" xlink:href="#DejaVuSans-72"/>
     <use x="610.591797" xlink:href="#DejaVuSans-69"/>
     <use x="638.375" xlink:href="#DejaVuSans-73"/>
     <use x="690.474609" xlink:href="#DejaVuSans-61"/>
     <use x="751.753906" xlink:href="#DejaVuSans-74"/>
     <use x="790.962891" xlink:href="#DejaVuSans-69"/>
     <use x="818.746094" xlink:href="#DejaVuSans-6f"/>
     <use x="879.927734" xlink:href="#DejaVuSans-6e"/>
    </g>
   </g>
  </g>
  <g id="axes_2">
   <g id="patch_7">
    <path d="M 50.14375 1264.318125 
L 1724.14375 1264.318125 
L 1724.14375 699.77267 
L 50.14375 699.77267 
z
" style="fill:#ffffff;"/>
   </g>
   <g id="matplotlib.axis_3">
    <g id="xtick_8">
     <g id="line2d_17">
      <g>
       <use style="stroke:#000000;stroke-width:0.8;" x="126.234659" xlink:href="#m6446559864" y="1264.318125"/>
      </g>
     </g>
     <g id="text_19">
      <!-- 0 -->
      <g transform="translate(123.053409 1278.916563)scale(0.1 -0.1)">
       <use xlink:href="#DejaVuSans-30"/>
      </g>
     </g>
    </g>
    <g id="xtick_9">
     <g id="line2d_18">
      <g>
       <use style="stroke:#000000;stroke-width:0.8;" x="373.886113" xlink:href="#m6446559864" y="1264.318125"/>
      </g>
     </g>
     <g id="text_20">
      <!-- 200 -->
      <g transform="translate(364.342363 1278.916563)scale(0.1 -0.1)">
       <use xlink:href="#DejaVuSans-32"/>
       <use x="63.623047" xlink:href="#DejaVuSans-30"/>
       <use x="127.246094" xlink:href="#DejaVuSans-30"/>
      </g>
     </g>
    </g>
    <g id="xtick_10">
     <g id="line2d_19">
      <g>
       <use style="stroke:#000000;stroke-width:0.8;" x="621.537566" xlink:href="#m6446559864" y="1264.318125"/>
      </g>
     </g>
     <g id="text_21">
      <!-- 400 -->
      <g transform="translate(611.993816 1278.916563)scale(0.1 -0.1)">
       <use xlink:href="#DejaVuSans-34"/>
       <use x="63.623047" xlink:href="#DejaVuSans-30"/>
       <use x="127.246094" xlink:href="#DejaVuSans-30"/>
      </g>
     </g>
    </g>
    <g id="xtick_11">
     <g id="line2d_20">
      <g>
       <use style="stroke:#000000;stroke-width:0.8;" x="869.18902" xlink:href="#m6446559864" y="1264.318125"/>
      </g>
     </g>
     <g id="text_22">
      <!-- 600 -->
      <g transform="translate(859.64527 1278.916563)scale(0.1 -0.1)">
       <use xlink:href="#DejaVuSans-36"/>
       <use x="63.623047" xlink:href="#DejaVuSans-30"/>
       <use x="127.246094" xlink:href="#DejaVuSans-30"/>
      </g>
     </g>
    </g>
    <g id="xtick_12">
     <g id="line2d_21">
      <g>
       <use style="stroke:#000000;stroke-width:0.8;" x="1116.840473" xlink:href="#m6446559864" y="1264.318125"/>
      </g>
     </g>
     <g id="text_23">
      <!-- 800 -->
      <g transform="translate(1107.296723 1278.916563)scale(0.1 -0.1)">
       <use xlink:href="#DejaVuSans-38"/>
       <use x="63.623047" xlink:href="#DejaVuSans-30"/>
       <use x="127.246094" xlink:href="#DejaVuSans-30"/>
      </g>
     </g>
    </g>
    <g id="xtick_13">
     <g id="line2d_22">
      <g>
       <use style="stroke:#000000;stroke-width:0.8;" x="1364.491927" xlink:href="#m6446559864" y="1264.318125"/>
      </g>
     </g>
     <g id="text_24">
      <!-- 1000 -->
      <g transform="translate(1351.766927 1278.916563)scale(0.1 -0.1)">
       <use xlink:href="#DejaVuSans-31"/>
       <use x="63.623047" xlink:href="#DejaVuSans-30"/>
       <use x="127.246094" xlink:href="#DejaVuSans-30"/>
       <use x="190.869141" xlink:href="#DejaVuSans-30"/>
      </g>
     </g>
    </g>
    <g id="xtick_14">
     <g id="line2d_23">
      <g>
       <use style="stroke:#000000;stroke-width:0.8;" x="1612.14338" xlink:href="#m6446559864" y="1264.318125"/>
      </g>
     </g>
     <g id="text_25">
      <!-- 1200 -->
      <g transform="translate(1599.41838 1278.916563)scale(0.1 -0.1)">
       <use xlink:href="#DejaVuSans-31"/>
       <use x="63.623047" xlink:href="#DejaVuSans-32"/>
       <use x="127.246094" xlink:href="#DejaVuSans-30"/>
       <use x="190.869141" xlink:href="#DejaVuSans-30"/>
      </g>
     </g>
    </g>
    <g id="text_26">
     <!-- frame -->
     <g transform="translate(872.317187 1292.594688)scale(0.1 -0.1)">
      <use xlink:href="#DejaVuSans-66"/>
      <use x="35.205078" xlink:href="#DejaVuSans-72"/>
      <use x="76.318359" xlink:href="#DejaVuSans-61"/>
      <use x="137.597656" xlink:href="#DejaVuSans-6d"/>
      <use x="235.009766" xlink:href="#DejaVuSans-65"/>
     </g>
    </g>
   </g>
   <g id="matplotlib.axis_4">
    <g id="ytick_9">
     <g id="line2d_24">
      <g>
       <use style="stroke:#000000;stroke-width:0.8;" x="50.14375" xlink:href="#m62fccdc329" y="1238.656968"/>
      </g>
     </g>
     <g id="text_27">
      <!-- 0.0 -->
      <g transform="translate(27.240625 1242.456187)scale(0.1 -0.1)">
       <use xlink:href="#DejaVuSans-30"/>
       <use x="63.623047" xlink:href="#DejaVuSans-2e"/>
       <use x="95.410156" xlink:href="#DejaVuSans-30"/>
      </g>
     </g>
    </g>
    <g id="ytick_10">
     <g id="line2d_25">
      <g>
       <use style="stroke:#000000;stroke-width:0.8;" x="50.14375" xlink:href="#m62fccdc329" y="1136.01234"/>
      </g>
     </g>
     <g id="text_28">
      <!-- 0.2 -->
      <g transform="translate(27.240625 1139.811559)scale(0.1 -0.1)">
       <use xlink:href="#DejaVuSans-30"/>
       <use x="63.623047" xlink:href="#DejaVuSans-2e"/>
       <use x="95.410156" xlink:href="#DejaVuSans-32"/>
      </g>
     </g>
    </g>
    <g id="ytick_11">
     <g id="line2d_26">
      <g>
       <use style="stroke:#000000;stroke-width:0.8;" x="50.14375" xlink:href="#m62fccdc329" y="1033.367712"/>
      </g>
     </g>
     <g id="text_29">
      <!-- 0.4 -->
      <g transform="translate(27.240625 1037.166931)scale(0.1 -0.1)">
       <use xlink:href="#DejaVuSans-30"/>
       <use x="63.623047" xlink:href="#DejaVuSans-2e"/>
       <use x="95.410156" xlink:href="#DejaVuSans-34"/>
      </g>
     </g>
    </g>
    <g id="ytick_12">
     <g id="line2d_27">
      <g>
       <use style="stroke:#000000;stroke-width:0.8;" x="50.14375" xlink:href="#m62fccdc329" y="930.723084"/>
      </g>
     </g>
     <g id="text_30">
      <!-- 0.6 -->
      <g transform="translate(27.240625 934.522302)scale(0.1 -0.1)">
       <use xlink:href="#DejaVuSans-30"/>
       <use x="63.623047" xlink:href="#DejaVuSans-2e"/>
       <use x="95.410156" xlink:href="#DejaVuSans-36"/>
      </g>
     </g>
    </g>
    <g id="ytick_13">
     <g id="line2d_28">
      <g>
       <use style="stroke:#000000;stroke-width:0.8;" x="50.14375" xlink:href="#m62fccdc329" y="828.078456"/>
      </g>
     </g>
     <g id="text_31">
      <!-- 0.8 -->
      <g transform="translate(27.240625 831.877674)scale(0.1 -0.1)">
       <use xlink:href="#DejaVuSans-30"/>
       <use x="63.623047" xlink:href="#DejaVuSans-2e"/>
       <use x="95.410156" xlink:href="#DejaVuSans-38"/>
      </g>
     </g>
    </g>
    <g id="ytick_14">
     <g id="line2d_29">
      <g>
       <use style="stroke:#000000;stroke-width:0.8;" x="50.14375" xlink:href="#m62fccdc329" y="725.433827"/>
      </g>
     </g>
     <g id="text_32">
      <!-- 1.0 -->
      <g transform="translate(27.240625 729.233046)scale(0.1 -0.1)">
       <use xlink:href="#DejaVuSans-31"/>
       <use x="63.623047" xlink:href="#DejaVuSans-2e"/>
       <use x="95.410156" xlink:href="#DejaVuSans-30"/>
      </g>
     </g>
    </g>
    <g id="text_33">
     <!-- GCaMP -->
     <g transform="translate(21.160938 999.803991)rotate(-90)scale(0.1 -0.1)">
      <use xlink:href="#DejaVuSans-47"/>
      <use x="77.490234" xlink:href="#DejaVuSans-43"/>
      <use x="147.314453" xlink:href="#DejaVuSans-61"/>
      <use x="208.59375" xlink:href="#DejaVuSans-4d"/>
      <use x="294.873047" xlink:href="#DejaVuSans-50"/>
     </g>
    </g>
   </g>
   <g id="line2d_30">
    <path clip-path="url(#p74bffd7e6f)" d="M 126.234659 1238.656968 
L 683.450429 1238.656968 
L 684.688687 725.433827 
L 688.403459 725.433827 
L 689.641716 1238.656968 
L 706.977318 1238.656968 
L 708.215575 725.433827 
L 709.453832 725.433827 
L 710.692089 1238.656968 
L 713.168604 1238.656968 
L 714.406861 725.433827 
L 739.172007 725.433827 
L 740.410264 1238.656968 
L 1036.353751 1238.656968 
L 1037.592008 725.433827 
L 1072.263211 725.433827 
L 1073.501469 1238.656968 
L 1130.461303 1238.656968 
L 1131.69956 725.433827 
L 1272.860889 725.433827 
L 1274.099146 1238.656968 
L 1614.619895 1238.656968 
L 1615.858152 725.433827 
L 1648.052841 725.433827 
L 1648.052841 725.433827 
" style="fill:none;stroke:#008000;stroke-linecap:square;stroke-width:1.5;"/>
   </g>
   <g id="patch_8">
    <path d="M 50.14375 1264.318125 
L 50.14375 699.77267 
" style="fill:none;stroke:#000000;stroke-linecap:square;stroke-linejoin:miter;stroke-width:0.8;"/>
   </g>
   <g id="patch_9">
    <path d="M 1724.14375 1264.318125 
L 1724.14375 699.77267 
" style="fill:none;stroke:#000000;stroke-linecap:square;stroke-linejoin:miter;stroke-width:0.8;"/>
   </g>
   <g id="patch_10">
    <path d="M 50.14375 1264.318125 
L 1724.14375 1264.318125 
" style="fill:none;stroke:#000000;stroke-linecap:square;stroke-linejoin:miter;stroke-width:0.8;"/>
   </g>
   <g id="patch_11">
    <path d="M 50.14375 699.77267 
L 1724.14375 699.77267 
" style="fill:none;stroke:#000000;stroke-linecap:square;stroke-linejoin:miter;stroke-width:0.8;"/>
   </g>
   <g id="text_34">
    <!-- before binarisation -->
    <g transform="translate(830.545 693.77267)scale(0.12 -0.12)">
     <use xlink:href="#DejaVuSans-62"/>
     <use x="63.476562" xlink:href="#DejaVuSans-65"/>
     <use x="125" xlink:href="#DejaVuSans-66"/>
     <use x="160.205078" xlink:href="#DejaVuSans-6f"/>
     <use x="221.386719" xlink:href="#DejaVuSans-72"/>
     <use x="260.25" xlink:href="#DejaVuSans-65"/>
     <use x="321.773438" xlink:href="#DejaVuSans-20"/>
     <use x="353.560547" xlink:href="#DejaVuSans-62"/>
     <use x="417.037109" xlink:href="#DejaVuSans-69"/>
     <use x="444.820312" xlink:href="#DejaVuSans-6e"/>
     <use x="508.199219" xlink:href="#DejaVuSans-61"/>
     <use x="569.478516" xlink:href="#DejaVuSans-72"/>
     <use x="610.591797" xlink:href="#DejaVuSans-69"/>
     <use x="638.375" xlink:href="#DejaVuSans-73"/>
     <use x="690.474609" xlink:href="#DejaVuSans-61"/>
     <use x="751.753906" xlink:href="#DejaVuSans-74"/>
     <use x="790.962891" xlink:href="#DejaVuSans-69"/>
     <use x="818.746094" xlink:href="#DejaVuSans-6f"/>
     <use x="879.927734" xlink:href="#DejaVuSans-6e"/>
    </g>
   </g>
  </g>
 </g>
 <defs>
  <clipPath id="p1aeb876208">
   <rect height="564.545455" width="1674" x="50.14375" y="22.318125"/>
  </clipPath>
  <clipPath id="p74bffd7e6f">
   <rect height="564.545455" width="1674" x="50.14375" y="699.77267"/>
  </clipPath>
 </defs>
</svg>
