<?xml version="1.0" encoding="utf-8" standalone="no"?>
<!DOCTYPE svg PUBLIC "-//W3C//DTD SVG 1.1//EN"
  "http://www.w3.org/Graphics/SVG/1.1/DTD/svg11.dtd">
<svg height="1301.874375pt" version="1.1" viewBox="0 0 1724.98125 1301.874375" width="1724.98125pt" xmlns="http://www.w3.org/2000/svg" xmlns:xlink="http://www.w3.org/1999/xlink">
 <metadata>
  <rdf:RDF xmlns:cc="http://creativecommons.org/ns#" xmlns:dc="http://purl.org/dc/elements/1.1/" xmlns:rdf="http://www.w3.org/1999/02/22-rdf-syntax-ns#">
   <cc:Work>
    <dc:type rdf:resource="http://purl.org/dc/dcmitype/StillImage"/>
    <dc:date>2022-07-24T15:54:35.455787</dc:date>
    <dc:format>image/svg+xml</dc:format>
    <dc:creator>
     <cc:Agent>
      <dc:title>Matplotlib v3.4.2, https://matplotlib.org/</dc:title>
     </cc:Agent>
    </dc:creator>
   </cc:Work>
  </rdf:RDF>
 </metadata>
 <defs>
  <style type="text/css">*{stroke-linecap:butt;stroke-linejoin:round;}</style>
 </defs>
 <g id="figure_1">
  <g id="patch_1">
   <path d="M 0 1301.874375 
L 1724.98125 1301.874375 
L 1724.98125 0 
L 0 0 
z
" style="fill:#ffffff;"/>
  </g>
  <g id="axes_1">
   <g id="patch_2">
    <path d="M 43.78125 586.86358 
L 1717.78125 586.86358 
L 1717.78125 22.318125 
L 43.78125 22.318125 
z
" style="fill:#ffffff;"/>
   </g>
   <g id="matplotlib.axis_1">
    <g id="xtick_1">
     <g id="line2d_1">
      <defs>
       <path d="M 0 0 
L 0 3.5 
" id="mc855bf300c" style="stroke:#000000;stroke-width:0.8;"/>
      </defs>
      <g>
       <use style="stroke:#000000;stroke-width:0.8;" x="119.872159" xlink:href="#mc855bf300c" y="586.86358"/>
      </g>
     </g>
     <g id="text_1">
      <!-- 0 -->
      <g transform="translate(116.690909 601.462017)scale(0.1 -0.1)">
       <defs>
        <path d="M 2034 4250 
Q 1547 4250 1301 3770 
Q 1056 3291 1056 2328 
Q 1056 1369 1301 889 
Q 1547 409 2034 409 
Q 2525 409 2770 889 
Q 3016 1369 3016 2328 
Q 3016 3291 2770 3770 
Q 2525 4250 2034 4250 
z
M 2034 4750 
Q 2819 4750 3233 4129 
Q 3647 3509 3647 2328 
Q 3647 1150 3233 529 
Q 2819 -91 2034 -91 
Q 1250 -91 836 529 
Q 422 1150 422 2328 
Q 422 3509 836 4129 
Q 1250 4750 2034 4750 
z
" id="DejaVuSans-30" transform="scale(0.015625)"/>
       </defs>
       <use xlink:href="#DejaVuSans-30"/>
      </g>
     </g>
    </g>
    <g id="xtick_2">
     <g id="line2d_2">
      <g>
       <use style="stroke:#000000;stroke-width:0.8;" x="367.523613" xlink:href="#mc855bf300c" y="586.86358"/>
      </g>
     </g>
     <g id="text_2">
      <!-- 200 -->
      <g transform="translate(357.979863 601.462017)scale(0.1 -0.1)">
       <defs>
        <path d="M 1228 531 
L 3431 531 
L 3431 0 
L 469 0 
L 469 531 
Q 828 903 1448 1529 
Q 2069 2156 2228 2338 
Q 2531 2678 2651 2914 
Q 2772 3150 2772 3378 
Q 2772 3750 2511 3984 
Q 2250 4219 1831 4219 
Q 1534 4219 1204 4116 
Q 875 4013 500 3803 
L 500 4441 
Q 881 4594 1212 4672 
Q 1544 4750 1819 4750 
Q 2544 4750 2975 4387 
Q 3406 4025 3406 3419 
Q 3406 3131 3298 2873 
Q 3191 2616 2906 2266 
Q 2828 2175 2409 1742 
Q 1991 1309 1228 531 
z
" id="DejaVuSans-32" transform="scale(0.015625)"/>
       </defs>
       <use xlink:href="#DejaVuSans-32"/>
       <use x="63.623047" xlink:href="#DejaVuSans-30"/>
       <use x="127.246094" xlink:href="#DejaVuSans-30"/>
      </g>
     </g>
    </g>
    <g id="xtick_3">
     <g id="line2d_3">
      <g>
       <use style="stroke:#000000;stroke-width:0.8;" x="615.175066" xlink:href="#mc855bf300c" y="586.86358"/>
      </g>
     </g>
     <g id="text_3">
      <!-- 400 -->
      <g transform="translate(605.631316 601.462017)scale(0.1 -0.1)">
       <defs>
        <path d="M 2419 4116 
L 825 1625 
L 2419 1625 
L 2419 4116 
z
M 2253 4666 
L 3047 4666 
L 3047 1625 
L 3713 1625 
L 3713 1100 
L 3047 1100 
L 3047 0 
L 2419 0 
L 2419 1100 
L 313 1100 
L 313 1709 
L 2253 4666 
z
" id="DejaVuSans-34" transform="scale(0.015625)"/>
       </defs>
       <use xlink:href="#DejaVuSans-34"/>
       <use x="63.623047" xlink:href="#DejaVuSans-30"/>
       <use x="127.246094" xlink:href="#DejaVuSans-30"/>
      </g>
     </g>
    </g>
    <g id="xtick_4">
     <g id="line2d_4">
      <g>
       <use style="stroke:#000000;stroke-width:0.8;" x="862.82652" xlink:href="#mc855bf300c" y="586.86358"/>
      </g>
     </g>
     <g id="text_4">
      <!-- 600 -->
      <g transform="translate(853.28277 601.462017)scale(0.1 -0.1)">
       <defs>
        <path d="M 2113 2584 
Q 1688 2584 1439 2293 
Q 1191 2003 1191 1497 
Q 1191 994 1439 701 
Q 1688 409 2113 409 
Q 2538 409 2786 701 
Q 3034 994 3034 1497 
Q 3034 2003 2786 2293 
Q 2538 2584 2113 2584 
z
M 3366 4563 
L 3366 3988 
Q 3128 4100 2886 4159 
Q 2644 4219 2406 4219 
Q 1781 4219 1451 3797 
Q 1122 3375 1075 2522 
Q 1259 2794 1537 2939 
Q 1816 3084 2150 3084 
Q 2853 3084 3261 2657 
Q 3669 2231 3669 1497 
Q 3669 778 3244 343 
Q 2819 -91 2113 -91 
Q 1303 -91 875 529 
Q 447 1150 447 2328 
Q 447 3434 972 4092 
Q 1497 4750 2381 4750 
Q 2619 4750 2861 4703 
Q 3103 4656 3366 4563 
z
" id="DejaVuSans-36" transform="scale(0.015625)"/>
       </defs>
       <use xlink:href="#DejaVuSans-36"/>
       <use x="63.623047" xlink:href="#DejaVuSans-30"/>
       <use x="127.246094" xlink:href="#DejaVuSans-30"/>
      </g>
     </g>
    </g>
    <g id="xtick_5">
     <g id="line2d_5">
      <g>
       <use style="stroke:#000000;stroke-width:0.8;" x="1110.477973" xlink:href="#mc855bf300c" y="586.86358"/>
      </g>
     </g>
     <g id="text_5">
      <!-- 800 -->
      <g transform="translate(1100.934223 601.462017)scale(0.1 -0.1)">
       <defs>
        <path d="M 2034 2216 
Q 1584 2216 1326 1975 
Q 1069 1734 1069 1313 
Q 1069 891 1326 650 
Q 1584 409 2034 409 
Q 2484 409 2743 651 
Q 3003 894 3003 1313 
Q 3003 1734 2745 1975 
Q 2488 2216 2034 2216 
z
M 1403 2484 
Q 997 2584 770 2862 
Q 544 3141 544 3541 
Q 544 4100 942 4425 
Q 1341 4750 2034 4750 
Q 2731 4750 3128 4425 
Q 3525 4100 3525 3541 
Q 3525 3141 3298 2862 
Q 3072 2584 2669 2484 
Q 3125 2378 3379 2068 
Q 3634 1759 3634 1313 
Q 3634 634 3220 271 
Q 2806 -91 2034 -91 
Q 1263 -91 848 271 
Q 434 634 434 1313 
Q 434 1759 690 2068 
Q 947 2378 1403 2484 
z
M 1172 3481 
Q 1172 3119 1398 2916 
Q 1625 2713 2034 2713 
Q 2441 2713 2670 2916 
Q 2900 3119 2900 3481 
Q 2900 3844 2670 4047 
Q 2441 4250 2034 4250 
Q 1625 4250 1398 4047 
Q 1172 3844 1172 3481 
z
" id="DejaVuSans-38" transform="scale(0.015625)"/>
       </defs>
       <use xlink:href="#DejaVuSans-38"/>
       <use x="63.623047" xlink:href="#DejaVuSans-30"/>
       <use x="127.246094" xlink:href="#DejaVuSans-30"/>
      </g>
     </g>
    </g>
    <g id="xtick_6">
     <g id="line2d_6">
      <g>
       <use style="stroke:#000000;stroke-width:0.8;" x="1358.129427" xlink:href="#mc855bf300c" y="586.86358"/>
      </g>
     </g>
     <g id="text_6">
      <!-- 1000 -->
      <g transform="translate(1345.404427 601.462017)scale(0.1 -0.1)">
       <defs>
        <path d="M 794 531 
L 1825 531 
L 1825 4091 
L 703 3866 
L 703 4441 
L 1819 4666 
L 2450 4666 
L 2450 531 
L 3481 531 
L 3481 0 
L 794 0 
L 794 531 
z
" id="DejaVuSans-31" transform="scale(0.015625)"/>
       </defs>
       <use xlink:href="#DejaVuSans-31"/>
       <use x="63.623047" xlink:href="#DejaVuSans-30"/>
       <use x="127.246094" xlink:href="#DejaVuSans-30"/>
       <use x="190.869141" xlink:href="#DejaVuSans-30"/>
      </g>
     </g>
    </g>
    <g id="xtick_7">
     <g id="line2d_7">
      <g>
       <use style="stroke:#000000;stroke-width:0.8;" x="1605.78088" xlink:href="#mc855bf300c" y="586.86358"/>
      </g>
     </g>
     <g id="text_7">
      <!-- 1200 -->
      <g transform="translate(1593.05588 601.462017)scale(0.1 -0.1)">
       <use xlink:href="#DejaVuSans-31"/>
       <use x="63.623047" xlink:href="#DejaVuSans-32"/>
       <use x="127.246094" xlink:href="#DejaVuSans-30"/>
       <use x="190.869141" xlink:href="#DejaVuSans-30"/>
      </g>
     </g>
    </g>
    <g id="text_8">
     <!-- frame -->
     <g transform="translate(865.954687 615.140142)scale(0.1 -0.1)">
      <defs>
       <path d="M 2375 4863 
L 2375 4384 
L 1825 4384 
Q 1516 4384 1395 4259 
Q 1275 4134 1275 3809 
L 1275 3500 
L 2222 3500 
L 2222 3053 
L 1275 3053 
L 1275 0 
L 697 0 
L 697 3053 
L 147 3053 
L 147 3500 
L 697 3500 
L 697 3744 
Q 697 4328 969 4595 
Q 1241 4863 1831 4863 
L 2375 4863 
z
" id="DejaVuSans-66" transform="scale(0.015625)"/>
       <path d="M 2631 2963 
Q 2534 3019 2420 3045 
Q 2306 3072 2169 3072 
Q 1681 3072 1420 2755 
Q 1159 2438 1159 1844 
L 1159 0 
L 581 0 
L 581 3500 
L 1159 3500 
L 1159 2956 
Q 1341 3275 1631 3429 
Q 1922 3584 2338 3584 
Q 2397 3584 2469 3576 
Q 2541 3569 2628 3553 
L 2631 2963 
z
" id="DejaVuSans-72" transform="scale(0.015625)"/>
       <path d="M 2194 1759 
Q 1497 1759 1228 1600 
Q 959 1441 959 1056 
Q 959 750 1161 570 
Q 1363 391 1709 391 
Q 2188 391 2477 730 
Q 2766 1069 2766 1631 
L 2766 1759 
L 2194 1759 
z
M 3341 1997 
L 3341 0 
L 2766 0 
L 2766 531 
Q 2569 213 2275 61 
Q 1981 -91 1556 -91 
Q 1019 -91 701 211 
Q 384 513 384 1019 
Q 384 1609 779 1909 
Q 1175 2209 1959 2209 
L 2766 2209 
L 2766 2266 
Q 2766 2663 2505 2880 
Q 2244 3097 1772 3097 
Q 1472 3097 1187 3025 
Q 903 2953 641 2809 
L 641 3341 
Q 956 3463 1253 3523 
Q 1550 3584 1831 3584 
Q 2591 3584 2966 3190 
Q 3341 2797 3341 1997 
z
" id="DejaVuSans-61" transform="scale(0.015625)"/>
       <path d="M 3328 2828 
Q 3544 3216 3844 3400 
Q 4144 3584 4550 3584 
Q 5097 3584 5394 3201 
Q 5691 2819 5691 2113 
L 5691 0 
L 5113 0 
L 5113 2094 
Q 5113 2597 4934 2840 
Q 4756 3084 4391 3084 
Q 3944 3084 3684 2787 
Q 3425 2491 3425 1978 
L 3425 0 
L 2847 0 
L 2847 2094 
Q 2847 2600 2669 2842 
Q 2491 3084 2119 3084 
Q 1678 3084 1418 2786 
Q 1159 2488 1159 1978 
L 1159 0 
L 581 0 
L 581 3500 
L 1159 3500 
L 1159 2956 
Q 1356 3278 1631 3431 
Q 1906 3584 2284 3584 
Q 2666 3584 2933 3390 
Q 3200 3197 3328 2828 
z
" id="DejaVuSans-6d" transform="scale(0.015625)"/>
       <path d="M 3597 1894 
L 3597 1613 
L 953 1613 
Q 991 1019 1311 708 
Q 1631 397 2203 397 
Q 2534 397 2845 478 
Q 3156 559 3463 722 
L 3463 178 
Q 3153 47 2828 -22 
Q 2503 -91 2169 -91 
Q 1331 -91 842 396 
Q 353 884 353 1716 
Q 353 2575 817 3079 
Q 1281 3584 2069 3584 
Q 2775 3584 3186 3129 
Q 3597 2675 3597 1894 
z
M 3022 2063 
Q 3016 2534 2758 2815 
Q 2500 3097 2075 3097 
Q 1594 3097 1305 2825 
Q 1016 2553 972 2059 
L 3022 2063 
z
" id="DejaVuSans-65" transform="scale(0.015625)"/>
      </defs>
      <use xlink:href="#DejaVuSans-66"/>
      <use x="35.205078" xlink:href="#DejaVuSans-72"/>
      <use x="76.318359" xlink:href="#DejaVuSans-61"/>
      <use x="137.597656" xlink:href="#DejaVuSans-6d"/>
      <use x="235.009766" xlink:href="#DejaVuSans-65"/>
     </g>
    </g>
   </g>
   <g id="matplotlib.axis_2">
    <g id="ytick_1">
     <g id="line2d_8">
      <defs>
       <path d="M 0 0 
L -3.5 0 
" id="mb0439fbc85" style="stroke:#000000;stroke-width:0.8;"/>
      </defs>
      <g>
       <use style="stroke:#000000;stroke-width:0.8;" x="43.78125" xlink:href="#mb0439fbc85" y="520.906271"/>
      </g>
     </g>
     <g id="text_9">
      <!-- 2.0 -->
      <g transform="translate(20.878125 524.70549)scale(0.1 -0.1)">
       <defs>
        <path d="M 684 794 
L 1344 794 
L 1344 0 
L 684 0 
L 684 794 
z
" id="DejaVuSans-2e" transform="scale(0.015625)"/>
       </defs>
       <use xlink:href="#DejaVuSans-32"/>
       <use x="63.623047" xlink:href="#DejaVuSans-2e"/>
       <use x="95.410156" xlink:href="#DejaVuSans-30"/>
      </g>
     </g>
    </g>
    <g id="ytick_2">
     <g id="line2d_9">
      <g>
       <use style="stroke:#000000;stroke-width:0.8;" x="43.78125" xlink:href="#mb0439fbc85" y="439.501003"/>
      </g>
     </g>
     <g id="text_10">
      <!-- 2.5 -->
      <g transform="translate(20.878125 443.300222)scale(0.1 -0.1)">
       <defs>
        <path d="M 691 4666 
L 3169 4666 
L 3169 4134 
L 1269 4134 
L 1269 2991 
Q 1406 3038 1543 3061 
Q 1681 3084 1819 3084 
Q 2600 3084 3056 2656 
Q 3513 2228 3513 1497 
Q 3513 744 3044 326 
Q 2575 -91 1722 -91 
Q 1428 -91 1123 -41 
Q 819 9 494 109 
L 494 744 
Q 775 591 1075 516 
Q 1375 441 1709 441 
Q 2250 441 2565 725 
Q 2881 1009 2881 1497 
Q 2881 1984 2565 2268 
Q 2250 2553 1709 2553 
Q 1456 2553 1204 2497 
Q 953 2441 691 2322 
L 691 4666 
z
" id="DejaVuSans-35" transform="scale(0.015625)"/>
       </defs>
       <use xlink:href="#DejaVuSans-32"/>
       <use x="63.623047" xlink:href="#DejaVuSans-2e"/>
       <use x="95.410156" xlink:href="#DejaVuSans-35"/>
      </g>
     </g>
    </g>
    <g id="ytick_3">
     <g id="line2d_10">
      <g>
       <use style="stroke:#000000;stroke-width:0.8;" x="43.78125" xlink:href="#mb0439fbc85" y="358.095734"/>
      </g>
     </g>
     <g id="text_11">
      <!-- 3.0 -->
      <g transform="translate(20.878125 361.894953)scale(0.1 -0.1)">
       <defs>
        <path d="M 2597 2516 
Q 3050 2419 3304 2112 
Q 3559 1806 3559 1356 
Q 3559 666 3084 287 
Q 2609 -91 1734 -91 
Q 1441 -91 1130 -33 
Q 819 25 488 141 
L 488 750 
Q 750 597 1062 519 
Q 1375 441 1716 441 
Q 2309 441 2620 675 
Q 2931 909 2931 1356 
Q 2931 1769 2642 2001 
Q 2353 2234 1838 2234 
L 1294 2234 
L 1294 2753 
L 1863 2753 
Q 2328 2753 2575 2939 
Q 2822 3125 2822 3475 
Q 2822 3834 2567 4026 
Q 2313 4219 1838 4219 
Q 1578 4219 1281 4162 
Q 984 4106 628 3988 
L 628 4550 
Q 988 4650 1302 4700 
Q 1616 4750 1894 4750 
Q 2613 4750 3031 4423 
Q 3450 4097 3450 3541 
Q 3450 3153 3228 2886 
Q 3006 2619 2597 2516 
z
" id="DejaVuSans-33" transform="scale(0.015625)"/>
       </defs>
       <use xlink:href="#DejaVuSans-33"/>
       <use x="63.623047" xlink:href="#DejaVuSans-2e"/>
       <use x="95.410156" xlink:href="#DejaVuSans-30"/>
      </g>
     </g>
    </g>
    <g id="ytick_4">
     <g id="line2d_11">
      <g>
       <use style="stroke:#000000;stroke-width:0.8;" x="43.78125" xlink:href="#mb0439fbc85" y="276.690466"/>
      </g>
     </g>
     <g id="text_12">
      <!-- 3.5 -->
      <g transform="translate(20.878125 280.489685)scale(0.1 -0.1)">
       <use xlink:href="#DejaVuSans-33"/>
       <use x="63.623047" xlink:href="#DejaVuSans-2e"/>
       <use x="95.410156" xlink:href="#DejaVuSans-35"/>
      </g>
     </g>
    </g>
    <g id="ytick_5">
     <g id="line2d_12">
      <g>
       <use style="stroke:#000000;stroke-width:0.8;" x="43.78125" xlink:href="#mb0439fbc85" y="195.285197"/>
      </g>
     </g>
     <g id="text_13">
      <!-- 4.0 -->
      <g transform="translate(20.878125 199.084416)scale(0.1 -0.1)">
       <use xlink:href="#DejaVuSans-34"/>
       <use x="63.623047" xlink:href="#DejaVuSans-2e"/>
       <use x="95.410156" xlink:href="#DejaVuSans-30"/>
      </g>
     </g>
    </g>
    <g id="ytick_6">
     <g id="line2d_13">
      <g>
       <use style="stroke:#000000;stroke-width:0.8;" x="43.78125" xlink:href="#mb0439fbc85" y="113.879929"/>
      </g>
     </g>
     <g id="text_14">
      <!-- 4.5 -->
      <g transform="translate(20.878125 117.679148)scale(0.1 -0.1)">
       <use xlink:href="#DejaVuSans-34"/>
       <use x="63.623047" xlink:href="#DejaVuSans-2e"/>
       <use x="95.410156" xlink:href="#DejaVuSans-35"/>
      </g>
     </g>
    </g>
    <g id="ytick_7">
     <g id="line2d_14">
      <g>
       <use style="stroke:#000000;stroke-width:0.8;" x="43.78125" xlink:href="#mb0439fbc85" y="32.47466"/>
      </g>
     </g>
     <g id="text_15">
      <!-- 5.0 -->
      <g transform="translate(20.878125 36.273879)scale(0.1 -0.1)">
       <use xlink:href="#DejaVuSans-35"/>
       <use x="63.623047" xlink:href="#DejaVuSans-2e"/>
       <use x="95.410156" xlink:href="#DejaVuSans-30"/>
      </g>
     </g>
    </g>
    <g id="text_16">
     <!-- GCaMP -->
     <g transform="translate(14.798437 322.349446)rotate(-90)scale(0.1 -0.1)">
      <defs>
       <path d="M 3809 666 
L 3809 1919 
L 2778 1919 
L 2778 2438 
L 4434 2438 
L 4434 434 
Q 4069 175 3628 42 
Q 3188 -91 2688 -91 
Q 1594 -91 976 548 
Q 359 1188 359 2328 
Q 359 3472 976 4111 
Q 1594 4750 2688 4750 
Q 3144 4750 3555 4637 
Q 3966 4525 4313 4306 
L 4313 3634 
Q 3963 3931 3569 4081 
Q 3175 4231 2741 4231 
Q 1884 4231 1454 3753 
Q 1025 3275 1025 2328 
Q 1025 1384 1454 906 
Q 1884 428 2741 428 
Q 3075 428 3337 486 
Q 3600 544 3809 666 
z
" id="DejaVuSans-47" transform="scale(0.015625)"/>
       <path d="M 4122 4306 
L 4122 3641 
Q 3803 3938 3442 4084 
Q 3081 4231 2675 4231 
Q 1875 4231 1450 3742 
Q 1025 3253 1025 2328 
Q 1025 1406 1450 917 
Q 1875 428 2675 428 
Q 3081 428 3442 575 
Q 3803 722 4122 1019 
L 4122 359 
Q 3791 134 3420 21 
Q 3050 -91 2638 -91 
Q 1578 -91 968 557 
Q 359 1206 359 2328 
Q 359 3453 968 4101 
Q 1578 4750 2638 4750 
Q 3056 4750 3426 4639 
Q 3797 4528 4122 4306 
z
" id="DejaVuSans-43" transform="scale(0.015625)"/>
       <path d="M 628 4666 
L 1569 4666 
L 2759 1491 
L 3956 4666 
L 4897 4666 
L 4897 0 
L 4281 0 
L 4281 4097 
L 3078 897 
L 2444 897 
L 1241 4097 
L 1241 0 
L 628 0 
L 628 4666 
z
" id="DejaVuSans-4d" transform="scale(0.015625)"/>
       <path d="M 1259 4147 
L 1259 2394 
L 2053 2394 
Q 2494 2394 2734 2622 
Q 2975 2850 2975 3272 
Q 2975 3691 2734 3919 
Q 2494 4147 2053 4147 
L 1259 4147 
z
M 628 4666 
L 2053 4666 
Q 2838 4666 3239 4311 
Q 3641 3956 3641 3272 
Q 3641 2581 3239 2228 
Q 2838 1875 2053 1875 
L 1259 1875 
L 1259 0 
L 628 0 
L 628 4666 
z
" id="DejaVuSans-50" transform="scale(0.015625)"/>
      </defs>
      <use xlink:href="#DejaVuSans-47"/>
      <use x="77.490234" xlink:href="#DejaVuSans-43"/>
      <use x="147.314453" xlink:href="#DejaVuSans-61"/>
      <use x="208.59375" xlink:href="#DejaVuSans-4d"/>
      <use x="294.873047" xlink:href="#DejaVuSans-50"/>
     </g>
    </g>
   </g>
   <g id="line2d_15">
    <path clip-path="url(#p06ca41e256)" d="M 119.872159 465.131139 
L 122.348674 470.761262 
L 123.586931 473.050756 
L 124.825188 474.218537 
L 126.063445 474.137953 
L 127.301703 473.600657 
L 128.53996 474.015211 
L 129.778217 475.954765 
L 131.016474 478.367145 
L 132.254732 480.0431 
L 133.492989 480.908014 
L 134.731246 481.315423 
L 135.969504 481.25988 
L 138.446018 480.229276 
L 139.684275 480.258954 
L 140.922533 481.017622 
L 142.16079 482.417786 
L 143.399047 484.36517 
L 145.875562 489.032743 
L 147.113819 490.897548 
L 148.352076 491.920815 
L 149.590334 491.991088 
L 150.828591 491.484901 
L 152.066848 491.210214 
L 153.305105 491.809469 
L 154.543363 493.198674 
L 157.019877 496.225758 
L 158.258134 497.341368 
L 159.496392 497.917301 
L 160.734649 497.685545 
L 161.972906 496.715055 
L 163.211163 495.536682 
L 166.925935 492.694826 
L 169.40245 489.379223 
L 170.640707 488.967681 
L 171.878964 490.75795 
L 174.355479 497.956766 
L 175.593736 501.406913 
L 176.831993 504.488809 
L 178.070251 506.884819 
L 179.308508 508.232157 
L 180.546765 508.579584 
L 181.785022 508.085525 
L 183.02328 506.617685 
L 184.261537 504.08663 
L 185.499794 501.188999 
L 186.738052 499.399205 
L 187.976309 499.845274 
L 189.214566 502.171034 
L 190.452823 504.861751 
L 191.691081 506.647561 
L 192.929338 507.079888 
L 194.167595 506.309634 
L 195.405852 505.081261 
L 196.64411 504.229582 
L 197.882367 503.554592 
L 199.120624 501.990012 
L 201.597139 496.843964 
L 202.835396 495.802437 
L 204.073653 496.470913 
L 205.311911 498.577487 
L 206.550168 501.826016 
L 207.788425 505.635225 
L 209.026682 508.716215 
L 210.26494 509.485106 
L 211.503197 507.52021 
L 212.741454 504.211581 
L 213.979711 501.563208 
L 215.217969 500.824265 
L 216.456226 502.10896 
L 218.93274 506.765469 
L 220.170998 507.935319 
L 222.647512 508.710533 
L 223.88577 509.622 
L 225.124027 510.823585 
L 226.362284 511.860971 
L 228.838799 513.104051 
L 230.077056 514.408691 
L 231.315313 517.031576 
L 235.030085 528.251918 
L 236.268342 530.632716 
L 237.5066 532.211694 
L 238.744857 533.1729 
L 239.983114 533.327681 
L 241.221371 532.389608 
L 242.459629 530.728231 
L 243.697886 529.478484 
L 244.936143 529.580452 
L 246.1744 531.048181 
L 247.412658 532.998284 
L 248.650915 534.225574 
L 249.889172 533.993366 
L 251.127429 532.390182 
L 252.365687 530.220666 
L 253.603944 528.4503 
L 256.080459 526.291594 
L 257.318716 524.733866 
L 258.556973 522.829504 
L 259.79523 521.16907 
L 261.033488 519.875459 
L 262.271745 518.291026 
L 263.510002 515.772481 
L 264.748259 512.763626 
L 265.986517 510.741635 
L 267.224774 510.880423 
L 268.463031 513.068644 
L 270.939546 519.275866 
L 272.177803 521.4456 
L 273.41606 522.681648 
L 274.654318 523.050617 
L 275.892575 522.532924 
L 278.369089 520.032905 
L 279.607347 519.267627 
L 280.845604 519.203754 
L 282.083861 519.51365 
L 283.322118 519.544469 
L 284.560376 518.729071 
L 287.03689 515.499468 
L 288.275147 514.926556 
L 289.513405 515.859959 
L 291.989919 519.675503 
L 293.228177 520.418874 
L 294.466434 519.770625 
L 295.704691 518.108798 
L 296.942948 516.091617 
L 298.181206 514.396099 
L 299.419463 513.446906 
L 300.65772 513.333189 
L 301.895977 514.01555 
L 303.134235 515.504005 
L 304.372492 517.760327 
L 306.849006 523.022278 
L 308.087264 524.890789 
L 309.325521 525.77743 
L 310.563778 525.834339 
L 313.040293 525.194174 
L 315.516807 525.096113 
L 316.755065 525.503366 
L 317.993322 527.296769 
L 319.231579 531.131804 
L 322.946351 547.20268 
L 324.184608 550.727825 
L 325.422866 552.585919 
L 326.661123 552.65586 
L 327.89938 550.761488 
L 329.137637 547.11327 
L 334.090666 529.012019 
L 335.328924 525.837289 
L 336.567181 524.113923 
L 337.805438 523.897 
L 339.043695 524.905868 
L 340.281953 526.917441 
L 341.52021 529.883812 
L 342.758467 533.356927 
L 343.996725 536.349196 
L 345.234982 538.077586 
L 346.473239 538.360973 
L 347.711496 537.269641 
L 350.188011 533.257272 
L 351.426268 532.920611 
L 352.664525 534.39457 
L 353.902783 536.485568 
L 355.14104 537.867226 
L 356.379297 538.20193 
L 357.617554 537.891427 
L 362.570584 535.74927 
L 363.808841 535.606292 
L 365.047098 536.347041 
L 366.285355 538.196784 
L 368.76187 543.352741 
L 370.000127 545.05078 
L 371.238384 545.64619 
L 372.476642 545.536418 
L 373.714899 545.303017 
L 376.191413 545.150144 
L 378.667928 545.222511 
L 379.906185 545.283498 
L 381.144443 545.033532 
L 382.3827 544.308353 
L 383.620957 543.274882 
L 384.859214 542.484664 
L 386.097472 542.616016 
L 387.335729 543.960733 
L 391.050501 550.303322 
L 392.288758 550.961246 
L 393.527015 549.7887 
L 394.765272 547.141987 
L 397.241787 540.633255 
L 399.718302 533.253681 
L 400.956559 530.407185 
L 402.194816 529.288952 
L 403.433073 530.28292 
L 404.671331 532.911563 
L 405.909588 535.995226 
L 407.147845 538.309439 
L 408.386102 539.233431 
L 409.62436 538.854502 
L 410.862617 537.512714 
L 413.339132 533.950796 
L 414.577389 533.053311 
L 415.815646 532.820341 
L 417.053903 532.772725 
L 418.292161 532.937113 
L 419.530418 533.816784 
L 420.768675 535.766049 
L 422.006932 538.703079 
L 423.24519 541.989848 
L 424.483447 544.802986 
L 425.721704 547.154317 
L 426.959961 549.934258 
L 429.436476 557.470444 
L 430.674733 560.212892 
L 431.912991 561.202423 
L 433.151248 560.70216 
L 434.389505 559.512253 
L 435.627762 558.564296 
L 436.86602 558.289956 
L 438.104277 558.294484 
L 439.342534 557.903276 
L 440.580791 557.026508 
L 441.819049 556.404683 
L 443.057306 556.718707 
L 444.295563 557.571237 
L 445.53382 557.924751 
L 446.772078 557.288136 
L 448.010335 555.955216 
L 454.201621 548.511992 
L 455.439879 547.206807 
L 456.678136 546.514648 
L 457.916393 546.416522 
L 460.392908 546.591302 
L 462.869422 546.458652 
L 464.107679 546.901198 
L 465.345937 548.014699 
L 466.584194 548.971673 
L 467.822451 548.632547 
L 469.060709 546.632451 
L 470.298966 543.32398 
L 472.77548 535.625697 
L 474.013738 533.082631 
L 475.251995 532.516548 
L 476.490252 534.080867 
L 477.728509 536.84614 
L 478.966767 539.329257 
L 480.205024 540.544912 
L 481.443281 540.317876 
L 483.919796 537.832414 
L 485.158053 537.676366 
L 486.39631 539.408166 
L 487.634568 542.910585 
L 490.111082 551.650479 
L 491.349339 555.433577 
L 492.587597 557.96835 
L 493.825854 558.640063 
L 495.064111 557.398511 
L 496.302368 554.689273 
L 498.778883 548.164952 
L 500.01714 546.222651 
L 501.255397 545.682843 
L 502.493655 546.068267 
L 503.731912 546.670824 
L 504.970169 547.050631 
L 506.208427 546.83233 
L 507.446684 545.564553 
L 509.923198 540.769402 
L 511.161456 539.022263 
L 512.399713 538.590952 
L 513.63797 539.483524 
L 514.876227 541.136201 
L 516.114485 542.412058 
L 517.352742 542.316355 
L 518.590999 540.746901 
L 519.829257 538.398604 
L 521.067514 536.43657 
L 522.305771 535.859724 
L 523.544028 536.628798 
L 526.020543 539.440001 
L 528.497057 542.691355 
L 530.973572 546.236035 
L 532.211829 547.687352 
L 533.450086 548.739464 
L 534.688344 549.552751 
L 535.926601 549.925122 
L 537.164858 549.055943 
L 538.403116 546.309963 
L 542.117887 533.552958 
L 543.356145 531.09246 
L 544.594402 530.038174 
L 545.832659 530.175221 
L 548.309174 532.025946 
L 549.547431 532.293374 
L 550.785688 531.842214 
L 552.023945 531.54207 
L 553.262203 532.437536 
L 555.738717 536.829399 
L 556.976975 537.864514 
L 558.215232 537.621546 
L 559.453489 537.255111 
L 560.691746 538.022253 
L 561.930004 540.191305 
L 563.168261 542.961723 
L 564.406518 545.088146 
L 565.644775 545.687165 
L 566.883033 544.832097 
L 569.359547 541.984209 
L 571.836062 539.810732 
L 573.074319 538.194446 
L 574.312576 535.834521 
L 575.550834 532.742571 
L 576.789091 529.30804 
L 578.027348 526.407074 
L 579.265605 524.811864 
L 580.503863 524.722349 
L 581.74212 526.034759 
L 582.980377 528.175003 
L 584.218634 529.890805 
L 585.456892 530.209098 
L 586.695149 529.25311 
L 587.933406 527.801148 
L 589.171663 526.604756 
L 590.409921 526.078344 
L 592.886435 526.019992 
L 594.124693 525.504923 
L 597.839464 522.825174 
L 599.077722 522.014709 
L 600.315979 520.474015 
L 601.554236 517.563443 
L 602.792493 513.294371 
L 604.030751 508.506266 
L 605.269008 504.582492 
L 606.507265 502.789701 
L 607.745523 503.600549 
L 608.98378 506.447982 
L 610.222037 509.857496 
L 611.460294 511.922096 
L 612.698552 511.34137 
L 613.936809 508.449637 
L 615.175066 504.867219 
L 616.413323 502.026243 
L 617.651581 500.399276 
L 618.889838 499.964836 
L 620.128095 500.649692 
L 621.366352 501.952381 
L 622.60461 502.899048 
L 623.842867 502.894093 
L 625.081124 502.249658 
L 626.319382 501.782191 
L 628.795896 501.993029 
L 630.034153 502.092659 
L 631.272411 502.619592 
L 633.748925 504.602563 
L 634.987182 505.409345 
L 636.22544 506.067629 
L 637.463697 506.404251 
L 638.701954 506.604806 
L 639.940211 507.20891 
L 641.178469 508.475174 
L 642.416726 510.347606 
L 643.654983 512.79617 
L 644.893241 515.541194 
L 646.131498 517.418479 
L 647.369755 516.733042 
L 648.608012 512.804875 
L 649.84627 507.171204 
L 651.084527 502.799691 
L 652.322784 501.755377 
L 653.561041 503.880766 
L 654.799299 507.440304 
L 656.037556 510.111906 
L 657.275813 509.748818 
L 658.51407 505.569185 
L 662.228842 485.573606 
L 664.705357 474.249821 
L 665.943614 468.212192 
L 667.181871 462.818949 
L 668.420129 459.436362 
L 669.658386 458.915068 
L 670.896643 460.893819 
L 673.373158 467.626027 
L 674.611415 469.337938 
L 675.849672 467.901538 
L 677.087929 463.32351 
L 678.326187 457.397682 
L 679.564444 452.695049 
L 680.802701 451.214938 
L 682.040959 453.467895 
L 683.279216 458.49199 
L 685.75573 470.330279 
L 686.993988 473.919574 
L 688.232245 474.607365 
L 689.470502 472.91227 
L 690.708759 470.432781 
L 691.947017 468.601802 
L 694.423531 466.614039 
L 695.661789 464.885965 
L 696.900046 462.831629 
L 698.138303 461.293882 
L 699.37656 460.594 
L 701.853075 460.449247 
L 703.091332 459.714233 
L 704.329589 458.339053 
L 705.567847 457.314418 
L 706.806104 457.603291 
L 708.044361 459.442957 
L 709.282618 462.768831 
L 711.759133 472.473134 
L 712.99739 475.909772 
L 714.235648 476.208654 
L 715.473905 473.509057 
L 719.188677 460.945466 
L 720.426934 458.466583 
L 721.665191 458.601743 
L 722.903448 461.378815 
L 724.141706 465.119525 
L 725.379963 468.153358 
L 726.61822 469.912838 
L 727.856477 470.511363 
L 729.094735 470.688064 
L 730.332992 471.412644 
L 731.571249 472.698476 
L 732.809507 473.73225 
L 734.047764 473.913586 
L 735.286021 473.093251 
L 736.524278 471.57021 
L 739.000793 467.906796 
L 740.23905 465.862999 
L 741.477307 464.661376 
L 742.715565 465.354476 
L 743.953822 467.83168 
L 745.192079 470.984466 
L 746.430336 473.633179 
L 747.668594 475.132389 
L 748.906851 475.257601 
L 750.145108 473.877567 
L 751.383366 471.165038 
L 752.621623 467.947956 
L 753.85988 465.349435 
L 755.098137 463.991227 
L 756.336395 463.86742 
L 757.574652 464.695823 
L 758.812909 465.95476 
L 760.051166 467.03051 
L 761.289424 467.640119 
L 762.527681 467.892478 
L 763.765938 467.962636 
L 765.004195 467.821558 
L 766.242453 467.202866 
L 767.48071 465.948557 
L 768.718967 464.438826 
L 769.957225 463.508858 
L 771.195482 464.004212 
L 772.433739 466.052534 
L 773.671996 468.41074 
L 774.910254 469.300641 
L 776.148511 468.256093 
L 777.386768 466.464304 
L 778.625025 465.342034 
L 779.863283 465.47462 
L 781.10154 466.771057 
L 782.339797 468.988846 
L 783.578054 471.743171 
L 784.816312 474.019631 
L 786.054569 474.557804 
L 787.292826 473.222592 
L 791.007598 466.860805 
L 792.245855 465.314965 
L 793.484113 464.909995 
L 794.72237 465.676321 
L 795.960627 466.738803 
L 797.198884 467.368584 
L 798.437142 467.846622 
L 799.675399 468.681378 
L 800.913656 469.658356 
L 803.390171 471.03739 
L 804.628428 471.715024 
L 805.866685 471.857185 
L 807.104943 470.744906 
L 808.3432 468.469474 
L 810.819714 462.84701 
L 812.057972 460.389056 
L 813.296229 458.827246 
L 814.534486 458.635654 
L 815.772743 460.083049 
L 817.011001 463.189989 
L 819.487515 472.039602 
L 820.725773 475.459402 
L 821.96403 476.869213 
L 823.202287 476.155538 
L 824.440544 473.670745 
L 826.917059 465.874102 
L 828.155316 463.235353 
L 829.393573 463.32473 
L 830.631831 466.159331 
L 833.108345 474.301028 
L 834.346602 476.388667 
L 835.58486 476.093818 
L 836.823117 473.77008 
L 839.299632 467.242613 
L 840.537889 464.929078 
L 843.014403 461.989084 
L 844.252661 460.143039 
L 845.490918 458.563984 
L 846.729175 458.514048 
L 847.967432 460.424019 
L 849.20569 463.354912 
L 850.443947 465.955709 
L 851.682204 467.407961 
L 852.920461 467.511699 
L 854.158719 466.602065 
L 855.396976 465.53526 
L 856.635233 465.327756 
L 857.873491 466.595863 
L 859.111748 469.397341 
L 862.82652 481.166889 
L 864.064777 483.361929 
L 865.303034 483.907308 
L 866.541291 482.672618 
L 867.779549 479.455989 
L 869.017806 474.077011 
L 872.732578 452.818867 
L 873.970835 448.46387 
L 875.209092 447.456648 
L 876.44735 449.69044 
L 877.685607 453.61637 
L 878.923864 457.157103 
L 880.162121 458.907681 
L 881.400379 458.668569 
L 882.638636 457.393515 
L 883.876893 456.455968 
L 885.11515 456.330299 
L 886.353408 456.380809 
L 887.591665 456.150874 
L 888.829922 456.086663 
L 890.06818 456.906206 
L 891.306437 458.868073 
L 892.544694 461.51362 
L 893.782951 463.824158 
L 895.021209 465.109446 
L 896.259466 465.807445 
L 897.497723 466.823276 
L 901.212495 471.518735 
L 902.450752 471.941762 
L 903.689009 471.138407 
L 904.927267 469.328063 
L 907.403781 465.047427 
L 908.642039 463.451347 
L 909.880296 462.446109 
L 911.118553 462.460305 
L 912.35681 463.844719 
L 913.595068 466.025558 
L 914.833325 467.800399 
L 917.309839 469.777817 
L 918.548097 471.937828 
L 921.024611 478.256985 
L 922.262868 479.398278 
L 923.501126 477.633947 
L 924.739383 473.573384 
L 925.97764 468.806962 
L 927.215898 464.89911 
L 928.454155 462.768406 
L 929.692412 462.330393 
L 930.930669 462.927844 
L 933.407184 465.21279 
L 934.645441 465.97378 
L 935.883698 465.64679 
L 937.121956 463.764643 
L 940.836727 454.329526 
L 945.789757 445.366877 
L 947.028014 443.078234 
L 948.266271 441.170354 
L 949.504528 440.287692 
L 950.742786 440.633654 
L 953.2193 442.915092 
L 954.457557 443.406681 
L 955.695815 443.033189 
L 956.934072 442.07644 
L 958.172329 441.421959 
L 959.410586 441.95762 
L 960.648844 443.34855 
L 961.887101 444.071625 
L 963.125358 442.637569 
L 964.363616 438.623065 
L 966.84013 427.312296 
L 968.078387 422.780607 
L 969.316645 419.893086 
L 970.554902 418.840619 
L 971.793159 419.827073 
L 973.031416 422.81582 
L 974.269674 426.787016 
L 975.507931 430.236429 
L 976.746188 432.706975 
L 977.984446 434.689608 
L 979.222703 436.358147 
L 980.46096 437.562076 
L 981.699217 438.539933 
L 982.937475 439.699713 
L 985.413989 442.468123 
L 987.890504 445.47396 
L 989.128761 446.612894 
L 990.367018 447.01234 
L 991.605275 446.663712 
L 992.843533 445.427785 
L 995.320047 440.856596 
L 996.558305 439.6796 
L 997.796562 440.06912 
L 1000.273076 442.380202 
L 1001.511334 442.77162 
L 1002.749591 442.167844 
L 1003.987848 440.715943 
L 1005.226105 438.88015 
L 1006.464363 437.272739 
L 1007.70262 436.579373 
L 1008.940877 437.283393 
L 1011.417392 441.094866 
L 1012.655649 442.347733 
L 1013.893906 442.850451 
L 1015.132164 443.024942 
L 1016.370421 442.885235 
L 1017.608678 441.919744 
L 1018.846935 439.701048 
L 1020.085193 436.079059 
L 1021.32345 431.000367 
L 1022.561707 424.643863 
L 1023.799964 417.291523 
L 1025.038222 408.828096 
L 1028.752993 380.290835 
L 1029.991251 373.071612 
L 1031.229508 367.425181 
L 1032.467765 362.943854 
L 1033.706023 359.599412 
L 1034.94428 358.000397 
L 1036.182537 358.983604 
L 1037.420794 362.543573 
L 1038.659052 366.932737 
L 1039.897309 369.464344 
L 1041.135566 368.627918 
L 1042.373823 364.92052 
L 1044.850338 354.278511 
L 1046.088595 349.873009 
L 1047.326852 346.775223 
L 1048.56511 344.020107 
L 1051.041624 337.931268 
L 1052.279882 336.762408 
L 1053.518139 337.746615 
L 1054.756396 340.063063 
L 1058.471168 348.149436 
L 1059.709425 349.829704 
L 1060.947682 350.375858 
L 1063.424197 349.699591 
L 1064.662454 349.717055 
L 1065.900711 348.934902 
L 1067.138969 345.887288 
L 1068.377226 340.682002 
L 1069.615483 334.590465 
L 1070.853741 329.171128 
L 1072.091998 326.459913 
L 1073.330255 328.389888 
L 1074.568512 334.918559 
L 1075.80677 343.352489 
L 1077.045027 350.26837 
L 1078.283284 353.658437 
L 1079.521541 353.373571 
L 1080.759799 350.95378 
L 1081.998056 349.207505 
L 1083.236313 350.754405 
L 1084.474571 356.434615 
L 1086.951085 372.881707 
L 1088.189342 377.395552 
L 1089.4276 377.005413 
L 1090.665857 372.542455 
L 1093.142371 359.926957 
L 1094.380629 355.041771 
L 1095.618886 351.195188 
L 1096.857143 347.95321 
L 1099.333658 342.277352 
L 1100.571915 338.201458 
L 1101.810172 332.329235 
L 1105.524944 310.960107 
L 1108.001459 298.966309 
L 1110.477973 288.188735 
L 1114.192745 270.476552 
L 1115.431002 265.61748 
L 1116.669259 261.807671 
L 1117.907517 259.23342 
L 1119.145774 258.146568 
L 1120.384031 258.350202 
L 1121.622289 258.998735 
L 1122.860546 258.894042 
L 1124.098803 257.297583 
L 1125.33706 254.924741 
L 1126.575318 253.609041 
L 1127.813575 254.744078 
L 1129.051832 258.731173 
L 1130.290089 265.462417 
L 1132.766604 282.786302 
L 1134.004861 289.475138 
L 1135.243118 292.857213 
L 1136.481376 292.748886 
L 1137.719633 290.054369 
L 1138.95789 286.423607 
L 1140.196148 283.315609 
L 1141.434405 281.152984 
L 1142.672662 279.460949 
L 1143.910919 277.521642 
L 1145.149177 275.266211 
L 1146.387434 273.563085 
L 1147.625691 273.064621 
L 1148.863948 273.648689 
L 1150.102206 275.30944 
L 1151.340463 278.271656 
L 1153.816977 285.827695 
L 1155.055235 288.566924 
L 1156.293492 290.415383 
L 1157.531749 291.643757 
L 1158.770007 292.02384 
L 1160.008264 291.445417 
L 1161.246521 290.620892 
L 1162.484778 290.407763 
L 1163.723036 290.723502 
L 1164.961293 290.186191 
L 1166.19955 286.735337 
L 1167.437807 279.393215 
L 1168.676065 269.755465 
L 1169.914322 261.156744 
L 1171.152579 256.335502 
L 1172.390837 255.954979 
L 1173.629094 258.707293 
L 1174.867351 262.49458 
L 1176.105608 265.615075 
L 1177.343866 267.079477 
L 1178.582123 266.54242 
L 1179.82038 264.461988 
L 1181.058637 262.112444 
L 1182.296895 260.833552 
L 1183.535152 260.929832 
L 1184.773409 261.752981 
L 1187.249924 263.589665 
L 1188.488181 264.203791 
L 1189.726438 264.53443 
L 1190.964696 264.409592 
L 1192.202953 263.171528 
L 1193.44121 260.419223 
L 1194.679467 257.225279 
L 1195.917725 255.31955 
L 1197.155982 254.961526 
L 1198.394239 254.955368 
L 1199.632496 254.410262 
L 1200.870754 253.517601 
L 1202.109011 253.249013 
L 1203.347268 254.60214 
L 1204.585525 257.554402 
L 1205.823783 260.944349 
L 1207.06204 263.632763 
L 1208.300297 265.674363 
L 1209.538555 268.325977 
L 1210.776812 272.585649 
L 1212.015069 278.000398 
L 1213.253326 282.912812 
L 1214.491584 285.156042 
L 1215.729841 283.157512 
L 1216.968098 276.813506 
L 1218.206355 267.187515 
L 1220.68287 245.015113 
L 1223.159384 225.643591 
L 1224.397642 217.444314 
L 1225.635899 210.513941 
L 1226.874156 204.854385 
L 1228.112414 200.35125 
L 1229.350671 196.986518 
L 1230.588928 194.664504 
L 1231.827185 193.108504 
L 1233.065443 192.161614 
L 1234.3037 191.555219 
L 1235.541957 190.46314 
L 1238.018472 186.250488 
L 1239.256729 185.449245 
L 1240.494986 186.29199 
L 1241.733243 187.69963 
L 1242.971501 188.389422 
L 1244.209758 187.621131 
L 1245.448015 185.390101 
L 1247.92453 179.692482 
L 1249.162787 176.98205 
L 1250.401044 173.373133 
L 1251.639302 167.956779 
L 1254.115816 153.771223 
L 1255.354073 149.006222 
L 1256.592331 148.719595 
L 1257.830588 153.533861 
L 1260.307103 170.52342 
L 1261.54536 176.02879 
L 1262.783617 176.375674 
L 1264.021874 171.84867 
L 1265.260132 164.988789 
L 1266.498389 159.627605 
L 1267.736646 158.825743 
L 1268.974903 162.695995 
L 1270.213161 168.394423 
L 1271.451418 172.160442 
L 1272.689675 171.478371 
L 1273.927932 166.21927 
L 1276.404447 149.763946 
L 1277.642704 143.444986 
L 1278.880962 140.987496 
L 1280.119219 142.54955 
L 1282.595733 149.822578 
L 1283.833991 151.404673 
L 1285.072248 150.047767 
L 1286.310505 145.578449 
L 1287.548762 139.967705 
L 1288.78702 136.370975 
L 1290.025277 136.199023 
L 1291.263534 138.045034 
L 1292.501791 139.369758 
L 1293.740049 138.758962 
L 1294.978306 136.33859 
L 1296.216563 132.690547 
L 1299.931335 120.203971 
L 1301.169592 115.280785 
L 1302.40785 108.689506 
L 1304.884364 93.288495 
L 1306.122621 88.104848 
L 1307.360879 85.65733 
L 1308.599136 85.086761 
L 1309.837393 85.478769 
L 1311.07565 86.828792 
L 1312.313908 89.861248 
L 1313.552165 95.098348 
L 1316.02868 109.857071 
L 1317.266937 115.611407 
L 1318.505194 117.592797 
L 1319.743451 115.99715 
L 1320.981709 113.055638 
L 1322.219966 111.163951 
L 1323.458223 111.115517 
L 1324.69648 112.094092 
L 1325.934738 112.735525 
L 1327.172995 112.21936 
L 1328.411252 111.040292 
L 1334.602539 106.418449 
L 1335.840796 105.876538 
L 1337.079053 106.029277 
L 1338.31731 107.322951 
L 1339.555568 108.955485 
L 1340.793825 109.643312 
L 1342.032082 109.147156 
L 1343.270339 107.811275 
L 1344.508597 105.060192 
L 1345.746854 100.051825 
L 1346.985111 93.735769 
L 1348.223368 88.695543 
L 1349.461626 87.155211 
L 1350.699883 89.642627 
L 1351.93814 94.915364 
L 1353.176398 100.752373 
L 1354.414655 104.66947 
L 1355.652912 104.809596 
L 1356.891169 101.087596 
L 1360.605941 82.99083 
L 1361.844198 79.00924 
L 1363.082456 76.568341 
L 1364.320713 74.910964 
L 1365.55897 73.586007 
L 1366.797228 73.818054 
L 1368.035485 76.862207 
L 1369.273742 81.113505 
L 1370.511999 83.047741 
L 1371.750257 80.548341 
L 1372.988514 74.333015 
L 1374.226771 67.228111 
L 1375.465028 62.346915 
L 1376.703286 61.196261 
L 1377.941543 63.167754 
L 1379.1798 66.240817 
L 1380.418057 67.703383 
L 1381.656315 65.381851 
L 1382.894572 59.350853 
L 1384.132829 52.314082 
L 1385.371087 47.979282 
L 1386.609344 48.060973 
L 1387.847601 50.920387 
L 1390.324116 57.774891 
L 1391.562373 62.756411 
L 1392.80063 69.820265 
L 1394.038887 78.011611 
L 1395.277145 84.927606 
L 1396.515402 88.069278 
L 1397.753659 86.369819 
L 1398.991916 80.814503 
L 1401.468431 66.563247 
L 1402.706688 61.162638 
L 1403.944946 58.211216 
L 1405.183203 57.66323 
L 1406.42146 59.140075 
L 1407.659717 63.052691 
L 1408.897975 69.962613 
L 1410.136232 78.40614 
L 1411.374489 85.028032 
L 1412.612746 87.377363 
L 1413.851004 85.395204 
L 1416.327518 76.127004 
L 1417.565775 73.323766 
L 1418.804033 72.44961 
L 1420.04229 72.104036 
L 1421.280547 71.195196 
L 1422.518805 69.87512 
L 1423.757062 69.003617 
L 1424.995319 69.121516 
L 1426.233576 69.766281 
L 1427.471834 69.913403 
L 1428.710091 69.124077 
L 1429.948348 67.823888 
L 1431.186605 66.836267 
L 1432.424863 66.894667 
L 1433.66312 68.214357 
L 1434.901377 70.585312 
L 1436.139634 73.706119 
L 1438.616149 80.85011 
L 1439.854406 83.811306 
L 1441.092664 85.251771 
L 1442.330921 85.242016 
L 1443.569178 84.717211 
L 1444.807435 83.927211 
L 1446.045693 82.404407 
L 1447.28395 80.529294 
L 1448.522207 79.908911 
L 1449.760464 81.870577 
L 1452.236979 89.915139 
L 1453.475236 91.461822 
L 1454.713494 89.871677 
L 1455.951751 86.677906 
L 1457.190008 84.537951 
L 1458.428265 85.237288 
L 1459.666523 88.61593 
L 1460.90478 93.202433 
L 1462.143037 97.136706 
L 1463.381294 98.81395 
L 1464.619552 98.008219 
L 1465.857809 96.006871 
L 1467.096066 94.319312 
L 1468.334323 94.340898 
L 1469.572581 97.305648 
L 1470.810838 102.992852 
L 1472.049095 109.342076 
L 1473.287353 113.752195 
L 1474.52561 114.507045 
L 1475.763867 111.82416 
L 1478.240382 103.536833 
L 1479.478639 101.157927 
L 1480.716896 100.659363 
L 1483.193411 101.822463 
L 1484.431668 102.220757 
L 1485.669925 103.088399 
L 1486.908182 104.656001 
L 1488.14644 105.718658 
L 1489.384697 104.526939 
L 1490.622954 100.533965 
L 1493.099469 89.898549 
L 1494.337726 86.730097 
L 1495.575983 86.586656 
L 1496.814241 89.905431 
L 1499.290755 100.797123 
L 1500.529012 105.409214 
L 1501.76727 110.996574 
L 1504.243784 126.950929 
L 1505.482041 132.19935 
L 1506.720299 132.483114 
L 1507.958556 128.650832 
L 1509.196813 123.474524 
L 1510.435071 119.149743 
L 1511.673328 116.443792 
L 1512.911585 115.913147 
L 1514.149842 118.206724 
L 1515.3881 123.392883 
L 1517.864614 137.418132 
L 1519.102871 142.148118 
L 1520.341129 143.414001 
L 1521.579386 141.45041 
L 1522.817643 138.53762 
L 1524.0559 137.814976 
L 1525.294158 140.90083 
L 1526.532415 147.379129 
L 1529.00893 165.320274 
L 1530.247187 174.097105 
L 1531.485444 181.255859 
L 1532.723701 186.141691 
L 1533.961959 188.583756 
L 1535.200216 188.705378 
L 1536.438473 186.945269 
L 1537.67673 184.037574 
L 1540.153245 177.349328 
L 1541.391502 175.422735 
L 1542.62976 176.813513 
L 1543.868017 182.823788 
L 1546.344531 201.409943 
L 1547.582789 206.081568 
L 1548.821046 204.714504 
L 1551.29756 194.701576 
L 1552.535818 193.539176 
L 1553.774075 196.349127 
L 1556.250589 206.969741 
L 1557.488847 209.835502 
L 1558.727104 208.739725 
L 1561.203619 200.980363 
L 1562.441876 200.684531 
L 1563.680133 204.106368 
L 1564.91839 208.487862 
L 1566.156648 210.380455 
L 1567.394905 207.90186 
L 1569.871419 196.057659 
L 1571.109677 194.255017 
L 1572.347934 197.787401 
L 1574.824448 211.600736 
L 1576.062706 216.311024 
L 1577.300963 218.254466 
L 1578.53922 219.300905 
L 1579.777478 221.957047 
L 1583.492249 235.56508 
L 1584.730507 238.704404 
L 1585.968764 240.817045 
L 1587.207021 241.451276 
L 1589.683536 240.229103 
L 1590.921793 241.219337 
L 1592.16005 244.217768 
L 1593.398307 248.752843 
L 1594.636565 254.311121 
L 1597.113079 265.940999 
L 1598.351337 269.36531 
L 1599.589594 269.190561 
L 1600.827851 265.330936 
L 1602.066108 259.881691 
L 1603.304366 255.81738 
L 1604.542623 254.642522 
L 1605.78088 255.743664 
L 1607.019137 257.501844 
L 1609.495652 260.304354 
L 1611.972166 263.903873 
L 1613.210424 264.426181 
L 1614.448681 263.383575 
L 1615.686938 262.04444 
L 1616.925196 262.288706 
L 1618.163453 264.592263 
L 1619.40171 267.741166 
L 1620.639967 270.473595 
L 1621.878225 272.353893 
L 1623.116482 272.936169 
L 1624.354739 271.576865 
L 1628.069511 262.845884 
L 1630.546026 258.384682 
L 1631.784283 255.201992 
L 1633.02254 250.971319 
L 1635.499055 240.936502 
L 1637.975569 230.646241 
L 1639.213826 223.410244 
L 1640.452084 211.549223 
L 1641.690341 195.415963 
L 1641.690341 195.415963 
" style="fill:none;stroke:#008000;stroke-linecap:square;stroke-width:1.5;"/>
   </g>
   <g id="patch_3">
    <path d="M 43.78125 586.86358 
L 43.78125 22.318125 
" style="fill:none;stroke:#000000;stroke-linecap:square;stroke-linejoin:miter;stroke-width:0.8;"/>
   </g>
   <g id="patch_4">
    <path d="M 1717.78125 586.86358 
L 1717.78125 22.318125 
" style="fill:none;stroke:#000000;stroke-linecap:square;stroke-linejoin:miter;stroke-width:0.8;"/>
   </g>
   <g id="patch_5">
    <path d="M 43.78125 586.86358 
L 1717.78125 586.86358 
" style="fill:none;stroke:#000000;stroke-linecap:square;stroke-linejoin:miter;stroke-width:0.8;"/>
   </g>
   <g id="patch_6">
    <path d="M 43.78125 22.318125 
L 1717.78125 22.318125 
" style="fill:none;stroke:#000000;stroke-linecap:square;stroke-linejoin:miter;stroke-width:0.8;"/>
   </g>
   <g id="text_17">
    <!-- before binarisation -->
    <g transform="translate(824.1825 16.318125)scale(0.12 -0.12)">
     <defs>
      <path d="M 3116 1747 
Q 3116 2381 2855 2742 
Q 2594 3103 2138 3103 
Q 1681 3103 1420 2742 
Q 1159 2381 1159 1747 
Q 1159 1113 1420 752 
Q 1681 391 2138 391 
Q 2594 391 2855 752 
Q 3116 1113 3116 1747 
z
M 1159 2969 
Q 1341 3281 1617 3432 
Q 1894 3584 2278 3584 
Q 2916 3584 3314 3078 
Q 3713 2572 3713 1747 
Q 3713 922 3314 415 
Q 2916 -91 2278 -91 
Q 1894 -91 1617 61 
Q 1341 213 1159 525 
L 1159 0 
L 581 0 
L 581 4863 
L 1159 4863 
L 1159 2969 
z
" id="DejaVuSans-62" transform="scale(0.015625)"/>
      <path d="M 1959 3097 
Q 1497 3097 1228 2736 
Q 959 2375 959 1747 
Q 959 1119 1226 758 
Q 1494 397 1959 397 
Q 2419 397 2687 759 
Q 2956 1122 2956 1747 
Q 2956 2369 2687 2733 
Q 2419 3097 1959 3097 
z
M 1959 3584 
Q 2709 3584 3137 3096 
Q 3566 2609 3566 1747 
Q 3566 888 3137 398 
Q 2709 -91 1959 -91 
Q 1206 -91 779 398 
Q 353 888 353 1747 
Q 353 2609 779 3096 
Q 1206 3584 1959 3584 
z
" id="DejaVuSans-6f" transform="scale(0.015625)"/>
      <path id="DejaVuSans-20" transform="scale(0.015625)"/>
      <path d="M 603 3500 
L 1178 3500 
L 1178 0 
L 603 0 
L 603 3500 
z
M 603 4863 
L 1178 4863 
L 1178 4134 
L 603 4134 
L 603 4863 
z
" id="DejaVuSans-69" transform="scale(0.015625)"/>
      <path d="M 3513 2113 
L 3513 0 
L 2938 0 
L 2938 2094 
Q 2938 2591 2744 2837 
Q 2550 3084 2163 3084 
Q 1697 3084 1428 2787 
Q 1159 2491 1159 1978 
L 1159 0 
L 581 0 
L 581 3500 
L 1159 3500 
L 1159 2956 
Q 1366 3272 1645 3428 
Q 1925 3584 2291 3584 
Q 2894 3584 3203 3211 
Q 3513 2838 3513 2113 
z
" id="DejaVuSans-6e" transform="scale(0.015625)"/>
      <path d="M 2834 3397 
L 2834 2853 
Q 2591 2978 2328 3040 
Q 2066 3103 1784 3103 
Q 1356 3103 1142 2972 
Q 928 2841 928 2578 
Q 928 2378 1081 2264 
Q 1234 2150 1697 2047 
L 1894 2003 
Q 2506 1872 2764 1633 
Q 3022 1394 3022 966 
Q 3022 478 2636 193 
Q 2250 -91 1575 -91 
Q 1294 -91 989 -36 
Q 684 19 347 128 
L 347 722 
Q 666 556 975 473 
Q 1284 391 1588 391 
Q 1994 391 2212 530 
Q 2431 669 2431 922 
Q 2431 1156 2273 1281 
Q 2116 1406 1581 1522 
L 1381 1569 
Q 847 1681 609 1914 
Q 372 2147 372 2553 
Q 372 3047 722 3315 
Q 1072 3584 1716 3584 
Q 2034 3584 2315 3537 
Q 2597 3491 2834 3397 
z
" id="DejaVuSans-73" transform="scale(0.015625)"/>
      <path d="M 1172 4494 
L 1172 3500 
L 2356 3500 
L 2356 3053 
L 1172 3053 
L 1172 1153 
Q 1172 725 1289 603 
Q 1406 481 1766 481 
L 2356 481 
L 2356 0 
L 1766 0 
Q 1100 0 847 248 
Q 594 497 594 1153 
L 594 3053 
L 172 3053 
L 172 3500 
L 594 3500 
L 594 4494 
L 1172 4494 
z
" id="DejaVuSans-74" transform="scale(0.015625)"/>
     </defs>
     <use xlink:href="#DejaVuSans-62"/>
     <use x="63.476562" xlink:href="#DejaVuSans-65"/>
     <use x="125" xlink:href="#DejaVuSans-66"/>
     <use x="160.205078" xlink:href="#DejaVuSans-6f"/>
     <use x="221.386719" xlink:href="#DejaVuSans-72"/>
     <use x="260.25" xlink:href="#DejaVuSans-65"/>
     <use x="321.773438" xlink:href="#DejaVuSans-20"/>
     <use x="353.560547" xlink:href="#DejaVuSans-62"/>
     <use x="417.037109" xlink:href="#DejaVuSans-69"/>
     <use x="444.820312" xlink:href="#DejaVuSans-6e"/>
     <use x="508.199219" xlink:href="#DejaVuSans-61"/>
     <use x="569.478516" xlink:href="#DejaVuSans-72"/>
     <use x="610.591797" xlink:href="#DejaVuSans-69"/>
     <use x="638.375" xlink:href="#DejaVuSans-73"/>
     <use x="690.474609" xlink:href="#DejaVuSans-61"/>
     <use x="751.753906" xlink:href="#DejaVuSans-74"/>
     <use x="790.962891" xlink:href="#DejaVuSans-69"/>
     <use x="818.746094" xlink:href="#DejaVuSans-6f"/>
     <use x="879.927734" xlink:href="#DejaVuSans-6e"/>
    </g>
   </g>
  </g>
  <g id="axes_2">
   <g id="patch_7">
    <path d="M 43.78125 1264.318125 
L 1717.78125 1264.318125 
L 1717.78125 699.77267 
L 43.78125 699.77267 
z
" style="fill:#ffffff;"/>
   </g>
   <g id="matplotlib.axis_3">
    <g id="xtick_8">
     <g id="line2d_16">
      <g>
       <use style="stroke:#000000;stroke-width:0.8;" x="119.872159" xlink:href="#mc855bf300c" y="1264.318125"/>
      </g>
     </g>
     <g id="text_18">
      <!-- 0 -->
      <g transform="translate(116.690909 1278.916563)scale(0.1 -0.1)">
       <use xlink:href="#DejaVuSans-30"/>
      </g>
     </g>
    </g>
    <g id="xtick_9">
     <g id="line2d_17">
      <g>
       <use style="stroke:#000000;stroke-width:0.8;" x="367.523613" xlink:href="#mc855bf300c" y="1264.318125"/>
      </g>
     </g>
     <g id="text_19">
      <!-- 200 -->
      <g transform="translate(357.979863 1278.916563)scale(0.1 -0.1)">
       <use xlink:href="#DejaVuSans-32"/>
       <use x="63.623047" xlink:href="#DejaVuSans-30"/>
       <use x="127.246094" xlink:href="#DejaVuSans-30"/>
      </g>
     </g>
    </g>
    <g id="xtick_10">
     <g id="line2d_18">
      <g>
       <use style="stroke:#000000;stroke-width:0.8;" x="615.175066" xlink:href="#mc855bf300c" y="1264.318125"/>
      </g>
     </g>
     <g id="text_20">
      <!-- 400 -->
      <g transform="translate(605.631316 1278.916563)scale(0.1 -0.1)">
       <use xlink:href="#DejaVuSans-34"/>
       <use x="63.623047" xlink:href="#DejaVuSans-30"/>
       <use x="127.246094" xlink:href="#DejaVuSans-30"/>
      </g>
     </g>
    </g>
    <g id="xtick_11">
     <g id="line2d_19">
      <g>
       <use style="stroke:#000000;stroke-width:0.8;" x="862.82652" xlink:href="#mc855bf300c" y="1264.318125"/>
      </g>
     </g>
     <g id="text_21">
      <!-- 600 -->
      <g transform="translate(853.28277 1278.916563)scale(0.1 -0.1)">
       <use xlink:href="#DejaVuSans-36"/>
       <use x="63.623047" xlink:href="#DejaVuSans-30"/>
       <use x="127.246094" xlink:href="#DejaVuSans-30"/>
      </g>
     </g>
    </g>
    <g id="xtick_12">
     <g id="line2d_20">
      <g>
       <use style="stroke:#000000;stroke-width:0.8;" x="1110.477973" xlink:href="#mc855bf300c" y="1264.318125"/>
      </g>
     </g>
     <g id="text_22">
      <!-- 800 -->
      <g transform="translate(1100.934223 1278.916563)scale(0.1 -0.1)">
       <use xlink:href="#DejaVuSans-38"/>
       <use x="63.623047" xlink:href="#DejaVuSans-30"/>
       <use x="127.246094" xlink:href="#DejaVuSans-30"/>
      </g>
     </g>
    </g>
    <g id="xtick_13">
     <g id="line2d_21">
      <g>
       <use style="stroke:#000000;stroke-width:0.8;" x="1358.129427" xlink:href="#mc855bf300c" y="1264.318125"/>
      </g>
     </g>
     <g id="text_23">
      <!-- 1000 -->
      <g transform="translate(1345.404427 1278.916563)scale(0.1 -0.1)">
       <use xlink:href="#DejaVuSans-31"/>
       <use x="63.623047" xlink:href="#DejaVuSans-30"/>
       <use x="127.246094" xlink:href="#DejaVuSans-30"/>
       <use x="190.869141" xlink:href="#DejaVuSans-30"/>
      </g>
     </g>
    </g>
    <g id="xtick_14">
     <g id="line2d_22">
      <g>
       <use style="stroke:#000000;stroke-width:0.8;" x="1605.78088" xlink:href="#mc855bf300c" y="1264.318125"/>
      </g>
     </g>
     <g id="text_24">
      <!-- 1200 -->
      <g transform="translate(1593.05588 1278.916563)scale(0.1 -0.1)">
       <use xlink:href="#DejaVuSans-31"/>
       <use x="63.623047" xlink:href="#DejaVuSans-32"/>
       <use x="127.246094" xlink:href="#DejaVuSans-30"/>
       <use x="190.869141" xlink:href="#DejaVuSans-30"/>
      </g>
     </g>
    </g>
    <g id="text_25">
     <!-- frame -->
     <g transform="translate(865.954687 1292.594688)scale(0.1 -0.1)">
      <use xlink:href="#DejaVuSans-66"/>
      <use x="35.205078" xlink:href="#DejaVuSans-72"/>
      <use x="76.318359" xlink:href="#DejaVuSans-61"/>
      <use x="137.597656" xlink:href="#DejaVuSans-6d"/>
      <use x="235.009766" xlink:href="#DejaVuSans-65"/>
     </g>
    </g>
   </g>
   <g id="matplotlib.axis_4">
    <g id="ytick_8">
     <g id="line2d_23">
      <g>
       <use style="stroke:#000000;stroke-width:0.8;" x="43.78125" xlink:href="#mb0439fbc85" y="1238.656968"/>
      </g>
     </g>
     <g id="text_26">
      <!-- 0.0 -->
      <g transform="translate(20.878125 1242.456187)scale(0.1 -0.1)">
       <use xlink:href="#DejaVuSans-30"/>
       <use x="63.623047" xlink:href="#DejaVuSans-2e"/>
       <use x="95.410156" xlink:href="#DejaVuSans-30"/>
      </g>
     </g>
    </g>
    <g id="ytick_9">
     <g id="line2d_24">
      <g>
       <use style="stroke:#000000;stroke-width:0.8;" x="43.78125" xlink:href="#mb0439fbc85" y="1136.01234"/>
      </g>
     </g>
     <g id="text_27">
      <!-- 0.2 -->
      <g transform="translate(20.878125 1139.811559)scale(0.1 -0.1)">
       <use xlink:href="#DejaVuSans-30"/>
       <use x="63.623047" xlink:href="#DejaVuSans-2e"/>
       <use x="95.410156" xlink:href="#DejaVuSans-32"/>
      </g>
     </g>
    </g>
    <g id="ytick_10">
     <g id="line2d_25">
      <g>
       <use style="stroke:#000000;stroke-width:0.8;" x="43.78125" xlink:href="#mb0439fbc85" y="1033.367712"/>
      </g>
     </g>
     <g id="text_28">
      <!-- 0.4 -->
      <g transform="translate(20.878125 1037.166931)scale(0.1 -0.1)">
       <use xlink:href="#DejaVuSans-30"/>
       <use x="63.623047" xlink:href="#DejaVuSans-2e"/>
       <use x="95.410156" xlink:href="#DejaVuSans-34"/>
      </g>
     </g>
    </g>
    <g id="ytick_11">
     <g id="line2d_26">
      <g>
       <use style="stroke:#000000;stroke-width:0.8;" x="43.78125" xlink:href="#mb0439fbc85" y="930.723084"/>
      </g>
     </g>
     <g id="text_29">
      <!-- 0.6 -->
      <g transform="translate(20.878125 934.522302)scale(0.1 -0.1)">
       <use xlink:href="#DejaVuSans-30"/>
       <use x="63.623047" xlink:href="#DejaVuSans-2e"/>
       <use x="95.410156" xlink:href="#DejaVuSans-36"/>
      </g>
     </g>
    </g>
    <g id="ytick_12">
     <g id="line2d_27">
      <g>
       <use style="stroke:#000000;stroke-width:0.8;" x="43.78125" xlink:href="#mb0439fbc85" y="828.078456"/>
      </g>
     </g>
     <g id="text_30">
      <!-- 0.8 -->
      <g transform="translate(20.878125 831.877674)scale(0.1 -0.1)">
       <use xlink:href="#DejaVuSans-30"/>
       <use x="63.623047" xlink:href="#DejaVuSans-2e"/>
       <use x="95.410156" xlink:href="#DejaVuSans-38"/>
      </g>
     </g>
    </g>
    <g id="ytick_13">
     <g id="line2d_28">
      <g>
       <use style="stroke:#000000;stroke-width:0.8;" x="43.78125" xlink:href="#mb0439fbc85" y="725.433827"/>
      </g>
     </g>
     <g id="text_31">
      <!-- 1.0 -->
      <g transform="translate(20.878125 729.233046)scale(0.1 -0.1)">
       <use xlink:href="#DejaVuSans-31"/>
       <use x="63.623047" xlink:href="#DejaVuSans-2e"/>
       <use x="95.410156" xlink:href="#DejaVuSans-30"/>
      </g>
     </g>
    </g>
    <g id="text_32">
     <!-- GCaMP -->
     <g transform="translate(14.798437 999.803991)rotate(-90)scale(0.1 -0.1)">
      <use xlink:href="#DejaVuSans-47"/>
      <use x="77.490234" xlink:href="#DejaVuSans-43"/>
      <use x="147.314453" xlink:href="#DejaVuSans-61"/>
      <use x="208.59375" xlink:href="#DejaVuSans-4d"/>
      <use x="294.873047" xlink:href="#DejaVuSans-50"/>
     </g>
    </g>
   </g>
   <g id="line2d_29">
    <path clip-path="url(#p5da850bc93)" d="M 119.872159 1238.656968 
L 1224.397642 1238.656968 
L 1225.635899 725.433827 
L 1574.824448 725.433827 
L 1576.062706 1238.656968 
L 1639.213826 1238.656968 
L 1640.452084 725.433827 
L 1641.690341 725.433827 
L 1641.690341 725.433827 
" style="fill:none;stroke:#008000;stroke-linecap:square;stroke-width:1.5;"/>
   </g>
   <g id="patch_8">
    <path d="M 43.78125 1264.318125 
L 43.78125 699.77267 
" style="fill:none;stroke:#000000;stroke-linecap:square;stroke-linejoin:miter;stroke-width:0.8;"/>
   </g>
   <g id="patch_9">
    <path d="M 1717.78125 1264.318125 
L 1717.78125 699.77267 
" style="fill:none;stroke:#000000;stroke-linecap:square;stroke-linejoin:miter;stroke-width:0.8;"/>
   </g>
   <g id="patch_10">
    <path d="M 43.78125 1264.318125 
L 1717.78125 1264.318125 
" style="fill:none;stroke:#000000;stroke-linecap:square;stroke-linejoin:miter;stroke-width:0.8;"/>
   </g>
   <g id="patch_11">
    <path d="M 43.78125 699.77267 
L 1717.78125 699.77267 
" style="fill:none;stroke:#000000;stroke-linecap:square;stroke-linejoin:miter;stroke-width:0.8;"/>
   </g>
   <g id="text_33">
    <!-- before binarisation -->
    <g transform="translate(824.1825 693.77267)scale(0.12 -0.12)">
     <use xlink:href="#DejaVuSans-62"/>
     <use x="63.476562" xlink:href="#DejaVuSans-65"/>
     <use x="125" xlink:href="#DejaVuSans-66"/>
     <use x="160.205078" xlink:href="#DejaVuSans-6f"/>
     <use x="221.386719" xlink:href="#DejaVuSans-72"/>
     <use x="260.25" xlink:href="#DejaVuSans-65"/>
     <use x="321.773438" xlink:href="#DejaVuSans-20"/>
     <use x="353.560547" xlink:href="#DejaVuSans-62"/>
     <use x="417.037109" xlink:href="#DejaVuSans-69"/>
     <use x="444.820312" xlink:href="#DejaVuSans-6e"/>
     <use x="508.199219" xlink:href="#DejaVuSans-61"/>
     <use x="569.478516" xlink:href="#DejaVuSans-72"/>
     <use x="610.591797" xlink:href="#DejaVuSans-69"/>
     <use x="638.375" xlink:href="#DejaVuSans-73"/>
     <use x="690.474609" xlink:href="#DejaVuSans-61"/>
     <use x="751.753906" xlink:href="#DejaVuSans-74"/>
     <use x="790.962891" xlink:href="#DejaVuSans-69"/>
     <use x="818.746094" xlink:href="#DejaVuSans-6f"/>
     <use x="879.927734" xlink:href="#DejaVuSans-6e"/>
    </g>
   </g>
  </g>
 </g>
 <defs>
  <clipPath id="p06ca41e256">
   <rect height="564.545455" width="1674" x="43.78125" y="22.318125"/>
  </clipPath>
  <clipPath id="p5da850bc93">
   <rect height="564.545455" width="1674" x="43.78125" y="699.77267"/>
  </clipPath>
 </defs>
</svg>
