<?xml version="1.0" encoding="utf-8" standalone="no"?>
<!DOCTYPE svg PUBLIC "-//W3C//DTD SVG 1.1//EN"
  "http://www.w3.org/Graphics/SVG/1.1/DTD/svg11.dtd">
<svg height="1301.874375pt" version="1.1" viewBox="0 0 1724.98125 1301.874375" width="1724.98125pt" xmlns="http://www.w3.org/2000/svg" xmlns:xlink="http://www.w3.org/1999/xlink">
 <metadata>
  <rdf:RDF xmlns:cc="http://creativecommons.org/ns#" xmlns:dc="http://purl.org/dc/elements/1.1/" xmlns:rdf="http://www.w3.org/1999/02/22-rdf-syntax-ns#">
   <cc:Work>
    <dc:type rdf:resource="http://purl.org/dc/dcmitype/StillImage"/>
    <dc:date>2022-07-24T15:54:35.638299</dc:date>
    <dc:format>image/svg+xml</dc:format>
    <dc:creator>
     <cc:Agent>
      <dc:title>Matplotlib v3.4.2, https://matplotlib.org/</dc:title>
     </cc:Agent>
    </dc:creator>
   </cc:Work>
  </rdf:RDF>
 </metadata>
 <defs>
  <style type="text/css">*{stroke-linecap:butt;stroke-linejoin:round;}</style>
 </defs>
 <g id="figure_1">
  <g id="patch_1">
   <path d="M 0 1301.874375 
L 1724.98125 1301.874375 
L 1724.98125 0 
L 0 0 
z
" style="fill:#ffffff;"/>
  </g>
  <g id="axes_1">
   <g id="patch_2">
    <path d="M 43.78125 586.86358 
L 1717.78125 586.86358 
L 1717.78125 22.318125 
L 43.78125 22.318125 
z
" style="fill:#ffffff;"/>
   </g>
   <g id="matplotlib.axis_1">
    <g id="xtick_1">
     <g id="line2d_1">
      <defs>
       <path d="M 0 0 
L 0 3.5 
" id="m60bdd59c53" style="stroke:#000000;stroke-width:0.8;"/>
      </defs>
      <g>
       <use style="stroke:#000000;stroke-width:0.8;" x="119.872159" xlink:href="#m60bdd59c53" y="586.86358"/>
      </g>
     </g>
     <g id="text_1">
      <!-- 0 -->
      <g transform="translate(116.690909 601.462017)scale(0.1 -0.1)">
       <defs>
        <path d="M 2034 4250 
Q 1547 4250 1301 3770 
Q 1056 3291 1056 2328 
Q 1056 1369 1301 889 
Q 1547 409 2034 409 
Q 2525 409 2770 889 
Q 3016 1369 3016 2328 
Q 3016 3291 2770 3770 
Q 2525 4250 2034 4250 
z
M 2034 4750 
Q 2819 4750 3233 4129 
Q 3647 3509 3647 2328 
Q 3647 1150 3233 529 
Q 2819 -91 2034 -91 
Q 1250 -91 836 529 
Q 422 1150 422 2328 
Q 422 3509 836 4129 
Q 1250 4750 2034 4750 
z
" id="DejaVuSans-30" transform="scale(0.015625)"/>
       </defs>
       <use xlink:href="#DejaVuSans-30"/>
      </g>
     </g>
    </g>
    <g id="xtick_2">
     <g id="line2d_2">
      <g>
       <use style="stroke:#000000;stroke-width:0.8;" x="367.523613" xlink:href="#m60bdd59c53" y="586.86358"/>
      </g>
     </g>
     <g id="text_2">
      <!-- 200 -->
      <g transform="translate(357.979863 601.462017)scale(0.1 -0.1)">
       <defs>
        <path d="M 1228 531 
L 3431 531 
L 3431 0 
L 469 0 
L 469 531 
Q 828 903 1448 1529 
Q 2069 2156 2228 2338 
Q 2531 2678 2651 2914 
Q 2772 3150 2772 3378 
Q 2772 3750 2511 3984 
Q 2250 4219 1831 4219 
Q 1534 4219 1204 4116 
Q 875 4013 500 3803 
L 500 4441 
Q 881 4594 1212 4672 
Q 1544 4750 1819 4750 
Q 2544 4750 2975 4387 
Q 3406 4025 3406 3419 
Q 3406 3131 3298 2873 
Q 3191 2616 2906 2266 
Q 2828 2175 2409 1742 
Q 1991 1309 1228 531 
z
" id="DejaVuSans-32" transform="scale(0.015625)"/>
       </defs>
       <use xlink:href="#DejaVuSans-32"/>
       <use x="63.623047" xlink:href="#DejaVuSans-30"/>
       <use x="127.246094" xlink:href="#DejaVuSans-30"/>
      </g>
     </g>
    </g>
    <g id="xtick_3">
     <g id="line2d_3">
      <g>
       <use style="stroke:#000000;stroke-width:0.8;" x="615.175066" xlink:href="#m60bdd59c53" y="586.86358"/>
      </g>
     </g>
     <g id="text_3">
      <!-- 400 -->
      <g transform="translate(605.631316 601.462017)scale(0.1 -0.1)">
       <defs>
        <path d="M 2419 4116 
L 825 1625 
L 2419 1625 
L 2419 4116 
z
M 2253 4666 
L 3047 4666 
L 3047 1625 
L 3713 1625 
L 3713 1100 
L 3047 1100 
L 3047 0 
L 2419 0 
L 2419 1100 
L 313 1100 
L 313 1709 
L 2253 4666 
z
" id="DejaVuSans-34" transform="scale(0.015625)"/>
       </defs>
       <use xlink:href="#DejaVuSans-34"/>
       <use x="63.623047" xlink:href="#DejaVuSans-30"/>
       <use x="127.246094" xlink:href="#DejaVuSans-30"/>
      </g>
     </g>
    </g>
    <g id="xtick_4">
     <g id="line2d_4">
      <g>
       <use style="stroke:#000000;stroke-width:0.8;" x="862.82652" xlink:href="#m60bdd59c53" y="586.86358"/>
      </g>
     </g>
     <g id="text_4">
      <!-- 600 -->
      <g transform="translate(853.28277 601.462017)scale(0.1 -0.1)">
       <defs>
        <path d="M 2113 2584 
Q 1688 2584 1439 2293 
Q 1191 2003 1191 1497 
Q 1191 994 1439 701 
Q 1688 409 2113 409 
Q 2538 409 2786 701 
Q 3034 994 3034 1497 
Q 3034 2003 2786 2293 
Q 2538 2584 2113 2584 
z
M 3366 4563 
L 3366 3988 
Q 3128 4100 2886 4159 
Q 2644 4219 2406 4219 
Q 1781 4219 1451 3797 
Q 1122 3375 1075 2522 
Q 1259 2794 1537 2939 
Q 1816 3084 2150 3084 
Q 2853 3084 3261 2657 
Q 3669 2231 3669 1497 
Q 3669 778 3244 343 
Q 2819 -91 2113 -91 
Q 1303 -91 875 529 
Q 447 1150 447 2328 
Q 447 3434 972 4092 
Q 1497 4750 2381 4750 
Q 2619 4750 2861 4703 
Q 3103 4656 3366 4563 
z
" id="DejaVuSans-36" transform="scale(0.015625)"/>
       </defs>
       <use xlink:href="#DejaVuSans-36"/>
       <use x="63.623047" xlink:href="#DejaVuSans-30"/>
       <use x="127.246094" xlink:href="#DejaVuSans-30"/>
      </g>
     </g>
    </g>
    <g id="xtick_5">
     <g id="line2d_5">
      <g>
       <use style="stroke:#000000;stroke-width:0.8;" x="1110.477973" xlink:href="#m60bdd59c53" y="586.86358"/>
      </g>
     </g>
     <g id="text_5">
      <!-- 800 -->
      <g transform="translate(1100.934223 601.462017)scale(0.1 -0.1)">
       <defs>
        <path d="M 2034 2216 
Q 1584 2216 1326 1975 
Q 1069 1734 1069 1313 
Q 1069 891 1326 650 
Q 1584 409 2034 409 
Q 2484 409 2743 651 
Q 3003 894 3003 1313 
Q 3003 1734 2745 1975 
Q 2488 2216 2034 2216 
z
M 1403 2484 
Q 997 2584 770 2862 
Q 544 3141 544 3541 
Q 544 4100 942 4425 
Q 1341 4750 2034 4750 
Q 2731 4750 3128 4425 
Q 3525 4100 3525 3541 
Q 3525 3141 3298 2862 
Q 3072 2584 2669 2484 
Q 3125 2378 3379 2068 
Q 3634 1759 3634 1313 
Q 3634 634 3220 271 
Q 2806 -91 2034 -91 
Q 1263 -91 848 271 
Q 434 634 434 1313 
Q 434 1759 690 2068 
Q 947 2378 1403 2484 
z
M 1172 3481 
Q 1172 3119 1398 2916 
Q 1625 2713 2034 2713 
Q 2441 2713 2670 2916 
Q 2900 3119 2900 3481 
Q 2900 3844 2670 4047 
Q 2441 4250 2034 4250 
Q 1625 4250 1398 4047 
Q 1172 3844 1172 3481 
z
" id="DejaVuSans-38" transform="scale(0.015625)"/>
       </defs>
       <use xlink:href="#DejaVuSans-38"/>
       <use x="63.623047" xlink:href="#DejaVuSans-30"/>
       <use x="127.246094" xlink:href="#DejaVuSans-30"/>
      </g>
     </g>
    </g>
    <g id="xtick_6">
     <g id="line2d_6">
      <g>
       <use style="stroke:#000000;stroke-width:0.8;" x="1358.129427" xlink:href="#m60bdd59c53" y="586.86358"/>
      </g>
     </g>
     <g id="text_6">
      <!-- 1000 -->
      <g transform="translate(1345.404427 601.462017)scale(0.1 -0.1)">
       <defs>
        <path d="M 794 531 
L 1825 531 
L 1825 4091 
L 703 3866 
L 703 4441 
L 1819 4666 
L 2450 4666 
L 2450 531 
L 3481 531 
L 3481 0 
L 794 0 
L 794 531 
z
" id="DejaVuSans-31" transform="scale(0.015625)"/>
       </defs>
       <use xlink:href="#DejaVuSans-31"/>
       <use x="63.623047" xlink:href="#DejaVuSans-30"/>
       <use x="127.246094" xlink:href="#DejaVuSans-30"/>
       <use x="190.869141" xlink:href="#DejaVuSans-30"/>
      </g>
     </g>
    </g>
    <g id="xtick_7">
     <g id="line2d_7">
      <g>
       <use style="stroke:#000000;stroke-width:0.8;" x="1605.78088" xlink:href="#m60bdd59c53" y="586.86358"/>
      </g>
     </g>
     <g id="text_7">
      <!-- 1200 -->
      <g transform="translate(1593.05588 601.462017)scale(0.1 -0.1)">
       <use xlink:href="#DejaVuSans-31"/>
       <use x="63.623047" xlink:href="#DejaVuSans-32"/>
       <use x="127.246094" xlink:href="#DejaVuSans-30"/>
       <use x="190.869141" xlink:href="#DejaVuSans-30"/>
      </g>
     </g>
    </g>
    <g id="text_8">
     <!-- frame -->
     <g transform="translate(865.954687 615.140142)scale(0.1 -0.1)">
      <defs>
       <path d="M 2375 4863 
L 2375 4384 
L 1825 4384 
Q 1516 4384 1395 4259 
Q 1275 4134 1275 3809 
L 1275 3500 
L 2222 3500 
L 2222 3053 
L 1275 3053 
L 1275 0 
L 697 0 
L 697 3053 
L 147 3053 
L 147 3500 
L 697 3500 
L 697 3744 
Q 697 4328 969 4595 
Q 1241 4863 1831 4863 
L 2375 4863 
z
" id="DejaVuSans-66" transform="scale(0.015625)"/>
       <path d="M 2631 2963 
Q 2534 3019 2420 3045 
Q 2306 3072 2169 3072 
Q 1681 3072 1420 2755 
Q 1159 2438 1159 1844 
L 1159 0 
L 581 0 
L 581 3500 
L 1159 3500 
L 1159 2956 
Q 1341 3275 1631 3429 
Q 1922 3584 2338 3584 
Q 2397 3584 2469 3576 
Q 2541 3569 2628 3553 
L 2631 2963 
z
" id="DejaVuSans-72" transform="scale(0.015625)"/>
       <path d="M 2194 1759 
Q 1497 1759 1228 1600 
Q 959 1441 959 1056 
Q 959 750 1161 570 
Q 1363 391 1709 391 
Q 2188 391 2477 730 
Q 2766 1069 2766 1631 
L 2766 1759 
L 2194 1759 
z
M 3341 1997 
L 3341 0 
L 2766 0 
L 2766 531 
Q 2569 213 2275 61 
Q 1981 -91 1556 -91 
Q 1019 -91 701 211 
Q 384 513 384 1019 
Q 384 1609 779 1909 
Q 1175 2209 1959 2209 
L 2766 2209 
L 2766 2266 
Q 2766 2663 2505 2880 
Q 2244 3097 1772 3097 
Q 1472 3097 1187 3025 
Q 903 2953 641 2809 
L 641 3341 
Q 956 3463 1253 3523 
Q 1550 3584 1831 3584 
Q 2591 3584 2966 3190 
Q 3341 2797 3341 1997 
z
" id="DejaVuSans-61" transform="scale(0.015625)"/>
       <path d="M 3328 2828 
Q 3544 3216 3844 3400 
Q 4144 3584 4550 3584 
Q 5097 3584 5394 3201 
Q 5691 2819 5691 2113 
L 5691 0 
L 5113 0 
L 5113 2094 
Q 5113 2597 4934 2840 
Q 4756 3084 4391 3084 
Q 3944 3084 3684 2787 
Q 3425 2491 3425 1978 
L 3425 0 
L 2847 0 
L 2847 2094 
Q 2847 2600 2669 2842 
Q 2491 3084 2119 3084 
Q 1678 3084 1418 2786 
Q 1159 2488 1159 1978 
L 1159 0 
L 581 0 
L 581 3500 
L 1159 3500 
L 1159 2956 
Q 1356 3278 1631 3431 
Q 1906 3584 2284 3584 
Q 2666 3584 2933 3390 
Q 3200 3197 3328 2828 
z
" id="DejaVuSans-6d" transform="scale(0.015625)"/>
       <path d="M 3597 1894 
L 3597 1613 
L 953 1613 
Q 991 1019 1311 708 
Q 1631 397 2203 397 
Q 2534 397 2845 478 
Q 3156 559 3463 722 
L 3463 178 
Q 3153 47 2828 -22 
Q 2503 -91 2169 -91 
Q 1331 -91 842 396 
Q 353 884 353 1716 
Q 353 2575 817 3079 
Q 1281 3584 2069 3584 
Q 2775 3584 3186 3129 
Q 3597 2675 3597 1894 
z
M 3022 2063 
Q 3016 2534 2758 2815 
Q 2500 3097 2075 3097 
Q 1594 3097 1305 2825 
Q 1016 2553 972 2059 
L 3022 2063 
z
" id="DejaVuSans-65" transform="scale(0.015625)"/>
      </defs>
      <use xlink:href="#DejaVuSans-66"/>
      <use x="35.205078" xlink:href="#DejaVuSans-72"/>
      <use x="76.318359" xlink:href="#DejaVuSans-61"/>
      <use x="137.597656" xlink:href="#DejaVuSans-6d"/>
      <use x="235.009766" xlink:href="#DejaVuSans-65"/>
     </g>
    </g>
   </g>
   <g id="matplotlib.axis_2">
    <g id="ytick_1">
     <g id="line2d_8">
      <defs>
       <path d="M 0 0 
L -3.5 0 
" id="mda8bd0d806" style="stroke:#000000;stroke-width:0.8;"/>
      </defs>
      <g>
       <use style="stroke:#000000;stroke-width:0.8;" x="43.78125" xlink:href="#mda8bd0d806" y="561.202423"/>
      </g>
     </g>
     <g id="text_9">
      <!-- 0.0 -->
      <g transform="translate(20.878125 565.001641)scale(0.1 -0.1)">
       <defs>
        <path d="M 684 794 
L 1344 794 
L 1344 0 
L 684 0 
L 684 794 
z
" id="DejaVuSans-2e" transform="scale(0.015625)"/>
       </defs>
       <use xlink:href="#DejaVuSans-30"/>
       <use x="63.623047" xlink:href="#DejaVuSans-2e"/>
       <use x="95.410156" xlink:href="#DejaVuSans-30"/>
      </g>
     </g>
    </g>
    <g id="ytick_2">
     <g id="line2d_9">
      <g>
       <use style="stroke:#000000;stroke-width:0.8;" x="43.78125" xlink:href="#mda8bd0d806" y="469.767629"/>
      </g>
     </g>
     <g id="text_10">
      <!-- 0.5 -->
      <g transform="translate(20.878125 473.566848)scale(0.1 -0.1)">
       <defs>
        <path d="M 691 4666 
L 3169 4666 
L 3169 4134 
L 1269 4134 
L 1269 2991 
Q 1406 3038 1543 3061 
Q 1681 3084 1819 3084 
Q 2600 3084 3056 2656 
Q 3513 2228 3513 1497 
Q 3513 744 3044 326 
Q 2575 -91 1722 -91 
Q 1428 -91 1123 -41 
Q 819 9 494 109 
L 494 744 
Q 775 591 1075 516 
Q 1375 441 1709 441 
Q 2250 441 2565 725 
Q 2881 1009 2881 1497 
Q 2881 1984 2565 2268 
Q 2250 2553 1709 2553 
Q 1456 2553 1204 2497 
Q 953 2441 691 2322 
L 691 4666 
z
" id="DejaVuSans-35" transform="scale(0.015625)"/>
       </defs>
       <use xlink:href="#DejaVuSans-30"/>
       <use x="63.623047" xlink:href="#DejaVuSans-2e"/>
       <use x="95.410156" xlink:href="#DejaVuSans-35"/>
      </g>
     </g>
    </g>
    <g id="ytick_3">
     <g id="line2d_10">
      <g>
       <use style="stroke:#000000;stroke-width:0.8;" x="43.78125" xlink:href="#mda8bd0d806" y="378.332836"/>
      </g>
     </g>
     <g id="text_11">
      <!-- 1.0 -->
      <g transform="translate(20.878125 382.132055)scale(0.1 -0.1)">
       <use xlink:href="#DejaVuSans-31"/>
       <use x="63.623047" xlink:href="#DejaVuSans-2e"/>
       <use x="95.410156" xlink:href="#DejaVuSans-30"/>
      </g>
     </g>
    </g>
    <g id="ytick_4">
     <g id="line2d_11">
      <g>
       <use style="stroke:#000000;stroke-width:0.8;" x="43.78125" xlink:href="#mda8bd0d806" y="286.898043"/>
      </g>
     </g>
     <g id="text_12">
      <!-- 1.5 -->
      <g transform="translate(20.878125 290.697262)scale(0.1 -0.1)">
       <use xlink:href="#DejaVuSans-31"/>
       <use x="63.623047" xlink:href="#DejaVuSans-2e"/>
       <use x="95.410156" xlink:href="#DejaVuSans-35"/>
      </g>
     </g>
    </g>
    <g id="ytick_5">
     <g id="line2d_12">
      <g>
       <use style="stroke:#000000;stroke-width:0.8;" x="43.78125" xlink:href="#mda8bd0d806" y="195.46325"/>
      </g>
     </g>
     <g id="text_13">
      <!-- 2.0 -->
      <g transform="translate(20.878125 199.262469)scale(0.1 -0.1)">
       <use xlink:href="#DejaVuSans-32"/>
       <use x="63.623047" xlink:href="#DejaVuSans-2e"/>
       <use x="95.410156" xlink:href="#DejaVuSans-30"/>
      </g>
     </g>
    </g>
    <g id="ytick_6">
     <g id="line2d_13">
      <g>
       <use style="stroke:#000000;stroke-width:0.8;" x="43.78125" xlink:href="#mda8bd0d806" y="104.028457"/>
      </g>
     </g>
     <g id="text_14">
      <!-- 2.5 -->
      <g transform="translate(20.878125 107.827675)scale(0.1 -0.1)">
       <use xlink:href="#DejaVuSans-32"/>
       <use x="63.623047" xlink:href="#DejaVuSans-2e"/>
       <use x="95.410156" xlink:href="#DejaVuSans-35"/>
      </g>
     </g>
    </g>
    <g id="text_15">
     <!-- GCaMP -->
     <g transform="translate(14.798437 322.349446)rotate(-90)scale(0.1 -0.1)">
      <defs>
       <path d="M 3809 666 
L 3809 1919 
L 2778 1919 
L 2778 2438 
L 4434 2438 
L 4434 434 
Q 4069 175 3628 42 
Q 3188 -91 2688 -91 
Q 1594 -91 976 548 
Q 359 1188 359 2328 
Q 359 3472 976 4111 
Q 1594 4750 2688 4750 
Q 3144 4750 3555 4637 
Q 3966 4525 4313 4306 
L 4313 3634 
Q 3963 3931 3569 4081 
Q 3175 4231 2741 4231 
Q 1884 4231 1454 3753 
Q 1025 3275 1025 2328 
Q 1025 1384 1454 906 
Q 1884 428 2741 428 
Q 3075 428 3337 486 
Q 3600 544 3809 666 
z
" id="DejaVuSans-47" transform="scale(0.015625)"/>
       <path d="M 4122 4306 
L 4122 3641 
Q 3803 3938 3442 4084 
Q 3081 4231 2675 4231 
Q 1875 4231 1450 3742 
Q 1025 3253 1025 2328 
Q 1025 1406 1450 917 
Q 1875 428 2675 428 
Q 3081 428 3442 575 
Q 3803 722 4122 1019 
L 4122 359 
Q 3791 134 3420 21 
Q 3050 -91 2638 -91 
Q 1578 -91 968 557 
Q 359 1206 359 2328 
Q 359 3453 968 4101 
Q 1578 4750 2638 4750 
Q 3056 4750 3426 4639 
Q 3797 4528 4122 4306 
z
" id="DejaVuSans-43" transform="scale(0.015625)"/>
       <path d="M 628 4666 
L 1569 4666 
L 2759 1491 
L 3956 4666 
L 4897 4666 
L 4897 0 
L 4281 0 
L 4281 4097 
L 3078 897 
L 2444 897 
L 1241 4097 
L 1241 0 
L 628 0 
L 628 4666 
z
" id="DejaVuSans-4d" transform="scale(0.015625)"/>
       <path d="M 1259 4147 
L 1259 2394 
L 2053 2394 
Q 2494 2394 2734 2622 
Q 2975 2850 2975 3272 
Q 2975 3691 2734 3919 
Q 2494 4147 2053 4147 
L 1259 4147 
z
M 628 4666 
L 2053 4666 
Q 2838 4666 3239 4311 
Q 3641 3956 3641 3272 
Q 3641 2581 3239 2228 
Q 2838 1875 2053 1875 
L 1259 1875 
L 1259 0 
L 628 0 
L 628 4666 
z
" id="DejaVuSans-50" transform="scale(0.015625)"/>
      </defs>
      <use xlink:href="#DejaVuSans-47"/>
      <use x="77.490234" xlink:href="#DejaVuSans-43"/>
      <use x="147.314453" xlink:href="#DejaVuSans-61"/>
      <use x="208.59375" xlink:href="#DejaVuSans-4d"/>
      <use x="294.873047" xlink:href="#DejaVuSans-50"/>
     </g>
    </g>
   </g>
   <g id="line2d_14">
    <path clip-path="url(#p05dd8d2fb0)" d="M 119.872159 421.156969 
L 121.110416 426.425597 
L 122.348674 430.27362 
L 123.586931 432.441115 
L 124.825188 433.557487 
L 126.063445 434.06498 
L 127.301703 433.901828 
L 128.53996 433.079357 
L 129.778217 432.013205 
L 131.016474 431.197493 
L 132.254732 430.878947 
L 133.492989 431.137183 
L 134.731246 432.064315 
L 135.969504 433.676871 
L 138.446018 437.662071 
L 139.684275 438.945068 
L 140.922533 439.200425 
L 142.16079 438.463464 
L 143.399047 436.97976 
L 144.637304 434.946505 
L 145.875562 432.668188 
L 147.113819 430.784352 
L 148.352076 429.971084 
L 149.590334 430.385548 
L 150.828591 431.617189 
L 153.305105 434.583262 
L 154.543363 435.740088 
L 155.78162 436.491271 
L 157.019877 436.891693 
L 158.258134 437.04485 
L 159.496392 436.847347 
L 160.734649 436.056711 
L 161.972906 434.658888 
L 163.211163 432.97672 
L 164.449421 431.505597 
L 165.687678 430.75034 
L 166.925935 430.942689 
L 168.164193 431.899456 
L 171.878964 435.9577 
L 173.117222 436.711407 
L 174.355479 436.796898 
L 175.593736 436.206448 
L 176.831993 435.089352 
L 180.546765 430.76074 
L 181.785022 430.220667 
L 183.02328 430.708446 
L 184.261537 431.802155 
L 185.499794 432.716511 
L 186.738052 432.845684 
L 187.976309 431.934063 
L 189.214566 430.293734 
L 190.452823 428.84168 
L 191.691081 428.464381 
L 192.929338 429.319574 
L 195.405852 432.174159 
L 196.64411 432.866311 
L 199.120624 433.128921 
L 200.358881 433.180392 
L 201.597139 432.921503 
L 202.835396 432.208341 
L 206.550168 429.283669 
L 207.788425 428.757432 
L 209.026682 428.61523 
L 210.26494 428.731401 
L 211.503197 429.009646 
L 212.741454 429.479148 
L 213.979711 430.079397 
L 215.217969 430.531356 
L 216.456226 430.602488 
L 217.694483 430.292045 
L 218.93274 429.654309 
L 220.170998 428.706365 
L 222.647512 426.310116 
L 223.88577 425.430826 
L 225.124027 425.106086 
L 226.362284 425.28151 
L 228.838799 426.162337 
L 230.077056 426.206911 
L 231.315313 425.888484 
L 232.55357 425.799065 
L 233.791828 426.661651 
L 235.030085 428.635559 
L 237.5066 433.878772 
L 238.744857 435.849641 
L 239.983114 436.699091 
L 241.221371 436.267449 
L 242.459629 434.739447 
L 246.1744 428.118147 
L 247.412658 426.666061 
L 248.650915 425.982278 
L 249.889172 425.949673 
L 252.365687 426.535856 
L 253.603944 426.59443 
L 254.842201 426.432201 
L 257.318716 425.65188 
L 258.556973 425.629761 
L 261.033488 426.733127 
L 262.271745 426.545909 
L 263.510002 425.905539 
L 264.748259 425.439629 
L 267.224774 425.234436 
L 268.463031 425.226214 
L 269.701288 425.446733 
L 270.939546 426.084748 
L 272.177803 426.883666 
L 273.41606 427.243038 
L 274.654318 426.83819 
L 275.892575 425.822 
L 278.369089 423.086621 
L 279.607347 422.036882 
L 280.845604 421.767858 
L 282.083861 422.449212 
L 283.322118 423.873604 
L 284.560376 425.478791 
L 285.798633 426.626761 
L 287.03689 427.07423 
L 289.513405 426.926261 
L 291.989919 426.648526 
L 294.466434 425.869879 
L 296.942948 425.539341 
L 298.181206 424.99972 
L 299.419463 423.705239 
L 300.65772 421.67574 
L 301.895977 419.32127 
L 303.134235 417.251995 
L 304.372492 416.092945 
L 305.610749 416.148191 
L 306.849006 417.129921 
L 308.087264 418.376561 
L 309.325521 419.379356 
L 311.802036 420.678429 
L 314.27855 421.740395 
L 316.755065 422.386381 
L 317.993322 422.600674 
L 319.231579 422.650338 
L 322.946351 422.186516 
L 324.184608 421.67504 
L 326.661123 419.970402 
L 327.89938 419.709402 
L 329.137637 420.07117 
L 330.375895 420.685128 
L 331.614152 421.068182 
L 332.852409 420.857882 
L 334.090666 419.915849 
L 337.805438 415.578412 
L 341.52021 411.971866 
L 342.758467 411.748575 
L 343.996725 412.570013 
L 345.234982 413.859087 
L 346.473239 414.882148 
L 347.711496 415.292781 
L 348.949754 415.347204 
L 350.188011 415.583208 
L 352.664525 416.705344 
L 353.902783 416.723513 
L 355.14104 416.389658 
L 356.379297 416.368443 
L 357.617554 417.016104 
L 358.855812 417.863665 
L 360.094069 418.073164 
L 361.332326 417.326905 
L 363.808841 414.586342 
L 365.047098 413.522079 
L 368.76187 411.634091 
L 370.000127 411.009137 
L 371.238384 410.551134 
L 372.476642 410.227697 
L 373.714899 410.113313 
L 374.953156 410.457268 
L 376.191413 411.424818 
L 377.429671 412.795712 
L 378.667928 413.952946 
L 379.906185 414.416902 
L 382.3827 414.259246 
L 383.620957 414.575137 
L 384.859214 415.269087 
L 386.097472 416.101339 
L 387.335729 416.751417 
L 388.573986 416.809503 
L 389.812243 415.948981 
L 391.050501 414.227388 
L 393.527015 409.797573 
L 394.765272 407.897558 
L 396.00353 406.824258 
L 397.241787 406.936529 
L 398.480044 408.118693 
L 399.718302 409.813074 
L 400.956559 411.208075 
L 402.194816 411.517284 
L 403.433073 410.510773 
L 405.909588 407.095778 
L 407.147845 406.203759 
L 408.386102 406.352517 
L 409.62436 407.289092 
L 410.862617 408.377055 
L 414.577389 410.988004 
L 415.815646 412.685953 
L 418.292161 416.707918 
L 419.530418 417.79449 
L 420.768675 417.525974 
L 422.006932 415.708706 
L 423.24519 412.652729 
L 424.483447 409.179814 
L 425.721704 406.321368 
L 426.959961 404.822015 
L 428.198219 404.593653 
L 429.436476 404.672658 
L 430.674733 404.146769 
L 433.151248 401.958556 
L 434.389505 401.474384 
L 435.627762 401.744214 
L 436.86602 402.704307 
L 438.104277 403.994139 
L 439.342534 405.083129 
L 440.580791 405.624458 
L 441.819049 405.490004 
L 443.057306 404.633668 
L 445.53382 401.582027 
L 446.772078 400.462724 
L 448.010335 400.242576 
L 449.248592 400.826879 
L 451.725107 402.50182 
L 452.963364 403.013883 
L 454.201621 403.27028 
L 455.439879 403.154284 
L 457.916393 402.311304 
L 459.15465 402.293783 
L 461.631165 402.675586 
L 462.869422 402.39466 
L 464.107679 401.564533 
L 465.345937 400.274215 
L 466.584194 398.753273 
L 467.822451 397.417209 
L 469.060709 396.880553 
L 470.298966 397.54691 
L 472.77548 400.541633 
L 474.013738 400.952881 
L 475.251995 400.196588 
L 476.490252 398.908224 
L 477.728509 397.866723 
L 478.966767 397.497381 
L 480.205024 397.707418 
L 481.443281 398.051852 
L 482.681538 398.197148 
L 483.919796 398.125221 
L 485.158053 397.865111 
L 487.634568 396.989859 
L 488.872825 396.834156 
L 490.111082 397.092625 
L 491.349339 397.532629 
L 492.587597 397.637387 
L 493.825854 397.107358 
L 496.302368 395.189064 
L 497.540626 394.768265 
L 498.778883 394.949368 
L 500.01714 395.495858 
L 501.255397 396.424715 
L 502.493655 398.040476 
L 504.970169 402.53166 
L 506.208427 404.178987 
L 507.446684 405.047676 
L 509.923198 405.880931 
L 511.161456 405.906897 
L 512.399713 404.859416 
L 513.63797 402.64165 
L 516.114485 397.352 
L 517.352742 395.147477 
L 518.590999 393.492678 
L 519.829257 392.793458 
L 521.067514 393.396208 
L 522.305771 395.148946 
L 523.544028 397.325285 
L 524.782286 399.053228 
L 526.020543 399.806007 
L 527.2588 399.475684 
L 528.497057 398.319366 
L 530.973572 395.492283 
L 533.450086 393.174822 
L 534.688344 392.184969 
L 535.926601 391.387306 
L 537.164858 390.990383 
L 538.403116 391.110154 
L 539.641373 391.702832 
L 543.356145 394.555517 
L 544.594402 395.12446 
L 545.832659 395.275407 
L 547.070916 394.819522 
L 548.309174 393.681898 
L 549.547431 391.946736 
L 552.023945 387.867142 
L 553.262203 386.222062 
L 554.50046 385.163782 
L 555.738717 384.893547 
L 556.976975 385.33127 
L 558.215232 385.917637 
L 559.453489 386.052145 
L 560.691746 385.78729 
L 561.930004 385.891445 
L 563.168261 387.039497 
L 565.644775 391.074638 
L 566.883033 392.598491 
L 568.12129 393.493614 
L 569.359547 393.816695 
L 570.597804 393.529745 
L 571.836062 392.506125 
L 573.074319 390.71228 
L 574.312576 388.246024 
L 575.550834 385.432904 
L 576.789091 383.053239 
L 578.027348 382.055237 
L 579.265605 382.967077 
L 580.503863 385.649078 
L 582.980377 393.014679 
L 584.218634 395.720826 
L 585.456892 396.819364 
L 586.695149 396.049791 
L 587.933406 393.678488 
L 590.409921 387.549498 
L 591.648178 385.514568 
L 592.886435 384.285325 
L 595.36295 382.464105 
L 596.601207 381.740834 
L 597.839464 381.37067 
L 599.077722 381.45308 
L 600.315979 381.900683 
L 602.792493 383.176357 
L 604.030751 383.464259 
L 605.269008 382.9071 
L 606.507265 381.250937 
L 607.745523 378.704529 
L 608.98378 375.817601 
L 610.222037 373.27394 
L 611.460294 371.757166 
L 612.698552 371.692861 
L 613.936809 373.037549 
L 615.175066 375.328363 
L 616.413323 377.900059 
L 617.651581 380.166476 
L 618.889838 381.80846 
L 620.128095 382.862244 
L 621.366352 383.484781 
L 622.60461 383.526147 
L 623.842867 382.735134 
L 626.319382 379.890381 
L 627.557639 378.964718 
L 628.795896 378.417176 
L 630.034153 377.677014 
L 631.272411 376.427744 
L 632.510668 375.001255 
L 633.748925 374.019291 
L 634.987182 373.667064 
L 636.22544 373.537336 
L 637.463697 373.210915 
L 638.701954 372.473422 
L 639.940211 371.031753 
L 641.178469 368.574649 
L 644.893241 358.171472 
L 646.131498 354.573929 
L 647.369755 350.017483 
L 648.608012 344.232963 
L 649.84627 337.449938 
L 652.322784 321.850593 
L 653.561041 313.851351 
L 654.799299 306.696167 
L 656.037556 300.770516 
L 657.275813 295.93098 
L 659.752328 287.83788 
L 660.990585 283.079004 
L 662.228842 276.820408 
L 663.4671 269.066394 
L 665.943614 251.144054 
L 668.420129 232.302707 
L 669.658386 222.202915 
L 673.373158 188.99937 
L 675.849672 170.087918 
L 677.087929 161.50345 
L 678.326187 154.684517 
L 679.564444 150.273024 
L 680.802701 147.52756 
L 682.040959 145.723231 
L 683.279216 145.284718 
L 684.517473 146.586373 
L 686.993988 150.892613 
L 688.232245 152.300767 
L 689.470502 152.76789 
L 690.708759 151.825817 
L 691.947017 148.980966 
L 693.185274 144.259589 
L 695.661789 133.166969 
L 698.138303 124.030733 
L 699.37656 117.390751 
L 700.614818 108.194165 
L 703.091332 87.507081 
L 704.329589 79.367486 
L 709.282618 53.911639 
L 710.520876 48.797373 
L 711.759133 47.979282 
L 712.99739 52.288942 
L 715.473905 66.460785 
L 716.712162 71.314629 
L 719.188677 78.457373 
L 720.426934 83.92699 
L 725.379963 112.236995 
L 726.61822 118.295335 
L 729.094735 129.020931 
L 730.332992 135.222719 
L 731.571249 143.287647 
L 734.047764 161.767476 
L 735.286021 167.94252 
L 736.524278 170.321614 
L 739.000793 169.492175 
L 740.23905 172.08961 
L 741.477307 178.475658 
L 743.953822 196.062218 
L 747.668594 223.595549 
L 748.906851 230.661823 
L 750.145108 235.259194 
L 751.383366 238.105009 
L 753.85988 242.408441 
L 756.336395 247.500757 
L 757.574652 249.512974 
L 758.812909 250.467356 
L 760.051166 249.992976 
L 761.289424 247.363867 
L 762.527681 242.34204 
L 763.765938 236.478233 
L 765.004195 232.155744 
L 766.242453 230.298366 
L 767.48071 230.136288 
L 768.718967 230.658245 
L 769.957225 231.36173 
L 771.195482 232.424719 
L 772.433739 234.556395 
L 773.671996 238.060185 
L 774.910254 242.198501 
L 776.148511 245.924981 
L 779.863283 255.287265 
L 781.10154 259.664504 
L 783.578054 270.38135 
L 786.054569 281.08287 
L 787.292826 285.020019 
L 788.531084 286.91692 
L 789.769341 286.146128 
L 791.007598 282.785485 
L 792.245855 278.151812 
L 793.484113 274.326483 
L 794.72237 272.515248 
L 795.960627 272.263746 
L 797.198884 272.640118 
L 798.437142 273.43215 
L 799.675399 274.82361 
L 800.913656 276.765301 
L 802.151914 279.13113 
L 803.390171 282.219499 
L 804.628428 286.836145 
L 805.866685 293.754447 
L 807.104943 302.979385 
L 809.581457 323.960221 
L 810.819714 333.406981 
L 812.057972 341.676394 
L 813.296229 348.96347 
L 814.534486 355.130718 
L 815.772743 359.60364 
L 817.011001 361.992404 
L 818.249258 362.447094 
L 819.487515 361.660044 
L 820.725773 360.702315 
L 821.96403 360.474133 
L 823.202287 361.165718 
L 824.440544 362.163798 
L 825.678802 362.601503 
L 826.917059 362.254042 
L 828.155316 361.637824 
L 829.393573 361.216168 
L 830.631831 361.068942 
L 831.870088 361.264489 
L 833.108345 361.809913 
L 834.346602 362.232587 
L 835.58486 361.904443 
L 838.061374 359.71744 
L 839.299632 359.353424 
L 840.537889 360.03703 
L 841.776146 361.511099 
L 843.014403 363.255695 
L 844.252661 364.751919 
L 845.490918 365.612485 
L 846.729175 365.738728 
L 849.20569 365.024981 
L 850.443947 365.030657 
L 851.682204 365.811012 
L 852.920461 367.214908 
L 854.158719 368.447586 
L 855.396976 369.148684 
L 859.111748 370.725943 
L 861.588262 371.238085 
L 862.82652 371.166433 
L 865.303034 370.249505 
L 866.541291 369.768423 
L 867.779549 368.904208 
L 869.017806 367.327864 
L 870.256063 365.42904 
L 871.49432 363.927746 
L 872.732578 363.067621 
L 873.970835 362.717926 
L 875.209092 362.743031 
L 876.44735 362.898926 
L 877.685607 362.844039 
L 880.162121 362.106069 
L 881.400379 362.111037 
L 882.638636 362.31017 
L 883.876893 362.228323 
L 885.11515 361.838547 
L 886.353408 361.582481 
L 887.591665 361.786801 
L 890.06818 363.048386 
L 891.306437 363.164551 
L 892.544694 362.535181 
L 893.782951 361.681702 
L 895.021209 361.239636 
L 896.259466 361.193136 
L 897.497723 361.026657 
L 898.73598 360.301735 
L 899.974238 358.988139 
L 902.450752 355.964175 
L 903.689009 354.931886 
L 904.927267 354.491815 
L 907.403781 354.845165 
L 908.642039 354.58577 
L 909.880296 354.064921 
L 911.118553 354.175865 
L 912.35681 355.314147 
L 913.595068 357.067372 
L 916.071582 361.177576 
L 917.309839 363.36489 
L 918.548097 365.210543 
L 919.786354 366.415018 
L 921.024611 366.955787 
L 922.262868 366.805282 
L 923.501126 365.952884 
L 924.739383 364.880141 
L 925.97764 364.39798 
L 927.215898 364.845955 
L 928.454155 365.659632 
L 929.692412 365.692324 
L 930.930669 363.986134 
L 932.168927 360.366452 
L 935.883698 345.627138 
L 937.121956 341.804328 
L 939.59847 334.900638 
L 940.836727 330.175485 
L 942.074985 323.199127 
L 944.551499 304.488798 
L 945.789757 561.202423 
L 999.034819 561.202423 
L 1000.273076 320.080803 
L 1001.511334 330.537959 
L 1002.749591 337.072553 
L 1003.987848 337.606618 
L 1005.226105 331.162933 
L 1006.464363 317.840494 
L 1010.179134 262.668237 
L 1011.417392 252.135753 
L 1012.655649 246.887841 
L 1013.893906 244.881701 
L 1015.132164 244.216051 
L 1016.370421 243.043891 
L 1017.608678 240.359999 
L 1018.846935 237.269708 
L 1020.085193 236.223146 
L 1021.32345 238.623873 
L 1022.561707 243.287713 
L 1023.799964 246.975186 
L 1025.038222 246.425663 
L 1026.276479 240.076271 
L 1027.514736 228.85301 
L 1031.229508 190.619529 
L 1033.706023 166.789524 
L 1034.94428 157.502304 
L 1036.182537 151.260027 
L 1037.420794 148.866076 
L 1038.659052 150.03833 
L 1041.135566 156.213156 
L 1042.373823 157.584347 
L 1043.612081 157.352765 
L 1044.850338 157.36157 
L 1046.088595 159.474318 
L 1047.326852 162.647884 
L 1048.56511 162.755219 
L 1049.803367 155.944764 
L 1051.041624 141.747757 
L 1053.518139 106.74151 
L 1054.756396 93.753689 
L 1055.994653 84.197456 
L 1057.232911 76.569466 
L 1058.471168 69.953903 
L 1059.709425 64.470695 
L 1060.947682 62.350683 
L 1062.18594 67.377547 
L 1063.424197 81.484503 
L 1064.662454 102.714639 
L 1067.138969 150.093743 
L 1068.377226 169.962001 
L 1069.615483 185.803748 
L 1070.853741 198.28507 
L 1072.091998 208.075061 
L 1073.330255 215.277528 
L 1074.568512 220.350383 
L 1075.80677 224.553083 
L 1077.045027 229.219813 
L 1078.283284 234.917379 
L 1081.998056 253.75864 
L 1083.236313 258.614006 
L 1084.474571 262.272498 
L 1085.712828 264.832627 
L 1086.951085 266.625348 
L 1089.4276 269.796721 
L 1090.665857 271.82845 
L 1093.142371 277.031111 
L 1094.380629 278.937837 
L 1095.618886 278.910848 
L 1096.857143 276.4587 
L 1098.0954 271.988595 
L 1099.333658 266.211304 
L 1103.04843 246.888908 
L 1104.286687 242.141789 
L 1105.524944 239.139137 
L 1106.763201 238.143651 
L 1108.001459 239.44023 
L 1109.239716 242.82632 
L 1110.477973 246.86881 
L 1111.71623 249.323921 
L 1112.954488 248.573309 
L 1114.192745 244.638536 
L 1117.907517 227.457566 
L 1119.145774 222.968392 
L 1120.384031 219.829782 
L 1121.622289 217.088463 
L 1122.860546 212.826352 
L 1124.098803 205.951725 
L 1129.051832 170.352012 
L 1134.004861 143.687428 
L 1135.243118 136.443373 
L 1136.481376 130.774305 
L 1137.719633 127.177511 
L 1138.95789 124.832181 
L 1140.196148 123.060195 
L 1141.434405 122.188346 
L 1142.672662 122.681026 
L 1143.910919 124.123484 
L 1145.149177 125.330448 
L 1146.387434 125.249099 
L 1147.625691 123.598566 
L 1150.102206 117.804281 
L 1151.340463 116.622723 
L 1152.57872 118.690062 
L 1153.816977 123.518885 
L 1155.055235 129.068557 
L 1156.293492 133.386899 
L 1157.531749 135.442888 
L 1158.770007 135.144381 
L 1160.008264 133.210673 
L 1161.246521 130.813175 
L 1162.484778 129.115062 
L 1163.723036 128.954148 
L 1164.961293 130.490829 
L 1167.437807 135.474847 
L 1168.676065 136.297496 
L 1169.914322 134.843898 
L 1173.629094 125.876578 
L 1174.867351 123.95893 
L 1176.105608 122.888695 
L 1177.343866 122.364333 
L 1178.582123 121.655958 
L 1179.82038 120.050235 
L 1181.058637 116.764822 
L 1182.296895 110.639495 
L 1183.535152 101.163024 
L 1184.773409 89.883805 
L 1186.011666 79.679279 
L 1187.249924 72.419372 
L 1188.488181 68.124074 
L 1189.726438 66.242682 
L 1190.964696 66.489418 
L 1192.202953 68.43753 
L 1193.44121 71.491371 
L 1195.917725 78.821371 
L 1197.155982 81.261875 
L 1198.394239 81.36834 
L 1199.632496 79.168504 
L 1200.870754 76.359042 
L 1202.109011 75.192458 
L 1203.347268 76.894039 
L 1204.585525 81.200908 
L 1207.06204 92.688355 
L 1208.300297 97.19666 
L 1209.538555 100.179601 
L 1210.776812 102.533008 
L 1212.015069 105.581809 
L 1213.253326 110.046498 
L 1216.968098 126.913826 
L 1218.206355 130.499359 
L 1219.444613 132.219836 
L 1220.68287 132.540117 
L 1221.921127 131.76447 
L 1223.159384 130.001149 
L 1224.397642 127.305063 
L 1225.635899 123.290636 
L 1228.112414 112.618381 
L 1229.350671 109.434686 
L 1230.588928 109.89282 
L 1231.827185 115.520908 
L 1233.065443 127.120999 
L 1235.541957 156.759565 
L 1236.780214 166.110738 
L 1238.018472 169.781475 
L 1239.256729 168.85295 
L 1240.494986 165.139125 
L 1241.733243 160.857056 
L 1242.971501 157.060449 
L 1244.209758 152.767265 
L 1245.448015 146.914657 
L 1247.92453 133.259306 
L 1249.162787 128.536529 
L 1250.401044 128.047868 
L 1251.639302 132.895943 
L 1252.877559 141.967367 
L 1255.354073 164.195198 
L 1256.592331 173.733215 
L 1257.830588 180.305495 
L 1259.068845 183.421192 
L 1260.307103 184.198908 
L 1261.54536 184.700812 
L 1262.783617 186.044769 
L 1264.021874 187.710904 
L 1265.260132 188.789411 
L 1266.498389 189.089696 
L 1268.974903 188.927427 
L 1270.213161 189.242908 
L 1271.451418 190.039851 
L 1272.689675 191.011635 
L 1273.927932 191.5061 
L 1275.16619 191.126795 
L 1276.404447 190.294824 
L 1277.642704 189.74854 
L 1278.880962 189.505947 
L 1280.119219 189.097238 
L 1281.357476 188.831715 
L 1282.595733 189.75437 
L 1283.833991 192.325231 
L 1285.072248 196.400921 
L 1286.310505 202.18443 
L 1287.548762 209.916923 
L 1290.025277 228.257899 
L 1291.263534 236.318114 
L 1292.501791 242.64639 
L 1293.740049 247.018339 
L 1294.978306 249.150788 
L 1296.216563 249.26258 
L 1298.693078 247.501201 
L 1299.931335 246.216792 
L 1301.169592 243.944122 
L 1302.40785 240.588257 
L 1303.646107 236.680327 
L 1304.884364 233.639542 
L 1306.122621 233.462083 
L 1307.360879 236.818883 
L 1308.599136 241.948797 
L 1309.837393 246.293528 
L 1311.07565 248.672123 
L 1312.313908 249.647922 
L 1313.552165 250.358369 
L 1314.790422 251.53332 
L 1316.02868 253.696787 
L 1317.266937 257.434964 
L 1318.505194 262.753916 
L 1320.981709 274.227658 
L 1322.219966 278.979129 
L 1323.458223 283.101787 
L 1325.934738 290.230582 
L 1327.172995 293.338562 
L 1328.411252 295.567312 
L 1329.649509 296.232963 
L 1330.887767 295.293952 
L 1332.126024 293.584065 
L 1333.364281 292.292402 
L 1334.602539 292.367208 
L 1335.840796 294.267686 
L 1337.079053 297.844067 
L 1338.31731 302.505199 
L 1342.032082 318.478193 
L 1343.270339 322.33075 
L 1344.508597 324.13932 
L 1345.746854 323.907233 
L 1348.223368 321.56691 
L 1349.461626 320.604016 
L 1350.699883 319.002879 
L 1351.93814 316.352265 
L 1353.176398 312.757348 
L 1354.414655 308.810591 
L 1355.652912 305.64915 
L 1356.891169 303.970735 
L 1358.129427 303.343137 
L 1359.367684 303.159409 
L 1360.605941 303.166459 
L 1361.844198 302.803123 
L 1363.082456 301.498229 
L 1364.320713 299.740253 
L 1365.55897 298.563529 
L 1366.797228 298.04102 
L 1368.035485 297.172314 
L 1369.273742 294.790927 
L 1370.511999 290.1652 
L 1372.988514 276.690927 
L 1374.226771 271.443777 
L 1375.465028 268.56576 
L 1376.703286 267.382361 
L 1377.941543 266.990101 
L 1379.1798 266.392288 
L 1380.418057 264.097324 
L 1381.656315 259.243488 
L 1382.894572 252.989656 
L 1384.132829 247.822141 
L 1385.371087 245.63961 
L 1386.609344 246.717858 
L 1387.847601 249.822911 
L 1389.085858 253.262316 
L 1395.277145 268.58196 
L 1396.515402 272.009192 
L 1397.753659 275.926834 
L 1398.991916 280.746047 
L 1402.706688 298.261933 
L 1403.944946 302.000767 
L 1405.183203 303.041605 
L 1406.42146 301.200832 
L 1407.659717 297.112313 
L 1408.897975 292.119499 
L 1410.136232 287.667414 
L 1411.374489 284.771358 
L 1412.612746 283.836906 
L 1413.851004 284.421453 
L 1415.089261 285.358047 
L 1416.327518 285.49208 
L 1417.565775 284.271663 
L 1420.04229 279.576153 
L 1421.280547 278.175758 
L 1422.518805 278.209251 
L 1423.757062 279.480214 
L 1426.233576 283.541254 
L 1427.471834 285.028815 
L 1428.710091 285.428541 
L 1429.948348 285.167506 
L 1431.186605 285.58893 
L 1432.424863 287.789543 
L 1433.66312 291.661127 
L 1434.901377 295.93056 
L 1436.139634 299.14559 
L 1437.377892 300.610304 
L 1438.616149 300.558214 
L 1439.854406 300.048656 
L 1441.092664 300.409169 
L 1442.330921 302.253413 
L 1444.807435 308.308657 
L 1446.045693 310.129488 
L 1447.28395 309.069524 
L 1448.522207 304.151712 
L 1449.760464 295.348553 
L 1453.475236 260.658878 
L 1454.713494 255.061313 
L 1455.951751 253.268328 
L 1457.190008 252.237568 
L 1458.428265 249.846732 
L 1459.666523 246.910115 
L 1460.90478 245.267441 
L 1462.143037 245.402621 
L 1463.381294 246.882851 
L 1464.619552 249.523495 
L 1465.857809 253.430427 
L 1469.572581 268.886838 
L 1470.810838 271.980006 
L 1472.049095 272.831863 
L 1473.287353 272.141761 
L 1474.52561 271.136047 
L 1475.763867 270.51962 
L 1477.002124 270.543624 
L 1478.240382 271.602305 
L 1480.716896 276.342457 
L 1481.955153 277.084651 
L 1483.193411 274.883952 
L 1484.431668 269.963478 
L 1485.669925 263.146708 
L 1488.14644 247.751957 
L 1489.384697 241.572362 
L 1490.622954 237.109867 
L 1493.099469 230.210605 
L 1494.337726 226.004145 
L 1495.575983 220.582067 
L 1496.814241 214.376768 
L 1498.052498 209.276224 
L 1499.290755 207.337203 
L 1500.529012 208.690433 
L 1501.76727 211.459789 
L 1503.005527 213.352462 
L 1504.243784 213.040985 
L 1505.482041 210.717402 
L 1507.958556 204.738186 
L 1509.196813 202.648826 
L 1510.435071 201.38977 
L 1512.911585 200.501646 
L 1514.149842 199.210515 
L 1515.3881 196.697706 
L 1516.626357 193.819415 
L 1517.864614 192.054479 
L 1519.102871 192.382848 
L 1520.341129 194.881626 
L 1521.579386 199.47344 
L 1522.817643 205.997256 
L 1525.294158 220.971707 
L 1526.532415 226.822804 
L 1527.770672 229.570011 
L 1529.00893 228.310131 
L 1531.485444 220.470996 
L 1532.723701 218.259525 
L 1533.961959 216.677615 
L 1535.200216 213.887946 
L 1536.438473 209.569088 
L 1537.67673 204.83245 
L 1538.914988 201.000119 
L 1540.153245 199.273395 
L 1541.391502 200.118416 
L 1542.62976 202.556394 
L 1545.106274 208.305036 
L 1546.344531 212.21234 
L 1548.821046 221.326109 
L 1550.059303 224.544688 
L 1552.535818 229.164189 
L 1553.774075 232.86718 
L 1555.012332 238.292966 
L 1556.250589 245.027346 
L 1558.727104 260.530302 
L 1559.965361 268.322256 
L 1561.203619 275.02813 
L 1562.441876 280.124968 
L 1563.680133 283.803526 
L 1564.91839 286.416791 
L 1566.156648 287.828644 
L 1567.394905 287.845967 
L 1572.347934 284.669487 
L 1573.586191 283.872367 
L 1574.824448 283.894057 
L 1576.062706 284.926802 
L 1577.300963 286.657289 
L 1578.53922 288.081979 
L 1579.777478 287.798636 
L 1581.015735 285.140295 
L 1582.253992 280.718749 
L 1584.730507 270.949398 
L 1587.207021 261.461603 
L 1589.683536 251.429384 
L 1590.921793 247.093614 
L 1592.16005 243.804624 
L 1593.398307 242.391803 
L 1594.636565 243.633538 
L 1595.874822 247.510641 
L 1597.113079 252.815005 
L 1598.351337 257.399703 
L 1599.589594 258.894338 
L 1600.827851 255.950239 
L 1602.066108 249.221827 
L 1604.542623 232.790597 
L 1605.78088 226.792981 
L 1607.019137 223.559482 
L 1608.257395 222.954808 
L 1609.495652 223.686267 
L 1610.733909 223.674827 
L 1611.972166 221.461446 
L 1613.210424 217.129703 
L 1615.686938 207.011293 
L 1620.639967 190.282027 
L 1621.878225 185.012883 
L 1625.592996 167.82976 
L 1626.831254 164.157906 
L 1628.069511 162.236517 
L 1629.307768 161.161136 
L 1630.546026 159.416192 
L 1631.784283 155.823254 
L 1633.02254 150.033367 
L 1635.499055 134.869662 
L 1636.737312 130.571741 
L 1637.975569 134.000523 
L 1639.213826 148.202985 
L 1640.452084 172.906811 
L 1641.690341 204.120906 
L 1641.690341 204.120906 
" style="fill:none;stroke:#008000;stroke-linecap:square;stroke-width:1.5;"/>
   </g>
   <g id="patch_3">
    <path d="M 43.78125 586.86358 
L 43.78125 22.318125 
" style="fill:none;stroke:#000000;stroke-linecap:square;stroke-linejoin:miter;stroke-width:0.8;"/>
   </g>
   <g id="patch_4">
    <path d="M 1717.78125 586.86358 
L 1717.78125 22.318125 
" style="fill:none;stroke:#000000;stroke-linecap:square;stroke-linejoin:miter;stroke-width:0.8;"/>
   </g>
   <g id="patch_5">
    <path d="M 43.78125 586.86358 
L 1717.78125 586.86358 
" style="fill:none;stroke:#000000;stroke-linecap:square;stroke-linejoin:miter;stroke-width:0.8;"/>
   </g>
   <g id="patch_6">
    <path d="M 43.78125 22.318125 
L 1717.78125 22.318125 
" style="fill:none;stroke:#000000;stroke-linecap:square;stroke-linejoin:miter;stroke-width:0.8;"/>
   </g>
   <g id="text_16">
    <!-- before binarisation -->
    <g transform="translate(824.1825 16.318125)scale(0.12 -0.12)">
     <defs>
      <path d="M 3116 1747 
Q 3116 2381 2855 2742 
Q 2594 3103 2138 3103 
Q 1681 3103 1420 2742 
Q 1159 2381 1159 1747 
Q 1159 1113 1420 752 
Q 1681 391 2138 391 
Q 2594 391 2855 752 
Q 3116 1113 3116 1747 
z
M 1159 2969 
Q 1341 3281 1617 3432 
Q 1894 3584 2278 3584 
Q 2916 3584 3314 3078 
Q 3713 2572 3713 1747 
Q 3713 922 3314 415 
Q 2916 -91 2278 -91 
Q 1894 -91 1617 61 
Q 1341 213 1159 525 
L 1159 0 
L 581 0 
L 581 4863 
L 1159 4863 
L 1159 2969 
z
" id="DejaVuSans-62" transform="scale(0.015625)"/>
      <path d="M 1959 3097 
Q 1497 3097 1228 2736 
Q 959 2375 959 1747 
Q 959 1119 1226 758 
Q 1494 397 1959 397 
Q 2419 397 2687 759 
Q 2956 1122 2956 1747 
Q 2956 2369 2687 2733 
Q 2419 3097 1959 3097 
z
M 1959 3584 
Q 2709 3584 3137 3096 
Q 3566 2609 3566 1747 
Q 3566 888 3137 398 
Q 2709 -91 1959 -91 
Q 1206 -91 779 398 
Q 353 888 353 1747 
Q 353 2609 779 3096 
Q 1206 3584 1959 3584 
z
" id="DejaVuSans-6f" transform="scale(0.015625)"/>
      <path id="DejaVuSans-20" transform="scale(0.015625)"/>
      <path d="M 603 3500 
L 1178 3500 
L 1178 0 
L 603 0 
L 603 3500 
z
M 603 4863 
L 1178 4863 
L 1178 4134 
L 603 4134 
L 603 4863 
z
" id="DejaVuSans-69" transform="scale(0.015625)"/>
      <path d="M 3513 2113 
L 3513 0 
L 2938 0 
L 2938 2094 
Q 2938 2591 2744 2837 
Q 2550 3084 2163 3084 
Q 1697 3084 1428 2787 
Q 1159 2491 1159 1978 
L 1159 0 
L 581 0 
L 581 3500 
L 1159 3500 
L 1159 2956 
Q 1366 3272 1645 3428 
Q 1925 3584 2291 3584 
Q 2894 3584 3203 3211 
Q 3513 2838 3513 2113 
z
" id="DejaVuSans-6e" transform="scale(0.015625)"/>
      <path d="M 2834 3397 
L 2834 2853 
Q 2591 2978 2328 3040 
Q 2066 3103 1784 3103 
Q 1356 3103 1142 2972 
Q 928 2841 928 2578 
Q 928 2378 1081 2264 
Q 1234 2150 1697 2047 
L 1894 2003 
Q 2506 1872 2764 1633 
Q 3022 1394 3022 966 
Q 3022 478 2636 193 
Q 2250 -91 1575 -91 
Q 1294 -91 989 -36 
Q 684 19 347 128 
L 347 722 
Q 666 556 975 473 
Q 1284 391 1588 391 
Q 1994 391 2212 530 
Q 2431 669 2431 922 
Q 2431 1156 2273 1281 
Q 2116 1406 1581 1522 
L 1381 1569 
Q 847 1681 609 1914 
Q 372 2147 372 2553 
Q 372 3047 722 3315 
Q 1072 3584 1716 3584 
Q 2034 3584 2315 3537 
Q 2597 3491 2834 3397 
z
" id="DejaVuSans-73" transform="scale(0.015625)"/>
      <path d="M 1172 4494 
L 1172 3500 
L 2356 3500 
L 2356 3053 
L 1172 3053 
L 1172 1153 
Q 1172 725 1289 603 
Q 1406 481 1766 481 
L 2356 481 
L 2356 0 
L 1766 0 
Q 1100 0 847 248 
Q 594 497 594 1153 
L 594 3053 
L 172 3053 
L 172 3500 
L 594 3500 
L 594 4494 
L 1172 4494 
z
" id="DejaVuSans-74" transform="scale(0.015625)"/>
     </defs>
     <use xlink:href="#DejaVuSans-62"/>
     <use x="63.476562" xlink:href="#DejaVuSans-65"/>
     <use x="125" xlink:href="#DejaVuSans-66"/>
     <use x="160.205078" xlink:href="#DejaVuSans-6f"/>
     <use x="221.386719" xlink:href="#DejaVuSans-72"/>
     <use x="260.25" xlink:href="#DejaVuSans-65"/>
     <use x="321.773438" xlink:href="#DejaVuSans-20"/>
     <use x="353.560547" xlink:href="#DejaVuSans-62"/>
     <use x="417.037109" xlink:href="#DejaVuSans-69"/>
     <use x="444.820312" xlink:href="#DejaVuSans-6e"/>
     <use x="508.199219" xlink:href="#DejaVuSans-61"/>
     <use x="569.478516" xlink:href="#DejaVuSans-72"/>
     <use x="610.591797" xlink:href="#DejaVuSans-69"/>
     <use x="638.375" xlink:href="#DejaVuSans-73"/>
     <use x="690.474609" xlink:href="#DejaVuSans-61"/>
     <use x="751.753906" xlink:href="#DejaVuSans-74"/>
     <use x="790.962891" xlink:href="#DejaVuSans-69"/>
     <use x="818.746094" xlink:href="#DejaVuSans-6f"/>
     <use x="879.927734" xlink:href="#DejaVuSans-6e"/>
    </g>
   </g>
  </g>
  <g id="axes_2">
   <g id="patch_7">
    <path d="M 43.78125 1264.318125 
L 1717.78125 1264.318125 
L 1717.78125 699.77267 
L 43.78125 699.77267 
z
" style="fill:#ffffff;"/>
   </g>
   <g id="matplotlib.axis_3">
    <g id="xtick_8">
     <g id="line2d_15">
      <g>
       <use style="stroke:#000000;stroke-width:0.8;" x="119.872159" xlink:href="#m60bdd59c53" y="1264.318125"/>
      </g>
     </g>
     <g id="text_17">
      <!-- 0 -->
      <g transform="translate(116.690909 1278.916563)scale(0.1 -0.1)">
       <use xlink:href="#DejaVuSans-30"/>
      </g>
     </g>
    </g>
    <g id="xtick_9">
     <g id="line2d_16">
      <g>
       <use style="stroke:#000000;stroke-width:0.8;" x="367.523613" xlink:href="#m60bdd59c53" y="1264.318125"/>
      </g>
     </g>
     <g id="text_18">
      <!-- 200 -->
      <g transform="translate(357.979863 1278.916563)scale(0.1 -0.1)">
       <use xlink:href="#DejaVuSans-32"/>
       <use x="63.623047" xlink:href="#DejaVuSans-30"/>
       <use x="127.246094" xlink:href="#DejaVuSans-30"/>
      </g>
     </g>
    </g>
    <g id="xtick_10">
     <g id="line2d_17">
      <g>
       <use style="stroke:#000000;stroke-width:0.8;" x="615.175066" xlink:href="#m60bdd59c53" y="1264.318125"/>
      </g>
     </g>
     <g id="text_19">
      <!-- 400 -->
      <g transform="translate(605.631316 1278.916563)scale(0.1 -0.1)">
       <use xlink:href="#DejaVuSans-34"/>
       <use x="63.623047" xlink:href="#DejaVuSans-30"/>
       <use x="127.246094" xlink:href="#DejaVuSans-30"/>
      </g>
     </g>
    </g>
    <g id="xtick_11">
     <g id="line2d_18">
      <g>
       <use style="stroke:#000000;stroke-width:0.8;" x="862.82652" xlink:href="#m60bdd59c53" y="1264.318125"/>
      </g>
     </g>
     <g id="text_20">
      <!-- 600 -->
      <g transform="translate(853.28277 1278.916563)scale(0.1 -0.1)">
       <use xlink:href="#DejaVuSans-36"/>
       <use x="63.623047" xlink:href="#DejaVuSans-30"/>
       <use x="127.246094" xlink:href="#DejaVuSans-30"/>
      </g>
     </g>
    </g>
    <g id="xtick_12">
     <g id="line2d_19">
      <g>
       <use style="stroke:#000000;stroke-width:0.8;" x="1110.477973" xlink:href="#m60bdd59c53" y="1264.318125"/>
      </g>
     </g>
     <g id="text_21">
      <!-- 800 -->
      <g transform="translate(1100.934223 1278.916563)scale(0.1 -0.1)">
       <use xlink:href="#DejaVuSans-38"/>
       <use x="63.623047" xlink:href="#DejaVuSans-30"/>
       <use x="127.246094" xlink:href="#DejaVuSans-30"/>
      </g>
     </g>
    </g>
    <g id="xtick_13">
     <g id="line2d_20">
      <g>
       <use style="stroke:#000000;stroke-width:0.8;" x="1358.129427" xlink:href="#m60bdd59c53" y="1264.318125"/>
      </g>
     </g>
     <g id="text_22">
      <!-- 1000 -->
      <g transform="translate(1345.404427 1278.916563)scale(0.1 -0.1)">
       <use xlink:href="#DejaVuSans-31"/>
       <use x="63.623047" xlink:href="#DejaVuSans-30"/>
       <use x="127.246094" xlink:href="#DejaVuSans-30"/>
       <use x="190.869141" xlink:href="#DejaVuSans-30"/>
      </g>
     </g>
    </g>
    <g id="xtick_14">
     <g id="line2d_21">
      <g>
       <use style="stroke:#000000;stroke-width:0.8;" x="1605.78088" xlink:href="#m60bdd59c53" y="1264.318125"/>
      </g>
     </g>
     <g id="text_23">
      <!-- 1200 -->
      <g transform="translate(1593.05588 1278.916563)scale(0.1 -0.1)">
       <use xlink:href="#DejaVuSans-31"/>
       <use x="63.623047" xlink:href="#DejaVuSans-32"/>
       <use x="127.246094" xlink:href="#DejaVuSans-30"/>
       <use x="190.869141" xlink:href="#DejaVuSans-30"/>
      </g>
     </g>
    </g>
    <g id="text_24">
     <!-- frame -->
     <g transform="translate(865.954687 1292.594688)scale(0.1 -0.1)">
      <use xlink:href="#DejaVuSans-66"/>
      <use x="35.205078" xlink:href="#DejaVuSans-72"/>
      <use x="76.318359" xlink:href="#DejaVuSans-61"/>
      <use x="137.597656" xlink:href="#DejaVuSans-6d"/>
      <use x="235.009766" xlink:href="#DejaVuSans-65"/>
     </g>
    </g>
   </g>
   <g id="matplotlib.axis_4">
    <g id="ytick_7">
     <g id="line2d_22">
      <g>
       <use style="stroke:#000000;stroke-width:0.8;" x="43.78125" xlink:href="#mda8bd0d806" y="1238.656968"/>
      </g>
     </g>
     <g id="text_25">
      <!-- 0.0 -->
      <g transform="translate(20.878125 1242.456187)scale(0.1 -0.1)">
       <use xlink:href="#DejaVuSans-30"/>
       <use x="63.623047" xlink:href="#DejaVuSans-2e"/>
       <use x="95.410156" xlink:href="#DejaVuSans-30"/>
      </g>
     </g>
    </g>
    <g id="ytick_8">
     <g id="line2d_23">
      <g>
       <use style="stroke:#000000;stroke-width:0.8;" x="43.78125" xlink:href="#mda8bd0d806" y="1136.01234"/>
      </g>
     </g>
     <g id="text_26">
      <!-- 0.2 -->
      <g transform="translate(20.878125 1139.811559)scale(0.1 -0.1)">
       <use xlink:href="#DejaVuSans-30"/>
       <use x="63.623047" xlink:href="#DejaVuSans-2e"/>
       <use x="95.410156" xlink:href="#DejaVuSans-32"/>
      </g>
     </g>
    </g>
    <g id="ytick_9">
     <g id="line2d_24">
      <g>
       <use style="stroke:#000000;stroke-width:0.8;" x="43.78125" xlink:href="#mda8bd0d806" y="1033.367712"/>
      </g>
     </g>
     <g id="text_27">
      <!-- 0.4 -->
      <g transform="translate(20.878125 1037.166931)scale(0.1 -0.1)">
       <use xlink:href="#DejaVuSans-30"/>
       <use x="63.623047" xlink:href="#DejaVuSans-2e"/>
       <use x="95.410156" xlink:href="#DejaVuSans-34"/>
      </g>
     </g>
    </g>
    <g id="ytick_10">
     <g id="line2d_25">
      <g>
       <use style="stroke:#000000;stroke-width:0.8;" x="43.78125" xlink:href="#mda8bd0d806" y="930.723084"/>
      </g>
     </g>
     <g id="text_28">
      <!-- 0.6 -->
      <g transform="translate(20.878125 934.522302)scale(0.1 -0.1)">
       <use xlink:href="#DejaVuSans-30"/>
       <use x="63.623047" xlink:href="#DejaVuSans-2e"/>
       <use x="95.410156" xlink:href="#DejaVuSans-36"/>
      </g>
     </g>
    </g>
    <g id="ytick_11">
     <g id="line2d_26">
      <g>
       <use style="stroke:#000000;stroke-width:0.8;" x="43.78125" xlink:href="#mda8bd0d806" y="828.078456"/>
      </g>
     </g>
     <g id="text_29">
      <!-- 0.8 -->
      <g transform="translate(20.878125 831.877674)scale(0.1 -0.1)">
       <use xlink:href="#DejaVuSans-30"/>
       <use x="63.623047" xlink:href="#DejaVuSans-2e"/>
       <use x="95.410156" xlink:href="#DejaVuSans-38"/>
      </g>
     </g>
    </g>
    <g id="ytick_12">
     <g id="line2d_27">
      <g>
       <use style="stroke:#000000;stroke-width:0.8;" x="43.78125" xlink:href="#mda8bd0d806" y="725.433827"/>
      </g>
     </g>
     <g id="text_30">
      <!-- 1.0 -->
      <g transform="translate(20.878125 729.233046)scale(0.1 -0.1)">
       <use xlink:href="#DejaVuSans-31"/>
       <use x="63.623047" xlink:href="#DejaVuSans-2e"/>
       <use x="95.410156" xlink:href="#DejaVuSans-30"/>
      </g>
     </g>
    </g>
    <g id="text_31">
     <!-- GCaMP -->
     <g transform="translate(14.798437 999.803991)rotate(-90)scale(0.1 -0.1)">
      <use xlink:href="#DejaVuSans-47"/>
      <use x="77.490234" xlink:href="#DejaVuSans-43"/>
      <use x="147.314453" xlink:href="#DejaVuSans-61"/>
      <use x="208.59375" xlink:href="#DejaVuSans-4d"/>
      <use x="294.873047" xlink:href="#DejaVuSans-50"/>
     </g>
    </g>
   </g>
   <g id="line2d_28">
    <path clip-path="url(#pb393851e88)" d="M 119.872159 1238.656968 
L 672.1349 1238.656968 
L 673.373158 725.433827 
L 742.715565 725.433827 
L 743.953822 1238.656968 
L 1029.991251 1238.656968 
L 1031.229508 725.433827 
L 1069.615483 725.433827 
L 1070.853741 1238.656968 
L 1125.33706 1238.656968 
L 1126.575318 725.433827 
L 1271.451418 725.433827 
L 1272.689675 1238.656968 
L 1275.16619 1238.656968 
L 1276.404447 725.433827 
L 1282.595733 725.433827 
L 1283.833991 1238.656968 
L 1619.40171 1238.656968 
L 1620.639967 725.433827 
L 1640.452084 725.433827 
L 1641.690341 1238.656968 
L 1641.690341 1238.656968 
" style="fill:none;stroke:#008000;stroke-linecap:square;stroke-width:1.5;"/>
   </g>
   <g id="patch_8">
    <path d="M 43.78125 1264.318125 
L 43.78125 699.77267 
" style="fill:none;stroke:#000000;stroke-linecap:square;stroke-linejoin:miter;stroke-width:0.8;"/>
   </g>
   <g id="patch_9">
    <path d="M 1717.78125 1264.318125 
L 1717.78125 699.77267 
" style="fill:none;stroke:#000000;stroke-linecap:square;stroke-linejoin:miter;stroke-width:0.8;"/>
   </g>
   <g id="patch_10">
    <path d="M 43.78125 1264.318125 
L 1717.78125 1264.318125 
" style="fill:none;stroke:#000000;stroke-linecap:square;stroke-linejoin:miter;stroke-width:0.8;"/>
   </g>
   <g id="patch_11">
    <path d="M 43.78125 699.77267 
L 1717.78125 699.77267 
" style="fill:none;stroke:#000000;stroke-linecap:square;stroke-linejoin:miter;stroke-width:0.8;"/>
   </g>
   <g id="text_32">
    <!-- before binarisation -->
    <g transform="translate(824.1825 693.77267)scale(0.12 -0.12)">
     <use xlink:href="#DejaVuSans-62"/>
     <use x="63.476562" xlink:href="#DejaVuSans-65"/>
     <use x="125" xlink:href="#DejaVuSans-66"/>
     <use x="160.205078" xlink:href="#DejaVuSans-6f"/>
     <use x="221.386719" xlink:href="#DejaVuSans-72"/>
     <use x="260.25" xlink:href="#DejaVuSans-65"/>
     <use x="321.773438" xlink:href="#DejaVuSans-20"/>
     <use x="353.560547" xlink:href="#DejaVuSans-62"/>
     <use x="417.037109" xlink:href="#DejaVuSans-69"/>
     <use x="444.820312" xlink:href="#DejaVuSans-6e"/>
     <use x="508.199219" xlink:href="#DejaVuSans-61"/>
     <use x="569.478516" xlink:href="#DejaVuSans-72"/>
     <use x="610.591797" xlink:href="#DejaVuSans-69"/>
     <use x="638.375" xlink:href="#DejaVuSans-73"/>
     <use x="690.474609" xlink:href="#DejaVuSans-61"/>
     <use x="751.753906" xlink:href="#DejaVuSans-74"/>
     <use x="790.962891" xlink:href="#DejaVuSans-69"/>
     <use x="818.746094" xlink:href="#DejaVuSans-6f"/>
     <use x="879.927734" xlink:href="#DejaVuSans-6e"/>
    </g>
   </g>
  </g>
 </g>
 <defs>
  <clipPath id="p05dd8d2fb0">
   <rect height="564.545455" width="1674" x="43.78125" y="22.318125"/>
  </clipPath>
  <clipPath id="pb393851e88">
   <rect height="564.545455" width="1674" x="43.78125" y="699.77267"/>
  </clipPath>
 </defs>
</svg>
