<?xml version="1.0" encoding="utf-8" standalone="no"?>
<!DOCTYPE svg PUBLIC "-//W3C//DTD SVG 1.1//EN"
  "http://www.w3.org/Graphics/SVG/1.1/DTD/svg11.dtd">
<svg height="1301.874375pt" version="1.1" viewBox="0 0 1731.34375 1301.874375" width="1731.34375pt" xmlns="http://www.w3.org/2000/svg" xmlns:xlink="http://www.w3.org/1999/xlink">
 <metadata>
  <rdf:RDF xmlns:cc="http://creativecommons.org/ns#" xmlns:dc="http://purl.org/dc/elements/1.1/" xmlns:rdf="http://www.w3.org/1999/02/22-rdf-syntax-ns#">
   <cc:Work>
    <dc:type rdf:resource="http://purl.org/dc/dcmitype/StillImage"/>
    <dc:date>2022-07-24T15:54:36.004000</dc:date>
    <dc:format>image/svg+xml</dc:format>
    <dc:creator>
     <cc:Agent>
      <dc:title>Matplotlib v3.4.2, https://matplotlib.org/</dc:title>
     </cc:Agent>
    </dc:creator>
   </cc:Work>
  </rdf:RDF>
 </metadata>
 <defs>
  <style type="text/css">*{stroke-linecap:butt;stroke-linejoin:round;}</style>
 </defs>
 <g id="figure_1">
  <g id="patch_1">
   <path d="M 0 1301.874375 
L 1731.34375 1301.874375 
L 1731.34375 0 
L 0 0 
z
" style="fill:#ffffff;"/>
  </g>
  <g id="axes_1">
   <g id="patch_2">
    <path d="M 50.14375 586.86358 
L 1724.14375 586.86358 
L 1724.14375 22.318125 
L 50.14375 22.318125 
z
" style="fill:#ffffff;"/>
   </g>
   <g id="matplotlib.axis_1">
    <g id="xtick_1">
     <g id="line2d_1">
      <defs>
       <path d="M 0 0 
L 0 3.5 
" id="m360a617b3f" style="stroke:#000000;stroke-width:0.8;"/>
      </defs>
      <g>
       <use style="stroke:#000000;stroke-width:0.8;" x="126.234659" xlink:href="#m360a617b3f" y="586.86358"/>
      </g>
     </g>
     <g id="text_1">
      <!-- 0 -->
      <g transform="translate(123.053409 601.462017)scale(0.1 -0.1)">
       <defs>
        <path d="M 2034 4250 
Q 1547 4250 1301 3770 
Q 1056 3291 1056 2328 
Q 1056 1369 1301 889 
Q 1547 409 2034 409 
Q 2525 409 2770 889 
Q 3016 1369 3016 2328 
Q 3016 3291 2770 3770 
Q 2525 4250 2034 4250 
z
M 2034 4750 
Q 2819 4750 3233 4129 
Q 3647 3509 3647 2328 
Q 3647 1150 3233 529 
Q 2819 -91 2034 -91 
Q 1250 -91 836 529 
Q 422 1150 422 2328 
Q 422 3509 836 4129 
Q 1250 4750 2034 4750 
z
" id="DejaVuSans-30" transform="scale(0.015625)"/>
       </defs>
       <use xlink:href="#DejaVuSans-30"/>
      </g>
     </g>
    </g>
    <g id="xtick_2">
     <g id="line2d_2">
      <g>
       <use style="stroke:#000000;stroke-width:0.8;" x="373.886113" xlink:href="#m360a617b3f" y="586.86358"/>
      </g>
     </g>
     <g id="text_2">
      <!-- 200 -->
      <g transform="translate(364.342363 601.462017)scale(0.1 -0.1)">
       <defs>
        <path d="M 1228 531 
L 3431 531 
L 3431 0 
L 469 0 
L 469 531 
Q 828 903 1448 1529 
Q 2069 2156 2228 2338 
Q 2531 2678 2651 2914 
Q 2772 3150 2772 3378 
Q 2772 3750 2511 3984 
Q 2250 4219 1831 4219 
Q 1534 4219 1204 4116 
Q 875 4013 500 3803 
L 500 4441 
Q 881 4594 1212 4672 
Q 1544 4750 1819 4750 
Q 2544 4750 2975 4387 
Q 3406 4025 3406 3419 
Q 3406 3131 3298 2873 
Q 3191 2616 2906 2266 
Q 2828 2175 2409 1742 
Q 1991 1309 1228 531 
z
" id="DejaVuSans-32" transform="scale(0.015625)"/>
       </defs>
       <use xlink:href="#DejaVuSans-32"/>
       <use x="63.623047" xlink:href="#DejaVuSans-30"/>
       <use x="127.246094" xlink:href="#DejaVuSans-30"/>
      </g>
     </g>
    </g>
    <g id="xtick_3">
     <g id="line2d_3">
      <g>
       <use style="stroke:#000000;stroke-width:0.8;" x="621.537566" xlink:href="#m360a617b3f" y="586.86358"/>
      </g>
     </g>
     <g id="text_3">
      <!-- 400 -->
      <g transform="translate(611.993816 601.462017)scale(0.1 -0.1)">
       <defs>
        <path d="M 2419 4116 
L 825 1625 
L 2419 1625 
L 2419 4116 
z
M 2253 4666 
L 3047 4666 
L 3047 1625 
L 3713 1625 
L 3713 1100 
L 3047 1100 
L 3047 0 
L 2419 0 
L 2419 1100 
L 313 1100 
L 313 1709 
L 2253 4666 
z
" id="DejaVuSans-34" transform="scale(0.015625)"/>
       </defs>
       <use xlink:href="#DejaVuSans-34"/>
       <use x="63.623047" xlink:href="#DejaVuSans-30"/>
       <use x="127.246094" xlink:href="#DejaVuSans-30"/>
      </g>
     </g>
    </g>
    <g id="xtick_4">
     <g id="line2d_4">
      <g>
       <use style="stroke:#000000;stroke-width:0.8;" x="869.18902" xlink:href="#m360a617b3f" y="586.86358"/>
      </g>
     </g>
     <g id="text_4">
      <!-- 600 -->
      <g transform="translate(859.64527 601.462017)scale(0.1 -0.1)">
       <defs>
        <path d="M 2113 2584 
Q 1688 2584 1439 2293 
Q 1191 2003 1191 1497 
Q 1191 994 1439 701 
Q 1688 409 2113 409 
Q 2538 409 2786 701 
Q 3034 994 3034 1497 
Q 3034 2003 2786 2293 
Q 2538 2584 2113 2584 
z
M 3366 4563 
L 3366 3988 
Q 3128 4100 2886 4159 
Q 2644 4219 2406 4219 
Q 1781 4219 1451 3797 
Q 1122 3375 1075 2522 
Q 1259 2794 1537 2939 
Q 1816 3084 2150 3084 
Q 2853 3084 3261 2657 
Q 3669 2231 3669 1497 
Q 3669 778 3244 343 
Q 2819 -91 2113 -91 
Q 1303 -91 875 529 
Q 447 1150 447 2328 
Q 447 3434 972 4092 
Q 1497 4750 2381 4750 
Q 2619 4750 2861 4703 
Q 3103 4656 3366 4563 
z
" id="DejaVuSans-36" transform="scale(0.015625)"/>
       </defs>
       <use xlink:href="#DejaVuSans-36"/>
       <use x="63.623047" xlink:href="#DejaVuSans-30"/>
       <use x="127.246094" xlink:href="#DejaVuSans-30"/>
      </g>
     </g>
    </g>
    <g id="xtick_5">
     <g id="line2d_5">
      <g>
       <use style="stroke:#000000;stroke-width:0.8;" x="1116.840473" xlink:href="#m360a617b3f" y="586.86358"/>
      </g>
     </g>
     <g id="text_5">
      <!-- 800 -->
      <g transform="translate(1107.296723 601.462017)scale(0.1 -0.1)">
       <defs>
        <path d="M 2034 2216 
Q 1584 2216 1326 1975 
Q 1069 1734 1069 1313 
Q 1069 891 1326 650 
Q 1584 409 2034 409 
Q 2484 409 2743 651 
Q 3003 894 3003 1313 
Q 3003 1734 2745 1975 
Q 2488 2216 2034 2216 
z
M 1403 2484 
Q 997 2584 770 2862 
Q 544 3141 544 3541 
Q 544 4100 942 4425 
Q 1341 4750 2034 4750 
Q 2731 4750 3128 4425 
Q 3525 4100 3525 3541 
Q 3525 3141 3298 2862 
Q 3072 2584 2669 2484 
Q 3125 2378 3379 2068 
Q 3634 1759 3634 1313 
Q 3634 634 3220 271 
Q 2806 -91 2034 -91 
Q 1263 -91 848 271 
Q 434 634 434 1313 
Q 434 1759 690 2068 
Q 947 2378 1403 2484 
z
M 1172 3481 
Q 1172 3119 1398 2916 
Q 1625 2713 2034 2713 
Q 2441 2713 2670 2916 
Q 2900 3119 2900 3481 
Q 2900 3844 2670 4047 
Q 2441 4250 2034 4250 
Q 1625 4250 1398 4047 
Q 1172 3844 1172 3481 
z
" id="DejaVuSans-38" transform="scale(0.015625)"/>
       </defs>
       <use xlink:href="#DejaVuSans-38"/>
       <use x="63.623047" xlink:href="#DejaVuSans-30"/>
       <use x="127.246094" xlink:href="#DejaVuSans-30"/>
      </g>
     </g>
    </g>
    <g id="xtick_6">
     <g id="line2d_6">
      <g>
       <use style="stroke:#000000;stroke-width:0.8;" x="1364.491927" xlink:href="#m360a617b3f" y="586.86358"/>
      </g>
     </g>
     <g id="text_6">
      <!-- 1000 -->
      <g transform="translate(1351.766927 601.462017)scale(0.1 -0.1)">
       <defs>
        <path d="M 794 531 
L 1825 531 
L 1825 4091 
L 703 3866 
L 703 4441 
L 1819 4666 
L 2450 4666 
L 2450 531 
L 3481 531 
L 3481 0 
L 794 0 
L 794 531 
z
" id="DejaVuSans-31" transform="scale(0.015625)"/>
       </defs>
       <use xlink:href="#DejaVuSans-31"/>
       <use x="63.623047" xlink:href="#DejaVuSans-30"/>
       <use x="127.246094" xlink:href="#DejaVuSans-30"/>
       <use x="190.869141" xlink:href="#DejaVuSans-30"/>
      </g>
     </g>
    </g>
    <g id="xtick_7">
     <g id="line2d_7">
      <g>
       <use style="stroke:#000000;stroke-width:0.8;" x="1612.14338" xlink:href="#m360a617b3f" y="586.86358"/>
      </g>
     </g>
     <g id="text_7">
      <!-- 1200 -->
      <g transform="translate(1599.41838 601.462017)scale(0.1 -0.1)">
       <use xlink:href="#DejaVuSans-31"/>
       <use x="63.623047" xlink:href="#DejaVuSans-32"/>
       <use x="127.246094" xlink:href="#DejaVuSans-30"/>
       <use x="190.869141" xlink:href="#DejaVuSans-30"/>
      </g>
     </g>
    </g>
    <g id="text_8">
     <!-- frame -->
     <g transform="translate(872.317187 615.140142)scale(0.1 -0.1)">
      <defs>
       <path d="M 2375 4863 
L 2375 4384 
L 1825 4384 
Q 1516 4384 1395 4259 
Q 1275 4134 1275 3809 
L 1275 3500 
L 2222 3500 
L 2222 3053 
L 1275 3053 
L 1275 0 
L 697 0 
L 697 3053 
L 147 3053 
L 147 3500 
L 697 3500 
L 697 3744 
Q 697 4328 969 4595 
Q 1241 4863 1831 4863 
L 2375 4863 
z
" id="DejaVuSans-66" transform="scale(0.015625)"/>
       <path d="M 2631 2963 
Q 2534 3019 2420 3045 
Q 2306 3072 2169 3072 
Q 1681 3072 1420 2755 
Q 1159 2438 1159 1844 
L 1159 0 
L 581 0 
L 581 3500 
L 1159 3500 
L 1159 2956 
Q 1341 3275 1631 3429 
Q 1922 3584 2338 3584 
Q 2397 3584 2469 3576 
Q 2541 3569 2628 3553 
L 2631 2963 
z
" id="DejaVuSans-72" transform="scale(0.015625)"/>
       <path d="M 2194 1759 
Q 1497 1759 1228 1600 
Q 959 1441 959 1056 
Q 959 750 1161 570 
Q 1363 391 1709 391 
Q 2188 391 2477 730 
Q 2766 1069 2766 1631 
L 2766 1759 
L 2194 1759 
z
M 3341 1997 
L 3341 0 
L 2766 0 
L 2766 531 
Q 2569 213 2275 61 
Q 1981 -91 1556 -91 
Q 1019 -91 701 211 
Q 384 513 384 1019 
Q 384 1609 779 1909 
Q 1175 2209 1959 2209 
L 2766 2209 
L 2766 2266 
Q 2766 2663 2505 2880 
Q 2244 3097 1772 3097 
Q 1472 3097 1187 3025 
Q 903 2953 641 2809 
L 641 3341 
Q 956 3463 1253 3523 
Q 1550 3584 1831 3584 
Q 2591 3584 2966 3190 
Q 3341 2797 3341 1997 
z
" id="DejaVuSans-61" transform="scale(0.015625)"/>
       <path d="M 3328 2828 
Q 3544 3216 3844 3400 
Q 4144 3584 4550 3584 
Q 5097 3584 5394 3201 
Q 5691 2819 5691 2113 
L 5691 0 
L 5113 0 
L 5113 2094 
Q 5113 2597 4934 2840 
Q 4756 3084 4391 3084 
Q 3944 3084 3684 2787 
Q 3425 2491 3425 1978 
L 3425 0 
L 2847 0 
L 2847 2094 
Q 2847 2600 2669 2842 
Q 2491 3084 2119 3084 
Q 1678 3084 1418 2786 
Q 1159 2488 1159 1978 
L 1159 0 
L 581 0 
L 581 3500 
L 1159 3500 
L 1159 2956 
Q 1356 3278 1631 3431 
Q 1906 3584 2284 3584 
Q 2666 3584 2933 3390 
Q 3200 3197 3328 2828 
z
" id="DejaVuSans-6d" transform="scale(0.015625)"/>
       <path d="M 3597 1894 
L 3597 1613 
L 953 1613 
Q 991 1019 1311 708 
Q 1631 397 2203 397 
Q 2534 397 2845 478 
Q 3156 559 3463 722 
L 3463 178 
Q 3153 47 2828 -22 
Q 2503 -91 2169 -91 
Q 1331 -91 842 396 
Q 353 884 353 1716 
Q 353 2575 817 3079 
Q 1281 3584 2069 3584 
Q 2775 3584 3186 3129 
Q 3597 2675 3597 1894 
z
M 3022 2063 
Q 3016 2534 2758 2815 
Q 2500 3097 2075 3097 
Q 1594 3097 1305 2825 
Q 1016 2553 972 2059 
L 3022 2063 
z
" id="DejaVuSans-65" transform="scale(0.015625)"/>
      </defs>
      <use xlink:href="#DejaVuSans-66"/>
      <use x="35.205078" xlink:href="#DejaVuSans-72"/>
      <use x="76.318359" xlink:href="#DejaVuSans-61"/>
      <use x="137.597656" xlink:href="#DejaVuSans-6d"/>
      <use x="235.009766" xlink:href="#DejaVuSans-65"/>
     </g>
    </g>
   </g>
   <g id="matplotlib.axis_2">
    <g id="ytick_1">
     <g id="line2d_8">
      <defs>
       <path d="M 0 0 
L -3.5 0 
" id="m339eb8ddd2" style="stroke:#000000;stroke-width:0.8;"/>
      </defs>
      <g>
       <use style="stroke:#000000;stroke-width:0.8;" x="50.14375" xlink:href="#m339eb8ddd2" y="540.677914"/>
      </g>
     </g>
     <g id="text_9">
      <!-- 0.75 -->
      <g transform="translate(20.878125 544.477133)scale(0.1 -0.1)">
       <defs>
        <path d="M 684 794 
L 1344 794 
L 1344 0 
L 684 0 
L 684 794 
z
" id="DejaVuSans-2e" transform="scale(0.015625)"/>
        <path d="M 525 4666 
L 3525 4666 
L 3525 4397 
L 1831 0 
L 1172 0 
L 2766 4134 
L 525 4134 
L 525 4666 
z
" id="DejaVuSans-37" transform="scale(0.015625)"/>
        <path d="M 691 4666 
L 3169 4666 
L 3169 4134 
L 1269 4134 
L 1269 2991 
Q 1406 3038 1543 3061 
Q 1681 3084 1819 3084 
Q 2600 3084 3056 2656 
Q 3513 2228 3513 1497 
Q 3513 744 3044 326 
Q 2575 -91 1722 -91 
Q 1428 -91 1123 -41 
Q 819 9 494 109 
L 494 744 
Q 775 591 1075 516 
Q 1375 441 1709 441 
Q 2250 441 2565 725 
Q 2881 1009 2881 1497 
Q 2881 1984 2565 2268 
Q 2250 2553 1709 2553 
Q 1456 2553 1204 2497 
Q 953 2441 691 2322 
L 691 4666 
z
" id="DejaVuSans-35" transform="scale(0.015625)"/>
       </defs>
       <use xlink:href="#DejaVuSans-30"/>
       <use x="63.623047" xlink:href="#DejaVuSans-2e"/>
       <use x="95.410156" xlink:href="#DejaVuSans-37"/>
       <use x="159.033203" xlink:href="#DejaVuSans-35"/>
      </g>
     </g>
    </g>
    <g id="ytick_2">
     <g id="line2d_9">
      <g>
       <use style="stroke:#000000;stroke-width:0.8;" x="50.14375" xlink:href="#m339eb8ddd2" y="474.95656"/>
      </g>
     </g>
     <g id="text_10">
      <!-- 1.00 -->
      <g transform="translate(20.878125 478.755779)scale(0.1 -0.1)">
       <use xlink:href="#DejaVuSans-31"/>
       <use x="63.623047" xlink:href="#DejaVuSans-2e"/>
       <use x="95.410156" xlink:href="#DejaVuSans-30"/>
       <use x="159.033203" xlink:href="#DejaVuSans-30"/>
      </g>
     </g>
    </g>
    <g id="ytick_3">
     <g id="line2d_10">
      <g>
       <use style="stroke:#000000;stroke-width:0.8;" x="50.14375" xlink:href="#m339eb8ddd2" y="409.235207"/>
      </g>
     </g>
     <g id="text_11">
      <!-- 1.25 -->
      <g transform="translate(20.878125 413.034426)scale(0.1 -0.1)">
       <use xlink:href="#DejaVuSans-31"/>
       <use x="63.623047" xlink:href="#DejaVuSans-2e"/>
       <use x="95.410156" xlink:href="#DejaVuSans-32"/>
       <use x="159.033203" xlink:href="#DejaVuSans-35"/>
      </g>
     </g>
    </g>
    <g id="ytick_4">
     <g id="line2d_11">
      <g>
       <use style="stroke:#000000;stroke-width:0.8;" x="50.14375" xlink:href="#m339eb8ddd2" y="343.513853"/>
      </g>
     </g>
     <g id="text_12">
      <!-- 1.50 -->
      <g transform="translate(20.878125 347.313072)scale(0.1 -0.1)">
       <use xlink:href="#DejaVuSans-31"/>
       <use x="63.623047" xlink:href="#DejaVuSans-2e"/>
       <use x="95.410156" xlink:href="#DejaVuSans-35"/>
       <use x="159.033203" xlink:href="#DejaVuSans-30"/>
      </g>
     </g>
    </g>
    <g id="ytick_5">
     <g id="line2d_12">
      <g>
       <use style="stroke:#000000;stroke-width:0.8;" x="50.14375" xlink:href="#m339eb8ddd2" y="277.792499"/>
      </g>
     </g>
     <g id="text_13">
      <!-- 1.75 -->
      <g transform="translate(20.878125 281.591718)scale(0.1 -0.1)">
       <use xlink:href="#DejaVuSans-31"/>
       <use x="63.623047" xlink:href="#DejaVuSans-2e"/>
       <use x="95.410156" xlink:href="#DejaVuSans-37"/>
       <use x="159.033203" xlink:href="#DejaVuSans-35"/>
      </g>
     </g>
    </g>
    <g id="ytick_6">
     <g id="line2d_13">
      <g>
       <use style="stroke:#000000;stroke-width:0.8;" x="50.14375" xlink:href="#m339eb8ddd2" y="212.071146"/>
      </g>
     </g>
     <g id="text_14">
      <!-- 2.00 -->
      <g transform="translate(20.878125 215.870365)scale(0.1 -0.1)">
       <use xlink:href="#DejaVuSans-32"/>
       <use x="63.623047" xlink:href="#DejaVuSans-2e"/>
       <use x="95.410156" xlink:href="#DejaVuSans-30"/>
       <use x="159.033203" xlink:href="#DejaVuSans-30"/>
      </g>
     </g>
    </g>
    <g id="ytick_7">
     <g id="line2d_14">
      <g>
       <use style="stroke:#000000;stroke-width:0.8;" x="50.14375" xlink:href="#m339eb8ddd2" y="146.349792"/>
      </g>
     </g>
     <g id="text_15">
      <!-- 2.25 -->
      <g transform="translate(20.878125 150.149011)scale(0.1 -0.1)">
       <use xlink:href="#DejaVuSans-32"/>
       <use x="63.623047" xlink:href="#DejaVuSans-2e"/>
       <use x="95.410156" xlink:href="#DejaVuSans-32"/>
       <use x="159.033203" xlink:href="#DejaVuSans-35"/>
      </g>
     </g>
    </g>
    <g id="ytick_8">
     <g id="line2d_15">
      <g>
       <use style="stroke:#000000;stroke-width:0.8;" x="50.14375" xlink:href="#m339eb8ddd2" y="80.628438"/>
      </g>
     </g>
     <g id="text_16">
      <!-- 2.50 -->
      <g transform="translate(20.878125 84.427657)scale(0.1 -0.1)">
       <use xlink:href="#DejaVuSans-32"/>
       <use x="63.623047" xlink:href="#DejaVuSans-2e"/>
       <use x="95.410156" xlink:href="#DejaVuSans-35"/>
       <use x="159.033203" xlink:href="#DejaVuSans-30"/>
      </g>
     </g>
    </g>
    <g id="text_17">
     <!-- GCaMP -->
     <g transform="translate(14.798438 322.349446)rotate(-90)scale(0.1 -0.1)">
      <defs>
       <path d="M 3809 666 
L 3809 1919 
L 2778 1919 
L 2778 2438 
L 4434 2438 
L 4434 434 
Q 4069 175 3628 42 
Q 3188 -91 2688 -91 
Q 1594 -91 976 548 
Q 359 1188 359 2328 
Q 359 3472 976 4111 
Q 1594 4750 2688 4750 
Q 3144 4750 3555 4637 
Q 3966 4525 4313 4306 
L 4313 3634 
Q 3963 3931 3569 4081 
Q 3175 4231 2741 4231 
Q 1884 4231 1454 3753 
Q 1025 3275 1025 2328 
Q 1025 1384 1454 906 
Q 1884 428 2741 428 
Q 3075 428 3337 486 
Q 3600 544 3809 666 
z
" id="DejaVuSans-47" transform="scale(0.015625)"/>
       <path d="M 4122 4306 
L 4122 3641 
Q 3803 3938 3442 4084 
Q 3081 4231 2675 4231 
Q 1875 4231 1450 3742 
Q 1025 3253 1025 2328 
Q 1025 1406 1450 917 
Q 1875 428 2675 428 
Q 3081 428 3442 575 
Q 3803 722 4122 1019 
L 4122 359 
Q 3791 134 3420 21 
Q 3050 -91 2638 -91 
Q 1578 -91 968 557 
Q 359 1206 359 2328 
Q 359 3453 968 4101 
Q 1578 4750 2638 4750 
Q 3056 4750 3426 4639 
Q 3797 4528 4122 4306 
z
" id="DejaVuSans-43" transform="scale(0.015625)"/>
       <path d="M 628 4666 
L 1569 4666 
L 2759 1491 
L 3956 4666 
L 4897 4666 
L 4897 0 
L 4281 0 
L 4281 4097 
L 3078 897 
L 2444 897 
L 1241 4097 
L 1241 0 
L 628 0 
L 628 4666 
z
" id="DejaVuSans-4d" transform="scale(0.015625)"/>
       <path d="M 1259 4147 
L 1259 2394 
L 2053 2394 
Q 2494 2394 2734 2622 
Q 2975 2850 2975 3272 
Q 2975 3691 2734 3919 
Q 2494 4147 2053 4147 
L 1259 4147 
z
M 628 4666 
L 2053 4666 
Q 2838 4666 3239 4311 
Q 3641 3956 3641 3272 
Q 3641 2581 3239 2228 
Q 2838 1875 2053 1875 
L 1259 1875 
L 1259 0 
L 628 0 
L 628 4666 
z
" id="DejaVuSans-50" transform="scale(0.015625)"/>
      </defs>
      <use xlink:href="#DejaVuSans-47"/>
      <use x="77.490234" xlink:href="#DejaVuSans-43"/>
      <use x="147.314453" xlink:href="#DejaVuSans-61"/>
      <use x="208.59375" xlink:href="#DejaVuSans-4d"/>
      <use x="294.873047" xlink:href="#DejaVuSans-50"/>
     </g>
    </g>
   </g>
   <g id="line2d_16">
    <path clip-path="url(#p6076e1f451)" d="M 126.234659 513.301483 
L 127.472916 513.903201 
L 128.711174 514.655273 
L 129.949431 515.777426 
L 131.187688 517.446675 
L 132.425945 519.765059 
L 133.664203 522.832103 
L 136.140717 529.976098 
L 137.378974 532.845641 
L 138.617232 535.004754 
L 139.855489 536.603322 
L 141.093746 537.606745 
L 142.332004 537.892749 
L 143.570261 537.629581 
L 144.808518 537.246389 
L 147.285033 536.810531 
L 148.52329 536.847037 
L 149.761547 537.278971 
L 150.999804 538.046864 
L 155.952834 541.806899 
L 157.191091 542.462517 
L 158.429348 542.666368 
L 159.667605 542.225068 
L 162.14412 540.578009 
L 163.382377 540.179135 
L 164.620634 540.200338 
L 165.858892 540.654754 
L 167.097149 541.582634 
L 170.811921 545.450996 
L 172.050178 546.37683 
L 173.288435 546.848914 
L 175.76495 547.123648 
L 177.003207 547.722071 
L 178.241464 548.951736 
L 179.479722 550.606476 
L 180.717979 552.025737 
L 181.956236 552.684792 
L 183.194493 552.74431 
L 184.432751 552.63946 
L 185.671008 552.408204 
L 188.147522 551.338646 
L 189.38578 551.344093 
L 190.624037 552.207514 
L 191.862294 553.871842 
L 195.577066 560.438917 
L 196.815323 561.202423 
L 198.053581 560.765474 
L 200.530095 558.388583 
L 201.768352 557.251823 
L 203.00661 556.438245 
L 204.244867 556.194582 
L 205.483124 556.514327 
L 206.721381 557.048945 
L 207.959639 557.384421 
L 209.197896 557.250315 
L 210.436153 556.534433 
L 211.674411 555.312437 
L 216.62744 549.581242 
L 217.865697 548.254251 
L 219.103954 547.251065 
L 220.342211 546.558013 
L 221.580469 546.017921 
L 222.818726 545.621604 
L 224.056983 545.52753 
L 225.29524 546.037139 
L 226.533498 547.451345 
L 229.010012 551.662679 
L 230.24827 552.665306 
L 231.486527 552.068009 
L 232.724784 550.073527 
L 233.963041 547.563068 
L 235.201299 545.638319 
L 236.439556 544.972475 
L 237.677813 545.485228 
L 240.154328 547.733056 
L 241.392585 548.49619 
L 242.630842 548.691384 
L 243.8691 548.340627 
L 245.107357 547.729165 
L 246.345614 547.281525 
L 247.583871 547.338201 
L 248.822129 547.996533 
L 250.060386 549.153443 
L 251.298643 550.554704 
L 252.5369 551.762762 
L 253.775158 552.308911 
L 255.013415 551.950451 
L 256.251672 550.80334 
L 257.489929 549.329092 
L 258.728187 548.13648 
L 259.966444 547.682226 
L 261.204701 548.012782 
L 262.442959 548.715899 
L 263.681216 549.241614 
L 264.919473 549.31742 
L 266.15773 549.144899 
L 267.395988 549.247881 
L 268.634245 549.799957 
L 269.872502 550.186825 
L 271.110759 549.74137 
L 272.349017 548.536255 
L 274.825531 545.663138 
L 276.063788 544.995976 
L 277.302046 545.855325 
L 278.540303 548.477411 
L 279.77856 551.930796 
L 281.016818 554.705298 
L 282.255075 555.800844 
L 283.493332 555.347853 
L 288.446361 550.921983 
L 289.684618 549.337837 
L 290.922876 547.220636 
L 293.39939 542.343839 
L 294.637647 540.322618 
L 295.875905 538.957221 
L 297.114162 538.308029 
L 298.352419 538.307907 
L 302.067191 539.580937 
L 303.305448 540.175016 
L 305.781963 541.586023 
L 307.02022 541.895985 
L 309.496735 541.998608 
L 310.734992 542.340041 
L 311.973249 543.006047 
L 313.211506 544.128666 
L 314.449764 545.925878 
L 316.926278 550.928064 
L 318.164536 552.846557 
L 319.402793 553.544752 
L 320.64105 552.785137 
L 321.879307 550.763165 
L 325.594079 543.107468 
L 326.832336 541.190692 
L 328.070594 540.137593 
L 329.308851 539.857151 
L 330.547108 539.728465 
L 333.023623 539.059472 
L 334.26188 539.399615 
L 336.738395 541.310836 
L 337.976652 541.343882 
L 339.214909 540.205951 
L 340.453166 538.427921 
L 341.691424 537.073415 
L 342.929681 536.759858 
L 344.167938 536.996555 
L 345.406195 536.824785 
L 346.644453 535.827442 
L 349.120967 532.729144 
L 350.359225 531.897338 
L 351.597482 532.237173 
L 354.073996 534.676611 
L 355.312254 535.008377 
L 356.550511 534.354874 
L 357.788768 533.272633 
L 359.027025 532.381136 
L 360.265283 531.96684 
L 361.50354 531.97403 
L 362.741797 532.3094 
L 363.980054 533.221701 
L 365.218312 534.979421 
L 366.456569 537.14488 
L 367.694826 538.753252 
L 368.933084 539.280345 
L 371.409598 538.907204 
L 372.647855 539.218326 
L 375.12437 540.836644 
L 376.362627 540.747223 
L 377.600884 539.09807 
L 380.077399 533.404537 
L 381.315656 531.714866 
L 382.553913 531.463825 
L 385.030428 532.470695 
L 387.506943 532.683733 
L 388.7452 533.158996 
L 389.983457 534.16301 
L 392.459972 536.989846 
L 393.698229 538.164829 
L 394.936486 539.023916 
L 396.174743 539.296732 
L 397.413001 538.497397 
L 398.651258 536.597766 
L 399.889515 534.241167 
L 401.127772 532.17462 
L 402.36603 530.780097 
L 403.604287 530.113848 
L 404.842544 530.055878 
L 406.080802 530.481642 
L 407.319059 531.338102 
L 408.557316 532.362904 
L 409.795573 533.062926 
L 411.033831 533.100744 
L 412.272088 532.446023 
L 413.510345 531.309665 
L 414.748602 529.921851 
L 415.98686 528.285568 
L 417.225117 526.427168 
L 418.463374 524.786848 
L 419.701632 523.877428 
L 420.939889 523.64659 
L 424.654661 523.697044 
L 427.131175 524.166855 
L 428.369432 524.218844 
L 429.60769 523.829515 
L 430.845947 522.872079 
L 433.322461 520.094152 
L 434.560719 519.901173 
L 435.798976 521.200375 
L 438.275491 525.152968 
L 439.513748 526.35945 
L 440.752005 526.75917 
L 441.990262 526.391044 
L 445.705034 523.737022 
L 446.943291 523.045683 
L 448.181549 522.576973 
L 449.419806 522.598164 
L 450.658063 523.070297 
L 451.89632 523.415819 
L 453.134578 522.909661 
L 455.611092 519.813 
L 456.84935 519.346148 
L 458.087607 520.407519 
L 459.325864 522.225807 
L 460.564121 523.756021 
L 461.802379 524.558255 
L 463.040636 524.708691 
L 464.278893 524.402878 
L 465.51715 523.829715 
L 466.755408 523.006555 
L 470.470179 519.794758 
L 471.708437 518.968969 
L 472.946694 518.303183 
L 474.184951 518.087472 
L 475.423209 518.528795 
L 476.661466 519.613961 
L 480.376238 524.117078 
L 481.614495 524.878279 
L 482.852752 525.010905 
L 484.091009 524.386496 
L 485.329267 523.104019 
L 489.044038 518.496735 
L 491.520553 514.492546 
L 492.75881 513.731003 
L 493.997068 514.433828 
L 495.235325 515.719505 
L 496.473582 516.336419 
L 497.711839 515.818307 
L 498.950097 514.76736 
L 500.188354 514.087297 
L 501.426611 514.32052 
L 502.664868 515.553411 
L 503.903126 517.324342 
L 505.141383 518.700178 
L 506.37964 518.823698 
L 507.617897 517.470212 
L 508.856155 515.34832 
L 510.094412 513.774533 
L 511.332669 513.537766 
L 512.570927 514.217117 
L 513.809184 514.717263 
L 515.047441 514.150597 
L 516.285698 512.471106 
L 517.523956 510.588644 
L 518.762213 509.674919 
L 520.00047 510.39992 
L 521.238727 512.727739 
L 522.476985 515.858111 
L 523.715242 518.44594 
L 524.953499 519.406323 
L 526.191757 518.617053 
L 528.668271 515.072716 
L 529.906528 513.822039 
L 531.144786 513.181679 
L 534.859557 512.577283 
L 536.097815 511.902745 
L 537.336072 510.829806 
L 538.574329 508.908364 
L 541.050844 502.850672 
L 542.289101 500.734276 
L 543.527358 500.054694 
L 544.765616 500.319877 
L 546.003873 500.834629 
L 547.24213 501.122977 
L 548.480387 501.01542 
L 549.718645 500.776286 
L 550.956902 500.886933 
L 552.195159 501.608984 
L 553.433416 502.990483 
L 554.671674 505.068075 
L 555.909931 507.545545 
L 557.148188 509.302231 
L 558.386445 509.013067 
L 559.624703 506.55337 
L 560.86296 503.180579 
L 562.101217 500.231466 
L 563.339475 498.194001 
L 564.577732 496.902942 
L 565.815989 496.073809 
L 567.054246 495.605555 
L 568.292504 495.358201 
L 569.530761 494.713073 
L 570.769018 492.769152 
L 572.007275 489.200734 
L 574.48379 480.345859 
L 575.722047 476.954987 
L 576.960304 475.101602 
L 578.198562 475.094736 
L 579.436819 476.749928 
L 580.675076 479.567745 
L 584.389848 489.863064 
L 585.628105 491.631787 
L 586.866363 491.672478 
L 588.10462 490.418383 
L 589.342877 488.737119 
L 590.581134 487.314059 
L 591.819392 486.517873 
L 593.057649 486.56175 
L 594.295906 487.66857 
L 595.534163 489.993022 
L 598.010678 495.935893 
L 599.248935 497.76455 
L 600.487193 498.566382 
L 601.72545 498.699288 
L 602.963707 498.5436 
L 604.201964 498.114009 
L 605.440222 496.926186 
L 606.678479 494.661757 
L 607.916736 491.814323 
L 609.154993 489.479479 
L 610.393251 488.680472 
L 611.631508 489.761507 
L 614.108023 494.274982 
L 615.34628 495.457715 
L 617.822794 495.987661 
L 619.061052 496.694487 
L 620.299309 497.825398 
L 621.537566 498.764819 
L 622.775823 498.699419 
L 624.014081 497.283426 
L 626.490595 492.964255 
L 627.728852 491.814026 
L 630.205367 490.773694 
L 631.443624 489.762018 
L 633.920139 486.725343 
L 635.158396 485.842735 
L 636.396653 486.034734 
L 637.634911 486.677366 
L 638.873168 486.95906 
L 640.111425 486.774994 
L 641.349682 486.348551 
L 642.58794 485.613771 
L 643.826197 484.31469 
L 645.064454 482.571152 
L 646.302711 481.019639 
L 648.779226 478.956079 
L 650.017483 476.958263 
L 651.255741 473.271716 
L 652.493998 467.427163 
L 653.732255 459.414466 
L 656.20877 440.615505 
L 657.447027 432.483382 
L 658.685284 425.832907 
L 661.161799 414.840001 
L 662.400056 409.722602 
L 663.638313 403.554862 
L 664.87657 394.453651 
L 666.114828 381.098112 
L 667.353085 363.42338 
L 671.067857 299.750702 
L 672.306114 283.238566 
L 673.544371 271.408211 
L 674.782629 263.097508 
L 676.020886 256.983845 
L 677.259143 253.001781 
L 678.4974 251.882776 
L 679.735658 253.061139 
L 680.973915 253.83391 
L 682.212172 251.493735 
L 683.450429 245.197342 
L 684.688687 235.242027 
L 685.926944 222.192401 
L 688.403459 191.89872 
L 689.641716 178.600863 
L 690.879973 169.44221 
L 692.11823 166.06999 
L 693.356488 168.566156 
L 694.594745 175.234737 
L 695.833002 183.591489 
L 697.071259 191.099989 
L 698.309517 195.68435 
L 699.547774 196.339668 
L 700.786031 193.530464 
L 702.024289 189.406711 
L 703.262546 187.12005 
L 704.500803 189.000248 
L 705.73906 195.049444 
L 708.215575 210.785831 
L 709.453832 216.9678 
L 711.930347 227.016604 
L 714.406861 236.330813 
L 715.645118 239.782378 
L 716.883376 241.131019 
L 718.121633 239.16649 
L 719.35989 232.962065 
L 720.598148 222.799271 
L 723.074662 199.041031 
L 726.789434 165.630675 
L 728.027691 158.852315 
L 729.265948 159.988549 
L 730.504206 168.987147 
L 731.742463 182.816051 
L 734.218977 211.717758 
L 735.457235 223.191103 
L 736.695492 232.593914 
L 737.933749 240.014284 
L 739.172007 244.877677 
L 740.410264 247.300668 
L 741.648521 248.872762 
L 742.886778 251.297059 
L 744.125036 254.582194 
L 745.363293 257.231236 
L 746.60155 258.310332 
L 747.839807 258.883261 
L 749.078065 261.002291 
L 750.316322 265.573509 
L 751.554579 272.048055 
L 755.269351 294.481873 
L 756.507608 299.407282 
L 757.745866 300.935729 
L 758.984123 298.637233 
L 761.460637 289.337396 
L 762.698895 288.611054 
L 763.937152 292.733099 
L 767.651924 313.62962 
L 768.890181 318.993396 
L 770.128438 323.424754 
L 771.366695 326.691623 
L 772.604953 328.340878 
L 773.84321 328.49234 
L 775.081467 328.306701 
L 776.319725 329.272762 
L 777.557982 331.943597 
L 778.796239 335.733469 
L 782.511011 348.371189 
L 783.749268 351.163067 
L 784.987525 352.821169 
L 786.225783 353.809512 
L 787.46404 354.404582 
L 789.940554 354.880499 
L 791.178812 355.656955 
L 792.417069 357.651985 
L 793.655326 360.536497 
L 794.893584 362.385589 
L 796.131841 361.047971 
L 797.370098 356.472479 
L 798.608355 351.097402 
L 799.846613 347.978621 
L 801.08487 349.00166 
L 802.323127 354.358643 
L 806.037899 378.808445 
L 807.276156 383.579036 
L 808.514414 385.581037 
L 809.752671 385.426601 
L 810.990928 384.350614 
L 812.229185 383.608739 
L 813.467443 383.941584 
L 814.7057 385.4584 
L 815.943957 387.630623 
L 817.182214 389.540552 
L 818.420472 390.598393 
L 819.658729 391.255218 
L 820.896986 392.821314 
L 822.135243 396.054924 
L 823.373501 400.109301 
L 824.611758 403.172185 
L 825.850015 403.681835 
L 827.088273 401.075375 
L 828.32653 396.132875 
L 829.564787 390.670382 
L 830.803044 386.662879 
L 832.041302 385.689195 
L 833.279559 388.639768 
L 834.517816 395.040262 
L 835.756073 402.867765 
L 836.994331 409.607015 
L 838.232588 413.498641 
L 839.470845 414.224513 
L 841.94736 411.56258 
L 843.185617 411.327232 
L 844.423874 412.72228 
L 846.900389 418.258179 
L 848.138646 419.868141 
L 849.376903 419.172711 
L 850.615161 416.35835 
L 851.853418 412.786724 
L 853.091675 409.864432 
L 854.329932 408.359315 
L 855.56819 408.505216 
L 856.806447 410.079784 
L 858.044704 412.61868 
L 860.521219 418.671073 
L 861.759476 420.90054 
L 862.997733 421.699268 
L 864.235991 421.018352 
L 865.474248 419.86485 
L 866.712505 419.827616 
L 867.950762 421.695914 
L 869.18902 424.634633 
L 870.427277 426.901731 
L 871.665534 427.272745 
L 872.903791 425.924242 
L 874.142049 424.07146 
L 875.380306 422.763429 
L 876.618563 422.483304 
L 877.85682 423.630697 
L 879.095078 426.399867 
L 881.571592 434.334568 
L 882.80985 437.563659 
L 884.048107 439.44213 
L 885.286364 439.953774 
L 886.524621 439.201644 
L 887.762879 437.179166 
L 891.47765 428.123275 
L 892.715908 426.417527 
L 893.954165 426.461882 
L 895.192422 428.153221 
L 896.43068 430.960351 
L 900.145451 441.426522 
L 901.383709 443.36844 
L 902.621966 444.058304 
L 903.860223 443.970034 
L 905.09848 443.172491 
L 906.336738 441.085369 
L 907.574995 437.01575 
L 908.813252 430.721195 
L 911.289767 414.230102 
L 912.528024 407.753327 
L 913.766281 404.604529 
L 915.004539 404.388891 
L 916.242796 406.352065 
L 917.481053 410.249811 
L 918.71931 415.291477 
L 919.957568 419.644614 
L 921.195825 421.813023 
L 922.434082 421.987122 
L 923.672339 421.350044 
L 924.910597 420.559475 
L 926.148854 419.580277 
L 927.387111 418.292928 
L 928.625368 416.648793 
L 931.101883 412.713883 
L 932.34014 411.23374 
L 933.578398 410.842181 
L 934.816655 411.787041 
L 937.293169 415.182054 
L 938.531427 416.273065 
L 939.769684 417.01898 
L 942.246198 418.136202 
L 943.484456 418.337862 
L 944.722713 417.554331 
L 945.96097 415.079298 
L 947.199227 410.883458 
L 949.675742 401.265285 
L 950.913999 397.764289 
L 953.390514 392.044099 
L 954.628771 388.650991 
L 955.867028 384.302103 
L 957.105286 378.806002 
L 959.5818 366.187793 
L 960.820057 361.084429 
L 962.058315 358.758168 
L 963.296572 360.354635 
L 964.534829 365.979437 
L 967.011344 383.238799 
L 968.249601 390.332592 
L 969.487858 394.657545 
L 970.726116 396.579287 
L 971.964373 397.266257 
L 973.20263 397.759194 
L 978.155659 400.287147 
L 979.393916 400.483002 
L 980.632174 400.553997 
L 981.870431 400.94449 
L 984.346946 402.169298 
L 985.585203 402.209082 
L 986.82346 401.508124 
L 988.061717 400.513989 
L 989.299975 400.23206 
L 990.538232 401.188784 
L 991.776489 403.082095 
L 993.014746 405.212506 
L 995.491261 408.855072 
L 996.729518 411.011453 
L 999.206033 416.240051 
L 1000.44429 418.366116 
L 1001.682547 419.217748 
L 1002.920805 418.686601 
L 1004.159062 417.300974 
L 1006.635576 414.151604 
L 1007.873834 413.172771 
L 1009.112091 412.920971 
L 1011.588605 413.749428 
L 1012.826863 413.042975 
L 1014.06512 410.803879 
L 1015.303377 407.815046 
L 1016.541634 405.134704 
L 1017.779892 402.902898 
L 1019.018149 400.2555 
L 1020.256406 396.139614 
L 1021.494664 390.069301 
L 1025.209435 366.955129 
L 1026.447693 361.639366 
L 1027.68595 359.076808 
L 1028.924207 359.540893 
L 1030.162464 362.132741 
L 1031.400722 365.280504 
L 1032.638979 367.691369 
L 1033.877236 368.332544 
L 1035.115493 366.514861 
L 1036.353751 362.386217 
L 1038.830265 351.760922 
L 1041.30678 343.837653 
L 1042.545037 338.276749 
L 1043.783294 328.701806 
L 1045.021552 314.664331 
L 1047.498066 281.905476 
L 1048.736323 267.74378 
L 1051.212838 241.280282 
L 1053.689352 212.423768 
L 1054.92761 200.803507 
L 1056.165867 191.555349 
L 1057.404124 184.055299 
L 1058.642382 178.583158 
L 1059.880639 176.148257 
L 1061.118896 177.535717 
L 1062.357153 182.627366 
L 1063.595411 190.630497 
L 1064.833668 200.905387 
L 1066.071925 213.232841 
L 1068.54844 240.238482 
L 1069.786697 252.045992 
L 1071.024954 262.273149 
L 1072.263211 270.843809 
L 1073.501469 277.495545 
L 1074.739726 282.587348 
L 1075.977983 286.408371 
L 1077.216241 288.470462 
L 1078.454498 288.678527 
L 1079.692755 288.496587 
L 1080.931012 289.89441 
L 1083.407527 296.649131 
L 1084.645784 298.175587 
L 1085.884041 297.263997 
L 1087.122299 295.760312 
L 1088.360556 296.936468 
L 1089.598813 303.123262 
L 1090.837071 313.634721 
L 1092.075328 325.192861 
L 1093.313585 334.225686 
L 1094.551842 338.61473 
L 1095.7901 338.232811 
L 1097.028357 334.60462 
L 1099.504871 325.409226 
L 1103.219643 314.603373 
L 1104.4579 311.2141 
L 1105.696158 309.510711 
L 1106.934415 310.514092 
L 1108.172672 314.424509 
L 1109.41093 320.892524 
L 1110.649187 328.67224 
L 1111.887444 335.473385 
L 1113.125701 339.480226 
L 1114.363959 340.560386 
L 1115.602216 339.446038 
L 1116.840473 336.38799 
L 1118.07873 331.278886 
L 1119.316988 324.953556 
L 1120.555245 319.219941 
L 1121.793502 315.480318 
L 1123.031759 314.040924 
L 1125.508274 314.215661 
L 1126.746531 313.43007 
L 1127.984789 311.018693 
L 1129.223046 306.274131 
L 1130.461303 299.082154 
L 1135.414332 263.774301 
L 1139.129104 233.952381 
L 1140.367361 227.879565 
L 1141.605618 224.071216 
L 1142.843876 220.77382 
L 1144.082133 216.98824 
L 1145.32039 212.673937 
L 1146.558648 207.610545 
L 1147.796905 200.942564 
L 1149.035162 192.37262 
L 1151.511677 172.976948 
L 1155.226448 141.434768 
L 1156.464706 134.662052 
L 1158.94122 126.496137 
L 1160.179477 120.967759 
L 1161.417735 113.729045 
L 1163.894249 95.746648 
L 1166.370764 78.088695 
L 1167.609021 70.920119 
L 1168.847278 65.427681 
L 1170.085536 61.974545 
L 1171.323793 60.988511 
L 1172.56205 62.824622 
L 1173.800307 67.638486 
L 1175.038565 75.213714 
L 1177.515079 93.881608 
L 1178.753337 101.622122 
L 1179.991594 106.647095 
L 1181.229851 108.931361 
L 1183.706366 110.845051 
L 1184.944623 111.389535 
L 1186.18288 109.615026 
L 1187.421137 104.45771 
L 1188.659395 96.84946 
L 1189.897652 88.155236 
L 1192.374166 68.441134 
L 1193.612424 58.517476 
L 1194.850681 50.986239 
L 1196.088938 47.979282 
L 1197.327196 50.035869 
L 1198.565453 55.700267 
L 1199.80371 62.417568 
L 1201.041967 68.050761 
L 1202.280225 72.42049 
L 1203.518482 76.368127 
L 1204.756739 79.809019 
L 1205.994996 82.678417 
L 1207.233254 86.759253 
L 1208.471511 94.38183 
L 1210.948025 116.686449 
L 1212.186283 126.137144 
L 1214.662797 142.327082 
L 1217.139312 159.744051 
L 1218.377569 167.257583 
L 1219.615826 173.227065 
L 1220.854084 177.88619 
L 1223.330598 186.357371 
L 1224.568855 191.760273 
L 1227.04537 205.518452 
L 1230.760142 226.892401 
L 1231.998399 232.700667 
L 1233.236656 236.709417 
L 1234.474914 238.023063 
L 1235.713171 235.977278 
L 1236.951428 231.527997 
L 1238.189685 227.538806 
L 1239.427943 227.039902 
L 1240.6662 231.245414 
L 1241.904457 239.411187 
L 1243.142714 250.189465 
L 1244.380972 262.12753 
L 1245.619229 272.850415 
L 1246.857486 279.414574 
L 1248.095743 280.402 
L 1249.334001 277.080449 
L 1250.572258 272.437875 
L 1251.810515 269.101642 
L 1253.048773 267.658891 
L 1254.28703 267.199052 
L 1255.525287 267.22849 
L 1256.763544 267.91875 
L 1258.001802 268.887298 
L 1259.240059 269.109706 
L 1260.478316 267.903883 
L 1261.716573 265.300247 
L 1262.954831 262.144347 
L 1264.193088 260.146128 
L 1265.431345 260.713757 
L 1266.669603 263.635502 
L 1267.90786 267.378921 
L 1269.146117 270.307542 
L 1270.384374 271.725472 
L 1272.860889 272.599862 
L 1275.337403 274.333771 
L 1276.575661 274.24963 
L 1277.813918 271.912806 
L 1279.052175 266.785134 
L 1280.290432 260.132726 
L 1281.52869 254.600602 
L 1282.766947 252.130965 
L 1284.005204 252.921072 
L 1285.243462 256.382064 
L 1288.958233 272.383009 
L 1291.434748 280.820449 
L 1292.673005 285.883154 
L 1296.387777 304.373364 
L 1297.626034 308.693381 
L 1298.864291 311.265296 
L 1300.102549 312.737502 
L 1301.340806 314.6105 
L 1302.579063 318.517366 
L 1303.817321 324.548162 
L 1306.293835 337.322603 
L 1307.532092 342.515792 
L 1308.77035 346.60119 
L 1310.008607 349.049164 
L 1311.246864 349.707587 
L 1312.485121 348.845157 
L 1313.723379 346.347327 
L 1314.961636 341.903641 
L 1317.43815 330.284132 
L 1318.676408 326.481055 
L 1319.914665 325.619209 
L 1321.152922 327.568894 
L 1322.39118 331.523472 
L 1324.867694 342.002839 
L 1326.105951 346.044179 
L 1327.344209 347.964822 
L 1328.582466 348.209057 
L 1329.820723 347.647197 
L 1332.297238 346.026455 
L 1333.535495 345.415722 
L 1334.773752 345.368885 
L 1336.012009 346.476111 
L 1337.250267 348.955393 
L 1339.726781 355.931786 
L 1340.965039 358.814372 
L 1342.203296 360.129227 
L 1343.441553 359.058227 
L 1345.918068 352.953845 
L 1347.156325 352.43868 
L 1348.394582 354.608848 
L 1350.871097 361.18207 
L 1352.109354 363.18985 
L 1353.347611 364.566433 
L 1354.585868 366.564775 
L 1357.062383 372.37781 
L 1358.30064 373.934673 
L 1359.538898 373.740874 
L 1362.015412 370.964091 
L 1363.253669 370.420352 
L 1364.491927 371.022123 
L 1366.968441 373.793239 
L 1368.206698 374.645957 
L 1369.444956 374.278204 
L 1370.683213 372.857548 
L 1371.92147 371.607709 
L 1373.159728 371.371859 
L 1376.874499 372.858036 
L 1378.112757 372.960049 
L 1379.351014 372.479634 
L 1380.589271 371.64754 
L 1381.827528 371.476876 
L 1383.065786 373.034191 
L 1384.304043 376.396504 
L 1385.5423 380.392313 
L 1386.780557 383.302736 
L 1388.018815 383.632416 
L 1389.257072 380.670807 
L 1390.495329 375.153097 
L 1391.733587 369.088773 
L 1392.971844 364.125294 
L 1394.210101 360.516818 
L 1395.448358 358.074063 
L 1396.686616 357.19491 
L 1397.924873 358.674076 
L 1399.16313 362.858043 
L 1402.877902 380.651092 
L 1404.116159 383.922463 
L 1405.354416 385.019911 
L 1406.592674 384.638225 
L 1407.830931 383.390222 
L 1409.069188 381.222414 
L 1410.307446 378.435139 
L 1411.545703 376.256066 
L 1412.78396 375.892445 
L 1414.022217 377.420261 
L 1415.260475 379.441397 
L 1416.498732 379.982262 
L 1417.736989 378.039351 
L 1418.975246 374.079118 
L 1421.451761 363.97765 
L 1422.690018 358.841495 
L 1423.928275 354.38817 
L 1425.166533 351.498947 
L 1426.40479 350.219917 
L 1427.643047 349.449202 
L 1430.119562 347.087336 
L 1431.357819 347.517574 
L 1432.596076 350.379528 
L 1437.549105 367.923035 
L 1438.787363 370.962807 
L 1440.02562 373.103006 
L 1441.263877 374.399796 
L 1442.502134 374.490453 
L 1443.740392 373.40979 
L 1446.216906 370.464453 
L 1447.455164 368.263282 
L 1448.693421 364.972439 
L 1451.169935 357.491906 
L 1453.64645 350.65635 
L 1454.884707 346.813397 
L 1457.361222 338.413165 
L 1458.599479 334.798886 
L 1459.837736 331.946831 
L 1461.075994 329.693946 
L 1462.314251 327.910318 
L 1463.552508 326.884445 
L 1464.790765 327.106336 
L 1466.029023 329.010586 
L 1467.26728 332.551376 
L 1468.505537 336.618599 
L 1469.743794 339.850715 
L 1470.982052 341.904175 
L 1472.220309 343.113692 
L 1473.458566 343.613194 
L 1474.696823 343.287019 
L 1477.173338 341.188576 
L 1478.411595 340.933572 
L 1479.649853 341.997835 
L 1480.88811 344.42795 
L 1482.126367 347.967515 
L 1484.602882 356.17114 
L 1485.841139 359.192637 
L 1487.079396 360.449078 
L 1488.317653 359.571234 
L 1489.555911 356.765854 
L 1490.794168 352.837236 
L 1493.270682 343.871652 
L 1495.747197 334.117842 
L 1496.985454 327.599236 
L 1498.223712 318.374863 
L 1501.938483 283.605425 
L 1503.176741 275.071066 
L 1504.414998 269.391523 
L 1505.653255 266.345384 
L 1506.891512 265.340083 
L 1508.12977 265.761964 
L 1509.368027 266.904741 
L 1510.606284 267.610839 
L 1511.844541 266.075386 
L 1513.082799 260.754389 
L 1514.321056 251.50786 
L 1515.559313 239.423694 
L 1518.035828 212.976079 
L 1519.274085 201.277153 
L 1520.512342 191.409052 
L 1521.7506 183.173432 
L 1524.227114 169.336123 
L 1525.465371 163.838256 
L 1526.703629 160.991706 
L 1527.941886 161.760909 
L 1529.180143 165.528359 
L 1530.4184 170.644987 
L 1531.656658 175.222045 
L 1532.894915 177.536414 
L 1534.133172 176.516887 
L 1535.37143 172.113738 
L 1536.609687 165.274428 
L 1537.847944 157.692397 
L 1539.086201 151.520661 
L 1540.324459 148.841193 
L 1541.562716 150.492874 
L 1542.800973 155.155442 
L 1544.03923 160.267423 
L 1545.277488 164.169078 
L 1546.515745 166.854206 
L 1547.754002 168.969383 
L 1548.99226 171.371146 
L 1550.230517 175.240979 
L 1551.468774 181.042418 
L 1553.945289 195.200634 
L 1557.66006 218.877191 
L 1558.898318 224.736419 
L 1560.136575 229.20052 
L 1561.374832 232.070523 
L 1562.613089 233.32808 
L 1563.851347 233.517942 
L 1566.327861 233.095196 
L 1567.566119 233.265078 
L 1568.804376 233.839705 
L 1570.042633 235.3634 
L 1571.28089 238.731412 
L 1572.519148 244.206552 
L 1574.995662 257.07764 
L 1576.233919 261.349935 
L 1577.472177 262.959759 
L 1578.710434 262.445564 
L 1579.948691 261.447369 
L 1581.186948 261.16 
L 1582.425206 261.471262 
L 1583.663463 261.991058 
L 1584.90172 262.795983 
L 1586.139978 264.083755 
L 1587.378235 266.110542 
L 1588.616492 269.269276 
L 1591.093007 277.693453 
L 1592.331264 280.756069 
L 1593.569521 281.981342 
L 1594.807778 281.145299 
L 1596.046036 278.502202 
L 1599.760807 267.606004 
L 1600.999065 264.245116 
L 1602.237322 260.503002 
L 1603.475579 257.115133 
L 1604.713837 256.581372 
L 1605.952094 261.34276 
L 1607.190351 271.113198 
L 1608.428608 282.49478 
L 1609.666866 291.437313 
L 1610.905123 295.75561 
L 1612.14338 295.456806 
L 1613.381637 291.630245 
L 1614.619895 285.511142 
L 1615.858152 278.002805 
L 1618.334666 261.927144 
L 1619.572924 255.478281 
L 1620.811181 250.804891 
L 1624.525953 239.307488 
L 1625.76421 237.017231 
L 1627.002467 236.3975 
L 1629.478982 236.47364 
L 1630.717239 237.058571 
L 1631.955496 238.443048 
L 1635.670268 243.802001 
L 1636.908526 243.809914 
L 1638.146783 241.434037 
L 1639.38504 237.518733 
L 1640.623297 234.018212 
L 1641.861555 233.241509 
L 1643.099812 237.094541 
L 1644.338069 246.131955 
L 1645.576326 259.109544 
L 1648.052841 288.151845 
L 1648.052841 288.151845 
" style="fill:none;stroke:#008000;stroke-linecap:square;stroke-width:1.5;"/>
   </g>
   <g id="patch_3">
    <path d="M 50.14375 586.86358 
L 50.14375 22.318125 
" style="fill:none;stroke:#000000;stroke-linecap:square;stroke-linejoin:miter;stroke-width:0.8;"/>
   </g>
   <g id="patch_4">
    <path d="M 1724.14375 586.86358 
L 1724.14375 22.318125 
" style="fill:none;stroke:#000000;stroke-linecap:square;stroke-linejoin:miter;stroke-width:0.8;"/>
   </g>
   <g id="patch_5">
    <path d="M 50.14375 586.86358 
L 1724.14375 586.86358 
" style="fill:none;stroke:#000000;stroke-linecap:square;stroke-linejoin:miter;stroke-width:0.8;"/>
   </g>
   <g id="patch_6">
    <path d="M 50.14375 22.318125 
L 1724.14375 22.318125 
" style="fill:none;stroke:#000000;stroke-linecap:square;stroke-linejoin:miter;stroke-width:0.8;"/>
   </g>
   <g id="text_18">
    <!-- before binarisation -->
    <g transform="translate(830.545 16.318125)scale(0.12 -0.12)">
     <defs>
      <path d="M 3116 1747 
Q 3116 2381 2855 2742 
Q 2594 3103 2138 3103 
Q 1681 3103 1420 2742 
Q 1159 2381 1159 1747 
Q 1159 1113 1420 752 
Q 1681 391 2138 391 
Q 2594 391 2855 752 
Q 3116 1113 3116 1747 
z
M 1159 2969 
Q 1341 3281 1617 3432 
Q 1894 3584 2278 3584 
Q 2916 3584 3314 3078 
Q 3713 2572 3713 1747 
Q 3713 922 3314 415 
Q 2916 -91 2278 -91 
Q 1894 -91 1617 61 
Q 1341 213 1159 525 
L 1159 0 
L 581 0 
L 581 4863 
L 1159 4863 
L 1159 2969 
z
" id="DejaVuSans-62" transform="scale(0.015625)"/>
      <path d="M 1959 3097 
Q 1497 3097 1228 2736 
Q 959 2375 959 1747 
Q 959 1119 1226 758 
Q 1494 397 1959 397 
Q 2419 397 2687 759 
Q 2956 1122 2956 1747 
Q 2956 2369 2687 2733 
Q 2419 3097 1959 3097 
z
M 1959 3584 
Q 2709 3584 3137 3096 
Q 3566 2609 3566 1747 
Q 3566 888 3137 398 
Q 2709 -91 1959 -91 
Q 1206 -91 779 398 
Q 353 888 353 1747 
Q 353 2609 779 3096 
Q 1206 3584 1959 3584 
z
" id="DejaVuSans-6f" transform="scale(0.015625)"/>
      <path id="DejaVuSans-20" transform="scale(0.015625)"/>
      <path d="M 603 3500 
L 1178 3500 
L 1178 0 
L 603 0 
L 603 3500 
z
M 603 4863 
L 1178 4863 
L 1178 4134 
L 603 4134 
L 603 4863 
z
" id="DejaVuSans-69" transform="scale(0.015625)"/>
      <path d="M 3513 2113 
L 3513 0 
L 2938 0 
L 2938 2094 
Q 2938 2591 2744 2837 
Q 2550 3084 2163 3084 
Q 1697 3084 1428 2787 
Q 1159 2491 1159 1978 
L 1159 0 
L 581 0 
L 581 3500 
L 1159 3500 
L 1159 2956 
Q 1366 3272 1645 3428 
Q 1925 3584 2291 3584 
Q 2894 3584 3203 3211 
Q 3513 2838 3513 2113 
z
" id="DejaVuSans-6e" transform="scale(0.015625)"/>
      <path d="M 2834 3397 
L 2834 2853 
Q 2591 2978 2328 3040 
Q 2066 3103 1784 3103 
Q 1356 3103 1142 2972 
Q 928 2841 928 2578 
Q 928 2378 1081 2264 
Q 1234 2150 1697 2047 
L 1894 2003 
Q 2506 1872 2764 1633 
Q 3022 1394 3022 966 
Q 3022 478 2636 193 
Q 2250 -91 1575 -91 
Q 1294 -91 989 -36 
Q 684 19 347 128 
L 347 722 
Q 666 556 975 473 
Q 1284 391 1588 391 
Q 1994 391 2212 530 
Q 2431 669 2431 922 
Q 2431 1156 2273 1281 
Q 2116 1406 1581 1522 
L 1381 1569 
Q 847 1681 609 1914 
Q 372 2147 372 2553 
Q 372 3047 722 3315 
Q 1072 3584 1716 3584 
Q 2034 3584 2315 3537 
Q 2597 3491 2834 3397 
z
" id="DejaVuSans-73" transform="scale(0.015625)"/>
      <path d="M 1172 4494 
L 1172 3500 
L 2356 3500 
L 2356 3053 
L 1172 3053 
L 1172 1153 
Q 1172 725 1289 603 
Q 1406 481 1766 481 
L 2356 481 
L 2356 0 
L 1766 0 
Q 1100 0 847 248 
Q 594 497 594 1153 
L 594 3053 
L 172 3053 
L 172 3500 
L 594 3500 
L 594 4494 
L 1172 4494 
z
" id="DejaVuSans-74" transform="scale(0.015625)"/>
     </defs>
     <use xlink:href="#DejaVuSans-62"/>
     <use x="63.476562" xlink:href="#DejaVuSans-65"/>
     <use x="125" xlink:href="#DejaVuSans-66"/>
     <use x="160.205078" xlink:href="#DejaVuSans-6f"/>
     <use x="221.386719" xlink:href="#DejaVuSans-72"/>
     <use x="260.25" xlink:href="#DejaVuSans-65"/>
     <use x="321.773438" xlink:href="#DejaVuSans-20"/>
     <use x="353.560547" xlink:href="#DejaVuSans-62"/>
     <use x="417.037109" xlink:href="#DejaVuSans-69"/>
     <use x="444.820312" xlink:href="#DejaVuSans-6e"/>
     <use x="508.199219" xlink:href="#DejaVuSans-61"/>
     <use x="569.478516" xlink:href="#DejaVuSans-72"/>
     <use x="610.591797" xlink:href="#DejaVuSans-69"/>
     <use x="638.375" xlink:href="#DejaVuSans-73"/>
     <use x="690.474609" xlink:href="#DejaVuSans-61"/>
     <use x="751.753906" xlink:href="#DejaVuSans-74"/>
     <use x="790.962891" xlink:href="#DejaVuSans-69"/>
     <use x="818.746094" xlink:href="#DejaVuSans-6f"/>
     <use x="879.927734" xlink:href="#DejaVuSans-6e"/>
    </g>
   </g>
  </g>
  <g id="axes_2">
   <g id="patch_7">
    <path d="M 50.14375 1264.318125 
L 1724.14375 1264.318125 
L 1724.14375 699.77267 
L 50.14375 699.77267 
z
" style="fill:#ffffff;"/>
   </g>
   <g id="matplotlib.axis_3">
    <g id="xtick_8">
     <g id="line2d_17">
      <g>
       <use style="stroke:#000000;stroke-width:0.8;" x="126.234659" xlink:href="#m360a617b3f" y="1264.318125"/>
      </g>
     </g>
     <g id="text_19">
      <!-- 0 -->
      <g transform="translate(123.053409 1278.916563)scale(0.1 -0.1)">
       <use xlink:href="#DejaVuSans-30"/>
      </g>
     </g>
    </g>
    <g id="xtick_9">
     <g id="line2d_18">
      <g>
       <use style="stroke:#000000;stroke-width:0.8;" x="373.886113" xlink:href="#m360a617b3f" y="1264.318125"/>
      </g>
     </g>
     <g id="text_20">
      <!-- 200 -->
      <g transform="translate(364.342363 1278.916563)scale(0.1 -0.1)">
       <use xlink:href="#DejaVuSans-32"/>
       <use x="63.623047" xlink:href="#DejaVuSans-30"/>
       <use x="127.246094" xlink:href="#DejaVuSans-30"/>
      </g>
     </g>
    </g>
    <g id="xtick_10">
     <g id="line2d_19">
      <g>
       <use style="stroke:#000000;stroke-width:0.8;" x="621.537566" xlink:href="#m360a617b3f" y="1264.318125"/>
      </g>
     </g>
     <g id="text_21">
      <!-- 400 -->
      <g transform="translate(611.993816 1278.916563)scale(0.1 -0.1)">
       <use xlink:href="#DejaVuSans-34"/>
       <use x="63.623047" xlink:href="#DejaVuSans-30"/>
       <use x="127.246094" xlink:href="#DejaVuSans-30"/>
      </g>
     </g>
    </g>
    <g id="xtick_11">
     <g id="line2d_20">
      <g>
       <use style="stroke:#000000;stroke-width:0.8;" x="869.18902" xlink:href="#m360a617b3f" y="1264.318125"/>
      </g>
     </g>
     <g id="text_22">
      <!-- 600 -->
      <g transform="translate(859.64527 1278.916563)scale(0.1 -0.1)">
       <use xlink:href="#DejaVuSans-36"/>
       <use x="63.623047" xlink:href="#DejaVuSans-30"/>
       <use x="127.246094" xlink:href="#DejaVuSans-30"/>
      </g>
     </g>
    </g>
    <g id="xtick_12">
     <g id="line2d_21">
      <g>
       <use style="stroke:#000000;stroke-width:0.8;" x="1116.840473" xlink:href="#m360a617b3f" y="1264.318125"/>
      </g>
     </g>
     <g id="text_23">
      <!-- 800 -->
      <g transform="translate(1107.296723 1278.916563)scale(0.1 -0.1)">
       <use xlink:href="#DejaVuSans-38"/>
       <use x="63.623047" xlink:href="#DejaVuSans-30"/>
       <use x="127.246094" xlink:href="#DejaVuSans-30"/>
      </g>
     </g>
    </g>
    <g id="xtick_13">
     <g id="line2d_22">
      <g>
       <use style="stroke:#000000;stroke-width:0.8;" x="1364.491927" xlink:href="#m360a617b3f" y="1264.318125"/>
      </g>
     </g>
     <g id="text_24">
      <!-- 1000 -->
      <g transform="translate(1351.766927 1278.916563)scale(0.1 -0.1)">
       <use xlink:href="#DejaVuSans-31"/>
       <use x="63.623047" xlink:href="#DejaVuSans-30"/>
       <use x="127.246094" xlink:href="#DejaVuSans-30"/>
       <use x="190.869141" xlink:href="#DejaVuSans-30"/>
      </g>
     </g>
    </g>
    <g id="xtick_14">
     <g id="line2d_23">
      <g>
       <use style="stroke:#000000;stroke-width:0.8;" x="1612.14338" xlink:href="#m360a617b3f" y="1264.318125"/>
      </g>
     </g>
     <g id="text_25">
      <!-- 1200 -->
      <g transform="translate(1599.41838 1278.916563)scale(0.1 -0.1)">
       <use xlink:href="#DejaVuSans-31"/>
       <use x="63.623047" xlink:href="#DejaVuSans-32"/>
       <use x="127.246094" xlink:href="#DejaVuSans-30"/>
       <use x="190.869141" xlink:href="#DejaVuSans-30"/>
      </g>
     </g>
    </g>
    <g id="text_26">
     <!-- frame -->
     <g transform="translate(872.317187 1292.594688)scale(0.1 -0.1)">
      <use xlink:href="#DejaVuSans-66"/>
      <use x="35.205078" xlink:href="#DejaVuSans-72"/>
      <use x="76.318359" xlink:href="#DejaVuSans-61"/>
      <use x="137.597656" xlink:href="#DejaVuSans-6d"/>
      <use x="235.009766" xlink:href="#DejaVuSans-65"/>
     </g>
    </g>
   </g>
   <g id="matplotlib.axis_4">
    <g id="ytick_9">
     <g id="line2d_24">
      <g>
       <use style="stroke:#000000;stroke-width:0.8;" x="50.14375" xlink:href="#m339eb8ddd2" y="1238.656968"/>
      </g>
     </g>
     <g id="text_27">
      <!-- 0.0 -->
      <g transform="translate(27.240625 1242.456187)scale(0.1 -0.1)">
       <use xlink:href="#DejaVuSans-30"/>
       <use x="63.623047" xlink:href="#DejaVuSans-2e"/>
       <use x="95.410156" xlink:href="#DejaVuSans-30"/>
      </g>
     </g>
    </g>
    <g id="ytick_10">
     <g id="line2d_25">
      <g>
       <use style="stroke:#000000;stroke-width:0.8;" x="50.14375" xlink:href="#m339eb8ddd2" y="1136.01234"/>
      </g>
     </g>
     <g id="text_28">
      <!-- 0.2 -->
      <g transform="translate(27.240625 1139.811559)scale(0.1 -0.1)">
       <use xlink:href="#DejaVuSans-30"/>
       <use x="63.623047" xlink:href="#DejaVuSans-2e"/>
       <use x="95.410156" xlink:href="#DejaVuSans-32"/>
      </g>
     </g>
    </g>
    <g id="ytick_11">
     <g id="line2d_26">
      <g>
       <use style="stroke:#000000;stroke-width:0.8;" x="50.14375" xlink:href="#m339eb8ddd2" y="1033.367712"/>
      </g>
     </g>
     <g id="text_29">
      <!-- 0.4 -->
      <g transform="translate(27.240625 1037.166931)scale(0.1 -0.1)">
       <use xlink:href="#DejaVuSans-30"/>
       <use x="63.623047" xlink:href="#DejaVuSans-2e"/>
       <use x="95.410156" xlink:href="#DejaVuSans-34"/>
      </g>
     </g>
    </g>
    <g id="ytick_12">
     <g id="line2d_27">
      <g>
       <use style="stroke:#000000;stroke-width:0.8;" x="50.14375" xlink:href="#m339eb8ddd2" y="930.723084"/>
      </g>
     </g>
     <g id="text_30">
      <!-- 0.6 -->
      <g transform="translate(27.240625 934.522302)scale(0.1 -0.1)">
       <use xlink:href="#DejaVuSans-30"/>
       <use x="63.623047" xlink:href="#DejaVuSans-2e"/>
       <use x="95.410156" xlink:href="#DejaVuSans-36"/>
      </g>
     </g>
    </g>
    <g id="ytick_13">
     <g id="line2d_28">
      <g>
       <use style="stroke:#000000;stroke-width:0.8;" x="50.14375" xlink:href="#m339eb8ddd2" y="828.078456"/>
      </g>
     </g>
     <g id="text_31">
      <!-- 0.8 -->
      <g transform="translate(27.240625 831.877674)scale(0.1 -0.1)">
       <use xlink:href="#DejaVuSans-30"/>
       <use x="63.623047" xlink:href="#DejaVuSans-2e"/>
       <use x="95.410156" xlink:href="#DejaVuSans-38"/>
      </g>
     </g>
    </g>
    <g id="ytick_14">
     <g id="line2d_29">
      <g>
       <use style="stroke:#000000;stroke-width:0.8;" x="50.14375" xlink:href="#m339eb8ddd2" y="725.433827"/>
      </g>
     </g>
     <g id="text_32">
      <!-- 1.0 -->
      <g transform="translate(27.240625 729.233046)scale(0.1 -0.1)">
       <use xlink:href="#DejaVuSans-31"/>
       <use x="63.623047" xlink:href="#DejaVuSans-2e"/>
       <use x="95.410156" xlink:href="#DejaVuSans-30"/>
      </g>
     </g>
    </g>
    <g id="text_33">
     <!-- GCaMP -->
     <g transform="translate(21.160938 999.803991)rotate(-90)scale(0.1 -0.1)">
      <use xlink:href="#DejaVuSans-47"/>
      <use x="77.490234" xlink:href="#DejaVuSans-43"/>
      <use x="147.314453" xlink:href="#DejaVuSans-61"/>
      <use x="208.59375" xlink:href="#DejaVuSans-4d"/>
      <use x="294.873047" xlink:href="#DejaVuSans-50"/>
     </g>
    </g>
   </g>
   <g id="line2d_30">
    <path clip-path="url(#pc2ed02985f)" d="M 126.234659 1238.656968 
L 682.212172 1238.656968 
L 683.450429 725.433827 
L 741.648521 725.433827 
L 742.886778 1238.656968 
L 1049.974581 1238.656968 
L 1051.212838 725.433827 
L 1068.54844 725.433827 
L 1069.786697 1238.656968 
L 1136.652589 1238.656968 
L 1137.890847 725.433827 
L 1243.142714 725.433827 
L 1244.380972 1238.656968 
L 1514.321056 1238.656968 
L 1515.559313 725.433827 
L 1572.519148 725.433827 
L 1573.757405 1238.656968 
L 1620.811181 1238.656968 
L 1622.049438 725.433827 
L 1644.338069 725.433827 
L 1645.576326 1238.656968 
L 1648.052841 1238.656968 
L 1648.052841 1238.656968 
" style="fill:none;stroke:#008000;stroke-linecap:square;stroke-width:1.5;"/>
   </g>
   <g id="patch_8">
    <path d="M 50.14375 1264.318125 
L 50.14375 699.77267 
" style="fill:none;stroke:#000000;stroke-linecap:square;stroke-linejoin:miter;stroke-width:0.8;"/>
   </g>
   <g id="patch_9">
    <path d="M 1724.14375 1264.318125 
L 1724.14375 699.77267 
" style="fill:none;stroke:#000000;stroke-linecap:square;stroke-linejoin:miter;stroke-width:0.8;"/>
   </g>
   <g id="patch_10">
    <path d="M 50.14375 1264.318125 
L 1724.14375 1264.318125 
" style="fill:none;stroke:#000000;stroke-linecap:square;stroke-linejoin:miter;stroke-width:0.8;"/>
   </g>
   <g id="patch_11">
    <path d="M 50.14375 699.77267 
L 1724.14375 699.77267 
" style="fill:none;stroke:#000000;stroke-linecap:square;stroke-linejoin:miter;stroke-width:0.8;"/>
   </g>
   <g id="text_34">
    <!-- before binarisation -->
    <g transform="translate(830.545 693.77267)scale(0.12 -0.12)">
     <use xlink:href="#DejaVuSans-62"/>
     <use x="63.476562" xlink:href="#DejaVuSans-65"/>
     <use x="125" xlink:href="#DejaVuSans-66"/>
     <use x="160.205078" xlink:href="#DejaVuSans-6f"/>
     <use x="221.386719" xlink:href="#DejaVuSans-72"/>
     <use x="260.25" xlink:href="#DejaVuSans-65"/>
     <use x="321.773438" xlink:href="#DejaVuSans-20"/>
     <use x="353.560547" xlink:href="#DejaVuSans-62"/>
     <use x="417.037109" xlink:href="#DejaVuSans-69"/>
     <use x="444.820312" xlink:href="#DejaVuSans-6e"/>
     <use x="508.199219" xlink:href="#DejaVuSans-61"/>
     <use x="569.478516" xlink:href="#DejaVuSans-72"/>
     <use x="610.591797" xlink:href="#DejaVuSans-69"/>
     <use x="638.375" xlink:href="#DejaVuSans-73"/>
     <use x="690.474609" xlink:href="#DejaVuSans-61"/>
     <use x="751.753906" xlink:href="#DejaVuSans-74"/>
     <use x="790.962891" xlink:href="#DejaVuSans-69"/>
     <use x="818.746094" xlink:href="#DejaVuSans-6f"/>
     <use x="879.927734" xlink:href="#DejaVuSans-6e"/>
    </g>
   </g>
  </g>
 </g>
 <defs>
  <clipPath id="p6076e1f451">
   <rect height="564.545455" width="1674" x="50.14375" y="22.318125"/>
  </clipPath>
  <clipPath id="pc2ed02985f">
   <rect height="564.545455" width="1674" x="50.14375" y="699.77267"/>
  </clipPath>
 </defs>
</svg>
