<?xml version="1.0" encoding="utf-8" standalone="no"?>
<!DOCTYPE svg PUBLIC "-//W3C//DTD SVG 1.1//EN"
  "http://www.w3.org/Graphics/SVG/1.1/DTD/svg11.dtd">
<svg height="1301.874375pt" version="1.1" viewBox="0 0 1724.98125 1301.874375" width="1724.98125pt" xmlns="http://www.w3.org/2000/svg" xmlns:xlink="http://www.w3.org/1999/xlink">
 <metadata>
  <rdf:RDF xmlns:cc="http://creativecommons.org/ns#" xmlns:dc="http://purl.org/dc/elements/1.1/" xmlns:rdf="http://www.w3.org/1999/02/22-rdf-syntax-ns#">
   <cc:Work>
    <dc:type rdf:resource="http://purl.org/dc/dcmitype/StillImage"/>
    <dc:date>2022-07-24T15:54:36.189506</dc:date>
    <dc:format>image/svg+xml</dc:format>
    <dc:creator>
     <cc:Agent>
      <dc:title>Matplotlib v3.4.2, https://matplotlib.org/</dc:title>
     </cc:Agent>
    </dc:creator>
   </cc:Work>
  </rdf:RDF>
 </metadata>
 <defs>
  <style type="text/css">*{stroke-linecap:butt;stroke-linejoin:round;}</style>
 </defs>
 <g id="figure_1">
  <g id="patch_1">
   <path d="M 0 1301.874375 
L 1724.98125 1301.874375 
L 1724.98125 0 
L 0 0 
z
" style="fill:#ffffff;"/>
  </g>
  <g id="axes_1">
   <g id="patch_2">
    <path d="M 43.78125 586.86358 
L 1717.78125 586.86358 
L 1717.78125 22.318125 
L 43.78125 22.318125 
z
" style="fill:#ffffff;"/>
   </g>
   <g id="matplotlib.axis_1">
    <g id="xtick_1">
     <g id="line2d_1">
      <defs>
       <path d="M 0 0 
L 0 3.5 
" id="m4dc5d3592b" style="stroke:#000000;stroke-width:0.8;"/>
      </defs>
      <g>
       <use style="stroke:#000000;stroke-width:0.8;" x="119.872159" xlink:href="#m4dc5d3592b" y="586.86358"/>
      </g>
     </g>
     <g id="text_1">
      <!-- 0 -->
      <g transform="translate(116.690909 601.462017)scale(0.1 -0.1)">
       <defs>
        <path d="M 2034 4250 
Q 1547 4250 1301 3770 
Q 1056 3291 1056 2328 
Q 1056 1369 1301 889 
Q 1547 409 2034 409 
Q 2525 409 2770 889 
Q 3016 1369 3016 2328 
Q 3016 3291 2770 3770 
Q 2525 4250 2034 4250 
z
M 2034 4750 
Q 2819 4750 3233 4129 
Q 3647 3509 3647 2328 
Q 3647 1150 3233 529 
Q 2819 -91 2034 -91 
Q 1250 -91 836 529 
Q 422 1150 422 2328 
Q 422 3509 836 4129 
Q 1250 4750 2034 4750 
z
" id="DejaVuSans-30" transform="scale(0.015625)"/>
       </defs>
       <use xlink:href="#DejaVuSans-30"/>
      </g>
     </g>
    </g>
    <g id="xtick_2">
     <g id="line2d_2">
      <g>
       <use style="stroke:#000000;stroke-width:0.8;" x="367.523613" xlink:href="#m4dc5d3592b" y="586.86358"/>
      </g>
     </g>
     <g id="text_2">
      <!-- 200 -->
      <g transform="translate(357.979863 601.462017)scale(0.1 -0.1)">
       <defs>
        <path d="M 1228 531 
L 3431 531 
L 3431 0 
L 469 0 
L 469 531 
Q 828 903 1448 1529 
Q 2069 2156 2228 2338 
Q 2531 2678 2651 2914 
Q 2772 3150 2772 3378 
Q 2772 3750 2511 3984 
Q 2250 4219 1831 4219 
Q 1534 4219 1204 4116 
Q 875 4013 500 3803 
L 500 4441 
Q 881 4594 1212 4672 
Q 1544 4750 1819 4750 
Q 2544 4750 2975 4387 
Q 3406 4025 3406 3419 
Q 3406 3131 3298 2873 
Q 3191 2616 2906 2266 
Q 2828 2175 2409 1742 
Q 1991 1309 1228 531 
z
" id="DejaVuSans-32" transform="scale(0.015625)"/>
       </defs>
       <use xlink:href="#DejaVuSans-32"/>
       <use x="63.623047" xlink:href="#DejaVuSans-30"/>
       <use x="127.246094" xlink:href="#DejaVuSans-30"/>
      </g>
     </g>
    </g>
    <g id="xtick_3">
     <g id="line2d_3">
      <g>
       <use style="stroke:#000000;stroke-width:0.8;" x="615.175066" xlink:href="#m4dc5d3592b" y="586.86358"/>
      </g>
     </g>
     <g id="text_3">
      <!-- 400 -->
      <g transform="translate(605.631316 601.462017)scale(0.1 -0.1)">
       <defs>
        <path d="M 2419 4116 
L 825 1625 
L 2419 1625 
L 2419 4116 
z
M 2253 4666 
L 3047 4666 
L 3047 1625 
L 3713 1625 
L 3713 1100 
L 3047 1100 
L 3047 0 
L 2419 0 
L 2419 1100 
L 313 1100 
L 313 1709 
L 2253 4666 
z
" id="DejaVuSans-34" transform="scale(0.015625)"/>
       </defs>
       <use xlink:href="#DejaVuSans-34"/>
       <use x="63.623047" xlink:href="#DejaVuSans-30"/>
       <use x="127.246094" xlink:href="#DejaVuSans-30"/>
      </g>
     </g>
    </g>
    <g id="xtick_4">
     <g id="line2d_4">
      <g>
       <use style="stroke:#000000;stroke-width:0.8;" x="862.82652" xlink:href="#m4dc5d3592b" y="586.86358"/>
      </g>
     </g>
     <g id="text_4">
      <!-- 600 -->
      <g transform="translate(853.28277 601.462017)scale(0.1 -0.1)">
       <defs>
        <path d="M 2113 2584 
Q 1688 2584 1439 2293 
Q 1191 2003 1191 1497 
Q 1191 994 1439 701 
Q 1688 409 2113 409 
Q 2538 409 2786 701 
Q 3034 994 3034 1497 
Q 3034 2003 2786 2293 
Q 2538 2584 2113 2584 
z
M 3366 4563 
L 3366 3988 
Q 3128 4100 2886 4159 
Q 2644 4219 2406 4219 
Q 1781 4219 1451 3797 
Q 1122 3375 1075 2522 
Q 1259 2794 1537 2939 
Q 1816 3084 2150 3084 
Q 2853 3084 3261 2657 
Q 3669 2231 3669 1497 
Q 3669 778 3244 343 
Q 2819 -91 2113 -91 
Q 1303 -91 875 529 
Q 447 1150 447 2328 
Q 447 3434 972 4092 
Q 1497 4750 2381 4750 
Q 2619 4750 2861 4703 
Q 3103 4656 3366 4563 
z
" id="DejaVuSans-36" transform="scale(0.015625)"/>
       </defs>
       <use xlink:href="#DejaVuSans-36"/>
       <use x="63.623047" xlink:href="#DejaVuSans-30"/>
       <use x="127.246094" xlink:href="#DejaVuSans-30"/>
      </g>
     </g>
    </g>
    <g id="xtick_5">
     <g id="line2d_5">
      <g>
       <use style="stroke:#000000;stroke-width:0.8;" x="1110.477973" xlink:href="#m4dc5d3592b" y="586.86358"/>
      </g>
     </g>
     <g id="text_5">
      <!-- 800 -->
      <g transform="translate(1100.934223 601.462017)scale(0.1 -0.1)">
       <defs>
        <path d="M 2034 2216 
Q 1584 2216 1326 1975 
Q 1069 1734 1069 1313 
Q 1069 891 1326 650 
Q 1584 409 2034 409 
Q 2484 409 2743 651 
Q 3003 894 3003 1313 
Q 3003 1734 2745 1975 
Q 2488 2216 2034 2216 
z
M 1403 2484 
Q 997 2584 770 2862 
Q 544 3141 544 3541 
Q 544 4100 942 4425 
Q 1341 4750 2034 4750 
Q 2731 4750 3128 4425 
Q 3525 4100 3525 3541 
Q 3525 3141 3298 2862 
Q 3072 2584 2669 2484 
Q 3125 2378 3379 2068 
Q 3634 1759 3634 1313 
Q 3634 634 3220 271 
Q 2806 -91 2034 -91 
Q 1263 -91 848 271 
Q 434 634 434 1313 
Q 434 1759 690 2068 
Q 947 2378 1403 2484 
z
M 1172 3481 
Q 1172 3119 1398 2916 
Q 1625 2713 2034 2713 
Q 2441 2713 2670 2916 
Q 2900 3119 2900 3481 
Q 2900 3844 2670 4047 
Q 2441 4250 2034 4250 
Q 1625 4250 1398 4047 
Q 1172 3844 1172 3481 
z
" id="DejaVuSans-38" transform="scale(0.015625)"/>
       </defs>
       <use xlink:href="#DejaVuSans-38"/>
       <use x="63.623047" xlink:href="#DejaVuSans-30"/>
       <use x="127.246094" xlink:href="#DejaVuSans-30"/>
      </g>
     </g>
    </g>
    <g id="xtick_6">
     <g id="line2d_6">
      <g>
       <use style="stroke:#000000;stroke-width:0.8;" x="1358.129427" xlink:href="#m4dc5d3592b" y="586.86358"/>
      </g>
     </g>
     <g id="text_6">
      <!-- 1000 -->
      <g transform="translate(1345.404427 601.462017)scale(0.1 -0.1)">
       <defs>
        <path d="M 794 531 
L 1825 531 
L 1825 4091 
L 703 3866 
L 703 4441 
L 1819 4666 
L 2450 4666 
L 2450 531 
L 3481 531 
L 3481 0 
L 794 0 
L 794 531 
z
" id="DejaVuSans-31" transform="scale(0.015625)"/>
       </defs>
       <use xlink:href="#DejaVuSans-31"/>
       <use x="63.623047" xlink:href="#DejaVuSans-30"/>
       <use x="127.246094" xlink:href="#DejaVuSans-30"/>
       <use x="190.869141" xlink:href="#DejaVuSans-30"/>
      </g>
     </g>
    </g>
    <g id="xtick_7">
     <g id="line2d_7">
      <g>
       <use style="stroke:#000000;stroke-width:0.8;" x="1605.78088" xlink:href="#m4dc5d3592b" y="586.86358"/>
      </g>
     </g>
     <g id="text_7">
      <!-- 1200 -->
      <g transform="translate(1593.05588 601.462017)scale(0.1 -0.1)">
       <use xlink:href="#DejaVuSans-31"/>
       <use x="63.623047" xlink:href="#DejaVuSans-32"/>
       <use x="127.246094" xlink:href="#DejaVuSans-30"/>
       <use x="190.869141" xlink:href="#DejaVuSans-30"/>
      </g>
     </g>
    </g>
    <g id="text_8">
     <!-- frame -->
     <g transform="translate(865.954687 615.140142)scale(0.1 -0.1)">
      <defs>
       <path d="M 2375 4863 
L 2375 4384 
L 1825 4384 
Q 1516 4384 1395 4259 
Q 1275 4134 1275 3809 
L 1275 3500 
L 2222 3500 
L 2222 3053 
L 1275 3053 
L 1275 0 
L 697 0 
L 697 3053 
L 147 3053 
L 147 3500 
L 697 3500 
L 697 3744 
Q 697 4328 969 4595 
Q 1241 4863 1831 4863 
L 2375 4863 
z
" id="DejaVuSans-66" transform="scale(0.015625)"/>
       <path d="M 2631 2963 
Q 2534 3019 2420 3045 
Q 2306 3072 2169 3072 
Q 1681 3072 1420 2755 
Q 1159 2438 1159 1844 
L 1159 0 
L 581 0 
L 581 3500 
L 1159 3500 
L 1159 2956 
Q 1341 3275 1631 3429 
Q 1922 3584 2338 3584 
Q 2397 3584 2469 3576 
Q 2541 3569 2628 3553 
L 2631 2963 
z
" id="DejaVuSans-72" transform="scale(0.015625)"/>
       <path d="M 2194 1759 
Q 1497 1759 1228 1600 
Q 959 1441 959 1056 
Q 959 750 1161 570 
Q 1363 391 1709 391 
Q 2188 391 2477 730 
Q 2766 1069 2766 1631 
L 2766 1759 
L 2194 1759 
z
M 3341 1997 
L 3341 0 
L 2766 0 
L 2766 531 
Q 2569 213 2275 61 
Q 1981 -91 1556 -91 
Q 1019 -91 701 211 
Q 384 513 384 1019 
Q 384 1609 779 1909 
Q 1175 2209 1959 2209 
L 2766 2209 
L 2766 2266 
Q 2766 2663 2505 2880 
Q 2244 3097 1772 3097 
Q 1472 3097 1187 3025 
Q 903 2953 641 2809 
L 641 3341 
Q 956 3463 1253 3523 
Q 1550 3584 1831 3584 
Q 2591 3584 2966 3190 
Q 3341 2797 3341 1997 
z
" id="DejaVuSans-61" transform="scale(0.015625)"/>
       <path d="M 3328 2828 
Q 3544 3216 3844 3400 
Q 4144 3584 4550 3584 
Q 5097 3584 5394 3201 
Q 5691 2819 5691 2113 
L 5691 0 
L 5113 0 
L 5113 2094 
Q 5113 2597 4934 2840 
Q 4756 3084 4391 3084 
Q 3944 3084 3684 2787 
Q 3425 2491 3425 1978 
L 3425 0 
L 2847 0 
L 2847 2094 
Q 2847 2600 2669 2842 
Q 2491 3084 2119 3084 
Q 1678 3084 1418 2786 
Q 1159 2488 1159 1978 
L 1159 0 
L 581 0 
L 581 3500 
L 1159 3500 
L 1159 2956 
Q 1356 3278 1631 3431 
Q 1906 3584 2284 3584 
Q 2666 3584 2933 3390 
Q 3200 3197 3328 2828 
z
" id="DejaVuSans-6d" transform="scale(0.015625)"/>
       <path d="M 3597 1894 
L 3597 1613 
L 953 1613 
Q 991 1019 1311 708 
Q 1631 397 2203 397 
Q 2534 397 2845 478 
Q 3156 559 3463 722 
L 3463 178 
Q 3153 47 2828 -22 
Q 2503 -91 2169 -91 
Q 1331 -91 842 396 
Q 353 884 353 1716 
Q 353 2575 817 3079 
Q 1281 3584 2069 3584 
Q 2775 3584 3186 3129 
Q 3597 2675 3597 1894 
z
M 3022 2063 
Q 3016 2534 2758 2815 
Q 2500 3097 2075 3097 
Q 1594 3097 1305 2825 
Q 1016 2553 972 2059 
L 3022 2063 
z
" id="DejaVuSans-65" transform="scale(0.015625)"/>
      </defs>
      <use xlink:href="#DejaVuSans-66"/>
      <use x="35.205078" xlink:href="#DejaVuSans-72"/>
      <use x="76.318359" xlink:href="#DejaVuSans-61"/>
      <use x="137.597656" xlink:href="#DejaVuSans-6d"/>
      <use x="235.009766" xlink:href="#DejaVuSans-65"/>
     </g>
    </g>
   </g>
   <g id="matplotlib.axis_2">
    <g id="ytick_1">
     <g id="line2d_8">
      <defs>
       <path d="M 0 0 
L -3.5 0 
" id="m480936232d" style="stroke:#000000;stroke-width:0.8;"/>
      </defs>
      <g>
       <use style="stroke:#000000;stroke-width:0.8;" x="43.78125" xlink:href="#m480936232d" y="545.341485"/>
      </g>
     </g>
     <g id="text_9">
      <!-- 4.0 -->
      <g transform="translate(20.878125 549.140704)scale(0.1 -0.1)">
       <defs>
        <path d="M 684 794 
L 1344 794 
L 1344 0 
L 684 0 
L 684 794 
z
" id="DejaVuSans-2e" transform="scale(0.015625)"/>
       </defs>
       <use xlink:href="#DejaVuSans-34"/>
       <use x="63.623047" xlink:href="#DejaVuSans-2e"/>
       <use x="95.410156" xlink:href="#DejaVuSans-30"/>
      </g>
     </g>
    </g>
    <g id="ytick_2">
     <g id="line2d_9">
      <g>
       <use style="stroke:#000000;stroke-width:0.8;" x="43.78125" xlink:href="#m480936232d" y="469.359693"/>
      </g>
     </g>
     <g id="text_10">
      <!-- 4.5 -->
      <g transform="translate(20.878125 473.158912)scale(0.1 -0.1)">
       <defs>
        <path d="M 691 4666 
L 3169 4666 
L 3169 4134 
L 1269 4134 
L 1269 2991 
Q 1406 3038 1543 3061 
Q 1681 3084 1819 3084 
Q 2600 3084 3056 2656 
Q 3513 2228 3513 1497 
Q 3513 744 3044 326 
Q 2575 -91 1722 -91 
Q 1428 -91 1123 -41 
Q 819 9 494 109 
L 494 744 
Q 775 591 1075 516 
Q 1375 441 1709 441 
Q 2250 441 2565 725 
Q 2881 1009 2881 1497 
Q 2881 1984 2565 2268 
Q 2250 2553 1709 2553 
Q 1456 2553 1204 2497 
Q 953 2441 691 2322 
L 691 4666 
z
" id="DejaVuSans-35" transform="scale(0.015625)"/>
       </defs>
       <use xlink:href="#DejaVuSans-34"/>
       <use x="63.623047" xlink:href="#DejaVuSans-2e"/>
       <use x="95.410156" xlink:href="#DejaVuSans-35"/>
      </g>
     </g>
    </g>
    <g id="ytick_3">
     <g id="line2d_10">
      <g>
       <use style="stroke:#000000;stroke-width:0.8;" x="43.78125" xlink:href="#m480936232d" y="393.377902"/>
      </g>
     </g>
     <g id="text_11">
      <!-- 5.0 -->
      <g transform="translate(20.878125 397.17712)scale(0.1 -0.1)">
       <use xlink:href="#DejaVuSans-35"/>
       <use x="63.623047" xlink:href="#DejaVuSans-2e"/>
       <use x="95.410156" xlink:href="#DejaVuSans-30"/>
      </g>
     </g>
    </g>
    <g id="ytick_4">
     <g id="line2d_11">
      <g>
       <use style="stroke:#000000;stroke-width:0.8;" x="43.78125" xlink:href="#m480936232d" y="317.39611"/>
      </g>
     </g>
     <g id="text_12">
      <!-- 5.5 -->
      <g transform="translate(20.878125 321.195329)scale(0.1 -0.1)">
       <use xlink:href="#DejaVuSans-35"/>
       <use x="63.623047" xlink:href="#DejaVuSans-2e"/>
       <use x="95.410156" xlink:href="#DejaVuSans-35"/>
      </g>
     </g>
    </g>
    <g id="ytick_5">
     <g id="line2d_12">
      <g>
       <use style="stroke:#000000;stroke-width:0.8;" x="43.78125" xlink:href="#m480936232d" y="241.414318"/>
      </g>
     </g>
     <g id="text_13">
      <!-- 6.0 -->
      <g transform="translate(20.878125 245.213537)scale(0.1 -0.1)">
       <use xlink:href="#DejaVuSans-36"/>
       <use x="63.623047" xlink:href="#DejaVuSans-2e"/>
       <use x="95.410156" xlink:href="#DejaVuSans-30"/>
      </g>
     </g>
    </g>
    <g id="ytick_6">
     <g id="line2d_13">
      <g>
       <use style="stroke:#000000;stroke-width:0.8;" x="43.78125" xlink:href="#m480936232d" y="165.432527"/>
      </g>
     </g>
     <g id="text_14">
      <!-- 6.5 -->
      <g transform="translate(20.878125 169.231745)scale(0.1 -0.1)">
       <use xlink:href="#DejaVuSans-36"/>
       <use x="63.623047" xlink:href="#DejaVuSans-2e"/>
       <use x="95.410156" xlink:href="#DejaVuSans-35"/>
      </g>
     </g>
    </g>
    <g id="ytick_7">
     <g id="line2d_14">
      <g>
       <use style="stroke:#000000;stroke-width:0.8;" x="43.78125" xlink:href="#m480936232d" y="89.450735"/>
      </g>
     </g>
     <g id="text_15">
      <!-- 7.0 -->
      <g transform="translate(20.878125 93.249954)scale(0.1 -0.1)">
       <defs>
        <path d="M 525 4666 
L 3525 4666 
L 3525 4397 
L 1831 0 
L 1172 0 
L 2766 4134 
L 525 4134 
L 525 4666 
z
" id="DejaVuSans-37" transform="scale(0.015625)"/>
       </defs>
       <use xlink:href="#DejaVuSans-37"/>
       <use x="63.623047" xlink:href="#DejaVuSans-2e"/>
       <use x="95.410156" xlink:href="#DejaVuSans-30"/>
      </g>
     </g>
    </g>
    <g id="text_16">
     <!-- GCaMP -->
     <g transform="translate(14.798437 322.349446)rotate(-90)scale(0.1 -0.1)">
      <defs>
       <path d="M 3809 666 
L 3809 1919 
L 2778 1919 
L 2778 2438 
L 4434 2438 
L 4434 434 
Q 4069 175 3628 42 
Q 3188 -91 2688 -91 
Q 1594 -91 976 548 
Q 359 1188 359 2328 
Q 359 3472 976 4111 
Q 1594 4750 2688 4750 
Q 3144 4750 3555 4637 
Q 3966 4525 4313 4306 
L 4313 3634 
Q 3963 3931 3569 4081 
Q 3175 4231 2741 4231 
Q 1884 4231 1454 3753 
Q 1025 3275 1025 2328 
Q 1025 1384 1454 906 
Q 1884 428 2741 428 
Q 3075 428 3337 486 
Q 3600 544 3809 666 
z
" id="DejaVuSans-47" transform="scale(0.015625)"/>
       <path d="M 4122 4306 
L 4122 3641 
Q 3803 3938 3442 4084 
Q 3081 4231 2675 4231 
Q 1875 4231 1450 3742 
Q 1025 3253 1025 2328 
Q 1025 1406 1450 917 
Q 1875 428 2675 428 
Q 3081 428 3442 575 
Q 3803 722 4122 1019 
L 4122 359 
Q 3791 134 3420 21 
Q 3050 -91 2638 -91 
Q 1578 -91 968 557 
Q 359 1206 359 2328 
Q 359 3453 968 4101 
Q 1578 4750 2638 4750 
Q 3056 4750 3426 4639 
Q 3797 4528 4122 4306 
z
" id="DejaVuSans-43" transform="scale(0.015625)"/>
       <path d="M 628 4666 
L 1569 4666 
L 2759 1491 
L 3956 4666 
L 4897 4666 
L 4897 0 
L 4281 0 
L 4281 4097 
L 3078 897 
L 2444 897 
L 1241 4097 
L 1241 0 
L 628 0 
L 628 4666 
z
" id="DejaVuSans-4d" transform="scale(0.015625)"/>
       <path d="M 1259 4147 
L 1259 2394 
L 2053 2394 
Q 2494 2394 2734 2622 
Q 2975 2850 2975 3272 
Q 2975 3691 2734 3919 
Q 2494 4147 2053 4147 
L 1259 4147 
z
M 628 4666 
L 2053 4666 
Q 2838 4666 3239 4311 
Q 3641 3956 3641 3272 
Q 3641 2581 3239 2228 
Q 2838 1875 2053 1875 
L 1259 1875 
L 1259 0 
L 628 0 
L 628 4666 
z
" id="DejaVuSans-50" transform="scale(0.015625)"/>
      </defs>
      <use xlink:href="#DejaVuSans-47"/>
      <use x="77.490234" xlink:href="#DejaVuSans-43"/>
      <use x="147.314453" xlink:href="#DejaVuSans-61"/>
      <use x="208.59375" xlink:href="#DejaVuSans-4d"/>
      <use x="294.873047" xlink:href="#DejaVuSans-50"/>
     </g>
    </g>
   </g>
   <g id="line2d_15">
    <path clip-path="url(#pc6dd12c46c)" d="M 119.872159 359.898886 
L 121.110416 353.196788 
L 122.348674 350.610778 
L 123.586931 353.276535 
L 124.825188 359.580619 
L 126.063445 367.643036 
L 127.301703 376.820099 
L 129.778217 396.644034 
L 131.016474 403.752556 
L 132.254732 406.350001 
L 133.492989 404.918391 
L 134.731246 402.129092 
L 135.969504 400.041674 
L 137.207761 398.657924 
L 138.446018 397.593199 
L 139.684275 397.191842 
L 140.922533 397.678646 
L 142.16079 398.657674 
L 143.399047 399.871885 
L 144.637304 401.961166 
L 145.875562 405.969853 
L 147.113819 412.01561 
L 148.352076 418.745993 
L 149.590334 424.090879 
L 150.828591 426.528359 
L 152.066848 426.413284 
L 153.305105 426.124949 
L 154.543363 428.069667 
L 155.78162 432.962552 
L 158.258134 446.89673 
L 159.496392 451.725396 
L 160.734649 453.913622 
L 161.972906 454.776911 
L 163.211163 455.984705 
L 164.449421 458.70662 
L 165.687678 463.706869 
L 166.925935 471.436298 
L 169.40245 491.91256 
L 170.640707 499.704736 
L 171.878964 502.822897 
L 173.117222 501.880521 
L 174.355479 499.527404 
L 175.593736 498.202774 
L 176.831993 499.128921 
L 178.070251 502.893351 
L 179.308508 509.5387 
L 180.546765 517.797058 
L 181.785022 525.304784 
L 183.02328 530.121254 
L 184.261537 531.431046 
L 185.499794 529.380617 
L 186.738052 525.922979 
L 187.976309 524.897457 
L 189.214566 528.886922 
L 190.452823 536.778941 
L 191.691081 545.736663 
L 192.929338 553.6033 
L 194.167595 558.963502 
L 195.405852 561.202423 
L 196.64411 560.69248 
L 197.882367 558.188057 
L 200.358881 551.229649 
L 201.597139 549.058538 
L 202.835396 548.199308 
L 204.073653 548.270246 
L 205.311911 548.94201 
L 206.550168 549.811955 
L 207.788425 549.972236 
L 209.026682 548.262137 
L 210.26494 544.535461 
L 212.741454 535.44415 
L 213.979711 531.113344 
L 215.217969 525.780142 
L 216.456226 518.575564 
L 218.93274 500.517245 
L 221.409255 482.208289 
L 222.647512 475.074631 
L 223.88577 470.902217 
L 225.124027 470.120248 
L 226.362284 471.955704 
L 227.600541 475.124574 
L 230.077056 482.093356 
L 231.315313 484.454794 
L 232.55357 484.47345 
L 233.791828 481.900099 
L 235.030085 478.595587 
L 236.268342 476.943203 
L 237.5066 477.663098 
L 238.744857 479.936838 
L 239.983114 482.578108 
L 241.221371 484.268102 
L 242.459629 483.506953 
L 243.697886 479.095809 
L 244.936143 471.157834 
L 246.1744 462.238988 
L 247.412658 456.492178 
L 248.650915 456.329931 
L 249.889172 460.481346 
L 251.127429 465.948544 
L 252.365687 470.75151 
L 253.603944 474.468837 
L 256.080459 480.352149 
L 257.318716 483.91978 
L 258.556973 488.337874 
L 262.271745 503.226544 
L 264.748259 516.580159 
L 265.986517 520.978322 
L 267.224774 521.539831 
L 268.463031 519.055693 
L 269.701288 515.802502 
L 270.939546 514.230624 
L 272.177803 515.391035 
L 273.41606 518.385109 
L 274.654318 521.801297 
L 275.892575 524.835253 
L 277.130832 526.75443 
L 278.369089 526.416813 
L 279.607347 522.271303 
L 280.845604 512.675815 
L 282.083861 497.230402 
L 284.560376 459.937088 
L 287.03689 428.45778 
L 288.275147 409.378162 
L 289.513405 384.949815 
L 291.989919 325.098808 
L 293.228177 294.776646 
L 294.466434 268.254427 
L 295.704691 247.293787 
L 298.181206 213.175613 
L 299.419463 193.495019 
L 300.65772 169.835555 
L 303.134235 112.049579 
L 304.372492 82.804592 
L 305.610749 59.590491 
L 306.849006 47.979282 
L 308.087264 49.766994 
L 310.563778 71.085507 
L 311.802036 76.339635 
L 313.040293 75.18025 
L 314.27855 70.298875 
L 317.993322 52.772729 
L 319.231579 48.12796 
L 320.469836 48.264403 
L 321.708094 53.699342 
L 322.946351 61.986187 
L 324.184608 71.64464 
L 325.422866 82.359436 
L 326.661123 91.796347 
L 327.89938 96.344601 
L 329.137637 95.136945 
L 331.614152 86.892642 
L 332.852409 83.837667 
L 334.090666 81.691072 
L 335.328924 80.372532 
L 336.567181 78.430435 
L 337.805438 74.013155 
L 339.043695 68.056605 
L 340.281953 63.721791 
L 341.52021 62.8646 
L 342.758467 65.003358 
L 343.996725 69.055181 
L 345.234982 74.658436 
L 346.473239 81.986483 
L 348.949754 99.944766 
L 350.188011 106.609099 
L 351.426268 108.560411 
L 352.664525 105.23155 
L 353.902783 99.082258 
L 355.14104 95.177434 
L 356.379297 96.859318 
L 358.855812 108.702413 
L 360.094069 112.623138 
L 361.332326 115.193691 
L 362.570584 119.243144 
L 363.808841 126.340276 
L 366.285355 144.298954 
L 367.523613 152.292356 
L 368.76187 158.647106 
L 370.000127 162.623174 
L 372.476642 166.486602 
L 373.714899 170.831282 
L 374.953156 178.222919 
L 377.429671 196.697145 
L 378.667928 207.363023 
L 382.3827 243.618496 
L 383.620957 252.602845 
L 384.859214 258.070402 
L 386.097472 258.703507 
L 387.335729 255.077175 
L 388.573986 250.159096 
L 389.812243 247.181476 
L 391.050501 247.5406 
L 392.288758 251.058734 
L 393.527015 257.356425 
L 394.765272 266.259753 
L 396.00353 277.550283 
L 399.718302 316.608129 
L 400.956559 326.439555 
L 402.194816 333.754009 
L 403.433073 338.700068 
L 404.671331 340.367648 
L 405.909588 338.36248 
L 407.147845 334.809714 
L 408.386102 332.495034 
L 409.62436 332.142403 
L 410.862617 333.031609 
L 412.100874 334.702599 
L 413.339132 337.728237 
L 414.577389 343.69814 
L 415.815646 353.479555 
L 418.292161 377.546601 
L 419.530418 386.909397 
L 420.768675 393.349985 
L 422.006932 397.838783 
L 423.24519 400.877809 
L 424.483447 402.068316 
L 425.721704 401.390579 
L 426.959961 400.550977 
L 428.198219 403.049329 
L 429.436476 411.10501 
L 431.912991 433.432353 
L 433.151248 441.070266 
L 434.389505 445.919375 
L 436.86602 453.184866 
L 438.104277 457.228633 
L 439.342534 460.337869 
L 440.580791 460.657337 
L 441.819049 457.752256 
L 444.295563 448.313787 
L 445.53382 444.69429 
L 446.772078 442.258009 
L 448.010335 441.468416 
L 449.248592 443.145321 
L 450.48685 447.354994 
L 451.725107 453.361367 
L 454.201621 466.398303 
L 455.439879 471.61778 
L 456.678136 475.251274 
L 457.916393 476.867273 
L 459.15465 477.659174 
L 460.392908 480.214858 
L 461.631165 485.645378 
L 462.869422 492.650174 
L 464.107679 498.852381 
L 465.345937 502.228777 
L 466.584194 502.212201 
L 467.822451 499.819079 
L 469.060709 496.444848 
L 470.298966 492.00432 
L 471.537223 485.070541 
L 474.013738 467.325802 
L 475.251995 462.918821 
L 476.490252 464.164023 
L 477.728509 469.895407 
L 480.205024 484.498144 
L 481.443281 490.034825 
L 482.681538 492.315218 
L 483.919796 489.669909 
L 485.158053 482.402204 
L 486.39631 473.324849 
L 487.634568 465.718534 
L 488.872825 460.699975 
L 490.111082 456.814635 
L 491.349339 452.51106 
L 492.587597 448.679403 
L 493.825854 447.887044 
L 495.064111 450.917081 
L 496.302368 454.783768 
L 497.540626 454.622583 
L 498.778883 447.178433 
L 500.01714 432.807619 
L 501.255397 415.460379 
L 502.493655 400.754049 
L 503.731912 393.159029 
L 504.970169 394.775492 
L 506.208427 405.190293 
L 507.446684 420.536854 
L 508.684941 434.147612 
L 509.923198 440.568269 
L 511.161456 439.14092 
L 513.63797 427.563777 
L 514.876227 423.938903 
L 516.114485 422.788887 
L 517.352742 423.397336 
L 518.590999 424.231892 
L 519.829257 422.874082 
L 521.067514 417.453127 
L 522.305771 408.140876 
L 523.544028 397.242672 
L 524.782286 388.369188 
L 526.020543 384.472426 
L 527.2588 385.960388 
L 528.497057 391.336834 
L 529.735315 399.232719 
L 532.211829 418.564702 
L 533.450086 425.915781 
L 534.688344 429.748916 
L 535.926601 431.084526 
L 537.164858 431.659372 
L 538.403116 432.958805 
L 539.641373 436.035408 
L 540.87963 441.133018 
L 542.117887 447.239216 
L 543.356145 452.308311 
L 544.594402 454.121681 
L 545.832659 451.425261 
L 547.070916 444.867152 
L 548.309174 436.883447 
L 549.547431 430.642633 
L 550.785688 428.544667 
L 552.023945 430.870301 
L 553.262203 435.965696 
L 555.738717 448.463714 
L 558.215232 461.93564 
L 559.453489 470.685588 
L 563.168261 503.773494 
L 564.406518 508.796892 
L 565.644775 507.464003 
L 566.883033 500.728464 
L 569.359547 480.455165 
L 570.597804 473.026852 
L 571.836062 470.717742 
L 573.074319 473.889879 
L 574.312576 481.252232 
L 576.789091 501.111859 
L 578.027348 510.852107 
L 579.265605 518.108765 
L 580.503863 520.465378 
L 581.74212 517.006615 
L 585.456892 495.895914 
L 586.695149 489.053627 
L 589.171663 471.365497 
L 590.409921 464.951109 
L 591.648178 463.272572 
L 594.124693 467.491173 
L 595.36295 466.413177 
L 597.839464 458.503541 
L 599.077722 457.356481 
L 600.315979 459.547824 
L 601.554236 463.918086 
L 602.792493 468.846112 
L 604.030751 472.894094 
L 605.269008 474.798057 
L 606.507265 473.790372 
L 607.745523 470.742398 
L 608.98378 468.243985 
L 610.222037 467.851179 
L 611.460294 467.94909 
L 612.698552 465.81964 
L 613.936809 460.240447 
L 615.175066 451.232047 
L 616.413323 439.479794 
L 618.889838 414.109965 
L 628.795896 323.10068 
L 630.034153 314.261609 
L 631.272411 311.736848 
L 632.510668 316.376815 
L 633.748925 326.094318 
L 634.987182 338.967146 
L 637.463697 369.522152 
L 639.940211 403.022652 
L 641.178469 417.387702 
L 642.416726 426.669176 
L 643.654983 430.792713 
L 644.893241 431.375189 
L 646.131498 430.461504 
L 647.369755 430.389908 
L 648.608012 432.604925 
L 649.84627 436.166439 
L 651.084527 438.840824 
L 652.322784 439.511174 
L 653.561041 438.730235 
L 654.799299 437.553445 
L 656.037556 437.018049 
L 657.275813 437.870106 
L 658.51407 439.120958 
L 659.752328 438.128295 
L 660.990585 433.437214 
L 662.228842 426.06024 
L 664.705357 410.345834 
L 665.943614 404.311075 
L 667.181871 399.95033 
L 668.420129 397.563818 
L 669.658386 397.587732 
L 670.896643 399.674942 
L 673.373158 405.475687 
L 674.611415 407.394132 
L 675.849672 407.975769 
L 677.087929 407.962297 
L 678.326187 408.422856 
L 679.564444 408.381598 
L 680.802701 405.605605 
L 682.040959 399.74949 
L 683.279216 393.04909 
L 685.75573 381.929552 
L 686.993988 374.051324 
L 689.470502 353.748745 
L 690.708759 350.065028 
L 691.947017 354.17814 
L 693.185274 363.387531 
L 695.661789 384.198879 
L 696.900046 393.089256 
L 698.138303 399.065853 
L 699.37656 401.034202 
L 700.614818 398.958382 
L 701.853075 392.413201 
L 703.091332 380.760991 
L 705.567847 350.821585 
L 706.806104 340.879611 
L 708.044361 338.251818 
L 709.282618 343.215384 
L 710.520876 353.941597 
L 712.99739 379.072866 
L 714.235648 387.75996 
L 715.473905 393.219237 
L 716.712162 396.41569 
L 717.950419 397.75405 
L 719.188677 397.240792 
L 720.426934 395.394977 
L 721.665191 392.727349 
L 722.903448 388.94336 
L 725.379963 378.504584 
L 726.61822 374.431807 
L 727.856477 372.638831 
L 729.094735 373.389115 
L 730.332992 376.844159 
L 731.571249 383.037534 
L 734.047764 399.804404 
L 735.286021 406.201961 
L 736.524278 409.338008 
L 737.762536 409.509058 
L 739.000793 407.272338 
L 740.23905 403.115773 
L 741.477307 397.439984 
L 743.953822 383.748268 
L 745.192079 380.62262 
L 746.430336 382.651074 
L 747.668594 386.861044 
L 748.906851 389.357667 
L 750.145108 389.418412 
L 751.383366 388.570562 
L 753.85988 387.591265 
L 755.098137 385.406973 
L 756.336395 380.378053 
L 757.574652 373.786964 
L 758.812909 368.188089 
L 760.051166 365.562927 
L 761.289424 367.1489 
L 762.527681 372.921541 
L 763.765938 380.244536 
L 765.004195 384.737191 
L 766.242453 383.336885 
L 767.48071 376.203521 
L 769.957225 356.456055 
L 771.195482 350.345417 
L 772.433739 349.165244 
L 773.671996 351.924298 
L 774.910254 356.427536 
L 776.148511 361.567089 
L 777.386768 368.084983 
L 778.625025 377.024872 
L 782.339797 409.307663 
L 783.578054 415.552868 
L 784.816312 417.556283 
L 786.054569 416.7046 
L 787.292826 414.70666 
L 788.531084 411.379516 
L 789.769341 405.107569 
L 792.245855 387.490963 
L 793.484113 383.40994 
L 794.72237 384.322891 
L 797.198884 390.93432 
L 798.437142 393.045121 
L 799.675399 393.692189 
L 800.913656 392.530821 
L 803.390171 386.707569 
L 804.628428 386.013492 
L 805.866685 390.302028 
L 807.104943 400.197821 
L 809.581457 425.989558 
L 810.819714 434.977366 
L 812.057972 439.799326 
L 813.296229 441.592367 
L 814.534486 441.412477 
L 815.772743 439.630726 
L 817.011001 436.079513 
L 818.249258 430.646894 
L 819.487515 424.575564 
L 820.725773 420.620089 
L 821.96403 421.278208 
L 823.202287 427.470437 
L 824.440544 438.81588 
L 826.917059 467.873737 
L 828.155316 477.199599 
L 829.393573 478.433666 
L 830.631831 471.695762 
L 833.108345 449.580613 
L 834.346602 442.698358 
L 835.58486 440.064312 
L 836.823117 439.418698 
L 838.061374 438.032077 
L 839.299632 434.16635 
L 841.776146 421.863871 
L 843.014403 417.689297 
L 844.252661 415.281341 
L 845.490918 412.621506 
L 846.729175 408.438181 
L 847.967432 403.686098 
L 849.20569 400.533442 
L 850.443947 400.463308 
L 851.682204 403.488259 
L 854.158719 414.193298 
L 855.396976 417.928129 
L 856.635233 417.703299 
L 857.873491 413.016778 
L 859.111748 405.149892 
L 860.350005 396.546698 
L 861.588262 390.08956 
L 862.82652 387.416027 
L 864.064777 387.703641 
L 865.303034 389.154563 
L 866.541291 391.269924 
L 869.017806 397.706033 
L 870.256063 399.305263 
L 871.49432 397.880545 
L 872.732578 393.330803 
L 875.209092 380.202266 
L 876.44735 375.597205 
L 877.685607 374.092596 
L 878.923864 375.343337 
L 880.162121 377.457383 
L 881.400379 378.470247 
L 882.638636 377.533724 
L 883.876893 374.678142 
L 885.11515 371.219641 
L 886.353408 369.582688 
L 887.591665 370.972786 
L 888.829922 374.730128 
L 891.306437 385.315948 
L 892.544694 389.091276 
L 893.782951 390.414252 
L 895.021209 390.753478 
L 896.259466 392.108329 
L 897.497723 394.309527 
L 898.73598 395.181664 
L 899.974238 393.58259 
L 901.212495 391.476674 
L 902.450752 392.06979 
L 903.689009 396.029178 
L 904.927267 401.015444 
L 906.165524 404.616023 
L 907.403781 405.433865 
L 908.642039 402.314148 
L 909.880296 394.83835 
L 911.118553 383.851266 
L 913.595068 358.942034 
L 914.833325 349.053563 
L 916.071582 342.585586 
L 917.309839 339.813874 
L 918.548097 340.022746 
L 919.786354 342.346616 
L 921.024611 346.399233 
L 922.262868 351.345084 
L 923.501126 355.590676 
L 924.739383 358.035742 
L 925.97764 358.232707 
L 927.215898 355.412154 
L 928.454155 348.869566 
L 929.692412 339.223091 
L 930.930669 328.577632 
L 932.168927 319.28188 
L 933.407184 312.693501 
L 934.645441 309.212327 
L 935.883698 309.280009 
L 937.121956 313.860516 
L 938.360213 322.763166 
L 939.59847 333.127922 
L 940.836727 341.557988 
L 942.074985 346.946522 
L 943.313242 350.044406 
L 944.551499 351.382871 
L 945.789757 351.031922 
L 947.028014 350.141518 
L 948.266271 350.776211 
L 949.504528 353.602383 
L 950.742786 357.082853 
L 951.981043 359.630464 
L 953.2193 361.168132 
L 954.457557 361.792065 
L 955.695815 361.060137 
L 956.934072 359.419185 
L 958.172329 358.556087 
L 959.410586 359.464392 
L 960.648844 361.019289 
L 961.887101 361.54872 
L 963.125358 361.02646 
L 966.84013 358.958718 
L 968.078387 359.050769 
L 969.316645 359.480582 
L 970.554902 358.097834 
L 971.793159 353.027852 
L 973.031416 344.086656 
L 974.269674 332.643316 
L 977.984446 295.263049 
L 980.46096 274.879939 
L 981.699217 262.37853 
L 984.175732 233.277646 
L 985.413989 222.916032 
L 986.652246 218.019101 
L 987.890504 217.592743 
L 989.128761 218.682633 
L 990.367018 217.733446 
L 991.605275 212.703839 
L 992.843533 205.511283 
L 994.08179 201.374605 
L 995.320047 204.362471 
L 996.558305 214.25226 
L 997.796562 228.354079 
L 999.034819 244.904608 
L 1001.511334 282.450215 
L 1005.226105 341.890527 
L 1007.70262 377.154571 
L 1008.940877 391.855016 
L 1010.179134 400.388039 
L 1011.417392 401.104861 
L 1012.655649 396.046624 
L 1013.893906 388.791419 
L 1015.132164 383.122311 
L 1016.370421 382.679575 
L 1017.608678 389.106022 
L 1020.085193 411.076353 
L 1021.32345 418.29648 
L 1022.561707 421.61917 
L 1023.799964 422.466891 
L 1025.038222 422.096267 
L 1026.276479 421.544118 
L 1027.514736 421.144547 
L 1028.752993 419.768259 
L 1029.991251 415.684071 
L 1031.229508 408.396062 
L 1034.94428 382.000979 
L 1037.420794 365.88065 
L 1038.659052 359.177795 
L 1039.897309 355.289522 
L 1041.135566 356.196734 
L 1042.373823 362.399691 
L 1043.612081 371.666215 
L 1044.850338 379.8971 
L 1046.088595 383.526397 
L 1047.326852 382.166259 
L 1048.56511 378.462786 
L 1049.803367 374.197752 
L 1051.041624 368.039141 
L 1052.279882 358.620348 
L 1053.518139 347.810288 
L 1054.756396 339.288306 
L 1055.994653 335.106608 
L 1057.232911 334.704788 
L 1058.471168 336.618636 
L 1059.709425 339.45052 
L 1060.947682 341.168774 
L 1062.18594 339.527842 
L 1063.424197 333.877542 
L 1064.662454 326.235864 
L 1065.900711 320.712585 
L 1067.138969 320.826699 
L 1068.377226 326.282197 
L 1069.615483 332.900023 
L 1070.853741 335.954898 
L 1072.091998 333.585886 
L 1073.330255 327.276999 
L 1074.568512 318.963968 
L 1075.80677 308.236385 
L 1077.045027 293.425487 
L 1078.283284 275.626812 
L 1079.521541 260.202346 
L 1080.759799 253.034529 
L 1081.998056 256.04915 
L 1083.236313 266.366677 
L 1084.474571 278.404306 
L 1085.712828 286.454798 
L 1086.951085 287.145781 
L 1088.189342 281.74863 
L 1089.4276 275.001593 
L 1090.665857 270.653495 
L 1091.904114 269.420076 
L 1093.142371 270.347183 
L 1094.380629 272.223581 
L 1095.618886 273.60396 
L 1096.857143 272.667592 
L 1098.0954 268.288319 
L 1101.810172 247.712239 
L 1103.04843 241.706982 
L 1104.286687 236.361551 
L 1105.524944 234.220361 
L 1106.763201 237.698438 
L 1109.239716 252.113821 
L 1110.477973 254.245433 
L 1111.71623 250.210971 
L 1112.954488 241.019354 
L 1114.192745 229.647809 
L 1115.431002 220.205325 
L 1116.669259 216.175764 
L 1117.907517 218.471392 
L 1120.384031 231.917501 
L 1121.622289 235.902249 
L 1122.860546 234.78178 
L 1124.098803 228.609009 
L 1125.33706 220.111804 
L 1126.575318 213.454944 
L 1127.813575 211.586324 
L 1129.051832 214.695071 
L 1132.766604 232.56957 
L 1134.004861 239.317232 
L 1136.481376 257.743537 
L 1137.719633 263.23074 
L 1138.95789 264.143159 
L 1140.196148 263.486384 
L 1141.434405 264.082257 
L 1142.672662 266.65253 
L 1143.910919 271.398768 
L 1146.387434 284.620653 
L 1147.625691 287.075028 
L 1148.863948 283.992548 
L 1151.340463 269.549032 
L 1152.57872 264.922892 
L 1153.816977 265.099056 
L 1155.055235 270.246942 
L 1158.770007 295.947762 
L 1160.008264 302.390706 
L 1161.246521 306.515845 
L 1162.484778 308.755827 
L 1163.723036 310.128644 
L 1164.961293 311.321793 
L 1166.19955 312.968978 
L 1167.437807 315.656413 
L 1168.676065 318.898469 
L 1169.914322 321.288377 
L 1171.152579 321.817589 
L 1172.390837 320.462408 
L 1173.629094 318.084664 
L 1174.867351 316.363838 
L 1176.105608 317.571755 
L 1177.343866 323.363218 
L 1179.82038 341.82242 
L 1181.058637 346.083687 
L 1182.296895 343.354668 
L 1184.773409 327.651125 
L 1186.011666 324.279758 
L 1187.249924 324.671391 
L 1188.488181 326.284671 
L 1189.726438 328.491891 
L 1190.964696 331.246642 
L 1192.202953 333.575215 
L 1193.44121 334.720305 
L 1194.679467 335.568553 
L 1195.917725 338.369314 
L 1197.155982 344.767803 
L 1199.632496 363.004811 
L 1200.870754 367.613611 
L 1202.109011 367.37619 
L 1203.347268 365.461594 
L 1204.585525 364.981587 
L 1205.823783 366.413903 
L 1207.06204 368.223689 
L 1208.300297 368.596498 
L 1209.538555 366.703822 
L 1210.776812 363.398918 
L 1212.015069 361.160364 
L 1213.253326 361.879069 
L 1214.491584 364.262484 
L 1215.729841 365.234987 
L 1216.968098 363.351789 
L 1219.444613 355.90766 
L 1220.68287 355.166335 
L 1221.921127 358.663952 
L 1223.159384 365.692397 
L 1225.635899 384.18647 
L 1226.874156 393.366391 
L 1228.112414 400.065767 
L 1229.350671 401.417914 
L 1230.588928 396.194542 
L 1233.065443 376.167955 
L 1234.3037 368.090786 
L 1235.541957 363.903467 
L 1236.780214 364.28204 
L 1238.018472 369.155384 
L 1239.256729 377.639925 
L 1240.494986 387.576776 
L 1241.733243 395.799994 
L 1242.971501 399.920697 
L 1244.209758 400.387172 
L 1245.448015 399.895798 
L 1246.686273 400.011554 
L 1247.92453 400.259169 
L 1249.162787 400.908071 
L 1250.401044 403.501516 
L 1251.639302 408.279063 
L 1254.115816 419.743917 
L 1255.354073 426.141702 
L 1259.068845 447.376156 
L 1261.54536 461.913006 
L 1262.783617 467.218888 
L 1264.021874 468.761131 
L 1265.260132 465.884099 
L 1267.736646 454.028459 
L 1268.974903 450.707687 
L 1271.451418 448.738332 
L 1273.927932 445.075316 
L 1275.16619 444.133191 
L 1277.642704 443.548516 
L 1278.880962 443.068305 
L 1280.119219 443.030417 
L 1281.357476 443.801953 
L 1282.595733 445.36073 
L 1285.072248 449.185623 
L 1286.310505 450.303512 
L 1287.548762 450.604325 
L 1288.78702 450.227357 
L 1290.025277 449.473298 
L 1291.263534 448.332119 
L 1292.501791 446.17025 
L 1293.740049 442.363338 
L 1296.216563 432.572072 
L 1297.454821 429.383481 
L 1298.693078 428.104064 
L 1299.931335 428.34698 
L 1301.169592 429.85272 
L 1302.40785 433.307088 
L 1303.646107 439.591203 
L 1307.360879 465.640355 
L 1308.599136 471.257056 
L 1309.837393 473.134532 
L 1311.07565 471.267562 
L 1312.313908 467.652333 
L 1313.552165 465.307288 
L 1314.790422 465.704911 
L 1316.02868 467.366742 
L 1317.266937 468.088822 
L 1318.505194 467.983569 
L 1319.743451 468.931475 
L 1320.981709 471.967967 
L 1323.458223 480.673643 
L 1324.69648 482.720757 
L 1325.934738 481.815901 
L 1327.172995 478.974469 
L 1328.411252 475.419267 
L 1329.649509 471.025366 
L 1332.126024 459.23113 
L 1333.364281 454.507827 
L 1334.602539 452.229157 
L 1335.840796 451.876604 
L 1337.079053 452.203675 
L 1338.31731 452.167387 
L 1339.555568 451.02741 
L 1340.793825 448.729853 
L 1342.032082 445.97096 
L 1343.270339 443.549198 
L 1344.508597 442.229955 
L 1345.746854 442.533746 
L 1346.985111 444.07869 
L 1348.223368 445.355103 
L 1349.461626 444.395776 
L 1350.699883 440.444959 
L 1353.176398 429.077085 
L 1354.414655 425.439449 
L 1355.652912 425.129747 
L 1356.891169 427.104521 
L 1358.129427 427.885272 
L 1359.367684 424.985651 
L 1360.605941 419.129159 
L 1361.844198 412.655381 
L 1363.082456 407.630438 
L 1364.320713 405.717294 
L 1365.55897 407.426313 
L 1369.273742 419.330863 
L 1370.511999 422.356962 
L 1371.750257 424.389779 
L 1372.988514 424.691483 
L 1374.226771 424.066826 
L 1375.465028 425.477222 
L 1376.703286 430.857223 
L 1380.418057 456.145154 
L 1381.656315 461.150452 
L 1382.894572 462.051584 
L 1384.132829 459.043324 
L 1385.371087 453.793368 
L 1386.609344 447.062509 
L 1387.847601 437.23383 
L 1390.324116 408.298637 
L 1391.562373 397.067511 
L 1392.80063 392.396154 
L 1394.038887 393.050935 
L 1395.277145 396.380866 
L 1397.753659 406.022203 
L 1398.991916 409.773506 
L 1400.230174 411.157912 
L 1401.468431 410.767298 
L 1402.706688 409.951033 
L 1403.944946 409.831444 
L 1405.183203 411.591305 
L 1406.42146 416.446028 
L 1407.659717 423.858265 
L 1408.897975 430.415082 
L 1410.136232 432.027131 
L 1411.374489 427.081553 
L 1412.612746 417.067755 
L 1413.851004 405.219194 
L 1415.089261 395.119459 
L 1416.327518 389.226724 
L 1417.565775 387.348439 
L 1418.804033 386.926604 
L 1420.04229 385.678365 
L 1421.280547 383.337657 
L 1422.518805 380.127227 
L 1423.757062 375.138133 
L 1424.995319 367.333867 
L 1426.233576 356.843976 
L 1427.471834 345.02532 
L 1428.710091 334.667933 
L 1429.948348 329.742319 
L 1431.186605 332.917626 
L 1432.424863 343.049885 
L 1433.66312 355.879687 
L 1434.901377 366.768425 
L 1436.139634 372.816683 
L 1437.377892 373.482231 
L 1438.616149 369.748507 
L 1439.854406 363.192351 
L 1441.092664 355.796951 
L 1442.330921 349.465383 
L 1443.569178 345.394621 
L 1444.807435 343.771418 
L 1446.045693 343.245438 
L 1447.28395 341.381562 
L 1448.522207 336.480886 
L 1449.760464 328.734003 
L 1450.998722 320.274532 
L 1452.236979 314.306089 
L 1453.475236 312.969599 
L 1454.713494 315.566681 
L 1455.951751 319.129279 
L 1457.190008 320.800453 
L 1458.428265 319.679615 
L 1459.666523 317.034597 
L 1460.90478 315.238714 
L 1462.143037 315.621467 
L 1463.381294 317.208009 
L 1464.619552 318.590297 
L 1465.857809 320.157171 
L 1467.096066 322.95328 
L 1468.334323 326.469741 
L 1469.572581 328.977737 
L 1470.810838 329.231948 
L 1472.049095 327.287325 
L 1473.287353 324.093721 
L 1475.763867 316.685311 
L 1477.002124 313.89146 
L 1478.240382 312.830862 
L 1479.478639 312.308906 
L 1480.716896 309.895177 
L 1481.955153 304.491487 
L 1484.431668 290.350938 
L 1485.669925 285.614328 
L 1486.908182 283.090965 
L 1488.14644 281.318979 
L 1490.622954 277.405464 
L 1491.861212 277.043669 
L 1493.099469 279.441986 
L 1494.337726 285.059754 
L 1495.575983 292.418889 
L 1496.814241 298.407333 
L 1498.052498 300.01685 
L 1499.290755 295.435683 
L 1500.529012 284.228768 
L 1503.005527 252.62285 
L 1504.243784 242.4346 
L 1505.482041 240.338752 
L 1506.720299 245.992608 
L 1507.958556 257.321561 
L 1510.435071 283.890543 
L 1511.673328 293.696663 
L 1512.911585 299.645911 
L 1514.149842 301.728702 
L 1515.3881 299.969253 
L 1516.626357 294.306099 
L 1517.864614 285.555051 
L 1520.341129 265.834114 
L 1521.579386 259.588986 
L 1522.817643 258.145348 
L 1524.0559 260.933035 
L 1525.294158 267.680772 
L 1526.532415 279.935979 
L 1527.770672 298.331065 
L 1529.00893 319.870534 
L 1530.247187 339.209112 
L 1531.485444 352.190602 
L 1532.723701 357.722567 
L 1533.961959 356.705308 
L 1535.200216 350.649404 
L 1537.67673 332.729218 
L 1538.914988 325.830482 
L 1540.153245 322.347666 
L 1541.391502 322.240252 
L 1542.62976 324.520948 
L 1543.868017 328.739483 
L 1545.106274 334.913558 
L 1546.344531 341.989214 
L 1547.582789 348.249512 
L 1548.821046 353.083446 
L 1550.059303 356.716922 
L 1551.29756 358.556794 
L 1552.535818 357.901159 
L 1553.774075 356.079201 
L 1555.012332 355.267383 
L 1556.250589 356.171909 
L 1557.488847 358.92076 
L 1558.727104 363.808488 
L 1561.203619 376.084052 
L 1562.441876 379.579197 
L 1563.680133 379.554707 
L 1566.156648 374.468366 
L 1567.394905 373.91726 
L 1569.871419 375.885798 
L 1572.347934 375.763539 
L 1573.586191 376.869282 
L 1574.824448 379.62939 
L 1576.062706 384.167166 
L 1577.300963 390.462979 
L 1579.777478 404.488813 
L 1581.015735 410.706264 
L 1582.253992 414.929634 
L 1583.492249 414.879466 
L 1584.730507 409.787854 
L 1585.968764 401.942514 
L 1587.207021 395.441239 
L 1588.445278 393.398357 
L 1589.683536 396.246187 
L 1590.921793 402.476916 
L 1592.16005 409.956134 
L 1593.398307 416.57693 
L 1594.636565 420.823984 
L 1595.874822 422.196941 
L 1597.113079 421.354588 
L 1598.351337 419.798839 
L 1599.589594 419.002677 
L 1600.827851 419.494821 
L 1602.066108 420.489372 
L 1603.304366 420.727682 
L 1604.542623 419.839519 
L 1605.78088 418.370877 
L 1607.019137 416.508523 
L 1608.257395 413.371887 
L 1609.495652 408.140884 
L 1610.733909 402.209097 
L 1611.972166 399.389105 
L 1613.210424 402.831654 
L 1614.448681 412.150834 
L 1615.686938 423.802291 
L 1616.925196 433.373878 
L 1618.163453 437.626754 
L 1619.40171 435.733444 
L 1620.639967 429.55673 
L 1621.878225 422.307358 
L 1623.116482 416.805567 
L 1624.354739 415.030184 
L 1625.592996 417.674988 
L 1626.831254 423.60367 
L 1628.069511 430.24314 
L 1629.307768 434.24485 
L 1630.546026 432.876628 
L 1631.784283 425.687334 
L 1633.02254 414.536606 
L 1635.499055 390.600654 
L 1636.737312 380.902249 
L 1637.975569 374.783662 
L 1639.213826 375.073977 
L 1640.452084 383.437692 
L 1641.690341 397.597262 
L 1641.690341 397.597262 
" style="fill:none;stroke:#008000;stroke-linecap:square;stroke-width:1.5;"/>
   </g>
   <g id="patch_3">
    <path d="M 43.78125 586.86358 
L 43.78125 22.318125 
" style="fill:none;stroke:#000000;stroke-linecap:square;stroke-linejoin:miter;stroke-width:0.8;"/>
   </g>
   <g id="patch_4">
    <path d="M 1717.78125 586.86358 
L 1717.78125 22.318125 
" style="fill:none;stroke:#000000;stroke-linecap:square;stroke-linejoin:miter;stroke-width:0.8;"/>
   </g>
   <g id="patch_5">
    <path d="M 43.78125 586.86358 
L 1717.78125 586.86358 
" style="fill:none;stroke:#000000;stroke-linecap:square;stroke-linejoin:miter;stroke-width:0.8;"/>
   </g>
   <g id="patch_6">
    <path d="M 43.78125 22.318125 
L 1717.78125 22.318125 
" style="fill:none;stroke:#000000;stroke-linecap:square;stroke-linejoin:miter;stroke-width:0.8;"/>
   </g>
   <g id="text_17">
    <!-- before binarisation -->
    <g transform="translate(824.1825 16.318125)scale(0.12 -0.12)">
     <defs>
      <path d="M 3116 1747 
Q 3116 2381 2855 2742 
Q 2594 3103 2138 3103 
Q 1681 3103 1420 2742 
Q 1159 2381 1159 1747 
Q 1159 1113 1420 752 
Q 1681 391 2138 391 
Q 2594 391 2855 752 
Q 3116 1113 3116 1747 
z
M 1159 2969 
Q 1341 3281 1617 3432 
Q 1894 3584 2278 3584 
Q 2916 3584 3314 3078 
Q 3713 2572 3713 1747 
Q 3713 922 3314 415 
Q 2916 -91 2278 -91 
Q 1894 -91 1617 61 
Q 1341 213 1159 525 
L 1159 0 
L 581 0 
L 581 4863 
L 1159 4863 
L 1159 2969 
z
" id="DejaVuSans-62" transform="scale(0.015625)"/>
      <path d="M 1959 3097 
Q 1497 3097 1228 2736 
Q 959 2375 959 1747 
Q 959 1119 1226 758 
Q 1494 397 1959 397 
Q 2419 397 2687 759 
Q 2956 1122 2956 1747 
Q 2956 2369 2687 2733 
Q 2419 3097 1959 3097 
z
M 1959 3584 
Q 2709 3584 3137 3096 
Q 3566 2609 3566 1747 
Q 3566 888 3137 398 
Q 2709 -91 1959 -91 
Q 1206 -91 779 398 
Q 353 888 353 1747 
Q 353 2609 779 3096 
Q 1206 3584 1959 3584 
z
" id="DejaVuSans-6f" transform="scale(0.015625)"/>
      <path id="DejaVuSans-20" transform="scale(0.015625)"/>
      <path d="M 603 3500 
L 1178 3500 
L 1178 0 
L 603 0 
L 603 3500 
z
M 603 4863 
L 1178 4863 
L 1178 4134 
L 603 4134 
L 603 4863 
z
" id="DejaVuSans-69" transform="scale(0.015625)"/>
      <path d="M 3513 2113 
L 3513 0 
L 2938 0 
L 2938 2094 
Q 2938 2591 2744 2837 
Q 2550 3084 2163 3084 
Q 1697 3084 1428 2787 
Q 1159 2491 1159 1978 
L 1159 0 
L 581 0 
L 581 3500 
L 1159 3500 
L 1159 2956 
Q 1366 3272 1645 3428 
Q 1925 3584 2291 3584 
Q 2894 3584 3203 3211 
Q 3513 2838 3513 2113 
z
" id="DejaVuSans-6e" transform="scale(0.015625)"/>
      <path d="M 2834 3397 
L 2834 2853 
Q 2591 2978 2328 3040 
Q 2066 3103 1784 3103 
Q 1356 3103 1142 2972 
Q 928 2841 928 2578 
Q 928 2378 1081 2264 
Q 1234 2150 1697 2047 
L 1894 2003 
Q 2506 1872 2764 1633 
Q 3022 1394 3022 966 
Q 3022 478 2636 193 
Q 2250 -91 1575 -91 
Q 1294 -91 989 -36 
Q 684 19 347 128 
L 347 722 
Q 666 556 975 473 
Q 1284 391 1588 391 
Q 1994 391 2212 530 
Q 2431 669 2431 922 
Q 2431 1156 2273 1281 
Q 2116 1406 1581 1522 
L 1381 1569 
Q 847 1681 609 1914 
Q 372 2147 372 2553 
Q 372 3047 722 3315 
Q 1072 3584 1716 3584 
Q 2034 3584 2315 3537 
Q 2597 3491 2834 3397 
z
" id="DejaVuSans-73" transform="scale(0.015625)"/>
      <path d="M 1172 4494 
L 1172 3500 
L 2356 3500 
L 2356 3053 
L 1172 3053 
L 1172 1153 
Q 1172 725 1289 603 
Q 1406 481 1766 481 
L 2356 481 
L 2356 0 
L 1766 0 
Q 1100 0 847 248 
Q 594 497 594 1153 
L 594 3053 
L 172 3053 
L 172 3500 
L 594 3500 
L 594 4494 
L 1172 4494 
z
" id="DejaVuSans-74" transform="scale(0.015625)"/>
     </defs>
     <use xlink:href="#DejaVuSans-62"/>
     <use x="63.476562" xlink:href="#DejaVuSans-65"/>
     <use x="125" xlink:href="#DejaVuSans-66"/>
     <use x="160.205078" xlink:href="#DejaVuSans-6f"/>
     <use x="221.386719" xlink:href="#DejaVuSans-72"/>
     <use x="260.25" xlink:href="#DejaVuSans-65"/>
     <use x="321.773438" xlink:href="#DejaVuSans-20"/>
     <use x="353.560547" xlink:href="#DejaVuSans-62"/>
     <use x="417.037109" xlink:href="#DejaVuSans-69"/>
     <use x="444.820312" xlink:href="#DejaVuSans-6e"/>
     <use x="508.199219" xlink:href="#DejaVuSans-61"/>
     <use x="569.478516" xlink:href="#DejaVuSans-72"/>
     <use x="610.591797" xlink:href="#DejaVuSans-69"/>
     <use x="638.375" xlink:href="#DejaVuSans-73"/>
     <use x="690.474609" xlink:href="#DejaVuSans-61"/>
     <use x="751.753906" xlink:href="#DejaVuSans-74"/>
     <use x="790.962891" xlink:href="#DejaVuSans-69"/>
     <use x="818.746094" xlink:href="#DejaVuSans-6f"/>
     <use x="879.927734" xlink:href="#DejaVuSans-6e"/>
    </g>
   </g>
  </g>
  <g id="axes_2">
   <g id="patch_7">
    <path d="M 43.78125 1264.318125 
L 1717.78125 1264.318125 
L 1717.78125 699.77267 
L 43.78125 699.77267 
z
" style="fill:#ffffff;"/>
   </g>
   <g id="matplotlib.axis_3">
    <g id="xtick_8">
     <g id="line2d_16">
      <g>
       <use style="stroke:#000000;stroke-width:0.8;" x="119.872159" xlink:href="#m4dc5d3592b" y="1264.318125"/>
      </g>
     </g>
     <g id="text_18">
      <!-- 0 -->
      <g transform="translate(116.690909 1278.916563)scale(0.1 -0.1)">
       <use xlink:href="#DejaVuSans-30"/>
      </g>
     </g>
    </g>
    <g id="xtick_9">
     <g id="line2d_17">
      <g>
       <use style="stroke:#000000;stroke-width:0.8;" x="367.523613" xlink:href="#m4dc5d3592b" y="1264.318125"/>
      </g>
     </g>
     <g id="text_19">
      <!-- 200 -->
      <g transform="translate(357.979863 1278.916563)scale(0.1 -0.1)">
       <use xlink:href="#DejaVuSans-32"/>
       <use x="63.623047" xlink:href="#DejaVuSans-30"/>
       <use x="127.246094" xlink:href="#DejaVuSans-30"/>
      </g>
     </g>
    </g>
    <g id="xtick_10">
     <g id="line2d_18">
      <g>
       <use style="stroke:#000000;stroke-width:0.8;" x="615.175066" xlink:href="#m4dc5d3592b" y="1264.318125"/>
      </g>
     </g>
     <g id="text_20">
      <!-- 400 -->
      <g transform="translate(605.631316 1278.916563)scale(0.1 -0.1)">
       <use xlink:href="#DejaVuSans-34"/>
       <use x="63.623047" xlink:href="#DejaVuSans-30"/>
       <use x="127.246094" xlink:href="#DejaVuSans-30"/>
      </g>
     </g>
    </g>
    <g id="xtick_11">
     <g id="line2d_19">
      <g>
       <use style="stroke:#000000;stroke-width:0.8;" x="862.82652" xlink:href="#m4dc5d3592b" y="1264.318125"/>
      </g>
     </g>
     <g id="text_21">
      <!-- 600 -->
      <g transform="translate(853.28277 1278.916563)scale(0.1 -0.1)">
       <use xlink:href="#DejaVuSans-36"/>
       <use x="63.623047" xlink:href="#DejaVuSans-30"/>
       <use x="127.246094" xlink:href="#DejaVuSans-30"/>
      </g>
     </g>
    </g>
    <g id="xtick_12">
     <g id="line2d_20">
      <g>
       <use style="stroke:#000000;stroke-width:0.8;" x="1110.477973" xlink:href="#m4dc5d3592b" y="1264.318125"/>
      </g>
     </g>
     <g id="text_22">
      <!-- 800 -->
      <g transform="translate(1100.934223 1278.916563)scale(0.1 -0.1)">
       <use xlink:href="#DejaVuSans-38"/>
       <use x="63.623047" xlink:href="#DejaVuSans-30"/>
       <use x="127.246094" xlink:href="#DejaVuSans-30"/>
      </g>
     </g>
    </g>
    <g id="xtick_13">
     <g id="line2d_21">
      <g>
       <use style="stroke:#000000;stroke-width:0.8;" x="1358.129427" xlink:href="#m4dc5d3592b" y="1264.318125"/>
      </g>
     </g>
     <g id="text_23">
      <!-- 1000 -->
      <g transform="translate(1345.404427 1278.916563)scale(0.1 -0.1)">
       <use xlink:href="#DejaVuSans-31"/>
       <use x="63.623047" xlink:href="#DejaVuSans-30"/>
       <use x="127.246094" xlink:href="#DejaVuSans-30"/>
       <use x="190.869141" xlink:href="#DejaVuSans-30"/>
      </g>
     </g>
    </g>
    <g id="xtick_14">
     <g id="line2d_22">
      <g>
       <use style="stroke:#000000;stroke-width:0.8;" x="1605.78088" xlink:href="#m4dc5d3592b" y="1264.318125"/>
      </g>
     </g>
     <g id="text_24">
      <!-- 1200 -->
      <g transform="translate(1593.05588 1278.916563)scale(0.1 -0.1)">
       <use xlink:href="#DejaVuSans-31"/>
       <use x="63.623047" xlink:href="#DejaVuSans-32"/>
       <use x="127.246094" xlink:href="#DejaVuSans-30"/>
       <use x="190.869141" xlink:href="#DejaVuSans-30"/>
      </g>
     </g>
    </g>
    <g id="text_25">
     <!-- frame -->
     <g transform="translate(865.954687 1292.594688)scale(0.1 -0.1)">
      <use xlink:href="#DejaVuSans-66"/>
      <use x="35.205078" xlink:href="#DejaVuSans-72"/>
      <use x="76.318359" xlink:href="#DejaVuSans-61"/>
      <use x="137.597656" xlink:href="#DejaVuSans-6d"/>
      <use x="235.009766" xlink:href="#DejaVuSans-65"/>
     </g>
    </g>
   </g>
   <g id="matplotlib.axis_4">
    <g id="ytick_8">
     <g id="line2d_23">
      <g>
       <use style="stroke:#000000;stroke-width:0.8;" x="43.78125" xlink:href="#m480936232d" y="1238.656968"/>
      </g>
     </g>
     <g id="text_26">
      <!-- 0.0 -->
      <g transform="translate(20.878125 1242.456187)scale(0.1 -0.1)">
       <use xlink:href="#DejaVuSans-30"/>
       <use x="63.623047" xlink:href="#DejaVuSans-2e"/>
       <use x="95.410156" xlink:href="#DejaVuSans-30"/>
      </g>
     </g>
    </g>
    <g id="ytick_9">
     <g id="line2d_24">
      <g>
       <use style="stroke:#000000;stroke-width:0.8;" x="43.78125" xlink:href="#m480936232d" y="1136.01234"/>
      </g>
     </g>
     <g id="text_27">
      <!-- 0.2 -->
      <g transform="translate(20.878125 1139.811559)scale(0.1 -0.1)">
       <use xlink:href="#DejaVuSans-30"/>
       <use x="63.623047" xlink:href="#DejaVuSans-2e"/>
       <use x="95.410156" xlink:href="#DejaVuSans-32"/>
      </g>
     </g>
    </g>
    <g id="ytick_10">
     <g id="line2d_25">
      <g>
       <use style="stroke:#000000;stroke-width:0.8;" x="43.78125" xlink:href="#m480936232d" y="1033.367712"/>
      </g>
     </g>
     <g id="text_28">
      <!-- 0.4 -->
      <g transform="translate(20.878125 1037.166931)scale(0.1 -0.1)">
       <use xlink:href="#DejaVuSans-30"/>
       <use x="63.623047" xlink:href="#DejaVuSans-2e"/>
       <use x="95.410156" xlink:href="#DejaVuSans-34"/>
      </g>
     </g>
    </g>
    <g id="ytick_11">
     <g id="line2d_26">
      <g>
       <use style="stroke:#000000;stroke-width:0.8;" x="43.78125" xlink:href="#m480936232d" y="930.723084"/>
      </g>
     </g>
     <g id="text_29">
      <!-- 0.6 -->
      <g transform="translate(20.878125 934.522302)scale(0.1 -0.1)">
       <use xlink:href="#DejaVuSans-30"/>
       <use x="63.623047" xlink:href="#DejaVuSans-2e"/>
       <use x="95.410156" xlink:href="#DejaVuSans-36"/>
      </g>
     </g>
    </g>
    <g id="ytick_12">
     <g id="line2d_27">
      <g>
       <use style="stroke:#000000;stroke-width:0.8;" x="43.78125" xlink:href="#m480936232d" y="828.078456"/>
      </g>
     </g>
     <g id="text_30">
      <!-- 0.8 -->
      <g transform="translate(20.878125 831.877674)scale(0.1 -0.1)">
       <use xlink:href="#DejaVuSans-30"/>
       <use x="63.623047" xlink:href="#DejaVuSans-2e"/>
       <use x="95.410156" xlink:href="#DejaVuSans-38"/>
      </g>
     </g>
    </g>
    <g id="ytick_13">
     <g id="line2d_28">
      <g>
       <use style="stroke:#000000;stroke-width:0.8;" x="43.78125" xlink:href="#m480936232d" y="725.433827"/>
      </g>
     </g>
     <g id="text_31">
      <!-- 1.0 -->
      <g transform="translate(20.878125 729.233046)scale(0.1 -0.1)">
       <use xlink:href="#DejaVuSans-31"/>
       <use x="63.623047" xlink:href="#DejaVuSans-2e"/>
       <use x="95.410156" xlink:href="#DejaVuSans-30"/>
      </g>
     </g>
    </g>
    <g id="text_32">
     <!-- GCaMP -->
     <g transform="translate(14.798437 999.803991)rotate(-90)scale(0.1 -0.1)">
      <use xlink:href="#DejaVuSans-47"/>
      <use x="77.490234" xlink:href="#DejaVuSans-43"/>
      <use x="147.314453" xlink:href="#DejaVuSans-61"/>
      <use x="208.59375" xlink:href="#DejaVuSans-4d"/>
      <use x="294.873047" xlink:href="#DejaVuSans-50"/>
     </g>
    </g>
   </g>
   <g id="line2d_29">
    <path clip-path="url(#p6a23d57cdf)" d="M 119.872159 1238.656968 
L 293.228177 1238.656968 
L 294.466434 725.433827 
L 396.00353 725.433827 
L 397.241787 1238.656968 
L 979.222703 1238.656968 
L 980.46096 725.433827 
L 1000.273076 725.433827 
L 1001.511334 1238.656968 
L 1077.045027 1238.656968 
L 1078.283284 725.433827 
L 1084.474571 725.433827 
L 1085.712828 1238.656968 
L 1088.189342 1238.656968 
L 1089.4276 725.433827 
L 1145.149177 725.433827 
L 1146.387434 1238.656968 
L 1148.863948 1238.656968 
L 1150.102206 725.433827 
L 1156.293492 725.433827 
L 1157.531749 1238.656968 
L 1488.14644 1238.656968 
L 1489.384697 725.433827 
L 1493.099469 725.433827 
L 1494.337726 1238.656968 
L 1500.529012 1238.656968 
L 1501.76727 725.433827 
L 1509.196813 725.433827 
L 1510.435071 1238.656968 
L 1517.864614 1238.656968 
L 1519.102871 725.433827 
L 1525.294158 725.433827 
L 1526.532415 1238.656968 
L 1641.690341 1238.656968 
L 1641.690341 1238.656968 
" style="fill:none;stroke:#008000;stroke-linecap:square;stroke-width:1.5;"/>
   </g>
   <g id="patch_8">
    <path d="M 43.78125 1264.318125 
L 43.78125 699.77267 
" style="fill:none;stroke:#000000;stroke-linecap:square;stroke-linejoin:miter;stroke-width:0.8;"/>
   </g>
   <g id="patch_9">
    <path d="M 1717.78125 1264.318125 
L 1717.78125 699.77267 
" style="fill:none;stroke:#000000;stroke-linecap:square;stroke-linejoin:miter;stroke-width:0.8;"/>
   </g>
   <g id="patch_10">
    <path d="M 43.78125 1264.318125 
L 1717.78125 1264.318125 
" style="fill:none;stroke:#000000;stroke-linecap:square;stroke-linejoin:miter;stroke-width:0.8;"/>
   </g>
   <g id="patch_11">
    <path d="M 43.78125 699.77267 
L 1717.78125 699.77267 
" style="fill:none;stroke:#000000;stroke-linecap:square;stroke-linejoin:miter;stroke-width:0.8;"/>
   </g>
   <g id="text_33">
    <!-- before binarisation -->
    <g transform="translate(824.1825 693.77267)scale(0.12 -0.12)">
     <use xlink:href="#DejaVuSans-62"/>
     <use x="63.476562" xlink:href="#DejaVuSans-65"/>
     <use x="125" xlink:href="#DejaVuSans-66"/>
     <use x="160.205078" xlink:href="#DejaVuSans-6f"/>
     <use x="221.386719" xlink:href="#DejaVuSans-72"/>
     <use x="260.25" xlink:href="#DejaVuSans-65"/>
     <use x="321.773438" xlink:href="#DejaVuSans-20"/>
     <use x="353.560547" xlink:href="#DejaVuSans-62"/>
     <use x="417.037109" xlink:href="#DejaVuSans-69"/>
     <use x="444.820312" xlink:href="#DejaVuSans-6e"/>
     <use x="508.199219" xlink:href="#DejaVuSans-61"/>
     <use x="569.478516" xlink:href="#DejaVuSans-72"/>
     <use x="610.591797" xlink:href="#DejaVuSans-69"/>
     <use x="638.375" xlink:href="#DejaVuSans-73"/>
     <use x="690.474609" xlink:href="#DejaVuSans-61"/>
     <use x="751.753906" xlink:href="#DejaVuSans-74"/>
     <use x="790.962891" xlink:href="#DejaVuSans-69"/>
     <use x="818.746094" xlink:href="#DejaVuSans-6f"/>
     <use x="879.927734" xlink:href="#DejaVuSans-6e"/>
    </g>
   </g>
  </g>
 </g>
 <defs>
  <clipPath id="pc6dd12c46c">
   <rect height="564.545455" width="1674" x="43.78125" y="22.318125"/>
  </clipPath>
  <clipPath id="p6a23d57cdf">
   <rect height="564.545455" width="1674" x="43.78125" y="699.77267"/>
  </clipPath>
 </defs>
</svg>
