<?xml version="1.0" encoding="utf-8" standalone="no"?>
<!DOCTYPE svg PUBLIC "-//W3C//DTD SVG 1.1//EN"
  "http://www.w3.org/Graphics/SVG/1.1/DTD/svg11.dtd">
<svg height="1301.874375pt" version="1.1" viewBox="0 0 1724.98125 1301.874375" width="1724.98125pt" xmlns="http://www.w3.org/2000/svg" xmlns:xlink="http://www.w3.org/1999/xlink">
 <metadata>
  <rdf:RDF xmlns:cc="http://creativecommons.org/ns#" xmlns:dc="http://purl.org/dc/elements/1.1/" xmlns:rdf="http://www.w3.org/1999/02/22-rdf-syntax-ns#">
   <cc:Work>
    <dc:type rdf:resource="http://purl.org/dc/dcmitype/StillImage"/>
    <dc:date>2022-07-24T15:54:36.367066</dc:date>
    <dc:format>image/svg+xml</dc:format>
    <dc:creator>
     <cc:Agent>
      <dc:title>Matplotlib v3.4.2, https://matplotlib.org/</dc:title>
     </cc:Agent>
    </dc:creator>
   </cc:Work>
  </rdf:RDF>
 </metadata>
 <defs>
  <style type="text/css">*{stroke-linecap:butt;stroke-linejoin:round;}</style>
 </defs>
 <g id="figure_1">
  <g id="patch_1">
   <path d="M 0 1301.874375 
L 1724.98125 1301.874375 
L 1724.98125 0 
L 0 0 
z
" style="fill:#ffffff;"/>
  </g>
  <g id="axes_1">
   <g id="patch_2">
    <path d="M 43.78125 586.86358 
L 1717.78125 586.86358 
L 1717.78125 22.318125 
L 43.78125 22.318125 
z
" style="fill:#ffffff;"/>
   </g>
   <g id="matplotlib.axis_1">
    <g id="xtick_1">
     <g id="line2d_1">
      <defs>
       <path d="M 0 0 
L 0 3.5 
" id="me7c9893ead" style="stroke:#000000;stroke-width:0.8;"/>
      </defs>
      <g>
       <use style="stroke:#000000;stroke-width:0.8;" x="119.872159" xlink:href="#me7c9893ead" y="586.86358"/>
      </g>
     </g>
     <g id="text_1">
      <!-- 0 -->
      <g transform="translate(116.690909 601.462017)scale(0.1 -0.1)">
       <defs>
        <path d="M 2034 4250 
Q 1547 4250 1301 3770 
Q 1056 3291 1056 2328 
Q 1056 1369 1301 889 
Q 1547 409 2034 409 
Q 2525 409 2770 889 
Q 3016 1369 3016 2328 
Q 3016 3291 2770 3770 
Q 2525 4250 2034 4250 
z
M 2034 4750 
Q 2819 4750 3233 4129 
Q 3647 3509 3647 2328 
Q 3647 1150 3233 529 
Q 2819 -91 2034 -91 
Q 1250 -91 836 529 
Q 422 1150 422 2328 
Q 422 3509 836 4129 
Q 1250 4750 2034 4750 
z
" id="DejaVuSans-30" transform="scale(0.015625)"/>
       </defs>
       <use xlink:href="#DejaVuSans-30"/>
      </g>
     </g>
    </g>
    <g id="xtick_2">
     <g id="line2d_2">
      <g>
       <use style="stroke:#000000;stroke-width:0.8;" x="367.523613" xlink:href="#me7c9893ead" y="586.86358"/>
      </g>
     </g>
     <g id="text_2">
      <!-- 200 -->
      <g transform="translate(357.979863 601.462017)scale(0.1 -0.1)">
       <defs>
        <path d="M 1228 531 
L 3431 531 
L 3431 0 
L 469 0 
L 469 531 
Q 828 903 1448 1529 
Q 2069 2156 2228 2338 
Q 2531 2678 2651 2914 
Q 2772 3150 2772 3378 
Q 2772 3750 2511 3984 
Q 2250 4219 1831 4219 
Q 1534 4219 1204 4116 
Q 875 4013 500 3803 
L 500 4441 
Q 881 4594 1212 4672 
Q 1544 4750 1819 4750 
Q 2544 4750 2975 4387 
Q 3406 4025 3406 3419 
Q 3406 3131 3298 2873 
Q 3191 2616 2906 2266 
Q 2828 2175 2409 1742 
Q 1991 1309 1228 531 
z
" id="DejaVuSans-32" transform="scale(0.015625)"/>
       </defs>
       <use xlink:href="#DejaVuSans-32"/>
       <use x="63.623047" xlink:href="#DejaVuSans-30"/>
       <use x="127.246094" xlink:href="#DejaVuSans-30"/>
      </g>
     </g>
    </g>
    <g id="xtick_3">
     <g id="line2d_3">
      <g>
       <use style="stroke:#000000;stroke-width:0.8;" x="615.175066" xlink:href="#me7c9893ead" y="586.86358"/>
      </g>
     </g>
     <g id="text_3">
      <!-- 400 -->
      <g transform="translate(605.631316 601.462017)scale(0.1 -0.1)">
       <defs>
        <path d="M 2419 4116 
L 825 1625 
L 2419 1625 
L 2419 4116 
z
M 2253 4666 
L 3047 4666 
L 3047 1625 
L 3713 1625 
L 3713 1100 
L 3047 1100 
L 3047 0 
L 2419 0 
L 2419 1100 
L 313 1100 
L 313 1709 
L 2253 4666 
z
" id="DejaVuSans-34" transform="scale(0.015625)"/>
       </defs>
       <use xlink:href="#DejaVuSans-34"/>
       <use x="63.623047" xlink:href="#DejaVuSans-30"/>
       <use x="127.246094" xlink:href="#DejaVuSans-30"/>
      </g>
     </g>
    </g>
    <g id="xtick_4">
     <g id="line2d_4">
      <g>
       <use style="stroke:#000000;stroke-width:0.8;" x="862.82652" xlink:href="#me7c9893ead" y="586.86358"/>
      </g>
     </g>
     <g id="text_4">
      <!-- 600 -->
      <g transform="translate(853.28277 601.462017)scale(0.1 -0.1)">
       <defs>
        <path d="M 2113 2584 
Q 1688 2584 1439 2293 
Q 1191 2003 1191 1497 
Q 1191 994 1439 701 
Q 1688 409 2113 409 
Q 2538 409 2786 701 
Q 3034 994 3034 1497 
Q 3034 2003 2786 2293 
Q 2538 2584 2113 2584 
z
M 3366 4563 
L 3366 3988 
Q 3128 4100 2886 4159 
Q 2644 4219 2406 4219 
Q 1781 4219 1451 3797 
Q 1122 3375 1075 2522 
Q 1259 2794 1537 2939 
Q 1816 3084 2150 3084 
Q 2853 3084 3261 2657 
Q 3669 2231 3669 1497 
Q 3669 778 3244 343 
Q 2819 -91 2113 -91 
Q 1303 -91 875 529 
Q 447 1150 447 2328 
Q 447 3434 972 4092 
Q 1497 4750 2381 4750 
Q 2619 4750 2861 4703 
Q 3103 4656 3366 4563 
z
" id="DejaVuSans-36" transform="scale(0.015625)"/>
       </defs>
       <use xlink:href="#DejaVuSans-36"/>
       <use x="63.623047" xlink:href="#DejaVuSans-30"/>
       <use x="127.246094" xlink:href="#DejaVuSans-30"/>
      </g>
     </g>
    </g>
    <g id="xtick_5">
     <g id="line2d_5">
      <g>
       <use style="stroke:#000000;stroke-width:0.8;" x="1110.477973" xlink:href="#me7c9893ead" y="586.86358"/>
      </g>
     </g>
     <g id="text_5">
      <!-- 800 -->
      <g transform="translate(1100.934223 601.462017)scale(0.1 -0.1)">
       <defs>
        <path d="M 2034 2216 
Q 1584 2216 1326 1975 
Q 1069 1734 1069 1313 
Q 1069 891 1326 650 
Q 1584 409 2034 409 
Q 2484 409 2743 651 
Q 3003 894 3003 1313 
Q 3003 1734 2745 1975 
Q 2488 2216 2034 2216 
z
M 1403 2484 
Q 997 2584 770 2862 
Q 544 3141 544 3541 
Q 544 4100 942 4425 
Q 1341 4750 2034 4750 
Q 2731 4750 3128 4425 
Q 3525 4100 3525 3541 
Q 3525 3141 3298 2862 
Q 3072 2584 2669 2484 
Q 3125 2378 3379 2068 
Q 3634 1759 3634 1313 
Q 3634 634 3220 271 
Q 2806 -91 2034 -91 
Q 1263 -91 848 271 
Q 434 634 434 1313 
Q 434 1759 690 2068 
Q 947 2378 1403 2484 
z
M 1172 3481 
Q 1172 3119 1398 2916 
Q 1625 2713 2034 2713 
Q 2441 2713 2670 2916 
Q 2900 3119 2900 3481 
Q 2900 3844 2670 4047 
Q 2441 4250 2034 4250 
Q 1625 4250 1398 4047 
Q 1172 3844 1172 3481 
z
" id="DejaVuSans-38" transform="scale(0.015625)"/>
       </defs>
       <use xlink:href="#DejaVuSans-38"/>
       <use x="63.623047" xlink:href="#DejaVuSans-30"/>
       <use x="127.246094" xlink:href="#DejaVuSans-30"/>
      </g>
     </g>
    </g>
    <g id="xtick_6">
     <g id="line2d_6">
      <g>
       <use style="stroke:#000000;stroke-width:0.8;" x="1358.129427" xlink:href="#me7c9893ead" y="586.86358"/>
      </g>
     </g>
     <g id="text_6">
      <!-- 1000 -->
      <g transform="translate(1345.404427 601.462017)scale(0.1 -0.1)">
       <defs>
        <path d="M 794 531 
L 1825 531 
L 1825 4091 
L 703 3866 
L 703 4441 
L 1819 4666 
L 2450 4666 
L 2450 531 
L 3481 531 
L 3481 0 
L 794 0 
L 794 531 
z
" id="DejaVuSans-31" transform="scale(0.015625)"/>
       </defs>
       <use xlink:href="#DejaVuSans-31"/>
       <use x="63.623047" xlink:href="#DejaVuSans-30"/>
       <use x="127.246094" xlink:href="#DejaVuSans-30"/>
       <use x="190.869141" xlink:href="#DejaVuSans-30"/>
      </g>
     </g>
    </g>
    <g id="xtick_7">
     <g id="line2d_7">
      <g>
       <use style="stroke:#000000;stroke-width:0.8;" x="1605.78088" xlink:href="#me7c9893ead" y="586.86358"/>
      </g>
     </g>
     <g id="text_7">
      <!-- 1200 -->
      <g transform="translate(1593.05588 601.462017)scale(0.1 -0.1)">
       <use xlink:href="#DejaVuSans-31"/>
       <use x="63.623047" xlink:href="#DejaVuSans-32"/>
       <use x="127.246094" xlink:href="#DejaVuSans-30"/>
       <use x="190.869141" xlink:href="#DejaVuSans-30"/>
      </g>
     </g>
    </g>
    <g id="text_8">
     <!-- frame -->
     <g transform="translate(865.954687 615.140142)scale(0.1 -0.1)">
      <defs>
       <path d="M 2375 4863 
L 2375 4384 
L 1825 4384 
Q 1516 4384 1395 4259 
Q 1275 4134 1275 3809 
L 1275 3500 
L 2222 3500 
L 2222 3053 
L 1275 3053 
L 1275 0 
L 697 0 
L 697 3053 
L 147 3053 
L 147 3500 
L 697 3500 
L 697 3744 
Q 697 4328 969 4595 
Q 1241 4863 1831 4863 
L 2375 4863 
z
" id="DejaVuSans-66" transform="scale(0.015625)"/>
       <path d="M 2631 2963 
Q 2534 3019 2420 3045 
Q 2306 3072 2169 3072 
Q 1681 3072 1420 2755 
Q 1159 2438 1159 1844 
L 1159 0 
L 581 0 
L 581 3500 
L 1159 3500 
L 1159 2956 
Q 1341 3275 1631 3429 
Q 1922 3584 2338 3584 
Q 2397 3584 2469 3576 
Q 2541 3569 2628 3553 
L 2631 2963 
z
" id="DejaVuSans-72" transform="scale(0.015625)"/>
       <path d="M 2194 1759 
Q 1497 1759 1228 1600 
Q 959 1441 959 1056 
Q 959 750 1161 570 
Q 1363 391 1709 391 
Q 2188 391 2477 730 
Q 2766 1069 2766 1631 
L 2766 1759 
L 2194 1759 
z
M 3341 1997 
L 3341 0 
L 2766 0 
L 2766 531 
Q 2569 213 2275 61 
Q 1981 -91 1556 -91 
Q 1019 -91 701 211 
Q 384 513 384 1019 
Q 384 1609 779 1909 
Q 1175 2209 1959 2209 
L 2766 2209 
L 2766 2266 
Q 2766 2663 2505 2880 
Q 2244 3097 1772 3097 
Q 1472 3097 1187 3025 
Q 903 2953 641 2809 
L 641 3341 
Q 956 3463 1253 3523 
Q 1550 3584 1831 3584 
Q 2591 3584 2966 3190 
Q 3341 2797 3341 1997 
z
" id="DejaVuSans-61" transform="scale(0.015625)"/>
       <path d="M 3328 2828 
Q 3544 3216 3844 3400 
Q 4144 3584 4550 3584 
Q 5097 3584 5394 3201 
Q 5691 2819 5691 2113 
L 5691 0 
L 5113 0 
L 5113 2094 
Q 5113 2597 4934 2840 
Q 4756 3084 4391 3084 
Q 3944 3084 3684 2787 
Q 3425 2491 3425 1978 
L 3425 0 
L 2847 0 
L 2847 2094 
Q 2847 2600 2669 2842 
Q 2491 3084 2119 3084 
Q 1678 3084 1418 2786 
Q 1159 2488 1159 1978 
L 1159 0 
L 581 0 
L 581 3500 
L 1159 3500 
L 1159 2956 
Q 1356 3278 1631 3431 
Q 1906 3584 2284 3584 
Q 2666 3584 2933 3390 
Q 3200 3197 3328 2828 
z
" id="DejaVuSans-6d" transform="scale(0.015625)"/>
       <path d="M 3597 1894 
L 3597 1613 
L 953 1613 
Q 991 1019 1311 708 
Q 1631 397 2203 397 
Q 2534 397 2845 478 
Q 3156 559 3463 722 
L 3463 178 
Q 3153 47 2828 -22 
Q 2503 -91 2169 -91 
Q 1331 -91 842 396 
Q 353 884 353 1716 
Q 353 2575 817 3079 
Q 1281 3584 2069 3584 
Q 2775 3584 3186 3129 
Q 3597 2675 3597 1894 
z
M 3022 2063 
Q 3016 2534 2758 2815 
Q 2500 3097 2075 3097 
Q 1594 3097 1305 2825 
Q 1016 2553 972 2059 
L 3022 2063 
z
" id="DejaVuSans-65" transform="scale(0.015625)"/>
      </defs>
      <use xlink:href="#DejaVuSans-66"/>
      <use x="35.205078" xlink:href="#DejaVuSans-72"/>
      <use x="76.318359" xlink:href="#DejaVuSans-61"/>
      <use x="137.597656" xlink:href="#DejaVuSans-6d"/>
      <use x="235.009766" xlink:href="#DejaVuSans-65"/>
     </g>
    </g>
   </g>
   <g id="matplotlib.axis_2">
    <g id="ytick_1">
     <g id="line2d_8">
      <defs>
       <path d="M 0 0 
L -3.5 0 
" id="mbcb0645971" style="stroke:#000000;stroke-width:0.8;"/>
      </defs>
      <g>
       <use style="stroke:#000000;stroke-width:0.8;" x="43.78125" xlink:href="#mbcb0645971" y="486.363985"/>
      </g>
     </g>
     <g id="text_9">
      <!-- 1.5 -->
      <g transform="translate(20.878125 490.163204)scale(0.1 -0.1)">
       <defs>
        <path d="M 684 794 
L 1344 794 
L 1344 0 
L 684 0 
L 684 794 
z
" id="DejaVuSans-2e" transform="scale(0.015625)"/>
        <path d="M 691 4666 
L 3169 4666 
L 3169 4134 
L 1269 4134 
L 1269 2991 
Q 1406 3038 1543 3061 
Q 1681 3084 1819 3084 
Q 2600 3084 3056 2656 
Q 3513 2228 3513 1497 
Q 3513 744 3044 326 
Q 2575 -91 1722 -91 
Q 1428 -91 1123 -41 
Q 819 9 494 109 
L 494 744 
Q 775 591 1075 516 
Q 1375 441 1709 441 
Q 2250 441 2565 725 
Q 2881 1009 2881 1497 
Q 2881 1984 2565 2268 
Q 2250 2553 1709 2553 
Q 1456 2553 1204 2497 
Q 953 2441 691 2322 
L 691 4666 
z
" id="DejaVuSans-35" transform="scale(0.015625)"/>
       </defs>
       <use xlink:href="#DejaVuSans-31"/>
       <use x="63.623047" xlink:href="#DejaVuSans-2e"/>
       <use x="95.410156" xlink:href="#DejaVuSans-35"/>
      </g>
     </g>
    </g>
    <g id="ytick_2">
     <g id="line2d_9">
      <g>
       <use style="stroke:#000000;stroke-width:0.8;" x="43.78125" xlink:href="#mbcb0645971" y="376.472503"/>
      </g>
     </g>
     <g id="text_10">
      <!-- 2.0 -->
      <g transform="translate(20.878125 380.271721)scale(0.1 -0.1)">
       <use xlink:href="#DejaVuSans-32"/>
       <use x="63.623047" xlink:href="#DejaVuSans-2e"/>
       <use x="95.410156" xlink:href="#DejaVuSans-30"/>
      </g>
     </g>
    </g>
    <g id="ytick_3">
     <g id="line2d_10">
      <g>
       <use style="stroke:#000000;stroke-width:0.8;" x="43.78125" xlink:href="#mbcb0645971" y="266.58102"/>
      </g>
     </g>
     <g id="text_11">
      <!-- 2.5 -->
      <g transform="translate(20.878125 270.380239)scale(0.1 -0.1)">
       <use xlink:href="#DejaVuSans-32"/>
       <use x="63.623047" xlink:href="#DejaVuSans-2e"/>
       <use x="95.410156" xlink:href="#DejaVuSans-35"/>
      </g>
     </g>
    </g>
    <g id="ytick_4">
     <g id="line2d_11">
      <g>
       <use style="stroke:#000000;stroke-width:0.8;" x="43.78125" xlink:href="#mbcb0645971" y="156.689537"/>
      </g>
     </g>
     <g id="text_12">
      <!-- 3.0 -->
      <g transform="translate(20.878125 160.488756)scale(0.1 -0.1)">
       <defs>
        <path d="M 2597 2516 
Q 3050 2419 3304 2112 
Q 3559 1806 3559 1356 
Q 3559 666 3084 287 
Q 2609 -91 1734 -91 
Q 1441 -91 1130 -33 
Q 819 25 488 141 
L 488 750 
Q 750 597 1062 519 
Q 1375 441 1716 441 
Q 2309 441 2620 675 
Q 2931 909 2931 1356 
Q 2931 1769 2642 2001 
Q 2353 2234 1838 2234 
L 1294 2234 
L 1294 2753 
L 1863 2753 
Q 2328 2753 2575 2939 
Q 2822 3125 2822 3475 
Q 2822 3834 2567 4026 
Q 2313 4219 1838 4219 
Q 1578 4219 1281 4162 
Q 984 4106 628 3988 
L 628 4550 
Q 988 4650 1302 4700 
Q 1616 4750 1894 4750 
Q 2613 4750 3031 4423 
Q 3450 4097 3450 3541 
Q 3450 3153 3228 2886 
Q 3006 2619 2597 2516 
z
" id="DejaVuSans-33" transform="scale(0.015625)"/>
       </defs>
       <use xlink:href="#DejaVuSans-33"/>
       <use x="63.623047" xlink:href="#DejaVuSans-2e"/>
       <use x="95.410156" xlink:href="#DejaVuSans-30"/>
      </g>
     </g>
    </g>
    <g id="ytick_5">
     <g id="line2d_12">
      <g>
       <use style="stroke:#000000;stroke-width:0.8;" x="43.78125" xlink:href="#mbcb0645971" y="46.798055"/>
      </g>
     </g>
     <g id="text_13">
      <!-- 3.5 -->
      <g transform="translate(20.878125 50.597273)scale(0.1 -0.1)">
       <use xlink:href="#DejaVuSans-33"/>
       <use x="63.623047" xlink:href="#DejaVuSans-2e"/>
       <use x="95.410156" xlink:href="#DejaVuSans-35"/>
      </g>
     </g>
    </g>
    <g id="text_14">
     <!-- GCaMP -->
     <g transform="translate(14.798437 322.349446)rotate(-90)scale(0.1 -0.1)">
      <defs>
       <path d="M 3809 666 
L 3809 1919 
L 2778 1919 
L 2778 2438 
L 4434 2438 
L 4434 434 
Q 4069 175 3628 42 
Q 3188 -91 2688 -91 
Q 1594 -91 976 548 
Q 359 1188 359 2328 
Q 359 3472 976 4111 
Q 1594 4750 2688 4750 
Q 3144 4750 3555 4637 
Q 3966 4525 4313 4306 
L 4313 3634 
Q 3963 3931 3569 4081 
Q 3175 4231 2741 4231 
Q 1884 4231 1454 3753 
Q 1025 3275 1025 2328 
Q 1025 1384 1454 906 
Q 1884 428 2741 428 
Q 3075 428 3337 486 
Q 3600 544 3809 666 
z
" id="DejaVuSans-47" transform="scale(0.015625)"/>
       <path d="M 4122 4306 
L 4122 3641 
Q 3803 3938 3442 4084 
Q 3081 4231 2675 4231 
Q 1875 4231 1450 3742 
Q 1025 3253 1025 2328 
Q 1025 1406 1450 917 
Q 1875 428 2675 428 
Q 3081 428 3442 575 
Q 3803 722 4122 1019 
L 4122 359 
Q 3791 134 3420 21 
Q 3050 -91 2638 -91 
Q 1578 -91 968 557 
Q 359 1206 359 2328 
Q 359 3453 968 4101 
Q 1578 4750 2638 4750 
Q 3056 4750 3426 4639 
Q 3797 4528 4122 4306 
z
" id="DejaVuSans-43" transform="scale(0.015625)"/>
       <path d="M 628 4666 
L 1569 4666 
L 2759 1491 
L 3956 4666 
L 4897 4666 
L 4897 0 
L 4281 0 
L 4281 4097 
L 3078 897 
L 2444 897 
L 1241 4097 
L 1241 0 
L 628 0 
L 628 4666 
z
" id="DejaVuSans-4d" transform="scale(0.015625)"/>
       <path d="M 1259 4147 
L 1259 2394 
L 2053 2394 
Q 2494 2394 2734 2622 
Q 2975 2850 2975 3272 
Q 2975 3691 2734 3919 
Q 2494 4147 2053 4147 
L 1259 4147 
z
M 628 4666 
L 2053 4666 
Q 2838 4666 3239 4311 
Q 3641 3956 3641 3272 
Q 3641 2581 3239 2228 
Q 2838 1875 2053 1875 
L 1259 1875 
L 1259 0 
L 628 0 
L 628 4666 
z
" id="DejaVuSans-50" transform="scale(0.015625)"/>
      </defs>
      <use xlink:href="#DejaVuSans-47"/>
      <use x="77.490234" xlink:href="#DejaVuSans-43"/>
      <use x="147.314453" xlink:href="#DejaVuSans-61"/>
      <use x="208.59375" xlink:href="#DejaVuSans-4d"/>
      <use x="294.873047" xlink:href="#DejaVuSans-50"/>
     </g>
    </g>
   </g>
   <g id="line2d_13">
    <path clip-path="url(#pe8e8e9e5dc)" d="M 119.872159 496.625727 
L 121.110416 497.152304 
L 123.586931 498.682898 
L 124.825188 498.894744 
L 126.063445 498.596121 
L 127.301703 498.54489 
L 128.53996 499.51118 
L 129.778217 501.66172 
L 133.492989 510.374754 
L 134.731246 512.421073 
L 138.446018 517.465188 
L 140.922533 521.112728 
L 142.16079 522.639432 
L 143.399047 523.853662 
L 145.875562 525.944514 
L 147.113819 527.284942 
L 149.590334 530.490494 
L 150.828591 531.489261 
L 152.066848 531.786218 
L 153.305105 531.680033 
L 154.543363 531.689506 
L 155.78162 532.099601 
L 158.258134 533.506955 
L 159.496392 533.725624 
L 160.734649 533.066442 
L 163.211163 530.329683 
L 164.449421 529.567784 
L 165.687678 529.441661 
L 166.925935 529.893186 
L 168.164193 530.92078 
L 169.40245 532.184059 
L 170.640707 533.182103 
L 171.878964 533.901435 
L 173.117222 534.765534 
L 174.355479 536.13077 
L 175.593736 538.155712 
L 176.831993 540.834664 
L 178.070251 543.847821 
L 179.308508 546.465824 
L 180.546765 547.932903 
L 181.785022 548.1971 
L 184.261537 547.635472 
L 185.499794 547.627818 
L 186.738052 548.055296 
L 187.976309 549.109756 
L 190.452823 552.078594 
L 191.691081 552.670636 
L 192.929338 552.281303 
L 194.167595 550.856209 
L 195.405852 548.336631 
L 196.64411 545.141951 
L 197.882367 542.282834 
L 199.120624 540.750563 
L 200.358881 540.761243 
L 202.835396 542.424739 
L 205.311911 542.883914 
L 206.550168 543.705451 
L 207.788425 545.229115 
L 210.26494 548.604716 
L 211.503197 549.818187 
L 212.741454 550.376966 
L 213.979711 549.892381 
L 215.217969 548.343171 
L 216.456226 546.438738 
L 217.694483 545.187155 
L 218.93274 545.080078 
L 220.170998 545.665239 
L 221.409255 546.07867 
L 222.647512 545.955954 
L 223.88577 545.598177 
L 225.124027 545.577729 
L 226.362284 546.36479 
L 227.600541 548.032891 
L 228.838799 550.330844 
L 231.315313 555.688151 
L 232.55357 557.656052 
L 233.791828 558.249605 
L 235.030085 557.630973 
L 236.268342 556.754176 
L 237.5066 556.539139 
L 239.983114 557.518731 
L 241.221371 557.150244 
L 242.459629 555.857999 
L 246.1744 549.953828 
L 248.650915 547.002335 
L 249.889172 545.724348 
L 251.127429 545.003851 
L 252.365687 545.178556 
L 253.603944 546.164874 
L 256.080459 548.790639 
L 257.318716 549.735231 
L 258.556973 550.013568 
L 259.79523 549.284701 
L 262.271745 546.136629 
L 263.510002 545.756763 
L 264.748259 547.538241 
L 265.986517 551.392717 
L 267.224774 556.079188 
L 268.463031 559.796115 
L 269.701288 561.202423 
L 270.939546 560.195264 
L 272.177803 557.636491 
L 273.41606 554.741225 
L 274.654318 552.663865 
L 275.892575 551.873144 
L 277.130832 551.96448 
L 278.369089 552.281738 
L 279.607347 552.361096 
L 280.845604 551.918803 
L 282.083861 550.919228 
L 283.322118 549.599516 
L 284.560376 548.021752 
L 285.798633 545.782304 
L 288.275147 539.457207 
L 289.513405 537.290503 
L 290.751662 536.757011 
L 293.228177 537.885331 
L 294.466434 537.664762 
L 295.704691 536.694053 
L 296.942948 535.409261 
L 298.181206 534.43626 
L 299.419463 534.437942 
L 300.65772 535.566471 
L 301.895977 537.255899 
L 303.134235 538.706465 
L 305.610749 540.296604 
L 306.849006 541.712898 
L 308.087264 544.073833 
L 310.563778 549.807411 
L 311.802036 552.25608 
L 313.040293 554.377426 
L 314.27855 555.936645 
L 315.516807 556.289332 
L 316.755065 555.214589 
L 317.993322 553.206969 
L 319.231579 550.958703 
L 320.469836 549.18208 
L 321.708094 548.564146 
L 322.946351 549.246707 
L 324.184608 550.54697 
L 325.422866 551.474884 
L 326.661123 551.423654 
L 327.89938 550.429594 
L 331.614152 545.93381 
L 332.852409 544.408299 
L 334.090666 543.278208 
L 335.328924 543.235359 
L 336.567181 544.535589 
L 340.281953 550.773382 
L 341.52021 552.320725 
L 342.758467 553.275917 
L 343.996725 553.535994 
L 345.234982 553.132104 
L 348.949754 550.502367 
L 350.188011 549.848409 
L 351.426268 548.878227 
L 352.664525 547.701351 
L 353.902783 547.116273 
L 355.14104 547.777917 
L 357.617554 551.040025 
L 358.855812 552.2829 
L 361.332326 554.516791 
L 363.808841 557.396124 
L 365.047098 558.323238 
L 366.285355 558.248131 
L 367.523613 557.278382 
L 368.76187 555.931515 
L 370.000127 554.383135 
L 371.238384 552.499043 
L 373.714899 548.402373 
L 374.953156 546.761867 
L 377.429671 544.14633 
L 378.667928 542.571493 
L 379.906185 541.244887 
L 381.144443 540.71935 
L 383.620957 540.829145 
L 384.859214 540.385313 
L 386.097472 539.217908 
L 388.573986 535.475997 
L 389.812243 534.43763 
L 391.050501 535.022492 
L 392.288758 537.300567 
L 393.527015 540.508662 
L 394.765272 543.35894 
L 396.00353 544.813066 
L 397.241787 544.700297 
L 398.480044 543.373377 
L 399.718302 541.186315 
L 400.956559 538.641591 
L 402.194816 536.477438 
L 403.433073 535.322674 
L 404.671331 535.232925 
L 407.147845 535.900524 
L 409.62436 536.16998 
L 410.862617 536.17582 
L 412.100874 536.353654 
L 413.339132 537.070105 
L 415.815646 539.29268 
L 417.053903 539.691689 
L 418.292161 539.152685 
L 419.530418 537.50848 
L 420.768675 534.734099 
L 422.006932 531.343024 
L 423.24519 528.473586 
L 424.483447 527.128114 
L 425.721704 527.362908 
L 426.959961 528.454018 
L 428.198219 529.744512 
L 429.436476 531.197762 
L 431.912991 534.589999 
L 433.151248 535.500773 
L 434.389505 535.542965 
L 435.627762 535.133521 
L 436.86602 534.858191 
L 438.104277 535.111584 
L 439.342534 535.949192 
L 443.057306 539.429707 
L 444.295563 539.93599 
L 445.53382 539.631316 
L 446.772078 538.168917 
L 448.010335 535.505653 
L 449.248592 532.336291 
L 450.48685 529.685304 
L 451.725107 528.042807 
L 452.963364 527.383906 
L 454.201621 527.71935 
L 455.439879 529.130144 
L 456.678136 531.389385 
L 457.916393 533.915986 
L 459.15465 536.133337 
L 460.392908 537.57166 
L 461.631165 537.764299 
L 462.869422 536.356251 
L 464.107679 533.273503 
L 466.584194 524.398773 
L 467.822451 520.791197 
L 469.060709 519.177097 
L 470.298966 520.184783 
L 471.537223 523.661223 
L 474.013738 533.337272 
L 475.251995 536.95728 
L 476.490252 539.369282 
L 477.728509 540.91723 
L 478.966767 541.929113 
L 481.443281 543.519926 
L 482.681538 543.608191 
L 483.919796 542.457879 
L 485.158053 539.897043 
L 487.634568 533.09531 
L 488.872825 531.415346 
L 490.111082 531.796616 
L 491.349339 533.48016 
L 493.825854 537.418825 
L 495.064111 538.961833 
L 496.302368 539.729846 
L 497.540626 539.272491 
L 498.778883 537.165649 
L 500.01714 533.395541 
L 501.255397 528.8471 
L 502.493655 524.856063 
L 503.731912 522.190226 
L 504.970169 520.982862 
L 506.208427 521.186529 
L 508.684941 523.561025 
L 509.923198 524.097618 
L 511.161456 523.936079 
L 512.399713 523.34902 
L 513.63797 522.627513 
L 514.876227 522.275378 
L 516.114485 522.748187 
L 517.352742 523.646857 
L 518.590999 523.847729 
L 519.829257 522.865539 
L 521.067514 521.542356 
L 522.305771 520.978825 
L 524.782286 521.646702 
L 526.020543 521.258549 
L 527.2588 519.743069 
L 528.497057 517.217321 
L 529.735315 514.258954 
L 530.973572 511.799325 
L 532.211829 510.657234 
L 533.450086 510.993 
L 537.164858 514.628786 
L 538.403116 514.907007 
L 540.87963 514.288771 
L 542.117887 514.393593 
L 543.356145 514.755194 
L 544.594402 514.962441 
L 545.832659 514.58709 
L 548.309174 512.421914 
L 549.547431 511.756076 
L 552.023945 510.9556 
L 553.262203 510.070665 
L 554.50046 508.394614 
L 555.738717 505.724714 
L 556.976975 502.135649 
L 558.215232 498.058098 
L 559.453489 494.433607 
L 560.691746 492.586582 
L 561.930004 493.67979 
L 563.168261 498.094863 
L 565.644775 511.799504 
L 566.883033 516.381236 
L 568.12129 517.480294 
L 569.359547 515.75991 
L 573.074319 506.351851 
L 574.312576 503.960737 
L 575.550834 502.317119 
L 576.789091 501.219073 
L 578.027348 500.393816 
L 579.265605 499.418076 
L 580.503863 498.146968 
L 581.74212 497.460889 
L 582.980377 498.552694 
L 584.218634 501.445408 
L 585.456892 504.858398 
L 586.695149 507.260397 
L 587.933406 507.797219 
L 589.171663 506.510264 
L 590.409921 504.032309 
L 592.886435 498.515976 
L 594.124693 496.430386 
L 595.36295 495.432088 
L 596.601207 495.95154 
L 597.839464 497.699932 
L 599.077722 499.652458 
L 600.315979 500.854318 
L 601.554236 501.218159 
L 602.792493 501.241996 
L 604.030751 501.105374 
L 605.269008 500.653612 
L 607.745523 499.126499 
L 611.460294 496.489049 
L 612.698552 495.945149 
L 615.175066 495.301123 
L 616.413323 494.558198 
L 617.651581 493.290605 
L 618.889838 491.458555 
L 621.366352 487.141754 
L 622.60461 485.89375 
L 623.842867 485.503878 
L 625.081124 485.576424 
L 626.319382 485.85458 
L 627.557639 486.535865 
L 628.795896 487.82506 
L 630.034153 489.381847 
L 631.272411 490.548835 
L 632.510668 491.090429 
L 633.748925 491.476577 
L 634.987182 492.230354 
L 636.22544 493.294148 
L 637.463697 494.144367 
L 638.701954 494.17181 
L 639.940211 493.220456 
L 641.178469 491.648292 
L 642.416726 489.426546 
L 643.654983 486.153137 
L 644.893241 482.37454 
L 646.131498 479.506956 
L 647.369755 478.128578 
L 648.608012 477.330613 
L 649.84627 475.854471 
L 651.084527 473.418678 
L 654.799299 465.552802 
L 656.037556 462.165295 
L 659.752328 450.149616 
L 660.990585 445.77864 
L 662.228842 440.29384 
L 665.943614 420.512355 
L 667.181871 417.511828 
L 668.420129 417.346743 
L 669.658386 418.81006 
L 670.896643 420.634741 
L 672.1349 422.116863 
L 673.373158 422.81457 
L 674.611415 422.579834 
L 675.849672 421.696872 
L 677.087929 420.393483 
L 678.326187 418.874579 
L 679.564444 418.07207 
L 680.802701 419.201697 
L 682.040959 422.438154 
L 684.517473 430.714737 
L 685.75573 433.256481 
L 686.993988 434.348829 
L 688.232245 434.726764 
L 689.470502 434.923938 
L 691.947017 434.864129 
L 693.185274 435.160391 
L 694.423531 436.30714 
L 695.661789 438.424562 
L 696.900046 441.072758 
L 698.138303 443.179855 
L 699.37656 443.546662 
L 700.614818 441.626888 
L 701.853075 437.90401 
L 704.329589 429.504303 
L 705.567847 426.123412 
L 706.806104 423.762678 
L 708.044361 423.171555 
L 709.282618 424.461231 
L 710.520876 426.258609 
L 711.759133 426.828013 
L 712.99739 425.552771 
L 714.235648 422.616594 
L 715.473905 418.218913 
L 716.712162 412.997081 
L 717.950419 408.451291 
L 719.188677 406.244445 
L 720.426934 407.182096 
L 721.665191 410.644248 
L 724.141706 418.907313 
L 730.332992 436.282042 
L 731.571249 439.225017 
L 732.809507 441.820551 
L 734.047764 444.082552 
L 735.286021 445.568498 
L 736.524278 445.697604 
L 737.762536 444.454637 
L 739.000793 442.52982 
L 740.23905 440.913751 
L 741.477307 440.353616 
L 742.715565 440.784273 
L 743.953822 441.399033 
L 745.192079 441.638444 
L 746.430336 441.631589 
L 747.668594 441.353416 
L 748.906851 440.33547 
L 750.145108 438.636934 
L 751.383366 437.245983 
L 752.621623 437.16002 
L 753.85988 438.474203 
L 756.336395 442.683255 
L 757.574652 444.316507 
L 758.812909 445.171384 
L 761.289424 445.917352 
L 762.527681 446.498315 
L 763.765938 446.857956 
L 765.004195 446.778965 
L 766.242453 446.337814 
L 767.48071 445.452455 
L 768.718967 444.013368 
L 769.957225 442.324526 
L 771.195482 440.935771 
L 772.433739 440.228945 
L 773.671996 440.198057 
L 774.910254 440.549145 
L 776.148511 441.183634 
L 777.386768 442.404391 
L 778.625025 444.491002 
L 779.863283 447.091498 
L 781.10154 449.034503 
L 782.339797 448.978489 
L 783.578054 446.423684 
L 786.054569 437.804712 
L 787.292826 434.964392 
L 789.769341 432.255567 
L 791.007598 429.495609 
L 793.484113 421.923114 
L 794.72237 420.136343 
L 795.960627 420.881203 
L 797.198884 423.540002 
L 799.675399 430.498722 
L 800.913656 433.358351 
L 802.151914 435.039214 
L 803.390171 435.558571 
L 804.628428 435.260075 
L 808.3432 432.927793 
L 810.819714 431.922798 
L 812.057972 431.967137 
L 813.296229 433.003553 
L 814.534486 434.877588 
L 815.772743 436.521403 
L 817.011001 436.735814 
L 818.249258 435.252929 
L 819.487515 432.934553 
L 820.725773 431.224018 
L 821.96403 431.211158 
L 823.202287 432.714973 
L 825.678802 436.942427 
L 826.917059 439.384795 
L 829.393573 444.780015 
L 830.631831 446.611079 
L 831.870088 446.47055 
L 833.108345 443.721826 
L 834.346602 438.888913 
L 835.58486 433.449044 
L 836.823117 429.093301 
L 838.061374 426.932864 
L 839.299632 427.197978 
L 840.537889 429.345637 
L 843.014403 434.90722 
L 844.252661 436.890726 
L 845.490918 438.236789 
L 846.729175 438.791975 
L 847.967432 438.29693 
L 850.443947 435.554581 
L 851.682204 434.974417 
L 852.920461 435.785199 
L 854.158719 438.221776 
L 856.635233 445.454509 
L 857.873491 448.043499 
L 859.111748 449.015175 
L 860.350005 448.663805 
L 862.82652 447.336673 
L 864.064777 446.002868 
L 866.541291 441.45804 
L 867.779549 440.013687 
L 869.017806 439.673983 
L 870.256063 440.100101 
L 871.49432 440.685822 
L 873.970835 441.560921 
L 875.209092 441.887172 
L 876.44735 441.642418 
L 877.685607 440.423153 
L 878.923864 438.203354 
L 880.162121 435.554398 
L 881.400379 433.41077 
L 882.638636 431.925287 
L 883.876893 430.169644 
L 885.11515 427.771575 
L 886.353408 426.04867 
L 887.591665 426.659136 
L 890.06818 432.574953 
L 891.306437 434.064782 
L 892.544694 434.250895 
L 893.782951 435.111481 
L 895.021209 438.015438 
L 897.497723 446.507313 
L 898.73598 449.031957 
L 899.974238 449.31458 
L 901.212495 447.592922 
L 902.450752 444.436019 
L 906.165524 432.331961 
L 907.403781 430.345283 
L 908.642039 429.707956 
L 909.880296 429.593547 
L 911.118553 429.053522 
L 912.35681 427.87429 
L 913.595068 427.036995 
L 914.833325 427.672858 
L 916.071582 429.670889 
L 917.309839 431.898129 
L 918.548097 433.458329 
L 919.786354 434.284917 
L 921.024611 434.942394 
L 922.262868 436.086222 
L 923.501126 437.919547 
L 924.739383 440.140399 
L 925.97764 442.081897 
L 927.215898 442.83326 
L 928.454155 441.856333 
L 930.930669 437.292806 
L 932.168927 435.969523 
L 933.407184 436.515492 
L 934.645441 439.073309 
L 935.883698 442.519754 
L 937.121956 444.985682 
L 938.360213 445.260772 
L 940.836727 442.45507 
L 943.313242 441.171905 
L 944.551499 439.218522 
L 945.789757 435.682009 
L 948.266271 425.996663 
L 949.504528 422.558933 
L 950.742786 421.798037 
L 951.981043 423.300105 
L 953.2193 425.914688 
L 958.172329 437.666841 
L 959.410586 439.976016 
L 960.648844 441.104752 
L 961.887101 440.730102 
L 963.125358 438.891153 
L 965.601873 433.71753 
L 968.078387 429.418485 
L 969.316645 426.619391 
L 970.554902 423.290242 
L 971.793159 420.342499 
L 973.031416 419.320019 
L 974.269674 421.000398 
L 976.746188 427.689938 
L 977.984446 429.609015 
L 979.222703 429.739736 
L 980.46096 428.426037 
L 981.699217 426.585954 
L 982.937475 425.21703 
L 985.413989 424.093541 
L 986.652246 422.35402 
L 987.890504 419.811697 
L 989.128761 418.74963 
L 990.367018 420.800612 
L 991.605275 424.970157 
L 992.843533 428.562828 
L 994.08179 429.554354 
L 996.558305 426.935227 
L 997.796562 426.997491 
L 999.034819 427.755777 
L 1000.273076 427.281135 
L 1001.511334 424.847515 
L 1002.749591 421.717954 
L 1003.987848 419.709302 
L 1005.226105 419.529091 
L 1006.464363 420.296596 
L 1007.70262 420.503172 
L 1008.940877 419.372838 
L 1010.179134 417.010929 
L 1011.417392 413.774273 
L 1015.132164 402.602187 
L 1016.370421 397.872804 
L 1017.608678 391.143596 
L 1022.561707 356.77324 
L 1023.799964 349.912247 
L 1027.514736 331.573324 
L 1031.229508 309.527722 
L 1032.467765 304.139629 
L 1033.706023 299.543425 
L 1034.94428 296.301768 
L 1036.182537 295.559513 
L 1037.420794 297.209876 
L 1039.897309 302.358132 
L 1041.135566 304.077059 
L 1042.373823 304.949635 
L 1043.612081 305.292793 
L 1044.850338 306.097937 
L 1046.088595 308.365907 
L 1047.326852 312.100804 
L 1048.56511 316.305177 
L 1049.803367 319.81148 
L 1051.041624 321.932523 
L 1052.279882 322.632991 
L 1053.518139 322.387984 
L 1054.756396 321.678198 
L 1055.994653 320.465187 
L 1057.232911 318.451855 
L 1058.471168 316.141913 
L 1059.709425 315.138534 
L 1060.947682 316.681415 
L 1062.18594 320.272489 
L 1063.424197 324.314084 
L 1064.662454 327.6043 
L 1065.900711 329.807595 
L 1067.138969 330.717519 
L 1068.377226 329.782893 
L 1069.615483 327.284331 
L 1070.853741 325.082349 
L 1072.091998 324.861973 
L 1073.330255 326.608855 
L 1074.568512 329.383008 
L 1075.80677 332.815663 
L 1077.045027 337.594484 
L 1079.521541 350.658224 
L 1080.759799 354.889186 
L 1081.998056 355.475971 
L 1083.236313 352.949683 
L 1084.474571 349.241024 
L 1085.712828 346.77733 
L 1086.951085 346.815761 
L 1089.4276 350.194364 
L 1090.665857 350.426356 
L 1091.904114 348.636821 
L 1093.142371 344.736667 
L 1094.380629 338.90595 
L 1095.618886 331.350433 
L 1098.0954 314.461894 
L 1099.333658 308.135958 
L 1100.571915 303.970203 
L 1101.810172 301.214987 
L 1103.04843 298.991066 
L 1104.286687 296.504938 
L 1105.524944 293.048226 
L 1106.763201 288.243012 
L 1108.001459 282.119532 
L 1110.477973 267.796706 
L 1111.71623 261.471802 
L 1115.431002 245.482462 
L 1116.669259 241.550063 
L 1117.907517 239.265095 
L 1119.145774 238.25843 
L 1120.384031 238.137999 
L 1121.622289 238.857851 
L 1122.860546 240.017974 
L 1124.098803 240.350029 
L 1125.33706 238.95634 
L 1126.575318 236.320288 
L 1127.813575 233.1658 
L 1130.290089 225.823681 
L 1131.528347 223.079468 
L 1132.766604 222.456528 
L 1134.004861 224.607805 
L 1135.243118 229.659625 
L 1137.719633 244.40979 
L 1140.196148 258.452726 
L 1141.434405 264.146466 
L 1142.672662 268.202474 
L 1143.910919 270.403136 
L 1145.149177 270.958015 
L 1146.387434 270.123666 
L 1147.625691 268.042283 
L 1150.102206 261.802484 
L 1151.340463 259.517892 
L 1152.57872 258.944163 
L 1153.816977 259.935857 
L 1155.055235 261.516952 
L 1156.293492 262.692383 
L 1157.531749 262.895404 
L 1160.008264 261.432475 
L 1161.246521 261.444149 
L 1162.484778 261.929964 
L 1163.723036 261.977235 
L 1164.961293 261.006948 
L 1166.19955 258.871378 
L 1167.437807 255.650303 
L 1168.676065 251.847143 
L 1169.914322 248.429354 
L 1171.152579 246.229155 
L 1172.390837 245.349548 
L 1174.867351 244.980041 
L 1176.105608 244.89884 
L 1177.343866 245.344085 
L 1178.582123 246.363232 
L 1179.82038 247.800448 
L 1181.058637 249.521696 
L 1182.296895 250.56542 
L 1183.535152 249.190429 
L 1184.773409 244.994363 
L 1186.011666 239.997743 
L 1187.249924 236.788349 
L 1188.488181 236.407219 
L 1189.726438 238.211075 
L 1190.964696 240.792735 
L 1192.202953 242.607912 
L 1193.44121 242.421863 
L 1194.679467 240.407866 
L 1195.917725 238.703859 
L 1197.155982 239.710691 
L 1198.394239 244.097545 
L 1200.870754 257.110445 
L 1202.109011 261.36613 
L 1203.347268 262.108616 
L 1204.585525 259.417863 
L 1208.300297 246.27266 
L 1212.015069 234.116802 
L 1213.253326 230.53355 
L 1214.491584 228.011789 
L 1215.729841 227.103191 
L 1218.206355 227.833513 
L 1219.444613 227.309327 
L 1220.68287 225.629706 
L 1221.921127 222.623356 
L 1223.159384 218.254794 
L 1224.397642 212.792308 
L 1225.635899 206.472891 
L 1229.350671 185.562115 
L 1230.588928 178.111677 
L 1233.065443 161.503269 
L 1234.3037 154.524924 
L 1235.541957 149.639159 
L 1236.780214 145.673363 
L 1238.018472 140.434383 
L 1239.256729 133.486387 
L 1240.494986 127.443209 
L 1241.733243 126.02789 
L 1242.971501 130.638799 
L 1244.209758 138.613335 
L 1245.448015 145.092313 
L 1246.686273 146.589544 
L 1247.92453 142.493514 
L 1250.401044 125.922309 
L 1251.639302 121.160477 
L 1252.877559 121.81369 
L 1254.115816 125.995155 
L 1255.354073 130.894271 
L 1256.592331 134.2809 
L 1257.830588 134.008291 
L 1259.068845 128.940076 
L 1262.783617 103.037201 
L 1264.021874 96.902452 
L 1265.260132 93.622747 
L 1266.498389 93.444152 
L 1268.974903 97.551497 
L 1270.213161 97.766242 
L 1271.451418 96.162858 
L 1272.689675 94.263236 
L 1273.927932 93.109001 
L 1275.16619 92.942672 
L 1276.404447 94.258185 
L 1277.642704 97.745159 
L 1280.119219 108.361409 
L 1281.357476 112.08212 
L 1282.595733 113.118624 
L 1283.833991 111.61597 
L 1285.072248 109.17779 
L 1286.310505 107.246956 
L 1287.548762 105.615547 
L 1290.025277 101.7565 
L 1291.263534 101.450685 
L 1292.501791 103.370863 
L 1293.740049 106.953417 
L 1294.978306 111.10707 
L 1296.216563 114.675816 
L 1297.454821 116.407632 
L 1298.693078 115.493749 
L 1299.931335 112.405048 
L 1301.169592 108.745849 
L 1302.40785 106.261673 
L 1303.646107 105.78983 
L 1304.884364 106.578023 
L 1306.122621 106.91955 
L 1307.360879 105.770776 
L 1308.599136 103.199202 
L 1311.07565 96.003054 
L 1312.313908 93.727337 
L 1313.552165 94.294477 
L 1314.790422 98.156654 
L 1316.02868 104.642647 
L 1317.266937 112.02253 
L 1318.505194 117.640507 
L 1319.743451 119.326913 
L 1320.981709 117.027891 
L 1323.458223 108.016684 
L 1324.69648 105.230024 
L 1325.934738 105.438805 
L 1327.172995 108.692916 
L 1328.411252 112.933155 
L 1329.649509 115.414626 
L 1330.887767 114.728259 
L 1332.126024 110.81269 
L 1334.602539 98.494611 
L 1335.840796 95.424086 
L 1337.079053 97.170537 
L 1339.555568 108.331387 
L 1340.793825 111.199563 
L 1342.032082 110.672919 
L 1343.270339 108.224253 
L 1346.985111 99.886828 
L 1349.461626 92.729042 
L 1350.699883 90.240534 
L 1351.93814 89.924852 
L 1354.414655 93.661266 
L 1355.652912 92.79074 
L 1356.891169 87.183319 
L 1359.367684 67.657958 
L 1360.605941 60.633297 
L 1361.844198 58.995356 
L 1363.082456 62.40732 
L 1364.320713 68.256894 
L 1365.55897 73.513077 
L 1366.797228 76.492226 
L 1368.035485 77.025489 
L 1369.273742 75.776258 
L 1371.750257 71.778195 
L 1372.988514 70.352031 
L 1374.226771 69.939448 
L 1375.465028 71.170446 
L 1376.703286 74.54128 
L 1377.941543 79.85992 
L 1379.1798 85.823776 
L 1380.418057 91.008886 
L 1382.894572 99.442378 
L 1385.371087 107.835051 
L 1387.847601 116.93863 
L 1389.085858 119.783365 
L 1390.324116 119.052978 
L 1391.562373 113.7807 
L 1392.80063 104.90635 
L 1394.038887 95.126407 
L 1395.277145 87.949081 
L 1396.515402 86.278239 
L 1397.753659 90.716723 
L 1400.230174 106.711236 
L 1401.468431 111.215535 
L 1402.706688 111.250487 
L 1403.944946 107.480085 
L 1405.183203 102.123734 
L 1406.42146 97.607344 
L 1407.659717 94.536977 
L 1410.136232 88.908091 
L 1411.374489 87.384959 
L 1412.612746 88.754799 
L 1415.089261 95.850643 
L 1416.327518 98.588911 
L 1417.565775 99.662297 
L 1418.804033 98.398762 
L 1420.04229 95.349499 
L 1421.280547 91.46993 
L 1423.757062 82.577122 
L 1424.995319 80.756109 
L 1426.233576 82.69546 
L 1427.471834 87.526554 
L 1428.710091 93.393067 
L 1429.948348 98.40031 
L 1431.186605 100.86295 
L 1432.424863 99.776097 
L 1433.66312 96.043498 
L 1434.901377 92.672341 
L 1436.139634 92.130304 
L 1437.377892 94.058162 
L 1439.854406 99.541538 
L 1441.092664 102.665506 
L 1442.330921 105.239291 
L 1443.569178 105.525678 
L 1444.807435 103.2846 
L 1446.045693 100.525175 
L 1447.28395 99.178374 
L 1448.522207 98.921082 
L 1449.760464 97.885969 
L 1450.998722 94.984019 
L 1452.236979 91.024248 
L 1453.475236 87.912063 
L 1454.713494 87.233747 
L 1455.951751 89.615574 
L 1457.190008 94.725073 
L 1458.428265 100.887743 
L 1459.666523 105.591298 
L 1460.90478 107.635015 
L 1462.143037 107.613531 
L 1463.381294 105.789395 
L 1464.619552 101.457554 
L 1467.096066 88.108256 
L 1468.334323 82.773669 
L 1469.572581 78.989676 
L 1473.287353 68.97279 
L 1474.52561 68.008811 
L 1475.763867 69.377763 
L 1478.240382 74.478373 
L 1483.193411 85.79724 
L 1484.431668 86.972296 
L 1485.669925 85.674234 
L 1486.908182 80.707505 
L 1488.14644 71.9957 
L 1489.384697 61.811585 
L 1490.622954 53.574338 
L 1491.861212 49.127539 
L 1493.099469 47.979282 
L 1494.337726 48.776217 
L 1495.575983 50.723909 
L 1496.814241 53.982756 
L 1498.052498 59.07144 
L 1501.76727 78.953911 
L 1503.005527 83.486716 
L 1509.196813 101.072706 
L 1510.435071 106.144324 
L 1512.911585 119.394541 
L 1514.149842 123.90597 
L 1515.3881 125.356552 
L 1516.626357 124.319433 
L 1517.864614 122.332169 
L 1520.341129 119.075742 
L 1521.579386 116.562711 
L 1524.0559 109.44347 
L 1525.294158 107.678122 
L 1526.532415 108.05628 
L 1527.770672 109.830484 
L 1529.00893 112.069792 
L 1530.247187 114.56355 
L 1532.723701 120.601546 
L 1533.961959 122.332501 
L 1535.200216 122.278901 
L 1536.438473 121.534809 
L 1537.67673 121.205364 
L 1538.914988 121.176332 
L 1540.153245 120.617791 
L 1541.391502 118.898748 
L 1543.868017 112.969045 
L 1545.106274 111.140821 
L 1546.344531 111.249793 
L 1547.582789 113.184447 
L 1548.821046 117.296274 
L 1550.059303 124.016611 
L 1552.535818 140.282497 
L 1553.774075 146.428404 
L 1555.012332 149.7304 
L 1556.250589 150.424073 
L 1557.488847 150.871079 
L 1558.727104 153.780373 
L 1559.965361 159.542096 
L 1561.203619 166.130557 
L 1562.441876 171.088655 
L 1563.680133 173.480252 
L 1564.91839 174.671271 
L 1566.156648 177.073171 
L 1567.394905 181.673374 
L 1568.633162 186.806677 
L 1569.871419 189.871349 
L 1571.109677 190.169401 
L 1572.347934 188.891248 
L 1573.586191 186.95126 
L 1574.824448 184.331741 
L 1576.062706 180.901338 
L 1577.300963 177.031764 
L 1578.53922 173.548396 
L 1579.777478 171.164696 
L 1581.015735 169.893974 
L 1582.253992 168.921249 
L 1583.492249 167.247484 
L 1584.730507 164.724609 
L 1585.968764 162.524612 
L 1587.207021 162.366327 
L 1588.445278 165.08712 
L 1589.683536 170.289982 
L 1590.921793 176.771986 
L 1592.16005 182.636817 
L 1593.398307 186.448596 
L 1594.636565 188.919172 
L 1595.874822 191.984557 
L 1598.351337 200.054288 
L 1599.589594 202.405546 
L 1602.066108 204.397564 
L 1603.304366 205.751281 
L 1604.542623 206.701216 
L 1605.78088 206.135217 
L 1607.019137 203.627469 
L 1609.495652 195.449298 
L 1610.733909 192.69014 
L 1611.972166 192.055498 
L 1613.210424 192.944195 
L 1615.686938 195.657794 
L 1616.925196 196.861403 
L 1618.163453 198.28641 
L 1620.639967 202.335091 
L 1621.878225 203.362131 
L 1624.354739 202.384961 
L 1625.592996 203.989561 
L 1626.831254 208.320087 
L 1628.069511 214.623428 
L 1629.307768 221.719815 
L 1630.546026 227.832694 
L 1631.784283 230.473663 
L 1633.02254 227.797265 
L 1634.260797 220.444692 
L 1635.499055 211.604231 
L 1636.737312 205.020604 
L 1637.975569 203.73277 
L 1639.213826 210.610125 
L 1640.452084 227.437395 
L 1641.690341 251.671798 
L 1641.690341 251.671798 
" style="fill:none;stroke:#008000;stroke-linecap:square;stroke-width:1.5;"/>
   </g>
   <g id="patch_3">
    <path d="M 43.78125 586.86358 
L 43.78125 22.318125 
" style="fill:none;stroke:#000000;stroke-linecap:square;stroke-linejoin:miter;stroke-width:0.8;"/>
   </g>
   <g id="patch_4">
    <path d="M 1717.78125 586.86358 
L 1717.78125 22.318125 
" style="fill:none;stroke:#000000;stroke-linecap:square;stroke-linejoin:miter;stroke-width:0.8;"/>
   </g>
   <g id="patch_5">
    <path d="M 43.78125 586.86358 
L 1717.78125 586.86358 
" style="fill:none;stroke:#000000;stroke-linecap:square;stroke-linejoin:miter;stroke-width:0.8;"/>
   </g>
   <g id="patch_6">
    <path d="M 43.78125 22.318125 
L 1717.78125 22.318125 
" style="fill:none;stroke:#000000;stroke-linecap:square;stroke-linejoin:miter;stroke-width:0.8;"/>
   </g>
   <g id="text_15">
    <!-- before binarisation -->
    <g transform="translate(824.1825 16.318125)scale(0.12 -0.12)">
     <defs>
      <path d="M 3116 1747 
Q 3116 2381 2855 2742 
Q 2594 3103 2138 3103 
Q 1681 3103 1420 2742 
Q 1159 2381 1159 1747 
Q 1159 1113 1420 752 
Q 1681 391 2138 391 
Q 2594 391 2855 752 
Q 3116 1113 3116 1747 
z
M 1159 2969 
Q 1341 3281 1617 3432 
Q 1894 3584 2278 3584 
Q 2916 3584 3314 3078 
Q 3713 2572 3713 1747 
Q 3713 922 3314 415 
Q 2916 -91 2278 -91 
Q 1894 -91 1617 61 
Q 1341 213 1159 525 
L 1159 0 
L 581 0 
L 581 4863 
L 1159 4863 
L 1159 2969 
z
" id="DejaVuSans-62" transform="scale(0.015625)"/>
      <path d="M 1959 3097 
Q 1497 3097 1228 2736 
Q 959 2375 959 1747 
Q 959 1119 1226 758 
Q 1494 397 1959 397 
Q 2419 397 2687 759 
Q 2956 1122 2956 1747 
Q 2956 2369 2687 2733 
Q 2419 3097 1959 3097 
z
M 1959 3584 
Q 2709 3584 3137 3096 
Q 3566 2609 3566 1747 
Q 3566 888 3137 398 
Q 2709 -91 1959 -91 
Q 1206 -91 779 398 
Q 353 888 353 1747 
Q 353 2609 779 3096 
Q 1206 3584 1959 3584 
z
" id="DejaVuSans-6f" transform="scale(0.015625)"/>
      <path id="DejaVuSans-20" transform="scale(0.015625)"/>
      <path d="M 603 3500 
L 1178 3500 
L 1178 0 
L 603 0 
L 603 3500 
z
M 603 4863 
L 1178 4863 
L 1178 4134 
L 603 4134 
L 603 4863 
z
" id="DejaVuSans-69" transform="scale(0.015625)"/>
      <path d="M 3513 2113 
L 3513 0 
L 2938 0 
L 2938 2094 
Q 2938 2591 2744 2837 
Q 2550 3084 2163 3084 
Q 1697 3084 1428 2787 
Q 1159 2491 1159 1978 
L 1159 0 
L 581 0 
L 581 3500 
L 1159 3500 
L 1159 2956 
Q 1366 3272 1645 3428 
Q 1925 3584 2291 3584 
Q 2894 3584 3203 3211 
Q 3513 2838 3513 2113 
z
" id="DejaVuSans-6e" transform="scale(0.015625)"/>
      <path d="M 2834 3397 
L 2834 2853 
Q 2591 2978 2328 3040 
Q 2066 3103 1784 3103 
Q 1356 3103 1142 2972 
Q 928 2841 928 2578 
Q 928 2378 1081 2264 
Q 1234 2150 1697 2047 
L 1894 2003 
Q 2506 1872 2764 1633 
Q 3022 1394 3022 966 
Q 3022 478 2636 193 
Q 2250 -91 1575 -91 
Q 1294 -91 989 -36 
Q 684 19 347 128 
L 347 722 
Q 666 556 975 473 
Q 1284 391 1588 391 
Q 1994 391 2212 530 
Q 2431 669 2431 922 
Q 2431 1156 2273 1281 
Q 2116 1406 1581 1522 
L 1381 1569 
Q 847 1681 609 1914 
Q 372 2147 372 2553 
Q 372 3047 722 3315 
Q 1072 3584 1716 3584 
Q 2034 3584 2315 3537 
Q 2597 3491 2834 3397 
z
" id="DejaVuSans-73" transform="scale(0.015625)"/>
      <path d="M 1172 4494 
L 1172 3500 
L 2356 3500 
L 2356 3053 
L 1172 3053 
L 1172 1153 
Q 1172 725 1289 603 
Q 1406 481 1766 481 
L 2356 481 
L 2356 0 
L 1766 0 
Q 1100 0 847 248 
Q 594 497 594 1153 
L 594 3053 
L 172 3053 
L 172 3500 
L 594 3500 
L 594 4494 
L 1172 4494 
z
" id="DejaVuSans-74" transform="scale(0.015625)"/>
     </defs>
     <use xlink:href="#DejaVuSans-62"/>
     <use x="63.476562" xlink:href="#DejaVuSans-65"/>
     <use x="125" xlink:href="#DejaVuSans-66"/>
     <use x="160.205078" xlink:href="#DejaVuSans-6f"/>
     <use x="221.386719" xlink:href="#DejaVuSans-72"/>
     <use x="260.25" xlink:href="#DejaVuSans-65"/>
     <use x="321.773438" xlink:href="#DejaVuSans-20"/>
     <use x="353.560547" xlink:href="#DejaVuSans-62"/>
     <use x="417.037109" xlink:href="#DejaVuSans-69"/>
     <use x="444.820312" xlink:href="#DejaVuSans-6e"/>
     <use x="508.199219" xlink:href="#DejaVuSans-61"/>
     <use x="569.478516" xlink:href="#DejaVuSans-72"/>
     <use x="610.591797" xlink:href="#DejaVuSans-69"/>
     <use x="638.375" xlink:href="#DejaVuSans-73"/>
     <use x="690.474609" xlink:href="#DejaVuSans-61"/>
     <use x="751.753906" xlink:href="#DejaVuSans-74"/>
     <use x="790.962891" xlink:href="#DejaVuSans-69"/>
     <use x="818.746094" xlink:href="#DejaVuSans-6f"/>
     <use x="879.927734" xlink:href="#DejaVuSans-6e"/>
    </g>
   </g>
  </g>
  <g id="axes_2">
   <g id="patch_7">
    <path d="M 43.78125 1264.318125 
L 1717.78125 1264.318125 
L 1717.78125 699.77267 
L 43.78125 699.77267 
z
" style="fill:#ffffff;"/>
   </g>
   <g id="matplotlib.axis_3">
    <g id="xtick_8">
     <g id="line2d_14">
      <g>
       <use style="stroke:#000000;stroke-width:0.8;" x="119.872159" xlink:href="#me7c9893ead" y="1264.318125"/>
      </g>
     </g>
     <g id="text_16">
      <!-- 0 -->
      <g transform="translate(116.690909 1278.916563)scale(0.1 -0.1)">
       <use xlink:href="#DejaVuSans-30"/>
      </g>
     </g>
    </g>
    <g id="xtick_9">
     <g id="line2d_15">
      <g>
       <use style="stroke:#000000;stroke-width:0.8;" x="367.523613" xlink:href="#me7c9893ead" y="1264.318125"/>
      </g>
     </g>
     <g id="text_17">
      <!-- 200 -->
      <g transform="translate(357.979863 1278.916563)scale(0.1 -0.1)">
       <use xlink:href="#DejaVuSans-32"/>
       <use x="63.623047" xlink:href="#DejaVuSans-30"/>
       <use x="127.246094" xlink:href="#DejaVuSans-30"/>
      </g>
     </g>
    </g>
    <g id="xtick_10">
     <g id="line2d_16">
      <g>
       <use style="stroke:#000000;stroke-width:0.8;" x="615.175066" xlink:href="#me7c9893ead" y="1264.318125"/>
      </g>
     </g>
     <g id="text_18">
      <!-- 400 -->
      <g transform="translate(605.631316 1278.916563)scale(0.1 -0.1)">
       <use xlink:href="#DejaVuSans-34"/>
       <use x="63.623047" xlink:href="#DejaVuSans-30"/>
       <use x="127.246094" xlink:href="#DejaVuSans-30"/>
      </g>
     </g>
    </g>
    <g id="xtick_11">
     <g id="line2d_17">
      <g>
       <use style="stroke:#000000;stroke-width:0.8;" x="862.82652" xlink:href="#me7c9893ead" y="1264.318125"/>
      </g>
     </g>
     <g id="text_19">
      <!-- 600 -->
      <g transform="translate(853.28277 1278.916563)scale(0.1 -0.1)">
       <use xlink:href="#DejaVuSans-36"/>
       <use x="63.623047" xlink:href="#DejaVuSans-30"/>
       <use x="127.246094" xlink:href="#DejaVuSans-30"/>
      </g>
     </g>
    </g>
    <g id="xtick_12">
     <g id="line2d_18">
      <g>
       <use style="stroke:#000000;stroke-width:0.8;" x="1110.477973" xlink:href="#me7c9893ead" y="1264.318125"/>
      </g>
     </g>
     <g id="text_20">
      <!-- 800 -->
      <g transform="translate(1100.934223 1278.916563)scale(0.1 -0.1)">
       <use xlink:href="#DejaVuSans-38"/>
       <use x="63.623047" xlink:href="#DejaVuSans-30"/>
       <use x="127.246094" xlink:href="#DejaVuSans-30"/>
      </g>
     </g>
    </g>
    <g id="xtick_13">
     <g id="line2d_19">
      <g>
       <use style="stroke:#000000;stroke-width:0.8;" x="1358.129427" xlink:href="#me7c9893ead" y="1264.318125"/>
      </g>
     </g>
     <g id="text_21">
      <!-- 1000 -->
      <g transform="translate(1345.404427 1278.916563)scale(0.1 -0.1)">
       <use xlink:href="#DejaVuSans-31"/>
       <use x="63.623047" xlink:href="#DejaVuSans-30"/>
       <use x="127.246094" xlink:href="#DejaVuSans-30"/>
       <use x="190.869141" xlink:href="#DejaVuSans-30"/>
      </g>
     </g>
    </g>
    <g id="xtick_14">
     <g id="line2d_20">
      <g>
       <use style="stroke:#000000;stroke-width:0.8;" x="1605.78088" xlink:href="#me7c9893ead" y="1264.318125"/>
      </g>
     </g>
     <g id="text_22">
      <!-- 1200 -->
      <g transform="translate(1593.05588 1278.916563)scale(0.1 -0.1)">
       <use xlink:href="#DejaVuSans-31"/>
       <use x="63.623047" xlink:href="#DejaVuSans-32"/>
       <use x="127.246094" xlink:href="#DejaVuSans-30"/>
       <use x="190.869141" xlink:href="#DejaVuSans-30"/>
      </g>
     </g>
    </g>
    <g id="text_23">
     <!-- frame -->
     <g transform="translate(865.954687 1292.594688)scale(0.1 -0.1)">
      <use xlink:href="#DejaVuSans-66"/>
      <use x="35.205078" xlink:href="#DejaVuSans-72"/>
      <use x="76.318359" xlink:href="#DejaVuSans-61"/>
      <use x="137.597656" xlink:href="#DejaVuSans-6d"/>
      <use x="235.009766" xlink:href="#DejaVuSans-65"/>
     </g>
    </g>
   </g>
   <g id="matplotlib.axis_4">
    <g id="ytick_6">
     <g id="line2d_21">
      <g>
       <use style="stroke:#000000;stroke-width:0.8;" x="43.78125" xlink:href="#mbcb0645971" y="1238.656968"/>
      </g>
     </g>
     <g id="text_24">
      <!-- 0.0 -->
      <g transform="translate(20.878125 1242.456187)scale(0.1 -0.1)">
       <use xlink:href="#DejaVuSans-30"/>
       <use x="63.623047" xlink:href="#DejaVuSans-2e"/>
       <use x="95.410156" xlink:href="#DejaVuSans-30"/>
      </g>
     </g>
    </g>
    <g id="ytick_7">
     <g id="line2d_22">
      <g>
       <use style="stroke:#000000;stroke-width:0.8;" x="43.78125" xlink:href="#mbcb0645971" y="1136.01234"/>
      </g>
     </g>
     <g id="text_25">
      <!-- 0.2 -->
      <g transform="translate(20.878125 1139.811559)scale(0.1 -0.1)">
       <use xlink:href="#DejaVuSans-30"/>
       <use x="63.623047" xlink:href="#DejaVuSans-2e"/>
       <use x="95.410156" xlink:href="#DejaVuSans-32"/>
      </g>
     </g>
    </g>
    <g id="ytick_8">
     <g id="line2d_23">
      <g>
       <use style="stroke:#000000;stroke-width:0.8;" x="43.78125" xlink:href="#mbcb0645971" y="1033.367712"/>
      </g>
     </g>
     <g id="text_26">
      <!-- 0.4 -->
      <g transform="translate(20.878125 1037.166931)scale(0.1 -0.1)">
       <use xlink:href="#DejaVuSans-30"/>
       <use x="63.623047" xlink:href="#DejaVuSans-2e"/>
       <use x="95.410156" xlink:href="#DejaVuSans-34"/>
      </g>
     </g>
    </g>
    <g id="ytick_9">
     <g id="line2d_24">
      <g>
       <use style="stroke:#000000;stroke-width:0.8;" x="43.78125" xlink:href="#mbcb0645971" y="930.723084"/>
      </g>
     </g>
     <g id="text_27">
      <!-- 0.6 -->
      <g transform="translate(20.878125 934.522302)scale(0.1 -0.1)">
       <use xlink:href="#DejaVuSans-30"/>
       <use x="63.623047" xlink:href="#DejaVuSans-2e"/>
       <use x="95.410156" xlink:href="#DejaVuSans-36"/>
      </g>
     </g>
    </g>
    <g id="ytick_10">
     <g id="line2d_25">
      <g>
       <use style="stroke:#000000;stroke-width:0.8;" x="43.78125" xlink:href="#mbcb0645971" y="828.078456"/>
      </g>
     </g>
     <g id="text_28">
      <!-- 0.8 -->
      <g transform="translate(20.878125 831.877674)scale(0.1 -0.1)">
       <use xlink:href="#DejaVuSans-30"/>
       <use x="63.623047" xlink:href="#DejaVuSans-2e"/>
       <use x="95.410156" xlink:href="#DejaVuSans-38"/>
      </g>
     </g>
    </g>
    <g id="ytick_11">
     <g id="line2d_26">
      <g>
       <use style="stroke:#000000;stroke-width:0.8;" x="43.78125" xlink:href="#mbcb0645971" y="725.433827"/>
      </g>
     </g>
     <g id="text_29">
      <!-- 1.0 -->
      <g transform="translate(20.878125 729.233046)scale(0.1 -0.1)">
       <use xlink:href="#DejaVuSans-31"/>
       <use x="63.623047" xlink:href="#DejaVuSans-2e"/>
       <use x="95.410156" xlink:href="#DejaVuSans-30"/>
      </g>
     </g>
    </g>
    <g id="text_30">
     <!-- GCaMP -->
     <g transform="translate(14.798437 999.803991)rotate(-90)scale(0.1 -0.1)">
      <use xlink:href="#DejaVuSans-47"/>
      <use x="77.490234" xlink:href="#DejaVuSans-43"/>
      <use x="147.314453" xlink:href="#DejaVuSans-61"/>
      <use x="208.59375" xlink:href="#DejaVuSans-4d"/>
      <use x="294.873047" xlink:href="#DejaVuSans-50"/>
     </g>
    </g>
   </g>
   <g id="line2d_27">
    <path clip-path="url(#p050cd137a6)" d="M 119.872159 1238.656968 
L 1228.112414 1238.656968 
L 1229.350671 725.433827 
L 1594.636565 725.433827 
L 1595.874822 1238.656968 
L 1641.690341 1238.656968 
L 1641.690341 1238.656968 
" style="fill:none;stroke:#008000;stroke-linecap:square;stroke-width:1.5;"/>
   </g>
   <g id="patch_8">
    <path d="M 43.78125 1264.318125 
L 43.78125 699.77267 
" style="fill:none;stroke:#000000;stroke-linecap:square;stroke-linejoin:miter;stroke-width:0.8;"/>
   </g>
   <g id="patch_9">
    <path d="M 1717.78125 1264.318125 
L 1717.78125 699.77267 
" style="fill:none;stroke:#000000;stroke-linecap:square;stroke-linejoin:miter;stroke-width:0.8;"/>
   </g>
   <g id="patch_10">
    <path d="M 43.78125 1264.318125 
L 1717.78125 1264.318125 
" style="fill:none;stroke:#000000;stroke-linecap:square;stroke-linejoin:miter;stroke-width:0.8;"/>
   </g>
   <g id="patch_11">
    <path d="M 43.78125 699.77267 
L 1717.78125 699.77267 
" style="fill:none;stroke:#000000;stroke-linecap:square;stroke-linejoin:miter;stroke-width:0.8;"/>
   </g>
   <g id="text_31">
    <!-- before binarisation -->
    <g transform="translate(824.1825 693.77267)scale(0.12 -0.12)">
     <use xlink:href="#DejaVuSans-62"/>
     <use x="63.476562" xlink:href="#DejaVuSans-65"/>
     <use x="125" xlink:href="#DejaVuSans-66"/>
     <use x="160.205078" xlink:href="#DejaVuSans-6f"/>
     <use x="221.386719" xlink:href="#DejaVuSans-72"/>
     <use x="260.25" xlink:href="#DejaVuSans-65"/>
     <use x="321.773438" xlink:href="#DejaVuSans-20"/>
     <use x="353.560547" xlink:href="#DejaVuSans-62"/>
     <use x="417.037109" xlink:href="#DejaVuSans-69"/>
     <use x="444.820312" xlink:href="#DejaVuSans-6e"/>
     <use x="508.199219" xlink:href="#DejaVuSans-61"/>
     <use x="569.478516" xlink:href="#DejaVuSans-72"/>
     <use x="610.591797" xlink:href="#DejaVuSans-69"/>
     <use x="638.375" xlink:href="#DejaVuSans-73"/>
     <use x="690.474609" xlink:href="#DejaVuSans-61"/>
     <use x="751.753906" xlink:href="#DejaVuSans-74"/>
     <use x="790.962891" xlink:href="#DejaVuSans-69"/>
     <use x="818.746094" xlink:href="#DejaVuSans-6f"/>
     <use x="879.927734" xlink:href="#DejaVuSans-6e"/>
    </g>
   </g>
  </g>
 </g>
 <defs>
  <clipPath id="pe8e8e9e5dc">
   <rect height="564.545455" width="1674" x="43.78125" y="22.318125"/>
  </clipPath>
  <clipPath id="p050cd137a6">
   <rect height="564.545455" width="1674" x="43.78125" y="699.77267"/>
  </clipPath>
 </defs>
</svg>
