<?xml version="1.0" encoding="utf-8" standalone="no"?>
<!DOCTYPE svg PUBLIC "-//W3C//DTD SVG 1.1//EN"
  "http://www.w3.org/Graphics/SVG/1.1/DTD/svg11.dtd">
<svg height="1301.874375pt" version="1.1" viewBox="0 0 1724.98125 1301.874375" width="1724.98125pt" xmlns="http://www.w3.org/2000/svg" xmlns:xlink="http://www.w3.org/1999/xlink">
 <metadata>
  <rdf:RDF xmlns:cc="http://creativecommons.org/ns#" xmlns:dc="http://purl.org/dc/elements/1.1/" xmlns:rdf="http://www.w3.org/1999/02/22-rdf-syntax-ns#">
   <cc:Work>
    <dc:type rdf:resource="http://purl.org/dc/dcmitype/StillImage"/>
    <dc:date>2022-07-24T15:54:36.540567</dc:date>
    <dc:format>image/svg+xml</dc:format>
    <dc:creator>
     <cc:Agent>
      <dc:title>Matplotlib v3.4.2, https://matplotlib.org/</dc:title>
     </cc:Agent>
    </dc:creator>
   </cc:Work>
  </rdf:RDF>
 </metadata>
 <defs>
  <style type="text/css">*{stroke-linecap:butt;stroke-linejoin:round;}</style>
 </defs>
 <g id="figure_1">
  <g id="patch_1">
   <path d="M 0 1301.874375 
L 1724.98125 1301.874375 
L 1724.98125 0 
L 0 0 
z
" style="fill:#ffffff;"/>
  </g>
  <g id="axes_1">
   <g id="patch_2">
    <path d="M 43.78125 586.86358 
L 1717.78125 586.86358 
L 1717.78125 22.318125 
L 43.78125 22.318125 
z
" style="fill:#ffffff;"/>
   </g>
   <g id="matplotlib.axis_1">
    <g id="xtick_1">
     <g id="line2d_1">
      <defs>
       <path d="M 0 0 
L 0 3.5 
" id="m480d9f451a" style="stroke:#000000;stroke-width:0.8;"/>
      </defs>
      <g>
       <use style="stroke:#000000;stroke-width:0.8;" x="119.872159" xlink:href="#m480d9f451a" y="586.86358"/>
      </g>
     </g>
     <g id="text_1">
      <!-- 0 -->
      <g transform="translate(116.690909 601.462017)scale(0.1 -0.1)">
       <defs>
        <path d="M 2034 4250 
Q 1547 4250 1301 3770 
Q 1056 3291 1056 2328 
Q 1056 1369 1301 889 
Q 1547 409 2034 409 
Q 2525 409 2770 889 
Q 3016 1369 3016 2328 
Q 3016 3291 2770 3770 
Q 2525 4250 2034 4250 
z
M 2034 4750 
Q 2819 4750 3233 4129 
Q 3647 3509 3647 2328 
Q 3647 1150 3233 529 
Q 2819 -91 2034 -91 
Q 1250 -91 836 529 
Q 422 1150 422 2328 
Q 422 3509 836 4129 
Q 1250 4750 2034 4750 
z
" id="DejaVuSans-30" transform="scale(0.015625)"/>
       </defs>
       <use xlink:href="#DejaVuSans-30"/>
      </g>
     </g>
    </g>
    <g id="xtick_2">
     <g id="line2d_2">
      <g>
       <use style="stroke:#000000;stroke-width:0.8;" x="367.523613" xlink:href="#m480d9f451a" y="586.86358"/>
      </g>
     </g>
     <g id="text_2">
      <!-- 200 -->
      <g transform="translate(357.979863 601.462017)scale(0.1 -0.1)">
       <defs>
        <path d="M 1228 531 
L 3431 531 
L 3431 0 
L 469 0 
L 469 531 
Q 828 903 1448 1529 
Q 2069 2156 2228 2338 
Q 2531 2678 2651 2914 
Q 2772 3150 2772 3378 
Q 2772 3750 2511 3984 
Q 2250 4219 1831 4219 
Q 1534 4219 1204 4116 
Q 875 4013 500 3803 
L 500 4441 
Q 881 4594 1212 4672 
Q 1544 4750 1819 4750 
Q 2544 4750 2975 4387 
Q 3406 4025 3406 3419 
Q 3406 3131 3298 2873 
Q 3191 2616 2906 2266 
Q 2828 2175 2409 1742 
Q 1991 1309 1228 531 
z
" id="DejaVuSans-32" transform="scale(0.015625)"/>
       </defs>
       <use xlink:href="#DejaVuSans-32"/>
       <use x="63.623047" xlink:href="#DejaVuSans-30"/>
       <use x="127.246094" xlink:href="#DejaVuSans-30"/>
      </g>
     </g>
    </g>
    <g id="xtick_3">
     <g id="line2d_3">
      <g>
       <use style="stroke:#000000;stroke-width:0.8;" x="615.175066" xlink:href="#m480d9f451a" y="586.86358"/>
      </g>
     </g>
     <g id="text_3">
      <!-- 400 -->
      <g transform="translate(605.631316 601.462017)scale(0.1 -0.1)">
       <defs>
        <path d="M 2419 4116 
L 825 1625 
L 2419 1625 
L 2419 4116 
z
M 2253 4666 
L 3047 4666 
L 3047 1625 
L 3713 1625 
L 3713 1100 
L 3047 1100 
L 3047 0 
L 2419 0 
L 2419 1100 
L 313 1100 
L 313 1709 
L 2253 4666 
z
" id="DejaVuSans-34" transform="scale(0.015625)"/>
       </defs>
       <use xlink:href="#DejaVuSans-34"/>
       <use x="63.623047" xlink:href="#DejaVuSans-30"/>
       <use x="127.246094" xlink:href="#DejaVuSans-30"/>
      </g>
     </g>
    </g>
    <g id="xtick_4">
     <g id="line2d_4">
      <g>
       <use style="stroke:#000000;stroke-width:0.8;" x="862.82652" xlink:href="#m480d9f451a" y="586.86358"/>
      </g>
     </g>
     <g id="text_4">
      <!-- 600 -->
      <g transform="translate(853.28277 601.462017)scale(0.1 -0.1)">
       <defs>
        <path d="M 2113 2584 
Q 1688 2584 1439 2293 
Q 1191 2003 1191 1497 
Q 1191 994 1439 701 
Q 1688 409 2113 409 
Q 2538 409 2786 701 
Q 3034 994 3034 1497 
Q 3034 2003 2786 2293 
Q 2538 2584 2113 2584 
z
M 3366 4563 
L 3366 3988 
Q 3128 4100 2886 4159 
Q 2644 4219 2406 4219 
Q 1781 4219 1451 3797 
Q 1122 3375 1075 2522 
Q 1259 2794 1537 2939 
Q 1816 3084 2150 3084 
Q 2853 3084 3261 2657 
Q 3669 2231 3669 1497 
Q 3669 778 3244 343 
Q 2819 -91 2113 -91 
Q 1303 -91 875 529 
Q 447 1150 447 2328 
Q 447 3434 972 4092 
Q 1497 4750 2381 4750 
Q 2619 4750 2861 4703 
Q 3103 4656 3366 4563 
z
" id="DejaVuSans-36" transform="scale(0.015625)"/>
       </defs>
       <use xlink:href="#DejaVuSans-36"/>
       <use x="63.623047" xlink:href="#DejaVuSans-30"/>
       <use x="127.246094" xlink:href="#DejaVuSans-30"/>
      </g>
     </g>
    </g>
    <g id="xtick_5">
     <g id="line2d_5">
      <g>
       <use style="stroke:#000000;stroke-width:0.8;" x="1110.477973" xlink:href="#m480d9f451a" y="586.86358"/>
      </g>
     </g>
     <g id="text_5">
      <!-- 800 -->
      <g transform="translate(1100.934223 601.462017)scale(0.1 -0.1)">
       <defs>
        <path d="M 2034 2216 
Q 1584 2216 1326 1975 
Q 1069 1734 1069 1313 
Q 1069 891 1326 650 
Q 1584 409 2034 409 
Q 2484 409 2743 651 
Q 3003 894 3003 1313 
Q 3003 1734 2745 1975 
Q 2488 2216 2034 2216 
z
M 1403 2484 
Q 997 2584 770 2862 
Q 544 3141 544 3541 
Q 544 4100 942 4425 
Q 1341 4750 2034 4750 
Q 2731 4750 3128 4425 
Q 3525 4100 3525 3541 
Q 3525 3141 3298 2862 
Q 3072 2584 2669 2484 
Q 3125 2378 3379 2068 
Q 3634 1759 3634 1313 
Q 3634 634 3220 271 
Q 2806 -91 2034 -91 
Q 1263 -91 848 271 
Q 434 634 434 1313 
Q 434 1759 690 2068 
Q 947 2378 1403 2484 
z
M 1172 3481 
Q 1172 3119 1398 2916 
Q 1625 2713 2034 2713 
Q 2441 2713 2670 2916 
Q 2900 3119 2900 3481 
Q 2900 3844 2670 4047 
Q 2441 4250 2034 4250 
Q 1625 4250 1398 4047 
Q 1172 3844 1172 3481 
z
" id="DejaVuSans-38" transform="scale(0.015625)"/>
       </defs>
       <use xlink:href="#DejaVuSans-38"/>
       <use x="63.623047" xlink:href="#DejaVuSans-30"/>
       <use x="127.246094" xlink:href="#DejaVuSans-30"/>
      </g>
     </g>
    </g>
    <g id="xtick_6">
     <g id="line2d_6">
      <g>
       <use style="stroke:#000000;stroke-width:0.8;" x="1358.129427" xlink:href="#m480d9f451a" y="586.86358"/>
      </g>
     </g>
     <g id="text_6">
      <!-- 1000 -->
      <g transform="translate(1345.404427 601.462017)scale(0.1 -0.1)">
       <defs>
        <path d="M 794 531 
L 1825 531 
L 1825 4091 
L 703 3866 
L 703 4441 
L 1819 4666 
L 2450 4666 
L 2450 531 
L 3481 531 
L 3481 0 
L 794 0 
L 794 531 
z
" id="DejaVuSans-31" transform="scale(0.015625)"/>
       </defs>
       <use xlink:href="#DejaVuSans-31"/>
       <use x="63.623047" xlink:href="#DejaVuSans-30"/>
       <use x="127.246094" xlink:href="#DejaVuSans-30"/>
       <use x="190.869141" xlink:href="#DejaVuSans-30"/>
      </g>
     </g>
    </g>
    <g id="xtick_7">
     <g id="line2d_7">
      <g>
       <use style="stroke:#000000;stroke-width:0.8;" x="1605.78088" xlink:href="#m480d9f451a" y="586.86358"/>
      </g>
     </g>
     <g id="text_7">
      <!-- 1200 -->
      <g transform="translate(1593.05588 601.462017)scale(0.1 -0.1)">
       <use xlink:href="#DejaVuSans-31"/>
       <use x="63.623047" xlink:href="#DejaVuSans-32"/>
       <use x="127.246094" xlink:href="#DejaVuSans-30"/>
       <use x="190.869141" xlink:href="#DejaVuSans-30"/>
      </g>
     </g>
    </g>
    <g id="text_8">
     <!-- frame -->
     <g transform="translate(865.954687 615.140142)scale(0.1 -0.1)">
      <defs>
       <path d="M 2375 4863 
L 2375 4384 
L 1825 4384 
Q 1516 4384 1395 4259 
Q 1275 4134 1275 3809 
L 1275 3500 
L 2222 3500 
L 2222 3053 
L 1275 3053 
L 1275 0 
L 697 0 
L 697 3053 
L 147 3053 
L 147 3500 
L 697 3500 
L 697 3744 
Q 697 4328 969 4595 
Q 1241 4863 1831 4863 
L 2375 4863 
z
" id="DejaVuSans-66" transform="scale(0.015625)"/>
       <path d="M 2631 2963 
Q 2534 3019 2420 3045 
Q 2306 3072 2169 3072 
Q 1681 3072 1420 2755 
Q 1159 2438 1159 1844 
L 1159 0 
L 581 0 
L 581 3500 
L 1159 3500 
L 1159 2956 
Q 1341 3275 1631 3429 
Q 1922 3584 2338 3584 
Q 2397 3584 2469 3576 
Q 2541 3569 2628 3553 
L 2631 2963 
z
" id="DejaVuSans-72" transform="scale(0.015625)"/>
       <path d="M 2194 1759 
Q 1497 1759 1228 1600 
Q 959 1441 959 1056 
Q 959 750 1161 570 
Q 1363 391 1709 391 
Q 2188 391 2477 730 
Q 2766 1069 2766 1631 
L 2766 1759 
L 2194 1759 
z
M 3341 1997 
L 3341 0 
L 2766 0 
L 2766 531 
Q 2569 213 2275 61 
Q 1981 -91 1556 -91 
Q 1019 -91 701 211 
Q 384 513 384 1019 
Q 384 1609 779 1909 
Q 1175 2209 1959 2209 
L 2766 2209 
L 2766 2266 
Q 2766 2663 2505 2880 
Q 2244 3097 1772 3097 
Q 1472 3097 1187 3025 
Q 903 2953 641 2809 
L 641 3341 
Q 956 3463 1253 3523 
Q 1550 3584 1831 3584 
Q 2591 3584 2966 3190 
Q 3341 2797 3341 1997 
z
" id="DejaVuSans-61" transform="scale(0.015625)"/>
       <path d="M 3328 2828 
Q 3544 3216 3844 3400 
Q 4144 3584 4550 3584 
Q 5097 3584 5394 3201 
Q 5691 2819 5691 2113 
L 5691 0 
L 5113 0 
L 5113 2094 
Q 5113 2597 4934 2840 
Q 4756 3084 4391 3084 
Q 3944 3084 3684 2787 
Q 3425 2491 3425 1978 
L 3425 0 
L 2847 0 
L 2847 2094 
Q 2847 2600 2669 2842 
Q 2491 3084 2119 3084 
Q 1678 3084 1418 2786 
Q 1159 2488 1159 1978 
L 1159 0 
L 581 0 
L 581 3500 
L 1159 3500 
L 1159 2956 
Q 1356 3278 1631 3431 
Q 1906 3584 2284 3584 
Q 2666 3584 2933 3390 
Q 3200 3197 3328 2828 
z
" id="DejaVuSans-6d" transform="scale(0.015625)"/>
       <path d="M 3597 1894 
L 3597 1613 
L 953 1613 
Q 991 1019 1311 708 
Q 1631 397 2203 397 
Q 2534 397 2845 478 
Q 3156 559 3463 722 
L 3463 178 
Q 3153 47 2828 -22 
Q 2503 -91 2169 -91 
Q 1331 -91 842 396 
Q 353 884 353 1716 
Q 353 2575 817 3079 
Q 1281 3584 2069 3584 
Q 2775 3584 3186 3129 
Q 3597 2675 3597 1894 
z
M 3022 2063 
Q 3016 2534 2758 2815 
Q 2500 3097 2075 3097 
Q 1594 3097 1305 2825 
Q 1016 2553 972 2059 
L 3022 2063 
z
" id="DejaVuSans-65" transform="scale(0.015625)"/>
      </defs>
      <use xlink:href="#DejaVuSans-66"/>
      <use x="35.205078" xlink:href="#DejaVuSans-72"/>
      <use x="76.318359" xlink:href="#DejaVuSans-61"/>
      <use x="137.597656" xlink:href="#DejaVuSans-6d"/>
      <use x="235.009766" xlink:href="#DejaVuSans-65"/>
     </g>
    </g>
   </g>
   <g id="matplotlib.axis_2">
    <g id="ytick_1">
     <g id="line2d_8">
      <defs>
       <path d="M 0 0 
L -3.5 0 
" id="ma9b293d518" style="stroke:#000000;stroke-width:0.8;"/>
      </defs>
      <g>
       <use style="stroke:#000000;stroke-width:0.8;" x="43.78125" xlink:href="#ma9b293d518" y="489.97708"/>
      </g>
     </g>
     <g id="text_9">
      <!-- 1.0 -->
      <g transform="translate(20.878125 493.776298)scale(0.1 -0.1)">
       <defs>
        <path d="M 684 794 
L 1344 794 
L 1344 0 
L 684 0 
L 684 794 
z
" id="DejaVuSans-2e" transform="scale(0.015625)"/>
       </defs>
       <use xlink:href="#DejaVuSans-31"/>
       <use x="63.623047" xlink:href="#DejaVuSans-2e"/>
       <use x="95.410156" xlink:href="#DejaVuSans-30"/>
      </g>
     </g>
    </g>
    <g id="ytick_2">
     <g id="line2d_9">
      <g>
       <use style="stroke:#000000;stroke-width:0.8;" x="43.78125" xlink:href="#ma9b293d518" y="366.911248"/>
      </g>
     </g>
     <g id="text_10">
      <!-- 1.5 -->
      <g transform="translate(20.878125 370.710467)scale(0.1 -0.1)">
       <defs>
        <path d="M 691 4666 
L 3169 4666 
L 3169 4134 
L 1269 4134 
L 1269 2991 
Q 1406 3038 1543 3061 
Q 1681 3084 1819 3084 
Q 2600 3084 3056 2656 
Q 3513 2228 3513 1497 
Q 3513 744 3044 326 
Q 2575 -91 1722 -91 
Q 1428 -91 1123 -41 
Q 819 9 494 109 
L 494 744 
Q 775 591 1075 516 
Q 1375 441 1709 441 
Q 2250 441 2565 725 
Q 2881 1009 2881 1497 
Q 2881 1984 2565 2268 
Q 2250 2553 1709 2553 
Q 1456 2553 1204 2497 
Q 953 2441 691 2322 
L 691 4666 
z
" id="DejaVuSans-35" transform="scale(0.015625)"/>
       </defs>
       <use xlink:href="#DejaVuSans-31"/>
       <use x="63.623047" xlink:href="#DejaVuSans-2e"/>
       <use x="95.410156" xlink:href="#DejaVuSans-35"/>
      </g>
     </g>
    </g>
    <g id="ytick_3">
     <g id="line2d_10">
      <g>
       <use style="stroke:#000000;stroke-width:0.8;" x="43.78125" xlink:href="#ma9b293d518" y="243.845417"/>
      </g>
     </g>
     <g id="text_11">
      <!-- 2.0 -->
      <g transform="translate(20.878125 247.644635)scale(0.1 -0.1)">
       <use xlink:href="#DejaVuSans-32"/>
       <use x="63.623047" xlink:href="#DejaVuSans-2e"/>
       <use x="95.410156" xlink:href="#DejaVuSans-30"/>
      </g>
     </g>
    </g>
    <g id="ytick_4">
     <g id="line2d_11">
      <g>
       <use style="stroke:#000000;stroke-width:0.8;" x="43.78125" xlink:href="#ma9b293d518" y="120.779585"/>
      </g>
     </g>
     <g id="text_12">
      <!-- 2.5 -->
      <g transform="translate(20.878125 124.578804)scale(0.1 -0.1)">
       <use xlink:href="#DejaVuSans-32"/>
       <use x="63.623047" xlink:href="#DejaVuSans-2e"/>
       <use x="95.410156" xlink:href="#DejaVuSans-35"/>
      </g>
     </g>
    </g>
    <g id="text_13">
     <!-- GCaMP -->
     <g transform="translate(14.798437 322.349446)rotate(-90)scale(0.1 -0.1)">
      <defs>
       <path d="M 3809 666 
L 3809 1919 
L 2778 1919 
L 2778 2438 
L 4434 2438 
L 4434 434 
Q 4069 175 3628 42 
Q 3188 -91 2688 -91 
Q 1594 -91 976 548 
Q 359 1188 359 2328 
Q 359 3472 976 4111 
Q 1594 4750 2688 4750 
Q 3144 4750 3555 4637 
Q 3966 4525 4313 4306 
L 4313 3634 
Q 3963 3931 3569 4081 
Q 3175 4231 2741 4231 
Q 1884 4231 1454 3753 
Q 1025 3275 1025 2328 
Q 1025 1384 1454 906 
Q 1884 428 2741 428 
Q 3075 428 3337 486 
Q 3600 544 3809 666 
z
" id="DejaVuSans-47" transform="scale(0.015625)"/>
       <path d="M 4122 4306 
L 4122 3641 
Q 3803 3938 3442 4084 
Q 3081 4231 2675 4231 
Q 1875 4231 1450 3742 
Q 1025 3253 1025 2328 
Q 1025 1406 1450 917 
Q 1875 428 2675 428 
Q 3081 428 3442 575 
Q 3803 722 4122 1019 
L 4122 359 
Q 3791 134 3420 21 
Q 3050 -91 2638 -91 
Q 1578 -91 968 557 
Q 359 1206 359 2328 
Q 359 3453 968 4101 
Q 1578 4750 2638 4750 
Q 3056 4750 3426 4639 
Q 3797 4528 4122 4306 
z
" id="DejaVuSans-43" transform="scale(0.015625)"/>
       <path d="M 628 4666 
L 1569 4666 
L 2759 1491 
L 3956 4666 
L 4897 4666 
L 4897 0 
L 4281 0 
L 4281 4097 
L 3078 897 
L 2444 897 
L 1241 4097 
L 1241 0 
L 628 0 
L 628 4666 
z
" id="DejaVuSans-4d" transform="scale(0.015625)"/>
       <path d="M 1259 4147 
L 1259 2394 
L 2053 2394 
Q 2494 2394 2734 2622 
Q 2975 2850 2975 3272 
Q 2975 3691 2734 3919 
Q 2494 4147 2053 4147 
L 1259 4147 
z
M 628 4666 
L 2053 4666 
Q 2838 4666 3239 4311 
Q 3641 3956 3641 3272 
Q 3641 2581 3239 2228 
Q 2838 1875 2053 1875 
L 1259 1875 
L 1259 0 
L 628 0 
L 628 4666 
z
" id="DejaVuSans-50" transform="scale(0.015625)"/>
      </defs>
      <use xlink:href="#DejaVuSans-47"/>
      <use x="77.490234" xlink:href="#DejaVuSans-43"/>
      <use x="147.314453" xlink:href="#DejaVuSans-61"/>
      <use x="208.59375" xlink:href="#DejaVuSans-4d"/>
      <use x="294.873047" xlink:href="#DejaVuSans-50"/>
     </g>
    </g>
   </g>
   <g id="line2d_12">
    <path clip-path="url(#pefc492a33b)" d="M 119.872159 526.505912 
L 121.110416 526.714149 
L 122.348674 526.308251 
L 124.825188 524.44281 
L 126.063445 523.924641 
L 127.301703 523.624103 
L 128.53996 523.130421 
L 129.778217 522.366061 
L 131.016474 521.885156 
L 132.254732 522.414797 
L 133.492989 523.971948 
L 135.969504 527.569591 
L 138.446018 530.836768 
L 139.684275 532.836247 
L 142.16079 537.382415 
L 145.875562 544.488934 
L 147.113819 546.190874 
L 148.352076 546.579124 
L 149.590334 545.531298 
L 150.828591 543.810027 
L 152.066848 542.399095 
L 153.305105 541.78558 
L 154.543363 541.869325 
L 155.78162 542.227412 
L 157.019877 542.443054 
L 158.258134 542.346714 
L 159.496392 542.085007 
L 160.734649 542.131063 
L 161.972906 543.101499 
L 163.211163 545.202185 
L 164.449421 547.831047 
L 165.687678 549.904998 
L 166.925935 550.534263 
L 168.164193 549.434268 
L 169.40245 547.042543 
L 170.640707 544.381684 
L 171.878964 542.6037 
L 173.117222 542.412858 
L 174.355479 543.77294 
L 176.831993 548.146564 
L 178.070251 549.324958 
L 179.308508 549.333375 
L 180.546765 548.709542 
L 181.785022 548.396721 
L 183.02328 549.082125 
L 184.261537 550.780879 
L 185.499794 552.89866 
L 186.738052 554.499526 
L 187.976309 554.817531 
L 189.214566 553.818014 
L 190.452823 552.366265 
L 191.691081 551.842772 
L 192.929338 552.992842 
L 194.167595 555.130822 
L 195.405852 557.042905 
L 196.64411 558.183622 
L 197.882367 558.669284 
L 199.120624 558.788053 
L 200.358881 558.730909 
L 201.597139 558.49124 
L 202.835396 557.987615 
L 205.311911 556.441354 
L 206.550168 555.502824 
L 209.026682 553.313201 
L 210.26494 552.616897 
L 211.503197 552.558598 
L 212.741454 553.042009 
L 213.979711 553.662041 
L 215.217969 553.952776 
L 216.456226 553.644974 
L 218.93274 551.883262 
L 220.170998 551.489168 
L 221.409255 552.25535 
L 222.647512 554.232932 
L 223.88577 556.640393 
L 225.124027 558.628822 
L 226.362284 559.993989 
L 227.600541 560.846067 
L 228.838799 561.202423 
L 230.077056 561.089994 
L 231.315313 560.606386 
L 233.791828 559.247771 
L 235.030085 559.123553 
L 236.268342 559.635578 
L 237.5066 560.343361 
L 238.744857 560.666076 
L 239.983114 560.487706 
L 241.221371 560.041513 
L 242.459629 559.219672 
L 243.697886 557.552395 
L 244.936143 554.849188 
L 246.1744 551.571098 
L 247.412658 548.730627 
L 248.650915 547.202737 
L 249.889172 547.056233 
L 251.127429 547.87664 
L 253.603944 550.734611 
L 254.842201 551.711005 
L 256.080459 551.950483 
L 257.318716 551.483502 
L 259.79523 549.346276 
L 261.033488 548.85161 
L 262.271745 549.395152 
L 264.748259 552.14272 
L 265.986517 552.894619 
L 267.224774 552.782987 
L 268.463031 551.960546 
L 269.701288 550.803478 
L 270.939546 549.903277 
L 272.177803 549.707472 
L 274.654318 550.359289 
L 277.130832 550.406067 
L 278.369089 550.959015 
L 279.607347 552.348687 
L 280.845604 554.24821 
L 282.083861 555.830793 
L 283.322118 556.236709 
L 284.560376 555.01145 
L 285.798633 552.338629 
L 287.03689 549.034449 
L 288.275147 546.112205 
L 289.513405 544.184722 
L 290.751662 543.362361 
L 291.989919 543.47856 
L 293.228177 544.223381 
L 294.466434 545.172706 
L 295.704691 545.836881 
L 296.942948 545.862165 
L 298.181206 545.198423 
L 300.65772 543.189339 
L 301.895977 542.934108 
L 303.134235 543.497414 
L 304.372492 544.680516 
L 305.610749 546.273005 
L 308.087264 549.847201 
L 309.325521 551.087501 
L 310.563778 551.615124 
L 311.802036 551.499475 
L 314.27855 550.583656 
L 317.993322 549.786474 
L 321.708094 549.042376 
L 322.946351 548.150273 
L 324.184608 546.541284 
L 326.661123 542.131234 
L 327.89938 539.92053 
L 329.137637 538.194102 
L 330.375895 537.306055 
L 331.614152 537.23102 
L 332.852409 537.694463 
L 337.805438 540.576508 
L 340.281953 542.154754 
L 341.52021 542.952125 
L 342.758467 544.155845 
L 343.996725 545.64233 
L 345.234982 546.747377 
L 346.473239 546.787172 
L 347.711496 545.643454 
L 350.188011 542.123113 
L 351.426268 540.98342 
L 352.664525 540.204432 
L 353.902783 539.25817 
L 356.379297 536.858702 
L 357.617554 536.250414 
L 358.855812 536.315293 
L 361.332326 537.086775 
L 363.808841 537.680626 
L 365.047098 538.482025 
L 366.285355 539.675692 
L 367.523613 540.570554 
L 368.76187 540.461731 
L 370.000127 539.334268 
L 376.191413 531.296167 
L 377.429671 530.689774 
L 378.667928 531.072155 
L 379.906185 532.307771 
L 381.144443 534.190283 
L 383.620957 538.49485 
L 384.859214 539.782926 
L 386.097472 540.287242 
L 387.335729 540.359488 
L 388.573986 540.197624 
L 391.050501 539.630282 
L 392.288758 539.551957 
L 393.527015 539.33973 
L 394.765272 538.890096 
L 396.00353 538.69823 
L 397.241787 539.005081 
L 398.480044 539.156121 
L 399.718302 538.394588 
L 400.956559 536.744073 
L 402.194816 534.825203 
L 403.433073 533.269909 
L 404.671331 532.571562 
L 405.909588 533.003187 
L 407.147845 534.335861 
L 409.62436 537.983913 
L 412.100874 541.627118 
L 413.339132 543.049375 
L 414.577389 544.080287 
L 415.815646 544.717318 
L 417.053903 544.942974 
L 418.292161 544.644411 
L 419.530418 543.722758 
L 420.768675 542.158555 
L 422.006932 539.98455 
L 424.483447 535.164555 
L 425.721704 533.560758 
L 426.959961 532.85149 
L 428.198219 533.090789 
L 429.436476 534.25563 
L 430.674733 536.278901 
L 431.912991 538.787951 
L 433.151248 540.957836 
L 434.389505 542.093646 
L 435.627762 541.909304 
L 436.86602 540.381219 
L 438.104277 537.912266 
L 440.580791 532.646254 
L 441.819049 530.965892 
L 443.057306 530.644288 
L 444.295563 531.608931 
L 445.53382 533.326976 
L 446.772078 535.249971 
L 448.010335 536.750372 
L 449.248592 537.239595 
L 450.48685 536.563236 
L 451.725107 534.949044 
L 452.963364 532.677519 
L 455.439879 527.249038 
L 456.678136 525.006518 
L 457.916393 523.99692 
L 459.15465 524.738138 
L 460.392908 527.156252 
L 462.869422 533.802551 
L 464.107679 536.517419 
L 465.345937 538.563259 
L 466.584194 539.894892 
L 467.822451 540.361558 
L 469.060709 539.657635 
L 470.298966 537.454945 
L 471.537223 533.891906 
L 472.77548 529.872154 
L 474.013738 526.588894 
L 475.251995 524.743135 
L 476.490252 524.382625 
L 477.728509 525.257138 
L 478.966767 527.017185 
L 480.205024 529.116396 
L 481.443281 530.721624 
L 482.681538 531.041451 
L 483.919796 529.894638 
L 486.39631 525.567005 
L 487.634568 524.055735 
L 488.872825 523.495826 
L 490.111082 523.209712 
L 491.349339 522.204371 
L 492.587597 520.076066 
L 493.825854 517.348642 
L 495.064111 515.100793 
L 496.302368 514.090935 
L 497.540626 514.346636 
L 498.778883 515.608435 
L 501.255397 519.730896 
L 502.493655 521.325039 
L 503.731912 522.025698 
L 504.970169 522.058389 
L 507.446684 521.538838 
L 508.684941 520.938105 
L 509.923198 519.836039 
L 512.399713 517.125443 
L 513.63797 516.160849 
L 514.876227 515.656434 
L 516.114485 515.911478 
L 517.352742 517.055428 
L 519.829257 520.028203 
L 521.067514 521.030657 
L 522.305771 521.484399 
L 523.544028 521.170825 
L 524.782286 520.055501 
L 528.497057 515.035638 
L 529.735315 513.805543 
L 530.973572 513.223413 
L 532.211829 513.318713 
L 533.450086 513.918469 
L 534.688344 514.736592 
L 535.926601 515.315753 
L 537.164858 515.175984 
L 538.403116 514.159239 
L 540.87963 510.879138 
L 542.117887 509.594712 
L 543.356145 508.827057 
L 544.594402 508.220073 
L 545.832659 507.388972 
L 547.070916 506.356473 
L 548.309174 505.175936 
L 549.547431 503.604257 
L 550.785688 501.30892 
L 553.262203 494.947825 
L 554.50046 493.133205 
L 555.738717 494.124393 
L 556.976975 497.898985 
L 558.215232 502.943218 
L 559.453489 507.252387 
L 560.691746 509.78607 
L 561.930004 511.087219 
L 564.406518 513.304747 
L 565.644775 513.862866 
L 566.883033 513.233836 
L 568.12129 511.300145 
L 570.597804 506.372044 
L 571.836062 504.541946 
L 573.074319 503.405606 
L 574.312576 503.130273 
L 576.789091 503.557643 
L 579.265605 503.504148 
L 580.503863 503.165198 
L 582.980377 501.687739 
L 584.218634 502.034824 
L 585.456892 504.233558 
L 586.695149 507.668461 
L 587.933406 510.725154 
L 589.171663 512.05817 
L 590.409921 511.254132 
L 591.648178 508.78911 
L 594.124693 502.497407 
L 595.36295 499.811987 
L 596.601207 497.774882 
L 597.839464 496.508426 
L 599.077722 495.795592 
L 600.315979 495.314123 
L 601.554236 495.132777 
L 602.792493 495.689471 
L 604.030751 497.268365 
L 606.507265 501.948644 
L 607.745523 503.708782 
L 608.98378 504.454561 
L 610.222037 503.853704 
L 611.460294 501.903165 
L 613.936809 496.862734 
L 615.175066 495.282818 
L 616.413323 494.751732 
L 617.651581 495.184796 
L 618.889838 496.29619 
L 620.128095 497.873792 
L 622.60461 501.41167 
L 623.842867 502.34718 
L 625.081124 501.959697 
L 626.319382 500.226727 
L 627.557639 497.71096 
L 630.034153 491.995219 
L 631.272411 489.564818 
L 632.510668 488.471914 
L 633.748925 489.018844 
L 634.987182 490.903087 
L 637.463697 496.48597 
L 638.701954 498.559986 
L 639.940211 499.558194 
L 641.178469 499.569966 
L 642.416726 498.611609 
L 643.654983 496.76454 
L 644.893241 494.125956 
L 646.131498 490.577831 
L 649.84627 477.002007 
L 651.084527 473.508142 
L 652.322784 470.900504 
L 653.561041 469.080712 
L 656.037556 466.335839 
L 657.275813 464.426772 
L 658.51407 461.845366 
L 659.752328 458.429566 
L 660.990585 453.816492 
L 662.228842 447.708376 
L 663.4671 440.210222 
L 667.181871 414.365315 
L 668.420129 407.089238 
L 673.373158 382.512154 
L 674.611415 377.679042 
L 675.849672 374.355566 
L 677.087929 372.56958 
L 678.326187 371.886891 
L 679.564444 371.43432 
L 680.802701 370.544571 
L 682.040959 369.073142 
L 683.279216 366.956066 
L 684.517473 363.937568 
L 685.75573 360.286097 
L 686.993988 357.420299 
L 688.232245 356.958022 
L 689.470502 359.29068 
L 693.185274 371.455235 
L 694.423531 373.202878 
L 695.661789 372.931414 
L 696.900046 371.064137 
L 698.138303 368.478202 
L 699.37656 366.312338 
L 700.614818 365.540067 
L 701.853075 366.409043 
L 703.091332 368.473668 
L 705.567847 373.936739 
L 706.806104 375.756695 
L 708.044361 375.00818 
L 709.282618 370.470615 
L 710.520876 362.310642 
L 712.99739 341.690559 
L 714.235648 333.26282 
L 715.473905 327.645777 
L 716.712162 324.861836 
L 717.950419 324.67097 
L 719.188677 326.645888 
L 720.426934 330.558289 
L 721.665191 336.758608 
L 724.141706 352.558427 
L 725.379963 357.408979 
L 726.61822 359.040349 
L 729.094735 358.725399 
L 730.332992 359.886679 
L 731.571249 362.783883 
L 735.286021 374.246523 
L 739.000793 386.853078 
L 740.23905 389.549252 
L 743.953822 395.491559 
L 746.430336 400.590209 
L 750.145108 409.199125 
L 751.383366 411.508063 
L 752.621623 412.852385 
L 753.85988 412.727857 
L 755.098137 411.463234 
L 756.336395 410.475533 
L 757.574652 411.073683 
L 760.051166 414.807705 
L 761.289424 415.742127 
L 762.527681 416.292319 
L 763.765938 417.535917 
L 765.004195 420.126443 
L 766.242453 423.493848 
L 767.48071 426.321462 
L 768.718967 428.054333 
L 769.957225 429.331689 
L 771.195482 431.007315 
L 772.433739 433.348527 
L 776.148511 441.741077 
L 777.386768 445.139967 
L 779.863283 452.432179 
L 781.10154 454.778334 
L 782.339797 455.715252 
L 783.578054 455.475993 
L 786.054569 453.656633 
L 787.292826 453.296721 
L 788.531084 453.498506 
L 789.769341 454.062611 
L 792.245855 455.414791 
L 794.72237 456.307486 
L 795.960627 456.85364 
L 797.198884 456.901724 
L 798.437142 455.912102 
L 799.675399 453.78508 
L 800.913656 450.526785 
L 803.390171 442.779501 
L 804.628428 440.745738 
L 805.866685 440.764822 
L 807.104943 441.892009 
L 808.3432 442.783299 
L 809.581457 442.788163 
L 810.819714 441.91646 
L 813.296229 439.238979 
L 814.534486 438.662927 
L 815.772743 438.934633 
L 817.011001 440.108224 
L 820.725773 445.899419 
L 821.96403 448.132858 
L 823.202287 451.175166 
L 825.678802 458.363828 
L 826.917059 460.403337 
L 828.155316 460.0324 
L 829.393573 457.479685 
L 830.631831 454.414045 
L 831.870088 452.663143 
L 833.108345 452.723335 
L 834.346602 454.087719 
L 835.58486 456.278962 
L 836.823117 458.760989 
L 838.061374 460.585001 
L 839.299632 460.918523 
L 840.537889 459.831296 
L 841.776146 458.374404 
L 843.014403 457.678955 
L 845.490918 458.124802 
L 846.729175 457.665386 
L 847.967432 456.646016 
L 849.20569 456.076951 
L 850.443947 456.849544 
L 852.920461 461.031769 
L 854.158719 462.200752 
L 855.396976 461.591417 
L 856.635233 459.170769 
L 857.873491 455.741562 
L 859.111748 452.815624 
L 860.350005 451.538556 
L 861.588262 451.830592 
L 862.82652 453.174137 
L 865.303034 457.401903 
L 866.541291 458.9593 
L 869.017806 460.836577 
L 870.256063 461.518352 
L 871.49432 461.544165 
L 872.732578 460.910028 
L 873.970835 460.095411 
L 877.685607 458.121348 
L 878.923864 457.299431 
L 880.162121 456.82278 
L 881.400379 456.718056 
L 882.638636 456.731752 
L 883.876893 456.914331 
L 885.11515 457.677913 
L 886.353408 459.217746 
L 887.591665 461.159147 
L 888.829922 462.798792 
L 890.06818 463.529611 
L 891.306437 463.21633 
L 892.544694 462.263361 
L 893.782951 461.098999 
L 895.021209 459.660168 
L 896.259466 457.664969 
L 897.497723 455.345193 
L 898.73598 453.692421 
L 899.974238 453.860403 
L 901.212495 456.194235 
L 903.689009 463.098472 
L 904.927267 464.717192 
L 906.165524 464.267135 
L 907.403781 462.246666 
L 911.118553 453.342551 
L 912.35681 451.14051 
L 913.595068 449.784353 
L 914.833325 449.21653 
L 917.309839 449.123646 
L 918.548097 448.686687 
L 921.024611 447.131391 
L 922.262868 446.634792 
L 923.501126 445.804461 
L 924.739383 444.253256 
L 925.97764 442.415512 
L 927.215898 441.017845 
L 928.454155 440.41088 
L 929.692412 440.566418 
L 930.930669 441.279761 
L 932.168927 442.151264 
L 933.407184 442.696118 
L 935.883698 442.876632 
L 937.121956 443.568178 
L 938.360213 444.758015 
L 939.59847 445.559585 
L 940.836727 445.301054 
L 942.074985 444.162074 
L 943.313242 442.766104 
L 944.551499 441.627554 
L 945.789757 440.971458 
L 947.028014 440.731447 
L 949.504528 440.568054 
L 950.742786 440.076395 
L 951.981043 438.476859 
L 953.2193 435.21229 
L 955.695815 426.056837 
L 956.934072 422.565542 
L 958.172329 420.807811 
L 959.410586 420.91815 
L 960.648844 422.892587 
L 963.125358 430.010544 
L 964.363616 432.787261 
L 965.601873 434.476565 
L 970.554902 439.307766 
L 973.031416 440.527202 
L 974.269674 441.613042 
L 975.507931 443.591894 
L 977.984446 448.695264 
L 979.222703 450.315695 
L 980.46096 450.93017 
L 981.699217 450.868748 
L 984.175732 450.169173 
L 985.413989 449.674987 
L 986.652246 448.901613 
L 989.128761 446.798803 
L 992.843533 443.290857 
L 994.08179 442.653782 
L 995.320047 442.628227 
L 996.558305 443.64473 
L 997.796562 446.168562 
L 999.034819 449.880762 
L 1002.749591 462.011937 
L 1003.987848 464.291643 
L 1005.226105 464.066433 
L 1006.464363 461.157962 
L 1007.70262 456.291998 
L 1011.417392 439.399404 
L 1012.655649 435.132506 
L 1013.893906 431.499148 
L 1015.132164 428.397188 
L 1016.370421 426.225972 
L 1017.608678 425.001011 
L 1018.846935 424.071954 
L 1021.32345 421.931447 
L 1023.799964 420.556755 
L 1025.038222 419.016148 
L 1026.276479 416.37378 
L 1027.514736 413.004295 
L 1028.752993 409.077878 
L 1029.991251 404.336372 
L 1031.229508 398.611019 
L 1033.706023 385.761598 
L 1037.420794 368.740578 
L 1038.659052 360.347686 
L 1041.135566 341.101385 
L 1042.373823 332.800791 
L 1044.850338 317.687498 
L 1046.088595 308.153736 
L 1049.803367 274.378838 
L 1051.041624 263.170221 
L 1052.279882 253.188722 
L 1053.518139 246.768055 
L 1054.756396 245.869767 
L 1055.994653 250.665057 
L 1057.232911 259.345546 
L 1058.471168 268.954972 
L 1059.709425 277.206377 
L 1060.947682 283.694216 
L 1062.18594 289.436724 
L 1063.424197 295.71144 
L 1064.662454 303.21066 
L 1068.377226 328.632821 
L 1069.615483 336.051108 
L 1070.853741 342.386628 
L 1072.091998 347.137013 
L 1073.330255 350.375957 
L 1074.568512 352.701575 
L 1075.80677 354.200865 
L 1077.045027 354.378124 
L 1078.283284 353.354479 
L 1079.521541 352.542779 
L 1080.759799 353.718102 
L 1081.998056 357.215987 
L 1083.236313 361.394262 
L 1084.474571 364.269635 
L 1085.712828 365.344685 
L 1086.951085 365.663055 
L 1088.189342 366.523253 
L 1089.4276 368.329427 
L 1090.665857 370.401338 
L 1091.904114 371.950315 
L 1095.618886 375.441655 
L 1096.857143 376.247209 
L 1098.0954 376.437155 
L 1099.333658 376.200569 
L 1100.571915 376.154622 
L 1101.810172 376.830965 
L 1103.04843 378.306552 
L 1104.286687 380.482109 
L 1105.524944 383.092099 
L 1106.763201 385.30553 
L 1108.001459 386.018688 
L 1109.239716 384.672436 
L 1110.477973 381.389244 
L 1111.71623 376.502076 
L 1114.192745 364.666624 
L 1115.431002 360.199309 
L 1116.669259 357.395326 
L 1117.907517 355.494031 
L 1119.145774 353.890689 
L 1120.384031 352.493439 
L 1121.622289 350.913605 
L 1122.860546 347.860971 
L 1124.098803 342.12508 
L 1125.33706 334.040728 
L 1127.813575 316.862833 
L 1129.051832 310.217974 
L 1130.290089 306.029342 
L 1131.528347 304.408753 
L 1132.766604 304.603081 
L 1134.004861 305.465867 
L 1135.243118 305.746765 
L 1136.481376 304.295691 
L 1137.719633 300.45739 
L 1138.95789 294.115169 
L 1140.196148 285.356972 
L 1141.434405 274.386732 
L 1143.910919 249.167504 
L 1145.149177 238.192069 
L 1146.387434 230.353069 
L 1147.625691 225.940547 
L 1148.863948 223.940437 
L 1150.102206 222.687227 
L 1151.340463 220.868914 
L 1152.57872 217.449797 
L 1153.816977 211.479449 
L 1156.293492 195.636249 
L 1157.531749 190.118531 
L 1158.770007 186.833313 
L 1161.246521 182.314414 
L 1162.484778 181.013387 
L 1163.723036 181.323279 
L 1164.961293 183.563189 
L 1166.19955 187.927433 
L 1167.437807 194.357155 
L 1169.914322 210.087152 
L 1171.152579 216.513225 
L 1172.390837 220.436024 
L 1173.629094 222.21168 
L 1174.867351 223.195565 
L 1176.105608 224.462065 
L 1177.343866 226.478738 
L 1179.82038 232.511963 
L 1181.058637 233.526736 
L 1182.296895 230.230098 
L 1183.535152 221.930064 
L 1186.011666 198.136914 
L 1187.249924 188.2776 
L 1188.488181 181.784394 
L 1189.726438 178.756129 
L 1190.964696 178.638011 
L 1192.202953 180.628905 
L 1194.679467 186.799404 
L 1195.917725 188.719583 
L 1197.155982 189.367341 
L 1198.394239 189.466672 
L 1199.632496 190.519767 
L 1200.870754 194.097792 
L 1202.109011 200.503682 
L 1205.823783 224.167983 
L 1207.06204 231.096606 
L 1208.300297 236.898642 
L 1210.776812 247.409116 
L 1212.015069 254.094936 
L 1214.491584 269.232477 
L 1215.729841 274.480188 
L 1216.968098 276.398451 
L 1218.206355 275.588104 
L 1219.444613 274.149734 
L 1220.68287 273.914366 
L 1221.921127 275.437068 
L 1223.159384 278.736128 
L 1224.397642 283.585732 
L 1225.635899 288.951521 
L 1226.874156 293.255985 
L 1228.112414 295.471562 
L 1229.350671 295.845133 
L 1230.588928 295.296614 
L 1231.827185 294.151823 
L 1233.065443 292.078657 
L 1235.541957 286.542199 
L 1236.780214 285.315217 
L 1238.018472 286.502222 
L 1239.256729 290.278108 
L 1241.733243 300.301773 
L 1242.971501 303.743864 
L 1244.209758 305.654407 
L 1245.448015 306.865123 
L 1246.686273 308.940216 
L 1247.92453 312.925055 
L 1249.162787 318.034544 
L 1250.401044 321.980631 
L 1251.639302 322.730301 
L 1252.877559 320.014989 
L 1254.115816 315.642843 
L 1255.354073 312.36843 
L 1256.592331 311.952629 
L 1257.830588 314.135097 
L 1259.068845 317.309358 
L 1260.307103 320.023611 
L 1261.54536 321.807365 
L 1264.021874 323.912573 
L 1265.260132 325.505614 
L 1266.498389 328.083119 
L 1270.213161 338.570075 
L 1272.689675 344.361831 
L 1273.927932 346.712571 
L 1275.16619 347.302211 
L 1278.880962 345.13051 
L 1280.119219 344.580182 
L 1281.357476 343.651157 
L 1282.595733 342.215901 
L 1286.310505 336.918398 
L 1287.548762 335.710433 
L 1288.78702 336.051701 
L 1290.025277 338.651917 
L 1291.263534 343.193634 
L 1293.740049 354.622417 
L 1296.216563 365.690983 
L 1297.454821 369.993625 
L 1298.693078 373.012476 
L 1299.931335 374.543594 
L 1301.169592 374.42092 
L 1302.40785 372.821823 
L 1303.646107 370.547092 
L 1304.884364 368.532857 
L 1306.122621 367.196579 
L 1307.360879 366.603696 
L 1308.599136 366.994202 
L 1309.837393 368.568425 
L 1312.313908 373.299077 
L 1313.552165 375.021124 
L 1314.790422 375.818393 
L 1317.266937 376.361472 
L 1318.505194 376.690391 
L 1319.743451 376.870563 
L 1320.981709 377.310248 
L 1322.219966 378.535799 
L 1324.69648 382.448103 
L 1325.934738 383.740955 
L 1327.172995 383.53117 
L 1328.411252 381.628853 
L 1329.649509 379.197323 
L 1330.887767 378.072556 
L 1332.126024 379.043133 
L 1333.364281 381.225067 
L 1334.602539 383.089795 
L 1335.840796 383.929528 
L 1337.079053 383.989112 
L 1338.31731 383.524058 
L 1339.555568 382.524728 
L 1340.793825 381.144758 
L 1342.032082 379.959966 
L 1343.270339 379.649837 
L 1344.508597 380.534958 
L 1345.746854 382.469381 
L 1346.985111 385.054773 
L 1348.223368 388.106977 
L 1350.699883 395.529094 
L 1351.93814 398.510761 
L 1353.176398 399.613567 
L 1354.414655 398.71235 
L 1355.652912 396.559173 
L 1358.129427 391.724961 
L 1359.367684 389.813529 
L 1360.605941 388.721195 
L 1361.844198 388.790898 
L 1363.082456 389.909615 
L 1364.320713 391.700608 
L 1365.55897 393.765669 
L 1366.797228 395.414406 
L 1368.035485 395.564559 
L 1369.273742 393.565289 
L 1371.750257 386.203635 
L 1372.988514 383.288449 
L 1374.226771 381.607048 
L 1375.465028 380.849065 
L 1376.703286 380.557161 
L 1377.941543 380.73292 
L 1380.418057 382.040852 
L 1381.656315 381.875442 
L 1385.371087 379.979695 
L 1386.609344 377.973782 
L 1389.085858 371.288876 
L 1390.324116 369.348667 
L 1391.562373 368.995797 
L 1392.80063 369.552013 
L 1394.038887 370.640744 
L 1395.277145 372.468227 
L 1396.515402 374.895785 
L 1397.753659 376.930248 
L 1398.991916 377.790528 
L 1400.230174 378.026304 
L 1401.468431 378.921576 
L 1402.706688 381.027712 
L 1403.944946 383.668918 
L 1405.183203 385.741888 
L 1406.42146 386.784432 
L 1407.659717 387.200806 
L 1408.897975 387.809403 
L 1410.136232 389.332672 
L 1411.374489 391.683584 
L 1412.612746 393.764122 
L 1413.851004 394.439518 
L 1415.089261 393.619239 
L 1416.327518 392.332533 
L 1417.565775 391.681922 
L 1418.804033 391.849963 
L 1420.04229 392.421641 
L 1421.280547 393.203817 
L 1423.757062 394.970664 
L 1424.995319 395.499459 
L 1426.233576 396.29279 
L 1428.710091 399.539146 
L 1429.948348 400.375005 
L 1431.186605 399.850932 
L 1433.66312 396.875803 
L 1434.901377 396.243597 
L 1436.139634 396.601771 
L 1437.377892 397.639705 
L 1439.854406 400.440429 
L 1441.092664 401.536251 
L 1442.330921 402.12564 
L 1443.569178 402.01336 
L 1444.807435 400.87781 
L 1446.045693 398.759496 
L 1447.28395 396.273614 
L 1448.522207 394.289458 
L 1449.760464 393.838604 
L 1450.998722 395.343784 
L 1452.236979 397.434684 
L 1453.475236 397.945579 
L 1454.713494 396.269616 
L 1457.190008 390.925317 
L 1458.428265 388.853077 
L 1459.666523 387.757125 
L 1460.90478 388.089198 
L 1462.143037 389.899678 
L 1463.381294 392.90352 
L 1465.857809 400.609972 
L 1467.096066 403.445684 
L 1468.334323 404.492393 
L 1469.572581 404.245163 
L 1470.810838 403.611737 
L 1472.049095 402.631355 
L 1473.287353 400.607654 
L 1474.52561 397.100233 
L 1475.763867 392.209998 
L 1477.002124 386.141031 
L 1478.240382 379.030984 
L 1480.716896 362.797899 
L 1483.193411 346.77248 
L 1484.431668 339.077342 
L 1485.669925 330.378087 
L 1486.908182 319.846871 
L 1490.622954 284.310722 
L 1493.099469 265.970417 
L 1496.814241 239.869698 
L 1498.052498 233.596685 
L 1499.290755 229.67108 
L 1500.529012 228.214688 
L 1501.76727 229.103034 
L 1503.005527 231.192369 
L 1504.243784 231.876225 
L 1505.482041 228.148224 
L 1506.720299 218.53271 
L 1507.958556 203.987025 
L 1510.435071 169.59904 
L 1511.673328 154.426815 
L 1512.911585 142.471375 
L 1515.3881 122.117818 
L 1519.102871 87.447439 
L 1520.341129 78.781828 
L 1521.579386 72.408373 
L 1524.0559 62.916316 
L 1525.294158 58.698932 
L 1526.532415 55.72753 
L 1527.770672 54.486675 
L 1529.00893 54.051676 
L 1530.247187 52.678809 
L 1531.485444 49.95279 
L 1532.723701 47.979282 
L 1533.961959 49.304809 
L 1535.200216 54.061618 
L 1536.438473 60.073744 
L 1537.67673 65.271476 
L 1540.153245 73.178428 
L 1541.391502 78.368652 
L 1542.62976 86.252854 
L 1543.868017 97.577757 
L 1546.344531 126.54086 
L 1547.582789 138.748629 
L 1548.821046 146.141563 
L 1550.059303 148.816118 
L 1551.29756 149.070766 
L 1552.535818 149.751919 
L 1553.774075 153.106288 
L 1555.012332 160.922744 
L 1556.250589 174.023409 
L 1559.965361 226.63946 
L 1561.203619 241.006729 
L 1562.441876 251.694893 
L 1563.680133 257.627177 
L 1564.91839 258.590403 
L 1566.156648 256.088049 
L 1567.394905 253.133847 
L 1568.633162 252.60784 
L 1569.871419 255.272311 
L 1571.109677 259.556857 
L 1572.347934 263.284062 
L 1573.586191 265.464543 
L 1574.824448 266.365589 
L 1577.300963 266.757088 
L 1578.53922 266.817438 
L 1579.777478 265.42189 
L 1581.015735 261.445383 
L 1582.253992 256.156229 
L 1583.492249 252.517745 
L 1584.730507 252.462488 
L 1587.207021 258.247418 
L 1588.445278 258.868798 
L 1589.683536 256.755086 
L 1590.921793 253.413783 
L 1592.16005 250.563863 
L 1593.398307 249.27123 
L 1594.636565 250.088014 
L 1595.874822 252.900926 
L 1597.113079 256.988166 
L 1599.589594 265.558494 
L 1600.827851 268.978723 
L 1602.066108 271.554012 
L 1603.304366 272.647427 
L 1604.542623 271.640239 
L 1605.78088 268.733085 
L 1608.257395 260.898376 
L 1609.495652 256.729476 
L 1610.733909 251.506327 
L 1611.972166 244.730714 
L 1614.448681 228.898714 
L 1615.686938 222.155951 
L 1616.925196 217.945569 
L 1618.163453 217.044988 
L 1619.40171 218.867224 
L 1623.116482 228.062874 
L 1624.354739 232.29164 
L 1625.592996 238.019969 
L 1628.069511 250.884891 
L 1631.784283 268.693193 
L 1633.02254 276.3313 
L 1635.499055 294.473791 
L 1636.737312 298.970319 
L 1637.975569 296.670393 
L 1639.213826 287.214562 
L 1640.452084 271.683998 
L 1641.690341 252.461351 
L 1641.690341 252.461351 
" style="fill:none;stroke:#008000;stroke-linecap:square;stroke-width:1.5;"/>
   </g>
   <g id="patch_3">
    <path d="M 43.78125 586.86358 
L 43.78125 22.318125 
" style="fill:none;stroke:#000000;stroke-linecap:square;stroke-linejoin:miter;stroke-width:0.8;"/>
   </g>
   <g id="patch_4">
    <path d="M 1717.78125 586.86358 
L 1717.78125 22.318125 
" style="fill:none;stroke:#000000;stroke-linecap:square;stroke-linejoin:miter;stroke-width:0.8;"/>
   </g>
   <g id="patch_5">
    <path d="M 43.78125 586.86358 
L 1717.78125 586.86358 
" style="fill:none;stroke:#000000;stroke-linecap:square;stroke-linejoin:miter;stroke-width:0.8;"/>
   </g>
   <g id="patch_6">
    <path d="M 43.78125 22.318125 
L 1717.78125 22.318125 
" style="fill:none;stroke:#000000;stroke-linecap:square;stroke-linejoin:miter;stroke-width:0.8;"/>
   </g>
   <g id="text_14">
    <!-- before binarisation -->
    <g transform="translate(824.1825 16.318125)scale(0.12 -0.12)">
     <defs>
      <path d="M 3116 1747 
Q 3116 2381 2855 2742 
Q 2594 3103 2138 3103 
Q 1681 3103 1420 2742 
Q 1159 2381 1159 1747 
Q 1159 1113 1420 752 
Q 1681 391 2138 391 
Q 2594 391 2855 752 
Q 3116 1113 3116 1747 
z
M 1159 2969 
Q 1341 3281 1617 3432 
Q 1894 3584 2278 3584 
Q 2916 3584 3314 3078 
Q 3713 2572 3713 1747 
Q 3713 922 3314 415 
Q 2916 -91 2278 -91 
Q 1894 -91 1617 61 
Q 1341 213 1159 525 
L 1159 0 
L 581 0 
L 581 4863 
L 1159 4863 
L 1159 2969 
z
" id="DejaVuSans-62" transform="scale(0.015625)"/>
      <path d="M 1959 3097 
Q 1497 3097 1228 2736 
Q 959 2375 959 1747 
Q 959 1119 1226 758 
Q 1494 397 1959 397 
Q 2419 397 2687 759 
Q 2956 1122 2956 1747 
Q 2956 2369 2687 2733 
Q 2419 3097 1959 3097 
z
M 1959 3584 
Q 2709 3584 3137 3096 
Q 3566 2609 3566 1747 
Q 3566 888 3137 398 
Q 2709 -91 1959 -91 
Q 1206 -91 779 398 
Q 353 888 353 1747 
Q 353 2609 779 3096 
Q 1206 3584 1959 3584 
z
" id="DejaVuSans-6f" transform="scale(0.015625)"/>
      <path id="DejaVuSans-20" transform="scale(0.015625)"/>
      <path d="M 603 3500 
L 1178 3500 
L 1178 0 
L 603 0 
L 603 3500 
z
M 603 4863 
L 1178 4863 
L 1178 4134 
L 603 4134 
L 603 4863 
z
" id="DejaVuSans-69" transform="scale(0.015625)"/>
      <path d="M 3513 2113 
L 3513 0 
L 2938 0 
L 2938 2094 
Q 2938 2591 2744 2837 
Q 2550 3084 2163 3084 
Q 1697 3084 1428 2787 
Q 1159 2491 1159 1978 
L 1159 0 
L 581 0 
L 581 3500 
L 1159 3500 
L 1159 2956 
Q 1366 3272 1645 3428 
Q 1925 3584 2291 3584 
Q 2894 3584 3203 3211 
Q 3513 2838 3513 2113 
z
" id="DejaVuSans-6e" transform="scale(0.015625)"/>
      <path d="M 2834 3397 
L 2834 2853 
Q 2591 2978 2328 3040 
Q 2066 3103 1784 3103 
Q 1356 3103 1142 2972 
Q 928 2841 928 2578 
Q 928 2378 1081 2264 
Q 1234 2150 1697 2047 
L 1894 2003 
Q 2506 1872 2764 1633 
Q 3022 1394 3022 966 
Q 3022 478 2636 193 
Q 2250 -91 1575 -91 
Q 1294 -91 989 -36 
Q 684 19 347 128 
L 347 722 
Q 666 556 975 473 
Q 1284 391 1588 391 
Q 1994 391 2212 530 
Q 2431 669 2431 922 
Q 2431 1156 2273 1281 
Q 2116 1406 1581 1522 
L 1381 1569 
Q 847 1681 609 1914 
Q 372 2147 372 2553 
Q 372 3047 722 3315 
Q 1072 3584 1716 3584 
Q 2034 3584 2315 3537 
Q 2597 3491 2834 3397 
z
" id="DejaVuSans-73" transform="scale(0.015625)"/>
      <path d="M 1172 4494 
L 1172 3500 
L 2356 3500 
L 2356 3053 
L 1172 3053 
L 1172 1153 
Q 1172 725 1289 603 
Q 1406 481 1766 481 
L 2356 481 
L 2356 0 
L 1766 0 
Q 1100 0 847 248 
Q 594 497 594 1153 
L 594 3053 
L 172 3053 
L 172 3500 
L 594 3500 
L 594 4494 
L 1172 4494 
z
" id="DejaVuSans-74" transform="scale(0.015625)"/>
     </defs>
     <use xlink:href="#DejaVuSans-62"/>
     <use x="63.476562" xlink:href="#DejaVuSans-65"/>
     <use x="125" xlink:href="#DejaVuSans-66"/>
     <use x="160.205078" xlink:href="#DejaVuSans-6f"/>
     <use x="221.386719" xlink:href="#DejaVuSans-72"/>
     <use x="260.25" xlink:href="#DejaVuSans-65"/>
     <use x="321.773438" xlink:href="#DejaVuSans-20"/>
     <use x="353.560547" xlink:href="#DejaVuSans-62"/>
     <use x="417.037109" xlink:href="#DejaVuSans-69"/>
     <use x="444.820312" xlink:href="#DejaVuSans-6e"/>
     <use x="508.199219" xlink:href="#DejaVuSans-61"/>
     <use x="569.478516" xlink:href="#DejaVuSans-72"/>
     <use x="610.591797" xlink:href="#DejaVuSans-69"/>
     <use x="638.375" xlink:href="#DejaVuSans-73"/>
     <use x="690.474609" xlink:href="#DejaVuSans-61"/>
     <use x="751.753906" xlink:href="#DejaVuSans-74"/>
     <use x="790.962891" xlink:href="#DejaVuSans-69"/>
     <use x="818.746094" xlink:href="#DejaVuSans-6f"/>
     <use x="879.927734" xlink:href="#DejaVuSans-6e"/>
    </g>
   </g>
  </g>
  <g id="axes_2">
   <g id="patch_7">
    <path d="M 43.78125 1264.318125 
L 1717.78125 1264.318125 
L 1717.78125 699.77267 
L 43.78125 699.77267 
z
" style="fill:#ffffff;"/>
   </g>
   <g id="matplotlib.axis_3">
    <g id="xtick_8">
     <g id="line2d_13">
      <g>
       <use style="stroke:#000000;stroke-width:0.8;" x="119.872159" xlink:href="#m480d9f451a" y="1264.318125"/>
      </g>
     </g>
     <g id="text_15">
      <!-- 0 -->
      <g transform="translate(116.690909 1278.916563)scale(0.1 -0.1)">
       <use xlink:href="#DejaVuSans-30"/>
      </g>
     </g>
    </g>
    <g id="xtick_9">
     <g id="line2d_14">
      <g>
       <use style="stroke:#000000;stroke-width:0.8;" x="367.523613" xlink:href="#m480d9f451a" y="1264.318125"/>
      </g>
     </g>
     <g id="text_16">
      <!-- 200 -->
      <g transform="translate(357.979863 1278.916563)scale(0.1 -0.1)">
       <use xlink:href="#DejaVuSans-32"/>
       <use x="63.623047" xlink:href="#DejaVuSans-30"/>
       <use x="127.246094" xlink:href="#DejaVuSans-30"/>
      </g>
     </g>
    </g>
    <g id="xtick_10">
     <g id="line2d_15">
      <g>
       <use style="stroke:#000000;stroke-width:0.8;" x="615.175066" xlink:href="#m480d9f451a" y="1264.318125"/>
      </g>
     </g>
     <g id="text_17">
      <!-- 400 -->
      <g transform="translate(605.631316 1278.916563)scale(0.1 -0.1)">
       <use xlink:href="#DejaVuSans-34"/>
       <use x="63.623047" xlink:href="#DejaVuSans-30"/>
       <use x="127.246094" xlink:href="#DejaVuSans-30"/>
      </g>
     </g>
    </g>
    <g id="xtick_11">
     <g id="line2d_16">
      <g>
       <use style="stroke:#000000;stroke-width:0.8;" x="862.82652" xlink:href="#m480d9f451a" y="1264.318125"/>
      </g>
     </g>
     <g id="text_18">
      <!-- 600 -->
      <g transform="translate(853.28277 1278.916563)scale(0.1 -0.1)">
       <use xlink:href="#DejaVuSans-36"/>
       <use x="63.623047" xlink:href="#DejaVuSans-30"/>
       <use x="127.246094" xlink:href="#DejaVuSans-30"/>
      </g>
     </g>
    </g>
    <g id="xtick_12">
     <g id="line2d_17">
      <g>
       <use style="stroke:#000000;stroke-width:0.8;" x="1110.477973" xlink:href="#m480d9f451a" y="1264.318125"/>
      </g>
     </g>
     <g id="text_19">
      <!-- 800 -->
      <g transform="translate(1100.934223 1278.916563)scale(0.1 -0.1)">
       <use xlink:href="#DejaVuSans-38"/>
       <use x="63.623047" xlink:href="#DejaVuSans-30"/>
       <use x="127.246094" xlink:href="#DejaVuSans-30"/>
      </g>
     </g>
    </g>
    <g id="xtick_13">
     <g id="line2d_18">
      <g>
       <use style="stroke:#000000;stroke-width:0.8;" x="1358.129427" xlink:href="#m480d9f451a" y="1264.318125"/>
      </g>
     </g>
     <g id="text_20">
      <!-- 1000 -->
      <g transform="translate(1345.404427 1278.916563)scale(0.1 -0.1)">
       <use xlink:href="#DejaVuSans-31"/>
       <use x="63.623047" xlink:href="#DejaVuSans-30"/>
       <use x="127.246094" xlink:href="#DejaVuSans-30"/>
       <use x="190.869141" xlink:href="#DejaVuSans-30"/>
      </g>
     </g>
    </g>
    <g id="xtick_14">
     <g id="line2d_19">
      <g>
       <use style="stroke:#000000;stroke-width:0.8;" x="1605.78088" xlink:href="#m480d9f451a" y="1264.318125"/>
      </g>
     </g>
     <g id="text_21">
      <!-- 1200 -->
      <g transform="translate(1593.05588 1278.916563)scale(0.1 -0.1)">
       <use xlink:href="#DejaVuSans-31"/>
       <use x="63.623047" xlink:href="#DejaVuSans-32"/>
       <use x="127.246094" xlink:href="#DejaVuSans-30"/>
       <use x="190.869141" xlink:href="#DejaVuSans-30"/>
      </g>
     </g>
    </g>
    <g id="text_22">
     <!-- frame -->
     <g transform="translate(865.954687 1292.594688)scale(0.1 -0.1)">
      <use xlink:href="#DejaVuSans-66"/>
      <use x="35.205078" xlink:href="#DejaVuSans-72"/>
      <use x="76.318359" xlink:href="#DejaVuSans-61"/>
      <use x="137.597656" xlink:href="#DejaVuSans-6d"/>
      <use x="235.009766" xlink:href="#DejaVuSans-65"/>
     </g>
    </g>
   </g>
   <g id="matplotlib.axis_4">
    <g id="ytick_5">
     <g id="line2d_20">
      <g>
       <use style="stroke:#000000;stroke-width:0.8;" x="43.78125" xlink:href="#ma9b293d518" y="1238.656968"/>
      </g>
     </g>
     <g id="text_23">
      <!-- 0.0 -->
      <g transform="translate(20.878125 1242.456187)scale(0.1 -0.1)">
       <use xlink:href="#DejaVuSans-30"/>
       <use x="63.623047" xlink:href="#DejaVuSans-2e"/>
       <use x="95.410156" xlink:href="#DejaVuSans-30"/>
      </g>
     </g>
    </g>
    <g id="ytick_6">
     <g id="line2d_21">
      <g>
       <use style="stroke:#000000;stroke-width:0.8;" x="43.78125" xlink:href="#ma9b293d518" y="1136.01234"/>
      </g>
     </g>
     <g id="text_24">
      <!-- 0.2 -->
      <g transform="translate(20.878125 1139.811559)scale(0.1 -0.1)">
       <use xlink:href="#DejaVuSans-30"/>
       <use x="63.623047" xlink:href="#DejaVuSans-2e"/>
       <use x="95.410156" xlink:href="#DejaVuSans-32"/>
      </g>
     </g>
    </g>
    <g id="ytick_7">
     <g id="line2d_22">
      <g>
       <use style="stroke:#000000;stroke-width:0.8;" x="43.78125" xlink:href="#ma9b293d518" y="1033.367712"/>
      </g>
     </g>
     <g id="text_25">
      <!-- 0.4 -->
      <g transform="translate(20.878125 1037.166931)scale(0.1 -0.1)">
       <use xlink:href="#DejaVuSans-30"/>
       <use x="63.623047" xlink:href="#DejaVuSans-2e"/>
       <use x="95.410156" xlink:href="#DejaVuSans-34"/>
      </g>
     </g>
    </g>
    <g id="ytick_8">
     <g id="line2d_23">
      <g>
       <use style="stroke:#000000;stroke-width:0.8;" x="43.78125" xlink:href="#ma9b293d518" y="930.723084"/>
      </g>
     </g>
     <g id="text_26">
      <!-- 0.6 -->
      <g transform="translate(20.878125 934.522302)scale(0.1 -0.1)">
       <use xlink:href="#DejaVuSans-30"/>
       <use x="63.623047" xlink:href="#DejaVuSans-2e"/>
       <use x="95.410156" xlink:href="#DejaVuSans-36"/>
      </g>
     </g>
    </g>
    <g id="ytick_9">
     <g id="line2d_24">
      <g>
       <use style="stroke:#000000;stroke-width:0.8;" x="43.78125" xlink:href="#ma9b293d518" y="828.078456"/>
      </g>
     </g>
     <g id="text_27">
      <!-- 0.8 -->
      <g transform="translate(20.878125 831.877674)scale(0.1 -0.1)">
       <use xlink:href="#DejaVuSans-30"/>
       <use x="63.623047" xlink:href="#DejaVuSans-2e"/>
       <use x="95.410156" xlink:href="#DejaVuSans-38"/>
      </g>
     </g>
    </g>
    <g id="ytick_10">
     <g id="line2d_25">
      <g>
       <use style="stroke:#000000;stroke-width:0.8;" x="43.78125" xlink:href="#ma9b293d518" y="725.433827"/>
      </g>
     </g>
     <g id="text_28">
      <!-- 1.0 -->
      <g transform="translate(20.878125 729.233046)scale(0.1 -0.1)">
       <use xlink:href="#DejaVuSans-31"/>
       <use x="63.623047" xlink:href="#DejaVuSans-2e"/>
       <use x="95.410156" xlink:href="#DejaVuSans-30"/>
      </g>
     </g>
    </g>
    <g id="text_29">
     <!-- GCaMP -->
     <g transform="translate(14.798437 999.803991)rotate(-90)scale(0.1 -0.1)">
      <use xlink:href="#DejaVuSans-47"/>
      <use x="77.490234" xlink:href="#DejaVuSans-43"/>
      <use x="147.314453" xlink:href="#DejaVuSans-61"/>
      <use x="208.59375" xlink:href="#DejaVuSans-4d"/>
      <use x="294.873047" xlink:href="#DejaVuSans-50"/>
     </g>
    </g>
   </g>
   <g id="line2d_26">
    <path clip-path="url(#pc9a209ec51)" d="M 119.872159 1238.656968 
L 1047.326852 1238.656968 
L 1048.56511 725.433827 
L 1063.424197 725.433827 
L 1064.662454 1238.656968 
L 1137.719633 1238.656968 
L 1138.95789 725.433827 
L 1240.494986 725.433827 
L 1241.733243 1238.656968 
L 1488.14644 1238.656968 
L 1489.384697 725.433827 
L 1635.499055 725.433827 
L 1636.737312 1238.656968 
L 1637.975569 725.433827 
L 1641.690341 725.433827 
L 1641.690341 725.433827 
" style="fill:none;stroke:#008000;stroke-linecap:square;stroke-width:1.5;"/>
   </g>
   <g id="patch_8">
    <path d="M 43.78125 1264.318125 
L 43.78125 699.77267 
" style="fill:none;stroke:#000000;stroke-linecap:square;stroke-linejoin:miter;stroke-width:0.8;"/>
   </g>
   <g id="patch_9">
    <path d="M 1717.78125 1264.318125 
L 1717.78125 699.77267 
" style="fill:none;stroke:#000000;stroke-linecap:square;stroke-linejoin:miter;stroke-width:0.8;"/>
   </g>
   <g id="patch_10">
    <path d="M 43.78125 1264.318125 
L 1717.78125 1264.318125 
" style="fill:none;stroke:#000000;stroke-linecap:square;stroke-linejoin:miter;stroke-width:0.8;"/>
   </g>
   <g id="patch_11">
    <path d="M 43.78125 699.77267 
L 1717.78125 699.77267 
" style="fill:none;stroke:#000000;stroke-linecap:square;stroke-linejoin:miter;stroke-width:0.8;"/>
   </g>
   <g id="text_30">
    <!-- before binarisation -->
    <g transform="translate(824.1825 693.77267)scale(0.12 -0.12)">
     <use xlink:href="#DejaVuSans-62"/>
     <use x="63.476562" xlink:href="#DejaVuSans-65"/>
     <use x="125" xlink:href="#DejaVuSans-66"/>
     <use x="160.205078" xlink:href="#DejaVuSans-6f"/>
     <use x="221.386719" xlink:href="#DejaVuSans-72"/>
     <use x="260.25" xlink:href="#DejaVuSans-65"/>
     <use x="321.773438" xlink:href="#DejaVuSans-20"/>
     <use x="353.560547" xlink:href="#DejaVuSans-62"/>
     <use x="417.037109" xlink:href="#DejaVuSans-69"/>
     <use x="444.820312" xlink:href="#DejaVuSans-6e"/>
     <use x="508.199219" xlink:href="#DejaVuSans-61"/>
     <use x="569.478516" xlink:href="#DejaVuSans-72"/>
     <use x="610.591797" xlink:href="#DejaVuSans-69"/>
     <use x="638.375" xlink:href="#DejaVuSans-73"/>
     <use x="690.474609" xlink:href="#DejaVuSans-61"/>
     <use x="751.753906" xlink:href="#DejaVuSans-74"/>
     <use x="790.962891" xlink:href="#DejaVuSans-69"/>
     <use x="818.746094" xlink:href="#DejaVuSans-6f"/>
     <use x="879.927734" xlink:href="#DejaVuSans-6e"/>
    </g>
   </g>
  </g>
 </g>
 <defs>
  <clipPath id="pefc492a33b">
   <rect height="564.545455" width="1674" x="43.78125" y="22.318125"/>
  </clipPath>
  <clipPath id="pc9a209ec51">
   <rect height="564.545455" width="1674" x="43.78125" y="699.77267"/>
  </clipPath>
 </defs>
</svg>
