<?xml version="1.0" encoding="utf-8" standalone="no"?>
<!DOCTYPE svg PUBLIC "-//W3C//DTD SVG 1.1//EN"
  "http://www.w3.org/Graphics/SVG/1.1/DTD/svg11.dtd">
<svg height="1301.874375pt" version="1.1" viewBox="0 0 1724.98125 1301.874375" width="1724.98125pt" xmlns="http://www.w3.org/2000/svg" xmlns:xlink="http://www.w3.org/1999/xlink">
 <metadata>
  <rdf:RDF xmlns:cc="http://creativecommons.org/ns#" xmlns:dc="http://purl.org/dc/elements/1.1/" xmlns:rdf="http://www.w3.org/1999/02/22-rdf-syntax-ns#">
   <cc:Work>
    <dc:type rdf:resource="http://purl.org/dc/dcmitype/StillImage"/>
    <dc:date>2022-07-24T15:54:36.719602</dc:date>
    <dc:format>image/svg+xml</dc:format>
    <dc:creator>
     <cc:Agent>
      <dc:title>Matplotlib v3.4.2, https://matplotlib.org/</dc:title>
     </cc:Agent>
    </dc:creator>
   </cc:Work>
  </rdf:RDF>
 </metadata>
 <defs>
  <style type="text/css">*{stroke-linecap:butt;stroke-linejoin:round;}</style>
 </defs>
 <g id="figure_1">
  <g id="patch_1">
   <path d="M 0 1301.874375 
L 1724.98125 1301.874375 
L 1724.98125 0 
L 0 0 
z
" style="fill:#ffffff;"/>
  </g>
  <g id="axes_1">
   <g id="patch_2">
    <path d="M 43.78125 586.86358 
L 1717.78125 586.86358 
L 1717.78125 22.318125 
L 43.78125 22.318125 
z
" style="fill:#ffffff;"/>
   </g>
   <g id="matplotlib.axis_1">
    <g id="xtick_1">
     <g id="line2d_1">
      <defs>
       <path d="M 0 0 
L 0 3.5 
" id="ma066d1d8e3" style="stroke:#000000;stroke-width:0.8;"/>
      </defs>
      <g>
       <use style="stroke:#000000;stroke-width:0.8;" x="119.872159" xlink:href="#ma066d1d8e3" y="586.86358"/>
      </g>
     </g>
     <g id="text_1">
      <!-- 0 -->
      <g transform="translate(116.690909 601.462017)scale(0.1 -0.1)">
       <defs>
        <path d="M 2034 4250 
Q 1547 4250 1301 3770 
Q 1056 3291 1056 2328 
Q 1056 1369 1301 889 
Q 1547 409 2034 409 
Q 2525 409 2770 889 
Q 3016 1369 3016 2328 
Q 3016 3291 2770 3770 
Q 2525 4250 2034 4250 
z
M 2034 4750 
Q 2819 4750 3233 4129 
Q 3647 3509 3647 2328 
Q 3647 1150 3233 529 
Q 2819 -91 2034 -91 
Q 1250 -91 836 529 
Q 422 1150 422 2328 
Q 422 3509 836 4129 
Q 1250 4750 2034 4750 
z
" id="DejaVuSans-30" transform="scale(0.015625)"/>
       </defs>
       <use xlink:href="#DejaVuSans-30"/>
      </g>
     </g>
    </g>
    <g id="xtick_2">
     <g id="line2d_2">
      <g>
       <use style="stroke:#000000;stroke-width:0.8;" x="367.523613" xlink:href="#ma066d1d8e3" y="586.86358"/>
      </g>
     </g>
     <g id="text_2">
      <!-- 200 -->
      <g transform="translate(357.979863 601.462017)scale(0.1 -0.1)">
       <defs>
        <path d="M 1228 531 
L 3431 531 
L 3431 0 
L 469 0 
L 469 531 
Q 828 903 1448 1529 
Q 2069 2156 2228 2338 
Q 2531 2678 2651 2914 
Q 2772 3150 2772 3378 
Q 2772 3750 2511 3984 
Q 2250 4219 1831 4219 
Q 1534 4219 1204 4116 
Q 875 4013 500 3803 
L 500 4441 
Q 881 4594 1212 4672 
Q 1544 4750 1819 4750 
Q 2544 4750 2975 4387 
Q 3406 4025 3406 3419 
Q 3406 3131 3298 2873 
Q 3191 2616 2906 2266 
Q 2828 2175 2409 1742 
Q 1991 1309 1228 531 
z
" id="DejaVuSans-32" transform="scale(0.015625)"/>
       </defs>
       <use xlink:href="#DejaVuSans-32"/>
       <use x="63.623047" xlink:href="#DejaVuSans-30"/>
       <use x="127.246094" xlink:href="#DejaVuSans-30"/>
      </g>
     </g>
    </g>
    <g id="xtick_3">
     <g id="line2d_3">
      <g>
       <use style="stroke:#000000;stroke-width:0.8;" x="615.175066" xlink:href="#ma066d1d8e3" y="586.86358"/>
      </g>
     </g>
     <g id="text_3">
      <!-- 400 -->
      <g transform="translate(605.631316 601.462017)scale(0.1 -0.1)">
       <defs>
        <path d="M 2419 4116 
L 825 1625 
L 2419 1625 
L 2419 4116 
z
M 2253 4666 
L 3047 4666 
L 3047 1625 
L 3713 1625 
L 3713 1100 
L 3047 1100 
L 3047 0 
L 2419 0 
L 2419 1100 
L 313 1100 
L 313 1709 
L 2253 4666 
z
" id="DejaVuSans-34" transform="scale(0.015625)"/>
       </defs>
       <use xlink:href="#DejaVuSans-34"/>
       <use x="63.623047" xlink:href="#DejaVuSans-30"/>
       <use x="127.246094" xlink:href="#DejaVuSans-30"/>
      </g>
     </g>
    </g>
    <g id="xtick_4">
     <g id="line2d_4">
      <g>
       <use style="stroke:#000000;stroke-width:0.8;" x="862.82652" xlink:href="#ma066d1d8e3" y="586.86358"/>
      </g>
     </g>
     <g id="text_4">
      <!-- 600 -->
      <g transform="translate(853.28277 601.462017)scale(0.1 -0.1)">
       <defs>
        <path d="M 2113 2584 
Q 1688 2584 1439 2293 
Q 1191 2003 1191 1497 
Q 1191 994 1439 701 
Q 1688 409 2113 409 
Q 2538 409 2786 701 
Q 3034 994 3034 1497 
Q 3034 2003 2786 2293 
Q 2538 2584 2113 2584 
z
M 3366 4563 
L 3366 3988 
Q 3128 4100 2886 4159 
Q 2644 4219 2406 4219 
Q 1781 4219 1451 3797 
Q 1122 3375 1075 2522 
Q 1259 2794 1537 2939 
Q 1816 3084 2150 3084 
Q 2853 3084 3261 2657 
Q 3669 2231 3669 1497 
Q 3669 778 3244 343 
Q 2819 -91 2113 -91 
Q 1303 -91 875 529 
Q 447 1150 447 2328 
Q 447 3434 972 4092 
Q 1497 4750 2381 4750 
Q 2619 4750 2861 4703 
Q 3103 4656 3366 4563 
z
" id="DejaVuSans-36" transform="scale(0.015625)"/>
       </defs>
       <use xlink:href="#DejaVuSans-36"/>
       <use x="63.623047" xlink:href="#DejaVuSans-30"/>
       <use x="127.246094" xlink:href="#DejaVuSans-30"/>
      </g>
     </g>
    </g>
    <g id="xtick_5">
     <g id="line2d_5">
      <g>
       <use style="stroke:#000000;stroke-width:0.8;" x="1110.477973" xlink:href="#ma066d1d8e3" y="586.86358"/>
      </g>
     </g>
     <g id="text_5">
      <!-- 800 -->
      <g transform="translate(1100.934223 601.462017)scale(0.1 -0.1)">
       <defs>
        <path d="M 2034 2216 
Q 1584 2216 1326 1975 
Q 1069 1734 1069 1313 
Q 1069 891 1326 650 
Q 1584 409 2034 409 
Q 2484 409 2743 651 
Q 3003 894 3003 1313 
Q 3003 1734 2745 1975 
Q 2488 2216 2034 2216 
z
M 1403 2484 
Q 997 2584 770 2862 
Q 544 3141 544 3541 
Q 544 4100 942 4425 
Q 1341 4750 2034 4750 
Q 2731 4750 3128 4425 
Q 3525 4100 3525 3541 
Q 3525 3141 3298 2862 
Q 3072 2584 2669 2484 
Q 3125 2378 3379 2068 
Q 3634 1759 3634 1313 
Q 3634 634 3220 271 
Q 2806 -91 2034 -91 
Q 1263 -91 848 271 
Q 434 634 434 1313 
Q 434 1759 690 2068 
Q 947 2378 1403 2484 
z
M 1172 3481 
Q 1172 3119 1398 2916 
Q 1625 2713 2034 2713 
Q 2441 2713 2670 2916 
Q 2900 3119 2900 3481 
Q 2900 3844 2670 4047 
Q 2441 4250 2034 4250 
Q 1625 4250 1398 4047 
Q 1172 3844 1172 3481 
z
" id="DejaVuSans-38" transform="scale(0.015625)"/>
       </defs>
       <use xlink:href="#DejaVuSans-38"/>
       <use x="63.623047" xlink:href="#DejaVuSans-30"/>
       <use x="127.246094" xlink:href="#DejaVuSans-30"/>
      </g>
     </g>
    </g>
    <g id="xtick_6">
     <g id="line2d_6">
      <g>
       <use style="stroke:#000000;stroke-width:0.8;" x="1358.129427" xlink:href="#ma066d1d8e3" y="586.86358"/>
      </g>
     </g>
     <g id="text_6">
      <!-- 1000 -->
      <g transform="translate(1345.404427 601.462017)scale(0.1 -0.1)">
       <defs>
        <path d="M 794 531 
L 1825 531 
L 1825 4091 
L 703 3866 
L 703 4441 
L 1819 4666 
L 2450 4666 
L 2450 531 
L 3481 531 
L 3481 0 
L 794 0 
L 794 531 
z
" id="DejaVuSans-31" transform="scale(0.015625)"/>
       </defs>
       <use xlink:href="#DejaVuSans-31"/>
       <use x="63.623047" xlink:href="#DejaVuSans-30"/>
       <use x="127.246094" xlink:href="#DejaVuSans-30"/>
       <use x="190.869141" xlink:href="#DejaVuSans-30"/>
      </g>
     </g>
    </g>
    <g id="xtick_7">
     <g id="line2d_7">
      <g>
       <use style="stroke:#000000;stroke-width:0.8;" x="1605.78088" xlink:href="#ma066d1d8e3" y="586.86358"/>
      </g>
     </g>
     <g id="text_7">
      <!-- 1200 -->
      <g transform="translate(1593.05588 601.462017)scale(0.1 -0.1)">
       <use xlink:href="#DejaVuSans-31"/>
       <use x="63.623047" xlink:href="#DejaVuSans-32"/>
       <use x="127.246094" xlink:href="#DejaVuSans-30"/>
       <use x="190.869141" xlink:href="#DejaVuSans-30"/>
      </g>
     </g>
    </g>
    <g id="text_8">
     <!-- frame -->
     <g transform="translate(865.954687 615.140142)scale(0.1 -0.1)">
      <defs>
       <path d="M 2375 4863 
L 2375 4384 
L 1825 4384 
Q 1516 4384 1395 4259 
Q 1275 4134 1275 3809 
L 1275 3500 
L 2222 3500 
L 2222 3053 
L 1275 3053 
L 1275 0 
L 697 0 
L 697 3053 
L 147 3053 
L 147 3500 
L 697 3500 
L 697 3744 
Q 697 4328 969 4595 
Q 1241 4863 1831 4863 
L 2375 4863 
z
" id="DejaVuSans-66" transform="scale(0.015625)"/>
       <path d="M 2631 2963 
Q 2534 3019 2420 3045 
Q 2306 3072 2169 3072 
Q 1681 3072 1420 2755 
Q 1159 2438 1159 1844 
L 1159 0 
L 581 0 
L 581 3500 
L 1159 3500 
L 1159 2956 
Q 1341 3275 1631 3429 
Q 1922 3584 2338 3584 
Q 2397 3584 2469 3576 
Q 2541 3569 2628 3553 
L 2631 2963 
z
" id="DejaVuSans-72" transform="scale(0.015625)"/>
       <path d="M 2194 1759 
Q 1497 1759 1228 1600 
Q 959 1441 959 1056 
Q 959 750 1161 570 
Q 1363 391 1709 391 
Q 2188 391 2477 730 
Q 2766 1069 2766 1631 
L 2766 1759 
L 2194 1759 
z
M 3341 1997 
L 3341 0 
L 2766 0 
L 2766 531 
Q 2569 213 2275 61 
Q 1981 -91 1556 -91 
Q 1019 -91 701 211 
Q 384 513 384 1019 
Q 384 1609 779 1909 
Q 1175 2209 1959 2209 
L 2766 2209 
L 2766 2266 
Q 2766 2663 2505 2880 
Q 2244 3097 1772 3097 
Q 1472 3097 1187 3025 
Q 903 2953 641 2809 
L 641 3341 
Q 956 3463 1253 3523 
Q 1550 3584 1831 3584 
Q 2591 3584 2966 3190 
Q 3341 2797 3341 1997 
z
" id="DejaVuSans-61" transform="scale(0.015625)"/>
       <path d="M 3328 2828 
Q 3544 3216 3844 3400 
Q 4144 3584 4550 3584 
Q 5097 3584 5394 3201 
Q 5691 2819 5691 2113 
L 5691 0 
L 5113 0 
L 5113 2094 
Q 5113 2597 4934 2840 
Q 4756 3084 4391 3084 
Q 3944 3084 3684 2787 
Q 3425 2491 3425 1978 
L 3425 0 
L 2847 0 
L 2847 2094 
Q 2847 2600 2669 2842 
Q 2491 3084 2119 3084 
Q 1678 3084 1418 2786 
Q 1159 2488 1159 1978 
L 1159 0 
L 581 0 
L 581 3500 
L 1159 3500 
L 1159 2956 
Q 1356 3278 1631 3431 
Q 1906 3584 2284 3584 
Q 2666 3584 2933 3390 
Q 3200 3197 3328 2828 
z
" id="DejaVuSans-6d" transform="scale(0.015625)"/>
       <path d="M 3597 1894 
L 3597 1613 
L 953 1613 
Q 991 1019 1311 708 
Q 1631 397 2203 397 
Q 2534 397 2845 478 
Q 3156 559 3463 722 
L 3463 178 
Q 3153 47 2828 -22 
Q 2503 -91 2169 -91 
Q 1331 -91 842 396 
Q 353 884 353 1716 
Q 353 2575 817 3079 
Q 1281 3584 2069 3584 
Q 2775 3584 3186 3129 
Q 3597 2675 3597 1894 
z
M 3022 2063 
Q 3016 2534 2758 2815 
Q 2500 3097 2075 3097 
Q 1594 3097 1305 2825 
Q 1016 2553 972 2059 
L 3022 2063 
z
" id="DejaVuSans-65" transform="scale(0.015625)"/>
      </defs>
      <use xlink:href="#DejaVuSans-66"/>
      <use x="35.205078" xlink:href="#DejaVuSans-72"/>
      <use x="76.318359" xlink:href="#DejaVuSans-61"/>
      <use x="137.597656" xlink:href="#DejaVuSans-6d"/>
      <use x="235.009766" xlink:href="#DejaVuSans-65"/>
     </g>
    </g>
   </g>
   <g id="matplotlib.axis_2">
    <g id="ytick_1">
     <g id="line2d_8">
      <defs>
       <path d="M 0 0 
L -3.5 0 
" id="mf2e7165993" style="stroke:#000000;stroke-width:0.8;"/>
      </defs>
      <g>
       <use style="stroke:#000000;stroke-width:0.8;" x="43.78125" xlink:href="#mf2e7165993" y="561.202423"/>
      </g>
     </g>
     <g id="text_9">
      <!-- 0 -->
      <g transform="translate(30.41875 565.001641)scale(0.1 -0.1)">
       <use xlink:href="#DejaVuSans-30"/>
      </g>
     </g>
    </g>
    <g id="ytick_2">
     <g id="line2d_9">
      <g>
       <use style="stroke:#000000;stroke-width:0.8;" x="43.78125" xlink:href="#mf2e7165993" y="470.064983"/>
      </g>
     </g>
     <g id="text_10">
      <!-- 2 -->
      <g transform="translate(30.41875 473.864202)scale(0.1 -0.1)">
       <use xlink:href="#DejaVuSans-32"/>
      </g>
     </g>
    </g>
    <g id="ytick_3">
     <g id="line2d_10">
      <g>
       <use style="stroke:#000000;stroke-width:0.8;" x="43.78125" xlink:href="#mf2e7165993" y="378.927543"/>
      </g>
     </g>
     <g id="text_11">
      <!-- 4 -->
      <g transform="translate(30.41875 382.726762)scale(0.1 -0.1)">
       <use xlink:href="#DejaVuSans-34"/>
      </g>
     </g>
    </g>
    <g id="ytick_4">
     <g id="line2d_11">
      <g>
       <use style="stroke:#000000;stroke-width:0.8;" x="43.78125" xlink:href="#mf2e7165993" y="287.790103"/>
      </g>
     </g>
     <g id="text_12">
      <!-- 6 -->
      <g transform="translate(30.41875 291.589322)scale(0.1 -0.1)">
       <use xlink:href="#DejaVuSans-36"/>
      </g>
     </g>
    </g>
    <g id="ytick_5">
     <g id="line2d_12">
      <g>
       <use style="stroke:#000000;stroke-width:0.8;" x="43.78125" xlink:href="#mf2e7165993" y="196.652663"/>
      </g>
     </g>
     <g id="text_13">
      <!-- 8 -->
      <g transform="translate(30.41875 200.451882)scale(0.1 -0.1)">
       <use xlink:href="#DejaVuSans-38"/>
      </g>
     </g>
    </g>
    <g id="ytick_6">
     <g id="line2d_13">
      <g>
       <use style="stroke:#000000;stroke-width:0.8;" x="43.78125" xlink:href="#mf2e7165993" y="105.515224"/>
      </g>
     </g>
     <g id="text_14">
      <!-- 10 -->
      <g transform="translate(24.05625 109.314442)scale(0.1 -0.1)">
       <use xlink:href="#DejaVuSans-31"/>
       <use x="63.623047" xlink:href="#DejaVuSans-30"/>
      </g>
     </g>
    </g>
    <g id="text_15">
     <!-- GCaMP -->
     <g transform="translate(17.976562 322.349446)rotate(-90)scale(0.1 -0.1)">
      <defs>
       <path d="M 3809 666 
L 3809 1919 
L 2778 1919 
L 2778 2438 
L 4434 2438 
L 4434 434 
Q 4069 175 3628 42 
Q 3188 -91 2688 -91 
Q 1594 -91 976 548 
Q 359 1188 359 2328 
Q 359 3472 976 4111 
Q 1594 4750 2688 4750 
Q 3144 4750 3555 4637 
Q 3966 4525 4313 4306 
L 4313 3634 
Q 3963 3931 3569 4081 
Q 3175 4231 2741 4231 
Q 1884 4231 1454 3753 
Q 1025 3275 1025 2328 
Q 1025 1384 1454 906 
Q 1884 428 2741 428 
Q 3075 428 3337 486 
Q 3600 544 3809 666 
z
" id="DejaVuSans-47" transform="scale(0.015625)"/>
       <path d="M 4122 4306 
L 4122 3641 
Q 3803 3938 3442 4084 
Q 3081 4231 2675 4231 
Q 1875 4231 1450 3742 
Q 1025 3253 1025 2328 
Q 1025 1406 1450 917 
Q 1875 428 2675 428 
Q 3081 428 3442 575 
Q 3803 722 4122 1019 
L 4122 359 
Q 3791 134 3420 21 
Q 3050 -91 2638 -91 
Q 1578 -91 968 557 
Q 359 1206 359 2328 
Q 359 3453 968 4101 
Q 1578 4750 2638 4750 
Q 3056 4750 3426 4639 
Q 3797 4528 4122 4306 
z
" id="DejaVuSans-43" transform="scale(0.015625)"/>
       <path d="M 628 4666 
L 1569 4666 
L 2759 1491 
L 3956 4666 
L 4897 4666 
L 4897 0 
L 4281 0 
L 4281 4097 
L 3078 897 
L 2444 897 
L 1241 4097 
L 1241 0 
L 628 0 
L 628 4666 
z
" id="DejaVuSans-4d" transform="scale(0.015625)"/>
       <path d="M 1259 4147 
L 1259 2394 
L 2053 2394 
Q 2494 2394 2734 2622 
Q 2975 2850 2975 3272 
Q 2975 3691 2734 3919 
Q 2494 4147 2053 4147 
L 1259 4147 
z
M 628 4666 
L 2053 4666 
Q 2838 4666 3239 4311 
Q 3641 3956 3641 3272 
Q 3641 2581 3239 2228 
Q 2838 1875 2053 1875 
L 1259 1875 
L 1259 0 
L 628 0 
L 628 4666 
z
" id="DejaVuSans-50" transform="scale(0.015625)"/>
      </defs>
      <use xlink:href="#DejaVuSans-47"/>
      <use x="77.490234" xlink:href="#DejaVuSans-43"/>
      <use x="147.314453" xlink:href="#DejaVuSans-61"/>
      <use x="208.59375" xlink:href="#DejaVuSans-4d"/>
      <use x="294.873047" xlink:href="#DejaVuSans-50"/>
     </g>
    </g>
   </g>
   <g id="line2d_14">
    <path clip-path="url(#p95e7cdc84a)" d="M 119.872159 430.183095 
L 121.110416 432.391116 
L 122.348674 434.170956 
L 123.586931 435.300285 
L 126.063445 436.821684 
L 131.016474 441.039169 
L 132.254732 442.72197 
L 134.731246 447.565145 
L 135.969504 449.319558 
L 137.207761 449.769193 
L 138.446018 448.966967 
L 140.922533 445.929954 
L 142.16079 445.107412 
L 143.399047 445.250082 
L 144.637304 446.159842 
L 148.352076 449.846042 
L 149.590334 451.216331 
L 150.828591 452.420053 
L 152.066848 453.051846 
L 153.305105 453.019717 
L 155.78162 452.137631 
L 157.019877 451.901693 
L 158.258134 451.99542 
L 159.496392 452.458829 
L 160.734649 453.283877 
L 161.972906 454.419528 
L 164.449421 456.98528 
L 165.687678 458.083926 
L 166.925935 458.941716 
L 168.164193 459.545838 
L 169.40245 459.93577 
L 171.878964 460.477368 
L 175.593736 461.542619 
L 176.831993 461.287035 
L 178.070251 460.373056 
L 181.785022 456.391801 
L 183.02328 455.745544 
L 184.261537 455.983391 
L 185.499794 457.134061 
L 187.976309 460.47909 
L 189.214566 461.759103 
L 190.452823 462.32646 
L 191.691081 462.052751 
L 192.929338 461.113595 
L 195.405852 458.774887 
L 196.64411 457.899623 
L 197.882367 457.423828 
L 199.120624 457.423128 
L 200.358881 457.837587 
L 201.597139 458.577111 
L 202.835396 459.613411 
L 204.073653 460.801728 
L 205.311911 461.698248 
L 206.550168 461.834692 
L 209.026682 460.684755 
L 210.26494 460.566888 
L 211.503197 460.981219 
L 212.741454 461.541245 
L 213.979711 461.718278 
L 215.217969 461.26711 
L 217.694483 459.32758 
L 218.93274 458.664435 
L 220.170998 458.648853 
L 222.647512 459.369287 
L 223.88577 459.296358 
L 226.362284 458.569763 
L 227.600541 457.961608 
L 228.838799 456.963418 
L 231.315313 454.260934 
L 232.55357 453.215945 
L 233.791828 452.59284 
L 236.268342 451.870176 
L 238.744857 451.399513 
L 239.983114 451.404439 
L 241.221371 451.675107 
L 242.459629 452.350076 
L 244.936143 454.44751 
L 246.1744 454.907723 
L 247.412658 454.797599 
L 249.889172 453.908589 
L 251.127429 453.478288 
L 252.365687 453.389194 
L 253.603944 453.858473 
L 257.318716 456.711523 
L 258.556973 457.042843 
L 259.79523 456.508089 
L 261.033488 454.943788 
L 263.510002 450.447379 
L 264.748259 448.952841 
L 265.986517 448.391818 
L 267.224774 448.638563 
L 268.463031 449.438428 
L 270.939546 451.480173 
L 272.177803 452.124584 
L 273.41606 452.32134 
L 274.654318 452.189669 
L 275.892575 451.737536 
L 277.130832 450.80949 
L 278.369089 449.366727 
L 279.607347 447.680539 
L 280.845604 446.283226 
L 282.083861 445.579239 
L 283.322118 445.505357 
L 284.560376 445.644028 
L 285.798633 445.629639 
L 287.03689 445.500093 
L 288.275147 445.604699 
L 289.513405 446.041327 
L 290.751662 446.340354 
L 291.989919 445.947764 
L 293.228177 444.858948 
L 294.466434 443.601971 
L 295.704691 442.759467 
L 296.942948 442.469299 
L 298.181206 442.300705 
L 299.419463 441.795705 
L 301.895977 440.287149 
L 303.134235 439.823873 
L 304.372492 439.78014 
L 305.610749 440.306402 
L 308.087264 442.086133 
L 311.802036 444.277577 
L 313.040293 445.121479 
L 314.27855 445.802224 
L 315.516807 446.273723 
L 316.755065 446.557028 
L 317.993322 446.472481 
L 319.231579 445.873842 
L 320.469836 445.093381 
L 321.708094 444.701407 
L 322.946351 444.901765 
L 326.661123 446.729434 
L 327.89938 446.737495 
L 329.137637 446.067348 
L 331.614152 443.853034 
L 332.852409 443.313367 
L 334.090666 443.408969 
L 336.567181 444.225903 
L 337.805438 443.762531 
L 339.043695 441.723269 
L 341.52021 434.626542 
L 342.758467 432.684562 
L 343.996725 432.954625 
L 345.234982 434.635638 
L 346.473239 436.549334 
L 347.711496 437.994257 
L 348.949754 438.756232 
L 350.188011 438.82726 
L 355.14104 437.189457 
L 356.379297 436.999794 
L 357.617554 437.066304 
L 358.855812 437.414391 
L 360.094069 437.645303 
L 361.332326 437.279157 
L 362.570584 436.28748 
L 363.808841 435.137057 
L 365.047098 434.337321 
L 366.285355 434.048269 
L 367.523613 434.101419 
L 370.000127 434.528425 
L 371.238384 434.459558 
L 372.476642 433.792099 
L 374.953156 431.181294 
L 376.191413 430.398828 
L 377.429671 430.666172 
L 378.667928 431.766155 
L 381.144443 434.509584 
L 382.3827 435.564903 
L 383.620957 436.094457 
L 384.859214 436.094399 
L 386.097472 435.928563 
L 387.335729 435.961779 
L 389.812243 436.411083 
L 391.050501 436.22741 
L 392.288758 435.426197 
L 398.480044 428.617751 
L 400.956559 424.813936 
L 402.194816 423.480831 
L 403.433073 422.752779 
L 404.671331 422.414912 
L 405.909588 422.318801 
L 407.147845 422.671097 
L 408.386102 424.016492 
L 409.62436 426.713687 
L 412.100874 433.772872 
L 413.339132 436.145872 
L 414.577389 437.389811 
L 415.815646 437.898687 
L 417.053903 437.906045 
L 418.292161 437.55494 
L 419.530418 436.97159 
L 420.768675 436.068299 
L 422.006932 434.715071 
L 423.24519 433.125166 
L 424.483447 431.900675 
L 425.721704 431.501201 
L 428.198219 431.813795 
L 430.674733 431.859361 
L 431.912991 432.010231 
L 433.151248 431.674904 
L 434.389505 430.276268 
L 435.627762 427.708083 
L 439.342534 417.644366 
L 440.580791 415.421426 
L 441.819049 414.145889 
L 443.057306 413.756521 
L 444.295563 414.424345 
L 445.53382 416.421789 
L 446.772078 419.558672 
L 448.010335 423.068652 
L 449.248592 426.207388 
L 450.48685 428.536232 
L 451.725107 429.713361 
L 452.963364 429.621268 
L 454.201621 428.675116 
L 456.678136 426.497519 
L 459.15465 424.520103 
L 460.392908 424.011728 
L 462.869422 423.498261 
L 464.107679 423.516833 
L 465.345937 424.421044 
L 466.584194 426.409713 
L 469.060709 431.535968 
L 470.298966 433.557495 
L 471.537223 434.624172 
L 472.77548 434.177077 
L 474.013738 431.851334 
L 475.251995 427.881251 
L 476.490252 423.230645 
L 477.728509 419.209751 
L 478.966767 416.780751 
L 480.205024 416.104418 
L 481.443281 416.678012 
L 483.919796 418.966411 
L 485.158053 419.716303 
L 486.39631 420.135477 
L 487.634568 420.712151 
L 490.111082 422.505169 
L 491.349339 422.812773 
L 492.587597 422.435395 
L 495.064111 420.341837 
L 496.302368 419.75019 
L 497.540626 419.813574 
L 498.778883 420.066314 
L 501.255397 420.200736 
L 502.493655 420.779317 
L 504.970169 423.300224 
L 506.208427 423.869618 
L 507.446684 423.068615 
L 508.684941 421.039502 
L 511.161456 415.984233 
L 512.399713 413.916515 
L 513.63797 412.536665 
L 514.876227 411.938881 
L 516.114485 412.00399 
L 518.590999 412.926634 
L 519.829257 412.929181 
L 522.305771 411.927543 
L 523.544028 412.384635 
L 524.782286 414.067635 
L 526.020543 416.257245 
L 527.2588 417.830528 
L 528.497057 418.190532 
L 529.735315 417.598587 
L 530.973572 416.720325 
L 532.211829 416.078891 
L 533.450086 415.928645 
L 534.688344 416.255889 
L 535.926601 416.918362 
L 537.164858 417.885704 
L 538.403116 419.207501 
L 539.641373 420.731967 
L 540.87963 421.892316 
L 542.117887 422.012673 
L 543.356145 420.874615 
L 544.594402 418.776915 
L 547.070916 413.621238 
L 548.309174 411.506122 
L 549.547431 410.106902 
L 550.785688 409.114003 
L 552.023945 407.807132 
L 554.50046 404.031352 
L 555.738717 403.929509 
L 556.976975 406.189699 
L 558.215232 409.422439 
L 559.453489 411.527365 
L 560.691746 411.711752 
L 561.930004 410.62422 
L 563.168261 409.260217 
L 564.406518 408.294764 
L 565.644775 407.975404 
L 568.12129 408.210305 
L 569.359547 407.615463 
L 570.597804 406.16258 
L 571.836062 404.362292 
L 573.074319 403.129582 
L 574.312576 402.961201 
L 575.550834 403.562923 
L 576.789091 404.570044 
L 578.027348 406.132904 
L 579.265605 408.497188 
L 581.74212 414.126037 
L 582.980377 415.665287 
L 584.218634 415.47767 
L 585.456892 413.705657 
L 587.933406 408.444052 
L 589.171663 406.714792 
L 590.409921 406.487208 
L 592.886435 408.781064 
L 594.124693 408.22452 
L 595.36295 405.314204 
L 596.601207 401.444123 
L 597.839464 398.686282 
L 599.077722 397.896452 
L 600.315979 398.641525 
L 601.554236 400.291546 
L 604.030751 404.367362 
L 605.269008 405.76375 
L 606.507265 406.569764 
L 610.222037 408.371402 
L 611.460294 408.404694 
L 612.698552 407.757905 
L 613.936809 406.509024 
L 615.175066 404.977317 
L 616.413323 403.629362 
L 617.651581 402.85715 
L 620.128095 402.425008 
L 621.366352 401.774252 
L 623.842867 399.371292 
L 625.081124 399.376945 
L 626.319382 401.139125 
L 628.795896 406.618938 
L 630.034153 408.573586 
L 631.272411 409.541217 
L 632.510668 409.62516 
L 633.748925 409.28918 
L 634.987182 408.818572 
L 636.22544 408.090863 
L 637.463697 406.923064 
L 638.701954 405.535008 
L 639.940211 404.681058 
L 641.178469 404.875876 
L 642.416726 405.629795 
L 643.654983 405.950258 
L 644.893241 405.275664 
L 646.131498 403.74117 
L 647.369755 401.87637 
L 648.608012 400.216154 
L 649.84627 399.119284 
L 651.084527 398.802143 
L 652.322784 399.334949 
L 654.799299 401.396841 
L 656.037556 401.764669 
L 657.275813 401.785371 
L 658.51407 402.181251 
L 659.752328 403.216207 
L 660.990585 404.466628 
L 662.228842 405.419671 
L 663.4671 405.751777 
L 664.705357 405.179126 
L 665.943614 403.681484 
L 668.420129 400.054153 
L 669.658386 398.730958 
L 670.896643 397.863495 
L 672.1349 397.697015 
L 673.373158 398.320873 
L 674.611415 399.282344 
L 675.849672 399.891431 
L 677.087929 399.726627 
L 678.326187 398.809236 
L 683.279216 393.550251 
L 684.517473 392.070189 
L 685.75573 391.127735 
L 686.993988 391.066115 
L 688.232245 391.849526 
L 689.470502 393.224682 
L 691.947017 396.277428 
L 693.185274 397.356087 
L 695.661789 399.068042 
L 696.900046 399.777646 
L 698.138303 400.181228 
L 700.614818 400.589837 
L 701.853075 400.903474 
L 703.091332 401.07676 
L 704.329589 400.601194 
L 705.567847 399.181529 
L 708.044361 395.067539 
L 709.282618 393.477879 
L 710.520876 392.594095 
L 711.759133 392.377245 
L 714.235648 392.845711 
L 715.473905 392.647898 
L 716.712162 391.675231 
L 717.950419 390.24782 
L 719.188677 389.24954 
L 720.426934 389.244758 
L 724.141706 391.26501 
L 725.379963 391.294908 
L 726.61822 390.51146 
L 727.856477 388.88603 
L 730.332992 384.626603 
L 731.571249 383.205103 
L 734.047764 381.516011 
L 736.524278 379.510657 
L 737.762536 378.792453 
L 739.000793 378.383431 
L 740.23905 378.73254 
L 741.477307 380.729874 
L 742.715565 384.681558 
L 743.953822 389.45929 
L 745.192079 393.067132 
L 746.430336 394.012854 
L 747.668594 392.246056 
L 748.906851 389.121653 
L 750.145108 386.538321 
L 751.383366 385.820677 
L 752.621623 387.019833 
L 755.098137 391.342894 
L 756.336395 392.636301 
L 757.574652 392.72826 
L 758.812909 391.819169 
L 760.051166 390.675194 
L 761.289424 390.170215 
L 762.527681 390.598456 
L 763.765938 391.560597 
L 765.004195 392.263332 
L 766.242453 391.778271 
L 767.48071 389.813457 
L 768.718967 387.545432 
L 769.957225 386.88413 
L 771.195482 388.497332 
L 772.433739 391.172169 
L 773.671996 393.324556 
L 774.910254 394.445968 
L 776.148511 395.08926 
L 777.386768 395.971718 
L 778.625025 397.101042 
L 779.863283 397.875181 
L 781.10154 397.915981 
L 782.339797 397.266741 
L 783.578054 396.02709 
L 784.816312 394.298683 
L 787.292826 390.07579 
L 788.531084 388.393349 
L 789.769341 387.745927 
L 791.007598 387.96587 
L 794.72237 389.235145 
L 795.960627 390.257816 
L 797.198884 391.439995 
L 798.437142 391.849769 
L 799.675399 390.730582 
L 802.151914 385.775012 
L 803.390171 384.983679 
L 804.628428 386.878012 
L 805.866685 391.043168 
L 807.104943 396.049518 
L 808.3432 400.340594 
L 809.581457 402.836697 
L 810.819714 403.0787 
L 812.057972 401.317895 
L 813.296229 398.54527 
L 814.534486 396.095034 
L 815.772743 394.917891 
L 817.011001 395.169046 
L 818.249258 396.393972 
L 819.487515 397.911506 
L 820.725773 399.170958 
L 821.96403 399.917047 
L 823.202287 399.947721 
L 824.440544 398.963934 
L 825.678802 396.979143 
L 826.917059 394.640692 
L 828.155316 392.787842 
L 829.393573 391.858978 
L 830.631831 391.792935 
L 831.870088 392.119144 
L 833.108345 392.264515 
L 835.58486 392.010248 
L 836.823117 392.245708 
L 838.061374 392.81997 
L 839.299632 393.726778 
L 841.776146 396.198471 
L 843.014403 396.695498 
L 844.252661 396.084706 
L 846.729175 393.475996 
L 847.967432 392.830789 
L 849.20569 392.716521 
L 850.443947 392.441027 
L 851.682204 391.468521 
L 852.920461 390.175454 
L 854.158719 389.500795 
L 855.396976 389.860106 
L 856.635233 390.751577 
L 857.873491 391.337093 
L 859.111748 391.089427 
L 860.350005 389.897718 
L 861.588262 387.944574 
L 862.82652 385.702034 
L 864.064777 383.736279 
L 865.303034 382.406325 
L 866.541291 381.868038 
L 869.017806 382.133957 
L 870.256063 381.765054 
L 871.49432 380.959756 
L 872.732578 380.474966 
L 873.970835 380.944993 
L 876.44735 383.377386 
L 877.685607 384.286002 
L 878.923864 384.939894 
L 880.162121 385.289786 
L 881.400379 385.063585 
L 882.638636 384.020276 
L 883.876893 382.048505 
L 886.353408 376.519493 
L 887.591665 374.868149 
L 888.829922 375.231567 
L 890.06818 377.480139 
L 891.306437 380.28276 
L 892.544694 382.07667 
L 895.021209 383.109323 
L 896.259466 384.609527 
L 897.497723 386.989788 
L 898.73598 389.080028 
L 899.974238 389.760664 
L 901.212495 388.975814 
L 903.689009 386.03719 
L 904.927267 385.024168 
L 906.165524 384.724048 
L 907.403781 384.947728 
L 908.642039 384.987937 
L 909.880296 384.312817 
L 912.35681 381.747556 
L 913.595068 380.247597 
L 916.071582 376.846375 
L 917.309839 376.21463 
L 918.548097 377.13021 
L 919.786354 379.52734 
L 921.024611 382.979971 
L 922.262868 386.891698 
L 923.501126 390.372575 
L 924.739383 392.336917 
L 925.97764 392.099402 
L 927.215898 389.936991 
L 928.454155 386.694299 
L 930.930669 378.879823 
L 932.168927 375.002171 
L 933.407184 371.839179 
L 934.645441 369.822099 
L 935.883698 369.155878 
L 937.121956 369.755417 
L 939.59847 372.518435 
L 940.836727 373.671269 
L 942.074985 375.194118 
L 943.313242 377.618767 
L 944.551499 380.436842 
L 945.789757 382.539574 
L 947.028014 383.146564 
L 948.266271 381.947513 
L 949.504528 379.048091 
L 951.981043 371.565332 
L 953.2193 369.055015 
L 954.457557 368.098043 
L 955.695815 368.68558 
L 956.934072 370.398734 
L 958.172329 372.421815 
L 959.410586 373.882391 
L 960.648844 374.401928 
L 963.125358 374.217048 
L 964.363616 374.607346 
L 965.601873 375.510369 
L 966.84013 376.82808 
L 969.316645 380.052016 
L 970.554902 380.676491 
L 971.793159 379.710402 
L 973.031416 377.45955 
L 974.269674 374.887595 
L 975.507931 372.996591 
L 976.746188 372.390254 
L 977.984446 373.112303 
L 980.46096 376.215655 
L 981.699217 376.987992 
L 982.937475 376.771214 
L 984.175732 375.771206 
L 986.652246 373.170026 
L 987.890504 372.242094 
L 989.128761 371.665343 
L 990.367018 371.661683 
L 991.605275 372.535077 
L 992.843533 374.361898 
L 995.320047 379.134934 
L 996.558305 380.205725 
L 997.796562 379.363319 
L 999.034819 376.871549 
L 1000.273076 373.708815 
L 1001.511334 371.0193 
L 1002.749591 369.742887 
L 1003.987848 370.318422 
L 1005.226105 372.497187 
L 1007.70262 378.207846 
L 1008.940877 379.396851 
L 1010.179134 378.35039 
L 1012.655649 372.755834 
L 1013.893906 371.154207 
L 1015.132164 371.659786 
L 1016.370421 374.320143 
L 1018.846935 382.311202 
L 1020.085193 385.457706 
L 1021.32345 387.351107 
L 1022.561707 387.858461 
L 1023.799964 386.99062 
L 1025.038222 385.031522 
L 1026.276479 382.427282 
L 1028.752993 376.478361 
L 1029.991251 373.920629 
L 1031.229508 372.474921 
L 1033.706023 371.623436 
L 1036.182537 369.069752 
L 1037.420794 368.891853 
L 1038.659052 370.163992 
L 1039.897309 371.903181 
L 1041.135566 373.064916 
L 1044.850338 374.674388 
L 1046.088595 374.492774 
L 1047.326852 372.756011 
L 1049.803367 366.861352 
L 1051.041624 364.960728 
L 1052.279882 364.699865 
L 1053.518139 366.229153 
L 1054.756396 369.12038 
L 1055.994653 372.399267 
L 1057.232911 375.137002 
L 1058.471168 376.934848 
L 1059.709425 377.754791 
L 1060.947682 377.622407 
L 1063.424197 375.877645 
L 1064.662454 375.417757 
L 1065.900711 375.520202 
L 1068.377226 376.218616 
L 1069.615483 376.130352 
L 1072.091998 375.275998 
L 1073.330255 375.218801 
L 1074.568512 375.827562 
L 1075.80677 377.246377 
L 1077.045027 379.470484 
L 1078.283284 382.094626 
L 1079.521541 384.343139 
L 1080.759799 385.600767 
L 1081.998056 385.671538 
L 1083.236313 384.53483 
L 1085.712828 380.167572 
L 1086.951085 379.017465 
L 1088.189342 379.599139 
L 1090.665857 383.124061 
L 1091.904114 383.984454 
L 1093.142371 383.96807 
L 1094.380629 383.202892 
L 1095.618886 381.699936 
L 1098.0954 377.340642 
L 1099.333658 375.167786 
L 1100.571915 373.232407 
L 1101.810172 371.779241 
L 1103.04843 371.390308 
L 1104.286687 372.583447 
L 1105.524944 375.350785 
L 1108.001459 382.345195 
L 1109.239716 384.222662 
L 1110.477973 383.995868 
L 1111.71623 381.841365 
L 1114.192745 375.481562 
L 1115.431002 373.315968 
L 1116.669259 372.358538 
L 1117.907517 372.279376 
L 1120.384031 372.932274 
L 1121.622289 373.369596 
L 1122.860546 374.19384 
L 1126.575318 377.901435 
L 1127.813575 378.528657 
L 1129.051832 378.47792 
L 1130.290089 377.665724 
L 1131.528347 375.947604 
L 1132.766604 373.194027 
L 1134.004861 369.94909 
L 1135.243118 367.574201 
L 1136.481376 367.210306 
L 1137.719633 368.698329 
L 1138.95789 370.723192 
L 1140.196148 371.971056 
L 1141.434405 372.078783 
L 1142.672662 371.660047 
L 1143.910919 371.537162 
L 1145.149177 371.935497 
L 1147.625691 373.387835 
L 1148.863948 374.183156 
L 1150.102206 374.762904 
L 1151.340463 374.879843 
L 1152.57872 374.393896 
L 1153.816977 373.376452 
L 1155.055235 372.131746 
L 1156.293492 371.06764 
L 1157.531749 370.533197 
L 1158.770007 370.657857 
L 1161.246521 371.923477 
L 1162.484778 372.272041 
L 1163.723036 372.360672 
L 1164.961293 372.734528 
L 1166.19955 373.839666 
L 1168.676065 376.89087 
L 1169.914322 377.605816 
L 1171.152579 377.380202 
L 1172.390837 376.292394 
L 1176.105608 371.253563 
L 1177.343866 370.022738 
L 1178.582123 369.259305 
L 1179.82038 368.862352 
L 1182.296895 368.695808 
L 1183.535152 368.705768 
L 1184.773409 369.148205 
L 1186.011666 370.532233 
L 1188.488181 374.63125 
L 1189.726438 375.733146 
L 1190.964696 375.909602 
L 1192.202953 375.529445 
L 1193.44121 374.772261 
L 1194.679467 373.274933 
L 1195.917725 370.48428 
L 1199.632496 358.613208 
L 1200.870754 357.379223 
L 1202.109011 358.705313 
L 1203.347268 362.452201 
L 1205.823783 372.93655 
L 1207.06204 376.163731 
L 1208.300297 376.613231 
L 1209.538555 374.577828 
L 1212.015069 367.85071 
L 1213.253326 365.984076 
L 1214.491584 365.647968 
L 1215.729841 366.298511 
L 1216.968098 367.6019 
L 1218.206355 369.573738 
L 1219.444613 372.287504 
L 1220.68287 375.361982 
L 1221.921127 377.699964 
L 1223.159384 378.2597 
L 1224.397642 377.171997 
L 1226.874156 373.618653 
L 1228.112414 371.344891 
L 1230.588928 365.874597 
L 1231.827185 364.007471 
L 1233.065443 362.98403 
L 1235.541957 361.706685 
L 1238.018472 359.628108 
L 1239.256729 359.466176 
L 1240.494986 360.550283 
L 1241.733243 362.655921 
L 1242.971501 365.288004 
L 1244.209758 367.563425 
L 1245.448015 368.412005 
L 1246.686273 367.629359 
L 1247.92453 366.239524 
L 1249.162787 365.323705 
L 1251.639302 364.651745 
L 1252.877559 363.816236 
L 1254.115816 362.444553 
L 1255.354073 360.830213 
L 1256.592331 359.499387 
L 1257.830588 359.032247 
L 1260.307103 359.883874 
L 1261.54536 359.184791 
L 1262.783617 356.583543 
L 1264.021874 352.071052 
L 1266.498389 341.616815 
L 1267.736646 337.682704 
L 1268.974903 334.168525 
L 1272.689675 322.798644 
L 1273.927932 320.729829 
L 1275.16619 320.671705 
L 1276.404447 322.885065 
L 1278.880962 330.878423 
L 1280.119219 333.635323 
L 1281.357476 334.445841 
L 1282.595733 333.924493 
L 1283.833991 333.255385 
L 1285.072248 333.350812 
L 1286.310505 334.630087 
L 1287.548762 337.01353 
L 1288.78702 339.72917 
L 1290.025277 341.750255 
L 1291.263534 342.487669 
L 1292.501791 341.785085 
L 1293.740049 339.943466 
L 1294.978306 337.788935 
L 1296.216563 336.163405 
L 1297.454821 335.48795 
L 1298.693078 335.737959 
L 1301.169592 337.194704 
L 1302.40785 337.272044 
L 1303.646107 336.600486 
L 1304.884364 335.552363 
L 1306.122621 334.801038 
L 1307.360879 334.809646 
L 1308.599136 335.48692 
L 1309.837393 336.310622 
L 1311.07565 336.778949 
L 1312.313908 336.693664 
L 1313.552165 335.966078 
L 1316.02868 333.053673 
L 1317.266937 332.053455 
L 1318.505194 331.364566 
L 1319.743451 329.862327 
L 1320.981709 326.942176 
L 1322.219966 323.39388 
L 1323.458223 320.930453 
L 1324.69648 321.159562 
L 1325.934738 324.522142 
L 1329.649509 340.741691 
L 1330.887767 344.292763 
L 1332.126024 346.018421 
L 1333.364281 345.915893 
L 1334.602539 344.479794 
L 1337.079053 340.472724 
L 1338.31731 338.915873 
L 1340.793825 336.597592 
L 1342.032082 334.548913 
L 1343.270339 330.872969 
L 1346.985111 315.319596 
L 1348.223368 311.67674 
L 1349.461626 309.477278 
L 1350.699883 308.580869 
L 1354.414655 307.938589 
L 1355.652912 307.546298 
L 1356.891169 306.770482 
L 1358.129427 304.649159 
L 1359.367684 300.452289 
L 1360.605941 295.016545 
L 1361.844198 290.468637 
L 1363.082456 288.083576 
L 1364.320713 287.2817 
L 1365.55897 287.049474 
L 1366.797228 287.379008 
L 1368.035485 289.040574 
L 1369.273742 292.409273 
L 1370.511999 296.717774 
L 1371.750257 300.533898 
L 1372.988514 302.841967 
L 1374.226771 303.358916 
L 1375.465028 302.011683 
L 1376.703286 298.727383 
L 1377.941543 293.799851 
L 1379.1798 288.198395 
L 1380.418057 283.345935 
L 1381.656315 280.133167 
L 1382.894572 278.451924 
L 1384.132829 278.339722 
L 1385.371087 280.590445 
L 1386.609344 285.482288 
L 1387.847601 291.712455 
L 1389.085858 297.114041 
L 1390.324116 300.143334 
L 1391.562373 300.470632 
L 1392.80063 298.629005 
L 1394.038887 295.524744 
L 1396.515402 288.497883 
L 1397.753659 285.334481 
L 1398.991916 282.781931 
L 1400.230174 280.705136 
L 1401.468431 278.332917 
L 1402.706688 275.039642 
L 1405.183203 266.857464 
L 1406.42146 263.372577 
L 1407.659717 260.689107 
L 1408.897975 258.65646 
L 1410.136232 257.481203 
L 1411.374489 257.6701 
L 1412.612746 259.444216 
L 1413.851004 262.448183 
L 1415.089261 265.887179 
L 1416.327518 268.922529 
L 1417.565775 270.852529 
L 1418.804033 271.232668 
L 1420.04229 270.500024 
L 1421.280547 270.076621 
L 1422.518805 271.30289 
L 1423.757062 274.520493 
L 1424.995319 279.206619 
L 1427.471834 290.700345 
L 1428.710091 296.379797 
L 1429.948348 300.855876 
L 1431.186605 303.4953 
L 1432.424863 304.307805 
L 1433.66312 303.858333 
L 1434.901377 302.815318 
L 1436.139634 301.584638 
L 1437.377892 300.568485 
L 1438.616149 300.577922 
L 1439.854406 302.220108 
L 1441.092664 304.887446 
L 1442.330921 307.165314 
L 1443.569178 308.02035 
L 1444.807435 307.110283 
L 1446.045693 304.636424 
L 1447.28395 301.089503 
L 1448.522207 296.583968 
L 1450.998722 285.677188 
L 1452.236979 282.095285 
L 1453.475236 281.111541 
L 1454.713494 281.819089 
L 1455.951751 282.864548 
L 1458.428265 284.536608 
L 1459.666523 285.845873 
L 1460.90478 288.028946 
L 1463.381294 294.016799 
L 1464.619552 295.28686 
L 1465.857809 293.783759 
L 1467.096066 290.107918 
L 1468.334323 286.039752 
L 1469.572581 283.088563 
L 1470.810838 281.639522 
L 1472.049095 281.020457 
L 1473.287353 280.13821 
L 1474.52561 278.269606 
L 1475.763867 275.65379 
L 1477.002124 273.331232 
L 1478.240382 271.745608 
L 1479.478639 269.839639 
L 1480.716896 266.309067 
L 1481.955153 260.758602 
L 1483.193411 253.254818 
L 1484.431668 244.054609 
L 1486.908182 223.494102 
L 1488.14644 214.3534 
L 1489.384697 208.020701 
L 1490.622954 205.629565 
L 1491.861212 207.190326 
L 1493.099469 211.84202 
L 1495.575983 224.455002 
L 1496.814241 229.118703 
L 1498.052498 231.373455 
L 1499.290755 231.027768 
L 1500.529012 228.270378 
L 1501.76727 224.232686 
L 1503.005527 220.92681 
L 1504.243784 219.854413 
L 1505.482041 221.102465 
L 1506.720299 223.684108 
L 1509.196813 229.728571 
L 1510.435071 233.799672 
L 1512.911585 243.846905 
L 1514.149842 248.158377 
L 1517.864614 259.572403 
L 1519.102871 262.465967 
L 1520.341129 263.027054 
L 1521.579386 261.067815 
L 1524.0559 254.561166 
L 1525.294158 253.404078 
L 1526.532415 255.501118 
L 1527.770672 260.400566 
L 1529.00893 265.97826 
L 1530.247187 270.102153 
L 1531.485444 271.930778 
L 1532.723701 271.952174 
L 1533.961959 271.407437 
L 1535.200216 271.685906 
L 1536.438473 273.656594 
L 1537.67673 277.280929 
L 1538.914988 281.692799 
L 1540.153245 285.468069 
L 1541.391502 287.38473 
L 1542.62976 287.131698 
L 1543.868017 284.908447 
L 1545.106274 280.824221 
L 1547.582789 270.110471 
L 1548.821046 266.362894 
L 1550.059303 264.226755 
L 1551.29756 262.868855 
L 1552.535818 261.967794 
L 1553.774075 262.049993 
L 1555.012332 263.528922 
L 1556.250589 266.1871 
L 1557.488847 270.000893 
L 1558.727104 275.497122 
L 1561.203619 289.184056 
L 1562.441876 294.090053 
L 1563.680133 296.52361 
L 1564.91839 296.271782 
L 1566.156648 293.201797 
L 1567.394905 287.67668 
L 1571.109677 267.415941 
L 1572.347934 262.412936 
L 1573.586191 258.893094 
L 1574.824448 257.099819 
L 1577.300963 255.901477 
L 1578.53922 254.65494 
L 1579.777478 253.008904 
L 1581.015735 251.137693 
L 1582.253992 248.82158 
L 1583.492249 246.086624 
L 1584.730507 243.684714 
L 1585.968764 242.579459 
L 1587.207021 242.797173 
L 1588.445278 243.423858 
L 1589.683536 243.857611 
L 1590.921793 244.036129 
L 1592.16005 243.615895 
L 1593.398307 242.033091 
L 1594.636565 239.251498 
L 1595.874822 235.616261 
L 1597.113079 230.876627 
L 1598.351337 224.143395 
L 1599.589594 214.976924 
L 1602.066108 192.883425 
L 1603.304366 183.278415 
L 1604.542623 175.870366 
L 1608.257395 158.423295 
L 1610.733909 148.0975 
L 1611.972166 143.621912 
L 1613.210424 140.123767 
L 1614.448681 137.874584 
L 1615.686938 561.202423 
L 1616.925196 135.085483 
L 1618.163453 132.918504 
L 1619.40171 129.295001 
L 1624.354739 109.85068 
L 1625.592996 106.580829 
L 1626.831254 104.924638 
L 1629.307768 103.948792 
L 1630.546026 102.641488 
L 1631.784283 99.910513 
L 1633.02254 95.210742 
L 1636.737312 75.987199 
L 1637.975569 70.646562 
L 1639.213826 64.40398 
L 1640.452084 56.665873 
L 1641.690341 47.979282 
L 1641.690341 47.979282 
" style="fill:none;stroke:#008000;stroke-linecap:square;stroke-width:1.5;"/>
   </g>
   <g id="patch_3">
    <path d="M 43.78125 586.86358 
L 43.78125 22.318125 
" style="fill:none;stroke:#000000;stroke-linecap:square;stroke-linejoin:miter;stroke-width:0.8;"/>
   </g>
   <g id="patch_4">
    <path d="M 1717.78125 586.86358 
L 1717.78125 22.318125 
" style="fill:none;stroke:#000000;stroke-linecap:square;stroke-linejoin:miter;stroke-width:0.8;"/>
   </g>
   <g id="patch_5">
    <path d="M 43.78125 586.86358 
L 1717.78125 586.86358 
" style="fill:none;stroke:#000000;stroke-linecap:square;stroke-linejoin:miter;stroke-width:0.8;"/>
   </g>
   <g id="patch_6">
    <path d="M 43.78125 22.318125 
L 1717.78125 22.318125 
" style="fill:none;stroke:#000000;stroke-linecap:square;stroke-linejoin:miter;stroke-width:0.8;"/>
   </g>
   <g id="text_16">
    <!-- before binarisation -->
    <g transform="translate(824.1825 16.318125)scale(0.12 -0.12)">
     <defs>
      <path d="M 3116 1747 
Q 3116 2381 2855 2742 
Q 2594 3103 2138 3103 
Q 1681 3103 1420 2742 
Q 1159 2381 1159 1747 
Q 1159 1113 1420 752 
Q 1681 391 2138 391 
Q 2594 391 2855 752 
Q 3116 1113 3116 1747 
z
M 1159 2969 
Q 1341 3281 1617 3432 
Q 1894 3584 2278 3584 
Q 2916 3584 3314 3078 
Q 3713 2572 3713 1747 
Q 3713 922 3314 415 
Q 2916 -91 2278 -91 
Q 1894 -91 1617 61 
Q 1341 213 1159 525 
L 1159 0 
L 581 0 
L 581 4863 
L 1159 4863 
L 1159 2969 
z
" id="DejaVuSans-62" transform="scale(0.015625)"/>
      <path d="M 1959 3097 
Q 1497 3097 1228 2736 
Q 959 2375 959 1747 
Q 959 1119 1226 758 
Q 1494 397 1959 397 
Q 2419 397 2687 759 
Q 2956 1122 2956 1747 
Q 2956 2369 2687 2733 
Q 2419 3097 1959 3097 
z
M 1959 3584 
Q 2709 3584 3137 3096 
Q 3566 2609 3566 1747 
Q 3566 888 3137 398 
Q 2709 -91 1959 -91 
Q 1206 -91 779 398 
Q 353 888 353 1747 
Q 353 2609 779 3096 
Q 1206 3584 1959 3584 
z
" id="DejaVuSans-6f" transform="scale(0.015625)"/>
      <path id="DejaVuSans-20" transform="scale(0.015625)"/>
      <path d="M 603 3500 
L 1178 3500 
L 1178 0 
L 603 0 
L 603 3500 
z
M 603 4863 
L 1178 4863 
L 1178 4134 
L 603 4134 
L 603 4863 
z
" id="DejaVuSans-69" transform="scale(0.015625)"/>
      <path d="M 3513 2113 
L 3513 0 
L 2938 0 
L 2938 2094 
Q 2938 2591 2744 2837 
Q 2550 3084 2163 3084 
Q 1697 3084 1428 2787 
Q 1159 2491 1159 1978 
L 1159 0 
L 581 0 
L 581 3500 
L 1159 3500 
L 1159 2956 
Q 1366 3272 1645 3428 
Q 1925 3584 2291 3584 
Q 2894 3584 3203 3211 
Q 3513 2838 3513 2113 
z
" id="DejaVuSans-6e" transform="scale(0.015625)"/>
      <path d="M 2834 3397 
L 2834 2853 
Q 2591 2978 2328 3040 
Q 2066 3103 1784 3103 
Q 1356 3103 1142 2972 
Q 928 2841 928 2578 
Q 928 2378 1081 2264 
Q 1234 2150 1697 2047 
L 1894 2003 
Q 2506 1872 2764 1633 
Q 3022 1394 3022 966 
Q 3022 478 2636 193 
Q 2250 -91 1575 -91 
Q 1294 -91 989 -36 
Q 684 19 347 128 
L 347 722 
Q 666 556 975 473 
Q 1284 391 1588 391 
Q 1994 391 2212 530 
Q 2431 669 2431 922 
Q 2431 1156 2273 1281 
Q 2116 1406 1581 1522 
L 1381 1569 
Q 847 1681 609 1914 
Q 372 2147 372 2553 
Q 372 3047 722 3315 
Q 1072 3584 1716 3584 
Q 2034 3584 2315 3537 
Q 2597 3491 2834 3397 
z
" id="DejaVuSans-73" transform="scale(0.015625)"/>
      <path d="M 1172 4494 
L 1172 3500 
L 2356 3500 
L 2356 3053 
L 1172 3053 
L 1172 1153 
Q 1172 725 1289 603 
Q 1406 481 1766 481 
L 2356 481 
L 2356 0 
L 1766 0 
Q 1100 0 847 248 
Q 594 497 594 1153 
L 594 3053 
L 172 3053 
L 172 3500 
L 594 3500 
L 594 4494 
L 1172 4494 
z
" id="DejaVuSans-74" transform="scale(0.015625)"/>
     </defs>
     <use xlink:href="#DejaVuSans-62"/>
     <use x="63.476562" xlink:href="#DejaVuSans-65"/>
     <use x="125" xlink:href="#DejaVuSans-66"/>
     <use x="160.205078" xlink:href="#DejaVuSans-6f"/>
     <use x="221.386719" xlink:href="#DejaVuSans-72"/>
     <use x="260.25" xlink:href="#DejaVuSans-65"/>
     <use x="321.773438" xlink:href="#DejaVuSans-20"/>
     <use x="353.560547" xlink:href="#DejaVuSans-62"/>
     <use x="417.037109" xlink:href="#DejaVuSans-69"/>
     <use x="444.820312" xlink:href="#DejaVuSans-6e"/>
     <use x="508.199219" xlink:href="#DejaVuSans-61"/>
     <use x="569.478516" xlink:href="#DejaVuSans-72"/>
     <use x="610.591797" xlink:href="#DejaVuSans-69"/>
     <use x="638.375" xlink:href="#DejaVuSans-73"/>
     <use x="690.474609" xlink:href="#DejaVuSans-61"/>
     <use x="751.753906" xlink:href="#DejaVuSans-74"/>
     <use x="790.962891" xlink:href="#DejaVuSans-69"/>
     <use x="818.746094" xlink:href="#DejaVuSans-6f"/>
     <use x="879.927734" xlink:href="#DejaVuSans-6e"/>
    </g>
   </g>
  </g>
  <g id="axes_2">
   <g id="patch_7">
    <path d="M 43.78125 1264.318125 
L 1717.78125 1264.318125 
L 1717.78125 699.77267 
L 43.78125 699.77267 
z
" style="fill:#ffffff;"/>
   </g>
   <g id="matplotlib.axis_3">
    <g id="xtick_8">
     <g id="line2d_15">
      <g>
       <use style="stroke:#000000;stroke-width:0.8;" x="119.872159" xlink:href="#ma066d1d8e3" y="1264.318125"/>
      </g>
     </g>
     <g id="text_17">
      <!-- 0 -->
      <g transform="translate(116.690909 1278.916563)scale(0.1 -0.1)">
       <use xlink:href="#DejaVuSans-30"/>
      </g>
     </g>
    </g>
    <g id="xtick_9">
     <g id="line2d_16">
      <g>
       <use style="stroke:#000000;stroke-width:0.8;" x="367.523613" xlink:href="#ma066d1d8e3" y="1264.318125"/>
      </g>
     </g>
     <g id="text_18">
      <!-- 200 -->
      <g transform="translate(357.979863 1278.916563)scale(0.1 -0.1)">
       <use xlink:href="#DejaVuSans-32"/>
       <use x="63.623047" xlink:href="#DejaVuSans-30"/>
       <use x="127.246094" xlink:href="#DejaVuSans-30"/>
      </g>
     </g>
    </g>
    <g id="xtick_10">
     <g id="line2d_17">
      <g>
       <use style="stroke:#000000;stroke-width:0.8;" x="615.175066" xlink:href="#ma066d1d8e3" y="1264.318125"/>
      </g>
     </g>
     <g id="text_19">
      <!-- 400 -->
      <g transform="translate(605.631316 1278.916563)scale(0.1 -0.1)">
       <use xlink:href="#DejaVuSans-34"/>
       <use x="63.623047" xlink:href="#DejaVuSans-30"/>
       <use x="127.246094" xlink:href="#DejaVuSans-30"/>
      </g>
     </g>
    </g>
    <g id="xtick_11">
     <g id="line2d_18">
      <g>
       <use style="stroke:#000000;stroke-width:0.8;" x="862.82652" xlink:href="#ma066d1d8e3" y="1264.318125"/>
      </g>
     </g>
     <g id="text_20">
      <!-- 600 -->
      <g transform="translate(853.28277 1278.916563)scale(0.1 -0.1)">
       <use xlink:href="#DejaVuSans-36"/>
       <use x="63.623047" xlink:href="#DejaVuSans-30"/>
       <use x="127.246094" xlink:href="#DejaVuSans-30"/>
      </g>
     </g>
    </g>
    <g id="xtick_12">
     <g id="line2d_19">
      <g>
       <use style="stroke:#000000;stroke-width:0.8;" x="1110.477973" xlink:href="#ma066d1d8e3" y="1264.318125"/>
      </g>
     </g>
     <g id="text_21">
      <!-- 800 -->
      <g transform="translate(1100.934223 1278.916563)scale(0.1 -0.1)">
       <use xlink:href="#DejaVuSans-38"/>
       <use x="63.623047" xlink:href="#DejaVuSans-30"/>
       <use x="127.246094" xlink:href="#DejaVuSans-30"/>
      </g>
     </g>
    </g>
    <g id="xtick_13">
     <g id="line2d_20">
      <g>
       <use style="stroke:#000000;stroke-width:0.8;" x="1358.129427" xlink:href="#ma066d1d8e3" y="1264.318125"/>
      </g>
     </g>
     <g id="text_22">
      <!-- 1000 -->
      <g transform="translate(1345.404427 1278.916563)scale(0.1 -0.1)">
       <use xlink:href="#DejaVuSans-31"/>
       <use x="63.623047" xlink:href="#DejaVuSans-30"/>
       <use x="127.246094" xlink:href="#DejaVuSans-30"/>
       <use x="190.869141" xlink:href="#DejaVuSans-30"/>
      </g>
     </g>
    </g>
    <g id="xtick_14">
     <g id="line2d_21">
      <g>
       <use style="stroke:#000000;stroke-width:0.8;" x="1605.78088" xlink:href="#ma066d1d8e3" y="1264.318125"/>
      </g>
     </g>
     <g id="text_23">
      <!-- 1200 -->
      <g transform="translate(1593.05588 1278.916563)scale(0.1 -0.1)">
       <use xlink:href="#DejaVuSans-31"/>
       <use x="63.623047" xlink:href="#DejaVuSans-32"/>
       <use x="127.246094" xlink:href="#DejaVuSans-30"/>
       <use x="190.869141" xlink:href="#DejaVuSans-30"/>
      </g>
     </g>
    </g>
    <g id="text_24">
     <!-- frame -->
     <g transform="translate(865.954687 1292.594688)scale(0.1 -0.1)">
      <use xlink:href="#DejaVuSans-66"/>
      <use x="35.205078" xlink:href="#DejaVuSans-72"/>
      <use x="76.318359" xlink:href="#DejaVuSans-61"/>
      <use x="137.597656" xlink:href="#DejaVuSans-6d"/>
      <use x="235.009766" xlink:href="#DejaVuSans-65"/>
     </g>
    </g>
   </g>
   <g id="matplotlib.axis_4">
    <g id="ytick_7">
     <g id="line2d_22">
      <g>
       <use style="stroke:#000000;stroke-width:0.8;" x="43.78125" xlink:href="#mf2e7165993" y="1238.656968"/>
      </g>
     </g>
     <g id="text_25">
      <!-- 0.0 -->
      <g transform="translate(20.878125 1242.456187)scale(0.1 -0.1)">
       <defs>
        <path d="M 684 794 
L 1344 794 
L 1344 0 
L 684 0 
L 684 794 
z
" id="DejaVuSans-2e" transform="scale(0.015625)"/>
       </defs>
       <use xlink:href="#DejaVuSans-30"/>
       <use x="63.623047" xlink:href="#DejaVuSans-2e"/>
       <use x="95.410156" xlink:href="#DejaVuSans-30"/>
      </g>
     </g>
    </g>
    <g id="ytick_8">
     <g id="line2d_23">
      <g>
       <use style="stroke:#000000;stroke-width:0.8;" x="43.78125" xlink:href="#mf2e7165993" y="1136.01234"/>
      </g>
     </g>
     <g id="text_26">
      <!-- 0.2 -->
      <g transform="translate(20.878125 1139.811559)scale(0.1 -0.1)">
       <use xlink:href="#DejaVuSans-30"/>
       <use x="63.623047" xlink:href="#DejaVuSans-2e"/>
       <use x="95.410156" xlink:href="#DejaVuSans-32"/>
      </g>
     </g>
    </g>
    <g id="ytick_9">
     <g id="line2d_24">
      <g>
       <use style="stroke:#000000;stroke-width:0.8;" x="43.78125" xlink:href="#mf2e7165993" y="1033.367712"/>
      </g>
     </g>
     <g id="text_27">
      <!-- 0.4 -->
      <g transform="translate(20.878125 1037.166931)scale(0.1 -0.1)">
       <use xlink:href="#DejaVuSans-30"/>
       <use x="63.623047" xlink:href="#DejaVuSans-2e"/>
       <use x="95.410156" xlink:href="#DejaVuSans-34"/>
      </g>
     </g>
    </g>
    <g id="ytick_10">
     <g id="line2d_25">
      <g>
       <use style="stroke:#000000;stroke-width:0.8;" x="43.78125" xlink:href="#mf2e7165993" y="930.723084"/>
      </g>
     </g>
     <g id="text_28">
      <!-- 0.6 -->
      <g transform="translate(20.878125 934.522302)scale(0.1 -0.1)">
       <use xlink:href="#DejaVuSans-30"/>
       <use x="63.623047" xlink:href="#DejaVuSans-2e"/>
       <use x="95.410156" xlink:href="#DejaVuSans-36"/>
      </g>
     </g>
    </g>
    <g id="ytick_11">
     <g id="line2d_26">
      <g>
       <use style="stroke:#000000;stroke-width:0.8;" x="43.78125" xlink:href="#mf2e7165993" y="828.078456"/>
      </g>
     </g>
     <g id="text_29">
      <!-- 0.8 -->
      <g transform="translate(20.878125 831.877674)scale(0.1 -0.1)">
       <use xlink:href="#DejaVuSans-30"/>
       <use x="63.623047" xlink:href="#DejaVuSans-2e"/>
       <use x="95.410156" xlink:href="#DejaVuSans-38"/>
      </g>
     </g>
    </g>
    <g id="ytick_12">
     <g id="line2d_27">
      <g>
       <use style="stroke:#000000;stroke-width:0.8;" x="43.78125" xlink:href="#mf2e7165993" y="725.433827"/>
      </g>
     </g>
     <g id="text_30">
      <!-- 1.0 -->
      <g transform="translate(20.878125 729.233046)scale(0.1 -0.1)">
       <use xlink:href="#DejaVuSans-31"/>
       <use x="63.623047" xlink:href="#DejaVuSans-2e"/>
       <use x="95.410156" xlink:href="#DejaVuSans-30"/>
      </g>
     </g>
    </g>
    <g id="text_31">
     <!-- GCaMP -->
     <g transform="translate(14.798437 999.803991)rotate(-90)scale(0.1 -0.1)">
      <use xlink:href="#DejaVuSans-47"/>
      <use x="77.490234" xlink:href="#DejaVuSans-43"/>
      <use x="147.314453" xlink:href="#DejaVuSans-61"/>
      <use x="208.59375" xlink:href="#DejaVuSans-4d"/>
      <use x="294.873047" xlink:href="#DejaVuSans-50"/>
     </g>
    </g>
   </g>
   <g id="line2d_28">
    <path clip-path="url(#p7815cc52ff)" d="M 119.872159 1238.656968 
L 1359.367684 1238.656968 
L 1360.605941 725.433827 
L 1370.511999 725.433827 
L 1371.750257 1238.656968 
L 1375.465028 1238.656968 
L 1376.703286 725.433827 
L 1390.324116 725.433827 
L 1391.562373 1238.656968 
L 1392.80063 725.433827 
L 1428.710091 725.433827 
L 1429.948348 1238.656968 
L 1447.28395 1238.656968 
L 1448.522207 725.433827 
L 1614.448681 725.433827 
L 1615.686938 1238.656968 
L 1616.925196 725.433827 
L 1641.690341 725.433827 
L 1641.690341 725.433827 
" style="fill:none;stroke:#008000;stroke-linecap:square;stroke-width:1.5;"/>
   </g>
   <g id="patch_8">
    <path d="M 43.78125 1264.318125 
L 43.78125 699.77267 
" style="fill:none;stroke:#000000;stroke-linecap:square;stroke-linejoin:miter;stroke-width:0.8;"/>
   </g>
   <g id="patch_9">
    <path d="M 1717.78125 1264.318125 
L 1717.78125 699.77267 
" style="fill:none;stroke:#000000;stroke-linecap:square;stroke-linejoin:miter;stroke-width:0.8;"/>
   </g>
   <g id="patch_10">
    <path d="M 43.78125 1264.318125 
L 1717.78125 1264.318125 
" style="fill:none;stroke:#000000;stroke-linecap:square;stroke-linejoin:miter;stroke-width:0.8;"/>
   </g>
   <g id="patch_11">
    <path d="M 43.78125 699.77267 
L 1717.78125 699.77267 
" style="fill:none;stroke:#000000;stroke-linecap:square;stroke-linejoin:miter;stroke-width:0.8;"/>
   </g>
   <g id="text_32">
    <!-- before binarisation -->
    <g transform="translate(824.1825 693.77267)scale(0.12 -0.12)">
     <use xlink:href="#DejaVuSans-62"/>
     <use x="63.476562" xlink:href="#DejaVuSans-65"/>
     <use x="125" xlink:href="#DejaVuSans-66"/>
     <use x="160.205078" xlink:href="#DejaVuSans-6f"/>
     <use x="221.386719" xlink:href="#DejaVuSans-72"/>
     <use x="260.25" xlink:href="#DejaVuSans-65"/>
     <use x="321.773438" xlink:href="#DejaVuSans-20"/>
     <use x="353.560547" xlink:href="#DejaVuSans-62"/>
     <use x="417.037109" xlink:href="#DejaVuSans-69"/>
     <use x="444.820312" xlink:href="#DejaVuSans-6e"/>
     <use x="508.199219" xlink:href="#DejaVuSans-61"/>
     <use x="569.478516" xlink:href="#DejaVuSans-72"/>
     <use x="610.591797" xlink:href="#DejaVuSans-69"/>
     <use x="638.375" xlink:href="#DejaVuSans-73"/>
     <use x="690.474609" xlink:href="#DejaVuSans-61"/>
     <use x="751.753906" xlink:href="#DejaVuSans-74"/>
     <use x="790.962891" xlink:href="#DejaVuSans-69"/>
     <use x="818.746094" xlink:href="#DejaVuSans-6f"/>
     <use x="879.927734" xlink:href="#DejaVuSans-6e"/>
    </g>
   </g>
  </g>
 </g>
 <defs>
  <clipPath id="p95e7cdc84a">
   <rect height="564.545455" width="1674" x="43.78125" y="22.318125"/>
  </clipPath>
  <clipPath id="p7815cc52ff">
   <rect height="564.545455" width="1674" x="43.78125" y="699.77267"/>
  </clipPath>
 </defs>
</svg>
