<?xml version="1.0" encoding="utf-8" standalone="no"?>
<!DOCTYPE svg PUBLIC "-//W3C//DTD SVG 1.1//EN"
  "http://www.w3.org/Graphics/SVG/1.1/DTD/svg11.dtd">
<svg height="1301.874375pt" version="1.1" viewBox="0 0 1724.98125 1301.874375" width="1724.98125pt" xmlns="http://www.w3.org/2000/svg" xmlns:xlink="http://www.w3.org/1999/xlink">
 <metadata>
  <rdf:RDF xmlns:cc="http://creativecommons.org/ns#" xmlns:dc="http://purl.org/dc/elements/1.1/" xmlns:rdf="http://www.w3.org/1999/02/22-rdf-syntax-ns#">
   <cc:Work>
    <dc:type rdf:resource="http://purl.org/dc/dcmitype/StillImage"/>
    <dc:date>2022-07-24T15:54:36.897158</dc:date>
    <dc:format>image/svg+xml</dc:format>
    <dc:creator>
     <cc:Agent>
      <dc:title>Matplotlib v3.4.2, https://matplotlib.org/</dc:title>
     </cc:Agent>
    </dc:creator>
   </cc:Work>
  </rdf:RDF>
 </metadata>
 <defs>
  <style type="text/css">*{stroke-linecap:butt;stroke-linejoin:round;}</style>
 </defs>
 <g id="figure_1">
  <g id="patch_1">
   <path d="M 0 1301.874375 
L 1724.98125 1301.874375 
L 1724.98125 0 
L 0 0 
z
" style="fill:#ffffff;"/>
  </g>
  <g id="axes_1">
   <g id="patch_2">
    <path d="M 43.78125 586.86358 
L 1717.78125 586.86358 
L 1717.78125 22.318125 
L 43.78125 22.318125 
z
" style="fill:#ffffff;"/>
   </g>
   <g id="matplotlib.axis_1">
    <g id="xtick_1">
     <g id="line2d_1">
      <defs>
       <path d="M 0 0 
L 0 3.5 
" id="mf5615630b7" style="stroke:#000000;stroke-width:0.8;"/>
      </defs>
      <g>
       <use style="stroke:#000000;stroke-width:0.8;" x="119.872159" xlink:href="#mf5615630b7" y="586.86358"/>
      </g>
     </g>
     <g id="text_1">
      <!-- 0 -->
      <g transform="translate(116.690909 601.462017)scale(0.1 -0.1)">
       <defs>
        <path d="M 2034 4250 
Q 1547 4250 1301 3770 
Q 1056 3291 1056 2328 
Q 1056 1369 1301 889 
Q 1547 409 2034 409 
Q 2525 409 2770 889 
Q 3016 1369 3016 2328 
Q 3016 3291 2770 3770 
Q 2525 4250 2034 4250 
z
M 2034 4750 
Q 2819 4750 3233 4129 
Q 3647 3509 3647 2328 
Q 3647 1150 3233 529 
Q 2819 -91 2034 -91 
Q 1250 -91 836 529 
Q 422 1150 422 2328 
Q 422 3509 836 4129 
Q 1250 4750 2034 4750 
z
" id="DejaVuSans-30" transform="scale(0.015625)"/>
       </defs>
       <use xlink:href="#DejaVuSans-30"/>
      </g>
     </g>
    </g>
    <g id="xtick_2">
     <g id="line2d_2">
      <g>
       <use style="stroke:#000000;stroke-width:0.8;" x="367.523613" xlink:href="#mf5615630b7" y="586.86358"/>
      </g>
     </g>
     <g id="text_2">
      <!-- 200 -->
      <g transform="translate(357.979863 601.462017)scale(0.1 -0.1)">
       <defs>
        <path d="M 1228 531 
L 3431 531 
L 3431 0 
L 469 0 
L 469 531 
Q 828 903 1448 1529 
Q 2069 2156 2228 2338 
Q 2531 2678 2651 2914 
Q 2772 3150 2772 3378 
Q 2772 3750 2511 3984 
Q 2250 4219 1831 4219 
Q 1534 4219 1204 4116 
Q 875 4013 500 3803 
L 500 4441 
Q 881 4594 1212 4672 
Q 1544 4750 1819 4750 
Q 2544 4750 2975 4387 
Q 3406 4025 3406 3419 
Q 3406 3131 3298 2873 
Q 3191 2616 2906 2266 
Q 2828 2175 2409 1742 
Q 1991 1309 1228 531 
z
" id="DejaVuSans-32" transform="scale(0.015625)"/>
       </defs>
       <use xlink:href="#DejaVuSans-32"/>
       <use x="63.623047" xlink:href="#DejaVuSans-30"/>
       <use x="127.246094" xlink:href="#DejaVuSans-30"/>
      </g>
     </g>
    </g>
    <g id="xtick_3">
     <g id="line2d_3">
      <g>
       <use style="stroke:#000000;stroke-width:0.8;" x="615.175066" xlink:href="#mf5615630b7" y="586.86358"/>
      </g>
     </g>
     <g id="text_3">
      <!-- 400 -->
      <g transform="translate(605.631316 601.462017)scale(0.1 -0.1)">
       <defs>
        <path d="M 2419 4116 
L 825 1625 
L 2419 1625 
L 2419 4116 
z
M 2253 4666 
L 3047 4666 
L 3047 1625 
L 3713 1625 
L 3713 1100 
L 3047 1100 
L 3047 0 
L 2419 0 
L 2419 1100 
L 313 1100 
L 313 1709 
L 2253 4666 
z
" id="DejaVuSans-34" transform="scale(0.015625)"/>
       </defs>
       <use xlink:href="#DejaVuSans-34"/>
       <use x="63.623047" xlink:href="#DejaVuSans-30"/>
       <use x="127.246094" xlink:href="#DejaVuSans-30"/>
      </g>
     </g>
    </g>
    <g id="xtick_4">
     <g id="line2d_4">
      <g>
       <use style="stroke:#000000;stroke-width:0.8;" x="862.82652" xlink:href="#mf5615630b7" y="586.86358"/>
      </g>
     </g>
     <g id="text_4">
      <!-- 600 -->
      <g transform="translate(853.28277 601.462017)scale(0.1 -0.1)">
       <defs>
        <path d="M 2113 2584 
Q 1688 2584 1439 2293 
Q 1191 2003 1191 1497 
Q 1191 994 1439 701 
Q 1688 409 2113 409 
Q 2538 409 2786 701 
Q 3034 994 3034 1497 
Q 3034 2003 2786 2293 
Q 2538 2584 2113 2584 
z
M 3366 4563 
L 3366 3988 
Q 3128 4100 2886 4159 
Q 2644 4219 2406 4219 
Q 1781 4219 1451 3797 
Q 1122 3375 1075 2522 
Q 1259 2794 1537 2939 
Q 1816 3084 2150 3084 
Q 2853 3084 3261 2657 
Q 3669 2231 3669 1497 
Q 3669 778 3244 343 
Q 2819 -91 2113 -91 
Q 1303 -91 875 529 
Q 447 1150 447 2328 
Q 447 3434 972 4092 
Q 1497 4750 2381 4750 
Q 2619 4750 2861 4703 
Q 3103 4656 3366 4563 
z
" id="DejaVuSans-36" transform="scale(0.015625)"/>
       </defs>
       <use xlink:href="#DejaVuSans-36"/>
       <use x="63.623047" xlink:href="#DejaVuSans-30"/>
       <use x="127.246094" xlink:href="#DejaVuSans-30"/>
      </g>
     </g>
    </g>
    <g id="xtick_5">
     <g id="line2d_5">
      <g>
       <use style="stroke:#000000;stroke-width:0.8;" x="1110.477973" xlink:href="#mf5615630b7" y="586.86358"/>
      </g>
     </g>
     <g id="text_5">
      <!-- 800 -->
      <g transform="translate(1100.934223 601.462017)scale(0.1 -0.1)">
       <defs>
        <path d="M 2034 2216 
Q 1584 2216 1326 1975 
Q 1069 1734 1069 1313 
Q 1069 891 1326 650 
Q 1584 409 2034 409 
Q 2484 409 2743 651 
Q 3003 894 3003 1313 
Q 3003 1734 2745 1975 
Q 2488 2216 2034 2216 
z
M 1403 2484 
Q 997 2584 770 2862 
Q 544 3141 544 3541 
Q 544 4100 942 4425 
Q 1341 4750 2034 4750 
Q 2731 4750 3128 4425 
Q 3525 4100 3525 3541 
Q 3525 3141 3298 2862 
Q 3072 2584 2669 2484 
Q 3125 2378 3379 2068 
Q 3634 1759 3634 1313 
Q 3634 634 3220 271 
Q 2806 -91 2034 -91 
Q 1263 -91 848 271 
Q 434 634 434 1313 
Q 434 1759 690 2068 
Q 947 2378 1403 2484 
z
M 1172 3481 
Q 1172 3119 1398 2916 
Q 1625 2713 2034 2713 
Q 2441 2713 2670 2916 
Q 2900 3119 2900 3481 
Q 2900 3844 2670 4047 
Q 2441 4250 2034 4250 
Q 1625 4250 1398 4047 
Q 1172 3844 1172 3481 
z
" id="DejaVuSans-38" transform="scale(0.015625)"/>
       </defs>
       <use xlink:href="#DejaVuSans-38"/>
       <use x="63.623047" xlink:href="#DejaVuSans-30"/>
       <use x="127.246094" xlink:href="#DejaVuSans-30"/>
      </g>
     </g>
    </g>
    <g id="xtick_6">
     <g id="line2d_6">
      <g>
       <use style="stroke:#000000;stroke-width:0.8;" x="1358.129427" xlink:href="#mf5615630b7" y="586.86358"/>
      </g>
     </g>
     <g id="text_6">
      <!-- 1000 -->
      <g transform="translate(1345.404427 601.462017)scale(0.1 -0.1)">
       <defs>
        <path d="M 794 531 
L 1825 531 
L 1825 4091 
L 703 3866 
L 703 4441 
L 1819 4666 
L 2450 4666 
L 2450 531 
L 3481 531 
L 3481 0 
L 794 0 
L 794 531 
z
" id="DejaVuSans-31" transform="scale(0.015625)"/>
       </defs>
       <use xlink:href="#DejaVuSans-31"/>
       <use x="63.623047" xlink:href="#DejaVuSans-30"/>
       <use x="127.246094" xlink:href="#DejaVuSans-30"/>
       <use x="190.869141" xlink:href="#DejaVuSans-30"/>
      </g>
     </g>
    </g>
    <g id="xtick_7">
     <g id="line2d_7">
      <g>
       <use style="stroke:#000000;stroke-width:0.8;" x="1605.78088" xlink:href="#mf5615630b7" y="586.86358"/>
      </g>
     </g>
     <g id="text_7">
      <!-- 1200 -->
      <g transform="translate(1593.05588 601.462017)scale(0.1 -0.1)">
       <use xlink:href="#DejaVuSans-31"/>
       <use x="63.623047" xlink:href="#DejaVuSans-32"/>
       <use x="127.246094" xlink:href="#DejaVuSans-30"/>
       <use x="190.869141" xlink:href="#DejaVuSans-30"/>
      </g>
     </g>
    </g>
    <g id="text_8">
     <!-- frame -->
     <g transform="translate(865.954687 615.140142)scale(0.1 -0.1)">
      <defs>
       <path d="M 2375 4863 
L 2375 4384 
L 1825 4384 
Q 1516 4384 1395 4259 
Q 1275 4134 1275 3809 
L 1275 3500 
L 2222 3500 
L 2222 3053 
L 1275 3053 
L 1275 0 
L 697 0 
L 697 3053 
L 147 3053 
L 147 3500 
L 697 3500 
L 697 3744 
Q 697 4328 969 4595 
Q 1241 4863 1831 4863 
L 2375 4863 
z
" id="DejaVuSans-66" transform="scale(0.015625)"/>
       <path d="M 2631 2963 
Q 2534 3019 2420 3045 
Q 2306 3072 2169 3072 
Q 1681 3072 1420 2755 
Q 1159 2438 1159 1844 
L 1159 0 
L 581 0 
L 581 3500 
L 1159 3500 
L 1159 2956 
Q 1341 3275 1631 3429 
Q 1922 3584 2338 3584 
Q 2397 3584 2469 3576 
Q 2541 3569 2628 3553 
L 2631 2963 
z
" id="DejaVuSans-72" transform="scale(0.015625)"/>
       <path d="M 2194 1759 
Q 1497 1759 1228 1600 
Q 959 1441 959 1056 
Q 959 750 1161 570 
Q 1363 391 1709 391 
Q 2188 391 2477 730 
Q 2766 1069 2766 1631 
L 2766 1759 
L 2194 1759 
z
M 3341 1997 
L 3341 0 
L 2766 0 
L 2766 531 
Q 2569 213 2275 61 
Q 1981 -91 1556 -91 
Q 1019 -91 701 211 
Q 384 513 384 1019 
Q 384 1609 779 1909 
Q 1175 2209 1959 2209 
L 2766 2209 
L 2766 2266 
Q 2766 2663 2505 2880 
Q 2244 3097 1772 3097 
Q 1472 3097 1187 3025 
Q 903 2953 641 2809 
L 641 3341 
Q 956 3463 1253 3523 
Q 1550 3584 1831 3584 
Q 2591 3584 2966 3190 
Q 3341 2797 3341 1997 
z
" id="DejaVuSans-61" transform="scale(0.015625)"/>
       <path d="M 3328 2828 
Q 3544 3216 3844 3400 
Q 4144 3584 4550 3584 
Q 5097 3584 5394 3201 
Q 5691 2819 5691 2113 
L 5691 0 
L 5113 0 
L 5113 2094 
Q 5113 2597 4934 2840 
Q 4756 3084 4391 3084 
Q 3944 3084 3684 2787 
Q 3425 2491 3425 1978 
L 3425 0 
L 2847 0 
L 2847 2094 
Q 2847 2600 2669 2842 
Q 2491 3084 2119 3084 
Q 1678 3084 1418 2786 
Q 1159 2488 1159 1978 
L 1159 0 
L 581 0 
L 581 3500 
L 1159 3500 
L 1159 2956 
Q 1356 3278 1631 3431 
Q 1906 3584 2284 3584 
Q 2666 3584 2933 3390 
Q 3200 3197 3328 2828 
z
" id="DejaVuSans-6d" transform="scale(0.015625)"/>
       <path d="M 3597 1894 
L 3597 1613 
L 953 1613 
Q 991 1019 1311 708 
Q 1631 397 2203 397 
Q 2534 397 2845 478 
Q 3156 559 3463 722 
L 3463 178 
Q 3153 47 2828 -22 
Q 2503 -91 2169 -91 
Q 1331 -91 842 396 
Q 353 884 353 1716 
Q 353 2575 817 3079 
Q 1281 3584 2069 3584 
Q 2775 3584 3186 3129 
Q 3597 2675 3597 1894 
z
M 3022 2063 
Q 3016 2534 2758 2815 
Q 2500 3097 2075 3097 
Q 1594 3097 1305 2825 
Q 1016 2553 972 2059 
L 3022 2063 
z
" id="DejaVuSans-65" transform="scale(0.015625)"/>
      </defs>
      <use xlink:href="#DejaVuSans-66"/>
      <use x="35.205078" xlink:href="#DejaVuSans-72"/>
      <use x="76.318359" xlink:href="#DejaVuSans-61"/>
      <use x="137.597656" xlink:href="#DejaVuSans-6d"/>
      <use x="235.009766" xlink:href="#DejaVuSans-65"/>
     </g>
    </g>
   </g>
   <g id="matplotlib.axis_2">
    <g id="ytick_1">
     <g id="line2d_8">
      <defs>
       <path d="M 0 0 
L -3.5 0 
" id="me6b3b8662e" style="stroke:#000000;stroke-width:0.8;"/>
      </defs>
      <g>
       <use style="stroke:#000000;stroke-width:0.8;" x="43.78125" xlink:href="#me6b3b8662e" y="561.202423"/>
      </g>
     </g>
     <g id="text_9">
      <!-- 0 -->
      <g transform="translate(30.41875 565.001641)scale(0.1 -0.1)">
       <use xlink:href="#DejaVuSans-30"/>
      </g>
     </g>
    </g>
    <g id="ytick_2">
     <g id="line2d_9">
      <g>
       <use style="stroke:#000000;stroke-width:0.8;" x="43.78125" xlink:href="#me6b3b8662e" y="449.143696"/>
      </g>
     </g>
     <g id="text_10">
      <!-- 2 -->
      <g transform="translate(30.41875 452.942915)scale(0.1 -0.1)">
       <use xlink:href="#DejaVuSans-32"/>
      </g>
     </g>
    </g>
    <g id="ytick_3">
     <g id="line2d_10">
      <g>
       <use style="stroke:#000000;stroke-width:0.8;" x="43.78125" xlink:href="#me6b3b8662e" y="337.08497"/>
      </g>
     </g>
     <g id="text_11">
      <!-- 4 -->
      <g transform="translate(30.41875 340.884189)scale(0.1 -0.1)">
       <use xlink:href="#DejaVuSans-34"/>
      </g>
     </g>
    </g>
    <g id="ytick_4">
     <g id="line2d_11">
      <g>
       <use style="stroke:#000000;stroke-width:0.8;" x="43.78125" xlink:href="#me6b3b8662e" y="225.026244"/>
      </g>
     </g>
     <g id="text_12">
      <!-- 6 -->
      <g transform="translate(30.41875 228.825463)scale(0.1 -0.1)">
       <use xlink:href="#DejaVuSans-36"/>
      </g>
     </g>
    </g>
    <g id="ytick_5">
     <g id="line2d_12">
      <g>
       <use style="stroke:#000000;stroke-width:0.8;" x="43.78125" xlink:href="#me6b3b8662e" y="112.967518"/>
      </g>
     </g>
     <g id="text_13">
      <!-- 8 -->
      <g transform="translate(30.41875 116.766737)scale(0.1 -0.1)">
       <use xlink:href="#DejaVuSans-38"/>
      </g>
     </g>
    </g>
    <g id="text_14">
     <!-- GCaMP -->
     <g transform="translate(24.339062 322.349446)rotate(-90)scale(0.1 -0.1)">
      <defs>
       <path d="M 3809 666 
L 3809 1919 
L 2778 1919 
L 2778 2438 
L 4434 2438 
L 4434 434 
Q 4069 175 3628 42 
Q 3188 -91 2688 -91 
Q 1594 -91 976 548 
Q 359 1188 359 2328 
Q 359 3472 976 4111 
Q 1594 4750 2688 4750 
Q 3144 4750 3555 4637 
Q 3966 4525 4313 4306 
L 4313 3634 
Q 3963 3931 3569 4081 
Q 3175 4231 2741 4231 
Q 1884 4231 1454 3753 
Q 1025 3275 1025 2328 
Q 1025 1384 1454 906 
Q 1884 428 2741 428 
Q 3075 428 3337 486 
Q 3600 544 3809 666 
z
" id="DejaVuSans-47" transform="scale(0.015625)"/>
       <path d="M 4122 4306 
L 4122 3641 
Q 3803 3938 3442 4084 
Q 3081 4231 2675 4231 
Q 1875 4231 1450 3742 
Q 1025 3253 1025 2328 
Q 1025 1406 1450 917 
Q 1875 428 2675 428 
Q 3081 428 3442 575 
Q 3803 722 4122 1019 
L 4122 359 
Q 3791 134 3420 21 
Q 3050 -91 2638 -91 
Q 1578 -91 968 557 
Q 359 1206 359 2328 
Q 359 3453 968 4101 
Q 1578 4750 2638 4750 
Q 3056 4750 3426 4639 
Q 3797 4528 4122 4306 
z
" id="DejaVuSans-43" transform="scale(0.015625)"/>
       <path d="M 628 4666 
L 1569 4666 
L 2759 1491 
L 3956 4666 
L 4897 4666 
L 4897 0 
L 4281 0 
L 4281 4097 
L 3078 897 
L 2444 897 
L 1241 4097 
L 1241 0 
L 628 0 
L 628 4666 
z
" id="DejaVuSans-4d" transform="scale(0.015625)"/>
       <path d="M 1259 4147 
L 1259 2394 
L 2053 2394 
Q 2494 2394 2734 2622 
Q 2975 2850 2975 3272 
Q 2975 3691 2734 3919 
Q 2494 4147 2053 4147 
L 1259 4147 
z
M 628 4666 
L 2053 4666 
Q 2838 4666 3239 4311 
Q 3641 3956 3641 3272 
Q 3641 2581 3239 2228 
Q 2838 1875 2053 1875 
L 1259 1875 
L 1259 0 
L 628 0 
L 628 4666 
z
" id="DejaVuSans-50" transform="scale(0.015625)"/>
      </defs>
      <use xlink:href="#DejaVuSans-47"/>
      <use x="77.490234" xlink:href="#DejaVuSans-43"/>
      <use x="147.314453" xlink:href="#DejaVuSans-61"/>
      <use x="208.59375" xlink:href="#DejaVuSans-4d"/>
      <use x="294.873047" xlink:href="#DejaVuSans-50"/>
     </g>
    </g>
   </g>
   <g id="line2d_13">
    <path clip-path="url(#p5804e2e439)" d="M 119.872159 124.465804 
L 121.110416 110.0426 
L 122.348674 97.195482 
L 123.586931 87.186866 
L 124.825188 80.920666 
L 126.063445 78.457347 
L 127.301703 78.520817 
L 128.53996 78.987494 
L 129.778217 78.153984 
L 131.016474 75.627736 
L 132.254732 72.289231 
L 133.492989 69.62047 
L 134.731246 68.50651 
L 135.969504 68.44054 
L 137.207761 68.216562 
L 138.446018 67.024423 
L 139.684275 64.772645 
L 140.922533 61.74685 
L 143.399047 54.47263 
L 144.637304 51.606317 
L 145.875562 50.449691 
L 147.113819 50.967407 
L 148.352076 52.414243 
L 149.590334 54.074832 
L 150.828591 55.426812 
L 152.066848 56.013002 
L 153.305105 55.703246 
L 155.78162 54.149921 
L 157.019877 53.53928 
L 158.258134 52.562531 
L 160.734649 49.36823 
L 161.972906 48.372423 
L 163.211163 48.172089 
L 164.449421 48.269013 
L 166.925935 47.979282 
L 168.164193 48.753044 
L 169.40245 51.361061 
L 170.640707 55.773981 
L 171.878964 60.858764 
L 173.117222 65.182562 
L 174.355479 67.791492 
L 175.593736 68.106019 
L 176.831993 65.931136 
L 178.070251 62.479518 
L 179.308508 60.536024 
L 180.546765 62.155976 
L 181.785022 66.7383 
L 183.02328 72.205238 
L 184.261537 76.999564 
L 185.499794 80.48826 
L 186.738052 82.580879 
L 187.976309 83.410941 
L 189.214566 83.119676 
L 190.452823 81.738696 
L 191.691081 79.300657 
L 192.929338 76.330621 
L 194.167595 73.833053 
L 195.405852 72.467444 
L 196.64411 72.173369 
L 197.882367 72.799251 
L 199.120624 74.937796 
L 200.358881 79.57838 
L 201.597139 86.800833 
L 204.073653 103.559757 
L 205.311911 109.516695 
L 206.550168 112.462699 
L 207.788425 112.684566 
L 209.026682 110.762109 
L 210.26494 107.075997 
L 212.741454 97.70427 
L 213.979711 94.648888 
L 215.217969 93.742408 
L 216.456226 94.682711 
L 218.93274 98.647171 
L 220.170998 100.110432 
L 221.409255 100.843348 
L 222.647512 101.345999 
L 223.88577 102.464205 
L 225.124027 104.601203 
L 226.362284 107.476731 
L 228.838799 114.014524 
L 230.077056 117.98879 
L 233.791828 132.391781 
L 235.030085 135.443857 
L 236.268342 136.626878 
L 237.5066 136.689289 
L 238.744857 137.151465 
L 239.983114 139.031115 
L 241.221371 141.670292 
L 242.459629 143.229177 
L 243.697886 142.42366 
L 244.936143 139.259091 
L 247.412658 130.557892 
L 248.650915 128.777614 
L 249.889172 130.410917 
L 251.127429 134.849484 
L 253.603944 146.064557 
L 254.842201 149.885923 
L 256.080459 151.123518 
L 257.318716 150.213604 
L 259.79523 146.655268 
L 261.033488 146.038044 
L 262.271745 147.386739 
L 263.510002 150.576447 
L 270.939546 174.644666 
L 272.177803 176.858978 
L 273.41606 177.140703 
L 274.654318 175.675492 
L 277.130832 170.705622 
L 279.607347 165.238735 
L 280.845604 163.07301 
L 282.083861 162.638114 
L 283.322118 164.513297 
L 284.560376 168.605802 
L 285.798633 174.32893 
L 288.275147 186.561464 
L 289.513405 190.949913 
L 290.751662 193.383828 
L 291.989919 194.068208 
L 293.228177 193.677776 
L 295.704691 192.269589 
L 298.181206 191.698076 
L 300.65772 190.108834 
L 301.895977 190.364146 
L 303.134235 192.419595 
L 304.372492 195.458856 
L 305.610749 197.885769 
L 306.849006 198.568587 
L 308.087264 197.465583 
L 309.325521 195.631776 
L 310.563778 194.560181 
L 311.802036 195.226089 
L 313.040293 197.823783 
L 314.27855 202.001792 
L 316.755065 212.66523 
L 319.231579 224.328607 
L 320.469836 229.148687 
L 321.708094 232.390786 
L 322.946351 234.217849 
L 324.184608 235.109838 
L 325.422866 235.248739 
L 326.661123 234.635333 
L 327.89938 233.352481 
L 329.137637 231.788514 
L 330.375895 230.75409 
L 331.614152 230.870918 
L 332.852409 231.848501 
L 334.090666 232.590453 
L 335.328924 232.02673 
L 336.567181 230.108369 
L 337.805438 227.867205 
L 339.043695 226.334436 
L 340.281953 225.913974 
L 341.52021 226.778596 
L 342.758467 229.006147 
L 345.234982 235.214149 
L 346.473239 237.482469 
L 347.711496 238.743526 
L 350.188011 239.891224 
L 351.426268 241.631392 
L 352.664525 245.3654 
L 353.902783 250.848582 
L 355.14104 256.865469 
L 356.379297 262.188862 
L 357.617554 266.325849 
L 358.855812 269.462645 
L 360.094069 271.778827 
L 361.332326 273.006233 
L 362.570584 272.651908 
L 363.808841 270.610569 
L 365.047098 267.657634 
L 366.285355 265.011269 
L 367.523613 263.347427 
L 368.76187 262.713982 
L 370.000127 263.271856 
L 371.238384 265.477193 
L 372.476642 269.37154 
L 373.714899 274.044981 
L 374.953156 278.088319 
L 376.191413 280.550697 
L 377.429671 281.385385 
L 378.667928 281.222654 
L 379.906185 280.925938 
L 381.144443 281.042413 
L 382.3827 281.307969 
L 383.620957 280.900223 
L 384.859214 279.506489 
L 386.097472 277.910995 
L 387.335729 277.379074 
L 388.573986 278.669453 
L 389.812243 281.70553 
L 391.050501 286.108965 
L 392.288758 291.728901 
L 393.527015 298.469366 
L 396.00353 312.885946 
L 397.241787 318.271555 
L 398.480044 321.032685 
L 399.718302 321.053718 
L 400.956559 319.131886 
L 402.194816 316.487422 
L 403.433073 314.134433 
L 404.671331 312.759359 
L 405.909588 312.86639 
L 407.147845 314.470024 
L 410.862617 322.103283 
L 412.100874 323.703905 
L 413.339132 324.124269 
L 414.577389 323.159351 
L 415.815646 320.454982 
L 417.053903 315.953169 
L 418.292161 310.708258 
L 419.530418 306.507073 
L 420.768675 304.52498 
L 422.006932 304.632546 
L 423.24519 305.850719 
L 424.483447 307.238124 
L 426.959961 309.498998 
L 430.674733 312.348759 
L 431.912991 313.182998 
L 433.151248 313.71626 
L 434.389505 313.951919 
L 435.627762 313.901054 
L 438.104277 313.123871 
L 439.342534 313.397092 
L 440.580791 314.405223 
L 441.819049 315.628741 
L 443.057306 316.569047 
L 445.53382 317.603479 
L 446.772078 318.58095 
L 448.010335 319.858079 
L 449.248592 320.707127 
L 450.48685 320.764094 
L 451.725107 320.380362 
L 452.963364 320.243914 
L 454.201621 320.977399 
L 455.439879 322.773183 
L 457.916393 327.467396 
L 459.15465 329.082339 
L 460.392908 329.877971 
L 461.631165 330.174127 
L 462.869422 330.673321 
L 464.107679 331.999243 
L 466.584194 336.210409 
L 467.822451 337.012882 
L 469.060709 335.793988 
L 470.298966 332.920096 
L 471.537223 329.720703 
L 472.77548 327.66041 
L 474.013738 327.632265 
L 475.251995 329.662434 
L 477.728509 336.147862 
L 478.966767 338.764841 
L 480.205024 340.773843 
L 481.443281 342.321896 
L 482.681538 343.1865 
L 483.919796 342.962329 
L 485.158053 341.489291 
L 486.39631 338.941228 
L 488.872825 332.584217 
L 490.111082 329.875076 
L 491.349339 327.889625 
L 492.587597 326.676873 
L 493.825854 326.300376 
L 495.064111 327.187168 
L 496.302368 329.849058 
L 497.540626 334.102841 
L 500.01714 343.48787 
L 501.255397 346.500326 
L 502.493655 347.362918 
L 503.731912 346.144473 
L 504.970169 343.468102 
L 506.208427 339.893878 
L 508.684941 332.241946 
L 509.923198 329.409693 
L 511.161456 327.862252 
L 512.399713 328.013173 
L 513.63797 329.848481 
L 516.114485 335.096236 
L 517.352742 336.886391 
L 518.590999 337.76176 
L 519.829257 338.14131 
L 521.067514 338.803003 
L 522.305771 340.085724 
L 523.544028 341.615138 
L 524.782286 342.721975 
L 526.020543 342.921979 
L 527.2588 342.319221 
L 530.973572 339.826703 
L 533.450086 337.542377 
L 534.688344 336.850125 
L 535.926601 336.877713 
L 537.164858 337.843622 
L 539.641373 341.470154 
L 540.87963 342.699771 
L 542.117887 343.059943 
L 544.594402 342.716156 
L 545.832659 343.071282 
L 547.070916 344.097212 
L 548.309174 345.353771 
L 549.547431 346.128817 
L 550.785688 346.005362 
L 552.023945 344.968859 
L 553.262203 343.19651 
L 554.50046 340.89807 
L 555.738717 338.190089 
L 558.215232 332.261644 
L 559.453489 330.526696 
L 560.691746 330.726978 
L 561.930004 332.476489 
L 563.168261 334.569048 
L 564.406518 336.039652 
L 565.644775 336.465561 
L 566.883033 335.497601 
L 568.12129 332.814748 
L 569.359547 328.651573 
L 570.597804 323.866256 
L 571.836062 319.600579 
L 573.074319 317.180531 
L 574.312576 317.61883 
L 575.550834 320.511425 
L 576.789091 324.118617 
L 578.027348 326.900217 
L 579.265605 328.348839 
L 580.503863 328.750111 
L 581.74212 328.850316 
L 582.980377 329.317219 
L 584.218634 330.112385 
L 585.456892 330.61627 
L 586.695149 330.399707 
L 589.171663 329.031986 
L 590.409921 329.031624 
L 591.648178 329.796022 
L 592.886435 331.108148 
L 594.124693 332.731314 
L 597.839464 338.566734 
L 599.077722 339.680214 
L 600.315979 340.153072 
L 604.030751 341.024929 
L 605.269008 340.977269 
L 607.745523 340.413583 
L 608.98378 339.756569 
L 610.222037 338.01834 
L 611.460294 335.010063 
L 612.698552 331.514699 
L 613.936809 328.53355 
L 615.175066 326.626777 
L 616.413323 326.070709 
L 617.651581 326.981465 
L 620.128095 330.905036 
L 621.366352 331.463438 
L 622.60461 329.933108 
L 625.081124 323.40726 
L 626.319382 321.392182 
L 627.557639 321.412843 
L 630.034153 324.330582 
L 631.272411 325.088184 
L 632.510668 324.585108 
L 634.987182 321.583071 
L 636.22544 320.725833 
L 637.463697 320.140474 
L 638.701954 319.200534 
L 639.940211 317.566894 
L 643.654983 310.721436 
L 644.893241 309.496313 
L 646.131498 308.513097 
L 647.369755 307.825823 
L 648.608012 308.170559 
L 649.84627 309.867054 
L 651.084527 312.205894 
L 652.322784 314.186121 
L 653.561041 315.451913 
L 654.799299 316.318223 
L 656.037556 317.336496 
L 657.275813 318.925605 
L 658.51407 320.890103 
L 659.752328 322.330207 
L 660.990585 322.347877 
L 662.228842 320.727798 
L 665.943614 312.625684 
L 667.181871 311.938094 
L 668.420129 313.345011 
L 669.658386 316.279599 
L 670.896643 319.500784 
L 672.1349 321.803901 
L 673.373158 322.457403 
L 674.611415 321.428883 
L 675.849672 319.143361 
L 677.087929 316.032094 
L 679.564444 309.04823 
L 680.802701 305.984341 
L 682.040959 303.754295 
L 683.279216 302.826086 
L 684.517473 303.389451 
L 685.75573 305.365523 
L 688.232245 311.588755 
L 690.708759 317.861074 
L 691.947017 321.651741 
L 694.423531 330.086444 
L 695.661789 333.03941 
L 696.900046 334.584676 
L 698.138303 334.861696 
L 699.37656 333.839003 
L 700.614818 331.589885 
L 701.853075 328.870195 
L 703.091332 326.715349 
L 704.329589 325.587198 
L 705.567847 325.344969 
L 706.806104 325.828596 
L 708.044361 327.206354 
L 709.282618 329.607269 
L 710.520876 332.335384 
L 711.759133 334.04076 
L 712.99739 333.866799 
L 714.235648 331.916651 
L 715.473905 329.076173 
L 716.712162 326.869415 
L 717.950419 326.672803 
L 719.188677 328.681965 
L 720.426934 331.838582 
L 721.665191 334.549037 
L 722.903448 335.743666 
L 724.141706 335.524234 
L 725.379963 334.525188 
L 726.61822 333.100141 
L 729.094735 329.999059 
L 730.332992 328.776715 
L 731.571249 327.791144 
L 732.809507 327.192428 
L 734.047764 327.215447 
L 735.286021 327.855151 
L 737.762536 329.706561 
L 739.000793 330.029551 
L 740.23905 329.464363 
L 741.477307 328.285052 
L 742.715565 327.519351 
L 743.953822 328.234775 
L 745.192079 330.560552 
L 748.906851 340.08242 
L 750.145108 341.765379 
L 751.383366 341.821371 
L 752.621623 340.578228 
L 753.85988 338.949154 
L 755.098137 338.072633 
L 756.336395 338.613751 
L 757.574652 340.27775 
L 758.812909 342.240617 
L 760.051166 343.956096 
L 761.289424 345.278828 
L 762.527681 346.074123 
L 763.765938 346.179555 
L 767.48071 344.918914 
L 768.718967 344.980106 
L 769.957225 345.496545 
L 771.195482 346.585095 
L 772.433739 347.886939 
L 773.671996 348.86383 
L 774.910254 349.439183 
L 777.386768 350.211512 
L 778.625025 351.002263 
L 779.863283 352.561723 
L 781.10154 354.581855 
L 782.339797 356.050532 
L 783.578054 356.120638 
L 784.816312 354.974555 
L 786.054569 353.544704 
L 787.292826 352.499839 
L 788.531084 351.855067 
L 789.769341 351.464097 
L 791.007598 351.491106 
L 792.245855 352.165604 
L 794.72237 354.505428 
L 795.960627 355.191657 
L 797.198884 355.121118 
L 798.437142 354.352143 
L 799.675399 353.335686 
L 800.913656 352.722311 
L 802.151914 352.880454 
L 804.628428 354.409651 
L 805.866685 355.189694 
L 807.104943 356.20443 
L 809.581457 358.878583 
L 810.819714 359.844496 
L 812.057972 561.202423 
L 869.017806 561.202423 
L 870.256063 353.784299 
L 871.49432 352.702673 
L 872.732578 352.604953 
L 873.970835 353.244049 
L 877.685607 355.856717 
L 878.923864 356.391824 
L 880.162121 356.373209 
L 881.400379 355.911157 
L 885.11515 354.164619 
L 886.353408 353.731632 
L 887.591665 353.720688 
L 888.829922 354.480666 
L 890.06818 356.155308 
L 892.544694 360.957952 
L 893.782951 561.202423 
L 898.73598 561.202423 
L 899.974238 356.596224 
L 901.212495 354.125373 
L 902.450752 352.378622 
L 903.689009 351.485765 
L 904.927267 351.25884 
L 906.165524 351.39184 
L 908.642039 352.139411 
L 909.880296 352.244086 
L 911.118553 351.690791 
L 912.35681 350.507703 
L 913.595068 349.104205 
L 914.833325 347.905628 
L 916.071582 347.078319 
L 917.309839 346.589517 
L 918.548097 346.352155 
L 919.786354 346.26246 
L 921.024611 346.409196 
L 922.262868 347.193448 
L 923.501126 348.841131 
L 925.97764 352.918168 
L 927.215898 354.263248 
L 928.454155 354.842877 
L 929.692412 354.478522 
L 930.930669 353.131176 
L 934.645441 347.054672 
L 935.883698 345.594219 
L 937.121956 344.757908 
L 938.360213 344.387351 
L 939.59847 344.372558 
L 940.836727 344.583307 
L 942.074985 344.66184 
L 943.313242 344.351203 
L 945.789757 343.043824 
L 947.028014 342.758591 
L 948.266271 343.348783 
L 949.504528 345.069126 
L 951.981043 350.182102 
L 953.2193 352.027902 
L 954.457557 352.718236 
L 955.695815 352.14967 
L 958.172329 349.04679 
L 959.410586 348.337221 
L 960.648844 348.908503 
L 961.887101 350.193694 
L 963.125358 351.235227 
L 964.363616 351.442553 
L 965.601873 350.753943 
L 968.078387 348.253021 
L 969.316645 347.849051 
L 971.793159 348.647761 
L 973.031416 347.982411 
L 974.269674 345.932222 
L 976.746188 339.961381 
L 977.984446 337.640664 
L 979.222703 335.931562 
L 981.699217 333.065534 
L 982.937475 561.202423 
L 1057.232911 561.202423 
L 1058.471168 314.179177 
L 1059.709425 311.169078 
L 1060.947682 310.620279 
L 1063.424197 312.384384 
L 1064.662454 312.12325 
L 1065.900711 310.936205 
L 1068.377226 308.292087 
L 1069.615483 306.379312 
L 1070.853741 303.352986 
L 1072.091998 299.889799 
L 1073.330255 297.427004 
L 1074.568512 297.095481 
L 1075.80677 299.265907 
L 1077.045027 303.460679 
L 1078.283284 308.307602 
L 1079.521541 312.134284 
L 1080.759799 314.077029 
L 1081.998056 314.529565 
L 1084.474571 314.439621 
L 1085.712828 314.685962 
L 1086.951085 315.292699 
L 1088.189342 316.133061 
L 1089.4276 316.763482 
L 1090.665857 316.921798 
L 1091.904114 316.778202 
L 1093.142371 316.450059 
L 1094.380629 315.757372 
L 1095.618886 314.609969 
L 1096.857143 313.206575 
L 1098.0954 311.978881 
L 1099.333658 311.331487 
L 1100.571915 311.209112 
L 1104.286687 311.142742 
L 1105.524944 311.425784 
L 1106.763201 311.833122 
L 1108.001459 312.022571 
L 1109.239716 311.85198 
L 1110.477973 311.556215 
L 1111.71623 311.439157 
L 1115.431002 311.632321 
L 1116.669259 311.965556 
L 1117.907517 313.038378 
L 1119.145774 314.862249 
L 1121.622289 319.265941 
L 1122.860546 320.687906 
L 1124.098803 321.113992 
L 1125.33706 320.786305 
L 1126.575318 320.181755 
L 1127.813575 319.771239 
L 1129.051832 319.806533 
L 1130.290089 320.329401 
L 1131.528347 321.289519 
L 1134.004861 323.622728 
L 1135.243118 324.537549 
L 1137.719633 325.977822 
L 1140.196148 327.755246 
L 1141.434405 328.195502 
L 1142.672662 327.67011 
L 1143.910919 326.058194 
L 1145.149177 323.886633 
L 1146.387434 322.114814 
L 1147.625691 321.621195 
L 1148.863948 322.540186 
L 1150.102206 323.98651 
L 1151.340463 324.936493 
L 1153.816977 325.451337 
L 1155.055235 326.026325 
L 1156.293492 326.728133 
L 1157.531749 326.997229 
L 1160.008264 326.236981 
L 1161.246521 326.291028 
L 1163.723036 327.268638 
L 1164.961293 327.180842 
L 1166.19955 326.676563 
L 1171.152579 324.074084 
L 1173.629094 322.602747 
L 1174.867351 321.95257 
L 1176.105608 321.057887 
L 1177.343866 319.695723 
L 1178.582123 318.095106 
L 1179.82038 316.791554 
L 1181.058637 316.131617 
L 1182.296895 316.18042 
L 1183.535152 316.902877 
L 1186.011666 319.337528 
L 1187.249924 320.245914 
L 1188.488181 320.632787 
L 1189.726438 320.730505 
L 1190.964696 320.961508 
L 1192.202953 321.36904 
L 1193.44121 321.489207 
L 1194.679467 320.886755 
L 1195.917725 319.803775 
L 1197.155982 319.129516 
L 1198.394239 319.578711 
L 1199.632496 321.095612 
L 1200.870754 323.214353 
L 1203.347268 327.744663 
L 1204.585525 328.970638 
L 1205.823783 328.821365 
L 1207.06204 327.530351 
L 1208.300297 325.703742 
L 1209.538555 324.114138 
L 1210.776812 323.543097 
L 1212.015069 324.173686 
L 1213.253326 325.371032 
L 1214.491584 326.400541 
L 1215.729841 327.013226 
L 1216.968098 327.164416 
L 1218.206355 326.553763 
L 1219.444613 324.924869 
L 1221.921127 320.420019 
L 1225.635899 314.340888 
L 1226.874156 312.904583 
L 1228.112414 312.519708 
L 1229.350671 312.974226 
L 1231.827185 314.653715 
L 1233.065443 315.182939 
L 1234.3037 315.113392 
L 1236.780214 314.118699 
L 1238.018472 314.370618 
L 1240.494986 316.139692 
L 1241.733243 316.159979 
L 1242.971501 314.697588 
L 1244.209758 311.82216 
L 1245.448015 308.454708 
L 1246.686273 305.830692 
L 1247.92453 304.75772 
L 1249.162787 305.369149 
L 1250.401044 307.265973 
L 1251.639302 309.712486 
L 1252.877559 311.903331 
L 1254.115816 313.315782 
L 1255.354073 313.96105 
L 1257.830588 314.523783 
L 1259.068845 314.67963 
L 1260.307103 314.457578 
L 1261.54536 313.923991 
L 1262.783617 313.588878 
L 1264.021874 313.906018 
L 1265.260132 314.5721 
L 1266.498389 314.651172 
L 1267.736646 313.613817 
L 1268.974903 311.90341 
L 1270.213161 310.44378 
L 1271.451418 309.986451 
L 1272.689675 310.834125 
L 1273.927932 312.756512 
L 1275.16619 315.041295 
L 1276.404447 316.72221 
L 1277.642704 317.019463 
L 1278.880962 315.79595 
L 1280.119219 313.592433 
L 1283.833991 306.190612 
L 1285.072248 304.148197 
L 1286.310505 303.337908 
L 1287.548762 303.993113 
L 1288.78702 305.689827 
L 1290.025277 307.989443 
L 1291.263534 310.709518 
L 1294.978306 319.817632 
L 1296.216563 321.177594 
L 1297.454821 320.445179 
L 1298.693078 317.988197 
L 1299.931335 314.745345 
L 1302.40785 307.242618 
L 1303.646107 303.464031 
L 1304.884364 300.773683 
L 1306.122621 299.888034 
L 1307.360879 300.863628 
L 1309.837393 305.444096 
L 1311.07565 307.045477 
L 1312.313908 307.307531 
L 1314.790422 305.729222 
L 1316.02868 305.726089 
L 1317.266937 306.465968 
L 1319.743451 308.562933 
L 1320.981709 309.360503 
L 1323.458223 310.527289 
L 1324.69648 310.725362 
L 1325.934738 310.252723 
L 1327.172995 309.077723 
L 1329.649509 305.609714 
L 1330.887767 304.899095 
L 1332.126024 305.891349 
L 1333.364281 308.130205 
L 1337.079053 316.299133 
L 1338.31731 318.356934 
L 1339.555568 319.16857 
L 1340.793825 318.997265 
L 1342.032082 318.376598 
L 1343.270339 317.352402 
L 1345.746854 314.815961 
L 1346.985111 314.015066 
L 1349.461626 312.960852 
L 1350.699883 312.513181 
L 1351.93814 312.269147 
L 1353.176398 312.445639 
L 1355.652912 313.7059 
L 1356.891169 313.999847 
L 1358.129427 313.744628 
L 1360.605941 312.584341 
L 1361.844198 312.705793 
L 1363.082456 313.722528 
L 1364.320713 315.115355 
L 1365.55897 315.988754 
L 1366.797228 315.862392 
L 1368.035485 314.699759 
L 1369.273742 312.567676 
L 1370.511999 309.873901 
L 1371.750257 307.45231 
L 1372.988514 306.03132 
L 1374.226771 305.878678 
L 1377.941543 308.083106 
L 1379.1798 308.756321 
L 1380.418057 309.643797 
L 1381.656315 310.081871 
L 1382.894572 309.707577 
L 1389.085858 305.536442 
L 1391.562373 303.371522 
L 1392.80063 302.878399 
L 1394.038887 303.224016 
L 1395.277145 304.443665 
L 1396.515402 306.647004 
L 1397.753659 309.921602 
L 1398.991916 313.513535 
L 1400.230174 315.896226 
L 1401.468431 316.119773 
L 1402.706688 314.372096 
L 1403.944946 311.27648 
L 1406.42146 303.33683 
L 1407.659717 300.254325 
L 1408.897975 299.045987 
L 1410.136232 299.781571 
L 1411.374489 301.545431 
L 1412.612746 302.920364 
L 1413.851004 302.893435 
L 1416.327518 300.25689 
L 1417.565775 299.691273 
L 1418.804033 299.670489 
L 1420.04229 299.424824 
L 1421.280547 298.605214 
L 1422.518805 297.169284 
L 1423.757062 295.318751 
L 1424.995319 293.948166 
L 1426.233576 294.211217 
L 1427.471834 296.303874 
L 1428.710091 299.207992 
L 1429.948348 301.585315 
L 1431.186605 302.803789 
L 1433.66312 303.649828 
L 1434.901377 303.838255 
L 1437.377892 303.273487 
L 1438.616149 303.447882 
L 1439.854406 303.975027 
L 1441.092664 304.277912 
L 1442.330921 303.9337 
L 1443.569178 302.922528 
L 1444.807435 301.460368 
L 1446.045693 299.582735 
L 1448.522207 294.945044 
L 1449.760464 293.749459 
L 1450.998722 293.946664 
L 1452.236979 294.703648 
L 1453.475236 295.185612 
L 1454.713494 295.436596 
L 1455.951751 296.094238 
L 1458.428265 298.791157 
L 1459.666523 299.14358 
L 1462.143037 297.840609 
L 1463.381294 298.38393 
L 1464.619552 300.359764 
L 1465.857809 303.067006 
L 1467.096066 305.503116 
L 1468.334323 307.094665 
L 1469.572581 307.711126 
L 1470.810838 307.266107 
L 1472.049095 305.881477 
L 1473.287353 304.044712 
L 1474.52561 301.993403 
L 1475.763867 299.4597 
L 1478.240382 293.172266 
L 1479.478639 290.946997 
L 1480.716896 290.443897 
L 1481.955153 291.747759 
L 1483.193411 294.268143 
L 1488.14644 306.40836 
L 1489.384697 308.672078 
L 1490.622954 309.46925 
L 1491.861212 308.654021 
L 1493.099469 306.760887 
L 1496.814241 299.753723 
L 1498.052498 298.774198 
L 1499.290755 299.102914 
L 1504.243784 303.499644 
L 1505.482041 304.229412 
L 1506.720299 304.147658 
L 1507.958556 303.264077 
L 1509.196813 301.886104 
L 1510.435071 300.077873 
L 1512.911585 295.30536 
L 1514.149842 293.742501 
L 1515.3881 293.931176 
L 1516.626357 295.709593 
L 1517.864614 297.750141 
L 1519.102871 298.387323 
L 1520.341129 296.826517 
L 1521.579386 293.650705 
L 1522.817643 290.16842 
L 1524.0559 287.40713 
L 1525.294158 285.68182 
L 1526.532415 284.841802 
L 1527.770672 284.674838 
L 1529.00893 285.120793 
L 1530.247187 286.204501 
L 1531.485444 287.660757 
L 1532.723701 288.792153 
L 1533.961959 288.937325 
L 1535.200216 287.944118 
L 1537.67673 284.319102 
L 1538.914988 282.914534 
L 1540.153245 282.096406 
L 1541.391502 281.522412 
L 1543.868017 280.164456 
L 1545.106274 280.677063 
L 1546.344531 283.172191 
L 1547.582789 287.549047 
L 1548.821046 292.737332 
L 1550.059303 297.042139 
L 1551.29756 299.241276 
L 1552.535818 299.510262 
L 1553.774075 298.820508 
L 1555.012332 297.811576 
L 1556.250589 296.483496 
L 1557.488847 294.518382 
L 1558.727104 291.738835 
L 1561.203619 285.129107 
L 1562.441876 282.772057 
L 1563.680133 281.819771 
L 1564.91839 282.373506 
L 1566.156648 284.362248 
L 1567.394905 287.252299 
L 1568.633162 289.8253 
L 1569.871419 290.964833 
L 1571.109677 290.500667 
L 1572.347934 289.160331 
L 1573.586191 288.01679 
L 1574.824448 287.877834 
L 1576.062706 288.936256 
L 1577.300963 290.857798 
L 1578.53922 293.020165 
L 1579.777478 294.715762 
L 1581.015735 295.359772 
L 1582.253992 294.716902 
L 1583.492249 293.080464 
L 1584.730507 291.146063 
L 1585.968764 289.715095 
L 1587.207021 289.531531 
L 1588.445278 290.835249 
L 1589.683536 292.79384 
L 1590.921793 293.873812 
L 1592.16005 293.006987 
L 1593.398307 290.243221 
L 1595.874822 282.998759 
L 1597.113079 280.868594 
L 1598.351337 280.613243 
L 1599.589594 281.967932 
L 1600.827851 284.067508 
L 1602.066108 285.782858 
L 1603.304366 286.203077 
L 1604.542623 285.226492 
L 1605.78088 283.682335 
L 1607.019137 282.551021 
L 1609.495652 281.431447 
L 1610.733909 280.278396 
L 1613.210424 276.561881 
L 1614.448681 275.401543 
L 1615.686938 275.656575 
L 1618.163453 277.941311 
L 1619.40171 278.399913 
L 1620.639967 278.138034 
L 1621.878225 277.230266 
L 1623.116482 275.751093 
L 1624.354739 273.892233 
L 1625.592996 272.388851 
L 1626.831254 272.200005 
L 1628.069511 273.364756 
L 1629.307768 274.742919 
L 1630.546026 275.111837 
L 1631.784283 274.22322 
L 1633.02254 272.833541 
L 1634.260797 271.88442 
L 1635.499055 271.755626 
L 1636.737312 272.463697 
L 1637.975569 274.557014 
L 1639.213826 279.179292 
L 1640.452084 286.778071 
L 1641.690341 296.304365 
L 1641.690341 296.304365 
" style="fill:none;stroke:#008000;stroke-linecap:square;stroke-width:1.5;"/>
   </g>
   <g id="patch_3">
    <path d="M 43.78125 586.86358 
L 43.78125 22.318125 
" style="fill:none;stroke:#000000;stroke-linecap:square;stroke-linejoin:miter;stroke-width:0.8;"/>
   </g>
   <g id="patch_4">
    <path d="M 1717.78125 586.86358 
L 1717.78125 22.318125 
" style="fill:none;stroke:#000000;stroke-linecap:square;stroke-linejoin:miter;stroke-width:0.8;"/>
   </g>
   <g id="patch_5">
    <path d="M 43.78125 586.86358 
L 1717.78125 586.86358 
" style="fill:none;stroke:#000000;stroke-linecap:square;stroke-linejoin:miter;stroke-width:0.8;"/>
   </g>
   <g id="patch_6">
    <path d="M 43.78125 22.318125 
L 1717.78125 22.318125 
" style="fill:none;stroke:#000000;stroke-linecap:square;stroke-linejoin:miter;stroke-width:0.8;"/>
   </g>
   <g id="text_15">
    <!-- before binarisation -->
    <g transform="translate(824.1825 16.318125)scale(0.12 -0.12)">
     <defs>
      <path d="M 3116 1747 
Q 3116 2381 2855 2742 
Q 2594 3103 2138 3103 
Q 1681 3103 1420 2742 
Q 1159 2381 1159 1747 
Q 1159 1113 1420 752 
Q 1681 391 2138 391 
Q 2594 391 2855 752 
Q 3116 1113 3116 1747 
z
M 1159 2969 
Q 1341 3281 1617 3432 
Q 1894 3584 2278 3584 
Q 2916 3584 3314 3078 
Q 3713 2572 3713 1747 
Q 3713 922 3314 415 
Q 2916 -91 2278 -91 
Q 1894 -91 1617 61 
Q 1341 213 1159 525 
L 1159 0 
L 581 0 
L 581 4863 
L 1159 4863 
L 1159 2969 
z
" id="DejaVuSans-62" transform="scale(0.015625)"/>
      <path d="M 1959 3097 
Q 1497 3097 1228 2736 
Q 959 2375 959 1747 
Q 959 1119 1226 758 
Q 1494 397 1959 397 
Q 2419 397 2687 759 
Q 2956 1122 2956 1747 
Q 2956 2369 2687 2733 
Q 2419 3097 1959 3097 
z
M 1959 3584 
Q 2709 3584 3137 3096 
Q 3566 2609 3566 1747 
Q 3566 888 3137 398 
Q 2709 -91 1959 -91 
Q 1206 -91 779 398 
Q 353 888 353 1747 
Q 353 2609 779 3096 
Q 1206 3584 1959 3584 
z
" id="DejaVuSans-6f" transform="scale(0.015625)"/>
      <path id="DejaVuSans-20" transform="scale(0.015625)"/>
      <path d="M 603 3500 
L 1178 3500 
L 1178 0 
L 603 0 
L 603 3500 
z
M 603 4863 
L 1178 4863 
L 1178 4134 
L 603 4134 
L 603 4863 
z
" id="DejaVuSans-69" transform="scale(0.015625)"/>
      <path d="M 3513 2113 
L 3513 0 
L 2938 0 
L 2938 2094 
Q 2938 2591 2744 2837 
Q 2550 3084 2163 3084 
Q 1697 3084 1428 2787 
Q 1159 2491 1159 1978 
L 1159 0 
L 581 0 
L 581 3500 
L 1159 3500 
L 1159 2956 
Q 1366 3272 1645 3428 
Q 1925 3584 2291 3584 
Q 2894 3584 3203 3211 
Q 3513 2838 3513 2113 
z
" id="DejaVuSans-6e" transform="scale(0.015625)"/>
      <path d="M 2834 3397 
L 2834 2853 
Q 2591 2978 2328 3040 
Q 2066 3103 1784 3103 
Q 1356 3103 1142 2972 
Q 928 2841 928 2578 
Q 928 2378 1081 2264 
Q 1234 2150 1697 2047 
L 1894 2003 
Q 2506 1872 2764 1633 
Q 3022 1394 3022 966 
Q 3022 478 2636 193 
Q 2250 -91 1575 -91 
Q 1294 -91 989 -36 
Q 684 19 347 128 
L 347 722 
Q 666 556 975 473 
Q 1284 391 1588 391 
Q 1994 391 2212 530 
Q 2431 669 2431 922 
Q 2431 1156 2273 1281 
Q 2116 1406 1581 1522 
L 1381 1569 
Q 847 1681 609 1914 
Q 372 2147 372 2553 
Q 372 3047 722 3315 
Q 1072 3584 1716 3584 
Q 2034 3584 2315 3537 
Q 2597 3491 2834 3397 
z
" id="DejaVuSans-73" transform="scale(0.015625)"/>
      <path d="M 1172 4494 
L 1172 3500 
L 2356 3500 
L 2356 3053 
L 1172 3053 
L 1172 1153 
Q 1172 725 1289 603 
Q 1406 481 1766 481 
L 2356 481 
L 2356 0 
L 1766 0 
Q 1100 0 847 248 
Q 594 497 594 1153 
L 594 3053 
L 172 3053 
L 172 3500 
L 594 3500 
L 594 4494 
L 1172 4494 
z
" id="DejaVuSans-74" transform="scale(0.015625)"/>
     </defs>
     <use xlink:href="#DejaVuSans-62"/>
     <use x="63.476562" xlink:href="#DejaVuSans-65"/>
     <use x="125" xlink:href="#DejaVuSans-66"/>
     <use x="160.205078" xlink:href="#DejaVuSans-6f"/>
     <use x="221.386719" xlink:href="#DejaVuSans-72"/>
     <use x="260.25" xlink:href="#DejaVuSans-65"/>
     <use x="321.773438" xlink:href="#DejaVuSans-20"/>
     <use x="353.560547" xlink:href="#DejaVuSans-62"/>
     <use x="417.037109" xlink:href="#DejaVuSans-69"/>
     <use x="444.820312" xlink:href="#DejaVuSans-6e"/>
     <use x="508.199219" xlink:href="#DejaVuSans-61"/>
     <use x="569.478516" xlink:href="#DejaVuSans-72"/>
     <use x="610.591797" xlink:href="#DejaVuSans-69"/>
     <use x="638.375" xlink:href="#DejaVuSans-73"/>
     <use x="690.474609" xlink:href="#DejaVuSans-61"/>
     <use x="751.753906" xlink:href="#DejaVuSans-74"/>
     <use x="790.962891" xlink:href="#DejaVuSans-69"/>
     <use x="818.746094" xlink:href="#DejaVuSans-6f"/>
     <use x="879.927734" xlink:href="#DejaVuSans-6e"/>
    </g>
   </g>
  </g>
  <g id="axes_2">
   <g id="patch_7">
    <path d="M 43.78125 1264.318125 
L 1717.78125 1264.318125 
L 1717.78125 699.77267 
L 43.78125 699.77267 
z
" style="fill:#ffffff;"/>
   </g>
   <g id="matplotlib.axis_3">
    <g id="xtick_8">
     <g id="line2d_14">
      <g>
       <use style="stroke:#000000;stroke-width:0.8;" x="119.872159" xlink:href="#mf5615630b7" y="1264.318125"/>
      </g>
     </g>
     <g id="text_16">
      <!-- 0 -->
      <g transform="translate(116.690909 1278.916563)scale(0.1 -0.1)">
       <use xlink:href="#DejaVuSans-30"/>
      </g>
     </g>
    </g>
    <g id="xtick_9">
     <g id="line2d_15">
      <g>
       <use style="stroke:#000000;stroke-width:0.8;" x="367.523613" xlink:href="#mf5615630b7" y="1264.318125"/>
      </g>
     </g>
     <g id="text_17">
      <!-- 200 -->
      <g transform="translate(357.979863 1278.916563)scale(0.1 -0.1)">
       <use xlink:href="#DejaVuSans-32"/>
       <use x="63.623047" xlink:href="#DejaVuSans-30"/>
       <use x="127.246094" xlink:href="#DejaVuSans-30"/>
      </g>
     </g>
    </g>
    <g id="xtick_10">
     <g id="line2d_16">
      <g>
       <use style="stroke:#000000;stroke-width:0.8;" x="615.175066" xlink:href="#mf5615630b7" y="1264.318125"/>
      </g>
     </g>
     <g id="text_18">
      <!-- 400 -->
      <g transform="translate(605.631316 1278.916563)scale(0.1 -0.1)">
       <use xlink:href="#DejaVuSans-34"/>
       <use x="63.623047" xlink:href="#DejaVuSans-30"/>
       <use x="127.246094" xlink:href="#DejaVuSans-30"/>
      </g>
     </g>
    </g>
    <g id="xtick_11">
     <g id="line2d_17">
      <g>
       <use style="stroke:#000000;stroke-width:0.8;" x="862.82652" xlink:href="#mf5615630b7" y="1264.318125"/>
      </g>
     </g>
     <g id="text_19">
      <!-- 600 -->
      <g transform="translate(853.28277 1278.916563)scale(0.1 -0.1)">
       <use xlink:href="#DejaVuSans-36"/>
       <use x="63.623047" xlink:href="#DejaVuSans-30"/>
       <use x="127.246094" xlink:href="#DejaVuSans-30"/>
      </g>
     </g>
    </g>
    <g id="xtick_12">
     <g id="line2d_18">
      <g>
       <use style="stroke:#000000;stroke-width:0.8;" x="1110.477973" xlink:href="#mf5615630b7" y="1264.318125"/>
      </g>
     </g>
     <g id="text_20">
      <!-- 800 -->
      <g transform="translate(1100.934223 1278.916563)scale(0.1 -0.1)">
       <use xlink:href="#DejaVuSans-38"/>
       <use x="63.623047" xlink:href="#DejaVuSans-30"/>
       <use x="127.246094" xlink:href="#DejaVuSans-30"/>
      </g>
     </g>
    </g>
    <g id="xtick_13">
     <g id="line2d_19">
      <g>
       <use style="stroke:#000000;stroke-width:0.8;" x="1358.129427" xlink:href="#mf5615630b7" y="1264.318125"/>
      </g>
     </g>
     <g id="text_21">
      <!-- 1000 -->
      <g transform="translate(1345.404427 1278.916563)scale(0.1 -0.1)">
       <use xlink:href="#DejaVuSans-31"/>
       <use x="63.623047" xlink:href="#DejaVuSans-30"/>
       <use x="127.246094" xlink:href="#DejaVuSans-30"/>
       <use x="190.869141" xlink:href="#DejaVuSans-30"/>
      </g>
     </g>
    </g>
    <g id="xtick_14">
     <g id="line2d_20">
      <g>
       <use style="stroke:#000000;stroke-width:0.8;" x="1605.78088" xlink:href="#mf5615630b7" y="1264.318125"/>
      </g>
     </g>
     <g id="text_22">
      <!-- 1200 -->
      <g transform="translate(1593.05588 1278.916563)scale(0.1 -0.1)">
       <use xlink:href="#DejaVuSans-31"/>
       <use x="63.623047" xlink:href="#DejaVuSans-32"/>
       <use x="127.246094" xlink:href="#DejaVuSans-30"/>
       <use x="190.869141" xlink:href="#DejaVuSans-30"/>
      </g>
     </g>
    </g>
    <g id="text_23">
     <!-- frame -->
     <g transform="translate(865.954687 1292.594688)scale(0.1 -0.1)">
      <use xlink:href="#DejaVuSans-66"/>
      <use x="35.205078" xlink:href="#DejaVuSans-72"/>
      <use x="76.318359" xlink:href="#DejaVuSans-61"/>
      <use x="137.597656" xlink:href="#DejaVuSans-6d"/>
      <use x="235.009766" xlink:href="#DejaVuSans-65"/>
     </g>
    </g>
   </g>
   <g id="matplotlib.axis_4">
    <g id="ytick_6">
     <g id="line2d_21">
      <g>
       <use style="stroke:#000000;stroke-width:0.8;" x="43.78125" xlink:href="#me6b3b8662e" y="1238.656968"/>
      </g>
     </g>
     <g id="text_24">
      <!-- 0.0 -->
      <g transform="translate(20.878125 1242.456187)scale(0.1 -0.1)">
       <defs>
        <path d="M 684 794 
L 1344 794 
L 1344 0 
L 684 0 
L 684 794 
z
" id="DejaVuSans-2e" transform="scale(0.015625)"/>
       </defs>
       <use xlink:href="#DejaVuSans-30"/>
       <use x="63.623047" xlink:href="#DejaVuSans-2e"/>
       <use x="95.410156" xlink:href="#DejaVuSans-30"/>
      </g>
     </g>
    </g>
    <g id="ytick_7">
     <g id="line2d_22">
      <g>
       <use style="stroke:#000000;stroke-width:0.8;" x="43.78125" xlink:href="#me6b3b8662e" y="1136.01234"/>
      </g>
     </g>
     <g id="text_25">
      <!-- 0.2 -->
      <g transform="translate(20.878125 1139.811559)scale(0.1 -0.1)">
       <use xlink:href="#DejaVuSans-30"/>
       <use x="63.623047" xlink:href="#DejaVuSans-2e"/>
       <use x="95.410156" xlink:href="#DejaVuSans-32"/>
      </g>
     </g>
    </g>
    <g id="ytick_8">
     <g id="line2d_23">
      <g>
       <use style="stroke:#000000;stroke-width:0.8;" x="43.78125" xlink:href="#me6b3b8662e" y="1033.367712"/>
      </g>
     </g>
     <g id="text_26">
      <!-- 0.4 -->
      <g transform="translate(20.878125 1037.166931)scale(0.1 -0.1)">
       <use xlink:href="#DejaVuSans-30"/>
       <use x="63.623047" xlink:href="#DejaVuSans-2e"/>
       <use x="95.410156" xlink:href="#DejaVuSans-34"/>
      </g>
     </g>
    </g>
    <g id="ytick_9">
     <g id="line2d_24">
      <g>
       <use style="stroke:#000000;stroke-width:0.8;" x="43.78125" xlink:href="#me6b3b8662e" y="930.723084"/>
      </g>
     </g>
     <g id="text_27">
      <!-- 0.6 -->
      <g transform="translate(20.878125 934.522302)scale(0.1 -0.1)">
       <use xlink:href="#DejaVuSans-30"/>
       <use x="63.623047" xlink:href="#DejaVuSans-2e"/>
       <use x="95.410156" xlink:href="#DejaVuSans-36"/>
      </g>
     </g>
    </g>
    <g id="ytick_10">
     <g id="line2d_25">
      <g>
       <use style="stroke:#000000;stroke-width:0.8;" x="43.78125" xlink:href="#me6b3b8662e" y="828.078456"/>
      </g>
     </g>
     <g id="text_28">
      <!-- 0.8 -->
      <g transform="translate(20.878125 831.877674)scale(0.1 -0.1)">
       <use xlink:href="#DejaVuSans-30"/>
       <use x="63.623047" xlink:href="#DejaVuSans-2e"/>
       <use x="95.410156" xlink:href="#DejaVuSans-38"/>
      </g>
     </g>
    </g>
    <g id="ytick_11">
     <g id="line2d_26">
      <g>
       <use style="stroke:#000000;stroke-width:0.8;" x="43.78125" xlink:href="#me6b3b8662e" y="725.433827"/>
      </g>
     </g>
     <g id="text_29">
      <!-- 1.0 -->
      <g transform="translate(20.878125 729.233046)scale(0.1 -0.1)">
       <use xlink:href="#DejaVuSans-31"/>
       <use x="63.623047" xlink:href="#DejaVuSans-2e"/>
       <use x="95.410156" xlink:href="#DejaVuSans-30"/>
      </g>
     </g>
    </g>
    <g id="text_30">
     <!-- GCaMP -->
     <g transform="translate(14.798437 999.803991)rotate(-90)scale(0.1 -0.1)">
      <use xlink:href="#DejaVuSans-47"/>
      <use x="77.490234" xlink:href="#DejaVuSans-43"/>
      <use x="147.314453" xlink:href="#DejaVuSans-61"/>
      <use x="208.59375" xlink:href="#DejaVuSans-4d"/>
      <use x="294.873047" xlink:href="#DejaVuSans-50"/>
     </g>
    </g>
   </g>
   <g id="line2d_27">
    <path clip-path="url(#pa5211d3055)" d="M 119.872159 725.433827 
L 314.27855 725.433827 
L 315.516807 1238.656968 
L 1641.690341 1238.656968 
L 1641.690341 1238.656968 
" style="fill:none;stroke:#008000;stroke-linecap:square;stroke-width:1.5;"/>
   </g>
   <g id="patch_8">
    <path d="M 43.78125 1264.318125 
L 43.78125 699.77267 
" style="fill:none;stroke:#000000;stroke-linecap:square;stroke-linejoin:miter;stroke-width:0.8;"/>
   </g>
   <g id="patch_9">
    <path d="M 1717.78125 1264.318125 
L 1717.78125 699.77267 
" style="fill:none;stroke:#000000;stroke-linecap:square;stroke-linejoin:miter;stroke-width:0.8;"/>
   </g>
   <g id="patch_10">
    <path d="M 43.78125 1264.318125 
L 1717.78125 1264.318125 
" style="fill:none;stroke:#000000;stroke-linecap:square;stroke-linejoin:miter;stroke-width:0.8;"/>
   </g>
   <g id="patch_11">
    <path d="M 43.78125 699.77267 
L 1717.78125 699.77267 
" style="fill:none;stroke:#000000;stroke-linecap:square;stroke-linejoin:miter;stroke-width:0.8;"/>
   </g>
   <g id="text_31">
    <!-- before binarisation -->
    <g transform="translate(824.1825 693.77267)scale(0.12 -0.12)">
     <use xlink:href="#DejaVuSans-62"/>
     <use x="63.476562" xlink:href="#DejaVuSans-65"/>
     <use x="125" xlink:href="#DejaVuSans-66"/>
     <use x="160.205078" xlink:href="#DejaVuSans-6f"/>
     <use x="221.386719" xlink:href="#DejaVuSans-72"/>
     <use x="260.25" xlink:href="#DejaVuSans-65"/>
     <use x="321.773438" xlink:href="#DejaVuSans-20"/>
     <use x="353.560547" xlink:href="#DejaVuSans-62"/>
     <use x="417.037109" xlink:href="#DejaVuSans-69"/>
     <use x="444.820312" xlink:href="#DejaVuSans-6e"/>
     <use x="508.199219" xlink:href="#DejaVuSans-61"/>
     <use x="569.478516" xlink:href="#DejaVuSans-72"/>
     <use x="610.591797" xlink:href="#DejaVuSans-69"/>
     <use x="638.375" xlink:href="#DejaVuSans-73"/>
     <use x="690.474609" xlink:href="#DejaVuSans-61"/>
     <use x="751.753906" xlink:href="#DejaVuSans-74"/>
     <use x="790.962891" xlink:href="#DejaVuSans-69"/>
     <use x="818.746094" xlink:href="#DejaVuSans-6f"/>
     <use x="879.927734" xlink:href="#DejaVuSans-6e"/>
    </g>
   </g>
  </g>
 </g>
 <defs>
  <clipPath id="p5804e2e439">
   <rect height="564.545455" width="1674" x="43.78125" y="22.318125"/>
  </clipPath>
  <clipPath id="pa5211d3055">
   <rect height="564.545455" width="1674" x="43.78125" y="699.77267"/>
  </clipPath>
 </defs>
</svg>
