<?xml version="1.0" encoding="utf-8" standalone="no"?>
<!DOCTYPE svg PUBLIC "-//W3C//DTD SVG 1.1//EN"
  "http://www.w3.org/Graphics/SVG/1.1/DTD/svg11.dtd">
<svg height="1301.874375pt" version="1.1" viewBox="0 0 1724.98125 1301.874375" width="1724.98125pt" xmlns="http://www.w3.org/2000/svg" xmlns:xlink="http://www.w3.org/1999/xlink">
 <metadata>
  <rdf:RDF xmlns:cc="http://creativecommons.org/ns#" xmlns:dc="http://purl.org/dc/elements/1.1/" xmlns:rdf="http://www.w3.org/1999/02/22-rdf-syntax-ns#">
   <cc:Work>
    <dc:type rdf:resource="http://purl.org/dc/dcmitype/StillImage"/>
    <dc:date>2022-07-24T15:54:37.073691</dc:date>
    <dc:format>image/svg+xml</dc:format>
    <dc:creator>
     <cc:Agent>
      <dc:title>Matplotlib v3.4.2, https://matplotlib.org/</dc:title>
     </cc:Agent>
    </dc:creator>
   </cc:Work>
  </rdf:RDF>
 </metadata>
 <defs>
  <style type="text/css">*{stroke-linecap:butt;stroke-linejoin:round;}</style>
 </defs>
 <g id="figure_1">
  <g id="patch_1">
   <path d="M 0 1301.874375 
L 1724.98125 1301.874375 
L 1724.98125 0 
L 0 0 
z
" style="fill:#ffffff;"/>
  </g>
  <g id="axes_1">
   <g id="patch_2">
    <path d="M 43.78125 586.86358 
L 1717.78125 586.86358 
L 1717.78125 22.318125 
L 43.78125 22.318125 
z
" style="fill:#ffffff;"/>
   </g>
   <g id="matplotlib.axis_1">
    <g id="xtick_1">
     <g id="line2d_1">
      <defs>
       <path d="M 0 0 
L 0 3.5 
" id="ma0db634911" style="stroke:#000000;stroke-width:0.8;"/>
      </defs>
      <g>
       <use style="stroke:#000000;stroke-width:0.8;" x="119.872159" xlink:href="#ma0db634911" y="586.86358"/>
      </g>
     </g>
     <g id="text_1">
      <!-- 0 -->
      <g transform="translate(116.690909 601.462017)scale(0.1 -0.1)">
       <defs>
        <path d="M 2034 4250 
Q 1547 4250 1301 3770 
Q 1056 3291 1056 2328 
Q 1056 1369 1301 889 
Q 1547 409 2034 409 
Q 2525 409 2770 889 
Q 3016 1369 3016 2328 
Q 3016 3291 2770 3770 
Q 2525 4250 2034 4250 
z
M 2034 4750 
Q 2819 4750 3233 4129 
Q 3647 3509 3647 2328 
Q 3647 1150 3233 529 
Q 2819 -91 2034 -91 
Q 1250 -91 836 529 
Q 422 1150 422 2328 
Q 422 3509 836 4129 
Q 1250 4750 2034 4750 
z
" id="DejaVuSans-30" transform="scale(0.015625)"/>
       </defs>
       <use xlink:href="#DejaVuSans-30"/>
      </g>
     </g>
    </g>
    <g id="xtick_2">
     <g id="line2d_2">
      <g>
       <use style="stroke:#000000;stroke-width:0.8;" x="367.523613" xlink:href="#ma0db634911" y="586.86358"/>
      </g>
     </g>
     <g id="text_2">
      <!-- 200 -->
      <g transform="translate(357.979863 601.462017)scale(0.1 -0.1)">
       <defs>
        <path d="M 1228 531 
L 3431 531 
L 3431 0 
L 469 0 
L 469 531 
Q 828 903 1448 1529 
Q 2069 2156 2228 2338 
Q 2531 2678 2651 2914 
Q 2772 3150 2772 3378 
Q 2772 3750 2511 3984 
Q 2250 4219 1831 4219 
Q 1534 4219 1204 4116 
Q 875 4013 500 3803 
L 500 4441 
Q 881 4594 1212 4672 
Q 1544 4750 1819 4750 
Q 2544 4750 2975 4387 
Q 3406 4025 3406 3419 
Q 3406 3131 3298 2873 
Q 3191 2616 2906 2266 
Q 2828 2175 2409 1742 
Q 1991 1309 1228 531 
z
" id="DejaVuSans-32" transform="scale(0.015625)"/>
       </defs>
       <use xlink:href="#DejaVuSans-32"/>
       <use x="63.623047" xlink:href="#DejaVuSans-30"/>
       <use x="127.246094" xlink:href="#DejaVuSans-30"/>
      </g>
     </g>
    </g>
    <g id="xtick_3">
     <g id="line2d_3">
      <g>
       <use style="stroke:#000000;stroke-width:0.8;" x="615.175066" xlink:href="#ma0db634911" y="586.86358"/>
      </g>
     </g>
     <g id="text_3">
      <!-- 400 -->
      <g transform="translate(605.631316 601.462017)scale(0.1 -0.1)">
       <defs>
        <path d="M 2419 4116 
L 825 1625 
L 2419 1625 
L 2419 4116 
z
M 2253 4666 
L 3047 4666 
L 3047 1625 
L 3713 1625 
L 3713 1100 
L 3047 1100 
L 3047 0 
L 2419 0 
L 2419 1100 
L 313 1100 
L 313 1709 
L 2253 4666 
z
" id="DejaVuSans-34" transform="scale(0.015625)"/>
       </defs>
       <use xlink:href="#DejaVuSans-34"/>
       <use x="63.623047" xlink:href="#DejaVuSans-30"/>
       <use x="127.246094" xlink:href="#DejaVuSans-30"/>
      </g>
     </g>
    </g>
    <g id="xtick_4">
     <g id="line2d_4">
      <g>
       <use style="stroke:#000000;stroke-width:0.8;" x="862.82652" xlink:href="#ma0db634911" y="586.86358"/>
      </g>
     </g>
     <g id="text_4">
      <!-- 600 -->
      <g transform="translate(853.28277 601.462017)scale(0.1 -0.1)">
       <defs>
        <path d="M 2113 2584 
Q 1688 2584 1439 2293 
Q 1191 2003 1191 1497 
Q 1191 994 1439 701 
Q 1688 409 2113 409 
Q 2538 409 2786 701 
Q 3034 994 3034 1497 
Q 3034 2003 2786 2293 
Q 2538 2584 2113 2584 
z
M 3366 4563 
L 3366 3988 
Q 3128 4100 2886 4159 
Q 2644 4219 2406 4219 
Q 1781 4219 1451 3797 
Q 1122 3375 1075 2522 
Q 1259 2794 1537 2939 
Q 1816 3084 2150 3084 
Q 2853 3084 3261 2657 
Q 3669 2231 3669 1497 
Q 3669 778 3244 343 
Q 2819 -91 2113 -91 
Q 1303 -91 875 529 
Q 447 1150 447 2328 
Q 447 3434 972 4092 
Q 1497 4750 2381 4750 
Q 2619 4750 2861 4703 
Q 3103 4656 3366 4563 
z
" id="DejaVuSans-36" transform="scale(0.015625)"/>
       </defs>
       <use xlink:href="#DejaVuSans-36"/>
       <use x="63.623047" xlink:href="#DejaVuSans-30"/>
       <use x="127.246094" xlink:href="#DejaVuSans-30"/>
      </g>
     </g>
    </g>
    <g id="xtick_5">
     <g id="line2d_5">
      <g>
       <use style="stroke:#000000;stroke-width:0.8;" x="1110.477973" xlink:href="#ma0db634911" y="586.86358"/>
      </g>
     </g>
     <g id="text_5">
      <!-- 800 -->
      <g transform="translate(1100.934223 601.462017)scale(0.1 -0.1)">
       <defs>
        <path d="M 2034 2216 
Q 1584 2216 1326 1975 
Q 1069 1734 1069 1313 
Q 1069 891 1326 650 
Q 1584 409 2034 409 
Q 2484 409 2743 651 
Q 3003 894 3003 1313 
Q 3003 1734 2745 1975 
Q 2488 2216 2034 2216 
z
M 1403 2484 
Q 997 2584 770 2862 
Q 544 3141 544 3541 
Q 544 4100 942 4425 
Q 1341 4750 2034 4750 
Q 2731 4750 3128 4425 
Q 3525 4100 3525 3541 
Q 3525 3141 3298 2862 
Q 3072 2584 2669 2484 
Q 3125 2378 3379 2068 
Q 3634 1759 3634 1313 
Q 3634 634 3220 271 
Q 2806 -91 2034 -91 
Q 1263 -91 848 271 
Q 434 634 434 1313 
Q 434 1759 690 2068 
Q 947 2378 1403 2484 
z
M 1172 3481 
Q 1172 3119 1398 2916 
Q 1625 2713 2034 2713 
Q 2441 2713 2670 2916 
Q 2900 3119 2900 3481 
Q 2900 3844 2670 4047 
Q 2441 4250 2034 4250 
Q 1625 4250 1398 4047 
Q 1172 3844 1172 3481 
z
" id="DejaVuSans-38" transform="scale(0.015625)"/>
       </defs>
       <use xlink:href="#DejaVuSans-38"/>
       <use x="63.623047" xlink:href="#DejaVuSans-30"/>
       <use x="127.246094" xlink:href="#DejaVuSans-30"/>
      </g>
     </g>
    </g>
    <g id="xtick_6">
     <g id="line2d_6">
      <g>
       <use style="stroke:#000000;stroke-width:0.8;" x="1358.129427" xlink:href="#ma0db634911" y="586.86358"/>
      </g>
     </g>
     <g id="text_6">
      <!-- 1000 -->
      <g transform="translate(1345.404427 601.462017)scale(0.1 -0.1)">
       <defs>
        <path d="M 794 531 
L 1825 531 
L 1825 4091 
L 703 3866 
L 703 4441 
L 1819 4666 
L 2450 4666 
L 2450 531 
L 3481 531 
L 3481 0 
L 794 0 
L 794 531 
z
" id="DejaVuSans-31" transform="scale(0.015625)"/>
       </defs>
       <use xlink:href="#DejaVuSans-31"/>
       <use x="63.623047" xlink:href="#DejaVuSans-30"/>
       <use x="127.246094" xlink:href="#DejaVuSans-30"/>
       <use x="190.869141" xlink:href="#DejaVuSans-30"/>
      </g>
     </g>
    </g>
    <g id="xtick_7">
     <g id="line2d_7">
      <g>
       <use style="stroke:#000000;stroke-width:0.8;" x="1605.78088" xlink:href="#ma0db634911" y="586.86358"/>
      </g>
     </g>
     <g id="text_7">
      <!-- 1200 -->
      <g transform="translate(1593.05588 601.462017)scale(0.1 -0.1)">
       <use xlink:href="#DejaVuSans-31"/>
       <use x="63.623047" xlink:href="#DejaVuSans-32"/>
       <use x="127.246094" xlink:href="#DejaVuSans-30"/>
       <use x="190.869141" xlink:href="#DejaVuSans-30"/>
      </g>
     </g>
    </g>
    <g id="text_8">
     <!-- frame -->
     <g transform="translate(865.954687 615.140142)scale(0.1 -0.1)">
      <defs>
       <path d="M 2375 4863 
L 2375 4384 
L 1825 4384 
Q 1516 4384 1395 4259 
Q 1275 4134 1275 3809 
L 1275 3500 
L 2222 3500 
L 2222 3053 
L 1275 3053 
L 1275 0 
L 697 0 
L 697 3053 
L 147 3053 
L 147 3500 
L 697 3500 
L 697 3744 
Q 697 4328 969 4595 
Q 1241 4863 1831 4863 
L 2375 4863 
z
" id="DejaVuSans-66" transform="scale(0.015625)"/>
       <path d="M 2631 2963 
Q 2534 3019 2420 3045 
Q 2306 3072 2169 3072 
Q 1681 3072 1420 2755 
Q 1159 2438 1159 1844 
L 1159 0 
L 581 0 
L 581 3500 
L 1159 3500 
L 1159 2956 
Q 1341 3275 1631 3429 
Q 1922 3584 2338 3584 
Q 2397 3584 2469 3576 
Q 2541 3569 2628 3553 
L 2631 2963 
z
" id="DejaVuSans-72" transform="scale(0.015625)"/>
       <path d="M 2194 1759 
Q 1497 1759 1228 1600 
Q 959 1441 959 1056 
Q 959 750 1161 570 
Q 1363 391 1709 391 
Q 2188 391 2477 730 
Q 2766 1069 2766 1631 
L 2766 1759 
L 2194 1759 
z
M 3341 1997 
L 3341 0 
L 2766 0 
L 2766 531 
Q 2569 213 2275 61 
Q 1981 -91 1556 -91 
Q 1019 -91 701 211 
Q 384 513 384 1019 
Q 384 1609 779 1909 
Q 1175 2209 1959 2209 
L 2766 2209 
L 2766 2266 
Q 2766 2663 2505 2880 
Q 2244 3097 1772 3097 
Q 1472 3097 1187 3025 
Q 903 2953 641 2809 
L 641 3341 
Q 956 3463 1253 3523 
Q 1550 3584 1831 3584 
Q 2591 3584 2966 3190 
Q 3341 2797 3341 1997 
z
" id="DejaVuSans-61" transform="scale(0.015625)"/>
       <path d="M 3328 2828 
Q 3544 3216 3844 3400 
Q 4144 3584 4550 3584 
Q 5097 3584 5394 3201 
Q 5691 2819 5691 2113 
L 5691 0 
L 5113 0 
L 5113 2094 
Q 5113 2597 4934 2840 
Q 4756 3084 4391 3084 
Q 3944 3084 3684 2787 
Q 3425 2491 3425 1978 
L 3425 0 
L 2847 0 
L 2847 2094 
Q 2847 2600 2669 2842 
Q 2491 3084 2119 3084 
Q 1678 3084 1418 2786 
Q 1159 2488 1159 1978 
L 1159 0 
L 581 0 
L 581 3500 
L 1159 3500 
L 1159 2956 
Q 1356 3278 1631 3431 
Q 1906 3584 2284 3584 
Q 2666 3584 2933 3390 
Q 3200 3197 3328 2828 
z
" id="DejaVuSans-6d" transform="scale(0.015625)"/>
       <path d="M 3597 1894 
L 3597 1613 
L 953 1613 
Q 991 1019 1311 708 
Q 1631 397 2203 397 
Q 2534 397 2845 478 
Q 3156 559 3463 722 
L 3463 178 
Q 3153 47 2828 -22 
Q 2503 -91 2169 -91 
Q 1331 -91 842 396 
Q 353 884 353 1716 
Q 353 2575 817 3079 
Q 1281 3584 2069 3584 
Q 2775 3584 3186 3129 
Q 3597 2675 3597 1894 
z
M 3022 2063 
Q 3016 2534 2758 2815 
Q 2500 3097 2075 3097 
Q 1594 3097 1305 2825 
Q 1016 2553 972 2059 
L 3022 2063 
z
" id="DejaVuSans-65" transform="scale(0.015625)"/>
      </defs>
      <use xlink:href="#DejaVuSans-66"/>
      <use x="35.205078" xlink:href="#DejaVuSans-72"/>
      <use x="76.318359" xlink:href="#DejaVuSans-61"/>
      <use x="137.597656" xlink:href="#DejaVuSans-6d"/>
      <use x="235.009766" xlink:href="#DejaVuSans-65"/>
     </g>
    </g>
   </g>
   <g id="matplotlib.axis_2">
    <g id="ytick_1">
     <g id="line2d_8">
      <defs>
       <path d="M 0 0 
L -3.5 0 
" id="m6e9b84d2da" style="stroke:#000000;stroke-width:0.8;"/>
      </defs>
      <g>
       <use style="stroke:#000000;stroke-width:0.8;" x="43.78125" xlink:href="#m6e9b84d2da" y="495.565822"/>
      </g>
     </g>
     <g id="text_9">
      <!-- 1.0 -->
      <g transform="translate(20.878125 499.365041)scale(0.1 -0.1)">
       <defs>
        <path d="M 684 794 
L 1344 794 
L 1344 0 
L 684 0 
L 684 794 
z
" id="DejaVuSans-2e" transform="scale(0.015625)"/>
       </defs>
       <use xlink:href="#DejaVuSans-31"/>
       <use x="63.623047" xlink:href="#DejaVuSans-2e"/>
       <use x="95.410156" xlink:href="#DejaVuSans-30"/>
      </g>
     </g>
    </g>
    <g id="ytick_2">
     <g id="line2d_9">
      <g>
       <use style="stroke:#000000;stroke-width:0.8;" x="43.78125" xlink:href="#m6e9b84d2da" y="381.694574"/>
      </g>
     </g>
     <g id="text_10">
      <!-- 1.5 -->
      <g transform="translate(20.878125 385.493792)scale(0.1 -0.1)">
       <defs>
        <path d="M 691 4666 
L 3169 4666 
L 3169 4134 
L 1269 4134 
L 1269 2991 
Q 1406 3038 1543 3061 
Q 1681 3084 1819 3084 
Q 2600 3084 3056 2656 
Q 3513 2228 3513 1497 
Q 3513 744 3044 326 
Q 2575 -91 1722 -91 
Q 1428 -91 1123 -41 
Q 819 9 494 109 
L 494 744 
Q 775 591 1075 516 
Q 1375 441 1709 441 
Q 2250 441 2565 725 
Q 2881 1009 2881 1497 
Q 2881 1984 2565 2268 
Q 2250 2553 1709 2553 
Q 1456 2553 1204 2497 
Q 953 2441 691 2322 
L 691 4666 
z
" id="DejaVuSans-35" transform="scale(0.015625)"/>
       </defs>
       <use xlink:href="#DejaVuSans-31"/>
       <use x="63.623047" xlink:href="#DejaVuSans-2e"/>
       <use x="95.410156" xlink:href="#DejaVuSans-35"/>
      </g>
     </g>
    </g>
    <g id="ytick_3">
     <g id="line2d_10">
      <g>
       <use style="stroke:#000000;stroke-width:0.8;" x="43.78125" xlink:href="#m6e9b84d2da" y="267.823325"/>
      </g>
     </g>
     <g id="text_11">
      <!-- 2.0 -->
      <g transform="translate(20.878125 271.622544)scale(0.1 -0.1)">
       <use xlink:href="#DejaVuSans-32"/>
       <use x="63.623047" xlink:href="#DejaVuSans-2e"/>
       <use x="95.410156" xlink:href="#DejaVuSans-30"/>
      </g>
     </g>
    </g>
    <g id="ytick_4">
     <g id="line2d_11">
      <g>
       <use style="stroke:#000000;stroke-width:0.8;" x="43.78125" xlink:href="#m6e9b84d2da" y="153.952077"/>
      </g>
     </g>
     <g id="text_12">
      <!-- 2.5 -->
      <g transform="translate(20.878125 157.751296)scale(0.1 -0.1)">
       <use xlink:href="#DejaVuSans-32"/>
       <use x="63.623047" xlink:href="#DejaVuSans-2e"/>
       <use x="95.410156" xlink:href="#DejaVuSans-35"/>
      </g>
     </g>
    </g>
    <g id="ytick_5">
     <g id="line2d_12">
      <g>
       <use style="stroke:#000000;stroke-width:0.8;" x="43.78125" xlink:href="#m6e9b84d2da" y="40.080828"/>
      </g>
     </g>
     <g id="text_13">
      <!-- 3.0 -->
      <g transform="translate(20.878125 43.880047)scale(0.1 -0.1)">
       <defs>
        <path d="M 2597 2516 
Q 3050 2419 3304 2112 
Q 3559 1806 3559 1356 
Q 3559 666 3084 287 
Q 2609 -91 1734 -91 
Q 1441 -91 1130 -33 
Q 819 25 488 141 
L 488 750 
Q 750 597 1062 519 
Q 1375 441 1716 441 
Q 2309 441 2620 675 
Q 2931 909 2931 1356 
Q 2931 1769 2642 2001 
Q 2353 2234 1838 2234 
L 1294 2234 
L 1294 2753 
L 1863 2753 
Q 2328 2753 2575 2939 
Q 2822 3125 2822 3475 
Q 2822 3834 2567 4026 
Q 2313 4219 1838 4219 
Q 1578 4219 1281 4162 
Q 984 4106 628 3988 
L 628 4550 
Q 988 4650 1302 4700 
Q 1616 4750 1894 4750 
Q 2613 4750 3031 4423 
Q 3450 4097 3450 3541 
Q 3450 3153 3228 2886 
Q 3006 2619 2597 2516 
z
" id="DejaVuSans-33" transform="scale(0.015625)"/>
       </defs>
       <use xlink:href="#DejaVuSans-33"/>
       <use x="63.623047" xlink:href="#DejaVuSans-2e"/>
       <use x="95.410156" xlink:href="#DejaVuSans-30"/>
      </g>
     </g>
    </g>
    <g id="text_14">
     <!-- GCaMP -->
     <g transform="translate(14.798437 322.349446)rotate(-90)scale(0.1 -0.1)">
      <defs>
       <path d="M 3809 666 
L 3809 1919 
L 2778 1919 
L 2778 2438 
L 4434 2438 
L 4434 434 
Q 4069 175 3628 42 
Q 3188 -91 2688 -91 
Q 1594 -91 976 548 
Q 359 1188 359 2328 
Q 359 3472 976 4111 
Q 1594 4750 2688 4750 
Q 3144 4750 3555 4637 
Q 3966 4525 4313 4306 
L 4313 3634 
Q 3963 3931 3569 4081 
Q 3175 4231 2741 4231 
Q 1884 4231 1454 3753 
Q 1025 3275 1025 2328 
Q 1025 1384 1454 906 
Q 1884 428 2741 428 
Q 3075 428 3337 486 
Q 3600 544 3809 666 
z
" id="DejaVuSans-47" transform="scale(0.015625)"/>
       <path d="M 4122 4306 
L 4122 3641 
Q 3803 3938 3442 4084 
Q 3081 4231 2675 4231 
Q 1875 4231 1450 3742 
Q 1025 3253 1025 2328 
Q 1025 1406 1450 917 
Q 1875 428 2675 428 
Q 3081 428 3442 575 
Q 3803 722 4122 1019 
L 4122 359 
Q 3791 134 3420 21 
Q 3050 -91 2638 -91 
Q 1578 -91 968 557 
Q 359 1206 359 2328 
Q 359 3453 968 4101 
Q 1578 4750 2638 4750 
Q 3056 4750 3426 4639 
Q 3797 4528 4122 4306 
z
" id="DejaVuSans-43" transform="scale(0.015625)"/>
       <path d="M 628 4666 
L 1569 4666 
L 2759 1491 
L 3956 4666 
L 4897 4666 
L 4897 0 
L 4281 0 
L 4281 4097 
L 3078 897 
L 2444 897 
L 1241 4097 
L 1241 0 
L 628 0 
L 628 4666 
z
" id="DejaVuSans-4d" transform="scale(0.015625)"/>
       <path d="M 1259 4147 
L 1259 2394 
L 2053 2394 
Q 2494 2394 2734 2622 
Q 2975 2850 2975 3272 
Q 2975 3691 2734 3919 
Q 2494 4147 2053 4147 
L 1259 4147 
z
M 628 4666 
L 2053 4666 
Q 2838 4666 3239 4311 
Q 3641 3956 3641 3272 
Q 3641 2581 3239 2228 
Q 2838 1875 2053 1875 
L 1259 1875 
L 1259 0 
L 628 0 
L 628 4666 
z
" id="DejaVuSans-50" transform="scale(0.015625)"/>
      </defs>
      <use xlink:href="#DejaVuSans-47"/>
      <use x="77.490234" xlink:href="#DejaVuSans-43"/>
      <use x="147.314453" xlink:href="#DejaVuSans-61"/>
      <use x="208.59375" xlink:href="#DejaVuSans-4d"/>
      <use x="294.873047" xlink:href="#DejaVuSans-50"/>
     </g>
    </g>
   </g>
   <g id="line2d_13">
    <path clip-path="url(#pc9f75b99c9)" d="M 119.872159 551.660347 
L 122.348674 552.486636 
L 126.063445 553.184395 
L 127.301703 553.634571 
L 129.778217 554.942823 
L 131.016474 555.88432 
L 134.731246 559.558308 
L 135.969504 560.341083 
L 137.207761 560.859306 
L 138.446018 561.202423 
L 139.684275 561.171688 
L 140.922533 560.422356 
L 144.637304 556.139091 
L 145.875562 555.409179 
L 147.113819 554.945473 
L 148.352076 554.659631 
L 149.590334 554.723245 
L 150.828591 555.370872 
L 154.543363 558.777733 
L 155.78162 559.308782 
L 158.258134 560.036738 
L 159.496392 560.17233 
L 160.734649 559.794151 
L 161.972906 558.804351 
L 163.211163 557.514247 
L 164.449421 556.537585 
L 165.687678 556.267858 
L 168.164193 556.76221 
L 169.40245 556.720266 
L 173.117222 555.717099 
L 174.355479 555.235934 
L 176.831993 553.765609 
L 178.070251 553.360001 
L 179.308508 553.64226 
L 180.546765 554.360712 
L 181.785022 554.920686 
L 183.02328 555.075467 
L 184.261537 555.042987 
L 185.499794 555.122648 
L 186.738052 555.486365 
L 189.214566 556.850258 
L 190.452823 557.186928 
L 191.691081 556.822572 
L 194.167595 555.116466 
L 195.405852 554.610796 
L 197.882367 553.905339 
L 199.120624 553.365752 
L 201.597139 551.989441 
L 202.835396 551.517731 
L 204.073653 551.644391 
L 206.550168 553.077001 
L 207.788425 553.329976 
L 209.026682 553.143338 
L 211.503197 552.351129 
L 212.741454 551.61991 
L 215.217969 549.375559 
L 216.456226 548.734209 
L 217.694483 548.785321 
L 221.409255 550.283108 
L 222.647512 550.227207 
L 223.88577 549.53548 
L 226.362284 547.421088 
L 227.600541 547.035371 
L 228.838799 547.317438 
L 230.077056 547.792324 
L 233.791828 548.592396 
L 237.5066 550.652073 
L 238.744857 550.767122 
L 239.983114 550.210479 
L 242.459629 547.942177 
L 243.697886 547.228933 
L 244.936143 547.261836 
L 246.1744 547.888657 
L 248.650915 549.609221 
L 249.889172 549.950533 
L 251.127429 549.426673 
L 252.365687 547.840497 
L 254.842201 542.709703 
L 257.318716 537.983871 
L 258.556973 536.003712 
L 259.79523 534.907815 
L 261.033488 535.284402 
L 262.271745 537.039976 
L 263.510002 539.457559 
L 264.748259 541.593327 
L 265.986517 542.69717 
L 267.224774 542.556631 
L 268.463031 541.465581 
L 269.701288 540.033857 
L 270.939546 538.948392 
L 272.177803 538.541204 
L 273.41606 538.700969 
L 274.654318 539.252864 
L 277.130832 540.748256 
L 279.607347 541.995771 
L 280.845604 542.382222 
L 282.083861 542.629957 
L 283.322118 543.06968 
L 284.560376 543.862432 
L 285.798633 544.865703 
L 287.03689 545.680727 
L 288.275147 545.748788 
L 289.513405 544.761688 
L 290.751662 543.1025 
L 291.989919 541.658153 
L 293.228177 541.145576 
L 294.466434 541.695355 
L 295.704691 542.975572 
L 298.181206 546.101316 
L 299.419463 547.213085 
L 300.65772 547.643375 
L 301.895977 547.455438 
L 305.610749 545.951135 
L 308.087264 544.584318 
L 310.563778 543.183286 
L 311.802036 542.795715 
L 313.040293 542.615464 
L 314.27855 542.208659 
L 315.516807 541.251314 
L 316.755065 540.068207 
L 317.993322 539.369054 
L 319.231579 539.492457 
L 320.469836 540.096765 
L 321.708094 540.497277 
L 322.946351 540.20012 
L 324.184608 539.158845 
L 325.422866 537.587806 
L 329.137637 531.624163 
L 330.375895 530.661082 
L 331.614152 530.781775 
L 332.852409 531.898514 
L 334.090666 533.756264 
L 335.328924 536.040613 
L 337.805438 541.347305 
L 339.043695 544.1711 
L 340.281953 546.61744 
L 341.52021 548.101565 
L 342.758467 548.22592 
L 343.996725 547.000259 
L 346.473239 543.121606 
L 350.188011 538.856668 
L 351.426268 537.232609 
L 352.664525 536.330284 
L 353.902783 536.657607 
L 356.379297 539.283725 
L 357.617554 539.841012 
L 358.855812 539.161787 
L 360.094069 537.417641 
L 361.332326 535.265708 
L 362.570584 533.354738 
L 363.808841 531.975489 
L 365.047098 531.188056 
L 366.285355 530.98374 
L 367.523613 531.238712 
L 368.76187 531.618288 
L 370.000127 531.60912 
L 371.238384 530.939084 
L 372.476642 529.918972 
L 373.714899 529.085488 
L 374.953156 528.665276 
L 377.429671 528.228276 
L 381.144443 526.778555 
L 382.3827 526.856578 
L 383.620957 527.744851 
L 386.097472 530.820753 
L 387.335729 531.700121 
L 388.573986 531.950083 
L 389.812243 531.745496 
L 391.050501 531.124162 
L 396.00353 527.608265 
L 397.241787 526.458446 
L 398.480044 525.815847 
L 399.718302 526.284378 
L 400.956559 527.780622 
L 402.194816 529.644029 
L 403.433073 531.291684 
L 404.671331 532.494955 
L 405.909588 533.15532 
L 407.147845 533.300146 
L 408.386102 533.113569 
L 409.62436 532.615199 
L 410.862617 531.628643 
L 412.100874 530.148409 
L 413.339132 528.300652 
L 414.577389 526.074774 
L 417.053903 521.172963 
L 418.292161 519.594251 
L 419.530418 519.230139 
L 420.768675 520.184616 
L 422.006932 522.243918 
L 424.483447 527.229843 
L 425.721704 529.10111 
L 426.959961 530.492208 
L 429.436476 532.621623 
L 430.674733 533.518318 
L 431.912991 534.276469 
L 433.151248 534.791076 
L 434.389505 534.862026 
L 435.627762 534.398027 
L 436.86602 533.556484 
L 438.104277 532.577862 
L 439.342534 531.457428 
L 440.580791 529.862278 
L 441.819049 527.59372 
L 443.057306 525.078412 
L 444.295563 523.168259 
L 445.53382 522.416901 
L 446.772078 522.680997 
L 449.248592 524.25492 
L 450.48685 524.758128 
L 451.725107 524.841566 
L 452.963364 524.657702 
L 454.201621 524.275241 
L 455.439879 523.466727 
L 456.678136 522.045135 
L 459.15465 518.256642 
L 460.392908 516.720932 
L 461.631165 515.668136 
L 462.869422 514.915368 
L 464.107679 514.310037 
L 466.584194 513.399195 
L 467.822451 512.678933 
L 469.060709 511.339499 
L 470.298966 509.693257 
L 471.537223 508.700492 
L 472.77548 509.023236 
L 474.013738 510.39183 
L 475.251995 512.022006 
L 476.490252 513.314688 
L 477.728509 514.121625 
L 478.966767 514.70735 
L 480.205024 515.499235 
L 483.919796 519.014513 
L 485.158053 519.781832 
L 486.39631 520.243719 
L 487.634568 520.381073 
L 488.872825 520.180746 
L 490.111082 519.714522 
L 493.825854 517.90795 
L 495.064111 517.97292 
L 496.302368 518.539045 
L 497.540626 519.298887 
L 498.778883 519.836598 
L 500.01714 519.707413 
L 501.255397 518.743591 
L 502.493655 517.320366 
L 503.731912 516.108249 
L 504.970169 515.457449 
L 508.684941 514.401597 
L 509.923198 514.260058 
L 511.161456 514.334341 
L 512.399713 514.570184 
L 513.63797 515.132683 
L 516.114485 517.012947 
L 517.352742 517.004987 
L 518.590999 515.63384 
L 519.829257 513.133353 
L 521.067514 510.199294 
L 522.305771 507.766032 
L 523.544028 506.690907 
L 524.782286 507.265711 
L 526.020543 508.842685 
L 527.2588 510.1163 
L 528.497057 510.203594 
L 529.735315 509.346249 
L 530.973572 508.34303 
L 533.450086 506.95255 
L 534.688344 506.230664 
L 535.926601 505.337175 
L 538.403116 503.158218 
L 539.641373 502.352613 
L 540.87963 502.044427 
L 542.117887 502.242637 
L 543.356145 502.709162 
L 544.594402 503.047425 
L 545.832659 502.930553 
L 548.309174 501.789408 
L 549.547431 501.665556 
L 550.785688 502.081611 
L 552.023945 502.869341 
L 553.262203 504.077897 
L 554.50046 505.816605 
L 556.976975 509.782833 
L 558.215232 511.339986 
L 559.453489 512.19139 
L 560.691746 512.04784 
L 561.930004 510.941985 
L 563.168261 509.100034 
L 564.406518 506.885913 
L 565.644775 505.002357 
L 566.883033 504.061087 
L 568.12129 504.114276 
L 569.359547 504.952746 
L 570.597804 506.211173 
L 571.836062 507.264903 
L 573.074319 507.570185 
L 574.312576 506.923817 
L 575.550834 505.494991 
L 578.027348 502.049784 
L 579.265605 500.677032 
L 580.503863 499.76209 
L 581.74212 499.109824 
L 582.980377 498.21476 
L 586.695149 494.355881 
L 587.933406 493.962622 
L 589.171663 494.711091 
L 590.409921 496.837041 
L 591.648178 499.697807 
L 592.886435 501.982313 
L 594.124693 502.532651 
L 595.36295 500.944364 
L 597.839464 495.18818 
L 599.077722 494.247231 
L 600.315979 495.240904 
L 601.554236 496.985333 
L 602.792493 498.103616 
L 604.030751 497.86038 
L 605.269008 496.179569 
L 606.507265 493.281701 
L 608.98378 486.458369 
L 610.222037 484.4885 
L 611.460294 484.065983 
L 612.698552 484.819883 
L 613.936809 486.020813 
L 615.175066 486.966209 
L 616.413323 487.411588 
L 617.651581 487.631051 
L 618.889838 488.037096 
L 621.366352 489.599731 
L 622.60461 490.001039 
L 625.081124 489.878105 
L 626.319382 490.372756 
L 627.557639 491.263852 
L 628.795896 491.937942 
L 630.034153 491.578279 
L 631.272411 489.667189 
L 632.510668 486.61418 
L 633.748925 483.871721 
L 634.987182 483.080206 
L 636.22544 484.572265 
L 637.463697 487.025163 
L 638.701954 488.935457 
L 639.940211 489.730528 
L 641.178469 489.473123 
L 642.416726 488.362933 
L 643.654983 486.481812 
L 647.369755 478.692785 
L 649.84627 474.457823 
L 651.084527 472.574395 
L 653.561041 469.366168 
L 654.799299 467.514198 
L 656.037556 465.269149 
L 657.275813 462.310471 
L 658.51407 458.186863 
L 659.752328 452.512535 
L 663.4671 431.042574 
L 664.705357 426.449357 
L 665.943614 423.289263 
L 667.181871 420.592596 
L 668.420129 417.553233 
L 669.658386 413.760162 
L 672.1349 405.514572 
L 673.373158 402.428666 
L 674.611415 400.374518 
L 677.087929 397.409463 
L 678.326187 395.534298 
L 679.564444 393.4175 
L 680.802701 391.635644 
L 682.040959 391.140874 
L 683.279216 392.599768 
L 684.517473 395.885413 
L 685.75573 400.481041 
L 688.232245 411.25094 
L 689.470502 415.504918 
L 690.708759 417.762301 
L 691.947017 418.037237 
L 694.423531 416.432466 
L 695.661789 416.060351 
L 696.900046 415.976788 
L 698.138303 416.068308 
L 699.37656 416.568037 
L 700.614818 417.884566 
L 701.853075 420.082333 
L 706.806104 430.444592 
L 708.044361 431.832052 
L 709.282618 431.19393 
L 710.520876 428.008413 
L 711.759133 422.87936 
L 716.712162 399.528447 
L 717.950419 393.077888 
L 719.188677 387.392808 
L 720.426934 384.287581 
L 721.665191 384.951611 
L 722.903448 388.771802 
L 725.379963 399.607136 
L 726.61822 405.805775 
L 730.332992 426.401288 
L 731.571249 431.527115 
L 732.809507 434.812092 
L 734.047764 436.282599 
L 735.286021 436.424015 
L 736.524278 436.295597 
L 737.762536 437.159959 
L 739.000793 439.549088 
L 740.23905 442.648938 
L 741.477307 444.862008 
L 742.715565 445.090785 
L 743.953822 443.467209 
L 745.192079 441.263845 
L 746.430336 440.339479 
L 747.668594 441.948825 
L 748.906851 445.889737 
L 751.383366 456.055769 
L 752.621623 459.93464 
L 753.85988 462.224936 
L 755.098137 463.17718 
L 756.336395 463.251951 
L 757.574652 462.922132 
L 758.812909 462.926234 
L 760.051166 463.998218 
L 761.289424 466.303988 
L 763.765938 472.541513 
L 765.004195 474.274715 
L 766.242453 473.839358 
L 768.718967 469.584285 
L 769.957225 468.27469 
L 771.195482 468.108626 
L 772.433739 468.783941 
L 773.671996 469.792206 
L 774.910254 470.550169 
L 776.148511 470.687901 
L 777.386768 470.49412 
L 778.625025 470.723367 
L 779.863283 471.796706 
L 782.339797 474.972744 
L 783.578054 475.828385 
L 784.816312 475.743704 
L 786.054569 474.739773 
L 788.531084 471.173695 
L 789.769341 470.374328 
L 791.007598 471.016532 
L 792.245855 472.260514 
L 793.484113 472.899364 
L 794.72237 472.588468 
L 795.960627 472.107063 
L 797.198884 472.540205 
L 798.437142 474.340114 
L 800.913656 479.50688 
L 802.151914 480.750056 
L 803.390171 480.683064 
L 804.628428 479.68494 
L 805.866685 477.698781 
L 807.104943 474.571325 
L 808.3432 471.06639 
L 809.581457 468.513138 
L 810.819714 467.428311 
L 812.057972 467.320682 
L 813.296229 467.684508 
L 814.534486 468.474546 
L 815.772743 469.787459 
L 818.249258 473.107889 
L 819.487515 474.09444 
L 820.725773 474.262123 
L 821.96403 473.753148 
L 824.440544 472.018398 
L 825.678802 472.119404 
L 826.917059 473.612878 
L 829.393573 478.598563 
L 830.631831 479.568626 
L 831.870088 478.149372 
L 833.108345 474.782139 
L 834.346602 470.985703 
L 835.58486 468.117242 
L 836.823117 466.674993 
L 838.061374 466.494802 
L 839.299632 467.19024 
L 840.537889 468.471214 
L 841.776146 469.946779 
L 843.014403 470.864902 
L 844.252661 470.640462 
L 845.490918 469.470834 
L 846.729175 468.080813 
L 847.967432 467.103398 
L 849.20569 466.938089 
L 850.443947 467.815421 
L 851.682204 469.613417 
L 854.158719 473.855052 
L 855.396976 475.28788 
L 856.635233 475.816766 
L 857.873491 475.177606 
L 859.111748 473.43881 
L 861.588262 469.110632 
L 862.82652 467.574462 
L 864.064777 466.505941 
L 865.303034 465.726261 
L 866.541291 465.219088 
L 867.779549 465.147081 
L 869.017806 465.645243 
L 870.256063 466.638609 
L 873.970835 470.669368 
L 875.209092 471.148321 
L 877.685607 471.098396 
L 880.162121 471.500909 
L 881.400379 471.378184 
L 882.638636 470.850278 
L 885.11515 469.320805 
L 886.353408 469.180464 
L 888.829922 470.002328 
L 890.06818 469.383891 
L 891.306437 467.409402 
L 892.544694 464.470841 
L 895.021209 458.123122 
L 896.259466 455.851878 
L 897.497723 454.999534 
L 898.73598 455.933355 
L 899.974238 458.410342 
L 902.450752 464.477142 
L 903.689009 466.702826 
L 904.927267 468.116507 
L 906.165524 468.587339 
L 907.403781 468.043194 
L 908.642039 466.668443 
L 911.118553 463.22194 
L 912.35681 461.94396 
L 913.595068 461.222102 
L 914.833325 461.213479 
L 917.309839 462.410048 
L 918.548097 462.443236 
L 919.786354 461.765047 
L 921.024611 460.454633 
L 923.501126 457.282749 
L 924.739383 456.426309 
L 925.97764 456.133324 
L 928.454155 456.082815 
L 929.692412 456.064003 
L 930.930669 455.605183 
L 932.168927 454.33982 
L 934.645441 450.642605 
L 935.883698 450.223364 
L 937.121956 451.587644 
L 938.360213 453.894058 
L 939.59847 455.801938 
L 940.836727 456.406411 
L 942.074985 455.439432 
L 943.313242 453.226413 
L 945.789757 448.059929 
L 949.504528 441.340366 
L 950.742786 439.516525 
L 951.981043 438.037721 
L 953.2193 437.123045 
L 954.457557 437.378953 
L 955.695815 438.926695 
L 956.934072 440.930457 
L 958.172329 442.436276 
L 959.410586 443.200379 
L 961.887101 444.010164 
L 963.125358 444.848955 
L 964.363616 446.26645 
L 966.84013 449.786167 
L 968.078387 450.817613 
L 969.316645 451.237843 
L 970.554902 451.153364 
L 971.793159 450.3912 
L 973.031416 448.853786 
L 974.269674 446.972942 
L 975.507931 445.58078 
L 976.746188 445.241886 
L 977.984446 445.919344 
L 980.46096 448.48295 
L 981.699217 448.931607 
L 982.937475 447.968549 
L 984.175732 445.967669 
L 985.413989 444.401266 
L 986.652246 444.551819 
L 987.890504 446.013387 
L 989.128761 446.995547 
L 990.367018 446.250329 
L 991.605275 444.35557 
L 992.843533 442.849225 
L 994.08179 442.547167 
L 995.320047 443.354848 
L 996.558305 445.232087 
L 997.796562 448.174204 
L 999.034819 451.431457 
L 1000.273076 453.845048 
L 1001.511334 454.899317 
L 1003.987848 455.153447 
L 1005.226105 455.999466 
L 1006.464363 457.482948 
L 1007.70262 458.496994 
L 1008.940877 457.533104 
L 1010.179134 454.126715 
L 1011.417392 449.569602 
L 1012.655649 445.867652 
L 1013.893906 444.061023 
L 1015.132164 443.470386 
L 1016.370421 442.497446 
L 1017.608678 440.113738 
L 1018.846935 436.307139 
L 1020.085193 431.334692 
L 1021.32345 425.184412 
L 1022.561707 417.697746 
L 1023.799964 408.838534 
L 1026.276479 387.887403 
L 1029.991251 354.949986 
L 1031.229508 345.18867 
L 1032.467765 336.704414 
L 1033.706023 330.661702 
L 1034.94428 328.337969 
L 1036.182537 329.934747 
L 1037.420794 334.092166 
L 1038.659052 338.645068 
L 1039.897309 341.786444 
L 1041.135566 342.697053 
L 1042.373823 341.702398 
L 1046.088595 336.399558 
L 1047.326852 335.712286 
L 1048.56511 336.875954 
L 1049.803367 340.184719 
L 1051.041624 344.639262 
L 1052.279882 348.419727 
L 1053.518139 350.175025 
L 1054.756396 349.845434 
L 1055.994653 348.418544 
L 1057.232911 347.29479 
L 1058.471168 347.742462 
L 1059.709425 350.414404 
L 1060.947682 354.990491 
L 1062.18594 360.208463 
L 1063.424197 364.446953 
L 1064.662454 366.753169 
L 1065.900711 367.589498 
L 1067.138969 368.267654 
L 1068.377226 369.755762 
L 1069.615483 372.277012 
L 1070.853741 375.32804 
L 1072.091998 377.909601 
L 1073.330255 379.4344 
L 1079.521541 383.441331 
L 1080.759799 385.202285 
L 1081.998056 388.179503 
L 1084.474571 394.961521 
L 1086.951085 401.522815 
L 1088.189342 404.984757 
L 1089.4276 407.933898 
L 1090.665857 409.622963 
L 1091.904114 409.260378 
L 1093.142371 406.232092 
L 1094.380629 400.415314 
L 1095.618886 392.225063 
L 1099.333658 363.494827 
L 1101.810172 346.336194 
L 1104.286687 328.28667 
L 1105.524944 321.664134 
L 1106.763201 317.46654 
L 1109.239716 311.320811 
L 1110.477973 307.225063 
L 1111.71623 301.905733 
L 1115.431002 283.196129 
L 1116.669259 277.721362 
L 1117.907517 273.44404 
L 1119.145774 270.934845 
L 1120.384031 270.235423 
L 1121.622289 270.996304 
L 1125.33706 275.786635 
L 1126.575318 276.317411 
L 1127.813575 276.229084 
L 1129.051832 276.409359 
L 1130.290089 277.781994 
L 1131.528347 280.478891 
L 1132.766604 283.658257 
L 1134.004861 285.994971 
L 1135.243118 286.514332 
L 1136.481376 285.173695 
L 1137.719633 282.948958 
L 1138.95789 281.541248 
L 1140.196148 282.417465 
L 1141.434405 285.60211 
L 1142.672662 289.629769 
L 1143.910919 292.758208 
L 1145.149177 294.162945 
L 1146.387434 294.144323 
L 1147.625691 293.557604 
L 1148.863948 293.127302 
L 1150.102206 292.833235 
L 1152.57872 291.598728 
L 1153.816977 291.560219 
L 1155.055235 292.292429 
L 1157.531749 294.502098 
L 1158.770007 295.787897 
L 1160.008264 297.704539 
L 1161.246521 300.580753 
L 1163.723036 307.788636 
L 1164.961293 309.078997 
L 1166.19955 306.482249 
L 1167.437807 300.003717 
L 1168.676065 291.039703 
L 1171.152579 272.131736 
L 1172.390837 264.632181 
L 1173.629094 258.844269 
L 1174.867351 255.049402 
L 1176.105608 254.278073 
L 1177.343866 256.5418 
L 1178.582123 259.4492 
L 1179.82038 259.579997 
L 1181.058637 255.214644 
L 1182.296895 247.946901 
L 1183.535152 241.51167 
L 1184.773409 238.738431 
L 1186.011666 239.690153 
L 1188.488181 244.885727 
L 1189.726438 246.587117 
L 1192.202953 248.650663 
L 1193.44121 250.493138 
L 1194.679467 253.570465 
L 1197.155982 260.682975 
L 1198.394239 263.846312 
L 1199.632496 266.544235 
L 1200.870754 268.578538 
L 1202.109011 270.110921 
L 1203.347268 271.880902 
L 1204.585525 274.598261 
L 1208.300297 285.156815 
L 1209.538555 287.219588 
L 1210.776812 287.235365 
L 1212.015069 283.904541 
L 1213.253326 276.267252 
L 1214.491584 264.451151 
L 1215.729841 249.62576 
L 1219.444613 202.211358 
L 1220.68287 189.17033 
L 1221.921127 179.073023 
L 1223.159384 172.167425 
L 1224.397642 168.421799 
L 1225.635899 167.415886 
L 1226.874156 167.859939 
L 1228.112414 167.916266 
L 1229.350671 165.645953 
L 1230.588928 159.784301 
L 1234.3037 133.996283 
L 1235.541957 128.889508 
L 1236.780214 127.587094 
L 1238.018472 129.877327 
L 1239.256729 132.969018 
L 1240.494986 133.12813 
L 1241.733243 129.070731 
L 1242.971501 123.166109 
L 1244.209758 118.683533 
L 1245.448015 116.515298 
L 1247.92453 114.33368 
L 1249.162787 113.791873 
L 1250.401044 115.209936 
L 1251.639302 119.535551 
L 1252.877559 126.265604 
L 1254.115816 133.72622 
L 1255.354073 140.365503 
L 1256.592331 145.41168 
L 1257.830588 148.620662 
L 1260.307103 152.497228 
L 1264.021874 159.390544 
L 1265.260132 161.186 
L 1266.498389 161.852956 
L 1267.736646 160.252866 
L 1268.974903 155.326189 
L 1271.451418 139.44991 
L 1272.689675 133.364153 
L 1273.927932 130.316851 
L 1275.16619 130.361757 
L 1276.404447 133.226434 
L 1278.880962 142.112601 
L 1280.119219 144.134301 
L 1281.357476 142.402201 
L 1282.595733 136.493889 
L 1285.072248 118.532331 
L 1286.310505 111.731136 
L 1287.548762 108.576562 
L 1288.78702 108.630456 
L 1290.025277 110.447224 
L 1291.263534 112.918573 
L 1294.978306 121.02433 
L 1296.216563 123.233915 
L 1298.693078 126.977062 
L 1299.931335 128.553296 
L 1301.169592 128.834224 
L 1302.40785 126.806919 
L 1304.884364 119.431105 
L 1306.122621 116.139783 
L 1308.599136 109.028202 
L 1309.837393 107.655759 
L 1311.07565 109.630115 
L 1313.552165 119.18106 
L 1314.790422 122.242797 
L 1316.02868 122.555667 
L 1318.505194 119.86869 
L 1320.981709 118.824504 
L 1322.219966 117.603353 
L 1324.69648 114.403063 
L 1325.934738 113.269024 
L 1327.172995 112.682513 
L 1328.411252 112.995354 
L 1329.649509 114.457057 
L 1330.887767 116.471208 
L 1332.126024 117.614826 
L 1333.364281 117.204438 
L 1334.602539 116.133858 
L 1335.840796 115.701383 
L 1337.079053 116.531391 
L 1338.31731 118.438622 
L 1339.555568 120.652282 
L 1340.793825 122.189365 
L 1342.032082 122.609634 
L 1343.270339 122.619979 
L 1344.508597 123.071373 
L 1345.746854 123.716224 
L 1346.985111 123.700542 
L 1348.223368 122.304968 
L 1349.461626 119.104629 
L 1350.699883 114.674358 
L 1351.93814 110.687349 
L 1353.176398 108.291873 
L 1354.414655 107.250484 
L 1356.891169 106.533449 
L 1358.129427 105.916855 
L 1359.367684 104.553363 
L 1360.605941 101.354714 
L 1361.844198 95.142935 
L 1364.320713 77.45256 
L 1365.55897 72.041303 
L 1366.797228 72.242517 
L 1368.035485 76.912356 
L 1369.273742 82.13854 
L 1370.511999 84.258804 
L 1371.750257 82.786701 
L 1372.988514 80.272554 
L 1374.226771 79.043713 
L 1375.465028 78.606388 
L 1376.703286 76.928706 
L 1377.941543 73.47571 
L 1380.418057 65.721305 
L 1381.656315 62.95552 
L 1382.894572 62.250319 
L 1384.132829 64.429089 
L 1385.371087 68.783084 
L 1386.609344 73.772806 
L 1387.847601 78.152342 
L 1389.085858 81.190029 
L 1390.324116 82.711499 
L 1391.562373 82.800641 
L 1392.80063 81.531566 
L 1394.038887 79.402461 
L 1395.277145 77.524839 
L 1396.515402 76.970242 
L 1397.753659 78.012932 
L 1398.991916 80.159313 
L 1400.230174 82.654916 
L 1401.468431 84.644306 
L 1402.706688 85.290564 
L 1403.944946 84.009445 
L 1405.183203 80.534093 
L 1406.42146 74.961045 
L 1407.659717 67.601298 
L 1408.897975 59.189476 
L 1410.136232 51.698161 
L 1411.374489 47.979282 
L 1412.612746 49.804839 
L 1413.851004 56.239335 
L 1415.089261 64.047179 
L 1416.327518 70.081564 
L 1417.565775 73.522763 
L 1418.804033 75.487557 
L 1420.04229 76.928342 
L 1421.280547 77.985582 
L 1422.518805 78.489962 
L 1423.757062 78.216685 
L 1424.995319 77.34717 
L 1426.233576 76.750682 
L 1427.471834 77.710294 
L 1428.710091 81.084771 
L 1431.186605 91.304362 
L 1432.424863 94.022099 
L 1433.66312 93.534685 
L 1434.901377 90.749845 
L 1436.139634 87.419645 
L 1437.377892 84.719751 
L 1438.616149 83.049735 
L 1439.854406 82.371109 
L 1441.092664 81.826151 
L 1442.330921 79.762626 
L 1443.569178 75.025137 
L 1446.045693 60.884829 
L 1447.28395 55.50116 
L 1448.522207 53.459454 
L 1449.760464 54.713472 
L 1450.998722 58.085706 
L 1454.713494 71.884195 
L 1455.951751 74.843412 
L 1457.190008 76.260278 
L 1458.428265 76.920579 
L 1459.666523 78.078382 
L 1460.90478 79.935609 
L 1462.143037 81.319744 
L 1463.381294 81.261164 
L 1464.619552 80.172166 
L 1465.857809 79.532192 
L 1467.096066 80.88814 
L 1468.334323 84.700135 
L 1470.810838 95.307183 
L 1472.049095 99.384174 
L 1473.287353 101.393783 
L 1474.52561 100.853769 
L 1475.763867 97.705586 
L 1477.002124 93.085608 
L 1478.240382 89.33542 
L 1479.478639 88.555785 
L 1480.716896 91.910244 
L 1481.955153 99.374105 
L 1483.193411 108.851056 
L 1484.431668 116.839505 
L 1485.669925 120.929869 
L 1486.908182 120.967923 
L 1488.14644 117.905958 
L 1489.384697 112.503931 
L 1491.861212 98.340845 
L 1493.099469 92.413486 
L 1494.337726 88.27715 
L 1495.575983 86.738324 
L 1496.814241 89.531393 
L 1498.052498 97.540789 
L 1501.76727 131.897964 
L 1503.005527 139.460135 
L 1504.243784 145.018887 
L 1505.482041 149.4512 
L 1506.720299 152.873826 
L 1507.958556 155.216447 
L 1509.196813 156.63835 
L 1510.435071 157.40481 
L 1511.673328 157.841665 
L 1512.911585 157.992131 
L 1514.149842 157.912563 
L 1515.3881 158.863365 
L 1516.626357 162.422464 
L 1519.102871 173.744551 
L 1520.341129 177.466431 
L 1521.579386 178.941267 
L 1522.817643 179.023163 
L 1524.0559 178.992436 
L 1525.294158 179.814592 
L 1526.532415 181.771418 
L 1527.770672 184.889978 
L 1529.00893 189.698449 
L 1530.247187 196.779888 
L 1532.723701 213.657537 
L 1533.961959 220.179719 
L 1535.200216 225.015537 
L 1536.438473 227.921522 
L 1537.67673 227.947693 
L 1538.914988 225.418229 
L 1540.153245 222.62545 
L 1541.391502 222.020741 
L 1542.62976 224.387732 
L 1543.868017 228.213512 
L 1545.106274 230.868338 
L 1546.344531 231.160369 
L 1547.582789 230.305676 
L 1548.821046 230.464986 
L 1550.059303 233.005791 
L 1551.29756 237.896104 
L 1553.774075 250.246589 
L 1555.012332 255.40434 
L 1556.250589 259.611174 
L 1557.488847 263.155494 
L 1558.727104 265.522915 
L 1559.965361 266.133706 
L 1561.203619 265.550056 
L 1562.441876 264.821894 
L 1563.680133 264.659968 
L 1564.91839 265.920771 
L 1566.156648 269.453319 
L 1567.394905 275.031247 
L 1568.633162 281.320256 
L 1569.871419 286.810773 
L 1571.109677 290.469533 
L 1572.347934 291.990275 
L 1573.586191 291.902915 
L 1576.062706 290.418784 
L 1577.300963 290.040007 
L 1578.53922 290.648909 
L 1579.777478 292.844304 
L 1581.015735 296.610066 
L 1582.253992 301.057062 
L 1583.492249 305.009413 
L 1584.730507 308.002496 
L 1585.968764 310.166098 
L 1588.445278 313.039058 
L 1589.683536 315.227084 
L 1590.921793 318.778657 
L 1593.398307 327.367413 
L 1594.636565 330.717376 
L 1595.874822 333.122196 
L 1597.113079 334.213711 
L 1598.351337 333.462033 
L 1599.589594 330.872575 
L 1602.066108 323.139642 
L 1603.304366 320.021935 
L 1604.542623 318.821174 
L 1605.78088 320.111168 
L 1607.019137 323.445026 
L 1609.495652 331.909446 
L 1611.972166 339.231965 
L 1613.210424 342.492526 
L 1614.448681 344.905607 
L 1615.686938 346.278516 
L 1616.925196 346.678716 
L 1618.163453 345.856268 
L 1619.40171 343.564346 
L 1621.878225 336.601928 
L 1623.116482 334.316178 
L 1624.354739 334.31602 
L 1625.592996 336.498624 
L 1626.831254 339.483338 
L 1628.069511 341.640504 
L 1629.307768 342.247307 
L 1630.546026 341.345109 
L 1631.784283 339.06842 
L 1634.260797 332.117635 
L 1635.499055 329.413795 
L 1636.737312 329.013005 
L 1637.975569 332.959206 
L 1639.213826 343.655792 
L 1640.452084 361.981849 
L 1641.690341 385.498932 
L 1641.690341 385.498932 
" style="fill:none;stroke:#008000;stroke-linecap:square;stroke-width:1.5;"/>
   </g>
   <g id="patch_3">
    <path d="M 43.78125 586.86358 
L 43.78125 22.318125 
" style="fill:none;stroke:#000000;stroke-linecap:square;stroke-linejoin:miter;stroke-width:0.8;"/>
   </g>
   <g id="patch_4">
    <path d="M 1717.78125 586.86358 
L 1717.78125 22.318125 
" style="fill:none;stroke:#000000;stroke-linecap:square;stroke-linejoin:miter;stroke-width:0.8;"/>
   </g>
   <g id="patch_5">
    <path d="M 43.78125 586.86358 
L 1717.78125 586.86358 
" style="fill:none;stroke:#000000;stroke-linecap:square;stroke-linejoin:miter;stroke-width:0.8;"/>
   </g>
   <g id="patch_6">
    <path d="M 43.78125 22.318125 
L 1717.78125 22.318125 
" style="fill:none;stroke:#000000;stroke-linecap:square;stroke-linejoin:miter;stroke-width:0.8;"/>
   </g>
   <g id="text_15">
    <!-- before binarisation -->
    <g transform="translate(824.1825 16.318125)scale(0.12 -0.12)">
     <defs>
      <path d="M 3116 1747 
Q 3116 2381 2855 2742 
Q 2594 3103 2138 3103 
Q 1681 3103 1420 2742 
Q 1159 2381 1159 1747 
Q 1159 1113 1420 752 
Q 1681 391 2138 391 
Q 2594 391 2855 752 
Q 3116 1113 3116 1747 
z
M 1159 2969 
Q 1341 3281 1617 3432 
Q 1894 3584 2278 3584 
Q 2916 3584 3314 3078 
Q 3713 2572 3713 1747 
Q 3713 922 3314 415 
Q 2916 -91 2278 -91 
Q 1894 -91 1617 61 
Q 1341 213 1159 525 
L 1159 0 
L 581 0 
L 581 4863 
L 1159 4863 
L 1159 2969 
z
" id="DejaVuSans-62" transform="scale(0.015625)"/>
      <path d="M 1959 3097 
Q 1497 3097 1228 2736 
Q 959 2375 959 1747 
Q 959 1119 1226 758 
Q 1494 397 1959 397 
Q 2419 397 2687 759 
Q 2956 1122 2956 1747 
Q 2956 2369 2687 2733 
Q 2419 3097 1959 3097 
z
M 1959 3584 
Q 2709 3584 3137 3096 
Q 3566 2609 3566 1747 
Q 3566 888 3137 398 
Q 2709 -91 1959 -91 
Q 1206 -91 779 398 
Q 353 888 353 1747 
Q 353 2609 779 3096 
Q 1206 3584 1959 3584 
z
" id="DejaVuSans-6f" transform="scale(0.015625)"/>
      <path id="DejaVuSans-20" transform="scale(0.015625)"/>
      <path d="M 603 3500 
L 1178 3500 
L 1178 0 
L 603 0 
L 603 3500 
z
M 603 4863 
L 1178 4863 
L 1178 4134 
L 603 4134 
L 603 4863 
z
" id="DejaVuSans-69" transform="scale(0.015625)"/>
      <path d="M 3513 2113 
L 3513 0 
L 2938 0 
L 2938 2094 
Q 2938 2591 2744 2837 
Q 2550 3084 2163 3084 
Q 1697 3084 1428 2787 
Q 1159 2491 1159 1978 
L 1159 0 
L 581 0 
L 581 3500 
L 1159 3500 
L 1159 2956 
Q 1366 3272 1645 3428 
Q 1925 3584 2291 3584 
Q 2894 3584 3203 3211 
Q 3513 2838 3513 2113 
z
" id="DejaVuSans-6e" transform="scale(0.015625)"/>
      <path d="M 2834 3397 
L 2834 2853 
Q 2591 2978 2328 3040 
Q 2066 3103 1784 3103 
Q 1356 3103 1142 2972 
Q 928 2841 928 2578 
Q 928 2378 1081 2264 
Q 1234 2150 1697 2047 
L 1894 2003 
Q 2506 1872 2764 1633 
Q 3022 1394 3022 966 
Q 3022 478 2636 193 
Q 2250 -91 1575 -91 
Q 1294 -91 989 -36 
Q 684 19 347 128 
L 347 722 
Q 666 556 975 473 
Q 1284 391 1588 391 
Q 1994 391 2212 530 
Q 2431 669 2431 922 
Q 2431 1156 2273 1281 
Q 2116 1406 1581 1522 
L 1381 1569 
Q 847 1681 609 1914 
Q 372 2147 372 2553 
Q 372 3047 722 3315 
Q 1072 3584 1716 3584 
Q 2034 3584 2315 3537 
Q 2597 3491 2834 3397 
z
" id="DejaVuSans-73" transform="scale(0.015625)"/>
      <path d="M 1172 4494 
L 1172 3500 
L 2356 3500 
L 2356 3053 
L 1172 3053 
L 1172 1153 
Q 1172 725 1289 603 
Q 1406 481 1766 481 
L 2356 481 
L 2356 0 
L 1766 0 
Q 1100 0 847 248 
Q 594 497 594 1153 
L 594 3053 
L 172 3053 
L 172 3500 
L 594 3500 
L 594 4494 
L 1172 4494 
z
" id="DejaVuSans-74" transform="scale(0.015625)"/>
     </defs>
     <use xlink:href="#DejaVuSans-62"/>
     <use x="63.476562" xlink:href="#DejaVuSans-65"/>
     <use x="125" xlink:href="#DejaVuSans-66"/>
     <use x="160.205078" xlink:href="#DejaVuSans-6f"/>
     <use x="221.386719" xlink:href="#DejaVuSans-72"/>
     <use x="260.25" xlink:href="#DejaVuSans-65"/>
     <use x="321.773438" xlink:href="#DejaVuSans-20"/>
     <use x="353.560547" xlink:href="#DejaVuSans-62"/>
     <use x="417.037109" xlink:href="#DejaVuSans-69"/>
     <use x="444.820312" xlink:href="#DejaVuSans-6e"/>
     <use x="508.199219" xlink:href="#DejaVuSans-61"/>
     <use x="569.478516" xlink:href="#DejaVuSans-72"/>
     <use x="610.591797" xlink:href="#DejaVuSans-69"/>
     <use x="638.375" xlink:href="#DejaVuSans-73"/>
     <use x="690.474609" xlink:href="#DejaVuSans-61"/>
     <use x="751.753906" xlink:href="#DejaVuSans-74"/>
     <use x="790.962891" xlink:href="#DejaVuSans-69"/>
     <use x="818.746094" xlink:href="#DejaVuSans-6f"/>
     <use x="879.927734" xlink:href="#DejaVuSans-6e"/>
    </g>
   </g>
  </g>
  <g id="axes_2">
   <g id="patch_7">
    <path d="M 43.78125 1264.318125 
L 1717.78125 1264.318125 
L 1717.78125 699.77267 
L 43.78125 699.77267 
z
" style="fill:#ffffff;"/>
   </g>
   <g id="matplotlib.axis_3">
    <g id="xtick_8">
     <g id="line2d_14">
      <g>
       <use style="stroke:#000000;stroke-width:0.8;" x="119.872159" xlink:href="#ma0db634911" y="1264.318125"/>
      </g>
     </g>
     <g id="text_16">
      <!-- 0 -->
      <g transform="translate(116.690909 1278.916563)scale(0.1 -0.1)">
       <use xlink:href="#DejaVuSans-30"/>
      </g>
     </g>
    </g>
    <g id="xtick_9">
     <g id="line2d_15">
      <g>
       <use style="stroke:#000000;stroke-width:0.8;" x="367.523613" xlink:href="#ma0db634911" y="1264.318125"/>
      </g>
     </g>
     <g id="text_17">
      <!-- 200 -->
      <g transform="translate(357.979863 1278.916563)scale(0.1 -0.1)">
       <use xlink:href="#DejaVuSans-32"/>
       <use x="63.623047" xlink:href="#DejaVuSans-30"/>
       <use x="127.246094" xlink:href="#DejaVuSans-30"/>
      </g>
     </g>
    </g>
    <g id="xtick_10">
     <g id="line2d_16">
      <g>
       <use style="stroke:#000000;stroke-width:0.8;" x="615.175066" xlink:href="#ma0db634911" y="1264.318125"/>
      </g>
     </g>
     <g id="text_18">
      <!-- 400 -->
      <g transform="translate(605.631316 1278.916563)scale(0.1 -0.1)">
       <use xlink:href="#DejaVuSans-34"/>
       <use x="63.623047" xlink:href="#DejaVuSans-30"/>
       <use x="127.246094" xlink:href="#DejaVuSans-30"/>
      </g>
     </g>
    </g>
    <g id="xtick_11">
     <g id="line2d_17">
      <g>
       <use style="stroke:#000000;stroke-width:0.8;" x="862.82652" xlink:href="#ma0db634911" y="1264.318125"/>
      </g>
     </g>
     <g id="text_19">
      <!-- 600 -->
      <g transform="translate(853.28277 1278.916563)scale(0.1 -0.1)">
       <use xlink:href="#DejaVuSans-36"/>
       <use x="63.623047" xlink:href="#DejaVuSans-30"/>
       <use x="127.246094" xlink:href="#DejaVuSans-30"/>
      </g>
     </g>
    </g>
    <g id="xtick_12">
     <g id="line2d_18">
      <g>
       <use style="stroke:#000000;stroke-width:0.8;" x="1110.477973" xlink:href="#ma0db634911" y="1264.318125"/>
      </g>
     </g>
     <g id="text_20">
      <!-- 800 -->
      <g transform="translate(1100.934223 1278.916563)scale(0.1 -0.1)">
       <use xlink:href="#DejaVuSans-38"/>
       <use x="63.623047" xlink:href="#DejaVuSans-30"/>
       <use x="127.246094" xlink:href="#DejaVuSans-30"/>
      </g>
     </g>
    </g>
    <g id="xtick_13">
     <g id="line2d_19">
      <g>
       <use style="stroke:#000000;stroke-width:0.8;" x="1358.129427" xlink:href="#ma0db634911" y="1264.318125"/>
      </g>
     </g>
     <g id="text_21">
      <!-- 1000 -->
      <g transform="translate(1345.404427 1278.916563)scale(0.1 -0.1)">
       <use xlink:href="#DejaVuSans-31"/>
       <use x="63.623047" xlink:href="#DejaVuSans-30"/>
       <use x="127.246094" xlink:href="#DejaVuSans-30"/>
       <use x="190.869141" xlink:href="#DejaVuSans-30"/>
      </g>
     </g>
    </g>
    <g id="xtick_14">
     <g id="line2d_20">
      <g>
       <use style="stroke:#000000;stroke-width:0.8;" x="1605.78088" xlink:href="#ma0db634911" y="1264.318125"/>
      </g>
     </g>
     <g id="text_22">
      <!-- 1200 -->
      <g transform="translate(1593.05588 1278.916563)scale(0.1 -0.1)">
       <use xlink:href="#DejaVuSans-31"/>
       <use x="63.623047" xlink:href="#DejaVuSans-32"/>
       <use x="127.246094" xlink:href="#DejaVuSans-30"/>
       <use x="190.869141" xlink:href="#DejaVuSans-30"/>
      </g>
     </g>
    </g>
    <g id="text_23">
     <!-- frame -->
     <g transform="translate(865.954687 1292.594688)scale(0.1 -0.1)">
      <use xlink:href="#DejaVuSans-66"/>
      <use x="35.205078" xlink:href="#DejaVuSans-72"/>
      <use x="76.318359" xlink:href="#DejaVuSans-61"/>
      <use x="137.597656" xlink:href="#DejaVuSans-6d"/>
      <use x="235.009766" xlink:href="#DejaVuSans-65"/>
     </g>
    </g>
   </g>
   <g id="matplotlib.axis_4">
    <g id="ytick_6">
     <g id="line2d_21">
      <g>
       <use style="stroke:#000000;stroke-width:0.8;" x="43.78125" xlink:href="#m6e9b84d2da" y="1238.656968"/>
      </g>
     </g>
     <g id="text_24">
      <!-- 0.0 -->
      <g transform="translate(20.878125 1242.456187)scale(0.1 -0.1)">
       <use xlink:href="#DejaVuSans-30"/>
       <use x="63.623047" xlink:href="#DejaVuSans-2e"/>
       <use x="95.410156" xlink:href="#DejaVuSans-30"/>
      </g>
     </g>
    </g>
    <g id="ytick_7">
     <g id="line2d_22">
      <g>
       <use style="stroke:#000000;stroke-width:0.8;" x="43.78125" xlink:href="#m6e9b84d2da" y="1136.01234"/>
      </g>
     </g>
     <g id="text_25">
      <!-- 0.2 -->
      <g transform="translate(20.878125 1139.811559)scale(0.1 -0.1)">
       <use xlink:href="#DejaVuSans-30"/>
       <use x="63.623047" xlink:href="#DejaVuSans-2e"/>
       <use x="95.410156" xlink:href="#DejaVuSans-32"/>
      </g>
     </g>
    </g>
    <g id="ytick_8">
     <g id="line2d_23">
      <g>
       <use style="stroke:#000000;stroke-width:0.8;" x="43.78125" xlink:href="#m6e9b84d2da" y="1033.367712"/>
      </g>
     </g>
     <g id="text_26">
      <!-- 0.4 -->
      <g transform="translate(20.878125 1037.166931)scale(0.1 -0.1)">
       <use xlink:href="#DejaVuSans-30"/>
       <use x="63.623047" xlink:href="#DejaVuSans-2e"/>
       <use x="95.410156" xlink:href="#DejaVuSans-34"/>
      </g>
     </g>
    </g>
    <g id="ytick_9">
     <g id="line2d_24">
      <g>
       <use style="stroke:#000000;stroke-width:0.8;" x="43.78125" xlink:href="#m6e9b84d2da" y="930.723084"/>
      </g>
     </g>
     <g id="text_27">
      <!-- 0.6 -->
      <g transform="translate(20.878125 934.522302)scale(0.1 -0.1)">
       <use xlink:href="#DejaVuSans-30"/>
       <use x="63.623047" xlink:href="#DejaVuSans-2e"/>
       <use x="95.410156" xlink:href="#DejaVuSans-36"/>
      </g>
     </g>
    </g>
    <g id="ytick_10">
     <g id="line2d_25">
      <g>
       <use style="stroke:#000000;stroke-width:0.8;" x="43.78125" xlink:href="#m6e9b84d2da" y="828.078456"/>
      </g>
     </g>
     <g id="text_28">
      <!-- 0.8 -->
      <g transform="translate(20.878125 831.877674)scale(0.1 -0.1)">
       <use xlink:href="#DejaVuSans-30"/>
       <use x="63.623047" xlink:href="#DejaVuSans-2e"/>
       <use x="95.410156" xlink:href="#DejaVuSans-38"/>
      </g>
     </g>
    </g>
    <g id="ytick_11">
     <g id="line2d_26">
      <g>
       <use style="stroke:#000000;stroke-width:0.8;" x="43.78125" xlink:href="#m6e9b84d2da" y="725.433827"/>
      </g>
     </g>
     <g id="text_29">
      <!-- 1.0 -->
      <g transform="translate(20.878125 729.233046)scale(0.1 -0.1)">
       <use xlink:href="#DejaVuSans-31"/>
       <use x="63.623047" xlink:href="#DejaVuSans-2e"/>
       <use x="95.410156" xlink:href="#DejaVuSans-30"/>
      </g>
     </g>
    </g>
    <g id="text_30">
     <!-- GCaMP -->
     <g transform="translate(14.798437 999.803991)rotate(-90)scale(0.1 -0.1)">
      <use xlink:href="#DejaVuSans-47"/>
      <use x="77.490234" xlink:href="#DejaVuSans-43"/>
      <use x="147.314453" xlink:href="#DejaVuSans-61"/>
      <use x="208.59375" xlink:href="#DejaVuSans-4d"/>
      <use x="294.873047" xlink:href="#DejaVuSans-50"/>
     </g>
    </g>
   </g>
   <g id="line2d_27">
    <path clip-path="url(#p7b5351ed92)" d="M 119.872159 1238.656968 
L 1216.968098 1238.656968 
L 1218.206355 725.433827 
L 1532.723701 725.433827 
L 1533.961959 1238.656968 
L 1641.690341 1238.656968 
L 1641.690341 1238.656968 
" style="fill:none;stroke:#008000;stroke-linecap:square;stroke-width:1.5;"/>
   </g>
   <g id="patch_8">
    <path d="M 43.78125 1264.318125 
L 43.78125 699.77267 
" style="fill:none;stroke:#000000;stroke-linecap:square;stroke-linejoin:miter;stroke-width:0.8;"/>
   </g>
   <g id="patch_9">
    <path d="M 1717.78125 1264.318125 
L 1717.78125 699.77267 
" style="fill:none;stroke:#000000;stroke-linecap:square;stroke-linejoin:miter;stroke-width:0.8;"/>
   </g>
   <g id="patch_10">
    <path d="M 43.78125 1264.318125 
L 1717.78125 1264.318125 
" style="fill:none;stroke:#000000;stroke-linecap:square;stroke-linejoin:miter;stroke-width:0.8;"/>
   </g>
   <g id="patch_11">
    <path d="M 43.78125 699.77267 
L 1717.78125 699.77267 
" style="fill:none;stroke:#000000;stroke-linecap:square;stroke-linejoin:miter;stroke-width:0.8;"/>
   </g>
   <g id="text_31">
    <!-- before binarisation -->
    <g transform="translate(824.1825 693.77267)scale(0.12 -0.12)">
     <use xlink:href="#DejaVuSans-62"/>
     <use x="63.476562" xlink:href="#DejaVuSans-65"/>
     <use x="125" xlink:href="#DejaVuSans-66"/>
     <use x="160.205078" xlink:href="#DejaVuSans-6f"/>
     <use x="221.386719" xlink:href="#DejaVuSans-72"/>
     <use x="260.25" xlink:href="#DejaVuSans-65"/>
     <use x="321.773438" xlink:href="#DejaVuSans-20"/>
     <use x="353.560547" xlink:href="#DejaVuSans-62"/>
     <use x="417.037109" xlink:href="#DejaVuSans-69"/>
     <use x="444.820312" xlink:href="#DejaVuSans-6e"/>
     <use x="508.199219" xlink:href="#DejaVuSans-61"/>
     <use x="569.478516" xlink:href="#DejaVuSans-72"/>
     <use x="610.591797" xlink:href="#DejaVuSans-69"/>
     <use x="638.375" xlink:href="#DejaVuSans-73"/>
     <use x="690.474609" xlink:href="#DejaVuSans-61"/>
     <use x="751.753906" xlink:href="#DejaVuSans-74"/>
     <use x="790.962891" xlink:href="#DejaVuSans-69"/>
     <use x="818.746094" xlink:href="#DejaVuSans-6f"/>
     <use x="879.927734" xlink:href="#DejaVuSans-6e"/>
    </g>
   </g>
  </g>
 </g>
 <defs>
  <clipPath id="pc9f75b99c9">
   <rect height="564.545455" width="1674" x="43.78125" y="22.318125"/>
  </clipPath>
  <clipPath id="p7b5351ed92">
   <rect height="564.545455" width="1674" x="43.78125" y="699.77267"/>
  </clipPath>
 </defs>
</svg>
