<?xml version="1.0" encoding="utf-8" standalone="no"?>
<!DOCTYPE svg PUBLIC "-//W3C//DTD SVG 1.1//EN"
  "http://www.w3.org/Graphics/SVG/1.1/DTD/svg11.dtd">
<svg height="1301.874375pt" version="1.1" viewBox="0 0 1731.34375 1301.874375" width="1731.34375pt" xmlns="http://www.w3.org/2000/svg" xmlns:xlink="http://www.w3.org/1999/xlink">
 <metadata>
  <rdf:RDF xmlns:cc="http://creativecommons.org/ns#" xmlns:dc="http://purl.org/dc/elements/1.1/" xmlns:rdf="http://www.w3.org/1999/02/22-rdf-syntax-ns#">
   <cc:Work>
    <dc:type rdf:resource="http://purl.org/dc/dcmitype/StillImage"/>
    <dc:date>2022-07-24T15:54:37.256169</dc:date>
    <dc:format>image/svg+xml</dc:format>
    <dc:creator>
     <cc:Agent>
      <dc:title>Matplotlib v3.4.2, https://matplotlib.org/</dc:title>
     </cc:Agent>
    </dc:creator>
   </cc:Work>
  </rdf:RDF>
 </metadata>
 <defs>
  <style type="text/css">*{stroke-linecap:butt;stroke-linejoin:round;}</style>
 </defs>
 <g id="figure_1">
  <g id="patch_1">
   <path d="M 0 1301.874375 
L 1731.34375 1301.874375 
L 1731.34375 0 
L 0 0 
z
" style="fill:#ffffff;"/>
  </g>
  <g id="axes_1">
   <g id="patch_2">
    <path d="M 50.14375 586.86358 
L 1724.14375 586.86358 
L 1724.14375 22.318125 
L 50.14375 22.318125 
z
" style="fill:#ffffff;"/>
   </g>
   <g id="matplotlib.axis_1">
    <g id="xtick_1">
     <g id="line2d_1">
      <defs>
       <path d="M 0 0 
L 0 3.5 
" id="m3812a0db12" style="stroke:#000000;stroke-width:0.8;"/>
      </defs>
      <g>
       <use style="stroke:#000000;stroke-width:0.8;" x="126.234659" xlink:href="#m3812a0db12" y="586.86358"/>
      </g>
     </g>
     <g id="text_1">
      <!-- 0 -->
      <g transform="translate(123.053409 601.462017)scale(0.1 -0.1)">
       <defs>
        <path d="M 2034 4250 
Q 1547 4250 1301 3770 
Q 1056 3291 1056 2328 
Q 1056 1369 1301 889 
Q 1547 409 2034 409 
Q 2525 409 2770 889 
Q 3016 1369 3016 2328 
Q 3016 3291 2770 3770 
Q 2525 4250 2034 4250 
z
M 2034 4750 
Q 2819 4750 3233 4129 
Q 3647 3509 3647 2328 
Q 3647 1150 3233 529 
Q 2819 -91 2034 -91 
Q 1250 -91 836 529 
Q 422 1150 422 2328 
Q 422 3509 836 4129 
Q 1250 4750 2034 4750 
z
" id="DejaVuSans-30" transform="scale(0.015625)"/>
       </defs>
       <use xlink:href="#DejaVuSans-30"/>
      </g>
     </g>
    </g>
    <g id="xtick_2">
     <g id="line2d_2">
      <g>
       <use style="stroke:#000000;stroke-width:0.8;" x="373.886113" xlink:href="#m3812a0db12" y="586.86358"/>
      </g>
     </g>
     <g id="text_2">
      <!-- 200 -->
      <g transform="translate(364.342363 601.462017)scale(0.1 -0.1)">
       <defs>
        <path d="M 1228 531 
L 3431 531 
L 3431 0 
L 469 0 
L 469 531 
Q 828 903 1448 1529 
Q 2069 2156 2228 2338 
Q 2531 2678 2651 2914 
Q 2772 3150 2772 3378 
Q 2772 3750 2511 3984 
Q 2250 4219 1831 4219 
Q 1534 4219 1204 4116 
Q 875 4013 500 3803 
L 500 4441 
Q 881 4594 1212 4672 
Q 1544 4750 1819 4750 
Q 2544 4750 2975 4387 
Q 3406 4025 3406 3419 
Q 3406 3131 3298 2873 
Q 3191 2616 2906 2266 
Q 2828 2175 2409 1742 
Q 1991 1309 1228 531 
z
" id="DejaVuSans-32" transform="scale(0.015625)"/>
       </defs>
       <use xlink:href="#DejaVuSans-32"/>
       <use x="63.623047" xlink:href="#DejaVuSans-30"/>
       <use x="127.246094" xlink:href="#DejaVuSans-30"/>
      </g>
     </g>
    </g>
    <g id="xtick_3">
     <g id="line2d_3">
      <g>
       <use style="stroke:#000000;stroke-width:0.8;" x="621.537566" xlink:href="#m3812a0db12" y="586.86358"/>
      </g>
     </g>
     <g id="text_3">
      <!-- 400 -->
      <g transform="translate(611.993816 601.462017)scale(0.1 -0.1)">
       <defs>
        <path d="M 2419 4116 
L 825 1625 
L 2419 1625 
L 2419 4116 
z
M 2253 4666 
L 3047 4666 
L 3047 1625 
L 3713 1625 
L 3713 1100 
L 3047 1100 
L 3047 0 
L 2419 0 
L 2419 1100 
L 313 1100 
L 313 1709 
L 2253 4666 
z
" id="DejaVuSans-34" transform="scale(0.015625)"/>
       </defs>
       <use xlink:href="#DejaVuSans-34"/>
       <use x="63.623047" xlink:href="#DejaVuSans-30"/>
       <use x="127.246094" xlink:href="#DejaVuSans-30"/>
      </g>
     </g>
    </g>
    <g id="xtick_4">
     <g id="line2d_4">
      <g>
       <use style="stroke:#000000;stroke-width:0.8;" x="869.18902" xlink:href="#m3812a0db12" y="586.86358"/>
      </g>
     </g>
     <g id="text_4">
      <!-- 600 -->
      <g transform="translate(859.64527 601.462017)scale(0.1 -0.1)">
       <defs>
        <path d="M 2113 2584 
Q 1688 2584 1439 2293 
Q 1191 2003 1191 1497 
Q 1191 994 1439 701 
Q 1688 409 2113 409 
Q 2538 409 2786 701 
Q 3034 994 3034 1497 
Q 3034 2003 2786 2293 
Q 2538 2584 2113 2584 
z
M 3366 4563 
L 3366 3988 
Q 3128 4100 2886 4159 
Q 2644 4219 2406 4219 
Q 1781 4219 1451 3797 
Q 1122 3375 1075 2522 
Q 1259 2794 1537 2939 
Q 1816 3084 2150 3084 
Q 2853 3084 3261 2657 
Q 3669 2231 3669 1497 
Q 3669 778 3244 343 
Q 2819 -91 2113 -91 
Q 1303 -91 875 529 
Q 447 1150 447 2328 
Q 447 3434 972 4092 
Q 1497 4750 2381 4750 
Q 2619 4750 2861 4703 
Q 3103 4656 3366 4563 
z
" id="DejaVuSans-36" transform="scale(0.015625)"/>
       </defs>
       <use xlink:href="#DejaVuSans-36"/>
       <use x="63.623047" xlink:href="#DejaVuSans-30"/>
       <use x="127.246094" xlink:href="#DejaVuSans-30"/>
      </g>
     </g>
    </g>
    <g id="xtick_5">
     <g id="line2d_5">
      <g>
       <use style="stroke:#000000;stroke-width:0.8;" x="1116.840473" xlink:href="#m3812a0db12" y="586.86358"/>
      </g>
     </g>
     <g id="text_5">
      <!-- 800 -->
      <g transform="translate(1107.296723 601.462017)scale(0.1 -0.1)">
       <defs>
        <path d="M 2034 2216 
Q 1584 2216 1326 1975 
Q 1069 1734 1069 1313 
Q 1069 891 1326 650 
Q 1584 409 2034 409 
Q 2484 409 2743 651 
Q 3003 894 3003 1313 
Q 3003 1734 2745 1975 
Q 2488 2216 2034 2216 
z
M 1403 2484 
Q 997 2584 770 2862 
Q 544 3141 544 3541 
Q 544 4100 942 4425 
Q 1341 4750 2034 4750 
Q 2731 4750 3128 4425 
Q 3525 4100 3525 3541 
Q 3525 3141 3298 2862 
Q 3072 2584 2669 2484 
Q 3125 2378 3379 2068 
Q 3634 1759 3634 1313 
Q 3634 634 3220 271 
Q 2806 -91 2034 -91 
Q 1263 -91 848 271 
Q 434 634 434 1313 
Q 434 1759 690 2068 
Q 947 2378 1403 2484 
z
M 1172 3481 
Q 1172 3119 1398 2916 
Q 1625 2713 2034 2713 
Q 2441 2713 2670 2916 
Q 2900 3119 2900 3481 
Q 2900 3844 2670 4047 
Q 2441 4250 2034 4250 
Q 1625 4250 1398 4047 
Q 1172 3844 1172 3481 
z
" id="DejaVuSans-38" transform="scale(0.015625)"/>
       </defs>
       <use xlink:href="#DejaVuSans-38"/>
       <use x="63.623047" xlink:href="#DejaVuSans-30"/>
       <use x="127.246094" xlink:href="#DejaVuSans-30"/>
      </g>
     </g>
    </g>
    <g id="xtick_6">
     <g id="line2d_6">
      <g>
       <use style="stroke:#000000;stroke-width:0.8;" x="1364.491927" xlink:href="#m3812a0db12" y="586.86358"/>
      </g>
     </g>
     <g id="text_6">
      <!-- 1000 -->
      <g transform="translate(1351.766927 601.462017)scale(0.1 -0.1)">
       <defs>
        <path d="M 794 531 
L 1825 531 
L 1825 4091 
L 703 3866 
L 703 4441 
L 1819 4666 
L 2450 4666 
L 2450 531 
L 3481 531 
L 3481 0 
L 794 0 
L 794 531 
z
" id="DejaVuSans-31" transform="scale(0.015625)"/>
       </defs>
       <use xlink:href="#DejaVuSans-31"/>
       <use x="63.623047" xlink:href="#DejaVuSans-30"/>
       <use x="127.246094" xlink:href="#DejaVuSans-30"/>
       <use x="190.869141" xlink:href="#DejaVuSans-30"/>
      </g>
     </g>
    </g>
    <g id="xtick_7">
     <g id="line2d_7">
      <g>
       <use style="stroke:#000000;stroke-width:0.8;" x="1612.14338" xlink:href="#m3812a0db12" y="586.86358"/>
      </g>
     </g>
     <g id="text_7">
      <!-- 1200 -->
      <g transform="translate(1599.41838 601.462017)scale(0.1 -0.1)">
       <use xlink:href="#DejaVuSans-31"/>
       <use x="63.623047" xlink:href="#DejaVuSans-32"/>
       <use x="127.246094" xlink:href="#DejaVuSans-30"/>
       <use x="190.869141" xlink:href="#DejaVuSans-30"/>
      </g>
     </g>
    </g>
    <g id="text_8">
     <!-- frame -->
     <g transform="translate(872.317187 615.140142)scale(0.1 -0.1)">
      <defs>
       <path d="M 2375 4863 
L 2375 4384 
L 1825 4384 
Q 1516 4384 1395 4259 
Q 1275 4134 1275 3809 
L 1275 3500 
L 2222 3500 
L 2222 3053 
L 1275 3053 
L 1275 0 
L 697 0 
L 697 3053 
L 147 3053 
L 147 3500 
L 697 3500 
L 697 3744 
Q 697 4328 969 4595 
Q 1241 4863 1831 4863 
L 2375 4863 
z
" id="DejaVuSans-66" transform="scale(0.015625)"/>
       <path d="M 2631 2963 
Q 2534 3019 2420 3045 
Q 2306 3072 2169 3072 
Q 1681 3072 1420 2755 
Q 1159 2438 1159 1844 
L 1159 0 
L 581 0 
L 581 3500 
L 1159 3500 
L 1159 2956 
Q 1341 3275 1631 3429 
Q 1922 3584 2338 3584 
Q 2397 3584 2469 3576 
Q 2541 3569 2628 3553 
L 2631 2963 
z
" id="DejaVuSans-72" transform="scale(0.015625)"/>
       <path d="M 2194 1759 
Q 1497 1759 1228 1600 
Q 959 1441 959 1056 
Q 959 750 1161 570 
Q 1363 391 1709 391 
Q 2188 391 2477 730 
Q 2766 1069 2766 1631 
L 2766 1759 
L 2194 1759 
z
M 3341 1997 
L 3341 0 
L 2766 0 
L 2766 531 
Q 2569 213 2275 61 
Q 1981 -91 1556 -91 
Q 1019 -91 701 211 
Q 384 513 384 1019 
Q 384 1609 779 1909 
Q 1175 2209 1959 2209 
L 2766 2209 
L 2766 2266 
Q 2766 2663 2505 2880 
Q 2244 3097 1772 3097 
Q 1472 3097 1187 3025 
Q 903 2953 641 2809 
L 641 3341 
Q 956 3463 1253 3523 
Q 1550 3584 1831 3584 
Q 2591 3584 2966 3190 
Q 3341 2797 3341 1997 
z
" id="DejaVuSans-61" transform="scale(0.015625)"/>
       <path d="M 3328 2828 
Q 3544 3216 3844 3400 
Q 4144 3584 4550 3584 
Q 5097 3584 5394 3201 
Q 5691 2819 5691 2113 
L 5691 0 
L 5113 0 
L 5113 2094 
Q 5113 2597 4934 2840 
Q 4756 3084 4391 3084 
Q 3944 3084 3684 2787 
Q 3425 2491 3425 1978 
L 3425 0 
L 2847 0 
L 2847 2094 
Q 2847 2600 2669 2842 
Q 2491 3084 2119 3084 
Q 1678 3084 1418 2786 
Q 1159 2488 1159 1978 
L 1159 0 
L 581 0 
L 581 3500 
L 1159 3500 
L 1159 2956 
Q 1356 3278 1631 3431 
Q 1906 3584 2284 3584 
Q 2666 3584 2933 3390 
Q 3200 3197 3328 2828 
z
" id="DejaVuSans-6d" transform="scale(0.015625)"/>
       <path d="M 3597 1894 
L 3597 1613 
L 953 1613 
Q 991 1019 1311 708 
Q 1631 397 2203 397 
Q 2534 397 2845 478 
Q 3156 559 3463 722 
L 3463 178 
Q 3153 47 2828 -22 
Q 2503 -91 2169 -91 
Q 1331 -91 842 396 
Q 353 884 353 1716 
Q 353 2575 817 3079 
Q 1281 3584 2069 3584 
Q 2775 3584 3186 3129 
Q 3597 2675 3597 1894 
z
M 3022 2063 
Q 3016 2534 2758 2815 
Q 2500 3097 2075 3097 
Q 1594 3097 1305 2825 
Q 1016 2553 972 2059 
L 3022 2063 
z
" id="DejaVuSans-65" transform="scale(0.015625)"/>
      </defs>
      <use xlink:href="#DejaVuSans-66"/>
      <use x="35.205078" xlink:href="#DejaVuSans-72"/>
      <use x="76.318359" xlink:href="#DejaVuSans-61"/>
      <use x="137.597656" xlink:href="#DejaVuSans-6d"/>
      <use x="235.009766" xlink:href="#DejaVuSans-65"/>
     </g>
    </g>
   </g>
   <g id="matplotlib.axis_2">
    <g id="ytick_1">
     <g id="line2d_8">
      <defs>
       <path d="M 0 0 
L -3.5 0 
" id="m03f1b00dc1" style="stroke:#000000;stroke-width:0.8;"/>
      </defs>
      <g>
       <use style="stroke:#000000;stroke-width:0.8;" x="50.14375" xlink:href="#m03f1b00dc1" y="561.202423"/>
      </g>
     </g>
     <g id="text_9">
      <!-- 0.00 -->
      <g transform="translate(20.878125 565.001641)scale(0.1 -0.1)">
       <defs>
        <path d="M 684 794 
L 1344 794 
L 1344 0 
L 684 0 
L 684 794 
z
" id="DejaVuSans-2e" transform="scale(0.015625)"/>
       </defs>
       <use xlink:href="#DejaVuSans-30"/>
       <use x="63.623047" xlink:href="#DejaVuSans-2e"/>
       <use x="95.410156" xlink:href="#DejaVuSans-30"/>
       <use x="159.033203" xlink:href="#DejaVuSans-30"/>
      </g>
     </g>
    </g>
    <g id="ytick_2">
     <g id="line2d_9">
      <g>
       <use style="stroke:#000000;stroke-width:0.8;" x="50.14375" xlink:href="#m03f1b00dc1" y="484.730683"/>
      </g>
     </g>
     <g id="text_10">
      <!-- 0.25 -->
      <g transform="translate(20.878125 488.529902)scale(0.1 -0.1)">
       <defs>
        <path d="M 691 4666 
L 3169 4666 
L 3169 4134 
L 1269 4134 
L 1269 2991 
Q 1406 3038 1543 3061 
Q 1681 3084 1819 3084 
Q 2600 3084 3056 2656 
Q 3513 2228 3513 1497 
Q 3513 744 3044 326 
Q 2575 -91 1722 -91 
Q 1428 -91 1123 -41 
Q 819 9 494 109 
L 494 744 
Q 775 591 1075 516 
Q 1375 441 1709 441 
Q 2250 441 2565 725 
Q 2881 1009 2881 1497 
Q 2881 1984 2565 2268 
Q 2250 2553 1709 2553 
Q 1456 2553 1204 2497 
Q 953 2441 691 2322 
L 691 4666 
z
" id="DejaVuSans-35" transform="scale(0.015625)"/>
       </defs>
       <use xlink:href="#DejaVuSans-30"/>
       <use x="63.623047" xlink:href="#DejaVuSans-2e"/>
       <use x="95.410156" xlink:href="#DejaVuSans-32"/>
       <use x="159.033203" xlink:href="#DejaVuSans-35"/>
      </g>
     </g>
    </g>
    <g id="ytick_3">
     <g id="line2d_10">
      <g>
       <use style="stroke:#000000;stroke-width:0.8;" x="50.14375" xlink:href="#m03f1b00dc1" y="408.258943"/>
      </g>
     </g>
     <g id="text_11">
      <!-- 0.50 -->
      <g transform="translate(20.878125 412.058162)scale(0.1 -0.1)">
       <use xlink:href="#DejaVuSans-30"/>
       <use x="63.623047" xlink:href="#DejaVuSans-2e"/>
       <use x="95.410156" xlink:href="#DejaVuSans-35"/>
       <use x="159.033203" xlink:href="#DejaVuSans-30"/>
      </g>
     </g>
    </g>
    <g id="ytick_4">
     <g id="line2d_11">
      <g>
       <use style="stroke:#000000;stroke-width:0.8;" x="50.14375" xlink:href="#m03f1b00dc1" y="331.787204"/>
      </g>
     </g>
     <g id="text_12">
      <!-- 0.75 -->
      <g transform="translate(20.878125 335.586423)scale(0.1 -0.1)">
       <defs>
        <path d="M 525 4666 
L 3525 4666 
L 3525 4397 
L 1831 0 
L 1172 0 
L 2766 4134 
L 525 4134 
L 525 4666 
z
" id="DejaVuSans-37" transform="scale(0.015625)"/>
       </defs>
       <use xlink:href="#DejaVuSans-30"/>
       <use x="63.623047" xlink:href="#DejaVuSans-2e"/>
       <use x="95.410156" xlink:href="#DejaVuSans-37"/>
       <use x="159.033203" xlink:href="#DejaVuSans-35"/>
      </g>
     </g>
    </g>
    <g id="ytick_5">
     <g id="line2d_12">
      <g>
       <use style="stroke:#000000;stroke-width:0.8;" x="50.14375" xlink:href="#m03f1b00dc1" y="255.315464"/>
      </g>
     </g>
     <g id="text_13">
      <!-- 1.00 -->
      <g transform="translate(20.878125 259.114683)scale(0.1 -0.1)">
       <use xlink:href="#DejaVuSans-31"/>
       <use x="63.623047" xlink:href="#DejaVuSans-2e"/>
       <use x="95.410156" xlink:href="#DejaVuSans-30"/>
       <use x="159.033203" xlink:href="#DejaVuSans-30"/>
      </g>
     </g>
    </g>
    <g id="ytick_6">
     <g id="line2d_13">
      <g>
       <use style="stroke:#000000;stroke-width:0.8;" x="50.14375" xlink:href="#m03f1b00dc1" y="178.843725"/>
      </g>
     </g>
     <g id="text_14">
      <!-- 1.25 -->
      <g transform="translate(20.878125 182.642944)scale(0.1 -0.1)">
       <use xlink:href="#DejaVuSans-31"/>
       <use x="63.623047" xlink:href="#DejaVuSans-2e"/>
       <use x="95.410156" xlink:href="#DejaVuSans-32"/>
       <use x="159.033203" xlink:href="#DejaVuSans-35"/>
      </g>
     </g>
    </g>
    <g id="ytick_7">
     <g id="line2d_14">
      <g>
       <use style="stroke:#000000;stroke-width:0.8;" x="50.14375" xlink:href="#m03f1b00dc1" y="102.371985"/>
      </g>
     </g>
     <g id="text_15">
      <!-- 1.50 -->
      <g transform="translate(20.878125 106.171204)scale(0.1 -0.1)">
       <use xlink:href="#DejaVuSans-31"/>
       <use x="63.623047" xlink:href="#DejaVuSans-2e"/>
       <use x="95.410156" xlink:href="#DejaVuSans-35"/>
       <use x="159.033203" xlink:href="#DejaVuSans-30"/>
      </g>
     </g>
    </g>
    <g id="ytick_8">
     <g id="line2d_15">
      <g>
       <use style="stroke:#000000;stroke-width:0.8;" x="50.14375" xlink:href="#m03f1b00dc1" y="25.900246"/>
      </g>
     </g>
     <g id="text_16">
      <!-- 1.75 -->
      <g transform="translate(20.878125 29.699465)scale(0.1 -0.1)">
       <use xlink:href="#DejaVuSans-31"/>
       <use x="63.623047" xlink:href="#DejaVuSans-2e"/>
       <use x="95.410156" xlink:href="#DejaVuSans-37"/>
       <use x="159.033203" xlink:href="#DejaVuSans-35"/>
      </g>
     </g>
    </g>
    <g id="text_17">
     <!-- GCaMP -->
     <g transform="translate(14.798438 322.349446)rotate(-90)scale(0.1 -0.1)">
      <defs>
       <path d="M 3809 666 
L 3809 1919 
L 2778 1919 
L 2778 2438 
L 4434 2438 
L 4434 434 
Q 4069 175 3628 42 
Q 3188 -91 2688 -91 
Q 1594 -91 976 548 
Q 359 1188 359 2328 
Q 359 3472 976 4111 
Q 1594 4750 2688 4750 
Q 3144 4750 3555 4637 
Q 3966 4525 4313 4306 
L 4313 3634 
Q 3963 3931 3569 4081 
Q 3175 4231 2741 4231 
Q 1884 4231 1454 3753 
Q 1025 3275 1025 2328 
Q 1025 1384 1454 906 
Q 1884 428 2741 428 
Q 3075 428 3337 486 
Q 3600 544 3809 666 
z
" id="DejaVuSans-47" transform="scale(0.015625)"/>
       <path d="M 4122 4306 
L 4122 3641 
Q 3803 3938 3442 4084 
Q 3081 4231 2675 4231 
Q 1875 4231 1450 3742 
Q 1025 3253 1025 2328 
Q 1025 1406 1450 917 
Q 1875 428 2675 428 
Q 3081 428 3442 575 
Q 3803 722 4122 1019 
L 4122 359 
Q 3791 134 3420 21 
Q 3050 -91 2638 -91 
Q 1578 -91 968 557 
Q 359 1206 359 2328 
Q 359 3453 968 4101 
Q 1578 4750 2638 4750 
Q 3056 4750 3426 4639 
Q 3797 4528 4122 4306 
z
" id="DejaVuSans-43" transform="scale(0.015625)"/>
       <path d="M 628 4666 
L 1569 4666 
L 2759 1491 
L 3956 4666 
L 4897 4666 
L 4897 0 
L 4281 0 
L 4281 4097 
L 3078 897 
L 2444 897 
L 1241 4097 
L 1241 0 
L 628 0 
L 628 4666 
z
" id="DejaVuSans-4d" transform="scale(0.015625)"/>
       <path d="M 1259 4147 
L 1259 2394 
L 2053 2394 
Q 2494 2394 2734 2622 
Q 2975 2850 2975 3272 
Q 2975 3691 2734 3919 
Q 2494 4147 2053 4147 
L 1259 4147 
z
M 628 4666 
L 2053 4666 
Q 2838 4666 3239 4311 
Q 3641 3956 3641 3272 
Q 3641 2581 3239 2228 
Q 2838 1875 2053 1875 
L 1259 1875 
L 1259 0 
L 628 0 
L 628 4666 
z
" id="DejaVuSans-50" transform="scale(0.015625)"/>
      </defs>
      <use xlink:href="#DejaVuSans-47"/>
      <use x="77.490234" xlink:href="#DejaVuSans-43"/>
      <use x="147.314453" xlink:href="#DejaVuSans-61"/>
      <use x="208.59375" xlink:href="#DejaVuSans-4d"/>
      <use x="294.873047" xlink:href="#DejaVuSans-50"/>
     </g>
    </g>
   </g>
   <g id="line2d_16">
    <path clip-path="url(#peb8e3d9fbe)" d="M 126.234659 319.645213 
L 129.949431 327.789188 
L 131.187688 328.903366 
L 132.425945 328.225571 
L 133.664203 326.458755 
L 134.90246 324.919508 
L 136.140717 324.723679 
L 137.378974 326.040654 
L 138.617232 327.915118 
L 139.855489 329.036416 
L 141.093746 328.714357 
L 142.332004 327.218059 
L 143.570261 325.521268 
L 144.808518 324.606324 
L 147.285033 324.505057 
L 148.52329 324.234236 
L 149.761547 324.359527 
L 150.999804 325.538105 
L 153.476319 329.571188 
L 154.714576 330.238214 
L 155.952834 329.057203 
L 157.191091 326.479208 
L 158.429348 323.515185 
L 159.667605 321.070798 
L 160.905863 319.578374 
L 162.14412 318.976208 
L 163.382377 319.05125 
L 164.620634 319.798905 
L 165.858892 321.243296 
L 168.335406 324.734865 
L 169.573663 325.868582 
L 170.811921 326.225794 
L 172.050178 325.802234 
L 177.003207 322.201829 
L 178.241464 321.655712 
L 179.479722 321.917549 
L 180.717979 323.431231 
L 181.956236 325.294353 
L 183.194493 325.815986 
L 184.432751 324.260468 
L 185.671008 321.192889 
L 188.147522 313.525588 
L 189.38578 310.725708 
L 190.624037 310.37905 
L 191.862294 312.84975 
L 193.100552 317.418997 
L 195.577066 328.500938 
L 196.815323 332.424629 
L 198.053581 333.742408 
L 199.291838 332.072413 
L 200.530095 327.996719 
L 203.00661 317.679763 
L 204.244867 313.530211 
L 205.483124 311.186885 
L 206.721381 311.073628 
L 207.959639 312.671669 
L 211.674411 319.696117 
L 212.912668 321.328056 
L 214.150925 321.829369 
L 215.389182 321.254685 
L 216.62744 319.969154 
L 217.865697 317.919464 
L 219.103954 314.784187 
L 221.580469 306.263975 
L 222.818726 302.866334 
L 224.056983 301.437718 
L 225.29524 302.08342 
L 226.533498 304.154308 
L 227.771755 307.05491 
L 229.010012 310.270797 
L 230.24827 312.87524 
L 231.486527 314.012477 
L 232.724784 313.803626 
L 233.963041 313.170907 
L 235.201299 312.97037 
L 236.439556 313.769069 
L 237.677813 315.937004 
L 238.91607 319.396159 
L 241.392585 327.528843 
L 242.630842 331.052389 
L 243.8691 334.187648 
L 245.107357 336.808918 
L 246.345614 338.299308 
L 247.583871 338.121442 
L 248.822129 336.339818 
L 250.060386 333.432676 
L 251.298643 329.691036 
L 252.5369 324.905889 
L 253.775158 318.594624 
L 256.251672 303.118574 
L 257.489929 297.747486 
L 258.728187 296.435988 
L 259.966444 299.144973 
L 262.442959 309.092428 
L 263.681216 312.901501 
L 264.919473 315.152508 
L 266.15773 315.802597 
L 267.395988 314.872696 
L 268.634245 312.40904 
L 271.110759 304.987089 
L 272.349017 302.3969 
L 273.587274 302.018462 
L 274.825531 303.767787 
L 279.77856 315.009682 
L 281.016818 316.79913 
L 282.255075 317.211881 
L 283.493332 315.912673 
L 284.731589 313.766763 
L 285.969847 312.139595 
L 287.208104 311.702232 
L 288.446361 312.253661 
L 289.684618 313.211153 
L 290.922876 313.932337 
L 292.161133 313.889812 
L 293.39939 312.857966 
L 294.637647 310.975431 
L 297.114162 306.638854 
L 298.352419 304.875259 
L 299.590677 303.4407 
L 300.828934 302.742925 
L 302.067191 303.365953 
L 303.305448 305.572159 
L 305.781963 312.881218 
L 307.02022 315.590125 
L 308.258477 316.010259 
L 309.496735 313.850779 
L 311.973249 305.648498 
L 313.211506 302.628871 
L 314.449764 301.936175 
L 315.688021 303.92014 
L 316.926278 308.263813 
L 319.402793 319.778997 
L 320.64105 323.122104 
L 321.879307 322.211697 
L 323.117565 317.10254 
L 324.355822 310.118864 
L 325.594079 304.29138 
L 326.832336 301.420615 
L 328.070594 301.381581 
L 329.308851 302.898146 
L 330.547108 304.652165 
L 331.785366 305.816452 
L 333.023623 306.13523 
L 334.26188 305.806053 
L 335.500137 305.153447 
L 336.738395 304.329659 
L 337.976652 303.276976 
L 339.214909 301.845964 
L 342.929681 296.600616 
L 344.167938 295.045057 
L 345.406195 292.93326 
L 346.644453 290.001785 
L 347.88271 286.693209 
L 349.120967 283.96823 
L 350.359225 282.780228 
L 351.597482 283.431684 
L 352.835739 285.03365 
L 354.073996 285.967479 
L 355.312254 285.271262 
L 356.550511 283.190488 
L 357.788768 280.64929 
L 359.027025 278.751205 
L 360.265283 278.217881 
L 362.741797 279.512049 
L 363.980054 279.324909 
L 365.218312 277.973917 
L 366.456569 276.066468 
L 367.694826 274.751182 
L 368.933084 274.899286 
L 370.171341 276.488308 
L 372.647855 281.258361 
L 375.12437 284.937491 
L 376.362627 286.845086 
L 377.600884 288.40076 
L 378.839142 288.73546 
L 380.077399 287.596022 
L 381.315656 285.298763 
L 383.792171 279.708343 
L 385.030428 277.519184 
L 386.268685 276.173417 
L 387.506943 275.855048 
L 388.7452 276.185678 
L 389.983457 276.306313 
L 391.221714 275.985001 
L 392.459972 275.874813 
L 394.936486 276.691625 
L 396.174743 276.707904 
L 397.413001 276.422388 
L 398.651258 275.982959 
L 399.889515 275.365845 
L 401.127772 274.896577 
L 402.36603 275.636861 
L 403.604287 278.199632 
L 404.842544 281.643008 
L 406.080802 284.508298 
L 407.319059 286.198528 
L 408.557316 287.083059 
L 411.033831 288.486365 
L 412.272088 288.668012 
L 413.510345 287.88029 
L 414.748602 286.179204 
L 415.98686 283.901281 
L 418.463374 278.72227 
L 419.701632 276.859447 
L 420.939889 276.563552 
L 422.178146 278.144075 
L 423.416403 280.768835 
L 424.654661 283.045691 
L 425.892918 284.19663 
L 427.131175 284.306047 
L 428.369432 283.863586 
L 429.60769 283.6321 
L 430.845947 284.350501 
L 432.084204 285.851697 
L 433.322461 286.936692 
L 434.560719 286.67442 
L 435.798976 285.331598 
L 437.037233 283.542051 
L 439.513748 279.051555 
L 440.752005 277.572526 
L 441.990262 277.979563 
L 443.22852 279.788656 
L 444.466777 280.984874 
L 445.705034 279.844459 
L 446.943291 276.412249 
L 448.181549 272.152356 
L 449.419806 268.679472 
L 450.658063 266.834141 
L 451.89632 266.766955 
L 453.134578 268.485686 
L 454.372835 271.766367 
L 456.84935 280.326291 
L 458.087607 283.867978 
L 459.325864 285.675021 
L 460.564121 285.122076 
L 461.802379 282.157005 
L 464.278893 273.657657 
L 465.51715 271.408294 
L 466.755408 271.562038 
L 467.993665 273.969673 
L 471.708437 285.268297 
L 472.946694 287.668678 
L 474.184951 289.147124 
L 475.423209 289.485706 
L 476.661466 288.213117 
L 477.899723 285.134487 
L 479.13798 280.537031 
L 480.376238 274.902912 
L 482.852752 262.748922 
L 484.091009 258.252621 
L 485.329267 256.700814 
L 486.567524 258.359875 
L 487.805781 261.602703 
L 489.044038 264.039072 
L 490.282296 264.024637 
L 491.520553 261.132929 
L 493.997068 250.892955 
L 495.235325 247.429661 
L 496.473582 246.546275 
L 497.711839 247.542278 
L 500.188354 251.12385 
L 501.426611 252.552175 
L 502.664868 253.532263 
L 505.141383 254.899802 
L 506.37964 255.960351 
L 507.617897 257.603307 
L 508.856155 259.444402 
L 510.094412 260.874762 
L 511.332669 261.685687 
L 512.570927 261.957141 
L 513.809184 261.586953 
L 515.047441 260.488455 
L 516.285698 258.989953 
L 517.523956 257.673931 
L 518.762213 257.096386 
L 520.00047 257.55201 
L 522.476985 259.877793 
L 523.715242 260.535859 
L 524.953499 260.93491 
L 526.191757 261.756479 
L 527.430014 263.174779 
L 528.668271 264.228591 
L 529.906528 263.546855 
L 531.144786 260.572303 
L 534.859557 246.852806 
L 536.097815 244.19628 
L 537.336072 242.775391 
L 538.574329 242.258967 
L 539.812586 242.498638 
L 542.289101 244.259716 
L 543.527358 244.699535 
L 544.765616 244.165398 
L 546.003873 242.610127 
L 547.24213 240.547052 
L 548.480387 238.988572 
L 549.718645 238.742058 
L 550.956902 239.518713 
L 552.195159 240.00468 
L 553.433416 239.060079 
L 555.909931 234.737973 
L 557.148188 233.508874 
L 558.386445 233.137964 
L 559.624703 233.093749 
L 560.86296 233.338657 
L 562.101217 234.906726 
L 563.339475 238.952593 
L 567.054246 257.197845 
L 568.292504 261.678323 
L 569.530761 263.933751 
L 570.769018 262.837296 
L 572.007275 258.309768 
L 573.245533 251.547433 
L 575.722047 237.109377 
L 576.960304 231.005086 
L 578.198562 226.092688 
L 581.913334 214.458223 
L 583.151591 211.222015 
L 584.389848 210.891181 
L 585.628105 214.484354 
L 588.10462 226.057518 
L 589.342877 229.145814 
L 590.581134 229.583704 
L 593.057649 227.712755 
L 594.295906 227.656918 
L 595.534163 227.877868 
L 596.772421 227.301188 
L 598.010678 225.194827 
L 600.487193 218.152946 
L 601.72545 215.505616 
L 602.963707 214.113622 
L 604.201964 213.66348 
L 605.440222 213.710278 
L 606.678479 214.070236 
L 607.916736 214.861564 
L 610.393251 217.16967 
L 611.631508 218.586495 
L 612.869765 220.783232 
L 615.34628 226.399292 
L 616.584537 227.569866 
L 617.822794 226.411752 
L 619.061052 223.378756 
L 620.299309 220.028413 
L 621.537566 217.641045 
L 622.775823 216.363364 
L 624.014081 215.698237 
L 625.252338 215.436587 
L 626.490595 216.140564 
L 627.728852 218.304476 
L 631.443624 227.521859 
L 632.681882 229.949858 
L 633.920139 231.640153 
L 635.158396 231.8204 
L 636.396653 229.550898 
L 637.634911 224.538355 
L 640.111425 210.628364 
L 641.349682 205.711441 
L 642.58794 204.516217 
L 643.826197 206.848524 
L 646.302711 214.700659 
L 647.540969 216.772418 
L 648.779226 216.555805 
L 650.017483 214.221873 
L 651.255741 210.192303 
L 652.493998 205.304517 
L 653.732255 200.902109 
L 654.970512 197.726894 
L 658.685284 190.40658 
L 659.923541 188.563966 
L 661.161799 188.195041 
L 662.400056 189.399995 
L 663.638313 191.190214 
L 664.87657 192.133144 
L 666.114828 191.299784 
L 667.353085 188.714036 
L 669.8296 181.344074 
L 671.067857 178.559512 
L 672.306114 176.947608 
L 673.544371 175.679528 
L 674.782629 173.717201 
L 676.020886 170.581406 
L 677.259143 166.332869 
L 679.735658 156.95355 
L 680.973915 153.594046 
L 682.212172 152.078548 
L 683.450429 152.93862 
L 684.688687 155.973431 
L 685.926944 159.96223 
L 687.165201 163.503335 
L 688.403459 165.874205 
L 689.641716 166.973373 
L 690.879973 166.816563 
L 692.11823 165.439728 
L 693.356488 163.095161 
L 697.071259 154.333876 
L 699.547774 149.668185 
L 700.786031 146.732925 
L 702.024289 142.152929 
L 703.262546 136.560213 
L 704.500803 132.22393 
L 705.73906 131.525135 
L 706.977318 135.553618 
L 708.215575 143.365926 
L 709.453832 152.32109 
L 710.692089 159.723569 
L 711.930347 164.151485 
L 713.168604 165.259014 
L 714.406861 163.197507 
L 715.645118 158.583045 
L 716.883376 152.26404 
L 720.598148 129.491769 
L 721.836405 123.578975 
L 723.074662 119.866947 
L 724.312919 118.756813 
L 725.551177 119.966796 
L 726.789434 122.558852 
L 728.027691 126.198217 
L 729.265948 131.20873 
L 730.504206 137.037303 
L 731.742463 141.525607 
L 732.98072 142.080722 
L 734.218977 137.673687 
L 735.457235 129.656321 
L 736.695492 120.732625 
L 737.933749 112.894043 
L 739.172007 106.335132 
L 740.410264 100.947615 
L 741.648521 97.83842 
L 742.886778 97.974726 
L 745.363293 102.566176 
L 746.60155 102.648206 
L 747.839807 100.84985 
L 749.078065 99.266739 
L 750.316322 99.396821 
L 751.554579 100.937934 
L 755.269351 107.084155 
L 756.507608 109.762282 
L 760.22238 119.902421 
L 761.460637 121.282828 
L 762.698895 121.146805 
L 763.937152 119.48449 
L 765.175409 115.792044 
L 766.413666 109.999973 
L 767.651924 103.322151 
L 768.890181 97.777091 
L 770.128438 95.281724 
L 771.366695 96.954827 
L 772.604953 102.303288 
L 773.84321 109.207685 
L 775.081467 115.338694 
L 776.319725 119.403642 
L 777.557982 121.476212 
L 778.796239 122.90711 
L 780.034496 125.357805 
L 781.272754 129.450995 
L 782.511011 134.817404 
L 786.225783 153.409657 
L 787.46404 156.497388 
L 788.702297 156.837493 
L 789.940554 155.791531 
L 791.178812 154.397721 
L 793.655326 150.996413 
L 794.893584 150.558379 
L 796.131841 152.450802 
L 798.608355 159.806223 
L 799.846613 161.52493 
L 801.08487 161.429725 
L 802.323127 160.319167 
L 803.561384 158.664228 
L 804.799642 157.205968 
L 806.037899 157.201063 
L 807.276156 159.089604 
L 808.514414 161.920486 
L 809.752671 164.320856 
L 810.990928 165.301395 
L 812.229185 164.529484 
L 813.467443 162.657389 
L 814.7057 161.14279 
L 815.943957 160.973502 
L 818.420472 162.2965 
L 819.658729 162.822291 
L 820.896986 164.225664 
L 822.135243 166.820665 
L 823.373501 169.882673 
L 824.611758 172.639946 
L 827.088273 177.425356 
L 828.32653 179.342028 
L 829.564787 179.496872 
L 830.803044 177.010261 
L 832.041302 172.164004 
L 834.517816 160.176729 
L 835.756073 156.013807 
L 836.994331 154.144759 
L 838.232588 154.20696 
L 839.470845 155.652658 
L 841.94736 160.761395 
L 843.185617 162.163198 
L 844.423874 161.441116 
L 845.662132 159.554325 
L 846.900389 158.406939 
L 848.138646 158.936665 
L 850.615161 162.389762 
L 851.853418 163.505412 
L 853.091675 164.465081 
L 854.329932 165.779424 
L 855.56819 166.753758 
L 856.806447 166.526399 
L 858.044704 165.312383 
L 859.282961 163.61329 
L 860.521219 161.309983 
L 861.759476 158.099855 
L 862.997733 154.007686 
L 865.474248 145.087614 
L 866.712505 142.07705 
L 867.950762 140.63331 
L 869.18902 140.487415 
L 870.427277 141.671443 
L 871.665534 144.282155 
L 872.903791 147.649105 
L 874.142049 150.330163 
L 875.380306 151.340775 
L 877.85682 150.994221 
L 880.333335 151.477475 
L 881.571592 151.746126 
L 882.80985 152.348558 
L 889.001136 157.279961 
L 890.239393 159.151762 
L 891.47765 162.420026 
L 892.715908 166.567582 
L 893.954165 169.718182 
L 895.192422 169.911213 
L 896.43068 166.877563 
L 897.668937 162.629745 
L 898.907194 159.915425 
L 900.145451 159.914254 
L 902.621966 163.203306 
L 903.860223 164.41874 
L 905.09848 165.956837 
L 906.336738 168.529668 
L 907.574995 171.765628 
L 908.813252 174.48298 
L 910.051509 175.762283 
L 911.289767 175.356509 
L 912.528024 173.371783 
L 913.766281 169.94407 
L 915.004539 165.336286 
L 916.242796 160.292385 
L 917.481053 156.021573 
L 918.71931 153.668632 
L 919.957568 153.545997 
L 921.195825 154.851439 
L 922.434082 156.631281 
L 923.672339 158.717866 
L 926.148854 163.779886 
L 927.387111 165.634925 
L 928.625368 166.438489 
L 932.34014 166.762846 
L 933.578398 166.258164 
L 934.816655 164.481414 
L 936.054912 161.611171 
L 938.531427 155.293576 
L 939.769684 152.437405 
L 941.007941 150.392563 
L 942.246198 149.978212 
L 943.484456 151.282892 
L 945.96097 155.929135 
L 947.199227 157.379538 
L 948.437485 157.567642 
L 949.675742 156.63162 
L 950.913999 154.844973 
L 954.628771 148.283998 
L 955.867028 145.409548 
L 957.105286 141.355792 
L 958.343543 135.982759 
L 960.820057 123.187482 
L 962.058315 118.676704 
L 963.296572 116.973046 
L 964.534829 117.881971 
L 965.773086 120.140438 
L 967.011344 121.982199 
L 968.249601 122.319622 
L 969.487858 121.520044 
L 970.726116 121.086375 
L 971.964373 122.36027 
L 974.440887 128.270249 
L 975.679145 129.769182 
L 978.155659 129.81094 
L 979.393916 130.806598 
L 980.632174 132.196222 
L 981.870431 132.622695 
L 983.108688 131.290086 
L 984.346946 128.816275 
L 985.585203 126.922992 
L 986.82346 127.148678 
L 988.061717 129.63451 
L 989.299975 132.816601 
L 990.538232 134.62629 
L 991.776489 134.268823 
L 993.014746 132.301203 
L 995.491261 126.606717 
L 996.729518 124.397218 
L 997.967775 123.07946 
L 1000.44429 121.061544 
L 1001.682547 120.394836 
L 1002.920805 121.084535 
L 1005.397319 124.826766 
L 1006.635576 125.677278 
L 1010.350348 126.299352 
L 1011.588605 125.99265 
L 1014.06512 124.431139 
L 1015.303377 123.636921 
L 1016.541634 123.242361 
L 1017.779892 123.603253 
L 1019.018149 124.235832 
L 1020.256406 123.895229 
L 1021.494664 121.599287 
L 1022.732921 117.727801 
L 1023.971178 114.242437 
L 1025.209435 112.830212 
L 1026.447693 112.99913 
L 1027.68595 112.903011 
L 1028.924207 111.370267 
L 1030.162464 108.504868 
L 1031.400722 104.762398 
L 1032.638979 99.946813 
L 1033.877236 93.123368 
L 1035.115493 83.393417 
L 1037.592008 59.053339 
L 1038.830265 50.64246 
L 1040.068523 47.979282 
L 1041.30678 50.540712 
L 1042.545037 56.60896 
L 1043.783294 64.031342 
L 1045.021552 70.143614 
L 1046.259809 72.937084 
L 1047.498066 72.299828 
L 1048.736323 69.563022 
L 1049.974581 66.435792 
L 1051.212838 64.561658 
L 1052.451095 65.367933 
L 1053.689352 69.566838 
L 1054.92761 76.745485 
L 1057.404124 94.892147 
L 1058.642382 102.125229 
L 1059.880639 105.108934 
L 1061.118896 102.778753 
L 1062.357153 96.279115 
L 1064.833668 80.188595 
L 1066.071925 74.22376 
L 1067.310182 70.840871 
L 1068.54844 70.292804 
L 1069.786697 72.705647 
L 1071.024954 77.513699 
L 1072.263211 82.967287 
L 1073.501469 87.235656 
L 1074.739726 89.976765 
L 1075.977983 92.115164 
L 1077.216241 94.644766 
L 1078.454498 98.202428 
L 1079.692755 102.858199 
L 1082.16927 114.006442 
L 1084.645784 125.961596 
L 1085.884041 131.022778 
L 1087.122299 135.256215 
L 1088.360556 138.376736 
L 1089.598813 139.601803 
L 1090.837071 138.402597 
L 1092.075328 134.996438 
L 1093.313585 130.05088 
L 1095.7901 117.911774 
L 1098.266614 104.352735 
L 1099.504871 99.700425 
L 1100.743129 98.757077 
L 1101.981386 100.887535 
L 1103.219643 104.015207 
L 1104.4579 561.202423 
L 1648.052841 561.202423 
L 1648.052841 561.202423 
" style="fill:none;stroke:#008000;stroke-linecap:square;stroke-width:1.5;"/>
   </g>
   <g id="patch_3">
    <path d="M 50.14375 586.86358 
L 50.14375 22.318125 
" style="fill:none;stroke:#000000;stroke-linecap:square;stroke-linejoin:miter;stroke-width:0.8;"/>
   </g>
   <g id="patch_4">
    <path d="M 1724.14375 586.86358 
L 1724.14375 22.318125 
" style="fill:none;stroke:#000000;stroke-linecap:square;stroke-linejoin:miter;stroke-width:0.8;"/>
   </g>
   <g id="patch_5">
    <path d="M 50.14375 586.86358 
L 1724.14375 586.86358 
" style="fill:none;stroke:#000000;stroke-linecap:square;stroke-linejoin:miter;stroke-width:0.8;"/>
   </g>
   <g id="patch_6">
    <path d="M 50.14375 22.318125 
L 1724.14375 22.318125 
" style="fill:none;stroke:#000000;stroke-linecap:square;stroke-linejoin:miter;stroke-width:0.8;"/>
   </g>
   <g id="text_18">
    <!-- before binarisation -->
    <g transform="translate(830.545 16.318125)scale(0.12 -0.12)">
     <defs>
      <path d="M 3116 1747 
Q 3116 2381 2855 2742 
Q 2594 3103 2138 3103 
Q 1681 3103 1420 2742 
Q 1159 2381 1159 1747 
Q 1159 1113 1420 752 
Q 1681 391 2138 391 
Q 2594 391 2855 752 
Q 3116 1113 3116 1747 
z
M 1159 2969 
Q 1341 3281 1617 3432 
Q 1894 3584 2278 3584 
Q 2916 3584 3314 3078 
Q 3713 2572 3713 1747 
Q 3713 922 3314 415 
Q 2916 -91 2278 -91 
Q 1894 -91 1617 61 
Q 1341 213 1159 525 
L 1159 0 
L 581 0 
L 581 4863 
L 1159 4863 
L 1159 2969 
z
" id="DejaVuSans-62" transform="scale(0.015625)"/>
      <path d="M 1959 3097 
Q 1497 3097 1228 2736 
Q 959 2375 959 1747 
Q 959 1119 1226 758 
Q 1494 397 1959 397 
Q 2419 397 2687 759 
Q 2956 1122 2956 1747 
Q 2956 2369 2687 2733 
Q 2419 3097 1959 3097 
z
M 1959 3584 
Q 2709 3584 3137 3096 
Q 3566 2609 3566 1747 
Q 3566 888 3137 398 
Q 2709 -91 1959 -91 
Q 1206 -91 779 398 
Q 353 888 353 1747 
Q 353 2609 779 3096 
Q 1206 3584 1959 3584 
z
" id="DejaVuSans-6f" transform="scale(0.015625)"/>
      <path id="DejaVuSans-20" transform="scale(0.015625)"/>
      <path d="M 603 3500 
L 1178 3500 
L 1178 0 
L 603 0 
L 603 3500 
z
M 603 4863 
L 1178 4863 
L 1178 4134 
L 603 4134 
L 603 4863 
z
" id="DejaVuSans-69" transform="scale(0.015625)"/>
      <path d="M 3513 2113 
L 3513 0 
L 2938 0 
L 2938 2094 
Q 2938 2591 2744 2837 
Q 2550 3084 2163 3084 
Q 1697 3084 1428 2787 
Q 1159 2491 1159 1978 
L 1159 0 
L 581 0 
L 581 3500 
L 1159 3500 
L 1159 2956 
Q 1366 3272 1645 3428 
Q 1925 3584 2291 3584 
Q 2894 3584 3203 3211 
Q 3513 2838 3513 2113 
z
" id="DejaVuSans-6e" transform="scale(0.015625)"/>
      <path d="M 2834 3397 
L 2834 2853 
Q 2591 2978 2328 3040 
Q 2066 3103 1784 3103 
Q 1356 3103 1142 2972 
Q 928 2841 928 2578 
Q 928 2378 1081 2264 
Q 1234 2150 1697 2047 
L 1894 2003 
Q 2506 1872 2764 1633 
Q 3022 1394 3022 966 
Q 3022 478 2636 193 
Q 2250 -91 1575 -91 
Q 1294 -91 989 -36 
Q 684 19 347 128 
L 347 722 
Q 666 556 975 473 
Q 1284 391 1588 391 
Q 1994 391 2212 530 
Q 2431 669 2431 922 
Q 2431 1156 2273 1281 
Q 2116 1406 1581 1522 
L 1381 1569 
Q 847 1681 609 1914 
Q 372 2147 372 2553 
Q 372 3047 722 3315 
Q 1072 3584 1716 3584 
Q 2034 3584 2315 3537 
Q 2597 3491 2834 3397 
z
" id="DejaVuSans-73" transform="scale(0.015625)"/>
      <path d="M 1172 4494 
L 1172 3500 
L 2356 3500 
L 2356 3053 
L 1172 3053 
L 1172 1153 
Q 1172 725 1289 603 
Q 1406 481 1766 481 
L 2356 481 
L 2356 0 
L 1766 0 
Q 1100 0 847 248 
Q 594 497 594 1153 
L 594 3053 
L 172 3053 
L 172 3500 
L 594 3500 
L 594 4494 
L 1172 4494 
z
" id="DejaVuSans-74" transform="scale(0.015625)"/>
     </defs>
     <use xlink:href="#DejaVuSans-62"/>
     <use x="63.476562" xlink:href="#DejaVuSans-65"/>
     <use x="125" xlink:href="#DejaVuSans-66"/>
     <use x="160.205078" xlink:href="#DejaVuSans-6f"/>
     <use x="221.386719" xlink:href="#DejaVuSans-72"/>
     <use x="260.25" xlink:href="#DejaVuSans-65"/>
     <use x="321.773438" xlink:href="#DejaVuSans-20"/>
     <use x="353.560547" xlink:href="#DejaVuSans-62"/>
     <use x="417.037109" xlink:href="#DejaVuSans-69"/>
     <use x="444.820312" xlink:href="#DejaVuSans-6e"/>
     <use x="508.199219" xlink:href="#DejaVuSans-61"/>
     <use x="569.478516" xlink:href="#DejaVuSans-72"/>
     <use x="610.591797" xlink:href="#DejaVuSans-69"/>
     <use x="638.375" xlink:href="#DejaVuSans-73"/>
     <use x="690.474609" xlink:href="#DejaVuSans-61"/>
     <use x="751.753906" xlink:href="#DejaVuSans-74"/>
     <use x="790.962891" xlink:href="#DejaVuSans-69"/>
     <use x="818.746094" xlink:href="#DejaVuSans-6f"/>
     <use x="879.927734" xlink:href="#DejaVuSans-6e"/>
    </g>
   </g>
  </g>
  <g id="axes_2">
   <g id="patch_7">
    <path d="M 50.14375 1264.318125 
L 1724.14375 1264.318125 
L 1724.14375 699.77267 
L 50.14375 699.77267 
z
" style="fill:#ffffff;"/>
   </g>
   <g id="matplotlib.axis_3">
    <g id="xtick_8">
     <g id="line2d_17">
      <g>
       <use style="stroke:#000000;stroke-width:0.8;" x="126.234659" xlink:href="#m3812a0db12" y="1264.318125"/>
      </g>
     </g>
     <g id="text_19">
      <!-- 0 -->
      <g transform="translate(123.053409 1278.916563)scale(0.1 -0.1)">
       <use xlink:href="#DejaVuSans-30"/>
      </g>
     </g>
    </g>
    <g id="xtick_9">
     <g id="line2d_18">
      <g>
       <use style="stroke:#000000;stroke-width:0.8;" x="373.886113" xlink:href="#m3812a0db12" y="1264.318125"/>
      </g>
     </g>
     <g id="text_20">
      <!-- 200 -->
      <g transform="translate(364.342363 1278.916563)scale(0.1 -0.1)">
       <use xlink:href="#DejaVuSans-32"/>
       <use x="63.623047" xlink:href="#DejaVuSans-30"/>
       <use x="127.246094" xlink:href="#DejaVuSans-30"/>
      </g>
     </g>
    </g>
    <g id="xtick_10">
     <g id="line2d_19">
      <g>
       <use style="stroke:#000000;stroke-width:0.8;" x="621.537566" xlink:href="#m3812a0db12" y="1264.318125"/>
      </g>
     </g>
     <g id="text_21">
      <!-- 400 -->
      <g transform="translate(611.993816 1278.916563)scale(0.1 -0.1)">
       <use xlink:href="#DejaVuSans-34"/>
       <use x="63.623047" xlink:href="#DejaVuSans-30"/>
       <use x="127.246094" xlink:href="#DejaVuSans-30"/>
      </g>
     </g>
    </g>
    <g id="xtick_11">
     <g id="line2d_20">
      <g>
       <use style="stroke:#000000;stroke-width:0.8;" x="869.18902" xlink:href="#m3812a0db12" y="1264.318125"/>
      </g>
     </g>
     <g id="text_22">
      <!-- 600 -->
      <g transform="translate(859.64527 1278.916563)scale(0.1 -0.1)">
       <use xlink:href="#DejaVuSans-36"/>
       <use x="63.623047" xlink:href="#DejaVuSans-30"/>
       <use x="127.246094" xlink:href="#DejaVuSans-30"/>
      </g>
     </g>
    </g>
    <g id="xtick_12">
     <g id="line2d_21">
      <g>
       <use style="stroke:#000000;stroke-width:0.8;" x="1116.840473" xlink:href="#m3812a0db12" y="1264.318125"/>
      </g>
     </g>
     <g id="text_23">
      <!-- 800 -->
      <g transform="translate(1107.296723 1278.916563)scale(0.1 -0.1)">
       <use xlink:href="#DejaVuSans-38"/>
       <use x="63.623047" xlink:href="#DejaVuSans-30"/>
       <use x="127.246094" xlink:href="#DejaVuSans-30"/>
      </g>
     </g>
    </g>
    <g id="xtick_13">
     <g id="line2d_22">
      <g>
       <use style="stroke:#000000;stroke-width:0.8;" x="1364.491927" xlink:href="#m3812a0db12" y="1264.318125"/>
      </g>
     </g>
     <g id="text_24">
      <!-- 1000 -->
      <g transform="translate(1351.766927 1278.916563)scale(0.1 -0.1)">
       <use xlink:href="#DejaVuSans-31"/>
       <use x="63.623047" xlink:href="#DejaVuSans-30"/>
       <use x="127.246094" xlink:href="#DejaVuSans-30"/>
       <use x="190.869141" xlink:href="#DejaVuSans-30"/>
      </g>
     </g>
    </g>
    <g id="xtick_14">
     <g id="line2d_23">
      <g>
       <use style="stroke:#000000;stroke-width:0.8;" x="1612.14338" xlink:href="#m3812a0db12" y="1264.318125"/>
      </g>
     </g>
     <g id="text_25">
      <!-- 1200 -->
      <g transform="translate(1599.41838 1278.916563)scale(0.1 -0.1)">
       <use xlink:href="#DejaVuSans-31"/>
       <use x="63.623047" xlink:href="#DejaVuSans-32"/>
       <use x="127.246094" xlink:href="#DejaVuSans-30"/>
       <use x="190.869141" xlink:href="#DejaVuSans-30"/>
      </g>
     </g>
    </g>
    <g id="text_26">
     <!-- frame -->
     <g transform="translate(872.317187 1292.594688)scale(0.1 -0.1)">
      <use xlink:href="#DejaVuSans-66"/>
      <use x="35.205078" xlink:href="#DejaVuSans-72"/>
      <use x="76.318359" xlink:href="#DejaVuSans-61"/>
      <use x="137.597656" xlink:href="#DejaVuSans-6d"/>
      <use x="235.009766" xlink:href="#DejaVuSans-65"/>
     </g>
    </g>
   </g>
   <g id="matplotlib.axis_4">
    <g id="ytick_9">
     <g id="line2d_24">
      <g>
       <use style="stroke:#000000;stroke-width:0.8;" x="50.14375" xlink:href="#m03f1b00dc1" y="1238.656968"/>
      </g>
     </g>
     <g id="text_27">
      <!-- 0.0 -->
      <g transform="translate(27.240625 1242.456187)scale(0.1 -0.1)">
       <use xlink:href="#DejaVuSans-30"/>
       <use x="63.623047" xlink:href="#DejaVuSans-2e"/>
       <use x="95.410156" xlink:href="#DejaVuSans-30"/>
      </g>
     </g>
    </g>
    <g id="ytick_10">
     <g id="line2d_25">
      <g>
       <use style="stroke:#000000;stroke-width:0.8;" x="50.14375" xlink:href="#m03f1b00dc1" y="1136.01234"/>
      </g>
     </g>
     <g id="text_28">
      <!-- 0.2 -->
      <g transform="translate(27.240625 1139.811559)scale(0.1 -0.1)">
       <use xlink:href="#DejaVuSans-30"/>
       <use x="63.623047" xlink:href="#DejaVuSans-2e"/>
       <use x="95.410156" xlink:href="#DejaVuSans-32"/>
      </g>
     </g>
    </g>
    <g id="ytick_11">
     <g id="line2d_26">
      <g>
       <use style="stroke:#000000;stroke-width:0.8;" x="50.14375" xlink:href="#m03f1b00dc1" y="1033.367712"/>
      </g>
     </g>
     <g id="text_29">
      <!-- 0.4 -->
      <g transform="translate(27.240625 1037.166931)scale(0.1 -0.1)">
       <use xlink:href="#DejaVuSans-30"/>
       <use x="63.623047" xlink:href="#DejaVuSans-2e"/>
       <use x="95.410156" xlink:href="#DejaVuSans-34"/>
      </g>
     </g>
    </g>
    <g id="ytick_12">
     <g id="line2d_27">
      <g>
       <use style="stroke:#000000;stroke-width:0.8;" x="50.14375" xlink:href="#m03f1b00dc1" y="930.723084"/>
      </g>
     </g>
     <g id="text_30">
      <!-- 0.6 -->
      <g transform="translate(27.240625 934.522302)scale(0.1 -0.1)">
       <use xlink:href="#DejaVuSans-30"/>
       <use x="63.623047" xlink:href="#DejaVuSans-2e"/>
       <use x="95.410156" xlink:href="#DejaVuSans-36"/>
      </g>
     </g>
    </g>
    <g id="ytick_13">
     <g id="line2d_28">
      <g>
       <use style="stroke:#000000;stroke-width:0.8;" x="50.14375" xlink:href="#m03f1b00dc1" y="828.078456"/>
      </g>
     </g>
     <g id="text_31">
      <!-- 0.8 -->
      <g transform="translate(27.240625 831.877674)scale(0.1 -0.1)">
       <use xlink:href="#DejaVuSans-30"/>
       <use x="63.623047" xlink:href="#DejaVuSans-2e"/>
       <use x="95.410156" xlink:href="#DejaVuSans-38"/>
      </g>
     </g>
    </g>
    <g id="ytick_14">
     <g id="line2d_29">
      <g>
       <use style="stroke:#000000;stroke-width:0.8;" x="50.14375" xlink:href="#m03f1b00dc1" y="725.433827"/>
      </g>
     </g>
     <g id="text_32">
      <!-- 1.0 -->
      <g transform="translate(27.240625 729.233046)scale(0.1 -0.1)">
       <use xlink:href="#DejaVuSans-31"/>
       <use x="63.623047" xlink:href="#DejaVuSans-2e"/>
       <use x="95.410156" xlink:href="#DejaVuSans-30"/>
      </g>
     </g>
    </g>
    <g id="text_33">
     <!-- GCaMP -->
     <g transform="translate(21.160938 999.803991)rotate(-90)scale(0.1 -0.1)">
      <use xlink:href="#DejaVuSans-47"/>
      <use x="77.490234" xlink:href="#DejaVuSans-43"/>
      <use x="147.314453" xlink:href="#DejaVuSans-61"/>
      <use x="208.59375" xlink:href="#DejaVuSans-4d"/>
      <use x="294.873047" xlink:href="#DejaVuSans-50"/>
     </g>
    </g>
   </g>
   <g id="line2d_30">
    <path clip-path="url(#pa52a75982e)" d="M 126.234659 1238.656968 
L 678.4974 1238.656968 
L 679.735658 725.433827 
L 685.926944 725.433827 
L 687.165201 1238.656968 
L 693.356488 1238.656968 
L 694.594745 725.433827 
L 710.692089 725.433827 
L 711.930347 1238.656968 
L 714.406861 1238.656968 
L 715.645118 725.433827 
L 798.608355 725.433827 
L 799.846613 1238.656968 
L 801.08487 1238.656968 
L 802.323127 725.433827 
L 807.276156 725.433827 
L 808.514414 1238.656968 
L 813.467443 1238.656968 
L 814.7057 725.433827 
L 815.943957 725.433827 
L 817.182214 1238.656968 
L 833.279559 1238.656968 
L 834.517816 725.433827 
L 841.94736 725.433827 
L 843.185617 1238.656968 
L 844.423874 1238.656968 
L 845.662132 725.433827 
L 849.376903 725.433827 
L 850.615161 1238.656968 
L 860.521219 1238.656968 
L 861.759476 725.433827 
L 890.239393 725.433827 
L 891.47765 1238.656968 
L 897.668937 1238.656968 
L 898.907194 725.433827 
L 900.145451 725.433827 
L 901.383709 1238.656968 
L 915.004539 1238.656968 
L 916.242796 725.433827 
L 924.910597 725.433827 
L 926.148854 1238.656968 
L 936.054912 1238.656968 
L 937.293169 725.433827 
L 1103.219643 725.433827 
L 1104.4579 1238.656968 
L 1648.052841 1238.656968 
L 1648.052841 1238.656968 
" style="fill:none;stroke:#008000;stroke-linecap:square;stroke-width:1.5;"/>
   </g>
   <g id="patch_8">
    <path d="M 50.14375 1264.318125 
L 50.14375 699.77267 
" style="fill:none;stroke:#000000;stroke-linecap:square;stroke-linejoin:miter;stroke-width:0.8;"/>
   </g>
   <g id="patch_9">
    <path d="M 1724.14375 1264.318125 
L 1724.14375 699.77267 
" style="fill:none;stroke:#000000;stroke-linecap:square;stroke-linejoin:miter;stroke-width:0.8;"/>
   </g>
   <g id="patch_10">
    <path d="M 50.14375 1264.318125 
L 1724.14375 1264.318125 
" style="fill:none;stroke:#000000;stroke-linecap:square;stroke-linejoin:miter;stroke-width:0.8;"/>
   </g>
   <g id="patch_11">
    <path d="M 50.14375 699.77267 
L 1724.14375 699.77267 
" style="fill:none;stroke:#000000;stroke-linecap:square;stroke-linejoin:miter;stroke-width:0.8;"/>
   </g>
   <g id="text_34">
    <!-- before binarisation -->
    <g transform="translate(830.545 693.77267)scale(0.12 -0.12)">
     <use xlink:href="#DejaVuSans-62"/>
     <use x="63.476562" xlink:href="#DejaVuSans-65"/>
     <use x="125" xlink:href="#DejaVuSans-66"/>
     <use x="160.205078" xlink:href="#DejaVuSans-6f"/>
     <use x="221.386719" xlink:href="#DejaVuSans-72"/>
     <use x="260.25" xlink:href="#DejaVuSans-65"/>
     <use x="321.773438" xlink:href="#DejaVuSans-20"/>
     <use x="353.560547" xlink:href="#DejaVuSans-62"/>
     <use x="417.037109" xlink:href="#DejaVuSans-69"/>
     <use x="444.820312" xlink:href="#DejaVuSans-6e"/>
     <use x="508.199219" xlink:href="#DejaVuSans-61"/>
     <use x="569.478516" xlink:href="#DejaVuSans-72"/>
     <use x="610.591797" xlink:href="#DejaVuSans-69"/>
     <use x="638.375" xlink:href="#DejaVuSans-73"/>
     <use x="690.474609" xlink:href="#DejaVuSans-61"/>
     <use x="751.753906" xlink:href="#DejaVuSans-74"/>
     <use x="790.962891" xlink:href="#DejaVuSans-69"/>
     <use x="818.746094" xlink:href="#DejaVuSans-6f"/>
     <use x="879.927734" xlink:href="#DejaVuSans-6e"/>
    </g>
   </g>
  </g>
 </g>
 <defs>
  <clipPath id="peb8e3d9fbe">
   <rect height="564.545455" width="1674" x="50.14375" y="22.318125"/>
  </clipPath>
  <clipPath id="pa52a75982e">
   <rect height="564.545455" width="1674" x="50.14375" y="699.77267"/>
  </clipPath>
 </defs>
</svg>
