<?xml version="1.0" encoding="utf-8" standalone="no"?>
<!DOCTYPE svg PUBLIC "-//W3C//DTD SVG 1.1//EN"
  "http://www.w3.org/Graphics/SVG/1.1/DTD/svg11.dtd">
<svg height="1301.874375pt" version="1.1" viewBox="0 0 1731.34375 1301.874375" width="1731.34375pt" xmlns="http://www.w3.org/2000/svg" xmlns:xlink="http://www.w3.org/1999/xlink">
 <metadata>
  <rdf:RDF xmlns:cc="http://creativecommons.org/ns#" xmlns:dc="http://purl.org/dc/elements/1.1/" xmlns:rdf="http://www.w3.org/1999/02/22-rdf-syntax-ns#">
   <cc:Work>
    <dc:type rdf:resource="http://purl.org/dc/dcmitype/StillImage"/>
    <dc:date>2022-07-24T15:54:37.448686</dc:date>
    <dc:format>image/svg+xml</dc:format>
    <dc:creator>
     <cc:Agent>
      <dc:title>Matplotlib v3.4.2, https://matplotlib.org/</dc:title>
     </cc:Agent>
    </dc:creator>
   </cc:Work>
  </rdf:RDF>
 </metadata>
 <defs>
  <style type="text/css">*{stroke-linecap:butt;stroke-linejoin:round;}</style>
 </defs>
 <g id="figure_1">
  <g id="patch_1">
   <path d="M 0 1301.874375 
L 1731.34375 1301.874375 
L 1731.34375 0 
L 0 0 
z
" style="fill:#ffffff;"/>
  </g>
  <g id="axes_1">
   <g id="patch_2">
    <path d="M 50.14375 586.86358 
L 1724.14375 586.86358 
L 1724.14375 22.318125 
L 50.14375 22.318125 
z
" style="fill:#ffffff;"/>
   </g>
   <g id="matplotlib.axis_1">
    <g id="xtick_1">
     <g id="line2d_1">
      <defs>
       <path d="M 0 0 
L 0 3.5 
" id="mfde0925790" style="stroke:#000000;stroke-width:0.8;"/>
      </defs>
      <g>
       <use style="stroke:#000000;stroke-width:0.8;" x="126.234659" xlink:href="#mfde0925790" y="586.86358"/>
      </g>
     </g>
     <g id="text_1">
      <!-- 0 -->
      <g transform="translate(123.053409 601.462017)scale(0.1 -0.1)">
       <defs>
        <path d="M 2034 4250 
Q 1547 4250 1301 3770 
Q 1056 3291 1056 2328 
Q 1056 1369 1301 889 
Q 1547 409 2034 409 
Q 2525 409 2770 889 
Q 3016 1369 3016 2328 
Q 3016 3291 2770 3770 
Q 2525 4250 2034 4250 
z
M 2034 4750 
Q 2819 4750 3233 4129 
Q 3647 3509 3647 2328 
Q 3647 1150 3233 529 
Q 2819 -91 2034 -91 
Q 1250 -91 836 529 
Q 422 1150 422 2328 
Q 422 3509 836 4129 
Q 1250 4750 2034 4750 
z
" id="DejaVuSans-30" transform="scale(0.015625)"/>
       </defs>
       <use xlink:href="#DejaVuSans-30"/>
      </g>
     </g>
    </g>
    <g id="xtick_2">
     <g id="line2d_2">
      <g>
       <use style="stroke:#000000;stroke-width:0.8;" x="373.886113" xlink:href="#mfde0925790" y="586.86358"/>
      </g>
     </g>
     <g id="text_2">
      <!-- 200 -->
      <g transform="translate(364.342363 601.462017)scale(0.1 -0.1)">
       <defs>
        <path d="M 1228 531 
L 3431 531 
L 3431 0 
L 469 0 
L 469 531 
Q 828 903 1448 1529 
Q 2069 2156 2228 2338 
Q 2531 2678 2651 2914 
Q 2772 3150 2772 3378 
Q 2772 3750 2511 3984 
Q 2250 4219 1831 4219 
Q 1534 4219 1204 4116 
Q 875 4013 500 3803 
L 500 4441 
Q 881 4594 1212 4672 
Q 1544 4750 1819 4750 
Q 2544 4750 2975 4387 
Q 3406 4025 3406 3419 
Q 3406 3131 3298 2873 
Q 3191 2616 2906 2266 
Q 2828 2175 2409 1742 
Q 1991 1309 1228 531 
z
" id="DejaVuSans-32" transform="scale(0.015625)"/>
       </defs>
       <use xlink:href="#DejaVuSans-32"/>
       <use x="63.623047" xlink:href="#DejaVuSans-30"/>
       <use x="127.246094" xlink:href="#DejaVuSans-30"/>
      </g>
     </g>
    </g>
    <g id="xtick_3">
     <g id="line2d_3">
      <g>
       <use style="stroke:#000000;stroke-width:0.8;" x="621.537566" xlink:href="#mfde0925790" y="586.86358"/>
      </g>
     </g>
     <g id="text_3">
      <!-- 400 -->
      <g transform="translate(611.993816 601.462017)scale(0.1 -0.1)">
       <defs>
        <path d="M 2419 4116 
L 825 1625 
L 2419 1625 
L 2419 4116 
z
M 2253 4666 
L 3047 4666 
L 3047 1625 
L 3713 1625 
L 3713 1100 
L 3047 1100 
L 3047 0 
L 2419 0 
L 2419 1100 
L 313 1100 
L 313 1709 
L 2253 4666 
z
" id="DejaVuSans-34" transform="scale(0.015625)"/>
       </defs>
       <use xlink:href="#DejaVuSans-34"/>
       <use x="63.623047" xlink:href="#DejaVuSans-30"/>
       <use x="127.246094" xlink:href="#DejaVuSans-30"/>
      </g>
     </g>
    </g>
    <g id="xtick_4">
     <g id="line2d_4">
      <g>
       <use style="stroke:#000000;stroke-width:0.8;" x="869.18902" xlink:href="#mfde0925790" y="586.86358"/>
      </g>
     </g>
     <g id="text_4">
      <!-- 600 -->
      <g transform="translate(859.64527 601.462017)scale(0.1 -0.1)">
       <defs>
        <path d="M 2113 2584 
Q 1688 2584 1439 2293 
Q 1191 2003 1191 1497 
Q 1191 994 1439 701 
Q 1688 409 2113 409 
Q 2538 409 2786 701 
Q 3034 994 3034 1497 
Q 3034 2003 2786 2293 
Q 2538 2584 2113 2584 
z
M 3366 4563 
L 3366 3988 
Q 3128 4100 2886 4159 
Q 2644 4219 2406 4219 
Q 1781 4219 1451 3797 
Q 1122 3375 1075 2522 
Q 1259 2794 1537 2939 
Q 1816 3084 2150 3084 
Q 2853 3084 3261 2657 
Q 3669 2231 3669 1497 
Q 3669 778 3244 343 
Q 2819 -91 2113 -91 
Q 1303 -91 875 529 
Q 447 1150 447 2328 
Q 447 3434 972 4092 
Q 1497 4750 2381 4750 
Q 2619 4750 2861 4703 
Q 3103 4656 3366 4563 
z
" id="DejaVuSans-36" transform="scale(0.015625)"/>
       </defs>
       <use xlink:href="#DejaVuSans-36"/>
       <use x="63.623047" xlink:href="#DejaVuSans-30"/>
       <use x="127.246094" xlink:href="#DejaVuSans-30"/>
      </g>
     </g>
    </g>
    <g id="xtick_5">
     <g id="line2d_5">
      <g>
       <use style="stroke:#000000;stroke-width:0.8;" x="1116.840473" xlink:href="#mfde0925790" y="586.86358"/>
      </g>
     </g>
     <g id="text_5">
      <!-- 800 -->
      <g transform="translate(1107.296723 601.462017)scale(0.1 -0.1)">
       <defs>
        <path d="M 2034 2216 
Q 1584 2216 1326 1975 
Q 1069 1734 1069 1313 
Q 1069 891 1326 650 
Q 1584 409 2034 409 
Q 2484 409 2743 651 
Q 3003 894 3003 1313 
Q 3003 1734 2745 1975 
Q 2488 2216 2034 2216 
z
M 1403 2484 
Q 997 2584 770 2862 
Q 544 3141 544 3541 
Q 544 4100 942 4425 
Q 1341 4750 2034 4750 
Q 2731 4750 3128 4425 
Q 3525 4100 3525 3541 
Q 3525 3141 3298 2862 
Q 3072 2584 2669 2484 
Q 3125 2378 3379 2068 
Q 3634 1759 3634 1313 
Q 3634 634 3220 271 
Q 2806 -91 2034 -91 
Q 1263 -91 848 271 
Q 434 634 434 1313 
Q 434 1759 690 2068 
Q 947 2378 1403 2484 
z
M 1172 3481 
Q 1172 3119 1398 2916 
Q 1625 2713 2034 2713 
Q 2441 2713 2670 2916 
Q 2900 3119 2900 3481 
Q 2900 3844 2670 4047 
Q 2441 4250 2034 4250 
Q 1625 4250 1398 4047 
Q 1172 3844 1172 3481 
z
" id="DejaVuSans-38" transform="scale(0.015625)"/>
       </defs>
       <use xlink:href="#DejaVuSans-38"/>
       <use x="63.623047" xlink:href="#DejaVuSans-30"/>
       <use x="127.246094" xlink:href="#DejaVuSans-30"/>
      </g>
     </g>
    </g>
    <g id="xtick_6">
     <g id="line2d_6">
      <g>
       <use style="stroke:#000000;stroke-width:0.8;" x="1364.491927" xlink:href="#mfde0925790" y="586.86358"/>
      </g>
     </g>
     <g id="text_6">
      <!-- 1000 -->
      <g transform="translate(1351.766927 601.462017)scale(0.1 -0.1)">
       <defs>
        <path d="M 794 531 
L 1825 531 
L 1825 4091 
L 703 3866 
L 703 4441 
L 1819 4666 
L 2450 4666 
L 2450 531 
L 3481 531 
L 3481 0 
L 794 0 
L 794 531 
z
" id="DejaVuSans-31" transform="scale(0.015625)"/>
       </defs>
       <use xlink:href="#DejaVuSans-31"/>
       <use x="63.623047" xlink:href="#DejaVuSans-30"/>
       <use x="127.246094" xlink:href="#DejaVuSans-30"/>
       <use x="190.869141" xlink:href="#DejaVuSans-30"/>
      </g>
     </g>
    </g>
    <g id="xtick_7">
     <g id="line2d_7">
      <g>
       <use style="stroke:#000000;stroke-width:0.8;" x="1612.14338" xlink:href="#mfde0925790" y="586.86358"/>
      </g>
     </g>
     <g id="text_7">
      <!-- 1200 -->
      <g transform="translate(1599.41838 601.462017)scale(0.1 -0.1)">
       <use xlink:href="#DejaVuSans-31"/>
       <use x="63.623047" xlink:href="#DejaVuSans-32"/>
       <use x="127.246094" xlink:href="#DejaVuSans-30"/>
       <use x="190.869141" xlink:href="#DejaVuSans-30"/>
      </g>
     </g>
    </g>
    <g id="text_8">
     <!-- frame -->
     <g transform="translate(872.317187 615.140142)scale(0.1 -0.1)">
      <defs>
       <path d="M 2375 4863 
L 2375 4384 
L 1825 4384 
Q 1516 4384 1395 4259 
Q 1275 4134 1275 3809 
L 1275 3500 
L 2222 3500 
L 2222 3053 
L 1275 3053 
L 1275 0 
L 697 0 
L 697 3053 
L 147 3053 
L 147 3500 
L 697 3500 
L 697 3744 
Q 697 4328 969 4595 
Q 1241 4863 1831 4863 
L 2375 4863 
z
" id="DejaVuSans-66" transform="scale(0.015625)"/>
       <path d="M 2631 2963 
Q 2534 3019 2420 3045 
Q 2306 3072 2169 3072 
Q 1681 3072 1420 2755 
Q 1159 2438 1159 1844 
L 1159 0 
L 581 0 
L 581 3500 
L 1159 3500 
L 1159 2956 
Q 1341 3275 1631 3429 
Q 1922 3584 2338 3584 
Q 2397 3584 2469 3576 
Q 2541 3569 2628 3553 
L 2631 2963 
z
" id="DejaVuSans-72" transform="scale(0.015625)"/>
       <path d="M 2194 1759 
Q 1497 1759 1228 1600 
Q 959 1441 959 1056 
Q 959 750 1161 570 
Q 1363 391 1709 391 
Q 2188 391 2477 730 
Q 2766 1069 2766 1631 
L 2766 1759 
L 2194 1759 
z
M 3341 1997 
L 3341 0 
L 2766 0 
L 2766 531 
Q 2569 213 2275 61 
Q 1981 -91 1556 -91 
Q 1019 -91 701 211 
Q 384 513 384 1019 
Q 384 1609 779 1909 
Q 1175 2209 1959 2209 
L 2766 2209 
L 2766 2266 
Q 2766 2663 2505 2880 
Q 2244 3097 1772 3097 
Q 1472 3097 1187 3025 
Q 903 2953 641 2809 
L 641 3341 
Q 956 3463 1253 3523 
Q 1550 3584 1831 3584 
Q 2591 3584 2966 3190 
Q 3341 2797 3341 1997 
z
" id="DejaVuSans-61" transform="scale(0.015625)"/>
       <path d="M 3328 2828 
Q 3544 3216 3844 3400 
Q 4144 3584 4550 3584 
Q 5097 3584 5394 3201 
Q 5691 2819 5691 2113 
L 5691 0 
L 5113 0 
L 5113 2094 
Q 5113 2597 4934 2840 
Q 4756 3084 4391 3084 
Q 3944 3084 3684 2787 
Q 3425 2491 3425 1978 
L 3425 0 
L 2847 0 
L 2847 2094 
Q 2847 2600 2669 2842 
Q 2491 3084 2119 3084 
Q 1678 3084 1418 2786 
Q 1159 2488 1159 1978 
L 1159 0 
L 581 0 
L 581 3500 
L 1159 3500 
L 1159 2956 
Q 1356 3278 1631 3431 
Q 1906 3584 2284 3584 
Q 2666 3584 2933 3390 
Q 3200 3197 3328 2828 
z
" id="DejaVuSans-6d" transform="scale(0.015625)"/>
       <path d="M 3597 1894 
L 3597 1613 
L 953 1613 
Q 991 1019 1311 708 
Q 1631 397 2203 397 
Q 2534 397 2845 478 
Q 3156 559 3463 722 
L 3463 178 
Q 3153 47 2828 -22 
Q 2503 -91 2169 -91 
Q 1331 -91 842 396 
Q 353 884 353 1716 
Q 353 2575 817 3079 
Q 1281 3584 2069 3584 
Q 2775 3584 3186 3129 
Q 3597 2675 3597 1894 
z
M 3022 2063 
Q 3016 2534 2758 2815 
Q 2500 3097 2075 3097 
Q 1594 3097 1305 2825 
Q 1016 2553 972 2059 
L 3022 2063 
z
" id="DejaVuSans-65" transform="scale(0.015625)"/>
      </defs>
      <use xlink:href="#DejaVuSans-66"/>
      <use x="35.205078" xlink:href="#DejaVuSans-72"/>
      <use x="76.318359" xlink:href="#DejaVuSans-61"/>
      <use x="137.597656" xlink:href="#DejaVuSans-6d"/>
      <use x="235.009766" xlink:href="#DejaVuSans-65"/>
     </g>
    </g>
   </g>
   <g id="matplotlib.axis_2">
    <g id="ytick_1">
     <g id="line2d_8">
      <defs>
       <path d="M 0 0 
L -3.5 0 
" id="m7fc6c746ab" style="stroke:#000000;stroke-width:0.8;"/>
      </defs>
      <g>
       <use style="stroke:#000000;stroke-width:0.8;" x="50.14375" xlink:href="#m7fc6c746ab" y="573.464204"/>
      </g>
     </g>
     <g id="text_9">
      <!-- 6.0 -->
      <g transform="translate(27.240625 577.263422)scale(0.1 -0.1)">
       <defs>
        <path d="M 684 794 
L 1344 794 
L 1344 0 
L 684 0 
L 684 794 
z
" id="DejaVuSans-2e" transform="scale(0.015625)"/>
       </defs>
       <use xlink:href="#DejaVuSans-36"/>
       <use x="63.623047" xlink:href="#DejaVuSans-2e"/>
       <use x="95.410156" xlink:href="#DejaVuSans-30"/>
      </g>
     </g>
    </g>
    <g id="ytick_2">
     <g id="line2d_9">
      <g>
       <use style="stroke:#000000;stroke-width:0.8;" x="50.14375" xlink:href="#m7fc6c746ab" y="507.599977"/>
      </g>
     </g>
     <g id="text_10">
      <!-- 6.5 -->
      <g transform="translate(27.240625 511.399196)scale(0.1 -0.1)">
       <defs>
        <path d="M 691 4666 
L 3169 4666 
L 3169 4134 
L 1269 4134 
L 1269 2991 
Q 1406 3038 1543 3061 
Q 1681 3084 1819 3084 
Q 2600 3084 3056 2656 
Q 3513 2228 3513 1497 
Q 3513 744 3044 326 
Q 2575 -91 1722 -91 
Q 1428 -91 1123 -41 
Q 819 9 494 109 
L 494 744 
Q 775 591 1075 516 
Q 1375 441 1709 441 
Q 2250 441 2565 725 
Q 2881 1009 2881 1497 
Q 2881 1984 2565 2268 
Q 2250 2553 1709 2553 
Q 1456 2553 1204 2497 
Q 953 2441 691 2322 
L 691 4666 
z
" id="DejaVuSans-35" transform="scale(0.015625)"/>
       </defs>
       <use xlink:href="#DejaVuSans-36"/>
       <use x="63.623047" xlink:href="#DejaVuSans-2e"/>
       <use x="95.410156" xlink:href="#DejaVuSans-35"/>
      </g>
     </g>
    </g>
    <g id="ytick_3">
     <g id="line2d_10">
      <g>
       <use style="stroke:#000000;stroke-width:0.8;" x="50.14375" xlink:href="#m7fc6c746ab" y="441.73575"/>
      </g>
     </g>
     <g id="text_11">
      <!-- 7.0 -->
      <g transform="translate(27.240625 445.534969)scale(0.1 -0.1)">
       <defs>
        <path d="M 525 4666 
L 3525 4666 
L 3525 4397 
L 1831 0 
L 1172 0 
L 2766 4134 
L 525 4134 
L 525 4666 
z
" id="DejaVuSans-37" transform="scale(0.015625)"/>
       </defs>
       <use xlink:href="#DejaVuSans-37"/>
       <use x="63.623047" xlink:href="#DejaVuSans-2e"/>
       <use x="95.410156" xlink:href="#DejaVuSans-30"/>
      </g>
     </g>
    </g>
    <g id="ytick_4">
     <g id="line2d_11">
      <g>
       <use style="stroke:#000000;stroke-width:0.8;" x="50.14375" xlink:href="#m7fc6c746ab" y="375.871523"/>
      </g>
     </g>
     <g id="text_12">
      <!-- 7.5 -->
      <g transform="translate(27.240625 379.670742)scale(0.1 -0.1)">
       <use xlink:href="#DejaVuSans-37"/>
       <use x="63.623047" xlink:href="#DejaVuSans-2e"/>
       <use x="95.410156" xlink:href="#DejaVuSans-35"/>
      </g>
     </g>
    </g>
    <g id="ytick_5">
     <g id="line2d_12">
      <g>
       <use style="stroke:#000000;stroke-width:0.8;" x="50.14375" xlink:href="#m7fc6c746ab" y="310.007296"/>
      </g>
     </g>
     <g id="text_13">
      <!-- 8.0 -->
      <g transform="translate(27.240625 313.806515)scale(0.1 -0.1)">
       <use xlink:href="#DejaVuSans-38"/>
       <use x="63.623047" xlink:href="#DejaVuSans-2e"/>
       <use x="95.410156" xlink:href="#DejaVuSans-30"/>
      </g>
     </g>
    </g>
    <g id="ytick_6">
     <g id="line2d_13">
      <g>
       <use style="stroke:#000000;stroke-width:0.8;" x="50.14375" xlink:href="#m7fc6c746ab" y="244.143069"/>
      </g>
     </g>
     <g id="text_14">
      <!-- 8.5 -->
      <g transform="translate(27.240625 247.942288)scale(0.1 -0.1)">
       <use xlink:href="#DejaVuSans-38"/>
       <use x="63.623047" xlink:href="#DejaVuSans-2e"/>
       <use x="95.410156" xlink:href="#DejaVuSans-35"/>
      </g>
     </g>
    </g>
    <g id="ytick_7">
     <g id="line2d_14">
      <g>
       <use style="stroke:#000000;stroke-width:0.8;" x="50.14375" xlink:href="#m7fc6c746ab" y="178.278842"/>
      </g>
     </g>
     <g id="text_15">
      <!-- 9.0 -->
      <g transform="translate(27.240625 182.078061)scale(0.1 -0.1)">
       <defs>
        <path d="M 703 97 
L 703 672 
Q 941 559 1184 500 
Q 1428 441 1663 441 
Q 2288 441 2617 861 
Q 2947 1281 2994 2138 
Q 2813 1869 2534 1725 
Q 2256 1581 1919 1581 
Q 1219 1581 811 2004 
Q 403 2428 403 3163 
Q 403 3881 828 4315 
Q 1253 4750 1959 4750 
Q 2769 4750 3195 4129 
Q 3622 3509 3622 2328 
Q 3622 1225 3098 567 
Q 2575 -91 1691 -91 
Q 1453 -91 1209 -44 
Q 966 3 703 97 
z
M 1959 2075 
Q 2384 2075 2632 2365 
Q 2881 2656 2881 3163 
Q 2881 3666 2632 3958 
Q 2384 4250 1959 4250 
Q 1534 4250 1286 3958 
Q 1038 3666 1038 3163 
Q 1038 2656 1286 2365 
Q 1534 2075 1959 2075 
z
" id="DejaVuSans-39" transform="scale(0.015625)"/>
       </defs>
       <use xlink:href="#DejaVuSans-39"/>
       <use x="63.623047" xlink:href="#DejaVuSans-2e"/>
       <use x="95.410156" xlink:href="#DejaVuSans-30"/>
      </g>
     </g>
    </g>
    <g id="ytick_8">
     <g id="line2d_15">
      <g>
       <use style="stroke:#000000;stroke-width:0.8;" x="50.14375" xlink:href="#m7fc6c746ab" y="112.414616"/>
      </g>
     </g>
     <g id="text_16">
      <!-- 9.5 -->
      <g transform="translate(27.240625 116.213834)scale(0.1 -0.1)">
       <use xlink:href="#DejaVuSans-39"/>
       <use x="63.623047" xlink:href="#DejaVuSans-2e"/>
       <use x="95.410156" xlink:href="#DejaVuSans-35"/>
      </g>
     </g>
    </g>
    <g id="ytick_9">
     <g id="line2d_16">
      <g>
       <use style="stroke:#000000;stroke-width:0.8;" x="50.14375" xlink:href="#m7fc6c746ab" y="46.550389"/>
      </g>
     </g>
     <g id="text_17">
      <!-- 10.0 -->
      <g transform="translate(20.878125 50.349607)scale(0.1 -0.1)">
       <use xlink:href="#DejaVuSans-31"/>
       <use x="63.623047" xlink:href="#DejaVuSans-30"/>
       <use x="127.246094" xlink:href="#DejaVuSans-2e"/>
       <use x="159.033203" xlink:href="#DejaVuSans-30"/>
      </g>
     </g>
    </g>
    <g id="text_18">
     <!-- GCaMP -->
     <g transform="translate(14.798438 322.349446)rotate(-90)scale(0.1 -0.1)">
      <defs>
       <path d="M 3809 666 
L 3809 1919 
L 2778 1919 
L 2778 2438 
L 4434 2438 
L 4434 434 
Q 4069 175 3628 42 
Q 3188 -91 2688 -91 
Q 1594 -91 976 548 
Q 359 1188 359 2328 
Q 359 3472 976 4111 
Q 1594 4750 2688 4750 
Q 3144 4750 3555 4637 
Q 3966 4525 4313 4306 
L 4313 3634 
Q 3963 3931 3569 4081 
Q 3175 4231 2741 4231 
Q 1884 4231 1454 3753 
Q 1025 3275 1025 2328 
Q 1025 1384 1454 906 
Q 1884 428 2741 428 
Q 3075 428 3337 486 
Q 3600 544 3809 666 
z
" id="DejaVuSans-47" transform="scale(0.015625)"/>
       <path d="M 4122 4306 
L 4122 3641 
Q 3803 3938 3442 4084 
Q 3081 4231 2675 4231 
Q 1875 4231 1450 3742 
Q 1025 3253 1025 2328 
Q 1025 1406 1450 917 
Q 1875 428 2675 428 
Q 3081 428 3442 575 
Q 3803 722 4122 1019 
L 4122 359 
Q 3791 134 3420 21 
Q 3050 -91 2638 -91 
Q 1578 -91 968 557 
Q 359 1206 359 2328 
Q 359 3453 968 4101 
Q 1578 4750 2638 4750 
Q 3056 4750 3426 4639 
Q 3797 4528 4122 4306 
z
" id="DejaVuSans-43" transform="scale(0.015625)"/>
       <path d="M 628 4666 
L 1569 4666 
L 2759 1491 
L 3956 4666 
L 4897 4666 
L 4897 0 
L 4281 0 
L 4281 4097 
L 3078 897 
L 2444 897 
L 1241 4097 
L 1241 0 
L 628 0 
L 628 4666 
z
" id="DejaVuSans-4d" transform="scale(0.015625)"/>
       <path d="M 1259 4147 
L 1259 2394 
L 2053 2394 
Q 2494 2394 2734 2622 
Q 2975 2850 2975 3272 
Q 2975 3691 2734 3919 
Q 2494 4147 2053 4147 
L 1259 4147 
z
M 628 4666 
L 2053 4666 
Q 2838 4666 3239 4311 
Q 3641 3956 3641 3272 
Q 3641 2581 3239 2228 
Q 2838 1875 2053 1875 
L 1259 1875 
L 1259 0 
L 628 0 
L 628 4666 
z
" id="DejaVuSans-50" transform="scale(0.015625)"/>
      </defs>
      <use xlink:href="#DejaVuSans-47"/>
      <use x="77.490234" xlink:href="#DejaVuSans-43"/>
      <use x="147.314453" xlink:href="#DejaVuSans-61"/>
      <use x="208.59375" xlink:href="#DejaVuSans-4d"/>
      <use x="294.873047" xlink:href="#DejaVuSans-50"/>
     </g>
    </g>
   </g>
   <g id="line2d_17">
    <path clip-path="url(#p8f90ab367e)" d="M 126.234659 520.469436 
L 127.472916 494.051387 
L 128.711174 471.080236 
L 129.949431 451.959857 
L 131.187688 435.314382 
L 132.425945 420.790368 
L 134.90246 395.665664 
L 136.140717 380.812959 
L 137.378974 363.529921 
L 138.617232 344.578094 
L 139.855489 323.541064 
L 141.093746 299.178075 
L 146.046775 189.757734 
L 147.285033 172.620493 
L 148.52329 162.273714 
L 149.761547 156.96366 
L 150.999804 153.914381 
L 152.238062 150.134103 
L 153.476319 143.661363 
L 155.952834 125.360843 
L 158.429348 106.29761 
L 159.667605 96.256174 
L 160.905863 87.317973 
L 162.14412 80.527417 
L 163.382377 75.967541 
L 164.620634 73.267893 
L 165.858892 71.15898 
L 167.097149 67.991314 
L 170.811921 54.459305 
L 172.050178 50.863611 
L 173.288435 48.260086 
L 174.526693 47.979282 
L 175.76495 50.202958 
L 178.241464 57.058786 
L 179.479722 60.879792 
L 180.717979 65.292999 
L 181.956236 69.006811 
L 183.194493 69.789069 
L 184.432751 66.970033 
L 185.671008 62.866393 
L 186.909265 61.62274 
L 188.147522 65.620961 
L 189.38578 72.780119 
L 190.624037 78.061415 
L 191.862294 77.369143 
L 193.100552 70.764284 
L 194.338809 62.602907 
L 195.577066 57.869325 
L 196.815323 59.221231 
L 198.053581 66.973102 
L 200.530095 90.351029 
L 201.768352 98.81794 
L 203.00661 103.747565 
L 204.244867 105.471586 
L 205.483124 104.580758 
L 206.721381 101.426079 
L 207.959639 95.268827 
L 210.436153 76.781354 
L 211.674411 71.874184 
L 212.912668 73.293125 
L 214.150925 79.876401 
L 216.62744 100.387139 
L 217.865697 107.544217 
L 219.103954 106.176466 
L 220.342211 95.200902 
L 221.580469 79.491541 
L 222.818726 66.951376 
L 224.056983 62.999179 
L 225.29524 67.356754 
L 226.533498 75.49277 
L 227.771755 82.68126 
L 229.010012 86.72361 
L 230.24827 88.028636 
L 231.486527 88.585273 
L 232.724784 90.334434 
L 233.963041 94.358541 
L 235.201299 101.295339 
L 237.677813 120.485825 
L 238.91607 127.870344 
L 240.154328 130.829818 
L 241.392585 129.422246 
L 242.630842 126.05986 
L 243.8691 123.755978 
L 245.107357 124.369618 
L 246.345614 127.963313 
L 247.583871 132.348468 
L 248.822129 134.649028 
L 250.060386 135.186249 
L 251.298643 137.905724 
L 252.5369 145.717495 
L 255.013415 169.714644 
L 256.251672 179.634244 
L 257.489929 185.34661 
L 258.728187 185.673614 
L 259.966444 180.136733 
L 261.204701 169.408565 
L 262.442959 156.236118 
L 263.681216 145.545472 
L 264.919473 142.244348 
L 266.15773 148.601525 
L 267.395988 163.533993 
L 269.872502 203.42793 
L 271.110759 219.829305 
L 272.349017 230.122028 
L 273.587274 233.532287 
L 274.825531 230.548137 
L 276.063788 222.882588 
L 277.302046 213.926308 
L 278.540303 207.551789 
L 279.77856 206.322736 
L 281.016818 210.704017 
L 282.255075 218.344061 
L 283.493332 224.930813 
L 284.731589 227.632928 
L 285.969847 227.054694 
L 287.208104 225.303804 
L 288.446361 223.777825 
L 289.684618 223.054003 
L 290.922876 223.259603 
L 292.161133 224.433644 
L 293.39939 226.695173 
L 294.637647 229.78587 
L 295.875905 233.903816 
L 297.114162 241.198695 
L 298.352419 253.759275 
L 299.590677 269.508066 
L 300.828934 282.682373 
L 302.067191 288.926782 
L 303.305448 288.408039 
L 304.543706 285.162399 
L 305.781963 284.899365 
L 307.02022 291.708088 
L 308.258477 305.365732 
L 310.734992 337.894406 
L 311.973249 349.93044 
L 313.211506 356.298288 
L 314.449764 355.97677 
L 315.688021 349.178133 
L 316.926278 337.249189 
L 319.402793 308.341706 
L 320.64105 295.752407 
L 321.879307 286.627527 
L 323.117565 283.047564 
L 324.355822 285.710342 
L 326.832336 298.169628 
L 328.070594 301.689073 
L 329.308851 303.569512 
L 330.547108 304.738376 
L 331.785366 304.531777 
L 333.023623 302.273168 
L 334.26188 298.826698 
L 335.500137 295.877507 
L 336.738395 294.646756 
L 337.976652 295.493422 
L 339.214909 298.323962 
L 340.453166 303.158983 
L 342.929681 315.762086 
L 344.167938 320.445018 
L 346.644453 326.964949 
L 347.88271 329.961041 
L 350.359225 334.593109 
L 351.597482 337.529392 
L 352.835739 340.849098 
L 354.073996 343.791366 
L 355.312254 345.676735 
L 356.550511 345.444885 
L 357.788768 342.472289 
L 359.027025 337.819489 
L 360.265283 333.797879 
L 361.50354 332.635265 
L 362.741797 335.907093 
L 363.980054 344.284906 
L 366.456569 367.193303 
L 367.694826 372.206792 
L 368.933084 370.165645 
L 372.647855 352.483841 
L 373.886113 349.465796 
L 375.12437 349.214732 
L 376.362627 352.277833 
L 377.600884 357.959992 
L 380.077399 371.162335 
L 382.553913 386.761202 
L 383.792171 391.963646 
L 385.030428 393.314682 
L 386.268685 392.252955 
L 387.506943 391.799265 
L 388.7452 394.52277 
L 389.983457 401.463918 
L 392.459972 422.830708 
L 393.698229 431.225452 
L 394.936486 435.01655 
L 396.174743 434.045226 
L 397.413001 429.82912 
L 398.651258 424.785307 
L 399.889515 420.681357 
L 401.127772 418.060583 
L 403.604287 414.946397 
L 404.842544 413.630579 
L 406.080802 413.112635 
L 407.319059 413.33701 
L 411.033831 414.704274 
L 412.272088 415.663199 
L 413.510345 417.498807 
L 414.748602 420.294453 
L 415.98686 424.21721 
L 417.225117 429.224081 
L 422.178146 451.806167 
L 423.416403 458.119613 
L 424.654661 463.095161 
L 425.892918 464.050242 
L 427.131175 460.922958 
L 428.369432 456.726507 
L 429.60769 454.354731 
L 430.845947 453.985386 
L 432.084204 453.45982 
L 433.322461 450.863054 
L 435.798976 442.154195 
L 437.037233 438.964215 
L 438.275491 437.253266 
L 439.513748 437.195151 
L 440.752005 439.132297 
L 443.22852 445.764653 
L 444.466777 447.303496 
L 445.705034 447.143742 
L 446.943291 445.700323 
L 450.658063 439.155306 
L 455.611092 431.572238 
L 456.84935 429.40314 
L 458.087607 426.857538 
L 459.325864 424.607325 
L 460.564121 423.281554 
L 461.802379 422.330191 
L 463.040636 420.519982 
L 464.278893 417.042564 
L 465.51715 411.57951 
L 466.755408 404.169809 
L 467.993665 396.055137 
L 469.231922 389.80512 
L 470.470179 387.026658 
L 471.708437 386.633166 
L 472.946694 386.563801 
L 474.184951 385.942469 
L 475.423209 384.819408 
L 476.661466 383.491136 
L 477.899723 382.826036 
L 479.13798 384.330887 
L 480.376238 388.947657 
L 482.852752 401.839256 
L 484.091009 404.633113 
L 485.329267 401.654269 
L 486.567524 392.478894 
L 487.805781 380.32509 
L 489.044038 371.044271 
L 490.282296 370.002228 
L 491.520553 379.663636 
L 492.75881 398.151555 
L 493.997068 419.553817 
L 495.235325 437.251172 
L 496.473582 447.584926 
L 497.711839 450.347083 
L 498.950097 446.624458 
L 500.188354 437.773359 
L 501.426611 426.792745 
L 502.664868 418.284402 
L 503.903126 415.539875 
L 505.141383 418.541049 
L 506.37964 424.421068 
L 507.617897 429.045497 
L 508.856155 429.396043 
L 510.094412 425.038163 
L 511.332669 417.094239 
L 513.809184 397.559994 
L 515.047441 391.509703 
L 516.285698 391.322327 
L 517.523956 396.733002 
L 520.00047 414.269639 
L 521.238727 422.999015 
L 522.476985 430.520292 
L 527.430014 455.119862 
L 528.668271 459.793131 
L 529.906528 462.940357 
L 531.144786 464.304317 
L 532.383043 463.7934 
L 533.6213 462.510506 
L 534.859557 461.944668 
L 536.097815 462.073618 
L 537.336072 461.148207 
L 538.574329 457.605069 
L 539.812586 451.674167 
L 541.050844 445.133592 
L 542.289101 439.88681 
L 543.527358 436.750236 
L 544.765616 435.342775 
L 546.003873 434.617767 
L 547.24213 433.566397 
L 548.480387 431.813323 
L 550.956902 427.292976 
L 552.195159 426.633515 
L 553.433416 428.386915 
L 554.671674 432.656353 
L 555.909931 439.672535 
L 557.148188 449.356984 
L 559.624703 470.617098 
L 560.86296 478.591916 
L 562.101217 483.77607 
L 563.339475 485.862356 
L 564.577732 484.469294 
L 565.815989 480.186787 
L 567.054246 474.147626 
L 568.292504 466.357484 
L 569.530761 457.07429 
L 570.769018 449.052872 
L 572.007275 445.310617 
L 573.245533 445.991927 
L 574.48379 449.621927 
L 575.722047 455.201733 
L 576.960304 461.626468 
L 578.198562 466.97252 
L 579.436819 469.420507 
L 580.675076 468.865273 
L 581.913334 467.341617 
L 583.151591 467.112764 
L 584.389848 468.200438 
L 585.628105 468.494819 
L 586.866363 466.514284 
L 588.10462 462.840655 
L 590.581134 454.739728 
L 591.819392 451.283921 
L 593.057649 448.493779 
L 594.295906 446.770541 
L 595.534163 446.699181 
L 596.772421 448.352556 
L 599.248935 453.668357 
L 600.487193 455.547669 
L 601.72545 455.93584 
L 602.963707 454.034359 
L 604.201964 449.746628 
L 605.440222 444.353734 
L 606.678479 440.336917 
L 607.916736 440.079237 
L 609.154993 444.133648 
L 610.393251 450.640578 
L 611.631508 456.205913 
L 612.869765 457.54791 
L 614.108023 452.781678 
L 615.34628 442.287771 
L 616.584537 429.226719 
L 617.822794 418.015913 
L 619.061052 411.704675 
L 620.299309 411.074577 
L 621.537566 414.926335 
L 622.775823 420.613468 
L 624.014081 425.397053 
L 625.252338 427.273404 
L 626.490595 424.631708 
L 627.728852 416.986481 
L 630.205367 395.919279 
L 631.443624 390.01283 
L 632.681882 390.465509 
L 633.920139 396.038392 
L 635.158396 403.673595 
L 636.396653 410.348605 
L 637.634911 413.501972 
L 638.873168 411.762226 
L 640.111425 405.678496 
L 641.349682 397.58576 
L 642.58794 390.487501 
L 643.826197 386.253373 
L 645.064454 385.827899 
L 646.302711 390.400389 
L 648.779226 408.537797 
L 650.017483 413.266868 
L 651.255741 412.366168 
L 652.493998 407.789129 
L 653.732255 402.433891 
L 654.970512 398.677766 
L 656.20877 397.796085 
L 657.447027 399.714618 
L 658.685284 402.933428 
L 659.923541 405.701029 
L 662.400056 409.79377 
L 663.638313 413.08435 
L 664.87657 417.871227 
L 666.114828 423.671504 
L 667.353085 428.78338 
L 668.591342 430.81365 
L 669.8296 429.472057 
L 671.067857 427.736987 
L 672.306114 428.926673 
L 673.544371 433.667555 
L 674.782629 439.9801 
L 676.020886 445.083547 
L 677.259143 446.589769 
L 678.4974 443.224062 
L 679.735658 435.777337 
L 680.973915 427.266926 
L 682.212172 421.080339 
L 683.450429 418.331957 
L 684.688687 417.432281 
L 685.926944 416.021828 
L 687.165201 412.85766 
L 688.403459 408.276106 
L 689.641716 403.243442 
L 690.879973 398.751569 
L 692.11823 396.350555 
L 693.356488 397.701904 
L 694.594745 403.194167 
L 697.071259 419.36702 
L 698.309517 424.169622 
L 699.547774 424.571126 
L 700.786031 420.956442 
L 702.024289 414.370931 
L 703.262546 406.560702 
L 704.500803 399.965354 
L 705.73906 396.403414 
L 706.977318 395.708887 
L 708.215575 395.839264 
L 709.453832 394.320892 
L 710.692089 390.069911 
L 711.930347 384.319379 
L 713.168604 379.824335 
L 714.406861 379.174029 
L 715.645118 383.81884 
L 716.883376 393.503524 
L 718.121633 405.225895 
L 719.35989 414.279726 
L 720.598148 418.115386 
L 721.836405 417.815335 
L 723.074662 415.698729 
L 724.312919 413.005155 
L 725.551177 409.491638 
L 726.789434 404.855172 
L 728.027691 399.56299 
L 729.265948 393.23012 
L 731.742463 376.040481 
L 732.98072 370.151371 
L 734.218977 368.636282 
L 735.457235 369.440629 
L 736.695492 369.252662 
L 737.933749 366.618817 
L 739.172007 363.01435 
L 740.410264 361.263735 
L 741.648521 363.906346 
L 742.886778 372.03301 
L 744.125036 383.380523 
L 745.363293 392.873689 
L 746.60155 397.445927 
L 747.839807 398.879634 
L 749.078065 400.75738 
L 750.316322 404.502452 
L 751.554579 409.095026 
L 752.792836 413.144832 
L 754.031094 416.320812 
L 755.269351 418.899135 
L 756.507608 420.576935 
L 757.745866 420.429443 
L 758.984123 417.676796 
L 760.22238 412.264798 
L 761.460637 405.3159 
L 762.698895 399.063657 
L 763.937152 395.41595 
L 765.175409 394.055071 
L 767.651924 392.132746 
L 768.890181 392.799883 
L 770.128438 396.446706 
L 771.366695 402.00372 
L 772.604953 406.766358 
L 773.84321 408.710913 
L 775.081467 407.951659 
L 776.319725 406.635652 
L 777.557982 406.638344 
L 778.796239 407.069999 
L 780.034496 405.659306 
L 781.272754 401.483255 
L 782.511011 395.059379 
L 784.987525 380.460444 
L 786.225783 376.088208 
L 787.46404 376.529042 
L 788.702297 382.916792 
L 789.940554 394.894555 
L 793.655326 440.991582 
L 794.893584 450.257307 
L 796.131841 454.114351 
L 797.370098 453.456535 
L 798.608355 449.701373 
L 799.846613 443.66529 
L 802.323127 427.12368 
L 803.561384 421.445125 
L 804.799642 420.932667 
L 806.037899 423.605504 
L 807.276156 425.247053 
L 808.514414 423.369704 
L 810.990928 413.851285 
L 812.229185 412.330916 
L 813.467443 415.054183 
L 814.7057 421.026933 
L 818.420472 444.063054 
L 819.658729 448.530074 
L 820.896986 452.189402 
L 822.135243 457.246739 
L 823.373501 462.864997 
L 824.611758 465.047158 
L 825.850015 461.221484 
L 828.32653 446.291392 
L 829.564787 441.960953 
L 832.041302 437.143008 
L 833.279559 433.852261 
L 834.517816 429.728007 
L 835.756073 424.716996 
L 836.994331 418.725553 
L 838.232588 413.467558 
L 839.470845 412.178713 
L 840.709102 416.553518 
L 841.94736 425.669428 
L 845.662132 461.869986 
L 846.900389 471.435485 
L 848.138646 477.001703 
L 849.376903 476.836762 
L 850.615161 471.111097 
L 851.853418 461.439381 
L 853.091675 450.646614 
L 854.329932 442.840626 
L 855.56819 440.822589 
L 856.806447 443.944017 
L 859.282961 454.901634 
L 860.521219 459.346374 
L 861.759476 463.118562 
L 862.997733 466.230191 
L 864.235991 467.694139 
L 865.474248 466.196974 
L 866.712505 461.376896 
L 869.18902 448.293802 
L 872.903791 431.401049 
L 874.142049 426.987543 
L 875.380306 423.614855 
L 876.618563 419.823739 
L 880.333335 405.254974 
L 881.571592 401.828233 
L 882.80985 400.964289 
L 884.048107 403.404111 
L 885.286364 408.688495 
L 886.524621 414.866222 
L 887.762879 419.604878 
L 889.001136 422.169575 
L 890.239393 423.069417 
L 891.47765 422.832534 
L 892.715908 423.162148 
L 893.954165 426.371775 
L 896.43068 438.38814 
L 897.668937 442.960115 
L 898.907194 446.1197 
L 900.145451 448.332322 
L 901.383709 449.258037 
L 902.621966 449.174433 
L 903.860223 449.74356 
L 905.09848 451.994091 
L 906.336738 454.654363 
L 907.574995 455.271944 
L 908.813252 452.899426 
L 910.051509 449.191369 
L 911.289767 446.487414 
L 912.528024 445.643547 
L 913.766281 446.040079 
L 916.242796 447.453937 
L 918.71931 448.343796 
L 921.195825 449.901733 
L 922.434082 449.483607 
L 923.672339 447.079316 
L 924.910597 443.987193 
L 926.148854 442.92742 
L 927.387111 445.751048 
L 928.625368 451.849428 
L 929.863626 458.68878 
L 931.101883 463.492134 
L 932.34014 465.201925 
L 933.578398 464.90868 
L 934.816655 463.645432 
L 936.054912 460.837788 
L 937.293169 455.874821 
L 938.531427 449.958635 
L 941.007941 439.606169 
L 942.246198 432.684368 
L 943.484456 423.870723 
L 944.722713 415.885509 
L 945.96097 411.84888 
L 947.199227 412.445951 
L 948.437485 415.951358 
L 949.675742 420.754906 
L 950.913999 426.577797 
L 952.152257 433.16808 
L 953.390514 439.042427 
L 954.628771 441.927184 
L 955.867028 440.549024 
L 957.105286 435.68189 
L 958.343543 428.939329 
L 960.820057 413.117411 
L 962.058315 404.725014 
L 963.296572 397.294383 
L 964.534829 393.064509 
L 965.773086 393.371886 
L 967.011344 396.316151 
L 968.249601 398.13717 
L 969.487858 396.79206 
L 970.726116 393.401497 
L 971.964373 390.480736 
L 973.20263 389.779257 
L 974.440887 392.212773 
L 975.679145 397.672987 
L 976.917402 404.461542 
L 978.155659 410.60704 
L 979.393916 415.277782 
L 980.632174 418.798352 
L 981.870431 421.27702 
L 983.108688 421.532727 
L 985.585203 417.25384 
L 986.82346 417.127829 
L 988.061717 417.871242 
L 989.299975 416.903926 
L 990.538232 412.622175 
L 991.776489 404.890604 
L 993.014746 394.574078 
L 995.491261 372.19544 
L 996.729518 363.452645 
L 997.967775 358.087822 
L 999.206033 356.117531 
L 1000.44429 356.926951 
L 1001.682547 359.78423 
L 1004.159062 367.675651 
L 1005.397319 372.066344 
L 1006.635576 377.850273 
L 1007.873834 385.707972 
L 1009.112091 394.302091 
L 1010.350348 400.715291 
L 1011.588605 402.30309 
L 1012.826863 398.135222 
L 1014.06512 389.61342 
L 1016.541634 369.603816 
L 1017.779892 361.99608 
L 1019.018149 357.167865 
L 1020.256406 355.217533 
L 1021.494664 355.735922 
L 1022.732921 357.453173 
L 1023.971178 358.279711 
L 1025.209435 355.566539 
L 1026.447693 348.078054 
L 1027.68595 338.497277 
L 1028.924207 331.62709 
L 1030.162464 329.662508 
L 1031.400722 331.084579 
L 1032.638979 333.49788 
L 1033.877236 335.461759 
L 1035.115493 336.356179 
L 1036.353751 335.964676 
L 1037.592008 334.067196 
L 1040.068523 327.842107 
L 1041.30678 327.572996 
L 1042.545037 331.018299 
L 1045.021552 342.184201 
L 1046.259809 346.640141 
L 1047.498066 350.253516 
L 1048.736323 352.537598 
L 1049.974581 351.973286 
L 1051.212838 347.145448 
L 1053.689352 329.727869 
L 1054.92761 324.204361 
L 1056.165867 323.926144 
L 1057.404124 328.454765 
L 1058.642382 335.268546 
L 1059.880639 341.137364 
L 1061.118896 343.662979 
L 1062.357153 342.165434 
L 1063.595411 339.112311 
L 1064.833668 338.928791 
L 1066.071925 343.317201 
L 1067.310182 349.194406 
L 1068.54844 351.468198 
L 1069.786697 346.885774 
L 1071.024954 335.940264 
L 1073.501469 308.6973 
L 1074.739726 298.739339 
L 1075.977983 294.238729 
L 1077.216241 295.339599 
L 1078.454498 299.768346 
L 1080.931012 311.46177 
L 1082.16927 317.382797 
L 1083.407527 322.545906 
L 1084.645784 326.691413 
L 1085.884041 329.321245 
L 1087.122299 329.560404 
L 1088.360556 327.35857 
L 1089.598813 324.233083 
L 1090.837071 322.084266 
L 1092.075328 321.149007 
L 1093.313585 320.428486 
L 1094.551842 319.994007 
L 1095.7901 320.801612 
L 1097.028357 322.556764 
L 1098.266614 323.176475 
L 1099.504871 320.184272 
L 1100.743129 312.394942 
L 1103.219643 289.49184 
L 1104.4579 281.408923 
L 1106.934415 273.183492 
L 1108.172672 266.614243 
L 1109.41093 258.781639 
L 1111.887444 245.806657 
L 1114.363959 233.097863 
L 1115.602216 228.635256 
L 1116.840473 226.137917 
L 1118.07873 225.807665 
L 1119.316988 228.606271 
L 1120.555245 235.633482 
L 1121.793502 247.094227 
L 1123.031759 260.199138 
L 1124.270017 268.997002 
L 1125.508274 269.974664 
L 1126.746531 265.451305 
L 1127.984789 259.454965 
L 1129.223046 254.167394 
L 1130.461303 250.635845 
L 1131.69956 249.917233 
L 1132.937818 252.927926 
L 1134.176075 259.405404 
L 1135.414332 267.494497 
L 1136.652589 274.448379 
L 1137.890847 277.498782 
L 1139.129104 275.100344 
L 1140.367361 267.881521 
L 1141.605618 257.773632 
L 1144.082133 235.556476 
L 1145.32039 228.531606 
L 1146.558648 228.210197 
L 1147.796905 234.379489 
L 1149.035162 245.27294 
L 1150.273419 259.567742 
L 1152.749934 290.490854 
L 1153.988191 301.20548 
L 1155.226448 306.297863 
L 1156.464706 307.112761 
L 1157.702963 306.284044 
L 1158.94122 304.89798 
L 1160.179477 300.856343 
L 1161.417735 291.117123 
L 1162.655992 275.9134 
L 1165.132507 242.162592 
L 1166.370764 228.812326 
L 1167.609021 221.450898 
L 1168.847278 222.41462 
L 1170.085536 231.139578 
L 1171.323793 243.841663 
L 1172.56205 255.070225 
L 1173.800307 260.209383 
L 1175.038565 257.713494 
L 1177.515079 241.34179 
L 1178.753337 237.022065 
L 1179.991594 238.919135 
L 1181.229851 246.620735 
L 1183.706366 269.903101 
L 1184.944623 277.100263 
L 1186.18288 277.698027 
L 1187.421137 273.767934 
L 1188.659395 269.120058 
L 1189.897652 265.963603 
L 1191.135909 263.833626 
L 1192.374166 260.881238 
L 1193.612424 256.169634 
L 1196.088938 245.470234 
L 1197.327196 240.87783 
L 1198.565453 236.849805 
L 1199.80371 233.933632 
L 1201.041967 232.118794 
L 1202.280225 230.836907 
L 1203.518482 230.010455 
L 1204.756739 230.177435 
L 1207.233254 232.798786 
L 1208.471511 231.994745 
L 1209.709768 229.371737 
L 1210.948025 228.126676 
L 1212.186283 230.675711 
L 1213.42454 235.821207 
L 1214.662797 241.596584 
L 1215.901055 248.704858 
L 1218.377569 268.420574 
L 1219.615826 275.044755 
L 1220.854084 276.008091 
L 1222.092341 271.515181 
L 1223.330598 263.318685 
L 1224.568855 253.863662 
L 1225.807113 245.493087 
L 1227.04537 240.007251 
L 1228.283627 238.185818 
L 1229.521884 239.729272 
L 1231.998399 247.546651 
L 1233.236656 249.826056 
L 1234.474914 248.924354 
L 1235.713171 244.119924 
L 1236.951428 235.697241 
L 1238.189685 225.683444 
L 1239.427943 217.759461 
L 1240.6662 215.532601 
L 1241.904457 219.821561 
L 1245.619229 244.600575 
L 1246.857486 249.492326 
L 1248.095743 249.401724 
L 1249.334001 242.771199 
L 1250.572258 230.741125 
L 1251.810515 217.522734 
L 1253.048773 208.574075 
L 1254.28703 208.083859 
L 1255.525287 217.030798 
L 1258.001802 247.184874 
L 1259.240059 255.760706 
L 1260.478316 255.067733 
L 1261.716573 246.177322 
L 1262.954831 232.020453 
L 1265.431345 200.637735 
L 1266.669603 188.982126 
L 1267.90786 183.266182 
L 1269.146117 184.737534 
L 1270.384374 192.690667 
L 1271.622632 205.346403 
L 1272.860889 219.478319 
L 1274.099146 229.922724 
L 1275.337403 232.36323 
L 1276.575661 226.019227 
L 1277.813918 212.794829 
L 1280.290432 177.63376 
L 1281.52869 163.362792 
L 1282.766947 157.011961 
L 1284.005204 160.829636 
L 1285.243462 172.063681 
L 1286.481719 184.406993 
L 1287.719976 194.076814 
L 1288.958233 202.423674 
L 1291.434748 221.686427 
L 1292.673005 228.671529 
L 1293.911262 229.958802 
L 1295.14952 224.884204 
L 1296.387777 215.310304 
L 1297.626034 203.505778 
L 1301.340806 164.263868 
L 1302.579063 156.94226 
L 1303.817321 156.00251 
L 1305.055578 161.289466 
L 1306.293835 171.048025 
L 1308.77035 193.837997 
L 1310.008607 201.562286 
L 1311.246864 203.517444 
L 1312.485121 199.252846 
L 1313.723379 190.688802 
L 1314.961636 180.916327 
L 1316.199893 173.499346 
L 1317.43815 171.527229 
L 1318.676408 175.83566 
L 1319.914665 185.178639 
L 1322.39118 211.013519 
L 1323.629437 221.102106 
L 1324.867694 224.57004 
L 1326.105951 220.655798 
L 1327.344209 211.303474 
L 1331.05898 176.79458 
L 1332.297238 167.956105 
L 1333.535495 161.181464 
L 1334.773752 156.334635 
L 1336.012009 152.845487 
L 1337.250267 150.41379 
L 1338.488524 149.510869 
L 1339.726781 150.112746 
L 1342.203296 151.848714 
L 1343.441553 155.934273 
L 1344.67981 165.961313 
L 1347.156325 194.353627 
L 1348.394582 204.24321 
L 1349.632839 208.054261 
L 1350.871097 205.332419 
L 1352.109354 197.687489 
L 1353.347611 188.859583 
L 1354.585868 183.057468 
L 1355.824126 182.782613 
L 1357.062383 188.007206 
L 1358.30064 197.466912 
L 1359.538898 209.986196 
L 1360.777155 224.000915 
L 1362.015412 236.59297 
L 1363.253669 244.217629 
L 1364.491927 244.727062 
L 1365.730184 238.208611 
L 1366.968441 226.641301 
L 1368.206698 213.772675 
L 1369.444956 204.203196 
L 1370.683213 201.066705 
L 1371.92147 204.72788 
L 1373.159728 213.404078 
L 1374.397985 223.757467 
L 1375.636242 232.118529 
L 1376.874499 236.586263 
L 1378.112757 236.851292 
L 1379.351014 232.692875 
L 1380.589271 224.79024 
L 1381.827528 215.75484 
L 1383.065786 208.558083 
L 1384.304043 205.422092 
L 1385.5423 207.667995 
L 1386.780557 213.755092 
L 1388.018815 219.124655 
L 1389.257072 220.328324 
L 1390.495329 217.788784 
L 1392.971844 209.804851 
L 1394.210101 205.030733 
L 1395.448358 199.520838 
L 1396.686616 194.728306 
L 1399.16313 187.837049 
L 1401.639645 177.943131 
L 1402.877902 175.697045 
L 1404.116159 176.44623 
L 1406.592674 181.847457 
L 1407.830931 180.350841 
L 1409.069188 172.416328 
L 1410.307446 161.75813 
L 1411.545703 155.985952 
L 1412.78396 159.274707 
L 1415.260475 178.032416 
L 1416.498732 183.392258 
L 1417.736989 185.849279 
L 1418.975246 188.772937 
L 1420.213504 194.2164 
L 1422.690018 209.318998 
L 1423.928275 213.287887 
L 1425.166533 211.387346 
L 1427.643047 199.589783 
L 1428.881305 195.453687 
L 1430.119562 193.244448 
L 1431.357819 193.691038 
L 1433.834334 198.950076 
L 1435.072591 200.234495 
L 1436.310848 199.292658 
L 1437.549105 194.655522 
L 1438.787363 186.234918 
L 1440.02562 176.249113 
L 1441.263877 167.62158 
L 1442.502134 162.581385 
L 1443.740392 162.061519 
L 1444.978649 166.002752 
L 1446.216906 174.119855 
L 1448.693421 196.331331 
L 1449.931678 203.18398 
L 1451.169935 203.854008 
L 1452.408193 199.397035 
L 1453.64645 192.830257 
L 1454.884707 187.042336 
L 1456.122964 183.36429 
L 1457.361222 181.179655 
L 1458.599479 178.321883 
L 1459.837736 172.905305 
L 1461.075994 164.908516 
L 1462.314251 155.196241 
L 1463.552508 143.697877 
L 1464.790765 130.806661 
L 1466.029023 120.35086 
L 1467.26728 117.302592 
L 1468.505537 122.701574 
L 1469.743794 134.004723 
L 1470.982052 147.749592 
L 1472.220309 160.002346 
L 1473.458566 168.291297 
L 1475.935081 178.776693 
L 1477.173338 183.762642 
L 1478.411595 187.71871 
L 1479.649853 190.876579 
L 1480.88811 195.027463 
L 1482.126367 201.260431 
L 1483.364624 208.170414 
L 1484.602882 212.239436 
L 1485.841139 210.41367 
L 1487.079396 203.272373 
L 1489.555911 185.830747 
L 1490.794168 177.511492 
L 1494.50894 149.973445 
L 1495.747197 147.752956 
L 1496.985454 151.277771 
L 1498.223712 157.403597 
L 1499.461969 162.230005 
L 1500.700226 163.706082 
L 1501.938483 162.923686 
L 1503.176741 163.431731 
L 1504.414998 167.966731 
L 1506.891512 182.476302 
L 1508.12977 187.689194 
L 1509.368027 191.248276 
L 1510.606284 192.779983 
L 1511.844541 192.54319 
L 1513.082799 192.982195 
L 1514.321056 195.858321 
L 1515.559313 199.413504 
L 1516.797571 201.052092 
L 1518.035828 201.769788 
L 1519.274085 205.037088 
L 1520.512342 211.469559 
L 1521.7506 217.024933 
L 1522.988857 217.270284 
L 1524.227114 212.371015 
L 1525.465371 206.269361 
L 1526.703629 202.231174 
L 1527.941886 201.546847 
L 1529.180143 204.349959 
L 1530.4184 209.574151 
L 1531.656658 215.719696 
L 1532.894915 222.792252 
L 1534.133172 232.939101 
L 1535.37143 247.750829 
L 1537.847944 281.263061 
L 1539.086201 291.973821 
L 1540.324459 295.839633 
L 1541.562716 294.58838 
L 1542.800973 292.603565 
L 1544.03923 293.519916 
L 1545.277488 297.244823 
L 1546.515745 300.60532 
L 1547.754002 301.450457 
L 1548.99226 301.271046 
L 1550.230517 302.516978 
L 1551.468774 305.363492 
L 1552.707031 308.554539 
L 1553.945289 311.206879 
L 1556.421803 314.790297 
L 1557.66006 317.773882 
L 1558.898318 323.607479 
L 1560.136575 332.757257 
L 1562.613089 356.210857 
L 1563.851347 369.078616 
L 1566.327861 397.416975 
L 1567.566119 409.43017 
L 1568.804376 417.57841 
L 1570.042633 422.215572 
L 1571.28089 424.471095 
L 1572.519148 425.110802 
L 1573.757405 424.684518 
L 1574.995662 423.940057 
L 1576.233919 424.44282 
L 1577.472177 427.994803 
L 1578.710434 434.787024 
L 1581.186948 451.155478 
L 1582.425206 457.630188 
L 1583.663463 463.133947 
L 1584.90172 469.148067 
L 1587.378235 483.639653 
L 1588.616492 488.320722 
L 1589.854749 488.022852 
L 1591.093007 482.955199 
L 1592.331264 474.921277 
L 1594.807778 455.495228 
L 1596.046036 449.975767 
L 1597.284293 451.418727 
L 1598.52255 458.274517 
L 1600.999065 475.742009 
L 1602.237322 486.539843 
L 1604.713837 512.26818 
L 1605.952094 518.718204 
L 1607.190351 518.251424 
L 1608.428608 513.911859 
L 1609.666866 509.022336 
L 1610.905123 505.024881 
L 1612.14338 501.794676 
L 1613.381637 499.061833 
L 1614.619895 497.601926 
L 1615.858152 498.741512 
L 1617.096409 502.698377 
L 1618.334666 507.860249 
L 1619.572924 511.832998 
L 1620.811181 512.964238 
L 1622.049438 511.167723 
L 1623.287696 507.517584 
L 1624.525953 503.257461 
L 1625.76421 499.662708 
L 1627.002467 498.296019 
L 1628.240725 500.80801 
L 1629.478982 507.600568 
L 1631.955496 525.291962 
L 1634.432011 541.338322 
L 1635.670268 548.638729 
L 1636.908526 554.785631 
L 1638.146783 559.509582 
L 1639.38504 561.202423 
L 1640.623297 557.494242 
L 1641.861555 547.293801 
L 1644.338069 516.484785 
L 1645.576326 504.381633 
L 1646.814584 497.646601 
L 1648.052841 494.758676 
L 1648.052841 494.758676 
" style="fill:none;stroke:#008000;stroke-linecap:square;stroke-width:1.5;"/>
   </g>
   <g id="patch_3">
    <path d="M 50.14375 586.86358 
L 50.14375 22.318125 
" style="fill:none;stroke:#000000;stroke-linecap:square;stroke-linejoin:miter;stroke-width:0.8;"/>
   </g>
   <g id="patch_4">
    <path d="M 1724.14375 586.86358 
L 1724.14375 22.318125 
" style="fill:none;stroke:#000000;stroke-linecap:square;stroke-linejoin:miter;stroke-width:0.8;"/>
   </g>
   <g id="patch_5">
    <path d="M 50.14375 586.86358 
L 1724.14375 586.86358 
" style="fill:none;stroke:#000000;stroke-linecap:square;stroke-linejoin:miter;stroke-width:0.8;"/>
   </g>
   <g id="patch_6">
    <path d="M 50.14375 22.318125 
L 1724.14375 22.318125 
" style="fill:none;stroke:#000000;stroke-linecap:square;stroke-linejoin:miter;stroke-width:0.8;"/>
   </g>
   <g id="text_19">
    <!-- before binarisation -->
    <g transform="translate(830.545 16.318125)scale(0.12 -0.12)">
     <defs>
      <path d="M 3116 1747 
Q 3116 2381 2855 2742 
Q 2594 3103 2138 3103 
Q 1681 3103 1420 2742 
Q 1159 2381 1159 1747 
Q 1159 1113 1420 752 
Q 1681 391 2138 391 
Q 2594 391 2855 752 
Q 3116 1113 3116 1747 
z
M 1159 2969 
Q 1341 3281 1617 3432 
Q 1894 3584 2278 3584 
Q 2916 3584 3314 3078 
Q 3713 2572 3713 1747 
Q 3713 922 3314 415 
Q 2916 -91 2278 -91 
Q 1894 -91 1617 61 
Q 1341 213 1159 525 
L 1159 0 
L 581 0 
L 581 4863 
L 1159 4863 
L 1159 2969 
z
" id="DejaVuSans-62" transform="scale(0.015625)"/>
      <path d="M 1959 3097 
Q 1497 3097 1228 2736 
Q 959 2375 959 1747 
Q 959 1119 1226 758 
Q 1494 397 1959 397 
Q 2419 397 2687 759 
Q 2956 1122 2956 1747 
Q 2956 2369 2687 2733 
Q 2419 3097 1959 3097 
z
M 1959 3584 
Q 2709 3584 3137 3096 
Q 3566 2609 3566 1747 
Q 3566 888 3137 398 
Q 2709 -91 1959 -91 
Q 1206 -91 779 398 
Q 353 888 353 1747 
Q 353 2609 779 3096 
Q 1206 3584 1959 3584 
z
" id="DejaVuSans-6f" transform="scale(0.015625)"/>
      <path id="DejaVuSans-20" transform="scale(0.015625)"/>
      <path d="M 603 3500 
L 1178 3500 
L 1178 0 
L 603 0 
L 603 3500 
z
M 603 4863 
L 1178 4863 
L 1178 4134 
L 603 4134 
L 603 4863 
z
" id="DejaVuSans-69" transform="scale(0.015625)"/>
      <path d="M 3513 2113 
L 3513 0 
L 2938 0 
L 2938 2094 
Q 2938 2591 2744 2837 
Q 2550 3084 2163 3084 
Q 1697 3084 1428 2787 
Q 1159 2491 1159 1978 
L 1159 0 
L 581 0 
L 581 3500 
L 1159 3500 
L 1159 2956 
Q 1366 3272 1645 3428 
Q 1925 3584 2291 3584 
Q 2894 3584 3203 3211 
Q 3513 2838 3513 2113 
z
" id="DejaVuSans-6e" transform="scale(0.015625)"/>
      <path d="M 2834 3397 
L 2834 2853 
Q 2591 2978 2328 3040 
Q 2066 3103 1784 3103 
Q 1356 3103 1142 2972 
Q 928 2841 928 2578 
Q 928 2378 1081 2264 
Q 1234 2150 1697 2047 
L 1894 2003 
Q 2506 1872 2764 1633 
Q 3022 1394 3022 966 
Q 3022 478 2636 193 
Q 2250 -91 1575 -91 
Q 1294 -91 989 -36 
Q 684 19 347 128 
L 347 722 
Q 666 556 975 473 
Q 1284 391 1588 391 
Q 1994 391 2212 530 
Q 2431 669 2431 922 
Q 2431 1156 2273 1281 
Q 2116 1406 1581 1522 
L 1381 1569 
Q 847 1681 609 1914 
Q 372 2147 372 2553 
Q 372 3047 722 3315 
Q 1072 3584 1716 3584 
Q 2034 3584 2315 3537 
Q 2597 3491 2834 3397 
z
" id="DejaVuSans-73" transform="scale(0.015625)"/>
      <path d="M 1172 4494 
L 1172 3500 
L 2356 3500 
L 2356 3053 
L 1172 3053 
L 1172 1153 
Q 1172 725 1289 603 
Q 1406 481 1766 481 
L 2356 481 
L 2356 0 
L 1766 0 
Q 1100 0 847 248 
Q 594 497 594 1153 
L 594 3053 
L 172 3053 
L 172 3500 
L 594 3500 
L 594 4494 
L 1172 4494 
z
" id="DejaVuSans-74" transform="scale(0.015625)"/>
     </defs>
     <use xlink:href="#DejaVuSans-62"/>
     <use x="63.476562" xlink:href="#DejaVuSans-65"/>
     <use x="125" xlink:href="#DejaVuSans-66"/>
     <use x="160.205078" xlink:href="#DejaVuSans-6f"/>
     <use x="221.386719" xlink:href="#DejaVuSans-72"/>
     <use x="260.25" xlink:href="#DejaVuSans-65"/>
     <use x="321.773438" xlink:href="#DejaVuSans-20"/>
     <use x="353.560547" xlink:href="#DejaVuSans-62"/>
     <use x="417.037109" xlink:href="#DejaVuSans-69"/>
     <use x="444.820312" xlink:href="#DejaVuSans-6e"/>
     <use x="508.199219" xlink:href="#DejaVuSans-61"/>
     <use x="569.478516" xlink:href="#DejaVuSans-72"/>
     <use x="610.591797" xlink:href="#DejaVuSans-69"/>
     <use x="638.375" xlink:href="#DejaVuSans-73"/>
     <use x="690.474609" xlink:href="#DejaVuSans-61"/>
     <use x="751.753906" xlink:href="#DejaVuSans-74"/>
     <use x="790.962891" xlink:href="#DejaVuSans-69"/>
     <use x="818.746094" xlink:href="#DejaVuSans-6f"/>
     <use x="879.927734" xlink:href="#DejaVuSans-6e"/>
    </g>
   </g>
  </g>
  <g id="axes_2">
   <g id="patch_7">
    <path d="M 50.14375 1264.318125 
L 1724.14375 1264.318125 
L 1724.14375 699.77267 
L 50.14375 699.77267 
z
" style="fill:#ffffff;"/>
   </g>
   <g id="matplotlib.axis_3">
    <g id="xtick_8">
     <g id="line2d_18">
      <g>
       <use style="stroke:#000000;stroke-width:0.8;" x="126.234659" xlink:href="#mfde0925790" y="1264.318125"/>
      </g>
     </g>
     <g id="text_20">
      <!-- 0 -->
      <g transform="translate(123.053409 1278.916563)scale(0.1 -0.1)">
       <use xlink:href="#DejaVuSans-30"/>
      </g>
     </g>
    </g>
    <g id="xtick_9">
     <g id="line2d_19">
      <g>
       <use style="stroke:#000000;stroke-width:0.8;" x="373.886113" xlink:href="#mfde0925790" y="1264.318125"/>
      </g>
     </g>
     <g id="text_21">
      <!-- 200 -->
      <g transform="translate(364.342363 1278.916563)scale(0.1 -0.1)">
       <use xlink:href="#DejaVuSans-32"/>
       <use x="63.623047" xlink:href="#DejaVuSans-30"/>
       <use x="127.246094" xlink:href="#DejaVuSans-30"/>
      </g>
     </g>
    </g>
    <g id="xtick_10">
     <g id="line2d_20">
      <g>
       <use style="stroke:#000000;stroke-width:0.8;" x="621.537566" xlink:href="#mfde0925790" y="1264.318125"/>
      </g>
     </g>
     <g id="text_22">
      <!-- 400 -->
      <g transform="translate(611.993816 1278.916563)scale(0.1 -0.1)">
       <use xlink:href="#DejaVuSans-34"/>
       <use x="63.623047" xlink:href="#DejaVuSans-30"/>
       <use x="127.246094" xlink:href="#DejaVuSans-30"/>
      </g>
     </g>
    </g>
    <g id="xtick_11">
     <g id="line2d_21">
      <g>
       <use style="stroke:#000000;stroke-width:0.8;" x="869.18902" xlink:href="#mfde0925790" y="1264.318125"/>
      </g>
     </g>
     <g id="text_23">
      <!-- 600 -->
      <g transform="translate(859.64527 1278.916563)scale(0.1 -0.1)">
       <use xlink:href="#DejaVuSans-36"/>
       <use x="63.623047" xlink:href="#DejaVuSans-30"/>
       <use x="127.246094" xlink:href="#DejaVuSans-30"/>
      </g>
     </g>
    </g>
    <g id="xtick_12">
     <g id="line2d_22">
      <g>
       <use style="stroke:#000000;stroke-width:0.8;" x="1116.840473" xlink:href="#mfde0925790" y="1264.318125"/>
      </g>
     </g>
     <g id="text_24">
      <!-- 800 -->
      <g transform="translate(1107.296723 1278.916563)scale(0.1 -0.1)">
       <use xlink:href="#DejaVuSans-38"/>
       <use x="63.623047" xlink:href="#DejaVuSans-30"/>
       <use x="127.246094" xlink:href="#DejaVuSans-30"/>
      </g>
     </g>
    </g>
    <g id="xtick_13">
     <g id="line2d_23">
      <g>
       <use style="stroke:#000000;stroke-width:0.8;" x="1364.491927" xlink:href="#mfde0925790" y="1264.318125"/>
      </g>
     </g>
     <g id="text_25">
      <!-- 1000 -->
      <g transform="translate(1351.766927 1278.916563)scale(0.1 -0.1)">
       <use xlink:href="#DejaVuSans-31"/>
       <use x="63.623047" xlink:href="#DejaVuSans-30"/>
       <use x="127.246094" xlink:href="#DejaVuSans-30"/>
       <use x="190.869141" xlink:href="#DejaVuSans-30"/>
      </g>
     </g>
    </g>
    <g id="xtick_14">
     <g id="line2d_24">
      <g>
       <use style="stroke:#000000;stroke-width:0.8;" x="1612.14338" xlink:href="#mfde0925790" y="1264.318125"/>
      </g>
     </g>
     <g id="text_26">
      <!-- 1200 -->
      <g transform="translate(1599.41838 1278.916563)scale(0.1 -0.1)">
       <use xlink:href="#DejaVuSans-31"/>
       <use x="63.623047" xlink:href="#DejaVuSans-32"/>
       <use x="127.246094" xlink:href="#DejaVuSans-30"/>
       <use x="190.869141" xlink:href="#DejaVuSans-30"/>
      </g>
     </g>
    </g>
    <g id="text_27">
     <!-- frame -->
     <g transform="translate(872.317187 1292.594688)scale(0.1 -0.1)">
      <use xlink:href="#DejaVuSans-66"/>
      <use x="35.205078" xlink:href="#DejaVuSans-72"/>
      <use x="76.318359" xlink:href="#DejaVuSans-61"/>
      <use x="137.597656" xlink:href="#DejaVuSans-6d"/>
      <use x="235.009766" xlink:href="#DejaVuSans-65"/>
     </g>
    </g>
   </g>
   <g id="matplotlib.axis_4">
    <g id="ytick_10">
     <g id="line2d_25">
      <g>
       <use style="stroke:#000000;stroke-width:0.8;" x="50.14375" xlink:href="#m7fc6c746ab" y="1238.656968"/>
      </g>
     </g>
     <g id="text_28">
      <!-- 0.0 -->
      <g transform="translate(27.240625 1242.456187)scale(0.1 -0.1)">
       <use xlink:href="#DejaVuSans-30"/>
       <use x="63.623047" xlink:href="#DejaVuSans-2e"/>
       <use x="95.410156" xlink:href="#DejaVuSans-30"/>
      </g>
     </g>
    </g>
    <g id="ytick_11">
     <g id="line2d_26">
      <g>
       <use style="stroke:#000000;stroke-width:0.8;" x="50.14375" xlink:href="#m7fc6c746ab" y="1136.01234"/>
      </g>
     </g>
     <g id="text_29">
      <!-- 0.2 -->
      <g transform="translate(27.240625 1139.811559)scale(0.1 -0.1)">
       <use xlink:href="#DejaVuSans-30"/>
       <use x="63.623047" xlink:href="#DejaVuSans-2e"/>
       <use x="95.410156" xlink:href="#DejaVuSans-32"/>
      </g>
     </g>
    </g>
    <g id="ytick_12">
     <g id="line2d_27">
      <g>
       <use style="stroke:#000000;stroke-width:0.8;" x="50.14375" xlink:href="#m7fc6c746ab" y="1033.367712"/>
      </g>
     </g>
     <g id="text_30">
      <!-- 0.4 -->
      <g transform="translate(27.240625 1037.166931)scale(0.1 -0.1)">
       <use xlink:href="#DejaVuSans-30"/>
       <use x="63.623047" xlink:href="#DejaVuSans-2e"/>
       <use x="95.410156" xlink:href="#DejaVuSans-34"/>
      </g>
     </g>
    </g>
    <g id="ytick_13">
     <g id="line2d_28">
      <g>
       <use style="stroke:#000000;stroke-width:0.8;" x="50.14375" xlink:href="#m7fc6c746ab" y="930.723084"/>
      </g>
     </g>
     <g id="text_31">
      <!-- 0.6 -->
      <g transform="translate(27.240625 934.522302)scale(0.1 -0.1)">
       <use xlink:href="#DejaVuSans-30"/>
       <use x="63.623047" xlink:href="#DejaVuSans-2e"/>
       <use x="95.410156" xlink:href="#DejaVuSans-36"/>
      </g>
     </g>
    </g>
    <g id="ytick_14">
     <g id="line2d_29">
      <g>
       <use style="stroke:#000000;stroke-width:0.8;" x="50.14375" xlink:href="#m7fc6c746ab" y="828.078456"/>
      </g>
     </g>
     <g id="text_32">
      <!-- 0.8 -->
      <g transform="translate(27.240625 831.877674)scale(0.1 -0.1)">
       <use xlink:href="#DejaVuSans-30"/>
       <use x="63.623047" xlink:href="#DejaVuSans-2e"/>
       <use x="95.410156" xlink:href="#DejaVuSans-38"/>
      </g>
     </g>
    </g>
    <g id="ytick_15">
     <g id="line2d_30">
      <g>
       <use style="stroke:#000000;stroke-width:0.8;" x="50.14375" xlink:href="#m7fc6c746ab" y="725.433827"/>
      </g>
     </g>
     <g id="text_33">
      <!-- 1.0 -->
      <g transform="translate(27.240625 729.233046)scale(0.1 -0.1)">
       <use xlink:href="#DejaVuSans-31"/>
       <use x="63.623047" xlink:href="#DejaVuSans-2e"/>
       <use x="95.410156" xlink:href="#DejaVuSans-30"/>
      </g>
     </g>
    </g>
    <g id="text_34">
     <!-- GCaMP -->
     <g transform="translate(21.160938 999.803991)rotate(-90)scale(0.1 -0.1)">
      <use xlink:href="#DejaVuSans-47"/>
      <use x="77.490234" xlink:href="#DejaVuSans-43"/>
      <use x="147.314453" xlink:href="#DejaVuSans-61"/>
      <use x="208.59375" xlink:href="#DejaVuSans-4d"/>
      <use x="294.873047" xlink:href="#DejaVuSans-50"/>
     </g>
    </g>
   </g>
   <g id="line2d_31">
    <path clip-path="url(#pc544d11456)" d="M 126.234659 1238.656968 
L 144.808518 1238.656968 
L 146.046775 725.433827 
L 269.872502 725.433827 
L 271.110759 1238.656968 
L 1264.193088 1238.656968 
L 1265.431345 725.433827 
L 1270.384374 725.433827 
L 1271.622632 1238.656968 
L 1277.813918 1238.656968 
L 1279.052175 725.433827 
L 1288.958233 725.433827 
L 1290.196491 1238.656968 
L 1296.387777 1238.656968 
L 1297.626034 725.433827 
L 1321.152922 725.433827 
L 1322.39118 1238.656968 
L 1327.344209 1238.656968 
L 1328.582466 725.433827 
L 1347.156325 725.433827 
L 1348.394582 1238.656968 
L 1350.871097 1238.656968 
L 1352.109354 725.433827 
L 1358.30064 725.433827 
L 1359.538898 1238.656968 
L 1369.444956 1238.656968 
L 1370.683213 725.433827 
L 1371.92147 1238.656968 
L 1394.210101 1238.656968 
L 1395.448358 725.433827 
L 1421.451761 725.433827 
L 1422.690018 1238.656968 
L 1426.40479 1238.656968 
L 1427.643047 725.433827 
L 1482.126367 725.433827 
L 1483.364624 1238.656968 
L 1485.841139 1238.656968 
L 1487.079396 725.433827 
L 1518.035828 725.433827 
L 1519.274085 1238.656968 
L 1525.465371 1238.656968 
L 1526.703629 725.433827 
L 1527.941886 725.433827 
L 1529.180143 1238.656968 
L 1648.052841 1238.656968 
L 1648.052841 1238.656968 
" style="fill:none;stroke:#008000;stroke-linecap:square;stroke-width:1.5;"/>
   </g>
   <g id="patch_8">
    <path d="M 50.14375 1264.318125 
L 50.14375 699.77267 
" style="fill:none;stroke:#000000;stroke-linecap:square;stroke-linejoin:miter;stroke-width:0.8;"/>
   </g>
   <g id="patch_9">
    <path d="M 1724.14375 1264.318125 
L 1724.14375 699.77267 
" style="fill:none;stroke:#000000;stroke-linecap:square;stroke-linejoin:miter;stroke-width:0.8;"/>
   </g>
   <g id="patch_10">
    <path d="M 50.14375 1264.318125 
L 1724.14375 1264.318125 
" style="fill:none;stroke:#000000;stroke-linecap:square;stroke-linejoin:miter;stroke-width:0.8;"/>
   </g>
   <g id="patch_11">
    <path d="M 50.14375 699.77267 
L 1724.14375 699.77267 
" style="fill:none;stroke:#000000;stroke-linecap:square;stroke-linejoin:miter;stroke-width:0.8;"/>
   </g>
   <g id="text_35">
    <!-- before binarisation -->
    <g transform="translate(830.545 693.77267)scale(0.12 -0.12)">
     <use xlink:href="#DejaVuSans-62"/>
     <use x="63.476562" xlink:href="#DejaVuSans-65"/>
     <use x="125" xlink:href="#DejaVuSans-66"/>
     <use x="160.205078" xlink:href="#DejaVuSans-6f"/>
     <use x="221.386719" xlink:href="#DejaVuSans-72"/>
     <use x="260.25" xlink:href="#DejaVuSans-65"/>
     <use x="321.773438" xlink:href="#DejaVuSans-20"/>
     <use x="353.560547" xlink:href="#DejaVuSans-62"/>
     <use x="417.037109" xlink:href="#DejaVuSans-69"/>
     <use x="444.820312" xlink:href="#DejaVuSans-6e"/>
     <use x="508.199219" xlink:href="#DejaVuSans-61"/>
     <use x="569.478516" xlink:href="#DejaVuSans-72"/>
     <use x="610.591797" xlink:href="#DejaVuSans-69"/>
     <use x="638.375" xlink:href="#DejaVuSans-73"/>
     <use x="690.474609" xlink:href="#DejaVuSans-61"/>
     <use x="751.753906" xlink:href="#DejaVuSans-74"/>
     <use x="790.962891" xlink:href="#DejaVuSans-69"/>
     <use x="818.746094" xlink:href="#DejaVuSans-6f"/>
     <use x="879.927734" xlink:href="#DejaVuSans-6e"/>
    </g>
   </g>
  </g>
 </g>
 <defs>
  <clipPath id="p8f90ab367e">
   <rect height="564.545455" width="1674" x="50.14375" y="22.318125"/>
  </clipPath>
  <clipPath id="pc544d11456">
   <rect height="564.545455" width="1674" x="50.14375" y="699.77267"/>
  </clipPath>
 </defs>
</svg>
