<?xml version="1.0" encoding="utf-8" standalone="no"?>
<!DOCTYPE svg PUBLIC "-//W3C//DTD SVG 1.1//EN"
  "http://www.w3.org/Graphics/SVG/1.1/DTD/svg11.dtd">
<svg height="1301.874375pt" version="1.1" viewBox="0 0 1724.98125 1301.874375" width="1724.98125pt" xmlns="http://www.w3.org/2000/svg" xmlns:xlink="http://www.w3.org/1999/xlink">
 <metadata>
  <rdf:RDF xmlns:cc="http://creativecommons.org/ns#" xmlns:dc="http://purl.org/dc/elements/1.1/" xmlns:rdf="http://www.w3.org/1999/02/22-rdf-syntax-ns#">
   <cc:Work>
    <dc:type rdf:resource="http://purl.org/dc/dcmitype/StillImage"/>
    <dc:date>2022-07-24T15:54:37.641140</dc:date>
    <dc:format>image/svg+xml</dc:format>
    <dc:creator>
     <cc:Agent>
      <dc:title>Matplotlib v3.4.2, https://matplotlib.org/</dc:title>
     </cc:Agent>
    </dc:creator>
   </cc:Work>
  </rdf:RDF>
 </metadata>
 <defs>
  <style type="text/css">*{stroke-linecap:butt;stroke-linejoin:round;}</style>
 </defs>
 <g id="figure_1">
  <g id="patch_1">
   <path d="M 0 1301.874375 
L 1724.98125 1301.874375 
L 1724.98125 0 
L 0 0 
z
" style="fill:#ffffff;"/>
  </g>
  <g id="axes_1">
   <g id="patch_2">
    <path d="M 43.78125 586.86358 
L 1717.78125 586.86358 
L 1717.78125 22.318125 
L 43.78125 22.318125 
z
" style="fill:#ffffff;"/>
   </g>
   <g id="matplotlib.axis_1">
    <g id="xtick_1">
     <g id="line2d_1">
      <defs>
       <path d="M 0 0 
L 0 3.5 
" id="m27a8585923" style="stroke:#000000;stroke-width:0.8;"/>
      </defs>
      <g>
       <use style="stroke:#000000;stroke-width:0.8;" x="119.872159" xlink:href="#m27a8585923" y="586.86358"/>
      </g>
     </g>
     <g id="text_1">
      <!-- 0 -->
      <g transform="translate(116.690909 601.462017)scale(0.1 -0.1)">
       <defs>
        <path d="M 2034 4250 
Q 1547 4250 1301 3770 
Q 1056 3291 1056 2328 
Q 1056 1369 1301 889 
Q 1547 409 2034 409 
Q 2525 409 2770 889 
Q 3016 1369 3016 2328 
Q 3016 3291 2770 3770 
Q 2525 4250 2034 4250 
z
M 2034 4750 
Q 2819 4750 3233 4129 
Q 3647 3509 3647 2328 
Q 3647 1150 3233 529 
Q 2819 -91 2034 -91 
Q 1250 -91 836 529 
Q 422 1150 422 2328 
Q 422 3509 836 4129 
Q 1250 4750 2034 4750 
z
" id="DejaVuSans-30" transform="scale(0.015625)"/>
       </defs>
       <use xlink:href="#DejaVuSans-30"/>
      </g>
     </g>
    </g>
    <g id="xtick_2">
     <g id="line2d_2">
      <g>
       <use style="stroke:#000000;stroke-width:0.8;" x="367.523613" xlink:href="#m27a8585923" y="586.86358"/>
      </g>
     </g>
     <g id="text_2">
      <!-- 200 -->
      <g transform="translate(357.979863 601.462017)scale(0.1 -0.1)">
       <defs>
        <path d="M 1228 531 
L 3431 531 
L 3431 0 
L 469 0 
L 469 531 
Q 828 903 1448 1529 
Q 2069 2156 2228 2338 
Q 2531 2678 2651 2914 
Q 2772 3150 2772 3378 
Q 2772 3750 2511 3984 
Q 2250 4219 1831 4219 
Q 1534 4219 1204 4116 
Q 875 4013 500 3803 
L 500 4441 
Q 881 4594 1212 4672 
Q 1544 4750 1819 4750 
Q 2544 4750 2975 4387 
Q 3406 4025 3406 3419 
Q 3406 3131 3298 2873 
Q 3191 2616 2906 2266 
Q 2828 2175 2409 1742 
Q 1991 1309 1228 531 
z
" id="DejaVuSans-32" transform="scale(0.015625)"/>
       </defs>
       <use xlink:href="#DejaVuSans-32"/>
       <use x="63.623047" xlink:href="#DejaVuSans-30"/>
       <use x="127.246094" xlink:href="#DejaVuSans-30"/>
      </g>
     </g>
    </g>
    <g id="xtick_3">
     <g id="line2d_3">
      <g>
       <use style="stroke:#000000;stroke-width:0.8;" x="615.175066" xlink:href="#m27a8585923" y="586.86358"/>
      </g>
     </g>
     <g id="text_3">
      <!-- 400 -->
      <g transform="translate(605.631316 601.462017)scale(0.1 -0.1)">
       <defs>
        <path d="M 2419 4116 
L 825 1625 
L 2419 1625 
L 2419 4116 
z
M 2253 4666 
L 3047 4666 
L 3047 1625 
L 3713 1625 
L 3713 1100 
L 3047 1100 
L 3047 0 
L 2419 0 
L 2419 1100 
L 313 1100 
L 313 1709 
L 2253 4666 
z
" id="DejaVuSans-34" transform="scale(0.015625)"/>
       </defs>
       <use xlink:href="#DejaVuSans-34"/>
       <use x="63.623047" xlink:href="#DejaVuSans-30"/>
       <use x="127.246094" xlink:href="#DejaVuSans-30"/>
      </g>
     </g>
    </g>
    <g id="xtick_4">
     <g id="line2d_4">
      <g>
       <use style="stroke:#000000;stroke-width:0.8;" x="862.82652" xlink:href="#m27a8585923" y="586.86358"/>
      </g>
     </g>
     <g id="text_4">
      <!-- 600 -->
      <g transform="translate(853.28277 601.462017)scale(0.1 -0.1)">
       <defs>
        <path d="M 2113 2584 
Q 1688 2584 1439 2293 
Q 1191 2003 1191 1497 
Q 1191 994 1439 701 
Q 1688 409 2113 409 
Q 2538 409 2786 701 
Q 3034 994 3034 1497 
Q 3034 2003 2786 2293 
Q 2538 2584 2113 2584 
z
M 3366 4563 
L 3366 3988 
Q 3128 4100 2886 4159 
Q 2644 4219 2406 4219 
Q 1781 4219 1451 3797 
Q 1122 3375 1075 2522 
Q 1259 2794 1537 2939 
Q 1816 3084 2150 3084 
Q 2853 3084 3261 2657 
Q 3669 2231 3669 1497 
Q 3669 778 3244 343 
Q 2819 -91 2113 -91 
Q 1303 -91 875 529 
Q 447 1150 447 2328 
Q 447 3434 972 4092 
Q 1497 4750 2381 4750 
Q 2619 4750 2861 4703 
Q 3103 4656 3366 4563 
z
" id="DejaVuSans-36" transform="scale(0.015625)"/>
       </defs>
       <use xlink:href="#DejaVuSans-36"/>
       <use x="63.623047" xlink:href="#DejaVuSans-30"/>
       <use x="127.246094" xlink:href="#DejaVuSans-30"/>
      </g>
     </g>
    </g>
    <g id="xtick_5">
     <g id="line2d_5">
      <g>
       <use style="stroke:#000000;stroke-width:0.8;" x="1110.477973" xlink:href="#m27a8585923" y="586.86358"/>
      </g>
     </g>
     <g id="text_5">
      <!-- 800 -->
      <g transform="translate(1100.934223 601.462017)scale(0.1 -0.1)">
       <defs>
        <path d="M 2034 2216 
Q 1584 2216 1326 1975 
Q 1069 1734 1069 1313 
Q 1069 891 1326 650 
Q 1584 409 2034 409 
Q 2484 409 2743 651 
Q 3003 894 3003 1313 
Q 3003 1734 2745 1975 
Q 2488 2216 2034 2216 
z
M 1403 2484 
Q 997 2584 770 2862 
Q 544 3141 544 3541 
Q 544 4100 942 4425 
Q 1341 4750 2034 4750 
Q 2731 4750 3128 4425 
Q 3525 4100 3525 3541 
Q 3525 3141 3298 2862 
Q 3072 2584 2669 2484 
Q 3125 2378 3379 2068 
Q 3634 1759 3634 1313 
Q 3634 634 3220 271 
Q 2806 -91 2034 -91 
Q 1263 -91 848 271 
Q 434 634 434 1313 
Q 434 1759 690 2068 
Q 947 2378 1403 2484 
z
M 1172 3481 
Q 1172 3119 1398 2916 
Q 1625 2713 2034 2713 
Q 2441 2713 2670 2916 
Q 2900 3119 2900 3481 
Q 2900 3844 2670 4047 
Q 2441 4250 2034 4250 
Q 1625 4250 1398 4047 
Q 1172 3844 1172 3481 
z
" id="DejaVuSans-38" transform="scale(0.015625)"/>
       </defs>
       <use xlink:href="#DejaVuSans-38"/>
       <use x="63.623047" xlink:href="#DejaVuSans-30"/>
       <use x="127.246094" xlink:href="#DejaVuSans-30"/>
      </g>
     </g>
    </g>
    <g id="xtick_6">
     <g id="line2d_6">
      <g>
       <use style="stroke:#000000;stroke-width:0.8;" x="1358.129427" xlink:href="#m27a8585923" y="586.86358"/>
      </g>
     </g>
     <g id="text_6">
      <!-- 1000 -->
      <g transform="translate(1345.404427 601.462017)scale(0.1 -0.1)">
       <defs>
        <path d="M 794 531 
L 1825 531 
L 1825 4091 
L 703 3866 
L 703 4441 
L 1819 4666 
L 2450 4666 
L 2450 531 
L 3481 531 
L 3481 0 
L 794 0 
L 794 531 
z
" id="DejaVuSans-31" transform="scale(0.015625)"/>
       </defs>
       <use xlink:href="#DejaVuSans-31"/>
       <use x="63.623047" xlink:href="#DejaVuSans-30"/>
       <use x="127.246094" xlink:href="#DejaVuSans-30"/>
       <use x="190.869141" xlink:href="#DejaVuSans-30"/>
      </g>
     </g>
    </g>
    <g id="xtick_7">
     <g id="line2d_7">
      <g>
       <use style="stroke:#000000;stroke-width:0.8;" x="1605.78088" xlink:href="#m27a8585923" y="586.86358"/>
      </g>
     </g>
     <g id="text_7">
      <!-- 1200 -->
      <g transform="translate(1593.05588 601.462017)scale(0.1 -0.1)">
       <use xlink:href="#DejaVuSans-31"/>
       <use x="63.623047" xlink:href="#DejaVuSans-32"/>
       <use x="127.246094" xlink:href="#DejaVuSans-30"/>
       <use x="190.869141" xlink:href="#DejaVuSans-30"/>
      </g>
     </g>
    </g>
    <g id="text_8">
     <!-- frame -->
     <g transform="translate(865.954687 615.140142)scale(0.1 -0.1)">
      <defs>
       <path d="M 2375 4863 
L 2375 4384 
L 1825 4384 
Q 1516 4384 1395 4259 
Q 1275 4134 1275 3809 
L 1275 3500 
L 2222 3500 
L 2222 3053 
L 1275 3053 
L 1275 0 
L 697 0 
L 697 3053 
L 147 3053 
L 147 3500 
L 697 3500 
L 697 3744 
Q 697 4328 969 4595 
Q 1241 4863 1831 4863 
L 2375 4863 
z
" id="DejaVuSans-66" transform="scale(0.015625)"/>
       <path d="M 2631 2963 
Q 2534 3019 2420 3045 
Q 2306 3072 2169 3072 
Q 1681 3072 1420 2755 
Q 1159 2438 1159 1844 
L 1159 0 
L 581 0 
L 581 3500 
L 1159 3500 
L 1159 2956 
Q 1341 3275 1631 3429 
Q 1922 3584 2338 3584 
Q 2397 3584 2469 3576 
Q 2541 3569 2628 3553 
L 2631 2963 
z
" id="DejaVuSans-72" transform="scale(0.015625)"/>
       <path d="M 2194 1759 
Q 1497 1759 1228 1600 
Q 959 1441 959 1056 
Q 959 750 1161 570 
Q 1363 391 1709 391 
Q 2188 391 2477 730 
Q 2766 1069 2766 1631 
L 2766 1759 
L 2194 1759 
z
M 3341 1997 
L 3341 0 
L 2766 0 
L 2766 531 
Q 2569 213 2275 61 
Q 1981 -91 1556 -91 
Q 1019 -91 701 211 
Q 384 513 384 1019 
Q 384 1609 779 1909 
Q 1175 2209 1959 2209 
L 2766 2209 
L 2766 2266 
Q 2766 2663 2505 2880 
Q 2244 3097 1772 3097 
Q 1472 3097 1187 3025 
Q 903 2953 641 2809 
L 641 3341 
Q 956 3463 1253 3523 
Q 1550 3584 1831 3584 
Q 2591 3584 2966 3190 
Q 3341 2797 3341 1997 
z
" id="DejaVuSans-61" transform="scale(0.015625)"/>
       <path d="M 3328 2828 
Q 3544 3216 3844 3400 
Q 4144 3584 4550 3584 
Q 5097 3584 5394 3201 
Q 5691 2819 5691 2113 
L 5691 0 
L 5113 0 
L 5113 2094 
Q 5113 2597 4934 2840 
Q 4756 3084 4391 3084 
Q 3944 3084 3684 2787 
Q 3425 2491 3425 1978 
L 3425 0 
L 2847 0 
L 2847 2094 
Q 2847 2600 2669 2842 
Q 2491 3084 2119 3084 
Q 1678 3084 1418 2786 
Q 1159 2488 1159 1978 
L 1159 0 
L 581 0 
L 581 3500 
L 1159 3500 
L 1159 2956 
Q 1356 3278 1631 3431 
Q 1906 3584 2284 3584 
Q 2666 3584 2933 3390 
Q 3200 3197 3328 2828 
z
" id="DejaVuSans-6d" transform="scale(0.015625)"/>
       <path d="M 3597 1894 
L 3597 1613 
L 953 1613 
Q 991 1019 1311 708 
Q 1631 397 2203 397 
Q 2534 397 2845 478 
Q 3156 559 3463 722 
L 3463 178 
Q 3153 47 2828 -22 
Q 2503 -91 2169 -91 
Q 1331 -91 842 396 
Q 353 884 353 1716 
Q 353 2575 817 3079 
Q 1281 3584 2069 3584 
Q 2775 3584 3186 3129 
Q 3597 2675 3597 1894 
z
M 3022 2063 
Q 3016 2534 2758 2815 
Q 2500 3097 2075 3097 
Q 1594 3097 1305 2825 
Q 1016 2553 972 2059 
L 3022 2063 
z
" id="DejaVuSans-65" transform="scale(0.015625)"/>
      </defs>
      <use xlink:href="#DejaVuSans-66"/>
      <use x="35.205078" xlink:href="#DejaVuSans-72"/>
      <use x="76.318359" xlink:href="#DejaVuSans-61"/>
      <use x="137.597656" xlink:href="#DejaVuSans-6d"/>
      <use x="235.009766" xlink:href="#DejaVuSans-65"/>
     </g>
    </g>
   </g>
   <g id="matplotlib.axis_2">
    <g id="ytick_1">
     <g id="line2d_8">
      <defs>
       <path d="M 0 0 
L -3.5 0 
" id="m9663d478e8" style="stroke:#000000;stroke-width:0.8;"/>
      </defs>
      <g>
       <use style="stroke:#000000;stroke-width:0.8;" x="43.78125" xlink:href="#m9663d478e8" y="561.202423"/>
      </g>
     </g>
     <g id="text_9">
      <!-- 0.0 -->
      <g transform="translate(20.878125 565.001641)scale(0.1 -0.1)">
       <defs>
        <path d="M 684 794 
L 1344 794 
L 1344 0 
L 684 0 
L 684 794 
z
" id="DejaVuSans-2e" transform="scale(0.015625)"/>
       </defs>
       <use xlink:href="#DejaVuSans-30"/>
       <use x="63.623047" xlink:href="#DejaVuSans-2e"/>
       <use x="95.410156" xlink:href="#DejaVuSans-30"/>
      </g>
     </g>
    </g>
    <g id="ytick_2">
     <g id="line2d_9">
      <g>
       <use style="stroke:#000000;stroke-width:0.8;" x="43.78125" xlink:href="#m9663d478e8" y="494.203933"/>
      </g>
     </g>
     <g id="text_10">
      <!-- 0.5 -->
      <g transform="translate(20.878125 498.003152)scale(0.1 -0.1)">
       <defs>
        <path d="M 691 4666 
L 3169 4666 
L 3169 4134 
L 1269 4134 
L 1269 2991 
Q 1406 3038 1543 3061 
Q 1681 3084 1819 3084 
Q 2600 3084 3056 2656 
Q 3513 2228 3513 1497 
Q 3513 744 3044 326 
Q 2575 -91 1722 -91 
Q 1428 -91 1123 -41 
Q 819 9 494 109 
L 494 744 
Q 775 591 1075 516 
Q 1375 441 1709 441 
Q 2250 441 2565 725 
Q 2881 1009 2881 1497 
Q 2881 1984 2565 2268 
Q 2250 2553 1709 2553 
Q 1456 2553 1204 2497 
Q 953 2441 691 2322 
L 691 4666 
z
" id="DejaVuSans-35" transform="scale(0.015625)"/>
       </defs>
       <use xlink:href="#DejaVuSans-30"/>
       <use x="63.623047" xlink:href="#DejaVuSans-2e"/>
       <use x="95.410156" xlink:href="#DejaVuSans-35"/>
      </g>
     </g>
    </g>
    <g id="ytick_3">
     <g id="line2d_10">
      <g>
       <use style="stroke:#000000;stroke-width:0.8;" x="43.78125" xlink:href="#m9663d478e8" y="427.205443"/>
      </g>
     </g>
     <g id="text_11">
      <!-- 1.0 -->
      <g transform="translate(20.878125 431.004662)scale(0.1 -0.1)">
       <use xlink:href="#DejaVuSans-31"/>
       <use x="63.623047" xlink:href="#DejaVuSans-2e"/>
       <use x="95.410156" xlink:href="#DejaVuSans-30"/>
      </g>
     </g>
    </g>
    <g id="ytick_4">
     <g id="line2d_11">
      <g>
       <use style="stroke:#000000;stroke-width:0.8;" x="43.78125" xlink:href="#m9663d478e8" y="360.206953"/>
      </g>
     </g>
     <g id="text_12">
      <!-- 1.5 -->
      <g transform="translate(20.878125 364.006172)scale(0.1 -0.1)">
       <use xlink:href="#DejaVuSans-31"/>
       <use x="63.623047" xlink:href="#DejaVuSans-2e"/>
       <use x="95.410156" xlink:href="#DejaVuSans-35"/>
      </g>
     </g>
    </g>
    <g id="ytick_5">
     <g id="line2d_12">
      <g>
       <use style="stroke:#000000;stroke-width:0.8;" x="43.78125" xlink:href="#m9663d478e8" y="293.208464"/>
      </g>
     </g>
     <g id="text_13">
      <!-- 2.0 -->
      <g transform="translate(20.878125 297.007682)scale(0.1 -0.1)">
       <use xlink:href="#DejaVuSans-32"/>
       <use x="63.623047" xlink:href="#DejaVuSans-2e"/>
       <use x="95.410156" xlink:href="#DejaVuSans-30"/>
      </g>
     </g>
    </g>
    <g id="ytick_6">
     <g id="line2d_13">
      <g>
       <use style="stroke:#000000;stroke-width:0.8;" x="43.78125" xlink:href="#m9663d478e8" y="226.209974"/>
      </g>
     </g>
     <g id="text_14">
      <!-- 2.5 -->
      <g transform="translate(20.878125 230.009193)scale(0.1 -0.1)">
       <use xlink:href="#DejaVuSans-32"/>
       <use x="63.623047" xlink:href="#DejaVuSans-2e"/>
       <use x="95.410156" xlink:href="#DejaVuSans-35"/>
      </g>
     </g>
    </g>
    <g id="ytick_7">
     <g id="line2d_14">
      <g>
       <use style="stroke:#000000;stroke-width:0.8;" x="43.78125" xlink:href="#m9663d478e8" y="159.211484"/>
      </g>
     </g>
     <g id="text_15">
      <!-- 3.0 -->
      <g transform="translate(20.878125 163.010703)scale(0.1 -0.1)">
       <defs>
        <path d="M 2597 2516 
Q 3050 2419 3304 2112 
Q 3559 1806 3559 1356 
Q 3559 666 3084 287 
Q 2609 -91 1734 -91 
Q 1441 -91 1130 -33 
Q 819 25 488 141 
L 488 750 
Q 750 597 1062 519 
Q 1375 441 1716 441 
Q 2309 441 2620 675 
Q 2931 909 2931 1356 
Q 2931 1769 2642 2001 
Q 2353 2234 1838 2234 
L 1294 2234 
L 1294 2753 
L 1863 2753 
Q 2328 2753 2575 2939 
Q 2822 3125 2822 3475 
Q 2822 3834 2567 4026 
Q 2313 4219 1838 4219 
Q 1578 4219 1281 4162 
Q 984 4106 628 3988 
L 628 4550 
Q 988 4650 1302 4700 
Q 1616 4750 1894 4750 
Q 2613 4750 3031 4423 
Q 3450 4097 3450 3541 
Q 3450 3153 3228 2886 
Q 3006 2619 2597 2516 
z
" id="DejaVuSans-33" transform="scale(0.015625)"/>
       </defs>
       <use xlink:href="#DejaVuSans-33"/>
       <use x="63.623047" xlink:href="#DejaVuSans-2e"/>
       <use x="95.410156" xlink:href="#DejaVuSans-30"/>
      </g>
     </g>
    </g>
    <g id="ytick_8">
     <g id="line2d_15">
      <g>
       <use style="stroke:#000000;stroke-width:0.8;" x="43.78125" xlink:href="#m9663d478e8" y="92.212994"/>
      </g>
     </g>
     <g id="text_16">
      <!-- 3.5 -->
      <g transform="translate(20.878125 96.012213)scale(0.1 -0.1)">
       <use xlink:href="#DejaVuSans-33"/>
       <use x="63.623047" xlink:href="#DejaVuSans-2e"/>
       <use x="95.410156" xlink:href="#DejaVuSans-35"/>
      </g>
     </g>
    </g>
    <g id="ytick_9">
     <g id="line2d_16">
      <g>
       <use style="stroke:#000000;stroke-width:0.8;" x="43.78125" xlink:href="#m9663d478e8" y="25.214504"/>
      </g>
     </g>
     <g id="text_17">
      <!-- 4.0 -->
      <g transform="translate(20.878125 29.013723)scale(0.1 -0.1)">
       <use xlink:href="#DejaVuSans-34"/>
       <use x="63.623047" xlink:href="#DejaVuSans-2e"/>
       <use x="95.410156" xlink:href="#DejaVuSans-30"/>
      </g>
     </g>
    </g>
    <g id="text_18">
     <!-- GCaMP -->
     <g transform="translate(14.798437 322.349446)rotate(-90)scale(0.1 -0.1)">
      <defs>
       <path d="M 3809 666 
L 3809 1919 
L 2778 1919 
L 2778 2438 
L 4434 2438 
L 4434 434 
Q 4069 175 3628 42 
Q 3188 -91 2688 -91 
Q 1594 -91 976 548 
Q 359 1188 359 2328 
Q 359 3472 976 4111 
Q 1594 4750 2688 4750 
Q 3144 4750 3555 4637 
Q 3966 4525 4313 4306 
L 4313 3634 
Q 3963 3931 3569 4081 
Q 3175 4231 2741 4231 
Q 1884 4231 1454 3753 
Q 1025 3275 1025 2328 
Q 1025 1384 1454 906 
Q 1884 428 2741 428 
Q 3075 428 3337 486 
Q 3600 544 3809 666 
z
" id="DejaVuSans-47" transform="scale(0.015625)"/>
       <path d="M 4122 4306 
L 4122 3641 
Q 3803 3938 3442 4084 
Q 3081 4231 2675 4231 
Q 1875 4231 1450 3742 
Q 1025 3253 1025 2328 
Q 1025 1406 1450 917 
Q 1875 428 2675 428 
Q 3081 428 3442 575 
Q 3803 722 4122 1019 
L 4122 359 
Q 3791 134 3420 21 
Q 3050 -91 2638 -91 
Q 1578 -91 968 557 
Q 359 1206 359 2328 
Q 359 3453 968 4101 
Q 1578 4750 2638 4750 
Q 3056 4750 3426 4639 
Q 3797 4528 4122 4306 
z
" id="DejaVuSans-43" transform="scale(0.015625)"/>
       <path d="M 628 4666 
L 1569 4666 
L 2759 1491 
L 3956 4666 
L 4897 4666 
L 4897 0 
L 4281 0 
L 4281 4097 
L 3078 897 
L 2444 897 
L 1241 4097 
L 1241 0 
L 628 0 
L 628 4666 
z
" id="DejaVuSans-4d" transform="scale(0.015625)"/>
       <path d="M 1259 4147 
L 1259 2394 
L 2053 2394 
Q 2494 2394 2734 2622 
Q 2975 2850 2975 3272 
Q 2975 3691 2734 3919 
Q 2494 4147 2053 4147 
L 1259 4147 
z
M 628 4666 
L 2053 4666 
Q 2838 4666 3239 4311 
Q 3641 3956 3641 3272 
Q 3641 2581 3239 2228 
Q 2838 1875 2053 1875 
L 1259 1875 
L 1259 0 
L 628 0 
L 628 4666 
z
" id="DejaVuSans-50" transform="scale(0.015625)"/>
      </defs>
      <use xlink:href="#DejaVuSans-47"/>
      <use x="77.490234" xlink:href="#DejaVuSans-43"/>
      <use x="147.314453" xlink:href="#DejaVuSans-61"/>
      <use x="208.59375" xlink:href="#DejaVuSans-4d"/>
      <use x="294.873047" xlink:href="#DejaVuSans-50"/>
     </g>
    </g>
   </g>
   <g id="line2d_17">
    <path clip-path="url(#p578258d5fc)" d="M 119.872159 444.695943 
L 121.110416 446.607336 
L 122.348674 447.831375 
L 123.586931 448.035295 
L 124.825188 447.318951 
L 127.301703 445.035664 
L 128.53996 444.686951 
L 129.778217 445.4279 
L 131.016474 447.129869 
L 132.254732 449.191746 
L 133.492989 451.033136 
L 134.731246 452.493957 
L 135.969504 453.687096 
L 138.446018 455.617927 
L 139.684275 456.337581 
L 143.399047 457.937833 
L 144.637304 458.435304 
L 145.875562 458.7928 
L 147.113819 458.882464 
L 148.352076 458.610888 
L 150.828591 457.710417 
L 152.066848 457.73772 
L 153.305105 458.25494 
L 154.543363 459.134651 
L 157.019877 461.194323 
L 158.258134 462.023079 
L 159.496392 462.511149 
L 160.734649 462.602103 
L 161.972906 462.491583 
L 163.211163 462.570877 
L 164.449421 463.073438 
L 165.687678 463.807091 
L 166.925935 464.308426 
L 168.164193 464.168911 
L 169.40245 463.150443 
L 170.640707 461.169994 
L 171.878964 458.400265 
L 173.117222 455.328824 
L 174.355479 452.581582 
L 175.593736 450.709711 
L 176.831993 450.013607 
L 178.070251 450.440296 
L 179.308508 451.649983 
L 180.546765 453.126856 
L 181.785022 454.370722 
L 183.02328 455.126576 
L 184.261537 455.42245 
L 186.738052 455.560096 
L 190.452823 456.250065 
L 191.691081 456.369314 
L 192.929338 456.691838 
L 196.64411 458.236246 
L 197.882367 458.282786 
L 199.120624 457.936248 
L 200.358881 457.413459 
L 201.597139 457.038492 
L 202.835396 456.964391 
L 204.073653 457.156852 
L 205.311911 457.582807 
L 207.788425 458.785264 
L 209.026682 459.163973 
L 211.503197 459.629166 
L 215.217969 460.808258 
L 216.456226 460.690617 
L 218.93274 459.496332 
L 220.170998 459.206105 
L 221.409255 459.475796 
L 222.647512 460.148011 
L 225.124027 461.705625 
L 226.362284 462.340877 
L 227.600541 462.819272 
L 228.838799 463.020169 
L 230.077056 462.745188 
L 231.315313 461.968161 
L 233.791828 459.675124 
L 235.030085 458.532885 
L 236.268342 457.689461 
L 237.5066 457.400914 
L 238.744857 457.675045 
L 239.983114 458.19623 
L 241.221371 458.586134 
L 242.459629 458.634367 
L 243.697886 458.417356 
L 244.936143 458.322131 
L 246.1744 458.74825 
L 247.412658 459.713996 
L 248.650915 460.870757 
L 249.889172 461.814608 
L 251.127429 462.331126 
L 252.365687 462.466481 
L 253.603944 462.388577 
L 254.842201 462.172307 
L 257.318716 461.435659 
L 258.556973 461.401129 
L 261.033488 462.16476 
L 262.271745 462.150885 
L 263.510002 461.658354 
L 265.986517 460.26206 
L 267.224774 459.98312 
L 268.463031 460.213683 
L 269.701288 461.003351 
L 272.177803 463.379596 
L 273.41606 464.094268 
L 274.654318 464.25703 
L 275.892575 464.049811 
L 278.369089 463.519619 
L 279.607347 463.534828 
L 282.083861 463.887737 
L 283.322118 463.66726 
L 284.560376 462.894866 
L 287.03689 460.59167 
L 288.275147 459.75617 
L 289.513405 459.532393 
L 290.751662 459.985696 
L 293.228177 461.597859 
L 294.466434 461.896368 
L 295.704691 461.652236 
L 298.181206 460.477246 
L 299.419463 459.747856 
L 300.65772 458.748588 
L 304.372492 455.174734 
L 305.610749 454.326868 
L 306.849006 453.845376 
L 308.087264 453.798568 
L 311.802036 454.423482 
L 314.27855 453.955305 
L 315.516807 454.025588 
L 316.755065 454.693337 
L 317.993322 455.943262 
L 319.231579 457.484376 
L 320.469836 458.838884 
L 321.708094 459.653334 
L 322.946351 459.909599 
L 327.89938 459.638562 
L 329.137637 459.67627 
L 331.614152 459.3151 
L 334.090666 458.965487 
L 335.328924 458.964389 
L 336.567181 459.279646 
L 337.805438 460.02716 
L 340.281953 462.018031 
L 341.52021 462.602303 
L 342.758467 462.668545 
L 343.996725 462.243969 
L 345.234982 461.441625 
L 347.711496 459.62662 
L 348.949754 459.210712 
L 350.188011 459.365667 
L 352.664525 460.666348 
L 353.902783 461.001619 
L 355.14104 460.723152 
L 356.379297 459.848255 
L 357.617554 458.687612 
L 358.855812 457.734708 
L 360.094069 457.410839 
L 361.332326 457.846977 
L 362.570584 458.886816 
L 365.047098 461.407971 
L 366.285355 462.03252 
L 367.523613 461.925061 
L 371.238384 460.059041 
L 373.714899 459.480056 
L 376.191413 458.865852 
L 377.429671 458.548267 
L 378.667928 458.471048 
L 381.144443 458.594106 
L 382.3827 458.393388 
L 384.859214 457.589557 
L 386.097472 456.883238 
L 387.335729 455.770524 
L 388.573986 454.242988 
L 391.050501 450.810733 
L 392.288758 449.351188 
L 394.765272 446.911913 
L 396.00353 445.941656 
L 397.241787 445.51032 
L 398.480044 445.919334 
L 399.718302 447.006434 
L 400.956559 448.274006 
L 402.194816 449.330118 
L 403.433073 450.05799 
L 404.671331 450.54164 
L 405.909588 450.892291 
L 407.147845 451.085093 
L 408.386102 451.012444 
L 409.62436 450.675581 
L 412.100874 449.750631 
L 413.339132 449.559366 
L 414.577389 449.722344 
L 415.815646 450.040098 
L 417.053903 450.160488 
L 420.768675 449.495028 
L 426.959961 450.372878 
L 428.198219 450.755245 
L 429.436476 451.391183 
L 430.674733 452.389907 
L 431.912991 453.64132 
L 433.151248 454.580647 
L 434.389505 454.596711 
L 435.627762 453.568939 
L 438.104277 450.112103 
L 439.342534 448.867224 
L 440.580791 448.435862 
L 441.819049 448.882993 
L 443.057306 450.064638 
L 444.295563 451.532922 
L 445.53382 452.647954 
L 446.772078 452.973477 
L 448.010335 452.530345 
L 449.248592 451.606819 
L 452.963364 448.074012 
L 454.201621 447.432219 
L 455.439879 447.3796 
L 456.678136 447.69305 
L 457.916393 448.131242 
L 459.15465 448.695467 
L 460.392908 449.495908 
L 461.631165 450.456278 
L 462.869422 451.20289 
L 464.107679 451.300035 
L 465.345937 450.620698 
L 467.822451 448.344313 
L 469.060709 447.659967 
L 470.298966 447.469159 
L 476.490252 447.907999 
L 477.728509 447.493077 
L 478.966767 446.52224 
L 481.443281 443.656068 
L 482.681538 442.827091 
L 483.919796 443.08829 
L 485.158053 444.341938 
L 486.39631 445.953854 
L 487.634568 447.206319 
L 488.872825 447.675816 
L 490.111082 447.289466 
L 491.349339 446.231006 
L 493.825854 443.52413 
L 495.064111 442.443131 
L 496.302368 441.688956 
L 497.540626 441.381822 
L 498.778883 441.586872 
L 501.255397 442.720383 
L 502.493655 443.088894 
L 503.731912 443.119122 
L 504.970169 442.818033 
L 508.684941 441.035428 
L 509.923198 440.778322 
L 511.161456 440.806391 
L 512.399713 441.119637 
L 513.63797 441.778877 
L 514.876227 442.847627 
L 517.352742 445.649905 
L 518.590999 446.633353 
L 519.829257 446.907305 
L 521.067514 446.444872 
L 522.305771 445.477126 
L 527.2588 440.793305 
L 528.497057 440.137354 
L 529.735315 439.921514 
L 532.211829 439.949885 
L 533.450086 439.754344 
L 535.926601 438.966893 
L 538.403116 438.006607 
L 542.117887 435.915484 
L 543.356145 435.454731 
L 547.070916 434.587313 
L 550.785688 433.988328 
L 553.262203 433.212765 
L 554.50046 432.656968 
L 555.738717 431.601615 
L 556.976975 430.018767 
L 559.453489 426.620542 
L 560.691746 425.288965 
L 561.930004 424.375829 
L 563.168261 424.103404 
L 564.406518 424.635846 
L 566.883033 426.856329 
L 568.12129 427.434576 
L 569.359547 427.279358 
L 570.597804 426.39813 
L 573.074319 423.698276 
L 574.312576 422.916338 
L 575.550834 422.797173 
L 576.789091 422.857086 
L 578.027348 422.503427 
L 579.265605 421.594589 
L 580.503863 420.438217 
L 581.74212 419.443953 
L 582.980377 418.83641 
L 584.218634 418.640828 
L 585.456892 418.793444 
L 587.933406 419.531102 
L 589.171663 420.025992 
L 590.409921 420.716973 
L 591.648178 421.622619 
L 592.886435 422.811 
L 594.124693 424.380028 
L 595.36295 426.171118 
L 596.601207 427.765374 
L 597.839464 428.914482 
L 599.077722 429.63097 
L 600.315979 429.907986 
L 601.554236 429.743136 
L 604.030751 428.820449 
L 605.269008 428.268656 
L 606.507265 427.421009 
L 607.745523 426.303545 
L 608.98378 425.371911 
L 610.222037 425.123136 
L 611.460294 425.670681 
L 613.936809 427.881141 
L 615.175066 429.002513 
L 616.413323 429.962513 
L 617.651581 430.707608 
L 618.889838 431.213598 
L 620.128095 431.314634 
L 621.366352 430.952538 
L 622.60461 430.457113 
L 623.842867 430.161594 
L 627.557639 429.931906 
L 628.795896 429.68429 
L 630.034153 429.584657 
L 632.510668 430.093984 
L 633.748925 429.957767 
L 634.987182 429.259122 
L 637.463697 426.990893 
L 638.701954 425.91069 
L 639.940211 425.195134 
L 641.178469 424.681372 
L 642.416726 423.843523 
L 643.654983 422.29226 
L 644.893241 420.012461 
L 646.131498 417.202352 
L 651.084527 404.941917 
L 653.561041 399.672754 
L 654.799299 395.975896 
L 656.037556 390.321458 
L 657.275813 381.959675 
L 658.51407 370.618746 
L 659.752328 356.415047 
L 660.990585 339.650583 
L 663.4671 300.475217 
L 665.943614 256.355688 
L 670.896643 163.460581 
L 672.1349 143.363396 
L 673.373158 126.067928 
L 674.611415 111.823886 
L 675.849672 100.274847 
L 677.087929 90.542119 
L 678.326187 82.453343 
L 679.564444 77.32645 
L 680.802701 77.04655 
L 682.040959 82.324789 
L 683.279216 91.841787 
L 685.75573 113.0007 
L 686.993988 121.480748 
L 688.232245 128.566992 
L 689.470502 133.697742 
L 690.708759 135.703649 
L 691.947017 134.205081 
L 693.185274 129.908044 
L 696.900046 112.617862 
L 698.138303 109.412615 
L 699.37656 109.017002 
L 700.614818 111.698495 
L 701.853075 116.842564 
L 703.091332 122.604873 
L 704.329589 126.846706 
L 705.567847 128.737708 
L 706.806104 128.655171 
L 708.044361 126.844556 
L 709.282618 123.290133 
L 711.759133 113.69184 
L 712.99739 110.360091 
L 714.235648 109.98379 
L 715.473905 113.075727 
L 716.712162 118.686051 
L 719.188677 132.498252 
L 721.665191 146.352616 
L 722.903448 152.441303 
L 724.141706 157.273161 
L 725.379963 160.335318 
L 726.61822 161.826773 
L 727.856477 162.833428 
L 731.571249 166.842498 
L 732.809507 167.099824 
L 734.047764 166.329215 
L 735.286021 164.235226 
L 736.524278 161.189877 
L 737.762536 158.905143 
L 739.000793 159.292661 
L 740.23905 162.644347 
L 742.715565 172.659295 
L 743.953822 176.565547 
L 745.192079 178.810543 
L 747.668594 180.693797 
L 748.906851 182.898494 
L 750.145108 186.784648 
L 753.85988 202.05094 
L 756.336395 212.060771 
L 757.574652 216.295069 
L 761.289424 226.786733 
L 762.527681 231.351833 
L 765.004195 242.163833 
L 767.48071 253.501525 
L 768.718967 259.783118 
L 771.195482 274.399325 
L 776.148511 306.855828 
L 777.386768 312.187463 
L 778.625025 314.969639 
L 779.863283 315.8537 
L 781.10154 316.279599 
L 782.339797 317.184251 
L 783.578054 318.34161 
L 784.816312 319.040999 
L 786.054569 319.266359 
L 787.292826 320.056803 
L 788.531084 322.375842 
L 792.245855 333.333467 
L 793.484113 335.320829 
L 794.72237 335.291161 
L 795.960627 332.992762 
L 797.198884 328.375373 
L 799.675399 315.307863 
L 800.913656 311.016695 
L 802.151914 310.088031 
L 803.390171 311.885089 
L 805.866685 318.444793 
L 807.104943 320.543005 
L 808.3432 320.718839 
L 810.819714 318.265514 
L 812.057972 318.498997 
L 813.296229 320.648286 
L 815.772743 327.366946 
L 817.011001 329.817992 
L 818.249258 331.383396 
L 819.487515 332.353838 
L 820.725773 332.626994 
L 823.202287 331.78065 
L 824.440544 332.530056 
L 825.678802 334.918805 
L 829.393573 345.585142 
L 830.631831 347.487525 
L 831.870088 348.49769 
L 833.108345 349.137989 
L 834.346602 349.554275 
L 835.58486 349.482416 
L 836.823117 348.639641 
L 838.061374 347.200487 
L 839.299632 345.965793 
L 840.537889 345.873081 
L 841.776146 347.156405 
L 845.490918 353.153176 
L 846.729175 354.665922 
L 847.967432 355.724659 
L 849.20569 356.185597 
L 850.443947 356.108365 
L 851.682204 355.65429 
L 852.920461 354.866284 
L 854.158719 353.615545 
L 855.396976 351.755999 
L 856.635233 349.487846 
L 857.873491 347.504401 
L 859.111748 346.522022 
L 860.350005 346.699205 
L 861.588262 347.712664 
L 862.82652 349.31338 
L 864.064777 351.641218 
L 865.303034 354.933106 
L 869.017806 366.889374 
L 870.256063 369.169 
L 871.49432 370.095609 
L 872.732578 370.134266 
L 873.970835 369.732291 
L 875.209092 369.080993 
L 876.44735 368.177466 
L 878.923864 366.02514 
L 880.162121 365.290651 
L 882.638636 364.214964 
L 883.876893 363.421538 
L 887.591665 360.421715 
L 888.829922 360.123703 
L 890.06818 360.851538 
L 892.544694 363.645014 
L 893.782951 364.802529 
L 897.497723 367.330673 
L 898.73598 368.720253 
L 899.974238 370.685294 
L 902.450752 375.211036 
L 903.689009 376.82974 
L 904.927267 377.451711 
L 906.165524 376.833588 
L 907.403781 375.106667 
L 908.642039 372.678327 
L 912.35681 364.44965 
L 913.595068 362.812577 
L 914.833325 362.073124 
L 916.071582 361.99022 
L 917.309839 362.468633 
L 918.548097 363.326743 
L 919.786354 364.018759 
L 921.024611 363.996151 
L 922.262868 363.26069 
L 924.739383 361.278547 
L 925.97764 360.599503 
L 927.215898 360.608899 
L 928.454155 361.474497 
L 929.692412 362.671469 
L 930.930669 363.201241 
L 932.168927 362.140172 
L 933.407184 359.177469 
L 937.121956 346.504766 
L 938.360213 343.422513 
L 940.836727 338.656535 
L 942.074985 335.161853 
L 943.313242 329.607811 
L 944.551499 321.649999 
L 945.789757 311.760289 
L 948.266271 289.508019 
L 949.504528 277.513611 
L 950.742786 264.329445 
L 954.457557 220.246709 
L 955.695815 207.784628 
L 956.934072 198.297893 
L 958.172329 192.44114 
L 959.410586 190.287521 
L 960.648844 191.672483 
L 961.887101 196.882056 
L 963.125358 206.70282 
L 964.363616 221.937684 
L 965.601873 242.515619 
L 968.078387 288.694633 
L 969.316645 307.038064 
L 970.554902 320.931284 
L 971.793159 332.1077 
L 973.031416 341.885193 
L 974.269674 349.918683 
L 975.507931 355.382833 
L 976.746188 358.357778 
L 977.984446 359.305352 
L 979.222703 357.878145 
L 980.46096 352.424369 
L 981.699217 340.077789 
L 982.937475 317.745622 
L 984.175732 285.028488 
L 986.652246 212.620603 
L 987.890504 186.541995 
L 989.128761 169.170228 
L 990.367018 158.414414 
L 991.605275 151.844678 
L 992.843533 147.431678 
L 994.08179 143.966256 
L 995.320047 141.341067 
L 996.558305 140.382251 
L 997.796562 141.904614 
L 999.034819 146.161811 
L 1000.273076 153.525779 
L 1001.511334 164.715499 
L 1002.749591 179.613905 
L 1003.987848 196.141995 
L 1005.226105 210.408336 
L 1006.464363 218.914595 
L 1007.70262 221.257509 
L 1008.940877 561.202423 
L 1021.32345 561.202423 
L 1022.561707 139.765225 
L 1023.799964 109.79902 
L 1025.038222 85.52647 
L 1026.276479 70.002094 
L 1027.514736 63.563755 
L 1028.752993 561.202423 
L 1029.991251 74.841953 
L 1031.229508 88.580913 
L 1032.467765 561.202423 
L 1033.706023 116.911252 
L 1034.94428 127.687314 
L 1036.182537 136.399358 
L 1037.420794 561.202423 
L 1038.659052 152.62773 
L 1039.897309 160.085761 
L 1041.135566 165.272671 
L 1042.373823 167.166685 
L 1043.612081 165.688514 
L 1044.850338 160.817337 
L 1046.088595 561.202423 
L 1047.326852 140.740797 
L 1049.803367 114.733504 
L 1051.041624 104.223888 
L 1052.279882 97.072969 
L 1054.756396 88.369636 
L 1055.994653 82.626958 
L 1058.471168 67.893137 
L 1059.709425 63.837538 
L 1060.947682 561.202423 
L 1062.18594 561.202423 
L 1063.424197 87.307574 
L 1065.900711 119.518881 
L 1067.138969 133.396161 
L 1068.377226 145.392182 
L 1069.615483 155.855052 
L 1070.853741 164.451107 
L 1072.091998 170.454918 
L 1073.330255 173.900316 
L 1074.568512 175.563875 
L 1075.80677 175.810521 
L 1077.045027 175.009587 
L 1078.283284 174.594304 
L 1079.521541 176.032472 
L 1080.759799 179.783209 
L 1081.998056 185.940693 
L 1083.236313 194.283518 
L 1084.474571 203.490049 
L 1085.712828 211.436748 
L 1086.951085 216.182672 
L 1088.189342 216.345983 
L 1089.4276 211.433003 
L 1090.665857 202.278351 
L 1093.142371 177.75971 
L 1094.380629 165.817312 
L 1095.618886 561.202423 
L 1096.857143 147.685298 
L 1098.0954 139.120549 
L 1099.333658 128.587243 
L 1101.810172 103.894805 
L 1103.04843 93.995999 
L 1104.286687 86.97248 
L 1105.524944 81.650091 
L 1106.763201 77.009373 
L 1108.001459 73.079914 
L 1109.239716 70.230921 
L 1110.477973 68.306306 
L 1111.71623 66.900526 
L 1112.954488 65.758957 
L 1114.192745 64.2758 
L 1115.431002 61.588887 
L 1119.145774 50.230611 
L 1120.384031 48.097635 
L 1121.622289 47.979282 
L 1122.860546 50.515465 
L 1124.098803 55.177774 
L 1125.33706 60.28877 
L 1126.575318 64.232799 
L 1127.813575 66.344806 
L 1130.290089 68.005403 
L 1131.528347 70.309777 
L 1132.766604 74.031079 
L 1134.004861 78.199032 
L 1135.243118 81.88998 
L 1136.481376 84.732789 
L 1137.719633 86.69929 
L 1138.95789 87.678695 
L 1140.196148 87.532896 
L 1141.434405 86.359816 
L 1145.149177 80.806076 
L 1146.387434 79.880273 
L 1147.625691 79.571932 
L 1148.863948 80.001666 
L 1150.102206 81.678267 
L 1152.57872 87.929308 
L 1153.816977 90.071129 
L 1156.293492 91.761289 
L 1157.531749 94.232653 
L 1158.770007 98.751822 
L 1161.246521 109.795024 
L 1162.484778 113.725993 
L 1163.723036 115.41261 
L 1164.961293 114.154938 
L 1166.19955 109.452117 
L 1168.676065 93.809228 
L 1169.914322 88.210457 
L 1171.152579 87.373096 
L 1172.390837 92.606574 
L 1173.629094 105.026486 
L 1174.867351 125.482044 
L 1176.105608 153.438601 
L 1179.82038 249.138185 
L 1181.058637 270.786288 
L 1182.296895 282.005172 
L 1183.535152 282.080322 
L 1184.773409 271.561633 
L 1186.011666 250.97965 
L 1187.249924 221.426272 
L 1188.488181 187.632059 
L 1189.726438 157.373452 
L 1190.964696 136.029984 
L 1192.202953 124.228702 
L 1193.44121 561.202423 
L 1194.679467 120.623943 
L 1195.917725 123.800502 
L 1197.155982 127.728726 
L 1198.394239 131.108613 
L 1200.870754 135.585645 
L 1202.109011 138.809265 
L 1203.347268 143.609409 
L 1204.585525 148.964118 
L 1205.823783 153.031411 
L 1207.06204 154.522146 
L 1208.300297 153.581015 
L 1209.538555 151.277736 
L 1210.776812 148.332888 
L 1212.015069 144.807632 
L 1214.491584 136.820523 
L 1216.968098 129.952853 
L 1218.206355 127.01494 
L 1219.444613 124.921674 
L 1220.68287 123.971111 
L 1223.159384 123.584235 
L 1224.397642 122.82589 
L 1225.635899 121.382382 
L 1226.874156 119.410413 
L 1228.112414 116.931781 
L 1229.350671 113.651874 
L 1230.588928 109.685407 
L 1231.827185 106.330782 
L 1233.065443 104.951528 
L 1234.3037 104.938212 
L 1235.541957 104.027381 
L 1236.780214 100.856612 
L 1238.018472 96.220029 
L 1239.256729 92.05637 
L 1240.494986 90.234673 
L 1241.733243 92.147896 
L 1242.971501 98.515713 
L 1244.209758 109.030405 
L 1246.686273 135.50449 
L 1247.92453 146.724139 
L 1249.162787 154.833102 
L 1250.401044 160.632863 
L 1251.639302 165.507067 
L 1252.877559 169.833892 
L 1254.115816 173.007431 
L 1255.354073 174.530314 
L 1256.592331 174.52204 
L 1257.830588 173.727098 
L 1259.068845 173.362411 
L 1260.307103 174.298361 
L 1262.783617 178.024995 
L 1264.021874 178.818774 
L 1265.260132 178.408296 
L 1267.736646 176.064708 
L 1268.974903 175.963106 
L 1270.213161 177.211265 
L 1271.451418 179.479903 
L 1272.689675 182.05754 
L 1273.927932 183.987208 
L 1275.16619 184.159272 
L 1276.404447 181.871003 
L 1277.642704 177.588921 
L 1278.880962 172.669549 
L 1280.119219 168.389729 
L 1281.357476 165.532966 
L 1282.595733 164.352041 
L 1283.833991 164.427188 
L 1285.072248 164.946348 
L 1286.310505 165.667446 
L 1287.548762 167.145206 
L 1288.78702 169.71106 
L 1291.263534 176.295092 
L 1292.501791 179.013357 
L 1294.978306 183.262858 
L 1296.216563 186.283941 
L 1297.454821 189.837673 
L 1298.693078 192.932604 
L 1299.931335 194.937832 
L 1301.169592 196.039052 
L 1302.40785 196.888003 
L 1303.646107 197.963099 
L 1304.884364 199.340693 
L 1306.122621 561.202423 
L 1307.360879 202.233296 
L 1308.599136 203.206624 
L 1309.837393 203.853031 
L 1311.07565 204.252533 
L 1312.313908 204.202223 
L 1313.552165 203.526942 
L 1314.790422 202.701175 
L 1316.02868 202.714343 
L 1317.266937 204.021747 
L 1318.505194 205.939725 
L 1319.743451 207.448434 
L 1320.981709 208.30504 
L 1322.219966 208.724561 
L 1323.458223 208.550972 
L 1324.69648 207.538134 
L 1325.934738 205.778316 
L 1327.172995 203.689811 
L 1328.411252 202.007243 
L 1329.649509 201.442315 
L 1330.887767 202.29663 
L 1332.126024 204.550728 
L 1333.364281 208.061962 
L 1335.840796 216.780998 
L 1337.079053 220.235792 
L 1339.555568 225.42038 
L 1340.793825 229.059449 
L 1344.508597 243.598964 
L 1345.746854 245.76384 
L 1346.985111 245.511779 
L 1349.461626 241.831213 
L 1350.699883 240.77533 
L 1351.93814 241.190427 
L 1353.176398 243.731178 
L 1354.414655 249.343632 
L 1355.652912 258.56437 
L 1358.129427 281.972722 
L 1359.367684 290.788668 
L 1360.605941 295.497939 
L 1361.844198 296.187205 
L 1363.082456 293.885695 
L 1364.320713 289.995097 
L 1368.035485 276.714432 
L 1369.273742 273.335081 
L 1371.750257 268.790211 
L 1372.988514 265.863162 
L 1374.226771 261.762779 
L 1376.703286 251.886972 
L 1377.941543 248.787883 
L 1379.1798 248.783563 
L 1380.418057 251.783428 
L 1382.894572 261.227819 
L 1384.132829 264.50461 
L 1385.371087 265.40593 
L 1386.609344 264.007337 
L 1387.847601 261.546254 
L 1389.085858 259.549967 
L 1390.324116 258.689987 
L 1391.562373 258.750841 
L 1392.80063 259.199536 
L 1394.038887 259.492685 
L 1395.277145 259.285727 
L 1396.515402 258.617111 
L 1397.753659 257.817711 
L 1398.991916 257.292391 
L 1400.230174 257.538957 
L 1401.468431 259.148859 
L 1402.706688 262.302239 
L 1405.183203 269.903004 
L 1406.42146 272.686818 
L 1407.659717 274.64703 
L 1408.897975 275.844622 
L 1410.136232 276.389221 
L 1411.374489 276.521364 
L 1416.327518 276.274303 
L 1417.565775 275.425991 
L 1418.804033 273.709477 
L 1420.04229 271.230246 
L 1422.518805 264.464896 
L 1423.757062 261.828846 
L 1424.995319 260.588672 
L 1426.233576 260.288959 
L 1427.471834 260.194216 
L 1429.948348 259.424445 
L 1431.186605 259.492536 
L 1432.424863 260.415144 
L 1434.901377 263.433431 
L 1436.139634 264.193309 
L 1437.377892 263.613286 
L 1438.616149 261.611269 
L 1439.854406 258.935956 
L 1441.092664 256.855632 
L 1442.330921 256.46776 
L 1443.569178 258.193302 
L 1448.522207 270.90736 
L 1449.760464 273.523039 
L 1450.998722 275.607715 
L 1452.236979 276.084259 
L 1453.475236 274.022233 
L 1454.713494 269.666325 
L 1455.951751 264.609106 
L 1457.190008 261.090477 
L 1458.428265 260.778624 
L 1459.666523 263.793532 
L 1460.90478 268.625389 
L 1462.143037 272.962496 
L 1463.381294 275.185324 
L 1464.619552 275.532699 
L 1465.857809 275.587749 
L 1467.096066 276.662973 
L 1468.334323 278.986849 
L 1469.572581 281.872658 
L 1470.810838 284.246188 
L 1472.049095 285.421238 
L 1473.287353 285.305234 
L 1474.52561 284.030292 
L 1475.763867 281.837182 
L 1477.002124 278.793313 
L 1478.240382 274.563994 
L 1480.716896 263.552398 
L 1481.955153 259.389505 
L 1483.193411 257.18758 
L 1485.669925 255.158294 
L 1486.908182 254.386576 
L 1488.14644 254.687042 
L 1489.384697 256.61275 
L 1493.099469 265.871437 
L 1494.337726 267.655147 
L 1495.575983 268.800043 
L 1496.814241 269.569459 
L 1498.052498 269.821934 
L 1499.290755 269.640949 
L 1500.529012 269.844535 
L 1501.76727 271.5978 
L 1503.005527 275.586899 
L 1505.482041 287.233803 
L 1506.720299 291.651525 
L 1507.958556 294.023934 
L 1509.196813 295.224085 
L 1510.435071 296.725167 
L 1511.673328 299.342359 
L 1514.149842 306.087952 
L 1515.3881 308.728754 
L 1516.626357 310.63801 
L 1520.341129 314.984124 
L 1521.579386 316.308726 
L 1524.0559 318.328747 
L 1525.294158 319.912519 
L 1526.532415 322.565607 
L 1529.00893 328.93208 
L 1530.247187 331.405527 
L 1532.723701 335.705389 
L 1535.200216 341.055585 
L 1536.438473 343.052563 
L 1537.67673 343.228935 
L 1538.914988 341.104109 
L 1540.153245 337.100458 
L 1541.391502 332.205335 
L 1542.62976 327.772608 
L 1543.868017 325.095982 
L 1545.106274 324.583839 
L 1546.344531 325.663196 
L 1548.821046 329.185267 
L 1552.535818 333.687239 
L 1553.774075 335.788396 
L 1557.488847 343.421761 
L 1559.965361 348.157057 
L 1564.91839 358.602481 
L 1566.156648 360.32168 
L 1567.394905 361.409966 
L 1568.633162 361.927958 
L 1569.871419 361.876686 
L 1572.347934 361.161529 
L 1574.824448 360.939216 
L 1576.062706 360.403667 
L 1577.300963 359.498491 
L 1578.53922 358.278673 
L 1581.015735 355.558702 
L 1582.253992 354.786302 
L 1583.492249 354.832066 
L 1584.730507 355.803471 
L 1585.968764 357.320221 
L 1587.207021 358.470297 
L 1588.445278 358.480683 
L 1589.683536 357.279094 
L 1592.16005 353.318848 
L 1593.398307 351.78914 
L 1594.636565 350.951364 
L 1595.874822 350.738961 
L 1597.113079 351.028042 
L 1598.351337 351.628006 
L 1599.589594 352.378461 
L 1600.827851 353.445184 
L 1602.066108 355.229241 
L 1605.78088 362.872546 
L 1607.019137 363.862459 
L 1608.257395 363.523719 
L 1609.495652 362.095738 
L 1610.733909 359.902107 
L 1613.210424 354.872911 
L 1614.448681 353.451201 
L 1615.686938 353.660682 
L 1616.925196 355.546369 
L 1619.40171 361.424769 
L 1620.639967 363.258042 
L 1621.878225 363.344221 
L 1623.116482 361.865747 
L 1626.831254 355.048142 
L 1628.069511 353.334241 
L 1629.307768 352.092247 
L 1630.546026 351.495307 
L 1631.784283 351.852487 
L 1633.02254 353.43577 
L 1635.499055 358.657522 
L 1637.975569 362.902956 
L 1639.213826 365.967217 
L 1640.452084 370.560198 
L 1641.690341 376.325176 
L 1641.690341 376.325176 
" style="fill:none;stroke:#008000;stroke-linecap:square;stroke-width:1.5;"/>
   </g>
   <g id="patch_3">
    <path d="M 43.78125 586.86358 
L 43.78125 22.318125 
" style="fill:none;stroke:#000000;stroke-linecap:square;stroke-linejoin:miter;stroke-width:0.8;"/>
   </g>
   <g id="patch_4">
    <path d="M 1717.78125 586.86358 
L 1717.78125 22.318125 
" style="fill:none;stroke:#000000;stroke-linecap:square;stroke-linejoin:miter;stroke-width:0.8;"/>
   </g>
   <g id="patch_5">
    <path d="M 43.78125 586.86358 
L 1717.78125 586.86358 
" style="fill:none;stroke:#000000;stroke-linecap:square;stroke-linejoin:miter;stroke-width:0.8;"/>
   </g>
   <g id="patch_6">
    <path d="M 43.78125 22.318125 
L 1717.78125 22.318125 
" style="fill:none;stroke:#000000;stroke-linecap:square;stroke-linejoin:miter;stroke-width:0.8;"/>
   </g>
   <g id="text_19">
    <!-- before binarisation -->
    <g transform="translate(824.1825 16.318125)scale(0.12 -0.12)">
     <defs>
      <path d="M 3116 1747 
Q 3116 2381 2855 2742 
Q 2594 3103 2138 3103 
Q 1681 3103 1420 2742 
Q 1159 2381 1159 1747 
Q 1159 1113 1420 752 
Q 1681 391 2138 391 
Q 2594 391 2855 752 
Q 3116 1113 3116 1747 
z
M 1159 2969 
Q 1341 3281 1617 3432 
Q 1894 3584 2278 3584 
Q 2916 3584 3314 3078 
Q 3713 2572 3713 1747 
Q 3713 922 3314 415 
Q 2916 -91 2278 -91 
Q 1894 -91 1617 61 
Q 1341 213 1159 525 
L 1159 0 
L 581 0 
L 581 4863 
L 1159 4863 
L 1159 2969 
z
" id="DejaVuSans-62" transform="scale(0.015625)"/>
      <path d="M 1959 3097 
Q 1497 3097 1228 2736 
Q 959 2375 959 1747 
Q 959 1119 1226 758 
Q 1494 397 1959 397 
Q 2419 397 2687 759 
Q 2956 1122 2956 1747 
Q 2956 2369 2687 2733 
Q 2419 3097 1959 3097 
z
M 1959 3584 
Q 2709 3584 3137 3096 
Q 3566 2609 3566 1747 
Q 3566 888 3137 398 
Q 2709 -91 1959 -91 
Q 1206 -91 779 398 
Q 353 888 353 1747 
Q 353 2609 779 3096 
Q 1206 3584 1959 3584 
z
" id="DejaVuSans-6f" transform="scale(0.015625)"/>
      <path id="DejaVuSans-20" transform="scale(0.015625)"/>
      <path d="M 603 3500 
L 1178 3500 
L 1178 0 
L 603 0 
L 603 3500 
z
M 603 4863 
L 1178 4863 
L 1178 4134 
L 603 4134 
L 603 4863 
z
" id="DejaVuSans-69" transform="scale(0.015625)"/>
      <path d="M 3513 2113 
L 3513 0 
L 2938 0 
L 2938 2094 
Q 2938 2591 2744 2837 
Q 2550 3084 2163 3084 
Q 1697 3084 1428 2787 
Q 1159 2491 1159 1978 
L 1159 0 
L 581 0 
L 581 3500 
L 1159 3500 
L 1159 2956 
Q 1366 3272 1645 3428 
Q 1925 3584 2291 3584 
Q 2894 3584 3203 3211 
Q 3513 2838 3513 2113 
z
" id="DejaVuSans-6e" transform="scale(0.015625)"/>
      <path d="M 2834 3397 
L 2834 2853 
Q 2591 2978 2328 3040 
Q 2066 3103 1784 3103 
Q 1356 3103 1142 2972 
Q 928 2841 928 2578 
Q 928 2378 1081 2264 
Q 1234 2150 1697 2047 
L 1894 2003 
Q 2506 1872 2764 1633 
Q 3022 1394 3022 966 
Q 3022 478 2636 193 
Q 2250 -91 1575 -91 
Q 1294 -91 989 -36 
Q 684 19 347 128 
L 347 722 
Q 666 556 975 473 
Q 1284 391 1588 391 
Q 1994 391 2212 530 
Q 2431 669 2431 922 
Q 2431 1156 2273 1281 
Q 2116 1406 1581 1522 
L 1381 1569 
Q 847 1681 609 1914 
Q 372 2147 372 2553 
Q 372 3047 722 3315 
Q 1072 3584 1716 3584 
Q 2034 3584 2315 3537 
Q 2597 3491 2834 3397 
z
" id="DejaVuSans-73" transform="scale(0.015625)"/>
      <path d="M 1172 4494 
L 1172 3500 
L 2356 3500 
L 2356 3053 
L 1172 3053 
L 1172 1153 
Q 1172 725 1289 603 
Q 1406 481 1766 481 
L 2356 481 
L 2356 0 
L 1766 0 
Q 1100 0 847 248 
Q 594 497 594 1153 
L 594 3053 
L 172 3053 
L 172 3500 
L 594 3500 
L 594 4494 
L 1172 4494 
z
" id="DejaVuSans-74" transform="scale(0.015625)"/>
     </defs>
     <use xlink:href="#DejaVuSans-62"/>
     <use x="63.476562" xlink:href="#DejaVuSans-65"/>
     <use x="125" xlink:href="#DejaVuSans-66"/>
     <use x="160.205078" xlink:href="#DejaVuSans-6f"/>
     <use x="221.386719" xlink:href="#DejaVuSans-72"/>
     <use x="260.25" xlink:href="#DejaVuSans-65"/>
     <use x="321.773438" xlink:href="#DejaVuSans-20"/>
     <use x="353.560547" xlink:href="#DejaVuSans-62"/>
     <use x="417.037109" xlink:href="#DejaVuSans-69"/>
     <use x="444.820312" xlink:href="#DejaVuSans-6e"/>
     <use x="508.199219" xlink:href="#DejaVuSans-61"/>
     <use x="569.478516" xlink:href="#DejaVuSans-72"/>
     <use x="610.591797" xlink:href="#DejaVuSans-69"/>
     <use x="638.375" xlink:href="#DejaVuSans-73"/>
     <use x="690.474609" xlink:href="#DejaVuSans-61"/>
     <use x="751.753906" xlink:href="#DejaVuSans-74"/>
     <use x="790.962891" xlink:href="#DejaVuSans-69"/>
     <use x="818.746094" xlink:href="#DejaVuSans-6f"/>
     <use x="879.927734" xlink:href="#DejaVuSans-6e"/>
    </g>
   </g>
  </g>
  <g id="axes_2">
   <g id="patch_7">
    <path d="M 43.78125 1264.318125 
L 1717.78125 1264.318125 
L 1717.78125 699.77267 
L 43.78125 699.77267 
z
" style="fill:#ffffff;"/>
   </g>
   <g id="matplotlib.axis_3">
    <g id="xtick_8">
     <g id="line2d_18">
      <g>
       <use style="stroke:#000000;stroke-width:0.8;" x="119.872159" xlink:href="#m27a8585923" y="1264.318125"/>
      </g>
     </g>
     <g id="text_20">
      <!-- 0 -->
      <g transform="translate(116.690909 1278.916563)scale(0.1 -0.1)">
       <use xlink:href="#DejaVuSans-30"/>
      </g>
     </g>
    </g>
    <g id="xtick_9">
     <g id="line2d_19">
      <g>
       <use style="stroke:#000000;stroke-width:0.8;" x="367.523613" xlink:href="#m27a8585923" y="1264.318125"/>
      </g>
     </g>
     <g id="text_21">
      <!-- 200 -->
      <g transform="translate(357.979863 1278.916563)scale(0.1 -0.1)">
       <use xlink:href="#DejaVuSans-32"/>
       <use x="63.623047" xlink:href="#DejaVuSans-30"/>
       <use x="127.246094" xlink:href="#DejaVuSans-30"/>
      </g>
     </g>
    </g>
    <g id="xtick_10">
     <g id="line2d_20">
      <g>
       <use style="stroke:#000000;stroke-width:0.8;" x="615.175066" xlink:href="#m27a8585923" y="1264.318125"/>
      </g>
     </g>
     <g id="text_22">
      <!-- 400 -->
      <g transform="translate(605.631316 1278.916563)scale(0.1 -0.1)">
       <use xlink:href="#DejaVuSans-34"/>
       <use x="63.623047" xlink:href="#DejaVuSans-30"/>
       <use x="127.246094" xlink:href="#DejaVuSans-30"/>
      </g>
     </g>
    </g>
    <g id="xtick_11">
     <g id="line2d_21">
      <g>
       <use style="stroke:#000000;stroke-width:0.8;" x="862.82652" xlink:href="#m27a8585923" y="1264.318125"/>
      </g>
     </g>
     <g id="text_23">
      <!-- 600 -->
      <g transform="translate(853.28277 1278.916563)scale(0.1 -0.1)">
       <use xlink:href="#DejaVuSans-36"/>
       <use x="63.623047" xlink:href="#DejaVuSans-30"/>
       <use x="127.246094" xlink:href="#DejaVuSans-30"/>
      </g>
     </g>
    </g>
    <g id="xtick_12">
     <g id="line2d_22">
      <g>
       <use style="stroke:#000000;stroke-width:0.8;" x="1110.477973" xlink:href="#m27a8585923" y="1264.318125"/>
      </g>
     </g>
     <g id="text_24">
      <!-- 800 -->
      <g transform="translate(1100.934223 1278.916563)scale(0.1 -0.1)">
       <use xlink:href="#DejaVuSans-38"/>
       <use x="63.623047" xlink:href="#DejaVuSans-30"/>
       <use x="127.246094" xlink:href="#DejaVuSans-30"/>
      </g>
     </g>
    </g>
    <g id="xtick_13">
     <g id="line2d_23">
      <g>
       <use style="stroke:#000000;stroke-width:0.8;" x="1358.129427" xlink:href="#m27a8585923" y="1264.318125"/>
      </g>
     </g>
     <g id="text_25">
      <!-- 1000 -->
      <g transform="translate(1345.404427 1278.916563)scale(0.1 -0.1)">
       <use xlink:href="#DejaVuSans-31"/>
       <use x="63.623047" xlink:href="#DejaVuSans-30"/>
       <use x="127.246094" xlink:href="#DejaVuSans-30"/>
       <use x="190.869141" xlink:href="#DejaVuSans-30"/>
      </g>
     </g>
    </g>
    <g id="xtick_14">
     <g id="line2d_24">
      <g>
       <use style="stroke:#000000;stroke-width:0.8;" x="1605.78088" xlink:href="#m27a8585923" y="1264.318125"/>
      </g>
     </g>
     <g id="text_26">
      <!-- 1200 -->
      <g transform="translate(1593.05588 1278.916563)scale(0.1 -0.1)">
       <use xlink:href="#DejaVuSans-31"/>
       <use x="63.623047" xlink:href="#DejaVuSans-32"/>
       <use x="127.246094" xlink:href="#DejaVuSans-30"/>
       <use x="190.869141" xlink:href="#DejaVuSans-30"/>
      </g>
     </g>
    </g>
    <g id="text_27">
     <!-- frame -->
     <g transform="translate(865.954687 1292.594688)scale(0.1 -0.1)">
      <use xlink:href="#DejaVuSans-66"/>
      <use x="35.205078" xlink:href="#DejaVuSans-72"/>
      <use x="76.318359" xlink:href="#DejaVuSans-61"/>
      <use x="137.597656" xlink:href="#DejaVuSans-6d"/>
      <use x="235.009766" xlink:href="#DejaVuSans-65"/>
     </g>
    </g>
   </g>
   <g id="matplotlib.axis_4">
    <g id="ytick_10">
     <g id="line2d_25">
      <g>
       <use style="stroke:#000000;stroke-width:0.8;" x="43.78125" xlink:href="#m9663d478e8" y="1238.656968"/>
      </g>
     </g>
     <g id="text_28">
      <!-- 0.0 -->
      <g transform="translate(20.878125 1242.456187)scale(0.1 -0.1)">
       <use xlink:href="#DejaVuSans-30"/>
       <use x="63.623047" xlink:href="#DejaVuSans-2e"/>
       <use x="95.410156" xlink:href="#DejaVuSans-30"/>
      </g>
     </g>
    </g>
    <g id="ytick_11">
     <g id="line2d_26">
      <g>
       <use style="stroke:#000000;stroke-width:0.8;" x="43.78125" xlink:href="#m9663d478e8" y="1136.01234"/>
      </g>
     </g>
     <g id="text_29">
      <!-- 0.2 -->
      <g transform="translate(20.878125 1139.811559)scale(0.1 -0.1)">
       <use xlink:href="#DejaVuSans-30"/>
       <use x="63.623047" xlink:href="#DejaVuSans-2e"/>
       <use x="95.410156" xlink:href="#DejaVuSans-32"/>
      </g>
     </g>
    </g>
    <g id="ytick_12">
     <g id="line2d_27">
      <g>
       <use style="stroke:#000000;stroke-width:0.8;" x="43.78125" xlink:href="#m9663d478e8" y="1033.367712"/>
      </g>
     </g>
     <g id="text_30">
      <!-- 0.4 -->
      <g transform="translate(20.878125 1037.166931)scale(0.1 -0.1)">
       <use xlink:href="#DejaVuSans-30"/>
       <use x="63.623047" xlink:href="#DejaVuSans-2e"/>
       <use x="95.410156" xlink:href="#DejaVuSans-34"/>
      </g>
     </g>
    </g>
    <g id="ytick_13">
     <g id="line2d_28">
      <g>
       <use style="stroke:#000000;stroke-width:0.8;" x="43.78125" xlink:href="#m9663d478e8" y="930.723084"/>
      </g>
     </g>
     <g id="text_31">
      <!-- 0.6 -->
      <g transform="translate(20.878125 934.522302)scale(0.1 -0.1)">
       <use xlink:href="#DejaVuSans-30"/>
       <use x="63.623047" xlink:href="#DejaVuSans-2e"/>
       <use x="95.410156" xlink:href="#DejaVuSans-36"/>
      </g>
     </g>
    </g>
    <g id="ytick_14">
     <g id="line2d_29">
      <g>
       <use style="stroke:#000000;stroke-width:0.8;" x="43.78125" xlink:href="#m9663d478e8" y="828.078456"/>
      </g>
     </g>
     <g id="text_32">
      <!-- 0.8 -->
      <g transform="translate(20.878125 831.877674)scale(0.1 -0.1)">
       <use xlink:href="#DejaVuSans-30"/>
       <use x="63.623047" xlink:href="#DejaVuSans-2e"/>
       <use x="95.410156" xlink:href="#DejaVuSans-38"/>
      </g>
     </g>
    </g>
    <g id="ytick_15">
     <g id="line2d_30">
      <g>
       <use style="stroke:#000000;stroke-width:0.8;" x="43.78125" xlink:href="#m9663d478e8" y="725.433827"/>
      </g>
     </g>
     <g id="text_33">
      <!-- 1.0 -->
      <g transform="translate(20.878125 729.233046)scale(0.1 -0.1)">
       <use xlink:href="#DejaVuSans-31"/>
       <use x="63.623047" xlink:href="#DejaVuSans-2e"/>
       <use x="95.410156" xlink:href="#DejaVuSans-30"/>
      </g>
     </g>
    </g>
    <g id="text_34">
     <!-- GCaMP -->
     <g transform="translate(14.798437 999.803991)rotate(-90)scale(0.1 -0.1)">
      <use xlink:href="#DejaVuSans-47"/>
      <use x="77.490234" xlink:href="#DejaVuSans-43"/>
      <use x="147.314453" xlink:href="#DejaVuSans-61"/>
      <use x="208.59375" xlink:href="#DejaVuSans-4d"/>
      <use x="294.873047" xlink:href="#DejaVuSans-50"/>
     </g>
    </g>
   </g>
   <g id="line2d_31">
    <path clip-path="url(#p8a35e34450)" d="M 119.872159 1238.656968 
L 668.420129 1238.656968 
L 669.658386 725.433827 
L 750.145108 725.433827 
L 751.383366 1238.656968 
L 986.652246 1238.656968 
L 987.890504 725.433827 
L 1002.749591 725.433827 
L 1003.987848 1238.656968 
L 1021.32345 1238.656968 
L 1022.561707 725.433827 
L 1027.514736 725.433827 
L 1028.752993 1238.656968 
L 1029.991251 725.433827 
L 1031.229508 725.433827 
L 1032.467765 1238.656968 
L 1033.706023 725.433827 
L 1036.182537 725.433827 
L 1037.420794 1238.656968 
L 1038.659052 725.433827 
L 1044.850338 725.433827 
L 1046.088595 1238.656968 
L 1047.326852 725.433827 
L 1059.709425 725.433827 
L 1060.947682 1238.656968 
L 1062.18594 1238.656968 
L 1063.424197 725.433827 
L 1081.998056 725.433827 
L 1083.236313 1238.656968 
L 1091.904114 1238.656968 
L 1093.142371 725.433827 
L 1094.380629 725.433827 
L 1095.618886 1238.656968 
L 1096.857143 725.433827 
L 1177.343866 725.433827 
L 1178.582123 1238.656968 
L 1187.249924 1238.656968 
L 1188.488181 725.433827 
L 1192.202953 725.433827 
L 1193.44121 1238.656968 
L 1194.679467 725.433827 
L 1296.216563 725.433827 
L 1297.454821 1238.656968 
L 1641.690341 1238.656968 
L 1641.690341 1238.656968 
" style="fill:none;stroke:#008000;stroke-linecap:square;stroke-width:1.5;"/>
   </g>
   <g id="patch_8">
    <path d="M 43.78125 1264.318125 
L 43.78125 699.77267 
" style="fill:none;stroke:#000000;stroke-linecap:square;stroke-linejoin:miter;stroke-width:0.8;"/>
   </g>
   <g id="patch_9">
    <path d="M 1717.78125 1264.318125 
L 1717.78125 699.77267 
" style="fill:none;stroke:#000000;stroke-linecap:square;stroke-linejoin:miter;stroke-width:0.8;"/>
   </g>
   <g id="patch_10">
    <path d="M 43.78125 1264.318125 
L 1717.78125 1264.318125 
" style="fill:none;stroke:#000000;stroke-linecap:square;stroke-linejoin:miter;stroke-width:0.8;"/>
   </g>
   <g id="patch_11">
    <path d="M 43.78125 699.77267 
L 1717.78125 699.77267 
" style="fill:none;stroke:#000000;stroke-linecap:square;stroke-linejoin:miter;stroke-width:0.8;"/>
   </g>
   <g id="text_35">
    <!-- before binarisation -->
    <g transform="translate(824.1825 693.77267)scale(0.12 -0.12)">
     <use xlink:href="#DejaVuSans-62"/>
     <use x="63.476562" xlink:href="#DejaVuSans-65"/>
     <use x="125" xlink:href="#DejaVuSans-66"/>
     <use x="160.205078" xlink:href="#DejaVuSans-6f"/>
     <use x="221.386719" xlink:href="#DejaVuSans-72"/>
     <use x="260.25" xlink:href="#DejaVuSans-65"/>
     <use x="321.773438" xlink:href="#DejaVuSans-20"/>
     <use x="353.560547" xlink:href="#DejaVuSans-62"/>
     <use x="417.037109" xlink:href="#DejaVuSans-69"/>
     <use x="444.820312" xlink:href="#DejaVuSans-6e"/>
     <use x="508.199219" xlink:href="#DejaVuSans-61"/>
     <use x="569.478516" xlink:href="#DejaVuSans-72"/>
     <use x="610.591797" xlink:href="#DejaVuSans-69"/>
     <use x="638.375" xlink:href="#DejaVuSans-73"/>
     <use x="690.474609" xlink:href="#DejaVuSans-61"/>
     <use x="751.753906" xlink:href="#DejaVuSans-74"/>
     <use x="790.962891" xlink:href="#DejaVuSans-69"/>
     <use x="818.746094" xlink:href="#DejaVuSans-6f"/>
     <use x="879.927734" xlink:href="#DejaVuSans-6e"/>
    </g>
   </g>
  </g>
 </g>
 <defs>
  <clipPath id="p578258d5fc">
   <rect height="564.545455" width="1674" x="43.78125" y="22.318125"/>
  </clipPath>
  <clipPath id="p8a35e34450">
   <rect height="564.545455" width="1674" x="43.78125" y="699.77267"/>
  </clipPath>
 </defs>
</svg>
