<?xml version="1.0" encoding="utf-8" standalone="no"?>
<!DOCTYPE svg PUBLIC "-//W3C//DTD SVG 1.1//EN"
  "http://www.w3.org/Graphics/SVG/1.1/DTD/svg11.dtd">
<svg height="1301.874375pt" version="1.1" viewBox="0 0 1724.98125 1301.874375" width="1724.98125pt" xmlns="http://www.w3.org/2000/svg" xmlns:xlink="http://www.w3.org/1999/xlink">
 <metadata>
  <rdf:RDF xmlns:cc="http://creativecommons.org/ns#" xmlns:dc="http://purl.org/dc/elements/1.1/" xmlns:rdf="http://www.w3.org/1999/02/22-rdf-syntax-ns#">
   <cc:Work>
    <dc:type rdf:resource="http://purl.org/dc/dcmitype/StillImage"/>
    <dc:date>2022-07-24T15:54:38.513296</dc:date>
    <dc:format>image/svg+xml</dc:format>
    <dc:creator>
     <cc:Agent>
      <dc:title>Matplotlib v3.4.2, https://matplotlib.org/</dc:title>
     </cc:Agent>
    </dc:creator>
   </cc:Work>
  </rdf:RDF>
 </metadata>
 <defs>
  <style type="text/css">*{stroke-linecap:butt;stroke-linejoin:round;}</style>
 </defs>
 <g id="figure_1">
  <g id="patch_1">
   <path d="M 0 1301.874375 
L 1724.98125 1301.874375 
L 1724.98125 0 
L 0 0 
z
" style="fill:#ffffff;"/>
  </g>
  <g id="axes_1">
   <g id="patch_2">
    <path d="M 43.78125 586.86358 
L 1717.78125 586.86358 
L 1717.78125 22.318125 
L 43.78125 22.318125 
z
" style="fill:#ffffff;"/>
   </g>
   <g id="matplotlib.axis_1">
    <g id="xtick_1">
     <g id="line2d_1">
      <defs>
       <path d="M 0 0 
L 0 3.5 
" id="mbb41732957" style="stroke:#000000;stroke-width:0.8;"/>
      </defs>
      <g>
       <use style="stroke:#000000;stroke-width:0.8;" x="119.872159" xlink:href="#mbb41732957" y="586.86358"/>
      </g>
     </g>
     <g id="text_1">
      <!-- 0 -->
      <g transform="translate(116.690909 601.462017)scale(0.1 -0.1)">
       <defs>
        <path d="M 2034 4250 
Q 1547 4250 1301 3770 
Q 1056 3291 1056 2328 
Q 1056 1369 1301 889 
Q 1547 409 2034 409 
Q 2525 409 2770 889 
Q 3016 1369 3016 2328 
Q 3016 3291 2770 3770 
Q 2525 4250 2034 4250 
z
M 2034 4750 
Q 2819 4750 3233 4129 
Q 3647 3509 3647 2328 
Q 3647 1150 3233 529 
Q 2819 -91 2034 -91 
Q 1250 -91 836 529 
Q 422 1150 422 2328 
Q 422 3509 836 4129 
Q 1250 4750 2034 4750 
z
" id="DejaVuSans-30" transform="scale(0.015625)"/>
       </defs>
       <use xlink:href="#DejaVuSans-30"/>
      </g>
     </g>
    </g>
    <g id="xtick_2">
     <g id="line2d_2">
      <g>
       <use style="stroke:#000000;stroke-width:0.8;" x="367.523613" xlink:href="#mbb41732957" y="586.86358"/>
      </g>
     </g>
     <g id="text_2">
      <!-- 200 -->
      <g transform="translate(357.979863 601.462017)scale(0.1 -0.1)">
       <defs>
        <path d="M 1228 531 
L 3431 531 
L 3431 0 
L 469 0 
L 469 531 
Q 828 903 1448 1529 
Q 2069 2156 2228 2338 
Q 2531 2678 2651 2914 
Q 2772 3150 2772 3378 
Q 2772 3750 2511 3984 
Q 2250 4219 1831 4219 
Q 1534 4219 1204 4116 
Q 875 4013 500 3803 
L 500 4441 
Q 881 4594 1212 4672 
Q 1544 4750 1819 4750 
Q 2544 4750 2975 4387 
Q 3406 4025 3406 3419 
Q 3406 3131 3298 2873 
Q 3191 2616 2906 2266 
Q 2828 2175 2409 1742 
Q 1991 1309 1228 531 
z
" id="DejaVuSans-32" transform="scale(0.015625)"/>
       </defs>
       <use xlink:href="#DejaVuSans-32"/>
       <use x="63.623047" xlink:href="#DejaVuSans-30"/>
       <use x="127.246094" xlink:href="#DejaVuSans-30"/>
      </g>
     </g>
    </g>
    <g id="xtick_3">
     <g id="line2d_3">
      <g>
       <use style="stroke:#000000;stroke-width:0.8;" x="615.175066" xlink:href="#mbb41732957" y="586.86358"/>
      </g>
     </g>
     <g id="text_3">
      <!-- 400 -->
      <g transform="translate(605.631316 601.462017)scale(0.1 -0.1)">
       <defs>
        <path d="M 2419 4116 
L 825 1625 
L 2419 1625 
L 2419 4116 
z
M 2253 4666 
L 3047 4666 
L 3047 1625 
L 3713 1625 
L 3713 1100 
L 3047 1100 
L 3047 0 
L 2419 0 
L 2419 1100 
L 313 1100 
L 313 1709 
L 2253 4666 
z
" id="DejaVuSans-34" transform="scale(0.015625)"/>
       </defs>
       <use xlink:href="#DejaVuSans-34"/>
       <use x="63.623047" xlink:href="#DejaVuSans-30"/>
       <use x="127.246094" xlink:href="#DejaVuSans-30"/>
      </g>
     </g>
    </g>
    <g id="xtick_4">
     <g id="line2d_4">
      <g>
       <use style="stroke:#000000;stroke-width:0.8;" x="862.82652" xlink:href="#mbb41732957" y="586.86358"/>
      </g>
     </g>
     <g id="text_4">
      <!-- 600 -->
      <g transform="translate(853.28277 601.462017)scale(0.1 -0.1)">
       <defs>
        <path d="M 2113 2584 
Q 1688 2584 1439 2293 
Q 1191 2003 1191 1497 
Q 1191 994 1439 701 
Q 1688 409 2113 409 
Q 2538 409 2786 701 
Q 3034 994 3034 1497 
Q 3034 2003 2786 2293 
Q 2538 2584 2113 2584 
z
M 3366 4563 
L 3366 3988 
Q 3128 4100 2886 4159 
Q 2644 4219 2406 4219 
Q 1781 4219 1451 3797 
Q 1122 3375 1075 2522 
Q 1259 2794 1537 2939 
Q 1816 3084 2150 3084 
Q 2853 3084 3261 2657 
Q 3669 2231 3669 1497 
Q 3669 778 3244 343 
Q 2819 -91 2113 -91 
Q 1303 -91 875 529 
Q 447 1150 447 2328 
Q 447 3434 972 4092 
Q 1497 4750 2381 4750 
Q 2619 4750 2861 4703 
Q 3103 4656 3366 4563 
z
" id="DejaVuSans-36" transform="scale(0.015625)"/>
       </defs>
       <use xlink:href="#DejaVuSans-36"/>
       <use x="63.623047" xlink:href="#DejaVuSans-30"/>
       <use x="127.246094" xlink:href="#DejaVuSans-30"/>
      </g>
     </g>
    </g>
    <g id="xtick_5">
     <g id="line2d_5">
      <g>
       <use style="stroke:#000000;stroke-width:0.8;" x="1110.477973" xlink:href="#mbb41732957" y="586.86358"/>
      </g>
     </g>
     <g id="text_5">
      <!-- 800 -->
      <g transform="translate(1100.934223 601.462017)scale(0.1 -0.1)">
       <defs>
        <path d="M 2034 2216 
Q 1584 2216 1326 1975 
Q 1069 1734 1069 1313 
Q 1069 891 1326 650 
Q 1584 409 2034 409 
Q 2484 409 2743 651 
Q 3003 894 3003 1313 
Q 3003 1734 2745 1975 
Q 2488 2216 2034 2216 
z
M 1403 2484 
Q 997 2584 770 2862 
Q 544 3141 544 3541 
Q 544 4100 942 4425 
Q 1341 4750 2034 4750 
Q 2731 4750 3128 4425 
Q 3525 4100 3525 3541 
Q 3525 3141 3298 2862 
Q 3072 2584 2669 2484 
Q 3125 2378 3379 2068 
Q 3634 1759 3634 1313 
Q 3634 634 3220 271 
Q 2806 -91 2034 -91 
Q 1263 -91 848 271 
Q 434 634 434 1313 
Q 434 1759 690 2068 
Q 947 2378 1403 2484 
z
M 1172 3481 
Q 1172 3119 1398 2916 
Q 1625 2713 2034 2713 
Q 2441 2713 2670 2916 
Q 2900 3119 2900 3481 
Q 2900 3844 2670 4047 
Q 2441 4250 2034 4250 
Q 1625 4250 1398 4047 
Q 1172 3844 1172 3481 
z
" id="DejaVuSans-38" transform="scale(0.015625)"/>
       </defs>
       <use xlink:href="#DejaVuSans-38"/>
       <use x="63.623047" xlink:href="#DejaVuSans-30"/>
       <use x="127.246094" xlink:href="#DejaVuSans-30"/>
      </g>
     </g>
    </g>
    <g id="xtick_6">
     <g id="line2d_6">
      <g>
       <use style="stroke:#000000;stroke-width:0.8;" x="1358.129427" xlink:href="#mbb41732957" y="586.86358"/>
      </g>
     </g>
     <g id="text_6">
      <!-- 1000 -->
      <g transform="translate(1345.404427 601.462017)scale(0.1 -0.1)">
       <defs>
        <path d="M 794 531 
L 1825 531 
L 1825 4091 
L 703 3866 
L 703 4441 
L 1819 4666 
L 2450 4666 
L 2450 531 
L 3481 531 
L 3481 0 
L 794 0 
L 794 531 
z
" id="DejaVuSans-31" transform="scale(0.015625)"/>
       </defs>
       <use xlink:href="#DejaVuSans-31"/>
       <use x="63.623047" xlink:href="#DejaVuSans-30"/>
       <use x="127.246094" xlink:href="#DejaVuSans-30"/>
       <use x="190.869141" xlink:href="#DejaVuSans-30"/>
      </g>
     </g>
    </g>
    <g id="xtick_7">
     <g id="line2d_7">
      <g>
       <use style="stroke:#000000;stroke-width:0.8;" x="1605.78088" xlink:href="#mbb41732957" y="586.86358"/>
      </g>
     </g>
     <g id="text_7">
      <!-- 1200 -->
      <g transform="translate(1593.05588 601.462017)scale(0.1 -0.1)">
       <use xlink:href="#DejaVuSans-31"/>
       <use x="63.623047" xlink:href="#DejaVuSans-32"/>
       <use x="127.246094" xlink:href="#DejaVuSans-30"/>
       <use x="190.869141" xlink:href="#DejaVuSans-30"/>
      </g>
     </g>
    </g>
    <g id="text_8">
     <!-- frame -->
     <g transform="translate(865.954687 615.140142)scale(0.1 -0.1)">
      <defs>
       <path d="M 2375 4863 
L 2375 4384 
L 1825 4384 
Q 1516 4384 1395 4259 
Q 1275 4134 1275 3809 
L 1275 3500 
L 2222 3500 
L 2222 3053 
L 1275 3053 
L 1275 0 
L 697 0 
L 697 3053 
L 147 3053 
L 147 3500 
L 697 3500 
L 697 3744 
Q 697 4328 969 4595 
Q 1241 4863 1831 4863 
L 2375 4863 
z
" id="DejaVuSans-66" transform="scale(0.015625)"/>
       <path d="M 2631 2963 
Q 2534 3019 2420 3045 
Q 2306 3072 2169 3072 
Q 1681 3072 1420 2755 
Q 1159 2438 1159 1844 
L 1159 0 
L 581 0 
L 581 3500 
L 1159 3500 
L 1159 2956 
Q 1341 3275 1631 3429 
Q 1922 3584 2338 3584 
Q 2397 3584 2469 3576 
Q 2541 3569 2628 3553 
L 2631 2963 
z
" id="DejaVuSans-72" transform="scale(0.015625)"/>
       <path d="M 2194 1759 
Q 1497 1759 1228 1600 
Q 959 1441 959 1056 
Q 959 750 1161 570 
Q 1363 391 1709 391 
Q 2188 391 2477 730 
Q 2766 1069 2766 1631 
L 2766 1759 
L 2194 1759 
z
M 3341 1997 
L 3341 0 
L 2766 0 
L 2766 531 
Q 2569 213 2275 61 
Q 1981 -91 1556 -91 
Q 1019 -91 701 211 
Q 384 513 384 1019 
Q 384 1609 779 1909 
Q 1175 2209 1959 2209 
L 2766 2209 
L 2766 2266 
Q 2766 2663 2505 2880 
Q 2244 3097 1772 3097 
Q 1472 3097 1187 3025 
Q 903 2953 641 2809 
L 641 3341 
Q 956 3463 1253 3523 
Q 1550 3584 1831 3584 
Q 2591 3584 2966 3190 
Q 3341 2797 3341 1997 
z
" id="DejaVuSans-61" transform="scale(0.015625)"/>
       <path d="M 3328 2828 
Q 3544 3216 3844 3400 
Q 4144 3584 4550 3584 
Q 5097 3584 5394 3201 
Q 5691 2819 5691 2113 
L 5691 0 
L 5113 0 
L 5113 2094 
Q 5113 2597 4934 2840 
Q 4756 3084 4391 3084 
Q 3944 3084 3684 2787 
Q 3425 2491 3425 1978 
L 3425 0 
L 2847 0 
L 2847 2094 
Q 2847 2600 2669 2842 
Q 2491 3084 2119 3084 
Q 1678 3084 1418 2786 
Q 1159 2488 1159 1978 
L 1159 0 
L 581 0 
L 581 3500 
L 1159 3500 
L 1159 2956 
Q 1356 3278 1631 3431 
Q 1906 3584 2284 3584 
Q 2666 3584 2933 3390 
Q 3200 3197 3328 2828 
z
" id="DejaVuSans-6d" transform="scale(0.015625)"/>
       <path d="M 3597 1894 
L 3597 1613 
L 953 1613 
Q 991 1019 1311 708 
Q 1631 397 2203 397 
Q 2534 397 2845 478 
Q 3156 559 3463 722 
L 3463 178 
Q 3153 47 2828 -22 
Q 2503 -91 2169 -91 
Q 1331 -91 842 396 
Q 353 884 353 1716 
Q 353 2575 817 3079 
Q 1281 3584 2069 3584 
Q 2775 3584 3186 3129 
Q 3597 2675 3597 1894 
z
M 3022 2063 
Q 3016 2534 2758 2815 
Q 2500 3097 2075 3097 
Q 1594 3097 1305 2825 
Q 1016 2553 972 2059 
L 3022 2063 
z
" id="DejaVuSans-65" transform="scale(0.015625)"/>
      </defs>
      <use xlink:href="#DejaVuSans-66"/>
      <use x="35.205078" xlink:href="#DejaVuSans-72"/>
      <use x="76.318359" xlink:href="#DejaVuSans-61"/>
      <use x="137.597656" xlink:href="#DejaVuSans-6d"/>
      <use x="235.009766" xlink:href="#DejaVuSans-65"/>
     </g>
    </g>
   </g>
   <g id="matplotlib.axis_2">
    <g id="ytick_1">
     <g id="line2d_8">
      <defs>
       <path d="M 0 0 
L -3.5 0 
" id="m1b0dfeaf08" style="stroke:#000000;stroke-width:0.8;"/>
      </defs>
      <g>
       <use style="stroke:#000000;stroke-width:0.8;" x="43.78125" xlink:href="#m1b0dfeaf08" y="498.08968"/>
      </g>
     </g>
     <g id="text_9">
      <!-- 3 -->
      <g transform="translate(30.41875 501.888898)scale(0.1 -0.1)">
       <defs>
        <path d="M 2597 2516 
Q 3050 2419 3304 2112 
Q 3559 1806 3559 1356 
Q 3559 666 3084 287 
Q 2609 -91 1734 -91 
Q 1441 -91 1130 -33 
Q 819 25 488 141 
L 488 750 
Q 750 597 1062 519 
Q 1375 441 1716 441 
Q 2309 441 2620 675 
Q 2931 909 2931 1356 
Q 2931 1769 2642 2001 
Q 2353 2234 1838 2234 
L 1294 2234 
L 1294 2753 
L 1863 2753 
Q 2328 2753 2575 2939 
Q 2822 3125 2822 3475 
Q 2822 3834 2567 4026 
Q 2313 4219 1838 4219 
Q 1578 4219 1281 4162 
Q 984 4106 628 3988 
L 628 4550 
Q 988 4650 1302 4700 
Q 1616 4750 1894 4750 
Q 2613 4750 3031 4423 
Q 3450 4097 3450 3541 
Q 3450 3153 3228 2886 
Q 3006 2619 2597 2516 
z
" id="DejaVuSans-33" transform="scale(0.015625)"/>
       </defs>
       <use xlink:href="#DejaVuSans-33"/>
      </g>
     </g>
    </g>
    <g id="ytick_2">
     <g id="line2d_9">
      <g>
       <use style="stroke:#000000;stroke-width:0.8;" x="43.78125" xlink:href="#m1b0dfeaf08" y="402.711732"/>
      </g>
     </g>
     <g id="text_10">
      <!-- 4 -->
      <g transform="translate(30.41875 406.510951)scale(0.1 -0.1)">
       <use xlink:href="#DejaVuSans-34"/>
      </g>
     </g>
    </g>
    <g id="ytick_3">
     <g id="line2d_10">
      <g>
       <use style="stroke:#000000;stroke-width:0.8;" x="43.78125" xlink:href="#m1b0dfeaf08" y="307.333784"/>
      </g>
     </g>
     <g id="text_11">
      <!-- 5 -->
      <g transform="translate(30.41875 311.133003)scale(0.1 -0.1)">
       <defs>
        <path d="M 691 4666 
L 3169 4666 
L 3169 4134 
L 1269 4134 
L 1269 2991 
Q 1406 3038 1543 3061 
Q 1681 3084 1819 3084 
Q 2600 3084 3056 2656 
Q 3513 2228 3513 1497 
Q 3513 744 3044 326 
Q 2575 -91 1722 -91 
Q 1428 -91 1123 -41 
Q 819 9 494 109 
L 494 744 
Q 775 591 1075 516 
Q 1375 441 1709 441 
Q 2250 441 2565 725 
Q 2881 1009 2881 1497 
Q 2881 1984 2565 2268 
Q 2250 2553 1709 2553 
Q 1456 2553 1204 2497 
Q 953 2441 691 2322 
L 691 4666 
z
" id="DejaVuSans-35" transform="scale(0.015625)"/>
       </defs>
       <use xlink:href="#DejaVuSans-35"/>
      </g>
     </g>
    </g>
    <g id="ytick_4">
     <g id="line2d_11">
      <g>
       <use style="stroke:#000000;stroke-width:0.8;" x="43.78125" xlink:href="#m1b0dfeaf08" y="211.955837"/>
      </g>
     </g>
     <g id="text_12">
      <!-- 6 -->
      <g transform="translate(30.41875 215.755056)scale(0.1 -0.1)">
       <use xlink:href="#DejaVuSans-36"/>
      </g>
     </g>
    </g>
    <g id="ytick_5">
     <g id="line2d_12">
      <g>
       <use style="stroke:#000000;stroke-width:0.8;" x="43.78125" xlink:href="#m1b0dfeaf08" y="116.577889"/>
      </g>
     </g>
     <g id="text_13">
      <!-- 7 -->
      <g transform="translate(30.41875 120.377108)scale(0.1 -0.1)">
       <defs>
        <path d="M 525 4666 
L 3525 4666 
L 3525 4397 
L 1831 0 
L 1172 0 
L 2766 4134 
L 525 4134 
L 525 4666 
z
" id="DejaVuSans-37" transform="scale(0.015625)"/>
       </defs>
       <use xlink:href="#DejaVuSans-37"/>
      </g>
     </g>
    </g>
    <g id="text_14">
     <!-- GCaMP -->
     <g transform="translate(24.339062 322.349446)rotate(-90)scale(0.1 -0.1)">
      <defs>
       <path d="M 3809 666 
L 3809 1919 
L 2778 1919 
L 2778 2438 
L 4434 2438 
L 4434 434 
Q 4069 175 3628 42 
Q 3188 -91 2688 -91 
Q 1594 -91 976 548 
Q 359 1188 359 2328 
Q 359 3472 976 4111 
Q 1594 4750 2688 4750 
Q 3144 4750 3555 4637 
Q 3966 4525 4313 4306 
L 4313 3634 
Q 3963 3931 3569 4081 
Q 3175 4231 2741 4231 
Q 1884 4231 1454 3753 
Q 1025 3275 1025 2328 
Q 1025 1384 1454 906 
Q 1884 428 2741 428 
Q 3075 428 3337 486 
Q 3600 544 3809 666 
z
" id="DejaVuSans-47" transform="scale(0.015625)"/>
       <path d="M 4122 4306 
L 4122 3641 
Q 3803 3938 3442 4084 
Q 3081 4231 2675 4231 
Q 1875 4231 1450 3742 
Q 1025 3253 1025 2328 
Q 1025 1406 1450 917 
Q 1875 428 2675 428 
Q 3081 428 3442 575 
Q 3803 722 4122 1019 
L 4122 359 
Q 3791 134 3420 21 
Q 3050 -91 2638 -91 
Q 1578 -91 968 557 
Q 359 1206 359 2328 
Q 359 3453 968 4101 
Q 1578 4750 2638 4750 
Q 3056 4750 3426 4639 
Q 3797 4528 4122 4306 
z
" id="DejaVuSans-43" transform="scale(0.015625)"/>
       <path d="M 628 4666 
L 1569 4666 
L 2759 1491 
L 3956 4666 
L 4897 4666 
L 4897 0 
L 4281 0 
L 4281 4097 
L 3078 897 
L 2444 897 
L 1241 4097 
L 1241 0 
L 628 0 
L 628 4666 
z
" id="DejaVuSans-4d" transform="scale(0.015625)"/>
       <path d="M 1259 4147 
L 1259 2394 
L 2053 2394 
Q 2494 2394 2734 2622 
Q 2975 2850 2975 3272 
Q 2975 3691 2734 3919 
Q 2494 4147 2053 4147 
L 1259 4147 
z
M 628 4666 
L 2053 4666 
Q 2838 4666 3239 4311 
Q 3641 3956 3641 3272 
Q 3641 2581 3239 2228 
Q 2838 1875 2053 1875 
L 1259 1875 
L 1259 0 
L 628 0 
L 628 4666 
z
" id="DejaVuSans-50" transform="scale(0.015625)"/>
      </defs>
      <use xlink:href="#DejaVuSans-47"/>
      <use x="77.490234" xlink:href="#DejaVuSans-43"/>
      <use x="147.314453" xlink:href="#DejaVuSans-61"/>
      <use x="208.59375" xlink:href="#DejaVuSans-4d"/>
      <use x="294.873047" xlink:href="#DejaVuSans-50"/>
     </g>
    </g>
   </g>
   <g id="line2d_13">
    <path clip-path="url(#p5c1db4f510)" d="M 119.872159 515.50608 
L 124.825188 444.352598 
L 127.301703 406.713769 
L 128.53996 386.466362 
L 131.016474 340.081801 
L 133.492989 293.546854 
L 134.731246 273.785777 
L 135.969504 256.530689 
L 137.207761 241.245635 
L 138.446018 227.509039 
L 139.684275 215.255174 
L 142.16079 194.297189 
L 144.637304 173.929082 
L 148.352076 140.331332 
L 149.590334 131.455823 
L 153.305105 107.749103 
L 154.543363 100.244172 
L 155.78162 94.156731 
L 157.019877 90.212067 
L 158.258134 88.136124 
L 159.496392 87.162174 
L 160.734649 86.76419 
L 161.972906 86.96517 
L 163.211163 88.394046 
L 165.687678 94.431801 
L 166.925935 95.253094 
L 168.164193 92.553555 
L 169.40245 86.31685 
L 170.640707 77.066742 
L 171.878964 66.354916 
L 173.117222 56.711394 
L 174.355479 50.28238 
L 175.593736 47.979282 
L 176.831993 49.788691 
L 178.070251 55.045187 
L 180.546765 68.973569 
L 181.785022 73.136373 
L 183.02328 74.137657 
L 184.261537 73.508176 
L 185.499794 73.509726 
L 186.738052 75.47503 
L 187.976309 78.793435 
L 189.214566 81.201186 
L 190.452823 80.717109 
L 191.691081 77.432271 
L 192.929338 73.484192 
L 194.167595 70.9817 
L 195.405852 70.011658 
L 196.64411 69.646864 
L 197.882367 70.153328 
L 199.120624 72.487208 
L 200.358881 76.190051 
L 201.597139 79.432365 
L 202.835396 80.889984 
L 204.073653 80.74512 
L 205.311911 80.188831 
L 206.550168 80.196282 
L 207.788425 80.818135 
L 209.026682 81.679406 
L 210.26494 82.801185 
L 211.503197 84.723574 
L 212.741454 87.729562 
L 213.979711 91.2198 
L 215.217969 94.30678 
L 217.694483 99.543701 
L 218.93274 102.532912 
L 220.170998 105.185944 
L 221.409255 107.335267 
L 222.647512 109.258285 
L 223.88577 110.806019 
L 225.124027 112.108426 
L 226.362284 113.81089 
L 227.600541 115.845024 
L 228.838799 117.208696 
L 230.077056 117.136706 
L 231.315313 115.56817 
L 232.55357 113.00145 
L 233.791828 110.936123 
L 235.030085 111.291462 
L 236.268342 114.617569 
L 237.5066 119.919359 
L 239.983114 131.60967 
L 241.221371 135.423025 
L 242.459629 135.728922 
L 243.697886 131.893369 
L 244.936143 124.714941 
L 247.412658 106.766168 
L 248.650915 100.349641 
L 249.889172 98.20875 
L 251.127429 99.832554 
L 252.365687 102.871305 
L 253.603944 104.965346 
L 254.842201 104.592744 
L 256.080459 101.51893 
L 258.556973 92.573219 
L 259.79523 88.838608 
L 261.033488 87.24486 
L 262.271745 89.989464 
L 263.510002 97.960212 
L 265.986517 119.97725 
L 267.224774 128.168354 
L 268.463031 133.334821 
L 269.701288 135.757527 
L 270.939546 135.606943 
L 272.177803 133.679495 
L 274.654318 128.817584 
L 275.892575 125.723789 
L 277.130832 122.166293 
L 278.369089 119.166499 
L 279.607347 117.360349 
L 280.845604 117.397533 
L 282.083861 121.055348 
L 283.322118 129.944955 
L 284.560376 143.279367 
L 285.798633 157.943231 
L 287.03689 170.634546 
L 288.275147 179.528296 
L 289.513405 184.237072 
L 290.751662 184.850079 
L 291.989919 181.747259 
L 293.228177 176.707429 
L 294.466434 172.854922 
L 295.704691 172.505701 
L 296.942948 175.880125 
L 298.181206 181.820704 
L 303.134235 210.489946 
L 304.372492 215.680457 
L 305.610749 218.477447 
L 306.849006 218.767651 
L 308.087264 217.185836 
L 309.325521 214.42128 
L 311.802036 207.778736 
L 313.040293 205.167041 
L 314.27855 203.107966 
L 315.516807 200.603728 
L 316.755065 196.816102 
L 320.469836 183.141612 
L 321.708094 179.050075 
L 322.946351 176.685227 
L 324.184608 176.829191 
L 325.422866 178.775789 
L 326.661123 181.792385 
L 327.89938 185.366484 
L 329.137637 188.412418 
L 330.375895 190.131316 
L 331.614152 191.253886 
L 332.852409 193.059343 
L 334.090666 195.393717 
L 335.328924 196.749019 
L 336.567181 196.253933 
L 337.805438 194.935884 
L 339.043695 195.003843 
L 340.281953 198.068264 
L 342.758467 209.225692 
L 345.234982 217.908669 
L 346.473239 223.233003 
L 350.188011 242.926047 
L 351.426268 247.344757 
L 352.664525 249.581555 
L 353.902783 249.798102 
L 355.14104 248.663488 
L 358.855812 244.128669 
L 360.094069 242.11893 
L 361.332326 240.36354 
L 362.570584 240.036881 
L 363.808841 241.8421 
L 365.047098 245.590399 
L 366.285355 250.272438 
L 367.523613 254.366762 
L 368.76187 256.414885 
L 370.000127 255.745477 
L 371.238384 252.865394 
L 372.476642 249.265885 
L 373.714899 246.620655 
L 374.953156 245.880451 
L 376.191413 247.118527 
L 377.429671 249.739824 
L 378.667928 252.689414 
L 379.906185 255.172074 
L 381.144443 256.995396 
L 382.3827 257.778607 
L 383.620957 256.788281 
L 386.097472 251.510562 
L 387.335729 249.794932 
L 388.573986 248.937411 
L 389.812243 248.486197 
L 391.050501 248.518381 
L 392.288758 249.258421 
L 393.527015 250.686151 
L 394.765272 252.744637 
L 396.00353 255.164922 
L 397.241787 256.968853 
L 398.480044 257.068034 
L 399.718302 255.322246 
L 400.956559 252.302041 
L 402.194816 248.801862 
L 403.433073 245.859057 
L 404.671331 244.20607 
L 405.909588 243.632744 
L 407.147845 243.424063 
L 408.386102 243.632582 
L 409.62436 245.318392 
L 410.862617 248.969528 
L 412.100874 253.462282 
L 413.339132 257.157245 
L 414.577389 259.151734 
L 415.815646 259.08061 
L 417.053903 257.021437 
L 418.292161 254.340519 
L 419.530418 253.575383 
L 420.768675 256.381476 
L 423.24519 267.629298 
L 424.483447 272.221515 
L 425.721704 275.582194 
L 426.959961 278.418304 
L 428.198219 281.720686 
L 430.674733 290.310931 
L 431.912991 293.08699 
L 433.151248 293.474504 
L 434.389505 291.692675 
L 435.627762 288.430808 
L 436.86602 284.681263 
L 438.104277 281.477006 
L 439.342534 279.543745 
L 440.580791 278.93776 
L 441.819049 278.854296 
L 443.057306 278.489702 
L 444.295563 277.906292 
L 445.53382 277.664238 
L 446.772078 278.056935 
L 449.248592 279.551969 
L 450.48685 280.010842 
L 451.725107 280.738403 
L 452.963364 282.717727 
L 454.201621 286.427034 
L 456.678136 295.522443 
L 457.916393 298.862091 
L 459.15465 300.702518 
L 460.392908 300.926826 
L 461.631165 300.075991 
L 462.869422 298.95293 
L 464.107679 298.358669 
L 465.345937 299.226496 
L 466.584194 302.063726 
L 467.822451 306.016382 
L 469.060709 308.613107 
L 470.298966 307.290148 
L 471.537223 301.855674 
L 472.77548 294.875415 
L 474.013738 289.791508 
L 475.251995 288.929679 
L 476.490252 292.278704 
L 478.966767 303.794338 
L 480.205024 308.602396 
L 481.443281 311.26028 
L 482.681538 311.244473 
L 483.919796 309.275455 
L 485.158053 306.750093 
L 486.39631 304.931141 
L 487.634568 304.916251 
L 488.872825 307.107513 
L 490.111082 310.489779 
L 491.349339 313.30741 
L 492.587597 314.744555 
L 493.825854 315.827533 
L 495.064111 318.656909 
L 496.302368 324.562769 
L 498.778883 341.069111 
L 500.01714 347.820568 
L 501.255397 352.406546 
L 502.493655 354.870757 
L 503.731912 355.462685 
L 504.970169 354.510205 
L 506.208427 352.416235 
L 507.446684 349.531249 
L 509.923198 342.473819 
L 512.399713 335.19382 
L 513.63797 332.524928 
L 514.876227 331.191736 
L 517.352742 330.349755 
L 518.590999 329.313043 
L 519.829257 328.106249 
L 521.067514 327.466592 
L 522.305771 327.76292 
L 523.544028 328.856233 
L 524.782286 330.400916 
L 527.2588 334.170591 
L 528.497057 336.230997 
L 530.973572 341.000409 
L 532.211829 342.624635 
L 533.450086 343.088016 
L 534.688344 342.842269 
L 535.926601 342.33084 
L 538.403116 341.020243 
L 539.641373 340.830341 
L 540.87963 341.746757 
L 542.117887 343.823939 
L 543.356145 346.322484 
L 544.594402 348.380615 
L 545.832659 349.322744 
L 547.070916 348.591461 
L 548.309174 346.300675 
L 549.547431 343.633578 
L 550.785688 342.231553 
L 552.023945 343.059565 
L 553.262203 345.737185 
L 554.50046 349.281403 
L 555.738717 353.342694 
L 556.976975 358.192629 
L 559.453489 369.146062 
L 560.691746 373.830441 
L 561.930004 377.934881 
L 563.168261 381.606571 
L 564.406518 384.649608 
L 565.644775 387.144037 
L 566.883033 389.262213 
L 568.12129 390.539629 
L 569.359547 390.497082 
L 571.836062 388.735362 
L 573.074319 388.359348 
L 574.312576 388.859666 
L 575.550834 390.458793 
L 576.789091 392.429049 
L 578.027348 393.334014 
L 579.265605 392.360345 
L 581.74212 387.7216 
L 582.980377 386.120867 
L 584.218634 385.014357 
L 585.456892 383.727067 
L 586.695149 381.79368 
L 589.171663 377.243004 
L 590.409921 375.734741 
L 591.648178 374.793275 
L 592.886435 374.367431 
L 594.124693 374.391939 
L 595.36295 374.281615 
L 596.601207 373.340699 
L 597.839464 371.857906 
L 599.077722 370.999301 
L 600.315979 371.450537 
L 601.554236 372.940487 
L 602.792493 374.811696 
L 604.030751 376.355842 
L 605.269008 376.99717 
L 606.507265 376.641983 
L 608.98378 374.966466 
L 610.222037 373.811312 
L 611.460294 371.689127 
L 613.936809 365.688143 
L 615.175066 363.878263 
L 616.413323 364.184699 
L 617.651581 366.552635 
L 618.889838 369.684763 
L 620.128095 371.943098 
L 621.366352 372.419663 
L 622.60461 371.402161 
L 623.842867 370.144607 
L 625.081124 369.869777 
L 626.319382 370.724351 
L 628.795896 372.975732 
L 630.034153 374.520504 
L 631.272411 377.16947 
L 632.510668 380.406644 
L 633.748925 383.129114 
L 634.987182 384.715306 
L 636.22544 385.110062 
L 637.463697 384.35415 
L 638.701954 382.371083 
L 641.178469 376.680443 
L 642.416726 375.94169 
L 643.654983 378.321029 
L 644.893241 383.116712 
L 647.369755 393.548278 
L 648.608012 397.737599 
L 649.84627 401.040643 
L 651.084527 403.291954 
L 652.322784 404.367937 
L 653.561041 404.128715 
L 654.799299 402.397137 
L 657.275813 396.670152 
L 658.51407 394.71446 
L 659.752328 394.005569 
L 660.990585 394.569133 
L 662.228842 396.212847 
L 663.4671 398.356651 
L 664.705357 399.931897 
L 665.943614 399.823905 
L 667.181871 397.848758 
L 668.420129 395.014433 
L 669.658386 392.706396 
L 670.896643 391.741083 
L 672.1349 391.959059 
L 674.611415 393.430329 
L 675.849672 393.898718 
L 677.087929 394.00029 
L 680.802701 393.797963 
L 683.279216 392.890709 
L 684.517473 392.982653 
L 685.75573 392.940101 
L 686.993988 391.729357 
L 688.232245 389.055227 
L 689.470502 385.641936 
L 690.708759 382.703032 
L 691.947017 381.15403 
L 693.185274 381.270782 
L 694.423531 382.927133 
L 696.900046 388.753609 
L 698.138303 390.666395 
L 699.37656 390.656897 
L 700.614818 388.683035 
L 701.853075 385.139787 
L 703.091332 381.171151 
L 704.329589 378.651465 
L 705.567847 378.799488 
L 706.806104 381.317143 
L 708.044361 385.23315 
L 710.520876 394.029667 
L 712.99739 401.748139 
L 714.235648 405.991542 
L 715.473905 409.667581 
L 716.712162 411.829812 
L 717.950419 412.618735 
L 720.426934 412.774503 
L 721.665191 413.43595 
L 722.903448 414.576301 
L 724.141706 415.120772 
L 725.379963 413.9884 
L 726.61822 411.142611 
L 727.856477 407.843959 
L 729.094735 405.935599 
L 730.332992 406.309375 
L 731.571249 408.270529 
L 732.809507 410.876579 
L 734.047764 414.013418 
L 736.524278 421.706783 
L 741.477307 438.15691 
L 742.715565 441.414492 
L 743.953822 443.834693 
L 745.192079 445.330926 
L 746.430336 446.040893 
L 747.668594 445.890303 
L 748.906851 444.509869 
L 750.145108 441.648353 
L 751.383366 437.852309 
L 752.621623 434.618473 
L 753.85988 433.654278 
L 755.098137 435.823603 
L 756.336395 440.525584 
L 758.812909 451.308139 
L 760.051166 455.465384 
L 761.289424 458.469227 
L 762.527681 459.99212 
L 763.765938 460.15645 
L 765.004195 459.905231 
L 766.242453 460.037364 
L 767.48071 460.762333 
L 768.718967 462.217345 
L 771.195482 466.241371 
L 772.433739 466.764343 
L 773.671996 465.56812 
L 774.910254 463.604113 
L 776.148511 462.240789 
L 777.386768 462.118001 
L 778.625025 462.860409 
L 781.10154 464.777591 
L 782.339797 465.229024 
L 783.578054 464.904822 
L 787.292826 462.544644 
L 788.531084 460.868965 
L 789.769341 458.714513 
L 791.007598 457.153048 
L 792.245855 456.765751 
L 793.484113 456.89047 
L 794.72237 456.310353 
L 795.960627 454.559821 
L 797.198884 452.289195 
L 798.437142 450.295319 
L 799.675399 448.77586 
L 800.913656 447.766327 
L 802.151914 447.507549 
L 803.390171 448.177578 
L 804.628428 449.683492 
L 805.866685 451.898683 
L 807.104943 455.370902 
L 808.3432 461.648718 
L 809.581457 472.192537 
L 812.057972 500.954801 
L 813.296229 511.648549 
L 814.534486 515.949425 
L 815.772743 513.712061 
L 817.011001 506.800667 
L 820.725773 480.621072 
L 821.96403 473.722722 
L 823.202287 469.145263 
L 824.440544 467.218058 
L 825.678802 467.495482 
L 826.917059 469.138249 
L 828.155316 471.219221 
L 829.393573 473.021599 
L 831.870088 475.554133 
L 833.108345 477.814768 
L 834.346602 482.083007 
L 835.58486 487.670455 
L 836.823117 491.894659 
L 838.061374 492.436304 
L 839.299632 489.760262 
L 840.537889 486.095193 
L 841.776146 483.143754 
L 843.014403 481.815136 
L 844.252661 482.716296 
L 845.490918 485.762848 
L 846.729175 489.636472 
L 847.967432 492.446605 
L 849.20569 493.348001 
L 850.443947 492.897948 
L 851.682204 491.785923 
L 855.396976 487.265817 
L 856.635233 486.687641 
L 857.873491 486.976416 
L 859.111748 488.163352 
L 860.350005 490.261951 
L 861.588262 493.629473 
L 862.82652 498.693272 
L 865.303034 510.677542 
L 866.541291 513.93081 
L 867.779549 513.51181 
L 869.017806 509.594569 
L 875.209092 481.07084 
L 876.44735 476.676507 
L 877.685607 474.023029 
L 878.923864 473.130658 
L 880.162121 473.44596 
L 881.400379 474.137823 
L 882.638636 474.172463 
L 883.876893 472.722116 
L 885.11515 470.151765 
L 886.353408 468.325087 
L 887.591665 469.427567 
L 888.829922 474.622354 
L 890.06818 483.815513 
L 891.306437 496.130759 
L 892.544694 509.937072 
L 893.782951 522.231476 
L 895.021209 529.235647 
L 896.259466 528.87204 
L 897.497723 522.077926 
L 901.212495 489.970924 
L 902.450752 482.549803 
L 903.689009 477.475729 
L 904.927267 474.246353 
L 906.165524 472.671515 
L 908.642039 471.856683 
L 909.880296 470.636779 
L 911.118553 469.202465 
L 912.35681 468.694955 
L 913.595068 469.453981 
L 914.833325 470.989425 
L 918.548097 476.070539 
L 919.786354 477.426156 
L 921.024611 478.046371 
L 922.262868 477.608148 
L 923.501126 476.117279 
L 924.739383 473.796419 
L 925.97764 471.217486 
L 927.215898 469.26544 
L 928.454155 468.560043 
L 929.692412 469.038446 
L 932.168927 471.194353 
L 933.407184 471.799606 
L 934.645441 472.087304 
L 935.883698 472.224838 
L 937.121956 472.104214 
L 938.360213 471.599642 
L 940.836727 469.939247 
L 943.313242 469.133862 
L 944.551499 467.973355 
L 947.028014 464.507603 
L 948.266271 463.72875 
L 949.504528 464.012914 
L 950.742786 465.135314 
L 951.981043 466.947327 
L 953.2193 469.224375 
L 954.457557 471.15364 
L 955.695815 471.67538 
L 956.934072 470.171113 
L 958.172329 466.651897 
L 959.410586 461.622982 
L 961.887101 450.661248 
L 963.125358 446.822014 
L 964.363616 444.840125 
L 965.601873 444.552616 
L 966.84013 445.842852 
L 968.078387 448.710566 
L 969.316645 452.866176 
L 971.793159 462.198214 
L 973.031416 465.39006 
L 974.269674 466.687853 
L 975.507931 466.504031 
L 976.746188 466.20477 
L 977.984446 467.779611 
L 979.222703 473.069842 
L 980.46096 482.720068 
L 982.937475 508.924188 
L 984.175732 519.863797 
L 985.413989 527.126891 
L 986.652246 531.499098 
L 987.890504 534.423488 
L 989.128761 536.770083 
L 990.367018 538.760446 
L 991.605275 540.033413 
L 992.843533 539.811229 
L 994.08179 537.706505 
L 995.320047 534.237053 
L 996.558305 530.385403 
L 997.796562 526.96094 
L 999.034819 524.376238 
L 1000.273076 522.574438 
L 1002.749591 519.741202 
L 1003.987848 518.781363 
L 1005.226105 518.500898 
L 1006.464363 518.748959 
L 1007.70262 519.281474 
L 1011.417392 521.369799 
L 1012.655649 521.808888 
L 1013.893906 521.438399 
L 1015.132164 520.113375 
L 1016.370421 518.371951 
L 1017.608678 517.043496 
L 1018.846935 516.731464 
L 1020.085193 517.58884 
L 1021.32345 519.404673 
L 1023.799964 523.809633 
L 1025.038222 525.371246 
L 1026.276479 526.254405 
L 1027.514736 526.539976 
L 1028.752993 526.254191 
L 1029.991251 525.398821 
L 1032.467765 523.195274 
L 1034.94428 521.4256 
L 1037.420794 518.985863 
L 1038.659052 518.523276 
L 1039.897309 518.950653 
L 1041.135566 519.840161 
L 1042.373823 520.962422 
L 1043.612081 522.822953 
L 1044.850338 526.145821 
L 1047.326852 535.728872 
L 1048.56511 539.259488 
L 1049.803367 540.727258 
L 1051.041624 540.343148 
L 1052.279882 538.543656 
L 1053.518139 535.54244 
L 1054.756396 531.164463 
L 1055.994653 524.908328 
L 1057.232911 516.758736 
L 1059.709425 499.167934 
L 1063.424197 473.993061 
L 1064.662454 467.896799 
L 1065.900711 464.483236 
L 1067.138969 463.186502 
L 1068.377226 463.079321 
L 1069.615483 463.874992 
L 1070.853741 465.671978 
L 1072.091998 468.120922 
L 1073.330255 470.298735 
L 1074.568512 471.450727 
L 1077.045027 472.215152 
L 1078.283284 473.6925 
L 1079.521541 477.007345 
L 1080.759799 482.496227 
L 1083.236313 496.836436 
L 1084.474571 502.250466 
L 1085.712828 504.542432 
L 1086.951085 503.737705 
L 1088.189342 500.701299 
L 1090.665857 492.718382 
L 1091.904114 489.736983 
L 1093.142371 488.031867 
L 1094.380629 487.664599 
L 1096.857143 488.846588 
L 1098.0954 488.832223 
L 1103.04843 486.658908 
L 1104.286687 486.418977 
L 1105.524944 487.082273 
L 1106.763201 488.910494 
L 1108.001459 491.339175 
L 1109.239716 493.374593 
L 1110.477973 494.30053 
L 1111.71623 494.074031 
L 1112.954488 493.09436 
L 1114.192745 491.820749 
L 1115.431002 490.856042 
L 1116.669259 490.906523 
L 1117.907517 492.24127 
L 1119.145774 494.478115 
L 1121.622289 499.686205 
L 1122.860546 501.963916 
L 1124.098803 503.360344 
L 1126.575318 504.162633 
L 1127.813575 505.371671 
L 1129.051832 507.293417 
L 1130.290089 508.902259 
L 1131.528347 509.608412 
L 1132.766604 509.710261 
L 1135.243118 509.563611 
L 1136.481376 510.314118 
L 1137.719633 512.582298 
L 1138.95789 516.306515 
L 1141.434405 525.011641 
L 1143.910919 532.919173 
L 1145.149177 536.395041 
L 1146.387434 539.045769 
L 1147.625691 540.593826 
L 1148.863948 541.292522 
L 1150.102206 541.643056 
L 1151.340463 541.858958 
L 1153.816977 542.056859 
L 1155.055235 542.275961 
L 1156.293492 542.325569 
L 1158.770007 541.50925 
L 1160.008264 541.650706 
L 1161.246521 542.337866 
L 1163.723036 543.960279 
L 1164.961293 544.512593 
L 1166.19955 544.779396 
L 1167.437807 545.188049 
L 1168.676065 546.457562 
L 1171.152579 550.838921 
L 1172.390837 551.982031 
L 1173.629094 551.763909 
L 1174.867351 550.848341 
L 1176.105608 550.372005 
L 1177.343866 550.903253 
L 1178.582123 551.771677 
L 1179.82038 551.525892 
L 1181.058637 549.230631 
L 1183.535152 541.591985 
L 1184.773409 539.191683 
L 1186.011666 538.624211 
L 1187.249924 539.519436 
L 1188.488181 541.084617 
L 1189.726438 542.341405 
L 1190.964696 542.524687 
L 1192.202953 541.759612 
L 1193.44121 541.261026 
L 1194.679467 542.237271 
L 1195.917725 544.615475 
L 1200.870754 555.727934 
L 1202.109011 558.379033 
L 1203.347268 560.439119 
L 1204.585525 561.202423 
L 1205.823783 560.208804 
L 1207.06204 557.603021 
L 1209.538555 550.858132 
L 1210.776812 549.054592 
L 1212.015069 549.165205 
L 1213.253326 550.460264 
L 1214.491584 551.544776 
L 1215.729841 551.357663 
L 1216.968098 549.738946 
L 1218.206355 547.392919 
L 1219.444613 545.317811 
L 1220.68287 544.184251 
L 1221.921127 544.085858 
L 1224.397642 545.223759 
L 1225.635899 545.387064 
L 1226.874156 544.744902 
L 1228.112414 543.063501 
L 1230.588928 537.570537 
L 1231.827185 535.706075 
L 1233.065443 535.639898 
L 1234.3037 537.10628 
L 1236.780214 541.397679 
L 1238.018472 543.108974 
L 1239.256729 544.205627 
L 1240.494986 544.739259 
L 1241.733243 544.61113 
L 1242.971501 543.416531 
L 1244.209758 541.085871 
L 1245.448015 538.395309 
L 1246.686273 536.511854 
L 1247.92453 536.091997 
L 1249.162787 536.93533 
L 1252.877559 541.496655 
L 1254.115816 542.624396 
L 1255.354073 542.971185 
L 1256.592331 542.393308 
L 1257.830588 541.182666 
L 1260.307103 538.157679 
L 1261.54536 537.269238 
L 1262.783617 537.572994 
L 1264.021874 539.043738 
L 1265.260132 540.996776 
L 1266.498389 542.56825 
L 1267.736646 543.152784 
L 1268.974903 542.560032 
L 1270.213161 540.819292 
L 1271.451418 537.970557 
L 1272.689675 534.539852 
L 1273.927932 531.872409 
L 1275.16619 531.156589 
L 1276.404447 532.358017 
L 1278.880962 536.446457 
L 1280.119219 537.682067 
L 1282.595733 539.030178 
L 1285.072248 540.860272 
L 1286.310505 541.101068 
L 1287.548762 540.294772 
L 1288.78702 538.600077 
L 1290.025277 536.683863 
L 1291.263534 535.459162 
L 1292.501791 535.538603 
L 1293.740049 536.811491 
L 1294.978306 538.465163 
L 1296.216563 539.526494 
L 1297.454821 539.564974 
L 1298.693078 538.783354 
L 1299.931335 537.574446 
L 1304.884364 532.045629 
L 1306.122621 530.250228 
L 1308.599136 525.683933 
L 1309.837393 524.630633 
L 1311.07565 525.385337 
L 1312.313908 527.675185 
L 1313.552165 530.388832 
L 1314.790422 532.555003 
L 1316.02868 533.975006 
L 1317.266937 534.65629 
L 1318.505194 534.533697 
L 1320.981709 533.429988 
L 1322.219966 533.328114 
L 1323.458223 533.608244 
L 1325.934738 534.747378 
L 1327.172995 535.528113 
L 1328.411252 536.67934 
L 1329.649509 538.085655 
L 1330.887767 539.163758 
L 1332.126024 539.436242 
L 1333.364281 539.054231 
L 1335.840796 538.095166 
L 1337.079053 537.818437 
L 1338.31731 537.930396 
L 1339.555568 538.536529 
L 1340.793825 539.332924 
L 1342.032082 539.822636 
L 1343.270339 539.649084 
L 1344.508597 538.968906 
L 1345.746854 538.428 
L 1346.985111 538.64288 
L 1348.223368 539.818304 
L 1349.461626 541.488892 
L 1350.699883 542.527525 
L 1351.93814 541.940882 
L 1353.176398 539.782297 
L 1354.414655 537.224477 
L 1355.652912 535.716812 
L 1356.891169 535.922871 
L 1358.129427 537.497553 
L 1359.367684 539.600434 
L 1360.605941 541.323738 
L 1361.844198 542.135563 
L 1363.082456 542.181884 
L 1364.320713 541.797372 
L 1365.55897 540.978613 
L 1368.035485 538.361917 
L 1369.273742 537.467276 
L 1371.750257 536.787464 
L 1372.988514 536.019868 
L 1375.465028 533.433703 
L 1376.703286 533.217477 
L 1377.941543 534.862257 
L 1379.1798 538.160684 
L 1380.418057 541.970654 
L 1381.656315 545.123103 
L 1382.894572 547.049511 
L 1384.132829 547.738415 
L 1385.371087 547.48914 
L 1386.609344 546.530829 
L 1387.847601 544.69273 
L 1389.085858 541.855712 
L 1390.324116 538.729458 
L 1391.562373 536.590274 
L 1392.80063 536.299993 
L 1394.038887 537.763533 
L 1395.277145 539.994077 
L 1396.515402 541.89621 
L 1397.753659 543.224283 
L 1398.991916 544.344624 
L 1400.230174 545.30077 
L 1401.468431 545.790111 
L 1402.706688 545.676819 
L 1403.944946 544.981555 
L 1405.183203 543.948853 
L 1406.42146 543.382018 
L 1407.659717 544.08839 
L 1410.136232 547.94216 
L 1411.374489 549.239315 
L 1412.612746 549.542165 
L 1413.851004 548.994949 
L 1416.327518 546.939357 
L 1417.565775 546.581138 
L 1420.04229 546.78403 
L 1422.518805 546.726289 
L 1424.995319 546.291453 
L 1426.233576 546.547413 
L 1427.471834 547.342426 
L 1428.710091 547.91254 
L 1429.948348 547.55664 
L 1431.186605 546.228325 
L 1432.424863 544.22183 
L 1434.901377 539.782346 
L 1436.139634 538.436652 
L 1437.377892 538.266301 
L 1438.616149 539.229344 
L 1441.092664 542.54155 
L 1442.330921 543.729699 
L 1443.569178 543.921304 
L 1444.807435 542.751885 
L 1446.045693 540.051795 
L 1448.522207 531.79475 
L 1449.760464 528.694964 
L 1450.998722 528.034447 
L 1452.236979 529.812233 
L 1453.475236 532.595022 
L 1454.713494 534.56454 
L 1455.951751 534.861782 
L 1457.190008 533.932756 
L 1459.666523 531.493134 
L 1460.90478 530.613482 
L 1462.143037 530.179212 
L 1463.381294 530.439551 
L 1465.857809 532.157877 
L 1467.096066 532.230428 
L 1470.810838 530.442353 
L 1472.049095 530.356126 
L 1473.287353 530.803776 
L 1474.52561 531.542687 
L 1475.763867 531.926732 
L 1478.240382 531.75644 
L 1479.478639 532.112692 
L 1481.955153 533.452739 
L 1484.431668 534.997357 
L 1485.669925 535.398421 
L 1486.908182 535.102171 
L 1488.14644 534.035341 
L 1490.622954 530.473912 
L 1491.861212 529.185905 
L 1493.099469 528.933384 
L 1494.337726 529.271892 
L 1495.575983 529.25551 
L 1498.052498 527.821988 
L 1499.290755 528.307314 
L 1500.529012 530.548639 
L 1501.76727 534.111457 
L 1504.243784 541.996014 
L 1505.482041 545.194063 
L 1506.720299 547.030244 
L 1507.958556 547.074496 
L 1509.196813 545.589101 
L 1511.673328 541.023129 
L 1512.911585 539.524535 
L 1514.149842 539.144082 
L 1515.3881 539.774188 
L 1519.102871 543.52182 
L 1520.341129 544.829015 
L 1521.579386 546.616364 
L 1524.0559 551.314339 
L 1525.294158 552.480482 
L 1526.532415 551.946387 
L 1529.00893 548.542678 
L 1530.247187 547.435555 
L 1531.485444 546.98768 
L 1532.723701 547.128095 
L 1533.961959 547.986625 
L 1535.200216 549.75258 
L 1537.67673 554.854981 
L 1538.914988 556.097911 
L 1540.153245 555.355132 
L 1541.391502 552.921191 
L 1542.62976 549.398496 
L 1545.106274 541.171696 
L 1546.344531 538.003835 
L 1547.582789 536.683752 
L 1548.821046 537.766212 
L 1550.059303 541.086675 
L 1552.535818 549.981174 
L 1553.774075 553.55914 
L 1555.012332 556.289278 
L 1556.250589 558.171062 
L 1557.488847 559.016219 
L 1558.727104 558.78701 
L 1559.965361 557.819865 
L 1562.441876 555.403269 
L 1563.680133 554.488813 
L 1564.91839 553.929491 
L 1566.156648 553.796751 
L 1567.394905 554.111168 
L 1568.633162 554.776288 
L 1571.109677 556.239174 
L 1572.347934 556.650798 
L 1573.586191 556.850873 
L 1574.824448 556.77721 
L 1576.062706 556.1622 
L 1577.300963 554.805484 
L 1578.53922 552.720613 
L 1582.253992 544.973506 
L 1583.492249 543.860387 
L 1584.730507 543.511506 
L 1585.968764 542.91524 
L 1587.207021 541.398509 
L 1588.445278 538.875258 
L 1589.683536 535.427057 
L 1590.921793 531.511568 
L 1592.16005 528.394362 
L 1593.398307 527.190118 
L 1594.636565 527.397415 
L 1595.874822 527.281315 
L 1597.113079 525.87018 
L 1598.351337 523.90784 
L 1599.589594 522.607358 
L 1602.066108 521.65316 
L 1603.304366 520.277341 
L 1604.542623 517.837911 
L 1605.78088 514.938885 
L 1607.019137 512.403624 
L 1609.495652 508.353205 
L 1610.733909 506.084459 
L 1611.972166 504.188171 
L 1613.210424 503.180252 
L 1614.448681 502.746221 
L 1615.686938 502.131911 
L 1618.163453 499.958925 
L 1619.40171 499.358293 
L 1620.639967 499.027698 
L 1621.878225 497.972913 
L 1623.116482 495.277012 
L 1624.354739 490.797809 
L 1625.592996 485.437145 
L 1626.831254 480.909744 
L 1628.069511 478.538518 
L 1629.307768 478.113369 
L 1630.546026 478.48698 
L 1633.02254 479.44722 
L 1634.260797 479.288985 
L 1636.737312 477.086978 
L 1637.975569 477.545336 
L 1639.213826 480.519543 
L 1640.452084 485.827058 
L 1641.690341 492.539828 
L 1641.690341 492.539828 
" style="fill:none;stroke:#008000;stroke-linecap:square;stroke-width:1.5;"/>
   </g>
   <g id="patch_3">
    <path d="M 43.78125 586.86358 
L 43.78125 22.318125 
" style="fill:none;stroke:#000000;stroke-linecap:square;stroke-linejoin:miter;stroke-width:0.8;"/>
   </g>
   <g id="patch_4">
    <path d="M 1717.78125 586.86358 
L 1717.78125 22.318125 
" style="fill:none;stroke:#000000;stroke-linecap:square;stroke-linejoin:miter;stroke-width:0.8;"/>
   </g>
   <g id="patch_5">
    <path d="M 43.78125 586.86358 
L 1717.78125 586.86358 
" style="fill:none;stroke:#000000;stroke-linecap:square;stroke-linejoin:miter;stroke-width:0.8;"/>
   </g>
   <g id="patch_6">
    <path d="M 43.78125 22.318125 
L 1717.78125 22.318125 
" style="fill:none;stroke:#000000;stroke-linecap:square;stroke-linejoin:miter;stroke-width:0.8;"/>
   </g>
   <g id="text_15">
    <!-- before binarisation -->
    <g transform="translate(824.1825 16.318125)scale(0.12 -0.12)">
     <defs>
      <path d="M 3116 1747 
Q 3116 2381 2855 2742 
Q 2594 3103 2138 3103 
Q 1681 3103 1420 2742 
Q 1159 2381 1159 1747 
Q 1159 1113 1420 752 
Q 1681 391 2138 391 
Q 2594 391 2855 752 
Q 3116 1113 3116 1747 
z
M 1159 2969 
Q 1341 3281 1617 3432 
Q 1894 3584 2278 3584 
Q 2916 3584 3314 3078 
Q 3713 2572 3713 1747 
Q 3713 922 3314 415 
Q 2916 -91 2278 -91 
Q 1894 -91 1617 61 
Q 1341 213 1159 525 
L 1159 0 
L 581 0 
L 581 4863 
L 1159 4863 
L 1159 2969 
z
" id="DejaVuSans-62" transform="scale(0.015625)"/>
      <path d="M 1959 3097 
Q 1497 3097 1228 2736 
Q 959 2375 959 1747 
Q 959 1119 1226 758 
Q 1494 397 1959 397 
Q 2419 397 2687 759 
Q 2956 1122 2956 1747 
Q 2956 2369 2687 2733 
Q 2419 3097 1959 3097 
z
M 1959 3584 
Q 2709 3584 3137 3096 
Q 3566 2609 3566 1747 
Q 3566 888 3137 398 
Q 2709 -91 1959 -91 
Q 1206 -91 779 398 
Q 353 888 353 1747 
Q 353 2609 779 3096 
Q 1206 3584 1959 3584 
z
" id="DejaVuSans-6f" transform="scale(0.015625)"/>
      <path id="DejaVuSans-20" transform="scale(0.015625)"/>
      <path d="M 603 3500 
L 1178 3500 
L 1178 0 
L 603 0 
L 603 3500 
z
M 603 4863 
L 1178 4863 
L 1178 4134 
L 603 4134 
L 603 4863 
z
" id="DejaVuSans-69" transform="scale(0.015625)"/>
      <path d="M 3513 2113 
L 3513 0 
L 2938 0 
L 2938 2094 
Q 2938 2591 2744 2837 
Q 2550 3084 2163 3084 
Q 1697 3084 1428 2787 
Q 1159 2491 1159 1978 
L 1159 0 
L 581 0 
L 581 3500 
L 1159 3500 
L 1159 2956 
Q 1366 3272 1645 3428 
Q 1925 3584 2291 3584 
Q 2894 3584 3203 3211 
Q 3513 2838 3513 2113 
z
" id="DejaVuSans-6e" transform="scale(0.015625)"/>
      <path d="M 2834 3397 
L 2834 2853 
Q 2591 2978 2328 3040 
Q 2066 3103 1784 3103 
Q 1356 3103 1142 2972 
Q 928 2841 928 2578 
Q 928 2378 1081 2264 
Q 1234 2150 1697 2047 
L 1894 2003 
Q 2506 1872 2764 1633 
Q 3022 1394 3022 966 
Q 3022 478 2636 193 
Q 2250 -91 1575 -91 
Q 1294 -91 989 -36 
Q 684 19 347 128 
L 347 722 
Q 666 556 975 473 
Q 1284 391 1588 391 
Q 1994 391 2212 530 
Q 2431 669 2431 922 
Q 2431 1156 2273 1281 
Q 2116 1406 1581 1522 
L 1381 1569 
Q 847 1681 609 1914 
Q 372 2147 372 2553 
Q 372 3047 722 3315 
Q 1072 3584 1716 3584 
Q 2034 3584 2315 3537 
Q 2597 3491 2834 3397 
z
" id="DejaVuSans-73" transform="scale(0.015625)"/>
      <path d="M 1172 4494 
L 1172 3500 
L 2356 3500 
L 2356 3053 
L 1172 3053 
L 1172 1153 
Q 1172 725 1289 603 
Q 1406 481 1766 481 
L 2356 481 
L 2356 0 
L 1766 0 
Q 1100 0 847 248 
Q 594 497 594 1153 
L 594 3053 
L 172 3053 
L 172 3500 
L 594 3500 
L 594 4494 
L 1172 4494 
z
" id="DejaVuSans-74" transform="scale(0.015625)"/>
     </defs>
     <use xlink:href="#DejaVuSans-62"/>
     <use x="63.476562" xlink:href="#DejaVuSans-65"/>
     <use x="125" xlink:href="#DejaVuSans-66"/>
     <use x="160.205078" xlink:href="#DejaVuSans-6f"/>
     <use x="221.386719" xlink:href="#DejaVuSans-72"/>
     <use x="260.25" xlink:href="#DejaVuSans-65"/>
     <use x="321.773438" xlink:href="#DejaVuSans-20"/>
     <use x="353.560547" xlink:href="#DejaVuSans-62"/>
     <use x="417.037109" xlink:href="#DejaVuSans-69"/>
     <use x="444.820312" xlink:href="#DejaVuSans-6e"/>
     <use x="508.199219" xlink:href="#DejaVuSans-61"/>
     <use x="569.478516" xlink:href="#DejaVuSans-72"/>
     <use x="610.591797" xlink:href="#DejaVuSans-69"/>
     <use x="638.375" xlink:href="#DejaVuSans-73"/>
     <use x="690.474609" xlink:href="#DejaVuSans-61"/>
     <use x="751.753906" xlink:href="#DejaVuSans-74"/>
     <use x="790.962891" xlink:href="#DejaVuSans-69"/>
     <use x="818.746094" xlink:href="#DejaVuSans-6f"/>
     <use x="879.927734" xlink:href="#DejaVuSans-6e"/>
    </g>
   </g>
  </g>
  <g id="axes_2">
   <g id="patch_7">
    <path d="M 43.78125 1264.318125 
L 1717.78125 1264.318125 
L 1717.78125 699.77267 
L 43.78125 699.77267 
z
" style="fill:#ffffff;"/>
   </g>
   <g id="matplotlib.axis_3">
    <g id="xtick_8">
     <g id="line2d_14">
      <g>
       <use style="stroke:#000000;stroke-width:0.8;" x="119.872159" xlink:href="#mbb41732957" y="1264.318125"/>
      </g>
     </g>
     <g id="text_16">
      <!-- 0 -->
      <g transform="translate(116.690909 1278.916563)scale(0.1 -0.1)">
       <use xlink:href="#DejaVuSans-30"/>
      </g>
     </g>
    </g>
    <g id="xtick_9">
     <g id="line2d_15">
      <g>
       <use style="stroke:#000000;stroke-width:0.8;" x="367.523613" xlink:href="#mbb41732957" y="1264.318125"/>
      </g>
     </g>
     <g id="text_17">
      <!-- 200 -->
      <g transform="translate(357.979863 1278.916563)scale(0.1 -0.1)">
       <use xlink:href="#DejaVuSans-32"/>
       <use x="63.623047" xlink:href="#DejaVuSans-30"/>
       <use x="127.246094" xlink:href="#DejaVuSans-30"/>
      </g>
     </g>
    </g>
    <g id="xtick_10">
     <g id="line2d_16">
      <g>
       <use style="stroke:#000000;stroke-width:0.8;" x="615.175066" xlink:href="#mbb41732957" y="1264.318125"/>
      </g>
     </g>
     <g id="text_18">
      <!-- 400 -->
      <g transform="translate(605.631316 1278.916563)scale(0.1 -0.1)">
       <use xlink:href="#DejaVuSans-34"/>
       <use x="63.623047" xlink:href="#DejaVuSans-30"/>
       <use x="127.246094" xlink:href="#DejaVuSans-30"/>
      </g>
     </g>
    </g>
    <g id="xtick_11">
     <g id="line2d_17">
      <g>
       <use style="stroke:#000000;stroke-width:0.8;" x="862.82652" xlink:href="#mbb41732957" y="1264.318125"/>
      </g>
     </g>
     <g id="text_19">
      <!-- 600 -->
      <g transform="translate(853.28277 1278.916563)scale(0.1 -0.1)">
       <use xlink:href="#DejaVuSans-36"/>
       <use x="63.623047" xlink:href="#DejaVuSans-30"/>
       <use x="127.246094" xlink:href="#DejaVuSans-30"/>
      </g>
     </g>
    </g>
    <g id="xtick_12">
     <g id="line2d_18">
      <g>
       <use style="stroke:#000000;stroke-width:0.8;" x="1110.477973" xlink:href="#mbb41732957" y="1264.318125"/>
      </g>
     </g>
     <g id="text_20">
      <!-- 800 -->
      <g transform="translate(1100.934223 1278.916563)scale(0.1 -0.1)">
       <use xlink:href="#DejaVuSans-38"/>
       <use x="63.623047" xlink:href="#DejaVuSans-30"/>
       <use x="127.246094" xlink:href="#DejaVuSans-30"/>
      </g>
     </g>
    </g>
    <g id="xtick_13">
     <g id="line2d_19">
      <g>
       <use style="stroke:#000000;stroke-width:0.8;" x="1358.129427" xlink:href="#mbb41732957" y="1264.318125"/>
      </g>
     </g>
     <g id="text_21">
      <!-- 1000 -->
      <g transform="translate(1345.404427 1278.916563)scale(0.1 -0.1)">
       <use xlink:href="#DejaVuSans-31"/>
       <use x="63.623047" xlink:href="#DejaVuSans-30"/>
       <use x="127.246094" xlink:href="#DejaVuSans-30"/>
       <use x="190.869141" xlink:href="#DejaVuSans-30"/>
      </g>
     </g>
    </g>
    <g id="xtick_14">
     <g id="line2d_20">
      <g>
       <use style="stroke:#000000;stroke-width:0.8;" x="1605.78088" xlink:href="#mbb41732957" y="1264.318125"/>
      </g>
     </g>
     <g id="text_22">
      <!-- 1200 -->
      <g transform="translate(1593.05588 1278.916563)scale(0.1 -0.1)">
       <use xlink:href="#DejaVuSans-31"/>
       <use x="63.623047" xlink:href="#DejaVuSans-32"/>
       <use x="127.246094" xlink:href="#DejaVuSans-30"/>
       <use x="190.869141" xlink:href="#DejaVuSans-30"/>
      </g>
     </g>
    </g>
    <g id="text_23">
     <!-- frame -->
     <g transform="translate(865.954687 1292.594688)scale(0.1 -0.1)">
      <use xlink:href="#DejaVuSans-66"/>
      <use x="35.205078" xlink:href="#DejaVuSans-72"/>
      <use x="76.318359" xlink:href="#DejaVuSans-61"/>
      <use x="137.597656" xlink:href="#DejaVuSans-6d"/>
      <use x="235.009766" xlink:href="#DejaVuSans-65"/>
     </g>
    </g>
   </g>
   <g id="matplotlib.axis_4">
    <g id="ytick_6">
     <g id="line2d_21">
      <g>
       <use style="stroke:#000000;stroke-width:0.8;" x="43.78125" xlink:href="#m1b0dfeaf08" y="1238.656968"/>
      </g>
     </g>
     <g id="text_24">
      <!-- 0.0 -->
      <g transform="translate(20.878125 1242.456187)scale(0.1 -0.1)">
       <defs>
        <path d="M 684 794 
L 1344 794 
L 1344 0 
L 684 0 
L 684 794 
z
" id="DejaVuSans-2e" transform="scale(0.015625)"/>
       </defs>
       <use xlink:href="#DejaVuSans-30"/>
       <use x="63.623047" xlink:href="#DejaVuSans-2e"/>
       <use x="95.410156" xlink:href="#DejaVuSans-30"/>
      </g>
     </g>
    </g>
    <g id="ytick_7">
     <g id="line2d_22">
      <g>
       <use style="stroke:#000000;stroke-width:0.8;" x="43.78125" xlink:href="#m1b0dfeaf08" y="1136.01234"/>
      </g>
     </g>
     <g id="text_25">
      <!-- 0.2 -->
      <g transform="translate(20.878125 1139.811559)scale(0.1 -0.1)">
       <use xlink:href="#DejaVuSans-30"/>
       <use x="63.623047" xlink:href="#DejaVuSans-2e"/>
       <use x="95.410156" xlink:href="#DejaVuSans-32"/>
      </g>
     </g>
    </g>
    <g id="ytick_8">
     <g id="line2d_23">
      <g>
       <use style="stroke:#000000;stroke-width:0.8;" x="43.78125" xlink:href="#m1b0dfeaf08" y="1033.367712"/>
      </g>
     </g>
     <g id="text_26">
      <!-- 0.4 -->
      <g transform="translate(20.878125 1037.166931)scale(0.1 -0.1)">
       <use xlink:href="#DejaVuSans-30"/>
       <use x="63.623047" xlink:href="#DejaVuSans-2e"/>
       <use x="95.410156" xlink:href="#DejaVuSans-34"/>
      </g>
     </g>
    </g>
    <g id="ytick_9">
     <g id="line2d_24">
      <g>
       <use style="stroke:#000000;stroke-width:0.8;" x="43.78125" xlink:href="#m1b0dfeaf08" y="930.723084"/>
      </g>
     </g>
     <g id="text_27">
      <!-- 0.6 -->
      <g transform="translate(20.878125 934.522302)scale(0.1 -0.1)">
       <use xlink:href="#DejaVuSans-30"/>
       <use x="63.623047" xlink:href="#DejaVuSans-2e"/>
       <use x="95.410156" xlink:href="#DejaVuSans-36"/>
      </g>
     </g>
    </g>
    <g id="ytick_10">
     <g id="line2d_25">
      <g>
       <use style="stroke:#000000;stroke-width:0.8;" x="43.78125" xlink:href="#m1b0dfeaf08" y="828.078456"/>
      </g>
     </g>
     <g id="text_28">
      <!-- 0.8 -->
      <g transform="translate(20.878125 831.877674)scale(0.1 -0.1)">
       <use xlink:href="#DejaVuSans-30"/>
       <use x="63.623047" xlink:href="#DejaVuSans-2e"/>
       <use x="95.410156" xlink:href="#DejaVuSans-38"/>
      </g>
     </g>
    </g>
    <g id="ytick_11">
     <g id="line2d_26">
      <g>
       <use style="stroke:#000000;stroke-width:0.8;" x="43.78125" xlink:href="#m1b0dfeaf08" y="725.433827"/>
      </g>
     </g>
     <g id="text_29">
      <!-- 1.0 -->
      <g transform="translate(20.878125 729.233046)scale(0.1 -0.1)">
       <use xlink:href="#DejaVuSans-31"/>
       <use x="63.623047" xlink:href="#DejaVuSans-2e"/>
       <use x="95.410156" xlink:href="#DejaVuSans-30"/>
      </g>
     </g>
    </g>
    <g id="text_30">
     <!-- GCaMP -->
     <g transform="translate(14.798437 999.803991)rotate(-90)scale(0.1 -0.1)">
      <use xlink:href="#DejaVuSans-47"/>
      <use x="77.490234" xlink:href="#DejaVuSans-43"/>
      <use x="147.314453" xlink:href="#DejaVuSans-61"/>
      <use x="208.59375" xlink:href="#DejaVuSans-4d"/>
      <use x="294.873047" xlink:href="#DejaVuSans-50"/>
     </g>
    </g>
   </g>
   <g id="line2d_27">
    <path clip-path="url(#p2e96216bd8)" d="M 119.872159 1238.656968 
L 134.731246 1238.656968 
L 135.969504 725.433827 
L 423.24519 725.433827 
L 424.483447 1238.656968 
L 1641.690341 1238.656968 
L 1641.690341 1238.656968 
" style="fill:none;stroke:#008000;stroke-linecap:square;stroke-width:1.5;"/>
   </g>
   <g id="patch_8">
    <path d="M 43.78125 1264.318125 
L 43.78125 699.77267 
" style="fill:none;stroke:#000000;stroke-linecap:square;stroke-linejoin:miter;stroke-width:0.8;"/>
   </g>
   <g id="patch_9">
    <path d="M 1717.78125 1264.318125 
L 1717.78125 699.77267 
" style="fill:none;stroke:#000000;stroke-linecap:square;stroke-linejoin:miter;stroke-width:0.8;"/>
   </g>
   <g id="patch_10">
    <path d="M 43.78125 1264.318125 
L 1717.78125 1264.318125 
" style="fill:none;stroke:#000000;stroke-linecap:square;stroke-linejoin:miter;stroke-width:0.8;"/>
   </g>
   <g id="patch_11">
    <path d="M 43.78125 699.77267 
L 1717.78125 699.77267 
" style="fill:none;stroke:#000000;stroke-linecap:square;stroke-linejoin:miter;stroke-width:0.8;"/>
   </g>
   <g id="text_31">
    <!-- before binarisation -->
    <g transform="translate(824.1825 693.77267)scale(0.12 -0.12)">
     <use xlink:href="#DejaVuSans-62"/>
     <use x="63.476562" xlink:href="#DejaVuSans-65"/>
     <use x="125" xlink:href="#DejaVuSans-66"/>
     <use x="160.205078" xlink:href="#DejaVuSans-6f"/>
     <use x="221.386719" xlink:href="#DejaVuSans-72"/>
     <use x="260.25" xlink:href="#DejaVuSans-65"/>
     <use x="321.773438" xlink:href="#DejaVuSans-20"/>
     <use x="353.560547" xlink:href="#DejaVuSans-62"/>
     <use x="417.037109" xlink:href="#DejaVuSans-69"/>
     <use x="444.820312" xlink:href="#DejaVuSans-6e"/>
     <use x="508.199219" xlink:href="#DejaVuSans-61"/>
     <use x="569.478516" xlink:href="#DejaVuSans-72"/>
     <use x="610.591797" xlink:href="#DejaVuSans-69"/>
     <use x="638.375" xlink:href="#DejaVuSans-73"/>
     <use x="690.474609" xlink:href="#DejaVuSans-61"/>
     <use x="751.753906" xlink:href="#DejaVuSans-74"/>
     <use x="790.962891" xlink:href="#DejaVuSans-69"/>
     <use x="818.746094" xlink:href="#DejaVuSans-6f"/>
     <use x="879.927734" xlink:href="#DejaVuSans-6e"/>
    </g>
   </g>
  </g>
 </g>
 <defs>
  <clipPath id="p5c1db4f510">
   <rect height="564.545455" width="1674" x="43.78125" y="22.318125"/>
  </clipPath>
  <clipPath id="p2e96216bd8">
   <rect height="564.545455" width="1674" x="43.78125" y="699.77267"/>
  </clipPath>
 </defs>
</svg>
