<?xml version="1.0" encoding="utf-8" standalone="no"?>
<!DOCTYPE svg PUBLIC "-//W3C//DTD SVG 1.1//EN"
  "http://www.w3.org/Graphics/SVG/1.1/DTD/svg11.dtd">
<svg height="1301.874375pt" version="1.1" viewBox="0 0 1724.98125 1301.874375" width="1724.98125pt" xmlns="http://www.w3.org/2000/svg" xmlns:xlink="http://www.w3.org/1999/xlink">
 <metadata>
  <rdf:RDF xmlns:cc="http://creativecommons.org/ns#" xmlns:dc="http://purl.org/dc/elements/1.1/" xmlns:rdf="http://www.w3.org/1999/02/22-rdf-syntax-ns#">
   <cc:Work>
    <dc:type rdf:resource="http://purl.org/dc/dcmitype/StillImage"/>
    <dc:date>2022-07-24T15:54:38.334772</dc:date>
    <dc:format>image/svg+xml</dc:format>
    <dc:creator>
     <cc:Agent>
      <dc:title>Matplotlib v3.4.2, https://matplotlib.org/</dc:title>
     </cc:Agent>
    </dc:creator>
   </cc:Work>
  </rdf:RDF>
 </metadata>
 <defs>
  <style type="text/css">*{stroke-linecap:butt;stroke-linejoin:round;}</style>
 </defs>
 <g id="figure_1">
  <g id="patch_1">
   <path d="M 0 1301.874375 
L 1724.98125 1301.874375 
L 1724.98125 0 
L 0 0 
z
" style="fill:#ffffff;"/>
  </g>
  <g id="axes_1">
   <g id="patch_2">
    <path d="M 43.78125 586.86358 
L 1717.78125 586.86358 
L 1717.78125 22.318125 
L 43.78125 22.318125 
z
" style="fill:#ffffff;"/>
   </g>
   <g id="matplotlib.axis_1">
    <g id="xtick_1">
     <g id="line2d_1">
      <defs>
       <path d="M 0 0 
L 0 3.5 
" id="m2cce6759c9" style="stroke:#000000;stroke-width:0.8;"/>
      </defs>
      <g>
       <use style="stroke:#000000;stroke-width:0.8;" x="119.872159" xlink:href="#m2cce6759c9" y="586.86358"/>
      </g>
     </g>
     <g id="text_1">
      <!-- 0 -->
      <g transform="translate(116.690909 601.462017)scale(0.1 -0.1)">
       <defs>
        <path d="M 2034 4250 
Q 1547 4250 1301 3770 
Q 1056 3291 1056 2328 
Q 1056 1369 1301 889 
Q 1547 409 2034 409 
Q 2525 409 2770 889 
Q 3016 1369 3016 2328 
Q 3016 3291 2770 3770 
Q 2525 4250 2034 4250 
z
M 2034 4750 
Q 2819 4750 3233 4129 
Q 3647 3509 3647 2328 
Q 3647 1150 3233 529 
Q 2819 -91 2034 -91 
Q 1250 -91 836 529 
Q 422 1150 422 2328 
Q 422 3509 836 4129 
Q 1250 4750 2034 4750 
z
" id="DejaVuSans-30" transform="scale(0.015625)"/>
       </defs>
       <use xlink:href="#DejaVuSans-30"/>
      </g>
     </g>
    </g>
    <g id="xtick_2">
     <g id="line2d_2">
      <g>
       <use style="stroke:#000000;stroke-width:0.8;" x="367.523613" xlink:href="#m2cce6759c9" y="586.86358"/>
      </g>
     </g>
     <g id="text_2">
      <!-- 200 -->
      <g transform="translate(357.979863 601.462017)scale(0.1 -0.1)">
       <defs>
        <path d="M 1228 531 
L 3431 531 
L 3431 0 
L 469 0 
L 469 531 
Q 828 903 1448 1529 
Q 2069 2156 2228 2338 
Q 2531 2678 2651 2914 
Q 2772 3150 2772 3378 
Q 2772 3750 2511 3984 
Q 2250 4219 1831 4219 
Q 1534 4219 1204 4116 
Q 875 4013 500 3803 
L 500 4441 
Q 881 4594 1212 4672 
Q 1544 4750 1819 4750 
Q 2544 4750 2975 4387 
Q 3406 4025 3406 3419 
Q 3406 3131 3298 2873 
Q 3191 2616 2906 2266 
Q 2828 2175 2409 1742 
Q 1991 1309 1228 531 
z
" id="DejaVuSans-32" transform="scale(0.015625)"/>
       </defs>
       <use xlink:href="#DejaVuSans-32"/>
       <use x="63.623047" xlink:href="#DejaVuSans-30"/>
       <use x="127.246094" xlink:href="#DejaVuSans-30"/>
      </g>
     </g>
    </g>
    <g id="xtick_3">
     <g id="line2d_3">
      <g>
       <use style="stroke:#000000;stroke-width:0.8;" x="615.175066" xlink:href="#m2cce6759c9" y="586.86358"/>
      </g>
     </g>
     <g id="text_3">
      <!-- 400 -->
      <g transform="translate(605.631316 601.462017)scale(0.1 -0.1)">
       <defs>
        <path d="M 2419 4116 
L 825 1625 
L 2419 1625 
L 2419 4116 
z
M 2253 4666 
L 3047 4666 
L 3047 1625 
L 3713 1625 
L 3713 1100 
L 3047 1100 
L 3047 0 
L 2419 0 
L 2419 1100 
L 313 1100 
L 313 1709 
L 2253 4666 
z
" id="DejaVuSans-34" transform="scale(0.015625)"/>
       </defs>
       <use xlink:href="#DejaVuSans-34"/>
       <use x="63.623047" xlink:href="#DejaVuSans-30"/>
       <use x="127.246094" xlink:href="#DejaVuSans-30"/>
      </g>
     </g>
    </g>
    <g id="xtick_4">
     <g id="line2d_4">
      <g>
       <use style="stroke:#000000;stroke-width:0.8;" x="862.82652" xlink:href="#m2cce6759c9" y="586.86358"/>
      </g>
     </g>
     <g id="text_4">
      <!-- 600 -->
      <g transform="translate(853.28277 601.462017)scale(0.1 -0.1)">
       <defs>
        <path d="M 2113 2584 
Q 1688 2584 1439 2293 
Q 1191 2003 1191 1497 
Q 1191 994 1439 701 
Q 1688 409 2113 409 
Q 2538 409 2786 701 
Q 3034 994 3034 1497 
Q 3034 2003 2786 2293 
Q 2538 2584 2113 2584 
z
M 3366 4563 
L 3366 3988 
Q 3128 4100 2886 4159 
Q 2644 4219 2406 4219 
Q 1781 4219 1451 3797 
Q 1122 3375 1075 2522 
Q 1259 2794 1537 2939 
Q 1816 3084 2150 3084 
Q 2853 3084 3261 2657 
Q 3669 2231 3669 1497 
Q 3669 778 3244 343 
Q 2819 -91 2113 -91 
Q 1303 -91 875 529 
Q 447 1150 447 2328 
Q 447 3434 972 4092 
Q 1497 4750 2381 4750 
Q 2619 4750 2861 4703 
Q 3103 4656 3366 4563 
z
" id="DejaVuSans-36" transform="scale(0.015625)"/>
       </defs>
       <use xlink:href="#DejaVuSans-36"/>
       <use x="63.623047" xlink:href="#DejaVuSans-30"/>
       <use x="127.246094" xlink:href="#DejaVuSans-30"/>
      </g>
     </g>
    </g>
    <g id="xtick_5">
     <g id="line2d_5">
      <g>
       <use style="stroke:#000000;stroke-width:0.8;" x="1110.477973" xlink:href="#m2cce6759c9" y="586.86358"/>
      </g>
     </g>
     <g id="text_5">
      <!-- 800 -->
      <g transform="translate(1100.934223 601.462017)scale(0.1 -0.1)">
       <defs>
        <path d="M 2034 2216 
Q 1584 2216 1326 1975 
Q 1069 1734 1069 1313 
Q 1069 891 1326 650 
Q 1584 409 2034 409 
Q 2484 409 2743 651 
Q 3003 894 3003 1313 
Q 3003 1734 2745 1975 
Q 2488 2216 2034 2216 
z
M 1403 2484 
Q 997 2584 770 2862 
Q 544 3141 544 3541 
Q 544 4100 942 4425 
Q 1341 4750 2034 4750 
Q 2731 4750 3128 4425 
Q 3525 4100 3525 3541 
Q 3525 3141 3298 2862 
Q 3072 2584 2669 2484 
Q 3125 2378 3379 2068 
Q 3634 1759 3634 1313 
Q 3634 634 3220 271 
Q 2806 -91 2034 -91 
Q 1263 -91 848 271 
Q 434 634 434 1313 
Q 434 1759 690 2068 
Q 947 2378 1403 2484 
z
M 1172 3481 
Q 1172 3119 1398 2916 
Q 1625 2713 2034 2713 
Q 2441 2713 2670 2916 
Q 2900 3119 2900 3481 
Q 2900 3844 2670 4047 
Q 2441 4250 2034 4250 
Q 1625 4250 1398 4047 
Q 1172 3844 1172 3481 
z
" id="DejaVuSans-38" transform="scale(0.015625)"/>
       </defs>
       <use xlink:href="#DejaVuSans-38"/>
       <use x="63.623047" xlink:href="#DejaVuSans-30"/>
       <use x="127.246094" xlink:href="#DejaVuSans-30"/>
      </g>
     </g>
    </g>
    <g id="xtick_6">
     <g id="line2d_6">
      <g>
       <use style="stroke:#000000;stroke-width:0.8;" x="1358.129427" xlink:href="#m2cce6759c9" y="586.86358"/>
      </g>
     </g>
     <g id="text_6">
      <!-- 1000 -->
      <g transform="translate(1345.404427 601.462017)scale(0.1 -0.1)">
       <defs>
        <path d="M 794 531 
L 1825 531 
L 1825 4091 
L 703 3866 
L 703 4441 
L 1819 4666 
L 2450 4666 
L 2450 531 
L 3481 531 
L 3481 0 
L 794 0 
L 794 531 
z
" id="DejaVuSans-31" transform="scale(0.015625)"/>
       </defs>
       <use xlink:href="#DejaVuSans-31"/>
       <use x="63.623047" xlink:href="#DejaVuSans-30"/>
       <use x="127.246094" xlink:href="#DejaVuSans-30"/>
       <use x="190.869141" xlink:href="#DejaVuSans-30"/>
      </g>
     </g>
    </g>
    <g id="xtick_7">
     <g id="line2d_7">
      <g>
       <use style="stroke:#000000;stroke-width:0.8;" x="1605.78088" xlink:href="#m2cce6759c9" y="586.86358"/>
      </g>
     </g>
     <g id="text_7">
      <!-- 1200 -->
      <g transform="translate(1593.05588 601.462017)scale(0.1 -0.1)">
       <use xlink:href="#DejaVuSans-31"/>
       <use x="63.623047" xlink:href="#DejaVuSans-32"/>
       <use x="127.246094" xlink:href="#DejaVuSans-30"/>
       <use x="190.869141" xlink:href="#DejaVuSans-30"/>
      </g>
     </g>
    </g>
    <g id="text_8">
     <!-- frame -->
     <g transform="translate(865.954687 615.140142)scale(0.1 -0.1)">
      <defs>
       <path d="M 2375 4863 
L 2375 4384 
L 1825 4384 
Q 1516 4384 1395 4259 
Q 1275 4134 1275 3809 
L 1275 3500 
L 2222 3500 
L 2222 3053 
L 1275 3053 
L 1275 0 
L 697 0 
L 697 3053 
L 147 3053 
L 147 3500 
L 697 3500 
L 697 3744 
Q 697 4328 969 4595 
Q 1241 4863 1831 4863 
L 2375 4863 
z
" id="DejaVuSans-66" transform="scale(0.015625)"/>
       <path d="M 2631 2963 
Q 2534 3019 2420 3045 
Q 2306 3072 2169 3072 
Q 1681 3072 1420 2755 
Q 1159 2438 1159 1844 
L 1159 0 
L 581 0 
L 581 3500 
L 1159 3500 
L 1159 2956 
Q 1341 3275 1631 3429 
Q 1922 3584 2338 3584 
Q 2397 3584 2469 3576 
Q 2541 3569 2628 3553 
L 2631 2963 
z
" id="DejaVuSans-72" transform="scale(0.015625)"/>
       <path d="M 2194 1759 
Q 1497 1759 1228 1600 
Q 959 1441 959 1056 
Q 959 750 1161 570 
Q 1363 391 1709 391 
Q 2188 391 2477 730 
Q 2766 1069 2766 1631 
L 2766 1759 
L 2194 1759 
z
M 3341 1997 
L 3341 0 
L 2766 0 
L 2766 531 
Q 2569 213 2275 61 
Q 1981 -91 1556 -91 
Q 1019 -91 701 211 
Q 384 513 384 1019 
Q 384 1609 779 1909 
Q 1175 2209 1959 2209 
L 2766 2209 
L 2766 2266 
Q 2766 2663 2505 2880 
Q 2244 3097 1772 3097 
Q 1472 3097 1187 3025 
Q 903 2953 641 2809 
L 641 3341 
Q 956 3463 1253 3523 
Q 1550 3584 1831 3584 
Q 2591 3584 2966 3190 
Q 3341 2797 3341 1997 
z
" id="DejaVuSans-61" transform="scale(0.015625)"/>
       <path d="M 3328 2828 
Q 3544 3216 3844 3400 
Q 4144 3584 4550 3584 
Q 5097 3584 5394 3201 
Q 5691 2819 5691 2113 
L 5691 0 
L 5113 0 
L 5113 2094 
Q 5113 2597 4934 2840 
Q 4756 3084 4391 3084 
Q 3944 3084 3684 2787 
Q 3425 2491 3425 1978 
L 3425 0 
L 2847 0 
L 2847 2094 
Q 2847 2600 2669 2842 
Q 2491 3084 2119 3084 
Q 1678 3084 1418 2786 
Q 1159 2488 1159 1978 
L 1159 0 
L 581 0 
L 581 3500 
L 1159 3500 
L 1159 2956 
Q 1356 3278 1631 3431 
Q 1906 3584 2284 3584 
Q 2666 3584 2933 3390 
Q 3200 3197 3328 2828 
z
" id="DejaVuSans-6d" transform="scale(0.015625)"/>
       <path d="M 3597 1894 
L 3597 1613 
L 953 1613 
Q 991 1019 1311 708 
Q 1631 397 2203 397 
Q 2534 397 2845 478 
Q 3156 559 3463 722 
L 3463 178 
Q 3153 47 2828 -22 
Q 2503 -91 2169 -91 
Q 1331 -91 842 396 
Q 353 884 353 1716 
Q 353 2575 817 3079 
Q 1281 3584 2069 3584 
Q 2775 3584 3186 3129 
Q 3597 2675 3597 1894 
z
M 3022 2063 
Q 3016 2534 2758 2815 
Q 2500 3097 2075 3097 
Q 1594 3097 1305 2825 
Q 1016 2553 972 2059 
L 3022 2063 
z
" id="DejaVuSans-65" transform="scale(0.015625)"/>
      </defs>
      <use xlink:href="#DejaVuSans-66"/>
      <use x="35.205078" xlink:href="#DejaVuSans-72"/>
      <use x="76.318359" xlink:href="#DejaVuSans-61"/>
      <use x="137.597656" xlink:href="#DejaVuSans-6d"/>
      <use x="235.009766" xlink:href="#DejaVuSans-65"/>
     </g>
    </g>
   </g>
   <g id="matplotlib.axis_2">
    <g id="ytick_1">
     <g id="line2d_8">
      <defs>
       <path d="M 0 0 
L -3.5 0 
" id="mb763260cc8" style="stroke:#000000;stroke-width:0.8;"/>
      </defs>
      <g>
       <use style="stroke:#000000;stroke-width:0.8;" x="43.78125" xlink:href="#mb763260cc8" y="561.202423"/>
      </g>
     </g>
     <g id="text_9">
      <!-- 0.0 -->
      <g transform="translate(20.878125 565.001641)scale(0.1 -0.1)">
       <defs>
        <path d="M 684 794 
L 1344 794 
L 1344 0 
L 684 0 
L 684 794 
z
" id="DejaVuSans-2e" transform="scale(0.015625)"/>
       </defs>
       <use xlink:href="#DejaVuSans-30"/>
       <use x="63.623047" xlink:href="#DejaVuSans-2e"/>
       <use x="95.410156" xlink:href="#DejaVuSans-30"/>
      </g>
     </g>
    </g>
    <g id="ytick_2">
     <g id="line2d_9">
      <g>
       <use style="stroke:#000000;stroke-width:0.8;" x="43.78125" xlink:href="#mb763260cc8" y="475.677156"/>
      </g>
     </g>
     <g id="text_10">
      <!-- 0.5 -->
      <g transform="translate(20.878125 479.476375)scale(0.1 -0.1)">
       <defs>
        <path d="M 691 4666 
L 3169 4666 
L 3169 4134 
L 1269 4134 
L 1269 2991 
Q 1406 3038 1543 3061 
Q 1681 3084 1819 3084 
Q 2600 3084 3056 2656 
Q 3513 2228 3513 1497 
Q 3513 744 3044 326 
Q 2575 -91 1722 -91 
Q 1428 -91 1123 -41 
Q 819 9 494 109 
L 494 744 
Q 775 591 1075 516 
Q 1375 441 1709 441 
Q 2250 441 2565 725 
Q 2881 1009 2881 1497 
Q 2881 1984 2565 2268 
Q 2250 2553 1709 2553 
Q 1456 2553 1204 2497 
Q 953 2441 691 2322 
L 691 4666 
z
" id="DejaVuSans-35" transform="scale(0.015625)"/>
       </defs>
       <use xlink:href="#DejaVuSans-30"/>
       <use x="63.623047" xlink:href="#DejaVuSans-2e"/>
       <use x="95.410156" xlink:href="#DejaVuSans-35"/>
      </g>
     </g>
    </g>
    <g id="ytick_3">
     <g id="line2d_10">
      <g>
       <use style="stroke:#000000;stroke-width:0.8;" x="43.78125" xlink:href="#mb763260cc8" y="390.151889"/>
      </g>
     </g>
     <g id="text_11">
      <!-- 1.0 -->
      <g transform="translate(20.878125 393.951108)scale(0.1 -0.1)">
       <use xlink:href="#DejaVuSans-31"/>
       <use x="63.623047" xlink:href="#DejaVuSans-2e"/>
       <use x="95.410156" xlink:href="#DejaVuSans-30"/>
      </g>
     </g>
    </g>
    <g id="ytick_4">
     <g id="line2d_11">
      <g>
       <use style="stroke:#000000;stroke-width:0.8;" x="43.78125" xlink:href="#mb763260cc8" y="304.626622"/>
      </g>
     </g>
     <g id="text_12">
      <!-- 1.5 -->
      <g transform="translate(20.878125 308.425841)scale(0.1 -0.1)">
       <use xlink:href="#DejaVuSans-31"/>
       <use x="63.623047" xlink:href="#DejaVuSans-2e"/>
       <use x="95.410156" xlink:href="#DejaVuSans-35"/>
      </g>
     </g>
    </g>
    <g id="ytick_5">
     <g id="line2d_12">
      <g>
       <use style="stroke:#000000;stroke-width:0.8;" x="43.78125" xlink:href="#mb763260cc8" y="219.101356"/>
      </g>
     </g>
     <g id="text_13">
      <!-- 2.0 -->
      <g transform="translate(20.878125 222.900574)scale(0.1 -0.1)">
       <use xlink:href="#DejaVuSans-32"/>
       <use x="63.623047" xlink:href="#DejaVuSans-2e"/>
       <use x="95.410156" xlink:href="#DejaVuSans-30"/>
      </g>
     </g>
    </g>
    <g id="ytick_6">
     <g id="line2d_13">
      <g>
       <use style="stroke:#000000;stroke-width:0.8;" x="43.78125" xlink:href="#mb763260cc8" y="133.576089"/>
      </g>
     </g>
     <g id="text_14">
      <!-- 2.5 -->
      <g transform="translate(20.878125 137.375308)scale(0.1 -0.1)">
       <use xlink:href="#DejaVuSans-32"/>
       <use x="63.623047" xlink:href="#DejaVuSans-2e"/>
       <use x="95.410156" xlink:href="#DejaVuSans-35"/>
      </g>
     </g>
    </g>
    <g id="ytick_7">
     <g id="line2d_14">
      <g>
       <use style="stroke:#000000;stroke-width:0.8;" x="43.78125" xlink:href="#mb763260cc8" y="48.050822"/>
      </g>
     </g>
     <g id="text_15">
      <!-- 3.0 -->
      <g transform="translate(20.878125 51.850041)scale(0.1 -0.1)">
       <defs>
        <path d="M 2597 2516 
Q 3050 2419 3304 2112 
Q 3559 1806 3559 1356 
Q 3559 666 3084 287 
Q 2609 -91 1734 -91 
Q 1441 -91 1130 -33 
Q 819 25 488 141 
L 488 750 
Q 750 597 1062 519 
Q 1375 441 1716 441 
Q 2309 441 2620 675 
Q 2931 909 2931 1356 
Q 2931 1769 2642 2001 
Q 2353 2234 1838 2234 
L 1294 2234 
L 1294 2753 
L 1863 2753 
Q 2328 2753 2575 2939 
Q 2822 3125 2822 3475 
Q 2822 3834 2567 4026 
Q 2313 4219 1838 4219 
Q 1578 4219 1281 4162 
Q 984 4106 628 3988 
L 628 4550 
Q 988 4650 1302 4700 
Q 1616 4750 1894 4750 
Q 2613 4750 3031 4423 
Q 3450 4097 3450 3541 
Q 3450 3153 3228 2886 
Q 3006 2619 2597 2516 
z
" id="DejaVuSans-33" transform="scale(0.015625)"/>
       </defs>
       <use xlink:href="#DejaVuSans-33"/>
       <use x="63.623047" xlink:href="#DejaVuSans-2e"/>
       <use x="95.410156" xlink:href="#DejaVuSans-30"/>
      </g>
     </g>
    </g>
    <g id="text_16">
     <!-- GCaMP -->
     <g transform="translate(14.798437 322.349446)rotate(-90)scale(0.1 -0.1)">
      <defs>
       <path d="M 3809 666 
L 3809 1919 
L 2778 1919 
L 2778 2438 
L 4434 2438 
L 4434 434 
Q 4069 175 3628 42 
Q 3188 -91 2688 -91 
Q 1594 -91 976 548 
Q 359 1188 359 2328 
Q 359 3472 976 4111 
Q 1594 4750 2688 4750 
Q 3144 4750 3555 4637 
Q 3966 4525 4313 4306 
L 4313 3634 
Q 3963 3931 3569 4081 
Q 3175 4231 2741 4231 
Q 1884 4231 1454 3753 
Q 1025 3275 1025 2328 
Q 1025 1384 1454 906 
Q 1884 428 2741 428 
Q 3075 428 3337 486 
Q 3600 544 3809 666 
z
" id="DejaVuSans-47" transform="scale(0.015625)"/>
       <path d="M 4122 4306 
L 4122 3641 
Q 3803 3938 3442 4084 
Q 3081 4231 2675 4231 
Q 1875 4231 1450 3742 
Q 1025 3253 1025 2328 
Q 1025 1406 1450 917 
Q 1875 428 2675 428 
Q 3081 428 3442 575 
Q 3803 722 4122 1019 
L 4122 359 
Q 3791 134 3420 21 
Q 3050 -91 2638 -91 
Q 1578 -91 968 557 
Q 359 1206 359 2328 
Q 359 3453 968 4101 
Q 1578 4750 2638 4750 
Q 3056 4750 3426 4639 
Q 3797 4528 4122 4306 
z
" id="DejaVuSans-43" transform="scale(0.015625)"/>
       <path d="M 628 4666 
L 1569 4666 
L 2759 1491 
L 3956 4666 
L 4897 4666 
L 4897 0 
L 4281 0 
L 4281 4097 
L 3078 897 
L 2444 897 
L 1241 4097 
L 1241 0 
L 628 0 
L 628 4666 
z
" id="DejaVuSans-4d" transform="scale(0.015625)"/>
       <path d="M 1259 4147 
L 1259 2394 
L 2053 2394 
Q 2494 2394 2734 2622 
Q 2975 2850 2975 3272 
Q 2975 3691 2734 3919 
Q 2494 4147 2053 4147 
L 1259 4147 
z
M 628 4666 
L 2053 4666 
Q 2838 4666 3239 4311 
Q 3641 3956 3641 3272 
Q 3641 2581 3239 2228 
Q 2838 1875 2053 1875 
L 1259 1875 
L 1259 0 
L 628 0 
L 628 4666 
z
" id="DejaVuSans-50" transform="scale(0.015625)"/>
      </defs>
      <use xlink:href="#DejaVuSans-47"/>
      <use x="77.490234" xlink:href="#DejaVuSans-43"/>
      <use x="147.314453" xlink:href="#DejaVuSans-61"/>
      <use x="208.59375" xlink:href="#DejaVuSans-4d"/>
      <use x="294.873047" xlink:href="#DejaVuSans-50"/>
     </g>
    </g>
   </g>
   <g id="line2d_15">
    <path clip-path="url(#p3efd3e2fd0)" d="M 119.872159 465.07616 
L 123.586931 467.62963 
L 126.063445 469.454509 
L 127.301703 470.07207 
L 128.53996 470.338902 
L 129.778217 470.277952 
L 132.254732 469.776464 
L 133.492989 469.271227 
L 135.969504 467.77166 
L 137.207761 467.596038 
L 138.446018 467.738653 
L 139.684275 467.551334 
L 140.922533 466.479839 
L 142.16079 464.337792 
L 144.637304 458.450475 
L 145.875562 455.994356 
L 147.113819 454.322391 
L 148.352076 453.461498 
L 149.590334 453.315494 
L 150.828591 453.744757 
L 152.066848 454.681577 
L 153.305105 456.075567 
L 154.543363 457.778585 
L 155.78162 459.684027 
L 157.019877 461.961787 
L 158.258134 464.838152 
L 159.496392 468.071538 
L 160.734649 470.979507 
L 161.972906 473.041157 
L 163.211163 474.251389 
L 168.164193 477.257125 
L 169.40245 477.57481 
L 170.640707 477.22735 
L 171.878964 476.25428 
L 174.355479 473.889132 
L 175.593736 473.158303 
L 176.831993 472.823671 
L 178.070251 472.802385 
L 179.308508 472.902764 
L 180.546765 472.800917 
L 181.785022 472.240635 
L 183.02328 471.208596 
L 185.499794 468.571973 
L 186.738052 467.58738 
L 187.976309 467.153519 
L 190.452823 467.045137 
L 192.929338 466.309064 
L 194.167595 466.607648 
L 195.405852 467.65846 
L 197.882367 470.35944 
L 199.120624 471.037659 
L 200.358881 470.945714 
L 201.597139 470.200461 
L 204.073653 467.91767 
L 205.311911 467.007262 
L 206.550168 466.424178 
L 207.788425 466.127858 
L 209.026682 466.132344 
L 210.26494 466.439044 
L 211.503197 466.970059 
L 212.741454 467.696919 
L 213.979711 468.670121 
L 217.694483 472.14611 
L 218.93274 472.738386 
L 220.170998 472.991899 
L 222.647512 473.133441 
L 223.88577 472.916196 
L 225.124027 472.328268 
L 227.600541 470.82384 
L 228.838799 470.453351 
L 230.077056 470.450451 
L 231.315313 470.65311 
L 232.55357 470.72112 
L 233.791828 470.39045 
L 237.5066 468.481807 
L 239.983114 467.729848 
L 241.221371 467.589113 
L 242.459629 467.772096 
L 243.697886 468.138584 
L 244.936143 468.350729 
L 248.650915 468.159804 
L 252.365687 469.033985 
L 253.603944 468.82887 
L 256.080459 468.106376 
L 258.556973 467.814581 
L 261.033488 467.535918 
L 262.271745 467.126384 
L 263.510002 466.400845 
L 264.748259 465.541659 
L 265.986517 464.946184 
L 267.224774 464.841134 
L 269.701288 465.298301 
L 270.939546 465.341212 
L 272.177803 465.15875 
L 274.654318 464.34672 
L 275.892575 463.85752 
L 277.130832 463.206193 
L 279.607347 461.552898 
L 280.845604 461.120268 
L 283.322118 460.883792 
L 285.798633 460.344959 
L 288.275147 460.134927 
L 289.513405 459.798608 
L 290.751662 459.069761 
L 291.989919 457.998905 
L 295.704691 454.091185 
L 296.942948 453.375264 
L 298.181206 453.574247 
L 299.419463 454.75994 
L 301.895977 458.385785 
L 303.134235 459.835841 
L 304.372492 460.816557 
L 305.610749 461.404216 
L 306.849006 461.638694 
L 308.087264 461.448573 
L 309.325521 460.740901 
L 311.802036 458.425427 
L 313.040293 457.775999 
L 314.27855 457.895156 
L 315.516807 458.682762 
L 317.993322 460.819976 
L 319.231579 461.519382 
L 321.708094 462.39831 
L 322.946351 462.767789 
L 324.184608 462.935866 
L 325.422866 462.845408 
L 326.661123 462.500033 
L 327.89938 461.781463 
L 330.375895 459.548365 
L 331.614152 458.911708 
L 332.852409 459.035414 
L 334.090666 459.726571 
L 335.328924 460.576583 
L 336.567181 461.220367 
L 337.805438 461.457253 
L 339.043695 461.288906 
L 340.281953 460.689361 
L 341.52021 459.495546 
L 345.234982 454.268988 
L 346.473239 453.640871 
L 347.711496 454.093213 
L 351.426268 457.729448 
L 352.664525 458.450566 
L 353.902783 459.458536 
L 355.14104 460.985999 
L 356.379297 462.690996 
L 357.617554 464.064438 
L 358.855812 464.758784 
L 360.094069 464.741594 
L 361.332326 464.229657 
L 362.570584 463.344616 
L 363.808841 462.010848 
L 365.047098 460.325929 
L 366.285355 458.829619 
L 367.523613 458.136328 
L 368.76187 458.303644 
L 371.238384 459.350839 
L 372.476642 459.573528 
L 373.714899 459.381562 
L 374.953156 458.764917 
L 376.191413 457.798358 
L 377.429671 456.441841 
L 381.144443 450.920895 
L 382.3827 449.734965 
L 383.620957 449.421711 
L 384.859214 450.103668 
L 386.097472 451.530301 
L 387.335729 453.186432 
L 388.573986 454.638482 
L 389.812243 455.75372 
L 391.050501 456.536855 
L 392.288758 456.904751 
L 393.527015 456.788151 
L 394.765272 456.247465 
L 398.480044 453.774479 
L 399.718302 453.53796 
L 400.956559 453.859563 
L 402.194816 454.651132 
L 404.671331 456.673551 
L 405.909588 457.162985 
L 407.147845 457.068328 
L 408.386102 456.602076 
L 409.62436 455.933166 
L 410.862617 454.969835 
L 412.100874 453.641111 
L 413.339132 451.987062 
L 414.577389 449.93356 
L 415.815646 447.553708 
L 417.053903 445.575514 
L 418.292161 444.979146 
L 419.530418 446.052846 
L 420.768675 448.369871 
L 424.483447 457.750161 
L 425.721704 459.687728 
L 426.959961 460.612967 
L 430.674733 461.851332 
L 431.912991 461.530441 
L 433.151248 460.234416 
L 434.389505 458.129571 
L 436.86602 453.406711 
L 438.104277 451.71026 
L 439.342534 450.701166 
L 440.580791 450.194132 
L 441.819049 450.013995 
L 443.057306 450.214727 
L 444.295563 450.975972 
L 445.53382 452.326497 
L 446.772078 453.947685 
L 448.010335 455.33304 
L 449.248592 456.199533 
L 450.48685 456.564112 
L 451.725107 456.447836 
L 452.963364 455.819869 
L 455.439879 453.637297 
L 457.916393 451.38589 
L 459.15465 450.538122 
L 460.392908 450.185824 
L 461.631165 450.265315 
L 464.107679 450.726529 
L 465.345937 450.661595 
L 466.584194 450.13847 
L 467.822451 449.044402 
L 470.298966 445.728038 
L 471.537223 444.700616 
L 472.77548 444.817136 
L 474.013738 445.976972 
L 475.251995 447.610854 
L 476.490252 449.031065 
L 477.728509 449.775314 
L 478.966767 449.831886 
L 481.443281 449.487825 
L 483.919796 449.640718 
L 485.158053 449.812879 
L 486.39631 450.176065 
L 488.872825 451.399218 
L 490.111082 451.714396 
L 491.349339 451.518779 
L 492.587597 450.841493 
L 497.540626 447.05702 
L 500.01714 445.392697 
L 502.493655 443.303846 
L 503.731912 442.792137 
L 504.970169 443.039264 
L 507.446684 444.322848 
L 508.684941 444.384471 
L 511.161456 443.630653 
L 512.399713 443.627586 
L 516.114485 444.570321 
L 518.590999 444.946494 
L 519.829257 445.1525 
L 521.067514 445.06963 
L 522.305771 444.578619 
L 523.544028 443.855291 
L 524.782286 443.320236 
L 526.020543 443.373221 
L 527.2588 444.037391 
L 529.735315 445.754374 
L 530.973572 446.351964 
L 532.211829 446.551863 
L 533.450086 446.10844 
L 534.688344 445.107364 
L 538.403116 441.42133 
L 539.641373 439.901486 
L 542.117887 436.447123 
L 544.594402 433.105981 
L 548.309174 426.687359 
L 549.547431 425.279754 
L 552.023945 423.304245 
L 554.50046 420.708681 
L 555.738717 419.718158 
L 556.976975 419.349347 
L 558.215232 419.639978 
L 559.453489 420.463022 
L 560.691746 421.688968 
L 561.930004 423.23265 
L 566.883033 430.042001 
L 568.12129 431.097561 
L 569.359547 431.238532 
L 570.597804 430.333934 
L 571.836062 428.962982 
L 573.074319 427.977683 
L 574.312576 427.738548 
L 575.550834 428.054985 
L 576.789091 428.739289 
L 579.265605 430.921437 
L 580.503863 431.431785 
L 581.74212 430.730526 
L 582.980377 428.856662 
L 584.218634 426.206181 
L 585.456892 423.011561 
L 590.409921 408.696526 
L 591.648178 405.875375 
L 592.886435 403.582935 
L 594.124693 401.864863 
L 595.36295 400.65146 
L 596.601207 399.970872 
L 597.839464 399.947381 
L 599.077722 400.608934 
L 600.315979 401.895262 
L 601.554236 403.714209 
L 605.269008 410.354463 
L 606.507265 411.801612 
L 607.745523 412.546006 
L 608.98378 413.048502 
L 610.222037 413.7428 
L 612.698552 415.428117 
L 616.413323 417.281151 
L 618.889838 419.46458 
L 621.366352 421.680097 
L 622.60461 422.38342 
L 623.842867 422.701911 
L 626.319382 422.95759 
L 627.557639 423.288354 
L 628.795896 423.836283 
L 630.034153 424.616421 
L 631.272411 425.803926 
L 633.748925 428.912073 
L 634.987182 429.893315 
L 636.22544 430.444508 
L 637.463697 430.861343 
L 638.701954 431.09791 
L 639.940211 430.800356 
L 641.178469 429.639492 
L 642.416726 427.334222 
L 643.654983 423.576049 
L 644.893241 418.311856 
L 648.608012 399.497686 
L 651.084527 388.23775 
L 652.322784 381.757882 
L 653.561041 374.201542 
L 654.799299 561.202423 
L 656.037556 356.787093 
L 657.275813 348.848426 
L 658.51407 343.667187 
L 659.752328 341.864526 
L 660.990585 342.081437 
L 662.228842 341.996296 
L 663.4671 561.202423 
L 664.705357 336.334173 
L 667.181871 328.065672 
L 668.420129 322.642971 
L 669.658386 314.095334 
L 672.1349 291.63485 
L 673.373158 285.42524 
L 674.611415 286.277961 
L 675.849672 292.670042 
L 677.087929 301.088633 
L 678.326187 561.202423 
L 679.564444 313.062095 
L 680.802701 561.202423 
L 682.040959 311.681419 
L 683.279216 308.516199 
L 684.517473 306.036601 
L 685.75573 304.607709 
L 686.993988 303.792798 
L 688.232245 303.190202 
L 689.470502 302.23742 
L 690.708759 561.202423 
L 691.947017 294.986499 
L 694.423531 282.084791 
L 695.661789 277.43345 
L 696.900046 274.968523 
L 698.138303 273.911129 
L 699.37656 273.298436 
L 701.853075 272.353043 
L 703.091332 271.512169 
L 704.329589 269.97707 
L 705.567847 267.891156 
L 706.806104 265.335572 
L 708.044361 262.06832 
L 710.520876 254.177788 
L 711.759133 251.084851 
L 712.99739 249.429553 
L 714.235648 249.413279 
L 716.712162 251.963405 
L 717.950419 252.582342 
L 719.188677 252.453793 
L 720.426934 561.202423 
L 721.665191 561.202423 
L 722.903448 250.869979 
L 725.379963 250.93816 
L 726.61822 250.334496 
L 727.856477 248.89612 
L 729.094735 246.521408 
L 730.332992 243.011194 
L 731.571249 237.883985 
L 732.809507 230.588673 
L 735.286021 211.986944 
L 736.524278 205.016021 
L 737.762536 202.318966 
L 739.000793 203.987829 
L 740.23905 209.217696 
L 741.477307 217.245055 
L 743.953822 235.558279 
L 745.192079 242.155374 
L 746.430336 246.24741 
L 747.668594 248.259537 
L 748.906851 248.373143 
L 750.145108 246.576159 
L 751.383366 243.178559 
L 752.621623 238.533266 
L 753.85988 232.884864 
L 755.098137 561.202423 
L 756.336395 223.151599 
L 757.574652 222.867938 
L 758.812909 226.674633 
L 760.051166 233.033888 
L 763.765938 253.252406 
L 766.242453 265.58563 
L 767.48071 270.599563 
L 769.957225 278.712069 
L 771.195482 282.747597 
L 772.433739 287.606033 
L 773.671996 293.759152 
L 777.386768 315.1744 
L 778.625025 320.626978 
L 781.10154 330.237252 
L 784.816312 347.654763 
L 786.054569 351.828852 
L 787.292826 354.930172 
L 788.531084 357.151338 
L 789.769341 358.459782 
L 791.007598 359.072142 
L 792.245855 359.46322 
L 793.484113 360.244598 
L 794.72237 361.982502 
L 795.960627 364.769412 
L 798.437142 371.152454 
L 799.675399 373.788945 
L 800.913656 376.152095 
L 802.151914 378.247072 
L 803.390171 379.602286 
L 804.628428 379.610664 
L 805.866685 378.082456 
L 809.581457 370.420179 
L 810.819714 368.812762 
L 812.057972 367.907004 
L 813.296229 367.914467 
L 814.534486 369.154608 
L 815.772743 371.735781 
L 817.011001 375.436892 
L 819.487515 383.855827 
L 820.725773 387.19739 
L 821.96403 389.497005 
L 823.202287 390.837628 
L 824.440544 391.491116 
L 825.678802 391.749381 
L 826.917059 391.796528 
L 828.155316 391.701009 
L 829.393573 391.452537 
L 831.870088 390.530544 
L 833.108345 390.383557 
L 834.346602 391.083213 
L 835.58486 392.639748 
L 836.823117 394.468496 
L 838.061374 395.976526 
L 839.299632 397.061406 
L 841.776146 398.831002 
L 843.014403 399.376122 
L 844.252661 399.230978 
L 845.490918 398.325883 
L 846.729175 397.104986 
L 847.967432 396.221179 
L 849.20569 396.019361 
L 850.443947 396.432304 
L 851.682204 397.284343 
L 854.158719 399.546206 
L 855.396976 400.382328 
L 856.635233 400.978793 
L 857.873491 401.704446 
L 859.111748 402.825343 
L 860.350005 404.46123 
L 861.588262 406.665293 
L 862.82652 409.147419 
L 864.064777 411.327281 
L 865.303034 412.910693 
L 866.541291 414.004144 
L 867.779549 414.656881 
L 869.017806 414.72562 
L 870.256063 414.227766 
L 871.49432 413.574454 
L 872.732578 413.285706 
L 873.970835 413.493138 
L 875.209092 413.849842 
L 876.44735 413.859441 
L 877.685607 413.183727 
L 880.162121 410.530355 
L 881.400379 409.699218 
L 882.638636 409.671871 
L 883.876893 410.546967 
L 885.11515 412.254606 
L 886.353408 414.357389 
L 887.591665 416.20615 
L 888.829922 417.181017 
L 890.06818 416.794886 
L 891.306437 415.105801 
L 892.544694 413.076692 
L 893.782951 411.80369 
L 896.259466 411.018481 
L 897.497723 410.04958 
L 898.73598 408.084383 
L 899.974238 405.048002 
L 902.450752 397.522086 
L 903.689009 394.243434 
L 906.165524 389.088023 
L 907.403781 386.394292 
L 908.642039 383.059256 
L 911.118553 375.226782 
L 912.35681 371.876895 
L 913.595068 369.360271 
L 914.833325 367.643847 
L 917.309839 365.283916 
L 918.548097 363.537451 
L 919.786354 360.813481 
L 921.024611 357.043651 
L 923.501126 348.66633 
L 924.739383 345.080841 
L 927.215898 338.967965 
L 928.454155 336.080557 
L 929.692412 332.836695 
L 935.883698 314.195457 
L 937.121956 311.321536 
L 938.360213 309.487468 
L 939.59847 308.741566 
L 940.836727 308.343676 
L 942.074985 307.23249 
L 943.313242 304.975895 
L 944.551499 302.142209 
L 945.789757 299.724122 
L 948.266271 296.374474 
L 949.504528 294.038154 
L 950.742786 290.871954 
L 951.981043 287.053639 
L 953.2193 282.716578 
L 956.934072 268.438216 
L 958.172329 264.33269 
L 959.410586 261.512824 
L 960.648844 260.847883 
L 961.887101 262.542764 
L 964.363616 269.047171 
L 965.601873 271.531591 
L 966.84013 273.518532 
L 968.078387 276.016136 
L 971.793159 285.874019 
L 973.031416 287.799823 
L 975.507931 290.51272 
L 976.746188 292.675629 
L 977.984446 296.034499 
L 979.222703 300.77323 
L 980.46096 306.927859 
L 981.699217 314.339388 
L 985.413989 339.516524 
L 986.652246 345.489608 
L 987.890504 348.088713 
L 989.128761 347.294801 
L 990.367018 344.223034 
L 991.605275 339.883049 
L 994.08179 329.964144 
L 995.320047 326.877486 
L 996.558305 327.458061 
L 997.796562 333.037794 
L 999.034819 342.987242 
L 1000.273076 354.508669 
L 1001.511334 364.695139 
L 1002.749591 372.235456 
L 1003.987848 377.109958 
L 1005.226105 379.746782 
L 1006.464363 380.429563 
L 1007.70262 378.739196 
L 1008.940877 373.688596 
L 1010.179134 364.579379 
L 1011.417392 351.097848 
L 1012.655649 332.66758 
L 1013.893906 308.555823 
L 1015.132164 279.026033 
L 1017.608678 215.440829 
L 1018.846935 187.933344 
L 1020.085193 164.166457 
L 1021.32345 143.71698 
L 1022.561707 126.799739 
L 1023.799964 113.863593 
L 1025.038222 105.02119 
L 1026.276479 99.401793 
L 1027.514736 94.973904 
L 1028.752993 89.579025 
L 1031.229508 75.864054 
L 1032.467765 72.267161 
L 1033.706023 73.581243 
L 1034.94428 79.478171 
L 1036.182537 87.739651 
L 1037.420794 95.093524 
L 1038.659052 99.199978 
L 1039.897309 99.612123 
L 1041.135566 97.016634 
L 1043.612081 88.604261 
L 1044.850338 85.206088 
L 1046.088595 82.819759 
L 1047.326852 81.70131 
L 1048.56511 81.918765 
L 1049.803367 82.602796 
L 1051.041624 82.061808 
L 1052.279882 78.478745 
L 1053.518139 70.700732 
L 1054.756396 59.82927 
L 1055.994653 50.344666 
L 1057.232911 47.979282 
L 1058.471168 55.814975 
L 1059.709425 73.154618 
L 1060.947682 97.116348 
L 1064.662454 175.728298 
L 1068.377226 251.131748 
L 1069.615483 269.104557 
L 1070.853741 279.411019 
L 1072.091998 282.677327 
L 1074.568512 281.436321 
L 1075.80677 282.669485 
L 1077.045027 285.643294 
L 1078.283284 289.778868 
L 1079.521541 294.88834 
L 1080.759799 300.881945 
L 1083.236313 314.089237 
L 1084.474571 319.980464 
L 1085.712828 324.445895 
L 1086.951085 327.172464 
L 1088.189342 328.362054 
L 1089.4276 328.544327 
L 1090.665857 328.155383 
L 1091.904114 327.231049 
L 1093.142371 325.427836 
L 1094.380629 322.374599 
L 1096.857143 313.816571 
L 1098.0954 310.35512 
L 1099.333658 308.570741 
L 1100.571915 308.238681 
L 1101.810172 308.223181 
L 1103.04843 307.180804 
L 1104.286687 304.627293 
L 1105.524944 301.541082 
L 1106.763201 299.798675 
L 1108.001459 300.838854 
L 1109.239716 304.38438 
L 1110.477973 308.415792 
L 1111.71623 310.693717 
L 1112.954488 309.950376 
L 1114.192745 305.980014 
L 1115.431002 299.662299 
L 1117.907517 285.246399 
L 1119.145774 277.383211 
L 1121.622289 260.53558 
L 1122.860546 254.591262 
L 1124.098803 251.035788 
L 1126.575318 245.848186 
L 1127.813575 243.959869 
L 1129.051832 243.895398 
L 1130.290089 245.668531 
L 1131.528347 247.749021 
L 1132.766604 248.237281 
L 1134.004861 246.079578 
L 1135.243118 241.453751 
L 1136.481376 235.72291 
L 1137.719633 230.585978 
L 1138.95789 226.901754 
L 1140.196148 224.562949 
L 1141.434405 223.328073 
L 1142.672662 223.117285 
L 1145.149177 224.005832 
L 1146.387434 224.7005 
L 1147.625691 225.573024 
L 1148.863948 225.810322 
L 1150.102206 224.521423 
L 1151.340463 221.398128 
L 1152.57872 216.6904 
L 1155.055235 206.155264 
L 1156.293492 202.169743 
L 1157.531749 199.768379 
L 1158.770007 199.651608 
L 1160.008264 202.017438 
L 1161.246521 205.221038 
L 1162.484778 206.330987 
L 1163.723036 203.22823 
L 1164.961293 195.315396 
L 1166.19955 182.700459 
L 1169.914322 134.258848 
L 1171.152579 125.226838 
L 1172.390837 119.038131 
L 1173.629094 111.512276 
L 1174.867351 100.888117 
L 1176.105608 89.077142 
L 1177.343866 79.307794 
L 1178.582123 72.498292 
L 1179.82038 67.507512 
L 1181.058637 64.45591 
L 1182.296895 64.850851 
L 1183.535152 69.496929 
L 1184.773409 78.77245 
L 1186.011666 92.838915 
L 1188.488181 125.304971 
L 1189.726438 135.952747 
L 1190.964696 141.513324 
L 1193.44121 147.861199 
L 1194.679467 152.09309 
L 1195.917725 155.471482 
L 1197.155982 155.646686 
L 1198.394239 152.580409 
L 1199.632496 148.524912 
L 1200.870754 145.825011 
L 1202.109011 145.55671 
L 1203.347268 147.479634 
L 1205.823783 153.435975 
L 1207.06204 155.07844 
L 1209.538555 156.004173 
L 1210.776812 157.356309 
L 1212.015069 159.903796 
L 1213.253326 163.556503 
L 1216.968098 176.889322 
L 1219.444613 183.665663 
L 1220.68287 188.167241 
L 1221.921127 194.566357 
L 1223.159384 203.076241 
L 1224.397642 214.200196 
L 1228.112414 256.110348 
L 1229.350671 263.14442 
L 1230.588928 263.751763 
L 1231.827185 259.683434 
L 1233.065443 253.093394 
L 1234.3037 245.880123 
L 1235.541957 239.987016 
L 1236.780214 236.415748 
L 1238.018472 234.576496 
L 1240.494986 231.963668 
L 1241.733243 230.400162 
L 1242.971501 229.300042 
L 1244.209758 230.448898 
L 1245.448015 236.280521 
L 1246.686273 248.257314 
L 1249.162787 282.395679 
L 1250.401044 295.409023 
L 1251.639302 302.090589 
L 1252.877559 303.49577 
L 1254.115816 301.665773 
L 1255.354073 297.928815 
L 1256.592331 292.613398 
L 1259.068845 279.346374 
L 1260.307103 275.012967 
L 1261.54536 275.608993 
L 1262.783617 282.79279 
L 1264.021874 296.405126 
L 1266.498389 332.408247 
L 1267.736646 346.413377 
L 1268.974903 353.89926 
L 1270.213161 355.671014 
L 1271.451418 354.222027 
L 1272.689675 351.768583 
L 1273.927932 349.704789 
L 1275.16619 348.830629 
L 1276.404447 349.501273 
L 1277.642704 351.882013 
L 1278.880962 356.157955 
L 1280.119219 362.330149 
L 1283.833991 385.77929 
L 1285.072248 391.435091 
L 1286.310505 393.677518 
L 1287.548762 391.200206 
L 1288.78702 383.379238 
L 1291.263534 359.457978 
L 1292.501791 352.379199 
L 1293.740049 352.523492 
L 1296.216563 363.133496 
L 1297.454821 364.885798 
L 1298.693078 362.002695 
L 1302.40785 344.848271 
L 1304.884364 336.735226 
L 1308.599136 323.413633 
L 1309.837393 320.596741 
L 1311.07565 319.562683 
L 1312.313908 320.388656 
L 1313.552165 322.967667 
L 1314.790422 326.847463 
L 1317.266937 335.879893 
L 1318.505194 341.102591 
L 1319.743451 347.344443 
L 1323.458223 368.979256 
L 1324.69648 373.294537 
L 1325.934738 374.834766 
L 1327.172995 374.043196 
L 1328.411252 371.74294 
L 1329.649509 368.474482 
L 1330.887767 364.16427 
L 1332.126024 358.928785 
L 1333.364281 354.332271 
L 1334.602539 353.191644 
L 1335.840796 357.329257 
L 1337.079053 365.478913 
L 1338.31731 374.378565 
L 1339.555568 381.826027 
L 1340.793825 387.787312 
L 1342.032082 393.066781 
L 1343.270339 397.692875 
L 1344.508597 400.817102 
L 1345.746854 402.105602 
L 1348.223368 402.756306 
L 1349.461626 403.20054 
L 1350.699883 403.107892 
L 1351.93814 401.883934 
L 1353.176398 399.516287 
L 1355.652912 393.478104 
L 1356.891169 391.124741 
L 1358.129427 389.680586 
L 1359.367684 388.729622 
L 1360.605941 387.983777 
L 1361.844198 387.819177 
L 1363.082456 388.757216 
L 1364.320713 390.966162 
L 1365.55897 394.109789 
L 1369.273742 404.316182 
L 1370.511999 407.309588 
L 1371.750257 409.307282 
L 1372.988514 409.929052 
L 1374.226771 409.498071 
L 1375.465028 408.514335 
L 1376.703286 406.909403 
L 1377.941543 404.15997 
L 1379.1798 400.131217 
L 1380.418057 395.606471 
L 1381.656315 392.020544 
L 1382.894572 390.564342 
L 1384.132829 391.426414 
L 1385.371087 394.153423 
L 1386.609344 398.232643 
L 1387.847601 402.867485 
L 1389.085858 407.024784 
L 1390.324116 409.930615 
L 1391.562373 411.154816 
L 1392.80063 410.70131 
L 1395.277145 407.9484 
L 1396.515402 407.261107 
L 1397.753659 407.038928 
L 1398.991916 407.046716 
L 1400.230174 407.375739 
L 1401.468431 408.057809 
L 1402.706688 408.934489 
L 1405.183203 410.836613 
L 1406.42146 410.594322 
L 1407.659717 408.08966 
L 1408.897975 403.144076 
L 1411.374489 390.459586 
L 1412.612746 385.591544 
L 1413.851004 382.832717 
L 1415.089261 382.0861 
L 1416.327518 383.029497 
L 1417.565775 385.54115 
L 1418.804033 389.342196 
L 1420.04229 393.515525 
L 1421.280547 396.817394 
L 1422.518805 398.516861 
L 1423.757062 398.684469 
L 1424.995319 397.6662 
L 1426.233576 395.560913 
L 1428.710091 389.189856 
L 1431.186605 382.896334 
L 1433.66312 376.286242 
L 1434.901377 374.293548 
L 1436.139634 373.912049 
L 1437.377892 374.917551 
L 1438.616149 377.103822 
L 1439.854406 380.672775 
L 1443.569178 395.324563 
L 1444.807435 397.519816 
L 1446.045693 397.673128 
L 1447.28395 396.890187 
L 1448.522207 396.562701 
L 1449.760464 397.406636 
L 1452.236979 400.724012 
L 1453.475236 401.450492 
L 1454.713494 400.89715 
L 1457.190008 398.122254 
L 1458.428265 397.783659 
L 1459.666523 398.565918 
L 1462.143037 401.439099 
L 1464.619552 404.333697 
L 1465.857809 405.287391 
L 1467.096066 405.750551 
L 1468.334323 405.509882 
L 1469.572581 403.815269 
L 1470.810838 399.78061 
L 1472.049095 393.013124 
L 1474.52561 374.565522 
L 1475.763867 366.940148 
L 1477.002124 363.050515 
L 1478.240382 363.213525 
L 1480.716896 368.299666 
L 1481.955153 368.214663 
L 1483.193411 365.528211 
L 1484.431668 362.293578 
L 1485.669925 361.505416 
L 1486.908182 365.447977 
L 1488.14644 373.909962 
L 1489.384697 384.179525 
L 1490.622954 393.08283 
L 1491.861212 398.588945 
L 1493.099469 400.288414 
L 1494.337726 399.245699 
L 1495.575983 396.980522 
L 1498.052498 392.123652 
L 1499.290755 390.588137 
L 1500.529012 390.076643 
L 1503.005527 390.267104 
L 1504.243784 389.901634 
L 1505.482041 389.04438 
L 1506.720299 387.384741 
L 1507.958556 384.061409 
L 1509.196813 378.083306 
L 1510.435071 369.271699 
L 1511.673328 359.232911 
L 1512.911585 350.686429 
L 1514.149842 345.19478 
L 1515.3881 342.282361 
L 1516.626357 340.657465 
L 1519.102871 338.036461 
L 1520.341129 337.546138 
L 1521.579386 339.092935 
L 1524.0559 346.542189 
L 1525.294158 348.903808 
L 1526.532415 348.687157 
L 1527.770672 344.673058 
L 1529.00893 335.737151 
L 1530.247187 322.434551 
L 1531.485444 307.562778 
L 1532.723701 294.238129 
L 1533.961959 283.838456 
L 1535.200216 276.808062 
L 1536.438473 273.975563 
L 1537.67673 275.851202 
L 1538.914988 281.611382 
L 1542.62976 304.809752 
L 1543.868017 310.436894 
L 1545.106274 314.719495 
L 1546.344531 318.40238 
L 1547.582789 321.52711 
L 1548.821046 323.333695 
L 1550.059303 323.211634 
L 1551.29756 321.579099 
L 1552.535818 320.211026 
L 1553.774075 321.440567 
L 1555.012332 326.759856 
L 1556.250589 336.027976 
L 1557.488847 347.19731 
L 1558.727104 357.034807 
L 1559.965361 363.28712 
L 1561.203619 366.079082 
L 1562.441876 367.025672 
L 1563.680133 367.743271 
L 1564.91839 369.143499 
L 1566.156648 371.010753 
L 1567.394905 372.181882 
L 1568.633162 371.671336 
L 1569.871419 369.314637 
L 1571.109677 365.530201 
L 1573.586191 356.603284 
L 1574.824448 352.611006 
L 1576.062706 349.15531 
L 1579.777478 340.218609 
L 1581.015735 336.466905 
L 1582.253992 332.19408 
L 1583.492249 328.570455 
L 1584.730507 326.954473 
L 1585.968764 327.517406 
L 1587.207021 329.149854 
L 1588.445278 330.588022 
L 1589.683536 331.129032 
L 1590.921793 330.571529 
L 1592.16005 329.173828 
L 1593.398307 327.555255 
L 1594.636565 326.291115 
L 1595.874822 325.693523 
L 1597.113079 325.733614 
L 1598.351337 325.886801 
L 1599.589594 325.341072 
L 1600.827851 323.615896 
L 1602.066108 320.923605 
L 1605.78088 311.437468 
L 1608.257395 304.198733 
L 1609.495652 301.40531 
L 1610.733909 299.994691 
L 1611.972166 299.920213 
L 1613.210424 300.501578 
L 1614.448681 300.80958 
L 1615.686938 300.384796 
L 1616.925196 299.430338 
L 1618.163453 298.271398 
L 1619.40171 296.886473 
L 1620.639967 295.069894 
L 1624.354739 288.343841 
L 1625.592996 286.727043 
L 1626.831254 286.528898 
L 1628.069511 287.952731 
L 1629.307768 290.338419 
L 1635.499055 303.731355 
L 1636.737312 306.987078 
L 1637.975569 311.391111 
L 1639.213826 317.522524 
L 1640.452084 325.620397 
L 1641.690341 335.134284 
L 1641.690341 335.134284 
" style="fill:none;stroke:#008000;stroke-linecap:square;stroke-width:1.5;"/>
   </g>
   <g id="patch_3">
    <path d="M 43.78125 586.86358 
L 43.78125 22.318125 
" style="fill:none;stroke:#000000;stroke-linecap:square;stroke-linejoin:miter;stroke-width:0.8;"/>
   </g>
   <g id="patch_4">
    <path d="M 1717.78125 586.86358 
L 1717.78125 22.318125 
" style="fill:none;stroke:#000000;stroke-linecap:square;stroke-linejoin:miter;stroke-width:0.8;"/>
   </g>
   <g id="patch_5">
    <path d="M 43.78125 586.86358 
L 1717.78125 586.86358 
" style="fill:none;stroke:#000000;stroke-linecap:square;stroke-linejoin:miter;stroke-width:0.8;"/>
   </g>
   <g id="patch_6">
    <path d="M 43.78125 22.318125 
L 1717.78125 22.318125 
" style="fill:none;stroke:#000000;stroke-linecap:square;stroke-linejoin:miter;stroke-width:0.8;"/>
   </g>
   <g id="text_17">
    <!-- before binarisation -->
    <g transform="translate(824.1825 16.318125)scale(0.12 -0.12)">
     <defs>
      <path d="M 3116 1747 
Q 3116 2381 2855 2742 
Q 2594 3103 2138 3103 
Q 1681 3103 1420 2742 
Q 1159 2381 1159 1747 
Q 1159 1113 1420 752 
Q 1681 391 2138 391 
Q 2594 391 2855 752 
Q 3116 1113 3116 1747 
z
M 1159 2969 
Q 1341 3281 1617 3432 
Q 1894 3584 2278 3584 
Q 2916 3584 3314 3078 
Q 3713 2572 3713 1747 
Q 3713 922 3314 415 
Q 2916 -91 2278 -91 
Q 1894 -91 1617 61 
Q 1341 213 1159 525 
L 1159 0 
L 581 0 
L 581 4863 
L 1159 4863 
L 1159 2969 
z
" id="DejaVuSans-62" transform="scale(0.015625)"/>
      <path d="M 1959 3097 
Q 1497 3097 1228 2736 
Q 959 2375 959 1747 
Q 959 1119 1226 758 
Q 1494 397 1959 397 
Q 2419 397 2687 759 
Q 2956 1122 2956 1747 
Q 2956 2369 2687 2733 
Q 2419 3097 1959 3097 
z
M 1959 3584 
Q 2709 3584 3137 3096 
Q 3566 2609 3566 1747 
Q 3566 888 3137 398 
Q 2709 -91 1959 -91 
Q 1206 -91 779 398 
Q 353 888 353 1747 
Q 353 2609 779 3096 
Q 1206 3584 1959 3584 
z
" id="DejaVuSans-6f" transform="scale(0.015625)"/>
      <path id="DejaVuSans-20" transform="scale(0.015625)"/>
      <path d="M 603 3500 
L 1178 3500 
L 1178 0 
L 603 0 
L 603 3500 
z
M 603 4863 
L 1178 4863 
L 1178 4134 
L 603 4134 
L 603 4863 
z
" id="DejaVuSans-69" transform="scale(0.015625)"/>
      <path d="M 3513 2113 
L 3513 0 
L 2938 0 
L 2938 2094 
Q 2938 2591 2744 2837 
Q 2550 3084 2163 3084 
Q 1697 3084 1428 2787 
Q 1159 2491 1159 1978 
L 1159 0 
L 581 0 
L 581 3500 
L 1159 3500 
L 1159 2956 
Q 1366 3272 1645 3428 
Q 1925 3584 2291 3584 
Q 2894 3584 3203 3211 
Q 3513 2838 3513 2113 
z
" id="DejaVuSans-6e" transform="scale(0.015625)"/>
      <path d="M 2834 3397 
L 2834 2853 
Q 2591 2978 2328 3040 
Q 2066 3103 1784 3103 
Q 1356 3103 1142 2972 
Q 928 2841 928 2578 
Q 928 2378 1081 2264 
Q 1234 2150 1697 2047 
L 1894 2003 
Q 2506 1872 2764 1633 
Q 3022 1394 3022 966 
Q 3022 478 2636 193 
Q 2250 -91 1575 -91 
Q 1294 -91 989 -36 
Q 684 19 347 128 
L 347 722 
Q 666 556 975 473 
Q 1284 391 1588 391 
Q 1994 391 2212 530 
Q 2431 669 2431 922 
Q 2431 1156 2273 1281 
Q 2116 1406 1581 1522 
L 1381 1569 
Q 847 1681 609 1914 
Q 372 2147 372 2553 
Q 372 3047 722 3315 
Q 1072 3584 1716 3584 
Q 2034 3584 2315 3537 
Q 2597 3491 2834 3397 
z
" id="DejaVuSans-73" transform="scale(0.015625)"/>
      <path d="M 1172 4494 
L 1172 3500 
L 2356 3500 
L 2356 3053 
L 1172 3053 
L 1172 1153 
Q 1172 725 1289 603 
Q 1406 481 1766 481 
L 2356 481 
L 2356 0 
L 1766 0 
Q 1100 0 847 248 
Q 594 497 594 1153 
L 594 3053 
L 172 3053 
L 172 3500 
L 594 3500 
L 594 4494 
L 1172 4494 
z
" id="DejaVuSans-74" transform="scale(0.015625)"/>
     </defs>
     <use xlink:href="#DejaVuSans-62"/>
     <use x="63.476562" xlink:href="#DejaVuSans-65"/>
     <use x="125" xlink:href="#DejaVuSans-66"/>
     <use x="160.205078" xlink:href="#DejaVuSans-6f"/>
     <use x="221.386719" xlink:href="#DejaVuSans-72"/>
     <use x="260.25" xlink:href="#DejaVuSans-65"/>
     <use x="321.773438" xlink:href="#DejaVuSans-20"/>
     <use x="353.560547" xlink:href="#DejaVuSans-62"/>
     <use x="417.037109" xlink:href="#DejaVuSans-69"/>
     <use x="444.820312" xlink:href="#DejaVuSans-6e"/>
     <use x="508.199219" xlink:href="#DejaVuSans-61"/>
     <use x="569.478516" xlink:href="#DejaVuSans-72"/>
     <use x="610.591797" xlink:href="#DejaVuSans-69"/>
     <use x="638.375" xlink:href="#DejaVuSans-73"/>
     <use x="690.474609" xlink:href="#DejaVuSans-61"/>
     <use x="751.753906" xlink:href="#DejaVuSans-74"/>
     <use x="790.962891" xlink:href="#DejaVuSans-69"/>
     <use x="818.746094" xlink:href="#DejaVuSans-6f"/>
     <use x="879.927734" xlink:href="#DejaVuSans-6e"/>
    </g>
   </g>
  </g>
  <g id="axes_2">
   <g id="patch_7">
    <path d="M 43.78125 1264.318125 
L 1717.78125 1264.318125 
L 1717.78125 699.77267 
L 43.78125 699.77267 
z
" style="fill:#ffffff;"/>
   </g>
   <g id="matplotlib.axis_3">
    <g id="xtick_8">
     <g id="line2d_16">
      <g>
       <use style="stroke:#000000;stroke-width:0.8;" x="119.872159" xlink:href="#m2cce6759c9" y="1264.318125"/>
      </g>
     </g>
     <g id="text_18">
      <!-- 0 -->
      <g transform="translate(116.690909 1278.916563)scale(0.1 -0.1)">
       <use xlink:href="#DejaVuSans-30"/>
      </g>
     </g>
    </g>
    <g id="xtick_9">
     <g id="line2d_17">
      <g>
       <use style="stroke:#000000;stroke-width:0.8;" x="367.523613" xlink:href="#m2cce6759c9" y="1264.318125"/>
      </g>
     </g>
     <g id="text_19">
      <!-- 200 -->
      <g transform="translate(357.979863 1278.916563)scale(0.1 -0.1)">
       <use xlink:href="#DejaVuSans-32"/>
       <use x="63.623047" xlink:href="#DejaVuSans-30"/>
       <use x="127.246094" xlink:href="#DejaVuSans-30"/>
      </g>
     </g>
    </g>
    <g id="xtick_10">
     <g id="line2d_18">
      <g>
       <use style="stroke:#000000;stroke-width:0.8;" x="615.175066" xlink:href="#m2cce6759c9" y="1264.318125"/>
      </g>
     </g>
     <g id="text_20">
      <!-- 400 -->
      <g transform="translate(605.631316 1278.916563)scale(0.1 -0.1)">
       <use xlink:href="#DejaVuSans-34"/>
       <use x="63.623047" xlink:href="#DejaVuSans-30"/>
       <use x="127.246094" xlink:href="#DejaVuSans-30"/>
      </g>
     </g>
    </g>
    <g id="xtick_11">
     <g id="line2d_19">
      <g>
       <use style="stroke:#000000;stroke-width:0.8;" x="862.82652" xlink:href="#m2cce6759c9" y="1264.318125"/>
      </g>
     </g>
     <g id="text_21">
      <!-- 600 -->
      <g transform="translate(853.28277 1278.916563)scale(0.1 -0.1)">
       <use xlink:href="#DejaVuSans-36"/>
       <use x="63.623047" xlink:href="#DejaVuSans-30"/>
       <use x="127.246094" xlink:href="#DejaVuSans-30"/>
      </g>
     </g>
    </g>
    <g id="xtick_12">
     <g id="line2d_20">
      <g>
       <use style="stroke:#000000;stroke-width:0.8;" x="1110.477973" xlink:href="#m2cce6759c9" y="1264.318125"/>
      </g>
     </g>
     <g id="text_22">
      <!-- 800 -->
      <g transform="translate(1100.934223 1278.916563)scale(0.1 -0.1)">
       <use xlink:href="#DejaVuSans-38"/>
       <use x="63.623047" xlink:href="#DejaVuSans-30"/>
       <use x="127.246094" xlink:href="#DejaVuSans-30"/>
      </g>
     </g>
    </g>
    <g id="xtick_13">
     <g id="line2d_21">
      <g>
       <use style="stroke:#000000;stroke-width:0.8;" x="1358.129427" xlink:href="#m2cce6759c9" y="1264.318125"/>
      </g>
     </g>
     <g id="text_23">
      <!-- 1000 -->
      <g transform="translate(1345.404427 1278.916563)scale(0.1 -0.1)">
       <use xlink:href="#DejaVuSans-31"/>
       <use x="63.623047" xlink:href="#DejaVuSans-30"/>
       <use x="127.246094" xlink:href="#DejaVuSans-30"/>
       <use x="190.869141" xlink:href="#DejaVuSans-30"/>
      </g>
     </g>
    </g>
    <g id="xtick_14">
     <g id="line2d_22">
      <g>
       <use style="stroke:#000000;stroke-width:0.8;" x="1605.78088" xlink:href="#m2cce6759c9" y="1264.318125"/>
      </g>
     </g>
     <g id="text_24">
      <!-- 1200 -->
      <g transform="translate(1593.05588 1278.916563)scale(0.1 -0.1)">
       <use xlink:href="#DejaVuSans-31"/>
       <use x="63.623047" xlink:href="#DejaVuSans-32"/>
       <use x="127.246094" xlink:href="#DejaVuSans-30"/>
       <use x="190.869141" xlink:href="#DejaVuSans-30"/>
      </g>
     </g>
    </g>
    <g id="text_25">
     <!-- frame -->
     <g transform="translate(865.954687 1292.594688)scale(0.1 -0.1)">
      <use xlink:href="#DejaVuSans-66"/>
      <use x="35.205078" xlink:href="#DejaVuSans-72"/>
      <use x="76.318359" xlink:href="#DejaVuSans-61"/>
      <use x="137.597656" xlink:href="#DejaVuSans-6d"/>
      <use x="235.009766" xlink:href="#DejaVuSans-65"/>
     </g>
    </g>
   </g>
   <g id="matplotlib.axis_4">
    <g id="ytick_8">
     <g id="line2d_23">
      <g>
       <use style="stroke:#000000;stroke-width:0.8;" x="43.78125" xlink:href="#mb763260cc8" y="1238.656968"/>
      </g>
     </g>
     <g id="text_26">
      <!-- 0.0 -->
      <g transform="translate(20.878125 1242.456187)scale(0.1 -0.1)">
       <use xlink:href="#DejaVuSans-30"/>
       <use x="63.623047" xlink:href="#DejaVuSans-2e"/>
       <use x="95.410156" xlink:href="#DejaVuSans-30"/>
      </g>
     </g>
    </g>
    <g id="ytick_9">
     <g id="line2d_24">
      <g>
       <use style="stroke:#000000;stroke-width:0.8;" x="43.78125" xlink:href="#mb763260cc8" y="1136.01234"/>
      </g>
     </g>
     <g id="text_27">
      <!-- 0.2 -->
      <g transform="translate(20.878125 1139.811559)scale(0.1 -0.1)">
       <use xlink:href="#DejaVuSans-30"/>
       <use x="63.623047" xlink:href="#DejaVuSans-2e"/>
       <use x="95.410156" xlink:href="#DejaVuSans-32"/>
      </g>
     </g>
    </g>
    <g id="ytick_10">
     <g id="line2d_25">
      <g>
       <use style="stroke:#000000;stroke-width:0.8;" x="43.78125" xlink:href="#mb763260cc8" y="1033.367712"/>
      </g>
     </g>
     <g id="text_28">
      <!-- 0.4 -->
      <g transform="translate(20.878125 1037.166931)scale(0.1 -0.1)">
       <use xlink:href="#DejaVuSans-30"/>
       <use x="63.623047" xlink:href="#DejaVuSans-2e"/>
       <use x="95.410156" xlink:href="#DejaVuSans-34"/>
      </g>
     </g>
    </g>
    <g id="ytick_11">
     <g id="line2d_26">
      <g>
       <use style="stroke:#000000;stroke-width:0.8;" x="43.78125" xlink:href="#mb763260cc8" y="930.723084"/>
      </g>
     </g>
     <g id="text_29">
      <!-- 0.6 -->
      <g transform="translate(20.878125 934.522302)scale(0.1 -0.1)">
       <use xlink:href="#DejaVuSans-30"/>
       <use x="63.623047" xlink:href="#DejaVuSans-2e"/>
       <use x="95.410156" xlink:href="#DejaVuSans-36"/>
      </g>
     </g>
    </g>
    <g id="ytick_12">
     <g id="line2d_27">
      <g>
       <use style="stroke:#000000;stroke-width:0.8;" x="43.78125" xlink:href="#mb763260cc8" y="828.078456"/>
      </g>
     </g>
     <g id="text_30">
      <!-- 0.8 -->
      <g transform="translate(20.878125 831.877674)scale(0.1 -0.1)">
       <use xlink:href="#DejaVuSans-30"/>
       <use x="63.623047" xlink:href="#DejaVuSans-2e"/>
       <use x="95.410156" xlink:href="#DejaVuSans-38"/>
      </g>
     </g>
    </g>
    <g id="ytick_13">
     <g id="line2d_28">
      <g>
       <use style="stroke:#000000;stroke-width:0.8;" x="43.78125" xlink:href="#mb763260cc8" y="725.433827"/>
      </g>
     </g>
     <g id="text_31">
      <!-- 1.0 -->
      <g transform="translate(20.878125 729.233046)scale(0.1 -0.1)">
       <use xlink:href="#DejaVuSans-31"/>
       <use x="63.623047" xlink:href="#DejaVuSans-2e"/>
       <use x="95.410156" xlink:href="#DejaVuSans-30"/>
      </g>
     </g>
    </g>
    <g id="text_32">
     <!-- GCaMP -->
     <g transform="translate(14.798437 999.803991)rotate(-90)scale(0.1 -0.1)">
      <use xlink:href="#DejaVuSans-47"/>
      <use x="77.490234" xlink:href="#DejaVuSans-43"/>
      <use x="147.314453" xlink:href="#DejaVuSans-61"/>
      <use x="208.59375" xlink:href="#DejaVuSans-4d"/>
      <use x="294.873047" xlink:href="#DejaVuSans-50"/>
     </g>
    </g>
   </g>
   <g id="line2d_29">
    <path clip-path="url(#pa463b0df21)" d="M 119.872159 1238.656968 
L 706.806104 1238.656968 
L 708.044361 725.433827 
L 719.188677 725.433827 
L 720.426934 1238.656968 
L 721.665191 1238.656968 
L 722.903448 725.433827 
L 753.85988 725.433827 
L 755.098137 1238.656968 
L 756.336395 725.433827 
L 765.004195 725.433827 
L 766.242453 1238.656968 
L 958.172329 1238.656968 
L 959.410586 725.433827 
L 960.648844 725.433827 
L 961.887101 1238.656968 
L 1015.132164 1238.656968 
L 1016.370421 725.433827 
L 1068.377226 725.433827 
L 1069.615483 1238.656968 
L 1120.384031 1238.656968 
L 1121.622289 725.433827 
L 1228.112414 725.433827 
L 1229.350671 1238.656968 
L 1230.588928 1238.656968 
L 1231.827185 725.433827 
L 1246.686273 725.433827 
L 1247.92453 1238.656968 
L 1641.690341 1238.656968 
L 1641.690341 1238.656968 
" style="fill:none;stroke:#008000;stroke-linecap:square;stroke-width:1.5;"/>
   </g>
   <g id="patch_8">
    <path d="M 43.78125 1264.318125 
L 43.78125 699.77267 
" style="fill:none;stroke:#000000;stroke-linecap:square;stroke-linejoin:miter;stroke-width:0.8;"/>
   </g>
   <g id="patch_9">
    <path d="M 1717.78125 1264.318125 
L 1717.78125 699.77267 
" style="fill:none;stroke:#000000;stroke-linecap:square;stroke-linejoin:miter;stroke-width:0.8;"/>
   </g>
   <g id="patch_10">
    <path d="M 43.78125 1264.318125 
L 1717.78125 1264.318125 
" style="fill:none;stroke:#000000;stroke-linecap:square;stroke-linejoin:miter;stroke-width:0.8;"/>
   </g>
   <g id="patch_11">
    <path d="M 43.78125 699.77267 
L 1717.78125 699.77267 
" style="fill:none;stroke:#000000;stroke-linecap:square;stroke-linejoin:miter;stroke-width:0.8;"/>
   </g>
   <g id="text_33">
    <!-- before binarisation -->
    <g transform="translate(824.1825 693.77267)scale(0.12 -0.12)">
     <use xlink:href="#DejaVuSans-62"/>
     <use x="63.476562" xlink:href="#DejaVuSans-65"/>
     <use x="125" xlink:href="#DejaVuSans-66"/>
     <use x="160.205078" xlink:href="#DejaVuSans-6f"/>
     <use x="221.386719" xlink:href="#DejaVuSans-72"/>
     <use x="260.25" xlink:href="#DejaVuSans-65"/>
     <use x="321.773438" xlink:href="#DejaVuSans-20"/>
     <use x="353.560547" xlink:href="#DejaVuSans-62"/>
     <use x="417.037109" xlink:href="#DejaVuSans-69"/>
     <use x="444.820312" xlink:href="#DejaVuSans-6e"/>
     <use x="508.199219" xlink:href="#DejaVuSans-61"/>
     <use x="569.478516" xlink:href="#DejaVuSans-72"/>
     <use x="610.591797" xlink:href="#DejaVuSans-69"/>
     <use x="638.375" xlink:href="#DejaVuSans-73"/>
     <use x="690.474609" xlink:href="#DejaVuSans-61"/>
     <use x="751.753906" xlink:href="#DejaVuSans-74"/>
     <use x="790.962891" xlink:href="#DejaVuSans-69"/>
     <use x="818.746094" xlink:href="#DejaVuSans-6f"/>
     <use x="879.927734" xlink:href="#DejaVuSans-6e"/>
    </g>
   </g>
  </g>
 </g>
 <defs>
  <clipPath id="p3efd3e2fd0">
   <rect height="564.545455" width="1674" x="43.78125" y="22.318125"/>
  </clipPath>
  <clipPath id="pa463b0df21">
   <rect height="564.545455" width="1674" x="43.78125" y="699.77267"/>
  </clipPath>
 </defs>
</svg>
