<?xml version="1.0" encoding="utf-8" standalone="no"?>
<!DOCTYPE svg PUBLIC "-//W3C//DTD SVG 1.1//EN"
  "http://www.w3.org/Graphics/SVG/1.1/DTD/svg11.dtd">
<svg height="1301.874375pt" version="1.1" viewBox="0 0 1724.98125 1301.874375" width="1724.98125pt" xmlns="http://www.w3.org/2000/svg" xmlns:xlink="http://www.w3.org/1999/xlink">
 <metadata>
  <rdf:RDF xmlns:cc="http://creativecommons.org/ns#" xmlns:dc="http://purl.org/dc/elements/1.1/" xmlns:rdf="http://www.w3.org/1999/02/22-rdf-syntax-ns#">
   <cc:Work>
    <dc:type rdf:resource="http://purl.org/dc/dcmitype/StillImage"/>
    <dc:date>2022-07-24T15:54:38.144212</dc:date>
    <dc:format>image/svg+xml</dc:format>
    <dc:creator>
     <cc:Agent>
      <dc:title>Matplotlib v3.4.2, https://matplotlib.org/</dc:title>
     </cc:Agent>
    </dc:creator>
   </cc:Work>
  </rdf:RDF>
 </metadata>
 <defs>
  <style type="text/css">*{stroke-linecap:butt;stroke-linejoin:round;}</style>
 </defs>
 <g id="figure_1">
  <g id="patch_1">
   <path d="M 0 1301.874375 
L 1724.98125 1301.874375 
L 1724.98125 0 
L 0 0 
z
" style="fill:#ffffff;"/>
  </g>
  <g id="axes_1">
   <g id="patch_2">
    <path d="M 43.78125 586.86358 
L 1717.78125 586.86358 
L 1717.78125 22.318125 
L 43.78125 22.318125 
z
" style="fill:#ffffff;"/>
   </g>
   <g id="matplotlib.axis_1">
    <g id="xtick_1">
     <g id="line2d_1">
      <defs>
       <path d="M 0 0 
L 0 3.5 
" id="mbc2ec2ef72" style="stroke:#000000;stroke-width:0.8;"/>
      </defs>
      <g>
       <use style="stroke:#000000;stroke-width:0.8;" x="119.872159" xlink:href="#mbc2ec2ef72" y="586.86358"/>
      </g>
     </g>
     <g id="text_1">
      <!-- 0 -->
      <g transform="translate(116.690909 601.462017)scale(0.1 -0.1)">
       <defs>
        <path d="M 2034 4250 
Q 1547 4250 1301 3770 
Q 1056 3291 1056 2328 
Q 1056 1369 1301 889 
Q 1547 409 2034 409 
Q 2525 409 2770 889 
Q 3016 1369 3016 2328 
Q 3016 3291 2770 3770 
Q 2525 4250 2034 4250 
z
M 2034 4750 
Q 2819 4750 3233 4129 
Q 3647 3509 3647 2328 
Q 3647 1150 3233 529 
Q 2819 -91 2034 -91 
Q 1250 -91 836 529 
Q 422 1150 422 2328 
Q 422 3509 836 4129 
Q 1250 4750 2034 4750 
z
" id="DejaVuSans-30" transform="scale(0.015625)"/>
       </defs>
       <use xlink:href="#DejaVuSans-30"/>
      </g>
     </g>
    </g>
    <g id="xtick_2">
     <g id="line2d_2">
      <g>
       <use style="stroke:#000000;stroke-width:0.8;" x="367.523613" xlink:href="#mbc2ec2ef72" y="586.86358"/>
      </g>
     </g>
     <g id="text_2">
      <!-- 200 -->
      <g transform="translate(357.979863 601.462017)scale(0.1 -0.1)">
       <defs>
        <path d="M 1228 531 
L 3431 531 
L 3431 0 
L 469 0 
L 469 531 
Q 828 903 1448 1529 
Q 2069 2156 2228 2338 
Q 2531 2678 2651 2914 
Q 2772 3150 2772 3378 
Q 2772 3750 2511 3984 
Q 2250 4219 1831 4219 
Q 1534 4219 1204 4116 
Q 875 4013 500 3803 
L 500 4441 
Q 881 4594 1212 4672 
Q 1544 4750 1819 4750 
Q 2544 4750 2975 4387 
Q 3406 4025 3406 3419 
Q 3406 3131 3298 2873 
Q 3191 2616 2906 2266 
Q 2828 2175 2409 1742 
Q 1991 1309 1228 531 
z
" id="DejaVuSans-32" transform="scale(0.015625)"/>
       </defs>
       <use xlink:href="#DejaVuSans-32"/>
       <use x="63.623047" xlink:href="#DejaVuSans-30"/>
       <use x="127.246094" xlink:href="#DejaVuSans-30"/>
      </g>
     </g>
    </g>
    <g id="xtick_3">
     <g id="line2d_3">
      <g>
       <use style="stroke:#000000;stroke-width:0.8;" x="615.175066" xlink:href="#mbc2ec2ef72" y="586.86358"/>
      </g>
     </g>
     <g id="text_3">
      <!-- 400 -->
      <g transform="translate(605.631316 601.462017)scale(0.1 -0.1)">
       <defs>
        <path d="M 2419 4116 
L 825 1625 
L 2419 1625 
L 2419 4116 
z
M 2253 4666 
L 3047 4666 
L 3047 1625 
L 3713 1625 
L 3713 1100 
L 3047 1100 
L 3047 0 
L 2419 0 
L 2419 1100 
L 313 1100 
L 313 1709 
L 2253 4666 
z
" id="DejaVuSans-34" transform="scale(0.015625)"/>
       </defs>
       <use xlink:href="#DejaVuSans-34"/>
       <use x="63.623047" xlink:href="#DejaVuSans-30"/>
       <use x="127.246094" xlink:href="#DejaVuSans-30"/>
      </g>
     </g>
    </g>
    <g id="xtick_4">
     <g id="line2d_4">
      <g>
       <use style="stroke:#000000;stroke-width:0.8;" x="862.82652" xlink:href="#mbc2ec2ef72" y="586.86358"/>
      </g>
     </g>
     <g id="text_4">
      <!-- 600 -->
      <g transform="translate(853.28277 601.462017)scale(0.1 -0.1)">
       <defs>
        <path d="M 2113 2584 
Q 1688 2584 1439 2293 
Q 1191 2003 1191 1497 
Q 1191 994 1439 701 
Q 1688 409 2113 409 
Q 2538 409 2786 701 
Q 3034 994 3034 1497 
Q 3034 2003 2786 2293 
Q 2538 2584 2113 2584 
z
M 3366 4563 
L 3366 3988 
Q 3128 4100 2886 4159 
Q 2644 4219 2406 4219 
Q 1781 4219 1451 3797 
Q 1122 3375 1075 2522 
Q 1259 2794 1537 2939 
Q 1816 3084 2150 3084 
Q 2853 3084 3261 2657 
Q 3669 2231 3669 1497 
Q 3669 778 3244 343 
Q 2819 -91 2113 -91 
Q 1303 -91 875 529 
Q 447 1150 447 2328 
Q 447 3434 972 4092 
Q 1497 4750 2381 4750 
Q 2619 4750 2861 4703 
Q 3103 4656 3366 4563 
z
" id="DejaVuSans-36" transform="scale(0.015625)"/>
       </defs>
       <use xlink:href="#DejaVuSans-36"/>
       <use x="63.623047" xlink:href="#DejaVuSans-30"/>
       <use x="127.246094" xlink:href="#DejaVuSans-30"/>
      </g>
     </g>
    </g>
    <g id="xtick_5">
     <g id="line2d_5">
      <g>
       <use style="stroke:#000000;stroke-width:0.8;" x="1110.477973" xlink:href="#mbc2ec2ef72" y="586.86358"/>
      </g>
     </g>
     <g id="text_5">
      <!-- 800 -->
      <g transform="translate(1100.934223 601.462017)scale(0.1 -0.1)">
       <defs>
        <path d="M 2034 2216 
Q 1584 2216 1326 1975 
Q 1069 1734 1069 1313 
Q 1069 891 1326 650 
Q 1584 409 2034 409 
Q 2484 409 2743 651 
Q 3003 894 3003 1313 
Q 3003 1734 2745 1975 
Q 2488 2216 2034 2216 
z
M 1403 2484 
Q 997 2584 770 2862 
Q 544 3141 544 3541 
Q 544 4100 942 4425 
Q 1341 4750 2034 4750 
Q 2731 4750 3128 4425 
Q 3525 4100 3525 3541 
Q 3525 3141 3298 2862 
Q 3072 2584 2669 2484 
Q 3125 2378 3379 2068 
Q 3634 1759 3634 1313 
Q 3634 634 3220 271 
Q 2806 -91 2034 -91 
Q 1263 -91 848 271 
Q 434 634 434 1313 
Q 434 1759 690 2068 
Q 947 2378 1403 2484 
z
M 1172 3481 
Q 1172 3119 1398 2916 
Q 1625 2713 2034 2713 
Q 2441 2713 2670 2916 
Q 2900 3119 2900 3481 
Q 2900 3844 2670 4047 
Q 2441 4250 2034 4250 
Q 1625 4250 1398 4047 
Q 1172 3844 1172 3481 
z
" id="DejaVuSans-38" transform="scale(0.015625)"/>
       </defs>
       <use xlink:href="#DejaVuSans-38"/>
       <use x="63.623047" xlink:href="#DejaVuSans-30"/>
       <use x="127.246094" xlink:href="#DejaVuSans-30"/>
      </g>
     </g>
    </g>
    <g id="xtick_6">
     <g id="line2d_6">
      <g>
       <use style="stroke:#000000;stroke-width:0.8;" x="1358.129427" xlink:href="#mbc2ec2ef72" y="586.86358"/>
      </g>
     </g>
     <g id="text_6">
      <!-- 1000 -->
      <g transform="translate(1345.404427 601.462017)scale(0.1 -0.1)">
       <defs>
        <path d="M 794 531 
L 1825 531 
L 1825 4091 
L 703 3866 
L 703 4441 
L 1819 4666 
L 2450 4666 
L 2450 531 
L 3481 531 
L 3481 0 
L 794 0 
L 794 531 
z
" id="DejaVuSans-31" transform="scale(0.015625)"/>
       </defs>
       <use xlink:href="#DejaVuSans-31"/>
       <use x="63.623047" xlink:href="#DejaVuSans-30"/>
       <use x="127.246094" xlink:href="#DejaVuSans-30"/>
       <use x="190.869141" xlink:href="#DejaVuSans-30"/>
      </g>
     </g>
    </g>
    <g id="xtick_7">
     <g id="line2d_7">
      <g>
       <use style="stroke:#000000;stroke-width:0.8;" x="1605.78088" xlink:href="#mbc2ec2ef72" y="586.86358"/>
      </g>
     </g>
     <g id="text_7">
      <!-- 1200 -->
      <g transform="translate(1593.05588 601.462017)scale(0.1 -0.1)">
       <use xlink:href="#DejaVuSans-31"/>
       <use x="63.623047" xlink:href="#DejaVuSans-32"/>
       <use x="127.246094" xlink:href="#DejaVuSans-30"/>
       <use x="190.869141" xlink:href="#DejaVuSans-30"/>
      </g>
     </g>
    </g>
    <g id="text_8">
     <!-- frame -->
     <g transform="translate(865.954687 615.140142)scale(0.1 -0.1)">
      <defs>
       <path d="M 2375 4863 
L 2375 4384 
L 1825 4384 
Q 1516 4384 1395 4259 
Q 1275 4134 1275 3809 
L 1275 3500 
L 2222 3500 
L 2222 3053 
L 1275 3053 
L 1275 0 
L 697 0 
L 697 3053 
L 147 3053 
L 147 3500 
L 697 3500 
L 697 3744 
Q 697 4328 969 4595 
Q 1241 4863 1831 4863 
L 2375 4863 
z
" id="DejaVuSans-66" transform="scale(0.015625)"/>
       <path d="M 2631 2963 
Q 2534 3019 2420 3045 
Q 2306 3072 2169 3072 
Q 1681 3072 1420 2755 
Q 1159 2438 1159 1844 
L 1159 0 
L 581 0 
L 581 3500 
L 1159 3500 
L 1159 2956 
Q 1341 3275 1631 3429 
Q 1922 3584 2338 3584 
Q 2397 3584 2469 3576 
Q 2541 3569 2628 3553 
L 2631 2963 
z
" id="DejaVuSans-72" transform="scale(0.015625)"/>
       <path d="M 2194 1759 
Q 1497 1759 1228 1600 
Q 959 1441 959 1056 
Q 959 750 1161 570 
Q 1363 391 1709 391 
Q 2188 391 2477 730 
Q 2766 1069 2766 1631 
L 2766 1759 
L 2194 1759 
z
M 3341 1997 
L 3341 0 
L 2766 0 
L 2766 531 
Q 2569 213 2275 61 
Q 1981 -91 1556 -91 
Q 1019 -91 701 211 
Q 384 513 384 1019 
Q 384 1609 779 1909 
Q 1175 2209 1959 2209 
L 2766 2209 
L 2766 2266 
Q 2766 2663 2505 2880 
Q 2244 3097 1772 3097 
Q 1472 3097 1187 3025 
Q 903 2953 641 2809 
L 641 3341 
Q 956 3463 1253 3523 
Q 1550 3584 1831 3584 
Q 2591 3584 2966 3190 
Q 3341 2797 3341 1997 
z
" id="DejaVuSans-61" transform="scale(0.015625)"/>
       <path d="M 3328 2828 
Q 3544 3216 3844 3400 
Q 4144 3584 4550 3584 
Q 5097 3584 5394 3201 
Q 5691 2819 5691 2113 
L 5691 0 
L 5113 0 
L 5113 2094 
Q 5113 2597 4934 2840 
Q 4756 3084 4391 3084 
Q 3944 3084 3684 2787 
Q 3425 2491 3425 1978 
L 3425 0 
L 2847 0 
L 2847 2094 
Q 2847 2600 2669 2842 
Q 2491 3084 2119 3084 
Q 1678 3084 1418 2786 
Q 1159 2488 1159 1978 
L 1159 0 
L 581 0 
L 581 3500 
L 1159 3500 
L 1159 2956 
Q 1356 3278 1631 3431 
Q 1906 3584 2284 3584 
Q 2666 3584 2933 3390 
Q 3200 3197 3328 2828 
z
" id="DejaVuSans-6d" transform="scale(0.015625)"/>
       <path d="M 3597 1894 
L 3597 1613 
L 953 1613 
Q 991 1019 1311 708 
Q 1631 397 2203 397 
Q 2534 397 2845 478 
Q 3156 559 3463 722 
L 3463 178 
Q 3153 47 2828 -22 
Q 2503 -91 2169 -91 
Q 1331 -91 842 396 
Q 353 884 353 1716 
Q 353 2575 817 3079 
Q 1281 3584 2069 3584 
Q 2775 3584 3186 3129 
Q 3597 2675 3597 1894 
z
M 3022 2063 
Q 3016 2534 2758 2815 
Q 2500 3097 2075 3097 
Q 1594 3097 1305 2825 
Q 1016 2553 972 2059 
L 3022 2063 
z
" id="DejaVuSans-65" transform="scale(0.015625)"/>
      </defs>
      <use xlink:href="#DejaVuSans-66"/>
      <use x="35.205078" xlink:href="#DejaVuSans-72"/>
      <use x="76.318359" xlink:href="#DejaVuSans-61"/>
      <use x="137.597656" xlink:href="#DejaVuSans-6d"/>
      <use x="235.009766" xlink:href="#DejaVuSans-65"/>
     </g>
    </g>
   </g>
   <g id="matplotlib.axis_2">
    <g id="ytick_1">
     <g id="line2d_8">
      <defs>
       <path d="M 0 0 
L -3.5 0 
" id="m31e6232f6f" style="stroke:#000000;stroke-width:0.8;"/>
      </defs>
      <g>
       <use style="stroke:#000000;stroke-width:0.8;" x="43.78125" xlink:href="#m31e6232f6f" y="574.599441"/>
      </g>
     </g>
     <g id="text_9">
      <!-- 1.7 -->
      <g transform="translate(20.878125 578.39866)scale(0.1 -0.1)">
       <defs>
        <path d="M 684 794 
L 1344 794 
L 1344 0 
L 684 0 
L 684 794 
z
" id="DejaVuSans-2e" transform="scale(0.015625)"/>
        <path d="M 525 4666 
L 3525 4666 
L 3525 4397 
L 1831 0 
L 1172 0 
L 2766 4134 
L 525 4134 
L 525 4666 
z
" id="DejaVuSans-37" transform="scale(0.015625)"/>
       </defs>
       <use xlink:href="#DejaVuSans-31"/>
       <use x="63.623047" xlink:href="#DejaVuSans-2e"/>
       <use x="95.410156" xlink:href="#DejaVuSans-37"/>
      </g>
     </g>
    </g>
    <g id="ytick_2">
     <g id="line2d_9">
      <g>
       <use style="stroke:#000000;stroke-width:0.8;" x="43.78125" xlink:href="#m31e6232f6f" y="508.683752"/>
      </g>
     </g>
     <g id="text_10">
      <!-- 1.8 -->
      <g transform="translate(20.878125 512.482971)scale(0.1 -0.1)">
       <use xlink:href="#DejaVuSans-31"/>
       <use x="63.623047" xlink:href="#DejaVuSans-2e"/>
       <use x="95.410156" xlink:href="#DejaVuSans-38"/>
      </g>
     </g>
    </g>
    <g id="ytick_3">
     <g id="line2d_10">
      <g>
       <use style="stroke:#000000;stroke-width:0.8;" x="43.78125" xlink:href="#m31e6232f6f" y="442.768063"/>
      </g>
     </g>
     <g id="text_11">
      <!-- 1.9 -->
      <g transform="translate(20.878125 446.567282)scale(0.1 -0.1)">
       <defs>
        <path d="M 703 97 
L 703 672 
Q 941 559 1184 500 
Q 1428 441 1663 441 
Q 2288 441 2617 861 
Q 2947 1281 2994 2138 
Q 2813 1869 2534 1725 
Q 2256 1581 1919 1581 
Q 1219 1581 811 2004 
Q 403 2428 403 3163 
Q 403 3881 828 4315 
Q 1253 4750 1959 4750 
Q 2769 4750 3195 4129 
Q 3622 3509 3622 2328 
Q 3622 1225 3098 567 
Q 2575 -91 1691 -91 
Q 1453 -91 1209 -44 
Q 966 3 703 97 
z
M 1959 2075 
Q 2384 2075 2632 2365 
Q 2881 2656 2881 3163 
Q 2881 3666 2632 3958 
Q 2384 4250 1959 4250 
Q 1534 4250 1286 3958 
Q 1038 3666 1038 3163 
Q 1038 2656 1286 2365 
Q 1534 2075 1959 2075 
z
" id="DejaVuSans-39" transform="scale(0.015625)"/>
       </defs>
       <use xlink:href="#DejaVuSans-31"/>
       <use x="63.623047" xlink:href="#DejaVuSans-2e"/>
       <use x="95.410156" xlink:href="#DejaVuSans-39"/>
      </g>
     </g>
    </g>
    <g id="ytick_4">
     <g id="line2d_11">
      <g>
       <use style="stroke:#000000;stroke-width:0.8;" x="43.78125" xlink:href="#m31e6232f6f" y="376.852375"/>
      </g>
     </g>
     <g id="text_12">
      <!-- 2.0 -->
      <g transform="translate(20.878125 380.651593)scale(0.1 -0.1)">
       <use xlink:href="#DejaVuSans-32"/>
       <use x="63.623047" xlink:href="#DejaVuSans-2e"/>
       <use x="95.410156" xlink:href="#DejaVuSans-30"/>
      </g>
     </g>
    </g>
    <g id="ytick_5">
     <g id="line2d_12">
      <g>
       <use style="stroke:#000000;stroke-width:0.8;" x="43.78125" xlink:href="#m31e6232f6f" y="310.936686"/>
      </g>
     </g>
     <g id="text_13">
      <!-- 2.1 -->
      <g transform="translate(20.878125 314.735905)scale(0.1 -0.1)">
       <use xlink:href="#DejaVuSans-32"/>
       <use x="63.623047" xlink:href="#DejaVuSans-2e"/>
       <use x="95.410156" xlink:href="#DejaVuSans-31"/>
      </g>
     </g>
    </g>
    <g id="ytick_6">
     <g id="line2d_13">
      <g>
       <use style="stroke:#000000;stroke-width:0.8;" x="43.78125" xlink:href="#m31e6232f6f" y="245.020997"/>
      </g>
     </g>
     <g id="text_14">
      <!-- 2.2 -->
      <g transform="translate(20.878125 248.820216)scale(0.1 -0.1)">
       <use xlink:href="#DejaVuSans-32"/>
       <use x="63.623047" xlink:href="#DejaVuSans-2e"/>
       <use x="95.410156" xlink:href="#DejaVuSans-32"/>
      </g>
     </g>
    </g>
    <g id="ytick_7">
     <g id="line2d_14">
      <g>
       <use style="stroke:#000000;stroke-width:0.8;" x="43.78125" xlink:href="#m31e6232f6f" y="179.105308"/>
      </g>
     </g>
     <g id="text_15">
      <!-- 2.3 -->
      <g transform="translate(20.878125 182.904527)scale(0.1 -0.1)">
       <defs>
        <path d="M 2597 2516 
Q 3050 2419 3304 2112 
Q 3559 1806 3559 1356 
Q 3559 666 3084 287 
Q 2609 -91 1734 -91 
Q 1441 -91 1130 -33 
Q 819 25 488 141 
L 488 750 
Q 750 597 1062 519 
Q 1375 441 1716 441 
Q 2309 441 2620 675 
Q 2931 909 2931 1356 
Q 2931 1769 2642 2001 
Q 2353 2234 1838 2234 
L 1294 2234 
L 1294 2753 
L 1863 2753 
Q 2328 2753 2575 2939 
Q 2822 3125 2822 3475 
Q 2822 3834 2567 4026 
Q 2313 4219 1838 4219 
Q 1578 4219 1281 4162 
Q 984 4106 628 3988 
L 628 4550 
Q 988 4650 1302 4700 
Q 1616 4750 1894 4750 
Q 2613 4750 3031 4423 
Q 3450 4097 3450 3541 
Q 3450 3153 3228 2886 
Q 3006 2619 2597 2516 
z
" id="DejaVuSans-33" transform="scale(0.015625)"/>
       </defs>
       <use xlink:href="#DejaVuSans-32"/>
       <use x="63.623047" xlink:href="#DejaVuSans-2e"/>
       <use x="95.410156" xlink:href="#DejaVuSans-33"/>
      </g>
     </g>
    </g>
    <g id="ytick_8">
     <g id="line2d_15">
      <g>
       <use style="stroke:#000000;stroke-width:0.8;" x="43.78125" xlink:href="#m31e6232f6f" y="113.18962"/>
      </g>
     </g>
     <g id="text_16">
      <!-- 2.4 -->
      <g transform="translate(20.878125 116.988838)scale(0.1 -0.1)">
       <use xlink:href="#DejaVuSans-32"/>
       <use x="63.623047" xlink:href="#DejaVuSans-2e"/>
       <use x="95.410156" xlink:href="#DejaVuSans-34"/>
      </g>
     </g>
    </g>
    <g id="ytick_9">
     <g id="line2d_16">
      <g>
       <use style="stroke:#000000;stroke-width:0.8;" x="43.78125" xlink:href="#m31e6232f6f" y="47.273931"/>
      </g>
     </g>
     <g id="text_17">
      <!-- 2.5 -->
      <g transform="translate(20.878125 51.07315)scale(0.1 -0.1)">
       <defs>
        <path d="M 691 4666 
L 3169 4666 
L 3169 4134 
L 1269 4134 
L 1269 2991 
Q 1406 3038 1543 3061 
Q 1681 3084 1819 3084 
Q 2600 3084 3056 2656 
Q 3513 2228 3513 1497 
Q 3513 744 3044 326 
Q 2575 -91 1722 -91 
Q 1428 -91 1123 -41 
Q 819 9 494 109 
L 494 744 
Q 775 591 1075 516 
Q 1375 441 1709 441 
Q 2250 441 2565 725 
Q 2881 1009 2881 1497 
Q 2881 1984 2565 2268 
Q 2250 2553 1709 2553 
Q 1456 2553 1204 2497 
Q 953 2441 691 2322 
L 691 4666 
z
" id="DejaVuSans-35" transform="scale(0.015625)"/>
       </defs>
       <use xlink:href="#DejaVuSans-32"/>
       <use x="63.623047" xlink:href="#DejaVuSans-2e"/>
       <use x="95.410156" xlink:href="#DejaVuSans-35"/>
      </g>
     </g>
    </g>
    <g id="text_18">
     <!-- GCaMP -->
     <g transform="translate(14.798437 322.349446)rotate(-90)scale(0.1 -0.1)">
      <defs>
       <path d="M 3809 666 
L 3809 1919 
L 2778 1919 
L 2778 2438 
L 4434 2438 
L 4434 434 
Q 4069 175 3628 42 
Q 3188 -91 2688 -91 
Q 1594 -91 976 548 
Q 359 1188 359 2328 
Q 359 3472 976 4111 
Q 1594 4750 2688 4750 
Q 3144 4750 3555 4637 
Q 3966 4525 4313 4306 
L 4313 3634 
Q 3963 3931 3569 4081 
Q 3175 4231 2741 4231 
Q 1884 4231 1454 3753 
Q 1025 3275 1025 2328 
Q 1025 1384 1454 906 
Q 1884 428 2741 428 
Q 3075 428 3337 486 
Q 3600 544 3809 666 
z
" id="DejaVuSans-47" transform="scale(0.015625)"/>
       <path d="M 4122 4306 
L 4122 3641 
Q 3803 3938 3442 4084 
Q 3081 4231 2675 4231 
Q 1875 4231 1450 3742 
Q 1025 3253 1025 2328 
Q 1025 1406 1450 917 
Q 1875 428 2675 428 
Q 3081 428 3442 575 
Q 3803 722 4122 1019 
L 4122 359 
Q 3791 134 3420 21 
Q 3050 -91 2638 -91 
Q 1578 -91 968 557 
Q 359 1206 359 2328 
Q 359 3453 968 4101 
Q 1578 4750 2638 4750 
Q 3056 4750 3426 4639 
Q 3797 4528 4122 4306 
z
" id="DejaVuSans-43" transform="scale(0.015625)"/>
       <path d="M 628 4666 
L 1569 4666 
L 2759 1491 
L 3956 4666 
L 4897 4666 
L 4897 0 
L 4281 0 
L 4281 4097 
L 3078 897 
L 2444 897 
L 1241 4097 
L 1241 0 
L 628 0 
L 628 4666 
z
" id="DejaVuSans-4d" transform="scale(0.015625)"/>
       <path d="M 1259 4147 
L 1259 2394 
L 2053 2394 
Q 2494 2394 2734 2622 
Q 2975 2850 2975 3272 
Q 2975 3691 2734 3919 
Q 2494 4147 2053 4147 
L 1259 4147 
z
M 628 4666 
L 2053 4666 
Q 2838 4666 3239 4311 
Q 3641 3956 3641 3272 
Q 3641 2581 3239 2228 
Q 2838 1875 2053 1875 
L 1259 1875 
L 1259 0 
L 628 0 
L 628 4666 
z
" id="DejaVuSans-50" transform="scale(0.015625)"/>
      </defs>
      <use xlink:href="#DejaVuSans-47"/>
      <use x="77.490234" xlink:href="#DejaVuSans-43"/>
      <use x="147.314453" xlink:href="#DejaVuSans-61"/>
      <use x="208.59375" xlink:href="#DejaVuSans-4d"/>
      <use x="294.873047" xlink:href="#DejaVuSans-50"/>
     </g>
    </g>
   </g>
   <g id="line2d_17">
    <path clip-path="url(#p1219a6bcaf)" d="M 119.872159 315.946307 
L 121.110416 312.203247 
L 122.348674 309.459009 
L 123.586931 307.207085 
L 124.825188 303.904115 
L 126.063445 297.986967 
L 128.53996 281.067552 
L 129.778217 276.385308 
L 132.254732 274.213889 
L 133.492989 270.103896 
L 134.731246 264.123882 
L 135.969504 260.355835 
L 137.207761 261.85314 
L 138.446018 267.366745 
L 139.684275 272.277617 
L 140.922533 272.612693 
L 142.16079 267.507463 
L 144.637304 249.674773 
L 145.875562 243.941199 
L 147.113819 243.483506 
L 148.352076 248.047631 
L 149.590334 254.987629 
L 150.828591 259.557204 
L 152.066848 257.881132 
L 153.305105 250.202097 
L 154.543363 240.595426 
L 155.78162 233.407081 
L 157.019877 230.120347 
L 158.258134 229.498923 
L 159.496392 229.399397 
L 160.734649 228.16535 
L 161.972906 225.447104 
L 163.211163 221.736329 
L 164.449421 216.552257 
L 165.687678 207.855402 
L 166.925935 194.1145 
L 169.40245 160.45339 
L 170.640707 152.29476 
L 171.878964 155.248858 
L 174.355479 175.984338 
L 175.593736 182.411515 
L 176.831993 184.959362 
L 178.070251 185.487718 
L 179.308508 185.545881 
L 180.546765 185.744527 
L 181.785022 184.515348 
L 183.02328 179.564812 
L 184.261537 172.448094 
L 185.499794 169.022498 
L 186.738052 173.318365 
L 187.976309 183.088715 
L 190.452823 204.230345 
L 191.691081 216.063548 
L 195.405852 256.783003 
L 196.64411 267.076698 
L 197.882367 274.67454 
L 200.358881 287.173741 
L 201.597139 291.656834 
L 202.835396 292.853665 
L 204.073653 292.69901 
L 205.311911 293.793962 
L 206.550168 294.74036 
L 207.788425 290.768519 
L 209.026682 278.263311 
L 210.26494 257.636932 
L 212.741454 208.265023 
L 213.979711 191.751276 
L 215.217969 187.838816 
L 216.456226 195.370381 
L 217.694483 206.81513 
L 218.93274 213.055927 
L 220.170998 209.635342 
L 221.409255 198.531501 
L 222.647512 185.195098 
L 223.88577 175.84087 
L 225.124027 174.333773 
L 226.362284 179.615253 
L 227.600541 187.890613 
L 228.838799 195.24932 
L 230.077056 198.919657 
L 232.55357 200.195416 
L 233.791828 202.334147 
L 236.268342 208.303148 
L 237.5066 209.257884 
L 238.744857 207.130975 
L 241.221371 198.786567 
L 242.459629 197.69672 
L 243.697886 201.16668 
L 244.936143 210.065585 
L 246.1744 224.008864 
L 248.650915 258.763594 
L 249.889172 272.575965 
L 251.127429 278.947548 
L 252.365687 275.860119 
L 253.603944 265.21779 
L 254.842201 253.151787 
L 256.080459 245.469996 
L 257.318716 242.137462 
L 258.556973 238.437784 
L 259.79523 231.051757 
L 261.033488 220.243604 
L 263.510002 196.67209 
L 264.748259 186.653437 
L 265.986517 179.760325 
L 267.224774 180.593093 
L 268.463031 192.394545 
L 269.701288 212.910043 
L 270.939546 235.396142 
L 272.177803 251.600243 
L 273.41606 254.937842 
L 274.654318 242.200959 
L 275.892575 212.734304 
L 277.130832 168.938582 
L 278.369089 118.847121 
L 279.607347 75.414353 
L 280.845604 50.549262 
L 282.083861 48.094058 
L 283.322118 62.307071 
L 288.275147 148.286824 
L 289.513405 161.803042 
L 290.751662 169.172016 
L 291.989919 171.892547 
L 293.228177 172.433399 
L 294.466434 171.45296 
L 295.704691 166.19093 
L 296.942948 153.486202 
L 298.181206 133.868002 
L 300.65772 89.428445 
L 301.895977 70.330379 
L 303.134235 55.43366 
L 304.372492 47.979282 
L 305.610749 51.056217 
L 306.849006 63.226652 
L 308.087264 77.582224 
L 310.563778 98.188052 
L 311.802036 115.102708 
L 313.040293 141.11089 
L 314.27855 169.928004 
L 315.516807 192.958037 
L 316.755065 205.568139 
L 317.993322 209.644721 
L 319.231579 211.785566 
L 320.469836 218.11844 
L 321.708094 230.091162 
L 322.946351 244.608189 
L 324.184608 256.73194 
L 325.422866 263.772728 
L 327.89938 271.424067 
L 329.137637 274.695307 
L 330.375895 275.57289 
L 331.614152 273.403329 
L 334.090666 265.737537 
L 335.328924 264.200108 
L 336.567181 265.405355 
L 337.805438 269.840074 
L 339.043695 277.933111 
L 341.52021 297.932842 
L 342.758467 304.943571 
L 343.996725 309.268267 
L 345.234982 310.732131 
L 346.473239 309.528351 
L 347.711496 306.590982 
L 348.949754 301.718593 
L 350.188011 293.258702 
L 351.426268 281.283184 
L 352.664525 270.522069 
L 353.902783 267.271003 
L 355.14104 272.844286 
L 356.379297 282.210671 
L 357.617554 287.47115 
L 358.855812 282.488044 
L 361.332326 252.722556 
L 362.570584 243.814181 
L 363.808841 243.420394 
L 365.047098 249.695082 
L 367.523613 268.647406 
L 368.76187 275.26438 
L 370.000127 278.519198 
L 371.238384 277.603069 
L 372.476642 273.073697 
L 373.714899 267.922695 
L 374.953156 264.711535 
L 376.191413 262.8841 
L 377.429671 260.52283 
L 378.667928 257.830549 
L 379.906185 257.295601 
L 381.144443 260.94697 
L 382.3827 268.492203 
L 384.859214 287.0732 
L 387.335729 303.482799 
L 388.573986 310.56231 
L 389.812243 316.011197 
L 391.050501 320.593426 
L 392.288758 326.280438 
L 393.527015 334.873172 
L 397.241787 369.001775 
L 398.480044 375.068238 
L 399.718302 374.135833 
L 400.956559 366.856437 
L 402.194816 356.318584 
L 405.909588 321.355616 
L 407.147845 307.929954 
L 408.386102 291.493399 
L 410.862617 255.002932 
L 412.100874 241.716734 
L 413.339132 232.850008 
L 414.577389 226.152058 
L 418.292161 207.792066 
L 419.530418 200.37376 
L 420.768675 194.71324 
L 422.006932 196.707675 
L 423.24519 210.169028 
L 425.721704 251.39198 
L 426.959961 263.296379 
L 428.198219 265.257066 
L 429.436476 258.922811 
L 430.674733 249.774701 
L 431.912991 245.632971 
L 433.151248 251.305067 
L 435.627762 279.581468 
L 436.86602 289.689975 
L 438.104277 297.088646 
L 439.342534 306.729556 
L 440.580791 318.969791 
L 441.819049 328.416292 
L 443.057306 329.912227 
L 444.295563 323.764077 
L 445.53382 313.524392 
L 446.772078 300.934097 
L 450.48685 255.079781 
L 451.725107 245.015546 
L 452.963364 243.335848 
L 454.201621 250.893688 
L 456.678136 275.719101 
L 457.916393 282.3063 
L 459.15465 284.648355 
L 460.392908 284.91548 
L 461.631165 282.22784 
L 462.869422 274.685036 
L 464.107679 262.506142 
L 465.345937 248.330527 
L 466.584194 236.95901 
L 467.822451 232.438607 
L 469.060709 234.163409 
L 470.298966 238.533528 
L 471.537223 242.159642 
L 472.77548 242.057969 
L 474.013738 235.806224 
L 475.251995 222.223513 
L 477.728509 184.450297 
L 478.966767 175.009384 
L 480.205024 179.564284 
L 481.443281 196.785247 
L 482.681538 222.351766 
L 485.158053 282.86874 
L 486.39631 306.707279 
L 487.634568 319.331287 
L 488.872825 320.032804 
L 490.111082 310.932981 
L 491.349339 296.579725 
L 492.587597 285.043207 
L 493.825854 284.354822 
L 495.064111 295.417263 
L 496.302368 311.148766 
L 497.540626 322.545829 
L 498.778883 323.647842 
L 500.01714 313.23686 
L 502.493655 278.4071 
L 503.731912 266.680751 
L 504.970169 264.478071 
L 506.208427 275.399733 
L 507.446684 298.148995 
L 509.923198 350.449975 
L 511.161456 371.660819 
L 516.114485 447.162337 
L 517.352742 463.212989 
L 518.590999 474.141474 
L 519.829257 480.762769 
L 521.067514 484.920187 
L 522.305771 486.996858 
L 523.544028 484.938561 
L 524.782286 475.537448 
L 526.020543 458.082095 
L 527.2588 436.57642 
L 528.497057 417.163286 
L 529.735315 403.546782 
L 530.973572 395.125553 
L 532.211829 389.246945 
L 533.450086 384.46254 
L 534.688344 381.287883 
L 535.926601 380.585243 
L 537.164858 381.557779 
L 538.403116 381.018716 
L 539.641373 375.900328 
L 540.87963 367.681107 
L 542.117887 362.0573 
L 543.356145 363.272694 
L 544.594402 370.919261 
L 545.832659 382.316895 
L 547.070916 395.798295 
L 550.785688 440.132789 
L 552.023945 448.331265 
L 553.262203 449.84606 
L 554.50046 448.904974 
L 555.738717 451.176077 
L 556.976975 458.481739 
L 559.453489 479.465865 
L 560.691746 487.28846 
L 561.930004 491.10226 
L 564.406518 493.094958 
L 565.644775 494.493505 
L 566.883033 493.729483 
L 568.12129 488.721051 
L 569.359547 481.067962 
L 570.597804 474.458655 
L 571.836062 470.447384 
L 573.074319 466.985811 
L 574.312576 461.441322 
L 575.550834 452.094326 
L 576.789091 437.835408 
L 578.027348 420.882525 
L 579.265605 407.499528 
L 580.503863 403.760087 
L 581.74212 412.785068 
L 582.980377 434.018752 
L 584.218634 461.250411 
L 585.456892 483.210888 
L 586.695149 490.077797 
L 587.933406 479.832692 
L 589.171663 457.727672 
L 590.409921 431.701573 
L 591.648178 409.059843 
L 592.886435 395.225653 
L 594.124693 393.311703 
L 595.36295 402.694092 
L 599.077722 451.553777 
L 601.554236 478.702248 
L 602.792493 495.975804 
L 605.269008 535.789771 
L 606.507265 551.891858 
L 607.745523 561.202423 
L 608.98378 560.451004 
L 610.222037 548.709453 
L 612.698552 510.880504 
L 613.936809 495.299661 
L 615.175066 485.083079 
L 616.413323 482.201571 
L 617.651581 486.177178 
L 618.889838 491.231619 
L 620.128095 491.816909 
L 621.366352 489.926349 
L 622.60461 491.821393 
L 623.842867 500.275445 
L 626.319382 527.62946 
L 627.557639 538.188209 
L 628.795896 542.694476 
L 630.034153 542.39573 
L 631.272411 538.737414 
L 632.510668 531.130763 
L 636.22544 498.507323 
L 637.463697 496.32485 
L 638.701954 502.066549 
L 639.940211 511.378985 
L 641.178469 519.678013 
L 642.416726 525.263565 
L 643.654983 527.886376 
L 644.893241 528.733988 
L 646.131498 530.234776 
L 647.369755 532.578605 
L 648.608012 532.260361 
L 649.84627 526.580441 
L 652.322784 508.189895 
L 653.561041 500.425396 
L 654.799299 494.197687 
L 657.275813 485.448804 
L 658.51407 478.247556 
L 660.990585 455.343763 
L 662.228842 447.823697 
L 663.4671 445.995467 
L 664.705357 447.545708 
L 665.943614 448.618538 
L 667.181871 446.897874 
L 668.420129 441.217275 
L 669.658386 430.316906 
L 672.1349 399.065675 
L 673.373158 387.998139 
L 674.611415 383.758468 
L 675.849672 383.724662 
L 677.087929 383.255763 
L 678.326187 378.521868 
L 679.564444 367.337544 
L 682.040959 333.705965 
L 683.279216 320.921871 
L 684.517473 312.425251 
L 685.75573 305.978758 
L 686.993988 301.493363 
L 688.232245 301.150479 
L 689.470502 306.411213 
L 691.947017 324.799595 
L 693.185274 328.580728 
L 694.423531 325.734778 
L 695.661789 320.035868 
L 696.900046 316.565132 
L 698.138303 317.862647 
L 699.37656 324.098278 
L 701.853075 344.446343 
L 703.091332 351.009828 
L 704.329589 350.076652 
L 705.567847 341.307868 
L 706.806104 326.851382 
L 709.282618 289.931075 
L 710.520876 275.735084 
L 711.759133 271.21329 
L 712.99739 276.077493 
L 714.235648 285.217024 
L 715.473905 293.446644 
L 716.712162 299.077244 
L 717.950419 303.165559 
L 719.188677 305.741265 
L 720.426934 303.654646 
L 721.665191 293.781509 
L 722.903448 278.775826 
L 724.141706 267.860497 
L 725.379963 270.031864 
L 726.61822 287.005709 
L 730.332992 364.593924 
L 731.571249 377.576647 
L 732.809507 380.227023 
L 734.047764 373.868704 
L 735.286021 360.425768 
L 737.762536 324.125798 
L 739.000793 308.441884 
L 740.23905 295.840669 
L 743.953822 261.438504 
L 745.192079 248.883499 
L 746.430336 238.430632 
L 747.668594 233.808982 
L 748.906851 237.377693 
L 750.145108 249.323336 
L 751.383366 266.578326 
L 752.621623 282.124387 
L 753.85988 289.042832 
L 755.098137 285.518252 
L 757.574652 265.43634 
L 758.812909 264.357365 
L 760.051166 276.250985 
L 761.289424 298.592716 
L 763.765938 351.737715 
L 765.004195 371.936607 
L 766.242453 381.780455 
L 767.48071 380.254749 
L 768.718967 371.020974 
L 769.957225 359.793565 
L 771.195482 349.94325 
L 772.433739 342.19791 
L 773.671996 337.608332 
L 774.910254 338.499076 
L 776.148511 347.566676 
L 777.386768 366.201511 
L 781.10154 445.173159 
L 782.339797 460.949868 
L 783.578054 467.331703 
L 784.816312 466.337208 
L 786.054569 459.492991 
L 788.531084 439.452128 
L 789.769341 434.35682 
L 791.007598 433.398586 
L 792.245855 433.6622 
L 793.484113 433.507467 
L 794.72237 433.589464 
L 797.198884 435.261926 
L 798.437142 436.051493 
L 799.675399 438.661355 
L 800.913656 443.791531 
L 803.390171 457.346385 
L 804.628428 462.478863 
L 805.866685 462.467764 
L 807.104943 456.085628 
L 808.3432 445.446817 
L 810.819714 421.588998 
L 812.057972 415.434152 
L 813.296229 418.551261 
L 814.534486 431.595855 
L 815.772743 452.522292 
L 817.011001 476.736382 
L 818.249258 497.464404 
L 819.487515 509.590397 
L 820.725773 512.403677 
L 821.96403 506.922184 
L 823.202287 492.83646 
L 824.440544 469.880431 
L 826.917059 409.140916 
L 828.155316 384.80951 
L 829.393573 374.995299 
L 830.631831 383.151526 
L 831.870088 405.918377 
L 833.108345 434.057434 
L 834.346602 458.415103 
L 835.58486 475.136837 
L 836.823117 484.240492 
L 838.061374 486.802308 
L 839.299632 485.159792 
L 840.537889 482.767976 
L 841.776146 481.575188 
L 843.014403 480.066611 
L 844.252661 476.121196 
L 845.490918 471.624974 
L 846.729175 471.792026 
L 847.967432 479.375124 
L 849.20569 490.643549 
L 850.443947 499.425098 
L 851.682204 505.184533 
L 852.920461 512.666307 
L 855.396976 535.918645 
L 856.635233 544.337916 
L 857.873491 547.584318 
L 859.111748 547.051993 
L 860.350005 544.972825 
L 861.588262 542.042951 
L 862.82652 536.609914 
L 864.064777 526.32578 
L 865.303034 511.270616 
L 867.779549 478.469583 
L 869.017806 468.157593 
L 870.256063 466.052078 
L 871.49432 470.757698 
L 872.732578 477.812944 
L 873.970835 483.494788 
L 875.209092 485.554546 
L 876.44735 481.733213 
L 877.685607 470.170069 
L 880.162121 432.405516 
L 881.400379 418.165522 
L 882.638636 414.087682 
L 883.876893 419.981081 
L 885.11515 430.727358 
L 886.353408 440.039247 
L 887.591665 443.445319 
L 888.829922 438.849502 
L 890.06818 427.456325 
L 891.306437 413.967238 
L 892.544694 404.293082 
L 893.782951 402.834603 
L 895.021209 409.880875 
L 897.497723 431.418626 
L 899.974238 447.498784 
L 902.450752 464.083907 
L 903.689009 472.998778 
L 904.927267 483.088504 
L 906.165524 495.181132 
L 908.642039 524.61712 
L 909.880296 535.235011 
L 911.118553 538.286541 
L 912.35681 533.141982 
L 913.595068 520.415296 
L 914.833325 500.910265 
L 918.548097 429.170752 
L 919.786354 413.857491 
L 921.024611 404.670431 
L 922.262868 399.282355 
L 923.501126 396.495373 
L 924.739383 397.640797 
L 925.97764 404.030348 
L 927.215898 414.727934 
L 929.692412 439.351499 
L 930.930669 447.266502 
L 932.168927 449.174116 
L 933.407184 445.825587 
L 934.645441 439.06592 
L 937.121956 420.266534 
L 938.360213 414.314799 
L 939.59847 415.944144 
L 940.836727 425.336372 
L 942.074985 438.859238 
L 943.313242 450.200395 
L 944.551499 452.415336 
L 945.789757 442.391629 
L 948.266271 406.519739 
L 949.504528 394.500924 
L 950.742786 386.55915 
L 951.981043 376.998987 
L 953.2193 361.635644 
L 956.934072 297.257226 
L 958.172329 281.558473 
L 959.410586 272.240174 
L 960.648844 269.53759 
L 961.887101 274.450261 
L 963.125358 287.620595 
L 965.601873 322.804861 
L 968.078387 350.172757 
L 969.316645 363.450181 
L 970.554902 374.976937 
L 971.793159 383.136699 
L 973.031416 388.107906 
L 975.507931 393.550562 
L 976.746188 398.450434 
L 977.984446 404.174794 
L 979.222703 407.694149 
L 980.46096 408.565538 
L 981.699217 408.830865 
L 982.937475 408.375237 
L 984.175732 402.655595 
L 985.413989 387.633794 
L 986.652246 366.399917 
L 987.890504 348.338499 
L 989.128761 341.640286 
L 990.367018 347.587299 
L 991.605275 360.196249 
L 992.843533 370.714403 
L 994.08179 374.592023 
L 995.320047 373.850772 
L 996.558305 372.95314 
L 997.796562 374.92326 
L 999.034819 380.15971 
L 1000.273076 386.541937 
L 1001.511334 391.177148 
L 1002.749591 391.793851 
L 1003.987848 387.423821 
L 1006.464363 371.237533 
L 1007.70262 365.128216 
L 1008.940877 363.752425 
L 1010.179134 367.755979 
L 1011.417392 372.739037 
L 1012.655649 371.667365 
L 1013.893906 362.040663 
L 1015.132164 348.605449 
L 1016.370421 337.739218 
L 1017.608678 331.382214 
L 1018.846935 327.784445 
L 1020.085193 325.160106 
L 1021.32345 322.847909 
L 1022.561707 321.120897 
L 1023.799964 321.172007 
L 1025.038222 324.487695 
L 1026.276479 332.951782 
L 1027.514736 348.524148 
L 1028.752993 369.241791 
L 1029.991251 387.30591 
L 1031.229508 394.79991 
L 1032.467765 390.329067 
L 1033.706023 379.668168 
L 1034.94428 370.75712 
L 1036.182537 366.848735 
L 1037.420794 365.088223 
L 1038.659052 362.114191 
L 1039.897309 356.636846 
L 1041.135566 345.663925 
L 1042.373823 323.460413 
L 1043.612081 286.066449 
L 1044.850338 235.433356 
L 1047.326852 128.810495 
L 1048.56511 88.912736 
L 1049.803367 61.548382 
L 1051.041624 48.339411 
L 1052.279882 50.916285 
L 1053.518139 67.709142 
L 1055.994653 119.744531 
L 1057.232911 141.845302 
L 1058.471168 158.945604 
L 1059.709425 173.620932 
L 1060.947682 186.86621 
L 1062.18594 196.398038 
L 1063.424197 201.030546 
L 1064.662454 204.463568 
L 1065.900711 211.961362 
L 1067.138969 224.902616 
L 1069.615483 254.790297 
L 1070.853741 265.149409 
L 1073.330255 277.594401 
L 1074.568512 287.3659 
L 1078.283284 329.47879 
L 1080.759799 351.142357 
L 1081.998056 361.020326 
L 1083.236313 365.617374 
L 1084.474571 360.094149 
L 1085.712828 344.110308 
L 1086.951085 322.02449 
L 1090.665857 249.567997 
L 1091.904114 232.100984 
L 1093.142371 221.672381 
L 1094.380629 216.866922 
L 1095.618886 217.386259 
L 1096.857143 225.653537 
L 1098.0954 243.988825 
L 1099.333658 271.123306 
L 1100.571915 301.498268 
L 1101.810172 327.200914 
L 1103.04843 342.029959 
L 1104.286687 345.774847 
L 1106.763201 341.672654 
L 1108.001459 341.551401 
L 1109.239716 342.207847 
L 1110.477973 341.720638 
L 1111.71623 338.667564 
L 1112.954488 332.636025 
L 1114.192745 325.329303 
L 1115.431002 319.97582 
L 1116.669259 318.948492 
L 1117.907517 322.815476 
L 1119.145774 331.37348 
L 1120.384031 343.920741 
L 1121.622289 358.01357 
L 1122.860546 369.798095 
L 1124.098803 376.127813 
L 1125.33706 376.369814 
L 1126.575318 374.174942 
L 1127.813575 375.130768 
L 1129.051832 379.190944 
L 1130.290089 379.710277 
L 1131.528347 371.150745 
L 1132.766604 353.10852 
L 1134.004861 328.589514 
L 1136.481376 276.536448 
L 1137.719633 256.86512 
L 1138.95789 246.134829 
L 1140.196148 244.705466 
L 1141.434405 249.255522 
L 1142.672662 256.498406 
L 1143.910919 266.017478 
L 1145.149177 277.600626 
L 1146.387434 287.365035 
L 1147.625691 289.523822 
L 1148.863948 281.855698 
L 1151.340463 251.916817 
L 1152.57872 241.58327 
L 1153.816977 239.892272 
L 1155.055235 246.072719 
L 1156.293492 255.762727 
L 1157.531749 263.663758 
L 1158.770007 267.865132 
L 1160.008264 270.953461 
L 1161.246521 275.955634 
L 1163.723036 291.165648 
L 1164.961293 292.985606 
L 1166.19955 284.173784 
L 1168.676065 248.225457 
L 1169.914322 235.286147 
L 1171.152579 229.465166 
L 1172.390837 229.375778 
L 1173.629094 233.153638 
L 1174.867351 238.347836 
L 1176.105608 242.026529 
L 1178.582123 244.044787 
L 1179.82038 249.090135 
L 1181.058637 259.567051 
L 1182.296895 273.043871 
L 1183.535152 284.625073 
L 1184.773409 288.828334 
L 1186.011666 282.939011 
L 1187.249924 270.284925 
L 1188.488181 259.109317 
L 1189.726438 254.970867 
L 1190.964696 255.933637 
L 1192.202953 258.178379 
L 1193.44121 261.359432 
L 1195.917725 270.274233 
L 1197.155982 272.257641 
L 1198.394239 272.524509 
L 1199.632496 272.516483 
L 1200.870754 272.061906 
L 1202.109011 270.239061 
L 1203.347268 266.946064 
L 1205.823783 258.686426 
L 1207.06204 255.620289 
L 1208.300297 255.91721 
L 1209.538555 260.72326 
L 1213.253326 284.152835 
L 1214.491584 288.883446 
L 1215.729841 290.399799 
L 1216.968098 289.270744 
L 1218.206355 286.633204 
L 1219.444613 282.128141 
L 1220.68287 273.837617 
L 1221.921127 261.081469 
L 1224.397642 232.141227 
L 1225.635899 220.476517 
L 1226.874156 210.478406 
L 1229.350671 192.711518 
L 1230.588928 184.267759 
L 1231.827185 177.882629 
L 1233.065443 177.403235 
L 1234.3037 185.342556 
L 1236.780214 215.711967 
L 1238.018472 227.624619 
L 1239.256729 234.109354 
L 1240.494986 237.572726 
L 1241.733243 242.493206 
L 1242.971501 252.852154 
L 1244.209758 269.374973 
L 1245.448015 288.600222 
L 1246.686273 305.40886 
L 1247.92453 316.678046 
L 1249.162787 321.599203 
L 1250.401044 320.058862 
L 1251.639302 313.640821 
L 1252.877559 306.106031 
L 1254.115816 300.175601 
L 1255.354073 295.837741 
L 1256.592331 292.714963 
L 1257.830588 291.811474 
L 1259.068845 293.578021 
L 1260.307103 295.669024 
L 1261.54536 294.789677 
L 1262.783617 290.185763 
L 1264.021874 283.843354 
L 1265.260132 278.416899 
L 1266.498389 276.155646 
L 1267.736646 278.442931 
L 1268.974903 284.842309 
L 1270.213161 292.82447 
L 1271.451418 299.17523 
L 1272.689675 302.031938 
L 1273.927932 301.962821 
L 1275.16619 301.51984 
L 1276.404447 303.209816 
L 1277.642704 307.003312 
L 1278.880962 310.055952 
L 1280.119219 309.566247 
L 1281.357476 305.757465 
L 1282.595733 301.243613 
L 1285.072248 294.242758 
L 1286.310505 289.685587 
L 1287.548762 282.644205 
L 1288.78702 271.290539 
L 1290.025277 254.872479 
L 1291.263534 235.828292 
L 1292.501791 219.440542 
L 1293.740049 211.448174 
L 1294.978306 214.602592 
L 1296.216563 226.319097 
L 1297.454821 240.134982 
L 1298.693078 249.678097 
L 1299.931335 251.756351 
L 1301.169592 246.745682 
L 1302.40785 236.919587 
L 1303.646107 225.46137 
L 1304.884364 216.418416 
L 1306.122621 213.324625 
L 1307.360879 217.140669 
L 1308.599136 226.273415 
L 1309.837393 238.755597 
L 1311.07565 253.694119 
L 1313.552165 285.90375 
L 1314.790422 297.300593 
L 1316.02868 304.141419 
L 1317.266937 310.214514 
L 1318.505194 317.482296 
L 1319.743451 322.85968 
L 1320.981709 323.948963 
L 1322.219966 322.440498 
L 1323.458223 321.265562 
L 1324.69648 323.800797 
L 1325.934738 333.422334 
L 1329.649509 381.060151 
L 1330.887767 390.371863 
L 1334.602539 413.735103 
L 1335.840796 419.506333 
L 1337.079053 423.364689 
L 1338.31731 422.491796 
L 1339.555568 413.776028 
L 1340.793825 400.183726 
L 1342.032082 391.636631 
L 1343.270339 396.591352 
L 1344.508597 413.87278 
L 1345.746854 434.178073 
L 1346.985111 447.436114 
L 1348.223368 449.444355 
L 1349.461626 443.714205 
L 1353.176398 420.439155 
L 1355.652912 403.048604 
L 1356.891169 397.342695 
L 1358.129427 397.258593 
L 1359.367684 404.749005 
L 1360.605941 418.502783 
L 1361.844198 434.042953 
L 1363.082456 445.786249 
L 1364.320713 450.294085 
L 1365.55897 448.14886 
L 1366.797228 441.757263 
L 1368.035485 432.862267 
L 1369.273742 423.156701 
L 1370.511999 416.162764 
L 1371.750257 417.310072 
L 1372.988514 429.74506 
L 1374.226771 449.417321 
L 1375.465028 466.299273 
L 1376.703286 470.366231 
L 1377.941543 457.456019 
L 1380.418057 405.694462 
L 1381.656315 388.631651 
L 1382.894572 384.220658 
L 1384.132829 386.382424 
L 1385.371087 387.219328 
L 1386.609344 385.32619 
L 1387.847601 384.598044 
L 1389.085858 386.92629 
L 1390.324116 390.213129 
L 1391.562373 392.828631 
L 1392.80063 396.133744 
L 1394.038887 403.12958 
L 1395.277145 415.498454 
L 1396.515402 430.457378 
L 1397.753659 441.244863 
L 1398.991916 441.823523 
L 1400.230174 431.227679 
L 1401.468431 414.49655 
L 1402.706688 400.60183 
L 1403.944946 397.935037 
L 1405.183203 408.138688 
L 1406.42146 423.703516 
L 1407.659717 433.53307 
L 1408.897975 431.291819 
L 1410.136232 419.415421 
L 1411.374489 405.703215 
L 1415.089261 372.663335 
L 1417.565775 343.838254 
L 1418.804033 333.469477 
L 1420.04229 326.835279 
L 1421.280547 322.096985 
L 1422.518805 318.626859 
L 1423.757062 317.984804 
L 1424.995319 321.31528 
L 1426.233576 328.026064 
L 1427.471834 337.203554 
L 1428.710091 349.090037 
L 1431.186605 378.337489 
L 1432.424863 389.735733 
L 1433.66312 396.78857 
L 1434.901377 400.164074 
L 1436.139634 400.737997 
L 1437.377892 401.180269 
L 1438.616149 405.709787 
L 1439.854406 414.606532 
L 1441.092664 422.266011 
L 1442.330921 422.915135 
L 1443.569178 415.213441 
L 1444.807435 401.35865 
L 1447.28395 366.103002 
L 1449.760464 329.363702 
L 1450.998722 313.665697 
L 1452.236979 305.196844 
L 1453.475236 308.814804 
L 1454.713494 325.9796 
L 1458.428265 405.737043 
L 1459.666523 421.426133 
L 1460.90478 425.726506 
L 1462.143037 419.232017 
L 1465.857809 380.760285 
L 1467.096066 371.420102 
L 1468.334323 363.652375 
L 1470.810838 350.808107 
L 1472.049095 344.911253 
L 1473.287353 339.631635 
L 1474.52561 337.121655 
L 1475.763867 340.778908 
L 1477.002124 351.615452 
L 1478.240382 367.41956 
L 1479.478639 384.710591 
L 1480.716896 399.096315 
L 1481.955153 405.953861 
L 1483.193411 402.511389 
L 1484.431668 388.924351 
L 1486.908182 346.974473 
L 1488.14644 331.533831 
L 1489.384697 326.915306 
L 1490.622954 333.783906 
L 1493.099469 361.85744 
L 1494.337726 371.098706 
L 1495.575983 375.148989 
L 1496.814241 374.933277 
L 1498.052498 371.602952 
L 1499.290755 366.530752 
L 1501.76727 353.898125 
L 1503.005527 349.736663 
L 1504.243784 348.500766 
L 1505.482041 350.247862 
L 1506.720299 355.335875 
L 1507.958556 362.081959 
L 1509.196813 366.713754 
L 1510.435071 366.478518 
L 1511.673328 361.404522 
L 1512.911585 353.820672 
L 1514.149842 347.258904 
L 1515.3881 344.932686 
L 1516.626357 347.948311 
L 1519.102871 362.07978 
L 1520.341129 365.15757 
L 1521.579386 360.941661 
L 1524.0559 341.087812 
L 1525.294158 338.346262 
L 1526.532415 344.632206 
L 1527.770672 357.506537 
L 1529.00893 372.062958 
L 1530.247187 382.296984 
L 1531.485444 384.623477 
L 1533.961959 377.12947 
L 1535.200216 375.860251 
L 1536.438473 375.878441 
L 1537.67673 377.361928 
L 1538.914988 383.815134 
L 1540.153245 394.670355 
L 1541.391502 402.542126 
L 1542.62976 401.057227 
L 1543.868017 390.283497 
L 1546.344531 358.505728 
L 1547.582789 347.127766 
L 1548.821046 341.104546 
L 1550.059303 336.678792 
L 1551.29756 329.754966 
L 1552.535818 321.009903 
L 1553.774075 314.722595 
L 1555.012332 314.008959 
L 1556.250589 319.250744 
L 1557.488847 329.309559 
L 1559.965361 353.250384 
L 1561.203619 361.949188 
L 1562.441876 367.837672 
L 1563.680133 371.442314 
L 1564.91839 373.723978 
L 1566.156648 375.412762 
L 1567.394905 375.829671 
L 1568.633162 374.024427 
L 1569.871419 370.420195 
L 1571.109677 366.246922 
L 1572.347934 361.517169 
L 1573.586191 354.864934 
L 1574.824448 346.372657 
L 1576.062706 339.480716 
L 1577.300963 339.110734 
L 1578.53922 347.156878 
L 1579.777478 359.913114 
L 1581.015735 371.335824 
L 1582.253992 377.231008 
L 1583.492249 375.461356 
L 1584.730507 365.599438 
L 1585.968764 350.608153 
L 1587.207021 337.724969 
L 1588.445278 333.68651 
L 1589.683536 338.227015 
L 1590.921793 345.481108 
L 1592.16005 349.975648 
L 1593.398307 349.496649 
L 1595.874822 341.531991 
L 1598.351337 336.629625 
L 1599.589594 331.540941 
L 1600.827851 322.581333 
L 1604.542623 286.579909 
L 1605.78088 280.307434 
L 1607.019137 280.469958 
L 1608.257395 285.669418 
L 1609.495652 291.461324 
L 1610.733909 294.243484 
L 1611.972166 293.702235 
L 1613.210424 292.155369 
L 1614.448681 291.984417 
L 1615.686938 291.981471 
L 1616.925196 289.176899 
L 1618.163453 285.550412 
L 1619.40171 287.380359 
L 1620.639967 296.895134 
L 1624.354739 334.856689 
L 1625.592996 346.387703 
L 1626.831254 355.376369 
L 1628.069511 358.997827 
L 1629.307768 352.923459 
L 1630.546026 334.563442 
L 1633.02254 279.608552 
L 1634.260797 256.446262 
L 1635.499055 238.262667 
L 1636.737312 226.133474 
L 1637.975569 224.91404 
L 1639.213826 238.446366 
L 1640.452084 265.196045 
L 1641.690341 299.104659 
L 1641.690341 299.104659 
" style="fill:none;stroke:#008000;stroke-linecap:square;stroke-width:1.5;"/>
   </g>
   <g id="patch_3">
    <path d="M 43.78125 586.86358 
L 43.78125 22.318125 
" style="fill:none;stroke:#000000;stroke-linecap:square;stroke-linejoin:miter;stroke-width:0.8;"/>
   </g>
   <g id="patch_4">
    <path d="M 1717.78125 586.86358 
L 1717.78125 22.318125 
" style="fill:none;stroke:#000000;stroke-linecap:square;stroke-linejoin:miter;stroke-width:0.8;"/>
   </g>
   <g id="patch_5">
    <path d="M 43.78125 586.86358 
L 1717.78125 586.86358 
" style="fill:none;stroke:#000000;stroke-linecap:square;stroke-linejoin:miter;stroke-width:0.8;"/>
   </g>
   <g id="patch_6">
    <path d="M 43.78125 22.318125 
L 1717.78125 22.318125 
" style="fill:none;stroke:#000000;stroke-linecap:square;stroke-linejoin:miter;stroke-width:0.8;"/>
   </g>
   <g id="text_19">
    <!-- before binarisation -->
    <g transform="translate(824.1825 16.318125)scale(0.12 -0.12)">
     <defs>
      <path d="M 3116 1747 
Q 3116 2381 2855 2742 
Q 2594 3103 2138 3103 
Q 1681 3103 1420 2742 
Q 1159 2381 1159 1747 
Q 1159 1113 1420 752 
Q 1681 391 2138 391 
Q 2594 391 2855 752 
Q 3116 1113 3116 1747 
z
M 1159 2969 
Q 1341 3281 1617 3432 
Q 1894 3584 2278 3584 
Q 2916 3584 3314 3078 
Q 3713 2572 3713 1747 
Q 3713 922 3314 415 
Q 2916 -91 2278 -91 
Q 1894 -91 1617 61 
Q 1341 213 1159 525 
L 1159 0 
L 581 0 
L 581 4863 
L 1159 4863 
L 1159 2969 
z
" id="DejaVuSans-62" transform="scale(0.015625)"/>
      <path d="M 1959 3097 
Q 1497 3097 1228 2736 
Q 959 2375 959 1747 
Q 959 1119 1226 758 
Q 1494 397 1959 397 
Q 2419 397 2687 759 
Q 2956 1122 2956 1747 
Q 2956 2369 2687 2733 
Q 2419 3097 1959 3097 
z
M 1959 3584 
Q 2709 3584 3137 3096 
Q 3566 2609 3566 1747 
Q 3566 888 3137 398 
Q 2709 -91 1959 -91 
Q 1206 -91 779 398 
Q 353 888 353 1747 
Q 353 2609 779 3096 
Q 1206 3584 1959 3584 
z
" id="DejaVuSans-6f" transform="scale(0.015625)"/>
      <path id="DejaVuSans-20" transform="scale(0.015625)"/>
      <path d="M 603 3500 
L 1178 3500 
L 1178 0 
L 603 0 
L 603 3500 
z
M 603 4863 
L 1178 4863 
L 1178 4134 
L 603 4134 
L 603 4863 
z
" id="DejaVuSans-69" transform="scale(0.015625)"/>
      <path d="M 3513 2113 
L 3513 0 
L 2938 0 
L 2938 2094 
Q 2938 2591 2744 2837 
Q 2550 3084 2163 3084 
Q 1697 3084 1428 2787 
Q 1159 2491 1159 1978 
L 1159 0 
L 581 0 
L 581 3500 
L 1159 3500 
L 1159 2956 
Q 1366 3272 1645 3428 
Q 1925 3584 2291 3584 
Q 2894 3584 3203 3211 
Q 3513 2838 3513 2113 
z
" id="DejaVuSans-6e" transform="scale(0.015625)"/>
      <path d="M 2834 3397 
L 2834 2853 
Q 2591 2978 2328 3040 
Q 2066 3103 1784 3103 
Q 1356 3103 1142 2972 
Q 928 2841 928 2578 
Q 928 2378 1081 2264 
Q 1234 2150 1697 2047 
L 1894 2003 
Q 2506 1872 2764 1633 
Q 3022 1394 3022 966 
Q 3022 478 2636 193 
Q 2250 -91 1575 -91 
Q 1294 -91 989 -36 
Q 684 19 347 128 
L 347 722 
Q 666 556 975 473 
Q 1284 391 1588 391 
Q 1994 391 2212 530 
Q 2431 669 2431 922 
Q 2431 1156 2273 1281 
Q 2116 1406 1581 1522 
L 1381 1569 
Q 847 1681 609 1914 
Q 372 2147 372 2553 
Q 372 3047 722 3315 
Q 1072 3584 1716 3584 
Q 2034 3584 2315 3537 
Q 2597 3491 2834 3397 
z
" id="DejaVuSans-73" transform="scale(0.015625)"/>
      <path d="M 1172 4494 
L 1172 3500 
L 2356 3500 
L 2356 3053 
L 1172 3053 
L 1172 1153 
Q 1172 725 1289 603 
Q 1406 481 1766 481 
L 2356 481 
L 2356 0 
L 1766 0 
Q 1100 0 847 248 
Q 594 497 594 1153 
L 594 3053 
L 172 3053 
L 172 3500 
L 594 3500 
L 594 4494 
L 1172 4494 
z
" id="DejaVuSans-74" transform="scale(0.015625)"/>
     </defs>
     <use xlink:href="#DejaVuSans-62"/>
     <use x="63.476562" xlink:href="#DejaVuSans-65"/>
     <use x="125" xlink:href="#DejaVuSans-66"/>
     <use x="160.205078" xlink:href="#DejaVuSans-6f"/>
     <use x="221.386719" xlink:href="#DejaVuSans-72"/>
     <use x="260.25" xlink:href="#DejaVuSans-65"/>
     <use x="321.773438" xlink:href="#DejaVuSans-20"/>
     <use x="353.560547" xlink:href="#DejaVuSans-62"/>
     <use x="417.037109" xlink:href="#DejaVuSans-69"/>
     <use x="444.820312" xlink:href="#DejaVuSans-6e"/>
     <use x="508.199219" xlink:href="#DejaVuSans-61"/>
     <use x="569.478516" xlink:href="#DejaVuSans-72"/>
     <use x="610.591797" xlink:href="#DejaVuSans-69"/>
     <use x="638.375" xlink:href="#DejaVuSans-73"/>
     <use x="690.474609" xlink:href="#DejaVuSans-61"/>
     <use x="751.753906" xlink:href="#DejaVuSans-74"/>
     <use x="790.962891" xlink:href="#DejaVuSans-69"/>
     <use x="818.746094" xlink:href="#DejaVuSans-6f"/>
     <use x="879.927734" xlink:href="#DejaVuSans-6e"/>
    </g>
   </g>
  </g>
  <g id="axes_2">
   <g id="patch_7">
    <path d="M 43.78125 1264.318125 
L 1717.78125 1264.318125 
L 1717.78125 699.77267 
L 43.78125 699.77267 
z
" style="fill:#ffffff;"/>
   </g>
   <g id="matplotlib.axis_3">
    <g id="xtick_8">
     <g id="line2d_18">
      <g>
       <use style="stroke:#000000;stroke-width:0.8;" x="119.872159" xlink:href="#mbc2ec2ef72" y="1264.318125"/>
      </g>
     </g>
     <g id="text_20">
      <!-- 0 -->
      <g transform="translate(116.690909 1278.916563)scale(0.1 -0.1)">
       <use xlink:href="#DejaVuSans-30"/>
      </g>
     </g>
    </g>
    <g id="xtick_9">
     <g id="line2d_19">
      <g>
       <use style="stroke:#000000;stroke-width:0.8;" x="367.523613" xlink:href="#mbc2ec2ef72" y="1264.318125"/>
      </g>
     </g>
     <g id="text_21">
      <!-- 200 -->
      <g transform="translate(357.979863 1278.916563)scale(0.1 -0.1)">
       <use xlink:href="#DejaVuSans-32"/>
       <use x="63.623047" xlink:href="#DejaVuSans-30"/>
       <use x="127.246094" xlink:href="#DejaVuSans-30"/>
      </g>
     </g>
    </g>
    <g id="xtick_10">
     <g id="line2d_20">
      <g>
       <use style="stroke:#000000;stroke-width:0.8;" x="615.175066" xlink:href="#mbc2ec2ef72" y="1264.318125"/>
      </g>
     </g>
     <g id="text_22">
      <!-- 400 -->
      <g transform="translate(605.631316 1278.916563)scale(0.1 -0.1)">
       <use xlink:href="#DejaVuSans-34"/>
       <use x="63.623047" xlink:href="#DejaVuSans-30"/>
       <use x="127.246094" xlink:href="#DejaVuSans-30"/>
      </g>
     </g>
    </g>
    <g id="xtick_11">
     <g id="line2d_21">
      <g>
       <use style="stroke:#000000;stroke-width:0.8;" x="862.82652" xlink:href="#mbc2ec2ef72" y="1264.318125"/>
      </g>
     </g>
     <g id="text_23">
      <!-- 600 -->
      <g transform="translate(853.28277 1278.916563)scale(0.1 -0.1)">
       <use xlink:href="#DejaVuSans-36"/>
       <use x="63.623047" xlink:href="#DejaVuSans-30"/>
       <use x="127.246094" xlink:href="#DejaVuSans-30"/>
      </g>
     </g>
    </g>
    <g id="xtick_12">
     <g id="line2d_22">
      <g>
       <use style="stroke:#000000;stroke-width:0.8;" x="1110.477973" xlink:href="#mbc2ec2ef72" y="1264.318125"/>
      </g>
     </g>
     <g id="text_24">
      <!-- 800 -->
      <g transform="translate(1100.934223 1278.916563)scale(0.1 -0.1)">
       <use xlink:href="#DejaVuSans-38"/>
       <use x="63.623047" xlink:href="#DejaVuSans-30"/>
       <use x="127.246094" xlink:href="#DejaVuSans-30"/>
      </g>
     </g>
    </g>
    <g id="xtick_13">
     <g id="line2d_23">
      <g>
       <use style="stroke:#000000;stroke-width:0.8;" x="1358.129427" xlink:href="#mbc2ec2ef72" y="1264.318125"/>
      </g>
     </g>
     <g id="text_25">
      <!-- 1000 -->
      <g transform="translate(1345.404427 1278.916563)scale(0.1 -0.1)">
       <use xlink:href="#DejaVuSans-31"/>
       <use x="63.623047" xlink:href="#DejaVuSans-30"/>
       <use x="127.246094" xlink:href="#DejaVuSans-30"/>
       <use x="190.869141" xlink:href="#DejaVuSans-30"/>
      </g>
     </g>
    </g>
    <g id="xtick_14">
     <g id="line2d_24">
      <g>
       <use style="stroke:#000000;stroke-width:0.8;" x="1605.78088" xlink:href="#mbc2ec2ef72" y="1264.318125"/>
      </g>
     </g>
     <g id="text_26">
      <!-- 1200 -->
      <g transform="translate(1593.05588 1278.916563)scale(0.1 -0.1)">
       <use xlink:href="#DejaVuSans-31"/>
       <use x="63.623047" xlink:href="#DejaVuSans-32"/>
       <use x="127.246094" xlink:href="#DejaVuSans-30"/>
       <use x="190.869141" xlink:href="#DejaVuSans-30"/>
      </g>
     </g>
    </g>
    <g id="text_27">
     <!-- frame -->
     <g transform="translate(865.954687 1292.594688)scale(0.1 -0.1)">
      <use xlink:href="#DejaVuSans-66"/>
      <use x="35.205078" xlink:href="#DejaVuSans-72"/>
      <use x="76.318359" xlink:href="#DejaVuSans-61"/>
      <use x="137.597656" xlink:href="#DejaVuSans-6d"/>
      <use x="235.009766" xlink:href="#DejaVuSans-65"/>
     </g>
    </g>
   </g>
   <g id="matplotlib.axis_4">
    <g id="ytick_10">
     <g id="line2d_25">
      <g>
       <use style="stroke:#000000;stroke-width:0.8;" x="43.78125" xlink:href="#m31e6232f6f" y="1238.656968"/>
      </g>
     </g>
     <g id="text_28">
      <!-- 0.0 -->
      <g transform="translate(20.878125 1242.456187)scale(0.1 -0.1)">
       <use xlink:href="#DejaVuSans-30"/>
       <use x="63.623047" xlink:href="#DejaVuSans-2e"/>
       <use x="95.410156" xlink:href="#DejaVuSans-30"/>
      </g>
     </g>
    </g>
    <g id="ytick_11">
     <g id="line2d_26">
      <g>
       <use style="stroke:#000000;stroke-width:0.8;" x="43.78125" xlink:href="#m31e6232f6f" y="1136.01234"/>
      </g>
     </g>
     <g id="text_29">
      <!-- 0.2 -->
      <g transform="translate(20.878125 1139.811559)scale(0.1 -0.1)">
       <use xlink:href="#DejaVuSans-30"/>
       <use x="63.623047" xlink:href="#DejaVuSans-2e"/>
       <use x="95.410156" xlink:href="#DejaVuSans-32"/>
      </g>
     </g>
    </g>
    <g id="ytick_12">
     <g id="line2d_27">
      <g>
       <use style="stroke:#000000;stroke-width:0.8;" x="43.78125" xlink:href="#m31e6232f6f" y="1033.367712"/>
      </g>
     </g>
     <g id="text_30">
      <!-- 0.4 -->
      <g transform="translate(20.878125 1037.166931)scale(0.1 -0.1)">
       <use xlink:href="#DejaVuSans-30"/>
       <use x="63.623047" xlink:href="#DejaVuSans-2e"/>
       <use x="95.410156" xlink:href="#DejaVuSans-34"/>
      </g>
     </g>
    </g>
    <g id="ytick_13">
     <g id="line2d_28">
      <g>
       <use style="stroke:#000000;stroke-width:0.8;" x="43.78125" xlink:href="#m31e6232f6f" y="930.723084"/>
      </g>
     </g>
     <g id="text_31">
      <!-- 0.6 -->
      <g transform="translate(20.878125 934.522302)scale(0.1 -0.1)">
       <use xlink:href="#DejaVuSans-30"/>
       <use x="63.623047" xlink:href="#DejaVuSans-2e"/>
       <use x="95.410156" xlink:href="#DejaVuSans-36"/>
      </g>
     </g>
    </g>
    <g id="ytick_14">
     <g id="line2d_29">
      <g>
       <use style="stroke:#000000;stroke-width:0.8;" x="43.78125" xlink:href="#m31e6232f6f" y="828.078456"/>
      </g>
     </g>
     <g id="text_32">
      <!-- 0.8 -->
      <g transform="translate(20.878125 831.877674)scale(0.1 -0.1)">
       <use xlink:href="#DejaVuSans-30"/>
       <use x="63.623047" xlink:href="#DejaVuSans-2e"/>
       <use x="95.410156" xlink:href="#DejaVuSans-38"/>
      </g>
     </g>
    </g>
    <g id="ytick_15">
     <g id="line2d_30">
      <g>
       <use style="stroke:#000000;stroke-width:0.8;" x="43.78125" xlink:href="#m31e6232f6f" y="725.433827"/>
      </g>
     </g>
     <g id="text_33">
      <!-- 1.0 -->
      <g transform="translate(20.878125 729.233046)scale(0.1 -0.1)">
       <use xlink:href="#DejaVuSans-31"/>
       <use x="63.623047" xlink:href="#DejaVuSans-2e"/>
       <use x="95.410156" xlink:href="#DejaVuSans-30"/>
      </g>
     </g>
    </g>
    <g id="text_34">
     <!-- GCaMP -->
     <g transform="translate(14.798437 999.803991)rotate(-90)scale(0.1 -0.1)">
      <use xlink:href="#DejaVuSans-47"/>
      <use x="77.490234" xlink:href="#DejaVuSans-43"/>
      <use x="147.314453" xlink:href="#DejaVuSans-61"/>
      <use x="208.59375" xlink:href="#DejaVuSans-4d"/>
      <use x="294.873047" xlink:href="#DejaVuSans-50"/>
     </g>
    </g>
   </g>
   <g id="line2d_31">
    <path clip-path="url(#p77b9befc3c)" d="M 119.872159 1238.656968 
L 154.543363 1238.656968 
L 155.78162 725.433827 
L 192.929338 725.433827 
L 194.167595 1238.656968 
L 210.26494 1238.656968 
L 211.503197 725.433827 
L 246.1744 725.433827 
L 247.412658 1238.656968 
L 258.556973 1238.656968 
L 259.79523 725.433827 
L 269.701288 725.433827 
L 270.939546 1238.656968 
L 274.654318 1238.656968 
L 275.892575 725.433827 
L 321.708094 725.433827 
L 322.946351 1238.656968 
L 412.100874 1238.656968 
L 413.339132 725.433827 
L 424.483447 725.433827 
L 425.721704 1238.656968 
L 466.584194 1238.656968 
L 467.822451 725.433827 
L 469.060709 725.433827 
L 470.298966 1238.656968 
L 474.013738 1238.656968 
L 475.251995 725.433827 
L 482.681538 725.433827 
L 483.919796 1238.656968 
L 746.430336 1238.656968 
L 747.668594 725.433827 
L 748.906851 1238.656968 
L 1044.850338 1238.656968 
L 1046.088595 725.433827 
L 1067.138969 725.433827 
L 1068.377226 1238.656968 
L 1090.665857 1238.656968 
L 1091.904114 725.433827 
L 1096.857143 725.433827 
L 1098.0954 1238.656968 
L 1169.914322 1238.656968 
L 1171.152579 725.433827 
L 1173.629094 725.433827 
L 1174.867351 1238.656968 
L 1223.159384 1238.656968 
L 1224.397642 725.433827 
L 1239.256729 725.433827 
L 1240.494986 1238.656968 
L 1291.263534 1238.656968 
L 1292.501791 725.433827 
L 1296.216563 725.433827 
L 1297.454821 1238.656968 
L 1302.40785 1238.656968 
L 1303.646107 725.433827 
L 1308.599136 725.433827 
L 1309.837393 1238.656968 
L 1635.499055 1238.656968 
L 1636.737312 725.433827 
L 1637.975569 725.433827 
L 1639.213826 1238.656968 
L 1641.690341 1238.656968 
L 1641.690341 1238.656968 
" style="fill:none;stroke:#008000;stroke-linecap:square;stroke-width:1.5;"/>
   </g>
   <g id="patch_8">
    <path d="M 43.78125 1264.318125 
L 43.78125 699.77267 
" style="fill:none;stroke:#000000;stroke-linecap:square;stroke-linejoin:miter;stroke-width:0.8;"/>
   </g>
   <g id="patch_9">
    <path d="M 1717.78125 1264.318125 
L 1717.78125 699.77267 
" style="fill:none;stroke:#000000;stroke-linecap:square;stroke-linejoin:miter;stroke-width:0.8;"/>
   </g>
   <g id="patch_10">
    <path d="M 43.78125 1264.318125 
L 1717.78125 1264.318125 
" style="fill:none;stroke:#000000;stroke-linecap:square;stroke-linejoin:miter;stroke-width:0.8;"/>
   </g>
   <g id="patch_11">
    <path d="M 43.78125 699.77267 
L 1717.78125 699.77267 
" style="fill:none;stroke:#000000;stroke-linecap:square;stroke-linejoin:miter;stroke-width:0.8;"/>
   </g>
   <g id="text_35">
    <!-- before binarisation -->
    <g transform="translate(824.1825 693.77267)scale(0.12 -0.12)">
     <use xlink:href="#DejaVuSans-62"/>
     <use x="63.476562" xlink:href="#DejaVuSans-65"/>
     <use x="125" xlink:href="#DejaVuSans-66"/>
     <use x="160.205078" xlink:href="#DejaVuSans-6f"/>
     <use x="221.386719" xlink:href="#DejaVuSans-72"/>
     <use x="260.25" xlink:href="#DejaVuSans-65"/>
     <use x="321.773438" xlink:href="#DejaVuSans-20"/>
     <use x="353.560547" xlink:href="#DejaVuSans-62"/>
     <use x="417.037109" xlink:href="#DejaVuSans-69"/>
     <use x="444.820312" xlink:href="#DejaVuSans-6e"/>
     <use x="508.199219" xlink:href="#DejaVuSans-61"/>
     <use x="569.478516" xlink:href="#DejaVuSans-72"/>
     <use x="610.591797" xlink:href="#DejaVuSans-69"/>
     <use x="638.375" xlink:href="#DejaVuSans-73"/>
     <use x="690.474609" xlink:href="#DejaVuSans-61"/>
     <use x="751.753906" xlink:href="#DejaVuSans-74"/>
     <use x="790.962891" xlink:href="#DejaVuSans-69"/>
     <use x="818.746094" xlink:href="#DejaVuSans-6f"/>
     <use x="879.927734" xlink:href="#DejaVuSans-6e"/>
    </g>
   </g>
  </g>
 </g>
 <defs>
  <clipPath id="p1219a6bcaf">
   <rect height="564.545455" width="1674" x="43.78125" y="22.318125"/>
  </clipPath>
  <clipPath id="p77b9befc3c">
   <rect height="564.545455" width="1674" x="43.78125" y="699.77267"/>
  </clipPath>
 </defs>
</svg>
