<?xml version="1.0" encoding="utf-8" standalone="no"?>
<!DOCTYPE svg PUBLIC "-//W3C//DTD SVG 1.1//EN"
  "http://www.w3.org/Graphics/SVG/1.1/DTD/svg11.dtd">
<svg height="1301.874375pt" version="1.1" viewBox="0 0 1724.98125 1301.874375" width="1724.98125pt" xmlns="http://www.w3.org/2000/svg" xmlns:xlink="http://www.w3.org/1999/xlink">
 <metadata>
  <rdf:RDF xmlns:cc="http://creativecommons.org/ns#" xmlns:dc="http://purl.org/dc/elements/1.1/" xmlns:rdf="http://www.w3.org/1999/02/22-rdf-syntax-ns#">
   <cc:Work>
    <dc:type rdf:resource="http://purl.org/dc/dcmitype/StillImage"/>
    <dc:date>2022-07-24T15:54:38.693814</dc:date>
    <dc:format>image/svg+xml</dc:format>
    <dc:creator>
     <cc:Agent>
      <dc:title>Matplotlib v3.4.2, https://matplotlib.org/</dc:title>
     </cc:Agent>
    </dc:creator>
   </cc:Work>
  </rdf:RDF>
 </metadata>
 <defs>
  <style type="text/css">*{stroke-linecap:butt;stroke-linejoin:round;}</style>
 </defs>
 <g id="figure_1">
  <g id="patch_1">
   <path d="M 0 1301.874375 
L 1724.98125 1301.874375 
L 1724.98125 0 
L 0 0 
z
" style="fill:#ffffff;"/>
  </g>
  <g id="axes_1">
   <g id="patch_2">
    <path d="M 43.78125 586.86358 
L 1717.78125 586.86358 
L 1717.78125 22.318125 
L 43.78125 22.318125 
z
" style="fill:#ffffff;"/>
   </g>
   <g id="matplotlib.axis_1">
    <g id="xtick_1">
     <g id="line2d_1">
      <defs>
       <path d="M 0 0 
L 0 3.5 
" id="m8c22265b7f" style="stroke:#000000;stroke-width:0.8;"/>
      </defs>
      <g>
       <use style="stroke:#000000;stroke-width:0.8;" x="119.872159" xlink:href="#m8c22265b7f" y="586.86358"/>
      </g>
     </g>
     <g id="text_1">
      <!-- 0 -->
      <g transform="translate(116.690909 601.462017)scale(0.1 -0.1)">
       <defs>
        <path d="M 2034 4250 
Q 1547 4250 1301 3770 
Q 1056 3291 1056 2328 
Q 1056 1369 1301 889 
Q 1547 409 2034 409 
Q 2525 409 2770 889 
Q 3016 1369 3016 2328 
Q 3016 3291 2770 3770 
Q 2525 4250 2034 4250 
z
M 2034 4750 
Q 2819 4750 3233 4129 
Q 3647 3509 3647 2328 
Q 3647 1150 3233 529 
Q 2819 -91 2034 -91 
Q 1250 -91 836 529 
Q 422 1150 422 2328 
Q 422 3509 836 4129 
Q 1250 4750 2034 4750 
z
" id="DejaVuSans-30" transform="scale(0.015625)"/>
       </defs>
       <use xlink:href="#DejaVuSans-30"/>
      </g>
     </g>
    </g>
    <g id="xtick_2">
     <g id="line2d_2">
      <g>
       <use style="stroke:#000000;stroke-width:0.8;" x="367.523613" xlink:href="#m8c22265b7f" y="586.86358"/>
      </g>
     </g>
     <g id="text_2">
      <!-- 200 -->
      <g transform="translate(357.979863 601.462017)scale(0.1 -0.1)">
       <defs>
        <path d="M 1228 531 
L 3431 531 
L 3431 0 
L 469 0 
L 469 531 
Q 828 903 1448 1529 
Q 2069 2156 2228 2338 
Q 2531 2678 2651 2914 
Q 2772 3150 2772 3378 
Q 2772 3750 2511 3984 
Q 2250 4219 1831 4219 
Q 1534 4219 1204 4116 
Q 875 4013 500 3803 
L 500 4441 
Q 881 4594 1212 4672 
Q 1544 4750 1819 4750 
Q 2544 4750 2975 4387 
Q 3406 4025 3406 3419 
Q 3406 3131 3298 2873 
Q 3191 2616 2906 2266 
Q 2828 2175 2409 1742 
Q 1991 1309 1228 531 
z
" id="DejaVuSans-32" transform="scale(0.015625)"/>
       </defs>
       <use xlink:href="#DejaVuSans-32"/>
       <use x="63.623047" xlink:href="#DejaVuSans-30"/>
       <use x="127.246094" xlink:href="#DejaVuSans-30"/>
      </g>
     </g>
    </g>
    <g id="xtick_3">
     <g id="line2d_3">
      <g>
       <use style="stroke:#000000;stroke-width:0.8;" x="615.175066" xlink:href="#m8c22265b7f" y="586.86358"/>
      </g>
     </g>
     <g id="text_3">
      <!-- 400 -->
      <g transform="translate(605.631316 601.462017)scale(0.1 -0.1)">
       <defs>
        <path d="M 2419 4116 
L 825 1625 
L 2419 1625 
L 2419 4116 
z
M 2253 4666 
L 3047 4666 
L 3047 1625 
L 3713 1625 
L 3713 1100 
L 3047 1100 
L 3047 0 
L 2419 0 
L 2419 1100 
L 313 1100 
L 313 1709 
L 2253 4666 
z
" id="DejaVuSans-34" transform="scale(0.015625)"/>
       </defs>
       <use xlink:href="#DejaVuSans-34"/>
       <use x="63.623047" xlink:href="#DejaVuSans-30"/>
       <use x="127.246094" xlink:href="#DejaVuSans-30"/>
      </g>
     </g>
    </g>
    <g id="xtick_4">
     <g id="line2d_4">
      <g>
       <use style="stroke:#000000;stroke-width:0.8;" x="862.82652" xlink:href="#m8c22265b7f" y="586.86358"/>
      </g>
     </g>
     <g id="text_4">
      <!-- 600 -->
      <g transform="translate(853.28277 601.462017)scale(0.1 -0.1)">
       <defs>
        <path d="M 2113 2584 
Q 1688 2584 1439 2293 
Q 1191 2003 1191 1497 
Q 1191 994 1439 701 
Q 1688 409 2113 409 
Q 2538 409 2786 701 
Q 3034 994 3034 1497 
Q 3034 2003 2786 2293 
Q 2538 2584 2113 2584 
z
M 3366 4563 
L 3366 3988 
Q 3128 4100 2886 4159 
Q 2644 4219 2406 4219 
Q 1781 4219 1451 3797 
Q 1122 3375 1075 2522 
Q 1259 2794 1537 2939 
Q 1816 3084 2150 3084 
Q 2853 3084 3261 2657 
Q 3669 2231 3669 1497 
Q 3669 778 3244 343 
Q 2819 -91 2113 -91 
Q 1303 -91 875 529 
Q 447 1150 447 2328 
Q 447 3434 972 4092 
Q 1497 4750 2381 4750 
Q 2619 4750 2861 4703 
Q 3103 4656 3366 4563 
z
" id="DejaVuSans-36" transform="scale(0.015625)"/>
       </defs>
       <use xlink:href="#DejaVuSans-36"/>
       <use x="63.623047" xlink:href="#DejaVuSans-30"/>
       <use x="127.246094" xlink:href="#DejaVuSans-30"/>
      </g>
     </g>
    </g>
    <g id="xtick_5">
     <g id="line2d_5">
      <g>
       <use style="stroke:#000000;stroke-width:0.8;" x="1110.477973" xlink:href="#m8c22265b7f" y="586.86358"/>
      </g>
     </g>
     <g id="text_5">
      <!-- 800 -->
      <g transform="translate(1100.934223 601.462017)scale(0.1 -0.1)">
       <defs>
        <path d="M 2034 2216 
Q 1584 2216 1326 1975 
Q 1069 1734 1069 1313 
Q 1069 891 1326 650 
Q 1584 409 2034 409 
Q 2484 409 2743 651 
Q 3003 894 3003 1313 
Q 3003 1734 2745 1975 
Q 2488 2216 2034 2216 
z
M 1403 2484 
Q 997 2584 770 2862 
Q 544 3141 544 3541 
Q 544 4100 942 4425 
Q 1341 4750 2034 4750 
Q 2731 4750 3128 4425 
Q 3525 4100 3525 3541 
Q 3525 3141 3298 2862 
Q 3072 2584 2669 2484 
Q 3125 2378 3379 2068 
Q 3634 1759 3634 1313 
Q 3634 634 3220 271 
Q 2806 -91 2034 -91 
Q 1263 -91 848 271 
Q 434 634 434 1313 
Q 434 1759 690 2068 
Q 947 2378 1403 2484 
z
M 1172 3481 
Q 1172 3119 1398 2916 
Q 1625 2713 2034 2713 
Q 2441 2713 2670 2916 
Q 2900 3119 2900 3481 
Q 2900 3844 2670 4047 
Q 2441 4250 2034 4250 
Q 1625 4250 1398 4047 
Q 1172 3844 1172 3481 
z
" id="DejaVuSans-38" transform="scale(0.015625)"/>
       </defs>
       <use xlink:href="#DejaVuSans-38"/>
       <use x="63.623047" xlink:href="#DejaVuSans-30"/>
       <use x="127.246094" xlink:href="#DejaVuSans-30"/>
      </g>
     </g>
    </g>
    <g id="xtick_6">
     <g id="line2d_6">
      <g>
       <use style="stroke:#000000;stroke-width:0.8;" x="1358.129427" xlink:href="#m8c22265b7f" y="586.86358"/>
      </g>
     </g>
     <g id="text_6">
      <!-- 1000 -->
      <g transform="translate(1345.404427 601.462017)scale(0.1 -0.1)">
       <defs>
        <path d="M 794 531 
L 1825 531 
L 1825 4091 
L 703 3866 
L 703 4441 
L 1819 4666 
L 2450 4666 
L 2450 531 
L 3481 531 
L 3481 0 
L 794 0 
L 794 531 
z
" id="DejaVuSans-31" transform="scale(0.015625)"/>
       </defs>
       <use xlink:href="#DejaVuSans-31"/>
       <use x="63.623047" xlink:href="#DejaVuSans-30"/>
       <use x="127.246094" xlink:href="#DejaVuSans-30"/>
       <use x="190.869141" xlink:href="#DejaVuSans-30"/>
      </g>
     </g>
    </g>
    <g id="xtick_7">
     <g id="line2d_7">
      <g>
       <use style="stroke:#000000;stroke-width:0.8;" x="1605.78088" xlink:href="#m8c22265b7f" y="586.86358"/>
      </g>
     </g>
     <g id="text_7">
      <!-- 1200 -->
      <g transform="translate(1593.05588 601.462017)scale(0.1 -0.1)">
       <use xlink:href="#DejaVuSans-31"/>
       <use x="63.623047" xlink:href="#DejaVuSans-32"/>
       <use x="127.246094" xlink:href="#DejaVuSans-30"/>
       <use x="190.869141" xlink:href="#DejaVuSans-30"/>
      </g>
     </g>
    </g>
    <g id="text_8">
     <!-- frame -->
     <g transform="translate(865.954687 615.140142)scale(0.1 -0.1)">
      <defs>
       <path d="M 2375 4863 
L 2375 4384 
L 1825 4384 
Q 1516 4384 1395 4259 
Q 1275 4134 1275 3809 
L 1275 3500 
L 2222 3500 
L 2222 3053 
L 1275 3053 
L 1275 0 
L 697 0 
L 697 3053 
L 147 3053 
L 147 3500 
L 697 3500 
L 697 3744 
Q 697 4328 969 4595 
Q 1241 4863 1831 4863 
L 2375 4863 
z
" id="DejaVuSans-66" transform="scale(0.015625)"/>
       <path d="M 2631 2963 
Q 2534 3019 2420 3045 
Q 2306 3072 2169 3072 
Q 1681 3072 1420 2755 
Q 1159 2438 1159 1844 
L 1159 0 
L 581 0 
L 581 3500 
L 1159 3500 
L 1159 2956 
Q 1341 3275 1631 3429 
Q 1922 3584 2338 3584 
Q 2397 3584 2469 3576 
Q 2541 3569 2628 3553 
L 2631 2963 
z
" id="DejaVuSans-72" transform="scale(0.015625)"/>
       <path d="M 2194 1759 
Q 1497 1759 1228 1600 
Q 959 1441 959 1056 
Q 959 750 1161 570 
Q 1363 391 1709 391 
Q 2188 391 2477 730 
Q 2766 1069 2766 1631 
L 2766 1759 
L 2194 1759 
z
M 3341 1997 
L 3341 0 
L 2766 0 
L 2766 531 
Q 2569 213 2275 61 
Q 1981 -91 1556 -91 
Q 1019 -91 701 211 
Q 384 513 384 1019 
Q 384 1609 779 1909 
Q 1175 2209 1959 2209 
L 2766 2209 
L 2766 2266 
Q 2766 2663 2505 2880 
Q 2244 3097 1772 3097 
Q 1472 3097 1187 3025 
Q 903 2953 641 2809 
L 641 3341 
Q 956 3463 1253 3523 
Q 1550 3584 1831 3584 
Q 2591 3584 2966 3190 
Q 3341 2797 3341 1997 
z
" id="DejaVuSans-61" transform="scale(0.015625)"/>
       <path d="M 3328 2828 
Q 3544 3216 3844 3400 
Q 4144 3584 4550 3584 
Q 5097 3584 5394 3201 
Q 5691 2819 5691 2113 
L 5691 0 
L 5113 0 
L 5113 2094 
Q 5113 2597 4934 2840 
Q 4756 3084 4391 3084 
Q 3944 3084 3684 2787 
Q 3425 2491 3425 1978 
L 3425 0 
L 2847 0 
L 2847 2094 
Q 2847 2600 2669 2842 
Q 2491 3084 2119 3084 
Q 1678 3084 1418 2786 
Q 1159 2488 1159 1978 
L 1159 0 
L 581 0 
L 581 3500 
L 1159 3500 
L 1159 2956 
Q 1356 3278 1631 3431 
Q 1906 3584 2284 3584 
Q 2666 3584 2933 3390 
Q 3200 3197 3328 2828 
z
" id="DejaVuSans-6d" transform="scale(0.015625)"/>
       <path d="M 3597 1894 
L 3597 1613 
L 953 1613 
Q 991 1019 1311 708 
Q 1631 397 2203 397 
Q 2534 397 2845 478 
Q 3156 559 3463 722 
L 3463 178 
Q 3153 47 2828 -22 
Q 2503 -91 2169 -91 
Q 1331 -91 842 396 
Q 353 884 353 1716 
Q 353 2575 817 3079 
Q 1281 3584 2069 3584 
Q 2775 3584 3186 3129 
Q 3597 2675 3597 1894 
z
M 3022 2063 
Q 3016 2534 2758 2815 
Q 2500 3097 2075 3097 
Q 1594 3097 1305 2825 
Q 1016 2553 972 2059 
L 3022 2063 
z
" id="DejaVuSans-65" transform="scale(0.015625)"/>
      </defs>
      <use xlink:href="#DejaVuSans-66"/>
      <use x="35.205078" xlink:href="#DejaVuSans-72"/>
      <use x="76.318359" xlink:href="#DejaVuSans-61"/>
      <use x="137.597656" xlink:href="#DejaVuSans-6d"/>
      <use x="235.009766" xlink:href="#DejaVuSans-65"/>
     </g>
    </g>
   </g>
   <g id="matplotlib.axis_2">
    <g id="ytick_1">
     <g id="line2d_8">
      <defs>
       <path d="M 0 0 
L -3.5 0 
" id="mb69d2c4ff9" style="stroke:#000000;stroke-width:0.8;"/>
      </defs>
      <g>
       <use style="stroke:#000000;stroke-width:0.8;" x="43.78125" xlink:href="#mb69d2c4ff9" y="499.709657"/>
      </g>
     </g>
     <g id="text_9">
      <!-- 3.0 -->
      <g transform="translate(20.878125 503.508876)scale(0.1 -0.1)">
       <defs>
        <path d="M 2597 2516 
Q 3050 2419 3304 2112 
Q 3559 1806 3559 1356 
Q 3559 666 3084 287 
Q 2609 -91 1734 -91 
Q 1441 -91 1130 -33 
Q 819 25 488 141 
L 488 750 
Q 750 597 1062 519 
Q 1375 441 1716 441 
Q 2309 441 2620 675 
Q 2931 909 2931 1356 
Q 2931 1769 2642 2001 
Q 2353 2234 1838 2234 
L 1294 2234 
L 1294 2753 
L 1863 2753 
Q 2328 2753 2575 2939 
Q 2822 3125 2822 3475 
Q 2822 3834 2567 4026 
Q 2313 4219 1838 4219 
Q 1578 4219 1281 4162 
Q 984 4106 628 3988 
L 628 4550 
Q 988 4650 1302 4700 
Q 1616 4750 1894 4750 
Q 2613 4750 3031 4423 
Q 3450 4097 3450 3541 
Q 3450 3153 3228 2886 
Q 3006 2619 2597 2516 
z
" id="DejaVuSans-33" transform="scale(0.015625)"/>
        <path d="M 684 794 
L 1344 794 
L 1344 0 
L 684 0 
L 684 794 
z
" id="DejaVuSans-2e" transform="scale(0.015625)"/>
       </defs>
       <use xlink:href="#DejaVuSans-33"/>
       <use x="63.623047" xlink:href="#DejaVuSans-2e"/>
       <use x="95.410156" xlink:href="#DejaVuSans-30"/>
      </g>
     </g>
    </g>
    <g id="ytick_2">
     <g id="line2d_9">
      <g>
       <use style="stroke:#000000;stroke-width:0.8;" x="43.78125" xlink:href="#mb69d2c4ff9" y="410.873102"/>
      </g>
     </g>
     <g id="text_10">
      <!-- 3.5 -->
      <g transform="translate(20.878125 414.67232)scale(0.1 -0.1)">
       <defs>
        <path d="M 691 4666 
L 3169 4666 
L 3169 4134 
L 1269 4134 
L 1269 2991 
Q 1406 3038 1543 3061 
Q 1681 3084 1819 3084 
Q 2600 3084 3056 2656 
Q 3513 2228 3513 1497 
Q 3513 744 3044 326 
Q 2575 -91 1722 -91 
Q 1428 -91 1123 -41 
Q 819 9 494 109 
L 494 744 
Q 775 591 1075 516 
Q 1375 441 1709 441 
Q 2250 441 2565 725 
Q 2881 1009 2881 1497 
Q 2881 1984 2565 2268 
Q 2250 2553 1709 2553 
Q 1456 2553 1204 2497 
Q 953 2441 691 2322 
L 691 4666 
z
" id="DejaVuSans-35" transform="scale(0.015625)"/>
       </defs>
       <use xlink:href="#DejaVuSans-33"/>
       <use x="63.623047" xlink:href="#DejaVuSans-2e"/>
       <use x="95.410156" xlink:href="#DejaVuSans-35"/>
      </g>
     </g>
    </g>
    <g id="ytick_3">
     <g id="line2d_10">
      <g>
       <use style="stroke:#000000;stroke-width:0.8;" x="43.78125" xlink:href="#mb69d2c4ff9" y="322.036546"/>
      </g>
     </g>
     <g id="text_11">
      <!-- 4.0 -->
      <g transform="translate(20.878125 325.835765)scale(0.1 -0.1)">
       <use xlink:href="#DejaVuSans-34"/>
       <use x="63.623047" xlink:href="#DejaVuSans-2e"/>
       <use x="95.410156" xlink:href="#DejaVuSans-30"/>
      </g>
     </g>
    </g>
    <g id="ytick_4">
     <g id="line2d_11">
      <g>
       <use style="stroke:#000000;stroke-width:0.8;" x="43.78125" xlink:href="#mb69d2c4ff9" y="233.199991"/>
      </g>
     </g>
     <g id="text_12">
      <!-- 4.5 -->
      <g transform="translate(20.878125 236.999209)scale(0.1 -0.1)">
       <use xlink:href="#DejaVuSans-34"/>
       <use x="63.623047" xlink:href="#DejaVuSans-2e"/>
       <use x="95.410156" xlink:href="#DejaVuSans-35"/>
      </g>
     </g>
    </g>
    <g id="ytick_5">
     <g id="line2d_12">
      <g>
       <use style="stroke:#000000;stroke-width:0.8;" x="43.78125" xlink:href="#mb69d2c4ff9" y="144.363435"/>
      </g>
     </g>
     <g id="text_13">
      <!-- 5.0 -->
      <g transform="translate(20.878125 148.162654)scale(0.1 -0.1)">
       <use xlink:href="#DejaVuSans-35"/>
       <use x="63.623047" xlink:href="#DejaVuSans-2e"/>
       <use x="95.410156" xlink:href="#DejaVuSans-30"/>
      </g>
     </g>
    </g>
    <g id="ytick_6">
     <g id="line2d_13">
      <g>
       <use style="stroke:#000000;stroke-width:0.8;" x="43.78125" xlink:href="#mb69d2c4ff9" y="55.52688"/>
      </g>
     </g>
     <g id="text_14">
      <!-- 5.5 -->
      <g transform="translate(20.878125 59.326099)scale(0.1 -0.1)">
       <use xlink:href="#DejaVuSans-35"/>
       <use x="63.623047" xlink:href="#DejaVuSans-2e"/>
       <use x="95.410156" xlink:href="#DejaVuSans-35"/>
      </g>
     </g>
    </g>
    <g id="text_15">
     <!-- GCaMP -->
     <g transform="translate(14.798437 322.349446)rotate(-90)scale(0.1 -0.1)">
      <defs>
       <path d="M 3809 666 
L 3809 1919 
L 2778 1919 
L 2778 2438 
L 4434 2438 
L 4434 434 
Q 4069 175 3628 42 
Q 3188 -91 2688 -91 
Q 1594 -91 976 548 
Q 359 1188 359 2328 
Q 359 3472 976 4111 
Q 1594 4750 2688 4750 
Q 3144 4750 3555 4637 
Q 3966 4525 4313 4306 
L 4313 3634 
Q 3963 3931 3569 4081 
Q 3175 4231 2741 4231 
Q 1884 4231 1454 3753 
Q 1025 3275 1025 2328 
Q 1025 1384 1454 906 
Q 1884 428 2741 428 
Q 3075 428 3337 486 
Q 3600 544 3809 666 
z
" id="DejaVuSans-47" transform="scale(0.015625)"/>
       <path d="M 4122 4306 
L 4122 3641 
Q 3803 3938 3442 4084 
Q 3081 4231 2675 4231 
Q 1875 4231 1450 3742 
Q 1025 3253 1025 2328 
Q 1025 1406 1450 917 
Q 1875 428 2675 428 
Q 3081 428 3442 575 
Q 3803 722 4122 1019 
L 4122 359 
Q 3791 134 3420 21 
Q 3050 -91 2638 -91 
Q 1578 -91 968 557 
Q 359 1206 359 2328 
Q 359 3453 968 4101 
Q 1578 4750 2638 4750 
Q 3056 4750 3426 4639 
Q 3797 4528 4122 4306 
z
" id="DejaVuSans-43" transform="scale(0.015625)"/>
       <path d="M 628 4666 
L 1569 4666 
L 2759 1491 
L 3956 4666 
L 4897 4666 
L 4897 0 
L 4281 0 
L 4281 4097 
L 3078 897 
L 2444 897 
L 1241 4097 
L 1241 0 
L 628 0 
L 628 4666 
z
" id="DejaVuSans-4d" transform="scale(0.015625)"/>
       <path d="M 1259 4147 
L 1259 2394 
L 2053 2394 
Q 2494 2394 2734 2622 
Q 2975 2850 2975 3272 
Q 2975 3691 2734 3919 
Q 2494 4147 2053 4147 
L 1259 4147 
z
M 628 4666 
L 2053 4666 
Q 2838 4666 3239 4311 
Q 3641 3956 3641 3272 
Q 3641 2581 3239 2228 
Q 2838 1875 2053 1875 
L 1259 1875 
L 1259 0 
L 628 0 
L 628 4666 
z
" id="DejaVuSans-50" transform="scale(0.015625)"/>
      </defs>
      <use xlink:href="#DejaVuSans-47"/>
      <use x="77.490234" xlink:href="#DejaVuSans-43"/>
      <use x="147.314453" xlink:href="#DejaVuSans-61"/>
      <use x="208.59375" xlink:href="#DejaVuSans-4d"/>
      <use x="294.873047" xlink:href="#DejaVuSans-50"/>
     </g>
    </g>
   </g>
   <g id="line2d_14">
    <path clip-path="url(#pdaaf0ff430)" d="M 119.872159 244.457126 
L 121.110416 237.130926 
L 122.348674 228.191002 
L 123.586931 216.63372 
L 126.063445 189.513236 
L 127.301703 179.057945 
L 128.53996 173.431068 
L 129.778217 172.416714 
L 131.016474 174.425191 
L 132.254732 177.581541 
L 133.492989 180.127147 
L 134.731246 180.557716 
L 135.969504 177.794231 
L 137.207761 171.242043 
L 138.446018 160.877951 
L 142.16079 122.021488 
L 143.399047 114.818312 
L 144.637304 113.505193 
L 145.875562 117.434352 
L 147.113819 124.092794 
L 148.352076 131.631671 
L 150.828591 148.539226 
L 152.066848 154.222597 
L 153.305105 154.690691 
L 154.543363 150.615148 
L 157.019877 139.097946 
L 158.258134 134.493191 
L 159.496392 131.044876 
L 160.734649 128.668858 
L 161.972906 126.828712 
L 163.211163 125.306317 
L 164.449421 124.938179 
L 165.687678 126.048573 
L 166.925935 126.774369 
L 168.164193 124.421846 
L 169.40245 117.183322 
L 170.640707 104.3113 
L 173.117222 69.066627 
L 174.355479 54.990117 
L 175.593736 47.979282 
L 176.831993 47.994795 
L 178.070251 51.596781 
L 179.308508 55.879503 
L 180.546765 61.735019 
L 181.785022 71.098844 
L 184.261537 95.075504 
L 185.499794 104.959346 
L 186.738052 111.245952 
L 187.976309 112.347897 
L 189.214566 107.89999 
L 190.452823 100.725672 
L 191.691081 94.550101 
L 192.929338 89.920051 
L 194.167595 86.25506 
L 195.405852 85.084594 
L 196.64411 87.118836 
L 197.882367 90.356192 
L 199.120624 93.910767 
L 200.358881 99.167299 
L 201.597139 105.821306 
L 202.835396 111.218226 
L 204.073653 114.254711 
L 206.550168 118.651472 
L 207.788425 119.891295 
L 209.026682 118.846182 
L 210.26494 115.633029 
L 211.503197 111.022994 
L 212.741454 105.112309 
L 213.979711 97.532763 
L 215.217969 89.110133 
L 216.456226 82.043195 
L 217.694483 77.717788 
L 218.93274 75.87855 
L 220.170998 75.919964 
L 221.409255 77.284294 
L 222.647512 79.348224 
L 223.88577 82.217262 
L 225.124027 87.000841 
L 226.362284 94.396493 
L 227.600541 102.89785 
L 228.838799 109.508559 
L 231.315313 116.571597 
L 232.55357 122.369668 
L 233.791828 130.01259 
L 235.030085 136.830343 
L 236.268342 141.179677 
L 237.5066 142.28048 
L 238.744857 139.347693 
L 241.221371 127.632511 
L 242.459629 124.333808 
L 243.697886 122.825354 
L 244.936143 121.865201 
L 246.1744 122.339252 
L 247.412658 126.050944 
L 248.650915 133.170318 
L 249.889172 142.675495 
L 251.127429 153.914292 
L 254.842201 191.931377 
L 256.080459 198.884182 
L 257.318716 197.87133 
L 258.556973 187.454254 
L 261.033488 150.865119 
L 262.271745 138.650995 
L 263.510002 137.246027 
L 264.748259 145.148201 
L 267.224774 167.796577 
L 268.463031 175.813263 
L 269.701288 179.971172 
L 270.939546 179.174787 
L 272.177803 173.471314 
L 273.41606 165.649298 
L 274.654318 160.412081 
L 275.892575 160.608487 
L 277.130832 165.087154 
L 278.369089 170.390792 
L 279.607347 172.703645 
L 280.845604 169.404974 
L 283.322118 154.125696 
L 284.560376 152.287042 
L 285.798633 157.431594 
L 287.03689 167.381938 
L 288.275147 178.59781 
L 289.513405 187.944918 
L 290.751662 193.766559 
L 291.989919 195.969854 
L 293.228177 195.214919 
L 294.466434 192.345196 
L 295.704691 188.564263 
L 296.942948 185.513127 
L 298.181206 184.559809 
L 299.419463 186.007586 
L 301.895977 192.038654 
L 303.134235 193.961033 
L 304.372492 194.196552 
L 305.610749 192.606042 
L 306.849006 189.999445 
L 308.087264 188.296711 
L 309.325521 188.711719 
L 310.563778 190.634094 
L 311.802036 193.65688 
L 313.040293 199.309638 
L 314.27855 209.298274 
L 317.993322 250.413473 
L 319.231579 257.005852 
L 320.469836 257.082714 
L 321.708094 252.285849 
L 324.184608 238.865279 
L 326.661123 227.373095 
L 327.89938 219.458267 
L 330.375895 197.930607 
L 331.614152 190.960888 
L 332.852409 192.703595 
L 334.090666 204.907571 
L 336.567181 245.892576 
L 337.805438 262.318663 
L 339.043695 272.48033 
L 343.996725 299.601474 
L 345.234982 304.138189 
L 346.473239 304.719386 
L 347.711496 300.72169 
L 350.188011 286.394608 
L 351.426268 284.476744 
L 352.664525 289.624153 
L 353.902783 299.934938 
L 358.855812 350.042677 
L 360.094069 360.16603 
L 361.332326 366.730842 
L 362.570584 369.533818 
L 363.808841 370.030146 
L 365.047098 370.255717 
L 366.285355 371.042974 
L 367.523613 371.613181 
L 368.76187 371.146634 
L 370.000127 370.07686 
L 371.238384 369.663137 
L 372.476642 371.341879 
L 373.714899 376.276296 
L 374.953156 384.210973 
L 376.191413 393.227985 
L 377.429671 401.290999 
L 378.667928 407.034274 
L 379.906185 409.544721 
L 381.144443 408.929059 
L 382.3827 406.125327 
L 383.620957 401.701141 
L 384.859214 396.32754 
L 386.097472 391.852193 
L 387.335729 390.299511 
L 388.573986 391.978399 
L 391.050501 398.445601 
L 392.288758 400.670627 
L 393.527015 402.510482 
L 394.765272 404.824327 
L 396.00353 408.056197 
L 397.241787 412.37303 
L 399.718302 422.699523 
L 400.956559 426.67842 
L 402.194816 428.549512 
L 403.433073 427.73957 
L 405.909588 421.992593 
L 407.147845 421.553758 
L 408.386102 424.393946 
L 409.62436 429.88066 
L 410.862617 436.347582 
L 412.100874 441.782156 
L 413.339132 444.939678 
L 414.577389 445.407836 
L 415.815646 443.097105 
L 417.053903 438.600135 
L 419.530418 427.950071 
L 420.768675 423.758004 
L 422.006932 420.900519 
L 423.24519 419.236955 
L 424.483447 419.445485 
L 425.721704 422.868993 
L 426.959961 429.39697 
L 428.198219 437.088187 
L 429.436476 443.816054 
L 430.674733 448.347111 
L 431.912991 450.225066 
L 433.151248 449.536157 
L 434.389505 447.121779 
L 436.86602 441.485672 
L 438.104277 439.375396 
L 439.342534 438.522014 
L 440.580791 440.021533 
L 441.819049 444.715519 
L 443.057306 451.601126 
L 444.295563 457.678968 
L 445.53382 460.081451 
L 446.772078 458.145128 
L 448.010335 453.746421 
L 449.248592 449.896223 
L 450.48685 448.900908 
L 451.725107 451.413126 
L 452.963364 456.706503 
L 455.439879 470.675266 
L 456.678136 476.345794 
L 457.916393 478.902132 
L 459.15465 477.327583 
L 461.631165 467.957477 
L 462.869422 467.235612 
L 464.107679 471.822609 
L 466.584194 489.343755 
L 467.822451 495.701848 
L 469.060709 496.374262 
L 470.298966 490.75429 
L 471.537223 481.854689 
L 472.77548 474.740793 
L 474.013738 472.811858 
L 475.251995 475.861051 
L 477.728509 487.246416 
L 478.966767 491.560815 
L 482.681538 500.03609 
L 483.919796 502.204802 
L 485.158053 502.255099 
L 486.39631 499.968701 
L 488.872825 493.196587 
L 490.111082 491.410666 
L 491.349339 491.134628 
L 492.587597 492.196424 
L 493.825854 494.80121 
L 495.064111 499.137803 
L 496.302368 505.124057 
L 498.778883 518.978571 
L 500.01714 523.992161 
L 501.255397 526.233425 
L 502.493655 525.727135 
L 503.731912 523.245723 
L 504.970169 519.316421 
L 506.208427 513.992509 
L 508.684941 501.397698 
L 509.923198 496.199584 
L 511.161456 493.352643 
L 512.399713 494.013746 
L 513.63797 498.259487 
L 516.114485 511.819216 
L 517.352742 516.936723 
L 518.590999 518.496478 
L 519.829257 516.597236 
L 521.067514 513.227257 
L 522.305771 510.666854 
L 523.544028 510.200273 
L 524.782286 511.9468 
L 529.735315 524.315125 
L 530.973572 526.826916 
L 532.211829 528.646294 
L 534.688344 531.840549 
L 535.926601 532.987886 
L 537.164858 532.393267 
L 538.403116 529.527344 
L 542.117887 516.543749 
L 544.594402 509.697624 
L 545.832659 507.500858 
L 547.070916 507.546703 
L 548.309174 509.928401 
L 549.547431 513.318843 
L 550.785688 516.299704 
L 552.023945 518.222916 
L 553.262203 518.9279 
L 554.50046 518.557845 
L 555.738717 517.322706 
L 556.976975 515.222351 
L 558.215232 512.447534 
L 559.453489 509.968375 
L 560.691746 509.357502 
L 561.930004 511.437291 
L 563.168261 514.801066 
L 564.406518 516.73461 
L 565.644775 515.770015 
L 566.883033 512.025401 
L 568.12129 506.061185 
L 569.359547 499.114223 
L 570.597804 493.228756 
L 571.836062 490.08942 
L 573.074319 490.408171 
L 574.312576 493.822939 
L 575.550834 498.54441 
L 576.789091 502.142735 
L 578.027348 503.418196 
L 579.265605 502.968903 
L 580.503863 501.560218 
L 581.74212 499.100352 
L 582.980377 495.932344 
L 584.218634 493.382002 
L 585.456892 492.663396 
L 586.695149 494.677636 
L 587.933406 500.000838 
L 590.409921 515.669725 
L 591.648178 521.772766 
L 592.886435 525.840887 
L 594.124693 528.361129 
L 595.36295 529.525231 
L 596.601207 529.391443 
L 597.839464 528.489152 
L 599.077722 527.912895 
L 600.315979 528.454716 
L 602.792493 531.363536 
L 604.030751 532.196708 
L 605.269008 532.396851 
L 606.507265 531.862015 
L 608.98378 528.822997 
L 610.222037 529.450972 
L 611.460294 533.234229 
L 613.936809 545.338515 
L 615.175066 549.947607 
L 616.413323 552.300051 
L 617.651581 552.988208 
L 618.889838 553.39303 
L 620.128095 553.964217 
L 621.366352 553.540725 
L 622.60461 550.737157 
L 623.842867 545.381358 
L 627.557639 524.887724 
L 628.795896 520.665883 
L 630.034153 518.616804 
L 631.272411 518.477636 
L 632.510668 519.729148 
L 633.748925 521.157399 
L 634.987182 521.478322 
L 636.22544 520.191149 
L 637.463697 517.243206 
L 638.701954 512.625043 
L 641.178469 500.900733 
L 642.416726 496.772237 
L 643.654983 496.07674 
L 644.893241 498.83717 
L 646.131498 502.738925 
L 647.369755 504.50894 
L 648.608012 502.120755 
L 649.84627 495.831497 
L 652.322784 480.07446 
L 653.561041 475.859108 
L 654.799299 476.00835 
L 656.037556 479.643343 
L 657.275813 485.205978 
L 658.51407 491.303456 
L 659.752328 496.36949 
L 660.990585 498.940178 
L 662.228842 498.307016 
L 663.4671 494.696076 
L 664.705357 489.432897 
L 665.943614 484.836074 
L 667.181871 483.201023 
L 668.420129 485.197316 
L 669.658386 489.178892 
L 670.896643 492.756023 
L 672.1349 495.044734 
L 673.373158 496.520893 
L 674.611415 497.283995 
L 675.849672 496.811585 
L 677.087929 495.273862 
L 678.326187 494.435586 
L 679.564444 496.152062 
L 680.802701 499.623054 
L 682.040959 502.061255 
L 683.279216 502.109903 
L 684.517473 500.77949 
L 685.75573 499.648084 
L 686.993988 499.118272 
L 688.232245 497.888751 
L 689.470502 494.150937 
L 690.708759 487.652087 
L 691.947017 480.366265 
L 693.185274 474.977935 
L 694.423531 472.827185 
L 695.661789 473.654435 
L 696.900046 476.845399 
L 698.138303 481.987714 
L 699.37656 488.698185 
L 701.853075 504.075185 
L 703.091332 510.358411 
L 704.329589 514.187707 
L 705.567847 514.754316 
L 706.806104 512.136516 
L 708.044361 508.331884 
L 709.282618 506.066738 
L 710.520876 506.278468 
L 711.759133 507.756756 
L 712.99739 508.542137 
L 714.235648 507.33924 
L 716.712162 502.162132 
L 717.950419 500.987027 
L 719.188677 500.954863 
L 720.426934 502.444173 
L 721.665191 506.849833 
L 724.141706 521.61608 
L 725.379963 525.254603 
L 726.61822 523.889218 
L 729.094735 514.450109 
L 730.332992 510.804965 
L 735.286021 501.46445 
L 737.762536 498.518445 
L 739.000793 496.224067 
L 740.23905 493.430609 
L 741.477307 492.206329 
L 742.715565 494.355309 
L 743.953822 499.554546 
L 747.668594 519.808014 
L 748.906851 524.550602 
L 750.145108 526.810825 
L 751.383366 527.099238 
L 752.621623 526.175041 
L 753.85988 524.808092 
L 755.098137 523.928959 
L 756.336395 524.070516 
L 757.574652 524.988621 
L 758.812909 526.091071 
L 760.051166 527.003263 
L 761.289424 527.77508 
L 762.527681 528.821069 
L 763.765938 530.694517 
L 765.004195 533.58876 
L 766.242453 536.832784 
L 767.48071 539.184856 
L 768.718967 539.690595 
L 769.957225 538.086446 
L 771.195482 534.882478 
L 772.433739 531.302761 
L 773.671996 528.695997 
L 774.910254 527.903328 
L 776.148511 529.130577 
L 778.625025 534.443355 
L 779.863283 536.204079 
L 781.10154 537.427631 
L 782.339797 539.029474 
L 784.816312 543.437168 
L 786.054569 543.910515 
L 788.531084 541.766467 
L 789.769341 542.392567 
L 791.007598 544.437593 
L 792.245855 546.797859 
L 793.484113 548.74088 
L 794.72237 549.822866 
L 795.960627 549.681323 
L 797.198884 548.853025 
L 798.437142 548.753506 
L 799.675399 550.306641 
L 800.913656 553.438548 
L 802.151914 557.410681 
L 803.390171 560.659306 
L 804.628428 561.202423 
L 805.866685 558.161535 
L 808.3432 546.775608 
L 809.581457 542.543061 
L 810.819714 540.525696 
L 812.057972 540.526144 
L 813.296229 542.487514 
L 815.772743 550.148893 
L 817.011001 552.354376 
L 818.249258 551.836268 
L 819.487515 549.228132 
L 820.725773 546.209698 
L 821.96403 544.55062 
L 823.202287 544.882139 
L 824.440544 546.58898 
L 826.917059 550.866456 
L 828.155316 552.100597 
L 829.393573 552.01341 
L 830.631831 550.820229 
L 831.870088 549.978665 
L 833.108345 551.03238 
L 834.346602 553.58918 
L 835.58486 555.552859 
L 836.823117 555.564828 
L 838.061374 554.42293 
L 839.299632 553.875542 
L 840.537889 554.605849 
L 843.014403 557.211625 
L 844.252661 558.317801 
L 845.490918 559.252737 
L 846.729175 559.482016 
L 847.967432 558.476042 
L 849.20569 556.399994 
L 850.443947 553.725044 
L 852.920461 547.432327 
L 854.158719 544.857799 
L 855.396976 543.868387 
L 856.635233 544.610652 
L 857.873491 545.82612 
L 859.111748 545.873703 
L 860.350005 544.403832 
L 861.588262 542.628172 
L 862.82652 542.021623 
L 864.064777 543.207749 
L 865.303034 546.219376 
L 866.541291 550.501863 
L 867.779549 554.212866 
L 869.017806 555.024459 
L 870.256063 552.108052 
L 872.732578 541.66163 
L 873.970835 537.957602 
L 875.209092 536.290745 
L 876.44735 536.710513 
L 877.685607 538.997035 
L 878.923864 542.134068 
L 880.162121 544.150291 
L 881.400379 543.737451 
L 882.638636 541.434621 
L 885.11515 535.550813 
L 886.353408 533.57755 
L 887.591665 533.878462 
L 888.829922 536.871357 
L 890.06818 541.090394 
L 891.306437 544.551685 
L 892.544694 546.571024 
L 895.021209 549.265555 
L 896.259466 549.777717 
L 897.497723 548.143866 
L 898.73598 544.338319 
L 901.212495 535.101651 
L 902.450752 531.93871 
L 903.689009 530.355026 
L 904.927267 530.556376 
L 906.165524 532.758354 
L 907.403781 536.137505 
L 908.642039 538.692196 
L 909.880296 539.363844 
L 911.118553 539.300805 
L 912.35681 540.303571 
L 913.595068 542.931668 
L 914.833325 546.239822 
L 916.071582 548.566053 
L 917.309839 548.712704 
L 918.548097 546.525788 
L 919.786354 542.223138 
L 922.262868 530.485373 
L 923.501126 526.783946 
L 924.739383 526.416603 
L 925.97764 528.942309 
L 927.215898 532.599077 
L 928.454155 535.740816 
L 929.692412 537.835064 
L 930.930669 538.77574 
L 932.168927 538.469852 
L 933.407184 537.128245 
L 934.645441 534.764951 
L 935.883698 531.042526 
L 937.121956 525.914319 
L 939.59847 513.598274 
L 940.836727 509.768724 
L 942.074985 509.844026 
L 944.551499 515.949791 
L 945.789757 517.817416 
L 947.028014 518.16843 
L 948.266271 517.318014 
L 949.504528 515.449504 
L 950.742786 512.490176 
L 954.457557 501.261482 
L 955.695815 499.098804 
L 956.934072 498.037921 
L 959.410586 496.566576 
L 961.887101 495.111856 
L 963.125358 494.563578 
L 964.363616 494.954095 
L 965.601873 496.771994 
L 966.84013 499.011237 
L 968.078387 499.76321 
L 969.316645 498.070697 
L 970.554902 495.304344 
L 971.793159 493.829061 
L 973.031416 494.315279 
L 974.269674 495.545098 
L 975.507931 496.104692 
L 976.746188 495.151342 
L 977.984446 492.286962 
L 985.413989 465.66586 
L 987.890504 456.195392 
L 989.128761 452.986964 
L 990.367018 451.310324 
L 991.605275 450.907347 
L 992.843533 451.957463 
L 994.08179 454.578985 
L 995.320047 457.634529 
L 996.558305 459.225761 
L 997.796562 458.205693 
L 999.034819 454.906338 
L 1000.273076 450.39859 
L 1002.749591 440.230852 
L 1003.987848 435.89649 
L 1005.226105 433.174564 
L 1006.464363 432.013866 
L 1007.70262 431.983933 
L 1008.940877 433.241684 
L 1010.179134 436.305236 
L 1012.655649 445.651411 
L 1013.893906 449.102979 
L 1015.132164 450.499509 
L 1016.370421 449.894966 
L 1017.608678 448.416005 
L 1018.846935 447.751901 
L 1021.32345 449.22994 
L 1022.561707 448.471316 
L 1023.799964 446.270502 
L 1025.038222 444.705136 
L 1026.276479 445.501517 
L 1027.514736 447.653661 
L 1028.752993 448.426232 
L 1029.991251 446.268525 
L 1031.229508 441.32563 
L 1032.467765 434.08418 
L 1034.94428 415.382458 
L 1036.182537 406.325801 
L 1037.420794 399.833257 
L 1038.659052 397.723662 
L 1039.897309 400.585459 
L 1041.135566 407.14662 
L 1042.373823 414.878896 
L 1043.612081 421.21391 
L 1044.850338 424.911251 
L 1046.088595 426.716246 
L 1047.326852 427.828013 
L 1048.56511 427.892336 
L 1049.803367 425.532541 
L 1051.041624 420.329698 
L 1052.279882 413.245343 
L 1055.994653 390.137293 
L 1057.232911 385.894009 
L 1058.471168 385.975633 
L 1059.709425 390.400579 
L 1062.18594 405.462047 
L 1063.424197 410.620741 
L 1064.662454 412.210687 
L 1065.900711 411.31275 
L 1068.377226 407.6236 
L 1069.615483 406.216297 
L 1072.091998 404.130197 
L 1073.330255 403.559065 
L 1074.568512 404.973544 
L 1075.80677 409.703008 
L 1079.521541 432.279906 
L 1080.759799 438.045179 
L 1081.998056 443.021527 
L 1083.236313 447.054897 
L 1084.474571 449.185114 
L 1085.712828 448.826234 
L 1086.951085 446.404967 
L 1088.189342 442.502433 
L 1090.665857 432.126421 
L 1094.380629 416.068121 
L 1096.857143 407.462013 
L 1099.333658 397.608589 
L 1100.571915 395.182472 
L 1101.810172 396.60535 
L 1103.04843 401.658131 
L 1105.524944 415.64756 
L 1106.763201 420.594806 
L 1108.001459 422.615063 
L 1109.239716 421.459925 
L 1110.477973 417.25409 
L 1114.192745 398.327469 
L 1115.431002 395.770393 
L 1116.669259 396.310944 
L 1117.907517 398.61771 
L 1119.145774 401.497259 
L 1120.384031 405.122244 
L 1121.622289 410.229314 
L 1124.098803 422.280567 
L 1126.575318 431.65692 
L 1127.813575 436.083431 
L 1129.051832 439.877876 
L 1130.290089 442.299357 
L 1131.528347 443.135064 
L 1132.766604 442.653826 
L 1134.004861 441.080573 
L 1136.481376 436.289798 
L 1137.719633 435.519548 
L 1138.95789 436.955826 
L 1140.196148 440.23524 
L 1141.434405 445.033024 
L 1142.672662 451.268304 
L 1143.910919 458.27228 
L 1145.149177 464.394932 
L 1146.387434 467.818961 
L 1147.625691 467.864565 
L 1148.863948 465.233522 
L 1151.340463 457.176427 
L 1152.57872 454.250836 
L 1153.816977 453.640722 
L 1155.055235 455.915115 
L 1156.293492 460.026793 
L 1157.531749 463.430339 
L 1158.770007 463.642887 
L 1160.008264 460.04124 
L 1161.246521 453.669151 
L 1162.484778 445.565638 
L 1164.961293 428.26064 
L 1166.19955 422.523725 
L 1167.437807 420.396386 
L 1168.676065 421.520455 
L 1171.152579 427.597272 
L 1172.390837 429.327466 
L 1173.629094 429.279696 
L 1174.867351 428.450799 
L 1176.105608 428.51065 
L 1177.343866 430.531309 
L 1178.582123 434.807883 
L 1182.296895 452.746203 
L 1183.535152 455.0017 
L 1184.773409 454.181961 
L 1186.011666 450.7016 
L 1187.249924 445.213991 
L 1188.488181 438.919418 
L 1189.726438 433.471036 
L 1190.964696 430.140431 
L 1192.202953 429.191568 
L 1194.679467 430.30654 
L 1195.917725 430.569292 
L 1197.155982 431.389676 
L 1198.394239 434.139823 
L 1199.632496 439.749138 
L 1202.109011 455.209385 
L 1203.347268 460.136845 
L 1204.585525 460.749034 
L 1205.823783 456.996829 
L 1208.300297 444.805826 
L 1209.538555 441.890641 
L 1210.776812 442.683119 
L 1212.015069 446.231955 
L 1213.253326 451.273434 
L 1218.206355 474.119658 
L 1219.444613 478.083632 
L 1220.68287 480.270671 
L 1221.921127 480.475623 
L 1223.159384 478.877397 
L 1224.397642 475.742784 
L 1225.635899 471.283231 
L 1226.874156 466.116243 
L 1228.112414 461.559334 
L 1229.350671 458.771266 
L 1230.588928 457.710273 
L 1231.827185 457.424736 
L 1233.065443 456.904082 
L 1234.3037 455.240169 
L 1235.541957 451.936044 
L 1236.780214 447.962423 
L 1238.018472 445.294827 
L 1239.256729 444.603219 
L 1240.494986 444.763968 
L 1242.971501 444.779757 
L 1244.209758 445.049928 
L 1245.448015 445.064749 
L 1246.686273 444.151407 
L 1247.92453 442.041421 
L 1250.401044 435.810124 
L 1251.639302 433.721806 
L 1252.877559 431.921117 
L 1254.115816 428.75842 
L 1255.354073 424.280313 
L 1256.592331 420.387998 
L 1257.830588 418.523887 
L 1259.068845 418.497784 
L 1260.307103 419.149179 
L 1261.54536 419.323044 
L 1262.783617 418.959133 
L 1264.021874 419.576031 
L 1265.260132 422.752213 
L 1266.498389 427.766197 
L 1267.736646 431.868014 
L 1268.974903 433.101076 
L 1270.213161 431.55188 
L 1272.689675 425.237031 
L 1273.927932 422.992146 
L 1276.404447 420.088673 
L 1277.642704 418.979562 
L 1278.880962 419.105624 
L 1280.119219 420.425012 
L 1281.357476 421.52096 
L 1282.595733 420.97019 
L 1283.833991 418.405672 
L 1286.310505 410.92288 
L 1287.548762 409.370674 
L 1288.78702 411.111385 
L 1290.025277 415.141778 
L 1291.263534 418.542379 
L 1292.501791 419.515851 
L 1293.740049 418.782008 
L 1294.978306 417.898557 
L 1296.216563 417.964452 
L 1297.454821 419.462236 
L 1299.931335 424.804115 
L 1301.169592 426.280523 
L 1302.40785 425.267481 
L 1303.646107 420.819495 
L 1304.884364 413.004493 
L 1307.360879 394.665275 
L 1308.599136 388.4313 
L 1309.837393 386.131535 
L 1311.07565 388.573767 
L 1312.313908 395.061125 
L 1313.552165 403.111603 
L 1314.790422 409.751536 
L 1316.02868 413.11026 
L 1317.266937 413.125712 
L 1319.743451 409.371187 
L 1320.981709 408.187273 
L 1322.219966 407.271193 
L 1323.458223 406.122251 
L 1324.69648 405.214692 
L 1325.934738 405.758464 
L 1328.411252 410.521199 
L 1329.649509 410.976407 
L 1330.887767 408.984986 
L 1332.126024 406.374983 
L 1333.364281 405.772177 
L 1334.602539 408.479624 
L 1337.079053 418.593138 
L 1338.31731 420.688742 
L 1339.555568 418.223887 
L 1340.793825 411.532996 
L 1344.508597 383.639266 
L 1345.746854 379.287606 
L 1346.985111 378.394672 
L 1348.223368 379.833896 
L 1349.461626 382.807553 
L 1351.93814 390.614023 
L 1353.176398 395.324576 
L 1354.414655 401.114543 
L 1356.891169 414.143071 
L 1358.129427 419.88275 
L 1360.605941 429.603713 
L 1363.082456 437.714499 
L 1364.320713 441.10353 
L 1365.55897 443.500952 
L 1366.797228 444.567763 
L 1368.035485 444.735251 
L 1369.273742 445.068089 
L 1370.511999 446.217052 
L 1371.750257 447.548332 
L 1372.988514 447.703674 
L 1374.226771 445.875862 
L 1375.465028 442.149697 
L 1376.703286 436.862972 
L 1377.941543 430.801923 
L 1379.1798 425.818521 
L 1380.418057 423.464049 
L 1381.656315 423.28148 
L 1382.894572 423.658729 
L 1384.132829 423.544291 
L 1385.371087 422.7393 
L 1386.609344 421.602478 
L 1387.847601 420.878058 
L 1389.085858 421.093841 
L 1391.562373 423.011021 
L 1392.80063 424.019946 
L 1394.038887 425.460393 
L 1395.277145 427.985685 
L 1397.753659 435.371684 
L 1398.991916 436.907251 
L 1400.230174 435.022841 
L 1401.468431 430.144895 
L 1402.706688 424.5465 
L 1403.944946 421.12496 
L 1405.183203 421.228104 
L 1407.659717 425.944102 
L 1408.897975 426.902127 
L 1410.136232 426.62221 
L 1411.374489 425.213283 
L 1412.612746 422.670945 
L 1413.851004 419.646501 
L 1415.089261 417.062806 
L 1416.327518 415.254687 
L 1418.804033 412.762419 
L 1420.04229 411.156059 
L 1421.280547 409.133939 
L 1422.518805 408.574592 
L 1423.757062 411.403038 
L 1424.995319 416.231651 
L 1426.233576 419.602125 
L 1427.471834 419.715256 
L 1428.710091 417.678078 
L 1429.948348 416.620159 
L 1431.186605 419.741031 
L 1432.424863 427.76007 
L 1433.66312 437.799324 
L 1434.901377 445.517139 
L 1436.139634 448.519136 
L 1437.377892 447.266092 
L 1438.616149 443.668089 
L 1439.854406 439.583567 
L 1441.092664 436.11357 
L 1442.330921 433.777548 
L 1443.569178 432.538547 
L 1444.807435 431.842902 
L 1446.045693 431.491517 
L 1447.28395 431.546968 
L 1448.522207 431.398253 
L 1449.760464 430.663723 
L 1450.998722 430.25946 
L 1452.236979 431.121314 
L 1453.475236 432.856247 
L 1454.713494 434.174539 
L 1455.951751 434.09302 
L 1457.190008 432.641025 
L 1458.428265 430.420785 
L 1460.90478 425.624192 
L 1462.143037 423.945065 
L 1464.619552 422.11692 
L 1465.857809 419.531468 
L 1468.334323 410.074803 
L 1469.572581 407.121455 
L 1470.810838 407.144573 
L 1472.049095 410.413187 
L 1473.287353 415.85443 
L 1474.52561 420.331372 
L 1475.763867 420.804705 
L 1477.002124 416.916596 
L 1480.716896 397.581642 
L 1481.955153 394.1433 
L 1483.193411 393.962504 
L 1484.431668 397.097304 
L 1485.669925 402.415985 
L 1488.14644 414.49371 
L 1489.384697 418.413916 
L 1490.622954 418.674842 
L 1491.861212 414.486888 
L 1493.099469 406.464146 
L 1494.337726 397.014598 
L 1495.575983 389.37217 
L 1496.814241 385.893461 
L 1498.052498 387.320389 
L 1499.290755 392.752116 
L 1500.529012 400.527484 
L 1503.005527 417.759796 
L 1504.243784 424.082246 
L 1505.482041 426.84562 
L 1506.720299 425.92156 
L 1510.435071 416.363115 
L 1511.673328 413.807733 
L 1512.911585 411.970152 
L 1514.149842 411.745326 
L 1515.3881 413.833335 
L 1516.626357 418.15514 
L 1517.864614 423.342167 
L 1519.102871 427.032835 
L 1520.341129 427.29298 
L 1521.579386 423.972586 
L 1522.817643 418.966578 
L 1524.0559 414.644844 
L 1526.532415 408.628833 
L 1527.770672 404.575565 
L 1531.485444 389.669153 
L 1532.723701 387.400461 
L 1533.961959 389.107428 
L 1535.200216 394.75058 
L 1537.67673 410.490835 
L 1538.914988 416.211915 
L 1540.153245 417.914176 
L 1541.391502 415.574171 
L 1545.106274 401.875921 
L 1546.344531 399.25228 
L 1547.582789 397.717381 
L 1548.821046 396.750837 
L 1550.059303 396.525046 
L 1551.29756 397.524219 
L 1552.535818 399.993611 
L 1553.774075 403.745044 
L 1556.250589 412.187879 
L 1557.488847 415.104376 
L 1558.727104 415.828344 
L 1559.965361 413.930491 
L 1562.441876 407.110381 
L 1563.680133 404.886455 
L 1564.91839 403.246723 
L 1566.156648 401.166903 
L 1567.394905 398.136 
L 1568.633162 394.744273 
L 1569.871419 392.559204 
L 1571.109677 393.041947 
L 1573.586191 399.099625 
L 1574.824448 399.901921 
L 1576.062706 397.649874 
L 1577.300963 393.90275 
L 1578.53922 391.445612 
L 1579.777478 392.249735 
L 1581.015735 395.765505 
L 1582.253992 399.739905 
L 1583.492249 402.725586 
L 1585.968764 407.216861 
L 1588.445278 412.620555 
L 1589.683536 413.399156 
L 1590.921793 411.416726 
L 1592.16005 407.303883 
L 1593.398307 402.412002 
L 1594.636565 398.350699 
L 1595.874822 397.112912 
L 1597.113079 399.502411 
L 1599.589594 408.691108 
L 1600.827851 411.874788 
L 1602.066108 413.067686 
L 1603.304366 412.422574 
L 1604.542623 410.267849 
L 1605.78088 406.742908 
L 1607.019137 401.93501 
L 1608.257395 395.939932 
L 1609.495652 389.237248 
L 1610.733909 383.205252 
L 1611.972166 379.643527 
L 1613.210424 379.403974 
L 1614.448681 381.96045 
L 1615.686938 386.343519 
L 1619.40171 402.724853 
L 1620.639967 406.380582 
L 1621.878225 406.105524 
L 1624.354739 397.431933 
L 1625.592996 396.701619 
L 1626.831254 400.283522 
L 1628.069511 405.231154 
L 1629.307768 408.44784 
L 1630.546026 408.7684 
L 1631.784283 406.692685 
L 1633.02254 403.556214 
L 1634.260797 400.888399 
L 1635.499055 399.405174 
L 1636.737312 398.515195 
L 1637.975569 397.237819 
L 1639.213826 395.035865 
L 1640.452084 391.964222 
L 1641.690341 388.476481 
L 1641.690341 388.476481 
" style="fill:none;stroke:#008000;stroke-linecap:square;stroke-width:1.5;"/>
   </g>
   <g id="patch_3">
    <path d="M 43.78125 586.86358 
L 43.78125 22.318125 
" style="fill:none;stroke:#000000;stroke-linecap:square;stroke-linejoin:miter;stroke-width:0.8;"/>
   </g>
   <g id="patch_4">
    <path d="M 1717.78125 586.86358 
L 1717.78125 22.318125 
" style="fill:none;stroke:#000000;stroke-linecap:square;stroke-linejoin:miter;stroke-width:0.8;"/>
   </g>
   <g id="patch_5">
    <path d="M 43.78125 586.86358 
L 1717.78125 586.86358 
" style="fill:none;stroke:#000000;stroke-linecap:square;stroke-linejoin:miter;stroke-width:0.8;"/>
   </g>
   <g id="patch_6">
    <path d="M 43.78125 22.318125 
L 1717.78125 22.318125 
" style="fill:none;stroke:#000000;stroke-linecap:square;stroke-linejoin:miter;stroke-width:0.8;"/>
   </g>
   <g id="text_16">
    <!-- before binarisation -->
    <g transform="translate(824.1825 16.318125)scale(0.12 -0.12)">
     <defs>
      <path d="M 3116 1747 
Q 3116 2381 2855 2742 
Q 2594 3103 2138 3103 
Q 1681 3103 1420 2742 
Q 1159 2381 1159 1747 
Q 1159 1113 1420 752 
Q 1681 391 2138 391 
Q 2594 391 2855 752 
Q 3116 1113 3116 1747 
z
M 1159 2969 
Q 1341 3281 1617 3432 
Q 1894 3584 2278 3584 
Q 2916 3584 3314 3078 
Q 3713 2572 3713 1747 
Q 3713 922 3314 415 
Q 2916 -91 2278 -91 
Q 1894 -91 1617 61 
Q 1341 213 1159 525 
L 1159 0 
L 581 0 
L 581 4863 
L 1159 4863 
L 1159 2969 
z
" id="DejaVuSans-62" transform="scale(0.015625)"/>
      <path d="M 1959 3097 
Q 1497 3097 1228 2736 
Q 959 2375 959 1747 
Q 959 1119 1226 758 
Q 1494 397 1959 397 
Q 2419 397 2687 759 
Q 2956 1122 2956 1747 
Q 2956 2369 2687 2733 
Q 2419 3097 1959 3097 
z
M 1959 3584 
Q 2709 3584 3137 3096 
Q 3566 2609 3566 1747 
Q 3566 888 3137 398 
Q 2709 -91 1959 -91 
Q 1206 -91 779 398 
Q 353 888 353 1747 
Q 353 2609 779 3096 
Q 1206 3584 1959 3584 
z
" id="DejaVuSans-6f" transform="scale(0.015625)"/>
      <path id="DejaVuSans-20" transform="scale(0.015625)"/>
      <path d="M 603 3500 
L 1178 3500 
L 1178 0 
L 603 0 
L 603 3500 
z
M 603 4863 
L 1178 4863 
L 1178 4134 
L 603 4134 
L 603 4863 
z
" id="DejaVuSans-69" transform="scale(0.015625)"/>
      <path d="M 3513 2113 
L 3513 0 
L 2938 0 
L 2938 2094 
Q 2938 2591 2744 2837 
Q 2550 3084 2163 3084 
Q 1697 3084 1428 2787 
Q 1159 2491 1159 1978 
L 1159 0 
L 581 0 
L 581 3500 
L 1159 3500 
L 1159 2956 
Q 1366 3272 1645 3428 
Q 1925 3584 2291 3584 
Q 2894 3584 3203 3211 
Q 3513 2838 3513 2113 
z
" id="DejaVuSans-6e" transform="scale(0.015625)"/>
      <path d="M 2834 3397 
L 2834 2853 
Q 2591 2978 2328 3040 
Q 2066 3103 1784 3103 
Q 1356 3103 1142 2972 
Q 928 2841 928 2578 
Q 928 2378 1081 2264 
Q 1234 2150 1697 2047 
L 1894 2003 
Q 2506 1872 2764 1633 
Q 3022 1394 3022 966 
Q 3022 478 2636 193 
Q 2250 -91 1575 -91 
Q 1294 -91 989 -36 
Q 684 19 347 128 
L 347 722 
Q 666 556 975 473 
Q 1284 391 1588 391 
Q 1994 391 2212 530 
Q 2431 669 2431 922 
Q 2431 1156 2273 1281 
Q 2116 1406 1581 1522 
L 1381 1569 
Q 847 1681 609 1914 
Q 372 2147 372 2553 
Q 372 3047 722 3315 
Q 1072 3584 1716 3584 
Q 2034 3584 2315 3537 
Q 2597 3491 2834 3397 
z
" id="DejaVuSans-73" transform="scale(0.015625)"/>
      <path d="M 1172 4494 
L 1172 3500 
L 2356 3500 
L 2356 3053 
L 1172 3053 
L 1172 1153 
Q 1172 725 1289 603 
Q 1406 481 1766 481 
L 2356 481 
L 2356 0 
L 1766 0 
Q 1100 0 847 248 
Q 594 497 594 1153 
L 594 3053 
L 172 3053 
L 172 3500 
L 594 3500 
L 594 4494 
L 1172 4494 
z
" id="DejaVuSans-74" transform="scale(0.015625)"/>
     </defs>
     <use xlink:href="#DejaVuSans-62"/>
     <use x="63.476562" xlink:href="#DejaVuSans-65"/>
     <use x="125" xlink:href="#DejaVuSans-66"/>
     <use x="160.205078" xlink:href="#DejaVuSans-6f"/>
     <use x="221.386719" xlink:href="#DejaVuSans-72"/>
     <use x="260.25" xlink:href="#DejaVuSans-65"/>
     <use x="321.773438" xlink:href="#DejaVuSans-20"/>
     <use x="353.560547" xlink:href="#DejaVuSans-62"/>
     <use x="417.037109" xlink:href="#DejaVuSans-69"/>
     <use x="444.820312" xlink:href="#DejaVuSans-6e"/>
     <use x="508.199219" xlink:href="#DejaVuSans-61"/>
     <use x="569.478516" xlink:href="#DejaVuSans-72"/>
     <use x="610.591797" xlink:href="#DejaVuSans-69"/>
     <use x="638.375" xlink:href="#DejaVuSans-73"/>
     <use x="690.474609" xlink:href="#DejaVuSans-61"/>
     <use x="751.753906" xlink:href="#DejaVuSans-74"/>
     <use x="790.962891" xlink:href="#DejaVuSans-69"/>
     <use x="818.746094" xlink:href="#DejaVuSans-6f"/>
     <use x="879.927734" xlink:href="#DejaVuSans-6e"/>
    </g>
   </g>
  </g>
  <g id="axes_2">
   <g id="patch_7">
    <path d="M 43.78125 1264.318125 
L 1717.78125 1264.318125 
L 1717.78125 699.77267 
L 43.78125 699.77267 
z
" style="fill:#ffffff;"/>
   </g>
   <g id="matplotlib.axis_3">
    <g id="xtick_8">
     <g id="line2d_15">
      <g>
       <use style="stroke:#000000;stroke-width:0.8;" x="119.872159" xlink:href="#m8c22265b7f" y="1264.318125"/>
      </g>
     </g>
     <g id="text_17">
      <!-- 0 -->
      <g transform="translate(116.690909 1278.916563)scale(0.1 -0.1)">
       <use xlink:href="#DejaVuSans-30"/>
      </g>
     </g>
    </g>
    <g id="xtick_9">
     <g id="line2d_16">
      <g>
       <use style="stroke:#000000;stroke-width:0.8;" x="367.523613" xlink:href="#m8c22265b7f" y="1264.318125"/>
      </g>
     </g>
     <g id="text_18">
      <!-- 200 -->
      <g transform="translate(357.979863 1278.916563)scale(0.1 -0.1)">
       <use xlink:href="#DejaVuSans-32"/>
       <use x="63.623047" xlink:href="#DejaVuSans-30"/>
       <use x="127.246094" xlink:href="#DejaVuSans-30"/>
      </g>
     </g>
    </g>
    <g id="xtick_10">
     <g id="line2d_17">
      <g>
       <use style="stroke:#000000;stroke-width:0.8;" x="615.175066" xlink:href="#m8c22265b7f" y="1264.318125"/>
      </g>
     </g>
     <g id="text_19">
      <!-- 400 -->
      <g transform="translate(605.631316 1278.916563)scale(0.1 -0.1)">
       <use xlink:href="#DejaVuSans-34"/>
       <use x="63.623047" xlink:href="#DejaVuSans-30"/>
       <use x="127.246094" xlink:href="#DejaVuSans-30"/>
      </g>
     </g>
    </g>
    <g id="xtick_11">
     <g id="line2d_18">
      <g>
       <use style="stroke:#000000;stroke-width:0.8;" x="862.82652" xlink:href="#m8c22265b7f" y="1264.318125"/>
      </g>
     </g>
     <g id="text_20">
      <!-- 600 -->
      <g transform="translate(853.28277 1278.916563)scale(0.1 -0.1)">
       <use xlink:href="#DejaVuSans-36"/>
       <use x="63.623047" xlink:href="#DejaVuSans-30"/>
       <use x="127.246094" xlink:href="#DejaVuSans-30"/>
      </g>
     </g>
    </g>
    <g id="xtick_12">
     <g id="line2d_19">
      <g>
       <use style="stroke:#000000;stroke-width:0.8;" x="1110.477973" xlink:href="#m8c22265b7f" y="1264.318125"/>
      </g>
     </g>
     <g id="text_21">
      <!-- 800 -->
      <g transform="translate(1100.934223 1278.916563)scale(0.1 -0.1)">
       <use xlink:href="#DejaVuSans-38"/>
       <use x="63.623047" xlink:href="#DejaVuSans-30"/>
       <use x="127.246094" xlink:href="#DejaVuSans-30"/>
      </g>
     </g>
    </g>
    <g id="xtick_13">
     <g id="line2d_20">
      <g>
       <use style="stroke:#000000;stroke-width:0.8;" x="1358.129427" xlink:href="#m8c22265b7f" y="1264.318125"/>
      </g>
     </g>
     <g id="text_22">
      <!-- 1000 -->
      <g transform="translate(1345.404427 1278.916563)scale(0.1 -0.1)">
       <use xlink:href="#DejaVuSans-31"/>
       <use x="63.623047" xlink:href="#DejaVuSans-30"/>
       <use x="127.246094" xlink:href="#DejaVuSans-30"/>
       <use x="190.869141" xlink:href="#DejaVuSans-30"/>
      </g>
     </g>
    </g>
    <g id="xtick_14">
     <g id="line2d_21">
      <g>
       <use style="stroke:#000000;stroke-width:0.8;" x="1605.78088" xlink:href="#m8c22265b7f" y="1264.318125"/>
      </g>
     </g>
     <g id="text_23">
      <!-- 1200 -->
      <g transform="translate(1593.05588 1278.916563)scale(0.1 -0.1)">
       <use xlink:href="#DejaVuSans-31"/>
       <use x="63.623047" xlink:href="#DejaVuSans-32"/>
       <use x="127.246094" xlink:href="#DejaVuSans-30"/>
       <use x="190.869141" xlink:href="#DejaVuSans-30"/>
      </g>
     </g>
    </g>
    <g id="text_24">
     <!-- frame -->
     <g transform="translate(865.954687 1292.594688)scale(0.1 -0.1)">
      <use xlink:href="#DejaVuSans-66"/>
      <use x="35.205078" xlink:href="#DejaVuSans-72"/>
      <use x="76.318359" xlink:href="#DejaVuSans-61"/>
      <use x="137.597656" xlink:href="#DejaVuSans-6d"/>
      <use x="235.009766" xlink:href="#DejaVuSans-65"/>
     </g>
    </g>
   </g>
   <g id="matplotlib.axis_4">
    <g id="ytick_7">
     <g id="line2d_22">
      <g>
       <use style="stroke:#000000;stroke-width:0.8;" x="43.78125" xlink:href="#mb69d2c4ff9" y="1238.656968"/>
      </g>
     </g>
     <g id="text_25">
      <!-- 0.0 -->
      <g transform="translate(20.878125 1242.456187)scale(0.1 -0.1)">
       <use xlink:href="#DejaVuSans-30"/>
       <use x="63.623047" xlink:href="#DejaVuSans-2e"/>
       <use x="95.410156" xlink:href="#DejaVuSans-30"/>
      </g>
     </g>
    </g>
    <g id="ytick_8">
     <g id="line2d_23">
      <g>
       <use style="stroke:#000000;stroke-width:0.8;" x="43.78125" xlink:href="#mb69d2c4ff9" y="1136.01234"/>
      </g>
     </g>
     <g id="text_26">
      <!-- 0.2 -->
      <g transform="translate(20.878125 1139.811559)scale(0.1 -0.1)">
       <use xlink:href="#DejaVuSans-30"/>
       <use x="63.623047" xlink:href="#DejaVuSans-2e"/>
       <use x="95.410156" xlink:href="#DejaVuSans-32"/>
      </g>
     </g>
    </g>
    <g id="ytick_9">
     <g id="line2d_24">
      <g>
       <use style="stroke:#000000;stroke-width:0.8;" x="43.78125" xlink:href="#mb69d2c4ff9" y="1033.367712"/>
      </g>
     </g>
     <g id="text_27">
      <!-- 0.4 -->
      <g transform="translate(20.878125 1037.166931)scale(0.1 -0.1)">
       <use xlink:href="#DejaVuSans-30"/>
       <use x="63.623047" xlink:href="#DejaVuSans-2e"/>
       <use x="95.410156" xlink:href="#DejaVuSans-34"/>
      </g>
     </g>
    </g>
    <g id="ytick_10">
     <g id="line2d_25">
      <g>
       <use style="stroke:#000000;stroke-width:0.8;" x="43.78125" xlink:href="#mb69d2c4ff9" y="930.723084"/>
      </g>
     </g>
     <g id="text_28">
      <!-- 0.6 -->
      <g transform="translate(20.878125 934.522302)scale(0.1 -0.1)">
       <use xlink:href="#DejaVuSans-30"/>
       <use x="63.623047" xlink:href="#DejaVuSans-2e"/>
       <use x="95.410156" xlink:href="#DejaVuSans-36"/>
      </g>
     </g>
    </g>
    <g id="ytick_11">
     <g id="line2d_26">
      <g>
       <use style="stroke:#000000;stroke-width:0.8;" x="43.78125" xlink:href="#mb69d2c4ff9" y="828.078456"/>
      </g>
     </g>
     <g id="text_29">
      <!-- 0.8 -->
      <g transform="translate(20.878125 831.877674)scale(0.1 -0.1)">
       <use xlink:href="#DejaVuSans-30"/>
       <use x="63.623047" xlink:href="#DejaVuSans-2e"/>
       <use x="95.410156" xlink:href="#DejaVuSans-38"/>
      </g>
     </g>
    </g>
    <g id="ytick_12">
     <g id="line2d_27">
      <g>
       <use style="stroke:#000000;stroke-width:0.8;" x="43.78125" xlink:href="#mb69d2c4ff9" y="725.433827"/>
      </g>
     </g>
     <g id="text_30">
      <!-- 1.0 -->
      <g transform="translate(20.878125 729.233046)scale(0.1 -0.1)">
       <use xlink:href="#DejaVuSans-31"/>
       <use x="63.623047" xlink:href="#DejaVuSans-2e"/>
       <use x="95.410156" xlink:href="#DejaVuSans-30"/>
      </g>
     </g>
    </g>
    <g id="text_31">
     <!-- GCaMP -->
     <g transform="translate(14.798437 999.803991)rotate(-90)scale(0.1 -0.1)">
      <use xlink:href="#DejaVuSans-47"/>
      <use x="77.490234" xlink:href="#DejaVuSans-43"/>
      <use x="147.314453" xlink:href="#DejaVuSans-61"/>
      <use x="208.59375" xlink:href="#DejaVuSans-4d"/>
      <use x="294.873047" xlink:href="#DejaVuSans-50"/>
     </g>
    </g>
   </g>
   <g id="line2d_28">
    <path clip-path="url(#p20878e1c15)" d="M 119.872159 725.433827 
L 342.758467 725.433827 
L 343.996725 1238.656968 
L 348.949754 1238.656968 
L 350.188011 725.433827 
L 352.664525 725.433827 
L 353.902783 1238.656968 
L 1641.690341 1238.656968 
L 1641.690341 1238.656968 
" style="fill:none;stroke:#008000;stroke-linecap:square;stroke-width:1.5;"/>
   </g>
   <g id="patch_8">
    <path d="M 43.78125 1264.318125 
L 43.78125 699.77267 
" style="fill:none;stroke:#000000;stroke-linecap:square;stroke-linejoin:miter;stroke-width:0.8;"/>
   </g>
   <g id="patch_9">
    <path d="M 1717.78125 1264.318125 
L 1717.78125 699.77267 
" style="fill:none;stroke:#000000;stroke-linecap:square;stroke-linejoin:miter;stroke-width:0.8;"/>
   </g>
   <g id="patch_10">
    <path d="M 43.78125 1264.318125 
L 1717.78125 1264.318125 
" style="fill:none;stroke:#000000;stroke-linecap:square;stroke-linejoin:miter;stroke-width:0.8;"/>
   </g>
   <g id="patch_11">
    <path d="M 43.78125 699.77267 
L 1717.78125 699.77267 
" style="fill:none;stroke:#000000;stroke-linecap:square;stroke-linejoin:miter;stroke-width:0.8;"/>
   </g>
   <g id="text_32">
    <!-- before binarisation -->
    <g transform="translate(824.1825 693.77267)scale(0.12 -0.12)">
     <use xlink:href="#DejaVuSans-62"/>
     <use x="63.476562" xlink:href="#DejaVuSans-65"/>
     <use x="125" xlink:href="#DejaVuSans-66"/>
     <use x="160.205078" xlink:href="#DejaVuSans-6f"/>
     <use x="221.386719" xlink:href="#DejaVuSans-72"/>
     <use x="260.25" xlink:href="#DejaVuSans-65"/>
     <use x="321.773438" xlink:href="#DejaVuSans-20"/>
     <use x="353.560547" xlink:href="#DejaVuSans-62"/>
     <use x="417.037109" xlink:href="#DejaVuSans-69"/>
     <use x="444.820312" xlink:href="#DejaVuSans-6e"/>
     <use x="508.199219" xlink:href="#DejaVuSans-61"/>
     <use x="569.478516" xlink:href="#DejaVuSans-72"/>
     <use x="610.591797" xlink:href="#DejaVuSans-69"/>
     <use x="638.375" xlink:href="#DejaVuSans-73"/>
     <use x="690.474609" xlink:href="#DejaVuSans-61"/>
     <use x="751.753906" xlink:href="#DejaVuSans-74"/>
     <use x="790.962891" xlink:href="#DejaVuSans-69"/>
     <use x="818.746094" xlink:href="#DejaVuSans-6f"/>
     <use x="879.927734" xlink:href="#DejaVuSans-6e"/>
    </g>
   </g>
  </g>
 </g>
 <defs>
  <clipPath id="pdaaf0ff430">
   <rect height="564.545455" width="1674" x="43.78125" y="22.318125"/>
  </clipPath>
  <clipPath id="p20878e1c15">
   <rect height="564.545455" width="1674" x="43.78125" y="699.77267"/>
  </clipPath>
 </defs>
</svg>
