<?xml version="1.0" encoding="utf-8" standalone="no"?>
<!DOCTYPE svg PUBLIC "-//W3C//DTD SVG 1.1//EN"
  "http://www.w3.org/Graphics/SVG/1.1/DTD/svg11.dtd">
<svg height="1301.874375pt" version="1.1" viewBox="0 0 1724.98125 1301.874375" width="1724.98125pt" xmlns="http://www.w3.org/2000/svg" xmlns:xlink="http://www.w3.org/1999/xlink">
 <metadata>
  <rdf:RDF xmlns:cc="http://creativecommons.org/ns#" xmlns:dc="http://purl.org/dc/elements/1.1/" xmlns:rdf="http://www.w3.org/1999/02/22-rdf-syntax-ns#">
   <cc:Work>
    <dc:type rdf:resource="http://purl.org/dc/dcmitype/StillImage"/>
    <dc:date>2022-07-24T15:54:38.876289</dc:date>
    <dc:format>image/svg+xml</dc:format>
    <dc:creator>
     <cc:Agent>
      <dc:title>Matplotlib v3.4.2, https://matplotlib.org/</dc:title>
     </cc:Agent>
    </dc:creator>
   </cc:Work>
  </rdf:RDF>
 </metadata>
 <defs>
  <style type="text/css">*{stroke-linecap:butt;stroke-linejoin:round;}</style>
 </defs>
 <g id="figure_1">
  <g id="patch_1">
   <path d="M 0 1301.874375 
L 1724.98125 1301.874375 
L 1724.98125 0 
L 0 0 
z
" style="fill:#ffffff;"/>
  </g>
  <g id="axes_1">
   <g id="patch_2">
    <path d="M 43.78125 586.86358 
L 1717.78125 586.86358 
L 1717.78125 22.318125 
L 43.78125 22.318125 
z
" style="fill:#ffffff;"/>
   </g>
   <g id="matplotlib.axis_1">
    <g id="xtick_1">
     <g id="line2d_1">
      <defs>
       <path d="M 0 0 
L 0 3.5 
" id="m162e98b199" style="stroke:#000000;stroke-width:0.8;"/>
      </defs>
      <g>
       <use style="stroke:#000000;stroke-width:0.8;" x="119.872159" xlink:href="#m162e98b199" y="586.86358"/>
      </g>
     </g>
     <g id="text_1">
      <!-- 0 -->
      <g transform="translate(116.690909 601.462017)scale(0.1 -0.1)">
       <defs>
        <path d="M 2034 4250 
Q 1547 4250 1301 3770 
Q 1056 3291 1056 2328 
Q 1056 1369 1301 889 
Q 1547 409 2034 409 
Q 2525 409 2770 889 
Q 3016 1369 3016 2328 
Q 3016 3291 2770 3770 
Q 2525 4250 2034 4250 
z
M 2034 4750 
Q 2819 4750 3233 4129 
Q 3647 3509 3647 2328 
Q 3647 1150 3233 529 
Q 2819 -91 2034 -91 
Q 1250 -91 836 529 
Q 422 1150 422 2328 
Q 422 3509 836 4129 
Q 1250 4750 2034 4750 
z
" id="DejaVuSans-30" transform="scale(0.015625)"/>
       </defs>
       <use xlink:href="#DejaVuSans-30"/>
      </g>
     </g>
    </g>
    <g id="xtick_2">
     <g id="line2d_2">
      <g>
       <use style="stroke:#000000;stroke-width:0.8;" x="367.523613" xlink:href="#m162e98b199" y="586.86358"/>
      </g>
     </g>
     <g id="text_2">
      <!-- 200 -->
      <g transform="translate(357.979863 601.462017)scale(0.1 -0.1)">
       <defs>
        <path d="M 1228 531 
L 3431 531 
L 3431 0 
L 469 0 
L 469 531 
Q 828 903 1448 1529 
Q 2069 2156 2228 2338 
Q 2531 2678 2651 2914 
Q 2772 3150 2772 3378 
Q 2772 3750 2511 3984 
Q 2250 4219 1831 4219 
Q 1534 4219 1204 4116 
Q 875 4013 500 3803 
L 500 4441 
Q 881 4594 1212 4672 
Q 1544 4750 1819 4750 
Q 2544 4750 2975 4387 
Q 3406 4025 3406 3419 
Q 3406 3131 3298 2873 
Q 3191 2616 2906 2266 
Q 2828 2175 2409 1742 
Q 1991 1309 1228 531 
z
" id="DejaVuSans-32" transform="scale(0.015625)"/>
       </defs>
       <use xlink:href="#DejaVuSans-32"/>
       <use x="63.623047" xlink:href="#DejaVuSans-30"/>
       <use x="127.246094" xlink:href="#DejaVuSans-30"/>
      </g>
     </g>
    </g>
    <g id="xtick_3">
     <g id="line2d_3">
      <g>
       <use style="stroke:#000000;stroke-width:0.8;" x="615.175066" xlink:href="#m162e98b199" y="586.86358"/>
      </g>
     </g>
     <g id="text_3">
      <!-- 400 -->
      <g transform="translate(605.631316 601.462017)scale(0.1 -0.1)">
       <defs>
        <path d="M 2419 4116 
L 825 1625 
L 2419 1625 
L 2419 4116 
z
M 2253 4666 
L 3047 4666 
L 3047 1625 
L 3713 1625 
L 3713 1100 
L 3047 1100 
L 3047 0 
L 2419 0 
L 2419 1100 
L 313 1100 
L 313 1709 
L 2253 4666 
z
" id="DejaVuSans-34" transform="scale(0.015625)"/>
       </defs>
       <use xlink:href="#DejaVuSans-34"/>
       <use x="63.623047" xlink:href="#DejaVuSans-30"/>
       <use x="127.246094" xlink:href="#DejaVuSans-30"/>
      </g>
     </g>
    </g>
    <g id="xtick_4">
     <g id="line2d_4">
      <g>
       <use style="stroke:#000000;stroke-width:0.8;" x="862.82652" xlink:href="#m162e98b199" y="586.86358"/>
      </g>
     </g>
     <g id="text_4">
      <!-- 600 -->
      <g transform="translate(853.28277 601.462017)scale(0.1 -0.1)">
       <defs>
        <path d="M 2113 2584 
Q 1688 2584 1439 2293 
Q 1191 2003 1191 1497 
Q 1191 994 1439 701 
Q 1688 409 2113 409 
Q 2538 409 2786 701 
Q 3034 994 3034 1497 
Q 3034 2003 2786 2293 
Q 2538 2584 2113 2584 
z
M 3366 4563 
L 3366 3988 
Q 3128 4100 2886 4159 
Q 2644 4219 2406 4219 
Q 1781 4219 1451 3797 
Q 1122 3375 1075 2522 
Q 1259 2794 1537 2939 
Q 1816 3084 2150 3084 
Q 2853 3084 3261 2657 
Q 3669 2231 3669 1497 
Q 3669 778 3244 343 
Q 2819 -91 2113 -91 
Q 1303 -91 875 529 
Q 447 1150 447 2328 
Q 447 3434 972 4092 
Q 1497 4750 2381 4750 
Q 2619 4750 2861 4703 
Q 3103 4656 3366 4563 
z
" id="DejaVuSans-36" transform="scale(0.015625)"/>
       </defs>
       <use xlink:href="#DejaVuSans-36"/>
       <use x="63.623047" xlink:href="#DejaVuSans-30"/>
       <use x="127.246094" xlink:href="#DejaVuSans-30"/>
      </g>
     </g>
    </g>
    <g id="xtick_5">
     <g id="line2d_5">
      <g>
       <use style="stroke:#000000;stroke-width:0.8;" x="1110.477973" xlink:href="#m162e98b199" y="586.86358"/>
      </g>
     </g>
     <g id="text_5">
      <!-- 800 -->
      <g transform="translate(1100.934223 601.462017)scale(0.1 -0.1)">
       <defs>
        <path d="M 2034 2216 
Q 1584 2216 1326 1975 
Q 1069 1734 1069 1313 
Q 1069 891 1326 650 
Q 1584 409 2034 409 
Q 2484 409 2743 651 
Q 3003 894 3003 1313 
Q 3003 1734 2745 1975 
Q 2488 2216 2034 2216 
z
M 1403 2484 
Q 997 2584 770 2862 
Q 544 3141 544 3541 
Q 544 4100 942 4425 
Q 1341 4750 2034 4750 
Q 2731 4750 3128 4425 
Q 3525 4100 3525 3541 
Q 3525 3141 3298 2862 
Q 3072 2584 2669 2484 
Q 3125 2378 3379 2068 
Q 3634 1759 3634 1313 
Q 3634 634 3220 271 
Q 2806 -91 2034 -91 
Q 1263 -91 848 271 
Q 434 634 434 1313 
Q 434 1759 690 2068 
Q 947 2378 1403 2484 
z
M 1172 3481 
Q 1172 3119 1398 2916 
Q 1625 2713 2034 2713 
Q 2441 2713 2670 2916 
Q 2900 3119 2900 3481 
Q 2900 3844 2670 4047 
Q 2441 4250 2034 4250 
Q 1625 4250 1398 4047 
Q 1172 3844 1172 3481 
z
" id="DejaVuSans-38" transform="scale(0.015625)"/>
       </defs>
       <use xlink:href="#DejaVuSans-38"/>
       <use x="63.623047" xlink:href="#DejaVuSans-30"/>
       <use x="127.246094" xlink:href="#DejaVuSans-30"/>
      </g>
     </g>
    </g>
    <g id="xtick_6">
     <g id="line2d_6">
      <g>
       <use style="stroke:#000000;stroke-width:0.8;" x="1358.129427" xlink:href="#m162e98b199" y="586.86358"/>
      </g>
     </g>
     <g id="text_6">
      <!-- 1000 -->
      <g transform="translate(1345.404427 601.462017)scale(0.1 -0.1)">
       <defs>
        <path d="M 794 531 
L 1825 531 
L 1825 4091 
L 703 3866 
L 703 4441 
L 1819 4666 
L 2450 4666 
L 2450 531 
L 3481 531 
L 3481 0 
L 794 0 
L 794 531 
z
" id="DejaVuSans-31" transform="scale(0.015625)"/>
       </defs>
       <use xlink:href="#DejaVuSans-31"/>
       <use x="63.623047" xlink:href="#DejaVuSans-30"/>
       <use x="127.246094" xlink:href="#DejaVuSans-30"/>
       <use x="190.869141" xlink:href="#DejaVuSans-30"/>
      </g>
     </g>
    </g>
    <g id="xtick_7">
     <g id="line2d_7">
      <g>
       <use style="stroke:#000000;stroke-width:0.8;" x="1605.78088" xlink:href="#m162e98b199" y="586.86358"/>
      </g>
     </g>
     <g id="text_7">
      <!-- 1200 -->
      <g transform="translate(1593.05588 601.462017)scale(0.1 -0.1)">
       <use xlink:href="#DejaVuSans-31"/>
       <use x="63.623047" xlink:href="#DejaVuSans-32"/>
       <use x="127.246094" xlink:href="#DejaVuSans-30"/>
       <use x="190.869141" xlink:href="#DejaVuSans-30"/>
      </g>
     </g>
    </g>
    <g id="text_8">
     <!-- frame -->
     <g transform="translate(865.954687 615.140142)scale(0.1 -0.1)">
      <defs>
       <path d="M 2375 4863 
L 2375 4384 
L 1825 4384 
Q 1516 4384 1395 4259 
Q 1275 4134 1275 3809 
L 1275 3500 
L 2222 3500 
L 2222 3053 
L 1275 3053 
L 1275 0 
L 697 0 
L 697 3053 
L 147 3053 
L 147 3500 
L 697 3500 
L 697 3744 
Q 697 4328 969 4595 
Q 1241 4863 1831 4863 
L 2375 4863 
z
" id="DejaVuSans-66" transform="scale(0.015625)"/>
       <path d="M 2631 2963 
Q 2534 3019 2420 3045 
Q 2306 3072 2169 3072 
Q 1681 3072 1420 2755 
Q 1159 2438 1159 1844 
L 1159 0 
L 581 0 
L 581 3500 
L 1159 3500 
L 1159 2956 
Q 1341 3275 1631 3429 
Q 1922 3584 2338 3584 
Q 2397 3584 2469 3576 
Q 2541 3569 2628 3553 
L 2631 2963 
z
" id="DejaVuSans-72" transform="scale(0.015625)"/>
       <path d="M 2194 1759 
Q 1497 1759 1228 1600 
Q 959 1441 959 1056 
Q 959 750 1161 570 
Q 1363 391 1709 391 
Q 2188 391 2477 730 
Q 2766 1069 2766 1631 
L 2766 1759 
L 2194 1759 
z
M 3341 1997 
L 3341 0 
L 2766 0 
L 2766 531 
Q 2569 213 2275 61 
Q 1981 -91 1556 -91 
Q 1019 -91 701 211 
Q 384 513 384 1019 
Q 384 1609 779 1909 
Q 1175 2209 1959 2209 
L 2766 2209 
L 2766 2266 
Q 2766 2663 2505 2880 
Q 2244 3097 1772 3097 
Q 1472 3097 1187 3025 
Q 903 2953 641 2809 
L 641 3341 
Q 956 3463 1253 3523 
Q 1550 3584 1831 3584 
Q 2591 3584 2966 3190 
Q 3341 2797 3341 1997 
z
" id="DejaVuSans-61" transform="scale(0.015625)"/>
       <path d="M 3328 2828 
Q 3544 3216 3844 3400 
Q 4144 3584 4550 3584 
Q 5097 3584 5394 3201 
Q 5691 2819 5691 2113 
L 5691 0 
L 5113 0 
L 5113 2094 
Q 5113 2597 4934 2840 
Q 4756 3084 4391 3084 
Q 3944 3084 3684 2787 
Q 3425 2491 3425 1978 
L 3425 0 
L 2847 0 
L 2847 2094 
Q 2847 2600 2669 2842 
Q 2491 3084 2119 3084 
Q 1678 3084 1418 2786 
Q 1159 2488 1159 1978 
L 1159 0 
L 581 0 
L 581 3500 
L 1159 3500 
L 1159 2956 
Q 1356 3278 1631 3431 
Q 1906 3584 2284 3584 
Q 2666 3584 2933 3390 
Q 3200 3197 3328 2828 
z
" id="DejaVuSans-6d" transform="scale(0.015625)"/>
       <path d="M 3597 1894 
L 3597 1613 
L 953 1613 
Q 991 1019 1311 708 
Q 1631 397 2203 397 
Q 2534 397 2845 478 
Q 3156 559 3463 722 
L 3463 178 
Q 3153 47 2828 -22 
Q 2503 -91 2169 -91 
Q 1331 -91 842 396 
Q 353 884 353 1716 
Q 353 2575 817 3079 
Q 1281 3584 2069 3584 
Q 2775 3584 3186 3129 
Q 3597 2675 3597 1894 
z
M 3022 2063 
Q 3016 2534 2758 2815 
Q 2500 3097 2075 3097 
Q 1594 3097 1305 2825 
Q 1016 2553 972 2059 
L 3022 2063 
z
" id="DejaVuSans-65" transform="scale(0.015625)"/>
      </defs>
      <use xlink:href="#DejaVuSans-66"/>
      <use x="35.205078" xlink:href="#DejaVuSans-72"/>
      <use x="76.318359" xlink:href="#DejaVuSans-61"/>
      <use x="137.597656" xlink:href="#DejaVuSans-6d"/>
      <use x="235.009766" xlink:href="#DejaVuSans-65"/>
     </g>
    </g>
   </g>
   <g id="matplotlib.axis_2">
    <g id="ytick_1">
     <g id="line2d_8">
      <defs>
       <path d="M 0 0 
L -3.5 0 
" id="m8eafdf2e57" style="stroke:#000000;stroke-width:0.8;"/>
      </defs>
      <g>
       <use style="stroke:#000000;stroke-width:0.8;" x="43.78125" xlink:href="#m8eafdf2e57" y="561.202423"/>
      </g>
     </g>
     <g id="text_9">
      <!-- 0.0 -->
      <g transform="translate(20.878125 565.001641)scale(0.1 -0.1)">
       <defs>
        <path d="M 684 794 
L 1344 794 
L 1344 0 
L 684 0 
L 684 794 
z
" id="DejaVuSans-2e" transform="scale(0.015625)"/>
       </defs>
       <use xlink:href="#DejaVuSans-30"/>
       <use x="63.623047" xlink:href="#DejaVuSans-2e"/>
       <use x="95.410156" xlink:href="#DejaVuSans-30"/>
      </g>
     </g>
    </g>
    <g id="ytick_2">
     <g id="line2d_9">
      <g>
       <use style="stroke:#000000;stroke-width:0.8;" x="43.78125" xlink:href="#m8eafdf2e57" y="466.32838"/>
      </g>
     </g>
     <g id="text_10">
      <!-- 0.5 -->
      <g transform="translate(20.878125 470.127599)scale(0.1 -0.1)">
       <defs>
        <path d="M 691 4666 
L 3169 4666 
L 3169 4134 
L 1269 4134 
L 1269 2991 
Q 1406 3038 1543 3061 
Q 1681 3084 1819 3084 
Q 2600 3084 3056 2656 
Q 3513 2228 3513 1497 
Q 3513 744 3044 326 
Q 2575 -91 1722 -91 
Q 1428 -91 1123 -41 
Q 819 9 494 109 
L 494 744 
Q 775 591 1075 516 
Q 1375 441 1709 441 
Q 2250 441 2565 725 
Q 2881 1009 2881 1497 
Q 2881 1984 2565 2268 
Q 2250 2553 1709 2553 
Q 1456 2553 1204 2497 
Q 953 2441 691 2322 
L 691 4666 
z
" id="DejaVuSans-35" transform="scale(0.015625)"/>
       </defs>
       <use xlink:href="#DejaVuSans-30"/>
       <use x="63.623047" xlink:href="#DejaVuSans-2e"/>
       <use x="95.410156" xlink:href="#DejaVuSans-35"/>
      </g>
     </g>
    </g>
    <g id="ytick_3">
     <g id="line2d_10">
      <g>
       <use style="stroke:#000000;stroke-width:0.8;" x="43.78125" xlink:href="#m8eafdf2e57" y="371.454338"/>
      </g>
     </g>
     <g id="text_11">
      <!-- 1.0 -->
      <g transform="translate(20.878125 375.253557)scale(0.1 -0.1)">
       <use xlink:href="#DejaVuSans-31"/>
       <use x="63.623047" xlink:href="#DejaVuSans-2e"/>
       <use x="95.410156" xlink:href="#DejaVuSans-30"/>
      </g>
     </g>
    </g>
    <g id="ytick_4">
     <g id="line2d_11">
      <g>
       <use style="stroke:#000000;stroke-width:0.8;" x="43.78125" xlink:href="#m8eafdf2e57" y="276.580296"/>
      </g>
     </g>
     <g id="text_12">
      <!-- 1.5 -->
      <g transform="translate(20.878125 280.379515)scale(0.1 -0.1)">
       <use xlink:href="#DejaVuSans-31"/>
       <use x="63.623047" xlink:href="#DejaVuSans-2e"/>
       <use x="95.410156" xlink:href="#DejaVuSans-35"/>
      </g>
     </g>
    </g>
    <g id="ytick_5">
     <g id="line2d_12">
      <g>
       <use style="stroke:#000000;stroke-width:0.8;" x="43.78125" xlink:href="#m8eafdf2e57" y="181.706254"/>
      </g>
     </g>
     <g id="text_13">
      <!-- 2.0 -->
      <g transform="translate(20.878125 185.505473)scale(0.1 -0.1)">
       <use xlink:href="#DejaVuSans-32"/>
       <use x="63.623047" xlink:href="#DejaVuSans-2e"/>
       <use x="95.410156" xlink:href="#DejaVuSans-30"/>
      </g>
     </g>
    </g>
    <g id="ytick_6">
     <g id="line2d_13">
      <g>
       <use style="stroke:#000000;stroke-width:0.8;" x="43.78125" xlink:href="#m8eafdf2e57" y="86.832212"/>
      </g>
     </g>
     <g id="text_14">
      <!-- 2.5 -->
      <g transform="translate(20.878125 90.631431)scale(0.1 -0.1)">
       <use xlink:href="#DejaVuSans-32"/>
       <use x="63.623047" xlink:href="#DejaVuSans-2e"/>
       <use x="95.410156" xlink:href="#DejaVuSans-35"/>
      </g>
     </g>
    </g>
    <g id="text_15">
     <!-- GCaMP -->
     <g transform="translate(14.798437 322.349446)rotate(-90)scale(0.1 -0.1)">
      <defs>
       <path d="M 3809 666 
L 3809 1919 
L 2778 1919 
L 2778 2438 
L 4434 2438 
L 4434 434 
Q 4069 175 3628 42 
Q 3188 -91 2688 -91 
Q 1594 -91 976 548 
Q 359 1188 359 2328 
Q 359 3472 976 4111 
Q 1594 4750 2688 4750 
Q 3144 4750 3555 4637 
Q 3966 4525 4313 4306 
L 4313 3634 
Q 3963 3931 3569 4081 
Q 3175 4231 2741 4231 
Q 1884 4231 1454 3753 
Q 1025 3275 1025 2328 
Q 1025 1384 1454 906 
Q 1884 428 2741 428 
Q 3075 428 3337 486 
Q 3600 544 3809 666 
z
" id="DejaVuSans-47" transform="scale(0.015625)"/>
       <path d="M 4122 4306 
L 4122 3641 
Q 3803 3938 3442 4084 
Q 3081 4231 2675 4231 
Q 1875 4231 1450 3742 
Q 1025 3253 1025 2328 
Q 1025 1406 1450 917 
Q 1875 428 2675 428 
Q 3081 428 3442 575 
Q 3803 722 4122 1019 
L 4122 359 
Q 3791 134 3420 21 
Q 3050 -91 2638 -91 
Q 1578 -91 968 557 
Q 359 1206 359 2328 
Q 359 3453 968 4101 
Q 1578 4750 2638 4750 
Q 3056 4750 3426 4639 
Q 3797 4528 4122 4306 
z
" id="DejaVuSans-43" transform="scale(0.015625)"/>
       <path d="M 628 4666 
L 1569 4666 
L 2759 1491 
L 3956 4666 
L 4897 4666 
L 4897 0 
L 4281 0 
L 4281 4097 
L 3078 897 
L 2444 897 
L 1241 4097 
L 1241 0 
L 628 0 
L 628 4666 
z
" id="DejaVuSans-4d" transform="scale(0.015625)"/>
       <path d="M 1259 4147 
L 1259 2394 
L 2053 2394 
Q 2494 2394 2734 2622 
Q 2975 2850 2975 3272 
Q 2975 3691 2734 3919 
Q 2494 4147 2053 4147 
L 1259 4147 
z
M 628 4666 
L 2053 4666 
Q 2838 4666 3239 4311 
Q 3641 3956 3641 3272 
Q 3641 2581 3239 2228 
Q 2838 1875 2053 1875 
L 1259 1875 
L 1259 0 
L 628 0 
L 628 4666 
z
" id="DejaVuSans-50" transform="scale(0.015625)"/>
      </defs>
      <use xlink:href="#DejaVuSans-47"/>
      <use x="77.490234" xlink:href="#DejaVuSans-43"/>
      <use x="147.314453" xlink:href="#DejaVuSans-61"/>
      <use x="208.59375" xlink:href="#DejaVuSans-4d"/>
      <use x="294.873047" xlink:href="#DejaVuSans-50"/>
     </g>
    </g>
   </g>
   <g id="line2d_14">
    <path clip-path="url(#p5dd9b231f2)" d="M 119.872159 265.680969 
L 121.110416 274.361971 
L 122.348674 280.851991 
L 123.586931 284.1841 
L 124.825188 284.68742 
L 126.063445 283.103088 
L 127.301703 279.860143 
L 129.778217 271.064724 
L 131.016474 268.102364 
L 132.254732 267.357087 
L 133.492989 268.807742 
L 134.731246 272.145064 
L 135.969504 277.204525 
L 137.207761 283.764463 
L 138.446018 291.009849 
L 139.684275 297.534892 
L 140.922533 302.149195 
L 142.16079 304.675359 
L 147.113819 309.70426 
L 148.352076 310.014952 
L 149.590334 309.691994 
L 150.828591 309.910816 
L 152.066848 311.357611 
L 157.019877 320.574776 
L 158.258134 322.925647 
L 159.496392 325.773159 
L 161.972906 332.967549 
L 163.211163 335.91236 
L 164.449421 337.261309 
L 165.687678 336.940611 
L 166.925935 335.870313 
L 168.164193 335.383364 
L 169.40245 336.171378 
L 170.640707 338.0452 
L 174.355479 345.50258 
L 175.593736 346.483876 
L 176.831993 346.007226 
L 179.308508 343.14918 
L 180.546765 342.512712 
L 181.785022 343.228301 
L 184.261537 346.822808 
L 185.499794 347.175794 
L 186.738052 345.412007 
L 187.976309 341.588314 
L 190.452823 331.129554 
L 191.691081 327.623897 
L 192.929338 326.814213 
L 194.167595 328.295291 
L 195.405852 331.068065 
L 196.64411 334.177144 
L 197.882367 336.760716 
L 199.120624 338.166177 
L 200.358881 338.124296 
L 201.597139 336.894033 
L 202.835396 335.307171 
L 204.073653 334.28933 
L 205.311911 334.173512 
L 206.550168 334.742579 
L 207.788425 335.79416 
L 209.026682 337.407039 
L 210.26494 339.827776 
L 213.979711 349.528434 
L 215.217969 351.075269 
L 216.456226 351.195643 
L 217.694483 350.349548 
L 221.409255 346.503308 
L 222.647512 346.364497 
L 223.88577 347.294126 
L 225.124027 348.505919 
L 226.362284 349.16654 
L 227.600541 349.102406 
L 228.838799 348.522511 
L 230.077056 347.592794 
L 231.315313 346.404895 
L 232.55357 345.009291 
L 233.791828 343.344917 
L 236.268342 339.416125 
L 237.5066 338.338825 
L 238.744857 338.804586 
L 239.983114 341.02805 
L 242.459629 348.401587 
L 243.697886 350.9903 
L 244.936143 351.637174 
L 247.412658 350.117609 
L 248.650915 350.744375 
L 251.127429 354.087394 
L 252.365687 354.188705 
L 253.603944 352.367614 
L 254.842201 349.184139 
L 258.556973 338.425985 
L 259.79523 336.119495 
L 261.033488 335.721422 
L 262.271745 337.188641 
L 265.986517 344.365019 
L 268.463031 348.204192 
L 269.701288 350.425353 
L 270.939546 353.144236 
L 273.41606 359.606919 
L 274.654318 362.245453 
L 275.892575 363.942087 
L 277.130832 364.708796 
L 278.369089 364.339749 
L 279.607347 362.531787 
L 280.845604 359.538501 
L 283.322118 353.040336 
L 284.560376 350.613025 
L 285.798633 349.275537 
L 287.03689 349.342111 
L 288.275147 350.651096 
L 290.751662 354.699258 
L 291.989919 356.290569 
L 293.228177 357.041207 
L 294.466434 356.831227 
L 295.704691 355.982403 
L 296.942948 355.271713 
L 298.181206 355.481489 
L 299.419463 356.733102 
L 301.895977 360.497741 
L 303.134235 362.539524 
L 304.372492 364.208218 
L 305.610749 364.795653 
L 306.849006 363.965471 
L 308.087264 361.863665 
L 309.325521 358.693921 
L 310.563778 354.579513 
L 313.040293 345.64522 
L 314.27855 342.699959 
L 315.516807 341.175191 
L 316.755065 340.462799 
L 317.993322 340.056406 
L 319.231579 339.984457 
L 320.469836 340.615991 
L 321.708094 342.292149 
L 322.946351 345.036969 
L 325.422866 351.485706 
L 326.661123 354.082237 
L 327.89938 355.949793 
L 329.137637 356.612713 
L 330.375895 355.59506 
L 331.614152 353.126453 
L 332.852409 350.267856 
L 334.090666 348.442897 
L 335.328924 348.718464 
L 336.567181 351.22628 
L 340.281953 362.669063 
L 341.52021 364.742855 
L 342.758467 365.656761 
L 343.996725 365.900909 
L 345.234982 365.669315 
L 346.473239 364.682916 
L 347.711496 362.813391 
L 348.949754 360.645607 
L 350.188011 359.076943 
L 351.426268 358.452461 
L 352.664525 358.45857 
L 353.902783 358.61389 
L 355.14104 358.55809 
L 356.379297 358.115756 
L 357.617554 357.409412 
L 358.855812 357.013613 
L 360.094069 357.65351 
L 361.332326 359.427713 
L 362.570584 361.636404 
L 363.808841 363.426109 
L 365.047098 364.134762 
L 366.285355 363.291921 
L 367.523613 360.955672 
L 370.000127 354.922468 
L 371.238384 352.804952 
L 372.476642 351.888291 
L 373.714899 352.162082 
L 374.953156 353.11119 
L 376.191413 353.87977 
L 377.429671 353.608817 
L 378.667928 351.808648 
L 379.906185 348.591531 
L 382.3827 340.550514 
L 383.620957 337.402378 
L 384.859214 335.658566 
L 386.097472 335.202404 
L 387.335729 335.218603 
L 388.573986 334.699369 
L 389.812243 333.159873 
L 391.050501 330.72365 
L 393.527015 324.713969 
L 394.765272 322.167611 
L 396.00353 320.306577 
L 398.480044 317.447266 
L 399.718302 315.729685 
L 402.194816 311.47895 
L 403.433073 309.939476 
L 404.671331 309.470033 
L 405.909588 310.337716 
L 407.147845 312.579669 
L 408.386102 316.168884 
L 410.862617 325.567155 
L 412.100874 329.441668 
L 413.339132 332.013424 
L 414.577389 333.313961 
L 415.815646 333.579164 
L 417.053903 333.101051 
L 418.292161 332.025807 
L 420.768675 328.917446 
L 422.006932 328.077891 
L 423.24519 328.256567 
L 424.483447 329.118674 
L 425.721704 330.236638 
L 426.959961 331.604217 
L 429.436476 335.07084 
L 430.674733 336.302941 
L 431.912991 336.80722 
L 433.151248 336.658309 
L 434.389505 335.965518 
L 435.627762 334.898221 
L 439.342534 331.067785 
L 441.819049 329.361042 
L 443.057306 328.138494 
L 444.295563 326.095384 
L 445.53382 322.813953 
L 448.010335 313.59483 
L 449.248592 310.046034 
L 450.48685 308.740243 
L 451.725107 309.679963 
L 452.963364 311.849308 
L 454.201621 313.726926 
L 455.439879 314.107768 
L 456.678136 312.791206 
L 460.392908 306.039638 
L 462.869422 302.591744 
L 464.107679 301.1996 
L 465.345937 300.151706 
L 466.584194 299.569275 
L 467.822451 299.703009 
L 469.060709 300.788709 
L 470.298966 302.660057 
L 471.537223 304.769972 
L 472.77548 306.375078 
L 474.013738 306.763222 
L 475.251995 305.744536 
L 476.490252 303.565544 
L 478.966767 297.361413 
L 480.205024 294.970283 
L 481.443281 293.924447 
L 482.681538 294.064998 
L 486.39631 296.415318 
L 487.634568 297.316584 
L 488.872825 298.87143 
L 490.111082 301.460422 
L 492.587597 308.184678 
L 493.825854 310.617559 
L 495.064111 311.999041 
L 496.302368 312.62131 
L 497.540626 312.550157 
L 498.778883 311.815215 
L 500.01714 310.877957 
L 501.255397 310.313384 
L 502.493655 310.280325 
L 503.731912 310.661352 
L 504.970169 311.399859 
L 507.446684 313.351137 
L 508.684941 313.654812 
L 509.923198 312.834689 
L 511.161456 310.813325 
L 512.399713 307.960843 
L 516.114485 298.227985 
L 518.590999 291.774585 
L 519.829257 289.660094 
L 521.067514 288.991588 
L 522.305771 289.461587 
L 523.544028 290.447983 
L 526.020543 292.873316 
L 527.2588 294.372497 
L 532.211829 301.185312 
L 533.450086 302.577105 
L 534.688344 303.583232 
L 535.926601 303.945259 
L 537.164858 303.661773 
L 538.403116 303.199386 
L 539.641373 303.298619 
L 540.87963 304.46991 
L 542.117887 306.674946 
L 544.594402 312.391808 
L 545.832659 314.719703 
L 547.070916 316.176885 
L 548.309174 316.749204 
L 549.547431 316.267244 
L 550.785688 314.275591 
L 552.023945 310.547804 
L 555.738717 295.655076 
L 556.976975 292.397891 
L 558.215232 290.442018 
L 559.453489 289.471568 
L 560.691746 289.039777 
L 561.930004 288.484844 
L 564.406518 286.506133 
L 565.644775 286.166382 
L 566.883033 286.632851 
L 568.12129 288.088624 
L 571.836062 295.112071 
L 573.074319 295.91908 
L 574.312576 295.696682 
L 575.550834 295.194482 
L 578.027348 294.774281 
L 579.265605 293.805883 
L 581.74212 290.235448 
L 582.980377 289.218253 
L 584.218634 289.326582 
L 585.456892 290.072772 
L 586.695149 290.389694 
L 587.933406 289.539607 
L 589.171663 287.651443 
L 590.409921 285.380018 
L 591.648178 283.430333 
L 592.886435 282.460552 
L 594.124693 282.936469 
L 595.36295 284.787216 
L 596.601207 287.52041 
L 600.315979 296.970617 
L 601.554236 298.954541 
L 602.792493 299.588981 
L 604.030751 298.483598 
L 605.269008 295.571568 
L 606.507265 291.393556 
L 608.98378 282.392119 
L 610.222037 278.445839 
L 611.460294 275.391097 
L 612.698552 273.897496 
L 613.936809 274.359299 
L 615.175066 276.409726 
L 617.651581 282.124516 
L 618.889838 284.07666 
L 620.128095 284.775731 
L 621.366352 284.604436 
L 623.842867 283.596485 
L 625.081124 284.186107 
L 626.319382 286.474549 
L 627.557639 289.748242 
L 628.795896 292.440747 
L 630.034153 293.565781 
L 631.272411 292.902993 
L 632.510668 290.75692 
L 633.748925 288.073764 
L 634.987182 285.923899 
L 636.22544 284.603556 
L 637.463697 283.713168 
L 638.701954 283.084023 
L 639.940211 282.963537 
L 641.178469 283.541042 
L 642.416726 284.949049 
L 644.893241 289.505822 
L 646.131498 290.920934 
L 647.369755 290.854425 
L 648.608012 289.516519 
L 649.84627 287.344713 
L 651.084527 284.586607 
L 653.561041 278.05806 
L 654.799299 275.461033 
L 656.037556 274.226848 
L 657.275813 274.239115 
L 658.51407 561.202423 
L 774.910254 561.202423 
L 776.148511 243.625191 
L 777.386768 233.153672 
L 778.625025 225.911992 
L 779.863283 222.31969 
L 781.10154 221.456567 
L 782.339797 221.943599 
L 783.578054 222.791161 
L 784.816312 223.845725 
L 786.054569 225.550081 
L 788.531084 230.398756 
L 789.769341 232.015317 
L 791.007598 232.718488 
L 792.245855 233.029582 
L 793.484113 233.823856 
L 794.72237 236.035205 
L 795.960627 239.888719 
L 797.198884 244.410866 
L 798.437142 248.190883 
L 799.675399 250.308778 
L 800.913656 250.414744 
L 802.151914 248.684332 
L 803.390171 245.999279 
L 804.628428 243.65287 
L 805.866685 242.570007 
L 807.104943 242.859036 
L 808.3432 243.859325 
L 809.581457 244.5041 
L 810.819714 243.935485 
L 812.057972 242.125312 
L 813.296229 240.06653 
L 814.534486 239.006817 
L 815.772743 239.333605 
L 817.011001 240.308485 
L 818.249258 240.717301 
L 819.487515 239.701262 
L 820.725773 237.189525 
L 821.96403 234.116888 
L 823.202287 232.152409 
L 824.440544 232.418158 
L 825.678802 234.662607 
L 826.917059 237.991368 
L 829.393573 245.03381 
L 830.631831 247.635584 
L 831.870088 249.140281 
L 833.108345 249.189734 
L 834.346602 247.62397 
L 835.58486 244.8254 
L 838.061374 238.244746 
L 839.299632 235.592019 
L 840.537889 233.577517 
L 841.776146 232.170221 
L 843.014403 231.47307 
L 844.252661 231.598113 
L 846.729175 233.092354 
L 847.967432 233.127003 
L 849.20569 232.706998 
L 850.443947 232.626711 
L 851.682204 233.31854 
L 852.920461 234.645842 
L 854.158719 236.357556 
L 855.396976 238.404979 
L 856.635233 240.675313 
L 857.873491 242.620658 
L 859.111748 243.623462 
L 860.350005 243.673783 
L 865.303034 242.068249 
L 866.541291 240.945005 
L 867.779549 238.850035 
L 870.256063 233.383702 
L 871.49432 231.91928 
L 872.732578 231.921204 
L 875.209092 233.819578 
L 876.44735 234.261064 
L 877.685607 234.009597 
L 878.923864 232.996124 
L 880.162121 231.182981 
L 881.400379 228.676959 
L 882.638636 225.637781 
L 885.11515 218.984672 
L 886.353408 216.854703 
L 887.591665 216.479349 
L 890.06818 218.409255 
L 891.306437 218.433793 
L 892.544694 217.685389 
L 893.782951 217.373816 
L 895.021209 218.387262 
L 896.259466 220.547006 
L 897.497723 223.033453 
L 898.73598 225.021248 
L 899.974238 225.978679 
L 901.212495 225.811392 
L 902.450752 225.028222 
L 903.689009 224.49627 
L 904.927267 224.616407 
L 906.165524 225.136605 
L 908.642039 226.421998 
L 909.880296 226.303442 
L 911.118553 224.966244 
L 912.35681 222.917818 
L 913.595068 221.196576 
L 914.833325 220.230469 
L 916.071582 219.746479 
L 917.309839 219.404459 
L 918.548097 218.780373 
L 919.786354 217.311179 
L 921.024611 215.090421 
L 922.262868 213.226127 
L 923.501126 212.823843 
L 924.739383 213.916569 
L 925.97764 215.722389 
L 929.692412 221.871893 
L 930.930669 222.293844 
L 932.168927 220.713437 
L 933.407184 217.442275 
L 934.645441 213.421388 
L 935.883698 210.381951 
L 937.121956 209.976781 
L 938.360213 212.148742 
L 939.59847 215.194599 
L 940.836727 217.420131 
L 942.074985 218.203662 
L 943.313242 217.90185 
L 945.789757 216.483644 
L 947.028014 215.03087 
L 948.266271 211.815842 
L 949.504528 206.049133 
L 950.742786 197.612373 
L 953.2193 177.69432 
L 954.457557 169.976816 
L 955.695815 165.002311 
L 956.934072 162.210401 
L 958.172329 160.307415 
L 959.410586 158.041849 
L 960.648844 154.740839 
L 961.887101 150.187416 
L 964.363616 139.516454 
L 965.601873 135.682647 
L 966.84013 133.637956 
L 968.078387 133.640218 
L 969.316645 136.41773 
L 970.554902 142.358598 
L 974.269674 166.937021 
L 977.984446 187.168409 
L 979.222703 193.902782 
L 980.46096 199.212052 
L 981.699217 201.140818 
L 982.937475 199.094937 
L 985.413989 189.827826 
L 986.652246 561.202423 
L 1189.726438 561.202423 
L 1190.964696 187.396466 
L 1192.202953 188.99836 
L 1193.44121 191.407133 
L 1195.917725 197.43328 
L 1198.394239 202.717955 
L 1200.870754 208.581237 
L 1202.109011 210.001647 
L 1203.347268 209.182053 
L 1204.585525 205.867877 
L 1205.823783 200.342983 
L 1207.06204 193.914943 
L 1208.300297 188.504943 
L 1209.538555 185.181454 
L 1210.776812 183.74252 
L 1212.015069 183.771202 
L 1213.253326 185.405894 
L 1215.729841 191.352307 
L 1216.968098 191.39018 
L 1218.206355 187.110135 
L 1219.444613 179.253561 
L 1220.68287 170.65742 
L 1221.921127 164.74449 
L 1223.159384 163.308395 
L 1224.397642 165.879725 
L 1225.635899 171.085476 
L 1228.112414 184.672723 
L 1229.350671 190.196819 
L 1230.588928 192.675556 
L 1231.827185 191.728462 
L 1233.065443 188.233987 
L 1234.3037 183.207246 
L 1235.541957 177.66066 
L 1236.780214 172.976408 
L 1238.018472 170.008129 
L 1239.256729 168.417212 
L 1240.494986 167.835924 
L 1241.733243 168.461087 
L 1245.448015 172.973507 
L 1246.686273 174.129456 
L 1247.92453 174.957246 
L 1249.162787 174.958631 
L 1250.401044 174.490121 
L 1251.639302 174.735549 
L 1252.877559 176.26072 
L 1256.592331 183.076612 
L 1260.307103 189.277468 
L 1261.54536 190.30593 
L 1262.783617 189.891562 
L 1264.021874 188.257032 
L 1267.736646 181.30795 
L 1268.974903 180.236447 
L 1270.213161 179.464162 
L 1271.451418 178.003645 
L 1272.689675 175.75473 
L 1273.927932 173.745454 
L 1275.16619 172.844762 
L 1277.642704 172.692614 
L 1278.880962 173.034352 
L 1280.119219 174.19672 
L 1281.357476 175.593869 
L 1282.595733 176.128018 
L 1283.833991 175.392223 
L 1285.072248 173.706229 
L 1287.548762 169.629986 
L 1288.78702 168.591752 
L 1290.025277 168.716363 
L 1291.263534 169.379693 
L 1292.501791 169.274678 
L 1293.740049 167.377744 
L 1294.978306 163.719435 
L 1296.216563 159.243942 
L 1297.454821 155.405345 
L 1298.693078 153.636841 
L 1299.931335 154.614552 
L 1301.169592 157.973559 
L 1303.646107 166.963577 
L 1304.884364 169.922323 
L 1306.122621 171.367845 
L 1307.360879 172.198971 
L 1308.599136 173.281578 
L 1311.07565 176.12977 
L 1312.313908 176.651577 
L 1313.552165 175.763432 
L 1314.790422 173.399017 
L 1316.02868 169.951565 
L 1318.505194 162.537688 
L 1319.743451 160.022243 
L 1320.981709 159.054289 
L 1322.219966 159.708835 
L 1323.458223 161.693423 
L 1327.172995 170.334137 
L 1328.411252 172.043287 
L 1329.649509 172.662624 
L 1330.887767 172.846021 
L 1332.126024 173.413252 
L 1333.364281 174.452929 
L 1334.602539 174.976465 
L 1335.840796 173.626505 
L 1337.079053 170.037479 
L 1338.31731 165.441667 
L 1339.555568 161.876482 
L 1340.793825 160.737689 
L 1342.032082 161.716515 
L 1343.270339 163.100449 
L 1344.508597 163.474771 
L 1345.746854 162.874072 
L 1346.985111 162.12299 
L 1348.223368 161.867932 
L 1349.461626 162.361619 
L 1350.699883 163.509202 
L 1351.93814 164.835687 
L 1353.176398 165.474097 
L 1354.414655 164.696435 
L 1355.652912 162.561417 
L 1356.891169 159.920993 
L 1358.129427 157.872198 
L 1359.367684 156.896679 
L 1361.844198 156.266036 
L 1363.082456 155.775426 
L 1364.320713 155.519741 
L 1365.55897 155.632804 
L 1366.797228 155.552173 
L 1369.273742 154.613321 
L 1370.511999 154.701771 
L 1371.750257 154.907863 
L 1372.988514 154.788387 
L 1374.226771 154.542882 
L 1375.465028 154.9051 
L 1376.703286 155.998446 
L 1377.941543 156.39304 
L 1379.1798 154.397574 
L 1380.418057 150.314678 
L 1381.656315 146.768541 
L 1382.894572 146.492872 
L 1384.132829 149.949041 
L 1387.847601 166.625268 
L 1389.085858 168.935167 
L 1390.324116 168.818815 
L 1392.80063 165.855717 
L 1394.038887 164.96118 
L 1395.277145 164.576057 
L 1396.515402 164.041375 
L 1398.991916 162.365188 
L 1401.468431 161.298269 
L 1402.706688 160.122228 
L 1403.944946 157.845539 
L 1405.183203 154.146101 
L 1406.42146 149.689073 
L 1407.659717 146.075927 
L 1408.897975 144.865599 
L 1410.136232 146.634445 
L 1411.374489 150.644016 
L 1412.612746 155.329667 
L 1413.851004 159.409039 
L 1415.089261 162.620487 
L 1416.327518 165.084783 
L 1417.565775 166.405845 
L 1418.804033 166.119823 
L 1420.04229 164.303068 
L 1421.280547 161.158239 
L 1423.757062 152.713598 
L 1424.995319 149.568738 
L 1426.233576 148.47065 
L 1427.471834 149.600809 
L 1429.948348 154.950623 
L 1431.186605 156.952852 
L 1432.424863 157.74061 
L 1433.66312 157.142324 
L 1436.139634 154.001138 
L 1437.377892 153.820261 
L 1438.616149 155.195601 
L 1439.854406 157.023762 
L 1441.092664 158.118132 
L 1442.330921 158.010824 
L 1443.569178 156.480414 
L 1444.807435 153.486361 
L 1447.28395 145.969476 
L 1448.522207 143.091291 
L 1449.760464 141.470084 
L 1450.998722 141.518028 
L 1452.236979 143.020456 
L 1453.475236 144.807086 
L 1454.713494 145.487096 
L 1455.951751 144.579678 
L 1457.190008 142.863542 
L 1458.428265 141.729014 
L 1459.666523 142.509152 
L 1460.90478 145.895273 
L 1463.381294 155.952962 
L 1464.619552 157.992833 
L 1465.857809 156.019111 
L 1467.096066 150.549019 
L 1468.334323 143.66555 
L 1469.572581 137.99654 
L 1470.810838 135.266411 
L 1472.049095 135.337427 
L 1474.52561 137.851932 
L 1475.763867 138.460534 
L 1477.002124 138.539853 
L 1478.240382 138.166178 
L 1479.478639 137.926738 
L 1480.716896 138.831323 
L 1481.955153 141.196256 
L 1484.431668 147.950775 
L 1485.669925 149.966537 
L 1486.908182 149.131159 
L 1488.14644 145.543873 
L 1490.622954 136.190577 
L 1491.861212 133.358931 
L 1493.099469 132.338315 
L 1494.337726 132.260983 
L 1495.575983 132.071206 
L 1496.814241 131.130916 
L 1498.052498 129.423427 
L 1500.529012 125.337915 
L 1501.76727 123.834737 
L 1503.005527 123.234453 
L 1504.243784 123.36925 
L 1505.482041 123.773936 
L 1506.720299 124.492195 
L 1509.196813 126.915615 
L 1510.435071 128.188318 
L 1512.911585 131.169642 
L 1514.149842 132.277764 
L 1515.3881 133.00772 
L 1516.626357 134.439346 
L 1517.864614 137.834307 
L 1519.102871 142.690275 
L 1520.341129 146.844913 
L 1521.579386 148.813931 
L 1522.817643 148.799118 
L 1524.0559 147.596421 
L 1525.294158 146.026932 
L 1526.532415 145.390073 
L 1527.770672 147.043523 
L 1530.247187 154.93587 
L 1531.485444 157.023476 
L 1532.723701 156.952382 
L 1535.200216 154.908773 
L 1536.438473 154.305744 
L 1538.914988 153.704323 
L 1540.153245 153.137982 
L 1541.391502 152.02618 
L 1542.62976 150.293703 
L 1545.106274 145.924502 
L 1546.344531 144.184566 
L 1547.582789 143.379045 
L 1548.821046 143.4446 
L 1551.29756 143.984546 
L 1552.535818 144.768574 
L 1553.774075 146.546814 
L 1555.012332 148.737525 
L 1556.250589 150.522554 
L 1557.488847 151.536172 
L 1558.727104 151.667583 
L 1559.965361 151.091019 
L 1561.203619 150.377613 
L 1562.441876 150.094189 
L 1564.91839 150.643381 
L 1566.156648 150.306817 
L 1567.394905 149.033458 
L 1568.633162 147.417704 
L 1569.871419 146.379949 
L 1571.109677 146.450722 
L 1572.347934 147.923788 
L 1573.586191 150.851902 
L 1574.824448 154.225377 
L 1576.062706 156.006882 
L 1577.300963 154.931596 
L 1578.53922 151.95304 
L 1579.777478 149.360878 
L 1581.015735 148.877836 
L 1582.253992 150.856708 
L 1584.730507 158.124118 
L 1585.968764 160.28988 
L 1587.207021 160.319006 
L 1588.445278 158.312905 
L 1589.683536 154.569416 
L 1592.16005 145.555845 
L 1593.398307 142.72162 
L 1594.636565 141.682164 
L 1595.874822 142.250021 
L 1598.351337 145.73049 
L 1599.589594 146.590435 
L 1600.827851 145.952329 
L 1603.304366 142.587077 
L 1604.542623 142.332809 
L 1605.78088 143.721119 
L 1607.019137 145.393146 
L 1608.257395 144.908528 
L 1609.495652 139.567918 
L 1610.733909 127.268114 
L 1611.972166 107.458684 
L 1614.448681 58.593543 
L 1615.686938 47.979282 
L 1616.925196 56.742074 
L 1618.163453 78.700685 
L 1619.40171 102.745522 
L 1620.639967 122.698256 
L 1621.878225 136.884205 
L 1623.116482 144.440708 
L 1624.354739 144.774558 
L 1625.592996 138.647314 
L 1629.307768 107.945958 
L 1630.546026 100.812435 
L 1631.784283 94.492342 
L 1634.260797 79.960431 
L 1635.499055 75.685673 
L 1636.737312 76.644141 
L 1637.975569 82.327514 
L 1639.213826 90.749547 
L 1641.690341 109.913078 
L 1641.690341 109.913078 
" style="fill:none;stroke:#008000;stroke-linecap:square;stroke-width:1.5;"/>
   </g>
   <g id="patch_3">
    <path d="M 43.78125 586.86358 
L 43.78125 22.318125 
" style="fill:none;stroke:#000000;stroke-linecap:square;stroke-linejoin:miter;stroke-width:0.8;"/>
   </g>
   <g id="patch_4">
    <path d="M 1717.78125 586.86358 
L 1717.78125 22.318125 
" style="fill:none;stroke:#000000;stroke-linecap:square;stroke-linejoin:miter;stroke-width:0.8;"/>
   </g>
   <g id="patch_5">
    <path d="M 43.78125 586.86358 
L 1717.78125 586.86358 
" style="fill:none;stroke:#000000;stroke-linecap:square;stroke-linejoin:miter;stroke-width:0.8;"/>
   </g>
   <g id="patch_6">
    <path d="M 43.78125 22.318125 
L 1717.78125 22.318125 
" style="fill:none;stroke:#000000;stroke-linecap:square;stroke-linejoin:miter;stroke-width:0.8;"/>
   </g>
   <g id="text_16">
    <!-- before binarisation -->
    <g transform="translate(824.1825 16.318125)scale(0.12 -0.12)">
     <defs>
      <path d="M 3116 1747 
Q 3116 2381 2855 2742 
Q 2594 3103 2138 3103 
Q 1681 3103 1420 2742 
Q 1159 2381 1159 1747 
Q 1159 1113 1420 752 
Q 1681 391 2138 391 
Q 2594 391 2855 752 
Q 3116 1113 3116 1747 
z
M 1159 2969 
Q 1341 3281 1617 3432 
Q 1894 3584 2278 3584 
Q 2916 3584 3314 3078 
Q 3713 2572 3713 1747 
Q 3713 922 3314 415 
Q 2916 -91 2278 -91 
Q 1894 -91 1617 61 
Q 1341 213 1159 525 
L 1159 0 
L 581 0 
L 581 4863 
L 1159 4863 
L 1159 2969 
z
" id="DejaVuSans-62" transform="scale(0.015625)"/>
      <path d="M 1959 3097 
Q 1497 3097 1228 2736 
Q 959 2375 959 1747 
Q 959 1119 1226 758 
Q 1494 397 1959 397 
Q 2419 397 2687 759 
Q 2956 1122 2956 1747 
Q 2956 2369 2687 2733 
Q 2419 3097 1959 3097 
z
M 1959 3584 
Q 2709 3584 3137 3096 
Q 3566 2609 3566 1747 
Q 3566 888 3137 398 
Q 2709 -91 1959 -91 
Q 1206 -91 779 398 
Q 353 888 353 1747 
Q 353 2609 779 3096 
Q 1206 3584 1959 3584 
z
" id="DejaVuSans-6f" transform="scale(0.015625)"/>
      <path id="DejaVuSans-20" transform="scale(0.015625)"/>
      <path d="M 603 3500 
L 1178 3500 
L 1178 0 
L 603 0 
L 603 3500 
z
M 603 4863 
L 1178 4863 
L 1178 4134 
L 603 4134 
L 603 4863 
z
" id="DejaVuSans-69" transform="scale(0.015625)"/>
      <path d="M 3513 2113 
L 3513 0 
L 2938 0 
L 2938 2094 
Q 2938 2591 2744 2837 
Q 2550 3084 2163 3084 
Q 1697 3084 1428 2787 
Q 1159 2491 1159 1978 
L 1159 0 
L 581 0 
L 581 3500 
L 1159 3500 
L 1159 2956 
Q 1366 3272 1645 3428 
Q 1925 3584 2291 3584 
Q 2894 3584 3203 3211 
Q 3513 2838 3513 2113 
z
" id="DejaVuSans-6e" transform="scale(0.015625)"/>
      <path d="M 2834 3397 
L 2834 2853 
Q 2591 2978 2328 3040 
Q 2066 3103 1784 3103 
Q 1356 3103 1142 2972 
Q 928 2841 928 2578 
Q 928 2378 1081 2264 
Q 1234 2150 1697 2047 
L 1894 2003 
Q 2506 1872 2764 1633 
Q 3022 1394 3022 966 
Q 3022 478 2636 193 
Q 2250 -91 1575 -91 
Q 1294 -91 989 -36 
Q 684 19 347 128 
L 347 722 
Q 666 556 975 473 
Q 1284 391 1588 391 
Q 1994 391 2212 530 
Q 2431 669 2431 922 
Q 2431 1156 2273 1281 
Q 2116 1406 1581 1522 
L 1381 1569 
Q 847 1681 609 1914 
Q 372 2147 372 2553 
Q 372 3047 722 3315 
Q 1072 3584 1716 3584 
Q 2034 3584 2315 3537 
Q 2597 3491 2834 3397 
z
" id="DejaVuSans-73" transform="scale(0.015625)"/>
      <path d="M 1172 4494 
L 1172 3500 
L 2356 3500 
L 2356 3053 
L 1172 3053 
L 1172 1153 
Q 1172 725 1289 603 
Q 1406 481 1766 481 
L 2356 481 
L 2356 0 
L 1766 0 
Q 1100 0 847 248 
Q 594 497 594 1153 
L 594 3053 
L 172 3053 
L 172 3500 
L 594 3500 
L 594 4494 
L 1172 4494 
z
" id="DejaVuSans-74" transform="scale(0.015625)"/>
     </defs>
     <use xlink:href="#DejaVuSans-62"/>
     <use x="63.476562" xlink:href="#DejaVuSans-65"/>
     <use x="125" xlink:href="#DejaVuSans-66"/>
     <use x="160.205078" xlink:href="#DejaVuSans-6f"/>
     <use x="221.386719" xlink:href="#DejaVuSans-72"/>
     <use x="260.25" xlink:href="#DejaVuSans-65"/>
     <use x="321.773438" xlink:href="#DejaVuSans-20"/>
     <use x="353.560547" xlink:href="#DejaVuSans-62"/>
     <use x="417.037109" xlink:href="#DejaVuSans-69"/>
     <use x="444.820312" xlink:href="#DejaVuSans-6e"/>
     <use x="508.199219" xlink:href="#DejaVuSans-61"/>
     <use x="569.478516" xlink:href="#DejaVuSans-72"/>
     <use x="610.591797" xlink:href="#DejaVuSans-69"/>
     <use x="638.375" xlink:href="#DejaVuSans-73"/>
     <use x="690.474609" xlink:href="#DejaVuSans-61"/>
     <use x="751.753906" xlink:href="#DejaVuSans-74"/>
     <use x="790.962891" xlink:href="#DejaVuSans-69"/>
     <use x="818.746094" xlink:href="#DejaVuSans-6f"/>
     <use x="879.927734" xlink:href="#DejaVuSans-6e"/>
    </g>
   </g>
  </g>
  <g id="axes_2">
   <g id="patch_7">
    <path d="M 43.78125 1264.318125 
L 1717.78125 1264.318125 
L 1717.78125 699.77267 
L 43.78125 699.77267 
z
" style="fill:#ffffff;"/>
   </g>
   <g id="matplotlib.axis_3">
    <g id="xtick_8">
     <g id="line2d_15">
      <g>
       <use style="stroke:#000000;stroke-width:0.8;" x="119.872159" xlink:href="#m162e98b199" y="1264.318125"/>
      </g>
     </g>
     <g id="text_17">
      <!-- 0 -->
      <g transform="translate(116.690909 1278.916563)scale(0.1 -0.1)">
       <use xlink:href="#DejaVuSans-30"/>
      </g>
     </g>
    </g>
    <g id="xtick_9">
     <g id="line2d_16">
      <g>
       <use style="stroke:#000000;stroke-width:0.8;" x="367.523613" xlink:href="#m162e98b199" y="1264.318125"/>
      </g>
     </g>
     <g id="text_18">
      <!-- 200 -->
      <g transform="translate(357.979863 1278.916563)scale(0.1 -0.1)">
       <use xlink:href="#DejaVuSans-32"/>
       <use x="63.623047" xlink:href="#DejaVuSans-30"/>
       <use x="127.246094" xlink:href="#DejaVuSans-30"/>
      </g>
     </g>
    </g>
    <g id="xtick_10">
     <g id="line2d_17">
      <g>
       <use style="stroke:#000000;stroke-width:0.8;" x="615.175066" xlink:href="#m162e98b199" y="1264.318125"/>
      </g>
     </g>
     <g id="text_19">
      <!-- 400 -->
      <g transform="translate(605.631316 1278.916563)scale(0.1 -0.1)">
       <use xlink:href="#DejaVuSans-34"/>
       <use x="63.623047" xlink:href="#DejaVuSans-30"/>
       <use x="127.246094" xlink:href="#DejaVuSans-30"/>
      </g>
     </g>
    </g>
    <g id="xtick_11">
     <g id="line2d_18">
      <g>
       <use style="stroke:#000000;stroke-width:0.8;" x="862.82652" xlink:href="#m162e98b199" y="1264.318125"/>
      </g>
     </g>
     <g id="text_20">
      <!-- 600 -->
      <g transform="translate(853.28277 1278.916563)scale(0.1 -0.1)">
       <use xlink:href="#DejaVuSans-36"/>
       <use x="63.623047" xlink:href="#DejaVuSans-30"/>
       <use x="127.246094" xlink:href="#DejaVuSans-30"/>
      </g>
     </g>
    </g>
    <g id="xtick_12">
     <g id="line2d_19">
      <g>
       <use style="stroke:#000000;stroke-width:0.8;" x="1110.477973" xlink:href="#m162e98b199" y="1264.318125"/>
      </g>
     </g>
     <g id="text_21">
      <!-- 800 -->
      <g transform="translate(1100.934223 1278.916563)scale(0.1 -0.1)">
       <use xlink:href="#DejaVuSans-38"/>
       <use x="63.623047" xlink:href="#DejaVuSans-30"/>
       <use x="127.246094" xlink:href="#DejaVuSans-30"/>
      </g>
     </g>
    </g>
    <g id="xtick_13">
     <g id="line2d_20">
      <g>
       <use style="stroke:#000000;stroke-width:0.8;" x="1358.129427" xlink:href="#m162e98b199" y="1264.318125"/>
      </g>
     </g>
     <g id="text_22">
      <!-- 1000 -->
      <g transform="translate(1345.404427 1278.916563)scale(0.1 -0.1)">
       <use xlink:href="#DejaVuSans-31"/>
       <use x="63.623047" xlink:href="#DejaVuSans-30"/>
       <use x="127.246094" xlink:href="#DejaVuSans-30"/>
       <use x="190.869141" xlink:href="#DejaVuSans-30"/>
      </g>
     </g>
    </g>
    <g id="xtick_14">
     <g id="line2d_21">
      <g>
       <use style="stroke:#000000;stroke-width:0.8;" x="1605.78088" xlink:href="#m162e98b199" y="1264.318125"/>
      </g>
     </g>
     <g id="text_23">
      <!-- 1200 -->
      <g transform="translate(1593.05588 1278.916563)scale(0.1 -0.1)">
       <use xlink:href="#DejaVuSans-31"/>
       <use x="63.623047" xlink:href="#DejaVuSans-32"/>
       <use x="127.246094" xlink:href="#DejaVuSans-30"/>
       <use x="190.869141" xlink:href="#DejaVuSans-30"/>
      </g>
     </g>
    </g>
    <g id="text_24">
     <!-- frame -->
     <g transform="translate(865.954687 1292.594688)scale(0.1 -0.1)">
      <use xlink:href="#DejaVuSans-66"/>
      <use x="35.205078" xlink:href="#DejaVuSans-72"/>
      <use x="76.318359" xlink:href="#DejaVuSans-61"/>
      <use x="137.597656" xlink:href="#DejaVuSans-6d"/>
      <use x="235.009766" xlink:href="#DejaVuSans-65"/>
     </g>
    </g>
   </g>
   <g id="matplotlib.axis_4">
    <g id="ytick_7">
     <g id="line2d_22">
      <g>
       <use style="stroke:#000000;stroke-width:0.8;" x="43.78125" xlink:href="#m8eafdf2e57" y="1238.656968"/>
      </g>
     </g>
     <g id="text_25">
      <!-- 0.0 -->
      <g transform="translate(20.878125 1242.456187)scale(0.1 -0.1)">
       <use xlink:href="#DejaVuSans-30"/>
       <use x="63.623047" xlink:href="#DejaVuSans-2e"/>
       <use x="95.410156" xlink:href="#DejaVuSans-30"/>
      </g>
     </g>
    </g>
    <g id="ytick_8">
     <g id="line2d_23">
      <g>
       <use style="stroke:#000000;stroke-width:0.8;" x="43.78125" xlink:href="#m8eafdf2e57" y="1136.01234"/>
      </g>
     </g>
     <g id="text_26">
      <!-- 0.2 -->
      <g transform="translate(20.878125 1139.811559)scale(0.1 -0.1)">
       <use xlink:href="#DejaVuSans-30"/>
       <use x="63.623047" xlink:href="#DejaVuSans-2e"/>
       <use x="95.410156" xlink:href="#DejaVuSans-32"/>
      </g>
     </g>
    </g>
    <g id="ytick_9">
     <g id="line2d_24">
      <g>
       <use style="stroke:#000000;stroke-width:0.8;" x="43.78125" xlink:href="#m8eafdf2e57" y="1033.367712"/>
      </g>
     </g>
     <g id="text_27">
      <!-- 0.4 -->
      <g transform="translate(20.878125 1037.166931)scale(0.1 -0.1)">
       <use xlink:href="#DejaVuSans-30"/>
       <use x="63.623047" xlink:href="#DejaVuSans-2e"/>
       <use x="95.410156" xlink:href="#DejaVuSans-34"/>
      </g>
     </g>
    </g>
    <g id="ytick_10">
     <g id="line2d_25">
      <g>
       <use style="stroke:#000000;stroke-width:0.8;" x="43.78125" xlink:href="#m8eafdf2e57" y="930.723084"/>
      </g>
     </g>
     <g id="text_28">
      <!-- 0.6 -->
      <g transform="translate(20.878125 934.522302)scale(0.1 -0.1)">
       <use xlink:href="#DejaVuSans-30"/>
       <use x="63.623047" xlink:href="#DejaVuSans-2e"/>
       <use x="95.410156" xlink:href="#DejaVuSans-36"/>
      </g>
     </g>
    </g>
    <g id="ytick_11">
     <g id="line2d_26">
      <g>
       <use style="stroke:#000000;stroke-width:0.8;" x="43.78125" xlink:href="#m8eafdf2e57" y="828.078456"/>
      </g>
     </g>
     <g id="text_29">
      <!-- 0.8 -->
      <g transform="translate(20.878125 831.877674)scale(0.1 -0.1)">
       <use xlink:href="#DejaVuSans-30"/>
       <use x="63.623047" xlink:href="#DejaVuSans-2e"/>
       <use x="95.410156" xlink:href="#DejaVuSans-38"/>
      </g>
     </g>
    </g>
    <g id="ytick_12">
     <g id="line2d_27">
      <g>
       <use style="stroke:#000000;stroke-width:0.8;" x="43.78125" xlink:href="#m8eafdf2e57" y="725.433827"/>
      </g>
     </g>
     <g id="text_30">
      <!-- 1.0 -->
      <g transform="translate(20.878125 729.233046)scale(0.1 -0.1)">
       <use xlink:href="#DejaVuSans-31"/>
       <use x="63.623047" xlink:href="#DejaVuSans-2e"/>
       <use x="95.410156" xlink:href="#DejaVuSans-30"/>
      </g>
     </g>
    </g>
    <g id="text_31">
     <!-- GCaMP -->
     <g transform="translate(14.798437 999.803991)rotate(-90)scale(0.1 -0.1)">
      <use xlink:href="#DejaVuSans-47"/>
      <use x="77.490234" xlink:href="#DejaVuSans-43"/>
      <use x="147.314453" xlink:href="#DejaVuSans-61"/>
      <use x="208.59375" xlink:href="#DejaVuSans-4d"/>
      <use x="294.873047" xlink:href="#DejaVuSans-50"/>
     </g>
    </g>
   </g>
   <g id="line2d_28">
    <path clip-path="url(#p8cf39e0638)" d="M 119.872159 1238.656968 
L 958.172329 1238.656968 
L 959.410586 725.433827 
L 973.031416 725.433827 
L 974.269674 1238.656968 
L 1294.978306 1238.656968 
L 1296.216563 725.433827 
L 1301.169592 725.433827 
L 1302.40785 1238.656968 
L 1319.743451 1238.656968 
L 1320.981709 725.433827 
L 1322.219966 725.433827 
L 1323.458223 1238.656968 
L 1356.891169 1238.656968 
L 1358.129427 725.433827 
L 1385.371087 725.433827 
L 1386.609344 1238.656968 
L 1402.706688 1238.656968 
L 1403.944946 725.433827 
L 1413.851004 725.433827 
L 1415.089261 1238.656968 
L 1421.280547 1238.656968 
L 1422.518805 725.433827 
L 1584.730507 725.433827 
L 1585.968764 1238.656968 
L 1587.207021 1238.656968 
L 1588.445278 725.433827 
L 1641.690341 725.433827 
L 1641.690341 725.433827 
" style="fill:none;stroke:#008000;stroke-linecap:square;stroke-width:1.5;"/>
   </g>
   <g id="patch_8">
    <path d="M 43.78125 1264.318125 
L 43.78125 699.77267 
" style="fill:none;stroke:#000000;stroke-linecap:square;stroke-linejoin:miter;stroke-width:0.8;"/>
   </g>
   <g id="patch_9">
    <path d="M 1717.78125 1264.318125 
L 1717.78125 699.77267 
" style="fill:none;stroke:#000000;stroke-linecap:square;stroke-linejoin:miter;stroke-width:0.8;"/>
   </g>
   <g id="patch_10">
    <path d="M 43.78125 1264.318125 
L 1717.78125 1264.318125 
" style="fill:none;stroke:#000000;stroke-linecap:square;stroke-linejoin:miter;stroke-width:0.8;"/>
   </g>
   <g id="patch_11">
    <path d="M 43.78125 699.77267 
L 1717.78125 699.77267 
" style="fill:none;stroke:#000000;stroke-linecap:square;stroke-linejoin:miter;stroke-width:0.8;"/>
   </g>
   <g id="text_32">
    <!-- before binarisation -->
    <g transform="translate(824.1825 693.77267)scale(0.12 -0.12)">
     <use xlink:href="#DejaVuSans-62"/>
     <use x="63.476562" xlink:href="#DejaVuSans-65"/>
     <use x="125" xlink:href="#DejaVuSans-66"/>
     <use x="160.205078" xlink:href="#DejaVuSans-6f"/>
     <use x="221.386719" xlink:href="#DejaVuSans-72"/>
     <use x="260.25" xlink:href="#DejaVuSans-65"/>
     <use x="321.773438" xlink:href="#DejaVuSans-20"/>
     <use x="353.560547" xlink:href="#DejaVuSans-62"/>
     <use x="417.037109" xlink:href="#DejaVuSans-69"/>
     <use x="444.820312" xlink:href="#DejaVuSans-6e"/>
     <use x="508.199219" xlink:href="#DejaVuSans-61"/>
     <use x="569.478516" xlink:href="#DejaVuSans-72"/>
     <use x="610.591797" xlink:href="#DejaVuSans-69"/>
     <use x="638.375" xlink:href="#DejaVuSans-73"/>
     <use x="690.474609" xlink:href="#DejaVuSans-61"/>
     <use x="751.753906" xlink:href="#DejaVuSans-74"/>
     <use x="790.962891" xlink:href="#DejaVuSans-69"/>
     <use x="818.746094" xlink:href="#DejaVuSans-6f"/>
     <use x="879.927734" xlink:href="#DejaVuSans-6e"/>
    </g>
   </g>
  </g>
 </g>
 <defs>
  <clipPath id="p5dd9b231f2">
   <rect height="564.545455" width="1674" x="43.78125" y="22.318125"/>
  </clipPath>
  <clipPath id="p8cf39e0638">
   <rect height="564.545455" width="1674" x="43.78125" y="699.77267"/>
  </clipPath>
 </defs>
</svg>
