<?xml version="1.0" encoding="utf-8" standalone="no"?>
<!DOCTYPE svg PUBLIC "-//W3C//DTD SVG 1.1//EN"
  "http://www.w3.org/Graphics/SVG/1.1/DTD/svg11.dtd">
<svg height="1301.874375pt" version="1.1" viewBox="0 0 1724.98125 1301.874375" width="1724.98125pt" xmlns="http://www.w3.org/2000/svg" xmlns:xlink="http://www.w3.org/1999/xlink">
 <metadata>
  <rdf:RDF xmlns:cc="http://creativecommons.org/ns#" xmlns:dc="http://purl.org/dc/elements/1.1/" xmlns:rdf="http://www.w3.org/1999/02/22-rdf-syntax-ns#">
   <cc:Work>
    <dc:type rdf:resource="http://purl.org/dc/dcmitype/StillImage"/>
    <dc:date>2022-07-24T15:54:39.060797</dc:date>
    <dc:format>image/svg+xml</dc:format>
    <dc:creator>
     <cc:Agent>
      <dc:title>Matplotlib v3.4.2, https://matplotlib.org/</dc:title>
     </cc:Agent>
    </dc:creator>
   </cc:Work>
  </rdf:RDF>
 </metadata>
 <defs>
  <style type="text/css">*{stroke-linecap:butt;stroke-linejoin:round;}</style>
 </defs>
 <g id="figure_1">
  <g id="patch_1">
   <path d="M 0 1301.874375 
L 1724.98125 1301.874375 
L 1724.98125 0 
L 0 0 
z
" style="fill:#ffffff;"/>
  </g>
  <g id="axes_1">
   <g id="patch_2">
    <path d="M 43.78125 586.86358 
L 1717.78125 586.86358 
L 1717.78125 22.318125 
L 43.78125 22.318125 
z
" style="fill:#ffffff;"/>
   </g>
   <g id="matplotlib.axis_1">
    <g id="xtick_1">
     <g id="line2d_1">
      <defs>
       <path d="M 0 0 
L 0 3.5 
" id="m79354120f9" style="stroke:#000000;stroke-width:0.8;"/>
      </defs>
      <g>
       <use style="stroke:#000000;stroke-width:0.8;" x="119.872159" xlink:href="#m79354120f9" y="586.86358"/>
      </g>
     </g>
     <g id="text_1">
      <!-- 0 -->
      <g transform="translate(116.690909 601.462017)scale(0.1 -0.1)">
       <defs>
        <path d="M 2034 4250 
Q 1547 4250 1301 3770 
Q 1056 3291 1056 2328 
Q 1056 1369 1301 889 
Q 1547 409 2034 409 
Q 2525 409 2770 889 
Q 3016 1369 3016 2328 
Q 3016 3291 2770 3770 
Q 2525 4250 2034 4250 
z
M 2034 4750 
Q 2819 4750 3233 4129 
Q 3647 3509 3647 2328 
Q 3647 1150 3233 529 
Q 2819 -91 2034 -91 
Q 1250 -91 836 529 
Q 422 1150 422 2328 
Q 422 3509 836 4129 
Q 1250 4750 2034 4750 
z
" id="DejaVuSans-30" transform="scale(0.015625)"/>
       </defs>
       <use xlink:href="#DejaVuSans-30"/>
      </g>
     </g>
    </g>
    <g id="xtick_2">
     <g id="line2d_2">
      <g>
       <use style="stroke:#000000;stroke-width:0.8;" x="367.523613" xlink:href="#m79354120f9" y="586.86358"/>
      </g>
     </g>
     <g id="text_2">
      <!-- 200 -->
      <g transform="translate(357.979863 601.462017)scale(0.1 -0.1)">
       <defs>
        <path d="M 1228 531 
L 3431 531 
L 3431 0 
L 469 0 
L 469 531 
Q 828 903 1448 1529 
Q 2069 2156 2228 2338 
Q 2531 2678 2651 2914 
Q 2772 3150 2772 3378 
Q 2772 3750 2511 3984 
Q 2250 4219 1831 4219 
Q 1534 4219 1204 4116 
Q 875 4013 500 3803 
L 500 4441 
Q 881 4594 1212 4672 
Q 1544 4750 1819 4750 
Q 2544 4750 2975 4387 
Q 3406 4025 3406 3419 
Q 3406 3131 3298 2873 
Q 3191 2616 2906 2266 
Q 2828 2175 2409 1742 
Q 1991 1309 1228 531 
z
" id="DejaVuSans-32" transform="scale(0.015625)"/>
       </defs>
       <use xlink:href="#DejaVuSans-32"/>
       <use x="63.623047" xlink:href="#DejaVuSans-30"/>
       <use x="127.246094" xlink:href="#DejaVuSans-30"/>
      </g>
     </g>
    </g>
    <g id="xtick_3">
     <g id="line2d_3">
      <g>
       <use style="stroke:#000000;stroke-width:0.8;" x="615.175066" xlink:href="#m79354120f9" y="586.86358"/>
      </g>
     </g>
     <g id="text_3">
      <!-- 400 -->
      <g transform="translate(605.631316 601.462017)scale(0.1 -0.1)">
       <defs>
        <path d="M 2419 4116 
L 825 1625 
L 2419 1625 
L 2419 4116 
z
M 2253 4666 
L 3047 4666 
L 3047 1625 
L 3713 1625 
L 3713 1100 
L 3047 1100 
L 3047 0 
L 2419 0 
L 2419 1100 
L 313 1100 
L 313 1709 
L 2253 4666 
z
" id="DejaVuSans-34" transform="scale(0.015625)"/>
       </defs>
       <use xlink:href="#DejaVuSans-34"/>
       <use x="63.623047" xlink:href="#DejaVuSans-30"/>
       <use x="127.246094" xlink:href="#DejaVuSans-30"/>
      </g>
     </g>
    </g>
    <g id="xtick_4">
     <g id="line2d_4">
      <g>
       <use style="stroke:#000000;stroke-width:0.8;" x="862.82652" xlink:href="#m79354120f9" y="586.86358"/>
      </g>
     </g>
     <g id="text_4">
      <!-- 600 -->
      <g transform="translate(853.28277 601.462017)scale(0.1 -0.1)">
       <defs>
        <path d="M 2113 2584 
Q 1688 2584 1439 2293 
Q 1191 2003 1191 1497 
Q 1191 994 1439 701 
Q 1688 409 2113 409 
Q 2538 409 2786 701 
Q 3034 994 3034 1497 
Q 3034 2003 2786 2293 
Q 2538 2584 2113 2584 
z
M 3366 4563 
L 3366 3988 
Q 3128 4100 2886 4159 
Q 2644 4219 2406 4219 
Q 1781 4219 1451 3797 
Q 1122 3375 1075 2522 
Q 1259 2794 1537 2939 
Q 1816 3084 2150 3084 
Q 2853 3084 3261 2657 
Q 3669 2231 3669 1497 
Q 3669 778 3244 343 
Q 2819 -91 2113 -91 
Q 1303 -91 875 529 
Q 447 1150 447 2328 
Q 447 3434 972 4092 
Q 1497 4750 2381 4750 
Q 2619 4750 2861 4703 
Q 3103 4656 3366 4563 
z
" id="DejaVuSans-36" transform="scale(0.015625)"/>
       </defs>
       <use xlink:href="#DejaVuSans-36"/>
       <use x="63.623047" xlink:href="#DejaVuSans-30"/>
       <use x="127.246094" xlink:href="#DejaVuSans-30"/>
      </g>
     </g>
    </g>
    <g id="xtick_5">
     <g id="line2d_5">
      <g>
       <use style="stroke:#000000;stroke-width:0.8;" x="1110.477973" xlink:href="#m79354120f9" y="586.86358"/>
      </g>
     </g>
     <g id="text_5">
      <!-- 800 -->
      <g transform="translate(1100.934223 601.462017)scale(0.1 -0.1)">
       <defs>
        <path d="M 2034 2216 
Q 1584 2216 1326 1975 
Q 1069 1734 1069 1313 
Q 1069 891 1326 650 
Q 1584 409 2034 409 
Q 2484 409 2743 651 
Q 3003 894 3003 1313 
Q 3003 1734 2745 1975 
Q 2488 2216 2034 2216 
z
M 1403 2484 
Q 997 2584 770 2862 
Q 544 3141 544 3541 
Q 544 4100 942 4425 
Q 1341 4750 2034 4750 
Q 2731 4750 3128 4425 
Q 3525 4100 3525 3541 
Q 3525 3141 3298 2862 
Q 3072 2584 2669 2484 
Q 3125 2378 3379 2068 
Q 3634 1759 3634 1313 
Q 3634 634 3220 271 
Q 2806 -91 2034 -91 
Q 1263 -91 848 271 
Q 434 634 434 1313 
Q 434 1759 690 2068 
Q 947 2378 1403 2484 
z
M 1172 3481 
Q 1172 3119 1398 2916 
Q 1625 2713 2034 2713 
Q 2441 2713 2670 2916 
Q 2900 3119 2900 3481 
Q 2900 3844 2670 4047 
Q 2441 4250 2034 4250 
Q 1625 4250 1398 4047 
Q 1172 3844 1172 3481 
z
" id="DejaVuSans-38" transform="scale(0.015625)"/>
       </defs>
       <use xlink:href="#DejaVuSans-38"/>
       <use x="63.623047" xlink:href="#DejaVuSans-30"/>
       <use x="127.246094" xlink:href="#DejaVuSans-30"/>
      </g>
     </g>
    </g>
    <g id="xtick_6">
     <g id="line2d_6">
      <g>
       <use style="stroke:#000000;stroke-width:0.8;" x="1358.129427" xlink:href="#m79354120f9" y="586.86358"/>
      </g>
     </g>
     <g id="text_6">
      <!-- 1000 -->
      <g transform="translate(1345.404427 601.462017)scale(0.1 -0.1)">
       <defs>
        <path d="M 794 531 
L 1825 531 
L 1825 4091 
L 703 3866 
L 703 4441 
L 1819 4666 
L 2450 4666 
L 2450 531 
L 3481 531 
L 3481 0 
L 794 0 
L 794 531 
z
" id="DejaVuSans-31" transform="scale(0.015625)"/>
       </defs>
       <use xlink:href="#DejaVuSans-31"/>
       <use x="63.623047" xlink:href="#DejaVuSans-30"/>
       <use x="127.246094" xlink:href="#DejaVuSans-30"/>
       <use x="190.869141" xlink:href="#DejaVuSans-30"/>
      </g>
     </g>
    </g>
    <g id="xtick_7">
     <g id="line2d_7">
      <g>
       <use style="stroke:#000000;stroke-width:0.8;" x="1605.78088" xlink:href="#m79354120f9" y="586.86358"/>
      </g>
     </g>
     <g id="text_7">
      <!-- 1200 -->
      <g transform="translate(1593.05588 601.462017)scale(0.1 -0.1)">
       <use xlink:href="#DejaVuSans-31"/>
       <use x="63.623047" xlink:href="#DejaVuSans-32"/>
       <use x="127.246094" xlink:href="#DejaVuSans-30"/>
       <use x="190.869141" xlink:href="#DejaVuSans-30"/>
      </g>
     </g>
    </g>
    <g id="text_8">
     <!-- frame -->
     <g transform="translate(865.954687 615.140142)scale(0.1 -0.1)">
      <defs>
       <path d="M 2375 4863 
L 2375 4384 
L 1825 4384 
Q 1516 4384 1395 4259 
Q 1275 4134 1275 3809 
L 1275 3500 
L 2222 3500 
L 2222 3053 
L 1275 3053 
L 1275 0 
L 697 0 
L 697 3053 
L 147 3053 
L 147 3500 
L 697 3500 
L 697 3744 
Q 697 4328 969 4595 
Q 1241 4863 1831 4863 
L 2375 4863 
z
" id="DejaVuSans-66" transform="scale(0.015625)"/>
       <path d="M 2631 2963 
Q 2534 3019 2420 3045 
Q 2306 3072 2169 3072 
Q 1681 3072 1420 2755 
Q 1159 2438 1159 1844 
L 1159 0 
L 581 0 
L 581 3500 
L 1159 3500 
L 1159 2956 
Q 1341 3275 1631 3429 
Q 1922 3584 2338 3584 
Q 2397 3584 2469 3576 
Q 2541 3569 2628 3553 
L 2631 2963 
z
" id="DejaVuSans-72" transform="scale(0.015625)"/>
       <path d="M 2194 1759 
Q 1497 1759 1228 1600 
Q 959 1441 959 1056 
Q 959 750 1161 570 
Q 1363 391 1709 391 
Q 2188 391 2477 730 
Q 2766 1069 2766 1631 
L 2766 1759 
L 2194 1759 
z
M 3341 1997 
L 3341 0 
L 2766 0 
L 2766 531 
Q 2569 213 2275 61 
Q 1981 -91 1556 -91 
Q 1019 -91 701 211 
Q 384 513 384 1019 
Q 384 1609 779 1909 
Q 1175 2209 1959 2209 
L 2766 2209 
L 2766 2266 
Q 2766 2663 2505 2880 
Q 2244 3097 1772 3097 
Q 1472 3097 1187 3025 
Q 903 2953 641 2809 
L 641 3341 
Q 956 3463 1253 3523 
Q 1550 3584 1831 3584 
Q 2591 3584 2966 3190 
Q 3341 2797 3341 1997 
z
" id="DejaVuSans-61" transform="scale(0.015625)"/>
       <path d="M 3328 2828 
Q 3544 3216 3844 3400 
Q 4144 3584 4550 3584 
Q 5097 3584 5394 3201 
Q 5691 2819 5691 2113 
L 5691 0 
L 5113 0 
L 5113 2094 
Q 5113 2597 4934 2840 
Q 4756 3084 4391 3084 
Q 3944 3084 3684 2787 
Q 3425 2491 3425 1978 
L 3425 0 
L 2847 0 
L 2847 2094 
Q 2847 2600 2669 2842 
Q 2491 3084 2119 3084 
Q 1678 3084 1418 2786 
Q 1159 2488 1159 1978 
L 1159 0 
L 581 0 
L 581 3500 
L 1159 3500 
L 1159 2956 
Q 1356 3278 1631 3431 
Q 1906 3584 2284 3584 
Q 2666 3584 2933 3390 
Q 3200 3197 3328 2828 
z
" id="DejaVuSans-6d" transform="scale(0.015625)"/>
       <path d="M 3597 1894 
L 3597 1613 
L 953 1613 
Q 991 1019 1311 708 
Q 1631 397 2203 397 
Q 2534 397 2845 478 
Q 3156 559 3463 722 
L 3463 178 
Q 3153 47 2828 -22 
Q 2503 -91 2169 -91 
Q 1331 -91 842 396 
Q 353 884 353 1716 
Q 353 2575 817 3079 
Q 1281 3584 2069 3584 
Q 2775 3584 3186 3129 
Q 3597 2675 3597 1894 
z
M 3022 2063 
Q 3016 2534 2758 2815 
Q 2500 3097 2075 3097 
Q 1594 3097 1305 2825 
Q 1016 2553 972 2059 
L 3022 2063 
z
" id="DejaVuSans-65" transform="scale(0.015625)"/>
      </defs>
      <use xlink:href="#DejaVuSans-66"/>
      <use x="35.205078" xlink:href="#DejaVuSans-72"/>
      <use x="76.318359" xlink:href="#DejaVuSans-61"/>
      <use x="137.597656" xlink:href="#DejaVuSans-6d"/>
      <use x="235.009766" xlink:href="#DejaVuSans-65"/>
     </g>
    </g>
   </g>
   <g id="matplotlib.axis_2">
    <g id="ytick_1">
     <g id="line2d_8">
      <defs>
       <path d="M 0 0 
L -3.5 0 
" id="m42dd7bab7d" style="stroke:#000000;stroke-width:0.8;"/>
      </defs>
      <g>
       <use style="stroke:#000000;stroke-width:0.8;" x="43.78125" xlink:href="#m42dd7bab7d" y="534.226944"/>
      </g>
     </g>
     <g id="text_9">
      <!-- 1.0 -->
      <g transform="translate(20.878125 538.026163)scale(0.1 -0.1)">
       <defs>
        <path d="M 684 794 
L 1344 794 
L 1344 0 
L 684 0 
L 684 794 
z
" id="DejaVuSans-2e" transform="scale(0.015625)"/>
       </defs>
       <use xlink:href="#DejaVuSans-31"/>
       <use x="63.623047" xlink:href="#DejaVuSans-2e"/>
       <use x="95.410156" xlink:href="#DejaVuSans-30"/>
      </g>
     </g>
    </g>
    <g id="ytick_2">
     <g id="line2d_9">
      <g>
       <use style="stroke:#000000;stroke-width:0.8;" x="43.78125" xlink:href="#m42dd7bab7d" y="470.177931"/>
      </g>
     </g>
     <g id="text_10">
      <!-- 1.5 -->
      <g transform="translate(20.878125 473.97715)scale(0.1 -0.1)">
       <defs>
        <path d="M 691 4666 
L 3169 4666 
L 3169 4134 
L 1269 4134 
L 1269 2991 
Q 1406 3038 1543 3061 
Q 1681 3084 1819 3084 
Q 2600 3084 3056 2656 
Q 3513 2228 3513 1497 
Q 3513 744 3044 326 
Q 2575 -91 1722 -91 
Q 1428 -91 1123 -41 
Q 819 9 494 109 
L 494 744 
Q 775 591 1075 516 
Q 1375 441 1709 441 
Q 2250 441 2565 725 
Q 2881 1009 2881 1497 
Q 2881 1984 2565 2268 
Q 2250 2553 1709 2553 
Q 1456 2553 1204 2497 
Q 953 2441 691 2322 
L 691 4666 
z
" id="DejaVuSans-35" transform="scale(0.015625)"/>
       </defs>
       <use xlink:href="#DejaVuSans-31"/>
       <use x="63.623047" xlink:href="#DejaVuSans-2e"/>
       <use x="95.410156" xlink:href="#DejaVuSans-35"/>
      </g>
     </g>
    </g>
    <g id="ytick_3">
     <g id="line2d_10">
      <g>
       <use style="stroke:#000000;stroke-width:0.8;" x="43.78125" xlink:href="#m42dd7bab7d" y="406.128918"/>
      </g>
     </g>
     <g id="text_11">
      <!-- 2.0 -->
      <g transform="translate(20.878125 409.928137)scale(0.1 -0.1)">
       <use xlink:href="#DejaVuSans-32"/>
       <use x="63.623047" xlink:href="#DejaVuSans-2e"/>
       <use x="95.410156" xlink:href="#DejaVuSans-30"/>
      </g>
     </g>
    </g>
    <g id="ytick_4">
     <g id="line2d_11">
      <g>
       <use style="stroke:#000000;stroke-width:0.8;" x="43.78125" xlink:href="#m42dd7bab7d" y="342.079905"/>
      </g>
     </g>
     <g id="text_12">
      <!-- 2.5 -->
      <g transform="translate(20.878125 345.879124)scale(0.1 -0.1)">
       <use xlink:href="#DejaVuSans-32"/>
       <use x="63.623047" xlink:href="#DejaVuSans-2e"/>
       <use x="95.410156" xlink:href="#DejaVuSans-35"/>
      </g>
     </g>
    </g>
    <g id="ytick_5">
     <g id="line2d_12">
      <g>
       <use style="stroke:#000000;stroke-width:0.8;" x="43.78125" xlink:href="#m42dd7bab7d" y="278.030893"/>
      </g>
     </g>
     <g id="text_13">
      <!-- 3.0 -->
      <g transform="translate(20.878125 281.830111)scale(0.1 -0.1)">
       <defs>
        <path d="M 2597 2516 
Q 3050 2419 3304 2112 
Q 3559 1806 3559 1356 
Q 3559 666 3084 287 
Q 2609 -91 1734 -91 
Q 1441 -91 1130 -33 
Q 819 25 488 141 
L 488 750 
Q 750 597 1062 519 
Q 1375 441 1716 441 
Q 2309 441 2620 675 
Q 2931 909 2931 1356 
Q 2931 1769 2642 2001 
Q 2353 2234 1838 2234 
L 1294 2234 
L 1294 2753 
L 1863 2753 
Q 2328 2753 2575 2939 
Q 2822 3125 2822 3475 
Q 2822 3834 2567 4026 
Q 2313 4219 1838 4219 
Q 1578 4219 1281 4162 
Q 984 4106 628 3988 
L 628 4550 
Q 988 4650 1302 4700 
Q 1616 4750 1894 4750 
Q 2613 4750 3031 4423 
Q 3450 4097 3450 3541 
Q 3450 3153 3228 2886 
Q 3006 2619 2597 2516 
z
" id="DejaVuSans-33" transform="scale(0.015625)"/>
       </defs>
       <use xlink:href="#DejaVuSans-33"/>
       <use x="63.623047" xlink:href="#DejaVuSans-2e"/>
       <use x="95.410156" xlink:href="#DejaVuSans-30"/>
      </g>
     </g>
    </g>
    <g id="ytick_6">
     <g id="line2d_13">
      <g>
       <use style="stroke:#000000;stroke-width:0.8;" x="43.78125" xlink:href="#m42dd7bab7d" y="213.98188"/>
      </g>
     </g>
     <g id="text_14">
      <!-- 3.5 -->
      <g transform="translate(20.878125 217.781098)scale(0.1 -0.1)">
       <use xlink:href="#DejaVuSans-33"/>
       <use x="63.623047" xlink:href="#DejaVuSans-2e"/>
       <use x="95.410156" xlink:href="#DejaVuSans-35"/>
      </g>
     </g>
    </g>
    <g id="ytick_7">
     <g id="line2d_14">
      <g>
       <use style="stroke:#000000;stroke-width:0.8;" x="43.78125" xlink:href="#m42dd7bab7d" y="149.932867"/>
      </g>
     </g>
     <g id="text_15">
      <!-- 4.0 -->
      <g transform="translate(20.878125 153.732086)scale(0.1 -0.1)">
       <use xlink:href="#DejaVuSans-34"/>
       <use x="63.623047" xlink:href="#DejaVuSans-2e"/>
       <use x="95.410156" xlink:href="#DejaVuSans-30"/>
      </g>
     </g>
    </g>
    <g id="ytick_8">
     <g id="line2d_15">
      <g>
       <use style="stroke:#000000;stroke-width:0.8;" x="43.78125" xlink:href="#m42dd7bab7d" y="85.883854"/>
      </g>
     </g>
     <g id="text_16">
      <!-- 4.5 -->
      <g transform="translate(20.878125 89.683073)scale(0.1 -0.1)">
       <use xlink:href="#DejaVuSans-34"/>
       <use x="63.623047" xlink:href="#DejaVuSans-2e"/>
       <use x="95.410156" xlink:href="#DejaVuSans-35"/>
      </g>
     </g>
    </g>
    <g id="text_17">
     <!-- GCaMP -->
     <g transform="translate(14.798437 322.349446)rotate(-90)scale(0.1 -0.1)">
      <defs>
       <path d="M 3809 666 
L 3809 1919 
L 2778 1919 
L 2778 2438 
L 4434 2438 
L 4434 434 
Q 4069 175 3628 42 
Q 3188 -91 2688 -91 
Q 1594 -91 976 548 
Q 359 1188 359 2328 
Q 359 3472 976 4111 
Q 1594 4750 2688 4750 
Q 3144 4750 3555 4637 
Q 3966 4525 4313 4306 
L 4313 3634 
Q 3963 3931 3569 4081 
Q 3175 4231 2741 4231 
Q 1884 4231 1454 3753 
Q 1025 3275 1025 2328 
Q 1025 1384 1454 906 
Q 1884 428 2741 428 
Q 3075 428 3337 486 
Q 3600 544 3809 666 
z
" id="DejaVuSans-47" transform="scale(0.015625)"/>
       <path d="M 4122 4306 
L 4122 3641 
Q 3803 3938 3442 4084 
Q 3081 4231 2675 4231 
Q 1875 4231 1450 3742 
Q 1025 3253 1025 2328 
Q 1025 1406 1450 917 
Q 1875 428 2675 428 
Q 3081 428 3442 575 
Q 3803 722 4122 1019 
L 4122 359 
Q 3791 134 3420 21 
Q 3050 -91 2638 -91 
Q 1578 -91 968 557 
Q 359 1206 359 2328 
Q 359 3453 968 4101 
Q 1578 4750 2638 4750 
Q 3056 4750 3426 4639 
Q 3797 4528 4122 4306 
z
" id="DejaVuSans-43" transform="scale(0.015625)"/>
       <path d="M 628 4666 
L 1569 4666 
L 2759 1491 
L 3956 4666 
L 4897 4666 
L 4897 0 
L 4281 0 
L 4281 4097 
L 3078 897 
L 2444 897 
L 1241 4097 
L 1241 0 
L 628 0 
L 628 4666 
z
" id="DejaVuSans-4d" transform="scale(0.015625)"/>
       <path d="M 1259 4147 
L 1259 2394 
L 2053 2394 
Q 2494 2394 2734 2622 
Q 2975 2850 2975 3272 
Q 2975 3691 2734 3919 
Q 2494 4147 2053 4147 
L 1259 4147 
z
M 628 4666 
L 2053 4666 
Q 2838 4666 3239 4311 
Q 3641 3956 3641 3272 
Q 3641 2581 3239 2228 
Q 2838 1875 2053 1875 
L 1259 1875 
L 1259 0 
L 628 0 
L 628 4666 
z
" id="DejaVuSans-50" transform="scale(0.015625)"/>
      </defs>
      <use xlink:href="#DejaVuSans-47"/>
      <use x="77.490234" xlink:href="#DejaVuSans-43"/>
      <use x="147.314453" xlink:href="#DejaVuSans-61"/>
      <use x="208.59375" xlink:href="#DejaVuSans-4d"/>
      <use x="294.873047" xlink:href="#DejaVuSans-50"/>
     </g>
    </g>
   </g>
   <g id="line2d_16">
    <path clip-path="url(#p6e6c7782e0)" d="M 119.872159 530.303213 
L 121.110416 533.59902 
L 122.348674 536.195438 
L 123.586931 537.451597 
L 124.825188 536.946175 
L 126.063445 534.743053 
L 128.53996 528.243367 
L 129.778217 526.143576 
L 131.016474 525.789906 
L 132.254732 526.92039 
L 135.969504 532.312289 
L 137.207761 534.388317 
L 139.684275 539.190925 
L 140.922533 541.18184 
L 142.16079 542.387333 
L 143.399047 542.818214 
L 145.875562 542.938497 
L 148.352076 543.247174 
L 149.590334 543.318292 
L 150.828591 543.725139 
L 152.066848 544.831561 
L 153.305105 546.603233 
L 155.78162 550.852928 
L 157.019877 552.716079 
L 158.258134 554.131052 
L 159.496392 555.109947 
L 160.734649 555.780369 
L 161.972906 556.201169 
L 163.211163 556.344874 
L 164.449421 556.218062 
L 165.687678 555.96796 
L 166.925935 555.902923 
L 168.164193 556.297687 
L 169.40245 557.118306 
L 171.878964 558.951561 
L 173.117222 559.581963 
L 174.355479 559.885578 
L 175.593736 559.73713 
L 176.831993 559.030178 
L 179.308508 556.701188 
L 180.546765 556.109005 
L 181.785022 556.502132 
L 184.261537 558.79572 
L 185.499794 559.489552 
L 186.738052 559.682751 
L 187.976309 559.50233 
L 189.214566 558.980135 
L 190.452823 558.111229 
L 192.929338 555.920898 
L 194.167595 555.0769 
L 195.405852 554.690632 
L 196.64411 554.830471 
L 200.358881 556.431317 
L 201.597139 556.559993 
L 205.311911 555.95117 
L 206.550168 556.107278 
L 207.788425 556.493409 
L 209.026682 557.045622 
L 211.503197 558.38372 
L 212.741454 558.785467 
L 213.979711 558.776939 
L 216.456226 558.282285 
L 217.694483 558.342715 
L 220.170998 558.690112 
L 222.647512 558.59309 
L 230.077056 559.11209 
L 231.315313 558.966006 
L 232.55357 558.521303 
L 233.791828 557.71385 
L 237.5066 554.375047 
L 238.744857 554.172314 
L 239.983114 554.799029 
L 241.221371 556.189698 
L 243.697886 559.745839 
L 244.936143 560.858798 
L 246.1744 561.202423 
L 248.650915 560.790546 
L 249.889172 560.571375 
L 251.127429 560.057316 
L 252.365687 558.866759 
L 256.080459 553.422982 
L 257.318716 552.317311 
L 258.556973 551.7034 
L 259.79523 551.777579 
L 261.033488 552.674426 
L 263.510002 555.776769 
L 264.748259 556.832858 
L 265.986517 557.087866 
L 267.224774 556.773706 
L 269.701288 555.852779 
L 270.939546 555.604003 
L 273.41606 555.412868 
L 275.892575 554.691328 
L 277.130832 554.578552 
L 278.369089 554.934834 
L 280.845604 556.252709 
L 282.083861 556.560398 
L 283.322118 556.355904 
L 287.03689 554.352964 
L 290.751662 553.048143 
L 291.989919 552.096708 
L 294.466434 549.25754 
L 295.704691 548.344469 
L 296.942948 548.389663 
L 298.181206 549.323839 
L 300.65772 552.357576 
L 303.134235 555.324823 
L 304.372492 556.65813 
L 305.610749 557.671457 
L 306.849006 558.130905 
L 308.087264 557.99402 
L 309.325521 557.336301 
L 311.802036 555.21774 
L 313.040293 554.607074 
L 314.27855 554.590857 
L 315.516807 554.988295 
L 316.755065 555.625543 
L 320.469836 558.027971 
L 321.708094 558.323533 
L 322.946351 558.064685 
L 324.184608 557.420132 
L 326.661123 555.702371 
L 327.89938 554.794967 
L 329.137637 554.055638 
L 330.375895 553.595672 
L 331.614152 553.354155 
L 332.852409 553.25097 
L 334.090666 553.293871 
L 336.567181 553.691832 
L 337.805438 553.68573 
L 339.043695 553.118286 
L 340.281953 551.837954 
L 341.52021 550.220897 
L 342.758467 548.939331 
L 343.996725 548.383558 
L 345.234982 548.544117 
L 347.711496 549.858052 
L 348.949754 550.227364 
L 351.426268 550.498596 
L 353.902783 550.923853 
L 355.14104 550.979588 
L 356.379297 550.83092 
L 360.094069 549.75368 
L 361.332326 549.89854 
L 365.047098 551.246974 
L 366.285355 551.358298 
L 367.523613 550.988692 
L 368.76187 550.077406 
L 372.476642 546.256265 
L 373.714899 545.563196 
L 374.953156 545.350924 
L 377.429671 545.479449 
L 378.667928 545.229631 
L 382.3827 543.486897 
L 383.620957 543.324496 
L 384.859214 543.411466 
L 386.097472 543.745977 
L 387.335729 544.408884 
L 388.573986 545.259628 
L 389.812243 545.922641 
L 391.050501 546.160924 
L 397.241787 545.572017 
L 398.480044 545.116872 
L 399.718302 544.305782 
L 400.956559 543.254654 
L 402.194816 542.452876 
L 403.433073 542.532666 
L 404.671331 543.632765 
L 407.147845 546.774811 
L 408.386102 547.866994 
L 409.62436 548.452753 
L 410.862617 548.526351 
L 412.100874 548.137912 
L 413.339132 547.433132 
L 414.577389 546.513561 
L 415.815646 545.332304 
L 417.053903 543.958392 
L 418.292161 542.845393 
L 419.530418 542.584354 
L 420.768675 543.357299 
L 423.24519 546.044198 
L 424.483447 546.822015 
L 425.721704 546.941543 
L 429.436476 545.886596 
L 430.674733 545.795945 
L 431.912991 545.417733 
L 433.151248 544.518131 
L 436.86602 540.80919 
L 438.104277 540.25657 
L 439.342534 540.352685 
L 440.580791 540.961988 
L 443.057306 542.991391 
L 444.295563 543.966675 
L 449.248592 547.146848 
L 450.48685 547.772536 
L 451.725107 547.907729 
L 452.963364 547.493822 
L 454.201621 546.724039 
L 459.15465 543.131628 
L 460.392908 542.824522 
L 461.631165 542.879997 
L 464.107679 543.160907 
L 467.822451 543.041864 
L 469.060709 542.89119 
L 470.298966 542.569405 
L 471.537223 541.995038 
L 472.77548 541.101613 
L 474.013738 539.865746 
L 476.490252 536.95903 
L 477.728509 536.164791 
L 478.966767 536.332854 
L 480.205024 537.25643 
L 481.443281 538.400908 
L 482.681538 539.359841 
L 483.919796 539.912402 
L 485.158053 539.856613 
L 487.634568 538.540152 
L 488.872825 538.649583 
L 490.111082 539.71069 
L 492.587597 542.506139 
L 493.825854 543.407308 
L 495.064111 543.880053 
L 496.302368 543.969167 
L 497.540626 543.708024 
L 500.01714 542.629765 
L 504.970169 540.467885 
L 508.684941 539.327578 
L 509.923198 538.715731 
L 512.399713 537.223155 
L 513.63797 536.89882 
L 516.114485 537.096557 
L 517.352742 536.944046 
L 518.590999 536.366451 
L 521.067514 534.493735 
L 523.544028 532.622136 
L 524.782286 532.060842 
L 526.020543 532.035215 
L 527.2588 532.443951 
L 530.973572 533.978748 
L 533.450086 534.872618 
L 534.688344 535.014007 
L 535.926601 534.668451 
L 537.164858 533.768092 
L 538.403116 532.614323 
L 539.641373 531.82402 
L 540.87963 531.825485 
L 542.117887 532.498282 
L 544.594402 534.225392 
L 545.832659 534.524315 
L 547.070916 534.085139 
L 548.309174 532.984033 
L 550.785688 529.92386 
L 554.50046 525.03041 
L 555.738717 524.427204 
L 556.976975 524.940999 
L 559.453489 527.187915 
L 560.691746 527.913676 
L 561.930004 528.290572 
L 563.168261 528.490198 
L 564.406518 528.825632 
L 566.883033 530.151046 
L 568.12129 530.559834 
L 569.359547 530.350845 
L 570.597804 529.413662 
L 571.836062 527.94385 
L 574.312576 524.62181 
L 575.550834 523.415387 
L 576.789091 522.942962 
L 578.027348 523.175683 
L 580.503863 524.384247 
L 581.74212 524.741481 
L 582.980377 524.732184 
L 584.218634 524.416091 
L 585.456892 523.877709 
L 586.695149 523.123752 
L 587.933406 522.130106 
L 590.409921 519.686517 
L 591.648178 518.734997 
L 592.886435 518.255121 
L 597.839464 517.786765 
L 599.077722 518.019691 
L 600.315979 518.672699 
L 604.030751 521.680888 
L 605.269008 522.293072 
L 606.507265 522.245076 
L 607.745523 521.536115 
L 608.98378 520.669927 
L 610.222037 520.208876 
L 611.460294 520.302346 
L 613.936809 521.247927 
L 615.175066 521.372014 
L 616.413323 520.687097 
L 618.889838 517.935698 
L 620.128095 517.640599 
L 621.366352 518.402502 
L 625.081124 522.104814 
L 626.319382 522.85501 
L 628.795896 523.937768 
L 631.272411 525.194998 
L 632.510668 525.46656 
L 633.748925 525.604905 
L 636.22544 526.178197 
L 637.463697 526.125683 
L 638.701954 525.374607 
L 641.178469 522.722484 
L 642.416726 521.960163 
L 643.654983 521.847243 
L 646.131498 522.032572 
L 647.369755 521.901783 
L 648.608012 521.64204 
L 649.84627 521.136198 
L 651.084527 520.008679 
L 652.322784 517.852789 
L 653.561041 514.602453 
L 656.037556 506.872179 
L 658.51407 499.793011 
L 659.752328 495.069657 
L 660.990585 488.293637 
L 662.228842 478.992296 
L 663.4671 467.341161 
L 667.181871 428.631166 
L 672.1349 386.289021 
L 674.611415 358.237107 
L 675.849672 344.138694 
L 677.087929 332.552976 
L 678.326187 325.541576 
L 679.564444 323.76942 
L 680.802701 325.736428 
L 682.040959 328.791574 
L 683.279216 330.817514 
L 684.517473 330.940038 
L 685.75573 329.355511 
L 686.993988 326.975056 
L 688.232245 324.860166 
L 689.470502 323.6202 
L 691.947017 322.852027 
L 693.185274 321.21602 
L 694.423531 317.246808 
L 695.661789 311.160895 
L 696.900046 304.414075 
L 698.138303 298.644182 
L 699.37656 294.906538 
L 700.614818 293.572546 
L 701.853075 294.24523 
L 703.091332 296.070688 
L 705.567847 300.760451 
L 706.806104 302.243545 
L 708.044361 302.311925 
L 709.282618 301.533623 
L 710.520876 301.176883 
L 711.759133 301.815149 
L 712.99739 302.71472 
L 714.235648 302.974246 
L 715.473905 302.847052 
L 716.712162 303.568547 
L 717.950419 306.161105 
L 719.188677 310.706854 
L 722.903448 327.775112 
L 724.141706 331.593767 
L 725.379963 334.466268 
L 726.61822 336.850959 
L 727.856477 338.845713 
L 729.094735 340.338835 
L 730.332992 341.142174 
L 731.571249 341.120452 
L 732.809507 340.636056 
L 734.047764 340.550796 
L 735.286021 341.2921 
L 736.524278 342.320783 
L 737.762536 342.871589 
L 739.000793 342.704334 
L 740.23905 341.971343 
L 741.477307 341.048986 
L 742.715565 340.649198 
L 743.953822 341.459356 
L 745.192079 343.467543 
L 746.430336 346.080734 
L 747.668594 349.062849 
L 748.906851 352.772918 
L 751.383366 361.895029 
L 752.621623 365.602959 
L 753.85988 367.747931 
L 756.336395 369.279957 
L 757.574652 371.157753 
L 758.812909 374.674807 
L 761.289424 383.201001 
L 762.527681 386.286772 
L 765.004195 391.324567 
L 766.242453 394.297893 
L 767.48071 397.782828 
L 769.957225 405.811833 
L 772.433739 414.078111 
L 773.671996 417.678967 
L 777.386768 426.635773 
L 778.625025 431.132521 
L 781.10154 442.530156 
L 782.339797 447.250747 
L 783.578054 450.453873 
L 784.816312 453.010123 
L 786.054569 456.13403 
L 788.531084 463.518038 
L 789.769341 466.386048 
L 791.007598 468.553102 
L 794.72237 473.532884 
L 797.198884 477.345998 
L 798.437142 478.918237 
L 799.675399 480.061408 
L 800.913656 480.455045 
L 802.151914 479.515198 
L 803.390171 476.831663 
L 804.628428 472.694516 
L 805.866685 468.140147 
L 807.104943 464.439947 
L 808.3432 462.455916 
L 809.581457 462.401545 
L 810.819714 463.861332 
L 813.296229 467.839954 
L 814.534486 469.413324 
L 815.772743 470.806508 
L 817.011001 471.99713 
L 818.249258 472.805877 
L 819.487515 473.105354 
L 821.96403 472.779917 
L 823.202287 473.438128 
L 824.440544 475.316061 
L 826.917059 480.362146 
L 828.155316 482.415177 
L 830.631831 486.066157 
L 831.870088 487.683305 
L 833.108345 488.61382 
L 834.346602 488.59813 
L 835.58486 487.753045 
L 836.823117 486.321385 
L 838.061374 484.614394 
L 839.299632 483.171856 
L 840.537889 482.657345 
L 841.776146 483.377621 
L 844.252661 486.55731 
L 845.490918 487.557047 
L 846.729175 487.741657 
L 847.967432 487.269224 
L 849.20569 486.538 
L 850.443947 486.068501 
L 851.682204 486.312595 
L 852.920461 487.405422 
L 856.635233 492.307776 
L 857.873491 493.468446 
L 859.111748 494.021215 
L 860.350005 493.923943 
L 861.588262 493.395984 
L 862.82652 492.618753 
L 865.303034 490.531824 
L 866.541291 489.452689 
L 867.779549 488.566808 
L 869.017806 488.041211 
L 870.256063 488.091037 
L 871.49432 488.986616 
L 875.209092 493.906722 
L 876.44735 494.475817 
L 877.685607 494.32515 
L 882.638636 492.384043 
L 883.876893 492.001811 
L 885.11515 492.012135 
L 886.353408 492.507933 
L 888.829922 494.359784 
L 890.06818 494.769857 
L 891.306437 494.297217 
L 892.544694 493.201827 
L 893.782951 492.282101 
L 895.021209 492.238878 
L 897.497723 493.654186 
L 898.73598 493.800256 
L 899.974238 493.459622 
L 902.450752 492.318951 
L 903.689009 491.669383 
L 904.927267 490.826558 
L 906.165524 489.665061 
L 909.880296 485.545529 
L 911.118553 484.431728 
L 912.35681 483.638813 
L 914.833325 482.690162 
L 916.071582 481.910059 
L 918.548097 479.99918 
L 919.786354 479.285333 
L 921.024611 478.421994 
L 922.262868 476.976385 
L 923.501126 474.85492 
L 927.215898 466.959152 
L 928.454155 465.454097 
L 929.692412 465.101317 
L 930.930669 465.534894 
L 932.168927 466.189318 
L 933.407184 466.356837 
L 934.645441 465.42829 
L 937.121956 461.492209 
L 938.360213 460.460446 
L 939.59847 460.674704 
L 940.836727 461.501197 
L 942.074985 462.043342 
L 943.313242 461.7622 
L 944.551499 460.615236 
L 945.789757 458.826185 
L 947.028014 456.402677 
L 948.266271 452.848536 
L 949.504528 447.446896 
L 950.742786 439.8737 
L 956.934072 394.211607 
L 959.410586 378.640274 
L 960.648844 371.890523 
L 961.887101 366.413599 
L 963.125358 362.448127 
L 964.363616 359.725498 
L 965.601873 357.727543 
L 966.84013 356.359056 
L 968.078387 356.068483 
L 969.316645 357.116831 
L 970.554902 358.923142 
L 971.793159 360.304516 
L 973.031416 360.48786 
L 974.269674 359.851924 
L 975.507931 359.567336 
L 976.746188 360.534189 
L 979.222703 364.951144 
L 980.46096 366.420214 
L 981.699217 366.400942 
L 982.937475 364.756146 
L 984.175732 361.942269 
L 986.652246 355.864341 
L 987.890504 353.620362 
L 989.128761 352.059488 
L 991.605275 349.448692 
L 994.08179 346.702413 
L 997.796562 343.138842 
L 999.034819 341.879352 
L 1000.273076 340.841399 
L 1001.511334 340.348048 
L 1002.749591 340.524891 
L 1003.987848 340.916288 
L 1005.226105 340.617486 
L 1006.464363 338.780761 
L 1007.70262 334.781131 
L 1008.940877 327.921993 
L 1010.179134 317.342285 
L 1011.417392 302.478266 
L 1012.655649 283.494202 
L 1013.893906 261.121316 
L 1018.846935 164.203681 
L 1020.085193 146.574518 
L 1021.32345 133.017832 
L 1022.561707 122.810177 
L 1023.799964 114.964787 
L 1025.038222 108.740066 
L 1026.276479 103.767231 
L 1027.514736 99.809889 
L 1031.229508 89.403394 
L 1036.182537 74.076157 
L 1037.420794 68.997809 
L 1039.897309 57.98705 
L 1041.135566 53.716236 
L 1042.373823 51.095133 
L 1043.612081 49.694285 
L 1044.850338 48.727464 
L 1046.088595 47.979282 
L 1047.326852 48.172782 
L 1048.56511 50.570023 
L 1049.803367 55.854599 
L 1052.279882 70.194046 
L 1053.518139 75.158535 
L 1054.756396 77.452454 
L 1057.232911 78.968489 
L 1058.471168 80.792862 
L 1059.709425 84.277934 
L 1060.947682 90.213711 
L 1062.18594 99.039145 
L 1065.900711 132.476332 
L 1068.377226 156.20389 
L 1070.853741 182.091723 
L 1072.091998 193.386849 
L 1073.330255 202.848678 
L 1074.568512 210.714097 
L 1077.045027 224.585851 
L 1078.283284 231.085657 
L 1079.521541 236.547712 
L 1080.759799 240.158775 
L 1081.998056 241.781304 
L 1083.236313 242.413701 
L 1084.474571 243.603085 
L 1085.712828 246.237089 
L 1086.951085 249.404711 
L 1088.189342 250.586569 
L 1089.4276 247.740688 
L 1090.665857 240.787773 
L 1091.904114 230.623496 
L 1093.142371 217.857531 
L 1096.857143 174.927066 
L 1100.571915 137.5336 
L 1101.810172 125.979707 
L 1103.04843 116.177612 
L 1104.286687 108.613127 
L 1105.524944 102.813632 
L 1108.001459 93.13793 
L 1109.239716 88.868936 
L 1110.477973 85.361933 
L 1111.71623 83.242078 
L 1112.954488 83.178595 
L 1114.192745 85.221936 
L 1116.669259 91.663563 
L 1117.907517 93.697799 
L 1119.145774 94.131722 
L 1120.384031 93.117803 
L 1122.860546 89.517746 
L 1124.098803 88.849763 
L 1125.33706 89.694473 
L 1126.575318 91.896728 
L 1127.813575 95.123832 
L 1131.528347 107.368421 
L 1132.766604 109.784709 
L 1134.004861 109.9126 
L 1135.243118 107.857894 
L 1136.481376 104.900709 
L 1137.719633 102.802276 
L 1138.95789 102.841985 
L 1140.196148 105.306023 
L 1141.434405 109.437473 
L 1143.910919 118.267793 
L 1145.149177 121.085621 
L 1146.387434 121.705841 
L 1147.625691 120.976908 
L 1148.863948 121.30326 
L 1150.102206 124.207083 
L 1151.340463 129.204716 
L 1152.57872 134.850448 
L 1153.816977 139.967605 
L 1155.055235 144.501682 
L 1156.293492 149.541247 
L 1157.531749 156.051299 
L 1160.008264 171.520855 
L 1161.246521 177.331869 
L 1162.484778 179.672255 
L 1163.723036 178.140143 
L 1164.961293 173.003519 
L 1166.19955 164.098668 
L 1167.437807 151.221328 
L 1169.914322 120.650835 
L 1171.152579 109.697131 
L 1172.390837 104.809985 
L 1173.629094 106.173486 
L 1174.867351 112.78171 
L 1176.105608 122.880565 
L 1178.582123 144.950415 
L 1179.82038 153.725653 
L 1181.058637 159.933594 
L 1182.296895 163.148942 
L 1183.535152 163.536434 
L 1184.773409 162.134437 
L 1186.011666 160.482375 
L 1187.249924 159.852993 
L 1188.488181 160.890937 
L 1189.726438 163.900374 
L 1190.964696 168.808936 
L 1192.202953 174.691616 
L 1193.44121 179.951648 
L 1194.679467 183.465535 
L 1195.917725 185.490993 
L 1197.155982 186.955456 
L 1198.394239 188.029413 
L 1199.632496 188.145751 
L 1200.870754 187.112762 
L 1202.109011 185.58832 
L 1203.347268 184.746411 
L 1204.585525 185.57056 
L 1205.823783 188.299249 
L 1208.300297 196.743792 
L 1209.538555 199.872283 
L 1210.776812 200.806531 
L 1212.015069 199.115222 
L 1213.253326 194.962998 
L 1214.491584 189.122835 
L 1216.968098 175.894615 
L 1218.206355 170.670677 
L 1219.444613 168.370049 
L 1220.68287 169.385262 
L 1221.921127 172.075621 
L 1223.159384 174.317311 
L 1224.397642 175.584653 
L 1225.635899 176.487539 
L 1226.874156 176.95397 
L 1228.112414 175.907578 
L 1229.350671 172.036903 
L 1230.588928 164.244876 
L 1233.065443 140.363508 
L 1234.3037 131.071852 
L 1235.541957 126.598007 
L 1236.780214 126.025665 
L 1238.018472 128.107421 
L 1239.256729 132.449759 
L 1240.494986 138.581716 
L 1242.971501 153.303141 
L 1246.686273 179.172045 
L 1247.92453 185.410355 
L 1249.162787 188.743775 
L 1250.401044 189.79205 
L 1251.639302 189.537196 
L 1252.877559 188.720695 
L 1254.115816 188.246872 
L 1255.354073 189.317734 
L 1256.592331 192.661693 
L 1261.54536 212.490183 
L 1262.783617 216.79299 
L 1264.021874 220.233486 
L 1265.260132 222.49223 
L 1266.498389 223.898465 
L 1268.974903 226.19154 
L 1270.213161 227.779657 
L 1275.16619 235.967693 
L 1276.404447 238.893936 
L 1277.642704 242.18402 
L 1278.880962 244.648394 
L 1280.119219 245.162738 
L 1281.357476 243.872602 
L 1282.595733 242.258409 
L 1283.833991 241.44014 
L 1285.072248 241.04944 
L 1286.310505 240.471063 
L 1287.548762 240.049064 
L 1288.78702 240.388172 
L 1291.263534 242.45107 
L 1292.501791 242.231789 
L 1293.740049 239.914834 
L 1296.216563 232.239477 
L 1297.454821 229.830937 
L 1298.693078 229.11603 
L 1299.931335 230.458043 
L 1301.169592 234.339875 
L 1302.40785 240.628424 
L 1306.122621 264.335555 
L 1307.360879 269.677366 
L 1308.599136 273.643399 
L 1309.837393 276.780229 
L 1311.07565 278.839509 
L 1312.313908 279.545394 
L 1313.552165 278.942916 
L 1314.790422 277.108737 
L 1317.266937 272.057437 
L 1319.743451 268.83566 
L 1320.981709 266.464627 
L 1323.458223 260.171646 
L 1324.69648 258.428228 
L 1325.934738 258.640217 
L 1327.172995 260.347576 
L 1328.411252 262.52573 
L 1329.649509 264.431508 
L 1330.887767 265.855164 
L 1332.126024 266.775777 
L 1333.364281 267.365295 
L 1334.602539 268.212509 
L 1335.840796 269.86112 
L 1337.079053 272.401198 
L 1338.31731 275.712008 
L 1340.793825 283.058165 
L 1342.032082 285.369107 
L 1343.270339 286.107853 
L 1344.508597 285.702577 
L 1346.985111 283.786664 
L 1348.223368 283.698631 
L 1349.461626 284.750891 
L 1350.699883 286.333671 
L 1351.93814 287.361508 
L 1353.176398 286.900082 
L 1354.414655 284.388551 
L 1355.652912 279.895021 
L 1358.129427 268.718225 
L 1359.367684 264.490173 
L 1360.605941 262.651077 
L 1361.844198 263.195553 
L 1363.082456 265.139702 
L 1365.55897 269.8357 
L 1366.797228 270.998609 
L 1368.035485 270.395986 
L 1369.273742 267.992118 
L 1374.226771 253.747083 
L 1375.465028 249.555438 
L 1377.941543 240.742705 
L 1379.1798 237.711539 
L 1380.418057 236.522029 
L 1381.656315 237.356722 
L 1382.894572 239.933026 
L 1385.371087 247.114485 
L 1386.609344 248.676717 
L 1387.847601 247.328668 
L 1389.085858 243.596857 
L 1390.324116 239.244447 
L 1391.562373 236.471842 
L 1392.80063 237.075702 
L 1394.038887 241.475291 
L 1396.515402 254.99126 
L 1397.753659 260.124879 
L 1398.991916 262.57814 
L 1400.230174 262.459612 
L 1401.468431 261.576844 
L 1402.706688 262.047705 
L 1403.944946 264.530957 
L 1406.42146 271.988734 
L 1407.659717 274.995944 
L 1408.897975 276.814071 
L 1410.136232 277.472012 
L 1411.374489 277.950523 
L 1412.612746 279.455283 
L 1415.089261 284.580108 
L 1416.327518 286.311249 
L 1417.565775 286.809004 
L 1418.804033 286.085112 
L 1420.04229 284.349517 
L 1421.280547 281.630518 
L 1422.518805 277.808923 
L 1426.233576 263.769276 
L 1427.471834 261.974415 
L 1428.710091 263.056215 
L 1429.948348 266.500046 
L 1431.186605 271.719837 
L 1433.66312 283.743864 
L 1434.901377 287.322991 
L 1436.139634 288.015893 
L 1437.377892 286.427662 
L 1438.616149 283.908653 
L 1439.854406 281.686021 
L 1441.092664 280.392165 
L 1442.330921 280.335496 
L 1443.569178 281.700949 
L 1446.045693 286.450311 
L 1447.28395 287.694585 
L 1448.522207 287.421775 
L 1449.760464 285.973688 
L 1450.998722 284.175842 
L 1452.236979 282.783777 
L 1453.475236 282.007285 
L 1454.713494 281.362635 
L 1455.951751 279.933456 
L 1457.190008 277.194754 
L 1458.428265 273.764304 
L 1459.666523 271.10686 
L 1460.90478 270.40288 
L 1462.143037 271.814779 
L 1463.381294 274.750251 
L 1464.619552 278.501328 
L 1468.334323 290.869331 
L 1469.572581 293.70868 
L 1470.810838 295.076839 
L 1472.049095 295.31285 
L 1473.287353 295.131137 
L 1474.52561 295.117668 
L 1475.763867 295.541982 
L 1477.002124 296.353351 
L 1478.240382 297.030823 
L 1479.478639 296.866754 
L 1480.716896 295.744079 
L 1481.955153 294.045587 
L 1483.193411 291.98551 
L 1485.669925 287.423995 
L 1486.908182 285.743331 
L 1488.14644 284.965893 
L 1489.384697 285.184892 
L 1490.622954 286.398648 
L 1491.861212 288.498945 
L 1493.099469 291.027416 
L 1494.337726 293.168019 
L 1495.575983 294.29127 
L 1496.814241 294.732371 
L 1498.052498 295.660875 
L 1499.290755 297.893534 
L 1500.529012 301.249022 
L 1501.76727 305.147548 
L 1503.005527 309.487599 
L 1504.243784 314.70339 
L 1507.958556 333.744041 
L 1510.435071 343.776632 
L 1512.911585 352.720037 
L 1514.149842 356.349384 
L 1516.626357 362.854836 
L 1517.864614 365.864929 
L 1519.102871 368.355331 
L 1522.817643 374.605424 
L 1524.0559 377.483362 
L 1527.770672 388.471241 
L 1529.00893 392.290341 
L 1531.485444 401.185136 
L 1532.723701 404.784999 
L 1533.961959 406.895754 
L 1535.200216 407.463272 
L 1536.438473 406.788783 
L 1537.67673 405.562451 
L 1538.914988 404.662147 
L 1540.153245 404.651371 
L 1541.391502 405.625443 
L 1542.62976 407.338914 
L 1546.344531 413.04049 
L 1550.059303 420.136009 
L 1552.535818 422.368997 
L 1553.774075 424.384507 
L 1555.012332 427.420009 
L 1556.250589 430.769453 
L 1557.488847 433.673589 
L 1558.727104 435.508979 
L 1559.965361 436.086602 
L 1561.203619 435.834599 
L 1562.441876 435.434638 
L 1563.680133 435.391541 
L 1564.91839 435.843393 
L 1566.156648 436.488679 
L 1567.394905 436.862726 
L 1569.871419 436.970336 
L 1571.109677 437.468479 
L 1572.347934 438.3864 
L 1576.062706 441.53635 
L 1577.300963 442.967028 
L 1579.777478 446.572085 
L 1581.015735 447.8668 
L 1582.253992 448.372356 
L 1583.492249 448.089999 
L 1585.968764 446.402106 
L 1587.207021 446.014898 
L 1588.445278 446.240396 
L 1589.683536 447.04443 
L 1590.921793 448.356087 
L 1592.16005 449.838848 
L 1593.398307 451.072558 
L 1594.636565 451.92857 
L 1595.874822 452.425117 
L 1597.113079 452.34195 
L 1598.351337 451.207421 
L 1599.589594 448.711222 
L 1600.827851 445.044125 
L 1602.066108 440.889356 
L 1603.304366 437.267384 
L 1604.542623 435.242105 
L 1605.78088 435.390925 
L 1607.019137 437.525266 
L 1609.495652 444.440901 
L 1610.733909 447.168452 
L 1611.972166 448.91199 
L 1615.686938 452.853514 
L 1616.925196 453.144372 
L 1618.163453 451.96148 
L 1619.40171 449.39413 
L 1621.878225 443.08103 
L 1623.116482 440.771629 
L 1624.354739 439.579596 
L 1625.592996 439.65832 
L 1626.831254 440.7167 
L 1629.307768 443.406051 
L 1630.546026 444.66614 
L 1631.784283 446.112302 
L 1634.260797 449.519591 
L 1635.499055 450.643875 
L 1637.975569 451.67624 
L 1639.213826 452.687011 
L 1640.452084 454.293031 
L 1641.690341 456.343777 
L 1641.690341 456.343777 
" style="fill:none;stroke:#008000;stroke-linecap:square;stroke-width:1.5;"/>
   </g>
   <g id="patch_3">
    <path d="M 43.78125 586.86358 
L 43.78125 22.318125 
" style="fill:none;stroke:#000000;stroke-linecap:square;stroke-linejoin:miter;stroke-width:0.8;"/>
   </g>
   <g id="patch_4">
    <path d="M 1717.78125 586.86358 
L 1717.78125 22.318125 
" style="fill:none;stroke:#000000;stroke-linecap:square;stroke-linejoin:miter;stroke-width:0.8;"/>
   </g>
   <g id="patch_5">
    <path d="M 43.78125 586.86358 
L 1717.78125 586.86358 
" style="fill:none;stroke:#000000;stroke-linecap:square;stroke-linejoin:miter;stroke-width:0.8;"/>
   </g>
   <g id="patch_6">
    <path d="M 43.78125 22.318125 
L 1717.78125 22.318125 
" style="fill:none;stroke:#000000;stroke-linecap:square;stroke-linejoin:miter;stroke-width:0.8;"/>
   </g>
   <g id="text_18">
    <!-- before binarisation -->
    <g transform="translate(824.1825 16.318125)scale(0.12 -0.12)">
     <defs>
      <path d="M 3116 1747 
Q 3116 2381 2855 2742 
Q 2594 3103 2138 3103 
Q 1681 3103 1420 2742 
Q 1159 2381 1159 1747 
Q 1159 1113 1420 752 
Q 1681 391 2138 391 
Q 2594 391 2855 752 
Q 3116 1113 3116 1747 
z
M 1159 2969 
Q 1341 3281 1617 3432 
Q 1894 3584 2278 3584 
Q 2916 3584 3314 3078 
Q 3713 2572 3713 1747 
Q 3713 922 3314 415 
Q 2916 -91 2278 -91 
Q 1894 -91 1617 61 
Q 1341 213 1159 525 
L 1159 0 
L 581 0 
L 581 4863 
L 1159 4863 
L 1159 2969 
z
" id="DejaVuSans-62" transform="scale(0.015625)"/>
      <path d="M 1959 3097 
Q 1497 3097 1228 2736 
Q 959 2375 959 1747 
Q 959 1119 1226 758 
Q 1494 397 1959 397 
Q 2419 397 2687 759 
Q 2956 1122 2956 1747 
Q 2956 2369 2687 2733 
Q 2419 3097 1959 3097 
z
M 1959 3584 
Q 2709 3584 3137 3096 
Q 3566 2609 3566 1747 
Q 3566 888 3137 398 
Q 2709 -91 1959 -91 
Q 1206 -91 779 398 
Q 353 888 353 1747 
Q 353 2609 779 3096 
Q 1206 3584 1959 3584 
z
" id="DejaVuSans-6f" transform="scale(0.015625)"/>
      <path id="DejaVuSans-20" transform="scale(0.015625)"/>
      <path d="M 603 3500 
L 1178 3500 
L 1178 0 
L 603 0 
L 603 3500 
z
M 603 4863 
L 1178 4863 
L 1178 4134 
L 603 4134 
L 603 4863 
z
" id="DejaVuSans-69" transform="scale(0.015625)"/>
      <path d="M 3513 2113 
L 3513 0 
L 2938 0 
L 2938 2094 
Q 2938 2591 2744 2837 
Q 2550 3084 2163 3084 
Q 1697 3084 1428 2787 
Q 1159 2491 1159 1978 
L 1159 0 
L 581 0 
L 581 3500 
L 1159 3500 
L 1159 2956 
Q 1366 3272 1645 3428 
Q 1925 3584 2291 3584 
Q 2894 3584 3203 3211 
Q 3513 2838 3513 2113 
z
" id="DejaVuSans-6e" transform="scale(0.015625)"/>
      <path d="M 2834 3397 
L 2834 2853 
Q 2591 2978 2328 3040 
Q 2066 3103 1784 3103 
Q 1356 3103 1142 2972 
Q 928 2841 928 2578 
Q 928 2378 1081 2264 
Q 1234 2150 1697 2047 
L 1894 2003 
Q 2506 1872 2764 1633 
Q 3022 1394 3022 966 
Q 3022 478 2636 193 
Q 2250 -91 1575 -91 
Q 1294 -91 989 -36 
Q 684 19 347 128 
L 347 722 
Q 666 556 975 473 
Q 1284 391 1588 391 
Q 1994 391 2212 530 
Q 2431 669 2431 922 
Q 2431 1156 2273 1281 
Q 2116 1406 1581 1522 
L 1381 1569 
Q 847 1681 609 1914 
Q 372 2147 372 2553 
Q 372 3047 722 3315 
Q 1072 3584 1716 3584 
Q 2034 3584 2315 3537 
Q 2597 3491 2834 3397 
z
" id="DejaVuSans-73" transform="scale(0.015625)"/>
      <path d="M 1172 4494 
L 1172 3500 
L 2356 3500 
L 2356 3053 
L 1172 3053 
L 1172 1153 
Q 1172 725 1289 603 
Q 1406 481 1766 481 
L 2356 481 
L 2356 0 
L 1766 0 
Q 1100 0 847 248 
Q 594 497 594 1153 
L 594 3053 
L 172 3053 
L 172 3500 
L 594 3500 
L 594 4494 
L 1172 4494 
z
" id="DejaVuSans-74" transform="scale(0.015625)"/>
     </defs>
     <use xlink:href="#DejaVuSans-62"/>
     <use x="63.476562" xlink:href="#DejaVuSans-65"/>
     <use x="125" xlink:href="#DejaVuSans-66"/>
     <use x="160.205078" xlink:href="#DejaVuSans-6f"/>
     <use x="221.386719" xlink:href="#DejaVuSans-72"/>
     <use x="260.25" xlink:href="#DejaVuSans-65"/>
     <use x="321.773438" xlink:href="#DejaVuSans-20"/>
     <use x="353.560547" xlink:href="#DejaVuSans-62"/>
     <use x="417.037109" xlink:href="#DejaVuSans-69"/>
     <use x="444.820312" xlink:href="#DejaVuSans-6e"/>
     <use x="508.199219" xlink:href="#DejaVuSans-61"/>
     <use x="569.478516" xlink:href="#DejaVuSans-72"/>
     <use x="610.591797" xlink:href="#DejaVuSans-69"/>
     <use x="638.375" xlink:href="#DejaVuSans-73"/>
     <use x="690.474609" xlink:href="#DejaVuSans-61"/>
     <use x="751.753906" xlink:href="#DejaVuSans-74"/>
     <use x="790.962891" xlink:href="#DejaVuSans-69"/>
     <use x="818.746094" xlink:href="#DejaVuSans-6f"/>
     <use x="879.927734" xlink:href="#DejaVuSans-6e"/>
    </g>
   </g>
  </g>
  <g id="axes_2">
   <g id="patch_7">
    <path d="M 43.78125 1264.318125 
L 1717.78125 1264.318125 
L 1717.78125 699.77267 
L 43.78125 699.77267 
z
" style="fill:#ffffff;"/>
   </g>
   <g id="matplotlib.axis_3">
    <g id="xtick_8">
     <g id="line2d_17">
      <g>
       <use style="stroke:#000000;stroke-width:0.8;" x="119.872159" xlink:href="#m79354120f9" y="1264.318125"/>
      </g>
     </g>
     <g id="text_19">
      <!-- 0 -->
      <g transform="translate(116.690909 1278.916563)scale(0.1 -0.1)">
       <use xlink:href="#DejaVuSans-30"/>
      </g>
     </g>
    </g>
    <g id="xtick_9">
     <g id="line2d_18">
      <g>
       <use style="stroke:#000000;stroke-width:0.8;" x="367.523613" xlink:href="#m79354120f9" y="1264.318125"/>
      </g>
     </g>
     <g id="text_20">
      <!-- 200 -->
      <g transform="translate(357.979863 1278.916563)scale(0.1 -0.1)">
       <use xlink:href="#DejaVuSans-32"/>
       <use x="63.623047" xlink:href="#DejaVuSans-30"/>
       <use x="127.246094" xlink:href="#DejaVuSans-30"/>
      </g>
     </g>
    </g>
    <g id="xtick_10">
     <g id="line2d_19">
      <g>
       <use style="stroke:#000000;stroke-width:0.8;" x="615.175066" xlink:href="#m79354120f9" y="1264.318125"/>
      </g>
     </g>
     <g id="text_21">
      <!-- 400 -->
      <g transform="translate(605.631316 1278.916563)scale(0.1 -0.1)">
       <use xlink:href="#DejaVuSans-34"/>
       <use x="63.623047" xlink:href="#DejaVuSans-30"/>
       <use x="127.246094" xlink:href="#DejaVuSans-30"/>
      </g>
     </g>
    </g>
    <g id="xtick_11">
     <g id="line2d_20">
      <g>
       <use style="stroke:#000000;stroke-width:0.8;" x="862.82652" xlink:href="#m79354120f9" y="1264.318125"/>
      </g>
     </g>
     <g id="text_22">
      <!-- 600 -->
      <g transform="translate(853.28277 1278.916563)scale(0.1 -0.1)">
       <use xlink:href="#DejaVuSans-36"/>
       <use x="63.623047" xlink:href="#DejaVuSans-30"/>
       <use x="127.246094" xlink:href="#DejaVuSans-30"/>
      </g>
     </g>
    </g>
    <g id="xtick_12">
     <g id="line2d_21">
      <g>
       <use style="stroke:#000000;stroke-width:0.8;" x="1110.477973" xlink:href="#m79354120f9" y="1264.318125"/>
      </g>
     </g>
     <g id="text_23">
      <!-- 800 -->
      <g transform="translate(1100.934223 1278.916563)scale(0.1 -0.1)">
       <use xlink:href="#DejaVuSans-38"/>
       <use x="63.623047" xlink:href="#DejaVuSans-30"/>
       <use x="127.246094" xlink:href="#DejaVuSans-30"/>
      </g>
     </g>
    </g>
    <g id="xtick_13">
     <g id="line2d_22">
      <g>
       <use style="stroke:#000000;stroke-width:0.8;" x="1358.129427" xlink:href="#m79354120f9" y="1264.318125"/>
      </g>
     </g>
     <g id="text_24">
      <!-- 1000 -->
      <g transform="translate(1345.404427 1278.916563)scale(0.1 -0.1)">
       <use xlink:href="#DejaVuSans-31"/>
       <use x="63.623047" xlink:href="#DejaVuSans-30"/>
       <use x="127.246094" xlink:href="#DejaVuSans-30"/>
       <use x="190.869141" xlink:href="#DejaVuSans-30"/>
      </g>
     </g>
    </g>
    <g id="xtick_14">
     <g id="line2d_23">
      <g>
       <use style="stroke:#000000;stroke-width:0.8;" x="1605.78088" xlink:href="#m79354120f9" y="1264.318125"/>
      </g>
     </g>
     <g id="text_25">
      <!-- 1200 -->
      <g transform="translate(1593.05588 1278.916563)scale(0.1 -0.1)">
       <use xlink:href="#DejaVuSans-31"/>
       <use x="63.623047" xlink:href="#DejaVuSans-32"/>
       <use x="127.246094" xlink:href="#DejaVuSans-30"/>
       <use x="190.869141" xlink:href="#DejaVuSans-30"/>
      </g>
     </g>
    </g>
    <g id="text_26">
     <!-- frame -->
     <g transform="translate(865.954687 1292.594688)scale(0.1 -0.1)">
      <use xlink:href="#DejaVuSans-66"/>
      <use x="35.205078" xlink:href="#DejaVuSans-72"/>
      <use x="76.318359" xlink:href="#DejaVuSans-61"/>
      <use x="137.597656" xlink:href="#DejaVuSans-6d"/>
      <use x="235.009766" xlink:href="#DejaVuSans-65"/>
     </g>
    </g>
   </g>
   <g id="matplotlib.axis_4">
    <g id="ytick_9">
     <g id="line2d_24">
      <g>
       <use style="stroke:#000000;stroke-width:0.8;" x="43.78125" xlink:href="#m42dd7bab7d" y="1238.656968"/>
      </g>
     </g>
     <g id="text_27">
      <!-- 0.0 -->
      <g transform="translate(20.878125 1242.456187)scale(0.1 -0.1)">
       <use xlink:href="#DejaVuSans-30"/>
       <use x="63.623047" xlink:href="#DejaVuSans-2e"/>
       <use x="95.410156" xlink:href="#DejaVuSans-30"/>
      </g>
     </g>
    </g>
    <g id="ytick_10">
     <g id="line2d_25">
      <g>
       <use style="stroke:#000000;stroke-width:0.8;" x="43.78125" xlink:href="#m42dd7bab7d" y="1136.01234"/>
      </g>
     </g>
     <g id="text_28">
      <!-- 0.2 -->
      <g transform="translate(20.878125 1139.811559)scale(0.1 -0.1)">
       <use xlink:href="#DejaVuSans-30"/>
       <use x="63.623047" xlink:href="#DejaVuSans-2e"/>
       <use x="95.410156" xlink:href="#DejaVuSans-32"/>
      </g>
     </g>
    </g>
    <g id="ytick_11">
     <g id="line2d_26">
      <g>
       <use style="stroke:#000000;stroke-width:0.8;" x="43.78125" xlink:href="#m42dd7bab7d" y="1033.367712"/>
      </g>
     </g>
     <g id="text_29">
      <!-- 0.4 -->
      <g transform="translate(20.878125 1037.166931)scale(0.1 -0.1)">
       <use xlink:href="#DejaVuSans-30"/>
       <use x="63.623047" xlink:href="#DejaVuSans-2e"/>
       <use x="95.410156" xlink:href="#DejaVuSans-34"/>
      </g>
     </g>
    </g>
    <g id="ytick_12">
     <g id="line2d_27">
      <g>
       <use style="stroke:#000000;stroke-width:0.8;" x="43.78125" xlink:href="#m42dd7bab7d" y="930.723084"/>
      </g>
     </g>
     <g id="text_30">
      <!-- 0.6 -->
      <g transform="translate(20.878125 934.522302)scale(0.1 -0.1)">
       <use xlink:href="#DejaVuSans-30"/>
       <use x="63.623047" xlink:href="#DejaVuSans-2e"/>
       <use x="95.410156" xlink:href="#DejaVuSans-36"/>
      </g>
     </g>
    </g>
    <g id="ytick_13">
     <g id="line2d_28">
      <g>
       <use style="stroke:#000000;stroke-width:0.8;" x="43.78125" xlink:href="#m42dd7bab7d" y="828.078456"/>
      </g>
     </g>
     <g id="text_31">
      <!-- 0.8 -->
      <g transform="translate(20.878125 831.877674)scale(0.1 -0.1)">
       <use xlink:href="#DejaVuSans-30"/>
       <use x="63.623047" xlink:href="#DejaVuSans-2e"/>
       <use x="95.410156" xlink:href="#DejaVuSans-38"/>
      </g>
     </g>
    </g>
    <g id="ytick_14">
     <g id="line2d_29">
      <g>
       <use style="stroke:#000000;stroke-width:0.8;" x="43.78125" xlink:href="#m42dd7bab7d" y="725.433827"/>
      </g>
     </g>
     <g id="text_32">
      <!-- 1.0 -->
      <g transform="translate(20.878125 729.233046)scale(0.1 -0.1)">
       <use xlink:href="#DejaVuSans-31"/>
       <use x="63.623047" xlink:href="#DejaVuSans-2e"/>
       <use x="95.410156" xlink:href="#DejaVuSans-30"/>
      </g>
     </g>
    </g>
    <g id="text_33">
     <!-- GCaMP -->
     <g transform="translate(14.798437 999.803991)rotate(-90)scale(0.1 -0.1)">
      <use xlink:href="#DejaVuSans-47"/>
      <use x="77.490234" xlink:href="#DejaVuSans-43"/>
      <use x="147.314453" xlink:href="#DejaVuSans-61"/>
      <use x="208.59375" xlink:href="#DejaVuSans-4d"/>
      <use x="294.873047" xlink:href="#DejaVuSans-50"/>
     </g>
    </g>
   </g>
   <g id="line2d_30">
    <path clip-path="url(#pb7767a6687)" d="M 119.872159 1238.656968 
L 1013.893906 1238.656968 
L 1015.132164 725.433827 
L 1084.474571 725.433827 
L 1085.712828 1238.656968 
L 1089.4276 1238.656968 
L 1090.665857 725.433827 
L 1277.642704 725.433827 
L 1278.880962 1238.656968 
L 1281.357476 1238.656968 
L 1282.595733 725.433827 
L 1302.40785 725.433827 
L 1303.646107 1238.656968 
L 1376.703286 1238.656968 
L 1377.941543 725.433827 
L 1384.132829 725.433827 
L 1385.371087 1238.656968 
L 1387.847601 1238.656968 
L 1389.085858 725.433827 
L 1394.038887 725.433827 
L 1395.277145 1238.656968 
L 1641.690341 1238.656968 
L 1641.690341 1238.656968 
" style="fill:none;stroke:#008000;stroke-linecap:square;stroke-width:1.5;"/>
   </g>
   <g id="patch_8">
    <path d="M 43.78125 1264.318125 
L 43.78125 699.77267 
" style="fill:none;stroke:#000000;stroke-linecap:square;stroke-linejoin:miter;stroke-width:0.8;"/>
   </g>
   <g id="patch_9">
    <path d="M 1717.78125 1264.318125 
L 1717.78125 699.77267 
" style="fill:none;stroke:#000000;stroke-linecap:square;stroke-linejoin:miter;stroke-width:0.8;"/>
   </g>
   <g id="patch_10">
    <path d="M 43.78125 1264.318125 
L 1717.78125 1264.318125 
" style="fill:none;stroke:#000000;stroke-linecap:square;stroke-linejoin:miter;stroke-width:0.8;"/>
   </g>
   <g id="patch_11">
    <path d="M 43.78125 699.77267 
L 1717.78125 699.77267 
" style="fill:none;stroke:#000000;stroke-linecap:square;stroke-linejoin:miter;stroke-width:0.8;"/>
   </g>
   <g id="text_34">
    <!-- before binarisation -->
    <g transform="translate(824.1825 693.77267)scale(0.12 -0.12)">
     <use xlink:href="#DejaVuSans-62"/>
     <use x="63.476562" xlink:href="#DejaVuSans-65"/>
     <use x="125" xlink:href="#DejaVuSans-66"/>
     <use x="160.205078" xlink:href="#DejaVuSans-6f"/>
     <use x="221.386719" xlink:href="#DejaVuSans-72"/>
     <use x="260.25" xlink:href="#DejaVuSans-65"/>
     <use x="321.773438" xlink:href="#DejaVuSans-20"/>
     <use x="353.560547" xlink:href="#DejaVuSans-62"/>
     <use x="417.037109" xlink:href="#DejaVuSans-69"/>
     <use x="444.820312" xlink:href="#DejaVuSans-6e"/>
     <use x="508.199219" xlink:href="#DejaVuSans-61"/>
     <use x="569.478516" xlink:href="#DejaVuSans-72"/>
     <use x="610.591797" xlink:href="#DejaVuSans-69"/>
     <use x="638.375" xlink:href="#DejaVuSans-73"/>
     <use x="690.474609" xlink:href="#DejaVuSans-61"/>
     <use x="751.753906" xlink:href="#DejaVuSans-74"/>
     <use x="790.962891" xlink:href="#DejaVuSans-69"/>
     <use x="818.746094" xlink:href="#DejaVuSans-6f"/>
     <use x="879.927734" xlink:href="#DejaVuSans-6e"/>
    </g>
   </g>
  </g>
 </g>
 <defs>
  <clipPath id="p6e6c7782e0">
   <rect height="564.545455" width="1674" x="43.78125" y="22.318125"/>
  </clipPath>
  <clipPath id="pb7767a6687">
   <rect height="564.545455" width="1674" x="43.78125" y="699.77267"/>
  </clipPath>
 </defs>
</svg>
