<?xml version="1.0" encoding="utf-8" standalone="no"?>
<!DOCTYPE svg PUBLIC "-//W3C//DTD SVG 1.1//EN"
  "http://www.w3.org/Graphics/SVG/1.1/DTD/svg11.dtd">
<svg height="1301.874375pt" version="1.1" viewBox="0 0 1724.98125 1301.874375" width="1724.98125pt" xmlns="http://www.w3.org/2000/svg" xmlns:xlink="http://www.w3.org/1999/xlink">
 <metadata>
  <rdf:RDF xmlns:cc="http://creativecommons.org/ns#" xmlns:dc="http://purl.org/dc/elements/1.1/" xmlns:rdf="http://www.w3.org/1999/02/22-rdf-syntax-ns#">
   <cc:Work>
    <dc:type rdf:resource="http://purl.org/dc/dcmitype/StillImage"/>
    <dc:date>2022-07-24T15:54:39.427911</dc:date>
    <dc:format>image/svg+xml</dc:format>
    <dc:creator>
     <cc:Agent>
      <dc:title>Matplotlib v3.4.2, https://matplotlib.org/</dc:title>
     </cc:Agent>
    </dc:creator>
   </cc:Work>
  </rdf:RDF>
 </metadata>
 <defs>
  <style type="text/css">*{stroke-linecap:butt;stroke-linejoin:round;}</style>
 </defs>
 <g id="figure_1">
  <g id="patch_1">
   <path d="M 0 1301.874375 
L 1724.98125 1301.874375 
L 1724.98125 0 
L 0 0 
z
" style="fill:#ffffff;"/>
  </g>
  <g id="axes_1">
   <g id="patch_2">
    <path d="M 43.78125 586.86358 
L 1717.78125 586.86358 
L 1717.78125 22.318125 
L 43.78125 22.318125 
z
" style="fill:#ffffff;"/>
   </g>
   <g id="matplotlib.axis_1">
    <g id="xtick_1">
     <g id="line2d_1">
      <defs>
       <path d="M 0 0 
L 0 3.5 
" id="m6042e01b59" style="stroke:#000000;stroke-width:0.8;"/>
      </defs>
      <g>
       <use style="stroke:#000000;stroke-width:0.8;" x="119.872159" xlink:href="#m6042e01b59" y="586.86358"/>
      </g>
     </g>
     <g id="text_1">
      <!-- 0 -->
      <g transform="translate(116.690909 601.462017)scale(0.1 -0.1)">
       <defs>
        <path d="M 2034 4250 
Q 1547 4250 1301 3770 
Q 1056 3291 1056 2328 
Q 1056 1369 1301 889 
Q 1547 409 2034 409 
Q 2525 409 2770 889 
Q 3016 1369 3016 2328 
Q 3016 3291 2770 3770 
Q 2525 4250 2034 4250 
z
M 2034 4750 
Q 2819 4750 3233 4129 
Q 3647 3509 3647 2328 
Q 3647 1150 3233 529 
Q 2819 -91 2034 -91 
Q 1250 -91 836 529 
Q 422 1150 422 2328 
Q 422 3509 836 4129 
Q 1250 4750 2034 4750 
z
" id="DejaVuSans-30" transform="scale(0.015625)"/>
       </defs>
       <use xlink:href="#DejaVuSans-30"/>
      </g>
     </g>
    </g>
    <g id="xtick_2">
     <g id="line2d_2">
      <g>
       <use style="stroke:#000000;stroke-width:0.8;" x="367.523613" xlink:href="#m6042e01b59" y="586.86358"/>
      </g>
     </g>
     <g id="text_2">
      <!-- 200 -->
      <g transform="translate(357.979863 601.462017)scale(0.1 -0.1)">
       <defs>
        <path d="M 1228 531 
L 3431 531 
L 3431 0 
L 469 0 
L 469 531 
Q 828 903 1448 1529 
Q 2069 2156 2228 2338 
Q 2531 2678 2651 2914 
Q 2772 3150 2772 3378 
Q 2772 3750 2511 3984 
Q 2250 4219 1831 4219 
Q 1534 4219 1204 4116 
Q 875 4013 500 3803 
L 500 4441 
Q 881 4594 1212 4672 
Q 1544 4750 1819 4750 
Q 2544 4750 2975 4387 
Q 3406 4025 3406 3419 
Q 3406 3131 3298 2873 
Q 3191 2616 2906 2266 
Q 2828 2175 2409 1742 
Q 1991 1309 1228 531 
z
" id="DejaVuSans-32" transform="scale(0.015625)"/>
       </defs>
       <use xlink:href="#DejaVuSans-32"/>
       <use x="63.623047" xlink:href="#DejaVuSans-30"/>
       <use x="127.246094" xlink:href="#DejaVuSans-30"/>
      </g>
     </g>
    </g>
    <g id="xtick_3">
     <g id="line2d_3">
      <g>
       <use style="stroke:#000000;stroke-width:0.8;" x="615.175066" xlink:href="#m6042e01b59" y="586.86358"/>
      </g>
     </g>
     <g id="text_3">
      <!-- 400 -->
      <g transform="translate(605.631316 601.462017)scale(0.1 -0.1)">
       <defs>
        <path d="M 2419 4116 
L 825 1625 
L 2419 1625 
L 2419 4116 
z
M 2253 4666 
L 3047 4666 
L 3047 1625 
L 3713 1625 
L 3713 1100 
L 3047 1100 
L 3047 0 
L 2419 0 
L 2419 1100 
L 313 1100 
L 313 1709 
L 2253 4666 
z
" id="DejaVuSans-34" transform="scale(0.015625)"/>
       </defs>
       <use xlink:href="#DejaVuSans-34"/>
       <use x="63.623047" xlink:href="#DejaVuSans-30"/>
       <use x="127.246094" xlink:href="#DejaVuSans-30"/>
      </g>
     </g>
    </g>
    <g id="xtick_4">
     <g id="line2d_4">
      <g>
       <use style="stroke:#000000;stroke-width:0.8;" x="862.82652" xlink:href="#m6042e01b59" y="586.86358"/>
      </g>
     </g>
     <g id="text_4">
      <!-- 600 -->
      <g transform="translate(853.28277 601.462017)scale(0.1 -0.1)">
       <defs>
        <path d="M 2113 2584 
Q 1688 2584 1439 2293 
Q 1191 2003 1191 1497 
Q 1191 994 1439 701 
Q 1688 409 2113 409 
Q 2538 409 2786 701 
Q 3034 994 3034 1497 
Q 3034 2003 2786 2293 
Q 2538 2584 2113 2584 
z
M 3366 4563 
L 3366 3988 
Q 3128 4100 2886 4159 
Q 2644 4219 2406 4219 
Q 1781 4219 1451 3797 
Q 1122 3375 1075 2522 
Q 1259 2794 1537 2939 
Q 1816 3084 2150 3084 
Q 2853 3084 3261 2657 
Q 3669 2231 3669 1497 
Q 3669 778 3244 343 
Q 2819 -91 2113 -91 
Q 1303 -91 875 529 
Q 447 1150 447 2328 
Q 447 3434 972 4092 
Q 1497 4750 2381 4750 
Q 2619 4750 2861 4703 
Q 3103 4656 3366 4563 
z
" id="DejaVuSans-36" transform="scale(0.015625)"/>
       </defs>
       <use xlink:href="#DejaVuSans-36"/>
       <use x="63.623047" xlink:href="#DejaVuSans-30"/>
       <use x="127.246094" xlink:href="#DejaVuSans-30"/>
      </g>
     </g>
    </g>
    <g id="xtick_5">
     <g id="line2d_5">
      <g>
       <use style="stroke:#000000;stroke-width:0.8;" x="1110.477973" xlink:href="#m6042e01b59" y="586.86358"/>
      </g>
     </g>
     <g id="text_5">
      <!-- 800 -->
      <g transform="translate(1100.934223 601.462017)scale(0.1 -0.1)">
       <defs>
        <path d="M 2034 2216 
Q 1584 2216 1326 1975 
Q 1069 1734 1069 1313 
Q 1069 891 1326 650 
Q 1584 409 2034 409 
Q 2484 409 2743 651 
Q 3003 894 3003 1313 
Q 3003 1734 2745 1975 
Q 2488 2216 2034 2216 
z
M 1403 2484 
Q 997 2584 770 2862 
Q 544 3141 544 3541 
Q 544 4100 942 4425 
Q 1341 4750 2034 4750 
Q 2731 4750 3128 4425 
Q 3525 4100 3525 3541 
Q 3525 3141 3298 2862 
Q 3072 2584 2669 2484 
Q 3125 2378 3379 2068 
Q 3634 1759 3634 1313 
Q 3634 634 3220 271 
Q 2806 -91 2034 -91 
Q 1263 -91 848 271 
Q 434 634 434 1313 
Q 434 1759 690 2068 
Q 947 2378 1403 2484 
z
M 1172 3481 
Q 1172 3119 1398 2916 
Q 1625 2713 2034 2713 
Q 2441 2713 2670 2916 
Q 2900 3119 2900 3481 
Q 2900 3844 2670 4047 
Q 2441 4250 2034 4250 
Q 1625 4250 1398 4047 
Q 1172 3844 1172 3481 
z
" id="DejaVuSans-38" transform="scale(0.015625)"/>
       </defs>
       <use xlink:href="#DejaVuSans-38"/>
       <use x="63.623047" xlink:href="#DejaVuSans-30"/>
       <use x="127.246094" xlink:href="#DejaVuSans-30"/>
      </g>
     </g>
    </g>
    <g id="xtick_6">
     <g id="line2d_6">
      <g>
       <use style="stroke:#000000;stroke-width:0.8;" x="1358.129427" xlink:href="#m6042e01b59" y="586.86358"/>
      </g>
     </g>
     <g id="text_6">
      <!-- 1000 -->
      <g transform="translate(1345.404427 601.462017)scale(0.1 -0.1)">
       <defs>
        <path d="M 794 531 
L 1825 531 
L 1825 4091 
L 703 3866 
L 703 4441 
L 1819 4666 
L 2450 4666 
L 2450 531 
L 3481 531 
L 3481 0 
L 794 0 
L 794 531 
z
" id="DejaVuSans-31" transform="scale(0.015625)"/>
       </defs>
       <use xlink:href="#DejaVuSans-31"/>
       <use x="63.623047" xlink:href="#DejaVuSans-30"/>
       <use x="127.246094" xlink:href="#DejaVuSans-30"/>
       <use x="190.869141" xlink:href="#DejaVuSans-30"/>
      </g>
     </g>
    </g>
    <g id="xtick_7">
     <g id="line2d_7">
      <g>
       <use style="stroke:#000000;stroke-width:0.8;" x="1605.78088" xlink:href="#m6042e01b59" y="586.86358"/>
      </g>
     </g>
     <g id="text_7">
      <!-- 1200 -->
      <g transform="translate(1593.05588 601.462017)scale(0.1 -0.1)">
       <use xlink:href="#DejaVuSans-31"/>
       <use x="63.623047" xlink:href="#DejaVuSans-32"/>
       <use x="127.246094" xlink:href="#DejaVuSans-30"/>
       <use x="190.869141" xlink:href="#DejaVuSans-30"/>
      </g>
     </g>
    </g>
    <g id="text_8">
     <!-- frame -->
     <g transform="translate(865.954687 615.140142)scale(0.1 -0.1)">
      <defs>
       <path d="M 2375 4863 
L 2375 4384 
L 1825 4384 
Q 1516 4384 1395 4259 
Q 1275 4134 1275 3809 
L 1275 3500 
L 2222 3500 
L 2222 3053 
L 1275 3053 
L 1275 0 
L 697 0 
L 697 3053 
L 147 3053 
L 147 3500 
L 697 3500 
L 697 3744 
Q 697 4328 969 4595 
Q 1241 4863 1831 4863 
L 2375 4863 
z
" id="DejaVuSans-66" transform="scale(0.015625)"/>
       <path d="M 2631 2963 
Q 2534 3019 2420 3045 
Q 2306 3072 2169 3072 
Q 1681 3072 1420 2755 
Q 1159 2438 1159 1844 
L 1159 0 
L 581 0 
L 581 3500 
L 1159 3500 
L 1159 2956 
Q 1341 3275 1631 3429 
Q 1922 3584 2338 3584 
Q 2397 3584 2469 3576 
Q 2541 3569 2628 3553 
L 2631 2963 
z
" id="DejaVuSans-72" transform="scale(0.015625)"/>
       <path d="M 2194 1759 
Q 1497 1759 1228 1600 
Q 959 1441 959 1056 
Q 959 750 1161 570 
Q 1363 391 1709 391 
Q 2188 391 2477 730 
Q 2766 1069 2766 1631 
L 2766 1759 
L 2194 1759 
z
M 3341 1997 
L 3341 0 
L 2766 0 
L 2766 531 
Q 2569 213 2275 61 
Q 1981 -91 1556 -91 
Q 1019 -91 701 211 
Q 384 513 384 1019 
Q 384 1609 779 1909 
Q 1175 2209 1959 2209 
L 2766 2209 
L 2766 2266 
Q 2766 2663 2505 2880 
Q 2244 3097 1772 3097 
Q 1472 3097 1187 3025 
Q 903 2953 641 2809 
L 641 3341 
Q 956 3463 1253 3523 
Q 1550 3584 1831 3584 
Q 2591 3584 2966 3190 
Q 3341 2797 3341 1997 
z
" id="DejaVuSans-61" transform="scale(0.015625)"/>
       <path d="M 3328 2828 
Q 3544 3216 3844 3400 
Q 4144 3584 4550 3584 
Q 5097 3584 5394 3201 
Q 5691 2819 5691 2113 
L 5691 0 
L 5113 0 
L 5113 2094 
Q 5113 2597 4934 2840 
Q 4756 3084 4391 3084 
Q 3944 3084 3684 2787 
Q 3425 2491 3425 1978 
L 3425 0 
L 2847 0 
L 2847 2094 
Q 2847 2600 2669 2842 
Q 2491 3084 2119 3084 
Q 1678 3084 1418 2786 
Q 1159 2488 1159 1978 
L 1159 0 
L 581 0 
L 581 3500 
L 1159 3500 
L 1159 2956 
Q 1356 3278 1631 3431 
Q 1906 3584 2284 3584 
Q 2666 3584 2933 3390 
Q 3200 3197 3328 2828 
z
" id="DejaVuSans-6d" transform="scale(0.015625)"/>
       <path d="M 3597 1894 
L 3597 1613 
L 953 1613 
Q 991 1019 1311 708 
Q 1631 397 2203 397 
Q 2534 397 2845 478 
Q 3156 559 3463 722 
L 3463 178 
Q 3153 47 2828 -22 
Q 2503 -91 2169 -91 
Q 1331 -91 842 396 
Q 353 884 353 1716 
Q 353 2575 817 3079 
Q 1281 3584 2069 3584 
Q 2775 3584 3186 3129 
Q 3597 2675 3597 1894 
z
M 3022 2063 
Q 3016 2534 2758 2815 
Q 2500 3097 2075 3097 
Q 1594 3097 1305 2825 
Q 1016 2553 972 2059 
L 3022 2063 
z
" id="DejaVuSans-65" transform="scale(0.015625)"/>
      </defs>
      <use xlink:href="#DejaVuSans-66"/>
      <use x="35.205078" xlink:href="#DejaVuSans-72"/>
      <use x="76.318359" xlink:href="#DejaVuSans-61"/>
      <use x="137.597656" xlink:href="#DejaVuSans-6d"/>
      <use x="235.009766" xlink:href="#DejaVuSans-65"/>
     </g>
    </g>
   </g>
   <g id="matplotlib.axis_2">
    <g id="ytick_1">
     <g id="line2d_8">
      <defs>
       <path d="M 0 0 
L -3.5 0 
" id="mbdc0daf1e6" style="stroke:#000000;stroke-width:0.8;"/>
      </defs>
      <g>
       <use style="stroke:#000000;stroke-width:0.8;" x="43.78125" xlink:href="#mbdc0daf1e6" y="539.589711"/>
      </g>
     </g>
     <g id="text_9">
      <!-- 2 -->
      <g transform="translate(30.41875 543.38893)scale(0.1 -0.1)">
       <use xlink:href="#DejaVuSans-32"/>
      </g>
     </g>
    </g>
    <g id="ytick_2">
     <g id="line2d_9">
      <g>
       <use style="stroke:#000000;stroke-width:0.8;" x="43.78125" xlink:href="#mbdc0daf1e6" y="456.930526"/>
      </g>
     </g>
     <g id="text_10">
      <!-- 3 -->
      <g transform="translate(30.41875 460.729745)scale(0.1 -0.1)">
       <defs>
        <path d="M 2597 2516 
Q 3050 2419 3304 2112 
Q 3559 1806 3559 1356 
Q 3559 666 3084 287 
Q 2609 -91 1734 -91 
Q 1441 -91 1130 -33 
Q 819 25 488 141 
L 488 750 
Q 750 597 1062 519 
Q 1375 441 1716 441 
Q 2309 441 2620 675 
Q 2931 909 2931 1356 
Q 2931 1769 2642 2001 
Q 2353 2234 1838 2234 
L 1294 2234 
L 1294 2753 
L 1863 2753 
Q 2328 2753 2575 2939 
Q 2822 3125 2822 3475 
Q 2822 3834 2567 4026 
Q 2313 4219 1838 4219 
Q 1578 4219 1281 4162 
Q 984 4106 628 3988 
L 628 4550 
Q 988 4650 1302 4700 
Q 1616 4750 1894 4750 
Q 2613 4750 3031 4423 
Q 3450 4097 3450 3541 
Q 3450 3153 3228 2886 
Q 3006 2619 2597 2516 
z
" id="DejaVuSans-33" transform="scale(0.015625)"/>
       </defs>
       <use xlink:href="#DejaVuSans-33"/>
      </g>
     </g>
    </g>
    <g id="ytick_3">
     <g id="line2d_10">
      <g>
       <use style="stroke:#000000;stroke-width:0.8;" x="43.78125" xlink:href="#mbdc0daf1e6" y="374.271342"/>
      </g>
     </g>
     <g id="text_11">
      <!-- 4 -->
      <g transform="translate(30.41875 378.070561)scale(0.1 -0.1)">
       <use xlink:href="#DejaVuSans-34"/>
      </g>
     </g>
    </g>
    <g id="ytick_4">
     <g id="line2d_11">
      <g>
       <use style="stroke:#000000;stroke-width:0.8;" x="43.78125" xlink:href="#mbdc0daf1e6" y="291.612158"/>
      </g>
     </g>
     <g id="text_12">
      <!-- 5 -->
      <g transform="translate(30.41875 295.411376)scale(0.1 -0.1)">
       <defs>
        <path d="M 691 4666 
L 3169 4666 
L 3169 4134 
L 1269 4134 
L 1269 2991 
Q 1406 3038 1543 3061 
Q 1681 3084 1819 3084 
Q 2600 3084 3056 2656 
Q 3513 2228 3513 1497 
Q 3513 744 3044 326 
Q 2575 -91 1722 -91 
Q 1428 -91 1123 -41 
Q 819 9 494 109 
L 494 744 
Q 775 591 1075 516 
Q 1375 441 1709 441 
Q 2250 441 2565 725 
Q 2881 1009 2881 1497 
Q 2881 1984 2565 2268 
Q 2250 2553 1709 2553 
Q 1456 2553 1204 2497 
Q 953 2441 691 2322 
L 691 4666 
z
" id="DejaVuSans-35" transform="scale(0.015625)"/>
       </defs>
       <use xlink:href="#DejaVuSans-35"/>
      </g>
     </g>
    </g>
    <g id="ytick_5">
     <g id="line2d_12">
      <g>
       <use style="stroke:#000000;stroke-width:0.8;" x="43.78125" xlink:href="#mbdc0daf1e6" y="208.952973"/>
      </g>
     </g>
     <g id="text_13">
      <!-- 6 -->
      <g transform="translate(30.41875 212.752192)scale(0.1 -0.1)">
       <use xlink:href="#DejaVuSans-36"/>
      </g>
     </g>
    </g>
    <g id="ytick_6">
     <g id="line2d_13">
      <g>
       <use style="stroke:#000000;stroke-width:0.8;" x="43.78125" xlink:href="#mbdc0daf1e6" y="126.293789"/>
      </g>
     </g>
     <g id="text_14">
      <!-- 7 -->
      <g transform="translate(30.41875 130.093008)scale(0.1 -0.1)">
       <defs>
        <path d="M 525 4666 
L 3525 4666 
L 3525 4397 
L 1831 0 
L 1172 0 
L 2766 4134 
L 525 4134 
L 525 4666 
z
" id="DejaVuSans-37" transform="scale(0.015625)"/>
       </defs>
       <use xlink:href="#DejaVuSans-37"/>
      </g>
     </g>
    </g>
    <g id="ytick_7">
     <g id="line2d_14">
      <g>
       <use style="stroke:#000000;stroke-width:0.8;" x="43.78125" xlink:href="#mbdc0daf1e6" y="43.634604"/>
      </g>
     </g>
     <g id="text_15">
      <!-- 8 -->
      <g transform="translate(30.41875 47.433823)scale(0.1 -0.1)">
       <use xlink:href="#DejaVuSans-38"/>
      </g>
     </g>
    </g>
    <g id="text_16">
     <!-- GCaMP -->
     <g transform="translate(24.339062 322.349446)rotate(-90)scale(0.1 -0.1)">
      <defs>
       <path d="M 3809 666 
L 3809 1919 
L 2778 1919 
L 2778 2438 
L 4434 2438 
L 4434 434 
Q 4069 175 3628 42 
Q 3188 -91 2688 -91 
Q 1594 -91 976 548 
Q 359 1188 359 2328 
Q 359 3472 976 4111 
Q 1594 4750 2688 4750 
Q 3144 4750 3555 4637 
Q 3966 4525 4313 4306 
L 4313 3634 
Q 3963 3931 3569 4081 
Q 3175 4231 2741 4231 
Q 1884 4231 1454 3753 
Q 1025 3275 1025 2328 
Q 1025 1384 1454 906 
Q 1884 428 2741 428 
Q 3075 428 3337 486 
Q 3600 544 3809 666 
z
" id="DejaVuSans-47" transform="scale(0.015625)"/>
       <path d="M 4122 4306 
L 4122 3641 
Q 3803 3938 3442 4084 
Q 3081 4231 2675 4231 
Q 1875 4231 1450 3742 
Q 1025 3253 1025 2328 
Q 1025 1406 1450 917 
Q 1875 428 2675 428 
Q 3081 428 3442 575 
Q 3803 722 4122 1019 
L 4122 359 
Q 3791 134 3420 21 
Q 3050 -91 2638 -91 
Q 1578 -91 968 557 
Q 359 1206 359 2328 
Q 359 3453 968 4101 
Q 1578 4750 2638 4750 
Q 3056 4750 3426 4639 
Q 3797 4528 4122 4306 
z
" id="DejaVuSans-43" transform="scale(0.015625)"/>
       <path d="M 628 4666 
L 1569 4666 
L 2759 1491 
L 3956 4666 
L 4897 4666 
L 4897 0 
L 4281 0 
L 4281 4097 
L 3078 897 
L 2444 897 
L 1241 4097 
L 1241 0 
L 628 0 
L 628 4666 
z
" id="DejaVuSans-4d" transform="scale(0.015625)"/>
       <path d="M 1259 4147 
L 1259 2394 
L 2053 2394 
Q 2494 2394 2734 2622 
Q 2975 2850 2975 3272 
Q 2975 3691 2734 3919 
Q 2494 4147 2053 4147 
L 1259 4147 
z
M 628 4666 
L 2053 4666 
Q 2838 4666 3239 4311 
Q 3641 3956 3641 3272 
Q 3641 2581 3239 2228 
Q 2838 1875 2053 1875 
L 1259 1875 
L 1259 0 
L 628 0 
L 628 4666 
z
" id="DejaVuSans-50" transform="scale(0.015625)"/>
      </defs>
      <use xlink:href="#DejaVuSans-47"/>
      <use x="77.490234" xlink:href="#DejaVuSans-43"/>
      <use x="147.314453" xlink:href="#DejaVuSans-61"/>
      <use x="208.59375" xlink:href="#DejaVuSans-4d"/>
      <use x="294.873047" xlink:href="#DejaVuSans-50"/>
     </g>
    </g>
   </g>
   <g id="line2d_15">
    <path clip-path="url(#p05e93ac135)" d="M 119.872159 394.720945 
L 122.348674 369.715352 
L 123.586931 358.771645 
L 126.063445 339.699494 
L 127.301703 330.558673 
L 128.53996 320.377655 
L 131.016474 296.107996 
L 133.492989 271.299411 
L 135.969504 249.672223 
L 138.446018 230.616214 
L 143.399047 194.44839 
L 147.113819 169.824882 
L 149.590334 155.467578 
L 153.305105 132.180168 
L 154.543363 127.16462 
L 155.78162 123.813747 
L 157.019877 120.806241 
L 158.258134 117.008458 
L 160.734649 107.247848 
L 163.211163 96.924677 
L 164.449421 90.545291 
L 166.925935 76.294397 
L 168.164193 70.223846 
L 169.40245 66.263825 
L 170.640707 64.91539 
L 171.878964 65.561045 
L 173.117222 66.869101 
L 175.593736 69.072714 
L 178.070251 72.543775 
L 179.308508 72.432039 
L 180.546765 69.517195 
L 181.785022 64.017516 
L 183.02328 57.044732 
L 184.261537 50.885573 
L 185.499794 47.979282 
L 186.738052 48.539933 
L 187.976309 50.774955 
L 189.214566 53.330315 
L 190.452823 56.169623 
L 191.691081 59.552735 
L 194.167595 67.280442 
L 195.405852 72.204179 
L 197.882367 84.837248 
L 199.120624 88.877019 
L 200.358881 89.723392 
L 201.597139 89.705369 
L 202.835396 91.728379 
L 204.073653 96.493827 
L 205.311911 102.546897 
L 206.550168 107.783186 
L 207.788425 111.207317 
L 209.026682 113.316458 
L 210.26494 114.485654 
L 211.503197 114.435752 
L 212.741454 113.26462 
L 213.979711 111.406991 
L 215.217969 109.290839 
L 216.456226 107.622709 
L 217.694483 107.02243 
L 218.93274 107.65044 
L 220.170998 109.590676 
L 221.409255 112.822676 
L 223.88577 120.733658 
L 225.124027 124.334024 
L 226.362284 128.432344 
L 227.600541 134.436412 
L 228.838799 142.748311 
L 230.077056 151.989647 
L 231.315313 160.328288 
L 232.55357 167.116475 
L 233.791828 172.819524 
L 235.030085 177.968114 
L 236.268342 182.490688 
L 237.5066 185.666339 
L 238.744857 186.925932 
L 239.983114 186.68442 
L 242.459629 184.875889 
L 243.697886 184.951121 
L 244.936143 187.226626 
L 246.1744 191.916951 
L 247.412658 198.238276 
L 249.889172 212.219855 
L 251.127429 218.022405 
L 252.365687 221.892091 
L 253.603944 223.342859 
L 254.842201 222.718895 
L 256.080459 221.434614 
L 257.318716 221.053397 
L 258.556973 222.283666 
L 259.79523 224.802202 
L 261.033488 227.923241 
L 262.271745 231.600031 
L 263.510002 236.275406 
L 264.748259 241.60905 
L 265.986517 246.017805 
L 267.224774 248.112623 
L 268.463031 248.514337 
L 269.701288 249.173233 
L 270.939546 250.98061 
L 277.130832 263.018454 
L 279.607347 266.763999 
L 280.845604 269.936113 
L 282.083861 275.488223 
L 283.322118 283.34418 
L 284.560376 292.090628 
L 285.798633 299.302362 
L 287.03689 302.426317 
L 288.275147 300.150533 
L 289.513405 293.253001 
L 290.751662 284.46309 
L 291.989919 277.409561 
L 293.228177 274.667975 
L 294.466434 276.304102 
L 295.704691 280.435865 
L 296.942948 284.963602 
L 298.181206 288.732269 
L 299.419463 291.613483 
L 300.65772 294.098941 
L 301.895977 296.968918 
L 303.134235 300.853893 
L 304.372492 305.844612 
L 308.087264 323.368591 
L 309.325521 328.168141 
L 310.563778 332.117252 
L 311.802036 335.426265 
L 315.516807 343.784688 
L 316.755065 347.323094 
L 317.993322 351.675114 
L 320.469836 362.415039 
L 321.708094 367.724364 
L 322.946351 372.439941 
L 324.184608 376.441676 
L 325.422866 379.684843 
L 329.137637 387.925489 
L 330.375895 391.192344 
L 331.614152 395.165117 
L 334.090666 404.355596 
L 335.328924 407.978557 
L 336.567181 410.272884 
L 337.805438 411.570107 
L 339.043695 412.339711 
L 340.281953 412.834023 
L 341.52021 413.155404 
L 345.234982 413.579513 
L 346.473239 414.239912 
L 347.711496 415.438442 
L 348.949754 416.824885 
L 350.188011 417.462056 
L 351.426268 416.276839 
L 352.664525 413.260187 
L 353.902783 409.897252 
L 355.14104 407.964303 
L 356.379297 408.279996 
L 357.617554 410.610841 
L 358.855812 413.882859 
L 360.094069 416.427799 
L 361.332326 417.022329 
L 362.570584 415.917885 
L 363.808841 414.470097 
L 365.047098 413.991558 
L 366.285355 415.252873 
L 367.523613 418.490776 
L 368.76187 423.26636 
L 371.238384 433.565289 
L 372.476642 437.638184 
L 374.953156 444.36356 
L 376.191413 447.309819 
L 377.429671 449.720423 
L 381.144443 456.225017 
L 384.859214 463.406696 
L 386.097472 464.498796 
L 387.335729 464.263719 
L 389.812243 461.886221 
L 391.050501 461.229182 
L 393.527015 460.613368 
L 396.00353 459.617798 
L 398.480044 458.882008 
L 399.718302 458.412474 
L 400.956559 458.32275 
L 402.194816 458.888598 
L 403.433073 459.785105 
L 404.671331 460.276025 
L 405.909588 459.942987 
L 407.147845 459.191038 
L 408.386102 458.823736 
L 409.62436 459.358267 
L 410.862617 460.87043 
L 413.339132 465.284294 
L 415.815646 468.8275 
L 417.053903 471.233635 
L 418.292161 474.622978 
L 420.768675 482.06653 
L 422.006932 484.850648 
L 423.24519 486.189069 
L 424.483447 485.440451 
L 425.721704 482.816837 
L 426.959961 479.858087 
L 428.198219 478.553735 
L 429.436476 479.807228 
L 430.674733 482.889826 
L 431.912991 486.348756 
L 433.151248 489.019801 
L 434.389505 490.420026 
L 435.627762 491.030154 
L 436.86602 492.111903 
L 438.104277 494.433971 
L 443.057306 506.536702 
L 444.295563 508.612728 
L 445.53382 509.358664 
L 446.772078 508.945424 
L 448.010335 508.262237 
L 449.248592 508.250252 
L 450.48685 509.349146 
L 452.963364 513.409471 
L 454.201621 514.577536 
L 455.439879 514.770052 
L 456.678136 514.831323 
L 457.916393 515.593737 
L 459.15465 516.980768 
L 460.392908 518.165728 
L 461.631165 518.428335 
L 462.869422 517.618445 
L 465.345937 514.338296 
L 466.584194 513.338235 
L 467.822451 513.668035 
L 469.060709 515.390306 
L 470.298966 518.13392 
L 472.77548 524.337229 
L 474.013738 526.524308 
L 475.251995 527.533754 
L 476.490252 527.233373 
L 477.728509 525.556283 
L 478.966767 522.430757 
L 481.443281 513.723154 
L 482.681538 510.31091 
L 483.919796 508.712313 
L 485.158053 509.269636 
L 486.39631 511.786117 
L 490.111082 522.96431 
L 491.349339 525.849591 
L 492.587597 527.985779 
L 493.825854 529.352538 
L 495.064111 530.028723 
L 496.302368 530.310176 
L 497.540626 530.715908 
L 500.01714 532.28411 
L 501.255397 532.502949 
L 502.493655 531.969114 
L 507.446684 527.979133 
L 508.684941 527.413781 
L 509.923198 527.040472 
L 511.161456 526.914497 
L 512.399713 527.215738 
L 513.63797 528.287119 
L 514.876227 530.450948 
L 517.352742 536.640295 
L 518.590999 539.191957 
L 519.829257 540.746948 
L 521.067514 541.3048 
L 522.305771 541.096059 
L 523.544028 540.237086 
L 524.782286 538.722054 
L 527.2588 534.737022 
L 528.497057 533.29815 
L 529.735315 532.578651 
L 530.973572 532.309006 
L 532.211829 532.269358 
L 533.450086 532.527421 
L 534.688344 533.261962 
L 535.926601 534.617583 
L 537.164858 536.401195 
L 538.403116 537.853456 
L 539.641373 538.131068 
L 540.87963 537.064825 
L 543.356145 533.566681 
L 544.594402 532.504845 
L 545.832659 532.275219 
L 547.070916 532.806035 
L 548.309174 533.845056 
L 550.785688 536.104894 
L 552.023945 537.120587 
L 553.262203 538.450942 
L 554.50046 540.310774 
L 555.738717 542.392194 
L 556.976975 544.065398 
L 558.215232 544.847441 
L 559.453489 544.790253 
L 560.691746 544.59853 
L 561.930004 545.039527 
L 563.168261 546.252648 
L 568.12129 552.804963 
L 569.359547 553.698635 
L 570.597804 554.099602 
L 571.836062 554.200581 
L 573.074319 554.085464 
L 575.550834 553.464517 
L 576.789091 553.44782 
L 579.265605 553.713434 
L 580.503863 553.560301 
L 581.74212 553.213092 
L 582.980377 552.575594 
L 584.218634 551.334926 
L 586.695149 547.752016 
L 587.933406 547.094647 
L 589.171663 547.708113 
L 592.886435 551.631639 
L 594.124693 552.432596 
L 595.36295 552.801403 
L 596.601207 552.648006 
L 597.839464 551.939632 
L 600.315979 549.638799 
L 601.554236 549.021672 
L 602.792493 549.499926 
L 604.030751 551.173607 
L 606.507265 555.571736 
L 607.745523 556.917362 
L 608.98378 557.658524 
L 611.460294 558.536478 
L 612.698552 558.660363 
L 613.936809 558.4483 
L 617.651581 557.245111 
L 618.889838 556.700371 
L 620.128095 555.879777 
L 621.366352 554.631732 
L 623.842867 551.600514 
L 625.081124 550.930185 
L 626.319382 551.480293 
L 627.557639 553.192084 
L 630.034153 558.322065 
L 631.272411 560.331241 
L 632.510668 561.202423 
L 633.748925 560.954064 
L 634.987182 559.864072 
L 642.416726 550.49803 
L 643.654983 550.005409 
L 644.893241 550.591179 
L 647.369755 552.986103 
L 648.608012 553.667791 
L 649.84627 553.525274 
L 651.084527 552.5202 
L 653.561041 549.270911 
L 654.799299 547.971593 
L 656.037556 547.034109 
L 657.275813 546.510831 
L 658.51407 546.767786 
L 659.752328 547.860859 
L 660.990585 549.218017 
L 662.228842 550.297918 
L 664.705357 552.026972 
L 665.943614 553.297209 
L 667.181871 554.952311 
L 669.658386 558.515887 
L 670.896643 559.582272 
L 672.1349 559.692212 
L 673.373158 558.846204 
L 674.611415 557.229526 
L 677.087929 553.219661 
L 678.326187 551.954557 
L 679.564444 551.519598 
L 680.802701 551.663915 
L 682.040959 552.077116 
L 683.279216 552.630124 
L 685.75573 554.037553 
L 686.993988 554.508948 
L 688.232245 554.491835 
L 689.470502 553.863914 
L 690.708759 552.652674 
L 693.185274 549.731527 
L 694.423531 548.844834 
L 695.661789 548.506134 
L 698.138303 548.552412 
L 701.853075 548.661703 
L 703.091332 548.949474 
L 705.567847 549.754045 
L 706.806104 549.592337 
L 708.044361 548.571478 
L 709.282618 546.796665 
L 714.235648 538.286398 
L 715.473905 537.182333 
L 716.712162 537.204889 
L 717.950419 538.305241 
L 719.188677 540.151858 
L 720.426934 542.286044 
L 721.665191 544.052149 
L 722.903448 544.694639 
L 724.141706 543.741649 
L 725.379963 541.281163 
L 726.61822 538.128743 
L 727.856477 535.611414 
L 729.094735 534.604725 
L 730.332992 534.882195 
L 734.047764 537.426527 
L 735.286021 538.432983 
L 737.762536 540.705731 
L 739.000793 541.330354 
L 740.23905 541.173978 
L 741.477307 540.165882 
L 742.715565 538.644091 
L 743.953822 537.351678 
L 745.192079 536.936425 
L 746.430336 537.383987 
L 747.668594 538.068976 
L 748.906851 538.290301 
L 750.145108 537.768238 
L 752.621623 535.682735 
L 753.85988 535.229105 
L 755.098137 535.922914 
L 756.336395 537.550184 
L 757.574652 538.95822 
L 758.812909 539.066699 
L 760.051166 537.835133 
L 761.289424 535.871318 
L 763.765938 531.198062 
L 765.004195 529.65604 
L 766.242453 529.474019 
L 767.48071 530.235596 
L 768.718967 531.164947 
L 771.195482 532.665535 
L 772.433739 533.713297 
L 773.671996 535.256814 
L 774.910254 537.060532 
L 776.148511 538.594664 
L 777.386768 539.469021 
L 778.625025 539.537447 
L 779.863283 538.711429 
L 781.10154 537.063842 
L 782.339797 535.111156 
L 783.578054 533.650977 
L 784.816312 533.228588 
L 786.054569 533.857718 
L 787.292826 535.166452 
L 788.531084 536.676346 
L 789.769341 537.908682 
L 791.007598 538.456053 
L 792.245855 538.292957 
L 795.960627 536.794523 
L 797.198884 535.664783 
L 798.437142 534.090643 
L 799.675399 532.817871 
L 800.913656 532.497656 
L 803.390171 533.387534 
L 804.628428 532.832955 
L 805.866685 531.265687 
L 807.104943 529.478744 
L 808.3432 528.436329 
L 809.581457 528.516017 
L 812.057972 529.938707 
L 813.296229 530.191274 
L 815.772743 530.198808 
L 817.011001 530.55082 
L 818.249258 531.086393 
L 819.487515 531.472757 
L 820.725773 531.562498 
L 821.96403 531.366333 
L 823.202287 530.886479 
L 824.440544 530.110663 
L 828.155316 526.848869 
L 829.393573 526.213963 
L 831.870088 525.27325 
L 834.346602 524.008104 
L 836.823117 523.469076 
L 838.061374 522.812593 
L 839.299632 521.756895 
L 840.537889 520.848099 
L 841.776146 520.709976 
L 843.014403 521.635945 
L 844.252661 523.496317 
L 846.729175 528.379673 
L 847.967432 530.213946 
L 849.20569 530.77278 
L 850.443947 529.907236 
L 851.682204 528.038954 
L 852.920461 525.920131 
L 854.158719 524.317112 
L 855.396976 523.653474 
L 856.635233 523.937226 
L 857.873491 524.988996 
L 859.111748 526.44971 
L 860.350005 527.603447 
L 861.588262 527.683656 
L 862.82652 526.566177 
L 864.064777 524.8975 
L 865.303034 523.540533 
L 866.541291 523.025078 
L 867.779549 523.322794 
L 872.732578 526.113605 
L 873.970835 526.556979 
L 875.209092 526.179903 
L 876.44735 524.484039 
L 877.685607 521.892646 
L 878.923864 519.645741 
L 880.162121 518.570632 
L 881.400379 518.382217 
L 882.638636 518.382806 
L 883.876893 518.219317 
L 886.353408 517.61021 
L 887.591665 517.606148 
L 892.544694 518.625818 
L 893.782951 518.784909 
L 895.021209 518.823678 
L 896.259466 518.212474 
L 897.497723 516.471289 
L 898.73598 513.664462 
L 901.212495 506.976271 
L 902.450752 504.191477 
L 903.689009 502.022817 
L 906.165524 498.118559 
L 908.642039 494.096642 
L 911.118553 490.167071 
L 913.595068 485.93262 
L 914.833325 484.352176 
L 916.071582 483.628414 
L 917.309839 484.236679 
L 918.548097 486.590774 
L 919.786354 490.524175 
L 921.024611 495.105893 
L 922.262868 499.123518 
L 923.501126 501.693583 
L 924.739383 502.516357 
L 925.97764 501.995563 
L 927.215898 501.214123 
L 928.454155 501.215282 
L 929.692412 502.26235 
L 932.168927 505.949125 
L 933.407184 507.341223 
L 934.645441 507.722067 
L 935.883698 507.126021 
L 937.121956 506.074985 
L 938.360213 505.219634 
L 940.836727 504.35258 
L 942.074985 503.287847 
L 943.313242 501.198609 
L 944.551499 498.42266 
L 945.789757 495.933099 
L 947.028014 494.762985 
L 948.266271 495.433631 
L 949.504528 497.573634 
L 950.742786 500.086422 
L 951.981043 501.956354 
L 953.2193 502.89157 
L 954.457557 503.183233 
L 958.172329 503.141999 
L 959.410586 503.635592 
L 960.648844 504.577796 
L 963.125358 507.030688 
L 964.363616 507.911291 
L 965.601873 508.381582 
L 966.84013 508.34896 
L 968.078387 507.534504 
L 969.316645 505.856856 
L 970.554902 503.795582 
L 971.793159 502.136174 
L 973.031416 501.473778 
L 974.269674 501.923507 
L 975.507931 503.136993 
L 976.746188 504.575768 
L 977.984446 505.759199 
L 979.222703 506.292985 
L 980.46096 505.928563 
L 981.699217 504.985111 
L 982.937475 504.471539 
L 984.175732 505.193439 
L 985.413989 506.950118 
L 986.652246 508.929829 
L 987.890504 510.439567 
L 989.128761 511.147424 
L 990.367018 511.160725 
L 991.605275 510.788254 
L 992.843533 509.983834 
L 994.08179 508.40968 
L 995.320047 505.908732 
L 996.558305 502.573336 
L 999.034819 495.212915 
L 1000.273076 492.290435 
L 1001.511334 490.330084 
L 1002.749591 489.527135 
L 1003.987848 489.575265 
L 1005.226105 489.786295 
L 1006.464363 489.651846 
L 1007.70262 488.856176 
L 1008.940877 487.147446 
L 1010.179134 484.532792 
L 1012.655649 478.171434 
L 1013.893906 475.649046 
L 1015.132164 474.260166 
L 1016.370421 473.851277 
L 1017.608678 473.565457 
L 1018.846935 472.352438 
L 1020.085193 469.43511 
L 1021.32345 464.532305 
L 1022.561707 458.042148 
L 1025.038222 444.038981 
L 1026.276479 438.228804 
L 1027.514736 433.950975 
L 1028.752993 431.526056 
L 1029.991251 430.954936 
L 1031.229508 431.719103 
L 1032.467765 432.944508 
L 1033.706023 433.815372 
L 1034.94428 433.864541 
L 1036.182537 433.16689 
L 1038.659052 431.268807 
L 1039.897309 430.422754 
L 1041.135566 429.433869 
L 1043.612081 427.048374 
L 1044.850338 426.236828 
L 1046.088595 425.977986 
L 1047.326852 426.36472 
L 1048.56511 427.306315 
L 1051.041624 429.618812 
L 1052.279882 430.360704 
L 1053.518139 430.953276 
L 1054.756396 432.036737 
L 1055.994653 434.071992 
L 1057.232911 436.599252 
L 1058.471168 438.490242 
L 1059.709425 438.889693 
L 1060.947682 437.63467 
L 1062.18594 435.420701 
L 1063.424197 433.700751 
L 1064.662454 433.751064 
L 1065.900711 435.757389 
L 1069.615483 445.0888 
L 1070.853741 446.729668 
L 1072.091998 447.381429 
L 1073.330255 447.48209 
L 1074.568512 447.274923 
L 1075.80677 446.934133 
L 1077.045027 446.86623 
L 1078.283284 447.411685 
L 1079.521541 448.249513 
L 1080.759799 448.377054 
L 1081.998056 446.679269 
L 1083.236313 442.677312 
L 1085.712828 432.098761 
L 1086.951085 429.449602 
L 1088.189342 429.922274 
L 1089.4276 432.903845 
L 1091.904114 441.296497 
L 1093.142371 444.386954 
L 1095.618886 449.017386 
L 1096.857143 452.744344 
L 1099.333658 462.882442 
L 1100.571915 466.812564 
L 1101.810172 469.14308 
L 1103.04843 470.184215 
L 1104.286687 470.255939 
L 1105.524944 469.192544 
L 1106.763201 466.485858 
L 1108.001459 462.108712 
L 1109.239716 457.13704 
L 1110.477973 453.167401 
L 1111.71623 451.185055 
L 1112.954488 451.29254 
L 1114.192745 453.287296 
L 1115.431002 456.91528 
L 1117.907517 466.112184 
L 1119.145774 469.853724 
L 1120.384031 472.610679 
L 1122.860546 476.63071 
L 1124.098803 478.330807 
L 1125.33706 479.156651 
L 1126.575318 478.392724 
L 1129.051832 474.467198 
L 1130.290089 473.461688 
L 1131.528347 473.430922 
L 1132.766604 474.021007 
L 1134.004861 475.006256 
L 1136.481376 477.878816 
L 1137.719633 478.787043 
L 1138.95789 478.462445 
L 1140.196148 476.841049 
L 1141.434405 474.25255 
L 1143.910919 468.055125 
L 1145.149177 464.698306 
L 1146.387434 460.804337 
L 1147.625691 456.078203 
L 1150.102206 444.449497 
L 1151.340463 439.62706 
L 1152.57872 436.922034 
L 1153.816977 435.830716 
L 1155.055235 435.118006 
L 1156.293492 433.858055 
L 1157.531749 431.482291 
L 1158.770007 427.442056 
L 1160.008264 421.384656 
L 1161.246521 413.610984 
L 1162.484778 404.743089 
L 1163.723036 395.024608 
L 1167.437807 362.523475 
L 1168.676065 354.876155 
L 1169.914322 351.862857 
L 1171.152579 353.557547 
L 1172.390837 358.749606 
L 1174.867351 372.542898 
L 1176.105608 377.932673 
L 1178.582123 386.07284 
L 1179.82038 389.867982 
L 1181.058637 393.071966 
L 1182.296895 395.458477 
L 1183.535152 397.102188 
L 1184.773409 398.508475 
L 1186.011666 400.684315 
L 1187.249924 404.435703 
L 1188.488181 409.751887 
L 1190.964696 422.002547 
L 1192.202953 427.185884 
L 1193.44121 431.380563 
L 1194.679467 434.785561 
L 1195.917725 437.321616 
L 1197.155982 438.8176 
L 1199.632496 440.400747 
L 1200.870754 441.879412 
L 1202.109011 444.111892 
L 1204.585525 449.107743 
L 1205.823783 451.021125 
L 1209.538555 455.746028 
L 1210.776812 456.967847 
L 1212.015069 457.467404 
L 1213.253326 457.221428 
L 1214.491584 456.531083 
L 1216.968098 454.992915 
L 1218.206355 454.802548 
L 1219.444613 455.699584 
L 1220.68287 457.891887 
L 1223.159384 463.909301 
L 1224.397642 465.34387 
L 1225.635899 464.533625 
L 1226.874156 461.857398 
L 1229.350671 454.928901 
L 1230.588928 452.419092 
L 1231.827185 451.305594 
L 1233.065443 451.720437 
L 1234.3037 453.423623 
L 1235.541957 455.959269 
L 1236.780214 458.771573 
L 1238.018472 461.240327 
L 1239.256729 462.725034 
L 1240.494986 462.973018 
L 1241.733243 462.44062 
L 1244.209758 461.008006 
L 1245.448015 460.473086 
L 1246.686273 460.578646 
L 1247.92453 461.452706 
L 1249.162787 462.602554 
L 1250.401044 463.522433 
L 1251.639302 464.07619 
L 1252.877559 464.316764 
L 1254.115816 464.391008 
L 1255.354073 464.602333 
L 1256.592331 465.239369 
L 1257.830588 466.124368 
L 1259.068845 466.620369 
L 1261.54536 466.30132 
L 1262.783617 467.009726 
L 1264.021874 468.738757 
L 1265.260132 470.885095 
L 1266.498389 472.635731 
L 1267.736646 473.448612 
L 1268.974903 473.27034 
L 1270.213161 472.218191 
L 1271.451418 470.327791 
L 1272.689675 468.063136 
L 1273.927932 466.633952 
L 1275.16619 467.044838 
L 1276.404447 469.027382 
L 1277.642704 471.350431 
L 1278.880962 472.734025 
L 1280.119219 472.405926 
L 1281.357476 470.500989 
L 1282.595733 468.044348 
L 1283.833991 466.295482 
L 1285.072248 466.049352 
L 1286.310505 467.371315 
L 1288.78702 472.024135 
L 1290.025277 473.394051 
L 1291.263534 473.452704 
L 1292.501791 472.66436 
L 1293.740049 472.087472 
L 1294.978306 472.587263 
L 1297.454821 475.27086 
L 1298.693078 475.616967 
L 1299.931335 474.729391 
L 1301.169592 473.07906 
L 1302.40785 471.713608 
L 1303.646107 471.476206 
L 1304.884364 472.402555 
L 1306.122621 473.863709 
L 1307.360879 475.002136 
L 1308.599136 475.293279 
L 1309.837393 474.899517 
L 1311.07565 474.133607 
L 1312.313908 472.89518 
L 1314.790422 469.403314 
L 1316.02868 468.516631 
L 1317.266937 469.080792 
L 1318.505194 471.115459 
L 1320.981709 477.216755 
L 1322.219966 479.746207 
L 1323.458223 481.26426 
L 1324.69648 481.741156 
L 1325.934738 481.358655 
L 1329.649509 478.714482 
L 1330.887767 478.971358 
L 1332.126024 480.413661 
L 1334.602539 484.592432 
L 1335.840796 486.226202 
L 1337.079053 487.126786 
L 1338.31731 487.079708 
L 1339.555568 486.20513 
L 1340.793825 484.821688 
L 1343.270339 481.815434 
L 1344.508597 481.067554 
L 1345.746854 481.322847 
L 1348.223368 483.387631 
L 1349.461626 483.697965 
L 1351.93814 482.873902 
L 1353.176398 482.854813 
L 1354.414655 483.408704 
L 1355.652912 484.546768 
L 1356.891169 485.937391 
L 1358.129427 486.899677 
L 1359.367684 486.897563 
L 1360.605941 485.907164 
L 1361.844198 484.267783 
L 1364.320713 480.265893 
L 1366.797228 475.989114 
L 1368.035485 474.385855 
L 1369.273742 473.594127 
L 1370.511999 473.470101 
L 1372.988514 474.013512 
L 1374.226771 474.325866 
L 1375.465028 474.916695 
L 1376.703286 476.141863 
L 1377.941543 477.993595 
L 1379.1798 480.10751 
L 1380.418057 481.981921 
L 1381.656315 483.081393 
L 1382.894572 482.830212 
L 1384.132829 480.918652 
L 1386.609344 474.762478 
L 1387.847601 472.59374 
L 1389.085858 471.650777 
L 1390.324116 471.741525 
L 1391.562373 472.480953 
L 1392.80063 473.573631 
L 1394.038887 474.943274 
L 1397.753659 479.895359 
L 1398.991916 480.544496 
L 1400.230174 479.803365 
L 1401.468431 477.719607 
L 1402.706688 475.103287 
L 1403.944946 473.068103 
L 1405.183203 472.577303 
L 1406.42146 474.105758 
L 1408.897975 480.195479 
L 1410.136232 482.147778 
L 1411.374489 482.792615 
L 1413.851004 482.952293 
L 1415.089261 482.808588 
L 1416.327518 481.968637 
L 1417.565775 480.428249 
L 1418.804033 478.645635 
L 1420.04229 477.202282 
L 1421.280547 476.455753 
L 1422.518805 476.394573 
L 1423.757062 476.6719 
L 1424.995319 476.743329 
L 1426.233576 476.114466 
L 1427.471834 474.587351 
L 1428.710091 472.47916 
L 1429.948348 470.722773 
L 1431.186605 470.382622 
L 1432.424863 471.773137 
L 1434.901377 476.470156 
L 1436.139634 477.658489 
L 1437.377892 477.61206 
L 1438.616149 476.680885 
L 1439.854406 475.110073 
L 1443.569178 468.971628 
L 1444.807435 467.730037 
L 1446.045693 467.983333 
L 1447.28395 470.000931 
L 1449.760464 476.19198 
L 1450.998722 478.414111 
L 1452.236979 479.253978 
L 1453.475236 478.619193 
L 1454.713494 476.754106 
L 1457.190008 471.910244 
L 1458.428265 470.222973 
L 1459.666523 468.868513 
L 1463.381294 464.226914 
L 1464.619552 463.449081 
L 1465.857809 463.262565 
L 1467.096066 463.221931 
L 1468.334323 462.754428 
L 1470.810838 460.852453 
L 1472.049095 461.175503 
L 1473.287353 463.568222 
L 1475.763867 471.702536 
L 1477.002124 474.547319 
L 1478.240382 475.794256 
L 1479.478639 475.829092 
L 1480.716896 475.244699 
L 1484.431668 472.966106 
L 1485.669925 472.458173 
L 1490.622954 471.325559 
L 1491.861212 471.363508 
L 1493.099469 471.721937 
L 1494.337726 472.248957 
L 1495.575983 472.159256 
L 1496.814241 470.853942 
L 1498.052498 468.832555 
L 1499.290755 467.109822 
L 1500.529012 466.225677 
L 1501.76727 466.130559 
L 1503.005527 466.420159 
L 1504.243784 466.395146 
L 1505.482041 465.145019 
L 1506.720299 462.086107 
L 1507.958556 457.844962 
L 1509.196813 454.230703 
L 1510.435071 452.881188 
L 1511.673328 453.986249 
L 1512.911585 456.202691 
L 1514.149842 457.709661 
L 1515.3881 457.535258 
L 1516.626357 456.051629 
L 1517.864614 454.366543 
L 1519.102871 453.353851 
L 1520.341129 453.146587 
L 1521.579386 453.164571 
L 1522.817643 452.487081 
L 1524.0559 450.572853 
L 1525.294158 447.837795 
L 1526.532415 445.510798 
L 1527.770672 445.045498 
L 1529.00893 447.413402 
L 1530.247187 452.425313 
L 1532.723701 465.300669 
L 1533.961959 470.811576 
L 1535.200216 474.717624 
L 1536.438473 476.935323 
L 1537.67673 477.981047 
L 1538.914988 478.313088 
L 1540.153245 477.927788 
L 1541.391502 476.622361 
L 1542.62976 474.450944 
L 1543.868017 472.019082 
L 1545.106274 470.184762 
L 1546.344531 469.225987 
L 1547.582789 468.585303 
L 1548.821046 467.630919 
L 1550.059303 466.216877 
L 1552.535818 462.537967 
L 1555.012332 458.54331 
L 1556.250589 456.915979 
L 1557.488847 456.184785 
L 1558.727104 457.191823 
L 1559.965361 460.30086 
L 1561.203619 464.480974 
L 1562.441876 467.749342 
L 1563.680133 468.576363 
L 1564.91839 466.7737 
L 1567.394905 459.999728 
L 1568.633162 457.722736 
L 1569.871419 456.816182 
L 1572.347934 456.716419 
L 1573.586191 455.941327 
L 1574.824448 454.347162 
L 1577.300963 450.250289 
L 1578.53922 448.774829 
L 1579.777478 448.639499 
L 1581.015735 449.963923 
L 1582.253992 451.956169 
L 1583.492249 453.591663 
L 1584.730507 454.215689 
L 1585.968764 453.554476 
L 1587.207021 451.612101 
L 1589.683536 445.946802 
L 1590.921793 443.815825 
L 1592.16005 443.040591 
L 1593.398307 443.879752 
L 1594.636565 446.076617 
L 1595.874822 448.916179 
L 1597.113079 451.384362 
L 1598.351337 452.602531 
L 1599.589594 452.516715 
L 1600.827851 451.730325 
L 1602.066108 450.590057 
L 1603.304366 449.048447 
L 1605.78088 445.337851 
L 1607.019137 443.835393 
L 1608.257395 442.95473 
L 1609.495652 442.696126 
L 1613.210424 442.605129 
L 1614.448681 442.912977 
L 1615.686938 443.06426 
L 1616.925196 442.870847 
L 1619.40171 442.101012 
L 1620.639967 441.439957 
L 1621.878225 440.91163 
L 1623.116482 441.415789 
L 1624.354739 443.788275 
L 1625.592996 447.988084 
L 1626.831254 452.943088 
L 1628.069511 457.236887 
L 1629.307768 459.679015 
L 1630.546026 459.496118 
L 1631.784283 456.794391 
L 1634.260797 448.752721 
L 1635.499055 445.891448 
L 1636.737312 444.439754 
L 1637.975569 444.306246 
L 1639.213826 445.737853 
L 1640.452084 449.255611 
L 1641.690341 454.478397 
L 1641.690341 454.478397 
" style="fill:none;stroke:#008000;stroke-linecap:square;stroke-width:1.5;"/>
   </g>
   <g id="patch_3">
    <path d="M 43.78125 586.86358 
L 43.78125 22.318125 
" style="fill:none;stroke:#000000;stroke-linecap:square;stroke-linejoin:miter;stroke-width:0.8;"/>
   </g>
   <g id="patch_4">
    <path d="M 1717.78125 586.86358 
L 1717.78125 22.318125 
" style="fill:none;stroke:#000000;stroke-linecap:square;stroke-linejoin:miter;stroke-width:0.8;"/>
   </g>
   <g id="patch_5">
    <path d="M 43.78125 586.86358 
L 1717.78125 586.86358 
" style="fill:none;stroke:#000000;stroke-linecap:square;stroke-linejoin:miter;stroke-width:0.8;"/>
   </g>
   <g id="patch_6">
    <path d="M 43.78125 22.318125 
L 1717.78125 22.318125 
" style="fill:none;stroke:#000000;stroke-linecap:square;stroke-linejoin:miter;stroke-width:0.8;"/>
   </g>
   <g id="text_17">
    <!-- before binarisation -->
    <g transform="translate(824.1825 16.318125)scale(0.12 -0.12)">
     <defs>
      <path d="M 3116 1747 
Q 3116 2381 2855 2742 
Q 2594 3103 2138 3103 
Q 1681 3103 1420 2742 
Q 1159 2381 1159 1747 
Q 1159 1113 1420 752 
Q 1681 391 2138 391 
Q 2594 391 2855 752 
Q 3116 1113 3116 1747 
z
M 1159 2969 
Q 1341 3281 1617 3432 
Q 1894 3584 2278 3584 
Q 2916 3584 3314 3078 
Q 3713 2572 3713 1747 
Q 3713 922 3314 415 
Q 2916 -91 2278 -91 
Q 1894 -91 1617 61 
Q 1341 213 1159 525 
L 1159 0 
L 581 0 
L 581 4863 
L 1159 4863 
L 1159 2969 
z
" id="DejaVuSans-62" transform="scale(0.015625)"/>
      <path d="M 1959 3097 
Q 1497 3097 1228 2736 
Q 959 2375 959 1747 
Q 959 1119 1226 758 
Q 1494 397 1959 397 
Q 2419 397 2687 759 
Q 2956 1122 2956 1747 
Q 2956 2369 2687 2733 
Q 2419 3097 1959 3097 
z
M 1959 3584 
Q 2709 3584 3137 3096 
Q 3566 2609 3566 1747 
Q 3566 888 3137 398 
Q 2709 -91 1959 -91 
Q 1206 -91 779 398 
Q 353 888 353 1747 
Q 353 2609 779 3096 
Q 1206 3584 1959 3584 
z
" id="DejaVuSans-6f" transform="scale(0.015625)"/>
      <path id="DejaVuSans-20" transform="scale(0.015625)"/>
      <path d="M 603 3500 
L 1178 3500 
L 1178 0 
L 603 0 
L 603 3500 
z
M 603 4863 
L 1178 4863 
L 1178 4134 
L 603 4134 
L 603 4863 
z
" id="DejaVuSans-69" transform="scale(0.015625)"/>
      <path d="M 3513 2113 
L 3513 0 
L 2938 0 
L 2938 2094 
Q 2938 2591 2744 2837 
Q 2550 3084 2163 3084 
Q 1697 3084 1428 2787 
Q 1159 2491 1159 1978 
L 1159 0 
L 581 0 
L 581 3500 
L 1159 3500 
L 1159 2956 
Q 1366 3272 1645 3428 
Q 1925 3584 2291 3584 
Q 2894 3584 3203 3211 
Q 3513 2838 3513 2113 
z
" id="DejaVuSans-6e" transform="scale(0.015625)"/>
      <path d="M 2834 3397 
L 2834 2853 
Q 2591 2978 2328 3040 
Q 2066 3103 1784 3103 
Q 1356 3103 1142 2972 
Q 928 2841 928 2578 
Q 928 2378 1081 2264 
Q 1234 2150 1697 2047 
L 1894 2003 
Q 2506 1872 2764 1633 
Q 3022 1394 3022 966 
Q 3022 478 2636 193 
Q 2250 -91 1575 -91 
Q 1294 -91 989 -36 
Q 684 19 347 128 
L 347 722 
Q 666 556 975 473 
Q 1284 391 1588 391 
Q 1994 391 2212 530 
Q 2431 669 2431 922 
Q 2431 1156 2273 1281 
Q 2116 1406 1581 1522 
L 1381 1569 
Q 847 1681 609 1914 
Q 372 2147 372 2553 
Q 372 3047 722 3315 
Q 1072 3584 1716 3584 
Q 2034 3584 2315 3537 
Q 2597 3491 2834 3397 
z
" id="DejaVuSans-73" transform="scale(0.015625)"/>
      <path d="M 1172 4494 
L 1172 3500 
L 2356 3500 
L 2356 3053 
L 1172 3053 
L 1172 1153 
Q 1172 725 1289 603 
Q 1406 481 1766 481 
L 2356 481 
L 2356 0 
L 1766 0 
Q 1100 0 847 248 
Q 594 497 594 1153 
L 594 3053 
L 172 3053 
L 172 3500 
L 594 3500 
L 594 4494 
L 1172 4494 
z
" id="DejaVuSans-74" transform="scale(0.015625)"/>
     </defs>
     <use xlink:href="#DejaVuSans-62"/>
     <use x="63.476562" xlink:href="#DejaVuSans-65"/>
     <use x="125" xlink:href="#DejaVuSans-66"/>
     <use x="160.205078" xlink:href="#DejaVuSans-6f"/>
     <use x="221.386719" xlink:href="#DejaVuSans-72"/>
     <use x="260.25" xlink:href="#DejaVuSans-65"/>
     <use x="321.773438" xlink:href="#DejaVuSans-20"/>
     <use x="353.560547" xlink:href="#DejaVuSans-62"/>
     <use x="417.037109" xlink:href="#DejaVuSans-69"/>
     <use x="444.820312" xlink:href="#DejaVuSans-6e"/>
     <use x="508.199219" xlink:href="#DejaVuSans-61"/>
     <use x="569.478516" xlink:href="#DejaVuSans-72"/>
     <use x="610.591797" xlink:href="#DejaVuSans-69"/>
     <use x="638.375" xlink:href="#DejaVuSans-73"/>
     <use x="690.474609" xlink:href="#DejaVuSans-61"/>
     <use x="751.753906" xlink:href="#DejaVuSans-74"/>
     <use x="790.962891" xlink:href="#DejaVuSans-69"/>
     <use x="818.746094" xlink:href="#DejaVuSans-6f"/>
     <use x="879.927734" xlink:href="#DejaVuSans-6e"/>
    </g>
   </g>
  </g>
  <g id="axes_2">
   <g id="patch_7">
    <path d="M 43.78125 1264.318125 
L 1717.78125 1264.318125 
L 1717.78125 699.77267 
L 43.78125 699.77267 
z
" style="fill:#ffffff;"/>
   </g>
   <g id="matplotlib.axis_3">
    <g id="xtick_8">
     <g id="line2d_16">
      <g>
       <use style="stroke:#000000;stroke-width:0.8;" x="119.872159" xlink:href="#m6042e01b59" y="1264.318125"/>
      </g>
     </g>
     <g id="text_18">
      <!-- 0 -->
      <g transform="translate(116.690909 1278.916563)scale(0.1 -0.1)">
       <use xlink:href="#DejaVuSans-30"/>
      </g>
     </g>
    </g>
    <g id="xtick_9">
     <g id="line2d_17">
      <g>
       <use style="stroke:#000000;stroke-width:0.8;" x="367.523613" xlink:href="#m6042e01b59" y="1264.318125"/>
      </g>
     </g>
     <g id="text_19">
      <!-- 200 -->
      <g transform="translate(357.979863 1278.916563)scale(0.1 -0.1)">
       <use xlink:href="#DejaVuSans-32"/>
       <use x="63.623047" xlink:href="#DejaVuSans-30"/>
       <use x="127.246094" xlink:href="#DejaVuSans-30"/>
      </g>
     </g>
    </g>
    <g id="xtick_10">
     <g id="line2d_18">
      <g>
       <use style="stroke:#000000;stroke-width:0.8;" x="615.175066" xlink:href="#m6042e01b59" y="1264.318125"/>
      </g>
     </g>
     <g id="text_20">
      <!-- 400 -->
      <g transform="translate(605.631316 1278.916563)scale(0.1 -0.1)">
       <use xlink:href="#DejaVuSans-34"/>
       <use x="63.623047" xlink:href="#DejaVuSans-30"/>
       <use x="127.246094" xlink:href="#DejaVuSans-30"/>
      </g>
     </g>
    </g>
    <g id="xtick_11">
     <g id="line2d_19">
      <g>
       <use style="stroke:#000000;stroke-width:0.8;" x="862.82652" xlink:href="#m6042e01b59" y="1264.318125"/>
      </g>
     </g>
     <g id="text_21">
      <!-- 600 -->
      <g transform="translate(853.28277 1278.916563)scale(0.1 -0.1)">
       <use xlink:href="#DejaVuSans-36"/>
       <use x="63.623047" xlink:href="#DejaVuSans-30"/>
       <use x="127.246094" xlink:href="#DejaVuSans-30"/>
      </g>
     </g>
    </g>
    <g id="xtick_12">
     <g id="line2d_20">
      <g>
       <use style="stroke:#000000;stroke-width:0.8;" x="1110.477973" xlink:href="#m6042e01b59" y="1264.318125"/>
      </g>
     </g>
     <g id="text_22">
      <!-- 800 -->
      <g transform="translate(1100.934223 1278.916563)scale(0.1 -0.1)">
       <use xlink:href="#DejaVuSans-38"/>
       <use x="63.623047" xlink:href="#DejaVuSans-30"/>
       <use x="127.246094" xlink:href="#DejaVuSans-30"/>
      </g>
     </g>
    </g>
    <g id="xtick_13">
     <g id="line2d_21">
      <g>
       <use style="stroke:#000000;stroke-width:0.8;" x="1358.129427" xlink:href="#m6042e01b59" y="1264.318125"/>
      </g>
     </g>
     <g id="text_23">
      <!-- 1000 -->
      <g transform="translate(1345.404427 1278.916563)scale(0.1 -0.1)">
       <use xlink:href="#DejaVuSans-31"/>
       <use x="63.623047" xlink:href="#DejaVuSans-30"/>
       <use x="127.246094" xlink:href="#DejaVuSans-30"/>
       <use x="190.869141" xlink:href="#DejaVuSans-30"/>
      </g>
     </g>
    </g>
    <g id="xtick_14">
     <g id="line2d_22">
      <g>
       <use style="stroke:#000000;stroke-width:0.8;" x="1605.78088" xlink:href="#m6042e01b59" y="1264.318125"/>
      </g>
     </g>
     <g id="text_24">
      <!-- 1200 -->
      <g transform="translate(1593.05588 1278.916563)scale(0.1 -0.1)">
       <use xlink:href="#DejaVuSans-31"/>
       <use x="63.623047" xlink:href="#DejaVuSans-32"/>
       <use x="127.246094" xlink:href="#DejaVuSans-30"/>
       <use x="190.869141" xlink:href="#DejaVuSans-30"/>
      </g>
     </g>
    </g>
    <g id="text_25">
     <!-- frame -->
     <g transform="translate(865.954687 1292.594688)scale(0.1 -0.1)">
      <use xlink:href="#DejaVuSans-66"/>
      <use x="35.205078" xlink:href="#DejaVuSans-72"/>
      <use x="76.318359" xlink:href="#DejaVuSans-61"/>
      <use x="137.597656" xlink:href="#DejaVuSans-6d"/>
      <use x="235.009766" xlink:href="#DejaVuSans-65"/>
     </g>
    </g>
   </g>
   <g id="matplotlib.axis_4">
    <g id="ytick_8">
     <g id="line2d_23">
      <g>
       <use style="stroke:#000000;stroke-width:0.8;" x="43.78125" xlink:href="#mbdc0daf1e6" y="1238.656968"/>
      </g>
     </g>
     <g id="text_26">
      <!-- 0.0 -->
      <g transform="translate(20.878125 1242.456187)scale(0.1 -0.1)">
       <defs>
        <path d="M 684 794 
L 1344 794 
L 1344 0 
L 684 0 
L 684 794 
z
" id="DejaVuSans-2e" transform="scale(0.015625)"/>
       </defs>
       <use xlink:href="#DejaVuSans-30"/>
       <use x="63.623047" xlink:href="#DejaVuSans-2e"/>
       <use x="95.410156" xlink:href="#DejaVuSans-30"/>
      </g>
     </g>
    </g>
    <g id="ytick_9">
     <g id="line2d_24">
      <g>
       <use style="stroke:#000000;stroke-width:0.8;" x="43.78125" xlink:href="#mbdc0daf1e6" y="1136.01234"/>
      </g>
     </g>
     <g id="text_27">
      <!-- 0.2 -->
      <g transform="translate(20.878125 1139.811559)scale(0.1 -0.1)">
       <use xlink:href="#DejaVuSans-30"/>
       <use x="63.623047" xlink:href="#DejaVuSans-2e"/>
       <use x="95.410156" xlink:href="#DejaVuSans-32"/>
      </g>
     </g>
    </g>
    <g id="ytick_10">
     <g id="line2d_25">
      <g>
       <use style="stroke:#000000;stroke-width:0.8;" x="43.78125" xlink:href="#mbdc0daf1e6" y="1033.367712"/>
      </g>
     </g>
     <g id="text_28">
      <!-- 0.4 -->
      <g transform="translate(20.878125 1037.166931)scale(0.1 -0.1)">
       <use xlink:href="#DejaVuSans-30"/>
       <use x="63.623047" xlink:href="#DejaVuSans-2e"/>
       <use x="95.410156" xlink:href="#DejaVuSans-34"/>
      </g>
     </g>
    </g>
    <g id="ytick_11">
     <g id="line2d_26">
      <g>
       <use style="stroke:#000000;stroke-width:0.8;" x="43.78125" xlink:href="#mbdc0daf1e6" y="930.723084"/>
      </g>
     </g>
     <g id="text_29">
      <!-- 0.6 -->
      <g transform="translate(20.878125 934.522302)scale(0.1 -0.1)">
       <use xlink:href="#DejaVuSans-30"/>
       <use x="63.623047" xlink:href="#DejaVuSans-2e"/>
       <use x="95.410156" xlink:href="#DejaVuSans-36"/>
      </g>
     </g>
    </g>
    <g id="ytick_12">
     <g id="line2d_27">
      <g>
       <use style="stroke:#000000;stroke-width:0.8;" x="43.78125" xlink:href="#mbdc0daf1e6" y="828.078456"/>
      </g>
     </g>
     <g id="text_30">
      <!-- 0.8 -->
      <g transform="translate(20.878125 831.877674)scale(0.1 -0.1)">
       <use xlink:href="#DejaVuSans-30"/>
       <use x="63.623047" xlink:href="#DejaVuSans-2e"/>
       <use x="95.410156" xlink:href="#DejaVuSans-38"/>
      </g>
     </g>
    </g>
    <g id="ytick_13">
     <g id="line2d_28">
      <g>
       <use style="stroke:#000000;stroke-width:0.8;" x="43.78125" xlink:href="#mbdc0daf1e6" y="725.433827"/>
      </g>
     </g>
     <g id="text_31">
      <!-- 1.0 -->
      <g transform="translate(20.878125 729.233046)scale(0.1 -0.1)">
       <use xlink:href="#DejaVuSans-31"/>
       <use x="63.623047" xlink:href="#DejaVuSans-2e"/>
       <use x="95.410156" xlink:href="#DejaVuSans-30"/>
      </g>
     </g>
    </g>
    <g id="text_32">
     <!-- GCaMP -->
     <g transform="translate(14.798437 999.803991)rotate(-90)scale(0.1 -0.1)">
      <use xlink:href="#DejaVuSans-47"/>
      <use x="77.490234" xlink:href="#DejaVuSans-43"/>
      <use x="147.314453" xlink:href="#DejaVuSans-61"/>
      <use x="208.59375" xlink:href="#DejaVuSans-4d"/>
      <use x="294.873047" xlink:href="#DejaVuSans-50"/>
     </g>
    </g>
   </g>
   <g id="line2d_29">
    <path clip-path="url(#p96bb86a131)" d="M 119.872159 1238.656968 
L 126.063445 1238.656968 
L 127.301703 725.433827 
L 311.802036 725.433827 
L 313.040293 1238.656968 
L 1641.690341 1238.656968 
L 1641.690341 1238.656968 
" style="fill:none;stroke:#008000;stroke-linecap:square;stroke-width:1.5;"/>
   </g>
   <g id="patch_8">
    <path d="M 43.78125 1264.318125 
L 43.78125 699.77267 
" style="fill:none;stroke:#000000;stroke-linecap:square;stroke-linejoin:miter;stroke-width:0.8;"/>
   </g>
   <g id="patch_9">
    <path d="M 1717.78125 1264.318125 
L 1717.78125 699.77267 
" style="fill:none;stroke:#000000;stroke-linecap:square;stroke-linejoin:miter;stroke-width:0.8;"/>
   </g>
   <g id="patch_10">
    <path d="M 43.78125 1264.318125 
L 1717.78125 1264.318125 
" style="fill:none;stroke:#000000;stroke-linecap:square;stroke-linejoin:miter;stroke-width:0.8;"/>
   </g>
   <g id="patch_11">
    <path d="M 43.78125 699.77267 
L 1717.78125 699.77267 
" style="fill:none;stroke:#000000;stroke-linecap:square;stroke-linejoin:miter;stroke-width:0.8;"/>
   </g>
   <g id="text_33">
    <!-- before binarisation -->
    <g transform="translate(824.1825 693.77267)scale(0.12 -0.12)">
     <use xlink:href="#DejaVuSans-62"/>
     <use x="63.476562" xlink:href="#DejaVuSans-65"/>
     <use x="125" xlink:href="#DejaVuSans-66"/>
     <use x="160.205078" xlink:href="#DejaVuSans-6f"/>
     <use x="221.386719" xlink:href="#DejaVuSans-72"/>
     <use x="260.25" xlink:href="#DejaVuSans-65"/>
     <use x="321.773438" xlink:href="#DejaVuSans-20"/>
     <use x="353.560547" xlink:href="#DejaVuSans-62"/>
     <use x="417.037109" xlink:href="#DejaVuSans-69"/>
     <use x="444.820312" xlink:href="#DejaVuSans-6e"/>
     <use x="508.199219" xlink:href="#DejaVuSans-61"/>
     <use x="569.478516" xlink:href="#DejaVuSans-72"/>
     <use x="610.591797" xlink:href="#DejaVuSans-69"/>
     <use x="638.375" xlink:href="#DejaVuSans-73"/>
     <use x="690.474609" xlink:href="#DejaVuSans-61"/>
     <use x="751.753906" xlink:href="#DejaVuSans-74"/>
     <use x="790.962891" xlink:href="#DejaVuSans-69"/>
     <use x="818.746094" xlink:href="#DejaVuSans-6f"/>
     <use x="879.927734" xlink:href="#DejaVuSans-6e"/>
    </g>
   </g>
  </g>
 </g>
 <defs>
  <clipPath id="p05e93ac135">
   <rect height="564.545455" width="1674" x="43.78125" y="22.318125"/>
  </clipPath>
  <clipPath id="p96bb86a131">
   <rect height="564.545455" width="1674" x="43.78125" y="699.77267"/>
  </clipPath>
 </defs>
</svg>
