<?xml version="1.0" encoding="utf-8" standalone="no"?>
<!DOCTYPE svg PUBLIC "-//W3C//DTD SVG 1.1//EN"
  "http://www.w3.org/Graphics/SVG/1.1/DTD/svg11.dtd">
<svg height="1301.874375pt" version="1.1" viewBox="0 0 1724.98125 1301.874375" width="1724.98125pt" xmlns="http://www.w3.org/2000/svg" xmlns:xlink="http://www.w3.org/1999/xlink">
 <metadata>
  <rdf:RDF xmlns:cc="http://creativecommons.org/ns#" xmlns:dc="http://purl.org/dc/elements/1.1/" xmlns:rdf="http://www.w3.org/1999/02/22-rdf-syntax-ns#">
   <cc:Work>
    <dc:type rdf:resource="http://purl.org/dc/dcmitype/StillImage"/>
    <dc:date>2022-07-24T15:54:39.612420</dc:date>
    <dc:format>image/svg+xml</dc:format>
    <dc:creator>
     <cc:Agent>
      <dc:title>Matplotlib v3.4.2, https://matplotlib.org/</dc:title>
     </cc:Agent>
    </dc:creator>
   </cc:Work>
  </rdf:RDF>
 </metadata>
 <defs>
  <style type="text/css">*{stroke-linecap:butt;stroke-linejoin:round;}</style>
 </defs>
 <g id="figure_1">
  <g id="patch_1">
   <path d="M 0 1301.874375 
L 1724.98125 1301.874375 
L 1724.98125 0 
L 0 0 
z
" style="fill:#ffffff;"/>
  </g>
  <g id="axes_1">
   <g id="patch_2">
    <path d="M 43.78125 586.86358 
L 1717.78125 586.86358 
L 1717.78125 22.318125 
L 43.78125 22.318125 
z
" style="fill:#ffffff;"/>
   </g>
   <g id="matplotlib.axis_1">
    <g id="xtick_1">
     <g id="line2d_1">
      <defs>
       <path d="M 0 0 
L 0 3.5 
" id="m8dbf56833f" style="stroke:#000000;stroke-width:0.8;"/>
      </defs>
      <g>
       <use style="stroke:#000000;stroke-width:0.8;" x="119.872159" xlink:href="#m8dbf56833f" y="586.86358"/>
      </g>
     </g>
     <g id="text_1">
      <!-- 0 -->
      <g transform="translate(116.690909 601.462017)scale(0.1 -0.1)">
       <defs>
        <path d="M 2034 4250 
Q 1547 4250 1301 3770 
Q 1056 3291 1056 2328 
Q 1056 1369 1301 889 
Q 1547 409 2034 409 
Q 2525 409 2770 889 
Q 3016 1369 3016 2328 
Q 3016 3291 2770 3770 
Q 2525 4250 2034 4250 
z
M 2034 4750 
Q 2819 4750 3233 4129 
Q 3647 3509 3647 2328 
Q 3647 1150 3233 529 
Q 2819 -91 2034 -91 
Q 1250 -91 836 529 
Q 422 1150 422 2328 
Q 422 3509 836 4129 
Q 1250 4750 2034 4750 
z
" id="DejaVuSans-30" transform="scale(0.015625)"/>
       </defs>
       <use xlink:href="#DejaVuSans-30"/>
      </g>
     </g>
    </g>
    <g id="xtick_2">
     <g id="line2d_2">
      <g>
       <use style="stroke:#000000;stroke-width:0.8;" x="367.523613" xlink:href="#m8dbf56833f" y="586.86358"/>
      </g>
     </g>
     <g id="text_2">
      <!-- 200 -->
      <g transform="translate(357.979863 601.462017)scale(0.1 -0.1)">
       <defs>
        <path d="M 1228 531 
L 3431 531 
L 3431 0 
L 469 0 
L 469 531 
Q 828 903 1448 1529 
Q 2069 2156 2228 2338 
Q 2531 2678 2651 2914 
Q 2772 3150 2772 3378 
Q 2772 3750 2511 3984 
Q 2250 4219 1831 4219 
Q 1534 4219 1204 4116 
Q 875 4013 500 3803 
L 500 4441 
Q 881 4594 1212 4672 
Q 1544 4750 1819 4750 
Q 2544 4750 2975 4387 
Q 3406 4025 3406 3419 
Q 3406 3131 3298 2873 
Q 3191 2616 2906 2266 
Q 2828 2175 2409 1742 
Q 1991 1309 1228 531 
z
" id="DejaVuSans-32" transform="scale(0.015625)"/>
       </defs>
       <use xlink:href="#DejaVuSans-32"/>
       <use x="63.623047" xlink:href="#DejaVuSans-30"/>
       <use x="127.246094" xlink:href="#DejaVuSans-30"/>
      </g>
     </g>
    </g>
    <g id="xtick_3">
     <g id="line2d_3">
      <g>
       <use style="stroke:#000000;stroke-width:0.8;" x="615.175066" xlink:href="#m8dbf56833f" y="586.86358"/>
      </g>
     </g>
     <g id="text_3">
      <!-- 400 -->
      <g transform="translate(605.631316 601.462017)scale(0.1 -0.1)">
       <defs>
        <path d="M 2419 4116 
L 825 1625 
L 2419 1625 
L 2419 4116 
z
M 2253 4666 
L 3047 4666 
L 3047 1625 
L 3713 1625 
L 3713 1100 
L 3047 1100 
L 3047 0 
L 2419 0 
L 2419 1100 
L 313 1100 
L 313 1709 
L 2253 4666 
z
" id="DejaVuSans-34" transform="scale(0.015625)"/>
       </defs>
       <use xlink:href="#DejaVuSans-34"/>
       <use x="63.623047" xlink:href="#DejaVuSans-30"/>
       <use x="127.246094" xlink:href="#DejaVuSans-30"/>
      </g>
     </g>
    </g>
    <g id="xtick_4">
     <g id="line2d_4">
      <g>
       <use style="stroke:#000000;stroke-width:0.8;" x="862.82652" xlink:href="#m8dbf56833f" y="586.86358"/>
      </g>
     </g>
     <g id="text_4">
      <!-- 600 -->
      <g transform="translate(853.28277 601.462017)scale(0.1 -0.1)">
       <defs>
        <path d="M 2113 2584 
Q 1688 2584 1439 2293 
Q 1191 2003 1191 1497 
Q 1191 994 1439 701 
Q 1688 409 2113 409 
Q 2538 409 2786 701 
Q 3034 994 3034 1497 
Q 3034 2003 2786 2293 
Q 2538 2584 2113 2584 
z
M 3366 4563 
L 3366 3988 
Q 3128 4100 2886 4159 
Q 2644 4219 2406 4219 
Q 1781 4219 1451 3797 
Q 1122 3375 1075 2522 
Q 1259 2794 1537 2939 
Q 1816 3084 2150 3084 
Q 2853 3084 3261 2657 
Q 3669 2231 3669 1497 
Q 3669 778 3244 343 
Q 2819 -91 2113 -91 
Q 1303 -91 875 529 
Q 447 1150 447 2328 
Q 447 3434 972 4092 
Q 1497 4750 2381 4750 
Q 2619 4750 2861 4703 
Q 3103 4656 3366 4563 
z
" id="DejaVuSans-36" transform="scale(0.015625)"/>
       </defs>
       <use xlink:href="#DejaVuSans-36"/>
       <use x="63.623047" xlink:href="#DejaVuSans-30"/>
       <use x="127.246094" xlink:href="#DejaVuSans-30"/>
      </g>
     </g>
    </g>
    <g id="xtick_5">
     <g id="line2d_5">
      <g>
       <use style="stroke:#000000;stroke-width:0.8;" x="1110.477973" xlink:href="#m8dbf56833f" y="586.86358"/>
      </g>
     </g>
     <g id="text_5">
      <!-- 800 -->
      <g transform="translate(1100.934223 601.462017)scale(0.1 -0.1)">
       <defs>
        <path d="M 2034 2216 
Q 1584 2216 1326 1975 
Q 1069 1734 1069 1313 
Q 1069 891 1326 650 
Q 1584 409 2034 409 
Q 2484 409 2743 651 
Q 3003 894 3003 1313 
Q 3003 1734 2745 1975 
Q 2488 2216 2034 2216 
z
M 1403 2484 
Q 997 2584 770 2862 
Q 544 3141 544 3541 
Q 544 4100 942 4425 
Q 1341 4750 2034 4750 
Q 2731 4750 3128 4425 
Q 3525 4100 3525 3541 
Q 3525 3141 3298 2862 
Q 3072 2584 2669 2484 
Q 3125 2378 3379 2068 
Q 3634 1759 3634 1313 
Q 3634 634 3220 271 
Q 2806 -91 2034 -91 
Q 1263 -91 848 271 
Q 434 634 434 1313 
Q 434 1759 690 2068 
Q 947 2378 1403 2484 
z
M 1172 3481 
Q 1172 3119 1398 2916 
Q 1625 2713 2034 2713 
Q 2441 2713 2670 2916 
Q 2900 3119 2900 3481 
Q 2900 3844 2670 4047 
Q 2441 4250 2034 4250 
Q 1625 4250 1398 4047 
Q 1172 3844 1172 3481 
z
" id="DejaVuSans-38" transform="scale(0.015625)"/>
       </defs>
       <use xlink:href="#DejaVuSans-38"/>
       <use x="63.623047" xlink:href="#DejaVuSans-30"/>
       <use x="127.246094" xlink:href="#DejaVuSans-30"/>
      </g>
     </g>
    </g>
    <g id="xtick_6">
     <g id="line2d_6">
      <g>
       <use style="stroke:#000000;stroke-width:0.8;" x="1358.129427" xlink:href="#m8dbf56833f" y="586.86358"/>
      </g>
     </g>
     <g id="text_6">
      <!-- 1000 -->
      <g transform="translate(1345.404427 601.462017)scale(0.1 -0.1)">
       <defs>
        <path d="M 794 531 
L 1825 531 
L 1825 4091 
L 703 3866 
L 703 4441 
L 1819 4666 
L 2450 4666 
L 2450 531 
L 3481 531 
L 3481 0 
L 794 0 
L 794 531 
z
" id="DejaVuSans-31" transform="scale(0.015625)"/>
       </defs>
       <use xlink:href="#DejaVuSans-31"/>
       <use x="63.623047" xlink:href="#DejaVuSans-30"/>
       <use x="127.246094" xlink:href="#DejaVuSans-30"/>
       <use x="190.869141" xlink:href="#DejaVuSans-30"/>
      </g>
     </g>
    </g>
    <g id="xtick_7">
     <g id="line2d_7">
      <g>
       <use style="stroke:#000000;stroke-width:0.8;" x="1605.78088" xlink:href="#m8dbf56833f" y="586.86358"/>
      </g>
     </g>
     <g id="text_7">
      <!-- 1200 -->
      <g transform="translate(1593.05588 601.462017)scale(0.1 -0.1)">
       <use xlink:href="#DejaVuSans-31"/>
       <use x="63.623047" xlink:href="#DejaVuSans-32"/>
       <use x="127.246094" xlink:href="#DejaVuSans-30"/>
       <use x="190.869141" xlink:href="#DejaVuSans-30"/>
      </g>
     </g>
    </g>
    <g id="text_8">
     <!-- frame -->
     <g transform="translate(865.954687 615.140142)scale(0.1 -0.1)">
      <defs>
       <path d="M 2375 4863 
L 2375 4384 
L 1825 4384 
Q 1516 4384 1395 4259 
Q 1275 4134 1275 3809 
L 1275 3500 
L 2222 3500 
L 2222 3053 
L 1275 3053 
L 1275 0 
L 697 0 
L 697 3053 
L 147 3053 
L 147 3500 
L 697 3500 
L 697 3744 
Q 697 4328 969 4595 
Q 1241 4863 1831 4863 
L 2375 4863 
z
" id="DejaVuSans-66" transform="scale(0.015625)"/>
       <path d="M 2631 2963 
Q 2534 3019 2420 3045 
Q 2306 3072 2169 3072 
Q 1681 3072 1420 2755 
Q 1159 2438 1159 1844 
L 1159 0 
L 581 0 
L 581 3500 
L 1159 3500 
L 1159 2956 
Q 1341 3275 1631 3429 
Q 1922 3584 2338 3584 
Q 2397 3584 2469 3576 
Q 2541 3569 2628 3553 
L 2631 2963 
z
" id="DejaVuSans-72" transform="scale(0.015625)"/>
       <path d="M 2194 1759 
Q 1497 1759 1228 1600 
Q 959 1441 959 1056 
Q 959 750 1161 570 
Q 1363 391 1709 391 
Q 2188 391 2477 730 
Q 2766 1069 2766 1631 
L 2766 1759 
L 2194 1759 
z
M 3341 1997 
L 3341 0 
L 2766 0 
L 2766 531 
Q 2569 213 2275 61 
Q 1981 -91 1556 -91 
Q 1019 -91 701 211 
Q 384 513 384 1019 
Q 384 1609 779 1909 
Q 1175 2209 1959 2209 
L 2766 2209 
L 2766 2266 
Q 2766 2663 2505 2880 
Q 2244 3097 1772 3097 
Q 1472 3097 1187 3025 
Q 903 2953 641 2809 
L 641 3341 
Q 956 3463 1253 3523 
Q 1550 3584 1831 3584 
Q 2591 3584 2966 3190 
Q 3341 2797 3341 1997 
z
" id="DejaVuSans-61" transform="scale(0.015625)"/>
       <path d="M 3328 2828 
Q 3544 3216 3844 3400 
Q 4144 3584 4550 3584 
Q 5097 3584 5394 3201 
Q 5691 2819 5691 2113 
L 5691 0 
L 5113 0 
L 5113 2094 
Q 5113 2597 4934 2840 
Q 4756 3084 4391 3084 
Q 3944 3084 3684 2787 
Q 3425 2491 3425 1978 
L 3425 0 
L 2847 0 
L 2847 2094 
Q 2847 2600 2669 2842 
Q 2491 3084 2119 3084 
Q 1678 3084 1418 2786 
Q 1159 2488 1159 1978 
L 1159 0 
L 581 0 
L 581 3500 
L 1159 3500 
L 1159 2956 
Q 1356 3278 1631 3431 
Q 1906 3584 2284 3584 
Q 2666 3584 2933 3390 
Q 3200 3197 3328 2828 
z
" id="DejaVuSans-6d" transform="scale(0.015625)"/>
       <path d="M 3597 1894 
L 3597 1613 
L 953 1613 
Q 991 1019 1311 708 
Q 1631 397 2203 397 
Q 2534 397 2845 478 
Q 3156 559 3463 722 
L 3463 178 
Q 3153 47 2828 -22 
Q 2503 -91 2169 -91 
Q 1331 -91 842 396 
Q 353 884 353 1716 
Q 353 2575 817 3079 
Q 1281 3584 2069 3584 
Q 2775 3584 3186 3129 
Q 3597 2675 3597 1894 
z
M 3022 2063 
Q 3016 2534 2758 2815 
Q 2500 3097 2075 3097 
Q 1594 3097 1305 2825 
Q 1016 2553 972 2059 
L 3022 2063 
z
" id="DejaVuSans-65" transform="scale(0.015625)"/>
      </defs>
      <use xlink:href="#DejaVuSans-66"/>
      <use x="35.205078" xlink:href="#DejaVuSans-72"/>
      <use x="76.318359" xlink:href="#DejaVuSans-61"/>
      <use x="137.597656" xlink:href="#DejaVuSans-6d"/>
      <use x="235.009766" xlink:href="#DejaVuSans-65"/>
     </g>
    </g>
   </g>
   <g id="matplotlib.axis_2">
    <g id="ytick_1">
     <g id="line2d_8">
      <defs>
       <path d="M 0 0 
L -3.5 0 
" id="made4237b5b" style="stroke:#000000;stroke-width:0.8;"/>
      </defs>
      <g>
       <use style="stroke:#000000;stroke-width:0.8;" x="43.78125" xlink:href="#made4237b5b" y="574.707299"/>
      </g>
     </g>
     <g id="text_9">
      <!-- 0.6 -->
      <g transform="translate(20.878125 578.506518)scale(0.1 -0.1)">
       <defs>
        <path d="M 684 794 
L 1344 794 
L 1344 0 
L 684 0 
L 684 794 
z
" id="DejaVuSans-2e" transform="scale(0.015625)"/>
       </defs>
       <use xlink:href="#DejaVuSans-30"/>
       <use x="63.623047" xlink:href="#DejaVuSans-2e"/>
       <use x="95.410156" xlink:href="#DejaVuSans-36"/>
      </g>
     </g>
    </g>
    <g id="ytick_2">
     <g id="line2d_9">
      <g>
       <use style="stroke:#000000;stroke-width:0.8;" x="43.78125" xlink:href="#made4237b5b" y="497.099001"/>
      </g>
     </g>
     <g id="text_10">
      <!-- 0.8 -->
      <g transform="translate(20.878125 500.89822)scale(0.1 -0.1)">
       <use xlink:href="#DejaVuSans-30"/>
       <use x="63.623047" xlink:href="#DejaVuSans-2e"/>
       <use x="95.410156" xlink:href="#DejaVuSans-38"/>
      </g>
     </g>
    </g>
    <g id="ytick_3">
     <g id="line2d_10">
      <g>
       <use style="stroke:#000000;stroke-width:0.8;" x="43.78125" xlink:href="#made4237b5b" y="419.490703"/>
      </g>
     </g>
     <g id="text_11">
      <!-- 1.0 -->
      <g transform="translate(20.878125 423.289922)scale(0.1 -0.1)">
       <use xlink:href="#DejaVuSans-31"/>
       <use x="63.623047" xlink:href="#DejaVuSans-2e"/>
       <use x="95.410156" xlink:href="#DejaVuSans-30"/>
      </g>
     </g>
    </g>
    <g id="ytick_4">
     <g id="line2d_11">
      <g>
       <use style="stroke:#000000;stroke-width:0.8;" x="43.78125" xlink:href="#made4237b5b" y="341.882405"/>
      </g>
     </g>
     <g id="text_12">
      <!-- 1.2 -->
      <g transform="translate(20.878125 345.681623)scale(0.1 -0.1)">
       <use xlink:href="#DejaVuSans-31"/>
       <use x="63.623047" xlink:href="#DejaVuSans-2e"/>
       <use x="95.410156" xlink:href="#DejaVuSans-32"/>
      </g>
     </g>
    </g>
    <g id="ytick_5">
     <g id="line2d_12">
      <g>
       <use style="stroke:#000000;stroke-width:0.8;" x="43.78125" xlink:href="#made4237b5b" y="264.274106"/>
      </g>
     </g>
     <g id="text_13">
      <!-- 1.4 -->
      <g transform="translate(20.878125 268.073325)scale(0.1 -0.1)">
       <use xlink:href="#DejaVuSans-31"/>
       <use x="63.623047" xlink:href="#DejaVuSans-2e"/>
       <use x="95.410156" xlink:href="#DejaVuSans-34"/>
      </g>
     </g>
    </g>
    <g id="ytick_6">
     <g id="line2d_13">
      <g>
       <use style="stroke:#000000;stroke-width:0.8;" x="43.78125" xlink:href="#made4237b5b" y="186.665808"/>
      </g>
     </g>
     <g id="text_14">
      <!-- 1.6 -->
      <g transform="translate(20.878125 190.465027)scale(0.1 -0.1)">
       <use xlink:href="#DejaVuSans-31"/>
       <use x="63.623047" xlink:href="#DejaVuSans-2e"/>
       <use x="95.410156" xlink:href="#DejaVuSans-36"/>
      </g>
     </g>
    </g>
    <g id="ytick_7">
     <g id="line2d_14">
      <g>
       <use style="stroke:#000000;stroke-width:0.8;" x="43.78125" xlink:href="#made4237b5b" y="109.05751"/>
      </g>
     </g>
     <g id="text_15">
      <!-- 1.8 -->
      <g transform="translate(20.878125 112.856729)scale(0.1 -0.1)">
       <use xlink:href="#DejaVuSans-31"/>
       <use x="63.623047" xlink:href="#DejaVuSans-2e"/>
       <use x="95.410156" xlink:href="#DejaVuSans-38"/>
      </g>
     </g>
    </g>
    <g id="ytick_8">
     <g id="line2d_15">
      <g>
       <use style="stroke:#000000;stroke-width:0.8;" x="43.78125" xlink:href="#made4237b5b" y="31.449212"/>
      </g>
     </g>
     <g id="text_16">
      <!-- 2.0 -->
      <g transform="translate(20.878125 35.24843)scale(0.1 -0.1)">
       <use xlink:href="#DejaVuSans-32"/>
       <use x="63.623047" xlink:href="#DejaVuSans-2e"/>
       <use x="95.410156" xlink:href="#DejaVuSans-30"/>
      </g>
     </g>
    </g>
    <g id="text_17">
     <!-- GCaMP -->
     <g transform="translate(14.798437 322.349446)rotate(-90)scale(0.1 -0.1)">
      <defs>
       <path d="M 3809 666 
L 3809 1919 
L 2778 1919 
L 2778 2438 
L 4434 2438 
L 4434 434 
Q 4069 175 3628 42 
Q 3188 -91 2688 -91 
Q 1594 -91 976 548 
Q 359 1188 359 2328 
Q 359 3472 976 4111 
Q 1594 4750 2688 4750 
Q 3144 4750 3555 4637 
Q 3966 4525 4313 4306 
L 4313 3634 
Q 3963 3931 3569 4081 
Q 3175 4231 2741 4231 
Q 1884 4231 1454 3753 
Q 1025 3275 1025 2328 
Q 1025 1384 1454 906 
Q 1884 428 2741 428 
Q 3075 428 3337 486 
Q 3600 544 3809 666 
z
" id="DejaVuSans-47" transform="scale(0.015625)"/>
       <path d="M 4122 4306 
L 4122 3641 
Q 3803 3938 3442 4084 
Q 3081 4231 2675 4231 
Q 1875 4231 1450 3742 
Q 1025 3253 1025 2328 
Q 1025 1406 1450 917 
Q 1875 428 2675 428 
Q 3081 428 3442 575 
Q 3803 722 4122 1019 
L 4122 359 
Q 3791 134 3420 21 
Q 3050 -91 2638 -91 
Q 1578 -91 968 557 
Q 359 1206 359 2328 
Q 359 3453 968 4101 
Q 1578 4750 2638 4750 
Q 3056 4750 3426 4639 
Q 3797 4528 4122 4306 
z
" id="DejaVuSans-43" transform="scale(0.015625)"/>
       <path d="M 628 4666 
L 1569 4666 
L 2759 1491 
L 3956 4666 
L 4897 4666 
L 4897 0 
L 4281 0 
L 4281 4097 
L 3078 897 
L 2444 897 
L 1241 4097 
L 1241 0 
L 628 0 
L 628 4666 
z
" id="DejaVuSans-4d" transform="scale(0.015625)"/>
       <path d="M 1259 4147 
L 1259 2394 
L 2053 2394 
Q 2494 2394 2734 2622 
Q 2975 2850 2975 3272 
Q 2975 3691 2734 3919 
Q 2494 4147 2053 4147 
L 1259 4147 
z
M 628 4666 
L 2053 4666 
Q 2838 4666 3239 4311 
Q 3641 3956 3641 3272 
Q 3641 2581 3239 2228 
Q 2838 1875 2053 1875 
L 1259 1875 
L 1259 0 
L 628 0 
L 628 4666 
z
" id="DejaVuSans-50" transform="scale(0.015625)"/>
      </defs>
      <use xlink:href="#DejaVuSans-47"/>
      <use x="77.490234" xlink:href="#DejaVuSans-43"/>
      <use x="147.314453" xlink:href="#DejaVuSans-61"/>
      <use x="208.59375" xlink:href="#DejaVuSans-4d"/>
      <use x="294.873047" xlink:href="#DejaVuSans-50"/>
     </g>
    </g>
   </g>
   <g id="line2d_16">
    <path clip-path="url(#p2c192900e5)" d="M 119.872159 555.491254 
L 121.110416 556.378702 
L 124.825188 558.630477 
L 126.063445 559.082916 
L 127.301703 558.179086 
L 128.53996 555.567816 
L 131.016474 548.672293 
L 132.254732 546.308014 
L 133.492989 544.804261 
L 134.731246 543.888383 
L 135.969504 543.878528 
L 137.207761 545.218028 
L 138.446018 547.41344 
L 139.684275 549.091162 
L 140.922533 549.172685 
L 142.16079 547.865386 
L 143.399047 546.344669 
L 144.637304 545.589857 
L 145.875562 545.762761 
L 147.113819 546.472619 
L 149.590334 548.146116 
L 150.828591 548.65232 
L 152.066848 548.771928 
L 153.305105 548.633015 
L 154.543363 548.173846 
L 155.78162 547.108896 
L 158.258134 544.094716 
L 159.496392 543.254094 
L 160.734649 542.999988 
L 163.211163 542.803912 
L 164.449421 542.720321 
L 165.687678 543.38562 
L 166.925935 545.28587 
L 169.40245 550.68819 
L 170.640707 551.840817 
L 171.878964 550.996858 
L 174.355479 546.378088 
L 175.593736 545.401634 
L 176.831993 546.478524 
L 178.070251 549.040632 
L 180.546765 555.68268 
L 181.785022 559.036533 
L 183.02328 561.166109 
L 184.261537 561.202423 
L 185.499794 559.52985 
L 186.738052 557.061363 
L 190.452823 548.347229 
L 191.691081 546.313503 
L 192.929338 545.01967 
L 194.167595 544.367204 
L 195.405852 544.509102 
L 196.64411 545.405419 
L 197.882367 546.485932 
L 200.358881 548.343546 
L 201.597139 549.477066 
L 202.835396 550.314481 
L 204.073653 550.536798 
L 206.550168 550.158252 
L 207.788425 549.832785 
L 209.026682 549.354713 
L 210.26494 549.007523 
L 211.503197 549.181211 
L 212.741454 550.018166 
L 213.979711 551.36844 
L 217.694483 556.424128 
L 218.93274 557.556893 
L 220.170998 557.798297 
L 221.409255 557.043612 
L 225.124027 552.621236 
L 228.838799 547.555638 
L 230.077056 547.048355 
L 232.55357 547.686063 
L 233.791828 547.282236 
L 235.030085 546.073191 
L 236.268342 544.549062 
L 237.5066 543.421123 
L 238.744857 543.400478 
L 239.983114 544.628672 
L 241.221371 546.304773 
L 242.459629 547.366373 
L 243.697886 547.391655 
L 244.936143 546.631412 
L 246.1744 545.700703 
L 247.412658 545.377835 
L 248.650915 546.130658 
L 251.127429 549.242015 
L 252.365687 550.346106 
L 253.603944 550.930839 
L 254.842201 550.863182 
L 256.080459 549.91994 
L 257.318716 548.545928 
L 258.556973 547.913526 
L 259.79523 548.645228 
L 262.271745 551.439737 
L 264.748259 554.00618 
L 265.986517 554.440296 
L 267.224774 553.322048 
L 269.701288 548.473476 
L 270.939546 547.241183 
L 272.177803 547.643833 
L 273.41606 549.36269 
L 274.654318 551.712887 
L 275.892575 553.658244 
L 277.130832 554.155592 
L 278.369089 552.931753 
L 280.845604 548.443429 
L 282.083861 546.868759 
L 283.322118 545.879533 
L 284.560376 544.660917 
L 285.798633 542.198835 
L 287.03689 538.156806 
L 288.275147 533.389827 
L 289.513405 529.436123 
L 290.751662 527.589689 
L 291.989919 528.391486 
L 294.466434 534.258837 
L 295.704691 535.62946 
L 296.942948 534.536723 
L 298.181206 531.50576 
L 299.419463 527.980815 
L 300.65772 525.738356 
L 301.895977 525.857442 
L 303.134235 527.994742 
L 305.610749 534.111859 
L 306.849006 536.558771 
L 308.087264 537.452275 
L 309.325521 536.117083 
L 310.563778 532.748264 
L 313.040293 523.410122 
L 315.516807 514.144346 
L 316.755065 510.170921 
L 317.993322 507.10292 
L 320.469836 502.239636 
L 321.708094 498.636102 
L 322.946351 494.065757 
L 324.184608 490.505421 
L 325.422866 490.059807 
L 326.661123 492.748124 
L 327.89938 496.666721 
L 329.137637 499.759593 
L 330.375895 500.935208 
L 331.614152 499.973688 
L 332.852409 497.27712 
L 334.090666 494.019755 
L 335.328924 491.792356 
L 336.567181 491.493664 
L 337.805438 492.685133 
L 339.043695 494.16098 
L 341.52021 496.200722 
L 342.758467 497.856386 
L 343.996725 500.334944 
L 345.234982 503.068319 
L 346.473239 505.181282 
L 347.711496 506.156368 
L 348.949754 506.066931 
L 350.188011 505.111815 
L 351.426268 503.189907 
L 352.664525 500.217105 
L 353.902783 496.685673 
L 355.14104 493.608966 
L 356.379297 492.056866 
L 357.617554 492.589943 
L 358.855812 494.746107 
L 360.094069 497.26812 
L 361.332326 498.953174 
L 362.570584 499.250756 
L 363.808841 498.360291 
L 365.047098 496.933589 
L 366.285355 495.82897 
L 367.523613 495.83384 
L 368.76187 496.792057 
L 370.000127 497.514443 
L 371.238384 497.223356 
L 372.476642 496.343904 
L 373.714899 495.667667 
L 374.953156 495.293373 
L 376.191413 494.734995 
L 377.429671 494.046483 
L 378.667928 494.140063 
L 379.906185 495.629158 
L 381.144443 497.994223 
L 382.3827 500.109629 
L 383.620957 500.926146 
L 384.859214 499.682646 
L 386.097472 496.146817 
L 387.335729 490.754923 
L 389.812243 478.162781 
L 391.050501 472.6681 
L 393.527015 463.691283 
L 394.765272 459.841123 
L 396.00353 457.057885 
L 397.241787 455.771187 
L 398.480044 455.509338 
L 400.956559 455.252258 
L 402.194816 455.655068 
L 403.433073 457.133674 
L 404.671331 459.127737 
L 405.909588 460.382715 
L 407.147845 459.998572 
L 408.386102 457.653516 
L 410.862617 449.973325 
L 412.100874 448.67434 
L 413.339132 450.65498 
L 415.815646 458.678768 
L 417.053903 461.3143 
L 418.292161 462.348221 
L 419.530418 462.054597 
L 420.768675 460.680569 
L 422.006932 458.785053 
L 423.24519 457.24491 
L 424.483447 456.356053 
L 425.721704 455.610956 
L 426.959961 454.497983 
L 428.198219 452.738401 
L 429.436476 450.223584 
L 430.674733 447.45485 
L 431.912991 445.376012 
L 433.151248 444.505075 
L 434.389505 444.952504 
L 435.627762 447.015505 
L 436.86602 450.883829 
L 439.342534 461.429471 
L 440.580791 465.516899 
L 441.819049 467.645793 
L 443.057306 468.040397 
L 444.295563 466.78011 
L 445.53382 463.536873 
L 448.010335 453.470439 
L 449.248592 449.701647 
L 450.48685 448.102316 
L 451.725107 448.357381 
L 452.963364 449.600213 
L 456.678136 453.92748 
L 457.916393 455.158807 
L 459.15465 455.866463 
L 461.631165 456.081192 
L 462.869422 457.118827 
L 464.107679 458.899925 
L 465.345937 460.427881 
L 466.584194 460.876208 
L 467.822451 460.129991 
L 470.298966 457.388399 
L 471.537223 456.859768 
L 472.77548 457.401279 
L 474.013738 458.909527 
L 475.251995 461.168983 
L 476.490252 464.020417 
L 477.728509 467.347416 
L 482.681538 481.91139 
L 483.919796 483.235038 
L 485.158053 481.788504 
L 486.39631 477.599146 
L 488.872825 466.718305 
L 490.111082 462.970338 
L 491.349339 461.63067 
L 492.587597 463.092007 
L 493.825854 466.429291 
L 495.064111 469.396338 
L 496.302368 469.739463 
L 497.540626 466.589348 
L 498.778883 461.191725 
L 500.01714 456.363176 
L 501.255397 454.370854 
L 502.493655 455.174676 
L 503.731912 456.957526 
L 504.970169 458.111324 
L 507.446684 458.912479 
L 508.684941 459.802175 
L 511.161456 462.49898 
L 512.399713 463.337379 
L 513.63797 462.994206 
L 514.876227 461.456151 
L 516.114485 459.477075 
L 517.352742 457.883439 
L 518.590999 456.509898 
L 519.829257 454.34486 
L 522.305771 448.012727 
L 523.544028 446.283964 
L 524.782286 446.099659 
L 526.020543 446.908764 
L 527.2588 447.966833 
L 528.497057 448.008512 
L 529.735315 445.852221 
L 532.211829 438.332066 
L 533.450086 436.466373 
L 534.688344 436.659309 
L 535.926601 438.592069 
L 537.164858 441.674724 
L 538.403116 445.076523 
L 539.641373 448.072791 
L 540.87963 450.280258 
L 542.117887 451.660977 
L 544.594402 453.408864 
L 547.070916 455.60235 
L 548.309174 456.303057 
L 549.547431 456.498673 
L 550.785688 456.267939 
L 552.023945 455.703391 
L 553.262203 455.014707 
L 554.50046 454.701553 
L 555.738717 455.578036 
L 556.976975 458.247532 
L 558.215232 462.123659 
L 559.453489 465.415116 
L 560.691746 466.407347 
L 561.930004 464.526391 
L 563.168261 460.229763 
L 565.644775 448.66111 
L 566.883033 444.244545 
L 568.12129 441.398199 
L 569.359547 438.893118 
L 571.836062 432.986629 
L 573.074319 431.968992 
L 574.312576 433.790114 
L 575.550834 437.874941 
L 576.789091 442.595126 
L 578.027348 446.593527 
L 579.265605 449.287681 
L 580.503863 450.531639 
L 581.74212 450.527028 
L 584.218634 449.13108 
L 585.456892 449.38105 
L 586.695149 451.393822 
L 587.933406 455.184444 
L 589.171663 459.479195 
L 590.409921 462.797771 
L 592.886435 467.372037 
L 594.124693 469.411131 
L 595.36295 470.019292 
L 596.601207 468.460449 
L 597.839464 464.986834 
L 602.792493 446.256019 
L 604.030751 442.316172 
L 605.269008 439.234416 
L 606.507265 437.331843 
L 607.745523 436.576643 
L 608.98378 436.347978 
L 610.222037 435.365081 
L 611.460294 432.732821 
L 613.936809 425.040331 
L 615.175066 422.048577 
L 616.413323 420.28014 
L 617.651581 419.902621 
L 618.889838 421.397131 
L 620.128095 424.971288 
L 621.366352 429.467703 
L 622.60461 432.918013 
L 623.842867 433.795513 
L 625.081124 431.282178 
L 626.319382 425.673348 
L 627.557639 419.085788 
L 628.795896 414.374997 
L 630.034153 412.840329 
L 631.272411 414.006784 
L 632.510668 417.259809 
L 634.987182 426.961199 
L 636.22544 430.756033 
L 637.463697 433.332841 
L 638.701954 435.208856 
L 639.940211 436.728697 
L 641.178469 438.445549 
L 642.416726 440.508742 
L 643.654983 441.566324 
L 644.893241 440.208571 
L 646.131498 437.166642 
L 647.369755 434.661771 
L 648.608012 434.076383 
L 649.84627 434.99133 
L 651.084527 436.118538 
L 652.322784 436.660887 
L 654.799299 436.536007 
L 656.037556 436.756205 
L 657.275813 436.82908 
L 658.51407 435.39845 
L 659.752328 431.931895 
L 660.990585 427.583658 
L 662.228842 424.27759 
L 663.4671 423.782777 
L 664.705357 426.857792 
L 667.181871 438.007883 
L 668.420129 441.644893 
L 669.658386 442.325094 
L 670.896643 440.168035 
L 672.1349 435.768769 
L 673.373158 429.474352 
L 677.087929 406.434118 
L 678.326187 402.30227 
L 679.564444 401.101645 
L 680.802701 402.192759 
L 682.040959 405.222699 
L 683.279216 410.007282 
L 685.75573 420.980462 
L 686.993988 425.099731 
L 688.232245 427.67046 
L 689.470502 428.356114 
L 690.708759 427.127903 
L 691.947017 424.665268 
L 693.185274 421.57655 
L 694.423531 417.337021 
L 695.661789 411.119038 
L 698.138303 396.027164 
L 699.37656 390.107165 
L 700.614818 386.089786 
L 701.853075 383.710059 
L 703.091332 382.453474 
L 704.329589 381.924848 
L 705.567847 381.903724 
L 706.806104 382.274965 
L 708.044361 383.12868 
L 709.282618 385.036214 
L 710.520876 388.967115 
L 712.99739 401.111082 
L 714.235648 404.758681 
L 715.473905 404.742415 
L 716.712162 401.873975 
L 717.950419 398.176099 
L 719.188677 395.719867 
L 720.426934 395.516192 
L 721.665191 397.199033 
L 722.903448 399.651463 
L 724.141706 401.503199 
L 725.379963 401.539277 
L 726.61822 399.727393 
L 727.856477 397.31896 
L 729.094735 395.434606 
L 730.332992 394.383973 
L 731.571249 394.259923 
L 732.809507 395.413673 
L 734.047764 398.229775 
L 736.524278 406.879452 
L 737.762536 410.097953 
L 739.000793 411.338589 
L 740.23905 410.730273 
L 741.477307 409.143486 
L 742.715565 407.786056 
L 743.953822 407.466037 
L 745.192079 408.059978 
L 746.430336 408.838454 
L 747.668594 409.21181 
L 748.906851 408.839292 
L 750.145108 407.261158 
L 751.383366 404.088012 
L 753.85988 395.290343 
L 755.098137 391.93193 
L 756.336395 390.108577 
L 757.574652 389.52644 
L 758.812909 389.307151 
L 760.051166 388.6574 
L 761.289424 387.38844 
L 765.004195 382.885435 
L 766.242453 381.096105 
L 767.48071 379.508287 
L 768.718967 378.783638 
L 769.957225 379.517789 
L 771.195482 382.024449 
L 773.671996 389.819722 
L 774.910254 392.582659 
L 776.148511 393.422069 
L 777.386768 392.557071 
L 778.625025 390.652976 
L 779.863283 388.233885 
L 782.339797 383.003753 
L 783.578054 381.756884 
L 784.816312 383.04698 
L 786.054569 386.853377 
L 788.531084 397.708694 
L 789.769341 403.096662 
L 791.007598 407.966585 
L 792.245855 411.785637 
L 793.484113 413.659468 
L 794.72237 412.97014 
L 795.960627 409.788724 
L 798.437142 399.855003 
L 799.675399 396.398131 
L 800.913656 395.464828 
L 802.151914 396.984056 
L 803.390171 400.442022 
L 804.628428 405.326305 
L 805.866685 410.824481 
L 807.104943 415.596805 
L 808.3432 418.548883 
L 809.581457 419.637267 
L 812.057972 419.781482 
L 813.296229 420.017636 
L 814.534486 419.961037 
L 817.011001 419.053446 
L 818.249258 419.201387 
L 819.487515 419.645592 
L 820.725773 419.871453 
L 824.440544 419.588312 
L 825.678802 419.931406 
L 826.917059 420.643432 
L 828.155316 421.174891 
L 829.393573 420.552026 
L 830.631831 418.474899 
L 833.108345 413.212219 
L 835.58486 408.609371 
L 836.823117 407.308703 
L 838.061374 407.29605 
L 839.299632 407.898123 
L 840.537889 407.877642 
L 841.776146 406.988935 
L 843.014403 406.391714 
L 844.252661 406.945372 
L 845.490918 408.05388 
L 846.729175 408.827335 
L 847.967432 409.337508 
L 849.20569 410.283431 
L 851.682204 413.799334 
L 852.920461 414.232751 
L 854.158719 412.634903 
L 855.396976 410.021486 
L 856.635233 408.037155 
L 857.873491 407.314271 
L 859.111748 407.336311 
L 862.82652 408.021847 
L 864.064777 408.310356 
L 865.303034 408.954916 
L 867.779549 411.184941 
L 869.017806 411.854544 
L 870.256063 411.952283 
L 871.49432 411.582015 
L 872.732578 410.850406 
L 873.970835 409.669657 
L 875.209092 408.035192 
L 876.44735 406.189542 
L 877.685607 404.052634 
L 878.923864 401.271505 
L 880.162121 398.190497 
L 881.400379 396.072478 
L 882.638636 395.721241 
L 885.11515 397.126223 
L 886.353408 397.530053 
L 887.591665 398.149666 
L 888.829922 399.537806 
L 890.06818 401.718074 
L 892.544694 406.573602 
L 893.782951 408.702062 
L 895.021209 410.494076 
L 896.259466 411.507759 
L 897.497723 411.521145 
L 898.73598 411.261959 
L 899.974238 411.778401 
L 901.212495 413.102169 
L 902.450752 414.200048 
L 903.689009 414.287318 
L 904.927267 413.385745 
L 906.165524 411.708065 
L 907.403781 409.597131 
L 908.642039 407.731382 
L 913.595068 402.391108 
L 914.833325 402.030034 
L 916.071582 402.910992 
L 917.309839 404.982301 
L 918.548097 408.000878 
L 919.786354 411.494912 
L 921.024611 414.411831 
L 922.262868 415.274318 
L 923.501126 413.286174 
L 924.739383 409.017268 
L 925.97764 403.944057 
L 927.215898 399.736713 
L 928.454155 397.695827 
L 929.692412 398.151117 
L 930.930669 400.043122 
L 932.168927 401.429028 
L 933.407184 400.894585 
L 934.645441 398.379747 
L 937.121956 391.567879 
L 938.360213 389.890578 
L 939.59847 390.194908 
L 942.074985 393.308179 
L 943.313242 394.034546 
L 945.789757 393.85921 
L 947.028014 394.235319 
L 948.266271 394.883769 
L 949.504528 395.349598 
L 950.742786 395.062683 
L 951.981043 393.239848 
L 953.2193 389.450604 
L 954.457557 384.088542 
L 956.934072 372.11267 
L 958.172329 366.680315 
L 959.410586 362.102921 
L 960.648844 358.682479 
L 961.887101 356.637589 
L 963.125358 356.340193 
L 964.363616 358.23816 
L 965.601873 362.276772 
L 968.078387 372.525744 
L 969.316645 376.323534 
L 971.793159 381.52218 
L 974.269674 388.363976 
L 975.507931 390.849271 
L 976.746188 392.35805 
L 980.46096 395.948702 
L 981.699217 396.579459 
L 982.937475 396.434514 
L 984.175732 395.108394 
L 985.413989 392.605856 
L 986.652246 389.68443 
L 987.890504 387.214774 
L 989.128761 385.714064 
L 990.367018 385.305323 
L 992.843533 385.754943 
L 994.08179 385.246875 
L 995.320047 384.037161 
L 997.796562 380.88005 
L 999.034819 379.181614 
L 1000.273076 377.855227 
L 1001.511334 377.732386 
L 1002.749591 378.722988 
L 1003.987848 379.248144 
L 1005.226105 377.165569 
L 1006.464363 370.707089 
L 1007.70262 359.200319 
L 1008.940877 343.768462 
L 1010.179134 326.247852 
L 1011.417392 306.085338 
L 1012.655649 279.140671 
L 1013.893906 240.718064 
L 1016.370421 136.437743 
L 1017.608678 95.058785 
L 1018.846935 83.376649 
L 1020.085193 108.804384 
L 1021.32345 164.446056 
L 1022.561707 231.599342 
L 1023.799964 288.649956 
L 1025.038222 321.936463 
L 1026.276479 329.752993 
L 1027.514736 319.450675 
L 1028.752993 302.600314 
L 1029.991251 288.036105 
L 1031.229508 278.717185 
L 1032.467765 276.093444 
L 1033.706023 280.638185 
L 1036.182537 297.099476 
L 1037.420794 305.941849 
L 1038.659052 315.637451 
L 1039.897309 322.590229 
L 1041.135566 322.411066 
L 1042.373823 313.955314 
L 1044.850338 286.81058 
L 1046.088595 283.44814 
L 1047.326852 294.863866 
L 1049.803367 339.041649 
L 1051.041624 355.683617 
L 1052.279882 364.486915 
L 1053.518139 365.184763 
L 1054.756396 355.723222 
L 1055.994653 330.781381 
L 1057.232911 284.222146 
L 1058.471168 214.843814 
L 1059.709425 134.100596 
L 1060.947682 69.252825 
L 1062.18594 47.979282 
L 1063.424197 72.817388 
L 1065.900711 163.839454 
L 1067.138969 193.897866 
L 1068.377226 210.84495 
L 1069.615483 218.925411 
L 1070.853741 221.769408 
L 1072.091998 221.94594 
L 1073.330255 221.857284 
L 1074.568512 224.856355 
L 1075.80677 235.520258 
L 1077.045027 255.78463 
L 1079.521541 307.740998 
L 1080.759799 330.334895 
L 1081.998056 347.636536 
L 1083.236313 358.717747 
L 1084.474571 364.081816 
L 1085.712828 364.986158 
L 1086.951085 362.447221 
L 1088.189342 357.04976 
L 1089.4276 349.445992 
L 1090.665857 341.107667 
L 1091.904114 334.397804 
L 1093.142371 331.338459 
L 1094.380629 332.298169 
L 1095.618886 336.053015 
L 1096.857143 340.787772 
L 1098.0954 345.040004 
L 1099.333658 348.158197 
L 1100.571915 350.034586 
L 1101.810172 350.69731 
L 1103.04843 350.290626 
L 1104.286687 348.7745 
L 1105.524944 345.794813 
L 1106.763201 341.767496 
L 1108.001459 338.51668 
L 1109.239716 338.037008 
L 1110.477973 340.806126 
L 1111.71623 345.170232 
L 1112.954488 348.441265 
L 1114.192745 348.791486 
L 1115.431002 345.813967 
L 1116.669259 339.870796 
L 1119.145774 324.179225 
L 1120.384031 319.100155 
L 1121.622289 318.287855 
L 1122.860546 320.961372 
L 1124.098803 324.798662 
L 1125.33706 327.69856 
L 1126.575318 328.754916 
L 1129.051832 328.058746 
L 1130.290089 328.26645 
L 1131.528347 328.746262 
L 1132.766604 328.863133 
L 1134.004861 328.748524 
L 1135.243118 329.322204 
L 1136.481376 331.107676 
L 1137.719633 333.372111 
L 1138.95789 334.620878 
L 1140.196148 333.857945 
L 1141.434405 331.348978 
L 1142.672662 327.947994 
L 1143.910919 323.803756 
L 1145.149177 318.220509 
L 1146.387434 310.804742 
L 1147.625691 302.473748 
L 1148.863948 295.13174 
L 1150.102206 290.345968 
L 1151.340463 288.451781 
L 1152.57872 288.695693 
L 1153.816977 290.002695 
L 1156.293492 293.234697 
L 1157.531749 294.413977 
L 1160.008264 295.714605 
L 1161.246521 296.967416 
L 1162.484778 299.227876 
L 1163.723036 301.77097 
L 1164.961293 303.035418 
L 1166.19955 302.110342 
L 1167.437807 299.786963 
L 1168.676065 298.128719 
L 1169.914322 299.229074 
L 1171.152579 303.378363 
L 1172.390837 308.160289 
L 1173.629094 310.423232 
L 1174.867351 308.944141 
L 1177.343866 300.695592 
L 1178.582123 298.754748 
L 1179.82038 299.772981 
L 1181.058637 302.663047 
L 1182.296895 305.975027 
L 1183.535152 308.686844 
L 1184.773409 309.926067 
L 1186.011666 309.273967 
L 1187.249924 307.103542 
L 1188.488181 303.687099 
L 1189.726438 298.814785 
L 1190.964696 293.045647 
L 1192.202953 288.232858 
L 1193.44121 286.165493 
L 1194.679467 287.077911 
L 1195.917725 289.750265 
L 1198.394239 295.87378 
L 1199.632496 296.919263 
L 1200.870754 294.173297 
L 1202.109011 287.298204 
L 1204.585525 269.889376 
L 1205.823783 263.970135 
L 1207.06204 261.1345 
L 1208.300297 261.344908 
L 1209.538555 264.558033 
L 1210.776812 271.336754 
L 1212.015069 281.785577 
L 1213.253326 293.81497 
L 1214.491584 303.46647 
L 1215.729841 306.763634 
L 1216.968098 301.331647 
L 1218.206355 286.936016 
L 1219.444613 265.140717 
L 1221.921127 215.726452 
L 1223.159384 197.724183 
L 1224.397642 185.558644 
L 1225.635899 177.049718 
L 1226.874156 171.202914 
L 1228.112414 168.341999 
L 1229.350671 168.923932 
L 1230.588928 174.414526 
L 1231.827185 187.813409 
L 1233.065443 210.145355 
L 1234.3037 236.956266 
L 1235.541957 260.743401 
L 1236.780214 276.221903 
L 1238.018472 282.210392 
L 1239.256729 280.273357 
L 1240.494986 272.9451 
L 1241.733243 262.345039 
L 1242.971501 249.506989 
L 1244.209758 234.470875 
L 1245.448015 216.757586 
L 1247.92453 177.09182 
L 1249.162787 161.029144 
L 1250.401044 151.106494 
L 1251.639302 147.953033 
L 1252.877559 150.059497 
L 1255.354073 158.954902 
L 1256.592331 161.451508 
L 1257.830588 162.11355 
L 1259.068845 162.223597 
L 1260.307103 163.037301 
L 1261.54536 164.912841 
L 1262.783617 167.802413 
L 1264.021874 171.777679 
L 1265.260132 176.512434 
L 1266.498389 180.725406 
L 1267.736646 183.381377 
L 1268.974903 185.170159 
L 1270.213161 187.374759 
L 1271.451418 190.352939 
L 1272.689675 193.690053 
L 1273.927932 196.413413 
L 1275.16619 197.676189 
L 1277.642704 197.840547 
L 1278.880962 198.715633 
L 1281.357476 202.462267 
L 1282.595733 203.66295 
L 1283.833991 204.254803 
L 1285.072248 205.419132 
L 1286.310505 208.182724 
L 1288.78702 216.22615 
L 1290.025277 218.679676 
L 1291.263534 219.127166 
L 1292.501791 217.020024 
L 1293.740049 211.818757 
L 1297.454821 189.294667 
L 1298.693078 184.448595 
L 1299.931335 182.303203 
L 1301.169592 182.700864 
L 1302.40785 184.367409 
L 1303.646107 185.684944 
L 1304.884364 185.948299 
L 1306.122621 185.973354 
L 1307.360879 187.327642 
L 1308.599136 190.973898 
L 1309.837393 196.76527 
L 1312.313908 210.593796 
L 1313.552165 216.249268 
L 1314.790422 220.221261 
L 1316.02868 223.523697 
L 1317.266937 227.905228 
L 1319.743451 238.927896 
L 1320.981709 242.206607 
L 1322.219966 242.531415 
L 1323.458223 239.569667 
L 1324.69648 233.775178 
L 1327.172995 219.029445 
L 1329.649509 202.961234 
L 1330.887767 193.993764 
L 1332.126024 184.193682 
L 1334.602539 162.376685 
L 1335.840796 153.275161 
L 1337.079053 148.022383 
L 1338.31731 147.035492 
L 1339.555568 149.099013 
L 1340.793825 153.148888 
L 1342.032082 159.181837 
L 1343.270339 167.06152 
L 1348.223368 203.141115 
L 1349.461626 209.841743 
L 1350.699883 213.549959 
L 1351.93814 214.438901 
L 1353.176398 213.995371 
L 1354.414655 214.321408 
L 1355.652912 217.248425 
L 1356.891169 223.115073 
L 1358.129427 230.13684 
L 1359.367684 235.713145 
L 1360.605941 238.605623 
L 1361.844198 239.744061 
L 1363.082456 241.038004 
L 1364.320713 242.983017 
L 1365.55897 243.926007 
L 1366.797228 242.223814 
L 1368.035485 237.829388 
L 1369.273742 231.22314 
L 1370.511999 221.903603 
L 1371.750257 208.968715 
L 1374.226771 177.572473 
L 1375.465028 165.783249 
L 1376.703286 159.875122 
L 1377.941543 159.665008 
L 1379.1798 163.215556 
L 1380.418057 167.714812 
L 1381.656315 170.769604 
L 1382.894572 171.552771 
L 1384.132829 170.542071 
L 1385.371087 168.349555 
L 1387.847601 162.780543 
L 1389.085858 161.882329 
L 1390.324116 163.689023 
L 1391.562373 168.428182 
L 1392.80063 176.186399 
L 1394.038887 186.787448 
L 1396.515402 211.841148 
L 1397.753659 222.304437 
L 1398.991916 229.415504 
L 1400.230174 233.149504 
L 1401.468431 234.131293 
L 1402.706688 233.142609 
L 1403.944946 231.389686 
L 1405.183203 230.734272 
L 1406.42146 232.46718 
L 1408.897975 239.144188 
L 1410.136232 241.073426 
L 1411.374489 241.085237 
L 1412.612746 238.305776 
L 1413.851004 232.805269 
L 1416.327518 219.434314 
L 1417.565775 211.544779 
L 1421.280547 183.41727 
L 1422.518805 176.919488 
L 1423.757062 174.838529 
L 1424.995319 176.973212 
L 1427.471834 185.833835 
L 1428.710091 188.549169 
L 1429.948348 188.646258 
L 1431.186605 187.232694 
L 1432.424863 186.015912 
L 1433.66312 185.49614 
L 1434.901377 184.453836 
L 1436.139634 180.411804 
L 1437.377892 171.12247 
L 1438.616149 156.603661 
L 1439.854406 139.915157 
L 1441.092664 126.108826 
L 1442.330921 120.180525 
L 1443.569178 124.443275 
L 1444.807435 136.625673 
L 1446.045693 151.386419 
L 1447.28395 164.362969 
L 1448.522207 174.063277 
L 1449.760464 180.724088 
L 1450.998722 184.548261 
L 1452.236979 184.764056 
L 1453.475236 180.502679 
L 1454.713494 172.470912 
L 1455.951751 163.155894 
L 1457.190008 155.441519 
L 1458.428265 151.358072 
L 1459.666523 151.655281 
L 1462.143037 158.763385 
L 1463.381294 159.889084 
L 1464.619552 159.401873 
L 1465.857809 160.067068 
L 1467.096066 163.04819 
L 1472.049095 180.605123 
L 1473.287353 183.31822 
L 1474.52561 184.612141 
L 1475.763867 184.864146 
L 1477.002124 184.968304 
L 1478.240382 186.254205 
L 1479.478639 190.63586 
L 1480.716896 198.835286 
L 1481.955153 208.336098 
L 1483.193411 214.356889 
L 1484.431668 213.081015 
L 1485.669925 204.282446 
L 1486.908182 191.803954 
L 1488.14644 181.469107 
L 1489.384697 177.47581 
L 1490.622954 180.120357 
L 1493.099469 192.382775 
L 1494.337726 196.10786 
L 1495.575983 197.664399 
L 1496.814241 197.661593 
L 1498.052498 196.452223 
L 1499.290755 194.839415 
L 1500.529012 194.017403 
L 1501.76727 194.704235 
L 1505.482041 200.501944 
L 1506.720299 202.77925 
L 1507.958556 206.145373 
L 1509.196813 210.951601 
L 1510.435071 217.08792 
L 1512.911585 229.922681 
L 1514.149842 234.646721 
L 1515.3881 238.308168 
L 1516.626357 242.503688 
L 1517.864614 248.714154 
L 1519.102871 257.187957 
L 1521.579386 275.959106 
L 1522.817643 282.502936 
L 1524.0559 285.889048 
L 1525.294158 287.208741 
L 1529.00893 289.759325 
L 1530.247187 290.723974 
L 1531.485444 292.271158 
L 1532.723701 294.70281 
L 1533.961959 298.18831 
L 1535.200216 302.472953 
L 1536.438473 306.244262 
L 1537.67673 307.690994 
L 1538.914988 306.358847 
L 1541.391502 300.524707 
L 1542.62976 298.242764 
L 1543.868017 297.778604 
L 1545.106274 299.702283 
L 1546.344531 302.785594 
L 1547.582789 304.204938 
L 1548.821046 301.689595 
L 1550.059303 295.808917 
L 1551.29756 289.113107 
L 1552.535818 283.662731 
L 1553.774075 280.609237 
L 1555.012332 280.618063 
L 1556.250589 283.442087 
L 1557.488847 287.631043 
L 1558.727104 291.164684 
L 1559.965361 292.82281 
L 1562.441876 293.214156 
L 1563.680133 294.107954 
L 1564.91839 295.823665 
L 1566.156648 297.932003 
L 1567.394905 299.336097 
L 1568.633162 298.525527 
L 1569.871419 294.979381 
L 1571.109677 290.442205 
L 1572.347934 287.856192 
L 1573.586191 288.468535 
L 1574.824448 290.643861 
L 1576.062706 291.798737 
L 1577.300963 291.058086 
L 1578.53922 290.019861 
L 1579.777478 290.95331 
L 1581.015735 294.262936 
L 1582.253992 298.207807 
L 1583.492249 300.892788 
L 1584.730507 301.810879 
L 1585.968764 301.674537 
L 1587.207021 301.266769 
L 1588.445278 300.516122 
L 1589.683536 298.55947 
L 1590.921793 294.457692 
L 1592.16005 288.081705 
L 1593.398307 280.71777 
L 1594.636565 274.396001 
L 1595.874822 270.504964 
L 1597.113079 269.095069 
L 1598.351337 268.809316 
L 1599.589594 267.868162 
L 1600.827851 265.687143 
L 1603.304366 260.231669 
L 1604.542623 257.922851 
L 1605.78088 256.49654 
L 1607.019137 256.199584 
L 1608.257395 256.392949 
L 1609.495652 256.405895 
L 1610.733909 256.141622 
L 1611.972166 255.300967 
L 1613.210424 253.107954 
L 1615.686938 245.137672 
L 1616.925196 243.292867 
L 1618.163453 245.342696 
L 1620.639967 255.563291 
L 1621.878225 259.565533 
L 1623.116482 261.426802 
L 1624.354739 260.845948 
L 1625.592996 258.6366 
L 1626.831254 256.730653 
L 1628.069511 256.880119 
L 1629.307768 259.264288 
L 1630.546026 262.462798 
L 1631.784283 264.584304 
L 1633.02254 263.914035 
L 1634.260797 259.945962 
L 1635.499055 254.659554 
L 1636.737312 251.295461 
L 1637.975569 251.736835 
L 1639.213826 256.01492 
L 1640.452084 263.579012 
L 1641.690341 273.371128 
L 1641.690341 273.371128 
" style="fill:none;stroke:#008000;stroke-linecap:square;stroke-width:1.5;"/>
   </g>
   <g id="patch_3">
    <path d="M 43.78125 586.86358 
L 43.78125 22.318125 
" style="fill:none;stroke:#000000;stroke-linecap:square;stroke-linejoin:miter;stroke-width:0.8;"/>
   </g>
   <g id="patch_4">
    <path d="M 1717.78125 586.86358 
L 1717.78125 22.318125 
" style="fill:none;stroke:#000000;stroke-linecap:square;stroke-linejoin:miter;stroke-width:0.8;"/>
   </g>
   <g id="patch_5">
    <path d="M 43.78125 586.86358 
L 1717.78125 586.86358 
" style="fill:none;stroke:#000000;stroke-linecap:square;stroke-linejoin:miter;stroke-width:0.8;"/>
   </g>
   <g id="patch_6">
    <path d="M 43.78125 22.318125 
L 1717.78125 22.318125 
" style="fill:none;stroke:#000000;stroke-linecap:square;stroke-linejoin:miter;stroke-width:0.8;"/>
   </g>
   <g id="text_18">
    <!-- before binarisation -->
    <g transform="translate(824.1825 16.318125)scale(0.12 -0.12)">
     <defs>
      <path d="M 3116 1747 
Q 3116 2381 2855 2742 
Q 2594 3103 2138 3103 
Q 1681 3103 1420 2742 
Q 1159 2381 1159 1747 
Q 1159 1113 1420 752 
Q 1681 391 2138 391 
Q 2594 391 2855 752 
Q 3116 1113 3116 1747 
z
M 1159 2969 
Q 1341 3281 1617 3432 
Q 1894 3584 2278 3584 
Q 2916 3584 3314 3078 
Q 3713 2572 3713 1747 
Q 3713 922 3314 415 
Q 2916 -91 2278 -91 
Q 1894 -91 1617 61 
Q 1341 213 1159 525 
L 1159 0 
L 581 0 
L 581 4863 
L 1159 4863 
L 1159 2969 
z
" id="DejaVuSans-62" transform="scale(0.015625)"/>
      <path d="M 1959 3097 
Q 1497 3097 1228 2736 
Q 959 2375 959 1747 
Q 959 1119 1226 758 
Q 1494 397 1959 397 
Q 2419 397 2687 759 
Q 2956 1122 2956 1747 
Q 2956 2369 2687 2733 
Q 2419 3097 1959 3097 
z
M 1959 3584 
Q 2709 3584 3137 3096 
Q 3566 2609 3566 1747 
Q 3566 888 3137 398 
Q 2709 -91 1959 -91 
Q 1206 -91 779 398 
Q 353 888 353 1747 
Q 353 2609 779 3096 
Q 1206 3584 1959 3584 
z
" id="DejaVuSans-6f" transform="scale(0.015625)"/>
      <path id="DejaVuSans-20" transform="scale(0.015625)"/>
      <path d="M 603 3500 
L 1178 3500 
L 1178 0 
L 603 0 
L 603 3500 
z
M 603 4863 
L 1178 4863 
L 1178 4134 
L 603 4134 
L 603 4863 
z
" id="DejaVuSans-69" transform="scale(0.015625)"/>
      <path d="M 3513 2113 
L 3513 0 
L 2938 0 
L 2938 2094 
Q 2938 2591 2744 2837 
Q 2550 3084 2163 3084 
Q 1697 3084 1428 2787 
Q 1159 2491 1159 1978 
L 1159 0 
L 581 0 
L 581 3500 
L 1159 3500 
L 1159 2956 
Q 1366 3272 1645 3428 
Q 1925 3584 2291 3584 
Q 2894 3584 3203 3211 
Q 3513 2838 3513 2113 
z
" id="DejaVuSans-6e" transform="scale(0.015625)"/>
      <path d="M 2834 3397 
L 2834 2853 
Q 2591 2978 2328 3040 
Q 2066 3103 1784 3103 
Q 1356 3103 1142 2972 
Q 928 2841 928 2578 
Q 928 2378 1081 2264 
Q 1234 2150 1697 2047 
L 1894 2003 
Q 2506 1872 2764 1633 
Q 3022 1394 3022 966 
Q 3022 478 2636 193 
Q 2250 -91 1575 -91 
Q 1294 -91 989 -36 
Q 684 19 347 128 
L 347 722 
Q 666 556 975 473 
Q 1284 391 1588 391 
Q 1994 391 2212 530 
Q 2431 669 2431 922 
Q 2431 1156 2273 1281 
Q 2116 1406 1581 1522 
L 1381 1569 
Q 847 1681 609 1914 
Q 372 2147 372 2553 
Q 372 3047 722 3315 
Q 1072 3584 1716 3584 
Q 2034 3584 2315 3537 
Q 2597 3491 2834 3397 
z
" id="DejaVuSans-73" transform="scale(0.015625)"/>
      <path d="M 1172 4494 
L 1172 3500 
L 2356 3500 
L 2356 3053 
L 1172 3053 
L 1172 1153 
Q 1172 725 1289 603 
Q 1406 481 1766 481 
L 2356 481 
L 2356 0 
L 1766 0 
Q 1100 0 847 248 
Q 594 497 594 1153 
L 594 3053 
L 172 3053 
L 172 3500 
L 594 3500 
L 594 4494 
L 1172 4494 
z
" id="DejaVuSans-74" transform="scale(0.015625)"/>
     </defs>
     <use xlink:href="#DejaVuSans-62"/>
     <use x="63.476562" xlink:href="#DejaVuSans-65"/>
     <use x="125" xlink:href="#DejaVuSans-66"/>
     <use x="160.205078" xlink:href="#DejaVuSans-6f"/>
     <use x="221.386719" xlink:href="#DejaVuSans-72"/>
     <use x="260.25" xlink:href="#DejaVuSans-65"/>
     <use x="321.773438" xlink:href="#DejaVuSans-20"/>
     <use x="353.560547" xlink:href="#DejaVuSans-62"/>
     <use x="417.037109" xlink:href="#DejaVuSans-69"/>
     <use x="444.820312" xlink:href="#DejaVuSans-6e"/>
     <use x="508.199219" xlink:href="#DejaVuSans-61"/>
     <use x="569.478516" xlink:href="#DejaVuSans-72"/>
     <use x="610.591797" xlink:href="#DejaVuSans-69"/>
     <use x="638.375" xlink:href="#DejaVuSans-73"/>
     <use x="690.474609" xlink:href="#DejaVuSans-61"/>
     <use x="751.753906" xlink:href="#DejaVuSans-74"/>
     <use x="790.962891" xlink:href="#DejaVuSans-69"/>
     <use x="818.746094" xlink:href="#DejaVuSans-6f"/>
     <use x="879.927734" xlink:href="#DejaVuSans-6e"/>
    </g>
   </g>
  </g>
  <g id="axes_2">
   <g id="patch_7">
    <path d="M 43.78125 1264.318125 
L 1717.78125 1264.318125 
L 1717.78125 699.77267 
L 43.78125 699.77267 
z
" style="fill:#ffffff;"/>
   </g>
   <g id="matplotlib.axis_3">
    <g id="xtick_8">
     <g id="line2d_17">
      <g>
       <use style="stroke:#000000;stroke-width:0.8;" x="119.872159" xlink:href="#m8dbf56833f" y="1264.318125"/>
      </g>
     </g>
     <g id="text_19">
      <!-- 0 -->
      <g transform="translate(116.690909 1278.916563)scale(0.1 -0.1)">
       <use xlink:href="#DejaVuSans-30"/>
      </g>
     </g>
    </g>
    <g id="xtick_9">
     <g id="line2d_18">
      <g>
       <use style="stroke:#000000;stroke-width:0.8;" x="367.523613" xlink:href="#m8dbf56833f" y="1264.318125"/>
      </g>
     </g>
     <g id="text_20">
      <!-- 200 -->
      <g transform="translate(357.979863 1278.916563)scale(0.1 -0.1)">
       <use xlink:href="#DejaVuSans-32"/>
       <use x="63.623047" xlink:href="#DejaVuSans-30"/>
       <use x="127.246094" xlink:href="#DejaVuSans-30"/>
      </g>
     </g>
    </g>
    <g id="xtick_10">
     <g id="line2d_19">
      <g>
       <use style="stroke:#000000;stroke-width:0.8;" x="615.175066" xlink:href="#m8dbf56833f" y="1264.318125"/>
      </g>
     </g>
     <g id="text_21">
      <!-- 400 -->
      <g transform="translate(605.631316 1278.916563)scale(0.1 -0.1)">
       <use xlink:href="#DejaVuSans-34"/>
       <use x="63.623047" xlink:href="#DejaVuSans-30"/>
       <use x="127.246094" xlink:href="#DejaVuSans-30"/>
      </g>
     </g>
    </g>
    <g id="xtick_11">
     <g id="line2d_20">
      <g>
       <use style="stroke:#000000;stroke-width:0.8;" x="862.82652" xlink:href="#m8dbf56833f" y="1264.318125"/>
      </g>
     </g>
     <g id="text_22">
      <!-- 600 -->
      <g transform="translate(853.28277 1278.916563)scale(0.1 -0.1)">
       <use xlink:href="#DejaVuSans-36"/>
       <use x="63.623047" xlink:href="#DejaVuSans-30"/>
       <use x="127.246094" xlink:href="#DejaVuSans-30"/>
      </g>
     </g>
    </g>
    <g id="xtick_12">
     <g id="line2d_21">
      <g>
       <use style="stroke:#000000;stroke-width:0.8;" x="1110.477973" xlink:href="#m8dbf56833f" y="1264.318125"/>
      </g>
     </g>
     <g id="text_23">
      <!-- 800 -->
      <g transform="translate(1100.934223 1278.916563)scale(0.1 -0.1)">
       <use xlink:href="#DejaVuSans-38"/>
       <use x="63.623047" xlink:href="#DejaVuSans-30"/>
       <use x="127.246094" xlink:href="#DejaVuSans-30"/>
      </g>
     </g>
    </g>
    <g id="xtick_13">
     <g id="line2d_22">
      <g>
       <use style="stroke:#000000;stroke-width:0.8;" x="1358.129427" xlink:href="#m8dbf56833f" y="1264.318125"/>
      </g>
     </g>
     <g id="text_24">
      <!-- 1000 -->
      <g transform="translate(1345.404427 1278.916563)scale(0.1 -0.1)">
       <use xlink:href="#DejaVuSans-31"/>
       <use x="63.623047" xlink:href="#DejaVuSans-30"/>
       <use x="127.246094" xlink:href="#DejaVuSans-30"/>
       <use x="190.869141" xlink:href="#DejaVuSans-30"/>
      </g>
     </g>
    </g>
    <g id="xtick_14">
     <g id="line2d_23">
      <g>
       <use style="stroke:#000000;stroke-width:0.8;" x="1605.78088" xlink:href="#m8dbf56833f" y="1264.318125"/>
      </g>
     </g>
     <g id="text_25">
      <!-- 1200 -->
      <g transform="translate(1593.05588 1278.916563)scale(0.1 -0.1)">
       <use xlink:href="#DejaVuSans-31"/>
       <use x="63.623047" xlink:href="#DejaVuSans-32"/>
       <use x="127.246094" xlink:href="#DejaVuSans-30"/>
       <use x="190.869141" xlink:href="#DejaVuSans-30"/>
      </g>
     </g>
    </g>
    <g id="text_26">
     <!-- frame -->
     <g transform="translate(865.954687 1292.594688)scale(0.1 -0.1)">
      <use xlink:href="#DejaVuSans-66"/>
      <use x="35.205078" xlink:href="#DejaVuSans-72"/>
      <use x="76.318359" xlink:href="#DejaVuSans-61"/>
      <use x="137.597656" xlink:href="#DejaVuSans-6d"/>
      <use x="235.009766" xlink:href="#DejaVuSans-65"/>
     </g>
    </g>
   </g>
   <g id="matplotlib.axis_4">
    <g id="ytick_9">
     <g id="line2d_24">
      <g>
       <use style="stroke:#000000;stroke-width:0.8;" x="43.78125" xlink:href="#made4237b5b" y="1238.656968"/>
      </g>
     </g>
     <g id="text_27">
      <!-- 0.0 -->
      <g transform="translate(20.878125 1242.456187)scale(0.1 -0.1)">
       <use xlink:href="#DejaVuSans-30"/>
       <use x="63.623047" xlink:href="#DejaVuSans-2e"/>
       <use x="95.410156" xlink:href="#DejaVuSans-30"/>
      </g>
     </g>
    </g>
    <g id="ytick_10">
     <g id="line2d_25">
      <g>
       <use style="stroke:#000000;stroke-width:0.8;" x="43.78125" xlink:href="#made4237b5b" y="1136.01234"/>
      </g>
     </g>
     <g id="text_28">
      <!-- 0.2 -->
      <g transform="translate(20.878125 1139.811559)scale(0.1 -0.1)">
       <use xlink:href="#DejaVuSans-30"/>
       <use x="63.623047" xlink:href="#DejaVuSans-2e"/>
       <use x="95.410156" xlink:href="#DejaVuSans-32"/>
      </g>
     </g>
    </g>
    <g id="ytick_11">
     <g id="line2d_26">
      <g>
       <use style="stroke:#000000;stroke-width:0.8;" x="43.78125" xlink:href="#made4237b5b" y="1033.367712"/>
      </g>
     </g>
     <g id="text_29">
      <!-- 0.4 -->
      <g transform="translate(20.878125 1037.166931)scale(0.1 -0.1)">
       <use xlink:href="#DejaVuSans-30"/>
       <use x="63.623047" xlink:href="#DejaVuSans-2e"/>
       <use x="95.410156" xlink:href="#DejaVuSans-34"/>
      </g>
     </g>
    </g>
    <g id="ytick_12">
     <g id="line2d_27">
      <g>
       <use style="stroke:#000000;stroke-width:0.8;" x="43.78125" xlink:href="#made4237b5b" y="930.723084"/>
      </g>
     </g>
     <g id="text_30">
      <!-- 0.6 -->
      <g transform="translate(20.878125 934.522302)scale(0.1 -0.1)">
       <use xlink:href="#DejaVuSans-30"/>
       <use x="63.623047" xlink:href="#DejaVuSans-2e"/>
       <use x="95.410156" xlink:href="#DejaVuSans-36"/>
      </g>
     </g>
    </g>
    <g id="ytick_13">
     <g id="line2d_28">
      <g>
       <use style="stroke:#000000;stroke-width:0.8;" x="43.78125" xlink:href="#made4237b5b" y="828.078456"/>
      </g>
     </g>
     <g id="text_31">
      <!-- 0.8 -->
      <g transform="translate(20.878125 831.877674)scale(0.1 -0.1)">
       <use xlink:href="#DejaVuSans-30"/>
       <use x="63.623047" xlink:href="#DejaVuSans-2e"/>
       <use x="95.410156" xlink:href="#DejaVuSans-38"/>
      </g>
     </g>
    </g>
    <g id="ytick_14">
     <g id="line2d_29">
      <g>
       <use style="stroke:#000000;stroke-width:0.8;" x="43.78125" xlink:href="#made4237b5b" y="725.433827"/>
      </g>
     </g>
     <g id="text_32">
      <!-- 1.0 -->
      <g transform="translate(20.878125 729.233046)scale(0.1 -0.1)">
       <use xlink:href="#DejaVuSans-31"/>
       <use x="63.623047" xlink:href="#DejaVuSans-2e"/>
       <use x="95.410156" xlink:href="#DejaVuSans-30"/>
      </g>
     </g>
    </g>
    <g id="text_33">
     <!-- GCaMP -->
     <g transform="translate(14.798437 999.803991)rotate(-90)scale(0.1 -0.1)">
      <use xlink:href="#DejaVuSans-47"/>
      <use x="77.490234" xlink:href="#DejaVuSans-43"/>
      <use x="147.314453" xlink:href="#DejaVuSans-61"/>
      <use x="208.59375" xlink:href="#DejaVuSans-4d"/>
      <use x="294.873047" xlink:href="#DejaVuSans-50"/>
     </g>
    </g>
   </g>
   <g id="line2d_30">
    <path clip-path="url(#p78c3751d46)" d="M 119.872159 1238.656968 
L 1012.655649 1238.656968 
L 1013.893906 725.433827 
L 1022.561707 725.433827 
L 1023.799964 1238.656968 
L 1057.232911 1238.656968 
L 1058.471168 725.433827 
L 1075.80677 725.433827 
L 1077.045027 1238.656968 
L 1219.444613 1238.656968 
L 1220.68287 725.433827 
L 1234.3037 725.433827 
L 1235.541957 1238.656968 
L 1242.971501 1238.656968 
L 1244.209758 725.433827 
L 1516.626357 725.433827 
L 1517.864614 1238.656968 
L 1614.448681 1238.656968 
L 1615.686938 725.433827 
L 1618.163453 725.433827 
L 1619.40171 1238.656968 
L 1641.690341 1238.656968 
L 1641.690341 1238.656968 
" style="fill:none;stroke:#008000;stroke-linecap:square;stroke-width:1.5;"/>
   </g>
   <g id="patch_8">
    <path d="M 43.78125 1264.318125 
L 43.78125 699.77267 
" style="fill:none;stroke:#000000;stroke-linecap:square;stroke-linejoin:miter;stroke-width:0.8;"/>
   </g>
   <g id="patch_9">
    <path d="M 1717.78125 1264.318125 
L 1717.78125 699.77267 
" style="fill:none;stroke:#000000;stroke-linecap:square;stroke-linejoin:miter;stroke-width:0.8;"/>
   </g>
   <g id="patch_10">
    <path d="M 43.78125 1264.318125 
L 1717.78125 1264.318125 
" style="fill:none;stroke:#000000;stroke-linecap:square;stroke-linejoin:miter;stroke-width:0.8;"/>
   </g>
   <g id="patch_11">
    <path d="M 43.78125 699.77267 
L 1717.78125 699.77267 
" style="fill:none;stroke:#000000;stroke-linecap:square;stroke-linejoin:miter;stroke-width:0.8;"/>
   </g>
   <g id="text_34">
    <!-- before binarisation -->
    <g transform="translate(824.1825 693.77267)scale(0.12 -0.12)">
     <use xlink:href="#DejaVuSans-62"/>
     <use x="63.476562" xlink:href="#DejaVuSans-65"/>
     <use x="125" xlink:href="#DejaVuSans-66"/>
     <use x="160.205078" xlink:href="#DejaVuSans-6f"/>
     <use x="221.386719" xlink:href="#DejaVuSans-72"/>
     <use x="260.25" xlink:href="#DejaVuSans-65"/>
     <use x="321.773438" xlink:href="#DejaVuSans-20"/>
     <use x="353.560547" xlink:href="#DejaVuSans-62"/>
     <use x="417.037109" xlink:href="#DejaVuSans-69"/>
     <use x="444.820312" xlink:href="#DejaVuSans-6e"/>
     <use x="508.199219" xlink:href="#DejaVuSans-61"/>
     <use x="569.478516" xlink:href="#DejaVuSans-72"/>
     <use x="610.591797" xlink:href="#DejaVuSans-69"/>
     <use x="638.375" xlink:href="#DejaVuSans-73"/>
     <use x="690.474609" xlink:href="#DejaVuSans-61"/>
     <use x="751.753906" xlink:href="#DejaVuSans-74"/>
     <use x="790.962891" xlink:href="#DejaVuSans-69"/>
     <use x="818.746094" xlink:href="#DejaVuSans-6f"/>
     <use x="879.927734" xlink:href="#DejaVuSans-6e"/>
    </g>
   </g>
  </g>
 </g>
 <defs>
  <clipPath id="p2c192900e5">
   <rect height="564.545455" width="1674" x="43.78125" y="22.318125"/>
  </clipPath>
  <clipPath id="p78c3751d46">
   <rect height="564.545455" width="1674" x="43.78125" y="699.77267"/>
  </clipPath>
 </defs>
</svg>
