<?xml version="1.0" encoding="utf-8" standalone="no"?>
<!DOCTYPE svg PUBLIC "-//W3C//DTD SVG 1.1//EN"
  "http://www.w3.org/Graphics/SVG/1.1/DTD/svg11.dtd">
<svg height="1301.874375pt" version="1.1" viewBox="0 0 1724.98125 1301.874375" width="1724.98125pt" xmlns="http://www.w3.org/2000/svg" xmlns:xlink="http://www.w3.org/1999/xlink">
 <metadata>
  <rdf:RDF xmlns:cc="http://creativecommons.org/ns#" xmlns:dc="http://purl.org/dc/elements/1.1/" xmlns:rdf="http://www.w3.org/1999/02/22-rdf-syntax-ns#">
   <cc:Work>
    <dc:type rdf:resource="http://purl.org/dc/dcmitype/StillImage"/>
    <dc:date>2022-07-24T15:54:39.794932</dc:date>
    <dc:format>image/svg+xml</dc:format>
    <dc:creator>
     <cc:Agent>
      <dc:title>Matplotlib v3.4.2, https://matplotlib.org/</dc:title>
     </cc:Agent>
    </dc:creator>
   </cc:Work>
  </rdf:RDF>
 </metadata>
 <defs>
  <style type="text/css">*{stroke-linecap:butt;stroke-linejoin:round;}</style>
 </defs>
 <g id="figure_1">
  <g id="patch_1">
   <path d="M 0 1301.874375 
L 1724.98125 1301.874375 
L 1724.98125 0 
L 0 0 
z
" style="fill:#ffffff;"/>
  </g>
  <g id="axes_1">
   <g id="patch_2">
    <path d="M 43.78125 586.86358 
L 1717.78125 586.86358 
L 1717.78125 22.318125 
L 43.78125 22.318125 
z
" style="fill:#ffffff;"/>
   </g>
   <g id="matplotlib.axis_1">
    <g id="xtick_1">
     <g id="line2d_1">
      <defs>
       <path d="M 0 0 
L 0 3.5 
" id="m8e889779ae" style="stroke:#000000;stroke-width:0.8;"/>
      </defs>
      <g>
       <use style="stroke:#000000;stroke-width:0.8;" x="119.872159" xlink:href="#m8e889779ae" y="586.86358"/>
      </g>
     </g>
     <g id="text_1">
      <!-- 0 -->
      <g transform="translate(116.690909 601.462017)scale(0.1 -0.1)">
       <defs>
        <path d="M 2034 4250 
Q 1547 4250 1301 3770 
Q 1056 3291 1056 2328 
Q 1056 1369 1301 889 
Q 1547 409 2034 409 
Q 2525 409 2770 889 
Q 3016 1369 3016 2328 
Q 3016 3291 2770 3770 
Q 2525 4250 2034 4250 
z
M 2034 4750 
Q 2819 4750 3233 4129 
Q 3647 3509 3647 2328 
Q 3647 1150 3233 529 
Q 2819 -91 2034 -91 
Q 1250 -91 836 529 
Q 422 1150 422 2328 
Q 422 3509 836 4129 
Q 1250 4750 2034 4750 
z
" id="DejaVuSans-30" transform="scale(0.015625)"/>
       </defs>
       <use xlink:href="#DejaVuSans-30"/>
      </g>
     </g>
    </g>
    <g id="xtick_2">
     <g id="line2d_2">
      <g>
       <use style="stroke:#000000;stroke-width:0.8;" x="367.523613" xlink:href="#m8e889779ae" y="586.86358"/>
      </g>
     </g>
     <g id="text_2">
      <!-- 200 -->
      <g transform="translate(357.979863 601.462017)scale(0.1 -0.1)">
       <defs>
        <path d="M 1228 531 
L 3431 531 
L 3431 0 
L 469 0 
L 469 531 
Q 828 903 1448 1529 
Q 2069 2156 2228 2338 
Q 2531 2678 2651 2914 
Q 2772 3150 2772 3378 
Q 2772 3750 2511 3984 
Q 2250 4219 1831 4219 
Q 1534 4219 1204 4116 
Q 875 4013 500 3803 
L 500 4441 
Q 881 4594 1212 4672 
Q 1544 4750 1819 4750 
Q 2544 4750 2975 4387 
Q 3406 4025 3406 3419 
Q 3406 3131 3298 2873 
Q 3191 2616 2906 2266 
Q 2828 2175 2409 1742 
Q 1991 1309 1228 531 
z
" id="DejaVuSans-32" transform="scale(0.015625)"/>
       </defs>
       <use xlink:href="#DejaVuSans-32"/>
       <use x="63.623047" xlink:href="#DejaVuSans-30"/>
       <use x="127.246094" xlink:href="#DejaVuSans-30"/>
      </g>
     </g>
    </g>
    <g id="xtick_3">
     <g id="line2d_3">
      <g>
       <use style="stroke:#000000;stroke-width:0.8;" x="615.175066" xlink:href="#m8e889779ae" y="586.86358"/>
      </g>
     </g>
     <g id="text_3">
      <!-- 400 -->
      <g transform="translate(605.631316 601.462017)scale(0.1 -0.1)">
       <defs>
        <path d="M 2419 4116 
L 825 1625 
L 2419 1625 
L 2419 4116 
z
M 2253 4666 
L 3047 4666 
L 3047 1625 
L 3713 1625 
L 3713 1100 
L 3047 1100 
L 3047 0 
L 2419 0 
L 2419 1100 
L 313 1100 
L 313 1709 
L 2253 4666 
z
" id="DejaVuSans-34" transform="scale(0.015625)"/>
       </defs>
       <use xlink:href="#DejaVuSans-34"/>
       <use x="63.623047" xlink:href="#DejaVuSans-30"/>
       <use x="127.246094" xlink:href="#DejaVuSans-30"/>
      </g>
     </g>
    </g>
    <g id="xtick_4">
     <g id="line2d_4">
      <g>
       <use style="stroke:#000000;stroke-width:0.8;" x="862.82652" xlink:href="#m8e889779ae" y="586.86358"/>
      </g>
     </g>
     <g id="text_4">
      <!-- 600 -->
      <g transform="translate(853.28277 601.462017)scale(0.1 -0.1)">
       <defs>
        <path d="M 2113 2584 
Q 1688 2584 1439 2293 
Q 1191 2003 1191 1497 
Q 1191 994 1439 701 
Q 1688 409 2113 409 
Q 2538 409 2786 701 
Q 3034 994 3034 1497 
Q 3034 2003 2786 2293 
Q 2538 2584 2113 2584 
z
M 3366 4563 
L 3366 3988 
Q 3128 4100 2886 4159 
Q 2644 4219 2406 4219 
Q 1781 4219 1451 3797 
Q 1122 3375 1075 2522 
Q 1259 2794 1537 2939 
Q 1816 3084 2150 3084 
Q 2853 3084 3261 2657 
Q 3669 2231 3669 1497 
Q 3669 778 3244 343 
Q 2819 -91 2113 -91 
Q 1303 -91 875 529 
Q 447 1150 447 2328 
Q 447 3434 972 4092 
Q 1497 4750 2381 4750 
Q 2619 4750 2861 4703 
Q 3103 4656 3366 4563 
z
" id="DejaVuSans-36" transform="scale(0.015625)"/>
       </defs>
       <use xlink:href="#DejaVuSans-36"/>
       <use x="63.623047" xlink:href="#DejaVuSans-30"/>
       <use x="127.246094" xlink:href="#DejaVuSans-30"/>
      </g>
     </g>
    </g>
    <g id="xtick_5">
     <g id="line2d_5">
      <g>
       <use style="stroke:#000000;stroke-width:0.8;" x="1110.477973" xlink:href="#m8e889779ae" y="586.86358"/>
      </g>
     </g>
     <g id="text_5">
      <!-- 800 -->
      <g transform="translate(1100.934223 601.462017)scale(0.1 -0.1)">
       <defs>
        <path d="M 2034 2216 
Q 1584 2216 1326 1975 
Q 1069 1734 1069 1313 
Q 1069 891 1326 650 
Q 1584 409 2034 409 
Q 2484 409 2743 651 
Q 3003 894 3003 1313 
Q 3003 1734 2745 1975 
Q 2488 2216 2034 2216 
z
M 1403 2484 
Q 997 2584 770 2862 
Q 544 3141 544 3541 
Q 544 4100 942 4425 
Q 1341 4750 2034 4750 
Q 2731 4750 3128 4425 
Q 3525 4100 3525 3541 
Q 3525 3141 3298 2862 
Q 3072 2584 2669 2484 
Q 3125 2378 3379 2068 
Q 3634 1759 3634 1313 
Q 3634 634 3220 271 
Q 2806 -91 2034 -91 
Q 1263 -91 848 271 
Q 434 634 434 1313 
Q 434 1759 690 2068 
Q 947 2378 1403 2484 
z
M 1172 3481 
Q 1172 3119 1398 2916 
Q 1625 2713 2034 2713 
Q 2441 2713 2670 2916 
Q 2900 3119 2900 3481 
Q 2900 3844 2670 4047 
Q 2441 4250 2034 4250 
Q 1625 4250 1398 4047 
Q 1172 3844 1172 3481 
z
" id="DejaVuSans-38" transform="scale(0.015625)"/>
       </defs>
       <use xlink:href="#DejaVuSans-38"/>
       <use x="63.623047" xlink:href="#DejaVuSans-30"/>
       <use x="127.246094" xlink:href="#DejaVuSans-30"/>
      </g>
     </g>
    </g>
    <g id="xtick_6">
     <g id="line2d_6">
      <g>
       <use style="stroke:#000000;stroke-width:0.8;" x="1358.129427" xlink:href="#m8e889779ae" y="586.86358"/>
      </g>
     </g>
     <g id="text_6">
      <!-- 1000 -->
      <g transform="translate(1345.404427 601.462017)scale(0.1 -0.1)">
       <defs>
        <path d="M 794 531 
L 1825 531 
L 1825 4091 
L 703 3866 
L 703 4441 
L 1819 4666 
L 2450 4666 
L 2450 531 
L 3481 531 
L 3481 0 
L 794 0 
L 794 531 
z
" id="DejaVuSans-31" transform="scale(0.015625)"/>
       </defs>
       <use xlink:href="#DejaVuSans-31"/>
       <use x="63.623047" xlink:href="#DejaVuSans-30"/>
       <use x="127.246094" xlink:href="#DejaVuSans-30"/>
       <use x="190.869141" xlink:href="#DejaVuSans-30"/>
      </g>
     </g>
    </g>
    <g id="xtick_7">
     <g id="line2d_7">
      <g>
       <use style="stroke:#000000;stroke-width:0.8;" x="1605.78088" xlink:href="#m8e889779ae" y="586.86358"/>
      </g>
     </g>
     <g id="text_7">
      <!-- 1200 -->
      <g transform="translate(1593.05588 601.462017)scale(0.1 -0.1)">
       <use xlink:href="#DejaVuSans-31"/>
       <use x="63.623047" xlink:href="#DejaVuSans-32"/>
       <use x="127.246094" xlink:href="#DejaVuSans-30"/>
       <use x="190.869141" xlink:href="#DejaVuSans-30"/>
      </g>
     </g>
    </g>
    <g id="text_8">
     <!-- frame -->
     <g transform="translate(865.954687 615.140142)scale(0.1 -0.1)">
      <defs>
       <path d="M 2375 4863 
L 2375 4384 
L 1825 4384 
Q 1516 4384 1395 4259 
Q 1275 4134 1275 3809 
L 1275 3500 
L 2222 3500 
L 2222 3053 
L 1275 3053 
L 1275 0 
L 697 0 
L 697 3053 
L 147 3053 
L 147 3500 
L 697 3500 
L 697 3744 
Q 697 4328 969 4595 
Q 1241 4863 1831 4863 
L 2375 4863 
z
" id="DejaVuSans-66" transform="scale(0.015625)"/>
       <path d="M 2631 2963 
Q 2534 3019 2420 3045 
Q 2306 3072 2169 3072 
Q 1681 3072 1420 2755 
Q 1159 2438 1159 1844 
L 1159 0 
L 581 0 
L 581 3500 
L 1159 3500 
L 1159 2956 
Q 1341 3275 1631 3429 
Q 1922 3584 2338 3584 
Q 2397 3584 2469 3576 
Q 2541 3569 2628 3553 
L 2631 2963 
z
" id="DejaVuSans-72" transform="scale(0.015625)"/>
       <path d="M 2194 1759 
Q 1497 1759 1228 1600 
Q 959 1441 959 1056 
Q 959 750 1161 570 
Q 1363 391 1709 391 
Q 2188 391 2477 730 
Q 2766 1069 2766 1631 
L 2766 1759 
L 2194 1759 
z
M 3341 1997 
L 3341 0 
L 2766 0 
L 2766 531 
Q 2569 213 2275 61 
Q 1981 -91 1556 -91 
Q 1019 -91 701 211 
Q 384 513 384 1019 
Q 384 1609 779 1909 
Q 1175 2209 1959 2209 
L 2766 2209 
L 2766 2266 
Q 2766 2663 2505 2880 
Q 2244 3097 1772 3097 
Q 1472 3097 1187 3025 
Q 903 2953 641 2809 
L 641 3341 
Q 956 3463 1253 3523 
Q 1550 3584 1831 3584 
Q 2591 3584 2966 3190 
Q 3341 2797 3341 1997 
z
" id="DejaVuSans-61" transform="scale(0.015625)"/>
       <path d="M 3328 2828 
Q 3544 3216 3844 3400 
Q 4144 3584 4550 3584 
Q 5097 3584 5394 3201 
Q 5691 2819 5691 2113 
L 5691 0 
L 5113 0 
L 5113 2094 
Q 5113 2597 4934 2840 
Q 4756 3084 4391 3084 
Q 3944 3084 3684 2787 
Q 3425 2491 3425 1978 
L 3425 0 
L 2847 0 
L 2847 2094 
Q 2847 2600 2669 2842 
Q 2491 3084 2119 3084 
Q 1678 3084 1418 2786 
Q 1159 2488 1159 1978 
L 1159 0 
L 581 0 
L 581 3500 
L 1159 3500 
L 1159 2956 
Q 1356 3278 1631 3431 
Q 1906 3584 2284 3584 
Q 2666 3584 2933 3390 
Q 3200 3197 3328 2828 
z
" id="DejaVuSans-6d" transform="scale(0.015625)"/>
       <path d="M 3597 1894 
L 3597 1613 
L 953 1613 
Q 991 1019 1311 708 
Q 1631 397 2203 397 
Q 2534 397 2845 478 
Q 3156 559 3463 722 
L 3463 178 
Q 3153 47 2828 -22 
Q 2503 -91 2169 -91 
Q 1331 -91 842 396 
Q 353 884 353 1716 
Q 353 2575 817 3079 
Q 1281 3584 2069 3584 
Q 2775 3584 3186 3129 
Q 3597 2675 3597 1894 
z
M 3022 2063 
Q 3016 2534 2758 2815 
Q 2500 3097 2075 3097 
Q 1594 3097 1305 2825 
Q 1016 2553 972 2059 
L 3022 2063 
z
" id="DejaVuSans-65" transform="scale(0.015625)"/>
      </defs>
      <use xlink:href="#DejaVuSans-66"/>
      <use x="35.205078" xlink:href="#DejaVuSans-72"/>
      <use x="76.318359" xlink:href="#DejaVuSans-61"/>
      <use x="137.597656" xlink:href="#DejaVuSans-6d"/>
      <use x="235.009766" xlink:href="#DejaVuSans-65"/>
     </g>
    </g>
   </g>
   <g id="matplotlib.axis_2">
    <g id="ytick_1">
     <g id="line2d_8">
      <defs>
       <path d="M 0 0 
L -3.5 0 
" id="md26b013199" style="stroke:#000000;stroke-width:0.8;"/>
      </defs>
      <g>
       <use style="stroke:#000000;stroke-width:0.8;" x="43.78125" xlink:href="#md26b013199" y="561.202423"/>
      </g>
     </g>
     <g id="text_9">
      <!-- 0.0 -->
      <g transform="translate(20.878125 565.001641)scale(0.1 -0.1)">
       <defs>
        <path d="M 684 794 
L 1344 794 
L 1344 0 
L 684 0 
L 684 794 
z
" id="DejaVuSans-2e" transform="scale(0.015625)"/>
       </defs>
       <use xlink:href="#DejaVuSans-30"/>
       <use x="63.623047" xlink:href="#DejaVuSans-2e"/>
       <use x="95.410156" xlink:href="#DejaVuSans-30"/>
      </g>
     </g>
    </g>
    <g id="ytick_2">
     <g id="line2d_9">
      <g>
       <use style="stroke:#000000;stroke-width:0.8;" x="43.78125" xlink:href="#md26b013199" y="466.278191"/>
      </g>
     </g>
     <g id="text_10">
      <!-- 0.5 -->
      <g transform="translate(20.878125 470.07741)scale(0.1 -0.1)">
       <defs>
        <path d="M 691 4666 
L 3169 4666 
L 3169 4134 
L 1269 4134 
L 1269 2991 
Q 1406 3038 1543 3061 
Q 1681 3084 1819 3084 
Q 2600 3084 3056 2656 
Q 3513 2228 3513 1497 
Q 3513 744 3044 326 
Q 2575 -91 1722 -91 
Q 1428 -91 1123 -41 
Q 819 9 494 109 
L 494 744 
Q 775 591 1075 516 
Q 1375 441 1709 441 
Q 2250 441 2565 725 
Q 2881 1009 2881 1497 
Q 2881 1984 2565 2268 
Q 2250 2553 1709 2553 
Q 1456 2553 1204 2497 
Q 953 2441 691 2322 
L 691 4666 
z
" id="DejaVuSans-35" transform="scale(0.015625)"/>
       </defs>
       <use xlink:href="#DejaVuSans-30"/>
       <use x="63.623047" xlink:href="#DejaVuSans-2e"/>
       <use x="95.410156" xlink:href="#DejaVuSans-35"/>
      </g>
     </g>
    </g>
    <g id="ytick_3">
     <g id="line2d_10">
      <g>
       <use style="stroke:#000000;stroke-width:0.8;" x="43.78125" xlink:href="#md26b013199" y="371.353959"/>
      </g>
     </g>
     <g id="text_11">
      <!-- 1.0 -->
      <g transform="translate(20.878125 375.153178)scale(0.1 -0.1)">
       <use xlink:href="#DejaVuSans-31"/>
       <use x="63.623047" xlink:href="#DejaVuSans-2e"/>
       <use x="95.410156" xlink:href="#DejaVuSans-30"/>
      </g>
     </g>
    </g>
    <g id="ytick_4">
     <g id="line2d_11">
      <g>
       <use style="stroke:#000000;stroke-width:0.8;" x="43.78125" xlink:href="#md26b013199" y="276.429727"/>
      </g>
     </g>
     <g id="text_12">
      <!-- 1.5 -->
      <g transform="translate(20.878125 280.228946)scale(0.1 -0.1)">
       <use xlink:href="#DejaVuSans-31"/>
       <use x="63.623047" xlink:href="#DejaVuSans-2e"/>
       <use x="95.410156" xlink:href="#DejaVuSans-35"/>
      </g>
     </g>
    </g>
    <g id="ytick_5">
     <g id="line2d_12">
      <g>
       <use style="stroke:#000000;stroke-width:0.8;" x="43.78125" xlink:href="#md26b013199" y="181.505496"/>
      </g>
     </g>
     <g id="text_13">
      <!-- 2.0 -->
      <g transform="translate(20.878125 185.304714)scale(0.1 -0.1)">
       <use xlink:href="#DejaVuSans-32"/>
       <use x="63.623047" xlink:href="#DejaVuSans-2e"/>
       <use x="95.410156" xlink:href="#DejaVuSans-30"/>
      </g>
     </g>
    </g>
    <g id="ytick_6">
     <g id="line2d_13">
      <g>
       <use style="stroke:#000000;stroke-width:0.8;" x="43.78125" xlink:href="#md26b013199" y="86.581264"/>
      </g>
     </g>
     <g id="text_14">
      <!-- 2.5 -->
      <g transform="translate(20.878125 90.380483)scale(0.1 -0.1)">
       <use xlink:href="#DejaVuSans-32"/>
       <use x="63.623047" xlink:href="#DejaVuSans-2e"/>
       <use x="95.410156" xlink:href="#DejaVuSans-35"/>
      </g>
     </g>
    </g>
    <g id="text_15">
     <!-- GCaMP -->
     <g transform="translate(14.798437 322.349446)rotate(-90)scale(0.1 -0.1)">
      <defs>
       <path d="M 3809 666 
L 3809 1919 
L 2778 1919 
L 2778 2438 
L 4434 2438 
L 4434 434 
Q 4069 175 3628 42 
Q 3188 -91 2688 -91 
Q 1594 -91 976 548 
Q 359 1188 359 2328 
Q 359 3472 976 4111 
Q 1594 4750 2688 4750 
Q 3144 4750 3555 4637 
Q 3966 4525 4313 4306 
L 4313 3634 
Q 3963 3931 3569 4081 
Q 3175 4231 2741 4231 
Q 1884 4231 1454 3753 
Q 1025 3275 1025 2328 
Q 1025 1384 1454 906 
Q 1884 428 2741 428 
Q 3075 428 3337 486 
Q 3600 544 3809 666 
z
" id="DejaVuSans-47" transform="scale(0.015625)"/>
       <path d="M 4122 4306 
L 4122 3641 
Q 3803 3938 3442 4084 
Q 3081 4231 2675 4231 
Q 1875 4231 1450 3742 
Q 1025 3253 1025 2328 
Q 1025 1406 1450 917 
Q 1875 428 2675 428 
Q 3081 428 3442 575 
Q 3803 722 4122 1019 
L 4122 359 
Q 3791 134 3420 21 
Q 3050 -91 2638 -91 
Q 1578 -91 968 557 
Q 359 1206 359 2328 
Q 359 3453 968 4101 
Q 1578 4750 2638 4750 
Q 3056 4750 3426 4639 
Q 3797 4528 4122 4306 
z
" id="DejaVuSans-43" transform="scale(0.015625)"/>
       <path d="M 628 4666 
L 1569 4666 
L 2759 1491 
L 3956 4666 
L 4897 4666 
L 4897 0 
L 4281 0 
L 4281 4097 
L 3078 897 
L 2444 897 
L 1241 4097 
L 1241 0 
L 628 0 
L 628 4666 
z
" id="DejaVuSans-4d" transform="scale(0.015625)"/>
       <path d="M 1259 4147 
L 1259 2394 
L 2053 2394 
Q 2494 2394 2734 2622 
Q 2975 2850 2975 3272 
Q 2975 3691 2734 3919 
Q 2494 4147 2053 4147 
L 1259 4147 
z
M 628 4666 
L 2053 4666 
Q 2838 4666 3239 4311 
Q 3641 3956 3641 3272 
Q 3641 2581 3239 2228 
Q 2838 1875 2053 1875 
L 1259 1875 
L 1259 0 
L 628 0 
L 628 4666 
z
" id="DejaVuSans-50" transform="scale(0.015625)"/>
      </defs>
      <use xlink:href="#DejaVuSans-47"/>
      <use x="77.490234" xlink:href="#DejaVuSans-43"/>
      <use x="147.314453" xlink:href="#DejaVuSans-61"/>
      <use x="208.59375" xlink:href="#DejaVuSans-4d"/>
      <use x="294.873047" xlink:href="#DejaVuSans-50"/>
     </g>
    </g>
   </g>
   <g id="line2d_14">
    <path clip-path="url(#p42aa4c0f7e)" d="M 119.872159 119.751308 
L 124.825188 151.670965 
L 128.53996 177.851585 
L 129.778217 184.997146 
L 131.016474 190.074988 
L 132.254732 192.975477 
L 133.492989 194.323431 
L 135.969504 195.541823 
L 138.446018 196.699938 
L 139.684275 197.886693 
L 140.922533 200.608178 
L 142.16079 204.97557 
L 143.399047 209.855361 
L 144.637304 213.754467 
L 145.875562 215.748769 
L 147.113819 215.716116 
L 148.352076 214.061169 
L 149.590334 211.152383 
L 152.066848 203.421547 
L 153.305105 200.74257 
L 154.543363 200.260424 
L 155.78162 202.10292 
L 159.496392 212.04404 
L 160.734649 214.602235 
L 161.972906 216.696765 
L 163.211163 218.378341 
L 164.449421 219.654959 
L 166.925935 221.605685 
L 168.164193 223.083535 
L 169.40245 225.170484 
L 170.640707 227.771526 
L 174.355479 236.904769 
L 175.593736 238.266008 
L 176.831993 237.723851 
L 178.070251 235.474006 
L 179.308508 232.214618 
L 181.785022 225.010889 
L 183.02328 222.487362 
L 184.261537 221.679499 
L 185.499794 222.202376 
L 186.738052 222.892547 
L 187.976309 222.906144 
L 189.214566 222.05208 
L 190.452823 220.491597 
L 192.929338 216.873607 
L 194.167595 215.659323 
L 195.405852 214.984881 
L 196.64411 214.757341 
L 197.882367 215.051778 
L 199.120624 215.975695 
L 200.358881 217.624683 
L 202.835396 222.535181 
L 204.073653 223.321425 
L 205.311911 220.926095 
L 207.788425 211.48549 
L 209.026682 210.385019 
L 210.26494 214.012778 
L 211.503197 221.603311 
L 212.741454 230.786771 
L 213.979711 238.513736 
L 215.217969 242.905751 
L 216.456226 244.212401 
L 217.694483 243.546674 
L 218.93274 241.203271 
L 220.170998 236.802378 
L 222.647512 225.565397 
L 223.88577 222.709583 
L 225.124027 222.955735 
L 226.362284 225.524982 
L 227.600541 228.876466 
L 228.838799 231.638317 
L 230.077056 233.079308 
L 231.315313 232.75874 
L 232.55357 230.739442 
L 233.791828 228.174617 
L 235.030085 226.473386 
L 236.268342 225.940977 
L 237.5066 225.880302 
L 239.983114 225.426941 
L 241.221371 225.700828 
L 243.697886 227.412749 
L 244.936143 227.528216 
L 246.1744 227.161709 
L 247.412658 227.257549 
L 248.650915 228.646995 
L 249.889172 231.369697 
L 251.127429 234.902801 
L 257.318716 254.145704 
L 258.556973 256.830803 
L 259.79523 257.807775 
L 261.033488 257.492053 
L 262.271745 256.878199 
L 263.510002 256.526717 
L 264.748259 256.424431 
L 267.224774 256.417785 
L 268.463031 255.720192 
L 269.701288 253.654369 
L 270.939546 250.630678 
L 272.177803 248.402066 
L 273.41606 248.605326 
L 274.654318 251.628091 
L 275.892575 256.880503 
L 278.369089 269.223613 
L 279.607347 273.386982 
L 280.845604 275.104005 
L 282.083861 274.525243 
L 283.322118 272.201221 
L 285.798633 266.037341 
L 287.03689 264.142103 
L 288.275147 262.898021 
L 289.513405 261.177389 
L 290.751662 258.096887 
L 291.989919 253.528055 
L 293.228177 248.334957 
L 294.466434 244.305938 
L 295.704691 243.416306 
L 296.942948 246.46603 
L 299.419463 257.90182 
L 300.65772 261.795375 
L 301.895977 263.603486 
L 303.134235 264.099363 
L 304.372492 263.814568 
L 305.610749 262.647916 
L 306.849006 260.220628 
L 308.087264 256.365201 
L 310.563778 247.152439 
L 311.802036 244.180828 
L 313.040293 242.877829 
L 314.27855 242.632781 
L 315.516807 243.197503 
L 316.755065 244.907838 
L 317.993322 247.83657 
L 320.469836 254.767793 
L 321.708094 257.407884 
L 322.946351 259.229851 
L 324.184608 260.152395 
L 325.422866 260.131875 
L 327.89938 258.942695 
L 329.137637 259.161073 
L 330.375895 260.724776 
L 331.614152 263.231159 
L 332.852409 265.340813 
L 334.090666 265.680945 
L 335.328924 263.645108 
L 337.805438 256.093036 
L 339.043695 253.82103 
L 340.281953 253.733318 
L 341.52021 255.617602 
L 342.758467 258.531382 
L 343.996725 261.145835 
L 345.234982 262.577472 
L 346.473239 262.816401 
L 347.711496 262.176251 
L 348.949754 260.867171 
L 350.188011 259.25292 
L 351.426268 257.987888 
L 352.664525 257.693942 
L 353.902783 258.357929 
L 355.14104 259.212677 
L 356.379297 259.552547 
L 357.617554 259.32607 
L 360.094069 258.487527 
L 361.332326 257.897503 
L 363.808841 256.203983 
L 365.047098 255.795555 
L 366.285355 256.045966 
L 368.76187 257.674139 
L 370.000127 257.413351 
L 371.238384 256.346359 
L 372.476642 255.452726 
L 373.714899 255.069456 
L 374.953156 254.457837 
L 376.191413 252.714555 
L 377.429671 249.743351 
L 378.667928 246.397006 
L 379.906185 243.815712 
L 381.144443 242.44349 
L 384.859214 240.579632 
L 386.097472 239.574401 
L 387.335729 238.300851 
L 388.573986 237.688486 
L 389.812243 238.866592 
L 391.050501 242.023184 
L 393.527015 251.057222 
L 394.765272 254.732643 
L 396.00353 256.660115 
L 397.241787 257.18194 
L 398.480044 257.368923 
L 399.718302 257.977662 
L 400.956559 259.041472 
L 402.194816 259.940781 
L 403.433073 260.029963 
L 404.671331 259.43448 
L 407.147845 257.781243 
L 408.386102 256.46885 
L 409.62436 254.227657 
L 410.862617 250.585462 
L 413.339132 241.320821 
L 414.577389 237.518158 
L 415.815646 234.332028 
L 417.053903 232.01582 
L 418.292161 231.257493 
L 419.530418 232.127067 
L 420.768675 234.055859 
L 422.006932 236.327899 
L 423.24519 238.200938 
L 424.483447 239.21146 
L 425.721704 239.421352 
L 426.959961 239.100864 
L 428.198219 238.630941 
L 429.436476 238.726455 
L 430.674733 239.834725 
L 431.912991 241.443737 
L 433.151248 242.765911 
L 434.389505 243.544883 
L 435.627762 243.753606 
L 436.86602 243.279737 
L 438.104277 242.137098 
L 439.342534 240.468587 
L 440.580791 238.256841 
L 443.057306 232.516383 
L 444.295563 230.783256 
L 445.53382 231.16 
L 446.772078 233.133825 
L 448.010335 235.360272 
L 449.248592 236.958323 
L 450.48685 237.697268 
L 451.725107 237.643598 
L 452.963364 237.14711 
L 454.201621 236.779215 
L 455.439879 236.918469 
L 456.678136 237.359244 
L 457.916393 237.40798 
L 459.15465 236.440565 
L 460.392908 234.609891 
L 461.631165 232.991686 
L 462.869422 232.77379 
L 464.107679 234.372863 
L 466.584194 240.096594 
L 467.822451 241.803913 
L 469.060709 241.712673 
L 470.298966 240.336961 
L 471.537223 239.202845 
L 472.77548 239.564618 
L 474.013738 241.532759 
L 475.251995 244.348748 
L 476.490252 246.718225 
L 477.728509 247.295293 
L 478.966767 245.55347 
L 481.443281 238.596961 
L 482.681538 236.11871 
L 483.919796 235.088748 
L 485.158053 235.042752 
L 486.39631 235.45196 
L 487.634568 236.265654 
L 488.872825 237.758365 
L 491.349339 241.808219 
L 492.587597 242.591223 
L 493.825854 242.016196 
L 495.064111 240.612377 
L 496.302368 238.927416 
L 497.540626 237.442852 
L 498.778883 236.902618 
L 500.01714 237.98721 
L 501.255397 240.527521 
L 502.493655 243.499102 
L 503.731912 245.760677 
L 504.970169 246.483713 
L 506.208427 245.323766 
L 507.446684 242.496037 
L 508.684941 238.497609 
L 512.399713 224.785968 
L 513.63797 221.030233 
L 514.876227 218.504522 
L 516.114485 217.350114 
L 517.352742 216.799788 
L 518.590999 215.735889 
L 519.829257 213.731429 
L 521.067514 211.45173 
L 522.305771 210.201104 
L 523.544028 211.053341 
L 524.782286 214.145504 
L 527.2588 222.782638 
L 528.497057 225.675172 
L 529.735315 227.072451 
L 530.973572 227.430084 
L 532.211829 227.080971 
L 533.450086 226.146006 
L 534.688344 224.796836 
L 535.926601 223.137569 
L 537.164858 220.791106 
L 538.403116 217.083089 
L 540.87963 206.530569 
L 542.117887 202.500397 
L 543.356145 201.206372 
L 544.594402 202.871363 
L 545.832659 206.664499 
L 547.070916 211.240711 
L 548.309174 215.334976 
L 549.547431 218.00177 
L 550.785688 218.547642 
L 552.023945 216.924727 
L 553.262203 213.961187 
L 554.50046 210.276504 
L 555.738717 205.525045 
L 558.215232 193.579987 
L 559.453489 189.755974 
L 560.691746 189.307192 
L 561.930004 191.656246 
L 564.406518 198.850908 
L 565.644775 201.545391 
L 566.883033 202.588609 
L 568.12129 201.807169 
L 569.359547 200.084402 
L 570.597804 198.631433 
L 571.836062 197.825582 
L 573.074319 197.455787 
L 574.312576 197.918163 
L 575.550834 199.997868 
L 578.027348 206.814605 
L 579.265605 208.900667 
L 580.503863 209.791568 
L 581.74212 210.328425 
L 582.980377 211.272501 
L 584.218634 213.018095 
L 585.456892 215.277267 
L 586.695149 216.956907 
L 587.933406 216.894734 
L 589.171663 214.600585 
L 590.409921 210.244863 
L 592.886435 199.213067 
L 594.124693 195.107485 
L 595.36295 192.893923 
L 596.601207 192.91284 
L 597.839464 195.267136 
L 599.077722 199.465506 
L 600.315979 204.462742 
L 601.554236 208.857426 
L 602.792493 211.365346 
L 604.030751 211.625714 
L 605.269008 210.200831 
L 606.507265 207.804979 
L 607.745523 205.063226 
L 608.98378 202.600582 
L 610.222037 200.748433 
L 611.460294 199.417593 
L 612.698552 198.600372 
L 613.936809 198.542457 
L 615.175066 198.953478 
L 616.413323 198.549813 
L 617.651581 195.872674 
L 618.889838 190.413638 
L 621.366352 176.19915 
L 622.60461 171.58415 
L 623.842867 170.039217 
L 625.081124 170.900816 
L 626.319382 172.760215 
L 627.557639 174.154748 
L 628.795896 174.050981 
L 630.034153 172.470918 
L 631.272411 170.587791 
L 632.510668 169.552187 
L 633.748925 169.562032 
L 634.987182 170.006559 
L 636.22544 169.686613 
L 637.463697 167.589948 
L 639.940211 160.776406 
L 641.178469 158.645215 
L 642.416726 157.854116 
L 643.654983 157.904322 
L 644.893241 158.195695 
L 646.131498 158.330239 
L 647.369755 561.202423 
L 688.232245 561.202423 
L 689.470502 166.79947 
L 690.708759 167.541439 
L 691.947017 166.631618 
L 693.185274 164.166375 
L 694.423531 160.065475 
L 698.138303 143.499678 
L 699.37656 140.192218 
L 700.614818 138.880613 
L 701.853075 139.635159 
L 703.091332 142.554681 
L 705.567847 151.511125 
L 706.806104 154.979541 
L 708.044361 157.213323 
L 709.282618 158.660337 
L 710.520876 159.570842 
L 711.759133 160.057856 
L 712.99739 160.851194 
L 714.235648 162.85636 
L 715.473905 165.896726 
L 716.712162 168.456657 
L 717.950419 168.797959 
L 719.188677 166.516016 
L 720.426934 163.010546 
L 721.665191 160.273358 
L 722.903448 159.156303 
L 724.141706 158.808876 
L 725.379963 158.06982 
L 726.61822 157.18377 
L 727.856477 157.574415 
L 729.094735 160.298093 
L 730.332992 165.116467 
L 732.809507 176.118167 
L 734.047764 180.744373 
L 735.286021 184.75426 
L 736.524278 187.951773 
L 737.762536 189.940759 
L 739.000793 190.324091 
L 740.23905 188.713221 
L 741.477307 185.092412 
L 742.715565 179.67203 
L 746.430336 158.570043 
L 747.668594 153.578658 
L 748.906851 150.094693 
L 750.145108 147.634414 
L 751.383366 145.573354 
L 752.621623 144.092896 
L 753.85988 144.270892 
L 755.098137 146.150611 
L 756.336395 147.748271 
L 757.574652 146.57768 
L 758.812909 141.642847 
L 762.527681 118.755082 
L 763.765938 113.496299 
L 765.004195 111.018337 
L 766.242453 111.590554 
L 767.48071 114.556432 
L 769.957225 122.417887 
L 771.195482 124.882249 
L 773.671996 127.921527 
L 776.148511 130.473439 
L 777.386768 133.279826 
L 778.625025 138.94854 
L 781.10154 153.933139 
L 782.339797 159.238072 
L 783.578054 161.85381 
L 784.816312 161.060471 
L 786.054569 156.191227 
L 788.531084 140.262199 
L 789.769341 135.762996 
L 791.007598 136.582978 
L 792.245855 142.192606 
L 795.960627 168.254184 
L 797.198884 174.979345 
L 798.437142 179.659734 
L 799.675399 181.611709 
L 800.913656 180.190197 
L 802.151914 175.853551 
L 803.390171 170.422508 
L 804.628428 165.940667 
L 805.866685 163.517855 
L 807.104943 163.463859 
L 808.3432 165.772432 
L 809.581457 170.220463 
L 812.057972 182.189556 
L 813.296229 186.443629 
L 814.534486 188.227335 
L 815.772743 187.914179 
L 817.011001 186.318504 
L 818.249258 184.469524 
L 819.487515 183.181165 
L 821.96403 181.808343 
L 823.202287 180.556342 
L 825.678802 177.14263 
L 826.917059 176.538924 
L 828.155316 177.433655 
L 830.631831 180.933744 
L 831.870088 181.857057 
L 834.346602 182.781636 
L 835.58486 183.287955 
L 836.823117 182.771345 
L 838.061374 180.218446 
L 839.299632 175.619494 
L 841.776146 164.055015 
L 843.014403 159.383245 
L 844.252661 156.426001 
L 845.490918 155.197965 
L 846.729175 155.383363 
L 847.967432 156.500059 
L 852.920461 162.599846 
L 854.158719 165.124509 
L 856.635233 171.692349 
L 857.873491 174.023666 
L 859.111748 174.351466 
L 860.350005 172.414454 
L 862.82652 165.818307 
L 864.064777 163.601821 
L 865.303034 163.225933 
L 866.541291 164.785549 
L 867.779549 167.752006 
L 869.017806 171.200681 
L 870.256063 173.981731 
L 871.49432 175.138537 
L 872.732578 174.361856 
L 873.970835 171.759466 
L 875.209092 167.385723 
L 877.685607 155.763804 
L 878.923864 151.444556 
L 880.162121 149.451293 
L 881.400379 149.275291 
L 882.638636 149.74097 
L 883.876893 149.765609 
L 885.11515 148.365799 
L 886.353408 144.5602 
L 887.591665 137.880208 
L 888.829922 128.714373 
L 890.06818 118.285989 
L 891.306437 108.930112 
L 892.544694 103.634273 
L 893.782951 103.894117 
L 895.021209 108.454447 
L 896.259466 114.616979 
L 897.497723 120.101394 
L 898.73598 124.036501 
L 899.974238 126.762621 
L 901.212495 128.886827 
L 902.450752 130.742462 
L 903.689009 132.221711 
L 904.927267 132.950105 
L 906.165524 132.992762 
L 907.403781 133.177749 
L 908.642039 134.366255 
L 911.118553 138.370508 
L 913.595068 141.16322 
L 914.833325 142.753928 
L 916.071582 143.912064 
L 917.309839 144.216979 
L 918.548097 144.007286 
L 919.786354 143.562893 
L 921.024611 142.399322 
L 922.262868 139.761606 
L 924.739383 131.105671 
L 925.97764 128.447086 
L 927.215898 129.362544 
L 928.454155 133.433436 
L 929.692412 138.18667 
L 930.930669 141.300853 
L 932.168927 142.205103 
L 933.407184 141.424024 
L 934.645441 139.25181 
L 935.883698 135.795493 
L 937.121956 131.872105 
L 938.360213 128.889845 
L 939.59847 127.712808 
L 940.836727 128.278924 
L 942.074985 130.498949 
L 943.313242 134.600108 
L 945.789757 145.570605 
L 947.028014 149.540232 
L 948.266271 151.432011 
L 949.504528 151.147299 
L 950.742786 149.123504 
L 951.981043 146.527654 
L 953.2193 144.385551 
L 954.457557 142.793025 
L 955.695815 141.681225 
L 956.934072 141.571251 
L 958.172329 142.893375 
L 959.410586 145.352543 
L 960.648844 148.189079 
L 961.887101 150.540084 
L 963.125358 151.799525 
L 964.363616 152.040463 
L 968.078387 151.471453 
L 969.316645 150.632333 
L 970.554902 149.027405 
L 973.031416 144.778425 
L 974.269674 143.70267 
L 975.507931 144.431505 
L 976.746188 146.520757 
L 977.984446 148.388277 
L 979.222703 148.799141 
L 980.46096 147.644091 
L 981.699217 145.29538 
L 982.937475 141.790297 
L 984.175732 136.966348 
L 985.413989 131.41379 
L 986.652246 126.981279 
L 987.890504 125.943012 
L 989.128761 129.341184 
L 991.605275 143.116499 
L 992.843533 148.278745 
L 994.08179 150.499626 
L 995.320047 149.820373 
L 996.558305 146.037059 
L 997.796562 138.775818 
L 1001.511334 108.951766 
L 1002.749591 101.654349 
L 1003.987848 96.733512 
L 1005.226105 94.073878 
L 1007.70262 91.52817 
L 1008.940877 89.703163 
L 1010.179134 87.668224 
L 1011.417392 86.308877 
L 1012.655649 85.974779 
L 1013.893906 86.556102 
L 1015.132164 87.369792 
L 1016.370421 86.47341 
L 1017.608678 81.732264 
L 1018.846935 72.942929 
L 1020.085193 62.243116 
L 1021.32345 52.976055 
L 1022.561707 48.03368 
L 1023.799964 47.979282 
L 1025.038222 50.656632 
L 1026.276479 53.045698 
L 1027.514736 53.354676 
L 1028.752993 51.859858 
L 1029.991251 50.737113 
L 1031.229508 52.905787 
L 1032.467765 60.129576 
L 1033.706023 71.685494 
L 1034.94428 84.595689 
L 1036.182537 95.767215 
L 1037.420794 104.450641 
L 1039.897309 119.95412 
L 1042.373823 136.843726 
L 1043.612081 143.296601 
L 1044.850338 145.593346 
L 1046.088595 142.771596 
L 1047.326852 136.136987 
L 1048.56511 128.217222 
L 1049.803367 121.439163 
L 1051.041624 118.054462 
L 1052.279882 119.829812 
L 1053.518139 126.756546 
L 1057.232911 157.821914 
L 1058.471168 165.913725 
L 1059.709425 172.288606 
L 1060.947682 177.35453 
L 1062.18594 181.188952 
L 1063.424197 183.751998 
L 1064.662454 184.779235 
L 1065.900711 184.084079 
L 1067.138969 182.462848 
L 1068.377226 181.085352 
L 1069.615483 180.179962 
L 1070.853741 179.462164 
L 1073.330255 178.424014 
L 1074.568512 177.37547 
L 1075.80677 175.221721 
L 1077.045027 172.318138 
L 1078.283284 169.922101 
L 1080.759799 167.387255 
L 1081.998056 164.916083 
L 1084.474571 157.948535 
L 1085.712828 156.249585 
L 1086.951085 156.943515 
L 1089.4276 161.65485 
L 1090.665857 162.175609 
L 1091.904114 159.901394 
L 1094.380629 150.431988 
L 1095.618886 147.200522 
L 1096.857143 147.152665 
L 1098.0954 150.499002 
L 1100.571915 162.253648 
L 1101.810172 166.829423 
L 1103.04843 168.530237 
L 1104.286687 166.788537 
L 1105.524944 161.592616 
L 1106.763201 153.108573 
L 1108.001459 141.87013 
L 1109.239716 129.502508 
L 1110.477973 118.747779 
L 1111.71623 112.110524 
L 1112.954488 110.199713 
L 1114.192745 111.702998 
L 1115.431002 114.932279 
L 1116.669259 118.923915 
L 1119.145774 128.197136 
L 1120.384031 133.032207 
L 1121.622289 137.149085 
L 1122.860546 139.774 
L 1124.098803 140.682143 
L 1125.33706 140.401816 
L 1126.575318 139.973946 
L 1127.813575 140.630214 
L 1129.051832 143.208516 
L 1131.528347 151.061907 
L 1132.766604 152.549319 
L 1134.004861 151.229201 
L 1135.243118 148.204598 
L 1138.95789 137.186698 
L 1140.196148 134.109455 
L 1141.434405 131.527123 
L 1142.672662 129.70613 
L 1143.910919 129.394527 
L 1145.149177 131.247709 
L 1146.387434 135.261836 
L 1148.863948 146.031595 
L 1150.102206 150.711052 
L 1151.340463 153.98528 
L 1152.57872 155.263429 
L 1153.816977 154.392254 
L 1155.055235 152.031242 
L 1158.770007 143.420681 
L 1160.008264 141.514658 
L 1161.246521 140.576487 
L 1162.484778 140.513327 
L 1163.723036 141.455788 
L 1164.961293 143.592515 
L 1166.19955 146.444986 
L 1167.437807 148.813641 
L 1168.676065 149.654792 
L 1169.914322 148.972172 
L 1171.152579 147.840088 
L 1173.629094 146.636186 
L 1174.867351 145.050628 
L 1176.105608 141.75402 
L 1177.343866 136.840107 
L 1181.058637 118.775812 
L 1182.296895 114.795565 
L 1183.535152 112.785213 
L 1184.773409 111.63238 
L 1186.011666 109.641094 
L 1187.249924 106.063558 
L 1188.488181 101.686508 
L 1189.726438 98.730865 
L 1190.964696 99.814791 
L 1192.202953 105.948575 
L 1194.679467 125.569871 
L 1195.917725 133.742474 
L 1197.155982 139.164496 
L 1198.394239 141.624398 
L 1199.632496 141.252415 
L 1200.870754 138.673127 
L 1204.585525 126.813895 
L 1205.823783 123.992998 
L 1207.06204 121.941727 
L 1208.300297 120.456454 
L 1209.538555 119.168192 
L 1212.015069 115.817111 
L 1213.253326 114.71428 
L 1214.491584 114.778201 
L 1215.729841 115.789801 
L 1216.968098 117.141899 
L 1219.444613 119.447692 
L 1220.68287 121.774367 
L 1221.921127 126.114481 
L 1223.159384 132.196919 
L 1225.635899 146.232163 
L 1226.874156 152.080407 
L 1228.112414 155.677028 
L 1229.350671 156.067797 
L 1230.588928 152.84835 
L 1231.827185 146.670703 
L 1234.3037 131.913369 
L 1235.541957 126.652952 
L 1236.780214 123.974861 
L 1238.018472 123.945004 
L 1239.256729 126.16514 
L 1244.209758 139.619008 
L 1245.448015 142.111269 
L 1246.686273 143.63829 
L 1247.92453 144.226777 
L 1249.162787 144.362375 
L 1250.401044 144.701528 
L 1251.639302 145.860373 
L 1252.877559 148.317227 
L 1256.592331 159.160857 
L 1257.830588 160.4601 
L 1259.068845 159.569024 
L 1260.307103 156.684389 
L 1262.783617 149.164617 
L 1264.021874 146.022249 
L 1265.260132 142.208802 
L 1267.736646 131.790107 
L 1268.974903 129.509256 
L 1270.213161 131.491561 
L 1271.451418 136.685492 
L 1272.689675 142.883126 
L 1273.927932 148.019792 
L 1275.16619 151.035712 
L 1276.404447 152.203873 
L 1278.880962 153.202326 
L 1280.119219 153.240117 
L 1281.357476 151.909528 
L 1282.595733 149.71685 
L 1283.833991 148.327568 
L 1285.072248 149.044435 
L 1286.310505 151.90467 
L 1287.548762 155.753968 
L 1288.78702 158.958843 
L 1290.025277 160.334599 
L 1291.263534 159.688025 
L 1292.501791 157.678614 
L 1293.740049 155.217713 
L 1294.978306 153.0573 
L 1296.216563 151.814419 
L 1297.454821 152.021188 
L 1298.693078 154.189417 
L 1299.931335 158.581587 
L 1301.169592 164.306985 
L 1302.40785 169.191316 
L 1303.646107 171.304115 
L 1304.884364 170.208371 
L 1306.122621 166.437992 
L 1307.360879 160.691417 
L 1308.599136 154.159246 
L 1309.837393 148.746623 
L 1311.07565 146.144489 
L 1312.313908 146.826937 
L 1313.552165 150.150203 
L 1316.02868 160.244947 
L 1317.266937 163.280408 
L 1318.505194 162.061711 
L 1319.743451 156.758657 
L 1320.981709 150.157955 
L 1322.219966 145.664676 
L 1323.458223 145.024534 
L 1324.69648 147.559163 
L 1327.172995 155.137997 
L 1329.649509 161.799806 
L 1330.887767 164.834638 
L 1332.126024 167.512758 
L 1333.364281 169.269775 
L 1334.602539 169.916466 
L 1335.840796 170.358235 
L 1337.079053 171.897026 
L 1339.555568 177.759301 
L 1340.793825 179.616976 
L 1342.032082 179.748148 
L 1343.270339 177.932237 
L 1344.508597 174.192981 
L 1348.223368 159.317724 
L 1349.461626 156.175979 
L 1350.699883 154.997504 
L 1351.93814 155.857637 
L 1354.414655 159.831673 
L 1355.652912 160.918462 
L 1356.891169 161.433219 
L 1358.129427 162.226858 
L 1359.367684 164.012371 
L 1361.844198 169.109598 
L 1363.082456 169.895238 
L 1364.320713 168.424317 
L 1365.55897 165.134601 
L 1366.797228 160.661337 
L 1368.035485 155.138443 
L 1370.511999 142.199822 
L 1371.750257 137.621591 
L 1372.988514 136.546019 
L 1374.226771 139.505604 
L 1376.703286 151.160412 
L 1377.941543 155.191606 
L 1379.1798 157.141408 
L 1380.418057 157.791729 
L 1381.656315 158.298659 
L 1382.894572 159.702179 
L 1384.132829 161.754593 
L 1385.371087 162.988726 
L 1386.609344 162.552626 
L 1387.847601 160.73223 
L 1389.085858 157.604405 
L 1390.324116 152.806714 
L 1391.562373 146.506172 
L 1392.80063 139.589985 
L 1394.038887 133.628877 
L 1395.277145 130.68413 
L 1396.515402 131.951912 
L 1397.753659 136.653802 
L 1398.991916 142.590157 
L 1400.230174 147.568278 
L 1401.468431 150.366146 
L 1402.706688 150.696046 
L 1403.944946 148.650846 
L 1405.183203 144.355759 
L 1407.659717 132.291788 
L 1408.897975 128.051729 
L 1410.136232 126.652692 
L 1411.374489 127.912517 
L 1412.612746 130.92688 
L 1413.851004 134.437426 
L 1415.089261 137.259181 
L 1416.327518 138.640013 
L 1417.565775 138.423967 
L 1420.04229 135.802361 
L 1421.280547 135.45724 
L 1422.518805 136.041136 
L 1423.757062 136.457719 
L 1424.995319 136.360053 
L 1426.233576 137.000185 
L 1427.471834 139.626677 
L 1429.948348 148.430766 
L 1431.186605 151.862427 
L 1432.424863 153.460522 
L 1433.66312 152.858911 
L 1434.901377 150.301686 
L 1436.139634 146.746734 
L 1437.377892 143.609105 
L 1438.616149 142.081696 
L 1439.854406 142.402916 
L 1441.092664 143.926088 
L 1444.807435 149.793599 
L 1447.28395 154.093084 
L 1448.522207 155.536475 
L 1449.760464 156.040052 
L 1450.998722 154.858297 
L 1452.236979 151.302563 
L 1454.713494 139.883449 
L 1455.951751 135.599098 
L 1457.190008 134.06189 
L 1458.428265 135.194633 
L 1459.666523 138.383232 
L 1462.143037 146.855073 
L 1463.381294 149.293474 
L 1464.619552 149.657654 
L 1465.857809 148.627122 
L 1467.096066 146.935574 
L 1468.334323 144.660308 
L 1469.572581 141.903118 
L 1470.810838 139.737777 
L 1472.049095 139.599117 
L 1473.287353 141.849916 
L 1474.52561 145.295947 
L 1475.763867 148.023622 
L 1477.002124 148.843643 
L 1478.240382 147.942459 
L 1480.716896 144.463346 
L 1481.955153 143.074318 
L 1483.193411 142.779769 
L 1484.431668 144.076221 
L 1485.669925 146.146092 
L 1486.908182 147.546373 
L 1488.14644 147.888947 
L 1489.384697 147.933378 
L 1491.861212 148.987019 
L 1493.099469 148.304786 
L 1494.337726 144.932189 
L 1495.575983 138.765483 
L 1496.814241 131.710608 
L 1498.052498 126.747757 
L 1499.290755 125.362182 
L 1500.529012 126.475048 
L 1501.76727 128.513508 
L 1504.243784 133.029723 
L 1505.482041 134.384725 
L 1506.720299 134.507878 
L 1509.196813 132.765168 
L 1510.435071 133.35291 
L 1511.673328 135.721364 
L 1512.911585 138.84824 
L 1514.149842 141.403884 
L 1515.3881 142.579091 
L 1516.626357 142.149027 
L 1517.864614 140.248655 
L 1519.102871 136.910059 
L 1520.341129 132.146135 
L 1521.579386 126.920202 
L 1522.817643 122.94309 
L 1524.0559 120.784048 
L 1525.294158 119.473966 
L 1526.532415 118.345063 
L 1527.770672 117.936084 
L 1529.00893 118.899747 
L 1530.247187 120.925202 
L 1532.723701 125.232507 
L 1533.961959 127.206895 
L 1535.200216 129.397923 
L 1536.438473 132.303441 
L 1538.914988 139.46131 
L 1540.153245 141.521787 
L 1541.391502 141.707476 
L 1542.62976 139.997541 
L 1543.868017 136.378209 
L 1545.106274 131.563963 
L 1546.344531 127.338403 
L 1547.582789 125.067191 
L 1548.821046 124.374292 
L 1550.059303 123.996537 
L 1551.29756 123.050437 
L 1552.535818 120.998343 
L 1553.774075 117.640466 
L 1555.012332 113.894918 
L 1556.250589 111.581596 
L 1557.488847 111.708126 
L 1558.727104 113.652072 
L 1559.965361 116.0635 
L 1561.203619 117.798621 
L 1562.441876 118.265422 
L 1563.680133 117.649091 
L 1564.91839 116.898292 
L 1566.156648 117.099734 
L 1567.394905 118.514043 
L 1568.633162 120.307427 
L 1569.871419 121.612339 
L 1571.109677 122.489792 
L 1572.347934 123.19062 
L 1573.586191 123.270379 
L 1574.824448 122.345447 
L 1576.062706 120.963569 
L 1577.300963 119.753761 
L 1578.53922 117.950095 
L 1579.777478 113.72212 
L 1581.015735 106.38021 
L 1582.253992 97.678562 
L 1583.492249 90.532823 
L 1584.730507 86.772844 
L 1585.968764 86.232928 
L 1587.207021 87.562833 
L 1588.445278 89.391486 
L 1589.683536 90.526677 
L 1590.921793 89.811404 
L 1592.16005 86.629101 
L 1594.636565 76.052681 
L 1595.874822 72.205396 
L 1597.113079 70.791731 
L 1598.351337 71.693107 
L 1599.589594 74.473109 
L 1603.304366 86.428254 
L 1604.542623 89.51698 
L 1605.78088 91.576146 
L 1607.019137 92.990935 
L 1608.257395 93.77505 
L 1609.495652 93.2755 
L 1611.972166 90.213191 
L 1614.448681 88.441248 
L 1615.686938 86.904747 
L 1616.925196 84.752175 
L 1618.163453 82.861264 
L 1619.40171 82.311617 
L 1620.639967 83.434844 
L 1621.878225 84.91512 
L 1623.116482 84.610909 
L 1624.354739 81.690511 
L 1625.592996 77.312395 
L 1626.831254 73.416208 
L 1628.069511 71.570191 
L 1629.307768 72.483677 
L 1631.784283 78.350637 
L 1633.02254 79.246521 
L 1634.260797 77.539125 
L 1635.499055 74.300545 
L 1636.737312 71.490887 
L 1637.975569 70.753984 
L 1639.213826 72.644465 
L 1640.452084 76.715955 
L 1641.690341 81.994754 
L 1641.690341 81.994754 
" style="fill:none;stroke:#008000;stroke-linecap:square;stroke-width:1.5;"/>
   </g>
   <g id="patch_3">
    <path d="M 43.78125 586.86358 
L 43.78125 22.318125 
" style="fill:none;stroke:#000000;stroke-linecap:square;stroke-linejoin:miter;stroke-width:0.8;"/>
   </g>
   <g id="patch_4">
    <path d="M 1717.78125 586.86358 
L 1717.78125 22.318125 
" style="fill:none;stroke:#000000;stroke-linecap:square;stroke-linejoin:miter;stroke-width:0.8;"/>
   </g>
   <g id="patch_5">
    <path d="M 43.78125 586.86358 
L 1717.78125 586.86358 
" style="fill:none;stroke:#000000;stroke-linecap:square;stroke-linejoin:miter;stroke-width:0.8;"/>
   </g>
   <g id="patch_6">
    <path d="M 43.78125 22.318125 
L 1717.78125 22.318125 
" style="fill:none;stroke:#000000;stroke-linecap:square;stroke-linejoin:miter;stroke-width:0.8;"/>
   </g>
   <g id="text_16">
    <!-- before binarisation -->
    <g transform="translate(824.1825 16.318125)scale(0.12 -0.12)">
     <defs>
      <path d="M 3116 1747 
Q 3116 2381 2855 2742 
Q 2594 3103 2138 3103 
Q 1681 3103 1420 2742 
Q 1159 2381 1159 1747 
Q 1159 1113 1420 752 
Q 1681 391 2138 391 
Q 2594 391 2855 752 
Q 3116 1113 3116 1747 
z
M 1159 2969 
Q 1341 3281 1617 3432 
Q 1894 3584 2278 3584 
Q 2916 3584 3314 3078 
Q 3713 2572 3713 1747 
Q 3713 922 3314 415 
Q 2916 -91 2278 -91 
Q 1894 -91 1617 61 
Q 1341 213 1159 525 
L 1159 0 
L 581 0 
L 581 4863 
L 1159 4863 
L 1159 2969 
z
" id="DejaVuSans-62" transform="scale(0.015625)"/>
      <path d="M 1959 3097 
Q 1497 3097 1228 2736 
Q 959 2375 959 1747 
Q 959 1119 1226 758 
Q 1494 397 1959 397 
Q 2419 397 2687 759 
Q 2956 1122 2956 1747 
Q 2956 2369 2687 2733 
Q 2419 3097 1959 3097 
z
M 1959 3584 
Q 2709 3584 3137 3096 
Q 3566 2609 3566 1747 
Q 3566 888 3137 398 
Q 2709 -91 1959 -91 
Q 1206 -91 779 398 
Q 353 888 353 1747 
Q 353 2609 779 3096 
Q 1206 3584 1959 3584 
z
" id="DejaVuSans-6f" transform="scale(0.015625)"/>
      <path id="DejaVuSans-20" transform="scale(0.015625)"/>
      <path d="M 603 3500 
L 1178 3500 
L 1178 0 
L 603 0 
L 603 3500 
z
M 603 4863 
L 1178 4863 
L 1178 4134 
L 603 4134 
L 603 4863 
z
" id="DejaVuSans-69" transform="scale(0.015625)"/>
      <path d="M 3513 2113 
L 3513 0 
L 2938 0 
L 2938 2094 
Q 2938 2591 2744 2837 
Q 2550 3084 2163 3084 
Q 1697 3084 1428 2787 
Q 1159 2491 1159 1978 
L 1159 0 
L 581 0 
L 581 3500 
L 1159 3500 
L 1159 2956 
Q 1366 3272 1645 3428 
Q 1925 3584 2291 3584 
Q 2894 3584 3203 3211 
Q 3513 2838 3513 2113 
z
" id="DejaVuSans-6e" transform="scale(0.015625)"/>
      <path d="M 2834 3397 
L 2834 2853 
Q 2591 2978 2328 3040 
Q 2066 3103 1784 3103 
Q 1356 3103 1142 2972 
Q 928 2841 928 2578 
Q 928 2378 1081 2264 
Q 1234 2150 1697 2047 
L 1894 2003 
Q 2506 1872 2764 1633 
Q 3022 1394 3022 966 
Q 3022 478 2636 193 
Q 2250 -91 1575 -91 
Q 1294 -91 989 -36 
Q 684 19 347 128 
L 347 722 
Q 666 556 975 473 
Q 1284 391 1588 391 
Q 1994 391 2212 530 
Q 2431 669 2431 922 
Q 2431 1156 2273 1281 
Q 2116 1406 1581 1522 
L 1381 1569 
Q 847 1681 609 1914 
Q 372 2147 372 2553 
Q 372 3047 722 3315 
Q 1072 3584 1716 3584 
Q 2034 3584 2315 3537 
Q 2597 3491 2834 3397 
z
" id="DejaVuSans-73" transform="scale(0.015625)"/>
      <path d="M 1172 4494 
L 1172 3500 
L 2356 3500 
L 2356 3053 
L 1172 3053 
L 1172 1153 
Q 1172 725 1289 603 
Q 1406 481 1766 481 
L 2356 481 
L 2356 0 
L 1766 0 
Q 1100 0 847 248 
Q 594 497 594 1153 
L 594 3053 
L 172 3053 
L 172 3500 
L 594 3500 
L 594 4494 
L 1172 4494 
z
" id="DejaVuSans-74" transform="scale(0.015625)"/>
     </defs>
     <use xlink:href="#DejaVuSans-62"/>
     <use x="63.476562" xlink:href="#DejaVuSans-65"/>
     <use x="125" xlink:href="#DejaVuSans-66"/>
     <use x="160.205078" xlink:href="#DejaVuSans-6f"/>
     <use x="221.386719" xlink:href="#DejaVuSans-72"/>
     <use x="260.25" xlink:href="#DejaVuSans-65"/>
     <use x="321.773438" xlink:href="#DejaVuSans-20"/>
     <use x="353.560547" xlink:href="#DejaVuSans-62"/>
     <use x="417.037109" xlink:href="#DejaVuSans-69"/>
     <use x="444.820312" xlink:href="#DejaVuSans-6e"/>
     <use x="508.199219" xlink:href="#DejaVuSans-61"/>
     <use x="569.478516" xlink:href="#DejaVuSans-72"/>
     <use x="610.591797" xlink:href="#DejaVuSans-69"/>
     <use x="638.375" xlink:href="#DejaVuSans-73"/>
     <use x="690.474609" xlink:href="#DejaVuSans-61"/>
     <use x="751.753906" xlink:href="#DejaVuSans-74"/>
     <use x="790.962891" xlink:href="#DejaVuSans-69"/>
     <use x="818.746094" xlink:href="#DejaVuSans-6f"/>
     <use x="879.927734" xlink:href="#DejaVuSans-6e"/>
    </g>
   </g>
  </g>
  <g id="axes_2">
   <g id="patch_7">
    <path d="M 43.78125 1264.318125 
L 1717.78125 1264.318125 
L 1717.78125 699.77267 
L 43.78125 699.77267 
z
" style="fill:#ffffff;"/>
   </g>
   <g id="matplotlib.axis_3">
    <g id="xtick_8">
     <g id="line2d_15">
      <g>
       <use style="stroke:#000000;stroke-width:0.8;" x="119.872159" xlink:href="#m8e889779ae" y="1264.318125"/>
      </g>
     </g>
     <g id="text_17">
      <!-- 0 -->
      <g transform="translate(116.690909 1278.916563)scale(0.1 -0.1)">
       <use xlink:href="#DejaVuSans-30"/>
      </g>
     </g>
    </g>
    <g id="xtick_9">
     <g id="line2d_16">
      <g>
       <use style="stroke:#000000;stroke-width:0.8;" x="367.523613" xlink:href="#m8e889779ae" y="1264.318125"/>
      </g>
     </g>
     <g id="text_18">
      <!-- 200 -->
      <g transform="translate(357.979863 1278.916563)scale(0.1 -0.1)">
       <use xlink:href="#DejaVuSans-32"/>
       <use x="63.623047" xlink:href="#DejaVuSans-30"/>
       <use x="127.246094" xlink:href="#DejaVuSans-30"/>
      </g>
     </g>
    </g>
    <g id="xtick_10">
     <g id="line2d_17">
      <g>
       <use style="stroke:#000000;stroke-width:0.8;" x="615.175066" xlink:href="#m8e889779ae" y="1264.318125"/>
      </g>
     </g>
     <g id="text_19">
      <!-- 400 -->
      <g transform="translate(605.631316 1278.916563)scale(0.1 -0.1)">
       <use xlink:href="#DejaVuSans-34"/>
       <use x="63.623047" xlink:href="#DejaVuSans-30"/>
       <use x="127.246094" xlink:href="#DejaVuSans-30"/>
      </g>
     </g>
    </g>
    <g id="xtick_11">
     <g id="line2d_18">
      <g>
       <use style="stroke:#000000;stroke-width:0.8;" x="862.82652" xlink:href="#m8e889779ae" y="1264.318125"/>
      </g>
     </g>
     <g id="text_20">
      <!-- 600 -->
      <g transform="translate(853.28277 1278.916563)scale(0.1 -0.1)">
       <use xlink:href="#DejaVuSans-36"/>
       <use x="63.623047" xlink:href="#DejaVuSans-30"/>
       <use x="127.246094" xlink:href="#DejaVuSans-30"/>
      </g>
     </g>
    </g>
    <g id="xtick_12">
     <g id="line2d_19">
      <g>
       <use style="stroke:#000000;stroke-width:0.8;" x="1110.477973" xlink:href="#m8e889779ae" y="1264.318125"/>
      </g>
     </g>
     <g id="text_21">
      <!-- 800 -->
      <g transform="translate(1100.934223 1278.916563)scale(0.1 -0.1)">
       <use xlink:href="#DejaVuSans-38"/>
       <use x="63.623047" xlink:href="#DejaVuSans-30"/>
       <use x="127.246094" xlink:href="#DejaVuSans-30"/>
      </g>
     </g>
    </g>
    <g id="xtick_13">
     <g id="line2d_20">
      <g>
       <use style="stroke:#000000;stroke-width:0.8;" x="1358.129427" xlink:href="#m8e889779ae" y="1264.318125"/>
      </g>
     </g>
     <g id="text_22">
      <!-- 1000 -->
      <g transform="translate(1345.404427 1278.916563)scale(0.1 -0.1)">
       <use xlink:href="#DejaVuSans-31"/>
       <use x="63.623047" xlink:href="#DejaVuSans-30"/>
       <use x="127.246094" xlink:href="#DejaVuSans-30"/>
       <use x="190.869141" xlink:href="#DejaVuSans-30"/>
      </g>
     </g>
    </g>
    <g id="xtick_14">
     <g id="line2d_21">
      <g>
       <use style="stroke:#000000;stroke-width:0.8;" x="1605.78088" xlink:href="#m8e889779ae" y="1264.318125"/>
      </g>
     </g>
     <g id="text_23">
      <!-- 1200 -->
      <g transform="translate(1593.05588 1278.916563)scale(0.1 -0.1)">
       <use xlink:href="#DejaVuSans-31"/>
       <use x="63.623047" xlink:href="#DejaVuSans-32"/>
       <use x="127.246094" xlink:href="#DejaVuSans-30"/>
       <use x="190.869141" xlink:href="#DejaVuSans-30"/>
      </g>
     </g>
    </g>
    <g id="text_24">
     <!-- frame -->
     <g transform="translate(865.954687 1292.594688)scale(0.1 -0.1)">
      <use xlink:href="#DejaVuSans-66"/>
      <use x="35.205078" xlink:href="#DejaVuSans-72"/>
      <use x="76.318359" xlink:href="#DejaVuSans-61"/>
      <use x="137.597656" xlink:href="#DejaVuSans-6d"/>
      <use x="235.009766" xlink:href="#DejaVuSans-65"/>
     </g>
    </g>
   </g>
   <g id="matplotlib.axis_4">
    <g id="ytick_7">
     <g id="line2d_22">
      <g>
       <use style="stroke:#000000;stroke-width:0.8;" x="43.78125" xlink:href="#md26b013199" y="1238.656968"/>
      </g>
     </g>
     <g id="text_25">
      <!-- 0.0 -->
      <g transform="translate(20.878125 1242.456187)scale(0.1 -0.1)">
       <use xlink:href="#DejaVuSans-30"/>
       <use x="63.623047" xlink:href="#DejaVuSans-2e"/>
       <use x="95.410156" xlink:href="#DejaVuSans-30"/>
      </g>
     </g>
    </g>
    <g id="ytick_8">
     <g id="line2d_23">
      <g>
       <use style="stroke:#000000;stroke-width:0.8;" x="43.78125" xlink:href="#md26b013199" y="1136.01234"/>
      </g>
     </g>
     <g id="text_26">
      <!-- 0.2 -->
      <g transform="translate(20.878125 1139.811559)scale(0.1 -0.1)">
       <use xlink:href="#DejaVuSans-30"/>
       <use x="63.623047" xlink:href="#DejaVuSans-2e"/>
       <use x="95.410156" xlink:href="#DejaVuSans-32"/>
      </g>
     </g>
    </g>
    <g id="ytick_9">
     <g id="line2d_24">
      <g>
       <use style="stroke:#000000;stroke-width:0.8;" x="43.78125" xlink:href="#md26b013199" y="1033.367712"/>
      </g>
     </g>
     <g id="text_27">
      <!-- 0.4 -->
      <g transform="translate(20.878125 1037.166931)scale(0.1 -0.1)">
       <use xlink:href="#DejaVuSans-30"/>
       <use x="63.623047" xlink:href="#DejaVuSans-2e"/>
       <use x="95.410156" xlink:href="#DejaVuSans-34"/>
      </g>
     </g>
    </g>
    <g id="ytick_10">
     <g id="line2d_25">
      <g>
       <use style="stroke:#000000;stroke-width:0.8;" x="43.78125" xlink:href="#md26b013199" y="930.723084"/>
      </g>
     </g>
     <g id="text_28">
      <!-- 0.6 -->
      <g transform="translate(20.878125 934.522302)scale(0.1 -0.1)">
       <use xlink:href="#DejaVuSans-30"/>
       <use x="63.623047" xlink:href="#DejaVuSans-2e"/>
       <use x="95.410156" xlink:href="#DejaVuSans-36"/>
      </g>
     </g>
    </g>
    <g id="ytick_11">
     <g id="line2d_26">
      <g>
       <use style="stroke:#000000;stroke-width:0.8;" x="43.78125" xlink:href="#md26b013199" y="828.078456"/>
      </g>
     </g>
     <g id="text_29">
      <!-- 0.8 -->
      <g transform="translate(20.878125 831.877674)scale(0.1 -0.1)">
       <use xlink:href="#DejaVuSans-30"/>
       <use x="63.623047" xlink:href="#DejaVuSans-2e"/>
       <use x="95.410156" xlink:href="#DejaVuSans-38"/>
      </g>
     </g>
    </g>
    <g id="ytick_12">
     <g id="line2d_27">
      <g>
       <use style="stroke:#000000;stroke-width:0.8;" x="43.78125" xlink:href="#md26b013199" y="725.433827"/>
      </g>
     </g>
     <g id="text_30">
      <!-- 1.0 -->
      <g transform="translate(20.878125 729.233046)scale(0.1 -0.1)">
       <use xlink:href="#DejaVuSans-31"/>
       <use x="63.623047" xlink:href="#DejaVuSans-2e"/>
       <use x="95.410156" xlink:href="#DejaVuSans-30"/>
      </g>
     </g>
    </g>
    <g id="text_31">
     <!-- GCaMP -->
     <g transform="translate(14.798437 999.803991)rotate(-90)scale(0.1 -0.1)">
      <use xlink:href="#DejaVuSans-47"/>
      <use x="77.490234" xlink:href="#DejaVuSans-43"/>
      <use x="147.314453" xlink:href="#DejaVuSans-61"/>
      <use x="208.59375" xlink:href="#DejaVuSans-4d"/>
      <use x="294.873047" xlink:href="#DejaVuSans-50"/>
     </g>
    </g>
   </g>
   <g id="line2d_28">
    <path clip-path="url(#pedf92a8db0)" d="M 119.872159 1238.656968 
L 1002.749591 1238.656968 
L 1003.987848 725.433827 
L 1036.182537 725.433827 
L 1037.420794 1238.656968 
L 1188.488181 1238.656968 
L 1189.726438 725.433827 
L 1190.964696 725.433827 
L 1192.202953 1238.656968 
L 1581.015735 1238.656968 
L 1582.253992 725.433827 
L 1641.690341 725.433827 
L 1641.690341 725.433827 
" style="fill:none;stroke:#008000;stroke-linecap:square;stroke-width:1.5;"/>
   </g>
   <g id="patch_8">
    <path d="M 43.78125 1264.318125 
L 43.78125 699.77267 
" style="fill:none;stroke:#000000;stroke-linecap:square;stroke-linejoin:miter;stroke-width:0.8;"/>
   </g>
   <g id="patch_9">
    <path d="M 1717.78125 1264.318125 
L 1717.78125 699.77267 
" style="fill:none;stroke:#000000;stroke-linecap:square;stroke-linejoin:miter;stroke-width:0.8;"/>
   </g>
   <g id="patch_10">
    <path d="M 43.78125 1264.318125 
L 1717.78125 1264.318125 
" style="fill:none;stroke:#000000;stroke-linecap:square;stroke-linejoin:miter;stroke-width:0.8;"/>
   </g>
   <g id="patch_11">
    <path d="M 43.78125 699.77267 
L 1717.78125 699.77267 
" style="fill:none;stroke:#000000;stroke-linecap:square;stroke-linejoin:miter;stroke-width:0.8;"/>
   </g>
   <g id="text_32">
    <!-- before binarisation -->
    <g transform="translate(824.1825 693.77267)scale(0.12 -0.12)">
     <use xlink:href="#DejaVuSans-62"/>
     <use x="63.476562" xlink:href="#DejaVuSans-65"/>
     <use x="125" xlink:href="#DejaVuSans-66"/>
     <use x="160.205078" xlink:href="#DejaVuSans-6f"/>
     <use x="221.386719" xlink:href="#DejaVuSans-72"/>
     <use x="260.25" xlink:href="#DejaVuSans-65"/>
     <use x="321.773438" xlink:href="#DejaVuSans-20"/>
     <use x="353.560547" xlink:href="#DejaVuSans-62"/>
     <use x="417.037109" xlink:href="#DejaVuSans-69"/>
     <use x="444.820312" xlink:href="#DejaVuSans-6e"/>
     <use x="508.199219" xlink:href="#DejaVuSans-61"/>
     <use x="569.478516" xlink:href="#DejaVuSans-72"/>
     <use x="610.591797" xlink:href="#DejaVuSans-69"/>
     <use x="638.375" xlink:href="#DejaVuSans-73"/>
     <use x="690.474609" xlink:href="#DejaVuSans-61"/>
     <use x="751.753906" xlink:href="#DejaVuSans-74"/>
     <use x="790.962891" xlink:href="#DejaVuSans-69"/>
     <use x="818.746094" xlink:href="#DejaVuSans-6f"/>
     <use x="879.927734" xlink:href="#DejaVuSans-6e"/>
    </g>
   </g>
  </g>
 </g>
 <defs>
  <clipPath id="p42aa4c0f7e">
   <rect height="564.545455" width="1674" x="43.78125" y="22.318125"/>
  </clipPath>
  <clipPath id="pedf92a8db0">
   <rect height="564.545455" width="1674" x="43.78125" y="699.77267"/>
  </clipPath>
 </defs>
</svg>
