<?xml version="1.0" encoding="utf-8" standalone="no"?>
<!DOCTYPE svg PUBLIC "-//W3C//DTD SVG 1.1//EN"
  "http://www.w3.org/Graphics/SVG/1.1/DTD/svg11.dtd">
<svg height="1301.874375pt" version="1.1" viewBox="0 0 1724.98125 1301.874375" width="1724.98125pt" xmlns="http://www.w3.org/2000/svg" xmlns:xlink="http://www.w3.org/1999/xlink">
 <metadata>
  <rdf:RDF xmlns:cc="http://creativecommons.org/ns#" xmlns:dc="http://purl.org/dc/elements/1.1/" xmlns:rdf="http://www.w3.org/1999/02/22-rdf-syntax-ns#">
   <cc:Work>
    <dc:type rdf:resource="http://purl.org/dc/dcmitype/StillImage"/>
    <dc:date>2022-07-24T15:54:39.972486</dc:date>
    <dc:format>image/svg+xml</dc:format>
    <dc:creator>
     <cc:Agent>
      <dc:title>Matplotlib v3.4.2, https://matplotlib.org/</dc:title>
     </cc:Agent>
    </dc:creator>
   </cc:Work>
  </rdf:RDF>
 </metadata>
 <defs>
  <style type="text/css">*{stroke-linecap:butt;stroke-linejoin:round;}</style>
 </defs>
 <g id="figure_1">
  <g id="patch_1">
   <path d="M 0 1301.874375 
L 1724.98125 1301.874375 
L 1724.98125 0 
L 0 0 
z
" style="fill:#ffffff;"/>
  </g>
  <g id="axes_1">
   <g id="patch_2">
    <path d="M 43.78125 586.86358 
L 1717.78125 586.86358 
L 1717.78125 22.318125 
L 43.78125 22.318125 
z
" style="fill:#ffffff;"/>
   </g>
   <g id="matplotlib.axis_1">
    <g id="xtick_1">
     <g id="line2d_1">
      <defs>
       <path d="M 0 0 
L 0 3.5 
" id="m3a371ce4b4" style="stroke:#000000;stroke-width:0.8;"/>
      </defs>
      <g>
       <use style="stroke:#000000;stroke-width:0.8;" x="119.872159" xlink:href="#m3a371ce4b4" y="586.86358"/>
      </g>
     </g>
     <g id="text_1">
      <!-- 0 -->
      <g transform="translate(116.690909 601.462017)scale(0.1 -0.1)">
       <defs>
        <path d="M 2034 4250 
Q 1547 4250 1301 3770 
Q 1056 3291 1056 2328 
Q 1056 1369 1301 889 
Q 1547 409 2034 409 
Q 2525 409 2770 889 
Q 3016 1369 3016 2328 
Q 3016 3291 2770 3770 
Q 2525 4250 2034 4250 
z
M 2034 4750 
Q 2819 4750 3233 4129 
Q 3647 3509 3647 2328 
Q 3647 1150 3233 529 
Q 2819 -91 2034 -91 
Q 1250 -91 836 529 
Q 422 1150 422 2328 
Q 422 3509 836 4129 
Q 1250 4750 2034 4750 
z
" id="DejaVuSans-30" transform="scale(0.015625)"/>
       </defs>
       <use xlink:href="#DejaVuSans-30"/>
      </g>
     </g>
    </g>
    <g id="xtick_2">
     <g id="line2d_2">
      <g>
       <use style="stroke:#000000;stroke-width:0.8;" x="367.523613" xlink:href="#m3a371ce4b4" y="586.86358"/>
      </g>
     </g>
     <g id="text_2">
      <!-- 200 -->
      <g transform="translate(357.979863 601.462017)scale(0.1 -0.1)">
       <defs>
        <path d="M 1228 531 
L 3431 531 
L 3431 0 
L 469 0 
L 469 531 
Q 828 903 1448 1529 
Q 2069 2156 2228 2338 
Q 2531 2678 2651 2914 
Q 2772 3150 2772 3378 
Q 2772 3750 2511 3984 
Q 2250 4219 1831 4219 
Q 1534 4219 1204 4116 
Q 875 4013 500 3803 
L 500 4441 
Q 881 4594 1212 4672 
Q 1544 4750 1819 4750 
Q 2544 4750 2975 4387 
Q 3406 4025 3406 3419 
Q 3406 3131 3298 2873 
Q 3191 2616 2906 2266 
Q 2828 2175 2409 1742 
Q 1991 1309 1228 531 
z
" id="DejaVuSans-32" transform="scale(0.015625)"/>
       </defs>
       <use xlink:href="#DejaVuSans-32"/>
       <use x="63.623047" xlink:href="#DejaVuSans-30"/>
       <use x="127.246094" xlink:href="#DejaVuSans-30"/>
      </g>
     </g>
    </g>
    <g id="xtick_3">
     <g id="line2d_3">
      <g>
       <use style="stroke:#000000;stroke-width:0.8;" x="615.175066" xlink:href="#m3a371ce4b4" y="586.86358"/>
      </g>
     </g>
     <g id="text_3">
      <!-- 400 -->
      <g transform="translate(605.631316 601.462017)scale(0.1 -0.1)">
       <defs>
        <path d="M 2419 4116 
L 825 1625 
L 2419 1625 
L 2419 4116 
z
M 2253 4666 
L 3047 4666 
L 3047 1625 
L 3713 1625 
L 3713 1100 
L 3047 1100 
L 3047 0 
L 2419 0 
L 2419 1100 
L 313 1100 
L 313 1709 
L 2253 4666 
z
" id="DejaVuSans-34" transform="scale(0.015625)"/>
       </defs>
       <use xlink:href="#DejaVuSans-34"/>
       <use x="63.623047" xlink:href="#DejaVuSans-30"/>
       <use x="127.246094" xlink:href="#DejaVuSans-30"/>
      </g>
     </g>
    </g>
    <g id="xtick_4">
     <g id="line2d_4">
      <g>
       <use style="stroke:#000000;stroke-width:0.8;" x="862.82652" xlink:href="#m3a371ce4b4" y="586.86358"/>
      </g>
     </g>
     <g id="text_4">
      <!-- 600 -->
      <g transform="translate(853.28277 601.462017)scale(0.1 -0.1)">
       <defs>
        <path d="M 2113 2584 
Q 1688 2584 1439 2293 
Q 1191 2003 1191 1497 
Q 1191 994 1439 701 
Q 1688 409 2113 409 
Q 2538 409 2786 701 
Q 3034 994 3034 1497 
Q 3034 2003 2786 2293 
Q 2538 2584 2113 2584 
z
M 3366 4563 
L 3366 3988 
Q 3128 4100 2886 4159 
Q 2644 4219 2406 4219 
Q 1781 4219 1451 3797 
Q 1122 3375 1075 2522 
Q 1259 2794 1537 2939 
Q 1816 3084 2150 3084 
Q 2853 3084 3261 2657 
Q 3669 2231 3669 1497 
Q 3669 778 3244 343 
Q 2819 -91 2113 -91 
Q 1303 -91 875 529 
Q 447 1150 447 2328 
Q 447 3434 972 4092 
Q 1497 4750 2381 4750 
Q 2619 4750 2861 4703 
Q 3103 4656 3366 4563 
z
" id="DejaVuSans-36" transform="scale(0.015625)"/>
       </defs>
       <use xlink:href="#DejaVuSans-36"/>
       <use x="63.623047" xlink:href="#DejaVuSans-30"/>
       <use x="127.246094" xlink:href="#DejaVuSans-30"/>
      </g>
     </g>
    </g>
    <g id="xtick_5">
     <g id="line2d_5">
      <g>
       <use style="stroke:#000000;stroke-width:0.8;" x="1110.477973" xlink:href="#m3a371ce4b4" y="586.86358"/>
      </g>
     </g>
     <g id="text_5">
      <!-- 800 -->
      <g transform="translate(1100.934223 601.462017)scale(0.1 -0.1)">
       <defs>
        <path d="M 2034 2216 
Q 1584 2216 1326 1975 
Q 1069 1734 1069 1313 
Q 1069 891 1326 650 
Q 1584 409 2034 409 
Q 2484 409 2743 651 
Q 3003 894 3003 1313 
Q 3003 1734 2745 1975 
Q 2488 2216 2034 2216 
z
M 1403 2484 
Q 997 2584 770 2862 
Q 544 3141 544 3541 
Q 544 4100 942 4425 
Q 1341 4750 2034 4750 
Q 2731 4750 3128 4425 
Q 3525 4100 3525 3541 
Q 3525 3141 3298 2862 
Q 3072 2584 2669 2484 
Q 3125 2378 3379 2068 
Q 3634 1759 3634 1313 
Q 3634 634 3220 271 
Q 2806 -91 2034 -91 
Q 1263 -91 848 271 
Q 434 634 434 1313 
Q 434 1759 690 2068 
Q 947 2378 1403 2484 
z
M 1172 3481 
Q 1172 3119 1398 2916 
Q 1625 2713 2034 2713 
Q 2441 2713 2670 2916 
Q 2900 3119 2900 3481 
Q 2900 3844 2670 4047 
Q 2441 4250 2034 4250 
Q 1625 4250 1398 4047 
Q 1172 3844 1172 3481 
z
" id="DejaVuSans-38" transform="scale(0.015625)"/>
       </defs>
       <use xlink:href="#DejaVuSans-38"/>
       <use x="63.623047" xlink:href="#DejaVuSans-30"/>
       <use x="127.246094" xlink:href="#DejaVuSans-30"/>
      </g>
     </g>
    </g>
    <g id="xtick_6">
     <g id="line2d_6">
      <g>
       <use style="stroke:#000000;stroke-width:0.8;" x="1358.129427" xlink:href="#m3a371ce4b4" y="586.86358"/>
      </g>
     </g>
     <g id="text_6">
      <!-- 1000 -->
      <g transform="translate(1345.404427 601.462017)scale(0.1 -0.1)">
       <defs>
        <path d="M 794 531 
L 1825 531 
L 1825 4091 
L 703 3866 
L 703 4441 
L 1819 4666 
L 2450 4666 
L 2450 531 
L 3481 531 
L 3481 0 
L 794 0 
L 794 531 
z
" id="DejaVuSans-31" transform="scale(0.015625)"/>
       </defs>
       <use xlink:href="#DejaVuSans-31"/>
       <use x="63.623047" xlink:href="#DejaVuSans-30"/>
       <use x="127.246094" xlink:href="#DejaVuSans-30"/>
       <use x="190.869141" xlink:href="#DejaVuSans-30"/>
      </g>
     </g>
    </g>
    <g id="xtick_7">
     <g id="line2d_7">
      <g>
       <use style="stroke:#000000;stroke-width:0.8;" x="1605.78088" xlink:href="#m3a371ce4b4" y="586.86358"/>
      </g>
     </g>
     <g id="text_7">
      <!-- 1200 -->
      <g transform="translate(1593.05588 601.462017)scale(0.1 -0.1)">
       <use xlink:href="#DejaVuSans-31"/>
       <use x="63.623047" xlink:href="#DejaVuSans-32"/>
       <use x="127.246094" xlink:href="#DejaVuSans-30"/>
       <use x="190.869141" xlink:href="#DejaVuSans-30"/>
      </g>
     </g>
    </g>
    <g id="text_8">
     <!-- frame -->
     <g transform="translate(865.954687 615.140142)scale(0.1 -0.1)">
      <defs>
       <path d="M 2375 4863 
L 2375 4384 
L 1825 4384 
Q 1516 4384 1395 4259 
Q 1275 4134 1275 3809 
L 1275 3500 
L 2222 3500 
L 2222 3053 
L 1275 3053 
L 1275 0 
L 697 0 
L 697 3053 
L 147 3053 
L 147 3500 
L 697 3500 
L 697 3744 
Q 697 4328 969 4595 
Q 1241 4863 1831 4863 
L 2375 4863 
z
" id="DejaVuSans-66" transform="scale(0.015625)"/>
       <path d="M 2631 2963 
Q 2534 3019 2420 3045 
Q 2306 3072 2169 3072 
Q 1681 3072 1420 2755 
Q 1159 2438 1159 1844 
L 1159 0 
L 581 0 
L 581 3500 
L 1159 3500 
L 1159 2956 
Q 1341 3275 1631 3429 
Q 1922 3584 2338 3584 
Q 2397 3584 2469 3576 
Q 2541 3569 2628 3553 
L 2631 2963 
z
" id="DejaVuSans-72" transform="scale(0.015625)"/>
       <path d="M 2194 1759 
Q 1497 1759 1228 1600 
Q 959 1441 959 1056 
Q 959 750 1161 570 
Q 1363 391 1709 391 
Q 2188 391 2477 730 
Q 2766 1069 2766 1631 
L 2766 1759 
L 2194 1759 
z
M 3341 1997 
L 3341 0 
L 2766 0 
L 2766 531 
Q 2569 213 2275 61 
Q 1981 -91 1556 -91 
Q 1019 -91 701 211 
Q 384 513 384 1019 
Q 384 1609 779 1909 
Q 1175 2209 1959 2209 
L 2766 2209 
L 2766 2266 
Q 2766 2663 2505 2880 
Q 2244 3097 1772 3097 
Q 1472 3097 1187 3025 
Q 903 2953 641 2809 
L 641 3341 
Q 956 3463 1253 3523 
Q 1550 3584 1831 3584 
Q 2591 3584 2966 3190 
Q 3341 2797 3341 1997 
z
" id="DejaVuSans-61" transform="scale(0.015625)"/>
       <path d="M 3328 2828 
Q 3544 3216 3844 3400 
Q 4144 3584 4550 3584 
Q 5097 3584 5394 3201 
Q 5691 2819 5691 2113 
L 5691 0 
L 5113 0 
L 5113 2094 
Q 5113 2597 4934 2840 
Q 4756 3084 4391 3084 
Q 3944 3084 3684 2787 
Q 3425 2491 3425 1978 
L 3425 0 
L 2847 0 
L 2847 2094 
Q 2847 2600 2669 2842 
Q 2491 3084 2119 3084 
Q 1678 3084 1418 2786 
Q 1159 2488 1159 1978 
L 1159 0 
L 581 0 
L 581 3500 
L 1159 3500 
L 1159 2956 
Q 1356 3278 1631 3431 
Q 1906 3584 2284 3584 
Q 2666 3584 2933 3390 
Q 3200 3197 3328 2828 
z
" id="DejaVuSans-6d" transform="scale(0.015625)"/>
       <path d="M 3597 1894 
L 3597 1613 
L 953 1613 
Q 991 1019 1311 708 
Q 1631 397 2203 397 
Q 2534 397 2845 478 
Q 3156 559 3463 722 
L 3463 178 
Q 3153 47 2828 -22 
Q 2503 -91 2169 -91 
Q 1331 -91 842 396 
Q 353 884 353 1716 
Q 353 2575 817 3079 
Q 1281 3584 2069 3584 
Q 2775 3584 3186 3129 
Q 3597 2675 3597 1894 
z
M 3022 2063 
Q 3016 2534 2758 2815 
Q 2500 3097 2075 3097 
Q 1594 3097 1305 2825 
Q 1016 2553 972 2059 
L 3022 2063 
z
" id="DejaVuSans-65" transform="scale(0.015625)"/>
      </defs>
      <use xlink:href="#DejaVuSans-66"/>
      <use x="35.205078" xlink:href="#DejaVuSans-72"/>
      <use x="76.318359" xlink:href="#DejaVuSans-61"/>
      <use x="137.597656" xlink:href="#DejaVuSans-6d"/>
      <use x="235.009766" xlink:href="#DejaVuSans-65"/>
     </g>
    </g>
   </g>
   <g id="matplotlib.axis_2">
    <g id="ytick_1">
     <g id="line2d_8">
      <defs>
       <path d="M 0 0 
L -3.5 0 
" id="md505402430" style="stroke:#000000;stroke-width:0.8;"/>
      </defs>
      <g>
       <use style="stroke:#000000;stroke-width:0.8;" x="43.78125" xlink:href="#md505402430" y="561.202423"/>
      </g>
     </g>
     <g id="text_9">
      <!-- 0 -->
      <g transform="translate(30.41875 565.001641)scale(0.1 -0.1)">
       <use xlink:href="#DejaVuSans-30"/>
      </g>
     </g>
    </g>
    <g id="ytick_2">
     <g id="line2d_9">
      <g>
       <use style="stroke:#000000;stroke-width:0.8;" x="43.78125" xlink:href="#md505402430" y="454.254854"/>
      </g>
     </g>
     <g id="text_10">
      <!-- 1 -->
      <g transform="translate(30.41875 458.054073)scale(0.1 -0.1)">
       <use xlink:href="#DejaVuSans-31"/>
      </g>
     </g>
    </g>
    <g id="ytick_3">
     <g id="line2d_10">
      <g>
       <use style="stroke:#000000;stroke-width:0.8;" x="43.78125" xlink:href="#md505402430" y="347.307285"/>
      </g>
     </g>
     <g id="text_11">
      <!-- 2 -->
      <g transform="translate(30.41875 351.106504)scale(0.1 -0.1)">
       <use xlink:href="#DejaVuSans-32"/>
      </g>
     </g>
    </g>
    <g id="ytick_4">
     <g id="line2d_11">
      <g>
       <use style="stroke:#000000;stroke-width:0.8;" x="43.78125" xlink:href="#md505402430" y="240.359716"/>
      </g>
     </g>
     <g id="text_12">
      <!-- 3 -->
      <g transform="translate(30.41875 244.158935)scale(0.1 -0.1)">
       <defs>
        <path d="M 2597 2516 
Q 3050 2419 3304 2112 
Q 3559 1806 3559 1356 
Q 3559 666 3084 287 
Q 2609 -91 1734 -91 
Q 1441 -91 1130 -33 
Q 819 25 488 141 
L 488 750 
Q 750 597 1062 519 
Q 1375 441 1716 441 
Q 2309 441 2620 675 
Q 2931 909 2931 1356 
Q 2931 1769 2642 2001 
Q 2353 2234 1838 2234 
L 1294 2234 
L 1294 2753 
L 1863 2753 
Q 2328 2753 2575 2939 
Q 2822 3125 2822 3475 
Q 2822 3834 2567 4026 
Q 2313 4219 1838 4219 
Q 1578 4219 1281 4162 
Q 984 4106 628 3988 
L 628 4550 
Q 988 4650 1302 4700 
Q 1616 4750 1894 4750 
Q 2613 4750 3031 4423 
Q 3450 4097 3450 3541 
Q 3450 3153 3228 2886 
Q 3006 2619 2597 2516 
z
" id="DejaVuSans-33" transform="scale(0.015625)"/>
       </defs>
       <use xlink:href="#DejaVuSans-33"/>
      </g>
     </g>
    </g>
    <g id="ytick_5">
     <g id="line2d_12">
      <g>
       <use style="stroke:#000000;stroke-width:0.8;" x="43.78125" xlink:href="#md505402430" y="133.412148"/>
      </g>
     </g>
     <g id="text_13">
      <!-- 4 -->
      <g transform="translate(30.41875 137.211366)scale(0.1 -0.1)">
       <use xlink:href="#DejaVuSans-34"/>
      </g>
     </g>
    </g>
    <g id="ytick_6">
     <g id="line2d_13">
      <g>
       <use style="stroke:#000000;stroke-width:0.8;" x="43.78125" xlink:href="#md505402430" y="26.464579"/>
      </g>
     </g>
     <g id="text_14">
      <!-- 5 -->
      <g transform="translate(30.41875 30.263798)scale(0.1 -0.1)">
       <defs>
        <path d="M 691 4666 
L 3169 4666 
L 3169 4134 
L 1269 4134 
L 1269 2991 
Q 1406 3038 1543 3061 
Q 1681 3084 1819 3084 
Q 2600 3084 3056 2656 
Q 3513 2228 3513 1497 
Q 3513 744 3044 326 
Q 2575 -91 1722 -91 
Q 1428 -91 1123 -41 
Q 819 9 494 109 
L 494 744 
Q 775 591 1075 516 
Q 1375 441 1709 441 
Q 2250 441 2565 725 
Q 2881 1009 2881 1497 
Q 2881 1984 2565 2268 
Q 2250 2553 1709 2553 
Q 1456 2553 1204 2497 
Q 953 2441 691 2322 
L 691 4666 
z
" id="DejaVuSans-35" transform="scale(0.015625)"/>
       </defs>
       <use xlink:href="#DejaVuSans-35"/>
      </g>
     </g>
    </g>
    <g id="text_15">
     <!-- GCaMP -->
     <g transform="translate(24.339062 322.349446)rotate(-90)scale(0.1 -0.1)">
      <defs>
       <path d="M 3809 666 
L 3809 1919 
L 2778 1919 
L 2778 2438 
L 4434 2438 
L 4434 434 
Q 4069 175 3628 42 
Q 3188 -91 2688 -91 
Q 1594 -91 976 548 
Q 359 1188 359 2328 
Q 359 3472 976 4111 
Q 1594 4750 2688 4750 
Q 3144 4750 3555 4637 
Q 3966 4525 4313 4306 
L 4313 3634 
Q 3963 3931 3569 4081 
Q 3175 4231 2741 4231 
Q 1884 4231 1454 3753 
Q 1025 3275 1025 2328 
Q 1025 1384 1454 906 
Q 1884 428 2741 428 
Q 3075 428 3337 486 
Q 3600 544 3809 666 
z
" id="DejaVuSans-47" transform="scale(0.015625)"/>
       <path d="M 4122 4306 
L 4122 3641 
Q 3803 3938 3442 4084 
Q 3081 4231 2675 4231 
Q 1875 4231 1450 3742 
Q 1025 3253 1025 2328 
Q 1025 1406 1450 917 
Q 1875 428 2675 428 
Q 3081 428 3442 575 
Q 3803 722 4122 1019 
L 4122 359 
Q 3791 134 3420 21 
Q 3050 -91 2638 -91 
Q 1578 -91 968 557 
Q 359 1206 359 2328 
Q 359 3453 968 4101 
Q 1578 4750 2638 4750 
Q 3056 4750 3426 4639 
Q 3797 4528 4122 4306 
z
" id="DejaVuSans-43" transform="scale(0.015625)"/>
       <path d="M 628 4666 
L 1569 4666 
L 2759 1491 
L 3956 4666 
L 4897 4666 
L 4897 0 
L 4281 0 
L 4281 4097 
L 3078 897 
L 2444 897 
L 1241 4097 
L 1241 0 
L 628 0 
L 628 4666 
z
" id="DejaVuSans-4d" transform="scale(0.015625)"/>
       <path d="M 1259 4147 
L 1259 2394 
L 2053 2394 
Q 2494 2394 2734 2622 
Q 2975 2850 2975 3272 
Q 2975 3691 2734 3919 
Q 2494 4147 2053 4147 
L 1259 4147 
z
M 628 4666 
L 2053 4666 
Q 2838 4666 3239 4311 
Q 3641 3956 3641 3272 
Q 3641 2581 3239 2228 
Q 2838 1875 2053 1875 
L 1259 1875 
L 1259 0 
L 628 0 
L 628 4666 
z
" id="DejaVuSans-50" transform="scale(0.015625)"/>
      </defs>
      <use xlink:href="#DejaVuSans-47"/>
      <use x="77.490234" xlink:href="#DejaVuSans-43"/>
      <use x="147.314453" xlink:href="#DejaVuSans-61"/>
      <use x="208.59375" xlink:href="#DejaVuSans-4d"/>
      <use x="294.873047" xlink:href="#DejaVuSans-50"/>
     </g>
    </g>
   </g>
   <g id="line2d_14">
    <path clip-path="url(#pa2e0c019f0)" d="M 119.872159 47.979282 
L 121.110416 58.579118 
L 122.348674 67.548572 
L 123.586931 73.854388 
L 124.825188 77.281358 
L 126.063445 78.34251 
L 127.301703 78.272107 
L 128.53996 79.025749 
L 129.778217 82.092381 
L 131.016474 87.25051 
L 133.492989 99.106529 
L 134.731246 104.042246 
L 139.684275 120.741994 
L 140.922533 124.228837 
L 142.16079 126.566076 
L 143.399047 128.62869 
L 144.637304 131.880491 
L 145.875562 136.948533 
L 148.352076 149.391694 
L 149.590334 154.692271 
L 150.828591 158.825745 
L 152.066848 161.765742 
L 153.305105 163.430611 
L 154.543363 163.806475 
L 155.78162 163.386353 
L 157.019877 163.242674 
L 158.258134 164.340528 
L 159.496392 167.102215 
L 160.734649 171.584611 
L 163.211163 182.763399 
L 164.449421 186.666903 
L 165.687678 188.539625 
L 166.925935 189.231681 
L 168.164193 190.205961 
L 169.40245 192.324349 
L 170.640707 195.0885 
L 171.878964 197.331191 
L 173.117222 198.479161 
L 174.355479 198.859472 
L 175.593736 199.395404 
L 176.831993 201.274343 
L 178.070251 204.930249 
L 179.308508 208.976475 
L 180.546765 210.883844 
L 181.785022 208.940759 
L 184.261537 198.940676 
L 185.499794 197.956863 
L 186.738052 201.954009 
L 189.214566 214.901065 
L 190.452823 218.886129 
L 191.691081 220.523708 
L 192.929338 220.23842 
L 194.167595 218.525047 
L 195.405852 216.383965 
L 196.64411 215.381849 
L 197.882367 216.924386 
L 199.120624 221.01208 
L 200.358881 225.804706 
L 201.597139 229.149886 
L 202.835396 230.450079 
L 204.073653 230.784271 
L 205.311911 231.679027 
L 206.550168 234.136512 
L 207.788425 238.293516 
L 210.26494 247.966351 
L 211.503197 251.038956 
L 212.741454 252.236911 
L 213.979711 252.154983 
L 215.217969 251.837096 
L 216.456226 252.188012 
L 217.694483 253.599779 
L 218.93274 255.951719 
L 221.409255 262.122365 
L 222.647512 264.493659 
L 223.88577 265.178012 
L 225.124027 264.050398 
L 226.362284 261.746306 
L 228.838799 256.629055 
L 230.077056 254.613248 
L 231.315313 253.311218 
L 232.55357 253.152307 
L 233.791828 254.380004 
L 236.268342 258.513086 
L 237.5066 259.415467 
L 238.744857 259.193784 
L 242.459629 256.936939 
L 244.936143 255.505494 
L 246.1744 254.379386 
L 248.650915 251.286868 
L 249.889172 251.174492 
L 251.127429 253.631707 
L 252.365687 258.701336 
L 253.603944 264.832472 
L 254.842201 269.60786 
L 256.080459 271.745564 
L 257.318716 272.191246 
L 258.556973 272.367285 
L 259.79523 272.231357 
L 261.033488 271.095803 
L 262.271745 269.216722 
L 263.510002 267.546108 
L 264.748259 266.630656 
L 265.986517 266.382698 
L 267.224774 266.66992 
L 268.463031 267.708797 
L 269.701288 269.63497 
L 270.939546 271.973793 
L 272.177803 273.95616 
L 273.41606 275.176383 
L 274.654318 275.737701 
L 275.892575 276.084224 
L 277.130832 276.771948 
L 278.369089 278.058518 
L 279.607347 279.803165 
L 280.845604 281.916542 
L 282.083861 284.55757 
L 284.560376 290.486786 
L 285.798633 291.998165 
L 287.03689 291.677753 
L 288.275147 290.022387 
L 290.751662 286.109733 
L 293.228177 282.645865 
L 294.466434 281.283356 
L 295.704691 280.360667 
L 296.942948 280.114497 
L 298.181206 281.035432 
L 299.419463 283.38546 
L 301.895977 289.901353 
L 303.134235 292.499867 
L 304.372492 561.202423 
L 330.375895 561.202423 
L 331.614152 288.330604 
L 332.852409 284.873389 
L 334.090666 280.546157 
L 336.567181 269.602088 
L 337.805438 265.682348 
L 339.043695 264.503284 
L 340.281953 265.719996 
L 341.52021 268.640872 
L 343.996725 276.422045 
L 345.234982 279.327999 
L 346.473239 280.898602 
L 347.711496 280.786025 
L 348.949754 278.867871 
L 351.426268 272.877792 
L 352.664525 271.218074 
L 353.902783 270.827709 
L 355.14104 270.942923 
L 356.379297 270.903631 
L 357.617554 270.368888 
L 358.855812 269.006299 
L 360.094069 266.625062 
L 361.332326 263.649031 
L 362.570584 261.064384 
L 363.808841 259.708758 
L 365.047098 259.714012 
L 366.285355 260.657094 
L 368.76187 263.575174 
L 370.000127 265.13695 
L 371.238384 266.371522 
L 372.476642 266.872176 
L 374.953156 266.531862 
L 376.191413 267.09949 
L 377.429671 268.888888 
L 379.906185 273.829654 
L 381.144443 275.434323 
L 382.3827 276.379528 
L 383.620957 276.606423 
L 384.859214 275.719405 
L 386.097472 273.686368 
L 388.573986 268.583171 
L 389.812243 266.284182 
L 391.050501 263.583335 
L 393.527015 256.293621 
L 394.765272 252.7966 
L 396.00353 249.778082 
L 397.241787 247.249309 
L 398.480044 245.636827 
L 399.718302 245.72387 
L 400.956559 247.990995 
L 402.194816 252.00538 
L 403.433073 256.416119 
L 404.671331 259.770817 
L 405.909588 261.535226 
L 407.147845 262.23492 
L 408.386102 262.690959 
L 410.862617 263.989985 
L 412.100874 264.687374 
L 413.339132 265.684224 
L 414.577389 267.35033 
L 417.053903 271.739567 
L 418.292161 273.377367 
L 419.530418 274.531661 
L 420.768675 275.485236 
L 422.006932 275.846839 
L 423.24519 275.061771 
L 424.483447 273.642861 
L 425.721704 272.796849 
L 426.959961 273.295695 
L 428.198219 275.062515 
L 429.436476 277.275826 
L 430.674733 279.045646 
L 431.912991 280.154878 
L 435.627762 282.382195 
L 436.86602 283.711329 
L 438.104277 285.442779 
L 439.342534 286.877834 
L 440.580791 287.346904 
L 441.819049 286.962591 
L 443.057306 286.384441 
L 445.53382 285.66963 
L 446.772078 285.929099 
L 448.010335 287.717825 
L 449.248592 291.1951 
L 450.48685 295.268424 
L 451.725107 298.378833 
L 452.963364 299.426813 
L 454.201621 298.31018 
L 455.439879 295.657574 
L 456.678136 292.07967 
L 459.15465 284.091398 
L 460.392908 281.130626 
L 461.631165 279.577336 
L 462.869422 279.763257 
L 464.107679 282.21493 
L 465.345937 287.043376 
L 467.822451 299.304707 
L 469.060709 303.767247 
L 470.298966 305.576556 
L 471.537223 304.327255 
L 472.77548 300.65028 
L 474.013738 295.822685 
L 475.251995 291.458316 
L 476.490252 289.275384 
L 477.728509 290.284968 
L 478.966767 293.97971 
L 480.205024 298.462729 
L 481.443281 301.635795 
L 482.681538 302.445332 
L 483.919796 301.086856 
L 485.158053 298.355394 
L 487.634568 292.051265 
L 488.872825 289.999786 
L 490.111082 289.471388 
L 491.349339 290.322971 
L 492.587597 291.645494 
L 493.825854 292.433959 
L 495.064111 292.431911 
L 496.302368 292.266814 
L 497.540626 292.813318 
L 498.778883 294.516954 
L 500.01714 297.27394 
L 502.493655 304.12048 
L 503.731912 306.366455 
L 504.970169 306.548108 
L 506.208427 304.845644 
L 508.684941 299.2524 
L 511.161456 293.553333 
L 512.399713 290.929127 
L 513.63797 288.880211 
L 514.876227 287.661344 
L 516.114485 287.105708 
L 518.590999 286.596609 
L 519.829257 286.170185 
L 522.305771 284.739745 
L 523.544028 284.49726 
L 524.782286 285.287758 
L 526.020543 287.141998 
L 527.2588 289.317407 
L 528.497057 290.916009 
L 529.735315 291.611375 
L 530.973572 291.325516 
L 532.211829 289.924707 
L 533.450086 287.899408 
L 534.688344 286.445488 
L 535.926601 286.3852 
L 537.164858 287.484329 
L 538.403116 288.756792 
L 539.641373 289.052935 
L 540.87963 287.471568 
L 542.117887 283.72954 
L 544.594402 273.174491 
L 545.832659 269.084546 
L 548.309174 263.625565 
L 549.547431 260.232531 
L 552.023945 251.870238 
L 553.262203 248.772259 
L 554.50046 248.057465 
L 555.738717 250.53975 
L 556.976975 255.51812 
L 558.215232 261.17286 
L 559.453489 266.039823 
L 560.691746 269.679414 
L 561.930004 272.144131 
L 564.406518 275.160235 
L 565.644775 277.455862 
L 568.12129 283.257531 
L 569.359547 284.72889 
L 570.597804 284.452154 
L 571.836062 282.390494 
L 573.074319 278.897076 
L 574.312576 274.909327 
L 575.550834 271.971956 
L 576.789091 271.805458 
L 578.027348 275.316334 
L 580.503863 287.849274 
L 581.74212 291.147079 
L 582.980377 290.109455 
L 584.218634 285.846368 
L 585.456892 280.835177 
L 586.695149 277.028355 
L 587.933406 274.794283 
L 590.409921 271.687113 
L 591.648178 269.531559 
L 592.886435 266.848728 
L 595.36295 261.088978 
L 596.601207 259.313189 
L 597.839464 258.827474 
L 599.077722 259.353481 
L 600.315979 260.545925 
L 602.792493 263.536091 
L 604.030751 264.35962 
L 605.269008 264.10787 
L 606.507265 262.102921 
L 607.745523 258.008843 
L 610.222037 247.047863 
L 611.460294 242.787151 
L 612.698552 240.850412 
L 613.936809 241.65627 
L 615.175066 244.843609 
L 618.889838 259.203213 
L 620.128095 262.320536 
L 621.366352 263.836329 
L 622.60461 264.262515 
L 623.842867 264.563812 
L 625.081124 265.764218 
L 626.319382 268.233585 
L 627.557639 271.225439 
L 628.795896 561.202423 
L 639.940211 561.202423 
L 641.178469 277.124303 
L 642.416726 276.417696 
L 643.654983 274.658739 
L 644.893241 271.817758 
L 646.131498 268.529605 
L 647.369755 266.157624 
L 648.608012 265.844091 
L 649.84627 267.448589 
L 651.084527 269.849438 
L 652.322784 272.005499 
L 653.561041 273.445898 
L 654.799299 274.145856 
L 656.037556 274.266044 
L 657.275813 274.024377 
L 658.51407 273.896678 
L 659.752328 274.661853 
L 660.990585 276.77846 
L 662.228842 279.730854 
L 663.4671 282.156746 
L 664.705357 282.909875 
L 665.943614 282.0722 
L 667.181871 280.646064 
L 668.420129 279.510035 
L 669.658386 278.999604 
L 670.896643 279.069631 
L 672.1349 279.331091 
L 673.373158 279.054049 
L 674.611415 277.489004 
L 675.849672 274.496196 
L 677.087929 271.020589 
L 678.326187 268.352125 
L 679.564444 266.825935 
L 680.802701 266.072264 
L 682.040959 266.211451 
L 683.279216 267.88085 
L 684.517473 271.143486 
L 685.75573 274.957296 
L 686.993988 277.792837 
L 688.232245 278.230146 
L 689.470502 275.241601 
L 690.708759 268.904176 
L 691.947017 260.998955 
L 693.185274 254.261856 
L 694.423531 250.654547 
L 695.661789 250.426427 
L 696.900046 252.475369 
L 698.138303 255.126193 
L 699.37656 256.993331 
L 700.614818 257.775458 
L 703.091332 258.434996 
L 704.329589 258.353198 
L 705.567847 257.187473 
L 706.806104 254.473025 
L 708.044361 250.056807 
L 710.520876 238.942033 
L 711.759133 234.801453 
L 712.99739 232.925227 
L 714.235648 233.847562 
L 715.473905 237.611465 
L 716.712162 243.481683 
L 719.188677 256.619124 
L 720.426934 262.562218 
L 721.665191 267.423659 
L 722.903448 270.237221 
L 724.141706 270.713093 
L 725.379963 269.580529 
L 726.61822 268.033123 
L 727.856477 267.196859 
L 729.094735 267.406003 
L 730.332992 267.962323 
L 731.571249 268.081772 
L 732.809507 268.00672 
L 734.047764 268.873715 
L 735.286021 271.376434 
L 737.762536 278.573354 
L 739.000793 281.079464 
L 740.23905 281.865995 
L 741.477307 281.114103 
L 743.953822 278.372273 
L 746.430336 276.649017 
L 747.668594 275.51089 
L 750.145108 272.763789 
L 755.098137 266.87504 
L 756.336395 266.152376 
L 758.812909 265.49035 
L 760.051166 264.41766 
L 761.289424 262.065281 
L 763.765938 255.135 
L 765.004195 252.852475 
L 766.242453 252.016382 
L 767.48071 252.24366 
L 768.718967 252.735748 
L 769.957225 252.536281 
L 772.433739 250.312911 
L 773.671996 250.513529 
L 774.910254 252.167927 
L 776.148511 254.489186 
L 777.386768 256.538522 
L 778.625025 257.695484 
L 779.863283 257.882367 
L 781.10154 257.278388 
L 782.339797 255.967957 
L 783.578054 254.273874 
L 784.816312 252.863974 
L 786.054569 252.253902 
L 787.292826 252.798779 
L 788.531084 254.8642 
L 789.769341 258.397504 
L 791.007598 262.589099 
L 792.245855 266.297138 
L 793.484113 268.932778 
L 794.72237 270.73279 
L 795.960627 271.897336 
L 797.198884 271.97639 
L 798.437142 270.557749 
L 800.913656 265.82222 
L 802.151914 265.015769 
L 803.390171 266.310765 
L 804.628428 269.787684 
L 805.866685 275.245898 
L 809.581457 295.490188 
L 810.819714 300.240613 
L 812.057972 302.501529 
L 813.296229 302.047338 
L 815.772743 297.939044 
L 817.011001 296.600155 
L 818.249258 295.615909 
L 819.487515 294.060422 
L 820.725773 291.181991 
L 823.202287 283.048233 
L 824.440544 279.6106 
L 825.678802 277.386891 
L 826.917059 276.669788 
L 828.155316 277.214894 
L 829.393573 278.541569 
L 830.631831 280.684182 
L 831.870088 283.892878 
L 833.108345 287.701916 
L 834.346602 291.061793 
L 835.58486 293.402353 
L 839.299632 298.182879 
L 840.537889 300.499342 
L 843.014403 306.231231 
L 844.252661 308.347392 
L 845.490918 309.232354 
L 847.967432 309.344786 
L 849.20569 310.232627 
L 850.443947 311.536406 
L 851.682204 312.203164 
L 852.920461 311.599074 
L 854.158719 309.824787 
L 855.396976 307.089236 
L 856.635233 303.482848 
L 860.350005 290.705771 
L 862.82652 281.975108 
L 864.064777 278.614401 
L 865.303034 276.459238 
L 866.541291 275.877277 
L 867.779549 276.97334 
L 869.017806 279.019371 
L 870.256063 280.643661 
L 871.49432 280.658599 
L 872.732578 278.631527 
L 873.970835 274.763482 
L 875.209092 269.395958 
L 876.44735 262.729599 
L 878.923864 247.410228 
L 880.162121 240.692443 
L 881.400379 235.487526 
L 882.638636 231.808768 
L 883.876893 229.694798 
L 885.11515 229.498564 
L 886.353408 231.907447 
L 887.591665 237.517028 
L 888.829922 245.818761 
L 890.06818 254.974149 
L 891.306437 263.04281 
L 892.544694 269.158294 
L 895.021209 277.979971 
L 897.497723 287.003248 
L 898.73598 290.653333 
L 899.974238 292.58572 
L 901.212495 292.380283 
L 902.450752 290.409207 
L 903.689009 287.680228 
L 904.927267 285.349213 
L 906.165524 284.265253 
L 907.403781 284.587366 
L 909.880296 287.189579 
L 911.118553 287.875686 
L 912.35681 287.447126 
L 913.595068 286.166626 
L 914.833325 284.699931 
L 916.071582 283.529576 
L 917.309839 282.856521 
L 918.548097 282.677242 
L 919.786354 282.622784 
L 921.024611 282.257773 
L 922.262868 281.545422 
L 924.739383 279.637071 
L 928.454155 276.597989 
L 929.692412 276.117948 
L 930.930669 276.423427 
L 932.168927 276.953132 
L 933.407184 276.708441 
L 935.883698 274.689466 
L 937.121956 274.447525 
L 938.360213 274.90601 
L 939.59847 275.625391 
L 940.836727 276.10693 
L 943.313242 276.54055 
L 944.551499 277.008773 
L 945.789757 277.266505 
L 947.028014 276.747622 
L 948.266271 275.344823 
L 949.504528 273.505199 
L 950.742786 271.870164 
L 951.981043 270.873596 
L 953.2193 270.501792 
L 954.457557 270.329068 
L 955.695815 269.902652 
L 960.648844 266.935944 
L 961.887101 265.546836 
L 963.125358 263.785287 
L 964.363616 262.334101 
L 965.601873 261.548344 
L 969.316645 260.143617 
L 970.554902 259.590515 
L 971.793159 258.556686 
L 973.031416 256.723929 
L 976.746188 249.50649 
L 977.984446 246.206723 
L 980.46096 238.093496 
L 981.699217 236.314046 
L 982.937475 238.261736 
L 984.175732 244.253357 
L 986.652246 261.591872 
L 987.890504 267.624162 
L 989.128761 269.998111 
L 990.367018 269.040809 
L 991.605275 265.655599 
L 994.08179 257.036481 
L 995.320047 254.556078 
L 996.558305 254.080298 
L 997.796562 255.137733 
L 999.034819 256.986824 
L 1001.511334 261.384075 
L 1002.749591 263.932801 
L 1005.226105 269.921844 
L 1006.464363 273.310979 
L 1007.70262 277.362624 
L 1010.179134 286.221053 
L 1011.417392 561.202423 
L 1016.370421 561.202423 
L 1017.608678 272.943287 
L 1018.846935 268.614698 
L 1020.085193 561.202423 
L 1021.32345 561.202423 
L 1022.561707 269.970238 
L 1023.799964 561.202423 
L 1025.038222 270.567297 
L 1026.276479 268.565419 
L 1027.514736 265.226525 
L 1029.991251 256.108172 
L 1031.229508 561.202423 
L 1032.467765 253.58576 
L 1033.706023 257.610891 
L 1036.182537 270.546362 
L 1037.420794 275.195563 
L 1038.659052 276.745126 
L 1039.897309 561.202423 
L 1041.135566 270.742879 
L 1044.850338 253.639222 
L 1046.088595 250.223736 
L 1047.326852 248.77902 
L 1048.56511 561.202423 
L 1049.803367 250.068053 
L 1051.041624 251.099002 
L 1052.279882 251.261108 
L 1053.518139 250.169006 
L 1054.756396 247.792588 
L 1055.994653 244.708075 
L 1057.232911 241.997466 
L 1058.471168 561.202423 
L 1084.474571 561.202423 
L 1085.712828 241.564185 
L 1088.189342 243.392521 
L 1089.4276 244.08775 
L 1090.665857 244.183853 
L 1091.904114 243.338745 
L 1094.380629 239.747005 
L 1095.618886 238.83459 
L 1096.857143 239.60562 
L 1098.0954 242.214666 
L 1099.333658 246.481116 
L 1101.810172 256.438523 
L 1103.04843 259.635406 
L 1104.286687 260.912975 
L 1105.524944 260.553706 
L 1106.763201 258.932536 
L 1108.001459 256.349798 
L 1110.477973 250.47757 
L 1111.71623 248.716182 
L 1112.954488 248.30602 
L 1114.192745 248.964269 
L 1115.431002 249.771035 
L 1116.669259 249.453172 
L 1117.907517 247.239153 
L 1119.145774 243.481392 
L 1120.384031 239.292232 
L 1121.622289 235.731912 
L 1122.860546 233.424075 
L 1124.098803 232.523787 
L 1125.33706 232.710857 
L 1126.575318 233.638425 
L 1127.813575 235.610852 
L 1129.051832 239.224759 
L 1131.528347 249.060285 
L 1132.766604 252.194763 
L 1134.004861 253.45787 
L 1136.481376 254.553313 
L 1137.719633 254.874242 
L 1138.95789 254.571586 
L 1140.196148 253.885851 
L 1141.434405 253.030002 
L 1142.672662 251.542469 
L 1145.149177 246.967885 
L 1146.387434 245.926965 
L 1147.625691 246.206427 
L 1148.863948 247.223736 
L 1150.102206 248.685679 
L 1151.340463 250.427459 
L 1152.57872 251.725761 
L 1153.816977 251.72556 
L 1155.055235 250.393387 
L 1156.293492 248.581666 
L 1157.531749 247.137408 
L 1158.770007 246.29206 
L 1160.008264 246.000777 
L 1161.246521 246.247977 
L 1162.484778 246.614189 
L 1163.723036 245.997115 
L 1164.961293 243.535992 
L 1166.19955 239.595527 
L 1168.676065 230.497649 
L 1172.390837 216.027154 
L 1173.629094 212.232983 
L 1174.867351 209.833147 
L 1176.105608 209.184997 
L 1177.343866 209.973823 
L 1178.582123 211.10997 
L 1179.82038 211.604449 
L 1181.058637 211.037887 
L 1182.296895 208.963567 
L 1183.535152 204.887775 
L 1186.011666 194.287611 
L 1187.249924 191.825008 
L 1188.488181 193.287769 
L 1189.726438 198.627315 
L 1193.44121 221.964815 
L 1194.679467 225.729408 
L 1195.917725 225.723687 
L 1197.155982 222.756313 
L 1198.394239 218.583383 
L 1199.632496 215.057858 
L 1200.870754 213.239521 
L 1202.109011 212.967051 
L 1204.585525 213.729946 
L 1205.823783 214.50698 
L 1207.06204 216.001222 
L 1208.300297 217.85619 
L 1209.538555 219.319098 
L 1210.776812 219.969995 
L 1212.015069 219.765806 
L 1213.253326 218.774055 
L 1215.729841 215.955047 
L 1216.968098 215.20099 
L 1218.206355 215.103719 
L 1219.444613 215.454062 
L 1223.159384 217.219023 
L 1225.635899 218.72778 
L 1226.874156 219.094061 
L 1228.112414 218.937304 
L 1229.350671 218.312348 
L 1230.588928 217.433605 
L 1231.827185 217.065389 
L 1233.065443 218.306255 
L 1234.3037 221.551405 
L 1236.780214 230.139153 
L 1238.018472 232.760937 
L 1239.256729 233.501231 
L 1241.733243 232.908223 
L 1242.971501 232.980378 
L 1244.209758 232.586885 
L 1245.448015 231.11923 
L 1247.92453 226.56765 
L 1249.162787 224.990025 
L 1250.401044 224.471431 
L 1251.639302 224.888946 
L 1252.877559 225.588307 
L 1255.354073 226.456302 
L 1256.592331 226.698877 
L 1257.830588 226.118527 
L 1259.068845 224.227449 
L 1261.54536 218.384176 
L 1262.783617 215.330725 
L 1264.021874 211.545853 
L 1266.498389 201.521477 
L 1267.736646 197.644827 
L 1268.974903 196.440788 
L 1270.213161 197.938956 
L 1272.689675 203.674333 
L 1273.927932 205.79315 
L 1275.16619 207.097403 
L 1276.404447 207.676013 
L 1277.642704 207.702585 
L 1278.880962 207.512827 
L 1280.119219 207.474381 
L 1281.357476 207.780273 
L 1283.833991 208.714973 
L 1285.072248 208.793761 
L 1287.548762 208.58132 
L 1288.78702 208.748714 
L 1290.025277 209.055118 
L 1291.263534 209.186368 
L 1292.501791 208.8719 
L 1293.740049 208.110452 
L 1294.978306 207.017233 
L 1296.216563 205.522147 
L 1298.693078 201.982644 
L 1299.931335 200.699947 
L 1301.169592 199.191203 
L 1303.646107 194.9147 
L 1304.884364 194.603609 
L 1306.122621 195.928822 
L 1307.360879 197.638888 
L 1308.599136 199.040783 
L 1309.837393 200.090581 
L 1313.552165 202.451577 
L 1314.790422 203.53656 
L 1316.02868 204.383694 
L 1317.266937 204.585376 
L 1318.505194 203.73258 
L 1319.743451 201.565806 
L 1320.981709 198.384573 
L 1322.219966 194.576179 
L 1323.458223 189.987929 
L 1325.934738 179.393461 
L 1327.172995 175.781273 
L 1328.411252 174.758941 
L 1329.649509 176.569947 
L 1330.887767 180.571791 
L 1333.364281 190.206411 
L 1334.602539 194.156542 
L 1335.840796 196.099839 
L 1337.079053 194.816756 
L 1338.31731 190.657862 
L 1339.555568 185.736291 
L 1340.793825 182.103545 
L 1342.032082 180.32998 
L 1343.270339 180.172223 
L 1344.508597 181.433888 
L 1346.985111 185.67777 
L 1348.223368 186.530467 
L 1349.461626 185.51761 
L 1350.699883 182.539682 
L 1353.176398 174.341451 
L 1354.414655 172.312157 
L 1355.652912 173.123282 
L 1356.891169 176.525391 
L 1358.129427 180.997003 
L 1359.367684 184.491933 
L 1360.605941 185.940719 
L 1361.844198 185.918262 
L 1364.320713 185.377182 
L 1365.55897 184.74207 
L 1366.797228 183.438144 
L 1368.035485 181.846384 
L 1369.273742 180.622997 
L 1372.988514 178.366157 
L 1374.226771 177.952678 
L 1375.465028 178.150683 
L 1376.703286 178.502594 
L 1377.941543 178.550454 
L 1379.1798 178.177681 
L 1380.418057 177.444926 
L 1384.132829 174.452961 
L 1386.609344 172.949647 
L 1387.847601 172.070085 
L 1389.085858 171.689194 
L 1390.324116 172.509552 
L 1391.562373 174.465468 
L 1392.80063 176.658662 
L 1394.038887 177.753056 
L 1395.277145 176.839919 
L 1396.515402 174.091685 
L 1398.991916 166.735455 
L 1400.230174 163.676698 
L 1401.468431 160.925964 
L 1403.944946 154.495386 
L 1405.183203 152.791649 
L 1406.42146 154.118272 
L 1407.659717 158.343668 
L 1410.136232 169.69257 
L 1411.374489 173.889089 
L 1412.612746 175.883105 
L 1413.851004 175.553086 
L 1415.089261 173.540236 
L 1417.565775 168.354355 
L 1418.804033 166.153183 
L 1420.04229 164.8582 
L 1421.280547 165.486966 
L 1422.518805 168.26069 
L 1423.757062 171.725711 
L 1424.995319 173.891343 
L 1426.233576 173.948548 
L 1427.471834 172.590471 
L 1428.710091 171.024234 
L 1429.948348 170.14759 
L 1431.186605 170.460103 
L 1432.424863 171.81294 
L 1433.66312 173.402771 
L 1436.139634 175.978918 
L 1437.377892 177.558789 
L 1438.616149 179.425767 
L 1439.854406 180.989016 
L 1441.092664 181.321182 
L 1442.330921 179.84359 
L 1443.569178 176.724129 
L 1444.807435 172.551875 
L 1446.045693 167.812935 
L 1448.522207 156.913302 
L 1450.998722 145.69332 
L 1452.236979 140.823899 
L 1453.475236 137.043586 
L 1454.713494 135.468596 
L 1455.951751 137.054939 
L 1457.190008 141.736649 
L 1459.666523 154.13982 
L 1460.90478 158.796902 
L 1462.143037 162.245026 
L 1463.381294 164.968606 
L 1465.857809 169.48306 
L 1467.096066 171.483413 
L 1468.334323 172.662054 
L 1469.572581 172.304348 
L 1470.810838 170.348792 
L 1474.52561 161.747418 
L 1477.002124 155.093219 
L 1478.240382 152.374453 
L 1479.478639 150.871889 
L 1481.955153 149.852255 
L 1483.193411 148.712904 
L 1484.431668 147.205326 
L 1485.669925 146.456887 
L 1486.908182 147.165682 
L 1488.14644 148.920704 
L 1489.384697 150.434567 
L 1490.622954 150.453518 
L 1491.861212 148.914917 
L 1493.099469 146.933739 
L 1494.337726 145.465873 
L 1495.575983 144.641585 
L 1496.814241 144.313898 
L 1498.052498 144.23208 
L 1499.290755 143.906919 
L 1500.529012 143.223347 
L 1501.76727 142.697436 
L 1503.005527 142.873428 
L 1504.243784 143.954684 
L 1505.482041 145.507666 
L 1506.720299 146.347818 
L 1507.958556 145.348302 
L 1509.196813 142.299658 
L 1510.435071 137.777947 
L 1512.911585 127.128243 
L 1514.149842 122.747784 
L 1515.3881 120.071262 
L 1516.626357 118.756178 
L 1520.341129 116.126037 
L 1521.579386 115.697183 
L 1522.817643 116.143821 
L 1524.0559 118.073384 
L 1525.294158 121.443991 
L 1526.532415 125.203191 
L 1527.770672 127.771433 
L 1529.00893 127.899557 
L 1530.247187 125.880288 
L 1531.485444 124.104656 
L 1532.723701 125.418377 
L 1533.961959 130.227717 
L 1535.200216 136.02049 
L 1536.438473 140.099401 
L 1537.67673 141.624096 
L 1538.914988 141.347722 
L 1540.153245 140.625894 
L 1541.391502 140.343614 
L 1542.62976 140.527962 
L 1543.868017 141.109933 
L 1546.344531 143.457978 
L 1547.582789 143.801664 
L 1548.821046 142.660059 
L 1551.29756 137.760723 
L 1552.535818 137.09984 
L 1553.774075 139.563014 
L 1556.250589 148.992137 
L 1557.488847 153.004396 
L 1558.727104 156.146615 
L 1559.965361 158.413514 
L 1561.203619 160.117267 
L 1562.441876 161.562047 
L 1563.680133 162.414658 
L 1564.91839 162.043986 
L 1566.156648 160.20216 
L 1567.394905 156.945519 
L 1568.633162 152.189473 
L 1571.109677 140.462717 
L 1572.347934 137.032825 
L 1573.586191 137.035464 
L 1574.824448 139.751011 
L 1576.062706 143.143441 
L 1577.300963 145.269118 
L 1578.53922 145.434453 
L 1579.777478 144.051659 
L 1583.492249 137.483641 
L 1584.730507 136.05255 
L 1585.968764 134.81013 
L 1587.207021 133.982801 
L 1588.445278 134.221691 
L 1589.683536 135.868637 
L 1590.921793 138.1793 
L 1592.16005 139.563934 
L 1593.398307 139.149345 
L 1594.636565 137.548091 
L 1595.874822 136.174605 
L 1597.113079 136.442736 
L 1598.351337 139.271968 
L 1599.589594 144.705002 
L 1602.066108 157.918151 
L 1603.304366 161.834063 
L 1604.542623 162.824356 
L 1605.78088 161.609441 
L 1607.019137 159.092437 
L 1608.257395 155.457305 
L 1610.733909 146.09526 
L 1611.972166 143.642443 
L 1613.210424 144.891568 
L 1614.448681 149.126711 
L 1615.686938 154.210788 
L 1616.925196 158.618172 
L 1618.163453 161.683729 
L 1619.40171 162.782974 
L 1620.639967 161.404937 
L 1621.878225 157.626063 
L 1623.116482 152.214672 
L 1625.592996 140.725097 
L 1626.831254 136.267934 
L 1628.069511 133.714615 
L 1629.307768 133.874325 
L 1630.546026 136.791844 
L 1634.260797 150.474571 
L 1635.499055 154.306217 
L 1636.737312 157.477046 
L 1637.975569 158.537753 
L 1639.213826 155.601718 
L 1640.452084 148.06145 
L 1641.690341 137.465564 
L 1641.690341 137.465564 
" style="fill:none;stroke:#008000;stroke-linecap:square;stroke-width:1.5;"/>
   </g>
   <g id="patch_3">
    <path d="M 43.78125 586.86358 
L 43.78125 22.318125 
" style="fill:none;stroke:#000000;stroke-linecap:square;stroke-linejoin:miter;stroke-width:0.8;"/>
   </g>
   <g id="patch_4">
    <path d="M 1717.78125 586.86358 
L 1717.78125 22.318125 
" style="fill:none;stroke:#000000;stroke-linecap:square;stroke-linejoin:miter;stroke-width:0.8;"/>
   </g>
   <g id="patch_5">
    <path d="M 43.78125 586.86358 
L 1717.78125 586.86358 
" style="fill:none;stroke:#000000;stroke-linecap:square;stroke-linejoin:miter;stroke-width:0.8;"/>
   </g>
   <g id="patch_6">
    <path d="M 43.78125 22.318125 
L 1717.78125 22.318125 
" style="fill:none;stroke:#000000;stroke-linecap:square;stroke-linejoin:miter;stroke-width:0.8;"/>
   </g>
   <g id="text_16">
    <!-- before binarisation -->
    <g transform="translate(824.1825 16.318125)scale(0.12 -0.12)">
     <defs>
      <path d="M 3116 1747 
Q 3116 2381 2855 2742 
Q 2594 3103 2138 3103 
Q 1681 3103 1420 2742 
Q 1159 2381 1159 1747 
Q 1159 1113 1420 752 
Q 1681 391 2138 391 
Q 2594 391 2855 752 
Q 3116 1113 3116 1747 
z
M 1159 2969 
Q 1341 3281 1617 3432 
Q 1894 3584 2278 3584 
Q 2916 3584 3314 3078 
Q 3713 2572 3713 1747 
Q 3713 922 3314 415 
Q 2916 -91 2278 -91 
Q 1894 -91 1617 61 
Q 1341 213 1159 525 
L 1159 0 
L 581 0 
L 581 4863 
L 1159 4863 
L 1159 2969 
z
" id="DejaVuSans-62" transform="scale(0.015625)"/>
      <path d="M 1959 3097 
Q 1497 3097 1228 2736 
Q 959 2375 959 1747 
Q 959 1119 1226 758 
Q 1494 397 1959 397 
Q 2419 397 2687 759 
Q 2956 1122 2956 1747 
Q 2956 2369 2687 2733 
Q 2419 3097 1959 3097 
z
M 1959 3584 
Q 2709 3584 3137 3096 
Q 3566 2609 3566 1747 
Q 3566 888 3137 398 
Q 2709 -91 1959 -91 
Q 1206 -91 779 398 
Q 353 888 353 1747 
Q 353 2609 779 3096 
Q 1206 3584 1959 3584 
z
" id="DejaVuSans-6f" transform="scale(0.015625)"/>
      <path id="DejaVuSans-20" transform="scale(0.015625)"/>
      <path d="M 603 3500 
L 1178 3500 
L 1178 0 
L 603 0 
L 603 3500 
z
M 603 4863 
L 1178 4863 
L 1178 4134 
L 603 4134 
L 603 4863 
z
" id="DejaVuSans-69" transform="scale(0.015625)"/>
      <path d="M 3513 2113 
L 3513 0 
L 2938 0 
L 2938 2094 
Q 2938 2591 2744 2837 
Q 2550 3084 2163 3084 
Q 1697 3084 1428 2787 
Q 1159 2491 1159 1978 
L 1159 0 
L 581 0 
L 581 3500 
L 1159 3500 
L 1159 2956 
Q 1366 3272 1645 3428 
Q 1925 3584 2291 3584 
Q 2894 3584 3203 3211 
Q 3513 2838 3513 2113 
z
" id="DejaVuSans-6e" transform="scale(0.015625)"/>
      <path d="M 2834 3397 
L 2834 2853 
Q 2591 2978 2328 3040 
Q 2066 3103 1784 3103 
Q 1356 3103 1142 2972 
Q 928 2841 928 2578 
Q 928 2378 1081 2264 
Q 1234 2150 1697 2047 
L 1894 2003 
Q 2506 1872 2764 1633 
Q 3022 1394 3022 966 
Q 3022 478 2636 193 
Q 2250 -91 1575 -91 
Q 1294 -91 989 -36 
Q 684 19 347 128 
L 347 722 
Q 666 556 975 473 
Q 1284 391 1588 391 
Q 1994 391 2212 530 
Q 2431 669 2431 922 
Q 2431 1156 2273 1281 
Q 2116 1406 1581 1522 
L 1381 1569 
Q 847 1681 609 1914 
Q 372 2147 372 2553 
Q 372 3047 722 3315 
Q 1072 3584 1716 3584 
Q 2034 3584 2315 3537 
Q 2597 3491 2834 3397 
z
" id="DejaVuSans-73" transform="scale(0.015625)"/>
      <path d="M 1172 4494 
L 1172 3500 
L 2356 3500 
L 2356 3053 
L 1172 3053 
L 1172 1153 
Q 1172 725 1289 603 
Q 1406 481 1766 481 
L 2356 481 
L 2356 0 
L 1766 0 
Q 1100 0 847 248 
Q 594 497 594 1153 
L 594 3053 
L 172 3053 
L 172 3500 
L 594 3500 
L 594 4494 
L 1172 4494 
z
" id="DejaVuSans-74" transform="scale(0.015625)"/>
     </defs>
     <use xlink:href="#DejaVuSans-62"/>
     <use x="63.476562" xlink:href="#DejaVuSans-65"/>
     <use x="125" xlink:href="#DejaVuSans-66"/>
     <use x="160.205078" xlink:href="#DejaVuSans-6f"/>
     <use x="221.386719" xlink:href="#DejaVuSans-72"/>
     <use x="260.25" xlink:href="#DejaVuSans-65"/>
     <use x="321.773438" xlink:href="#DejaVuSans-20"/>
     <use x="353.560547" xlink:href="#DejaVuSans-62"/>
     <use x="417.037109" xlink:href="#DejaVuSans-69"/>
     <use x="444.820312" xlink:href="#DejaVuSans-6e"/>
     <use x="508.199219" xlink:href="#DejaVuSans-61"/>
     <use x="569.478516" xlink:href="#DejaVuSans-72"/>
     <use x="610.591797" xlink:href="#DejaVuSans-69"/>
     <use x="638.375" xlink:href="#DejaVuSans-73"/>
     <use x="690.474609" xlink:href="#DejaVuSans-61"/>
     <use x="751.753906" xlink:href="#DejaVuSans-74"/>
     <use x="790.962891" xlink:href="#DejaVuSans-69"/>
     <use x="818.746094" xlink:href="#DejaVuSans-6f"/>
     <use x="879.927734" xlink:href="#DejaVuSans-6e"/>
    </g>
   </g>
  </g>
  <g id="axes_2">
   <g id="patch_7">
    <path d="M 43.78125 1264.318125 
L 1717.78125 1264.318125 
L 1717.78125 699.77267 
L 43.78125 699.77267 
z
" style="fill:#ffffff;"/>
   </g>
   <g id="matplotlib.axis_3">
    <g id="xtick_8">
     <g id="line2d_15">
      <g>
       <use style="stroke:#000000;stroke-width:0.8;" x="119.872159" xlink:href="#m3a371ce4b4" y="1264.318125"/>
      </g>
     </g>
     <g id="text_17">
      <!-- 0 -->
      <g transform="translate(116.690909 1278.916563)scale(0.1 -0.1)">
       <use xlink:href="#DejaVuSans-30"/>
      </g>
     </g>
    </g>
    <g id="xtick_9">
     <g id="line2d_16">
      <g>
       <use style="stroke:#000000;stroke-width:0.8;" x="367.523613" xlink:href="#m3a371ce4b4" y="1264.318125"/>
      </g>
     </g>
     <g id="text_18">
      <!-- 200 -->
      <g transform="translate(357.979863 1278.916563)scale(0.1 -0.1)">
       <use xlink:href="#DejaVuSans-32"/>
       <use x="63.623047" xlink:href="#DejaVuSans-30"/>
       <use x="127.246094" xlink:href="#DejaVuSans-30"/>
      </g>
     </g>
    </g>
    <g id="xtick_10">
     <g id="line2d_17">
      <g>
       <use style="stroke:#000000;stroke-width:0.8;" x="615.175066" xlink:href="#m3a371ce4b4" y="1264.318125"/>
      </g>
     </g>
     <g id="text_19">
      <!-- 400 -->
      <g transform="translate(605.631316 1278.916563)scale(0.1 -0.1)">
       <use xlink:href="#DejaVuSans-34"/>
       <use x="63.623047" xlink:href="#DejaVuSans-30"/>
       <use x="127.246094" xlink:href="#DejaVuSans-30"/>
      </g>
     </g>
    </g>
    <g id="xtick_11">
     <g id="line2d_18">
      <g>
       <use style="stroke:#000000;stroke-width:0.8;" x="862.82652" xlink:href="#m3a371ce4b4" y="1264.318125"/>
      </g>
     </g>
     <g id="text_20">
      <!-- 600 -->
      <g transform="translate(853.28277 1278.916563)scale(0.1 -0.1)">
       <use xlink:href="#DejaVuSans-36"/>
       <use x="63.623047" xlink:href="#DejaVuSans-30"/>
       <use x="127.246094" xlink:href="#DejaVuSans-30"/>
      </g>
     </g>
    </g>
    <g id="xtick_12">
     <g id="line2d_19">
      <g>
       <use style="stroke:#000000;stroke-width:0.8;" x="1110.477973" xlink:href="#m3a371ce4b4" y="1264.318125"/>
      </g>
     </g>
     <g id="text_21">
      <!-- 800 -->
      <g transform="translate(1100.934223 1278.916563)scale(0.1 -0.1)">
       <use xlink:href="#DejaVuSans-38"/>
       <use x="63.623047" xlink:href="#DejaVuSans-30"/>
       <use x="127.246094" xlink:href="#DejaVuSans-30"/>
      </g>
     </g>
    </g>
    <g id="xtick_13">
     <g id="line2d_20">
      <g>
       <use style="stroke:#000000;stroke-width:0.8;" x="1358.129427" xlink:href="#m3a371ce4b4" y="1264.318125"/>
      </g>
     </g>
     <g id="text_22">
      <!-- 1000 -->
      <g transform="translate(1345.404427 1278.916563)scale(0.1 -0.1)">
       <use xlink:href="#DejaVuSans-31"/>
       <use x="63.623047" xlink:href="#DejaVuSans-30"/>
       <use x="127.246094" xlink:href="#DejaVuSans-30"/>
       <use x="190.869141" xlink:href="#DejaVuSans-30"/>
      </g>
     </g>
    </g>
    <g id="xtick_14">
     <g id="line2d_21">
      <g>
       <use style="stroke:#000000;stroke-width:0.8;" x="1605.78088" xlink:href="#m3a371ce4b4" y="1264.318125"/>
      </g>
     </g>
     <g id="text_23">
      <!-- 1200 -->
      <g transform="translate(1593.05588 1278.916563)scale(0.1 -0.1)">
       <use xlink:href="#DejaVuSans-31"/>
       <use x="63.623047" xlink:href="#DejaVuSans-32"/>
       <use x="127.246094" xlink:href="#DejaVuSans-30"/>
       <use x="190.869141" xlink:href="#DejaVuSans-30"/>
      </g>
     </g>
    </g>
    <g id="text_24">
     <!-- frame -->
     <g transform="translate(865.954687 1292.594688)scale(0.1 -0.1)">
      <use xlink:href="#DejaVuSans-66"/>
      <use x="35.205078" xlink:href="#DejaVuSans-72"/>
      <use x="76.318359" xlink:href="#DejaVuSans-61"/>
      <use x="137.597656" xlink:href="#DejaVuSans-6d"/>
      <use x="235.009766" xlink:href="#DejaVuSans-65"/>
     </g>
    </g>
   </g>
   <g id="matplotlib.axis_4">
    <g id="ytick_7">
     <g id="line2d_22">
      <g>
       <use style="stroke:#000000;stroke-width:0.8;" x="43.78125" xlink:href="#md505402430" y="1238.656968"/>
      </g>
     </g>
     <g id="text_25">
      <!-- 0.0 -->
      <g transform="translate(20.878125 1242.456187)scale(0.1 -0.1)">
       <defs>
        <path d="M 684 794 
L 1344 794 
L 1344 0 
L 684 0 
L 684 794 
z
" id="DejaVuSans-2e" transform="scale(0.015625)"/>
       </defs>
       <use xlink:href="#DejaVuSans-30"/>
       <use x="63.623047" xlink:href="#DejaVuSans-2e"/>
       <use x="95.410156" xlink:href="#DejaVuSans-30"/>
      </g>
     </g>
    </g>
    <g id="ytick_8">
     <g id="line2d_23">
      <g>
       <use style="stroke:#000000;stroke-width:0.8;" x="43.78125" xlink:href="#md505402430" y="1136.01234"/>
      </g>
     </g>
     <g id="text_26">
      <!-- 0.2 -->
      <g transform="translate(20.878125 1139.811559)scale(0.1 -0.1)">
       <use xlink:href="#DejaVuSans-30"/>
       <use x="63.623047" xlink:href="#DejaVuSans-2e"/>
       <use x="95.410156" xlink:href="#DejaVuSans-32"/>
      </g>
     </g>
    </g>
    <g id="ytick_9">
     <g id="line2d_24">
      <g>
       <use style="stroke:#000000;stroke-width:0.8;" x="43.78125" xlink:href="#md505402430" y="1033.367712"/>
      </g>
     </g>
     <g id="text_27">
      <!-- 0.4 -->
      <g transform="translate(20.878125 1037.166931)scale(0.1 -0.1)">
       <use xlink:href="#DejaVuSans-30"/>
       <use x="63.623047" xlink:href="#DejaVuSans-2e"/>
       <use x="95.410156" xlink:href="#DejaVuSans-34"/>
      </g>
     </g>
    </g>
    <g id="ytick_10">
     <g id="line2d_25">
      <g>
       <use style="stroke:#000000;stroke-width:0.8;" x="43.78125" xlink:href="#md505402430" y="930.723084"/>
      </g>
     </g>
     <g id="text_28">
      <!-- 0.6 -->
      <g transform="translate(20.878125 934.522302)scale(0.1 -0.1)">
       <use xlink:href="#DejaVuSans-30"/>
       <use x="63.623047" xlink:href="#DejaVuSans-2e"/>
       <use x="95.410156" xlink:href="#DejaVuSans-36"/>
      </g>
     </g>
    </g>
    <g id="ytick_11">
     <g id="line2d_26">
      <g>
       <use style="stroke:#000000;stroke-width:0.8;" x="43.78125" xlink:href="#md505402430" y="828.078456"/>
      </g>
     </g>
     <g id="text_29">
      <!-- 0.8 -->
      <g transform="translate(20.878125 831.877674)scale(0.1 -0.1)">
       <use xlink:href="#DejaVuSans-30"/>
       <use x="63.623047" xlink:href="#DejaVuSans-2e"/>
       <use x="95.410156" xlink:href="#DejaVuSans-38"/>
      </g>
     </g>
    </g>
    <g id="ytick_12">
     <g id="line2d_27">
      <g>
       <use style="stroke:#000000;stroke-width:0.8;" x="43.78125" xlink:href="#md505402430" y="725.433827"/>
      </g>
     </g>
     <g id="text_30">
      <!-- 1.0 -->
      <g transform="translate(20.878125 729.233046)scale(0.1 -0.1)">
       <use xlink:href="#DejaVuSans-31"/>
       <use x="63.623047" xlink:href="#DejaVuSans-2e"/>
       <use x="95.410156" xlink:href="#DejaVuSans-30"/>
      </g>
     </g>
    </g>
    <g id="text_31">
     <!-- GCaMP -->
     <g transform="translate(14.798437 999.803991)rotate(-90)scale(0.1 -0.1)">
      <use xlink:href="#DejaVuSans-47"/>
      <use x="77.490234" xlink:href="#DejaVuSans-43"/>
      <use x="147.314453" xlink:href="#DejaVuSans-61"/>
      <use x="208.59375" xlink:href="#DejaVuSans-4d"/>
      <use x="294.873047" xlink:href="#DejaVuSans-50"/>
     </g>
    </g>
   </g>
   <g id="line2d_28">
    <path clip-path="url(#pcaab8cfbc3)" d="M 119.872159 725.433827 
L 150.828591 725.433827 
L 152.066848 1238.656968 
L 1401.468431 1238.656968 
L 1402.706688 725.433827 
L 1407.659717 725.433827 
L 1408.897975 1238.656968 
L 1447.28395 1238.656968 
L 1448.522207 725.433827 
L 1460.90478 725.433827 
L 1462.143037 1238.656968 
L 1474.52561 1238.656968 
L 1475.763867 725.433827 
L 1559.965361 725.433827 
L 1561.203619 1238.656968 
L 1566.156648 1238.656968 
L 1567.394905 725.433827 
L 1602.066108 725.433827 
L 1603.304366 1238.656968 
L 1605.78088 1238.656968 
L 1607.019137 725.433827 
L 1616.925196 725.433827 
L 1618.163453 1238.656968 
L 1620.639967 1238.656968 
L 1621.878225 725.433827 
L 1641.690341 725.433827 
L 1641.690341 725.433827 
" style="fill:none;stroke:#008000;stroke-linecap:square;stroke-width:1.5;"/>
   </g>
   <g id="patch_8">
    <path d="M 43.78125 1264.318125 
L 43.78125 699.77267 
" style="fill:none;stroke:#000000;stroke-linecap:square;stroke-linejoin:miter;stroke-width:0.8;"/>
   </g>
   <g id="patch_9">
    <path d="M 1717.78125 1264.318125 
L 1717.78125 699.77267 
" style="fill:none;stroke:#000000;stroke-linecap:square;stroke-linejoin:miter;stroke-width:0.8;"/>
   </g>
   <g id="patch_10">
    <path d="M 43.78125 1264.318125 
L 1717.78125 1264.318125 
" style="fill:none;stroke:#000000;stroke-linecap:square;stroke-linejoin:miter;stroke-width:0.8;"/>
   </g>
   <g id="patch_11">
    <path d="M 43.78125 699.77267 
L 1717.78125 699.77267 
" style="fill:none;stroke:#000000;stroke-linecap:square;stroke-linejoin:miter;stroke-width:0.8;"/>
   </g>
   <g id="text_32">
    <!-- before binarisation -->
    <g transform="translate(824.1825 693.77267)scale(0.12 -0.12)">
     <use xlink:href="#DejaVuSans-62"/>
     <use x="63.476562" xlink:href="#DejaVuSans-65"/>
     <use x="125" xlink:href="#DejaVuSans-66"/>
     <use x="160.205078" xlink:href="#DejaVuSans-6f"/>
     <use x="221.386719" xlink:href="#DejaVuSans-72"/>
     <use x="260.25" xlink:href="#DejaVuSans-65"/>
     <use x="321.773438" xlink:href="#DejaVuSans-20"/>
     <use x="353.560547" xlink:href="#DejaVuSans-62"/>
     <use x="417.037109" xlink:href="#DejaVuSans-69"/>
     <use x="444.820312" xlink:href="#DejaVuSans-6e"/>
     <use x="508.199219" xlink:href="#DejaVuSans-61"/>
     <use x="569.478516" xlink:href="#DejaVuSans-72"/>
     <use x="610.591797" xlink:href="#DejaVuSans-69"/>
     <use x="638.375" xlink:href="#DejaVuSans-73"/>
     <use x="690.474609" xlink:href="#DejaVuSans-61"/>
     <use x="751.753906" xlink:href="#DejaVuSans-74"/>
     <use x="790.962891" xlink:href="#DejaVuSans-69"/>
     <use x="818.746094" xlink:href="#DejaVuSans-6f"/>
     <use x="879.927734" xlink:href="#DejaVuSans-6e"/>
    </g>
   </g>
  </g>
 </g>
 <defs>
  <clipPath id="pa2e0c019f0">
   <rect height="564.545455" width="1674" x="43.78125" y="22.318125"/>
  </clipPath>
  <clipPath id="pcaab8cfbc3">
   <rect height="564.545455" width="1674" x="43.78125" y="699.77267"/>
  </clipPath>
 </defs>
</svg>
