<?xml version="1.0" encoding="utf-8" standalone="no"?>
<!DOCTYPE svg PUBLIC "-//W3C//DTD SVG 1.1//EN"
  "http://www.w3.org/Graphics/SVG/1.1/DTD/svg11.dtd">
<svg height="1301.874375pt" version="1.1" viewBox="0 0 1724.98125 1301.874375" width="1724.98125pt" xmlns="http://www.w3.org/2000/svg" xmlns:xlink="http://www.w3.org/1999/xlink">
 <metadata>
  <rdf:RDF xmlns:cc="http://creativecommons.org/ns#" xmlns:dc="http://purl.org/dc/elements/1.1/" xmlns:rdf="http://www.w3.org/1999/02/22-rdf-syntax-ns#">
   <cc:Work>
    <dc:type rdf:resource="http://purl.org/dc/dcmitype/StillImage"/>
    <dc:date>2022-07-24T15:54:40.148985</dc:date>
    <dc:format>image/svg+xml</dc:format>
    <dc:creator>
     <cc:Agent>
      <dc:title>Matplotlib v3.4.2, https://matplotlib.org/</dc:title>
     </cc:Agent>
    </dc:creator>
   </cc:Work>
  </rdf:RDF>
 </metadata>
 <defs>
  <style type="text/css">*{stroke-linecap:butt;stroke-linejoin:round;}</style>
 </defs>
 <g id="figure_1">
  <g id="patch_1">
   <path d="M 0 1301.874375 
L 1724.98125 1301.874375 
L 1724.98125 0 
L 0 0 
z
" style="fill:#ffffff;"/>
  </g>
  <g id="axes_1">
   <g id="patch_2">
    <path d="M 43.78125 586.86358 
L 1717.78125 586.86358 
L 1717.78125 22.318125 
L 43.78125 22.318125 
z
" style="fill:#ffffff;"/>
   </g>
   <g id="matplotlib.axis_1">
    <g id="xtick_1">
     <g id="line2d_1">
      <defs>
       <path d="M 0 0 
L 0 3.5 
" id="m9ed20e1792" style="stroke:#000000;stroke-width:0.8;"/>
      </defs>
      <g>
       <use style="stroke:#000000;stroke-width:0.8;" x="119.872159" xlink:href="#m9ed20e1792" y="586.86358"/>
      </g>
     </g>
     <g id="text_1">
      <!-- 0 -->
      <g transform="translate(116.690909 601.462017)scale(0.1 -0.1)">
       <defs>
        <path d="M 2034 4250 
Q 1547 4250 1301 3770 
Q 1056 3291 1056 2328 
Q 1056 1369 1301 889 
Q 1547 409 2034 409 
Q 2525 409 2770 889 
Q 3016 1369 3016 2328 
Q 3016 3291 2770 3770 
Q 2525 4250 2034 4250 
z
M 2034 4750 
Q 2819 4750 3233 4129 
Q 3647 3509 3647 2328 
Q 3647 1150 3233 529 
Q 2819 -91 2034 -91 
Q 1250 -91 836 529 
Q 422 1150 422 2328 
Q 422 3509 836 4129 
Q 1250 4750 2034 4750 
z
" id="DejaVuSans-30" transform="scale(0.015625)"/>
       </defs>
       <use xlink:href="#DejaVuSans-30"/>
      </g>
     </g>
    </g>
    <g id="xtick_2">
     <g id="line2d_2">
      <g>
       <use style="stroke:#000000;stroke-width:0.8;" x="367.523613" xlink:href="#m9ed20e1792" y="586.86358"/>
      </g>
     </g>
     <g id="text_2">
      <!-- 200 -->
      <g transform="translate(357.979863 601.462017)scale(0.1 -0.1)">
       <defs>
        <path d="M 1228 531 
L 3431 531 
L 3431 0 
L 469 0 
L 469 531 
Q 828 903 1448 1529 
Q 2069 2156 2228 2338 
Q 2531 2678 2651 2914 
Q 2772 3150 2772 3378 
Q 2772 3750 2511 3984 
Q 2250 4219 1831 4219 
Q 1534 4219 1204 4116 
Q 875 4013 500 3803 
L 500 4441 
Q 881 4594 1212 4672 
Q 1544 4750 1819 4750 
Q 2544 4750 2975 4387 
Q 3406 4025 3406 3419 
Q 3406 3131 3298 2873 
Q 3191 2616 2906 2266 
Q 2828 2175 2409 1742 
Q 1991 1309 1228 531 
z
" id="DejaVuSans-32" transform="scale(0.015625)"/>
       </defs>
       <use xlink:href="#DejaVuSans-32"/>
       <use x="63.623047" xlink:href="#DejaVuSans-30"/>
       <use x="127.246094" xlink:href="#DejaVuSans-30"/>
      </g>
     </g>
    </g>
    <g id="xtick_3">
     <g id="line2d_3">
      <g>
       <use style="stroke:#000000;stroke-width:0.8;" x="615.175066" xlink:href="#m9ed20e1792" y="586.86358"/>
      </g>
     </g>
     <g id="text_3">
      <!-- 400 -->
      <g transform="translate(605.631316 601.462017)scale(0.1 -0.1)">
       <defs>
        <path d="M 2419 4116 
L 825 1625 
L 2419 1625 
L 2419 4116 
z
M 2253 4666 
L 3047 4666 
L 3047 1625 
L 3713 1625 
L 3713 1100 
L 3047 1100 
L 3047 0 
L 2419 0 
L 2419 1100 
L 313 1100 
L 313 1709 
L 2253 4666 
z
" id="DejaVuSans-34" transform="scale(0.015625)"/>
       </defs>
       <use xlink:href="#DejaVuSans-34"/>
       <use x="63.623047" xlink:href="#DejaVuSans-30"/>
       <use x="127.246094" xlink:href="#DejaVuSans-30"/>
      </g>
     </g>
    </g>
    <g id="xtick_4">
     <g id="line2d_4">
      <g>
       <use style="stroke:#000000;stroke-width:0.8;" x="862.82652" xlink:href="#m9ed20e1792" y="586.86358"/>
      </g>
     </g>
     <g id="text_4">
      <!-- 600 -->
      <g transform="translate(853.28277 601.462017)scale(0.1 -0.1)">
       <defs>
        <path d="M 2113 2584 
Q 1688 2584 1439 2293 
Q 1191 2003 1191 1497 
Q 1191 994 1439 701 
Q 1688 409 2113 409 
Q 2538 409 2786 701 
Q 3034 994 3034 1497 
Q 3034 2003 2786 2293 
Q 2538 2584 2113 2584 
z
M 3366 4563 
L 3366 3988 
Q 3128 4100 2886 4159 
Q 2644 4219 2406 4219 
Q 1781 4219 1451 3797 
Q 1122 3375 1075 2522 
Q 1259 2794 1537 2939 
Q 1816 3084 2150 3084 
Q 2853 3084 3261 2657 
Q 3669 2231 3669 1497 
Q 3669 778 3244 343 
Q 2819 -91 2113 -91 
Q 1303 -91 875 529 
Q 447 1150 447 2328 
Q 447 3434 972 4092 
Q 1497 4750 2381 4750 
Q 2619 4750 2861 4703 
Q 3103 4656 3366 4563 
z
" id="DejaVuSans-36" transform="scale(0.015625)"/>
       </defs>
       <use xlink:href="#DejaVuSans-36"/>
       <use x="63.623047" xlink:href="#DejaVuSans-30"/>
       <use x="127.246094" xlink:href="#DejaVuSans-30"/>
      </g>
     </g>
    </g>
    <g id="xtick_5">
     <g id="line2d_5">
      <g>
       <use style="stroke:#000000;stroke-width:0.8;" x="1110.477973" xlink:href="#m9ed20e1792" y="586.86358"/>
      </g>
     </g>
     <g id="text_5">
      <!-- 800 -->
      <g transform="translate(1100.934223 601.462017)scale(0.1 -0.1)">
       <defs>
        <path d="M 2034 2216 
Q 1584 2216 1326 1975 
Q 1069 1734 1069 1313 
Q 1069 891 1326 650 
Q 1584 409 2034 409 
Q 2484 409 2743 651 
Q 3003 894 3003 1313 
Q 3003 1734 2745 1975 
Q 2488 2216 2034 2216 
z
M 1403 2484 
Q 997 2584 770 2862 
Q 544 3141 544 3541 
Q 544 4100 942 4425 
Q 1341 4750 2034 4750 
Q 2731 4750 3128 4425 
Q 3525 4100 3525 3541 
Q 3525 3141 3298 2862 
Q 3072 2584 2669 2484 
Q 3125 2378 3379 2068 
Q 3634 1759 3634 1313 
Q 3634 634 3220 271 
Q 2806 -91 2034 -91 
Q 1263 -91 848 271 
Q 434 634 434 1313 
Q 434 1759 690 2068 
Q 947 2378 1403 2484 
z
M 1172 3481 
Q 1172 3119 1398 2916 
Q 1625 2713 2034 2713 
Q 2441 2713 2670 2916 
Q 2900 3119 2900 3481 
Q 2900 3844 2670 4047 
Q 2441 4250 2034 4250 
Q 1625 4250 1398 4047 
Q 1172 3844 1172 3481 
z
" id="DejaVuSans-38" transform="scale(0.015625)"/>
       </defs>
       <use xlink:href="#DejaVuSans-38"/>
       <use x="63.623047" xlink:href="#DejaVuSans-30"/>
       <use x="127.246094" xlink:href="#DejaVuSans-30"/>
      </g>
     </g>
    </g>
    <g id="xtick_6">
     <g id="line2d_6">
      <g>
       <use style="stroke:#000000;stroke-width:0.8;" x="1358.129427" xlink:href="#m9ed20e1792" y="586.86358"/>
      </g>
     </g>
     <g id="text_6">
      <!-- 1000 -->
      <g transform="translate(1345.404427 601.462017)scale(0.1 -0.1)">
       <defs>
        <path d="M 794 531 
L 1825 531 
L 1825 4091 
L 703 3866 
L 703 4441 
L 1819 4666 
L 2450 4666 
L 2450 531 
L 3481 531 
L 3481 0 
L 794 0 
L 794 531 
z
" id="DejaVuSans-31" transform="scale(0.015625)"/>
       </defs>
       <use xlink:href="#DejaVuSans-31"/>
       <use x="63.623047" xlink:href="#DejaVuSans-30"/>
       <use x="127.246094" xlink:href="#DejaVuSans-30"/>
       <use x="190.869141" xlink:href="#DejaVuSans-30"/>
      </g>
     </g>
    </g>
    <g id="xtick_7">
     <g id="line2d_7">
      <g>
       <use style="stroke:#000000;stroke-width:0.8;" x="1605.78088" xlink:href="#m9ed20e1792" y="586.86358"/>
      </g>
     </g>
     <g id="text_7">
      <!-- 1200 -->
      <g transform="translate(1593.05588 601.462017)scale(0.1 -0.1)">
       <use xlink:href="#DejaVuSans-31"/>
       <use x="63.623047" xlink:href="#DejaVuSans-32"/>
       <use x="127.246094" xlink:href="#DejaVuSans-30"/>
       <use x="190.869141" xlink:href="#DejaVuSans-30"/>
      </g>
     </g>
    </g>
    <g id="text_8">
     <!-- frame -->
     <g transform="translate(865.954687 615.140142)scale(0.1 -0.1)">
      <defs>
       <path d="M 2375 4863 
L 2375 4384 
L 1825 4384 
Q 1516 4384 1395 4259 
Q 1275 4134 1275 3809 
L 1275 3500 
L 2222 3500 
L 2222 3053 
L 1275 3053 
L 1275 0 
L 697 0 
L 697 3053 
L 147 3053 
L 147 3500 
L 697 3500 
L 697 3744 
Q 697 4328 969 4595 
Q 1241 4863 1831 4863 
L 2375 4863 
z
" id="DejaVuSans-66" transform="scale(0.015625)"/>
       <path d="M 2631 2963 
Q 2534 3019 2420 3045 
Q 2306 3072 2169 3072 
Q 1681 3072 1420 2755 
Q 1159 2438 1159 1844 
L 1159 0 
L 581 0 
L 581 3500 
L 1159 3500 
L 1159 2956 
Q 1341 3275 1631 3429 
Q 1922 3584 2338 3584 
Q 2397 3584 2469 3576 
Q 2541 3569 2628 3553 
L 2631 2963 
z
" id="DejaVuSans-72" transform="scale(0.015625)"/>
       <path d="M 2194 1759 
Q 1497 1759 1228 1600 
Q 959 1441 959 1056 
Q 959 750 1161 570 
Q 1363 391 1709 391 
Q 2188 391 2477 730 
Q 2766 1069 2766 1631 
L 2766 1759 
L 2194 1759 
z
M 3341 1997 
L 3341 0 
L 2766 0 
L 2766 531 
Q 2569 213 2275 61 
Q 1981 -91 1556 -91 
Q 1019 -91 701 211 
Q 384 513 384 1019 
Q 384 1609 779 1909 
Q 1175 2209 1959 2209 
L 2766 2209 
L 2766 2266 
Q 2766 2663 2505 2880 
Q 2244 3097 1772 3097 
Q 1472 3097 1187 3025 
Q 903 2953 641 2809 
L 641 3341 
Q 956 3463 1253 3523 
Q 1550 3584 1831 3584 
Q 2591 3584 2966 3190 
Q 3341 2797 3341 1997 
z
" id="DejaVuSans-61" transform="scale(0.015625)"/>
       <path d="M 3328 2828 
Q 3544 3216 3844 3400 
Q 4144 3584 4550 3584 
Q 5097 3584 5394 3201 
Q 5691 2819 5691 2113 
L 5691 0 
L 5113 0 
L 5113 2094 
Q 5113 2597 4934 2840 
Q 4756 3084 4391 3084 
Q 3944 3084 3684 2787 
Q 3425 2491 3425 1978 
L 3425 0 
L 2847 0 
L 2847 2094 
Q 2847 2600 2669 2842 
Q 2491 3084 2119 3084 
Q 1678 3084 1418 2786 
Q 1159 2488 1159 1978 
L 1159 0 
L 581 0 
L 581 3500 
L 1159 3500 
L 1159 2956 
Q 1356 3278 1631 3431 
Q 1906 3584 2284 3584 
Q 2666 3584 2933 3390 
Q 3200 3197 3328 2828 
z
" id="DejaVuSans-6d" transform="scale(0.015625)"/>
       <path d="M 3597 1894 
L 3597 1613 
L 953 1613 
Q 991 1019 1311 708 
Q 1631 397 2203 397 
Q 2534 397 2845 478 
Q 3156 559 3463 722 
L 3463 178 
Q 3153 47 2828 -22 
Q 2503 -91 2169 -91 
Q 1331 -91 842 396 
Q 353 884 353 1716 
Q 353 2575 817 3079 
Q 1281 3584 2069 3584 
Q 2775 3584 3186 3129 
Q 3597 2675 3597 1894 
z
M 3022 2063 
Q 3016 2534 2758 2815 
Q 2500 3097 2075 3097 
Q 1594 3097 1305 2825 
Q 1016 2553 972 2059 
L 3022 2063 
z
" id="DejaVuSans-65" transform="scale(0.015625)"/>
      </defs>
      <use xlink:href="#DejaVuSans-66"/>
      <use x="35.205078" xlink:href="#DejaVuSans-72"/>
      <use x="76.318359" xlink:href="#DejaVuSans-61"/>
      <use x="137.597656" xlink:href="#DejaVuSans-6d"/>
      <use x="235.009766" xlink:href="#DejaVuSans-65"/>
     </g>
    </g>
   </g>
   <g id="matplotlib.axis_2">
    <g id="ytick_1">
     <g id="line2d_8">
      <defs>
       <path d="M 0 0 
L -3.5 0 
" id="m4151a867d0" style="stroke:#000000;stroke-width:0.8;"/>
      </defs>
      <g>
       <use style="stroke:#000000;stroke-width:0.8;" x="43.78125" xlink:href="#m4151a867d0" y="561.202423"/>
      </g>
     </g>
     <g id="text_9">
      <!-- 0.0 -->
      <g transform="translate(20.878125 565.001641)scale(0.1 -0.1)">
       <defs>
        <path d="M 684 794 
L 1344 794 
L 1344 0 
L 684 0 
L 684 794 
z
" id="DejaVuSans-2e" transform="scale(0.015625)"/>
       </defs>
       <use xlink:href="#DejaVuSans-30"/>
       <use x="63.623047" xlink:href="#DejaVuSans-2e"/>
       <use x="95.410156" xlink:href="#DejaVuSans-30"/>
      </g>
     </g>
    </g>
    <g id="ytick_2">
     <g id="line2d_9">
      <g>
       <use style="stroke:#000000;stroke-width:0.8;" x="43.78125" xlink:href="#m4151a867d0" y="457.018715"/>
      </g>
     </g>
     <g id="text_10">
      <!-- 0.5 -->
      <g transform="translate(20.878125 460.817933)scale(0.1 -0.1)">
       <defs>
        <path d="M 691 4666 
L 3169 4666 
L 3169 4134 
L 1269 4134 
L 1269 2991 
Q 1406 3038 1543 3061 
Q 1681 3084 1819 3084 
Q 2600 3084 3056 2656 
Q 3513 2228 3513 1497 
Q 3513 744 3044 326 
Q 2575 -91 1722 -91 
Q 1428 -91 1123 -41 
Q 819 9 494 109 
L 494 744 
Q 775 591 1075 516 
Q 1375 441 1709 441 
Q 2250 441 2565 725 
Q 2881 1009 2881 1497 
Q 2881 1984 2565 2268 
Q 2250 2553 1709 2553 
Q 1456 2553 1204 2497 
Q 953 2441 691 2322 
L 691 4666 
z
" id="DejaVuSans-35" transform="scale(0.015625)"/>
       </defs>
       <use xlink:href="#DejaVuSans-30"/>
       <use x="63.623047" xlink:href="#DejaVuSans-2e"/>
       <use x="95.410156" xlink:href="#DejaVuSans-35"/>
      </g>
     </g>
    </g>
    <g id="ytick_3">
     <g id="line2d_10">
      <g>
       <use style="stroke:#000000;stroke-width:0.8;" x="43.78125" xlink:href="#m4151a867d0" y="352.835007"/>
      </g>
     </g>
     <g id="text_11">
      <!-- 1.0 -->
      <g transform="translate(20.878125 356.634226)scale(0.1 -0.1)">
       <use xlink:href="#DejaVuSans-31"/>
       <use x="63.623047" xlink:href="#DejaVuSans-2e"/>
       <use x="95.410156" xlink:href="#DejaVuSans-30"/>
      </g>
     </g>
    </g>
    <g id="ytick_4">
     <g id="line2d_11">
      <g>
       <use style="stroke:#000000;stroke-width:0.8;" x="43.78125" xlink:href="#m4151a867d0" y="248.651299"/>
      </g>
     </g>
     <g id="text_12">
      <!-- 1.5 -->
      <g transform="translate(20.878125 252.450518)scale(0.1 -0.1)">
       <use xlink:href="#DejaVuSans-31"/>
       <use x="63.623047" xlink:href="#DejaVuSans-2e"/>
       <use x="95.410156" xlink:href="#DejaVuSans-35"/>
      </g>
     </g>
    </g>
    <g id="ytick_5">
     <g id="line2d_12">
      <g>
       <use style="stroke:#000000;stroke-width:0.8;" x="43.78125" xlink:href="#m4151a867d0" y="144.467591"/>
      </g>
     </g>
     <g id="text_13">
      <!-- 2.0 -->
      <g transform="translate(20.878125 148.26681)scale(0.1 -0.1)">
       <use xlink:href="#DejaVuSans-32"/>
       <use x="63.623047" xlink:href="#DejaVuSans-2e"/>
       <use x="95.410156" xlink:href="#DejaVuSans-30"/>
      </g>
     </g>
    </g>
    <g id="ytick_6">
     <g id="line2d_13">
      <g>
       <use style="stroke:#000000;stroke-width:0.8;" x="43.78125" xlink:href="#m4151a867d0" y="40.283883"/>
      </g>
     </g>
     <g id="text_14">
      <!-- 2.5 -->
      <g transform="translate(20.878125 44.083102)scale(0.1 -0.1)">
       <use xlink:href="#DejaVuSans-32"/>
       <use x="63.623047" xlink:href="#DejaVuSans-2e"/>
       <use x="95.410156" xlink:href="#DejaVuSans-35"/>
      </g>
     </g>
    </g>
    <g id="text_15">
     <!-- GCaMP -->
     <g transform="translate(14.798437 322.349446)rotate(-90)scale(0.1 -0.1)">
      <defs>
       <path d="M 3809 666 
L 3809 1919 
L 2778 1919 
L 2778 2438 
L 4434 2438 
L 4434 434 
Q 4069 175 3628 42 
Q 3188 -91 2688 -91 
Q 1594 -91 976 548 
Q 359 1188 359 2328 
Q 359 3472 976 4111 
Q 1594 4750 2688 4750 
Q 3144 4750 3555 4637 
Q 3966 4525 4313 4306 
L 4313 3634 
Q 3963 3931 3569 4081 
Q 3175 4231 2741 4231 
Q 1884 4231 1454 3753 
Q 1025 3275 1025 2328 
Q 1025 1384 1454 906 
Q 1884 428 2741 428 
Q 3075 428 3337 486 
Q 3600 544 3809 666 
z
" id="DejaVuSans-47" transform="scale(0.015625)"/>
       <path d="M 4122 4306 
L 4122 3641 
Q 3803 3938 3442 4084 
Q 3081 4231 2675 4231 
Q 1875 4231 1450 3742 
Q 1025 3253 1025 2328 
Q 1025 1406 1450 917 
Q 1875 428 2675 428 
Q 3081 428 3442 575 
Q 3803 722 4122 1019 
L 4122 359 
Q 3791 134 3420 21 
Q 3050 -91 2638 -91 
Q 1578 -91 968 557 
Q 359 1206 359 2328 
Q 359 3453 968 4101 
Q 1578 4750 2638 4750 
Q 3056 4750 3426 4639 
Q 3797 4528 4122 4306 
z
" id="DejaVuSans-43" transform="scale(0.015625)"/>
       <path d="M 628 4666 
L 1569 4666 
L 2759 1491 
L 3956 4666 
L 4897 4666 
L 4897 0 
L 4281 0 
L 4281 4097 
L 3078 897 
L 2444 897 
L 1241 4097 
L 1241 0 
L 628 0 
L 628 4666 
z
" id="DejaVuSans-4d" transform="scale(0.015625)"/>
       <path d="M 1259 4147 
L 1259 2394 
L 2053 2394 
Q 2494 2394 2734 2622 
Q 2975 2850 2975 3272 
Q 2975 3691 2734 3919 
Q 2494 4147 2053 4147 
L 1259 4147 
z
M 628 4666 
L 2053 4666 
Q 2838 4666 3239 4311 
Q 3641 3956 3641 3272 
Q 3641 2581 3239 2228 
Q 2838 1875 2053 1875 
L 1259 1875 
L 1259 0 
L 628 0 
L 628 4666 
z
" id="DejaVuSans-50" transform="scale(0.015625)"/>
      </defs>
      <use xlink:href="#DejaVuSans-47"/>
      <use x="77.490234" xlink:href="#DejaVuSans-43"/>
      <use x="147.314453" xlink:href="#DejaVuSans-61"/>
      <use x="208.59375" xlink:href="#DejaVuSans-4d"/>
      <use x="294.873047" xlink:href="#DejaVuSans-50"/>
     </g>
    </g>
   </g>
   <g id="line2d_14">
    <path clip-path="url(#p5e8418036a)" d="M 119.872159 400.660019 
L 121.110416 402.245607 
L 122.348674 403.530891 
L 123.586931 404.253581 
L 124.825188 404.548316 
L 126.063445 405.019967 
L 127.301703 406.161324 
L 128.53996 407.98012 
L 131.016474 412.766246 
L 132.254732 415.095936 
L 133.492989 416.757366 
L 134.731246 417.655603 
L 138.446018 419.427552 
L 139.684275 419.512418 
L 140.922533 418.612862 
L 142.16079 416.619296 
L 144.637304 411.215252 
L 145.875562 409.237139 
L 147.113819 408.097559 
L 148.352076 407.639202 
L 149.590334 407.829385 
L 150.828591 408.754872 
L 152.066848 410.404776 
L 155.78162 416.687791 
L 157.019877 418.163746 
L 158.258134 418.929854 
L 159.496392 418.741325 
L 160.734649 417.708787 
L 161.972906 416.353437 
L 163.211163 415.265539 
L 164.449421 414.877766 
L 165.687678 415.398263 
L 166.925935 416.711301 
L 168.164193 418.367746 
L 169.40245 419.792888 
L 170.640707 420.601184 
L 171.878964 420.783812 
L 173.117222 420.679313 
L 174.355479 420.755036 
L 175.593736 421.238066 
L 176.831993 421.938346 
L 178.070251 422.419742 
L 179.308508 422.30441 
L 180.546765 421.560193 
L 181.785022 420.548345 
L 183.02328 419.825635 
L 184.261537 419.787199 
L 185.499794 420.374365 
L 187.976309 422.288226 
L 190.452823 424.239565 
L 191.691081 424.635332 
L 192.929338 424.357229 
L 194.167595 423.737339 
L 195.405852 423.263027 
L 196.64411 423.218619 
L 197.882367 423.621749 
L 199.120624 424.22277 
L 200.358881 424.637235 
L 201.597139 424.591124 
L 202.835396 424.049892 
L 205.311911 422.310908 
L 209.026682 420.336978 
L 211.503197 417.928281 
L 212.741454 417.361925 
L 213.979711 417.871022 
L 215.217969 419.415197 
L 217.694483 423.438713 
L 218.93274 424.836178 
L 220.170998 425.815495 
L 221.409255 426.57067 
L 222.647512 426.890797 
L 223.88577 426.455118 
L 226.362284 424.2683 
L 227.600541 423.571941 
L 228.838799 423.478249 
L 230.077056 423.874 
L 231.315313 424.649706 
L 232.55357 425.84096 
L 235.030085 428.823849 
L 236.268342 429.889239 
L 237.5066 430.358785 
L 238.744857 430.117581 
L 239.983114 429.154179 
L 242.459629 426.528834 
L 243.697886 425.778809 
L 244.936143 425.531134 
L 246.1744 425.591357 
L 248.650915 425.920913 
L 249.889172 425.665383 
L 251.127429 424.825395 
L 254.842201 421.048395 
L 256.080459 420.51286 
L 257.318716 420.458643 
L 259.79523 420.612583 
L 261.033488 420.606947 
L 262.271745 420.487112 
L 263.510002 420.038991 
L 265.986517 418.582139 
L 267.224774 418.299793 
L 268.463031 418.199422 
L 269.701288 417.759525 
L 272.177803 415.948878 
L 273.41606 415.735665 
L 274.654318 416.54223 
L 277.130832 419.42403 
L 278.369089 420.079362 
L 279.607347 419.932493 
L 280.845604 419.426128 
L 282.083861 419.215983 
L 283.322118 419.736811 
L 285.798633 422.041949 
L 287.03689 422.771444 
L 288.275147 422.929154 
L 290.751662 422.41974 
L 291.989919 422.533734 
L 293.228177 423.280951 
L 295.704691 425.674005 
L 296.942948 426.392901 
L 298.181206 426.57582 
L 299.419463 426.380455 
L 303.134235 425.130554 
L 304.372492 424.671572 
L 305.610749 424.050903 
L 306.849006 423.269171 
L 308.087264 422.653365 
L 309.325521 422.457903 
L 311.802036 422.649254 
L 313.040293 422.900916 
L 314.27855 423.289708 
L 315.516807 423.511839 
L 316.755065 423.141524 
L 317.993322 422.02246 
L 319.231579 420.545013 
L 320.469836 419.421086 
L 321.708094 418.998323 
L 322.946351 418.972857 
L 324.184608 418.828747 
L 326.661123 417.802039 
L 327.89938 417.611191 
L 331.614152 418.280966 
L 334.090666 418.402973 
L 336.567181 418.689485 
L 337.805438 418.651783 
L 339.043695 418.262371 
L 340.281953 417.553535 
L 341.52021 417.020836 
L 342.758467 417.312264 
L 343.996725 418.498305 
L 345.234982 419.984627 
L 346.473239 421.093192 
L 347.711496 421.482425 
L 348.949754 421.204111 
L 350.188011 420.721693 
L 351.426268 420.652806 
L 352.664525 421.054225 
L 353.902783 421.276866 
L 355.14104 420.769648 
L 356.379297 419.588341 
L 358.855812 416.634676 
L 360.094069 415.433881 
L 361.332326 414.700262 
L 362.570584 414.515136 
L 363.808841 414.938653 
L 365.047098 416.197509 
L 367.523613 420.48926 
L 368.76187 421.926131 
L 370.000127 422.38641 
L 371.238384 422.170972 
L 372.476642 421.508555 
L 373.714899 420.460276 
L 376.191413 417.991343 
L 377.429671 417.14843 
L 378.667928 416.660607 
L 379.906185 416.435368 
L 381.144443 416.60534 
L 382.3827 417.331054 
L 383.620957 418.283012 
L 384.859214 418.774352 
L 386.097472 418.39324 
L 387.335729 417.284305 
L 388.573986 415.964933 
L 389.812243 415.048488 
L 391.050501 414.963141 
L 393.527015 416.090363 
L 394.765272 415.764335 
L 396.00353 414.526294 
L 397.241787 412.977909 
L 398.480044 411.827466 
L 399.718302 411.477461 
L 400.956559 411.868721 
L 402.194816 412.499603 
L 403.433073 412.727042 
L 404.671331 412.192696 
L 407.147845 409.866442 
L 408.386102 409.12927 
L 409.62436 409.032971 
L 410.862617 409.298473 
L 412.100874 409.353431 
L 413.339132 408.854825 
L 417.053903 406.185003 
L 418.292161 406.208881 
L 419.530418 407.404675 
L 420.768675 409.707359 
L 422.006932 412.329194 
L 423.24519 414.346136 
L 424.483447 415.376774 
L 425.721704 415.524261 
L 426.959961 415.033336 
L 429.436476 413.217992 
L 430.674733 412.667753 
L 431.912991 412.724025 
L 433.151248 413.21877 
L 434.389505 413.592286 
L 435.627762 413.179517 
L 436.86602 411.820588 
L 438.104277 410.110789 
L 439.342534 408.814192 
L 440.580791 408.21066 
L 441.819049 408.058792 
L 443.057306 407.79181 
L 444.295563 406.8626 
L 445.53382 405.226517 
L 446.772078 403.329568 
L 448.010335 401.652763 
L 449.248592 400.411096 
L 450.48685 399.597824 
L 451.725107 399.247761 
L 452.963364 399.506439 
L 454.201621 400.340672 
L 456.678136 402.327073 
L 460.392908 404.83665 
L 461.631165 405.947895 
L 462.869422 407.336969 
L 465.345937 410.400425 
L 466.584194 411.546355 
L 467.822451 412.127568 
L 469.060709 412.18698 
L 470.298966 411.971564 
L 471.537223 411.493 
L 472.77548 410.422732 
L 475.251995 406.709404 
L 476.490252 405.632567 
L 477.728509 405.845111 
L 480.205024 407.79224 
L 481.443281 408.083886 
L 482.681538 407.603892 
L 483.919796 406.473617 
L 487.634568 401.673255 
L 488.872825 401.0106 
L 490.111082 401.09834 
L 491.349339 401.59025 
L 492.587597 401.934606 
L 493.825854 401.540516 
L 495.064111 400.315302 
L 496.302368 398.92171 
L 497.540626 398.174928 
L 498.778883 398.463984 
L 500.01714 399.73729 
L 502.493655 403.345328 
L 503.731912 404.444681 
L 504.970169 404.614573 
L 506.208427 404.000437 
L 511.161456 400.269845 
L 514.876227 397.662924 
L 516.114485 396.552992 
L 518.590999 393.729275 
L 521.067514 390.885889 
L 522.305771 389.847145 
L 523.544028 389.660213 
L 524.782286 390.725849 
L 526.020543 392.912254 
L 527.2588 395.474321 
L 528.497057 397.57866 
L 529.735315 398.744373 
L 530.973572 398.712291 
L 532.211829 397.483442 
L 533.450086 395.561143 
L 534.688344 561.202423 
L 620.128095 561.202423 
L 621.366352 366.477245 
L 622.60461 357.906281 
L 623.842867 351.325688 
L 625.081124 347.306113 
L 626.319382 345.665028 
L 627.557639 345.642607 
L 630.034153 346.984942 
L 631.272411 347.075462 
L 632.510668 346.299395 
L 633.748925 344.955015 
L 634.987182 344.028697 
L 636.22544 344.780953 
L 637.463697 347.940377 
L 638.701954 353.16644 
L 641.178469 365.316403 
L 642.416726 370.157833 
L 643.654983 373.277343 
L 644.893241 374.271813 
L 646.131498 372.931622 
L 647.369755 369.459961 
L 652.322784 350.63632 
L 653.561041 346.27313 
L 654.799299 341.372807 
L 656.037556 335.812282 
L 657.275813 329.691528 
L 658.51407 322.863654 
L 659.752328 314.92993 
L 660.990585 305.558925 
L 662.228842 294.755566 
L 664.705357 270.211598 
L 667.181871 244.512469 
L 668.420129 232.605157 
L 669.658386 221.820863 
L 670.896643 212.273397 
L 672.1349 204.274663 
L 673.373158 198.359976 
L 674.611415 194.933785 
L 675.849672 194.111698 
L 677.087929 195.925882 
L 678.326187 200.266272 
L 680.802701 212.420928 
L 682.040959 216.918722 
L 683.279216 218.537044 
L 684.517473 217.19128 
L 686.993988 211.489794 
L 688.232245 209.641229 
L 689.470502 208.620097 
L 690.708759 207.425105 
L 691.947017 204.47815 
L 693.185274 198.754243 
L 694.423531 190.482046 
L 695.661789 180.435403 
L 696.900046 168.848616 
L 700.614818 128.18288 
L 701.853075 118.932189 
L 703.091332 113.251991 
L 704.329589 108.293094 
L 705.567847 100.915963 
L 706.806104 90.149034 
L 709.282618 66.013207 
L 710.520876 56.845706 
L 711.759133 50.733028 
L 712.99739 47.979282 
L 714.235648 48.454422 
L 716.712162 53.687381 
L 717.950419 54.555996 
L 719.188677 53.079971 
L 720.426934 50.609885 
L 721.665191 49.416754 
L 722.903448 51.311466 
L 724.141706 56.928732 
L 725.379963 65.345812 
L 726.61822 74.544016 
L 727.856477 82.796128 
L 729.094735 89.51517 
L 730.332992 95.383328 
L 731.571249 101.812448 
L 736.524278 131.942808 
L 737.762536 136.60795 
L 739.000793 139.339184 
L 740.23905 140.627165 
L 741.477307 140.902081 
L 742.715565 140.673062 
L 743.953822 141.124256 
L 745.192079 143.439907 
L 747.668594 151.517713 
L 748.906851 153.886503 
L 750.145108 153.920897 
L 751.383366 152.076027 
L 752.621623 149.352734 
L 753.85988 147.119367 
L 755.098137 146.651008 
L 756.336395 148.194438 
L 757.574652 150.634218 
L 758.812909 152.347579 
L 760.051166 152.474408 
L 761.289424 151.125626 
L 762.527681 148.407588 
L 763.765938 144.059302 
L 766.242453 132.994855 
L 767.48071 128.91228 
L 768.718967 126.316978 
L 769.957225 124.971951 
L 771.195482 125.161411 
L 772.433739 127.324038 
L 773.671996 131.650714 
L 774.910254 138.188799 
L 776.148511 146.483562 
L 781.10154 181.939981 
L 784.816312 206.433853 
L 786.054569 213.506616 
L 787.292826 219.501442 
L 788.531084 224.412388 
L 789.769341 227.923679 
L 791.007598 229.661666 
L 792.245855 229.886334 
L 793.484113 229.465177 
L 794.72237 229.385434 
L 795.960627 230.552194 
L 797.198884 233.563232 
L 799.675399 243.107403 
L 800.913656 246.537986 
L 802.151914 247.928484 
L 803.390171 247.935402 
L 804.628428 247.356271 
L 805.866685 247.011021 
L 807.104943 247.704907 
L 809.581457 251.168161 
L 810.819714 252.482027 
L 812.057972 253.57652 
L 813.296229 255.108418 
L 814.534486 257.742056 
L 815.772743 261.659454 
L 819.487515 275.407343 
L 820.725773 279.34181 
L 821.96403 281.918667 
L 823.202287 282.199598 
L 824.440544 279.800121 
L 825.678802 275.247797 
L 826.917059 269.964637 
L 828.155316 265.76684 
L 829.393573 264.289004 
L 830.631831 266.402647 
L 831.870088 271.571891 
L 834.346602 283.885381 
L 835.58486 288.761915 
L 836.823117 292.795545 
L 838.061374 295.626171 
L 839.299632 296.695501 
L 840.537889 296.398517 
L 841.776146 295.952742 
L 843.014403 296.520305 
L 844.252661 298.671446 
L 845.490918 302.15748 
L 847.967432 310.00377 
L 849.20569 313.085542 
L 851.682204 317.736998 
L 852.920461 319.925728 
L 854.158719 321.487835 
L 855.396976 322.036877 
L 856.635233 321.677111 
L 857.873491 320.426586 
L 859.111748 318.209075 
L 860.350005 315.363757 
L 861.588262 312.898255 
L 862.82652 312.058824 
L 864.064777 313.19676 
L 865.303034 315.249371 
L 866.541291 316.699756 
L 867.779549 316.776604 
L 869.017806 315.727893 
L 871.49432 312.72426 
L 872.732578 310.978105 
L 873.970835 308.959039 
L 875.209092 307.216138 
L 876.44735 306.453428 
L 877.685607 306.84835 
L 878.923864 307.992001 
L 882.638636 311.783115 
L 883.876893 313.77903 
L 885.11515 316.759736 
L 887.591665 324.575951 
L 888.829922 328.576149 
L 890.06818 332.143031 
L 891.306437 334.663092 
L 892.544694 335.515692 
L 893.782951 334.57932 
L 895.021209 332.363033 
L 896.259466 329.65832 
L 897.497723 327.235573 
L 898.73598 325.619637 
L 899.974238 561.202423 
L 991.605275 561.202423 
L 992.843533 319.767348 
L 994.08179 319.186872 
L 995.320047 321.350821 
L 996.558305 326.70796 
L 999.034819 340.665338 
L 1000.273076 345.258181 
L 1001.511334 347.407249 
L 1002.749591 347.626652 
L 1003.987848 346.600387 
L 1005.226105 344.907877 
L 1006.464363 342.69858 
L 1007.70262 339.754529 
L 1008.940877 335.978225 
L 1012.655649 323.231049 
L 1013.893906 320.135068 
L 1015.132164 317.427189 
L 1020.085193 305.726451 
L 1021.32345 303.260625 
L 1022.561707 301.046776 
L 1023.799964 299.086084 
L 1025.038222 296.798687 
L 1026.276479 293.405119 
L 1027.514736 288.671907 
L 1029.991251 277.517468 
L 1031.229508 272.795701 
L 1034.94428 261.398229 
L 1036.182537 561.202423 
L 1037.420794 561.202423 
L 1038.659052 257.9827 
L 1039.897309 260.985422 
L 1042.373823 269.815063 
L 1043.612081 273.375491 
L 1044.850338 275.125938 
L 1046.088595 274.102471 
L 1047.326852 269.580464 
L 1048.56511 261.901423 
L 1052.279882 234.427298 
L 1053.518139 227.823347 
L 1054.756396 223.856847 
L 1055.994653 223.148367 
L 1057.232911 225.807865 
L 1058.471168 231.356918 
L 1059.709425 239.013992 
L 1062.18594 255.408955 
L 1063.424197 261.164894 
L 1065.900711 268.770008 
L 1067.138969 561.202423 
L 1068.377226 561.202423 
L 1069.615483 284.335899 
L 1070.853741 288.816838 
L 1072.091998 291.100195 
L 1073.330255 291.043613 
L 1074.568512 289.190935 
L 1077.045027 283.465316 
L 1078.283284 561.202423 
L 1079.521541 282.774015 
L 1080.759799 285.905868 
L 1081.998056 291.141841 
L 1084.474571 303.394652 
L 1085.712828 561.202423 
L 1086.951085 308.36269 
L 1088.189342 307.458677 
L 1089.4276 305.459203 
L 1090.665857 303.239673 
L 1091.904114 301.60011 
L 1093.142371 301.404866 
L 1094.380629 561.202423 
L 1095.618886 307.337972 
L 1098.0954 317.727959 
L 1099.333658 321.497457 
L 1100.571915 323.315333 
L 1101.810172 322.965038 
L 1103.04843 561.202423 
L 1104.286687 316.443233 
L 1105.524944 311.827651 
L 1106.763201 308.112099 
L 1108.001459 306.121472 
L 1109.239716 305.54322 
L 1111.71623 305.296535 
L 1115.431002 304.155906 
L 1116.669259 303.267451 
L 1117.907517 301.58565 
L 1119.145774 298.770887 
L 1120.384031 294.417453 
L 1121.622289 288.465567 
L 1124.098803 274.062785 
L 1125.33706 266.339748 
L 1126.575318 257.818716 
L 1130.290089 229.478832 
L 1131.528347 222.854479 
L 1132.766604 218.661661 
L 1134.004861 215.391652 
L 1135.243118 211.015387 
L 1136.481376 204.240941 
L 1137.719633 195.094056 
L 1141.434405 164.637875 
L 1142.672662 156.03624 
L 1143.910919 149.194546 
L 1145.149177 144.835568 
L 1146.387434 143.332514 
L 1147.625691 144.563937 
L 1148.863948 148.140211 
L 1151.340463 158.573115 
L 1152.57872 162.353863 
L 1153.816977 163.529125 
L 1155.055235 161.593557 
L 1156.293492 156.38235 
L 1157.531749 148.05809 
L 1160.008264 126.902004 
L 1161.246521 117.812796 
L 1162.484778 111.165315 
L 1163.723036 107.269323 
L 1164.961293 106.391595 
L 1166.19955 108.459902 
L 1167.437807 113.039589 
L 1168.676065 119.571544 
L 1169.914322 126.893336 
L 1171.152579 133.229103 
L 1172.390837 137.780345 
L 1176.105608 148.828339 
L 1177.343866 151.272511 
L 1178.582123 151.498369 
L 1179.82038 148.542053 
L 1181.058637 142.201039 
L 1182.296895 133.098441 
L 1186.011666 100.907326 
L 1187.249924 94.285139 
L 1188.488181 90.775382 
L 1189.726438 89.563356 
L 1190.964696 90.092027 
L 1192.202953 91.921507 
L 1194.679467 96.954391 
L 1195.917725 98.638756 
L 1197.155982 99.304846 
L 1198.394239 99.615589 
L 1199.632496 100.34567 
L 1200.870754 101.738913 
L 1202.109011 103.692848 
L 1203.347268 105.985131 
L 1204.585525 108.636216 
L 1205.823783 112.314697 
L 1207.06204 117.663939 
L 1208.300297 124.503814 
L 1209.538555 132.453277 
L 1210.776812 141.585699 
L 1213.253326 162.938033 
L 1215.729841 183.905031 
L 1216.968098 192.481869 
L 1218.206355 199.721457 
L 1219.444613 206.047497 
L 1220.68287 211.368241 
L 1221.921127 215.216365 
L 1223.159384 217.6981 
L 1225.635899 221.465712 
L 1226.874156 224.066914 
L 1228.112414 227.403078 
L 1229.350671 230.374301 
L 1230.588928 231.432094 
L 1231.827185 229.892013 
L 1233.065443 226.458905 
L 1235.541957 219.036515 
L 1238.018472 211.874875 
L 1239.256729 209.381457 
L 1240.494986 208.737993 
L 1241.733243 209.884621 
L 1242.971501 212.039094 
L 1244.209758 213.858392 
L 1245.448015 213.830489 
L 1246.686273 211.011048 
L 1247.92453 205.506036 
L 1250.401044 190.829409 
L 1251.639302 185.380669 
L 1252.877559 184.028192 
L 1254.115816 186.998695 
L 1256.592331 197.986021 
L 1260.307103 215.436177 
L 1261.54536 219.981815 
L 1262.783617 223.002695 
L 1264.021874 224.859191 
L 1265.260132 226.10714 
L 1267.736646 228.041895 
L 1268.974903 229.030387 
L 1270.213161 230.610768 
L 1271.451418 233.227934 
L 1272.689675 236.969948 
L 1275.16619 245.982617 
L 1276.404447 249.257968 
L 1277.642704 250.861028 
L 1278.880962 251.126096 
L 1280.119219 250.595119 
L 1282.595733 248.400192 
L 1283.833991 247.949218 
L 1285.072248 249.095787 
L 1286.310505 251.957894 
L 1288.78702 259.326618 
L 1290.025277 261.518207 
L 1291.263534 261.897082 
L 1292.501791 261.273747 
L 1293.740049 261.097475 
L 1294.978306 262.210797 
L 1296.216563 264.563177 
L 1298.693078 270.89643 
L 1299.931335 273.379637 
L 1301.169592 274.305934 
L 1302.40785 273.337748 
L 1304.884364 268.423764 
L 1306.122621 266.912593 
L 1307.360879 267.030603 
L 1308.599136 268.729427 
L 1309.837393 271.930101 
L 1313.552165 285.331415 
L 1317.266937 294.867758 
L 1318.505194 298.279135 
L 1319.743451 300.641447 
L 1320.981709 301.340142 
L 1322.219966 300.750395 
L 1323.458223 299.930846 
L 1324.69648 299.86438 
L 1325.934738 300.77885 
L 1327.172995 302.094193 
L 1328.411252 302.939105 
L 1329.649509 302.552176 
L 1330.887767 300.551126 
L 1334.602539 290.847945 
L 1335.840796 288.94189 
L 1337.079053 288.749255 
L 1338.31731 290.646878 
L 1340.793825 297.490906 
L 1342.032082 299.295601 
L 1343.270339 299.164613 
L 1344.508597 298.113486 
L 1345.746854 297.43865 
L 1346.985111 297.763522 
L 1348.223368 299.08096 
L 1349.461626 301.316915 
L 1351.93814 307.503755 
L 1353.176398 309.713271 
L 1354.414655 310.522014 
L 1355.652912 310.234839 
L 1356.891169 309.151695 
L 1358.129427 307.379596 
L 1360.605941 302.936489 
L 1361.844198 301.384317 
L 1363.082456 300.736297 
L 1364.320713 300.679003 
L 1365.55897 300.872142 
L 1366.797228 301.265431 
L 1371.750257 303.435532 
L 1372.988514 304.297838 
L 1374.226771 304.869562 
L 1375.465028 304.7979 
L 1376.703286 303.880073 
L 1377.941543 301.871872 
L 1379.1798 298.625467 
L 1382.894572 286.080288 
L 1384.132829 283.886594 
L 1385.371087 283.795422 
L 1386.609344 286.077263 
L 1387.847601 290.3926 
L 1389.085858 295.481914 
L 1390.324116 299.930101 
L 1391.562373 303.02323 
L 1392.80063 304.700442 
L 1394.038887 305.347027 
L 1396.515402 306.004264 
L 1397.753659 306.48138 
L 1398.991916 306.816134 
L 1400.230174 306.987524 
L 1401.468431 307.434507 
L 1402.706688 308.761624 
L 1403.944946 311.037135 
L 1405.183203 313.641835 
L 1406.42146 315.898821 
L 1407.659717 317.455435 
L 1408.897975 318.228482 
L 1410.136232 318.299058 
L 1411.374489 317.744918 
L 1413.851004 315.756011 
L 1415.089261 315.182965 
L 1416.327518 314.852832 
L 1417.565775 314.333397 
L 1420.04229 312.728022 
L 1421.280547 313.032382 
L 1422.518805 314.986504 
L 1423.757062 317.925146 
L 1424.995319 320.312953 
L 1426.233576 320.841191 
L 1427.471834 319.115501 
L 1429.948348 312.562808 
L 1431.186605 310.384164 
L 1432.424863 309.866149 
L 1433.66312 311.160739 
L 1434.901377 314.153401 
L 1437.377892 322.265471 
L 1438.616149 325.509457 
L 1439.854406 327.394278 
L 1441.092664 327.611574 
L 1442.330921 326.316206 
L 1446.045693 320.139372 
L 1447.28395 317.233336 
L 1449.760464 309.653928 
L 1450.998722 305.862473 
L 1452.236979 302.657038 
L 1453.475236 300.576289 
L 1454.713494 300.12855 
L 1455.951751 301.65769 
L 1457.190008 305.097618 
L 1459.666523 314.22398 
L 1460.90478 317.242388 
L 1462.143037 318.197991 
L 1464.619552 317.301853 
L 1465.857809 317.557329 
L 1468.334323 319.397528 
L 1469.572581 319.826782 
L 1470.810838 319.5517 
L 1472.049095 318.54498 
L 1473.287353 316.888924 
L 1474.52561 314.606885 
L 1475.763867 311.848372 
L 1477.002124 309.369114 
L 1478.240382 308.135163 
L 1479.478639 308.347337 
L 1480.716896 309.143299 
L 1481.955153 308.966844 
L 1483.193411 306.466568 
L 1484.431668 301.630597 
L 1490.622954 272.071542 
L 1491.861212 266.763542 
L 1493.099469 262.306492 
L 1494.337726 259.262833 
L 1495.575983 257.950802 
L 1498.052498 257.626478 
L 1499.290755 256.561648 
L 1500.529012 254.614354 
L 1501.76727 252.090982 
L 1506.720299 240.398638 
L 1507.958556 237.83078 
L 1509.196813 234.726914 
L 1511.673328 227.914576 
L 1512.911585 225.495682 
L 1514.149842 223.714299 
L 1515.3881 222.39579 
L 1516.626357 221.805987 
L 1517.864614 222.273565 
L 1519.102871 223.495135 
L 1520.341129 224.415038 
L 1521.579386 223.647612 
L 1522.817643 219.976575 
L 1524.0559 213.136112 
L 1526.532415 196.096185 
L 1527.770672 190.024928 
L 1529.00893 186.386461 
L 1530.247187 183.592426 
L 1531.485444 179.530375 
L 1532.723701 173.418209 
L 1533.961959 166.391364 
L 1535.200216 160.362077 
L 1536.438473 156.687981 
L 1537.67673 155.614796 
L 1538.914988 156.441742 
L 1540.153245 158.257069 
L 1541.391502 160.364422 
L 1542.62976 162.088868 
L 1543.868017 163.0945 
L 1545.106274 163.91032 
L 1546.344531 165.429416 
L 1547.582789 168.071818 
L 1548.821046 171.646795 
L 1553.774075 187.659314 
L 1555.012332 190.857635 
L 1556.250589 193.737515 
L 1557.488847 196.183042 
L 1558.727104 198.022152 
L 1559.965361 200.114481 
L 1561.203619 204.252167 
L 1562.441876 211.143464 
L 1563.680133 219.106417 
L 1564.91839 225.3901 
L 1566.156648 227.923266 
L 1567.394905 225.695296 
L 1568.633162 218.893309 
L 1569.871419 208.771295 
L 1571.109677 196.476652 
L 1572.347934 182.372083 
L 1574.824448 151.648117 
L 1576.062706 137.665874 
L 1577.300963 125.280312 
L 1579.777478 103.354929 
L 1581.015735 93.411344 
L 1582.253992 84.946842 
L 1583.492249 78.251938 
L 1584.730507 73.512946 
L 1585.968764 71.793886 
L 1587.207021 73.46097 
L 1588.445278 76.603242 
L 1589.683536 78.737386 
L 1590.921793 78.825488 
L 1592.16005 76.854598 
L 1593.398307 73.054141 
L 1594.636565 68.336627 
L 1595.874822 64.472749 
L 1597.113079 63.152412 
L 1598.351337 65.12943 
L 1599.589594 69.948657 
L 1602.066108 82.119165 
L 1604.542623 93.381144 
L 1605.78088 100.948845 
L 1607.019137 109.98962 
L 1608.257395 117.589498 
L 1609.495652 120.996066 
L 1610.733909 120.07153 
L 1613.210424 113.025996 
L 1614.448681 110.337892 
L 1615.686938 109.48956 
L 1616.925196 111.446041 
L 1618.163453 116.151206 
L 1619.40171 121.531866 
L 1620.639967 124.843692 
L 1621.878225 124.597038 
L 1623.116482 120.881526 
L 1624.354739 114.738533 
L 1625.592996 107.805195 
L 1626.831254 102.255855 
L 1628.069511 100.001938 
L 1629.307768 101.362593 
L 1630.546026 105.116944 
L 1631.784283 109.635636 
L 1633.02254 113.111862 
L 1634.260797 113.577943 
L 1635.499055 110.072293 
L 1636.737312 103.23464 
L 1640.452084 77.477256 
L 1641.690341 71.769351 
L 1641.690341 71.769351 
" style="fill:none;stroke:#008000;stroke-linecap:square;stroke-width:1.5;"/>
   </g>
   <g id="patch_3">
    <path d="M 43.78125 586.86358 
L 43.78125 22.318125 
" style="fill:none;stroke:#000000;stroke-linecap:square;stroke-linejoin:miter;stroke-width:0.8;"/>
   </g>
   <g id="patch_4">
    <path d="M 1717.78125 586.86358 
L 1717.78125 22.318125 
" style="fill:none;stroke:#000000;stroke-linecap:square;stroke-linejoin:miter;stroke-width:0.8;"/>
   </g>
   <g id="patch_5">
    <path d="M 43.78125 586.86358 
L 1717.78125 586.86358 
" style="fill:none;stroke:#000000;stroke-linecap:square;stroke-linejoin:miter;stroke-width:0.8;"/>
   </g>
   <g id="patch_6">
    <path d="M 43.78125 22.318125 
L 1717.78125 22.318125 
" style="fill:none;stroke:#000000;stroke-linecap:square;stroke-linejoin:miter;stroke-width:0.8;"/>
   </g>
   <g id="text_16">
    <!-- before binarisation -->
    <g transform="translate(824.1825 16.318125)scale(0.12 -0.12)">
     <defs>
      <path d="M 3116 1747 
Q 3116 2381 2855 2742 
Q 2594 3103 2138 3103 
Q 1681 3103 1420 2742 
Q 1159 2381 1159 1747 
Q 1159 1113 1420 752 
Q 1681 391 2138 391 
Q 2594 391 2855 752 
Q 3116 1113 3116 1747 
z
M 1159 2969 
Q 1341 3281 1617 3432 
Q 1894 3584 2278 3584 
Q 2916 3584 3314 3078 
Q 3713 2572 3713 1747 
Q 3713 922 3314 415 
Q 2916 -91 2278 -91 
Q 1894 -91 1617 61 
Q 1341 213 1159 525 
L 1159 0 
L 581 0 
L 581 4863 
L 1159 4863 
L 1159 2969 
z
" id="DejaVuSans-62" transform="scale(0.015625)"/>
      <path d="M 1959 3097 
Q 1497 3097 1228 2736 
Q 959 2375 959 1747 
Q 959 1119 1226 758 
Q 1494 397 1959 397 
Q 2419 397 2687 759 
Q 2956 1122 2956 1747 
Q 2956 2369 2687 2733 
Q 2419 3097 1959 3097 
z
M 1959 3584 
Q 2709 3584 3137 3096 
Q 3566 2609 3566 1747 
Q 3566 888 3137 398 
Q 2709 -91 1959 -91 
Q 1206 -91 779 398 
Q 353 888 353 1747 
Q 353 2609 779 3096 
Q 1206 3584 1959 3584 
z
" id="DejaVuSans-6f" transform="scale(0.015625)"/>
      <path id="DejaVuSans-20" transform="scale(0.015625)"/>
      <path d="M 603 3500 
L 1178 3500 
L 1178 0 
L 603 0 
L 603 3500 
z
M 603 4863 
L 1178 4863 
L 1178 4134 
L 603 4134 
L 603 4863 
z
" id="DejaVuSans-69" transform="scale(0.015625)"/>
      <path d="M 3513 2113 
L 3513 0 
L 2938 0 
L 2938 2094 
Q 2938 2591 2744 2837 
Q 2550 3084 2163 3084 
Q 1697 3084 1428 2787 
Q 1159 2491 1159 1978 
L 1159 0 
L 581 0 
L 581 3500 
L 1159 3500 
L 1159 2956 
Q 1366 3272 1645 3428 
Q 1925 3584 2291 3584 
Q 2894 3584 3203 3211 
Q 3513 2838 3513 2113 
z
" id="DejaVuSans-6e" transform="scale(0.015625)"/>
      <path d="M 2834 3397 
L 2834 2853 
Q 2591 2978 2328 3040 
Q 2066 3103 1784 3103 
Q 1356 3103 1142 2972 
Q 928 2841 928 2578 
Q 928 2378 1081 2264 
Q 1234 2150 1697 2047 
L 1894 2003 
Q 2506 1872 2764 1633 
Q 3022 1394 3022 966 
Q 3022 478 2636 193 
Q 2250 -91 1575 -91 
Q 1294 -91 989 -36 
Q 684 19 347 128 
L 347 722 
Q 666 556 975 473 
Q 1284 391 1588 391 
Q 1994 391 2212 530 
Q 2431 669 2431 922 
Q 2431 1156 2273 1281 
Q 2116 1406 1581 1522 
L 1381 1569 
Q 847 1681 609 1914 
Q 372 2147 372 2553 
Q 372 3047 722 3315 
Q 1072 3584 1716 3584 
Q 2034 3584 2315 3537 
Q 2597 3491 2834 3397 
z
" id="DejaVuSans-73" transform="scale(0.015625)"/>
      <path d="M 1172 4494 
L 1172 3500 
L 2356 3500 
L 2356 3053 
L 1172 3053 
L 1172 1153 
Q 1172 725 1289 603 
Q 1406 481 1766 481 
L 2356 481 
L 2356 0 
L 1766 0 
Q 1100 0 847 248 
Q 594 497 594 1153 
L 594 3053 
L 172 3053 
L 172 3500 
L 594 3500 
L 594 4494 
L 1172 4494 
z
" id="DejaVuSans-74" transform="scale(0.015625)"/>
     </defs>
     <use xlink:href="#DejaVuSans-62"/>
     <use x="63.476562" xlink:href="#DejaVuSans-65"/>
     <use x="125" xlink:href="#DejaVuSans-66"/>
     <use x="160.205078" xlink:href="#DejaVuSans-6f"/>
     <use x="221.386719" xlink:href="#DejaVuSans-72"/>
     <use x="260.25" xlink:href="#DejaVuSans-65"/>
     <use x="321.773438" xlink:href="#DejaVuSans-20"/>
     <use x="353.560547" xlink:href="#DejaVuSans-62"/>
     <use x="417.037109" xlink:href="#DejaVuSans-69"/>
     <use x="444.820312" xlink:href="#DejaVuSans-6e"/>
     <use x="508.199219" xlink:href="#DejaVuSans-61"/>
     <use x="569.478516" xlink:href="#DejaVuSans-72"/>
     <use x="610.591797" xlink:href="#DejaVuSans-69"/>
     <use x="638.375" xlink:href="#DejaVuSans-73"/>
     <use x="690.474609" xlink:href="#DejaVuSans-61"/>
     <use x="751.753906" xlink:href="#DejaVuSans-74"/>
     <use x="790.962891" xlink:href="#DejaVuSans-69"/>
     <use x="818.746094" xlink:href="#DejaVuSans-6f"/>
     <use x="879.927734" xlink:href="#DejaVuSans-6e"/>
    </g>
   </g>
  </g>
  <g id="axes_2">
   <g id="patch_7">
    <path d="M 43.78125 1264.318125 
L 1717.78125 1264.318125 
L 1717.78125 699.77267 
L 43.78125 699.77267 
z
" style="fill:#ffffff;"/>
   </g>
   <g id="matplotlib.axis_3">
    <g id="xtick_8">
     <g id="line2d_15">
      <g>
       <use style="stroke:#000000;stroke-width:0.8;" x="119.872159" xlink:href="#m9ed20e1792" y="1264.318125"/>
      </g>
     </g>
     <g id="text_17">
      <!-- 0 -->
      <g transform="translate(116.690909 1278.916563)scale(0.1 -0.1)">
       <use xlink:href="#DejaVuSans-30"/>
      </g>
     </g>
    </g>
    <g id="xtick_9">
     <g id="line2d_16">
      <g>
       <use style="stroke:#000000;stroke-width:0.8;" x="367.523613" xlink:href="#m9ed20e1792" y="1264.318125"/>
      </g>
     </g>
     <g id="text_18">
      <!-- 200 -->
      <g transform="translate(357.979863 1278.916563)scale(0.1 -0.1)">
       <use xlink:href="#DejaVuSans-32"/>
       <use x="63.623047" xlink:href="#DejaVuSans-30"/>
       <use x="127.246094" xlink:href="#DejaVuSans-30"/>
      </g>
     </g>
    </g>
    <g id="xtick_10">
     <g id="line2d_17">
      <g>
       <use style="stroke:#000000;stroke-width:0.8;" x="615.175066" xlink:href="#m9ed20e1792" y="1264.318125"/>
      </g>
     </g>
     <g id="text_19">
      <!-- 400 -->
      <g transform="translate(605.631316 1278.916563)scale(0.1 -0.1)">
       <use xlink:href="#DejaVuSans-34"/>
       <use x="63.623047" xlink:href="#DejaVuSans-30"/>
       <use x="127.246094" xlink:href="#DejaVuSans-30"/>
      </g>
     </g>
    </g>
    <g id="xtick_11">
     <g id="line2d_18">
      <g>
       <use style="stroke:#000000;stroke-width:0.8;" x="862.82652" xlink:href="#m9ed20e1792" y="1264.318125"/>
      </g>
     </g>
     <g id="text_20">
      <!-- 600 -->
      <g transform="translate(853.28277 1278.916563)scale(0.1 -0.1)">
       <use xlink:href="#DejaVuSans-36"/>
       <use x="63.623047" xlink:href="#DejaVuSans-30"/>
       <use x="127.246094" xlink:href="#DejaVuSans-30"/>
      </g>
     </g>
    </g>
    <g id="xtick_12">
     <g id="line2d_19">
      <g>
       <use style="stroke:#000000;stroke-width:0.8;" x="1110.477973" xlink:href="#m9ed20e1792" y="1264.318125"/>
      </g>
     </g>
     <g id="text_21">
      <!-- 800 -->
      <g transform="translate(1100.934223 1278.916563)scale(0.1 -0.1)">
       <use xlink:href="#DejaVuSans-38"/>
       <use x="63.623047" xlink:href="#DejaVuSans-30"/>
       <use x="127.246094" xlink:href="#DejaVuSans-30"/>
      </g>
     </g>
    </g>
    <g id="xtick_13">
     <g id="line2d_20">
      <g>
       <use style="stroke:#000000;stroke-width:0.8;" x="1358.129427" xlink:href="#m9ed20e1792" y="1264.318125"/>
      </g>
     </g>
     <g id="text_22">
      <!-- 1000 -->
      <g transform="translate(1345.404427 1278.916563)scale(0.1 -0.1)">
       <use xlink:href="#DejaVuSans-31"/>
       <use x="63.623047" xlink:href="#DejaVuSans-30"/>
       <use x="127.246094" xlink:href="#DejaVuSans-30"/>
       <use x="190.869141" xlink:href="#DejaVuSans-30"/>
      </g>
     </g>
    </g>
    <g id="xtick_14">
     <g id="line2d_21">
      <g>
       <use style="stroke:#000000;stroke-width:0.8;" x="1605.78088" xlink:href="#m9ed20e1792" y="1264.318125"/>
      </g>
     </g>
     <g id="text_23">
      <!-- 1200 -->
      <g transform="translate(1593.05588 1278.916563)scale(0.1 -0.1)">
       <use xlink:href="#DejaVuSans-31"/>
       <use x="63.623047" xlink:href="#DejaVuSans-32"/>
       <use x="127.246094" xlink:href="#DejaVuSans-30"/>
       <use x="190.869141" xlink:href="#DejaVuSans-30"/>
      </g>
     </g>
    </g>
    <g id="text_24">
     <!-- frame -->
     <g transform="translate(865.954687 1292.594688)scale(0.1 -0.1)">
      <use xlink:href="#DejaVuSans-66"/>
      <use x="35.205078" xlink:href="#DejaVuSans-72"/>
      <use x="76.318359" xlink:href="#DejaVuSans-61"/>
      <use x="137.597656" xlink:href="#DejaVuSans-6d"/>
      <use x="235.009766" xlink:href="#DejaVuSans-65"/>
     </g>
    </g>
   </g>
   <g id="matplotlib.axis_4">
    <g id="ytick_7">
     <g id="line2d_22">
      <g>
       <use style="stroke:#000000;stroke-width:0.8;" x="43.78125" xlink:href="#m4151a867d0" y="1238.656968"/>
      </g>
     </g>
     <g id="text_25">
      <!-- 0.0 -->
      <g transform="translate(20.878125 1242.456187)scale(0.1 -0.1)">
       <use xlink:href="#DejaVuSans-30"/>
       <use x="63.623047" xlink:href="#DejaVuSans-2e"/>
       <use x="95.410156" xlink:href="#DejaVuSans-30"/>
      </g>
     </g>
    </g>
    <g id="ytick_8">
     <g id="line2d_23">
      <g>
       <use style="stroke:#000000;stroke-width:0.8;" x="43.78125" xlink:href="#m4151a867d0" y="1136.01234"/>
      </g>
     </g>
     <g id="text_26">
      <!-- 0.2 -->
      <g transform="translate(20.878125 1139.811559)scale(0.1 -0.1)">
       <use xlink:href="#DejaVuSans-30"/>
       <use x="63.623047" xlink:href="#DejaVuSans-2e"/>
       <use x="95.410156" xlink:href="#DejaVuSans-32"/>
      </g>
     </g>
    </g>
    <g id="ytick_9">
     <g id="line2d_24">
      <g>
       <use style="stroke:#000000;stroke-width:0.8;" x="43.78125" xlink:href="#m4151a867d0" y="1033.367712"/>
      </g>
     </g>
     <g id="text_27">
      <!-- 0.4 -->
      <g transform="translate(20.878125 1037.166931)scale(0.1 -0.1)">
       <use xlink:href="#DejaVuSans-30"/>
       <use x="63.623047" xlink:href="#DejaVuSans-2e"/>
       <use x="95.410156" xlink:href="#DejaVuSans-34"/>
      </g>
     </g>
    </g>
    <g id="ytick_10">
     <g id="line2d_25">
      <g>
       <use style="stroke:#000000;stroke-width:0.8;" x="43.78125" xlink:href="#m4151a867d0" y="930.723084"/>
      </g>
     </g>
     <g id="text_28">
      <!-- 0.6 -->
      <g transform="translate(20.878125 934.522302)scale(0.1 -0.1)">
       <use xlink:href="#DejaVuSans-30"/>
       <use x="63.623047" xlink:href="#DejaVuSans-2e"/>
       <use x="95.410156" xlink:href="#DejaVuSans-36"/>
      </g>
     </g>
    </g>
    <g id="ytick_11">
     <g id="line2d_26">
      <g>
       <use style="stroke:#000000;stroke-width:0.8;" x="43.78125" xlink:href="#m4151a867d0" y="828.078456"/>
      </g>
     </g>
     <g id="text_29">
      <!-- 0.8 -->
      <g transform="translate(20.878125 831.877674)scale(0.1 -0.1)">
       <use xlink:href="#DejaVuSans-30"/>
       <use x="63.623047" xlink:href="#DejaVuSans-2e"/>
       <use x="95.410156" xlink:href="#DejaVuSans-38"/>
      </g>
     </g>
    </g>
    <g id="ytick_12">
     <g id="line2d_27">
      <g>
       <use style="stroke:#000000;stroke-width:0.8;" x="43.78125" xlink:href="#m4151a867d0" y="725.433827"/>
      </g>
     </g>
     <g id="text_30">
      <!-- 1.0 -->
      <g transform="translate(20.878125 729.233046)scale(0.1 -0.1)">
       <use xlink:href="#DejaVuSans-31"/>
       <use x="63.623047" xlink:href="#DejaVuSans-2e"/>
       <use x="95.410156" xlink:href="#DejaVuSans-30"/>
      </g>
     </g>
    </g>
    <g id="text_31">
     <!-- GCaMP -->
     <g transform="translate(14.798437 999.803991)rotate(-90)scale(0.1 -0.1)">
      <use xlink:href="#DejaVuSans-47"/>
      <use x="77.490234" xlink:href="#DejaVuSans-43"/>
      <use x="147.314453" xlink:href="#DejaVuSans-61"/>
      <use x="208.59375" xlink:href="#DejaVuSans-4d"/>
      <use x="294.873047" xlink:href="#DejaVuSans-50"/>
     </g>
    </g>
   </g>
   <g id="line2d_28">
    <path clip-path="url(#p0874c8a402)" d="M 119.872159 1238.656968 
L 694.423531 1238.656968 
L 695.661789 725.433827 
L 781.10154 725.433827 
L 782.339797 1238.656968 
L 1137.719633 1238.656968 
L 1138.95789 725.433827 
L 1215.729841 725.433827 
L 1216.968098 1238.656968 
L 1250.401044 1238.656968 
L 1251.639302 725.433827 
L 1254.115816 725.433827 
L 1255.354073 1238.656968 
L 1527.770672 1238.656968 
L 1529.00893 725.433827 
L 1553.774075 725.433827 
L 1555.012332 1238.656968 
L 1571.109677 1238.656968 
L 1572.347934 725.433827 
L 1641.690341 725.433827 
L 1641.690341 725.433827 
" style="fill:none;stroke:#008000;stroke-linecap:square;stroke-width:1.5;"/>
   </g>
   <g id="patch_8">
    <path d="M 43.78125 1264.318125 
L 43.78125 699.77267 
" style="fill:none;stroke:#000000;stroke-linecap:square;stroke-linejoin:miter;stroke-width:0.8;"/>
   </g>
   <g id="patch_9">
    <path d="M 1717.78125 1264.318125 
L 1717.78125 699.77267 
" style="fill:none;stroke:#000000;stroke-linecap:square;stroke-linejoin:miter;stroke-width:0.8;"/>
   </g>
   <g id="patch_10">
    <path d="M 43.78125 1264.318125 
L 1717.78125 1264.318125 
" style="fill:none;stroke:#000000;stroke-linecap:square;stroke-linejoin:miter;stroke-width:0.8;"/>
   </g>
   <g id="patch_11">
    <path d="M 43.78125 699.77267 
L 1717.78125 699.77267 
" style="fill:none;stroke:#000000;stroke-linecap:square;stroke-linejoin:miter;stroke-width:0.8;"/>
   </g>
   <g id="text_32">
    <!-- before binarisation -->
    <g transform="translate(824.1825 693.77267)scale(0.12 -0.12)">
     <use xlink:href="#DejaVuSans-62"/>
     <use x="63.476562" xlink:href="#DejaVuSans-65"/>
     <use x="125" xlink:href="#DejaVuSans-66"/>
     <use x="160.205078" xlink:href="#DejaVuSans-6f"/>
     <use x="221.386719" xlink:href="#DejaVuSans-72"/>
     <use x="260.25" xlink:href="#DejaVuSans-65"/>
     <use x="321.773438" xlink:href="#DejaVuSans-20"/>
     <use x="353.560547" xlink:href="#DejaVuSans-62"/>
     <use x="417.037109" xlink:href="#DejaVuSans-69"/>
     <use x="444.820312" xlink:href="#DejaVuSans-6e"/>
     <use x="508.199219" xlink:href="#DejaVuSans-61"/>
     <use x="569.478516" xlink:href="#DejaVuSans-72"/>
     <use x="610.591797" xlink:href="#DejaVuSans-69"/>
     <use x="638.375" xlink:href="#DejaVuSans-73"/>
     <use x="690.474609" xlink:href="#DejaVuSans-61"/>
     <use x="751.753906" xlink:href="#DejaVuSans-74"/>
     <use x="790.962891" xlink:href="#DejaVuSans-69"/>
     <use x="818.746094" xlink:href="#DejaVuSans-6f"/>
     <use x="879.927734" xlink:href="#DejaVuSans-6e"/>
    </g>
   </g>
  </g>
 </g>
 <defs>
  <clipPath id="p5e8418036a">
   <rect height="564.545455" width="1674" x="43.78125" y="22.318125"/>
  </clipPath>
  <clipPath id="p0874c8a402">
   <rect height="564.545455" width="1674" x="43.78125" y="699.77267"/>
  </clipPath>
 </defs>
</svg>
