<?xml version="1.0" encoding="utf-8" standalone="no"?>
<!DOCTYPE svg PUBLIC "-//W3C//DTD SVG 1.1//EN"
  "http://www.w3.org/Graphics/SVG/1.1/DTD/svg11.dtd">
<svg height="1301.874375pt" version="1.1" viewBox="0 0 1724.98125 1301.874375" width="1724.98125pt" xmlns="http://www.w3.org/2000/svg" xmlns:xlink="http://www.w3.org/1999/xlink">
 <metadata>
  <rdf:RDF xmlns:cc="http://creativecommons.org/ns#" xmlns:dc="http://purl.org/dc/elements/1.1/" xmlns:rdf="http://www.w3.org/1999/02/22-rdf-syntax-ns#">
   <cc:Work>
    <dc:type rdf:resource="http://purl.org/dc/dcmitype/StillImage"/>
    <dc:date>2022-07-24T15:54:40.679657</dc:date>
    <dc:format>image/svg+xml</dc:format>
    <dc:creator>
     <cc:Agent>
      <dc:title>Matplotlib v3.4.2, https://matplotlib.org/</dc:title>
     </cc:Agent>
    </dc:creator>
   </cc:Work>
  </rdf:RDF>
 </metadata>
 <defs>
  <style type="text/css">*{stroke-linecap:butt;stroke-linejoin:round;}</style>
 </defs>
 <g id="figure_1">
  <g id="patch_1">
   <path d="M 0 1301.874375 
L 1724.98125 1301.874375 
L 1724.98125 0 
L 0 0 
z
" style="fill:#ffffff;"/>
  </g>
  <g id="axes_1">
   <g id="patch_2">
    <path d="M 43.78125 586.86358 
L 1717.78125 586.86358 
L 1717.78125 22.318125 
L 43.78125 22.318125 
z
" style="fill:#ffffff;"/>
   </g>
   <g id="matplotlib.axis_1">
    <g id="xtick_1">
     <g id="line2d_1">
      <defs>
       <path d="M 0 0 
L 0 3.5 
" id="m999eeca669" style="stroke:#000000;stroke-width:0.8;"/>
      </defs>
      <g>
       <use style="stroke:#000000;stroke-width:0.8;" x="119.872159" xlink:href="#m999eeca669" y="586.86358"/>
      </g>
     </g>
     <g id="text_1">
      <!-- 0 -->
      <g transform="translate(116.690909 601.462017)scale(0.1 -0.1)">
       <defs>
        <path d="M 2034 4250 
Q 1547 4250 1301 3770 
Q 1056 3291 1056 2328 
Q 1056 1369 1301 889 
Q 1547 409 2034 409 
Q 2525 409 2770 889 
Q 3016 1369 3016 2328 
Q 3016 3291 2770 3770 
Q 2525 4250 2034 4250 
z
M 2034 4750 
Q 2819 4750 3233 4129 
Q 3647 3509 3647 2328 
Q 3647 1150 3233 529 
Q 2819 -91 2034 -91 
Q 1250 -91 836 529 
Q 422 1150 422 2328 
Q 422 3509 836 4129 
Q 1250 4750 2034 4750 
z
" id="DejaVuSans-30" transform="scale(0.015625)"/>
       </defs>
       <use xlink:href="#DejaVuSans-30"/>
      </g>
     </g>
    </g>
    <g id="xtick_2">
     <g id="line2d_2">
      <g>
       <use style="stroke:#000000;stroke-width:0.8;" x="367.523613" xlink:href="#m999eeca669" y="586.86358"/>
      </g>
     </g>
     <g id="text_2">
      <!-- 200 -->
      <g transform="translate(357.979863 601.462017)scale(0.1 -0.1)">
       <defs>
        <path d="M 1228 531 
L 3431 531 
L 3431 0 
L 469 0 
L 469 531 
Q 828 903 1448 1529 
Q 2069 2156 2228 2338 
Q 2531 2678 2651 2914 
Q 2772 3150 2772 3378 
Q 2772 3750 2511 3984 
Q 2250 4219 1831 4219 
Q 1534 4219 1204 4116 
Q 875 4013 500 3803 
L 500 4441 
Q 881 4594 1212 4672 
Q 1544 4750 1819 4750 
Q 2544 4750 2975 4387 
Q 3406 4025 3406 3419 
Q 3406 3131 3298 2873 
Q 3191 2616 2906 2266 
Q 2828 2175 2409 1742 
Q 1991 1309 1228 531 
z
" id="DejaVuSans-32" transform="scale(0.015625)"/>
       </defs>
       <use xlink:href="#DejaVuSans-32"/>
       <use x="63.623047" xlink:href="#DejaVuSans-30"/>
       <use x="127.246094" xlink:href="#DejaVuSans-30"/>
      </g>
     </g>
    </g>
    <g id="xtick_3">
     <g id="line2d_3">
      <g>
       <use style="stroke:#000000;stroke-width:0.8;" x="615.175066" xlink:href="#m999eeca669" y="586.86358"/>
      </g>
     </g>
     <g id="text_3">
      <!-- 400 -->
      <g transform="translate(605.631316 601.462017)scale(0.1 -0.1)">
       <defs>
        <path d="M 2419 4116 
L 825 1625 
L 2419 1625 
L 2419 4116 
z
M 2253 4666 
L 3047 4666 
L 3047 1625 
L 3713 1625 
L 3713 1100 
L 3047 1100 
L 3047 0 
L 2419 0 
L 2419 1100 
L 313 1100 
L 313 1709 
L 2253 4666 
z
" id="DejaVuSans-34" transform="scale(0.015625)"/>
       </defs>
       <use xlink:href="#DejaVuSans-34"/>
       <use x="63.623047" xlink:href="#DejaVuSans-30"/>
       <use x="127.246094" xlink:href="#DejaVuSans-30"/>
      </g>
     </g>
    </g>
    <g id="xtick_4">
     <g id="line2d_4">
      <g>
       <use style="stroke:#000000;stroke-width:0.8;" x="862.82652" xlink:href="#m999eeca669" y="586.86358"/>
      </g>
     </g>
     <g id="text_4">
      <!-- 600 -->
      <g transform="translate(853.28277 601.462017)scale(0.1 -0.1)">
       <defs>
        <path d="M 2113 2584 
Q 1688 2584 1439 2293 
Q 1191 2003 1191 1497 
Q 1191 994 1439 701 
Q 1688 409 2113 409 
Q 2538 409 2786 701 
Q 3034 994 3034 1497 
Q 3034 2003 2786 2293 
Q 2538 2584 2113 2584 
z
M 3366 4563 
L 3366 3988 
Q 3128 4100 2886 4159 
Q 2644 4219 2406 4219 
Q 1781 4219 1451 3797 
Q 1122 3375 1075 2522 
Q 1259 2794 1537 2939 
Q 1816 3084 2150 3084 
Q 2853 3084 3261 2657 
Q 3669 2231 3669 1497 
Q 3669 778 3244 343 
Q 2819 -91 2113 -91 
Q 1303 -91 875 529 
Q 447 1150 447 2328 
Q 447 3434 972 4092 
Q 1497 4750 2381 4750 
Q 2619 4750 2861 4703 
Q 3103 4656 3366 4563 
z
" id="DejaVuSans-36" transform="scale(0.015625)"/>
       </defs>
       <use xlink:href="#DejaVuSans-36"/>
       <use x="63.623047" xlink:href="#DejaVuSans-30"/>
       <use x="127.246094" xlink:href="#DejaVuSans-30"/>
      </g>
     </g>
    </g>
    <g id="xtick_5">
     <g id="line2d_5">
      <g>
       <use style="stroke:#000000;stroke-width:0.8;" x="1110.477973" xlink:href="#m999eeca669" y="586.86358"/>
      </g>
     </g>
     <g id="text_5">
      <!-- 800 -->
      <g transform="translate(1100.934223 601.462017)scale(0.1 -0.1)">
       <defs>
        <path d="M 2034 2216 
Q 1584 2216 1326 1975 
Q 1069 1734 1069 1313 
Q 1069 891 1326 650 
Q 1584 409 2034 409 
Q 2484 409 2743 651 
Q 3003 894 3003 1313 
Q 3003 1734 2745 1975 
Q 2488 2216 2034 2216 
z
M 1403 2484 
Q 997 2584 770 2862 
Q 544 3141 544 3541 
Q 544 4100 942 4425 
Q 1341 4750 2034 4750 
Q 2731 4750 3128 4425 
Q 3525 4100 3525 3541 
Q 3525 3141 3298 2862 
Q 3072 2584 2669 2484 
Q 3125 2378 3379 2068 
Q 3634 1759 3634 1313 
Q 3634 634 3220 271 
Q 2806 -91 2034 -91 
Q 1263 -91 848 271 
Q 434 634 434 1313 
Q 434 1759 690 2068 
Q 947 2378 1403 2484 
z
M 1172 3481 
Q 1172 3119 1398 2916 
Q 1625 2713 2034 2713 
Q 2441 2713 2670 2916 
Q 2900 3119 2900 3481 
Q 2900 3844 2670 4047 
Q 2441 4250 2034 4250 
Q 1625 4250 1398 4047 
Q 1172 3844 1172 3481 
z
" id="DejaVuSans-38" transform="scale(0.015625)"/>
       </defs>
       <use xlink:href="#DejaVuSans-38"/>
       <use x="63.623047" xlink:href="#DejaVuSans-30"/>
       <use x="127.246094" xlink:href="#DejaVuSans-30"/>
      </g>
     </g>
    </g>
    <g id="xtick_6">
     <g id="line2d_6">
      <g>
       <use style="stroke:#000000;stroke-width:0.8;" x="1358.129427" xlink:href="#m999eeca669" y="586.86358"/>
      </g>
     </g>
     <g id="text_6">
      <!-- 1000 -->
      <g transform="translate(1345.404427 601.462017)scale(0.1 -0.1)">
       <defs>
        <path d="M 794 531 
L 1825 531 
L 1825 4091 
L 703 3866 
L 703 4441 
L 1819 4666 
L 2450 4666 
L 2450 531 
L 3481 531 
L 3481 0 
L 794 0 
L 794 531 
z
" id="DejaVuSans-31" transform="scale(0.015625)"/>
       </defs>
       <use xlink:href="#DejaVuSans-31"/>
       <use x="63.623047" xlink:href="#DejaVuSans-30"/>
       <use x="127.246094" xlink:href="#DejaVuSans-30"/>
       <use x="190.869141" xlink:href="#DejaVuSans-30"/>
      </g>
     </g>
    </g>
    <g id="xtick_7">
     <g id="line2d_7">
      <g>
       <use style="stroke:#000000;stroke-width:0.8;" x="1605.78088" xlink:href="#m999eeca669" y="586.86358"/>
      </g>
     </g>
     <g id="text_7">
      <!-- 1200 -->
      <g transform="translate(1593.05588 601.462017)scale(0.1 -0.1)">
       <use xlink:href="#DejaVuSans-31"/>
       <use x="63.623047" xlink:href="#DejaVuSans-32"/>
       <use x="127.246094" xlink:href="#DejaVuSans-30"/>
       <use x="190.869141" xlink:href="#DejaVuSans-30"/>
      </g>
     </g>
    </g>
    <g id="text_8">
     <!-- frame -->
     <g transform="translate(865.954687 615.140142)scale(0.1 -0.1)">
      <defs>
       <path d="M 2375 4863 
L 2375 4384 
L 1825 4384 
Q 1516 4384 1395 4259 
Q 1275 4134 1275 3809 
L 1275 3500 
L 2222 3500 
L 2222 3053 
L 1275 3053 
L 1275 0 
L 697 0 
L 697 3053 
L 147 3053 
L 147 3500 
L 697 3500 
L 697 3744 
Q 697 4328 969 4595 
Q 1241 4863 1831 4863 
L 2375 4863 
z
" id="DejaVuSans-66" transform="scale(0.015625)"/>
       <path d="M 2631 2963 
Q 2534 3019 2420 3045 
Q 2306 3072 2169 3072 
Q 1681 3072 1420 2755 
Q 1159 2438 1159 1844 
L 1159 0 
L 581 0 
L 581 3500 
L 1159 3500 
L 1159 2956 
Q 1341 3275 1631 3429 
Q 1922 3584 2338 3584 
Q 2397 3584 2469 3576 
Q 2541 3569 2628 3553 
L 2631 2963 
z
" id="DejaVuSans-72" transform="scale(0.015625)"/>
       <path d="M 2194 1759 
Q 1497 1759 1228 1600 
Q 959 1441 959 1056 
Q 959 750 1161 570 
Q 1363 391 1709 391 
Q 2188 391 2477 730 
Q 2766 1069 2766 1631 
L 2766 1759 
L 2194 1759 
z
M 3341 1997 
L 3341 0 
L 2766 0 
L 2766 531 
Q 2569 213 2275 61 
Q 1981 -91 1556 -91 
Q 1019 -91 701 211 
Q 384 513 384 1019 
Q 384 1609 779 1909 
Q 1175 2209 1959 2209 
L 2766 2209 
L 2766 2266 
Q 2766 2663 2505 2880 
Q 2244 3097 1772 3097 
Q 1472 3097 1187 3025 
Q 903 2953 641 2809 
L 641 3341 
Q 956 3463 1253 3523 
Q 1550 3584 1831 3584 
Q 2591 3584 2966 3190 
Q 3341 2797 3341 1997 
z
" id="DejaVuSans-61" transform="scale(0.015625)"/>
       <path d="M 3328 2828 
Q 3544 3216 3844 3400 
Q 4144 3584 4550 3584 
Q 5097 3584 5394 3201 
Q 5691 2819 5691 2113 
L 5691 0 
L 5113 0 
L 5113 2094 
Q 5113 2597 4934 2840 
Q 4756 3084 4391 3084 
Q 3944 3084 3684 2787 
Q 3425 2491 3425 1978 
L 3425 0 
L 2847 0 
L 2847 2094 
Q 2847 2600 2669 2842 
Q 2491 3084 2119 3084 
Q 1678 3084 1418 2786 
Q 1159 2488 1159 1978 
L 1159 0 
L 581 0 
L 581 3500 
L 1159 3500 
L 1159 2956 
Q 1356 3278 1631 3431 
Q 1906 3584 2284 3584 
Q 2666 3584 2933 3390 
Q 3200 3197 3328 2828 
z
" id="DejaVuSans-6d" transform="scale(0.015625)"/>
       <path d="M 3597 1894 
L 3597 1613 
L 953 1613 
Q 991 1019 1311 708 
Q 1631 397 2203 397 
Q 2534 397 2845 478 
Q 3156 559 3463 722 
L 3463 178 
Q 3153 47 2828 -22 
Q 2503 -91 2169 -91 
Q 1331 -91 842 396 
Q 353 884 353 1716 
Q 353 2575 817 3079 
Q 1281 3584 2069 3584 
Q 2775 3584 3186 3129 
Q 3597 2675 3597 1894 
z
M 3022 2063 
Q 3016 2534 2758 2815 
Q 2500 3097 2075 3097 
Q 1594 3097 1305 2825 
Q 1016 2553 972 2059 
L 3022 2063 
z
" id="DejaVuSans-65" transform="scale(0.015625)"/>
      </defs>
      <use xlink:href="#DejaVuSans-66"/>
      <use x="35.205078" xlink:href="#DejaVuSans-72"/>
      <use x="76.318359" xlink:href="#DejaVuSans-61"/>
      <use x="137.597656" xlink:href="#DejaVuSans-6d"/>
      <use x="235.009766" xlink:href="#DejaVuSans-65"/>
     </g>
    </g>
   </g>
   <g id="matplotlib.axis_2">
    <g id="ytick_1">
     <g id="line2d_8">
      <defs>
       <path d="M 0 0 
L -3.5 0 
" id="m049ccb743e" style="stroke:#000000;stroke-width:0.8;"/>
      </defs>
      <g>
       <use style="stroke:#000000;stroke-width:0.8;" x="43.78125" xlink:href="#m049ccb743e" y="514.386226"/>
      </g>
     </g>
     <g id="text_9">
      <!-- 1.0 -->
      <g transform="translate(20.878125 518.185445)scale(0.1 -0.1)">
       <defs>
        <path d="M 684 794 
L 1344 794 
L 1344 0 
L 684 0 
L 684 794 
z
" id="DejaVuSans-2e" transform="scale(0.015625)"/>
       </defs>
       <use xlink:href="#DejaVuSans-31"/>
       <use x="63.623047" xlink:href="#DejaVuSans-2e"/>
       <use x="95.410156" xlink:href="#DejaVuSans-30"/>
      </g>
     </g>
    </g>
    <g id="ytick_2">
     <g id="line2d_9">
      <g>
       <use style="stroke:#000000;stroke-width:0.8;" x="43.78125" xlink:href="#m049ccb743e" y="430.400239"/>
      </g>
     </g>
     <g id="text_10">
      <!-- 1.2 -->
      <g transform="translate(20.878125 434.199458)scale(0.1 -0.1)">
       <use xlink:href="#DejaVuSans-31"/>
       <use x="63.623047" xlink:href="#DejaVuSans-2e"/>
       <use x="95.410156" xlink:href="#DejaVuSans-32"/>
      </g>
     </g>
    </g>
    <g id="ytick_3">
     <g id="line2d_10">
      <g>
       <use style="stroke:#000000;stroke-width:0.8;" x="43.78125" xlink:href="#m049ccb743e" y="346.414252"/>
      </g>
     </g>
     <g id="text_11">
      <!-- 1.4 -->
      <g transform="translate(20.878125 350.21347)scale(0.1 -0.1)">
       <use xlink:href="#DejaVuSans-31"/>
       <use x="63.623047" xlink:href="#DejaVuSans-2e"/>
       <use x="95.410156" xlink:href="#DejaVuSans-34"/>
      </g>
     </g>
    </g>
    <g id="ytick_4">
     <g id="line2d_11">
      <g>
       <use style="stroke:#000000;stroke-width:0.8;" x="43.78125" xlink:href="#m049ccb743e" y="262.428265"/>
      </g>
     </g>
     <g id="text_12">
      <!-- 1.6 -->
      <g transform="translate(20.878125 266.227483)scale(0.1 -0.1)">
       <use xlink:href="#DejaVuSans-31"/>
       <use x="63.623047" xlink:href="#DejaVuSans-2e"/>
       <use x="95.410156" xlink:href="#DejaVuSans-36"/>
      </g>
     </g>
    </g>
    <g id="ytick_5">
     <g id="line2d_12">
      <g>
       <use style="stroke:#000000;stroke-width:0.8;" x="43.78125" xlink:href="#m049ccb743e" y="178.442277"/>
      </g>
     </g>
     <g id="text_13">
      <!-- 1.8 -->
      <g transform="translate(20.878125 182.241496)scale(0.1 -0.1)">
       <use xlink:href="#DejaVuSans-31"/>
       <use x="63.623047" xlink:href="#DejaVuSans-2e"/>
       <use x="95.410156" xlink:href="#DejaVuSans-38"/>
      </g>
     </g>
    </g>
    <g id="ytick_6">
     <g id="line2d_13">
      <g>
       <use style="stroke:#000000;stroke-width:0.8;" x="43.78125" xlink:href="#m049ccb743e" y="94.45629"/>
      </g>
     </g>
     <g id="text_14">
      <!-- 2.0 -->
      <g transform="translate(20.878125 98.255509)scale(0.1 -0.1)">
       <use xlink:href="#DejaVuSans-32"/>
       <use x="63.623047" xlink:href="#DejaVuSans-2e"/>
       <use x="95.410156" xlink:href="#DejaVuSans-30"/>
      </g>
     </g>
    </g>
    <g id="text_15">
     <!-- GCaMP -->
     <g transform="translate(14.798437 322.349446)rotate(-90)scale(0.1 -0.1)">
      <defs>
       <path d="M 3809 666 
L 3809 1919 
L 2778 1919 
L 2778 2438 
L 4434 2438 
L 4434 434 
Q 4069 175 3628 42 
Q 3188 -91 2688 -91 
Q 1594 -91 976 548 
Q 359 1188 359 2328 
Q 359 3472 976 4111 
Q 1594 4750 2688 4750 
Q 3144 4750 3555 4637 
Q 3966 4525 4313 4306 
L 4313 3634 
Q 3963 3931 3569 4081 
Q 3175 4231 2741 4231 
Q 1884 4231 1454 3753 
Q 1025 3275 1025 2328 
Q 1025 1384 1454 906 
Q 1884 428 2741 428 
Q 3075 428 3337 486 
Q 3600 544 3809 666 
z
" id="DejaVuSans-47" transform="scale(0.015625)"/>
       <path d="M 4122 4306 
L 4122 3641 
Q 3803 3938 3442 4084 
Q 3081 4231 2675 4231 
Q 1875 4231 1450 3742 
Q 1025 3253 1025 2328 
Q 1025 1406 1450 917 
Q 1875 428 2675 428 
Q 3081 428 3442 575 
Q 3803 722 4122 1019 
L 4122 359 
Q 3791 134 3420 21 
Q 3050 -91 2638 -91 
Q 1578 -91 968 557 
Q 359 1206 359 2328 
Q 359 3453 968 4101 
Q 1578 4750 2638 4750 
Q 3056 4750 3426 4639 
Q 3797 4528 4122 4306 
z
" id="DejaVuSans-43" transform="scale(0.015625)"/>
       <path d="M 628 4666 
L 1569 4666 
L 2759 1491 
L 3956 4666 
L 4897 4666 
L 4897 0 
L 4281 0 
L 4281 4097 
L 3078 897 
L 2444 897 
L 1241 4097 
L 1241 0 
L 628 0 
L 628 4666 
z
" id="DejaVuSans-4d" transform="scale(0.015625)"/>
       <path d="M 1259 4147 
L 1259 2394 
L 2053 2394 
Q 2494 2394 2734 2622 
Q 2975 2850 2975 3272 
Q 2975 3691 2734 3919 
Q 2494 4147 2053 4147 
L 1259 4147 
z
M 628 4666 
L 2053 4666 
Q 2838 4666 3239 4311 
Q 3641 3956 3641 3272 
Q 3641 2581 3239 2228 
Q 2838 1875 2053 1875 
L 1259 1875 
L 1259 0 
L 628 0 
L 628 4666 
z
" id="DejaVuSans-50" transform="scale(0.015625)"/>
      </defs>
      <use xlink:href="#DejaVuSans-47"/>
      <use x="77.490234" xlink:href="#DejaVuSans-43"/>
      <use x="147.314453" xlink:href="#DejaVuSans-61"/>
      <use x="208.59375" xlink:href="#DejaVuSans-4d"/>
      <use x="294.873047" xlink:href="#DejaVuSans-50"/>
     </g>
    </g>
   </g>
   <g id="line2d_14">
    <path clip-path="url(#pb6470479c5)" d="M 119.872159 352.125367 
L 121.110416 371.446046 
L 122.348674 388.416969 
L 123.586931 400.644165 
L 124.825188 406.487462 
L 126.063445 406.450718 
L 128.53996 400.240485 
L 129.778217 398.557117 
L 131.016474 398.131871 
L 132.254732 398.234917 
L 133.492989 398.493527 
L 134.731246 399.562579 
L 135.969504 402.632043 
L 137.207761 408.302782 
L 138.446018 416.288367 
L 142.16079 444.245355 
L 143.399047 450.705771 
L 144.637304 454.828921 
L 145.875562 457.073492 
L 147.113819 458.257294 
L 148.352076 458.928238 
L 149.590334 458.842595 
L 150.828591 457.712794 
L 154.543363 452.289965 
L 155.78162 450.934596 
L 157.019877 451.303415 
L 158.258134 454.222719 
L 159.496392 458.513564 
L 160.734649 462.030129 
L 161.972906 463.779505 
L 164.449421 464.897609 
L 165.687678 465.987642 
L 166.925935 466.712833 
L 168.164193 466.082623 
L 169.40245 464.647222 
L 170.640707 464.06036 
L 171.878964 466.118358 
L 173.117222 472.458418 
L 175.593736 493.467901 
L 176.831993 501.257592 
L 178.070251 504.886466 
L 179.308508 504.969101 
L 180.546765 502.872258 
L 183.02328 497.383026 
L 184.261537 495.857619 
L 185.499794 495.91468 
L 186.738052 497.346064 
L 187.976309 499.004061 
L 189.214566 499.637208 
L 190.452823 499.282164 
L 191.691081 499.76674 
L 192.929338 503.110205 
L 194.167595 509.391543 
L 196.64411 524.441034 
L 197.882367 530.412352 
L 199.120624 534.537307 
L 200.358881 537.063827 
L 201.597139 538.160438 
L 202.835396 537.965986 
L 204.073653 537.052523 
L 205.311911 535.7877 
L 206.550168 533.941786 
L 207.788425 531.537898 
L 209.026682 529.452046 
L 210.26494 528.72369 
L 211.503197 529.665564 
L 212.741454 531.856837 
L 213.979711 534.312205 
L 215.217969 535.853024 
L 216.456226 535.972076 
L 217.694483 534.835464 
L 218.93274 532.613441 
L 220.170998 529.465175 
L 222.647512 522.057288 
L 223.88577 518.845412 
L 225.124027 516.35736 
L 226.362284 515.021964 
L 227.600541 515.724701 
L 228.838799 519.105924 
L 231.315313 529.720862 
L 232.55357 533.090817 
L 233.791828 534.046684 
L 235.030085 532.392142 
L 236.268342 527.499353 
L 237.5066 519.457087 
L 238.744857 510.183342 
L 239.983114 502.541635 
L 241.221371 498.579275 
L 242.459629 498.573254 
L 243.697886 501.593974 
L 244.936143 507.238784 
L 246.1744 516.228232 
L 247.412658 528.628506 
L 248.650915 542.221427 
L 249.889172 553.470545 
L 251.127429 559.911954 
L 252.365687 561.202423 
L 253.603944 558.385788 
L 256.080459 548.195084 
L 257.318716 544.420965 
L 258.556973 541.440691 
L 259.79523 538.042972 
L 261.033488 533.59351 
L 263.510002 522.531317 
L 264.748259 518.08763 
L 265.986517 515.697336 
L 267.224774 515.581869 
L 268.463031 517.328226 
L 270.939546 522.167861 
L 272.177803 523.905422 
L 273.41606 524.739508 
L 274.654318 524.536902 
L 275.892575 523.882962 
L 277.130832 523.508658 
L 278.369089 523.373054 
L 279.607347 522.731118 
L 282.083861 519.191705 
L 283.322118 519.491707 
L 284.560376 522.600692 
L 285.798633 526.897967 
L 287.03689 530.423778 
L 288.275147 532.045069 
L 289.513405 530.797938 
L 290.751662 526.025157 
L 291.989919 519.128341 
L 293.228177 513.646848 
L 294.466434 512.37424 
L 295.704691 515.203779 
L 296.942948 519.814524 
L 298.181206 523.130544 
L 299.419463 522.772351 
L 300.65772 518.644052 
L 301.895977 512.929558 
L 303.134235 508.472532 
L 304.372492 507.247688 
L 305.610749 509.517818 
L 306.849006 513.666992 
L 308.087264 516.97044 
L 309.325521 517.571892 
L 311.802036 514.603829 
L 313.040293 515.063429 
L 314.27855 517.453984 
L 315.516807 520.132611 
L 316.755065 521.23468 
L 317.993322 520.117308 
L 320.469836 515.154299 
L 322.946351 512.013787 
L 324.184608 509.444684 
L 325.422866 505.177697 
L 326.661123 499.161361 
L 327.89938 492.067131 
L 329.137637 485.841104 
L 330.375895 482.665561 
L 331.614152 483.402126 
L 332.852409 487.495169 
L 336.567181 505.032949 
L 337.805438 508.708403 
L 339.043695 508.971206 
L 340.281953 504.493526 
L 342.758467 487.770222 
L 343.996725 482.43559 
L 345.234982 481.338339 
L 346.473239 483.360237 
L 347.711496 487.144576 
L 348.949754 492.365376 
L 350.188011 499.268512 
L 351.426268 507.150369 
L 352.664525 513.752672 
L 353.902783 516.416188 
L 355.14104 514.056103 
L 357.617554 502.444713 
L 358.855812 499.20607 
L 360.094069 499.846466 
L 361.332326 504.237001 
L 363.808841 517.832362 
L 365.047098 522.372053 
L 366.285355 523.468963 
L 367.523613 521.664499 
L 368.76187 517.82865 
L 370.000127 512.34134 
L 371.238384 506.202459 
L 372.476642 501.58611 
L 373.714899 500.131208 
L 374.953156 500.917669 
L 376.191413 500.904052 
L 377.429671 497.673167 
L 378.667928 491.473295 
L 379.906185 484.641695 
L 381.144443 479.233604 
L 384.859214 467.255841 
L 386.097472 463.983551 
L 387.335729 461.163314 
L 388.573986 457.343926 
L 389.812243 450.949955 
L 392.288758 431.98375 
L 393.527015 424.662903 
L 394.765272 421.918337 
L 396.00353 423.010121 
L 397.241787 424.961052 
L 398.480044 424.851962 
L 399.718302 421.575998 
L 402.194816 410.609189 
L 403.433073 407.826751 
L 404.671331 408.75628 
L 405.909588 412.923407 
L 407.147845 418.517361 
L 408.386102 423.003855 
L 409.62436 424.655657 
L 410.862617 423.964988 
L 412.100874 423.727479 
L 413.339132 426.573279 
L 415.815646 437.339906 
L 417.053903 439.08124 
L 418.292161 436.284606 
L 422.006932 419.462393 
L 423.24519 414.546591 
L 424.483447 407.760578 
L 426.959961 388.956578 
L 428.198219 381.40127 
L 429.436476 378.308716 
L 430.674733 379.890882 
L 431.912991 384.253159 
L 433.151248 389.079991 
L 434.389505 392.739403 
L 435.627762 394.331798 
L 436.86602 393.834422 
L 438.104277 392.008964 
L 439.342534 389.499622 
L 440.580791 386.008946 
L 441.819049 380.820806 
L 443.057306 373.976794 
L 445.53382 359.201077 
L 446.772078 353.163793 
L 448.010335 348.440032 
L 449.248592 344.968863 
L 450.48685 343.177188 
L 451.725107 344.023808 
L 452.963364 348.142423 
L 455.439879 361.7562 
L 456.678136 367.064053 
L 457.916393 370.534697 
L 459.15465 372.930243 
L 460.392908 374.344288 
L 461.631165 374.147332 
L 462.869422 372.438396 
L 464.107679 371.1623 
L 465.345937 372.716373 
L 466.584194 377.610308 
L 467.822451 384.238403 
L 469.060709 390.102764 
L 470.298966 392.862469 
L 471.537223 391.31886 
L 472.77548 385.935633 
L 475.251995 370.026894 
L 477.728509 354.480181 
L 478.966767 348.993801 
L 480.205024 347.457907 
L 481.443281 351.078766 
L 482.681538 359.651323 
L 483.919796 370.846832 
L 485.158053 380.472418 
L 486.39631 385.211186 
L 487.634568 384.437741 
L 488.872825 379.434627 
L 491.349339 364.957258 
L 492.587597 359.747393 
L 493.825854 357.510806 
L 495.064111 357.448865 
L 497.540626 358.955486 
L 498.778883 359.945808 
L 500.01714 361.864231 
L 501.255397 365.393129 
L 503.731912 374.771903 
L 504.970169 377.614357 
L 506.208427 378.466092 
L 507.446684 377.498657 
L 508.684941 373.87766 
L 509.923198 366.958621 
L 512.399713 349.487705 
L 513.63797 343.321841 
L 514.876227 339.0686 
L 516.114485 333.547436 
L 517.352742 323.446306 
L 518.590999 308.405888 
L 519.829257 291.232948 
L 521.067514 276.351703 
L 522.305771 267.988991 
L 523.544028 267.847424 
L 524.782286 273.688486 
L 526.020543 281.027539 
L 527.2588 286.502528 
L 528.497057 289.293301 
L 529.735315 290.189408 
L 530.973572 290.15889 
L 533.450086 289.256767 
L 534.688344 290.123166 
L 535.926601 293.182388 
L 537.164858 298.294922 
L 538.403116 304.68519 
L 539.641373 311.876215 
L 543.356145 335.211119 
L 544.594402 338.087851 
L 545.832659 336.589318 
L 547.070916 333.390835 
L 548.309174 331.104052 
L 549.547431 330.295972 
L 550.785688 330.764041 
L 552.023945 332.986208 
L 553.262203 337.611541 
L 554.50046 343.421901 
L 555.738717 346.995321 
L 556.976975 345.460638 
L 558.215232 338.860985 
L 559.453489 329.344715 
L 561.930004 308.165508 
L 563.168261 299.721705 
L 564.406518 295.504187 
L 565.644775 296.340155 
L 566.883033 301.184774 
L 568.12129 306.73421 
L 569.359547 309.319586 
L 570.597804 308.138651 
L 571.836062 305.54094 
L 573.074319 304.543338 
L 574.312576 306.468958 
L 575.550834 310.180929 
L 576.789091 312.706568 
L 578.027348 311.046151 
L 579.265605 304.975637 
L 580.503863 298.223889 
L 581.74212 295.680702 
L 582.980377 299.460469 
L 584.218634 307.960358 
L 585.456892 317.495889 
L 586.695149 324.504171 
L 587.933406 327.7483 
L 589.171663 329.160867 
L 590.409921 331.619051 
L 592.886435 339.678676 
L 594.124693 340.262654 
L 595.36295 335.220784 
L 596.601207 325.247362 
L 597.839464 314.109773 
L 599.077722 305.616353 
L 600.315979 301.145964 
L 601.554236 299.506629 
L 602.792493 298.114847 
L 604.030751 294.758512 
L 605.269008 288.922171 
L 607.745523 274.48289 
L 608.98378 268.125141 
L 610.222037 262.484985 
L 611.460294 257.937361 
L 612.698552 256.672959 
L 613.936809 261.07722 
L 615.175066 270.437996 
L 616.413323 281.345222 
L 617.651581 290.743607 
L 618.889838 296.200444 
L 620.128095 295.465839 
L 621.366352 288.374372 
L 622.60461 277.079512 
L 625.081124 252.066249 
L 626.319382 242.842599 
L 628.795896 228.901825 
L 631.272411 212.315915 
L 632.510668 205.777588 
L 634.987182 194.617697 
L 636.22544 190.959615 
L 637.463697 191.453923 
L 638.701954 196.081331 
L 641.178469 209.369441 
L 642.416726 217.803797 
L 643.654983 229.218656 
L 646.131498 257.046104 
L 647.369755 268.863314 
L 648.608012 278.161245 
L 649.84627 284.841996 
L 651.084527 287.495375 
L 652.322784 285.025547 
L 653.561041 278.364788 
L 656.037556 260.953905 
L 657.275813 254.884044 
L 658.51407 253.746082 
L 659.752328 257.984601 
L 662.228842 272.600497 
L 663.4671 278.674435 
L 664.705357 283.594602 
L 665.943614 286.491419 
L 667.181871 285.752458 
L 668.420129 281.36829 
L 669.658386 275.845317 
L 670.896643 272.557072 
L 672.1349 273.774306 
L 673.373158 279.614293 
L 675.849672 295.774193 
L 677.087929 301.322339 
L 678.326187 304.225616 
L 679.564444 305.071662 
L 680.802701 305.581173 
L 682.040959 308.014725 
L 683.279216 313.137852 
L 684.517473 319.141764 
L 685.75573 323.508774 
L 686.993988 325.207871 
L 688.232245 324.068483 
L 689.470502 319.872557 
L 690.708759 313.075741 
L 691.947017 305.174844 
L 693.185274 298.17258 
L 694.423531 293.57192 
L 695.661789 291.589547 
L 696.900046 291.349202 
L 698.138303 291.421345 
L 699.37656 290.698222 
L 701.853075 288.024643 
L 705.567847 285.154916 
L 706.806104 284.508826 
L 708.044361 284.676791 
L 709.282618 286.491501 
L 710.520876 289.803927 
L 712.99739 298.430299 
L 714.235648 301.616088 
L 715.473905 302.038267 
L 717.950419 298.82414 
L 719.188677 297.083223 
L 720.426934 294.038805 
L 721.665191 288.457321 
L 722.903448 279.870922 
L 726.61822 247.255734 
L 727.856477 238.204267 
L 729.094735 232.090597 
L 730.332992 230.445539 
L 731.571249 233.792798 
L 732.809507 241.426885 
L 735.286021 261.271542 
L 736.524278 269.361281 
L 737.762536 274.402058 
L 739.000793 274.48971 
L 740.23905 268.341599 
L 741.477307 256.53714 
L 743.953822 225.354912 
L 745.192079 213.932976 
L 746.430336 209.097917 
L 747.668594 209.452821 
L 748.906851 212.528053 
L 751.383366 220.922432 
L 755.098137 230.959133 
L 756.336395 233.753656 
L 757.574652 234.501594 
L 758.812909 233.129175 
L 760.051166 231.576452 
L 761.289424 232.260342 
L 762.527681 236.016993 
L 765.004195 248.316675 
L 766.242453 254.310854 
L 767.48071 261.055467 
L 768.718967 271.000089 
L 769.957225 283.253331 
L 771.195482 291.814884 
L 772.433739 290.910354 
L 773.671996 279.997236 
L 776.148511 244.868637 
L 777.386768 230.400792 
L 778.625025 222.682451 
L 779.863283 223.311379 
L 781.10154 231.383639 
L 783.578054 255.865488 
L 784.816312 264.395589 
L 786.054569 267.250099 
L 787.292826 264.723114 
L 788.531084 258.788158 
L 789.769341 252.121759 
L 791.007598 246.866165 
L 792.245855 244.422678 
L 793.484113 246.231344 
L 794.72237 252.983191 
L 797.198884 272.685041 
L 798.437142 280.320582 
L 799.675399 285.530105 
L 800.913656 287.276117 
L 802.151914 282.940749 
L 803.390171 272.317272 
L 804.628428 260.015561 
L 805.866685 251.659219 
L 807.104943 249.862689 
L 808.3432 254.258361 
L 809.581457 263.161582 
L 810.819714 274.106395 
L 812.057972 283.593549 
L 813.296229 288.178677 
L 814.534486 286.76074 
L 817.011001 277.115536 
L 818.249258 275.294674 
L 819.487515 275.230037 
L 820.725773 274.459359 
L 821.96403 272.128453 
L 823.202287 269.462344 
L 824.440544 267.695015 
L 825.678802 267.483829 
L 826.917059 269.31142 
L 828.155316 272.029627 
L 829.393573 273.051948 
L 830.631831 271.586621 
L 831.870088 269.408625 
L 833.108345 268.438426 
L 834.346602 269.55087 
L 835.58486 272.914382 
L 838.061374 282.508349 
L 839.299632 285.066218 
L 840.537889 284.589506 
L 841.776146 281.326294 
L 843.014403 276.573872 
L 844.252661 272.713703 
L 845.490918 272.112087 
L 846.729175 275.496675 
L 847.967432 281.811574 
L 849.20569 289.179984 
L 850.443947 295.454845 
L 851.682204 299.059423 
L 852.920461 300.620783 
L 854.158719 302.576202 
L 855.396976 306.171092 
L 856.635233 310.233606 
L 857.873491 313.009144 
L 859.111748 313.851938 
L 860.350005 313.528087 
L 861.588262 313.067552 
L 862.82652 312.076808 
L 864.064777 309.316908 
L 865.303034 304.648372 
L 866.541291 299.488642 
L 867.779549 296.054424 
L 869.017806 295.363489 
L 870.256063 295.236212 
L 871.49432 291.995634 
L 872.732578 284.061107 
L 875.209092 263.178598 
L 876.44735 256.478705 
L 877.685607 252.603046 
L 878.923864 250.008699 
L 880.162121 248.426669 
L 881.400379 248.566797 
L 882.638636 250.882297 
L 885.11515 258.474336 
L 886.353408 260.611104 
L 887.591665 260.858481 
L 888.829922 259.755539 
L 890.06818 258.388035 
L 891.306437 257.731401 
L 892.544694 257.886241 
L 893.782951 258.47044 
L 895.021209 259.580701 
L 896.259466 262.045062 
L 897.497723 266.821812 
L 899.974238 281.139829 
L 901.212495 286.529278 
L 902.450752 288.282373 
L 903.689009 286.46963 
L 904.927267 283.729743 
L 906.165524 283.550812 
L 907.403781 287.418249 
L 909.880296 301.879087 
L 911.118553 306.72474 
L 912.35681 306.805616 
L 913.595068 302.180863 
L 916.071582 286.799569 
L 921.024611 256.174438 
L 922.262868 250.818151 
L 923.501126 250.090901 
L 924.739383 253.972013 
L 925.97764 260.105017 
L 927.215898 265.551173 
L 928.454155 268.579296 
L 929.692412 269.264144 
L 930.930669 268.454583 
L 932.168927 266.780278 
L 933.407184 265.299886 
L 934.645441 265.748852 
L 935.883698 268.831184 
L 937.121956 273.411587 
L 938.360213 277.283854 
L 939.59847 277.815663 
L 940.836727 273.042215 
L 942.074985 263.187282 
L 943.313242 251.167028 
L 944.551499 241.115378 
L 945.789757 236.067998 
L 947.028014 237.171319 
L 948.266271 243.913217 
L 950.742786 264.105488 
L 951.981043 270.69095 
L 953.2193 271.703588 
L 954.457557 267.793528 
L 955.695815 262.53168 
L 956.934072 259.74828 
L 958.172329 260.549742 
L 959.410586 263.587399 
L 960.648844 267.62261 
L 961.887101 272.761853 
L 963.125358 279.427343 
L 964.363616 286.879207 
L 965.601873 292.790479 
L 966.84013 294.711267 
L 968.078387 292.261777 
L 969.316645 286.724325 
L 970.554902 279.105438 
L 971.793159 270.640619 
L 973.031416 263.210952 
L 976.746188 244.721143 
L 977.984446 244.042518 
L 979.222703 253.276796 
L 980.46096 271.166034 
L 981.699217 291.162847 
L 982.937475 306.621098 
L 984.175732 314.331501 
L 985.413989 314.819859 
L 986.652246 310.579676 
L 987.890504 303.906371 
L 990.367018 288.456897 
L 991.605275 282.624481 
L 992.843533 281.472449 
L 994.08179 286.739595 
L 995.320047 296.208149 
L 996.558305 304.712427 
L 997.796562 308.466068 
L 999.034819 307.279055 
L 1000.273076 303.19539 
L 1001.511334 297.854215 
L 1002.749591 291.193586 
L 1003.987848 282.460615 
L 1007.70262 248.91122 
L 1008.940877 240.052193 
L 1012.655649 217.164564 
L 1015.132164 201.280312 
L 1017.608678 187.914439 
L 1018.846935 182.147538 
L 1020.085193 180.278091 
L 1021.32345 185.231455 
L 1023.799964 204.693963 
L 1025.038222 208.578088 
L 1026.276479 207.500126 
L 1029.991251 198.424851 
L 1031.229508 196.082027 
L 1032.467765 194.124428 
L 1033.706023 191.927356 
L 1034.94428 189.455228 
L 1036.182537 188.763714 
L 1037.420794 193.778017 
L 1038.659052 206.80901 
L 1039.897309 224.894907 
L 1041.135566 240.829112 
L 1042.373823 248.969953 
L 1043.612081 249.696761 
L 1044.850338 247.77095 
L 1047.326852 246.059416 
L 1048.56511 241.644415 
L 1052.279882 216.846438 
L 1053.518139 210.426252 
L 1054.756396 201.952627 
L 1055.994653 191.476832 
L 1057.232911 183.930783 
L 1058.471168 185.526678 
L 1059.709425 199.139725 
L 1060.947682 223.105187 
L 1063.424197 279.331736 
L 1064.662454 298.752944 
L 1065.900711 307.793064 
L 1067.138969 307.757405 
L 1068.377226 301.861747 
L 1069.615483 292.794682 
L 1072.091998 271.602977 
L 1073.330255 260.129286 
L 1074.568512 246.805292 
L 1077.045027 217.594658 
L 1078.283284 207.069082 
L 1079.521541 203.25026 
L 1080.759799 207.454609 
L 1081.998056 218.291358 
L 1083.236313 232.985275 
L 1085.712828 263.903003 
L 1086.951085 272.9575 
L 1088.189342 273.108842 
L 1089.4276 264.312375 
L 1091.904114 233.38392 
L 1093.142371 222.223585 
L 1094.380629 219.082449 
L 1095.618886 222.601262 
L 1098.0954 236.205047 
L 1099.333658 243.510083 
L 1100.571915 251.776759 
L 1103.04843 270.863603 
L 1104.286687 278.174371 
L 1105.524944 282.27568 
L 1106.763201 284.156454 
L 1108.001459 285.566638 
L 1109.239716 287.803062 
L 1110.477973 290.820722 
L 1111.71623 292.706727 
L 1112.954488 290.928265 
L 1114.192745 284.768843 
L 1115.431002 276.226599 
L 1116.669259 268.46747 
L 1117.907517 263.739166 
L 1119.145774 262.800081 
L 1120.384031 265.934358 
L 1121.622289 274.145299 
L 1122.860546 288.109459 
L 1124.098803 305.162083 
L 1125.33706 319.224887 
L 1126.575318 324.637172 
L 1127.813575 319.451178 
L 1129.051832 306.510821 
L 1130.290089 291.993933 
L 1131.528347 280.966478 
L 1132.766604 274.25571 
L 1134.004861 270.119322 
L 1136.481376 263.474066 
L 1137.719633 261.146838 
L 1138.95789 261.803768 
L 1140.196148 266.146081 
L 1141.434405 273.033713 
L 1143.910919 289.781493 
L 1145.149177 298.774666 
L 1146.387434 306.268651 
L 1147.625691 309.7529 
L 1148.863948 307.475402 
L 1150.102206 300.000161 
L 1151.340463 290.71294 
L 1152.57872 283.689224 
L 1153.816977 281.46344 
L 1155.055235 285.201326 
L 1156.293492 294.515157 
L 1158.770007 317.908922 
L 1160.008264 326.171096 
L 1161.246521 329.310948 
L 1162.484778 326.160588 
L 1163.723036 318.143438 
L 1164.961293 308.457974 
L 1166.19955 300.643672 
L 1167.437807 297.645155 
L 1168.676065 300.281292 
L 1169.914322 305.974233 
L 1171.152579 309.620616 
L 1172.390837 307.514661 
L 1173.629094 300.005277 
L 1174.867351 289.401644 
L 1176.105608 277.806707 
L 1177.343866 267.313625 
L 1178.582123 259.586599 
L 1179.82038 254.932881 
L 1181.058637 252.528127 
L 1182.296895 251.064198 
L 1183.535152 249.250595 
L 1186.011666 243.907094 
L 1187.249924 243.627227 
L 1188.488181 249.069893 
L 1189.726438 261.445074 
L 1192.202953 292.094313 
L 1193.44121 302.514689 
L 1194.679467 307.846889 
L 1195.917725 307.547035 
L 1197.155982 301.155441 
L 1198.394239 289.520054 
L 1202.109011 246.348441 
L 1203.347268 236.395032 
L 1204.585525 232.334 
L 1205.823783 234.267942 
L 1207.06204 241.052309 
L 1208.300297 251.001535 
L 1210.776812 273.092105 
L 1212.015069 282.151551 
L 1213.253326 286.69353 
L 1214.491584 284.169654 
L 1215.729841 274.704989 
L 1218.206355 246.60804 
L 1219.444613 232.41381 
L 1220.68287 219.918157 
L 1221.921127 211.391868 
L 1223.159384 209.881881 
L 1224.397642 217.628285 
L 1225.635899 233.617068 
L 1226.874156 252.957821 
L 1228.112414 268.974874 
L 1229.350671 276.520555 
L 1230.588928 274.758725 
L 1231.827185 266.817696 
L 1234.3037 247.072498 
L 1235.541957 239.238243 
L 1236.780214 233.618372 
L 1238.018472 230.612828 
L 1239.256729 229.63158 
L 1240.494986 228.152284 
L 1241.733243 224.419806 
L 1242.971501 220.027135 
L 1244.209758 217.614522 
L 1246.686273 217.162135 
L 1247.92453 215.171547 
L 1249.162787 210.502543 
L 1250.401044 202.591033 
L 1251.639302 192.514591 
L 1252.877559 183.349876 
L 1254.115816 178.086994 
L 1255.354073 178.589796 
L 1256.592331 185.995493 
L 1257.830588 200.155539 
L 1259.068845 217.713705 
L 1260.307103 232.211586 
L 1261.54536 238.221794 
L 1262.783617 235.726971 
L 1264.021874 229.492959 
L 1265.260132 224.434562 
L 1266.498389 223.325012 
L 1267.736646 227.36019 
L 1268.974903 235.922158 
L 1270.213161 246.207087 
L 1271.451418 254.995956 
L 1272.689675 261.5233 
L 1275.16619 273.573791 
L 1277.642704 285.987513 
L 1278.880962 289.85709 
L 1280.119219 287.634378 
L 1281.357476 276.699605 
L 1282.595733 259.997952 
L 1283.833991 245.079116 
L 1285.072248 238.497388 
L 1286.310505 241.616631 
L 1288.78702 258.678252 
L 1290.025277 262.342679 
L 1291.263534 261.286253 
L 1292.501791 258.205126 
L 1293.740049 257.478899 
L 1294.978306 263.25289 
L 1296.216563 275.775969 
L 1297.454821 289.914499 
L 1298.693078 298.958273 
L 1299.931335 299.476002 
L 1301.169592 292.93872 
L 1302.40785 284.233254 
L 1303.646107 277.703867 
L 1304.884364 273.903189 
L 1306.122621 270.484283 
L 1307.360879 264.935465 
L 1309.837393 247.929784 
L 1311.07565 243.048832 
L 1312.313908 243.103777 
L 1313.552165 244.803735 
L 1314.790422 244.378411 
L 1316.02868 239.958347 
L 1317.266937 230.69552 
L 1319.743451 204.370423 
L 1320.981709 194.69549 
L 1322.219966 190.313422 
L 1323.458223 191.153027 
L 1324.69648 195.904924 
L 1325.934738 202.250298 
L 1327.172995 207.76709 
L 1328.411252 211.51877 
L 1332.126024 219.695591 
L 1333.364281 222.770993 
L 1334.602539 226.566829 
L 1335.840796 231.439245 
L 1337.079053 237.058824 
L 1338.31731 243.828884 
L 1340.793825 260.860894 
L 1342.032082 264.986977 
L 1343.270339 262.753775 
L 1344.508597 255.55502 
L 1345.746854 245.462914 
L 1348.223368 222.459008 
L 1349.461626 214.27973 
L 1350.699883 210.334186 
L 1351.93814 209.54427 
L 1353.176398 209.924571 
L 1354.414655 211.010499 
L 1355.652912 213.919991 
L 1356.891169 218.79795 
L 1358.129427 224.748055 
L 1359.367684 231.452311 
L 1360.605941 239.220542 
L 1363.082456 256.441525 
L 1364.320713 262.021284 
L 1365.55897 265.210433 
L 1366.797228 270.856346 
L 1368.035485 284.083469 
L 1369.273742 304.836737 
L 1371.750257 349.873045 
L 1372.988514 366.411206 
L 1374.226771 376.233962 
L 1375.465028 378.329224 
L 1376.703286 373.300198 
L 1380.418057 346.222395 
L 1381.656315 341.69729 
L 1382.894572 340.782058 
L 1384.132829 341.708094 
L 1385.371087 341.814859 
L 1386.609344 339.466599 
L 1387.847601 334.205329 
L 1389.085858 326.997734 
L 1390.324116 320.943086 
L 1391.562373 319.279287 
L 1392.80063 321.627016 
L 1394.038887 322.855999 
L 1395.277145 316.467146 
L 1396.515402 299.431194 
L 1398.991916 252.245389 
L 1400.230174 239.39293 
L 1401.468431 237.411015 
L 1402.706688 241.237068 
L 1406.42146 256.014904 
L 1407.659717 263.297784 
L 1408.897975 273.452018 
L 1412.612746 308.928797 
L 1413.851004 316.719546 
L 1415.089261 319.180653 
L 1416.327518 316.034862 
L 1417.565775 308.297793 
L 1418.804033 298.656005 
L 1420.04229 291.355086 
L 1421.280547 288.519372 
L 1422.518805 288.394682 
L 1423.757062 288.773778 
L 1424.995319 289.350034 
L 1426.233576 290.134363 
L 1429.948348 291.84355 
L 1431.186605 291.187807 
L 1432.424863 287.963816 
L 1433.66312 284.133521 
L 1434.901377 284.17893 
L 1436.139634 290.947623 
L 1437.377892 303.796094 
L 1438.616149 319.172327 
L 1439.854406 331.218209 
L 1441.092664 333.586141 
L 1442.330921 323.042185 
L 1444.807435 280.855029 
L 1446.045693 264.254276 
L 1447.28395 254.172538 
L 1448.522207 248.832348 
L 1449.760464 247.501311 
L 1450.998722 251.545478 
L 1452.236979 262.214395 
L 1455.951751 308.267946 
L 1457.190008 317.197944 
L 1458.428265 321.611126 
L 1459.666523 321.030896 
L 1460.90478 314.890684 
L 1462.143037 306.329096 
L 1463.381294 300.8723 
L 1464.619552 301.385262 
L 1465.857809 306.716574 
L 1467.096066 314.329607 
L 1468.334323 323.379125 
L 1470.810838 345.397517 
L 1472.049095 353.2832 
L 1473.287353 355.09507 
L 1474.52561 351.720132 
L 1475.763867 347.305452 
L 1477.002124 345.442296 
L 1478.240382 346.648818 
L 1479.478639 349.933455 
L 1480.716896 353.738393 
L 1481.955153 355.167762 
L 1483.193411 351.092078 
L 1484.431668 339.718925 
L 1485.669925 321.385345 
L 1486.908182 299.717617 
L 1488.14644 281.672244 
L 1489.384697 273.76075 
L 1490.622954 276.956674 
L 1491.861212 286.145912 
L 1493.099469 293.379165 
L 1494.337726 292.03578 
L 1495.575983 281.293825 
L 1496.814241 266.705921 
L 1498.052498 255.228729 
L 1499.290755 250.460215 
L 1500.529012 251.889205 
L 1501.76727 257.071981 
L 1503.005527 264.326807 
L 1505.482041 281.398679 
L 1506.720299 287.207406 
L 1507.958556 288.746775 
L 1509.196813 286.395155 
L 1510.435071 282.351517 
L 1511.673328 279.769409 
L 1512.911585 281.420106 
L 1514.149842 287.760944 
L 1515.3881 295.852743 
L 1516.626357 301.171195 
L 1517.864614 301.474472 
L 1519.102871 298.915961 
L 1520.341129 297.103131 
L 1521.579386 296.650501 
L 1522.817643 295.283372 
L 1524.0559 290.532775 
L 1525.294158 280.629914 
L 1526.532415 264.567166 
L 1527.770672 244.140741 
L 1529.00893 225.575528 
L 1530.247187 215.850595 
L 1531.485444 217.224447 
L 1532.723701 226.585086 
L 1536.438473 264.249135 
L 1537.67673 270.729828 
L 1538.914988 266.006733 
L 1540.153245 250.405912 
L 1541.391502 231.597087 
L 1542.62976 217.655515 
L 1543.868017 211.310246 
L 1545.106274 211.235628 
L 1546.344531 216.081389 
L 1547.582789 224.699343 
L 1548.821046 234.188502 
L 1550.059303 241.417155 
L 1551.29756 246.673818 
L 1552.535818 253.495104 
L 1555.012332 275.251194 
L 1556.250589 281.803371 
L 1557.488847 279.204529 
L 1558.727104 268.359821 
L 1559.965361 256.18049 
L 1561.203619 249.612133 
L 1562.441876 249.538275 
L 1563.680133 252.492119 
L 1564.91839 256.13849 
L 1566.156648 261.32812 
L 1567.394905 269.419485 
L 1568.633162 279.137339 
L 1569.871419 287.9741 
L 1571.109677 295.180398 
L 1572.347934 300.083446 
L 1573.586191 299.078398 
L 1574.824448 288.433363 
L 1577.300963 251.216953 
L 1578.53922 239.148786 
L 1579.777478 236.319938 
L 1582.253992 244.657441 
L 1583.492249 241.181987 
L 1584.730507 226.507725 
L 1587.207021 183.20735 
L 1588.445278 171.117428 
L 1589.683536 170.967916 
L 1590.921793 180.283508 
L 1593.398307 206.183044 
L 1595.874822 223.582899 
L 1597.113079 234.879246 
L 1599.589594 263.592434 
L 1600.827851 274.9483 
L 1602.066108 281.181168 
L 1603.304366 282.012115 
L 1605.78088 277.293588 
L 1607.019137 276.612407 
L 1609.495652 277.532129 
L 1610.733909 275.958408 
L 1611.972166 269.447753 
L 1613.210424 255.909547 
L 1615.686938 217.000244 
L 1616.925196 204.816835 
L 1618.163453 205.826184 
L 1620.639967 226.723748 
L 1621.878225 227.860348 
L 1624.354739 216.307059 
L 1625.592996 215.201283 
L 1628.069511 220.803011 
L 1629.307768 217.881168 
L 1630.546026 205.907162 
L 1631.784283 185.769296 
L 1633.02254 162.818754 
L 1634.260797 142.135358 
L 1637.975569 85.150383 
L 1639.213826 69.111072 
L 1640.452084 57.135335 
L 1641.690341 47.979282 
L 1641.690341 47.979282 
" style="fill:none;stroke:#008000;stroke-linecap:square;stroke-width:1.5;"/>
   </g>
   <g id="patch_3">
    <path d="M 43.78125 586.86358 
L 43.78125 22.318125 
" style="fill:none;stroke:#000000;stroke-linecap:square;stroke-linejoin:miter;stroke-width:0.8;"/>
   </g>
   <g id="patch_4">
    <path d="M 1717.78125 586.86358 
L 1717.78125 22.318125 
" style="fill:none;stroke:#000000;stroke-linecap:square;stroke-linejoin:miter;stroke-width:0.8;"/>
   </g>
   <g id="patch_5">
    <path d="M 43.78125 586.86358 
L 1717.78125 586.86358 
" style="fill:none;stroke:#000000;stroke-linecap:square;stroke-linejoin:miter;stroke-width:0.8;"/>
   </g>
   <g id="patch_6">
    <path d="M 43.78125 22.318125 
L 1717.78125 22.318125 
" style="fill:none;stroke:#000000;stroke-linecap:square;stroke-linejoin:miter;stroke-width:0.8;"/>
   </g>
   <g id="text_16">
    <!-- before binarisation -->
    <g transform="translate(824.1825 16.318125)scale(0.12 -0.12)">
     <defs>
      <path d="M 3116 1747 
Q 3116 2381 2855 2742 
Q 2594 3103 2138 3103 
Q 1681 3103 1420 2742 
Q 1159 2381 1159 1747 
Q 1159 1113 1420 752 
Q 1681 391 2138 391 
Q 2594 391 2855 752 
Q 3116 1113 3116 1747 
z
M 1159 2969 
Q 1341 3281 1617 3432 
Q 1894 3584 2278 3584 
Q 2916 3584 3314 3078 
Q 3713 2572 3713 1747 
Q 3713 922 3314 415 
Q 2916 -91 2278 -91 
Q 1894 -91 1617 61 
Q 1341 213 1159 525 
L 1159 0 
L 581 0 
L 581 4863 
L 1159 4863 
L 1159 2969 
z
" id="DejaVuSans-62" transform="scale(0.015625)"/>
      <path d="M 1959 3097 
Q 1497 3097 1228 2736 
Q 959 2375 959 1747 
Q 959 1119 1226 758 
Q 1494 397 1959 397 
Q 2419 397 2687 759 
Q 2956 1122 2956 1747 
Q 2956 2369 2687 2733 
Q 2419 3097 1959 3097 
z
M 1959 3584 
Q 2709 3584 3137 3096 
Q 3566 2609 3566 1747 
Q 3566 888 3137 398 
Q 2709 -91 1959 -91 
Q 1206 -91 779 398 
Q 353 888 353 1747 
Q 353 2609 779 3096 
Q 1206 3584 1959 3584 
z
" id="DejaVuSans-6f" transform="scale(0.015625)"/>
      <path id="DejaVuSans-20" transform="scale(0.015625)"/>
      <path d="M 603 3500 
L 1178 3500 
L 1178 0 
L 603 0 
L 603 3500 
z
M 603 4863 
L 1178 4863 
L 1178 4134 
L 603 4134 
L 603 4863 
z
" id="DejaVuSans-69" transform="scale(0.015625)"/>
      <path d="M 3513 2113 
L 3513 0 
L 2938 0 
L 2938 2094 
Q 2938 2591 2744 2837 
Q 2550 3084 2163 3084 
Q 1697 3084 1428 2787 
Q 1159 2491 1159 1978 
L 1159 0 
L 581 0 
L 581 3500 
L 1159 3500 
L 1159 2956 
Q 1366 3272 1645 3428 
Q 1925 3584 2291 3584 
Q 2894 3584 3203 3211 
Q 3513 2838 3513 2113 
z
" id="DejaVuSans-6e" transform="scale(0.015625)"/>
      <path d="M 2834 3397 
L 2834 2853 
Q 2591 2978 2328 3040 
Q 2066 3103 1784 3103 
Q 1356 3103 1142 2972 
Q 928 2841 928 2578 
Q 928 2378 1081 2264 
Q 1234 2150 1697 2047 
L 1894 2003 
Q 2506 1872 2764 1633 
Q 3022 1394 3022 966 
Q 3022 478 2636 193 
Q 2250 -91 1575 -91 
Q 1294 -91 989 -36 
Q 684 19 347 128 
L 347 722 
Q 666 556 975 473 
Q 1284 391 1588 391 
Q 1994 391 2212 530 
Q 2431 669 2431 922 
Q 2431 1156 2273 1281 
Q 2116 1406 1581 1522 
L 1381 1569 
Q 847 1681 609 1914 
Q 372 2147 372 2553 
Q 372 3047 722 3315 
Q 1072 3584 1716 3584 
Q 2034 3584 2315 3537 
Q 2597 3491 2834 3397 
z
" id="DejaVuSans-73" transform="scale(0.015625)"/>
      <path d="M 1172 4494 
L 1172 3500 
L 2356 3500 
L 2356 3053 
L 1172 3053 
L 1172 1153 
Q 1172 725 1289 603 
Q 1406 481 1766 481 
L 2356 481 
L 2356 0 
L 1766 0 
Q 1100 0 847 248 
Q 594 497 594 1153 
L 594 3053 
L 172 3053 
L 172 3500 
L 594 3500 
L 594 4494 
L 1172 4494 
z
" id="DejaVuSans-74" transform="scale(0.015625)"/>
     </defs>
     <use xlink:href="#DejaVuSans-62"/>
     <use x="63.476562" xlink:href="#DejaVuSans-65"/>
     <use x="125" xlink:href="#DejaVuSans-66"/>
     <use x="160.205078" xlink:href="#DejaVuSans-6f"/>
     <use x="221.386719" xlink:href="#DejaVuSans-72"/>
     <use x="260.25" xlink:href="#DejaVuSans-65"/>
     <use x="321.773438" xlink:href="#DejaVuSans-20"/>
     <use x="353.560547" xlink:href="#DejaVuSans-62"/>
     <use x="417.037109" xlink:href="#DejaVuSans-69"/>
     <use x="444.820312" xlink:href="#DejaVuSans-6e"/>
     <use x="508.199219" xlink:href="#DejaVuSans-61"/>
     <use x="569.478516" xlink:href="#DejaVuSans-72"/>
     <use x="610.591797" xlink:href="#DejaVuSans-69"/>
     <use x="638.375" xlink:href="#DejaVuSans-73"/>
     <use x="690.474609" xlink:href="#DejaVuSans-61"/>
     <use x="751.753906" xlink:href="#DejaVuSans-74"/>
     <use x="790.962891" xlink:href="#DejaVuSans-69"/>
     <use x="818.746094" xlink:href="#DejaVuSans-6f"/>
     <use x="879.927734" xlink:href="#DejaVuSans-6e"/>
    </g>
   </g>
  </g>
  <g id="axes_2">
   <g id="patch_7">
    <path d="M 43.78125 1264.318125 
L 1717.78125 1264.318125 
L 1717.78125 699.77267 
L 43.78125 699.77267 
z
" style="fill:#ffffff;"/>
   </g>
   <g id="matplotlib.axis_3">
    <g id="xtick_8">
     <g id="line2d_15">
      <g>
       <use style="stroke:#000000;stroke-width:0.8;" x="119.872159" xlink:href="#m999eeca669" y="1264.318125"/>
      </g>
     </g>
     <g id="text_17">
      <!-- 0 -->
      <g transform="translate(116.690909 1278.916563)scale(0.1 -0.1)">
       <use xlink:href="#DejaVuSans-30"/>
      </g>
     </g>
    </g>
    <g id="xtick_9">
     <g id="line2d_16">
      <g>
       <use style="stroke:#000000;stroke-width:0.8;" x="367.523613" xlink:href="#m999eeca669" y="1264.318125"/>
      </g>
     </g>
     <g id="text_18">
      <!-- 200 -->
      <g transform="translate(357.979863 1278.916563)scale(0.1 -0.1)">
       <use xlink:href="#DejaVuSans-32"/>
       <use x="63.623047" xlink:href="#DejaVuSans-30"/>
       <use x="127.246094" xlink:href="#DejaVuSans-30"/>
      </g>
     </g>
    </g>
    <g id="xtick_10">
     <g id="line2d_17">
      <g>
       <use style="stroke:#000000;stroke-width:0.8;" x="615.175066" xlink:href="#m999eeca669" y="1264.318125"/>
      </g>
     </g>
     <g id="text_19">
      <!-- 400 -->
      <g transform="translate(605.631316 1278.916563)scale(0.1 -0.1)">
       <use xlink:href="#DejaVuSans-34"/>
       <use x="63.623047" xlink:href="#DejaVuSans-30"/>
       <use x="127.246094" xlink:href="#DejaVuSans-30"/>
      </g>
     </g>
    </g>
    <g id="xtick_11">
     <g id="line2d_18">
      <g>
       <use style="stroke:#000000;stroke-width:0.8;" x="862.82652" xlink:href="#m999eeca669" y="1264.318125"/>
      </g>
     </g>
     <g id="text_20">
      <!-- 600 -->
      <g transform="translate(853.28277 1278.916563)scale(0.1 -0.1)">
       <use xlink:href="#DejaVuSans-36"/>
       <use x="63.623047" xlink:href="#DejaVuSans-30"/>
       <use x="127.246094" xlink:href="#DejaVuSans-30"/>
      </g>
     </g>
    </g>
    <g id="xtick_12">
     <g id="line2d_19">
      <g>
       <use style="stroke:#000000;stroke-width:0.8;" x="1110.477973" xlink:href="#m999eeca669" y="1264.318125"/>
      </g>
     </g>
     <g id="text_21">
      <!-- 800 -->
      <g transform="translate(1100.934223 1278.916563)scale(0.1 -0.1)">
       <use xlink:href="#DejaVuSans-38"/>
       <use x="63.623047" xlink:href="#DejaVuSans-30"/>
       <use x="127.246094" xlink:href="#DejaVuSans-30"/>
      </g>
     </g>
    </g>
    <g id="xtick_13">
     <g id="line2d_20">
      <g>
       <use style="stroke:#000000;stroke-width:0.8;" x="1358.129427" xlink:href="#m999eeca669" y="1264.318125"/>
      </g>
     </g>
     <g id="text_22">
      <!-- 1000 -->
      <g transform="translate(1345.404427 1278.916563)scale(0.1 -0.1)">
       <use xlink:href="#DejaVuSans-31"/>
       <use x="63.623047" xlink:href="#DejaVuSans-30"/>
       <use x="127.246094" xlink:href="#DejaVuSans-30"/>
       <use x="190.869141" xlink:href="#DejaVuSans-30"/>
      </g>
     </g>
    </g>
    <g id="xtick_14">
     <g id="line2d_21">
      <g>
       <use style="stroke:#000000;stroke-width:0.8;" x="1605.78088" xlink:href="#m999eeca669" y="1264.318125"/>
      </g>
     </g>
     <g id="text_23">
      <!-- 1200 -->
      <g transform="translate(1593.05588 1278.916563)scale(0.1 -0.1)">
       <use xlink:href="#DejaVuSans-31"/>
       <use x="63.623047" xlink:href="#DejaVuSans-32"/>
       <use x="127.246094" xlink:href="#DejaVuSans-30"/>
       <use x="190.869141" xlink:href="#DejaVuSans-30"/>
      </g>
     </g>
    </g>
    <g id="text_24">
     <!-- frame -->
     <g transform="translate(865.954687 1292.594688)scale(0.1 -0.1)">
      <use xlink:href="#DejaVuSans-66"/>
      <use x="35.205078" xlink:href="#DejaVuSans-72"/>
      <use x="76.318359" xlink:href="#DejaVuSans-61"/>
      <use x="137.597656" xlink:href="#DejaVuSans-6d"/>
      <use x="235.009766" xlink:href="#DejaVuSans-65"/>
     </g>
    </g>
   </g>
   <g id="matplotlib.axis_4">
    <g id="ytick_7">
     <g id="line2d_22">
      <g>
       <use style="stroke:#000000;stroke-width:0.8;" x="43.78125" xlink:href="#m049ccb743e" y="1238.656968"/>
      </g>
     </g>
     <g id="text_25">
      <!-- 0.0 -->
      <g transform="translate(20.878125 1242.456187)scale(0.1 -0.1)">
       <use xlink:href="#DejaVuSans-30"/>
       <use x="63.623047" xlink:href="#DejaVuSans-2e"/>
       <use x="95.410156" xlink:href="#DejaVuSans-30"/>
      </g>
     </g>
    </g>
    <g id="ytick_8">
     <g id="line2d_23">
      <g>
       <use style="stroke:#000000;stroke-width:0.8;" x="43.78125" xlink:href="#m049ccb743e" y="1136.01234"/>
      </g>
     </g>
     <g id="text_26">
      <!-- 0.2 -->
      <g transform="translate(20.878125 1139.811559)scale(0.1 -0.1)">
       <use xlink:href="#DejaVuSans-30"/>
       <use x="63.623047" xlink:href="#DejaVuSans-2e"/>
       <use x="95.410156" xlink:href="#DejaVuSans-32"/>
      </g>
     </g>
    </g>
    <g id="ytick_9">
     <g id="line2d_24">
      <g>
       <use style="stroke:#000000;stroke-width:0.8;" x="43.78125" xlink:href="#m049ccb743e" y="1033.367712"/>
      </g>
     </g>
     <g id="text_27">
      <!-- 0.4 -->
      <g transform="translate(20.878125 1037.166931)scale(0.1 -0.1)">
       <use xlink:href="#DejaVuSans-30"/>
       <use x="63.623047" xlink:href="#DejaVuSans-2e"/>
       <use x="95.410156" xlink:href="#DejaVuSans-34"/>
      </g>
     </g>
    </g>
    <g id="ytick_10">
     <g id="line2d_25">
      <g>
       <use style="stroke:#000000;stroke-width:0.8;" x="43.78125" xlink:href="#m049ccb743e" y="930.723084"/>
      </g>
     </g>
     <g id="text_28">
      <!-- 0.6 -->
      <g transform="translate(20.878125 934.522302)scale(0.1 -0.1)">
       <use xlink:href="#DejaVuSans-30"/>
       <use x="63.623047" xlink:href="#DejaVuSans-2e"/>
       <use x="95.410156" xlink:href="#DejaVuSans-36"/>
      </g>
     </g>
    </g>
    <g id="ytick_11">
     <g id="line2d_26">
      <g>
       <use style="stroke:#000000;stroke-width:0.8;" x="43.78125" xlink:href="#m049ccb743e" y="828.078456"/>
      </g>
     </g>
     <g id="text_29">
      <!-- 0.8 -->
      <g transform="translate(20.878125 831.877674)scale(0.1 -0.1)">
       <use xlink:href="#DejaVuSans-30"/>
       <use x="63.623047" xlink:href="#DejaVuSans-2e"/>
       <use x="95.410156" xlink:href="#DejaVuSans-38"/>
      </g>
     </g>
    </g>
    <g id="ytick_12">
     <g id="line2d_27">
      <g>
       <use style="stroke:#000000;stroke-width:0.8;" x="43.78125" xlink:href="#m049ccb743e" y="725.433827"/>
      </g>
     </g>
     <g id="text_30">
      <!-- 1.0 -->
      <g transform="translate(20.878125 729.233046)scale(0.1 -0.1)">
       <use xlink:href="#DejaVuSans-31"/>
       <use x="63.623047" xlink:href="#DejaVuSans-2e"/>
       <use x="95.410156" xlink:href="#DejaVuSans-30"/>
      </g>
     </g>
    </g>
    <g id="text_31">
     <!-- GCaMP -->
     <g transform="translate(14.798437 999.803991)rotate(-90)scale(0.1 -0.1)">
      <use xlink:href="#DejaVuSans-47"/>
      <use x="77.490234" xlink:href="#DejaVuSans-43"/>
      <use x="147.314453" xlink:href="#DejaVuSans-61"/>
      <use x="208.59375" xlink:href="#DejaVuSans-4d"/>
      <use x="294.873047" xlink:href="#DejaVuSans-50"/>
     </g>
    </g>
   </g>
   <g id="line2d_28">
    <path clip-path="url(#p2037bcd407)" d="M 119.872159 1238.656968 
L 630.034153 1238.656968 
L 631.272411 725.433827 
L 642.416726 725.433827 
L 643.654983 1238.656968 
L 743.953822 1238.656968 
L 745.192079 725.433827 
L 750.145108 725.433827 
L 751.383366 1238.656968 
L 1011.417392 1238.656968 
L 1012.655649 725.433827 
L 1038.659052 725.433827 
L 1039.897309 1238.656968 
L 1051.041624 1238.656968 
L 1052.279882 725.433827 
L 1059.709425 725.433827 
L 1060.947682 1238.656968 
L 1075.80677 1238.656968 
L 1077.045027 725.433827 
L 1081.998056 725.433827 
L 1083.236313 1238.656968 
L 1093.142371 1238.656968 
L 1094.380629 725.433827 
L 1095.618886 1238.656968 
L 1219.444613 1238.656968 
L 1220.68287 725.433827 
L 1224.397642 725.433827 
L 1225.635899 1238.656968 
L 1241.733243 1238.656968 
L 1242.971501 725.433827 
L 1259.068845 725.433827 
L 1260.307103 1238.656968 
L 1317.266937 1238.656968 
L 1318.505194 725.433827 
L 1332.126024 725.433827 
L 1333.364281 1238.656968 
L 1348.223368 1238.656968 
L 1349.461626 725.433827 
L 1356.891169 725.433827 
L 1358.129427 1238.656968 
L 1529.00893 1238.656968 
L 1530.247187 725.433827 
L 1531.485444 725.433827 
L 1532.723701 1238.656968 
L 1541.391502 1238.656968 
L 1542.62976 725.433827 
L 1546.344531 725.433827 
L 1547.582789 1238.656968 
L 1584.730507 1238.656968 
L 1585.968764 725.433827 
L 1594.636565 725.433827 
L 1595.874822 1238.656968 
L 1614.448681 1238.656968 
L 1615.686938 725.433827 
L 1619.40171 725.433827 
L 1620.639967 1238.656968 
L 1623.116482 1238.656968 
L 1624.354739 725.433827 
L 1626.831254 725.433827 
L 1628.069511 1238.656968 
L 1629.307768 725.433827 
L 1641.690341 725.433827 
L 1641.690341 725.433827 
" style="fill:none;stroke:#008000;stroke-linecap:square;stroke-width:1.5;"/>
   </g>
   <g id="patch_8">
    <path d="M 43.78125 1264.318125 
L 43.78125 699.77267 
" style="fill:none;stroke:#000000;stroke-linecap:square;stroke-linejoin:miter;stroke-width:0.8;"/>
   </g>
   <g id="patch_9">
    <path d="M 1717.78125 1264.318125 
L 1717.78125 699.77267 
" style="fill:none;stroke:#000000;stroke-linecap:square;stroke-linejoin:miter;stroke-width:0.8;"/>
   </g>
   <g id="patch_10">
    <path d="M 43.78125 1264.318125 
L 1717.78125 1264.318125 
" style="fill:none;stroke:#000000;stroke-linecap:square;stroke-linejoin:miter;stroke-width:0.8;"/>
   </g>
   <g id="patch_11">
    <path d="M 43.78125 699.77267 
L 1717.78125 699.77267 
" style="fill:none;stroke:#000000;stroke-linecap:square;stroke-linejoin:miter;stroke-width:0.8;"/>
   </g>
   <g id="text_32">
    <!-- before binarisation -->
    <g transform="translate(824.1825 693.77267)scale(0.12 -0.12)">
     <use xlink:href="#DejaVuSans-62"/>
     <use x="63.476562" xlink:href="#DejaVuSans-65"/>
     <use x="125" xlink:href="#DejaVuSans-66"/>
     <use x="160.205078" xlink:href="#DejaVuSans-6f"/>
     <use x="221.386719" xlink:href="#DejaVuSans-72"/>
     <use x="260.25" xlink:href="#DejaVuSans-65"/>
     <use x="321.773438" xlink:href="#DejaVuSans-20"/>
     <use x="353.560547" xlink:href="#DejaVuSans-62"/>
     <use x="417.037109" xlink:href="#DejaVuSans-69"/>
     <use x="444.820312" xlink:href="#DejaVuSans-6e"/>
     <use x="508.199219" xlink:href="#DejaVuSans-61"/>
     <use x="569.478516" xlink:href="#DejaVuSans-72"/>
     <use x="610.591797" xlink:href="#DejaVuSans-69"/>
     <use x="638.375" xlink:href="#DejaVuSans-73"/>
     <use x="690.474609" xlink:href="#DejaVuSans-61"/>
     <use x="751.753906" xlink:href="#DejaVuSans-74"/>
     <use x="790.962891" xlink:href="#DejaVuSans-69"/>
     <use x="818.746094" xlink:href="#DejaVuSans-6f"/>
     <use x="879.927734" xlink:href="#DejaVuSans-6e"/>
    </g>
   </g>
  </g>
 </g>
 <defs>
  <clipPath id="pb6470479c5">
   <rect height="564.545455" width="1674" x="43.78125" y="22.318125"/>
  </clipPath>
  <clipPath id="p2037bcd407">
   <rect height="564.545455" width="1674" x="43.78125" y="699.77267"/>
  </clipPath>
 </defs>
</svg>
