<?xml version="1.0" encoding="utf-8" standalone="no"?>
<!DOCTYPE svg PUBLIC "-//W3C//DTD SVG 1.1//EN"
  "http://www.w3.org/Graphics/SVG/1.1/DTD/svg11.dtd">
<svg height="1301.874375pt" version="1.1" viewBox="0 0 1724.98125 1301.874375" width="1724.98125pt" xmlns="http://www.w3.org/2000/svg" xmlns:xlink="http://www.w3.org/1999/xlink">
 <metadata>
  <rdf:RDF xmlns:cc="http://creativecommons.org/ns#" xmlns:dc="http://purl.org/dc/elements/1.1/" xmlns:rdf="http://www.w3.org/1999/02/22-rdf-syntax-ns#">
   <cc:Work>
    <dc:type rdf:resource="http://purl.org/dc/dcmitype/StillImage"/>
    <dc:date>2022-07-24T15:54:40.863558</dc:date>
    <dc:format>image/svg+xml</dc:format>
    <dc:creator>
     <cc:Agent>
      <dc:title>Matplotlib v3.4.2, https://matplotlib.org/</dc:title>
     </cc:Agent>
    </dc:creator>
   </cc:Work>
  </rdf:RDF>
 </metadata>
 <defs>
  <style type="text/css">*{stroke-linecap:butt;stroke-linejoin:round;}</style>
 </defs>
 <g id="figure_1">
  <g id="patch_1">
   <path d="M 0 1301.874375 
L 1724.98125 1301.874375 
L 1724.98125 0 
L 0 0 
z
" style="fill:#ffffff;"/>
  </g>
  <g id="axes_1">
   <g id="patch_2">
    <path d="M 43.78125 586.86358 
L 1717.78125 586.86358 
L 1717.78125 22.318125 
L 43.78125 22.318125 
z
" style="fill:#ffffff;"/>
   </g>
   <g id="matplotlib.axis_1">
    <g id="xtick_1">
     <g id="line2d_1">
      <defs>
       <path d="M 0 0 
L 0 3.5 
" id="mb591ce9af7" style="stroke:#000000;stroke-width:0.8;"/>
      </defs>
      <g>
       <use style="stroke:#000000;stroke-width:0.8;" x="119.872159" xlink:href="#mb591ce9af7" y="586.86358"/>
      </g>
     </g>
     <g id="text_1">
      <!-- 0 -->
      <g transform="translate(116.690909 601.462017)scale(0.1 -0.1)">
       <defs>
        <path d="M 2034 4250 
Q 1547 4250 1301 3770 
Q 1056 3291 1056 2328 
Q 1056 1369 1301 889 
Q 1547 409 2034 409 
Q 2525 409 2770 889 
Q 3016 1369 3016 2328 
Q 3016 3291 2770 3770 
Q 2525 4250 2034 4250 
z
M 2034 4750 
Q 2819 4750 3233 4129 
Q 3647 3509 3647 2328 
Q 3647 1150 3233 529 
Q 2819 -91 2034 -91 
Q 1250 -91 836 529 
Q 422 1150 422 2328 
Q 422 3509 836 4129 
Q 1250 4750 2034 4750 
z
" id="DejaVuSans-30" transform="scale(0.015625)"/>
       </defs>
       <use xlink:href="#DejaVuSans-30"/>
      </g>
     </g>
    </g>
    <g id="xtick_2">
     <g id="line2d_2">
      <g>
       <use style="stroke:#000000;stroke-width:0.8;" x="367.523613" xlink:href="#mb591ce9af7" y="586.86358"/>
      </g>
     </g>
     <g id="text_2">
      <!-- 200 -->
      <g transform="translate(357.979863 601.462017)scale(0.1 -0.1)">
       <defs>
        <path d="M 1228 531 
L 3431 531 
L 3431 0 
L 469 0 
L 469 531 
Q 828 903 1448 1529 
Q 2069 2156 2228 2338 
Q 2531 2678 2651 2914 
Q 2772 3150 2772 3378 
Q 2772 3750 2511 3984 
Q 2250 4219 1831 4219 
Q 1534 4219 1204 4116 
Q 875 4013 500 3803 
L 500 4441 
Q 881 4594 1212 4672 
Q 1544 4750 1819 4750 
Q 2544 4750 2975 4387 
Q 3406 4025 3406 3419 
Q 3406 3131 3298 2873 
Q 3191 2616 2906 2266 
Q 2828 2175 2409 1742 
Q 1991 1309 1228 531 
z
" id="DejaVuSans-32" transform="scale(0.015625)"/>
       </defs>
       <use xlink:href="#DejaVuSans-32"/>
       <use x="63.623047" xlink:href="#DejaVuSans-30"/>
       <use x="127.246094" xlink:href="#DejaVuSans-30"/>
      </g>
     </g>
    </g>
    <g id="xtick_3">
     <g id="line2d_3">
      <g>
       <use style="stroke:#000000;stroke-width:0.8;" x="615.175066" xlink:href="#mb591ce9af7" y="586.86358"/>
      </g>
     </g>
     <g id="text_3">
      <!-- 400 -->
      <g transform="translate(605.631316 601.462017)scale(0.1 -0.1)">
       <defs>
        <path d="M 2419 4116 
L 825 1625 
L 2419 1625 
L 2419 4116 
z
M 2253 4666 
L 3047 4666 
L 3047 1625 
L 3713 1625 
L 3713 1100 
L 3047 1100 
L 3047 0 
L 2419 0 
L 2419 1100 
L 313 1100 
L 313 1709 
L 2253 4666 
z
" id="DejaVuSans-34" transform="scale(0.015625)"/>
       </defs>
       <use xlink:href="#DejaVuSans-34"/>
       <use x="63.623047" xlink:href="#DejaVuSans-30"/>
       <use x="127.246094" xlink:href="#DejaVuSans-30"/>
      </g>
     </g>
    </g>
    <g id="xtick_4">
     <g id="line2d_4">
      <g>
       <use style="stroke:#000000;stroke-width:0.8;" x="862.82652" xlink:href="#mb591ce9af7" y="586.86358"/>
      </g>
     </g>
     <g id="text_4">
      <!-- 600 -->
      <g transform="translate(853.28277 601.462017)scale(0.1 -0.1)">
       <defs>
        <path d="M 2113 2584 
Q 1688 2584 1439 2293 
Q 1191 2003 1191 1497 
Q 1191 994 1439 701 
Q 1688 409 2113 409 
Q 2538 409 2786 701 
Q 3034 994 3034 1497 
Q 3034 2003 2786 2293 
Q 2538 2584 2113 2584 
z
M 3366 4563 
L 3366 3988 
Q 3128 4100 2886 4159 
Q 2644 4219 2406 4219 
Q 1781 4219 1451 3797 
Q 1122 3375 1075 2522 
Q 1259 2794 1537 2939 
Q 1816 3084 2150 3084 
Q 2853 3084 3261 2657 
Q 3669 2231 3669 1497 
Q 3669 778 3244 343 
Q 2819 -91 2113 -91 
Q 1303 -91 875 529 
Q 447 1150 447 2328 
Q 447 3434 972 4092 
Q 1497 4750 2381 4750 
Q 2619 4750 2861 4703 
Q 3103 4656 3366 4563 
z
" id="DejaVuSans-36" transform="scale(0.015625)"/>
       </defs>
       <use xlink:href="#DejaVuSans-36"/>
       <use x="63.623047" xlink:href="#DejaVuSans-30"/>
       <use x="127.246094" xlink:href="#DejaVuSans-30"/>
      </g>
     </g>
    </g>
    <g id="xtick_5">
     <g id="line2d_5">
      <g>
       <use style="stroke:#000000;stroke-width:0.8;" x="1110.477973" xlink:href="#mb591ce9af7" y="586.86358"/>
      </g>
     </g>
     <g id="text_5">
      <!-- 800 -->
      <g transform="translate(1100.934223 601.462017)scale(0.1 -0.1)">
       <defs>
        <path d="M 2034 2216 
Q 1584 2216 1326 1975 
Q 1069 1734 1069 1313 
Q 1069 891 1326 650 
Q 1584 409 2034 409 
Q 2484 409 2743 651 
Q 3003 894 3003 1313 
Q 3003 1734 2745 1975 
Q 2488 2216 2034 2216 
z
M 1403 2484 
Q 997 2584 770 2862 
Q 544 3141 544 3541 
Q 544 4100 942 4425 
Q 1341 4750 2034 4750 
Q 2731 4750 3128 4425 
Q 3525 4100 3525 3541 
Q 3525 3141 3298 2862 
Q 3072 2584 2669 2484 
Q 3125 2378 3379 2068 
Q 3634 1759 3634 1313 
Q 3634 634 3220 271 
Q 2806 -91 2034 -91 
Q 1263 -91 848 271 
Q 434 634 434 1313 
Q 434 1759 690 2068 
Q 947 2378 1403 2484 
z
M 1172 3481 
Q 1172 3119 1398 2916 
Q 1625 2713 2034 2713 
Q 2441 2713 2670 2916 
Q 2900 3119 2900 3481 
Q 2900 3844 2670 4047 
Q 2441 4250 2034 4250 
Q 1625 4250 1398 4047 
Q 1172 3844 1172 3481 
z
" id="DejaVuSans-38" transform="scale(0.015625)"/>
       </defs>
       <use xlink:href="#DejaVuSans-38"/>
       <use x="63.623047" xlink:href="#DejaVuSans-30"/>
       <use x="127.246094" xlink:href="#DejaVuSans-30"/>
      </g>
     </g>
    </g>
    <g id="xtick_6">
     <g id="line2d_6">
      <g>
       <use style="stroke:#000000;stroke-width:0.8;" x="1358.129427" xlink:href="#mb591ce9af7" y="586.86358"/>
      </g>
     </g>
     <g id="text_6">
      <!-- 1000 -->
      <g transform="translate(1345.404427 601.462017)scale(0.1 -0.1)">
       <defs>
        <path d="M 794 531 
L 1825 531 
L 1825 4091 
L 703 3866 
L 703 4441 
L 1819 4666 
L 2450 4666 
L 2450 531 
L 3481 531 
L 3481 0 
L 794 0 
L 794 531 
z
" id="DejaVuSans-31" transform="scale(0.015625)"/>
       </defs>
       <use xlink:href="#DejaVuSans-31"/>
       <use x="63.623047" xlink:href="#DejaVuSans-30"/>
       <use x="127.246094" xlink:href="#DejaVuSans-30"/>
       <use x="190.869141" xlink:href="#DejaVuSans-30"/>
      </g>
     </g>
    </g>
    <g id="xtick_7">
     <g id="line2d_7">
      <g>
       <use style="stroke:#000000;stroke-width:0.8;" x="1605.78088" xlink:href="#mb591ce9af7" y="586.86358"/>
      </g>
     </g>
     <g id="text_7">
      <!-- 1200 -->
      <g transform="translate(1593.05588 601.462017)scale(0.1 -0.1)">
       <use xlink:href="#DejaVuSans-31"/>
       <use x="63.623047" xlink:href="#DejaVuSans-32"/>
       <use x="127.246094" xlink:href="#DejaVuSans-30"/>
       <use x="190.869141" xlink:href="#DejaVuSans-30"/>
      </g>
     </g>
    </g>
    <g id="text_8">
     <!-- frame -->
     <g transform="translate(865.954687 615.140142)scale(0.1 -0.1)">
      <defs>
       <path d="M 2375 4863 
L 2375 4384 
L 1825 4384 
Q 1516 4384 1395 4259 
Q 1275 4134 1275 3809 
L 1275 3500 
L 2222 3500 
L 2222 3053 
L 1275 3053 
L 1275 0 
L 697 0 
L 697 3053 
L 147 3053 
L 147 3500 
L 697 3500 
L 697 3744 
Q 697 4328 969 4595 
Q 1241 4863 1831 4863 
L 2375 4863 
z
" id="DejaVuSans-66" transform="scale(0.015625)"/>
       <path d="M 2631 2963 
Q 2534 3019 2420 3045 
Q 2306 3072 2169 3072 
Q 1681 3072 1420 2755 
Q 1159 2438 1159 1844 
L 1159 0 
L 581 0 
L 581 3500 
L 1159 3500 
L 1159 2956 
Q 1341 3275 1631 3429 
Q 1922 3584 2338 3584 
Q 2397 3584 2469 3576 
Q 2541 3569 2628 3553 
L 2631 2963 
z
" id="DejaVuSans-72" transform="scale(0.015625)"/>
       <path d="M 2194 1759 
Q 1497 1759 1228 1600 
Q 959 1441 959 1056 
Q 959 750 1161 570 
Q 1363 391 1709 391 
Q 2188 391 2477 730 
Q 2766 1069 2766 1631 
L 2766 1759 
L 2194 1759 
z
M 3341 1997 
L 3341 0 
L 2766 0 
L 2766 531 
Q 2569 213 2275 61 
Q 1981 -91 1556 -91 
Q 1019 -91 701 211 
Q 384 513 384 1019 
Q 384 1609 779 1909 
Q 1175 2209 1959 2209 
L 2766 2209 
L 2766 2266 
Q 2766 2663 2505 2880 
Q 2244 3097 1772 3097 
Q 1472 3097 1187 3025 
Q 903 2953 641 2809 
L 641 3341 
Q 956 3463 1253 3523 
Q 1550 3584 1831 3584 
Q 2591 3584 2966 3190 
Q 3341 2797 3341 1997 
z
" id="DejaVuSans-61" transform="scale(0.015625)"/>
       <path d="M 3328 2828 
Q 3544 3216 3844 3400 
Q 4144 3584 4550 3584 
Q 5097 3584 5394 3201 
Q 5691 2819 5691 2113 
L 5691 0 
L 5113 0 
L 5113 2094 
Q 5113 2597 4934 2840 
Q 4756 3084 4391 3084 
Q 3944 3084 3684 2787 
Q 3425 2491 3425 1978 
L 3425 0 
L 2847 0 
L 2847 2094 
Q 2847 2600 2669 2842 
Q 2491 3084 2119 3084 
Q 1678 3084 1418 2786 
Q 1159 2488 1159 1978 
L 1159 0 
L 581 0 
L 581 3500 
L 1159 3500 
L 1159 2956 
Q 1356 3278 1631 3431 
Q 1906 3584 2284 3584 
Q 2666 3584 2933 3390 
Q 3200 3197 3328 2828 
z
" id="DejaVuSans-6d" transform="scale(0.015625)"/>
       <path d="M 3597 1894 
L 3597 1613 
L 953 1613 
Q 991 1019 1311 708 
Q 1631 397 2203 397 
Q 2534 397 2845 478 
Q 3156 559 3463 722 
L 3463 178 
Q 3153 47 2828 -22 
Q 2503 -91 2169 -91 
Q 1331 -91 842 396 
Q 353 884 353 1716 
Q 353 2575 817 3079 
Q 1281 3584 2069 3584 
Q 2775 3584 3186 3129 
Q 3597 2675 3597 1894 
z
M 3022 2063 
Q 3016 2534 2758 2815 
Q 2500 3097 2075 3097 
Q 1594 3097 1305 2825 
Q 1016 2553 972 2059 
L 3022 2063 
z
" id="DejaVuSans-65" transform="scale(0.015625)"/>
      </defs>
      <use xlink:href="#DejaVuSans-66"/>
      <use x="35.205078" xlink:href="#DejaVuSans-72"/>
      <use x="76.318359" xlink:href="#DejaVuSans-61"/>
      <use x="137.597656" xlink:href="#DejaVuSans-6d"/>
      <use x="235.009766" xlink:href="#DejaVuSans-65"/>
     </g>
    </g>
   </g>
   <g id="matplotlib.axis_2">
    <g id="ytick_1">
     <g id="line2d_8">
      <defs>
       <path d="M 0 0 
L -3.5 0 
" id="m916794bb30" style="stroke:#000000;stroke-width:0.8;"/>
      </defs>
      <g>
       <use style="stroke:#000000;stroke-width:0.8;" x="43.78125" xlink:href="#m916794bb30" y="563.900338"/>
      </g>
     </g>
     <g id="text_9">
      <!-- 1.0 -->
      <g transform="translate(20.878125 567.699557)scale(0.1 -0.1)">
       <defs>
        <path d="M 684 794 
L 1344 794 
L 1344 0 
L 684 0 
L 684 794 
z
" id="DejaVuSans-2e" transform="scale(0.015625)"/>
       </defs>
       <use xlink:href="#DejaVuSans-31"/>
       <use x="63.623047" xlink:href="#DejaVuSans-2e"/>
       <use x="95.410156" xlink:href="#DejaVuSans-30"/>
      </g>
     </g>
    </g>
    <g id="ytick_2">
     <g id="line2d_9">
      <g>
       <use style="stroke:#000000;stroke-width:0.8;" x="43.78125" xlink:href="#m916794bb30" y="466.372857"/>
      </g>
     </g>
     <g id="text_10">
      <!-- 1.2 -->
      <g transform="translate(20.878125 470.172076)scale(0.1 -0.1)">
       <use xlink:href="#DejaVuSans-31"/>
       <use x="63.623047" xlink:href="#DejaVuSans-2e"/>
       <use x="95.410156" xlink:href="#DejaVuSans-32"/>
      </g>
     </g>
    </g>
    <g id="ytick_3">
     <g id="line2d_10">
      <g>
       <use style="stroke:#000000;stroke-width:0.8;" x="43.78125" xlink:href="#m916794bb30" y="368.845377"/>
      </g>
     </g>
     <g id="text_11">
      <!-- 1.4 -->
      <g transform="translate(20.878125 372.644596)scale(0.1 -0.1)">
       <use xlink:href="#DejaVuSans-31"/>
       <use x="63.623047" xlink:href="#DejaVuSans-2e"/>
       <use x="95.410156" xlink:href="#DejaVuSans-34"/>
      </g>
     </g>
    </g>
    <g id="ytick_4">
     <g id="line2d_11">
      <g>
       <use style="stroke:#000000;stroke-width:0.8;" x="43.78125" xlink:href="#m916794bb30" y="271.317896"/>
      </g>
     </g>
     <g id="text_12">
      <!-- 1.6 -->
      <g transform="translate(20.878125 275.117115)scale(0.1 -0.1)">
       <use xlink:href="#DejaVuSans-31"/>
       <use x="63.623047" xlink:href="#DejaVuSans-2e"/>
       <use x="95.410156" xlink:href="#DejaVuSans-36"/>
      </g>
     </g>
    </g>
    <g id="ytick_5">
     <g id="line2d_12">
      <g>
       <use style="stroke:#000000;stroke-width:0.8;" x="43.78125" xlink:href="#m916794bb30" y="173.790416"/>
      </g>
     </g>
     <g id="text_13">
      <!-- 1.8 -->
      <g transform="translate(20.878125 177.589634)scale(0.1 -0.1)">
       <use xlink:href="#DejaVuSans-31"/>
       <use x="63.623047" xlink:href="#DejaVuSans-2e"/>
       <use x="95.410156" xlink:href="#DejaVuSans-38"/>
      </g>
     </g>
    </g>
    <g id="ytick_6">
     <g id="line2d_13">
      <g>
       <use style="stroke:#000000;stroke-width:0.8;" x="43.78125" xlink:href="#m916794bb30" y="76.262935"/>
      </g>
     </g>
     <g id="text_14">
      <!-- 2.0 -->
      <g transform="translate(20.878125 80.062154)scale(0.1 -0.1)">
       <use xlink:href="#DejaVuSans-32"/>
       <use x="63.623047" xlink:href="#DejaVuSans-2e"/>
       <use x="95.410156" xlink:href="#DejaVuSans-30"/>
      </g>
     </g>
    </g>
    <g id="text_15">
     <!-- GCaMP -->
     <g transform="translate(14.798437 322.349446)rotate(-90)scale(0.1 -0.1)">
      <defs>
       <path d="M 3809 666 
L 3809 1919 
L 2778 1919 
L 2778 2438 
L 4434 2438 
L 4434 434 
Q 4069 175 3628 42 
Q 3188 -91 2688 -91 
Q 1594 -91 976 548 
Q 359 1188 359 2328 
Q 359 3472 976 4111 
Q 1594 4750 2688 4750 
Q 3144 4750 3555 4637 
Q 3966 4525 4313 4306 
L 4313 3634 
Q 3963 3931 3569 4081 
Q 3175 4231 2741 4231 
Q 1884 4231 1454 3753 
Q 1025 3275 1025 2328 
Q 1025 1384 1454 906 
Q 1884 428 2741 428 
Q 3075 428 3337 486 
Q 3600 544 3809 666 
z
" id="DejaVuSans-47" transform="scale(0.015625)"/>
       <path d="M 4122 4306 
L 4122 3641 
Q 3803 3938 3442 4084 
Q 3081 4231 2675 4231 
Q 1875 4231 1450 3742 
Q 1025 3253 1025 2328 
Q 1025 1406 1450 917 
Q 1875 428 2675 428 
Q 3081 428 3442 575 
Q 3803 722 4122 1019 
L 4122 359 
Q 3791 134 3420 21 
Q 3050 -91 2638 -91 
Q 1578 -91 968 557 
Q 359 1206 359 2328 
Q 359 3453 968 4101 
Q 1578 4750 2638 4750 
Q 3056 4750 3426 4639 
Q 3797 4528 4122 4306 
z
" id="DejaVuSans-43" transform="scale(0.015625)"/>
       <path d="M 628 4666 
L 1569 4666 
L 2759 1491 
L 3956 4666 
L 4897 4666 
L 4897 0 
L 4281 0 
L 4281 4097 
L 3078 897 
L 2444 897 
L 1241 4097 
L 1241 0 
L 628 0 
L 628 4666 
z
" id="DejaVuSans-4d" transform="scale(0.015625)"/>
       <path d="M 1259 4147 
L 1259 2394 
L 2053 2394 
Q 2494 2394 2734 2622 
Q 2975 2850 2975 3272 
Q 2975 3691 2734 3919 
Q 2494 4147 2053 4147 
L 1259 4147 
z
M 628 4666 
L 2053 4666 
Q 2838 4666 3239 4311 
Q 3641 3956 3641 3272 
Q 3641 2581 3239 2228 
Q 2838 1875 2053 1875 
L 1259 1875 
L 1259 0 
L 628 0 
L 628 4666 
z
" id="DejaVuSans-50" transform="scale(0.015625)"/>
      </defs>
      <use xlink:href="#DejaVuSans-47"/>
      <use x="77.490234" xlink:href="#DejaVuSans-43"/>
      <use x="147.314453" xlink:href="#DejaVuSans-61"/>
      <use x="208.59375" xlink:href="#DejaVuSans-4d"/>
      <use x="294.873047" xlink:href="#DejaVuSans-50"/>
     </g>
    </g>
   </g>
   <g id="line2d_14">
    <path clip-path="url(#p43a0b96497)" d="M 119.872159 257.615462 
L 121.110416 282.375774 
L 122.348674 302.350638 
L 123.586931 316.869926 
L 126.063445 341.370792 
L 128.53996 367.150941 
L 129.778217 375.18827 
L 131.016474 376.093263 
L 132.254732 370.50416 
L 133.492989 363.342716 
L 134.731246 360.223812 
L 135.969504 363.695438 
L 137.207761 373.298648 
L 138.446018 387.184896 
L 140.922533 416.67894 
L 142.16079 427.855481 
L 143.399047 436.443493 
L 144.637304 442.954137 
L 145.875562 446.573809 
L 147.113819 446.122058 
L 148.352076 441.807076 
L 150.828591 428.763102 
L 152.066848 424.969029 
L 153.305105 424.662459 
L 154.543363 426.593335 
L 155.78162 429.098088 
L 157.019877 431.239892 
L 158.258134 432.739264 
L 159.496392 433.996094 
L 160.734649 436.133574 
L 161.972906 440.241369 
L 165.687678 457.065082 
L 166.925935 464.266438 
L 169.40245 483.514675 
L 170.640707 488.833719 
L 171.878964 488.24984 
L 173.117222 483.009619 
L 174.355479 475.092494 
L 175.593736 466.16402 
L 176.831993 458.212943 
L 178.070251 453.067704 
L 179.308508 451.180211 
L 180.546765 450.662737 
L 181.785022 447.512582 
L 183.02328 439.506114 
L 184.261537 430.394261 
L 185.499794 427.414395 
L 186.738052 434.220314 
L 187.976309 448.301745 
L 189.214566 464.516392 
L 190.452823 478.695551 
L 191.691081 488.809708 
L 192.929338 495.258833 
L 194.167595 499.979836 
L 195.405852 503.751916 
L 196.64411 505.079954 
L 197.882367 502.61747 
L 199.120624 497.206968 
L 200.358881 491.206394 
L 201.597139 487.15722 
L 202.835396 487.262242 
L 204.073653 493.180743 
L 205.311911 505.080465 
L 207.788425 536.679317 
L 209.026682 549.976869 
L 210.26494 558.679131 
L 211.503197 561.202423 
L 212.741454 557.243814 
L 213.979711 548.978347 
L 215.217969 539.959087 
L 216.456226 532.4116 
L 220.170998 513.441663 
L 221.409255 506.790685 
L 222.647512 501.622341 
L 223.88577 499.038523 
L 225.124027 499.336229 
L 226.362284 502.525725 
L 227.600541 508.143877 
L 232.55357 534.591135 
L 233.791828 538.824831 
L 235.030085 539.37759 
L 236.268342 535.854164 
L 237.5066 529.061493 
L 238.744857 521.274349 
L 239.983114 515.916619 
L 241.221371 515.084852 
L 242.459629 517.605816 
L 244.936143 524.093751 
L 246.1744 528.267205 
L 247.412658 533.302771 
L 248.650915 537.24372 
L 249.889172 538.290378 
L 251.127429 536.353185 
L 253.603944 528.377869 
L 254.842201 525.726744 
L 257.318716 524.225531 
L 258.556973 522.98239 
L 259.79523 523.240529 
L 261.033488 526.467091 
L 262.271745 531.006042 
L 263.510002 534.652529 
L 264.748259 536.85458 
L 265.986517 537.57859 
L 267.224774 536.612744 
L 269.701288 532.000347 
L 270.939546 530.935413 
L 272.177803 531.977306 
L 273.41606 534.857964 
L 274.654318 538.411885 
L 275.892575 541.00765 
L 277.130832 540.96105 
L 278.369089 537.870141 
L 279.607347 533.184065 
L 280.845604 528.968425 
L 282.083861 527.129242 
L 283.322118 529.127231 
L 284.560376 534.875819 
L 285.798633 542.206353 
L 287.03689 547.974413 
L 288.275147 549.667807 
L 289.513405 546.389597 
L 290.751662 538.745112 
L 294.466434 506.86607 
L 295.704691 498.944936 
L 296.942948 494.286014 
L 298.181206 493.407671 
L 299.419463 495.207843 
L 300.65772 497.805411 
L 301.895977 499.767976 
L 304.372492 501.697805 
L 305.610749 504.11031 
L 306.849006 508.225562 
L 308.087264 512.954784 
L 309.325521 516.588045 
L 310.563778 517.422545 
L 311.802036 514.632647 
L 313.040293 508.852081 
L 314.27855 502.428279 
L 315.516807 498.636103 
L 316.755065 498.92268 
L 317.993322 501.526588 
L 319.231579 503.125197 
L 320.469836 500.496326 
L 321.708094 491.991959 
L 324.184608 466.856008 
L 325.422866 458.324639 
L 326.661123 454.284263 
L 327.89938 452.636797 
L 329.137637 452.135063 
L 330.375895 454.301146 
L 331.614152 461.27179 
L 332.852409 472.572234 
L 334.090666 485.025645 
L 335.328924 495.354427 
L 336.567181 501.193637 
L 337.805438 501.190702 
L 339.043695 496.126582 
L 340.281953 488.79067 
L 341.52021 482.388197 
L 342.758467 479.436456 
L 343.996725 480.76371 
L 346.473239 488.421335 
L 347.711496 490.600869 
L 348.949754 490.714685 
L 350.188011 488.553942 
L 353.902783 477.581573 
L 355.14104 473.248157 
L 356.379297 468.053204 
L 357.617554 463.456641 
L 358.855812 461.672042 
L 360.094069 463.237274 
L 361.332326 465.968286 
L 362.570584 466.591475 
L 363.808841 463.122316 
L 365.047098 456.126153 
L 366.285355 448.419802 
L 367.523613 443.470354 
L 368.76187 443.3472 
L 370.000127 447.735427 
L 372.476642 461.416787 
L 373.714899 466.394141 
L 374.953156 468.604494 
L 376.191413 468.049905 
L 377.429671 465.033892 
L 378.667928 459.08131 
L 379.906185 448.918738 
L 381.144443 434.31355 
L 383.620957 402.265032 
L 384.859214 390.341438 
L 386.097472 381.529546 
L 387.335729 374.855236 
L 388.573986 370.394251 
L 389.812243 369.37258 
L 391.050501 372.169375 
L 392.288758 376.745618 
L 393.527015 380.517694 
L 394.765272 383.122564 
L 396.00353 385.4426 
L 397.241787 386.782156 
L 398.480044 385.386922 
L 399.718302 381.325036 
L 400.956559 376.837204 
L 402.194816 374.346838 
L 403.433073 375.306508 
L 404.671331 379.376415 
L 405.909588 384.210971 
L 407.147845 387.552161 
L 408.386102 388.210318 
L 409.62436 385.110512 
L 410.862617 378.439945 
L 413.339132 362.774994 
L 414.577389 356.325353 
L 415.815646 351.97849 
L 417.053903 350.828065 
L 418.292161 352.586971 
L 419.530418 355.008314 
L 420.768675 354.600078 
L 422.006932 348.134233 
L 423.24519 334.757377 
L 424.483447 317.638106 
L 425.721704 302.73281 
L 426.959961 294.86706 
L 428.198219 294.426846 
L 429.436476 297.47862 
L 430.674733 299.701739 
L 431.912991 300.152109 
L 433.151248 301.308201 
L 434.389505 305.869524 
L 435.627762 312.960131 
L 436.86602 318.382048 
L 438.104277 319.046281 
L 439.342534 315.272915 
L 440.580791 308.835804 
L 443.057306 292.484243 
L 446.772078 268.369027 
L 449.248592 246.869772 
L 450.48685 242.036511 
L 451.725107 248.268934 
L 452.963364 264.423191 
L 455.439879 303.442845 
L 456.678136 320.301834 
L 457.916393 335.181751 
L 459.15465 346.649661 
L 460.392908 352.732394 
L 461.631165 353.210743 
L 462.869422 349.596136 
L 465.345937 338.242848 
L 466.584194 334.147685 
L 467.822451 332.228738 
L 469.060709 331.680685 
L 470.298966 331.610964 
L 471.537223 332.116947 
L 472.77548 333.122068 
L 474.013738 333.567303 
L 475.251995 332.628505 
L 476.490252 330.38093 
L 477.728509 327.568604 
L 478.966767 326.046894 
L 480.205024 328.12151 
L 481.443281 334.413366 
L 482.681538 343.022854 
L 483.919796 350.52136 
L 485.158053 354.171093 
L 486.39631 353.857464 
L 487.634568 351.309575 
L 490.111082 344.919082 
L 491.349339 344.38564 
L 492.587597 350.376982 
L 493.825854 364.744393 
L 496.302368 404.24696 
L 497.540626 418.5768 
L 498.778883 423.831144 
L 500.01714 418.197803 
L 501.255397 402.844513 
L 502.493655 383.092719 
L 503.731912 366.490655 
L 504.970169 357.723136 
L 506.208427 355.664851 
L 507.446684 355.409061 
L 508.684941 352.150163 
L 509.923198 344.068691 
L 512.399713 322.965828 
L 513.63797 316.351846 
L 514.876227 314.692262 
L 516.114485 317.414666 
L 517.352742 321.067689 
L 518.590999 320.779265 
L 519.829257 314.094783 
L 521.067514 303.763076 
L 522.305771 295.787175 
L 523.544028 294.203634 
L 524.782286 298.34722 
L 526.020543 305.102061 
L 528.497057 319.926939 
L 529.735315 326.197246 
L 530.973572 329.811143 
L 532.211829 331.504794 
L 533.450086 333.63948 
L 534.688344 337.210778 
L 537.164858 345.897785 
L 538.403116 349.54168 
L 539.641373 352.231798 
L 540.87963 353.974117 
L 543.356145 355.822933 
L 544.594402 357.455157 
L 545.832659 360.159344 
L 547.070916 364.62776 
L 549.547431 377.081495 
L 550.785688 381.478617 
L 552.023945 383.060742 
L 553.262203 380.599002 
L 554.50046 373.605016 
L 555.738717 363.182292 
L 556.976975 351.408199 
L 558.215232 340.917717 
L 559.453489 333.641173 
L 561.930004 324.710843 
L 563.168261 317.463659 
L 564.406518 308.115639 
L 565.644775 300.358852 
L 568.12129 290.242369 
L 570.597804 275.997045 
L 571.836062 270.422062 
L 573.074319 267.17753 
L 574.312576 266.623357 
L 575.550834 267.953238 
L 576.789091 268.549077 
L 578.027348 267.113584 
L 579.265605 265.858283 
L 580.503863 268.047006 
L 582.980377 279.628598 
L 584.218634 281.998052 
L 585.456892 282.194273 
L 586.695149 285.758447 
L 587.933406 296.721362 
L 589.171663 314.026207 
L 591.648178 353.514953 
L 592.886435 368.427609 
L 594.124693 375.216069 
L 595.36295 371.921083 
L 596.601207 360.089281 
L 597.839464 344.821384 
L 599.077722 331.376913 
L 600.315979 321.532456 
L 601.554236 314.104494 
L 602.792493 307.881696 
L 604.030751 302.497919 
L 608.98378 282.825723 
L 610.222037 276.380839 
L 612.698552 259.286832 
L 613.936809 252.579447 
L 615.175066 249.322271 
L 616.413323 249.492242 
L 617.651581 251.189721 
L 618.889838 251.207981 
L 620.128095 247.543437 
L 621.366352 240.472078 
L 622.60461 230.607702 
L 623.842867 217.173013 
L 627.557639 166.000672 
L 628.795896 157.940869 
L 630.034153 157.514792 
L 631.272411 163.900592 
L 632.510668 175.903871 
L 634.987182 204.647135 
L 636.22544 215.013707 
L 637.463697 221.067697 
L 638.701954 224.544544 
L 639.940211 228.529081 
L 641.178469 234.884712 
L 642.416726 243.581436 
L 643.654983 253.092471 
L 644.893241 260.588706 
L 646.131498 263.625618 
L 647.369755 261.65384 
L 648.608012 256.090518 
L 652.322784 235.433115 
L 653.561041 229.911959 
L 654.799299 228.238742 
L 656.037556 230.326038 
L 657.275813 233.728208 
L 660.990585 242.533021 
L 662.228842 245.369756 
L 663.4671 247.153334 
L 664.705357 247.321611 
L 665.943614 245.358512 
L 667.181871 240.800891 
L 668.420129 233.828992 
L 669.658386 225.587699 
L 670.896643 218.628501 
L 672.1349 215.58578 
L 673.373158 216.523625 
L 674.611415 220.288985 
L 675.849672 226.909575 
L 678.326187 245.186529 
L 679.564444 252.853351 
L 680.802701 257.835456 
L 682.040959 259.260542 
L 683.279216 256.846787 
L 684.517473 252.250488 
L 685.75573 248.865876 
L 686.993988 249.17156 
L 688.232245 252.333357 
L 689.470502 254.75546 
L 690.708759 253.376137 
L 691.947017 248.214463 
L 693.185274 241.602986 
L 694.423531 235.942073 
L 695.661789 232.327507 
L 696.900046 230.94692 
L 698.138303 231.809672 
L 699.37656 233.838226 
L 700.614818 234.963561 
L 701.853075 234.340627 
L 703.091332 232.625806 
L 704.329589 230.580513 
L 705.567847 228.868218 
L 706.806104 227.354294 
L 708.044361 224.21052 
L 709.282618 218.248322 
L 710.520876 211.49527 
L 711.759133 206.950292 
L 712.99739 205.437357 
L 715.473905 206.536817 
L 716.712162 205.068777 
L 717.950419 202.269755 
L 719.188677 200.346373 
L 720.426934 200.127137 
L 721.665191 201.720714 
L 722.903448 204.450335 
L 724.141706 205.327261 
L 725.379963 200.716375 
L 726.61822 189.328448 
L 729.094735 158.820589 
L 730.332992 152.328846 
L 731.571249 156.321816 
L 734.047764 176.73053 
L 735.286021 185.14272 
L 736.524278 191.616004 
L 737.762536 194.844597 
L 739.000793 192.341724 
L 740.23905 183.660246 
L 741.477307 172.979752 
L 742.715565 166.957825 
L 743.953822 168.954282 
L 746.430336 183.156044 
L 747.668594 184.452864 
L 748.906851 178.655099 
L 750.145108 168.785877 
L 751.383366 160.952967 
L 752.621623 159.810859 
L 753.85988 165.32834 
L 755.098137 174.634641 
L 757.574652 194.563167 
L 758.812909 201.212614 
L 760.051166 203.1649 
L 761.289424 198.864779 
L 762.527681 188.812552 
L 763.765938 177.128363 
L 765.004195 168.995977 
L 766.242453 166.590458 
L 767.48071 168.621936 
L 768.718967 173.267012 
L 771.195482 186.827182 
L 772.433739 191.941207 
L 773.671996 194.187923 
L 774.910254 195.081641 
L 776.148511 195.416687 
L 777.386768 193.416314 
L 778.625025 188.556782 
L 779.863283 184.646454 
L 781.10154 185.111637 
L 782.339797 187.281601 
L 783.578054 184.843893 
L 784.816312 174.00227 
L 787.292826 137.619743 
L 788.531084 125.90247 
L 789.769341 125.715201 
L 791.007598 135.130746 
L 792.245855 146.134051 
L 793.484113 150.454613 
L 794.72237 145.484055 
L 795.960627 134.70204 
L 797.198884 125.018597 
L 798.437142 123.266172 
L 799.675399 132.28689 
L 800.913656 150.083701 
L 802.151914 171.69816 
L 803.390171 191.198643 
L 804.628428 204.24072 
L 805.866685 209.865317 
L 807.104943 209.555607 
L 808.3432 205.952858 
L 809.581457 203.080269 
L 810.819714 204.866117 
L 813.296229 218.092497 
L 814.534486 218.950719 
L 815.772743 211.904494 
L 818.249258 187.861727 
L 819.487515 179.854262 
L 820.725773 178.152434 
L 821.96403 182.623476 
L 823.202287 191.38776 
L 825.678802 213.064701 
L 826.917059 219.599679 
L 828.155316 218.537947 
L 829.393573 209.949092 
L 830.631831 198.622779 
L 831.870088 191.990136 
L 833.108345 194.981244 
L 834.346602 205.82921 
L 836.823117 232.283576 
L 838.061374 243.504608 
L 839.299632 250.928649 
L 840.537889 252.938484 
L 841.776146 250.011745 
L 844.252661 238.608548 
L 845.490918 234.990509 
L 846.729175 235.563939 
L 847.967432 239.520538 
L 849.20569 242.331671 
L 850.443947 240.277869 
L 854.158719 222.743686 
L 855.396976 219.052381 
L 856.635233 217.941666 
L 857.873491 219.595444 
L 859.111748 223.207626 
L 860.350005 228.277389 
L 861.588262 235.032061 
L 864.064777 251.271835 
L 865.303034 257.095703 
L 866.541291 260.908967 
L 867.779549 263.569497 
L 869.017806 263.607447 
L 870.256063 258.599125 
L 871.49432 248.663897 
L 872.732578 235.733971 
L 876.44735 192.468046 
L 877.685607 182.032376 
L 878.923864 173.963748 
L 880.162121 168.070353 
L 881.400379 166.294991 
L 882.638636 170.10382 
L 886.353408 191.055353 
L 888.829922 207.941816 
L 890.06818 212.02812 
L 891.306437 210.316975 
L 892.544694 203.000156 
L 893.782951 193.09636 
L 895.021209 186.391885 
L 896.259466 186.375044 
L 897.497723 191.200016 
L 898.73598 198.15754 
L 899.974238 207.251124 
L 901.212495 217.968231 
L 902.450752 226.432424 
L 903.689009 227.980436 
L 904.927267 220.294542 
L 906.165524 203.832091 
L 908.642039 159.590753 
L 909.880296 143.425879 
L 911.118553 135.676724 
L 912.35681 134.762758 
L 913.595068 138.717436 
L 914.833325 146.675932 
L 916.071582 156.091737 
L 917.309839 162.352227 
L 918.548097 163.41707 
L 919.786354 161.887356 
L 921.024611 160.652396 
L 922.262868 159.840378 
L 923.501126 158.723442 
L 925.97764 155.258894 
L 927.215898 154.97292 
L 929.692412 158.650951 
L 930.930669 157.329865 
L 932.168927 151.40978 
L 933.407184 143.576733 
L 934.645441 137.666254 
L 935.883698 132.786547 
L 937.121956 124.233648 
L 938.360213 111.251447 
L 939.59847 100.014745 
L 940.836727 96.818361 
L 942.074985 101.893712 
L 943.313242 111.466556 
L 945.789757 134.503594 
L 947.028014 146.065002 
L 948.266271 153.763884 
L 949.504528 156.155277 
L 950.742786 156.523661 
L 951.981043 159.263748 
L 953.2193 166.32499 
L 954.457557 176.557142 
L 955.695815 185.820402 
L 956.934072 189.091941 
L 958.172329 184.757968 
L 960.648844 167.741411 
L 961.887101 164.027808 
L 963.125358 165.65408 
L 964.363616 169.919168 
L 965.601873 173.119684 
L 966.84013 173.4568 
L 968.078387 171.539061 
L 969.316645 169.290404 
L 970.554902 168.583282 
L 971.793159 170.267839 
L 974.269674 176.935933 
L 975.507931 176.658909 
L 976.746188 169.702434 
L 979.222703 143.956076 
L 980.46096 137.626239 
L 981.699217 138.557465 
L 982.937475 144.11595 
L 985.413989 159.657706 
L 986.652246 166.11302 
L 987.890504 169.282266 
L 989.128761 167.105563 
L 990.367018 161.539939 
L 991.605275 159.676554 
L 992.843533 168.047659 
L 994.08179 186.552361 
L 995.320047 208.107328 
L 996.558305 223.194242 
L 997.796562 225.350638 
L 999.034819 215.416734 
L 1000.273076 201.53802 
L 1001.511334 193.517218 
L 1002.749591 196.090856 
L 1003.987848 207.103812 
L 1005.226105 221.184053 
L 1006.464363 233.394321 
L 1007.70262 239.573858 
L 1008.940877 235.972193 
L 1010.179134 220.708211 
L 1013.893906 149.548938 
L 1015.132164 132.951535 
L 1016.370421 121.056237 
L 1017.608678 117.080977 
L 1018.846935 124.494013 
L 1021.32345 158.403894 
L 1022.561707 169.740908 
L 1023.799964 171.614388 
L 1025.038222 165.491196 
L 1027.514736 146.418734 
L 1028.752993 139.469562 
L 1029.991251 134.995105 
L 1031.229508 131.946313 
L 1032.467765 129.420441 
L 1033.706023 128.303178 
L 1034.94428 130.040636 
L 1036.182537 134.819289 
L 1038.659052 150.017664 
L 1039.897309 154.565627 
L 1041.135566 153.321839 
L 1042.373823 149.143852 
L 1043.612081 147.179743 
L 1044.850338 149.459741 
L 1047.326852 159.389158 
L 1048.56511 161.136949 
L 1049.803367 155.351024 
L 1051.041624 139.784688 
L 1053.518139 93.423998 
L 1054.756396 78.999993 
L 1055.994653 79.165371 
L 1057.232911 90.151316 
L 1059.709425 119.589147 
L 1063.424197 173.105344 
L 1064.662454 184.839457 
L 1065.900711 195.385394 
L 1069.615483 230.395869 
L 1070.853741 239.317676 
L 1072.091998 243.217638 
L 1073.330255 238.683674 
L 1074.568512 225.217601 
L 1077.045027 187.363462 
L 1078.283284 172.704373 
L 1079.521541 163.380876 
L 1081.998056 149.589539 
L 1083.236313 142.543215 
L 1084.474571 139.208058 
L 1085.712828 143.149895 
L 1088.189342 165.883381 
L 1089.4276 169.989754 
L 1090.665857 162.419152 
L 1093.142371 129.899388 
L 1094.380629 118.811394 
L 1095.618886 116.825629 
L 1096.857143 126.253764 
L 1098.0954 148.48784 
L 1100.571915 212.35131 
L 1101.810172 239.515274 
L 1103.04843 258.594355 
L 1104.286687 267.91512 
L 1105.524944 267.581125 
L 1106.763201 260.659403 
L 1108.001459 249.999417 
L 1109.239716 235.299897 
L 1110.477973 215.528884 
L 1111.71623 192.806792 
L 1112.954488 172.52979 
L 1114.192745 160.148676 
L 1115.431002 157.776583 
L 1116.669259 163.890124 
L 1119.145774 186.557327 
L 1120.384031 194.312299 
L 1121.622289 198.311574 
L 1125.33706 206.065081 
L 1126.575318 210.246629 
L 1127.813575 215.473004 
L 1129.051832 219.54536 
L 1130.290089 220.301552 
L 1131.528347 216.045798 
L 1132.766604 205.236357 
L 1135.243118 172.187318 
L 1136.481376 162.745272 
L 1137.719633 162.084211 
L 1138.95789 165.829911 
L 1140.196148 168.912965 
L 1141.434405 169.643446 
L 1142.672662 170.137622 
L 1143.910919 172.987092 
L 1147.625691 187.296416 
L 1148.863948 189.088378 
L 1150.102206 187.830794 
L 1151.340463 187.376215 
L 1152.57872 194.356553 
L 1153.816977 212.441961 
L 1156.293492 264.87512 
L 1157.531749 282.376271 
L 1158.770007 285.599095 
L 1160.008264 274.480161 
L 1161.246521 253.250224 
L 1162.484778 228.296203 
L 1163.723036 207.133554 
L 1164.961293 195.578957 
L 1167.437807 189.383678 
L 1168.676065 180.967649 
L 1169.914322 171.646625 
L 1171.152579 171.13164 
L 1172.390837 183.218814 
L 1174.867351 219.996827 
L 1176.105608 234.354516 
L 1177.343866 245.635474 
L 1178.582123 253.022463 
L 1179.82038 255.277155 
L 1181.058637 252.868586 
L 1182.296895 248.119544 
L 1183.535152 244.422199 
L 1184.773409 244.417233 
L 1186.011666 248.198575 
L 1187.249924 253.704217 
L 1188.488181 257.462122 
L 1189.726438 255.197166 
L 1190.964696 244.972909 
L 1192.202953 230.66096 
L 1193.44121 219.975222 
L 1194.679467 217.851389 
L 1195.917725 223.48797 
L 1197.155982 233.516267 
L 1198.394239 244.791172 
L 1199.632496 254.85416 
L 1200.870754 263.025399 
L 1203.347268 277.077961 
L 1204.585525 281.935615 
L 1205.823783 283.951418 
L 1207.06204 282.801832 
L 1208.300297 278.522951 
L 1209.538555 272.072525 
L 1212.015069 258.57133 
L 1213.253326 253.744827 
L 1214.491584 251.456841 
L 1215.729841 252.312516 
L 1216.968098 255.462947 
L 1218.206355 257.775533 
L 1219.444613 254.934014 
L 1220.68287 244.248997 
L 1221.921127 227.003489 
L 1223.159384 208.11139 
L 1224.397642 193.306172 
L 1225.635899 184.898817 
L 1228.112414 174.23409 
L 1229.350671 170.377948 
L 1230.588928 171.800988 
L 1231.827185 179.078162 
L 1233.065443 191.617503 
L 1235.541957 222.709941 
L 1236.780214 232.148232 
L 1238.018472 236.051582 
L 1239.256729 237.531456 
L 1240.494986 239.711903 
L 1241.733243 243.523044 
L 1242.971501 246.816079 
L 1244.209758 246.245431 
L 1245.448015 241.244096 
L 1246.686273 235.30359 
L 1247.92453 232.869244 
L 1249.162787 235.725262 
L 1251.639302 249.388187 
L 1252.877559 252.364314 
L 1254.115816 247.140729 
L 1255.354073 234.142879 
L 1256.592331 219.175393 
L 1257.830588 207.083042 
L 1259.068845 197.439088 
L 1260.307103 188.771739 
L 1261.54536 184.208697 
L 1262.783617 190.138668 
L 1264.021874 209.438324 
L 1266.498389 266.553666 
L 1267.736646 287.366928 
L 1268.974903 295.167585 
L 1270.213161 288.717511 
L 1271.451418 270.550931 
L 1273.927932 220.033556 
L 1275.16619 202.008763 
L 1276.404447 199.069898 
L 1277.642704 211.592599 
L 1280.119219 252.32808 
L 1281.357476 264.818416 
L 1282.595733 268.731387 
L 1283.833991 268.498924 
L 1285.072248 269.10647 
L 1286.310505 270.779784 
L 1287.548762 270.143076 
L 1288.78702 265.940188 
L 1290.025277 260.48383 
L 1291.263534 256.810603 
L 1292.501791 256.42818 
L 1293.740049 257.46807 
L 1294.978306 256.021195 
L 1296.216563 250.445941 
L 1297.454821 243.512625 
L 1298.693078 241.357461 
L 1299.931335 248.402439 
L 1302.40785 278.153586 
L 1303.646107 288.196359 
L 1304.884364 288.782886 
L 1306.122621 280.750399 
L 1308.599136 255.871458 
L 1309.837393 245.885214 
L 1311.07565 240.130971 
L 1312.313908 237.766144 
L 1313.552165 236.49364 
L 1314.790422 234.610682 
L 1316.02868 231.319763 
L 1317.266937 225.230866 
L 1318.505194 214.058378 
L 1320.981709 183.520135 
L 1322.219966 175.076134 
L 1323.458223 173.902789 
L 1324.69648 176.12618 
L 1325.934738 176.206166 
L 1327.172995 171.511429 
L 1328.411252 164.536084 
L 1329.649509 160.716842 
L 1330.887767 164.9598 
L 1332.126024 178.37227 
L 1333.364281 196.794606 
L 1334.602539 213.555143 
L 1335.840796 223.233144 
L 1337.079053 224.086386 
L 1338.31731 220.162449 
L 1339.555568 219.417432 
L 1340.793825 226.813906 
L 1343.270339 252.562771 
L 1344.508597 259.355472 
L 1345.746854 257.547961 
L 1346.985111 245.426507 
L 1348.223368 224.539597 
L 1349.461626 201.522152 
L 1350.699883 185.92095 
L 1351.93814 184.795916 
L 1353.176398 197.589006 
L 1356.891169 255.753002 
L 1358.129427 268.234356 
L 1359.367684 274.605375 
L 1360.605941 275.938713 
L 1361.844198 273.608639 
L 1363.082456 269.100068 
L 1364.320713 266.23532 
L 1365.55897 268.18056 
L 1366.797228 272.380633 
L 1368.035485 272.246387 
L 1369.273742 262.81929 
L 1370.511999 246.316393 
L 1371.750257 232.233117 
L 1372.988514 228.038383 
L 1374.226771 232.677972 
L 1376.703286 249.737487 
L 1377.941543 256.192477 
L 1379.1798 259.23907 
L 1380.418057 258.873499 
L 1381.656315 256.256214 
L 1384.132829 249.730477 
L 1385.371087 244.993967 
L 1386.609344 237.573554 
L 1389.085858 218.244948 
L 1390.324116 207.439116 
L 1391.562373 193.011986 
L 1394.038887 153.062692 
L 1395.277145 137.516327 
L 1396.515402 130.419153 
L 1397.753659 131.38055 
L 1398.991916 136.613928 
L 1400.230174 139.886015 
L 1401.468431 137.081532 
L 1403.944946 122.927235 
L 1405.183203 119.269047 
L 1406.42146 120.282403 
L 1407.659717 125.145472 
L 1408.897975 130.600662 
L 1411.374489 138.020248 
L 1412.612746 142.918073 
L 1417.565775 165.521544 
L 1418.804033 170.133929 
L 1420.04229 175.74431 
L 1422.518805 192.255761 
L 1424.995319 204.214095 
L 1426.233576 214.074813 
L 1427.471834 225.056122 
L 1428.710091 230.773859 
L 1429.948348 227.249951 
L 1431.186605 214.108923 
L 1432.424863 193.399314 
L 1434.901377 144.231526 
L 1436.139634 124.14932 
L 1437.377892 109.989994 
L 1438.616149 101.604782 
L 1439.854406 100.437469 
L 1441.092664 108.972802 
L 1442.330921 126.704404 
L 1444.807435 168.979062 
L 1446.045693 185.298303 
L 1448.522207 211.687925 
L 1449.760464 221.454819 
L 1450.998722 224.96922 
L 1452.236979 222.751643 
L 1453.475236 217.830971 
L 1455.951751 205.711202 
L 1457.190008 201.084917 
L 1458.428265 199.852892 
L 1459.666523 201.919924 
L 1460.90478 201.924551 
L 1462.143037 192.434402 
L 1463.381294 172.389434 
L 1464.619552 148.397926 
L 1465.857809 128.28522 
L 1467.096066 117.79674 
L 1468.334323 120.87651 
L 1469.572581 137.73554 
L 1470.810838 164.017986 
L 1474.52561 251.902969 
L 1475.763867 272.239193 
L 1477.002124 281.921381 
L 1478.240382 281.430148 
L 1479.478639 273.141307 
L 1480.716896 258.364972 
L 1481.955153 240.40642 
L 1483.193411 226.691269 
L 1484.431668 222.652313 
L 1485.669925 226.63017 
L 1486.908182 234.326153 
L 1488.14644 243.553776 
L 1489.384697 253.767223 
L 1490.622954 265.797669 
L 1491.861212 281.066034 
L 1495.575983 335.407523 
L 1496.814241 347.853736 
L 1498.052498 354.236823 
L 1499.290755 353.853679 
L 1500.529012 347.432082 
L 1501.76727 337.13546 
L 1503.005527 324.221516 
L 1504.243784 307.158154 
L 1505.482041 283.428984 
L 1507.958556 226.979886 
L 1509.196813 210.580043 
L 1510.435071 206.082086 
L 1511.673328 205.529896 
L 1512.911585 199.005792 
L 1514.149842 181.962002 
L 1515.3881 158.352431 
L 1516.626357 137.192112 
L 1517.864614 126.169268 
L 1519.102871 128.234232 
L 1520.341129 140.941913 
L 1524.0559 196.288408 
L 1525.294158 204.406055 
L 1526.532415 202.168367 
L 1527.770672 194.900865 
L 1529.00893 189.463762 
L 1530.247187 187.040674 
L 1531.485444 185.050739 
L 1533.961959 180.255234 
L 1535.200216 176.975109 
L 1536.438473 170.400706 
L 1537.67673 159.02894 
L 1538.914988 144.944933 
L 1540.153245 134.69926 
L 1541.391502 135.722043 
L 1542.62976 150.318557 
L 1545.106274 196.584772 
L 1546.344531 207.512178 
L 1547.582789 200.203011 
L 1548.821046 177.378213 
L 1551.29756 120.08062 
L 1552.535818 99.409191 
L 1553.774075 87.780597 
L 1555.012332 85.566372 
L 1556.250589 92.851115 
L 1557.488847 108.25967 
L 1561.203619 168.920489 
L 1562.441876 181.491042 
L 1563.680133 182.575669 
L 1566.156648 164.741273 
L 1567.394905 166.489026 
L 1568.633162 181.429917 
L 1569.871419 200.632626 
L 1571.109677 210.40353 
L 1572.347934 201.763869 
L 1574.824448 151.875965 
L 1576.062706 138.205466 
L 1577.300963 136.825689 
L 1578.53922 138.66429 
L 1579.777478 135.666119 
L 1581.015735 125.71263 
L 1582.253992 113.617266 
L 1583.492249 107.981612 
L 1584.730507 115.235317 
L 1585.968764 136.140516 
L 1588.445278 192.598781 
L 1589.683536 211.648831 
L 1590.921793 220.789754 
L 1592.16005 223.119117 
L 1593.398307 222.932289 
L 1594.636565 223.083769 
L 1595.874822 224.117465 
L 1597.113079 224.409005 
L 1598.351337 220.560632 
L 1599.589594 208.951317 
L 1600.827851 188.524901 
L 1603.304366 134.65626 
L 1604.542623 116.764697 
L 1605.78088 117.387617 
L 1607.019137 136.477138 
L 1608.257395 162.902263 
L 1609.495652 185.34955 
L 1610.733909 201.650934 
L 1611.972166 214.961774 
L 1613.210424 225.400002 
L 1614.448681 229.207061 
L 1615.686938 223.74793 
L 1616.925196 210.366679 
L 1618.163453 193.614424 
L 1619.40171 178.73102 
L 1620.639967 168.63319 
L 1621.878225 163.414191 
L 1623.116482 162.5106 
L 1624.354739 164.485061 
L 1625.592996 164.826577 
L 1626.831254 158.436957 
L 1628.069511 145.245136 
L 1629.307768 130.779806 
L 1630.546026 121.119914 
L 1631.784283 119.086925 
L 1633.02254 124.157377 
L 1634.260797 132.918909 
L 1635.499055 139.632339 
L 1636.737312 138.158829 
L 1637.975569 125.386511 
L 1639.213826 103.357066 
L 1641.690341 47.979282 
L 1641.690341 47.979282 
" style="fill:none;stroke:#008000;stroke-linecap:square;stroke-width:1.5;"/>
   </g>
   <g id="patch_3">
    <path d="M 43.78125 586.86358 
L 43.78125 22.318125 
" style="fill:none;stroke:#000000;stroke-linecap:square;stroke-linejoin:miter;stroke-width:0.8;"/>
   </g>
   <g id="patch_4">
    <path d="M 1717.78125 586.86358 
L 1717.78125 22.318125 
" style="fill:none;stroke:#000000;stroke-linecap:square;stroke-linejoin:miter;stroke-width:0.8;"/>
   </g>
   <g id="patch_5">
    <path d="M 43.78125 586.86358 
L 1717.78125 586.86358 
" style="fill:none;stroke:#000000;stroke-linecap:square;stroke-linejoin:miter;stroke-width:0.8;"/>
   </g>
   <g id="patch_6">
    <path d="M 43.78125 22.318125 
L 1717.78125 22.318125 
" style="fill:none;stroke:#000000;stroke-linecap:square;stroke-linejoin:miter;stroke-width:0.8;"/>
   </g>
   <g id="text_16">
    <!-- before binarisation -->
    <g transform="translate(824.1825 16.318125)scale(0.12 -0.12)">
     <defs>
      <path d="M 3116 1747 
Q 3116 2381 2855 2742 
Q 2594 3103 2138 3103 
Q 1681 3103 1420 2742 
Q 1159 2381 1159 1747 
Q 1159 1113 1420 752 
Q 1681 391 2138 391 
Q 2594 391 2855 752 
Q 3116 1113 3116 1747 
z
M 1159 2969 
Q 1341 3281 1617 3432 
Q 1894 3584 2278 3584 
Q 2916 3584 3314 3078 
Q 3713 2572 3713 1747 
Q 3713 922 3314 415 
Q 2916 -91 2278 -91 
Q 1894 -91 1617 61 
Q 1341 213 1159 525 
L 1159 0 
L 581 0 
L 581 4863 
L 1159 4863 
L 1159 2969 
z
" id="DejaVuSans-62" transform="scale(0.015625)"/>
      <path d="M 1959 3097 
Q 1497 3097 1228 2736 
Q 959 2375 959 1747 
Q 959 1119 1226 758 
Q 1494 397 1959 397 
Q 2419 397 2687 759 
Q 2956 1122 2956 1747 
Q 2956 2369 2687 2733 
Q 2419 3097 1959 3097 
z
M 1959 3584 
Q 2709 3584 3137 3096 
Q 3566 2609 3566 1747 
Q 3566 888 3137 398 
Q 2709 -91 1959 -91 
Q 1206 -91 779 398 
Q 353 888 353 1747 
Q 353 2609 779 3096 
Q 1206 3584 1959 3584 
z
" id="DejaVuSans-6f" transform="scale(0.015625)"/>
      <path id="DejaVuSans-20" transform="scale(0.015625)"/>
      <path d="M 603 3500 
L 1178 3500 
L 1178 0 
L 603 0 
L 603 3500 
z
M 603 4863 
L 1178 4863 
L 1178 4134 
L 603 4134 
L 603 4863 
z
" id="DejaVuSans-69" transform="scale(0.015625)"/>
      <path d="M 3513 2113 
L 3513 0 
L 2938 0 
L 2938 2094 
Q 2938 2591 2744 2837 
Q 2550 3084 2163 3084 
Q 1697 3084 1428 2787 
Q 1159 2491 1159 1978 
L 1159 0 
L 581 0 
L 581 3500 
L 1159 3500 
L 1159 2956 
Q 1366 3272 1645 3428 
Q 1925 3584 2291 3584 
Q 2894 3584 3203 3211 
Q 3513 2838 3513 2113 
z
" id="DejaVuSans-6e" transform="scale(0.015625)"/>
      <path d="M 2834 3397 
L 2834 2853 
Q 2591 2978 2328 3040 
Q 2066 3103 1784 3103 
Q 1356 3103 1142 2972 
Q 928 2841 928 2578 
Q 928 2378 1081 2264 
Q 1234 2150 1697 2047 
L 1894 2003 
Q 2506 1872 2764 1633 
Q 3022 1394 3022 966 
Q 3022 478 2636 193 
Q 2250 -91 1575 -91 
Q 1294 -91 989 -36 
Q 684 19 347 128 
L 347 722 
Q 666 556 975 473 
Q 1284 391 1588 391 
Q 1994 391 2212 530 
Q 2431 669 2431 922 
Q 2431 1156 2273 1281 
Q 2116 1406 1581 1522 
L 1381 1569 
Q 847 1681 609 1914 
Q 372 2147 372 2553 
Q 372 3047 722 3315 
Q 1072 3584 1716 3584 
Q 2034 3584 2315 3537 
Q 2597 3491 2834 3397 
z
" id="DejaVuSans-73" transform="scale(0.015625)"/>
      <path d="M 1172 4494 
L 1172 3500 
L 2356 3500 
L 2356 3053 
L 1172 3053 
L 1172 1153 
Q 1172 725 1289 603 
Q 1406 481 1766 481 
L 2356 481 
L 2356 0 
L 1766 0 
Q 1100 0 847 248 
Q 594 497 594 1153 
L 594 3053 
L 172 3053 
L 172 3500 
L 594 3500 
L 594 4494 
L 1172 4494 
z
" id="DejaVuSans-74" transform="scale(0.015625)"/>
     </defs>
     <use xlink:href="#DejaVuSans-62"/>
     <use x="63.476562" xlink:href="#DejaVuSans-65"/>
     <use x="125" xlink:href="#DejaVuSans-66"/>
     <use x="160.205078" xlink:href="#DejaVuSans-6f"/>
     <use x="221.386719" xlink:href="#DejaVuSans-72"/>
     <use x="260.25" xlink:href="#DejaVuSans-65"/>
     <use x="321.773438" xlink:href="#DejaVuSans-20"/>
     <use x="353.560547" xlink:href="#DejaVuSans-62"/>
     <use x="417.037109" xlink:href="#DejaVuSans-69"/>
     <use x="444.820312" xlink:href="#DejaVuSans-6e"/>
     <use x="508.199219" xlink:href="#DejaVuSans-61"/>
     <use x="569.478516" xlink:href="#DejaVuSans-72"/>
     <use x="610.591797" xlink:href="#DejaVuSans-69"/>
     <use x="638.375" xlink:href="#DejaVuSans-73"/>
     <use x="690.474609" xlink:href="#DejaVuSans-61"/>
     <use x="751.753906" xlink:href="#DejaVuSans-74"/>
     <use x="790.962891" xlink:href="#DejaVuSans-69"/>
     <use x="818.746094" xlink:href="#DejaVuSans-6f"/>
     <use x="879.927734" xlink:href="#DejaVuSans-6e"/>
    </g>
   </g>
  </g>
  <g id="axes_2">
   <g id="patch_7">
    <path d="M 43.78125 1264.318125 
L 1717.78125 1264.318125 
L 1717.78125 699.77267 
L 43.78125 699.77267 
z
" style="fill:#ffffff;"/>
   </g>
   <g id="matplotlib.axis_3">
    <g id="xtick_8">
     <g id="line2d_15">
      <g>
       <use style="stroke:#000000;stroke-width:0.8;" x="119.872159" xlink:href="#mb591ce9af7" y="1264.318125"/>
      </g>
     </g>
     <g id="text_17">
      <!-- 0 -->
      <g transform="translate(116.690909 1278.916563)scale(0.1 -0.1)">
       <use xlink:href="#DejaVuSans-30"/>
      </g>
     </g>
    </g>
    <g id="xtick_9">
     <g id="line2d_16">
      <g>
       <use style="stroke:#000000;stroke-width:0.8;" x="367.523613" xlink:href="#mb591ce9af7" y="1264.318125"/>
      </g>
     </g>
     <g id="text_18">
      <!-- 200 -->
      <g transform="translate(357.979863 1278.916563)scale(0.1 -0.1)">
       <use xlink:href="#DejaVuSans-32"/>
       <use x="63.623047" xlink:href="#DejaVuSans-30"/>
       <use x="127.246094" xlink:href="#DejaVuSans-30"/>
      </g>
     </g>
    </g>
    <g id="xtick_10">
     <g id="line2d_17">
      <g>
       <use style="stroke:#000000;stroke-width:0.8;" x="615.175066" xlink:href="#mb591ce9af7" y="1264.318125"/>
      </g>
     </g>
     <g id="text_19">
      <!-- 400 -->
      <g transform="translate(605.631316 1278.916563)scale(0.1 -0.1)">
       <use xlink:href="#DejaVuSans-34"/>
       <use x="63.623047" xlink:href="#DejaVuSans-30"/>
       <use x="127.246094" xlink:href="#DejaVuSans-30"/>
      </g>
     </g>
    </g>
    <g id="xtick_11">
     <g id="line2d_18">
      <g>
       <use style="stroke:#000000;stroke-width:0.8;" x="862.82652" xlink:href="#mb591ce9af7" y="1264.318125"/>
      </g>
     </g>
     <g id="text_20">
      <!-- 600 -->
      <g transform="translate(853.28277 1278.916563)scale(0.1 -0.1)">
       <use xlink:href="#DejaVuSans-36"/>
       <use x="63.623047" xlink:href="#DejaVuSans-30"/>
       <use x="127.246094" xlink:href="#DejaVuSans-30"/>
      </g>
     </g>
    </g>
    <g id="xtick_12">
     <g id="line2d_19">
      <g>
       <use style="stroke:#000000;stroke-width:0.8;" x="1110.477973" xlink:href="#mb591ce9af7" y="1264.318125"/>
      </g>
     </g>
     <g id="text_21">
      <!-- 800 -->
      <g transform="translate(1100.934223 1278.916563)scale(0.1 -0.1)">
       <use xlink:href="#DejaVuSans-38"/>
       <use x="63.623047" xlink:href="#DejaVuSans-30"/>
       <use x="127.246094" xlink:href="#DejaVuSans-30"/>
      </g>
     </g>
    </g>
    <g id="xtick_13">
     <g id="line2d_20">
      <g>
       <use style="stroke:#000000;stroke-width:0.8;" x="1358.129427" xlink:href="#mb591ce9af7" y="1264.318125"/>
      </g>
     </g>
     <g id="text_22">
      <!-- 1000 -->
      <g transform="translate(1345.404427 1278.916563)scale(0.1 -0.1)">
       <use xlink:href="#DejaVuSans-31"/>
       <use x="63.623047" xlink:href="#DejaVuSans-30"/>
       <use x="127.246094" xlink:href="#DejaVuSans-30"/>
       <use x="190.869141" xlink:href="#DejaVuSans-30"/>
      </g>
     </g>
    </g>
    <g id="xtick_14">
     <g id="line2d_21">
      <g>
       <use style="stroke:#000000;stroke-width:0.8;" x="1605.78088" xlink:href="#mb591ce9af7" y="1264.318125"/>
      </g>
     </g>
     <g id="text_23">
      <!-- 1200 -->
      <g transform="translate(1593.05588 1278.916563)scale(0.1 -0.1)">
       <use xlink:href="#DejaVuSans-31"/>
       <use x="63.623047" xlink:href="#DejaVuSans-32"/>
       <use x="127.246094" xlink:href="#DejaVuSans-30"/>
       <use x="190.869141" xlink:href="#DejaVuSans-30"/>
      </g>
     </g>
    </g>
    <g id="text_24">
     <!-- frame -->
     <g transform="translate(865.954687 1292.594688)scale(0.1 -0.1)">
      <use xlink:href="#DejaVuSans-66"/>
      <use x="35.205078" xlink:href="#DejaVuSans-72"/>
      <use x="76.318359" xlink:href="#DejaVuSans-61"/>
      <use x="137.597656" xlink:href="#DejaVuSans-6d"/>
      <use x="235.009766" xlink:href="#DejaVuSans-65"/>
     </g>
    </g>
   </g>
   <g id="matplotlib.axis_4">
    <g id="ytick_7">
     <g id="line2d_22">
      <g>
       <use style="stroke:#000000;stroke-width:0.8;" x="43.78125" xlink:href="#m916794bb30" y="1238.656968"/>
      </g>
     </g>
     <g id="text_25">
      <!-- 0.0 -->
      <g transform="translate(20.878125 1242.456187)scale(0.1 -0.1)">
       <use xlink:href="#DejaVuSans-30"/>
       <use x="63.623047" xlink:href="#DejaVuSans-2e"/>
       <use x="95.410156" xlink:href="#DejaVuSans-30"/>
      </g>
     </g>
    </g>
    <g id="ytick_8">
     <g id="line2d_23">
      <g>
       <use style="stroke:#000000;stroke-width:0.8;" x="43.78125" xlink:href="#m916794bb30" y="1136.01234"/>
      </g>
     </g>
     <g id="text_26">
      <!-- 0.2 -->
      <g transform="translate(20.878125 1139.811559)scale(0.1 -0.1)">
       <use xlink:href="#DejaVuSans-30"/>
       <use x="63.623047" xlink:href="#DejaVuSans-2e"/>
       <use x="95.410156" xlink:href="#DejaVuSans-32"/>
      </g>
     </g>
    </g>
    <g id="ytick_9">
     <g id="line2d_24">
      <g>
       <use style="stroke:#000000;stroke-width:0.8;" x="43.78125" xlink:href="#m916794bb30" y="1033.367712"/>
      </g>
     </g>
     <g id="text_27">
      <!-- 0.4 -->
      <g transform="translate(20.878125 1037.166931)scale(0.1 -0.1)">
       <use xlink:href="#DejaVuSans-30"/>
       <use x="63.623047" xlink:href="#DejaVuSans-2e"/>
       <use x="95.410156" xlink:href="#DejaVuSans-34"/>
      </g>
     </g>
    </g>
    <g id="ytick_10">
     <g id="line2d_25">
      <g>
       <use style="stroke:#000000;stroke-width:0.8;" x="43.78125" xlink:href="#m916794bb30" y="930.723084"/>
      </g>
     </g>
     <g id="text_28">
      <!-- 0.6 -->
      <g transform="translate(20.878125 934.522302)scale(0.1 -0.1)">
       <use xlink:href="#DejaVuSans-30"/>
       <use x="63.623047" xlink:href="#DejaVuSans-2e"/>
       <use x="95.410156" xlink:href="#DejaVuSans-36"/>
      </g>
     </g>
    </g>
    <g id="ytick_11">
     <g id="line2d_26">
      <g>
       <use style="stroke:#000000;stroke-width:0.8;" x="43.78125" xlink:href="#m916794bb30" y="828.078456"/>
      </g>
     </g>
     <g id="text_29">
      <!-- 0.8 -->
      <g transform="translate(20.878125 831.877674)scale(0.1 -0.1)">
       <use xlink:href="#DejaVuSans-30"/>
       <use x="63.623047" xlink:href="#DejaVuSans-2e"/>
       <use x="95.410156" xlink:href="#DejaVuSans-38"/>
      </g>
     </g>
    </g>
    <g id="ytick_12">
     <g id="line2d_27">
      <g>
       <use style="stroke:#000000;stroke-width:0.8;" x="43.78125" xlink:href="#m916794bb30" y="725.433827"/>
      </g>
     </g>
     <g id="text_30">
      <!-- 1.0 -->
      <g transform="translate(20.878125 729.233046)scale(0.1 -0.1)">
       <use xlink:href="#DejaVuSans-31"/>
       <use x="63.623047" xlink:href="#DejaVuSans-2e"/>
       <use x="95.410156" xlink:href="#DejaVuSans-30"/>
      </g>
     </g>
    </g>
    <g id="text_31">
     <!-- GCaMP -->
     <g transform="translate(14.798437 999.803991)rotate(-90)scale(0.1 -0.1)">
      <use xlink:href="#DejaVuSans-47"/>
      <use x="77.490234" xlink:href="#DejaVuSans-43"/>
      <use x="147.314453" xlink:href="#DejaVuSans-61"/>
      <use x="208.59375" xlink:href="#DejaVuSans-4d"/>
      <use x="294.873047" xlink:href="#DejaVuSans-50"/>
     </g>
    </g>
   </g>
   <g id="line2d_28">
    <path clip-path="url(#p8cd8ed4bb7)" d="M 119.872159 1238.656968 
L 786.054569 1238.656968 
L 787.292826 725.433827 
L 792.245855 725.433827 
L 793.484113 1238.656968 
L 794.72237 725.433827 
L 799.675399 725.433827 
L 800.913656 1238.656968 
L 908.642039 1238.656968 
L 909.880296 725.433827 
L 914.833325 725.433827 
L 916.071582 1238.656968 
L 932.168927 1238.656968 
L 933.407184 725.433827 
L 947.028014 725.433827 
L 948.266271 1238.656968 
L 977.984446 1238.656968 
L 979.222703 725.433827 
L 982.937475 725.433827 
L 984.175732 1238.656968 
L 1013.893906 1238.656968 
L 1015.132164 725.433827 
L 1020.085193 725.433827 
L 1021.32345 1238.656968 
L 1026.276479 1238.656968 
L 1027.514736 725.433827 
L 1037.420794 725.433827 
L 1038.659052 1238.656968 
L 1041.135566 1238.656968 
L 1042.373823 725.433827 
L 1043.612081 725.433827 
L 1044.850338 1238.656968 
L 1049.803367 1238.656968 
L 1051.041624 725.433827 
L 1060.947682 725.433827 
L 1062.18594 1238.656968 
L 1081.998056 1238.656968 
L 1083.236313 725.433827 
L 1085.712828 725.433827 
L 1086.951085 1238.656968 
L 1090.665857 1238.656968 
L 1091.904114 725.433827 
L 1098.0954 725.433827 
L 1099.333658 1238.656968 
L 1394.038887 1238.656968 
L 1395.277145 725.433827 
L 1413.851004 725.433827 
L 1415.089261 1238.656968 
L 1433.66312 1238.656968 
L 1434.901377 725.433827 
L 1443.569178 725.433827 
L 1444.807435 1238.656968 
L 1463.381294 1238.656968 
L 1464.619552 725.433827 
L 1469.572581 725.433827 
L 1470.810838 1238.656968 
L 1515.3881 1238.656968 
L 1516.626357 725.433827 
L 1520.341129 725.433827 
L 1521.579386 1238.656968 
L 1537.67673 1238.656968 
L 1538.914988 725.433827 
L 1541.391502 725.433827 
L 1542.62976 1238.656968 
L 1548.821046 1238.656968 
L 1550.059303 725.433827 
L 1558.727104 725.433827 
L 1559.965361 1238.656968 
L 1574.824448 1238.656968 
L 1576.062706 725.433827 
L 1585.968764 725.433827 
L 1587.207021 1238.656968 
L 1602.066108 1238.656968 
L 1603.304366 725.433827 
L 1607.019137 725.433827 
L 1608.257395 1238.656968 
L 1626.831254 1238.656968 
L 1628.069511 725.433827 
L 1641.690341 725.433827 
L 1641.690341 725.433827 
" style="fill:none;stroke:#008000;stroke-linecap:square;stroke-width:1.5;"/>
   </g>
   <g id="patch_8">
    <path d="M 43.78125 1264.318125 
L 43.78125 699.77267 
" style="fill:none;stroke:#000000;stroke-linecap:square;stroke-linejoin:miter;stroke-width:0.8;"/>
   </g>
   <g id="patch_9">
    <path d="M 1717.78125 1264.318125 
L 1717.78125 699.77267 
" style="fill:none;stroke:#000000;stroke-linecap:square;stroke-linejoin:miter;stroke-width:0.8;"/>
   </g>
   <g id="patch_10">
    <path d="M 43.78125 1264.318125 
L 1717.78125 1264.318125 
" style="fill:none;stroke:#000000;stroke-linecap:square;stroke-linejoin:miter;stroke-width:0.8;"/>
   </g>
   <g id="patch_11">
    <path d="M 43.78125 699.77267 
L 1717.78125 699.77267 
" style="fill:none;stroke:#000000;stroke-linecap:square;stroke-linejoin:miter;stroke-width:0.8;"/>
   </g>
   <g id="text_32">
    <!-- before binarisation -->
    <g transform="translate(824.1825 693.77267)scale(0.12 -0.12)">
     <use xlink:href="#DejaVuSans-62"/>
     <use x="63.476562" xlink:href="#DejaVuSans-65"/>
     <use x="125" xlink:href="#DejaVuSans-66"/>
     <use x="160.205078" xlink:href="#DejaVuSans-6f"/>
     <use x="221.386719" xlink:href="#DejaVuSans-72"/>
     <use x="260.25" xlink:href="#DejaVuSans-65"/>
     <use x="321.773438" xlink:href="#DejaVuSans-20"/>
     <use x="353.560547" xlink:href="#DejaVuSans-62"/>
     <use x="417.037109" xlink:href="#DejaVuSans-69"/>
     <use x="444.820312" xlink:href="#DejaVuSans-6e"/>
     <use x="508.199219" xlink:href="#DejaVuSans-61"/>
     <use x="569.478516" xlink:href="#DejaVuSans-72"/>
     <use x="610.591797" xlink:href="#DejaVuSans-69"/>
     <use x="638.375" xlink:href="#DejaVuSans-73"/>
     <use x="690.474609" xlink:href="#DejaVuSans-61"/>
     <use x="751.753906" xlink:href="#DejaVuSans-74"/>
     <use x="790.962891" xlink:href="#DejaVuSans-69"/>
     <use x="818.746094" xlink:href="#DejaVuSans-6f"/>
     <use x="879.927734" xlink:href="#DejaVuSans-6e"/>
    </g>
   </g>
  </g>
 </g>
 <defs>
  <clipPath id="p43a0b96497">
   <rect height="564.545455" width="1674" x="43.78125" y="22.318125"/>
  </clipPath>
  <clipPath id="p8cd8ed4bb7">
   <rect height="564.545455" width="1674" x="43.78125" y="699.77267"/>
  </clipPath>
 </defs>
</svg>
