<?xml version="1.0" encoding="utf-8" standalone="no"?>
<!DOCTYPE svg PUBLIC "-//W3C//DTD SVG 1.1//EN"
  "http://www.w3.org/Graphics/SVG/1.1/DTD/svg11.dtd">
<svg height="1301.874375pt" version="1.1" viewBox="0 0 1724.98125 1301.874375" width="1724.98125pt" xmlns="http://www.w3.org/2000/svg" xmlns:xlink="http://www.w3.org/1999/xlink">
 <metadata>
  <rdf:RDF xmlns:cc="http://creativecommons.org/ns#" xmlns:dc="http://purl.org/dc/elements/1.1/" xmlns:rdf="http://www.w3.org/1999/02/22-rdf-syntax-ns#">
   <cc:Work>
    <dc:type rdf:resource="http://purl.org/dc/dcmitype/StillImage"/>
    <dc:date>2022-07-24T15:54:40.325543</dc:date>
    <dc:format>image/svg+xml</dc:format>
    <dc:creator>
     <cc:Agent>
      <dc:title>Matplotlib v3.4.2, https://matplotlib.org/</dc:title>
     </cc:Agent>
    </dc:creator>
   </cc:Work>
  </rdf:RDF>
 </metadata>
 <defs>
  <style type="text/css">*{stroke-linecap:butt;stroke-linejoin:round;}</style>
 </defs>
 <g id="figure_1">
  <g id="patch_1">
   <path d="M 0 1301.874375 
L 1724.98125 1301.874375 
L 1724.98125 0 
L 0 0 
z
" style="fill:#ffffff;"/>
  </g>
  <g id="axes_1">
   <g id="patch_2">
    <path d="M 43.78125 586.86358 
L 1717.78125 586.86358 
L 1717.78125 22.318125 
L 43.78125 22.318125 
z
" style="fill:#ffffff;"/>
   </g>
   <g id="matplotlib.axis_1">
    <g id="xtick_1">
     <g id="line2d_1">
      <defs>
       <path d="M 0 0 
L 0 3.5 
" id="m0ecdf47139" style="stroke:#000000;stroke-width:0.8;"/>
      </defs>
      <g>
       <use style="stroke:#000000;stroke-width:0.8;" x="119.872159" xlink:href="#m0ecdf47139" y="586.86358"/>
      </g>
     </g>
     <g id="text_1">
      <!-- 0 -->
      <g transform="translate(116.690909 601.462017)scale(0.1 -0.1)">
       <defs>
        <path d="M 2034 4250 
Q 1547 4250 1301 3770 
Q 1056 3291 1056 2328 
Q 1056 1369 1301 889 
Q 1547 409 2034 409 
Q 2525 409 2770 889 
Q 3016 1369 3016 2328 
Q 3016 3291 2770 3770 
Q 2525 4250 2034 4250 
z
M 2034 4750 
Q 2819 4750 3233 4129 
Q 3647 3509 3647 2328 
Q 3647 1150 3233 529 
Q 2819 -91 2034 -91 
Q 1250 -91 836 529 
Q 422 1150 422 2328 
Q 422 3509 836 4129 
Q 1250 4750 2034 4750 
z
" id="DejaVuSans-30" transform="scale(0.015625)"/>
       </defs>
       <use xlink:href="#DejaVuSans-30"/>
      </g>
     </g>
    </g>
    <g id="xtick_2">
     <g id="line2d_2">
      <g>
       <use style="stroke:#000000;stroke-width:0.8;" x="367.523613" xlink:href="#m0ecdf47139" y="586.86358"/>
      </g>
     </g>
     <g id="text_2">
      <!-- 200 -->
      <g transform="translate(357.979863 601.462017)scale(0.1 -0.1)">
       <defs>
        <path d="M 1228 531 
L 3431 531 
L 3431 0 
L 469 0 
L 469 531 
Q 828 903 1448 1529 
Q 2069 2156 2228 2338 
Q 2531 2678 2651 2914 
Q 2772 3150 2772 3378 
Q 2772 3750 2511 3984 
Q 2250 4219 1831 4219 
Q 1534 4219 1204 4116 
Q 875 4013 500 3803 
L 500 4441 
Q 881 4594 1212 4672 
Q 1544 4750 1819 4750 
Q 2544 4750 2975 4387 
Q 3406 4025 3406 3419 
Q 3406 3131 3298 2873 
Q 3191 2616 2906 2266 
Q 2828 2175 2409 1742 
Q 1991 1309 1228 531 
z
" id="DejaVuSans-32" transform="scale(0.015625)"/>
       </defs>
       <use xlink:href="#DejaVuSans-32"/>
       <use x="63.623047" xlink:href="#DejaVuSans-30"/>
       <use x="127.246094" xlink:href="#DejaVuSans-30"/>
      </g>
     </g>
    </g>
    <g id="xtick_3">
     <g id="line2d_3">
      <g>
       <use style="stroke:#000000;stroke-width:0.8;" x="615.175066" xlink:href="#m0ecdf47139" y="586.86358"/>
      </g>
     </g>
     <g id="text_3">
      <!-- 400 -->
      <g transform="translate(605.631316 601.462017)scale(0.1 -0.1)">
       <defs>
        <path d="M 2419 4116 
L 825 1625 
L 2419 1625 
L 2419 4116 
z
M 2253 4666 
L 3047 4666 
L 3047 1625 
L 3713 1625 
L 3713 1100 
L 3047 1100 
L 3047 0 
L 2419 0 
L 2419 1100 
L 313 1100 
L 313 1709 
L 2253 4666 
z
" id="DejaVuSans-34" transform="scale(0.015625)"/>
       </defs>
       <use xlink:href="#DejaVuSans-34"/>
       <use x="63.623047" xlink:href="#DejaVuSans-30"/>
       <use x="127.246094" xlink:href="#DejaVuSans-30"/>
      </g>
     </g>
    </g>
    <g id="xtick_4">
     <g id="line2d_4">
      <g>
       <use style="stroke:#000000;stroke-width:0.8;" x="862.82652" xlink:href="#m0ecdf47139" y="586.86358"/>
      </g>
     </g>
     <g id="text_4">
      <!-- 600 -->
      <g transform="translate(853.28277 601.462017)scale(0.1 -0.1)">
       <defs>
        <path d="M 2113 2584 
Q 1688 2584 1439 2293 
Q 1191 2003 1191 1497 
Q 1191 994 1439 701 
Q 1688 409 2113 409 
Q 2538 409 2786 701 
Q 3034 994 3034 1497 
Q 3034 2003 2786 2293 
Q 2538 2584 2113 2584 
z
M 3366 4563 
L 3366 3988 
Q 3128 4100 2886 4159 
Q 2644 4219 2406 4219 
Q 1781 4219 1451 3797 
Q 1122 3375 1075 2522 
Q 1259 2794 1537 2939 
Q 1816 3084 2150 3084 
Q 2853 3084 3261 2657 
Q 3669 2231 3669 1497 
Q 3669 778 3244 343 
Q 2819 -91 2113 -91 
Q 1303 -91 875 529 
Q 447 1150 447 2328 
Q 447 3434 972 4092 
Q 1497 4750 2381 4750 
Q 2619 4750 2861 4703 
Q 3103 4656 3366 4563 
z
" id="DejaVuSans-36" transform="scale(0.015625)"/>
       </defs>
       <use xlink:href="#DejaVuSans-36"/>
       <use x="63.623047" xlink:href="#DejaVuSans-30"/>
       <use x="127.246094" xlink:href="#DejaVuSans-30"/>
      </g>
     </g>
    </g>
    <g id="xtick_5">
     <g id="line2d_5">
      <g>
       <use style="stroke:#000000;stroke-width:0.8;" x="1110.477973" xlink:href="#m0ecdf47139" y="586.86358"/>
      </g>
     </g>
     <g id="text_5">
      <!-- 800 -->
      <g transform="translate(1100.934223 601.462017)scale(0.1 -0.1)">
       <defs>
        <path d="M 2034 2216 
Q 1584 2216 1326 1975 
Q 1069 1734 1069 1313 
Q 1069 891 1326 650 
Q 1584 409 2034 409 
Q 2484 409 2743 651 
Q 3003 894 3003 1313 
Q 3003 1734 2745 1975 
Q 2488 2216 2034 2216 
z
M 1403 2484 
Q 997 2584 770 2862 
Q 544 3141 544 3541 
Q 544 4100 942 4425 
Q 1341 4750 2034 4750 
Q 2731 4750 3128 4425 
Q 3525 4100 3525 3541 
Q 3525 3141 3298 2862 
Q 3072 2584 2669 2484 
Q 3125 2378 3379 2068 
Q 3634 1759 3634 1313 
Q 3634 634 3220 271 
Q 2806 -91 2034 -91 
Q 1263 -91 848 271 
Q 434 634 434 1313 
Q 434 1759 690 2068 
Q 947 2378 1403 2484 
z
M 1172 3481 
Q 1172 3119 1398 2916 
Q 1625 2713 2034 2713 
Q 2441 2713 2670 2916 
Q 2900 3119 2900 3481 
Q 2900 3844 2670 4047 
Q 2441 4250 2034 4250 
Q 1625 4250 1398 4047 
Q 1172 3844 1172 3481 
z
" id="DejaVuSans-38" transform="scale(0.015625)"/>
       </defs>
       <use xlink:href="#DejaVuSans-38"/>
       <use x="63.623047" xlink:href="#DejaVuSans-30"/>
       <use x="127.246094" xlink:href="#DejaVuSans-30"/>
      </g>
     </g>
    </g>
    <g id="xtick_6">
     <g id="line2d_6">
      <g>
       <use style="stroke:#000000;stroke-width:0.8;" x="1358.129427" xlink:href="#m0ecdf47139" y="586.86358"/>
      </g>
     </g>
     <g id="text_6">
      <!-- 1000 -->
      <g transform="translate(1345.404427 601.462017)scale(0.1 -0.1)">
       <defs>
        <path d="M 794 531 
L 1825 531 
L 1825 4091 
L 703 3866 
L 703 4441 
L 1819 4666 
L 2450 4666 
L 2450 531 
L 3481 531 
L 3481 0 
L 794 0 
L 794 531 
z
" id="DejaVuSans-31" transform="scale(0.015625)"/>
       </defs>
       <use xlink:href="#DejaVuSans-31"/>
       <use x="63.623047" xlink:href="#DejaVuSans-30"/>
       <use x="127.246094" xlink:href="#DejaVuSans-30"/>
       <use x="190.869141" xlink:href="#DejaVuSans-30"/>
      </g>
     </g>
    </g>
    <g id="xtick_7">
     <g id="line2d_7">
      <g>
       <use style="stroke:#000000;stroke-width:0.8;" x="1605.78088" xlink:href="#m0ecdf47139" y="586.86358"/>
      </g>
     </g>
     <g id="text_7">
      <!-- 1200 -->
      <g transform="translate(1593.05588 601.462017)scale(0.1 -0.1)">
       <use xlink:href="#DejaVuSans-31"/>
       <use x="63.623047" xlink:href="#DejaVuSans-32"/>
       <use x="127.246094" xlink:href="#DejaVuSans-30"/>
       <use x="190.869141" xlink:href="#DejaVuSans-30"/>
      </g>
     </g>
    </g>
    <g id="text_8">
     <!-- frame -->
     <g transform="translate(865.954687 615.140142)scale(0.1 -0.1)">
      <defs>
       <path d="M 2375 4863 
L 2375 4384 
L 1825 4384 
Q 1516 4384 1395 4259 
Q 1275 4134 1275 3809 
L 1275 3500 
L 2222 3500 
L 2222 3053 
L 1275 3053 
L 1275 0 
L 697 0 
L 697 3053 
L 147 3053 
L 147 3500 
L 697 3500 
L 697 3744 
Q 697 4328 969 4595 
Q 1241 4863 1831 4863 
L 2375 4863 
z
" id="DejaVuSans-66" transform="scale(0.015625)"/>
       <path d="M 2631 2963 
Q 2534 3019 2420 3045 
Q 2306 3072 2169 3072 
Q 1681 3072 1420 2755 
Q 1159 2438 1159 1844 
L 1159 0 
L 581 0 
L 581 3500 
L 1159 3500 
L 1159 2956 
Q 1341 3275 1631 3429 
Q 1922 3584 2338 3584 
Q 2397 3584 2469 3576 
Q 2541 3569 2628 3553 
L 2631 2963 
z
" id="DejaVuSans-72" transform="scale(0.015625)"/>
       <path d="M 2194 1759 
Q 1497 1759 1228 1600 
Q 959 1441 959 1056 
Q 959 750 1161 570 
Q 1363 391 1709 391 
Q 2188 391 2477 730 
Q 2766 1069 2766 1631 
L 2766 1759 
L 2194 1759 
z
M 3341 1997 
L 3341 0 
L 2766 0 
L 2766 531 
Q 2569 213 2275 61 
Q 1981 -91 1556 -91 
Q 1019 -91 701 211 
Q 384 513 384 1019 
Q 384 1609 779 1909 
Q 1175 2209 1959 2209 
L 2766 2209 
L 2766 2266 
Q 2766 2663 2505 2880 
Q 2244 3097 1772 3097 
Q 1472 3097 1187 3025 
Q 903 2953 641 2809 
L 641 3341 
Q 956 3463 1253 3523 
Q 1550 3584 1831 3584 
Q 2591 3584 2966 3190 
Q 3341 2797 3341 1997 
z
" id="DejaVuSans-61" transform="scale(0.015625)"/>
       <path d="M 3328 2828 
Q 3544 3216 3844 3400 
Q 4144 3584 4550 3584 
Q 5097 3584 5394 3201 
Q 5691 2819 5691 2113 
L 5691 0 
L 5113 0 
L 5113 2094 
Q 5113 2597 4934 2840 
Q 4756 3084 4391 3084 
Q 3944 3084 3684 2787 
Q 3425 2491 3425 1978 
L 3425 0 
L 2847 0 
L 2847 2094 
Q 2847 2600 2669 2842 
Q 2491 3084 2119 3084 
Q 1678 3084 1418 2786 
Q 1159 2488 1159 1978 
L 1159 0 
L 581 0 
L 581 3500 
L 1159 3500 
L 1159 2956 
Q 1356 3278 1631 3431 
Q 1906 3584 2284 3584 
Q 2666 3584 2933 3390 
Q 3200 3197 3328 2828 
z
" id="DejaVuSans-6d" transform="scale(0.015625)"/>
       <path d="M 3597 1894 
L 3597 1613 
L 953 1613 
Q 991 1019 1311 708 
Q 1631 397 2203 397 
Q 2534 397 2845 478 
Q 3156 559 3463 722 
L 3463 178 
Q 3153 47 2828 -22 
Q 2503 -91 2169 -91 
Q 1331 -91 842 396 
Q 353 884 353 1716 
Q 353 2575 817 3079 
Q 1281 3584 2069 3584 
Q 2775 3584 3186 3129 
Q 3597 2675 3597 1894 
z
M 3022 2063 
Q 3016 2534 2758 2815 
Q 2500 3097 2075 3097 
Q 1594 3097 1305 2825 
Q 1016 2553 972 2059 
L 3022 2063 
z
" id="DejaVuSans-65" transform="scale(0.015625)"/>
      </defs>
      <use xlink:href="#DejaVuSans-66"/>
      <use x="35.205078" xlink:href="#DejaVuSans-72"/>
      <use x="76.318359" xlink:href="#DejaVuSans-61"/>
      <use x="137.597656" xlink:href="#DejaVuSans-6d"/>
      <use x="235.009766" xlink:href="#DejaVuSans-65"/>
     </g>
    </g>
   </g>
   <g id="matplotlib.axis_2">
    <g id="ytick_1">
     <g id="line2d_8">
      <defs>
       <path d="M 0 0 
L -3.5 0 
" id="m239faff159" style="stroke:#000000;stroke-width:0.8;"/>
      </defs>
      <g>
       <use style="stroke:#000000;stroke-width:0.8;" x="43.78125" xlink:href="#m239faff159" y="551.84375"/>
      </g>
     </g>
     <g id="text_9">
      <!-- 3 -->
      <g transform="translate(30.41875 555.642969)scale(0.1 -0.1)">
       <defs>
        <path d="M 2597 2516 
Q 3050 2419 3304 2112 
Q 3559 1806 3559 1356 
Q 3559 666 3084 287 
Q 2609 -91 1734 -91 
Q 1441 -91 1130 -33 
Q 819 25 488 141 
L 488 750 
Q 750 597 1062 519 
Q 1375 441 1716 441 
Q 2309 441 2620 675 
Q 2931 909 2931 1356 
Q 2931 1769 2642 2001 
Q 2353 2234 1838 2234 
L 1294 2234 
L 1294 2753 
L 1863 2753 
Q 2328 2753 2575 2939 
Q 2822 3125 2822 3475 
Q 2822 3834 2567 4026 
Q 2313 4219 1838 4219 
Q 1578 4219 1281 4162 
Q 984 4106 628 3988 
L 628 4550 
Q 988 4650 1302 4700 
Q 1616 4750 1894 4750 
Q 2613 4750 3031 4423 
Q 3450 4097 3450 3541 
Q 3450 3153 3228 2886 
Q 3006 2619 2597 2516 
z
" id="DejaVuSans-33" transform="scale(0.015625)"/>
       </defs>
       <use xlink:href="#DejaVuSans-33"/>
      </g>
     </g>
    </g>
    <g id="ytick_2">
     <g id="line2d_9">
      <g>
       <use style="stroke:#000000;stroke-width:0.8;" x="43.78125" xlink:href="#m239faff159" y="434.178855"/>
      </g>
     </g>
     <g id="text_10">
      <!-- 4 -->
      <g transform="translate(30.41875 437.978074)scale(0.1 -0.1)">
       <use xlink:href="#DejaVuSans-34"/>
      </g>
     </g>
    </g>
    <g id="ytick_3">
     <g id="line2d_10">
      <g>
       <use style="stroke:#000000;stroke-width:0.8;" x="43.78125" xlink:href="#m239faff159" y="316.51396"/>
      </g>
     </g>
     <g id="text_11">
      <!-- 5 -->
      <g transform="translate(30.41875 320.313179)scale(0.1 -0.1)">
       <defs>
        <path d="M 691 4666 
L 3169 4666 
L 3169 4134 
L 1269 4134 
L 1269 2991 
Q 1406 3038 1543 3061 
Q 1681 3084 1819 3084 
Q 2600 3084 3056 2656 
Q 3513 2228 3513 1497 
Q 3513 744 3044 326 
Q 2575 -91 1722 -91 
Q 1428 -91 1123 -41 
Q 819 9 494 109 
L 494 744 
Q 775 591 1075 516 
Q 1375 441 1709 441 
Q 2250 441 2565 725 
Q 2881 1009 2881 1497 
Q 2881 1984 2565 2268 
Q 2250 2553 1709 2553 
Q 1456 2553 1204 2497 
Q 953 2441 691 2322 
L 691 4666 
z
" id="DejaVuSans-35" transform="scale(0.015625)"/>
       </defs>
       <use xlink:href="#DejaVuSans-35"/>
      </g>
     </g>
    </g>
    <g id="ytick_4">
     <g id="line2d_11">
      <g>
       <use style="stroke:#000000;stroke-width:0.8;" x="43.78125" xlink:href="#m239faff159" y="198.849065"/>
      </g>
     </g>
     <g id="text_12">
      <!-- 6 -->
      <g transform="translate(30.41875 202.648283)scale(0.1 -0.1)">
       <use xlink:href="#DejaVuSans-36"/>
      </g>
     </g>
    </g>
    <g id="ytick_5">
     <g id="line2d_12">
      <g>
       <use style="stroke:#000000;stroke-width:0.8;" x="43.78125" xlink:href="#m239faff159" y="81.18417"/>
      </g>
     </g>
     <g id="text_13">
      <!-- 7 -->
      <g transform="translate(30.41875 84.983388)scale(0.1 -0.1)">
       <defs>
        <path d="M 525 4666 
L 3525 4666 
L 3525 4397 
L 1831 0 
L 1172 0 
L 2766 4134 
L 525 4134 
L 525 4666 
z
" id="DejaVuSans-37" transform="scale(0.015625)"/>
       </defs>
       <use xlink:href="#DejaVuSans-37"/>
      </g>
     </g>
    </g>
    <g id="text_14">
     <!-- GCaMP -->
     <g transform="translate(24.339062 322.349446)rotate(-90)scale(0.1 -0.1)">
      <defs>
       <path d="M 3809 666 
L 3809 1919 
L 2778 1919 
L 2778 2438 
L 4434 2438 
L 4434 434 
Q 4069 175 3628 42 
Q 3188 -91 2688 -91 
Q 1594 -91 976 548 
Q 359 1188 359 2328 
Q 359 3472 976 4111 
Q 1594 4750 2688 4750 
Q 3144 4750 3555 4637 
Q 3966 4525 4313 4306 
L 4313 3634 
Q 3963 3931 3569 4081 
Q 3175 4231 2741 4231 
Q 1884 4231 1454 3753 
Q 1025 3275 1025 2328 
Q 1025 1384 1454 906 
Q 1884 428 2741 428 
Q 3075 428 3337 486 
Q 3600 544 3809 666 
z
" id="DejaVuSans-47" transform="scale(0.015625)"/>
       <path d="M 4122 4306 
L 4122 3641 
Q 3803 3938 3442 4084 
Q 3081 4231 2675 4231 
Q 1875 4231 1450 3742 
Q 1025 3253 1025 2328 
Q 1025 1406 1450 917 
Q 1875 428 2675 428 
Q 3081 428 3442 575 
Q 3803 722 4122 1019 
L 4122 359 
Q 3791 134 3420 21 
Q 3050 -91 2638 -91 
Q 1578 -91 968 557 
Q 359 1206 359 2328 
Q 359 3453 968 4101 
Q 1578 4750 2638 4750 
Q 3056 4750 3426 4639 
Q 3797 4528 4122 4306 
z
" id="DejaVuSans-43" transform="scale(0.015625)"/>
       <path d="M 628 4666 
L 1569 4666 
L 2759 1491 
L 3956 4666 
L 4897 4666 
L 4897 0 
L 4281 0 
L 4281 4097 
L 3078 897 
L 2444 897 
L 1241 4097 
L 1241 0 
L 628 0 
L 628 4666 
z
" id="DejaVuSans-4d" transform="scale(0.015625)"/>
       <path d="M 1259 4147 
L 1259 2394 
L 2053 2394 
Q 2494 2394 2734 2622 
Q 2975 2850 2975 3272 
Q 2975 3691 2734 3919 
Q 2494 4147 2053 4147 
L 1259 4147 
z
M 628 4666 
L 2053 4666 
Q 2838 4666 3239 4311 
Q 3641 3956 3641 3272 
Q 3641 2581 3239 2228 
Q 2838 1875 2053 1875 
L 1259 1875 
L 1259 0 
L 628 0 
L 628 4666 
z
" id="DejaVuSans-50" transform="scale(0.015625)"/>
      </defs>
      <use xlink:href="#DejaVuSans-47"/>
      <use x="77.490234" xlink:href="#DejaVuSans-43"/>
      <use x="147.314453" xlink:href="#DejaVuSans-61"/>
      <use x="208.59375" xlink:href="#DejaVuSans-4d"/>
      <use x="294.873047" xlink:href="#DejaVuSans-50"/>
     </g>
    </g>
   </g>
   <g id="line2d_13">
    <path clip-path="url(#p13f055fe68)" d="M 119.872159 519.365833 
L 122.348674 465.74816 
L 123.586931 441.001057 
L 124.825188 418.789574 
L 126.063445 399.409552 
L 128.53996 365.853438 
L 132.254732 316.024 
L 135.969504 265.9614 
L 137.207761 252.918354 
L 138.446018 242.872771 
L 139.684275 235.081593 
L 140.922533 228.771613 
L 144.637304 212.549109 
L 145.875562 205.714896 
L 148.352076 190.426085 
L 149.590334 182.253665 
L 150.828591 172.581272 
L 154.543363 137.049755 
L 155.78162 128.629321 
L 157.019877 123.231245 
L 158.258134 120.100084 
L 159.496392 118.810169 
L 160.734649 119.183013 
L 163.211163 122.037315 
L 165.687678 124.830699 
L 166.925935 125.515424 
L 168.164193 123.756952 
L 169.40245 117.740743 
L 170.640707 107.455249 
L 171.878964 95.411283 
L 173.117222 85.00677 
L 174.355479 78.561974 
L 175.593736 76.463555 
L 176.831993 76.621736 
L 178.070251 75.654009 
L 179.308508 72.314175 
L 180.546765 68.601981 
L 181.785022 66.729958 
L 183.02328 66.971873 
L 184.261537 68.804124 
L 185.499794 71.53205 
L 186.738052 73.487565 
L 187.976309 72.354756 
L 189.214566 67.359932 
L 190.452823 61.373241 
L 191.691081 58.638069 
L 192.929338 59.798416 
L 194.167595 61.876871 
L 195.405852 62.380142 
L 196.64411 60.612548 
L 197.882367 56.586309 
L 199.120624 51.468988 
L 200.358881 47.979282 
L 201.597139 48.104816 
L 202.835396 51.135853 
L 204.073653 55.541609 
L 205.311911 61.571475 
L 206.550168 70.371457 
L 207.788425 82.15562 
L 209.026682 96.509012 
L 211.503197 127.706244 
L 212.741454 139.161272 
L 213.979711 145.20264 
L 215.217969 145.747731 
L 216.456226 141.849985 
L 217.694483 135.977559 
L 218.93274 131.205449 
L 220.170998 129.036593 
L 223.88577 127.687814 
L 225.124027 129.150413 
L 226.362284 134.095242 
L 227.600541 141.149365 
L 228.838799 146.577556 
L 230.077056 148.067564 
L 232.55357 145.433902 
L 233.791828 146.214882 
L 235.030085 149.682021 
L 236.268342 155.014997 
L 237.5066 160.885901 
L 238.744857 166.025251 
L 239.983114 169.552329 
L 241.221371 171.52471 
L 242.459629 172.497768 
L 243.697886 172.47166 
L 244.936143 171.177964 
L 247.412658 167.112996 
L 249.889172 164.188395 
L 251.127429 161.412534 
L 252.365687 157.320917 
L 253.603944 153.767738 
L 254.842201 152.814861 
L 256.080459 154.218304 
L 257.318716 155.268327 
L 258.556973 153.140998 
L 259.79523 147.084595 
L 262.271745 130.263176 
L 263.510002 124.174205 
L 264.748259 120.723443 
L 265.986517 118.921865 
L 267.224774 118.312579 
L 268.463031 118.679465 
L 269.701288 118.34424 
L 270.939546 115.51686 
L 272.177803 111.321533 
L 273.41606 109.581328 
L 274.654318 113.315457 
L 275.892575 122.127824 
L 277.130832 132.609222 
L 278.369089 140.250105 
L 279.607347 141.129611 
L 280.845604 133.734236 
L 283.322118 106.714642 
L 284.560376 96.916204 
L 285.798633 93.053404 
L 287.03689 95.152946 
L 288.275147 102.825871 
L 289.513405 115.169077 
L 293.228177 159.155536 
L 294.466434 169.497535 
L 295.704691 175.714695 
L 296.942948 178.536066 
L 298.181206 178.973305 
L 299.419463 177.646692 
L 300.65772 175.420902 
L 301.895977 173.549188 
L 303.134235 173.098626 
L 304.372492 174.199673 
L 305.610749 175.483607 
L 306.849006 175.253698 
L 308.087264 173.31259 
L 310.563778 167.527576 
L 311.802036 164.452182 
L 313.040293 160.762215 
L 314.27855 155.033238 
L 315.516807 146.173512 
L 316.755065 135.381379 
L 317.993322 126.110043 
L 319.231579 121.455132 
L 320.469836 122.157209 
L 321.708094 126.953065 
L 325.422866 147.411433 
L 326.661123 153.399883 
L 327.89938 160.005151 
L 330.375895 174.97541 
L 331.614152 181.134147 
L 332.852409 185.11691 
L 334.090666 186.512359 
L 335.328924 186.152592 
L 336.567181 186.31209 
L 337.805438 189.233847 
L 339.043695 195.244057 
L 343.996725 225.811183 
L 345.234982 230.333895 
L 346.473239 232.354094 
L 347.711496 232.642806 
L 348.949754 232.807047 
L 350.188011 234.714644 
L 351.426268 239.793247 
L 352.664525 248.033695 
L 355.14104 266.628962 
L 356.379297 273.934847 
L 357.617554 278.911588 
L 358.855812 280.854973 
L 360.094069 279.384409 
L 361.332326 274.557522 
L 363.808841 259.318614 
L 365.047098 254.447614 
L 366.285355 255.056761 
L 367.523613 260.521975 
L 368.76187 267.836235 
L 370.000127 274.297381 
L 371.238384 278.803788 
L 372.476642 281.283889 
L 373.714899 281.694916 
L 374.953156 280.027805 
L 377.429671 273.782153 
L 378.667928 270.29047 
L 381.144443 262.385606 
L 382.3827 260.101959 
L 383.620957 259.624559 
L 384.859214 259.99473 
L 386.097472 260.655759 
L 387.335729 261.844108 
L 388.573986 263.454199 
L 389.812243 264.781709 
L 393.527015 267.046603 
L 394.765272 267.954582 
L 396.00353 268.01298 
L 397.241787 266.952925 
L 398.480044 265.418151 
L 399.718302 264.507674 
L 400.956559 265.06779 
L 402.194816 267.092685 
L 403.433073 269.605089 
L 404.671331 271.467042 
L 405.909588 272.622179 
L 407.147845 274.19406 
L 408.386102 277.165369 
L 410.862617 285.149208 
L 412.100874 287.957834 
L 413.339132 289.51685 
L 414.577389 290.378846 
L 415.815646 290.894506 
L 417.053903 290.642592 
L 418.292161 289.506164 
L 419.530418 288.876964 
L 420.768675 290.583975 
L 422.006932 295.096016 
L 423.24519 302.059562 
L 424.483447 311.378744 
L 426.959961 333.617422 
L 428.198219 342.440326 
L 429.436476 347.43794 
L 430.674733 348.51683 
L 431.912991 346.86461 
L 433.151248 344.34572 
L 434.389505 342.444744 
L 435.627762 341.66095 
L 438.104277 341.67284 
L 439.342534 340.520359 
L 440.580791 337.795849 
L 441.819049 334.415466 
L 443.057306 331.65305 
L 444.295563 329.386795 
L 445.53382 326.30282 
L 448.010335 317.59009 
L 449.248592 315.021329 
L 450.48685 314.516454 
L 451.725107 315.189031 
L 452.963364 316.277371 
L 454.201621 317.589951 
L 455.439879 319.24455 
L 456.678136 321.656986 
L 457.916393 325.45 
L 459.15465 330.908914 
L 461.631165 343.467482 
L 462.869422 347.504891 
L 464.107679 349.104795 
L 465.345937 349.348951 
L 466.584194 349.861581 
L 467.822451 351.836679 
L 469.060709 355.870295 
L 470.298966 361.362458 
L 471.537223 366.018293 
L 472.77548 367.275644 
L 474.013738 364.151701 
L 476.490252 350.977591 
L 477.728509 347.058808 
L 478.966767 347.382089 
L 481.443281 353.792683 
L 482.681538 354.54074 
L 483.919796 352.025884 
L 486.39631 342.094002 
L 487.634568 339.718948 
L 488.872825 342.142948 
L 490.111082 349.252101 
L 492.587597 368.361861 
L 493.825854 375.286997 
L 495.064111 378.381608 
L 496.302368 377.533163 
L 497.540626 373.381426 
L 500.01714 360.948868 
L 501.255397 356.984234 
L 502.493655 356.661522 
L 503.731912 359.16482 
L 504.970169 361.98426 
L 506.208427 363.250407 
L 507.446684 362.757401 
L 508.684941 360.589277 
L 509.923198 356.623252 
L 511.161456 351.652156 
L 512.399713 347.453211 
L 513.63797 345.201784 
L 514.876227 344.44046 
L 516.114485 344.170579 
L 518.590999 344.093087 
L 519.829257 343.709866 
L 522.305771 341.894276 
L 523.544028 342.287892 
L 524.782286 344.262795 
L 526.020543 347.687327 
L 527.2588 352.892118 
L 528.497057 360.193589 
L 530.973572 376.821324 
L 532.211829 382.667639 
L 533.450086 385.557455 
L 534.688344 386.214194 
L 535.926601 386.058088 
L 537.164858 385.768757 
L 538.403116 385.148094 
L 539.641373 383.649757 
L 540.87963 380.714485 
L 544.594402 368.172249 
L 545.832659 365.655745 
L 547.070916 365.033791 
L 548.309174 365.87801 
L 549.547431 366.997441 
L 550.785688 367.531216 
L 552.023945 367.205706 
L 554.50046 365.2708 
L 555.738717 366.036656 
L 556.976975 369.664808 
L 559.453489 381.405808 
L 560.691746 385.689954 
L 561.930004 387.82982 
L 563.168261 388.492494 
L 564.406518 388.960836 
L 565.644775 389.825304 
L 569.359547 392.796819 
L 570.597804 392.504812 
L 571.836062 390.421106 
L 573.074319 386.985681 
L 575.550834 378.844912 
L 576.789091 376.264795 
L 578.027348 376.994282 
L 579.265605 381.228882 
L 580.503863 386.461183 
L 581.74212 389.065389 
L 582.980377 387.048417 
L 584.218634 380.978735 
L 587.933406 356.697535 
L 589.171663 352.423962 
L 590.409921 351.204428 
L 591.648178 351.447728 
L 592.886435 351.270852 
L 595.36295 349.097477 
L 596.601207 349.049789 
L 597.839464 350.085212 
L 599.077722 351.351337 
L 600.315979 351.887341 
L 601.554236 351.182506 
L 602.792493 349.05378 
L 604.030751 345.578192 
L 606.507265 336.995581 
L 607.745523 333.26158 
L 608.98378 330.965654 
L 610.222037 331.589057 
L 611.460294 336.543347 
L 612.698552 345.8661 
L 615.175066 368.376766 
L 616.413323 375.762361 
L 617.651581 379.580825 
L 618.889838 381.520914 
L 621.366352 385.07457 
L 622.60461 386.442971 
L 623.842867 386.769895 
L 625.081124 385.812692 
L 626.319382 383.039028 
L 627.557639 377.969267 
L 628.795896 371.670162 
L 630.034153 366.779335 
L 631.272411 365.209057 
L 632.510668 366.668041 
L 633.748925 369.320715 
L 634.987182 371.012815 
L 636.22544 370.759135 
L 637.463697 369.757757 
L 638.701954 370.330857 
L 639.940211 373.787593 
L 641.178469 379.689699 
L 643.654983 393.171518 
L 644.893241 398.7293 
L 648.608012 413.589245 
L 649.84627 417.904474 
L 651.084527 420.962318 
L 652.322784 422.527665 
L 653.561041 422.704312 
L 654.799299 421.577908 
L 656.037556 418.839175 
L 657.275813 414.203212 
L 658.51407 408.40264 
L 659.752328 403.252954 
L 660.990585 400.262436 
L 662.228842 399.590064 
L 663.4671 400.760931 
L 664.705357 403.361572 
L 668.420129 413.313881 
L 670.896643 420.929614 
L 672.1349 423.838217 
L 673.373158 425.609906 
L 674.611415 426.259952 
L 675.849672 426.367019 
L 677.087929 426.994768 
L 678.326187 428.893639 
L 679.564444 432.153519 
L 680.802701 436.068138 
L 682.040959 438.974139 
L 683.279216 439.06815 
L 684.517473 435.702816 
L 685.75573 429.804681 
L 686.993988 423.17872 
L 688.232245 417.285476 
L 689.470502 412.602472 
L 690.708759 409.006519 
L 691.947017 406.224426 
L 694.423531 401.048823 
L 695.661789 398.364142 
L 696.900046 396.392817 
L 698.138303 395.152457 
L 701.853075 392.255182 
L 703.091332 390.910832 
L 704.329589 390.087416 
L 705.567847 390.353417 
L 706.806104 391.640565 
L 708.044361 394.477459 
L 709.282618 400.036043 
L 710.520876 408.339592 
L 711.759133 417.6198 
L 712.99739 425.596891 
L 714.235648 430.480822 
L 715.473905 431.260696 
L 716.712162 428.153402 
L 717.950419 422.382308 
L 719.188677 415.466553 
L 720.426934 409.299882 
L 721.665191 406.043559 
L 722.903448 406.838174 
L 724.141706 410.7433 
L 726.61822 420.175567 
L 727.856477 424.189291 
L 729.094735 427.738928 
L 731.571249 433.93324 
L 734.047764 441.028953 
L 735.286021 442.796543 
L 736.524278 441.804274 
L 737.762536 438.417192 
L 742.715565 420.228896 
L 743.953822 416.25175 
L 745.192079 412.973197 
L 746.430336 411.033722 
L 747.668594 410.726186 
L 748.906851 411.982473 
L 750.145108 414.731271 
L 752.621623 422.625366 
L 753.85988 425.296989 
L 755.098137 425.490408 
L 756.336395 423.350995 
L 758.812909 416.457993 
L 760.051166 413.894533 
L 761.289424 413.010512 
L 762.527681 413.911566 
L 763.765938 415.943475 
L 766.242453 420.868063 
L 767.48071 423.369655 
L 768.718967 424.651851 
L 769.957225 423.563365 
L 771.195482 420.392809 
L 772.433739 416.718224 
L 773.671996 414.158315 
L 774.910254 413.762164 
L 776.148511 415.890725 
L 777.386768 419.808076 
L 779.863283 428.393774 
L 781.10154 432.235393 
L 782.339797 434.685286 
L 783.578054 434.590176 
L 784.816312 432.250081 
L 786.054569 429.379096 
L 787.292826 427.628709 
L 788.531084 427.574927 
L 789.769341 429.129168 
L 791.007598 432.421002 
L 792.245855 437.568548 
L 793.484113 443.629081 
L 794.72237 448.519986 
L 795.960627 450.354882 
L 797.198884 448.94303 
L 798.437142 445.645527 
L 799.675399 441.948361 
L 800.913656 438.898003 
L 802.151914 437.151239 
L 803.390171 437.108921 
L 804.628428 439.387139 
L 805.866685 444.531133 
L 807.104943 452.241962 
L 809.581457 469.78358 
L 810.819714 475.864417 
L 812.057972 478.078794 
L 813.296229 475.907726 
L 814.534486 470.297799 
L 815.772743 463.742501 
L 817.011001 458.991418 
L 818.249258 457.577531 
L 819.487515 459.927514 
L 820.725773 465.413708 
L 821.96403 471.642279 
L 823.202287 475.73361 
L 824.440544 476.606461 
L 825.678802 474.867132 
L 826.917059 471.529473 
L 828.155316 467.742212 
L 829.393573 464.645913 
L 830.631831 462.81095 
L 831.870088 462.007329 
L 833.108345 461.461281 
L 834.346602 460.502187 
L 835.58486 459.333808 
L 836.823117 459.004448 
L 838.061374 460.098691 
L 839.299632 461.725745 
L 840.537889 462.749779 
L 843.014403 463.681316 
L 844.252661 463.557759 
L 845.490918 462.869032 
L 846.729175 462.851101 
L 847.967432 464.581429 
L 849.20569 467.433065 
L 850.443947 469.807094 
L 852.920461 472.408384 
L 854.158719 475.32027 
L 855.396976 480.50392 
L 857.873491 493.480154 
L 859.111748 497.412586 
L 860.350005 498.518118 
L 862.82652 497.169078 
L 864.064777 497.696942 
L 865.303034 498.886601 
L 866.541291 498.974211 
L 867.779549 496.904927 
L 869.017806 492.976038 
L 872.732578 478.053653 
L 873.970835 476.093454 
L 875.209092 477.323766 
L 877.685607 483.69055 
L 878.923864 484.588227 
L 880.162121 483.120894 
L 882.638636 477.042858 
L 883.876893 475.161702 
L 885.11515 475.072986 
L 886.353408 476.718569 
L 887.591665 479.182867 
L 888.829922 481.010414 
L 890.06818 481.925599 
L 891.306437 483.17055 
L 892.544694 485.706701 
L 893.782951 489.325284 
L 896.259466 497.841077 
L 898.73598 506.447338 
L 899.974238 510.329847 
L 901.212495 513.772897 
L 902.450752 516.091439 
L 903.689009 516.138166 
L 904.927267 513.607323 
L 906.165524 510.206846 
L 907.403781 508.487266 
L 908.642039 509.441202 
L 911.118553 514.784866 
L 912.35681 516.563773 
L 913.595068 516.608714 
L 914.833325 514.418589 
L 916.071582 510.176286 
L 917.309839 505.11119 
L 918.548097 501.164331 
L 919.786354 499.377039 
L 921.024611 498.672815 
L 922.262868 497.312153 
L 923.501126 495.162371 
L 924.739383 493.48496 
L 925.97764 493.064777 
L 927.215898 493.469479 
L 928.454155 494.036261 
L 929.692412 494.8414 
L 930.930669 496.330195 
L 932.168927 498.912848 
L 933.407184 503.193195 
L 935.883698 515.375162 
L 937.121956 518.6406 
L 938.360213 516.79628 
L 939.59847 510.21551 
L 940.836727 501.936494 
L 942.074985 495.648146 
L 943.313242 493.465021 
L 944.551499 495.22745 
L 945.789757 499.401135 
L 948.266271 509.479823 
L 949.504528 513.802685 
L 950.742786 516.743377 
L 951.981043 517.897377 
L 953.2193 517.513669 
L 954.457557 516.261933 
L 955.695815 514.759152 
L 956.934072 513.473768 
L 958.172329 512.798971 
L 959.410586 512.956363 
L 960.648844 513.844657 
L 963.125358 516.239181 
L 964.363616 517.112413 
L 965.601873 517.399326 
L 966.84013 516.438772 
L 968.078387 514.018452 
L 969.316645 511.187312 
L 970.554902 509.14334 
L 971.793159 507.727099 
L 973.031416 505.701618 
L 974.269674 502.236352 
L 977.984446 488.144391 
L 979.222703 484.930535 
L 980.46096 484.031996 
L 981.699217 485.580731 
L 982.937475 488.891439 
L 984.175732 493.253202 
L 987.890504 508.680314 
L 989.128761 512.257302 
L 990.367018 513.442728 
L 991.605275 512.278635 
L 992.843533 510.058751 
L 994.08179 508.109294 
L 995.320047 506.764021 
L 996.558305 506.009321 
L 997.796562 505.91682 
L 999.034819 506.368448 
L 1000.273076 507.225253 
L 1001.511334 508.449805 
L 1002.749591 509.867143 
L 1003.987848 511.058015 
L 1005.226105 511.58544 
L 1006.464363 511.409862 
L 1007.70262 510.60815 
L 1008.940877 508.66723 
L 1010.179134 504.953244 
L 1012.655649 494.927484 
L 1013.893906 491.893798 
L 1015.132164 491.841775 
L 1016.370421 494.629999 
L 1017.608678 498.699663 
L 1018.846935 502.020923 
L 1020.085193 503.679258 
L 1021.32345 504.238238 
L 1022.561707 504.333457 
L 1023.799964 503.523014 
L 1025.038222 501.092848 
L 1027.514736 493.619572 
L 1028.752993 491.068475 
L 1029.991251 490.167116 
L 1031.229508 490.512748 
L 1032.467765 491.159633 
L 1033.706023 491.138659 
L 1036.182537 489.340278 
L 1037.420794 490.44947 
L 1038.659052 494.943583 
L 1041.135566 508.92561 
L 1042.373823 513.218483 
L 1043.612081 514.683387 
L 1044.850338 514.259809 
L 1046.088595 512.656803 
L 1047.326852 510.651185 
L 1048.56511 509.261626 
L 1049.803367 508.926624 
L 1051.041624 509.463019 
L 1053.518139 511.595584 
L 1054.756396 511.397321 
L 1055.994653 509.275041 
L 1058.471168 502.853563 
L 1059.709425 500.896455 
L 1060.947682 500.237665 
L 1062.18594 500.653157 
L 1063.424197 501.88977 
L 1064.662454 503.947929 
L 1065.900711 506.823505 
L 1068.377226 513.259739 
L 1069.615483 515.57785 
L 1070.853741 516.581012 
L 1072.091998 516.573806 
L 1073.330255 516.771976 
L 1074.568512 518.39395 
L 1075.80677 521.610945 
L 1077.045027 525.428922 
L 1078.283284 528.650915 
L 1079.521541 530.54961 
L 1080.759799 530.821495 
L 1081.998056 529.785472 
L 1083.236313 528.426547 
L 1084.474571 527.696262 
L 1085.712828 527.952636 
L 1086.951085 528.989596 
L 1088.189342 530.509337 
L 1089.4276 532.62242 
L 1091.904114 538.070381 
L 1093.142371 539.621634 
L 1094.380629 539.786808 
L 1095.618886 539.119245 
L 1098.0954 537.473109 
L 1099.333658 536.444437 
L 1100.571915 535.26835 
L 1101.810172 534.514359 
L 1103.04843 534.848259 
L 1104.286687 536.858977 
L 1105.524944 540.673568 
L 1106.763201 545.099432 
L 1108.001459 547.90868 
L 1109.239716 547.601712 
L 1110.477973 544.387599 
L 1114.192745 529.721219 
L 1115.431002 526.919105 
L 1116.669259 526.443527 
L 1117.907517 528.542699 
L 1119.145774 532.800042 
L 1120.384031 538.041023 
L 1121.622289 542.654609 
L 1122.860546 545.075991 
L 1124.098803 544.532776 
L 1125.33706 541.775109 
L 1126.575318 538.666101 
L 1127.813575 536.596094 
L 1130.290089 534.235634 
L 1132.766604 530.400042 
L 1134.004861 530.046392 
L 1135.243118 532.587095 
L 1136.481376 537.896745 
L 1138.95789 550.611428 
L 1140.196148 555.04034 
L 1141.434405 557.217479 
L 1142.672662 556.952266 
L 1143.910919 554.758857 
L 1145.149177 551.932544 
L 1146.387434 549.711938 
L 1147.625691 548.465511 
L 1148.863948 547.650305 
L 1150.102206 546.450423 
L 1151.340463 544.51739 
L 1152.57872 542.290522 
L 1153.816977 540.697932 
L 1155.055235 540.278594 
L 1157.531749 540.942041 
L 1158.770007 540.769343 
L 1160.008264 540.747549 
L 1161.246521 541.521105 
L 1162.484778 542.561729 
L 1163.723036 542.973673 
L 1164.961293 543.05064 
L 1166.19955 544.190851 
L 1167.437807 547.302634 
L 1169.914322 555.854077 
L 1171.152579 558.037463 
L 1172.390837 557.275267 
L 1173.629094 553.758337 
L 1174.867351 549.058003 
L 1176.105608 545.289109 
L 1177.343866 543.953229 
L 1178.582123 545.3186 
L 1179.82038 548.546332 
L 1181.058637 552.159153 
L 1182.296895 554.716071 
L 1183.535152 555.669986 
L 1184.773409 555.452709 
L 1186.011666 554.572674 
L 1187.249924 552.986488 
L 1189.726438 547.918524 
L 1190.964696 546.423689 
L 1192.202953 546.587973 
L 1193.44121 547.43676 
L 1194.679467 547.496156 
L 1195.917725 546.244364 
L 1197.155982 544.398726 
L 1198.394239 542.917918 
L 1199.632496 542.308386 
L 1200.870754 542.722083 
L 1203.347268 544.809791 
L 1204.585525 544.962708 
L 1205.823783 544.388945 
L 1207.06204 543.590341 
L 1208.300297 543.092815 
L 1209.538555 543.411603 
L 1212.015069 545.842771 
L 1213.253326 546.177523 
L 1214.491584 545.087076 
L 1215.729841 542.702889 
L 1216.968098 540.049207 
L 1218.206355 538.614935 
L 1219.444613 538.898925 
L 1220.68287 539.868821 
L 1221.921127 540.196541 
L 1223.159384 539.549728 
L 1226.874156 536.19575 
L 1228.112414 534.932956 
L 1229.350671 533.187369 
L 1230.588928 530.401098 
L 1231.827185 526.379174 
L 1234.3037 517.330441 
L 1235.541957 514.300318 
L 1236.780214 513.184547 
L 1238.018472 514.317019 
L 1239.256729 517.465656 
L 1241.733243 526.52256 
L 1242.971501 530.944662 
L 1244.209758 534.119048 
L 1245.448015 535.392916 
L 1246.686273 535.25725 
L 1249.162787 534.222514 
L 1250.401044 533.961421 
L 1251.639302 534.040834 
L 1252.877559 533.892365 
L 1254.115816 532.535842 
L 1255.354073 530.117896 
L 1256.592331 528.062592 
L 1257.830588 527.386376 
L 1259.068845 527.989494 
L 1260.307103 529.324273 
L 1262.783617 532.414758 
L 1264.021874 534.710798 
L 1265.260132 538.416077 
L 1266.498389 542.949118 
L 1267.736646 546.571346 
L 1268.974903 547.745638 
L 1270.213161 546.34627 
L 1271.451418 543.965795 
L 1272.689675 542.566876 
L 1273.927932 542.781324 
L 1276.404447 545.272942 
L 1277.642704 545.950165 
L 1278.880962 545.718662 
L 1280.119219 544.373604 
L 1281.357476 541.959098 
L 1282.595733 539.190202 
L 1283.833991 537.201363 
L 1285.072248 536.802299 
L 1286.310505 538.049382 
L 1287.548762 540.442214 
L 1288.78702 543.14957 
L 1290.025277 545.02604 
L 1291.263534 545.248405 
L 1292.501791 544.138862 
L 1293.740049 542.810184 
L 1294.978306 542.233531 
L 1296.216563 542.773374 
L 1298.693078 545.287144 
L 1299.931335 545.851468 
L 1301.169592 545.816008 
L 1302.40785 545.261269 
L 1303.646107 544.007982 
L 1304.884364 542.155895 
L 1306.122621 540.099652 
L 1307.360879 538.360531 
L 1308.599136 537.638579 
L 1309.837393 538.298837 
L 1313.552165 543.038221 
L 1314.790422 543.409727 
L 1316.02868 542.303197 
L 1317.266937 539.914711 
L 1318.505194 537.161805 
L 1319.743451 534.904211 
L 1320.981709 533.525848 
L 1323.458223 532.354175 
L 1324.69648 530.572467 
L 1325.934738 527.065276 
L 1327.172995 522.650196 
L 1328.411252 518.856549 
L 1329.649509 516.834697 
L 1330.887767 516.804914 
L 1332.126024 518.257079 
L 1333.364281 520.709646 
L 1334.602539 524.126752 
L 1337.079053 532.821884 
L 1338.31731 536.07335 
L 1339.555568 537.183359 
L 1340.793825 535.903067 
L 1342.032082 532.813671 
L 1343.270339 529.058746 
L 1344.508597 525.660586 
L 1345.746854 523.267656 
L 1346.985111 522.464969 
L 1348.223368 523.627224 
L 1349.461626 526.57202 
L 1351.93814 534.350621 
L 1353.176398 536.816303 
L 1354.414655 537.196889 
L 1355.652912 535.301692 
L 1358.129427 527.99905 
L 1359.367684 525.615207 
L 1360.605941 525.937932 
L 1361.844198 529.193216 
L 1364.320713 538.662639 
L 1365.55897 541.81696 
L 1366.797228 543.264983 
L 1368.035485 543.367461 
L 1369.273742 543.138199 
L 1370.511999 543.816774 
L 1371.750257 545.862695 
L 1372.988514 548.515902 
L 1374.226771 550.856344 
L 1375.465028 552.804715 
L 1376.703286 554.367324 
L 1377.941543 554.903925 
L 1379.1798 554.056035 
L 1381.656315 550.590043 
L 1382.894572 548.744762 
L 1384.132829 547.148877 
L 1385.371087 546.504152 
L 1386.609344 547.365479 
L 1387.847601 549.832711 
L 1389.085858 553.649259 
L 1390.324116 557.859906 
L 1391.562373 560.797543 
L 1392.80063 561.202423 
L 1394.038887 558.783041 
L 1395.277145 553.617148 
L 1396.515402 546.203304 
L 1397.753659 538.029066 
L 1398.991916 530.993365 
L 1400.230174 526.234077 
L 1401.468431 523.876532 
L 1402.706688 523.49621 
L 1403.944946 524.346108 
L 1407.659717 527.927894 
L 1408.897975 529.267468 
L 1410.136232 529.60072 
L 1411.374489 527.801851 
L 1412.612746 523.539453 
L 1413.851004 517.872579 
L 1415.089261 513.196071 
L 1416.327518 511.555706 
L 1417.565775 513.306425 
L 1418.804033 517.873575 
L 1420.04229 524.604344 
L 1421.280547 532.350557 
L 1422.518805 538.956929 
L 1423.757062 542.112186 
L 1424.995319 541.314066 
L 1426.233576 538.457333 
L 1427.471834 536.10352 
L 1428.710091 535.756277 
L 1429.948348 537.683843 
L 1431.186605 541.30606 
L 1433.66312 549.501326 
L 1434.901377 552.681782 
L 1436.139634 554.538126 
L 1437.377892 554.539545 
L 1438.616149 552.801894 
L 1439.854406 550.198849 
L 1441.092664 547.989908 
L 1442.330921 547.365796 
L 1443.569178 548.638044 
L 1444.807435 550.597147 
L 1446.045693 551.516115 
L 1447.28395 551.004577 
L 1448.522207 550.140184 
L 1449.760464 550.114603 
L 1452.236979 552.42901 
L 1453.475236 551.884241 
L 1454.713494 548.286815 
L 1457.190008 535.747452 
L 1458.428265 531.520288 
L 1459.666523 530.329897 
L 1460.90478 531.186099 
L 1462.143037 532.782917 
L 1463.381294 534.739593 
L 1464.619552 537.191938 
L 1465.857809 539.930756 
L 1467.096066 542.365673 
L 1468.334323 543.792116 
L 1469.572581 543.477762 
L 1470.810838 540.966391 
L 1472.049095 536.52708 
L 1473.287353 531.346336 
L 1474.52561 527.104886 
L 1475.763867 525.044574 
L 1477.002124 525.521814 
L 1478.240382 528.137581 
L 1480.716896 535.185607 
L 1481.955153 537.927074 
L 1483.193411 540.203766 
L 1484.431668 542.028011 
L 1485.669925 542.943224 
L 1486.908182 542.143419 
L 1488.14644 539.034869 
L 1490.622954 529.420623 
L 1491.861212 526.896283 
L 1493.099469 527.727262 
L 1494.337726 531.87332 
L 1496.814241 544.3428 
L 1498.052498 548.245694 
L 1499.290755 548.54981 
L 1500.529012 545.504113 
L 1501.76727 540.883462 
L 1503.005527 537.271659 
L 1504.243784 536.56616 
L 1505.482041 538.749808 
L 1507.958556 546.203393 
L 1509.196813 549.305184 
L 1510.435071 551.193415 
L 1511.673328 551.912187 
L 1512.911585 552.218166 
L 1514.149842 552.796454 
L 1515.3881 553.689249 
L 1516.626357 554.41062 
L 1517.864614 554.426433 
L 1519.102871 553.736562 
L 1520.341129 552.815969 
L 1521.579386 552.229467 
L 1522.817643 552.420098 
L 1524.0559 553.200051 
L 1525.294158 553.56004 
L 1526.532415 552.422804 
L 1527.770672 549.258984 
L 1530.247187 538.905434 
L 1531.485444 535.20997 
L 1532.723701 534.376595 
L 1533.961959 535.516592 
L 1535.200216 536.928357 
L 1538.914988 540.283866 
L 1540.153245 540.12554 
L 1541.391502 538.127167 
L 1543.868017 531.961115 
L 1545.106274 529.956147 
L 1546.344531 528.625808 
L 1547.582789 527.608103 
L 1548.821046 527.351572 
L 1550.059303 528.634964 
L 1551.29756 531.00633 
L 1552.535818 532.570549 
L 1553.774075 532.008996 
L 1555.012332 530.258419 
L 1556.250589 529.695557 
L 1557.488847 531.758067 
L 1559.965361 539.94153 
L 1561.203619 542.804519 
L 1562.441876 543.781073 
L 1563.680133 543.245449 
L 1564.91839 541.873098 
L 1566.156648 539.812819 
L 1567.394905 536.605142 
L 1568.633162 531.908466 
L 1569.871419 526.406324 
L 1571.109677 521.749982 
L 1572.347934 519.5707 
L 1573.586191 520.626665 
L 1574.824448 524.324981 
L 1577.300963 533.365882 
L 1578.53922 536.640449 
L 1579.777478 538.853404 
L 1582.253992 542.201927 
L 1583.492249 544.53602 
L 1584.730507 547.556195 
L 1587.207021 554.036221 
L 1588.445278 555.80718 
L 1589.683536 555.432958 
L 1590.921793 552.904469 
L 1592.16005 549.229121 
L 1593.398307 546.176692 
L 1594.636565 545.610814 
L 1595.874822 547.993928 
L 1597.113079 551.339625 
L 1598.351337 552.742101 
L 1599.589594 551.373811 
L 1600.827851 549.267554 
L 1602.066108 549.011237 
L 1603.304366 551.251824 
L 1604.542623 554.358449 
L 1605.78088 555.800559 
L 1607.019137 554.053609 
L 1608.257395 549.724789 
L 1609.495652 544.70824 
L 1610.733909 540.548722 
L 1611.972166 538.057527 
L 1613.210424 537.930633 
L 1614.448681 540.658374 
L 1616.925196 550.952894 
L 1618.163453 554.854583 
L 1619.40171 556.533886 
L 1620.639967 556.172744 
L 1621.878225 554.096201 
L 1623.116482 550.488864 
L 1625.592996 541.233177 
L 1626.831254 538.067259 
L 1628.069511 537.372589 
L 1629.307768 538.785658 
L 1630.546026 540.418474 
L 1631.784283 540.43558 
L 1633.02254 538.666298 
L 1634.260797 536.300132 
L 1635.499055 534.58039 
L 1636.737312 534.311542 
L 1637.975569 536.061832 
L 1639.213826 540.050437 
L 1640.452084 545.900152 
L 1641.690341 552.777601 
L 1641.690341 552.777601 
" style="fill:none;stroke:#008000;stroke-linecap:square;stroke-width:1.5;"/>
   </g>
   <g id="patch_3">
    <path d="M 43.78125 586.86358 
L 43.78125 22.318125 
" style="fill:none;stroke:#000000;stroke-linecap:square;stroke-linejoin:miter;stroke-width:0.8;"/>
   </g>
   <g id="patch_4">
    <path d="M 1717.78125 586.86358 
L 1717.78125 22.318125 
" style="fill:none;stroke:#000000;stroke-linecap:square;stroke-linejoin:miter;stroke-width:0.8;"/>
   </g>
   <g id="patch_5">
    <path d="M 43.78125 586.86358 
L 1717.78125 586.86358 
" style="fill:none;stroke:#000000;stroke-linecap:square;stroke-linejoin:miter;stroke-width:0.8;"/>
   </g>
   <g id="patch_6">
    <path d="M 43.78125 22.318125 
L 1717.78125 22.318125 
" style="fill:none;stroke:#000000;stroke-linecap:square;stroke-linejoin:miter;stroke-width:0.8;"/>
   </g>
   <g id="text_15">
    <!-- before binarisation -->
    <g transform="translate(824.1825 16.318125)scale(0.12 -0.12)">
     <defs>
      <path d="M 3116 1747 
Q 3116 2381 2855 2742 
Q 2594 3103 2138 3103 
Q 1681 3103 1420 2742 
Q 1159 2381 1159 1747 
Q 1159 1113 1420 752 
Q 1681 391 2138 391 
Q 2594 391 2855 752 
Q 3116 1113 3116 1747 
z
M 1159 2969 
Q 1341 3281 1617 3432 
Q 1894 3584 2278 3584 
Q 2916 3584 3314 3078 
Q 3713 2572 3713 1747 
Q 3713 922 3314 415 
Q 2916 -91 2278 -91 
Q 1894 -91 1617 61 
Q 1341 213 1159 525 
L 1159 0 
L 581 0 
L 581 4863 
L 1159 4863 
L 1159 2969 
z
" id="DejaVuSans-62" transform="scale(0.015625)"/>
      <path d="M 1959 3097 
Q 1497 3097 1228 2736 
Q 959 2375 959 1747 
Q 959 1119 1226 758 
Q 1494 397 1959 397 
Q 2419 397 2687 759 
Q 2956 1122 2956 1747 
Q 2956 2369 2687 2733 
Q 2419 3097 1959 3097 
z
M 1959 3584 
Q 2709 3584 3137 3096 
Q 3566 2609 3566 1747 
Q 3566 888 3137 398 
Q 2709 -91 1959 -91 
Q 1206 -91 779 398 
Q 353 888 353 1747 
Q 353 2609 779 3096 
Q 1206 3584 1959 3584 
z
" id="DejaVuSans-6f" transform="scale(0.015625)"/>
      <path id="DejaVuSans-20" transform="scale(0.015625)"/>
      <path d="M 603 3500 
L 1178 3500 
L 1178 0 
L 603 0 
L 603 3500 
z
M 603 4863 
L 1178 4863 
L 1178 4134 
L 603 4134 
L 603 4863 
z
" id="DejaVuSans-69" transform="scale(0.015625)"/>
      <path d="M 3513 2113 
L 3513 0 
L 2938 0 
L 2938 2094 
Q 2938 2591 2744 2837 
Q 2550 3084 2163 3084 
Q 1697 3084 1428 2787 
Q 1159 2491 1159 1978 
L 1159 0 
L 581 0 
L 581 3500 
L 1159 3500 
L 1159 2956 
Q 1366 3272 1645 3428 
Q 1925 3584 2291 3584 
Q 2894 3584 3203 3211 
Q 3513 2838 3513 2113 
z
" id="DejaVuSans-6e" transform="scale(0.015625)"/>
      <path d="M 2834 3397 
L 2834 2853 
Q 2591 2978 2328 3040 
Q 2066 3103 1784 3103 
Q 1356 3103 1142 2972 
Q 928 2841 928 2578 
Q 928 2378 1081 2264 
Q 1234 2150 1697 2047 
L 1894 2003 
Q 2506 1872 2764 1633 
Q 3022 1394 3022 966 
Q 3022 478 2636 193 
Q 2250 -91 1575 -91 
Q 1294 -91 989 -36 
Q 684 19 347 128 
L 347 722 
Q 666 556 975 473 
Q 1284 391 1588 391 
Q 1994 391 2212 530 
Q 2431 669 2431 922 
Q 2431 1156 2273 1281 
Q 2116 1406 1581 1522 
L 1381 1569 
Q 847 1681 609 1914 
Q 372 2147 372 2553 
Q 372 3047 722 3315 
Q 1072 3584 1716 3584 
Q 2034 3584 2315 3537 
Q 2597 3491 2834 3397 
z
" id="DejaVuSans-73" transform="scale(0.015625)"/>
      <path d="M 1172 4494 
L 1172 3500 
L 2356 3500 
L 2356 3053 
L 1172 3053 
L 1172 1153 
Q 1172 725 1289 603 
Q 1406 481 1766 481 
L 2356 481 
L 2356 0 
L 1766 0 
Q 1100 0 847 248 
Q 594 497 594 1153 
L 594 3053 
L 172 3053 
L 172 3500 
L 594 3500 
L 594 4494 
L 1172 4494 
z
" id="DejaVuSans-74" transform="scale(0.015625)"/>
     </defs>
     <use xlink:href="#DejaVuSans-62"/>
     <use x="63.476562" xlink:href="#DejaVuSans-65"/>
     <use x="125" xlink:href="#DejaVuSans-66"/>
     <use x="160.205078" xlink:href="#DejaVuSans-6f"/>
     <use x="221.386719" xlink:href="#DejaVuSans-72"/>
     <use x="260.25" xlink:href="#DejaVuSans-65"/>
     <use x="321.773438" xlink:href="#DejaVuSans-20"/>
     <use x="353.560547" xlink:href="#DejaVuSans-62"/>
     <use x="417.037109" xlink:href="#DejaVuSans-69"/>
     <use x="444.820312" xlink:href="#DejaVuSans-6e"/>
     <use x="508.199219" xlink:href="#DejaVuSans-61"/>
     <use x="569.478516" xlink:href="#DejaVuSans-72"/>
     <use x="610.591797" xlink:href="#DejaVuSans-69"/>
     <use x="638.375" xlink:href="#DejaVuSans-73"/>
     <use x="690.474609" xlink:href="#DejaVuSans-61"/>
     <use x="751.753906" xlink:href="#DejaVuSans-74"/>
     <use x="790.962891" xlink:href="#DejaVuSans-69"/>
     <use x="818.746094" xlink:href="#DejaVuSans-6f"/>
     <use x="879.927734" xlink:href="#DejaVuSans-6e"/>
    </g>
   </g>
  </g>
  <g id="axes_2">
   <g id="patch_7">
    <path d="M 43.78125 1264.318125 
L 1717.78125 1264.318125 
L 1717.78125 699.77267 
L 43.78125 699.77267 
z
" style="fill:#ffffff;"/>
   </g>
   <g id="matplotlib.axis_3">
    <g id="xtick_8">
     <g id="line2d_14">
      <g>
       <use style="stroke:#000000;stroke-width:0.8;" x="119.872159" xlink:href="#m0ecdf47139" y="1264.318125"/>
      </g>
     </g>
     <g id="text_16">
      <!-- 0 -->
      <g transform="translate(116.690909 1278.916563)scale(0.1 -0.1)">
       <use xlink:href="#DejaVuSans-30"/>
      </g>
     </g>
    </g>
    <g id="xtick_9">
     <g id="line2d_15">
      <g>
       <use style="stroke:#000000;stroke-width:0.8;" x="367.523613" xlink:href="#m0ecdf47139" y="1264.318125"/>
      </g>
     </g>
     <g id="text_17">
      <!-- 200 -->
      <g transform="translate(357.979863 1278.916563)scale(0.1 -0.1)">
       <use xlink:href="#DejaVuSans-32"/>
       <use x="63.623047" xlink:href="#DejaVuSans-30"/>
       <use x="127.246094" xlink:href="#DejaVuSans-30"/>
      </g>
     </g>
    </g>
    <g id="xtick_10">
     <g id="line2d_16">
      <g>
       <use style="stroke:#000000;stroke-width:0.8;" x="615.175066" xlink:href="#m0ecdf47139" y="1264.318125"/>
      </g>
     </g>
     <g id="text_18">
      <!-- 400 -->
      <g transform="translate(605.631316 1278.916563)scale(0.1 -0.1)">
       <use xlink:href="#DejaVuSans-34"/>
       <use x="63.623047" xlink:href="#DejaVuSans-30"/>
       <use x="127.246094" xlink:href="#DejaVuSans-30"/>
      </g>
     </g>
    </g>
    <g id="xtick_11">
     <g id="line2d_17">
      <g>
       <use style="stroke:#000000;stroke-width:0.8;" x="862.82652" xlink:href="#m0ecdf47139" y="1264.318125"/>
      </g>
     </g>
     <g id="text_19">
      <!-- 600 -->
      <g transform="translate(853.28277 1278.916563)scale(0.1 -0.1)">
       <use xlink:href="#DejaVuSans-36"/>
       <use x="63.623047" xlink:href="#DejaVuSans-30"/>
       <use x="127.246094" xlink:href="#DejaVuSans-30"/>
      </g>
     </g>
    </g>
    <g id="xtick_12">
     <g id="line2d_18">
      <g>
       <use style="stroke:#000000;stroke-width:0.8;" x="1110.477973" xlink:href="#m0ecdf47139" y="1264.318125"/>
      </g>
     </g>
     <g id="text_20">
      <!-- 800 -->
      <g transform="translate(1100.934223 1278.916563)scale(0.1 -0.1)">
       <use xlink:href="#DejaVuSans-38"/>
       <use x="63.623047" xlink:href="#DejaVuSans-30"/>
       <use x="127.246094" xlink:href="#DejaVuSans-30"/>
      </g>
     </g>
    </g>
    <g id="xtick_13">
     <g id="line2d_19">
      <g>
       <use style="stroke:#000000;stroke-width:0.8;" x="1358.129427" xlink:href="#m0ecdf47139" y="1264.318125"/>
      </g>
     </g>
     <g id="text_21">
      <!-- 1000 -->
      <g transform="translate(1345.404427 1278.916563)scale(0.1 -0.1)">
       <use xlink:href="#DejaVuSans-31"/>
       <use x="63.623047" xlink:href="#DejaVuSans-30"/>
       <use x="127.246094" xlink:href="#DejaVuSans-30"/>
       <use x="190.869141" xlink:href="#DejaVuSans-30"/>
      </g>
     </g>
    </g>
    <g id="xtick_14">
     <g id="line2d_20">
      <g>
       <use style="stroke:#000000;stroke-width:0.8;" x="1605.78088" xlink:href="#m0ecdf47139" y="1264.318125"/>
      </g>
     </g>
     <g id="text_22">
      <!-- 1200 -->
      <g transform="translate(1593.05588 1278.916563)scale(0.1 -0.1)">
       <use xlink:href="#DejaVuSans-31"/>
       <use x="63.623047" xlink:href="#DejaVuSans-32"/>
       <use x="127.246094" xlink:href="#DejaVuSans-30"/>
       <use x="190.869141" xlink:href="#DejaVuSans-30"/>
      </g>
     </g>
    </g>
    <g id="text_23">
     <!-- frame -->
     <g transform="translate(865.954687 1292.594688)scale(0.1 -0.1)">
      <use xlink:href="#DejaVuSans-66"/>
      <use x="35.205078" xlink:href="#DejaVuSans-72"/>
      <use x="76.318359" xlink:href="#DejaVuSans-61"/>
      <use x="137.597656" xlink:href="#DejaVuSans-6d"/>
      <use x="235.009766" xlink:href="#DejaVuSans-65"/>
     </g>
    </g>
   </g>
   <g id="matplotlib.axis_4">
    <g id="ytick_6">
     <g id="line2d_21">
      <g>
       <use style="stroke:#000000;stroke-width:0.8;" x="43.78125" xlink:href="#m239faff159" y="1238.656968"/>
      </g>
     </g>
     <g id="text_24">
      <!-- 0.0 -->
      <g transform="translate(20.878125 1242.456187)scale(0.1 -0.1)">
       <defs>
        <path d="M 684 794 
L 1344 794 
L 1344 0 
L 684 0 
L 684 794 
z
" id="DejaVuSans-2e" transform="scale(0.015625)"/>
       </defs>
       <use xlink:href="#DejaVuSans-30"/>
       <use x="63.623047" xlink:href="#DejaVuSans-2e"/>
       <use x="95.410156" xlink:href="#DejaVuSans-30"/>
      </g>
     </g>
    </g>
    <g id="ytick_7">
     <g id="line2d_22">
      <g>
       <use style="stroke:#000000;stroke-width:0.8;" x="43.78125" xlink:href="#m239faff159" y="1136.01234"/>
      </g>
     </g>
     <g id="text_25">
      <!-- 0.2 -->
      <g transform="translate(20.878125 1139.811559)scale(0.1 -0.1)">
       <use xlink:href="#DejaVuSans-30"/>
       <use x="63.623047" xlink:href="#DejaVuSans-2e"/>
       <use x="95.410156" xlink:href="#DejaVuSans-32"/>
      </g>
     </g>
    </g>
    <g id="ytick_8">
     <g id="line2d_23">
      <g>
       <use style="stroke:#000000;stroke-width:0.8;" x="43.78125" xlink:href="#m239faff159" y="1033.367712"/>
      </g>
     </g>
     <g id="text_26">
      <!-- 0.4 -->
      <g transform="translate(20.878125 1037.166931)scale(0.1 -0.1)">
       <use xlink:href="#DejaVuSans-30"/>
       <use x="63.623047" xlink:href="#DejaVuSans-2e"/>
       <use x="95.410156" xlink:href="#DejaVuSans-34"/>
      </g>
     </g>
    </g>
    <g id="ytick_9">
     <g id="line2d_24">
      <g>
       <use style="stroke:#000000;stroke-width:0.8;" x="43.78125" xlink:href="#m239faff159" y="930.723084"/>
      </g>
     </g>
     <g id="text_27">
      <!-- 0.6 -->
      <g transform="translate(20.878125 934.522302)scale(0.1 -0.1)">
       <use xlink:href="#DejaVuSans-30"/>
       <use x="63.623047" xlink:href="#DejaVuSans-2e"/>
       <use x="95.410156" xlink:href="#DejaVuSans-36"/>
      </g>
     </g>
    </g>
    <g id="ytick_10">
     <g id="line2d_25">
      <g>
       <use style="stroke:#000000;stroke-width:0.8;" x="43.78125" xlink:href="#m239faff159" y="828.078456"/>
      </g>
     </g>
     <g id="text_28">
      <!-- 0.8 -->
      <g transform="translate(20.878125 831.877674)scale(0.1 -0.1)">
       <use xlink:href="#DejaVuSans-30"/>
       <use x="63.623047" xlink:href="#DejaVuSans-2e"/>
       <use x="95.410156" xlink:href="#DejaVuSans-38"/>
      </g>
     </g>
    </g>
    <g id="ytick_11">
     <g id="line2d_26">
      <g>
       <use style="stroke:#000000;stroke-width:0.8;" x="43.78125" xlink:href="#m239faff159" y="725.433827"/>
      </g>
     </g>
     <g id="text_29">
      <!-- 1.0 -->
      <g transform="translate(20.878125 729.233046)scale(0.1 -0.1)">
       <use xlink:href="#DejaVuSans-31"/>
       <use x="63.623047" xlink:href="#DejaVuSans-2e"/>
       <use x="95.410156" xlink:href="#DejaVuSans-30"/>
      </g>
     </g>
    </g>
    <g id="text_30">
     <!-- GCaMP -->
     <g transform="translate(14.798437 999.803991)rotate(-90)scale(0.1 -0.1)">
      <use xlink:href="#DejaVuSans-47"/>
      <use x="77.490234" xlink:href="#DejaVuSans-43"/>
      <use x="147.314453" xlink:href="#DejaVuSans-61"/>
      <use x="208.59375" xlink:href="#DejaVuSans-4d"/>
      <use x="294.873047" xlink:href="#DejaVuSans-50"/>
     </g>
    </g>
   </g>
   <g id="line2d_27">
    <path clip-path="url(#pbc27e25f91)" d="M 119.872159 1238.656968 
L 133.492989 1238.656968 
L 134.731246 725.433827 
L 409.62436 725.433827 
L 410.862617 1238.656968 
L 1641.690341 1238.656968 
L 1641.690341 1238.656968 
" style="fill:none;stroke:#008000;stroke-linecap:square;stroke-width:1.5;"/>
   </g>
   <g id="patch_8">
    <path d="M 43.78125 1264.318125 
L 43.78125 699.77267 
" style="fill:none;stroke:#000000;stroke-linecap:square;stroke-linejoin:miter;stroke-width:0.8;"/>
   </g>
   <g id="patch_9">
    <path d="M 1717.78125 1264.318125 
L 1717.78125 699.77267 
" style="fill:none;stroke:#000000;stroke-linecap:square;stroke-linejoin:miter;stroke-width:0.8;"/>
   </g>
   <g id="patch_10">
    <path d="M 43.78125 1264.318125 
L 1717.78125 1264.318125 
" style="fill:none;stroke:#000000;stroke-linecap:square;stroke-linejoin:miter;stroke-width:0.8;"/>
   </g>
   <g id="patch_11">
    <path d="M 43.78125 699.77267 
L 1717.78125 699.77267 
" style="fill:none;stroke:#000000;stroke-linecap:square;stroke-linejoin:miter;stroke-width:0.8;"/>
   </g>
   <g id="text_31">
    <!-- before binarisation -->
    <g transform="translate(824.1825 693.77267)scale(0.12 -0.12)">
     <use xlink:href="#DejaVuSans-62"/>
     <use x="63.476562" xlink:href="#DejaVuSans-65"/>
     <use x="125" xlink:href="#DejaVuSans-66"/>
     <use x="160.205078" xlink:href="#DejaVuSans-6f"/>
     <use x="221.386719" xlink:href="#DejaVuSans-72"/>
     <use x="260.25" xlink:href="#DejaVuSans-65"/>
     <use x="321.773438" xlink:href="#DejaVuSans-20"/>
     <use x="353.560547" xlink:href="#DejaVuSans-62"/>
     <use x="417.037109" xlink:href="#DejaVuSans-69"/>
     <use x="444.820312" xlink:href="#DejaVuSans-6e"/>
     <use x="508.199219" xlink:href="#DejaVuSans-61"/>
     <use x="569.478516" xlink:href="#DejaVuSans-72"/>
     <use x="610.591797" xlink:href="#DejaVuSans-69"/>
     <use x="638.375" xlink:href="#DejaVuSans-73"/>
     <use x="690.474609" xlink:href="#DejaVuSans-61"/>
     <use x="751.753906" xlink:href="#DejaVuSans-74"/>
     <use x="790.962891" xlink:href="#DejaVuSans-69"/>
     <use x="818.746094" xlink:href="#DejaVuSans-6f"/>
     <use x="879.927734" xlink:href="#DejaVuSans-6e"/>
    </g>
   </g>
  </g>
 </g>
 <defs>
  <clipPath id="p13f055fe68">
   <rect height="564.545455" width="1674" x="43.78125" y="22.318125"/>
  </clipPath>
  <clipPath id="pbc27e25f91">
   <rect height="564.545455" width="1674" x="43.78125" y="699.77267"/>
  </clipPath>
 </defs>
</svg>
