<?xml version="1.0" encoding="utf-8" standalone="no"?>
<!DOCTYPE svg PUBLIC "-//W3C//DTD SVG 1.1//EN"
  "http://www.w3.org/Graphics/SVG/1.1/DTD/svg11.dtd">
<svg height="1301.874375pt" version="1.1" viewBox="0 0 1724.98125 1301.874375" width="1724.98125pt" xmlns="http://www.w3.org/2000/svg" xmlns:xlink="http://www.w3.org/1999/xlink">
 <metadata>
  <rdf:RDF xmlns:cc="http://creativecommons.org/ns#" xmlns:dc="http://purl.org/dc/elements/1.1/" xmlns:rdf="http://www.w3.org/1999/02/22-rdf-syntax-ns#">
   <cc:Work>
    <dc:type rdf:resource="http://purl.org/dc/dcmitype/StillImage"/>
    <dc:date>2022-07-24T15:54:40.502142</dc:date>
    <dc:format>image/svg+xml</dc:format>
    <dc:creator>
     <cc:Agent>
      <dc:title>Matplotlib v3.4.2, https://matplotlib.org/</dc:title>
     </cc:Agent>
    </dc:creator>
   </cc:Work>
  </rdf:RDF>
 </metadata>
 <defs>
  <style type="text/css">*{stroke-linecap:butt;stroke-linejoin:round;}</style>
 </defs>
 <g id="figure_1">
  <g id="patch_1">
   <path d="M 0 1301.874375 
L 1724.98125 1301.874375 
L 1724.98125 0 
L 0 0 
z
" style="fill:#ffffff;"/>
  </g>
  <g id="axes_1">
   <g id="patch_2">
    <path d="M 43.78125 586.86358 
L 1717.78125 586.86358 
L 1717.78125 22.318125 
L 43.78125 22.318125 
z
" style="fill:#ffffff;"/>
   </g>
   <g id="matplotlib.axis_1">
    <g id="xtick_1">
     <g id="line2d_1">
      <defs>
       <path d="M 0 0 
L 0 3.5 
" id="md15ff9d9c5" style="stroke:#000000;stroke-width:0.8;"/>
      </defs>
      <g>
       <use style="stroke:#000000;stroke-width:0.8;" x="119.872159" xlink:href="#md15ff9d9c5" y="586.86358"/>
      </g>
     </g>
     <g id="text_1">
      <!-- 0 -->
      <g transform="translate(116.690909 601.462017)scale(0.1 -0.1)">
       <defs>
        <path d="M 2034 4250 
Q 1547 4250 1301 3770 
Q 1056 3291 1056 2328 
Q 1056 1369 1301 889 
Q 1547 409 2034 409 
Q 2525 409 2770 889 
Q 3016 1369 3016 2328 
Q 3016 3291 2770 3770 
Q 2525 4250 2034 4250 
z
M 2034 4750 
Q 2819 4750 3233 4129 
Q 3647 3509 3647 2328 
Q 3647 1150 3233 529 
Q 2819 -91 2034 -91 
Q 1250 -91 836 529 
Q 422 1150 422 2328 
Q 422 3509 836 4129 
Q 1250 4750 2034 4750 
z
" id="DejaVuSans-30" transform="scale(0.015625)"/>
       </defs>
       <use xlink:href="#DejaVuSans-30"/>
      </g>
     </g>
    </g>
    <g id="xtick_2">
     <g id="line2d_2">
      <g>
       <use style="stroke:#000000;stroke-width:0.8;" x="367.523613" xlink:href="#md15ff9d9c5" y="586.86358"/>
      </g>
     </g>
     <g id="text_2">
      <!-- 200 -->
      <g transform="translate(357.979863 601.462017)scale(0.1 -0.1)">
       <defs>
        <path d="M 1228 531 
L 3431 531 
L 3431 0 
L 469 0 
L 469 531 
Q 828 903 1448 1529 
Q 2069 2156 2228 2338 
Q 2531 2678 2651 2914 
Q 2772 3150 2772 3378 
Q 2772 3750 2511 3984 
Q 2250 4219 1831 4219 
Q 1534 4219 1204 4116 
Q 875 4013 500 3803 
L 500 4441 
Q 881 4594 1212 4672 
Q 1544 4750 1819 4750 
Q 2544 4750 2975 4387 
Q 3406 4025 3406 3419 
Q 3406 3131 3298 2873 
Q 3191 2616 2906 2266 
Q 2828 2175 2409 1742 
Q 1991 1309 1228 531 
z
" id="DejaVuSans-32" transform="scale(0.015625)"/>
       </defs>
       <use xlink:href="#DejaVuSans-32"/>
       <use x="63.623047" xlink:href="#DejaVuSans-30"/>
       <use x="127.246094" xlink:href="#DejaVuSans-30"/>
      </g>
     </g>
    </g>
    <g id="xtick_3">
     <g id="line2d_3">
      <g>
       <use style="stroke:#000000;stroke-width:0.8;" x="615.175066" xlink:href="#md15ff9d9c5" y="586.86358"/>
      </g>
     </g>
     <g id="text_3">
      <!-- 400 -->
      <g transform="translate(605.631316 601.462017)scale(0.1 -0.1)">
       <defs>
        <path d="M 2419 4116 
L 825 1625 
L 2419 1625 
L 2419 4116 
z
M 2253 4666 
L 3047 4666 
L 3047 1625 
L 3713 1625 
L 3713 1100 
L 3047 1100 
L 3047 0 
L 2419 0 
L 2419 1100 
L 313 1100 
L 313 1709 
L 2253 4666 
z
" id="DejaVuSans-34" transform="scale(0.015625)"/>
       </defs>
       <use xlink:href="#DejaVuSans-34"/>
       <use x="63.623047" xlink:href="#DejaVuSans-30"/>
       <use x="127.246094" xlink:href="#DejaVuSans-30"/>
      </g>
     </g>
    </g>
    <g id="xtick_4">
     <g id="line2d_4">
      <g>
       <use style="stroke:#000000;stroke-width:0.8;" x="862.82652" xlink:href="#md15ff9d9c5" y="586.86358"/>
      </g>
     </g>
     <g id="text_4">
      <!-- 600 -->
      <g transform="translate(853.28277 601.462017)scale(0.1 -0.1)">
       <defs>
        <path d="M 2113 2584 
Q 1688 2584 1439 2293 
Q 1191 2003 1191 1497 
Q 1191 994 1439 701 
Q 1688 409 2113 409 
Q 2538 409 2786 701 
Q 3034 994 3034 1497 
Q 3034 2003 2786 2293 
Q 2538 2584 2113 2584 
z
M 3366 4563 
L 3366 3988 
Q 3128 4100 2886 4159 
Q 2644 4219 2406 4219 
Q 1781 4219 1451 3797 
Q 1122 3375 1075 2522 
Q 1259 2794 1537 2939 
Q 1816 3084 2150 3084 
Q 2853 3084 3261 2657 
Q 3669 2231 3669 1497 
Q 3669 778 3244 343 
Q 2819 -91 2113 -91 
Q 1303 -91 875 529 
Q 447 1150 447 2328 
Q 447 3434 972 4092 
Q 1497 4750 2381 4750 
Q 2619 4750 2861 4703 
Q 3103 4656 3366 4563 
z
" id="DejaVuSans-36" transform="scale(0.015625)"/>
       </defs>
       <use xlink:href="#DejaVuSans-36"/>
       <use x="63.623047" xlink:href="#DejaVuSans-30"/>
       <use x="127.246094" xlink:href="#DejaVuSans-30"/>
      </g>
     </g>
    </g>
    <g id="xtick_5">
     <g id="line2d_5">
      <g>
       <use style="stroke:#000000;stroke-width:0.8;" x="1110.477973" xlink:href="#md15ff9d9c5" y="586.86358"/>
      </g>
     </g>
     <g id="text_5">
      <!-- 800 -->
      <g transform="translate(1100.934223 601.462017)scale(0.1 -0.1)">
       <defs>
        <path d="M 2034 2216 
Q 1584 2216 1326 1975 
Q 1069 1734 1069 1313 
Q 1069 891 1326 650 
Q 1584 409 2034 409 
Q 2484 409 2743 651 
Q 3003 894 3003 1313 
Q 3003 1734 2745 1975 
Q 2488 2216 2034 2216 
z
M 1403 2484 
Q 997 2584 770 2862 
Q 544 3141 544 3541 
Q 544 4100 942 4425 
Q 1341 4750 2034 4750 
Q 2731 4750 3128 4425 
Q 3525 4100 3525 3541 
Q 3525 3141 3298 2862 
Q 3072 2584 2669 2484 
Q 3125 2378 3379 2068 
Q 3634 1759 3634 1313 
Q 3634 634 3220 271 
Q 2806 -91 2034 -91 
Q 1263 -91 848 271 
Q 434 634 434 1313 
Q 434 1759 690 2068 
Q 947 2378 1403 2484 
z
M 1172 3481 
Q 1172 3119 1398 2916 
Q 1625 2713 2034 2713 
Q 2441 2713 2670 2916 
Q 2900 3119 2900 3481 
Q 2900 3844 2670 4047 
Q 2441 4250 2034 4250 
Q 1625 4250 1398 4047 
Q 1172 3844 1172 3481 
z
" id="DejaVuSans-38" transform="scale(0.015625)"/>
       </defs>
       <use xlink:href="#DejaVuSans-38"/>
       <use x="63.623047" xlink:href="#DejaVuSans-30"/>
       <use x="127.246094" xlink:href="#DejaVuSans-30"/>
      </g>
     </g>
    </g>
    <g id="xtick_6">
     <g id="line2d_6">
      <g>
       <use style="stroke:#000000;stroke-width:0.8;" x="1358.129427" xlink:href="#md15ff9d9c5" y="586.86358"/>
      </g>
     </g>
     <g id="text_6">
      <!-- 1000 -->
      <g transform="translate(1345.404427 601.462017)scale(0.1 -0.1)">
       <defs>
        <path d="M 794 531 
L 1825 531 
L 1825 4091 
L 703 3866 
L 703 4441 
L 1819 4666 
L 2450 4666 
L 2450 531 
L 3481 531 
L 3481 0 
L 794 0 
L 794 531 
z
" id="DejaVuSans-31" transform="scale(0.015625)"/>
       </defs>
       <use xlink:href="#DejaVuSans-31"/>
       <use x="63.623047" xlink:href="#DejaVuSans-30"/>
       <use x="127.246094" xlink:href="#DejaVuSans-30"/>
       <use x="190.869141" xlink:href="#DejaVuSans-30"/>
      </g>
     </g>
    </g>
    <g id="xtick_7">
     <g id="line2d_7">
      <g>
       <use style="stroke:#000000;stroke-width:0.8;" x="1605.78088" xlink:href="#md15ff9d9c5" y="586.86358"/>
      </g>
     </g>
     <g id="text_7">
      <!-- 1200 -->
      <g transform="translate(1593.05588 601.462017)scale(0.1 -0.1)">
       <use xlink:href="#DejaVuSans-31"/>
       <use x="63.623047" xlink:href="#DejaVuSans-32"/>
       <use x="127.246094" xlink:href="#DejaVuSans-30"/>
       <use x="190.869141" xlink:href="#DejaVuSans-30"/>
      </g>
     </g>
    </g>
    <g id="text_8">
     <!-- frame -->
     <g transform="translate(865.954687 615.140142)scale(0.1 -0.1)">
      <defs>
       <path d="M 2375 4863 
L 2375 4384 
L 1825 4384 
Q 1516 4384 1395 4259 
Q 1275 4134 1275 3809 
L 1275 3500 
L 2222 3500 
L 2222 3053 
L 1275 3053 
L 1275 0 
L 697 0 
L 697 3053 
L 147 3053 
L 147 3500 
L 697 3500 
L 697 3744 
Q 697 4328 969 4595 
Q 1241 4863 1831 4863 
L 2375 4863 
z
" id="DejaVuSans-66" transform="scale(0.015625)"/>
       <path d="M 2631 2963 
Q 2534 3019 2420 3045 
Q 2306 3072 2169 3072 
Q 1681 3072 1420 2755 
Q 1159 2438 1159 1844 
L 1159 0 
L 581 0 
L 581 3500 
L 1159 3500 
L 1159 2956 
Q 1341 3275 1631 3429 
Q 1922 3584 2338 3584 
Q 2397 3584 2469 3576 
Q 2541 3569 2628 3553 
L 2631 2963 
z
" id="DejaVuSans-72" transform="scale(0.015625)"/>
       <path d="M 2194 1759 
Q 1497 1759 1228 1600 
Q 959 1441 959 1056 
Q 959 750 1161 570 
Q 1363 391 1709 391 
Q 2188 391 2477 730 
Q 2766 1069 2766 1631 
L 2766 1759 
L 2194 1759 
z
M 3341 1997 
L 3341 0 
L 2766 0 
L 2766 531 
Q 2569 213 2275 61 
Q 1981 -91 1556 -91 
Q 1019 -91 701 211 
Q 384 513 384 1019 
Q 384 1609 779 1909 
Q 1175 2209 1959 2209 
L 2766 2209 
L 2766 2266 
Q 2766 2663 2505 2880 
Q 2244 3097 1772 3097 
Q 1472 3097 1187 3025 
Q 903 2953 641 2809 
L 641 3341 
Q 956 3463 1253 3523 
Q 1550 3584 1831 3584 
Q 2591 3584 2966 3190 
Q 3341 2797 3341 1997 
z
" id="DejaVuSans-61" transform="scale(0.015625)"/>
       <path d="M 3328 2828 
Q 3544 3216 3844 3400 
Q 4144 3584 4550 3584 
Q 5097 3584 5394 3201 
Q 5691 2819 5691 2113 
L 5691 0 
L 5113 0 
L 5113 2094 
Q 5113 2597 4934 2840 
Q 4756 3084 4391 3084 
Q 3944 3084 3684 2787 
Q 3425 2491 3425 1978 
L 3425 0 
L 2847 0 
L 2847 2094 
Q 2847 2600 2669 2842 
Q 2491 3084 2119 3084 
Q 1678 3084 1418 2786 
Q 1159 2488 1159 1978 
L 1159 0 
L 581 0 
L 581 3500 
L 1159 3500 
L 1159 2956 
Q 1356 3278 1631 3431 
Q 1906 3584 2284 3584 
Q 2666 3584 2933 3390 
Q 3200 3197 3328 2828 
z
" id="DejaVuSans-6d" transform="scale(0.015625)"/>
       <path d="M 3597 1894 
L 3597 1613 
L 953 1613 
Q 991 1019 1311 708 
Q 1631 397 2203 397 
Q 2534 397 2845 478 
Q 3156 559 3463 722 
L 3463 178 
Q 3153 47 2828 -22 
Q 2503 -91 2169 -91 
Q 1331 -91 842 396 
Q 353 884 353 1716 
Q 353 2575 817 3079 
Q 1281 3584 2069 3584 
Q 2775 3584 3186 3129 
Q 3597 2675 3597 1894 
z
M 3022 2063 
Q 3016 2534 2758 2815 
Q 2500 3097 2075 3097 
Q 1594 3097 1305 2825 
Q 1016 2553 972 2059 
L 3022 2063 
z
" id="DejaVuSans-65" transform="scale(0.015625)"/>
      </defs>
      <use xlink:href="#DejaVuSans-66"/>
      <use x="35.205078" xlink:href="#DejaVuSans-72"/>
      <use x="76.318359" xlink:href="#DejaVuSans-61"/>
      <use x="137.597656" xlink:href="#DejaVuSans-6d"/>
      <use x="235.009766" xlink:href="#DejaVuSans-65"/>
     </g>
    </g>
   </g>
   <g id="matplotlib.axis_2">
    <g id="ytick_1">
     <g id="line2d_8">
      <defs>
       <path d="M 0 0 
L -3.5 0 
" id="m9fc1441aef" style="stroke:#000000;stroke-width:0.8;"/>
      </defs>
      <g>
       <use style="stroke:#000000;stroke-width:0.8;" x="43.78125" xlink:href="#m9fc1441aef" y="525.136685"/>
      </g>
     </g>
     <g id="text_9">
      <!-- 2 -->
      <g transform="translate(30.41875 528.935904)scale(0.1 -0.1)">
       <use xlink:href="#DejaVuSans-32"/>
      </g>
     </g>
    </g>
    <g id="ytick_2">
     <g id="line2d_9">
      <g>
       <use style="stroke:#000000;stroke-width:0.8;" x="43.78125" xlink:href="#m9fc1441aef" y="422.561051"/>
      </g>
     </g>
     <g id="text_10">
      <!-- 3 -->
      <g transform="translate(30.41875 426.36027)scale(0.1 -0.1)">
       <defs>
        <path d="M 2597 2516 
Q 3050 2419 3304 2112 
Q 3559 1806 3559 1356 
Q 3559 666 3084 287 
Q 2609 -91 1734 -91 
Q 1441 -91 1130 -33 
Q 819 25 488 141 
L 488 750 
Q 750 597 1062 519 
Q 1375 441 1716 441 
Q 2309 441 2620 675 
Q 2931 909 2931 1356 
Q 2931 1769 2642 2001 
Q 2353 2234 1838 2234 
L 1294 2234 
L 1294 2753 
L 1863 2753 
Q 2328 2753 2575 2939 
Q 2822 3125 2822 3475 
Q 2822 3834 2567 4026 
Q 2313 4219 1838 4219 
Q 1578 4219 1281 4162 
Q 984 4106 628 3988 
L 628 4550 
Q 988 4650 1302 4700 
Q 1616 4750 1894 4750 
Q 2613 4750 3031 4423 
Q 3450 4097 3450 3541 
Q 3450 3153 3228 2886 
Q 3006 2619 2597 2516 
z
" id="DejaVuSans-33" transform="scale(0.015625)"/>
       </defs>
       <use xlink:href="#DejaVuSans-33"/>
      </g>
     </g>
    </g>
    <g id="ytick_3">
     <g id="line2d_10">
      <g>
       <use style="stroke:#000000;stroke-width:0.8;" x="43.78125" xlink:href="#m9fc1441aef" y="319.985417"/>
      </g>
     </g>
     <g id="text_11">
      <!-- 4 -->
      <g transform="translate(30.41875 323.784635)scale(0.1 -0.1)">
       <use xlink:href="#DejaVuSans-34"/>
      </g>
     </g>
    </g>
    <g id="ytick_4">
     <g id="line2d_11">
      <g>
       <use style="stroke:#000000;stroke-width:0.8;" x="43.78125" xlink:href="#m9fc1441aef" y="217.409782"/>
      </g>
     </g>
     <g id="text_12">
      <!-- 5 -->
      <g transform="translate(30.41875 221.209001)scale(0.1 -0.1)">
       <defs>
        <path d="M 691 4666 
L 3169 4666 
L 3169 4134 
L 1269 4134 
L 1269 2991 
Q 1406 3038 1543 3061 
Q 1681 3084 1819 3084 
Q 2600 3084 3056 2656 
Q 3513 2228 3513 1497 
Q 3513 744 3044 326 
Q 2575 -91 1722 -91 
Q 1428 -91 1123 -41 
Q 819 9 494 109 
L 494 744 
Q 775 591 1075 516 
Q 1375 441 1709 441 
Q 2250 441 2565 725 
Q 2881 1009 2881 1497 
Q 2881 1984 2565 2268 
Q 2250 2553 1709 2553 
Q 1456 2553 1204 2497 
Q 953 2441 691 2322 
L 691 4666 
z
" id="DejaVuSans-35" transform="scale(0.015625)"/>
       </defs>
       <use xlink:href="#DejaVuSans-35"/>
      </g>
     </g>
    </g>
    <g id="ytick_5">
     <g id="line2d_12">
      <g>
       <use style="stroke:#000000;stroke-width:0.8;" x="43.78125" xlink:href="#m9fc1441aef" y="114.834148"/>
      </g>
     </g>
     <g id="text_13">
      <!-- 6 -->
      <g transform="translate(30.41875 118.633367)scale(0.1 -0.1)">
       <use xlink:href="#DejaVuSans-36"/>
      </g>
     </g>
    </g>
    <g id="text_14">
     <!-- GCaMP -->
     <g transform="translate(24.339062 322.349446)rotate(-90)scale(0.1 -0.1)">
      <defs>
       <path d="M 3809 666 
L 3809 1919 
L 2778 1919 
L 2778 2438 
L 4434 2438 
L 4434 434 
Q 4069 175 3628 42 
Q 3188 -91 2688 -91 
Q 1594 -91 976 548 
Q 359 1188 359 2328 
Q 359 3472 976 4111 
Q 1594 4750 2688 4750 
Q 3144 4750 3555 4637 
Q 3966 4525 4313 4306 
L 4313 3634 
Q 3963 3931 3569 4081 
Q 3175 4231 2741 4231 
Q 1884 4231 1454 3753 
Q 1025 3275 1025 2328 
Q 1025 1384 1454 906 
Q 1884 428 2741 428 
Q 3075 428 3337 486 
Q 3600 544 3809 666 
z
" id="DejaVuSans-47" transform="scale(0.015625)"/>
       <path d="M 4122 4306 
L 4122 3641 
Q 3803 3938 3442 4084 
Q 3081 4231 2675 4231 
Q 1875 4231 1450 3742 
Q 1025 3253 1025 2328 
Q 1025 1406 1450 917 
Q 1875 428 2675 428 
Q 3081 428 3442 575 
Q 3803 722 4122 1019 
L 4122 359 
Q 3791 134 3420 21 
Q 3050 -91 2638 -91 
Q 1578 -91 968 557 
Q 359 1206 359 2328 
Q 359 3453 968 4101 
Q 1578 4750 2638 4750 
Q 3056 4750 3426 4639 
Q 3797 4528 4122 4306 
z
" id="DejaVuSans-43" transform="scale(0.015625)"/>
       <path d="M 628 4666 
L 1569 4666 
L 2759 1491 
L 3956 4666 
L 4897 4666 
L 4897 0 
L 4281 0 
L 4281 4097 
L 3078 897 
L 2444 897 
L 1241 4097 
L 1241 0 
L 628 0 
L 628 4666 
z
" id="DejaVuSans-4d" transform="scale(0.015625)"/>
       <path d="M 1259 4147 
L 1259 2394 
L 2053 2394 
Q 2494 2394 2734 2622 
Q 2975 2850 2975 3272 
Q 2975 3691 2734 3919 
Q 2494 4147 2053 4147 
L 1259 4147 
z
M 628 4666 
L 2053 4666 
Q 2838 4666 3239 4311 
Q 3641 3956 3641 3272 
Q 3641 2581 3239 2228 
Q 2838 1875 2053 1875 
L 1259 1875 
L 1259 0 
L 628 0 
L 628 4666 
z
" id="DejaVuSans-50" transform="scale(0.015625)"/>
      </defs>
      <use xlink:href="#DejaVuSans-47"/>
      <use x="77.490234" xlink:href="#DejaVuSans-43"/>
      <use x="147.314453" xlink:href="#DejaVuSans-61"/>
      <use x="208.59375" xlink:href="#DejaVuSans-4d"/>
      <use x="294.873047" xlink:href="#DejaVuSans-50"/>
     </g>
    </g>
   </g>
   <g id="line2d_13">
    <path clip-path="url(#p498f69af3f)" d="M 119.872159 418.04299 
L 122.348674 383.831254 
L 124.825188 355.805993 
L 128.53996 316.997218 
L 132.254732 281.34919 
L 133.492989 266.92526 
L 134.731246 250.128445 
L 138.446018 196.106262 
L 139.684275 181.895219 
L 140.922533 171.648623 
L 142.16079 164.774635 
L 145.875562 149.552587 
L 147.113819 142.640462 
L 149.590334 126.044702 
L 153.305105 99.781962 
L 154.543363 92.703539 
L 155.78162 87.332708 
L 157.019877 83.449973 
L 158.258134 80.686568 
L 159.496392 78.226582 
L 160.734649 74.724506 
L 161.972906 69.033767 
L 164.449421 54.034645 
L 165.687678 49.157446 
L 166.925935 47.979282 
L 168.164193 50.409469 
L 169.40245 55.489451 
L 170.640707 61.48669 
L 171.878964 66.639867 
L 173.117222 70.183916 
L 174.355479 72.125515 
L 175.593736 72.510286 
L 178.070251 70.776621 
L 179.308508 70.805366 
L 180.546765 71.885456 
L 181.785022 73.320503 
L 183.02328 74.504313 
L 184.261537 74.96476 
L 185.499794 74.208226 
L 187.976309 70.674028 
L 189.214566 69.658505 
L 190.452823 69.388197 
L 192.929338 69.341767 
L 194.167595 69.431519 
L 195.405852 69.006485 
L 196.64411 67.228918 
L 197.882367 64.679978 
L 199.120624 63.181316 
L 200.358881 63.916943 
L 201.597139 66.560326 
L 202.835396 70.024388 
L 204.073653 73.041159 
L 205.311911 74.587493 
L 206.550168 74.771519 
L 207.788425 74.229738 
L 209.026682 72.353999 
L 210.26494 68.001425 
L 211.503197 62.019348 
L 212.741454 57.093568 
L 213.979711 55.132754 
L 215.217969 56.394862 
L 216.456226 60.549782 
L 218.93274 72.783388 
L 220.170998 77.529148 
L 222.647512 84.689824 
L 223.88577 88.966592 
L 225.124027 94.581998 
L 226.362284 101.772878 
L 228.838799 118.458128 
L 230.077056 125.032329 
L 231.315313 129.170114 
L 232.55357 131.751889 
L 233.791828 133.850648 
L 236.268342 137.348433 
L 237.5066 139.781866 
L 238.744857 143.639393 
L 239.983114 148.033935 
L 241.221371 151.263653 
L 242.459629 152.444772 
L 244.936143 151.87441 
L 246.1744 153.073395 
L 247.412658 157.177403 
L 248.650915 164.613224 
L 251.127429 182.824025 
L 252.365687 188.509958 
L 253.603944 189.694047 
L 254.842201 187.10817 
L 258.556973 174.562615 
L 261.033488 167.765351 
L 262.271745 163.336664 
L 263.510002 157.175281 
L 264.748259 150.405697 
L 265.986517 145.311254 
L 267.224774 143.648988 
L 268.463031 145.835729 
L 269.701288 151.115198 
L 270.939546 158.2399 
L 272.177803 166.480226 
L 274.654318 184.418642 
L 275.892575 191.919692 
L 277.130832 196.619688 
L 278.369089 197.86133 
L 279.607347 196.756296 
L 280.845604 195.458112 
L 282.083861 195.259654 
L 283.322118 196.229373 
L 285.798633 199.46847 
L 288.275147 202.142187 
L 289.513405 204.379234 
L 290.751662 207.57986 
L 293.228177 214.559443 
L 294.466434 216.940525 
L 295.704691 218.19151 
L 296.942948 218.878394 
L 298.181206 220.332558 
L 299.419463 223.998078 
L 300.65772 230.239451 
L 303.134235 245.611274 
L 306.849006 266.864451 
L 309.325521 282.155169 
L 314.27855 310.55652 
L 315.516807 316.757944 
L 317.993322 327.163367 
L 319.231579 332.382886 
L 320.469836 338.399728 
L 322.946351 353.049045 
L 324.184608 360.262483 
L 325.422866 366.221427 
L 327.89938 376.474296 
L 330.375895 388.081377 
L 331.614152 392.16921 
L 332.852409 394.675735 
L 334.090666 396.039193 
L 335.328924 396.642539 
L 336.567181 397.046354 
L 339.043695 398.384091 
L 340.281953 398.75023 
L 343.996725 399.051975 
L 345.234982 399.780817 
L 346.473239 401.427699 
L 350.188011 408.711027 
L 351.426268 410.017359 
L 352.664525 410.642 
L 353.902783 410.618396 
L 355.14104 409.973713 
L 356.379297 408.973914 
L 357.617554 408.176147 
L 358.855812 408.374794 
L 360.094069 410.216141 
L 361.332326 413.860532 
L 362.570584 419.182249 
L 365.047098 432.098918 
L 366.285355 437.664388 
L 367.523613 442.282011 
L 370.000127 450.352354 
L 371.238384 454.964189 
L 372.476642 460.776526 
L 374.953156 474.400545 
L 376.191413 480.293148 
L 377.429671 484.420755 
L 378.667928 486.544668 
L 379.906185 487.146605 
L 381.144443 486.978595 
L 382.3827 486.489156 
L 383.620957 485.661983 
L 384.859214 484.345659 
L 386.097472 482.480292 
L 389.812243 475.42266 
L 391.050501 473.958219 
L 392.288758 473.219755 
L 393.527015 473.124022 
L 394.765272 473.508218 
L 396.00353 474.254474 
L 398.480044 476.125393 
L 399.718302 476.618943 
L 400.956559 476.702564 
L 403.433073 476.300984 
L 405.909588 475.859527 
L 407.147845 476.037024 
L 408.386102 476.939797 
L 409.62436 478.541174 
L 413.339132 484.272661 
L 414.577389 485.491491 
L 415.815646 485.522755 
L 417.053903 484.264047 
L 418.292161 482.401765 
L 419.530418 480.807292 
L 420.768675 479.766736 
L 422.006932 479.24228 
L 423.24519 479.471987 
L 424.483447 480.607209 
L 426.959961 483.733959 
L 428.198219 484.811823 
L 429.436476 485.073488 
L 430.674733 484.130494 
L 431.912991 481.880884 
L 433.151248 478.47642 
L 434.389505 474.14172 
L 436.86602 464.797966 
L 438.104277 461.910158 
L 439.342534 461.39546 
L 440.580791 463.01194 
L 441.819049 465.841899 
L 446.772078 479.071309 
L 448.010335 481.548614 
L 449.248592 483.012361 
L 450.48685 482.706029 
L 451.725107 480.288148 
L 454.201621 471.727582 
L 455.439879 468.587735 
L 456.678136 467.548398 
L 457.916393 468.011592 
L 459.15465 468.715814 
L 460.392908 468.700787 
L 461.631165 467.708522 
L 462.869422 465.932422 
L 464.107679 463.569585 
L 466.584194 457.713686 
L 467.822451 455.414591 
L 469.060709 454.760447 
L 470.298966 456.413026 
L 471.537223 460.495178 
L 475.251995 478.424066 
L 476.490252 482.999041 
L 477.728509 486.562193 
L 478.966767 489.458586 
L 480.205024 491.871667 
L 485.158053 499.8762 
L 486.39631 501.316607 
L 487.634568 502.184641 
L 488.872825 502.331043 
L 490.111082 501.647024 
L 491.349339 500.578878 
L 492.587597 500.03139 
L 493.825854 500.544426 
L 495.064111 501.849631 
L 496.302368 503.38705 
L 497.540626 504.712018 
L 498.778883 505.419953 
L 500.01714 505.391312 
L 501.255397 505.108603 
L 502.493655 505.392131 
L 503.731912 506.768855 
L 504.970169 509.279098 
L 506.208427 512.770574 
L 509.923198 525.252176 
L 511.161456 528.521323 
L 512.399713 530.725799 
L 513.63797 531.872357 
L 514.876227 532.498932 
L 516.114485 533.253694 
L 519.829257 536.495241 
L 521.067514 536.807431 
L 522.305771 536.466166 
L 523.544028 535.295479 
L 524.782286 533.198068 
L 526.020543 530.638164 
L 527.2588 528.337559 
L 528.497057 526.662355 
L 529.735315 525.552253 
L 530.973572 524.820566 
L 532.211829 524.392298 
L 533.450086 524.25623 
L 534.688344 524.378082 
L 537.164858 525.093336 
L 539.641373 525.929901 
L 540.87963 526.578151 
L 545.832659 530.183181 
L 547.070916 531.370759 
L 549.547431 533.938127 
L 550.785688 534.603263 
L 552.023945 534.547092 
L 553.262203 533.748844 
L 554.50046 532.29814 
L 555.738717 530.561774 
L 556.976975 529.162314 
L 558.215232 528.692557 
L 559.453489 529.415653 
L 560.691746 531.214596 
L 561.930004 533.759162 
L 564.406518 539.112389 
L 565.644775 540.930557 
L 566.883033 541.574783 
L 568.12129 540.794543 
L 569.359547 538.994839 
L 570.597804 536.965068 
L 571.836062 535.300224 
L 573.074319 534.35061 
L 574.312576 534.22785 
L 575.550834 534.671014 
L 576.789091 535.26465 
L 578.027348 535.732217 
L 579.265605 535.813768 
L 580.503863 535.20437 
L 582.980377 532.681216 
L 584.218634 532.107808 
L 585.456892 532.67614 
L 586.695149 534.507738 
L 589.171663 540.078998 
L 590.409921 541.90715 
L 591.648178 541.945401 
L 592.886435 540.095595 
L 594.124693 537.210053 
L 595.36295 534.702001 
L 596.601207 533.565673 
L 597.839464 533.762216 
L 599.077722 534.69431 
L 601.554236 537.370762 
L 602.792493 538.676215 
L 604.030751 539.587709 
L 605.269008 540.203147 
L 606.507265 540.977019 
L 607.745523 542.183158 
L 608.98378 543.56166 
L 610.222037 544.464135 
L 611.460294 544.449062 
L 612.698552 543.841355 
L 613.936809 543.454315 
L 615.175066 543.852741 
L 616.413323 545.049308 
L 617.651581 546.58459 
L 618.889838 547.80982 
L 620.128095 548.359982 
L 621.366352 548.318116 
L 622.60461 547.757742 
L 623.842867 546.447188 
L 625.081124 544.270723 
L 626.319382 541.698903 
L 627.557639 539.669784 
L 628.795896 538.988146 
L 630.034153 539.775133 
L 632.510668 543.055897 
L 633.748925 544.051962 
L 634.987182 544.319917 
L 636.22544 544.209344 
L 637.463697 544.261369 
L 638.701954 544.921852 
L 639.940211 546.308067 
L 641.178469 548.06109 
L 642.416726 549.444227 
L 643.654983 549.904149 
L 646.131498 549.379218 
L 647.369755 549.944735 
L 649.84627 552.910315 
L 651.084527 553.480102 
L 652.322784 553.023317 
L 653.561041 552.44677 
L 654.799299 552.721318 
L 656.037556 554.286971 
L 658.51407 559.618285 
L 659.752328 561.202423 
L 660.990585 561.152666 
L 662.228842 559.664779 
L 663.4671 557.105629 
L 665.943614 551.222351 
L 667.181871 549.171689 
L 668.420129 547.888987 
L 669.658386 547.116971 
L 672.1349 545.886885 
L 673.373158 545.513444 
L 674.611415 545.701079 
L 675.849672 546.385905 
L 679.564444 549.040201 
L 680.802701 549.678146 
L 682.040959 549.844498 
L 683.279216 549.742133 
L 684.517473 549.810545 
L 685.75573 550.248722 
L 688.232245 551.560377 
L 689.470502 551.855582 
L 690.708759 551.85603 
L 691.947017 551.720004 
L 693.185274 551.440562 
L 694.423531 550.670909 
L 695.661789 548.744889 
L 696.900046 545.25049 
L 698.138303 540.487779 
L 700.614818 530.052 
L 701.853075 526.265877 
L 703.091332 524.667898 
L 704.329589 525.412314 
L 705.567847 527.911017 
L 708.044361 534.080804 
L 709.282618 536.432596 
L 710.520876 538.318878 
L 711.759133 539.734164 
L 712.99739 540.397471 
L 714.235648 540.131347 
L 715.473905 539.08191 
L 716.712162 537.6756 
L 717.950419 536.453202 
L 719.188677 535.81998 
L 720.426934 535.901979 
L 721.665191 536.598772 
L 722.903448 537.619508 
L 724.141706 538.443199 
L 725.379963 538.521046 
L 726.61822 537.6003 
L 727.856477 535.749965 
L 729.094735 533.42793 
L 730.332992 531.595995 
L 731.571249 531.106222 
L 732.809507 531.886328 
L 735.286021 534.314299 
L 736.524278 534.971214 
L 737.762536 534.516611 
L 739.000793 532.216901 
L 741.477307 523.867676 
L 742.715565 520.866311 
L 743.953822 519.784866 
L 745.192079 520.080838 
L 746.430336 521.185719 
L 747.668594 522.933849 
L 748.906851 524.965684 
L 750.145108 526.595886 
L 751.383366 527.368894 
L 753.85988 527.332304 
L 755.098137 527.938784 
L 756.336395 529.485094 
L 757.574652 531.461925 
L 758.812909 532.960573 
L 760.051166 533.352439 
L 761.289424 532.633455 
L 762.527681 531.332266 
L 763.765938 530.281108 
L 765.004195 530.104326 
L 766.242453 530.730282 
L 769.957225 533.793673 
L 771.195482 534.390747 
L 773.671996 534.653215 
L 774.910254 535.211638 
L 777.386768 536.812974 
L 778.625025 537.083877 
L 779.863283 536.88961 
L 781.10154 536.53858 
L 783.578054 536.119386 
L 784.816312 535.630584 
L 787.292826 533.992754 
L 788.531084 533.541721 
L 789.769341 533.348457 
L 791.007598 532.958789 
L 793.484113 531.335439 
L 794.72237 530.950316 
L 795.960627 530.923945 
L 797.198884 530.651098 
L 798.437142 529.434024 
L 799.675399 526.972186 
L 802.151914 520.72106 
L 803.390171 518.94178 
L 804.628428 518.788961 
L 805.866685 520.039468 
L 808.3432 524.218583 
L 809.581457 525.901994 
L 810.819714 526.554045 
L 812.057972 526.023544 
L 813.296229 524.964885 
L 814.534486 524.327634 
L 815.772743 524.557173 
L 818.249258 526.449641 
L 819.487515 527.020559 
L 820.725773 526.802124 
L 821.96403 525.924834 
L 823.202287 524.894193 
L 824.440544 524.169047 
L 825.678802 523.903668 
L 826.917059 523.873403 
L 828.155316 523.580685 
L 829.393573 522.654319 
L 830.631831 521.140917 
L 833.108345 517.690069 
L 834.346602 516.333892 
L 835.58486 515.496846 
L 836.823117 515.498654 
L 838.061374 516.794816 
L 839.299632 519.60542 
L 841.776146 527.082559 
L 843.014403 529.45535 
L 844.252661 530.246424 
L 845.490918 529.968356 
L 847.967432 528.870651 
L 851.682204 527.861899 
L 852.920461 527.418512 
L 854.158719 527.102419 
L 856.635233 526.941357 
L 857.873491 526.547959 
L 859.111748 525.766523 
L 860.350005 524.841403 
L 861.588262 524.096358 
L 862.82652 523.650643 
L 864.064777 523.339835 
L 865.303034 522.825431 
L 866.541291 521.826389 
L 867.779549 520.490995 
L 869.017806 519.429678 
L 870.256063 519.258058 
L 871.49432 520.041577 
L 872.732578 521.125674 
L 873.970835 521.675317 
L 875.209092 521.265109 
L 876.44735 519.969988 
L 877.685607 518.263234 
L 878.923864 516.777931 
L 880.162121 515.85034 
L 882.638636 514.587554 
L 883.876893 513.843867 
L 885.11515 513.332601 
L 886.353408 513.317424 
L 887.591665 513.878809 
L 888.829922 514.939405 
L 891.306437 517.54757 
L 892.544694 518.537371 
L 893.782951 519.276411 
L 895.021209 519.68256 
L 896.259466 519.268928 
L 897.497723 517.61076 
L 899.974238 512.365278 
L 901.212495 510.520571 
L 902.450752 509.95161 
L 903.689009 510.881327 
L 904.927267 513.124707 
L 906.165524 515.936855 
L 907.403781 518.132884 
L 908.642039 518.550886 
L 909.880296 516.695653 
L 911.118553 513.031476 
L 913.595068 504.719426 
L 914.833325 501.521063 
L 916.071582 499.13168 
L 917.309839 497.817898 
L 918.548097 498.004958 
L 919.786354 499.718331 
L 923.501126 507.933266 
L 924.739383 509.861979 
L 925.97764 510.672704 
L 927.215898 510.301927 
L 928.454155 508.884831 
L 929.692412 506.60551 
L 930.930669 503.97425 
L 932.168927 501.927522 
L 933.407184 501.217297 
L 934.645441 501.789001 
L 935.883698 502.865996 
L 937.121956 503.392175 
L 938.360213 502.511786 
L 939.59847 500.052015 
L 940.836727 496.7483 
L 942.074985 493.938226 
L 943.313242 492.773549 
L 944.551499 493.506187 
L 945.789757 495.499681 
L 947.028014 497.851156 
L 948.266271 499.872182 
L 949.504528 501.213089 
L 950.742786 501.915908 
L 951.981043 502.339033 
L 953.2193 502.894556 
L 954.457557 503.823889 
L 956.934072 506.282839 
L 958.172329 507.261453 
L 959.410586 507.905856 
L 960.648844 508.145912 
L 964.363616 507.842983 
L 965.601873 508.084609 
L 966.84013 508.537088 
L 969.316645 509.697407 
L 970.554902 509.851578 
L 971.793159 509.360702 
L 973.031416 508.476016 
L 974.269674 507.453012 
L 975.507931 506.188498 
L 976.746188 504.705898 
L 977.984446 503.530482 
L 979.222703 503.297541 
L 980.46096 504.235283 
L 981.699217 506.020587 
L 982.937475 508.00584 
L 984.175732 509.512233 
L 985.413989 509.978266 
L 986.652246 509.24261 
L 989.128761 506.403942 
L 991.605275 504.772118 
L 992.843533 503.374024 
L 994.08179 501.289129 
L 995.320047 499.535164 
L 996.558305 499.312509 
L 997.796562 500.782874 
L 1000.273076 505.31381 
L 1001.511334 506.989948 
L 1002.749591 507.788128 
L 1003.987848 507.307497 
L 1005.226105 505.257003 
L 1006.464363 501.840548 
L 1008.940877 494.166244 
L 1010.179134 491.575462 
L 1011.417392 490.315434 
L 1012.655649 490.077581 
L 1013.893906 489.998759 
L 1015.132164 489.215455 
L 1016.370421 487.501386 
L 1017.608678 485.174152 
L 1021.32345 477.494422 
L 1022.561707 475.541447 
L 1023.799964 474.284029 
L 1025.038222 473.793753 
L 1026.276479 473.9563 
L 1027.514736 474.514895 
L 1028.752993 474.913774 
L 1029.991251 474.295228 
L 1031.229508 472.162232 
L 1033.706023 465.87158 
L 1034.94428 463.830292 
L 1036.182537 462.684526 
L 1037.420794 461.299434 
L 1038.659052 458.820118 
L 1041.135566 452.548839 
L 1042.373823 450.234653 
L 1043.612081 448.62959 
L 1044.850338 447.94666 
L 1046.088595 448.729663 
L 1048.56511 452.959429 
L 1049.803367 453.896776 
L 1051.041624 453.23109 
L 1052.279882 451.067888 
L 1053.518139 447.732048 
L 1054.756396 443.957989 
L 1055.994653 440.732256 
L 1057.232911 438.752662 
L 1058.471168 438.183636 
L 1059.709425 438.773643 
L 1062.18594 441.035277 
L 1063.424197 441.660709 
L 1064.662454 441.91209 
L 1068.377226 442.333859 
L 1069.615483 442.001115 
L 1070.853741 440.942979 
L 1073.330255 437.456779 
L 1074.568512 436.636018 
L 1075.80677 437.463434 
L 1077.045027 439.606928 
L 1078.283284 442.123878 
L 1079.521541 444.347065 
L 1081.998056 447.85933 
L 1083.236313 449.295921 
L 1084.474571 449.774305 
L 1085.712828 448.716618 
L 1088.189342 444.440957 
L 1089.4276 443.189815 
L 1090.665857 443.156298 
L 1091.904114 444.146813 
L 1093.142371 445.802463 
L 1094.380629 448.0799 
L 1095.618886 451.150283 
L 1098.0954 458.087293 
L 1099.333658 460.171528 
L 1100.571915 460.931342 
L 1103.04843 461.227555 
L 1104.286687 462.201786 
L 1105.524944 464.278028 
L 1106.763201 466.972391 
L 1108.001459 469.267156 
L 1109.239716 470.42388 
L 1110.477973 470.284281 
L 1111.71623 469.241932 
L 1112.954488 468.349029 
L 1114.192745 469.001205 
L 1115.431002 471.89845 
L 1117.907517 480.837302 
L 1119.145774 484.229111 
L 1120.384031 486.030407 
L 1121.622289 486.321236 
L 1124.098803 485.002342 
L 1125.33706 484.823423 
L 1126.575318 485.019332 
L 1127.813575 484.967225 
L 1129.051832 484.104887 
L 1130.290089 482.246432 
L 1132.766604 476.984562 
L 1134.004861 474.875401 
L 1135.243118 473.508444 
L 1136.481376 472.549296 
L 1137.719633 471.813512 
L 1138.95789 471.56012 
L 1140.196148 471.963745 
L 1141.434405 472.695786 
L 1142.672662 473.037247 
L 1143.910919 472.352193 
L 1145.149177 470.818901 
L 1146.387434 469.583225 
L 1147.625691 469.787735 
L 1148.863948 471.342611 
L 1150.102206 472.684164 
L 1151.340463 472.145948 
L 1153.816977 467.137229 
L 1155.055235 466.179094 
L 1156.293492 467.097938 
L 1157.531749 468.691363 
L 1158.770007 469.620158 
L 1160.008264 469.619551 
L 1161.246521 469.412471 
L 1162.484778 469.523586 
L 1163.723036 469.767861 
L 1164.961293 469.843439 
L 1166.19955 469.591577 
L 1167.437807 468.681511 
L 1168.676065 466.758368 
L 1171.152579 461.215751 
L 1172.390837 459.565929 
L 1173.629094 459.624121 
L 1174.867351 461.056444 
L 1176.105608 463.206517 
L 1178.582123 468.485182 
L 1179.82038 471.241993 
L 1181.058637 473.688326 
L 1182.296895 475.44891 
L 1183.535152 476.273954 
L 1184.773409 476.176959 
L 1186.011666 475.363869 
L 1187.249924 474.337707 
L 1188.488181 473.824722 
L 1189.726438 474.21165 
L 1192.202953 476.42562 
L 1193.44121 477.025521 
L 1194.679467 476.435439 
L 1195.917725 474.458294 
L 1197.155982 471.869355 
L 1198.394239 470.109427 
L 1199.632496 470.234661 
L 1200.870754 472.303089 
L 1204.585525 482.100148 
L 1205.823783 483.442897 
L 1207.06204 483.122977 
L 1209.538555 480.519448 
L 1210.776812 480.033092 
L 1212.015069 480.634333 
L 1213.253326 482.098747 
L 1214.491584 483.872078 
L 1215.729841 485.154604 
L 1216.968098 485.44835 
L 1218.206355 485.204014 
L 1219.444613 485.286638 
L 1220.68287 485.847971 
L 1221.921127 486.182957 
L 1223.159384 485.511983 
L 1224.397642 483.717123 
L 1225.635899 481.519996 
L 1226.874156 479.929944 
L 1228.112414 479.437548 
L 1229.350671 479.82426 
L 1230.588928 480.622905 
L 1231.827185 481.612781 
L 1234.3037 484.03831 
L 1235.541957 484.640552 
L 1236.780214 484.362726 
L 1240.494986 482.247674 
L 1241.733243 481.163186 
L 1242.971501 479.634793 
L 1244.209758 478.298207 
L 1245.448015 477.642927 
L 1246.686273 477.388656 
L 1247.92453 476.876837 
L 1250.401044 474.913977 
L 1251.639302 474.808457 
L 1252.877559 475.660086 
L 1255.354073 478.344294 
L 1256.592331 479.018507 
L 1257.830588 478.732175 
L 1259.068845 477.721751 
L 1261.54536 475.089377 
L 1262.783617 473.265812 
L 1265.260132 468.582882 
L 1266.498389 466.868016 
L 1267.736646 466.109312 
L 1268.974903 466.385819 
L 1270.213161 467.576922 
L 1273.927932 473.028141 
L 1275.16619 473.993107 
L 1276.404447 474.535914 
L 1277.642704 475.307161 
L 1278.880962 476.462578 
L 1280.119219 477.320943 
L 1281.357476 477.19405 
L 1282.595733 476.355606 
L 1283.833991 475.808633 
L 1285.072248 476.118348 
L 1287.548762 477.721228 
L 1288.78702 477.909336 
L 1290.025277 477.017578 
L 1291.263534 474.7802 
L 1292.501791 471.780627 
L 1293.740049 469.419433 
L 1294.978306 468.723484 
L 1296.216563 469.442818 
L 1297.454821 470.622139 
L 1298.693078 471.544826 
L 1299.931335 472.010198 
L 1301.169592 472.287891 
L 1302.40785 472.834534 
L 1303.646107 473.819147 
L 1307.360879 477.439956 
L 1308.599136 477.762375 
L 1309.837393 476.764105 
L 1312.313908 472.589033 
L 1313.552165 471.42459 
L 1314.790422 471.234008 
L 1316.02868 471.178869 
L 1317.266937 470.477988 
L 1318.505194 469.231458 
L 1319.743451 468.183759 
L 1320.981709 467.688642 
L 1322.219966 467.358798 
L 1324.69648 466.277492 
L 1325.934738 466.103047 
L 1327.172995 466.532176 
L 1328.411252 467.426041 
L 1329.649509 468.180297 
L 1330.887767 468.13181 
L 1332.126024 467.374347 
L 1333.364281 466.779052 
L 1334.602539 467.161024 
L 1335.840796 468.708186 
L 1337.079053 470.89719 
L 1338.31731 472.730382 
L 1339.555568 473.346398 
L 1340.793825 472.43794 
L 1342.032082 470.272299 
L 1343.270339 467.740862 
L 1344.508597 465.896715 
L 1345.746854 465.148886 
L 1346.985111 465.375518 
L 1348.223368 466.418824 
L 1350.699883 469.475709 
L 1355.652912 474.22999 
L 1356.891169 475.25315 
L 1358.129427 475.35905 
L 1359.367684 474.183249 
L 1360.605941 471.825676 
L 1361.844198 468.445719 
L 1364.320713 460.48819 
L 1365.55897 457.94229 
L 1366.797228 457.365453 
L 1368.035485 458.634267 
L 1369.273742 461.097974 
L 1370.511999 463.812563 
L 1371.750257 465.770593 
L 1372.988514 466.256499 
L 1374.226771 465.124923 
L 1377.941543 458.478471 
L 1379.1798 457.740053 
L 1380.418057 458.254609 
L 1381.656315 459.934603 
L 1382.894572 462.242949 
L 1384.132829 464.312178 
L 1385.371087 465.532531 
L 1386.609344 465.98026 
L 1387.847601 466.087489 
L 1389.085858 466.0239 
L 1390.324116 465.731245 
L 1391.562373 465.187216 
L 1394.038887 463.596747 
L 1395.277145 463.409276 
L 1396.515402 464.045912 
L 1397.753659 464.943783 
L 1398.991916 465.428625 
L 1401.468431 465.554902 
L 1402.706688 465.941398 
L 1406.42146 467.734264 
L 1407.659717 467.737441 
L 1408.897975 466.646438 
L 1411.374489 462.777334 
L 1412.612746 461.856181 
L 1413.851004 462.244941 
L 1415.089261 463.868952 
L 1417.565775 469.07941 
L 1418.804033 470.915669 
L 1420.04229 471.160714 
L 1421.280547 469.792006 
L 1422.518805 467.752063 
L 1423.757062 466.229998 
L 1426.233576 464.746455 
L 1427.471834 463.737131 
L 1428.710091 463.050697 
L 1429.948348 463.462799 
L 1432.424863 466.391826 
L 1433.66312 466.905397 
L 1434.901377 466.026327 
L 1436.139634 464.42104 
L 1437.377892 463.29563 
L 1438.616149 463.370514 
L 1439.854406 464.260458 
L 1441.092664 464.704192 
L 1442.330921 463.660136 
L 1443.569178 461.148183 
L 1446.045693 454.416201 
L 1447.28395 451.66173 
L 1448.522207 450.359152 
L 1449.760464 450.823896 
L 1450.998722 452.528497 
L 1452.236979 454.523859 
L 1453.475236 456.169446 
L 1454.713494 457.189738 
L 1455.951751 457.4259 
L 1457.190008 457.027743 
L 1459.666523 455.792309 
L 1460.90478 454.535381 
L 1462.143037 452.684404 
L 1463.381294 451.163175 
L 1464.619552 450.740026 
L 1465.857809 451.261649 
L 1469.572581 454.147442 
L 1470.810838 454.788873 
L 1472.049095 454.786714 
L 1473.287353 454.11241 
L 1474.52561 452.940786 
L 1475.763867 451.005197 
L 1477.002124 447.949794 
L 1478.240382 444.294517 
L 1479.478639 441.169933 
L 1480.716896 439.36118 
L 1481.955153 439.006839 
L 1483.193411 439.829672 
L 1484.431668 441.551045 
L 1485.669925 444.129264 
L 1489.384697 454.29696 
L 1490.622954 456.370554 
L 1491.861212 457.300715 
L 1493.099469 457.556646 
L 1494.337726 457.480646 
L 1495.575983 456.986636 
L 1496.814241 455.956472 
L 1498.052498 454.584919 
L 1499.290755 453.399428 
L 1500.529012 453.06757 
L 1501.76727 454.085954 
L 1503.005527 456.429973 
L 1504.243784 459.248755 
L 1505.482041 461.121009 
L 1506.720299 460.969176 
L 1507.958556 458.671121 
L 1509.196813 454.810726 
L 1511.673328 445.752817 
L 1512.911585 442.228598 
L 1514.149842 440.098069 
L 1515.3881 439.629788 
L 1516.626357 440.916981 
L 1517.864614 443.571536 
L 1519.102871 446.650309 
L 1520.341129 449.064699 
L 1521.579386 450.051206 
L 1522.817643 449.454042 
L 1524.0559 447.796039 
L 1525.294158 445.866463 
L 1526.532415 444.299223 
L 1527.770672 443.583056 
L 1529.00893 443.876245 
L 1530.247187 444.872389 
L 1532.723701 447.680207 
L 1535.200216 450.988967 
L 1536.438473 452.02436 
L 1537.67673 451.591652 
L 1538.914988 449.553559 
L 1540.153245 446.475691 
L 1543.868017 436.00607 
L 1545.106274 433.918788 
L 1546.344531 433.940473 
L 1547.582789 436.310277 
L 1548.821046 439.959568 
L 1550.059303 442.982733 
L 1551.29756 444.277614 
L 1552.535818 444.167076 
L 1553.774075 443.253893 
L 1555.012332 441.764702 
L 1556.250589 439.769684 
L 1557.488847 437.142864 
L 1559.965361 430.426582 
L 1561.203619 427.99667 
L 1562.441876 426.846548 
L 1563.680133 426.681165 
L 1564.91839 427.418165 
L 1567.394905 430.710216 
L 1568.633162 431.799376 
L 1569.871419 431.967725 
L 1571.109677 431.519835 
L 1572.347934 430.859951 
L 1573.586191 430.01742 
L 1574.824448 428.783795 
L 1576.062706 427.030431 
L 1577.300963 424.694847 
L 1579.777478 419.480817 
L 1581.015735 418.020188 
L 1582.253992 418.038934 
L 1583.492249 419.537519 
L 1584.730507 421.815806 
L 1585.968764 423.659885 
L 1587.207021 424.11023 
L 1588.445278 423.057877 
L 1590.921793 419.593012 
L 1592.16005 418.468213 
L 1593.398307 417.790142 
L 1594.636565 417.491899 
L 1595.874822 417.761566 
L 1597.113079 418.840112 
L 1598.351337 420.46853 
L 1599.589594 421.86484 
L 1600.827851 422.480273 
L 1602.066108 422.537795 
L 1603.304366 422.790896 
L 1604.542623 423.894844 
L 1605.78088 426.053432 
L 1608.257395 431.560057 
L 1609.495652 432.706119 
L 1610.733909 431.898323 
L 1611.972166 429.668699 
L 1613.210424 426.951474 
L 1614.448681 424.634448 
L 1615.686938 423.323021 
L 1616.925196 422.986965 
L 1618.163453 422.879898 
L 1619.40171 421.907097 
L 1620.639967 419.319722 
L 1623.116482 411.858099 
L 1624.354739 409.1129 
L 1628.069511 403.085464 
L 1629.307768 401.4532 
L 1630.546026 400.951436 
L 1631.784283 402.041503 
L 1633.02254 404.060428 
L 1634.260797 405.564088 
L 1635.499055 405.561674 
L 1636.737312 404.095439 
L 1637.975569 401.580384 
L 1639.213826 398.188259 
L 1641.690341 389.750631 
L 1641.690341 389.750631 
" style="fill:none;stroke:#008000;stroke-linecap:square;stroke-width:1.5;"/>
   </g>
   <g id="patch_3">
    <path d="M 43.78125 586.86358 
L 43.78125 22.318125 
" style="fill:none;stroke:#000000;stroke-linecap:square;stroke-linejoin:miter;stroke-width:0.8;"/>
   </g>
   <g id="patch_4">
    <path d="M 1717.78125 586.86358 
L 1717.78125 22.318125 
" style="fill:none;stroke:#000000;stroke-linecap:square;stroke-linejoin:miter;stroke-width:0.8;"/>
   </g>
   <g id="patch_5">
    <path d="M 43.78125 586.86358 
L 1717.78125 586.86358 
" style="fill:none;stroke:#000000;stroke-linecap:square;stroke-linejoin:miter;stroke-width:0.8;"/>
   </g>
   <g id="patch_6">
    <path d="M 43.78125 22.318125 
L 1717.78125 22.318125 
" style="fill:none;stroke:#000000;stroke-linecap:square;stroke-linejoin:miter;stroke-width:0.8;"/>
   </g>
   <g id="text_15">
    <!-- before binarisation -->
    <g transform="translate(824.1825 16.318125)scale(0.12 -0.12)">
     <defs>
      <path d="M 3116 1747 
Q 3116 2381 2855 2742 
Q 2594 3103 2138 3103 
Q 1681 3103 1420 2742 
Q 1159 2381 1159 1747 
Q 1159 1113 1420 752 
Q 1681 391 2138 391 
Q 2594 391 2855 752 
Q 3116 1113 3116 1747 
z
M 1159 2969 
Q 1341 3281 1617 3432 
Q 1894 3584 2278 3584 
Q 2916 3584 3314 3078 
Q 3713 2572 3713 1747 
Q 3713 922 3314 415 
Q 2916 -91 2278 -91 
Q 1894 -91 1617 61 
Q 1341 213 1159 525 
L 1159 0 
L 581 0 
L 581 4863 
L 1159 4863 
L 1159 2969 
z
" id="DejaVuSans-62" transform="scale(0.015625)"/>
      <path d="M 1959 3097 
Q 1497 3097 1228 2736 
Q 959 2375 959 1747 
Q 959 1119 1226 758 
Q 1494 397 1959 397 
Q 2419 397 2687 759 
Q 2956 1122 2956 1747 
Q 2956 2369 2687 2733 
Q 2419 3097 1959 3097 
z
M 1959 3584 
Q 2709 3584 3137 3096 
Q 3566 2609 3566 1747 
Q 3566 888 3137 398 
Q 2709 -91 1959 -91 
Q 1206 -91 779 398 
Q 353 888 353 1747 
Q 353 2609 779 3096 
Q 1206 3584 1959 3584 
z
" id="DejaVuSans-6f" transform="scale(0.015625)"/>
      <path id="DejaVuSans-20" transform="scale(0.015625)"/>
      <path d="M 603 3500 
L 1178 3500 
L 1178 0 
L 603 0 
L 603 3500 
z
M 603 4863 
L 1178 4863 
L 1178 4134 
L 603 4134 
L 603 4863 
z
" id="DejaVuSans-69" transform="scale(0.015625)"/>
      <path d="M 3513 2113 
L 3513 0 
L 2938 0 
L 2938 2094 
Q 2938 2591 2744 2837 
Q 2550 3084 2163 3084 
Q 1697 3084 1428 2787 
Q 1159 2491 1159 1978 
L 1159 0 
L 581 0 
L 581 3500 
L 1159 3500 
L 1159 2956 
Q 1366 3272 1645 3428 
Q 1925 3584 2291 3584 
Q 2894 3584 3203 3211 
Q 3513 2838 3513 2113 
z
" id="DejaVuSans-6e" transform="scale(0.015625)"/>
      <path d="M 2834 3397 
L 2834 2853 
Q 2591 2978 2328 3040 
Q 2066 3103 1784 3103 
Q 1356 3103 1142 2972 
Q 928 2841 928 2578 
Q 928 2378 1081 2264 
Q 1234 2150 1697 2047 
L 1894 2003 
Q 2506 1872 2764 1633 
Q 3022 1394 3022 966 
Q 3022 478 2636 193 
Q 2250 -91 1575 -91 
Q 1294 -91 989 -36 
Q 684 19 347 128 
L 347 722 
Q 666 556 975 473 
Q 1284 391 1588 391 
Q 1994 391 2212 530 
Q 2431 669 2431 922 
Q 2431 1156 2273 1281 
Q 2116 1406 1581 1522 
L 1381 1569 
Q 847 1681 609 1914 
Q 372 2147 372 2553 
Q 372 3047 722 3315 
Q 1072 3584 1716 3584 
Q 2034 3584 2315 3537 
Q 2597 3491 2834 3397 
z
" id="DejaVuSans-73" transform="scale(0.015625)"/>
      <path d="M 1172 4494 
L 1172 3500 
L 2356 3500 
L 2356 3053 
L 1172 3053 
L 1172 1153 
Q 1172 725 1289 603 
Q 1406 481 1766 481 
L 2356 481 
L 2356 0 
L 1766 0 
Q 1100 0 847 248 
Q 594 497 594 1153 
L 594 3053 
L 172 3053 
L 172 3500 
L 594 3500 
L 594 4494 
L 1172 4494 
z
" id="DejaVuSans-74" transform="scale(0.015625)"/>
     </defs>
     <use xlink:href="#DejaVuSans-62"/>
     <use x="63.476562" xlink:href="#DejaVuSans-65"/>
     <use x="125" xlink:href="#DejaVuSans-66"/>
     <use x="160.205078" xlink:href="#DejaVuSans-6f"/>
     <use x="221.386719" xlink:href="#DejaVuSans-72"/>
     <use x="260.25" xlink:href="#DejaVuSans-65"/>
     <use x="321.773438" xlink:href="#DejaVuSans-20"/>
     <use x="353.560547" xlink:href="#DejaVuSans-62"/>
     <use x="417.037109" xlink:href="#DejaVuSans-69"/>
     <use x="444.820312" xlink:href="#DejaVuSans-6e"/>
     <use x="508.199219" xlink:href="#DejaVuSans-61"/>
     <use x="569.478516" xlink:href="#DejaVuSans-72"/>
     <use x="610.591797" xlink:href="#DejaVuSans-69"/>
     <use x="638.375" xlink:href="#DejaVuSans-73"/>
     <use x="690.474609" xlink:href="#DejaVuSans-61"/>
     <use x="751.753906" xlink:href="#DejaVuSans-74"/>
     <use x="790.962891" xlink:href="#DejaVuSans-69"/>
     <use x="818.746094" xlink:href="#DejaVuSans-6f"/>
     <use x="879.927734" xlink:href="#DejaVuSans-6e"/>
    </g>
   </g>
  </g>
  <g id="axes_2">
   <g id="patch_7">
    <path d="M 43.78125 1264.318125 
L 1717.78125 1264.318125 
L 1717.78125 699.77267 
L 43.78125 699.77267 
z
" style="fill:#ffffff;"/>
   </g>
   <g id="matplotlib.axis_3">
    <g id="xtick_8">
     <g id="line2d_14">
      <g>
       <use style="stroke:#000000;stroke-width:0.8;" x="119.872159" xlink:href="#md15ff9d9c5" y="1264.318125"/>
      </g>
     </g>
     <g id="text_16">
      <!-- 0 -->
      <g transform="translate(116.690909 1278.916563)scale(0.1 -0.1)">
       <use xlink:href="#DejaVuSans-30"/>
      </g>
     </g>
    </g>
    <g id="xtick_9">
     <g id="line2d_15">
      <g>
       <use style="stroke:#000000;stroke-width:0.8;" x="367.523613" xlink:href="#md15ff9d9c5" y="1264.318125"/>
      </g>
     </g>
     <g id="text_17">
      <!-- 200 -->
      <g transform="translate(357.979863 1278.916563)scale(0.1 -0.1)">
       <use xlink:href="#DejaVuSans-32"/>
       <use x="63.623047" xlink:href="#DejaVuSans-30"/>
       <use x="127.246094" xlink:href="#DejaVuSans-30"/>
      </g>
     </g>
    </g>
    <g id="xtick_10">
     <g id="line2d_16">
      <g>
       <use style="stroke:#000000;stroke-width:0.8;" x="615.175066" xlink:href="#md15ff9d9c5" y="1264.318125"/>
      </g>
     </g>
     <g id="text_18">
      <!-- 400 -->
      <g transform="translate(605.631316 1278.916563)scale(0.1 -0.1)">
       <use xlink:href="#DejaVuSans-34"/>
       <use x="63.623047" xlink:href="#DejaVuSans-30"/>
       <use x="127.246094" xlink:href="#DejaVuSans-30"/>
      </g>
     </g>
    </g>
    <g id="xtick_11">
     <g id="line2d_17">
      <g>
       <use style="stroke:#000000;stroke-width:0.8;" x="862.82652" xlink:href="#md15ff9d9c5" y="1264.318125"/>
      </g>
     </g>
     <g id="text_19">
      <!-- 600 -->
      <g transform="translate(853.28277 1278.916563)scale(0.1 -0.1)">
       <use xlink:href="#DejaVuSans-36"/>
       <use x="63.623047" xlink:href="#DejaVuSans-30"/>
       <use x="127.246094" xlink:href="#DejaVuSans-30"/>
      </g>
     </g>
    </g>
    <g id="xtick_12">
     <g id="line2d_18">
      <g>
       <use style="stroke:#000000;stroke-width:0.8;" x="1110.477973" xlink:href="#md15ff9d9c5" y="1264.318125"/>
      </g>
     </g>
     <g id="text_20">
      <!-- 800 -->
      <g transform="translate(1100.934223 1278.916563)scale(0.1 -0.1)">
       <use xlink:href="#DejaVuSans-38"/>
       <use x="63.623047" xlink:href="#DejaVuSans-30"/>
       <use x="127.246094" xlink:href="#DejaVuSans-30"/>
      </g>
     </g>
    </g>
    <g id="xtick_13">
     <g id="line2d_19">
      <g>
       <use style="stroke:#000000;stroke-width:0.8;" x="1358.129427" xlink:href="#md15ff9d9c5" y="1264.318125"/>
      </g>
     </g>
     <g id="text_21">
      <!-- 1000 -->
      <g transform="translate(1345.404427 1278.916563)scale(0.1 -0.1)">
       <use xlink:href="#DejaVuSans-31"/>
       <use x="63.623047" xlink:href="#DejaVuSans-30"/>
       <use x="127.246094" xlink:href="#DejaVuSans-30"/>
       <use x="190.869141" xlink:href="#DejaVuSans-30"/>
      </g>
     </g>
    </g>
    <g id="xtick_14">
     <g id="line2d_20">
      <g>
       <use style="stroke:#000000;stroke-width:0.8;" x="1605.78088" xlink:href="#md15ff9d9c5" y="1264.318125"/>
      </g>
     </g>
     <g id="text_22">
      <!-- 1200 -->
      <g transform="translate(1593.05588 1278.916563)scale(0.1 -0.1)">
       <use xlink:href="#DejaVuSans-31"/>
       <use x="63.623047" xlink:href="#DejaVuSans-32"/>
       <use x="127.246094" xlink:href="#DejaVuSans-30"/>
       <use x="190.869141" xlink:href="#DejaVuSans-30"/>
      </g>
     </g>
    </g>
    <g id="text_23">
     <!-- frame -->
     <g transform="translate(865.954687 1292.594688)scale(0.1 -0.1)">
      <use xlink:href="#DejaVuSans-66"/>
      <use x="35.205078" xlink:href="#DejaVuSans-72"/>
      <use x="76.318359" xlink:href="#DejaVuSans-61"/>
      <use x="137.597656" xlink:href="#DejaVuSans-6d"/>
      <use x="235.009766" xlink:href="#DejaVuSans-65"/>
     </g>
    </g>
   </g>
   <g id="matplotlib.axis_4">
    <g id="ytick_6">
     <g id="line2d_21">
      <g>
       <use style="stroke:#000000;stroke-width:0.8;" x="43.78125" xlink:href="#m9fc1441aef" y="1238.656968"/>
      </g>
     </g>
     <g id="text_24">
      <!-- 0.0 -->
      <g transform="translate(20.878125 1242.456187)scale(0.1 -0.1)">
       <defs>
        <path d="M 684 794 
L 1344 794 
L 1344 0 
L 684 0 
L 684 794 
z
" id="DejaVuSans-2e" transform="scale(0.015625)"/>
       </defs>
       <use xlink:href="#DejaVuSans-30"/>
       <use x="63.623047" xlink:href="#DejaVuSans-2e"/>
       <use x="95.410156" xlink:href="#DejaVuSans-30"/>
      </g>
     </g>
    </g>
    <g id="ytick_7">
     <g id="line2d_22">
      <g>
       <use style="stroke:#000000;stroke-width:0.8;" x="43.78125" xlink:href="#m9fc1441aef" y="1136.01234"/>
      </g>
     </g>
     <g id="text_25">
      <!-- 0.2 -->
      <g transform="translate(20.878125 1139.811559)scale(0.1 -0.1)">
       <use xlink:href="#DejaVuSans-30"/>
       <use x="63.623047" xlink:href="#DejaVuSans-2e"/>
       <use x="95.410156" xlink:href="#DejaVuSans-32"/>
      </g>
     </g>
    </g>
    <g id="ytick_8">
     <g id="line2d_23">
      <g>
       <use style="stroke:#000000;stroke-width:0.8;" x="43.78125" xlink:href="#m9fc1441aef" y="1033.367712"/>
      </g>
     </g>
     <g id="text_26">
      <!-- 0.4 -->
      <g transform="translate(20.878125 1037.166931)scale(0.1 -0.1)">
       <use xlink:href="#DejaVuSans-30"/>
       <use x="63.623047" xlink:href="#DejaVuSans-2e"/>
       <use x="95.410156" xlink:href="#DejaVuSans-34"/>
      </g>
     </g>
    </g>
    <g id="ytick_9">
     <g id="line2d_24">
      <g>
       <use style="stroke:#000000;stroke-width:0.8;" x="43.78125" xlink:href="#m9fc1441aef" y="930.723084"/>
      </g>
     </g>
     <g id="text_27">
      <!-- 0.6 -->
      <g transform="translate(20.878125 934.522302)scale(0.1 -0.1)">
       <use xlink:href="#DejaVuSans-30"/>
       <use x="63.623047" xlink:href="#DejaVuSans-2e"/>
       <use x="95.410156" xlink:href="#DejaVuSans-36"/>
      </g>
     </g>
    </g>
    <g id="ytick_10">
     <g id="line2d_25">
      <g>
       <use style="stroke:#000000;stroke-width:0.8;" x="43.78125" xlink:href="#m9fc1441aef" y="828.078456"/>
      </g>
     </g>
     <g id="text_28">
      <!-- 0.8 -->
      <g transform="translate(20.878125 831.877674)scale(0.1 -0.1)">
       <use xlink:href="#DejaVuSans-30"/>
       <use x="63.623047" xlink:href="#DejaVuSans-2e"/>
       <use x="95.410156" xlink:href="#DejaVuSans-38"/>
      </g>
     </g>
    </g>
    <g id="ytick_11">
     <g id="line2d_26">
      <g>
       <use style="stroke:#000000;stroke-width:0.8;" x="43.78125" xlink:href="#m9fc1441aef" y="725.433827"/>
      </g>
     </g>
     <g id="text_29">
      <!-- 1.0 -->
      <g transform="translate(20.878125 729.233046)scale(0.1 -0.1)">
       <use xlink:href="#DejaVuSans-31"/>
       <use x="63.623047" xlink:href="#DejaVuSans-2e"/>
       <use x="95.410156" xlink:href="#DejaVuSans-30"/>
      </g>
     </g>
    </g>
    <g id="text_30">
     <!-- GCaMP -->
     <g transform="translate(14.798437 999.803991)rotate(-90)scale(0.1 -0.1)">
      <use xlink:href="#DejaVuSans-47"/>
      <use x="77.490234" xlink:href="#DejaVuSans-43"/>
      <use x="147.314453" xlink:href="#DejaVuSans-61"/>
      <use x="208.59375" xlink:href="#DejaVuSans-4d"/>
      <use x="294.873047" xlink:href="#DejaVuSans-50"/>
     </g>
    </g>
   </g>
   <g id="line2d_27">
    <path clip-path="url(#p3b01b5d831)" d="M 119.872159 1238.656968 
L 127.301703 1238.656968 
L 128.53996 725.433827 
L 315.516807 725.433827 
L 316.755065 1238.656968 
L 1641.690341 1238.656968 
L 1641.690341 1238.656968 
" style="fill:none;stroke:#008000;stroke-linecap:square;stroke-width:1.5;"/>
   </g>
   <g id="patch_8">
    <path d="M 43.78125 1264.318125 
L 43.78125 699.77267 
" style="fill:none;stroke:#000000;stroke-linecap:square;stroke-linejoin:miter;stroke-width:0.8;"/>
   </g>
   <g id="patch_9">
    <path d="M 1717.78125 1264.318125 
L 1717.78125 699.77267 
" style="fill:none;stroke:#000000;stroke-linecap:square;stroke-linejoin:miter;stroke-width:0.8;"/>
   </g>
   <g id="patch_10">
    <path d="M 43.78125 1264.318125 
L 1717.78125 1264.318125 
" style="fill:none;stroke:#000000;stroke-linecap:square;stroke-linejoin:miter;stroke-width:0.8;"/>
   </g>
   <g id="patch_11">
    <path d="M 43.78125 699.77267 
L 1717.78125 699.77267 
" style="fill:none;stroke:#000000;stroke-linecap:square;stroke-linejoin:miter;stroke-width:0.8;"/>
   </g>
   <g id="text_31">
    <!-- before binarisation -->
    <g transform="translate(824.1825 693.77267)scale(0.12 -0.12)">
     <use xlink:href="#DejaVuSans-62"/>
     <use x="63.476562" xlink:href="#DejaVuSans-65"/>
     <use x="125" xlink:href="#DejaVuSans-66"/>
     <use x="160.205078" xlink:href="#DejaVuSans-6f"/>
     <use x="221.386719" xlink:href="#DejaVuSans-72"/>
     <use x="260.25" xlink:href="#DejaVuSans-65"/>
     <use x="321.773438" xlink:href="#DejaVuSans-20"/>
     <use x="353.560547" xlink:href="#DejaVuSans-62"/>
     <use x="417.037109" xlink:href="#DejaVuSans-69"/>
     <use x="444.820312" xlink:href="#DejaVuSans-6e"/>
     <use x="508.199219" xlink:href="#DejaVuSans-61"/>
     <use x="569.478516" xlink:href="#DejaVuSans-72"/>
     <use x="610.591797" xlink:href="#DejaVuSans-69"/>
     <use x="638.375" xlink:href="#DejaVuSans-73"/>
     <use x="690.474609" xlink:href="#DejaVuSans-61"/>
     <use x="751.753906" xlink:href="#DejaVuSans-74"/>
     <use x="790.962891" xlink:href="#DejaVuSans-69"/>
     <use x="818.746094" xlink:href="#DejaVuSans-6f"/>
     <use x="879.927734" xlink:href="#DejaVuSans-6e"/>
    </g>
   </g>
  </g>
 </g>
 <defs>
  <clipPath id="p498f69af3f">
   <rect height="564.545455" width="1674" x="43.78125" y="22.318125"/>
  </clipPath>
  <clipPath id="p3b01b5d831">
   <rect height="564.545455" width="1674" x="43.78125" y="699.77267"/>
  </clipPath>
 </defs>
</svg>
