<?xml version="1.0" encoding="utf-8" standalone="no"?>
<!DOCTYPE svg PUBLIC "-//W3C//DTD SVG 1.1//EN"
  "http://www.w3.org/Graphics/SVG/1.1/DTD/svg11.dtd">
<svg height="1301.874375pt" version="1.1" viewBox="0 0 1724.98125 1301.874375" width="1724.98125pt" xmlns="http://www.w3.org/2000/svg" xmlns:xlink="http://www.w3.org/1999/xlink">
 <metadata>
  <rdf:RDF xmlns:cc="http://creativecommons.org/ns#" xmlns:dc="http://purl.org/dc/elements/1.1/" xmlns:rdf="http://www.w3.org/1999/02/22-rdf-syntax-ns#">
   <cc:Work>
    <dc:type rdf:resource="http://purl.org/dc/dcmitype/StillImage"/>
    <dc:date>2022-07-24T15:54:41.045074</dc:date>
    <dc:format>image/svg+xml</dc:format>
    <dc:creator>
     <cc:Agent>
      <dc:title>Matplotlib v3.4.2, https://matplotlib.org/</dc:title>
     </cc:Agent>
    </dc:creator>
   </cc:Work>
  </rdf:RDF>
 </metadata>
 <defs>
  <style type="text/css">*{stroke-linecap:butt;stroke-linejoin:round;}</style>
 </defs>
 <g id="figure_1">
  <g id="patch_1">
   <path d="M 0 1301.874375 
L 1724.98125 1301.874375 
L 1724.98125 0 
L 0 0 
z
" style="fill:#ffffff;"/>
  </g>
  <g id="axes_1">
   <g id="patch_2">
    <path d="M 43.78125 586.86358 
L 1717.78125 586.86358 
L 1717.78125 22.318125 
L 43.78125 22.318125 
z
" style="fill:#ffffff;"/>
   </g>
   <g id="matplotlib.axis_1">
    <g id="xtick_1">
     <g id="line2d_1">
      <defs>
       <path d="M 0 0 
L 0 3.5 
" id="m5c80c620e3" style="stroke:#000000;stroke-width:0.8;"/>
      </defs>
      <g>
       <use style="stroke:#000000;stroke-width:0.8;" x="119.872159" xlink:href="#m5c80c620e3" y="586.86358"/>
      </g>
     </g>
     <g id="text_1">
      <!-- 0 -->
      <g transform="translate(116.690909 601.462017)scale(0.1 -0.1)">
       <defs>
        <path d="M 2034 4250 
Q 1547 4250 1301 3770 
Q 1056 3291 1056 2328 
Q 1056 1369 1301 889 
Q 1547 409 2034 409 
Q 2525 409 2770 889 
Q 3016 1369 3016 2328 
Q 3016 3291 2770 3770 
Q 2525 4250 2034 4250 
z
M 2034 4750 
Q 2819 4750 3233 4129 
Q 3647 3509 3647 2328 
Q 3647 1150 3233 529 
Q 2819 -91 2034 -91 
Q 1250 -91 836 529 
Q 422 1150 422 2328 
Q 422 3509 836 4129 
Q 1250 4750 2034 4750 
z
" id="DejaVuSans-30" transform="scale(0.015625)"/>
       </defs>
       <use xlink:href="#DejaVuSans-30"/>
      </g>
     </g>
    </g>
    <g id="xtick_2">
     <g id="line2d_2">
      <g>
       <use style="stroke:#000000;stroke-width:0.8;" x="367.523613" xlink:href="#m5c80c620e3" y="586.86358"/>
      </g>
     </g>
     <g id="text_2">
      <!-- 200 -->
      <g transform="translate(357.979863 601.462017)scale(0.1 -0.1)">
       <defs>
        <path d="M 1228 531 
L 3431 531 
L 3431 0 
L 469 0 
L 469 531 
Q 828 903 1448 1529 
Q 2069 2156 2228 2338 
Q 2531 2678 2651 2914 
Q 2772 3150 2772 3378 
Q 2772 3750 2511 3984 
Q 2250 4219 1831 4219 
Q 1534 4219 1204 4116 
Q 875 4013 500 3803 
L 500 4441 
Q 881 4594 1212 4672 
Q 1544 4750 1819 4750 
Q 2544 4750 2975 4387 
Q 3406 4025 3406 3419 
Q 3406 3131 3298 2873 
Q 3191 2616 2906 2266 
Q 2828 2175 2409 1742 
Q 1991 1309 1228 531 
z
" id="DejaVuSans-32" transform="scale(0.015625)"/>
       </defs>
       <use xlink:href="#DejaVuSans-32"/>
       <use x="63.623047" xlink:href="#DejaVuSans-30"/>
       <use x="127.246094" xlink:href="#DejaVuSans-30"/>
      </g>
     </g>
    </g>
    <g id="xtick_3">
     <g id="line2d_3">
      <g>
       <use style="stroke:#000000;stroke-width:0.8;" x="615.175066" xlink:href="#m5c80c620e3" y="586.86358"/>
      </g>
     </g>
     <g id="text_3">
      <!-- 400 -->
      <g transform="translate(605.631316 601.462017)scale(0.1 -0.1)">
       <defs>
        <path d="M 2419 4116 
L 825 1625 
L 2419 1625 
L 2419 4116 
z
M 2253 4666 
L 3047 4666 
L 3047 1625 
L 3713 1625 
L 3713 1100 
L 3047 1100 
L 3047 0 
L 2419 0 
L 2419 1100 
L 313 1100 
L 313 1709 
L 2253 4666 
z
" id="DejaVuSans-34" transform="scale(0.015625)"/>
       </defs>
       <use xlink:href="#DejaVuSans-34"/>
       <use x="63.623047" xlink:href="#DejaVuSans-30"/>
       <use x="127.246094" xlink:href="#DejaVuSans-30"/>
      </g>
     </g>
    </g>
    <g id="xtick_4">
     <g id="line2d_4">
      <g>
       <use style="stroke:#000000;stroke-width:0.8;" x="862.82652" xlink:href="#m5c80c620e3" y="586.86358"/>
      </g>
     </g>
     <g id="text_4">
      <!-- 600 -->
      <g transform="translate(853.28277 601.462017)scale(0.1 -0.1)">
       <defs>
        <path d="M 2113 2584 
Q 1688 2584 1439 2293 
Q 1191 2003 1191 1497 
Q 1191 994 1439 701 
Q 1688 409 2113 409 
Q 2538 409 2786 701 
Q 3034 994 3034 1497 
Q 3034 2003 2786 2293 
Q 2538 2584 2113 2584 
z
M 3366 4563 
L 3366 3988 
Q 3128 4100 2886 4159 
Q 2644 4219 2406 4219 
Q 1781 4219 1451 3797 
Q 1122 3375 1075 2522 
Q 1259 2794 1537 2939 
Q 1816 3084 2150 3084 
Q 2853 3084 3261 2657 
Q 3669 2231 3669 1497 
Q 3669 778 3244 343 
Q 2819 -91 2113 -91 
Q 1303 -91 875 529 
Q 447 1150 447 2328 
Q 447 3434 972 4092 
Q 1497 4750 2381 4750 
Q 2619 4750 2861 4703 
Q 3103 4656 3366 4563 
z
" id="DejaVuSans-36" transform="scale(0.015625)"/>
       </defs>
       <use xlink:href="#DejaVuSans-36"/>
       <use x="63.623047" xlink:href="#DejaVuSans-30"/>
       <use x="127.246094" xlink:href="#DejaVuSans-30"/>
      </g>
     </g>
    </g>
    <g id="xtick_5">
     <g id="line2d_5">
      <g>
       <use style="stroke:#000000;stroke-width:0.8;" x="1110.477973" xlink:href="#m5c80c620e3" y="586.86358"/>
      </g>
     </g>
     <g id="text_5">
      <!-- 800 -->
      <g transform="translate(1100.934223 601.462017)scale(0.1 -0.1)">
       <defs>
        <path d="M 2034 2216 
Q 1584 2216 1326 1975 
Q 1069 1734 1069 1313 
Q 1069 891 1326 650 
Q 1584 409 2034 409 
Q 2484 409 2743 651 
Q 3003 894 3003 1313 
Q 3003 1734 2745 1975 
Q 2488 2216 2034 2216 
z
M 1403 2484 
Q 997 2584 770 2862 
Q 544 3141 544 3541 
Q 544 4100 942 4425 
Q 1341 4750 2034 4750 
Q 2731 4750 3128 4425 
Q 3525 4100 3525 3541 
Q 3525 3141 3298 2862 
Q 3072 2584 2669 2484 
Q 3125 2378 3379 2068 
Q 3634 1759 3634 1313 
Q 3634 634 3220 271 
Q 2806 -91 2034 -91 
Q 1263 -91 848 271 
Q 434 634 434 1313 
Q 434 1759 690 2068 
Q 947 2378 1403 2484 
z
M 1172 3481 
Q 1172 3119 1398 2916 
Q 1625 2713 2034 2713 
Q 2441 2713 2670 2916 
Q 2900 3119 2900 3481 
Q 2900 3844 2670 4047 
Q 2441 4250 2034 4250 
Q 1625 4250 1398 4047 
Q 1172 3844 1172 3481 
z
" id="DejaVuSans-38" transform="scale(0.015625)"/>
       </defs>
       <use xlink:href="#DejaVuSans-38"/>
       <use x="63.623047" xlink:href="#DejaVuSans-30"/>
       <use x="127.246094" xlink:href="#DejaVuSans-30"/>
      </g>
     </g>
    </g>
    <g id="xtick_6">
     <g id="line2d_6">
      <g>
       <use style="stroke:#000000;stroke-width:0.8;" x="1358.129427" xlink:href="#m5c80c620e3" y="586.86358"/>
      </g>
     </g>
     <g id="text_6">
      <!-- 1000 -->
      <g transform="translate(1345.404427 601.462017)scale(0.1 -0.1)">
       <defs>
        <path d="M 794 531 
L 1825 531 
L 1825 4091 
L 703 3866 
L 703 4441 
L 1819 4666 
L 2450 4666 
L 2450 531 
L 3481 531 
L 3481 0 
L 794 0 
L 794 531 
z
" id="DejaVuSans-31" transform="scale(0.015625)"/>
       </defs>
       <use xlink:href="#DejaVuSans-31"/>
       <use x="63.623047" xlink:href="#DejaVuSans-30"/>
       <use x="127.246094" xlink:href="#DejaVuSans-30"/>
       <use x="190.869141" xlink:href="#DejaVuSans-30"/>
      </g>
     </g>
    </g>
    <g id="xtick_7">
     <g id="line2d_7">
      <g>
       <use style="stroke:#000000;stroke-width:0.8;" x="1605.78088" xlink:href="#m5c80c620e3" y="586.86358"/>
      </g>
     </g>
     <g id="text_7">
      <!-- 1200 -->
      <g transform="translate(1593.05588 601.462017)scale(0.1 -0.1)">
       <use xlink:href="#DejaVuSans-31"/>
       <use x="63.623047" xlink:href="#DejaVuSans-32"/>
       <use x="127.246094" xlink:href="#DejaVuSans-30"/>
       <use x="190.869141" xlink:href="#DejaVuSans-30"/>
      </g>
     </g>
    </g>
    <g id="text_8">
     <!-- frame -->
     <g transform="translate(865.954687 615.140142)scale(0.1 -0.1)">
      <defs>
       <path d="M 2375 4863 
L 2375 4384 
L 1825 4384 
Q 1516 4384 1395 4259 
Q 1275 4134 1275 3809 
L 1275 3500 
L 2222 3500 
L 2222 3053 
L 1275 3053 
L 1275 0 
L 697 0 
L 697 3053 
L 147 3053 
L 147 3500 
L 697 3500 
L 697 3744 
Q 697 4328 969 4595 
Q 1241 4863 1831 4863 
L 2375 4863 
z
" id="DejaVuSans-66" transform="scale(0.015625)"/>
       <path d="M 2631 2963 
Q 2534 3019 2420 3045 
Q 2306 3072 2169 3072 
Q 1681 3072 1420 2755 
Q 1159 2438 1159 1844 
L 1159 0 
L 581 0 
L 581 3500 
L 1159 3500 
L 1159 2956 
Q 1341 3275 1631 3429 
Q 1922 3584 2338 3584 
Q 2397 3584 2469 3576 
Q 2541 3569 2628 3553 
L 2631 2963 
z
" id="DejaVuSans-72" transform="scale(0.015625)"/>
       <path d="M 2194 1759 
Q 1497 1759 1228 1600 
Q 959 1441 959 1056 
Q 959 750 1161 570 
Q 1363 391 1709 391 
Q 2188 391 2477 730 
Q 2766 1069 2766 1631 
L 2766 1759 
L 2194 1759 
z
M 3341 1997 
L 3341 0 
L 2766 0 
L 2766 531 
Q 2569 213 2275 61 
Q 1981 -91 1556 -91 
Q 1019 -91 701 211 
Q 384 513 384 1019 
Q 384 1609 779 1909 
Q 1175 2209 1959 2209 
L 2766 2209 
L 2766 2266 
Q 2766 2663 2505 2880 
Q 2244 3097 1772 3097 
Q 1472 3097 1187 3025 
Q 903 2953 641 2809 
L 641 3341 
Q 956 3463 1253 3523 
Q 1550 3584 1831 3584 
Q 2591 3584 2966 3190 
Q 3341 2797 3341 1997 
z
" id="DejaVuSans-61" transform="scale(0.015625)"/>
       <path d="M 3328 2828 
Q 3544 3216 3844 3400 
Q 4144 3584 4550 3584 
Q 5097 3584 5394 3201 
Q 5691 2819 5691 2113 
L 5691 0 
L 5113 0 
L 5113 2094 
Q 5113 2597 4934 2840 
Q 4756 3084 4391 3084 
Q 3944 3084 3684 2787 
Q 3425 2491 3425 1978 
L 3425 0 
L 2847 0 
L 2847 2094 
Q 2847 2600 2669 2842 
Q 2491 3084 2119 3084 
Q 1678 3084 1418 2786 
Q 1159 2488 1159 1978 
L 1159 0 
L 581 0 
L 581 3500 
L 1159 3500 
L 1159 2956 
Q 1356 3278 1631 3431 
Q 1906 3584 2284 3584 
Q 2666 3584 2933 3390 
Q 3200 3197 3328 2828 
z
" id="DejaVuSans-6d" transform="scale(0.015625)"/>
       <path d="M 3597 1894 
L 3597 1613 
L 953 1613 
Q 991 1019 1311 708 
Q 1631 397 2203 397 
Q 2534 397 2845 478 
Q 3156 559 3463 722 
L 3463 178 
Q 3153 47 2828 -22 
Q 2503 -91 2169 -91 
Q 1331 -91 842 396 
Q 353 884 353 1716 
Q 353 2575 817 3079 
Q 1281 3584 2069 3584 
Q 2775 3584 3186 3129 
Q 3597 2675 3597 1894 
z
M 3022 2063 
Q 3016 2534 2758 2815 
Q 2500 3097 2075 3097 
Q 1594 3097 1305 2825 
Q 1016 2553 972 2059 
L 3022 2063 
z
" id="DejaVuSans-65" transform="scale(0.015625)"/>
      </defs>
      <use xlink:href="#DejaVuSans-66"/>
      <use x="35.205078" xlink:href="#DejaVuSans-72"/>
      <use x="76.318359" xlink:href="#DejaVuSans-61"/>
      <use x="137.597656" xlink:href="#DejaVuSans-6d"/>
      <use x="235.009766" xlink:href="#DejaVuSans-65"/>
     </g>
    </g>
   </g>
   <g id="matplotlib.axis_2">
    <g id="ytick_1">
     <g id="line2d_8">
      <defs>
       <path d="M 0 0 
L -3.5 0 
" id="m73000b061f" style="stroke:#000000;stroke-width:0.8;"/>
      </defs>
      <g>
       <use style="stroke:#000000;stroke-width:0.8;" x="43.78125" xlink:href="#m73000b061f" y="566.803479"/>
      </g>
     </g>
     <g id="text_9">
      <!-- 1 -->
      <g transform="translate(30.41875 570.602697)scale(0.1 -0.1)">
       <use xlink:href="#DejaVuSans-31"/>
      </g>
     </g>
    </g>
    <g id="ytick_2">
     <g id="line2d_9">
      <g>
       <use style="stroke:#000000;stroke-width:0.8;" x="43.78125" xlink:href="#m73000b061f" y="475.645996"/>
      </g>
     </g>
     <g id="text_10">
      <!-- 2 -->
      <g transform="translate(30.41875 479.445215)scale(0.1 -0.1)">
       <use xlink:href="#DejaVuSans-32"/>
      </g>
     </g>
    </g>
    <g id="ytick_3">
     <g id="line2d_10">
      <g>
       <use style="stroke:#000000;stroke-width:0.8;" x="43.78125" xlink:href="#m73000b061f" y="384.488513"/>
      </g>
     </g>
     <g id="text_11">
      <!-- 3 -->
      <g transform="translate(30.41875 388.287732)scale(0.1 -0.1)">
       <defs>
        <path d="M 2597 2516 
Q 3050 2419 3304 2112 
Q 3559 1806 3559 1356 
Q 3559 666 3084 287 
Q 2609 -91 1734 -91 
Q 1441 -91 1130 -33 
Q 819 25 488 141 
L 488 750 
Q 750 597 1062 519 
Q 1375 441 1716 441 
Q 2309 441 2620 675 
Q 2931 909 2931 1356 
Q 2931 1769 2642 2001 
Q 2353 2234 1838 2234 
L 1294 2234 
L 1294 2753 
L 1863 2753 
Q 2328 2753 2575 2939 
Q 2822 3125 2822 3475 
Q 2822 3834 2567 4026 
Q 2313 4219 1838 4219 
Q 1578 4219 1281 4162 
Q 984 4106 628 3988 
L 628 4550 
Q 988 4650 1302 4700 
Q 1616 4750 1894 4750 
Q 2613 4750 3031 4423 
Q 3450 4097 3450 3541 
Q 3450 3153 3228 2886 
Q 3006 2619 2597 2516 
z
" id="DejaVuSans-33" transform="scale(0.015625)"/>
       </defs>
       <use xlink:href="#DejaVuSans-33"/>
      </g>
     </g>
    </g>
    <g id="ytick_4">
     <g id="line2d_11">
      <g>
       <use style="stroke:#000000;stroke-width:0.8;" x="43.78125" xlink:href="#m73000b061f" y="293.331031"/>
      </g>
     </g>
     <g id="text_12">
      <!-- 4 -->
      <g transform="translate(30.41875 297.130249)scale(0.1 -0.1)">
       <use xlink:href="#DejaVuSans-34"/>
      </g>
     </g>
    </g>
    <g id="ytick_5">
     <g id="line2d_12">
      <g>
       <use style="stroke:#000000;stroke-width:0.8;" x="43.78125" xlink:href="#m73000b061f" y="202.173548"/>
      </g>
     </g>
     <g id="text_13">
      <!-- 5 -->
      <g transform="translate(30.41875 205.972767)scale(0.1 -0.1)">
       <defs>
        <path d="M 691 4666 
L 3169 4666 
L 3169 4134 
L 1269 4134 
L 1269 2991 
Q 1406 3038 1543 3061 
Q 1681 3084 1819 3084 
Q 2600 3084 3056 2656 
Q 3513 2228 3513 1497 
Q 3513 744 3044 326 
Q 2575 -91 1722 -91 
Q 1428 -91 1123 -41 
Q 819 9 494 109 
L 494 744 
Q 775 591 1075 516 
Q 1375 441 1709 441 
Q 2250 441 2565 725 
Q 2881 1009 2881 1497 
Q 2881 1984 2565 2268 
Q 2250 2553 1709 2553 
Q 1456 2553 1204 2497 
Q 953 2441 691 2322 
L 691 4666 
z
" id="DejaVuSans-35" transform="scale(0.015625)"/>
       </defs>
       <use xlink:href="#DejaVuSans-35"/>
      </g>
     </g>
    </g>
    <g id="ytick_6">
     <g id="line2d_13">
      <g>
       <use style="stroke:#000000;stroke-width:0.8;" x="43.78125" xlink:href="#m73000b061f" y="111.016065"/>
      </g>
     </g>
     <g id="text_14">
      <!-- 6 -->
      <g transform="translate(30.41875 114.815284)scale(0.1 -0.1)">
       <use xlink:href="#DejaVuSans-36"/>
      </g>
     </g>
    </g>
    <g id="text_15">
     <!-- GCaMP -->
     <g transform="translate(24.339062 322.349446)rotate(-90)scale(0.1 -0.1)">
      <defs>
       <path d="M 3809 666 
L 3809 1919 
L 2778 1919 
L 2778 2438 
L 4434 2438 
L 4434 434 
Q 4069 175 3628 42 
Q 3188 -91 2688 -91 
Q 1594 -91 976 548 
Q 359 1188 359 2328 
Q 359 3472 976 4111 
Q 1594 4750 2688 4750 
Q 3144 4750 3555 4637 
Q 3966 4525 4313 4306 
L 4313 3634 
Q 3963 3931 3569 4081 
Q 3175 4231 2741 4231 
Q 1884 4231 1454 3753 
Q 1025 3275 1025 2328 
Q 1025 1384 1454 906 
Q 1884 428 2741 428 
Q 3075 428 3337 486 
Q 3600 544 3809 666 
z
" id="DejaVuSans-47" transform="scale(0.015625)"/>
       <path d="M 4122 4306 
L 4122 3641 
Q 3803 3938 3442 4084 
Q 3081 4231 2675 4231 
Q 1875 4231 1450 3742 
Q 1025 3253 1025 2328 
Q 1025 1406 1450 917 
Q 1875 428 2675 428 
Q 3081 428 3442 575 
Q 3803 722 4122 1019 
L 4122 359 
Q 3791 134 3420 21 
Q 3050 -91 2638 -91 
Q 1578 -91 968 557 
Q 359 1206 359 2328 
Q 359 3453 968 4101 
Q 1578 4750 2638 4750 
Q 3056 4750 3426 4639 
Q 3797 4528 4122 4306 
z
" id="DejaVuSans-43" transform="scale(0.015625)"/>
       <path d="M 628 4666 
L 1569 4666 
L 2759 1491 
L 3956 4666 
L 4897 4666 
L 4897 0 
L 4281 0 
L 4281 4097 
L 3078 897 
L 2444 897 
L 1241 4097 
L 1241 0 
L 628 0 
L 628 4666 
z
" id="DejaVuSans-4d" transform="scale(0.015625)"/>
       <path d="M 1259 4147 
L 1259 2394 
L 2053 2394 
Q 2494 2394 2734 2622 
Q 2975 2850 2975 3272 
Q 2975 3691 2734 3919 
Q 2494 4147 2053 4147 
L 1259 4147 
z
M 628 4666 
L 2053 4666 
Q 2838 4666 3239 4311 
Q 3641 3956 3641 3272 
Q 3641 2581 3239 2228 
Q 2838 1875 2053 1875 
L 1259 1875 
L 1259 0 
L 628 0 
L 628 4666 
z
" id="DejaVuSans-50" transform="scale(0.015625)"/>
      </defs>
      <use xlink:href="#DejaVuSans-47"/>
      <use x="77.490234" xlink:href="#DejaVuSans-43"/>
      <use x="147.314453" xlink:href="#DejaVuSans-61"/>
      <use x="208.59375" xlink:href="#DejaVuSans-4d"/>
      <use x="294.873047" xlink:href="#DejaVuSans-50"/>
     </g>
    </g>
   </g>
   <g id="line2d_14">
    <path clip-path="url(#p1c27c0017e)" d="M 119.872159 493.192235 
L 121.110416 493.662078 
L 122.348674 494.828887 
L 123.586931 497.010543 
L 127.301703 505.587288 
L 132.254732 514.613609 
L 134.731246 518.68963 
L 135.969504 521.063762 
L 138.446018 526.21431 
L 139.684275 528.295119 
L 140.922533 529.875343 
L 143.399047 532.372224 
L 144.637304 534.043864 
L 147.113819 538.247575 
L 148.352076 540.041924 
L 149.590334 541.418343 
L 150.828591 542.480068 
L 155.78162 546.148729 
L 157.019877 546.753688 
L 159.496392 547.344287 
L 160.734649 547.612957 
L 161.972906 548.103493 
L 163.211163 549.046319 
L 164.449421 550.472089 
L 166.925935 553.739521 
L 168.164193 554.935463 
L 169.40245 555.479424 
L 170.640707 555.243825 
L 171.878964 554.329327 
L 174.355479 551.961853 
L 175.593736 551.333198 
L 178.070251 550.795921 
L 179.308508 550.299417 
L 180.546765 550.143295 
L 181.785022 550.990417 
L 183.02328 552.89782 
L 185.499794 557.776055 
L 186.738052 559.619638 
L 187.976309 560.516424 
L 189.214566 560.32615 
L 190.452823 559.335546 
L 192.929338 557.030977 
L 194.167595 556.192179 
L 195.405852 555.790302 
L 196.64411 556.069832 
L 197.882367 556.962564 
L 199.120624 558.084388 
L 200.358881 559.042907 
L 201.597139 559.640471 
L 202.835396 559.857221 
L 205.311911 559.737836 
L 206.550168 559.94866 
L 207.788425 560.280296 
L 209.026682 560.287566 
L 210.26494 559.751758 
L 212.741454 558.105004 
L 213.979711 557.974819 
L 215.217969 558.584769 
L 216.456226 559.52314 
L 217.694483 560.185458 
L 218.93274 560.161271 
L 220.170998 559.413448 
L 222.647512 557.152059 
L 223.88577 556.49388 
L 225.124027 556.360926 
L 226.362284 556.602091 
L 227.600541 557.058205 
L 228.838799 557.690012 
L 230.077056 558.531533 
L 232.55357 560.414534 
L 233.791828 560.998104 
L 235.030085 561.202423 
L 236.268342 561.066915 
L 237.5066 560.609884 
L 238.744857 559.833402 
L 241.221371 557.721233 
L 242.459629 556.652489 
L 243.697886 555.77742 
L 244.936143 555.284106 
L 246.1744 555.234426 
L 248.650915 555.640573 
L 251.127429 555.77372 
L 252.365687 556.029059 
L 253.603944 556.649581 
L 254.842201 557.697515 
L 256.080459 558.979899 
L 257.318716 560.068542 
L 258.556973 560.484804 
L 259.79523 559.928572 
L 262.271745 557.008793 
L 263.510002 556.143571 
L 264.748259 556.334506 
L 265.986517 557.309479 
L 267.224774 558.499716 
L 268.463031 559.406813 
L 269.701288 559.724953 
L 270.939546 559.388083 
L 272.177803 558.508513 
L 275.892575 554.912659 
L 277.130832 554.232173 
L 278.369089 553.984327 
L 283.322118 554.197938 
L 284.560376 554.535921 
L 289.513405 556.851723 
L 290.751662 557.089762 
L 291.989919 557.028918 
L 293.228177 556.727562 
L 294.466434 556.2364 
L 295.704691 555.484229 
L 298.181206 553.459259 
L 299.419463 552.816857 
L 300.65772 552.7142 
L 301.895977 552.922264 
L 303.134235 552.950084 
L 304.372492 552.501961 
L 306.849006 550.895994 
L 308.087264 550.276568 
L 309.325521 549.960159 
L 310.563778 549.995298 
L 311.802036 550.343316 
L 314.27855 551.34605 
L 315.516807 551.539418 
L 316.755065 551.250772 
L 319.231579 549.722909 
L 320.469836 549.275564 
L 321.708094 549.413559 
L 325.422866 551.128334 
L 326.661123 551.45887 
L 327.89938 551.620724 
L 329.137637 551.544771 
L 330.375895 551.316438 
L 331.614152 551.236857 
L 332.852409 551.602121 
L 335.328924 553.103625 
L 336.567181 553.353883 
L 341.52021 552.588551 
L 342.758467 552.138781 
L 345.234982 550.851013 
L 346.473239 550.4851 
L 347.711496 550.509316 
L 348.949754 550.670763 
L 350.188011 550.560565 
L 352.664525 549.456995 
L 353.902783 549.262289 
L 355.14104 549.745308 
L 357.617554 551.619089 
L 358.855812 552.311222 
L 361.332326 553.226476 
L 362.570584 553.533267 
L 363.808841 553.687223 
L 365.047098 553.626493 
L 366.285355 553.326209 
L 368.76187 552.489038 
L 370.000127 552.364769 
L 371.238384 552.547603 
L 372.476642 552.878979 
L 373.714899 553.069775 
L 374.953156 552.935178 
L 376.191413 552.49877 
L 379.906185 550.729519 
L 381.144443 550.511532 
L 382.3827 550.588084 
L 384.859214 550.925454 
L 387.335729 550.728182 
L 389.812243 550.254192 
L 391.050501 549.946867 
L 392.288758 549.826329 
L 393.527015 549.999502 
L 398.480044 551.434806 
L 399.718302 551.566319 
L 400.956559 551.415168 
L 404.671331 550.575524 
L 405.909588 550.065972 
L 407.147845 549.203465 
L 408.386102 548.03783 
L 412.100874 543.937369 
L 413.339132 543.017684 
L 414.577389 542.611664 
L 415.815646 542.674775 
L 417.053903 543.122718 
L 418.292161 543.841633 
L 422.006932 546.279167 
L 424.483447 547.68505 
L 428.198219 550.184128 
L 429.436476 550.665284 
L 430.674733 550.757114 
L 431.912991 550.346704 
L 433.151248 549.385932 
L 435.627762 546.90944 
L 436.86602 546.101406 
L 438.104277 545.840215 
L 439.342534 546.048639 
L 440.580791 546.42406 
L 441.819049 546.657184 
L 445.53382 546.525801 
L 449.248592 547.346864 
L 450.48685 547.338598 
L 452.963364 546.805342 
L 459.15465 545.437342 
L 460.392908 545.209424 
L 461.631165 544.616416 
L 462.869422 543.509732 
L 464.107679 542.205482 
L 465.345937 541.258067 
L 466.584194 540.977177 
L 470.298966 541.583259 
L 471.537223 541.674695 
L 472.77548 542.038864 
L 474.013738 542.820818 
L 476.490252 544.943803 
L 477.728509 545.558601 
L 478.966767 545.483651 
L 480.205024 544.7782 
L 482.681538 542.879573 
L 483.919796 542.442246 
L 486.39631 542.479219 
L 487.634568 541.920046 
L 488.872825 540.649943 
L 490.111082 539.060857 
L 491.349339 537.654601 
L 492.587597 536.732326 
L 493.825854 536.417873 
L 495.064111 536.703756 
L 497.540626 538.200976 
L 498.778883 538.625397 
L 500.01714 538.332406 
L 501.255397 537.315089 
L 502.493655 536.084318 
L 503.731912 535.43725 
L 504.970169 535.798457 
L 506.208427 536.791714 
L 507.446684 537.588142 
L 508.684941 537.667117 
L 509.923198 537.157253 
L 511.161456 536.515801 
L 512.399713 536.101027 
L 513.63797 536.051148 
L 517.352742 536.829802 
L 518.590999 536.74307 
L 519.829257 536.436585 
L 521.067514 536.001483 
L 522.305771 535.685381 
L 523.544028 535.837224 
L 526.020543 537.350535 
L 527.2588 537.20372 
L 528.497057 534.894392 
L 529.735315 529.31022 
L 530.973572 519.625464 
L 532.211829 505.38149 
L 533.450086 486.378375 
L 534.688344 462.543356 
L 535.926601 434.042266 
L 538.403116 367.02336 
L 540.87963 299.864461 
L 543.356145 240.342515 
L 545.832659 185.372839 
L 548.309174 136.152145 
L 549.547431 114.675578 
L 550.785688 96.533839 
L 552.023945 83.079628 
L 553.262203 75.049284 
L 554.50046 71.49682 
L 555.738717 69.998267 
L 556.976975 68.06607 
L 558.215232 64.320975 
L 560.691746 53.058651 
L 561.930004 48.945797 
L 563.168261 47.979282 
L 564.406518 49.714278 
L 565.644775 52.068603 
L 566.883033 53.307178 
L 568.12129 53.459913 
L 569.359547 53.778128 
L 570.597804 55.024511 
L 573.074319 58.373379 
L 574.312576 60.494308 
L 575.550834 63.458647 
L 578.027348 70.384547 
L 580.503863 77.798255 
L 581.74212 80.597965 
L 584.218634 84.62358 
L 585.456892 86.185362 
L 586.695149 86.701169 
L 589.171663 85.647312 
L 590.409921 86.818322 
L 591.648178 90.741404 
L 592.886435 97.475242 
L 594.124693 106.381272 
L 595.36295 117.052067 
L 596.601207 129.668809 
L 597.839464 144.620703 
L 599.077722 161.904193 
L 604.030751 238.792643 
L 605.269008 254.616509 
L 606.507265 267.571787 
L 607.745523 278.308763 
L 610.222037 296.787249 
L 612.698552 313.984236 
L 616.413323 335.181487 
L 617.651581 344.113242 
L 620.128095 363.367255 
L 621.366352 371.582122 
L 622.60461 378.684639 
L 625.081124 390.871376 
L 627.557639 401.952818 
L 628.795896 407.116724 
L 630.034153 411.332923 
L 631.272411 413.494401 
L 632.510668 412.41023 
L 633.748925 407.92345 
L 636.22544 395.05732 
L 637.463697 389.615544 
L 638.701954 385.207688 
L 639.940211 381.34939 
L 641.178469 376.607427 
L 642.416726 368.709549 
L 643.654983 356.062968 
L 644.893241 338.855972 
L 647.369755 296.595096 
L 652.322784 205.215062 
L 653.561041 185.695397 
L 654.799299 170.072261 
L 656.037556 158.529602 
L 657.275813 151.408521 
L 658.51407 148.837132 
L 659.752328 149.605128 
L 660.990585 151.569267 
L 662.228842 153.188525 
L 664.705357 155.327282 
L 665.943614 156.832262 
L 669.658386 162.758745 
L 670.896643 163.448635 
L 672.1349 161.764586 
L 673.373158 157.3126 
L 674.611415 151.427033 
L 675.849672 146.141447 
L 677.087929 142.861371 
L 678.326187 142.553342 
L 679.564444 145.761856 
L 680.802701 151.7063 
L 682.040959 158.359938 
L 683.279216 163.481151 
L 684.517473 165.546901 
L 685.75573 164.216332 
L 686.993988 160.018329 
L 688.232245 153.779378 
L 690.708759 139.460337 
L 691.947017 133.86254 
L 693.185274 130.318103 
L 694.423531 128.959951 
L 695.661789 129.644274 
L 696.900046 131.220328 
L 698.138303 131.547627 
L 699.37656 129.280833 
L 700.614818 124.858945 
L 701.853075 119.883386 
L 703.091332 116.192134 
L 704.329589 114.684407 
L 705.567847 114.760626 
L 706.806104 115.48867 
L 708.044361 116.911733 
L 709.282618 119.532301 
L 710.520876 123.255894 
L 711.759133 127.868886 
L 712.99739 133.710897 
L 715.473905 147.948182 
L 716.712162 153.691823 
L 717.950419 157.219506 
L 719.188677 158.430361 
L 720.426934 158.115724 
L 721.665191 158.060403 
L 722.903448 159.968141 
L 724.141706 164.447361 
L 725.379963 171.043104 
L 727.856477 185.822276 
L 729.094735 190.229086 
L 730.332992 190.24255 
L 731.571249 186.256069 
L 732.809507 180.807987 
L 734.047764 176.457755 
L 735.286021 174.092627 
L 736.524278 173.460941 
L 737.762536 174.069553 
L 739.000793 175.690506 
L 740.23905 178.731697 
L 741.477307 183.915703 
L 742.715565 191.568924 
L 746.430336 220.893561 
L 747.668594 228.337533 
L 748.906851 232.745873 
L 750.145108 234.265916 
L 752.621623 234.00521 
L 753.85988 235.585991 
L 755.098137 239.927828 
L 756.336395 247.028176 
L 758.812909 264.524255 
L 760.051166 271.633706 
L 761.289424 275.750108 
L 762.527681 276.377604 
L 763.765938 274.416045 
L 765.004195 271.67764 
L 766.242453 269.481098 
L 767.48071 268.068446 
L 768.718967 267.381167 
L 769.957225 267.769739 
L 771.195482 269.93066 
L 772.433739 274.695193 
L 773.671996 282.762874 
L 774.910254 294.045267 
L 777.386768 321.970722 
L 779.863283 349.959501 
L 781.10154 362.155674 
L 782.339797 372.750043 
L 784.816312 390.774396 
L 788.531084 417.154692 
L 789.769341 424.630997 
L 791.007598 430.707658 
L 792.245855 435.371753 
L 794.72237 442.460299 
L 800.913656 459.370963 
L 802.151914 463.645377 
L 804.628428 473.200807 
L 805.866685 476.922821 
L 807.104943 479.436428 
L 808.3432 481.072819 
L 810.819714 483.326462 
L 813.296229 485.517437 
L 814.534486 487.113982 
L 815.772743 489.299229 
L 818.249258 494.452569 
L 819.487515 496.529992 
L 820.725773 497.823144 
L 821.96403 498.248785 
L 824.440544 497.770504 
L 825.678802 497.845841 
L 826.917059 498.609896 
L 828.155316 500.262981 
L 829.393573 502.765826 
L 831.870088 508.705637 
L 833.108345 511.076227 
L 834.346602 512.43515 
L 835.58486 512.799595 
L 836.823117 512.76797 
L 838.061374 513.150326 
L 839.299632 514.344943 
L 841.776146 517.82117 
L 843.014403 519.297225 
L 844.252661 520.355468 
L 845.490918 520.906853 
L 846.729175 520.9968 
L 847.967432 520.746397 
L 849.20569 520.186311 
L 851.682204 518.510568 
L 852.920461 518.070847 
L 854.158719 518.181909 
L 855.396976 518.756464 
L 857.873491 520.433217 
L 859.111748 520.991462 
L 862.82652 521.991005 
L 864.064777 522.589243 
L 865.303034 523.538124 
L 869.017806 527.561029 
L 870.256063 527.737103 
L 871.49432 527.134817 
L 872.732578 526.351859 
L 873.970835 525.832872 
L 875.209092 525.620062 
L 876.44735 525.673807 
L 877.685607 526.10995 
L 881.400379 528.596747 
L 882.638636 528.575741 
L 883.876893 527.891081 
L 885.11515 526.935269 
L 886.353408 526.21003 
L 887.591665 525.939496 
L 888.829922 526.081602 
L 890.06818 526.572691 
L 891.306437 527.410232 
L 892.544694 528.507552 
L 893.782951 529.400839 
L 895.021209 529.195845 
L 896.259466 526.926498 
L 897.497723 521.617158 
L 898.73598 511.905739 
L 899.974238 496.250656 
L 901.212495 474.132923 
L 903.689009 417.579307 
L 906.165524 361.32739 
L 907.403781 337.280554 
L 908.642039 316.461642 
L 909.880296 298.486009 
L 911.118553 282.872276 
L 916.071582 226.339615 
L 917.309839 214.095638 
L 918.548097 205.168817 
L 919.786354 199.94374 
L 921.024611 197.472382 
L 922.262868 195.671061 
L 923.501126 192.734344 
L 925.97764 184.010545 
L 927.215898 180.609097 
L 928.454155 178.66087 
L 929.692412 177.782568 
L 930.930669 177.435152 
L 932.168927 177.736517 
L 933.407184 179.502305 
L 934.645441 183.103668 
L 935.883698 187.940964 
L 938.360213 199.060273 
L 939.59847 204.6709 
L 940.836727 209.130309 
L 942.074985 211.094301 
L 943.313242 210.065555 
L 944.551499 207.036057 
L 945.789757 203.676813 
L 947.028014 201.348921 
L 948.266271 200.790912 
L 949.504528 202.097637 
L 950.742786 204.875417 
L 951.981043 208.491592 
L 953.2193 212.56327 
L 954.457557 217.57635 
L 955.695815 224.593456 
L 956.934072 233.984418 
L 960.648844 266.263356 
L 961.887101 275.058533 
L 964.363616 289.862087 
L 965.601873 298.497111 
L 966.84013 309.422156 
L 970.554902 347.605802 
L 971.793159 358.177257 
L 976.746188 395.33062 
L 979.222703 412.38008 
L 981.699217 427.281978 
L 982.937475 433.108502 
L 984.175732 437.358434 
L 985.413989 440.362083 
L 986.652246 442.548334 
L 987.890504 444.084467 
L 989.128761 445.114643 
L 990.367018 445.974925 
L 991.605275 447.025486 
L 992.843533 448.497116 
L 994.08179 450.64139 
L 995.320047 453.819234 
L 996.558305 458.199093 
L 999.034819 468.685326 
L 1000.273076 472.900012 
L 1001.511334 475.637149 
L 1002.749591 477.198384 
L 1003.987848 477.617298 
L 1005.226105 475.70887 
L 1006.464363 469.53456 
L 1007.70262 457.630914 
L 1008.940877 439.800723 
L 1010.179134 417.29502 
L 1012.655649 367.851724 
L 1013.893906 345.533772 
L 1015.132164 326.480488 
L 1016.370421 310.604564 
L 1017.608678 297.502663 
L 1018.846935 286.780243 
L 1020.085193 277.677381 
L 1021.32345 269.489228 
L 1022.561707 262.132792 
L 1027.514736 235.981546 
L 1028.752993 228.550657 
L 1029.991251 221.860444 
L 1031.229508 217.514174 
L 1032.467765 215.990649 
L 1033.706023 215.839483 
L 1034.94428 215.107835 
L 1036.182537 212.855771 
L 1038.659052 206.008063 
L 1039.897309 204.334346 
L 1041.135566 205.605799 
L 1042.373823 210.099486 
L 1044.850338 222.724958 
L 1046.088595 225.124462 
L 1047.326852 222.676001 
L 1049.803367 210.871687 
L 1051.041624 207.274755 
L 1052.279882 207.551675 
L 1053.518139 211.571011 
L 1054.756396 218.079655 
L 1055.994653 225.420611 
L 1057.232911 232.087701 
L 1059.709425 243.279026 
L 1060.947682 250.760535 
L 1062.18594 260.96686 
L 1064.662454 287.095377 
L 1065.900711 300.141442 
L 1067.138969 311.569658 
L 1073.330255 360.479289 
L 1078.283284 397.258626 
L 1080.759799 412.442741 
L 1083.236313 426.116258 
L 1084.474571 432.021878 
L 1085.712828 436.954001 
L 1086.951085 440.68044 
L 1088.189342 443.210846 
L 1089.4276 444.856367 
L 1090.665857 445.975102 
L 1094.380629 448.399436 
L 1095.618886 449.910037 
L 1096.857143 451.949985 
L 1100.571915 458.983064 
L 1105.524944 469.902692 
L 1106.763201 472.041744 
L 1108.001459 473.63203 
L 1109.239716 474.273347 
L 1110.477973 473.946841 
L 1111.71623 473.010089 
L 1112.954488 471.650119 
L 1114.192745 469.639034 
L 1115.431002 466.584259 
L 1116.669259 462.214268 
L 1117.907517 456.408033 
L 1119.145774 448.957093 
L 1120.384031 439.470023 
L 1121.622289 427.703972 
L 1124.098803 398.937536 
L 1126.575318 370.635537 
L 1130.290089 331.563084 
L 1134.004861 290.769162 
L 1135.243118 280.185112 
L 1136.481376 272.981507 
L 1137.719633 268.841422 
L 1138.95789 267.051345 
L 1140.196148 266.73694 
L 1141.434405 266.826239 
L 1142.672662 266.623803 
L 1143.910919 265.949107 
L 1145.149177 264.532003 
L 1146.387434 262.106925 
L 1147.625691 259.242398 
L 1148.863948 257.124677 
L 1150.102206 256.382855 
L 1151.340463 257.002456 
L 1152.57872 259.085631 
L 1153.816977 262.595679 
L 1155.055235 266.544581 
L 1156.293492 269.416695 
L 1157.531749 270.477648 
L 1158.770007 270.136735 
L 1161.246521 268.11415 
L 1163.723036 266.085665 
L 1164.961293 265.780289 
L 1166.19955 267.218827 
L 1167.437807 271.759781 
L 1168.676065 279.751017 
L 1169.914322 289.337059 
L 1171.152579 297.520198 
L 1172.390837 302.514883 
L 1173.629094 304.489443 
L 1174.867351 304.919021 
L 1176.105608 305.66892 
L 1177.343866 307.660975 
L 1178.582123 310.182112 
L 1179.82038 311.893016 
L 1181.058637 312.187151 
L 1182.296895 311.364418 
L 1183.535152 310.0934 
L 1184.773409 309.102703 
L 1186.011666 308.904316 
L 1187.249924 309.218619 
L 1188.488181 308.991418 
L 1189.726438 307.313023 
L 1190.964696 304.037261 
L 1193.44121 295.597764 
L 1194.679467 292.430057 
L 1195.917725 290.800606 
L 1197.155982 291.113199 
L 1198.394239 293.510818 
L 1199.632496 297.396226 
L 1203.347268 310.307177 
L 1205.823783 318.277139 
L 1207.06204 321.466266 
L 1209.538555 326.320865 
L 1210.776812 329.575839 
L 1212.015069 334.41736 
L 1213.253326 341.339404 
L 1214.491584 350.458188 
L 1216.968098 371.53857 
L 1218.206355 380.714304 
L 1219.444613 387.93205 
L 1220.68287 393.40246 
L 1223.159384 401.969528 
L 1224.397642 405.80948 
L 1228.112414 415.765034 
L 1229.350671 420.685784 
L 1231.827185 432.386513 
L 1233.065443 436.731421 
L 1234.3037 439.390879 
L 1235.541957 440.94668 
L 1236.780214 442.295661 
L 1238.018472 444.090038 
L 1239.256729 446.488158 
L 1241.733243 452.509097 
L 1244.209758 458.627113 
L 1245.448015 461.237393 
L 1246.686273 463.183437 
L 1247.92453 464.082487 
L 1249.162787 463.704419 
L 1250.401044 462.212625 
L 1252.877559 458.088103 
L 1254.115816 456.607247 
L 1255.354073 456.196965 
L 1256.592331 457.113508 
L 1257.830588 459.224584 
L 1259.068845 462.169846 
L 1261.54536 468.740469 
L 1262.783617 471.604304 
L 1264.021874 473.939165 
L 1265.260132 475.579717 
L 1266.498389 476.539195 
L 1267.736646 477.179195 
L 1268.974903 478.126177 
L 1270.213161 479.889422 
L 1271.451418 482.202068 
L 1272.689675 483.926119 
L 1273.927932 484.045212 
L 1275.16619 482.625015 
L 1276.404447 480.647108 
L 1277.642704 479.264741 
L 1278.880962 479.184689 
L 1280.119219 480.310296 
L 1283.833991 485.515417 
L 1290.025277 494.8259 
L 1291.263534 496.249953 
L 1292.501791 496.669685 
L 1293.740049 496.23911 
L 1294.978306 495.518199 
L 1296.216563 494.947441 
L 1297.454821 494.603081 
L 1298.693078 494.464948 
L 1299.931335 494.857356 
L 1301.169592 496.273866 
L 1302.40785 498.76205 
L 1304.884364 504.605447 
L 1306.122621 506.583116 
L 1307.360879 507.524881 
L 1308.599136 507.743443 
L 1309.837393 507.777092 
L 1311.07565 508.051532 
L 1312.313908 508.781535 
L 1314.790422 511.0367 
L 1316.02868 511.836041 
L 1317.266937 512.116958 
L 1318.505194 511.924731 
L 1319.743451 511.554245 
L 1320.981709 511.457752 
L 1322.219966 511.84198 
L 1325.934738 513.720446 
L 1327.172995 514.257015 
L 1328.411252 514.554747 
L 1329.649509 514.703058 
L 1333.364281 515.438233 
L 1334.602539 515.150867 
L 1335.840796 514.38298 
L 1337.079053 513.197742 
L 1338.31731 512.188382 
L 1339.555568 512.306555 
L 1340.793825 513.869262 
L 1342.032082 516.043331 
L 1343.270339 517.675032 
L 1344.508597 518.206729 
L 1345.746854 517.672582 
L 1346.985111 516.402306 
L 1349.461626 513.311868 
L 1350.699883 512.097252 
L 1351.93814 511.293054 
L 1353.176398 510.81438 
L 1354.414655 510.485992 
L 1355.652912 510.397061 
L 1356.891169 510.87264 
L 1358.129427 511.987588 
L 1359.367684 513.402915 
L 1360.605941 514.5821 
L 1361.844198 515.029689 
L 1363.082456 514.577614 
L 1365.55897 512.681802 
L 1366.797228 512.178973 
L 1368.035485 511.805476 
L 1369.273742 511.144983 
L 1370.511999 510.09626 
L 1372.988514 507.529079 
L 1374.226771 506.600441 
L 1375.465028 506.25423 
L 1377.941543 506.399864 
L 1380.418057 505.885085 
L 1381.656315 506.092366 
L 1382.894572 507.16139 
L 1384.132829 508.753552 
L 1385.371087 510.016557 
L 1386.609344 510.431128 
L 1389.085858 509.988553 
L 1390.324116 509.791084 
L 1391.562373 509.468763 
L 1392.80063 508.647549 
L 1394.038887 507.201046 
L 1396.515402 503.929167 
L 1400.230174 500.184998 
L 1401.468431 498.998046 
L 1402.706688 498.270833 
L 1403.944946 498.172397 
L 1406.42146 498.726715 
L 1407.659717 499.124212 
L 1408.897975 499.961808 
L 1411.374489 502.60817 
L 1412.612746 503.51671 
L 1413.851004 503.889383 
L 1415.089261 503.794003 
L 1416.327518 503.290162 
L 1418.804033 501.812301 
L 1420.04229 501.378369 
L 1421.280547 501.425077 
L 1422.518805 502.065956 
L 1423.757062 503.381244 
L 1426.233576 506.966233 
L 1427.471834 507.735653 
L 1428.710091 507.082979 
L 1429.948348 505.167332 
L 1431.186605 502.684928 
L 1432.424863 500.526219 
L 1433.66312 499.234161 
L 1434.901377 498.909373 
L 1436.139634 499.417173 
L 1437.377892 500.318038 
L 1438.616149 500.995283 
L 1439.854406 501.15336 
L 1441.092664 501.044343 
L 1442.330921 501.171924 
L 1444.807435 502.090804 
L 1446.045693 501.922568 
L 1449.760464 500.001134 
L 1450.998722 499.000726 
L 1452.236979 497.506922 
L 1453.475236 495.804334 
L 1454.713494 494.535453 
L 1455.951751 494.200993 
L 1457.190008 494.690918 
L 1458.428265 495.40115 
L 1459.666523 495.725059 
L 1460.90478 495.389965 
L 1462.143037 494.496359 
L 1463.381294 493.346744 
L 1464.619552 492.370565 
L 1465.857809 492.175971 
L 1467.096066 493.305528 
L 1468.334323 495.711283 
L 1469.572581 498.555723 
L 1470.810838 500.673636 
L 1472.049095 501.342355 
L 1473.287353 500.641117 
L 1474.52561 499.142961 
L 1477.002124 495.580321 
L 1478.240382 493.678169 
L 1481.955153 487.258733 
L 1483.193411 486.200126 
L 1484.431668 486.025011 
L 1485.669925 486.068717 
L 1486.908182 485.614456 
L 1488.14644 484.299332 
L 1489.384697 482.548219 
L 1490.622954 481.328257 
L 1491.861212 481.057957 
L 1495.575983 481.824199 
L 1496.814241 481.924603 
L 1498.052498 481.7835 
L 1499.290755 481.173469 
L 1500.529012 479.978133 
L 1501.76727 478.26175 
L 1505.482041 471.751885 
L 1506.720299 469.499644 
L 1507.958556 466.908427 
L 1514.149842 452.538724 
L 1515.3881 449.026186 
L 1516.626357 445.040249 
L 1519.102871 436.012071 
L 1521.579386 426.782711 
L 1524.0559 417.865864 
L 1525.294158 413.05558 
L 1526.532415 407.685063 
L 1529.00893 395.923451 
L 1530.247187 390.807117 
L 1533.961959 378.089619 
L 1535.200216 372.968421 
L 1537.67673 361.769475 
L 1538.914988 358.095903 
L 1540.153245 356.648031 
L 1541.391502 356.988987 
L 1542.62976 358.75515 
L 1543.868017 361.825622 
L 1546.344531 369.884027 
L 1547.582789 373.125994 
L 1548.821046 374.699938 
L 1550.059303 374.755618 
L 1551.29756 374.631688 
L 1552.535818 375.710845 
L 1553.774075 378.600465 
L 1555.012332 383.513809 
L 1556.250589 390.462846 
L 1559.965361 415.403087 
L 1561.203619 421.693758 
L 1562.441876 425.978658 
L 1563.680133 427.778875 
L 1564.91839 426.51906 
L 1566.156648 421.581792 
L 1567.394905 412.500931 
L 1568.633162 399.320776 
L 1569.871419 382.70314 
L 1572.347934 343.166727 
L 1573.586191 323.155307 
L 1574.824448 305.684779 
L 1576.062706 292.193562 
L 1577.300963 282.897336 
L 1578.53922 276.778824 
L 1581.015735 267.616237 
L 1582.253992 263.509213 
L 1583.492249 260.160446 
L 1584.730507 257.243545 
L 1585.968764 253.996807 
L 1587.207021 250.278277 
L 1588.445278 247.159427 
L 1589.683536 246.158921 
L 1590.921793 247.575229 
L 1592.16005 249.83667 
L 1593.398307 250.884066 
L 1594.636565 250.133783 
L 1595.874822 248.742621 
L 1597.113079 247.928362 
L 1598.351337 247.608435 
L 1599.589594 246.942888 
L 1602.066108 244.353462 
L 1603.304366 243.592567 
L 1604.542623 243.308712 
L 1605.78088 243.222943 
L 1607.019137 243.411416 
L 1608.257395 244.132616 
L 1609.495652 245.014188 
L 1610.733909 244.752525 
L 1611.972166 242.14824 
L 1613.210424 237.234448 
L 1614.448681 231.357737 
L 1615.686938 226.587745 
L 1616.925196 224.528906 
L 1618.163453 225.160334 
L 1621.878225 231.066107 
L 1623.116482 232.637662 
L 1624.354739 233.556179 
L 1625.592996 233.640985 
L 1626.831254 233.050447 
L 1628.069511 231.812018 
L 1629.307768 229.745728 
L 1630.546026 226.864455 
L 1631.784283 223.627026 
L 1633.02254 220.805004 
L 1634.260797 219.100427 
L 1635.499055 218.863216 
L 1636.737312 219.943634 
L 1637.975569 221.422578 
L 1639.213826 222.089379 
L 1640.452084 221.701823 
L 1641.690341 220.87275 
L 1641.690341 220.87275 
" style="fill:none;stroke:#008000;stroke-linecap:square;stroke-width:1.5;"/>
   </g>
   <g id="patch_3">
    <path d="M 43.78125 586.86358 
L 43.78125 22.318125 
" style="fill:none;stroke:#000000;stroke-linecap:square;stroke-linejoin:miter;stroke-width:0.8;"/>
   </g>
   <g id="patch_4">
    <path d="M 1717.78125 586.86358 
L 1717.78125 22.318125 
" style="fill:none;stroke:#000000;stroke-linecap:square;stroke-linejoin:miter;stroke-width:0.8;"/>
   </g>
   <g id="patch_5">
    <path d="M 43.78125 586.86358 
L 1717.78125 586.86358 
" style="fill:none;stroke:#000000;stroke-linecap:square;stroke-linejoin:miter;stroke-width:0.8;"/>
   </g>
   <g id="patch_6">
    <path d="M 43.78125 22.318125 
L 1717.78125 22.318125 
" style="fill:none;stroke:#000000;stroke-linecap:square;stroke-linejoin:miter;stroke-width:0.8;"/>
   </g>
   <g id="text_16">
    <!-- before binarisation -->
    <g transform="translate(824.1825 16.318125)scale(0.12 -0.12)">
     <defs>
      <path d="M 3116 1747 
Q 3116 2381 2855 2742 
Q 2594 3103 2138 3103 
Q 1681 3103 1420 2742 
Q 1159 2381 1159 1747 
Q 1159 1113 1420 752 
Q 1681 391 2138 391 
Q 2594 391 2855 752 
Q 3116 1113 3116 1747 
z
M 1159 2969 
Q 1341 3281 1617 3432 
Q 1894 3584 2278 3584 
Q 2916 3584 3314 3078 
Q 3713 2572 3713 1747 
Q 3713 922 3314 415 
Q 2916 -91 2278 -91 
Q 1894 -91 1617 61 
Q 1341 213 1159 525 
L 1159 0 
L 581 0 
L 581 4863 
L 1159 4863 
L 1159 2969 
z
" id="DejaVuSans-62" transform="scale(0.015625)"/>
      <path d="M 1959 3097 
Q 1497 3097 1228 2736 
Q 959 2375 959 1747 
Q 959 1119 1226 758 
Q 1494 397 1959 397 
Q 2419 397 2687 759 
Q 2956 1122 2956 1747 
Q 2956 2369 2687 2733 
Q 2419 3097 1959 3097 
z
M 1959 3584 
Q 2709 3584 3137 3096 
Q 3566 2609 3566 1747 
Q 3566 888 3137 398 
Q 2709 -91 1959 -91 
Q 1206 -91 779 398 
Q 353 888 353 1747 
Q 353 2609 779 3096 
Q 1206 3584 1959 3584 
z
" id="DejaVuSans-6f" transform="scale(0.015625)"/>
      <path id="DejaVuSans-20" transform="scale(0.015625)"/>
      <path d="M 603 3500 
L 1178 3500 
L 1178 0 
L 603 0 
L 603 3500 
z
M 603 4863 
L 1178 4863 
L 1178 4134 
L 603 4134 
L 603 4863 
z
" id="DejaVuSans-69" transform="scale(0.015625)"/>
      <path d="M 3513 2113 
L 3513 0 
L 2938 0 
L 2938 2094 
Q 2938 2591 2744 2837 
Q 2550 3084 2163 3084 
Q 1697 3084 1428 2787 
Q 1159 2491 1159 1978 
L 1159 0 
L 581 0 
L 581 3500 
L 1159 3500 
L 1159 2956 
Q 1366 3272 1645 3428 
Q 1925 3584 2291 3584 
Q 2894 3584 3203 3211 
Q 3513 2838 3513 2113 
z
" id="DejaVuSans-6e" transform="scale(0.015625)"/>
      <path d="M 2834 3397 
L 2834 2853 
Q 2591 2978 2328 3040 
Q 2066 3103 1784 3103 
Q 1356 3103 1142 2972 
Q 928 2841 928 2578 
Q 928 2378 1081 2264 
Q 1234 2150 1697 2047 
L 1894 2003 
Q 2506 1872 2764 1633 
Q 3022 1394 3022 966 
Q 3022 478 2636 193 
Q 2250 -91 1575 -91 
Q 1294 -91 989 -36 
Q 684 19 347 128 
L 347 722 
Q 666 556 975 473 
Q 1284 391 1588 391 
Q 1994 391 2212 530 
Q 2431 669 2431 922 
Q 2431 1156 2273 1281 
Q 2116 1406 1581 1522 
L 1381 1569 
Q 847 1681 609 1914 
Q 372 2147 372 2553 
Q 372 3047 722 3315 
Q 1072 3584 1716 3584 
Q 2034 3584 2315 3537 
Q 2597 3491 2834 3397 
z
" id="DejaVuSans-73" transform="scale(0.015625)"/>
      <path d="M 1172 4494 
L 1172 3500 
L 2356 3500 
L 2356 3053 
L 1172 3053 
L 1172 1153 
Q 1172 725 1289 603 
Q 1406 481 1766 481 
L 2356 481 
L 2356 0 
L 1766 0 
Q 1100 0 847 248 
Q 594 497 594 1153 
L 594 3053 
L 172 3053 
L 172 3500 
L 594 3500 
L 594 4494 
L 1172 4494 
z
" id="DejaVuSans-74" transform="scale(0.015625)"/>
     </defs>
     <use xlink:href="#DejaVuSans-62"/>
     <use x="63.476562" xlink:href="#DejaVuSans-65"/>
     <use x="125" xlink:href="#DejaVuSans-66"/>
     <use x="160.205078" xlink:href="#DejaVuSans-6f"/>
     <use x="221.386719" xlink:href="#DejaVuSans-72"/>
     <use x="260.25" xlink:href="#DejaVuSans-65"/>
     <use x="321.773438" xlink:href="#DejaVuSans-20"/>
     <use x="353.560547" xlink:href="#DejaVuSans-62"/>
     <use x="417.037109" xlink:href="#DejaVuSans-69"/>
     <use x="444.820312" xlink:href="#DejaVuSans-6e"/>
     <use x="508.199219" xlink:href="#DejaVuSans-61"/>
     <use x="569.478516" xlink:href="#DejaVuSans-72"/>
     <use x="610.591797" xlink:href="#DejaVuSans-69"/>
     <use x="638.375" xlink:href="#DejaVuSans-73"/>
     <use x="690.474609" xlink:href="#DejaVuSans-61"/>
     <use x="751.753906" xlink:href="#DejaVuSans-74"/>
     <use x="790.962891" xlink:href="#DejaVuSans-69"/>
     <use x="818.746094" xlink:href="#DejaVuSans-6f"/>
     <use x="879.927734" xlink:href="#DejaVuSans-6e"/>
    </g>
   </g>
  </g>
  <g id="axes_2">
   <g id="patch_7">
    <path d="M 43.78125 1264.318125 
L 1717.78125 1264.318125 
L 1717.78125 699.77267 
L 43.78125 699.77267 
z
" style="fill:#ffffff;"/>
   </g>
   <g id="matplotlib.axis_3">
    <g id="xtick_8">
     <g id="line2d_15">
      <g>
       <use style="stroke:#000000;stroke-width:0.8;" x="119.872159" xlink:href="#m5c80c620e3" y="1264.318125"/>
      </g>
     </g>
     <g id="text_17">
      <!-- 0 -->
      <g transform="translate(116.690909 1278.916563)scale(0.1 -0.1)">
       <use xlink:href="#DejaVuSans-30"/>
      </g>
     </g>
    </g>
    <g id="xtick_9">
     <g id="line2d_16">
      <g>
       <use style="stroke:#000000;stroke-width:0.8;" x="367.523613" xlink:href="#m5c80c620e3" y="1264.318125"/>
      </g>
     </g>
     <g id="text_18">
      <!-- 200 -->
      <g transform="translate(357.979863 1278.916563)scale(0.1 -0.1)">
       <use xlink:href="#DejaVuSans-32"/>
       <use x="63.623047" xlink:href="#DejaVuSans-30"/>
       <use x="127.246094" xlink:href="#DejaVuSans-30"/>
      </g>
     </g>
    </g>
    <g id="xtick_10">
     <g id="line2d_17">
      <g>
       <use style="stroke:#000000;stroke-width:0.8;" x="615.175066" xlink:href="#m5c80c620e3" y="1264.318125"/>
      </g>
     </g>
     <g id="text_19">
      <!-- 400 -->
      <g transform="translate(605.631316 1278.916563)scale(0.1 -0.1)">
       <use xlink:href="#DejaVuSans-34"/>
       <use x="63.623047" xlink:href="#DejaVuSans-30"/>
       <use x="127.246094" xlink:href="#DejaVuSans-30"/>
      </g>
     </g>
    </g>
    <g id="xtick_11">
     <g id="line2d_18">
      <g>
       <use style="stroke:#000000;stroke-width:0.8;" x="862.82652" xlink:href="#m5c80c620e3" y="1264.318125"/>
      </g>
     </g>
     <g id="text_20">
      <!-- 600 -->
      <g transform="translate(853.28277 1278.916563)scale(0.1 -0.1)">
       <use xlink:href="#DejaVuSans-36"/>
       <use x="63.623047" xlink:href="#DejaVuSans-30"/>
       <use x="127.246094" xlink:href="#DejaVuSans-30"/>
      </g>
     </g>
    </g>
    <g id="xtick_12">
     <g id="line2d_19">
      <g>
       <use style="stroke:#000000;stroke-width:0.8;" x="1110.477973" xlink:href="#m5c80c620e3" y="1264.318125"/>
      </g>
     </g>
     <g id="text_21">
      <!-- 800 -->
      <g transform="translate(1100.934223 1278.916563)scale(0.1 -0.1)">
       <use xlink:href="#DejaVuSans-38"/>
       <use x="63.623047" xlink:href="#DejaVuSans-30"/>
       <use x="127.246094" xlink:href="#DejaVuSans-30"/>
      </g>
     </g>
    </g>
    <g id="xtick_13">
     <g id="line2d_20">
      <g>
       <use style="stroke:#000000;stroke-width:0.8;" x="1358.129427" xlink:href="#m5c80c620e3" y="1264.318125"/>
      </g>
     </g>
     <g id="text_22">
      <!-- 1000 -->
      <g transform="translate(1345.404427 1278.916563)scale(0.1 -0.1)">
       <use xlink:href="#DejaVuSans-31"/>
       <use x="63.623047" xlink:href="#DejaVuSans-30"/>
       <use x="127.246094" xlink:href="#DejaVuSans-30"/>
       <use x="190.869141" xlink:href="#DejaVuSans-30"/>
      </g>
     </g>
    </g>
    <g id="xtick_14">
     <g id="line2d_21">
      <g>
       <use style="stroke:#000000;stroke-width:0.8;" x="1605.78088" xlink:href="#m5c80c620e3" y="1264.318125"/>
      </g>
     </g>
     <g id="text_23">
      <!-- 1200 -->
      <g transform="translate(1593.05588 1278.916563)scale(0.1 -0.1)">
       <use xlink:href="#DejaVuSans-31"/>
       <use x="63.623047" xlink:href="#DejaVuSans-32"/>
       <use x="127.246094" xlink:href="#DejaVuSans-30"/>
       <use x="190.869141" xlink:href="#DejaVuSans-30"/>
      </g>
     </g>
    </g>
    <g id="text_24">
     <!-- frame -->
     <g transform="translate(865.954687 1292.594688)scale(0.1 -0.1)">
      <use xlink:href="#DejaVuSans-66"/>
      <use x="35.205078" xlink:href="#DejaVuSans-72"/>
      <use x="76.318359" xlink:href="#DejaVuSans-61"/>
      <use x="137.597656" xlink:href="#DejaVuSans-6d"/>
      <use x="235.009766" xlink:href="#DejaVuSans-65"/>
     </g>
    </g>
   </g>
   <g id="matplotlib.axis_4">
    <g id="ytick_7">
     <g id="line2d_22">
      <g>
       <use style="stroke:#000000;stroke-width:0.8;" x="43.78125" xlink:href="#m73000b061f" y="1238.656968"/>
      </g>
     </g>
     <g id="text_25">
      <!-- 0.0 -->
      <g transform="translate(20.878125 1242.456187)scale(0.1 -0.1)">
       <defs>
        <path d="M 684 794 
L 1344 794 
L 1344 0 
L 684 0 
L 684 794 
z
" id="DejaVuSans-2e" transform="scale(0.015625)"/>
       </defs>
       <use xlink:href="#DejaVuSans-30"/>
       <use x="63.623047" xlink:href="#DejaVuSans-2e"/>
       <use x="95.410156" xlink:href="#DejaVuSans-30"/>
      </g>
     </g>
    </g>
    <g id="ytick_8">
     <g id="line2d_23">
      <g>
       <use style="stroke:#000000;stroke-width:0.8;" x="43.78125" xlink:href="#m73000b061f" y="1136.01234"/>
      </g>
     </g>
     <g id="text_26">
      <!-- 0.2 -->
      <g transform="translate(20.878125 1139.811559)scale(0.1 -0.1)">
       <use xlink:href="#DejaVuSans-30"/>
       <use x="63.623047" xlink:href="#DejaVuSans-2e"/>
       <use x="95.410156" xlink:href="#DejaVuSans-32"/>
      </g>
     </g>
    </g>
    <g id="ytick_9">
     <g id="line2d_24">
      <g>
       <use style="stroke:#000000;stroke-width:0.8;" x="43.78125" xlink:href="#m73000b061f" y="1033.367712"/>
      </g>
     </g>
     <g id="text_27">
      <!-- 0.4 -->
      <g transform="translate(20.878125 1037.166931)scale(0.1 -0.1)">
       <use xlink:href="#DejaVuSans-30"/>
       <use x="63.623047" xlink:href="#DejaVuSans-2e"/>
       <use x="95.410156" xlink:href="#DejaVuSans-34"/>
      </g>
     </g>
    </g>
    <g id="ytick_10">
     <g id="line2d_25">
      <g>
       <use style="stroke:#000000;stroke-width:0.8;" x="43.78125" xlink:href="#m73000b061f" y="930.723084"/>
      </g>
     </g>
     <g id="text_28">
      <!-- 0.6 -->
      <g transform="translate(20.878125 934.522302)scale(0.1 -0.1)">
       <use xlink:href="#DejaVuSans-30"/>
       <use x="63.623047" xlink:href="#DejaVuSans-2e"/>
       <use x="95.410156" xlink:href="#DejaVuSans-36"/>
      </g>
     </g>
    </g>
    <g id="ytick_11">
     <g id="line2d_26">
      <g>
       <use style="stroke:#000000;stroke-width:0.8;" x="43.78125" xlink:href="#m73000b061f" y="828.078456"/>
      </g>
     </g>
     <g id="text_29">
      <!-- 0.8 -->
      <g transform="translate(20.878125 831.877674)scale(0.1 -0.1)">
       <use xlink:href="#DejaVuSans-30"/>
       <use x="63.623047" xlink:href="#DejaVuSans-2e"/>
       <use x="95.410156" xlink:href="#DejaVuSans-38"/>
      </g>
     </g>
    </g>
    <g id="ytick_12">
     <g id="line2d_27">
      <g>
       <use style="stroke:#000000;stroke-width:0.8;" x="43.78125" xlink:href="#m73000b061f" y="725.433827"/>
      </g>
     </g>
     <g id="text_30">
      <!-- 1.0 -->
      <g transform="translate(20.878125 729.233046)scale(0.1 -0.1)">
       <use xlink:href="#DejaVuSans-31"/>
       <use x="63.623047" xlink:href="#DejaVuSans-2e"/>
       <use x="95.410156" xlink:href="#DejaVuSans-30"/>
      </g>
     </g>
    </g>
    <g id="text_31">
     <!-- GCaMP -->
     <g transform="translate(14.798437 999.803991)rotate(-90)scale(0.1 -0.1)">
      <use xlink:href="#DejaVuSans-47"/>
      <use x="77.490234" xlink:href="#DejaVuSans-43"/>
      <use x="147.314453" xlink:href="#DejaVuSans-61"/>
      <use x="208.59375" xlink:href="#DejaVuSans-4d"/>
      <use x="294.873047" xlink:href="#DejaVuSans-50"/>
     </g>
    </g>
   </g>
   <g id="line2d_28">
    <path clip-path="url(#pe00a26bb27)" d="M 119.872159 1238.656968 
L 542.117887 1238.656968 
L 543.356145 725.433827 
L 605.269008 725.433827 
L 606.507265 1238.656968 
L 648.608012 1238.656968 
L 649.84627 725.433827 
L 758.812909 725.433827 
L 760.051166 1238.656968 
L 912.35681 1238.656968 
L 913.595068 725.433827 
L 959.410586 725.433827 
L 960.648844 1238.656968 
L 1021.32345 1238.656968 
L 1022.561707 725.433827 
L 1062.18594 725.433827 
L 1063.424197 1238.656968 
L 1143.910919 1238.656968 
L 1145.149177 725.433827 
L 1153.816977 725.433827 
L 1155.055235 1238.656968 
L 1581.015735 1238.656968 
L 1582.253992 725.433827 
L 1641.690341 725.433827 
L 1641.690341 725.433827 
" style="fill:none;stroke:#008000;stroke-linecap:square;stroke-width:1.5;"/>
   </g>
   <g id="patch_8">
    <path d="M 43.78125 1264.318125 
L 43.78125 699.77267 
" style="fill:none;stroke:#000000;stroke-linecap:square;stroke-linejoin:miter;stroke-width:0.8;"/>
   </g>
   <g id="patch_9">
    <path d="M 1717.78125 1264.318125 
L 1717.78125 699.77267 
" style="fill:none;stroke:#000000;stroke-linecap:square;stroke-linejoin:miter;stroke-width:0.8;"/>
   </g>
   <g id="patch_10">
    <path d="M 43.78125 1264.318125 
L 1717.78125 1264.318125 
" style="fill:none;stroke:#000000;stroke-linecap:square;stroke-linejoin:miter;stroke-width:0.8;"/>
   </g>
   <g id="patch_11">
    <path d="M 43.78125 699.77267 
L 1717.78125 699.77267 
" style="fill:none;stroke:#000000;stroke-linecap:square;stroke-linejoin:miter;stroke-width:0.8;"/>
   </g>
   <g id="text_32">
    <!-- before binarisation -->
    <g transform="translate(824.1825 693.77267)scale(0.12 -0.12)">
     <use xlink:href="#DejaVuSans-62"/>
     <use x="63.476562" xlink:href="#DejaVuSans-65"/>
     <use x="125" xlink:href="#DejaVuSans-66"/>
     <use x="160.205078" xlink:href="#DejaVuSans-6f"/>
     <use x="221.386719" xlink:href="#DejaVuSans-72"/>
     <use x="260.25" xlink:href="#DejaVuSans-65"/>
     <use x="321.773438" xlink:href="#DejaVuSans-20"/>
     <use x="353.560547" xlink:href="#DejaVuSans-62"/>
     <use x="417.037109" xlink:href="#DejaVuSans-69"/>
     <use x="444.820312" xlink:href="#DejaVuSans-6e"/>
     <use x="508.199219" xlink:href="#DejaVuSans-61"/>
     <use x="569.478516" xlink:href="#DejaVuSans-72"/>
     <use x="610.591797" xlink:href="#DejaVuSans-69"/>
     <use x="638.375" xlink:href="#DejaVuSans-73"/>
     <use x="690.474609" xlink:href="#DejaVuSans-61"/>
     <use x="751.753906" xlink:href="#DejaVuSans-74"/>
     <use x="790.962891" xlink:href="#DejaVuSans-69"/>
     <use x="818.746094" xlink:href="#DejaVuSans-6f"/>
     <use x="879.927734" xlink:href="#DejaVuSans-6e"/>
    </g>
   </g>
  </g>
 </g>
 <defs>
  <clipPath id="p1c27c0017e">
   <rect height="564.545455" width="1674" x="43.78125" y="22.318125"/>
  </clipPath>
  <clipPath id="pe00a26bb27">
   <rect height="564.545455" width="1674" x="43.78125" y="699.77267"/>
  </clipPath>
 </defs>
</svg>
