<?xml version="1.0" encoding="utf-8" standalone="no"?>
<!DOCTYPE svg PUBLIC "-//W3C//DTD SVG 1.1//EN"
  "http://www.w3.org/Graphics/SVG/1.1/DTD/svg11.dtd">
<svg height="1301.874375pt" version="1.1" viewBox="0 0 1724.98125 1301.874375" width="1724.98125pt" xmlns="http://www.w3.org/2000/svg" xmlns:xlink="http://www.w3.org/1999/xlink">
 <metadata>
  <rdf:RDF xmlns:cc="http://creativecommons.org/ns#" xmlns:dc="http://purl.org/dc/elements/1.1/" xmlns:rdf="http://www.w3.org/1999/02/22-rdf-syntax-ns#">
   <cc:Work>
    <dc:type rdf:resource="http://purl.org/dc/dcmitype/StillImage"/>
    <dc:date>2022-07-24T15:54:41.369656</dc:date>
    <dc:format>image/svg+xml</dc:format>
    <dc:creator>
     <cc:Agent>
      <dc:title>Matplotlib v3.4.2, https://matplotlib.org/</dc:title>
     </cc:Agent>
    </dc:creator>
   </cc:Work>
  </rdf:RDF>
 </metadata>
 <defs>
  <style type="text/css">*{stroke-linecap:butt;stroke-linejoin:round;}</style>
 </defs>
 <g id="figure_1">
  <g id="patch_1">
   <path d="M 0 1301.874375 
L 1724.98125 1301.874375 
L 1724.98125 0 
L 0 0 
z
" style="fill:#ffffff;"/>
  </g>
  <g id="axes_1">
   <g id="patch_2">
    <path d="M 43.78125 586.86358 
L 1717.78125 586.86358 
L 1717.78125 22.318125 
L 43.78125 22.318125 
z
" style="fill:#ffffff;"/>
   </g>
   <g id="matplotlib.axis_1">
    <g id="xtick_1">
     <g id="line2d_1">
      <defs>
       <path d="M 0 0 
L 0 3.5 
" id="m5d664586d2" style="stroke:#000000;stroke-width:0.8;"/>
      </defs>
      <g>
       <use style="stroke:#000000;stroke-width:0.8;" x="119.872159" xlink:href="#m5d664586d2" y="586.86358"/>
      </g>
     </g>
     <g id="text_1">
      <!-- 0 -->
      <g transform="translate(116.690909 601.462017)scale(0.1 -0.1)">
       <defs>
        <path d="M 2034 4250 
Q 1547 4250 1301 3770 
Q 1056 3291 1056 2328 
Q 1056 1369 1301 889 
Q 1547 409 2034 409 
Q 2525 409 2770 889 
Q 3016 1369 3016 2328 
Q 3016 3291 2770 3770 
Q 2525 4250 2034 4250 
z
M 2034 4750 
Q 2819 4750 3233 4129 
Q 3647 3509 3647 2328 
Q 3647 1150 3233 529 
Q 2819 -91 2034 -91 
Q 1250 -91 836 529 
Q 422 1150 422 2328 
Q 422 3509 836 4129 
Q 1250 4750 2034 4750 
z
" id="DejaVuSans-30" transform="scale(0.015625)"/>
       </defs>
       <use xlink:href="#DejaVuSans-30"/>
      </g>
     </g>
    </g>
    <g id="xtick_2">
     <g id="line2d_2">
      <g>
       <use style="stroke:#000000;stroke-width:0.8;" x="367.523613" xlink:href="#m5d664586d2" y="586.86358"/>
      </g>
     </g>
     <g id="text_2">
      <!-- 200 -->
      <g transform="translate(357.979863 601.462017)scale(0.1 -0.1)">
       <defs>
        <path d="M 1228 531 
L 3431 531 
L 3431 0 
L 469 0 
L 469 531 
Q 828 903 1448 1529 
Q 2069 2156 2228 2338 
Q 2531 2678 2651 2914 
Q 2772 3150 2772 3378 
Q 2772 3750 2511 3984 
Q 2250 4219 1831 4219 
Q 1534 4219 1204 4116 
Q 875 4013 500 3803 
L 500 4441 
Q 881 4594 1212 4672 
Q 1544 4750 1819 4750 
Q 2544 4750 2975 4387 
Q 3406 4025 3406 3419 
Q 3406 3131 3298 2873 
Q 3191 2616 2906 2266 
Q 2828 2175 2409 1742 
Q 1991 1309 1228 531 
z
" id="DejaVuSans-32" transform="scale(0.015625)"/>
       </defs>
       <use xlink:href="#DejaVuSans-32"/>
       <use x="63.623047" xlink:href="#DejaVuSans-30"/>
       <use x="127.246094" xlink:href="#DejaVuSans-30"/>
      </g>
     </g>
    </g>
    <g id="xtick_3">
     <g id="line2d_3">
      <g>
       <use style="stroke:#000000;stroke-width:0.8;" x="615.175066" xlink:href="#m5d664586d2" y="586.86358"/>
      </g>
     </g>
     <g id="text_3">
      <!-- 400 -->
      <g transform="translate(605.631316 601.462017)scale(0.1 -0.1)">
       <defs>
        <path d="M 2419 4116 
L 825 1625 
L 2419 1625 
L 2419 4116 
z
M 2253 4666 
L 3047 4666 
L 3047 1625 
L 3713 1625 
L 3713 1100 
L 3047 1100 
L 3047 0 
L 2419 0 
L 2419 1100 
L 313 1100 
L 313 1709 
L 2253 4666 
z
" id="DejaVuSans-34" transform="scale(0.015625)"/>
       </defs>
       <use xlink:href="#DejaVuSans-34"/>
       <use x="63.623047" xlink:href="#DejaVuSans-30"/>
       <use x="127.246094" xlink:href="#DejaVuSans-30"/>
      </g>
     </g>
    </g>
    <g id="xtick_4">
     <g id="line2d_4">
      <g>
       <use style="stroke:#000000;stroke-width:0.8;" x="862.82652" xlink:href="#m5d664586d2" y="586.86358"/>
      </g>
     </g>
     <g id="text_4">
      <!-- 600 -->
      <g transform="translate(853.28277 601.462017)scale(0.1 -0.1)">
       <defs>
        <path d="M 2113 2584 
Q 1688 2584 1439 2293 
Q 1191 2003 1191 1497 
Q 1191 994 1439 701 
Q 1688 409 2113 409 
Q 2538 409 2786 701 
Q 3034 994 3034 1497 
Q 3034 2003 2786 2293 
Q 2538 2584 2113 2584 
z
M 3366 4563 
L 3366 3988 
Q 3128 4100 2886 4159 
Q 2644 4219 2406 4219 
Q 1781 4219 1451 3797 
Q 1122 3375 1075 2522 
Q 1259 2794 1537 2939 
Q 1816 3084 2150 3084 
Q 2853 3084 3261 2657 
Q 3669 2231 3669 1497 
Q 3669 778 3244 343 
Q 2819 -91 2113 -91 
Q 1303 -91 875 529 
Q 447 1150 447 2328 
Q 447 3434 972 4092 
Q 1497 4750 2381 4750 
Q 2619 4750 2861 4703 
Q 3103 4656 3366 4563 
z
" id="DejaVuSans-36" transform="scale(0.015625)"/>
       </defs>
       <use xlink:href="#DejaVuSans-36"/>
       <use x="63.623047" xlink:href="#DejaVuSans-30"/>
       <use x="127.246094" xlink:href="#DejaVuSans-30"/>
      </g>
     </g>
    </g>
    <g id="xtick_5">
     <g id="line2d_5">
      <g>
       <use style="stroke:#000000;stroke-width:0.8;" x="1110.477973" xlink:href="#m5d664586d2" y="586.86358"/>
      </g>
     </g>
     <g id="text_5">
      <!-- 800 -->
      <g transform="translate(1100.934223 601.462017)scale(0.1 -0.1)">
       <defs>
        <path d="M 2034 2216 
Q 1584 2216 1326 1975 
Q 1069 1734 1069 1313 
Q 1069 891 1326 650 
Q 1584 409 2034 409 
Q 2484 409 2743 651 
Q 3003 894 3003 1313 
Q 3003 1734 2745 1975 
Q 2488 2216 2034 2216 
z
M 1403 2484 
Q 997 2584 770 2862 
Q 544 3141 544 3541 
Q 544 4100 942 4425 
Q 1341 4750 2034 4750 
Q 2731 4750 3128 4425 
Q 3525 4100 3525 3541 
Q 3525 3141 3298 2862 
Q 3072 2584 2669 2484 
Q 3125 2378 3379 2068 
Q 3634 1759 3634 1313 
Q 3634 634 3220 271 
Q 2806 -91 2034 -91 
Q 1263 -91 848 271 
Q 434 634 434 1313 
Q 434 1759 690 2068 
Q 947 2378 1403 2484 
z
M 1172 3481 
Q 1172 3119 1398 2916 
Q 1625 2713 2034 2713 
Q 2441 2713 2670 2916 
Q 2900 3119 2900 3481 
Q 2900 3844 2670 4047 
Q 2441 4250 2034 4250 
Q 1625 4250 1398 4047 
Q 1172 3844 1172 3481 
z
" id="DejaVuSans-38" transform="scale(0.015625)"/>
       </defs>
       <use xlink:href="#DejaVuSans-38"/>
       <use x="63.623047" xlink:href="#DejaVuSans-30"/>
       <use x="127.246094" xlink:href="#DejaVuSans-30"/>
      </g>
     </g>
    </g>
    <g id="xtick_6">
     <g id="line2d_6">
      <g>
       <use style="stroke:#000000;stroke-width:0.8;" x="1358.129427" xlink:href="#m5d664586d2" y="586.86358"/>
      </g>
     </g>
     <g id="text_6">
      <!-- 1000 -->
      <g transform="translate(1345.404427 601.462017)scale(0.1 -0.1)">
       <defs>
        <path d="M 794 531 
L 1825 531 
L 1825 4091 
L 703 3866 
L 703 4441 
L 1819 4666 
L 2450 4666 
L 2450 531 
L 3481 531 
L 3481 0 
L 794 0 
L 794 531 
z
" id="DejaVuSans-31" transform="scale(0.015625)"/>
       </defs>
       <use xlink:href="#DejaVuSans-31"/>
       <use x="63.623047" xlink:href="#DejaVuSans-30"/>
       <use x="127.246094" xlink:href="#DejaVuSans-30"/>
       <use x="190.869141" xlink:href="#DejaVuSans-30"/>
      </g>
     </g>
    </g>
    <g id="xtick_7">
     <g id="line2d_7">
      <g>
       <use style="stroke:#000000;stroke-width:0.8;" x="1605.78088" xlink:href="#m5d664586d2" y="586.86358"/>
      </g>
     </g>
     <g id="text_7">
      <!-- 1200 -->
      <g transform="translate(1593.05588 601.462017)scale(0.1 -0.1)">
       <use xlink:href="#DejaVuSans-31"/>
       <use x="63.623047" xlink:href="#DejaVuSans-32"/>
       <use x="127.246094" xlink:href="#DejaVuSans-30"/>
       <use x="190.869141" xlink:href="#DejaVuSans-30"/>
      </g>
     </g>
    </g>
    <g id="text_8">
     <!-- frame -->
     <g transform="translate(865.954687 615.140142)scale(0.1 -0.1)">
      <defs>
       <path d="M 2375 4863 
L 2375 4384 
L 1825 4384 
Q 1516 4384 1395 4259 
Q 1275 4134 1275 3809 
L 1275 3500 
L 2222 3500 
L 2222 3053 
L 1275 3053 
L 1275 0 
L 697 0 
L 697 3053 
L 147 3053 
L 147 3500 
L 697 3500 
L 697 3744 
Q 697 4328 969 4595 
Q 1241 4863 1831 4863 
L 2375 4863 
z
" id="DejaVuSans-66" transform="scale(0.015625)"/>
       <path d="M 2631 2963 
Q 2534 3019 2420 3045 
Q 2306 3072 2169 3072 
Q 1681 3072 1420 2755 
Q 1159 2438 1159 1844 
L 1159 0 
L 581 0 
L 581 3500 
L 1159 3500 
L 1159 2956 
Q 1341 3275 1631 3429 
Q 1922 3584 2338 3584 
Q 2397 3584 2469 3576 
Q 2541 3569 2628 3553 
L 2631 2963 
z
" id="DejaVuSans-72" transform="scale(0.015625)"/>
       <path d="M 2194 1759 
Q 1497 1759 1228 1600 
Q 959 1441 959 1056 
Q 959 750 1161 570 
Q 1363 391 1709 391 
Q 2188 391 2477 730 
Q 2766 1069 2766 1631 
L 2766 1759 
L 2194 1759 
z
M 3341 1997 
L 3341 0 
L 2766 0 
L 2766 531 
Q 2569 213 2275 61 
Q 1981 -91 1556 -91 
Q 1019 -91 701 211 
Q 384 513 384 1019 
Q 384 1609 779 1909 
Q 1175 2209 1959 2209 
L 2766 2209 
L 2766 2266 
Q 2766 2663 2505 2880 
Q 2244 3097 1772 3097 
Q 1472 3097 1187 3025 
Q 903 2953 641 2809 
L 641 3341 
Q 956 3463 1253 3523 
Q 1550 3584 1831 3584 
Q 2591 3584 2966 3190 
Q 3341 2797 3341 1997 
z
" id="DejaVuSans-61" transform="scale(0.015625)"/>
       <path d="M 3328 2828 
Q 3544 3216 3844 3400 
Q 4144 3584 4550 3584 
Q 5097 3584 5394 3201 
Q 5691 2819 5691 2113 
L 5691 0 
L 5113 0 
L 5113 2094 
Q 5113 2597 4934 2840 
Q 4756 3084 4391 3084 
Q 3944 3084 3684 2787 
Q 3425 2491 3425 1978 
L 3425 0 
L 2847 0 
L 2847 2094 
Q 2847 2600 2669 2842 
Q 2491 3084 2119 3084 
Q 1678 3084 1418 2786 
Q 1159 2488 1159 1978 
L 1159 0 
L 581 0 
L 581 3500 
L 1159 3500 
L 1159 2956 
Q 1356 3278 1631 3431 
Q 1906 3584 2284 3584 
Q 2666 3584 2933 3390 
Q 3200 3197 3328 2828 
z
" id="DejaVuSans-6d" transform="scale(0.015625)"/>
       <path d="M 3597 1894 
L 3597 1613 
L 953 1613 
Q 991 1019 1311 708 
Q 1631 397 2203 397 
Q 2534 397 2845 478 
Q 3156 559 3463 722 
L 3463 178 
Q 3153 47 2828 -22 
Q 2503 -91 2169 -91 
Q 1331 -91 842 396 
Q 353 884 353 1716 
Q 353 2575 817 3079 
Q 1281 3584 2069 3584 
Q 2775 3584 3186 3129 
Q 3597 2675 3597 1894 
z
M 3022 2063 
Q 3016 2534 2758 2815 
Q 2500 3097 2075 3097 
Q 1594 3097 1305 2825 
Q 1016 2553 972 2059 
L 3022 2063 
z
" id="DejaVuSans-65" transform="scale(0.015625)"/>
      </defs>
      <use xlink:href="#DejaVuSans-66"/>
      <use x="35.205078" xlink:href="#DejaVuSans-72"/>
      <use x="76.318359" xlink:href="#DejaVuSans-61"/>
      <use x="137.597656" xlink:href="#DejaVuSans-6d"/>
      <use x="235.009766" xlink:href="#DejaVuSans-65"/>
     </g>
    </g>
   </g>
   <g id="matplotlib.axis_2">
    <g id="ytick_1">
     <g id="line2d_8">
      <defs>
       <path d="M 0 0 
L -3.5 0 
" id="m10484185a8" style="stroke:#000000;stroke-width:0.8;"/>
      </defs>
      <g>
       <use style="stroke:#000000;stroke-width:0.8;" x="43.78125" xlink:href="#m10484185a8" y="561.202423"/>
      </g>
     </g>
     <g id="text_9">
      <!-- 0 -->
      <g transform="translate(30.41875 565.001641)scale(0.1 -0.1)">
       <use xlink:href="#DejaVuSans-30"/>
      </g>
     </g>
    </g>
    <g id="ytick_2">
     <g id="line2d_9">
      <g>
       <use style="stroke:#000000;stroke-width:0.8;" x="43.78125" xlink:href="#m10484185a8" y="446.162342"/>
      </g>
     </g>
     <g id="text_10">
      <!-- 1 -->
      <g transform="translate(30.41875 449.96156)scale(0.1 -0.1)">
       <use xlink:href="#DejaVuSans-31"/>
      </g>
     </g>
    </g>
    <g id="ytick_3">
     <g id="line2d_10">
      <g>
       <use style="stroke:#000000;stroke-width:0.8;" x="43.78125" xlink:href="#m10484185a8" y="331.122261"/>
      </g>
     </g>
     <g id="text_11">
      <!-- 2 -->
      <g transform="translate(30.41875 334.921479)scale(0.1 -0.1)">
       <use xlink:href="#DejaVuSans-32"/>
      </g>
     </g>
    </g>
    <g id="ytick_4">
     <g id="line2d_11">
      <g>
       <use style="stroke:#000000;stroke-width:0.8;" x="43.78125" xlink:href="#m10484185a8" y="216.08218"/>
      </g>
     </g>
     <g id="text_12">
      <!-- 3 -->
      <g transform="translate(30.41875 219.881398)scale(0.1 -0.1)">
       <defs>
        <path d="M 2597 2516 
Q 3050 2419 3304 2112 
Q 3559 1806 3559 1356 
Q 3559 666 3084 287 
Q 2609 -91 1734 -91 
Q 1441 -91 1130 -33 
Q 819 25 488 141 
L 488 750 
Q 750 597 1062 519 
Q 1375 441 1716 441 
Q 2309 441 2620 675 
Q 2931 909 2931 1356 
Q 2931 1769 2642 2001 
Q 2353 2234 1838 2234 
L 1294 2234 
L 1294 2753 
L 1863 2753 
Q 2328 2753 2575 2939 
Q 2822 3125 2822 3475 
Q 2822 3834 2567 4026 
Q 2313 4219 1838 4219 
Q 1578 4219 1281 4162 
Q 984 4106 628 3988 
L 628 4550 
Q 988 4650 1302 4700 
Q 1616 4750 1894 4750 
Q 2613 4750 3031 4423 
Q 3450 4097 3450 3541 
Q 3450 3153 3228 2886 
Q 3006 2619 2597 2516 
z
" id="DejaVuSans-33" transform="scale(0.015625)"/>
       </defs>
       <use xlink:href="#DejaVuSans-33"/>
      </g>
     </g>
    </g>
    <g id="ytick_5">
     <g id="line2d_12">
      <g>
       <use style="stroke:#000000;stroke-width:0.8;" x="43.78125" xlink:href="#m10484185a8" y="101.042099"/>
      </g>
     </g>
     <g id="text_13">
      <!-- 4 -->
      <g transform="translate(30.41875 104.841317)scale(0.1 -0.1)">
       <use xlink:href="#DejaVuSans-34"/>
      </g>
     </g>
    </g>
    <g id="text_14">
     <!-- GCaMP -->
     <g transform="translate(24.339062 322.349446)rotate(-90)scale(0.1 -0.1)">
      <defs>
       <path d="M 3809 666 
L 3809 1919 
L 2778 1919 
L 2778 2438 
L 4434 2438 
L 4434 434 
Q 4069 175 3628 42 
Q 3188 -91 2688 -91 
Q 1594 -91 976 548 
Q 359 1188 359 2328 
Q 359 3472 976 4111 
Q 1594 4750 2688 4750 
Q 3144 4750 3555 4637 
Q 3966 4525 4313 4306 
L 4313 3634 
Q 3963 3931 3569 4081 
Q 3175 4231 2741 4231 
Q 1884 4231 1454 3753 
Q 1025 3275 1025 2328 
Q 1025 1384 1454 906 
Q 1884 428 2741 428 
Q 3075 428 3337 486 
Q 3600 544 3809 666 
z
" id="DejaVuSans-47" transform="scale(0.015625)"/>
       <path d="M 4122 4306 
L 4122 3641 
Q 3803 3938 3442 4084 
Q 3081 4231 2675 4231 
Q 1875 4231 1450 3742 
Q 1025 3253 1025 2328 
Q 1025 1406 1450 917 
Q 1875 428 2675 428 
Q 3081 428 3442 575 
Q 3803 722 4122 1019 
L 4122 359 
Q 3791 134 3420 21 
Q 3050 -91 2638 -91 
Q 1578 -91 968 557 
Q 359 1206 359 2328 
Q 359 3453 968 4101 
Q 1578 4750 2638 4750 
Q 3056 4750 3426 4639 
Q 3797 4528 4122 4306 
z
" id="DejaVuSans-43" transform="scale(0.015625)"/>
       <path d="M 628 4666 
L 1569 4666 
L 2759 1491 
L 3956 4666 
L 4897 4666 
L 4897 0 
L 4281 0 
L 4281 4097 
L 3078 897 
L 2444 897 
L 1241 4097 
L 1241 0 
L 628 0 
L 628 4666 
z
" id="DejaVuSans-4d" transform="scale(0.015625)"/>
       <path d="M 1259 4147 
L 1259 2394 
L 2053 2394 
Q 2494 2394 2734 2622 
Q 2975 2850 2975 3272 
Q 2975 3691 2734 3919 
Q 2494 4147 2053 4147 
L 1259 4147 
z
M 628 4666 
L 2053 4666 
Q 2838 4666 3239 4311 
Q 3641 3956 3641 3272 
Q 3641 2581 3239 2228 
Q 2838 1875 2053 1875 
L 1259 1875 
L 1259 0 
L 628 0 
L 628 4666 
z
" id="DejaVuSans-50" transform="scale(0.015625)"/>
      </defs>
      <use xlink:href="#DejaVuSans-47"/>
      <use x="77.490234" xlink:href="#DejaVuSans-43"/>
      <use x="147.314453" xlink:href="#DejaVuSans-61"/>
      <use x="208.59375" xlink:href="#DejaVuSans-4d"/>
      <use x="294.873047" xlink:href="#DejaVuSans-50"/>
     </g>
    </g>
   </g>
   <g id="line2d_13">
    <path clip-path="url(#p65a6b2b505)" d="M 119.872159 450.437776 
L 121.110416 449.906298 
L 122.348674 449.927456 
L 123.586931 450.684643 
L 126.063445 452.997392 
L 127.301703 453.63071 
L 128.53996 453.712465 
L 129.778217 453.552391 
L 131.016474 453.72964 
L 132.254732 454.736265 
L 133.492989 456.577859 
L 135.969504 460.959237 
L 137.207761 462.808107 
L 138.446018 464.302786 
L 139.684275 465.440516 
L 140.922533 466.252088 
L 143.399047 467.490087 
L 144.637304 468.394852 
L 147.113819 470.627098 
L 148.352076 471.228561 
L 149.590334 471.264952 
L 150.828591 470.865606 
L 153.305105 469.732397 
L 154.543363 469.677157 
L 155.78162 470.386468 
L 158.258134 473.168316 
L 159.496392 474.125881 
L 160.734649 474.419159 
L 161.972906 474.154521 
L 164.449421 473.174341 
L 165.687678 473.001095 
L 169.40245 473.194213 
L 173.117222 472.713778 
L 174.355479 472.858729 
L 175.593736 473.358765 
L 179.308508 475.943898 
L 180.546765 476.482283 
L 181.785022 476.772211 
L 183.02328 476.845827 
L 184.261537 476.659813 
L 185.499794 476.157139 
L 187.976309 474.671218 
L 189.214566 474.222588 
L 190.452823 474.115972 
L 192.929338 474.104356 
L 195.405852 473.601496 
L 197.882367 473.092346 
L 202.835396 472.533855 
L 205.311911 472.162703 
L 206.550168 472.183059 
L 207.788425 472.466179 
L 209.026682 473.144286 
L 211.503197 475.162776 
L 212.741454 475.839909 
L 213.979711 476.114582 
L 216.456226 476.077858 
L 218.93274 475.626996 
L 221.409255 474.853102 
L 223.88577 473.543561 
L 225.124027 472.822347 
L 226.362284 472.229764 
L 227.600541 471.905008 
L 231.315313 471.656006 
L 232.55357 471.496385 
L 233.791828 471.557311 
L 242.459629 473.861413 
L 243.697886 473.793984 
L 244.936143 473.078603 
L 248.650915 469.355577 
L 249.889172 468.88312 
L 251.127429 468.933971 
L 253.603944 469.5578 
L 254.842201 469.571826 
L 258.556973 468.957943 
L 259.79523 469.108963 
L 263.510002 470.344473 
L 264.748259 470.47781 
L 265.986517 470.284307 
L 267.224774 469.714765 
L 269.701288 467.990614 
L 270.939546 467.587328 
L 272.177803 467.845752 
L 273.41606 468.572968 
L 275.892575 470.39642 
L 279.607347 473.639626 
L 280.845604 474.176857 
L 282.083861 474.076734 
L 284.560376 472.864113 
L 285.798633 472.561201 
L 290.751662 472.585804 
L 294.466434 472.509905 
L 295.704691 472.320583 
L 296.942948 472.257185 
L 300.65772 472.644128 
L 301.895977 472.360152 
L 305.610749 470.678859 
L 306.849006 470.41832 
L 309.325521 470.174436 
L 315.516807 468.815415 
L 316.755065 468.305878 
L 317.993322 467.554768 
L 319.231579 466.521226 
L 320.469836 465.166771 
L 322.946351 462.132969 
L 324.184608 461.096227 
L 326.661123 459.975152 
L 327.89938 458.940415 
L 330.375895 455.572215 
L 331.614152 454.37215 
L 332.852409 454.166861 
L 334.090666 454.964889 
L 335.328924 456.400436 
L 339.043695 461.181158 
L 340.281953 462.242817 
L 341.52021 462.549599 
L 342.758467 462.083534 
L 345.234982 460.268386 
L 346.473239 459.633395 
L 347.711496 459.354756 
L 350.188011 459.325473 
L 351.426268 459.021489 
L 353.902783 457.871643 
L 356.379297 456.5052 
L 357.617554 455.801984 
L 358.855812 455.313079 
L 360.094069 454.969533 
L 361.332326 454.496248 
L 363.808841 453.044388 
L 365.047098 452.719523 
L 366.285355 453.037061 
L 367.523613 453.992106 
L 370.000127 456.643989 
L 371.238384 457.579954 
L 372.476642 457.917127 
L 373.714899 457.563388 
L 374.953156 456.608207 
L 377.429671 454.164455 
L 378.667928 453.294728 
L 379.906185 452.686358 
L 381.144443 452.210592 
L 382.3827 451.878975 
L 383.620957 451.746386 
L 386.097472 451.661756 
L 387.335729 451.3596 
L 391.050501 449.636471 
L 393.527015 449.061444 
L 396.00353 448.230499 
L 397.241787 448.315599 
L 398.480044 449.053792 
L 399.718302 450.098366 
L 400.956559 450.94438 
L 402.194816 451.315781 
L 403.433073 451.187655 
L 404.671331 450.645178 
L 405.909588 449.795432 
L 410.862617 445.862352 
L 412.100874 445.437041 
L 413.339132 445.571762 
L 414.577389 446.141387 
L 418.292161 448.281093 
L 419.530418 448.684628 
L 420.768675 448.603773 
L 422.006932 447.871633 
L 423.24519 446.567489 
L 424.483447 445.071548 
L 425.721704 443.980225 
L 426.959961 443.756147 
L 428.198219 444.316942 
L 429.436476 445.100756 
L 430.674733 445.559343 
L 431.912991 445.403012 
L 433.151248 444.529093 
L 434.389505 443.011971 
L 436.86602 439.275775 
L 438.104277 437.994071 
L 439.342534 437.680934 
L 440.580791 438.443984 
L 444.295563 442.937809 
L 445.53382 443.335398 
L 446.772078 443.004801 
L 449.248592 441.475509 
L 450.48685 441.006018 
L 451.725107 441.071264 
L 452.963364 441.700038 
L 454.201621 442.799478 
L 456.678136 445.8384 
L 457.916393 447.279973 
L 459.15465 448.028488 
L 460.392908 447.825192 
L 462.869422 446.398334 
L 464.107679 446.003196 
L 465.345937 445.89639 
L 466.584194 446.143989 
L 469.060709 447.073972 
L 471.537223 447.860264 
L 474.013738 449.201312 
L 475.251995 449.924036 
L 476.490252 450.460923 
L 477.728509 450.425291 
L 478.966767 449.643516 
L 480.205024 448.493135 
L 481.443281 447.509945 
L 482.681538 446.911951 
L 483.919796 446.708739 
L 485.158053 446.970114 
L 486.39631 447.745046 
L 490.111082 451.118563 
L 492.587597 453.796193 
L 493.825854 454.544057 
L 495.064111 454.466837 
L 497.540626 453.194641 
L 498.778883 453.035402 
L 502.493655 453.821241 
L 503.731912 453.620472 
L 504.970169 453.061032 
L 506.208427 452.136521 
L 508.684941 449.590084 
L 509.923198 448.660026 
L 511.161456 448.310342 
L 512.399713 448.195661 
L 513.63797 447.746366 
L 514.876227 446.732822 
L 517.352742 444.078871 
L 518.590999 442.945499 
L 519.829257 441.968512 
L 521.067514 441.144814 
L 522.305771 440.654192 
L 523.544028 440.803682 
L 524.782286 441.764455 
L 527.2588 444.935142 
L 528.497057 445.69859 
L 529.735315 444.957042 
L 530.973572 442.271129 
L 532.211829 437.118679 
L 533.450086 428.514345 
L 534.688344 415.003694 
L 535.926601 395.396293 
L 537.164858 369.796098 
L 539.641373 308.41113 
L 543.356145 217.886268 
L 545.832659 161.142604 
L 547.070916 135.64863 
L 548.309174 113.641077 
L 549.547431 95.913644 
L 550.785688 82.644119 
L 552.023945 73.670494 
L 553.262203 68.429602 
L 554.50046 65.585608 
L 556.976975 61.455461 
L 558.215232 59.161852 
L 559.453489 56.529922 
L 561.930004 50.459298 
L 563.168261 48.599809 
L 564.406518 47.979282 
L 565.644775 47.985319 
L 566.883033 48.555466 
L 568.12129 50.331437 
L 569.359547 53.877271 
L 571.836062 64.551693 
L 573.074319 68.85393 
L 574.312576 71.452359 
L 575.550834 72.928127 
L 576.789091 73.895722 
L 578.027348 74.433327 
L 579.265605 74.04794 
L 580.503863 71.948491 
L 581.74212 67.853452 
L 582.980377 62.654847 
L 584.218634 58.13479 
L 585.456892 56.027786 
L 586.695149 56.709563 
L 589.171663 60.789269 
L 590.409921 63.203318 
L 591.648178 67.627738 
L 592.886435 74.948036 
L 594.124693 84.700415 
L 596.601207 107.707519 
L 601.554236 156.23907 
L 606.507265 209.950794 
L 607.745523 220.57251 
L 610.222037 238.269868 
L 612.698552 255.507704 
L 616.413323 285.32558 
L 617.651581 291.962664 
L 618.889838 295.67757 
L 621.366352 299.167361 
L 622.60461 303.414519 
L 623.842867 310.925218 
L 626.319382 329.218222 
L 627.557639 336.169475 
L 628.795896 340.591609 
L 630.034153 342.763735 
L 631.272411 343.240926 
L 632.510668 342.374826 
L 633.748925 340.633833 
L 634.987182 339.134033 
L 636.22544 339.268875 
L 637.463697 341.727347 
L 639.940211 349.780078 
L 641.178469 351.245116 
L 642.416726 348.745923 
L 643.654983 342.127517 
L 644.893241 332.301734 
L 646.131498 320.414571 
L 648.608012 293.255995 
L 654.799299 222.016417 
L 656.037556 210.244117 
L 657.275813 201.287174 
L 658.51407 195.002164 
L 659.752328 190.749518 
L 663.4671 181.512095 
L 664.705357 177.425255 
L 667.181871 168.239135 
L 668.420129 164.818272 
L 669.658386 162.986872 
L 670.896643 162.752619 
L 672.1349 163.641132 
L 674.611415 166.321983 
L 677.087929 168.324371 
L 678.326187 169.803045 
L 679.564444 171.589765 
L 680.802701 172.879372 
L 682.040959 172.863378 
L 683.279216 171.146498 
L 684.517473 167.610752 
L 685.75573 162.04472 
L 686.993988 154.19379 
L 688.232245 144.264852 
L 690.708759 122.632729 
L 691.947017 113.805901 
L 693.185274 107.180523 
L 694.423531 102.579038 
L 695.661789 99.672968 
L 696.900046 97.973792 
L 698.138303 97.114183 
L 699.37656 97.131498 
L 700.614818 98.045323 
L 701.853075 99.187021 
L 703.091332 99.423904 
L 704.329589 98.277102 
L 706.806104 94.532156 
L 708.044361 93.321368 
L 709.282618 93.096338 
L 710.520876 94.203023 
L 711.759133 96.520984 
L 712.99739 99.222508 
L 714.235648 101.270237 
L 715.473905 102.286472 
L 719.188677 103.519392 
L 720.426934 104.322937 
L 721.665191 105.487915 
L 722.903448 107.292435 
L 724.141706 110.037069 
L 726.61822 117.123671 
L 727.856477 120.040605 
L 729.094735 122.003626 
L 731.571249 124.929505 
L 732.809507 125.428455 
L 734.047764 123.997443 
L 735.286021 120.524344 
L 736.524278 116.233805 
L 737.762536 113.074536 
L 739.000793 112.61973 
L 740.23905 115.52832 
L 741.477307 121.440783 
L 743.953822 136.211688 
L 745.192079 142.495637 
L 747.668594 153.303826 
L 750.145108 163.431652 
L 751.383366 168.140915 
L 752.621623 172.023702 
L 753.85988 174.60245 
L 755.098137 176.043229 
L 756.336395 177.082957 
L 757.574652 178.642648 
L 758.812909 181.575581 
L 760.051166 186.152829 
L 761.289424 191.603047 
L 762.527681 196.52008 
L 763.765938 199.819517 
L 765.004195 201.240615 
L 766.242453 201.183155 
L 767.48071 200.620439 
L 768.718967 201.150691 
L 769.957225 204.376078 
L 771.195482 210.896703 
L 772.433739 220.223334 
L 773.671996 231.632018 
L 776.148511 258.890852 
L 778.625025 287.152798 
L 781.10154 311.750137 
L 782.339797 322.965102 
L 783.578054 333.137786 
L 784.816312 341.559989 
L 786.054569 347.821085 
L 787.292826 352.222437 
L 788.531084 355.573684 
L 791.007598 361.277911 
L 792.245855 364.088981 
L 793.484113 367.401391 
L 794.72237 371.56766 
L 797.198884 380.867265 
L 798.437142 384.165454 
L 799.675399 386.318387 
L 800.913656 388.201204 
L 802.151914 390.639565 
L 803.390171 393.881398 
L 805.866685 401.84401 
L 807.104943 405.788145 
L 808.3432 409.026246 
L 809.581457 411.261742 
L 812.057972 414.448668 
L 813.296229 416.570483 
L 815.772743 421.868207 
L 818.249258 427.759179 
L 819.487515 430.370066 
L 820.725773 432.254085 
L 823.202287 434.577358 
L 824.440544 436.097821 
L 826.917059 439.509529 
L 828.155316 440.639162 
L 829.393573 441.346005 
L 830.631831 441.840506 
L 831.870088 442.203292 
L 833.108345 442.249915 
L 834.346602 441.729742 
L 836.823117 439.674118 
L 838.061374 439.124592 
L 839.299632 439.244438 
L 841.776146 440.428927 
L 843.014403 441.116253 
L 844.252661 442.072195 
L 845.490918 443.462719 
L 847.967432 447.044995 
L 849.20569 448.473098 
L 850.443947 448.99572 
L 851.682204 448.458107 
L 852.920461 447.312825 
L 854.158719 446.360471 
L 855.396976 446.163313 
L 856.635233 446.679748 
L 857.873491 447.448262 
L 859.111748 448.05212 
L 860.350005 448.355991 
L 861.588262 448.399737 
L 862.82652 448.20942 
L 864.064777 447.733626 
L 865.303034 446.863789 
L 867.779549 444.227536 
L 869.017806 443.21538 
L 870.256063 442.755392 
L 871.49432 442.724186 
L 872.732578 442.822127 
L 873.970835 442.780728 
L 875.209092 442.496712 
L 878.923864 441.076614 
L 880.162121 441.18049 
L 881.400379 441.532857 
L 882.638636 441.673114 
L 883.876893 441.411097 
L 885.11515 440.982818 
L 886.353408 440.68124 
L 887.591665 440.655426 
L 888.829922 441.079606 
L 890.06818 442.138503 
L 891.306437 443.766541 
L 892.544694 445.580752 
L 893.782951 447.00545 
L 895.021209 447.393488 
L 896.259466 446.158752 
L 897.497723 442.833209 
L 898.73598 436.89686 
L 899.974238 427.600132 
L 901.212495 414.303717 
L 902.450752 397.210478 
L 904.927267 356.693205 
L 907.403781 315.999892 
L 909.880296 279.082061 
L 912.35681 245.820633 
L 913.595068 231.438468 
L 914.833325 219.352991 
L 916.071582 209.549824 
L 917.309839 201.440962 
L 918.548097 194.500505 
L 919.786354 188.599365 
L 921.024611 183.815155 
L 922.262868 180.256822 
L 923.501126 177.874353 
L 924.739383 176.440493 
L 925.97764 175.862108 
L 928.454155 176.181748 
L 929.692412 175.511949 
L 932.168927 172.380513 
L 933.407184 171.691778 
L 934.645441 172.300153 
L 935.883698 174.074448 
L 937.121956 176.366149 
L 938.360213 178.332271 
L 939.59847 179.256952 
L 940.836727 178.756399 
L 943.313242 175.2116 
L 944.551499 174.315468 
L 945.789757 174.587087 
L 947.028014 175.243239 
L 948.266271 175.539337 
L 949.504528 175.428317 
L 950.742786 175.606785 
L 951.981043 177.11509 
L 953.2193 180.522698 
L 954.457557 185.539196 
L 955.695815 191.513772 
L 958.172329 205.111662 
L 959.410586 212.959512 
L 961.887101 231.0708 
L 965.601873 259.993282 
L 970.554902 300.703808 
L 971.793159 309.461187 
L 973.031416 317.149869 
L 974.269674 323.393095 
L 975.507931 328.017663 
L 976.746188 331.35862 
L 977.984446 334.378686 
L 979.222703 338.346416 
L 980.46096 343.952368 
L 984.175732 363.692963 
L 986.652246 374.143797 
L 989.128761 384.038637 
L 990.367018 388.479744 
L 991.605275 391.890148 
L 992.843533 393.792515 
L 994.08179 394.261211 
L 995.320047 394.042064 
L 996.558305 394.144182 
L 997.796562 395.232991 
L 999.034819 397.21705 
L 1000.273076 399.43052 
L 1001.511334 401.237937 
L 1002.749591 402.248958 
L 1003.987848 401.997104 
L 1005.226105 399.643901 
L 1006.464363 394.095924 
L 1007.70262 384.698932 
L 1008.940877 371.999946 
L 1012.655649 329.698705 
L 1013.893906 318.173343 
L 1015.132164 308.497859 
L 1020.085193 273.765502 
L 1023.799964 245.98377 
L 1026.276479 227.136872 
L 1028.752993 207.272635 
L 1029.991251 198.800227 
L 1031.229508 192.386677 
L 1032.467765 188.328503 
L 1033.706023 186.191743 
L 1034.94428 184.776455 
L 1036.182537 182.888271 
L 1037.420794 180.17567 
L 1038.659052 177.15628 
L 1039.897309 174.799813 
L 1041.135566 173.87194 
L 1042.373823 174.293938 
L 1044.850338 176.104635 
L 1048.56511 178.335343 
L 1049.803367 178.610459 
L 1051.041624 178.305453 
L 1052.279882 177.160907 
L 1054.756396 173.213691 
L 1055.994653 172.446911 
L 1057.232911 173.861493 
L 1058.471168 177.799795 
L 1059.709425 184.285131 
L 1060.947682 193.290369 
L 1062.18594 204.600541 
L 1064.662454 231.986804 
L 1067.138969 260.95967 
L 1069.615483 287.536462 
L 1070.853741 299.385528 
L 1072.091998 309.393065 
L 1073.330255 317.26597 
L 1077.045027 336.0728 
L 1078.283284 342.007626 
L 1079.521541 347.07499 
L 1081.998056 356.438072 
L 1086.951085 377.806462 
L 1088.189342 382.047508 
L 1089.4276 385.76278 
L 1090.665857 389.082536 
L 1091.904114 392.041923 
L 1093.142371 394.250586 
L 1094.380629 395.073413 
L 1095.618886 394.440751 
L 1096.857143 393.177248 
L 1098.0954 392.413321 
L 1099.333658 392.857072 
L 1100.571915 394.596776 
L 1101.810172 397.30221 
L 1105.524944 406.649463 
L 1106.763201 409.187906 
L 1108.001459 410.921962 
L 1109.239716 411.790878 
L 1111.71623 412.526417 
L 1112.954488 412.777898 
L 1114.192745 412.70009 
L 1115.431002 411.866566 
L 1116.669259 409.601393 
L 1117.907517 405.254682 
L 1119.145774 398.486911 
L 1120.384031 389.175585 
L 1121.622289 377.44935 
L 1124.098803 349.676382 
L 1129.051832 292.752782 
L 1131.528347 267.011855 
L 1132.766604 256.706066 
L 1134.004861 248.905628 
L 1135.243118 243.780461 
L 1136.481376 240.936108 
L 1137.719633 239.514841 
L 1138.95789 238.622645 
L 1140.196148 237.411674 
L 1141.434405 235.143064 
L 1142.672662 231.628541 
L 1145.149177 223.199675 
L 1146.387434 220.286131 
L 1147.625691 219.273967 
L 1150.102206 219.825343 
L 1151.340463 219.798414 
L 1152.57872 220.233311 
L 1153.816977 221.785694 
L 1155.055235 223.910358 
L 1156.293492 225.200225 
L 1157.531749 224.636467 
L 1158.770007 222.409273 
L 1160.008264 219.738553 
L 1161.246521 217.831467 
L 1162.484778 216.964271 
L 1163.723036 216.67657 
L 1164.961293 216.602407 
L 1166.19955 216.964675 
L 1167.437807 218.449555 
L 1168.676065 221.797296 
L 1169.914322 227.355921 
L 1171.152579 234.707264 
L 1173.629094 250.333338 
L 1174.867351 256.244214 
L 1176.105608 259.68075 
L 1177.343866 260.618739 
L 1178.582123 260.00296 
L 1179.82038 258.879006 
L 1181.058637 257.5861 
L 1187.249924 249.935122 
L 1188.488181 248.307769 
L 1189.726438 246.94359 
L 1190.964696 246.011801 
L 1192.202953 245.631662 
L 1193.44121 245.864616 
L 1194.679467 246.627632 
L 1198.394239 249.773317 
L 1199.632496 250.440903 
L 1200.870754 250.776216 
L 1202.109011 250.728247 
L 1203.347268 250.340264 
L 1204.585525 250.122686 
L 1205.823783 251.004347 
L 1207.06204 253.487777 
L 1208.300297 257.296946 
L 1209.538555 262.137758 
L 1210.776812 268.209807 
L 1212.015069 275.744694 
L 1216.968098 310.627948 
L 1218.206355 317.635046 
L 1220.68287 329.543123 
L 1221.921127 334.822044 
L 1223.159384 339.304179 
L 1224.397642 342.93665 
L 1226.874156 349.655993 
L 1228.112414 354.001872 
L 1230.588928 364.018684 
L 1231.827185 367.889906 
L 1233.065443 370.514181 
L 1235.541957 374.273169 
L 1236.780214 376.721585 
L 1238.018472 379.69619 
L 1239.256729 382.345734 
L 1240.494986 383.743976 
L 1241.733243 383.718727 
L 1244.209758 381.947597 
L 1245.448015 381.640168 
L 1246.686273 382.12469 
L 1249.162787 383.953428 
L 1251.639302 384.968226 
L 1252.877559 385.810655 
L 1254.115816 387.208023 
L 1255.354073 389.141555 
L 1256.592331 391.542459 
L 1259.068845 396.68678 
L 1260.307103 398.658826 
L 1261.54536 400.047223 
L 1262.783617 401.005328 
L 1265.260132 402.317422 
L 1268.974903 404.098947 
L 1270.213161 404.137024 
L 1272.689675 403.25554 
L 1273.927932 403.205934 
L 1275.16619 403.91755 
L 1276.404447 405.477769 
L 1277.642704 407.498366 
L 1278.880962 409.195642 
L 1280.119219 409.944319 
L 1281.357476 409.60198 
L 1282.595733 408.398856 
L 1283.833991 406.824974 
L 1285.072248 405.476925 
L 1286.310505 404.807235 
L 1287.548762 404.97598 
L 1288.78702 405.79551 
L 1291.263534 407.812261 
L 1292.501791 408.433169 
L 1293.740049 408.634637 
L 1294.978306 408.680566 
L 1296.216563 409.162935 
L 1297.454821 410.584863 
L 1298.693078 412.957908 
L 1299.931335 415.760597 
L 1301.169592 418.272764 
L 1302.40785 419.970637 
L 1303.646107 420.716258 
L 1304.884364 420.684504 
L 1306.122621 420.069935 
L 1307.360879 418.965109 
L 1309.837393 416.166593 
L 1311.07565 414.600602 
L 1312.313908 412.486934 
L 1314.790422 406.961786 
L 1316.02868 404.783639 
L 1317.266937 403.700009 
L 1318.505194 403.784723 
L 1320.981709 405.337517 
L 1322.219966 405.124108 
L 1323.458223 403.783581 
L 1324.69648 401.890062 
L 1325.934738 400.265983 
L 1327.172995 399.309706 
L 1328.411252 398.845718 
L 1329.649509 398.568464 
L 1330.887767 398.51248 
L 1332.126024 398.972343 
L 1333.364281 400.094295 
L 1334.602539 401.73751 
L 1338.31731 407.345762 
L 1339.555568 408.62584 
L 1340.793825 409.281494 
L 1342.032082 409.371484 
L 1343.270339 409.022202 
L 1345.746854 407.581018 
L 1346.985111 407.314479 
L 1348.223368 407.710758 
L 1349.461626 408.292681 
L 1350.699883 408.525252 
L 1351.93814 408.35119 
L 1354.414655 407.485146 
L 1355.652912 406.879749 
L 1356.891169 406.113781 
L 1358.129427 405.201346 
L 1359.367684 404.444925 
L 1360.605941 404.41423 
L 1361.844198 405.336744 
L 1363.082456 406.683037 
L 1364.320713 407.537123 
L 1365.55897 407.246008 
L 1366.797228 405.89888 
L 1368.035485 404.317592 
L 1369.273742 403.426164 
L 1370.511999 403.701565 
L 1371.750257 405.116143 
L 1375.465028 411.735006 
L 1376.703286 413.109436 
L 1377.941543 413.251049 
L 1379.1798 411.901908 
L 1381.656315 406.871063 
L 1382.894572 404.976629 
L 1384.132829 404.079684 
L 1385.371087 404.224864 
L 1386.609344 405.373416 
L 1387.847601 407.262532 
L 1390.324116 411.481193 
L 1391.562373 413.193583 
L 1392.80063 414.436373 
L 1394.038887 415.135299 
L 1395.277145 415.382895 
L 1396.515402 415.320606 
L 1397.753659 414.97231 
L 1398.991916 414.222997 
L 1400.230174 412.928561 
L 1402.706688 409.781483 
L 1403.944946 408.981823 
L 1405.183203 409.001014 
L 1406.42146 409.687438 
L 1407.659717 410.815988 
L 1408.897975 412.13029 
L 1410.136232 413.164156 
L 1411.374489 413.345095 
L 1412.612746 412.466739 
L 1415.089261 409.567851 
L 1416.327518 408.831005 
L 1417.565775 408.838767 
L 1418.804033 409.373846 
L 1421.280547 411.052553 
L 1422.518805 411.941697 
L 1423.757062 412.672714 
L 1424.995319 413.046507 
L 1426.233576 412.947566 
L 1427.471834 412.320239 
L 1428.710091 411.161703 
L 1431.186605 408.235686 
L 1432.424863 407.067323 
L 1433.66312 406.157643 
L 1434.901377 405.438244 
L 1436.139634 404.971919 
L 1437.377892 404.954509 
L 1438.616149 405.47304 
L 1441.092664 407.070708 
L 1442.330921 407.580364 
L 1443.569178 407.881017 
L 1444.807435 407.965381 
L 1448.522207 407.327789 
L 1450.998722 407.432124 
L 1452.236979 407.275597 
L 1453.475236 406.854266 
L 1454.713494 406.170762 
L 1457.190008 404.432773 
L 1458.428265 403.902872 
L 1459.666523 403.912133 
L 1460.90478 404.22865 
L 1462.143037 404.400989 
L 1463.381294 404.120943 
L 1465.857809 402.700358 
L 1467.096066 402.36057 
L 1468.334323 402.522797 
L 1469.572581 403.203331 
L 1470.810838 404.457179 
L 1473.287353 407.954929 
L 1474.52561 409.353298 
L 1475.763867 409.917472 
L 1477.002124 409.521052 
L 1478.240382 408.616898 
L 1479.478639 408.106899 
L 1480.716896 408.64622 
L 1483.193411 411.450611 
L 1484.431668 411.904395 
L 1485.669925 410.86984 
L 1486.908182 408.420547 
L 1489.384697 402.27946 
L 1490.622954 400.515146 
L 1491.861212 400.208597 
L 1493.099469 400.782339 
L 1494.337726 401.152315 
L 1495.575983 400.504203 
L 1498.052498 397.161326 
L 1499.290755 396.046236 
L 1501.76727 394.903834 
L 1503.005527 393.52307 
L 1504.243784 391.40369 
L 1506.720299 386.698465 
L 1510.435071 380.127225 
L 1511.673328 377.293861 
L 1512.911585 373.726171 
L 1516.626357 361.04538 
L 1517.864614 357.470883 
L 1519.102871 354.383368 
L 1522.817643 346.180209 
L 1526.532415 335.978372 
L 1527.770672 332.051852 
L 1529.00893 327.268882 
L 1531.485444 315.774874 
L 1535.200216 297.832001 
L 1536.438473 292.605341 
L 1537.67673 287.983383 
L 1540.153245 279.990592 
L 1541.391502 277.079213 
L 1542.62976 275.948245 
L 1543.868017 276.992545 
L 1545.106274 279.634684 
L 1546.344531 283.091966 
L 1547.582789 287.1061 
L 1555.012332 314.123648 
L 1556.250589 319.617823 
L 1561.203619 343.472454 
L 1562.441876 347.974838 
L 1563.680133 350.828789 
L 1564.91839 351.180096 
L 1566.156648 348.26171 
L 1567.394905 341.732226 
L 1568.633162 331.918836 
L 1569.871419 319.677311 
L 1572.347934 291.240339 
L 1577.300963 232.415866 
L 1578.53922 219.539488 
L 1579.777478 209.218715 
L 1581.015735 201.972675 
L 1582.253992 197.155924 
L 1583.492249 193.509016 
L 1584.730507 190.208814 
L 1585.968764 187.383325 
L 1587.207021 185.482133 
L 1588.445278 184.535602 
L 1589.683536 184.065344 
L 1590.921793 183.384242 
L 1592.16005 182.147262 
L 1593.398307 180.517537 
L 1594.636565 178.689328 
L 1597.113079 174.412308 
L 1598.351337 172.226571 
L 1599.589594 170.687022 
L 1600.827851 170.425443 
L 1602.066108 171.396973 
L 1603.304366 172.744053 
L 1604.542623 173.394814 
L 1605.78088 561.202423 
L 1607.019137 171.419158 
L 1608.257395 170.317281 
L 1609.495652 170.15079 
L 1610.733909 170.881397 
L 1611.972166 171.879565 
L 1613.210424 172.243695 
L 1614.448681 171.432367 
L 1615.686938 169.473247 
L 1619.40171 161.596083 
L 1620.639967 159.343961 
L 1621.878225 157.551536 
L 1623.116482 157.358978 
L 1624.354739 159.766061 
L 1625.592996 164.398514 
L 1626.831254 169.837388 
L 1628.069511 174.294058 
L 1629.307768 176.231336 
L 1630.546026 175.491067 
L 1631.784283 173.346364 
L 1634.260797 168.586947 
L 1635.499055 166.757452 
L 1636.737312 166.278017 
L 1637.975569 167.614918 
L 1639.213826 170.959274 
L 1640.452084 176.534871 
L 1641.690341 183.821309 
L 1641.690341 183.821309 
" style="fill:none;stroke:#008000;stroke-linecap:square;stroke-width:1.5;"/>
   </g>
   <g id="patch_3">
    <path d="M 43.78125 586.86358 
L 43.78125 22.318125 
" style="fill:none;stroke:#000000;stroke-linecap:square;stroke-linejoin:miter;stroke-width:0.8;"/>
   </g>
   <g id="patch_4">
    <path d="M 1717.78125 586.86358 
L 1717.78125 22.318125 
" style="fill:none;stroke:#000000;stroke-linecap:square;stroke-linejoin:miter;stroke-width:0.8;"/>
   </g>
   <g id="patch_5">
    <path d="M 43.78125 586.86358 
L 1717.78125 586.86358 
" style="fill:none;stroke:#000000;stroke-linecap:square;stroke-linejoin:miter;stroke-width:0.8;"/>
   </g>
   <g id="patch_6">
    <path d="M 43.78125 22.318125 
L 1717.78125 22.318125 
" style="fill:none;stroke:#000000;stroke-linecap:square;stroke-linejoin:miter;stroke-width:0.8;"/>
   </g>
   <g id="text_15">
    <!-- before binarisation -->
    <g transform="translate(824.1825 16.318125)scale(0.12 -0.12)">
     <defs>
      <path d="M 3116 1747 
Q 3116 2381 2855 2742 
Q 2594 3103 2138 3103 
Q 1681 3103 1420 2742 
Q 1159 2381 1159 1747 
Q 1159 1113 1420 752 
Q 1681 391 2138 391 
Q 2594 391 2855 752 
Q 3116 1113 3116 1747 
z
M 1159 2969 
Q 1341 3281 1617 3432 
Q 1894 3584 2278 3584 
Q 2916 3584 3314 3078 
Q 3713 2572 3713 1747 
Q 3713 922 3314 415 
Q 2916 -91 2278 -91 
Q 1894 -91 1617 61 
Q 1341 213 1159 525 
L 1159 0 
L 581 0 
L 581 4863 
L 1159 4863 
L 1159 2969 
z
" id="DejaVuSans-62" transform="scale(0.015625)"/>
      <path d="M 1959 3097 
Q 1497 3097 1228 2736 
Q 959 2375 959 1747 
Q 959 1119 1226 758 
Q 1494 397 1959 397 
Q 2419 397 2687 759 
Q 2956 1122 2956 1747 
Q 2956 2369 2687 2733 
Q 2419 3097 1959 3097 
z
M 1959 3584 
Q 2709 3584 3137 3096 
Q 3566 2609 3566 1747 
Q 3566 888 3137 398 
Q 2709 -91 1959 -91 
Q 1206 -91 779 398 
Q 353 888 353 1747 
Q 353 2609 779 3096 
Q 1206 3584 1959 3584 
z
" id="DejaVuSans-6f" transform="scale(0.015625)"/>
      <path id="DejaVuSans-20" transform="scale(0.015625)"/>
      <path d="M 603 3500 
L 1178 3500 
L 1178 0 
L 603 0 
L 603 3500 
z
M 603 4863 
L 1178 4863 
L 1178 4134 
L 603 4134 
L 603 4863 
z
" id="DejaVuSans-69" transform="scale(0.015625)"/>
      <path d="M 3513 2113 
L 3513 0 
L 2938 0 
L 2938 2094 
Q 2938 2591 2744 2837 
Q 2550 3084 2163 3084 
Q 1697 3084 1428 2787 
Q 1159 2491 1159 1978 
L 1159 0 
L 581 0 
L 581 3500 
L 1159 3500 
L 1159 2956 
Q 1366 3272 1645 3428 
Q 1925 3584 2291 3584 
Q 2894 3584 3203 3211 
Q 3513 2838 3513 2113 
z
" id="DejaVuSans-6e" transform="scale(0.015625)"/>
      <path d="M 2834 3397 
L 2834 2853 
Q 2591 2978 2328 3040 
Q 2066 3103 1784 3103 
Q 1356 3103 1142 2972 
Q 928 2841 928 2578 
Q 928 2378 1081 2264 
Q 1234 2150 1697 2047 
L 1894 2003 
Q 2506 1872 2764 1633 
Q 3022 1394 3022 966 
Q 3022 478 2636 193 
Q 2250 -91 1575 -91 
Q 1294 -91 989 -36 
Q 684 19 347 128 
L 347 722 
Q 666 556 975 473 
Q 1284 391 1588 391 
Q 1994 391 2212 530 
Q 2431 669 2431 922 
Q 2431 1156 2273 1281 
Q 2116 1406 1581 1522 
L 1381 1569 
Q 847 1681 609 1914 
Q 372 2147 372 2553 
Q 372 3047 722 3315 
Q 1072 3584 1716 3584 
Q 2034 3584 2315 3537 
Q 2597 3491 2834 3397 
z
" id="DejaVuSans-73" transform="scale(0.015625)"/>
      <path d="M 1172 4494 
L 1172 3500 
L 2356 3500 
L 2356 3053 
L 1172 3053 
L 1172 1153 
Q 1172 725 1289 603 
Q 1406 481 1766 481 
L 2356 481 
L 2356 0 
L 1766 0 
Q 1100 0 847 248 
Q 594 497 594 1153 
L 594 3053 
L 172 3053 
L 172 3500 
L 594 3500 
L 594 4494 
L 1172 4494 
z
" id="DejaVuSans-74" transform="scale(0.015625)"/>
     </defs>
     <use xlink:href="#DejaVuSans-62"/>
     <use x="63.476562" xlink:href="#DejaVuSans-65"/>
     <use x="125" xlink:href="#DejaVuSans-66"/>
     <use x="160.205078" xlink:href="#DejaVuSans-6f"/>
     <use x="221.386719" xlink:href="#DejaVuSans-72"/>
     <use x="260.25" xlink:href="#DejaVuSans-65"/>
     <use x="321.773438" xlink:href="#DejaVuSans-20"/>
     <use x="353.560547" xlink:href="#DejaVuSans-62"/>
     <use x="417.037109" xlink:href="#DejaVuSans-69"/>
     <use x="444.820312" xlink:href="#DejaVuSans-6e"/>
     <use x="508.199219" xlink:href="#DejaVuSans-61"/>
     <use x="569.478516" xlink:href="#DejaVuSans-72"/>
     <use x="610.591797" xlink:href="#DejaVuSans-69"/>
     <use x="638.375" xlink:href="#DejaVuSans-73"/>
     <use x="690.474609" xlink:href="#DejaVuSans-61"/>
     <use x="751.753906" xlink:href="#DejaVuSans-74"/>
     <use x="790.962891" xlink:href="#DejaVuSans-69"/>
     <use x="818.746094" xlink:href="#DejaVuSans-6f"/>
     <use x="879.927734" xlink:href="#DejaVuSans-6e"/>
    </g>
   </g>
  </g>
  <g id="axes_2">
   <g id="patch_7">
    <path d="M 43.78125 1264.318125 
L 1717.78125 1264.318125 
L 1717.78125 699.77267 
L 43.78125 699.77267 
z
" style="fill:#ffffff;"/>
   </g>
   <g id="matplotlib.axis_3">
    <g id="xtick_8">
     <g id="line2d_14">
      <g>
       <use style="stroke:#000000;stroke-width:0.8;" x="119.872159" xlink:href="#m5d664586d2" y="1264.318125"/>
      </g>
     </g>
     <g id="text_16">
      <!-- 0 -->
      <g transform="translate(116.690909 1278.916563)scale(0.1 -0.1)">
       <use xlink:href="#DejaVuSans-30"/>
      </g>
     </g>
    </g>
    <g id="xtick_9">
     <g id="line2d_15">
      <g>
       <use style="stroke:#000000;stroke-width:0.8;" x="367.523613" xlink:href="#m5d664586d2" y="1264.318125"/>
      </g>
     </g>
     <g id="text_17">
      <!-- 200 -->
      <g transform="translate(357.979863 1278.916563)scale(0.1 -0.1)">
       <use xlink:href="#DejaVuSans-32"/>
       <use x="63.623047" xlink:href="#DejaVuSans-30"/>
       <use x="127.246094" xlink:href="#DejaVuSans-30"/>
      </g>
     </g>
    </g>
    <g id="xtick_10">
     <g id="line2d_16">
      <g>
       <use style="stroke:#000000;stroke-width:0.8;" x="615.175066" xlink:href="#m5d664586d2" y="1264.318125"/>
      </g>
     </g>
     <g id="text_18">
      <!-- 400 -->
      <g transform="translate(605.631316 1278.916563)scale(0.1 -0.1)">
       <use xlink:href="#DejaVuSans-34"/>
       <use x="63.623047" xlink:href="#DejaVuSans-30"/>
       <use x="127.246094" xlink:href="#DejaVuSans-30"/>
      </g>
     </g>
    </g>
    <g id="xtick_11">
     <g id="line2d_17">
      <g>
       <use style="stroke:#000000;stroke-width:0.8;" x="862.82652" xlink:href="#m5d664586d2" y="1264.318125"/>
      </g>
     </g>
     <g id="text_19">
      <!-- 600 -->
      <g transform="translate(853.28277 1278.916563)scale(0.1 -0.1)">
       <use xlink:href="#DejaVuSans-36"/>
       <use x="63.623047" xlink:href="#DejaVuSans-30"/>
       <use x="127.246094" xlink:href="#DejaVuSans-30"/>
      </g>
     </g>
    </g>
    <g id="xtick_12">
     <g id="line2d_18">
      <g>
       <use style="stroke:#000000;stroke-width:0.8;" x="1110.477973" xlink:href="#m5d664586d2" y="1264.318125"/>
      </g>
     </g>
     <g id="text_20">
      <!-- 800 -->
      <g transform="translate(1100.934223 1278.916563)scale(0.1 -0.1)">
       <use xlink:href="#DejaVuSans-38"/>
       <use x="63.623047" xlink:href="#DejaVuSans-30"/>
       <use x="127.246094" xlink:href="#DejaVuSans-30"/>
      </g>
     </g>
    </g>
    <g id="xtick_13">
     <g id="line2d_19">
      <g>
       <use style="stroke:#000000;stroke-width:0.8;" x="1358.129427" xlink:href="#m5d664586d2" y="1264.318125"/>
      </g>
     </g>
     <g id="text_21">
      <!-- 1000 -->
      <g transform="translate(1345.404427 1278.916563)scale(0.1 -0.1)">
       <use xlink:href="#DejaVuSans-31"/>
       <use x="63.623047" xlink:href="#DejaVuSans-30"/>
       <use x="127.246094" xlink:href="#DejaVuSans-30"/>
       <use x="190.869141" xlink:href="#DejaVuSans-30"/>
      </g>
     </g>
    </g>
    <g id="xtick_14">
     <g id="line2d_20">
      <g>
       <use style="stroke:#000000;stroke-width:0.8;" x="1605.78088" xlink:href="#m5d664586d2" y="1264.318125"/>
      </g>
     </g>
     <g id="text_22">
      <!-- 1200 -->
      <g transform="translate(1593.05588 1278.916563)scale(0.1 -0.1)">
       <use xlink:href="#DejaVuSans-31"/>
       <use x="63.623047" xlink:href="#DejaVuSans-32"/>
       <use x="127.246094" xlink:href="#DejaVuSans-30"/>
       <use x="190.869141" xlink:href="#DejaVuSans-30"/>
      </g>
     </g>
    </g>
    <g id="text_23">
     <!-- frame -->
     <g transform="translate(865.954687 1292.594688)scale(0.1 -0.1)">
      <use xlink:href="#DejaVuSans-66"/>
      <use x="35.205078" xlink:href="#DejaVuSans-72"/>
      <use x="76.318359" xlink:href="#DejaVuSans-61"/>
      <use x="137.597656" xlink:href="#DejaVuSans-6d"/>
      <use x="235.009766" xlink:href="#DejaVuSans-65"/>
     </g>
    </g>
   </g>
   <g id="matplotlib.axis_4">
    <g id="ytick_6">
     <g id="line2d_21">
      <g>
       <use style="stroke:#000000;stroke-width:0.8;" x="43.78125" xlink:href="#m10484185a8" y="1238.656968"/>
      </g>
     </g>
     <g id="text_24">
      <!-- 0.0 -->
      <g transform="translate(20.878125 1242.456187)scale(0.1 -0.1)">
       <defs>
        <path d="M 684 794 
L 1344 794 
L 1344 0 
L 684 0 
L 684 794 
z
" id="DejaVuSans-2e" transform="scale(0.015625)"/>
       </defs>
       <use xlink:href="#DejaVuSans-30"/>
       <use x="63.623047" xlink:href="#DejaVuSans-2e"/>
       <use x="95.410156" xlink:href="#DejaVuSans-30"/>
      </g>
     </g>
    </g>
    <g id="ytick_7">
     <g id="line2d_22">
      <g>
       <use style="stroke:#000000;stroke-width:0.8;" x="43.78125" xlink:href="#m10484185a8" y="1136.01234"/>
      </g>
     </g>
     <g id="text_25">
      <!-- 0.2 -->
      <g transform="translate(20.878125 1139.811559)scale(0.1 -0.1)">
       <use xlink:href="#DejaVuSans-30"/>
       <use x="63.623047" xlink:href="#DejaVuSans-2e"/>
       <use x="95.410156" xlink:href="#DejaVuSans-32"/>
      </g>
     </g>
    </g>
    <g id="ytick_8">
     <g id="line2d_23">
      <g>
       <use style="stroke:#000000;stroke-width:0.8;" x="43.78125" xlink:href="#m10484185a8" y="1033.367712"/>
      </g>
     </g>
     <g id="text_26">
      <!-- 0.4 -->
      <g transform="translate(20.878125 1037.166931)scale(0.1 -0.1)">
       <use xlink:href="#DejaVuSans-30"/>
       <use x="63.623047" xlink:href="#DejaVuSans-2e"/>
       <use x="95.410156" xlink:href="#DejaVuSans-34"/>
      </g>
     </g>
    </g>
    <g id="ytick_9">
     <g id="line2d_24">
      <g>
       <use style="stroke:#000000;stroke-width:0.8;" x="43.78125" xlink:href="#m10484185a8" y="930.723084"/>
      </g>
     </g>
     <g id="text_27">
      <!-- 0.6 -->
      <g transform="translate(20.878125 934.522302)scale(0.1 -0.1)">
       <use xlink:href="#DejaVuSans-30"/>
       <use x="63.623047" xlink:href="#DejaVuSans-2e"/>
       <use x="95.410156" xlink:href="#DejaVuSans-36"/>
      </g>
     </g>
    </g>
    <g id="ytick_10">
     <g id="line2d_25">
      <g>
       <use style="stroke:#000000;stroke-width:0.8;" x="43.78125" xlink:href="#m10484185a8" y="828.078456"/>
      </g>
     </g>
     <g id="text_28">
      <!-- 0.8 -->
      <g transform="translate(20.878125 831.877674)scale(0.1 -0.1)">
       <use xlink:href="#DejaVuSans-30"/>
       <use x="63.623047" xlink:href="#DejaVuSans-2e"/>
       <use x="95.410156" xlink:href="#DejaVuSans-38"/>
      </g>
     </g>
    </g>
    <g id="ytick_11">
     <g id="line2d_26">
      <g>
       <use style="stroke:#000000;stroke-width:0.8;" x="43.78125" xlink:href="#m10484185a8" y="725.433827"/>
      </g>
     </g>
     <g id="text_29">
      <!-- 1.0 -->
      <g transform="translate(20.878125 729.233046)scale(0.1 -0.1)">
       <use xlink:href="#DejaVuSans-31"/>
       <use x="63.623047" xlink:href="#DejaVuSans-2e"/>
       <use x="95.410156" xlink:href="#DejaVuSans-30"/>
      </g>
     </g>
    </g>
    <g id="text_30">
     <!-- GCaMP -->
     <g transform="translate(14.798437 999.803991)rotate(-90)scale(0.1 -0.1)">
      <use xlink:href="#DejaVuSans-47"/>
      <use x="77.490234" xlink:href="#DejaVuSans-43"/>
      <use x="147.314453" xlink:href="#DejaVuSans-61"/>
      <use x="208.59375" xlink:href="#DejaVuSans-4d"/>
      <use x="294.873047" xlink:href="#DejaVuSans-50"/>
     </g>
    </g>
   </g>
   <g id="line2d_27">
    <path clip-path="url(#p13bd27115a)" d="M 119.872159 1238.656968 
L 542.117887 1238.656968 
L 543.356145 725.433827 
L 607.745523 725.433827 
L 608.98378 1238.656968 
L 654.799299 1238.656968 
L 656.037556 725.433827 
L 772.433739 725.433827 
L 773.671996 1238.656968 
L 913.595068 1238.656968 
L 914.833325 725.433827 
L 959.410586 725.433827 
L 960.648844 1238.656968 
L 1026.276479 1238.656968 
L 1027.514736 725.433827 
L 1063.424197 725.433827 
L 1064.662454 1238.656968 
L 1145.149177 1238.656968 
L 1146.387434 725.433827 
L 1152.57872 725.433827 
L 1153.816977 1238.656968 
L 1158.770007 1238.656968 
L 1160.008264 725.433827 
L 1167.437807 725.433827 
L 1168.676065 1238.656968 
L 1577.300963 1238.656968 
L 1578.53922 725.433827 
L 1604.542623 725.433827 
L 1605.78088 1238.656968 
L 1607.019137 725.433827 
L 1641.690341 725.433827 
L 1641.690341 725.433827 
" style="fill:none;stroke:#008000;stroke-linecap:square;stroke-width:1.5;"/>
   </g>
   <g id="patch_8">
    <path d="M 43.78125 1264.318125 
L 43.78125 699.77267 
" style="fill:none;stroke:#000000;stroke-linecap:square;stroke-linejoin:miter;stroke-width:0.8;"/>
   </g>
   <g id="patch_9">
    <path d="M 1717.78125 1264.318125 
L 1717.78125 699.77267 
" style="fill:none;stroke:#000000;stroke-linecap:square;stroke-linejoin:miter;stroke-width:0.8;"/>
   </g>
   <g id="patch_10">
    <path d="M 43.78125 1264.318125 
L 1717.78125 1264.318125 
" style="fill:none;stroke:#000000;stroke-linecap:square;stroke-linejoin:miter;stroke-width:0.8;"/>
   </g>
   <g id="patch_11">
    <path d="M 43.78125 699.77267 
L 1717.78125 699.77267 
" style="fill:none;stroke:#000000;stroke-linecap:square;stroke-linejoin:miter;stroke-width:0.8;"/>
   </g>
   <g id="text_31">
    <!-- before binarisation -->
    <g transform="translate(824.1825 693.77267)scale(0.12 -0.12)">
     <use xlink:href="#DejaVuSans-62"/>
     <use x="63.476562" xlink:href="#DejaVuSans-65"/>
     <use x="125" xlink:href="#DejaVuSans-66"/>
     <use x="160.205078" xlink:href="#DejaVuSans-6f"/>
     <use x="221.386719" xlink:href="#DejaVuSans-72"/>
     <use x="260.25" xlink:href="#DejaVuSans-65"/>
     <use x="321.773438" xlink:href="#DejaVuSans-20"/>
     <use x="353.560547" xlink:href="#DejaVuSans-62"/>
     <use x="417.037109" xlink:href="#DejaVuSans-69"/>
     <use x="444.820312" xlink:href="#DejaVuSans-6e"/>
     <use x="508.199219" xlink:href="#DejaVuSans-61"/>
     <use x="569.478516" xlink:href="#DejaVuSans-72"/>
     <use x="610.591797" xlink:href="#DejaVuSans-69"/>
     <use x="638.375" xlink:href="#DejaVuSans-73"/>
     <use x="690.474609" xlink:href="#DejaVuSans-61"/>
     <use x="751.753906" xlink:href="#DejaVuSans-74"/>
     <use x="790.962891" xlink:href="#DejaVuSans-69"/>
     <use x="818.746094" xlink:href="#DejaVuSans-6f"/>
     <use x="879.927734" xlink:href="#DejaVuSans-6e"/>
    </g>
   </g>
  </g>
 </g>
 <defs>
  <clipPath id="p65a6b2b505">
   <rect height="564.545455" width="1674" x="43.78125" y="22.318125"/>
  </clipPath>
  <clipPath id="p13bd27115a">
   <rect height="564.545455" width="1674" x="43.78125" y="699.77267"/>
  </clipPath>
 </defs>
</svg>
