<?xml version="1.0" encoding="utf-8" standalone="no"?>
<!DOCTYPE svg PUBLIC "-//W3C//DTD SVG 1.1//EN"
  "http://www.w3.org/Graphics/SVG/1.1/DTD/svg11.dtd">
<svg height="1301.874375pt" version="1.1" viewBox="0 0 1724.98125 1301.874375" width="1724.98125pt" xmlns="http://www.w3.org/2000/svg" xmlns:xlink="http://www.w3.org/1999/xlink">
 <metadata>
  <rdf:RDF xmlns:cc="http://creativecommons.org/ns#" xmlns:dc="http://purl.org/dc/elements/1.1/" xmlns:rdf="http://www.w3.org/1999/02/22-rdf-syntax-ns#">
   <cc:Work>
    <dc:type rdf:resource="http://purl.org/dc/dcmitype/StillImage"/>
    <dc:date>2022-07-24T15:54:41.547183</dc:date>
    <dc:format>image/svg+xml</dc:format>
    <dc:creator>
     <cc:Agent>
      <dc:title>Matplotlib v3.4.2, https://matplotlib.org/</dc:title>
     </cc:Agent>
    </dc:creator>
   </cc:Work>
  </rdf:RDF>
 </metadata>
 <defs>
  <style type="text/css">*{stroke-linecap:butt;stroke-linejoin:round;}</style>
 </defs>
 <g id="figure_1">
  <g id="patch_1">
   <path d="M 0 1301.874375 
L 1724.98125 1301.874375 
L 1724.98125 0 
L 0 0 
z
" style="fill:#ffffff;"/>
  </g>
  <g id="axes_1">
   <g id="patch_2">
    <path d="M 43.78125 586.86358 
L 1717.78125 586.86358 
L 1717.78125 22.318125 
L 43.78125 22.318125 
z
" style="fill:#ffffff;"/>
   </g>
   <g id="matplotlib.axis_1">
    <g id="xtick_1">
     <g id="line2d_1">
      <defs>
       <path d="M 0 0 
L 0 3.5 
" id="m63a894c722" style="stroke:#000000;stroke-width:0.8;"/>
      </defs>
      <g>
       <use style="stroke:#000000;stroke-width:0.8;" x="119.872159" xlink:href="#m63a894c722" y="586.86358"/>
      </g>
     </g>
     <g id="text_1">
      <!-- 0 -->
      <g transform="translate(116.690909 601.462017)scale(0.1 -0.1)">
       <defs>
        <path d="M 2034 4250 
Q 1547 4250 1301 3770 
Q 1056 3291 1056 2328 
Q 1056 1369 1301 889 
Q 1547 409 2034 409 
Q 2525 409 2770 889 
Q 3016 1369 3016 2328 
Q 3016 3291 2770 3770 
Q 2525 4250 2034 4250 
z
M 2034 4750 
Q 2819 4750 3233 4129 
Q 3647 3509 3647 2328 
Q 3647 1150 3233 529 
Q 2819 -91 2034 -91 
Q 1250 -91 836 529 
Q 422 1150 422 2328 
Q 422 3509 836 4129 
Q 1250 4750 2034 4750 
z
" id="DejaVuSans-30" transform="scale(0.015625)"/>
       </defs>
       <use xlink:href="#DejaVuSans-30"/>
      </g>
     </g>
    </g>
    <g id="xtick_2">
     <g id="line2d_2">
      <g>
       <use style="stroke:#000000;stroke-width:0.8;" x="367.523613" xlink:href="#m63a894c722" y="586.86358"/>
      </g>
     </g>
     <g id="text_2">
      <!-- 200 -->
      <g transform="translate(357.979863 601.462017)scale(0.1 -0.1)">
       <defs>
        <path d="M 1228 531 
L 3431 531 
L 3431 0 
L 469 0 
L 469 531 
Q 828 903 1448 1529 
Q 2069 2156 2228 2338 
Q 2531 2678 2651 2914 
Q 2772 3150 2772 3378 
Q 2772 3750 2511 3984 
Q 2250 4219 1831 4219 
Q 1534 4219 1204 4116 
Q 875 4013 500 3803 
L 500 4441 
Q 881 4594 1212 4672 
Q 1544 4750 1819 4750 
Q 2544 4750 2975 4387 
Q 3406 4025 3406 3419 
Q 3406 3131 3298 2873 
Q 3191 2616 2906 2266 
Q 2828 2175 2409 1742 
Q 1991 1309 1228 531 
z
" id="DejaVuSans-32" transform="scale(0.015625)"/>
       </defs>
       <use xlink:href="#DejaVuSans-32"/>
       <use x="63.623047" xlink:href="#DejaVuSans-30"/>
       <use x="127.246094" xlink:href="#DejaVuSans-30"/>
      </g>
     </g>
    </g>
    <g id="xtick_3">
     <g id="line2d_3">
      <g>
       <use style="stroke:#000000;stroke-width:0.8;" x="615.175066" xlink:href="#m63a894c722" y="586.86358"/>
      </g>
     </g>
     <g id="text_3">
      <!-- 400 -->
      <g transform="translate(605.631316 601.462017)scale(0.1 -0.1)">
       <defs>
        <path d="M 2419 4116 
L 825 1625 
L 2419 1625 
L 2419 4116 
z
M 2253 4666 
L 3047 4666 
L 3047 1625 
L 3713 1625 
L 3713 1100 
L 3047 1100 
L 3047 0 
L 2419 0 
L 2419 1100 
L 313 1100 
L 313 1709 
L 2253 4666 
z
" id="DejaVuSans-34" transform="scale(0.015625)"/>
       </defs>
       <use xlink:href="#DejaVuSans-34"/>
       <use x="63.623047" xlink:href="#DejaVuSans-30"/>
       <use x="127.246094" xlink:href="#DejaVuSans-30"/>
      </g>
     </g>
    </g>
    <g id="xtick_4">
     <g id="line2d_4">
      <g>
       <use style="stroke:#000000;stroke-width:0.8;" x="862.82652" xlink:href="#m63a894c722" y="586.86358"/>
      </g>
     </g>
     <g id="text_4">
      <!-- 600 -->
      <g transform="translate(853.28277 601.462017)scale(0.1 -0.1)">
       <defs>
        <path d="M 2113 2584 
Q 1688 2584 1439 2293 
Q 1191 2003 1191 1497 
Q 1191 994 1439 701 
Q 1688 409 2113 409 
Q 2538 409 2786 701 
Q 3034 994 3034 1497 
Q 3034 2003 2786 2293 
Q 2538 2584 2113 2584 
z
M 3366 4563 
L 3366 3988 
Q 3128 4100 2886 4159 
Q 2644 4219 2406 4219 
Q 1781 4219 1451 3797 
Q 1122 3375 1075 2522 
Q 1259 2794 1537 2939 
Q 1816 3084 2150 3084 
Q 2853 3084 3261 2657 
Q 3669 2231 3669 1497 
Q 3669 778 3244 343 
Q 2819 -91 2113 -91 
Q 1303 -91 875 529 
Q 447 1150 447 2328 
Q 447 3434 972 4092 
Q 1497 4750 2381 4750 
Q 2619 4750 2861 4703 
Q 3103 4656 3366 4563 
z
" id="DejaVuSans-36" transform="scale(0.015625)"/>
       </defs>
       <use xlink:href="#DejaVuSans-36"/>
       <use x="63.623047" xlink:href="#DejaVuSans-30"/>
       <use x="127.246094" xlink:href="#DejaVuSans-30"/>
      </g>
     </g>
    </g>
    <g id="xtick_5">
     <g id="line2d_5">
      <g>
       <use style="stroke:#000000;stroke-width:0.8;" x="1110.477973" xlink:href="#m63a894c722" y="586.86358"/>
      </g>
     </g>
     <g id="text_5">
      <!-- 800 -->
      <g transform="translate(1100.934223 601.462017)scale(0.1 -0.1)">
       <defs>
        <path d="M 2034 2216 
Q 1584 2216 1326 1975 
Q 1069 1734 1069 1313 
Q 1069 891 1326 650 
Q 1584 409 2034 409 
Q 2484 409 2743 651 
Q 3003 894 3003 1313 
Q 3003 1734 2745 1975 
Q 2488 2216 2034 2216 
z
M 1403 2484 
Q 997 2584 770 2862 
Q 544 3141 544 3541 
Q 544 4100 942 4425 
Q 1341 4750 2034 4750 
Q 2731 4750 3128 4425 
Q 3525 4100 3525 3541 
Q 3525 3141 3298 2862 
Q 3072 2584 2669 2484 
Q 3125 2378 3379 2068 
Q 3634 1759 3634 1313 
Q 3634 634 3220 271 
Q 2806 -91 2034 -91 
Q 1263 -91 848 271 
Q 434 634 434 1313 
Q 434 1759 690 2068 
Q 947 2378 1403 2484 
z
M 1172 3481 
Q 1172 3119 1398 2916 
Q 1625 2713 2034 2713 
Q 2441 2713 2670 2916 
Q 2900 3119 2900 3481 
Q 2900 3844 2670 4047 
Q 2441 4250 2034 4250 
Q 1625 4250 1398 4047 
Q 1172 3844 1172 3481 
z
" id="DejaVuSans-38" transform="scale(0.015625)"/>
       </defs>
       <use xlink:href="#DejaVuSans-38"/>
       <use x="63.623047" xlink:href="#DejaVuSans-30"/>
       <use x="127.246094" xlink:href="#DejaVuSans-30"/>
      </g>
     </g>
    </g>
    <g id="xtick_6">
     <g id="line2d_6">
      <g>
       <use style="stroke:#000000;stroke-width:0.8;" x="1358.129427" xlink:href="#m63a894c722" y="586.86358"/>
      </g>
     </g>
     <g id="text_6">
      <!-- 1000 -->
      <g transform="translate(1345.404427 601.462017)scale(0.1 -0.1)">
       <defs>
        <path d="M 794 531 
L 1825 531 
L 1825 4091 
L 703 3866 
L 703 4441 
L 1819 4666 
L 2450 4666 
L 2450 531 
L 3481 531 
L 3481 0 
L 794 0 
L 794 531 
z
" id="DejaVuSans-31" transform="scale(0.015625)"/>
       </defs>
       <use xlink:href="#DejaVuSans-31"/>
       <use x="63.623047" xlink:href="#DejaVuSans-30"/>
       <use x="127.246094" xlink:href="#DejaVuSans-30"/>
       <use x="190.869141" xlink:href="#DejaVuSans-30"/>
      </g>
     </g>
    </g>
    <g id="xtick_7">
     <g id="line2d_7">
      <g>
       <use style="stroke:#000000;stroke-width:0.8;" x="1605.78088" xlink:href="#m63a894c722" y="586.86358"/>
      </g>
     </g>
     <g id="text_7">
      <!-- 1200 -->
      <g transform="translate(1593.05588 601.462017)scale(0.1 -0.1)">
       <use xlink:href="#DejaVuSans-31"/>
       <use x="63.623047" xlink:href="#DejaVuSans-32"/>
       <use x="127.246094" xlink:href="#DejaVuSans-30"/>
       <use x="190.869141" xlink:href="#DejaVuSans-30"/>
      </g>
     </g>
    </g>
    <g id="text_8">
     <!-- frame -->
     <g transform="translate(865.954687 615.140142)scale(0.1 -0.1)">
      <defs>
       <path d="M 2375 4863 
L 2375 4384 
L 1825 4384 
Q 1516 4384 1395 4259 
Q 1275 4134 1275 3809 
L 1275 3500 
L 2222 3500 
L 2222 3053 
L 1275 3053 
L 1275 0 
L 697 0 
L 697 3053 
L 147 3053 
L 147 3500 
L 697 3500 
L 697 3744 
Q 697 4328 969 4595 
Q 1241 4863 1831 4863 
L 2375 4863 
z
" id="DejaVuSans-66" transform="scale(0.015625)"/>
       <path d="M 2631 2963 
Q 2534 3019 2420 3045 
Q 2306 3072 2169 3072 
Q 1681 3072 1420 2755 
Q 1159 2438 1159 1844 
L 1159 0 
L 581 0 
L 581 3500 
L 1159 3500 
L 1159 2956 
Q 1341 3275 1631 3429 
Q 1922 3584 2338 3584 
Q 2397 3584 2469 3576 
Q 2541 3569 2628 3553 
L 2631 2963 
z
" id="DejaVuSans-72" transform="scale(0.015625)"/>
       <path d="M 2194 1759 
Q 1497 1759 1228 1600 
Q 959 1441 959 1056 
Q 959 750 1161 570 
Q 1363 391 1709 391 
Q 2188 391 2477 730 
Q 2766 1069 2766 1631 
L 2766 1759 
L 2194 1759 
z
M 3341 1997 
L 3341 0 
L 2766 0 
L 2766 531 
Q 2569 213 2275 61 
Q 1981 -91 1556 -91 
Q 1019 -91 701 211 
Q 384 513 384 1019 
Q 384 1609 779 1909 
Q 1175 2209 1959 2209 
L 2766 2209 
L 2766 2266 
Q 2766 2663 2505 2880 
Q 2244 3097 1772 3097 
Q 1472 3097 1187 3025 
Q 903 2953 641 2809 
L 641 3341 
Q 956 3463 1253 3523 
Q 1550 3584 1831 3584 
Q 2591 3584 2966 3190 
Q 3341 2797 3341 1997 
z
" id="DejaVuSans-61" transform="scale(0.015625)"/>
       <path d="M 3328 2828 
Q 3544 3216 3844 3400 
Q 4144 3584 4550 3584 
Q 5097 3584 5394 3201 
Q 5691 2819 5691 2113 
L 5691 0 
L 5113 0 
L 5113 2094 
Q 5113 2597 4934 2840 
Q 4756 3084 4391 3084 
Q 3944 3084 3684 2787 
Q 3425 2491 3425 1978 
L 3425 0 
L 2847 0 
L 2847 2094 
Q 2847 2600 2669 2842 
Q 2491 3084 2119 3084 
Q 1678 3084 1418 2786 
Q 1159 2488 1159 1978 
L 1159 0 
L 581 0 
L 581 3500 
L 1159 3500 
L 1159 2956 
Q 1356 3278 1631 3431 
Q 1906 3584 2284 3584 
Q 2666 3584 2933 3390 
Q 3200 3197 3328 2828 
z
" id="DejaVuSans-6d" transform="scale(0.015625)"/>
       <path d="M 3597 1894 
L 3597 1613 
L 953 1613 
Q 991 1019 1311 708 
Q 1631 397 2203 397 
Q 2534 397 2845 478 
Q 3156 559 3463 722 
L 3463 178 
Q 3153 47 2828 -22 
Q 2503 -91 2169 -91 
Q 1331 -91 842 396 
Q 353 884 353 1716 
Q 353 2575 817 3079 
Q 1281 3584 2069 3584 
Q 2775 3584 3186 3129 
Q 3597 2675 3597 1894 
z
M 3022 2063 
Q 3016 2534 2758 2815 
Q 2500 3097 2075 3097 
Q 1594 3097 1305 2825 
Q 1016 2553 972 2059 
L 3022 2063 
z
" id="DejaVuSans-65" transform="scale(0.015625)"/>
      </defs>
      <use xlink:href="#DejaVuSans-66"/>
      <use x="35.205078" xlink:href="#DejaVuSans-72"/>
      <use x="76.318359" xlink:href="#DejaVuSans-61"/>
      <use x="137.597656" xlink:href="#DejaVuSans-6d"/>
      <use x="235.009766" xlink:href="#DejaVuSans-65"/>
     </g>
    </g>
   </g>
   <g id="matplotlib.axis_2">
    <g id="ytick_1">
     <g id="line2d_8">
      <defs>
       <path d="M 0 0 
L -3.5 0 
" id="m417bc514a5" style="stroke:#000000;stroke-width:0.8;"/>
      </defs>
      <g>
       <use style="stroke:#000000;stroke-width:0.8;" x="43.78125" xlink:href="#m417bc514a5" y="561.202423"/>
      </g>
     </g>
     <g id="text_9">
      <!-- 0.0 -->
      <g transform="translate(20.878125 565.001641)scale(0.1 -0.1)">
       <defs>
        <path d="M 684 794 
L 1344 794 
L 1344 0 
L 684 0 
L 684 794 
z
" id="DejaVuSans-2e" transform="scale(0.015625)"/>
       </defs>
       <use xlink:href="#DejaVuSans-30"/>
       <use x="63.623047" xlink:href="#DejaVuSans-2e"/>
       <use x="95.410156" xlink:href="#DejaVuSans-30"/>
      </g>
     </g>
    </g>
    <g id="ytick_2">
     <g id="line2d_9">
      <g>
       <use style="stroke:#000000;stroke-width:0.8;" x="43.78125" xlink:href="#m417bc514a5" y="437.100174"/>
      </g>
     </g>
     <g id="text_10">
      <!-- 0.5 -->
      <g transform="translate(20.878125 440.899392)scale(0.1 -0.1)">
       <defs>
        <path d="M 691 4666 
L 3169 4666 
L 3169 4134 
L 1269 4134 
L 1269 2991 
Q 1406 3038 1543 3061 
Q 1681 3084 1819 3084 
Q 2600 3084 3056 2656 
Q 3513 2228 3513 1497 
Q 3513 744 3044 326 
Q 2575 -91 1722 -91 
Q 1428 -91 1123 -41 
Q 819 9 494 109 
L 494 744 
Q 775 591 1075 516 
Q 1375 441 1709 441 
Q 2250 441 2565 725 
Q 2881 1009 2881 1497 
Q 2881 1984 2565 2268 
Q 2250 2553 1709 2553 
Q 1456 2553 1204 2497 
Q 953 2441 691 2322 
L 691 4666 
z
" id="DejaVuSans-35" transform="scale(0.015625)"/>
       </defs>
       <use xlink:href="#DejaVuSans-30"/>
       <use x="63.623047" xlink:href="#DejaVuSans-2e"/>
       <use x="95.410156" xlink:href="#DejaVuSans-35"/>
      </g>
     </g>
    </g>
    <g id="ytick_3">
     <g id="line2d_10">
      <g>
       <use style="stroke:#000000;stroke-width:0.8;" x="43.78125" xlink:href="#m417bc514a5" y="312.997925"/>
      </g>
     </g>
     <g id="text_11">
      <!-- 1.0 -->
      <g transform="translate(20.878125 316.797144)scale(0.1 -0.1)">
       <use xlink:href="#DejaVuSans-31"/>
       <use x="63.623047" xlink:href="#DejaVuSans-2e"/>
       <use x="95.410156" xlink:href="#DejaVuSans-30"/>
      </g>
     </g>
    </g>
    <g id="ytick_4">
     <g id="line2d_11">
      <g>
       <use style="stroke:#000000;stroke-width:0.8;" x="43.78125" xlink:href="#m417bc514a5" y="188.895676"/>
      </g>
     </g>
     <g id="text_12">
      <!-- 1.5 -->
      <g transform="translate(20.878125 192.694895)scale(0.1 -0.1)">
       <use xlink:href="#DejaVuSans-31"/>
       <use x="63.623047" xlink:href="#DejaVuSans-2e"/>
       <use x="95.410156" xlink:href="#DejaVuSans-35"/>
      </g>
     </g>
    </g>
    <g id="ytick_5">
     <g id="line2d_12">
      <g>
       <use style="stroke:#000000;stroke-width:0.8;" x="43.78125" xlink:href="#m417bc514a5" y="64.793427"/>
      </g>
     </g>
     <g id="text_13">
      <!-- 2.0 -->
      <g transform="translate(20.878125 68.592646)scale(0.1 -0.1)">
       <use xlink:href="#DejaVuSans-32"/>
       <use x="63.623047" xlink:href="#DejaVuSans-2e"/>
       <use x="95.410156" xlink:href="#DejaVuSans-30"/>
      </g>
     </g>
    </g>
    <g id="text_14">
     <!-- GCaMP -->
     <g transform="translate(14.798437 322.349446)rotate(-90)scale(0.1 -0.1)">
      <defs>
       <path d="M 3809 666 
L 3809 1919 
L 2778 1919 
L 2778 2438 
L 4434 2438 
L 4434 434 
Q 4069 175 3628 42 
Q 3188 -91 2688 -91 
Q 1594 -91 976 548 
Q 359 1188 359 2328 
Q 359 3472 976 4111 
Q 1594 4750 2688 4750 
Q 3144 4750 3555 4637 
Q 3966 4525 4313 4306 
L 4313 3634 
Q 3963 3931 3569 4081 
Q 3175 4231 2741 4231 
Q 1884 4231 1454 3753 
Q 1025 3275 1025 2328 
Q 1025 1384 1454 906 
Q 1884 428 2741 428 
Q 3075 428 3337 486 
Q 3600 544 3809 666 
z
" id="DejaVuSans-47" transform="scale(0.015625)"/>
       <path d="M 4122 4306 
L 4122 3641 
Q 3803 3938 3442 4084 
Q 3081 4231 2675 4231 
Q 1875 4231 1450 3742 
Q 1025 3253 1025 2328 
Q 1025 1406 1450 917 
Q 1875 428 2675 428 
Q 3081 428 3442 575 
Q 3803 722 4122 1019 
L 4122 359 
Q 3791 134 3420 21 
Q 3050 -91 2638 -91 
Q 1578 -91 968 557 
Q 359 1206 359 2328 
Q 359 3453 968 4101 
Q 1578 4750 2638 4750 
Q 3056 4750 3426 4639 
Q 3797 4528 4122 4306 
z
" id="DejaVuSans-43" transform="scale(0.015625)"/>
       <path d="M 628 4666 
L 1569 4666 
L 2759 1491 
L 3956 4666 
L 4897 4666 
L 4897 0 
L 4281 0 
L 4281 4097 
L 3078 897 
L 2444 897 
L 1241 4097 
L 1241 0 
L 628 0 
L 628 4666 
z
" id="DejaVuSans-4d" transform="scale(0.015625)"/>
       <path d="M 1259 4147 
L 1259 2394 
L 2053 2394 
Q 2494 2394 2734 2622 
Q 2975 2850 2975 3272 
Q 2975 3691 2734 3919 
Q 2494 4147 2053 4147 
L 1259 4147 
z
M 628 4666 
L 2053 4666 
Q 2838 4666 3239 4311 
Q 3641 3956 3641 3272 
Q 3641 2581 3239 2228 
Q 2838 1875 2053 1875 
L 1259 1875 
L 1259 0 
L 628 0 
L 628 4666 
z
" id="DejaVuSans-50" transform="scale(0.015625)"/>
      </defs>
      <use xlink:href="#DejaVuSans-47"/>
      <use x="77.490234" xlink:href="#DejaVuSans-43"/>
      <use x="147.314453" xlink:href="#DejaVuSans-61"/>
      <use x="208.59375" xlink:href="#DejaVuSans-4d"/>
      <use x="294.873047" xlink:href="#DejaVuSans-50"/>
     </g>
    </g>
   </g>
   <g id="line2d_13">
    <path clip-path="url(#p2c7cbefb3d)" d="M 119.872159 370.795938 
L 122.348674 375.988655 
L 123.586931 377.998442 
L 124.825188 379.307801 
L 126.063445 379.690583 
L 127.301703 378.994378 
L 128.53996 377.043796 
L 129.778217 373.643597 
L 131.016474 368.755269 
L 134.731246 351.199463 
L 135.969504 347.666086 
L 137.207761 345.877923 
L 138.446018 345.329802 
L 139.684275 345.395473 
L 140.922533 345.865332 
L 142.16079 347.333647 
L 143.399047 350.587333 
L 145.875562 360.249901 
L 147.113819 363.965225 
L 148.352076 366.068795 
L 149.590334 366.680735 
L 150.828591 366.163219 
L 154.543363 362.857617 
L 155.78162 362.604207 
L 157.019877 363.344534 
L 158.258134 364.96765 
L 159.496392 367.257906 
L 160.734649 370.279744 
L 161.972906 374.186794 
L 164.449421 383.493406 
L 165.687678 387.470869 
L 166.925935 390.201412 
L 168.164193 391.681134 
L 170.640707 392.994941 
L 171.878964 394.08206 
L 173.117222 395.571764 
L 174.355479 396.831995 
L 175.593736 397.207826 
L 176.831993 396.391948 
L 178.070251 394.560079 
L 179.308508 392.381068 
L 180.546765 390.780306 
L 181.785022 390.550595 
L 183.02328 391.916902 
L 185.499794 396.671227 
L 186.738052 398.129098 
L 187.976309 398.34217 
L 189.214566 397.503156 
L 190.452823 396.364749 
L 191.691081 396.161671 
L 192.929338 397.685493 
L 195.405852 402.964319 
L 196.64411 404.671528 
L 197.882367 405.409847 
L 199.120624 405.148127 
L 200.358881 403.891299 
L 201.597139 402.126897 
L 202.835396 400.608672 
L 204.073653 399.75683 
L 205.311911 399.60979 
L 206.550168 400.060147 
L 209.026682 401.61157 
L 210.26494 401.851853 
L 211.503197 401.391242 
L 213.979711 399.294691 
L 215.217969 398.618068 
L 216.456226 398.632002 
L 217.694483 399.370564 
L 218.93274 400.77888 
L 221.409255 404.507907 
L 222.647512 406.019015 
L 223.88577 406.886967 
L 225.124027 407.001074 
L 226.362284 406.421779 
L 227.600541 405.329839 
L 230.077056 402.839303 
L 231.315313 402.026426 
L 232.55357 401.516276 
L 233.791828 401.262751 
L 235.030085 401.460631 
L 236.268342 402.33985 
L 238.744857 405.280434 
L 239.983114 405.860652 
L 241.221371 405.118659 
L 243.697886 401.652062 
L 244.936143 400.444866 
L 246.1744 399.727294 
L 247.412658 398.563431 
L 248.650915 396.24176 
L 249.889172 393.45375 
L 251.127429 391.782266 
L 252.365687 392.165228 
L 253.603944 394.041833 
L 254.842201 395.640204 
L 256.080459 395.365305 
L 257.318716 393.214808 
L 258.556973 390.476031 
L 259.79523 388.313382 
L 261.033488 387.118374 
L 262.271745 386.779234 
L 263.510002 387.028633 
L 264.748259 387.572341 
L 265.986517 388.270414 
L 267.224774 389.271735 
L 268.463031 390.749938 
L 269.701288 392.508267 
L 270.939546 393.998107 
L 272.177803 394.782142 
L 273.41606 394.842269 
L 274.654318 394.377776 
L 282.083861 389.719111 
L 287.03689 387.878814 
L 288.275147 387.582813 
L 289.513405 387.729281 
L 290.751662 388.439511 
L 291.989919 389.43318 
L 293.228177 390.193693 
L 294.466434 390.359884 
L 295.704691 389.791969 
L 296.942948 388.462718 
L 299.419463 384.872858 
L 300.65772 383.952716 
L 301.895977 384.064211 
L 304.372492 385.624414 
L 305.610749 385.664293 
L 306.849006 384.30293 
L 308.087264 381.382497 
L 310.563778 373.974891 
L 311.802036 371.313963 
L 313.040293 369.68594 
L 314.27855 369.075221 
L 315.516807 369.892008 
L 316.755065 372.507518 
L 319.231579 380.266228 
L 320.469836 383.135944 
L 321.708094 384.528976 
L 322.946351 384.379561 
L 324.184608 382.968859 
L 327.89938 376.546188 
L 329.137637 375.343946 
L 330.375895 374.671567 
L 331.614152 374.225863 
L 335.328924 373.42575 
L 336.567181 372.285259 
L 337.805438 370.171596 
L 340.281953 364.685524 
L 341.52021 362.648622 
L 342.758467 361.467068 
L 343.996725 361.030627 
L 345.234982 361.095788 
L 347.711496 361.752667 
L 348.949754 362.262063 
L 350.188011 363.133106 
L 351.426268 364.670041 
L 352.664525 367.007132 
L 353.902783 369.669321 
L 355.14104 371.71441 
L 356.379297 372.577922 
L 357.617554 372.68709 
L 358.855812 373.14838 
L 360.094069 374.719231 
L 361.332326 377.2527 
L 365.047098 386.391791 
L 366.285355 388.323296 
L 367.523613 389.1742 
L 368.76187 389.370443 
L 370.000127 389.044285 
L 371.238384 387.916958 
L 372.476642 386.010178 
L 374.953156 381.772568 
L 376.191413 379.760786 
L 377.429671 377.214073 
L 379.906185 370.494604 
L 381.144443 367.846383 
L 382.3827 365.947124 
L 383.620957 364.286429 
L 384.859214 362.851876 
L 386.097472 362.252992 
L 387.335729 363.071742 
L 388.573986 365.225476 
L 389.812243 367.816093 
L 391.050501 369.711293 
L 392.288758 370.311264 
L 393.527015 369.739787 
L 394.765272 368.628915 
L 396.00353 367.747764 
L 397.241787 367.456077 
L 399.718302 367.444558 
L 400.956559 367.079844 
L 404.671331 365.44217 
L 405.909588 364.13331 
L 407.147845 361.01623 
L 408.386102 355.213069 
L 409.62436 346.169763 
L 410.862617 333.733178 
L 412.100874 318.364051 
L 415.815646 268.550788 
L 417.053903 255.945696 
L 418.292161 247.055791 
L 419.530418 241.416599 
L 420.768675 236.885911 
L 422.006932 230.522345 
L 423.24519 220.557502 
L 426.959961 182.403169 
L 428.198219 176.236236 
L 429.436476 177.181474 
L 430.674733 184.977991 
L 431.912991 197.332937 
L 434.389505 224.744651 
L 435.627762 236.315859 
L 436.86602 245.398462 
L 438.104277 251.588247 
L 439.342534 254.659261 
L 440.580791 254.562582 
L 441.819049 251.17235 
L 443.057306 244.279926 
L 444.295563 234.00065 
L 445.53382 220.998784 
L 448.010335 190.621691 
L 450.48685 159.062757 
L 451.725107 146.967914 
L 452.963364 141.510594 
L 454.201621 144.601337 
L 455.439879 155.144216 
L 457.916393 184.319808 
L 459.15465 196.683116 
L 460.392908 205.687559 
L 461.631165 211.755129 
L 464.107679 220.653179 
L 466.584194 229.024141 
L 467.822451 232.970985 
L 469.060709 237.680904 
L 470.298966 243.884801 
L 472.77548 259.625182 
L 475.251995 275.329147 
L 476.490252 282.148539 
L 477.728509 287.978951 
L 478.966767 292.827787 
L 481.443281 300.623397 
L 483.919796 307.422951 
L 486.39631 313.077084 
L 487.634568 315.408916 
L 488.872825 316.956911 
L 490.111082 317.356558 
L 491.349339 316.926823 
L 492.587597 316.785689 
L 493.825854 317.897068 
L 495.064111 320.279106 
L 497.540626 326.06663 
L 498.778883 328.536447 
L 500.01714 330.722237 
L 501.255397 332.360427 
L 502.493655 332.762908 
L 503.731912 331.253277 
L 504.970169 327.747537 
L 507.446684 318.296301 
L 508.684941 314.637526 
L 509.923198 312.662124 
L 511.161456 312.427067 
L 513.63797 314.296022 
L 516.114485 315.158804 
L 517.352742 316.214641 
L 518.590999 318.256383 
L 521.067514 323.352233 
L 522.305771 325.318137 
L 523.544028 326.697651 
L 524.782286 327.414476 
L 526.020543 327.399425 
L 527.2588 326.848837 
L 529.735315 325.294932 
L 530.973572 324.067492 
L 532.211829 322.006709 
L 533.450086 319.327921 
L 534.688344 317.003157 
L 535.926601 316.064296 
L 537.164858 316.901686 
L 539.641373 321.153453 
L 540.87963 322.546685 
L 542.117887 322.771364 
L 543.356145 321.843465 
L 544.594402 320.024815 
L 545.832659 317.351364 
L 547.070916 313.167577 
L 548.309174 306.211926 
L 549.547431 561.202423 
L 550.785688 279.761908 
L 554.50046 223.106044 
L 555.738717 208.870718 
L 556.976975 199.767939 
L 558.215232 196.767802 
L 559.453489 199.983504 
L 560.691746 208.062854 
L 563.168261 230.4102 
L 564.406518 241.828404 
L 565.644775 252.024909 
L 566.883033 259.662169 
L 568.12129 264.281273 
L 571.836062 272.901028 
L 573.074319 276.022387 
L 574.312576 277.632086 
L 575.550834 275.899769 
L 576.789091 269.9097 
L 578.027348 260.114347 
L 579.265605 561.202423 
L 580.503863 232.689768 
L 582.980377 201.054313 
L 584.218634 188.318113 
L 585.456892 180.262765 
L 586.695149 177.351244 
L 587.933406 177.766365 
L 589.171663 561.202423 
L 590.409921 177.733156 
L 591.648178 561.202423 
L 592.886435 175.180311 
L 594.124693 174.842298 
L 595.36295 173.388945 
L 596.601207 167.973912 
L 597.839464 156.039001 
L 599.077722 136.703446 
L 601.554236 88.199605 
L 602.792493 68.948388 
L 604.030751 56.126591 
L 605.269008 49.232029 
L 606.507265 47.979282 
L 607.745523 52.782003 
L 608.98378 63.698141 
L 610.222037 79.181988 
L 612.698552 112.171092 
L 618.889838 184.678121 
L 620.128095 196.135523 
L 621.366352 203.250879 
L 622.60461 203.877221 
L 623.842867 196.875019 
L 625.081124 183.035137 
L 626.319382 164.546014 
L 628.795896 120.571474 
L 630.034153 98.741592 
L 631.272411 82.10247 
L 632.510668 74.928854 
L 633.748925 78.844772 
L 634.987182 92.245327 
L 636.22544 111.72369 
L 638.701954 153.923024 
L 639.940211 170.704565 
L 641.178469 183.281677 
L 642.416726 193.017965 
L 644.893241 209.801008 
L 646.131498 216.436295 
L 647.369755 220.457794 
L 648.608012 221.793186 
L 651.084527 221.442827 
L 652.322784 221.962662 
L 653.561041 222.996007 
L 654.799299 224.407402 
L 656.037556 226.579044 
L 658.51407 232.752705 
L 659.752328 233.876091 
L 660.990585 231.923785 
L 662.228842 227.355055 
L 663.4671 221.709218 
L 664.705357 216.823707 
L 665.943614 214.400616 
L 667.181871 215.403114 
L 668.420129 219.442832 
L 673.373158 242.318693 
L 674.611415 246.508895 
L 675.849672 249.371841 
L 677.087929 561.202423 
L 774.910254 561.202423 
L 776.148511 269.560424 
L 777.386768 270.527931 
L 778.625025 267.721199 
L 779.863283 262.278825 
L 781.10154 256.12948 
L 782.339797 251.373368 
L 783.578054 249.778973 
L 784.816312 252.074997 
L 786.054569 257.458633 
L 787.292826 263.927745 
L 788.531084 269.377083 
L 789.769341 272.513028 
L 791.007598 273.063058 
L 792.245855 271.57498 
L 794.72237 266.598766 
L 795.960627 264.77381 
L 799.675399 260.44368 
L 800.913656 259.541464 
L 802.151914 258.925723 
L 803.390171 257.882303 
L 804.628428 255.945184 
L 807.104943 250.298691 
L 810.819714 241.848446 
L 812.057972 240.168588 
L 813.296229 241.217081 
L 814.534486 245.878424 
L 815.772743 253.81821 
L 819.487515 284.880174 
L 820.725773 291.922817 
L 821.96403 295.286268 
L 823.202287 295.096665 
L 824.440544 292.229886 
L 825.678802 287.776196 
L 828.155316 277.585093 
L 829.393573 273.82438 
L 830.631831 272.368931 
L 831.870088 273.41176 
L 833.108345 276.215739 
L 834.346602 279.902865 
L 836.823117 288.005391 
L 838.061374 291.115098 
L 839.299632 292.841706 
L 840.537889 293.351128 
L 841.776146 293.256117 
L 843.014403 293.476874 
L 844.252661 294.844675 
L 845.490918 297.441217 
L 847.967432 303.820746 
L 849.20569 306.45023 
L 850.443947 308.302797 
L 851.682204 309.355506 
L 852.920461 309.680249 
L 854.158719 309.602334 
L 855.396976 309.780976 
L 857.873491 311.140986 
L 859.111748 311.001355 
L 860.350005 309.969065 
L 862.82652 307.150798 
L 864.064777 306.276982 
L 865.303034 305.764668 
L 866.541291 305.599955 
L 867.779549 305.906345 
L 869.017806 306.527362 
L 870.256063 306.921026 
L 871.49432 306.506927 
L 872.732578 305.180918 
L 875.209092 301.675624 
L 876.44735 300.462624 
L 877.685607 299.765859 
L 878.923864 299.263666 
L 880.162121 298.593965 
L 883.876893 295.717395 
L 885.11515 295.093086 
L 886.353408 294.864329 
L 887.591665 294.972188 
L 888.829922 295.294997 
L 891.306437 296.255496 
L 893.782951 297.281148 
L 895.021209 296.910941 
L 896.259466 294.819711 
L 897.497723 290.869627 
L 898.73598 285.934055 
L 899.974238 561.202423 
L 923.501126 561.202423 
L 924.739383 282.429461 
L 928.454155 286.80086 
L 932.168927 292.973119 
L 933.407184 294.402494 
L 934.645441 294.748668 
L 935.883698 292.920526 
L 937.121956 287.789076 
L 938.360213 278.907433 
L 940.836727 256.24714 
L 942.074985 249.052091 
L 943.313242 247.241169 
L 944.551499 249.679477 
L 947.028014 258.420533 
L 948.266271 261.106103 
L 949.504528 262.072078 
L 951.981043 262.468872 
L 953.2193 262.872181 
L 954.457557 263.711074 
L 955.695815 265.45609 
L 956.934072 268.146095 
L 958.172329 271.180973 
L 959.410586 273.702928 
L 960.648844 274.826973 
L 961.887101 273.910822 
L 963.125358 270.944474 
L 965.601873 262.207533 
L 966.84013 258.854273 
L 968.078387 257.238902 
L 969.316645 257.380901 
L 970.554902 258.910661 
L 971.793159 261.532894 
L 973.031416 265.385646 
L 974.269674 270.560455 
L 975.507931 276.336064 
L 976.746188 281.356834 
L 977.984446 284.583156 
L 979.222703 285.95595 
L 980.46096 285.919605 
L 981.699217 284.467427 
L 982.937475 281.039201 
L 984.175732 275.084724 
L 985.413989 266.77961 
L 986.652246 257.563016 
L 987.890504 249.767021 
L 989.128761 245.484135 
L 990.367018 245.562482 
L 991.605275 249.213516 
L 994.08179 259.906146 
L 995.320047 264.392994 
L 996.558305 268.146027 
L 997.796562 271.483835 
L 999.034819 274.188307 
L 1000.273076 275.754719 
L 1002.749591 276.73975 
L 1003.987848 278.776264 
L 1005.226105 283.207509 
L 1006.464363 289.033456 
L 1007.70262 293.874071 
L 1008.940877 295.943279 
L 1010.179134 295.289865 
L 1011.417392 293.044906 
L 1012.655649 289.924712 
L 1013.893906 285.617513 
L 1015.132164 279.614867 
L 1017.608678 264.781296 
L 1018.846935 258.88894 
L 1020.085193 256.596431 
L 1021.32345 258.749981 
L 1022.561707 264.0901 
L 1023.799964 270.369202 
L 1025.038222 275.563024 
L 1026.276479 277.794166 
L 1027.514736 275.454908 
L 1028.752993 268.25557 
L 1031.229508 247.320415 
L 1032.467765 238.997478 
L 1033.706023 234.051927 
L 1034.94428 232.109804 
L 1036.182537 231.570362 
L 1037.420794 230.430065 
L 1038.659052 227.807423 
L 1041.135566 221.105557 
L 1043.612081 214.807691 
L 1044.850338 210.810118 
L 1046.088595 206.395636 
L 1047.326852 202.732333 
L 1048.56511 200.81865 
L 1049.803367 200.410159 
L 1051.041624 200.30489 
L 1052.279882 199.930501 
L 1053.518139 200.465988 
L 1054.756396 203.840457 
L 1055.994653 210.74822 
L 1059.709425 238.388231 
L 1060.947682 244.628291 
L 1062.18594 248.990083 
L 1063.424197 252.264125 
L 1064.662454 255.055255 
L 1065.900711 257.480904 
L 1067.138969 259.280545 
L 1068.377226 260.248177 
L 1069.615483 260.40386 
L 1070.853741 259.698961 
L 1072.091998 257.899874 
L 1074.568512 252.696084 
L 1075.80677 251.75294 
L 1077.045027 252.693807 
L 1079.521541 257.092605 
L 1080.759799 258.728356 
L 1081.998056 259.351297 
L 1083.236313 258.783919 
L 1084.474571 256.787157 
L 1085.712828 253.283399 
L 1088.189342 244.201774 
L 1089.4276 240.813894 
L 1090.665857 239.435607 
L 1091.904114 240.438186 
L 1093.142371 243.315729 
L 1094.380629 246.78086 
L 1095.618886 249.645006 
L 1096.857143 251.315241 
L 1098.0954 251.711078 
L 1100.571915 250.774451 
L 1101.810172 251.146507 
L 1103.04843 252.632903 
L 1104.286687 255.058154 
L 1105.524944 257.966779 
L 1106.763201 260.46644 
L 1108.001459 261.656954 
L 1109.239716 261.260228 
L 1110.477973 259.691212 
L 1111.71623 257.912261 
L 1112.954488 257.06325 
L 1114.192745 257.720217 
L 1115.431002 259.361087 
L 1116.669259 260.608139 
L 1117.907517 260.122097 
L 1119.145774 257.335869 
L 1120.384031 252.353467 
L 1121.622289 245.554993 
L 1124.098803 230.218701 
L 1125.33706 223.742814 
L 1126.575318 218.239874 
L 1127.813575 213.504647 
L 1129.051832 209.953637 
L 1130.290089 208.664227 
L 1131.528347 210.930267 
L 1132.766604 216.928169 
L 1135.243118 232.011843 
L 1136.481376 237.078493 
L 1137.719633 240.15126 
L 1141.434405 246.200655 
L 1145.149177 254.817288 
L 1147.625691 259.519551 
L 1150.102206 264.839479 
L 1151.340463 266.516655 
L 1152.57872 266.739992 
L 1153.816977 266.311735 
L 1155.055235 266.326104 
L 1156.293492 266.809077 
L 1157.531749 266.791093 
L 1158.770007 265.70173 
L 1160.008264 264.138144 
L 1161.246521 263.014738 
L 1162.484778 262.710791 
L 1163.723036 263.223538 
L 1166.19955 265.351373 
L 1167.437807 265.905258 
L 1168.676065 265.851358 
L 1169.914322 265.372073 
L 1172.390837 264.02364 
L 1176.105608 262.64338 
L 1177.343866 262.019397 
L 1178.582123 261.818808 
L 1181.058637 262.152061 
L 1182.296895 261.547089 
L 1183.535152 259.814884 
L 1184.773409 257.045861 
L 1186.011666 253.795319 
L 1187.249924 250.947924 
L 1188.488181 249.556343 
L 1189.726438 250.437399 
L 1190.964696 253.674831 
L 1193.44121 263.126951 
L 1194.679467 266.753885 
L 1195.917725 268.714475 
L 1197.155982 268.876554 
L 1198.394239 267.515382 
L 1199.632496 265.221151 
L 1200.870754 262.388708 
L 1202.109011 258.932042 
L 1203.347268 254.448858 
L 1204.585525 248.321563 
L 1205.823783 239.761557 
L 1207.06204 228.09081 
L 1208.300297 213.302676 
L 1210.776812 181.141219 
L 1212.015069 169.692582 
L 1213.253326 164.464943 
L 1214.491584 165.623083 
L 1215.729841 171.459937 
L 1218.206355 187.422615 
L 1219.444613 194.452886 
L 1220.68287 199.330609 
L 1221.921127 200.685061 
L 1223.159384 198.049923 
L 1225.635899 187.012287 
L 1226.874156 183.401814 
L 1228.112414 182.612519 
L 1229.350671 183.984139 
L 1230.588928 186.612443 
L 1231.827185 190.061825 
L 1234.3037 198.607377 
L 1235.541957 202.867545 
L 1236.780214 206.402613 
L 1238.018472 209.119237 
L 1239.256729 211.515435 
L 1240.494986 214.17418 
L 1241.733243 217.336945 
L 1242.971501 220.869275 
L 1244.209758 223.978829 
L 1245.448015 225.283675 
L 1246.686273 223.626384 
L 1247.92453 218.531309 
L 1249.162787 210.181003 
L 1250.401044 199.277717 
L 1252.877559 172.945066 
L 1254.115816 159.879329 
L 1255.354073 149.455421 
L 1256.592331 142.446737 
L 1259.068845 132.775546 
L 1260.307103 126.822519 
L 1261.54536 119.186951 
L 1262.783617 110.713699 
L 1264.021874 103.534773 
L 1265.260132 99.88895 
L 1266.498389 101.130458 
L 1267.736646 107.247383 
L 1268.974903 116.860452 
L 1271.451418 138.340499 
L 1272.689675 146.347958 
L 1273.927932 151.261793 
L 1275.16619 154.263734 
L 1276.404447 157.773058 
L 1277.642704 163.840908 
L 1278.880962 173.172815 
L 1281.357476 196.035454 
L 1282.595733 205.214059 
L 1283.833991 212.108265 
L 1285.072248 217.489245 
L 1286.310505 221.731129 
L 1287.548762 224.620136 
L 1288.78702 226.02475 
L 1290.025277 226.407925 
L 1291.263534 226.324388 
L 1292.501791 225.81602 
L 1293.740049 225.160294 
L 1294.978306 225.472033 
L 1296.216563 227.56104 
L 1297.454821 230.809824 
L 1298.693078 233.697066 
L 1299.931335 235.285487 
L 1301.169592 236.021333 
L 1302.40785 236.970184 
L 1304.884364 240.181236 
L 1306.122621 240.786971 
L 1307.360879 240.003613 
L 1308.599136 238.250738 
L 1311.07565 234.113109 
L 1312.313908 233.24025 
L 1313.552165 234.4222 
L 1314.790422 238.065867 
L 1317.266937 249.359029 
L 1318.505194 252.930176 
L 1319.743451 251.445069 
L 1320.981709 242.866366 
L 1322.219966 227.453209 
L 1324.69648 188.651832 
L 1325.934738 172.872595 
L 1327.172995 162.973553 
L 1328.411252 159.507324 
L 1329.649509 161.012108 
L 1330.887767 164.989948 
L 1332.126024 169.9327 
L 1333.364281 176.030613 
L 1337.079053 199.298359 
L 1338.31731 204.615202 
L 1339.555568 208.264367 
L 1342.032082 214.143972 
L 1343.270339 218.282986 
L 1344.508597 223.530073 
L 1346.985111 235.801864 
L 1348.223368 242.108783 
L 1349.461626 247.121393 
L 1350.699883 249.067936 
L 1351.93814 246.868808 
L 1353.176398 240.557119 
L 1354.414655 231.045808 
L 1356.891169 209.651472 
L 1358.129427 201.406516 
L 1359.367684 195.776694 
L 1360.605941 192.648417 
L 1361.844198 191.862495 
L 1363.082456 193.488321 
L 1364.320713 197.670553 
L 1368.035485 216.023648 
L 1369.273742 220.126492 
L 1370.511999 222.350016 
L 1371.750257 223.09807 
L 1372.988514 223.437344 
L 1375.465028 224.585778 
L 1376.703286 225.520907 
L 1377.941543 227.465754 
L 1380.418057 233.717632 
L 1381.656315 236.025541 
L 1382.894572 236.9498 
L 1384.132829 236.389919 
L 1385.371087 234.352899 
L 1387.847601 228.227824 
L 1389.085858 226.764602 
L 1390.324116 227.571106 
L 1391.562373 230.413408 
L 1392.80063 234.520913 
L 1395.277145 243.417153 
L 1396.515402 246.924142 
L 1397.753659 248.815487 
L 1398.991916 248.200447 
L 1400.230174 245.230277 
L 1401.468431 241.664137 
L 1402.706688 239.575107 
L 1403.944946 239.756697 
L 1406.42146 243.045651 
L 1408.897975 245.361916 
L 1410.136232 247.347823 
L 1412.612746 253.144141 
L 1413.851004 254.927186 
L 1415.089261 255.418122 
L 1416.327518 254.67483 
L 1417.565775 252.182006 
L 1418.804033 247.635142 
L 1421.280547 235.933125 
L 1422.518805 231.128104 
L 1423.757062 228.166458 
L 1424.995319 227.856241 
L 1426.233576 230.322005 
L 1428.710091 238.406174 
L 1429.948348 240.91639 
L 1431.186605 241.558248 
L 1432.424863 240.770758 
L 1433.66312 239.548174 
L 1434.901377 239.158548 
L 1436.139634 240.693701 
L 1437.377892 244.521291 
L 1438.616149 249.687716 
L 1439.854406 253.691361 
L 1441.092664 253.48777 
L 1442.330921 247.582038 
L 1443.569178 237.229084 
L 1444.807435 225.559353 
L 1446.045693 216.124523 
L 1447.28395 211.699597 
L 1448.522207 212.746262 
L 1449.760464 216.861585 
L 1450.998722 220.576353 
L 1452.236979 221.621678 
L 1453.475236 219.640137 
L 1455.951751 212.29132 
L 1457.190008 210.894754 
L 1458.428265 212.355954 
L 1460.90478 219.169891 
L 1462.143037 220.361437 
L 1463.381294 218.350234 
L 1464.619552 213.814146 
L 1467.096066 203.027808 
L 1468.334323 197.919651 
L 1469.572581 191.866523 
L 1470.810838 182.845806 
L 1472.049095 169.595565 
L 1474.52561 136.706148 
L 1475.763867 123.242544 
L 1477.002124 115.424289 
L 1478.240382 114.99965 
L 1479.478639 122.050054 
L 1480.716896 134.587122 
L 1483.193411 163.874449 
L 1484.431668 174.499284 
L 1485.669925 179.611209 
L 1486.908182 179.72002 
L 1488.14644 177.014038 
L 1489.384697 173.711626 
L 1490.622954 171.194867 
L 1491.861212 169.696495 
L 1494.337726 167.598983 
L 1495.575983 167.432768 
L 1496.814241 169.151625 
L 1498.052498 173.24198 
L 1499.290755 179.231843 
L 1501.76727 193.539691 
L 1503.005527 201.000371 
L 1504.243784 207.308298 
L 1505.482041 210.970444 
L 1506.720299 211.330109 
L 1507.958556 208.917909 
L 1509.196813 205.592703 
L 1510.435071 203.613186 
L 1511.673328 204.143705 
L 1512.911585 207.115391 
L 1515.3881 215.648458 
L 1516.626357 217.996785 
L 1517.864614 218.260259 
L 1519.102871 216.924708 
L 1521.579386 212.875763 
L 1522.817643 211.155422 
L 1524.0559 208.69349 
L 1525.294158 203.67715 
L 1526.532415 194.660511 
L 1529.00893 169.394582 
L 1530.247187 159.943708 
L 1531.485444 156.457598 
L 1532.723701 159.2663 
L 1535.200216 173.705725 
L 1536.438473 178.031747 
L 1537.67673 177.375464 
L 1538.914988 171.235424 
L 1540.153245 159.631411 
L 1541.391502 143.395781 
L 1542.62976 125.177043 
L 1543.868017 108.955248 
L 1545.106274 97.705269 
L 1546.344531 91.210729 
L 1547.582789 86.087754 
L 1548.821046 78.665027 
L 1551.29756 57.891146 
L 1552.535818 51.720108 
L 1553.774075 52.357167 
L 1555.012332 58.923309 
L 1557.488847 78.14827 
L 1558.727104 88.898831 
L 1559.965361 102.146147 
L 1561.203619 118.605461 
L 1563.680133 153.836172 
L 1564.91839 167.479524 
L 1566.156648 176.873272 
L 1567.394905 181.946196 
L 1568.633162 183.091905 
L 1569.871419 181.231438 
L 1572.347934 174.844437 
L 1573.586191 173.067473 
L 1574.824448 172.635841 
L 1576.062706 173.692391 
L 1577.300963 176.836295 
L 1578.53922 182.094422 
L 1579.777478 188.157446 
L 1581.015735 192.809385 
L 1582.253992 193.945904 
L 1583.492249 190.679147 
L 1584.730507 183.654483 
L 1587.207021 165.150555 
L 1588.445278 157.819919 
L 1589.683536 153.406085 
L 1590.921793 151.678274 
L 1592.16005 152.248276 
L 1593.398307 155.064672 
L 1594.636565 160.06315 
L 1597.113079 173.235837 
L 1598.351337 178.658439 
L 1599.589594 181.650781 
L 1600.827851 181.646614 
L 1602.066108 179.609067 
L 1603.304366 177.980488 
L 1604.542623 179.006636 
L 1605.78088 183.379638 
L 1608.257395 196.688011 
L 1609.495652 201.629056 
L 1610.733909 204.754419 
L 1613.210424 209.332043 
L 1615.686938 214.593497 
L 1616.925196 216.092103 
L 1618.163453 215.523582 
L 1619.40171 212.885269 
L 1621.878225 204.925745 
L 1623.116482 201.792891 
L 1624.354739 199.983087 
L 1626.831254 197.836004 
L 1628.069511 196.136243 
L 1630.546026 192.120664 
L 1631.784283 190.82932 
L 1633.02254 190.685088 
L 1634.260797 191.797482 
L 1635.499055 193.580721 
L 1636.737312 195.110793 
L 1637.975569 195.792633 
L 1639.213826 195.433551 
L 1640.452084 194.057359 
L 1641.690341 192.017224 
L 1641.690341 192.017224 
" style="fill:none;stroke:#008000;stroke-linecap:square;stroke-width:1.5;"/>
   </g>
   <g id="patch_3">
    <path d="M 43.78125 586.86358 
L 43.78125 22.318125 
" style="fill:none;stroke:#000000;stroke-linecap:square;stroke-linejoin:miter;stroke-width:0.8;"/>
   </g>
   <g id="patch_4">
    <path d="M 1717.78125 586.86358 
L 1717.78125 22.318125 
" style="fill:none;stroke:#000000;stroke-linecap:square;stroke-linejoin:miter;stroke-width:0.8;"/>
   </g>
   <g id="patch_5">
    <path d="M 43.78125 586.86358 
L 1717.78125 586.86358 
" style="fill:none;stroke:#000000;stroke-linecap:square;stroke-linejoin:miter;stroke-width:0.8;"/>
   </g>
   <g id="patch_6">
    <path d="M 43.78125 22.318125 
L 1717.78125 22.318125 
" style="fill:none;stroke:#000000;stroke-linecap:square;stroke-linejoin:miter;stroke-width:0.8;"/>
   </g>
   <g id="text_15">
    <!-- before binarisation -->
    <g transform="translate(824.1825 16.318125)scale(0.12 -0.12)">
     <defs>
      <path d="M 3116 1747 
Q 3116 2381 2855 2742 
Q 2594 3103 2138 3103 
Q 1681 3103 1420 2742 
Q 1159 2381 1159 1747 
Q 1159 1113 1420 752 
Q 1681 391 2138 391 
Q 2594 391 2855 752 
Q 3116 1113 3116 1747 
z
M 1159 2969 
Q 1341 3281 1617 3432 
Q 1894 3584 2278 3584 
Q 2916 3584 3314 3078 
Q 3713 2572 3713 1747 
Q 3713 922 3314 415 
Q 2916 -91 2278 -91 
Q 1894 -91 1617 61 
Q 1341 213 1159 525 
L 1159 0 
L 581 0 
L 581 4863 
L 1159 4863 
L 1159 2969 
z
" id="DejaVuSans-62" transform="scale(0.015625)"/>
      <path d="M 1959 3097 
Q 1497 3097 1228 2736 
Q 959 2375 959 1747 
Q 959 1119 1226 758 
Q 1494 397 1959 397 
Q 2419 397 2687 759 
Q 2956 1122 2956 1747 
Q 2956 2369 2687 2733 
Q 2419 3097 1959 3097 
z
M 1959 3584 
Q 2709 3584 3137 3096 
Q 3566 2609 3566 1747 
Q 3566 888 3137 398 
Q 2709 -91 1959 -91 
Q 1206 -91 779 398 
Q 353 888 353 1747 
Q 353 2609 779 3096 
Q 1206 3584 1959 3584 
z
" id="DejaVuSans-6f" transform="scale(0.015625)"/>
      <path id="DejaVuSans-20" transform="scale(0.015625)"/>
      <path d="M 603 3500 
L 1178 3500 
L 1178 0 
L 603 0 
L 603 3500 
z
M 603 4863 
L 1178 4863 
L 1178 4134 
L 603 4134 
L 603 4863 
z
" id="DejaVuSans-69" transform="scale(0.015625)"/>
      <path d="M 3513 2113 
L 3513 0 
L 2938 0 
L 2938 2094 
Q 2938 2591 2744 2837 
Q 2550 3084 2163 3084 
Q 1697 3084 1428 2787 
Q 1159 2491 1159 1978 
L 1159 0 
L 581 0 
L 581 3500 
L 1159 3500 
L 1159 2956 
Q 1366 3272 1645 3428 
Q 1925 3584 2291 3584 
Q 2894 3584 3203 3211 
Q 3513 2838 3513 2113 
z
" id="DejaVuSans-6e" transform="scale(0.015625)"/>
      <path d="M 2834 3397 
L 2834 2853 
Q 2591 2978 2328 3040 
Q 2066 3103 1784 3103 
Q 1356 3103 1142 2972 
Q 928 2841 928 2578 
Q 928 2378 1081 2264 
Q 1234 2150 1697 2047 
L 1894 2003 
Q 2506 1872 2764 1633 
Q 3022 1394 3022 966 
Q 3022 478 2636 193 
Q 2250 -91 1575 -91 
Q 1294 -91 989 -36 
Q 684 19 347 128 
L 347 722 
Q 666 556 975 473 
Q 1284 391 1588 391 
Q 1994 391 2212 530 
Q 2431 669 2431 922 
Q 2431 1156 2273 1281 
Q 2116 1406 1581 1522 
L 1381 1569 
Q 847 1681 609 1914 
Q 372 2147 372 2553 
Q 372 3047 722 3315 
Q 1072 3584 1716 3584 
Q 2034 3584 2315 3537 
Q 2597 3491 2834 3397 
z
" id="DejaVuSans-73" transform="scale(0.015625)"/>
      <path d="M 1172 4494 
L 1172 3500 
L 2356 3500 
L 2356 3053 
L 1172 3053 
L 1172 1153 
Q 1172 725 1289 603 
Q 1406 481 1766 481 
L 2356 481 
L 2356 0 
L 1766 0 
Q 1100 0 847 248 
Q 594 497 594 1153 
L 594 3053 
L 172 3053 
L 172 3500 
L 594 3500 
L 594 4494 
L 1172 4494 
z
" id="DejaVuSans-74" transform="scale(0.015625)"/>
     </defs>
     <use xlink:href="#DejaVuSans-62"/>
     <use x="63.476562" xlink:href="#DejaVuSans-65"/>
     <use x="125" xlink:href="#DejaVuSans-66"/>
     <use x="160.205078" xlink:href="#DejaVuSans-6f"/>
     <use x="221.386719" xlink:href="#DejaVuSans-72"/>
     <use x="260.25" xlink:href="#DejaVuSans-65"/>
     <use x="321.773438" xlink:href="#DejaVuSans-20"/>
     <use x="353.560547" xlink:href="#DejaVuSans-62"/>
     <use x="417.037109" xlink:href="#DejaVuSans-69"/>
     <use x="444.820312" xlink:href="#DejaVuSans-6e"/>
     <use x="508.199219" xlink:href="#DejaVuSans-61"/>
     <use x="569.478516" xlink:href="#DejaVuSans-72"/>
     <use x="610.591797" xlink:href="#DejaVuSans-69"/>
     <use x="638.375" xlink:href="#DejaVuSans-73"/>
     <use x="690.474609" xlink:href="#DejaVuSans-61"/>
     <use x="751.753906" xlink:href="#DejaVuSans-74"/>
     <use x="790.962891" xlink:href="#DejaVuSans-69"/>
     <use x="818.746094" xlink:href="#DejaVuSans-6f"/>
     <use x="879.927734" xlink:href="#DejaVuSans-6e"/>
    </g>
   </g>
  </g>
  <g id="axes_2">
   <g id="patch_7">
    <path d="M 43.78125 1264.318125 
L 1717.78125 1264.318125 
L 1717.78125 699.77267 
L 43.78125 699.77267 
z
" style="fill:#ffffff;"/>
   </g>
   <g id="matplotlib.axis_3">
    <g id="xtick_8">
     <g id="line2d_14">
      <g>
       <use style="stroke:#000000;stroke-width:0.8;" x="119.872159" xlink:href="#m63a894c722" y="1264.318125"/>
      </g>
     </g>
     <g id="text_16">
      <!-- 0 -->
      <g transform="translate(116.690909 1278.916563)scale(0.1 -0.1)">
       <use xlink:href="#DejaVuSans-30"/>
      </g>
     </g>
    </g>
    <g id="xtick_9">
     <g id="line2d_15">
      <g>
       <use style="stroke:#000000;stroke-width:0.8;" x="367.523613" xlink:href="#m63a894c722" y="1264.318125"/>
      </g>
     </g>
     <g id="text_17">
      <!-- 200 -->
      <g transform="translate(357.979863 1278.916563)scale(0.1 -0.1)">
       <use xlink:href="#DejaVuSans-32"/>
       <use x="63.623047" xlink:href="#DejaVuSans-30"/>
       <use x="127.246094" xlink:href="#DejaVuSans-30"/>
      </g>
     </g>
    </g>
    <g id="xtick_10">
     <g id="line2d_16">
      <g>
       <use style="stroke:#000000;stroke-width:0.8;" x="615.175066" xlink:href="#m63a894c722" y="1264.318125"/>
      </g>
     </g>
     <g id="text_18">
      <!-- 400 -->
      <g transform="translate(605.631316 1278.916563)scale(0.1 -0.1)">
       <use xlink:href="#DejaVuSans-34"/>
       <use x="63.623047" xlink:href="#DejaVuSans-30"/>
       <use x="127.246094" xlink:href="#DejaVuSans-30"/>
      </g>
     </g>
    </g>
    <g id="xtick_11">
     <g id="line2d_17">
      <g>
       <use style="stroke:#000000;stroke-width:0.8;" x="862.82652" xlink:href="#m63a894c722" y="1264.318125"/>
      </g>
     </g>
     <g id="text_19">
      <!-- 600 -->
      <g transform="translate(853.28277 1278.916563)scale(0.1 -0.1)">
       <use xlink:href="#DejaVuSans-36"/>
       <use x="63.623047" xlink:href="#DejaVuSans-30"/>
       <use x="127.246094" xlink:href="#DejaVuSans-30"/>
      </g>
     </g>
    </g>
    <g id="xtick_12">
     <g id="line2d_18">
      <g>
       <use style="stroke:#000000;stroke-width:0.8;" x="1110.477973" xlink:href="#m63a894c722" y="1264.318125"/>
      </g>
     </g>
     <g id="text_20">
      <!-- 800 -->
      <g transform="translate(1100.934223 1278.916563)scale(0.1 -0.1)">
       <use xlink:href="#DejaVuSans-38"/>
       <use x="63.623047" xlink:href="#DejaVuSans-30"/>
       <use x="127.246094" xlink:href="#DejaVuSans-30"/>
      </g>
     </g>
    </g>
    <g id="xtick_13">
     <g id="line2d_19">
      <g>
       <use style="stroke:#000000;stroke-width:0.8;" x="1358.129427" xlink:href="#m63a894c722" y="1264.318125"/>
      </g>
     </g>
     <g id="text_21">
      <!-- 1000 -->
      <g transform="translate(1345.404427 1278.916563)scale(0.1 -0.1)">
       <use xlink:href="#DejaVuSans-31"/>
       <use x="63.623047" xlink:href="#DejaVuSans-30"/>
       <use x="127.246094" xlink:href="#DejaVuSans-30"/>
       <use x="190.869141" xlink:href="#DejaVuSans-30"/>
      </g>
     </g>
    </g>
    <g id="xtick_14">
     <g id="line2d_20">
      <g>
       <use style="stroke:#000000;stroke-width:0.8;" x="1605.78088" xlink:href="#m63a894c722" y="1264.318125"/>
      </g>
     </g>
     <g id="text_22">
      <!-- 1200 -->
      <g transform="translate(1593.05588 1278.916563)scale(0.1 -0.1)">
       <use xlink:href="#DejaVuSans-31"/>
       <use x="63.623047" xlink:href="#DejaVuSans-32"/>
       <use x="127.246094" xlink:href="#DejaVuSans-30"/>
       <use x="190.869141" xlink:href="#DejaVuSans-30"/>
      </g>
     </g>
    </g>
    <g id="text_23">
     <!-- frame -->
     <g transform="translate(865.954687 1292.594688)scale(0.1 -0.1)">
      <use xlink:href="#DejaVuSans-66"/>
      <use x="35.205078" xlink:href="#DejaVuSans-72"/>
      <use x="76.318359" xlink:href="#DejaVuSans-61"/>
      <use x="137.597656" xlink:href="#DejaVuSans-6d"/>
      <use x="235.009766" xlink:href="#DejaVuSans-65"/>
     </g>
    </g>
   </g>
   <g id="matplotlib.axis_4">
    <g id="ytick_6">
     <g id="line2d_21">
      <g>
       <use style="stroke:#000000;stroke-width:0.8;" x="43.78125" xlink:href="#m417bc514a5" y="1238.656968"/>
      </g>
     </g>
     <g id="text_24">
      <!-- 0.0 -->
      <g transform="translate(20.878125 1242.456187)scale(0.1 -0.1)">
       <use xlink:href="#DejaVuSans-30"/>
       <use x="63.623047" xlink:href="#DejaVuSans-2e"/>
       <use x="95.410156" xlink:href="#DejaVuSans-30"/>
      </g>
     </g>
    </g>
    <g id="ytick_7">
     <g id="line2d_22">
      <g>
       <use style="stroke:#000000;stroke-width:0.8;" x="43.78125" xlink:href="#m417bc514a5" y="1136.01234"/>
      </g>
     </g>
     <g id="text_25">
      <!-- 0.2 -->
      <g transform="translate(20.878125 1139.811559)scale(0.1 -0.1)">
       <use xlink:href="#DejaVuSans-30"/>
       <use x="63.623047" xlink:href="#DejaVuSans-2e"/>
       <use x="95.410156" xlink:href="#DejaVuSans-32"/>
      </g>
     </g>
    </g>
    <g id="ytick_8">
     <g id="line2d_23">
      <g>
       <use style="stroke:#000000;stroke-width:0.8;" x="43.78125" xlink:href="#m417bc514a5" y="1033.367712"/>
      </g>
     </g>
     <g id="text_26">
      <!-- 0.4 -->
      <g transform="translate(20.878125 1037.166931)scale(0.1 -0.1)">
       <use xlink:href="#DejaVuSans-30"/>
       <use x="63.623047" xlink:href="#DejaVuSans-2e"/>
       <use x="95.410156" xlink:href="#DejaVuSans-34"/>
      </g>
     </g>
    </g>
    <g id="ytick_9">
     <g id="line2d_24">
      <g>
       <use style="stroke:#000000;stroke-width:0.8;" x="43.78125" xlink:href="#m417bc514a5" y="930.723084"/>
      </g>
     </g>
     <g id="text_27">
      <!-- 0.6 -->
      <g transform="translate(20.878125 934.522302)scale(0.1 -0.1)">
       <use xlink:href="#DejaVuSans-30"/>
       <use x="63.623047" xlink:href="#DejaVuSans-2e"/>
       <use x="95.410156" xlink:href="#DejaVuSans-36"/>
      </g>
     </g>
    </g>
    <g id="ytick_10">
     <g id="line2d_25">
      <g>
       <use style="stroke:#000000;stroke-width:0.8;" x="43.78125" xlink:href="#m417bc514a5" y="828.078456"/>
      </g>
     </g>
     <g id="text_28">
      <!-- 0.8 -->
      <g transform="translate(20.878125 831.877674)scale(0.1 -0.1)">
       <use xlink:href="#DejaVuSans-30"/>
       <use x="63.623047" xlink:href="#DejaVuSans-2e"/>
       <use x="95.410156" xlink:href="#DejaVuSans-38"/>
      </g>
     </g>
    </g>
    <g id="ytick_11">
     <g id="line2d_26">
      <g>
       <use style="stroke:#000000;stroke-width:0.8;" x="43.78125" xlink:href="#m417bc514a5" y="725.433827"/>
      </g>
     </g>
     <g id="text_29">
      <!-- 1.0 -->
      <g transform="translate(20.878125 729.233046)scale(0.1 -0.1)">
       <use xlink:href="#DejaVuSans-31"/>
       <use x="63.623047" xlink:href="#DejaVuSans-2e"/>
       <use x="95.410156" xlink:href="#DejaVuSans-30"/>
      </g>
     </g>
    </g>
    <g id="text_30">
     <!-- GCaMP -->
     <g transform="translate(14.798437 999.803991)rotate(-90)scale(0.1 -0.1)">
      <use xlink:href="#DejaVuSans-47"/>
      <use x="77.490234" xlink:href="#DejaVuSans-43"/>
      <use x="147.314453" xlink:href="#DejaVuSans-61"/>
      <use x="208.59375" xlink:href="#DejaVuSans-4d"/>
      <use x="294.873047" xlink:href="#DejaVuSans-50"/>
     </g>
    </g>
   </g>
   <g id="line2d_27">
    <path clip-path="url(#pf0c3258a85)" d="M 119.872159 1238.656968 
L 449.248592 1238.656968 
L 450.48685 725.433827 
L 456.678136 725.433827 
L 457.916393 1238.656968 
L 594.124693 1238.656968 
L 595.36295 725.433827 
L 617.651581 725.433827 
L 618.889838 1238.656968 
L 625.081124 1238.656968 
L 626.319382 725.433827 
L 639.940211 725.433827 
L 641.178469 1238.656968 
L 1210.776812 1238.656968 
L 1212.015069 725.433827 
L 1215.729841 725.433827 
L 1216.968098 1238.656968 
L 1251.639302 1238.656968 
L 1252.877559 725.433827 
L 1278.880962 725.433827 
L 1280.119219 1238.656968 
L 1324.69648 1238.656968 
L 1325.934738 725.433827 
L 1332.126024 725.433827 
L 1333.364281 1238.656968 
L 1470.810838 1238.656968 
L 1472.049095 725.433827 
L 1483.193411 725.433827 
L 1484.431668 1238.656968 
L 1488.14644 1238.656968 
L 1489.384697 725.433827 
L 1498.052498 725.433827 
L 1499.290755 1238.656968 
L 1527.770672 1238.656968 
L 1529.00893 725.433827 
L 1535.200216 725.433827 
L 1536.438473 1238.656968 
L 1537.67673 1238.656968 
L 1538.914988 725.433827 
L 1564.91839 725.433827 
L 1566.156648 1238.656968 
L 1572.347934 1238.656968 
L 1573.586191 725.433827 
L 1576.062706 725.433827 
L 1577.300963 1238.656968 
L 1585.968764 1238.656968 
L 1587.207021 725.433827 
L 1597.113079 725.433827 
L 1598.351337 1238.656968 
L 1641.690341 1238.656968 
L 1641.690341 1238.656968 
" style="fill:none;stroke:#008000;stroke-linecap:square;stroke-width:1.5;"/>
   </g>
   <g id="patch_8">
    <path d="M 43.78125 1264.318125 
L 43.78125 699.77267 
" style="fill:none;stroke:#000000;stroke-linecap:square;stroke-linejoin:miter;stroke-width:0.8;"/>
   </g>
   <g id="patch_9">
    <path d="M 1717.78125 1264.318125 
L 1717.78125 699.77267 
" style="fill:none;stroke:#000000;stroke-linecap:square;stroke-linejoin:miter;stroke-width:0.8;"/>
   </g>
   <g id="patch_10">
    <path d="M 43.78125 1264.318125 
L 1717.78125 1264.318125 
" style="fill:none;stroke:#000000;stroke-linecap:square;stroke-linejoin:miter;stroke-width:0.8;"/>
   </g>
   <g id="patch_11">
    <path d="M 43.78125 699.77267 
L 1717.78125 699.77267 
" style="fill:none;stroke:#000000;stroke-linecap:square;stroke-linejoin:miter;stroke-width:0.8;"/>
   </g>
   <g id="text_31">
    <!-- before binarisation -->
    <g transform="translate(824.1825 693.77267)scale(0.12 -0.12)">
     <use xlink:href="#DejaVuSans-62"/>
     <use x="63.476562" xlink:href="#DejaVuSans-65"/>
     <use x="125" xlink:href="#DejaVuSans-66"/>
     <use x="160.205078" xlink:href="#DejaVuSans-6f"/>
     <use x="221.386719" xlink:href="#DejaVuSans-72"/>
     <use x="260.25" xlink:href="#DejaVuSans-65"/>
     <use x="321.773438" xlink:href="#DejaVuSans-20"/>
     <use x="353.560547" xlink:href="#DejaVuSans-62"/>
     <use x="417.037109" xlink:href="#DejaVuSans-69"/>
     <use x="444.820312" xlink:href="#DejaVuSans-6e"/>
     <use x="508.199219" xlink:href="#DejaVuSans-61"/>
     <use x="569.478516" xlink:href="#DejaVuSans-72"/>
     <use x="610.591797" xlink:href="#DejaVuSans-69"/>
     <use x="638.375" xlink:href="#DejaVuSans-73"/>
     <use x="690.474609" xlink:href="#DejaVuSans-61"/>
     <use x="751.753906" xlink:href="#DejaVuSans-74"/>
     <use x="790.962891" xlink:href="#DejaVuSans-69"/>
     <use x="818.746094" xlink:href="#DejaVuSans-6f"/>
     <use x="879.927734" xlink:href="#DejaVuSans-6e"/>
    </g>
   </g>
  </g>
 </g>
 <defs>
  <clipPath id="p2c7cbefb3d">
   <rect height="564.545455" width="1674" x="43.78125" y="22.318125"/>
  </clipPath>
  <clipPath id="pf0c3258a85">
   <rect height="564.545455" width="1674" x="43.78125" y="699.77267"/>
  </clipPath>
 </defs>
</svg>
