<?xml version="1.0" encoding="utf-8" standalone="no"?>
<!DOCTYPE svg PUBLIC "-//W3C//DTD SVG 1.1//EN"
  "http://www.w3.org/Graphics/SVG/1.1/DTD/svg11.dtd">
<svg height="1301.874375pt" version="1.1" viewBox="0 0 1724.98125 1301.874375" width="1724.98125pt" xmlns="http://www.w3.org/2000/svg" xmlns:xlink="http://www.w3.org/1999/xlink">
 <metadata>
  <rdf:RDF xmlns:cc="http://creativecommons.org/ns#" xmlns:dc="http://purl.org/dc/elements/1.1/" xmlns:rdf="http://www.w3.org/1999/02/22-rdf-syntax-ns#">
   <cc:Work>
    <dc:type rdf:resource="http://purl.org/dc/dcmitype/StillImage"/>
    <dc:date>2022-07-24T15:54:41.725630</dc:date>
    <dc:format>image/svg+xml</dc:format>
    <dc:creator>
     <cc:Agent>
      <dc:title>Matplotlib v3.4.2, https://matplotlib.org/</dc:title>
     </cc:Agent>
    </dc:creator>
   </cc:Work>
  </rdf:RDF>
 </metadata>
 <defs>
  <style type="text/css">*{stroke-linecap:butt;stroke-linejoin:round;}</style>
 </defs>
 <g id="figure_1">
  <g id="patch_1">
   <path d="M 0 1301.874375 
L 1724.98125 1301.874375 
L 1724.98125 0 
L 0 0 
z
" style="fill:#ffffff;"/>
  </g>
  <g id="axes_1">
   <g id="patch_2">
    <path d="M 43.78125 586.86358 
L 1717.78125 586.86358 
L 1717.78125 22.318125 
L 43.78125 22.318125 
z
" style="fill:#ffffff;"/>
   </g>
   <g id="matplotlib.axis_1">
    <g id="xtick_1">
     <g id="line2d_1">
      <defs>
       <path d="M 0 0 
L 0 3.5 
" id="m4cb0c4ae1a" style="stroke:#000000;stroke-width:0.8;"/>
      </defs>
      <g>
       <use style="stroke:#000000;stroke-width:0.8;" x="119.872159" xlink:href="#m4cb0c4ae1a" y="586.86358"/>
      </g>
     </g>
     <g id="text_1">
      <!-- 0 -->
      <g transform="translate(116.690909 601.462017)scale(0.1 -0.1)">
       <defs>
        <path d="M 2034 4250 
Q 1547 4250 1301 3770 
Q 1056 3291 1056 2328 
Q 1056 1369 1301 889 
Q 1547 409 2034 409 
Q 2525 409 2770 889 
Q 3016 1369 3016 2328 
Q 3016 3291 2770 3770 
Q 2525 4250 2034 4250 
z
M 2034 4750 
Q 2819 4750 3233 4129 
Q 3647 3509 3647 2328 
Q 3647 1150 3233 529 
Q 2819 -91 2034 -91 
Q 1250 -91 836 529 
Q 422 1150 422 2328 
Q 422 3509 836 4129 
Q 1250 4750 2034 4750 
z
" id="DejaVuSans-30" transform="scale(0.015625)"/>
       </defs>
       <use xlink:href="#DejaVuSans-30"/>
      </g>
     </g>
    </g>
    <g id="xtick_2">
     <g id="line2d_2">
      <g>
       <use style="stroke:#000000;stroke-width:0.8;" x="367.523613" xlink:href="#m4cb0c4ae1a" y="586.86358"/>
      </g>
     </g>
     <g id="text_2">
      <!-- 200 -->
      <g transform="translate(357.979863 601.462017)scale(0.1 -0.1)">
       <defs>
        <path d="M 1228 531 
L 3431 531 
L 3431 0 
L 469 0 
L 469 531 
Q 828 903 1448 1529 
Q 2069 2156 2228 2338 
Q 2531 2678 2651 2914 
Q 2772 3150 2772 3378 
Q 2772 3750 2511 3984 
Q 2250 4219 1831 4219 
Q 1534 4219 1204 4116 
Q 875 4013 500 3803 
L 500 4441 
Q 881 4594 1212 4672 
Q 1544 4750 1819 4750 
Q 2544 4750 2975 4387 
Q 3406 4025 3406 3419 
Q 3406 3131 3298 2873 
Q 3191 2616 2906 2266 
Q 2828 2175 2409 1742 
Q 1991 1309 1228 531 
z
" id="DejaVuSans-32" transform="scale(0.015625)"/>
       </defs>
       <use xlink:href="#DejaVuSans-32"/>
       <use x="63.623047" xlink:href="#DejaVuSans-30"/>
       <use x="127.246094" xlink:href="#DejaVuSans-30"/>
      </g>
     </g>
    </g>
    <g id="xtick_3">
     <g id="line2d_3">
      <g>
       <use style="stroke:#000000;stroke-width:0.8;" x="615.175066" xlink:href="#m4cb0c4ae1a" y="586.86358"/>
      </g>
     </g>
     <g id="text_3">
      <!-- 400 -->
      <g transform="translate(605.631316 601.462017)scale(0.1 -0.1)">
       <defs>
        <path d="M 2419 4116 
L 825 1625 
L 2419 1625 
L 2419 4116 
z
M 2253 4666 
L 3047 4666 
L 3047 1625 
L 3713 1625 
L 3713 1100 
L 3047 1100 
L 3047 0 
L 2419 0 
L 2419 1100 
L 313 1100 
L 313 1709 
L 2253 4666 
z
" id="DejaVuSans-34" transform="scale(0.015625)"/>
       </defs>
       <use xlink:href="#DejaVuSans-34"/>
       <use x="63.623047" xlink:href="#DejaVuSans-30"/>
       <use x="127.246094" xlink:href="#DejaVuSans-30"/>
      </g>
     </g>
    </g>
    <g id="xtick_4">
     <g id="line2d_4">
      <g>
       <use style="stroke:#000000;stroke-width:0.8;" x="862.82652" xlink:href="#m4cb0c4ae1a" y="586.86358"/>
      </g>
     </g>
     <g id="text_4">
      <!-- 600 -->
      <g transform="translate(853.28277 601.462017)scale(0.1 -0.1)">
       <defs>
        <path d="M 2113 2584 
Q 1688 2584 1439 2293 
Q 1191 2003 1191 1497 
Q 1191 994 1439 701 
Q 1688 409 2113 409 
Q 2538 409 2786 701 
Q 3034 994 3034 1497 
Q 3034 2003 2786 2293 
Q 2538 2584 2113 2584 
z
M 3366 4563 
L 3366 3988 
Q 3128 4100 2886 4159 
Q 2644 4219 2406 4219 
Q 1781 4219 1451 3797 
Q 1122 3375 1075 2522 
Q 1259 2794 1537 2939 
Q 1816 3084 2150 3084 
Q 2853 3084 3261 2657 
Q 3669 2231 3669 1497 
Q 3669 778 3244 343 
Q 2819 -91 2113 -91 
Q 1303 -91 875 529 
Q 447 1150 447 2328 
Q 447 3434 972 4092 
Q 1497 4750 2381 4750 
Q 2619 4750 2861 4703 
Q 3103 4656 3366 4563 
z
" id="DejaVuSans-36" transform="scale(0.015625)"/>
       </defs>
       <use xlink:href="#DejaVuSans-36"/>
       <use x="63.623047" xlink:href="#DejaVuSans-30"/>
       <use x="127.246094" xlink:href="#DejaVuSans-30"/>
      </g>
     </g>
    </g>
    <g id="xtick_5">
     <g id="line2d_5">
      <g>
       <use style="stroke:#000000;stroke-width:0.8;" x="1110.477973" xlink:href="#m4cb0c4ae1a" y="586.86358"/>
      </g>
     </g>
     <g id="text_5">
      <!-- 800 -->
      <g transform="translate(1100.934223 601.462017)scale(0.1 -0.1)">
       <defs>
        <path d="M 2034 2216 
Q 1584 2216 1326 1975 
Q 1069 1734 1069 1313 
Q 1069 891 1326 650 
Q 1584 409 2034 409 
Q 2484 409 2743 651 
Q 3003 894 3003 1313 
Q 3003 1734 2745 1975 
Q 2488 2216 2034 2216 
z
M 1403 2484 
Q 997 2584 770 2862 
Q 544 3141 544 3541 
Q 544 4100 942 4425 
Q 1341 4750 2034 4750 
Q 2731 4750 3128 4425 
Q 3525 4100 3525 3541 
Q 3525 3141 3298 2862 
Q 3072 2584 2669 2484 
Q 3125 2378 3379 2068 
Q 3634 1759 3634 1313 
Q 3634 634 3220 271 
Q 2806 -91 2034 -91 
Q 1263 -91 848 271 
Q 434 634 434 1313 
Q 434 1759 690 2068 
Q 947 2378 1403 2484 
z
M 1172 3481 
Q 1172 3119 1398 2916 
Q 1625 2713 2034 2713 
Q 2441 2713 2670 2916 
Q 2900 3119 2900 3481 
Q 2900 3844 2670 4047 
Q 2441 4250 2034 4250 
Q 1625 4250 1398 4047 
Q 1172 3844 1172 3481 
z
" id="DejaVuSans-38" transform="scale(0.015625)"/>
       </defs>
       <use xlink:href="#DejaVuSans-38"/>
       <use x="63.623047" xlink:href="#DejaVuSans-30"/>
       <use x="127.246094" xlink:href="#DejaVuSans-30"/>
      </g>
     </g>
    </g>
    <g id="xtick_6">
     <g id="line2d_6">
      <g>
       <use style="stroke:#000000;stroke-width:0.8;" x="1358.129427" xlink:href="#m4cb0c4ae1a" y="586.86358"/>
      </g>
     </g>
     <g id="text_6">
      <!-- 1000 -->
      <g transform="translate(1345.404427 601.462017)scale(0.1 -0.1)">
       <defs>
        <path d="M 794 531 
L 1825 531 
L 1825 4091 
L 703 3866 
L 703 4441 
L 1819 4666 
L 2450 4666 
L 2450 531 
L 3481 531 
L 3481 0 
L 794 0 
L 794 531 
z
" id="DejaVuSans-31" transform="scale(0.015625)"/>
       </defs>
       <use xlink:href="#DejaVuSans-31"/>
       <use x="63.623047" xlink:href="#DejaVuSans-30"/>
       <use x="127.246094" xlink:href="#DejaVuSans-30"/>
       <use x="190.869141" xlink:href="#DejaVuSans-30"/>
      </g>
     </g>
    </g>
    <g id="xtick_7">
     <g id="line2d_7">
      <g>
       <use style="stroke:#000000;stroke-width:0.8;" x="1605.78088" xlink:href="#m4cb0c4ae1a" y="586.86358"/>
      </g>
     </g>
     <g id="text_7">
      <!-- 1200 -->
      <g transform="translate(1593.05588 601.462017)scale(0.1 -0.1)">
       <use xlink:href="#DejaVuSans-31"/>
       <use x="63.623047" xlink:href="#DejaVuSans-32"/>
       <use x="127.246094" xlink:href="#DejaVuSans-30"/>
       <use x="190.869141" xlink:href="#DejaVuSans-30"/>
      </g>
     </g>
    </g>
    <g id="text_8">
     <!-- frame -->
     <g transform="translate(865.954687 615.140142)scale(0.1 -0.1)">
      <defs>
       <path d="M 2375 4863 
L 2375 4384 
L 1825 4384 
Q 1516 4384 1395 4259 
Q 1275 4134 1275 3809 
L 1275 3500 
L 2222 3500 
L 2222 3053 
L 1275 3053 
L 1275 0 
L 697 0 
L 697 3053 
L 147 3053 
L 147 3500 
L 697 3500 
L 697 3744 
Q 697 4328 969 4595 
Q 1241 4863 1831 4863 
L 2375 4863 
z
" id="DejaVuSans-66" transform="scale(0.015625)"/>
       <path d="M 2631 2963 
Q 2534 3019 2420 3045 
Q 2306 3072 2169 3072 
Q 1681 3072 1420 2755 
Q 1159 2438 1159 1844 
L 1159 0 
L 581 0 
L 581 3500 
L 1159 3500 
L 1159 2956 
Q 1341 3275 1631 3429 
Q 1922 3584 2338 3584 
Q 2397 3584 2469 3576 
Q 2541 3569 2628 3553 
L 2631 2963 
z
" id="DejaVuSans-72" transform="scale(0.015625)"/>
       <path d="M 2194 1759 
Q 1497 1759 1228 1600 
Q 959 1441 959 1056 
Q 959 750 1161 570 
Q 1363 391 1709 391 
Q 2188 391 2477 730 
Q 2766 1069 2766 1631 
L 2766 1759 
L 2194 1759 
z
M 3341 1997 
L 3341 0 
L 2766 0 
L 2766 531 
Q 2569 213 2275 61 
Q 1981 -91 1556 -91 
Q 1019 -91 701 211 
Q 384 513 384 1019 
Q 384 1609 779 1909 
Q 1175 2209 1959 2209 
L 2766 2209 
L 2766 2266 
Q 2766 2663 2505 2880 
Q 2244 3097 1772 3097 
Q 1472 3097 1187 3025 
Q 903 2953 641 2809 
L 641 3341 
Q 956 3463 1253 3523 
Q 1550 3584 1831 3584 
Q 2591 3584 2966 3190 
Q 3341 2797 3341 1997 
z
" id="DejaVuSans-61" transform="scale(0.015625)"/>
       <path d="M 3328 2828 
Q 3544 3216 3844 3400 
Q 4144 3584 4550 3584 
Q 5097 3584 5394 3201 
Q 5691 2819 5691 2113 
L 5691 0 
L 5113 0 
L 5113 2094 
Q 5113 2597 4934 2840 
Q 4756 3084 4391 3084 
Q 3944 3084 3684 2787 
Q 3425 2491 3425 1978 
L 3425 0 
L 2847 0 
L 2847 2094 
Q 2847 2600 2669 2842 
Q 2491 3084 2119 3084 
Q 1678 3084 1418 2786 
Q 1159 2488 1159 1978 
L 1159 0 
L 581 0 
L 581 3500 
L 1159 3500 
L 1159 2956 
Q 1356 3278 1631 3431 
Q 1906 3584 2284 3584 
Q 2666 3584 2933 3390 
Q 3200 3197 3328 2828 
z
" id="DejaVuSans-6d" transform="scale(0.015625)"/>
       <path d="M 3597 1894 
L 3597 1613 
L 953 1613 
Q 991 1019 1311 708 
Q 1631 397 2203 397 
Q 2534 397 2845 478 
Q 3156 559 3463 722 
L 3463 178 
Q 3153 47 2828 -22 
Q 2503 -91 2169 -91 
Q 1331 -91 842 396 
Q 353 884 353 1716 
Q 353 2575 817 3079 
Q 1281 3584 2069 3584 
Q 2775 3584 3186 3129 
Q 3597 2675 3597 1894 
z
M 3022 2063 
Q 3016 2534 2758 2815 
Q 2500 3097 2075 3097 
Q 1594 3097 1305 2825 
Q 1016 2553 972 2059 
L 3022 2063 
z
" id="DejaVuSans-65" transform="scale(0.015625)"/>
      </defs>
      <use xlink:href="#DejaVuSans-66"/>
      <use x="35.205078" xlink:href="#DejaVuSans-72"/>
      <use x="76.318359" xlink:href="#DejaVuSans-61"/>
      <use x="137.597656" xlink:href="#DejaVuSans-6d"/>
      <use x="235.009766" xlink:href="#DejaVuSans-65"/>
     </g>
    </g>
   </g>
   <g id="matplotlib.axis_2">
    <g id="ytick_1">
     <g id="line2d_8">
      <defs>
       <path d="M 0 0 
L -3.5 0 
" id="mff5eb02442" style="stroke:#000000;stroke-width:0.8;"/>
      </defs>
      <g>
       <use style="stroke:#000000;stroke-width:0.8;" x="43.78125" xlink:href="#mff5eb02442" y="529.454513"/>
      </g>
     </g>
     <g id="text_9">
      <!-- 1.0 -->
      <g transform="translate(20.878125 533.253732)scale(0.1 -0.1)">
       <defs>
        <path d="M 684 794 
L 1344 794 
L 1344 0 
L 684 0 
L 684 794 
z
" id="DejaVuSans-2e" transform="scale(0.015625)"/>
       </defs>
       <use xlink:href="#DejaVuSans-31"/>
       <use x="63.623047" xlink:href="#DejaVuSans-2e"/>
       <use x="95.410156" xlink:href="#DejaVuSans-30"/>
      </g>
     </g>
    </g>
    <g id="ytick_2">
     <g id="line2d_9">
      <g>
       <use style="stroke:#000000;stroke-width:0.8;" x="43.78125" xlink:href="#mff5eb02442" y="413.811355"/>
      </g>
     </g>
     <g id="text_10">
      <!-- 1.5 -->
      <g transform="translate(20.878125 417.610574)scale(0.1 -0.1)">
       <defs>
        <path d="M 691 4666 
L 3169 4666 
L 3169 4134 
L 1269 4134 
L 1269 2991 
Q 1406 3038 1543 3061 
Q 1681 3084 1819 3084 
Q 2600 3084 3056 2656 
Q 3513 2228 3513 1497 
Q 3513 744 3044 326 
Q 2575 -91 1722 -91 
Q 1428 -91 1123 -41 
Q 819 9 494 109 
L 494 744 
Q 775 591 1075 516 
Q 1375 441 1709 441 
Q 2250 441 2565 725 
Q 2881 1009 2881 1497 
Q 2881 1984 2565 2268 
Q 2250 2553 1709 2553 
Q 1456 2553 1204 2497 
Q 953 2441 691 2322 
L 691 4666 
z
" id="DejaVuSans-35" transform="scale(0.015625)"/>
       </defs>
       <use xlink:href="#DejaVuSans-31"/>
       <use x="63.623047" xlink:href="#DejaVuSans-2e"/>
       <use x="95.410156" xlink:href="#DejaVuSans-35"/>
      </g>
     </g>
    </g>
    <g id="ytick_3">
     <g id="line2d_10">
      <g>
       <use style="stroke:#000000;stroke-width:0.8;" x="43.78125" xlink:href="#mff5eb02442" y="298.168197"/>
      </g>
     </g>
     <g id="text_11">
      <!-- 2.0 -->
      <g transform="translate(20.878125 301.967416)scale(0.1 -0.1)">
       <use xlink:href="#DejaVuSans-32"/>
       <use x="63.623047" xlink:href="#DejaVuSans-2e"/>
       <use x="95.410156" xlink:href="#DejaVuSans-30"/>
      </g>
     </g>
    </g>
    <g id="ytick_4">
     <g id="line2d_11">
      <g>
       <use style="stroke:#000000;stroke-width:0.8;" x="43.78125" xlink:href="#mff5eb02442" y="182.525039"/>
      </g>
     </g>
     <g id="text_12">
      <!-- 2.5 -->
      <g transform="translate(20.878125 186.324258)scale(0.1 -0.1)">
       <use xlink:href="#DejaVuSans-32"/>
       <use x="63.623047" xlink:href="#DejaVuSans-2e"/>
       <use x="95.410156" xlink:href="#DejaVuSans-35"/>
      </g>
     </g>
    </g>
    <g id="ytick_5">
     <g id="line2d_12">
      <g>
       <use style="stroke:#000000;stroke-width:0.8;" x="43.78125" xlink:href="#mff5eb02442" y="66.881881"/>
      </g>
     </g>
     <g id="text_13">
      <!-- 3.0 -->
      <g transform="translate(20.878125 70.6811)scale(0.1 -0.1)">
       <defs>
        <path d="M 2597 2516 
Q 3050 2419 3304 2112 
Q 3559 1806 3559 1356 
Q 3559 666 3084 287 
Q 2609 -91 1734 -91 
Q 1441 -91 1130 -33 
Q 819 25 488 141 
L 488 750 
Q 750 597 1062 519 
Q 1375 441 1716 441 
Q 2309 441 2620 675 
Q 2931 909 2931 1356 
Q 2931 1769 2642 2001 
Q 2353 2234 1838 2234 
L 1294 2234 
L 1294 2753 
L 1863 2753 
Q 2328 2753 2575 2939 
Q 2822 3125 2822 3475 
Q 2822 3834 2567 4026 
Q 2313 4219 1838 4219 
Q 1578 4219 1281 4162 
Q 984 4106 628 3988 
L 628 4550 
Q 988 4650 1302 4700 
Q 1616 4750 1894 4750 
Q 2613 4750 3031 4423 
Q 3450 4097 3450 3541 
Q 3450 3153 3228 2886 
Q 3006 2619 2597 2516 
z
" id="DejaVuSans-33" transform="scale(0.015625)"/>
       </defs>
       <use xlink:href="#DejaVuSans-33"/>
       <use x="63.623047" xlink:href="#DejaVuSans-2e"/>
       <use x="95.410156" xlink:href="#DejaVuSans-30"/>
      </g>
     </g>
    </g>
    <g id="text_14">
     <!-- GCaMP -->
     <g transform="translate(14.798437 322.349446)rotate(-90)scale(0.1 -0.1)">
      <defs>
       <path d="M 3809 666 
L 3809 1919 
L 2778 1919 
L 2778 2438 
L 4434 2438 
L 4434 434 
Q 4069 175 3628 42 
Q 3188 -91 2688 -91 
Q 1594 -91 976 548 
Q 359 1188 359 2328 
Q 359 3472 976 4111 
Q 1594 4750 2688 4750 
Q 3144 4750 3555 4637 
Q 3966 4525 4313 4306 
L 4313 3634 
Q 3963 3931 3569 4081 
Q 3175 4231 2741 4231 
Q 1884 4231 1454 3753 
Q 1025 3275 1025 2328 
Q 1025 1384 1454 906 
Q 1884 428 2741 428 
Q 3075 428 3337 486 
Q 3600 544 3809 666 
z
" id="DejaVuSans-47" transform="scale(0.015625)"/>
       <path d="M 4122 4306 
L 4122 3641 
Q 3803 3938 3442 4084 
Q 3081 4231 2675 4231 
Q 1875 4231 1450 3742 
Q 1025 3253 1025 2328 
Q 1025 1406 1450 917 
Q 1875 428 2675 428 
Q 3081 428 3442 575 
Q 3803 722 4122 1019 
L 4122 359 
Q 3791 134 3420 21 
Q 3050 -91 2638 -91 
Q 1578 -91 968 557 
Q 359 1206 359 2328 
Q 359 3453 968 4101 
Q 1578 4750 2638 4750 
Q 3056 4750 3426 4639 
Q 3797 4528 4122 4306 
z
" id="DejaVuSans-43" transform="scale(0.015625)"/>
       <path d="M 628 4666 
L 1569 4666 
L 2759 1491 
L 3956 4666 
L 4897 4666 
L 4897 0 
L 4281 0 
L 4281 4097 
L 3078 897 
L 2444 897 
L 1241 4097 
L 1241 0 
L 628 0 
L 628 4666 
z
" id="DejaVuSans-4d" transform="scale(0.015625)"/>
       <path d="M 1259 4147 
L 1259 2394 
L 2053 2394 
Q 2494 2394 2734 2622 
Q 2975 2850 2975 3272 
Q 2975 3691 2734 3919 
Q 2494 4147 2053 4147 
L 1259 4147 
z
M 628 4666 
L 2053 4666 
Q 2838 4666 3239 4311 
Q 3641 3956 3641 3272 
Q 3641 2581 3239 2228 
Q 2838 1875 2053 1875 
L 1259 1875 
L 1259 0 
L 628 0 
L 628 4666 
z
" id="DejaVuSans-50" transform="scale(0.015625)"/>
      </defs>
      <use xlink:href="#DejaVuSans-47"/>
      <use x="77.490234" xlink:href="#DejaVuSans-43"/>
      <use x="147.314453" xlink:href="#DejaVuSans-61"/>
      <use x="208.59375" xlink:href="#DejaVuSans-4d"/>
      <use x="294.873047" xlink:href="#DejaVuSans-50"/>
     </g>
    </g>
   </g>
   <g id="line2d_13">
    <path clip-path="url(#p18aeafcac0)" d="M 119.872159 547.770281 
L 121.110416 552.079865 
L 122.348674 555.853494 
L 123.586931 558.706204 
L 124.825188 560.477755 
L 126.063445 561.202423 
L 127.301703 561.076474 
L 129.778217 560.006795 
L 131.016474 559.879651 
L 132.254732 559.934852 
L 133.492989 559.734172 
L 135.969504 558.500385 
L 137.207761 558.186486 
L 139.684275 558.151724 
L 142.16079 557.576563 
L 143.399047 557.833741 
L 145.875562 559.962113 
L 147.113819 560.252704 
L 148.352076 559.188659 
L 149.590334 556.991282 
L 152.066848 551.51561 
L 153.305105 549.682558 
L 154.543363 549.127436 
L 155.78162 549.673432 
L 157.019877 550.977138 
L 158.258134 552.853692 
L 160.734649 557.288011 
L 161.972906 558.931069 
L 163.211163 559.603483 
L 164.449421 559.172297 
L 165.687678 557.901986 
L 168.164193 554.450997 
L 169.40245 553.058865 
L 170.640707 552.330271 
L 171.878964 552.326505 
L 173.117222 553.026702 
L 174.355479 554.440404 
L 176.831993 558.404505 
L 178.070251 559.799847 
L 179.308508 560.432025 
L 180.546765 560.545398 
L 181.785022 560.268218 
L 183.02328 559.234399 
L 184.261537 556.854522 
L 185.499794 553.282522 
L 186.738052 550.05478 
L 187.976309 549.08176 
L 189.214566 550.801909 
L 191.691081 556.820207 
L 192.929338 558.723883 
L 194.167595 559.527413 
L 195.405852 559.515825 
L 196.64411 558.922214 
L 197.882367 557.53416 
L 199.120624 555.050912 
L 200.358881 551.995336 
L 201.597139 549.861256 
L 202.835396 549.772691 
L 205.311911 552.581453 
L 206.550168 553.06876 
L 207.788425 552.811996 
L 210.26494 551.871094 
L 212.741454 551.242754 
L 213.979711 551.007931 
L 216.456226 550.195032 
L 217.694483 550.086449 
L 220.170998 550.710109 
L 221.409255 550.651974 
L 222.647512 550.197225 
L 223.88577 549.565617 
L 225.124027 548.784625 
L 226.362284 547.508236 
L 228.838799 543.279036 
L 230.077056 542.173917 
L 231.315313 542.957346 
L 232.55357 545.159472 
L 233.791828 547.683833 
L 235.030085 549.665587 
L 236.268342 550.690673 
L 237.5066 550.856372 
L 242.459629 549.951238 
L 243.697886 549.559258 
L 244.936143 548.940318 
L 247.412658 547.38036 
L 251.127429 545.600188 
L 252.365687 544.479781 
L 254.842201 541.519631 
L 258.556973 537.164759 
L 259.79523 535.84227 
L 261.033488 535.145908 
L 262.271745 535.660768 
L 263.510002 537.28851 
L 265.986517 541.486405 
L 267.224774 542.954883 
L 268.463031 543.573677 
L 272.177803 543.943059 
L 274.654318 544.330165 
L 275.892575 544.201337 
L 277.130832 543.392685 
L 278.369089 541.614246 
L 280.845604 536.295015 
L 282.083861 534.340382 
L 283.322118 533.842937 
L 284.560376 535.000027 
L 285.798633 537.341095 
L 287.03689 539.963915 
L 288.275147 541.952069 
L 289.513405 542.657987 
L 290.751662 541.912697 
L 291.989919 539.961081 
L 293.228177 537.1732 
L 295.704691 531.167696 
L 296.942948 528.85551 
L 298.181206 527.07513 
L 299.419463 525.693852 
L 300.65772 524.776709 
L 301.895977 524.824078 
L 303.134235 526.463471 
L 304.372492 529.725521 
L 306.849006 538.202547 
L 308.087264 541.676315 
L 309.325521 543.825829 
L 310.563778 544.31243 
L 311.802036 542.816466 
L 313.040293 539.145188 
L 315.516807 527.935931 
L 316.755065 523.581781 
L 317.993322 521.363371 
L 319.231579 521.01472 
L 320.469836 522.445042 
L 321.708094 525.549101 
L 322.946351 529.263531 
L 324.184608 532.022882 
L 325.422866 532.960196 
L 327.89938 532.058684 
L 329.137637 532.655677 
L 330.375895 533.884013 
L 331.614152 534.671019 
L 332.852409 534.517277 
L 334.090666 533.60447 
L 337.805438 529.802847 
L 339.043695 529.171161 
L 340.281953 529.450377 
L 341.52021 530.86401 
L 343.996725 535.707996 
L 345.234982 537.488916 
L 346.473239 537.961047 
L 347.711496 536.937136 
L 348.949754 534.481249 
L 351.426268 527.665172 
L 352.664525 525.556685 
L 353.902783 525.224203 
L 355.14104 526.204326 
L 356.379297 527.507907 
L 357.617554 528.201128 
L 358.855812 527.885099 
L 361.332326 525.981566 
L 362.570584 525.87566 
L 363.808841 526.73207 
L 365.047098 528.298005 
L 366.285355 530.150646 
L 367.523613 531.595388 
L 368.76187 531.883852 
L 370.000127 530.972767 
L 371.238384 529.643837 
L 372.476642 528.62844 
L 373.714899 527.907683 
L 374.953156 526.965813 
L 376.191413 525.472627 
L 377.429671 523.623541 
L 378.667928 522.048547 
L 379.906185 521.515388 
L 381.144443 522.525218 
L 382.3827 525.037368 
L 384.859214 531.711338 
L 386.097472 533.772327 
L 387.335729 534.301383 
L 388.573986 533.59618 
L 389.812243 532.166122 
L 392.288758 528.655734 
L 394.765272 524.420046 
L 397.241787 520.075697 
L 398.480044 518.06623 
L 399.718302 516.418237 
L 400.956559 515.340799 
L 402.194816 514.934941 
L 403.433073 515.439158 
L 404.671331 516.948433 
L 405.909588 518.929128 
L 407.147845 520.483621 
L 408.386102 520.906763 
L 409.62436 520.071559 
L 412.100874 517.204381 
L 415.815646 513.642814 
L 417.053903 513.555911 
L 418.292161 514.795541 
L 419.530418 516.501135 
L 420.768675 517.32787 
L 422.006932 516.64433 
L 424.483447 513.026464 
L 425.721704 512.222873 
L 426.959961 512.630528 
L 428.198219 513.535762 
L 429.436476 513.99834 
L 430.674733 513.684006 
L 431.912991 513.112686 
L 433.151248 512.929996 
L 434.389505 513.041082 
L 435.627762 512.769184 
L 436.86602 511.662979 
L 438.104277 509.81362 
L 439.342534 507.732161 
L 440.580791 506.08449 
L 441.819049 505.250339 
L 443.057306 505.239768 
L 444.295563 505.998579 
L 445.53382 507.440337 
L 446.772078 509.202765 
L 448.010335 510.653243 
L 449.248592 511.411608 
L 450.48685 511.868457 
L 451.725107 512.897821 
L 452.963364 515.031584 
L 455.439879 521.158803 
L 456.678136 523.499523 
L 457.916393 524.442118 
L 459.15465 523.699049 
L 460.392908 521.091887 
L 461.631165 516.616328 
L 464.107679 505.392928 
L 465.345937 501.477617 
L 466.584194 499.940917 
L 467.822451 500.612077 
L 470.298966 504.482346 
L 471.537223 505.850611 
L 472.77548 506.609796 
L 474.013738 506.90322 
L 476.490252 506.937464 
L 477.728509 507.452879 
L 482.681538 511.370397 
L 483.919796 511.713779 
L 485.158053 511.220208 
L 488.872825 507.728931 
L 490.111082 507.025407 
L 491.349339 506.807681 
L 492.587597 507.326143 
L 493.825854 508.804347 
L 496.302368 513.310505 
L 497.540626 514.316318 
L 498.778883 514.032156 
L 500.01714 513.333518 
L 502.493655 512.307029 
L 503.731912 510.969438 
L 504.970169 508.534098 
L 507.446684 502.762766 
L 508.684941 501.128231 
L 509.923198 501.231522 
L 511.161456 503.098898 
L 512.399713 505.607248 
L 513.63797 507.100504 
L 514.876227 506.798097 
L 516.114485 505.118981 
L 518.590999 500.80107 
L 519.829257 499.328434 
L 521.067514 498.781646 
L 522.305771 499.148047 
L 523.544028 499.930308 
L 524.782286 500.520956 
L 526.020543 500.643473 
L 527.2588 500.166294 
L 528.497057 498.93324 
L 529.735315 497.226201 
L 530.973572 495.948663 
L 532.211829 495.708779 
L 533.450086 495.909413 
L 534.688344 495.380526 
L 535.926601 493.759108 
L 537.164858 491.488911 
L 538.403116 488.769758 
L 540.87963 482.357858 
L 542.117887 480.159427 
L 543.356145 479.427114 
L 544.594402 479.513808 
L 545.832659 478.97617 
L 547.070916 476.740724 
L 548.309174 473.032383 
L 550.785688 464.961847 
L 553.262203 457.316768 
L 554.50046 453.060298 
L 555.738717 448.090936 
L 556.976975 442.12814 
L 560.691746 421.568591 
L 561.930004 416.066563 
L 563.168261 411.539245 
L 564.406518 408.02265 
L 565.644775 405.772739 
L 566.883033 404.684509 
L 568.12129 403.965977 
L 569.359547 402.699577 
L 570.597804 400.389305 
L 571.836062 396.763393 
L 573.074319 391.502878 
L 574.312576 384.482288 
L 578.027348 359.809854 
L 579.265605 354.274761 
L 580.503863 351.434255 
L 581.74212 351.237187 
L 582.980377 353.628809 
L 584.218634 358.629174 
L 586.695149 372.351447 
L 587.933406 376.996263 
L 589.171663 378.437773 
L 590.409921 377.614564 
L 591.648178 376.462218 
L 592.886435 376.282806 
L 594.124693 377.113559 
L 595.36295 378.30329 
L 599.077722 381.496162 
L 600.315979 383.827606 
L 601.554236 387.282063 
L 602.792493 391.167641 
L 604.030751 394.635347 
L 605.269008 397.327672 
L 606.507265 399.417892 
L 607.745523 401.090224 
L 608.98378 402.085317 
L 610.222037 401.983704 
L 611.460294 400.990049 
L 612.698552 400.222214 
L 613.936809 400.869172 
L 615.175066 402.979179 
L 616.413323 405.370819 
L 617.651581 406.748963 
L 618.889838 406.78434 
L 620.128095 406.311867 
L 621.366352 406.480317 
L 623.842867 408.807927 
L 625.081124 409.025785 
L 626.319382 407.959204 
L 630.034153 402.502891 
L 631.272411 401.795057 
L 632.510668 401.724813 
L 633.748925 401.361403 
L 634.987182 400.120975 
L 636.22544 398.465627 
L 637.463697 397.679312 
L 638.701954 398.725391 
L 639.940211 401.117885 
L 641.178469 403.254014 
L 642.416726 403.919892 
L 643.654983 403.157244 
L 644.893241 401.446832 
L 646.131498 398.808368 
L 648.608012 391.59959 
L 651.084527 383.829396 
L 654.799299 371.637838 
L 657.275813 362.661597 
L 658.51407 359.563424 
L 659.752328 358.264621 
L 660.990585 358.436843 
L 662.228842 359.12699 
L 663.4671 359.401494 
L 664.705357 358.714344 
L 665.943614 356.827717 
L 667.181871 353.815502 
L 668.420129 349.890752 
L 670.896643 340.152727 
L 673.373158 330.217954 
L 678.326187 308.607912 
L 680.802701 299.814901 
L 684.517473 285.143672 
L 685.75573 282.046316 
L 686.993988 279.963923 
L 688.232245 276.741443 
L 689.470502 270.244109 
L 691.947017 252.361839 
L 693.185274 246.727906 
L 694.423531 244.651741 
L 695.661789 245.145094 
L 696.900046 246.993949 
L 698.138303 249.514257 
L 700.614818 255.720715 
L 701.853075 257.875758 
L 703.091332 257.206036 
L 704.329589 253.002311 
L 705.567847 246.507728 
L 710.520876 218.740304 
L 711.759133 212.894864 
L 712.99739 207.93452 
L 715.473905 198.861212 
L 717.950419 188.962146 
L 720.426934 180.758636 
L 721.665191 175.125564 
L 722.903448 166.452772 
L 724.141706 156.355568 
L 725.379963 148.120769 
L 726.61822 143.799647 
L 727.856477 143.640241 
L 729.094735 146.488514 
L 730.332992 149.709739 
L 731.571249 150.459971 
L 732.809507 147.457782 
L 734.047764 141.05909 
L 735.286021 132.306262 
L 736.524278 122.657068 
L 737.762536 114.658191 
L 739.000793 111.025635 
L 740.23905 111.972211 
L 741.477307 115.316318 
L 742.715565 119.146531 
L 743.953822 122.450837 
L 745.192079 124.614519 
L 746.430336 126.242368 
L 747.668594 128.805319 
L 748.906851 132.844922 
L 750.145108 138.012553 
L 751.383366 143.706079 
L 752.621623 148.280455 
L 753.85988 149.378536 
L 755.098137 146.339404 
L 756.336395 141.148326 
L 757.574652 136.448727 
L 758.812909 133.809576 
L 760.051166 133.687015 
L 762.527681 137.052527 
L 763.765938 136.677747 
L 765.004195 133.373315 
L 766.242453 127.708881 
L 767.48071 121.166729 
L 768.718967 115.531774 
L 769.957225 112.56236 
L 771.195482 113.827127 
L 772.433739 119.710638 
L 774.910254 136.797754 
L 776.148511 142.742778 
L 777.386768 145.645065 
L 778.625025 145.815056 
L 779.863283 143.678789 
L 782.339797 136.093685 
L 783.578054 134.056011 
L 784.816312 135.872767 
L 786.054569 141.907556 
L 787.292826 150.725389 
L 788.531084 160.45873 
L 789.769341 169.251881 
L 791.007598 175.654775 
L 792.245855 179.412977 
L 793.484113 181.240324 
L 794.72237 182.163323 
L 797.198884 183.721846 
L 798.437142 184.907929 
L 799.675399 187.255589 
L 802.151914 194.84682 
L 803.390171 197.478195 
L 804.628428 197.729997 
L 805.866685 195.395597 
L 807.104943 191.692448 
L 808.3432 189.080128 
L 809.581457 189.55003 
L 810.819714 193.01697 
L 813.296229 202.47874 
L 814.534486 205.887642 
L 815.772743 207.712044 
L 818.249258 209.347405 
L 819.487515 210.568385 
L 820.725773 212.997017 
L 821.96403 217.205494 
L 823.202287 222.302276 
L 824.440544 226.592736 
L 825.678802 228.92589 
L 826.917059 228.443974 
L 828.155316 224.309158 
L 829.393573 216.703782 
L 830.631831 207.764765 
L 831.870088 200.862148 
L 833.108345 198.242837 
L 834.346602 199.4901 
L 835.58486 202.822662 
L 836.823117 207.381957 
L 838.061374 213.218785 
L 839.299632 219.658993 
L 840.537889 225.422049 
L 841.776146 230.082936 
L 843.014403 233.799138 
L 844.252661 235.927398 
L 845.490918 235.375873 
L 846.729175 232.309949 
L 847.967432 228.584263 
L 849.20569 226.231265 
L 850.443947 226.081072 
L 851.682204 227.880076 
L 852.920461 231.078086 
L 854.158719 235.552757 
L 855.396976 241.693653 
L 857.873491 257.313424 
L 859.111748 263.780921 
L 860.350005 268.154273 
L 861.588262 270.921342 
L 862.82652 273.110838 
L 864.064777 275.659721 
L 865.303034 279.006621 
L 866.541291 283.193272 
L 867.779549 287.86953 
L 869.017806 291.956608 
L 870.256063 293.945978 
L 871.49432 293.185219 
L 873.970835 288.40814 
L 875.209092 288.042374 
L 876.44735 290.052365 
L 878.923864 297.211061 
L 880.162121 300.116634 
L 881.400379 301.483251 
L 882.638636 300.935788 
L 883.876893 299.434647 
L 885.11515 298.695693 
L 886.353408 299.574911 
L 888.829922 303.928111 
L 890.06818 304.648772 
L 891.306437 302.966776 
L 892.544694 299.329749 
L 893.782951 295.126187 
L 895.021209 291.690907 
L 896.259466 289.400485 
L 897.497723 287.47669 
L 898.73598 285.038243 
L 899.974238 281.958726 
L 901.212495 278.219634 
L 902.450752 273.225314 
L 903.689009 266.118269 
L 904.927267 256.664739 
L 907.403781 235.815233 
L 912.35681 199.566288 
L 914.833325 180.806421 
L 917.309839 165.118059 
L 918.548097 157.632756 
L 919.786354 151.148273 
L 921.024611 147.106342 
L 922.262868 146.133141 
L 923.501126 147.63531 
L 925.97764 153.726959 
L 927.215898 155.684228 
L 928.454155 155.702493 
L 929.692412 154.565062 
L 930.930669 153.136408 
L 932.168927 151.062587 
L 933.407184 147.423756 
L 934.645441 141.438789 
L 937.121956 125.310081 
L 938.360213 120.017175 
L 939.59847 118.701612 
L 940.836727 120.338157 
L 942.074985 122.933122 
L 943.313242 125.240749 
L 944.551499 127.262143 
L 945.789757 129.751813 
L 947.028014 132.973388 
L 948.266271 135.830464 
L 949.504528 136.939833 
L 950.742786 136.062519 
L 951.981043 133.93541 
L 953.2193 131.288162 
L 954.457557 128.18518 
L 955.695815 124.639908 
L 956.934072 122.128175 
L 958.172329 122.840423 
L 959.410586 126.875572 
L 960.648844 131.718629 
L 961.887101 134.270765 
L 963.125358 132.755509 
L 964.363616 127.820133 
L 965.601873 122.207888 
L 966.84013 118.660829 
L 968.078387 117.973189 
L 969.316645 118.985228 
L 971.793159 121.426591 
L 973.031416 123.759465 
L 974.269674 128.327483 
L 976.746188 141.00512 
L 977.984446 145.2874 
L 979.222703 146.895537 
L 980.46096 147.130718 
L 981.699217 148.585474 
L 982.937475 153.100219 
L 984.175732 160.479544 
L 985.413989 168.666218 
L 986.652246 175.209818 
L 987.890504 179.291011 
L 989.128761 182.100058 
L 990.367018 185.52103 
L 991.605275 190.715792 
L 995.320047 210.087009 
L 996.558305 214.627803 
L 997.796562 217.335798 
L 999.034819 217.31882 
L 1000.273076 213.703078 
L 1001.511334 207.619633 
L 1002.749591 202.713299 
L 1003.987848 202.064425 
L 1005.226105 205.565127 
L 1007.70262 216.427821 
L 1008.940877 220.649013 
L 1010.179134 223.036078 
L 1011.417392 223.169688 
L 1012.655649 220.976516 
L 1013.893906 216.309321 
L 1015.132164 208.827376 
L 1016.370421 198.951113 
L 1018.846935 177.210579 
L 1020.085193 167.67008 
L 1021.32345 160.2396 
L 1022.561707 154.901473 
L 1023.799964 151.07999 
L 1025.038222 148.904031 
L 1026.276479 149.197988 
L 1028.752993 154.28582 
L 1029.991251 154.090096 
L 1031.229508 150.086276 
L 1032.467765 142.653248 
L 1033.706023 132.878851 
L 1036.182537 110.55672 
L 1038.659052 84.832028 
L 1039.897309 71.481481 
L 1041.135566 59.925945 
L 1042.373823 51.815622 
L 1043.612081 47.979282 
L 1044.850338 48.611293 
L 1046.088595 52.850333 
L 1048.56511 64.129113 
L 1049.803367 68.645099 
L 1053.518139 79.387 
L 1054.756396 84.791149 
L 1057.232911 98.860808 
L 1058.471168 103.93836 
L 1059.709425 105.005457 
L 1062.18594 99.81893 
L 1063.424197 100.147336 
L 1064.662454 103.50952 
L 1065.900711 107.421237 
L 1067.138969 109.994496 
L 1068.377226 111.006628 
L 1069.615483 111.347703 
L 1070.853741 112.383571 
L 1072.091998 114.983737 
L 1073.330255 119.195996 
L 1075.80677 130.346419 
L 1077.045027 134.036463 
L 1078.283284 134.037433 
L 1079.521541 130.139053 
L 1080.759799 123.823974 
L 1081.998056 118.158642 
L 1083.236313 116.144199 
L 1084.474571 118.204757 
L 1085.712828 122.3662 
L 1086.951085 127.136587 
L 1088.189342 132.667842 
L 1090.665857 145.449522 
L 1091.904114 149.552892 
L 1093.142371 150.07876 
L 1094.380629 148.247741 
L 1095.618886 147.213396 
L 1096.857143 149.056786 
L 1098.0954 153.274225 
L 1103.04843 173.517299 
L 1104.286687 177.464282 
L 1105.524944 179.068935 
L 1106.763201 177.636669 
L 1108.001459 174.348246 
L 1109.239716 171.67864 
L 1110.477973 171.646423 
L 1111.71623 174.375739 
L 1114.192745 182.382257 
L 1116.669259 189.372848 
L 1117.907517 192.455341 
L 1119.145774 194.973995 
L 1120.384031 196.391789 
L 1121.622289 195.85146 
L 1122.860546 192.566899 
L 1124.098803 186.60062 
L 1125.33706 179.352128 
L 1126.575318 173.183672 
L 1127.813575 170.252542 
L 1129.051832 171.86102 
L 1130.290089 178.354608 
L 1132.766604 198.610725 
L 1134.004861 205.268654 
L 1135.243118 205.75087 
L 1136.481376 200.062066 
L 1138.95789 182.071705 
L 1140.196148 176.066733 
L 1141.434405 173.664039 
L 1142.672662 174.170321 
L 1143.910919 176.309665 
L 1145.149177 179.439648 
L 1146.387434 183.714199 
L 1148.863948 194.518368 
L 1150.102206 198.189045 
L 1151.340463 198.829829 
L 1152.57872 197.395096 
L 1153.816977 196.398339 
L 1155.055235 197.604309 
L 1156.293492 201.183604 
L 1157.531749 206.029902 
L 1158.770007 209.674351 
L 1160.008264 209.590216 
L 1161.246521 205.69487 
L 1162.484778 200.220417 
L 1163.723036 195.41769 
L 1164.961293 192.600829 
L 1166.19955 192.099949 
L 1168.676065 193.906313 
L 1169.914322 193.742344 
L 1171.152579 192.077534 
L 1172.390837 189.187384 
L 1173.629094 185.95238 
L 1174.867351 183.234074 
L 1176.105608 181.63336 
L 1177.343866 181.577814 
L 1178.582123 183.422809 
L 1179.82038 187.134025 
L 1181.058637 191.656921 
L 1182.296895 195.496124 
L 1184.773409 201.036813 
L 1186.011666 204.926938 
L 1187.249924 210.140221 
L 1189.726438 221.566556 
L 1190.964696 225.325396 
L 1192.202953 226.958911 
L 1193.44121 227.159004 
L 1194.679467 226.976849 
L 1195.917725 227.216018 
L 1197.155982 228.083087 
L 1198.394239 229.216368 
L 1199.632496 230.104409 
L 1200.870754 230.328698 
L 1202.109011 229.684732 
L 1203.347268 228.309114 
L 1204.585525 226.660852 
L 1205.823783 225.664798 
L 1207.06204 226.758411 
L 1208.300297 230.827481 
L 1209.538555 236.770352 
L 1210.776812 241.908592 
L 1212.015069 243.995767 
L 1213.253326 242.347983 
L 1214.491584 237.622043 
L 1216.968098 225.561062 
L 1218.206355 222.377233 
L 1219.444613 223.437429 
L 1220.68287 228.389149 
L 1221.921127 234.951018 
L 1223.159384 240.816816 
L 1224.397642 244.607178 
L 1225.635899 245.574795 
L 1226.874156 243.356955 
L 1228.112414 238.212749 
L 1230.588928 225.212871 
L 1231.827185 221.459609 
L 1233.065443 222.420945 
L 1234.3037 228.67912 
L 1235.541957 237.460544 
L 1236.780214 244.590607 
L 1238.018472 248.275351 
L 1239.256729 249.737317 
L 1240.494986 250.780457 
L 1241.733243 252.195128 
L 1244.209758 255.581507 
L 1245.448015 257.123521 
L 1246.686273 258.382681 
L 1247.92453 258.835312 
L 1249.162787 258.01197 
L 1250.401044 256.097245 
L 1251.639302 253.900602 
L 1252.877559 252.308602 
L 1254.115816 251.715825 
L 1255.354073 251.838435 
L 1256.592331 251.798017 
L 1257.830588 250.378974 
L 1259.068845 246.842786 
L 1260.307103 241.964619 
L 1261.54536 237.828776 
L 1262.783617 236.009279 
L 1264.021874 236.458249 
L 1265.260132 238.557061 
L 1266.498389 241.943 
L 1270.213161 254.547081 
L 1271.451418 258.964921 
L 1272.689675 263.822685 
L 1276.404447 279.880311 
L 1277.642704 284.141143 
L 1278.880962 286.466093 
L 1280.119219 286.276931 
L 1282.595733 282.699142 
L 1283.833991 282.542248 
L 1285.072248 284.069996 
L 1290.025277 293.76771 
L 1291.263534 296.728466 
L 1292.501791 300.193248 
L 1293.740049 302.997508 
L 1294.978306 303.522928 
L 1296.216563 301.068426 
L 1297.454821 296.237219 
L 1299.931335 284.797926 
L 1302.40785 273.48376 
L 1304.884364 261.328329 
L 1306.122621 257.45745 
L 1307.360879 256.297253 
L 1308.599136 258.263047 
L 1309.837393 263.601831 
L 1311.07565 271.623079 
L 1312.313908 280.588611 
L 1313.552165 288.678707 
L 1314.790422 294.501225 
L 1316.02868 297.320433 
L 1317.266937 297.540766 
L 1319.743451 295.363154 
L 1320.981709 294.86727 
L 1324.69648 294.910996 
L 1325.934738 294.917642 
L 1327.172995 295.700444 
L 1328.411252 297.485714 
L 1329.649509 300.372647 
L 1332.126024 308.094522 
L 1333.364281 310.848923 
L 1334.602539 312.355718 
L 1335.840796 313.276042 
L 1337.079053 314.424885 
L 1338.31731 316.147617 
L 1340.793825 320.202172 
L 1346.985111 329.629404 
L 1348.223368 330.967033 
L 1349.461626 331.250176 
L 1350.699883 330.235383 
L 1351.93814 328.040216 
L 1354.414655 322.249945 
L 1355.652912 320.351757 
L 1359.367684 317.084948 
L 1360.605941 316.378967 
L 1361.844198 316.77972 
L 1363.082456 317.7381 
L 1364.320713 318.404053 
L 1366.797228 318.867742 
L 1368.035485 318.672127 
L 1369.273742 317.213164 
L 1370.511999 314.195123 
L 1371.750257 310.851308 
L 1372.988514 309.370803 
L 1374.226771 311.216339 
L 1375.465028 315.978679 
L 1376.703286 321.519467 
L 1377.941543 325.008264 
L 1379.1798 324.661006 
L 1380.418057 321.117799 
L 1381.656315 317.119608 
L 1382.894572 315.642732 
L 1384.132829 317.825958 
L 1386.609344 326.635162 
L 1387.847601 328.522611 
L 1389.085858 327.436847 
L 1390.324116 324.544002 
L 1391.562373 322.147373 
L 1392.80063 322.395228 
L 1394.038887 325.925068 
L 1396.515402 337.225316 
L 1397.753659 340.457328 
L 1398.991916 340.077576 
L 1400.230174 336.736077 
L 1401.468431 332.176887 
L 1402.706688 328.095978 
L 1403.944946 325.784643 
L 1405.183203 325.447877 
L 1406.42146 325.592601 
L 1407.659717 324.251318 
L 1408.897975 320.964008 
L 1410.136232 317.321484 
L 1411.374489 315.642876 
L 1412.612746 317.07034 
L 1415.089261 324.748905 
L 1416.327518 327.407045 
L 1417.565775 328.433387 
L 1418.804033 328.440392 
L 1420.04229 328.292679 
L 1421.280547 328.725456 
L 1422.518805 330.239212 
L 1423.757062 332.870591 
L 1424.995319 335.794798 
L 1426.233576 337.499652 
L 1427.471834 336.763778 
L 1428.710091 333.539776 
L 1431.186605 324.503422 
L 1432.424863 321.410888 
L 1433.66312 319.616113 
L 1434.901377 318.806617 
L 1436.139634 319.328131 
L 1437.377892 321.292568 
L 1438.616149 324.224615 
L 1439.854406 328.037802 
L 1442.330921 336.653232 
L 1443.569178 339.458186 
L 1444.807435 340.728086 
L 1446.045693 340.28336 
L 1447.28395 338.131565 
L 1449.760464 331.996058 
L 1450.998722 330.313688 
L 1452.236979 329.712819 
L 1453.475236 328.65063 
L 1454.713494 326.165469 
L 1455.951751 323.208675 
L 1457.190008 321.323102 
L 1458.428265 320.969005 
L 1460.90478 322.18827 
L 1462.143037 321.578648 
L 1463.381294 319.068873 
L 1464.619552 315.421863 
L 1465.857809 312.667301 
L 1467.096066 312.7034 
L 1468.334323 316.020051 
L 1470.810838 326.998809 
L 1472.049095 330.698426 
L 1473.287353 331.59901 
L 1474.52561 329.424829 
L 1475.763867 324.26954 
L 1478.240382 310.465301 
L 1479.478639 306.243908 
L 1480.716896 304.642172 
L 1481.955153 304.614514 
L 1483.193411 305.771675 
L 1484.431668 308.051606 
L 1485.669925 310.69639 
L 1488.14644 315.552198 
L 1490.622954 321.272424 
L 1491.861212 322.809065 
L 1493.099469 322.523015 
L 1494.337726 320.461238 
L 1495.575983 317.194773 
L 1496.814241 313.473132 
L 1498.052498 309.211269 
L 1499.290755 303.777506 
L 1500.529012 297.72654 
L 1501.76727 292.95796 
L 1503.005527 291.191025 
L 1504.243784 292.886018 
L 1505.482041 297.02983 
L 1506.720299 301.686275 
L 1507.958556 305.191126 
L 1509.196813 306.881103 
L 1510.435071 306.883781 
L 1512.911585 305.013049 
L 1514.149842 304.546052 
L 1515.3881 303.937434 
L 1516.626357 302.888061 
L 1517.864614 302.218111 
L 1519.102871 303.058941 
L 1521.579386 307.785999 
L 1524.0559 311.370909 
L 1525.294158 313.700455 
L 1526.532415 316.473117 
L 1527.770672 318.554263 
L 1529.00893 318.680691 
L 1530.247187 316.708299 
L 1531.485444 314.032352 
L 1532.723701 312.300601 
L 1533.961959 311.922252 
L 1535.200216 312.000283 
L 1536.438473 311.359989 
L 1537.67673 309.519081 
L 1540.153245 304.21244 
L 1541.391502 302.48735 
L 1542.62976 302.104004 
L 1543.868017 303.047504 
L 1545.106274 305.344178 
L 1546.344531 309.166184 
L 1548.821046 319.369762 
L 1550.059303 323.150678 
L 1551.29756 324.189109 
L 1552.535818 321.639778 
L 1553.774075 315.417155 
L 1556.250589 297.699717 
L 1557.488847 291.498761 
L 1558.727104 290.056818 
L 1559.965361 293.466939 
L 1562.441876 306.307248 
L 1563.680133 311.242267 
L 1564.91839 313.837626 
L 1566.156648 314.024127 
L 1567.394905 312.330356 
L 1568.633162 310.114341 
L 1569.871419 308.813489 
L 1571.109677 308.665623 
L 1572.347934 308.701121 
L 1573.586191 308.05215 
L 1574.824448 306.911737 
L 1576.062706 306.066881 
L 1577.300963 306.073409 
L 1578.53922 307.239932 
L 1581.015735 311.521517 
L 1582.253992 311.875766 
L 1583.492249 309.607862 
L 1584.730507 305.202793 
L 1585.968764 300.015318 
L 1587.207021 295.335911 
L 1588.445278 292.054692 
L 1589.683536 290.609017 
L 1590.921793 290.930137 
L 1592.16005 292.825025 
L 1593.398307 295.994734 
L 1594.636565 299.514131 
L 1595.874822 302.090764 
L 1597.113079 303.087013 
L 1598.351337 302.947497 
L 1599.589594 302.339297 
L 1600.827851 301.29998 
L 1602.066108 299.557886 
L 1604.542623 294.62653 
L 1605.78088 293.533807 
L 1607.019137 294.843912 
L 1609.495652 300.876287 
L 1610.733909 302.043796 
L 1611.972166 301.007739 
L 1613.210424 298.076562 
L 1614.448681 293.704566 
L 1616.925196 282.526702 
L 1618.163453 276.961362 
L 1619.40171 272.610117 
L 1620.639967 270.522101 
L 1621.878225 271.371753 
L 1623.116482 274.930232 
L 1624.354739 280.201335 
L 1629.307768 304.225698 
L 1630.546026 307.720556 
L 1631.784283 308.657036 
L 1633.02254 306.381442 
L 1634.260797 301.121091 
L 1636.737312 287.894344 
L 1637.975569 284.525521 
L 1639.213826 287.004859 
L 1640.452084 297.148802 
L 1641.690341 313.079206 
L 1641.690341 313.079206 
" style="fill:none;stroke:#008000;stroke-linecap:square;stroke-width:1.5;"/>
   </g>
   <g id="patch_3">
    <path d="M 43.78125 586.86358 
L 43.78125 22.318125 
" style="fill:none;stroke:#000000;stroke-linecap:square;stroke-linejoin:miter;stroke-width:0.8;"/>
   </g>
   <g id="patch_4">
    <path d="M 1717.78125 586.86358 
L 1717.78125 22.318125 
" style="fill:none;stroke:#000000;stroke-linecap:square;stroke-linejoin:miter;stroke-width:0.8;"/>
   </g>
   <g id="patch_5">
    <path d="M 43.78125 586.86358 
L 1717.78125 586.86358 
" style="fill:none;stroke:#000000;stroke-linecap:square;stroke-linejoin:miter;stroke-width:0.8;"/>
   </g>
   <g id="patch_6">
    <path d="M 43.78125 22.318125 
L 1717.78125 22.318125 
" style="fill:none;stroke:#000000;stroke-linecap:square;stroke-linejoin:miter;stroke-width:0.8;"/>
   </g>
   <g id="text_15">
    <!-- before binarisation -->
    <g transform="translate(824.1825 16.318125)scale(0.12 -0.12)">
     <defs>
      <path d="M 3116 1747 
Q 3116 2381 2855 2742 
Q 2594 3103 2138 3103 
Q 1681 3103 1420 2742 
Q 1159 2381 1159 1747 
Q 1159 1113 1420 752 
Q 1681 391 2138 391 
Q 2594 391 2855 752 
Q 3116 1113 3116 1747 
z
M 1159 2969 
Q 1341 3281 1617 3432 
Q 1894 3584 2278 3584 
Q 2916 3584 3314 3078 
Q 3713 2572 3713 1747 
Q 3713 922 3314 415 
Q 2916 -91 2278 -91 
Q 1894 -91 1617 61 
Q 1341 213 1159 525 
L 1159 0 
L 581 0 
L 581 4863 
L 1159 4863 
L 1159 2969 
z
" id="DejaVuSans-62" transform="scale(0.015625)"/>
      <path d="M 1959 3097 
Q 1497 3097 1228 2736 
Q 959 2375 959 1747 
Q 959 1119 1226 758 
Q 1494 397 1959 397 
Q 2419 397 2687 759 
Q 2956 1122 2956 1747 
Q 2956 2369 2687 2733 
Q 2419 3097 1959 3097 
z
M 1959 3584 
Q 2709 3584 3137 3096 
Q 3566 2609 3566 1747 
Q 3566 888 3137 398 
Q 2709 -91 1959 -91 
Q 1206 -91 779 398 
Q 353 888 353 1747 
Q 353 2609 779 3096 
Q 1206 3584 1959 3584 
z
" id="DejaVuSans-6f" transform="scale(0.015625)"/>
      <path id="DejaVuSans-20" transform="scale(0.015625)"/>
      <path d="M 603 3500 
L 1178 3500 
L 1178 0 
L 603 0 
L 603 3500 
z
M 603 4863 
L 1178 4863 
L 1178 4134 
L 603 4134 
L 603 4863 
z
" id="DejaVuSans-69" transform="scale(0.015625)"/>
      <path d="M 3513 2113 
L 3513 0 
L 2938 0 
L 2938 2094 
Q 2938 2591 2744 2837 
Q 2550 3084 2163 3084 
Q 1697 3084 1428 2787 
Q 1159 2491 1159 1978 
L 1159 0 
L 581 0 
L 581 3500 
L 1159 3500 
L 1159 2956 
Q 1366 3272 1645 3428 
Q 1925 3584 2291 3584 
Q 2894 3584 3203 3211 
Q 3513 2838 3513 2113 
z
" id="DejaVuSans-6e" transform="scale(0.015625)"/>
      <path d="M 2834 3397 
L 2834 2853 
Q 2591 2978 2328 3040 
Q 2066 3103 1784 3103 
Q 1356 3103 1142 2972 
Q 928 2841 928 2578 
Q 928 2378 1081 2264 
Q 1234 2150 1697 2047 
L 1894 2003 
Q 2506 1872 2764 1633 
Q 3022 1394 3022 966 
Q 3022 478 2636 193 
Q 2250 -91 1575 -91 
Q 1294 -91 989 -36 
Q 684 19 347 128 
L 347 722 
Q 666 556 975 473 
Q 1284 391 1588 391 
Q 1994 391 2212 530 
Q 2431 669 2431 922 
Q 2431 1156 2273 1281 
Q 2116 1406 1581 1522 
L 1381 1569 
Q 847 1681 609 1914 
Q 372 2147 372 2553 
Q 372 3047 722 3315 
Q 1072 3584 1716 3584 
Q 2034 3584 2315 3537 
Q 2597 3491 2834 3397 
z
" id="DejaVuSans-73" transform="scale(0.015625)"/>
      <path d="M 1172 4494 
L 1172 3500 
L 2356 3500 
L 2356 3053 
L 1172 3053 
L 1172 1153 
Q 1172 725 1289 603 
Q 1406 481 1766 481 
L 2356 481 
L 2356 0 
L 1766 0 
Q 1100 0 847 248 
Q 594 497 594 1153 
L 594 3053 
L 172 3053 
L 172 3500 
L 594 3500 
L 594 4494 
L 1172 4494 
z
" id="DejaVuSans-74" transform="scale(0.015625)"/>
     </defs>
     <use xlink:href="#DejaVuSans-62"/>
     <use x="63.476562" xlink:href="#DejaVuSans-65"/>
     <use x="125" xlink:href="#DejaVuSans-66"/>
     <use x="160.205078" xlink:href="#DejaVuSans-6f"/>
     <use x="221.386719" xlink:href="#DejaVuSans-72"/>
     <use x="260.25" xlink:href="#DejaVuSans-65"/>
     <use x="321.773438" xlink:href="#DejaVuSans-20"/>
     <use x="353.560547" xlink:href="#DejaVuSans-62"/>
     <use x="417.037109" xlink:href="#DejaVuSans-69"/>
     <use x="444.820312" xlink:href="#DejaVuSans-6e"/>
     <use x="508.199219" xlink:href="#DejaVuSans-61"/>
     <use x="569.478516" xlink:href="#DejaVuSans-72"/>
     <use x="610.591797" xlink:href="#DejaVuSans-69"/>
     <use x="638.375" xlink:href="#DejaVuSans-73"/>
     <use x="690.474609" xlink:href="#DejaVuSans-61"/>
     <use x="751.753906" xlink:href="#DejaVuSans-74"/>
     <use x="790.962891" xlink:href="#DejaVuSans-69"/>
     <use x="818.746094" xlink:href="#DejaVuSans-6f"/>
     <use x="879.927734" xlink:href="#DejaVuSans-6e"/>
    </g>
   </g>
  </g>
  <g id="axes_2">
   <g id="patch_7">
    <path d="M 43.78125 1264.318125 
L 1717.78125 1264.318125 
L 1717.78125 699.77267 
L 43.78125 699.77267 
z
" style="fill:#ffffff;"/>
   </g>
   <g id="matplotlib.axis_3">
    <g id="xtick_8">
     <g id="line2d_14">
      <g>
       <use style="stroke:#000000;stroke-width:0.8;" x="119.872159" xlink:href="#m4cb0c4ae1a" y="1264.318125"/>
      </g>
     </g>
     <g id="text_16">
      <!-- 0 -->
      <g transform="translate(116.690909 1278.916563)scale(0.1 -0.1)">
       <use xlink:href="#DejaVuSans-30"/>
      </g>
     </g>
    </g>
    <g id="xtick_9">
     <g id="line2d_15">
      <g>
       <use style="stroke:#000000;stroke-width:0.8;" x="367.523613" xlink:href="#m4cb0c4ae1a" y="1264.318125"/>
      </g>
     </g>
     <g id="text_17">
      <!-- 200 -->
      <g transform="translate(357.979863 1278.916563)scale(0.1 -0.1)">
       <use xlink:href="#DejaVuSans-32"/>
       <use x="63.623047" xlink:href="#DejaVuSans-30"/>
       <use x="127.246094" xlink:href="#DejaVuSans-30"/>
      </g>
     </g>
    </g>
    <g id="xtick_10">
     <g id="line2d_16">
      <g>
       <use style="stroke:#000000;stroke-width:0.8;" x="615.175066" xlink:href="#m4cb0c4ae1a" y="1264.318125"/>
      </g>
     </g>
     <g id="text_18">
      <!-- 400 -->
      <g transform="translate(605.631316 1278.916563)scale(0.1 -0.1)">
       <use xlink:href="#DejaVuSans-34"/>
       <use x="63.623047" xlink:href="#DejaVuSans-30"/>
       <use x="127.246094" xlink:href="#DejaVuSans-30"/>
      </g>
     </g>
    </g>
    <g id="xtick_11">
     <g id="line2d_17">
      <g>
       <use style="stroke:#000000;stroke-width:0.8;" x="862.82652" xlink:href="#m4cb0c4ae1a" y="1264.318125"/>
      </g>
     </g>
     <g id="text_19">
      <!-- 600 -->
      <g transform="translate(853.28277 1278.916563)scale(0.1 -0.1)">
       <use xlink:href="#DejaVuSans-36"/>
       <use x="63.623047" xlink:href="#DejaVuSans-30"/>
       <use x="127.246094" xlink:href="#DejaVuSans-30"/>
      </g>
     </g>
    </g>
    <g id="xtick_12">
     <g id="line2d_18">
      <g>
       <use style="stroke:#000000;stroke-width:0.8;" x="1110.477973" xlink:href="#m4cb0c4ae1a" y="1264.318125"/>
      </g>
     </g>
     <g id="text_20">
      <!-- 800 -->
      <g transform="translate(1100.934223 1278.916563)scale(0.1 -0.1)">
       <use xlink:href="#DejaVuSans-38"/>
       <use x="63.623047" xlink:href="#DejaVuSans-30"/>
       <use x="127.246094" xlink:href="#DejaVuSans-30"/>
      </g>
     </g>
    </g>
    <g id="xtick_13">
     <g id="line2d_19">
      <g>
       <use style="stroke:#000000;stroke-width:0.8;" x="1358.129427" xlink:href="#m4cb0c4ae1a" y="1264.318125"/>
      </g>
     </g>
     <g id="text_21">
      <!-- 1000 -->
      <g transform="translate(1345.404427 1278.916563)scale(0.1 -0.1)">
       <use xlink:href="#DejaVuSans-31"/>
       <use x="63.623047" xlink:href="#DejaVuSans-30"/>
       <use x="127.246094" xlink:href="#DejaVuSans-30"/>
       <use x="190.869141" xlink:href="#DejaVuSans-30"/>
      </g>
     </g>
    </g>
    <g id="xtick_14">
     <g id="line2d_20">
      <g>
       <use style="stroke:#000000;stroke-width:0.8;" x="1605.78088" xlink:href="#m4cb0c4ae1a" y="1264.318125"/>
      </g>
     </g>
     <g id="text_22">
      <!-- 1200 -->
      <g transform="translate(1593.05588 1278.916563)scale(0.1 -0.1)">
       <use xlink:href="#DejaVuSans-31"/>
       <use x="63.623047" xlink:href="#DejaVuSans-32"/>
       <use x="127.246094" xlink:href="#DejaVuSans-30"/>
       <use x="190.869141" xlink:href="#DejaVuSans-30"/>
      </g>
     </g>
    </g>
    <g id="text_23">
     <!-- frame -->
     <g transform="translate(865.954687 1292.594688)scale(0.1 -0.1)">
      <use xlink:href="#DejaVuSans-66"/>
      <use x="35.205078" xlink:href="#DejaVuSans-72"/>
      <use x="76.318359" xlink:href="#DejaVuSans-61"/>
      <use x="137.597656" xlink:href="#DejaVuSans-6d"/>
      <use x="235.009766" xlink:href="#DejaVuSans-65"/>
     </g>
    </g>
   </g>
   <g id="matplotlib.axis_4">
    <g id="ytick_6">
     <g id="line2d_21">
      <g>
       <use style="stroke:#000000;stroke-width:0.8;" x="43.78125" xlink:href="#mff5eb02442" y="1238.656968"/>
      </g>
     </g>
     <g id="text_24">
      <!-- 0.0 -->
      <g transform="translate(20.878125 1242.456187)scale(0.1 -0.1)">
       <use xlink:href="#DejaVuSans-30"/>
       <use x="63.623047" xlink:href="#DejaVuSans-2e"/>
       <use x="95.410156" xlink:href="#DejaVuSans-30"/>
      </g>
     </g>
    </g>
    <g id="ytick_7">
     <g id="line2d_22">
      <g>
       <use style="stroke:#000000;stroke-width:0.8;" x="43.78125" xlink:href="#mff5eb02442" y="1136.01234"/>
      </g>
     </g>
     <g id="text_25">
      <!-- 0.2 -->
      <g transform="translate(20.878125 1139.811559)scale(0.1 -0.1)">
       <use xlink:href="#DejaVuSans-30"/>
       <use x="63.623047" xlink:href="#DejaVuSans-2e"/>
       <use x="95.410156" xlink:href="#DejaVuSans-32"/>
      </g>
     </g>
    </g>
    <g id="ytick_8">
     <g id="line2d_23">
      <g>
       <use style="stroke:#000000;stroke-width:0.8;" x="43.78125" xlink:href="#mff5eb02442" y="1033.367712"/>
      </g>
     </g>
     <g id="text_26">
      <!-- 0.4 -->
      <g transform="translate(20.878125 1037.166931)scale(0.1 -0.1)">
       <use xlink:href="#DejaVuSans-30"/>
       <use x="63.623047" xlink:href="#DejaVuSans-2e"/>
       <use x="95.410156" xlink:href="#DejaVuSans-34"/>
      </g>
     </g>
    </g>
    <g id="ytick_9">
     <g id="line2d_24">
      <g>
       <use style="stroke:#000000;stroke-width:0.8;" x="43.78125" xlink:href="#mff5eb02442" y="930.723084"/>
      </g>
     </g>
     <g id="text_27">
      <!-- 0.6 -->
      <g transform="translate(20.878125 934.522302)scale(0.1 -0.1)">
       <use xlink:href="#DejaVuSans-30"/>
       <use x="63.623047" xlink:href="#DejaVuSans-2e"/>
       <use x="95.410156" xlink:href="#DejaVuSans-36"/>
      </g>
     </g>
    </g>
    <g id="ytick_10">
     <g id="line2d_25">
      <g>
       <use style="stroke:#000000;stroke-width:0.8;" x="43.78125" xlink:href="#mff5eb02442" y="828.078456"/>
      </g>
     </g>
     <g id="text_28">
      <!-- 0.8 -->
      <g transform="translate(20.878125 831.877674)scale(0.1 -0.1)">
       <use xlink:href="#DejaVuSans-30"/>
       <use x="63.623047" xlink:href="#DejaVuSans-2e"/>
       <use x="95.410156" xlink:href="#DejaVuSans-38"/>
      </g>
     </g>
    </g>
    <g id="ytick_11">
     <g id="line2d_26">
      <g>
       <use style="stroke:#000000;stroke-width:0.8;" x="43.78125" xlink:href="#mff5eb02442" y="725.433827"/>
      </g>
     </g>
     <g id="text_29">
      <!-- 1.0 -->
      <g transform="translate(20.878125 729.233046)scale(0.1 -0.1)">
       <use xlink:href="#DejaVuSans-31"/>
       <use x="63.623047" xlink:href="#DejaVuSans-2e"/>
       <use x="95.410156" xlink:href="#DejaVuSans-30"/>
      </g>
     </g>
    </g>
    <g id="text_30">
     <!-- GCaMP -->
     <g transform="translate(14.798437 999.803991)rotate(-90)scale(0.1 -0.1)">
      <use xlink:href="#DejaVuSans-47"/>
      <use x="77.490234" xlink:href="#DejaVuSans-43"/>
      <use x="147.314453" xlink:href="#DejaVuSans-61"/>
      <use x="208.59375" xlink:href="#DejaVuSans-4d"/>
      <use x="294.873047" xlink:href="#DejaVuSans-50"/>
     </g>
    </g>
   </g>
   <g id="line2d_27">
    <path clip-path="url(#pb2167f92af)" d="M 119.872159 1238.656968 
L 717.950419 1238.656968 
L 719.188677 725.433827 
L 798.437142 725.433827 
L 799.675399 1238.656968 
L 913.595068 1238.656968 
L 914.833325 725.433827 
L 990.367018 725.433827 
L 991.605275 1238.656968 
L 1017.608678 1238.656968 
L 1018.846935 725.433827 
L 1115.431002 725.433827 
L 1116.669259 1238.656968 
L 1122.860546 1238.656968 
L 1124.098803 725.433827 
L 1130.290089 725.433827 
L 1131.528347 1238.656968 
L 1137.719633 1238.656968 
L 1138.95789 725.433827 
L 1146.387434 725.433827 
L 1147.625691 1238.656968 
L 1172.390837 1238.656968 
L 1173.629094 725.433827 
L 1178.582123 725.433827 
L 1179.82038 1238.656968 
L 1641.690341 1238.656968 
L 1641.690341 1238.656968 
" style="fill:none;stroke:#008000;stroke-linecap:square;stroke-width:1.5;"/>
   </g>
   <g id="patch_8">
    <path d="M 43.78125 1264.318125 
L 43.78125 699.77267 
" style="fill:none;stroke:#000000;stroke-linecap:square;stroke-linejoin:miter;stroke-width:0.8;"/>
   </g>
   <g id="patch_9">
    <path d="M 1717.78125 1264.318125 
L 1717.78125 699.77267 
" style="fill:none;stroke:#000000;stroke-linecap:square;stroke-linejoin:miter;stroke-width:0.8;"/>
   </g>
   <g id="patch_10">
    <path d="M 43.78125 1264.318125 
L 1717.78125 1264.318125 
" style="fill:none;stroke:#000000;stroke-linecap:square;stroke-linejoin:miter;stroke-width:0.8;"/>
   </g>
   <g id="patch_11">
    <path d="M 43.78125 699.77267 
L 1717.78125 699.77267 
" style="fill:none;stroke:#000000;stroke-linecap:square;stroke-linejoin:miter;stroke-width:0.8;"/>
   </g>
   <g id="text_31">
    <!-- before binarisation -->
    <g transform="translate(824.1825 693.77267)scale(0.12 -0.12)">
     <use xlink:href="#DejaVuSans-62"/>
     <use x="63.476562" xlink:href="#DejaVuSans-65"/>
     <use x="125" xlink:href="#DejaVuSans-66"/>
     <use x="160.205078" xlink:href="#DejaVuSans-6f"/>
     <use x="221.386719" xlink:href="#DejaVuSans-72"/>
     <use x="260.25" xlink:href="#DejaVuSans-65"/>
     <use x="321.773438" xlink:href="#DejaVuSans-20"/>
     <use x="353.560547" xlink:href="#DejaVuSans-62"/>
     <use x="417.037109" xlink:href="#DejaVuSans-69"/>
     <use x="444.820312" xlink:href="#DejaVuSans-6e"/>
     <use x="508.199219" xlink:href="#DejaVuSans-61"/>
     <use x="569.478516" xlink:href="#DejaVuSans-72"/>
     <use x="610.591797" xlink:href="#DejaVuSans-69"/>
     <use x="638.375" xlink:href="#DejaVuSans-73"/>
     <use x="690.474609" xlink:href="#DejaVuSans-61"/>
     <use x="751.753906" xlink:href="#DejaVuSans-74"/>
     <use x="790.962891" xlink:href="#DejaVuSans-69"/>
     <use x="818.746094" xlink:href="#DejaVuSans-6f"/>
     <use x="879.927734" xlink:href="#DejaVuSans-6e"/>
    </g>
   </g>
  </g>
 </g>
 <defs>
  <clipPath id="p18aeafcac0">
   <rect height="564.545455" width="1674" x="43.78125" y="22.318125"/>
  </clipPath>
  <clipPath id="pb2167f92af">
   <rect height="564.545455" width="1674" x="43.78125" y="699.77267"/>
  </clipPath>
 </defs>
</svg>
