<?xml version="1.0" encoding="utf-8" standalone="no"?>
<!DOCTYPE svg PUBLIC "-//W3C//DTD SVG 1.1//EN"
  "http://www.w3.org/Graphics/SVG/1.1/DTD/svg11.dtd">
<svg height="1301.874375pt" version="1.1" viewBox="0 0 1731.34375 1301.874375" width="1731.34375pt" xmlns="http://www.w3.org/2000/svg" xmlns:xlink="http://www.w3.org/1999/xlink">
 <metadata>
  <rdf:RDF xmlns:cc="http://creativecommons.org/ns#" xmlns:dc="http://purl.org/dc/elements/1.1/" xmlns:rdf="http://www.w3.org/1999/02/22-rdf-syntax-ns#">
   <cc:Work>
    <dc:type rdf:resource="http://purl.org/dc/dcmitype/StillImage"/>
    <dc:date>2022-07-24T15:54:41.907147</dc:date>
    <dc:format>image/svg+xml</dc:format>
    <dc:creator>
     <cc:Agent>
      <dc:title>Matplotlib v3.4.2, https://matplotlib.org/</dc:title>
     </cc:Agent>
    </dc:creator>
   </cc:Work>
  </rdf:RDF>
 </metadata>
 <defs>
  <style type="text/css">*{stroke-linecap:butt;stroke-linejoin:round;}</style>
 </defs>
 <g id="figure_1">
  <g id="patch_1">
   <path d="M 0 1301.874375 
L 1731.34375 1301.874375 
L 1731.34375 0 
L 0 0 
z
" style="fill:#ffffff;"/>
  </g>
  <g id="axes_1">
   <g id="patch_2">
    <path d="M 50.14375 586.86358 
L 1724.14375 586.86358 
L 1724.14375 22.318125 
L 50.14375 22.318125 
z
" style="fill:#ffffff;"/>
   </g>
   <g id="matplotlib.axis_1">
    <g id="xtick_1">
     <g id="line2d_1">
      <defs>
       <path d="M 0 0 
L 0 3.5 
" id="me8698daa3c" style="stroke:#000000;stroke-width:0.8;"/>
      </defs>
      <g>
       <use style="stroke:#000000;stroke-width:0.8;" x="126.234659" xlink:href="#me8698daa3c" y="586.86358"/>
      </g>
     </g>
     <g id="text_1">
      <!-- 0 -->
      <g transform="translate(123.053409 601.462017)scale(0.1 -0.1)">
       <defs>
        <path d="M 2034 4250 
Q 1547 4250 1301 3770 
Q 1056 3291 1056 2328 
Q 1056 1369 1301 889 
Q 1547 409 2034 409 
Q 2525 409 2770 889 
Q 3016 1369 3016 2328 
Q 3016 3291 2770 3770 
Q 2525 4250 2034 4250 
z
M 2034 4750 
Q 2819 4750 3233 4129 
Q 3647 3509 3647 2328 
Q 3647 1150 3233 529 
Q 2819 -91 2034 -91 
Q 1250 -91 836 529 
Q 422 1150 422 2328 
Q 422 3509 836 4129 
Q 1250 4750 2034 4750 
z
" id="DejaVuSans-30" transform="scale(0.015625)"/>
       </defs>
       <use xlink:href="#DejaVuSans-30"/>
      </g>
     </g>
    </g>
    <g id="xtick_2">
     <g id="line2d_2">
      <g>
       <use style="stroke:#000000;stroke-width:0.8;" x="373.886113" xlink:href="#me8698daa3c" y="586.86358"/>
      </g>
     </g>
     <g id="text_2">
      <!-- 200 -->
      <g transform="translate(364.342363 601.462017)scale(0.1 -0.1)">
       <defs>
        <path d="M 1228 531 
L 3431 531 
L 3431 0 
L 469 0 
L 469 531 
Q 828 903 1448 1529 
Q 2069 2156 2228 2338 
Q 2531 2678 2651 2914 
Q 2772 3150 2772 3378 
Q 2772 3750 2511 3984 
Q 2250 4219 1831 4219 
Q 1534 4219 1204 4116 
Q 875 4013 500 3803 
L 500 4441 
Q 881 4594 1212 4672 
Q 1544 4750 1819 4750 
Q 2544 4750 2975 4387 
Q 3406 4025 3406 3419 
Q 3406 3131 3298 2873 
Q 3191 2616 2906 2266 
Q 2828 2175 2409 1742 
Q 1991 1309 1228 531 
z
" id="DejaVuSans-32" transform="scale(0.015625)"/>
       </defs>
       <use xlink:href="#DejaVuSans-32"/>
       <use x="63.623047" xlink:href="#DejaVuSans-30"/>
       <use x="127.246094" xlink:href="#DejaVuSans-30"/>
      </g>
     </g>
    </g>
    <g id="xtick_3">
     <g id="line2d_3">
      <g>
       <use style="stroke:#000000;stroke-width:0.8;" x="621.537566" xlink:href="#me8698daa3c" y="586.86358"/>
      </g>
     </g>
     <g id="text_3">
      <!-- 400 -->
      <g transform="translate(611.993816 601.462017)scale(0.1 -0.1)">
       <defs>
        <path d="M 2419 4116 
L 825 1625 
L 2419 1625 
L 2419 4116 
z
M 2253 4666 
L 3047 4666 
L 3047 1625 
L 3713 1625 
L 3713 1100 
L 3047 1100 
L 3047 0 
L 2419 0 
L 2419 1100 
L 313 1100 
L 313 1709 
L 2253 4666 
z
" id="DejaVuSans-34" transform="scale(0.015625)"/>
       </defs>
       <use xlink:href="#DejaVuSans-34"/>
       <use x="63.623047" xlink:href="#DejaVuSans-30"/>
       <use x="127.246094" xlink:href="#DejaVuSans-30"/>
      </g>
     </g>
    </g>
    <g id="xtick_4">
     <g id="line2d_4">
      <g>
       <use style="stroke:#000000;stroke-width:0.8;" x="869.18902" xlink:href="#me8698daa3c" y="586.86358"/>
      </g>
     </g>
     <g id="text_4">
      <!-- 600 -->
      <g transform="translate(859.64527 601.462017)scale(0.1 -0.1)">
       <defs>
        <path d="M 2113 2584 
Q 1688 2584 1439 2293 
Q 1191 2003 1191 1497 
Q 1191 994 1439 701 
Q 1688 409 2113 409 
Q 2538 409 2786 701 
Q 3034 994 3034 1497 
Q 3034 2003 2786 2293 
Q 2538 2584 2113 2584 
z
M 3366 4563 
L 3366 3988 
Q 3128 4100 2886 4159 
Q 2644 4219 2406 4219 
Q 1781 4219 1451 3797 
Q 1122 3375 1075 2522 
Q 1259 2794 1537 2939 
Q 1816 3084 2150 3084 
Q 2853 3084 3261 2657 
Q 3669 2231 3669 1497 
Q 3669 778 3244 343 
Q 2819 -91 2113 -91 
Q 1303 -91 875 529 
Q 447 1150 447 2328 
Q 447 3434 972 4092 
Q 1497 4750 2381 4750 
Q 2619 4750 2861 4703 
Q 3103 4656 3366 4563 
z
" id="DejaVuSans-36" transform="scale(0.015625)"/>
       </defs>
       <use xlink:href="#DejaVuSans-36"/>
       <use x="63.623047" xlink:href="#DejaVuSans-30"/>
       <use x="127.246094" xlink:href="#DejaVuSans-30"/>
      </g>
     </g>
    </g>
    <g id="xtick_5">
     <g id="line2d_5">
      <g>
       <use style="stroke:#000000;stroke-width:0.8;" x="1116.840473" xlink:href="#me8698daa3c" y="586.86358"/>
      </g>
     </g>
     <g id="text_5">
      <!-- 800 -->
      <g transform="translate(1107.296723 601.462017)scale(0.1 -0.1)">
       <defs>
        <path d="M 2034 2216 
Q 1584 2216 1326 1975 
Q 1069 1734 1069 1313 
Q 1069 891 1326 650 
Q 1584 409 2034 409 
Q 2484 409 2743 651 
Q 3003 894 3003 1313 
Q 3003 1734 2745 1975 
Q 2488 2216 2034 2216 
z
M 1403 2484 
Q 997 2584 770 2862 
Q 544 3141 544 3541 
Q 544 4100 942 4425 
Q 1341 4750 2034 4750 
Q 2731 4750 3128 4425 
Q 3525 4100 3525 3541 
Q 3525 3141 3298 2862 
Q 3072 2584 2669 2484 
Q 3125 2378 3379 2068 
Q 3634 1759 3634 1313 
Q 3634 634 3220 271 
Q 2806 -91 2034 -91 
Q 1263 -91 848 271 
Q 434 634 434 1313 
Q 434 1759 690 2068 
Q 947 2378 1403 2484 
z
M 1172 3481 
Q 1172 3119 1398 2916 
Q 1625 2713 2034 2713 
Q 2441 2713 2670 2916 
Q 2900 3119 2900 3481 
Q 2900 3844 2670 4047 
Q 2441 4250 2034 4250 
Q 1625 4250 1398 4047 
Q 1172 3844 1172 3481 
z
" id="DejaVuSans-38" transform="scale(0.015625)"/>
       </defs>
       <use xlink:href="#DejaVuSans-38"/>
       <use x="63.623047" xlink:href="#DejaVuSans-30"/>
       <use x="127.246094" xlink:href="#DejaVuSans-30"/>
      </g>
     </g>
    </g>
    <g id="xtick_6">
     <g id="line2d_6">
      <g>
       <use style="stroke:#000000;stroke-width:0.8;" x="1364.491927" xlink:href="#me8698daa3c" y="586.86358"/>
      </g>
     </g>
     <g id="text_6">
      <!-- 1000 -->
      <g transform="translate(1351.766927 601.462017)scale(0.1 -0.1)">
       <defs>
        <path d="M 794 531 
L 1825 531 
L 1825 4091 
L 703 3866 
L 703 4441 
L 1819 4666 
L 2450 4666 
L 2450 531 
L 3481 531 
L 3481 0 
L 794 0 
L 794 531 
z
" id="DejaVuSans-31" transform="scale(0.015625)"/>
       </defs>
       <use xlink:href="#DejaVuSans-31"/>
       <use x="63.623047" xlink:href="#DejaVuSans-30"/>
       <use x="127.246094" xlink:href="#DejaVuSans-30"/>
       <use x="190.869141" xlink:href="#DejaVuSans-30"/>
      </g>
     </g>
    </g>
    <g id="xtick_7">
     <g id="line2d_7">
      <g>
       <use style="stroke:#000000;stroke-width:0.8;" x="1612.14338" xlink:href="#me8698daa3c" y="586.86358"/>
      </g>
     </g>
     <g id="text_7">
      <!-- 1200 -->
      <g transform="translate(1599.41838 601.462017)scale(0.1 -0.1)">
       <use xlink:href="#DejaVuSans-31"/>
       <use x="63.623047" xlink:href="#DejaVuSans-32"/>
       <use x="127.246094" xlink:href="#DejaVuSans-30"/>
       <use x="190.869141" xlink:href="#DejaVuSans-30"/>
      </g>
     </g>
    </g>
    <g id="text_8">
     <!-- frame -->
     <g transform="translate(872.317187 615.140142)scale(0.1 -0.1)">
      <defs>
       <path d="M 2375 4863 
L 2375 4384 
L 1825 4384 
Q 1516 4384 1395 4259 
Q 1275 4134 1275 3809 
L 1275 3500 
L 2222 3500 
L 2222 3053 
L 1275 3053 
L 1275 0 
L 697 0 
L 697 3053 
L 147 3053 
L 147 3500 
L 697 3500 
L 697 3744 
Q 697 4328 969 4595 
Q 1241 4863 1831 4863 
L 2375 4863 
z
" id="DejaVuSans-66" transform="scale(0.015625)"/>
       <path d="M 2631 2963 
Q 2534 3019 2420 3045 
Q 2306 3072 2169 3072 
Q 1681 3072 1420 2755 
Q 1159 2438 1159 1844 
L 1159 0 
L 581 0 
L 581 3500 
L 1159 3500 
L 1159 2956 
Q 1341 3275 1631 3429 
Q 1922 3584 2338 3584 
Q 2397 3584 2469 3576 
Q 2541 3569 2628 3553 
L 2631 2963 
z
" id="DejaVuSans-72" transform="scale(0.015625)"/>
       <path d="M 2194 1759 
Q 1497 1759 1228 1600 
Q 959 1441 959 1056 
Q 959 750 1161 570 
Q 1363 391 1709 391 
Q 2188 391 2477 730 
Q 2766 1069 2766 1631 
L 2766 1759 
L 2194 1759 
z
M 3341 1997 
L 3341 0 
L 2766 0 
L 2766 531 
Q 2569 213 2275 61 
Q 1981 -91 1556 -91 
Q 1019 -91 701 211 
Q 384 513 384 1019 
Q 384 1609 779 1909 
Q 1175 2209 1959 2209 
L 2766 2209 
L 2766 2266 
Q 2766 2663 2505 2880 
Q 2244 3097 1772 3097 
Q 1472 3097 1187 3025 
Q 903 2953 641 2809 
L 641 3341 
Q 956 3463 1253 3523 
Q 1550 3584 1831 3584 
Q 2591 3584 2966 3190 
Q 3341 2797 3341 1997 
z
" id="DejaVuSans-61" transform="scale(0.015625)"/>
       <path d="M 3328 2828 
Q 3544 3216 3844 3400 
Q 4144 3584 4550 3584 
Q 5097 3584 5394 3201 
Q 5691 2819 5691 2113 
L 5691 0 
L 5113 0 
L 5113 2094 
Q 5113 2597 4934 2840 
Q 4756 3084 4391 3084 
Q 3944 3084 3684 2787 
Q 3425 2491 3425 1978 
L 3425 0 
L 2847 0 
L 2847 2094 
Q 2847 2600 2669 2842 
Q 2491 3084 2119 3084 
Q 1678 3084 1418 2786 
Q 1159 2488 1159 1978 
L 1159 0 
L 581 0 
L 581 3500 
L 1159 3500 
L 1159 2956 
Q 1356 3278 1631 3431 
Q 1906 3584 2284 3584 
Q 2666 3584 2933 3390 
Q 3200 3197 3328 2828 
z
" id="DejaVuSans-6d" transform="scale(0.015625)"/>
       <path d="M 3597 1894 
L 3597 1613 
L 953 1613 
Q 991 1019 1311 708 
Q 1631 397 2203 397 
Q 2534 397 2845 478 
Q 3156 559 3463 722 
L 3463 178 
Q 3153 47 2828 -22 
Q 2503 -91 2169 -91 
Q 1331 -91 842 396 
Q 353 884 353 1716 
Q 353 2575 817 3079 
Q 1281 3584 2069 3584 
Q 2775 3584 3186 3129 
Q 3597 2675 3597 1894 
z
M 3022 2063 
Q 3016 2534 2758 2815 
Q 2500 3097 2075 3097 
Q 1594 3097 1305 2825 
Q 1016 2553 972 2059 
L 3022 2063 
z
" id="DejaVuSans-65" transform="scale(0.015625)"/>
      </defs>
      <use xlink:href="#DejaVuSans-66"/>
      <use x="35.205078" xlink:href="#DejaVuSans-72"/>
      <use x="76.318359" xlink:href="#DejaVuSans-61"/>
      <use x="137.597656" xlink:href="#DejaVuSans-6d"/>
      <use x="235.009766" xlink:href="#DejaVuSans-65"/>
     </g>
    </g>
   </g>
   <g id="matplotlib.axis_2">
    <g id="ytick_1">
     <g id="line2d_8">
      <defs>
       <path d="M 0 0 
L -3.5 0 
" id="m74acc89869" style="stroke:#000000;stroke-width:0.8;"/>
      </defs>
      <g>
       <use style="stroke:#000000;stroke-width:0.8;" x="50.14375" xlink:href="#m74acc89869" y="561.202423"/>
      </g>
     </g>
     <g id="text_9">
      <!-- 0.00 -->
      <g transform="translate(20.878125 565.001641)scale(0.1 -0.1)">
       <defs>
        <path d="M 684 794 
L 1344 794 
L 1344 0 
L 684 0 
L 684 794 
z
" id="DejaVuSans-2e" transform="scale(0.015625)"/>
       </defs>
       <use xlink:href="#DejaVuSans-30"/>
       <use x="63.623047" xlink:href="#DejaVuSans-2e"/>
       <use x="95.410156" xlink:href="#DejaVuSans-30"/>
       <use x="159.033203" xlink:href="#DejaVuSans-30"/>
      </g>
     </g>
    </g>
    <g id="ytick_2">
     <g id="line2d_9">
      <g>
       <use style="stroke:#000000;stroke-width:0.8;" x="50.14375" xlink:href="#m74acc89869" y="490.800107"/>
      </g>
     </g>
     <g id="text_10">
      <!-- 0.25 -->
      <g transform="translate(20.878125 494.599326)scale(0.1 -0.1)">
       <defs>
        <path d="M 691 4666 
L 3169 4666 
L 3169 4134 
L 1269 4134 
L 1269 2991 
Q 1406 3038 1543 3061 
Q 1681 3084 1819 3084 
Q 2600 3084 3056 2656 
Q 3513 2228 3513 1497 
Q 3513 744 3044 326 
Q 2575 -91 1722 -91 
Q 1428 -91 1123 -41 
Q 819 9 494 109 
L 494 744 
Q 775 591 1075 516 
Q 1375 441 1709 441 
Q 2250 441 2565 725 
Q 2881 1009 2881 1497 
Q 2881 1984 2565 2268 
Q 2250 2553 1709 2553 
Q 1456 2553 1204 2497 
Q 953 2441 691 2322 
L 691 4666 
z
" id="DejaVuSans-35" transform="scale(0.015625)"/>
       </defs>
       <use xlink:href="#DejaVuSans-30"/>
       <use x="63.623047" xlink:href="#DejaVuSans-2e"/>
       <use x="95.410156" xlink:href="#DejaVuSans-32"/>
       <use x="159.033203" xlink:href="#DejaVuSans-35"/>
      </g>
     </g>
    </g>
    <g id="ytick_3">
     <g id="line2d_10">
      <g>
       <use style="stroke:#000000;stroke-width:0.8;" x="50.14375" xlink:href="#m74acc89869" y="420.397792"/>
      </g>
     </g>
     <g id="text_11">
      <!-- 0.50 -->
      <g transform="translate(20.878125 424.197011)scale(0.1 -0.1)">
       <use xlink:href="#DejaVuSans-30"/>
       <use x="63.623047" xlink:href="#DejaVuSans-2e"/>
       <use x="95.410156" xlink:href="#DejaVuSans-35"/>
       <use x="159.033203" xlink:href="#DejaVuSans-30"/>
      </g>
     </g>
    </g>
    <g id="ytick_4">
     <g id="line2d_11">
      <g>
       <use style="stroke:#000000;stroke-width:0.8;" x="50.14375" xlink:href="#m74acc89869" y="349.995477"/>
      </g>
     </g>
     <g id="text_12">
      <!-- 0.75 -->
      <g transform="translate(20.878125 353.794696)scale(0.1 -0.1)">
       <defs>
        <path d="M 525 4666 
L 3525 4666 
L 3525 4397 
L 1831 0 
L 1172 0 
L 2766 4134 
L 525 4134 
L 525 4666 
z
" id="DejaVuSans-37" transform="scale(0.015625)"/>
       </defs>
       <use xlink:href="#DejaVuSans-30"/>
       <use x="63.623047" xlink:href="#DejaVuSans-2e"/>
       <use x="95.410156" xlink:href="#DejaVuSans-37"/>
       <use x="159.033203" xlink:href="#DejaVuSans-35"/>
      </g>
     </g>
    </g>
    <g id="ytick_5">
     <g id="line2d_12">
      <g>
       <use style="stroke:#000000;stroke-width:0.8;" x="50.14375" xlink:href="#m74acc89869" y="279.593162"/>
      </g>
     </g>
     <g id="text_13">
      <!-- 1.00 -->
      <g transform="translate(20.878125 283.392381)scale(0.1 -0.1)">
       <use xlink:href="#DejaVuSans-31"/>
       <use x="63.623047" xlink:href="#DejaVuSans-2e"/>
       <use x="95.410156" xlink:href="#DejaVuSans-30"/>
       <use x="159.033203" xlink:href="#DejaVuSans-30"/>
      </g>
     </g>
    </g>
    <g id="ytick_6">
     <g id="line2d_13">
      <g>
       <use style="stroke:#000000;stroke-width:0.8;" x="50.14375" xlink:href="#m74acc89869" y="209.190847"/>
      </g>
     </g>
     <g id="text_14">
      <!-- 1.25 -->
      <g transform="translate(20.878125 212.990066)scale(0.1 -0.1)">
       <use xlink:href="#DejaVuSans-31"/>
       <use x="63.623047" xlink:href="#DejaVuSans-2e"/>
       <use x="95.410156" xlink:href="#DejaVuSans-32"/>
       <use x="159.033203" xlink:href="#DejaVuSans-35"/>
      </g>
     </g>
    </g>
    <g id="ytick_7">
     <g id="line2d_14">
      <g>
       <use style="stroke:#000000;stroke-width:0.8;" x="50.14375" xlink:href="#m74acc89869" y="138.788532"/>
      </g>
     </g>
     <g id="text_15">
      <!-- 1.50 -->
      <g transform="translate(20.878125 142.58775)scale(0.1 -0.1)">
       <use xlink:href="#DejaVuSans-31"/>
       <use x="63.623047" xlink:href="#DejaVuSans-2e"/>
       <use x="95.410156" xlink:href="#DejaVuSans-35"/>
       <use x="159.033203" xlink:href="#DejaVuSans-30"/>
      </g>
     </g>
    </g>
    <g id="ytick_8">
     <g id="line2d_15">
      <g>
       <use style="stroke:#000000;stroke-width:0.8;" x="50.14375" xlink:href="#m74acc89869" y="68.386217"/>
      </g>
     </g>
     <g id="text_16">
      <!-- 1.75 -->
      <g transform="translate(20.878125 72.185435)scale(0.1 -0.1)">
       <use xlink:href="#DejaVuSans-31"/>
       <use x="63.623047" xlink:href="#DejaVuSans-2e"/>
       <use x="95.410156" xlink:href="#DejaVuSans-37"/>
       <use x="159.033203" xlink:href="#DejaVuSans-35"/>
      </g>
     </g>
    </g>
    <g id="text_17">
     <!-- GCaMP -->
     <g transform="translate(14.798438 322.349446)rotate(-90)scale(0.1 -0.1)">
      <defs>
       <path d="M 3809 666 
L 3809 1919 
L 2778 1919 
L 2778 2438 
L 4434 2438 
L 4434 434 
Q 4069 175 3628 42 
Q 3188 -91 2688 -91 
Q 1594 -91 976 548 
Q 359 1188 359 2328 
Q 359 3472 976 4111 
Q 1594 4750 2688 4750 
Q 3144 4750 3555 4637 
Q 3966 4525 4313 4306 
L 4313 3634 
Q 3963 3931 3569 4081 
Q 3175 4231 2741 4231 
Q 1884 4231 1454 3753 
Q 1025 3275 1025 2328 
Q 1025 1384 1454 906 
Q 1884 428 2741 428 
Q 3075 428 3337 486 
Q 3600 544 3809 666 
z
" id="DejaVuSans-47" transform="scale(0.015625)"/>
       <path d="M 4122 4306 
L 4122 3641 
Q 3803 3938 3442 4084 
Q 3081 4231 2675 4231 
Q 1875 4231 1450 3742 
Q 1025 3253 1025 2328 
Q 1025 1406 1450 917 
Q 1875 428 2675 428 
Q 3081 428 3442 575 
Q 3803 722 4122 1019 
L 4122 359 
Q 3791 134 3420 21 
Q 3050 -91 2638 -91 
Q 1578 -91 968 557 
Q 359 1206 359 2328 
Q 359 3453 968 4101 
Q 1578 4750 2638 4750 
Q 3056 4750 3426 4639 
Q 3797 4528 4122 4306 
z
" id="DejaVuSans-43" transform="scale(0.015625)"/>
       <path d="M 628 4666 
L 1569 4666 
L 2759 1491 
L 3956 4666 
L 4897 4666 
L 4897 0 
L 4281 0 
L 4281 4097 
L 3078 897 
L 2444 897 
L 1241 4097 
L 1241 0 
L 628 0 
L 628 4666 
z
" id="DejaVuSans-4d" transform="scale(0.015625)"/>
       <path d="M 1259 4147 
L 1259 2394 
L 2053 2394 
Q 2494 2394 2734 2622 
Q 2975 2850 2975 3272 
Q 2975 3691 2734 3919 
Q 2494 4147 2053 4147 
L 1259 4147 
z
M 628 4666 
L 2053 4666 
Q 2838 4666 3239 4311 
Q 3641 3956 3641 3272 
Q 3641 2581 3239 2228 
Q 2838 1875 2053 1875 
L 1259 1875 
L 1259 0 
L 628 0 
L 628 4666 
z
" id="DejaVuSans-50" transform="scale(0.015625)"/>
      </defs>
      <use xlink:href="#DejaVuSans-47"/>
      <use x="77.490234" xlink:href="#DejaVuSans-43"/>
      <use x="147.314453" xlink:href="#DejaVuSans-61"/>
      <use x="208.59375" xlink:href="#DejaVuSans-4d"/>
      <use x="294.873047" xlink:href="#DejaVuSans-50"/>
     </g>
    </g>
   </g>
   <g id="line2d_16">
    <path clip-path="url(#p441ac0fa24)" d="M 126.234659 207.776024 
L 127.472916 210.955623 
L 128.711174 213.560376 
L 129.949431 215.39313 
L 131.187688 216.150003 
L 132.425945 215.052457 
L 133.664203 211.545226 
L 134.90246 206.044725 
L 137.378974 193.472243 
L 138.617232 188.325232 
L 139.855489 185.40845 
L 141.093746 185.482698 
L 142.332004 188.540306 
L 143.570261 194.455829 
L 144.808518 203.064973 
L 147.285033 223.886553 
L 148.52329 232.601794 
L 149.761547 238.312291 
L 150.999804 240.444374 
L 152.238062 239.154702 
L 153.476319 235.15414 
L 155.952834 224.594727 
L 157.191091 221.095786 
L 158.429348 220.025401 
L 159.667605 221.581723 
L 160.905863 225.211679 
L 163.382377 233.789589 
L 164.620634 237.007253 
L 165.858892 239.386927 
L 167.097149 241.062799 
L 168.335406 241.865581 
L 169.573663 241.302064 
L 170.811921 239.272941 
L 172.050178 236.687899 
L 173.288435 234.809953 
L 174.526693 234.11188 
L 175.76495 234.349141 
L 177.003207 235.645755 
L 178.241464 238.660896 
L 179.479722 243.5948 
L 181.956236 255.394397 
L 183.194493 259.921508 
L 184.432751 263.308364 
L 185.671008 265.969562 
L 186.909265 267.702815 
L 188.147522 268.100593 
L 189.38578 267.346737 
L 190.624037 266.223824 
L 191.862294 265.57319 
L 193.100552 265.657996 
L 195.577066 266.578219 
L 196.815323 266.821989 
L 198.053581 267.667299 
L 199.291838 270.625461 
L 200.530095 276.351601 
L 203.00661 290.734994 
L 204.244867 295.451226 
L 205.483124 296.741842 
L 206.721381 294.445203 
L 209.197896 285.540451 
L 210.436153 283.672123 
L 211.674411 284.652208 
L 212.912668 286.853517 
L 214.150925 288.376052 
L 215.389182 288.461319 
L 216.62744 287.040325 
L 217.865697 284.034838 
L 219.103954 279.66606 
L 222.818726 264.733632 
L 225.29524 256.006215 
L 226.533498 252.354551 
L 227.771755 249.635297 
L 229.010012 248.221294 
L 230.24827 248.129166 
L 231.486527 249.225065 
L 232.724784 251.283758 
L 233.963041 253.705964 
L 235.201299 255.573872 
L 236.439556 256.118673 
L 237.677813 255.034068 
L 238.91607 252.752586 
L 240.154328 250.760598 
L 241.392585 250.978588 
L 242.630842 254.166863 
L 243.8691 259.096485 
L 245.107357 263.452859 
L 246.345614 265.307819 
L 247.583871 263.801955 
L 248.822129 259.182169 
L 251.298643 246.176343 
L 252.5369 241.763101 
L 253.775158 241.45686 
L 255.013415 245.990926 
L 257.489929 261.429436 
L 258.728187 267.103301 
L 259.966444 270.274943 
L 261.204701 271.742984 
L 263.681216 273.265659 
L 264.919473 274.383125 
L 266.15773 276.197331 
L 268.634245 280.745764 
L 269.872502 281.887129 
L 271.110759 281.448007 
L 273.587274 278.030153 
L 274.825531 277.503961 
L 276.063788 278.615508 
L 278.540303 282.951925 
L 279.77856 282.983089 
L 281.016818 279.924736 
L 283.493332 269.518697 
L 284.731589 265.106424 
L 287.208104 257.389075 
L 290.922876 244.370847 
L 292.161133 241.351489 
L 294.637647 237.102645 
L 297.114162 232.754648 
L 298.352419 229.706005 
L 299.590677 225.33238 
L 302.067191 215.040967 
L 303.305448 211.532891 
L 304.543706 209.885447 
L 305.781963 209.93712 
L 307.02022 211.217643 
L 308.258477 213.0321 
L 309.496735 214.415888 
L 310.734992 214.352935 
L 311.973249 212.465602 
L 313.211506 209.19609 
L 315.688021 200.791478 
L 319.402793 187.667177 
L 320.64105 184.59796 
L 321.879307 184.393412 
L 323.117565 187.290359 
L 325.594079 197.250985 
L 326.832336 200.969702 
L 328.070594 202.220463 
L 329.308851 201.193806 
L 330.547108 199.366607 
L 331.785366 198.578764 
L 333.023623 199.891541 
L 334.26188 203.239053 
L 336.738395 211.979655 
L 337.976652 214.565874 
L 339.214909 214.458202 
L 340.453166 212.090813 
L 341.691424 209.449352 
L 342.929681 208.176324 
L 345.406195 207.793226 
L 346.644453 206.83324 
L 347.88271 205.553359 
L 349.120967 204.729631 
L 350.359225 204.967172 
L 351.597482 206.06128 
L 352.835739 206.732227 
L 354.073996 205.630194 
L 355.312254 202.232304 
L 357.788768 191.196831 
L 359.027025 187.867563 
L 360.265283 189.515491 
L 361.50354 196.703936 
L 365.218312 228.484041 
L 366.456569 234.096669 
L 367.694826 236.150784 
L 370.171341 236.539958 
L 371.409598 237.719277 
L 373.886113 241.166726 
L 375.12437 242.078213 
L 376.362627 242.103888 
L 377.600884 241.523316 
L 380.077399 239.874238 
L 382.553913 238.962738 
L 383.792171 237.927036 
L 385.030428 235.868689 
L 386.268685 232.546843 
L 388.7452 223.531504 
L 389.983457 219.879753 
L 391.221714 218.239416 
L 392.459972 218.736982 
L 393.698229 220.672398 
L 394.936486 223.483519 
L 396.174743 227.19196 
L 397.413001 231.980397 
L 399.889515 242.592041 
L 401.127772 246.225356 
L 402.36603 248.120078 
L 403.604287 248.784424 
L 406.080802 249.066482 
L 411.033831 250.733821 
L 412.272088 250.956991 
L 413.510345 251.031846 
L 414.748602 250.734567 
L 415.98686 250.070042 
L 417.225117 249.240204 
L 418.463374 248.123766 
L 419.701632 246.648396 
L 420.939889 245.38949 
L 422.178146 245.164765 
L 423.416403 246.24034 
L 425.892918 250.270804 
L 427.131175 251.687773 
L 428.369432 251.646234 
L 429.60769 249.796817 
L 430.845947 246.512768 
L 432.084204 242.771562 
L 433.322461 239.779281 
L 434.560719 238.200453 
L 435.798976 237.680843 
L 438.275491 237.228907 
L 439.513748 236.750715 
L 440.752005 235.571949 
L 441.990262 233.278996 
L 443.22852 230.363666 
L 444.466777 228.463467 
L 445.705034 229.215039 
L 446.943291 232.535345 
L 448.181549 236.481325 
L 449.419806 239.207385 
L 450.658063 240.584946 
L 451.89632 241.70817 
L 453.134578 243.814773 
L 454.372835 247.609223 
L 455.611092 252.413122 
L 456.84935 256.239332 
L 458.087607 257.424891 
L 459.325864 255.858133 
L 463.040636 246.476465 
L 464.278893 244.302673 
L 465.51715 242.644094 
L 466.755408 241.708375 
L 467.993665 242.034029 
L 469.231922 243.976944 
L 471.708437 249.8437 
L 472.946694 251.289106 
L 474.184951 251.078965 
L 475.423209 250.084296 
L 476.661466 249.618802 
L 477.899723 250.456348 
L 479.13798 252.462614 
L 480.376238 254.933824 
L 481.614495 257.01978 
L 482.852752 257.840605 
L 484.091009 256.639568 
L 485.329267 253.248376 
L 486.567524 248.694707 
L 487.805781 245.004047 
L 489.044038 243.83513 
L 490.282296 245.687511 
L 491.520553 250.48084 
L 492.75881 257.748112 
L 493.997068 265.877883 
L 495.235325 272.435545 
L 496.473582 275.937537 
L 497.711839 276.564533 
L 498.950097 275.121299 
L 500.188354 272.31319 
L 502.664868 265.658147 
L 503.903126 263.464073 
L 505.141383 263.112951 
L 506.37964 264.672305 
L 507.617897 267.109518 
L 508.856155 269.27857 
L 511.332669 272.865781 
L 512.570927 274.812331 
L 513.809184 276.447672 
L 515.047441 277.442678 
L 516.285698 277.464998 
L 517.523956 276.235232 
L 518.762213 274.281268 
L 520.00047 272.887088 
L 521.238727 272.719514 
L 522.476985 272.979498 
L 523.715242 272.501165 
L 524.953499 271.033699 
L 527.430014 266.976555 
L 528.668271 265.643453 
L 529.906528 265.27208 
L 532.383043 265.635439 
L 533.6213 265.593381 
L 534.859557 265.336862 
L 536.097815 264.938898 
L 537.336072 264.762274 
L 538.574329 265.407613 
L 541.050844 268.461497 
L 542.289101 268.73664 
L 543.527358 267.459281 
L 544.765616 265.632021 
L 546.003873 264.814617 
L 547.24213 265.871957 
L 548.480387 268.464867 
L 549.718645 271.352288 
L 550.956902 273.028159 
L 552.195159 272.578133 
L 553.433416 270.034354 
L 554.671674 265.986394 
L 555.909931 261.3375 
L 557.148188 257.245438 
L 558.386445 254.578507 
L 560.86296 251.58372 
L 563.339475 247.647238 
L 564.577732 246.950067 
L 565.815989 247.929898 
L 567.054246 249.782405 
L 568.292504 250.823147 
L 569.530761 250.214302 
L 570.769018 248.422096 
L 572.007275 245.803921 
L 573.245533 242.134582 
L 575.722047 232.834367 
L 576.960304 229.012324 
L 578.198562 226.389881 
L 580.675076 222.61191 
L 581.913334 220.922434 
L 583.151591 219.516848 
L 584.389848 218.480573 
L 585.628105 218.181815 
L 586.866363 218.977087 
L 589.342877 222.403842 
L 590.581134 223.168333 
L 591.819392 222.694643 
L 593.057649 221.950896 
L 594.295906 222.475043 
L 595.534163 225.046454 
L 598.010678 232.624664 
L 599.248935 234.985461 
L 600.487193 235.957193 
L 601.72545 236.387701 
L 602.963707 237.12497 
L 604.201964 238.395538 
L 605.440222 240.150725 
L 607.916736 244.535447 
L 609.154993 246.172342 
L 610.393251 247.011575 
L 614.108023 248.319286 
L 615.34628 247.628493 
L 616.584537 245.426959 
L 617.822794 242.42675 
L 619.061052 240.129512 
L 620.299309 239.653887 
L 621.537566 241.016316 
L 624.014081 245.978194 
L 625.252338 247.71997 
L 626.490595 247.72363 
L 627.728852 245.614178 
L 628.96711 242.303815 
L 630.205367 239.405182 
L 631.443624 237.691964 
L 632.681882 236.599567 
L 633.920139 235.174067 
L 636.396653 231.254618 
L 637.634911 230.30289 
L 638.873168 230.562157 
L 640.111425 232.020826 
L 641.349682 234.584927 
L 642.58794 237.632375 
L 643.826197 240.278663 
L 645.064454 242.067269 
L 646.302711 243.106367 
L 647.540969 243.832058 
L 648.779226 244.894318 
L 650.017483 246.984821 
L 652.493998 253.079387 
L 653.732255 254.717057 
L 654.970512 254.300022 
L 656.20877 251.762026 
L 658.685284 243.518931 
L 659.923541 240.561018 
L 661.161799 239.285782 
L 663.638313 238.781517 
L 664.87657 238.072868 
L 666.114828 236.90322 
L 668.591342 233.829328 
L 669.8296 232.330406 
L 671.067857 231.415884 
L 672.306114 231.366175 
L 673.544371 231.743881 
L 674.782629 231.87644 
L 676.020886 231.447913 
L 677.259143 230.261641 
L 678.4974 228.290985 
L 679.735658 225.782322 
L 682.212172 220.450002 
L 683.450429 218.636631 
L 684.688687 217.728439 
L 685.926944 217.634078 
L 688.403459 218.758655 
L 690.879973 218.582839 
L 692.11823 219.353401 
L 693.356488 220.971661 
L 694.594745 222.317684 
L 695.833002 222.367703 
L 697.071259 220.618713 
L 698.309517 217.007363 
L 702.024289 202.107777 
L 703.262546 200.18236 
L 704.500803 201.672621 
L 705.73906 206.048347 
L 706.977318 211.361431 
L 708.215575 215.462135 
L 709.453832 217.539258 
L 710.692089 218.002628 
L 711.930347 217.103006 
L 713.168604 214.837079 
L 716.883376 205.35424 
L 718.121633 202.09717 
L 719.35989 199.473429 
L 720.598148 198.046974 
L 721.836405 197.656111 
L 723.074662 197.886654 
L 724.312919 198.538668 
L 725.551177 199.705779 
L 726.789434 201.822512 
L 729.265948 208.462962 
L 730.504206 210.219129 
L 731.742463 209.112061 
L 732.98072 204.998936 
L 734.218977 198.497211 
L 735.457235 191.301168 
L 736.695492 186.048346 
L 737.933749 184.328048 
L 739.172007 185.161078 
L 740.410264 186.265546 
L 741.648521 186.494072 
L 742.886778 186.569963 
L 744.125036 187.770765 
L 745.363293 190.581255 
L 746.60155 194.64867 
L 749.078065 204.201675 
L 750.316322 208.014515 
L 751.554579 209.977291 
L 752.792836 210.061432 
L 754.031094 208.746521 
L 755.269351 206.15845 
L 756.507608 202.364526 
L 757.745866 198.202699 
L 761.460637 187.3887 
L 762.698895 184.107945 
L 763.937152 182.258082 
L 765.175409 181.990263 
L 766.413666 182.368222 
L 767.651924 182.534785 
L 768.890181 182.567661 
L 770.128438 183.168468 
L 771.366695 185.155516 
L 772.604953 188.989587 
L 773.84321 194.017432 
L 775.081467 198.492365 
L 776.319725 200.764594 
L 777.557982 200.374912 
L 778.796239 198.20667 
L 780.034496 195.751572 
L 781.272754 193.986417 
L 782.511011 192.914202 
L 783.749268 192.35646 
L 784.987525 192.77027 
L 786.225783 194.779226 
L 787.46404 198.205462 
L 788.702297 201.994952 
L 789.940554 204.935342 
L 791.178812 206.095592 
L 792.417069 205.042849 
L 793.655326 202.338361 
L 794.893584 199.313973 
L 796.131841 196.967864 
L 797.370098 195.543466 
L 798.608355 195.135987 
L 799.846613 196.169658 
L 801.08487 198.817167 
L 802.323127 202.04709 
L 803.561384 203.995562 
L 804.799642 203.575859 
L 806.037899 201.34414 
L 808.514414 195.573947 
L 810.990928 188.893996 
L 812.229185 187.096221 
L 813.467443 188.261304 
L 814.7057 192.54223 
L 817.182214 204.301919 
L 818.420472 208.208117 
L 819.658729 209.953977 
L 820.896986 210.169547 
L 822.135243 209.62287 
L 823.373501 208.684415 
L 824.611758 207.423842 
L 825.850015 205.516492 
L 827.088273 202.24418 
L 828.32653 197.297572 
L 829.564787 191.542605 
L 830.803044 186.745651 
L 832.041302 184.513402 
L 833.279559 185.31316 
L 834.517816 188.500704 
L 835.756073 193.377461 
L 838.232588 204.665768 
L 839.470845 208.117974 
L 840.709102 209.943068 
L 841.94736 211.175581 
L 843.185617 211.873143 
L 844.423874 211.371366 
L 845.662132 209.291998 
L 848.138646 202.77855 
L 849.376903 201.319386 
L 850.615161 202.044395 
L 853.091675 205.631861 
L 854.329932 206.723056 
L 855.56819 207.01877 
L 856.806447 206.454158 
L 858.044704 204.781643 
L 859.282961 201.927265 
L 860.521219 198.567303 
L 861.759476 195.746967 
L 862.997733 193.805925 
L 864.235991 192.218435 
L 865.474248 190.236418 
L 866.712505 187.46769 
L 867.950762 184.366451 
L 869.18902 181.864461 
L 870.427277 180.548677 
L 871.665534 180.817418 
L 872.903791 182.988812 
L 875.380306 189.937257 
L 876.618563 192.067073 
L 877.85682 192.980878 
L 879.095078 193.617893 
L 880.333335 194.478208 
L 881.571592 194.942322 
L 882.80985 194.048861 
L 884.048107 191.854537 
L 885.286364 189.953516 
L 886.524621 190.410106 
L 887.762879 194.098569 
L 889.001136 200.231467 
L 890.239393 206.947806 
L 891.47765 211.900653 
L 892.715908 213.103143 
L 893.954165 210.066073 
L 897.668937 192.95943 
L 898.907194 190.63725 
L 900.145451 191.284582 
L 901.383709 194.135445 
L 902.621966 197.352358 
L 903.860223 199.234639 
L 905.09848 199.653402 
L 906.336738 200.279692 
L 907.574995 202.852119 
L 910.051509 211.637515 
L 911.289767 213.73903 
L 912.528024 212.656586 
L 913.766281 209.248048 
L 915.004539 205.353273 
L 916.242796 202.70128 
L 917.481053 201.962616 
L 918.71931 202.610078 
L 919.957568 203.775779 
L 921.195825 204.721522 
L 922.434082 204.882971 
L 923.672339 203.853142 
L 924.910597 201.151864 
L 926.148854 196.62762 
L 927.387111 191.231051 
L 928.625368 186.651757 
L 929.863626 184.029964 
L 931.101883 183.39078 
L 932.34014 184.353008 
L 933.578398 186.861076 
L 934.816655 190.782291 
L 936.054912 195.148514 
L 937.293169 198.277039 
L 938.531427 198.585019 
L 939.769684 195.562879 
L 942.246198 184.887364 
L 943.484456 180.508702 
L 944.722713 177.884914 
L 945.96097 177.286332 
L 948.437485 178.910697 
L 949.675742 178.243348 
L 950.913999 175.760136 
L 952.152257 172.582452 
L 953.390514 170.340976 
L 954.628771 169.814391 
L 955.867028 170.543932 
L 957.105286 171.60743 
L 958.343543 172.491 
L 959.5818 173.002387 
L 960.820057 172.846089 
L 962.058315 171.760864 
L 963.296572 169.815182 
L 964.534829 167.500942 
L 965.773086 165.512447 
L 967.011344 164.065952 
L 968.249601 162.927035 
L 969.487858 162.288232 
L 970.726116 162.508804 
L 971.964373 163.042149 
L 973.20263 162.689067 
L 974.440887 161.200112 
L 975.679145 159.899419 
L 976.917402 159.966767 
L 978.155659 161.015361 
L 979.393916 162.275226 
L 980.632174 164.015332 
L 981.870431 166.996935 
L 983.108688 171.283505 
L 985.585203 180.835497 
L 986.82346 185.019113 
L 988.061717 187.44657 
L 989.299975 186.207984 
L 990.538232 180.817947 
L 991.776489 173.270985 
L 993.014746 166.64907 
L 994.253004 163.051453 
L 995.491261 162.495172 
L 996.729518 163.222797 
L 997.967775 162.796968 
L 999.206033 159.333071 
L 1000.44429 152.785787 
L 1001.682547 145.460369 
L 1002.920805 140.651074 
L 1004.159062 140.2267 
L 1005.397319 143.488491 
L 1006.635576 148.060394 
L 1007.873834 151.773585 
L 1009.112091 154.138796 
L 1010.350348 155.860338 
L 1011.588605 157.014394 
L 1012.826863 156.705985 
L 1014.06512 154.489973 
L 1016.541634 147.431337 
L 1017.779892 144.650121 
L 1019.018149 143.361868 
L 1020.256406 144.080654 
L 1021.494664 146.935705 
L 1023.971178 155.092864 
L 1025.209435 157.608239 
L 1026.447693 158.550437 
L 1027.68595 158.868051 
L 1028.924207 159.502546 
L 1030.162464 160.377257 
L 1031.400722 160.615536 
L 1032.638979 159.859447 
L 1033.877236 158.798107 
L 1035.115493 158.244216 
L 1036.353751 158.565386 
L 1037.592008 159.948736 
L 1038.830265 162.391697 
L 1040.068523 165.244825 
L 1041.30678 166.938799 
L 1042.545037 165.617458 
L 1043.783294 160.542235 
L 1045.021552 152.584573 
L 1047.498066 133.998778 
L 1048.736323 126.339485 
L 1049.974581 122.077525 
L 1051.212838 122.3652 
L 1052.451095 126.251317 
L 1053.689352 131.146228 
L 1054.92761 134.951026 
L 1056.165867 136.907176 
L 1057.404124 137.0789 
L 1058.642382 135.890717 
L 1059.880639 133.626145 
L 1061.118896 130.253375 
L 1062.357153 126.244608 
L 1063.595411 123.064452 
L 1064.833668 122.275156 
L 1066.071925 124.42643 
L 1067.310182 128.79715 
L 1068.54844 133.845459 
L 1069.786697 138.001865 
L 1071.024954 140.502042 
L 1072.263211 141.605976 
L 1073.501469 142.068887 
L 1074.739726 142.746556 
L 1075.977983 144.439574 
L 1077.216241 147.520417 
L 1079.692755 155.950643 
L 1080.931012 159.482696 
L 1082.16927 161.869274 
L 1083.407527 162.946596 
L 1084.645784 162.697194 
L 1085.884041 161.76923 
L 1087.122299 161.305035 
L 1088.360556 162.19298 
L 1089.598813 164.475846 
L 1092.075328 170.289078 
L 1093.313585 172.3816 
L 1094.551842 172.916373 
L 1095.7901 171.564799 
L 1098.266614 166.056538 
L 1099.504871 164.276596 
L 1100.743129 163.679637 
L 1101.981386 163.555518 
L 1103.219643 163.845527 
L 1104.4579 165.504474 
L 1105.696158 169.102126 
L 1106.934415 174.209632 
L 1108.172672 179.889079 
L 1109.41093 184.840551 
L 1110.649187 187.646723 
L 1111.887444 187.340164 
L 1113.125701 183.767558 
L 1114.363959 177.650176 
L 1115.602216 170.343318 
L 1116.840473 163.704427 
L 1118.07873 159.570199 
L 1119.316988 158.537506 
L 1120.555245 159.7688 
L 1123.031759 164.53643 
L 1124.270017 166.23215 
L 1125.508274 166.524649 
L 1126.746531 165.66109 
L 1127.984789 164.562447 
L 1129.223046 164.081497 
L 1130.461303 164.606673 
L 1132.937818 167.051655 
L 1134.176075 167.663321 
L 1135.414332 167.867934 
L 1136.652589 167.871732 
L 1137.890847 167.308941 
L 1139.129104 165.592567 
L 1140.367361 162.660131 
L 1141.605618 159.196309 
L 1142.843876 156.153327 
L 1144.082133 154.263843 
L 1145.32039 153.958178 
L 1146.558648 155.218121 
L 1149.035162 159.550857 
L 1150.273419 161.972329 
L 1153.988191 171.185957 
L 1155.226448 172.470074 
L 1156.464706 172.487473 
L 1158.94122 170.901289 
L 1160.179477 171.585837 
L 1161.417735 174.507989 
L 1162.655992 179.262573 
L 1165.132507 190.407498 
L 1166.370764 194.879243 
L 1167.609021 196.932268 
L 1168.847278 195.840011 
L 1170.085536 191.948345 
L 1172.56205 180.887333 
L 1173.800307 177.41052 
L 1175.038565 177.228513 
L 1177.515079 182.181751 
L 1178.753337 183.236041 
L 1179.991594 183.03812 
L 1181.229851 183.035967 
L 1182.468108 184.549865 
L 1184.944623 191.109341 
L 1186.18288 192.403855 
L 1187.421137 190.459826 
L 1188.659395 185.737043 
L 1191.135909 174.061781 
L 1192.374166 169.678976 
L 1193.612424 166.260458 
L 1194.850681 163.532926 
L 1196.088938 162.218019 
L 1197.327196 162.958271 
L 1198.565453 165.232776 
L 1202.280225 173.878594 
L 1203.518482 176.315514 
L 1204.756739 178.028145 
L 1205.994996 178.806258 
L 1207.233254 178.267146 
L 1208.471511 176.342548 
L 1209.709768 173.941688 
L 1210.948025 172.183017 
L 1213.42454 170.04393 
L 1214.662797 168.333936 
L 1217.139312 163.384513 
L 1218.377569 161.79648 
L 1219.615826 162.234239 
L 1220.854084 164.58379 
L 1222.092341 167.808998 
L 1223.330598 171.3973 
L 1224.568855 175.604358 
L 1227.04537 185.118462 
L 1228.283627 188.272935 
L 1229.521884 188.859298 
L 1230.760142 186.974937 
L 1231.998399 183.297307 
L 1233.236656 178.176342 
L 1235.713171 166.138653 
L 1236.951428 160.968035 
L 1238.189685 156.278187 
L 1239.427943 152.143515 
L 1240.6662 149.702494 
L 1241.904457 150.21115 
L 1243.142714 154.201585 
L 1244.380972 161.107668 
L 1245.619229 168.994637 
L 1246.857486 175.107115 
L 1248.095743 177.577947 
L 1249.334001 176.819076 
L 1250.572258 174.905039 
L 1251.810515 173.68119 
L 1253.048773 173.813687 
L 1254.28703 175.180201 
L 1255.525287 177.013896 
L 1256.763544 177.710963 
L 1258.001802 175.676034 
L 1259.240059 170.667674 
L 1260.478316 163.704378 
L 1261.716573 155.507424 
L 1262.954831 145.648034 
L 1264.193088 133.519839 
L 1266.669603 105.584631 
L 1267.90786 93.343669 
L 1269.146117 85.100968 
L 1270.384374 83.083949 
L 1271.622632 87.994424 
L 1275.337403 116.18387 
L 1276.575661 122.74407 
L 1277.813918 128.322502 
L 1279.052175 133.08697 
L 1280.290432 136.38538 
L 1281.52869 137.679152 
L 1282.766947 136.752886 
L 1284.005204 132.99 
L 1285.243462 126.10706 
L 1286.481719 117.945552 
L 1287.719976 112.010979 
L 1288.958233 110.851298 
L 1290.196491 114.657951 
L 1291.434748 121.939286 
L 1292.673005 130.105783 
L 1293.911262 135.964571 
L 1295.14952 137.477181 
L 1296.387777 135.286473 
L 1297.626034 132.112072 
L 1298.864291 130.857482 
L 1300.102549 133.091585 
L 1301.340806 138.50051 
L 1305.055578 159.548666 
L 1306.293835 162.408233 
L 1307.532092 160.543276 
L 1310.008607 150.829675 
L 1311.246864 147.500348 
L 1312.485121 145.508308 
L 1313.723379 144.022939 
L 1314.961636 141.993119 
L 1316.199893 139.00298 
L 1317.43815 136.402144 
L 1318.676408 136.610292 
L 1319.914665 140.799369 
L 1321.152922 147.396709 
L 1322.39118 152.901034 
L 1323.629437 154.193535 
L 1324.867694 150.451782 
L 1327.344209 135.879221 
L 1328.582466 130.372448 
L 1329.820723 127.128603 
L 1332.297238 122.463787 
L 1333.535495 119.236978 
L 1334.773752 115.544791 
L 1336.012009 112.585649 
L 1337.250267 111.188872 
L 1338.488524 111.073303 
L 1339.726781 111.61165 
L 1340.965039 112.595362 
L 1342.203296 114.248393 
L 1343.441553 116.779639 
L 1344.67981 120.170556 
L 1347.156325 128.311977 
L 1348.394582 130.521018 
L 1349.632839 129.861404 
L 1350.871097 127.977537 
L 1352.109354 128.340412 
L 1353.347611 132.742766 
L 1354.585868 139.217327 
L 1355.824126 143.923603 
L 1357.062383 144.500914 
L 1358.30064 141.24246 
L 1359.538898 135.584786 
L 1360.777155 128.817958 
L 1362.015412 122.708497 
L 1363.253669 119.19118 
L 1364.491927 118.612686 
L 1365.730184 120.034484 
L 1366.968441 123.080247 
L 1368.206698 128.119425 
L 1369.444956 135.181348 
L 1371.92147 150.852237 
L 1373.159728 156.601287 
L 1374.397985 160.642461 
L 1375.636242 163.109178 
L 1376.874499 163.467215 
L 1378.112757 161.471524 
L 1380.589271 154.284264 
L 1381.827528 152.015418 
L 1383.065786 151.591775 
L 1384.304043 152.663558 
L 1385.5423 154.714509 
L 1388.018815 159.933112 
L 1389.257072 161.916975 
L 1390.495329 162.384269 
L 1391.733587 160.185259 
L 1392.971844 154.988293 
L 1394.210101 148.543988 
L 1395.448358 143.863898 
L 1396.686616 142.668124 
L 1397.924873 144.187477 
L 1399.16313 146.874331 
L 1401.639645 153.738267 
L 1402.877902 155.974845 
L 1404.116159 155.311005 
L 1405.354416 152.043305 
L 1409.069188 138.910096 
L 1410.307446 135.417698 
L 1411.545703 134.129734 
L 1412.78396 135.339078 
L 1414.022217 137.788323 
L 1415.260475 139.86934 
L 1416.498732 140.977303 
L 1417.736989 141.652939 
L 1418.975246 142.184466 
L 1420.213504 141.391711 
L 1421.451761 137.690472 
L 1423.928275 124.981273 
L 1425.166533 122.343669 
L 1426.40479 124.855149 
L 1428.881305 136.563965 
L 1430.119562 141.186919 
L 1432.596076 148.652918 
L 1433.834334 151.116291 
L 1435.072591 151.960654 
L 1436.310848 151.501343 
L 1437.549105 150.446513 
L 1438.787363 149.716643 
L 1441.263877 149.752752 
L 1443.740392 147.910247 
L 1444.978649 148.533424 
L 1446.216906 151.192112 
L 1448.693421 158.739517 
L 1449.931678 161.459952 
L 1451.169935 162.580832 
L 1452.408193 161.29869 
L 1453.64645 157.2319 
L 1454.884707 150.98296 
L 1457.361222 136.055038 
L 1458.599479 129.692177 
L 1459.837736 126.638935 
L 1461.075994 128.04366 
L 1462.314251 132.902513 
L 1466.029023 152.592995 
L 1467.26728 158.030062 
L 1468.505537 161.002453 
L 1469.743794 160.190491 
L 1470.982052 155.436214 
L 1474.696823 133.118417 
L 1475.935081 127.811504 
L 1477.173338 124.312568 
L 1478.411595 122.80771 
L 1479.649853 123.346114 
L 1480.88811 125.535704 
L 1482.126367 128.41649 
L 1483.364624 130.692362 
L 1484.602882 131.249344 
L 1485.841139 129.604204 
L 1488.317653 123.510474 
L 1490.794168 119.134041 
L 1492.032425 117.189185 
L 1493.270682 115.759384 
L 1494.50894 114.696838 
L 1495.747197 113.860673 
L 1496.985454 113.537584 
L 1498.223712 114.003134 
L 1499.461969 114.992267 
L 1500.700226 115.370681 
L 1501.938483 114.1594 
L 1503.176741 112.099807 
L 1504.414998 110.689305 
L 1509.368027 108.416522 
L 1510.606284 108.012192 
L 1511.844541 107.923405 
L 1514.321056 108.395152 
L 1515.559313 107.761272 
L 1516.797571 106.39947 
L 1518.035828 105.664863 
L 1519.274085 106.778611 
L 1520.512342 109.578146 
L 1521.7506 112.777473 
L 1522.988857 115.059811 
L 1525.465371 117.374439 
L 1526.703629 119.880465 
L 1527.941886 123.222306 
L 1529.180143 124.988645 
L 1530.4184 123.304737 
L 1531.656658 118.809784 
L 1534.133172 107.974078 
L 1535.37143 103.001318 
L 1536.609687 99.157288 
L 1537.847944 97.474034 
L 1539.086201 98.006639 
L 1540.324459 99.314377 
L 1541.562716 99.539902 
L 1542.800973 97.7418 
L 1544.03923 94.623768 
L 1545.277488 92.148894 
L 1546.515745 92.038379 
L 1547.754002 94.442169 
L 1548.99226 98.22844 
L 1552.707031 111.064792 
L 1553.945289 113.104113 
L 1555.183546 113.094876 
L 1556.421803 112.408029 
L 1557.66006 111.920135 
L 1558.898318 111.167413 
L 1560.136575 109.640306 
L 1562.613089 105.769559 
L 1565.089604 102.688473 
L 1566.327861 100.052224 
L 1567.566119 95.425851 
L 1571.28089 77.167214 
L 1572.519148 72.953132 
L 1573.757405 70.824215 
L 1574.995662 70.555136 
L 1576.233919 71.667061 
L 1577.472177 73.842345 
L 1578.710434 76.281295 
L 1579.948691 77.712956 
L 1581.186948 77.514602 
L 1582.425206 76.063999 
L 1583.663463 74.331725 
L 1584.90172 73.710455 
L 1586.139978 74.988373 
L 1587.378235 76.710641 
L 1588.616492 75.854874 
L 1589.854749 70.86265 
L 1592.331264 55.590381 
L 1593.569521 50.102496 
L 1594.807778 47.979282 
L 1596.046036 50.072673 
L 1597.284293 56.270262 
L 1599.760807 74.761729 
L 1602.237322 92.822516 
L 1603.475579 99.870145 
L 1604.713837 104.417669 
L 1605.952094 106.224163 
L 1607.190351 104.963199 
L 1608.428608 99.488653 
L 1609.666866 88.795791 
L 1610.905123 75.032927 
L 1612.14338 64.582337 
L 1613.381637 62.944728 
L 1614.619895 69.182594 
L 1615.858152 77.768876 
L 1617.096409 84.21192 
L 1618.334666 87.2238 
L 1619.572924 87.234508 
L 1620.811181 561.202423 
L 1622.049438 84.314607 
L 1623.287696 87.332022 
L 1624.525953 95.58447 
L 1625.76421 106.71493 
L 1627.002467 116.693756 
L 1628.240725 122.064598 
L 1629.478982 121.430227 
L 1630.717239 116.382699 
L 1631.955496 110.785923 
L 1633.193754 107.954223 
L 1634.432011 108.027895 
L 1635.670268 108.348299 
L 1636.908526 106.267903 
L 1638.146783 101.377238 
L 1639.38504 95.465941 
L 1640.623297 90.657466 
L 1641.861555 87.482137 
L 1643.099812 85.294073 
L 1644.338069 84.800248 
L 1645.576326 88.713549 
L 1646.814584 98.884846 
L 1648.052841 113.610711 
L 1648.052841 113.610711 
" style="fill:none;stroke:#008000;stroke-linecap:square;stroke-width:1.5;"/>
   </g>
   <g id="patch_3">
    <path d="M 50.14375 586.86358 
L 50.14375 22.318125 
" style="fill:none;stroke:#000000;stroke-linecap:square;stroke-linejoin:miter;stroke-width:0.8;"/>
   </g>
   <g id="patch_4">
    <path d="M 1724.14375 586.86358 
L 1724.14375 22.318125 
" style="fill:none;stroke:#000000;stroke-linecap:square;stroke-linejoin:miter;stroke-width:0.8;"/>
   </g>
   <g id="patch_5">
    <path d="M 50.14375 586.86358 
L 1724.14375 586.86358 
" style="fill:none;stroke:#000000;stroke-linecap:square;stroke-linejoin:miter;stroke-width:0.8;"/>
   </g>
   <g id="patch_6">
    <path d="M 50.14375 22.318125 
L 1724.14375 22.318125 
" style="fill:none;stroke:#000000;stroke-linecap:square;stroke-linejoin:miter;stroke-width:0.8;"/>
   </g>
   <g id="text_18">
    <!-- before binarisation -->
    <g transform="translate(830.545 16.318125)scale(0.12 -0.12)">
     <defs>
      <path d="M 3116 1747 
Q 3116 2381 2855 2742 
Q 2594 3103 2138 3103 
Q 1681 3103 1420 2742 
Q 1159 2381 1159 1747 
Q 1159 1113 1420 752 
Q 1681 391 2138 391 
Q 2594 391 2855 752 
Q 3116 1113 3116 1747 
z
M 1159 2969 
Q 1341 3281 1617 3432 
Q 1894 3584 2278 3584 
Q 2916 3584 3314 3078 
Q 3713 2572 3713 1747 
Q 3713 922 3314 415 
Q 2916 -91 2278 -91 
Q 1894 -91 1617 61 
Q 1341 213 1159 525 
L 1159 0 
L 581 0 
L 581 4863 
L 1159 4863 
L 1159 2969 
z
" id="DejaVuSans-62" transform="scale(0.015625)"/>
      <path d="M 1959 3097 
Q 1497 3097 1228 2736 
Q 959 2375 959 1747 
Q 959 1119 1226 758 
Q 1494 397 1959 397 
Q 2419 397 2687 759 
Q 2956 1122 2956 1747 
Q 2956 2369 2687 2733 
Q 2419 3097 1959 3097 
z
M 1959 3584 
Q 2709 3584 3137 3096 
Q 3566 2609 3566 1747 
Q 3566 888 3137 398 
Q 2709 -91 1959 -91 
Q 1206 -91 779 398 
Q 353 888 353 1747 
Q 353 2609 779 3096 
Q 1206 3584 1959 3584 
z
" id="DejaVuSans-6f" transform="scale(0.015625)"/>
      <path id="DejaVuSans-20" transform="scale(0.015625)"/>
      <path d="M 603 3500 
L 1178 3500 
L 1178 0 
L 603 0 
L 603 3500 
z
M 603 4863 
L 1178 4863 
L 1178 4134 
L 603 4134 
L 603 4863 
z
" id="DejaVuSans-69" transform="scale(0.015625)"/>
      <path d="M 3513 2113 
L 3513 0 
L 2938 0 
L 2938 2094 
Q 2938 2591 2744 2837 
Q 2550 3084 2163 3084 
Q 1697 3084 1428 2787 
Q 1159 2491 1159 1978 
L 1159 0 
L 581 0 
L 581 3500 
L 1159 3500 
L 1159 2956 
Q 1366 3272 1645 3428 
Q 1925 3584 2291 3584 
Q 2894 3584 3203 3211 
Q 3513 2838 3513 2113 
z
" id="DejaVuSans-6e" transform="scale(0.015625)"/>
      <path d="M 2834 3397 
L 2834 2853 
Q 2591 2978 2328 3040 
Q 2066 3103 1784 3103 
Q 1356 3103 1142 2972 
Q 928 2841 928 2578 
Q 928 2378 1081 2264 
Q 1234 2150 1697 2047 
L 1894 2003 
Q 2506 1872 2764 1633 
Q 3022 1394 3022 966 
Q 3022 478 2636 193 
Q 2250 -91 1575 -91 
Q 1294 -91 989 -36 
Q 684 19 347 128 
L 347 722 
Q 666 556 975 473 
Q 1284 391 1588 391 
Q 1994 391 2212 530 
Q 2431 669 2431 922 
Q 2431 1156 2273 1281 
Q 2116 1406 1581 1522 
L 1381 1569 
Q 847 1681 609 1914 
Q 372 2147 372 2553 
Q 372 3047 722 3315 
Q 1072 3584 1716 3584 
Q 2034 3584 2315 3537 
Q 2597 3491 2834 3397 
z
" id="DejaVuSans-73" transform="scale(0.015625)"/>
      <path d="M 1172 4494 
L 1172 3500 
L 2356 3500 
L 2356 3053 
L 1172 3053 
L 1172 1153 
Q 1172 725 1289 603 
Q 1406 481 1766 481 
L 2356 481 
L 2356 0 
L 1766 0 
Q 1100 0 847 248 
Q 594 497 594 1153 
L 594 3053 
L 172 3053 
L 172 3500 
L 594 3500 
L 594 4494 
L 1172 4494 
z
" id="DejaVuSans-74" transform="scale(0.015625)"/>
     </defs>
     <use xlink:href="#DejaVuSans-62"/>
     <use x="63.476562" xlink:href="#DejaVuSans-65"/>
     <use x="125" xlink:href="#DejaVuSans-66"/>
     <use x="160.205078" xlink:href="#DejaVuSans-6f"/>
     <use x="221.386719" xlink:href="#DejaVuSans-72"/>
     <use x="260.25" xlink:href="#DejaVuSans-65"/>
     <use x="321.773438" xlink:href="#DejaVuSans-20"/>
     <use x="353.560547" xlink:href="#DejaVuSans-62"/>
     <use x="417.037109" xlink:href="#DejaVuSans-69"/>
     <use x="444.820312" xlink:href="#DejaVuSans-6e"/>
     <use x="508.199219" xlink:href="#DejaVuSans-61"/>
     <use x="569.478516" xlink:href="#DejaVuSans-72"/>
     <use x="610.591797" xlink:href="#DejaVuSans-69"/>
     <use x="638.375" xlink:href="#DejaVuSans-73"/>
     <use x="690.474609" xlink:href="#DejaVuSans-61"/>
     <use x="751.753906" xlink:href="#DejaVuSans-74"/>
     <use x="790.962891" xlink:href="#DejaVuSans-69"/>
     <use x="818.746094" xlink:href="#DejaVuSans-6f"/>
     <use x="879.927734" xlink:href="#DejaVuSans-6e"/>
    </g>
   </g>
  </g>
  <g id="axes_2">
   <g id="patch_7">
    <path d="M 50.14375 1264.318125 
L 1724.14375 1264.318125 
L 1724.14375 699.77267 
L 50.14375 699.77267 
z
" style="fill:#ffffff;"/>
   </g>
   <g id="matplotlib.axis_3">
    <g id="xtick_8">
     <g id="line2d_17">
      <g>
       <use style="stroke:#000000;stroke-width:0.8;" x="126.234659" xlink:href="#me8698daa3c" y="1264.318125"/>
      </g>
     </g>
     <g id="text_19">
      <!-- 0 -->
      <g transform="translate(123.053409 1278.916563)scale(0.1 -0.1)">
       <use xlink:href="#DejaVuSans-30"/>
      </g>
     </g>
    </g>
    <g id="xtick_9">
     <g id="line2d_18">
      <g>
       <use style="stroke:#000000;stroke-width:0.8;" x="373.886113" xlink:href="#me8698daa3c" y="1264.318125"/>
      </g>
     </g>
     <g id="text_20">
      <!-- 200 -->
      <g transform="translate(364.342363 1278.916563)scale(0.1 -0.1)">
       <use xlink:href="#DejaVuSans-32"/>
       <use x="63.623047" xlink:href="#DejaVuSans-30"/>
       <use x="127.246094" xlink:href="#DejaVuSans-30"/>
      </g>
     </g>
    </g>
    <g id="xtick_10">
     <g id="line2d_19">
      <g>
       <use style="stroke:#000000;stroke-width:0.8;" x="621.537566" xlink:href="#me8698daa3c" y="1264.318125"/>
      </g>
     </g>
     <g id="text_21">
      <!-- 400 -->
      <g transform="translate(611.993816 1278.916563)scale(0.1 -0.1)">
       <use xlink:href="#DejaVuSans-34"/>
       <use x="63.623047" xlink:href="#DejaVuSans-30"/>
       <use x="127.246094" xlink:href="#DejaVuSans-30"/>
      </g>
     </g>
    </g>
    <g id="xtick_11">
     <g id="line2d_20">
      <g>
       <use style="stroke:#000000;stroke-width:0.8;" x="869.18902" xlink:href="#me8698daa3c" y="1264.318125"/>
      </g>
     </g>
     <g id="text_22">
      <!-- 600 -->
      <g transform="translate(859.64527 1278.916563)scale(0.1 -0.1)">
       <use xlink:href="#DejaVuSans-36"/>
       <use x="63.623047" xlink:href="#DejaVuSans-30"/>
       <use x="127.246094" xlink:href="#DejaVuSans-30"/>
      </g>
     </g>
    </g>
    <g id="xtick_12">
     <g id="line2d_21">
      <g>
       <use style="stroke:#000000;stroke-width:0.8;" x="1116.840473" xlink:href="#me8698daa3c" y="1264.318125"/>
      </g>
     </g>
     <g id="text_23">
      <!-- 800 -->
      <g transform="translate(1107.296723 1278.916563)scale(0.1 -0.1)">
       <use xlink:href="#DejaVuSans-38"/>
       <use x="63.623047" xlink:href="#DejaVuSans-30"/>
       <use x="127.246094" xlink:href="#DejaVuSans-30"/>
      </g>
     </g>
    </g>
    <g id="xtick_13">
     <g id="line2d_22">
      <g>
       <use style="stroke:#000000;stroke-width:0.8;" x="1364.491927" xlink:href="#me8698daa3c" y="1264.318125"/>
      </g>
     </g>
     <g id="text_24">
      <!-- 1000 -->
      <g transform="translate(1351.766927 1278.916563)scale(0.1 -0.1)">
       <use xlink:href="#DejaVuSans-31"/>
       <use x="63.623047" xlink:href="#DejaVuSans-30"/>
       <use x="127.246094" xlink:href="#DejaVuSans-30"/>
       <use x="190.869141" xlink:href="#DejaVuSans-30"/>
      </g>
     </g>
    </g>
    <g id="xtick_14">
     <g id="line2d_23">
      <g>
       <use style="stroke:#000000;stroke-width:0.8;" x="1612.14338" xlink:href="#me8698daa3c" y="1264.318125"/>
      </g>
     </g>
     <g id="text_25">
      <!-- 1200 -->
      <g transform="translate(1599.41838 1278.916563)scale(0.1 -0.1)">
       <use xlink:href="#DejaVuSans-31"/>
       <use x="63.623047" xlink:href="#DejaVuSans-32"/>
       <use x="127.246094" xlink:href="#DejaVuSans-30"/>
       <use x="190.869141" xlink:href="#DejaVuSans-30"/>
      </g>
     </g>
    </g>
    <g id="text_26">
     <!-- frame -->
     <g transform="translate(872.317187 1292.594688)scale(0.1 -0.1)">
      <use xlink:href="#DejaVuSans-66"/>
      <use x="35.205078" xlink:href="#DejaVuSans-72"/>
      <use x="76.318359" xlink:href="#DejaVuSans-61"/>
      <use x="137.597656" xlink:href="#DejaVuSans-6d"/>
      <use x="235.009766" xlink:href="#DejaVuSans-65"/>
     </g>
    </g>
   </g>
   <g id="matplotlib.axis_4">
    <g id="ytick_9">
     <g id="line2d_24">
      <g>
       <use style="stroke:#000000;stroke-width:0.8;" x="50.14375" xlink:href="#m74acc89869" y="1238.656968"/>
      </g>
     </g>
     <g id="text_27">
      <!-- 0.0 -->
      <g transform="translate(27.240625 1242.456187)scale(0.1 -0.1)">
       <use xlink:href="#DejaVuSans-30"/>
       <use x="63.623047" xlink:href="#DejaVuSans-2e"/>
       <use x="95.410156" xlink:href="#DejaVuSans-30"/>
      </g>
     </g>
    </g>
    <g id="ytick_10">
     <g id="line2d_25">
      <g>
       <use style="stroke:#000000;stroke-width:0.8;" x="50.14375" xlink:href="#m74acc89869" y="1136.01234"/>
      </g>
     </g>
     <g id="text_28">
      <!-- 0.2 -->
      <g transform="translate(27.240625 1139.811559)scale(0.1 -0.1)">
       <use xlink:href="#DejaVuSans-30"/>
       <use x="63.623047" xlink:href="#DejaVuSans-2e"/>
       <use x="95.410156" xlink:href="#DejaVuSans-32"/>
      </g>
     </g>
    </g>
    <g id="ytick_11">
     <g id="line2d_26">
      <g>
       <use style="stroke:#000000;stroke-width:0.8;" x="50.14375" xlink:href="#m74acc89869" y="1033.367712"/>
      </g>
     </g>
     <g id="text_29">
      <!-- 0.4 -->
      <g transform="translate(27.240625 1037.166931)scale(0.1 -0.1)">
       <use xlink:href="#DejaVuSans-30"/>
       <use x="63.623047" xlink:href="#DejaVuSans-2e"/>
       <use x="95.410156" xlink:href="#DejaVuSans-34"/>
      </g>
     </g>
    </g>
    <g id="ytick_12">
     <g id="line2d_27">
      <g>
       <use style="stroke:#000000;stroke-width:0.8;" x="50.14375" xlink:href="#m74acc89869" y="930.723084"/>
      </g>
     </g>
     <g id="text_30">
      <!-- 0.6 -->
      <g transform="translate(27.240625 934.522302)scale(0.1 -0.1)">
       <use xlink:href="#DejaVuSans-30"/>
       <use x="63.623047" xlink:href="#DejaVuSans-2e"/>
       <use x="95.410156" xlink:href="#DejaVuSans-36"/>
      </g>
     </g>
    </g>
    <g id="ytick_13">
     <g id="line2d_28">
      <g>
       <use style="stroke:#000000;stroke-width:0.8;" x="50.14375" xlink:href="#m74acc89869" y="828.078456"/>
      </g>
     </g>
     <g id="text_31">
      <!-- 0.8 -->
      <g transform="translate(27.240625 831.877674)scale(0.1 -0.1)">
       <use xlink:href="#DejaVuSans-30"/>
       <use x="63.623047" xlink:href="#DejaVuSans-2e"/>
       <use x="95.410156" xlink:href="#DejaVuSans-38"/>
      </g>
     </g>
    </g>
    <g id="ytick_14">
     <g id="line2d_29">
      <g>
       <use style="stroke:#000000;stroke-width:0.8;" x="50.14375" xlink:href="#m74acc89869" y="725.433827"/>
      </g>
     </g>
     <g id="text_32">
      <!-- 1.0 -->
      <g transform="translate(27.240625 729.233046)scale(0.1 -0.1)">
       <use xlink:href="#DejaVuSans-31"/>
       <use x="63.623047" xlink:href="#DejaVuSans-2e"/>
       <use x="95.410156" xlink:href="#DejaVuSans-30"/>
      </g>
     </g>
    </g>
    <g id="text_33">
     <!-- GCaMP -->
     <g transform="translate(21.160938 999.803991)rotate(-90)scale(0.1 -0.1)">
      <use xlink:href="#DejaVuSans-47"/>
      <use x="77.490234" xlink:href="#DejaVuSans-43"/>
      <use x="147.314453" xlink:href="#DejaVuSans-61"/>
      <use x="208.59375" xlink:href="#DejaVuSans-4d"/>
      <use x="294.873047" xlink:href="#DejaVuSans-50"/>
     </g>
    </g>
   </g>
   <g id="line2d_30">
    <path clip-path="url(#p1b5a6f9bcf)" d="M 126.234659 1238.656968 
L 1046.259809 1238.656968 
L 1047.498066 725.433827 
L 1053.689352 725.433827 
L 1054.92761 1238.656968 
L 1058.642382 1238.656968 
L 1059.880639 725.433827 
L 1068.54844 725.433827 
L 1069.786697 1238.656968 
L 1262.954831 1238.656968 
L 1264.193088 725.433827 
L 1279.052175 725.433827 
L 1280.290432 1238.656968 
L 1282.766947 1238.656968 
L 1284.005204 725.433827 
L 1292.673005 725.433827 
L 1293.911262 1238.656968 
L 1296.387777 1238.656968 
L 1297.626034 725.433827 
L 1300.102549 725.433827 
L 1301.340806 1238.656968 
L 1327.344209 1238.656968 
L 1328.582466 725.433827 
L 1353.347611 725.433827 
L 1354.585868 1238.656968 
L 1359.538898 1238.656968 
L 1360.777155 725.433827 
L 1368.206698 725.433827 
L 1369.444956 1238.656968 
L 1410.307446 1238.656968 
L 1411.545703 725.433827 
L 1412.78396 1238.656968 
L 1421.451761 1238.656968 
L 1422.690018 725.433827 
L 1427.643047 725.433827 
L 1428.881305 1238.656968 
L 1457.361222 1238.656968 
L 1458.599479 725.433827 
L 1462.314251 725.433827 
L 1463.552508 1238.656968 
L 1473.458566 1238.656968 
L 1474.696823 725.433827 
L 1619.572924 725.433827 
L 1620.811181 1238.656968 
L 1622.049438 725.433827 
L 1648.052841 725.433827 
L 1648.052841 725.433827 
" style="fill:none;stroke:#008000;stroke-linecap:square;stroke-width:1.5;"/>
   </g>
   <g id="patch_8">
    <path d="M 50.14375 1264.318125 
L 50.14375 699.77267 
" style="fill:none;stroke:#000000;stroke-linecap:square;stroke-linejoin:miter;stroke-width:0.8;"/>
   </g>
   <g id="patch_9">
    <path d="M 1724.14375 1264.318125 
L 1724.14375 699.77267 
" style="fill:none;stroke:#000000;stroke-linecap:square;stroke-linejoin:miter;stroke-width:0.8;"/>
   </g>
   <g id="patch_10">
    <path d="M 50.14375 1264.318125 
L 1724.14375 1264.318125 
" style="fill:none;stroke:#000000;stroke-linecap:square;stroke-linejoin:miter;stroke-width:0.8;"/>
   </g>
   <g id="patch_11">
    <path d="M 50.14375 699.77267 
L 1724.14375 699.77267 
" style="fill:none;stroke:#000000;stroke-linecap:square;stroke-linejoin:miter;stroke-width:0.8;"/>
   </g>
   <g id="text_34">
    <!-- before binarisation -->
    <g transform="translate(830.545 693.77267)scale(0.12 -0.12)">
     <use xlink:href="#DejaVuSans-62"/>
     <use x="63.476562" xlink:href="#DejaVuSans-65"/>
     <use x="125" xlink:href="#DejaVuSans-66"/>
     <use x="160.205078" xlink:href="#DejaVuSans-6f"/>
     <use x="221.386719" xlink:href="#DejaVuSans-72"/>
     <use x="260.25" xlink:href="#DejaVuSans-65"/>
     <use x="321.773438" xlink:href="#DejaVuSans-20"/>
     <use x="353.560547" xlink:href="#DejaVuSans-62"/>
     <use x="417.037109" xlink:href="#DejaVuSans-69"/>
     <use x="444.820312" xlink:href="#DejaVuSans-6e"/>
     <use x="508.199219" xlink:href="#DejaVuSans-61"/>
     <use x="569.478516" xlink:href="#DejaVuSans-72"/>
     <use x="610.591797" xlink:href="#DejaVuSans-69"/>
     <use x="638.375" xlink:href="#DejaVuSans-73"/>
     <use x="690.474609" xlink:href="#DejaVuSans-61"/>
     <use x="751.753906" xlink:href="#DejaVuSans-74"/>
     <use x="790.962891" xlink:href="#DejaVuSans-69"/>
     <use x="818.746094" xlink:href="#DejaVuSans-6f"/>
     <use x="879.927734" xlink:href="#DejaVuSans-6e"/>
    </g>
   </g>
  </g>
 </g>
 <defs>
  <clipPath id="p441ac0fa24">
   <rect height="564.545455" width="1674" x="50.14375" y="22.318125"/>
  </clipPath>
  <clipPath id="p1b5a6f9bcf">
   <rect height="564.545455" width="1674" x="50.14375" y="699.77267"/>
  </clipPath>
 </defs>
</svg>
