<?xml version="1.0" encoding="utf-8" standalone="no"?>
<!DOCTYPE svg PUBLIC "-//W3C//DTD SVG 1.1//EN"
  "http://www.w3.org/Graphics/SVG/1.1/DTD/svg11.dtd">
<svg height="1301.874375pt" version="1.1" viewBox="0 0 1724.98125 1301.874375" width="1724.98125pt" xmlns="http://www.w3.org/2000/svg" xmlns:xlink="http://www.w3.org/1999/xlink">
 <metadata>
  <rdf:RDF xmlns:cc="http://creativecommons.org/ns#" xmlns:dc="http://purl.org/dc/elements/1.1/" xmlns:rdf="http://www.w3.org/1999/02/22-rdf-syntax-ns#">
   <cc:Work>
    <dc:type rdf:resource="http://purl.org/dc/dcmitype/StillImage"/>
    <dc:date>2022-07-24T15:54:42.274607</dc:date>
    <dc:format>image/svg+xml</dc:format>
    <dc:creator>
     <cc:Agent>
      <dc:title>Matplotlib v3.4.2, https://matplotlib.org/</dc:title>
     </cc:Agent>
    </dc:creator>
   </cc:Work>
  </rdf:RDF>
 </metadata>
 <defs>
  <style type="text/css">*{stroke-linecap:butt;stroke-linejoin:round;}</style>
 </defs>
 <g id="figure_1">
  <g id="patch_1">
   <path d="M 0 1301.874375 
L 1724.98125 1301.874375 
L 1724.98125 0 
L 0 0 
z
" style="fill:#ffffff;"/>
  </g>
  <g id="axes_1">
   <g id="patch_2">
    <path d="M 43.78125 586.86358 
L 1717.78125 586.86358 
L 1717.78125 22.318125 
L 43.78125 22.318125 
z
" style="fill:#ffffff;"/>
   </g>
   <g id="matplotlib.axis_1">
    <g id="xtick_1">
     <g id="line2d_1">
      <defs>
       <path d="M 0 0 
L 0 3.5 
" id="ma26e1e255c" style="stroke:#000000;stroke-width:0.8;"/>
      </defs>
      <g>
       <use style="stroke:#000000;stroke-width:0.8;" x="119.872159" xlink:href="#ma26e1e255c" y="586.86358"/>
      </g>
     </g>
     <g id="text_1">
      <!-- 0 -->
      <g transform="translate(116.690909 601.462017)scale(0.1 -0.1)">
       <defs>
        <path d="M 2034 4250 
Q 1547 4250 1301 3770 
Q 1056 3291 1056 2328 
Q 1056 1369 1301 889 
Q 1547 409 2034 409 
Q 2525 409 2770 889 
Q 3016 1369 3016 2328 
Q 3016 3291 2770 3770 
Q 2525 4250 2034 4250 
z
M 2034 4750 
Q 2819 4750 3233 4129 
Q 3647 3509 3647 2328 
Q 3647 1150 3233 529 
Q 2819 -91 2034 -91 
Q 1250 -91 836 529 
Q 422 1150 422 2328 
Q 422 3509 836 4129 
Q 1250 4750 2034 4750 
z
" id="DejaVuSans-30" transform="scale(0.015625)"/>
       </defs>
       <use xlink:href="#DejaVuSans-30"/>
      </g>
     </g>
    </g>
    <g id="xtick_2">
     <g id="line2d_2">
      <g>
       <use style="stroke:#000000;stroke-width:0.8;" x="367.523613" xlink:href="#ma26e1e255c" y="586.86358"/>
      </g>
     </g>
     <g id="text_2">
      <!-- 200 -->
      <g transform="translate(357.979863 601.462017)scale(0.1 -0.1)">
       <defs>
        <path d="M 1228 531 
L 3431 531 
L 3431 0 
L 469 0 
L 469 531 
Q 828 903 1448 1529 
Q 2069 2156 2228 2338 
Q 2531 2678 2651 2914 
Q 2772 3150 2772 3378 
Q 2772 3750 2511 3984 
Q 2250 4219 1831 4219 
Q 1534 4219 1204 4116 
Q 875 4013 500 3803 
L 500 4441 
Q 881 4594 1212 4672 
Q 1544 4750 1819 4750 
Q 2544 4750 2975 4387 
Q 3406 4025 3406 3419 
Q 3406 3131 3298 2873 
Q 3191 2616 2906 2266 
Q 2828 2175 2409 1742 
Q 1991 1309 1228 531 
z
" id="DejaVuSans-32" transform="scale(0.015625)"/>
       </defs>
       <use xlink:href="#DejaVuSans-32"/>
       <use x="63.623047" xlink:href="#DejaVuSans-30"/>
       <use x="127.246094" xlink:href="#DejaVuSans-30"/>
      </g>
     </g>
    </g>
    <g id="xtick_3">
     <g id="line2d_3">
      <g>
       <use style="stroke:#000000;stroke-width:0.8;" x="615.175066" xlink:href="#ma26e1e255c" y="586.86358"/>
      </g>
     </g>
     <g id="text_3">
      <!-- 400 -->
      <g transform="translate(605.631316 601.462017)scale(0.1 -0.1)">
       <defs>
        <path d="M 2419 4116 
L 825 1625 
L 2419 1625 
L 2419 4116 
z
M 2253 4666 
L 3047 4666 
L 3047 1625 
L 3713 1625 
L 3713 1100 
L 3047 1100 
L 3047 0 
L 2419 0 
L 2419 1100 
L 313 1100 
L 313 1709 
L 2253 4666 
z
" id="DejaVuSans-34" transform="scale(0.015625)"/>
       </defs>
       <use xlink:href="#DejaVuSans-34"/>
       <use x="63.623047" xlink:href="#DejaVuSans-30"/>
       <use x="127.246094" xlink:href="#DejaVuSans-30"/>
      </g>
     </g>
    </g>
    <g id="xtick_4">
     <g id="line2d_4">
      <g>
       <use style="stroke:#000000;stroke-width:0.8;" x="862.82652" xlink:href="#ma26e1e255c" y="586.86358"/>
      </g>
     </g>
     <g id="text_4">
      <!-- 600 -->
      <g transform="translate(853.28277 601.462017)scale(0.1 -0.1)">
       <defs>
        <path d="M 2113 2584 
Q 1688 2584 1439 2293 
Q 1191 2003 1191 1497 
Q 1191 994 1439 701 
Q 1688 409 2113 409 
Q 2538 409 2786 701 
Q 3034 994 3034 1497 
Q 3034 2003 2786 2293 
Q 2538 2584 2113 2584 
z
M 3366 4563 
L 3366 3988 
Q 3128 4100 2886 4159 
Q 2644 4219 2406 4219 
Q 1781 4219 1451 3797 
Q 1122 3375 1075 2522 
Q 1259 2794 1537 2939 
Q 1816 3084 2150 3084 
Q 2853 3084 3261 2657 
Q 3669 2231 3669 1497 
Q 3669 778 3244 343 
Q 2819 -91 2113 -91 
Q 1303 -91 875 529 
Q 447 1150 447 2328 
Q 447 3434 972 4092 
Q 1497 4750 2381 4750 
Q 2619 4750 2861 4703 
Q 3103 4656 3366 4563 
z
" id="DejaVuSans-36" transform="scale(0.015625)"/>
       </defs>
       <use xlink:href="#DejaVuSans-36"/>
       <use x="63.623047" xlink:href="#DejaVuSans-30"/>
       <use x="127.246094" xlink:href="#DejaVuSans-30"/>
      </g>
     </g>
    </g>
    <g id="xtick_5">
     <g id="line2d_5">
      <g>
       <use style="stroke:#000000;stroke-width:0.8;" x="1110.477973" xlink:href="#ma26e1e255c" y="586.86358"/>
      </g>
     </g>
     <g id="text_5">
      <!-- 800 -->
      <g transform="translate(1100.934223 601.462017)scale(0.1 -0.1)">
       <defs>
        <path d="M 2034 2216 
Q 1584 2216 1326 1975 
Q 1069 1734 1069 1313 
Q 1069 891 1326 650 
Q 1584 409 2034 409 
Q 2484 409 2743 651 
Q 3003 894 3003 1313 
Q 3003 1734 2745 1975 
Q 2488 2216 2034 2216 
z
M 1403 2484 
Q 997 2584 770 2862 
Q 544 3141 544 3541 
Q 544 4100 942 4425 
Q 1341 4750 2034 4750 
Q 2731 4750 3128 4425 
Q 3525 4100 3525 3541 
Q 3525 3141 3298 2862 
Q 3072 2584 2669 2484 
Q 3125 2378 3379 2068 
Q 3634 1759 3634 1313 
Q 3634 634 3220 271 
Q 2806 -91 2034 -91 
Q 1263 -91 848 271 
Q 434 634 434 1313 
Q 434 1759 690 2068 
Q 947 2378 1403 2484 
z
M 1172 3481 
Q 1172 3119 1398 2916 
Q 1625 2713 2034 2713 
Q 2441 2713 2670 2916 
Q 2900 3119 2900 3481 
Q 2900 3844 2670 4047 
Q 2441 4250 2034 4250 
Q 1625 4250 1398 4047 
Q 1172 3844 1172 3481 
z
" id="DejaVuSans-38" transform="scale(0.015625)"/>
       </defs>
       <use xlink:href="#DejaVuSans-38"/>
       <use x="63.623047" xlink:href="#DejaVuSans-30"/>
       <use x="127.246094" xlink:href="#DejaVuSans-30"/>
      </g>
     </g>
    </g>
    <g id="xtick_6">
     <g id="line2d_6">
      <g>
       <use style="stroke:#000000;stroke-width:0.8;" x="1358.129427" xlink:href="#ma26e1e255c" y="586.86358"/>
      </g>
     </g>
     <g id="text_6">
      <!-- 1000 -->
      <g transform="translate(1345.404427 601.462017)scale(0.1 -0.1)">
       <defs>
        <path d="M 794 531 
L 1825 531 
L 1825 4091 
L 703 3866 
L 703 4441 
L 1819 4666 
L 2450 4666 
L 2450 531 
L 3481 531 
L 3481 0 
L 794 0 
L 794 531 
z
" id="DejaVuSans-31" transform="scale(0.015625)"/>
       </defs>
       <use xlink:href="#DejaVuSans-31"/>
       <use x="63.623047" xlink:href="#DejaVuSans-30"/>
       <use x="127.246094" xlink:href="#DejaVuSans-30"/>
       <use x="190.869141" xlink:href="#DejaVuSans-30"/>
      </g>
     </g>
    </g>
    <g id="xtick_7">
     <g id="line2d_7">
      <g>
       <use style="stroke:#000000;stroke-width:0.8;" x="1605.78088" xlink:href="#ma26e1e255c" y="586.86358"/>
      </g>
     </g>
     <g id="text_7">
      <!-- 1200 -->
      <g transform="translate(1593.05588 601.462017)scale(0.1 -0.1)">
       <use xlink:href="#DejaVuSans-31"/>
       <use x="63.623047" xlink:href="#DejaVuSans-32"/>
       <use x="127.246094" xlink:href="#DejaVuSans-30"/>
       <use x="190.869141" xlink:href="#DejaVuSans-30"/>
      </g>
     </g>
    </g>
    <g id="text_8">
     <!-- frame -->
     <g transform="translate(865.954687 615.140142)scale(0.1 -0.1)">
      <defs>
       <path d="M 2375 4863 
L 2375 4384 
L 1825 4384 
Q 1516 4384 1395 4259 
Q 1275 4134 1275 3809 
L 1275 3500 
L 2222 3500 
L 2222 3053 
L 1275 3053 
L 1275 0 
L 697 0 
L 697 3053 
L 147 3053 
L 147 3500 
L 697 3500 
L 697 3744 
Q 697 4328 969 4595 
Q 1241 4863 1831 4863 
L 2375 4863 
z
" id="DejaVuSans-66" transform="scale(0.015625)"/>
       <path d="M 2631 2963 
Q 2534 3019 2420 3045 
Q 2306 3072 2169 3072 
Q 1681 3072 1420 2755 
Q 1159 2438 1159 1844 
L 1159 0 
L 581 0 
L 581 3500 
L 1159 3500 
L 1159 2956 
Q 1341 3275 1631 3429 
Q 1922 3584 2338 3584 
Q 2397 3584 2469 3576 
Q 2541 3569 2628 3553 
L 2631 2963 
z
" id="DejaVuSans-72" transform="scale(0.015625)"/>
       <path d="M 2194 1759 
Q 1497 1759 1228 1600 
Q 959 1441 959 1056 
Q 959 750 1161 570 
Q 1363 391 1709 391 
Q 2188 391 2477 730 
Q 2766 1069 2766 1631 
L 2766 1759 
L 2194 1759 
z
M 3341 1997 
L 3341 0 
L 2766 0 
L 2766 531 
Q 2569 213 2275 61 
Q 1981 -91 1556 -91 
Q 1019 -91 701 211 
Q 384 513 384 1019 
Q 384 1609 779 1909 
Q 1175 2209 1959 2209 
L 2766 2209 
L 2766 2266 
Q 2766 2663 2505 2880 
Q 2244 3097 1772 3097 
Q 1472 3097 1187 3025 
Q 903 2953 641 2809 
L 641 3341 
Q 956 3463 1253 3523 
Q 1550 3584 1831 3584 
Q 2591 3584 2966 3190 
Q 3341 2797 3341 1997 
z
" id="DejaVuSans-61" transform="scale(0.015625)"/>
       <path d="M 3328 2828 
Q 3544 3216 3844 3400 
Q 4144 3584 4550 3584 
Q 5097 3584 5394 3201 
Q 5691 2819 5691 2113 
L 5691 0 
L 5113 0 
L 5113 2094 
Q 5113 2597 4934 2840 
Q 4756 3084 4391 3084 
Q 3944 3084 3684 2787 
Q 3425 2491 3425 1978 
L 3425 0 
L 2847 0 
L 2847 2094 
Q 2847 2600 2669 2842 
Q 2491 3084 2119 3084 
Q 1678 3084 1418 2786 
Q 1159 2488 1159 1978 
L 1159 0 
L 581 0 
L 581 3500 
L 1159 3500 
L 1159 2956 
Q 1356 3278 1631 3431 
Q 1906 3584 2284 3584 
Q 2666 3584 2933 3390 
Q 3200 3197 3328 2828 
z
" id="DejaVuSans-6d" transform="scale(0.015625)"/>
       <path d="M 3597 1894 
L 3597 1613 
L 953 1613 
Q 991 1019 1311 708 
Q 1631 397 2203 397 
Q 2534 397 2845 478 
Q 3156 559 3463 722 
L 3463 178 
Q 3153 47 2828 -22 
Q 2503 -91 2169 -91 
Q 1331 -91 842 396 
Q 353 884 353 1716 
Q 353 2575 817 3079 
Q 1281 3584 2069 3584 
Q 2775 3584 3186 3129 
Q 3597 2675 3597 1894 
z
M 3022 2063 
Q 3016 2534 2758 2815 
Q 2500 3097 2075 3097 
Q 1594 3097 1305 2825 
Q 1016 2553 972 2059 
L 3022 2063 
z
" id="DejaVuSans-65" transform="scale(0.015625)"/>
      </defs>
      <use xlink:href="#DejaVuSans-66"/>
      <use x="35.205078" xlink:href="#DejaVuSans-72"/>
      <use x="76.318359" xlink:href="#DejaVuSans-61"/>
      <use x="137.597656" xlink:href="#DejaVuSans-6d"/>
      <use x="235.009766" xlink:href="#DejaVuSans-65"/>
     </g>
    </g>
   </g>
   <g id="matplotlib.axis_2">
    <g id="ytick_1">
     <g id="line2d_8">
      <defs>
       <path d="M 0 0 
L -3.5 0 
" id="m91641ff2c5" style="stroke:#000000;stroke-width:0.8;"/>
      </defs>
      <g>
       <use style="stroke:#000000;stroke-width:0.8;" x="43.78125" xlink:href="#m91641ff2c5" y="514.665947"/>
      </g>
     </g>
     <g id="text_9">
      <!-- 1.0 -->
      <g transform="translate(20.878125 518.465165)scale(0.1 -0.1)">
       <defs>
        <path d="M 684 794 
L 1344 794 
L 1344 0 
L 684 0 
L 684 794 
z
" id="DejaVuSans-2e" transform="scale(0.015625)"/>
       </defs>
       <use xlink:href="#DejaVuSans-31"/>
       <use x="63.623047" xlink:href="#DejaVuSans-2e"/>
       <use x="95.410156" xlink:href="#DejaVuSans-30"/>
      </g>
     </g>
    </g>
    <g id="ytick_2">
     <g id="line2d_9">
      <g>
       <use style="stroke:#000000;stroke-width:0.8;" x="43.78125" xlink:href="#m91641ff2c5" y="439.174823"/>
      </g>
     </g>
     <g id="text_10">
      <!-- 1.5 -->
      <g transform="translate(20.878125 442.974042)scale(0.1 -0.1)">
       <defs>
        <path d="M 691 4666 
L 3169 4666 
L 3169 4134 
L 1269 4134 
L 1269 2991 
Q 1406 3038 1543 3061 
Q 1681 3084 1819 3084 
Q 2600 3084 3056 2656 
Q 3513 2228 3513 1497 
Q 3513 744 3044 326 
Q 2575 -91 1722 -91 
Q 1428 -91 1123 -41 
Q 819 9 494 109 
L 494 744 
Q 775 591 1075 516 
Q 1375 441 1709 441 
Q 2250 441 2565 725 
Q 2881 1009 2881 1497 
Q 2881 1984 2565 2268 
Q 2250 2553 1709 2553 
Q 1456 2553 1204 2497 
Q 953 2441 691 2322 
L 691 4666 
z
" id="DejaVuSans-35" transform="scale(0.015625)"/>
       </defs>
       <use xlink:href="#DejaVuSans-31"/>
       <use x="63.623047" xlink:href="#DejaVuSans-2e"/>
       <use x="95.410156" xlink:href="#DejaVuSans-35"/>
      </g>
     </g>
    </g>
    <g id="ytick_3">
     <g id="line2d_10">
      <g>
       <use style="stroke:#000000;stroke-width:0.8;" x="43.78125" xlink:href="#m91641ff2c5" y="363.6837"/>
      </g>
     </g>
     <g id="text_11">
      <!-- 2.0 -->
      <g transform="translate(20.878125 367.482918)scale(0.1 -0.1)">
       <use xlink:href="#DejaVuSans-32"/>
       <use x="63.623047" xlink:href="#DejaVuSans-2e"/>
       <use x="95.410156" xlink:href="#DejaVuSans-30"/>
      </g>
     </g>
    </g>
    <g id="ytick_4">
     <g id="line2d_11">
      <g>
       <use style="stroke:#000000;stroke-width:0.8;" x="43.78125" xlink:href="#m91641ff2c5" y="288.192576"/>
      </g>
     </g>
     <g id="text_12">
      <!-- 2.5 -->
      <g transform="translate(20.878125 291.991795)scale(0.1 -0.1)">
       <use xlink:href="#DejaVuSans-32"/>
       <use x="63.623047" xlink:href="#DejaVuSans-2e"/>
       <use x="95.410156" xlink:href="#DejaVuSans-35"/>
      </g>
     </g>
    </g>
    <g id="ytick_5">
     <g id="line2d_12">
      <g>
       <use style="stroke:#000000;stroke-width:0.8;" x="43.78125" xlink:href="#m91641ff2c5" y="212.701453"/>
      </g>
     </g>
     <g id="text_13">
      <!-- 3.0 -->
      <g transform="translate(20.878125 216.500671)scale(0.1 -0.1)">
       <defs>
        <path d="M 2597 2516 
Q 3050 2419 3304 2112 
Q 3559 1806 3559 1356 
Q 3559 666 3084 287 
Q 2609 -91 1734 -91 
Q 1441 -91 1130 -33 
Q 819 25 488 141 
L 488 750 
Q 750 597 1062 519 
Q 1375 441 1716 441 
Q 2309 441 2620 675 
Q 2931 909 2931 1356 
Q 2931 1769 2642 2001 
Q 2353 2234 1838 2234 
L 1294 2234 
L 1294 2753 
L 1863 2753 
Q 2328 2753 2575 2939 
Q 2822 3125 2822 3475 
Q 2822 3834 2567 4026 
Q 2313 4219 1838 4219 
Q 1578 4219 1281 4162 
Q 984 4106 628 3988 
L 628 4550 
Q 988 4650 1302 4700 
Q 1616 4750 1894 4750 
Q 2613 4750 3031 4423 
Q 3450 4097 3450 3541 
Q 3450 3153 3228 2886 
Q 3006 2619 2597 2516 
z
" id="DejaVuSans-33" transform="scale(0.015625)"/>
       </defs>
       <use xlink:href="#DejaVuSans-33"/>
       <use x="63.623047" xlink:href="#DejaVuSans-2e"/>
       <use x="95.410156" xlink:href="#DejaVuSans-30"/>
      </g>
     </g>
    </g>
    <g id="ytick_6">
     <g id="line2d_13">
      <g>
       <use style="stroke:#000000;stroke-width:0.8;" x="43.78125" xlink:href="#m91641ff2c5" y="137.210329"/>
      </g>
     </g>
     <g id="text_14">
      <!-- 3.5 -->
      <g transform="translate(20.878125 141.009548)scale(0.1 -0.1)">
       <use xlink:href="#DejaVuSans-33"/>
       <use x="63.623047" xlink:href="#DejaVuSans-2e"/>
       <use x="95.410156" xlink:href="#DejaVuSans-35"/>
      </g>
     </g>
    </g>
    <g id="ytick_7">
     <g id="line2d_14">
      <g>
       <use style="stroke:#000000;stroke-width:0.8;" x="43.78125" xlink:href="#m91641ff2c5" y="61.719205"/>
      </g>
     </g>
     <g id="text_15">
      <!-- 4.0 -->
      <g transform="translate(20.878125 65.518424)scale(0.1 -0.1)">
       <use xlink:href="#DejaVuSans-34"/>
       <use x="63.623047" xlink:href="#DejaVuSans-2e"/>
       <use x="95.410156" xlink:href="#DejaVuSans-30"/>
      </g>
     </g>
    </g>
    <g id="text_16">
     <!-- GCaMP -->
     <g transform="translate(14.798437 322.349446)rotate(-90)scale(0.1 -0.1)">
      <defs>
       <path d="M 3809 666 
L 3809 1919 
L 2778 1919 
L 2778 2438 
L 4434 2438 
L 4434 434 
Q 4069 175 3628 42 
Q 3188 -91 2688 -91 
Q 1594 -91 976 548 
Q 359 1188 359 2328 
Q 359 3472 976 4111 
Q 1594 4750 2688 4750 
Q 3144 4750 3555 4637 
Q 3966 4525 4313 4306 
L 4313 3634 
Q 3963 3931 3569 4081 
Q 3175 4231 2741 4231 
Q 1884 4231 1454 3753 
Q 1025 3275 1025 2328 
Q 1025 1384 1454 906 
Q 1884 428 2741 428 
Q 3075 428 3337 486 
Q 3600 544 3809 666 
z
" id="DejaVuSans-47" transform="scale(0.015625)"/>
       <path d="M 4122 4306 
L 4122 3641 
Q 3803 3938 3442 4084 
Q 3081 4231 2675 4231 
Q 1875 4231 1450 3742 
Q 1025 3253 1025 2328 
Q 1025 1406 1450 917 
Q 1875 428 2675 428 
Q 3081 428 3442 575 
Q 3803 722 4122 1019 
L 4122 359 
Q 3791 134 3420 21 
Q 3050 -91 2638 -91 
Q 1578 -91 968 557 
Q 359 1206 359 2328 
Q 359 3453 968 4101 
Q 1578 4750 2638 4750 
Q 3056 4750 3426 4639 
Q 3797 4528 4122 4306 
z
" id="DejaVuSans-43" transform="scale(0.015625)"/>
       <path d="M 628 4666 
L 1569 4666 
L 2759 1491 
L 3956 4666 
L 4897 4666 
L 4897 0 
L 4281 0 
L 4281 4097 
L 3078 897 
L 2444 897 
L 1241 4097 
L 1241 0 
L 628 0 
L 628 4666 
z
" id="DejaVuSans-4d" transform="scale(0.015625)"/>
       <path d="M 1259 4147 
L 1259 2394 
L 2053 2394 
Q 2494 2394 2734 2622 
Q 2975 2850 2975 3272 
Q 2975 3691 2734 3919 
Q 2494 4147 2053 4147 
L 1259 4147 
z
M 628 4666 
L 2053 4666 
Q 2838 4666 3239 4311 
Q 3641 3956 3641 3272 
Q 3641 2581 3239 2228 
Q 2838 1875 2053 1875 
L 1259 1875 
L 1259 0 
L 628 0 
L 628 4666 
z
" id="DejaVuSans-50" transform="scale(0.015625)"/>
      </defs>
      <use xlink:href="#DejaVuSans-47"/>
      <use x="77.490234" xlink:href="#DejaVuSans-43"/>
      <use x="147.314453" xlink:href="#DejaVuSans-61"/>
      <use x="208.59375" xlink:href="#DejaVuSans-4d"/>
      <use x="294.873047" xlink:href="#DejaVuSans-50"/>
     </g>
    </g>
   </g>
   <g id="line2d_15">
    <path clip-path="url(#p7094b2ef40)" d="M 119.872159 530.516881 
L 122.348674 533.525482 
L 123.586931 534.792314 
L 124.825188 535.412905 
L 126.063445 535.266856 
L 127.301703 534.75738 
L 128.53996 534.787602 
L 129.778217 536.101518 
L 132.254732 541.04703 
L 133.492989 542.837009 
L 134.731246 543.544215 
L 135.969504 543.253695 
L 138.446018 541.703124 
L 139.684275 541.530198 
L 140.922533 541.883778 
L 142.16079 542.574384 
L 143.399047 543.50421 
L 144.637304 544.657412 
L 147.113819 547.464462 
L 148.352076 548.922403 
L 149.590334 550.104545 
L 150.828591 550.756696 
L 152.066848 550.865716 
L 153.305105 550.590644 
L 157.019877 548.964783 
L 158.258134 548.763968 
L 160.734649 548.631175 
L 161.972906 548.76341 
L 163.211163 549.222289 
L 165.687678 550.656688 
L 166.925935 551.121885 
L 168.164193 551.362996 
L 169.40245 551.746719 
L 170.640707 552.699697 
L 171.878964 554.293621 
L 173.117222 556.151089 
L 174.355479 557.658029 
L 175.593736 558.235862 
L 176.831993 557.689373 
L 179.308508 555.138814 
L 180.546765 554.124529 
L 181.785022 553.452893 
L 183.02328 553.389382 
L 184.261537 554.123828 
L 185.499794 555.192288 
L 186.738052 555.824961 
L 187.976309 555.7912 
L 189.214566 555.514567 
L 190.452823 555.431355 
L 191.691081 555.576552 
L 192.929338 555.85979 
L 195.405852 556.82461 
L 196.64411 556.987008 
L 197.882367 556.643898 
L 199.120624 556.142251 
L 201.597139 555.269526 
L 202.835396 554.305717 
L 205.311911 551.621483 
L 206.550168 550.714796 
L 207.788425 550.280175 
L 209.026682 550.208866 
L 210.26494 550.459153 
L 211.503197 551.110954 
L 212.741454 552.265943 
L 213.979711 553.908795 
L 215.217969 555.792127 
L 216.456226 557.405132 
L 217.694483 558.186451 
L 218.93274 557.955463 
L 221.409255 556.192843 
L 222.647512 555.756733 
L 223.88577 555.886017 
L 225.124027 556.309122 
L 226.362284 556.611755 
L 227.600541 556.547959 
L 228.838799 556.140605 
L 232.55357 554.236182 
L 233.791828 554.11995 
L 235.030085 554.785431 
L 236.268342 556.249746 
L 238.744857 560.061253 
L 239.983114 561.1043 
L 241.221371 560.917731 
L 242.459629 559.64719 
L 246.1744 553.938319 
L 247.412658 553.157141 
L 248.650915 553.297065 
L 249.889172 554.090519 
L 251.127429 555.354088 
L 254.842201 560.332392 
L 256.080459 561.202423 
L 257.318716 561.07104 
L 258.556973 559.989471 
L 261.033488 556.593781 
L 263.510002 552.732814 
L 264.748259 550.731375 
L 265.986517 549.008136 
L 267.224774 547.80899 
L 268.463031 547.147346 
L 269.701288 546.918789 
L 270.939546 547.013528 
L 272.177803 547.412743 
L 273.41606 548.124552 
L 279.607347 552.492508 
L 282.083861 554.679303 
L 283.322118 555.517932 
L 284.560376 556.132547 
L 285.798633 556.430685 
L 287.03689 556.348644 
L 288.275147 556.051148 
L 289.513405 555.877617 
L 290.751662 556.09563 
L 291.989919 556.567428 
L 293.228177 556.698737 
L 294.466434 555.877094 
L 295.704691 554.048351 
L 296.942948 551.895603 
L 298.181206 550.264723 
L 299.419463 549.507863 
L 300.65772 549.592533 
L 301.895977 550.471357 
L 303.134235 552.089213 
L 305.610749 556.482136 
L 306.849006 558.283637 
L 308.087264 559.405267 
L 309.325521 559.927238 
L 310.563778 559.935131 
L 311.802036 559.432388 
L 313.040293 558.390604 
L 314.27855 556.81713 
L 315.516807 555.036717 
L 316.755065 553.606177 
L 319.231579 551.594241 
L 320.469836 549.979751 
L 322.946351 545.64906 
L 324.184608 544.587483 
L 325.422866 545.079327 
L 326.661123 546.895249 
L 330.375895 554.847961 
L 331.614152 556.179268 
L 332.852409 556.063042 
L 334.090666 554.467553 
L 336.567181 549.073011 
L 337.805438 547.065757 
L 339.043695 546.2411 
L 340.281953 546.362577 
L 341.52021 546.935645 
L 343.996725 548.240973 
L 345.234982 548.493837 
L 348.949754 548.253398 
L 352.664525 548.473812 
L 355.14104 548.563682 
L 356.379297 548.208858 
L 357.617554 547.342981 
L 358.855812 546.165174 
L 360.094069 545.173517 
L 361.332326 544.815542 
L 362.570584 545.279153 
L 363.808841 546.545282 
L 366.285355 549.875075 
L 367.523613 550.748803 
L 368.76187 550.833736 
L 370.000127 550.246084 
L 372.476642 548.129251 
L 373.714899 547.343928 
L 374.953156 547.019334 
L 376.191413 547.165831 
L 377.429671 547.557332 
L 378.667928 547.784314 
L 379.906185 547.502415 
L 383.620957 545.201624 
L 384.859214 544.837226 
L 386.097472 544.71575 
L 387.335729 544.829838 
L 388.573986 545.116701 
L 389.812243 545.235159 
L 391.050501 544.794776 
L 396.00353 541.114954 
L 397.241787 540.516788 
L 400.956559 539.177121 
L 402.194816 539.024229 
L 403.433073 539.290801 
L 404.671331 539.925288 
L 405.909588 540.887276 
L 408.386102 543.447022 
L 409.62436 544.114638 
L 410.862617 544.022335 
L 412.100874 543.39464 
L 413.339132 542.313446 
L 414.577389 540.910773 
L 415.815646 539.697927 
L 417.053903 539.217049 
L 418.292161 539.550198 
L 423.24519 542.682872 
L 424.483447 542.957102 
L 425.721704 542.730919 
L 426.959961 541.914797 
L 429.436476 539.233607 
L 430.674733 538.428591 
L 431.912991 538.616075 
L 433.151248 539.564956 
L 434.389505 540.660406 
L 435.627762 541.380315 
L 436.86602 541.499979 
L 438.104277 541.136669 
L 443.057306 538.794962 
L 444.295563 538.596809 
L 445.53382 538.832803 
L 446.772078 539.429408 
L 448.010335 540.200668 
L 449.248592 540.82745 
L 450.48685 540.986175 
L 451.725107 540.58676 
L 452.963364 539.714737 
L 454.201621 538.600804 
L 455.439879 537.743787 
L 456.678136 537.652424 
L 457.916393 538.401647 
L 459.15465 539.584832 
L 460.392908 540.609736 
L 461.631165 541.038635 
L 462.869422 540.7044 
L 464.107679 539.586364 
L 466.584194 536.431853 
L 467.822451 535.708702 
L 469.060709 535.794503 
L 470.298966 536.259351 
L 471.537223 536.579467 
L 472.77548 536.378574 
L 475.251995 534.854676 
L 476.490252 534.665407 
L 477.728509 535.338431 
L 482.681538 540.267167 
L 483.919796 540.899722 
L 485.158053 540.574585 
L 486.39631 539.076793 
L 488.872825 534.759504 
L 490.111082 533.305549 
L 491.349339 532.710166 
L 493.825854 532.884848 
L 495.064111 532.657673 
L 497.540626 531.564775 
L 498.778883 530.924977 
L 500.01714 530.420087 
L 502.493655 529.91541 
L 503.731912 529.341899 
L 504.970169 528.433885 
L 506.208427 527.350369 
L 507.446684 526.536428 
L 508.684941 526.727525 
L 509.923198 528.303248 
L 513.63797 535.737717 
L 514.876227 537.153348 
L 517.352742 539.257375 
L 521.067514 542.939383 
L 522.305771 543.548134 
L 523.544028 543.311139 
L 524.782286 542.026067 
L 526.020543 539.691048 
L 528.497057 533.603243 
L 529.735315 531.098675 
L 530.973572 529.403246 
L 532.211829 528.148075 
L 533.450086 526.628534 
L 534.688344 524.44047 
L 535.926601 521.834475 
L 537.164858 519.627954 
L 538.403116 518.727179 
L 539.641373 519.474396 
L 540.87963 521.443916 
L 542.117887 523.698488 
L 543.356145 525.230847 
L 544.594402 525.564957 
L 545.832659 524.979115 
L 547.070916 524.186612 
L 548.309174 523.972937 
L 549.547431 524.793168 
L 550.785688 526.336556 
L 552.023945 527.67899 
L 553.262203 528.115896 
L 554.50046 527.686216 
L 556.976975 525.864785 
L 559.453489 523.82619 
L 560.691746 523.302634 
L 561.930004 523.610541 
L 563.168261 524.644085 
L 565.644775 527.501882 
L 568.12129 530.689159 
L 569.359547 531.852755 
L 570.597804 532.561543 
L 574.312576 533.897483 
L 575.550834 533.737413 
L 576.789091 532.62232 
L 578.027348 530.566997 
L 580.503863 525.509916 
L 581.74212 523.575121 
L 582.980377 522.39576 
L 584.218634 521.866066 
L 585.456892 521.73871 
L 587.933406 521.820806 
L 589.171663 521.454354 
L 590.409921 520.202218 
L 592.886435 515.786056 
L 594.124693 514.125674 
L 595.36295 513.213507 
L 596.601207 512.747706 
L 597.839464 512.490147 
L 599.077722 512.511538 
L 600.315979 513.031091 
L 604.030751 515.898119 
L 605.269008 516.591964 
L 606.507265 516.895303 
L 608.98378 516.815576 
L 610.222037 517.302303 
L 612.698552 519.23139 
L 613.936809 519.988175 
L 615.175066 520.51588 
L 616.413323 520.443037 
L 617.651581 519.102626 
L 618.889838 516.129099 
L 622.60461 503.246499 
L 623.842867 500.626966 
L 625.081124 499.593116 
L 626.319382 500.148555 
L 628.795896 503.291658 
L 630.034153 503.256697 
L 631.272411 500.853157 
L 632.510668 496.1978 
L 634.987182 483.300198 
L 636.22544 476.979178 
L 637.463697 471.855121 
L 638.701954 468.444475 
L 639.940211 466.850546 
L 641.178469 466.405143 
L 642.416726 465.4205 
L 643.654983 461.900463 
L 644.893241 454.758704 
L 646.131498 444.109841 
L 647.369755 430.609676 
L 648.608012 414.861803 
L 649.84627 397.119776 
L 652.322784 356.455717 
L 654.799299 316.235338 
L 663.4671 188.860533 
L 665.943614 159.051155 
L 668.420129 131.226944 
L 669.658386 118.469336 
L 670.896643 106.921026 
L 672.1349 96.888404 
L 673.373158 88.807135 
L 674.611415 82.827164 
L 677.087929 73.933289 
L 680.802701 59.033343 
L 682.040959 55.902062 
L 683.279216 54.649774 
L 684.517473 55.747938 
L 685.75573 58.939108 
L 688.232245 67.912124 
L 691.947017 82.39821 
L 693.185274 84.647491 
L 694.423531 83.160728 
L 695.661789 78.262945 
L 698.138303 65.973177 
L 699.37656 60.719284 
L 700.614818 56.735914 
L 701.853075 55.454235 
L 703.091332 58.020732 
L 704.329589 64.568849 
L 706.806104 83.765113 
L 708.044361 90.82752 
L 709.282618 93.823781 
L 710.520876 92.810428 
L 711.759133 87.718455 
L 712.99739 78.716191 
L 715.473905 57.70803 
L 716.712162 50.802752 
L 717.950419 47.979282 
L 719.188677 49.543851 
L 720.426934 55.596964 
L 721.665191 66.78081 
L 722.903448 83.156198 
L 724.141706 101.715874 
L 725.379963 117.594622 
L 726.61822 127.86886 
L 727.856477 132.75034 
L 729.094735 134.278481 
L 731.571249 135.062712 
L 732.809507 135.609407 
L 734.047764 137.559667 
L 735.286021 143.435295 
L 736.524278 154.057723 
L 739.000793 180.06135 
L 740.23905 190.087937 
L 741.477307 195.373315 
L 742.715565 195.814564 
L 743.953822 193.907729 
L 745.192079 193.075377 
L 746.430336 195.590851 
L 747.668594 201.586708 
L 750.145108 218.164036 
L 752.621623 234.292658 
L 753.85988 240.79852 
L 756.336395 251.157043 
L 757.574652 257.421885 
L 761.289424 280.901954 
L 762.527681 286.079722 
L 763.765938 289.802693 
L 765.004195 293.076235 
L 766.242453 296.868481 
L 767.48071 301.577892 
L 768.718967 306.763704 
L 769.957225 311.439318 
L 771.195482 314.924753 
L 773.671996 319.689661 
L 774.910254 322.808846 
L 782.339797 344.93952 
L 783.578054 348.197186 
L 784.816312 350.934862 
L 787.292826 356.018669 
L 788.531084 358.781248 
L 789.769341 360.951386 
L 791.007598 361.717785 
L 792.245855 360.967293 
L 793.484113 359.843515 
L 794.72237 360.413961 
L 795.960627 364.129984 
L 797.198884 370.736625 
L 799.675399 386.714963 
L 800.913656 392.956874 
L 802.151914 396.657107 
L 803.390171 398.079386 
L 804.628428 398.591715 
L 805.866685 399.517444 
L 807.104943 401.081871 
L 809.581457 404.757462 
L 810.819714 407.191287 
L 812.057972 410.339778 
L 815.772743 421.533873 
L 820.725773 436.50258 
L 821.96403 439.944902 
L 823.202287 442.34787 
L 824.440544 443.102116 
L 825.678802 442.071828 
L 826.917059 439.58382 
L 829.393573 432.922564 
L 830.631831 430.705186 
L 831.870088 430.3027 
L 833.108345 431.575361 
L 835.58486 435.792226 
L 836.823117 437.111633 
L 838.061374 437.496961 
L 840.537889 436.82604 
L 841.776146 437.214537 
L 843.014403 438.276386 
L 846.729175 441.860956 
L 849.20569 444.122984 
L 850.443947 445.692033 
L 851.682204 448.163803 
L 852.920461 451.663567 
L 855.396976 459.41605 
L 856.635233 462.243985 
L 857.873491 463.90176 
L 859.111748 464.681711 
L 860.350005 465.224132 
L 862.82652 466.875026 
L 864.064777 467.116327 
L 865.303034 466.26097 
L 866.541291 464.79819 
L 867.779549 463.937672 
L 869.017806 464.741465 
L 870.256063 467.485609 
L 872.732578 475.722881 
L 873.970835 478.424688 
L 875.209092 478.754746 
L 876.44735 476.862081 
L 880.162121 467.148198 
L 881.400379 464.813242 
L 882.638636 463.651054 
L 883.876893 463.832983 
L 885.11515 465.235905 
L 886.353408 467.556356 
L 887.591665 470.146675 
L 888.829922 472.263026 
L 890.06818 473.479644 
L 891.306437 473.700636 
L 892.544694 473.377902 
L 893.782951 473.428522 
L 896.259466 475.149019 
L 897.497723 475.371709 
L 898.73598 475.034119 
L 899.974238 475.034256 
L 901.212495 476.072063 
L 902.450752 478.082817 
L 903.689009 480.41373 
L 904.927267 482.413778 
L 907.403781 485.587745 
L 911.118553 491.419984 
L 912.35681 492.566419 
L 913.595068 492.791891 
L 914.833325 492.148048 
L 917.309839 489.687482 
L 918.548097 488.781765 
L 921.024611 487.596325 
L 922.262868 486.210515 
L 923.501126 483.532283 
L 927.215898 471.969622 
L 928.454155 469.74275 
L 929.692412 468.999734 
L 930.930669 469.626972 
L 932.168927 471.122555 
L 933.407184 472.997095 
L 934.645441 475.269604 
L 937.121956 480.458796 
L 938.360213 481.835631 
L 939.59847 481.892569 
L 940.836727 481.107199 
L 943.313242 479.057905 
L 944.551499 477.52809 
L 947.028014 472.861156 
L 948.266271 471.532343 
L 949.504528 471.840814 
L 950.742786 472.978889 
L 951.981043 473.633374 
L 953.2193 473.067976 
L 954.457557 471.056959 
L 955.695815 467.727593 
L 956.934072 463.920199 
L 958.172329 460.94594 
L 959.410586 459.692332 
L 960.648844 460.049948 
L 963.125358 462.042983 
L 965.601873 463.712071 
L 966.84013 464.637165 
L 968.078387 465.709953 
L 969.316645 467.267827 
L 971.793159 471.511789 
L 973.031416 473.073955 
L 974.269674 473.748452 
L 975.507931 473.629231 
L 976.746188 473.042771 
L 979.222703 471.475693 
L 980.46096 471.112192 
L 981.699217 471.53247 
L 982.937475 472.603609 
L 985.413989 475.215916 
L 987.890504 478.069125 
L 989.128761 478.955983 
L 990.367018 479.349667 
L 991.605275 479.534803 
L 992.843533 479.93435 
L 994.08179 481.008875 
L 995.320047 482.830009 
L 996.558305 484.850616 
L 997.796562 486.535901 
L 999.034819 487.848692 
L 1000.273076 488.802815 
L 1001.511334 489.099539 
L 1002.749591 488.624414 
L 1003.987848 487.865895 
L 1006.464363 486.605166 
L 1007.70262 485.688 
L 1008.940877 484.966472 
L 1010.179134 484.979945 
L 1011.417392 485.828588 
L 1012.655649 487.321158 
L 1013.893906 489.079715 
L 1015.132164 490.536842 
L 1016.370421 491.263434 
L 1017.608678 491.279103 
L 1018.846935 490.692093 
L 1020.085193 489.228873 
L 1021.32345 486.5517 
L 1022.561707 482.812934 
L 1026.276479 469.950134 
L 1027.514736 464.872965 
L 1028.752993 458.574666 
L 1029.991251 450.990589 
L 1032.467765 432.972178 
L 1033.706023 422.806553 
L 1034.94428 411.606944 
L 1036.182537 398.982372 
L 1037.420794 384.438663 
L 1039.897309 350.283568 
L 1043.612081 299.801137 
L 1044.850338 284.481703 
L 1047.326852 257.844365 
L 1049.803367 231.134019 
L 1052.279882 203.700921 
L 1054.756396 178.923851 
L 1055.994653 168.136806 
L 1057.232911 160.09966 
L 1058.471168 156.02798 
L 1059.709425 155.256836 
L 1060.947682 156.151127 
L 1062.18594 157.849826 
L 1063.424197 160.646351 
L 1064.662454 165.196039 
L 1065.900711 171.731423 
L 1067.138969 179.990618 
L 1069.615483 198.179159 
L 1070.853741 205.707153 
L 1072.091998 211.201965 
L 1073.330255 214.824704 
L 1074.568512 217.601456 
L 1075.80677 221.231495 
L 1077.045027 226.958197 
L 1078.283284 234.590558 
L 1080.759799 250.775409 
L 1081.998056 256.245111 
L 1083.236313 258.695714 
L 1084.474571 259.044956 
L 1085.712828 259.545157 
L 1086.951085 262.789621 
L 1088.189342 270.389579 
L 1089.4276 282.060461 
L 1090.665857 295.450997 
L 1091.904114 307.097889 
L 1093.142371 314.336967 
L 1094.380629 316.596254 
L 1095.618886 315.410565 
L 1096.857143 313.448527 
L 1098.0954 312.939476 
L 1099.333658 314.613217 
L 1101.810172 320.836372 
L 1103.04843 322.355605 
L 1104.286687 321.648176 
L 1105.524944 319.363001 
L 1106.763201 316.600688 
L 1108.001459 313.531709 
L 1109.239716 309.411396 
L 1110.477973 303.785745 
L 1112.954488 289.68583 
L 1116.669259 267.57797 
L 1117.907517 259.025858 
L 1119.145774 248.150626 
L 1120.384031 234.474086 
L 1121.622289 218.452799 
L 1125.33706 164.283113 
L 1126.575318 149.567982 
L 1127.813575 138.54075 
L 1129.051832 130.230941 
L 1130.290089 123.394925 
L 1131.528347 118.416339 
L 1132.766604 117.630856 
L 1134.004861 122.394554 
L 1135.243118 130.329772 
L 1136.481376 136.881751 
L 1137.719633 139.053456 
L 1138.95789 136.929495 
L 1140.196148 132.351592 
L 1141.434405 126.529531 
L 1142.672662 118.70778 
L 1143.910919 107.611493 
L 1146.387434 80.755115 
L 1147.625691 71.748913 
L 1148.863948 69.150804 
L 1150.102206 72.124281 
L 1151.340463 77.381384 
L 1152.57872 81.630609 
L 1153.816977 83.446196 
L 1155.055235 83.528125 
L 1156.293492 83.812413 
L 1157.531749 85.827658 
L 1158.770007 89.28384 
L 1160.008264 92.284545 
L 1161.246521 93.251104 
L 1162.484778 92.485428 
L 1163.723036 91.47827 
L 1164.961293 91.318424 
L 1166.19955 92.228449 
L 1168.676065 95.282999 
L 1169.914322 96.269928 
L 1171.152579 97.588431 
L 1172.390837 101.183721 
L 1173.629094 108.286602 
L 1176.105608 127.693094 
L 1177.343866 135.367917 
L 1178.582123 140.204765 
L 1179.82038 142.332726 
L 1181.058637 141.862812 
L 1182.296895 139.215484 
L 1184.773409 131.783635 
L 1186.011666 129.275059 
L 1187.249924 129.22164 
L 1188.488181 132.348559 
L 1189.726438 137.391744 
L 1190.964696 141.552815 
L 1192.202953 142.986289 
L 1193.44121 141.969272 
L 1194.679467 140.155491 
L 1195.917725 139.976509 
L 1197.155982 143.618958 
L 1198.394239 151.484683 
L 1200.870754 173.165187 
L 1202.109011 182.220495 
L 1203.347268 188.210414 
L 1204.585525 191.431182 
L 1205.823783 192.475674 
L 1207.06204 192.400105 
L 1208.300297 193.371577 
L 1209.538555 197.468315 
L 1210.776812 205.073042 
L 1212.015069 215.168172 
L 1214.491584 236.755089 
L 1215.729841 245.43254 
L 1218.206355 259.267369 
L 1220.68287 271.941597 
L 1221.921127 276.965517 
L 1223.159384 280.952158 
L 1225.635899 287.443817 
L 1226.874156 290.343488 
L 1228.112414 292.564244 
L 1229.350671 294.438882 
L 1230.588928 297.181024 
L 1231.827185 301.702217 
L 1233.065443 307.757286 
L 1236.780214 328.009275 
L 1238.018472 333.106844 
L 1239.256729 336.33569 
L 1240.494986 337.583973 
L 1241.733243 337.069874 
L 1242.971501 335.13579 
L 1244.209758 332.354119 
L 1245.448015 329.868013 
L 1246.686273 328.946468 
L 1247.92453 330.089639 
L 1249.162787 332.81882 
L 1250.401044 336.073249 
L 1251.639302 338.716959 
L 1252.877559 339.991338 
L 1254.115816 339.875546 
L 1255.354073 339.01562 
L 1256.592331 337.99604 
L 1257.830588 336.800622 
L 1259.068845 334.937756 
L 1260.307103 331.782949 
L 1261.54536 327.083464 
L 1264.021874 316.314552 
L 1265.260132 312.577724 
L 1266.498389 310.551823 
L 1267.736646 310.153433 
L 1268.974903 311.043755 
L 1270.213161 312.439079 
L 1271.451418 313.598429 
L 1272.689675 314.578817 
L 1273.927932 316.107145 
L 1275.16619 318.985341 
L 1276.404447 323.477866 
L 1277.642704 328.503926 
L 1278.880962 331.867737 
L 1280.119219 331.940754 
L 1281.357476 328.967885 
L 1282.595733 325.041944 
L 1283.833991 322.70579 
L 1285.072248 322.776611 
L 1286.310505 323.957705 
L 1287.548762 324.910345 
L 1288.78702 325.671605 
L 1290.025277 327.095799 
L 1291.263534 329.814721 
L 1294.978306 340.84585 
L 1296.216563 342.896575 
L 1297.454821 343.787055 
L 1298.693078 344.327541 
L 1299.931335 345.441531 
L 1301.169592 347.628594 
L 1302.40785 351.030714 
L 1303.646107 355.696324 
L 1306.122621 367.011682 
L 1307.360879 371.629567 
L 1308.599136 374.677517 
L 1309.837393 376.009629 
L 1311.07565 375.783848 
L 1312.313908 374.497982 
L 1313.552165 372.411136 
L 1314.790422 369.629223 
L 1316.02868 367.157667 
L 1317.266937 366.653939 
L 1318.505194 368.829134 
L 1320.981709 376.863037 
L 1322.219966 380.020424 
L 1323.458223 382.419844 
L 1324.69648 385.399084 
L 1325.934738 390.018347 
L 1327.172995 395.455605 
L 1328.411252 399.553205 
L 1329.649509 400.755314 
L 1330.887767 398.88317 
L 1332.126024 394.605311 
L 1334.602539 384.002218 
L 1335.840796 380.872866 
L 1337.079053 380.328581 
L 1338.31731 381.764147 
L 1339.555568 384.232047 
L 1340.793825 387.459941 
L 1342.032082 392.031775 
L 1343.270339 398.720635 
L 1345.746854 415.233375 
L 1346.985111 421.040959 
L 1348.223368 424.320414 
L 1349.461626 425.940875 
L 1350.699883 426.602615 
L 1351.93814 426.597681 
L 1353.176398 425.921517 
L 1354.414655 424.191552 
L 1356.891169 418.617431 
L 1358.129427 418.078536 
L 1359.367684 420.188621 
L 1361.844198 427.366046 
L 1363.082456 429.571471 
L 1364.320713 430.188843 
L 1365.55897 430.106107 
L 1366.797228 430.148935 
L 1369.273742 430.574337 
L 1370.511999 430.00543 
L 1371.750257 428.073524 
L 1372.988514 424.88703 
L 1376.703286 413.969248 
L 1377.941543 411.204457 
L 1379.1798 409.711384 
L 1380.418057 409.603487 
L 1381.656315 410.534608 
L 1382.894572 411.618833 
L 1384.132829 411.752097 
L 1385.371087 410.340933 
L 1386.609344 407.51226 
L 1387.847601 404.250827 
L 1389.085858 402.222746 
L 1390.324116 402.412781 
L 1391.562373 404.262118 
L 1392.80063 406.447553 
L 1394.038887 407.893346 
L 1395.277145 408.194224 
L 1396.515402 407.517265 
L 1397.753659 406.36571 
L 1398.991916 405.625659 
L 1400.230174 406.375403 
L 1401.468431 409.092548 
L 1403.944946 417.052078 
L 1405.183203 419.994949 
L 1406.42146 421.930753 
L 1407.659717 423.275376 
L 1408.897975 423.989433 
L 1410.136232 423.78257 
L 1411.374489 423.13725 
L 1412.612746 423.375346 
L 1413.851004 425.448772 
L 1415.089261 429.051146 
L 1416.327518 433.114675 
L 1417.565775 436.719802 
L 1418.804033 439.278491 
L 1420.04229 440.366331 
L 1421.280547 439.862575 
L 1422.518805 438.416377 
L 1423.757062 437.383539 
L 1424.995319 437.856683 
L 1426.233576 439.944579 
L 1428.710091 445.628594 
L 1429.948348 447.286333 
L 1432.424863 448.860361 
L 1433.66312 450.363498 
L 1434.901377 452.161472 
L 1436.139634 453.516943 
L 1437.377892 454.046455 
L 1439.854406 453.777794 
L 1441.092664 454.047175 
L 1442.330921 454.706831 
L 1443.569178 455.738013 
L 1444.807435 457.339318 
L 1446.045693 459.303529 
L 1447.28395 460.888573 
L 1448.522207 461.339599 
L 1449.760464 460.348879 
L 1450.998722 458.220082 
L 1453.475236 452.98595 
L 1454.713494 450.808464 
L 1455.951751 449.138219 
L 1457.190008 448.017437 
L 1458.428265 447.765516 
L 1459.666523 448.814931 
L 1462.143037 453.489536 
L 1463.381294 454.890991 
L 1464.619552 454.772984 
L 1467.096066 452.297036 
L 1468.334323 451.763395 
L 1469.572581 452.264266 
L 1470.810838 453.170437 
L 1472.049095 453.535554 
L 1473.287353 453.013946 
L 1474.52561 451.827013 
L 1475.763867 450.168142 
L 1477.002124 448.079538 
L 1478.240382 445.533486 
L 1479.478639 442.404239 
L 1480.716896 438.440404 
L 1481.955153 433.048199 
L 1483.193411 425.495247 
L 1484.431668 415.858117 
L 1486.908182 395.313309 
L 1488.14644 387.282191 
L 1489.384697 381.997576 
L 1490.622954 379.126292 
L 1491.861212 377.613163 
L 1494.337726 375.387654 
L 1496.814241 372.380195 
L 1498.052498 370.790477 
L 1499.290755 368.768574 
L 1500.529012 365.945906 
L 1501.76727 362.49178 
L 1503.005527 358.67532 
L 1504.243784 354.001626 
L 1505.482041 347.975699 
L 1507.958556 335.092026 
L 1509.196813 329.934876 
L 1510.435071 326.384777 
L 1511.673328 324.823915 
L 1512.911585 324.64324 
L 1514.149842 324.582869 
L 1515.3881 323.914145 
L 1516.626357 322.700085 
L 1517.864614 321.017119 
L 1519.102871 318.605806 
L 1520.341129 315.376083 
L 1524.0559 304.871262 
L 1526.532415 298.043635 
L 1527.770672 294.955078 
L 1529.00893 292.673833 
L 1530.247187 292.874781 
L 1531.485444 297.100844 
L 1533.961959 312.556858 
L 1535.200216 317.496964 
L 1536.438473 317.51347 
L 1537.67673 313.077654 
L 1538.914988 306.997401 
L 1540.153245 302.632367 
L 1541.391502 301.999611 
L 1542.62976 305.545417 
L 1543.868017 312.405839 
L 1545.106274 320.554413 
L 1546.344531 327.878737 
L 1547.582789 333.529677 
L 1548.821046 337.99314 
L 1550.059303 341.953398 
L 1551.29756 345.44757 
L 1552.535818 348.098031 
L 1553.774075 349.640404 
L 1555.012332 350.053943 
L 1556.250589 349.732773 
L 1557.488847 349.675394 
L 1558.727104 351.063365 
L 1559.965361 354.552917 
L 1563.680133 369.647674 
L 1564.91839 373.412461 
L 1566.156648 376.371925 
L 1569.871419 383.38306 
L 1572.347934 389.167318 
L 1573.586191 391.15701 
L 1574.824448 391.412467 
L 1576.062706 390.008853 
L 1577.300963 387.883197 
L 1578.53922 386.250518 
L 1579.777478 386.100509 
L 1581.015735 387.82918 
L 1582.253992 390.966101 
L 1587.207021 405.143663 
L 1588.445278 406.964956 
L 1589.683536 406.733018 
L 1590.921793 404.930545 
L 1592.16005 402.80469 
L 1597.113079 396.191976 
L 1598.351337 395.463957 
L 1599.589594 396.416064 
L 1600.827851 399.675151 
L 1602.066108 405.657847 
L 1603.304366 414.020477 
L 1604.542623 423.18083 
L 1605.78088 431.072782 
L 1607.019137 436.454798 
L 1608.257395 439.08425 
L 1609.495652 439.42016 
L 1610.733909 438.542093 
L 1611.972166 437.524368 
L 1613.210424 436.91933 
L 1614.448681 436.94066 
L 1615.686938 437.418209 
L 1616.925196 437.740261 
L 1619.40171 437.562179 
L 1620.639967 438.38014 
L 1621.878225 440.357945 
L 1623.116482 442.950125 
L 1624.354739 444.687872 
L 1625.592996 444.281533 
L 1626.831254 442.015895 
L 1628.069511 439.36857 
L 1629.307768 437.619335 
L 1630.546026 437.199673 
L 1633.02254 438.239772 
L 1634.260797 438.132961 
L 1635.499055 437.37942 
L 1636.737312 436.146951 
L 1637.975569 434.364917 
L 1639.213826 432.209874 
L 1640.452084 430.450371 
L 1641.690341 429.477899 
L 1641.690341 429.477899 
" style="fill:none;stroke:#008000;stroke-linecap:square;stroke-width:1.5;"/>
   </g>
   <g id="patch_3">
    <path d="M 43.78125 586.86358 
L 43.78125 22.318125 
" style="fill:none;stroke:#000000;stroke-linecap:square;stroke-linejoin:miter;stroke-width:0.8;"/>
   </g>
   <g id="patch_4">
    <path d="M 1717.78125 586.86358 
L 1717.78125 22.318125 
" style="fill:none;stroke:#000000;stroke-linecap:square;stroke-linejoin:miter;stroke-width:0.8;"/>
   </g>
   <g id="patch_5">
    <path d="M 43.78125 586.86358 
L 1717.78125 586.86358 
" style="fill:none;stroke:#000000;stroke-linecap:square;stroke-linejoin:miter;stroke-width:0.8;"/>
   </g>
   <g id="patch_6">
    <path d="M 43.78125 22.318125 
L 1717.78125 22.318125 
" style="fill:none;stroke:#000000;stroke-linecap:square;stroke-linejoin:miter;stroke-width:0.8;"/>
   </g>
   <g id="text_17">
    <!-- before binarisation -->
    <g transform="translate(824.1825 16.318125)scale(0.12 -0.12)">
     <defs>
      <path d="M 3116 1747 
Q 3116 2381 2855 2742 
Q 2594 3103 2138 3103 
Q 1681 3103 1420 2742 
Q 1159 2381 1159 1747 
Q 1159 1113 1420 752 
Q 1681 391 2138 391 
Q 2594 391 2855 752 
Q 3116 1113 3116 1747 
z
M 1159 2969 
Q 1341 3281 1617 3432 
Q 1894 3584 2278 3584 
Q 2916 3584 3314 3078 
Q 3713 2572 3713 1747 
Q 3713 922 3314 415 
Q 2916 -91 2278 -91 
Q 1894 -91 1617 61 
Q 1341 213 1159 525 
L 1159 0 
L 581 0 
L 581 4863 
L 1159 4863 
L 1159 2969 
z
" id="DejaVuSans-62" transform="scale(0.015625)"/>
      <path d="M 1959 3097 
Q 1497 3097 1228 2736 
Q 959 2375 959 1747 
Q 959 1119 1226 758 
Q 1494 397 1959 397 
Q 2419 397 2687 759 
Q 2956 1122 2956 1747 
Q 2956 2369 2687 2733 
Q 2419 3097 1959 3097 
z
M 1959 3584 
Q 2709 3584 3137 3096 
Q 3566 2609 3566 1747 
Q 3566 888 3137 398 
Q 2709 -91 1959 -91 
Q 1206 -91 779 398 
Q 353 888 353 1747 
Q 353 2609 779 3096 
Q 1206 3584 1959 3584 
z
" id="DejaVuSans-6f" transform="scale(0.015625)"/>
      <path id="DejaVuSans-20" transform="scale(0.015625)"/>
      <path d="M 603 3500 
L 1178 3500 
L 1178 0 
L 603 0 
L 603 3500 
z
M 603 4863 
L 1178 4863 
L 1178 4134 
L 603 4134 
L 603 4863 
z
" id="DejaVuSans-69" transform="scale(0.015625)"/>
      <path d="M 3513 2113 
L 3513 0 
L 2938 0 
L 2938 2094 
Q 2938 2591 2744 2837 
Q 2550 3084 2163 3084 
Q 1697 3084 1428 2787 
Q 1159 2491 1159 1978 
L 1159 0 
L 581 0 
L 581 3500 
L 1159 3500 
L 1159 2956 
Q 1366 3272 1645 3428 
Q 1925 3584 2291 3584 
Q 2894 3584 3203 3211 
Q 3513 2838 3513 2113 
z
" id="DejaVuSans-6e" transform="scale(0.015625)"/>
      <path d="M 2834 3397 
L 2834 2853 
Q 2591 2978 2328 3040 
Q 2066 3103 1784 3103 
Q 1356 3103 1142 2972 
Q 928 2841 928 2578 
Q 928 2378 1081 2264 
Q 1234 2150 1697 2047 
L 1894 2003 
Q 2506 1872 2764 1633 
Q 3022 1394 3022 966 
Q 3022 478 2636 193 
Q 2250 -91 1575 -91 
Q 1294 -91 989 -36 
Q 684 19 347 128 
L 347 722 
Q 666 556 975 473 
Q 1284 391 1588 391 
Q 1994 391 2212 530 
Q 2431 669 2431 922 
Q 2431 1156 2273 1281 
Q 2116 1406 1581 1522 
L 1381 1569 
Q 847 1681 609 1914 
Q 372 2147 372 2553 
Q 372 3047 722 3315 
Q 1072 3584 1716 3584 
Q 2034 3584 2315 3537 
Q 2597 3491 2834 3397 
z
" id="DejaVuSans-73" transform="scale(0.015625)"/>
      <path d="M 1172 4494 
L 1172 3500 
L 2356 3500 
L 2356 3053 
L 1172 3053 
L 1172 1153 
Q 1172 725 1289 603 
Q 1406 481 1766 481 
L 2356 481 
L 2356 0 
L 1766 0 
Q 1100 0 847 248 
Q 594 497 594 1153 
L 594 3053 
L 172 3053 
L 172 3500 
L 594 3500 
L 594 4494 
L 1172 4494 
z
" id="DejaVuSans-74" transform="scale(0.015625)"/>
     </defs>
     <use xlink:href="#DejaVuSans-62"/>
     <use x="63.476562" xlink:href="#DejaVuSans-65"/>
     <use x="125" xlink:href="#DejaVuSans-66"/>
     <use x="160.205078" xlink:href="#DejaVuSans-6f"/>
     <use x="221.386719" xlink:href="#DejaVuSans-72"/>
     <use x="260.25" xlink:href="#DejaVuSans-65"/>
     <use x="321.773438" xlink:href="#DejaVuSans-20"/>
     <use x="353.560547" xlink:href="#DejaVuSans-62"/>
     <use x="417.037109" xlink:href="#DejaVuSans-69"/>
     <use x="444.820312" xlink:href="#DejaVuSans-6e"/>
     <use x="508.199219" xlink:href="#DejaVuSans-61"/>
     <use x="569.478516" xlink:href="#DejaVuSans-72"/>
     <use x="610.591797" xlink:href="#DejaVuSans-69"/>
     <use x="638.375" xlink:href="#DejaVuSans-73"/>
     <use x="690.474609" xlink:href="#DejaVuSans-61"/>
     <use x="751.753906" xlink:href="#DejaVuSans-74"/>
     <use x="790.962891" xlink:href="#DejaVuSans-69"/>
     <use x="818.746094" xlink:href="#DejaVuSans-6f"/>
     <use x="879.927734" xlink:href="#DejaVuSans-6e"/>
    </g>
   </g>
  </g>
  <g id="axes_2">
   <g id="patch_7">
    <path d="M 43.78125 1264.318125 
L 1717.78125 1264.318125 
L 1717.78125 699.77267 
L 43.78125 699.77267 
z
" style="fill:#ffffff;"/>
   </g>
   <g id="matplotlib.axis_3">
    <g id="xtick_8">
     <g id="line2d_16">
      <g>
       <use style="stroke:#000000;stroke-width:0.8;" x="119.872159" xlink:href="#ma26e1e255c" y="1264.318125"/>
      </g>
     </g>
     <g id="text_18">
      <!-- 0 -->
      <g transform="translate(116.690909 1278.916563)scale(0.1 -0.1)">
       <use xlink:href="#DejaVuSans-30"/>
      </g>
     </g>
    </g>
    <g id="xtick_9">
     <g id="line2d_17">
      <g>
       <use style="stroke:#000000;stroke-width:0.8;" x="367.523613" xlink:href="#ma26e1e255c" y="1264.318125"/>
      </g>
     </g>
     <g id="text_19">
      <!-- 200 -->
      <g transform="translate(357.979863 1278.916563)scale(0.1 -0.1)">
       <use xlink:href="#DejaVuSans-32"/>
       <use x="63.623047" xlink:href="#DejaVuSans-30"/>
       <use x="127.246094" xlink:href="#DejaVuSans-30"/>
      </g>
     </g>
    </g>
    <g id="xtick_10">
     <g id="line2d_18">
      <g>
       <use style="stroke:#000000;stroke-width:0.8;" x="615.175066" xlink:href="#ma26e1e255c" y="1264.318125"/>
      </g>
     </g>
     <g id="text_20">
      <!-- 400 -->
      <g transform="translate(605.631316 1278.916563)scale(0.1 -0.1)">
       <use xlink:href="#DejaVuSans-34"/>
       <use x="63.623047" xlink:href="#DejaVuSans-30"/>
       <use x="127.246094" xlink:href="#DejaVuSans-30"/>
      </g>
     </g>
    </g>
    <g id="xtick_11">
     <g id="line2d_19">
      <g>
       <use style="stroke:#000000;stroke-width:0.8;" x="862.82652" xlink:href="#ma26e1e255c" y="1264.318125"/>
      </g>
     </g>
     <g id="text_21">
      <!-- 600 -->
      <g transform="translate(853.28277 1278.916563)scale(0.1 -0.1)">
       <use xlink:href="#DejaVuSans-36"/>
       <use x="63.623047" xlink:href="#DejaVuSans-30"/>
       <use x="127.246094" xlink:href="#DejaVuSans-30"/>
      </g>
     </g>
    </g>
    <g id="xtick_12">
     <g id="line2d_20">
      <g>
       <use style="stroke:#000000;stroke-width:0.8;" x="1110.477973" xlink:href="#ma26e1e255c" y="1264.318125"/>
      </g>
     </g>
     <g id="text_22">
      <!-- 800 -->
      <g transform="translate(1100.934223 1278.916563)scale(0.1 -0.1)">
       <use xlink:href="#DejaVuSans-38"/>
       <use x="63.623047" xlink:href="#DejaVuSans-30"/>
       <use x="127.246094" xlink:href="#DejaVuSans-30"/>
      </g>
     </g>
    </g>
    <g id="xtick_13">
     <g id="line2d_21">
      <g>
       <use style="stroke:#000000;stroke-width:0.8;" x="1358.129427" xlink:href="#ma26e1e255c" y="1264.318125"/>
      </g>
     </g>
     <g id="text_23">
      <!-- 1000 -->
      <g transform="translate(1345.404427 1278.916563)scale(0.1 -0.1)">
       <use xlink:href="#DejaVuSans-31"/>
       <use x="63.623047" xlink:href="#DejaVuSans-30"/>
       <use x="127.246094" xlink:href="#DejaVuSans-30"/>
       <use x="190.869141" xlink:href="#DejaVuSans-30"/>
      </g>
     </g>
    </g>
    <g id="xtick_14">
     <g id="line2d_22">
      <g>
       <use style="stroke:#000000;stroke-width:0.8;" x="1605.78088" xlink:href="#ma26e1e255c" y="1264.318125"/>
      </g>
     </g>
     <g id="text_24">
      <!-- 1200 -->
      <g transform="translate(1593.05588 1278.916563)scale(0.1 -0.1)">
       <use xlink:href="#DejaVuSans-31"/>
       <use x="63.623047" xlink:href="#DejaVuSans-32"/>
       <use x="127.246094" xlink:href="#DejaVuSans-30"/>
       <use x="190.869141" xlink:href="#DejaVuSans-30"/>
      </g>
     </g>
    </g>
    <g id="text_25">
     <!-- frame -->
     <g transform="translate(865.954687 1292.594688)scale(0.1 -0.1)">
      <use xlink:href="#DejaVuSans-66"/>
      <use x="35.205078" xlink:href="#DejaVuSans-72"/>
      <use x="76.318359" xlink:href="#DejaVuSans-61"/>
      <use x="137.597656" xlink:href="#DejaVuSans-6d"/>
      <use x="235.009766" xlink:href="#DejaVuSans-65"/>
     </g>
    </g>
   </g>
   <g id="matplotlib.axis_4">
    <g id="ytick_8">
     <g id="line2d_23">
      <g>
       <use style="stroke:#000000;stroke-width:0.8;" x="43.78125" xlink:href="#m91641ff2c5" y="1238.656968"/>
      </g>
     </g>
     <g id="text_26">
      <!-- 0.0 -->
      <g transform="translate(20.878125 1242.456187)scale(0.1 -0.1)">
       <use xlink:href="#DejaVuSans-30"/>
       <use x="63.623047" xlink:href="#DejaVuSans-2e"/>
       <use x="95.410156" xlink:href="#DejaVuSans-30"/>
      </g>
     </g>
    </g>
    <g id="ytick_9">
     <g id="line2d_24">
      <g>
       <use style="stroke:#000000;stroke-width:0.8;" x="43.78125" xlink:href="#m91641ff2c5" y="1136.01234"/>
      </g>
     </g>
     <g id="text_27">
      <!-- 0.2 -->
      <g transform="translate(20.878125 1139.811559)scale(0.1 -0.1)">
       <use xlink:href="#DejaVuSans-30"/>
       <use x="63.623047" xlink:href="#DejaVuSans-2e"/>
       <use x="95.410156" xlink:href="#DejaVuSans-32"/>
      </g>
     </g>
    </g>
    <g id="ytick_10">
     <g id="line2d_25">
      <g>
       <use style="stroke:#000000;stroke-width:0.8;" x="43.78125" xlink:href="#m91641ff2c5" y="1033.367712"/>
      </g>
     </g>
     <g id="text_28">
      <!-- 0.4 -->
      <g transform="translate(20.878125 1037.166931)scale(0.1 -0.1)">
       <use xlink:href="#DejaVuSans-30"/>
       <use x="63.623047" xlink:href="#DejaVuSans-2e"/>
       <use x="95.410156" xlink:href="#DejaVuSans-34"/>
      </g>
     </g>
    </g>
    <g id="ytick_11">
     <g id="line2d_26">
      <g>
       <use style="stroke:#000000;stroke-width:0.8;" x="43.78125" xlink:href="#m91641ff2c5" y="930.723084"/>
      </g>
     </g>
     <g id="text_29">
      <!-- 0.6 -->
      <g transform="translate(20.878125 934.522302)scale(0.1 -0.1)">
       <use xlink:href="#DejaVuSans-30"/>
       <use x="63.623047" xlink:href="#DejaVuSans-2e"/>
       <use x="95.410156" xlink:href="#DejaVuSans-36"/>
      </g>
     </g>
    </g>
    <g id="ytick_12">
     <g id="line2d_27">
      <g>
       <use style="stroke:#000000;stroke-width:0.8;" x="43.78125" xlink:href="#m91641ff2c5" y="828.078456"/>
      </g>
     </g>
     <g id="text_30">
      <!-- 0.8 -->
      <g transform="translate(20.878125 831.877674)scale(0.1 -0.1)">
       <use xlink:href="#DejaVuSans-30"/>
       <use x="63.623047" xlink:href="#DejaVuSans-2e"/>
       <use x="95.410156" xlink:href="#DejaVuSans-38"/>
      </g>
     </g>
    </g>
    <g id="ytick_13">
     <g id="line2d_28">
      <g>
       <use style="stroke:#000000;stroke-width:0.8;" x="43.78125" xlink:href="#m91641ff2c5" y="725.433827"/>
      </g>
     </g>
     <g id="text_31">
      <!-- 1.0 -->
      <g transform="translate(20.878125 729.233046)scale(0.1 -0.1)">
       <use xlink:href="#DejaVuSans-31"/>
       <use x="63.623047" xlink:href="#DejaVuSans-2e"/>
       <use x="95.410156" xlink:href="#DejaVuSans-30"/>
      </g>
     </g>
    </g>
    <g id="text_32">
     <!-- GCaMP -->
     <g transform="translate(14.798437 999.803991)rotate(-90)scale(0.1 -0.1)">
      <use xlink:href="#DejaVuSans-47"/>
      <use x="77.490234" xlink:href="#DejaVuSans-43"/>
      <use x="147.314453" xlink:href="#DejaVuSans-61"/>
      <use x="208.59375" xlink:href="#DejaVuSans-4d"/>
      <use x="294.873047" xlink:href="#DejaVuSans-50"/>
     </g>
    </g>
   </g>
   <g id="line2d_29">
    <path clip-path="url(#pa7a077b0ee)" d="M 119.872159 1238.656968 
L 657.275813 1238.656968 
L 658.51407 725.433827 
L 758.812909 725.433827 
L 760.051166 1238.656968 
L 1046.088595 1238.656968 
L 1047.326852 725.433827 
L 1086.951085 725.433827 
L 1088.189342 1238.656968 
L 1115.431002 1238.656968 
L 1116.669259 725.433827 
L 1219.444613 725.433827 
L 1220.68287 1238.656968 
L 1641.690341 1238.656968 
L 1641.690341 1238.656968 
" style="fill:none;stroke:#008000;stroke-linecap:square;stroke-width:1.5;"/>
   </g>
   <g id="patch_8">
    <path d="M 43.78125 1264.318125 
L 43.78125 699.77267 
" style="fill:none;stroke:#000000;stroke-linecap:square;stroke-linejoin:miter;stroke-width:0.8;"/>
   </g>
   <g id="patch_9">
    <path d="M 1717.78125 1264.318125 
L 1717.78125 699.77267 
" style="fill:none;stroke:#000000;stroke-linecap:square;stroke-linejoin:miter;stroke-width:0.8;"/>
   </g>
   <g id="patch_10">
    <path d="M 43.78125 1264.318125 
L 1717.78125 1264.318125 
" style="fill:none;stroke:#000000;stroke-linecap:square;stroke-linejoin:miter;stroke-width:0.8;"/>
   </g>
   <g id="patch_11">
    <path d="M 43.78125 699.77267 
L 1717.78125 699.77267 
" style="fill:none;stroke:#000000;stroke-linecap:square;stroke-linejoin:miter;stroke-width:0.8;"/>
   </g>
   <g id="text_33">
    <!-- before binarisation -->
    <g transform="translate(824.1825 693.77267)scale(0.12 -0.12)">
     <use xlink:href="#DejaVuSans-62"/>
     <use x="63.476562" xlink:href="#DejaVuSans-65"/>
     <use x="125" xlink:href="#DejaVuSans-66"/>
     <use x="160.205078" xlink:href="#DejaVuSans-6f"/>
     <use x="221.386719" xlink:href="#DejaVuSans-72"/>
     <use x="260.25" xlink:href="#DejaVuSans-65"/>
     <use x="321.773438" xlink:href="#DejaVuSans-20"/>
     <use x="353.560547" xlink:href="#DejaVuSans-62"/>
     <use x="417.037109" xlink:href="#DejaVuSans-69"/>
     <use x="444.820312" xlink:href="#DejaVuSans-6e"/>
     <use x="508.199219" xlink:href="#DejaVuSans-61"/>
     <use x="569.478516" xlink:href="#DejaVuSans-72"/>
     <use x="610.591797" xlink:href="#DejaVuSans-69"/>
     <use x="638.375" xlink:href="#DejaVuSans-73"/>
     <use x="690.474609" xlink:href="#DejaVuSans-61"/>
     <use x="751.753906" xlink:href="#DejaVuSans-74"/>
     <use x="790.962891" xlink:href="#DejaVuSans-69"/>
     <use x="818.746094" xlink:href="#DejaVuSans-6f"/>
     <use x="879.927734" xlink:href="#DejaVuSans-6e"/>
    </g>
   </g>
  </g>
 </g>
 <defs>
  <clipPath id="p7094b2ef40">
   <rect height="564.545455" width="1674" x="43.78125" y="22.318125"/>
  </clipPath>
  <clipPath id="pa7a077b0ee">
   <rect height="564.545455" width="1674" x="43.78125" y="699.77267"/>
  </clipPath>
 </defs>
</svg>
