<?xml version="1.0" encoding="utf-8" standalone="no"?>
<!DOCTYPE svg PUBLIC "-//W3C//DTD SVG 1.1//EN"
  "http://www.w3.org/Graphics/SVG/1.1/DTD/svg11.dtd">
<svg height="1301.874375pt" version="1.1" viewBox="0 0 1724.98125 1301.874375" width="1724.98125pt" xmlns="http://www.w3.org/2000/svg" xmlns:xlink="http://www.w3.org/1999/xlink">
 <metadata>
  <rdf:RDF xmlns:cc="http://creativecommons.org/ns#" xmlns:dc="http://purl.org/dc/elements/1.1/" xmlns:rdf="http://www.w3.org/1999/02/22-rdf-syntax-ns#">
   <cc:Work>
    <dc:type rdf:resource="http://purl.org/dc/dcmitype/StillImage"/>
    <dc:date>2022-07-24T15:54:42.460111</dc:date>
    <dc:format>image/svg+xml</dc:format>
    <dc:creator>
     <cc:Agent>
      <dc:title>Matplotlib v3.4.2, https://matplotlib.org/</dc:title>
     </cc:Agent>
    </dc:creator>
   </cc:Work>
  </rdf:RDF>
 </metadata>
 <defs>
  <style type="text/css">*{stroke-linecap:butt;stroke-linejoin:round;}</style>
 </defs>
 <g id="figure_1">
  <g id="patch_1">
   <path d="M 0 1301.874375 
L 1724.98125 1301.874375 
L 1724.98125 0 
L 0 0 
z
" style="fill:#ffffff;"/>
  </g>
  <g id="axes_1">
   <g id="patch_2">
    <path d="M 43.78125 586.86358 
L 1717.78125 586.86358 
L 1717.78125 22.318125 
L 43.78125 22.318125 
z
" style="fill:#ffffff;"/>
   </g>
   <g id="matplotlib.axis_1">
    <g id="xtick_1">
     <g id="line2d_1">
      <defs>
       <path d="M 0 0 
L 0 3.5 
" id="m141ae861ab" style="stroke:#000000;stroke-width:0.8;"/>
      </defs>
      <g>
       <use style="stroke:#000000;stroke-width:0.8;" x="119.872159" xlink:href="#m141ae861ab" y="586.86358"/>
      </g>
     </g>
     <g id="text_1">
      <!-- 0 -->
      <g transform="translate(116.690909 601.462017)scale(0.1 -0.1)">
       <defs>
        <path d="M 2034 4250 
Q 1547 4250 1301 3770 
Q 1056 3291 1056 2328 
Q 1056 1369 1301 889 
Q 1547 409 2034 409 
Q 2525 409 2770 889 
Q 3016 1369 3016 2328 
Q 3016 3291 2770 3770 
Q 2525 4250 2034 4250 
z
M 2034 4750 
Q 2819 4750 3233 4129 
Q 3647 3509 3647 2328 
Q 3647 1150 3233 529 
Q 2819 -91 2034 -91 
Q 1250 -91 836 529 
Q 422 1150 422 2328 
Q 422 3509 836 4129 
Q 1250 4750 2034 4750 
z
" id="DejaVuSans-30" transform="scale(0.015625)"/>
       </defs>
       <use xlink:href="#DejaVuSans-30"/>
      </g>
     </g>
    </g>
    <g id="xtick_2">
     <g id="line2d_2">
      <g>
       <use style="stroke:#000000;stroke-width:0.8;" x="367.523613" xlink:href="#m141ae861ab" y="586.86358"/>
      </g>
     </g>
     <g id="text_2">
      <!-- 200 -->
      <g transform="translate(357.979863 601.462017)scale(0.1 -0.1)">
       <defs>
        <path d="M 1228 531 
L 3431 531 
L 3431 0 
L 469 0 
L 469 531 
Q 828 903 1448 1529 
Q 2069 2156 2228 2338 
Q 2531 2678 2651 2914 
Q 2772 3150 2772 3378 
Q 2772 3750 2511 3984 
Q 2250 4219 1831 4219 
Q 1534 4219 1204 4116 
Q 875 4013 500 3803 
L 500 4441 
Q 881 4594 1212 4672 
Q 1544 4750 1819 4750 
Q 2544 4750 2975 4387 
Q 3406 4025 3406 3419 
Q 3406 3131 3298 2873 
Q 3191 2616 2906 2266 
Q 2828 2175 2409 1742 
Q 1991 1309 1228 531 
z
" id="DejaVuSans-32" transform="scale(0.015625)"/>
       </defs>
       <use xlink:href="#DejaVuSans-32"/>
       <use x="63.623047" xlink:href="#DejaVuSans-30"/>
       <use x="127.246094" xlink:href="#DejaVuSans-30"/>
      </g>
     </g>
    </g>
    <g id="xtick_3">
     <g id="line2d_3">
      <g>
       <use style="stroke:#000000;stroke-width:0.8;" x="615.175066" xlink:href="#m141ae861ab" y="586.86358"/>
      </g>
     </g>
     <g id="text_3">
      <!-- 400 -->
      <g transform="translate(605.631316 601.462017)scale(0.1 -0.1)">
       <defs>
        <path d="M 2419 4116 
L 825 1625 
L 2419 1625 
L 2419 4116 
z
M 2253 4666 
L 3047 4666 
L 3047 1625 
L 3713 1625 
L 3713 1100 
L 3047 1100 
L 3047 0 
L 2419 0 
L 2419 1100 
L 313 1100 
L 313 1709 
L 2253 4666 
z
" id="DejaVuSans-34" transform="scale(0.015625)"/>
       </defs>
       <use xlink:href="#DejaVuSans-34"/>
       <use x="63.623047" xlink:href="#DejaVuSans-30"/>
       <use x="127.246094" xlink:href="#DejaVuSans-30"/>
      </g>
     </g>
    </g>
    <g id="xtick_4">
     <g id="line2d_4">
      <g>
       <use style="stroke:#000000;stroke-width:0.8;" x="862.82652" xlink:href="#m141ae861ab" y="586.86358"/>
      </g>
     </g>
     <g id="text_4">
      <!-- 600 -->
      <g transform="translate(853.28277 601.462017)scale(0.1 -0.1)">
       <defs>
        <path d="M 2113 2584 
Q 1688 2584 1439 2293 
Q 1191 2003 1191 1497 
Q 1191 994 1439 701 
Q 1688 409 2113 409 
Q 2538 409 2786 701 
Q 3034 994 3034 1497 
Q 3034 2003 2786 2293 
Q 2538 2584 2113 2584 
z
M 3366 4563 
L 3366 3988 
Q 3128 4100 2886 4159 
Q 2644 4219 2406 4219 
Q 1781 4219 1451 3797 
Q 1122 3375 1075 2522 
Q 1259 2794 1537 2939 
Q 1816 3084 2150 3084 
Q 2853 3084 3261 2657 
Q 3669 2231 3669 1497 
Q 3669 778 3244 343 
Q 2819 -91 2113 -91 
Q 1303 -91 875 529 
Q 447 1150 447 2328 
Q 447 3434 972 4092 
Q 1497 4750 2381 4750 
Q 2619 4750 2861 4703 
Q 3103 4656 3366 4563 
z
" id="DejaVuSans-36" transform="scale(0.015625)"/>
       </defs>
       <use xlink:href="#DejaVuSans-36"/>
       <use x="63.623047" xlink:href="#DejaVuSans-30"/>
       <use x="127.246094" xlink:href="#DejaVuSans-30"/>
      </g>
     </g>
    </g>
    <g id="xtick_5">
     <g id="line2d_5">
      <g>
       <use style="stroke:#000000;stroke-width:0.8;" x="1110.477973" xlink:href="#m141ae861ab" y="586.86358"/>
      </g>
     </g>
     <g id="text_5">
      <!-- 800 -->
      <g transform="translate(1100.934223 601.462017)scale(0.1 -0.1)">
       <defs>
        <path d="M 2034 2216 
Q 1584 2216 1326 1975 
Q 1069 1734 1069 1313 
Q 1069 891 1326 650 
Q 1584 409 2034 409 
Q 2484 409 2743 651 
Q 3003 894 3003 1313 
Q 3003 1734 2745 1975 
Q 2488 2216 2034 2216 
z
M 1403 2484 
Q 997 2584 770 2862 
Q 544 3141 544 3541 
Q 544 4100 942 4425 
Q 1341 4750 2034 4750 
Q 2731 4750 3128 4425 
Q 3525 4100 3525 3541 
Q 3525 3141 3298 2862 
Q 3072 2584 2669 2484 
Q 3125 2378 3379 2068 
Q 3634 1759 3634 1313 
Q 3634 634 3220 271 
Q 2806 -91 2034 -91 
Q 1263 -91 848 271 
Q 434 634 434 1313 
Q 434 1759 690 2068 
Q 947 2378 1403 2484 
z
M 1172 3481 
Q 1172 3119 1398 2916 
Q 1625 2713 2034 2713 
Q 2441 2713 2670 2916 
Q 2900 3119 2900 3481 
Q 2900 3844 2670 4047 
Q 2441 4250 2034 4250 
Q 1625 4250 1398 4047 
Q 1172 3844 1172 3481 
z
" id="DejaVuSans-38" transform="scale(0.015625)"/>
       </defs>
       <use xlink:href="#DejaVuSans-38"/>
       <use x="63.623047" xlink:href="#DejaVuSans-30"/>
       <use x="127.246094" xlink:href="#DejaVuSans-30"/>
      </g>
     </g>
    </g>
    <g id="xtick_6">
     <g id="line2d_6">
      <g>
       <use style="stroke:#000000;stroke-width:0.8;" x="1358.129427" xlink:href="#m141ae861ab" y="586.86358"/>
      </g>
     </g>
     <g id="text_6">
      <!-- 1000 -->
      <g transform="translate(1345.404427 601.462017)scale(0.1 -0.1)">
       <defs>
        <path d="M 794 531 
L 1825 531 
L 1825 4091 
L 703 3866 
L 703 4441 
L 1819 4666 
L 2450 4666 
L 2450 531 
L 3481 531 
L 3481 0 
L 794 0 
L 794 531 
z
" id="DejaVuSans-31" transform="scale(0.015625)"/>
       </defs>
       <use xlink:href="#DejaVuSans-31"/>
       <use x="63.623047" xlink:href="#DejaVuSans-30"/>
       <use x="127.246094" xlink:href="#DejaVuSans-30"/>
       <use x="190.869141" xlink:href="#DejaVuSans-30"/>
      </g>
     </g>
    </g>
    <g id="xtick_7">
     <g id="line2d_7">
      <g>
       <use style="stroke:#000000;stroke-width:0.8;" x="1605.78088" xlink:href="#m141ae861ab" y="586.86358"/>
      </g>
     </g>
     <g id="text_7">
      <!-- 1200 -->
      <g transform="translate(1593.05588 601.462017)scale(0.1 -0.1)">
       <use xlink:href="#DejaVuSans-31"/>
       <use x="63.623047" xlink:href="#DejaVuSans-32"/>
       <use x="127.246094" xlink:href="#DejaVuSans-30"/>
       <use x="190.869141" xlink:href="#DejaVuSans-30"/>
      </g>
     </g>
    </g>
    <g id="text_8">
     <!-- frame -->
     <g transform="translate(865.954687 615.140142)scale(0.1 -0.1)">
      <defs>
       <path d="M 2375 4863 
L 2375 4384 
L 1825 4384 
Q 1516 4384 1395 4259 
Q 1275 4134 1275 3809 
L 1275 3500 
L 2222 3500 
L 2222 3053 
L 1275 3053 
L 1275 0 
L 697 0 
L 697 3053 
L 147 3053 
L 147 3500 
L 697 3500 
L 697 3744 
Q 697 4328 969 4595 
Q 1241 4863 1831 4863 
L 2375 4863 
z
" id="DejaVuSans-66" transform="scale(0.015625)"/>
       <path d="M 2631 2963 
Q 2534 3019 2420 3045 
Q 2306 3072 2169 3072 
Q 1681 3072 1420 2755 
Q 1159 2438 1159 1844 
L 1159 0 
L 581 0 
L 581 3500 
L 1159 3500 
L 1159 2956 
Q 1341 3275 1631 3429 
Q 1922 3584 2338 3584 
Q 2397 3584 2469 3576 
Q 2541 3569 2628 3553 
L 2631 2963 
z
" id="DejaVuSans-72" transform="scale(0.015625)"/>
       <path d="M 2194 1759 
Q 1497 1759 1228 1600 
Q 959 1441 959 1056 
Q 959 750 1161 570 
Q 1363 391 1709 391 
Q 2188 391 2477 730 
Q 2766 1069 2766 1631 
L 2766 1759 
L 2194 1759 
z
M 3341 1997 
L 3341 0 
L 2766 0 
L 2766 531 
Q 2569 213 2275 61 
Q 1981 -91 1556 -91 
Q 1019 -91 701 211 
Q 384 513 384 1019 
Q 384 1609 779 1909 
Q 1175 2209 1959 2209 
L 2766 2209 
L 2766 2266 
Q 2766 2663 2505 2880 
Q 2244 3097 1772 3097 
Q 1472 3097 1187 3025 
Q 903 2953 641 2809 
L 641 3341 
Q 956 3463 1253 3523 
Q 1550 3584 1831 3584 
Q 2591 3584 2966 3190 
Q 3341 2797 3341 1997 
z
" id="DejaVuSans-61" transform="scale(0.015625)"/>
       <path d="M 3328 2828 
Q 3544 3216 3844 3400 
Q 4144 3584 4550 3584 
Q 5097 3584 5394 3201 
Q 5691 2819 5691 2113 
L 5691 0 
L 5113 0 
L 5113 2094 
Q 5113 2597 4934 2840 
Q 4756 3084 4391 3084 
Q 3944 3084 3684 2787 
Q 3425 2491 3425 1978 
L 3425 0 
L 2847 0 
L 2847 2094 
Q 2847 2600 2669 2842 
Q 2491 3084 2119 3084 
Q 1678 3084 1418 2786 
Q 1159 2488 1159 1978 
L 1159 0 
L 581 0 
L 581 3500 
L 1159 3500 
L 1159 2956 
Q 1356 3278 1631 3431 
Q 1906 3584 2284 3584 
Q 2666 3584 2933 3390 
Q 3200 3197 3328 2828 
z
" id="DejaVuSans-6d" transform="scale(0.015625)"/>
       <path d="M 3597 1894 
L 3597 1613 
L 953 1613 
Q 991 1019 1311 708 
Q 1631 397 2203 397 
Q 2534 397 2845 478 
Q 3156 559 3463 722 
L 3463 178 
Q 3153 47 2828 -22 
Q 2503 -91 2169 -91 
Q 1331 -91 842 396 
Q 353 884 353 1716 
Q 353 2575 817 3079 
Q 1281 3584 2069 3584 
Q 2775 3584 3186 3129 
Q 3597 2675 3597 1894 
z
M 3022 2063 
Q 3016 2534 2758 2815 
Q 2500 3097 2075 3097 
Q 1594 3097 1305 2825 
Q 1016 2553 972 2059 
L 3022 2063 
z
" id="DejaVuSans-65" transform="scale(0.015625)"/>
      </defs>
      <use xlink:href="#DejaVuSans-66"/>
      <use x="35.205078" xlink:href="#DejaVuSans-72"/>
      <use x="76.318359" xlink:href="#DejaVuSans-61"/>
      <use x="137.597656" xlink:href="#DejaVuSans-6d"/>
      <use x="235.009766" xlink:href="#DejaVuSans-65"/>
     </g>
    </g>
   </g>
   <g id="matplotlib.axis_2">
    <g id="ytick_1">
     <g id="line2d_8">
      <defs>
       <path d="M 0 0 
L -3.5 0 
" id="mec1a33169a" style="stroke:#000000;stroke-width:0.8;"/>
      </defs>
      <g>
       <use style="stroke:#000000;stroke-width:0.8;" x="43.78125" xlink:href="#mec1a33169a" y="543.669178"/>
      </g>
     </g>
     <g id="text_9">
      <!-- 0.7 -->
      <g transform="translate(20.878125 547.468397)scale(0.1 -0.1)">
       <defs>
        <path d="M 684 794 
L 1344 794 
L 1344 0 
L 684 0 
L 684 794 
z
" id="DejaVuSans-2e" transform="scale(0.015625)"/>
        <path d="M 525 4666 
L 3525 4666 
L 3525 4397 
L 1831 0 
L 1172 0 
L 2766 4134 
L 525 4134 
L 525 4666 
z
" id="DejaVuSans-37" transform="scale(0.015625)"/>
       </defs>
       <use xlink:href="#DejaVuSans-30"/>
       <use x="63.623047" xlink:href="#DejaVuSans-2e"/>
       <use x="95.410156" xlink:href="#DejaVuSans-37"/>
      </g>
     </g>
    </g>
    <g id="ytick_2">
     <g id="line2d_9">
      <g>
       <use style="stroke:#000000;stroke-width:0.8;" x="43.78125" xlink:href="#mec1a33169a" y="474.289165"/>
      </g>
     </g>
     <g id="text_10">
      <!-- 0.8 -->
      <g transform="translate(20.878125 478.088384)scale(0.1 -0.1)">
       <use xlink:href="#DejaVuSans-30"/>
       <use x="63.623047" xlink:href="#DejaVuSans-2e"/>
       <use x="95.410156" xlink:href="#DejaVuSans-38"/>
      </g>
     </g>
    </g>
    <g id="ytick_3">
     <g id="line2d_10">
      <g>
       <use style="stroke:#000000;stroke-width:0.8;" x="43.78125" xlink:href="#mec1a33169a" y="404.909152"/>
      </g>
     </g>
     <g id="text_11">
      <!-- 0.9 -->
      <g transform="translate(20.878125 408.708371)scale(0.1 -0.1)">
       <defs>
        <path d="M 703 97 
L 703 672 
Q 941 559 1184 500 
Q 1428 441 1663 441 
Q 2288 441 2617 861 
Q 2947 1281 2994 2138 
Q 2813 1869 2534 1725 
Q 2256 1581 1919 1581 
Q 1219 1581 811 2004 
Q 403 2428 403 3163 
Q 403 3881 828 4315 
Q 1253 4750 1959 4750 
Q 2769 4750 3195 4129 
Q 3622 3509 3622 2328 
Q 3622 1225 3098 567 
Q 2575 -91 1691 -91 
Q 1453 -91 1209 -44 
Q 966 3 703 97 
z
M 1959 2075 
Q 2384 2075 2632 2365 
Q 2881 2656 2881 3163 
Q 2881 3666 2632 3958 
Q 2384 4250 1959 4250 
Q 1534 4250 1286 3958 
Q 1038 3666 1038 3163 
Q 1038 2656 1286 2365 
Q 1534 2075 1959 2075 
z
" id="DejaVuSans-39" transform="scale(0.015625)"/>
       </defs>
       <use xlink:href="#DejaVuSans-30"/>
       <use x="63.623047" xlink:href="#DejaVuSans-2e"/>
       <use x="95.410156" xlink:href="#DejaVuSans-39"/>
      </g>
     </g>
    </g>
    <g id="ytick_4">
     <g id="line2d_11">
      <g>
       <use style="stroke:#000000;stroke-width:0.8;" x="43.78125" xlink:href="#mec1a33169a" y="335.529139"/>
      </g>
     </g>
     <g id="text_12">
      <!-- 1.0 -->
      <g transform="translate(20.878125 339.328358)scale(0.1 -0.1)">
       <use xlink:href="#DejaVuSans-31"/>
       <use x="63.623047" xlink:href="#DejaVuSans-2e"/>
       <use x="95.410156" xlink:href="#DejaVuSans-30"/>
      </g>
     </g>
    </g>
    <g id="ytick_5">
     <g id="line2d_12">
      <g>
       <use style="stroke:#000000;stroke-width:0.8;" x="43.78125" xlink:href="#mec1a33169a" y="266.149126"/>
      </g>
     </g>
     <g id="text_13">
      <!-- 1.1 -->
      <g transform="translate(20.878125 269.948345)scale(0.1 -0.1)">
       <use xlink:href="#DejaVuSans-31"/>
       <use x="63.623047" xlink:href="#DejaVuSans-2e"/>
       <use x="95.410156" xlink:href="#DejaVuSans-31"/>
      </g>
     </g>
    </g>
    <g id="ytick_6">
     <g id="line2d_13">
      <g>
       <use style="stroke:#000000;stroke-width:0.8;" x="43.78125" xlink:href="#mec1a33169a" y="196.769113"/>
      </g>
     </g>
     <g id="text_14">
      <!-- 1.2 -->
      <g transform="translate(20.878125 200.568332)scale(0.1 -0.1)">
       <use xlink:href="#DejaVuSans-31"/>
       <use x="63.623047" xlink:href="#DejaVuSans-2e"/>
       <use x="95.410156" xlink:href="#DejaVuSans-32"/>
      </g>
     </g>
    </g>
    <g id="ytick_7">
     <g id="line2d_14">
      <g>
       <use style="stroke:#000000;stroke-width:0.8;" x="43.78125" xlink:href="#mec1a33169a" y="127.3891"/>
      </g>
     </g>
     <g id="text_15">
      <!-- 1.3 -->
      <g transform="translate(20.878125 131.188319)scale(0.1 -0.1)">
       <defs>
        <path d="M 2597 2516 
Q 3050 2419 3304 2112 
Q 3559 1806 3559 1356 
Q 3559 666 3084 287 
Q 2609 -91 1734 -91 
Q 1441 -91 1130 -33 
Q 819 25 488 141 
L 488 750 
Q 750 597 1062 519 
Q 1375 441 1716 441 
Q 2309 441 2620 675 
Q 2931 909 2931 1356 
Q 2931 1769 2642 2001 
Q 2353 2234 1838 2234 
L 1294 2234 
L 1294 2753 
L 1863 2753 
Q 2328 2753 2575 2939 
Q 2822 3125 2822 3475 
Q 2822 3834 2567 4026 
Q 2313 4219 1838 4219 
Q 1578 4219 1281 4162 
Q 984 4106 628 3988 
L 628 4550 
Q 988 4650 1302 4700 
Q 1616 4750 1894 4750 
Q 2613 4750 3031 4423 
Q 3450 4097 3450 3541 
Q 3450 3153 3228 2886 
Q 3006 2619 2597 2516 
z
" id="DejaVuSans-33" transform="scale(0.015625)"/>
       </defs>
       <use xlink:href="#DejaVuSans-31"/>
       <use x="63.623047" xlink:href="#DejaVuSans-2e"/>
       <use x="95.410156" xlink:href="#DejaVuSans-33"/>
      </g>
     </g>
    </g>
    <g id="ytick_8">
     <g id="line2d_15">
      <g>
       <use style="stroke:#000000;stroke-width:0.8;" x="43.78125" xlink:href="#mec1a33169a" y="58.009087"/>
      </g>
     </g>
     <g id="text_16">
      <!-- 1.4 -->
      <g transform="translate(20.878125 61.808306)scale(0.1 -0.1)">
       <use xlink:href="#DejaVuSans-31"/>
       <use x="63.623047" xlink:href="#DejaVuSans-2e"/>
       <use x="95.410156" xlink:href="#DejaVuSans-34"/>
      </g>
     </g>
    </g>
    <g id="text_17">
     <!-- GCaMP -->
     <g transform="translate(14.798437 322.349446)rotate(-90)scale(0.1 -0.1)">
      <defs>
       <path d="M 3809 666 
L 3809 1919 
L 2778 1919 
L 2778 2438 
L 4434 2438 
L 4434 434 
Q 4069 175 3628 42 
Q 3188 -91 2688 -91 
Q 1594 -91 976 548 
Q 359 1188 359 2328 
Q 359 3472 976 4111 
Q 1594 4750 2688 4750 
Q 3144 4750 3555 4637 
Q 3966 4525 4313 4306 
L 4313 3634 
Q 3963 3931 3569 4081 
Q 3175 4231 2741 4231 
Q 1884 4231 1454 3753 
Q 1025 3275 1025 2328 
Q 1025 1384 1454 906 
Q 1884 428 2741 428 
Q 3075 428 3337 486 
Q 3600 544 3809 666 
z
" id="DejaVuSans-47" transform="scale(0.015625)"/>
       <path d="M 4122 4306 
L 4122 3641 
Q 3803 3938 3442 4084 
Q 3081 4231 2675 4231 
Q 1875 4231 1450 3742 
Q 1025 3253 1025 2328 
Q 1025 1406 1450 917 
Q 1875 428 2675 428 
Q 3081 428 3442 575 
Q 3803 722 4122 1019 
L 4122 359 
Q 3791 134 3420 21 
Q 3050 -91 2638 -91 
Q 1578 -91 968 557 
Q 359 1206 359 2328 
Q 359 3453 968 4101 
Q 1578 4750 2638 4750 
Q 3056 4750 3426 4639 
Q 3797 4528 4122 4306 
z
" id="DejaVuSans-43" transform="scale(0.015625)"/>
       <path d="M 628 4666 
L 1569 4666 
L 2759 1491 
L 3956 4666 
L 4897 4666 
L 4897 0 
L 4281 0 
L 4281 4097 
L 3078 897 
L 2444 897 
L 1241 4097 
L 1241 0 
L 628 0 
L 628 4666 
z
" id="DejaVuSans-4d" transform="scale(0.015625)"/>
       <path d="M 1259 4147 
L 1259 2394 
L 2053 2394 
Q 2494 2394 2734 2622 
Q 2975 2850 2975 3272 
Q 2975 3691 2734 3919 
Q 2494 4147 2053 4147 
L 1259 4147 
z
M 628 4666 
L 2053 4666 
Q 2838 4666 3239 4311 
Q 3641 3956 3641 3272 
Q 3641 2581 3239 2228 
Q 2838 1875 2053 1875 
L 1259 1875 
L 1259 0 
L 628 0 
L 628 4666 
z
" id="DejaVuSans-50" transform="scale(0.015625)"/>
      </defs>
      <use xlink:href="#DejaVuSans-47"/>
      <use x="77.490234" xlink:href="#DejaVuSans-43"/>
      <use x="147.314453" xlink:href="#DejaVuSans-61"/>
      <use x="208.59375" xlink:href="#DejaVuSans-4d"/>
      <use x="294.873047" xlink:href="#DejaVuSans-50"/>
     </g>
    </g>
   </g>
   <g id="line2d_16">
    <path clip-path="url(#p8ec837bccf)" d="M 119.872159 561.202423 
L 121.110416 553.935527 
L 122.348674 549.773122 
L 123.586931 549.726843 
L 124.825188 552.593602 
L 126.063445 556.104006 
L 127.301703 557.976016 
L 128.53996 557.103073 
L 129.778217 554.299467 
L 132.254732 547.838848 
L 133.492989 544.95101 
L 134.731246 543.338979 
L 135.969504 543.643415 
L 138.446018 546.896889 
L 139.684275 547.607992 
L 140.922533 547.355924 
L 142.16079 546.497421 
L 143.399047 545.389215 
L 144.637304 545.069295 
L 145.875562 546.777363 
L 148.352076 553.136912 
L 149.590334 554.497977 
L 150.828591 554.180226 
L 152.066848 552.601833 
L 153.305105 549.849234 
L 154.543363 545.881248 
L 157.019877 536.520109 
L 158.258134 532.819833 
L 160.734649 527.001629 
L 161.972906 524.925944 
L 163.211163 524.357047 
L 164.449421 525.438765 
L 165.687678 527.675763 
L 166.925935 530.675697 
L 168.164193 534.00892 
L 169.40245 536.399413 
L 170.640707 536.248024 
L 173.117222 530.975371 
L 174.355479 530.749704 
L 175.593736 533.17236 
L 176.831993 536.350351 
L 178.070251 538.533523 
L 179.308508 539.29173 
L 180.546765 539.035915 
L 181.785022 538.413541 
L 183.02328 537.592018 
L 184.261537 535.804653 
L 185.499794 532.172579 
L 190.452823 511.30193 
L 191.691081 508.113727 
L 192.929338 507.57835 
L 194.167595 509.372788 
L 195.405852 511.589745 
L 196.64411 512.097193 
L 197.882367 510.185254 
L 199.120624 507.245741 
L 200.358881 505.564274 
L 201.597139 506.481107 
L 202.835396 509.617333 
L 204.073653 513.112283 
L 205.311911 514.309587 
L 206.550168 511.357453 
L 209.026682 498.454332 
L 210.26494 495.049913 
L 211.503197 495.660777 
L 212.741454 498.379427 
L 213.979711 500.210007 
L 215.217969 498.604599 
L 216.456226 492.390908 
L 217.694483 482.245672 
L 220.170998 459.183372 
L 221.409255 451.08439 
L 222.647512 447.512466 
L 223.88577 449.063565 
L 225.124027 455.002727 
L 226.362284 463.045783 
L 227.600541 469.973935 
L 228.838799 473.100858 
L 230.077056 471.447498 
L 231.315313 465.973387 
L 232.55357 459.263335 
L 233.791828 454.115824 
L 235.030085 451.445761 
L 237.5066 448.216294 
L 238.744857 447.251424 
L 239.983114 448.894608 
L 241.221371 453.384611 
L 242.459629 459.005286 
L 243.697886 463.275602 
L 244.936143 464.057708 
L 246.1744 460.473964 
L 247.412658 453.299267 
L 249.889172 434.723773 
L 251.127429 423.867294 
L 252.365687 410.317634 
L 253.603944 394.870719 
L 254.842201 381.983938 
L 256.080459 375.932748 
L 257.318716 376.305728 
L 259.79523 382.679776 
L 261.033488 385.087647 
L 262.271745 386.841255 
L 263.510002 388.176764 
L 264.748259 389.047023 
L 265.986517 389.074759 
L 267.224774 387.455388 
L 268.463031 383.553164 
L 269.701288 378.319971 
L 270.939546 374.515049 
L 272.177803 374.550869 
L 273.41606 377.894778 
L 274.654318 381.860424 
L 275.892575 384.837969 
L 277.130832 386.825105 
L 278.369089 387.925203 
L 279.607347 388.456634 
L 280.845604 389.425686 
L 282.083861 391.660136 
L 284.560376 398.556124 
L 285.798633 400.98662 
L 287.03689 401.463741 
L 288.275147 399.570475 
L 289.513405 395.250254 
L 291.989919 383.361459 
L 293.228177 378.294318 
L 294.466434 374.790658 
L 295.704691 373.7346 
L 296.942948 375.681497 
L 299.419463 383.363842 
L 300.65772 384.828927 
L 301.895977 384.058763 
L 304.372492 380.966231 
L 306.849006 378.776511 
L 308.087264 376.902482 
L 309.325521 372.244323 
L 310.563778 364.114665 
L 313.040293 344.749022 
L 314.27855 338.127021 
L 315.516807 334.265887 
L 316.755065 331.706187 
L 317.993322 330.073726 
L 319.231579 330.52968 
L 320.469836 333.35552 
L 322.946351 341.255403 
L 324.184608 344.269779 
L 325.422866 345.040048 
L 326.661123 342.943102 
L 327.89938 338.951308 
L 329.137637 334.553607 
L 330.375895 330.821786 
L 331.614152 328.664226 
L 332.852409 328.821282 
L 334.090666 331.255944 
L 336.567181 338.743993 
L 337.805438 341.377951 
L 339.043695 341.439807 
L 340.281953 337.223317 
L 341.52021 328.511481 
L 342.758467 318.254458 
L 343.996725 311.266523 
L 345.234982 310.818193 
L 346.473239 316.384553 
L 347.711496 324.397861 
L 348.949754 331.106654 
L 350.188011 334.453718 
L 351.426268 333.703792 
L 352.664525 328.956953 
L 353.902783 321.181785 
L 356.379297 302.018807 
L 357.617554 294.438476 
L 358.855812 290.67644 
L 360.094069 290.961343 
L 361.332326 294.21832 
L 362.570584 298.521424 
L 363.808841 301.59141 
L 365.047098 301.600288 
L 366.285355 298.429641 
L 367.523613 294.932815 
L 368.76187 295.678308 
L 370.000127 302.389291 
L 371.238384 311.597431 
L 372.476642 318.503585 
L 373.714899 320.793992 
L 374.953156 317.935563 
L 376.191413 310.602616 
L 378.667928 292.340471 
L 379.906185 286.264386 
L 381.144443 284.848838 
L 382.3827 288.125294 
L 383.620957 292.507111 
L 384.859214 293.808431 
L 386.097472 291.034045 
L 388.573986 281.478765 
L 389.812243 279.051378 
L 391.050501 280.216881 
L 392.288758 285.597014 
L 394.765272 301.790429 
L 396.00353 307.930644 
L 397.241787 311.821182 
L 398.480044 313.796837 
L 399.718302 314.583927 
L 400.956559 314.678488 
L 402.194816 313.453592 
L 403.433073 309.346299 
L 404.671331 301.17148 
L 407.147845 277.31503 
L 408.386102 270.225801 
L 409.62436 271.107308 
L 410.862617 277.843075 
L 414.577389 304.271767 
L 417.053903 323.550518 
L 418.292161 328.429776 
L 419.530418 325.68376 
L 420.768675 314.870593 
L 422.006932 299.519258 
L 423.24519 285.838745 
L 424.483447 278.926769 
L 425.721704 279.446622 
L 426.959961 284.320967 
L 428.198219 290.122124 
L 429.436476 294.134133 
L 430.674733 293.469932 
L 431.912991 286.174309 
L 434.389505 261.128768 
L 435.627762 254.852003 
L 436.86602 258.689831 
L 438.104277 271.352833 
L 439.342534 286.717502 
L 440.580791 297.627898 
L 441.819049 300.657521 
L 443.057306 297.83846 
L 445.53382 289.357442 
L 446.772078 284.09072 
L 449.248592 267.385655 
L 450.48685 263.819924 
L 451.725107 268.07161 
L 452.963364 276.986103 
L 454.201621 284.548137 
L 455.439879 287.137235 
L 456.678136 285.678242 
L 457.916393 283.356577 
L 459.15465 282.075248 
L 461.631165 280.960068 
L 462.869422 280.98009 
L 464.107679 282.454405 
L 467.822451 290.178519 
L 469.060709 292.406573 
L 470.298966 293.410445 
L 471.537223 291.109028 
L 472.77548 283.422811 
L 475.251995 258.447369 
L 476.490252 250.578764 
L 477.728509 250.530548 
L 478.966767 257.964244 
L 481.443281 279.876342 
L 482.681538 286.737741 
L 483.919796 289.580865 
L 485.158053 288.605279 
L 486.39631 284.418902 
L 487.634568 279.687512 
L 488.872825 277.87226 
L 490.111082 280.033352 
L 491.349339 284.366046 
L 492.587597 288.179919 
L 493.825854 289.523867 
L 496.302368 287.74557 
L 497.540626 289.162089 
L 498.778883 292.773737 
L 500.01714 297.645686 
L 502.493655 308.727667 
L 503.731912 311.793326 
L 504.970169 311.992791 
L 506.208427 310.59426 
L 507.446684 308.162523 
L 508.684941 303.883185 
L 511.161456 290.884978 
L 512.399713 287.391336 
L 513.63797 288.243669 
L 514.876227 291.391344 
L 516.114485 294.092199 
L 517.352742 294.437904 
L 518.590999 291.874555 
L 519.829257 288.708235 
L 521.067514 288.204101 
L 523.544028 292.417759 
L 524.782286 293.122585 
L 527.2588 292.334436 
L 528.497057 293.586985 
L 529.735315 297.714814 
L 530.973572 303.064387 
L 532.211829 305.842631 
L 533.450086 302.744566 
L 534.688344 293.212234 
L 535.926601 280.970302 
L 537.164858 272.150061 
L 538.403116 270.626901 
L 539.641373 276.071883 
L 542.117887 295.729829 
L 543.356145 303.310121 
L 544.594402 306.113214 
L 545.832659 303.552435 
L 547.070916 296.655564 
L 548.309174 286.98483 
L 552.023945 254.590704 
L 553.262203 246.494174 
L 554.50046 243.00084 
L 555.738717 247.784997 
L 556.976975 262.033311 
L 559.453489 301.519364 
L 560.691746 315.499837 
L 561.930004 323.034919 
L 563.168261 325.37444 
L 564.406518 323.992333 
L 565.644775 319.955437 
L 568.12129 309.744052 
L 570.597804 302.533147 
L 571.836062 298.018947 
L 573.074319 291.910464 
L 574.312576 284.120816 
L 575.550834 275.463278 
L 576.789091 268.23374 
L 578.027348 265.796764 
L 579.265605 270.379929 
L 580.503863 280.606131 
L 581.74212 291.888953 
L 582.980377 300.058936 
L 584.218634 303.994183 
L 585.456892 304.381028 
L 586.695149 302.018486 
L 587.933406 298.595686 
L 589.171663 296.850407 
L 590.409921 298.202559 
L 591.648178 301.199702 
L 592.886435 303.199007 
L 594.124693 302.720849 
L 595.36295 299.438911 
L 596.601207 293.47456 
L 599.077722 278.14278 
L 600.315979 271.38181 
L 601.554236 266.305913 
L 602.792493 263.904417 
L 604.030751 264.692832 
L 605.269008 268.559644 
L 607.745523 281.314532 
L 608.98378 285.496735 
L 610.222037 286.459439 
L 612.698552 285.170726 
L 613.936809 283.822339 
L 615.175066 278.191776 
L 616.413323 266.068807 
L 620.128095 216.402165 
L 621.366352 212.42334 
L 622.60461 222.945901 
L 623.842867 245.232602 
L 625.081124 271.111967 
L 626.319382 291.659381 
L 627.557639 301.886163 
L 628.795896 302.074265 
L 630.034153 295.301661 
L 631.272411 285.4984 
L 632.510668 277.311027 
L 633.748925 274.782083 
L 634.987182 278.61715 
L 636.22544 286.167843 
L 638.701954 303.812349 
L 641.178469 322.390625 
L 642.416726 328.351977 
L 643.654983 330.097684 
L 644.893241 328.051424 
L 646.131498 322.535397 
L 647.369755 313.868113 
L 648.608012 304.115553 
L 649.84627 296.889186 
L 651.084527 294.894891 
L 652.322784 298.144296 
L 653.561041 304.740553 
L 656.037556 321.092067 
L 657.275813 328.207634 
L 658.51407 333.191576 
L 659.752328 336.380995 
L 660.990585 338.884035 
L 662.228842 341.87685 
L 663.4671 346.472418 
L 664.705357 352.376687 
L 665.943614 357.088929 
L 667.181871 357.874574 
L 668.420129 354.105605 
L 669.658386 347.983453 
L 670.896643 343.176663 
L 672.1349 341.55776 
L 674.611415 342.004259 
L 675.849672 341.389605 
L 677.087929 339.769926 
L 678.326187 336.50251 
L 680.802701 326.618999 
L 682.040959 325.531496 
L 683.279216 329.755415 
L 684.517473 336.485411 
L 685.75573 340.975252 
L 686.993988 340.213546 
L 688.232245 333.98196 
L 691.947017 304.909944 
L 693.185274 301.4636 
L 694.423531 302.795169 
L 696.900046 309.987403 
L 699.37656 314.780284 
L 700.614818 318.650305 
L 701.853075 324.557098 
L 704.329589 339.06819 
L 705.567847 346.59201 
L 706.806104 351.19361 
L 708.044361 348.814552 
L 709.282618 338.818504 
L 710.520876 325.716374 
L 711.759133 315.778316 
L 712.99739 311.93223 
L 714.235648 312.38184 
L 715.473905 313.405712 
L 716.712162 312.75591 
L 717.950419 311.186926 
L 719.188677 311.044347 
L 720.426934 313.718671 
L 722.903448 322.834834 
L 724.141706 324.794628 
L 725.379963 324.323836 
L 726.61822 323.303666 
L 727.856477 323.835546 
L 729.094735 325.868093 
L 730.332992 326.721047 
L 731.571249 323.656825 
L 732.809507 315.935604 
L 734.047764 304.464548 
L 735.286021 291.206523 
L 736.524278 279.464117 
L 737.762536 272.802787 
L 739.000793 272.410959 
L 740.23905 276.705557 
L 741.477307 283.528025 
L 743.953822 299.734245 
L 746.430336 317.270279 
L 747.668594 326.202776 
L 748.906851 333.071234 
L 750.145108 336.034487 
L 751.383366 334.501809 
L 752.621623 328.825063 
L 753.85988 319.932871 
L 755.098137 309.617766 
L 756.336395 300.257805 
L 757.574652 294.145749 
L 758.812909 293.148253 
L 760.051166 297.935405 
L 761.289424 307.060026 
L 762.527681 317.591683 
L 763.765938 326.796928 
L 765.004195 332.850699 
L 766.242453 335.152012 
L 767.48071 335.120778 
L 768.718967 335.510699 
L 769.957225 337.343237 
L 771.195482 338.360611 
L 772.433739 335.584219 
L 773.671996 328.058936 
L 774.910254 316.961047 
L 776.148511 304.640463 
L 777.386768 293.790756 
L 778.625025 287.143484 
L 779.863283 287.060474 
L 781.10154 294.078137 
L 783.578054 317.501496 
L 784.816312 326.725372 
L 786.054569 333.161421 
L 787.292826 337.369594 
L 788.531084 338.951463 
L 789.769341 337.486378 
L 791.007598 334.458344 
L 792.245855 333.273192 
L 793.484113 336.543691 
L 794.72237 343.813969 
L 795.960627 352.58618 
L 797.198884 360.350229 
L 798.437142 365.29717 
L 799.675399 366.609007 
L 800.913656 364.574348 
L 802.151914 360.062029 
L 803.390171 354.304313 
L 804.628428 349.108001 
L 805.866685 345.917063 
L 807.104943 344.617459 
L 808.3432 344.18388 
L 809.581457 344.125402 
L 810.819714 344.714482 
L 812.057972 346.26811 
L 813.296229 349.044231 
L 814.534486 353.403521 
L 815.772743 358.783151 
L 817.011001 363.146883 
L 818.249258 364.856565 
L 819.487515 363.997226 
L 820.725773 360.994743 
L 821.96403 355.857794 
L 823.202287 349.417603 
L 824.440544 343.579748 
L 825.678802 339.667902 
L 826.917059 337.073673 
L 828.155316 334.054348 
L 830.631831 326.039078 
L 831.870088 323.987237 
L 833.108345 323.25108 
L 834.346602 321.171105 
L 835.58486 315.764819 
L 836.823117 307.493405 
L 839.299632 288.302174 
L 840.537889 279.834656 
L 841.776146 273.792142 
L 843.014403 270.973062 
L 844.252661 271.264918 
L 845.490918 273.097398 
L 846.729175 273.941833 
L 847.967432 272.519921 
L 849.20569 270.201376 
L 850.443947 269.920063 
L 851.682204 274.224038 
L 852.920461 283.508399 
L 854.158719 294.957251 
L 855.396976 304.408924 
L 856.635233 309.789662 
L 857.873491 311.231454 
L 859.111748 308.84152 
L 860.350005 302.308891 
L 862.82652 281.194743 
L 864.064777 273.839423 
L 865.303034 273.04692 
L 866.541291 277.724493 
L 867.779549 284.119398 
L 869.017806 288.294832 
L 870.256063 287.581203 
L 871.49432 281.731521 
L 872.732578 273.002358 
L 873.970835 265.118018 
L 875.209092 261.670009 
L 876.44735 263.639434 
L 877.685607 268.959024 
L 878.923864 275.120319 
L 880.162121 280.377289 
L 881.400379 283.409505 
L 882.638636 284.087143 
L 883.876893 283.55942 
L 885.11515 283.541145 
L 886.353408 286.369363 
L 887.591665 293.834824 
L 890.06818 314.784362 
L 891.306437 320.720499 
L 892.544694 322.62795 
L 893.782951 322.255947 
L 895.021209 319.70781 
L 896.259466 313.959897 
L 897.497723 305.982811 
L 898.73598 299.321863 
L 899.974238 297.049421 
L 901.212495 299.203011 
L 903.689009 308.425935 
L 904.927267 310.96475 
L 906.165524 309.229691 
L 907.403781 302.463102 
L 909.880296 281.78066 
L 911.118553 273.491281 
L 912.35681 267.688542 
L 916.071582 254.44768 
L 918.548097 243.328602 
L 919.786354 240.86003 
L 921.024611 245.008049 
L 922.262868 256.841379 
L 924.739383 292.555768 
L 925.97764 306.703169 
L 927.215898 313.801556 
L 928.454155 313.771746 
L 929.692412 307.626204 
L 930.930669 296.760074 
L 933.407184 270.910192 
L 934.645441 261.941966 
L 935.883698 259.660046 
L 937.121956 264.753781 
L 939.59847 283.714154 
L 940.836727 290.796276 
L 942.074985 295.159806 
L 945.789757 304.642697 
L 947.028014 305.513658 
L 948.266271 303.353176 
L 949.504528 297.951808 
L 951.981043 281.238359 
L 953.2193 275.580116 
L 954.457557 275.502803 
L 955.695815 280.49523 
L 956.934072 287.162753 
L 958.172329 291.890505 
L 959.410586 292.696391 
L 961.887101 287.182591 
L 963.125358 287.390529 
L 964.363616 289.811287 
L 965.601873 290.740206 
L 966.84013 289.14373 
L 968.078387 287.309668 
L 969.316645 286.850507 
L 970.554902 287.572753 
L 971.793159 289.417774 
L 973.031416 292.986026 
L 975.507931 303.594345 
L 976.746188 307.62563 
L 977.984446 309.550877 
L 980.46096 310.638027 
L 981.699217 312.458739 
L 982.937475 316.14304 
L 984.175732 320.617701 
L 985.413989 323.675093 
L 986.652246 323.809361 
L 987.890504 320.308938 
L 989.128761 313.233441 
L 990.367018 303.690004 
L 992.843533 281.950651 
L 994.08179 272.823599 
L 995.320047 267.122847 
L 996.558305 265.785701 
L 997.796562 268.880155 
L 999.034819 275.483 
L 1000.273076 284.584803 
L 1001.511334 294.898415 
L 1002.749591 303.584072 
L 1003.987848 307.528759 
L 1005.226105 306.194469 
L 1006.464363 301.855482 
L 1008.940877 292.544917 
L 1011.417392 283.465535 
L 1012.655649 280.000357 
L 1013.893906 278.446848 
L 1015.132164 278.141841 
L 1016.370421 278.114511 
L 1017.608678 278.412815 
L 1018.846935 279.728439 
L 1020.085193 282.581917 
L 1021.32345 287.136245 
L 1023.799964 299.245304 
L 1025.038222 303.812006 
L 1026.276479 304.966141 
L 1027.514736 300.859578 
L 1029.991251 282.613403 
L 1031.229508 278.655081 
L 1032.467765 283.025224 
L 1033.706023 294.7281 
L 1034.94428 309.227013 
L 1036.182537 320.548323 
L 1037.420794 324.480361 
L 1038.659052 320.852057 
L 1039.897309 312.646157 
L 1042.373823 293.982842 
L 1043.612081 285.853135 
L 1044.850338 279.19293 
L 1047.326852 269.498253 
L 1048.56511 263.577041 
L 1051.041624 250.342506 
L 1052.279882 247.284726 
L 1053.518139 250.702371 
L 1054.756396 261.400052 
L 1057.232911 289.877889 
L 1058.471168 300.226008 
L 1059.709425 306.359712 
L 1060.947682 308.349524 
L 1062.18594 306.074389 
L 1063.424197 299.327039 
L 1065.900711 280.003173 
L 1067.138969 273.246275 
L 1068.377226 269.465202 
L 1069.615483 268.699655 
L 1070.853741 271.2168 
L 1072.091998 276.05493 
L 1073.330255 281.416526 
L 1074.568512 285.185596 
L 1075.80677 284.171007 
L 1077.045027 275.759463 
L 1078.283284 261.035518 
L 1079.521541 243.903914 
L 1080.759799 228.516137 
L 1081.998056 218.525819 
L 1083.236313 215.804308 
L 1084.474571 220.164725 
L 1085.712828 230.603534 
L 1086.951085 244.14195 
L 1088.189342 255.297709 
L 1089.4276 259.873209 
L 1090.665857 258.115102 
L 1093.142371 248.502196 
L 1094.380629 245.982602 
L 1095.618886 246.398726 
L 1096.857143 249.375249 
L 1098.0954 254.013638 
L 1099.333658 259.100599 
L 1100.571915 263.493599 
L 1103.04843 270.283062 
L 1104.286687 273.349799 
L 1105.524944 275.032246 
L 1106.763201 273.939927 
L 1108.001459 269.44447 
L 1110.477973 254.77143 
L 1111.71623 250.483032 
L 1112.954488 249.783979 
L 1114.192745 250.081153 
L 1115.431002 249.039829 
L 1116.669259 246.826866 
L 1117.907517 245.553542 
L 1119.145774 247.117094 
L 1120.384031 251.049365 
L 1121.622289 254.151408 
L 1122.860546 252.904845 
L 1124.098803 246.554545 
L 1126.575318 228.624798 
L 1127.813575 222.429815 
L 1129.051832 219.332147 
L 1130.290089 219.345295 
L 1131.528347 222.349857 
L 1134.004861 231.457183 
L 1135.243118 235.67248 
L 1136.481376 240.3588 
L 1137.719633 244.128384 
L 1138.95789 244.650059 
L 1140.196148 241.467582 
L 1141.434405 235.511808 
L 1143.910919 220.047867 
L 1145.149177 214.775427 
L 1146.387434 212.581251 
L 1147.625691 211.582667 
L 1150.102206 208.293217 
L 1151.340463 208.906385 
L 1152.57872 212.214198 
L 1153.816977 216.219944 
L 1155.055235 219.137328 
L 1156.293492 220.524978 
L 1157.531749 220.27633 
L 1158.770007 217.96431 
L 1161.246521 209.202769 
L 1162.484778 207.094473 
L 1163.723036 208.719519 
L 1164.961293 214.162638 
L 1167.437807 230.753164 
L 1168.676065 235.890367 
L 1169.914322 236.375466 
L 1171.152579 234.051679 
L 1172.390837 232.592478 
L 1173.629094 234.152021 
L 1174.867351 237.276749 
L 1176.105608 238.787448 
L 1177.343866 237.97478 
L 1178.582123 237.620694 
L 1179.82038 240.255068 
L 1182.296895 250.561977 
L 1183.535152 253.513131 
L 1184.773409 252.618634 
L 1186.011666 248.044022 
L 1188.488181 235.298344 
L 1189.726438 231.394965 
L 1190.964696 231.154705 
L 1192.202953 233.457634 
L 1193.44121 234.954467 
L 1194.679467 232.845138 
L 1195.917725 227.15833 
L 1197.155982 220.404871 
L 1198.394239 215.891042 
L 1199.632496 216.591481 
L 1200.870754 223.596778 
L 1203.347268 244.454792 
L 1204.585525 250.95028 
L 1205.823783 253.328132 
L 1207.06204 252.063309 
L 1208.300297 248.477281 
L 1209.538555 244.473762 
L 1210.776812 241.245387 
L 1212.015069 239.032801 
L 1213.253326 238.71397 
L 1214.491584 241.964283 
L 1215.729841 248.869319 
L 1216.968098 256.866551 
L 1218.206355 262.586332 
L 1219.444613 264.088887 
L 1220.68287 261.742585 
L 1223.159384 253.54276 
L 1226.874156 241.906453 
L 1228.112414 239.308815 
L 1229.350671 237.557442 
L 1230.588928 234.530404 
L 1231.827185 227.97546 
L 1233.065443 217.648119 
L 1234.3037 205.967157 
L 1235.541957 196.877524 
L 1236.780214 194.111251 
L 1238.018472 199.141516 
L 1239.256729 209.923514 
L 1240.494986 222.208864 
L 1241.733243 232.248677 
L 1242.971501 238.329013 
L 1244.209758 240.723309 
L 1245.448015 240.746444 
L 1246.686273 239.444292 
L 1247.92453 236.938752 
L 1249.162787 232.848762 
L 1250.401044 226.870907 
L 1251.639302 219.681533 
L 1252.877559 213.401964 
L 1254.115816 209.554676 
L 1256.592331 205.301786 
L 1257.830588 203.280673 
L 1259.068845 201.89514 
L 1260.307103 201.850463 
L 1261.54536 204.001611 
L 1262.783617 208.574662 
L 1265.260132 220.556483 
L 1267.736646 233.314073 
L 1268.974903 237.967907 
L 1270.213161 239.295388 
L 1271.451418 236.736656 
L 1273.927932 226.412146 
L 1275.16619 222.40116 
L 1276.404447 218.960126 
L 1277.642704 216.392648 
L 1278.880962 216.157481 
L 1280.119219 218.437151 
L 1281.357476 221.439922 
L 1282.595733 223.351585 
L 1283.833991 224.143416 
L 1285.072248 224.570321 
L 1286.310505 224.197777 
L 1287.548762 222.101013 
L 1288.78702 218.778906 
L 1290.025277 216.028278 
L 1291.263534 215.283069 
L 1292.501791 216.489749 
L 1293.740049 218.448904 
L 1294.978306 219.946798 
L 1296.216563 220.363498 
L 1297.454821 219.618775 
L 1298.693078 218.399347 
L 1299.931335 218.442652 
L 1301.169592 221.218317 
L 1303.646107 231.484093 
L 1304.884364 235.311175 
L 1306.122621 236.950119 
L 1307.360879 236.76301 
L 1308.599136 235.535286 
L 1309.837393 233.683191 
L 1311.07565 231.479825 
L 1312.313908 228.983496 
L 1313.552165 225.321243 
L 1314.790422 219.444793 
L 1317.266937 203.606707 
L 1318.505194 197.69184 
L 1319.743451 195.014462 
L 1320.981709 194.641261 
L 1322.219966 194.487859 
L 1323.458223 192.848227 
L 1324.69648 189.422602 
L 1325.934738 185.648313 
L 1327.172995 183.196772 
L 1328.411252 182.071348 
L 1329.649509 181.416493 
L 1330.887767 180.960296 
L 1332.126024 179.932611 
L 1333.364281 176.516713 
L 1335.840796 163.802676 
L 1337.079053 159.724451 
L 1338.31731 159.737326 
L 1339.555568 163.271154 
L 1342.032082 172.773503 
L 1344.508597 180.852541 
L 1345.746854 183.885974 
L 1346.985111 184.2929 
L 1348.223368 181.383966 
L 1350.699883 171.105946 
L 1354.414655 155.781928 
L 1358.129427 141.260155 
L 1359.367684 137.130488 
L 1360.605941 133.650427 
L 1361.844198 131.107049 
L 1363.082456 129.833119 
L 1364.320713 129.151755 
L 1365.55897 127.765912 
L 1366.797228 125.482266 
L 1368.035485 123.68907 
L 1369.273742 123.946493 
L 1370.511999 126.741804 
L 1371.750257 132.265451 
L 1372.988514 141.190536 
L 1375.465028 165.127706 
L 1376.703286 173.264847 
L 1377.941543 176.485316 
L 1379.1798 177.160887 
L 1380.418057 177.416171 
L 1381.656315 176.459206 
L 1382.894572 172.431689 
L 1384.132829 166.085634 
L 1385.371087 161.571288 
L 1386.609344 162.69933 
L 1387.847601 168.89239 
L 1389.085858 175.907049 
L 1390.324116 179.642543 
L 1391.562373 178.691213 
L 1392.80063 174.772959 
L 1394.038887 171.60765 
L 1395.277145 172.503244 
L 1396.515402 177.701419 
L 1397.753659 183.760345 
L 1398.991916 186.148405 
L 1400.230174 182.559339 
L 1401.468431 174.08281 
L 1403.944946 154.396796 
L 1405.183203 147.354744 
L 1406.42146 144.01033 
L 1407.659717 145.598551 
L 1408.897975 152.288935 
L 1412.612746 182.348102 
L 1413.851004 186.367442 
L 1415.089261 184.003726 
L 1416.327518 176.56223 
L 1417.565775 167.689016 
L 1418.804033 160.710397 
L 1420.04229 157.516029 
L 1421.280547 158.358266 
L 1422.518805 161.594886 
L 1424.995319 168.772391 
L 1426.233576 172.936246 
L 1427.471834 178.068831 
L 1431.186605 196.215958 
L 1432.424863 198.611385 
L 1433.66312 196.18533 
L 1434.901377 189.989761 
L 1436.139634 183.097987 
L 1437.377892 178.017152 
L 1438.616149 175.774135 
L 1439.854406 177.112269 
L 1441.092664 181.984116 
L 1442.330921 187.687109 
L 1443.569178 189.984563 
L 1444.807435 187.11239 
L 1446.045693 181.461691 
L 1447.28395 176.446661 
L 1448.522207 173.172853 
L 1449.760464 170.764943 
L 1450.998722 167.522058 
L 1452.236979 161.715725 
L 1454.713494 145.907142 
L 1455.951751 141.470761 
L 1457.190008 142.866964 
L 1458.428265 151.361617 
L 1462.143037 191.326515 
L 1463.381294 199.315853 
L 1464.619552 203.3278 
L 1465.857809 202.381171 
L 1467.096066 196.111948 
L 1468.334323 185.760528 
L 1470.810838 160.466743 
L 1472.049095 149.869782 
L 1473.287353 142.780045 
L 1474.52561 139.472825 
L 1475.763867 139.602585 
L 1477.002124 142.282087 
L 1478.240382 145.869482 
L 1479.478639 148.387673 
L 1480.716896 148.621313 
L 1481.955153 146.726357 
L 1483.193411 143.318689 
L 1484.431668 139.190726 
L 1485.669925 136.574699 
L 1486.908182 137.719526 
L 1488.14644 141.888956 
L 1489.384697 145.612481 
L 1490.622954 144.429053 
L 1491.861212 135.205326 
L 1494.337726 104.399397 
L 1495.575983 95.815393 
L 1496.814241 96.266831 
L 1498.052498 103.882253 
L 1499.290755 114.376083 
L 1500.529012 123.2883 
L 1501.76727 128.030149 
L 1504.243784 130.834177 
L 1505.482041 135.563569 
L 1507.958556 150.267334 
L 1509.196813 155.297942 
L 1510.435071 159.594606 
L 1511.673328 165.364098 
L 1512.911585 172.329601 
L 1514.149842 176.81565 
L 1515.3881 174.172491 
L 1516.626357 162.768145 
L 1519.102871 130.758223 
L 1520.341129 122.942087 
L 1521.579386 123.913239 
L 1522.817643 130.449804 
L 1524.0559 138.109043 
L 1525.294158 143.873552 
L 1526.532415 146.788586 
L 1527.770672 147.532833 
L 1529.00893 147.080854 
L 1530.247187 145.728588 
L 1531.485444 143.956497 
L 1532.723701 143.388576 
L 1533.961959 145.762433 
L 1536.438473 155.972845 
L 1537.67673 157.55945 
L 1538.914988 154.335523 
L 1540.153245 147.118555 
L 1541.391502 137.244753 
L 1543.868017 113.699677 
L 1545.106274 101.995344 
L 1546.344531 93.770001 
L 1547.582789 92.409358 
L 1548.821046 97.396364 
L 1550.059303 103.583235 
L 1551.29756 106.034149 
L 1552.535818 103.927761 
L 1553.774075 99.028617 
L 1556.250589 86.621625 
L 1557.488847 82.053098 
L 1558.727104 79.906642 
L 1559.965361 79.558054 
L 1561.203619 79.975738 
L 1562.441876 80.81241 
L 1563.680133 82.325278 
L 1564.91839 83.376519 
L 1566.156648 80.993752 
L 1567.394905 74.013929 
L 1568.633162 65.219425 
L 1569.871419 59.069764 
L 1571.109677 59.399606 
L 1572.347934 68.158671 
L 1573.586191 83.969465 
L 1574.824448 101.992784 
L 1576.062706 116.381151 
L 1577.300963 124.32542 
L 1578.53922 127.207351 
L 1579.777478 127.495382 
L 1582.253992 126.222493 
L 1583.492249 124.758512 
L 1584.730507 120.664459 
L 1585.968764 113.713284 
L 1588.445278 97.874114 
L 1589.683536 90.887587 
L 1590.921793 85.434038 
L 1592.16005 83.675016 
L 1593.398307 86.284727 
L 1594.636565 89.977456 
L 1595.874822 90.287194 
L 1597.113079 87.077555 
L 1598.351337 85.96128 
L 1599.589594 92.220477 
L 1600.827851 103.849537 
L 1602.066108 113.767477 
L 1603.304366 117.901465 
L 1604.542623 117.446602 
L 1605.78088 114.821326 
L 1607.019137 110.854476 
L 1609.495652 100.529134 
L 1610.733909 97.850339 
L 1611.972166 97.874739 
L 1613.210424 98.558542 
L 1614.448681 99.08862 
L 1615.686938 100.993741 
L 1616.925196 105.577892 
L 1619.40171 119.669265 
L 1620.639967 124.232024 
L 1621.878225 122.559989 
L 1623.116482 112.520962 
L 1624.354739 94.817732 
L 1625.592996 73.576229 
L 1626.831254 55.832167 
L 1628.069511 47.979282 
L 1629.307768 51.089991 
L 1631.784283 70.756732 
L 1633.02254 78.386002 
L 1634.260797 83.083834 
L 1635.499055 85.544682 
L 1636.737312 86.152345 
L 1637.975569 85.149307 
L 1641.690341 80.150254 
L 1641.690341 80.150254 
" style="fill:none;stroke:#008000;stroke-linecap:square;stroke-width:1.5;"/>
   </g>
   <g id="patch_3">
    <path d="M 43.78125 586.86358 
L 43.78125 22.318125 
" style="fill:none;stroke:#000000;stroke-linecap:square;stroke-linejoin:miter;stroke-width:0.8;"/>
   </g>
   <g id="patch_4">
    <path d="M 1717.78125 586.86358 
L 1717.78125 22.318125 
" style="fill:none;stroke:#000000;stroke-linecap:square;stroke-linejoin:miter;stroke-width:0.8;"/>
   </g>
   <g id="patch_5">
    <path d="M 43.78125 586.86358 
L 1717.78125 586.86358 
" style="fill:none;stroke:#000000;stroke-linecap:square;stroke-linejoin:miter;stroke-width:0.8;"/>
   </g>
   <g id="patch_6">
    <path d="M 43.78125 22.318125 
L 1717.78125 22.318125 
" style="fill:none;stroke:#000000;stroke-linecap:square;stroke-linejoin:miter;stroke-width:0.8;"/>
   </g>
   <g id="text_18">
    <!-- before binarisation -->
    <g transform="translate(824.1825 16.318125)scale(0.12 -0.12)">
     <defs>
      <path d="M 3116 1747 
Q 3116 2381 2855 2742 
Q 2594 3103 2138 3103 
Q 1681 3103 1420 2742 
Q 1159 2381 1159 1747 
Q 1159 1113 1420 752 
Q 1681 391 2138 391 
Q 2594 391 2855 752 
Q 3116 1113 3116 1747 
z
M 1159 2969 
Q 1341 3281 1617 3432 
Q 1894 3584 2278 3584 
Q 2916 3584 3314 3078 
Q 3713 2572 3713 1747 
Q 3713 922 3314 415 
Q 2916 -91 2278 -91 
Q 1894 -91 1617 61 
Q 1341 213 1159 525 
L 1159 0 
L 581 0 
L 581 4863 
L 1159 4863 
L 1159 2969 
z
" id="DejaVuSans-62" transform="scale(0.015625)"/>
      <path d="M 1959 3097 
Q 1497 3097 1228 2736 
Q 959 2375 959 1747 
Q 959 1119 1226 758 
Q 1494 397 1959 397 
Q 2419 397 2687 759 
Q 2956 1122 2956 1747 
Q 2956 2369 2687 2733 
Q 2419 3097 1959 3097 
z
M 1959 3584 
Q 2709 3584 3137 3096 
Q 3566 2609 3566 1747 
Q 3566 888 3137 398 
Q 2709 -91 1959 -91 
Q 1206 -91 779 398 
Q 353 888 353 1747 
Q 353 2609 779 3096 
Q 1206 3584 1959 3584 
z
" id="DejaVuSans-6f" transform="scale(0.015625)"/>
      <path id="DejaVuSans-20" transform="scale(0.015625)"/>
      <path d="M 603 3500 
L 1178 3500 
L 1178 0 
L 603 0 
L 603 3500 
z
M 603 4863 
L 1178 4863 
L 1178 4134 
L 603 4134 
L 603 4863 
z
" id="DejaVuSans-69" transform="scale(0.015625)"/>
      <path d="M 3513 2113 
L 3513 0 
L 2938 0 
L 2938 2094 
Q 2938 2591 2744 2837 
Q 2550 3084 2163 3084 
Q 1697 3084 1428 2787 
Q 1159 2491 1159 1978 
L 1159 0 
L 581 0 
L 581 3500 
L 1159 3500 
L 1159 2956 
Q 1366 3272 1645 3428 
Q 1925 3584 2291 3584 
Q 2894 3584 3203 3211 
Q 3513 2838 3513 2113 
z
" id="DejaVuSans-6e" transform="scale(0.015625)"/>
      <path d="M 2834 3397 
L 2834 2853 
Q 2591 2978 2328 3040 
Q 2066 3103 1784 3103 
Q 1356 3103 1142 2972 
Q 928 2841 928 2578 
Q 928 2378 1081 2264 
Q 1234 2150 1697 2047 
L 1894 2003 
Q 2506 1872 2764 1633 
Q 3022 1394 3022 966 
Q 3022 478 2636 193 
Q 2250 -91 1575 -91 
Q 1294 -91 989 -36 
Q 684 19 347 128 
L 347 722 
Q 666 556 975 473 
Q 1284 391 1588 391 
Q 1994 391 2212 530 
Q 2431 669 2431 922 
Q 2431 1156 2273 1281 
Q 2116 1406 1581 1522 
L 1381 1569 
Q 847 1681 609 1914 
Q 372 2147 372 2553 
Q 372 3047 722 3315 
Q 1072 3584 1716 3584 
Q 2034 3584 2315 3537 
Q 2597 3491 2834 3397 
z
" id="DejaVuSans-73" transform="scale(0.015625)"/>
      <path d="M 1172 4494 
L 1172 3500 
L 2356 3500 
L 2356 3053 
L 1172 3053 
L 1172 1153 
Q 1172 725 1289 603 
Q 1406 481 1766 481 
L 2356 481 
L 2356 0 
L 1766 0 
Q 1100 0 847 248 
Q 594 497 594 1153 
L 594 3053 
L 172 3053 
L 172 3500 
L 594 3500 
L 594 4494 
L 1172 4494 
z
" id="DejaVuSans-74" transform="scale(0.015625)"/>
     </defs>
     <use xlink:href="#DejaVuSans-62"/>
     <use x="63.476562" xlink:href="#DejaVuSans-65"/>
     <use x="125" xlink:href="#DejaVuSans-66"/>
     <use x="160.205078" xlink:href="#DejaVuSans-6f"/>
     <use x="221.386719" xlink:href="#DejaVuSans-72"/>
     <use x="260.25" xlink:href="#DejaVuSans-65"/>
     <use x="321.773438" xlink:href="#DejaVuSans-20"/>
     <use x="353.560547" xlink:href="#DejaVuSans-62"/>
     <use x="417.037109" xlink:href="#DejaVuSans-69"/>
     <use x="444.820312" xlink:href="#DejaVuSans-6e"/>
     <use x="508.199219" xlink:href="#DejaVuSans-61"/>
     <use x="569.478516" xlink:href="#DejaVuSans-72"/>
     <use x="610.591797" xlink:href="#DejaVuSans-69"/>
     <use x="638.375" xlink:href="#DejaVuSans-73"/>
     <use x="690.474609" xlink:href="#DejaVuSans-61"/>
     <use x="751.753906" xlink:href="#DejaVuSans-74"/>
     <use x="790.962891" xlink:href="#DejaVuSans-69"/>
     <use x="818.746094" xlink:href="#DejaVuSans-6f"/>
     <use x="879.927734" xlink:href="#DejaVuSans-6e"/>
    </g>
   </g>
  </g>
  <g id="axes_2">
   <g id="patch_7">
    <path d="M 43.78125 1264.318125 
L 1717.78125 1264.318125 
L 1717.78125 699.77267 
L 43.78125 699.77267 
z
" style="fill:#ffffff;"/>
   </g>
   <g id="matplotlib.axis_3">
    <g id="xtick_8">
     <g id="line2d_17">
      <g>
       <use style="stroke:#000000;stroke-width:0.8;" x="119.872159" xlink:href="#m141ae861ab" y="1264.318125"/>
      </g>
     </g>
     <g id="text_19">
      <!-- 0 -->
      <g transform="translate(116.690909 1278.916563)scale(0.1 -0.1)">
       <use xlink:href="#DejaVuSans-30"/>
      </g>
     </g>
    </g>
    <g id="xtick_9">
     <g id="line2d_18">
      <g>
       <use style="stroke:#000000;stroke-width:0.8;" x="367.523613" xlink:href="#m141ae861ab" y="1264.318125"/>
      </g>
     </g>
     <g id="text_20">
      <!-- 200 -->
      <g transform="translate(357.979863 1278.916563)scale(0.1 -0.1)">
       <use xlink:href="#DejaVuSans-32"/>
       <use x="63.623047" xlink:href="#DejaVuSans-30"/>
       <use x="127.246094" xlink:href="#DejaVuSans-30"/>
      </g>
     </g>
    </g>
    <g id="xtick_10">
     <g id="line2d_19">
      <g>
       <use style="stroke:#000000;stroke-width:0.8;" x="615.175066" xlink:href="#m141ae861ab" y="1264.318125"/>
      </g>
     </g>
     <g id="text_21">
      <!-- 400 -->
      <g transform="translate(605.631316 1278.916563)scale(0.1 -0.1)">
       <use xlink:href="#DejaVuSans-34"/>
       <use x="63.623047" xlink:href="#DejaVuSans-30"/>
       <use x="127.246094" xlink:href="#DejaVuSans-30"/>
      </g>
     </g>
    </g>
    <g id="xtick_11">
     <g id="line2d_20">
      <g>
       <use style="stroke:#000000;stroke-width:0.8;" x="862.82652" xlink:href="#m141ae861ab" y="1264.318125"/>
      </g>
     </g>
     <g id="text_22">
      <!-- 600 -->
      <g transform="translate(853.28277 1278.916563)scale(0.1 -0.1)">
       <use xlink:href="#DejaVuSans-36"/>
       <use x="63.623047" xlink:href="#DejaVuSans-30"/>
       <use x="127.246094" xlink:href="#DejaVuSans-30"/>
      </g>
     </g>
    </g>
    <g id="xtick_12">
     <g id="line2d_21">
      <g>
       <use style="stroke:#000000;stroke-width:0.8;" x="1110.477973" xlink:href="#m141ae861ab" y="1264.318125"/>
      </g>
     </g>
     <g id="text_23">
      <!-- 800 -->
      <g transform="translate(1100.934223 1278.916563)scale(0.1 -0.1)">
       <use xlink:href="#DejaVuSans-38"/>
       <use x="63.623047" xlink:href="#DejaVuSans-30"/>
       <use x="127.246094" xlink:href="#DejaVuSans-30"/>
      </g>
     </g>
    </g>
    <g id="xtick_13">
     <g id="line2d_22">
      <g>
       <use style="stroke:#000000;stroke-width:0.8;" x="1358.129427" xlink:href="#m141ae861ab" y="1264.318125"/>
      </g>
     </g>
     <g id="text_24">
      <!-- 1000 -->
      <g transform="translate(1345.404427 1278.916563)scale(0.1 -0.1)">
       <use xlink:href="#DejaVuSans-31"/>
       <use x="63.623047" xlink:href="#DejaVuSans-30"/>
       <use x="127.246094" xlink:href="#DejaVuSans-30"/>
       <use x="190.869141" xlink:href="#DejaVuSans-30"/>
      </g>
     </g>
    </g>
    <g id="xtick_14">
     <g id="line2d_23">
      <g>
       <use style="stroke:#000000;stroke-width:0.8;" x="1605.78088" xlink:href="#m141ae861ab" y="1264.318125"/>
      </g>
     </g>
     <g id="text_25">
      <!-- 1200 -->
      <g transform="translate(1593.05588 1278.916563)scale(0.1 -0.1)">
       <use xlink:href="#DejaVuSans-31"/>
       <use x="63.623047" xlink:href="#DejaVuSans-32"/>
       <use x="127.246094" xlink:href="#DejaVuSans-30"/>
       <use x="190.869141" xlink:href="#DejaVuSans-30"/>
      </g>
     </g>
    </g>
    <g id="text_26">
     <!-- frame -->
     <g transform="translate(865.954687 1292.594688)scale(0.1 -0.1)">
      <use xlink:href="#DejaVuSans-66"/>
      <use x="35.205078" xlink:href="#DejaVuSans-72"/>
      <use x="76.318359" xlink:href="#DejaVuSans-61"/>
      <use x="137.597656" xlink:href="#DejaVuSans-6d"/>
      <use x="235.009766" xlink:href="#DejaVuSans-65"/>
     </g>
    </g>
   </g>
   <g id="matplotlib.axis_4">
    <g id="ytick_9">
     <g id="line2d_24">
      <g>
       <use style="stroke:#000000;stroke-width:0.8;" x="43.78125" xlink:href="#mec1a33169a" y="1238.656968"/>
      </g>
     </g>
     <g id="text_27">
      <!-- 0.0 -->
      <g transform="translate(20.878125 1242.456187)scale(0.1 -0.1)">
       <use xlink:href="#DejaVuSans-30"/>
       <use x="63.623047" xlink:href="#DejaVuSans-2e"/>
       <use x="95.410156" xlink:href="#DejaVuSans-30"/>
      </g>
     </g>
    </g>
    <g id="ytick_10">
     <g id="line2d_25">
      <g>
       <use style="stroke:#000000;stroke-width:0.8;" x="43.78125" xlink:href="#mec1a33169a" y="1136.01234"/>
      </g>
     </g>
     <g id="text_28">
      <!-- 0.2 -->
      <g transform="translate(20.878125 1139.811559)scale(0.1 -0.1)">
       <use xlink:href="#DejaVuSans-30"/>
       <use x="63.623047" xlink:href="#DejaVuSans-2e"/>
       <use x="95.410156" xlink:href="#DejaVuSans-32"/>
      </g>
     </g>
    </g>
    <g id="ytick_11">
     <g id="line2d_26">
      <g>
       <use style="stroke:#000000;stroke-width:0.8;" x="43.78125" xlink:href="#mec1a33169a" y="1033.367712"/>
      </g>
     </g>
     <g id="text_29">
      <!-- 0.4 -->
      <g transform="translate(20.878125 1037.166931)scale(0.1 -0.1)">
       <use xlink:href="#DejaVuSans-30"/>
       <use x="63.623047" xlink:href="#DejaVuSans-2e"/>
       <use x="95.410156" xlink:href="#DejaVuSans-34"/>
      </g>
     </g>
    </g>
    <g id="ytick_12">
     <g id="line2d_27">
      <g>
       <use style="stroke:#000000;stroke-width:0.8;" x="43.78125" xlink:href="#mec1a33169a" y="930.723084"/>
      </g>
     </g>
     <g id="text_30">
      <!-- 0.6 -->
      <g transform="translate(20.878125 934.522302)scale(0.1 -0.1)">
       <use xlink:href="#DejaVuSans-30"/>
       <use x="63.623047" xlink:href="#DejaVuSans-2e"/>
       <use x="95.410156" xlink:href="#DejaVuSans-36"/>
      </g>
     </g>
    </g>
    <g id="ytick_13">
     <g id="line2d_28">
      <g>
       <use style="stroke:#000000;stroke-width:0.8;" x="43.78125" xlink:href="#mec1a33169a" y="828.078456"/>
      </g>
     </g>
     <g id="text_31">
      <!-- 0.8 -->
      <g transform="translate(20.878125 831.877674)scale(0.1 -0.1)">
       <use xlink:href="#DejaVuSans-30"/>
       <use x="63.623047" xlink:href="#DejaVuSans-2e"/>
       <use x="95.410156" xlink:href="#DejaVuSans-38"/>
      </g>
     </g>
    </g>
    <g id="ytick_14">
     <g id="line2d_29">
      <g>
       <use style="stroke:#000000;stroke-width:0.8;" x="43.78125" xlink:href="#mec1a33169a" y="725.433827"/>
      </g>
     </g>
     <g id="text_32">
      <!-- 1.0 -->
      <g transform="translate(20.878125 729.233046)scale(0.1 -0.1)">
       <use xlink:href="#DejaVuSans-31"/>
       <use x="63.623047" xlink:href="#DejaVuSans-2e"/>
       <use x="95.410156" xlink:href="#DejaVuSans-30"/>
      </g>
     </g>
    </g>
    <g id="text_33">
     <!-- GCaMP -->
     <g transform="translate(14.798437 999.803991)rotate(-90)scale(0.1 -0.1)">
      <use xlink:href="#DejaVuSans-47"/>
      <use x="77.490234" xlink:href="#DejaVuSans-43"/>
      <use x="147.314453" xlink:href="#DejaVuSans-61"/>
      <use x="208.59375" xlink:href="#DejaVuSans-4d"/>
      <use x="294.873047" xlink:href="#DejaVuSans-50"/>
     </g>
    </g>
   </g>
   <g id="line2d_30">
    <path clip-path="url(#pbf6895bb5e)" d="M 119.872159 1238.656968 
L 1333.364281 1238.656968 
L 1334.602539 725.433827 
L 1342.032082 725.433827 
L 1343.270339 1238.656968 
L 1349.461626 1238.656968 
L 1350.699883 725.433827 
L 1376.703286 725.433827 
L 1377.941543 1238.656968 
L 1381.656315 1238.656968 
L 1382.894572 725.433827 
L 1387.847601 725.433827 
L 1389.085858 1238.656968 
L 1392.80063 1238.656968 
L 1394.038887 725.433827 
L 1395.277145 725.433827 
L 1396.515402 1238.656968 
L 1400.230174 1238.656968 
L 1401.468431 725.433827 
L 1411.374489 725.433827 
L 1412.612746 1238.656968 
L 1416.327518 1238.656968 
L 1417.565775 725.433827 
L 1426.233576 725.433827 
L 1427.471834 1238.656968 
L 1447.28395 1238.656968 
L 1448.522207 725.433827 
L 1459.666523 725.433827 
L 1460.90478 1238.656968 
L 1468.334323 1238.656968 
L 1469.572581 725.433827 
L 1512.911585 725.433827 
L 1514.149842 1238.656968 
L 1515.3881 725.433827 
L 1641.690341 725.433827 
L 1641.690341 725.433827 
" style="fill:none;stroke:#008000;stroke-linecap:square;stroke-width:1.5;"/>
   </g>
   <g id="patch_8">
    <path d="M 43.78125 1264.318125 
L 43.78125 699.77267 
" style="fill:none;stroke:#000000;stroke-linecap:square;stroke-linejoin:miter;stroke-width:0.8;"/>
   </g>
   <g id="patch_9">
    <path d="M 1717.78125 1264.318125 
L 1717.78125 699.77267 
" style="fill:none;stroke:#000000;stroke-linecap:square;stroke-linejoin:miter;stroke-width:0.8;"/>
   </g>
   <g id="patch_10">
    <path d="M 43.78125 1264.318125 
L 1717.78125 1264.318125 
" style="fill:none;stroke:#000000;stroke-linecap:square;stroke-linejoin:miter;stroke-width:0.8;"/>
   </g>
   <g id="patch_11">
    <path d="M 43.78125 699.77267 
L 1717.78125 699.77267 
" style="fill:none;stroke:#000000;stroke-linecap:square;stroke-linejoin:miter;stroke-width:0.8;"/>
   </g>
   <g id="text_34">
    <!-- before binarisation -->
    <g transform="translate(824.1825 693.77267)scale(0.12 -0.12)">
     <use xlink:href="#DejaVuSans-62"/>
     <use x="63.476562" xlink:href="#DejaVuSans-65"/>
     <use x="125" xlink:href="#DejaVuSans-66"/>
     <use x="160.205078" xlink:href="#DejaVuSans-6f"/>
     <use x="221.386719" xlink:href="#DejaVuSans-72"/>
     <use x="260.25" xlink:href="#DejaVuSans-65"/>
     <use x="321.773438" xlink:href="#DejaVuSans-20"/>
     <use x="353.560547" xlink:href="#DejaVuSans-62"/>
     <use x="417.037109" xlink:href="#DejaVuSans-69"/>
     <use x="444.820312" xlink:href="#DejaVuSans-6e"/>
     <use x="508.199219" xlink:href="#DejaVuSans-61"/>
     <use x="569.478516" xlink:href="#DejaVuSans-72"/>
     <use x="610.591797" xlink:href="#DejaVuSans-69"/>
     <use x="638.375" xlink:href="#DejaVuSans-73"/>
     <use x="690.474609" xlink:href="#DejaVuSans-61"/>
     <use x="751.753906" xlink:href="#DejaVuSans-74"/>
     <use x="790.962891" xlink:href="#DejaVuSans-69"/>
     <use x="818.746094" xlink:href="#DejaVuSans-6f"/>
     <use x="879.927734" xlink:href="#DejaVuSans-6e"/>
    </g>
   </g>
  </g>
 </g>
 <defs>
  <clipPath id="p8ec837bccf">
   <rect height="564.545455" width="1674" x="43.78125" y="22.318125"/>
  </clipPath>
  <clipPath id="pbf6895bb5e">
   <rect height="564.545455" width="1674" x="43.78125" y="699.77267"/>
  </clipPath>
 </defs>
</svg>
