<?xml version="1.0" encoding="utf-8" standalone="no"?>
<!DOCTYPE svg PUBLIC "-//W3C//DTD SVG 1.1//EN"
  "http://www.w3.org/Graphics/SVG/1.1/DTD/svg11.dtd">
<svg height="1301.874375pt" version="1.1" viewBox="0 0 1724.98125 1301.874375" width="1724.98125pt" xmlns="http://www.w3.org/2000/svg" xmlns:xlink="http://www.w3.org/1999/xlink">
 <metadata>
  <rdf:RDF xmlns:cc="http://creativecommons.org/ns#" xmlns:dc="http://purl.org/dc/elements/1.1/" xmlns:rdf="http://www.w3.org/1999/02/22-rdf-syntax-ns#">
   <cc:Work>
    <dc:type rdf:resource="http://purl.org/dc/dcmitype/StillImage"/>
    <dc:date>2022-07-24T15:54:42.643649</dc:date>
    <dc:format>image/svg+xml</dc:format>
    <dc:creator>
     <cc:Agent>
      <dc:title>Matplotlib v3.4.2, https://matplotlib.org/</dc:title>
     </cc:Agent>
    </dc:creator>
   </cc:Work>
  </rdf:RDF>
 </metadata>
 <defs>
  <style type="text/css">*{stroke-linecap:butt;stroke-linejoin:round;}</style>
 </defs>
 <g id="figure_1">
  <g id="patch_1">
   <path d="M 0 1301.874375 
L 1724.98125 1301.874375 
L 1724.98125 0 
L 0 0 
z
" style="fill:#ffffff;"/>
  </g>
  <g id="axes_1">
   <g id="patch_2">
    <path d="M 43.78125 586.86358 
L 1717.78125 586.86358 
L 1717.78125 22.318125 
L 43.78125 22.318125 
z
" style="fill:#ffffff;"/>
   </g>
   <g id="matplotlib.axis_1">
    <g id="xtick_1">
     <g id="line2d_1">
      <defs>
       <path d="M 0 0 
L 0 3.5 
" id="mcc931f04ff" style="stroke:#000000;stroke-width:0.8;"/>
      </defs>
      <g>
       <use style="stroke:#000000;stroke-width:0.8;" x="119.872159" xlink:href="#mcc931f04ff" y="586.86358"/>
      </g>
     </g>
     <g id="text_1">
      <!-- 0 -->
      <g transform="translate(116.690909 601.462017)scale(0.1 -0.1)">
       <defs>
        <path d="M 2034 4250 
Q 1547 4250 1301 3770 
Q 1056 3291 1056 2328 
Q 1056 1369 1301 889 
Q 1547 409 2034 409 
Q 2525 409 2770 889 
Q 3016 1369 3016 2328 
Q 3016 3291 2770 3770 
Q 2525 4250 2034 4250 
z
M 2034 4750 
Q 2819 4750 3233 4129 
Q 3647 3509 3647 2328 
Q 3647 1150 3233 529 
Q 2819 -91 2034 -91 
Q 1250 -91 836 529 
Q 422 1150 422 2328 
Q 422 3509 836 4129 
Q 1250 4750 2034 4750 
z
" id="DejaVuSans-30" transform="scale(0.015625)"/>
       </defs>
       <use xlink:href="#DejaVuSans-30"/>
      </g>
     </g>
    </g>
    <g id="xtick_2">
     <g id="line2d_2">
      <g>
       <use style="stroke:#000000;stroke-width:0.8;" x="367.523613" xlink:href="#mcc931f04ff" y="586.86358"/>
      </g>
     </g>
     <g id="text_2">
      <!-- 200 -->
      <g transform="translate(357.979863 601.462017)scale(0.1 -0.1)">
       <defs>
        <path d="M 1228 531 
L 3431 531 
L 3431 0 
L 469 0 
L 469 531 
Q 828 903 1448 1529 
Q 2069 2156 2228 2338 
Q 2531 2678 2651 2914 
Q 2772 3150 2772 3378 
Q 2772 3750 2511 3984 
Q 2250 4219 1831 4219 
Q 1534 4219 1204 4116 
Q 875 4013 500 3803 
L 500 4441 
Q 881 4594 1212 4672 
Q 1544 4750 1819 4750 
Q 2544 4750 2975 4387 
Q 3406 4025 3406 3419 
Q 3406 3131 3298 2873 
Q 3191 2616 2906 2266 
Q 2828 2175 2409 1742 
Q 1991 1309 1228 531 
z
" id="DejaVuSans-32" transform="scale(0.015625)"/>
       </defs>
       <use xlink:href="#DejaVuSans-32"/>
       <use x="63.623047" xlink:href="#DejaVuSans-30"/>
       <use x="127.246094" xlink:href="#DejaVuSans-30"/>
      </g>
     </g>
    </g>
    <g id="xtick_3">
     <g id="line2d_3">
      <g>
       <use style="stroke:#000000;stroke-width:0.8;" x="615.175066" xlink:href="#mcc931f04ff" y="586.86358"/>
      </g>
     </g>
     <g id="text_3">
      <!-- 400 -->
      <g transform="translate(605.631316 601.462017)scale(0.1 -0.1)">
       <defs>
        <path d="M 2419 4116 
L 825 1625 
L 2419 1625 
L 2419 4116 
z
M 2253 4666 
L 3047 4666 
L 3047 1625 
L 3713 1625 
L 3713 1100 
L 3047 1100 
L 3047 0 
L 2419 0 
L 2419 1100 
L 313 1100 
L 313 1709 
L 2253 4666 
z
" id="DejaVuSans-34" transform="scale(0.015625)"/>
       </defs>
       <use xlink:href="#DejaVuSans-34"/>
       <use x="63.623047" xlink:href="#DejaVuSans-30"/>
       <use x="127.246094" xlink:href="#DejaVuSans-30"/>
      </g>
     </g>
    </g>
    <g id="xtick_4">
     <g id="line2d_4">
      <g>
       <use style="stroke:#000000;stroke-width:0.8;" x="862.82652" xlink:href="#mcc931f04ff" y="586.86358"/>
      </g>
     </g>
     <g id="text_4">
      <!-- 600 -->
      <g transform="translate(853.28277 601.462017)scale(0.1 -0.1)">
       <defs>
        <path d="M 2113 2584 
Q 1688 2584 1439 2293 
Q 1191 2003 1191 1497 
Q 1191 994 1439 701 
Q 1688 409 2113 409 
Q 2538 409 2786 701 
Q 3034 994 3034 1497 
Q 3034 2003 2786 2293 
Q 2538 2584 2113 2584 
z
M 3366 4563 
L 3366 3988 
Q 3128 4100 2886 4159 
Q 2644 4219 2406 4219 
Q 1781 4219 1451 3797 
Q 1122 3375 1075 2522 
Q 1259 2794 1537 2939 
Q 1816 3084 2150 3084 
Q 2853 3084 3261 2657 
Q 3669 2231 3669 1497 
Q 3669 778 3244 343 
Q 2819 -91 2113 -91 
Q 1303 -91 875 529 
Q 447 1150 447 2328 
Q 447 3434 972 4092 
Q 1497 4750 2381 4750 
Q 2619 4750 2861 4703 
Q 3103 4656 3366 4563 
z
" id="DejaVuSans-36" transform="scale(0.015625)"/>
       </defs>
       <use xlink:href="#DejaVuSans-36"/>
       <use x="63.623047" xlink:href="#DejaVuSans-30"/>
       <use x="127.246094" xlink:href="#DejaVuSans-30"/>
      </g>
     </g>
    </g>
    <g id="xtick_5">
     <g id="line2d_5">
      <g>
       <use style="stroke:#000000;stroke-width:0.8;" x="1110.477973" xlink:href="#mcc931f04ff" y="586.86358"/>
      </g>
     </g>
     <g id="text_5">
      <!-- 800 -->
      <g transform="translate(1100.934223 601.462017)scale(0.1 -0.1)">
       <defs>
        <path d="M 2034 2216 
Q 1584 2216 1326 1975 
Q 1069 1734 1069 1313 
Q 1069 891 1326 650 
Q 1584 409 2034 409 
Q 2484 409 2743 651 
Q 3003 894 3003 1313 
Q 3003 1734 2745 1975 
Q 2488 2216 2034 2216 
z
M 1403 2484 
Q 997 2584 770 2862 
Q 544 3141 544 3541 
Q 544 4100 942 4425 
Q 1341 4750 2034 4750 
Q 2731 4750 3128 4425 
Q 3525 4100 3525 3541 
Q 3525 3141 3298 2862 
Q 3072 2584 2669 2484 
Q 3125 2378 3379 2068 
Q 3634 1759 3634 1313 
Q 3634 634 3220 271 
Q 2806 -91 2034 -91 
Q 1263 -91 848 271 
Q 434 634 434 1313 
Q 434 1759 690 2068 
Q 947 2378 1403 2484 
z
M 1172 3481 
Q 1172 3119 1398 2916 
Q 1625 2713 2034 2713 
Q 2441 2713 2670 2916 
Q 2900 3119 2900 3481 
Q 2900 3844 2670 4047 
Q 2441 4250 2034 4250 
Q 1625 4250 1398 4047 
Q 1172 3844 1172 3481 
z
" id="DejaVuSans-38" transform="scale(0.015625)"/>
       </defs>
       <use xlink:href="#DejaVuSans-38"/>
       <use x="63.623047" xlink:href="#DejaVuSans-30"/>
       <use x="127.246094" xlink:href="#DejaVuSans-30"/>
      </g>
     </g>
    </g>
    <g id="xtick_6">
     <g id="line2d_6">
      <g>
       <use style="stroke:#000000;stroke-width:0.8;" x="1358.129427" xlink:href="#mcc931f04ff" y="586.86358"/>
      </g>
     </g>
     <g id="text_6">
      <!-- 1000 -->
      <g transform="translate(1345.404427 601.462017)scale(0.1 -0.1)">
       <defs>
        <path d="M 794 531 
L 1825 531 
L 1825 4091 
L 703 3866 
L 703 4441 
L 1819 4666 
L 2450 4666 
L 2450 531 
L 3481 531 
L 3481 0 
L 794 0 
L 794 531 
z
" id="DejaVuSans-31" transform="scale(0.015625)"/>
       </defs>
       <use xlink:href="#DejaVuSans-31"/>
       <use x="63.623047" xlink:href="#DejaVuSans-30"/>
       <use x="127.246094" xlink:href="#DejaVuSans-30"/>
       <use x="190.869141" xlink:href="#DejaVuSans-30"/>
      </g>
     </g>
    </g>
    <g id="xtick_7">
     <g id="line2d_7">
      <g>
       <use style="stroke:#000000;stroke-width:0.8;" x="1605.78088" xlink:href="#mcc931f04ff" y="586.86358"/>
      </g>
     </g>
     <g id="text_7">
      <!-- 1200 -->
      <g transform="translate(1593.05588 601.462017)scale(0.1 -0.1)">
       <use xlink:href="#DejaVuSans-31"/>
       <use x="63.623047" xlink:href="#DejaVuSans-32"/>
       <use x="127.246094" xlink:href="#DejaVuSans-30"/>
       <use x="190.869141" xlink:href="#DejaVuSans-30"/>
      </g>
     </g>
    </g>
    <g id="text_8">
     <!-- frame -->
     <g transform="translate(865.954687 615.140142)scale(0.1 -0.1)">
      <defs>
       <path d="M 2375 4863 
L 2375 4384 
L 1825 4384 
Q 1516 4384 1395 4259 
Q 1275 4134 1275 3809 
L 1275 3500 
L 2222 3500 
L 2222 3053 
L 1275 3053 
L 1275 0 
L 697 0 
L 697 3053 
L 147 3053 
L 147 3500 
L 697 3500 
L 697 3744 
Q 697 4328 969 4595 
Q 1241 4863 1831 4863 
L 2375 4863 
z
" id="DejaVuSans-66" transform="scale(0.015625)"/>
       <path d="M 2631 2963 
Q 2534 3019 2420 3045 
Q 2306 3072 2169 3072 
Q 1681 3072 1420 2755 
Q 1159 2438 1159 1844 
L 1159 0 
L 581 0 
L 581 3500 
L 1159 3500 
L 1159 2956 
Q 1341 3275 1631 3429 
Q 1922 3584 2338 3584 
Q 2397 3584 2469 3576 
Q 2541 3569 2628 3553 
L 2631 2963 
z
" id="DejaVuSans-72" transform="scale(0.015625)"/>
       <path d="M 2194 1759 
Q 1497 1759 1228 1600 
Q 959 1441 959 1056 
Q 959 750 1161 570 
Q 1363 391 1709 391 
Q 2188 391 2477 730 
Q 2766 1069 2766 1631 
L 2766 1759 
L 2194 1759 
z
M 3341 1997 
L 3341 0 
L 2766 0 
L 2766 531 
Q 2569 213 2275 61 
Q 1981 -91 1556 -91 
Q 1019 -91 701 211 
Q 384 513 384 1019 
Q 384 1609 779 1909 
Q 1175 2209 1959 2209 
L 2766 2209 
L 2766 2266 
Q 2766 2663 2505 2880 
Q 2244 3097 1772 3097 
Q 1472 3097 1187 3025 
Q 903 2953 641 2809 
L 641 3341 
Q 956 3463 1253 3523 
Q 1550 3584 1831 3584 
Q 2591 3584 2966 3190 
Q 3341 2797 3341 1997 
z
" id="DejaVuSans-61" transform="scale(0.015625)"/>
       <path d="M 3328 2828 
Q 3544 3216 3844 3400 
Q 4144 3584 4550 3584 
Q 5097 3584 5394 3201 
Q 5691 2819 5691 2113 
L 5691 0 
L 5113 0 
L 5113 2094 
Q 5113 2597 4934 2840 
Q 4756 3084 4391 3084 
Q 3944 3084 3684 2787 
Q 3425 2491 3425 1978 
L 3425 0 
L 2847 0 
L 2847 2094 
Q 2847 2600 2669 2842 
Q 2491 3084 2119 3084 
Q 1678 3084 1418 2786 
Q 1159 2488 1159 1978 
L 1159 0 
L 581 0 
L 581 3500 
L 1159 3500 
L 1159 2956 
Q 1356 3278 1631 3431 
Q 1906 3584 2284 3584 
Q 2666 3584 2933 3390 
Q 3200 3197 3328 2828 
z
" id="DejaVuSans-6d" transform="scale(0.015625)"/>
       <path d="M 3597 1894 
L 3597 1613 
L 953 1613 
Q 991 1019 1311 708 
Q 1631 397 2203 397 
Q 2534 397 2845 478 
Q 3156 559 3463 722 
L 3463 178 
Q 3153 47 2828 -22 
Q 2503 -91 2169 -91 
Q 1331 -91 842 396 
Q 353 884 353 1716 
Q 353 2575 817 3079 
Q 1281 3584 2069 3584 
Q 2775 3584 3186 3129 
Q 3597 2675 3597 1894 
z
M 3022 2063 
Q 3016 2534 2758 2815 
Q 2500 3097 2075 3097 
Q 1594 3097 1305 2825 
Q 1016 2553 972 2059 
L 3022 2063 
z
" id="DejaVuSans-65" transform="scale(0.015625)"/>
      </defs>
      <use xlink:href="#DejaVuSans-66"/>
      <use x="35.205078" xlink:href="#DejaVuSans-72"/>
      <use x="76.318359" xlink:href="#DejaVuSans-61"/>
      <use x="137.597656" xlink:href="#DejaVuSans-6d"/>
      <use x="235.009766" xlink:href="#DejaVuSans-65"/>
     </g>
    </g>
   </g>
   <g id="matplotlib.axis_2">
    <g id="ytick_1">
     <g id="line2d_8">
      <defs>
       <path d="M 0 0 
L -3.5 0 
" id="m93a07c0bea" style="stroke:#000000;stroke-width:0.8;"/>
      </defs>
      <g>
       <use style="stroke:#000000;stroke-width:0.8;" x="43.78125" xlink:href="#m93a07c0bea" y="536.500874"/>
      </g>
     </g>
     <g id="text_9">
      <!-- 1 -->
      <g transform="translate(30.41875 540.300092)scale(0.1 -0.1)">
       <use xlink:href="#DejaVuSans-31"/>
      </g>
     </g>
    </g>
    <g id="ytick_2">
     <g id="line2d_9">
      <g>
       <use style="stroke:#000000;stroke-width:0.8;" x="43.78125" xlink:href="#m93a07c0bea" y="426.224276"/>
      </g>
     </g>
     <g id="text_10">
      <!-- 2 -->
      <g transform="translate(30.41875 430.023495)scale(0.1 -0.1)">
       <use xlink:href="#DejaVuSans-32"/>
      </g>
     </g>
    </g>
    <g id="ytick_3">
     <g id="line2d_10">
      <g>
       <use style="stroke:#000000;stroke-width:0.8;" x="43.78125" xlink:href="#m93a07c0bea" y="315.947678"/>
      </g>
     </g>
     <g id="text_11">
      <!-- 3 -->
      <g transform="translate(30.41875 319.746897)scale(0.1 -0.1)">
       <defs>
        <path d="M 2597 2516 
Q 3050 2419 3304 2112 
Q 3559 1806 3559 1356 
Q 3559 666 3084 287 
Q 2609 -91 1734 -91 
Q 1441 -91 1130 -33 
Q 819 25 488 141 
L 488 750 
Q 750 597 1062 519 
Q 1375 441 1716 441 
Q 2309 441 2620 675 
Q 2931 909 2931 1356 
Q 2931 1769 2642 2001 
Q 2353 2234 1838 2234 
L 1294 2234 
L 1294 2753 
L 1863 2753 
Q 2328 2753 2575 2939 
Q 2822 3125 2822 3475 
Q 2822 3834 2567 4026 
Q 2313 4219 1838 4219 
Q 1578 4219 1281 4162 
Q 984 4106 628 3988 
L 628 4550 
Q 988 4650 1302 4700 
Q 1616 4750 1894 4750 
Q 2613 4750 3031 4423 
Q 3450 4097 3450 3541 
Q 3450 3153 3228 2886 
Q 3006 2619 2597 2516 
z
" id="DejaVuSans-33" transform="scale(0.015625)"/>
       </defs>
       <use xlink:href="#DejaVuSans-33"/>
      </g>
     </g>
    </g>
    <g id="ytick_4">
     <g id="line2d_11">
      <g>
       <use style="stroke:#000000;stroke-width:0.8;" x="43.78125" xlink:href="#m93a07c0bea" y="205.67108"/>
      </g>
     </g>
     <g id="text_12">
      <!-- 4 -->
      <g transform="translate(30.41875 209.470299)scale(0.1 -0.1)">
       <use xlink:href="#DejaVuSans-34"/>
      </g>
     </g>
    </g>
    <g id="ytick_5">
     <g id="line2d_12">
      <g>
       <use style="stroke:#000000;stroke-width:0.8;" x="43.78125" xlink:href="#m93a07c0bea" y="95.394482"/>
      </g>
     </g>
     <g id="text_13">
      <!-- 5 -->
      <g transform="translate(30.41875 99.193701)scale(0.1 -0.1)">
       <defs>
        <path d="M 691 4666 
L 3169 4666 
L 3169 4134 
L 1269 4134 
L 1269 2991 
Q 1406 3038 1543 3061 
Q 1681 3084 1819 3084 
Q 2600 3084 3056 2656 
Q 3513 2228 3513 1497 
Q 3513 744 3044 326 
Q 2575 -91 1722 -91 
Q 1428 -91 1123 -41 
Q 819 9 494 109 
L 494 744 
Q 775 591 1075 516 
Q 1375 441 1709 441 
Q 2250 441 2565 725 
Q 2881 1009 2881 1497 
Q 2881 1984 2565 2268 
Q 2250 2553 1709 2553 
Q 1456 2553 1204 2497 
Q 953 2441 691 2322 
L 691 4666 
z
" id="DejaVuSans-35" transform="scale(0.015625)"/>
       </defs>
       <use xlink:href="#DejaVuSans-35"/>
      </g>
     </g>
    </g>
    <g id="text_14">
     <!-- GCaMP -->
     <g transform="translate(24.339062 322.349446)rotate(-90)scale(0.1 -0.1)">
      <defs>
       <path d="M 3809 666 
L 3809 1919 
L 2778 1919 
L 2778 2438 
L 4434 2438 
L 4434 434 
Q 4069 175 3628 42 
Q 3188 -91 2688 -91 
Q 1594 -91 976 548 
Q 359 1188 359 2328 
Q 359 3472 976 4111 
Q 1594 4750 2688 4750 
Q 3144 4750 3555 4637 
Q 3966 4525 4313 4306 
L 4313 3634 
Q 3963 3931 3569 4081 
Q 3175 4231 2741 4231 
Q 1884 4231 1454 3753 
Q 1025 3275 1025 2328 
Q 1025 1384 1454 906 
Q 1884 428 2741 428 
Q 3075 428 3337 486 
Q 3600 544 3809 666 
z
" id="DejaVuSans-47" transform="scale(0.015625)"/>
       <path d="M 4122 4306 
L 4122 3641 
Q 3803 3938 3442 4084 
Q 3081 4231 2675 4231 
Q 1875 4231 1450 3742 
Q 1025 3253 1025 2328 
Q 1025 1406 1450 917 
Q 1875 428 2675 428 
Q 3081 428 3442 575 
Q 3803 722 4122 1019 
L 4122 359 
Q 3791 134 3420 21 
Q 3050 -91 2638 -91 
Q 1578 -91 968 557 
Q 359 1206 359 2328 
Q 359 3453 968 4101 
Q 1578 4750 2638 4750 
Q 3056 4750 3426 4639 
Q 3797 4528 4122 4306 
z
" id="DejaVuSans-43" transform="scale(0.015625)"/>
       <path d="M 628 4666 
L 1569 4666 
L 2759 1491 
L 3956 4666 
L 4897 4666 
L 4897 0 
L 4281 0 
L 4281 4097 
L 3078 897 
L 2444 897 
L 1241 4097 
L 1241 0 
L 628 0 
L 628 4666 
z
" id="DejaVuSans-4d" transform="scale(0.015625)"/>
       <path d="M 1259 4147 
L 1259 2394 
L 2053 2394 
Q 2494 2394 2734 2622 
Q 2975 2850 2975 3272 
Q 2975 3691 2734 3919 
Q 2494 4147 2053 4147 
L 1259 4147 
z
M 628 4666 
L 2053 4666 
Q 2838 4666 3239 4311 
Q 3641 3956 3641 3272 
Q 3641 2581 3239 2228 
Q 2838 1875 2053 1875 
L 1259 1875 
L 1259 0 
L 628 0 
L 628 4666 
z
" id="DejaVuSans-50" transform="scale(0.015625)"/>
      </defs>
      <use xlink:href="#DejaVuSans-47"/>
      <use x="77.490234" xlink:href="#DejaVuSans-43"/>
      <use x="147.314453" xlink:href="#DejaVuSans-61"/>
      <use x="208.59375" xlink:href="#DejaVuSans-4d"/>
      <use x="294.873047" xlink:href="#DejaVuSans-50"/>
     </g>
    </g>
   </g>
   <g id="line2d_13">
    <path clip-path="url(#p16b3579b25)" d="M 119.872159 559.682385 
L 121.110416 558.200923 
L 122.348674 557.177667 
L 123.586931 556.873705 
L 124.825188 557.161814 
L 126.063445 557.624866 
L 127.301703 557.920432 
L 128.53996 557.943468 
L 129.778217 557.713102 
L 131.016474 557.350002 
L 132.254732 557.147069 
L 133.492989 557.417739 
L 134.731246 558.18671 
L 135.969504 559.111059 
L 137.207761 559.717433 
L 138.446018 559.709652 
L 139.684275 559.121414 
L 142.16079 557.356604 
L 143.399047 556.903233 
L 144.637304 557.045418 
L 148.352076 558.699187 
L 149.590334 558.985887 
L 152.066848 559.293985 
L 153.305105 559.689105 
L 155.78162 560.76554 
L 157.019877 561.121255 
L 158.258134 561.202423 
L 159.496392 560.984678 
L 161.972906 559.968114 
L 165.687678 558.478506 
L 168.164193 556.818723 
L 169.40245 556.238545 
L 170.640707 556.12538 
L 171.878964 556.548112 
L 173.117222 557.469201 
L 174.355479 558.611543 
L 175.593736 559.47673 
L 176.831993 559.753741 
L 178.070251 559.564608 
L 179.308508 559.249031 
L 180.546765 559.100862 
L 181.785022 559.26326 
L 184.261537 560.012002 
L 185.499794 559.881134 
L 187.976309 558.44227 
L 189.214566 558.335044 
L 190.452823 558.99339 
L 191.691081 559.962255 
L 192.929338 560.61447 
L 194.167595 560.471212 
L 195.405852 559.553223 
L 196.64411 558.427306 
L 197.882367 557.642126 
L 199.120624 557.267677 
L 202.835396 556.623476 
L 205.311911 555.710872 
L 206.550168 555.266822 
L 207.788425 555.015634 
L 209.026682 554.993194 
L 212.741454 555.667772 
L 217.694483 555.440179 
L 220.170998 555.165723 
L 222.647512 554.673998 
L 225.124027 554.123149 
L 227.600541 553.954252 
L 230.077056 553.889632 
L 236.268342 553.125525 
L 238.744857 552.30481 
L 239.983114 551.717537 
L 242.459629 550.324957 
L 243.697886 549.9379 
L 244.936143 549.961784 
L 247.412658 550.490251 
L 253.603944 551.00083 
L 254.842201 551.309287 
L 257.318716 552.205972 
L 258.556973 552.10491 
L 259.79523 551.358506 
L 261.033488 550.106464 
L 263.510002 547.147106 
L 264.748259 546.153999 
L 265.986517 546.044743 
L 267.224774 546.928576 
L 269.701288 549.974282 
L 270.939546 551.029176 
L 272.177803 551.466564 
L 273.41606 551.37278 
L 274.654318 550.848557 
L 277.130832 549.151046 
L 278.369089 548.560136 
L 279.607347 548.501951 
L 280.845604 548.97152 
L 282.083861 549.629393 
L 283.322118 550.02932 
L 284.560376 550.052211 
L 287.03689 549.948522 
L 289.513405 550.024384 
L 290.751662 549.967698 
L 291.989919 549.761729 
L 294.466434 548.941266 
L 295.704691 548.778245 
L 298.181206 549.084547 
L 299.419463 548.905866 
L 301.895977 547.998704 
L 303.134235 547.799287 
L 306.849006 548.017954 
L 308.087264 547.687626 
L 309.325521 547.196932 
L 310.563778 546.92874 
L 311.802036 547.25364 
L 313.040293 548.203629 
L 314.27855 549.354832 
L 315.516807 550.141509 
L 316.755065 550.243752 
L 317.993322 549.709059 
L 320.469836 547.969568 
L 321.708094 547.28807 
L 322.946351 546.855511 
L 325.422866 546.216913 
L 326.661123 545.671036 
L 327.89938 544.823167 
L 329.137637 543.604263 
L 330.375895 542.158088 
L 331.614152 540.891814 
L 332.852409 540.278123 
L 334.090666 540.591246 
L 335.328924 541.714242 
L 336.567181 543.156435 
L 337.805438 544.38996 
L 339.043695 545.174527 
L 340.281953 545.484533 
L 341.52021 545.293061 
L 342.758467 544.561516 
L 343.996725 543.322728 
L 346.473239 540.312123 
L 347.711496 539.552438 
L 348.949754 539.758751 
L 350.188011 540.732521 
L 352.664525 543.246722 
L 353.902783 544.125057 
L 355.14104 544.68761 
L 357.617554 545.395388 
L 360.094069 545.88648 
L 363.808841 547.161483 
L 365.047098 546.953351 
L 366.285355 545.945584 
L 367.523613 544.490223 
L 368.76187 543.274445 
L 370.000127 542.751451 
L 371.238384 542.932781 
L 373.714899 544.069543 
L 374.953156 544.318165 
L 376.191413 544.28253 
L 377.429671 544.040657 
L 378.667928 543.528889 
L 381.144443 541.926992 
L 382.3827 541.548621 
L 383.620957 541.8019 
L 384.859214 542.399317 
L 386.097472 542.77439 
L 387.335729 542.610583 
L 388.573986 542.032839 
L 392.288758 539.971365 
L 393.527015 539.488738 
L 398.480044 538.175768 
L 400.956559 537.227514 
L 402.194816 537.061237 
L 403.433073 537.226798 
L 407.147845 538.483534 
L 409.62436 538.973816 
L 412.100874 539.260402 
L 413.339132 539.226582 
L 414.577389 538.857324 
L 418.292161 536.648672 
L 419.530418 536.218293 
L 420.768675 535.987138 
L 422.006932 535.926707 
L 423.24519 536.079868 
L 425.721704 536.854327 
L 426.959961 536.659603 
L 428.198219 535.657063 
L 431.912991 531.068216 
L 433.151248 529.927059 
L 434.389505 529.389648 
L 435.627762 529.683157 
L 436.86602 530.675511 
L 438.104277 531.82413 
L 439.342534 532.62419 
L 441.819049 533.648899 
L 443.057306 534.57768 
L 444.295563 535.710735 
L 445.53382 536.634748 
L 446.772078 537.098845 
L 448.010335 537.104417 
L 449.248592 536.717395 
L 451.725107 535.397982 
L 452.963364 535.139462 
L 454.201621 535.399472 
L 455.439879 535.900396 
L 456.678136 536.166149 
L 457.916393 535.919797 
L 459.15465 535.246673 
L 461.631165 533.501704 
L 462.869422 532.849759 
L 464.107679 532.567382 
L 467.822451 532.463871 
L 469.060709 532.163909 
L 472.77548 530.85084 
L 474.013738 530.695054 
L 475.251995 530.774025 
L 476.490252 531.170147 
L 477.728509 531.967267 
L 480.205024 533.909095 
L 481.443281 534.389563 
L 482.681538 534.368725 
L 485.158053 533.595096 
L 488.872825 532.987031 
L 492.587597 531.118645 
L 493.825854 531.353477 
L 495.064111 532.064122 
L 496.302368 532.561369 
L 497.540626 532.143559 
L 498.778883 530.692068 
L 500.01714 528.839033 
L 501.255397 527.380184 
L 502.493655 526.650974 
L 503.731912 526.531116 
L 508.684941 527.185562 
L 512.399713 528.366157 
L 513.63797 528.233646 
L 514.876227 527.61542 
L 517.352742 525.853773 
L 518.590999 525.57008 
L 521.067514 526.020939 
L 522.305771 525.994859 
L 523.544028 525.58675 
L 524.782286 524.777212 
L 526.020543 523.704711 
L 527.2588 522.794092 
L 528.497057 522.398625 
L 529.735315 522.503186 
L 530.973572 522.95652 
L 533.450086 524.365725 
L 534.688344 525.179946 
L 537.164858 527.147497 
L 538.403116 527.734367 
L 539.641373 527.673137 
L 540.87963 527.145937 
L 543.356145 525.890745 
L 544.594402 525.502179 
L 545.832659 525.40583 
L 547.070916 525.477129 
L 548.309174 525.401374 
L 549.547431 524.847804 
L 550.785688 523.673102 
L 553.262203 520.699921 
L 554.50046 519.960793 
L 555.738717 519.902887 
L 556.976975 520.12906 
L 558.215232 520.201783 
L 559.453489 519.933525 
L 560.691746 519.523964 
L 561.930004 519.462525 
L 563.168261 520.056458 
L 564.406518 520.990269 
L 565.644775 521.54046 
L 566.883033 521.186746 
L 568.12129 519.894536 
L 569.359547 517.964252 
L 571.836062 513.805994 
L 573.074319 512.435602 
L 574.312576 511.864529 
L 575.550834 511.866926 
L 576.789091 512.228898 
L 578.027348 513.056375 
L 579.265605 514.481684 
L 580.503863 516.411074 
L 582.980377 520.63123 
L 584.218634 522.035644 
L 585.456892 522.39337 
L 586.695149 521.678424 
L 587.933406 520.240894 
L 589.171663 518.574238 
L 590.409921 517.150335 
L 591.648178 516.321432 
L 594.124693 515.892405 
L 595.36295 515.401771 
L 599.077722 512.895936 
L 600.315979 512.422766 
L 601.554236 512.354828 
L 602.792493 512.671233 
L 604.030751 513.301125 
L 606.507265 514.972605 
L 610.222037 517.591802 
L 611.460294 518.239881 
L 612.698552 518.27414 
L 613.936809 517.658158 
L 617.651581 514.680287 
L 618.889838 514.059701 
L 620.128095 513.665122 
L 621.366352 513.146325 
L 622.60461 512.281049 
L 623.842867 511.239185 
L 625.081124 510.444014 
L 626.319382 510.267875 
L 627.557639 510.985178 
L 628.795896 512.639686 
L 630.034153 514.778768 
L 631.272411 516.615049 
L 632.510668 517.545192 
L 633.748925 517.508397 
L 636.22544 516.195443 
L 638.701954 514.92626 
L 641.178469 514.097453 
L 642.416726 513.673392 
L 646.131498 511.98554 
L 647.369755 511.577411 
L 648.608012 510.979949 
L 649.84627 510.046015 
L 651.084527 508.777214 
L 653.561041 505.586756 
L 654.799299 503.945484 
L 656.037556 502.498465 
L 658.51407 499.935637 
L 659.752328 498.134137 
L 660.990585 495.686451 
L 663.4671 489.804376 
L 664.705357 487.279178 
L 665.943614 485.44054 
L 667.181871 483.834913 
L 668.420129 481.661989 
L 670.896643 476.130263 
L 672.1349 474.558267 
L 673.373158 474.479845 
L 674.611415 475.633389 
L 678.326187 481.050255 
L 680.802701 483.858786 
L 683.279216 487.630583 
L 684.517473 489.023846 
L 685.75573 489.619143 
L 686.993988 489.790756 
L 688.232245 490.087396 
L 689.470502 490.999765 
L 690.708759 492.857872 
L 693.185274 498.227966 
L 694.423531 500.026222 
L 695.661789 500.35301 
L 696.900046 499.51458 
L 698.138303 498.400128 
L 699.37656 497.806946 
L 700.614818 498.114028 
L 701.853075 499.263127 
L 703.091332 500.774635 
L 704.329589 501.971967 
L 705.567847 502.308791 
L 706.806104 501.553706 
L 708.044361 499.935742 
L 709.282618 498.13028 
L 710.520876 496.925983 
L 711.759133 496.842179 
L 712.99739 497.929965 
L 715.473905 501.792603 
L 716.712162 503.105186 
L 717.950419 503.191602 
L 719.188677 502.069898 
L 721.665191 498.339656 
L 722.903448 497.061765 
L 724.141706 496.955554 
L 725.379963 498.019 
L 726.61822 499.451993 
L 727.856477 500.21147 
L 729.094735 499.823792 
L 731.571249 497.487975 
L 732.809507 497.268254 
L 734.047764 498.190246 
L 736.524278 501.316013 
L 737.762536 502.541504 
L 739.000793 503.235694 
L 740.23905 503.280901 
L 741.477307 502.739727 
L 742.715565 501.81136 
L 745.192079 499.530382 
L 746.430336 498.636731 
L 747.668594 498.08332 
L 748.906851 497.807584 
L 750.145108 497.765929 
L 751.383366 497.918444 
L 752.621623 498.318938 
L 753.85988 499.178211 
L 756.336395 501.944383 
L 757.574652 502.8114 
L 758.812909 502.807324 
L 760.051166 502.24857 
L 761.289424 501.84324 
L 762.527681 502.127952 
L 763.765938 503.095281 
L 765.004195 504.268504 
L 766.242453 505.116159 
L 767.48071 505.389582 
L 768.718967 505.140276 
L 769.957225 504.487732 
L 772.433739 502.438716 
L 773.671996 501.755203 
L 774.910254 501.742495 
L 776.148511 502.34677 
L 778.625025 504.197838 
L 779.863283 504.613507 
L 781.10154 504.421649 
L 782.339797 503.885383 
L 783.578054 503.503291 
L 784.816312 503.600159 
L 786.054569 503.97492 
L 787.292826 504.14516 
L 789.769341 503.873105 
L 791.007598 503.967863 
L 792.245855 504.263307 
L 795.960627 505.706433 
L 797.198884 505.805402 
L 800.913656 505.040249 
L 803.390171 505.31897 
L 804.628428 505.424155 
L 805.866685 505.224813 
L 808.3432 504.433217 
L 809.581457 504.1379 
L 810.819714 503.384065 
L 812.057972 501.813667 
L 817.011001 493.250633 
L 818.249258 491.918088 
L 819.487515 491.279213 
L 821.96403 490.941557 
L 823.202287 490.414691 
L 825.678802 488.926168 
L 826.917059 488.521201 
L 828.155316 488.301181 
L 829.393573 487.933903 
L 830.631831 487.098634 
L 831.870088 485.91056 
L 833.108345 484.936247 
L 834.346602 484.66834 
L 835.58486 485.138578 
L 838.061374 486.933099 
L 839.299632 488.000753 
L 840.537889 489.356394 
L 843.014403 492.322607 
L 844.252661 493.370237 
L 845.490918 494.068789 
L 846.729175 494.446911 
L 847.967432 494.340209 
L 849.20569 493.704801 
L 850.443947 492.727496 
L 854.158719 489.167081 
L 855.396976 488.487864 
L 856.635233 488.431166 
L 857.873491 489.015911 
L 859.111748 490.09083 
L 864.064777 495.366749 
L 865.303034 496.352579 
L 867.779549 498.02598 
L 869.017806 499.329445 
L 870.256063 501.237043 
L 871.49432 503.456001 
L 872.732578 505.218673 
L 873.970835 505.696245 
L 875.209092 504.474636 
L 876.44735 501.79888 
L 877.685607 498.492638 
L 878.923864 495.548221 
L 880.162121 493.667345 
L 881.400379 493.116599 
L 882.638636 493.880986 
L 883.876893 495.700495 
L 885.11515 497.906939 
L 886.353408 499.561906 
L 887.591665 500.078185 
L 890.06818 499.306023 
L 891.306437 499.374514 
L 892.544694 500.0324 
L 893.782951 501.217419 
L 895.021209 502.713138 
L 896.259466 504.029807 
L 897.497723 504.648229 
L 898.73598 504.437457 
L 899.974238 503.643807 
L 901.212495 502.445203 
L 902.450752 500.741945 
L 903.689009 498.322977 
L 904.927267 495.107993 
L 907.403781 488.033817 
L 908.642039 485.484655 
L 909.880296 484.174132 
L 911.118553 484.389316 
L 912.35681 485.992817 
L 913.595068 488.156301 
L 914.833325 489.878438 
L 916.071582 490.725709 
L 917.309839 490.944727 
L 919.786354 491.06093 
L 921.024611 491.18634 
L 922.262868 491.462751 
L 923.501126 492.048447 
L 924.739383 492.987736 
L 928.454155 496.592651 
L 929.692412 497.357433 
L 930.930669 497.608572 
L 932.168927 497.313165 
L 933.407184 496.536614 
L 934.645441 495.390114 
L 937.121956 492.729059 
L 939.59847 490.490699 
L 940.836727 489.745148 
L 942.074985 489.61439 
L 943.313242 489.900089 
L 944.551499 489.997711 
L 945.789757 489.667809 
L 947.028014 489.202865 
L 948.266271 488.91329 
L 949.504528 488.886966 
L 950.742786 489.111791 
L 954.457557 490.46465 
L 955.695815 490.685639 
L 959.410586 490.730438 
L 961.887101 491.465985 
L 963.125358 491.624509 
L 966.84013 491.590475 
L 968.078387 491.613952 
L 969.316645 491.366143 
L 970.554902 490.738852 
L 973.031416 489.150589 
L 976.746188 487.208111 
L 977.984446 487.034039 
L 979.222703 487.60205 
L 980.46096 488.887152 
L 982.937475 492.117308 
L 984.175732 493.349967 
L 985.413989 494.064414 
L 986.652246 494.227335 
L 987.890504 493.929641 
L 989.128761 493.365833 
L 990.367018 492.591891 
L 991.605275 491.336432 
L 992.843533 489.235926 
L 994.08179 486.255874 
L 995.320047 482.940659 
L 996.558305 480.258818 
L 997.796562 479.110218 
L 999.034819 479.766648 
L 1000.273076 481.652688 
L 1001.511334 483.75682 
L 1002.749591 485.238863 
L 1003.987848 485.759321 
L 1006.464363 485.313728 
L 1007.70262 485.574886 
L 1008.940877 486.165498 
L 1010.179134 486.28106 
L 1011.417392 485.188284 
L 1012.655649 482.482362 
L 1013.893906 477.875314 
L 1015.132164 471.209329 
L 1016.370421 462.423462 
L 1017.608678 451.243688 
L 1018.846935 437.379898 
L 1021.32345 403.589927 
L 1023.799964 368.782728 
L 1026.276479 338.53504 
L 1033.706023 256.852849 
L 1036.182537 231.682923 
L 1037.420794 222.285398 
L 1038.659052 217.030578 
L 1039.897309 216.338941 
L 1041.135566 219.173068 
L 1044.850338 232.750039 
L 1046.088595 238.326147 
L 1048.56511 250.889995 
L 1049.803367 255.608428 
L 1051.041624 258.165497 
L 1052.279882 258.733825 
L 1053.518139 258.343556 
L 1054.756396 258.279479 
L 1055.994653 259.439328 
L 1057.232911 262.034052 
L 1058.471168 265.702808 
L 1059.709425 269.948239 
L 1060.947682 274.69112 
L 1062.18594 280.23083 
L 1064.662454 292.337005 
L 1065.900711 296.695357 
L 1067.138969 298.605422 
L 1068.377226 298.37474 
L 1069.615483 297.601436 
L 1070.853741 297.954173 
L 1072.091998 300.117235 
L 1073.330255 303.77862 
L 1074.568512 307.886699 
L 1075.80677 311.344232 
L 1077.045027 313.912523 
L 1078.283284 315.997938 
L 1079.521541 317.776391 
L 1080.759799 318.923958 
L 1081.998056 319.293736 
L 1083.236313 319.781525 
L 1084.474571 321.85422 
L 1085.712828 326.079257 
L 1088.189342 337.051098 
L 1089.4276 340.435112 
L 1090.665857 339.957792 
L 1091.904114 334.173928 
L 1093.142371 322.472707 
L 1094.380629 305.315587 
L 1095.618886 284.136004 
L 1099.333658 214.678352 
L 1100.571915 194.52551 
L 1101.810172 177.069376 
L 1103.04843 162.016718 
L 1109.239716 95.879854 
L 1110.477973 84.93286 
L 1111.71623 78.407225 
L 1112.954488 75.929943 
L 1114.192745 75.240715 
L 1115.431002 73.576228 
L 1116.669259 69.652579 
L 1120.384031 53.363016 
L 1121.622289 49.875118 
L 1122.860546 48.102857 
L 1124.098803 47.979282 
L 1125.33706 48.983138 
L 1126.575318 50.674076 
L 1127.813575 52.94216 
L 1129.051832 55.903725 
L 1130.290089 60.058036 
L 1131.528347 66.060241 
L 1135.243118 89.655277 
L 1136.481376 94.953327 
L 1137.719633 98.296599 
L 1138.95789 100.161894 
L 1140.196148 101.514631 
L 1141.434405 103.919422 
L 1142.672662 108.444499 
L 1146.387434 127.041926 
L 1151.340463 149.679395 
L 1152.57872 153.191812 
L 1155.055235 157.859322 
L 1156.293492 161.746525 
L 1157.531749 167.450843 
L 1158.770007 173.717082 
L 1160.008264 179.05442 
L 1161.246521 182.822625 
L 1162.484778 184.850543 
L 1163.723036 184.779961 
L 1164.961293 182.395072 
L 1166.19955 177.902205 
L 1167.437807 171.295628 
L 1168.676065 162.255436 
L 1171.152579 139.868622 
L 1172.390837 130.319825 
L 1173.629094 123.984083 
L 1174.867351 120.895902 
L 1176.105608 119.808787 
L 1178.582123 118.60871 
L 1179.82038 118.498897 
L 1181.058637 120.098359 
L 1182.296895 124.375512 
L 1183.535152 131.474291 
L 1184.773409 140.655884 
L 1187.249924 160.205243 
L 1188.488181 167.494716 
L 1189.726438 171.270598 
L 1190.964696 171.720211 
L 1192.202953 170.570809 
L 1193.44121 169.901516 
L 1194.679467 171.32798 
L 1195.917725 175.910595 
L 1197.155982 184.014543 
L 1199.632496 205.059883 
L 1200.870754 212.340838 
L 1202.109011 215.211256 
L 1203.347268 214.361538 
L 1205.823783 208.416757 
L 1207.06204 206.854252 
L 1208.300297 207.230283 
L 1209.538555 208.637026 
L 1210.776812 209.755401 
L 1212.015069 209.657893 
L 1213.253326 207.610588 
L 1214.491584 202.78951 
L 1215.729841 194.67059 
L 1216.968098 183.703561 
L 1219.444613 160.682043 
L 1220.68287 151.493381 
L 1223.159384 136.101811 
L 1229.350671 101.023179 
L 1230.588928 96.950161 
L 1231.827185 96.687635 
L 1233.065443 99.473403 
L 1234.3037 103.169553 
L 1235.541957 105.827285 
L 1236.780214 106.775941 
L 1239.256729 106.398821 
L 1240.494986 107.2375 
L 1242.971501 110.856444 
L 1244.209758 111.717592 
L 1245.448015 112.253526 
L 1246.686273 113.598768 
L 1247.92453 116.433185 
L 1249.162787 120.711296 
L 1251.639302 130.428404 
L 1254.115816 138.763408 
L 1255.354073 142.081638 
L 1259.068845 149.738071 
L 1260.307103 153.237233 
L 1261.54536 157.341013 
L 1262.783617 160.978751 
L 1264.021874 163.553487 
L 1265.260132 165.779069 
L 1267.736646 171.147105 
L 1268.974903 173.219492 
L 1270.213161 174.508 
L 1272.689675 176.388693 
L 1273.927932 177.623417 
L 1275.16619 179.562353 
L 1276.404447 182.424042 
L 1277.642704 185.602427 
L 1278.880962 187.62555 
L 1280.119219 187.125105 
L 1281.357476 184.249395 
L 1282.595733 180.896889 
L 1283.833991 179.203934 
L 1285.072248 179.953632 
L 1286.310505 182.675912 
L 1287.548762 186.785409 
L 1290.025277 196.716034 
L 1291.263534 200.184665 
L 1292.501791 201.510001 
L 1293.740049 200.643869 
L 1294.978306 197.973887 
L 1296.216563 194.64171 
L 1297.454821 192.093654 
L 1298.693078 191.158702 
L 1299.931335 191.883719 
L 1301.169592 193.59926 
L 1302.40785 195.059683 
L 1303.646107 195.071771 
L 1304.884364 193.217187 
L 1306.122621 190.355299 
L 1307.360879 188.362971 
L 1308.599136 188.917659 
L 1309.837393 192.718977 
L 1311.07565 199.774412 
L 1312.313908 209.602804 
L 1314.790422 231.04444 
L 1316.02868 238.222013 
L 1317.266937 241.483821 
L 1318.505194 241.257194 
L 1319.743451 238.769204 
L 1320.981709 235.446467 
L 1322.219966 232.559395 
L 1323.458223 231.174788 
L 1324.69648 231.809688 
L 1325.934738 234.079182 
L 1327.172995 237.033905 
L 1328.411252 239.632592 
L 1329.649509 241.079504 
L 1330.887767 241.336328 
L 1333.364281 240.563214 
L 1334.602539 240.432026 
L 1335.840796 241.021792 
L 1337.079053 242.639989 
L 1338.31731 244.940918 
L 1339.555568 246.889673 
L 1340.793825 247.49819 
L 1342.032082 246.369516 
L 1344.508597 241.727084 
L 1345.746854 240.417895 
L 1346.985111 240.066711 
L 1348.223368 240.070704 
L 1349.461626 239.876939 
L 1350.699883 239.531529 
L 1351.93814 239.492379 
L 1353.176398 239.628235 
L 1354.414655 239.147312 
L 1355.652912 237.694236 
L 1356.891169 235.925843 
L 1358.129427 234.934586 
L 1359.367684 235.328686 
L 1360.605941 237.085864 
L 1361.844198 239.967887 
L 1365.55897 250.568997 
L 1366.797228 252.57389 
L 1368.035485 252.450644 
L 1369.273742 249.678748 
L 1370.511999 244.687191 
L 1372.988514 232.957077 
L 1374.226771 228.266561 
L 1375.465028 225.092461 
L 1376.703286 223.60381 
L 1377.941543 223.309411 
L 1379.1798 223.268601 
L 1380.418057 222.828227 
L 1381.656315 222.228319 
L 1382.894572 222.861665 
L 1384.132829 226.285581 
L 1385.371087 232.452382 
L 1386.609344 239.582239 
L 1387.847601 245.588545 
L 1389.085858 248.976505 
L 1390.324116 249.145813 
L 1391.562373 246.736378 
L 1392.80063 243.50129 
L 1394.038887 241.532916 
L 1395.277145 242.317162 
L 1396.515402 245.969624 
L 1398.991916 256.016212 
L 1400.230174 259.04293 
L 1401.468431 259.801632 
L 1402.706688 259.211341 
L 1403.944946 258.825782 
L 1405.183203 259.384727 
L 1406.42146 260.67081 
L 1408.897975 263.969234 
L 1410.136232 265.80918 
L 1411.374489 267.983604 
L 1412.612746 270.456595 
L 1413.851004 272.531093 
L 1415.089261 272.860308 
L 1416.327518 270.403847 
L 1417.565775 265.436064 
L 1418.804033 259.558968 
L 1420.04229 254.835043 
L 1421.280547 252.965589 
L 1422.518805 254.946911 
L 1423.757062 260.488515 
L 1424.995319 267.491185 
L 1426.233576 273.043936 
L 1427.471834 275.500997 
L 1428.710091 275.44242 
L 1432.424863 272.700357 
L 1433.66312 271.436882 
L 1434.901377 269.821843 
L 1438.616149 264.011449 
L 1439.854406 262.921937 
L 1441.092664 263.119855 
L 1442.330921 264.656966 
L 1444.807435 269.231843 
L 1446.045693 270.938631 
L 1447.28395 272.277741 
L 1448.522207 273.437771 
L 1449.760464 274.380496 
L 1450.998722 274.984715 
L 1452.236979 275.18356 
L 1454.713494 274.98216 
L 1455.951751 275.125723 
L 1457.190008 275.463881 
L 1458.428265 276.032477 
L 1459.666523 276.997585 
L 1463.381294 280.670033 
L 1464.619552 281.541044 
L 1465.857809 282.049883 
L 1467.096066 282.750562 
L 1468.334323 284.221755 
L 1470.810838 288.734725 
L 1472.049095 291.127202 
L 1473.287353 293.822201 
L 1474.52561 296.822357 
L 1475.763867 299.481994 
L 1477.002124 300.914399 
L 1478.240382 300.450103 
L 1479.478639 298.12509 
L 1480.716896 294.864084 
L 1481.955153 291.950703 
L 1483.193411 290.373501 
L 1484.431668 290.343601 
L 1485.669925 291.285338 
L 1486.908182 292.59318 
L 1491.861212 298.63756 
L 1493.099469 300.690871 
L 1494.337726 304.119035 
L 1495.575983 309.100044 
L 1499.290755 328.074476 
L 1500.529012 332.756623 
L 1501.76727 335.420594 
L 1503.005527 335.983323 
L 1504.243784 334.526653 
L 1505.482041 331.469792 
L 1506.720299 327.628292 
L 1507.958556 324.149148 
L 1509.196813 322.470545 
L 1510.435071 323.45195 
L 1511.673328 326.55897 
L 1515.3881 338.9026 
L 1517.864614 347.251262 
L 1519.102871 350.789702 
L 1521.579386 356.953006 
L 1522.817643 359.741258 
L 1524.0559 361.858741 
L 1525.294158 363.235394 
L 1527.770672 365.247908 
L 1529.00893 366.676674 
L 1530.247187 369.042659 
L 1531.485444 372.434118 
L 1533.961959 379.775041 
L 1536.438473 386.338561 
L 1540.153245 397.801662 
L 1541.391502 399.971433 
L 1542.62976 400.592972 
L 1546.344531 399.865205 
L 1547.582789 399.118446 
L 1548.821046 397.914777 
L 1550.059303 396.979522 
L 1551.29756 397.04012 
L 1552.535818 398.078447 
L 1553.774075 399.348484 
L 1555.012332 400.085931 
L 1556.250589 400.292686 
L 1557.488847 400.912497 
L 1558.727104 402.967582 
L 1561.203619 409.383242 
L 1562.441876 410.413868 
L 1563.680133 408.755545 
L 1564.91839 405.419873 
L 1566.156648 402.458185 
L 1567.394905 401.535012 
L 1568.633162 402.897156 
L 1569.871419 405.486762 
L 1571.109677 407.742862 
L 1572.347934 408.660432 
L 1574.824448 408.213056 
L 1576.062706 408.740175 
L 1577.300963 410.325497 
L 1578.53922 412.820897 
L 1582.253992 422.376508 
L 1583.492249 424.634324 
L 1584.730507 425.546458 
L 1585.968764 425.203905 
L 1587.207021 424.359475 
L 1588.445278 423.916906 
L 1589.683536 424.396554 
L 1590.921793 425.797736 
L 1594.636565 431.873942 
L 1595.874822 433.26018 
L 1597.113079 434.377687 
L 1598.351337 435.244347 
L 1599.589594 435.404283 
L 1600.827851 434.325165 
L 1603.304366 429.643462 
L 1604.542623 428.333719 
L 1605.78088 428.722261 
L 1608.257395 431.859889 
L 1609.495652 432.817464 
L 1610.733909 433.172592 
L 1611.972166 433.173783 
L 1613.210424 432.842123 
L 1614.448681 432.357153 
L 1615.686938 432.197054 
L 1616.925196 432.474513 
L 1618.163453 432.874498 
L 1619.40171 433.453983 
L 1620.639967 434.704573 
L 1621.878225 436.752127 
L 1623.116482 439.056022 
L 1626.831254 445.139496 
L 1629.307768 450.979997 
L 1630.546026 453.286658 
L 1631.784283 454.200049 
L 1633.02254 453.417678 
L 1634.260797 451.206224 
L 1635.499055 448.074233 
L 1637.975569 440.855582 
L 1639.213826 437.682807 
L 1640.452084 435.196624 
L 1641.690341 433.212516 
L 1641.690341 433.212516 
" style="fill:none;stroke:#008000;stroke-linecap:square;stroke-width:1.5;"/>
   </g>
   <g id="patch_3">
    <path d="M 43.78125 586.86358 
L 43.78125 22.318125 
" style="fill:none;stroke:#000000;stroke-linecap:square;stroke-linejoin:miter;stroke-width:0.8;"/>
   </g>
   <g id="patch_4">
    <path d="M 1717.78125 586.86358 
L 1717.78125 22.318125 
" style="fill:none;stroke:#000000;stroke-linecap:square;stroke-linejoin:miter;stroke-width:0.8;"/>
   </g>
   <g id="patch_5">
    <path d="M 43.78125 586.86358 
L 1717.78125 586.86358 
" style="fill:none;stroke:#000000;stroke-linecap:square;stroke-linejoin:miter;stroke-width:0.8;"/>
   </g>
   <g id="patch_6">
    <path d="M 43.78125 22.318125 
L 1717.78125 22.318125 
" style="fill:none;stroke:#000000;stroke-linecap:square;stroke-linejoin:miter;stroke-width:0.8;"/>
   </g>
   <g id="text_15">
    <!-- before binarisation -->
    <g transform="translate(824.1825 16.318125)scale(0.12 -0.12)">
     <defs>
      <path d="M 3116 1747 
Q 3116 2381 2855 2742 
Q 2594 3103 2138 3103 
Q 1681 3103 1420 2742 
Q 1159 2381 1159 1747 
Q 1159 1113 1420 752 
Q 1681 391 2138 391 
Q 2594 391 2855 752 
Q 3116 1113 3116 1747 
z
M 1159 2969 
Q 1341 3281 1617 3432 
Q 1894 3584 2278 3584 
Q 2916 3584 3314 3078 
Q 3713 2572 3713 1747 
Q 3713 922 3314 415 
Q 2916 -91 2278 -91 
Q 1894 -91 1617 61 
Q 1341 213 1159 525 
L 1159 0 
L 581 0 
L 581 4863 
L 1159 4863 
L 1159 2969 
z
" id="DejaVuSans-62" transform="scale(0.015625)"/>
      <path d="M 1959 3097 
Q 1497 3097 1228 2736 
Q 959 2375 959 1747 
Q 959 1119 1226 758 
Q 1494 397 1959 397 
Q 2419 397 2687 759 
Q 2956 1122 2956 1747 
Q 2956 2369 2687 2733 
Q 2419 3097 1959 3097 
z
M 1959 3584 
Q 2709 3584 3137 3096 
Q 3566 2609 3566 1747 
Q 3566 888 3137 398 
Q 2709 -91 1959 -91 
Q 1206 -91 779 398 
Q 353 888 353 1747 
Q 353 2609 779 3096 
Q 1206 3584 1959 3584 
z
" id="DejaVuSans-6f" transform="scale(0.015625)"/>
      <path id="DejaVuSans-20" transform="scale(0.015625)"/>
      <path d="M 603 3500 
L 1178 3500 
L 1178 0 
L 603 0 
L 603 3500 
z
M 603 4863 
L 1178 4863 
L 1178 4134 
L 603 4134 
L 603 4863 
z
" id="DejaVuSans-69" transform="scale(0.015625)"/>
      <path d="M 3513 2113 
L 3513 0 
L 2938 0 
L 2938 2094 
Q 2938 2591 2744 2837 
Q 2550 3084 2163 3084 
Q 1697 3084 1428 2787 
Q 1159 2491 1159 1978 
L 1159 0 
L 581 0 
L 581 3500 
L 1159 3500 
L 1159 2956 
Q 1366 3272 1645 3428 
Q 1925 3584 2291 3584 
Q 2894 3584 3203 3211 
Q 3513 2838 3513 2113 
z
" id="DejaVuSans-6e" transform="scale(0.015625)"/>
      <path d="M 2834 3397 
L 2834 2853 
Q 2591 2978 2328 3040 
Q 2066 3103 1784 3103 
Q 1356 3103 1142 2972 
Q 928 2841 928 2578 
Q 928 2378 1081 2264 
Q 1234 2150 1697 2047 
L 1894 2003 
Q 2506 1872 2764 1633 
Q 3022 1394 3022 966 
Q 3022 478 2636 193 
Q 2250 -91 1575 -91 
Q 1294 -91 989 -36 
Q 684 19 347 128 
L 347 722 
Q 666 556 975 473 
Q 1284 391 1588 391 
Q 1994 391 2212 530 
Q 2431 669 2431 922 
Q 2431 1156 2273 1281 
Q 2116 1406 1581 1522 
L 1381 1569 
Q 847 1681 609 1914 
Q 372 2147 372 2553 
Q 372 3047 722 3315 
Q 1072 3584 1716 3584 
Q 2034 3584 2315 3537 
Q 2597 3491 2834 3397 
z
" id="DejaVuSans-73" transform="scale(0.015625)"/>
      <path d="M 1172 4494 
L 1172 3500 
L 2356 3500 
L 2356 3053 
L 1172 3053 
L 1172 1153 
Q 1172 725 1289 603 
Q 1406 481 1766 481 
L 2356 481 
L 2356 0 
L 1766 0 
Q 1100 0 847 248 
Q 594 497 594 1153 
L 594 3053 
L 172 3053 
L 172 3500 
L 594 3500 
L 594 4494 
L 1172 4494 
z
" id="DejaVuSans-74" transform="scale(0.015625)"/>
     </defs>
     <use xlink:href="#DejaVuSans-62"/>
     <use x="63.476562" xlink:href="#DejaVuSans-65"/>
     <use x="125" xlink:href="#DejaVuSans-66"/>
     <use x="160.205078" xlink:href="#DejaVuSans-6f"/>
     <use x="221.386719" xlink:href="#DejaVuSans-72"/>
     <use x="260.25" xlink:href="#DejaVuSans-65"/>
     <use x="321.773438" xlink:href="#DejaVuSans-20"/>
     <use x="353.560547" xlink:href="#DejaVuSans-62"/>
     <use x="417.037109" xlink:href="#DejaVuSans-69"/>
     <use x="444.820312" xlink:href="#DejaVuSans-6e"/>
     <use x="508.199219" xlink:href="#DejaVuSans-61"/>
     <use x="569.478516" xlink:href="#DejaVuSans-72"/>
     <use x="610.591797" xlink:href="#DejaVuSans-69"/>
     <use x="638.375" xlink:href="#DejaVuSans-73"/>
     <use x="690.474609" xlink:href="#DejaVuSans-61"/>
     <use x="751.753906" xlink:href="#DejaVuSans-74"/>
     <use x="790.962891" xlink:href="#DejaVuSans-69"/>
     <use x="818.746094" xlink:href="#DejaVuSans-6f"/>
     <use x="879.927734" xlink:href="#DejaVuSans-6e"/>
    </g>
   </g>
  </g>
  <g id="axes_2">
   <g id="patch_7">
    <path d="M 43.78125 1264.318125 
L 1717.78125 1264.318125 
L 1717.78125 699.77267 
L 43.78125 699.77267 
z
" style="fill:#ffffff;"/>
   </g>
   <g id="matplotlib.axis_3">
    <g id="xtick_8">
     <g id="line2d_14">
      <g>
       <use style="stroke:#000000;stroke-width:0.8;" x="119.872159" xlink:href="#mcc931f04ff" y="1264.318125"/>
      </g>
     </g>
     <g id="text_16">
      <!-- 0 -->
      <g transform="translate(116.690909 1278.916563)scale(0.1 -0.1)">
       <use xlink:href="#DejaVuSans-30"/>
      </g>
     </g>
    </g>
    <g id="xtick_9">
     <g id="line2d_15">
      <g>
       <use style="stroke:#000000;stroke-width:0.8;" x="367.523613" xlink:href="#mcc931f04ff" y="1264.318125"/>
      </g>
     </g>
     <g id="text_17">
      <!-- 200 -->
      <g transform="translate(357.979863 1278.916563)scale(0.1 -0.1)">
       <use xlink:href="#DejaVuSans-32"/>
       <use x="63.623047" xlink:href="#DejaVuSans-30"/>
       <use x="127.246094" xlink:href="#DejaVuSans-30"/>
      </g>
     </g>
    </g>
    <g id="xtick_10">
     <g id="line2d_16">
      <g>
       <use style="stroke:#000000;stroke-width:0.8;" x="615.175066" xlink:href="#mcc931f04ff" y="1264.318125"/>
      </g>
     </g>
     <g id="text_18">
      <!-- 400 -->
      <g transform="translate(605.631316 1278.916563)scale(0.1 -0.1)">
       <use xlink:href="#DejaVuSans-34"/>
       <use x="63.623047" xlink:href="#DejaVuSans-30"/>
       <use x="127.246094" xlink:href="#DejaVuSans-30"/>
      </g>
     </g>
    </g>
    <g id="xtick_11">
     <g id="line2d_17">
      <g>
       <use style="stroke:#000000;stroke-width:0.8;" x="862.82652" xlink:href="#mcc931f04ff" y="1264.318125"/>
      </g>
     </g>
     <g id="text_19">
      <!-- 600 -->
      <g transform="translate(853.28277 1278.916563)scale(0.1 -0.1)">
       <use xlink:href="#DejaVuSans-36"/>
       <use x="63.623047" xlink:href="#DejaVuSans-30"/>
       <use x="127.246094" xlink:href="#DejaVuSans-30"/>
      </g>
     </g>
    </g>
    <g id="xtick_12">
     <g id="line2d_18">
      <g>
       <use style="stroke:#000000;stroke-width:0.8;" x="1110.477973" xlink:href="#mcc931f04ff" y="1264.318125"/>
      </g>
     </g>
     <g id="text_20">
      <!-- 800 -->
      <g transform="translate(1100.934223 1278.916563)scale(0.1 -0.1)">
       <use xlink:href="#DejaVuSans-38"/>
       <use x="63.623047" xlink:href="#DejaVuSans-30"/>
       <use x="127.246094" xlink:href="#DejaVuSans-30"/>
      </g>
     </g>
    </g>
    <g id="xtick_13">
     <g id="line2d_19">
      <g>
       <use style="stroke:#000000;stroke-width:0.8;" x="1358.129427" xlink:href="#mcc931f04ff" y="1264.318125"/>
      </g>
     </g>
     <g id="text_21">
      <!-- 1000 -->
      <g transform="translate(1345.404427 1278.916563)scale(0.1 -0.1)">
       <use xlink:href="#DejaVuSans-31"/>
       <use x="63.623047" xlink:href="#DejaVuSans-30"/>
       <use x="127.246094" xlink:href="#DejaVuSans-30"/>
       <use x="190.869141" xlink:href="#DejaVuSans-30"/>
      </g>
     </g>
    </g>
    <g id="xtick_14">
     <g id="line2d_20">
      <g>
       <use style="stroke:#000000;stroke-width:0.8;" x="1605.78088" xlink:href="#mcc931f04ff" y="1264.318125"/>
      </g>
     </g>
     <g id="text_22">
      <!-- 1200 -->
      <g transform="translate(1593.05588 1278.916563)scale(0.1 -0.1)">
       <use xlink:href="#DejaVuSans-31"/>
       <use x="63.623047" xlink:href="#DejaVuSans-32"/>
       <use x="127.246094" xlink:href="#DejaVuSans-30"/>
       <use x="190.869141" xlink:href="#DejaVuSans-30"/>
      </g>
     </g>
    </g>
    <g id="text_23">
     <!-- frame -->
     <g transform="translate(865.954687 1292.594688)scale(0.1 -0.1)">
      <use xlink:href="#DejaVuSans-66"/>
      <use x="35.205078" xlink:href="#DejaVuSans-72"/>
      <use x="76.318359" xlink:href="#DejaVuSans-61"/>
      <use x="137.597656" xlink:href="#DejaVuSans-6d"/>
      <use x="235.009766" xlink:href="#DejaVuSans-65"/>
     </g>
    </g>
   </g>
   <g id="matplotlib.axis_4">
    <g id="ytick_6">
     <g id="line2d_21">
      <g>
       <use style="stroke:#000000;stroke-width:0.8;" x="43.78125" xlink:href="#m93a07c0bea" y="1238.656968"/>
      </g>
     </g>
     <g id="text_24">
      <!-- 0.0 -->
      <g transform="translate(20.878125 1242.456187)scale(0.1 -0.1)">
       <defs>
        <path d="M 684 794 
L 1344 794 
L 1344 0 
L 684 0 
L 684 794 
z
" id="DejaVuSans-2e" transform="scale(0.015625)"/>
       </defs>
       <use xlink:href="#DejaVuSans-30"/>
       <use x="63.623047" xlink:href="#DejaVuSans-2e"/>
       <use x="95.410156" xlink:href="#DejaVuSans-30"/>
      </g>
     </g>
    </g>
    <g id="ytick_7">
     <g id="line2d_22">
      <g>
       <use style="stroke:#000000;stroke-width:0.8;" x="43.78125" xlink:href="#m93a07c0bea" y="1136.01234"/>
      </g>
     </g>
     <g id="text_25">
      <!-- 0.2 -->
      <g transform="translate(20.878125 1139.811559)scale(0.1 -0.1)">
       <use xlink:href="#DejaVuSans-30"/>
       <use x="63.623047" xlink:href="#DejaVuSans-2e"/>
       <use x="95.410156" xlink:href="#DejaVuSans-32"/>
      </g>
     </g>
    </g>
    <g id="ytick_8">
     <g id="line2d_23">
      <g>
       <use style="stroke:#000000;stroke-width:0.8;" x="43.78125" xlink:href="#m93a07c0bea" y="1033.367712"/>
      </g>
     </g>
     <g id="text_26">
      <!-- 0.4 -->
      <g transform="translate(20.878125 1037.166931)scale(0.1 -0.1)">
       <use xlink:href="#DejaVuSans-30"/>
       <use x="63.623047" xlink:href="#DejaVuSans-2e"/>
       <use x="95.410156" xlink:href="#DejaVuSans-34"/>
      </g>
     </g>
    </g>
    <g id="ytick_9">
     <g id="line2d_24">
      <g>
       <use style="stroke:#000000;stroke-width:0.8;" x="43.78125" xlink:href="#m93a07c0bea" y="930.723084"/>
      </g>
     </g>
     <g id="text_27">
      <!-- 0.6 -->
      <g transform="translate(20.878125 934.522302)scale(0.1 -0.1)">
       <use xlink:href="#DejaVuSans-30"/>
       <use x="63.623047" xlink:href="#DejaVuSans-2e"/>
       <use x="95.410156" xlink:href="#DejaVuSans-36"/>
      </g>
     </g>
    </g>
    <g id="ytick_10">
     <g id="line2d_25">
      <g>
       <use style="stroke:#000000;stroke-width:0.8;" x="43.78125" xlink:href="#m93a07c0bea" y="828.078456"/>
      </g>
     </g>
     <g id="text_28">
      <!-- 0.8 -->
      <g transform="translate(20.878125 831.877674)scale(0.1 -0.1)">
       <use xlink:href="#DejaVuSans-30"/>
       <use x="63.623047" xlink:href="#DejaVuSans-2e"/>
       <use x="95.410156" xlink:href="#DejaVuSans-38"/>
      </g>
     </g>
    </g>
    <g id="ytick_11">
     <g id="line2d_26">
      <g>
       <use style="stroke:#000000;stroke-width:0.8;" x="43.78125" xlink:href="#m93a07c0bea" y="725.433827"/>
      </g>
     </g>
     <g id="text_29">
      <!-- 1.0 -->
      <g transform="translate(20.878125 729.233046)scale(0.1 -0.1)">
       <use xlink:href="#DejaVuSans-31"/>
       <use x="63.623047" xlink:href="#DejaVuSans-2e"/>
       <use x="95.410156" xlink:href="#DejaVuSans-30"/>
      </g>
     </g>
    </g>
    <g id="text_30">
     <!-- GCaMP -->
     <g transform="translate(14.798437 999.803991)rotate(-90)scale(0.1 -0.1)">
      <use xlink:href="#DejaVuSans-47"/>
      <use x="77.490234" xlink:href="#DejaVuSans-43"/>
      <use x="147.314453" xlink:href="#DejaVuSans-61"/>
      <use x="208.59375" xlink:href="#DejaVuSans-4d"/>
      <use x="294.873047" xlink:href="#DejaVuSans-50"/>
     </g>
    </g>
   </g>
   <g id="line2d_27">
    <path clip-path="url(#p91c890f912)" d="M 119.872159 1238.656968 
L 1032.467765 1238.656968 
L 1033.706023 725.433827 
L 1058.471168 725.433827 
L 1059.709425 1238.656968 
L 1095.618886 1238.656968 
L 1096.857143 725.433827 
L 1410.136232 725.433827 
L 1411.374489 1238.656968 
L 1416.327518 1238.656968 
L 1417.565775 725.433827 
L 1423.757062 725.433827 
L 1424.995319 1238.656968 
L 1436.139634 1238.656968 
L 1437.377892 725.433827 
L 1442.330921 725.433827 
L 1443.569178 1238.656968 
L 1641.690341 1238.656968 
L 1641.690341 1238.656968 
" style="fill:none;stroke:#008000;stroke-linecap:square;stroke-width:1.5;"/>
   </g>
   <g id="patch_8">
    <path d="M 43.78125 1264.318125 
L 43.78125 699.77267 
" style="fill:none;stroke:#000000;stroke-linecap:square;stroke-linejoin:miter;stroke-width:0.8;"/>
   </g>
   <g id="patch_9">
    <path d="M 1717.78125 1264.318125 
L 1717.78125 699.77267 
" style="fill:none;stroke:#000000;stroke-linecap:square;stroke-linejoin:miter;stroke-width:0.8;"/>
   </g>
   <g id="patch_10">
    <path d="M 43.78125 1264.318125 
L 1717.78125 1264.318125 
" style="fill:none;stroke:#000000;stroke-linecap:square;stroke-linejoin:miter;stroke-width:0.8;"/>
   </g>
   <g id="patch_11">
    <path d="M 43.78125 699.77267 
L 1717.78125 699.77267 
" style="fill:none;stroke:#000000;stroke-linecap:square;stroke-linejoin:miter;stroke-width:0.8;"/>
   </g>
   <g id="text_31">
    <!-- before binarisation -->
    <g transform="translate(824.1825 693.77267)scale(0.12 -0.12)">
     <use xlink:href="#DejaVuSans-62"/>
     <use x="63.476562" xlink:href="#DejaVuSans-65"/>
     <use x="125" xlink:href="#DejaVuSans-66"/>
     <use x="160.205078" xlink:href="#DejaVuSans-6f"/>
     <use x="221.386719" xlink:href="#DejaVuSans-72"/>
     <use x="260.25" xlink:href="#DejaVuSans-65"/>
     <use x="321.773438" xlink:href="#DejaVuSans-20"/>
     <use x="353.560547" xlink:href="#DejaVuSans-62"/>
     <use x="417.037109" xlink:href="#DejaVuSans-69"/>
     <use x="444.820312" xlink:href="#DejaVuSans-6e"/>
     <use x="508.199219" xlink:href="#DejaVuSans-61"/>
     <use x="569.478516" xlink:href="#DejaVuSans-72"/>
     <use x="610.591797" xlink:href="#DejaVuSans-69"/>
     <use x="638.375" xlink:href="#DejaVuSans-73"/>
     <use x="690.474609" xlink:href="#DejaVuSans-61"/>
     <use x="751.753906" xlink:href="#DejaVuSans-74"/>
     <use x="790.962891" xlink:href="#DejaVuSans-69"/>
     <use x="818.746094" xlink:href="#DejaVuSans-6f"/>
     <use x="879.927734" xlink:href="#DejaVuSans-6e"/>
    </g>
   </g>
  </g>
 </g>
 <defs>
  <clipPath id="p16b3579b25">
   <rect height="564.545455" width="1674" x="43.78125" y="22.318125"/>
  </clipPath>
  <clipPath id="p91c890f912">
   <rect height="564.545455" width="1674" x="43.78125" y="699.77267"/>
  </clipPath>
 </defs>
</svg>
