<?xml version="1.0" encoding="utf-8" standalone="no"?>
<!DOCTYPE svg PUBLIC "-//W3C//DTD SVG 1.1//EN"
  "http://www.w3.org/Graphics/SVG/1.1/DTD/svg11.dtd">
<svg height="1301.874375pt" version="1.1" viewBox="0 0 1724.98125 1301.874375" width="1724.98125pt" xmlns="http://www.w3.org/2000/svg" xmlns:xlink="http://www.w3.org/1999/xlink">
 <metadata>
  <rdf:RDF xmlns:cc="http://creativecommons.org/ns#" xmlns:dc="http://purl.org/dc/elements/1.1/" xmlns:rdf="http://www.w3.org/1999/02/22-rdf-syntax-ns#">
   <cc:Work>
    <dc:type rdf:resource="http://purl.org/dc/dcmitype/StillImage"/>
    <dc:date>2022-07-24T15:54:42.822143</dc:date>
    <dc:format>image/svg+xml</dc:format>
    <dc:creator>
     <cc:Agent>
      <dc:title>Matplotlib v3.4.2, https://matplotlib.org/</dc:title>
     </cc:Agent>
    </dc:creator>
   </cc:Work>
  </rdf:RDF>
 </metadata>
 <defs>
  <style type="text/css">*{stroke-linecap:butt;stroke-linejoin:round;}</style>
 </defs>
 <g id="figure_1">
  <g id="patch_1">
   <path d="M 0 1301.874375 
L 1724.98125 1301.874375 
L 1724.98125 0 
L 0 0 
z
" style="fill:#ffffff;"/>
  </g>
  <g id="axes_1">
   <g id="patch_2">
    <path d="M 43.78125 586.86358 
L 1717.78125 586.86358 
L 1717.78125 22.318125 
L 43.78125 22.318125 
z
" style="fill:#ffffff;"/>
   </g>
   <g id="matplotlib.axis_1">
    <g id="xtick_1">
     <g id="line2d_1">
      <defs>
       <path d="M 0 0 
L 0 3.5 
" id="meb359c8d97" style="stroke:#000000;stroke-width:0.8;"/>
      </defs>
      <g>
       <use style="stroke:#000000;stroke-width:0.8;" x="119.872159" xlink:href="#meb359c8d97" y="586.86358"/>
      </g>
     </g>
     <g id="text_1">
      <!-- 0 -->
      <g transform="translate(116.690909 601.462017)scale(0.1 -0.1)">
       <defs>
        <path d="M 2034 4250 
Q 1547 4250 1301 3770 
Q 1056 3291 1056 2328 
Q 1056 1369 1301 889 
Q 1547 409 2034 409 
Q 2525 409 2770 889 
Q 3016 1369 3016 2328 
Q 3016 3291 2770 3770 
Q 2525 4250 2034 4250 
z
M 2034 4750 
Q 2819 4750 3233 4129 
Q 3647 3509 3647 2328 
Q 3647 1150 3233 529 
Q 2819 -91 2034 -91 
Q 1250 -91 836 529 
Q 422 1150 422 2328 
Q 422 3509 836 4129 
Q 1250 4750 2034 4750 
z
" id="DejaVuSans-30" transform="scale(0.015625)"/>
       </defs>
       <use xlink:href="#DejaVuSans-30"/>
      </g>
     </g>
    </g>
    <g id="xtick_2">
     <g id="line2d_2">
      <g>
       <use style="stroke:#000000;stroke-width:0.8;" x="367.523613" xlink:href="#meb359c8d97" y="586.86358"/>
      </g>
     </g>
     <g id="text_2">
      <!-- 200 -->
      <g transform="translate(357.979863 601.462017)scale(0.1 -0.1)">
       <defs>
        <path d="M 1228 531 
L 3431 531 
L 3431 0 
L 469 0 
L 469 531 
Q 828 903 1448 1529 
Q 2069 2156 2228 2338 
Q 2531 2678 2651 2914 
Q 2772 3150 2772 3378 
Q 2772 3750 2511 3984 
Q 2250 4219 1831 4219 
Q 1534 4219 1204 4116 
Q 875 4013 500 3803 
L 500 4441 
Q 881 4594 1212 4672 
Q 1544 4750 1819 4750 
Q 2544 4750 2975 4387 
Q 3406 4025 3406 3419 
Q 3406 3131 3298 2873 
Q 3191 2616 2906 2266 
Q 2828 2175 2409 1742 
Q 1991 1309 1228 531 
z
" id="DejaVuSans-32" transform="scale(0.015625)"/>
       </defs>
       <use xlink:href="#DejaVuSans-32"/>
       <use x="63.623047" xlink:href="#DejaVuSans-30"/>
       <use x="127.246094" xlink:href="#DejaVuSans-30"/>
      </g>
     </g>
    </g>
    <g id="xtick_3">
     <g id="line2d_3">
      <g>
       <use style="stroke:#000000;stroke-width:0.8;" x="615.175066" xlink:href="#meb359c8d97" y="586.86358"/>
      </g>
     </g>
     <g id="text_3">
      <!-- 400 -->
      <g transform="translate(605.631316 601.462017)scale(0.1 -0.1)">
       <defs>
        <path d="M 2419 4116 
L 825 1625 
L 2419 1625 
L 2419 4116 
z
M 2253 4666 
L 3047 4666 
L 3047 1625 
L 3713 1625 
L 3713 1100 
L 3047 1100 
L 3047 0 
L 2419 0 
L 2419 1100 
L 313 1100 
L 313 1709 
L 2253 4666 
z
" id="DejaVuSans-34" transform="scale(0.015625)"/>
       </defs>
       <use xlink:href="#DejaVuSans-34"/>
       <use x="63.623047" xlink:href="#DejaVuSans-30"/>
       <use x="127.246094" xlink:href="#DejaVuSans-30"/>
      </g>
     </g>
    </g>
    <g id="xtick_4">
     <g id="line2d_4">
      <g>
       <use style="stroke:#000000;stroke-width:0.8;" x="862.82652" xlink:href="#meb359c8d97" y="586.86358"/>
      </g>
     </g>
     <g id="text_4">
      <!-- 600 -->
      <g transform="translate(853.28277 601.462017)scale(0.1 -0.1)">
       <defs>
        <path d="M 2113 2584 
Q 1688 2584 1439 2293 
Q 1191 2003 1191 1497 
Q 1191 994 1439 701 
Q 1688 409 2113 409 
Q 2538 409 2786 701 
Q 3034 994 3034 1497 
Q 3034 2003 2786 2293 
Q 2538 2584 2113 2584 
z
M 3366 4563 
L 3366 3988 
Q 3128 4100 2886 4159 
Q 2644 4219 2406 4219 
Q 1781 4219 1451 3797 
Q 1122 3375 1075 2522 
Q 1259 2794 1537 2939 
Q 1816 3084 2150 3084 
Q 2853 3084 3261 2657 
Q 3669 2231 3669 1497 
Q 3669 778 3244 343 
Q 2819 -91 2113 -91 
Q 1303 -91 875 529 
Q 447 1150 447 2328 
Q 447 3434 972 4092 
Q 1497 4750 2381 4750 
Q 2619 4750 2861 4703 
Q 3103 4656 3366 4563 
z
" id="DejaVuSans-36" transform="scale(0.015625)"/>
       </defs>
       <use xlink:href="#DejaVuSans-36"/>
       <use x="63.623047" xlink:href="#DejaVuSans-30"/>
       <use x="127.246094" xlink:href="#DejaVuSans-30"/>
      </g>
     </g>
    </g>
    <g id="xtick_5">
     <g id="line2d_5">
      <g>
       <use style="stroke:#000000;stroke-width:0.8;" x="1110.477973" xlink:href="#meb359c8d97" y="586.86358"/>
      </g>
     </g>
     <g id="text_5">
      <!-- 800 -->
      <g transform="translate(1100.934223 601.462017)scale(0.1 -0.1)">
       <defs>
        <path d="M 2034 2216 
Q 1584 2216 1326 1975 
Q 1069 1734 1069 1313 
Q 1069 891 1326 650 
Q 1584 409 2034 409 
Q 2484 409 2743 651 
Q 3003 894 3003 1313 
Q 3003 1734 2745 1975 
Q 2488 2216 2034 2216 
z
M 1403 2484 
Q 997 2584 770 2862 
Q 544 3141 544 3541 
Q 544 4100 942 4425 
Q 1341 4750 2034 4750 
Q 2731 4750 3128 4425 
Q 3525 4100 3525 3541 
Q 3525 3141 3298 2862 
Q 3072 2584 2669 2484 
Q 3125 2378 3379 2068 
Q 3634 1759 3634 1313 
Q 3634 634 3220 271 
Q 2806 -91 2034 -91 
Q 1263 -91 848 271 
Q 434 634 434 1313 
Q 434 1759 690 2068 
Q 947 2378 1403 2484 
z
M 1172 3481 
Q 1172 3119 1398 2916 
Q 1625 2713 2034 2713 
Q 2441 2713 2670 2916 
Q 2900 3119 2900 3481 
Q 2900 3844 2670 4047 
Q 2441 4250 2034 4250 
Q 1625 4250 1398 4047 
Q 1172 3844 1172 3481 
z
" id="DejaVuSans-38" transform="scale(0.015625)"/>
       </defs>
       <use xlink:href="#DejaVuSans-38"/>
       <use x="63.623047" xlink:href="#DejaVuSans-30"/>
       <use x="127.246094" xlink:href="#DejaVuSans-30"/>
      </g>
     </g>
    </g>
    <g id="xtick_6">
     <g id="line2d_6">
      <g>
       <use style="stroke:#000000;stroke-width:0.8;" x="1358.129427" xlink:href="#meb359c8d97" y="586.86358"/>
      </g>
     </g>
     <g id="text_6">
      <!-- 1000 -->
      <g transform="translate(1345.404427 601.462017)scale(0.1 -0.1)">
       <defs>
        <path d="M 794 531 
L 1825 531 
L 1825 4091 
L 703 3866 
L 703 4441 
L 1819 4666 
L 2450 4666 
L 2450 531 
L 3481 531 
L 3481 0 
L 794 0 
L 794 531 
z
" id="DejaVuSans-31" transform="scale(0.015625)"/>
       </defs>
       <use xlink:href="#DejaVuSans-31"/>
       <use x="63.623047" xlink:href="#DejaVuSans-30"/>
       <use x="127.246094" xlink:href="#DejaVuSans-30"/>
       <use x="190.869141" xlink:href="#DejaVuSans-30"/>
      </g>
     </g>
    </g>
    <g id="xtick_7">
     <g id="line2d_7">
      <g>
       <use style="stroke:#000000;stroke-width:0.8;" x="1605.78088" xlink:href="#meb359c8d97" y="586.86358"/>
      </g>
     </g>
     <g id="text_7">
      <!-- 1200 -->
      <g transform="translate(1593.05588 601.462017)scale(0.1 -0.1)">
       <use xlink:href="#DejaVuSans-31"/>
       <use x="63.623047" xlink:href="#DejaVuSans-32"/>
       <use x="127.246094" xlink:href="#DejaVuSans-30"/>
       <use x="190.869141" xlink:href="#DejaVuSans-30"/>
      </g>
     </g>
    </g>
    <g id="text_8">
     <!-- frame -->
     <g transform="translate(865.954687 615.140142)scale(0.1 -0.1)">
      <defs>
       <path d="M 2375 4863 
L 2375 4384 
L 1825 4384 
Q 1516 4384 1395 4259 
Q 1275 4134 1275 3809 
L 1275 3500 
L 2222 3500 
L 2222 3053 
L 1275 3053 
L 1275 0 
L 697 0 
L 697 3053 
L 147 3053 
L 147 3500 
L 697 3500 
L 697 3744 
Q 697 4328 969 4595 
Q 1241 4863 1831 4863 
L 2375 4863 
z
" id="DejaVuSans-66" transform="scale(0.015625)"/>
       <path d="M 2631 2963 
Q 2534 3019 2420 3045 
Q 2306 3072 2169 3072 
Q 1681 3072 1420 2755 
Q 1159 2438 1159 1844 
L 1159 0 
L 581 0 
L 581 3500 
L 1159 3500 
L 1159 2956 
Q 1341 3275 1631 3429 
Q 1922 3584 2338 3584 
Q 2397 3584 2469 3576 
Q 2541 3569 2628 3553 
L 2631 2963 
z
" id="DejaVuSans-72" transform="scale(0.015625)"/>
       <path d="M 2194 1759 
Q 1497 1759 1228 1600 
Q 959 1441 959 1056 
Q 959 750 1161 570 
Q 1363 391 1709 391 
Q 2188 391 2477 730 
Q 2766 1069 2766 1631 
L 2766 1759 
L 2194 1759 
z
M 3341 1997 
L 3341 0 
L 2766 0 
L 2766 531 
Q 2569 213 2275 61 
Q 1981 -91 1556 -91 
Q 1019 -91 701 211 
Q 384 513 384 1019 
Q 384 1609 779 1909 
Q 1175 2209 1959 2209 
L 2766 2209 
L 2766 2266 
Q 2766 2663 2505 2880 
Q 2244 3097 1772 3097 
Q 1472 3097 1187 3025 
Q 903 2953 641 2809 
L 641 3341 
Q 956 3463 1253 3523 
Q 1550 3584 1831 3584 
Q 2591 3584 2966 3190 
Q 3341 2797 3341 1997 
z
" id="DejaVuSans-61" transform="scale(0.015625)"/>
       <path d="M 3328 2828 
Q 3544 3216 3844 3400 
Q 4144 3584 4550 3584 
Q 5097 3584 5394 3201 
Q 5691 2819 5691 2113 
L 5691 0 
L 5113 0 
L 5113 2094 
Q 5113 2597 4934 2840 
Q 4756 3084 4391 3084 
Q 3944 3084 3684 2787 
Q 3425 2491 3425 1978 
L 3425 0 
L 2847 0 
L 2847 2094 
Q 2847 2600 2669 2842 
Q 2491 3084 2119 3084 
Q 1678 3084 1418 2786 
Q 1159 2488 1159 1978 
L 1159 0 
L 581 0 
L 581 3500 
L 1159 3500 
L 1159 2956 
Q 1356 3278 1631 3431 
Q 1906 3584 2284 3584 
Q 2666 3584 2933 3390 
Q 3200 3197 3328 2828 
z
" id="DejaVuSans-6d" transform="scale(0.015625)"/>
       <path d="M 3597 1894 
L 3597 1613 
L 953 1613 
Q 991 1019 1311 708 
Q 1631 397 2203 397 
Q 2534 397 2845 478 
Q 3156 559 3463 722 
L 3463 178 
Q 3153 47 2828 -22 
Q 2503 -91 2169 -91 
Q 1331 -91 842 396 
Q 353 884 353 1716 
Q 353 2575 817 3079 
Q 1281 3584 2069 3584 
Q 2775 3584 3186 3129 
Q 3597 2675 3597 1894 
z
M 3022 2063 
Q 3016 2534 2758 2815 
Q 2500 3097 2075 3097 
Q 1594 3097 1305 2825 
Q 1016 2553 972 2059 
L 3022 2063 
z
" id="DejaVuSans-65" transform="scale(0.015625)"/>
      </defs>
      <use xlink:href="#DejaVuSans-66"/>
      <use x="35.205078" xlink:href="#DejaVuSans-72"/>
      <use x="76.318359" xlink:href="#DejaVuSans-61"/>
      <use x="137.597656" xlink:href="#DejaVuSans-6d"/>
      <use x="235.009766" xlink:href="#DejaVuSans-65"/>
     </g>
    </g>
   </g>
   <g id="matplotlib.axis_2">
    <g id="ytick_1">
     <g id="line2d_8">
      <defs>
       <path d="M 0 0 
L -3.5 0 
" id="m6cab2e87c2" style="stroke:#000000;stroke-width:0.8;"/>
      </defs>
      <g>
       <use style="stroke:#000000;stroke-width:0.8;" x="43.78125" xlink:href="#m6cab2e87c2" y="526.504603"/>
      </g>
     </g>
     <g id="text_9">
      <!-- 1.0 -->
      <g transform="translate(20.878125 530.303821)scale(0.1 -0.1)">
       <defs>
        <path d="M 684 794 
L 1344 794 
L 1344 0 
L 684 0 
L 684 794 
z
" id="DejaVuSans-2e" transform="scale(0.015625)"/>
       </defs>
       <use xlink:href="#DejaVuSans-31"/>
       <use x="63.623047" xlink:href="#DejaVuSans-2e"/>
       <use x="95.410156" xlink:href="#DejaVuSans-30"/>
      </g>
     </g>
    </g>
    <g id="ytick_2">
     <g id="line2d_9">
      <g>
       <use style="stroke:#000000;stroke-width:0.8;" x="43.78125" xlink:href="#m6cab2e87c2" y="437.583932"/>
      </g>
     </g>
     <g id="text_10">
      <!-- 1.2 -->
      <g transform="translate(20.878125 441.383151)scale(0.1 -0.1)">
       <use xlink:href="#DejaVuSans-31"/>
       <use x="63.623047" xlink:href="#DejaVuSans-2e"/>
       <use x="95.410156" xlink:href="#DejaVuSans-32"/>
      </g>
     </g>
    </g>
    <g id="ytick_3">
     <g id="line2d_10">
      <g>
       <use style="stroke:#000000;stroke-width:0.8;" x="43.78125" xlink:href="#m6cab2e87c2" y="348.663261"/>
      </g>
     </g>
     <g id="text_11">
      <!-- 1.4 -->
      <g transform="translate(20.878125 352.46248)scale(0.1 -0.1)">
       <use xlink:href="#DejaVuSans-31"/>
       <use x="63.623047" xlink:href="#DejaVuSans-2e"/>
       <use x="95.410156" xlink:href="#DejaVuSans-34"/>
      </g>
     </g>
    </g>
    <g id="ytick_4">
     <g id="line2d_11">
      <g>
       <use style="stroke:#000000;stroke-width:0.8;" x="43.78125" xlink:href="#m6cab2e87c2" y="259.742591"/>
      </g>
     </g>
     <g id="text_12">
      <!-- 1.6 -->
      <g transform="translate(20.878125 263.541809)scale(0.1 -0.1)">
       <use xlink:href="#DejaVuSans-31"/>
       <use x="63.623047" xlink:href="#DejaVuSans-2e"/>
       <use x="95.410156" xlink:href="#DejaVuSans-36"/>
      </g>
     </g>
    </g>
    <g id="ytick_5">
     <g id="line2d_12">
      <g>
       <use style="stroke:#000000;stroke-width:0.8;" x="43.78125" xlink:href="#m6cab2e87c2" y="170.82192"/>
      </g>
     </g>
     <g id="text_13">
      <!-- 1.8 -->
      <g transform="translate(20.878125 174.621139)scale(0.1 -0.1)">
       <use xlink:href="#DejaVuSans-31"/>
       <use x="63.623047" xlink:href="#DejaVuSans-2e"/>
       <use x="95.410156" xlink:href="#DejaVuSans-38"/>
      </g>
     </g>
    </g>
    <g id="ytick_6">
     <g id="line2d_13">
      <g>
       <use style="stroke:#000000;stroke-width:0.8;" x="43.78125" xlink:href="#m6cab2e87c2" y="81.901249"/>
      </g>
     </g>
     <g id="text_14">
      <!-- 2.0 -->
      <g transform="translate(20.878125 85.700468)scale(0.1 -0.1)">
       <use xlink:href="#DejaVuSans-32"/>
       <use x="63.623047" xlink:href="#DejaVuSans-2e"/>
       <use x="95.410156" xlink:href="#DejaVuSans-30"/>
      </g>
     </g>
    </g>
    <g id="text_15">
     <!-- GCaMP -->
     <g transform="translate(14.798437 322.349446)rotate(-90)scale(0.1 -0.1)">
      <defs>
       <path d="M 3809 666 
L 3809 1919 
L 2778 1919 
L 2778 2438 
L 4434 2438 
L 4434 434 
Q 4069 175 3628 42 
Q 3188 -91 2688 -91 
Q 1594 -91 976 548 
Q 359 1188 359 2328 
Q 359 3472 976 4111 
Q 1594 4750 2688 4750 
Q 3144 4750 3555 4637 
Q 3966 4525 4313 4306 
L 4313 3634 
Q 3963 3931 3569 4081 
Q 3175 4231 2741 4231 
Q 1884 4231 1454 3753 
Q 1025 3275 1025 2328 
Q 1025 1384 1454 906 
Q 1884 428 2741 428 
Q 3075 428 3337 486 
Q 3600 544 3809 666 
z
" id="DejaVuSans-47" transform="scale(0.015625)"/>
       <path d="M 4122 4306 
L 4122 3641 
Q 3803 3938 3442 4084 
Q 3081 4231 2675 4231 
Q 1875 4231 1450 3742 
Q 1025 3253 1025 2328 
Q 1025 1406 1450 917 
Q 1875 428 2675 428 
Q 3081 428 3442 575 
Q 3803 722 4122 1019 
L 4122 359 
Q 3791 134 3420 21 
Q 3050 -91 2638 -91 
Q 1578 -91 968 557 
Q 359 1206 359 2328 
Q 359 3453 968 4101 
Q 1578 4750 2638 4750 
Q 3056 4750 3426 4639 
Q 3797 4528 4122 4306 
z
" id="DejaVuSans-43" transform="scale(0.015625)"/>
       <path d="M 628 4666 
L 1569 4666 
L 2759 1491 
L 3956 4666 
L 4897 4666 
L 4897 0 
L 4281 0 
L 4281 4097 
L 3078 897 
L 2444 897 
L 1241 4097 
L 1241 0 
L 628 0 
L 628 4666 
z
" id="DejaVuSans-4d" transform="scale(0.015625)"/>
       <path d="M 1259 4147 
L 1259 2394 
L 2053 2394 
Q 2494 2394 2734 2622 
Q 2975 2850 2975 3272 
Q 2975 3691 2734 3919 
Q 2494 4147 2053 4147 
L 1259 4147 
z
M 628 4666 
L 2053 4666 
Q 2838 4666 3239 4311 
Q 3641 3956 3641 3272 
Q 3641 2581 3239 2228 
Q 2838 1875 2053 1875 
L 1259 1875 
L 1259 0 
L 628 0 
L 628 4666 
z
" id="DejaVuSans-50" transform="scale(0.015625)"/>
      </defs>
      <use xlink:href="#DejaVuSans-47"/>
      <use x="77.490234" xlink:href="#DejaVuSans-43"/>
      <use x="147.314453" xlink:href="#DejaVuSans-61"/>
      <use x="208.59375" xlink:href="#DejaVuSans-4d"/>
      <use x="294.873047" xlink:href="#DejaVuSans-50"/>
     </g>
    </g>
   </g>
   <g id="line2d_14">
    <path clip-path="url(#p247caec257)" d="M 119.872159 531.975975 
L 122.348674 538.803292 
L 123.586931 543.035549 
L 126.063445 552.923242 
L 127.301703 557.227658 
L 128.53996 560.183607 
L 129.778217 561.202423 
L 131.016474 560.122928 
L 132.254732 557.213303 
L 134.731246 549.039266 
L 135.969504 546.435549 
L 137.207761 546.046662 
L 138.446018 547.733335 
L 140.922533 553.241701 
L 142.16079 554.950308 
L 143.399047 555.760067 
L 144.637304 556.337478 
L 145.875562 557.437663 
L 148.352076 560.915652 
L 149.590334 560.766741 
L 150.828591 557.407891 
L 152.066848 551.121681 
L 153.305105 544.175362 
L 154.543363 539.431761 
L 155.78162 538.36515 
L 157.019877 540.23676 
L 159.496392 545.918346 
L 161.972906 550.448958 
L 166.925935 558.193561 
L 168.164193 559.818751 
L 169.40245 560.227251 
L 170.640707 558.915337 
L 173.117222 553.488892 
L 174.355479 550.614922 
L 175.593736 546.716606 
L 176.831993 541.107264 
L 179.308508 528.360618 
L 180.546765 523.355885 
L 181.785022 519.84743 
L 183.02328 518.775041 
L 184.261537 520.954388 
L 186.738052 530.539405 
L 187.976309 534.187061 
L 189.214566 536.322071 
L 190.452823 537.604473 
L 191.691081 538.133804 
L 192.929338 537.372587 
L 194.167595 535.189563 
L 196.64411 528.945222 
L 197.882367 526.763417 
L 199.120624 527.034825 
L 200.358881 530.323267 
L 204.073653 546.404058 
L 205.311911 549.179555 
L 206.550168 549.884995 
L 209.026682 548.846035 
L 210.26494 548.311789 
L 211.503197 546.869398 
L 213.979711 541.412808 
L 215.217969 539.955448 
L 216.456226 540.306888 
L 218.93274 542.84006 
L 220.170998 543.774474 
L 221.409255 544.969119 
L 222.647512 546.682516 
L 225.124027 551.261546 
L 226.362284 552.917178 
L 227.600541 552.741598 
L 228.838799 550.539091 
L 230.077056 547.787492 
L 231.315313 546.509494 
L 232.55357 547.138968 
L 233.791828 548.495715 
L 235.030085 549.612086 
L 236.268342 550.36544 
L 237.5066 550.765984 
L 238.744857 550.555343 
L 239.983114 549.420207 
L 241.221371 547.204786 
L 243.697886 540.830674 
L 244.936143 538.877573 
L 246.1744 539.058329 
L 247.412658 541.262858 
L 251.127429 551.530057 
L 252.365687 553.352067 
L 253.603944 553.178517 
L 254.842201 551.319486 
L 256.080459 548.981281 
L 257.318716 547.438234 
L 258.556973 547.422119 
L 259.79523 548.673473 
L 261.033488 549.54851 
L 262.271745 547.680561 
L 263.510002 541.609634 
L 267.224774 513.613073 
L 268.463031 509.258646 
L 269.701288 507.980612 
L 270.939546 508.240578 
L 272.177803 509.283593 
L 277.130832 516.096609 
L 278.369089 518.500189 
L 279.607347 521.786729 
L 282.083861 529.722584 
L 283.322118 532.235206 
L 284.560376 532.663974 
L 289.513405 529.483784 
L 291.989919 527.507571 
L 295.704691 525.328348 
L 296.942948 524.304026 
L 300.65772 520.459559 
L 301.895977 519.609628 
L 303.134235 518.166295 
L 305.610749 513.561982 
L 306.849006 511.961338 
L 308.087264 510.812548 
L 309.325521 509.939412 
L 310.563778 510.125258 
L 311.802036 512.77235 
L 313.040293 518.393524 
L 314.27855 525.433064 
L 315.516807 530.732885 
L 316.755065 531.807698 
L 317.993322 528.933238 
L 319.231579 524.126765 
L 322.946351 507.088697 
L 324.184608 503.513994 
L 325.422866 501.979558 
L 326.661123 501.236556 
L 327.89938 500.059458 
L 329.137637 498.58276 
L 330.375895 497.956912 
L 331.614152 499.080729 
L 332.852409 502.123581 
L 335.328924 510.757164 
L 336.567181 513.650185 
L 337.805438 514.753019 
L 339.043695 513.94667 
L 340.281953 511.127751 
L 341.52021 507.396453 
L 342.758467 504.957559 
L 343.996725 504.893506 
L 346.473239 507.310814 
L 347.711496 507.977741 
L 348.949754 508.850687 
L 351.426268 511.777548 
L 352.664525 512.377514 
L 353.902783 511.583023 
L 355.14104 509.297142 
L 356.379297 505.728161 
L 357.617554 501.702837 
L 358.855812 498.42883 
L 360.094069 497.062551 
L 361.332326 498.186233 
L 362.570584 500.806533 
L 363.808841 502.846769 
L 365.047098 503.34781 
L 367.523613 502.731043 
L 368.76187 503.210132 
L 370.000127 504.996294 
L 371.238384 507.841552 
L 372.476642 510.316818 
L 373.714899 510.885702 
L 374.953156 509.391734 
L 376.191413 507.241655 
L 377.429671 505.926803 
L 378.667928 505.46088 
L 379.906185 504.510407 
L 381.144443 501.982923 
L 384.859214 490.09636 
L 387.335729 483.093332 
L 388.573986 479.296823 
L 389.812243 476.16686 
L 391.050501 474.643903 
L 392.288758 475.527726 
L 393.527015 478.992815 
L 394.765272 484.191312 
L 397.241787 495.263693 
L 398.480044 499.727079 
L 399.718302 502.709807 
L 400.956559 503.709233 
L 402.194816 502.360623 
L 403.433073 498.940505 
L 404.671331 494.68287 
L 405.909588 490.895344 
L 409.62436 482.136557 
L 410.862617 478.750239 
L 412.100874 476.374158 
L 413.339132 475.734142 
L 414.577389 476.079251 
L 415.815646 476.06185 
L 417.053903 475.076964 
L 419.530418 472.052247 
L 420.768675 471.772223 
L 422.006932 473.622608 
L 424.483447 481.555934 
L 425.721704 484.61257 
L 426.959961 486.045687 
L 428.198219 485.503047 
L 429.436476 483.100105 
L 435.627762 466.485629 
L 436.86602 463.747891 
L 438.104277 462.265501 
L 439.342534 461.91012 
L 441.819049 462.264862 
L 443.057306 461.9109 
L 444.295563 460.820222 
L 445.53382 458.858883 
L 446.772078 456.0398 
L 448.010335 452.764973 
L 449.248592 450.059473 
L 450.48685 449.258526 
L 451.725107 450.983355 
L 454.201621 457.83868 
L 455.439879 459.117971 
L 456.678136 458.008982 
L 457.916393 456.423043 
L 459.15465 456.773579 
L 460.392908 460.00817 
L 462.869422 470.221691 
L 464.107679 473.865062 
L 465.345937 476.10895 
L 466.584194 477.068919 
L 467.822451 475.977258 
L 469.060709 471.791016 
L 470.298966 464.536833 
L 471.537223 455.972964 
L 472.77548 448.928323 
L 474.013738 446.18646 
L 475.251995 449.049568 
L 476.490252 456.194535 
L 477.728509 464.50486 
L 478.966767 470.91221 
L 480.205024 473.5433 
L 481.443281 472.201827 
L 482.681538 468.261761 
L 483.919796 463.917223 
L 485.158053 461.125511 
L 486.39631 460.738691 
L 488.872825 463.516778 
L 490.111082 464.0327 
L 492.587597 464.109926 
L 493.825854 463.901904 
L 495.064111 462.809132 
L 496.302368 460.161247 
L 497.540626 455.498707 
L 498.778883 448.962874 
L 501.255397 433.12779 
L 502.493655 426.946361 
L 503.731912 424.734519 
L 504.970169 427.350781 
L 507.446684 438.709031 
L 508.684941 441.955728 
L 509.923198 442.841288 
L 511.161456 442.670673 
L 512.399713 443.001931 
L 513.63797 444.749224 
L 514.876227 447.847148 
L 516.114485 451.308168 
L 517.352742 453.550633 
L 518.590999 453.2364 
L 519.829257 449.891175 
L 521.067514 443.987146 
L 522.305771 436.896415 
L 523.544028 430.492389 
L 524.782286 426.110532 
L 526.020543 423.685945 
L 527.2588 422.178657 
L 528.497057 421.359466 
L 529.735315 422.780122 
L 530.973572 427.781244 
L 533.450086 441.972085 
L 534.688344 445.754429 
L 535.926601 445.660866 
L 537.164858 442.063454 
L 539.641373 430.508928 
L 540.87963 425.644769 
L 543.356145 416.865175 
L 547.070916 401.794188 
L 549.547431 394.058623 
L 552.023945 386.094263 
L 553.262203 381.873661 
L 554.50046 378.874931 
L 555.738717 378.661129 
L 556.976975 381.383671 
L 560.691746 394.451961 
L 561.930004 397.864864 
L 563.168261 400.277003 
L 564.406518 401.117292 
L 565.644775 399.537672 
L 566.883033 395.034751 
L 568.12129 388.117691 
L 570.597804 372.617387 
L 571.836062 366.521048 
L 573.074319 362.462783 
L 574.312576 360.701181 
L 575.550834 360.936098 
L 576.789091 361.741433 
L 578.027348 360.968694 
L 579.265605 357.692487 
L 581.74212 348.405969 
L 582.980377 345.466013 
L 584.218634 345.524728 
L 585.456892 349.20604 
L 587.933406 361.564514 
L 589.171663 364.337442 
L 590.409921 361.827864 
L 591.648178 354.765943 
L 592.886435 346.084166 
L 594.124693 338.667124 
L 595.36295 333.630203 
L 596.601207 330.396782 
L 597.839464 327.940983 
L 599.077722 326.640601 
L 600.315979 328.654899 
L 601.554236 335.314071 
L 602.792493 344.713726 
L 604.030751 353.023521 
L 605.269008 357.622578 
L 606.507265 358.192821 
L 608.98378 354.168272 
L 610.222037 354.491016 
L 611.460294 357.646118 
L 613.936809 366.951307 
L 615.175066 370.281013 
L 617.651581 375.131803 
L 618.889838 376.991524 
L 620.128095 377.56118 
L 621.366352 377.840802 
L 622.60461 379.819082 
L 625.081124 387.703669 
L 626.319382 390.368002 
L 627.557639 390.864867 
L 628.795896 389.611968 
L 630.034153 387.384756 
L 631.272411 384.355739 
L 632.510668 381.0072 
L 633.748925 378.817832 
L 634.987182 378.648883 
L 636.22544 379.851187 
L 637.463697 382.117449 
L 638.701954 386.578446 
L 641.178469 401.083004 
L 642.416726 405.097389 
L 643.654983 404.213862 
L 644.893241 398.793987 
L 646.131498 389.52408 
L 648.608012 367.534274 
L 649.84627 360.463113 
L 651.084527 357.237792 
L 652.322784 355.402463 
L 653.561041 352.125575 
L 656.037556 341.305222 
L 657.275813 337.103373 
L 658.51407 335.113647 
L 659.752328 335.112514 
L 660.990585 336.103327 
L 662.228842 336.619974 
L 663.4671 335.185025 
L 664.705357 331.29687 
L 667.181871 320.979385 
L 669.658386 312.152438 
L 670.896643 308.502688 
L 672.1349 306.743742 
L 673.373158 307.141797 
L 674.611415 308.298033 
L 675.849672 308.172256 
L 677.087929 305.307944 
L 678.326187 299.785369 
L 679.564444 293.301309 
L 680.802701 287.989864 
L 682.040959 285.585411 
L 683.279216 287.04535 
L 684.517473 291.311156 
L 685.75573 295.067426 
L 686.993988 295.140532 
L 688.232245 291.060622 
L 689.470502 285.160986 
L 690.708759 280.566793 
L 691.947017 279.247536 
L 693.185274 281.529719 
L 694.423531 286.661628 
L 698.138303 306.164963 
L 699.37656 310.381979 
L 700.614818 311.71404 
L 701.853075 309.247008 
L 703.091332 304.066036 
L 704.329589 299.367296 
L 705.567847 297.802068 
L 706.806104 299.356936 
L 708.044361 302.212405 
L 709.282618 304.440413 
L 710.520876 304.622088 
L 711.759133 302.366476 
L 714.235648 294.96654 
L 715.473905 291.997907 
L 717.950419 287.284789 
L 720.426934 281.763018 
L 721.665191 280.314485 
L 722.903448 280.420799 
L 724.141706 281.995149 
L 725.379963 284.30339 
L 726.61822 285.72303 
L 727.856477 285.233761 
L 730.332992 281.919021 
L 731.571249 280.51046 
L 732.809507 278.782999 
L 735.286021 274.20276 
L 736.524278 271.488534 
L 737.762536 267.196712 
L 740.23905 254.087636 
L 741.477307 249.313176 
L 742.715565 247.912757 
L 745.192079 249.638491 
L 746.430336 249.303719 
L 747.668594 248.158041 
L 748.906851 247.204394 
L 750.145108 246.956693 
L 753.85988 247.031237 
L 755.098137 247.436421 
L 756.336395 248.131879 
L 757.574652 248.608506 
L 758.812909 248.231251 
L 760.051166 247.208855 
L 761.289424 246.406208 
L 763.765938 245.647591 
L 765.004195 244.405219 
L 766.242453 242.150128 
L 767.48071 239.339012 
L 768.718967 237.083333 
L 769.957225 236.983623 
L 771.195482 240.031665 
L 772.433739 245.574736 
L 774.910254 258.032905 
L 777.386768 268.858458 
L 778.625025 273.262468 
L 779.863283 274.94687 
L 781.10154 273.3675 
L 782.339797 270.594613 
L 783.578054 270.011464 
L 784.816312 273.453594 
L 787.292826 285.163497 
L 788.531084 287.963128 
L 789.769341 287.433818 
L 791.007598 284.644936 
L 793.484113 277.568285 
L 794.72237 274.95565 
L 795.960627 273.403456 
L 797.198884 273.78879 
L 798.437142 277.483958 
L 799.675399 284.432772 
L 804.628428 318.719477 
L 805.866685 327.799779 
L 808.3432 348.576628 
L 809.581457 358.925507 
L 810.819714 367.317862 
L 812.057972 373.135926 
L 813.296229 376.587905 
L 815.772743 380.743464 
L 817.011001 382.400494 
L 818.249258 382.187874 
L 819.487515 379.103118 
L 820.725773 373.340047 
L 824.440544 350.67948 
L 825.678802 348.378285 
L 826.917059 351.564916 
L 828.155316 358.145231 
L 829.393573 363.806403 
L 830.631831 365.321752 
L 831.870088 362.731521 
L 833.108345 358.750888 
L 834.346602 356.866348 
L 835.58486 359.115531 
L 836.823117 364.770689 
L 838.061374 371.268418 
L 839.299632 375.748855 
L 840.537889 375.940331 
L 841.776146 371.227849 
L 845.490918 347.685071 
L 846.729175 344.880782 
L 847.967432 346.124103 
L 849.20569 350.226547 
L 850.443947 356.16869 
L 851.682204 362.744991 
L 852.920461 367.923397 
L 854.158719 370.178561 
L 855.396976 369.575128 
L 856.635233 367.063204 
L 857.873491 363.866659 
L 859.111748 361.755412 
L 860.350005 362.824504 
L 861.588262 367.679278 
L 862.82652 373.629114 
L 864.064777 376.008591 
L 865.303034 371.871944 
L 866.541291 362.387077 
L 867.779549 351.580619 
L 869.017806 342.586418 
L 870.256063 335.784274 
L 873.970835 317.881509 
L 875.209092 312.903996 
L 876.44735 309.993135 
L 877.685607 309.660325 
L 880.162121 313.014198 
L 881.400379 313.185244 
L 882.638636 310.986687 
L 886.353408 299.333075 
L 887.591665 297.524095 
L 888.829922 298.093174 
L 890.06818 301.327348 
L 891.306437 306.658045 
L 893.782951 319.256446 
L 895.021209 324.869591 
L 896.259466 329.716608 
L 897.497723 332.560692 
L 898.73598 331.215222 
L 899.974238 324.775237 
L 902.450752 304.311944 
L 903.689009 295.916983 
L 904.927267 290.767335 
L 906.165524 288.668537 
L 907.403781 288.857384 
L 909.880296 291.879299 
L 911.118553 292.465087 
L 912.35681 291.058141 
L 913.595068 286.855925 
L 914.833325 280.037388 
L 916.071582 271.556006 
L 918.548097 252.516337 
L 921.024611 232.877817 
L 922.262868 224.647649 
L 923.501126 218.644291 
L 928.454155 201.063332 
L 929.692412 198.600978 
L 930.930669 200.15257 
L 932.168927 205.529178 
L 933.407184 212.4142 
L 934.645441 218.388704 
L 935.883698 222.33712 
L 937.121956 223.994748 
L 938.360213 223.2655 
L 939.59847 220.004744 
L 940.836727 213.617348 
L 942.074985 203.241543 
L 944.551499 174.833658 
L 945.789757 163.265443 
L 947.028014 156.032145 
L 948.266271 152.106293 
L 949.504528 149.719874 
L 951.981043 146.026778 
L 953.2193 144.514946 
L 954.457557 143.70475 
L 955.695815 143.867556 
L 956.934072 144.86859 
L 958.172329 146.614395 
L 960.648844 151.451497 
L 961.887101 152.224 
L 963.125358 150.368456 
L 964.363616 147.194389 
L 965.601873 144.777665 
L 966.84013 143.916317 
L 968.078387 144.75952 
L 969.316645 147.826146 
L 971.793159 157.516144 
L 973.031416 159.433953 
L 974.269674 159.222496 
L 975.507931 159.352185 
L 976.746188 161.129121 
L 977.984446 163.83868 
L 979.222703 165.743989 
L 980.46096 165.89446 
L 981.699217 166.221882 
L 982.937475 171.354163 
L 984.175732 185.253238 
L 985.413989 208.790807 
L 987.890504 270.265219 
L 989.128761 290.464024 
L 990.367018 291.913336 
L 991.605275 275.129191 
L 994.08179 223.337175 
L 995.320047 207.96275 
L 996.558305 206.620379 
L 997.796562 218.291906 
L 1000.273076 255.03776 
L 1001.511334 266.553358 
L 1002.749591 271.371197 
L 1005.226105 273.846515 
L 1006.464363 276.795304 
L 1007.70262 280.50764 
L 1008.940877 281.815723 
L 1010.179134 277.833374 
L 1011.417392 268.383597 
L 1013.893906 243.696816 
L 1015.132164 232.83511 
L 1016.370421 223.774286 
L 1018.846935 208.287829 
L 1023.799964 173.477672 
L 1025.038222 167.46143 
L 1026.276479 163.289461 
L 1027.514736 161.236533 
L 1028.752993 160.865621 
L 1029.991251 161.279981 
L 1031.229508 161.265552 
L 1032.467765 159.453588 
L 1033.706023 155.450116 
L 1034.94428 150.857525 
L 1036.182537 147.955943 
L 1037.420794 146.686303 
L 1038.659052 143.864399 
L 1039.897309 135.954364 
L 1041.135566 122.272273 
L 1042.373823 105.622939 
L 1043.612081 90.519004 
L 1044.850338 80.521482 
L 1046.088595 76.348376 
L 1047.326852 76.310312 
L 1048.56511 78.193152 
L 1049.803367 80.418416 
L 1051.041624 81.990281 
L 1052.279882 81.709168 
L 1053.518139 77.882762 
L 1054.756396 69.961996 
L 1055.994653 60.330486 
L 1057.232911 52.815633 
L 1058.471168 49.122366 
L 1059.709425 47.979282 
L 1060.947682 47.989595 
L 1062.18594 49.437724 
L 1063.424197 52.609495 
L 1064.662454 57.038749 
L 1065.900711 63.019998 
L 1069.615483 86.341938 
L 1070.853741 90.681654 
L 1072.091998 92.804962 
L 1073.330255 94.325618 
L 1074.568512 96.833911 
L 1075.80677 100.83057 
L 1077.045027 105.375588 
L 1078.283284 108.810942 
L 1079.521541 110.589779 
L 1080.759799 111.714355 
L 1083.236313 114.753203 
L 1084.474571 115.590635 
L 1085.712828 116.224714 
L 1086.951085 119.020555 
L 1089.4276 131.367267 
L 1090.665857 134.813395 
L 1091.904114 134.523096 
L 1093.142371 132.375587 
L 1094.380629 130.835505 
L 1095.618886 131.216608 
L 1096.857143 132.632256 
L 1098.0954 132.618419 
L 1099.333658 129.351031 
L 1100.571915 123.23535 
L 1101.810172 116.371735 
L 1103.04843 111.119866 
L 1104.286687 109.588391 
L 1105.524944 113.253437 
L 1106.763201 122.061625 
L 1109.239716 146.773045 
L 1110.477973 155.260648 
L 1111.71623 156.375701 
L 1112.954488 150.352671 
L 1115.431002 132.280829 
L 1116.669259 126.310348 
L 1117.907517 123.171407 
L 1119.145774 122.230756 
L 1120.384031 122.480896 
L 1121.622289 123.731064 
L 1122.860546 127.075878 
L 1124.098803 132.87399 
L 1125.33706 139.331577 
L 1126.575318 143.595754 
L 1127.813575 143.417794 
L 1129.051832 138.371978 
L 1134.004861 105.559544 
L 1135.243118 96.786702 
L 1136.481376 89.128639 
L 1137.719633 85.701738 
L 1138.95789 88.184315 
L 1140.196148 94.885335 
L 1142.672662 110.175282 
L 1143.910919 115.619254 
L 1145.149177 117.627447 
L 1146.387434 116.009523 
L 1148.863948 109.242858 
L 1150.102206 107.019977 
L 1151.340463 106.342259 
L 1152.57872 107.70938 
L 1155.055235 113.672134 
L 1156.293492 114.279299 
L 1157.531749 111.423516 
L 1158.770007 106.48163 
L 1160.008264 102.073616 
L 1161.246521 99.713188 
L 1162.484778 99.099017 
L 1163.723036 98.995402 
L 1164.961293 98.767744 
L 1166.19955 99.722862 
L 1167.437807 104.708016 
L 1168.676065 115.764068 
L 1171.152579 146.166852 
L 1172.390837 154.148857 
L 1173.629094 152.579948 
L 1174.867351 143.479607 
L 1176.105608 132.127136 
L 1177.343866 123.02354 
L 1178.582123 117.21532 
L 1179.82038 114.386209 
L 1181.058637 115.757235 
L 1182.296895 122.306409 
L 1183.535152 131.806695 
L 1184.773409 140.065586 
L 1186.011666 144.256197 
L 1187.249924 144.422467 
L 1189.726438 140.699971 
L 1190.964696 139.949123 
L 1192.202953 140.252006 
L 1193.44121 140.8748 
L 1194.679467 140.701173 
L 1195.917725 138.868861 
L 1197.155982 135.935222 
L 1198.394239 133.973255 
L 1199.632496 134.804639 
L 1200.870754 138.292383 
L 1202.109011 142.707435 
L 1203.347268 146.570034 
L 1204.585525 149.403574 
L 1205.823783 150.816975 
L 1207.06204 150.06023 
L 1208.300297 146.672341 
L 1209.538555 140.893844 
L 1210.776812 133.298582 
L 1214.491584 107.318607 
L 1215.729841 102.967963 
L 1216.968098 103.217348 
L 1218.206355 107.876585 
L 1223.159384 136.327045 
L 1225.635899 153.03294 
L 1226.874156 159.693954 
L 1228.112414 163.522529 
L 1229.350671 164.103367 
L 1230.588928 161.661483 
L 1233.065443 153.300509 
L 1234.3037 152.26649 
L 1235.541957 155.752669 
L 1236.780214 163.258431 
L 1238.018472 171.862814 
L 1239.256729 177.856614 
L 1240.494986 179.339113 
L 1241.733243 176.710253 
L 1244.209758 165.86223 
L 1245.448015 161.878907 
L 1246.686273 161.083366 
L 1247.92453 164.669892 
L 1249.162787 172.788093 
L 1251.639302 193.228824 
L 1252.877559 200.369152 
L 1254.115816 204.470146 
L 1255.354073 206.447925 
L 1256.592331 207.285727 
L 1257.830588 207.914231 
L 1259.068845 209.617402 
L 1260.307103 212.96854 
L 1261.54536 217.023431 
L 1262.783617 220.544818 
L 1264.021874 222.90453 
L 1265.260132 223.569045 
L 1266.498389 222.114552 
L 1267.736646 218.837906 
L 1268.974903 214.517067 
L 1270.213161 209.640667 
L 1271.451418 204.123562 
L 1273.927932 191.660893 
L 1275.16619 186.971389 
L 1276.404447 184.353833 
L 1277.642704 183.163018 
L 1278.880962 182.495971 
L 1280.119219 181.31354 
L 1281.357476 178.053001 
L 1282.595733 171.203894 
L 1283.833991 160.827526 
L 1285.072248 149.314312 
L 1286.310505 139.670315 
L 1287.548762 133.316095 
L 1288.78702 130.259136 
L 1290.025277 130.064135 
L 1291.263534 131.745925 
L 1292.501791 134.033211 
L 1293.740049 136.697384 
L 1294.978306 141.194111 
L 1296.216563 149.178312 
L 1298.693078 171.033945 
L 1299.931335 178.206213 
L 1301.169592 179.770189 
L 1302.40785 176.895402 
L 1303.646107 172.805528 
L 1304.884364 170.579673 
L 1306.122621 171.93509 
L 1308.599136 180.785709 
L 1309.837393 181.322209 
L 1311.07565 177.084161 
L 1312.313908 169.876276 
L 1316.02868 145.257491 
L 1317.266937 140.219229 
L 1318.505194 138.465237 
L 1319.743451 140.491677 
L 1320.981709 146.157765 
L 1322.219966 154.574003 
L 1323.458223 165.088637 
L 1327.172995 201.370778 
L 1328.411252 211.017719 
L 1329.649509 217.185458 
L 1330.887767 218.492256 
L 1332.126024 215.217404 
L 1334.602539 203.040202 
L 1335.840796 197.151898 
L 1337.079053 192.728112 
L 1338.31731 191.322338 
L 1339.555568 193.147823 
L 1340.793825 196.797235 
L 1342.032082 200.898901 
L 1343.270339 204.212454 
L 1344.508597 205.64499 
L 1345.746854 205.228326 
L 1346.985111 203.767301 
L 1348.223368 202.055702 
L 1349.461626 200.855051 
L 1350.699883 200.453485 
L 1351.93814 200.341413 
L 1353.176398 199.907196 
L 1354.414655 199.287126 
L 1355.652912 199.281649 
L 1356.891169 200.082789 
L 1358.129427 200.715193 
L 1359.367684 200.140924 
L 1360.605941 197.945205 
L 1361.844198 194.060756 
L 1363.082456 188.566691 
L 1364.320713 182.19878 
L 1365.55897 177.06488 
L 1366.797228 175.262612 
L 1368.035485 176.483039 
L 1371.750257 183.270997 
L 1372.988514 187.144082 
L 1374.226771 193.157884 
L 1376.703286 207.48192 
L 1377.941543 212.176252 
L 1379.1798 213.272361 
L 1380.418057 210.814323 
L 1382.894572 201.789958 
L 1384.132829 198.036874 
L 1385.371087 195.32003 
L 1386.609344 192.968619 
L 1387.847601 190.116946 
L 1389.085858 186.76336 
L 1390.324116 183.86672 
L 1391.562373 182.508733 
L 1392.80063 183.190569 
L 1395.277145 187.558476 
L 1396.515402 187.320566 
L 1397.753659 183.432937 
L 1398.991916 177.103495 
L 1400.230174 171.662759 
L 1401.468431 169.836582 
L 1402.706688 171.703376 
L 1403.944946 175.314642 
L 1405.183203 178.134678 
L 1406.42146 178.635815 
L 1407.659717 177.781818 
L 1408.897975 178.009364 
L 1410.136232 180.769277 
L 1411.374489 185.881635 
L 1412.612746 192.093337 
L 1413.851004 197.414582 
L 1415.089261 199.73626 
L 1416.327518 198.018461 
L 1417.565775 192.961061 
L 1422.518805 166.222666 
L 1424.995319 153.581857 
L 1426.233576 148.667192 
L 1427.471834 147.783826 
L 1428.710091 151.55768 
L 1431.186605 165.032039 
L 1432.424863 169.766252 
L 1433.66312 170.618189 
L 1434.901377 166.622567 
L 1437.377892 150.722151 
L 1438.616149 145.401471 
L 1439.854406 144.898079 
L 1441.092664 148.987272 
L 1442.330921 155.237187 
L 1443.569178 160.145831 
L 1444.807435 161.345122 
L 1446.045693 158.505517 
L 1448.522207 147.442328 
L 1449.760464 146.665841 
L 1450.998722 152.607864 
L 1453.475236 172.200828 
L 1454.713494 177.761897 
L 1455.951751 179.394444 
L 1457.190008 178.997944 
L 1458.428265 177.59397 
L 1459.666523 174.941063 
L 1462.143037 168.189671 
L 1463.381294 166.16945 
L 1464.619552 166.155095 
L 1465.857809 168.583461 
L 1468.334323 176.646839 
L 1469.572581 177.959929 
L 1470.810838 175.309901 
L 1472.049095 168.910891 
L 1474.52561 152.272605 
L 1475.763867 146.625103 
L 1477.002124 144.760124 
L 1478.240382 146.744923 
L 1479.478639 150.620613 
L 1480.716896 152.583728 
L 1481.955153 149.591742 
L 1484.431668 134.660797 
L 1485.669925 130.474684 
L 1486.908182 130.647663 
L 1488.14644 133.323731 
L 1489.384697 135.304246 
L 1490.622954 133.976889 
L 1491.861212 129.229897 
L 1493.099469 123.51085 
L 1494.337726 119.549476 
L 1495.575983 118.604239 
L 1496.814241 120.916278 
L 1498.052498 125.955216 
L 1499.290755 131.610691 
L 1500.529012 135.155028 
L 1501.76727 135.58413 
L 1503.005527 134.246085 
L 1504.243784 133.347566 
L 1505.482041 133.577213 
L 1506.720299 133.00609 
L 1507.958556 128.560759 
L 1509.196813 118.719367 
L 1511.673328 92.972448 
L 1512.911585 85.375475 
L 1514.149842 83.294475 
L 1515.3881 85.336734 
L 1516.626357 90.588678 
L 1519.102871 106.4816 
L 1520.341129 112.34134 
L 1521.579386 115.075425 
L 1522.817643 115.248312 
L 1524.0559 113.555237 
L 1525.294158 110.413001 
L 1526.532415 106.937926 
L 1527.770672 105.321205 
L 1529.00893 106.917911 
L 1530.247187 111.14408 
L 1531.485444 117.015809 
L 1533.961959 131.798145 
L 1535.200216 137.509563 
L 1536.438473 139.184719 
L 1537.67673 136.328334 
L 1538.914988 129.371348 
L 1540.153245 120.172998 
L 1541.391502 112.519254 
L 1542.62976 109.022919 
L 1545.106274 108.529835 
L 1546.344531 105.615887 
L 1547.582789 99.304849 
L 1548.821046 91.411312 
L 1550.059303 84.646548 
L 1551.29756 81.16132 
L 1552.535818 82.086706 
L 1553.774075 86.917425 
L 1556.250589 99.362848 
L 1557.488847 103.99789 
L 1558.727104 106.705772 
L 1559.965361 106.519247 
L 1561.203619 103.416412 
L 1562.441876 99.478474 
L 1563.680133 97.73267 
L 1564.91839 99.290836 
L 1567.394905 105.825335 
L 1568.633162 108.167498 
L 1569.871419 109.217987 
L 1571.109677 108.282243 
L 1572.347934 105.358643 
L 1578.53922 86.616978 
L 1579.777478 86.022626 
L 1581.015735 90.154411 
L 1582.253992 98.723879 
L 1584.730507 119.107044 
L 1585.968764 126.474118 
L 1587.207021 131.077624 
L 1589.683536 137.086731 
L 1590.921793 139.246384 
L 1592.16005 139.080535 
L 1593.398307 135.311205 
L 1594.636565 128.160775 
L 1597.113079 110.213636 
L 1598.351337 102.59341 
L 1600.827851 90.235167 
L 1602.066108 82.722397 
L 1603.304366 73.754499 
L 1604.542623 66.301182 
L 1605.78088 66.184367 
L 1607.019137 76.218848 
L 1608.257395 91.818215 
L 1609.495652 105.507166 
L 1610.733909 112.494001 
L 1611.972166 111.757909 
L 1613.210424 105.489852 
L 1614.448681 97.480331 
L 1615.686938 90.796823 
L 1616.925196 86.787616 
L 1618.163453 86.241189 
L 1619.40171 89.925205 
L 1621.878225 103.967644 
L 1623.116482 109.623719 
L 1624.354739 113.447989 
L 1625.592996 115.140161 
L 1626.831254 114.196282 
L 1628.069511 110.999455 
L 1629.307768 107.233458 
L 1630.546026 104.678509 
L 1631.784283 104.208002 
L 1633.02254 106.579541 
L 1634.260797 112.522121 
L 1635.499055 120.735904 
L 1636.737312 126.984131 
L 1637.975569 125.837902 
L 1639.213826 113.341441 
L 1640.452084 89.271324 
L 1641.690341 57.909537 
L 1641.690341 57.909537 
" style="fill:none;stroke:#008000;stroke-linecap:square;stroke-width:1.5;"/>
   </g>
   <g id="patch_3">
    <path d="M 43.78125 586.86358 
L 43.78125 22.318125 
" style="fill:none;stroke:#000000;stroke-linecap:square;stroke-linejoin:miter;stroke-width:0.8;"/>
   </g>
   <g id="patch_4">
    <path d="M 1717.78125 586.86358 
L 1717.78125 22.318125 
" style="fill:none;stroke:#000000;stroke-linecap:square;stroke-linejoin:miter;stroke-width:0.8;"/>
   </g>
   <g id="patch_5">
    <path d="M 43.78125 586.86358 
L 1717.78125 586.86358 
" style="fill:none;stroke:#000000;stroke-linecap:square;stroke-linejoin:miter;stroke-width:0.8;"/>
   </g>
   <g id="patch_6">
    <path d="M 43.78125 22.318125 
L 1717.78125 22.318125 
" style="fill:none;stroke:#000000;stroke-linecap:square;stroke-linejoin:miter;stroke-width:0.8;"/>
   </g>
   <g id="text_16">
    <!-- before binarisation -->
    <g transform="translate(824.1825 16.318125)scale(0.12 -0.12)">
     <defs>
      <path d="M 3116 1747 
Q 3116 2381 2855 2742 
Q 2594 3103 2138 3103 
Q 1681 3103 1420 2742 
Q 1159 2381 1159 1747 
Q 1159 1113 1420 752 
Q 1681 391 2138 391 
Q 2594 391 2855 752 
Q 3116 1113 3116 1747 
z
M 1159 2969 
Q 1341 3281 1617 3432 
Q 1894 3584 2278 3584 
Q 2916 3584 3314 3078 
Q 3713 2572 3713 1747 
Q 3713 922 3314 415 
Q 2916 -91 2278 -91 
Q 1894 -91 1617 61 
Q 1341 213 1159 525 
L 1159 0 
L 581 0 
L 581 4863 
L 1159 4863 
L 1159 2969 
z
" id="DejaVuSans-62" transform="scale(0.015625)"/>
      <path d="M 1959 3097 
Q 1497 3097 1228 2736 
Q 959 2375 959 1747 
Q 959 1119 1226 758 
Q 1494 397 1959 397 
Q 2419 397 2687 759 
Q 2956 1122 2956 1747 
Q 2956 2369 2687 2733 
Q 2419 3097 1959 3097 
z
M 1959 3584 
Q 2709 3584 3137 3096 
Q 3566 2609 3566 1747 
Q 3566 888 3137 398 
Q 2709 -91 1959 -91 
Q 1206 -91 779 398 
Q 353 888 353 1747 
Q 353 2609 779 3096 
Q 1206 3584 1959 3584 
z
" id="DejaVuSans-6f" transform="scale(0.015625)"/>
      <path id="DejaVuSans-20" transform="scale(0.015625)"/>
      <path d="M 603 3500 
L 1178 3500 
L 1178 0 
L 603 0 
L 603 3500 
z
M 603 4863 
L 1178 4863 
L 1178 4134 
L 603 4134 
L 603 4863 
z
" id="DejaVuSans-69" transform="scale(0.015625)"/>
      <path d="M 3513 2113 
L 3513 0 
L 2938 0 
L 2938 2094 
Q 2938 2591 2744 2837 
Q 2550 3084 2163 3084 
Q 1697 3084 1428 2787 
Q 1159 2491 1159 1978 
L 1159 0 
L 581 0 
L 581 3500 
L 1159 3500 
L 1159 2956 
Q 1366 3272 1645 3428 
Q 1925 3584 2291 3584 
Q 2894 3584 3203 3211 
Q 3513 2838 3513 2113 
z
" id="DejaVuSans-6e" transform="scale(0.015625)"/>
      <path d="M 2834 3397 
L 2834 2853 
Q 2591 2978 2328 3040 
Q 2066 3103 1784 3103 
Q 1356 3103 1142 2972 
Q 928 2841 928 2578 
Q 928 2378 1081 2264 
Q 1234 2150 1697 2047 
L 1894 2003 
Q 2506 1872 2764 1633 
Q 3022 1394 3022 966 
Q 3022 478 2636 193 
Q 2250 -91 1575 -91 
Q 1294 -91 989 -36 
Q 684 19 347 128 
L 347 722 
Q 666 556 975 473 
Q 1284 391 1588 391 
Q 1994 391 2212 530 
Q 2431 669 2431 922 
Q 2431 1156 2273 1281 
Q 2116 1406 1581 1522 
L 1381 1569 
Q 847 1681 609 1914 
Q 372 2147 372 2553 
Q 372 3047 722 3315 
Q 1072 3584 1716 3584 
Q 2034 3584 2315 3537 
Q 2597 3491 2834 3397 
z
" id="DejaVuSans-73" transform="scale(0.015625)"/>
      <path d="M 1172 4494 
L 1172 3500 
L 2356 3500 
L 2356 3053 
L 1172 3053 
L 1172 1153 
Q 1172 725 1289 603 
Q 1406 481 1766 481 
L 2356 481 
L 2356 0 
L 1766 0 
Q 1100 0 847 248 
Q 594 497 594 1153 
L 594 3053 
L 172 3053 
L 172 3500 
L 594 3500 
L 594 4494 
L 1172 4494 
z
" id="DejaVuSans-74" transform="scale(0.015625)"/>
     </defs>
     <use xlink:href="#DejaVuSans-62"/>
     <use x="63.476562" xlink:href="#DejaVuSans-65"/>
     <use x="125" xlink:href="#DejaVuSans-66"/>
     <use x="160.205078" xlink:href="#DejaVuSans-6f"/>
     <use x="221.386719" xlink:href="#DejaVuSans-72"/>
     <use x="260.25" xlink:href="#DejaVuSans-65"/>
     <use x="321.773438" xlink:href="#DejaVuSans-20"/>
     <use x="353.560547" xlink:href="#DejaVuSans-62"/>
     <use x="417.037109" xlink:href="#DejaVuSans-69"/>
     <use x="444.820312" xlink:href="#DejaVuSans-6e"/>
     <use x="508.199219" xlink:href="#DejaVuSans-61"/>
     <use x="569.478516" xlink:href="#DejaVuSans-72"/>
     <use x="610.591797" xlink:href="#DejaVuSans-69"/>
     <use x="638.375" xlink:href="#DejaVuSans-73"/>
     <use x="690.474609" xlink:href="#DejaVuSans-61"/>
     <use x="751.753906" xlink:href="#DejaVuSans-74"/>
     <use x="790.962891" xlink:href="#DejaVuSans-69"/>
     <use x="818.746094" xlink:href="#DejaVuSans-6f"/>
     <use x="879.927734" xlink:href="#DejaVuSans-6e"/>
    </g>
   </g>
  </g>
  <g id="axes_2">
   <g id="patch_7">
    <path d="M 43.78125 1264.318125 
L 1717.78125 1264.318125 
L 1717.78125 699.77267 
L 43.78125 699.77267 
z
" style="fill:#ffffff;"/>
   </g>
   <g id="matplotlib.axis_3">
    <g id="xtick_8">
     <g id="line2d_15">
      <g>
       <use style="stroke:#000000;stroke-width:0.8;" x="119.872159" xlink:href="#meb359c8d97" y="1264.318125"/>
      </g>
     </g>
     <g id="text_17">
      <!-- 0 -->
      <g transform="translate(116.690909 1278.916563)scale(0.1 -0.1)">
       <use xlink:href="#DejaVuSans-30"/>
      </g>
     </g>
    </g>
    <g id="xtick_9">
     <g id="line2d_16">
      <g>
       <use style="stroke:#000000;stroke-width:0.8;" x="367.523613" xlink:href="#meb359c8d97" y="1264.318125"/>
      </g>
     </g>
     <g id="text_18">
      <!-- 200 -->
      <g transform="translate(357.979863 1278.916563)scale(0.1 -0.1)">
       <use xlink:href="#DejaVuSans-32"/>
       <use x="63.623047" xlink:href="#DejaVuSans-30"/>
       <use x="127.246094" xlink:href="#DejaVuSans-30"/>
      </g>
     </g>
    </g>
    <g id="xtick_10">
     <g id="line2d_17">
      <g>
       <use style="stroke:#000000;stroke-width:0.8;" x="615.175066" xlink:href="#meb359c8d97" y="1264.318125"/>
      </g>
     </g>
     <g id="text_19">
      <!-- 400 -->
      <g transform="translate(605.631316 1278.916563)scale(0.1 -0.1)">
       <use xlink:href="#DejaVuSans-34"/>
       <use x="63.623047" xlink:href="#DejaVuSans-30"/>
       <use x="127.246094" xlink:href="#DejaVuSans-30"/>
      </g>
     </g>
    </g>
    <g id="xtick_11">
     <g id="line2d_18">
      <g>
       <use style="stroke:#000000;stroke-width:0.8;" x="862.82652" xlink:href="#meb359c8d97" y="1264.318125"/>
      </g>
     </g>
     <g id="text_20">
      <!-- 600 -->
      <g transform="translate(853.28277 1278.916563)scale(0.1 -0.1)">
       <use xlink:href="#DejaVuSans-36"/>
       <use x="63.623047" xlink:href="#DejaVuSans-30"/>
       <use x="127.246094" xlink:href="#DejaVuSans-30"/>
      </g>
     </g>
    </g>
    <g id="xtick_12">
     <g id="line2d_19">
      <g>
       <use style="stroke:#000000;stroke-width:0.8;" x="1110.477973" xlink:href="#meb359c8d97" y="1264.318125"/>
      </g>
     </g>
     <g id="text_21">
      <!-- 800 -->
      <g transform="translate(1100.934223 1278.916563)scale(0.1 -0.1)">
       <use xlink:href="#DejaVuSans-38"/>
       <use x="63.623047" xlink:href="#DejaVuSans-30"/>
       <use x="127.246094" xlink:href="#DejaVuSans-30"/>
      </g>
     </g>
    </g>
    <g id="xtick_13">
     <g id="line2d_20">
      <g>
       <use style="stroke:#000000;stroke-width:0.8;" x="1358.129427" xlink:href="#meb359c8d97" y="1264.318125"/>
      </g>
     </g>
     <g id="text_22">
      <!-- 1000 -->
      <g transform="translate(1345.404427 1278.916563)scale(0.1 -0.1)">
       <use xlink:href="#DejaVuSans-31"/>
       <use x="63.623047" xlink:href="#DejaVuSans-30"/>
       <use x="127.246094" xlink:href="#DejaVuSans-30"/>
       <use x="190.869141" xlink:href="#DejaVuSans-30"/>
      </g>
     </g>
    </g>
    <g id="xtick_14">
     <g id="line2d_21">
      <g>
       <use style="stroke:#000000;stroke-width:0.8;" x="1605.78088" xlink:href="#meb359c8d97" y="1264.318125"/>
      </g>
     </g>
     <g id="text_23">
      <!-- 1200 -->
      <g transform="translate(1593.05588 1278.916563)scale(0.1 -0.1)">
       <use xlink:href="#DejaVuSans-31"/>
       <use x="63.623047" xlink:href="#DejaVuSans-32"/>
       <use x="127.246094" xlink:href="#DejaVuSans-30"/>
       <use x="190.869141" xlink:href="#DejaVuSans-30"/>
      </g>
     </g>
    </g>
    <g id="text_24">
     <!-- frame -->
     <g transform="translate(865.954687 1292.594688)scale(0.1 -0.1)">
      <use xlink:href="#DejaVuSans-66"/>
      <use x="35.205078" xlink:href="#DejaVuSans-72"/>
      <use x="76.318359" xlink:href="#DejaVuSans-61"/>
      <use x="137.597656" xlink:href="#DejaVuSans-6d"/>
      <use x="235.009766" xlink:href="#DejaVuSans-65"/>
     </g>
    </g>
   </g>
   <g id="matplotlib.axis_4">
    <g id="ytick_7">
     <g id="line2d_22">
      <g>
       <use style="stroke:#000000;stroke-width:0.8;" x="43.78125" xlink:href="#m6cab2e87c2" y="1238.656968"/>
      </g>
     </g>
     <g id="text_25">
      <!-- 0.0 -->
      <g transform="translate(20.878125 1242.456187)scale(0.1 -0.1)">
       <use xlink:href="#DejaVuSans-30"/>
       <use x="63.623047" xlink:href="#DejaVuSans-2e"/>
       <use x="95.410156" xlink:href="#DejaVuSans-30"/>
      </g>
     </g>
    </g>
    <g id="ytick_8">
     <g id="line2d_23">
      <g>
       <use style="stroke:#000000;stroke-width:0.8;" x="43.78125" xlink:href="#m6cab2e87c2" y="1136.01234"/>
      </g>
     </g>
     <g id="text_26">
      <!-- 0.2 -->
      <g transform="translate(20.878125 1139.811559)scale(0.1 -0.1)">
       <use xlink:href="#DejaVuSans-30"/>
       <use x="63.623047" xlink:href="#DejaVuSans-2e"/>
       <use x="95.410156" xlink:href="#DejaVuSans-32"/>
      </g>
     </g>
    </g>
    <g id="ytick_9">
     <g id="line2d_24">
      <g>
       <use style="stroke:#000000;stroke-width:0.8;" x="43.78125" xlink:href="#m6cab2e87c2" y="1033.367712"/>
      </g>
     </g>
     <g id="text_27">
      <!-- 0.4 -->
      <g transform="translate(20.878125 1037.166931)scale(0.1 -0.1)">
       <use xlink:href="#DejaVuSans-30"/>
       <use x="63.623047" xlink:href="#DejaVuSans-2e"/>
       <use x="95.410156" xlink:href="#DejaVuSans-34"/>
      </g>
     </g>
    </g>
    <g id="ytick_10">
     <g id="line2d_25">
      <g>
       <use style="stroke:#000000;stroke-width:0.8;" x="43.78125" xlink:href="#m6cab2e87c2" y="930.723084"/>
      </g>
     </g>
     <g id="text_28">
      <!-- 0.6 -->
      <g transform="translate(20.878125 934.522302)scale(0.1 -0.1)">
       <use xlink:href="#DejaVuSans-30"/>
       <use x="63.623047" xlink:href="#DejaVuSans-2e"/>
       <use x="95.410156" xlink:href="#DejaVuSans-36"/>
      </g>
     </g>
    </g>
    <g id="ytick_11">
     <g id="line2d_26">
      <g>
       <use style="stroke:#000000;stroke-width:0.8;" x="43.78125" xlink:href="#m6cab2e87c2" y="828.078456"/>
      </g>
     </g>
     <g id="text_29">
      <!-- 0.8 -->
      <g transform="translate(20.878125 831.877674)scale(0.1 -0.1)">
       <use xlink:href="#DejaVuSans-30"/>
       <use x="63.623047" xlink:href="#DejaVuSans-2e"/>
       <use x="95.410156" xlink:href="#DejaVuSans-38"/>
      </g>
     </g>
    </g>
    <g id="ytick_12">
     <g id="line2d_27">
      <g>
       <use style="stroke:#000000;stroke-width:0.8;" x="43.78125" xlink:href="#m6cab2e87c2" y="725.433827"/>
      </g>
     </g>
     <g id="text_30">
      <!-- 1.0 -->
      <g transform="translate(20.878125 729.233046)scale(0.1 -0.1)">
       <use xlink:href="#DejaVuSans-31"/>
       <use x="63.623047" xlink:href="#DejaVuSans-2e"/>
       <use x="95.410156" xlink:href="#DejaVuSans-30"/>
      </g>
     </g>
    </g>
    <g id="text_31">
     <!-- GCaMP -->
     <g transform="translate(14.798437 999.803991)rotate(-90)scale(0.1 -0.1)">
      <use xlink:href="#DejaVuSans-47"/>
      <use x="77.490234" xlink:href="#DejaVuSans-43"/>
      <use x="147.314453" xlink:href="#DejaVuSans-61"/>
      <use x="208.59375" xlink:href="#DejaVuSans-4d"/>
      <use x="294.873047" xlink:href="#DejaVuSans-50"/>
     </g>
    </g>
   </g>
   <g id="line2d_28">
    <path clip-path="url(#p53b6543d94)" d="M 119.872159 1238.656968 
L 1039.897309 1238.656968 
L 1041.135566 725.433827 
L 1108.001459 725.433827 
L 1109.239716 1238.656968 
L 1114.192745 1238.656968 
L 1115.431002 725.433827 
L 1124.098803 725.433827 
L 1125.33706 1238.656968 
L 1129.051832 1238.656968 
L 1130.290089 725.433827 
L 1169.914322 725.433827 
L 1171.152579 1238.656968 
L 1174.867351 1238.656968 
L 1176.105608 725.433827 
L 1183.535152 725.433827 
L 1184.773409 1238.656968 
L 1197.155982 1238.656968 
L 1198.394239 725.433827 
L 1199.632496 725.433827 
L 1200.870754 1238.656968 
L 1209.538555 1238.656968 
L 1210.776812 725.433827 
L 1221.921127 725.433827 
L 1223.159384 1238.656968 
L 1286.310505 1238.656968 
L 1287.548762 725.433827 
L 1292.501791 725.433827 
L 1293.740049 1238.656968 
L 1483.193411 1238.656968 
L 1484.431668 725.433827 
L 1533.961959 725.433827 
L 1535.200216 1238.656968 
L 1537.67673 1238.656968 
L 1538.914988 725.433827 
L 1588.445278 725.433827 
L 1589.683536 1238.656968 
L 1592.16005 1238.656968 
L 1593.398307 725.433827 
L 1641.690341 725.433827 
L 1641.690341 725.433827 
" style="fill:none;stroke:#008000;stroke-linecap:square;stroke-width:1.5;"/>
   </g>
   <g id="patch_8">
    <path d="M 43.78125 1264.318125 
L 43.78125 699.77267 
" style="fill:none;stroke:#000000;stroke-linecap:square;stroke-linejoin:miter;stroke-width:0.8;"/>
   </g>
   <g id="patch_9">
    <path d="M 1717.78125 1264.318125 
L 1717.78125 699.77267 
" style="fill:none;stroke:#000000;stroke-linecap:square;stroke-linejoin:miter;stroke-width:0.8;"/>
   </g>
   <g id="patch_10">
    <path d="M 43.78125 1264.318125 
L 1717.78125 1264.318125 
" style="fill:none;stroke:#000000;stroke-linecap:square;stroke-linejoin:miter;stroke-width:0.8;"/>
   </g>
   <g id="patch_11">
    <path d="M 43.78125 699.77267 
L 1717.78125 699.77267 
" style="fill:none;stroke:#000000;stroke-linecap:square;stroke-linejoin:miter;stroke-width:0.8;"/>
   </g>
   <g id="text_32">
    <!-- before binarisation -->
    <g transform="translate(824.1825 693.77267)scale(0.12 -0.12)">
     <use xlink:href="#DejaVuSans-62"/>
     <use x="63.476562" xlink:href="#DejaVuSans-65"/>
     <use x="125" xlink:href="#DejaVuSans-66"/>
     <use x="160.205078" xlink:href="#DejaVuSans-6f"/>
     <use x="221.386719" xlink:href="#DejaVuSans-72"/>
     <use x="260.25" xlink:href="#DejaVuSans-65"/>
     <use x="321.773438" xlink:href="#DejaVuSans-20"/>
     <use x="353.560547" xlink:href="#DejaVuSans-62"/>
     <use x="417.037109" xlink:href="#DejaVuSans-69"/>
     <use x="444.820312" xlink:href="#DejaVuSans-6e"/>
     <use x="508.199219" xlink:href="#DejaVuSans-61"/>
     <use x="569.478516" xlink:href="#DejaVuSans-72"/>
     <use x="610.591797" xlink:href="#DejaVuSans-69"/>
     <use x="638.375" xlink:href="#DejaVuSans-73"/>
     <use x="690.474609" xlink:href="#DejaVuSans-61"/>
     <use x="751.753906" xlink:href="#DejaVuSans-74"/>
     <use x="790.962891" xlink:href="#DejaVuSans-69"/>
     <use x="818.746094" xlink:href="#DejaVuSans-6f"/>
     <use x="879.927734" xlink:href="#DejaVuSans-6e"/>
    </g>
   </g>
  </g>
 </g>
 <defs>
  <clipPath id="p247caec257">
   <rect height="564.545455" width="1674" x="43.78125" y="22.318125"/>
  </clipPath>
  <clipPath id="p53b6543d94">
   <rect height="564.545455" width="1674" x="43.78125" y="699.77267"/>
  </clipPath>
 </defs>
</svg>
