<?xml version="1.0" encoding="utf-8" standalone="no"?>
<!DOCTYPE svg PUBLIC "-//W3C//DTD SVG 1.1//EN"
  "http://www.w3.org/Graphics/SVG/1.1/DTD/svg11.dtd">
<svg height="1301.874375pt" version="1.1" viewBox="0 0 1724.98125 1301.874375" width="1724.98125pt" xmlns="http://www.w3.org/2000/svg" xmlns:xlink="http://www.w3.org/1999/xlink">
 <metadata>
  <rdf:RDF xmlns:cc="http://creativecommons.org/ns#" xmlns:dc="http://purl.org/dc/elements/1.1/" xmlns:rdf="http://www.w3.org/1999/02/22-rdf-syntax-ns#">
   <cc:Work>
    <dc:type rdf:resource="http://purl.org/dc/dcmitype/StillImage"/>
    <dc:date>2022-07-24T15:54:43.008358</dc:date>
    <dc:format>image/svg+xml</dc:format>
    <dc:creator>
     <cc:Agent>
      <dc:title>Matplotlib v3.4.2, https://matplotlib.org/</dc:title>
     </cc:Agent>
    </dc:creator>
   </cc:Work>
  </rdf:RDF>
 </metadata>
 <defs>
  <style type="text/css">*{stroke-linecap:butt;stroke-linejoin:round;}</style>
 </defs>
 <g id="figure_1">
  <g id="patch_1">
   <path d="M 0 1301.874375 
L 1724.98125 1301.874375 
L 1724.98125 0 
L 0 0 
z
" style="fill:#ffffff;"/>
  </g>
  <g id="axes_1">
   <g id="patch_2">
    <path d="M 43.78125 586.86358 
L 1717.78125 586.86358 
L 1717.78125 22.318125 
L 43.78125 22.318125 
z
" style="fill:#ffffff;"/>
   </g>
   <g id="matplotlib.axis_1">
    <g id="xtick_1">
     <g id="line2d_1">
      <defs>
       <path d="M 0 0 
L 0 3.5 
" id="ma24cda36eb" style="stroke:#000000;stroke-width:0.8;"/>
      </defs>
      <g>
       <use style="stroke:#000000;stroke-width:0.8;" x="119.872159" xlink:href="#ma24cda36eb" y="586.86358"/>
      </g>
     </g>
     <g id="text_1">
      <!-- 0 -->
      <g transform="translate(116.690909 601.462017)scale(0.1 -0.1)">
       <defs>
        <path d="M 2034 4250 
Q 1547 4250 1301 3770 
Q 1056 3291 1056 2328 
Q 1056 1369 1301 889 
Q 1547 409 2034 409 
Q 2525 409 2770 889 
Q 3016 1369 3016 2328 
Q 3016 3291 2770 3770 
Q 2525 4250 2034 4250 
z
M 2034 4750 
Q 2819 4750 3233 4129 
Q 3647 3509 3647 2328 
Q 3647 1150 3233 529 
Q 2819 -91 2034 -91 
Q 1250 -91 836 529 
Q 422 1150 422 2328 
Q 422 3509 836 4129 
Q 1250 4750 2034 4750 
z
" id="DejaVuSans-30" transform="scale(0.015625)"/>
       </defs>
       <use xlink:href="#DejaVuSans-30"/>
      </g>
     </g>
    </g>
    <g id="xtick_2">
     <g id="line2d_2">
      <g>
       <use style="stroke:#000000;stroke-width:0.8;" x="367.523613" xlink:href="#ma24cda36eb" y="586.86358"/>
      </g>
     </g>
     <g id="text_2">
      <!-- 200 -->
      <g transform="translate(357.979863 601.462017)scale(0.1 -0.1)">
       <defs>
        <path d="M 1228 531 
L 3431 531 
L 3431 0 
L 469 0 
L 469 531 
Q 828 903 1448 1529 
Q 2069 2156 2228 2338 
Q 2531 2678 2651 2914 
Q 2772 3150 2772 3378 
Q 2772 3750 2511 3984 
Q 2250 4219 1831 4219 
Q 1534 4219 1204 4116 
Q 875 4013 500 3803 
L 500 4441 
Q 881 4594 1212 4672 
Q 1544 4750 1819 4750 
Q 2544 4750 2975 4387 
Q 3406 4025 3406 3419 
Q 3406 3131 3298 2873 
Q 3191 2616 2906 2266 
Q 2828 2175 2409 1742 
Q 1991 1309 1228 531 
z
" id="DejaVuSans-32" transform="scale(0.015625)"/>
       </defs>
       <use xlink:href="#DejaVuSans-32"/>
       <use x="63.623047" xlink:href="#DejaVuSans-30"/>
       <use x="127.246094" xlink:href="#DejaVuSans-30"/>
      </g>
     </g>
    </g>
    <g id="xtick_3">
     <g id="line2d_3">
      <g>
       <use style="stroke:#000000;stroke-width:0.8;" x="615.175066" xlink:href="#ma24cda36eb" y="586.86358"/>
      </g>
     </g>
     <g id="text_3">
      <!-- 400 -->
      <g transform="translate(605.631316 601.462017)scale(0.1 -0.1)">
       <defs>
        <path d="M 2419 4116 
L 825 1625 
L 2419 1625 
L 2419 4116 
z
M 2253 4666 
L 3047 4666 
L 3047 1625 
L 3713 1625 
L 3713 1100 
L 3047 1100 
L 3047 0 
L 2419 0 
L 2419 1100 
L 313 1100 
L 313 1709 
L 2253 4666 
z
" id="DejaVuSans-34" transform="scale(0.015625)"/>
       </defs>
       <use xlink:href="#DejaVuSans-34"/>
       <use x="63.623047" xlink:href="#DejaVuSans-30"/>
       <use x="127.246094" xlink:href="#DejaVuSans-30"/>
      </g>
     </g>
    </g>
    <g id="xtick_4">
     <g id="line2d_4">
      <g>
       <use style="stroke:#000000;stroke-width:0.8;" x="862.82652" xlink:href="#ma24cda36eb" y="586.86358"/>
      </g>
     </g>
     <g id="text_4">
      <!-- 600 -->
      <g transform="translate(853.28277 601.462017)scale(0.1 -0.1)">
       <defs>
        <path d="M 2113 2584 
Q 1688 2584 1439 2293 
Q 1191 2003 1191 1497 
Q 1191 994 1439 701 
Q 1688 409 2113 409 
Q 2538 409 2786 701 
Q 3034 994 3034 1497 
Q 3034 2003 2786 2293 
Q 2538 2584 2113 2584 
z
M 3366 4563 
L 3366 3988 
Q 3128 4100 2886 4159 
Q 2644 4219 2406 4219 
Q 1781 4219 1451 3797 
Q 1122 3375 1075 2522 
Q 1259 2794 1537 2939 
Q 1816 3084 2150 3084 
Q 2853 3084 3261 2657 
Q 3669 2231 3669 1497 
Q 3669 778 3244 343 
Q 2819 -91 2113 -91 
Q 1303 -91 875 529 
Q 447 1150 447 2328 
Q 447 3434 972 4092 
Q 1497 4750 2381 4750 
Q 2619 4750 2861 4703 
Q 3103 4656 3366 4563 
z
" id="DejaVuSans-36" transform="scale(0.015625)"/>
       </defs>
       <use xlink:href="#DejaVuSans-36"/>
       <use x="63.623047" xlink:href="#DejaVuSans-30"/>
       <use x="127.246094" xlink:href="#DejaVuSans-30"/>
      </g>
     </g>
    </g>
    <g id="xtick_5">
     <g id="line2d_5">
      <g>
       <use style="stroke:#000000;stroke-width:0.8;" x="1110.477973" xlink:href="#ma24cda36eb" y="586.86358"/>
      </g>
     </g>
     <g id="text_5">
      <!-- 800 -->
      <g transform="translate(1100.934223 601.462017)scale(0.1 -0.1)">
       <defs>
        <path d="M 2034 2216 
Q 1584 2216 1326 1975 
Q 1069 1734 1069 1313 
Q 1069 891 1326 650 
Q 1584 409 2034 409 
Q 2484 409 2743 651 
Q 3003 894 3003 1313 
Q 3003 1734 2745 1975 
Q 2488 2216 2034 2216 
z
M 1403 2484 
Q 997 2584 770 2862 
Q 544 3141 544 3541 
Q 544 4100 942 4425 
Q 1341 4750 2034 4750 
Q 2731 4750 3128 4425 
Q 3525 4100 3525 3541 
Q 3525 3141 3298 2862 
Q 3072 2584 2669 2484 
Q 3125 2378 3379 2068 
Q 3634 1759 3634 1313 
Q 3634 634 3220 271 
Q 2806 -91 2034 -91 
Q 1263 -91 848 271 
Q 434 634 434 1313 
Q 434 1759 690 2068 
Q 947 2378 1403 2484 
z
M 1172 3481 
Q 1172 3119 1398 2916 
Q 1625 2713 2034 2713 
Q 2441 2713 2670 2916 
Q 2900 3119 2900 3481 
Q 2900 3844 2670 4047 
Q 2441 4250 2034 4250 
Q 1625 4250 1398 4047 
Q 1172 3844 1172 3481 
z
" id="DejaVuSans-38" transform="scale(0.015625)"/>
       </defs>
       <use xlink:href="#DejaVuSans-38"/>
       <use x="63.623047" xlink:href="#DejaVuSans-30"/>
       <use x="127.246094" xlink:href="#DejaVuSans-30"/>
      </g>
     </g>
    </g>
    <g id="xtick_6">
     <g id="line2d_6">
      <g>
       <use style="stroke:#000000;stroke-width:0.8;" x="1358.129427" xlink:href="#ma24cda36eb" y="586.86358"/>
      </g>
     </g>
     <g id="text_6">
      <!-- 1000 -->
      <g transform="translate(1345.404427 601.462017)scale(0.1 -0.1)">
       <defs>
        <path d="M 794 531 
L 1825 531 
L 1825 4091 
L 703 3866 
L 703 4441 
L 1819 4666 
L 2450 4666 
L 2450 531 
L 3481 531 
L 3481 0 
L 794 0 
L 794 531 
z
" id="DejaVuSans-31" transform="scale(0.015625)"/>
       </defs>
       <use xlink:href="#DejaVuSans-31"/>
       <use x="63.623047" xlink:href="#DejaVuSans-30"/>
       <use x="127.246094" xlink:href="#DejaVuSans-30"/>
       <use x="190.869141" xlink:href="#DejaVuSans-30"/>
      </g>
     </g>
    </g>
    <g id="xtick_7">
     <g id="line2d_7">
      <g>
       <use style="stroke:#000000;stroke-width:0.8;" x="1605.78088" xlink:href="#ma24cda36eb" y="586.86358"/>
      </g>
     </g>
     <g id="text_7">
      <!-- 1200 -->
      <g transform="translate(1593.05588 601.462017)scale(0.1 -0.1)">
       <use xlink:href="#DejaVuSans-31"/>
       <use x="63.623047" xlink:href="#DejaVuSans-32"/>
       <use x="127.246094" xlink:href="#DejaVuSans-30"/>
       <use x="190.869141" xlink:href="#DejaVuSans-30"/>
      </g>
     </g>
    </g>
    <g id="text_8">
     <!-- frame -->
     <g transform="translate(865.954687 615.140142)scale(0.1 -0.1)">
      <defs>
       <path d="M 2375 4863 
L 2375 4384 
L 1825 4384 
Q 1516 4384 1395 4259 
Q 1275 4134 1275 3809 
L 1275 3500 
L 2222 3500 
L 2222 3053 
L 1275 3053 
L 1275 0 
L 697 0 
L 697 3053 
L 147 3053 
L 147 3500 
L 697 3500 
L 697 3744 
Q 697 4328 969 4595 
Q 1241 4863 1831 4863 
L 2375 4863 
z
" id="DejaVuSans-66" transform="scale(0.015625)"/>
       <path d="M 2631 2963 
Q 2534 3019 2420 3045 
Q 2306 3072 2169 3072 
Q 1681 3072 1420 2755 
Q 1159 2438 1159 1844 
L 1159 0 
L 581 0 
L 581 3500 
L 1159 3500 
L 1159 2956 
Q 1341 3275 1631 3429 
Q 1922 3584 2338 3584 
Q 2397 3584 2469 3576 
Q 2541 3569 2628 3553 
L 2631 2963 
z
" id="DejaVuSans-72" transform="scale(0.015625)"/>
       <path d="M 2194 1759 
Q 1497 1759 1228 1600 
Q 959 1441 959 1056 
Q 959 750 1161 570 
Q 1363 391 1709 391 
Q 2188 391 2477 730 
Q 2766 1069 2766 1631 
L 2766 1759 
L 2194 1759 
z
M 3341 1997 
L 3341 0 
L 2766 0 
L 2766 531 
Q 2569 213 2275 61 
Q 1981 -91 1556 -91 
Q 1019 -91 701 211 
Q 384 513 384 1019 
Q 384 1609 779 1909 
Q 1175 2209 1959 2209 
L 2766 2209 
L 2766 2266 
Q 2766 2663 2505 2880 
Q 2244 3097 1772 3097 
Q 1472 3097 1187 3025 
Q 903 2953 641 2809 
L 641 3341 
Q 956 3463 1253 3523 
Q 1550 3584 1831 3584 
Q 2591 3584 2966 3190 
Q 3341 2797 3341 1997 
z
" id="DejaVuSans-61" transform="scale(0.015625)"/>
       <path d="M 3328 2828 
Q 3544 3216 3844 3400 
Q 4144 3584 4550 3584 
Q 5097 3584 5394 3201 
Q 5691 2819 5691 2113 
L 5691 0 
L 5113 0 
L 5113 2094 
Q 5113 2597 4934 2840 
Q 4756 3084 4391 3084 
Q 3944 3084 3684 2787 
Q 3425 2491 3425 1978 
L 3425 0 
L 2847 0 
L 2847 2094 
Q 2847 2600 2669 2842 
Q 2491 3084 2119 3084 
Q 1678 3084 1418 2786 
Q 1159 2488 1159 1978 
L 1159 0 
L 581 0 
L 581 3500 
L 1159 3500 
L 1159 2956 
Q 1356 3278 1631 3431 
Q 1906 3584 2284 3584 
Q 2666 3584 2933 3390 
Q 3200 3197 3328 2828 
z
" id="DejaVuSans-6d" transform="scale(0.015625)"/>
       <path d="M 3597 1894 
L 3597 1613 
L 953 1613 
Q 991 1019 1311 708 
Q 1631 397 2203 397 
Q 2534 397 2845 478 
Q 3156 559 3463 722 
L 3463 178 
Q 3153 47 2828 -22 
Q 2503 -91 2169 -91 
Q 1331 -91 842 396 
Q 353 884 353 1716 
Q 353 2575 817 3079 
Q 1281 3584 2069 3584 
Q 2775 3584 3186 3129 
Q 3597 2675 3597 1894 
z
M 3022 2063 
Q 3016 2534 2758 2815 
Q 2500 3097 2075 3097 
Q 1594 3097 1305 2825 
Q 1016 2553 972 2059 
L 3022 2063 
z
" id="DejaVuSans-65" transform="scale(0.015625)"/>
      </defs>
      <use xlink:href="#DejaVuSans-66"/>
      <use x="35.205078" xlink:href="#DejaVuSans-72"/>
      <use x="76.318359" xlink:href="#DejaVuSans-61"/>
      <use x="137.597656" xlink:href="#DejaVuSans-6d"/>
      <use x="235.009766" xlink:href="#DejaVuSans-65"/>
     </g>
    </g>
   </g>
   <g id="matplotlib.axis_2">
    <g id="ytick_1">
     <g id="line2d_8">
      <defs>
       <path d="M 0 0 
L -3.5 0 
" id="m637a1ea97b" style="stroke:#000000;stroke-width:0.8;"/>
      </defs>
      <g>
       <use style="stroke:#000000;stroke-width:0.8;" x="43.78125" xlink:href="#m637a1ea97b" y="561.202423"/>
      </g>
     </g>
     <g id="text_9">
      <!-- 0.0 -->
      <g transform="translate(20.878125 565.001641)scale(0.1 -0.1)">
       <defs>
        <path d="M 684 794 
L 1344 794 
L 1344 0 
L 684 0 
L 684 794 
z
" id="DejaVuSans-2e" transform="scale(0.015625)"/>
       </defs>
       <use xlink:href="#DejaVuSans-30"/>
       <use x="63.623047" xlink:href="#DejaVuSans-2e"/>
       <use x="95.410156" xlink:href="#DejaVuSans-30"/>
      </g>
     </g>
    </g>
    <g id="ytick_2">
     <g id="line2d_9">
      <g>
       <use style="stroke:#000000;stroke-width:0.8;" x="43.78125" xlink:href="#m637a1ea97b" y="496.270026"/>
      </g>
     </g>
     <g id="text_10">
      <!-- 0.2 -->
      <g transform="translate(20.878125 500.069245)scale(0.1 -0.1)">
       <use xlink:href="#DejaVuSans-30"/>
       <use x="63.623047" xlink:href="#DejaVuSans-2e"/>
       <use x="95.410156" xlink:href="#DejaVuSans-32"/>
      </g>
     </g>
    </g>
    <g id="ytick_3">
     <g id="line2d_10">
      <g>
       <use style="stroke:#000000;stroke-width:0.8;" x="43.78125" xlink:href="#m637a1ea97b" y="431.337629"/>
      </g>
     </g>
     <g id="text_11">
      <!-- 0.4 -->
      <g transform="translate(20.878125 435.136848)scale(0.1 -0.1)">
       <use xlink:href="#DejaVuSans-30"/>
       <use x="63.623047" xlink:href="#DejaVuSans-2e"/>
       <use x="95.410156" xlink:href="#DejaVuSans-34"/>
      </g>
     </g>
    </g>
    <g id="ytick_4">
     <g id="line2d_11">
      <g>
       <use style="stroke:#000000;stroke-width:0.8;" x="43.78125" xlink:href="#m637a1ea97b" y="366.405233"/>
      </g>
     </g>
     <g id="text_12">
      <!-- 0.6 -->
      <g transform="translate(20.878125 370.204452)scale(0.1 -0.1)">
       <use xlink:href="#DejaVuSans-30"/>
       <use x="63.623047" xlink:href="#DejaVuSans-2e"/>
       <use x="95.410156" xlink:href="#DejaVuSans-36"/>
      </g>
     </g>
    </g>
    <g id="ytick_5">
     <g id="line2d_12">
      <g>
       <use style="stroke:#000000;stroke-width:0.8;" x="43.78125" xlink:href="#m637a1ea97b" y="301.472836"/>
      </g>
     </g>
     <g id="text_13">
      <!-- 0.8 -->
      <g transform="translate(20.878125 305.272055)scale(0.1 -0.1)">
       <use xlink:href="#DejaVuSans-30"/>
       <use x="63.623047" xlink:href="#DejaVuSans-2e"/>
       <use x="95.410156" xlink:href="#DejaVuSans-38"/>
      </g>
     </g>
    </g>
    <g id="ytick_6">
     <g id="line2d_13">
      <g>
       <use style="stroke:#000000;stroke-width:0.8;" x="43.78125" xlink:href="#m637a1ea97b" y="236.54044"/>
      </g>
     </g>
     <g id="text_14">
      <!-- 1.0 -->
      <g transform="translate(20.878125 240.339659)scale(0.1 -0.1)">
       <use xlink:href="#DejaVuSans-31"/>
       <use x="63.623047" xlink:href="#DejaVuSans-2e"/>
       <use x="95.410156" xlink:href="#DejaVuSans-30"/>
      </g>
     </g>
    </g>
    <g id="ytick_7">
     <g id="line2d_14">
      <g>
       <use style="stroke:#000000;stroke-width:0.8;" x="43.78125" xlink:href="#m637a1ea97b" y="171.608043"/>
      </g>
     </g>
     <g id="text_15">
      <!-- 1.2 -->
      <g transform="translate(20.878125 175.407262)scale(0.1 -0.1)">
       <use xlink:href="#DejaVuSans-31"/>
       <use x="63.623047" xlink:href="#DejaVuSans-2e"/>
       <use x="95.410156" xlink:href="#DejaVuSans-32"/>
      </g>
     </g>
    </g>
    <g id="ytick_8">
     <g id="line2d_15">
      <g>
       <use style="stroke:#000000;stroke-width:0.8;" x="43.78125" xlink:href="#m637a1ea97b" y="106.675647"/>
      </g>
     </g>
     <g id="text_16">
      <!-- 1.4 -->
      <g transform="translate(20.878125 110.474865)scale(0.1 -0.1)">
       <use xlink:href="#DejaVuSans-31"/>
       <use x="63.623047" xlink:href="#DejaVuSans-2e"/>
       <use x="95.410156" xlink:href="#DejaVuSans-34"/>
      </g>
     </g>
    </g>
    <g id="ytick_9">
     <g id="line2d_16">
      <g>
       <use style="stroke:#000000;stroke-width:0.8;" x="43.78125" xlink:href="#m637a1ea97b" y="41.74325"/>
      </g>
     </g>
     <g id="text_17">
      <!-- 1.6 -->
      <g transform="translate(20.878125 45.542469)scale(0.1 -0.1)">
       <use xlink:href="#DejaVuSans-31"/>
       <use x="63.623047" xlink:href="#DejaVuSans-2e"/>
       <use x="95.410156" xlink:href="#DejaVuSans-36"/>
      </g>
     </g>
    </g>
    <g id="text_18">
     <!-- GCaMP -->
     <g transform="translate(14.798437 322.349446)rotate(-90)scale(0.1 -0.1)">
      <defs>
       <path d="M 3809 666 
L 3809 1919 
L 2778 1919 
L 2778 2438 
L 4434 2438 
L 4434 434 
Q 4069 175 3628 42 
Q 3188 -91 2688 -91 
Q 1594 -91 976 548 
Q 359 1188 359 2328 
Q 359 3472 976 4111 
Q 1594 4750 2688 4750 
Q 3144 4750 3555 4637 
Q 3966 4525 4313 4306 
L 4313 3634 
Q 3963 3931 3569 4081 
Q 3175 4231 2741 4231 
Q 1884 4231 1454 3753 
Q 1025 3275 1025 2328 
Q 1025 1384 1454 906 
Q 1884 428 2741 428 
Q 3075 428 3337 486 
Q 3600 544 3809 666 
z
" id="DejaVuSans-47" transform="scale(0.015625)"/>
       <path d="M 4122 4306 
L 4122 3641 
Q 3803 3938 3442 4084 
Q 3081 4231 2675 4231 
Q 1875 4231 1450 3742 
Q 1025 3253 1025 2328 
Q 1025 1406 1450 917 
Q 1875 428 2675 428 
Q 3081 428 3442 575 
Q 3803 722 4122 1019 
L 4122 359 
Q 3791 134 3420 21 
Q 3050 -91 2638 -91 
Q 1578 -91 968 557 
Q 359 1206 359 2328 
Q 359 3453 968 4101 
Q 1578 4750 2638 4750 
Q 3056 4750 3426 4639 
Q 3797 4528 4122 4306 
z
" id="DejaVuSans-43" transform="scale(0.015625)"/>
       <path d="M 628 4666 
L 1569 4666 
L 2759 1491 
L 3956 4666 
L 4897 4666 
L 4897 0 
L 4281 0 
L 4281 4097 
L 3078 897 
L 2444 897 
L 1241 4097 
L 1241 0 
L 628 0 
L 628 4666 
z
" id="DejaVuSans-4d" transform="scale(0.015625)"/>
       <path d="M 1259 4147 
L 1259 2394 
L 2053 2394 
Q 2494 2394 2734 2622 
Q 2975 2850 2975 3272 
Q 2975 3691 2734 3919 
Q 2494 4147 2053 4147 
L 1259 4147 
z
M 628 4666 
L 2053 4666 
Q 2838 4666 3239 4311 
Q 3641 3956 3641 3272 
Q 3641 2581 3239 2228 
Q 2838 1875 2053 1875 
L 1259 1875 
L 1259 0 
L 628 0 
L 628 4666 
z
" id="DejaVuSans-50" transform="scale(0.015625)"/>
      </defs>
      <use xlink:href="#DejaVuSans-47"/>
      <use x="77.490234" xlink:href="#DejaVuSans-43"/>
      <use x="147.314453" xlink:href="#DejaVuSans-61"/>
      <use x="208.59375" xlink:href="#DejaVuSans-4d"/>
      <use x="294.873047" xlink:href="#DejaVuSans-50"/>
     </g>
    </g>
   </g>
   <g id="line2d_17">
    <path clip-path="url(#pb538a10b74)" d="M 119.872159 320.431623 
L 121.110416 320.996441 
L 122.348674 320.907875 
L 123.586931 320.10167 
L 124.825188 319.063113 
L 126.063445 318.315467 
L 127.301703 317.769445 
L 128.53996 316.642621 
L 129.778217 314.283331 
L 132.254732 307.714634 
L 133.492989 305.379412 
L 134.731246 304.271141 
L 135.969504 304.136467 
L 137.207761 304.332168 
L 138.446018 304.153262 
L 139.684275 303.023028 
L 140.922533 300.686372 
L 142.16079 297.667121 
L 143.399047 295.30092 
L 144.637304 294.968179 
L 145.875562 297.209664 
L 147.113819 301.352154 
L 148.352076 305.933101 
L 149.590334 309.597586 
L 150.828591 311.582997 
L 152.066848 311.624918 
L 153.305105 309.723385 
L 154.543363 306.250247 
L 155.78162 302.207997 
L 157.019877 298.675231 
L 158.258134 295.951476 
L 159.496392 293.844441 
L 160.734649 292.542566 
L 161.972906 292.549706 
L 163.211163 293.947678 
L 165.687678 298.190249 
L 166.925935 299.464237 
L 171.878964 302.124102 
L 173.117222 302.593178 
L 174.355479 302.568175 
L 175.593736 301.496503 
L 176.831993 299.231787 
L 178.070251 296.54582 
L 179.308508 294.392548 
L 181.785022 291.053303 
L 183.02328 288.824768 
L 185.499794 283.933479 
L 186.738052 281.733916 
L 187.976309 280.268209 
L 189.214566 279.998151 
L 190.452823 280.860104 
L 191.691081 282.677795 
L 192.929338 285.499204 
L 194.167595 288.928673 
L 195.405852 291.672563 
L 196.64411 292.363605 
L 197.882367 290.660389 
L 199.120624 286.999134 
L 200.358881 281.560942 
L 201.597139 274.386969 
L 202.835396 266.340129 
L 204.073653 259.024884 
L 205.311911 253.736763 
L 206.550168 250.923131 
L 207.788425 250.378021 
L 209.026682 251.668347 
L 210.26494 254.411494 
L 211.503197 257.964253 
L 212.741454 261.162789 
L 213.979711 262.978825 
L 215.217969 263.219087 
L 216.456226 262.250606 
L 217.694483 260.368147 
L 218.93274 257.662925 
L 220.170998 254.185631 
L 222.647512 246.220968 
L 223.88577 243.652382 
L 225.124027 243.11423 
L 226.362284 244.133046 
L 227.600541 245.576281 
L 228.838799 246.121804 
L 230.077056 244.532669 
L 231.315313 240.449138 
L 233.791828 229.501978 
L 235.030085 225.370929 
L 236.268342 222.483929 
L 237.5066 219.997275 
L 238.744857 216.933912 
L 239.983114 213.277475 
L 241.221371 210.523944 
L 242.459629 210.487292 
L 243.697886 213.38142 
L 244.936143 217.533976 
L 246.1744 220.948641 
L 247.412658 222.892012 
L 248.650915 223.933355 
L 249.889172 224.700936 
L 251.127429 225.156893 
L 252.365687 224.924559 
L 256.080459 221.993625 
L 257.318716 220.689224 
L 258.556973 218.092168 
L 259.79523 214.267186 
L 262.271745 205.198467 
L 263.510002 200.108973 
L 267.224774 183.519162 
L 268.463031 179.887035 
L 269.701288 178.187223 
L 270.939546 178.567103 
L 272.177803 180.874223 
L 274.654318 188.135872 
L 275.892575 192.095751 
L 278.369089 200.522805 
L 279.607347 202.794047 
L 280.845604 201.960558 
L 282.083861 197.929558 
L 284.560376 186.519037 
L 285.798633 183.416257 
L 287.03689 183.83195 
L 288.275147 187.684491 
L 290.751662 200.622406 
L 291.989919 205.746746 
L 293.228177 207.904341 
L 294.466434 207.132736 
L 298.181206 199.524861 
L 299.419463 196.964959 
L 301.895977 190.796454 
L 303.134235 188.426987 
L 305.610749 185.637977 
L 308.087264 182.185828 
L 309.325521 181.505687 
L 310.563778 181.876098 
L 311.802036 182.815337 
L 313.040293 184.127621 
L 314.27855 185.688164 
L 315.516807 186.792897 
L 316.755065 186.430715 
L 319.231579 182.50021 
L 320.469836 182.393651 
L 321.708094 185.572961 
L 322.946351 191.697946 
L 324.184608 198.498716 
L 325.422866 203.609163 
L 326.661123 206.467078 
L 327.89938 207.735173 
L 329.137637 207.960209 
L 330.375895 207.53837 
L 332.852409 206.290327 
L 334.090666 205.407344 
L 335.328924 204.130426 
L 336.567181 202.638814 
L 337.805438 200.946476 
L 339.043695 198.72107 
L 341.52021 192.95691 
L 342.758467 190.673637 
L 343.996725 189.467519 
L 345.234982 188.808385 
L 346.473239 187.82179 
L 347.711496 186.49063 
L 348.949754 185.477359 
L 350.188011 185.070847 
L 351.426268 184.940499 
L 353.902783 184.383256 
L 355.14104 184.356015 
L 357.617554 185.230073 
L 358.855812 185.216676 
L 360.094069 184.511429 
L 361.332326 183.601211 
L 363.808841 182.372713 
L 365.047098 181.776168 
L 366.285355 181.428366 
L 367.523613 181.812949 
L 368.76187 183.206089 
L 371.238384 187.582569 
L 372.476642 188.841523 
L 373.714899 188.63796 
L 374.953156 187.043705 
L 376.191413 184.706345 
L 377.429671 182.609522 
L 378.667928 181.41359 
L 379.906185 180.953271 
L 381.144443 180.779401 
L 382.3827 181.123962 
L 383.620957 182.816307 
L 384.859214 186.291215 
L 386.097472 190.890762 
L 387.335729 194.880505 
L 388.573986 196.290343 
L 389.812243 194.423786 
L 391.050501 190.429132 
L 392.288758 186.021169 
L 393.527015 182.169427 
L 394.765272 179.20633 
L 396.00353 177.295331 
L 397.241787 176.312947 
L 398.480044 175.731401 
L 399.718302 174.852885 
L 400.956559 173.214135 
L 403.433073 168.543476 
L 404.671331 166.776046 
L 405.909588 165.722408 
L 407.147845 165.151873 
L 408.386102 165.446314 
L 409.62436 167.247139 
L 410.862617 170.119535 
L 412.100874 172.595033 
L 413.339132 173.569599 
L 414.577389 173.384417 
L 415.815646 173.312567 
L 417.053903 174.119452 
L 419.530418 177.084841 
L 420.768675 178.16855 
L 422.006932 178.768977 
L 423.24519 179.203435 
L 424.483447 179.866592 
L 425.721704 180.768718 
L 426.959961 181.275224 
L 428.198219 180.392814 
L 429.436476 177.818037 
L 430.674733 174.892094 
L 431.912991 174.003396 
L 433.151248 176.276779 
L 434.389505 180.203287 
L 435.627762 183.444732 
L 436.86602 184.997505 
L 438.104277 185.043747 
L 439.342534 184.329773 
L 440.580791 183.920043 
L 441.819049 184.517885 
L 443.057306 186.094681 
L 444.295563 188.057967 
L 445.53382 189.433003 
L 446.772078 189.386376 
L 448.010335 187.765083 
L 449.248592 184.72993 
L 450.48685 180.30137 
L 451.725107 175.10349 
L 452.963364 170.788542 
L 454.201621 168.542723 
L 455.439879 168.097025 
L 456.678136 168.95096 
L 457.916393 171.101811 
L 459.15465 174.255098 
L 461.631165 180.983585 
L 462.869422 183.765725 
L 464.107679 185.716083 
L 465.345937 186.634893 
L 466.584194 186.92241 
L 467.822451 187.484595 
L 470.298966 189.863296 
L 471.537223 189.54675 
L 472.77548 186.998766 
L 475.251995 177.828682 
L 476.490252 174.90013 
L 477.728509 175.095948 
L 478.966767 178.065737 
L 480.205024 181.896672 
L 481.443281 184.517982 
L 482.681538 185.323025 
L 485.158053 184.817252 
L 486.39631 185.084216 
L 487.634568 185.985195 
L 488.872825 187.12647 
L 490.111082 187.750243 
L 491.349339 187.268919 
L 492.587597 185.763811 
L 496.302368 179.528388 
L 497.540626 178.505682 
L 498.778883 179.058851 
L 500.01714 181.219974 
L 503.731912 190.786189 
L 504.970169 192.832576 
L 506.208427 193.483835 
L 507.446684 192.407785 
L 508.684941 189.662916 
L 509.923198 185.927786 
L 511.161456 182.60524 
L 512.399713 181.464361 
L 513.63797 183.443913 
L 514.876227 187.774055 
L 516.114485 192.671021 
L 517.352742 196.623992 
L 518.590999 199.000927 
L 519.829257 200.217518 
L 521.067514 201.259812 
L 522.305771 202.480444 
L 523.544028 203.164081 
L 524.782286 202.503681 
L 526.020543 200.58398 
L 527.2588 198.324896 
L 528.497057 196.931836 
L 529.735315 197.193302 
L 530.973572 198.994669 
L 532.211829 201.775514 
L 534.688344 208.011943 
L 535.926601 209.974133 
L 537.164858 210.400923 
L 538.403116 209.519327 
L 539.641373 208.405668 
L 540.87963 208.332398 
L 542.117887 209.748895 
L 543.356145 211.917762 
L 544.594402 213.701186 
L 545.832659 214.83567 
L 547.070916 215.721659 
L 548.309174 216.220926 
L 549.547431 215.935944 
L 550.785688 214.918324 
L 553.262203 212.012858 
L 554.50046 211.680752 
L 555.738717 213.06237 
L 556.976975 215.488206 
L 558.215232 216.982788 
L 559.453489 215.563376 
L 560.691746 210.652446 
L 561.930004 203.113017 
L 563.168261 194.832364 
L 564.406518 188.408805 
L 565.644775 185.755307 
L 566.883033 186.934917 
L 568.12129 190.818373 
L 569.359547 195.85348 
L 570.597804 200.270673 
L 571.836062 202.590436 
L 573.074319 202.08592 
L 574.312576 199.136569 
L 575.550834 195.218201 
L 576.789091 191.788177 
L 578.027348 189.462277 
L 579.265605 188.616869 
L 580.503863 189.519025 
L 582.980377 193.690379 
L 584.218634 195.872318 
L 586.695149 200.982663 
L 587.933406 202.947663 
L 589.171663 203.713823 
L 590.409921 203.111339 
L 591.648178 201.373491 
L 592.886435 198.725408 
L 594.124693 195.018361 
L 595.36295 189.95945 
L 597.839464 178.0828 
L 599.077722 174.388426 
L 600.315979 173.895866 
L 601.554236 176.636389 
L 604.030751 186.490418 
L 605.269008 190.311696 
L 606.507265 192.609124 
L 607.745523 193.605579 
L 608.98378 193.613218 
L 610.222037 193.027858 
L 611.460294 192.575746 
L 612.698552 193.081368 
L 615.175066 196.199252 
L 616.413323 196.761578 
L 617.651581 195.831403 
L 618.889838 193.964589 
L 620.128095 192.383322 
L 621.366352 192.167137 
L 622.60461 193.757122 
L 623.842867 196.95514 
L 625.081124 200.81148 
L 626.319382 203.540132 
L 627.557639 203.559752 
L 628.795896 200.691198 
L 631.272411 190.804171 
L 632.510668 187.594836 
L 633.748925 188.194827 
L 634.987182 193.051578 
L 637.463697 207.976065 
L 638.701954 212.677675 
L 639.940211 213.675946 
L 641.178469 211.602488 
L 642.416726 208.162049 
L 643.654983 205.088414 
L 644.893241 203.469345 
L 646.131498 203.902913 
L 647.369755 206.276682 
L 648.608012 209.208317 
L 649.84627 210.793563 
L 651.084527 209.931231 
L 652.322784 206.535493 
L 656.037556 190.765127 
L 657.275813 187.731537 
L 658.51407 186.741139 
L 659.752328 187.271834 
L 663.4671 190.055471 
L 664.705357 191.322678 
L 665.943614 193.088303 
L 668.420129 197.217728 
L 669.658386 198.285967 
L 670.896643 197.622201 
L 672.1349 195.005987 
L 673.373158 191.388987 
L 674.611415 188.255243 
L 675.849672 186.458201 
L 677.087929 186.055053 
L 678.326187 186.928009 
L 680.802701 190.404834 
L 682.040959 190.918353 
L 683.279216 190.456638 
L 684.517473 190.42852 
L 685.75573 192.060486 
L 688.232245 197.972093 
L 689.470502 199.355572 
L 690.708759 198.997933 
L 691.947017 197.317934 
L 694.423531 192.295394 
L 695.661789 190.441067 
L 698.138303 188.086625 
L 699.37656 186.925368 
L 700.614818 185.921412 
L 701.853075 185.132815 
L 703.091332 184.701811 
L 704.329589 184.956597 
L 705.567847 185.885261 
L 706.806104 186.975471 
L 708.044361 187.75466 
L 709.282618 188.13936 
L 710.520876 188.15575 
L 711.759133 187.415224 
L 712.99739 185.22045 
L 714.235648 181.502522 
L 715.473905 177.375799 
L 716.712162 174.580708 
L 717.950419 174.358696 
L 719.188677 176.573779 
L 724.141706 190.057363 
L 725.379963 192.954645 
L 731.571249 204.866798 
L 732.809507 206.11118 
L 734.047764 206.198332 
L 735.286021 204.66733 
L 736.524278 200.694879 
L 737.762536 193.761932 
L 739.000793 184.149064 
L 740.23905 172.544165 
L 742.715565 147.866829 
L 743.953822 139.568303 
L 745.192079 137.053966 
L 746.430336 139.903615 
L 748.906851 151.873188 
L 750.145108 155.58456 
L 751.383366 155.88663 
L 752.621623 153.169218 
L 755.098137 143.93445 
L 756.336395 141.739496 
L 757.574652 143.461301 
L 760.051166 153.303825 
L 761.289424 156.769533 
L 762.527681 158.537345 
L 765.004195 160.377771 
L 766.242453 162.13996 
L 767.48071 164.801888 
L 768.718967 168.000975 
L 772.433739 179.146234 
L 773.671996 181.654125 
L 777.386768 186.406203 
L 779.863283 190.32028 
L 781.10154 191.982654 
L 783.578054 194.941861 
L 784.816312 196.841152 
L 786.054569 198.502232 
L 787.292826 199.142113 
L 788.531084 198.731879 
L 792.245855 196.143911 
L 793.484113 195.757211 
L 794.72237 196.479664 
L 795.960627 198.293577 
L 799.675399 205.192064 
L 800.913656 206.739055 
L 802.151914 207.110779 
L 803.390171 206.148076 
L 804.628428 203.899632 
L 805.866685 200.678753 
L 807.104943 196.841083 
L 810.819714 184.199457 
L 812.057972 181.201619 
L 815.772743 173.980089 
L 817.011001 173.386344 
L 818.249258 175.653504 
L 819.487515 179.725192 
L 820.725773 183.414501 
L 821.96403 185.464568 
L 823.202287 185.859784 
L 824.440544 185.029823 
L 825.678802 183.680304 
L 826.917059 183.064256 
L 828.155316 184.213636 
L 831.870088 191.78377 
L 833.108345 193.211336 
L 834.346602 193.976717 
L 835.58486 194.145666 
L 836.823117 194.04243 
L 838.061374 194.051857 
L 839.299632 194.216164 
L 840.537889 194.218071 
L 843.014403 193.311424 
L 844.252661 193.324433 
L 845.490918 193.784117 
L 846.729175 193.865839 
L 847.967432 192.897984 
L 849.20569 191.094567 
L 850.443947 189.082779 
L 851.682204 187.296577 
L 852.920461 186.265255 
L 854.158719 186.569046 
L 855.396976 188.077943 
L 856.635233 189.769915 
L 857.873491 190.451704 
L 859.111748 189.733006 
L 860.350005 188.334955 
L 861.588262 187.289154 
L 862.82652 187.071571 
L 865.303034 187.911735 
L 866.541291 187.699208 
L 867.779549 187.127184 
L 869.017806 187.267571 
L 870.256063 188.426409 
L 871.49432 189.769295 
L 872.732578 190.872063 
L 873.970835 192.328559 
L 875.209092 194.690475 
L 877.685607 200.319511 
L 878.923864 201.976033 
L 880.162121 202.394419 
L 881.400379 201.896664 
L 882.638636 201.149513 
L 883.876893 200.741265 
L 885.11515 200.8341 
L 886.353408 201.117688 
L 887.591665 201.089252 
L 888.829922 200.369175 
L 890.06818 198.820697 
L 892.544694 194.202173 
L 893.782951 192.382764 
L 895.021209 191.142447 
L 896.259466 189.652255 
L 897.497723 187.634507 
L 898.73598 185.936482 
L 901.212495 184.074027 
L 902.450752 181.815835 
L 903.689009 178.170264 
L 904.927267 174.06885 
L 906.165524 170.935824 
L 907.403781 170.009539 
L 908.642039 171.343596 
L 909.880296 173.889668 
L 912.35681 179.321241 
L 913.595068 180.736906 
L 914.833325 180.344174 
L 917.309839 177.091406 
L 918.548097 176.257662 
L 919.786354 176.270417 
L 922.262868 177.158102 
L 923.501126 177.114721 
L 924.739383 176.275344 
L 925.97764 174.806553 
L 927.215898 173.531323 
L 928.454155 173.299554 
L 929.692412 174.561788 
L 932.168927 179.760365 
L 933.407184 181.281949 
L 934.645441 180.732636 
L 937.121956 176.437583 
L 938.360213 175.25499 
L 939.59847 174.630276 
L 940.836727 174.210555 
L 942.074985 174.216 
L 943.313242 174.733099 
L 944.551499 175.651032 
L 945.789757 176.856381 
L 947.028014 177.821747 
L 948.266271 177.389996 
L 949.504528 174.513014 
L 951.981043 164.712847 
L 953.2193 162.25665 
L 954.457557 162.941019 
L 955.695815 165.767068 
L 956.934072 168.982685 
L 958.172329 171.202689 
L 959.410586 172.355681 
L 960.648844 173.196176 
L 961.887101 173.792528 
L 963.125358 173.472819 
L 964.363616 171.982084 
L 965.601873 169.992824 
L 966.84013 168.843687 
L 968.078387 169.826957 
L 969.316645 173.233146 
L 971.793159 183.081876 
L 973.031416 187.233074 
L 974.269674 189.862248 
L 975.507931 190.279519 
L 976.746188 188.311692 
L 977.984446 184.672258 
L 980.46096 176.504173 
L 981.699217 173.553765 
L 982.937475 171.435152 
L 984.175732 168.855393 
L 985.413989 164.61483 
L 986.652246 159.715036 
L 987.890504 157.05409 
L 989.128761 158.205993 
L 990.367018 161.919562 
L 991.605275 166.129387 
L 992.843533 169.77028 
L 994.08179 172.671514 
L 995.320047 175.044498 
L 996.558305 177.150489 
L 997.796562 178.83683 
L 999.034819 179.438723 
L 1000.273076 178.551649 
L 1001.511334 176.812468 
L 1002.749591 175.607105 
L 1003.987848 176.046605 
L 1005.226105 178.216771 
L 1006.464363 181.148794 
L 1007.70262 183.444973 
L 1008.940877 183.966628 
L 1010.179134 182.190011 
L 1011.417392 178.570114 
L 1012.655649 174.522995 
L 1013.893906 171.421475 
L 1015.132164 169.606816 
L 1016.370421 168.611362 
L 1017.608678 168.015946 
L 1018.846935 167.85041 
L 1020.085193 168.498443 
L 1021.32345 170.260485 
L 1022.561707 172.68869 
L 1023.799964 174.514063 
L 1025.038222 174.511764 
L 1026.276479 172.31112 
L 1027.514736 168.292406 
L 1031.229508 152.933581 
L 1032.467765 150.978288 
L 1033.706023 151.823794 
L 1036.182537 157.113316 
L 1037.420794 158.937292 
L 1038.659052 158.808459 
L 1039.897309 155.993806 
L 1041.135566 150.710465 
L 1043.612081 138.190868 
L 1044.850338 133.078918 
L 1046.088595 128.939792 
L 1047.326852 126.137165 
L 1048.56511 125.04681 
L 1049.803367 124.850271 
L 1051.041624 124.227808 
L 1052.279882 123.08803 
L 1053.518139 122.597542 
L 1054.756396 123.858916 
L 1055.994653 126.943518 
L 1057.232911 130.665784 
L 1058.471168 133.046878 
L 1059.709425 132.770334 
L 1062.18594 128.403504 
L 1063.424197 127.615764 
L 1064.662454 127.827358 
L 1067.138969 128.610483 
L 1068.377226 128.779922 
L 1069.615483 127.829121 
L 1070.853741 125.314658 
L 1072.091998 122.314208 
L 1073.330255 120.21209 
L 1074.568512 119.36735 
L 1075.80677 119.333936 
L 1077.045027 119.529879 
L 1078.283284 119.912594 
L 1079.521541 120.968736 
L 1080.759799 122.626012 
L 1081.998056 124.037776 
L 1083.236313 124.61403 
L 1085.712828 124.464821 
L 1086.951085 124.961393 
L 1088.189342 125.916513 
L 1089.4276 126.668252 
L 1090.665857 126.596355 
L 1091.904114 125.407546 
L 1093.142371 123.149633 
L 1095.618886 117.061979 
L 1096.857143 113.884546 
L 1098.0954 111.107092 
L 1099.333658 109.471383 
L 1100.571915 109.483922 
L 1101.810172 110.867092 
L 1103.04843 112.612953 
L 1104.286687 113.548164 
L 1105.524944 113.146294 
L 1106.763201 112.205827 
L 1108.001459 112.525864 
L 1109.239716 115.353073 
L 1111.71623 124.18838 
L 1112.954488 125.970041 
L 1114.192745 124.484587 
L 1115.431002 119.935325 
L 1116.669259 113.338077 
L 1119.145774 99.384908 
L 1120.384031 94.627002 
L 1121.622289 92.922033 
L 1122.860546 94.571798 
L 1124.098803 98.725131 
L 1125.33706 103.584658 
L 1126.575318 107.339507 
L 1127.813575 109.268141 
L 1129.051832 109.691104 
L 1130.290089 109.309546 
L 1131.528347 108.805816 
L 1134.004861 108.104631 
L 1135.243118 107.042028 
L 1136.481376 104.717624 
L 1140.196148 94.222888 
L 1141.434405 92.490353 
L 1142.672662 93.160755 
L 1143.910919 96.18645 
L 1145.149177 99.92522 
L 1146.387434 102.298628 
L 1147.625691 102.344091 
L 1148.863948 100.61608 
L 1150.102206 98.691534 
L 1151.340463 98.01259 
L 1152.57872 98.660629 
L 1153.816977 99.663519 
L 1156.293492 101.326872 
L 1157.531749 101.990277 
L 1160.008264 102.501777 
L 1161.246521 103.464073 
L 1162.484778 105.42986 
L 1163.723036 107.916005 
L 1164.961293 110.124961 
L 1166.19955 111.090455 
L 1167.437807 109.746214 
L 1168.676065 105.776621 
L 1169.914322 100.265555 
L 1171.152579 95.450144 
L 1172.390837 93.617288 
L 1173.629094 95.366693 
L 1176.105608 102.40003 
L 1177.343866 104.370558 
L 1179.82038 106.469357 
L 1182.296895 110.090617 
L 1183.535152 110.571793 
L 1184.773409 108.615814 
L 1186.011666 103.334505 
L 1187.249924 94.576356 
L 1188.488181 84.271981 
L 1189.726438 76.989154 
L 1190.964696 77.383884 
L 1192.202953 85.668403 
L 1193.44121 96.95372 
L 1194.679467 105.764332 
L 1195.917725 109.713737 
L 1197.155982 109.415099 
L 1199.632496 104.179972 
L 1200.870754 102.2845 
L 1202.109011 101.393928 
L 1203.347268 101.606523 
L 1204.585525 102.941756 
L 1205.823783 104.728419 
L 1207.06204 105.998203 
L 1210.776812 108.092761 
L 1212.015069 107.832053 
L 1213.253326 106.024073 
L 1214.491584 102.766431 
L 1216.968098 94.383632 
L 1218.206355 91.755752 
L 1219.444613 91.218391 
L 1220.68287 91.659749 
L 1221.921127 91.391533 
L 1223.159384 89.449612 
L 1225.635899 83.113721 
L 1226.874156 81.458452 
L 1228.112414 81.2824 
L 1229.350671 81.999037 
L 1230.588928 83.264734 
L 1231.827185 85.242365 
L 1233.065443 88.183827 
L 1234.3037 91.653804 
L 1235.541957 94.449366 
L 1236.780214 95.542637 
L 1238.018472 94.827668 
L 1239.256729 92.924324 
L 1241.733243 88.506147 
L 1244.209758 85.204204 
L 1245.448015 82.884471 
L 1247.92453 77.041883 
L 1249.162787 75.196483 
L 1250.401044 74.469996 
L 1251.639302 74.485495 
L 1252.877559 74.790373 
L 1254.115816 74.690599 
L 1255.354073 73.325735 
L 1256.592331 70.402167 
L 1257.830588 66.286549 
L 1261.54536 51.475668 
L 1262.783617 50.730537 
L 1264.021874 54.367265 
L 1265.260132 61.493328 
L 1266.498389 69.885795 
L 1267.736646 77.246436 
L 1268.974903 82.40562 
L 1270.213161 84.95262 
L 1271.451418 84.540924 
L 1272.689675 81.54843 
L 1273.927932 77.593916 
L 1276.404447 70.629697 
L 1277.642704 65.664082 
L 1280.119219 52.107837 
L 1281.357476 47.979282 
L 1282.595733 48.267652 
L 1283.833991 53.11474 
L 1285.072248 61.343382 
L 1287.548762 80.505638 
L 1288.78702 87.023606 
L 1290.025277 89.549259 
L 1291.263534 88.873584 
L 1292.501791 87.002936 
L 1293.740049 85.428701 
L 1297.454821 82.294931 
L 1298.693078 80.288778 
L 1299.931335 77.26794 
L 1302.40785 70.233185 
L 1303.646107 67.662632 
L 1304.884364 66.68396 
L 1306.122621 67.599283 
L 1307.360879 69.909581 
L 1309.837393 75.792755 
L 1312.313908 82.346523 
L 1313.552165 84.328788 
L 1314.790422 84.645833 
L 1316.02868 84.641691 
L 1317.266937 85.944484 
L 1318.505194 88.320367 
L 1319.743451 90.405002 
L 1320.981709 91.603368 
L 1322.219966 91.772709 
L 1323.458223 90.563812 
L 1325.934738 86.306398 
L 1328.411252 83.5363 
L 1329.649509 81.529389 
L 1332.126024 76.395905 
L 1333.364281 74.985782 
L 1334.602539 75.614212 
L 1335.840796 77.796237 
L 1337.079053 80.397006 
L 1338.31731 82.673651 
L 1340.793825 86.03826 
L 1342.032082 88.328646 
L 1343.270339 91.304339 
L 1344.508597 93.468335 
L 1345.746854 92.944419 
L 1346.985111 89.629932 
L 1348.223368 85.594086 
L 1349.461626 83.04058 
L 1350.699883 82.289247 
L 1351.93814 82.301378 
L 1353.176398 82.515097 
L 1354.414655 82.969223 
L 1356.891169 84.121751 
L 1358.129427 561.202423 
L 1641.690341 561.202423 
L 1641.690341 561.202423 
" style="fill:none;stroke:#008000;stroke-linecap:square;stroke-width:1.5;"/>
   </g>
   <g id="patch_3">
    <path d="M 43.78125 586.86358 
L 43.78125 22.318125 
" style="fill:none;stroke:#000000;stroke-linecap:square;stroke-linejoin:miter;stroke-width:0.8;"/>
   </g>
   <g id="patch_4">
    <path d="M 1717.78125 586.86358 
L 1717.78125 22.318125 
" style="fill:none;stroke:#000000;stroke-linecap:square;stroke-linejoin:miter;stroke-width:0.8;"/>
   </g>
   <g id="patch_5">
    <path d="M 43.78125 586.86358 
L 1717.78125 586.86358 
" style="fill:none;stroke:#000000;stroke-linecap:square;stroke-linejoin:miter;stroke-width:0.8;"/>
   </g>
   <g id="patch_6">
    <path d="M 43.78125 22.318125 
L 1717.78125 22.318125 
" style="fill:none;stroke:#000000;stroke-linecap:square;stroke-linejoin:miter;stroke-width:0.8;"/>
   </g>
   <g id="text_19">
    <!-- before binarisation -->
    <g transform="translate(824.1825 16.318125)scale(0.12 -0.12)">
     <defs>
      <path d="M 3116 1747 
Q 3116 2381 2855 2742 
Q 2594 3103 2138 3103 
Q 1681 3103 1420 2742 
Q 1159 2381 1159 1747 
Q 1159 1113 1420 752 
Q 1681 391 2138 391 
Q 2594 391 2855 752 
Q 3116 1113 3116 1747 
z
M 1159 2969 
Q 1341 3281 1617 3432 
Q 1894 3584 2278 3584 
Q 2916 3584 3314 3078 
Q 3713 2572 3713 1747 
Q 3713 922 3314 415 
Q 2916 -91 2278 -91 
Q 1894 -91 1617 61 
Q 1341 213 1159 525 
L 1159 0 
L 581 0 
L 581 4863 
L 1159 4863 
L 1159 2969 
z
" id="DejaVuSans-62" transform="scale(0.015625)"/>
      <path d="M 1959 3097 
Q 1497 3097 1228 2736 
Q 959 2375 959 1747 
Q 959 1119 1226 758 
Q 1494 397 1959 397 
Q 2419 397 2687 759 
Q 2956 1122 2956 1747 
Q 2956 2369 2687 2733 
Q 2419 3097 1959 3097 
z
M 1959 3584 
Q 2709 3584 3137 3096 
Q 3566 2609 3566 1747 
Q 3566 888 3137 398 
Q 2709 -91 1959 -91 
Q 1206 -91 779 398 
Q 353 888 353 1747 
Q 353 2609 779 3096 
Q 1206 3584 1959 3584 
z
" id="DejaVuSans-6f" transform="scale(0.015625)"/>
      <path id="DejaVuSans-20" transform="scale(0.015625)"/>
      <path d="M 603 3500 
L 1178 3500 
L 1178 0 
L 603 0 
L 603 3500 
z
M 603 4863 
L 1178 4863 
L 1178 4134 
L 603 4134 
L 603 4863 
z
" id="DejaVuSans-69" transform="scale(0.015625)"/>
      <path d="M 3513 2113 
L 3513 0 
L 2938 0 
L 2938 2094 
Q 2938 2591 2744 2837 
Q 2550 3084 2163 3084 
Q 1697 3084 1428 2787 
Q 1159 2491 1159 1978 
L 1159 0 
L 581 0 
L 581 3500 
L 1159 3500 
L 1159 2956 
Q 1366 3272 1645 3428 
Q 1925 3584 2291 3584 
Q 2894 3584 3203 3211 
Q 3513 2838 3513 2113 
z
" id="DejaVuSans-6e" transform="scale(0.015625)"/>
      <path d="M 2834 3397 
L 2834 2853 
Q 2591 2978 2328 3040 
Q 2066 3103 1784 3103 
Q 1356 3103 1142 2972 
Q 928 2841 928 2578 
Q 928 2378 1081 2264 
Q 1234 2150 1697 2047 
L 1894 2003 
Q 2506 1872 2764 1633 
Q 3022 1394 3022 966 
Q 3022 478 2636 193 
Q 2250 -91 1575 -91 
Q 1294 -91 989 -36 
Q 684 19 347 128 
L 347 722 
Q 666 556 975 473 
Q 1284 391 1588 391 
Q 1994 391 2212 530 
Q 2431 669 2431 922 
Q 2431 1156 2273 1281 
Q 2116 1406 1581 1522 
L 1381 1569 
Q 847 1681 609 1914 
Q 372 2147 372 2553 
Q 372 3047 722 3315 
Q 1072 3584 1716 3584 
Q 2034 3584 2315 3537 
Q 2597 3491 2834 3397 
z
" id="DejaVuSans-73" transform="scale(0.015625)"/>
      <path d="M 1172 4494 
L 1172 3500 
L 2356 3500 
L 2356 3053 
L 1172 3053 
L 1172 1153 
Q 1172 725 1289 603 
Q 1406 481 1766 481 
L 2356 481 
L 2356 0 
L 1766 0 
Q 1100 0 847 248 
Q 594 497 594 1153 
L 594 3053 
L 172 3053 
L 172 3500 
L 594 3500 
L 594 4494 
L 1172 4494 
z
" id="DejaVuSans-74" transform="scale(0.015625)"/>
     </defs>
     <use xlink:href="#DejaVuSans-62"/>
     <use x="63.476562" xlink:href="#DejaVuSans-65"/>
     <use x="125" xlink:href="#DejaVuSans-66"/>
     <use x="160.205078" xlink:href="#DejaVuSans-6f"/>
     <use x="221.386719" xlink:href="#DejaVuSans-72"/>
     <use x="260.25" xlink:href="#DejaVuSans-65"/>
     <use x="321.773438" xlink:href="#DejaVuSans-20"/>
     <use x="353.560547" xlink:href="#DejaVuSans-62"/>
     <use x="417.037109" xlink:href="#DejaVuSans-69"/>
     <use x="444.820312" xlink:href="#DejaVuSans-6e"/>
     <use x="508.199219" xlink:href="#DejaVuSans-61"/>
     <use x="569.478516" xlink:href="#DejaVuSans-72"/>
     <use x="610.591797" xlink:href="#DejaVuSans-69"/>
     <use x="638.375" xlink:href="#DejaVuSans-73"/>
     <use x="690.474609" xlink:href="#DejaVuSans-61"/>
     <use x="751.753906" xlink:href="#DejaVuSans-74"/>
     <use x="790.962891" xlink:href="#DejaVuSans-69"/>
     <use x="818.746094" xlink:href="#DejaVuSans-6f"/>
     <use x="879.927734" xlink:href="#DejaVuSans-6e"/>
    </g>
   </g>
  </g>
  <g id="axes_2">
   <g id="patch_7">
    <path d="M 43.78125 1264.318125 
L 1717.78125 1264.318125 
L 1717.78125 699.77267 
L 43.78125 699.77267 
z
" style="fill:#ffffff;"/>
   </g>
   <g id="matplotlib.axis_3">
    <g id="xtick_8">
     <g id="line2d_18">
      <g>
       <use style="stroke:#000000;stroke-width:0.8;" x="119.872159" xlink:href="#ma24cda36eb" y="1264.318125"/>
      </g>
     </g>
     <g id="text_20">
      <!-- 0 -->
      <g transform="translate(116.690909 1278.916563)scale(0.1 -0.1)">
       <use xlink:href="#DejaVuSans-30"/>
      </g>
     </g>
    </g>
    <g id="xtick_9">
     <g id="line2d_19">
      <g>
       <use style="stroke:#000000;stroke-width:0.8;" x="367.523613" xlink:href="#ma24cda36eb" y="1264.318125"/>
      </g>
     </g>
     <g id="text_21">
      <!-- 200 -->
      <g transform="translate(357.979863 1278.916563)scale(0.1 -0.1)">
       <use xlink:href="#DejaVuSans-32"/>
       <use x="63.623047" xlink:href="#DejaVuSans-30"/>
       <use x="127.246094" xlink:href="#DejaVuSans-30"/>
      </g>
     </g>
    </g>
    <g id="xtick_10">
     <g id="line2d_20">
      <g>
       <use style="stroke:#000000;stroke-width:0.8;" x="615.175066" xlink:href="#ma24cda36eb" y="1264.318125"/>
      </g>
     </g>
     <g id="text_22">
      <!-- 400 -->
      <g transform="translate(605.631316 1278.916563)scale(0.1 -0.1)">
       <use xlink:href="#DejaVuSans-34"/>
       <use x="63.623047" xlink:href="#DejaVuSans-30"/>
       <use x="127.246094" xlink:href="#DejaVuSans-30"/>
      </g>
     </g>
    </g>
    <g id="xtick_11">
     <g id="line2d_21">
      <g>
       <use style="stroke:#000000;stroke-width:0.8;" x="862.82652" xlink:href="#ma24cda36eb" y="1264.318125"/>
      </g>
     </g>
     <g id="text_23">
      <!-- 600 -->
      <g transform="translate(853.28277 1278.916563)scale(0.1 -0.1)">
       <use xlink:href="#DejaVuSans-36"/>
       <use x="63.623047" xlink:href="#DejaVuSans-30"/>
       <use x="127.246094" xlink:href="#DejaVuSans-30"/>
      </g>
     </g>
    </g>
    <g id="xtick_12">
     <g id="line2d_22">
      <g>
       <use style="stroke:#000000;stroke-width:0.8;" x="1110.477973" xlink:href="#ma24cda36eb" y="1264.318125"/>
      </g>
     </g>
     <g id="text_24">
      <!-- 800 -->
      <g transform="translate(1100.934223 1278.916563)scale(0.1 -0.1)">
       <use xlink:href="#DejaVuSans-38"/>
       <use x="63.623047" xlink:href="#DejaVuSans-30"/>
       <use x="127.246094" xlink:href="#DejaVuSans-30"/>
      </g>
     </g>
    </g>
    <g id="xtick_13">
     <g id="line2d_23">
      <g>
       <use style="stroke:#000000;stroke-width:0.8;" x="1358.129427" xlink:href="#ma24cda36eb" y="1264.318125"/>
      </g>
     </g>
     <g id="text_25">
      <!-- 1000 -->
      <g transform="translate(1345.404427 1278.916563)scale(0.1 -0.1)">
       <use xlink:href="#DejaVuSans-31"/>
       <use x="63.623047" xlink:href="#DejaVuSans-30"/>
       <use x="127.246094" xlink:href="#DejaVuSans-30"/>
       <use x="190.869141" xlink:href="#DejaVuSans-30"/>
      </g>
     </g>
    </g>
    <g id="xtick_14">
     <g id="line2d_24">
      <g>
       <use style="stroke:#000000;stroke-width:0.8;" x="1605.78088" xlink:href="#ma24cda36eb" y="1264.318125"/>
      </g>
     </g>
     <g id="text_26">
      <!-- 1200 -->
      <g transform="translate(1593.05588 1278.916563)scale(0.1 -0.1)">
       <use xlink:href="#DejaVuSans-31"/>
       <use x="63.623047" xlink:href="#DejaVuSans-32"/>
       <use x="127.246094" xlink:href="#DejaVuSans-30"/>
       <use x="190.869141" xlink:href="#DejaVuSans-30"/>
      </g>
     </g>
    </g>
    <g id="text_27">
     <!-- frame -->
     <g transform="translate(865.954687 1292.594688)scale(0.1 -0.1)">
      <use xlink:href="#DejaVuSans-66"/>
      <use x="35.205078" xlink:href="#DejaVuSans-72"/>
      <use x="76.318359" xlink:href="#DejaVuSans-61"/>
      <use x="137.597656" xlink:href="#DejaVuSans-6d"/>
      <use x="235.009766" xlink:href="#DejaVuSans-65"/>
     </g>
    </g>
   </g>
   <g id="matplotlib.axis_4">
    <g id="ytick_10">
     <g id="line2d_25">
      <g>
       <use style="stroke:#000000;stroke-width:0.8;" x="43.78125" xlink:href="#m637a1ea97b" y="1238.656968"/>
      </g>
     </g>
     <g id="text_28">
      <!-- 0.0 -->
      <g transform="translate(20.878125 1242.456187)scale(0.1 -0.1)">
       <use xlink:href="#DejaVuSans-30"/>
       <use x="63.623047" xlink:href="#DejaVuSans-2e"/>
       <use x="95.410156" xlink:href="#DejaVuSans-30"/>
      </g>
     </g>
    </g>
    <g id="ytick_11">
     <g id="line2d_26">
      <g>
       <use style="stroke:#000000;stroke-width:0.8;" x="43.78125" xlink:href="#m637a1ea97b" y="1136.01234"/>
      </g>
     </g>
     <g id="text_29">
      <!-- 0.2 -->
      <g transform="translate(20.878125 1139.811559)scale(0.1 -0.1)">
       <use xlink:href="#DejaVuSans-30"/>
       <use x="63.623047" xlink:href="#DejaVuSans-2e"/>
       <use x="95.410156" xlink:href="#DejaVuSans-32"/>
      </g>
     </g>
    </g>
    <g id="ytick_12">
     <g id="line2d_27">
      <g>
       <use style="stroke:#000000;stroke-width:0.8;" x="43.78125" xlink:href="#m637a1ea97b" y="1033.367712"/>
      </g>
     </g>
     <g id="text_30">
      <!-- 0.4 -->
      <g transform="translate(20.878125 1037.166931)scale(0.1 -0.1)">
       <use xlink:href="#DejaVuSans-30"/>
       <use x="63.623047" xlink:href="#DejaVuSans-2e"/>
       <use x="95.410156" xlink:href="#DejaVuSans-34"/>
      </g>
     </g>
    </g>
    <g id="ytick_13">
     <g id="line2d_28">
      <g>
       <use style="stroke:#000000;stroke-width:0.8;" x="43.78125" xlink:href="#m637a1ea97b" y="930.723084"/>
      </g>
     </g>
     <g id="text_31">
      <!-- 0.6 -->
      <g transform="translate(20.878125 934.522302)scale(0.1 -0.1)">
       <use xlink:href="#DejaVuSans-30"/>
       <use x="63.623047" xlink:href="#DejaVuSans-2e"/>
       <use x="95.410156" xlink:href="#DejaVuSans-36"/>
      </g>
     </g>
    </g>
    <g id="ytick_14">
     <g id="line2d_29">
      <g>
       <use style="stroke:#000000;stroke-width:0.8;" x="43.78125" xlink:href="#m637a1ea97b" y="828.078456"/>
      </g>
     </g>
     <g id="text_32">
      <!-- 0.8 -->
      <g transform="translate(20.878125 831.877674)scale(0.1 -0.1)">
       <use xlink:href="#DejaVuSans-30"/>
       <use x="63.623047" xlink:href="#DejaVuSans-2e"/>
       <use x="95.410156" xlink:href="#DejaVuSans-38"/>
      </g>
     </g>
    </g>
    <g id="ytick_15">
     <g id="line2d_30">
      <g>
       <use style="stroke:#000000;stroke-width:0.8;" x="43.78125" xlink:href="#m637a1ea97b" y="725.433827"/>
      </g>
     </g>
     <g id="text_33">
      <!-- 1.0 -->
      <g transform="translate(20.878125 729.233046)scale(0.1 -0.1)">
       <use xlink:href="#DejaVuSans-31"/>
       <use x="63.623047" xlink:href="#DejaVuSans-2e"/>
       <use x="95.410156" xlink:href="#DejaVuSans-30"/>
      </g>
     </g>
    </g>
    <g id="text_34">
     <!-- GCaMP -->
     <g transform="translate(14.798437 999.803991)rotate(-90)scale(0.1 -0.1)">
      <use xlink:href="#DejaVuSans-47"/>
      <use x="77.490234" xlink:href="#DejaVuSans-43"/>
      <use x="147.314453" xlink:href="#DejaVuSans-61"/>
      <use x="208.59375" xlink:href="#DejaVuSans-4d"/>
      <use x="294.873047" xlink:href="#DejaVuSans-50"/>
     </g>
    </g>
   </g>
   <g id="line2d_31">
    <path clip-path="url(#p8a6995d349)" d="M 119.872159 1238.656968 
L 1187.249924 1238.656968 
L 1188.488181 725.433827 
L 1192.202953 725.433827 
L 1193.44121 1238.656968 
L 1223.159384 1238.656968 
L 1224.397642 725.433827 
L 1231.827185 725.433827 
L 1233.065443 1238.656968 
L 1242.971501 1238.656968 
L 1244.209758 725.433827 
L 1287.548762 725.433827 
L 1288.78702 1238.656968 
L 1292.501791 1238.656968 
L 1293.740049 725.433827 
L 1317.266937 725.433827 
L 1318.505194 1238.656968 
L 1324.69648 1238.656968 
L 1325.934738 725.433827 
L 1340.793825 725.433827 
L 1342.032082 1238.656968 
L 1346.985111 1238.656968 
L 1348.223368 725.433827 
L 1356.891169 725.433827 
L 1358.129427 1238.656968 
L 1641.690341 1238.656968 
L 1641.690341 1238.656968 
" style="fill:none;stroke:#008000;stroke-linecap:square;stroke-width:1.5;"/>
   </g>
   <g id="patch_8">
    <path d="M 43.78125 1264.318125 
L 43.78125 699.77267 
" style="fill:none;stroke:#000000;stroke-linecap:square;stroke-linejoin:miter;stroke-width:0.8;"/>
   </g>
   <g id="patch_9">
    <path d="M 1717.78125 1264.318125 
L 1717.78125 699.77267 
" style="fill:none;stroke:#000000;stroke-linecap:square;stroke-linejoin:miter;stroke-width:0.8;"/>
   </g>
   <g id="patch_10">
    <path d="M 43.78125 1264.318125 
L 1717.78125 1264.318125 
" style="fill:none;stroke:#000000;stroke-linecap:square;stroke-linejoin:miter;stroke-width:0.8;"/>
   </g>
   <g id="patch_11">
    <path d="M 43.78125 699.77267 
L 1717.78125 699.77267 
" style="fill:none;stroke:#000000;stroke-linecap:square;stroke-linejoin:miter;stroke-width:0.8;"/>
   </g>
   <g id="text_35">
    <!-- before binarisation -->
    <g transform="translate(824.1825 693.77267)scale(0.12 -0.12)">
     <use xlink:href="#DejaVuSans-62"/>
     <use x="63.476562" xlink:href="#DejaVuSans-65"/>
     <use x="125" xlink:href="#DejaVuSans-66"/>
     <use x="160.205078" xlink:href="#DejaVuSans-6f"/>
     <use x="221.386719" xlink:href="#DejaVuSans-72"/>
     <use x="260.25" xlink:href="#DejaVuSans-65"/>
     <use x="321.773438" xlink:href="#DejaVuSans-20"/>
     <use x="353.560547" xlink:href="#DejaVuSans-62"/>
     <use x="417.037109" xlink:href="#DejaVuSans-69"/>
     <use x="444.820312" xlink:href="#DejaVuSans-6e"/>
     <use x="508.199219" xlink:href="#DejaVuSans-61"/>
     <use x="569.478516" xlink:href="#DejaVuSans-72"/>
     <use x="610.591797" xlink:href="#DejaVuSans-69"/>
     <use x="638.375" xlink:href="#DejaVuSans-73"/>
     <use x="690.474609" xlink:href="#DejaVuSans-61"/>
     <use x="751.753906" xlink:href="#DejaVuSans-74"/>
     <use x="790.962891" xlink:href="#DejaVuSans-69"/>
     <use x="818.746094" xlink:href="#DejaVuSans-6f"/>
     <use x="879.927734" xlink:href="#DejaVuSans-6e"/>
    </g>
   </g>
  </g>
 </g>
 <defs>
  <clipPath id="pb538a10b74">
   <rect height="564.545455" width="1674" x="43.78125" y="22.318125"/>
  </clipPath>
  <clipPath id="p8a6995d349">
   <rect height="564.545455" width="1674" x="43.78125" y="699.77267"/>
  </clipPath>
 </defs>
</svg>
