<?xml version="1.0" encoding="utf-8" standalone="no"?>
<!DOCTYPE svg PUBLIC "-//W3C//DTD SVG 1.1//EN"
  "http://www.w3.org/Graphics/SVG/1.1/DTD/svg11.dtd">
<svg height="1301.874375pt" version="1.1" viewBox="0 0 1724.98125 1301.874375" width="1724.98125pt" xmlns="http://www.w3.org/2000/svg" xmlns:xlink="http://www.w3.org/1999/xlink">
 <metadata>
  <rdf:RDF xmlns:cc="http://creativecommons.org/ns#" xmlns:dc="http://purl.org/dc/elements/1.1/" xmlns:rdf="http://www.w3.org/1999/02/22-rdf-syntax-ns#">
   <cc:Work>
    <dc:type rdf:resource="http://purl.org/dc/dcmitype/StillImage"/>
    <dc:date>2022-07-24T15:54:43.187880</dc:date>
    <dc:format>image/svg+xml</dc:format>
    <dc:creator>
     <cc:Agent>
      <dc:title>Matplotlib v3.4.2, https://matplotlib.org/</dc:title>
     </cc:Agent>
    </dc:creator>
   </cc:Work>
  </rdf:RDF>
 </metadata>
 <defs>
  <style type="text/css">*{stroke-linecap:butt;stroke-linejoin:round;}</style>
 </defs>
 <g id="figure_1">
  <g id="patch_1">
   <path d="M 0 1301.874375 
L 1724.98125 1301.874375 
L 1724.98125 0 
L 0 0 
z
" style="fill:#ffffff;"/>
  </g>
  <g id="axes_1">
   <g id="patch_2">
    <path d="M 43.78125 586.86358 
L 1717.78125 586.86358 
L 1717.78125 22.318125 
L 43.78125 22.318125 
z
" style="fill:#ffffff;"/>
   </g>
   <g id="matplotlib.axis_1">
    <g id="xtick_1">
     <g id="line2d_1">
      <defs>
       <path d="M 0 0 
L 0 3.5 
" id="m79bac45cc1" style="stroke:#000000;stroke-width:0.8;"/>
      </defs>
      <g>
       <use style="stroke:#000000;stroke-width:0.8;" x="119.872159" xlink:href="#m79bac45cc1" y="586.86358"/>
      </g>
     </g>
     <g id="text_1">
      <!-- 0 -->
      <g transform="translate(116.690909 601.462017)scale(0.1 -0.1)">
       <defs>
        <path d="M 2034 4250 
Q 1547 4250 1301 3770 
Q 1056 3291 1056 2328 
Q 1056 1369 1301 889 
Q 1547 409 2034 409 
Q 2525 409 2770 889 
Q 3016 1369 3016 2328 
Q 3016 3291 2770 3770 
Q 2525 4250 2034 4250 
z
M 2034 4750 
Q 2819 4750 3233 4129 
Q 3647 3509 3647 2328 
Q 3647 1150 3233 529 
Q 2819 -91 2034 -91 
Q 1250 -91 836 529 
Q 422 1150 422 2328 
Q 422 3509 836 4129 
Q 1250 4750 2034 4750 
z
" id="DejaVuSans-30" transform="scale(0.015625)"/>
       </defs>
       <use xlink:href="#DejaVuSans-30"/>
      </g>
     </g>
    </g>
    <g id="xtick_2">
     <g id="line2d_2">
      <g>
       <use style="stroke:#000000;stroke-width:0.8;" x="367.523613" xlink:href="#m79bac45cc1" y="586.86358"/>
      </g>
     </g>
     <g id="text_2">
      <!-- 200 -->
      <g transform="translate(357.979863 601.462017)scale(0.1 -0.1)">
       <defs>
        <path d="M 1228 531 
L 3431 531 
L 3431 0 
L 469 0 
L 469 531 
Q 828 903 1448 1529 
Q 2069 2156 2228 2338 
Q 2531 2678 2651 2914 
Q 2772 3150 2772 3378 
Q 2772 3750 2511 3984 
Q 2250 4219 1831 4219 
Q 1534 4219 1204 4116 
Q 875 4013 500 3803 
L 500 4441 
Q 881 4594 1212 4672 
Q 1544 4750 1819 4750 
Q 2544 4750 2975 4387 
Q 3406 4025 3406 3419 
Q 3406 3131 3298 2873 
Q 3191 2616 2906 2266 
Q 2828 2175 2409 1742 
Q 1991 1309 1228 531 
z
" id="DejaVuSans-32" transform="scale(0.015625)"/>
       </defs>
       <use xlink:href="#DejaVuSans-32"/>
       <use x="63.623047" xlink:href="#DejaVuSans-30"/>
       <use x="127.246094" xlink:href="#DejaVuSans-30"/>
      </g>
     </g>
    </g>
    <g id="xtick_3">
     <g id="line2d_3">
      <g>
       <use style="stroke:#000000;stroke-width:0.8;" x="615.175066" xlink:href="#m79bac45cc1" y="586.86358"/>
      </g>
     </g>
     <g id="text_3">
      <!-- 400 -->
      <g transform="translate(605.631316 601.462017)scale(0.1 -0.1)">
       <defs>
        <path d="M 2419 4116 
L 825 1625 
L 2419 1625 
L 2419 4116 
z
M 2253 4666 
L 3047 4666 
L 3047 1625 
L 3713 1625 
L 3713 1100 
L 3047 1100 
L 3047 0 
L 2419 0 
L 2419 1100 
L 313 1100 
L 313 1709 
L 2253 4666 
z
" id="DejaVuSans-34" transform="scale(0.015625)"/>
       </defs>
       <use xlink:href="#DejaVuSans-34"/>
       <use x="63.623047" xlink:href="#DejaVuSans-30"/>
       <use x="127.246094" xlink:href="#DejaVuSans-30"/>
      </g>
     </g>
    </g>
    <g id="xtick_4">
     <g id="line2d_4">
      <g>
       <use style="stroke:#000000;stroke-width:0.8;" x="862.82652" xlink:href="#m79bac45cc1" y="586.86358"/>
      </g>
     </g>
     <g id="text_4">
      <!-- 600 -->
      <g transform="translate(853.28277 601.462017)scale(0.1 -0.1)">
       <defs>
        <path d="M 2113 2584 
Q 1688 2584 1439 2293 
Q 1191 2003 1191 1497 
Q 1191 994 1439 701 
Q 1688 409 2113 409 
Q 2538 409 2786 701 
Q 3034 994 3034 1497 
Q 3034 2003 2786 2293 
Q 2538 2584 2113 2584 
z
M 3366 4563 
L 3366 3988 
Q 3128 4100 2886 4159 
Q 2644 4219 2406 4219 
Q 1781 4219 1451 3797 
Q 1122 3375 1075 2522 
Q 1259 2794 1537 2939 
Q 1816 3084 2150 3084 
Q 2853 3084 3261 2657 
Q 3669 2231 3669 1497 
Q 3669 778 3244 343 
Q 2819 -91 2113 -91 
Q 1303 -91 875 529 
Q 447 1150 447 2328 
Q 447 3434 972 4092 
Q 1497 4750 2381 4750 
Q 2619 4750 2861 4703 
Q 3103 4656 3366 4563 
z
" id="DejaVuSans-36" transform="scale(0.015625)"/>
       </defs>
       <use xlink:href="#DejaVuSans-36"/>
       <use x="63.623047" xlink:href="#DejaVuSans-30"/>
       <use x="127.246094" xlink:href="#DejaVuSans-30"/>
      </g>
     </g>
    </g>
    <g id="xtick_5">
     <g id="line2d_5">
      <g>
       <use style="stroke:#000000;stroke-width:0.8;" x="1110.477973" xlink:href="#m79bac45cc1" y="586.86358"/>
      </g>
     </g>
     <g id="text_5">
      <!-- 800 -->
      <g transform="translate(1100.934223 601.462017)scale(0.1 -0.1)">
       <defs>
        <path d="M 2034 2216 
Q 1584 2216 1326 1975 
Q 1069 1734 1069 1313 
Q 1069 891 1326 650 
Q 1584 409 2034 409 
Q 2484 409 2743 651 
Q 3003 894 3003 1313 
Q 3003 1734 2745 1975 
Q 2488 2216 2034 2216 
z
M 1403 2484 
Q 997 2584 770 2862 
Q 544 3141 544 3541 
Q 544 4100 942 4425 
Q 1341 4750 2034 4750 
Q 2731 4750 3128 4425 
Q 3525 4100 3525 3541 
Q 3525 3141 3298 2862 
Q 3072 2584 2669 2484 
Q 3125 2378 3379 2068 
Q 3634 1759 3634 1313 
Q 3634 634 3220 271 
Q 2806 -91 2034 -91 
Q 1263 -91 848 271 
Q 434 634 434 1313 
Q 434 1759 690 2068 
Q 947 2378 1403 2484 
z
M 1172 3481 
Q 1172 3119 1398 2916 
Q 1625 2713 2034 2713 
Q 2441 2713 2670 2916 
Q 2900 3119 2900 3481 
Q 2900 3844 2670 4047 
Q 2441 4250 2034 4250 
Q 1625 4250 1398 4047 
Q 1172 3844 1172 3481 
z
" id="DejaVuSans-38" transform="scale(0.015625)"/>
       </defs>
       <use xlink:href="#DejaVuSans-38"/>
       <use x="63.623047" xlink:href="#DejaVuSans-30"/>
       <use x="127.246094" xlink:href="#DejaVuSans-30"/>
      </g>
     </g>
    </g>
    <g id="xtick_6">
     <g id="line2d_6">
      <g>
       <use style="stroke:#000000;stroke-width:0.8;" x="1358.129427" xlink:href="#m79bac45cc1" y="586.86358"/>
      </g>
     </g>
     <g id="text_6">
      <!-- 1000 -->
      <g transform="translate(1345.404427 601.462017)scale(0.1 -0.1)">
       <defs>
        <path d="M 794 531 
L 1825 531 
L 1825 4091 
L 703 3866 
L 703 4441 
L 1819 4666 
L 2450 4666 
L 2450 531 
L 3481 531 
L 3481 0 
L 794 0 
L 794 531 
z
" id="DejaVuSans-31" transform="scale(0.015625)"/>
       </defs>
       <use xlink:href="#DejaVuSans-31"/>
       <use x="63.623047" xlink:href="#DejaVuSans-30"/>
       <use x="127.246094" xlink:href="#DejaVuSans-30"/>
       <use x="190.869141" xlink:href="#DejaVuSans-30"/>
      </g>
     </g>
    </g>
    <g id="xtick_7">
     <g id="line2d_7">
      <g>
       <use style="stroke:#000000;stroke-width:0.8;" x="1605.78088" xlink:href="#m79bac45cc1" y="586.86358"/>
      </g>
     </g>
     <g id="text_7">
      <!-- 1200 -->
      <g transform="translate(1593.05588 601.462017)scale(0.1 -0.1)">
       <use xlink:href="#DejaVuSans-31"/>
       <use x="63.623047" xlink:href="#DejaVuSans-32"/>
       <use x="127.246094" xlink:href="#DejaVuSans-30"/>
       <use x="190.869141" xlink:href="#DejaVuSans-30"/>
      </g>
     </g>
    </g>
    <g id="text_8">
     <!-- frame -->
     <g transform="translate(865.954687 615.140142)scale(0.1 -0.1)">
      <defs>
       <path d="M 2375 4863 
L 2375 4384 
L 1825 4384 
Q 1516 4384 1395 4259 
Q 1275 4134 1275 3809 
L 1275 3500 
L 2222 3500 
L 2222 3053 
L 1275 3053 
L 1275 0 
L 697 0 
L 697 3053 
L 147 3053 
L 147 3500 
L 697 3500 
L 697 3744 
Q 697 4328 969 4595 
Q 1241 4863 1831 4863 
L 2375 4863 
z
" id="DejaVuSans-66" transform="scale(0.015625)"/>
       <path d="M 2631 2963 
Q 2534 3019 2420 3045 
Q 2306 3072 2169 3072 
Q 1681 3072 1420 2755 
Q 1159 2438 1159 1844 
L 1159 0 
L 581 0 
L 581 3500 
L 1159 3500 
L 1159 2956 
Q 1341 3275 1631 3429 
Q 1922 3584 2338 3584 
Q 2397 3584 2469 3576 
Q 2541 3569 2628 3553 
L 2631 2963 
z
" id="DejaVuSans-72" transform="scale(0.015625)"/>
       <path d="M 2194 1759 
Q 1497 1759 1228 1600 
Q 959 1441 959 1056 
Q 959 750 1161 570 
Q 1363 391 1709 391 
Q 2188 391 2477 730 
Q 2766 1069 2766 1631 
L 2766 1759 
L 2194 1759 
z
M 3341 1997 
L 3341 0 
L 2766 0 
L 2766 531 
Q 2569 213 2275 61 
Q 1981 -91 1556 -91 
Q 1019 -91 701 211 
Q 384 513 384 1019 
Q 384 1609 779 1909 
Q 1175 2209 1959 2209 
L 2766 2209 
L 2766 2266 
Q 2766 2663 2505 2880 
Q 2244 3097 1772 3097 
Q 1472 3097 1187 3025 
Q 903 2953 641 2809 
L 641 3341 
Q 956 3463 1253 3523 
Q 1550 3584 1831 3584 
Q 2591 3584 2966 3190 
Q 3341 2797 3341 1997 
z
" id="DejaVuSans-61" transform="scale(0.015625)"/>
       <path d="M 3328 2828 
Q 3544 3216 3844 3400 
Q 4144 3584 4550 3584 
Q 5097 3584 5394 3201 
Q 5691 2819 5691 2113 
L 5691 0 
L 5113 0 
L 5113 2094 
Q 5113 2597 4934 2840 
Q 4756 3084 4391 3084 
Q 3944 3084 3684 2787 
Q 3425 2491 3425 1978 
L 3425 0 
L 2847 0 
L 2847 2094 
Q 2847 2600 2669 2842 
Q 2491 3084 2119 3084 
Q 1678 3084 1418 2786 
Q 1159 2488 1159 1978 
L 1159 0 
L 581 0 
L 581 3500 
L 1159 3500 
L 1159 2956 
Q 1356 3278 1631 3431 
Q 1906 3584 2284 3584 
Q 2666 3584 2933 3390 
Q 3200 3197 3328 2828 
z
" id="DejaVuSans-6d" transform="scale(0.015625)"/>
       <path d="M 3597 1894 
L 3597 1613 
L 953 1613 
Q 991 1019 1311 708 
Q 1631 397 2203 397 
Q 2534 397 2845 478 
Q 3156 559 3463 722 
L 3463 178 
Q 3153 47 2828 -22 
Q 2503 -91 2169 -91 
Q 1331 -91 842 396 
Q 353 884 353 1716 
Q 353 2575 817 3079 
Q 1281 3584 2069 3584 
Q 2775 3584 3186 3129 
Q 3597 2675 3597 1894 
z
M 3022 2063 
Q 3016 2534 2758 2815 
Q 2500 3097 2075 3097 
Q 1594 3097 1305 2825 
Q 1016 2553 972 2059 
L 3022 2063 
z
" id="DejaVuSans-65" transform="scale(0.015625)"/>
      </defs>
      <use xlink:href="#DejaVuSans-66"/>
      <use x="35.205078" xlink:href="#DejaVuSans-72"/>
      <use x="76.318359" xlink:href="#DejaVuSans-61"/>
      <use x="137.597656" xlink:href="#DejaVuSans-6d"/>
      <use x="235.009766" xlink:href="#DejaVuSans-65"/>
     </g>
    </g>
   </g>
   <g id="matplotlib.axis_2">
    <g id="ytick_1">
     <g id="line2d_8">
      <defs>
       <path d="M 0 0 
L -3.5 0 
" id="m75c39e4384" style="stroke:#000000;stroke-width:0.8;"/>
      </defs>
      <g>
       <use style="stroke:#000000;stroke-width:0.8;" x="43.78125" xlink:href="#m75c39e4384" y="550.351565"/>
      </g>
     </g>
     <g id="text_9">
      <!-- 1 -->
      <g transform="translate(30.41875 554.150784)scale(0.1 -0.1)">
       <use xlink:href="#DejaVuSans-31"/>
      </g>
     </g>
    </g>
    <g id="ytick_2">
     <g id="line2d_9">
      <g>
       <use style="stroke:#000000;stroke-width:0.8;" x="43.78125" xlink:href="#m75c39e4384" y="434.860611"/>
      </g>
     </g>
     <g id="text_10">
      <!-- 2 -->
      <g transform="translate(30.41875 438.65983)scale(0.1 -0.1)">
       <use xlink:href="#DejaVuSans-32"/>
      </g>
     </g>
    </g>
    <g id="ytick_3">
     <g id="line2d_10">
      <g>
       <use style="stroke:#000000;stroke-width:0.8;" x="43.78125" xlink:href="#m75c39e4384" y="319.369657"/>
      </g>
     </g>
     <g id="text_11">
      <!-- 3 -->
      <g transform="translate(30.41875 323.168875)scale(0.1 -0.1)">
       <defs>
        <path d="M 2597 2516 
Q 3050 2419 3304 2112 
Q 3559 1806 3559 1356 
Q 3559 666 3084 287 
Q 2609 -91 1734 -91 
Q 1441 -91 1130 -33 
Q 819 25 488 141 
L 488 750 
Q 750 597 1062 519 
Q 1375 441 1716 441 
Q 2309 441 2620 675 
Q 2931 909 2931 1356 
Q 2931 1769 2642 2001 
Q 2353 2234 1838 2234 
L 1294 2234 
L 1294 2753 
L 1863 2753 
Q 2328 2753 2575 2939 
Q 2822 3125 2822 3475 
Q 2822 3834 2567 4026 
Q 2313 4219 1838 4219 
Q 1578 4219 1281 4162 
Q 984 4106 628 3988 
L 628 4550 
Q 988 4650 1302 4700 
Q 1616 4750 1894 4750 
Q 2613 4750 3031 4423 
Q 3450 4097 3450 3541 
Q 3450 3153 3228 2886 
Q 3006 2619 2597 2516 
z
" id="DejaVuSans-33" transform="scale(0.015625)"/>
       </defs>
       <use xlink:href="#DejaVuSans-33"/>
      </g>
     </g>
    </g>
    <g id="ytick_4">
     <g id="line2d_11">
      <g>
       <use style="stroke:#000000;stroke-width:0.8;" x="43.78125" xlink:href="#m75c39e4384" y="203.878702"/>
      </g>
     </g>
     <g id="text_12">
      <!-- 4 -->
      <g transform="translate(30.41875 207.677921)scale(0.1 -0.1)">
       <use xlink:href="#DejaVuSans-34"/>
      </g>
     </g>
    </g>
    <g id="ytick_5">
     <g id="line2d_12">
      <g>
       <use style="stroke:#000000;stroke-width:0.8;" x="43.78125" xlink:href="#m75c39e4384" y="88.387748"/>
      </g>
     </g>
     <g id="text_13">
      <!-- 5 -->
      <g transform="translate(30.41875 92.186967)scale(0.1 -0.1)">
       <defs>
        <path d="M 691 4666 
L 3169 4666 
L 3169 4134 
L 1269 4134 
L 1269 2991 
Q 1406 3038 1543 3061 
Q 1681 3084 1819 3084 
Q 2600 3084 3056 2656 
Q 3513 2228 3513 1497 
Q 3513 744 3044 326 
Q 2575 -91 1722 -91 
Q 1428 -91 1123 -41 
Q 819 9 494 109 
L 494 744 
Q 775 591 1075 516 
Q 1375 441 1709 441 
Q 2250 441 2565 725 
Q 2881 1009 2881 1497 
Q 2881 1984 2565 2268 
Q 2250 2553 1709 2553 
Q 1456 2553 1204 2497 
Q 953 2441 691 2322 
L 691 4666 
z
" id="DejaVuSans-35" transform="scale(0.015625)"/>
       </defs>
       <use xlink:href="#DejaVuSans-35"/>
      </g>
     </g>
    </g>
    <g id="text_14">
     <!-- GCaMP -->
     <g transform="translate(24.339062 322.349446)rotate(-90)scale(0.1 -0.1)">
      <defs>
       <path d="M 3809 666 
L 3809 1919 
L 2778 1919 
L 2778 2438 
L 4434 2438 
L 4434 434 
Q 4069 175 3628 42 
Q 3188 -91 2688 -91 
Q 1594 -91 976 548 
Q 359 1188 359 2328 
Q 359 3472 976 4111 
Q 1594 4750 2688 4750 
Q 3144 4750 3555 4637 
Q 3966 4525 4313 4306 
L 4313 3634 
Q 3963 3931 3569 4081 
Q 3175 4231 2741 4231 
Q 1884 4231 1454 3753 
Q 1025 3275 1025 2328 
Q 1025 1384 1454 906 
Q 1884 428 2741 428 
Q 3075 428 3337 486 
Q 3600 544 3809 666 
z
" id="DejaVuSans-47" transform="scale(0.015625)"/>
       <path d="M 4122 4306 
L 4122 3641 
Q 3803 3938 3442 4084 
Q 3081 4231 2675 4231 
Q 1875 4231 1450 3742 
Q 1025 3253 1025 2328 
Q 1025 1406 1450 917 
Q 1875 428 2675 428 
Q 3081 428 3442 575 
Q 3803 722 4122 1019 
L 4122 359 
Q 3791 134 3420 21 
Q 3050 -91 2638 -91 
Q 1578 -91 968 557 
Q 359 1206 359 2328 
Q 359 3453 968 4101 
Q 1578 4750 2638 4750 
Q 3056 4750 3426 4639 
Q 3797 4528 4122 4306 
z
" id="DejaVuSans-43" transform="scale(0.015625)"/>
       <path d="M 628 4666 
L 1569 4666 
L 2759 1491 
L 3956 4666 
L 4897 4666 
L 4897 0 
L 4281 0 
L 4281 4097 
L 3078 897 
L 2444 897 
L 1241 4097 
L 1241 0 
L 628 0 
L 628 4666 
z
" id="DejaVuSans-4d" transform="scale(0.015625)"/>
       <path d="M 1259 4147 
L 1259 2394 
L 2053 2394 
Q 2494 2394 2734 2622 
Q 2975 2850 2975 3272 
Q 2975 3691 2734 3919 
Q 2494 4147 2053 4147 
L 1259 4147 
z
M 628 4666 
L 2053 4666 
Q 2838 4666 3239 4311 
Q 3641 3956 3641 3272 
Q 3641 2581 3239 2228 
Q 2838 1875 2053 1875 
L 1259 1875 
L 1259 0 
L 628 0 
L 628 4666 
z
" id="DejaVuSans-50" transform="scale(0.015625)"/>
      </defs>
      <use xlink:href="#DejaVuSans-47"/>
      <use x="77.490234" xlink:href="#DejaVuSans-43"/>
      <use x="147.314453" xlink:href="#DejaVuSans-61"/>
      <use x="208.59375" xlink:href="#DejaVuSans-4d"/>
      <use x="294.873047" xlink:href="#DejaVuSans-50"/>
     </g>
    </g>
   </g>
   <g id="line2d_13">
    <path clip-path="url(#p699ea00347)" d="M 119.872159 537.317722 
L 121.110416 540.269824 
L 122.348674 542.552055 
L 123.586931 543.914943 
L 124.825188 544.547565 
L 127.301703 544.961328 
L 128.53996 545.026684 
L 129.778217 544.842464 
L 132.254732 544.158609 
L 134.731246 544.23645 
L 135.969504 543.947409 
L 137.207761 543.031355 
L 139.684275 540.443312 
L 140.922533 540.065035 
L 142.16079 540.910554 
L 143.399047 542.838913 
L 145.875562 547.676951 
L 147.113819 549.862504 
L 148.352076 551.802356 
L 149.590334 553.267659 
L 150.828591 553.972065 
L 152.066848 553.933638 
L 155.78162 552.490305 
L 157.019877 552.549973 
L 158.258134 552.941704 
L 159.496392 553.16474 
L 160.734649 552.708067 
L 161.972906 551.433808 
L 164.449421 548.110221 
L 165.687678 546.970434 
L 166.925935 546.248523 
L 168.164193 545.85276 
L 169.40245 545.808919 
L 170.640707 546.314311 
L 171.878964 547.609453 
L 175.593736 553.706723 
L 176.831993 554.973929 
L 178.070251 555.651119 
L 180.546765 556.255841 
L 181.785022 556.768316 
L 183.02328 557.451741 
L 184.261537 557.852804 
L 185.499794 557.511574 
L 186.738052 556.579765 
L 187.976309 555.886696 
L 189.214566 556.18269 
L 190.452823 557.434418 
L 191.691081 559.068203 
L 192.929338 560.500222 
L 194.167595 561.202423 
L 195.405852 560.748631 
L 196.64411 558.967183 
L 197.882367 555.905169 
L 200.358881 547.654724 
L 201.597139 544.685437 
L 202.835396 544.125006 
L 204.073653 545.976412 
L 206.550168 552.20164 
L 207.788425 554.244548 
L 209.026682 555.096587 
L 210.26494 555.121379 
L 211.503197 554.701679 
L 213.979711 553.594015 
L 216.456226 552.541218 
L 218.93274 550.972589 
L 220.170998 550.532474 
L 221.409255 550.769917 
L 223.88577 552.252162 
L 225.124027 552.458749 
L 226.362284 551.875698 
L 227.600541 550.611127 
L 228.838799 549.113093 
L 230.077056 548.036133 
L 231.315313 547.877127 
L 232.55357 548.53226 
L 233.791828 549.423843 
L 235.030085 550.145651 
L 236.268342 550.690421 
L 237.5066 551.094939 
L 238.744857 551.242367 
L 239.983114 551.05422 
L 242.459629 550.087609 
L 244.936143 548.911411 
L 246.1744 548.50586 
L 247.412658 548.501257 
L 248.650915 548.737211 
L 249.889172 548.636624 
L 251.127429 547.681289 
L 252.365687 545.76091 
L 254.842201 540.924764 
L 256.080459 539.800375 
L 257.318716 540.279106 
L 258.556973 541.818173 
L 262.271745 547.042607 
L 263.510002 548.363363 
L 264.748259 548.90642 
L 265.986517 548.527363 
L 268.463031 546.517285 
L 269.701288 546.03423 
L 270.939546 546.239811 
L 272.177803 546.68524 
L 273.41606 546.773547 
L 274.654318 546.324507 
L 275.892575 545.474435 
L 277.130832 544.211097 
L 279.607347 540.492551 
L 280.845604 539.251927 
L 282.083861 539.26849 
L 283.322118 540.372929 
L 285.798633 543.455091 
L 287.03689 544.717219 
L 288.275147 545.726255 
L 289.513405 546.356414 
L 293.228177 547.070439 
L 294.466434 547.2152 
L 295.704691 546.88093 
L 298.181206 545.452512 
L 299.419463 545.254762 
L 301.895977 545.40404 
L 303.134235 545.173913 
L 305.610749 544.538154 
L 306.849006 544.53476 
L 308.087264 544.92219 
L 309.325521 545.720306 
L 310.563778 546.907825 
L 313.040293 549.895581 
L 314.27855 550.740906 
L 315.516807 550.657729 
L 316.755065 549.865198 
L 319.231579 547.757584 
L 320.469836 547.024808 
L 322.946351 545.850698 
L 324.184608 545.111248 
L 325.422866 544.567732 
L 326.661123 544.552688 
L 327.89938 545.197189 
L 329.137637 546.174819 
L 330.375895 546.770827 
L 331.614152 546.439187 
L 332.852409 545.169782 
L 334.090666 543.401795 
L 335.328924 541.872406 
L 336.567181 541.301656 
L 337.805438 541.695957 
L 339.043695 542.248166 
L 340.281953 542.328477 
L 343.996725 541.652 
L 345.234982 540.847252 
L 347.711496 538.171247 
L 348.949754 537.646742 
L 350.188011 538.077954 
L 351.426268 539.143177 
L 353.902783 542.079008 
L 355.14104 543.191887 
L 356.379297 543.32776 
L 357.617554 542.363355 
L 360.094069 539.06038 
L 361.332326 537.956103 
L 362.570584 537.456354 
L 363.808841 537.420487 
L 365.047098 537.829504 
L 366.285355 538.666381 
L 368.76187 540.967702 
L 371.238384 543.378075 
L 372.476642 544.118282 
L 373.714899 544.169038 
L 374.953156 543.350183 
L 376.191413 541.55542 
L 378.667928 536.260966 
L 379.906185 534.291466 
L 381.144443 533.50501 
L 382.3827 533.664198 
L 384.859214 534.808778 
L 387.335729 536.33999 
L 388.573986 536.635593 
L 389.812243 536.015552 
L 391.050501 534.49051 
L 393.527015 530.557897 
L 394.765272 529.438358 
L 396.00353 529.418681 
L 397.241787 530.338598 
L 400.956559 534.775895 
L 402.194816 535.642054 
L 403.433073 535.885169 
L 404.671331 535.727693 
L 405.909588 535.257002 
L 407.147845 534.176049 
L 408.386102 532.267626 
L 410.862617 527.66404 
L 412.100874 526.349279 
L 413.339132 526.074445 
L 414.577389 526.596873 
L 417.053903 528.354338 
L 418.292161 528.940724 
L 419.530418 529.352753 
L 420.768675 529.528953 
L 422.006932 529.16826 
L 423.24519 528.402238 
L 424.483447 527.967056 
L 425.721704 528.471856 
L 426.959961 529.847052 
L 428.198219 531.425948 
L 429.436476 532.467253 
L 430.674733 532.751125 
L 431.912991 532.541426 
L 433.151248 531.99936 
L 434.389505 531.000373 
L 436.86602 528.328622 
L 438.104277 527.775706 
L 439.342534 528.118499 
L 440.580791 529.152059 
L 441.819049 530.607141 
L 444.295563 534.246659 
L 445.53382 536.1266 
L 446.772078 537.589715 
L 448.010335 538.213385 
L 449.248592 537.934716 
L 450.48685 537.110862 
L 451.725107 536.043845 
L 454.201621 533.499701 
L 455.439879 532.483859 
L 456.678136 531.949324 
L 457.916393 531.756238 
L 460.392908 531.734619 
L 461.631165 531.79299 
L 462.869422 531.730948 
L 464.107679 531.461259 
L 465.345937 531.061832 
L 466.584194 530.842934 
L 467.822451 531.152265 
L 471.537223 533.523712 
L 472.77548 533.412067 
L 474.013738 532.163288 
L 475.251995 529.524676 
L 477.728509 522.45967 
L 478.966767 520.464384 
L 480.205024 520.389189 
L 481.443281 521.729131 
L 482.681538 523.467387 
L 483.919796 524.670323 
L 485.158053 524.925553 
L 486.39631 524.408778 
L 487.634568 523.6069 
L 488.872825 522.964727 
L 491.349339 522.15507 
L 493.825854 521.122708 
L 495.064111 521.150434 
L 497.540626 522.309259 
L 498.778883 522.425838 
L 500.01714 521.946659 
L 502.493655 520.388127 
L 503.731912 519.755594 
L 506.208427 518.65293 
L 507.446684 517.423693 
L 508.684941 515.006198 
L 509.923198 511.213894 
L 512.399713 501.955603 
L 513.63797 498.382561 
L 514.876227 495.766274 
L 516.114485 493.848767 
L 517.352742 492.864381 
L 518.590999 493.321139 
L 519.829257 495.172344 
L 522.305771 500.087867 
L 523.544028 502.951475 
L 524.782286 506.654135 
L 527.2588 514.676858 
L 528.497057 517.468946 
L 529.735315 519.215276 
L 530.973572 520.358418 
L 532.211829 521.316972 
L 533.450086 522.123291 
L 534.688344 522.556176 
L 535.926601 522.429742 
L 537.164858 521.668084 
L 538.403116 520.244674 
L 540.87963 516.196372 
L 542.117887 514.704817 
L 543.356145 514.295848 
L 544.594402 514.949652 
L 545.832659 516.043586 
L 547.070916 516.765305 
L 548.309174 516.768809 
L 550.785688 515.916573 
L 552.023945 516.000636 
L 559.453489 519.409174 
L 560.691746 519.356708 
L 561.930004 518.517687 
L 563.168261 516.949835 
L 565.644775 513.023751 
L 566.883033 511.824056 
L 568.12129 511.562045 
L 570.597804 511.966951 
L 571.836062 511.815259 
L 575.550834 510.646044 
L 576.789091 510.762688 
L 578.027348 511.657271 
L 580.503863 515.019592 
L 581.74212 515.689962 
L 582.980377 514.643008 
L 585.456892 510.090695 
L 586.695149 508.929145 
L 587.933406 508.791725 
L 590.409921 509.109443 
L 591.648178 509.013632 
L 592.886435 508.628985 
L 594.124693 507.77868 
L 597.839464 504.194378 
L 599.077722 503.718722 
L 600.315979 504.195867 
L 601.554236 505.675749 
L 602.792493 507.590681 
L 604.030751 508.989399 
L 605.269008 508.979166 
L 606.507265 507.226701 
L 608.98378 501.161171 
L 610.222037 499.004679 
L 611.460294 498.518673 
L 612.698552 499.864593 
L 615.175066 504.654159 
L 616.413323 505.765815 
L 617.651581 505.2346 
L 618.889838 503.301591 
L 621.366352 498.211309 
L 622.60461 496.303488 
L 623.842867 495.283848 
L 625.081124 495.521883 
L 626.319382 497.070129 
L 627.557639 499.250122 
L 628.795896 501.004564 
L 630.034153 501.365936 
L 631.272411 499.630767 
L 632.510668 495.668332 
L 634.987182 484.671558 
L 636.22544 480.002436 
L 637.463697 476.660638 
L 638.701954 474.838743 
L 639.940211 474.567891 
L 642.416726 476.231237 
L 643.654983 476.0103 
L 644.893241 473.816598 
L 646.131498 469.304494 
L 647.369755 462.56645 
L 648.608012 453.919894 
L 651.084527 434.17378 
L 654.799299 407.670502 
L 656.037556 393.59168 
L 657.275813 374.411749 
L 660.990585 306.373851 
L 662.228842 287.448944 
L 663.4671 271.481627 
L 664.705357 258.57078 
L 665.943614 248.805103 
L 668.420129 233.733064 
L 669.658386 225.141917 
L 672.1349 206.191802 
L 673.373158 198.581757 
L 678.326187 173.930615 
L 679.564444 168.657186 
L 680.802701 164.132782 
L 682.040959 161.590005 
L 683.279216 162.153056 
L 684.517473 165.54549 
L 685.75573 169.968649 
L 686.993988 172.891727 
L 688.232245 172.372189 
L 689.470502 167.685701 
L 690.708759 159.286793 
L 693.185274 139.049192 
L 695.661789 121.953677 
L 696.900046 114.977778 
L 698.138303 110.333147 
L 699.37656 108.023741 
L 700.614818 107.08074 
L 701.853075 106.89872 
L 703.091332 107.573464 
L 704.329589 108.836946 
L 705.567847 109.416309 
L 706.806104 107.888018 
L 708.044361 103.619911 
L 709.282618 96.845635 
L 711.759133 80.038427 
L 712.99739 73.706894 
L 714.235648 70.628261 
L 715.473905 70.373586 
L 716.712162 71.491822 
L 719.188677 74.085621 
L 720.426934 75.839148 
L 721.665191 79.222548 
L 722.903448 85.193769 
L 724.141706 92.825458 
L 725.379963 99.420107 
L 726.61822 103.003114 
L 729.094735 105.617591 
L 730.332992 108.921482 
L 731.571249 114.646729 
L 732.809507 122.597041 
L 734.047764 132.973824 
L 735.286021 146.052314 
L 736.524278 160.552247 
L 737.762536 173.589606 
L 739.000793 182.67101 
L 740.23905 187.251393 
L 741.477307 189.117246 
L 742.715565 191.304114 
L 743.953822 195.496229 
L 745.192079 200.545014 
L 746.430336 204.370296 
L 747.668594 206.916759 
L 748.906851 209.891569 
L 750.145108 214.195244 
L 752.621623 223.788156 
L 753.85988 227.101438 
L 756.336395 231.179355 
L 757.574652 234.433156 
L 758.812909 239.376023 
L 763.765938 263.254803 
L 766.242453 275.874487 
L 767.48071 280.902012 
L 768.718967 284.664873 
L 769.957225 286.908332 
L 771.195482 287.608295 
L 772.433739 287.553795 
L 773.671996 287.696806 
L 776.148511 288.851555 
L 778.625025 289.905998 
L 779.863283 290.111607 
L 782.339797 289.707406 
L 783.578054 290.08164 
L 784.816312 291.551598 
L 786.054569 294.404242 
L 788.531084 301.948556 
L 789.769341 305.007717 
L 791.007598 307.322642 
L 792.245855 309.363157 
L 793.484113 311.843946 
L 794.72237 314.998342 
L 795.960627 318.625941 
L 797.198884 322.807874 
L 798.437142 327.864031 
L 802.151914 345.795192 
L 803.390171 350.267401 
L 804.628428 353.069032 
L 805.866685 354.142829 
L 807.104943 354.262471 
L 808.3432 354.674554 
L 809.581457 356.755965 
L 810.819714 361.590801 
L 812.057972 369.072091 
L 814.534486 386.153098 
L 815.772743 392.601541 
L 817.011001 396.265807 
L 818.249258 397.113014 
L 820.725773 395.31846 
L 821.96403 395.540135 
L 823.202287 397.481823 
L 824.440544 400.932999 
L 826.917059 408.640205 
L 828.155316 411.604488 
L 829.393573 413.899675 
L 830.631831 415.487798 
L 831.870088 416.684689 
L 833.108345 418.18906 
L 836.823117 424.127489 
L 838.061374 425.437469 
L 839.299632 426.130505 
L 840.537889 426.255914 
L 841.776146 425.707858 
L 843.014403 424.360344 
L 844.252661 422.773889 
L 845.490918 422.082706 
L 846.729175 423.059672 
L 847.967432 425.43632 
L 849.20569 428.127611 
L 850.443947 430.228771 
L 851.682204 431.665732 
L 852.920461 432.894706 
L 854.158719 434.364364 
L 856.635233 438.244496 
L 857.873491 439.315408 
L 859.111748 438.338087 
L 860.350005 435.045475 
L 862.82652 426.008286 
L 864.064777 423.500096 
L 865.303034 423.364787 
L 866.541291 424.847412 
L 867.779549 426.800269 
L 869.017806 428.499852 
L 872.732578 432.492717 
L 875.209092 435.535308 
L 876.44735 436.620179 
L 877.685607 437.265852 
L 880.162121 437.669122 
L 881.400379 438.1835 
L 882.638636 439.416413 
L 885.11515 442.971364 
L 886.353408 444.036095 
L 887.591665 444.172865 
L 888.829922 443.474688 
L 890.06818 442.534126 
L 891.306437 442.246939 
L 892.544694 443.046619 
L 895.021209 445.957957 
L 896.259466 446.69038 
L 897.497723 446.09324 
L 898.73598 443.836494 
L 901.212495 437.372545 
L 902.450752 436.159044 
L 903.689009 437.555181 
L 906.165524 443.686211 
L 907.403781 445.594166 
L 908.642039 446.739723 
L 909.880296 448.239861 
L 912.35681 452.961515 
L 913.595068 454.324608 
L 914.833325 454.411571 
L 916.071582 453.863302 
L 917.309839 453.081944 
L 919.786354 451.194219 
L 921.024611 450.580945 
L 922.262868 450.19889 
L 924.739383 449.773501 
L 925.97764 449.657274 
L 927.215898 449.856123 
L 928.454155 450.869606 
L 929.692412 452.848173 
L 932.168927 457.972516 
L 933.407184 459.488362 
L 934.645441 459.198277 
L 935.883698 457.452902 
L 938.360213 453.3071 
L 940.836727 449.462139 
L 942.074985 448.032278 
L 943.313242 447.596754 
L 944.551499 448.236761 
L 945.789757 449.249605 
L 947.028014 449.494284 
L 948.266271 448.103442 
L 949.504528 444.846607 
L 953.2193 431.322924 
L 954.457557 428.422488 
L 955.695815 426.639371 
L 956.934072 425.934444 
L 958.172329 426.439949 
L 959.410586 428.221873 
L 960.648844 431.008733 
L 964.363616 441.498317 
L 965.601873 443.567811 
L 966.84013 443.66284 
L 968.078387 442.067895 
L 970.554902 437.173282 
L 971.793159 435.440726 
L 973.031416 435.26107 
L 974.269674 437.055411 
L 975.507931 440.423515 
L 976.746188 444.409581 
L 977.984446 447.86559 
L 979.222703 449.683588 
L 980.46096 449.357142 
L 981.699217 447.330716 
L 982.937475 444.747386 
L 984.175732 442.925009 
L 985.413989 442.676782 
L 986.652246 443.902811 
L 987.890504 445.785035 
L 989.128761 447.43122 
L 991.605275 449.852979 
L 992.843533 451.622727 
L 994.08179 453.939602 
L 996.558305 458.871317 
L 997.796562 460.685158 
L 999.034819 461.902215 
L 1000.273076 462.341724 
L 1001.511334 461.555522 
L 1002.749591 459.548353 
L 1003.987848 457.155559 
L 1005.226105 455.727953 
L 1006.464363 456.194603 
L 1007.70262 457.958775 
L 1008.940877 459.277118 
L 1010.179134 458.93821 
L 1011.417392 457.049828 
L 1012.655649 454.236712 
L 1013.893906 450.759673 
L 1017.608678 439.248662 
L 1018.846935 435.685303 
L 1020.085193 431.722635 
L 1021.32345 427.224342 
L 1022.561707 422.164371 
L 1023.799964 416.071506 
L 1025.038222 407.92604 
L 1026.276479 396.464119 
L 1027.514736 380.923291 
L 1029.991251 341.209219 
L 1031.229508 321.430504 
L 1032.467765 304.195847 
L 1036.182537 258.047768 
L 1039.897309 203.904105 
L 1041.135566 184.621234 
L 1042.373823 163.007799 
L 1046.088595 88.258783 
L 1047.326852 68.611123 
L 1048.56511 55.367667 
L 1049.803367 48.810301 
L 1051.041624 47.979282 
L 1052.279882 50.831265 
L 1053.518139 55.486715 
L 1057.232911 71.627166 
L 1058.471168 78.095243 
L 1059.709425 85.22539 
L 1060.947682 91.228596 
L 1062.18594 94.40374 
L 1063.424197 94.509945 
L 1064.662454 92.130012 
L 1067.138969 84.044555 
L 1068.377226 82.448907 
L 1069.615483 85.10749 
L 1070.853741 92.439701 
L 1072.091998 103.22662 
L 1074.568512 126.658602 
L 1075.80677 136.753677 
L 1077.045027 144.714833 
L 1078.283284 149.890416 
L 1079.521541 153.031159 
L 1080.759799 157.039626 
L 1081.998056 165.817046 
L 1083.236313 181.673075 
L 1084.474571 203.844989 
L 1086.951085 253.221694 
L 1088.189342 272.317045 
L 1089.4276 283.922341 
L 1090.665857 287.802169 
L 1091.904114 286.48458 
L 1093.142371 283.756845 
L 1094.380629 282.097 
L 1095.618886 282.040076 
L 1096.857143 283.242615 
L 1098.0954 285.518215 
L 1099.333658 289.21788 
L 1100.571915 294.681763 
L 1103.04843 307.780447 
L 1104.286687 312.36941 
L 1105.524944 314.803862 
L 1106.763201 315.709805 
L 1108.001459 315.769451 
L 1109.239716 315.313845 
L 1110.477973 314.222569 
L 1111.71623 311.763723 
L 1112.954488 306.898859 
L 1114.192745 299.491888 
L 1116.669259 282.783931 
L 1119.145774 267.189869 
L 1120.384031 258.027486 
L 1121.622289 247.494983 
L 1124.098803 223.735498 
L 1129.051832 174.115439 
L 1130.290089 164.707455 
L 1131.528347 157.829526 
L 1132.766604 153.262062 
L 1134.004861 150.351716 
L 1135.243118 148.518742 
L 1136.481376 146.960288 
L 1138.95789 143.096979 
L 1140.196148 142.882829 
L 1142.672662 145.893099 
L 1143.910919 145.833334 
L 1145.149177 144.380222 
L 1146.387434 142.448635 
L 1147.625691 140.250196 
L 1150.102206 135.041184 
L 1151.340463 134.071663 
L 1152.57872 135.040465 
L 1155.055235 139.662011 
L 1156.293492 140.947304 
L 1157.531749 140.655032 
L 1158.770007 139.017195 
L 1160.008264 136.331504 
L 1162.484778 129.987855 
L 1163.723036 128.051812 
L 1164.961293 128.089002 
L 1166.19955 130.816638 
L 1168.676065 141.190637 
L 1169.914322 144.880044 
L 1171.152579 146.610937 
L 1172.390837 148.000266 
L 1176.105608 154.500347 
L 1178.582123 157.647857 
L 1179.82038 158.811842 
L 1182.296895 160.013627 
L 1183.535152 160.802705 
L 1186.011666 161.784048 
L 1187.249924 163.635143 
L 1189.726438 171.815761 
L 1190.964696 174.030375 
L 1193.44121 174.647815 
L 1194.679467 176.24978 
L 1195.917725 179.23176 
L 1198.394239 186.521449 
L 1199.632496 187.96807 
L 1200.870754 186.024043 
L 1202.109011 180.533653 
L 1203.347268 172.317794 
L 1204.585525 162.857929 
L 1205.823783 154.26667 
L 1207.06204 148.377557 
L 1208.300297 145.32157 
L 1209.538555 144.020846 
L 1210.776812 144.213208 
L 1212.015069 147.034943 
L 1213.253326 153.673348 
L 1214.491584 163.914226 
L 1218.206355 199.639414 
L 1219.444613 210.059644 
L 1220.68287 218.984439 
L 1221.921127 225.453934 
L 1223.159384 228.851927 
L 1224.397642 229.525679 
L 1225.635899 228.994994 
L 1226.874156 228.789916 
L 1228.112414 229.103879 
L 1229.350671 229.707173 
L 1230.588928 231.599178 
L 1231.827185 236.510911 
L 1233.065443 245.344938 
L 1236.780214 282.214917 
L 1238.018472 291.01902 
L 1239.256729 297.699483 
L 1240.494986 303.005583 
L 1241.733243 307.018306 
L 1242.971501 309.371055 
L 1244.209758 309.679706 
L 1245.448015 307.686246 
L 1246.686273 303.111132 
L 1247.92453 296.135575 
L 1249.162787 288.211895 
L 1250.401044 281.295138 
L 1251.639302 276.092105 
L 1252.877559 272.117606 
L 1254.115816 268.992047 
L 1255.354073 266.705475 
L 1256.592331 265.268458 
L 1257.830588 264.399535 
L 1259.068845 263.280697 
L 1260.307103 261.202873 
L 1262.783617 255.457256 
L 1264.021874 253.14436 
L 1265.260132 251.688157 
L 1266.498389 251.209369 
L 1267.736646 251.737519 
L 1268.974903 253.237633 
L 1270.213161 255.900167 
L 1271.451418 259.738831 
L 1273.927932 268.100905 
L 1275.16619 271.372379 
L 1276.404447 273.835237 
L 1278.880962 278.122005 
L 1280.119219 280.808967 
L 1282.595733 288.151929 
L 1283.833991 290.938592 
L 1285.072248 292.193489 
L 1286.310505 293.11058 
L 1287.548762 295.759406 
L 1288.78702 301.582083 
L 1291.263534 318.244151 
L 1292.501791 324.486223 
L 1294.978306 333.47981 
L 1298.693078 349.487994 
L 1299.931335 353.496681 
L 1301.169592 355.31809 
L 1302.40785 354.763156 
L 1303.646107 353.017073 
L 1304.884364 351.733809 
L 1306.122621 351.699365 
L 1307.360879 352.829176 
L 1308.599136 355.017217 
L 1309.837393 358.40656 
L 1312.313908 367.291287 
L 1313.552165 370.723086 
L 1314.790422 372.53682 
L 1317.266937 373.850118 
L 1318.505194 375.053683 
L 1319.743451 376.46484 
L 1320.981709 377.108267 
L 1322.219966 376.399369 
L 1323.458223 374.796014 
L 1324.69648 373.513585 
L 1325.934738 373.79888 
L 1327.172995 375.999379 
L 1328.411252 378.970148 
L 1329.649509 381.195422 
L 1330.887767 382.394028 
L 1333.364281 384.136837 
L 1334.602539 384.792762 
L 1335.840796 384.710638 
L 1337.079053 383.985554 
L 1338.31731 383.430504 
L 1339.555568 383.625864 
L 1340.793825 384.388732 
L 1342.032082 385.473071 
L 1343.270339 387.051819 
L 1345.746854 391.534418 
L 1346.985111 393.096608 
L 1348.223368 393.18507 
L 1349.461626 391.522676 
L 1350.699883 388.322688 
L 1353.176398 380.627665 
L 1354.414655 378.368738 
L 1355.652912 377.799035 
L 1356.891169 378.025873 
L 1358.129427 378.003198 
L 1359.367684 377.736124 
L 1360.605941 378.106244 
L 1361.844198 379.518086 
L 1363.082456 381.218081 
L 1364.320713 382.381473 
L 1368.035485 384.700289 
L 1369.273742 384.517484 
L 1370.511999 383.309471 
L 1371.750257 381.629064 
L 1372.988514 380.44274 
L 1374.226771 380.629197 
L 1375.465028 382.549374 
L 1376.703286 385.979197 
L 1377.941543 390.477718 
L 1379.1798 395.489012 
L 1380.418057 399.879876 
L 1381.656315 401.834049 
L 1382.894572 399.742658 
L 1384.132829 393.426296 
L 1385.371087 384.20355 
L 1389.085858 352.010341 
L 1390.324116 344.206356 
L 1391.562373 340.962154 
L 1392.80063 342.321171 
L 1394.038887 346.902071 
L 1397.753659 365.711901 
L 1400.230174 376.737756 
L 1401.468431 381.656851 
L 1402.706688 385.044689 
L 1403.944946 386.117451 
L 1405.183203 384.798634 
L 1407.659717 379.463476 
L 1408.897975 377.675697 
L 1410.136232 376.765833 
L 1411.374489 376.89999 
L 1412.612746 378.224184 
L 1413.851004 380.544629 
L 1415.089261 383.776055 
L 1416.327518 388.220131 
L 1418.804033 399.647497 
L 1420.04229 403.846741 
L 1421.280547 405.527648 
L 1422.518805 404.695239 
L 1423.757062 401.778321 
L 1426.233576 393.509774 
L 1427.471834 390.643204 
L 1428.710091 389.595743 
L 1429.948348 390.431137 
L 1431.186605 393.095064 
L 1432.424863 397.346954 
L 1434.901377 407.009165 
L 1436.139634 410.459926 
L 1437.377892 412.334303 
L 1438.616149 412.672012 
L 1439.854406 411.984397 
L 1441.092664 410.979083 
L 1442.330921 410.223135 
L 1443.569178 410.128815 
L 1444.807435 410.839207 
L 1446.045693 411.927972 
L 1447.28395 412.643355 
L 1448.522207 412.603619 
L 1450.998722 411.619268 
L 1452.236979 411.484309 
L 1453.475236 411.685195 
L 1454.713494 412.250362 
L 1455.951751 413.050102 
L 1457.190008 413.672295 
L 1458.428265 413.925378 
L 1460.90478 414.189183 
L 1462.143037 414.120595 
L 1463.381294 413.488496 
L 1464.619552 412.024848 
L 1472.049095 399.01933 
L 1473.287353 397.852943 
L 1474.52561 397.170633 
L 1477.002124 395.360632 
L 1478.240382 394.911814 
L 1479.478639 394.815611 
L 1480.716896 394.136233 
L 1481.955153 391.627067 
L 1483.193411 385.854396 
L 1484.431668 375.46117 
L 1485.669925 360.14359 
L 1488.14644 324.12718 
L 1489.384697 310.752015 
L 1490.622954 302.864835 
L 1491.861212 299.426594 
L 1494.337726 296.864456 
L 1496.814241 293.130237 
L 1498.052498 290.869207 
L 1499.290755 287.309271 
L 1500.529012 282.195795 
L 1501.76727 276.587972 
L 1503.005527 271.977912 
L 1504.243784 268.857156 
L 1505.482041 266.758156 
L 1506.720299 265.745154 
L 1507.958556 266.725389 
L 1509.196813 269.798337 
L 1510.435071 273.376557 
L 1511.673328 275.664782 
L 1512.911585 276.158178 
L 1514.149842 275.080955 
L 1515.3881 272.54092 
L 1516.626357 269.117741 
L 1517.864614 266.118969 
L 1519.102871 264.790782 
L 1520.341129 265.850608 
L 1521.579386 268.987234 
L 1522.817643 272.514737 
L 1524.0559 274.391122 
L 1525.294158 273.620645 
L 1526.532415 270.987848 
L 1527.770672 268.837817 
L 1529.00893 269.269741 
L 1530.247187 272.192205 
L 1531.485444 275.559913 
L 1532.723701 277.660469 
L 1533.961959 278.915547 
L 1535.200216 280.720899 
L 1537.67673 286.059884 
L 1538.914988 288.852772 
L 1540.153245 292.074171 
L 1541.391502 296.352186 
L 1542.62976 302.361081 
L 1543.868017 310.084793 
L 1546.344531 326.821605 
L 1547.582789 333.641193 
L 1548.821046 337.847759 
L 1550.059303 338.741651 
L 1551.29756 336.974912 
L 1552.535818 334.405217 
L 1553.774075 332.791856 
L 1555.012332 332.699172 
L 1556.250589 333.900121 
L 1557.488847 336.014072 
L 1559.965361 340.867307 
L 1561.203619 344.106748 
L 1563.680133 352.414232 
L 1564.91839 355.450245 
L 1567.394905 360.084945 
L 1568.633162 362.093772 
L 1569.871419 362.715147 
L 1571.109677 361.418726 
L 1572.347934 359.310951 
L 1573.586191 358.368884 
L 1574.824448 359.53543 
L 1576.062706 362.08393 
L 1577.300963 365.084359 
L 1578.53922 368.863372 
L 1579.777478 374.212653 
L 1582.253992 386.603315 
L 1583.492249 390.64631 
L 1584.730507 392.479678 
L 1585.968764 392.720648 
L 1588.445278 391.667788 
L 1589.683536 391.788208 
L 1590.921793 392.964747 
L 1592.16005 395.105445 
L 1593.398307 398.052233 
L 1595.874822 405.823556 
L 1597.113079 408.889947 
L 1598.351337 409.782186 
L 1599.589594 408.344329 
L 1600.827851 405.805405 
L 1602.066108 404.141723 
L 1603.304366 404.414058 
L 1605.78088 407.154018 
L 1607.019137 407.889203 
L 1608.257395 408.252496 
L 1609.495652 408.237352 
L 1610.733909 407.706763 
L 1611.972166 406.960259 
L 1613.210424 406.589799 
L 1614.448681 406.793486 
L 1615.686938 407.531339 
L 1616.925196 409.037661 
L 1618.163453 411.413828 
L 1619.40171 414.158025 
L 1620.639967 416.527701 
L 1621.878225 417.992581 
L 1623.116482 418.515813 
L 1624.354739 418.880776 
L 1625.592996 420.264912 
L 1626.831254 423.003166 
L 1628.069511 426.061111 
L 1629.307768 427.61761 
L 1630.546026 426.068322 
L 1631.784283 421.390033 
L 1633.02254 415.949284 
L 1634.260797 413.152828 
L 1635.499055 414.84101 
L 1636.737312 420.361983 
L 1637.975569 428.145758 
L 1639.213826 437.587703 
L 1640.452084 449.122427 
L 1641.690341 462.495737 
L 1641.690341 462.495737 
" style="fill:none;stroke:#008000;stroke-linecap:square;stroke-width:1.5;"/>
   </g>
   <g id="patch_3">
    <path d="M 43.78125 586.86358 
L 43.78125 22.318125 
" style="fill:none;stroke:#000000;stroke-linecap:square;stroke-linejoin:miter;stroke-width:0.8;"/>
   </g>
   <g id="patch_4">
    <path d="M 1717.78125 586.86358 
L 1717.78125 22.318125 
" style="fill:none;stroke:#000000;stroke-linecap:square;stroke-linejoin:miter;stroke-width:0.8;"/>
   </g>
   <g id="patch_5">
    <path d="M 43.78125 586.86358 
L 1717.78125 586.86358 
" style="fill:none;stroke:#000000;stroke-linecap:square;stroke-linejoin:miter;stroke-width:0.8;"/>
   </g>
   <g id="patch_6">
    <path d="M 43.78125 22.318125 
L 1717.78125 22.318125 
" style="fill:none;stroke:#000000;stroke-linecap:square;stroke-linejoin:miter;stroke-width:0.8;"/>
   </g>
   <g id="text_15">
    <!-- before binarisation -->
    <g transform="translate(824.1825 16.318125)scale(0.12 -0.12)">
     <defs>
      <path d="M 3116 1747 
Q 3116 2381 2855 2742 
Q 2594 3103 2138 3103 
Q 1681 3103 1420 2742 
Q 1159 2381 1159 1747 
Q 1159 1113 1420 752 
Q 1681 391 2138 391 
Q 2594 391 2855 752 
Q 3116 1113 3116 1747 
z
M 1159 2969 
Q 1341 3281 1617 3432 
Q 1894 3584 2278 3584 
Q 2916 3584 3314 3078 
Q 3713 2572 3713 1747 
Q 3713 922 3314 415 
Q 2916 -91 2278 -91 
Q 1894 -91 1617 61 
Q 1341 213 1159 525 
L 1159 0 
L 581 0 
L 581 4863 
L 1159 4863 
L 1159 2969 
z
" id="DejaVuSans-62" transform="scale(0.015625)"/>
      <path d="M 1959 3097 
Q 1497 3097 1228 2736 
Q 959 2375 959 1747 
Q 959 1119 1226 758 
Q 1494 397 1959 397 
Q 2419 397 2687 759 
Q 2956 1122 2956 1747 
Q 2956 2369 2687 2733 
Q 2419 3097 1959 3097 
z
M 1959 3584 
Q 2709 3584 3137 3096 
Q 3566 2609 3566 1747 
Q 3566 888 3137 398 
Q 2709 -91 1959 -91 
Q 1206 -91 779 398 
Q 353 888 353 1747 
Q 353 2609 779 3096 
Q 1206 3584 1959 3584 
z
" id="DejaVuSans-6f" transform="scale(0.015625)"/>
      <path id="DejaVuSans-20" transform="scale(0.015625)"/>
      <path d="M 603 3500 
L 1178 3500 
L 1178 0 
L 603 0 
L 603 3500 
z
M 603 4863 
L 1178 4863 
L 1178 4134 
L 603 4134 
L 603 4863 
z
" id="DejaVuSans-69" transform="scale(0.015625)"/>
      <path d="M 3513 2113 
L 3513 0 
L 2938 0 
L 2938 2094 
Q 2938 2591 2744 2837 
Q 2550 3084 2163 3084 
Q 1697 3084 1428 2787 
Q 1159 2491 1159 1978 
L 1159 0 
L 581 0 
L 581 3500 
L 1159 3500 
L 1159 2956 
Q 1366 3272 1645 3428 
Q 1925 3584 2291 3584 
Q 2894 3584 3203 3211 
Q 3513 2838 3513 2113 
z
" id="DejaVuSans-6e" transform="scale(0.015625)"/>
      <path d="M 2834 3397 
L 2834 2853 
Q 2591 2978 2328 3040 
Q 2066 3103 1784 3103 
Q 1356 3103 1142 2972 
Q 928 2841 928 2578 
Q 928 2378 1081 2264 
Q 1234 2150 1697 2047 
L 1894 2003 
Q 2506 1872 2764 1633 
Q 3022 1394 3022 966 
Q 3022 478 2636 193 
Q 2250 -91 1575 -91 
Q 1294 -91 989 -36 
Q 684 19 347 128 
L 347 722 
Q 666 556 975 473 
Q 1284 391 1588 391 
Q 1994 391 2212 530 
Q 2431 669 2431 922 
Q 2431 1156 2273 1281 
Q 2116 1406 1581 1522 
L 1381 1569 
Q 847 1681 609 1914 
Q 372 2147 372 2553 
Q 372 3047 722 3315 
Q 1072 3584 1716 3584 
Q 2034 3584 2315 3537 
Q 2597 3491 2834 3397 
z
" id="DejaVuSans-73" transform="scale(0.015625)"/>
      <path d="M 1172 4494 
L 1172 3500 
L 2356 3500 
L 2356 3053 
L 1172 3053 
L 1172 1153 
Q 1172 725 1289 603 
Q 1406 481 1766 481 
L 2356 481 
L 2356 0 
L 1766 0 
Q 1100 0 847 248 
Q 594 497 594 1153 
L 594 3053 
L 172 3053 
L 172 3500 
L 594 3500 
L 594 4494 
L 1172 4494 
z
" id="DejaVuSans-74" transform="scale(0.015625)"/>
     </defs>
     <use xlink:href="#DejaVuSans-62"/>
     <use x="63.476562" xlink:href="#DejaVuSans-65"/>
     <use x="125" xlink:href="#DejaVuSans-66"/>
     <use x="160.205078" xlink:href="#DejaVuSans-6f"/>
     <use x="221.386719" xlink:href="#DejaVuSans-72"/>
     <use x="260.25" xlink:href="#DejaVuSans-65"/>
     <use x="321.773438" xlink:href="#DejaVuSans-20"/>
     <use x="353.560547" xlink:href="#DejaVuSans-62"/>
     <use x="417.037109" xlink:href="#DejaVuSans-69"/>
     <use x="444.820312" xlink:href="#DejaVuSans-6e"/>
     <use x="508.199219" xlink:href="#DejaVuSans-61"/>
     <use x="569.478516" xlink:href="#DejaVuSans-72"/>
     <use x="610.591797" xlink:href="#DejaVuSans-69"/>
     <use x="638.375" xlink:href="#DejaVuSans-73"/>
     <use x="690.474609" xlink:href="#DejaVuSans-61"/>
     <use x="751.753906" xlink:href="#DejaVuSans-74"/>
     <use x="790.962891" xlink:href="#DejaVuSans-69"/>
     <use x="818.746094" xlink:href="#DejaVuSans-6f"/>
     <use x="879.927734" xlink:href="#DejaVuSans-6e"/>
    </g>
   </g>
  </g>
  <g id="axes_2">
   <g id="patch_7">
    <path d="M 43.78125 1264.318125 
L 1717.78125 1264.318125 
L 1717.78125 699.77267 
L 43.78125 699.77267 
z
" style="fill:#ffffff;"/>
   </g>
   <g id="matplotlib.axis_3">
    <g id="xtick_8">
     <g id="line2d_14">
      <g>
       <use style="stroke:#000000;stroke-width:0.8;" x="119.872159" xlink:href="#m79bac45cc1" y="1264.318125"/>
      </g>
     </g>
     <g id="text_16">
      <!-- 0 -->
      <g transform="translate(116.690909 1278.916563)scale(0.1 -0.1)">
       <use xlink:href="#DejaVuSans-30"/>
      </g>
     </g>
    </g>
    <g id="xtick_9">
     <g id="line2d_15">
      <g>
       <use style="stroke:#000000;stroke-width:0.8;" x="367.523613" xlink:href="#m79bac45cc1" y="1264.318125"/>
      </g>
     </g>
     <g id="text_17">
      <!-- 200 -->
      <g transform="translate(357.979863 1278.916563)scale(0.1 -0.1)">
       <use xlink:href="#DejaVuSans-32"/>
       <use x="63.623047" xlink:href="#DejaVuSans-30"/>
       <use x="127.246094" xlink:href="#DejaVuSans-30"/>
      </g>
     </g>
    </g>
    <g id="xtick_10">
     <g id="line2d_16">
      <g>
       <use style="stroke:#000000;stroke-width:0.8;" x="615.175066" xlink:href="#m79bac45cc1" y="1264.318125"/>
      </g>
     </g>
     <g id="text_18">
      <!-- 400 -->
      <g transform="translate(605.631316 1278.916563)scale(0.1 -0.1)">
       <use xlink:href="#DejaVuSans-34"/>
       <use x="63.623047" xlink:href="#DejaVuSans-30"/>
       <use x="127.246094" xlink:href="#DejaVuSans-30"/>
      </g>
     </g>
    </g>
    <g id="xtick_11">
     <g id="line2d_17">
      <g>
       <use style="stroke:#000000;stroke-width:0.8;" x="862.82652" xlink:href="#m79bac45cc1" y="1264.318125"/>
      </g>
     </g>
     <g id="text_19">
      <!-- 600 -->
      <g transform="translate(853.28277 1278.916563)scale(0.1 -0.1)">
       <use xlink:href="#DejaVuSans-36"/>
       <use x="63.623047" xlink:href="#DejaVuSans-30"/>
       <use x="127.246094" xlink:href="#DejaVuSans-30"/>
      </g>
     </g>
    </g>
    <g id="xtick_12">
     <g id="line2d_18">
      <g>
       <use style="stroke:#000000;stroke-width:0.8;" x="1110.477973" xlink:href="#m79bac45cc1" y="1264.318125"/>
      </g>
     </g>
     <g id="text_20">
      <!-- 800 -->
      <g transform="translate(1100.934223 1278.916563)scale(0.1 -0.1)">
       <use xlink:href="#DejaVuSans-38"/>
       <use x="63.623047" xlink:href="#DejaVuSans-30"/>
       <use x="127.246094" xlink:href="#DejaVuSans-30"/>
      </g>
     </g>
    </g>
    <g id="xtick_13">
     <g id="line2d_19">
      <g>
       <use style="stroke:#000000;stroke-width:0.8;" x="1358.129427" xlink:href="#m79bac45cc1" y="1264.318125"/>
      </g>
     </g>
     <g id="text_21">
      <!-- 1000 -->
      <g transform="translate(1345.404427 1278.916563)scale(0.1 -0.1)">
       <use xlink:href="#DejaVuSans-31"/>
       <use x="63.623047" xlink:href="#DejaVuSans-30"/>
       <use x="127.246094" xlink:href="#DejaVuSans-30"/>
       <use x="190.869141" xlink:href="#DejaVuSans-30"/>
      </g>
     </g>
    </g>
    <g id="xtick_14">
     <g id="line2d_20">
      <g>
       <use style="stroke:#000000;stroke-width:0.8;" x="1605.78088" xlink:href="#m79bac45cc1" y="1264.318125"/>
      </g>
     </g>
     <g id="text_22">
      <!-- 1200 -->
      <g transform="translate(1593.05588 1278.916563)scale(0.1 -0.1)">
       <use xlink:href="#DejaVuSans-31"/>
       <use x="63.623047" xlink:href="#DejaVuSans-32"/>
       <use x="127.246094" xlink:href="#DejaVuSans-30"/>
       <use x="190.869141" xlink:href="#DejaVuSans-30"/>
      </g>
     </g>
    </g>
    <g id="text_23">
     <!-- frame -->
     <g transform="translate(865.954687 1292.594688)scale(0.1 -0.1)">
      <use xlink:href="#DejaVuSans-66"/>
      <use x="35.205078" xlink:href="#DejaVuSans-72"/>
      <use x="76.318359" xlink:href="#DejaVuSans-61"/>
      <use x="137.597656" xlink:href="#DejaVuSans-6d"/>
      <use x="235.009766" xlink:href="#DejaVuSans-65"/>
     </g>
    </g>
   </g>
   <g id="matplotlib.axis_4">
    <g id="ytick_6">
     <g id="line2d_21">
      <g>
       <use style="stroke:#000000;stroke-width:0.8;" x="43.78125" xlink:href="#m75c39e4384" y="1238.656968"/>
      </g>
     </g>
     <g id="text_24">
      <!-- 0.0 -->
      <g transform="translate(20.878125 1242.456187)scale(0.1 -0.1)">
       <defs>
        <path d="M 684 794 
L 1344 794 
L 1344 0 
L 684 0 
L 684 794 
z
" id="DejaVuSans-2e" transform="scale(0.015625)"/>
       </defs>
       <use xlink:href="#DejaVuSans-30"/>
       <use x="63.623047" xlink:href="#DejaVuSans-2e"/>
       <use x="95.410156" xlink:href="#DejaVuSans-30"/>
      </g>
     </g>
    </g>
    <g id="ytick_7">
     <g id="line2d_22">
      <g>
       <use style="stroke:#000000;stroke-width:0.8;" x="43.78125" xlink:href="#m75c39e4384" y="1136.01234"/>
      </g>
     </g>
     <g id="text_25">
      <!-- 0.2 -->
      <g transform="translate(20.878125 1139.811559)scale(0.1 -0.1)">
       <use xlink:href="#DejaVuSans-30"/>
       <use x="63.623047" xlink:href="#DejaVuSans-2e"/>
       <use x="95.410156" xlink:href="#DejaVuSans-32"/>
      </g>
     </g>
    </g>
    <g id="ytick_8">
     <g id="line2d_23">
      <g>
       <use style="stroke:#000000;stroke-width:0.8;" x="43.78125" xlink:href="#m75c39e4384" y="1033.367712"/>
      </g>
     </g>
     <g id="text_26">
      <!-- 0.4 -->
      <g transform="translate(20.878125 1037.166931)scale(0.1 -0.1)">
       <use xlink:href="#DejaVuSans-30"/>
       <use x="63.623047" xlink:href="#DejaVuSans-2e"/>
       <use x="95.410156" xlink:href="#DejaVuSans-34"/>
      </g>
     </g>
    </g>
    <g id="ytick_9">
     <g id="line2d_24">
      <g>
       <use style="stroke:#000000;stroke-width:0.8;" x="43.78125" xlink:href="#m75c39e4384" y="930.723084"/>
      </g>
     </g>
     <g id="text_27">
      <!-- 0.6 -->
      <g transform="translate(20.878125 934.522302)scale(0.1 -0.1)">
       <use xlink:href="#DejaVuSans-30"/>
       <use x="63.623047" xlink:href="#DejaVuSans-2e"/>
       <use x="95.410156" xlink:href="#DejaVuSans-36"/>
      </g>
     </g>
    </g>
    <g id="ytick_10">
     <g id="line2d_25">
      <g>
       <use style="stroke:#000000;stroke-width:0.8;" x="43.78125" xlink:href="#m75c39e4384" y="828.078456"/>
      </g>
     </g>
     <g id="text_28">
      <!-- 0.8 -->
      <g transform="translate(20.878125 831.877674)scale(0.1 -0.1)">
       <use xlink:href="#DejaVuSans-30"/>
       <use x="63.623047" xlink:href="#DejaVuSans-2e"/>
       <use x="95.410156" xlink:href="#DejaVuSans-38"/>
      </g>
     </g>
    </g>
    <g id="ytick_11">
     <g id="line2d_26">
      <g>
       <use style="stroke:#000000;stroke-width:0.8;" x="43.78125" xlink:href="#m75c39e4384" y="725.433827"/>
      </g>
     </g>
     <g id="text_29">
      <!-- 1.0 -->
      <g transform="translate(20.878125 729.233046)scale(0.1 -0.1)">
       <use xlink:href="#DejaVuSans-31"/>
       <use x="63.623047" xlink:href="#DejaVuSans-2e"/>
       <use x="95.410156" xlink:href="#DejaVuSans-30"/>
      </g>
     </g>
    </g>
    <g id="text_30">
     <!-- GCaMP -->
     <g transform="translate(14.798437 999.803991)rotate(-90)scale(0.1 -0.1)">
      <use xlink:href="#DejaVuSans-47"/>
      <use x="77.490234" xlink:href="#DejaVuSans-43"/>
      <use x="147.314453" xlink:href="#DejaVuSans-61"/>
      <use x="208.59375" xlink:href="#DejaVuSans-4d"/>
      <use x="294.873047" xlink:href="#DejaVuSans-50"/>
     </g>
    </g>
   </g>
   <g id="line2d_27">
    <path clip-path="url(#p365efbbfa3)" d="M 119.872159 1238.656968 
L 664.705357 1238.656968 
L 665.943614 725.433827 
L 761.289424 725.433827 
L 762.527681 1238.656968 
L 1036.182537 1238.656968 
L 1037.420794 725.433827 
L 1085.712828 725.433827 
L 1086.951085 1238.656968 
L 1120.384031 1238.656968 
L 1121.622289 725.433827 
L 1233.065443 725.433827 
L 1234.3037 1238.656968 
L 1264.021874 1238.656968 
L 1265.260132 725.433827 
L 1267.736646 725.433827 
L 1268.974903 1238.656968 
L 1641.690341 1238.656968 
L 1641.690341 1238.656968 
" style="fill:none;stroke:#008000;stroke-linecap:square;stroke-width:1.5;"/>
   </g>
   <g id="patch_8">
    <path d="M 43.78125 1264.318125 
L 43.78125 699.77267 
" style="fill:none;stroke:#000000;stroke-linecap:square;stroke-linejoin:miter;stroke-width:0.8;"/>
   </g>
   <g id="patch_9">
    <path d="M 1717.78125 1264.318125 
L 1717.78125 699.77267 
" style="fill:none;stroke:#000000;stroke-linecap:square;stroke-linejoin:miter;stroke-width:0.8;"/>
   </g>
   <g id="patch_10">
    <path d="M 43.78125 1264.318125 
L 1717.78125 1264.318125 
" style="fill:none;stroke:#000000;stroke-linecap:square;stroke-linejoin:miter;stroke-width:0.8;"/>
   </g>
   <g id="patch_11">
    <path d="M 43.78125 699.77267 
L 1717.78125 699.77267 
" style="fill:none;stroke:#000000;stroke-linecap:square;stroke-linejoin:miter;stroke-width:0.8;"/>
   </g>
   <g id="text_31">
    <!-- before binarisation -->
    <g transform="translate(824.1825 693.77267)scale(0.12 -0.12)">
     <use xlink:href="#DejaVuSans-62"/>
     <use x="63.476562" xlink:href="#DejaVuSans-65"/>
     <use x="125" xlink:href="#DejaVuSans-66"/>
     <use x="160.205078" xlink:href="#DejaVuSans-6f"/>
     <use x="221.386719" xlink:href="#DejaVuSans-72"/>
     <use x="260.25" xlink:href="#DejaVuSans-65"/>
     <use x="321.773438" xlink:href="#DejaVuSans-20"/>
     <use x="353.560547" xlink:href="#DejaVuSans-62"/>
     <use x="417.037109" xlink:href="#DejaVuSans-69"/>
     <use x="444.820312" xlink:href="#DejaVuSans-6e"/>
     <use x="508.199219" xlink:href="#DejaVuSans-61"/>
     <use x="569.478516" xlink:href="#DejaVuSans-72"/>
     <use x="610.591797" xlink:href="#DejaVuSans-69"/>
     <use x="638.375" xlink:href="#DejaVuSans-73"/>
     <use x="690.474609" xlink:href="#DejaVuSans-61"/>
     <use x="751.753906" xlink:href="#DejaVuSans-74"/>
     <use x="790.962891" xlink:href="#DejaVuSans-69"/>
     <use x="818.746094" xlink:href="#DejaVuSans-6f"/>
     <use x="879.927734" xlink:href="#DejaVuSans-6e"/>
    </g>
   </g>
  </g>
 </g>
 <defs>
  <clipPath id="p699ea00347">
   <rect height="564.545455" width="1674" x="43.78125" y="22.318125"/>
  </clipPath>
  <clipPath id="p365efbbfa3">
   <rect height="564.545455" width="1674" x="43.78125" y="699.77267"/>
  </clipPath>
 </defs>
</svg>
