<?xml version="1.0" encoding="utf-8" standalone="no"?>
<!DOCTYPE svg PUBLIC "-//W3C//DTD SVG 1.1//EN"
  "http://www.w3.org/Graphics/SVG/1.1/DTD/svg11.dtd">
<svg height="1301.874375pt" version="1.1" viewBox="0 0 1724.98125 1301.874375" width="1724.98125pt" xmlns="http://www.w3.org/2000/svg" xmlns:xlink="http://www.w3.org/1999/xlink">
 <metadata>
  <rdf:RDF xmlns:cc="http://creativecommons.org/ns#" xmlns:dc="http://purl.org/dc/elements/1.1/" xmlns:rdf="http://www.w3.org/1999/02/22-rdf-syntax-ns#">
   <cc:Work>
    <dc:type rdf:resource="http://purl.org/dc/dcmitype/StillImage"/>
    <dc:date>2022-07-24T15:54:43.367430</dc:date>
    <dc:format>image/svg+xml</dc:format>
    <dc:creator>
     <cc:Agent>
      <dc:title>Matplotlib v3.4.2, https://matplotlib.org/</dc:title>
     </cc:Agent>
    </dc:creator>
   </cc:Work>
  </rdf:RDF>
 </metadata>
 <defs>
  <style type="text/css">*{stroke-linecap:butt;stroke-linejoin:round;}</style>
 </defs>
 <g id="figure_1">
  <g id="patch_1">
   <path d="M 0 1301.874375 
L 1724.98125 1301.874375 
L 1724.98125 0 
L 0 0 
z
" style="fill:#ffffff;"/>
  </g>
  <g id="axes_1">
   <g id="patch_2">
    <path d="M 43.78125 586.86358 
L 1717.78125 586.86358 
L 1717.78125 22.318125 
L 43.78125 22.318125 
z
" style="fill:#ffffff;"/>
   </g>
   <g id="matplotlib.axis_1">
    <g id="xtick_1">
     <g id="line2d_1">
      <defs>
       <path d="M 0 0 
L 0 3.5 
" id="m8b3dcf0c54" style="stroke:#000000;stroke-width:0.8;"/>
      </defs>
      <g>
       <use style="stroke:#000000;stroke-width:0.8;" x="119.872159" xlink:href="#m8b3dcf0c54" y="586.86358"/>
      </g>
     </g>
     <g id="text_1">
      <!-- 0 -->
      <g transform="translate(116.690909 601.462017)scale(0.1 -0.1)">
       <defs>
        <path d="M 2034 4250 
Q 1547 4250 1301 3770 
Q 1056 3291 1056 2328 
Q 1056 1369 1301 889 
Q 1547 409 2034 409 
Q 2525 409 2770 889 
Q 3016 1369 3016 2328 
Q 3016 3291 2770 3770 
Q 2525 4250 2034 4250 
z
M 2034 4750 
Q 2819 4750 3233 4129 
Q 3647 3509 3647 2328 
Q 3647 1150 3233 529 
Q 2819 -91 2034 -91 
Q 1250 -91 836 529 
Q 422 1150 422 2328 
Q 422 3509 836 4129 
Q 1250 4750 2034 4750 
z
" id="DejaVuSans-30" transform="scale(0.015625)"/>
       </defs>
       <use xlink:href="#DejaVuSans-30"/>
      </g>
     </g>
    </g>
    <g id="xtick_2">
     <g id="line2d_2">
      <g>
       <use style="stroke:#000000;stroke-width:0.8;" x="367.523613" xlink:href="#m8b3dcf0c54" y="586.86358"/>
      </g>
     </g>
     <g id="text_2">
      <!-- 200 -->
      <g transform="translate(357.979863 601.462017)scale(0.1 -0.1)">
       <defs>
        <path d="M 1228 531 
L 3431 531 
L 3431 0 
L 469 0 
L 469 531 
Q 828 903 1448 1529 
Q 2069 2156 2228 2338 
Q 2531 2678 2651 2914 
Q 2772 3150 2772 3378 
Q 2772 3750 2511 3984 
Q 2250 4219 1831 4219 
Q 1534 4219 1204 4116 
Q 875 4013 500 3803 
L 500 4441 
Q 881 4594 1212 4672 
Q 1544 4750 1819 4750 
Q 2544 4750 2975 4387 
Q 3406 4025 3406 3419 
Q 3406 3131 3298 2873 
Q 3191 2616 2906 2266 
Q 2828 2175 2409 1742 
Q 1991 1309 1228 531 
z
" id="DejaVuSans-32" transform="scale(0.015625)"/>
       </defs>
       <use xlink:href="#DejaVuSans-32"/>
       <use x="63.623047" xlink:href="#DejaVuSans-30"/>
       <use x="127.246094" xlink:href="#DejaVuSans-30"/>
      </g>
     </g>
    </g>
    <g id="xtick_3">
     <g id="line2d_3">
      <g>
       <use style="stroke:#000000;stroke-width:0.8;" x="615.175066" xlink:href="#m8b3dcf0c54" y="586.86358"/>
      </g>
     </g>
     <g id="text_3">
      <!-- 400 -->
      <g transform="translate(605.631316 601.462017)scale(0.1 -0.1)">
       <defs>
        <path d="M 2419 4116 
L 825 1625 
L 2419 1625 
L 2419 4116 
z
M 2253 4666 
L 3047 4666 
L 3047 1625 
L 3713 1625 
L 3713 1100 
L 3047 1100 
L 3047 0 
L 2419 0 
L 2419 1100 
L 313 1100 
L 313 1709 
L 2253 4666 
z
" id="DejaVuSans-34" transform="scale(0.015625)"/>
       </defs>
       <use xlink:href="#DejaVuSans-34"/>
       <use x="63.623047" xlink:href="#DejaVuSans-30"/>
       <use x="127.246094" xlink:href="#DejaVuSans-30"/>
      </g>
     </g>
    </g>
    <g id="xtick_4">
     <g id="line2d_4">
      <g>
       <use style="stroke:#000000;stroke-width:0.8;" x="862.82652" xlink:href="#m8b3dcf0c54" y="586.86358"/>
      </g>
     </g>
     <g id="text_4">
      <!-- 600 -->
      <g transform="translate(853.28277 601.462017)scale(0.1 -0.1)">
       <defs>
        <path d="M 2113 2584 
Q 1688 2584 1439 2293 
Q 1191 2003 1191 1497 
Q 1191 994 1439 701 
Q 1688 409 2113 409 
Q 2538 409 2786 701 
Q 3034 994 3034 1497 
Q 3034 2003 2786 2293 
Q 2538 2584 2113 2584 
z
M 3366 4563 
L 3366 3988 
Q 3128 4100 2886 4159 
Q 2644 4219 2406 4219 
Q 1781 4219 1451 3797 
Q 1122 3375 1075 2522 
Q 1259 2794 1537 2939 
Q 1816 3084 2150 3084 
Q 2853 3084 3261 2657 
Q 3669 2231 3669 1497 
Q 3669 778 3244 343 
Q 2819 -91 2113 -91 
Q 1303 -91 875 529 
Q 447 1150 447 2328 
Q 447 3434 972 4092 
Q 1497 4750 2381 4750 
Q 2619 4750 2861 4703 
Q 3103 4656 3366 4563 
z
" id="DejaVuSans-36" transform="scale(0.015625)"/>
       </defs>
       <use xlink:href="#DejaVuSans-36"/>
       <use x="63.623047" xlink:href="#DejaVuSans-30"/>
       <use x="127.246094" xlink:href="#DejaVuSans-30"/>
      </g>
     </g>
    </g>
    <g id="xtick_5">
     <g id="line2d_5">
      <g>
       <use style="stroke:#000000;stroke-width:0.8;" x="1110.477973" xlink:href="#m8b3dcf0c54" y="586.86358"/>
      </g>
     </g>
     <g id="text_5">
      <!-- 800 -->
      <g transform="translate(1100.934223 601.462017)scale(0.1 -0.1)">
       <defs>
        <path d="M 2034 2216 
Q 1584 2216 1326 1975 
Q 1069 1734 1069 1313 
Q 1069 891 1326 650 
Q 1584 409 2034 409 
Q 2484 409 2743 651 
Q 3003 894 3003 1313 
Q 3003 1734 2745 1975 
Q 2488 2216 2034 2216 
z
M 1403 2484 
Q 997 2584 770 2862 
Q 544 3141 544 3541 
Q 544 4100 942 4425 
Q 1341 4750 2034 4750 
Q 2731 4750 3128 4425 
Q 3525 4100 3525 3541 
Q 3525 3141 3298 2862 
Q 3072 2584 2669 2484 
Q 3125 2378 3379 2068 
Q 3634 1759 3634 1313 
Q 3634 634 3220 271 
Q 2806 -91 2034 -91 
Q 1263 -91 848 271 
Q 434 634 434 1313 
Q 434 1759 690 2068 
Q 947 2378 1403 2484 
z
M 1172 3481 
Q 1172 3119 1398 2916 
Q 1625 2713 2034 2713 
Q 2441 2713 2670 2916 
Q 2900 3119 2900 3481 
Q 2900 3844 2670 4047 
Q 2441 4250 2034 4250 
Q 1625 4250 1398 4047 
Q 1172 3844 1172 3481 
z
" id="DejaVuSans-38" transform="scale(0.015625)"/>
       </defs>
       <use xlink:href="#DejaVuSans-38"/>
       <use x="63.623047" xlink:href="#DejaVuSans-30"/>
       <use x="127.246094" xlink:href="#DejaVuSans-30"/>
      </g>
     </g>
    </g>
    <g id="xtick_6">
     <g id="line2d_6">
      <g>
       <use style="stroke:#000000;stroke-width:0.8;" x="1358.129427" xlink:href="#m8b3dcf0c54" y="586.86358"/>
      </g>
     </g>
     <g id="text_6">
      <!-- 1000 -->
      <g transform="translate(1345.404427 601.462017)scale(0.1 -0.1)">
       <defs>
        <path d="M 794 531 
L 1825 531 
L 1825 4091 
L 703 3866 
L 703 4441 
L 1819 4666 
L 2450 4666 
L 2450 531 
L 3481 531 
L 3481 0 
L 794 0 
L 794 531 
z
" id="DejaVuSans-31" transform="scale(0.015625)"/>
       </defs>
       <use xlink:href="#DejaVuSans-31"/>
       <use x="63.623047" xlink:href="#DejaVuSans-30"/>
       <use x="127.246094" xlink:href="#DejaVuSans-30"/>
       <use x="190.869141" xlink:href="#DejaVuSans-30"/>
      </g>
     </g>
    </g>
    <g id="xtick_7">
     <g id="line2d_7">
      <g>
       <use style="stroke:#000000;stroke-width:0.8;" x="1605.78088" xlink:href="#m8b3dcf0c54" y="586.86358"/>
      </g>
     </g>
     <g id="text_7">
      <!-- 1200 -->
      <g transform="translate(1593.05588 601.462017)scale(0.1 -0.1)">
       <use xlink:href="#DejaVuSans-31"/>
       <use x="63.623047" xlink:href="#DejaVuSans-32"/>
       <use x="127.246094" xlink:href="#DejaVuSans-30"/>
       <use x="190.869141" xlink:href="#DejaVuSans-30"/>
      </g>
     </g>
    </g>
    <g id="text_8">
     <!-- frame -->
     <g transform="translate(865.954687 615.140142)scale(0.1 -0.1)">
      <defs>
       <path d="M 2375 4863 
L 2375 4384 
L 1825 4384 
Q 1516 4384 1395 4259 
Q 1275 4134 1275 3809 
L 1275 3500 
L 2222 3500 
L 2222 3053 
L 1275 3053 
L 1275 0 
L 697 0 
L 697 3053 
L 147 3053 
L 147 3500 
L 697 3500 
L 697 3744 
Q 697 4328 969 4595 
Q 1241 4863 1831 4863 
L 2375 4863 
z
" id="DejaVuSans-66" transform="scale(0.015625)"/>
       <path d="M 2631 2963 
Q 2534 3019 2420 3045 
Q 2306 3072 2169 3072 
Q 1681 3072 1420 2755 
Q 1159 2438 1159 1844 
L 1159 0 
L 581 0 
L 581 3500 
L 1159 3500 
L 1159 2956 
Q 1341 3275 1631 3429 
Q 1922 3584 2338 3584 
Q 2397 3584 2469 3576 
Q 2541 3569 2628 3553 
L 2631 2963 
z
" id="DejaVuSans-72" transform="scale(0.015625)"/>
       <path d="M 2194 1759 
Q 1497 1759 1228 1600 
Q 959 1441 959 1056 
Q 959 750 1161 570 
Q 1363 391 1709 391 
Q 2188 391 2477 730 
Q 2766 1069 2766 1631 
L 2766 1759 
L 2194 1759 
z
M 3341 1997 
L 3341 0 
L 2766 0 
L 2766 531 
Q 2569 213 2275 61 
Q 1981 -91 1556 -91 
Q 1019 -91 701 211 
Q 384 513 384 1019 
Q 384 1609 779 1909 
Q 1175 2209 1959 2209 
L 2766 2209 
L 2766 2266 
Q 2766 2663 2505 2880 
Q 2244 3097 1772 3097 
Q 1472 3097 1187 3025 
Q 903 2953 641 2809 
L 641 3341 
Q 956 3463 1253 3523 
Q 1550 3584 1831 3584 
Q 2591 3584 2966 3190 
Q 3341 2797 3341 1997 
z
" id="DejaVuSans-61" transform="scale(0.015625)"/>
       <path d="M 3328 2828 
Q 3544 3216 3844 3400 
Q 4144 3584 4550 3584 
Q 5097 3584 5394 3201 
Q 5691 2819 5691 2113 
L 5691 0 
L 5113 0 
L 5113 2094 
Q 5113 2597 4934 2840 
Q 4756 3084 4391 3084 
Q 3944 3084 3684 2787 
Q 3425 2491 3425 1978 
L 3425 0 
L 2847 0 
L 2847 2094 
Q 2847 2600 2669 2842 
Q 2491 3084 2119 3084 
Q 1678 3084 1418 2786 
Q 1159 2488 1159 1978 
L 1159 0 
L 581 0 
L 581 3500 
L 1159 3500 
L 1159 2956 
Q 1356 3278 1631 3431 
Q 1906 3584 2284 3584 
Q 2666 3584 2933 3390 
Q 3200 3197 3328 2828 
z
" id="DejaVuSans-6d" transform="scale(0.015625)"/>
       <path d="M 3597 1894 
L 3597 1613 
L 953 1613 
Q 991 1019 1311 708 
Q 1631 397 2203 397 
Q 2534 397 2845 478 
Q 3156 559 3463 722 
L 3463 178 
Q 3153 47 2828 -22 
Q 2503 -91 2169 -91 
Q 1331 -91 842 396 
Q 353 884 353 1716 
Q 353 2575 817 3079 
Q 1281 3584 2069 3584 
Q 2775 3584 3186 3129 
Q 3597 2675 3597 1894 
z
M 3022 2063 
Q 3016 2534 2758 2815 
Q 2500 3097 2075 3097 
Q 1594 3097 1305 2825 
Q 1016 2553 972 2059 
L 3022 2063 
z
" id="DejaVuSans-65" transform="scale(0.015625)"/>
      </defs>
      <use xlink:href="#DejaVuSans-66"/>
      <use x="35.205078" xlink:href="#DejaVuSans-72"/>
      <use x="76.318359" xlink:href="#DejaVuSans-61"/>
      <use x="137.597656" xlink:href="#DejaVuSans-6d"/>
      <use x="235.009766" xlink:href="#DejaVuSans-65"/>
     </g>
    </g>
   </g>
   <g id="matplotlib.axis_2">
    <g id="ytick_1">
     <g id="line2d_8">
      <defs>
       <path d="M 0 0 
L -3.5 0 
" id="m8c60f20d7f" style="stroke:#000000;stroke-width:0.8;"/>
      </defs>
      <g>
       <use style="stroke:#000000;stroke-width:0.8;" x="43.78125" xlink:href="#m8c60f20d7f" y="527.021136"/>
      </g>
     </g>
     <g id="text_9">
      <!-- 0.6 -->
      <g transform="translate(20.878125 530.820355)scale(0.1 -0.1)">
       <defs>
        <path d="M 684 794 
L 1344 794 
L 1344 0 
L 684 0 
L 684 794 
z
" id="DejaVuSans-2e" transform="scale(0.015625)"/>
       </defs>
       <use xlink:href="#DejaVuSans-30"/>
       <use x="63.623047" xlink:href="#DejaVuSans-2e"/>
       <use x="95.410156" xlink:href="#DejaVuSans-36"/>
      </g>
     </g>
    </g>
    <g id="ytick_2">
     <g id="line2d_9">
      <g>
       <use style="stroke:#000000;stroke-width:0.8;" x="43.78125" xlink:href="#m8c60f20d7f" y="448.115296"/>
      </g>
     </g>
     <g id="text_10">
      <!-- 0.7 -->
      <g transform="translate(20.878125 451.914515)scale(0.1 -0.1)">
       <defs>
        <path d="M 525 4666 
L 3525 4666 
L 3525 4397 
L 1831 0 
L 1172 0 
L 2766 4134 
L 525 4134 
L 525 4666 
z
" id="DejaVuSans-37" transform="scale(0.015625)"/>
       </defs>
       <use xlink:href="#DejaVuSans-30"/>
       <use x="63.623047" xlink:href="#DejaVuSans-2e"/>
       <use x="95.410156" xlink:href="#DejaVuSans-37"/>
      </g>
     </g>
    </g>
    <g id="ytick_3">
     <g id="line2d_10">
      <g>
       <use style="stroke:#000000;stroke-width:0.8;" x="43.78125" xlink:href="#m8c60f20d7f" y="369.209456"/>
      </g>
     </g>
     <g id="text_11">
      <!-- 0.8 -->
      <g transform="translate(20.878125 373.008675)scale(0.1 -0.1)">
       <use xlink:href="#DejaVuSans-30"/>
       <use x="63.623047" xlink:href="#DejaVuSans-2e"/>
       <use x="95.410156" xlink:href="#DejaVuSans-38"/>
      </g>
     </g>
    </g>
    <g id="ytick_4">
     <g id="line2d_11">
      <g>
       <use style="stroke:#000000;stroke-width:0.8;" x="43.78125" xlink:href="#m8c60f20d7f" y="290.303616"/>
      </g>
     </g>
     <g id="text_12">
      <!-- 0.9 -->
      <g transform="translate(20.878125 294.102834)scale(0.1 -0.1)">
       <defs>
        <path d="M 703 97 
L 703 672 
Q 941 559 1184 500 
Q 1428 441 1663 441 
Q 2288 441 2617 861 
Q 2947 1281 2994 2138 
Q 2813 1869 2534 1725 
Q 2256 1581 1919 1581 
Q 1219 1581 811 2004 
Q 403 2428 403 3163 
Q 403 3881 828 4315 
Q 1253 4750 1959 4750 
Q 2769 4750 3195 4129 
Q 3622 3509 3622 2328 
Q 3622 1225 3098 567 
Q 2575 -91 1691 -91 
Q 1453 -91 1209 -44 
Q 966 3 703 97 
z
M 1959 2075 
Q 2384 2075 2632 2365 
Q 2881 2656 2881 3163 
Q 2881 3666 2632 3958 
Q 2384 4250 1959 4250 
Q 1534 4250 1286 3958 
Q 1038 3666 1038 3163 
Q 1038 2656 1286 2365 
Q 1534 2075 1959 2075 
z
" id="DejaVuSans-39" transform="scale(0.015625)"/>
       </defs>
       <use xlink:href="#DejaVuSans-30"/>
       <use x="63.623047" xlink:href="#DejaVuSans-2e"/>
       <use x="95.410156" xlink:href="#DejaVuSans-39"/>
      </g>
     </g>
    </g>
    <g id="ytick_5">
     <g id="line2d_12">
      <g>
       <use style="stroke:#000000;stroke-width:0.8;" x="43.78125" xlink:href="#m8c60f20d7f" y="211.397775"/>
      </g>
     </g>
     <g id="text_13">
      <!-- 1.0 -->
      <g transform="translate(20.878125 215.196994)scale(0.1 -0.1)">
       <use xlink:href="#DejaVuSans-31"/>
       <use x="63.623047" xlink:href="#DejaVuSans-2e"/>
       <use x="95.410156" xlink:href="#DejaVuSans-30"/>
      </g>
     </g>
    </g>
    <g id="ytick_6">
     <g id="line2d_13">
      <g>
       <use style="stroke:#000000;stroke-width:0.8;" x="43.78125" xlink:href="#m8c60f20d7f" y="132.491935"/>
      </g>
     </g>
     <g id="text_14">
      <!-- 1.1 -->
      <g transform="translate(20.878125 136.291154)scale(0.1 -0.1)">
       <use xlink:href="#DejaVuSans-31"/>
       <use x="63.623047" xlink:href="#DejaVuSans-2e"/>
       <use x="95.410156" xlink:href="#DejaVuSans-31"/>
      </g>
     </g>
    </g>
    <g id="ytick_7">
     <g id="line2d_14">
      <g>
       <use style="stroke:#000000;stroke-width:0.8;" x="43.78125" xlink:href="#m8c60f20d7f" y="53.586095"/>
      </g>
     </g>
     <g id="text_15">
      <!-- 1.2 -->
      <g transform="translate(20.878125 57.385314)scale(0.1 -0.1)">
       <use xlink:href="#DejaVuSans-31"/>
       <use x="63.623047" xlink:href="#DejaVuSans-2e"/>
       <use x="95.410156" xlink:href="#DejaVuSans-32"/>
      </g>
     </g>
    </g>
    <g id="text_16">
     <!-- GCaMP -->
     <g transform="translate(14.798437 322.349446)rotate(-90)scale(0.1 -0.1)">
      <defs>
       <path d="M 3809 666 
L 3809 1919 
L 2778 1919 
L 2778 2438 
L 4434 2438 
L 4434 434 
Q 4069 175 3628 42 
Q 3188 -91 2688 -91 
Q 1594 -91 976 548 
Q 359 1188 359 2328 
Q 359 3472 976 4111 
Q 1594 4750 2688 4750 
Q 3144 4750 3555 4637 
Q 3966 4525 4313 4306 
L 4313 3634 
Q 3963 3931 3569 4081 
Q 3175 4231 2741 4231 
Q 1884 4231 1454 3753 
Q 1025 3275 1025 2328 
Q 1025 1384 1454 906 
Q 1884 428 2741 428 
Q 3075 428 3337 486 
Q 3600 544 3809 666 
z
" id="DejaVuSans-47" transform="scale(0.015625)"/>
       <path d="M 4122 4306 
L 4122 3641 
Q 3803 3938 3442 4084 
Q 3081 4231 2675 4231 
Q 1875 4231 1450 3742 
Q 1025 3253 1025 2328 
Q 1025 1406 1450 917 
Q 1875 428 2675 428 
Q 3081 428 3442 575 
Q 3803 722 4122 1019 
L 4122 359 
Q 3791 134 3420 21 
Q 3050 -91 2638 -91 
Q 1578 -91 968 557 
Q 359 1206 359 2328 
Q 359 3453 968 4101 
Q 1578 4750 2638 4750 
Q 3056 4750 3426 4639 
Q 3797 4528 4122 4306 
z
" id="DejaVuSans-43" transform="scale(0.015625)"/>
       <path d="M 628 4666 
L 1569 4666 
L 2759 1491 
L 3956 4666 
L 4897 4666 
L 4897 0 
L 4281 0 
L 4281 4097 
L 3078 897 
L 2444 897 
L 1241 4097 
L 1241 0 
L 628 0 
L 628 4666 
z
" id="DejaVuSans-4d" transform="scale(0.015625)"/>
       <path d="M 1259 4147 
L 1259 2394 
L 2053 2394 
Q 2494 2394 2734 2622 
Q 2975 2850 2975 3272 
Q 2975 3691 2734 3919 
Q 2494 4147 2053 4147 
L 1259 4147 
z
M 628 4666 
L 2053 4666 
Q 2838 4666 3239 4311 
Q 3641 3956 3641 3272 
Q 3641 2581 3239 2228 
Q 2838 1875 2053 1875 
L 1259 1875 
L 1259 0 
L 628 0 
L 628 4666 
z
" id="DejaVuSans-50" transform="scale(0.015625)"/>
      </defs>
      <use xlink:href="#DejaVuSans-47"/>
      <use x="77.490234" xlink:href="#DejaVuSans-43"/>
      <use x="147.314453" xlink:href="#DejaVuSans-61"/>
      <use x="208.59375" xlink:href="#DejaVuSans-4d"/>
      <use x="294.873047" xlink:href="#DejaVuSans-50"/>
     </g>
    </g>
   </g>
   <g id="line2d_15">
    <path clip-path="url(#p23403ece9e)" d="M 119.872159 560.255958 
L 121.110416 557.842982 
L 122.348674 556.399893 
L 123.586931 556.83457 
L 126.063445 561.202423 
L 127.301703 561.136174 
L 128.53996 558.652051 
L 129.778217 555.356306 
L 131.016474 553.07685 
L 132.254732 552.381937 
L 133.492989 552.148945 
L 134.731246 550.753512 
L 135.969504 547.659811 
L 138.446018 539.923224 
L 139.684275 537.10715 
L 140.922533 535.867956 
L 142.16079 536.338084 
L 143.399047 537.938563 
L 144.637304 539.8583 
L 145.875562 541.291023 
L 147.113819 541.692205 
L 149.590334 540.940963 
L 150.828591 541.39015 
L 152.066848 542.345406 
L 154.543363 543.974642 
L 155.78162 545.925909 
L 158.258134 552.227735 
L 159.496392 553.160441 
L 160.734649 551.186359 
L 161.972906 546.704663 
L 164.449421 535.844524 
L 165.687678 531.802607 
L 166.925935 529.808205 
L 168.164193 530.770874 
L 169.40245 534.47989 
L 170.640707 539.050781 
L 171.878964 542.381189 
L 173.117222 544.025874 
L 174.355479 544.837907 
L 175.593736 544.853077 
L 176.831993 542.919593 
L 178.070251 538.523743 
L 179.308508 532.296193 
L 180.546765 524.523495 
L 183.02328 505.289373 
L 184.261537 497.521424 
L 185.499794 493.066874 
L 186.738052 491.450344 
L 187.976309 492.038229 
L 189.214566 494.685009 
L 191.691081 503.254611 
L 192.929338 505.613045 
L 194.167595 505.125673 
L 195.405852 503.099371 
L 196.64411 501.327333 
L 197.882367 500.31157 
L 199.120624 499.812157 
L 200.358881 499.990318 
L 201.597139 501.296394 
L 204.073653 505.754295 
L 205.311911 506.36215 
L 206.550168 505.422671 
L 207.788425 503.764903 
L 209.026682 501.451242 
L 210.26494 497.857773 
L 212.741454 488.039239 
L 213.979711 484.40167 
L 215.217969 482.702857 
L 216.456226 482.02838 
L 217.694483 480.939392 
L 218.93274 478.678236 
L 220.170998 474.961814 
L 221.409255 469.874351 
L 223.88577 458.806856 
L 225.124027 454.700564 
L 226.362284 452.188167 
L 227.600541 450.841512 
L 228.838799 450.160354 
L 230.077056 450.078908 
L 231.315313 450.174658 
L 232.55357 449.274558 
L 233.791828 446.417202 
L 236.268342 437.75916 
L 237.5066 434.983975 
L 239.983114 431.458592 
L 243.697886 424.031852 
L 244.936143 422.075406 
L 246.1744 419.411637 
L 249.889172 408.785429 
L 251.127429 405.56315 
L 252.365687 401.459796 
L 256.080459 385.706309 
L 257.318716 382.355852 
L 258.556973 380.141647 
L 261.033488 377.234869 
L 262.271745 374.479378 
L 263.510002 369.510544 
L 269.701288 335.616869 
L 270.939546 329.637509 
L 272.177803 324.862034 
L 273.41606 321.493206 
L 274.654318 319.425834 
L 275.892575 318.447095 
L 277.130832 318.579196 
L 278.369089 320.353582 
L 279.607347 324.160061 
L 282.083861 334.200908 
L 283.322118 338.485171 
L 284.560376 343.434687 
L 285.798633 350.694971 
L 288.275147 369.152706 
L 289.513405 374.755234 
L 290.751662 374.490902 
L 291.989919 368.531353 
L 295.704691 341.644045 
L 296.942948 331.289151 
L 299.419463 308.137867 
L 300.65772 299.088953 
L 301.895977 295.300178 
L 303.134235 297.783805 
L 305.610749 310.770958 
L 306.849006 314.39617 
L 308.087264 313.649226 
L 309.325521 308.908011 
L 310.563778 302.62223 
L 311.802036 298.210474 
L 313.040293 297.835324 
L 314.27855 301.356429 
L 315.516807 306.860037 
L 316.755065 311.649623 
L 317.993322 313.129902 
L 319.231579 309.149991 
L 320.469836 298.810268 
L 324.184608 253.976026 
L 325.422866 245.819841 
L 326.661123 243.827242 
L 327.89938 245.949199 
L 329.137637 249.543602 
L 330.375895 252.575717 
L 331.614152 253.214315 
L 332.852409 250.68796 
L 334.090666 245.70662 
L 337.805438 226.588612 
L 339.043695 222.837692 
L 341.52021 218.64568 
L 343.996725 213.789803 
L 346.473239 209.300655 
L 347.711496 205.49279 
L 348.949754 198.983043 
L 351.426268 181.472893 
L 352.664525 174.531005 
L 353.902783 171.592958 
L 355.14104 173.731427 
L 356.379297 180.605075 
L 357.617554 191.373449 
L 358.855812 203.936487 
L 360.094069 213.923781 
L 361.332326 217.664718 
L 362.570584 215.807417 
L 363.808841 212.333409 
L 365.047098 211.165618 
L 366.285355 213.534949 
L 367.523613 217.15806 
L 368.76187 219.037034 
L 370.000127 218.511394 
L 371.238384 216.033829 
L 372.476642 211.443215 
L 374.953156 198.069432 
L 376.191413 193.124102 
L 377.429671 191.929912 
L 378.667928 193.755887 
L 379.906185 195.324426 
L 381.144443 193.774881 
L 382.3827 188.904271 
L 384.859214 175.670849 
L 386.097472 171.273197 
L 387.335729 171.242908 
L 388.573986 176.32316 
L 394.765272 218.775325 
L 396.00353 224.720748 
L 397.241787 228.133811 
L 398.480044 229.477028 
L 399.718302 228.824878 
L 400.956559 225.857833 
L 402.194816 219.94234 
L 403.433073 210.715638 
L 404.671331 200.030897 
L 405.909588 191.541559 
L 407.147845 187.779455 
L 408.386102 188.575391 
L 409.62436 191.149263 
L 410.862617 192.031894 
L 413.339132 188.953949 
L 414.577389 189.261329 
L 415.815646 190.675036 
L 417.053903 191.731775 
L 418.292161 192.521683 
L 419.530418 193.906461 
L 420.768675 195.839547 
L 422.006932 197.490365 
L 423.24519 198.196393 
L 424.483447 197.463374 
L 425.721704 194.657568 
L 426.959961 190.127119 
L 428.198219 186.613456 
L 429.436476 187.841415 
L 431.912991 200.141116 
L 433.151248 200.343913 
L 434.389505 192.738867 
L 435.627762 179.436188 
L 436.86602 164.42462 
L 438.104277 151.427636 
L 439.342534 142.787641 
L 440.580791 139.132865 
L 441.819049 139.899012 
L 443.057306 144.959549 
L 444.295563 153.986716 
L 445.53382 163.923631 
L 446.772078 170.510209 
L 448.010335 172.266714 
L 449.248592 170.724953 
L 450.48685 168.593366 
L 451.725107 169.043033 
L 452.963364 173.782032 
L 454.201621 180.484281 
L 455.439879 184.232352 
L 456.678136 182.242051 
L 459.15465 169.919285 
L 460.392908 167.032619 
L 461.631165 168.172615 
L 462.869422 172.065538 
L 464.107679 178.574461 
L 466.584194 197.259078 
L 467.822451 199.195157 
L 469.060709 190.145251 
L 471.537223 154.808115 
L 472.77548 141.574188 
L 474.013738 135.749423 
L 475.251995 137.631835 
L 476.490252 145.323047 
L 477.728509 154.24789 
L 478.966767 160.664786 
L 480.205024 165.191716 
L 481.443281 170.987103 
L 483.919796 188.610542 
L 485.158053 194.837162 
L 486.39631 196.644124 
L 487.634568 195.582266 
L 488.872825 194.313305 
L 490.111082 194.378222 
L 491.349339 195.211792 
L 492.587597 195.38006 
L 493.825854 195.040179 
L 495.064111 195.66202 
L 496.302368 197.201901 
L 497.540626 197.741286 
L 498.778883 195.904193 
L 500.01714 191.710481 
L 501.255397 185.9013 
L 502.493655 180.64704 
L 503.731912 179.180712 
L 504.970169 182.234725 
L 506.208427 186.442562 
L 507.446684 187.293897 
L 508.684941 182.424748 
L 511.161456 164.393323 
L 512.399713 160.690226 
L 513.63797 162.009574 
L 514.876227 165.0148 
L 516.114485 167.039253 
L 517.352742 167.495919 
L 518.590999 167.058853 
L 519.829257 166.07359 
L 521.067514 164.176447 
L 522.305771 161.534101 
L 523.544028 159.862392 
L 524.782286 161.643179 
L 526.020543 167.296879 
L 527.2588 173.642695 
L 528.497057 176.776384 
L 529.735315 175.738542 
L 530.973572 171.809431 
L 532.211829 165.651663 
L 534.688344 148.584926 
L 535.926601 141.911705 
L 537.164858 139.328939 
L 538.403116 140.987075 
L 539.641373 146.063724 
L 540.87963 153.634299 
L 542.117887 162.084581 
L 543.356145 168.602431 
L 544.594402 170.629305 
L 545.832659 167.505917 
L 547.070916 160.087084 
L 548.309174 150.229136 
L 549.547431 141.327026 
L 550.785688 137.553232 
L 552.023945 140.722647 
L 553.262203 148.483335 
L 554.50046 157.565602 
L 555.738717 167.822303 
L 556.976975 181.438835 
L 558.215232 199.275691 
L 559.453489 218.752157 
L 560.691746 233.972106 
L 561.930004 237.770933 
L 563.168261 226.662916 
L 565.644775 181.636302 
L 566.883033 165.212637 
L 568.12129 158.771333 
L 569.359547 161.126928 
L 570.597804 169.741242 
L 573.074319 194.943382 
L 574.312576 202.842239 
L 575.550834 204.114106 
L 576.789091 201.047936 
L 578.027348 196.019377 
L 580.503863 184.352886 
L 581.74212 179.044903 
L 584.218634 167.197918 
L 585.456892 164.770804 
L 586.695149 169.117731 
L 587.933406 180.415224 
L 589.171663 195.359094 
L 590.409921 207.774026 
L 591.648178 210.686041 
L 592.886435 200.481066 
L 595.36295 158.160543 
L 596.601207 143.287147 
L 597.839464 139.12863 
L 599.077722 143.610397 
L 601.554236 162.321573 
L 602.792493 169.540241 
L 604.030751 171.225057 
L 605.269008 166.172955 
L 606.507265 156.004771 
L 607.745523 144.176974 
L 608.98378 134.11006 
L 610.222037 127.74394 
L 611.460294 125.305026 
L 612.698552 126.083607 
L 613.936809 129.425604 
L 615.175066 135.173647 
L 617.651581 150.398106 
L 618.889838 154.321226 
L 620.128095 152.094876 
L 622.60461 137.686015 
L 623.842867 135.747495 
L 625.081124 141.848771 
L 626.319382 153.745381 
L 627.557639 166.924606 
L 628.795896 177.726232 
L 630.034153 183.249981 
L 631.272411 181.96179 
L 632.510668 175.987833 
L 633.748925 170.576799 
L 634.987182 169.544229 
L 636.22544 171.928733 
L 637.463697 173.665998 
L 638.701954 171.228314 
L 639.940211 163.40545 
L 641.178469 151.410688 
L 644.893241 108.648127 
L 646.131498 94.657975 
L 647.369755 84.66041 
L 648.608012 82.740656 
L 649.84627 89.40908 
L 652.322784 110.900329 
L 653.561041 117.90826 
L 654.799299 121.343343 
L 656.037556 121.826806 
L 657.275813 120.569196 
L 658.51407 119.954476 
L 659.752328 122.336851 
L 662.228842 132.607852 
L 663.4671 134.748334 
L 664.705357 133.98894 
L 665.943614 132.329088 
L 667.181871 130.45192 
L 668.420129 127.10612 
L 669.658386 121.41428 
L 672.1349 107.433085 
L 673.373158 101.775276 
L 675.849672 91.509319 
L 677.087929 86.15146 
L 678.326187 82.57867 
L 679.564444 83.731378 
L 682.040959 95.304267 
L 683.279216 96.515473 
L 684.517473 92.318009 
L 685.75573 85.517486 
L 686.993988 80.024053 
L 688.232245 78.409 
L 689.470502 81.701982 
L 690.708759 90.311752 
L 691.947017 103.935419 
L 693.185274 120.42724 
L 694.423531 135.34861 
L 695.661789 144.221974 
L 696.900046 145.525291 
L 698.138303 140.857145 
L 700.614818 124.842051 
L 701.853075 119.61771 
L 703.091332 119.500425 
L 704.329589 124.49163 
L 705.567847 132.0807 
L 706.806104 138.482312 
L 708.044361 141.73865 
L 709.282618 142.871564 
L 710.520876 143.238447 
L 711.759133 142.596931 
L 712.99739 139.998366 
L 715.473905 130.381931 
L 716.712162 127.149737 
L 717.950419 126.925868 
L 719.188677 129.980643 
L 721.665191 141.250676 
L 724.141706 149.588322 
L 725.379963 156.42657 
L 726.61822 166.886295 
L 729.094735 193.644023 
L 730.332992 203.75242 
L 731.571249 206.762117 
L 732.809507 201.541865 
L 735.286021 178.343352 
L 736.524278 169.467798 
L 737.762536 165.105216 
L 739.000793 165.447404 
L 740.23905 170.862201 
L 741.477307 180.900593 
L 742.715565 193.144076 
L 743.953822 203.962586 
L 745.192079 210.099767 
L 746.430336 209.602717 
L 747.668594 202.979357 
L 748.906851 193.600516 
L 750.145108 185.521385 
L 751.383366 180.396855 
L 752.621623 177.346518 
L 753.85988 175.936815 
L 755.098137 177.290883 
L 756.336395 182.147555 
L 760.051166 204.37886 
L 761.289424 208.098507 
L 762.527681 207.393059 
L 763.765938 202.26023 
L 767.48071 179.396202 
L 768.718967 173.540456 
L 769.957225 168.47013 
L 771.195482 165.822178 
L 772.433739 168.245576 
L 773.671996 176.437934 
L 774.910254 188.439763 
L 777.386768 213.835578 
L 778.625025 222.501131 
L 779.863283 225.631098 
L 781.10154 223.113643 
L 783.578054 212.552278 
L 784.816312 208.416121 
L 787.292826 198.747618 
L 788.531084 196.862183 
L 789.769341 199.822724 
L 791.007598 206.311243 
L 792.245855 213.509015 
L 793.484113 219.609812 
L 794.72237 224.505167 
L 795.960627 228.176166 
L 797.198884 229.128477 
L 798.437142 226.301206 
L 799.675399 221.800745 
L 800.913656 219.416126 
L 802.151914 221.003561 
L 803.390171 224.912679 
L 804.628428 227.709489 
L 805.866685 227.114095 
L 807.104943 222.608282 
L 808.3432 214.985265 
L 809.581457 206.406289 
L 810.819714 199.213056 
L 812.057972 194.549199 
L 813.296229 192.979688 
L 814.534486 196.090186 
L 815.772743 205.875487 
L 818.249258 236.557047 
L 819.487515 247.511228 
L 820.725773 253.121794 
L 821.96403 254.621798 
L 823.202287 253.328859 
L 824.440544 250.168413 
L 825.678802 245.63438 
L 826.917059 240.342161 
L 828.155316 235.586891 
L 829.393573 232.525397 
L 830.631831 231.304401 
L 831.870088 231.420818 
L 833.108345 232.306609 
L 834.346602 233.576273 
L 835.58486 234.661335 
L 836.823117 234.413473 
L 838.061374 231.814919 
L 840.537889 222.292329 
L 841.776146 220.112389 
L 843.014403 222.412833 
L 844.252661 228.856804 
L 845.490918 236.702313 
L 846.729175 242.177509 
L 847.967432 243.353688 
L 849.20569 241.425248 
L 854.158719 230.155433 
L 855.396976 228.180042 
L 856.635233 227.781844 
L 857.873491 229.098434 
L 859.111748 230.58873 
L 860.350005 229.420053 
L 861.588262 224.358867 
L 864.064777 210.485197 
L 865.303034 204.936906 
L 866.541291 200.910303 
L 867.779549 199.373114 
L 869.017806 201.010635 
L 870.256063 205.579397 
L 871.49432 211.627373 
L 872.732578 216.290024 
L 873.970835 217.016788 
L 875.209092 213.635325 
L 877.685607 202.151996 
L 878.923864 197.707751 
L 880.162121 195.150931 
L 881.400379 194.06015 
L 882.638636 193.220102 
L 883.876893 191.218815 
L 886.353408 184.095366 
L 887.591665 181.363207 
L 888.829922 180.060101 
L 890.06818 180.335549 
L 891.306437 182.674137 
L 892.544694 188.098056 
L 893.782951 196.749899 
L 895.021209 206.19907 
L 896.259466 212.374667 
L 897.497723 212.637616 
L 898.73598 207.289725 
L 899.974238 198.330413 
L 902.450752 178.112226 
L 903.689009 171.617669 
L 904.927267 170.179522 
L 906.165524 173.032464 
L 907.403781 178.201274 
L 909.880296 190.786645 
L 911.118553 193.544198 
L 912.35681 191.371717 
L 913.595068 187.200278 
L 914.833325 185.120588 
L 916.071582 186.268655 
L 917.309839 189.208584 
L 918.548097 191.30158 
L 919.786354 189.617785 
L 922.262868 178.307593 
L 923.501126 175.786543 
L 924.739383 175.694061 
L 925.97764 175.203854 
L 927.215898 173.685133 
L 928.454155 173.239072 
L 929.692412 175.251242 
L 930.930669 178.347709 
L 932.168927 180.335088 
L 933.407184 180.642152 
L 934.645441 179.883557 
L 937.121956 177.647943 
L 938.360213 176.027281 
L 939.59847 172.601428 
L 940.836727 168.506662 
L 942.074985 166.463919 
L 943.313242 167.101725 
L 944.551499 168.258268 
L 945.789757 167.354402 
L 947.028014 163.7556 
L 948.266271 159.061542 
L 950.742786 151.260957 
L 951.981043 146.156216 
L 953.2193 139.575627 
L 954.457557 134.167347 
L 955.695815 132.668744 
L 956.934072 135.12651 
L 959.410586 143.85669 
L 960.648844 147.260075 
L 961.887101 149.838108 
L 963.125358 152.037434 
L 964.363616 153.898508 
L 965.601873 154.573488 
L 966.84013 153.195339 
L 968.078387 150.865158 
L 969.316645 150.544849 
L 970.554902 154.085755 
L 973.031416 166.386051 
L 974.269674 170.746349 
L 975.507931 172.33507 
L 976.746188 169.951713 
L 977.984446 163.791264 
L 979.222703 156.697149 
L 980.46096 152.471834 
L 981.699217 153.31735 
L 982.937475 158.774009 
L 985.413989 174.632096 
L 986.652246 180.446519 
L 987.890504 180.843503 
L 989.128761 173.505037 
L 990.367018 158.982117 
L 991.605275 139.243881 
L 994.08179 95.940876 
L 995.320047 80.74215 
L 996.558305 73.77216 
L 997.796562 76.261079 
L 999.034819 86.792491 
L 1000.273076 100.098422 
L 1001.511334 110.776944 
L 1002.749591 116.877521 
L 1003.987848 119.460493 
L 1005.226105 121.275043 
L 1006.464363 125.02641 
L 1007.70262 131.307373 
L 1008.940877 138.571217 
L 1010.179134 144.582129 
L 1011.417392 147.869754 
L 1012.655649 148.456941 
L 1013.893906 146.85056 
L 1016.370421 140.415653 
L 1017.608678 138.047322 
L 1018.846935 136.261023 
L 1020.085193 136.133586 
L 1021.32345 139.79554 
L 1022.561707 146.87181 
L 1023.799964 154.687461 
L 1025.038222 160.942993 
L 1026.276479 164.0479 
L 1027.514736 163.327484 
L 1028.752993 159.895716 
L 1029.991251 155.603794 
L 1031.229508 151.931438 
L 1032.467765 149.852568 
L 1033.706023 148.859999 
L 1034.94428 147.014156 
L 1037.420794 139.592419 
L 1038.659052 137.868807 
L 1039.897309 137.899698 
L 1041.135566 137.158184 
L 1042.373823 134.428795 
L 1043.612081 131.19663 
L 1044.850338 128.992656 
L 1047.326852 125.88056 
L 1048.56511 123.786954 
L 1049.803367 120.521329 
L 1051.041624 114.965203 
L 1052.279882 107.925884 
L 1053.518139 102.883925 
L 1054.756396 102.764186 
L 1055.994653 107.102766 
L 1058.471168 119.313145 
L 1059.709425 126.296801 
L 1062.18594 142.392549 
L 1063.424197 147.107295 
L 1064.662454 148.340981 
L 1065.900711 147.741102 
L 1067.138969 147.524163 
L 1068.377226 148.740241 
L 1069.615483 150.33499 
L 1070.853741 151.138323 
L 1072.091998 152.810591 
L 1073.330255 158.285677 
L 1075.80677 176.818646 
L 1077.045027 181.816494 
L 1078.283284 179.821873 
L 1079.521541 171.932544 
L 1080.759799 163.12955 
L 1081.998056 159.480106 
L 1083.236313 164.282219 
L 1085.712828 188.379917 
L 1086.951085 196.072603 
L 1088.189342 197.654495 
L 1089.4276 196.502736 
L 1090.665857 196.229454 
L 1091.904114 197.49573 
L 1093.142371 198.479317 
L 1094.380629 197.241446 
L 1095.618886 193.627847 
L 1096.857143 189.197269 
L 1098.0954 185.397392 
L 1099.333658 182.281395 
L 1100.571915 179.724994 
L 1101.810172 178.433384 
L 1103.04843 178.590282 
L 1104.286687 179.053652 
L 1105.524944 178.154663 
L 1106.763201 174.629255 
L 1108.001459 168.471342 
L 1109.239716 161.13006 
L 1110.477973 154.646065 
L 1111.71623 151.127442 
L 1112.954488 152.996536 
L 1114.192745 161.601102 
L 1115.431002 174.268326 
L 1116.669259 184.671528 
L 1117.907517 187.475866 
L 1119.145774 181.973894 
L 1121.622289 161.44343 
L 1122.860546 155.491914 
L 1124.098803 154.619694 
L 1125.33706 156.352397 
L 1126.575318 157.583941 
L 1127.813575 156.935132 
L 1129.051832 154.8989 
L 1130.290089 152.440207 
L 1131.528347 149.14829 
L 1132.766604 143.604864 
L 1134.004861 136.255628 
L 1135.243118 130.519844 
L 1136.481376 129.824264 
L 1137.719633 134.217499 
L 1138.95789 141.158707 
L 1140.196148 148.78166 
L 1141.434405 157.114844 
L 1142.672662 166.801581 
L 1145.149177 187.25302 
L 1146.387434 194.365344 
L 1147.625691 197.721888 
L 1148.863948 197.26167 
L 1151.340463 190.98729 
L 1152.57872 190.113085 
L 1153.816977 192.19722 
L 1155.055235 195.639336 
L 1156.293492 198.203693 
L 1157.531749 199.082744 
L 1158.770007 199.031526 
L 1160.008264 198.687714 
L 1161.246521 197.242257 
L 1162.484778 192.872089 
L 1163.723036 184.165743 
L 1166.19955 158.510248 
L 1167.437807 149.45928 
L 1168.676065 147.071728 
L 1169.914322 150.50435 
L 1174.867351 174.959461 
L 1176.105608 182.491559 
L 1178.582123 199.51083 
L 1179.82038 205.696179 
L 1181.058637 206.756091 
L 1182.296895 201.497614 
L 1184.773409 182.417433 
L 1186.011666 174.994364 
L 1187.249924 170.887145 
L 1188.488181 169.232567 
L 1189.726438 168.79656 
L 1190.964696 170.004337 
L 1192.202953 173.622279 
L 1193.44121 178.07374 
L 1194.679467 180.07811 
L 1195.917725 177.774128 
L 1197.155982 172.941447 
L 1198.394239 169.88018 
L 1199.632496 171.299601 
L 1200.870754 175.720056 
L 1202.109011 179.482421 
L 1203.347268 180.435028 
L 1204.585525 178.879818 
L 1205.823783 175.68529 
L 1207.06204 170.944078 
L 1208.300297 165.279865 
L 1209.538555 160.978027 
L 1210.776812 160.006485 
L 1212.015069 161.894783 
L 1213.253326 164.490076 
L 1214.491584 166.155941 
L 1216.968098 167.733612 
L 1218.206355 169.985136 
L 1219.444613 174.883834 
L 1221.921127 189.85382 
L 1223.159384 194.899314 
L 1224.397642 196.082127 
L 1225.635899 192.867271 
L 1226.874156 185.127606 
L 1229.350671 164.698292 
L 1230.588928 159.428684 
L 1231.827185 160.284425 
L 1233.065443 166.104098 
L 1234.3037 173.277937 
L 1235.541957 177.344098 
L 1236.780214 175.215174 
L 1238.018472 167.280524 
L 1239.256729 157.809501 
L 1240.494986 152.285775 
L 1241.733243 153.432825 
L 1242.971501 158.990743 
L 1244.209758 163.718771 
L 1245.448015 163.982603 
L 1246.686273 159.951394 
L 1249.162787 148.391287 
L 1250.401044 145.317556 
L 1251.639302 145.916403 
L 1252.877559 148.799116 
L 1254.115816 152.132369 
L 1255.354073 157.141247 
L 1256.592331 166.599698 
L 1260.307103 207.165832 
L 1261.54536 212.012471 
L 1262.783617 208.406105 
L 1264.021874 197.840233 
L 1265.260132 184.699865 
L 1266.498389 173.254646 
L 1267.736646 165.14354 
L 1268.974903 160.119876 
L 1270.213161 158.262801 
L 1271.451418 160.109415 
L 1273.927932 169.289094 
L 1275.16619 172.321498 
L 1276.404447 173.764248 
L 1277.642704 174.783969 
L 1278.880962 177.263591 
L 1280.119219 182.885924 
L 1281.357476 191.650304 
L 1283.833991 211.32994 
L 1285.072248 217.895592 
L 1286.310505 220.077072 
L 1287.548762 217.776202 
L 1288.78702 212.081227 
L 1291.263534 197.82008 
L 1294.978306 178.849504 
L 1296.216563 172.165135 
L 1297.454821 166.617402 
L 1298.693078 163.175926 
L 1299.931335 162.284418 
L 1301.169592 164.701967 
L 1302.40785 171.760353 
L 1304.884364 194.576866 
L 1306.122621 202.802942 
L 1307.360879 206.960345 
L 1308.599136 208.745366 
L 1309.837393 209.702306 
L 1311.07565 210.268476 
L 1312.313908 210.311859 
L 1313.552165 209.525717 
L 1314.790422 207.174567 
L 1316.02868 202.312824 
L 1317.266937 194.83055 
L 1318.505194 186.159794 
L 1319.743451 178.716454 
L 1320.981709 174.284324 
L 1322.219966 172.927143 
L 1323.458223 174.088503 
L 1324.69648 177.609303 
L 1325.934738 182.214633 
L 1327.172995 185.471596 
L 1328.411252 186.478571 
L 1329.649509 186.100177 
L 1332.126024 184.157642 
L 1333.364281 184.525016 
L 1334.602539 186.922396 
L 1338.31731 198.561396 
L 1339.555568 200.741854 
L 1340.793825 201.852812 
L 1342.032082 201.023388 
L 1343.270339 196.604141 
L 1344.508597 188.496264 
L 1345.746854 179.141582 
L 1346.985111 170.908469 
L 1348.223368 164.079268 
L 1349.461626 158.824864 
L 1350.699883 156.866085 
L 1351.93814 159.315905 
L 1354.414655 169.955321 
L 1355.652912 173.054173 
L 1356.891169 172.961337 
L 1358.129427 170.077432 
L 1359.367684 166.016626 
L 1360.605941 162.536832 
L 1361.844198 160.219151 
L 1363.082456 158.800387 
L 1364.320713 158.399692 
L 1365.55897 159.257974 
L 1368.035485 162.419293 
L 1369.273742 163.208764 
L 1371.750257 163.665504 
L 1372.988514 164.122348 
L 1374.226771 164.329591 
L 1375.465028 163.606061 
L 1376.703286 161.230371 
L 1377.941543 156.467066 
L 1379.1798 149.464726 
L 1380.418057 141.630573 
L 1381.656315 134.943394 
L 1382.894572 131.383502 
L 1384.132829 132.376546 
L 1385.371087 138.756883 
L 1386.609344 150.953163 
L 1389.085858 184.246712 
L 1390.324116 195.108302 
L 1391.562373 196.84833 
L 1392.80063 190.517769 
L 1395.277145 169.619187 
L 1396.515402 162.711068 
L 1397.753659 159.995579 
L 1398.991916 158.854077 
L 1400.230174 156.15741 
L 1401.468431 151.962599 
L 1402.706688 149.174538 
L 1403.944946 149.591366 
L 1405.183203 151.80223 
L 1406.42146 153.549895 
L 1407.659717 154.62972 
L 1408.897975 156.166832 
L 1410.136232 157.47456 
L 1411.374489 155.290482 
L 1412.612746 147.66613 
L 1413.851004 137.576139 
L 1415.089261 130.531437 
L 1416.327518 129.070777 
L 1418.804033 133.326865 
L 1420.04229 132.006073 
L 1421.280547 125.481977 
L 1422.518805 116.268545 
L 1423.757062 110.363647 
L 1424.995319 111.155099 
L 1426.233576 116.152672 
L 1427.471834 120.510834 
L 1428.710091 121.918031 
L 1429.948348 121.633002 
L 1431.186605 121.961177 
L 1433.66312 125.183017 
L 1434.901377 125.105789 
L 1436.139634 122.869013 
L 1437.377892 118.335284 
L 1438.616149 111.524108 
L 1439.854406 103.955912 
L 1441.092664 98.899226 
L 1442.330921 99.412246 
L 1443.569178 105.420671 
L 1444.807435 113.123875 
L 1446.045693 118.392383 
L 1447.28395 120.164966 
L 1448.522207 119.725746 
L 1449.760464 117.95332 
L 1450.998722 114.550882 
L 1452.236979 108.923056 
L 1454.713494 93.863725 
L 1455.951751 88.882478 
L 1457.190008 87.902011 
L 1458.428265 91.120485 
L 1459.666523 96.440773 
L 1460.90478 99.837352 
L 1462.143037 98.739556 
L 1464.619552 89.35495 
L 1465.857809 87.935144 
L 1467.096066 91.473987 
L 1468.334323 98.657151 
L 1470.810838 114.565474 
L 1474.52561 137.517902 
L 1475.763867 140.663318 
L 1477.002124 139.0565 
L 1478.240382 134.150784 
L 1479.478639 128.225285 
L 1480.716896 123.394247 
L 1481.955153 120.868509 
L 1483.193411 121.043152 
L 1484.431668 123.858685 
L 1485.669925 127.832572 
L 1486.908182 130.035661 
L 1488.14644 128.110635 
L 1489.384697 122.143562 
L 1490.622954 114.856132 
L 1491.861212 109.207507 
L 1493.099469 105.361199 
L 1494.337726 100.908322 
L 1495.575983 93.810146 
L 1496.814241 84.986363 
L 1498.052498 78.874399 
L 1499.290755 80.576747 
L 1500.529012 91.417961 
L 1503.005527 124.572024 
L 1504.243784 135.514888 
L 1505.482041 136.104038 
L 1506.720299 125.092738 
L 1507.958556 105.708196 
L 1509.196813 84.515658 
L 1510.435071 69.161808 
L 1511.673328 64.984744 
L 1512.911585 72.024434 
L 1515.3881 99.209167 
L 1516.626357 110.688577 
L 1517.864614 119.443781 
L 1519.102871 123.950289 
L 1520.341129 120.975367 
L 1521.579386 109.492574 
L 1524.0559 78.331232 
L 1525.294158 70.031977 
L 1526.532415 69.935819 
L 1527.770672 75.700464 
L 1529.00893 82.910427 
L 1530.247187 88.638441 
L 1531.485444 92.994297 
L 1532.723701 97.759945 
L 1533.961959 104.383916 
L 1535.200216 112.256958 
L 1536.438473 118.519335 
L 1537.67673 120.623866 
L 1538.914988 118.687171 
L 1540.153245 114.25789 
L 1543.868017 96.46701 
L 1545.106274 93.033432 
L 1546.344531 91.296428 
L 1548.821046 89.430435 
L 1550.059303 88.009875 
L 1551.29756 85.60817 
L 1552.535818 82.710177 
L 1553.774075 80.835289 
L 1555.012332 81.07344 
L 1556.250589 82.713455 
L 1557.488847 84.080967 
L 1558.727104 84.513 
L 1561.203619 84.795626 
L 1562.441876 84.104213 
L 1563.680133 81.517484 
L 1564.91839 78.177958 
L 1566.156648 77.123311 
L 1567.394905 80.360887 
L 1569.871419 93.29534 
L 1571.109677 97.201686 
L 1572.347934 97.379843 
L 1573.586191 94.587866 
L 1574.824448 91.219727 
L 1576.062706 90.363763 
L 1577.300963 94.54178 
L 1578.53922 103.888783 
L 1579.777478 115.330122 
L 1581.015735 124.525149 
L 1582.253992 128.448171 
L 1583.492249 126.434997 
L 1584.730507 119.861559 
L 1585.968764 110.429943 
L 1587.207021 98.647267 
L 1590.921793 57.838951 
L 1592.16005 50.521294 
L 1593.398307 47.979282 
L 1594.636565 50.409375 
L 1595.874822 59.705506 
L 1597.113079 75.913752 
L 1598.351337 94.774473 
L 1599.589594 110.325645 
L 1600.827851 118.319838 
L 1602.066108 117.185884 
L 1603.304366 107.565576 
L 1605.78088 76.624425 
L 1607.019137 65.035271 
L 1608.257395 59.490608 
L 1609.495652 59.284761 
L 1610.733909 63.068618 
L 1611.972166 69.067863 
L 1613.210424 74.483631 
L 1614.448681 77.193885 
L 1615.686938 77.957019 
L 1616.925196 79.447078 
L 1618.163453 83.227573 
L 1619.40171 88.226476 
L 1620.639967 91.969403 
L 1621.878225 92.712839 
L 1623.116482 90.437595 
L 1625.592996 82.537133 
L 1626.831254 79.776115 
L 1628.069511 78.670537 
L 1629.307768 78.459206 
L 1630.546026 77.710984 
L 1631.784283 76.146187 
L 1633.02254 75.277637 
L 1634.260797 76.014902 
L 1635.499055 77.333751 
L 1636.737312 78.008531 
L 1637.975569 77.785019 
L 1639.213826 78.374036 
L 1640.452084 83.210032 
L 1641.690341 92.857837 
L 1641.690341 92.857837 
" style="fill:none;stroke:#008000;stroke-linecap:square;stroke-width:1.5;"/>
   </g>
   <g id="patch_3">
    <path d="M 43.78125 586.86358 
L 43.78125 22.318125 
" style="fill:none;stroke:#000000;stroke-linecap:square;stroke-linejoin:miter;stroke-width:0.8;"/>
   </g>
   <g id="patch_4">
    <path d="M 1717.78125 586.86358 
L 1717.78125 22.318125 
" style="fill:none;stroke:#000000;stroke-linecap:square;stroke-linejoin:miter;stroke-width:0.8;"/>
   </g>
   <g id="patch_5">
    <path d="M 43.78125 586.86358 
L 1717.78125 586.86358 
" style="fill:none;stroke:#000000;stroke-linecap:square;stroke-linejoin:miter;stroke-width:0.8;"/>
   </g>
   <g id="patch_6">
    <path d="M 43.78125 22.318125 
L 1717.78125 22.318125 
" style="fill:none;stroke:#000000;stroke-linecap:square;stroke-linejoin:miter;stroke-width:0.8;"/>
   </g>
   <g id="text_17">
    <!-- before binarisation -->
    <g transform="translate(824.1825 16.318125)scale(0.12 -0.12)">
     <defs>
      <path d="M 3116 1747 
Q 3116 2381 2855 2742 
Q 2594 3103 2138 3103 
Q 1681 3103 1420 2742 
Q 1159 2381 1159 1747 
Q 1159 1113 1420 752 
Q 1681 391 2138 391 
Q 2594 391 2855 752 
Q 3116 1113 3116 1747 
z
M 1159 2969 
Q 1341 3281 1617 3432 
Q 1894 3584 2278 3584 
Q 2916 3584 3314 3078 
Q 3713 2572 3713 1747 
Q 3713 922 3314 415 
Q 2916 -91 2278 -91 
Q 1894 -91 1617 61 
Q 1341 213 1159 525 
L 1159 0 
L 581 0 
L 581 4863 
L 1159 4863 
L 1159 2969 
z
" id="DejaVuSans-62" transform="scale(0.015625)"/>
      <path d="M 1959 3097 
Q 1497 3097 1228 2736 
Q 959 2375 959 1747 
Q 959 1119 1226 758 
Q 1494 397 1959 397 
Q 2419 397 2687 759 
Q 2956 1122 2956 1747 
Q 2956 2369 2687 2733 
Q 2419 3097 1959 3097 
z
M 1959 3584 
Q 2709 3584 3137 3096 
Q 3566 2609 3566 1747 
Q 3566 888 3137 398 
Q 2709 -91 1959 -91 
Q 1206 -91 779 398 
Q 353 888 353 1747 
Q 353 2609 779 3096 
Q 1206 3584 1959 3584 
z
" id="DejaVuSans-6f" transform="scale(0.015625)"/>
      <path id="DejaVuSans-20" transform="scale(0.015625)"/>
      <path d="M 603 3500 
L 1178 3500 
L 1178 0 
L 603 0 
L 603 3500 
z
M 603 4863 
L 1178 4863 
L 1178 4134 
L 603 4134 
L 603 4863 
z
" id="DejaVuSans-69" transform="scale(0.015625)"/>
      <path d="M 3513 2113 
L 3513 0 
L 2938 0 
L 2938 2094 
Q 2938 2591 2744 2837 
Q 2550 3084 2163 3084 
Q 1697 3084 1428 2787 
Q 1159 2491 1159 1978 
L 1159 0 
L 581 0 
L 581 3500 
L 1159 3500 
L 1159 2956 
Q 1366 3272 1645 3428 
Q 1925 3584 2291 3584 
Q 2894 3584 3203 3211 
Q 3513 2838 3513 2113 
z
" id="DejaVuSans-6e" transform="scale(0.015625)"/>
      <path d="M 2834 3397 
L 2834 2853 
Q 2591 2978 2328 3040 
Q 2066 3103 1784 3103 
Q 1356 3103 1142 2972 
Q 928 2841 928 2578 
Q 928 2378 1081 2264 
Q 1234 2150 1697 2047 
L 1894 2003 
Q 2506 1872 2764 1633 
Q 3022 1394 3022 966 
Q 3022 478 2636 193 
Q 2250 -91 1575 -91 
Q 1294 -91 989 -36 
Q 684 19 347 128 
L 347 722 
Q 666 556 975 473 
Q 1284 391 1588 391 
Q 1994 391 2212 530 
Q 2431 669 2431 922 
Q 2431 1156 2273 1281 
Q 2116 1406 1581 1522 
L 1381 1569 
Q 847 1681 609 1914 
Q 372 2147 372 2553 
Q 372 3047 722 3315 
Q 1072 3584 1716 3584 
Q 2034 3584 2315 3537 
Q 2597 3491 2834 3397 
z
" id="DejaVuSans-73" transform="scale(0.015625)"/>
      <path d="M 1172 4494 
L 1172 3500 
L 2356 3500 
L 2356 3053 
L 1172 3053 
L 1172 1153 
Q 1172 725 1289 603 
Q 1406 481 1766 481 
L 2356 481 
L 2356 0 
L 1766 0 
Q 1100 0 847 248 
Q 594 497 594 1153 
L 594 3053 
L 172 3053 
L 172 3500 
L 594 3500 
L 594 4494 
L 1172 4494 
z
" id="DejaVuSans-74" transform="scale(0.015625)"/>
     </defs>
     <use xlink:href="#DejaVuSans-62"/>
     <use x="63.476562" xlink:href="#DejaVuSans-65"/>
     <use x="125" xlink:href="#DejaVuSans-66"/>
     <use x="160.205078" xlink:href="#DejaVuSans-6f"/>
     <use x="221.386719" xlink:href="#DejaVuSans-72"/>
     <use x="260.25" xlink:href="#DejaVuSans-65"/>
     <use x="321.773438" xlink:href="#DejaVuSans-20"/>
     <use x="353.560547" xlink:href="#DejaVuSans-62"/>
     <use x="417.037109" xlink:href="#DejaVuSans-69"/>
     <use x="444.820312" xlink:href="#DejaVuSans-6e"/>
     <use x="508.199219" xlink:href="#DejaVuSans-61"/>
     <use x="569.478516" xlink:href="#DejaVuSans-72"/>
     <use x="610.591797" xlink:href="#DejaVuSans-69"/>
     <use x="638.375" xlink:href="#DejaVuSans-73"/>
     <use x="690.474609" xlink:href="#DejaVuSans-61"/>
     <use x="751.753906" xlink:href="#DejaVuSans-74"/>
     <use x="790.962891" xlink:href="#DejaVuSans-69"/>
     <use x="818.746094" xlink:href="#DejaVuSans-6f"/>
     <use x="879.927734" xlink:href="#DejaVuSans-6e"/>
    </g>
   </g>
  </g>
  <g id="axes_2">
   <g id="patch_7">
    <path d="M 43.78125 1264.318125 
L 1717.78125 1264.318125 
L 1717.78125 699.77267 
L 43.78125 699.77267 
z
" style="fill:#ffffff;"/>
   </g>
   <g id="matplotlib.axis_3">
    <g id="xtick_8">
     <g id="line2d_16">
      <g>
       <use style="stroke:#000000;stroke-width:0.8;" x="119.872159" xlink:href="#m8b3dcf0c54" y="1264.318125"/>
      </g>
     </g>
     <g id="text_18">
      <!-- 0 -->
      <g transform="translate(116.690909 1278.916563)scale(0.1 -0.1)">
       <use xlink:href="#DejaVuSans-30"/>
      </g>
     </g>
    </g>
    <g id="xtick_9">
     <g id="line2d_17">
      <g>
       <use style="stroke:#000000;stroke-width:0.8;" x="367.523613" xlink:href="#m8b3dcf0c54" y="1264.318125"/>
      </g>
     </g>
     <g id="text_19">
      <!-- 200 -->
      <g transform="translate(357.979863 1278.916563)scale(0.1 -0.1)">
       <use xlink:href="#DejaVuSans-32"/>
       <use x="63.623047" xlink:href="#DejaVuSans-30"/>
       <use x="127.246094" xlink:href="#DejaVuSans-30"/>
      </g>
     </g>
    </g>
    <g id="xtick_10">
     <g id="line2d_18">
      <g>
       <use style="stroke:#000000;stroke-width:0.8;" x="615.175066" xlink:href="#m8b3dcf0c54" y="1264.318125"/>
      </g>
     </g>
     <g id="text_20">
      <!-- 400 -->
      <g transform="translate(605.631316 1278.916563)scale(0.1 -0.1)">
       <use xlink:href="#DejaVuSans-34"/>
       <use x="63.623047" xlink:href="#DejaVuSans-30"/>
       <use x="127.246094" xlink:href="#DejaVuSans-30"/>
      </g>
     </g>
    </g>
    <g id="xtick_11">
     <g id="line2d_19">
      <g>
       <use style="stroke:#000000;stroke-width:0.8;" x="862.82652" xlink:href="#m8b3dcf0c54" y="1264.318125"/>
      </g>
     </g>
     <g id="text_21">
      <!-- 600 -->
      <g transform="translate(853.28277 1278.916563)scale(0.1 -0.1)">
       <use xlink:href="#DejaVuSans-36"/>
       <use x="63.623047" xlink:href="#DejaVuSans-30"/>
       <use x="127.246094" xlink:href="#DejaVuSans-30"/>
      </g>
     </g>
    </g>
    <g id="xtick_12">
     <g id="line2d_20">
      <g>
       <use style="stroke:#000000;stroke-width:0.8;" x="1110.477973" xlink:href="#m8b3dcf0c54" y="1264.318125"/>
      </g>
     </g>
     <g id="text_22">
      <!-- 800 -->
      <g transform="translate(1100.934223 1278.916563)scale(0.1 -0.1)">
       <use xlink:href="#DejaVuSans-38"/>
       <use x="63.623047" xlink:href="#DejaVuSans-30"/>
       <use x="127.246094" xlink:href="#DejaVuSans-30"/>
      </g>
     </g>
    </g>
    <g id="xtick_13">
     <g id="line2d_21">
      <g>
       <use style="stroke:#000000;stroke-width:0.8;" x="1358.129427" xlink:href="#m8b3dcf0c54" y="1264.318125"/>
      </g>
     </g>
     <g id="text_23">
      <!-- 1000 -->
      <g transform="translate(1345.404427 1278.916563)scale(0.1 -0.1)">
       <use xlink:href="#DejaVuSans-31"/>
       <use x="63.623047" xlink:href="#DejaVuSans-30"/>
       <use x="127.246094" xlink:href="#DejaVuSans-30"/>
       <use x="190.869141" xlink:href="#DejaVuSans-30"/>
      </g>
     </g>
    </g>
    <g id="xtick_14">
     <g id="line2d_22">
      <g>
       <use style="stroke:#000000;stroke-width:0.8;" x="1605.78088" xlink:href="#m8b3dcf0c54" y="1264.318125"/>
      </g>
     </g>
     <g id="text_24">
      <!-- 1200 -->
      <g transform="translate(1593.05588 1278.916563)scale(0.1 -0.1)">
       <use xlink:href="#DejaVuSans-31"/>
       <use x="63.623047" xlink:href="#DejaVuSans-32"/>
       <use x="127.246094" xlink:href="#DejaVuSans-30"/>
       <use x="190.869141" xlink:href="#DejaVuSans-30"/>
      </g>
     </g>
    </g>
    <g id="text_25">
     <!-- frame -->
     <g transform="translate(865.954687 1292.594688)scale(0.1 -0.1)">
      <use xlink:href="#DejaVuSans-66"/>
      <use x="35.205078" xlink:href="#DejaVuSans-72"/>
      <use x="76.318359" xlink:href="#DejaVuSans-61"/>
      <use x="137.597656" xlink:href="#DejaVuSans-6d"/>
      <use x="235.009766" xlink:href="#DejaVuSans-65"/>
     </g>
    </g>
   </g>
   <g id="matplotlib.axis_4">
    <g id="ytick_8">
     <g id="line2d_23">
      <g>
       <use style="stroke:#000000;stroke-width:0.8;" x="43.78125" xlink:href="#m8c60f20d7f" y="1238.656968"/>
      </g>
     </g>
     <g id="text_26">
      <!-- 0.0 -->
      <g transform="translate(20.878125 1242.456187)scale(0.1 -0.1)">
       <use xlink:href="#DejaVuSans-30"/>
       <use x="63.623047" xlink:href="#DejaVuSans-2e"/>
       <use x="95.410156" xlink:href="#DejaVuSans-30"/>
      </g>
     </g>
    </g>
    <g id="ytick_9">
     <g id="line2d_24">
      <g>
       <use style="stroke:#000000;stroke-width:0.8;" x="43.78125" xlink:href="#m8c60f20d7f" y="1136.01234"/>
      </g>
     </g>
     <g id="text_27">
      <!-- 0.2 -->
      <g transform="translate(20.878125 1139.811559)scale(0.1 -0.1)">
       <use xlink:href="#DejaVuSans-30"/>
       <use x="63.623047" xlink:href="#DejaVuSans-2e"/>
       <use x="95.410156" xlink:href="#DejaVuSans-32"/>
      </g>
     </g>
    </g>
    <g id="ytick_10">
     <g id="line2d_25">
      <g>
       <use style="stroke:#000000;stroke-width:0.8;" x="43.78125" xlink:href="#m8c60f20d7f" y="1033.367712"/>
      </g>
     </g>
     <g id="text_28">
      <!-- 0.4 -->
      <g transform="translate(20.878125 1037.166931)scale(0.1 -0.1)">
       <use xlink:href="#DejaVuSans-30"/>
       <use x="63.623047" xlink:href="#DejaVuSans-2e"/>
       <use x="95.410156" xlink:href="#DejaVuSans-34"/>
      </g>
     </g>
    </g>
    <g id="ytick_11">
     <g id="line2d_26">
      <g>
       <use style="stroke:#000000;stroke-width:0.8;" x="43.78125" xlink:href="#m8c60f20d7f" y="930.723084"/>
      </g>
     </g>
     <g id="text_29">
      <!-- 0.6 -->
      <g transform="translate(20.878125 934.522302)scale(0.1 -0.1)">
       <use xlink:href="#DejaVuSans-30"/>
       <use x="63.623047" xlink:href="#DejaVuSans-2e"/>
       <use x="95.410156" xlink:href="#DejaVuSans-36"/>
      </g>
     </g>
    </g>
    <g id="ytick_12">
     <g id="line2d_27">
      <g>
       <use style="stroke:#000000;stroke-width:0.8;" x="43.78125" xlink:href="#m8c60f20d7f" y="828.078456"/>
      </g>
     </g>
     <g id="text_30">
      <!-- 0.8 -->
      <g transform="translate(20.878125 831.877674)scale(0.1 -0.1)">
       <use xlink:href="#DejaVuSans-30"/>
       <use x="63.623047" xlink:href="#DejaVuSans-2e"/>
       <use x="95.410156" xlink:href="#DejaVuSans-38"/>
      </g>
     </g>
    </g>
    <g id="ytick_13">
     <g id="line2d_28">
      <g>
       <use style="stroke:#000000;stroke-width:0.8;" x="43.78125" xlink:href="#m8c60f20d7f" y="725.433827"/>
      </g>
     </g>
     <g id="text_31">
      <!-- 1.0 -->
      <g transform="translate(20.878125 729.233046)scale(0.1 -0.1)">
       <use xlink:href="#DejaVuSans-31"/>
       <use x="63.623047" xlink:href="#DejaVuSans-2e"/>
       <use x="95.410156" xlink:href="#DejaVuSans-30"/>
      </g>
     </g>
    </g>
    <g id="text_32">
     <!-- GCaMP -->
     <g transform="translate(14.798437 999.803991)rotate(-90)scale(0.1 -0.1)">
      <use xlink:href="#DejaVuSans-47"/>
      <use x="77.490234" xlink:href="#DejaVuSans-43"/>
      <use x="147.314453" xlink:href="#DejaVuSans-61"/>
      <use x="208.59375" xlink:href="#DejaVuSans-4d"/>
      <use x="294.873047" xlink:href="#DejaVuSans-50"/>
     </g>
    </g>
   </g>
   <g id="line2d_29">
    <path clip-path="url(#p83c101064d)" d="M 119.872159 1238.656968 
L 646.131498 1238.656968 
L 647.369755 725.433827 
L 649.84627 725.433827 
L 651.084527 1238.656968 
L 675.849672 1238.656968 
L 677.087929 725.433827 
L 679.564444 725.433827 
L 680.802701 1238.656968 
L 684.517473 1238.656968 
L 685.75573 725.433827 
L 689.470502 725.433827 
L 690.708759 1238.656968 
L 994.08179 1238.656968 
L 995.320047 725.433827 
L 999.034819 725.433827 
L 1000.273076 1238.656968 
L 1454.713494 1238.656968 
L 1455.951751 725.433827 
L 1457.190008 725.433827 
L 1458.428265 1238.656968 
L 1463.381294 1238.656968 
L 1464.619552 725.433827 
L 1465.857809 725.433827 
L 1467.096066 1238.656968 
L 1495.575983 1238.656968 
L 1496.814241 725.433827 
L 1499.290755 725.433827 
L 1500.529012 1238.656968 
L 1507.958556 1238.656968 
L 1509.196813 725.433827 
L 1514.149842 725.433827 
L 1515.3881 1238.656968 
L 1522.817643 1238.656968 
L 1524.0559 725.433827 
L 1530.247187 725.433827 
L 1531.485444 1238.656968 
L 1547.582789 1238.656968 
L 1548.821046 725.433827 
L 1568.633162 725.433827 
L 1569.871419 1238.656968 
L 1587.207021 1238.656968 
L 1588.445278 725.433827 
L 1597.113079 725.433827 
L 1598.351337 1238.656968 
L 1604.542623 1238.656968 
L 1605.78088 725.433827 
L 1619.40171 725.433827 
L 1620.639967 1238.656968 
L 1623.116482 1238.656968 
L 1624.354739 725.433827 
L 1640.452084 725.433827 
L 1641.690341 1238.656968 
L 1641.690341 1238.656968 
" style="fill:none;stroke:#008000;stroke-linecap:square;stroke-width:1.5;"/>
   </g>
   <g id="patch_8">
    <path d="M 43.78125 1264.318125 
L 43.78125 699.77267 
" style="fill:none;stroke:#000000;stroke-linecap:square;stroke-linejoin:miter;stroke-width:0.8;"/>
   </g>
   <g id="patch_9">
    <path d="M 1717.78125 1264.318125 
L 1717.78125 699.77267 
" style="fill:none;stroke:#000000;stroke-linecap:square;stroke-linejoin:miter;stroke-width:0.8;"/>
   </g>
   <g id="patch_10">
    <path d="M 43.78125 1264.318125 
L 1717.78125 1264.318125 
" style="fill:none;stroke:#000000;stroke-linecap:square;stroke-linejoin:miter;stroke-width:0.8;"/>
   </g>
   <g id="patch_11">
    <path d="M 43.78125 699.77267 
L 1717.78125 699.77267 
" style="fill:none;stroke:#000000;stroke-linecap:square;stroke-linejoin:miter;stroke-width:0.8;"/>
   </g>
   <g id="text_33">
    <!-- before binarisation -->
    <g transform="translate(824.1825 693.77267)scale(0.12 -0.12)">
     <use xlink:href="#DejaVuSans-62"/>
     <use x="63.476562" xlink:href="#DejaVuSans-65"/>
     <use x="125" xlink:href="#DejaVuSans-66"/>
     <use x="160.205078" xlink:href="#DejaVuSans-6f"/>
     <use x="221.386719" xlink:href="#DejaVuSans-72"/>
     <use x="260.25" xlink:href="#DejaVuSans-65"/>
     <use x="321.773438" xlink:href="#DejaVuSans-20"/>
     <use x="353.560547" xlink:href="#DejaVuSans-62"/>
     <use x="417.037109" xlink:href="#DejaVuSans-69"/>
     <use x="444.820312" xlink:href="#DejaVuSans-6e"/>
     <use x="508.199219" xlink:href="#DejaVuSans-61"/>
     <use x="569.478516" xlink:href="#DejaVuSans-72"/>
     <use x="610.591797" xlink:href="#DejaVuSans-69"/>
     <use x="638.375" xlink:href="#DejaVuSans-73"/>
     <use x="690.474609" xlink:href="#DejaVuSans-61"/>
     <use x="751.753906" xlink:href="#DejaVuSans-74"/>
     <use x="790.962891" xlink:href="#DejaVuSans-69"/>
     <use x="818.746094" xlink:href="#DejaVuSans-6f"/>
     <use x="879.927734" xlink:href="#DejaVuSans-6e"/>
    </g>
   </g>
  </g>
 </g>
 <defs>
  <clipPath id="p23403ece9e">
   <rect height="564.545455" width="1674" x="43.78125" y="22.318125"/>
  </clipPath>
  <clipPath id="p83c101064d">
   <rect height="564.545455" width="1674" x="43.78125" y="699.77267"/>
  </clipPath>
 </defs>
</svg>
