<?xml version="1.0" encoding="utf-8" standalone="no"?>
<!DOCTYPE svg PUBLIC "-//W3C//DTD SVG 1.1//EN"
  "http://www.w3.org/Graphics/SVG/1.1/DTD/svg11.dtd">
<svg height="1301.874375pt" version="1.1" viewBox="0 0 1731.34375 1301.874375" width="1731.34375pt" xmlns="http://www.w3.org/2000/svg" xmlns:xlink="http://www.w3.org/1999/xlink">
 <metadata>
  <rdf:RDF xmlns:cc="http://creativecommons.org/ns#" xmlns:dc="http://purl.org/dc/elements/1.1/" xmlns:rdf="http://www.w3.org/1999/02/22-rdf-syntax-ns#">
   <cc:Work>
    <dc:type rdf:resource="http://purl.org/dc/dcmitype/StillImage"/>
    <dc:date>2022-07-24T15:54:43.555897</dc:date>
    <dc:format>image/svg+xml</dc:format>
    <dc:creator>
     <cc:Agent>
      <dc:title>Matplotlib v3.4.2, https://matplotlib.org/</dc:title>
     </cc:Agent>
    </dc:creator>
   </cc:Work>
  </rdf:RDF>
 </metadata>
 <defs>
  <style type="text/css">*{stroke-linecap:butt;stroke-linejoin:round;}</style>
 </defs>
 <g id="figure_1">
  <g id="patch_1">
   <path d="M 0 1301.874375 
L 1731.34375 1301.874375 
L 1731.34375 0 
L 0 0 
z
" style="fill:#ffffff;"/>
  </g>
  <g id="axes_1">
   <g id="patch_2">
    <path d="M 50.14375 586.86358 
L 1724.14375 586.86358 
L 1724.14375 22.318125 
L 50.14375 22.318125 
z
" style="fill:#ffffff;"/>
   </g>
   <g id="matplotlib.axis_1">
    <g id="xtick_1">
     <g id="line2d_1">
      <defs>
       <path d="M 0 0 
L 0 3.5 
" id="m99256869b8" style="stroke:#000000;stroke-width:0.8;"/>
      </defs>
      <g>
       <use style="stroke:#000000;stroke-width:0.8;" x="126.234659" xlink:href="#m99256869b8" y="586.86358"/>
      </g>
     </g>
     <g id="text_1">
      <!-- 0 -->
      <g transform="translate(123.053409 601.462017)scale(0.1 -0.1)">
       <defs>
        <path d="M 2034 4250 
Q 1547 4250 1301 3770 
Q 1056 3291 1056 2328 
Q 1056 1369 1301 889 
Q 1547 409 2034 409 
Q 2525 409 2770 889 
Q 3016 1369 3016 2328 
Q 3016 3291 2770 3770 
Q 2525 4250 2034 4250 
z
M 2034 4750 
Q 2819 4750 3233 4129 
Q 3647 3509 3647 2328 
Q 3647 1150 3233 529 
Q 2819 -91 2034 -91 
Q 1250 -91 836 529 
Q 422 1150 422 2328 
Q 422 3509 836 4129 
Q 1250 4750 2034 4750 
z
" id="DejaVuSans-30" transform="scale(0.015625)"/>
       </defs>
       <use xlink:href="#DejaVuSans-30"/>
      </g>
     </g>
    </g>
    <g id="xtick_2">
     <g id="line2d_2">
      <g>
       <use style="stroke:#000000;stroke-width:0.8;" x="373.886113" xlink:href="#m99256869b8" y="586.86358"/>
      </g>
     </g>
     <g id="text_2">
      <!-- 200 -->
      <g transform="translate(364.342363 601.462017)scale(0.1 -0.1)">
       <defs>
        <path d="M 1228 531 
L 3431 531 
L 3431 0 
L 469 0 
L 469 531 
Q 828 903 1448 1529 
Q 2069 2156 2228 2338 
Q 2531 2678 2651 2914 
Q 2772 3150 2772 3378 
Q 2772 3750 2511 3984 
Q 2250 4219 1831 4219 
Q 1534 4219 1204 4116 
Q 875 4013 500 3803 
L 500 4441 
Q 881 4594 1212 4672 
Q 1544 4750 1819 4750 
Q 2544 4750 2975 4387 
Q 3406 4025 3406 3419 
Q 3406 3131 3298 2873 
Q 3191 2616 2906 2266 
Q 2828 2175 2409 1742 
Q 1991 1309 1228 531 
z
" id="DejaVuSans-32" transform="scale(0.015625)"/>
       </defs>
       <use xlink:href="#DejaVuSans-32"/>
       <use x="63.623047" xlink:href="#DejaVuSans-30"/>
       <use x="127.246094" xlink:href="#DejaVuSans-30"/>
      </g>
     </g>
    </g>
    <g id="xtick_3">
     <g id="line2d_3">
      <g>
       <use style="stroke:#000000;stroke-width:0.8;" x="621.537566" xlink:href="#m99256869b8" y="586.86358"/>
      </g>
     </g>
     <g id="text_3">
      <!-- 400 -->
      <g transform="translate(611.993816 601.462017)scale(0.1 -0.1)">
       <defs>
        <path d="M 2419 4116 
L 825 1625 
L 2419 1625 
L 2419 4116 
z
M 2253 4666 
L 3047 4666 
L 3047 1625 
L 3713 1625 
L 3713 1100 
L 3047 1100 
L 3047 0 
L 2419 0 
L 2419 1100 
L 313 1100 
L 313 1709 
L 2253 4666 
z
" id="DejaVuSans-34" transform="scale(0.015625)"/>
       </defs>
       <use xlink:href="#DejaVuSans-34"/>
       <use x="63.623047" xlink:href="#DejaVuSans-30"/>
       <use x="127.246094" xlink:href="#DejaVuSans-30"/>
      </g>
     </g>
    </g>
    <g id="xtick_4">
     <g id="line2d_4">
      <g>
       <use style="stroke:#000000;stroke-width:0.8;" x="869.18902" xlink:href="#m99256869b8" y="586.86358"/>
      </g>
     </g>
     <g id="text_4">
      <!-- 600 -->
      <g transform="translate(859.64527 601.462017)scale(0.1 -0.1)">
       <defs>
        <path d="M 2113 2584 
Q 1688 2584 1439 2293 
Q 1191 2003 1191 1497 
Q 1191 994 1439 701 
Q 1688 409 2113 409 
Q 2538 409 2786 701 
Q 3034 994 3034 1497 
Q 3034 2003 2786 2293 
Q 2538 2584 2113 2584 
z
M 3366 4563 
L 3366 3988 
Q 3128 4100 2886 4159 
Q 2644 4219 2406 4219 
Q 1781 4219 1451 3797 
Q 1122 3375 1075 2522 
Q 1259 2794 1537 2939 
Q 1816 3084 2150 3084 
Q 2853 3084 3261 2657 
Q 3669 2231 3669 1497 
Q 3669 778 3244 343 
Q 2819 -91 2113 -91 
Q 1303 -91 875 529 
Q 447 1150 447 2328 
Q 447 3434 972 4092 
Q 1497 4750 2381 4750 
Q 2619 4750 2861 4703 
Q 3103 4656 3366 4563 
z
" id="DejaVuSans-36" transform="scale(0.015625)"/>
       </defs>
       <use xlink:href="#DejaVuSans-36"/>
       <use x="63.623047" xlink:href="#DejaVuSans-30"/>
       <use x="127.246094" xlink:href="#DejaVuSans-30"/>
      </g>
     </g>
    </g>
    <g id="xtick_5">
     <g id="line2d_5">
      <g>
       <use style="stroke:#000000;stroke-width:0.8;" x="1116.840473" xlink:href="#m99256869b8" y="586.86358"/>
      </g>
     </g>
     <g id="text_5">
      <!-- 800 -->
      <g transform="translate(1107.296723 601.462017)scale(0.1 -0.1)">
       <defs>
        <path d="M 2034 2216 
Q 1584 2216 1326 1975 
Q 1069 1734 1069 1313 
Q 1069 891 1326 650 
Q 1584 409 2034 409 
Q 2484 409 2743 651 
Q 3003 894 3003 1313 
Q 3003 1734 2745 1975 
Q 2488 2216 2034 2216 
z
M 1403 2484 
Q 997 2584 770 2862 
Q 544 3141 544 3541 
Q 544 4100 942 4425 
Q 1341 4750 2034 4750 
Q 2731 4750 3128 4425 
Q 3525 4100 3525 3541 
Q 3525 3141 3298 2862 
Q 3072 2584 2669 2484 
Q 3125 2378 3379 2068 
Q 3634 1759 3634 1313 
Q 3634 634 3220 271 
Q 2806 -91 2034 -91 
Q 1263 -91 848 271 
Q 434 634 434 1313 
Q 434 1759 690 2068 
Q 947 2378 1403 2484 
z
M 1172 3481 
Q 1172 3119 1398 2916 
Q 1625 2713 2034 2713 
Q 2441 2713 2670 2916 
Q 2900 3119 2900 3481 
Q 2900 3844 2670 4047 
Q 2441 4250 2034 4250 
Q 1625 4250 1398 4047 
Q 1172 3844 1172 3481 
z
" id="DejaVuSans-38" transform="scale(0.015625)"/>
       </defs>
       <use xlink:href="#DejaVuSans-38"/>
       <use x="63.623047" xlink:href="#DejaVuSans-30"/>
       <use x="127.246094" xlink:href="#DejaVuSans-30"/>
      </g>
     </g>
    </g>
    <g id="xtick_6">
     <g id="line2d_6">
      <g>
       <use style="stroke:#000000;stroke-width:0.8;" x="1364.491927" xlink:href="#m99256869b8" y="586.86358"/>
      </g>
     </g>
     <g id="text_6">
      <!-- 1000 -->
      <g transform="translate(1351.766927 601.462017)scale(0.1 -0.1)">
       <defs>
        <path d="M 794 531 
L 1825 531 
L 1825 4091 
L 703 3866 
L 703 4441 
L 1819 4666 
L 2450 4666 
L 2450 531 
L 3481 531 
L 3481 0 
L 794 0 
L 794 531 
z
" id="DejaVuSans-31" transform="scale(0.015625)"/>
       </defs>
       <use xlink:href="#DejaVuSans-31"/>
       <use x="63.623047" xlink:href="#DejaVuSans-30"/>
       <use x="127.246094" xlink:href="#DejaVuSans-30"/>
       <use x="190.869141" xlink:href="#DejaVuSans-30"/>
      </g>
     </g>
    </g>
    <g id="xtick_7">
     <g id="line2d_7">
      <g>
       <use style="stroke:#000000;stroke-width:0.8;" x="1612.14338" xlink:href="#m99256869b8" y="586.86358"/>
      </g>
     </g>
     <g id="text_7">
      <!-- 1200 -->
      <g transform="translate(1599.41838 601.462017)scale(0.1 -0.1)">
       <use xlink:href="#DejaVuSans-31"/>
       <use x="63.623047" xlink:href="#DejaVuSans-32"/>
       <use x="127.246094" xlink:href="#DejaVuSans-30"/>
       <use x="190.869141" xlink:href="#DejaVuSans-30"/>
      </g>
     </g>
    </g>
    <g id="text_8">
     <!-- frame -->
     <g transform="translate(872.317187 615.140142)scale(0.1 -0.1)">
      <defs>
       <path d="M 2375 4863 
L 2375 4384 
L 1825 4384 
Q 1516 4384 1395 4259 
Q 1275 4134 1275 3809 
L 1275 3500 
L 2222 3500 
L 2222 3053 
L 1275 3053 
L 1275 0 
L 697 0 
L 697 3053 
L 147 3053 
L 147 3500 
L 697 3500 
L 697 3744 
Q 697 4328 969 4595 
Q 1241 4863 1831 4863 
L 2375 4863 
z
" id="DejaVuSans-66" transform="scale(0.015625)"/>
       <path d="M 2631 2963 
Q 2534 3019 2420 3045 
Q 2306 3072 2169 3072 
Q 1681 3072 1420 2755 
Q 1159 2438 1159 1844 
L 1159 0 
L 581 0 
L 581 3500 
L 1159 3500 
L 1159 2956 
Q 1341 3275 1631 3429 
Q 1922 3584 2338 3584 
Q 2397 3584 2469 3576 
Q 2541 3569 2628 3553 
L 2631 2963 
z
" id="DejaVuSans-72" transform="scale(0.015625)"/>
       <path d="M 2194 1759 
Q 1497 1759 1228 1600 
Q 959 1441 959 1056 
Q 959 750 1161 570 
Q 1363 391 1709 391 
Q 2188 391 2477 730 
Q 2766 1069 2766 1631 
L 2766 1759 
L 2194 1759 
z
M 3341 1997 
L 3341 0 
L 2766 0 
L 2766 531 
Q 2569 213 2275 61 
Q 1981 -91 1556 -91 
Q 1019 -91 701 211 
Q 384 513 384 1019 
Q 384 1609 779 1909 
Q 1175 2209 1959 2209 
L 2766 2209 
L 2766 2266 
Q 2766 2663 2505 2880 
Q 2244 3097 1772 3097 
Q 1472 3097 1187 3025 
Q 903 2953 641 2809 
L 641 3341 
Q 956 3463 1253 3523 
Q 1550 3584 1831 3584 
Q 2591 3584 2966 3190 
Q 3341 2797 3341 1997 
z
" id="DejaVuSans-61" transform="scale(0.015625)"/>
       <path d="M 3328 2828 
Q 3544 3216 3844 3400 
Q 4144 3584 4550 3584 
Q 5097 3584 5394 3201 
Q 5691 2819 5691 2113 
L 5691 0 
L 5113 0 
L 5113 2094 
Q 5113 2597 4934 2840 
Q 4756 3084 4391 3084 
Q 3944 3084 3684 2787 
Q 3425 2491 3425 1978 
L 3425 0 
L 2847 0 
L 2847 2094 
Q 2847 2600 2669 2842 
Q 2491 3084 2119 3084 
Q 1678 3084 1418 2786 
Q 1159 2488 1159 1978 
L 1159 0 
L 581 0 
L 581 3500 
L 1159 3500 
L 1159 2956 
Q 1356 3278 1631 3431 
Q 1906 3584 2284 3584 
Q 2666 3584 2933 3390 
Q 3200 3197 3328 2828 
z
" id="DejaVuSans-6d" transform="scale(0.015625)"/>
       <path d="M 3597 1894 
L 3597 1613 
L 953 1613 
Q 991 1019 1311 708 
Q 1631 397 2203 397 
Q 2534 397 2845 478 
Q 3156 559 3463 722 
L 3463 178 
Q 3153 47 2828 -22 
Q 2503 -91 2169 -91 
Q 1331 -91 842 396 
Q 353 884 353 1716 
Q 353 2575 817 3079 
Q 1281 3584 2069 3584 
Q 2775 3584 3186 3129 
Q 3597 2675 3597 1894 
z
M 3022 2063 
Q 3016 2534 2758 2815 
Q 2500 3097 2075 3097 
Q 1594 3097 1305 2825 
Q 1016 2553 972 2059 
L 3022 2063 
z
" id="DejaVuSans-65" transform="scale(0.015625)"/>
      </defs>
      <use xlink:href="#DejaVuSans-66"/>
      <use x="35.205078" xlink:href="#DejaVuSans-72"/>
      <use x="76.318359" xlink:href="#DejaVuSans-61"/>
      <use x="137.597656" xlink:href="#DejaVuSans-6d"/>
      <use x="235.009766" xlink:href="#DejaVuSans-65"/>
     </g>
    </g>
   </g>
   <g id="matplotlib.axis_2">
    <g id="ytick_1">
     <g id="line2d_8">
      <defs>
       <path d="M 0 0 
L -3.5 0 
" id="ma239a5fa87" style="stroke:#000000;stroke-width:0.8;"/>
      </defs>
      <g>
       <use style="stroke:#000000;stroke-width:0.8;" x="50.14375" xlink:href="#ma239a5fa87" y="561.202423"/>
      </g>
     </g>
     <g id="text_9">
      <!-- 0.00 -->
      <g transform="translate(20.878125 565.001641)scale(0.1 -0.1)">
       <defs>
        <path d="M 684 794 
L 1344 794 
L 1344 0 
L 684 0 
L 684 794 
z
" id="DejaVuSans-2e" transform="scale(0.015625)"/>
       </defs>
       <use xlink:href="#DejaVuSans-30"/>
       <use x="63.623047" xlink:href="#DejaVuSans-2e"/>
       <use x="95.410156" xlink:href="#DejaVuSans-30"/>
       <use x="159.033203" xlink:href="#DejaVuSans-30"/>
      </g>
     </g>
    </g>
    <g id="ytick_2">
     <g id="line2d_9">
      <g>
       <use style="stroke:#000000;stroke-width:0.8;" x="50.14375" xlink:href="#ma239a5fa87" y="494.390715"/>
      </g>
     </g>
     <g id="text_10">
      <!-- 0.25 -->
      <g transform="translate(20.878125 498.189934)scale(0.1 -0.1)">
       <defs>
        <path d="M 691 4666 
L 3169 4666 
L 3169 4134 
L 1269 4134 
L 1269 2991 
Q 1406 3038 1543 3061 
Q 1681 3084 1819 3084 
Q 2600 3084 3056 2656 
Q 3513 2228 3513 1497 
Q 3513 744 3044 326 
Q 2575 -91 1722 -91 
Q 1428 -91 1123 -41 
Q 819 9 494 109 
L 494 744 
Q 775 591 1075 516 
Q 1375 441 1709 441 
Q 2250 441 2565 725 
Q 2881 1009 2881 1497 
Q 2881 1984 2565 2268 
Q 2250 2553 1709 2553 
Q 1456 2553 1204 2497 
Q 953 2441 691 2322 
L 691 4666 
z
" id="DejaVuSans-35" transform="scale(0.015625)"/>
       </defs>
       <use xlink:href="#DejaVuSans-30"/>
       <use x="63.623047" xlink:href="#DejaVuSans-2e"/>
       <use x="95.410156" xlink:href="#DejaVuSans-32"/>
       <use x="159.033203" xlink:href="#DejaVuSans-35"/>
      </g>
     </g>
    </g>
    <g id="ytick_3">
     <g id="line2d_10">
      <g>
       <use style="stroke:#000000;stroke-width:0.8;" x="50.14375" xlink:href="#ma239a5fa87" y="427.579008"/>
      </g>
     </g>
     <g id="text_11">
      <!-- 0.50 -->
      <g transform="translate(20.878125 431.378226)scale(0.1 -0.1)">
       <use xlink:href="#DejaVuSans-30"/>
       <use x="63.623047" xlink:href="#DejaVuSans-2e"/>
       <use x="95.410156" xlink:href="#DejaVuSans-35"/>
       <use x="159.033203" xlink:href="#DejaVuSans-30"/>
      </g>
     </g>
    </g>
    <g id="ytick_4">
     <g id="line2d_11">
      <g>
       <use style="stroke:#000000;stroke-width:0.8;" x="50.14375" xlink:href="#ma239a5fa87" y="360.7673"/>
      </g>
     </g>
     <g id="text_12">
      <!-- 0.75 -->
      <g transform="translate(20.878125 364.566519)scale(0.1 -0.1)">
       <defs>
        <path d="M 525 4666 
L 3525 4666 
L 3525 4397 
L 1831 0 
L 1172 0 
L 2766 4134 
L 525 4134 
L 525 4666 
z
" id="DejaVuSans-37" transform="scale(0.015625)"/>
       </defs>
       <use xlink:href="#DejaVuSans-30"/>
       <use x="63.623047" xlink:href="#DejaVuSans-2e"/>
       <use x="95.410156" xlink:href="#DejaVuSans-37"/>
       <use x="159.033203" xlink:href="#DejaVuSans-35"/>
      </g>
     </g>
    </g>
    <g id="ytick_5">
     <g id="line2d_12">
      <g>
       <use style="stroke:#000000;stroke-width:0.8;" x="50.14375" xlink:href="#ma239a5fa87" y="293.955593"/>
      </g>
     </g>
     <g id="text_13">
      <!-- 1.00 -->
      <g transform="translate(20.878125 297.754811)scale(0.1 -0.1)">
       <use xlink:href="#DejaVuSans-31"/>
       <use x="63.623047" xlink:href="#DejaVuSans-2e"/>
       <use x="95.410156" xlink:href="#DejaVuSans-30"/>
       <use x="159.033203" xlink:href="#DejaVuSans-30"/>
      </g>
     </g>
    </g>
    <g id="ytick_6">
     <g id="line2d_13">
      <g>
       <use style="stroke:#000000;stroke-width:0.8;" x="50.14375" xlink:href="#ma239a5fa87" y="227.143885"/>
      </g>
     </g>
     <g id="text_14">
      <!-- 1.25 -->
      <g transform="translate(20.878125 230.943104)scale(0.1 -0.1)">
       <use xlink:href="#DejaVuSans-31"/>
       <use x="63.623047" xlink:href="#DejaVuSans-2e"/>
       <use x="95.410156" xlink:href="#DejaVuSans-32"/>
       <use x="159.033203" xlink:href="#DejaVuSans-35"/>
      </g>
     </g>
    </g>
    <g id="ytick_7">
     <g id="line2d_14">
      <g>
       <use style="stroke:#000000;stroke-width:0.8;" x="50.14375" xlink:href="#ma239a5fa87" y="160.332178"/>
      </g>
     </g>
     <g id="text_15">
      <!-- 1.50 -->
      <g transform="translate(20.878125 164.131396)scale(0.1 -0.1)">
       <use xlink:href="#DejaVuSans-31"/>
       <use x="63.623047" xlink:href="#DejaVuSans-2e"/>
       <use x="95.410156" xlink:href="#DejaVuSans-35"/>
       <use x="159.033203" xlink:href="#DejaVuSans-30"/>
      </g>
     </g>
    </g>
    <g id="ytick_8">
     <g id="line2d_15">
      <g>
       <use style="stroke:#000000;stroke-width:0.8;" x="50.14375" xlink:href="#ma239a5fa87" y="93.52047"/>
      </g>
     </g>
     <g id="text_16">
      <!-- 1.75 -->
      <g transform="translate(20.878125 97.319689)scale(0.1 -0.1)">
       <use xlink:href="#DejaVuSans-31"/>
       <use x="63.623047" xlink:href="#DejaVuSans-2e"/>
       <use x="95.410156" xlink:href="#DejaVuSans-37"/>
       <use x="159.033203" xlink:href="#DejaVuSans-35"/>
      </g>
     </g>
    </g>
    <g id="ytick_9">
     <g id="line2d_16">
      <g>
       <use style="stroke:#000000;stroke-width:0.8;" x="50.14375" xlink:href="#ma239a5fa87" y="26.708763"/>
      </g>
     </g>
     <g id="text_17">
      <!-- 2.00 -->
      <g transform="translate(20.878125 30.507981)scale(0.1 -0.1)">
       <use xlink:href="#DejaVuSans-32"/>
       <use x="63.623047" xlink:href="#DejaVuSans-2e"/>
       <use x="95.410156" xlink:href="#DejaVuSans-30"/>
       <use x="159.033203" xlink:href="#DejaVuSans-30"/>
      </g>
     </g>
    </g>
    <g id="text_18">
     <!-- GCaMP -->
     <g transform="translate(14.798438 322.349446)rotate(-90)scale(0.1 -0.1)">
      <defs>
       <path d="M 3809 666 
L 3809 1919 
L 2778 1919 
L 2778 2438 
L 4434 2438 
L 4434 434 
Q 4069 175 3628 42 
Q 3188 -91 2688 -91 
Q 1594 -91 976 548 
Q 359 1188 359 2328 
Q 359 3472 976 4111 
Q 1594 4750 2688 4750 
Q 3144 4750 3555 4637 
Q 3966 4525 4313 4306 
L 4313 3634 
Q 3963 3931 3569 4081 
Q 3175 4231 2741 4231 
Q 1884 4231 1454 3753 
Q 1025 3275 1025 2328 
Q 1025 1384 1454 906 
Q 1884 428 2741 428 
Q 3075 428 3337 486 
Q 3600 544 3809 666 
z
" id="DejaVuSans-47" transform="scale(0.015625)"/>
       <path d="M 4122 4306 
L 4122 3641 
Q 3803 3938 3442 4084 
Q 3081 4231 2675 4231 
Q 1875 4231 1450 3742 
Q 1025 3253 1025 2328 
Q 1025 1406 1450 917 
Q 1875 428 2675 428 
Q 3081 428 3442 575 
Q 3803 722 4122 1019 
L 4122 359 
Q 3791 134 3420 21 
Q 3050 -91 2638 -91 
Q 1578 -91 968 557 
Q 359 1206 359 2328 
Q 359 3453 968 4101 
Q 1578 4750 2638 4750 
Q 3056 4750 3426 4639 
Q 3797 4528 4122 4306 
z
" id="DejaVuSans-43" transform="scale(0.015625)"/>
       <path d="M 628 4666 
L 1569 4666 
L 2759 1491 
L 3956 4666 
L 4897 4666 
L 4897 0 
L 4281 0 
L 4281 4097 
L 3078 897 
L 2444 897 
L 1241 4097 
L 1241 0 
L 628 0 
L 628 4666 
z
" id="DejaVuSans-4d" transform="scale(0.015625)"/>
       <path d="M 1259 4147 
L 1259 2394 
L 2053 2394 
Q 2494 2394 2734 2622 
Q 2975 2850 2975 3272 
Q 2975 3691 2734 3919 
Q 2494 4147 2053 4147 
L 1259 4147 
z
M 628 4666 
L 2053 4666 
Q 2838 4666 3239 4311 
Q 3641 3956 3641 3272 
Q 3641 2581 3239 2228 
Q 2838 1875 2053 1875 
L 1259 1875 
L 1259 0 
L 628 0 
L 628 4666 
z
" id="DejaVuSans-50" transform="scale(0.015625)"/>
      </defs>
      <use xlink:href="#DejaVuSans-47"/>
      <use x="77.490234" xlink:href="#DejaVuSans-43"/>
      <use x="147.314453" xlink:href="#DejaVuSans-61"/>
      <use x="208.59375" xlink:href="#DejaVuSans-4d"/>
      <use x="294.873047" xlink:href="#DejaVuSans-50"/>
     </g>
    </g>
   </g>
   <g id="line2d_17">
    <path clip-path="url(#pefe87cf589)" d="M 126.234659 297.502665 
L 127.472916 293.154649 
L 128.711174 290.545042 
L 129.949431 290.209467 
L 131.187688 291.229173 
L 132.425945 291.946583 
L 133.664203 290.735987 
L 134.90246 286.501099 
L 136.140717 279.143166 
L 138.617232 261.325379 
L 139.855489 255.642638 
L 141.093746 253.798174 
L 142.332004 255.692142 
L 143.570261 260.927218 
L 146.046775 276.68747 
L 147.285033 282.96213 
L 148.52329 285.938288 
L 149.761547 285.905533 
L 150.999804 284.225602 
L 152.238062 281.960083 
L 154.714576 276.572021 
L 155.952834 274.453892 
L 157.191091 274.371302 
L 158.429348 276.641918 
L 159.667605 279.891127 
L 160.905863 282.443851 
L 162.14412 283.635072 
L 163.382377 283.510056 
L 164.620634 282.288119 
L 165.858892 280.505033 
L 167.097149 278.971283 
L 168.335406 278.360333 
L 169.573663 278.997528 
L 170.811921 280.801648 
L 173.288435 285.717955 
L 174.526693 287.588256 
L 175.76495 288.17633 
L 177.003207 286.949958 
L 178.241464 284.353781 
L 180.717979 278.733413 
L 183.194493 273.595798 
L 184.432751 270.754191 
L 185.671008 268.550778 
L 186.909265 268.491326 
L 188.147522 271.152233 
L 190.624037 279.85182 
L 191.862294 282.339194 
L 193.100552 282.383303 
L 194.338809 280.847922 
L 195.577066 278.963561 
L 196.815323 277.599646 
L 198.053581 277.528441 
L 199.291838 279.098375 
L 200.530095 281.550765 
L 201.768352 283.447107 
L 203.00661 283.904456 
L 204.244867 283.271574 
L 205.483124 282.496325 
L 206.721381 281.895681 
L 207.959639 280.921517 
L 209.197896 279.11473 
L 211.674411 274.478248 
L 212.912668 272.81051 
L 214.150925 271.945853 
L 215.389182 271.741457 
L 216.62744 271.690226 
L 217.865697 271.440898 
L 219.103954 271.483 
L 220.342211 272.618354 
L 222.818726 277.426786 
L 224.056983 278.543392 
L 225.29524 276.918942 
L 226.533498 272.826495 
L 230.24827 257.817993 
L 231.486527 253.439111 
L 232.724784 249.690786 
L 235.201299 243.470255 
L 236.439556 240.940668 
L 237.677813 239.171003 
L 238.91607 238.411481 
L 240.154328 238.585991 
L 241.392585 239.563075 
L 242.630842 241.386838 
L 243.8691 243.696166 
L 245.107357 245.503776 
L 246.345614 245.953731 
L 247.583871 245.000343 
L 248.822129 243.151856 
L 250.060386 240.646582 
L 251.298643 237.60501 
L 252.5369 234.904357 
L 253.775158 233.573201 
L 255.013415 233.589167 
L 256.251672 234.124442 
L 257.489929 234.248026 
L 258.728187 233.219423 
L 259.966444 230.655102 
L 261.204701 226.391296 
L 262.442959 220.357702 
L 263.681216 213.294717 
L 264.919473 207.39561 
L 266.15773 204.879073 
L 267.395988 206.289424 
L 268.634245 210.982406 
L 271.110759 223.771472 
L 272.349017 227.489843 
L 273.587274 228.60144 
L 276.063788 228.315473 
L 277.302046 228.659907 
L 278.540303 228.748196 
L 279.77856 227.756455 
L 281.016818 225.352166 
L 282.255075 221.668649 
L 285.969847 208.422479 
L 287.208104 206.171062 
L 288.446361 205.845989 
L 289.684618 206.511524 
L 290.922876 206.989135 
L 292.161133 207.200527 
L 293.39939 208.301909 
L 294.637647 211.432096 
L 295.875905 216.466763 
L 298.352419 227.854114 
L 299.590677 232.877709 
L 302.067191 241.103394 
L 304.543706 249.040626 
L 305.781963 251.538308 
L 307.02022 251.824509 
L 308.258477 249.713263 
L 309.496735 245.474551 
L 311.973249 234.582382 
L 313.211506 230.149949 
L 314.449764 227.459488 
L 315.688021 226.868086 
L 318.164536 228.350857 
L 319.402793 228.046586 
L 320.64105 226.706032 
L 323.117565 222.694034 
L 324.355822 221.072041 
L 325.594079 219.776503 
L 326.832336 218.306596 
L 328.070594 216.192394 
L 329.308851 213.234026 
L 330.547108 209.543541 
L 331.785366 205.150809 
L 335.500137 190.099735 
L 336.738395 187.471338 
L 337.976652 187.107947 
L 339.214909 188.738899 
L 341.691424 194.275511 
L 342.929681 195.41712 
L 344.167938 193.723319 
L 345.406195 189.266866 
L 347.88271 176.713193 
L 349.120967 171.987084 
L 350.359225 169.950698 
L 351.597482 169.904186 
L 352.835739 170.325347 
L 354.073996 170.271223 
L 355.312254 169.630887 
L 357.788768 167.714992 
L 360.265283 165.115275 
L 361.50354 164.749229 
L 362.741797 166.364722 
L 363.980054 170.076223 
L 366.456569 180.329963 
L 367.694826 182.678316 
L 368.933084 180.538988 
L 370.171341 174.778424 
L 371.409598 168.289835 
L 372.647855 163.51422 
L 373.886113 160.923156 
L 375.12437 159.934222 
L 376.362627 160.546687 
L 377.600884 163.320109 
L 378.839142 168.065185 
L 380.077399 173.451684 
L 381.315656 177.558165 
L 382.553913 178.303478 
L 383.792171 174.459067 
L 385.030428 166.871361 
L 386.268685 157.897775 
L 387.506943 149.761706 
L 388.7452 144.185644 
L 389.983457 142.623111 
L 391.221714 145.566024 
L 392.459972 152.009147 
L 394.936486 167.105446 
L 396.174743 173.065715 
L 397.413001 178.077764 
L 398.651258 181.962183 
L 399.889515 184.003702 
L 401.127772 183.939378 
L 402.36603 182.266225 
L 404.842544 177.720148 
L 406.080802 176.10605 
L 407.319059 174.294478 
L 408.557316 171.446212 
L 409.795573 167.659253 
L 413.510345 155.323071 
L 414.748602 152.354618 
L 415.98686 150.515211 
L 418.463374 148.103517 
L 419.701632 145.943494 
L 420.939889 142.743801 
L 422.178146 139.18351 
L 423.416403 136.485302 
L 424.654661 135.566155 
L 425.892918 136.214275 
L 429.60769 140.041735 
L 430.845947 140.353068 
L 432.084204 139.348739 
L 433.322461 136.797928 
L 435.798976 129.544122 
L 437.037233 126.583969 
L 438.275491 124.770614 
L 439.513748 124.90493 
L 440.752005 127.168339 
L 444.466777 137.397184 
L 445.705034 139.538718 
L 446.943291 138.945979 
L 448.181549 135.013458 
L 449.419806 129.610406 
L 450.658063 126.279487 
L 451.89632 127.172008 
L 453.134578 131.349505 
L 454.372835 136.099987 
L 455.611092 139.188068 
L 456.84935 140.139764 
L 458.087607 139.708073 
L 459.325864 138.526215 
L 461.802379 134.926813 
L 463.040636 133.898119 
L 464.278893 133.881661 
L 465.51715 133.631105 
L 466.755408 131.888067 
L 467.993665 128.530607 
L 470.470179 119.597241 
L 471.708437 116.517697 
L 472.946694 116.016892 
L 474.184951 117.702743 
L 477.899723 125.267404 
L 479.13798 128.077627 
L 480.376238 130.330125 
L 481.614495 131.157379 
L 482.852752 130.220208 
L 484.091009 127.791448 
L 485.329267 124.527245 
L 487.805781 117.02617 
L 489.044038 113.101427 
L 490.282296 110.527142 
L 491.520553 111.474302 
L 492.75881 116.770469 
L 495.235325 131.475076 
L 496.473582 136.50751 
L 497.711839 139.756351 
L 498.950097 141.173805 
L 500.188354 140.600087 
L 501.426611 139.006953 
L 502.664868 138.154783 
L 503.903126 139.007891 
L 505.141383 140.956997 
L 506.37964 142.277333 
L 507.617897 141.441596 
L 508.856155 138.58649 
L 511.332669 131.778209 
L 512.570927 129.049353 
L 513.809184 128.355969 
L 515.047441 131.774401 
L 516.285698 139.388816 
L 517.523956 148.268341 
L 518.762213 154.668029 
L 520.00047 156.610492 
L 521.238727 154.478875 
L 523.715242 145.370601 
L 524.953499 142.264791 
L 526.191757 141.892346 
L 527.430014 144.089898 
L 528.668271 147.307602 
L 529.906528 149.576362 
L 531.144786 149.806314 
L 532.383043 148.290068 
L 536.097815 141.881642 
L 538.574329 136.396391 
L 539.812586 134.233839 
L 541.050844 132.347954 
L 542.289101 130.88763 
L 543.527358 131.012512 
L 544.765616 133.692505 
L 546.003873 138.142767 
L 547.24213 141.593787 
L 548.480387 141.072745 
L 549.718645 135.872034 
L 550.956902 128.312174 
L 552.195159 121.503068 
L 553.433416 116.985827 
L 554.671674 115.38912 
L 555.909931 117.221048 
L 557.148188 121.926824 
L 559.624703 134.0366 
L 560.86296 139.231434 
L 562.101217 142.901354 
L 563.339475 144.672631 
L 564.577732 144.839271 
L 565.815989 144.63326 
L 568.292504 145.329678 
L 569.530761 144.330697 
L 570.769018 141.792469 
L 572.007275 138.262362 
L 573.245533 134.11046 
L 574.48379 129.113091 
L 575.722047 122.928266 
L 576.960304 116.041439 
L 578.198562 110.009648 
L 579.436819 106.743964 
L 580.675076 107.380288 
L 581.913334 111.258241 
L 583.151591 116.294194 
L 584.389848 120.671487 
L 585.628105 123.809965 
L 588.10462 128.458397 
L 589.342877 130.579646 
L 590.581134 131.926266 
L 591.819392 132.503575 
L 593.057649 132.598687 
L 594.295906 131.599469 
L 595.534163 128.505001 
L 598.010678 118.921133 
L 599.248935 116.911861 
L 600.487193 118.690963 
L 601.72545 123.684035 
L 602.963707 130.650719 
L 604.201964 138.27127 
L 605.440222 144.703389 
L 606.678479 148.219195 
L 607.916736 148.625416 
L 609.154993 146.848376 
L 610.393251 143.497372 
L 611.631508 138.687473 
L 614.108023 126.850698 
L 615.34628 122.956498 
L 616.584537 122.820536 
L 617.822794 126.506506 
L 619.061052 131.960511 
L 620.299309 136.401331 
L 621.537566 138.248823 
L 622.775823 137.207952 
L 624.014081 133.287464 
L 625.252338 127.60244 
L 626.490595 123.328047 
L 627.728852 123.673823 
L 628.96711 129.426491 
L 630.205367 138.999582 
L 631.443624 149.572848 
L 632.681882 158.187744 
L 633.920139 162.720108 
L 635.158396 162.456881 
L 636.396653 158.484385 
L 637.634911 153.396244 
L 638.873168 149.936867 
L 640.111425 149.649983 
L 641.349682 152.366166 
L 642.58794 156.482375 
L 643.826197 159.834401 
L 645.064454 160.791068 
L 646.302711 159.055695 
L 647.540969 155.604711 
L 650.017483 147.586935 
L 651.255741 144.321875 
L 652.493998 142.67336 
L 653.732255 142.767418 
L 654.970512 143.998045 
L 656.20877 145.923669 
L 657.447027 148.281109 
L 658.685284 150.269435 
L 659.923541 150.903457 
L 661.161799 149.972207 
L 662.400056 147.701534 
L 663.638313 144.209783 
L 664.87657 139.76169 
L 666.114828 134.440756 
L 667.353085 127.854558 
L 669.8296 111.737217 
L 672.306114 94.590792 
L 673.544371 84.102267 
L 676.020886 59.061019 
L 677.259143 50.478993 
L 678.4974 47.979282 
L 679.735658 49.938249 
L 680.973915 53.420135 
L 684.688687 64.844133 
L 685.926944 65.637881 
L 687.165201 63.880357 
L 688.403459 61.378601 
L 689.641716 60.039501 
L 690.879973 60.524057 
L 692.11823 62.432353 
L 693.356488 65.559005 
L 694.594745 70.388311 
L 697.071259 83.007984 
L 698.309517 87.836521 
L 699.547774 90.263485 
L 700.786031 89.308359 
L 702.024289 85.167175 
L 703.262546 80.423554 
L 704.500803 78.308546 
L 705.73906 80.200494 
L 706.977318 85.339146 
L 709.453832 98.023495 
L 710.692089 101.360732 
L 711.930347 101.082138 
L 714.406861 95.572133 
L 715.645118 94.588158 
L 716.883376 96.740828 
L 719.35989 106.631413 
L 720.598148 109.956468 
L 721.836405 111.379178 
L 723.074662 111.796173 
L 724.312919 111.352925 
L 725.551177 109.049528 
L 726.789434 104.101458 
L 729.265948 89.970445 
L 730.504206 85.256319 
L 731.742463 84.84323 
L 732.98072 89.216188 
L 734.218977 97.48191 
L 735.457235 107.289103 
L 736.695492 115.594848 
L 737.933749 120.472146 
L 739.172007 121.936407 
L 740.410264 121.228823 
L 741.648521 119.424949 
L 742.886778 116.699407 
L 746.60155 105.855645 
L 747.839807 103.615121 
L 749.078065 102.794822 
L 751.554579 103.788789 
L 752.792836 103.204243 
L 754.031094 101.954968 
L 755.269351 101.125805 
L 756.507608 100.886584 
L 757.745866 100.332829 
L 758.984123 98.683004 
L 760.22238 96.621894 
L 761.460637 96.173968 
L 762.698895 98.667898 
L 765.175409 107.283274 
L 766.413666 109.911155 
L 767.651924 111.590066 
L 768.890181 112.882867 
L 770.128438 113.055843 
L 771.366695 111.598862 
L 772.604953 109.894902 
L 773.84321 110.24247 
L 775.081467 113.512758 
L 776.319725 118.060343 
L 777.557982 121.132433 
L 778.796239 121.43512 
L 780.034496 120.250757 
L 781.272754 120.271123 
L 782.511011 123.176156 
L 783.749268 128.605038 
L 784.987525 135.627771 
L 788.702297 159.406659 
L 789.940554 164.354824 
L 791.178812 166.789747 
L 792.417069 166.549125 
L 793.655326 163.653557 
L 794.893584 159.291234 
L 796.131841 155.753052 
L 797.370098 154.813024 
L 798.608355 156.697952 
L 801.08487 164.618842 
L 802.323127 167.666466 
L 803.561384 169.33329 
L 804.799642 170.199505 
L 806.037899 170.592173 
L 807.276156 170.385968 
L 808.514414 169.639533 
L 809.752671 168.544062 
L 810.990928 166.913465 
L 812.229185 164.467844 
L 814.7057 158.128186 
L 815.943957 155.628534 
L 817.182214 154.96796 
L 818.420472 156.906537 
L 819.658729 161.388887 
L 822.135243 173.76222 
L 823.373501 178.350261 
L 824.611758 180.920937 
L 825.850015 182.548709 
L 827.088273 184.389484 
L 829.564787 188.580731 
L 830.803044 190.124084 
L 832.041302 191.260079 
L 833.279559 191.943879 
L 834.517816 191.544791 
L 835.756073 189.058443 
L 836.994331 184.43427 
L 838.232588 179.210827 
L 839.470845 175.229421 
L 840.709102 173.292038 
L 841.94736 173.388513 
L 843.185617 175.274172 
L 844.423874 178.097179 
L 845.662132 180.407765 
L 846.900389 181.287293 
L 848.138646 181.295203 
L 849.376903 182.262963 
L 850.615161 185.496174 
L 851.853418 190.155212 
L 853.091675 194.1651 
L 854.329932 196.205442 
L 855.56819 196.577765 
L 856.806447 196.606449 
L 860.521219 198.017278 
L 861.759476 198.72501 
L 862.997733 200.387229 
L 864.235991 202.729854 
L 865.474248 204.737714 
L 866.712505 205.507641 
L 867.950762 204.898263 
L 869.18902 203.591149 
L 870.427277 202.550828 
L 871.665534 202.476011 
L 872.903791 203.899038 
L 874.142049 207.14683 
L 875.380306 211.880246 
L 876.618563 217.161026 
L 877.85682 221.855011 
L 879.095078 224.677425 
L 880.333335 224.546377 
L 881.571592 221.692064 
L 882.80985 217.962039 
L 884.048107 215.266094 
L 885.286364 214.027787 
L 886.524621 213.656972 
L 887.762879 213.885989 
L 889.001136 214.903963 
L 892.715908 219.904062 
L 893.954165 220.672703 
L 895.192422 221.120052 
L 896.43068 222.112303 
L 897.668937 224.572254 
L 898.907194 228.692018 
L 900.145451 233.441455 
L 901.383709 237.200349 
L 902.621966 238.905203 
L 903.860223 238.145129 
L 905.09848 235.132519 
L 906.336738 231.202628 
L 907.574995 228.228979 
L 908.813252 227.371341 
L 910.051509 228.857198 
L 911.289767 232.287543 
L 912.528024 236.410972 
L 913.766281 239.078334 
L 915.004539 238.406337 
L 916.242796 234.193558 
L 918.71931 222.233509 
L 919.957568 218.690929 
L 921.195825 218.433654 
L 922.434082 221.459319 
L 924.910597 231.405539 
L 926.148854 234.335303 
L 927.387111 234.567625 
L 928.625368 232.51618 
L 929.863626 229.077996 
L 933.578398 217.504086 
L 934.816655 214.334111 
L 936.054912 212.101973 
L 937.293169 210.923782 
L 939.769684 209.770549 
L 941.007941 208.492796 
L 943.484456 204.023687 
L 944.722713 202.767677 
L 945.96097 203.675194 
L 947.199227 207.072236 
L 949.675742 217.324106 
L 950.913999 220.350241 
L 952.152257 220.158909 
L 953.390514 216.97235 
L 955.867028 207.486099 
L 957.105286 204.15286 
L 958.343543 202.212925 
L 959.5818 201.117541 
L 962.058315 199.588253 
L 964.534829 196.841423 
L 965.773086 196.652266 
L 967.011344 198.242191 
L 968.249601 200.612327 
L 969.487858 202.123063 
L 970.726116 201.803463 
L 971.964373 199.622923 
L 973.20263 196.064326 
L 974.440887 191.853569 
L 975.679145 188.224213 
L 976.917402 186.775774 
L 978.155659 188.234878 
L 979.393916 191.81035 
L 980.632174 196.031679 
L 981.870431 199.511078 
L 983.108688 201.108956 
L 984.346946 200.227391 
L 985.585203 197.140272 
L 986.82346 192.986564 
L 988.061717 189.370109 
L 989.299975 187.598584 
L 990.538232 187.939919 
L 991.776489 189.738782 
L 993.014746 192.26691 
L 994.253004 195.260387 
L 996.729518 202.440434 
L 997.967775 204.607181 
L 999.206033 203.391041 
L 1000.44429 198.408259 
L 1001.682547 191.542193 
L 1002.920805 185.868626 
L 1004.159062 183.615966 
L 1005.397319 184.7159 
L 1006.635576 187.40268 
L 1007.873834 561.202423 
L 1548.99226 561.202423 
L 1550.230517 197.227401 
L 1551.468774 206.721593 
L 1553.945289 229.269719 
L 1555.183546 236.937795 
L 1556.421803 240.420822 
L 1557.66006 240.668994 
L 1558.898318 239.616782 
L 1560.136575 239.058788 
L 1561.374832 239.931689 
L 1563.851347 243.590735 
L 1565.089604 244.713712 
L 1566.327861 245.089406 
L 1567.566119 244.355871 
L 1568.804376 242.72777 
L 1570.042633 241.35648 
L 1571.28089 241.161478 
L 1572.519148 241.942185 
L 1573.757405 242.40892 
L 1574.995662 241.132519 
L 1577.472177 234.667078 
L 1578.710434 232.613356 
L 1579.948691 232.112449 
L 1581.186948 232.454761 
L 1582.425206 233.109107 
L 1583.663463 233.636556 
L 1584.90172 233.432405 
L 1586.139978 232.316823 
L 1587.378235 230.843896 
L 1588.616492 229.974561 
L 1589.854749 230.440465 
L 1591.093007 232.225677 
L 1592.331264 234.653715 
L 1593.569521 236.681044 
L 1594.807778 237.550926 
L 1596.046036 237.901636 
L 1597.284293 239.63581 
L 1598.52255 244.042089 
L 1600.999065 256.129788 
L 1602.237322 258.729971 
L 1603.475579 256.672077 
L 1604.713837 250.767113 
L 1605.952094 243.858563 
L 1607.190351 238.801677 
L 1608.428608 236.493557 
L 1610.905123 235.021956 
L 1613.381637 232.062992 
L 1614.619895 232.053642 
L 1615.858152 234.076724 
L 1618.334666 240.995919 
L 1619.572924 243.098723 
L 1620.811181 242.647797 
L 1622.049438 561.202423 
L 1623.287696 232.412662 
L 1625.76421 217.242103 
L 1627.002467 212.515879 
L 1628.240725 211.361398 
L 1629.478982 213.781839 
L 1630.717239 218.836243 
L 1633.193754 231.46763 
L 1635.670268 242.681371 
L 1636.908526 250.061371 
L 1638.146783 258.611237 
L 1639.38504 265.592637 
L 1640.623297 268.387219 
L 1641.861555 266.232114 
L 1643.099812 259.055317 
L 1644.338069 245.430676 
L 1645.576326 222.732633 
L 1646.814584 189.592664 
L 1648.052841 148.988695 
L 1648.052841 148.988695 
" style="fill:none;stroke:#008000;stroke-linecap:square;stroke-width:1.5;"/>
   </g>
   <g id="patch_3">
    <path d="M 50.14375 586.86358 
L 50.14375 22.318125 
" style="fill:none;stroke:#000000;stroke-linecap:square;stroke-linejoin:miter;stroke-width:0.8;"/>
   </g>
   <g id="patch_4">
    <path d="M 1724.14375 586.86358 
L 1724.14375 22.318125 
" style="fill:none;stroke:#000000;stroke-linecap:square;stroke-linejoin:miter;stroke-width:0.8;"/>
   </g>
   <g id="patch_5">
    <path d="M 50.14375 586.86358 
L 1724.14375 586.86358 
" style="fill:none;stroke:#000000;stroke-linecap:square;stroke-linejoin:miter;stroke-width:0.8;"/>
   </g>
   <g id="patch_6">
    <path d="M 50.14375 22.318125 
L 1724.14375 22.318125 
" style="fill:none;stroke:#000000;stroke-linecap:square;stroke-linejoin:miter;stroke-width:0.8;"/>
   </g>
   <g id="text_19">
    <!-- before binarisation -->
    <g transform="translate(830.545 16.318125)scale(0.12 -0.12)">
     <defs>
      <path d="M 3116 1747 
Q 3116 2381 2855 2742 
Q 2594 3103 2138 3103 
Q 1681 3103 1420 2742 
Q 1159 2381 1159 1747 
Q 1159 1113 1420 752 
Q 1681 391 2138 391 
Q 2594 391 2855 752 
Q 3116 1113 3116 1747 
z
M 1159 2969 
Q 1341 3281 1617 3432 
Q 1894 3584 2278 3584 
Q 2916 3584 3314 3078 
Q 3713 2572 3713 1747 
Q 3713 922 3314 415 
Q 2916 -91 2278 -91 
Q 1894 -91 1617 61 
Q 1341 213 1159 525 
L 1159 0 
L 581 0 
L 581 4863 
L 1159 4863 
L 1159 2969 
z
" id="DejaVuSans-62" transform="scale(0.015625)"/>
      <path d="M 1959 3097 
Q 1497 3097 1228 2736 
Q 959 2375 959 1747 
Q 959 1119 1226 758 
Q 1494 397 1959 397 
Q 2419 397 2687 759 
Q 2956 1122 2956 1747 
Q 2956 2369 2687 2733 
Q 2419 3097 1959 3097 
z
M 1959 3584 
Q 2709 3584 3137 3096 
Q 3566 2609 3566 1747 
Q 3566 888 3137 398 
Q 2709 -91 1959 -91 
Q 1206 -91 779 398 
Q 353 888 353 1747 
Q 353 2609 779 3096 
Q 1206 3584 1959 3584 
z
" id="DejaVuSans-6f" transform="scale(0.015625)"/>
      <path id="DejaVuSans-20" transform="scale(0.015625)"/>
      <path d="M 603 3500 
L 1178 3500 
L 1178 0 
L 603 0 
L 603 3500 
z
M 603 4863 
L 1178 4863 
L 1178 4134 
L 603 4134 
L 603 4863 
z
" id="DejaVuSans-69" transform="scale(0.015625)"/>
      <path d="M 3513 2113 
L 3513 0 
L 2938 0 
L 2938 2094 
Q 2938 2591 2744 2837 
Q 2550 3084 2163 3084 
Q 1697 3084 1428 2787 
Q 1159 2491 1159 1978 
L 1159 0 
L 581 0 
L 581 3500 
L 1159 3500 
L 1159 2956 
Q 1366 3272 1645 3428 
Q 1925 3584 2291 3584 
Q 2894 3584 3203 3211 
Q 3513 2838 3513 2113 
z
" id="DejaVuSans-6e" transform="scale(0.015625)"/>
      <path d="M 2834 3397 
L 2834 2853 
Q 2591 2978 2328 3040 
Q 2066 3103 1784 3103 
Q 1356 3103 1142 2972 
Q 928 2841 928 2578 
Q 928 2378 1081 2264 
Q 1234 2150 1697 2047 
L 1894 2003 
Q 2506 1872 2764 1633 
Q 3022 1394 3022 966 
Q 3022 478 2636 193 
Q 2250 -91 1575 -91 
Q 1294 -91 989 -36 
Q 684 19 347 128 
L 347 722 
Q 666 556 975 473 
Q 1284 391 1588 391 
Q 1994 391 2212 530 
Q 2431 669 2431 922 
Q 2431 1156 2273 1281 
Q 2116 1406 1581 1522 
L 1381 1569 
Q 847 1681 609 1914 
Q 372 2147 372 2553 
Q 372 3047 722 3315 
Q 1072 3584 1716 3584 
Q 2034 3584 2315 3537 
Q 2597 3491 2834 3397 
z
" id="DejaVuSans-73" transform="scale(0.015625)"/>
      <path d="M 1172 4494 
L 1172 3500 
L 2356 3500 
L 2356 3053 
L 1172 3053 
L 1172 1153 
Q 1172 725 1289 603 
Q 1406 481 1766 481 
L 2356 481 
L 2356 0 
L 1766 0 
Q 1100 0 847 248 
Q 594 497 594 1153 
L 594 3053 
L 172 3053 
L 172 3500 
L 594 3500 
L 594 4494 
L 1172 4494 
z
" id="DejaVuSans-74" transform="scale(0.015625)"/>
     </defs>
     <use xlink:href="#DejaVuSans-62"/>
     <use x="63.476562" xlink:href="#DejaVuSans-65"/>
     <use x="125" xlink:href="#DejaVuSans-66"/>
     <use x="160.205078" xlink:href="#DejaVuSans-6f"/>
     <use x="221.386719" xlink:href="#DejaVuSans-72"/>
     <use x="260.25" xlink:href="#DejaVuSans-65"/>
     <use x="321.773438" xlink:href="#DejaVuSans-20"/>
     <use x="353.560547" xlink:href="#DejaVuSans-62"/>
     <use x="417.037109" xlink:href="#DejaVuSans-69"/>
     <use x="444.820312" xlink:href="#DejaVuSans-6e"/>
     <use x="508.199219" xlink:href="#DejaVuSans-61"/>
     <use x="569.478516" xlink:href="#DejaVuSans-72"/>
     <use x="610.591797" xlink:href="#DejaVuSans-69"/>
     <use x="638.375" xlink:href="#DejaVuSans-73"/>
     <use x="690.474609" xlink:href="#DejaVuSans-61"/>
     <use x="751.753906" xlink:href="#DejaVuSans-74"/>
     <use x="790.962891" xlink:href="#DejaVuSans-69"/>
     <use x="818.746094" xlink:href="#DejaVuSans-6f"/>
     <use x="879.927734" xlink:href="#DejaVuSans-6e"/>
    </g>
   </g>
  </g>
  <g id="axes_2">
   <g id="patch_7">
    <path d="M 50.14375 1264.318125 
L 1724.14375 1264.318125 
L 1724.14375 699.77267 
L 50.14375 699.77267 
z
" style="fill:#ffffff;"/>
   </g>
   <g id="matplotlib.axis_3">
    <g id="xtick_8">
     <g id="line2d_18">
      <g>
       <use style="stroke:#000000;stroke-width:0.8;" x="126.234659" xlink:href="#m99256869b8" y="1264.318125"/>
      </g>
     </g>
     <g id="text_20">
      <!-- 0 -->
      <g transform="translate(123.053409 1278.916563)scale(0.1 -0.1)">
       <use xlink:href="#DejaVuSans-30"/>
      </g>
     </g>
    </g>
    <g id="xtick_9">
     <g id="line2d_19">
      <g>
       <use style="stroke:#000000;stroke-width:0.8;" x="373.886113" xlink:href="#m99256869b8" y="1264.318125"/>
      </g>
     </g>
     <g id="text_21">
      <!-- 200 -->
      <g transform="translate(364.342363 1278.916563)scale(0.1 -0.1)">
       <use xlink:href="#DejaVuSans-32"/>
       <use x="63.623047" xlink:href="#DejaVuSans-30"/>
       <use x="127.246094" xlink:href="#DejaVuSans-30"/>
      </g>
     </g>
    </g>
    <g id="xtick_10">
     <g id="line2d_20">
      <g>
       <use style="stroke:#000000;stroke-width:0.8;" x="621.537566" xlink:href="#m99256869b8" y="1264.318125"/>
      </g>
     </g>
     <g id="text_22">
      <!-- 400 -->
      <g transform="translate(611.993816 1278.916563)scale(0.1 -0.1)">
       <use xlink:href="#DejaVuSans-34"/>
       <use x="63.623047" xlink:href="#DejaVuSans-30"/>
       <use x="127.246094" xlink:href="#DejaVuSans-30"/>
      </g>
     </g>
    </g>
    <g id="xtick_11">
     <g id="line2d_21">
      <g>
       <use style="stroke:#000000;stroke-width:0.8;" x="869.18902" xlink:href="#m99256869b8" y="1264.318125"/>
      </g>
     </g>
     <g id="text_23">
      <!-- 600 -->
      <g transform="translate(859.64527 1278.916563)scale(0.1 -0.1)">
       <use xlink:href="#DejaVuSans-36"/>
       <use x="63.623047" xlink:href="#DejaVuSans-30"/>
       <use x="127.246094" xlink:href="#DejaVuSans-30"/>
      </g>
     </g>
    </g>
    <g id="xtick_12">
     <g id="line2d_22">
      <g>
       <use style="stroke:#000000;stroke-width:0.8;" x="1116.840473" xlink:href="#m99256869b8" y="1264.318125"/>
      </g>
     </g>
     <g id="text_24">
      <!-- 800 -->
      <g transform="translate(1107.296723 1278.916563)scale(0.1 -0.1)">
       <use xlink:href="#DejaVuSans-38"/>
       <use x="63.623047" xlink:href="#DejaVuSans-30"/>
       <use x="127.246094" xlink:href="#DejaVuSans-30"/>
      </g>
     </g>
    </g>
    <g id="xtick_13">
     <g id="line2d_23">
      <g>
       <use style="stroke:#000000;stroke-width:0.8;" x="1364.491927" xlink:href="#m99256869b8" y="1264.318125"/>
      </g>
     </g>
     <g id="text_25">
      <!-- 1000 -->
      <g transform="translate(1351.766927 1278.916563)scale(0.1 -0.1)">
       <use xlink:href="#DejaVuSans-31"/>
       <use x="63.623047" xlink:href="#DejaVuSans-30"/>
       <use x="127.246094" xlink:href="#DejaVuSans-30"/>
       <use x="190.869141" xlink:href="#DejaVuSans-30"/>
      </g>
     </g>
    </g>
    <g id="xtick_14">
     <g id="line2d_24">
      <g>
       <use style="stroke:#000000;stroke-width:0.8;" x="1612.14338" xlink:href="#m99256869b8" y="1264.318125"/>
      </g>
     </g>
     <g id="text_26">
      <!-- 1200 -->
      <g transform="translate(1599.41838 1278.916563)scale(0.1 -0.1)">
       <use xlink:href="#DejaVuSans-31"/>
       <use x="63.623047" xlink:href="#DejaVuSans-32"/>
       <use x="127.246094" xlink:href="#DejaVuSans-30"/>
       <use x="190.869141" xlink:href="#DejaVuSans-30"/>
      </g>
     </g>
    </g>
    <g id="text_27">
     <!-- frame -->
     <g transform="translate(872.317187 1292.594688)scale(0.1 -0.1)">
      <use xlink:href="#DejaVuSans-66"/>
      <use x="35.205078" xlink:href="#DejaVuSans-72"/>
      <use x="76.318359" xlink:href="#DejaVuSans-61"/>
      <use x="137.597656" xlink:href="#DejaVuSans-6d"/>
      <use x="235.009766" xlink:href="#DejaVuSans-65"/>
     </g>
    </g>
   </g>
   <g id="matplotlib.axis_4">
    <g id="ytick_10">
     <g id="line2d_25">
      <g>
       <use style="stroke:#000000;stroke-width:0.8;" x="50.14375" xlink:href="#ma239a5fa87" y="1238.656968"/>
      </g>
     </g>
     <g id="text_28">
      <!-- 0.0 -->
      <g transform="translate(27.240625 1242.456187)scale(0.1 -0.1)">
       <use xlink:href="#DejaVuSans-30"/>
       <use x="63.623047" xlink:href="#DejaVuSans-2e"/>
       <use x="95.410156" xlink:href="#DejaVuSans-30"/>
      </g>
     </g>
    </g>
    <g id="ytick_11">
     <g id="line2d_26">
      <g>
       <use style="stroke:#000000;stroke-width:0.8;" x="50.14375" xlink:href="#ma239a5fa87" y="1136.01234"/>
      </g>
     </g>
     <g id="text_29">
      <!-- 0.2 -->
      <g transform="translate(27.240625 1139.811559)scale(0.1 -0.1)">
       <use xlink:href="#DejaVuSans-30"/>
       <use x="63.623047" xlink:href="#DejaVuSans-2e"/>
       <use x="95.410156" xlink:href="#DejaVuSans-32"/>
      </g>
     </g>
    </g>
    <g id="ytick_12">
     <g id="line2d_27">
      <g>
       <use style="stroke:#000000;stroke-width:0.8;" x="50.14375" xlink:href="#ma239a5fa87" y="1033.367712"/>
      </g>
     </g>
     <g id="text_30">
      <!-- 0.4 -->
      <g transform="translate(27.240625 1037.166931)scale(0.1 -0.1)">
       <use xlink:href="#DejaVuSans-30"/>
       <use x="63.623047" xlink:href="#DejaVuSans-2e"/>
       <use x="95.410156" xlink:href="#DejaVuSans-34"/>
      </g>
     </g>
    </g>
    <g id="ytick_13">
     <g id="line2d_28">
      <g>
       <use style="stroke:#000000;stroke-width:0.8;" x="50.14375" xlink:href="#ma239a5fa87" y="930.723084"/>
      </g>
     </g>
     <g id="text_31">
      <!-- 0.6 -->
      <g transform="translate(27.240625 934.522302)scale(0.1 -0.1)">
       <use xlink:href="#DejaVuSans-30"/>
       <use x="63.623047" xlink:href="#DejaVuSans-2e"/>
       <use x="95.410156" xlink:href="#DejaVuSans-36"/>
      </g>
     </g>
    </g>
    <g id="ytick_14">
     <g id="line2d_29">
      <g>
       <use style="stroke:#000000;stroke-width:0.8;" x="50.14375" xlink:href="#ma239a5fa87" y="828.078456"/>
      </g>
     </g>
     <g id="text_32">
      <!-- 0.8 -->
      <g transform="translate(27.240625 831.877674)scale(0.1 -0.1)">
       <use xlink:href="#DejaVuSans-30"/>
       <use x="63.623047" xlink:href="#DejaVuSans-2e"/>
       <use x="95.410156" xlink:href="#DejaVuSans-38"/>
      </g>
     </g>
    </g>
    <g id="ytick_15">
     <g id="line2d_30">
      <g>
       <use style="stroke:#000000;stroke-width:0.8;" x="50.14375" xlink:href="#ma239a5fa87" y="725.433827"/>
      </g>
     </g>
     <g id="text_33">
      <!-- 1.0 -->
      <g transform="translate(27.240625 729.233046)scale(0.1 -0.1)">
       <use xlink:href="#DejaVuSans-31"/>
       <use x="63.623047" xlink:href="#DejaVuSans-2e"/>
       <use x="95.410156" xlink:href="#DejaVuSans-30"/>
      </g>
     </g>
    </g>
    <g id="text_34">
     <!-- GCaMP -->
     <g transform="translate(21.160938 999.803991)rotate(-90)scale(0.1 -0.1)">
      <use xlink:href="#DejaVuSans-47"/>
      <use x="77.490234" xlink:href="#DejaVuSans-43"/>
      <use x="147.314453" xlink:href="#DejaVuSans-61"/>
      <use x="208.59375" xlink:href="#DejaVuSans-4d"/>
      <use x="294.873047" xlink:href="#DejaVuSans-50"/>
     </g>
    </g>
   </g>
   <g id="line2d_31">
    <path clip-path="url(#p90460b43a0)" d="M 126.234659 1238.656968 
L 434.560719 1238.656968 
L 435.798976 725.433827 
L 441.990262 725.433827 
L 443.22852 1238.656968 
L 448.181549 1238.656968 
L 449.419806 725.433827 
L 451.89632 725.433827 
L 453.134578 1238.656968 
L 466.755408 1238.656968 
L 467.993665 725.433827 
L 480.376238 725.433827 
L 481.614495 1238.656968 
L 482.852752 725.433827 
L 493.997068 725.433827 
L 495.235325 1238.656968 
L 511.332669 1238.656968 
L 512.570927 725.433827 
L 513.809184 725.433827 
L 515.047441 1238.656968 
L 541.050844 1238.656968 
L 542.289101 725.433827 
L 543.527358 725.433827 
L 544.765616 1238.656968 
L 549.718645 1238.656968 
L 550.956902 725.433827 
L 558.386445 725.433827 
L 559.624703 1238.656968 
L 573.245533 1238.656968 
L 574.48379 725.433827 
L 589.342877 725.433827 
L 590.581134 1238.656968 
L 594.295906 1238.656968 
L 595.534163 725.433827 
L 602.963707 725.433827 
L 604.201964 1238.656968 
L 612.869765 1238.656968 
L 614.108023 725.433827 
L 617.822794 725.433827 
L 619.061052 1238.656968 
L 624.014081 1238.656968 
L 625.252338 725.433827 
L 628.96711 725.433827 
L 630.205367 1238.656968 
L 666.114828 1238.656968 
L 667.353085 725.433827 
L 783.749268 725.433827 
L 784.987525 1238.656968 
L 1648.052841 1238.656968 
L 1648.052841 1238.656968 
" style="fill:none;stroke:#008000;stroke-linecap:square;stroke-width:1.5;"/>
   </g>
   <g id="patch_8">
    <path d="M 50.14375 1264.318125 
L 50.14375 699.77267 
" style="fill:none;stroke:#000000;stroke-linecap:square;stroke-linejoin:miter;stroke-width:0.8;"/>
   </g>
   <g id="patch_9">
    <path d="M 1724.14375 1264.318125 
L 1724.14375 699.77267 
" style="fill:none;stroke:#000000;stroke-linecap:square;stroke-linejoin:miter;stroke-width:0.8;"/>
   </g>
   <g id="patch_10">
    <path d="M 50.14375 1264.318125 
L 1724.14375 1264.318125 
" style="fill:none;stroke:#000000;stroke-linecap:square;stroke-linejoin:miter;stroke-width:0.8;"/>
   </g>
   <g id="patch_11">
    <path d="M 50.14375 699.77267 
L 1724.14375 699.77267 
" style="fill:none;stroke:#000000;stroke-linecap:square;stroke-linejoin:miter;stroke-width:0.8;"/>
   </g>
   <g id="text_35">
    <!-- before binarisation -->
    <g transform="translate(830.545 693.77267)scale(0.12 -0.12)">
     <use xlink:href="#DejaVuSans-62"/>
     <use x="63.476562" xlink:href="#DejaVuSans-65"/>
     <use x="125" xlink:href="#DejaVuSans-66"/>
     <use x="160.205078" xlink:href="#DejaVuSans-6f"/>
     <use x="221.386719" xlink:href="#DejaVuSans-72"/>
     <use x="260.25" xlink:href="#DejaVuSans-65"/>
     <use x="321.773438" xlink:href="#DejaVuSans-20"/>
     <use x="353.560547" xlink:href="#DejaVuSans-62"/>
     <use x="417.037109" xlink:href="#DejaVuSans-69"/>
     <use x="444.820312" xlink:href="#DejaVuSans-6e"/>
     <use x="508.199219" xlink:href="#DejaVuSans-61"/>
     <use x="569.478516" xlink:href="#DejaVuSans-72"/>
     <use x="610.591797" xlink:href="#DejaVuSans-69"/>
     <use x="638.375" xlink:href="#DejaVuSans-73"/>
     <use x="690.474609" xlink:href="#DejaVuSans-61"/>
     <use x="751.753906" xlink:href="#DejaVuSans-74"/>
     <use x="790.962891" xlink:href="#DejaVuSans-69"/>
     <use x="818.746094" xlink:href="#DejaVuSans-6f"/>
     <use x="879.927734" xlink:href="#DejaVuSans-6e"/>
    </g>
   </g>
  </g>
 </g>
 <defs>
  <clipPath id="pefe87cf589">
   <rect height="564.545455" width="1674" x="50.14375" y="22.318125"/>
  </clipPath>
  <clipPath id="p90460b43a0">
   <rect height="564.545455" width="1674" x="50.14375" y="699.77267"/>
  </clipPath>
 </defs>
</svg>
