<?xml version="1.0" encoding="utf-8" standalone="no"?>
<!DOCTYPE svg PUBLIC "-//W3C//DTD SVG 1.1//EN"
  "http://www.w3.org/Graphics/SVG/1.1/DTD/svg11.dtd">
<svg height="1301.874375pt" version="1.1" viewBox="0 0 1724.98125 1301.874375" width="1724.98125pt" xmlns="http://www.w3.org/2000/svg" xmlns:xlink="http://www.w3.org/1999/xlink">
 <metadata>
  <rdf:RDF xmlns:cc="http://creativecommons.org/ns#" xmlns:dc="http://purl.org/dc/elements/1.1/" xmlns:rdf="http://www.w3.org/1999/02/22-rdf-syntax-ns#">
   <cc:Work>
    <dc:type rdf:resource="http://purl.org/dc/dcmitype/StillImage"/>
    <dc:date>2022-07-24T15:54:43.747384</dc:date>
    <dc:format>image/svg+xml</dc:format>
    <dc:creator>
     <cc:Agent>
      <dc:title>Matplotlib v3.4.2, https://matplotlib.org/</dc:title>
     </cc:Agent>
    </dc:creator>
   </cc:Work>
  </rdf:RDF>
 </metadata>
 <defs>
  <style type="text/css">*{stroke-linecap:butt;stroke-linejoin:round;}</style>
 </defs>
 <g id="figure_1">
  <g id="patch_1">
   <path d="M 0 1301.874375 
L 1724.98125 1301.874375 
L 1724.98125 0 
L 0 0 
z
" style="fill:#ffffff;"/>
  </g>
  <g id="axes_1">
   <g id="patch_2">
    <path d="M 43.78125 586.86358 
L 1717.78125 586.86358 
L 1717.78125 22.318125 
L 43.78125 22.318125 
z
" style="fill:#ffffff;"/>
   </g>
   <g id="matplotlib.axis_1">
    <g id="xtick_1">
     <g id="line2d_1">
      <defs>
       <path d="M 0 0 
L 0 3.5 
" id="m2e3eb2237d" style="stroke:#000000;stroke-width:0.8;"/>
      </defs>
      <g>
       <use style="stroke:#000000;stroke-width:0.8;" x="119.872159" xlink:href="#m2e3eb2237d" y="586.86358"/>
      </g>
     </g>
     <g id="text_1">
      <!-- 0 -->
      <g transform="translate(116.690909 601.462017)scale(0.1 -0.1)">
       <defs>
        <path d="M 2034 4250 
Q 1547 4250 1301 3770 
Q 1056 3291 1056 2328 
Q 1056 1369 1301 889 
Q 1547 409 2034 409 
Q 2525 409 2770 889 
Q 3016 1369 3016 2328 
Q 3016 3291 2770 3770 
Q 2525 4250 2034 4250 
z
M 2034 4750 
Q 2819 4750 3233 4129 
Q 3647 3509 3647 2328 
Q 3647 1150 3233 529 
Q 2819 -91 2034 -91 
Q 1250 -91 836 529 
Q 422 1150 422 2328 
Q 422 3509 836 4129 
Q 1250 4750 2034 4750 
z
" id="DejaVuSans-30" transform="scale(0.015625)"/>
       </defs>
       <use xlink:href="#DejaVuSans-30"/>
      </g>
     </g>
    </g>
    <g id="xtick_2">
     <g id="line2d_2">
      <g>
       <use style="stroke:#000000;stroke-width:0.8;" x="367.523613" xlink:href="#m2e3eb2237d" y="586.86358"/>
      </g>
     </g>
     <g id="text_2">
      <!-- 200 -->
      <g transform="translate(357.979863 601.462017)scale(0.1 -0.1)">
       <defs>
        <path d="M 1228 531 
L 3431 531 
L 3431 0 
L 469 0 
L 469 531 
Q 828 903 1448 1529 
Q 2069 2156 2228 2338 
Q 2531 2678 2651 2914 
Q 2772 3150 2772 3378 
Q 2772 3750 2511 3984 
Q 2250 4219 1831 4219 
Q 1534 4219 1204 4116 
Q 875 4013 500 3803 
L 500 4441 
Q 881 4594 1212 4672 
Q 1544 4750 1819 4750 
Q 2544 4750 2975 4387 
Q 3406 4025 3406 3419 
Q 3406 3131 3298 2873 
Q 3191 2616 2906 2266 
Q 2828 2175 2409 1742 
Q 1991 1309 1228 531 
z
" id="DejaVuSans-32" transform="scale(0.015625)"/>
       </defs>
       <use xlink:href="#DejaVuSans-32"/>
       <use x="63.623047" xlink:href="#DejaVuSans-30"/>
       <use x="127.246094" xlink:href="#DejaVuSans-30"/>
      </g>
     </g>
    </g>
    <g id="xtick_3">
     <g id="line2d_3">
      <g>
       <use style="stroke:#000000;stroke-width:0.8;" x="615.175066" xlink:href="#m2e3eb2237d" y="586.86358"/>
      </g>
     </g>
     <g id="text_3">
      <!-- 400 -->
      <g transform="translate(605.631316 601.462017)scale(0.1 -0.1)">
       <defs>
        <path d="M 2419 4116 
L 825 1625 
L 2419 1625 
L 2419 4116 
z
M 2253 4666 
L 3047 4666 
L 3047 1625 
L 3713 1625 
L 3713 1100 
L 3047 1100 
L 3047 0 
L 2419 0 
L 2419 1100 
L 313 1100 
L 313 1709 
L 2253 4666 
z
" id="DejaVuSans-34" transform="scale(0.015625)"/>
       </defs>
       <use xlink:href="#DejaVuSans-34"/>
       <use x="63.623047" xlink:href="#DejaVuSans-30"/>
       <use x="127.246094" xlink:href="#DejaVuSans-30"/>
      </g>
     </g>
    </g>
    <g id="xtick_4">
     <g id="line2d_4">
      <g>
       <use style="stroke:#000000;stroke-width:0.8;" x="862.82652" xlink:href="#m2e3eb2237d" y="586.86358"/>
      </g>
     </g>
     <g id="text_4">
      <!-- 600 -->
      <g transform="translate(853.28277 601.462017)scale(0.1 -0.1)">
       <defs>
        <path d="M 2113 2584 
Q 1688 2584 1439 2293 
Q 1191 2003 1191 1497 
Q 1191 994 1439 701 
Q 1688 409 2113 409 
Q 2538 409 2786 701 
Q 3034 994 3034 1497 
Q 3034 2003 2786 2293 
Q 2538 2584 2113 2584 
z
M 3366 4563 
L 3366 3988 
Q 3128 4100 2886 4159 
Q 2644 4219 2406 4219 
Q 1781 4219 1451 3797 
Q 1122 3375 1075 2522 
Q 1259 2794 1537 2939 
Q 1816 3084 2150 3084 
Q 2853 3084 3261 2657 
Q 3669 2231 3669 1497 
Q 3669 778 3244 343 
Q 2819 -91 2113 -91 
Q 1303 -91 875 529 
Q 447 1150 447 2328 
Q 447 3434 972 4092 
Q 1497 4750 2381 4750 
Q 2619 4750 2861 4703 
Q 3103 4656 3366 4563 
z
" id="DejaVuSans-36" transform="scale(0.015625)"/>
       </defs>
       <use xlink:href="#DejaVuSans-36"/>
       <use x="63.623047" xlink:href="#DejaVuSans-30"/>
       <use x="127.246094" xlink:href="#DejaVuSans-30"/>
      </g>
     </g>
    </g>
    <g id="xtick_5">
     <g id="line2d_5">
      <g>
       <use style="stroke:#000000;stroke-width:0.8;" x="1110.477973" xlink:href="#m2e3eb2237d" y="586.86358"/>
      </g>
     </g>
     <g id="text_5">
      <!-- 800 -->
      <g transform="translate(1100.934223 601.462017)scale(0.1 -0.1)">
       <defs>
        <path d="M 2034 2216 
Q 1584 2216 1326 1975 
Q 1069 1734 1069 1313 
Q 1069 891 1326 650 
Q 1584 409 2034 409 
Q 2484 409 2743 651 
Q 3003 894 3003 1313 
Q 3003 1734 2745 1975 
Q 2488 2216 2034 2216 
z
M 1403 2484 
Q 997 2584 770 2862 
Q 544 3141 544 3541 
Q 544 4100 942 4425 
Q 1341 4750 2034 4750 
Q 2731 4750 3128 4425 
Q 3525 4100 3525 3541 
Q 3525 3141 3298 2862 
Q 3072 2584 2669 2484 
Q 3125 2378 3379 2068 
Q 3634 1759 3634 1313 
Q 3634 634 3220 271 
Q 2806 -91 2034 -91 
Q 1263 -91 848 271 
Q 434 634 434 1313 
Q 434 1759 690 2068 
Q 947 2378 1403 2484 
z
M 1172 3481 
Q 1172 3119 1398 2916 
Q 1625 2713 2034 2713 
Q 2441 2713 2670 2916 
Q 2900 3119 2900 3481 
Q 2900 3844 2670 4047 
Q 2441 4250 2034 4250 
Q 1625 4250 1398 4047 
Q 1172 3844 1172 3481 
z
" id="DejaVuSans-38" transform="scale(0.015625)"/>
       </defs>
       <use xlink:href="#DejaVuSans-38"/>
       <use x="63.623047" xlink:href="#DejaVuSans-30"/>
       <use x="127.246094" xlink:href="#DejaVuSans-30"/>
      </g>
     </g>
    </g>
    <g id="xtick_6">
     <g id="line2d_6">
      <g>
       <use style="stroke:#000000;stroke-width:0.8;" x="1358.129427" xlink:href="#m2e3eb2237d" y="586.86358"/>
      </g>
     </g>
     <g id="text_6">
      <!-- 1000 -->
      <g transform="translate(1345.404427 601.462017)scale(0.1 -0.1)">
       <defs>
        <path d="M 794 531 
L 1825 531 
L 1825 4091 
L 703 3866 
L 703 4441 
L 1819 4666 
L 2450 4666 
L 2450 531 
L 3481 531 
L 3481 0 
L 794 0 
L 794 531 
z
" id="DejaVuSans-31" transform="scale(0.015625)"/>
       </defs>
       <use xlink:href="#DejaVuSans-31"/>
       <use x="63.623047" xlink:href="#DejaVuSans-30"/>
       <use x="127.246094" xlink:href="#DejaVuSans-30"/>
       <use x="190.869141" xlink:href="#DejaVuSans-30"/>
      </g>
     </g>
    </g>
    <g id="xtick_7">
     <g id="line2d_7">
      <g>
       <use style="stroke:#000000;stroke-width:0.8;" x="1605.78088" xlink:href="#m2e3eb2237d" y="586.86358"/>
      </g>
     </g>
     <g id="text_7">
      <!-- 1200 -->
      <g transform="translate(1593.05588 601.462017)scale(0.1 -0.1)">
       <use xlink:href="#DejaVuSans-31"/>
       <use x="63.623047" xlink:href="#DejaVuSans-32"/>
       <use x="127.246094" xlink:href="#DejaVuSans-30"/>
       <use x="190.869141" xlink:href="#DejaVuSans-30"/>
      </g>
     </g>
    </g>
    <g id="text_8">
     <!-- frame -->
     <g transform="translate(865.954687 615.140142)scale(0.1 -0.1)">
      <defs>
       <path d="M 2375 4863 
L 2375 4384 
L 1825 4384 
Q 1516 4384 1395 4259 
Q 1275 4134 1275 3809 
L 1275 3500 
L 2222 3500 
L 2222 3053 
L 1275 3053 
L 1275 0 
L 697 0 
L 697 3053 
L 147 3053 
L 147 3500 
L 697 3500 
L 697 3744 
Q 697 4328 969 4595 
Q 1241 4863 1831 4863 
L 2375 4863 
z
" id="DejaVuSans-66" transform="scale(0.015625)"/>
       <path d="M 2631 2963 
Q 2534 3019 2420 3045 
Q 2306 3072 2169 3072 
Q 1681 3072 1420 2755 
Q 1159 2438 1159 1844 
L 1159 0 
L 581 0 
L 581 3500 
L 1159 3500 
L 1159 2956 
Q 1341 3275 1631 3429 
Q 1922 3584 2338 3584 
Q 2397 3584 2469 3576 
Q 2541 3569 2628 3553 
L 2631 2963 
z
" id="DejaVuSans-72" transform="scale(0.015625)"/>
       <path d="M 2194 1759 
Q 1497 1759 1228 1600 
Q 959 1441 959 1056 
Q 959 750 1161 570 
Q 1363 391 1709 391 
Q 2188 391 2477 730 
Q 2766 1069 2766 1631 
L 2766 1759 
L 2194 1759 
z
M 3341 1997 
L 3341 0 
L 2766 0 
L 2766 531 
Q 2569 213 2275 61 
Q 1981 -91 1556 -91 
Q 1019 -91 701 211 
Q 384 513 384 1019 
Q 384 1609 779 1909 
Q 1175 2209 1959 2209 
L 2766 2209 
L 2766 2266 
Q 2766 2663 2505 2880 
Q 2244 3097 1772 3097 
Q 1472 3097 1187 3025 
Q 903 2953 641 2809 
L 641 3341 
Q 956 3463 1253 3523 
Q 1550 3584 1831 3584 
Q 2591 3584 2966 3190 
Q 3341 2797 3341 1997 
z
" id="DejaVuSans-61" transform="scale(0.015625)"/>
       <path d="M 3328 2828 
Q 3544 3216 3844 3400 
Q 4144 3584 4550 3584 
Q 5097 3584 5394 3201 
Q 5691 2819 5691 2113 
L 5691 0 
L 5113 0 
L 5113 2094 
Q 5113 2597 4934 2840 
Q 4756 3084 4391 3084 
Q 3944 3084 3684 2787 
Q 3425 2491 3425 1978 
L 3425 0 
L 2847 0 
L 2847 2094 
Q 2847 2600 2669 2842 
Q 2491 3084 2119 3084 
Q 1678 3084 1418 2786 
Q 1159 2488 1159 1978 
L 1159 0 
L 581 0 
L 581 3500 
L 1159 3500 
L 1159 2956 
Q 1356 3278 1631 3431 
Q 1906 3584 2284 3584 
Q 2666 3584 2933 3390 
Q 3200 3197 3328 2828 
z
" id="DejaVuSans-6d" transform="scale(0.015625)"/>
       <path d="M 3597 1894 
L 3597 1613 
L 953 1613 
Q 991 1019 1311 708 
Q 1631 397 2203 397 
Q 2534 397 2845 478 
Q 3156 559 3463 722 
L 3463 178 
Q 3153 47 2828 -22 
Q 2503 -91 2169 -91 
Q 1331 -91 842 396 
Q 353 884 353 1716 
Q 353 2575 817 3079 
Q 1281 3584 2069 3584 
Q 2775 3584 3186 3129 
Q 3597 2675 3597 1894 
z
M 3022 2063 
Q 3016 2534 2758 2815 
Q 2500 3097 2075 3097 
Q 1594 3097 1305 2825 
Q 1016 2553 972 2059 
L 3022 2063 
z
" id="DejaVuSans-65" transform="scale(0.015625)"/>
      </defs>
      <use xlink:href="#DejaVuSans-66"/>
      <use x="35.205078" xlink:href="#DejaVuSans-72"/>
      <use x="76.318359" xlink:href="#DejaVuSans-61"/>
      <use x="137.597656" xlink:href="#DejaVuSans-6d"/>
      <use x="235.009766" xlink:href="#DejaVuSans-65"/>
     </g>
    </g>
   </g>
   <g id="matplotlib.axis_2">
    <g id="ytick_1">
     <g id="line2d_8">
      <defs>
       <path d="M 0 0 
L -3.5 0 
" id="m489138a382" style="stroke:#000000;stroke-width:0.8;"/>
      </defs>
      <g>
       <use style="stroke:#000000;stroke-width:0.8;" x="43.78125" xlink:href="#m489138a382" y="585.107889"/>
      </g>
     </g>
     <g id="text_9">
      <!-- 0.8 -->
      <g transform="translate(20.878125 588.907108)scale(0.1 -0.1)">
       <defs>
        <path d="M 684 794 
L 1344 794 
L 1344 0 
L 684 0 
L 684 794 
z
" id="DejaVuSans-2e" transform="scale(0.015625)"/>
       </defs>
       <use xlink:href="#DejaVuSans-30"/>
       <use x="63.623047" xlink:href="#DejaVuSans-2e"/>
       <use x="95.410156" xlink:href="#DejaVuSans-38"/>
      </g>
     </g>
    </g>
    <g id="ytick_2">
     <g id="line2d_9">
      <g>
       <use style="stroke:#000000;stroke-width:0.8;" x="43.78125" xlink:href="#m489138a382" y="519.52853"/>
      </g>
     </g>
     <g id="text_10">
      <!-- 1.0 -->
      <g transform="translate(20.878125 523.327748)scale(0.1 -0.1)">
       <use xlink:href="#DejaVuSans-31"/>
       <use x="63.623047" xlink:href="#DejaVuSans-2e"/>
       <use x="95.410156" xlink:href="#DejaVuSans-30"/>
      </g>
     </g>
    </g>
    <g id="ytick_3">
     <g id="line2d_10">
      <g>
       <use style="stroke:#000000;stroke-width:0.8;" x="43.78125" xlink:href="#m489138a382" y="453.94917"/>
      </g>
     </g>
     <g id="text_11">
      <!-- 1.2 -->
      <g transform="translate(20.878125 457.748389)scale(0.1 -0.1)">
       <use xlink:href="#DejaVuSans-31"/>
       <use x="63.623047" xlink:href="#DejaVuSans-2e"/>
       <use x="95.410156" xlink:href="#DejaVuSans-32"/>
      </g>
     </g>
    </g>
    <g id="ytick_4">
     <g id="line2d_11">
      <g>
       <use style="stroke:#000000;stroke-width:0.8;" x="43.78125" xlink:href="#m489138a382" y="388.36981"/>
      </g>
     </g>
     <g id="text_12">
      <!-- 1.4 -->
      <g transform="translate(20.878125 392.169029)scale(0.1 -0.1)">
       <use xlink:href="#DejaVuSans-31"/>
       <use x="63.623047" xlink:href="#DejaVuSans-2e"/>
       <use x="95.410156" xlink:href="#DejaVuSans-34"/>
      </g>
     </g>
    </g>
    <g id="ytick_5">
     <g id="line2d_12">
      <g>
       <use style="stroke:#000000;stroke-width:0.8;" x="43.78125" xlink:href="#m489138a382" y="322.790451"/>
      </g>
     </g>
     <g id="text_13">
      <!-- 1.6 -->
      <g transform="translate(20.878125 326.589669)scale(0.1 -0.1)">
       <use xlink:href="#DejaVuSans-31"/>
       <use x="63.623047" xlink:href="#DejaVuSans-2e"/>
       <use x="95.410156" xlink:href="#DejaVuSans-36"/>
      </g>
     </g>
    </g>
    <g id="ytick_6">
     <g id="line2d_13">
      <g>
       <use style="stroke:#000000;stroke-width:0.8;" x="43.78125" xlink:href="#m489138a382" y="257.211091"/>
      </g>
     </g>
     <g id="text_14">
      <!-- 1.8 -->
      <g transform="translate(20.878125 261.01031)scale(0.1 -0.1)">
       <use xlink:href="#DejaVuSans-31"/>
       <use x="63.623047" xlink:href="#DejaVuSans-2e"/>
       <use x="95.410156" xlink:href="#DejaVuSans-38"/>
      </g>
     </g>
    </g>
    <g id="ytick_7">
     <g id="line2d_14">
      <g>
       <use style="stroke:#000000;stroke-width:0.8;" x="43.78125" xlink:href="#m489138a382" y="191.631731"/>
      </g>
     </g>
     <g id="text_15">
      <!-- 2.0 -->
      <g transform="translate(20.878125 195.43095)scale(0.1 -0.1)">
       <use xlink:href="#DejaVuSans-32"/>
       <use x="63.623047" xlink:href="#DejaVuSans-2e"/>
       <use x="95.410156" xlink:href="#DejaVuSans-30"/>
      </g>
     </g>
    </g>
    <g id="ytick_8">
     <g id="line2d_15">
      <g>
       <use style="stroke:#000000;stroke-width:0.8;" x="43.78125" xlink:href="#m489138a382" y="126.052372"/>
      </g>
     </g>
     <g id="text_16">
      <!-- 2.2 -->
      <g transform="translate(20.878125 129.85159)scale(0.1 -0.1)">
       <use xlink:href="#DejaVuSans-32"/>
       <use x="63.623047" xlink:href="#DejaVuSans-2e"/>
       <use x="95.410156" xlink:href="#DejaVuSans-32"/>
      </g>
     </g>
    </g>
    <g id="ytick_9">
     <g id="line2d_16">
      <g>
       <use style="stroke:#000000;stroke-width:0.8;" x="43.78125" xlink:href="#m489138a382" y="60.473012"/>
      </g>
     </g>
     <g id="text_17">
      <!-- 2.4 -->
      <g transform="translate(20.878125 64.272231)scale(0.1 -0.1)">
       <use xlink:href="#DejaVuSans-32"/>
       <use x="63.623047" xlink:href="#DejaVuSans-2e"/>
       <use x="95.410156" xlink:href="#DejaVuSans-34"/>
      </g>
     </g>
    </g>
    <g id="text_18">
     <!-- GCaMP -->
     <g transform="translate(14.798437 322.349446)rotate(-90)scale(0.1 -0.1)">
      <defs>
       <path d="M 3809 666 
L 3809 1919 
L 2778 1919 
L 2778 2438 
L 4434 2438 
L 4434 434 
Q 4069 175 3628 42 
Q 3188 -91 2688 -91 
Q 1594 -91 976 548 
Q 359 1188 359 2328 
Q 359 3472 976 4111 
Q 1594 4750 2688 4750 
Q 3144 4750 3555 4637 
Q 3966 4525 4313 4306 
L 4313 3634 
Q 3963 3931 3569 4081 
Q 3175 4231 2741 4231 
Q 1884 4231 1454 3753 
Q 1025 3275 1025 2328 
Q 1025 1384 1454 906 
Q 1884 428 2741 428 
Q 3075 428 3337 486 
Q 3600 544 3809 666 
z
" id="DejaVuSans-47" transform="scale(0.015625)"/>
       <path d="M 4122 4306 
L 4122 3641 
Q 3803 3938 3442 4084 
Q 3081 4231 2675 4231 
Q 1875 4231 1450 3742 
Q 1025 3253 1025 2328 
Q 1025 1406 1450 917 
Q 1875 428 2675 428 
Q 3081 428 3442 575 
Q 3803 722 4122 1019 
L 4122 359 
Q 3791 134 3420 21 
Q 3050 -91 2638 -91 
Q 1578 -91 968 557 
Q 359 1206 359 2328 
Q 359 3453 968 4101 
Q 1578 4750 2638 4750 
Q 3056 4750 3426 4639 
Q 3797 4528 4122 4306 
z
" id="DejaVuSans-43" transform="scale(0.015625)"/>
       <path d="M 628 4666 
L 1569 4666 
L 2759 1491 
L 3956 4666 
L 4897 4666 
L 4897 0 
L 4281 0 
L 4281 4097 
L 3078 897 
L 2444 897 
L 1241 4097 
L 1241 0 
L 628 0 
L 628 4666 
z
" id="DejaVuSans-4d" transform="scale(0.015625)"/>
       <path d="M 1259 4147 
L 1259 2394 
L 2053 2394 
Q 2494 2394 2734 2622 
Q 2975 2850 2975 3272 
Q 2975 3691 2734 3919 
Q 2494 4147 2053 4147 
L 1259 4147 
z
M 628 4666 
L 2053 4666 
Q 2838 4666 3239 4311 
Q 3641 3956 3641 3272 
Q 3641 2581 3239 2228 
Q 2838 1875 2053 1875 
L 1259 1875 
L 1259 0 
L 628 0 
L 628 4666 
z
" id="DejaVuSans-50" transform="scale(0.015625)"/>
      </defs>
      <use xlink:href="#DejaVuSans-47"/>
      <use x="77.490234" xlink:href="#DejaVuSans-43"/>
      <use x="147.314453" xlink:href="#DejaVuSans-61"/>
      <use x="208.59375" xlink:href="#DejaVuSans-4d"/>
      <use x="294.873047" xlink:href="#DejaVuSans-50"/>
     </g>
    </g>
   </g>
   <g id="line2d_17">
    <path clip-path="url(#p006967305d)" d="M 119.872159 530.831831 
L 124.825188 549.183161 
L 126.063445 552.194167 
L 127.301703 553.821931 
L 128.53996 553.972056 
L 131.016474 552.627943 
L 132.254732 552.479252 
L 133.492989 552.590353 
L 134.731246 552.912389 
L 135.969504 553.477046 
L 137.207761 553.879135 
L 138.446018 553.529822 
L 140.922533 551.3867 
L 142.16079 550.788534 
L 143.399047 550.844675 
L 144.637304 551.342306 
L 145.875562 551.573223 
L 147.113819 550.891523 
L 148.352076 549.324934 
L 150.828591 545.362601 
L 152.066848 543.672541 
L 153.305105 542.764133 
L 154.543363 543.356856 
L 155.78162 545.537409 
L 157.019877 548.264894 
L 158.258134 550.384034 
L 159.496392 551.643923 
L 160.734649 552.3146 
L 161.972906 552.467879 
L 163.211163 552.05661 
L 164.449421 551.421173 
L 165.687678 551.356077 
L 166.925935 552.46741 
L 169.40245 556.583801 
L 170.640707 557.808937 
L 171.878964 557.970067 
L 173.117222 557.126437 
L 174.355479 555.24241 
L 175.593736 552.330631 
L 178.070251 545.219931 
L 179.308508 542.798428 
L 180.546765 542.525389 
L 181.785022 544.958267 
L 184.261537 553.508586 
L 185.499794 555.942797 
L 186.738052 556.141659 
L 187.976309 554.599322 
L 190.452823 550.100377 
L 191.691081 548.837136 
L 192.929338 548.55507 
L 194.167595 549.044064 
L 195.405852 550.240198 
L 197.882367 553.789138 
L 199.120624 555.014627 
L 202.835396 557.053007 
L 204.073653 557.749118 
L 205.311911 557.802584 
L 206.550168 556.984801 
L 207.788425 555.394299 
L 210.26494 551.56285 
L 211.503197 550.250056 
L 212.741454 549.63385 
L 213.979711 549.509391 
L 216.456226 549.632832 
L 217.694483 549.998662 
L 218.93274 550.814072 
L 220.170998 552.24389 
L 222.647512 556.400079 
L 223.88577 557.879783 
L 225.124027 558.409836 
L 228.838799 558.695219 
L 230.077056 558.451946 
L 235.030085 556.031695 
L 236.268342 555.237634 
L 237.5066 554.822291 
L 238.744857 555.072734 
L 239.983114 555.445129 
L 241.221371 554.800765 
L 242.459629 552.612117 
L 243.697886 549.898922 
L 244.936143 548.51656 
L 246.1744 549.38068 
L 247.412658 551.783141 
L 248.650915 554.523746 
L 249.889172 556.977248 
L 251.127429 558.850794 
L 252.365687 559.703314 
L 253.603944 559.119059 
L 254.842201 557.114776 
L 257.318716 551.098864 
L 259.79523 544.8999 
L 261.033488 542.572414 
L 262.271745 540.898553 
L 263.510002 539.491858 
L 264.748259 538.761656 
L 265.986517 539.348844 
L 269.701288 543.759887 
L 270.939546 544.883986 
L 273.41606 546.879181 
L 274.654318 548.167497 
L 275.892575 549.826368 
L 277.130832 551.786637 
L 278.369089 553.473324 
L 279.607347 554.030761 
L 280.845604 553.100343 
L 283.322118 549.491167 
L 284.560376 548.565857 
L 285.798633 548.439461 
L 287.03689 548.802987 
L 288.275147 549.500171 
L 290.751662 551.432924 
L 291.989919 552.578559 
L 293.228177 553.358744 
L 294.466434 553.08285 
L 295.704691 551.705908 
L 298.181206 547.861125 
L 299.419463 546.366366 
L 300.65772 545.639943 
L 301.895977 545.913063 
L 303.134235 547.416403 
L 304.372492 550.236762 
L 305.610749 553.765074 
L 306.849006 556.741642 
L 308.087264 558.178546 
L 309.325521 558.101004 
L 310.563778 557.464603 
L 311.802036 557.468569 
L 313.040293 558.644293 
L 314.27855 560.330639 
L 315.516807 561.202423 
L 316.755065 560.557035 
L 317.993322 558.985753 
L 319.231579 557.600597 
L 320.469836 556.690169 
L 321.708094 555.411755 
L 322.946351 552.965207 
L 324.184608 549.821285 
L 325.422866 547.507407 
L 326.661123 547.180341 
L 329.137637 549.956754 
L 330.375895 550.266973 
L 331.614152 549.297335 
L 332.852409 547.962917 
L 334.090666 547.293854 
L 335.328924 547.6094 
L 336.567181 548.434916 
L 337.805438 549.115491 
L 339.043695 549.452529 
L 341.52021 549.692316 
L 342.758467 550.115165 
L 343.996725 550.940884 
L 345.234982 551.60606 
L 346.473239 551.344329 
L 347.711496 549.927139 
L 350.188011 545.738996 
L 351.426268 544.204757 
L 352.664525 543.601956 
L 353.902783 544.076117 
L 356.379297 546.471682 
L 357.617554 547.155678 
L 358.855812 547.154322 
L 360.094069 546.40896 
L 362.570584 544.08055 
L 363.808841 543.564369 
L 366.285355 543.286589 
L 367.523613 542.717664 
L 368.76187 541.926518 
L 370.000127 541.338019 
L 371.238384 541.141594 
L 372.476642 541.059895 
L 373.714899 540.532703 
L 374.953156 539.144317 
L 377.429671 534.83191 
L 378.667928 533.185354 
L 379.906185 531.847614 
L 382.3827 528.783771 
L 383.620957 528.594943 
L 384.859214 530.127133 
L 386.097472 532.524722 
L 387.335729 534.299104 
L 388.573986 534.41316 
L 389.812243 533.106042 
L 391.050501 531.578844 
L 392.288758 530.887251 
L 393.527015 531.301666 
L 394.765272 532.57237 
L 397.241787 536.316751 
L 398.480044 537.749277 
L 399.718302 538.131388 
L 400.956559 537.332362 
L 402.194816 535.67105 
L 404.671331 531.83803 
L 405.909588 530.401189 
L 407.147845 529.15714 
L 408.386102 527.725685 
L 410.862617 524.500583 
L 412.100874 523.595139 
L 413.339132 523.649818 
L 414.577389 524.43631 
L 415.815646 525.487176 
L 417.053903 526.338355 
L 418.292161 526.442207 
L 419.530418 525.276695 
L 420.768675 522.699737 
L 422.006932 519.636003 
L 423.24519 518.12485 
L 424.483447 519.445768 
L 426.959961 525.578059 
L 428.198219 527.105676 
L 429.436476 526.86715 
L 430.674733 525.551779 
L 431.912991 524.507445 
L 433.151248 524.67769 
L 435.627762 526.889189 
L 436.86602 526.956566 
L 439.342534 525.563498 
L 440.580791 525.608734 
L 443.057306 526.884158 
L 444.295563 526.723424 
L 445.53382 525.32855 
L 446.772078 522.580256 
L 449.248592 515.451281 
L 450.48685 513.214537 
L 451.725107 512.814919 
L 452.963364 513.920863 
L 454.201621 515.205679 
L 455.439879 515.316811 
L 457.916393 513.347008 
L 459.15465 513.025183 
L 460.392908 513.234846 
L 461.631165 513.869609 
L 462.869422 514.770825 
L 464.107679 515.458918 
L 466.584194 515.99833 
L 467.822451 516.839982 
L 469.060709 518.375685 
L 470.298966 520.157609 
L 471.537223 521.490782 
L 472.77548 521.916836 
L 474.013738 521.488575 
L 475.251995 520.798205 
L 476.490252 520.6165 
L 477.728509 521.231676 
L 478.966767 522.068079 
L 480.205024 522.089241 
L 481.443281 520.85274 
L 482.681538 519.149271 
L 483.919796 518.272867 
L 485.158053 518.675353 
L 486.39631 519.579194 
L 487.634568 519.783139 
L 488.872825 518.485998 
L 490.111082 515.518943 
L 491.349339 511.55693 
L 492.587597 508.098783 
L 493.825854 506.340795 
L 495.064111 505.848483 
L 496.302368 505.118657 
L 498.778883 502.211436 
L 500.01714 501.638093 
L 501.255397 501.562414 
L 502.493655 501.262575 
L 503.731912 500.302705 
L 504.970169 498.840744 
L 506.208427 497.800685 
L 507.446684 498.293641 
L 508.684941 500.444541 
L 509.923198 502.902658 
L 511.161456 503.710086 
L 512.399713 502.073875 
L 513.63797 499.183402 
L 514.876227 496.813601 
L 516.114485 495.931263 
L 517.352742 496.858609 
L 518.590999 499.546795 
L 519.829257 503.615229 
L 521.067514 508.345746 
L 522.305771 512.528741 
L 523.544028 514.861397 
L 524.782286 514.672514 
L 526.020543 512.055538 
L 527.2588 507.418086 
L 528.497057 500.960491 
L 529.735315 492.644612 
L 534.688344 453.751916 
L 535.926601 446.055694 
L 537.164858 440.094171 
L 538.403116 435.644422 
L 540.87963 427.703505 
L 542.117887 422.308844 
L 543.356145 415.167857 
L 544.594402 406.34406 
L 545.832659 395.989937 
L 549.547431 359.653697 
L 550.785688 349.905944 
L 552.023945 344.089515 
L 553.262203 343.743308 
L 554.50046 349.037427 
L 556.976975 367.519294 
L 558.215232 372.91122 
L 559.453489 370.836652 
L 560.691746 361.219183 
L 563.168261 335.244951 
L 564.406518 326.05367 
L 565.644775 319.902036 
L 566.883033 314.738366 
L 568.12129 308.541456 
L 570.597804 294.147584 
L 571.836062 288.956257 
L 573.074319 286.010276 
L 574.312576 285.12005 
L 575.550834 285.41659 
L 576.789091 285.229316 
L 578.027348 283.286873 
L 579.265605 279.617485 
L 580.503863 274.671465 
L 582.980377 263.167411 
L 584.218634 259.174676 
L 585.456892 257.107343 
L 586.695149 255.564152 
L 587.933406 252.56846 
L 589.171663 247.211455 
L 591.648178 234.065281 
L 592.886435 229.235358 
L 594.124693 225.696164 
L 595.36295 221.734763 
L 596.601207 215.650744 
L 597.839464 208.106526 
L 599.077722 202.37049 
L 600.315979 201.835768 
L 601.554236 207.590537 
L 602.792493 217.928834 
L 604.030751 229.470424 
L 605.269008 239.142404 
L 606.507265 245.5967 
L 607.745523 249.090102 
L 608.98378 250.719055 
L 610.222037 251.879085 
L 611.460294 253.951853 
L 612.698552 257.8966 
L 613.936809 263.744348 
L 616.413323 276.924582 
L 617.651581 282.055395 
L 618.889838 285.414106 
L 620.128095 287.532078 
L 621.366352 290.179882 
L 622.60461 294.020014 
L 623.842867 297.156571 
L 625.081124 297.663076 
L 626.319382 296.245768 
L 627.557639 295.426743 
L 628.795896 296.860763 
L 630.034153 300.125307 
L 631.272411 303.87564 
L 632.510668 307.233101 
L 633.748925 309.808864 
L 634.987182 311.245227 
L 636.22544 311.118948 
L 637.463697 309.13902 
L 638.701954 305.359041 
L 639.940211 299.807769 
L 641.178469 292.118343 
L 642.416726 282.228738 
L 644.893241 260.365797 
L 647.369755 241.469251 
L 652.322784 204.975862 
L 653.561041 199.350705 
L 656.037556 191.844126 
L 657.275813 187.02015 
L 658.51407 181.579713 
L 659.752328 177.020091 
L 660.990585 174.51827 
L 662.228842 174.94039 
L 663.4671 179.194104 
L 665.943614 193.721549 
L 667.181871 197.007325 
L 668.420129 196.401807 
L 669.658386 194.429952 
L 670.896643 192.808434 
L 672.1349 190.795533 
L 673.373158 186.367204 
L 674.611415 178.43093 
L 678.326187 145.920817 
L 679.564444 138.13511 
L 680.802701 134.346191 
L 682.040959 133.71673 
L 683.279216 133.59758 
L 684.517473 131.958322 
L 685.75573 128.464987 
L 686.993988 123.991746 
L 688.232245 120.15686 
L 689.470502 118.298917 
L 690.708759 118.275802 
L 691.947017 118.692637 
L 693.185274 118.025575 
L 694.423531 115.496357 
L 695.661789 111.357583 
L 698.138303 102.140621 
L 699.37656 98.428485 
L 700.614818 95.323049 
L 701.853075 93.048343 
L 703.091332 92.009806 
L 704.329589 91.677146 
L 705.567847 90.433608 
L 706.806104 86.835931 
L 708.044361 80.799575 
L 709.282618 73.852163 
L 710.520876 68.572329 
L 711.759133 67.387267 
L 712.99739 70.854073 
L 714.235648 76.42876 
L 715.473905 80.077685 
L 716.712162 79.887328 
L 719.188677 74.271636 
L 720.426934 73.046239 
L 721.665191 73.933542 
L 722.903448 76.325672 
L 724.141706 79.064032 
L 725.379963 80.804875 
L 726.61822 80.620003 
L 727.856477 78.791699 
L 730.332992 74.019021 
L 731.571249 72.58644 
L 732.809507 72.66931 
L 734.047764 73.833312 
L 735.286021 74.561851 
L 736.524278 73.377867 
L 737.762536 69.730987 
L 740.23905 58.76306 
L 741.477307 54.434916 
L 742.715565 51.283109 
L 743.953822 48.713484 
L 745.192079 47.979282 
L 746.430336 51.193158 
L 750.145108 70.385398 
L 752.621623 79.087348 
L 753.85988 82.641986 
L 755.098137 83.94093 
L 756.336395 82.038624 
L 757.574652 78.400439 
L 758.812909 76.138565 
L 760.051166 77.370184 
L 761.289424 81.644513 
L 762.527681 86.507833 
L 763.765938 89.25042 
L 765.004195 88.808007 
L 766.242453 86.240876 
L 767.48071 83.320773 
L 768.718967 81.343193 
L 769.957225 80.957668 
L 771.195482 81.782197 
L 772.433739 82.392462 
L 773.671996 81.484987 
L 776.148511 77.038669 
L 777.386768 76.653105 
L 778.625025 78.521161 
L 779.863283 82.670626 
L 781.10154 88.445465 
L 782.339797 93.65211 
L 783.578054 95.826211 
L 784.816312 94.103171 
L 787.292826 85.41816 
L 788.531084 84.380834 
L 789.769341 86.959404 
L 792.245855 95.181652 
L 793.484113 98.728865 
L 794.72237 102.756873 
L 795.960627 108.015781 
L 798.437142 120.465797 
L 799.675399 127.270292 
L 800.913656 135.104498 
L 802.151914 144.324843 
L 805.866685 174.650536 
L 807.104943 182.649819 
L 808.3432 189.440566 
L 809.581457 194.78474 
L 810.819714 197.328091 
L 812.057972 195.734407 
L 813.296229 190.579595 
L 814.534486 184.56614 
L 815.772743 181.152889 
L 817.011001 182.819227 
L 818.249258 189.516932 
L 819.487515 199.371555 
L 821.96403 223.399384 
L 823.202287 235.534903 
L 824.440544 245.546794 
L 825.678802 252.185286 
L 826.917059 255.463362 
L 829.393573 258.172814 
L 831.870088 263.39934 
L 833.108345 263.098148 
L 834.346602 257.935953 
L 835.58486 249.578983 
L 836.823117 242.372299 
L 838.061374 239.502839 
L 839.299632 241.055793 
L 840.537889 245.549172 
L 841.776146 251.992302 
L 845.490918 276.17041 
L 846.729175 280.088839 
L 847.967432 279.948738 
L 849.20569 276.218267 
L 851.682204 264.642075 
L 852.920461 262.079524 
L 854.158719 263.505549 
L 856.635233 270.830344 
L 857.873491 272.44226 
L 859.111748 272.785638 
L 860.350005 273.51907 
L 861.588262 275.201016 
L 862.82652 277.155339 
L 864.064777 278.650174 
L 865.303034 279.009116 
L 866.541291 277.172924 
L 867.779549 272.147285 
L 869.017806 264.084165 
L 870.256063 254.906744 
L 871.49432 247.199943 
L 872.732578 242.176466 
L 873.970835 239.189619 
L 877.685607 232.112688 
L 878.923864 232.011149 
L 880.162121 234.528328 
L 881.400379 238.834707 
L 882.638636 243.705917 
L 883.876893 248.104665 
L 885.11515 250.947705 
L 886.353408 251.815864 
L 887.591665 251.624854 
L 888.829922 252.232201 
L 890.06818 255.617444 
L 891.306437 262.588739 
L 892.544694 272.180241 
L 895.021209 292.556509 
L 896.259466 299.96415 
L 897.497723 302.785546 
L 898.73598 300.308397 
L 901.212495 287.986312 
L 902.450752 283.941303 
L 903.689009 282.676822 
L 904.927267 282.345971 
L 906.165524 280.73747 
L 907.403781 276.862974 
L 908.642039 270.690586 
L 909.880296 262.642896 
L 911.118553 253.265818 
L 913.595068 231.528876 
L 914.833325 220.764297 
L 916.071582 212.09381 
L 917.309839 206.109405 
L 918.548097 202.197964 
L 919.786354 199.34193 
L 924.739383 189.499241 
L 925.97764 186.716529 
L 927.215898 183.011977 
L 928.454155 178.648085 
L 929.692412 174.993876 
L 930.930669 173.12321 
L 932.168927 172.4914 
L 933.407184 171.299937 
L 934.645441 168.265447 
L 938.360213 154.668571 
L 939.59847 151.129786 
L 940.836727 149.094724 
L 942.074985 149.337899 
L 943.313242 152.109774 
L 945.789757 161.906498 
L 947.028014 164.885689 
L 948.266271 164.034039 
L 949.504528 159.439645 
L 950.742786 153.208625 
L 951.981043 148.419981 
L 953.2193 148.017671 
L 954.457557 153.546092 
L 955.695815 164.01652 
L 956.934072 176.398295 
L 958.172329 187.119018 
L 959.410586 193.632953 
L 960.648844 195.503723 
L 961.887101 193.885591 
L 963.125358 190.051824 
L 964.363616 184.633795 
L 966.84013 171.35811 
L 968.078387 165.939058 
L 969.316645 163.419143 
L 970.554902 164.592744 
L 971.793159 168.563058 
L 973.031416 173.390587 
L 974.269674 177.634769 
L 976.746188 184.829638 
L 977.984446 189.416979 
L 979.222703 195.222647 
L 980.46096 202.52319 
L 981.699217 211.61982 
L 984.175732 231.88998 
L 985.413989 239.560147 
L 986.652246 244.512688 
L 990.367018 254.315839 
L 991.605275 256.955857 
L 992.843533 258.086603 
L 994.08179 258.211145 
L 995.320047 258.726822 
L 997.796562 261.796634 
L 999.034819 262.300452 
L 1000.273076 261.492109 
L 1001.511334 260.143835 
L 1002.749591 259.419885 
L 1003.987848 259.937081 
L 1005.226105 261.001021 
L 1006.464363 261.431386 
L 1007.70262 261.044378 
L 1010.179134 259.78606 
L 1011.417392 258.881453 
L 1015.132164 254.69976 
L 1016.370421 252.894937 
L 1018.846935 248.057847 
L 1020.085193 246.634285 
L 1021.32345 247.139901 
L 1022.561707 249.932299 
L 1023.799964 253.682245 
L 1025.038222 255.85649 
L 1026.276479 254.702481 
L 1027.514736 250.548473 
L 1029.991251 240.179897 
L 1031.229508 236.690293 
L 1032.467765 234.947473 
L 1033.706023 234.412369 
L 1034.94428 234.679028 
L 1036.182537 235.892355 
L 1037.420794 237.707914 
L 1038.659052 239.096964 
L 1039.897309 239.570924 
L 1041.135566 239.199627 
L 1042.373823 237.502036 
L 1043.612081 233.872228 
L 1046.088595 223.309808 
L 1047.326852 218.065505 
L 1048.56511 213.395834 
L 1049.803367 210.243357 
L 1051.041624 209.245131 
L 1053.518139 209.889621 
L 1054.756396 210.240945 
L 1055.994653 211.068937 
L 1057.232911 212.996599 
L 1058.471168 216.491322 
L 1059.709425 220.964768 
L 1060.947682 224.938955 
L 1062.18594 227.304501 
L 1063.424197 228.100405 
L 1064.662454 228.159033 
L 1065.900711 228.342566 
L 1067.138969 229.222117 
L 1068.377226 230.940351 
L 1069.615483 233.384581 
L 1070.853741 236.585013 
L 1072.091998 240.872718 
L 1073.330255 247.006328 
L 1077.045027 271.239927 
L 1078.283284 275.037214 
L 1079.521541 276.066433 
L 1080.759799 274.997233 
L 1081.998056 272.279859 
L 1083.236313 268.813641 
L 1084.474571 266.348193 
L 1085.712828 266.787545 
L 1086.951085 270.790621 
L 1088.189342 277.272639 
L 1090.665857 292.436481 
L 1094.380629 317.439068 
L 1095.618886 323.328033 
L 1096.857143 326.021308 
L 1098.0954 325.779936 
L 1099.333658 323.481551 
L 1101.810172 316.6798 
L 1103.04843 314.28592 
L 1104.286687 313.626922 
L 1105.524944 316.002711 
L 1106.763201 322.584058 
L 1109.239716 342.363497 
L 1110.477973 348.475863 
L 1111.71623 349.527911 
L 1112.954488 347.007378 
L 1114.192745 343.005941 
L 1117.907517 329.661839 
L 1119.145774 326.434855 
L 1120.384031 324.571256 
L 1121.622289 324.203789 
L 1122.860546 325.2175 
L 1124.098803 327.213673 
L 1126.575318 332.343141 
L 1127.813575 333.775477 
L 1129.051832 332.481524 
L 1130.290089 327.988367 
L 1132.766604 315.748859 
L 1134.004861 311.650673 
L 1135.243118 309.312751 
L 1136.481376 308.467352 
L 1137.719633 308.958494 
L 1138.95789 310.422461 
L 1140.196148 312.691663 
L 1142.672662 319.07543 
L 1143.910919 321.350512 
L 1145.149177 321.46718 
L 1146.387434 319.010891 
L 1147.625691 314.296555 
L 1148.863948 308.940174 
L 1150.102206 305.550814 
L 1151.340463 305.638451 
L 1152.57872 308.611614 
L 1153.816977 312.489633 
L 1155.055235 314.595672 
L 1156.293492 312.782894 
L 1157.531749 307.068039 
L 1158.770007 299.608922 
L 1160.008264 293.059774 
L 1161.246521 289.286357 
L 1162.484778 289.009377 
L 1163.723036 291.707611 
L 1167.437807 304.139489 
L 1171.152579 314.866485 
L 1172.390837 317.484034 
L 1173.629094 319.483104 
L 1174.867351 321.051654 
L 1176.105608 322.150266 
L 1177.343866 322.656768 
L 1178.582123 322.438309 
L 1181.058637 320.59495 
L 1182.296895 320.811918 
L 1183.535152 322.125302 
L 1184.773409 323.143142 
L 1186.011666 322.755395 
L 1187.249924 320.818308 
L 1189.726438 314.671662 
L 1190.964696 313.18354 
L 1192.202953 314.572901 
L 1193.44121 318.656422 
L 1194.679467 323.547437 
L 1195.917725 326.717307 
L 1197.155982 326.603684 
L 1198.394239 323.294942 
L 1199.632496 317.781023 
L 1202.109011 304.786241 
L 1203.347268 301.226499 
L 1204.585525 301.333585 
L 1205.823783 303.380815 
L 1207.06204 305.067017 
L 1208.300297 305.980788 
L 1209.538555 307.097506 
L 1212.015069 310.597945 
L 1213.253326 311.887693 
L 1215.729841 313.474706 
L 1216.968098 314.928859 
L 1219.444613 319.362942 
L 1220.68287 320.975111 
L 1221.921127 321.610092 
L 1223.159384 321.79891 
L 1224.397642 322.809325 
L 1225.635899 325.507669 
L 1226.874156 329.247683 
L 1228.112414 332.352144 
L 1229.350671 334.127294 
L 1230.588928 335.503036 
L 1234.3037 340.377462 
L 1235.541957 343.163762 
L 1238.018472 351.715244 
L 1239.256729 354.019097 
L 1240.494986 354.060877 
L 1241.733243 353.130856 
L 1242.971501 352.54363 
L 1244.209758 352.579072 
L 1246.686273 352.946573 
L 1247.92453 353.622527 
L 1249.162787 355.283348 
L 1250.401044 357.514363 
L 1251.639302 359.357933 
L 1252.877559 359.882555 
L 1254.115816 358.590883 
L 1256.592331 353.112205 
L 1257.830588 352.823051 
L 1259.068845 356.586582 
L 1260.307103 363.762789 
L 1261.54536 371.856816 
L 1262.783617 378.369158 
L 1264.021874 381.871616 
L 1265.260132 381.672503 
L 1266.498389 377.811223 
L 1268.974903 366.188969 
L 1270.213161 362.448229 
L 1271.451418 360.129245 
L 1272.689675 358.681942 
L 1273.927932 358.669765 
L 1275.16619 360.767203 
L 1276.404447 364.628367 
L 1278.880962 373.088487 
L 1280.119219 376.4576 
L 1282.595733 382.186865 
L 1283.833991 385.341398 
L 1285.072248 387.664347 
L 1286.310505 387.778381 
L 1287.548762 385.835623 
L 1288.78702 383.606951 
L 1290.025277 382.915953 
L 1291.263534 384.157454 
L 1294.978306 390.849576 
L 1296.216563 391.669178 
L 1297.454821 390.994913 
L 1298.693078 389.611359 
L 1299.931335 388.80888 
L 1301.169592 389.009342 
L 1302.40785 389.63198 
L 1303.646107 389.89706 
L 1304.884364 389.614328 
L 1306.122621 389.548783 
L 1307.360879 390.8606 
L 1309.837393 396.331122 
L 1311.07565 397.57116 
L 1312.313908 397.398561 
L 1313.552165 396.456606 
L 1314.790422 395.363045 
L 1316.02868 394.643202 
L 1317.266937 394.234275 
L 1319.743451 393.014589 
L 1320.981709 393.568265 
L 1322.219966 395.958972 
L 1323.458223 398.93761 
L 1324.69648 400.760641 
L 1325.934738 400.964061 
L 1327.172995 400.084226 
L 1328.411252 398.953026 
L 1329.649509 398.575022 
L 1330.887767 399.5776 
L 1332.126024 401.637958 
L 1333.364281 403.941704 
L 1334.602539 405.859673 
L 1335.840796 407.001242 
L 1337.079053 407.043339 
L 1338.31731 405.777644 
L 1339.555568 403.271403 
L 1340.793825 400.0837 
L 1342.032082 397.574001 
L 1343.270339 397.443699 
L 1344.508597 400.451757 
L 1345.746854 405.860352 
L 1346.985111 411.938929 
L 1348.223368 416.860504 
L 1349.461626 419.468415 
L 1350.699883 419.281903 
L 1351.93814 416.512449 
L 1353.176398 412.610537 
L 1354.414655 409.709646 
L 1355.652912 408.936736 
L 1356.891169 409.802721 
L 1358.129427 411.126268 
L 1359.367684 412.045568 
L 1361.844198 412.627012 
L 1363.082456 413.481537 
L 1365.55897 416.713013 
L 1366.797228 416.719577 
L 1368.035485 414.832994 
L 1369.273742 412.312213 
L 1370.511999 410.895987 
L 1371.750257 411.822564 
L 1372.988514 415.305388 
L 1374.226771 420.132059 
L 1375.465028 424.177988 
L 1376.703286 425.821443 
L 1377.941543 424.7274 
L 1379.1798 421.68382 
L 1380.418057 418.314589 
L 1381.656315 416.347803 
L 1382.894572 416.424834 
L 1384.132829 417.876715 
L 1385.371087 419.842863 
L 1386.609344 422.121863 
L 1387.847601 424.91591 
L 1389.085858 428.314472 
L 1391.562373 436.261787 
L 1392.80063 440.366042 
L 1394.038887 443.568789 
L 1395.277145 444.82306 
L 1396.515402 444.162519 
L 1397.753659 442.384344 
L 1398.991916 439.872414 
L 1400.230174 436.927298 
L 1401.468431 434.638157 
L 1402.706688 434.270213 
L 1403.944946 435.985252 
L 1405.183203 438.594602 
L 1406.42146 440.250666 
L 1407.659717 439.480828 
L 1410.136232 433.378456 
L 1411.374489 432.303954 
L 1412.612746 433.433781 
L 1413.851004 435.298308 
L 1415.089261 436.55141 
L 1416.327518 436.576165 
L 1417.565775 435.2716 
L 1418.804033 433.526422 
L 1420.04229 433.016067 
L 1421.280547 434.700265 
L 1423.757062 440.939802 
L 1424.995319 442.015614 
L 1426.233576 440.409908 
L 1427.471834 436.675689 
L 1429.948348 427.963816 
L 1431.186605 424.516709 
L 1432.424863 421.682001 
L 1433.66312 419.599511 
L 1434.901377 418.491047 
L 1436.139634 418.399199 
L 1437.377892 419.630769 
L 1438.616149 422.438118 
L 1441.092664 430.385772 
L 1442.330921 433.524648 
L 1443.569178 435.474897 
L 1446.045693 438.476164 
L 1447.28395 439.405889 
L 1448.522207 438.662576 
L 1449.760464 435.791453 
L 1452.236979 425.931534 
L 1453.475236 422.724088 
L 1454.713494 422.604823 
L 1455.951751 424.677166 
L 1457.190008 427.114101 
L 1458.428265 428.667658 
L 1459.666523 429.280859 
L 1460.90478 429.478253 
L 1462.143037 429.418773 
L 1463.381294 428.7851 
L 1464.619552 427.115919 
L 1465.857809 424.285722 
L 1467.096066 421.067464 
L 1468.334323 418.505806 
L 1469.572581 416.738145 
L 1470.810838 415.535754 
L 1472.049095 415.33529 
L 1473.287353 416.65454 
L 1474.52561 419.075834 
L 1475.763867 421.152834 
L 1477.002124 421.372745 
L 1478.240382 419.610032 
L 1479.478639 417.472677 
L 1480.716896 416.762678 
L 1481.955153 417.428732 
L 1483.193411 417.657248 
L 1484.431668 416.413206 
L 1485.669925 414.767322 
L 1486.908182 414.418748 
L 1488.14644 415.975395 
L 1489.384697 418.385303 
L 1490.622954 419.50377 
L 1491.861212 417.82681 
L 1494.337726 409.912739 
L 1495.575983 408.059553 
L 1496.814241 409.315861 
L 1498.052498 412.875251 
L 1499.290755 416.801732 
L 1500.529012 419.405009 
L 1501.76727 420.281903 
L 1503.005527 420.637782 
L 1504.243784 422.385085 
L 1505.482041 426.377659 
L 1507.958556 436.601597 
L 1509.196813 440.191975 
L 1510.435071 442.419829 
L 1511.673328 443.280773 
L 1514.149842 442.509207 
L 1515.3881 443.361405 
L 1516.626357 445.625868 
L 1517.864614 448.228812 
L 1519.102871 449.975878 
L 1520.341129 450.064457 
L 1521.579386 448.12182 
L 1522.817643 444.503849 
L 1524.0559 440.359278 
L 1525.294158 436.869403 
L 1526.532415 434.716852 
L 1527.770672 434.337584 
L 1529.00893 435.893421 
L 1530.247187 439.168778 
L 1532.723701 448.600881 
L 1533.961959 451.978528 
L 1535.200216 452.362985 
L 1536.438473 449.697698 
L 1537.67673 445.737676 
L 1538.914988 443.153271 
L 1540.153245 443.721828 
L 1541.391502 447.123502 
L 1542.62976 451.317073 
L 1543.868017 454.000167 
L 1545.106274 454.143072 
L 1546.344531 452.40716 
L 1547.582789 450.193122 
L 1548.821046 448.507741 
L 1550.059303 447.260036 
L 1551.29756 445.281402 
L 1552.535818 441.51562 
L 1556.250589 425.104373 
L 1557.488847 420.925856 
L 1558.727104 417.66097 
L 1559.965361 415.190764 
L 1562.441876 411.531238 
L 1564.91839 407.762529 
L 1566.156648 406.375084 
L 1567.394905 406.11882 
L 1568.633162 406.940337 
L 1571.109677 409.713738 
L 1572.347934 409.850788 
L 1573.586191 407.702611 
L 1576.062706 399.492364 
L 1577.300963 398.02172 
L 1578.53922 400.381453 
L 1579.777478 405.852683 
L 1581.015735 412.535744 
L 1582.253992 418.565731 
L 1583.492249 422.874418 
L 1584.730507 425.195338 
L 1585.968764 425.878427 
L 1587.207021 425.777081 
L 1588.445278 425.975746 
L 1589.683536 427.365627 
L 1590.921793 430.12649 
L 1592.16005 433.513428 
L 1593.398307 436.306133 
L 1594.636565 437.402446 
L 1595.874822 436.316481 
L 1597.113079 433.816226 
L 1598.351337 431.708715 
L 1599.589594 431.291047 
L 1600.827851 432.421833 
L 1603.304366 436.031446 
L 1604.542623 437.236054 
L 1605.78088 436.773685 
L 1607.019137 433.529481 
L 1608.257395 427.696784 
L 1609.495652 421.314551 
L 1610.733909 417.28891 
L 1611.972166 417.559896 
L 1613.210424 421.812435 
L 1614.448681 427.815503 
L 1615.686938 432.820211 
L 1616.925196 434.959202 
L 1618.163453 433.763309 
L 1619.40171 429.613995 
L 1620.639967 423.338331 
L 1621.878225 416.385225 
L 1623.116482 410.747037 
L 1624.354739 408.190081 
L 1625.592996 409.282651 
L 1626.831254 413.293944 
L 1629.307768 424.117413 
L 1630.546026 428.453284 
L 1631.784283 431.860288 
L 1633.02254 434.444706 
L 1634.260797 435.719678 
L 1635.499055 434.762291 
L 1636.737312 430.391642 
L 1637.975569 421.15847 
L 1639.213826 405.768626 
L 1640.452084 384.244308 
L 1641.690341 358.813265 
L 1641.690341 358.813265 
" style="fill:none;stroke:#008000;stroke-linecap:square;stroke-width:1.5;"/>
   </g>
   <g id="patch_3">
    <path d="M 43.78125 586.86358 
L 43.78125 22.318125 
" style="fill:none;stroke:#000000;stroke-linecap:square;stroke-linejoin:miter;stroke-width:0.8;"/>
   </g>
   <g id="patch_4">
    <path d="M 1717.78125 586.86358 
L 1717.78125 22.318125 
" style="fill:none;stroke:#000000;stroke-linecap:square;stroke-linejoin:miter;stroke-width:0.8;"/>
   </g>
   <g id="patch_5">
    <path d="M 43.78125 586.86358 
L 1717.78125 586.86358 
" style="fill:none;stroke:#000000;stroke-linecap:square;stroke-linejoin:miter;stroke-width:0.8;"/>
   </g>
   <g id="patch_6">
    <path d="M 43.78125 22.318125 
L 1717.78125 22.318125 
" style="fill:none;stroke:#000000;stroke-linecap:square;stroke-linejoin:miter;stroke-width:0.8;"/>
   </g>
   <g id="text_19">
    <!-- before binarisation -->
    <g transform="translate(824.1825 16.318125)scale(0.12 -0.12)">
     <defs>
      <path d="M 3116 1747 
Q 3116 2381 2855 2742 
Q 2594 3103 2138 3103 
Q 1681 3103 1420 2742 
Q 1159 2381 1159 1747 
Q 1159 1113 1420 752 
Q 1681 391 2138 391 
Q 2594 391 2855 752 
Q 3116 1113 3116 1747 
z
M 1159 2969 
Q 1341 3281 1617 3432 
Q 1894 3584 2278 3584 
Q 2916 3584 3314 3078 
Q 3713 2572 3713 1747 
Q 3713 922 3314 415 
Q 2916 -91 2278 -91 
Q 1894 -91 1617 61 
Q 1341 213 1159 525 
L 1159 0 
L 581 0 
L 581 4863 
L 1159 4863 
L 1159 2969 
z
" id="DejaVuSans-62" transform="scale(0.015625)"/>
      <path d="M 1959 3097 
Q 1497 3097 1228 2736 
Q 959 2375 959 1747 
Q 959 1119 1226 758 
Q 1494 397 1959 397 
Q 2419 397 2687 759 
Q 2956 1122 2956 1747 
Q 2956 2369 2687 2733 
Q 2419 3097 1959 3097 
z
M 1959 3584 
Q 2709 3584 3137 3096 
Q 3566 2609 3566 1747 
Q 3566 888 3137 398 
Q 2709 -91 1959 -91 
Q 1206 -91 779 398 
Q 353 888 353 1747 
Q 353 2609 779 3096 
Q 1206 3584 1959 3584 
z
" id="DejaVuSans-6f" transform="scale(0.015625)"/>
      <path id="DejaVuSans-20" transform="scale(0.015625)"/>
      <path d="M 603 3500 
L 1178 3500 
L 1178 0 
L 603 0 
L 603 3500 
z
M 603 4863 
L 1178 4863 
L 1178 4134 
L 603 4134 
L 603 4863 
z
" id="DejaVuSans-69" transform="scale(0.015625)"/>
      <path d="M 3513 2113 
L 3513 0 
L 2938 0 
L 2938 2094 
Q 2938 2591 2744 2837 
Q 2550 3084 2163 3084 
Q 1697 3084 1428 2787 
Q 1159 2491 1159 1978 
L 1159 0 
L 581 0 
L 581 3500 
L 1159 3500 
L 1159 2956 
Q 1366 3272 1645 3428 
Q 1925 3584 2291 3584 
Q 2894 3584 3203 3211 
Q 3513 2838 3513 2113 
z
" id="DejaVuSans-6e" transform="scale(0.015625)"/>
      <path d="M 2834 3397 
L 2834 2853 
Q 2591 2978 2328 3040 
Q 2066 3103 1784 3103 
Q 1356 3103 1142 2972 
Q 928 2841 928 2578 
Q 928 2378 1081 2264 
Q 1234 2150 1697 2047 
L 1894 2003 
Q 2506 1872 2764 1633 
Q 3022 1394 3022 966 
Q 3022 478 2636 193 
Q 2250 -91 1575 -91 
Q 1294 -91 989 -36 
Q 684 19 347 128 
L 347 722 
Q 666 556 975 473 
Q 1284 391 1588 391 
Q 1994 391 2212 530 
Q 2431 669 2431 922 
Q 2431 1156 2273 1281 
Q 2116 1406 1581 1522 
L 1381 1569 
Q 847 1681 609 1914 
Q 372 2147 372 2553 
Q 372 3047 722 3315 
Q 1072 3584 1716 3584 
Q 2034 3584 2315 3537 
Q 2597 3491 2834 3397 
z
" id="DejaVuSans-73" transform="scale(0.015625)"/>
      <path d="M 1172 4494 
L 1172 3500 
L 2356 3500 
L 2356 3053 
L 1172 3053 
L 1172 1153 
Q 1172 725 1289 603 
Q 1406 481 1766 481 
L 2356 481 
L 2356 0 
L 1766 0 
Q 1100 0 847 248 
Q 594 497 594 1153 
L 594 3053 
L 172 3053 
L 172 3500 
L 594 3500 
L 594 4494 
L 1172 4494 
z
" id="DejaVuSans-74" transform="scale(0.015625)"/>
     </defs>
     <use xlink:href="#DejaVuSans-62"/>
     <use x="63.476562" xlink:href="#DejaVuSans-65"/>
     <use x="125" xlink:href="#DejaVuSans-66"/>
     <use x="160.205078" xlink:href="#DejaVuSans-6f"/>
     <use x="221.386719" xlink:href="#DejaVuSans-72"/>
     <use x="260.25" xlink:href="#DejaVuSans-65"/>
     <use x="321.773438" xlink:href="#DejaVuSans-20"/>
     <use x="353.560547" xlink:href="#DejaVuSans-62"/>
     <use x="417.037109" xlink:href="#DejaVuSans-69"/>
     <use x="444.820312" xlink:href="#DejaVuSans-6e"/>
     <use x="508.199219" xlink:href="#DejaVuSans-61"/>
     <use x="569.478516" xlink:href="#DejaVuSans-72"/>
     <use x="610.591797" xlink:href="#DejaVuSans-69"/>
     <use x="638.375" xlink:href="#DejaVuSans-73"/>
     <use x="690.474609" xlink:href="#DejaVuSans-61"/>
     <use x="751.753906" xlink:href="#DejaVuSans-74"/>
     <use x="790.962891" xlink:href="#DejaVuSans-69"/>
     <use x="818.746094" xlink:href="#DejaVuSans-6f"/>
     <use x="879.927734" xlink:href="#DejaVuSans-6e"/>
    </g>
   </g>
  </g>
  <g id="axes_2">
   <g id="patch_7">
    <path d="M 43.78125 1264.318125 
L 1717.78125 1264.318125 
L 1717.78125 699.77267 
L 43.78125 699.77267 
z
" style="fill:#ffffff;"/>
   </g>
   <g id="matplotlib.axis_3">
    <g id="xtick_8">
     <g id="line2d_18">
      <g>
       <use style="stroke:#000000;stroke-width:0.8;" x="119.872159" xlink:href="#m2e3eb2237d" y="1264.318125"/>
      </g>
     </g>
     <g id="text_20">
      <!-- 0 -->
      <g transform="translate(116.690909 1278.916563)scale(0.1 -0.1)">
       <use xlink:href="#DejaVuSans-30"/>
      </g>
     </g>
    </g>
    <g id="xtick_9">
     <g id="line2d_19">
      <g>
       <use style="stroke:#000000;stroke-width:0.8;" x="367.523613" xlink:href="#m2e3eb2237d" y="1264.318125"/>
      </g>
     </g>
     <g id="text_21">
      <!-- 200 -->
      <g transform="translate(357.979863 1278.916563)scale(0.1 -0.1)">
       <use xlink:href="#DejaVuSans-32"/>
       <use x="63.623047" xlink:href="#DejaVuSans-30"/>
       <use x="127.246094" xlink:href="#DejaVuSans-30"/>
      </g>
     </g>
    </g>
    <g id="xtick_10">
     <g id="line2d_20">
      <g>
       <use style="stroke:#000000;stroke-width:0.8;" x="615.175066" xlink:href="#m2e3eb2237d" y="1264.318125"/>
      </g>
     </g>
     <g id="text_22">
      <!-- 400 -->
      <g transform="translate(605.631316 1278.916563)scale(0.1 -0.1)">
       <use xlink:href="#DejaVuSans-34"/>
       <use x="63.623047" xlink:href="#DejaVuSans-30"/>
       <use x="127.246094" xlink:href="#DejaVuSans-30"/>
      </g>
     </g>
    </g>
    <g id="xtick_11">
     <g id="line2d_21">
      <g>
       <use style="stroke:#000000;stroke-width:0.8;" x="862.82652" xlink:href="#m2e3eb2237d" y="1264.318125"/>
      </g>
     </g>
     <g id="text_23">
      <!-- 600 -->
      <g transform="translate(853.28277 1278.916563)scale(0.1 -0.1)">
       <use xlink:href="#DejaVuSans-36"/>
       <use x="63.623047" xlink:href="#DejaVuSans-30"/>
       <use x="127.246094" xlink:href="#DejaVuSans-30"/>
      </g>
     </g>
    </g>
    <g id="xtick_12">
     <g id="line2d_22">
      <g>
       <use style="stroke:#000000;stroke-width:0.8;" x="1110.477973" xlink:href="#m2e3eb2237d" y="1264.318125"/>
      </g>
     </g>
     <g id="text_24">
      <!-- 800 -->
      <g transform="translate(1100.934223 1278.916563)scale(0.1 -0.1)">
       <use xlink:href="#DejaVuSans-38"/>
       <use x="63.623047" xlink:href="#DejaVuSans-30"/>
       <use x="127.246094" xlink:href="#DejaVuSans-30"/>
      </g>
     </g>
    </g>
    <g id="xtick_13">
     <g id="line2d_23">
      <g>
       <use style="stroke:#000000;stroke-width:0.8;" x="1358.129427" xlink:href="#m2e3eb2237d" y="1264.318125"/>
      </g>
     </g>
     <g id="text_25">
      <!-- 1000 -->
      <g transform="translate(1345.404427 1278.916563)scale(0.1 -0.1)">
       <use xlink:href="#DejaVuSans-31"/>
       <use x="63.623047" xlink:href="#DejaVuSans-30"/>
       <use x="127.246094" xlink:href="#DejaVuSans-30"/>
       <use x="190.869141" xlink:href="#DejaVuSans-30"/>
      </g>
     </g>
    </g>
    <g id="xtick_14">
     <g id="line2d_24">
      <g>
       <use style="stroke:#000000;stroke-width:0.8;" x="1605.78088" xlink:href="#m2e3eb2237d" y="1264.318125"/>
      </g>
     </g>
     <g id="text_26">
      <!-- 1200 -->
      <g transform="translate(1593.05588 1278.916563)scale(0.1 -0.1)">
       <use xlink:href="#DejaVuSans-31"/>
       <use x="63.623047" xlink:href="#DejaVuSans-32"/>
       <use x="127.246094" xlink:href="#DejaVuSans-30"/>
       <use x="190.869141" xlink:href="#DejaVuSans-30"/>
      </g>
     </g>
    </g>
    <g id="text_27">
     <!-- frame -->
     <g transform="translate(865.954687 1292.594688)scale(0.1 -0.1)">
      <use xlink:href="#DejaVuSans-66"/>
      <use x="35.205078" xlink:href="#DejaVuSans-72"/>
      <use x="76.318359" xlink:href="#DejaVuSans-61"/>
      <use x="137.597656" xlink:href="#DejaVuSans-6d"/>
      <use x="235.009766" xlink:href="#DejaVuSans-65"/>
     </g>
    </g>
   </g>
   <g id="matplotlib.axis_4">
    <g id="ytick_10">
     <g id="line2d_25">
      <g>
       <use style="stroke:#000000;stroke-width:0.8;" x="43.78125" xlink:href="#m489138a382" y="1238.656968"/>
      </g>
     </g>
     <g id="text_28">
      <!-- 0.0 -->
      <g transform="translate(20.878125 1242.456187)scale(0.1 -0.1)">
       <use xlink:href="#DejaVuSans-30"/>
       <use x="63.623047" xlink:href="#DejaVuSans-2e"/>
       <use x="95.410156" xlink:href="#DejaVuSans-30"/>
      </g>
     </g>
    </g>
    <g id="ytick_11">
     <g id="line2d_26">
      <g>
       <use style="stroke:#000000;stroke-width:0.8;" x="43.78125" xlink:href="#m489138a382" y="1136.01234"/>
      </g>
     </g>
     <g id="text_29">
      <!-- 0.2 -->
      <g transform="translate(20.878125 1139.811559)scale(0.1 -0.1)">
       <use xlink:href="#DejaVuSans-30"/>
       <use x="63.623047" xlink:href="#DejaVuSans-2e"/>
       <use x="95.410156" xlink:href="#DejaVuSans-32"/>
      </g>
     </g>
    </g>
    <g id="ytick_12">
     <g id="line2d_27">
      <g>
       <use style="stroke:#000000;stroke-width:0.8;" x="43.78125" xlink:href="#m489138a382" y="1033.367712"/>
      </g>
     </g>
     <g id="text_30">
      <!-- 0.4 -->
      <g transform="translate(20.878125 1037.166931)scale(0.1 -0.1)">
       <use xlink:href="#DejaVuSans-30"/>
       <use x="63.623047" xlink:href="#DejaVuSans-2e"/>
       <use x="95.410156" xlink:href="#DejaVuSans-34"/>
      </g>
     </g>
    </g>
    <g id="ytick_13">
     <g id="line2d_28">
      <g>
       <use style="stroke:#000000;stroke-width:0.8;" x="43.78125" xlink:href="#m489138a382" y="930.723084"/>
      </g>
     </g>
     <g id="text_31">
      <!-- 0.6 -->
      <g transform="translate(20.878125 934.522302)scale(0.1 -0.1)">
       <use xlink:href="#DejaVuSans-30"/>
       <use x="63.623047" xlink:href="#DejaVuSans-2e"/>
       <use x="95.410156" xlink:href="#DejaVuSans-36"/>
      </g>
     </g>
    </g>
    <g id="ytick_14">
     <g id="line2d_29">
      <g>
       <use style="stroke:#000000;stroke-width:0.8;" x="43.78125" xlink:href="#m489138a382" y="828.078456"/>
      </g>
     </g>
     <g id="text_32">
      <!-- 0.8 -->
      <g transform="translate(20.878125 831.877674)scale(0.1 -0.1)">
       <use xlink:href="#DejaVuSans-30"/>
       <use x="63.623047" xlink:href="#DejaVuSans-2e"/>
       <use x="95.410156" xlink:href="#DejaVuSans-38"/>
      </g>
     </g>
    </g>
    <g id="ytick_15">
     <g id="line2d_30">
      <g>
       <use style="stroke:#000000;stroke-width:0.8;" x="43.78125" xlink:href="#m489138a382" y="725.433827"/>
      </g>
     </g>
     <g id="text_33">
      <!-- 1.0 -->
      <g transform="translate(20.878125 729.233046)scale(0.1 -0.1)">
       <use xlink:href="#DejaVuSans-31"/>
       <use x="63.623047" xlink:href="#DejaVuSans-2e"/>
       <use x="95.410156" xlink:href="#DejaVuSans-30"/>
      </g>
     </g>
    </g>
    <g id="text_34">
     <!-- GCaMP -->
     <g transform="translate(14.798437 999.803991)rotate(-90)scale(0.1 -0.1)">
      <use xlink:href="#DejaVuSans-47"/>
      <use x="77.490234" xlink:href="#DejaVuSans-43"/>
      <use x="147.314453" xlink:href="#DejaVuSans-61"/>
      <use x="208.59375" xlink:href="#DejaVuSans-4d"/>
      <use x="294.873047" xlink:href="#DejaVuSans-50"/>
     </g>
    </g>
   </g>
   <g id="line2d_31">
    <path clip-path="url(#pdf31089fc4)" d="M 119.872159 1238.656968 
L 595.36295 1238.656968 
L 596.601207 725.433827 
L 602.792493 725.433827 
L 604.030751 1238.656968 
L 649.84627 1238.656968 
L 651.084527 725.433827 
L 820.725773 725.433827 
L 821.96403 1238.656968 
L 913.595068 1238.656968 
L 914.833325 725.433827 
L 981.699217 725.433827 
L 982.937475 1238.656968 
L 1046.088595 1238.656968 
L 1047.326852 725.433827 
L 1059.709425 725.433827 
L 1060.947682 1238.656968 
L 1641.690341 1238.656968 
L 1641.690341 1238.656968 
" style="fill:none;stroke:#008000;stroke-linecap:square;stroke-width:1.5;"/>
   </g>
   <g id="patch_8">
    <path d="M 43.78125 1264.318125 
L 43.78125 699.77267 
" style="fill:none;stroke:#000000;stroke-linecap:square;stroke-linejoin:miter;stroke-width:0.8;"/>
   </g>
   <g id="patch_9">
    <path d="M 1717.78125 1264.318125 
L 1717.78125 699.77267 
" style="fill:none;stroke:#000000;stroke-linecap:square;stroke-linejoin:miter;stroke-width:0.8;"/>
   </g>
   <g id="patch_10">
    <path d="M 43.78125 1264.318125 
L 1717.78125 1264.318125 
" style="fill:none;stroke:#000000;stroke-linecap:square;stroke-linejoin:miter;stroke-width:0.8;"/>
   </g>
   <g id="patch_11">
    <path d="M 43.78125 699.77267 
L 1717.78125 699.77267 
" style="fill:none;stroke:#000000;stroke-linecap:square;stroke-linejoin:miter;stroke-width:0.8;"/>
   </g>
   <g id="text_35">
    <!-- before binarisation -->
    <g transform="translate(824.1825 693.77267)scale(0.12 -0.12)">
     <use xlink:href="#DejaVuSans-62"/>
     <use x="63.476562" xlink:href="#DejaVuSans-65"/>
     <use x="125" xlink:href="#DejaVuSans-66"/>
     <use x="160.205078" xlink:href="#DejaVuSans-6f"/>
     <use x="221.386719" xlink:href="#DejaVuSans-72"/>
     <use x="260.25" xlink:href="#DejaVuSans-65"/>
     <use x="321.773438" xlink:href="#DejaVuSans-20"/>
     <use x="353.560547" xlink:href="#DejaVuSans-62"/>
     <use x="417.037109" xlink:href="#DejaVuSans-69"/>
     <use x="444.820312" xlink:href="#DejaVuSans-6e"/>
     <use x="508.199219" xlink:href="#DejaVuSans-61"/>
     <use x="569.478516" xlink:href="#DejaVuSans-72"/>
     <use x="610.591797" xlink:href="#DejaVuSans-69"/>
     <use x="638.375" xlink:href="#DejaVuSans-73"/>
     <use x="690.474609" xlink:href="#DejaVuSans-61"/>
     <use x="751.753906" xlink:href="#DejaVuSans-74"/>
     <use x="790.962891" xlink:href="#DejaVuSans-69"/>
     <use x="818.746094" xlink:href="#DejaVuSans-6f"/>
     <use x="879.927734" xlink:href="#DejaVuSans-6e"/>
    </g>
   </g>
  </g>
 </g>
 <defs>
  <clipPath id="p006967305d">
   <rect height="564.545455" width="1674" x="43.78125" y="22.318125"/>
  </clipPath>
  <clipPath id="pdf31089fc4">
   <rect height="564.545455" width="1674" x="43.78125" y="699.77267"/>
  </clipPath>
 </defs>
</svg>
