<?xml version="1.0" encoding="utf-8" standalone="no"?>
<!DOCTYPE svg PUBLIC "-//W3C//DTD SVG 1.1//EN"
  "http://www.w3.org/Graphics/SVG/1.1/DTD/svg11.dtd">
<svg height="1301.874375pt" version="1.1" viewBox="0 0 1724.98125 1301.874375" width="1724.98125pt" xmlns="http://www.w3.org/2000/svg" xmlns:xlink="http://www.w3.org/1999/xlink">
 <metadata>
  <rdf:RDF xmlns:cc="http://creativecommons.org/ns#" xmlns:dc="http://purl.org/dc/elements/1.1/" xmlns:rdf="http://www.w3.org/1999/02/22-rdf-syntax-ns#">
   <cc:Work>
    <dc:type rdf:resource="http://purl.org/dc/dcmitype/StillImage"/>
    <dc:date>2022-07-24T15:54:43.931283</dc:date>
    <dc:format>image/svg+xml</dc:format>
    <dc:creator>
     <cc:Agent>
      <dc:title>Matplotlib v3.4.2, https://matplotlib.org/</dc:title>
     </cc:Agent>
    </dc:creator>
   </cc:Work>
  </rdf:RDF>
 </metadata>
 <defs>
  <style type="text/css">*{stroke-linecap:butt;stroke-linejoin:round;}</style>
 </defs>
 <g id="figure_1">
  <g id="patch_1">
   <path d="M 0 1301.874375 
L 1724.98125 1301.874375 
L 1724.98125 0 
L 0 0 
z
" style="fill:#ffffff;"/>
  </g>
  <g id="axes_1">
   <g id="patch_2">
    <path d="M 43.78125 586.86358 
L 1717.78125 586.86358 
L 1717.78125 22.318125 
L 43.78125 22.318125 
z
" style="fill:#ffffff;"/>
   </g>
   <g id="matplotlib.axis_1">
    <g id="xtick_1">
     <g id="line2d_1">
      <defs>
       <path d="M 0 0 
L 0 3.5 
" id="md08c511633" style="stroke:#000000;stroke-width:0.8;"/>
      </defs>
      <g>
       <use style="stroke:#000000;stroke-width:0.8;" x="119.872159" xlink:href="#md08c511633" y="586.86358"/>
      </g>
     </g>
     <g id="text_1">
      <!-- 0 -->
      <g transform="translate(116.690909 601.462017)scale(0.1 -0.1)">
       <defs>
        <path d="M 2034 4250 
Q 1547 4250 1301 3770 
Q 1056 3291 1056 2328 
Q 1056 1369 1301 889 
Q 1547 409 2034 409 
Q 2525 409 2770 889 
Q 3016 1369 3016 2328 
Q 3016 3291 2770 3770 
Q 2525 4250 2034 4250 
z
M 2034 4750 
Q 2819 4750 3233 4129 
Q 3647 3509 3647 2328 
Q 3647 1150 3233 529 
Q 2819 -91 2034 -91 
Q 1250 -91 836 529 
Q 422 1150 422 2328 
Q 422 3509 836 4129 
Q 1250 4750 2034 4750 
z
" id="DejaVuSans-30" transform="scale(0.015625)"/>
       </defs>
       <use xlink:href="#DejaVuSans-30"/>
      </g>
     </g>
    </g>
    <g id="xtick_2">
     <g id="line2d_2">
      <g>
       <use style="stroke:#000000;stroke-width:0.8;" x="367.523613" xlink:href="#md08c511633" y="586.86358"/>
      </g>
     </g>
     <g id="text_2">
      <!-- 200 -->
      <g transform="translate(357.979863 601.462017)scale(0.1 -0.1)">
       <defs>
        <path d="M 1228 531 
L 3431 531 
L 3431 0 
L 469 0 
L 469 531 
Q 828 903 1448 1529 
Q 2069 2156 2228 2338 
Q 2531 2678 2651 2914 
Q 2772 3150 2772 3378 
Q 2772 3750 2511 3984 
Q 2250 4219 1831 4219 
Q 1534 4219 1204 4116 
Q 875 4013 500 3803 
L 500 4441 
Q 881 4594 1212 4672 
Q 1544 4750 1819 4750 
Q 2544 4750 2975 4387 
Q 3406 4025 3406 3419 
Q 3406 3131 3298 2873 
Q 3191 2616 2906 2266 
Q 2828 2175 2409 1742 
Q 1991 1309 1228 531 
z
" id="DejaVuSans-32" transform="scale(0.015625)"/>
       </defs>
       <use xlink:href="#DejaVuSans-32"/>
       <use x="63.623047" xlink:href="#DejaVuSans-30"/>
       <use x="127.246094" xlink:href="#DejaVuSans-30"/>
      </g>
     </g>
    </g>
    <g id="xtick_3">
     <g id="line2d_3">
      <g>
       <use style="stroke:#000000;stroke-width:0.8;" x="615.175066" xlink:href="#md08c511633" y="586.86358"/>
      </g>
     </g>
     <g id="text_3">
      <!-- 400 -->
      <g transform="translate(605.631316 601.462017)scale(0.1 -0.1)">
       <defs>
        <path d="M 2419 4116 
L 825 1625 
L 2419 1625 
L 2419 4116 
z
M 2253 4666 
L 3047 4666 
L 3047 1625 
L 3713 1625 
L 3713 1100 
L 3047 1100 
L 3047 0 
L 2419 0 
L 2419 1100 
L 313 1100 
L 313 1709 
L 2253 4666 
z
" id="DejaVuSans-34" transform="scale(0.015625)"/>
       </defs>
       <use xlink:href="#DejaVuSans-34"/>
       <use x="63.623047" xlink:href="#DejaVuSans-30"/>
       <use x="127.246094" xlink:href="#DejaVuSans-30"/>
      </g>
     </g>
    </g>
    <g id="xtick_4">
     <g id="line2d_4">
      <g>
       <use style="stroke:#000000;stroke-width:0.8;" x="862.82652" xlink:href="#md08c511633" y="586.86358"/>
      </g>
     </g>
     <g id="text_4">
      <!-- 600 -->
      <g transform="translate(853.28277 601.462017)scale(0.1 -0.1)">
       <defs>
        <path d="M 2113 2584 
Q 1688 2584 1439 2293 
Q 1191 2003 1191 1497 
Q 1191 994 1439 701 
Q 1688 409 2113 409 
Q 2538 409 2786 701 
Q 3034 994 3034 1497 
Q 3034 2003 2786 2293 
Q 2538 2584 2113 2584 
z
M 3366 4563 
L 3366 3988 
Q 3128 4100 2886 4159 
Q 2644 4219 2406 4219 
Q 1781 4219 1451 3797 
Q 1122 3375 1075 2522 
Q 1259 2794 1537 2939 
Q 1816 3084 2150 3084 
Q 2853 3084 3261 2657 
Q 3669 2231 3669 1497 
Q 3669 778 3244 343 
Q 2819 -91 2113 -91 
Q 1303 -91 875 529 
Q 447 1150 447 2328 
Q 447 3434 972 4092 
Q 1497 4750 2381 4750 
Q 2619 4750 2861 4703 
Q 3103 4656 3366 4563 
z
" id="DejaVuSans-36" transform="scale(0.015625)"/>
       </defs>
       <use xlink:href="#DejaVuSans-36"/>
       <use x="63.623047" xlink:href="#DejaVuSans-30"/>
       <use x="127.246094" xlink:href="#DejaVuSans-30"/>
      </g>
     </g>
    </g>
    <g id="xtick_5">
     <g id="line2d_5">
      <g>
       <use style="stroke:#000000;stroke-width:0.8;" x="1110.477973" xlink:href="#md08c511633" y="586.86358"/>
      </g>
     </g>
     <g id="text_5">
      <!-- 800 -->
      <g transform="translate(1100.934223 601.462017)scale(0.1 -0.1)">
       <defs>
        <path d="M 2034 2216 
Q 1584 2216 1326 1975 
Q 1069 1734 1069 1313 
Q 1069 891 1326 650 
Q 1584 409 2034 409 
Q 2484 409 2743 651 
Q 3003 894 3003 1313 
Q 3003 1734 2745 1975 
Q 2488 2216 2034 2216 
z
M 1403 2484 
Q 997 2584 770 2862 
Q 544 3141 544 3541 
Q 544 4100 942 4425 
Q 1341 4750 2034 4750 
Q 2731 4750 3128 4425 
Q 3525 4100 3525 3541 
Q 3525 3141 3298 2862 
Q 3072 2584 2669 2484 
Q 3125 2378 3379 2068 
Q 3634 1759 3634 1313 
Q 3634 634 3220 271 
Q 2806 -91 2034 -91 
Q 1263 -91 848 271 
Q 434 634 434 1313 
Q 434 1759 690 2068 
Q 947 2378 1403 2484 
z
M 1172 3481 
Q 1172 3119 1398 2916 
Q 1625 2713 2034 2713 
Q 2441 2713 2670 2916 
Q 2900 3119 2900 3481 
Q 2900 3844 2670 4047 
Q 2441 4250 2034 4250 
Q 1625 4250 1398 4047 
Q 1172 3844 1172 3481 
z
" id="DejaVuSans-38" transform="scale(0.015625)"/>
       </defs>
       <use xlink:href="#DejaVuSans-38"/>
       <use x="63.623047" xlink:href="#DejaVuSans-30"/>
       <use x="127.246094" xlink:href="#DejaVuSans-30"/>
      </g>
     </g>
    </g>
    <g id="xtick_6">
     <g id="line2d_6">
      <g>
       <use style="stroke:#000000;stroke-width:0.8;" x="1358.129427" xlink:href="#md08c511633" y="586.86358"/>
      </g>
     </g>
     <g id="text_6">
      <!-- 1000 -->
      <g transform="translate(1345.404427 601.462017)scale(0.1 -0.1)">
       <defs>
        <path d="M 794 531 
L 1825 531 
L 1825 4091 
L 703 3866 
L 703 4441 
L 1819 4666 
L 2450 4666 
L 2450 531 
L 3481 531 
L 3481 0 
L 794 0 
L 794 531 
z
" id="DejaVuSans-31" transform="scale(0.015625)"/>
       </defs>
       <use xlink:href="#DejaVuSans-31"/>
       <use x="63.623047" xlink:href="#DejaVuSans-30"/>
       <use x="127.246094" xlink:href="#DejaVuSans-30"/>
       <use x="190.869141" xlink:href="#DejaVuSans-30"/>
      </g>
     </g>
    </g>
    <g id="xtick_7">
     <g id="line2d_7">
      <g>
       <use style="stroke:#000000;stroke-width:0.8;" x="1605.78088" xlink:href="#md08c511633" y="586.86358"/>
      </g>
     </g>
     <g id="text_7">
      <!-- 1200 -->
      <g transform="translate(1593.05588 601.462017)scale(0.1 -0.1)">
       <use xlink:href="#DejaVuSans-31"/>
       <use x="63.623047" xlink:href="#DejaVuSans-32"/>
       <use x="127.246094" xlink:href="#DejaVuSans-30"/>
       <use x="190.869141" xlink:href="#DejaVuSans-30"/>
      </g>
     </g>
    </g>
    <g id="text_8">
     <!-- frame -->
     <g transform="translate(865.954687 615.140142)scale(0.1 -0.1)">
      <defs>
       <path d="M 2375 4863 
L 2375 4384 
L 1825 4384 
Q 1516 4384 1395 4259 
Q 1275 4134 1275 3809 
L 1275 3500 
L 2222 3500 
L 2222 3053 
L 1275 3053 
L 1275 0 
L 697 0 
L 697 3053 
L 147 3053 
L 147 3500 
L 697 3500 
L 697 3744 
Q 697 4328 969 4595 
Q 1241 4863 1831 4863 
L 2375 4863 
z
" id="DejaVuSans-66" transform="scale(0.015625)"/>
       <path d="M 2631 2963 
Q 2534 3019 2420 3045 
Q 2306 3072 2169 3072 
Q 1681 3072 1420 2755 
Q 1159 2438 1159 1844 
L 1159 0 
L 581 0 
L 581 3500 
L 1159 3500 
L 1159 2956 
Q 1341 3275 1631 3429 
Q 1922 3584 2338 3584 
Q 2397 3584 2469 3576 
Q 2541 3569 2628 3553 
L 2631 2963 
z
" id="DejaVuSans-72" transform="scale(0.015625)"/>
       <path d="M 2194 1759 
Q 1497 1759 1228 1600 
Q 959 1441 959 1056 
Q 959 750 1161 570 
Q 1363 391 1709 391 
Q 2188 391 2477 730 
Q 2766 1069 2766 1631 
L 2766 1759 
L 2194 1759 
z
M 3341 1997 
L 3341 0 
L 2766 0 
L 2766 531 
Q 2569 213 2275 61 
Q 1981 -91 1556 -91 
Q 1019 -91 701 211 
Q 384 513 384 1019 
Q 384 1609 779 1909 
Q 1175 2209 1959 2209 
L 2766 2209 
L 2766 2266 
Q 2766 2663 2505 2880 
Q 2244 3097 1772 3097 
Q 1472 3097 1187 3025 
Q 903 2953 641 2809 
L 641 3341 
Q 956 3463 1253 3523 
Q 1550 3584 1831 3584 
Q 2591 3584 2966 3190 
Q 3341 2797 3341 1997 
z
" id="DejaVuSans-61" transform="scale(0.015625)"/>
       <path d="M 3328 2828 
Q 3544 3216 3844 3400 
Q 4144 3584 4550 3584 
Q 5097 3584 5394 3201 
Q 5691 2819 5691 2113 
L 5691 0 
L 5113 0 
L 5113 2094 
Q 5113 2597 4934 2840 
Q 4756 3084 4391 3084 
Q 3944 3084 3684 2787 
Q 3425 2491 3425 1978 
L 3425 0 
L 2847 0 
L 2847 2094 
Q 2847 2600 2669 2842 
Q 2491 3084 2119 3084 
Q 1678 3084 1418 2786 
Q 1159 2488 1159 1978 
L 1159 0 
L 581 0 
L 581 3500 
L 1159 3500 
L 1159 2956 
Q 1356 3278 1631 3431 
Q 1906 3584 2284 3584 
Q 2666 3584 2933 3390 
Q 3200 3197 3328 2828 
z
" id="DejaVuSans-6d" transform="scale(0.015625)"/>
       <path d="M 3597 1894 
L 3597 1613 
L 953 1613 
Q 991 1019 1311 708 
Q 1631 397 2203 397 
Q 2534 397 2845 478 
Q 3156 559 3463 722 
L 3463 178 
Q 3153 47 2828 -22 
Q 2503 -91 2169 -91 
Q 1331 -91 842 396 
Q 353 884 353 1716 
Q 353 2575 817 3079 
Q 1281 3584 2069 3584 
Q 2775 3584 3186 3129 
Q 3597 2675 3597 1894 
z
M 3022 2063 
Q 3016 2534 2758 2815 
Q 2500 3097 2075 3097 
Q 1594 3097 1305 2825 
Q 1016 2553 972 2059 
L 3022 2063 
z
" id="DejaVuSans-65" transform="scale(0.015625)"/>
      </defs>
      <use xlink:href="#DejaVuSans-66"/>
      <use x="35.205078" xlink:href="#DejaVuSans-72"/>
      <use x="76.318359" xlink:href="#DejaVuSans-61"/>
      <use x="137.597656" xlink:href="#DejaVuSans-6d"/>
      <use x="235.009766" xlink:href="#DejaVuSans-65"/>
     </g>
    </g>
   </g>
   <g id="matplotlib.axis_2">
    <g id="ytick_1">
     <g id="line2d_8">
      <defs>
       <path d="M 0 0 
L -3.5 0 
" id="mf3eca17429" style="stroke:#000000;stroke-width:0.8;"/>
      </defs>
      <g>
       <use style="stroke:#000000;stroke-width:0.8;" x="43.78125" xlink:href="#mf3eca17429" y="561.202423"/>
      </g>
     </g>
     <g id="text_9">
      <!-- 0 -->
      <g transform="translate(30.41875 565.001641)scale(0.1 -0.1)">
       <use xlink:href="#DejaVuSans-30"/>
      </g>
     </g>
    </g>
    <g id="ytick_2">
     <g id="line2d_9">
      <g>
       <use style="stroke:#000000;stroke-width:0.8;" x="43.78125" xlink:href="#mf3eca17429" y="448.752282"/>
      </g>
     </g>
     <g id="text_10">
      <!-- 1 -->
      <g transform="translate(30.41875 452.5515)scale(0.1 -0.1)">
       <use xlink:href="#DejaVuSans-31"/>
      </g>
     </g>
    </g>
    <g id="ytick_3">
     <g id="line2d_10">
      <g>
       <use style="stroke:#000000;stroke-width:0.8;" x="43.78125" xlink:href="#mf3eca17429" y="336.302141"/>
      </g>
     </g>
     <g id="text_11">
      <!-- 2 -->
      <g transform="translate(30.41875 340.101359)scale(0.1 -0.1)">
       <use xlink:href="#DejaVuSans-32"/>
      </g>
     </g>
    </g>
    <g id="ytick_4">
     <g id="line2d_11">
      <g>
       <use style="stroke:#000000;stroke-width:0.8;" x="43.78125" xlink:href="#mf3eca17429" y="223.852"/>
      </g>
     </g>
     <g id="text_12">
      <!-- 3 -->
      <g transform="translate(30.41875 227.651218)scale(0.1 -0.1)">
       <defs>
        <path d="M 2597 2516 
Q 3050 2419 3304 2112 
Q 3559 1806 3559 1356 
Q 3559 666 3084 287 
Q 2609 -91 1734 -91 
Q 1441 -91 1130 -33 
Q 819 25 488 141 
L 488 750 
Q 750 597 1062 519 
Q 1375 441 1716 441 
Q 2309 441 2620 675 
Q 2931 909 2931 1356 
Q 2931 1769 2642 2001 
Q 2353 2234 1838 2234 
L 1294 2234 
L 1294 2753 
L 1863 2753 
Q 2328 2753 2575 2939 
Q 2822 3125 2822 3475 
Q 2822 3834 2567 4026 
Q 2313 4219 1838 4219 
Q 1578 4219 1281 4162 
Q 984 4106 628 3988 
L 628 4550 
Q 988 4650 1302 4700 
Q 1616 4750 1894 4750 
Q 2613 4750 3031 4423 
Q 3450 4097 3450 3541 
Q 3450 3153 3228 2886 
Q 3006 2619 2597 2516 
z
" id="DejaVuSans-33" transform="scale(0.015625)"/>
       </defs>
       <use xlink:href="#DejaVuSans-33"/>
      </g>
     </g>
    </g>
    <g id="ytick_5">
     <g id="line2d_12">
      <g>
       <use style="stroke:#000000;stroke-width:0.8;" x="43.78125" xlink:href="#mf3eca17429" y="111.401859"/>
      </g>
     </g>
     <g id="text_13">
      <!-- 4 -->
      <g transform="translate(30.41875 115.201077)scale(0.1 -0.1)">
       <use xlink:href="#DejaVuSans-34"/>
      </g>
     </g>
    </g>
    <g id="text_14">
     <!-- GCaMP -->
     <g transform="translate(24.339062 322.349446)rotate(-90)scale(0.1 -0.1)">
      <defs>
       <path d="M 3809 666 
L 3809 1919 
L 2778 1919 
L 2778 2438 
L 4434 2438 
L 4434 434 
Q 4069 175 3628 42 
Q 3188 -91 2688 -91 
Q 1594 -91 976 548 
Q 359 1188 359 2328 
Q 359 3472 976 4111 
Q 1594 4750 2688 4750 
Q 3144 4750 3555 4637 
Q 3966 4525 4313 4306 
L 4313 3634 
Q 3963 3931 3569 4081 
Q 3175 4231 2741 4231 
Q 1884 4231 1454 3753 
Q 1025 3275 1025 2328 
Q 1025 1384 1454 906 
Q 1884 428 2741 428 
Q 3075 428 3337 486 
Q 3600 544 3809 666 
z
" id="DejaVuSans-47" transform="scale(0.015625)"/>
       <path d="M 4122 4306 
L 4122 3641 
Q 3803 3938 3442 4084 
Q 3081 4231 2675 4231 
Q 1875 4231 1450 3742 
Q 1025 3253 1025 2328 
Q 1025 1406 1450 917 
Q 1875 428 2675 428 
Q 3081 428 3442 575 
Q 3803 722 4122 1019 
L 4122 359 
Q 3791 134 3420 21 
Q 3050 -91 2638 -91 
Q 1578 -91 968 557 
Q 359 1206 359 2328 
Q 359 3453 968 4101 
Q 1578 4750 2638 4750 
Q 3056 4750 3426 4639 
Q 3797 4528 4122 4306 
z
" id="DejaVuSans-43" transform="scale(0.015625)"/>
       <path d="M 628 4666 
L 1569 4666 
L 2759 1491 
L 3956 4666 
L 4897 4666 
L 4897 0 
L 4281 0 
L 4281 4097 
L 3078 897 
L 2444 897 
L 1241 4097 
L 1241 0 
L 628 0 
L 628 4666 
z
" id="DejaVuSans-4d" transform="scale(0.015625)"/>
       <path d="M 1259 4147 
L 1259 2394 
L 2053 2394 
Q 2494 2394 2734 2622 
Q 2975 2850 2975 3272 
Q 2975 3691 2734 3919 
Q 2494 4147 2053 4147 
L 1259 4147 
z
M 628 4666 
L 2053 4666 
Q 2838 4666 3239 4311 
Q 3641 3956 3641 3272 
Q 3641 2581 3239 2228 
Q 2838 1875 2053 1875 
L 1259 1875 
L 1259 0 
L 628 0 
L 628 4666 
z
" id="DejaVuSans-50" transform="scale(0.015625)"/>
      </defs>
      <use xlink:href="#DejaVuSans-47"/>
      <use x="77.490234" xlink:href="#DejaVuSans-43"/>
      <use x="147.314453" xlink:href="#DejaVuSans-61"/>
      <use x="208.59375" xlink:href="#DejaVuSans-4d"/>
      <use x="294.873047" xlink:href="#DejaVuSans-50"/>
     </g>
    </g>
   </g>
   <g id="line2d_13">
    <path clip-path="url(#p02fa9fcd68)" d="M 119.872159 73.747016 
L 121.110416 59.118072 
L 122.348674 49.610681 
L 123.586931 47.979282 
L 124.825188 53.667826 
L 128.53996 83.158237 
L 129.778217 87.831275 
L 131.016474 89.044198 
L 132.254732 88.153357 
L 133.492989 86.707126 
L 134.731246 86.258346 
L 135.969504 87.764603 
L 137.207761 91.120568 
L 138.446018 95.806645 
L 142.16079 112.314422 
L 143.399047 116.582192 
L 144.637304 119.865613 
L 145.875562 121.872534 
L 147.113819 122.582988 
L 148.352076 122.803629 
L 149.590334 123.51096 
L 150.828591 124.841975 
L 153.305105 127.917663 
L 154.543363 128.96391 
L 155.78162 129.854945 
L 157.019877 131.549886 
L 161.972906 142.54165 
L 163.211163 145.945259 
L 164.449421 150.242824 
L 166.925935 160.227017 
L 168.164193 165.268258 
L 169.40245 169.04589 
L 170.640707 170.436173 
L 171.878964 169.533422 
L 173.117222 167.763935 
L 174.355479 167.012233 
L 175.593736 168.654143 
L 176.831993 172.689415 
L 180.546765 187.586181 
L 181.785022 192.432557 
L 183.02328 196.574463 
L 184.261537 198.723856 
L 185.499794 197.492494 
L 186.738052 192.349574 
L 187.976309 184.897241 
L 189.214566 178.453965 
L 190.452823 175.858405 
L 191.691081 177.874534 
L 192.929338 183.320321 
L 195.405852 196.435944 
L 196.64411 200.252824 
L 197.882367 200.65191 
L 199.120624 198.058667 
L 201.597139 189.787394 
L 202.835396 188.093538 
L 204.073653 190.004833 
L 205.311911 194.661327 
L 207.788425 205.409201 
L 209.026682 209.95867 
L 210.26494 213.80159 
L 211.503197 216.878157 
L 212.741454 218.895325 
L 213.979711 219.202357 
L 215.217969 217.423456 
L 217.694483 210.750571 
L 218.93274 208.215408 
L 220.170998 207.455288 
L 221.409255 208.847534 
L 222.647512 212.255759 
L 223.88577 217.273351 
L 226.362284 228.584691 
L 227.600541 232.270346 
L 228.838799 233.703698 
L 230.077056 233.385673 
L 231.315313 232.179871 
L 233.791828 229.379897 
L 235.030085 228.154226 
L 236.268342 227.277752 
L 238.744857 226.224396 
L 242.459629 223.601653 
L 243.697886 223.486096 
L 244.936143 224.476792 
L 246.1744 227.180634 
L 247.412658 231.747066 
L 249.889172 243.368705 
L 251.127429 248.091368 
L 252.365687 250.829512 
L 253.603944 251.258612 
L 254.842201 249.417266 
L 257.318716 242.439604 
L 258.556973 241.68375 
L 259.79523 244.641853 
L 261.033488 249.611371 
L 262.271745 254.068439 
L 263.510002 256.568933 
L 264.748259 256.600436 
L 265.986517 254.195351 
L 268.463031 246.595432 
L 269.701288 245.047042 
L 270.939546 246.284553 
L 273.41606 252.655848 
L 274.654318 254.717579 
L 275.892575 255.210158 
L 277.130832 254.570737 
L 278.369089 253.423983 
L 279.607347 252.046378 
L 280.845604 250.420021 
L 282.083861 249.043994 
L 283.322118 248.645577 
L 284.560376 248.900934 
L 285.798633 248.91334 
L 287.03689 248.452902 
L 288.275147 247.858755 
L 289.513405 247.706876 
L 290.751662 248.668539 
L 291.989919 250.994747 
L 293.228177 254.464988 
L 294.466434 258.861916 
L 296.942948 269.062408 
L 298.181206 273.315803 
L 299.419463 276.112661 
L 300.65772 277.54156 
L 301.895977 278.142097 
L 303.134235 278.419889 
L 304.372492 278.528038 
L 305.610749 278.283721 
L 306.849006 277.379718 
L 308.087264 275.515408 
L 309.325521 272.541727 
L 311.802036 265.287854 
L 313.040293 262.93777 
L 314.27855 262.282311 
L 315.516807 263.206987 
L 316.755065 265.295293 
L 319.231579 271.126467 
L 320.469836 273.230442 
L 321.708094 273.737788 
L 322.946351 272.913323 
L 324.184608 271.755434 
L 326.661123 269.946502 
L 327.89938 268.555853 
L 329.137637 266.896718 
L 330.375895 265.596123 
L 332.852409 263.988072 
L 334.090666 262.56801 
L 335.328924 261.491097 
L 336.567181 261.806232 
L 337.805438 263.307185 
L 339.043695 265.057674 
L 340.281953 266.281661 
L 341.52021 266.537401 
L 342.758467 265.664606 
L 343.996725 263.736247 
L 347.711496 255.774855 
L 348.949754 254.659943 
L 350.188011 255.113298 
L 351.426268 257.095529 
L 352.664525 260.496572 
L 355.14104 269.209953 
L 356.379297 272.356761 
L 357.617554 273.753135 
L 358.855812 273.76776 
L 360.094069 273.260991 
L 361.332326 273.05475 
L 362.570584 273.583121 
L 363.808841 274.551428 
L 365.047098 275.054307 
L 366.285355 274.218135 
L 367.523613 271.765683 
L 370.000127 264.613367 
L 371.238384 262.018914 
L 372.476642 261.120776 
L 373.714899 262.075946 
L 374.953156 264.450035 
L 377.429671 270.280599 
L 378.667928 272.228915 
L 379.906185 272.907119 
L 381.144443 272.34226 
L 383.620957 269.727991 
L 386.097472 268.080586 
L 387.335729 266.397839 
L 388.573986 263.982462 
L 389.812243 262.335594 
L 391.050501 262.878088 
L 392.288758 265.574068 
L 394.765272 273.00118 
L 396.00353 276.062765 
L 397.241787 278.200605 
L 398.480044 279.182911 
L 399.718302 278.880484 
L 400.956559 277.513056 
L 403.433073 273.945708 
L 404.671331 272.914893 
L 405.909588 272.504063 
L 408.386102 272.312405 
L 409.62436 272.633511 
L 410.862617 273.704683 
L 412.100874 275.175228 
L 413.339132 275.879361 
L 414.577389 274.943188 
L 415.815646 272.520912 
L 418.292161 266.451521 
L 419.530418 264.091901 
L 420.768675 262.643804 
L 422.006932 262.121663 
L 423.24519 262.250472 
L 424.483447 262.824305 
L 425.721704 263.873919 
L 426.959961 265.478754 
L 429.436476 269.566212 
L 430.674733 270.951491 
L 431.912991 271.589175 
L 433.151248 271.934346 
L 434.389505 272.506444 
L 435.627762 273.293213 
L 436.86602 273.612598 
L 438.104277 272.771897 
L 439.342534 270.70541 
L 441.819049 265.556714 
L 443.057306 264.000598 
L 444.295563 263.519583 
L 445.53382 263.788841 
L 446.772078 264.465691 
L 448.010335 265.313758 
L 449.248592 265.719124 
L 450.48685 265.071064 
L 454.201621 260.552044 
L 455.439879 259.564792 
L 456.678136 258.856042 
L 457.916393 258.607413 
L 459.15465 259.306862 
L 460.392908 261.182465 
L 461.631165 263.984178 
L 465.345937 273.752587 
L 466.584194 275.664741 
L 467.822451 276.116447 
L 469.060709 275.307513 
L 470.298966 274.218314 
L 471.537223 273.945558 
L 472.77548 274.711666 
L 474.013738 275.849104 
L 475.251995 276.633812 
L 476.490252 276.773477 
L 477.728509 276.128652 
L 478.966767 274.526562 
L 481.443281 269.973119 
L 482.681538 268.886145 
L 483.919796 269.609129 
L 486.39631 274.208869 
L 487.634568 275.438646 
L 488.872825 275.154494 
L 491.349339 272.57061 
L 495.064111 268.844218 
L 496.302368 268.110789 
L 497.540626 267.895963 
L 498.778883 268.011575 
L 500.01714 268.304467 
L 501.255397 268.883982 
L 503.731912 270.926824 
L 504.970169 271.589168 
L 506.208427 271.377465 
L 507.446684 270.147607 
L 509.923198 266.567668 
L 511.161456 265.473498 
L 512.399713 264.585181 
L 513.63797 263.444979 
L 514.876227 262.46371 
L 516.114485 262.433556 
L 517.352742 263.640993 
L 518.590999 266.02031 
L 521.067514 272.738137 
L 522.305771 274.948847 
L 523.544028 275.068544 
L 524.782286 273.043211 
L 526.020543 269.625381 
L 527.2588 265.823297 
L 528.497057 262.386047 
L 529.735315 259.757167 
L 530.973572 258.183803 
L 532.211829 257.673933 
L 533.450086 258.092463 
L 534.688344 259.54271 
L 535.926601 262.171107 
L 537.164858 265.441635 
L 538.403116 268.281469 
L 539.641373 270.077781 
L 540.87963 271.090517 
L 542.117887 271.82744 
L 543.356145 272.422745 
L 544.594402 272.705142 
L 545.832659 272.391261 
L 547.070916 271.223197 
L 548.309174 269.225276 
L 549.547431 266.786457 
L 550.785688 264.609818 
L 552.023945 263.485558 
L 553.262203 263.638359 
L 554.50046 264.232106 
L 555.738717 263.852421 
L 556.976975 261.910432 
L 558.215232 259.599487 
L 559.453489 258.799525 
L 560.691746 260.020903 
L 561.930004 262.370882 
L 564.406518 267.584204 
L 565.644775 268.575652 
L 566.883033 266.565274 
L 568.12129 261.389312 
L 569.359547 254.869932 
L 570.597804 249.582933 
L 571.836062 246.93604 
L 573.074319 246.777434 
L 574.312576 248.18075 
L 575.550834 249.937999 
L 576.789091 251.027859 
L 578.027348 251.408397 
L 579.265605 252.244457 
L 580.503863 254.763206 
L 582.980377 262.53197 
L 584.218634 264.134628 
L 585.456892 262.830978 
L 587.933406 256.337299 
L 589.171663 254.6956 
L 590.409921 254.897101 
L 591.648178 256.457928 
L 592.886435 259.137197 
L 594.124693 263.126308 
L 595.36295 268.371069 
L 597.839464 279.466628 
L 599.077722 283.206728 
L 600.315979 284.2643 
L 601.554236 282.110761 
L 602.792493 277.034813 
L 605.269008 262.86185 
L 606.507265 257.785763 
L 607.745523 256.131413 
L 608.98378 257.653025 
L 611.460294 264.800903 
L 612.698552 267.239893 
L 613.936809 267.65675 
L 615.175066 266.248905 
L 617.651581 261.565796 
L 620.128095 257.468788 
L 621.366352 254.977851 
L 622.60461 252.816101 
L 623.842867 252.225528 
L 625.081124 253.869106 
L 626.319382 257.504878 
L 627.557639 262.034099 
L 628.795896 265.561438 
L 630.034153 266.419315 
L 631.272411 264.498659 
L 633.748925 257.779044 
L 634.987182 255.778929 
L 636.22544 255.575323 
L 637.463697 256.858544 
L 638.701954 258.848401 
L 639.940211 260.613593 
L 641.178469 261.368208 
L 642.416726 260.94963 
L 646.131498 258.010463 
L 647.369755 256.194752 
L 648.608012 253.009683 
L 649.84627 249.103938 
L 651.084527 245.880207 
L 652.322784 244.276601 
L 653.561041 244.240605 
L 654.799299 245.191982 
L 657.275813 247.611719 
L 659.752328 249.392409 
L 660.990585 250.151063 
L 665.943614 252.529555 
L 667.181871 252.020805 
L 668.420129 250.265191 
L 669.658386 247.858456 
L 670.896643 245.728241 
L 672.1349 244.777286 
L 673.373158 245.449217 
L 674.611415 247.429835 
L 677.087929 252.648542 
L 678.326187 254.602442 
L 679.564444 255.199011 
L 680.802701 254.358014 
L 682.040959 253.057731 
L 683.279216 252.671512 
L 684.517473 253.655059 
L 685.75573 255.160259 
L 686.993988 256.282968 
L 688.232245 256.775931 
L 689.470502 256.053361 
L 690.708759 253.274334 
L 693.185274 245.096672 
L 694.423531 242.977293 
L 695.661789 242.585835 
L 696.900046 242.821059 
L 698.138303 242.471542 
L 699.37656 241.376607 
L 700.614818 240.678953 
L 701.853075 241.833045 
L 703.091332 245.3419 
L 705.567847 254.67287 
L 706.806104 257.109018 
L 708.044361 257.014576 
L 709.282618 254.964579 
L 711.759133 249.24461 
L 712.99739 246.84953 
L 714.235648 244.793148 
L 715.473905 243.333935 
L 716.712162 243.138858 
L 717.950419 244.459144 
L 719.188677 246.706733 
L 720.426934 248.636168 
L 721.665191 248.843941 
L 722.903448 246.813192 
L 725.379963 239.855225 
L 726.61822 237.249617 
L 727.856477 236.147842 
L 729.094735 236.652933 
L 731.571249 239.877921 
L 732.809507 240.724633 
L 734.047764 240.355175 
L 735.286021 238.589062 
L 736.524278 235.116141 
L 739.000793 225.666382 
L 740.23905 222.932635 
L 741.477307 221.874707 
L 742.715565 221.140212 
L 743.953822 219.858496 
L 745.192079 217.99415 
L 748.906851 211.350537 
L 750.145108 209.499556 
L 751.383366 207.00148 
L 752.621623 202.948061 
L 753.85988 198.002664 
L 755.098137 194.224822 
L 756.336395 193.012629 
L 757.574652 194.314591 
L 758.812909 197.32155 
L 760.051166 200.737329 
L 761.289424 203.257015 
L 762.527681 204.559743 
L 765.004195 206.084732 
L 767.48071 208.289557 
L 768.718967 208.82943 
L 769.957225 208.217999 
L 771.195482 206.406107 
L 772.433739 204.24199 
L 773.671996 202.998813 
L 774.910254 203.411812 
L 777.386768 206.701968 
L 778.625025 207.045697 
L 779.863283 206.265007 
L 781.10154 205.670755 
L 782.339797 206.366925 
L 783.578054 208.267624 
L 786.054569 213.151437 
L 787.292826 215.033133 
L 788.531084 215.709524 
L 789.769341 215.147707 
L 791.007598 213.824399 
L 792.245855 212.298138 
L 793.484113 211.223621 
L 794.72237 211.21222 
L 795.960627 212.532522 
L 797.198884 215.214183 
L 798.437142 219.185537 
L 799.675399 224.332351 
L 802.151914 236.075258 
L 803.390171 239.770539 
L 804.628428 240.027315 
L 805.866685 236.603379 
L 808.3432 225.557756 
L 809.581457 222.915668 
L 810.819714 224.323455 
L 812.057972 229.464899 
L 813.296229 236.134102 
L 814.534486 241.615173 
L 815.772743 244.410413 
L 817.011001 244.464838 
L 818.249258 242.539379 
L 819.487515 239.820028 
L 820.725773 237.696538 
L 821.96403 237.378891 
L 823.202287 239.286365 
L 825.678802 246.258679 
L 826.917059 248.912764 
L 828.155316 250.475127 
L 829.393573 251.185591 
L 830.631831 251.172187 
L 831.870088 250.474327 
L 833.108345 249.249982 
L 834.346602 247.83578 
L 835.58486 246.738669 
L 836.823117 246.350603 
L 838.061374 246.387603 
L 839.299632 246.029083 
L 840.537889 244.927514 
L 843.014403 241.906992 
L 844.252661 239.909629 
L 845.490918 237.568291 
L 846.729175 235.5784 
L 847.967432 234.387959 
L 849.20569 233.983971 
L 851.682204 234.204065 
L 852.920461 234.46293 
L 855.396976 235.32473 
L 856.635233 235.167986 
L 857.873491 234.317429 
L 859.111748 233.188526 
L 860.350005 232.64089 
L 862.82652 233.250954 
L 864.064777 232.61116 
L 865.303034 230.718336 
L 866.541291 228.03725 
L 867.779549 225.043805 
L 869.017806 221.726201 
L 871.49432 214.554187 
L 872.732578 211.698139 
L 873.970835 209.544397 
L 875.209092 207.881262 
L 876.44735 206.570859 
L 878.923864 204.410776 
L 880.162121 203.670142 
L 881.400379 203.516289 
L 887.591665 204.562584 
L 888.829922 204.457005 
L 890.06818 205.084143 
L 891.306437 207.301018 
L 893.782951 214.039323 
L 895.021209 216.094944 
L 896.259466 216.990858 
L 897.497723 217.627291 
L 898.73598 218.909246 
L 899.974238 221.383342 
L 902.450752 228.461158 
L 903.689009 231.070441 
L 904.927267 232.527593 
L 907.403781 234.208221 
L 908.642039 234.984499 
L 909.880296 235.368149 
L 911.118553 234.996096 
L 912.35681 233.770324 
L 913.595068 232.208906 
L 914.833325 231.437614 
L 916.071582 232.227888 
L 917.309839 234.043509 
L 918.548097 235.393056 
L 919.786354 234.888729 
L 921.024611 231.936924 
L 922.262868 226.950893 
L 925.97764 209.462084 
L 927.215898 205.319372 
L 928.454155 203.0425 
L 929.692412 202.559824 
L 930.930669 203.027342 
L 933.407184 204.110789 
L 934.645441 204.420583 
L 935.883698 204.195838 
L 938.360213 202.326574 
L 939.59847 203.05216 
L 940.836727 206.469667 
L 943.313242 216.596799 
L 944.551499 219.333825 
L 945.789757 220.026137 
L 947.028014 219.983304 
L 948.266271 220.115956 
L 949.504528 220.125458 
L 950.742786 219.19555 
L 951.981043 216.863789 
L 954.457557 210.302477 
L 955.695815 208.323544 
L 956.934072 207.470645 
L 959.410586 206.428771 
L 960.648844 205.857727 
L 963.125358 205.104858 
L 964.363616 204.295598 
L 965.601873 202.411851 
L 966.84013 198.848362 
L 969.316645 188.311103 
L 970.554902 184.536147 
L 971.793159 183.008395 
L 973.031416 183.153697 
L 974.269674 184.168919 
L 975.507931 185.602052 
L 977.984446 189.094166 
L 979.222703 191.181008 
L 981.699217 196.194118 
L 982.937475 197.695683 
L 984.175732 197.47024 
L 985.413989 195.883688 
L 986.652246 193.842113 
L 987.890504 192.211091 
L 989.128761 191.733984 
L 990.367018 192.892029 
L 991.605275 195.568601 
L 992.843533 198.694644 
L 994.08179 200.786171 
L 995.320047 201.151927 
L 996.558305 200.290597 
L 1000.273076 196.909619 
L 1001.511334 195.152083 
L 1002.749591 192.215404 
L 1003.987848 188.530484 
L 1005.226105 185.256154 
L 1006.464363 182.783462 
L 1008.940877 178.540331 
L 1010.179134 175.655402 
L 1012.655649 168.312932 
L 1013.893906 167.041135 
L 1015.132164 168.93797 
L 1016.370421 173.269921 
L 1017.608678 178.282015 
L 1018.846935 182.37188 
L 1020.085193 185.051007 
L 1021.32345 186.466175 
L 1022.561707 186.608149 
L 1023.799964 185.43017 
L 1025.038222 182.842803 
L 1026.276479 178.694946 
L 1029.991251 162.494885 
L 1031.229508 158.378539 
L 1032.467765 156.040456 
L 1033.706023 155.599592 
L 1034.94428 155.895566 
L 1036.182537 155.726578 
L 1037.420794 155.343814 
L 1038.659052 155.833677 
L 1039.897309 157.276456 
L 1041.135566 158.542929 
L 1043.612081 159.405909 
L 1044.850338 161.365461 
L 1046.088595 165.617158 
L 1048.56511 176.846158 
L 1049.803367 180.208216 
L 1051.041624 181.490084 
L 1052.279882 182.240357 
L 1053.518139 183.852688 
L 1057.232911 191.625981 
L 1058.471168 192.821985 
L 1059.709425 193.006305 
L 1060.947682 191.669443 
L 1062.18594 188.019983 
L 1063.424197 182.122017 
L 1064.662454 175.30813 
L 1065.900711 169.591167 
L 1067.138969 166.863371 
L 1068.377226 167.995123 
L 1069.615483 172.194376 
L 1072.091998 183.044999 
L 1073.330255 187.64627 
L 1074.568512 191.16457 
L 1075.80677 193.648963 
L 1077.045027 195.344987 
L 1078.283284 196.438327 
L 1079.521541 197.141572 
L 1084.474571 199.234204 
L 1085.712828 561.202423 
L 1204.585525 561.202423 
L 1205.823783 191.726989 
L 1207.06204 191.886971 
L 1210.776812 194.967831 
L 1212.015069 197.015986 
L 1214.491584 203.76422 
L 1215.729841 205.728236 
L 1216.968098 204.852956 
L 1218.206355 201.460107 
L 1219.444613 197.197934 
L 1220.68287 193.34901 
L 1221.921127 190.123138 
L 1224.397642 184.464548 
L 1225.635899 182.169604 
L 1226.874156 181.59744 
L 1228.112414 183.785664 
L 1229.350671 187.895028 
L 1230.588928 191.140902 
L 1231.827185 190.4683 
L 1233.065443 184.609203 
L 1234.3037 175.213867 
L 1235.541957 561.202423 
L 1387.847601 561.202423 
L 1389.085858 177.411944 
L 1390.324116 187.532773 
L 1391.562373 196.408805 
L 1392.80063 202.483723 
L 1394.038887 204.700997 
L 1395.277145 203.456955 
L 1396.515402 200.336873 
L 1398.991916 193.325851 
L 1400.230174 190.911762 
L 1401.468431 189.897339 
L 1402.706688 190.171281 
L 1403.944946 191.234023 
L 1405.183203 192.461575 
L 1406.42146 193.340059 
L 1407.659717 193.493457 
L 1408.897975 192.690046 
L 1410.136232 191.091065 
L 1412.612746 187.222065 
L 1413.851004 184.702417 
L 1415.089261 181.083466 
L 1416.327518 176.864067 
L 1417.565775 173.87348 
L 1418.804033 173.710813 
L 1420.04229 176.034401 
L 1422.518805 182.169552 
L 1423.757062 184.803211 
L 1426.233576 189.354759 
L 1427.471834 191.240044 
L 1428.710091 192.262268 
L 1429.948348 192.167479 
L 1431.186605 191.193271 
L 1432.424863 189.433073 
L 1433.66312 186.95137 
L 1434.901377 184.734996 
L 1436.139634 184.307464 
L 1437.377892 185.90831 
L 1438.616149 188.058261 
L 1439.854406 189.260058 
L 1441.092664 189.425144 
L 1442.330921 189.428259 
L 1443.569178 189.964772 
L 1444.807435 191.068747 
L 1446.045693 191.937042 
L 1447.28395 191.141733 
L 1448.522207 187.751078 
L 1450.998722 176.448395 
L 1452.236979 172.730892 
L 1453.475236 172.58377 
L 1454.713494 175.452899 
L 1455.951751 179.341488 
L 1457.190008 182.180712 
L 1458.428265 182.982832 
L 1459.666523 182.510004 
L 1460.90478 182.39096 
L 1462.143037 183.396243 
L 1463.381294 185.28466 
L 1464.619552 187.864437 
L 1465.857809 191.162125 
L 1467.096066 194.78158 
L 1468.334323 197.780075 
L 1469.572581 199.288378 
L 1470.810838 199.049493 
L 1472.049095 197.275856 
L 1473.287353 194.302082 
L 1474.52561 190.740382 
L 1475.763867 187.545059 
L 1477.002124 185.258278 
L 1478.240382 183.72034 
L 1479.478639 182.923766 
L 1480.716896 183.265859 
L 1481.955153 184.83355 
L 1483.193411 186.996809 
L 1484.431668 188.610413 
L 1485.669925 188.827304 
L 1486.908182 187.890641 
L 1488.14644 186.730806 
L 1489.384697 185.976857 
L 1490.622954 185.751176 
L 1491.861212 186.115168 
L 1493.099469 187.10877 
L 1494.337726 188.277762 
L 1495.575983 188.92319 
L 1496.814241 188.974486 
L 1501.76727 188.645728 
L 1503.005527 188.589375 
L 1504.243784 188.762654 
L 1505.482041 189.124638 
L 1506.720299 189.230609 
L 1509.196813 188.442753 
L 1511.673328 188.4216 
L 1512.911585 187.45291 
L 1515.3881 182.818842 
L 1516.626357 182.57356 
L 1517.864614 184.653832 
L 1519.102871 187.373724 
L 1520.341129 188.826878 
L 1521.579386 188.650622 
L 1522.817643 188.138215 
L 1524.0559 188.663545 
L 1526.532415 191.679524 
L 1527.770672 192.35178 
L 1529.00893 192.334662 
L 1532.723701 191.852518 
L 1533.961959 191.325021 
L 1536.438473 189.69306 
L 1537.67673 189.594726 
L 1538.914988 190.193267 
L 1540.153245 191.335016 
L 1541.391502 193.57091 
L 1542.62976 197.525967 
L 1543.868017 202.134858 
L 1545.106274 204.659873 
L 1546.344531 202.985188 
L 1547.582789 197.37549 
L 1550.059303 182.629971 
L 1551.29756 176.201419 
L 1552.535818 171.336291 
L 1553.774075 169.0422 
L 1555.012332 169.72794 
L 1556.250589 172.822439 
L 1557.488847 176.888417 
L 1558.727104 179.790993 
L 1559.965361 179.713553 
L 1561.203619 176.591874 
L 1563.680133 167.6462 
L 1564.91839 164.884742 
L 1566.156648 164.81206 
L 1568.633162 169.463134 
L 1569.871419 169.619733 
L 1571.109677 166.873831 
L 1572.347934 162.476547 
L 1573.586191 158.728957 
L 1574.824448 157.575859 
L 1576.062706 159.34983 
L 1577.300963 163.021195 
L 1578.53922 167.862584 
L 1579.777478 173.996864 
L 1582.253992 188.017973 
L 1583.492249 192.645888 
L 1584.730507 193.858001 
L 1585.968764 191.825863 
L 1587.207021 188.319433 
L 1588.445278 185.917024 
L 1589.683536 186.111817 
L 1590.921793 188.028163 
L 1592.16005 189.14935 
L 1593.398307 187.571904 
L 1595.874822 180.11916 
L 1597.113079 177.723893 
L 1598.351337 176.190926 
L 1599.589594 174.855024 
L 1600.827851 173.689199 
L 1602.066108 172.704063 
L 1603.304366 171.365361 
L 1604.542623 168.954013 
L 1607.019137 161.940584 
L 1608.257395 159.515365 
L 1609.495652 159.659906 
L 1610.733909 163.012442 
L 1613.210424 174.345032 
L 1614.448681 178.122043 
L 1615.686938 178.674991 
L 1616.925196 176.542223 
L 1618.163453 173.652902 
L 1619.40171 171.90157 
L 1620.639967 172.086841 
L 1621.878225 173.787304 
L 1623.116482 175.862369 
L 1624.354739 176.890214 
L 1625.592996 175.447302 
L 1626.831254 170.811413 
L 1630.546026 150.207885 
L 1631.784283 145.477408 
L 1633.02254 141.440711 
L 1634.260797 138.204775 
L 1635.499055 136.443383 
L 1636.737312 136.639389 
L 1637.975569 139.276087 
L 1639.213826 144.712819 
L 1640.452084 152.488648 
L 1641.690341 161.44031 
L 1641.690341 161.44031 
" style="fill:none;stroke:#008000;stroke-linecap:square;stroke-width:1.5;"/>
   </g>
   <g id="patch_3">
    <path d="M 43.78125 586.86358 
L 43.78125 22.318125 
" style="fill:none;stroke:#000000;stroke-linecap:square;stroke-linejoin:miter;stroke-width:0.8;"/>
   </g>
   <g id="patch_4">
    <path d="M 1717.78125 586.86358 
L 1717.78125 22.318125 
" style="fill:none;stroke:#000000;stroke-linecap:square;stroke-linejoin:miter;stroke-width:0.8;"/>
   </g>
   <g id="patch_5">
    <path d="M 43.78125 586.86358 
L 1717.78125 586.86358 
" style="fill:none;stroke:#000000;stroke-linecap:square;stroke-linejoin:miter;stroke-width:0.8;"/>
   </g>
   <g id="patch_6">
    <path d="M 43.78125 22.318125 
L 1717.78125 22.318125 
" style="fill:none;stroke:#000000;stroke-linecap:square;stroke-linejoin:miter;stroke-width:0.8;"/>
   </g>
   <g id="text_15">
    <!-- before binarisation -->
    <g transform="translate(824.1825 16.318125)scale(0.12 -0.12)">
     <defs>
      <path d="M 3116 1747 
Q 3116 2381 2855 2742 
Q 2594 3103 2138 3103 
Q 1681 3103 1420 2742 
Q 1159 2381 1159 1747 
Q 1159 1113 1420 752 
Q 1681 391 2138 391 
Q 2594 391 2855 752 
Q 3116 1113 3116 1747 
z
M 1159 2969 
Q 1341 3281 1617 3432 
Q 1894 3584 2278 3584 
Q 2916 3584 3314 3078 
Q 3713 2572 3713 1747 
Q 3713 922 3314 415 
Q 2916 -91 2278 -91 
Q 1894 -91 1617 61 
Q 1341 213 1159 525 
L 1159 0 
L 581 0 
L 581 4863 
L 1159 4863 
L 1159 2969 
z
" id="DejaVuSans-62" transform="scale(0.015625)"/>
      <path d="M 1959 3097 
Q 1497 3097 1228 2736 
Q 959 2375 959 1747 
Q 959 1119 1226 758 
Q 1494 397 1959 397 
Q 2419 397 2687 759 
Q 2956 1122 2956 1747 
Q 2956 2369 2687 2733 
Q 2419 3097 1959 3097 
z
M 1959 3584 
Q 2709 3584 3137 3096 
Q 3566 2609 3566 1747 
Q 3566 888 3137 398 
Q 2709 -91 1959 -91 
Q 1206 -91 779 398 
Q 353 888 353 1747 
Q 353 2609 779 3096 
Q 1206 3584 1959 3584 
z
" id="DejaVuSans-6f" transform="scale(0.015625)"/>
      <path id="DejaVuSans-20" transform="scale(0.015625)"/>
      <path d="M 603 3500 
L 1178 3500 
L 1178 0 
L 603 0 
L 603 3500 
z
M 603 4863 
L 1178 4863 
L 1178 4134 
L 603 4134 
L 603 4863 
z
" id="DejaVuSans-69" transform="scale(0.015625)"/>
      <path d="M 3513 2113 
L 3513 0 
L 2938 0 
L 2938 2094 
Q 2938 2591 2744 2837 
Q 2550 3084 2163 3084 
Q 1697 3084 1428 2787 
Q 1159 2491 1159 1978 
L 1159 0 
L 581 0 
L 581 3500 
L 1159 3500 
L 1159 2956 
Q 1366 3272 1645 3428 
Q 1925 3584 2291 3584 
Q 2894 3584 3203 3211 
Q 3513 2838 3513 2113 
z
" id="DejaVuSans-6e" transform="scale(0.015625)"/>
      <path d="M 2834 3397 
L 2834 2853 
Q 2591 2978 2328 3040 
Q 2066 3103 1784 3103 
Q 1356 3103 1142 2972 
Q 928 2841 928 2578 
Q 928 2378 1081 2264 
Q 1234 2150 1697 2047 
L 1894 2003 
Q 2506 1872 2764 1633 
Q 3022 1394 3022 966 
Q 3022 478 2636 193 
Q 2250 -91 1575 -91 
Q 1294 -91 989 -36 
Q 684 19 347 128 
L 347 722 
Q 666 556 975 473 
Q 1284 391 1588 391 
Q 1994 391 2212 530 
Q 2431 669 2431 922 
Q 2431 1156 2273 1281 
Q 2116 1406 1581 1522 
L 1381 1569 
Q 847 1681 609 1914 
Q 372 2147 372 2553 
Q 372 3047 722 3315 
Q 1072 3584 1716 3584 
Q 2034 3584 2315 3537 
Q 2597 3491 2834 3397 
z
" id="DejaVuSans-73" transform="scale(0.015625)"/>
      <path d="M 1172 4494 
L 1172 3500 
L 2356 3500 
L 2356 3053 
L 1172 3053 
L 1172 1153 
Q 1172 725 1289 603 
Q 1406 481 1766 481 
L 2356 481 
L 2356 0 
L 1766 0 
Q 1100 0 847 248 
Q 594 497 594 1153 
L 594 3053 
L 172 3053 
L 172 3500 
L 594 3500 
L 594 4494 
L 1172 4494 
z
" id="DejaVuSans-74" transform="scale(0.015625)"/>
     </defs>
     <use xlink:href="#DejaVuSans-62"/>
     <use x="63.476562" xlink:href="#DejaVuSans-65"/>
     <use x="125" xlink:href="#DejaVuSans-66"/>
     <use x="160.205078" xlink:href="#DejaVuSans-6f"/>
     <use x="221.386719" xlink:href="#DejaVuSans-72"/>
     <use x="260.25" xlink:href="#DejaVuSans-65"/>
     <use x="321.773438" xlink:href="#DejaVuSans-20"/>
     <use x="353.560547" xlink:href="#DejaVuSans-62"/>
     <use x="417.037109" xlink:href="#DejaVuSans-69"/>
     <use x="444.820312" xlink:href="#DejaVuSans-6e"/>
     <use x="508.199219" xlink:href="#DejaVuSans-61"/>
     <use x="569.478516" xlink:href="#DejaVuSans-72"/>
     <use x="610.591797" xlink:href="#DejaVuSans-69"/>
     <use x="638.375" xlink:href="#DejaVuSans-73"/>
     <use x="690.474609" xlink:href="#DejaVuSans-61"/>
     <use x="751.753906" xlink:href="#DejaVuSans-74"/>
     <use x="790.962891" xlink:href="#DejaVuSans-69"/>
     <use x="818.746094" xlink:href="#DejaVuSans-6f"/>
     <use x="879.927734" xlink:href="#DejaVuSans-6e"/>
    </g>
   </g>
  </g>
  <g id="axes_2">
   <g id="patch_7">
    <path d="M 43.78125 1264.318125 
L 1717.78125 1264.318125 
L 1717.78125 699.77267 
L 43.78125 699.77267 
z
" style="fill:#ffffff;"/>
   </g>
   <g id="matplotlib.axis_3">
    <g id="xtick_8">
     <g id="line2d_14">
      <g>
       <use style="stroke:#000000;stroke-width:0.8;" x="119.872159" xlink:href="#md08c511633" y="1264.318125"/>
      </g>
     </g>
     <g id="text_16">
      <!-- 0 -->
      <g transform="translate(116.690909 1278.916563)scale(0.1 -0.1)">
       <use xlink:href="#DejaVuSans-30"/>
      </g>
     </g>
    </g>
    <g id="xtick_9">
     <g id="line2d_15">
      <g>
       <use style="stroke:#000000;stroke-width:0.8;" x="367.523613" xlink:href="#md08c511633" y="1264.318125"/>
      </g>
     </g>
     <g id="text_17">
      <!-- 200 -->
      <g transform="translate(357.979863 1278.916563)scale(0.1 -0.1)">
       <use xlink:href="#DejaVuSans-32"/>
       <use x="63.623047" xlink:href="#DejaVuSans-30"/>
       <use x="127.246094" xlink:href="#DejaVuSans-30"/>
      </g>
     </g>
    </g>
    <g id="xtick_10">
     <g id="line2d_16">
      <g>
       <use style="stroke:#000000;stroke-width:0.8;" x="615.175066" xlink:href="#md08c511633" y="1264.318125"/>
      </g>
     </g>
     <g id="text_18">
      <!-- 400 -->
      <g transform="translate(605.631316 1278.916563)scale(0.1 -0.1)">
       <use xlink:href="#DejaVuSans-34"/>
       <use x="63.623047" xlink:href="#DejaVuSans-30"/>
       <use x="127.246094" xlink:href="#DejaVuSans-30"/>
      </g>
     </g>
    </g>
    <g id="xtick_11">
     <g id="line2d_17">
      <g>
       <use style="stroke:#000000;stroke-width:0.8;" x="862.82652" xlink:href="#md08c511633" y="1264.318125"/>
      </g>
     </g>
     <g id="text_19">
      <!-- 600 -->
      <g transform="translate(853.28277 1278.916563)scale(0.1 -0.1)">
       <use xlink:href="#DejaVuSans-36"/>
       <use x="63.623047" xlink:href="#DejaVuSans-30"/>
       <use x="127.246094" xlink:href="#DejaVuSans-30"/>
      </g>
     </g>
    </g>
    <g id="xtick_12">
     <g id="line2d_18">
      <g>
       <use style="stroke:#000000;stroke-width:0.8;" x="1110.477973" xlink:href="#md08c511633" y="1264.318125"/>
      </g>
     </g>
     <g id="text_20">
      <!-- 800 -->
      <g transform="translate(1100.934223 1278.916563)scale(0.1 -0.1)">
       <use xlink:href="#DejaVuSans-38"/>
       <use x="63.623047" xlink:href="#DejaVuSans-30"/>
       <use x="127.246094" xlink:href="#DejaVuSans-30"/>
      </g>
     </g>
    </g>
    <g id="xtick_13">
     <g id="line2d_19">
      <g>
       <use style="stroke:#000000;stroke-width:0.8;" x="1358.129427" xlink:href="#md08c511633" y="1264.318125"/>
      </g>
     </g>
     <g id="text_21">
      <!-- 1000 -->
      <g transform="translate(1345.404427 1278.916563)scale(0.1 -0.1)">
       <use xlink:href="#DejaVuSans-31"/>
       <use x="63.623047" xlink:href="#DejaVuSans-30"/>
       <use x="127.246094" xlink:href="#DejaVuSans-30"/>
       <use x="190.869141" xlink:href="#DejaVuSans-30"/>
      </g>
     </g>
    </g>
    <g id="xtick_14">
     <g id="line2d_20">
      <g>
       <use style="stroke:#000000;stroke-width:0.8;" x="1605.78088" xlink:href="#md08c511633" y="1264.318125"/>
      </g>
     </g>
     <g id="text_22">
      <!-- 1200 -->
      <g transform="translate(1593.05588 1278.916563)scale(0.1 -0.1)">
       <use xlink:href="#DejaVuSans-31"/>
       <use x="63.623047" xlink:href="#DejaVuSans-32"/>
       <use x="127.246094" xlink:href="#DejaVuSans-30"/>
       <use x="190.869141" xlink:href="#DejaVuSans-30"/>
      </g>
     </g>
    </g>
    <g id="text_23">
     <!-- frame -->
     <g transform="translate(865.954687 1292.594688)scale(0.1 -0.1)">
      <use xlink:href="#DejaVuSans-66"/>
      <use x="35.205078" xlink:href="#DejaVuSans-72"/>
      <use x="76.318359" xlink:href="#DejaVuSans-61"/>
      <use x="137.597656" xlink:href="#DejaVuSans-6d"/>
      <use x="235.009766" xlink:href="#DejaVuSans-65"/>
     </g>
    </g>
   </g>
   <g id="matplotlib.axis_4">
    <g id="ytick_6">
     <g id="line2d_21">
      <g>
       <use style="stroke:#000000;stroke-width:0.8;" x="43.78125" xlink:href="#mf3eca17429" y="1238.656968"/>
      </g>
     </g>
     <g id="text_24">
      <!-- 0.0 -->
      <g transform="translate(20.878125 1242.456187)scale(0.1 -0.1)">
       <defs>
        <path d="M 684 794 
L 1344 794 
L 1344 0 
L 684 0 
L 684 794 
z
" id="DejaVuSans-2e" transform="scale(0.015625)"/>
       </defs>
       <use xlink:href="#DejaVuSans-30"/>
       <use x="63.623047" xlink:href="#DejaVuSans-2e"/>
       <use x="95.410156" xlink:href="#DejaVuSans-30"/>
      </g>
     </g>
    </g>
    <g id="ytick_7">
     <g id="line2d_22">
      <g>
       <use style="stroke:#000000;stroke-width:0.8;" x="43.78125" xlink:href="#mf3eca17429" y="1136.01234"/>
      </g>
     </g>
     <g id="text_25">
      <!-- 0.2 -->
      <g transform="translate(20.878125 1139.811559)scale(0.1 -0.1)">
       <use xlink:href="#DejaVuSans-30"/>
       <use x="63.623047" xlink:href="#DejaVuSans-2e"/>
       <use x="95.410156" xlink:href="#DejaVuSans-32"/>
      </g>
     </g>
    </g>
    <g id="ytick_8">
     <g id="line2d_23">
      <g>
       <use style="stroke:#000000;stroke-width:0.8;" x="43.78125" xlink:href="#mf3eca17429" y="1033.367712"/>
      </g>
     </g>
     <g id="text_26">
      <!-- 0.4 -->
      <g transform="translate(20.878125 1037.166931)scale(0.1 -0.1)">
       <use xlink:href="#DejaVuSans-30"/>
       <use x="63.623047" xlink:href="#DejaVuSans-2e"/>
       <use x="95.410156" xlink:href="#DejaVuSans-34"/>
      </g>
     </g>
    </g>
    <g id="ytick_9">
     <g id="line2d_24">
      <g>
       <use style="stroke:#000000;stroke-width:0.8;" x="43.78125" xlink:href="#mf3eca17429" y="930.723084"/>
      </g>
     </g>
     <g id="text_27">
      <!-- 0.6 -->
      <g transform="translate(20.878125 934.522302)scale(0.1 -0.1)">
       <use xlink:href="#DejaVuSans-30"/>
       <use x="63.623047" xlink:href="#DejaVuSans-2e"/>
       <use x="95.410156" xlink:href="#DejaVuSans-36"/>
      </g>
     </g>
    </g>
    <g id="ytick_10">
     <g id="line2d_25">
      <g>
       <use style="stroke:#000000;stroke-width:0.8;" x="43.78125" xlink:href="#mf3eca17429" y="828.078456"/>
      </g>
     </g>
     <g id="text_28">
      <!-- 0.8 -->
      <g transform="translate(20.878125 831.877674)scale(0.1 -0.1)">
       <use xlink:href="#DejaVuSans-30"/>
       <use x="63.623047" xlink:href="#DejaVuSans-2e"/>
       <use x="95.410156" xlink:href="#DejaVuSans-38"/>
      </g>
     </g>
    </g>
    <g id="ytick_11">
     <g id="line2d_26">
      <g>
       <use style="stroke:#000000;stroke-width:0.8;" x="43.78125" xlink:href="#mf3eca17429" y="725.433827"/>
      </g>
     </g>
     <g id="text_29">
      <!-- 1.0 -->
      <g transform="translate(20.878125 729.233046)scale(0.1 -0.1)">
       <use xlink:href="#DejaVuSans-31"/>
       <use x="63.623047" xlink:href="#DejaVuSans-2e"/>
       <use x="95.410156" xlink:href="#DejaVuSans-30"/>
      </g>
     </g>
    </g>
    <g id="text_30">
     <!-- GCaMP -->
     <g transform="translate(14.798437 999.803991)rotate(-90)scale(0.1 -0.1)">
      <use xlink:href="#DejaVuSans-47"/>
      <use x="77.490234" xlink:href="#DejaVuSans-43"/>
      <use x="147.314453" xlink:href="#DejaVuSans-61"/>
      <use x="208.59375" xlink:href="#DejaVuSans-4d"/>
      <use x="294.873047" xlink:href="#DejaVuSans-50"/>
     </g>
    </g>
   </g>
   <g id="line2d_27">
    <path clip-path="url(#pf91b952662)" d="M 119.872159 725.433827 
L 161.972906 725.433827 
L 163.211163 1238.656968 
L 1631.784283 1238.656968 
L 1633.02254 725.433827 
L 1637.975569 725.433827 
L 1639.213826 1238.656968 
L 1641.690341 1238.656968 
L 1641.690341 1238.656968 
" style="fill:none;stroke:#008000;stroke-linecap:square;stroke-width:1.5;"/>
   </g>
   <g id="patch_8">
    <path d="M 43.78125 1264.318125 
L 43.78125 699.77267 
" style="fill:none;stroke:#000000;stroke-linecap:square;stroke-linejoin:miter;stroke-width:0.8;"/>
   </g>
   <g id="patch_9">
    <path d="M 1717.78125 1264.318125 
L 1717.78125 699.77267 
" style="fill:none;stroke:#000000;stroke-linecap:square;stroke-linejoin:miter;stroke-width:0.8;"/>
   </g>
   <g id="patch_10">
    <path d="M 43.78125 1264.318125 
L 1717.78125 1264.318125 
" style="fill:none;stroke:#000000;stroke-linecap:square;stroke-linejoin:miter;stroke-width:0.8;"/>
   </g>
   <g id="patch_11">
    <path d="M 43.78125 699.77267 
L 1717.78125 699.77267 
" style="fill:none;stroke:#000000;stroke-linecap:square;stroke-linejoin:miter;stroke-width:0.8;"/>
   </g>
   <g id="text_31">
    <!-- before binarisation -->
    <g transform="translate(824.1825 693.77267)scale(0.12 -0.12)">
     <use xlink:href="#DejaVuSans-62"/>
     <use x="63.476562" xlink:href="#DejaVuSans-65"/>
     <use x="125" xlink:href="#DejaVuSans-66"/>
     <use x="160.205078" xlink:href="#DejaVuSans-6f"/>
     <use x="221.386719" xlink:href="#DejaVuSans-72"/>
     <use x="260.25" xlink:href="#DejaVuSans-65"/>
     <use x="321.773438" xlink:href="#DejaVuSans-20"/>
     <use x="353.560547" xlink:href="#DejaVuSans-62"/>
     <use x="417.037109" xlink:href="#DejaVuSans-69"/>
     <use x="444.820312" xlink:href="#DejaVuSans-6e"/>
     <use x="508.199219" xlink:href="#DejaVuSans-61"/>
     <use x="569.478516" xlink:href="#DejaVuSans-72"/>
     <use x="610.591797" xlink:href="#DejaVuSans-69"/>
     <use x="638.375" xlink:href="#DejaVuSans-73"/>
     <use x="690.474609" xlink:href="#DejaVuSans-61"/>
     <use x="751.753906" xlink:href="#DejaVuSans-74"/>
     <use x="790.962891" xlink:href="#DejaVuSans-69"/>
     <use x="818.746094" xlink:href="#DejaVuSans-6f"/>
     <use x="879.927734" xlink:href="#DejaVuSans-6e"/>
    </g>
   </g>
  </g>
 </g>
 <defs>
  <clipPath id="p02fa9fcd68">
   <rect height="564.545455" width="1674" x="43.78125" y="22.318125"/>
  </clipPath>
  <clipPath id="pf91b952662">
   <rect height="564.545455" width="1674" x="43.78125" y="699.77267"/>
  </clipPath>
 </defs>
</svg>
