<?xml version="1.0" encoding="utf-8" standalone="no"?>
<!DOCTYPE svg PUBLIC "-//W3C//DTD SVG 1.1//EN"
  "http://www.w3.org/Graphics/SVG/1.1/DTD/svg11.dtd">
<svg height="1301.874375pt" version="1.1" viewBox="0 0 1724.98125 1301.874375" width="1724.98125pt" xmlns="http://www.w3.org/2000/svg" xmlns:xlink="http://www.w3.org/1999/xlink">
 <metadata>
  <rdf:RDF xmlns:cc="http://creativecommons.org/ns#" xmlns:dc="http://purl.org/dc/elements/1.1/" xmlns:rdf="http://www.w3.org/1999/02/22-rdf-syntax-ns#">
   <cc:Work>
    <dc:type rdf:resource="http://purl.org/dc/dcmitype/StillImage"/>
    <dc:date>2022-07-24T15:54:44.109837</dc:date>
    <dc:format>image/svg+xml</dc:format>
    <dc:creator>
     <cc:Agent>
      <dc:title>Matplotlib v3.4.2, https://matplotlib.org/</dc:title>
     </cc:Agent>
    </dc:creator>
   </cc:Work>
  </rdf:RDF>
 </metadata>
 <defs>
  <style type="text/css">*{stroke-linecap:butt;stroke-linejoin:round;}</style>
 </defs>
 <g id="figure_1">
  <g id="patch_1">
   <path d="M 0 1301.874375 
L 1724.98125 1301.874375 
L 1724.98125 0 
L 0 0 
z
" style="fill:#ffffff;"/>
  </g>
  <g id="axes_1">
   <g id="patch_2">
    <path d="M 43.78125 586.86358 
L 1717.78125 586.86358 
L 1717.78125 22.318125 
L 43.78125 22.318125 
z
" style="fill:#ffffff;"/>
   </g>
   <g id="matplotlib.axis_1">
    <g id="xtick_1">
     <g id="line2d_1">
      <defs>
       <path d="M 0 0 
L 0 3.5 
" id="m7749fb5894" style="stroke:#000000;stroke-width:0.8;"/>
      </defs>
      <g>
       <use style="stroke:#000000;stroke-width:0.8;" x="119.872159" xlink:href="#m7749fb5894" y="586.86358"/>
      </g>
     </g>
     <g id="text_1">
      <!-- 0 -->
      <g transform="translate(116.690909 601.462017)scale(0.1 -0.1)">
       <defs>
        <path d="M 2034 4250 
Q 1547 4250 1301 3770 
Q 1056 3291 1056 2328 
Q 1056 1369 1301 889 
Q 1547 409 2034 409 
Q 2525 409 2770 889 
Q 3016 1369 3016 2328 
Q 3016 3291 2770 3770 
Q 2525 4250 2034 4250 
z
M 2034 4750 
Q 2819 4750 3233 4129 
Q 3647 3509 3647 2328 
Q 3647 1150 3233 529 
Q 2819 -91 2034 -91 
Q 1250 -91 836 529 
Q 422 1150 422 2328 
Q 422 3509 836 4129 
Q 1250 4750 2034 4750 
z
" id="DejaVuSans-30" transform="scale(0.015625)"/>
       </defs>
       <use xlink:href="#DejaVuSans-30"/>
      </g>
     </g>
    </g>
    <g id="xtick_2">
     <g id="line2d_2">
      <g>
       <use style="stroke:#000000;stroke-width:0.8;" x="367.523613" xlink:href="#m7749fb5894" y="586.86358"/>
      </g>
     </g>
     <g id="text_2">
      <!-- 200 -->
      <g transform="translate(357.979863 601.462017)scale(0.1 -0.1)">
       <defs>
        <path d="M 1228 531 
L 3431 531 
L 3431 0 
L 469 0 
L 469 531 
Q 828 903 1448 1529 
Q 2069 2156 2228 2338 
Q 2531 2678 2651 2914 
Q 2772 3150 2772 3378 
Q 2772 3750 2511 3984 
Q 2250 4219 1831 4219 
Q 1534 4219 1204 4116 
Q 875 4013 500 3803 
L 500 4441 
Q 881 4594 1212 4672 
Q 1544 4750 1819 4750 
Q 2544 4750 2975 4387 
Q 3406 4025 3406 3419 
Q 3406 3131 3298 2873 
Q 3191 2616 2906 2266 
Q 2828 2175 2409 1742 
Q 1991 1309 1228 531 
z
" id="DejaVuSans-32" transform="scale(0.015625)"/>
       </defs>
       <use xlink:href="#DejaVuSans-32"/>
       <use x="63.623047" xlink:href="#DejaVuSans-30"/>
       <use x="127.246094" xlink:href="#DejaVuSans-30"/>
      </g>
     </g>
    </g>
    <g id="xtick_3">
     <g id="line2d_3">
      <g>
       <use style="stroke:#000000;stroke-width:0.8;" x="615.175066" xlink:href="#m7749fb5894" y="586.86358"/>
      </g>
     </g>
     <g id="text_3">
      <!-- 400 -->
      <g transform="translate(605.631316 601.462017)scale(0.1 -0.1)">
       <defs>
        <path d="M 2419 4116 
L 825 1625 
L 2419 1625 
L 2419 4116 
z
M 2253 4666 
L 3047 4666 
L 3047 1625 
L 3713 1625 
L 3713 1100 
L 3047 1100 
L 3047 0 
L 2419 0 
L 2419 1100 
L 313 1100 
L 313 1709 
L 2253 4666 
z
" id="DejaVuSans-34" transform="scale(0.015625)"/>
       </defs>
       <use xlink:href="#DejaVuSans-34"/>
       <use x="63.623047" xlink:href="#DejaVuSans-30"/>
       <use x="127.246094" xlink:href="#DejaVuSans-30"/>
      </g>
     </g>
    </g>
    <g id="xtick_4">
     <g id="line2d_4">
      <g>
       <use style="stroke:#000000;stroke-width:0.8;" x="862.82652" xlink:href="#m7749fb5894" y="586.86358"/>
      </g>
     </g>
     <g id="text_4">
      <!-- 600 -->
      <g transform="translate(853.28277 601.462017)scale(0.1 -0.1)">
       <defs>
        <path d="M 2113 2584 
Q 1688 2584 1439 2293 
Q 1191 2003 1191 1497 
Q 1191 994 1439 701 
Q 1688 409 2113 409 
Q 2538 409 2786 701 
Q 3034 994 3034 1497 
Q 3034 2003 2786 2293 
Q 2538 2584 2113 2584 
z
M 3366 4563 
L 3366 3988 
Q 3128 4100 2886 4159 
Q 2644 4219 2406 4219 
Q 1781 4219 1451 3797 
Q 1122 3375 1075 2522 
Q 1259 2794 1537 2939 
Q 1816 3084 2150 3084 
Q 2853 3084 3261 2657 
Q 3669 2231 3669 1497 
Q 3669 778 3244 343 
Q 2819 -91 2113 -91 
Q 1303 -91 875 529 
Q 447 1150 447 2328 
Q 447 3434 972 4092 
Q 1497 4750 2381 4750 
Q 2619 4750 2861 4703 
Q 3103 4656 3366 4563 
z
" id="DejaVuSans-36" transform="scale(0.015625)"/>
       </defs>
       <use xlink:href="#DejaVuSans-36"/>
       <use x="63.623047" xlink:href="#DejaVuSans-30"/>
       <use x="127.246094" xlink:href="#DejaVuSans-30"/>
      </g>
     </g>
    </g>
    <g id="xtick_5">
     <g id="line2d_5">
      <g>
       <use style="stroke:#000000;stroke-width:0.8;" x="1110.477973" xlink:href="#m7749fb5894" y="586.86358"/>
      </g>
     </g>
     <g id="text_5">
      <!-- 800 -->
      <g transform="translate(1100.934223 601.462017)scale(0.1 -0.1)">
       <defs>
        <path d="M 2034 2216 
Q 1584 2216 1326 1975 
Q 1069 1734 1069 1313 
Q 1069 891 1326 650 
Q 1584 409 2034 409 
Q 2484 409 2743 651 
Q 3003 894 3003 1313 
Q 3003 1734 2745 1975 
Q 2488 2216 2034 2216 
z
M 1403 2484 
Q 997 2584 770 2862 
Q 544 3141 544 3541 
Q 544 4100 942 4425 
Q 1341 4750 2034 4750 
Q 2731 4750 3128 4425 
Q 3525 4100 3525 3541 
Q 3525 3141 3298 2862 
Q 3072 2584 2669 2484 
Q 3125 2378 3379 2068 
Q 3634 1759 3634 1313 
Q 3634 634 3220 271 
Q 2806 -91 2034 -91 
Q 1263 -91 848 271 
Q 434 634 434 1313 
Q 434 1759 690 2068 
Q 947 2378 1403 2484 
z
M 1172 3481 
Q 1172 3119 1398 2916 
Q 1625 2713 2034 2713 
Q 2441 2713 2670 2916 
Q 2900 3119 2900 3481 
Q 2900 3844 2670 4047 
Q 2441 4250 2034 4250 
Q 1625 4250 1398 4047 
Q 1172 3844 1172 3481 
z
" id="DejaVuSans-38" transform="scale(0.015625)"/>
       </defs>
       <use xlink:href="#DejaVuSans-38"/>
       <use x="63.623047" xlink:href="#DejaVuSans-30"/>
       <use x="127.246094" xlink:href="#DejaVuSans-30"/>
      </g>
     </g>
    </g>
    <g id="xtick_6">
     <g id="line2d_6">
      <g>
       <use style="stroke:#000000;stroke-width:0.8;" x="1358.129427" xlink:href="#m7749fb5894" y="586.86358"/>
      </g>
     </g>
     <g id="text_6">
      <!-- 1000 -->
      <g transform="translate(1345.404427 601.462017)scale(0.1 -0.1)">
       <defs>
        <path d="M 794 531 
L 1825 531 
L 1825 4091 
L 703 3866 
L 703 4441 
L 1819 4666 
L 2450 4666 
L 2450 531 
L 3481 531 
L 3481 0 
L 794 0 
L 794 531 
z
" id="DejaVuSans-31" transform="scale(0.015625)"/>
       </defs>
       <use xlink:href="#DejaVuSans-31"/>
       <use x="63.623047" xlink:href="#DejaVuSans-30"/>
       <use x="127.246094" xlink:href="#DejaVuSans-30"/>
       <use x="190.869141" xlink:href="#DejaVuSans-30"/>
      </g>
     </g>
    </g>
    <g id="xtick_7">
     <g id="line2d_7">
      <g>
       <use style="stroke:#000000;stroke-width:0.8;" x="1605.78088" xlink:href="#m7749fb5894" y="586.86358"/>
      </g>
     </g>
     <g id="text_7">
      <!-- 1200 -->
      <g transform="translate(1593.05588 601.462017)scale(0.1 -0.1)">
       <use xlink:href="#DejaVuSans-31"/>
       <use x="63.623047" xlink:href="#DejaVuSans-32"/>
       <use x="127.246094" xlink:href="#DejaVuSans-30"/>
       <use x="190.869141" xlink:href="#DejaVuSans-30"/>
      </g>
     </g>
    </g>
    <g id="text_8">
     <!-- frame -->
     <g transform="translate(865.954687 615.140142)scale(0.1 -0.1)">
      <defs>
       <path d="M 2375 4863 
L 2375 4384 
L 1825 4384 
Q 1516 4384 1395 4259 
Q 1275 4134 1275 3809 
L 1275 3500 
L 2222 3500 
L 2222 3053 
L 1275 3053 
L 1275 0 
L 697 0 
L 697 3053 
L 147 3053 
L 147 3500 
L 697 3500 
L 697 3744 
Q 697 4328 969 4595 
Q 1241 4863 1831 4863 
L 2375 4863 
z
" id="DejaVuSans-66" transform="scale(0.015625)"/>
       <path d="M 2631 2963 
Q 2534 3019 2420 3045 
Q 2306 3072 2169 3072 
Q 1681 3072 1420 2755 
Q 1159 2438 1159 1844 
L 1159 0 
L 581 0 
L 581 3500 
L 1159 3500 
L 1159 2956 
Q 1341 3275 1631 3429 
Q 1922 3584 2338 3584 
Q 2397 3584 2469 3576 
Q 2541 3569 2628 3553 
L 2631 2963 
z
" id="DejaVuSans-72" transform="scale(0.015625)"/>
       <path d="M 2194 1759 
Q 1497 1759 1228 1600 
Q 959 1441 959 1056 
Q 959 750 1161 570 
Q 1363 391 1709 391 
Q 2188 391 2477 730 
Q 2766 1069 2766 1631 
L 2766 1759 
L 2194 1759 
z
M 3341 1997 
L 3341 0 
L 2766 0 
L 2766 531 
Q 2569 213 2275 61 
Q 1981 -91 1556 -91 
Q 1019 -91 701 211 
Q 384 513 384 1019 
Q 384 1609 779 1909 
Q 1175 2209 1959 2209 
L 2766 2209 
L 2766 2266 
Q 2766 2663 2505 2880 
Q 2244 3097 1772 3097 
Q 1472 3097 1187 3025 
Q 903 2953 641 2809 
L 641 3341 
Q 956 3463 1253 3523 
Q 1550 3584 1831 3584 
Q 2591 3584 2966 3190 
Q 3341 2797 3341 1997 
z
" id="DejaVuSans-61" transform="scale(0.015625)"/>
       <path d="M 3328 2828 
Q 3544 3216 3844 3400 
Q 4144 3584 4550 3584 
Q 5097 3584 5394 3201 
Q 5691 2819 5691 2113 
L 5691 0 
L 5113 0 
L 5113 2094 
Q 5113 2597 4934 2840 
Q 4756 3084 4391 3084 
Q 3944 3084 3684 2787 
Q 3425 2491 3425 1978 
L 3425 0 
L 2847 0 
L 2847 2094 
Q 2847 2600 2669 2842 
Q 2491 3084 2119 3084 
Q 1678 3084 1418 2786 
Q 1159 2488 1159 1978 
L 1159 0 
L 581 0 
L 581 3500 
L 1159 3500 
L 1159 2956 
Q 1356 3278 1631 3431 
Q 1906 3584 2284 3584 
Q 2666 3584 2933 3390 
Q 3200 3197 3328 2828 
z
" id="DejaVuSans-6d" transform="scale(0.015625)"/>
       <path d="M 3597 1894 
L 3597 1613 
L 953 1613 
Q 991 1019 1311 708 
Q 1631 397 2203 397 
Q 2534 397 2845 478 
Q 3156 559 3463 722 
L 3463 178 
Q 3153 47 2828 -22 
Q 2503 -91 2169 -91 
Q 1331 -91 842 396 
Q 353 884 353 1716 
Q 353 2575 817 3079 
Q 1281 3584 2069 3584 
Q 2775 3584 3186 3129 
Q 3597 2675 3597 1894 
z
M 3022 2063 
Q 3016 2534 2758 2815 
Q 2500 3097 2075 3097 
Q 1594 3097 1305 2825 
Q 1016 2553 972 2059 
L 3022 2063 
z
" id="DejaVuSans-65" transform="scale(0.015625)"/>
      </defs>
      <use xlink:href="#DejaVuSans-66"/>
      <use x="35.205078" xlink:href="#DejaVuSans-72"/>
      <use x="76.318359" xlink:href="#DejaVuSans-61"/>
      <use x="137.597656" xlink:href="#DejaVuSans-6d"/>
      <use x="235.009766" xlink:href="#DejaVuSans-65"/>
     </g>
    </g>
   </g>
   <g id="matplotlib.axis_2">
    <g id="ytick_1">
     <g id="line2d_8">
      <defs>
       <path d="M 0 0 
L -3.5 0 
" id="m2470eb475e" style="stroke:#000000;stroke-width:0.8;"/>
      </defs>
      <g>
       <use style="stroke:#000000;stroke-width:0.8;" x="43.78125" xlink:href="#m2470eb475e" y="561.202423"/>
      </g>
     </g>
     <g id="text_9">
      <!-- 0 -->
      <g transform="translate(30.41875 565.001641)scale(0.1 -0.1)">
       <use xlink:href="#DejaVuSans-30"/>
      </g>
     </g>
    </g>
    <g id="ytick_2">
     <g id="line2d_9">
      <g>
       <use style="stroke:#000000;stroke-width:0.8;" x="43.78125" xlink:href="#m2470eb475e" y="461.07049"/>
      </g>
     </g>
     <g id="text_10">
      <!-- 1 -->
      <g transform="translate(30.41875 464.869709)scale(0.1 -0.1)">
       <use xlink:href="#DejaVuSans-31"/>
      </g>
     </g>
    </g>
    <g id="ytick_3">
     <g id="line2d_10">
      <g>
       <use style="stroke:#000000;stroke-width:0.8;" x="43.78125" xlink:href="#m2470eb475e" y="360.938558"/>
      </g>
     </g>
     <g id="text_11">
      <!-- 2 -->
      <g transform="translate(30.41875 364.737777)scale(0.1 -0.1)">
       <use xlink:href="#DejaVuSans-32"/>
      </g>
     </g>
    </g>
    <g id="ytick_4">
     <g id="line2d_11">
      <g>
       <use style="stroke:#000000;stroke-width:0.8;" x="43.78125" xlink:href="#m2470eb475e" y="260.806626"/>
      </g>
     </g>
     <g id="text_12">
      <!-- 3 -->
      <g transform="translate(30.41875 264.605845)scale(0.1 -0.1)">
       <defs>
        <path d="M 2597 2516 
Q 3050 2419 3304 2112 
Q 3559 1806 3559 1356 
Q 3559 666 3084 287 
Q 2609 -91 1734 -91 
Q 1441 -91 1130 -33 
Q 819 25 488 141 
L 488 750 
Q 750 597 1062 519 
Q 1375 441 1716 441 
Q 2309 441 2620 675 
Q 2931 909 2931 1356 
Q 2931 1769 2642 2001 
Q 2353 2234 1838 2234 
L 1294 2234 
L 1294 2753 
L 1863 2753 
Q 2328 2753 2575 2939 
Q 2822 3125 2822 3475 
Q 2822 3834 2567 4026 
Q 2313 4219 1838 4219 
Q 1578 4219 1281 4162 
Q 984 4106 628 3988 
L 628 4550 
Q 988 4650 1302 4700 
Q 1616 4750 1894 4750 
Q 2613 4750 3031 4423 
Q 3450 4097 3450 3541 
Q 3450 3153 3228 2886 
Q 3006 2619 2597 2516 
z
" id="DejaVuSans-33" transform="scale(0.015625)"/>
       </defs>
       <use xlink:href="#DejaVuSans-33"/>
      </g>
     </g>
    </g>
    <g id="ytick_5">
     <g id="line2d_12">
      <g>
       <use style="stroke:#000000;stroke-width:0.8;" x="43.78125" xlink:href="#m2470eb475e" y="160.674694"/>
      </g>
     </g>
     <g id="text_13">
      <!-- 4 -->
      <g transform="translate(30.41875 164.473913)scale(0.1 -0.1)">
       <use xlink:href="#DejaVuSans-34"/>
      </g>
     </g>
    </g>
    <g id="ytick_6">
     <g id="line2d_13">
      <g>
       <use style="stroke:#000000;stroke-width:0.8;" x="43.78125" xlink:href="#m2470eb475e" y="60.542762"/>
      </g>
     </g>
     <g id="text_14">
      <!-- 5 -->
      <g transform="translate(30.41875 64.341981)scale(0.1 -0.1)">
       <defs>
        <path d="M 691 4666 
L 3169 4666 
L 3169 4134 
L 1269 4134 
L 1269 2991 
Q 1406 3038 1543 3061 
Q 1681 3084 1819 3084 
Q 2600 3084 3056 2656 
Q 3513 2228 3513 1497 
Q 3513 744 3044 326 
Q 2575 -91 1722 -91 
Q 1428 -91 1123 -41 
Q 819 9 494 109 
L 494 744 
Q 775 591 1075 516 
Q 1375 441 1709 441 
Q 2250 441 2565 725 
Q 2881 1009 2881 1497 
Q 2881 1984 2565 2268 
Q 2250 2553 1709 2553 
Q 1456 2553 1204 2497 
Q 953 2441 691 2322 
L 691 4666 
z
" id="DejaVuSans-35" transform="scale(0.015625)"/>
       </defs>
       <use xlink:href="#DejaVuSans-35"/>
      </g>
     </g>
    </g>
    <g id="text_15">
     <!-- GCaMP -->
     <g transform="translate(24.339062 322.349446)rotate(-90)scale(0.1 -0.1)">
      <defs>
       <path d="M 3809 666 
L 3809 1919 
L 2778 1919 
L 2778 2438 
L 4434 2438 
L 4434 434 
Q 4069 175 3628 42 
Q 3188 -91 2688 -91 
Q 1594 -91 976 548 
Q 359 1188 359 2328 
Q 359 3472 976 4111 
Q 1594 4750 2688 4750 
Q 3144 4750 3555 4637 
Q 3966 4525 4313 4306 
L 4313 3634 
Q 3963 3931 3569 4081 
Q 3175 4231 2741 4231 
Q 1884 4231 1454 3753 
Q 1025 3275 1025 2328 
Q 1025 1384 1454 906 
Q 1884 428 2741 428 
Q 3075 428 3337 486 
Q 3600 544 3809 666 
z
" id="DejaVuSans-47" transform="scale(0.015625)"/>
       <path d="M 4122 4306 
L 4122 3641 
Q 3803 3938 3442 4084 
Q 3081 4231 2675 4231 
Q 1875 4231 1450 3742 
Q 1025 3253 1025 2328 
Q 1025 1406 1450 917 
Q 1875 428 2675 428 
Q 3081 428 3442 575 
Q 3803 722 4122 1019 
L 4122 359 
Q 3791 134 3420 21 
Q 3050 -91 2638 -91 
Q 1578 -91 968 557 
Q 359 1206 359 2328 
Q 359 3453 968 4101 
Q 1578 4750 2638 4750 
Q 3056 4750 3426 4639 
Q 3797 4528 4122 4306 
z
" id="DejaVuSans-43" transform="scale(0.015625)"/>
       <path d="M 628 4666 
L 1569 4666 
L 2759 1491 
L 3956 4666 
L 4897 4666 
L 4897 0 
L 4281 0 
L 4281 4097 
L 3078 897 
L 2444 897 
L 1241 4097 
L 1241 0 
L 628 0 
L 628 4666 
z
" id="DejaVuSans-4d" transform="scale(0.015625)"/>
       <path d="M 1259 4147 
L 1259 2394 
L 2053 2394 
Q 2494 2394 2734 2622 
Q 2975 2850 2975 3272 
Q 2975 3691 2734 3919 
Q 2494 4147 2053 4147 
L 1259 4147 
z
M 628 4666 
L 2053 4666 
Q 2838 4666 3239 4311 
Q 3641 3956 3641 3272 
Q 3641 2581 3239 2228 
Q 2838 1875 2053 1875 
L 1259 1875 
L 1259 0 
L 628 0 
L 628 4666 
z
" id="DejaVuSans-50" transform="scale(0.015625)"/>
      </defs>
      <use xlink:href="#DejaVuSans-47"/>
      <use x="77.490234" xlink:href="#DejaVuSans-43"/>
      <use x="147.314453" xlink:href="#DejaVuSans-61"/>
      <use x="208.59375" xlink:href="#DejaVuSans-4d"/>
      <use x="294.873047" xlink:href="#DejaVuSans-50"/>
     </g>
    </g>
   </g>
   <g id="line2d_14">
    <path clip-path="url(#p386ed40308)" d="M 119.872159 132.900004 
L 121.110416 134.82035 
L 122.348674 135.953266 
L 123.586931 136.40797 
L 124.825188 137.473871 
L 126.063445 140.981817 
L 127.301703 147.887711 
L 129.778217 167.012636 
L 131.016474 174.994527 
L 132.254732 179.937808 
L 133.492989 181.371285 
L 134.731246 179.732001 
L 137.207761 173.296304 
L 138.446018 171.686659 
L 139.684275 172.20352 
L 140.922533 174.849344 
L 142.16079 179.107236 
L 143.399047 184.347163 
L 144.637304 190.387174 
L 148.352076 210.885229 
L 149.590334 215.127592 
L 150.828591 217.120686 
L 152.066848 217.380018 
L 153.305105 216.693202 
L 154.543363 215.856703 
L 155.78162 215.470512 
L 157.019877 215.939619 
L 158.258134 217.330303 
L 159.496392 219.346886 
L 160.734649 221.887339 
L 164.449421 231.036541 
L 165.687678 233.535356 
L 166.925935 236.382533 
L 170.640707 246.993456 
L 171.878964 249.624125 
L 175.593736 255.882436 
L 176.831993 258.168215 
L 178.070251 260.029807 
L 179.308508 260.937054 
L 180.546765 260.884752 
L 181.785022 260.612677 
L 183.02328 261.021487 
L 184.261537 262.294974 
L 185.499794 264.09384 
L 186.738052 266.387481 
L 190.452823 275.176184 
L 191.691081 277.419711 
L 192.929338 279.209078 
L 194.167595 280.624233 
L 195.405852 281.579595 
L 196.64411 282.206953 
L 197.882367 282.976294 
L 199.120624 284.043697 
L 200.358881 284.956942 
L 201.597139 285.297275 
L 202.835396 285.179126 
L 204.073653 284.869703 
L 205.311911 284.309302 
L 207.788425 282.504139 
L 209.026682 282.388379 
L 210.26494 283.487642 
L 211.503197 285.708229 
L 212.741454 288.735801 
L 213.979711 292.111377 
L 215.217969 295.067027 
L 216.456226 296.943937 
L 217.694483 297.727205 
L 220.170998 297.921855 
L 221.409255 298.381998 
L 222.647512 299.321581 
L 225.124027 301.511128 
L 226.362284 302.815503 
L 227.600541 304.54937 
L 230.077056 308.284983 
L 231.315313 309.554345 
L 232.55357 310.303173 
L 237.5066 312.218236 
L 238.744857 312.381133 
L 239.983114 312.3952 
L 241.221371 312.575285 
L 242.459629 313.265348 
L 243.697886 314.553287 
L 246.1744 317.482763 
L 247.412658 318.602013 
L 248.650915 319.538218 
L 249.889172 320.075059 
L 251.127429 319.824646 
L 252.365687 318.690303 
L 253.603944 317.024553 
L 254.842201 315.556266 
L 256.080459 315.066932 
L 258.556973 315.949557 
L 259.79523 315.161581 
L 261.033488 313.092239 
L 262.271745 310.156176 
L 263.510002 306.553001 
L 264.748259 302.208787 
L 267.224774 292.666753 
L 268.463031 289.548006 
L 269.701288 288.767032 
L 270.939546 290.599636 
L 272.177803 294.881592 
L 275.892575 312.767288 
L 277.130832 316.408357 
L 278.369089 318.150213 
L 280.845604 319.544393 
L 282.083861 321.32474 
L 283.322118 324.584917 
L 284.560376 329.176097 
L 287.03689 339.578042 
L 288.275147 343.98323 
L 289.513405 347.102168 
L 290.751662 348.476858 
L 291.989919 348.08822 
L 294.466434 345.357531 
L 295.704691 345.115707 
L 296.942948 346.11205 
L 298.181206 348.038926 
L 300.65772 352.780483 
L 301.895977 354.196447 
L 303.134235 354.453884 
L 305.610749 353.559113 
L 306.849006 353.608806 
L 308.087264 354.003805 
L 309.325521 354.174603 
L 310.563778 353.520724 
L 311.802036 351.857205 
L 313.040293 349.810463 
L 314.27855 348.339822 
L 316.755065 346.950287 
L 317.993322 345.268909 
L 319.231579 342.136708 
L 321.708094 333.621593 
L 322.946351 330.460843 
L 324.184608 329.249343 
L 325.422866 330.205824 
L 326.661123 332.732877 
L 327.89938 335.661917 
L 329.137637 338.059025 
L 330.375895 339.752646 
L 332.852409 342.277238 
L 334.090666 343.162694 
L 335.328924 343.443875 
L 336.567181 343.093636 
L 337.805438 342.158348 
L 339.043695 340.636919 
L 340.281953 338.80737 
L 341.52021 337.25804 
L 342.758467 336.436132 
L 343.996725 336.329992 
L 345.234982 336.475591 
L 346.473239 336.198286 
L 347.711496 335.14972 
L 348.949754 333.682255 
L 350.188011 332.609745 
L 351.426268 332.492104 
L 352.664525 333.155662 
L 355.14104 335.02242 
L 356.379297 335.266011 
L 357.617554 334.308196 
L 358.855812 332.239274 
L 360.094069 329.824203 
L 361.332326 328.058383 
L 362.570584 327.482216 
L 363.808841 327.88545 
L 365.047098 328.673837 
L 366.285355 329.062956 
L 367.523613 328.282222 
L 368.76187 326.187256 
L 371.238384 320.394474 
L 372.476642 318.397243 
L 373.714899 317.875987 
L 374.953156 318.195078 
L 376.191413 317.871177 
L 377.429671 315.829804 
L 379.906185 308.388821 
L 381.144443 305.586365 
L 382.3827 304.265675 
L 383.620957 304.121223 
L 384.859214 305.057311 
L 386.097472 307.096833 
L 387.335729 309.496577 
L 388.573986 311.031985 
L 389.812243 311.231288 
L 391.050501 310.514018 
L 392.288758 309.279004 
L 396.00353 304.428133 
L 397.241787 302.64943 
L 398.480044 300.23177 
L 400.956559 294.738269 
L 402.194816 292.721941 
L 403.433073 291.174824 
L 405.909588 288.621731 
L 407.147845 288.012892 
L 408.386102 289.041822 
L 409.62436 291.976026 
L 410.862617 295.38058 
L 412.100874 297.368905 
L 413.339132 297.144405 
L 414.577389 295.289221 
L 417.053903 290.783071 
L 418.292161 289.076767 
L 419.530418 288.224738 
L 420.768675 288.565298 
L 422.006932 289.931124 
L 423.24519 291.7546 
L 424.483447 293.326952 
L 425.721704 293.978282 
L 426.959961 293.676119 
L 428.198219 293.222975 
L 429.436476 293.115353 
L 430.674733 292.627867 
L 431.912991 290.572256 
L 433.151248 286.620087 
L 435.627762 276.895066 
L 436.86602 273.353925 
L 438.104277 561.202423 
L 450.48685 561.202423 
L 451.725107 274.04242 
L 452.963364 274.654807 
L 454.201621 274.432789 
L 456.678136 272.748903 
L 457.916393 272.664242 
L 459.15465 273.100314 
L 461.631165 274.611136 
L 462.869422 274.78013 
L 464.107679 273.355215 
L 466.584194 267.350251 
L 467.822451 265.501136 
L 469.060709 265.370792 
L 470.298966 266.487201 
L 471.537223 268.330178 
L 474.013738 272.988295 
L 475.251995 274.685542 
L 476.490252 275.047518 
L 477.728509 273.700976 
L 478.966767 270.88369 
L 481.443281 263.922985 
L 482.681538 261.433489 
L 483.919796 260.002702 
L 485.158053 259.021098 
L 487.634568 256.769443 
L 488.872825 256.277674 
L 490.111082 256.324238 
L 491.349339 256.161311 
L 492.587597 255.079638 
L 493.825854 252.868673 
L 497.540626 244.034212 
L 501.255397 233.405782 
L 502.493655 231.339259 
L 503.731912 231.110102 
L 504.970169 232.604025 
L 506.208427 234.753431 
L 507.446684 236.137865 
L 508.684941 236.050952 
L 509.923198 234.989821 
L 511.161456 234.081313 
L 512.399713 234.061693 
L 513.63797 234.630376 
L 514.876227 234.64135 
L 516.114485 232.985209 
L 517.352742 229.3348 
L 519.829257 219.920643 
L 521.067514 217.748775 
L 522.305771 218.640465 
L 527.2588 230.235416 
L 528.497057 235.052167 
L 530.973572 247.377782 
L 532.211829 251.031938 
L 533.450086 251.393368 
L 534.688344 248.708495 
L 535.926601 243.800237 
L 537.164858 238.004345 
L 538.403116 233.309702 
L 539.641373 231.73398 
L 540.87963 233.600332 
L 542.117887 236.674514 
L 543.356145 238.22975 
L 544.594402 237.508287 
L 545.832659 235.553718 
L 547.070916 233.827306 
L 548.309174 233.353413 
L 549.547431 234.366927 
L 550.785688 236.328132 
L 552.023945 238.040248 
L 553.262203 237.8224 
L 554.50046 234.104041 
L 555.738717 226.516798 
L 558.215232 207.693906 
L 559.453489 202.175539 
L 560.691746 200.920629 
L 561.930004 202.734126 
L 563.168261 205.937221 
L 565.644775 213.32544 
L 566.883033 216.404135 
L 568.12129 218.733531 
L 573.074319 226.644016 
L 574.312576 227.111759 
L 575.550834 225.642842 
L 576.789091 221.786059 
L 580.503863 204.447942 
L 581.74212 201.055643 
L 582.980377 198.904665 
L 585.456892 195.251566 
L 586.695149 193.730312 
L 587.933406 192.700294 
L 589.171663 191.424387 
L 590.409921 188.635212 
L 591.648178 183.567362 
L 592.886435 176.524605 
L 594.124693 168.808178 
L 595.36295 162.523664 
L 596.601207 159.675289 
L 597.839464 160.730279 
L 599.077722 164.554807 
L 601.554236 174.070948 
L 602.792493 177.362535 
L 604.030751 178.762559 
L 605.269008 178.144573 
L 607.745523 174.077352 
L 608.98378 173.005839 
L 610.222037 173.98452 
L 611.460294 177.341839 
L 615.175066 192.213302 
L 616.413323 193.956572 
L 617.651581 192.313453 
L 618.889838 188.037041 
L 622.60461 171.57155 
L 623.842867 167.667779 
L 625.081124 165.437558 
L 626.319382 164.313001 
L 627.557639 163.367516 
L 628.795896 161.969102 
L 631.272411 158.176221 
L 632.510668 156.783407 
L 633.748925 156.568537 
L 634.987182 158.162664 
L 637.463697 164.186366 
L 638.701954 164.890183 
L 639.940211 162.933024 
L 642.416726 155.700445 
L 644.893241 148.293937 
L 646.131498 145.19708 
L 647.369755 143.082621 
L 648.608012 141.724876 
L 649.84627 140.199973 
L 651.084527 137.633408 
L 652.322784 134.355316 
L 653.561041 131.850718 
L 654.799299 131.276318 
L 656.037556 132.480829 
L 657.275813 134.388726 
L 658.51407 136.0863 
L 660.990585 138.922035 
L 662.228842 139.493915 
L 663.4671 138.081396 
L 664.705357 134.16418 
L 667.181871 122.498283 
L 668.420129 118.959613 
L 669.658386 118.924782 
L 670.896643 121.619584 
L 672.1349 125.317841 
L 673.373158 128.597959 
L 674.611415 130.872962 
L 675.849672 132.227013 
L 677.087929 133.091201 
L 678.326187 134.370855 
L 679.564444 137.131761 
L 680.802701 141.689072 
L 683.279216 152.580801 
L 684.517473 155.87229 
L 685.75573 156.267302 
L 686.993988 154.167449 
L 688.232245 150.5869 
L 689.470502 145.665118 
L 690.708759 138.796315 
L 691.947017 129.976485 
L 694.423531 111.075919 
L 695.661789 103.655758 
L 696.900046 98.147662 
L 698.138303 93.774895 
L 699.37656 88.838236 
L 700.614818 81.590154 
L 701.853075 71.75826 
L 703.091332 60.93814 
L 704.329589 51.951192 
L 705.567847 47.979282 
L 706.806104 51.30782 
L 708.044361 61.954831 
L 710.520876 94.174664 
L 712.99739 125.846334 
L 714.235648 140.481037 
L 715.473905 153.046715 
L 716.712162 162.401251 
L 717.950419 168.736107 
L 719.188677 173.129983 
L 720.426934 176.44166 
L 724.141706 184.714768 
L 725.379963 186.900247 
L 726.61822 188.227014 
L 727.856477 188.374441 
L 729.094735 186.935234 
L 730.332992 184.044534 
L 731.571249 180.138815 
L 732.809507 175.083433 
L 734.047764 168.407231 
L 736.524278 151.596913 
L 737.762536 144.771955 
L 739.000793 141.627114 
L 740.23905 142.720221 
L 741.477307 147.167723 
L 742.715565 153.069344 
L 743.953822 158.362415 
L 745.192079 162.024051 
L 748.906851 169.436106 
L 750.145108 172.678687 
L 751.383366 175.322386 
L 752.621623 175.499997 
L 753.85988 172.337473 
L 756.336395 162.198729 
L 757.574652 159.111883 
L 758.812909 158.146915 
L 760.051166 158.475583 
L 761.289424 159.117752 
L 762.527681 159.988826 
L 763.765938 161.639892 
L 765.004195 164.487148 
L 767.48071 172.102605 
L 768.718967 174.505615 
L 769.957225 175.070182 
L 771.195482 174.162994 
L 772.433739 172.210019 
L 773.671996 168.912797 
L 774.910254 163.827163 
L 776.148511 157.738276 
L 777.386768 152.483101 
L 778.625025 149.144582 
L 779.863283 146.736624 
L 781.10154 143.091564 
L 782.339797 137.011283 
L 783.578054 129.380443 
L 784.816312 122.70938 
L 786.054569 119.150418 
L 787.292826 118.502467 
L 788.531084 119.253409 
L 789.769341 121.020036 
L 791.007598 124.14736 
L 792.245855 127.822433 
L 793.484113 130.30631 
L 794.72237 130.375551 
L 795.960627 127.835055 
L 797.198884 123.613137 
L 798.437142 119.827483 
L 799.675399 118.63999 
L 800.913656 120.631283 
L 802.151914 125.010084 
L 804.628428 136.494609 
L 805.866685 140.903088 
L 807.104943 143.255877 
L 808.3432 143.873852 
L 809.581457 143.105241 
L 810.819714 140.353764 
L 812.057972 134.882115 
L 814.534486 120.301587 
L 818.249258 100.955675 
L 819.487515 97.459006 
L 820.725773 98.389207 
L 821.96403 103.590654 
L 824.440544 117.341071 
L 825.678802 121.708829 
L 826.917059 123.267747 
L 828.155316 122.317487 
L 829.393573 120.395856 
L 830.631831 119.645959 
L 831.870088 121.177784 
L 833.108345 124.403356 
L 835.58486 132.206284 
L 836.823117 137.054262 
L 838.061374 143.224887 
L 841.776146 165.298886 
L 843.014403 170.912486 
L 844.252661 173.011824 
L 845.490918 170.722508 
L 846.729175 165.349605 
L 849.20569 152.596126 
L 851.682204 138.848675 
L 852.920461 133.713526 
L 854.158719 130.999701 
L 855.396976 130.338127 
L 856.635233 130.966913 
L 859.111748 133.167284 
L 860.350005 134.869962 
L 861.588262 137.609208 
L 862.82652 140.709236 
L 864.064777 142.682822 
L 865.303034 142.078201 
L 866.541291 138.03035 
L 867.779549 131.108593 
L 869.017806 123.342811 
L 870.256063 117.071839 
L 871.49432 114.071847 
L 872.732578 114.702064 
L 873.970835 117.202349 
L 875.209092 118.73781 
L 876.44735 117.735711 
L 877.685607 114.680045 
L 878.923864 110.521156 
L 880.162121 105.485337 
L 881.400379 99.939595 
L 882.638636 95.395091 
L 883.876893 93.807249 
L 885.11515 96.352682 
L 886.353408 103.460825 
L 887.591665 115.060012 
L 891.306437 159.325493 
L 892.544694 171.092545 
L 893.782951 180.764729 
L 895.021209 188.453732 
L 896.259466 194.031929 
L 897.497723 197.3739 
L 899.974238 200.651946 
L 901.212495 204.129887 
L 903.689009 214.423628 
L 904.927267 217.265991 
L 906.165524 216.977388 
L 907.403781 214.090213 
L 908.642039 209.612127 
L 909.880296 204.246568 
L 912.35681 192.55887 
L 913.595068 187.880338 
L 914.833325 185.393148 
L 916.071582 184.901824 
L 917.309839 185.090584 
L 919.786354 184.837852 
L 921.024611 185.337076 
L 922.262868 186.881151 
L 923.501126 189.525476 
L 924.739383 193.552314 
L 927.215898 205.134639 
L 928.454155 209.524592 
L 929.692412 210.569695 
L 930.930669 208.095389 
L 934.645441 194.288268 
L 935.883698 190.688232 
L 942.074985 174.288132 
L 943.313242 171.899627 
L 944.551499 171.176382 
L 945.789757 172.320397 
L 947.028014 174.963819 
L 948.266271 178.709224 
L 950.742786 187.382161 
L 951.981043 190.477168 
L 953.2193 192.14967 
L 954.457557 192.759594 
L 955.695815 192.740672 
L 958.172329 192.370414 
L 959.410586 192.571423 
L 960.648844 193.440181 
L 961.887101 195.519699 
L 963.125358 199.086278 
L 964.363616 203.385334 
L 965.601873 206.674094 
L 966.84013 207.448744 
L 968.078387 205.83694 
L 969.316645 203.546564 
L 970.554902 201.997864 
L 971.793159 200.964217 
L 973.031416 199.330964 
L 974.269674 196.484173 
L 976.746188 189.412537 
L 977.984446 187.365189 
L 979.222703 187.323834 
L 980.46096 189.450386 
L 981.699217 193.3429 
L 982.937475 197.840506 
L 984.175732 201.433467 
L 985.413989 203.237976 
L 986.652246 203.398561 
L 987.890504 202.598951 
L 989.128761 201.567538 
L 990.367018 201.026964 
L 991.605275 201.872757 
L 992.843533 205.266886 
L 994.08179 212.002891 
L 996.558305 230.088168 
L 997.796562 236.005108 
L 999.034819 238.193866 
L 1000.273076 237.908809 
L 1001.511334 237.252233 
L 1002.749591 237.342146 
L 1003.987848 237.249266 
L 1005.226105 235.611799 
L 1006.464363 232.757315 
L 1007.70262 230.325897 
L 1008.940877 229.573586 
L 1010.179134 230.720982 
L 1011.417392 233.418046 
L 1012.655649 237.226911 
L 1013.893906 241.884562 
L 1016.370421 252.51023 
L 1017.608678 256.802127 
L 1018.846935 259.533007 
L 1023.799964 266.211892 
L 1025.038222 268.135205 
L 1027.514736 272.994235 
L 1028.752993 274.46817 
L 1029.991251 274.25088 
L 1031.229508 273.549523 
L 1032.467765 273.805437 
L 1033.706023 274.687989 
L 1034.94428 274.912756 
L 1036.182537 273.875949 
L 1037.420794 272.107086 
L 1038.659052 270.776547 
L 1039.897309 270.80134 
L 1042.373823 273.374469 
L 1043.612081 272.454205 
L 1044.850338 268.313967 
L 1046.088595 261.804334 
L 1048.56511 247.695087 
L 1051.041624 234.458376 
L 1052.279882 228.605831 
L 1053.518139 224.259253 
L 1054.756396 222.586424 
L 1055.994653 224.761931 
L 1057.232911 231.092492 
L 1060.947682 259.630376 
L 1062.18594 266.49631 
L 1063.424197 271.271817 
L 1068.377226 285.049264 
L 1070.853741 291.34221 
L 1072.091998 294.07932 
L 1073.330255 295.383755 
L 1074.568512 294.003636 
L 1075.80677 290.102911 
L 1077.045027 285.469112 
L 1078.283284 281.924863 
L 1079.521541 279.887399 
L 1080.759799 278.672964 
L 1081.998056 277.800292 
L 1083.236313 277.629848 
L 1084.474571 278.447757 
L 1085.712828 279.597467 
L 1086.951085 280.451299 
L 1089.4276 281.829014 
L 1090.665857 281.897248 
L 1091.904114 281.003608 
L 1093.142371 279.659034 
L 1094.380629 278.87455 
L 1095.618886 279.223833 
L 1096.857143 280.454968 
L 1099.333658 283.392172 
L 1103.04843 286.401464 
L 1104.286687 286.903695 
L 1105.524944 285.697376 
L 1106.763201 282.272711 
L 1108.001459 277.632145 
L 1109.239716 273.90737 
L 1110.477973 272.929793 
L 1111.71623 275.111609 
L 1112.954488 279.38377 
L 1115.431002 289.005118 
L 1116.669259 293.307972 
L 1117.907517 296.877255 
L 1120.384031 302.530374 
L 1121.622289 305.134817 
L 1122.860546 307.402765 
L 1124.098803 309.305607 
L 1125.33706 310.30321 
L 1126.575318 309.112273 
L 1129.051832 301.746616 
L 1130.290089 299.989438 
L 1131.528347 301.007483 
L 1134.004861 306.439906 
L 1135.243118 308.455904 
L 1136.481376 309.950995 
L 1137.719633 311.010451 
L 1138.95789 311.070495 
L 1141.434405 308.885355 
L 1142.672662 308.909048 
L 1143.910919 310.164478 
L 1145.149177 312.192061 
L 1146.387434 314.495099 
L 1147.625691 316.378927 
L 1148.863948 317.649116 
L 1150.102206 319.122749 
L 1152.57872 323.958541 
L 1153.816977 325.137446 
L 1155.055235 324.321164 
L 1157.531749 320.217312 
L 1158.770007 318.712691 
L 1161.246521 316.110955 
L 1162.484778 314.685097 
L 1163.723036 313.549483 
L 1164.961293 312.8913 
L 1166.19955 312.784703 
L 1167.437807 313.502729 
L 1168.676065 315.509062 
L 1169.914322 318.793333 
L 1171.152579 322.402158 
L 1172.390837 325.163546 
L 1173.629094 326.745956 
L 1177.343866 329.461283 
L 1178.582123 330.708412 
L 1179.82038 331.075371 
L 1181.058637 329.809766 
L 1182.296895 327.40084 
L 1186.011666 319.664915 
L 1187.249924 317.952127 
L 1188.488181 317.521042 
L 1190.964696 318.808166 
L 1192.202953 319.02663 
L 1193.44121 319.110765 
L 1194.679467 319.694001 
L 1195.917725 320.931335 
L 1198.394239 324.311905 
L 1199.632496 326.093901 
L 1200.870754 327.32431 
L 1202.109011 327.128787 
L 1203.347268 325.457069 
L 1204.585525 323.430548 
L 1207.06204 320.683612 
L 1208.300297 318.251984 
L 1210.776812 310.719296 
L 1212.015069 308.201474 
L 1213.253326 307.475559 
L 1214.491584 308.038544 
L 1215.729841 309.136984 
L 1216.968098 310.390711 
L 1218.206355 311.862596 
L 1219.444613 313.869322 
L 1220.68287 316.773 
L 1221.921127 320.798297 
L 1223.159384 325.88456 
L 1225.635899 337.005366 
L 1226.874156 341.110437 
L 1228.112414 343.409971 
L 1229.350671 343.574319 
L 1230.588928 341.26228 
L 1231.827185 337.531286 
L 1233.065443 334.725981 
L 1234.3037 333.821509 
L 1235.541957 333.662788 
L 1236.780214 332.630737 
L 1238.018472 329.55859 
L 1239.256729 324.777665 
L 1240.494986 320.976686 
L 1241.733243 320.930883 
L 1242.971501 324.844805 
L 1244.209758 330.756966 
L 1245.448015 335.787655 
L 1246.686273 337.069033 
L 1247.92453 333.524839 
L 1249.162787 326.743623 
L 1250.401044 319.303393 
L 1251.639302 312.791136 
L 1252.877559 307.579083 
L 1254.115816 303.70223 
L 1255.354073 301.595759 
L 1256.592331 301.904527 
L 1257.830588 304.525572 
L 1261.54536 315.906445 
L 1262.783617 319.337163 
L 1264.021874 322.402445 
L 1265.260132 324.809798 
L 1266.498389 326.334626 
L 1267.736646 326.5897 
L 1268.974903 325.093784 
L 1270.213161 321.819727 
L 1271.451418 317.710755 
L 1272.689675 314.7088 
L 1273.927932 314.662309 
L 1275.16619 317.913823 
L 1276.404447 323.009096 
L 1277.642704 327.559925 
L 1278.880962 329.949646 
L 1280.119219 330.348535 
L 1281.357476 329.502651 
L 1282.595733 327.22379 
L 1283.833991 323.110143 
L 1285.072248 318.274371 
L 1286.310505 314.715141 
L 1287.548762 313.400868 
L 1288.78702 314.173069 
L 1290.025277 315.929431 
L 1291.263534 316.602282 
L 1292.501791 314.673793 
L 1293.740049 310.797896 
L 1294.978306 307.702714 
L 1296.216563 308.181953 
L 1297.454821 312.686206 
L 1299.931335 325.467022 
L 1301.169592 329.667281 
L 1302.40785 331.415997 
L 1303.646107 330.999153 
L 1304.884364 328.927542 
L 1306.122621 325.671321 
L 1307.360879 321.403343 
L 1308.599136 316.542412 
L 1309.837393 312.630399 
L 1311.07565 311.621375 
L 1312.313908 313.914052 
L 1313.552165 318.126379 
L 1317.266937 332.747249 
L 1318.505194 334.475745 
L 1319.743451 333.013653 
L 1320.981709 328.933725 
L 1322.219966 322.93478 
L 1323.458223 315.773013 
L 1324.69648 309.354702 
L 1325.934738 306.640546 
L 1327.172995 309.105552 
L 1328.411252 314.787882 
L 1329.649509 319.809215 
L 1330.887767 321.537481 
L 1332.126024 319.756309 
L 1333.364281 315.649916 
L 1334.602539 311.140364 
L 1335.840796 308.11309 
L 1337.079053 306.949511 
L 1338.31731 306.445307 
L 1339.555568 304.93056 
L 1340.793825 301.449272 
L 1343.270339 291.460161 
L 1344.508597 288.428028 
L 1345.746854 288.668694 
L 1346.985111 291.603801 
L 1348.223368 295.095931 
L 1349.461626 297.405277 
L 1350.699883 298.313681 
L 1351.93814 298.472178 
L 1354.414655 298.442374 
L 1355.652912 298.116543 
L 1356.891169 297.141018 
L 1358.129427 295.678418 
L 1359.367684 294.846474 
L 1360.605941 296.190974 
L 1361.844198 300.146946 
L 1363.082456 305.421798 
L 1364.320713 309.857239 
L 1365.55897 311.601764 
L 1366.797228 310.286979 
L 1368.035485 307.60362 
L 1369.273742 305.887228 
L 1370.511999 306.028749 
L 1371.750257 307.491975 
L 1372.988514 309.604961 
L 1374.226771 312.055344 
L 1376.703286 317.67333 
L 1379.1798 323.384019 
L 1380.418057 325.136361 
L 1381.656315 325.080295 
L 1382.894572 322.720262 
L 1384.132829 318.098086 
L 1385.371087 311.45794 
L 1386.609344 303.808885 
L 1387.847601 297.886071 
L 1389.085858 297.037548 
L 1390.324116 302.408338 
L 1392.80063 320.275291 
L 1394.038887 325.408902 
L 1395.277145 326.409904 
L 1396.515402 324.502429 
L 1397.753659 321.164947 
L 1400.230174 313.855398 
L 1401.468431 310.911585 
L 1402.706688 308.2993 
L 1403.944946 305.295797 
L 1406.42146 297.671696 
L 1407.659717 295.44419 
L 1408.897975 295.696593 
L 1410.136232 297.377147 
L 1411.374489 298.128317 
L 1412.612746 296.115867 
L 1413.851004 291.528906 
L 1415.089261 286.061681 
L 1416.327518 281.645116 
L 1417.565775 279.884973 
L 1418.804033 281.14772 
L 1420.04229 283.736579 
L 1421.280547 284.88622 
L 1423.757062 282.021236 
L 1424.995319 284.520486 
L 1426.233576 292.715292 
L 1428.710091 315.425496 
L 1429.948348 322.736234 
L 1431.186605 325.39773 
L 1432.424863 324.411039 
L 1433.66312 321.120886 
L 1434.901377 316.045909 
L 1436.139634 309.808685 
L 1437.377892 304.507628 
L 1438.616149 302.413903 
L 1439.854406 303.658566 
L 1441.092664 306.460369 
L 1442.330921 308.622863 
L 1443.569178 308.306761 
L 1444.807435 305.141588 
L 1446.045693 300.799644 
L 1447.28395 296.953528 
L 1450.998722 286.768698 
L 1452.236979 283.164512 
L 1453.475236 280.927258 
L 1454.713494 282.293462 
L 1455.951751 287.580928 
L 1457.190008 294.222772 
L 1458.428265 299.036732 
L 1459.666523 301.293272 
L 1460.90478 302.984896 
L 1462.143037 306.113725 
L 1465.857809 320.211658 
L 1467.096066 323.145683 
L 1468.334323 323.762992 
L 1469.572581 322.196145 
L 1470.810838 318.815515 
L 1472.049095 313.839238 
L 1474.52561 302.014448 
L 1475.763867 297.900512 
L 1477.002124 296.80649 
L 1478.240382 298.715174 
L 1480.716896 306.253071 
L 1481.955153 308.839715 
L 1483.193411 309.398717 
L 1484.431668 307.860649 
L 1485.669925 304.47245 
L 1486.908182 300.080105 
L 1488.14644 296.29784 
L 1489.384697 294.348094 
L 1490.622954 294.27094 
L 1491.861212 295.707778 
L 1493.099469 297.940757 
L 1494.337726 299.236977 
L 1495.575983 297.844349 
L 1496.814241 293.542058 
L 1498.052498 287.835371 
L 1499.290755 282.857783 
L 1500.529012 280.207597 
L 1501.76727 280.872886 
L 1503.005527 285.554213 
L 1504.243784 293.87086 
L 1505.482041 303.124939 
L 1506.720299 309.818272 
L 1507.958556 313.122318 
L 1509.196813 314.990186 
L 1510.435071 317.137244 
L 1512.911585 322.328233 
L 1514.149842 323.882297 
L 1515.3881 323.674275 
L 1516.626357 322.026251 
L 1517.864614 319.643361 
L 1519.102871 316.617228 
L 1520.341129 313.13439 
L 1521.579386 310.277579 
L 1522.817643 308.995014 
L 1524.0559 309.070448 
L 1525.294158 309.92189 
L 1526.532415 311.195552 
L 1527.770672 312.238136 
L 1529.00893 312.288725 
L 1530.247187 311.622571 
L 1531.485444 311.773026 
L 1532.723701 313.858921 
L 1535.200216 320.298896 
L 1536.438473 322.07408 
L 1537.67673 322.159206 
L 1538.914988 320.549364 
L 1540.153245 317.576097 
L 1541.391502 314.126091 
L 1542.62976 311.605664 
L 1543.868017 310.758756 
L 1545.106274 310.453915 
L 1546.344531 308.569765 
L 1547.582789 303.972618 
L 1550.059303 291.540728 
L 1551.29756 288.46388 
L 1552.535818 288.53432 
L 1553.774075 290.18321 
L 1555.012332 290.97583 
L 1556.250589 289.171256 
L 1557.488847 285.896747 
L 1558.727104 284.129514 
L 1559.965361 284.989958 
L 1562.441876 289.15903 
L 1563.680133 290.989587 
L 1564.91839 292.500824 
L 1566.156648 293.473432 
L 1567.394905 294.183473 
L 1569.871419 296.125778 
L 1571.109677 297.082857 
L 1573.586191 299.390486 
L 1574.824448 299.672592 
L 1576.062706 297.769167 
L 1577.300963 293.306328 
L 1579.777478 280.502205 
L 1581.015735 275.162366 
L 1582.253992 271.508326 
L 1583.492249 269.20612 
L 1584.730507 268.396721 
L 1585.968764 270.350896 
L 1587.207021 275.694325 
L 1588.445278 282.544843 
L 1589.683536 287.773746 
L 1590.921793 289.84737 
L 1592.16005 289.677625 
L 1593.398307 288.721039 
L 1594.636565 287.159401 
L 1595.874822 284.81803 
L 1597.113079 283.079333 
L 1598.351337 283.944172 
L 1599.589594 287.213308 
L 1600.827851 290.935852 
L 1604.542623 300.708507 
L 1607.019137 306.184939 
L 1608.257395 308.268865 
L 1609.495652 308.758994 
L 1610.733909 306.706396 
L 1611.972166 301.952852 
L 1614.448681 288.225119 
L 1615.686938 284.088945 
L 1616.925196 284.785403 
L 1618.163453 289.457467 
L 1619.40171 295.296784 
L 1620.639967 300.031244 
L 1621.878225 302.852298 
L 1623.116482 303.92082 
L 1624.354739 303.792626 
L 1625.592996 302.933819 
L 1628.069511 300.384637 
L 1629.307768 299.440599 
L 1630.546026 299.22847 
L 1631.784283 300.56538 
L 1633.02254 303.759858 
L 1634.260797 307.534917 
L 1635.499055 309.677693 
L 1636.737312 308.335428 
L 1637.975569 302.369628 
L 1639.213826 290.967361 
L 1640.452084 273.824361 
L 1641.690341 252.591884 
L 1641.690341 252.591884 
" style="fill:none;stroke:#008000;stroke-linecap:square;stroke-width:1.5;"/>
   </g>
   <g id="patch_3">
    <path d="M 43.78125 586.86358 
L 43.78125 22.318125 
" style="fill:none;stroke:#000000;stroke-linecap:square;stroke-linejoin:miter;stroke-width:0.8;"/>
   </g>
   <g id="patch_4">
    <path d="M 1717.78125 586.86358 
L 1717.78125 22.318125 
" style="fill:none;stroke:#000000;stroke-linecap:square;stroke-linejoin:miter;stroke-width:0.8;"/>
   </g>
   <g id="patch_5">
    <path d="M 43.78125 586.86358 
L 1717.78125 586.86358 
" style="fill:none;stroke:#000000;stroke-linecap:square;stroke-linejoin:miter;stroke-width:0.8;"/>
   </g>
   <g id="patch_6">
    <path d="M 43.78125 22.318125 
L 1717.78125 22.318125 
" style="fill:none;stroke:#000000;stroke-linecap:square;stroke-linejoin:miter;stroke-width:0.8;"/>
   </g>
   <g id="text_16">
    <!-- before binarisation -->
    <g transform="translate(824.1825 16.318125)scale(0.12 -0.12)">
     <defs>
      <path d="M 3116 1747 
Q 3116 2381 2855 2742 
Q 2594 3103 2138 3103 
Q 1681 3103 1420 2742 
Q 1159 2381 1159 1747 
Q 1159 1113 1420 752 
Q 1681 391 2138 391 
Q 2594 391 2855 752 
Q 3116 1113 3116 1747 
z
M 1159 2969 
Q 1341 3281 1617 3432 
Q 1894 3584 2278 3584 
Q 2916 3584 3314 3078 
Q 3713 2572 3713 1747 
Q 3713 922 3314 415 
Q 2916 -91 2278 -91 
Q 1894 -91 1617 61 
Q 1341 213 1159 525 
L 1159 0 
L 581 0 
L 581 4863 
L 1159 4863 
L 1159 2969 
z
" id="DejaVuSans-62" transform="scale(0.015625)"/>
      <path d="M 1959 3097 
Q 1497 3097 1228 2736 
Q 959 2375 959 1747 
Q 959 1119 1226 758 
Q 1494 397 1959 397 
Q 2419 397 2687 759 
Q 2956 1122 2956 1747 
Q 2956 2369 2687 2733 
Q 2419 3097 1959 3097 
z
M 1959 3584 
Q 2709 3584 3137 3096 
Q 3566 2609 3566 1747 
Q 3566 888 3137 398 
Q 2709 -91 1959 -91 
Q 1206 -91 779 398 
Q 353 888 353 1747 
Q 353 2609 779 3096 
Q 1206 3584 1959 3584 
z
" id="DejaVuSans-6f" transform="scale(0.015625)"/>
      <path id="DejaVuSans-20" transform="scale(0.015625)"/>
      <path d="M 603 3500 
L 1178 3500 
L 1178 0 
L 603 0 
L 603 3500 
z
M 603 4863 
L 1178 4863 
L 1178 4134 
L 603 4134 
L 603 4863 
z
" id="DejaVuSans-69" transform="scale(0.015625)"/>
      <path d="M 3513 2113 
L 3513 0 
L 2938 0 
L 2938 2094 
Q 2938 2591 2744 2837 
Q 2550 3084 2163 3084 
Q 1697 3084 1428 2787 
Q 1159 2491 1159 1978 
L 1159 0 
L 581 0 
L 581 3500 
L 1159 3500 
L 1159 2956 
Q 1366 3272 1645 3428 
Q 1925 3584 2291 3584 
Q 2894 3584 3203 3211 
Q 3513 2838 3513 2113 
z
" id="DejaVuSans-6e" transform="scale(0.015625)"/>
      <path d="M 2834 3397 
L 2834 2853 
Q 2591 2978 2328 3040 
Q 2066 3103 1784 3103 
Q 1356 3103 1142 2972 
Q 928 2841 928 2578 
Q 928 2378 1081 2264 
Q 1234 2150 1697 2047 
L 1894 2003 
Q 2506 1872 2764 1633 
Q 3022 1394 3022 966 
Q 3022 478 2636 193 
Q 2250 -91 1575 -91 
Q 1294 -91 989 -36 
Q 684 19 347 128 
L 347 722 
Q 666 556 975 473 
Q 1284 391 1588 391 
Q 1994 391 2212 530 
Q 2431 669 2431 922 
Q 2431 1156 2273 1281 
Q 2116 1406 1581 1522 
L 1381 1569 
Q 847 1681 609 1914 
Q 372 2147 372 2553 
Q 372 3047 722 3315 
Q 1072 3584 1716 3584 
Q 2034 3584 2315 3537 
Q 2597 3491 2834 3397 
z
" id="DejaVuSans-73" transform="scale(0.015625)"/>
      <path d="M 1172 4494 
L 1172 3500 
L 2356 3500 
L 2356 3053 
L 1172 3053 
L 1172 1153 
Q 1172 725 1289 603 
Q 1406 481 1766 481 
L 2356 481 
L 2356 0 
L 1766 0 
Q 1100 0 847 248 
Q 594 497 594 1153 
L 594 3053 
L 172 3053 
L 172 3500 
L 594 3500 
L 594 4494 
L 1172 4494 
z
" id="DejaVuSans-74" transform="scale(0.015625)"/>
     </defs>
     <use xlink:href="#DejaVuSans-62"/>
     <use x="63.476562" xlink:href="#DejaVuSans-65"/>
     <use x="125" xlink:href="#DejaVuSans-66"/>
     <use x="160.205078" xlink:href="#DejaVuSans-6f"/>
     <use x="221.386719" xlink:href="#DejaVuSans-72"/>
     <use x="260.25" xlink:href="#DejaVuSans-65"/>
     <use x="321.773438" xlink:href="#DejaVuSans-20"/>
     <use x="353.560547" xlink:href="#DejaVuSans-62"/>
     <use x="417.037109" xlink:href="#DejaVuSans-69"/>
     <use x="444.820312" xlink:href="#DejaVuSans-6e"/>
     <use x="508.199219" xlink:href="#DejaVuSans-61"/>
     <use x="569.478516" xlink:href="#DejaVuSans-72"/>
     <use x="610.591797" xlink:href="#DejaVuSans-69"/>
     <use x="638.375" xlink:href="#DejaVuSans-73"/>
     <use x="690.474609" xlink:href="#DejaVuSans-61"/>
     <use x="751.753906" xlink:href="#DejaVuSans-74"/>
     <use x="790.962891" xlink:href="#DejaVuSans-69"/>
     <use x="818.746094" xlink:href="#DejaVuSans-6f"/>
     <use x="879.927734" xlink:href="#DejaVuSans-6e"/>
    </g>
   </g>
  </g>
  <g id="axes_2">
   <g id="patch_7">
    <path d="M 43.78125 1264.318125 
L 1717.78125 1264.318125 
L 1717.78125 699.77267 
L 43.78125 699.77267 
z
" style="fill:#ffffff;"/>
   </g>
   <g id="matplotlib.axis_3">
    <g id="xtick_8">
     <g id="line2d_15">
      <g>
       <use style="stroke:#000000;stroke-width:0.8;" x="119.872159" xlink:href="#m7749fb5894" y="1264.318125"/>
      </g>
     </g>
     <g id="text_17">
      <!-- 0 -->
      <g transform="translate(116.690909 1278.916563)scale(0.1 -0.1)">
       <use xlink:href="#DejaVuSans-30"/>
      </g>
     </g>
    </g>
    <g id="xtick_9">
     <g id="line2d_16">
      <g>
       <use style="stroke:#000000;stroke-width:0.8;" x="367.523613" xlink:href="#m7749fb5894" y="1264.318125"/>
      </g>
     </g>
     <g id="text_18">
      <!-- 200 -->
      <g transform="translate(357.979863 1278.916563)scale(0.1 -0.1)">
       <use xlink:href="#DejaVuSans-32"/>
       <use x="63.623047" xlink:href="#DejaVuSans-30"/>
       <use x="127.246094" xlink:href="#DejaVuSans-30"/>
      </g>
     </g>
    </g>
    <g id="xtick_10">
     <g id="line2d_17">
      <g>
       <use style="stroke:#000000;stroke-width:0.8;" x="615.175066" xlink:href="#m7749fb5894" y="1264.318125"/>
      </g>
     </g>
     <g id="text_19">
      <!-- 400 -->
      <g transform="translate(605.631316 1278.916563)scale(0.1 -0.1)">
       <use xlink:href="#DejaVuSans-34"/>
       <use x="63.623047" xlink:href="#DejaVuSans-30"/>
       <use x="127.246094" xlink:href="#DejaVuSans-30"/>
      </g>
     </g>
    </g>
    <g id="xtick_11">
     <g id="line2d_18">
      <g>
       <use style="stroke:#000000;stroke-width:0.8;" x="862.82652" xlink:href="#m7749fb5894" y="1264.318125"/>
      </g>
     </g>
     <g id="text_20">
      <!-- 600 -->
      <g transform="translate(853.28277 1278.916563)scale(0.1 -0.1)">
       <use xlink:href="#DejaVuSans-36"/>
       <use x="63.623047" xlink:href="#DejaVuSans-30"/>
       <use x="127.246094" xlink:href="#DejaVuSans-30"/>
      </g>
     </g>
    </g>
    <g id="xtick_12">
     <g id="line2d_19">
      <g>
       <use style="stroke:#000000;stroke-width:0.8;" x="1110.477973" xlink:href="#m7749fb5894" y="1264.318125"/>
      </g>
     </g>
     <g id="text_21">
      <!-- 800 -->
      <g transform="translate(1100.934223 1278.916563)scale(0.1 -0.1)">
       <use xlink:href="#DejaVuSans-38"/>
       <use x="63.623047" xlink:href="#DejaVuSans-30"/>
       <use x="127.246094" xlink:href="#DejaVuSans-30"/>
      </g>
     </g>
    </g>
    <g id="xtick_13">
     <g id="line2d_20">
      <g>
       <use style="stroke:#000000;stroke-width:0.8;" x="1358.129427" xlink:href="#m7749fb5894" y="1264.318125"/>
      </g>
     </g>
     <g id="text_22">
      <!-- 1000 -->
      <g transform="translate(1345.404427 1278.916563)scale(0.1 -0.1)">
       <use xlink:href="#DejaVuSans-31"/>
       <use x="63.623047" xlink:href="#DejaVuSans-30"/>
       <use x="127.246094" xlink:href="#DejaVuSans-30"/>
       <use x="190.869141" xlink:href="#DejaVuSans-30"/>
      </g>
     </g>
    </g>
    <g id="xtick_14">
     <g id="line2d_21">
      <g>
       <use style="stroke:#000000;stroke-width:0.8;" x="1605.78088" xlink:href="#m7749fb5894" y="1264.318125"/>
      </g>
     </g>
     <g id="text_23">
      <!-- 1200 -->
      <g transform="translate(1593.05588 1278.916563)scale(0.1 -0.1)">
       <use xlink:href="#DejaVuSans-31"/>
       <use x="63.623047" xlink:href="#DejaVuSans-32"/>
       <use x="127.246094" xlink:href="#DejaVuSans-30"/>
       <use x="190.869141" xlink:href="#DejaVuSans-30"/>
      </g>
     </g>
    </g>
    <g id="text_24">
     <!-- frame -->
     <g transform="translate(865.954687 1292.594688)scale(0.1 -0.1)">
      <use xlink:href="#DejaVuSans-66"/>
      <use x="35.205078" xlink:href="#DejaVuSans-72"/>
      <use x="76.318359" xlink:href="#DejaVuSans-61"/>
      <use x="137.597656" xlink:href="#DejaVuSans-6d"/>
      <use x="235.009766" xlink:href="#DejaVuSans-65"/>
     </g>
    </g>
   </g>
   <g id="matplotlib.axis_4">
    <g id="ytick_7">
     <g id="line2d_22">
      <g>
       <use style="stroke:#000000;stroke-width:0.8;" x="43.78125" xlink:href="#m2470eb475e" y="1238.656968"/>
      </g>
     </g>
     <g id="text_25">
      <!-- 0.0 -->
      <g transform="translate(20.878125 1242.456187)scale(0.1 -0.1)">
       <defs>
        <path d="M 684 794 
L 1344 794 
L 1344 0 
L 684 0 
L 684 794 
z
" id="DejaVuSans-2e" transform="scale(0.015625)"/>
       </defs>
       <use xlink:href="#DejaVuSans-30"/>
       <use x="63.623047" xlink:href="#DejaVuSans-2e"/>
       <use x="95.410156" xlink:href="#DejaVuSans-30"/>
      </g>
     </g>
    </g>
    <g id="ytick_8">
     <g id="line2d_23">
      <g>
       <use style="stroke:#000000;stroke-width:0.8;" x="43.78125" xlink:href="#m2470eb475e" y="1136.01234"/>
      </g>
     </g>
     <g id="text_26">
      <!-- 0.2 -->
      <g transform="translate(20.878125 1139.811559)scale(0.1 -0.1)">
       <use xlink:href="#DejaVuSans-30"/>
       <use x="63.623047" xlink:href="#DejaVuSans-2e"/>
       <use x="95.410156" xlink:href="#DejaVuSans-32"/>
      </g>
     </g>
    </g>
    <g id="ytick_9">
     <g id="line2d_24">
      <g>
       <use style="stroke:#000000;stroke-width:0.8;" x="43.78125" xlink:href="#m2470eb475e" y="1033.367712"/>
      </g>
     </g>
     <g id="text_27">
      <!-- 0.4 -->
      <g transform="translate(20.878125 1037.166931)scale(0.1 -0.1)">
       <use xlink:href="#DejaVuSans-30"/>
       <use x="63.623047" xlink:href="#DejaVuSans-2e"/>
       <use x="95.410156" xlink:href="#DejaVuSans-34"/>
      </g>
     </g>
    </g>
    <g id="ytick_10">
     <g id="line2d_25">
      <g>
       <use style="stroke:#000000;stroke-width:0.8;" x="43.78125" xlink:href="#m2470eb475e" y="930.723084"/>
      </g>
     </g>
     <g id="text_28">
      <!-- 0.6 -->
      <g transform="translate(20.878125 934.522302)scale(0.1 -0.1)">
       <use xlink:href="#DejaVuSans-30"/>
       <use x="63.623047" xlink:href="#DejaVuSans-2e"/>
       <use x="95.410156" xlink:href="#DejaVuSans-36"/>
      </g>
     </g>
    </g>
    <g id="ytick_11">
     <g id="line2d_26">
      <g>
       <use style="stroke:#000000;stroke-width:0.8;" x="43.78125" xlink:href="#m2470eb475e" y="828.078456"/>
      </g>
     </g>
     <g id="text_29">
      <!-- 0.8 -->
      <g transform="translate(20.878125 831.877674)scale(0.1 -0.1)">
       <use xlink:href="#DejaVuSans-30"/>
       <use x="63.623047" xlink:href="#DejaVuSans-2e"/>
       <use x="95.410156" xlink:href="#DejaVuSans-38"/>
      </g>
     </g>
    </g>
    <g id="ytick_12">
     <g id="line2d_27">
      <g>
       <use style="stroke:#000000;stroke-width:0.8;" x="43.78125" xlink:href="#m2470eb475e" y="725.433827"/>
      </g>
     </g>
     <g id="text_30">
      <!-- 1.0 -->
      <g transform="translate(20.878125 729.233046)scale(0.1 -0.1)">
       <use xlink:href="#DejaVuSans-31"/>
       <use x="63.623047" xlink:href="#DejaVuSans-2e"/>
       <use x="95.410156" xlink:href="#DejaVuSans-30"/>
      </g>
     </g>
    </g>
    <g id="text_31">
     <!-- GCaMP -->
     <g transform="translate(14.798437 999.803991)rotate(-90)scale(0.1 -0.1)">
      <use xlink:href="#DejaVuSans-47"/>
      <use x="77.490234" xlink:href="#DejaVuSans-43"/>
      <use x="147.314453" xlink:href="#DejaVuSans-61"/>
      <use x="208.59375" xlink:href="#DejaVuSans-4d"/>
      <use x="294.873047" xlink:href="#DejaVuSans-50"/>
     </g>
    </g>
   </g>
   <g id="line2d_28">
    <path clip-path="url(#pc7bd1cac0f)" d="M 119.872159 725.433827 
L 132.254732 725.433827 
L 133.492989 1238.656968 
L 134.731246 725.433827 
L 142.16079 725.433827 
L 143.399047 1238.656968 
L 591.648178 1238.656968 
L 592.886435 725.433827 
L 611.460294 725.433827 
L 612.698552 1238.656968 
L 620.128095 1238.656968 
L 621.366352 725.433827 
L 721.665191 725.433827 
L 722.903448 1238.656968 
L 730.332992 1238.656968 
L 731.571249 725.433827 
L 893.782951 725.433827 
L 895.021209 1238.656968 
L 938.360213 1238.656968 
L 939.59847 725.433827 
L 948.266271 725.433827 
L 949.504528 1238.656968 
L 1641.690341 1238.656968 
L 1641.690341 1238.656968 
" style="fill:none;stroke:#008000;stroke-linecap:square;stroke-width:1.5;"/>
   </g>
   <g id="patch_8">
    <path d="M 43.78125 1264.318125 
L 43.78125 699.77267 
" style="fill:none;stroke:#000000;stroke-linecap:square;stroke-linejoin:miter;stroke-width:0.8;"/>
   </g>
   <g id="patch_9">
    <path d="M 1717.78125 1264.318125 
L 1717.78125 699.77267 
" style="fill:none;stroke:#000000;stroke-linecap:square;stroke-linejoin:miter;stroke-width:0.8;"/>
   </g>
   <g id="patch_10">
    <path d="M 43.78125 1264.318125 
L 1717.78125 1264.318125 
" style="fill:none;stroke:#000000;stroke-linecap:square;stroke-linejoin:miter;stroke-width:0.8;"/>
   </g>
   <g id="patch_11">
    <path d="M 43.78125 699.77267 
L 1717.78125 699.77267 
" style="fill:none;stroke:#000000;stroke-linecap:square;stroke-linejoin:miter;stroke-width:0.8;"/>
   </g>
   <g id="text_32">
    <!-- before binarisation -->
    <g transform="translate(824.1825 693.77267)scale(0.12 -0.12)">
     <use xlink:href="#DejaVuSans-62"/>
     <use x="63.476562" xlink:href="#DejaVuSans-65"/>
     <use x="125" xlink:href="#DejaVuSans-66"/>
     <use x="160.205078" xlink:href="#DejaVuSans-6f"/>
     <use x="221.386719" xlink:href="#DejaVuSans-72"/>
     <use x="260.25" xlink:href="#DejaVuSans-65"/>
     <use x="321.773438" xlink:href="#DejaVuSans-20"/>
     <use x="353.560547" xlink:href="#DejaVuSans-62"/>
     <use x="417.037109" xlink:href="#DejaVuSans-69"/>
     <use x="444.820312" xlink:href="#DejaVuSans-6e"/>
     <use x="508.199219" xlink:href="#DejaVuSans-61"/>
     <use x="569.478516" xlink:href="#DejaVuSans-72"/>
     <use x="610.591797" xlink:href="#DejaVuSans-69"/>
     <use x="638.375" xlink:href="#DejaVuSans-73"/>
     <use x="690.474609" xlink:href="#DejaVuSans-61"/>
     <use x="751.753906" xlink:href="#DejaVuSans-74"/>
     <use x="790.962891" xlink:href="#DejaVuSans-69"/>
     <use x="818.746094" xlink:href="#DejaVuSans-6f"/>
     <use x="879.927734" xlink:href="#DejaVuSans-6e"/>
    </g>
   </g>
  </g>
 </g>
 <defs>
  <clipPath id="p386ed40308">
   <rect height="564.545455" width="1674" x="43.78125" y="22.318125"/>
  </clipPath>
  <clipPath id="pc7bd1cac0f">
   <rect height="564.545455" width="1674" x="43.78125" y="699.77267"/>
  </clipPath>
 </defs>
</svg>
