<?xml version="1.0" encoding="utf-8" standalone="no"?>
<!DOCTYPE svg PUBLIC "-//W3C//DTD SVG 1.1//EN"
  "http://www.w3.org/Graphics/SVG/1.1/DTD/svg11.dtd">
<svg height="1301.874375pt" version="1.1" viewBox="0 0 1724.98125 1301.874375" width="1724.98125pt" xmlns="http://www.w3.org/2000/svg" xmlns:xlink="http://www.w3.org/1999/xlink">
 <metadata>
  <rdf:RDF xmlns:cc="http://creativecommons.org/ns#" xmlns:dc="http://purl.org/dc/elements/1.1/" xmlns:rdf="http://www.w3.org/1999/02/22-rdf-syntax-ns#">
   <cc:Work>
    <dc:type rdf:resource="http://purl.org/dc/dcmitype/StillImage"/>
    <dc:date>2022-07-24T15:54:44.289328</dc:date>
    <dc:format>image/svg+xml</dc:format>
    <dc:creator>
     <cc:Agent>
      <dc:title>Matplotlib v3.4.2, https://matplotlib.org/</dc:title>
     </cc:Agent>
    </dc:creator>
   </cc:Work>
  </rdf:RDF>
 </metadata>
 <defs>
  <style type="text/css">*{stroke-linecap:butt;stroke-linejoin:round;}</style>
 </defs>
 <g id="figure_1">
  <g id="patch_1">
   <path d="M 0 1301.874375 
L 1724.98125 1301.874375 
L 1724.98125 0 
L 0 0 
z
" style="fill:#ffffff;"/>
  </g>
  <g id="axes_1">
   <g id="patch_2">
    <path d="M 43.78125 586.86358 
L 1717.78125 586.86358 
L 1717.78125 22.318125 
L 43.78125 22.318125 
z
" style="fill:#ffffff;"/>
   </g>
   <g id="matplotlib.axis_1">
    <g id="xtick_1">
     <g id="line2d_1">
      <defs>
       <path d="M 0 0 
L 0 3.5 
" id="m8aa48873bd" style="stroke:#000000;stroke-width:0.8;"/>
      </defs>
      <g>
       <use style="stroke:#000000;stroke-width:0.8;" x="119.872159" xlink:href="#m8aa48873bd" y="586.86358"/>
      </g>
     </g>
     <g id="text_1">
      <!-- 0 -->
      <g transform="translate(116.690909 601.462017)scale(0.1 -0.1)">
       <defs>
        <path d="M 2034 4250 
Q 1547 4250 1301 3770 
Q 1056 3291 1056 2328 
Q 1056 1369 1301 889 
Q 1547 409 2034 409 
Q 2525 409 2770 889 
Q 3016 1369 3016 2328 
Q 3016 3291 2770 3770 
Q 2525 4250 2034 4250 
z
M 2034 4750 
Q 2819 4750 3233 4129 
Q 3647 3509 3647 2328 
Q 3647 1150 3233 529 
Q 2819 -91 2034 -91 
Q 1250 -91 836 529 
Q 422 1150 422 2328 
Q 422 3509 836 4129 
Q 1250 4750 2034 4750 
z
" id="DejaVuSans-30" transform="scale(0.015625)"/>
       </defs>
       <use xlink:href="#DejaVuSans-30"/>
      </g>
     </g>
    </g>
    <g id="xtick_2">
     <g id="line2d_2">
      <g>
       <use style="stroke:#000000;stroke-width:0.8;" x="367.523613" xlink:href="#m8aa48873bd" y="586.86358"/>
      </g>
     </g>
     <g id="text_2">
      <!-- 200 -->
      <g transform="translate(357.979863 601.462017)scale(0.1 -0.1)">
       <defs>
        <path d="M 1228 531 
L 3431 531 
L 3431 0 
L 469 0 
L 469 531 
Q 828 903 1448 1529 
Q 2069 2156 2228 2338 
Q 2531 2678 2651 2914 
Q 2772 3150 2772 3378 
Q 2772 3750 2511 3984 
Q 2250 4219 1831 4219 
Q 1534 4219 1204 4116 
Q 875 4013 500 3803 
L 500 4441 
Q 881 4594 1212 4672 
Q 1544 4750 1819 4750 
Q 2544 4750 2975 4387 
Q 3406 4025 3406 3419 
Q 3406 3131 3298 2873 
Q 3191 2616 2906 2266 
Q 2828 2175 2409 1742 
Q 1991 1309 1228 531 
z
" id="DejaVuSans-32" transform="scale(0.015625)"/>
       </defs>
       <use xlink:href="#DejaVuSans-32"/>
       <use x="63.623047" xlink:href="#DejaVuSans-30"/>
       <use x="127.246094" xlink:href="#DejaVuSans-30"/>
      </g>
     </g>
    </g>
    <g id="xtick_3">
     <g id="line2d_3">
      <g>
       <use style="stroke:#000000;stroke-width:0.8;" x="615.175066" xlink:href="#m8aa48873bd" y="586.86358"/>
      </g>
     </g>
     <g id="text_3">
      <!-- 400 -->
      <g transform="translate(605.631316 601.462017)scale(0.1 -0.1)">
       <defs>
        <path d="M 2419 4116 
L 825 1625 
L 2419 1625 
L 2419 4116 
z
M 2253 4666 
L 3047 4666 
L 3047 1625 
L 3713 1625 
L 3713 1100 
L 3047 1100 
L 3047 0 
L 2419 0 
L 2419 1100 
L 313 1100 
L 313 1709 
L 2253 4666 
z
" id="DejaVuSans-34" transform="scale(0.015625)"/>
       </defs>
       <use xlink:href="#DejaVuSans-34"/>
       <use x="63.623047" xlink:href="#DejaVuSans-30"/>
       <use x="127.246094" xlink:href="#DejaVuSans-30"/>
      </g>
     </g>
    </g>
    <g id="xtick_4">
     <g id="line2d_4">
      <g>
       <use style="stroke:#000000;stroke-width:0.8;" x="862.82652" xlink:href="#m8aa48873bd" y="586.86358"/>
      </g>
     </g>
     <g id="text_4">
      <!-- 600 -->
      <g transform="translate(853.28277 601.462017)scale(0.1 -0.1)">
       <defs>
        <path d="M 2113 2584 
Q 1688 2584 1439 2293 
Q 1191 2003 1191 1497 
Q 1191 994 1439 701 
Q 1688 409 2113 409 
Q 2538 409 2786 701 
Q 3034 994 3034 1497 
Q 3034 2003 2786 2293 
Q 2538 2584 2113 2584 
z
M 3366 4563 
L 3366 3988 
Q 3128 4100 2886 4159 
Q 2644 4219 2406 4219 
Q 1781 4219 1451 3797 
Q 1122 3375 1075 2522 
Q 1259 2794 1537 2939 
Q 1816 3084 2150 3084 
Q 2853 3084 3261 2657 
Q 3669 2231 3669 1497 
Q 3669 778 3244 343 
Q 2819 -91 2113 -91 
Q 1303 -91 875 529 
Q 447 1150 447 2328 
Q 447 3434 972 4092 
Q 1497 4750 2381 4750 
Q 2619 4750 2861 4703 
Q 3103 4656 3366 4563 
z
" id="DejaVuSans-36" transform="scale(0.015625)"/>
       </defs>
       <use xlink:href="#DejaVuSans-36"/>
       <use x="63.623047" xlink:href="#DejaVuSans-30"/>
       <use x="127.246094" xlink:href="#DejaVuSans-30"/>
      </g>
     </g>
    </g>
    <g id="xtick_5">
     <g id="line2d_5">
      <g>
       <use style="stroke:#000000;stroke-width:0.8;" x="1110.477973" xlink:href="#m8aa48873bd" y="586.86358"/>
      </g>
     </g>
     <g id="text_5">
      <!-- 800 -->
      <g transform="translate(1100.934223 601.462017)scale(0.1 -0.1)">
       <defs>
        <path d="M 2034 2216 
Q 1584 2216 1326 1975 
Q 1069 1734 1069 1313 
Q 1069 891 1326 650 
Q 1584 409 2034 409 
Q 2484 409 2743 651 
Q 3003 894 3003 1313 
Q 3003 1734 2745 1975 
Q 2488 2216 2034 2216 
z
M 1403 2484 
Q 997 2584 770 2862 
Q 544 3141 544 3541 
Q 544 4100 942 4425 
Q 1341 4750 2034 4750 
Q 2731 4750 3128 4425 
Q 3525 4100 3525 3541 
Q 3525 3141 3298 2862 
Q 3072 2584 2669 2484 
Q 3125 2378 3379 2068 
Q 3634 1759 3634 1313 
Q 3634 634 3220 271 
Q 2806 -91 2034 -91 
Q 1263 -91 848 271 
Q 434 634 434 1313 
Q 434 1759 690 2068 
Q 947 2378 1403 2484 
z
M 1172 3481 
Q 1172 3119 1398 2916 
Q 1625 2713 2034 2713 
Q 2441 2713 2670 2916 
Q 2900 3119 2900 3481 
Q 2900 3844 2670 4047 
Q 2441 4250 2034 4250 
Q 1625 4250 1398 4047 
Q 1172 3844 1172 3481 
z
" id="DejaVuSans-38" transform="scale(0.015625)"/>
       </defs>
       <use xlink:href="#DejaVuSans-38"/>
       <use x="63.623047" xlink:href="#DejaVuSans-30"/>
       <use x="127.246094" xlink:href="#DejaVuSans-30"/>
      </g>
     </g>
    </g>
    <g id="xtick_6">
     <g id="line2d_6">
      <g>
       <use style="stroke:#000000;stroke-width:0.8;" x="1358.129427" xlink:href="#m8aa48873bd" y="586.86358"/>
      </g>
     </g>
     <g id="text_6">
      <!-- 1000 -->
      <g transform="translate(1345.404427 601.462017)scale(0.1 -0.1)">
       <defs>
        <path d="M 794 531 
L 1825 531 
L 1825 4091 
L 703 3866 
L 703 4441 
L 1819 4666 
L 2450 4666 
L 2450 531 
L 3481 531 
L 3481 0 
L 794 0 
L 794 531 
z
" id="DejaVuSans-31" transform="scale(0.015625)"/>
       </defs>
       <use xlink:href="#DejaVuSans-31"/>
       <use x="63.623047" xlink:href="#DejaVuSans-30"/>
       <use x="127.246094" xlink:href="#DejaVuSans-30"/>
       <use x="190.869141" xlink:href="#DejaVuSans-30"/>
      </g>
     </g>
    </g>
    <g id="xtick_7">
     <g id="line2d_7">
      <g>
       <use style="stroke:#000000;stroke-width:0.8;" x="1605.78088" xlink:href="#m8aa48873bd" y="586.86358"/>
      </g>
     </g>
     <g id="text_7">
      <!-- 1200 -->
      <g transform="translate(1593.05588 601.462017)scale(0.1 -0.1)">
       <use xlink:href="#DejaVuSans-31"/>
       <use x="63.623047" xlink:href="#DejaVuSans-32"/>
       <use x="127.246094" xlink:href="#DejaVuSans-30"/>
       <use x="190.869141" xlink:href="#DejaVuSans-30"/>
      </g>
     </g>
    </g>
    <g id="text_8">
     <!-- frame -->
     <g transform="translate(865.954687 615.140142)scale(0.1 -0.1)">
      <defs>
       <path d="M 2375 4863 
L 2375 4384 
L 1825 4384 
Q 1516 4384 1395 4259 
Q 1275 4134 1275 3809 
L 1275 3500 
L 2222 3500 
L 2222 3053 
L 1275 3053 
L 1275 0 
L 697 0 
L 697 3053 
L 147 3053 
L 147 3500 
L 697 3500 
L 697 3744 
Q 697 4328 969 4595 
Q 1241 4863 1831 4863 
L 2375 4863 
z
" id="DejaVuSans-66" transform="scale(0.015625)"/>
       <path d="M 2631 2963 
Q 2534 3019 2420 3045 
Q 2306 3072 2169 3072 
Q 1681 3072 1420 2755 
Q 1159 2438 1159 1844 
L 1159 0 
L 581 0 
L 581 3500 
L 1159 3500 
L 1159 2956 
Q 1341 3275 1631 3429 
Q 1922 3584 2338 3584 
Q 2397 3584 2469 3576 
Q 2541 3569 2628 3553 
L 2631 2963 
z
" id="DejaVuSans-72" transform="scale(0.015625)"/>
       <path d="M 2194 1759 
Q 1497 1759 1228 1600 
Q 959 1441 959 1056 
Q 959 750 1161 570 
Q 1363 391 1709 391 
Q 2188 391 2477 730 
Q 2766 1069 2766 1631 
L 2766 1759 
L 2194 1759 
z
M 3341 1997 
L 3341 0 
L 2766 0 
L 2766 531 
Q 2569 213 2275 61 
Q 1981 -91 1556 -91 
Q 1019 -91 701 211 
Q 384 513 384 1019 
Q 384 1609 779 1909 
Q 1175 2209 1959 2209 
L 2766 2209 
L 2766 2266 
Q 2766 2663 2505 2880 
Q 2244 3097 1772 3097 
Q 1472 3097 1187 3025 
Q 903 2953 641 2809 
L 641 3341 
Q 956 3463 1253 3523 
Q 1550 3584 1831 3584 
Q 2591 3584 2966 3190 
Q 3341 2797 3341 1997 
z
" id="DejaVuSans-61" transform="scale(0.015625)"/>
       <path d="M 3328 2828 
Q 3544 3216 3844 3400 
Q 4144 3584 4550 3584 
Q 5097 3584 5394 3201 
Q 5691 2819 5691 2113 
L 5691 0 
L 5113 0 
L 5113 2094 
Q 5113 2597 4934 2840 
Q 4756 3084 4391 3084 
Q 3944 3084 3684 2787 
Q 3425 2491 3425 1978 
L 3425 0 
L 2847 0 
L 2847 2094 
Q 2847 2600 2669 2842 
Q 2491 3084 2119 3084 
Q 1678 3084 1418 2786 
Q 1159 2488 1159 1978 
L 1159 0 
L 581 0 
L 581 3500 
L 1159 3500 
L 1159 2956 
Q 1356 3278 1631 3431 
Q 1906 3584 2284 3584 
Q 2666 3584 2933 3390 
Q 3200 3197 3328 2828 
z
" id="DejaVuSans-6d" transform="scale(0.015625)"/>
       <path d="M 3597 1894 
L 3597 1613 
L 953 1613 
Q 991 1019 1311 708 
Q 1631 397 2203 397 
Q 2534 397 2845 478 
Q 3156 559 3463 722 
L 3463 178 
Q 3153 47 2828 -22 
Q 2503 -91 2169 -91 
Q 1331 -91 842 396 
Q 353 884 353 1716 
Q 353 2575 817 3079 
Q 1281 3584 2069 3584 
Q 2775 3584 3186 3129 
Q 3597 2675 3597 1894 
z
M 3022 2063 
Q 3016 2534 2758 2815 
Q 2500 3097 2075 3097 
Q 1594 3097 1305 2825 
Q 1016 2553 972 2059 
L 3022 2063 
z
" id="DejaVuSans-65" transform="scale(0.015625)"/>
      </defs>
      <use xlink:href="#DejaVuSans-66"/>
      <use x="35.205078" xlink:href="#DejaVuSans-72"/>
      <use x="76.318359" xlink:href="#DejaVuSans-61"/>
      <use x="137.597656" xlink:href="#DejaVuSans-6d"/>
      <use x="235.009766" xlink:href="#DejaVuSans-65"/>
     </g>
    </g>
   </g>
   <g id="matplotlib.axis_2">
    <g id="ytick_1">
     <g id="line2d_8">
      <defs>
       <path d="M 0 0 
L -3.5 0 
" id="mc707cde16f" style="stroke:#000000;stroke-width:0.8;"/>
      </defs>
      <g>
       <use style="stroke:#000000;stroke-width:0.8;" x="43.78125" xlink:href="#mc707cde16f" y="555.137531"/>
      </g>
     </g>
     <g id="text_9">
      <!-- 0.6 -->
      <g transform="translate(20.878125 558.93675)scale(0.1 -0.1)">
       <defs>
        <path d="M 684 794 
L 1344 794 
L 1344 0 
L 684 0 
L 684 794 
z
" id="DejaVuSans-2e" transform="scale(0.015625)"/>
       </defs>
       <use xlink:href="#DejaVuSans-30"/>
       <use x="63.623047" xlink:href="#DejaVuSans-2e"/>
       <use x="95.410156" xlink:href="#DejaVuSans-36"/>
      </g>
     </g>
    </g>
    <g id="ytick_2">
     <g id="line2d_9">
      <g>
       <use style="stroke:#000000;stroke-width:0.8;" x="43.78125" xlink:href="#mc707cde16f" y="450.053994"/>
      </g>
     </g>
     <g id="text_10">
      <!-- 0.8 -->
      <g transform="translate(20.878125 453.853212)scale(0.1 -0.1)">
       <use xlink:href="#DejaVuSans-30"/>
       <use x="63.623047" xlink:href="#DejaVuSans-2e"/>
       <use x="95.410156" xlink:href="#DejaVuSans-38"/>
      </g>
     </g>
    </g>
    <g id="ytick_3">
     <g id="line2d_10">
      <g>
       <use style="stroke:#000000;stroke-width:0.8;" x="43.78125" xlink:href="#mc707cde16f" y="344.970456"/>
      </g>
     </g>
     <g id="text_11">
      <!-- 1.0 -->
      <g transform="translate(20.878125 348.769675)scale(0.1 -0.1)">
       <use xlink:href="#DejaVuSans-31"/>
       <use x="63.623047" xlink:href="#DejaVuSans-2e"/>
       <use x="95.410156" xlink:href="#DejaVuSans-30"/>
      </g>
     </g>
    </g>
    <g id="ytick_4">
     <g id="line2d_11">
      <g>
       <use style="stroke:#000000;stroke-width:0.8;" x="43.78125" xlink:href="#mc707cde16f" y="239.886919"/>
      </g>
     </g>
     <g id="text_12">
      <!-- 1.2 -->
      <g transform="translate(20.878125 243.686138)scale(0.1 -0.1)">
       <use xlink:href="#DejaVuSans-31"/>
       <use x="63.623047" xlink:href="#DejaVuSans-2e"/>
       <use x="95.410156" xlink:href="#DejaVuSans-32"/>
      </g>
     </g>
    </g>
    <g id="ytick_5">
     <g id="line2d_12">
      <g>
       <use style="stroke:#000000;stroke-width:0.8;" x="43.78125" xlink:href="#mc707cde16f" y="134.803382"/>
      </g>
     </g>
     <g id="text_13">
      <!-- 1.4 -->
      <g transform="translate(20.878125 138.602601)scale(0.1 -0.1)">
       <use xlink:href="#DejaVuSans-31"/>
       <use x="63.623047" xlink:href="#DejaVuSans-2e"/>
       <use x="95.410156" xlink:href="#DejaVuSans-34"/>
      </g>
     </g>
    </g>
    <g id="ytick_6">
     <g id="line2d_13">
      <g>
       <use style="stroke:#000000;stroke-width:0.8;" x="43.78125" xlink:href="#mc707cde16f" y="29.719844"/>
      </g>
     </g>
     <g id="text_14">
      <!-- 1.6 -->
      <g transform="translate(20.878125 33.519063)scale(0.1 -0.1)">
       <use xlink:href="#DejaVuSans-31"/>
       <use x="63.623047" xlink:href="#DejaVuSans-2e"/>
       <use x="95.410156" xlink:href="#DejaVuSans-36"/>
      </g>
     </g>
    </g>
    <g id="text_15">
     <!-- GCaMP -->
     <g transform="translate(14.798437 322.349446)rotate(-90)scale(0.1 -0.1)">
      <defs>
       <path d="M 3809 666 
L 3809 1919 
L 2778 1919 
L 2778 2438 
L 4434 2438 
L 4434 434 
Q 4069 175 3628 42 
Q 3188 -91 2688 -91 
Q 1594 -91 976 548 
Q 359 1188 359 2328 
Q 359 3472 976 4111 
Q 1594 4750 2688 4750 
Q 3144 4750 3555 4637 
Q 3966 4525 4313 4306 
L 4313 3634 
Q 3963 3931 3569 4081 
Q 3175 4231 2741 4231 
Q 1884 4231 1454 3753 
Q 1025 3275 1025 2328 
Q 1025 1384 1454 906 
Q 1884 428 2741 428 
Q 3075 428 3337 486 
Q 3600 544 3809 666 
z
" id="DejaVuSans-47" transform="scale(0.015625)"/>
       <path d="M 4122 4306 
L 4122 3641 
Q 3803 3938 3442 4084 
Q 3081 4231 2675 4231 
Q 1875 4231 1450 3742 
Q 1025 3253 1025 2328 
Q 1025 1406 1450 917 
Q 1875 428 2675 428 
Q 3081 428 3442 575 
Q 3803 722 4122 1019 
L 4122 359 
Q 3791 134 3420 21 
Q 3050 -91 2638 -91 
Q 1578 -91 968 557 
Q 359 1206 359 2328 
Q 359 3453 968 4101 
Q 1578 4750 2638 4750 
Q 3056 4750 3426 4639 
Q 3797 4528 4122 4306 
z
" id="DejaVuSans-43" transform="scale(0.015625)"/>
       <path d="M 628 4666 
L 1569 4666 
L 2759 1491 
L 3956 4666 
L 4897 4666 
L 4897 0 
L 4281 0 
L 4281 4097 
L 3078 897 
L 2444 897 
L 1241 4097 
L 1241 0 
L 628 0 
L 628 4666 
z
" id="DejaVuSans-4d" transform="scale(0.015625)"/>
       <path d="M 1259 4147 
L 1259 2394 
L 2053 2394 
Q 2494 2394 2734 2622 
Q 2975 2850 2975 3272 
Q 2975 3691 2734 3919 
Q 2494 4147 2053 4147 
L 1259 4147 
z
M 628 4666 
L 2053 4666 
Q 2838 4666 3239 4311 
Q 3641 3956 3641 3272 
Q 3641 2581 3239 2228 
Q 2838 1875 2053 1875 
L 1259 1875 
L 1259 0 
L 628 0 
L 628 4666 
z
" id="DejaVuSans-50" transform="scale(0.015625)"/>
      </defs>
      <use xlink:href="#DejaVuSans-47"/>
      <use x="77.490234" xlink:href="#DejaVuSans-43"/>
      <use x="147.314453" xlink:href="#DejaVuSans-61"/>
      <use x="208.59375" xlink:href="#DejaVuSans-4d"/>
      <use x="294.873047" xlink:href="#DejaVuSans-50"/>
     </g>
    </g>
   </g>
   <g id="line2d_14">
    <path clip-path="url(#pf2426556e1)" d="M 119.872159 541.796272 
L 121.110416 542.573842 
L 122.348674 543.64557 
L 123.586931 545.757737 
L 124.825188 549.393173 
L 126.063445 553.841923 
L 127.301703 557.73707 
L 128.53996 560.24627 
L 129.778217 561.202423 
L 131.016474 560.60521 
L 132.254732 558.716234 
L 133.492989 556.505688 
L 134.731246 555.192004 
L 135.969504 554.827584 
L 137.207761 554.112037 
L 138.446018 552.210593 
L 139.684275 549.87901 
L 140.922533 548.471911 
L 142.16079 548.65757 
L 143.399047 550.081078 
L 144.637304 551.771708 
L 145.875562 552.954204 
L 147.113819 553.472265 
L 148.352076 553.463692 
L 149.590334 553.065111 
L 150.828591 552.433453 
L 152.066848 551.657749 
L 153.305105 550.43968 
L 154.543363 547.988613 
L 155.78162 543.754821 
L 157.019877 538.46292 
L 158.258134 534.104302 
L 159.496392 532.559473 
L 160.734649 534.152848 
L 161.972906 537.437929 
L 163.211163 539.964475 
L 164.449421 539.69071 
L 165.687678 536.437986 
L 166.925935 531.848609 
L 168.164193 527.955851 
L 169.40245 526.084772 
L 170.640707 526.384826 
L 171.878964 527.508836 
L 173.117222 527.517546 
L 174.355479 526.106718 
L 175.593736 525.29852 
L 176.831993 527.340715 
L 178.070251 532.585833 
L 180.546765 546.023052 
L 181.785022 550.130135 
L 183.02328 551.229736 
L 184.261537 550.122577 
L 186.738052 545.896659 
L 189.214566 541.375168 
L 191.691081 536.033501 
L 192.929338 534.694138 
L 194.167595 535.529709 
L 195.405852 537.762504 
L 196.64411 539.69895 
L 197.882367 540.190563 
L 199.120624 538.898627 
L 200.358881 536.132339 
L 202.835396 529.039548 
L 204.073653 526.666188 
L 205.311911 525.916035 
L 206.550168 526.186631 
L 207.788425 526.969575 
L 209.026682 528.398124 
L 210.26494 530.665307 
L 211.503197 533.608658 
L 212.741454 536.143502 
L 213.979711 536.37472 
L 215.217969 533.164676 
L 217.694483 521.333053 
L 218.93274 517.559492 
L 220.170998 516.81718 
L 221.409255 518.523223 
L 222.647512 521.815436 
L 223.88577 525.496714 
L 225.124027 528.046074 
L 226.362284 528.66321 
L 227.600541 527.899732 
L 228.838799 526.944724 
L 230.077056 526.428619 
L 233.791828 525.930749 
L 235.030085 526.026128 
L 236.268342 526.736274 
L 238.744857 529.042074 
L 239.983114 529.008357 
L 241.221371 527.01852 
L 243.697886 519.295909 
L 244.936143 516.758735 
L 246.1744 516.472021 
L 247.412658 517.86215 
L 248.650915 519.656025 
L 249.889172 520.844103 
L 251.127429 521.045786 
L 252.365687 520.408127 
L 253.603944 519.546439 
L 254.842201 519.314158 
L 256.080459 520.083519 
L 258.556973 522.525487 
L 259.79523 524.310771 
L 261.033488 527.45031 
L 262.271745 531.25801 
L 263.510002 533.649586 
L 264.748259 532.671699 
L 265.986517 527.987217 
L 268.463031 514.6495 
L 269.701288 510.441561 
L 270.939546 508.906541 
L 272.177803 508.795288 
L 273.41606 508.850496 
L 274.654318 509.103056 
L 275.892575 510.373408 
L 277.130832 513.140123 
L 279.607347 520.352825 
L 280.845604 522.194811 
L 282.083861 522.350205 
L 284.560376 520.975036 
L 285.798633 521.210416 
L 287.03689 522.497685 
L 288.275147 524.138559 
L 289.513405 525.467616 
L 290.751662 526.474534 
L 291.989919 527.226337 
L 293.228177 527.364905 
L 294.466434 526.423742 
L 295.704691 524.354085 
L 296.942948 521.798907 
L 298.181206 520.093668 
L 299.419463 520.520856 
L 300.65772 523.206675 
L 303.134235 530.567896 
L 304.372492 532.88882 
L 305.610749 533.742534 
L 306.849006 533.192161 
L 309.325521 530.546973 
L 310.563778 530.080433 
L 311.802036 530.136741 
L 313.040293 529.866274 
L 314.27855 528.477713 
L 315.516807 525.637701 
L 316.755065 521.319428 
L 319.231579 509.943514 
L 320.469836 505.516982 
L 321.708094 504.214302 
L 322.946351 506.249869 
L 325.422866 513.729064 
L 326.661123 516.316536 
L 327.89938 517.540477 
L 329.137637 517.416411 
L 330.375895 516.319662 
L 334.090666 512.087435 
L 335.328924 511.917047 
L 336.567181 513.639825 
L 337.805438 516.744395 
L 339.043695 519.493222 
L 340.281953 520.482568 
L 341.52021 519.856164 
L 343.996725 517.5946 
L 345.234982 516.860235 
L 346.473239 516.535758 
L 347.711496 515.952223 
L 348.949754 514.268827 
L 350.188011 512.019139 
L 351.426268 510.940624 
L 352.664525 512.335839 
L 353.902783 516.020584 
L 355.14104 520.262496 
L 356.379297 522.740004 
L 357.617554 522.145024 
L 358.855812 518.872099 
L 361.332326 509.927814 
L 362.570584 506.948639 
L 363.808841 506.093749 
L 365.047098 507.145357 
L 367.523613 510.931588 
L 368.76187 512.233219 
L 370.000127 513.130889 
L 371.238384 513.80189 
L 372.476642 514.026386 
L 373.714899 513.573276 
L 376.191413 511.885509 
L 377.429671 510.19399 
L 378.667928 506.766037 
L 381.144443 497.739056 
L 382.3827 494.775493 
L 383.620957 493.86671 
L 384.859214 495.24686 
L 387.335729 500.49662 
L 389.812243 504.668848 
L 391.050501 506.254415 
L 392.288758 506.144371 
L 393.527015 503.657897 
L 394.765272 499.133542 
L 396.00353 493.903186 
L 397.241787 489.974484 
L 398.480044 488.710846 
L 399.718302 489.611 
L 400.956559 490.906544 
L 402.194816 491.318998 
L 403.433073 490.855734 
L 404.671331 490.143999 
L 405.909588 489.724686 
L 407.147845 489.991811 
L 408.386102 490.962496 
L 409.62436 491.704272 
L 410.862617 491.007979 
L 412.100874 489.213916 
L 413.339132 487.918015 
L 414.577389 487.408801 
L 415.815646 486.093372 
L 417.053903 482.897719 
L 418.292161 478.868298 
L 419.530418 475.970751 
L 420.768675 475.018931 
L 422.006932 474.792651 
L 423.24519 473.000593 
L 424.483447 468.395293 
L 425.721704 462.524828 
L 426.959961 459.445466 
L 428.198219 462.079829 
L 429.436476 469.134048 
L 430.674733 477.171632 
L 431.912991 484.163115 
L 433.151248 489.832496 
L 434.389505 493.956535 
L 435.627762 495.868259 
L 436.86602 495.573132 
L 438.104277 494.201609 
L 439.342534 493.131903 
L 441.819049 492.375261 
L 443.057306 490.796235 
L 444.295563 487.343981 
L 445.53382 481.809048 
L 446.772078 475.033214 
L 448.010335 468.877013 
L 449.248592 465.296661 
L 450.48685 465.443498 
L 451.725107 468.826641 
L 454.201621 478.509917 
L 455.439879 482.817095 
L 456.678136 485.589216 
L 457.916393 485.679621 
L 459.15465 483.134684 
L 462.869422 471.263119 
L 464.107679 468.355821 
L 465.345937 466.82259 
L 466.584194 466.853459 
L 467.822451 468.228277 
L 469.060709 470.486552 
L 470.298966 472.402008 
L 471.537223 471.879353 
L 472.77548 467.613723 
L 475.251995 454.038543 
L 476.490252 450.618776 
L 477.728509 451.035735 
L 478.966767 453.070791 
L 480.205024 453.91792 
L 481.443281 452.794694 
L 483.919796 448.716807 
L 485.158053 447.717044 
L 486.39631 448.431915 
L 487.634568 450.731603 
L 488.872825 453.4365 
L 490.111082 455.090719 
L 491.349339 454.783702 
L 492.587597 452.686017 
L 493.825854 450.00836 
L 495.064111 448.405421 
L 496.302368 449.29145 
L 497.540626 453.134495 
L 500.01714 464.483178 
L 501.255397 467.013045 
L 502.493655 465.44928 
L 503.731912 460.831951 
L 506.208427 448.949485 
L 507.446684 443.728443 
L 508.684941 439.717566 
L 509.923198 437.541088 
L 511.161456 437.418186 
L 512.399713 438.170825 
L 513.63797 438.019279 
L 514.876227 436.434562 
L 516.114485 434.216485 
L 517.352742 432.363802 
L 518.590999 431.537125 
L 519.829257 431.767195 
L 521.067514 432.46519 
L 522.305771 432.935639 
L 523.544028 432.906616 
L 524.782286 432.671705 
L 526.020543 432.258979 
L 527.2588 430.818243 
L 528.497057 428.21857 
L 529.735315 426.31768 
L 530.973572 426.809741 
L 532.211829 428.943286 
L 533.450086 430.691597 
L 534.688344 431.026248 
L 535.926601 429.943303 
L 537.164858 427.210246 
L 538.403116 422.381559 
L 539.641373 415.58995 
L 540.87963 407.362941 
L 542.117887 397.97956 
L 545.832659 367.906122 
L 547.070916 360.455179 
L 548.309174 354.912342 
L 549.547431 351.343028 
L 550.785688 350.128158 
L 552.023945 351.113651 
L 553.262203 352.917321 
L 554.50046 353.988323 
L 555.738717 354.003725 
L 556.976975 353.236968 
L 558.215232 351.318663 
L 559.453489 347.898551 
L 561.930004 339.768024 
L 563.168261 336.450524 
L 565.644775 330.242297 
L 566.883033 326.110122 
L 568.12129 320.406723 
L 569.359547 312.546181 
L 571.836062 293.667158 
L 573.074319 286.364451 
L 574.312576 282.272302 
L 575.550834 281.529006 
L 576.789091 282.369599 
L 578.027348 281.998812 
L 579.265605 279.199974 
L 580.503863 275.052427 
L 581.74212 271.530781 
L 582.980377 269.88414 
L 585.456892 269.874579 
L 586.695149 268.108778 
L 587.933406 263.531618 
L 589.171663 256.572406 
L 591.648178 240.044432 
L 592.886435 233.249417 
L 594.124693 228.679373 
L 595.36295 226.059582 
L 597.839464 222.719714 
L 600.315979 219.096328 
L 601.554236 217.288784 
L 602.792493 215.259661 
L 604.030751 214.27378 
L 605.269008 216.000424 
L 606.507265 221.148304 
L 607.745523 229.312345 
L 612.698552 267.860027 
L 613.936809 275.468461 
L 615.175066 281.506975 
L 618.889838 296.210686 
L 620.128095 300.072178 
L 621.366352 301.203576 
L 622.60461 299.492771 
L 625.081124 293.34507 
L 626.319382 291.044722 
L 628.795896 287.743159 
L 630.034153 285.487878 
L 631.272411 284.070442 
L 632.510668 285.377326 
L 633.748925 289.057894 
L 634.987182 293.593299 
L 636.22544 298.719962 
L 637.463697 304.396266 
L 638.701954 309.514181 
L 639.940211 313.052793 
L 641.178469 315.15286 
L 642.416726 316.502422 
L 643.654983 316.892076 
L 644.893241 314.936476 
L 646.131498 309.281362 
L 647.369755 299.551929 
L 651.084527 260.323097 
L 652.322784 250.930774 
L 653.561041 244.356376 
L 656.037556 233.347404 
L 657.275813 226.354838 
L 659.752328 210.814191 
L 660.990585 204.001333 
L 662.228842 198.691312 
L 663.4671 195.59741 
L 664.705357 195.132325 
L 667.181871 198.076814 
L 668.420129 197.27176 
L 669.658386 193.005429 
L 670.896643 185.574852 
L 674.611415 156.92242 
L 675.849672 150.692285 
L 677.087929 147.56991 
L 680.802701 142.219288 
L 682.040959 141.177995 
L 683.279216 141.044451 
L 684.517473 140.076248 
L 685.75573 135.537119 
L 686.993988 126.979973 
L 688.232245 117.177583 
L 689.470502 108.913332 
L 690.708759 102.978552 
L 691.947017 99.309422 
L 693.185274 97.831634 
L 694.423531 98.231143 
L 695.661789 99.622408 
L 696.900046 100.533571 
L 698.138303 99.4213 
L 699.37656 95.35523 
L 700.614818 88.78067 
L 701.853075 81.477291 
L 703.091332 75.221904 
L 704.329589 71.119473 
L 705.567847 70.172724 
L 706.806104 72.920673 
L 709.282618 83.227804 
L 710.520876 85.989315 
L 711.759133 86.346096 
L 712.99739 85.861054 
L 714.235648 86.067363 
L 715.473905 87.77461 
L 716.712162 91.398514 
L 717.950419 96.876078 
L 720.426934 111.134734 
L 721.665191 118.049402 
L 722.903448 123.185695 
L 724.141706 126.250398 
L 725.379963 127.606806 
L 726.61822 126.714838 
L 727.856477 122.364621 
L 729.094735 114.570528 
L 730.332992 105.447664 
L 731.571249 98.208953 
L 732.809507 94.852242 
L 734.047764 95.115157 
L 735.286021 98.410476 
L 736.524278 105.472526 
L 737.762536 116.696255 
L 740.23905 143.295848 
L 741.477307 153.957512 
L 742.715565 161.430357 
L 743.953822 165.975467 
L 745.192079 167.952132 
L 746.430336 166.821659 
L 747.668594 162.132994 
L 748.906851 155.252791 
L 750.145108 149.697597 
L 751.383366 148.842794 
L 752.621623 152.569992 
L 753.85988 157.015261 
L 755.098137 157.953163 
L 756.336395 153.548007 
L 757.574652 144.293398 
L 760.051166 119.775262 
L 761.289424 109.454506 
L 762.527681 102.354037 
L 763.765938 98.335389 
L 765.004195 96.564803 
L 766.242453 96.576568 
L 767.48071 98.226763 
L 768.718967 101.037685 
L 771.195482 107.522877 
L 772.433739 108.691979 
L 773.671996 107.05445 
L 774.910254 105.030432 
L 776.148511 106.680816 
L 777.386768 113.046118 
L 778.625025 120.665674 
L 779.863283 124.790799 
L 781.10154 123.437956 
L 783.578054 113.280012 
L 784.816312 110.202184 
L 786.054569 110.291713 
L 787.292826 113.180512 
L 788.531084 117.038303 
L 789.769341 119.993881 
L 791.007598 121.635978 
L 792.245855 122.989035 
L 793.484113 125.281894 
L 794.72237 128.905533 
L 795.960627 134.109705 
L 797.198884 141.46027 
L 798.437142 150.219946 
L 799.675399 157.927244 
L 800.913656 162.848703 
L 802.151914 166.403083 
L 803.390171 172.576706 
L 804.628428 184.465576 
L 807.104943 219.40081 
L 808.3432 233.488659 
L 809.581457 241.184071 
L 810.819714 243.162193 
L 812.057972 241.945209 
L 813.296229 240.121422 
L 814.534486 239.704263 
L 815.772743 241.95427 
L 818.249258 250.19702 
L 819.487515 252.532956 
L 820.725773 254.281163 
L 823.202287 258.922092 
L 824.440544 260.220991 
L 825.678802 259.957322 
L 826.917059 257.225582 
L 828.155316 250.913976 
L 830.631831 231.473304 
L 831.870088 223.94901 
L 833.108345 220.059894 
L 834.346602 219.046331 
L 835.58486 219.738072 
L 836.823117 221.373655 
L 838.061374 223.230752 
L 840.537889 226.182007 
L 841.776146 227.59775 
L 843.014403 228.381443 
L 844.252661 227.689957 
L 845.490918 226.043867 
L 846.729175 225.897747 
L 847.967432 230.408813 
L 849.20569 241.108288 
L 851.682204 271.601466 
L 852.920461 283.022112 
L 854.158719 288.130299 
L 855.396976 287.237584 
L 856.635233 282.621945 
L 860.350005 264.994698 
L 861.588262 260.74951 
L 862.82652 258.090127 
L 865.303034 255.280058 
L 866.541291 252.70012 
L 869.017806 245.17635 
L 870.256063 242.971802 
L 871.49432 242.293706 
L 872.732578 241.973604 
L 873.970835 240.748507 
L 875.209092 237.6941 
L 876.44735 232.722982 
L 877.685607 227.069965 
L 878.923864 222.469594 
L 880.162121 219.49636 
L 881.400379 217.039554 
L 882.638636 213.687218 
L 883.876893 209.545453 
L 885.11515 206.602655 
L 886.353408 207.191804 
L 887.591665 211.656406 
L 890.06818 224.159856 
L 891.306437 231.130161 
L 892.544694 240.554457 
L 893.782951 253.642203 
L 897.497723 303.520139 
L 898.73598 309.085764 
L 899.974238 304.366621 
L 901.212495 291.470057 
L 903.689009 255.16299 
L 906.165524 218.238716 
L 907.403781 201.8054 
L 908.642039 188.139136 
L 909.880296 177.107063 
L 911.118553 167.889738 
L 912.35681 160.968118 
L 913.595068 158.277745 
L 914.833325 160.917324 
L 916.071582 167.179414 
L 917.309839 172.561182 
L 918.548097 171.608473 
L 919.786354 161.022481 
L 921.024611 142.446527 
L 922.262868 122.007945 
L 923.501126 106.284764 
L 924.739383 98.192879 
L 925.97764 95.764333 
L 927.215898 95.081465 
L 928.454155 94.237917 
L 932.168927 91.142625 
L 933.407184 90.565454 
L 935.883698 88.98526 
L 937.121956 88.880672 
L 938.360213 89.454225 
L 939.59847 89.510294 
L 940.836727 87.993367 
L 942.074985 85.112537 
L 943.313242 81.751443 
L 944.551499 77.624955 
L 945.789757 71.586126 
L 948.266271 56.971669 
L 949.504528 51.735603 
L 950.742786 48.688839 
L 951.981043 47.979282 
L 953.2193 49.341662 
L 955.695815 53.973325 
L 956.934072 56.149901 
L 958.172329 59.544194 
L 959.410586 65.459096 
L 961.887101 81.024502 
L 963.125358 87.565985 
L 964.363616 93.268207 
L 965.601873 97.988994 
L 966.84013 100.839219 
L 968.078387 102.147552 
L 969.316645 104.34385 
L 970.554902 110.164557 
L 971.793159 120.249887 
L 973.031416 132.531146 
L 974.269674 143.492154 
L 975.507931 150.361229 
L 976.746188 152.990191 
L 977.984446 153.301795 
L 979.222703 153.169537 
L 980.46096 154.380811 
L 981.699217 159.468115 
L 982.937475 169.405187 
L 984.175732 180.847763 
L 985.413989 188.519324 
L 986.652246 190.376594 
L 987.890504 188.947457 
L 989.128761 188.274498 
L 990.367018 190.830781 
L 991.605275 196.749437 
L 992.843533 204.277528 
L 994.08179 210.637166 
L 995.320047 213.213501 
L 996.558305 210.675109 
L 997.796562 203.489721 
L 999.034819 193.133742 
L 1001.511334 168.777392 
L 1002.749591 158.926997 
L 1003.987848 154.932234 
L 1005.226105 159.218014 
L 1006.464363 170.610487 
L 1008.940877 197.796254 
L 1010.179134 207.133974 
L 1011.417392 211.402615 
L 1012.655649 211.06042 
L 1013.893906 208.361967 
L 1015.132164 204.807757 
L 1016.370421 200.030525 
L 1017.608678 193.219315 
L 1020.085193 176.715789 
L 1021.32345 170.637844 
L 1022.561707 165.267099 
L 1023.799964 158.439493 
L 1025.038222 150.707859 
L 1026.276479 144.559319 
L 1027.514736 140.95743 
L 1028.752993 138.325286 
L 1029.991251 134.216918 
L 1031.229508 127.203367 
L 1034.94428 98.229856 
L 1036.182537 90.630145 
L 1037.420794 85.159506 
L 1038.659052 82.778759 
L 1039.897309 84.232129 
L 1041.135566 89.107453 
L 1046.088595 117.157179 
L 1047.326852 123.085715 
L 1048.56511 127.781487 
L 1049.803367 128.681487 
L 1051.041624 124.021949 
L 1052.279882 114.617929 
L 1055.994653 79.540542 
L 1057.232911 69.795119 
L 1058.471168 63.336056 
L 1059.709425 60.869953 
L 1060.947682 61.190471 
L 1062.18594 62.442342 
L 1063.424197 63.254129 
L 1064.662454 63.199279 
L 1065.900711 63.264334 
L 1067.138969 65.254536 
L 1068.377226 70.400386 
L 1069.615483 78.497121 
L 1070.853741 87.710205 
L 1072.091998 95.550621 
L 1073.330255 100.270178 
L 1074.568512 101.225487 
L 1075.80677 99.420941 
L 1077.045027 97.835742 
L 1078.283284 99.464805 
L 1079.521541 105.375465 
L 1080.759799 115.19687 
L 1081.998056 128.136231 
L 1085.712828 173.315832 
L 1086.951085 185.541827 
L 1088.189342 194.484182 
L 1089.4276 199.312072 
L 1090.665857 200.529322 
L 1091.904114 200.347464 
L 1093.142371 201.026176 
L 1094.380629 202.569879 
L 1095.618886 202.512167 
L 1096.857143 198.861166 
L 1098.0954 192.701373 
L 1099.333658 187.38969 
L 1100.571915 185.88035 
L 1101.810172 189.019976 
L 1103.04843 195.869253 
L 1106.763201 223.432113 
L 1108.001459 229.755629 
L 1109.239716 233.438162 
L 1110.477973 234.971202 
L 1111.71623 235.443847 
L 1112.954488 235.723736 
L 1114.192745 235.826728 
L 1115.431002 235.757736 
L 1116.669259 236.357706 
L 1117.907517 238.101038 
L 1119.145774 239.563228 
L 1120.384031 238.4484 
L 1121.622289 233.652773 
L 1124.098803 219.379643 
L 1125.33706 217.288746 
L 1126.575318 221.612723 
L 1127.813575 230.51859 
L 1129.051832 240.680282 
L 1130.290089 249.296909 
L 1131.528347 254.699814 
L 1132.766604 256.400461 
L 1134.004861 254.782363 
L 1135.243118 250.639758 
L 1136.481376 244.887261 
L 1140.196148 226.030809 
L 1141.434405 220.687753 
L 1142.672662 215.887791 
L 1143.910919 212.01077 
L 1145.149177 209.77936 
L 1146.387434 209.569934 
L 1147.625691 210.66929 
L 1148.863948 211.498071 
L 1150.102206 211.199909 
L 1151.340463 210.165199 
L 1153.816977 207.647034 
L 1155.055235 206.067197 
L 1156.293492 203.511724 
L 1157.531749 199.687665 
L 1158.770007 195.481874 
L 1160.008264 193.339754 
L 1161.246521 195.969524 
L 1162.484778 203.425382 
L 1163.723036 212.001569 
L 1164.961293 216.996627 
L 1166.19955 216.535599 
L 1167.437807 212.314341 
L 1168.676065 207.098697 
L 1169.914322 202.506817 
L 1171.152579 199.348741 
L 1172.390837 198.356337 
L 1173.629094 199.422832 
L 1174.867351 201.645128 
L 1176.105608 204.774633 
L 1177.343866 209.26767 
L 1178.582123 214.765759 
L 1179.82038 219.669421 
L 1181.058637 222.40857 
L 1182.296895 222.539979 
L 1183.535152 220.290995 
L 1184.773409 215.686843 
L 1187.249924 202.89147 
L 1188.488181 198.84497 
L 1189.726438 197.507106 
L 1190.964696 197.516488 
L 1192.202953 196.950619 
L 1193.44121 194.176993 
L 1194.679467 188.913291 
L 1195.917725 183.11279 
L 1197.155982 180.32971 
L 1198.394239 183.539493 
L 1199.632496 192.904586 
L 1202.109011 217.182261 
L 1203.347268 226.340986 
L 1204.585525 233.249905 
L 1205.823783 238.009773 
L 1207.06204 239.768642 
L 1208.300297 238.380937 
L 1210.776812 232.008004 
L 1212.015069 229.750691 
L 1213.253326 228.910445 
L 1214.491584 229.790403 
L 1215.729841 231.685236 
L 1216.968098 232.537765 
L 1218.206355 230.381403 
L 1219.444613 224.964594 
L 1221.921127 210.722029 
L 1223.159384 204.989792 
L 1224.397642 201.57885 
L 1225.635899 201.027486 
L 1226.874156 202.439925 
L 1228.112414 204.544213 
L 1229.350671 207.665702 
L 1230.588928 212.892122 
L 1233.065443 226.085901 
L 1234.3037 231.163349 
L 1235.541957 235.395582 
L 1236.780214 238.681012 
L 1238.018472 239.415756 
L 1239.256729 236.59178 
L 1241.733243 226.833726 
L 1242.971501 224.886951 
L 1244.209758 226.903406 
L 1246.686273 236.435323 
L 1247.92453 238.779258 
L 1249.162787 238.570017 
L 1251.639302 235.607471 
L 1252.877559 234.968557 
L 1254.115816 235.85021 
L 1255.354073 237.695934 
L 1256.592331 238.118608 
L 1257.830588 235.300785 
L 1259.068845 229.989379 
L 1260.307103 224.134924 
L 1261.54536 219.021652 
L 1262.783617 215.535508 
L 1264.021874 215.125894 
L 1265.260132 218.783817 
L 1266.498389 225.004484 
L 1267.736646 230.419643 
L 1268.974903 232.769569 
L 1270.213161 232.489697 
L 1271.451418 231.80507 
L 1272.689675 232.901728 
L 1273.927932 236.851787 
L 1276.404447 250.32428 
L 1277.642704 255.513236 
L 1278.880962 258.423774 
L 1280.119219 259.994642 
L 1281.357476 260.601486 
L 1282.595733 260.112539 
L 1283.833991 258.491961 
L 1285.072248 255.37726 
L 1286.310505 250.906661 
L 1287.548762 247.424107 
L 1288.78702 248.216227 
L 1290.025277 254.326322 
L 1292.501791 273.900537 
L 1293.740049 281.881544 
L 1294.978306 286.216474 
L 1296.216563 286.575559 
L 1297.454821 283.927556 
L 1298.693078 279.660221 
L 1299.931335 274.579388 
L 1301.169592 269.026222 
L 1302.40785 264.07087 
L 1303.646107 261.568566 
L 1304.884364 262.384565 
L 1306.122621 265.688565 
L 1307.360879 270.268027 
L 1308.599136 275.580036 
L 1309.837393 281.749354 
L 1312.313908 296.899844 
L 1313.552165 302.995677 
L 1314.790422 305.350262 
L 1316.02868 303.996485 
L 1317.266937 300.101501 
L 1318.505194 294.088693 
L 1319.743451 286.070821 
L 1320.981709 277.231977 
L 1322.219966 269.791319 
L 1323.458223 266.116587 
L 1324.69648 267.647274 
L 1325.934738 274.211146 
L 1327.172995 283.599257 
L 1328.411252 291.820348 
L 1329.649509 295.879767 
L 1330.887767 296.302804 
L 1332.126024 295.365475 
L 1333.364281 293.933039 
L 1334.602539 291.091522 
L 1335.840796 285.826765 
L 1339.555568 263.557979 
L 1340.793825 257.686986 
L 1342.032082 254.17222 
L 1343.270339 254.498484 
L 1344.508597 258.90983 
L 1345.746854 265.665014 
L 1348.223368 280.358158 
L 1349.461626 286.376209 
L 1350.699883 289.50481 
L 1351.93814 289.762289 
L 1353.176398 288.657916 
L 1354.414655 287.814616 
L 1355.652912 288.544645 
L 1356.891169 291.290467 
L 1358.129427 294.732317 
L 1359.367684 296.427736 
L 1360.605941 294.864124 
L 1363.082456 286.775251 
L 1364.320713 285.024546 
L 1365.55897 286.202656 
L 1369.273742 294.449475 
L 1370.511999 296.657579 
L 1371.750257 298.357027 
L 1372.988514 298.856665 
L 1374.226771 297.388054 
L 1375.465028 293.965771 
L 1376.703286 290.074412 
L 1377.941543 287.690845 
L 1379.1798 287.695685 
L 1380.418057 289.868718 
L 1382.894572 296.817385 
L 1384.132829 298.479382 
L 1385.371087 298.073559 
L 1387.847601 295.035562 
L 1389.085858 294.025517 
L 1390.324116 292.602391 
L 1391.562373 290.374554 
L 1392.80063 288.602153 
L 1394.038887 288.802891 
L 1395.277145 291.126124 
L 1396.515402 294.095247 
L 1397.753659 295.393011 
L 1398.991916 293.616735 
L 1401.468431 285.395348 
L 1402.706688 283.02365 
L 1403.944946 282.80024 
L 1405.183203 283.880112 
L 1406.42146 285.409875 
L 1407.659717 287.525128 
L 1408.897975 290.69671 
L 1410.136232 294.293891 
L 1411.374489 296.805781 
L 1412.612746 297.303352 
L 1413.851004 295.921235 
L 1415.089261 293.092003 
L 1416.327518 288.767523 
L 1417.565775 282.655015 
L 1420.04229 267.847636 
L 1421.280547 261.64403 
L 1422.518805 257.565952 
L 1423.757062 256.31773 
L 1424.995319 257.808992 
L 1427.471834 263.662167 
L 1428.710091 265.897392 
L 1429.948348 267.648114 
L 1431.186605 268.854779 
L 1433.66312 270.132166 
L 1436.139634 271.172188 
L 1437.377892 271.99321 
L 1439.854406 274.891847 
L 1441.092664 274.689378 
L 1442.330921 272.653288 
L 1443.569178 270.266542 
L 1444.807435 269.056984 
L 1446.045693 270.089686 
L 1447.28395 274.164279 
L 1448.522207 280.464146 
L 1449.760464 285.736246 
L 1450.998722 285.893572 
L 1452.236979 278.974801 
L 1454.713494 256.306845 
L 1455.951751 250.831624 
L 1457.190008 252.838402 
L 1458.428265 261.388871 
L 1459.666523 273.025201 
L 1460.90478 283.361628 
L 1462.143037 289.58017 
L 1463.381294 291.387641 
L 1464.619552 290.374275 
L 1465.857809 289.097767 
L 1467.096066 289.661403 
L 1468.334323 291.89112 
L 1469.572581 293.203138 
L 1470.810838 290.937325 
L 1472.049095 284.869997 
L 1473.287353 277.710184 
L 1474.52561 273.037586 
L 1475.763867 272.447962 
L 1477.002124 274.765049 
L 1478.240382 277.394188 
L 1479.478639 278.441774 
L 1480.716896 278.301098 
L 1481.955153 279.022723 
L 1483.193411 281.853492 
L 1484.431668 285.822545 
L 1485.669925 288.787113 
L 1486.908182 288.949136 
L 1488.14644 285.818246 
L 1490.622954 274.935962 
L 1493.099469 264.166418 
L 1494.337726 257.436548 
L 1496.814241 240.560995 
L 1498.052498 235.644735 
L 1499.290755 236.239077 
L 1500.529012 242.403699 
L 1501.76727 253.354286 
L 1503.005527 268.011685 
L 1504.243784 284.133434 
L 1505.482041 298.319744 
L 1506.720299 307.863644 
L 1507.958556 312.197443 
L 1509.196813 312.334529 
L 1510.435071 309.696532 
L 1511.673328 305.895861 
L 1512.911585 302.825613 
L 1514.149842 301.816476 
L 1515.3881 302.278763 
L 1516.626357 301.972335 
L 1517.864614 299.407385 
L 1519.102871 295.676738 
L 1520.341129 293.56006 
L 1521.579386 294.792449 
L 1522.817643 298.566953 
L 1524.0559 303.163598 
L 1525.294158 308.221709 
L 1527.770672 320.298345 
L 1529.00893 324.103325 
L 1530.247187 324.515609 
L 1531.485444 323.083191 
L 1532.723701 322.353999 
L 1533.961959 323.536476 
L 1535.200216 325.484937 
L 1536.438473 325.620144 
L 1537.67673 322.396891 
L 1538.914988 317.070252 
L 1540.153245 312.983725 
L 1541.391502 312.613063 
L 1543.868017 318.096785 
L 1545.106274 319.119482 
L 1546.344531 317.705624 
L 1547.582789 314.061387 
L 1550.059303 304.246956 
L 1551.29756 300.138071 
L 1555.012332 289.450342 
L 1556.250589 285.471895 
L 1557.488847 280.991735 
L 1558.727104 275.455715 
L 1561.203619 262.21714 
L 1562.441876 256.471967 
L 1563.680133 252.726565 
L 1564.91839 251.525336 
L 1566.156648 252.539299 
L 1567.394905 254.769068 
L 1568.633162 256.571466 
L 1569.871419 256.241084 
L 1571.109677 253.010186 
L 1572.347934 247.053073 
L 1573.586191 239.617752 
L 1574.824448 233.193309 
L 1576.062706 230.039998 
L 1577.300963 230.822363 
L 1578.53922 234.857957 
L 1579.777478 240.864127 
L 1583.492249 261.366638 
L 1584.730507 270.192821 
L 1587.207021 293.101522 
L 1588.445278 302.475514 
L 1589.683536 307.558911 
L 1590.921793 307.986164 
L 1592.16005 304.815847 
L 1593.398307 299.781024 
L 1594.636565 293.822915 
L 1598.351337 272.68566 
L 1599.589594 268.647167 
L 1600.827851 267.840539 
L 1602.066108 269.222101 
L 1603.304366 270.332231 
L 1604.542623 268.449536 
L 1605.78088 262.34544 
L 1608.257395 244.446931 
L 1609.495652 237.819722 
L 1610.733909 234.426902 
L 1611.972166 234.166699 
L 1613.210424 237.032716 
L 1614.448681 242.850184 
L 1615.686938 249.810352 
L 1616.925196 254.818185 
L 1618.163453 255.069 
L 1619.40171 248.509288 
L 1620.639967 234.843725 
L 1621.878225 217.542547 
L 1623.116482 203.067703 
L 1624.354739 196.767639 
L 1625.592996 200.037451 
L 1626.831254 211.280448 
L 1628.069511 227.729589 
L 1629.307768 245.873659 
L 1630.546026 262.362538 
L 1631.784283 275.219513 
L 1633.02254 283.444597 
L 1634.260797 286.769451 
L 1635.499055 286.631459 
L 1636.737312 285.559804 
L 1637.975569 284.738569 
L 1639.213826 283.676515 
L 1641.690341 280.711042 
L 1641.690341 280.711042 
" style="fill:none;stroke:#008000;stroke-linecap:square;stroke-width:1.5;"/>
   </g>
   <g id="patch_3">
    <path d="M 43.78125 586.86358 
L 43.78125 22.318125 
" style="fill:none;stroke:#000000;stroke-linecap:square;stroke-linejoin:miter;stroke-width:0.8;"/>
   </g>
   <g id="patch_4">
    <path d="M 1717.78125 586.86358 
L 1717.78125 22.318125 
" style="fill:none;stroke:#000000;stroke-linecap:square;stroke-linejoin:miter;stroke-width:0.8;"/>
   </g>
   <g id="patch_5">
    <path d="M 43.78125 586.86358 
L 1717.78125 586.86358 
" style="fill:none;stroke:#000000;stroke-linecap:square;stroke-linejoin:miter;stroke-width:0.8;"/>
   </g>
   <g id="patch_6">
    <path d="M 43.78125 22.318125 
L 1717.78125 22.318125 
" style="fill:none;stroke:#000000;stroke-linecap:square;stroke-linejoin:miter;stroke-width:0.8;"/>
   </g>
   <g id="text_16">
    <!-- before binarisation -->
    <g transform="translate(824.1825 16.318125)scale(0.12 -0.12)">
     <defs>
      <path d="M 3116 1747 
Q 3116 2381 2855 2742 
Q 2594 3103 2138 3103 
Q 1681 3103 1420 2742 
Q 1159 2381 1159 1747 
Q 1159 1113 1420 752 
Q 1681 391 2138 391 
Q 2594 391 2855 752 
Q 3116 1113 3116 1747 
z
M 1159 2969 
Q 1341 3281 1617 3432 
Q 1894 3584 2278 3584 
Q 2916 3584 3314 3078 
Q 3713 2572 3713 1747 
Q 3713 922 3314 415 
Q 2916 -91 2278 -91 
Q 1894 -91 1617 61 
Q 1341 213 1159 525 
L 1159 0 
L 581 0 
L 581 4863 
L 1159 4863 
L 1159 2969 
z
" id="DejaVuSans-62" transform="scale(0.015625)"/>
      <path d="M 1959 3097 
Q 1497 3097 1228 2736 
Q 959 2375 959 1747 
Q 959 1119 1226 758 
Q 1494 397 1959 397 
Q 2419 397 2687 759 
Q 2956 1122 2956 1747 
Q 2956 2369 2687 2733 
Q 2419 3097 1959 3097 
z
M 1959 3584 
Q 2709 3584 3137 3096 
Q 3566 2609 3566 1747 
Q 3566 888 3137 398 
Q 2709 -91 1959 -91 
Q 1206 -91 779 398 
Q 353 888 353 1747 
Q 353 2609 779 3096 
Q 1206 3584 1959 3584 
z
" id="DejaVuSans-6f" transform="scale(0.015625)"/>
      <path id="DejaVuSans-20" transform="scale(0.015625)"/>
      <path d="M 603 3500 
L 1178 3500 
L 1178 0 
L 603 0 
L 603 3500 
z
M 603 4863 
L 1178 4863 
L 1178 4134 
L 603 4134 
L 603 4863 
z
" id="DejaVuSans-69" transform="scale(0.015625)"/>
      <path d="M 3513 2113 
L 3513 0 
L 2938 0 
L 2938 2094 
Q 2938 2591 2744 2837 
Q 2550 3084 2163 3084 
Q 1697 3084 1428 2787 
Q 1159 2491 1159 1978 
L 1159 0 
L 581 0 
L 581 3500 
L 1159 3500 
L 1159 2956 
Q 1366 3272 1645 3428 
Q 1925 3584 2291 3584 
Q 2894 3584 3203 3211 
Q 3513 2838 3513 2113 
z
" id="DejaVuSans-6e" transform="scale(0.015625)"/>
      <path d="M 2834 3397 
L 2834 2853 
Q 2591 2978 2328 3040 
Q 2066 3103 1784 3103 
Q 1356 3103 1142 2972 
Q 928 2841 928 2578 
Q 928 2378 1081 2264 
Q 1234 2150 1697 2047 
L 1894 2003 
Q 2506 1872 2764 1633 
Q 3022 1394 3022 966 
Q 3022 478 2636 193 
Q 2250 -91 1575 -91 
Q 1294 -91 989 -36 
Q 684 19 347 128 
L 347 722 
Q 666 556 975 473 
Q 1284 391 1588 391 
Q 1994 391 2212 530 
Q 2431 669 2431 922 
Q 2431 1156 2273 1281 
Q 2116 1406 1581 1522 
L 1381 1569 
Q 847 1681 609 1914 
Q 372 2147 372 2553 
Q 372 3047 722 3315 
Q 1072 3584 1716 3584 
Q 2034 3584 2315 3537 
Q 2597 3491 2834 3397 
z
" id="DejaVuSans-73" transform="scale(0.015625)"/>
      <path d="M 1172 4494 
L 1172 3500 
L 2356 3500 
L 2356 3053 
L 1172 3053 
L 1172 1153 
Q 1172 725 1289 603 
Q 1406 481 1766 481 
L 2356 481 
L 2356 0 
L 1766 0 
Q 1100 0 847 248 
Q 594 497 594 1153 
L 594 3053 
L 172 3053 
L 172 3500 
L 594 3500 
L 594 4494 
L 1172 4494 
z
" id="DejaVuSans-74" transform="scale(0.015625)"/>
     </defs>
     <use xlink:href="#DejaVuSans-62"/>
     <use x="63.476562" xlink:href="#DejaVuSans-65"/>
     <use x="125" xlink:href="#DejaVuSans-66"/>
     <use x="160.205078" xlink:href="#DejaVuSans-6f"/>
     <use x="221.386719" xlink:href="#DejaVuSans-72"/>
     <use x="260.25" xlink:href="#DejaVuSans-65"/>
     <use x="321.773438" xlink:href="#DejaVuSans-20"/>
     <use x="353.560547" xlink:href="#DejaVuSans-62"/>
     <use x="417.037109" xlink:href="#DejaVuSans-69"/>
     <use x="444.820312" xlink:href="#DejaVuSans-6e"/>
     <use x="508.199219" xlink:href="#DejaVuSans-61"/>
     <use x="569.478516" xlink:href="#DejaVuSans-72"/>
     <use x="610.591797" xlink:href="#DejaVuSans-69"/>
     <use x="638.375" xlink:href="#DejaVuSans-73"/>
     <use x="690.474609" xlink:href="#DejaVuSans-61"/>
     <use x="751.753906" xlink:href="#DejaVuSans-74"/>
     <use x="790.962891" xlink:href="#DejaVuSans-69"/>
     <use x="818.746094" xlink:href="#DejaVuSans-6f"/>
     <use x="879.927734" xlink:href="#DejaVuSans-6e"/>
    </g>
   </g>
  </g>
  <g id="axes_2">
   <g id="patch_7">
    <path d="M 43.78125 1264.318125 
L 1717.78125 1264.318125 
L 1717.78125 699.77267 
L 43.78125 699.77267 
z
" style="fill:#ffffff;"/>
   </g>
   <g id="matplotlib.axis_3">
    <g id="xtick_8">
     <g id="line2d_15">
      <g>
       <use style="stroke:#000000;stroke-width:0.8;" x="119.872159" xlink:href="#m8aa48873bd" y="1264.318125"/>
      </g>
     </g>
     <g id="text_17">
      <!-- 0 -->
      <g transform="translate(116.690909 1278.916563)scale(0.1 -0.1)">
       <use xlink:href="#DejaVuSans-30"/>
      </g>
     </g>
    </g>
    <g id="xtick_9">
     <g id="line2d_16">
      <g>
       <use style="stroke:#000000;stroke-width:0.8;" x="367.523613" xlink:href="#m8aa48873bd" y="1264.318125"/>
      </g>
     </g>
     <g id="text_18">
      <!-- 200 -->
      <g transform="translate(357.979863 1278.916563)scale(0.1 -0.1)">
       <use xlink:href="#DejaVuSans-32"/>
       <use x="63.623047" xlink:href="#DejaVuSans-30"/>
       <use x="127.246094" xlink:href="#DejaVuSans-30"/>
      </g>
     </g>
    </g>
    <g id="xtick_10">
     <g id="line2d_17">
      <g>
       <use style="stroke:#000000;stroke-width:0.8;" x="615.175066" xlink:href="#m8aa48873bd" y="1264.318125"/>
      </g>
     </g>
     <g id="text_19">
      <!-- 400 -->
      <g transform="translate(605.631316 1278.916563)scale(0.1 -0.1)">
       <use xlink:href="#DejaVuSans-34"/>
       <use x="63.623047" xlink:href="#DejaVuSans-30"/>
       <use x="127.246094" xlink:href="#DejaVuSans-30"/>
      </g>
     </g>
    </g>
    <g id="xtick_11">
     <g id="line2d_18">
      <g>
       <use style="stroke:#000000;stroke-width:0.8;" x="862.82652" xlink:href="#m8aa48873bd" y="1264.318125"/>
      </g>
     </g>
     <g id="text_20">
      <!-- 600 -->
      <g transform="translate(853.28277 1278.916563)scale(0.1 -0.1)">
       <use xlink:href="#DejaVuSans-36"/>
       <use x="63.623047" xlink:href="#DejaVuSans-30"/>
       <use x="127.246094" xlink:href="#DejaVuSans-30"/>
      </g>
     </g>
    </g>
    <g id="xtick_12">
     <g id="line2d_19">
      <g>
       <use style="stroke:#000000;stroke-width:0.8;" x="1110.477973" xlink:href="#m8aa48873bd" y="1264.318125"/>
      </g>
     </g>
     <g id="text_21">
      <!-- 800 -->
      <g transform="translate(1100.934223 1278.916563)scale(0.1 -0.1)">
       <use xlink:href="#DejaVuSans-38"/>
       <use x="63.623047" xlink:href="#DejaVuSans-30"/>
       <use x="127.246094" xlink:href="#DejaVuSans-30"/>
      </g>
     </g>
    </g>
    <g id="xtick_13">
     <g id="line2d_20">
      <g>
       <use style="stroke:#000000;stroke-width:0.8;" x="1358.129427" xlink:href="#m8aa48873bd" y="1264.318125"/>
      </g>
     </g>
     <g id="text_22">
      <!-- 1000 -->
      <g transform="translate(1345.404427 1278.916563)scale(0.1 -0.1)">
       <use xlink:href="#DejaVuSans-31"/>
       <use x="63.623047" xlink:href="#DejaVuSans-30"/>
       <use x="127.246094" xlink:href="#DejaVuSans-30"/>
       <use x="190.869141" xlink:href="#DejaVuSans-30"/>
      </g>
     </g>
    </g>
    <g id="xtick_14">
     <g id="line2d_21">
      <g>
       <use style="stroke:#000000;stroke-width:0.8;" x="1605.78088" xlink:href="#m8aa48873bd" y="1264.318125"/>
      </g>
     </g>
     <g id="text_23">
      <!-- 1200 -->
      <g transform="translate(1593.05588 1278.916563)scale(0.1 -0.1)">
       <use xlink:href="#DejaVuSans-31"/>
       <use x="63.623047" xlink:href="#DejaVuSans-32"/>
       <use x="127.246094" xlink:href="#DejaVuSans-30"/>
       <use x="190.869141" xlink:href="#DejaVuSans-30"/>
      </g>
     </g>
    </g>
    <g id="text_24">
     <!-- frame -->
     <g transform="translate(865.954687 1292.594688)scale(0.1 -0.1)">
      <use xlink:href="#DejaVuSans-66"/>
      <use x="35.205078" xlink:href="#DejaVuSans-72"/>
      <use x="76.318359" xlink:href="#DejaVuSans-61"/>
      <use x="137.597656" xlink:href="#DejaVuSans-6d"/>
      <use x="235.009766" xlink:href="#DejaVuSans-65"/>
     </g>
    </g>
   </g>
   <g id="matplotlib.axis_4">
    <g id="ytick_7">
     <g id="line2d_22">
      <g>
       <use style="stroke:#000000;stroke-width:0.8;" x="43.78125" xlink:href="#mc707cde16f" y="1238.656968"/>
      </g>
     </g>
     <g id="text_25">
      <!-- 0.0 -->
      <g transform="translate(20.878125 1242.456187)scale(0.1 -0.1)">
       <use xlink:href="#DejaVuSans-30"/>
       <use x="63.623047" xlink:href="#DejaVuSans-2e"/>
       <use x="95.410156" xlink:href="#DejaVuSans-30"/>
      </g>
     </g>
    </g>
    <g id="ytick_8">
     <g id="line2d_23">
      <g>
       <use style="stroke:#000000;stroke-width:0.8;" x="43.78125" xlink:href="#mc707cde16f" y="1136.01234"/>
      </g>
     </g>
     <g id="text_26">
      <!-- 0.2 -->
      <g transform="translate(20.878125 1139.811559)scale(0.1 -0.1)">
       <use xlink:href="#DejaVuSans-30"/>
       <use x="63.623047" xlink:href="#DejaVuSans-2e"/>
       <use x="95.410156" xlink:href="#DejaVuSans-32"/>
      </g>
     </g>
    </g>
    <g id="ytick_9">
     <g id="line2d_24">
      <g>
       <use style="stroke:#000000;stroke-width:0.8;" x="43.78125" xlink:href="#mc707cde16f" y="1033.367712"/>
      </g>
     </g>
     <g id="text_27">
      <!-- 0.4 -->
      <g transform="translate(20.878125 1037.166931)scale(0.1 -0.1)">
       <use xlink:href="#DejaVuSans-30"/>
       <use x="63.623047" xlink:href="#DejaVuSans-2e"/>
       <use x="95.410156" xlink:href="#DejaVuSans-34"/>
      </g>
     </g>
    </g>
    <g id="ytick_10">
     <g id="line2d_25">
      <g>
       <use style="stroke:#000000;stroke-width:0.8;" x="43.78125" xlink:href="#mc707cde16f" y="930.723084"/>
      </g>
     </g>
     <g id="text_28">
      <!-- 0.6 -->
      <g transform="translate(20.878125 934.522302)scale(0.1 -0.1)">
       <use xlink:href="#DejaVuSans-30"/>
       <use x="63.623047" xlink:href="#DejaVuSans-2e"/>
       <use x="95.410156" xlink:href="#DejaVuSans-36"/>
      </g>
     </g>
    </g>
    <g id="ytick_11">
     <g id="line2d_26">
      <g>
       <use style="stroke:#000000;stroke-width:0.8;" x="43.78125" xlink:href="#mc707cde16f" y="828.078456"/>
      </g>
     </g>
     <g id="text_29">
      <!-- 0.8 -->
      <g transform="translate(20.878125 831.877674)scale(0.1 -0.1)">
       <use xlink:href="#DejaVuSans-30"/>
       <use x="63.623047" xlink:href="#DejaVuSans-2e"/>
       <use x="95.410156" xlink:href="#DejaVuSans-38"/>
      </g>
     </g>
    </g>
    <g id="ytick_12">
     <g id="line2d_27">
      <g>
       <use style="stroke:#000000;stroke-width:0.8;" x="43.78125" xlink:href="#mc707cde16f" y="725.433827"/>
      </g>
     </g>
     <g id="text_30">
      <!-- 1.0 -->
      <g transform="translate(20.878125 729.233046)scale(0.1 -0.1)">
       <use xlink:href="#DejaVuSans-31"/>
       <use x="63.623047" xlink:href="#DejaVuSans-2e"/>
       <use x="95.410156" xlink:href="#DejaVuSans-30"/>
      </g>
     </g>
    </g>
    <g id="text_31">
     <!-- GCaMP -->
     <g transform="translate(14.798437 999.803991)rotate(-90)scale(0.1 -0.1)">
      <use xlink:href="#DejaVuSans-47"/>
      <use x="77.490234" xlink:href="#DejaVuSans-43"/>
      <use x="147.314453" xlink:href="#DejaVuSans-61"/>
      <use x="208.59375" xlink:href="#DejaVuSans-4d"/>
      <use x="294.873047" xlink:href="#DejaVuSans-50"/>
     </g>
    </g>
   </g>
   <g id="line2d_28">
    <path clip-path="url(#p23383b254f)" d="M 119.872159 1238.656968 
L 673.373158 1238.656968 
L 674.611415 725.433827 
L 741.477307 725.433827 
L 742.715565 1238.656968 
L 747.668594 1238.656968 
L 748.906851 725.433827 
L 753.85988 725.433827 
L 755.098137 1238.656968 
L 756.336395 725.433827 
L 798.437142 725.433827 
L 799.675399 1238.656968 
L 919.786354 1238.656968 
L 921.024611 725.433827 
L 980.46096 725.433827 
L 981.699217 1238.656968 
L 1002.749591 1238.656968 
L 1003.987848 725.433827 
L 1005.226105 1238.656968 
L 1023.799964 1238.656968 
L 1025.038222 725.433827 
L 1083.236313 725.433827 
L 1084.474571 1238.656968 
L 1641.690341 1238.656968 
L 1641.690341 1238.656968 
" style="fill:none;stroke:#008000;stroke-linecap:square;stroke-width:1.5;"/>
   </g>
   <g id="patch_8">
    <path d="M 43.78125 1264.318125 
L 43.78125 699.77267 
" style="fill:none;stroke:#000000;stroke-linecap:square;stroke-linejoin:miter;stroke-width:0.8;"/>
   </g>
   <g id="patch_9">
    <path d="M 1717.78125 1264.318125 
L 1717.78125 699.77267 
" style="fill:none;stroke:#000000;stroke-linecap:square;stroke-linejoin:miter;stroke-width:0.8;"/>
   </g>
   <g id="patch_10">
    <path d="M 43.78125 1264.318125 
L 1717.78125 1264.318125 
" style="fill:none;stroke:#000000;stroke-linecap:square;stroke-linejoin:miter;stroke-width:0.8;"/>
   </g>
   <g id="patch_11">
    <path d="M 43.78125 699.77267 
L 1717.78125 699.77267 
" style="fill:none;stroke:#000000;stroke-linecap:square;stroke-linejoin:miter;stroke-width:0.8;"/>
   </g>
   <g id="text_32">
    <!-- before binarisation -->
    <g transform="translate(824.1825 693.77267)scale(0.12 -0.12)">
     <use xlink:href="#DejaVuSans-62"/>
     <use x="63.476562" xlink:href="#DejaVuSans-65"/>
     <use x="125" xlink:href="#DejaVuSans-66"/>
     <use x="160.205078" xlink:href="#DejaVuSans-6f"/>
     <use x="221.386719" xlink:href="#DejaVuSans-72"/>
     <use x="260.25" xlink:href="#DejaVuSans-65"/>
     <use x="321.773438" xlink:href="#DejaVuSans-20"/>
     <use x="353.560547" xlink:href="#DejaVuSans-62"/>
     <use x="417.037109" xlink:href="#DejaVuSans-69"/>
     <use x="444.820312" xlink:href="#DejaVuSans-6e"/>
     <use x="508.199219" xlink:href="#DejaVuSans-61"/>
     <use x="569.478516" xlink:href="#DejaVuSans-72"/>
     <use x="610.591797" xlink:href="#DejaVuSans-69"/>
     <use x="638.375" xlink:href="#DejaVuSans-73"/>
     <use x="690.474609" xlink:href="#DejaVuSans-61"/>
     <use x="751.753906" xlink:href="#DejaVuSans-74"/>
     <use x="790.962891" xlink:href="#DejaVuSans-69"/>
     <use x="818.746094" xlink:href="#DejaVuSans-6f"/>
     <use x="879.927734" xlink:href="#DejaVuSans-6e"/>
    </g>
   </g>
  </g>
 </g>
 <defs>
  <clipPath id="pf2426556e1">
   <rect height="564.545455" width="1674" x="43.78125" y="22.318125"/>
  </clipPath>
  <clipPath id="p23383b254f">
   <rect height="564.545455" width="1674" x="43.78125" y="699.77267"/>
  </clipPath>
 </defs>
</svg>
