<?xml version="1.0" encoding="utf-8" standalone="no"?>
<!DOCTYPE svg PUBLIC "-//W3C//DTD SVG 1.1//EN"
  "http://www.w3.org/Graphics/SVG/1.1/DTD/svg11.dtd">
<svg height="1301.874375pt" version="1.1" viewBox="0 0 1724.98125 1301.874375" width="1724.98125pt" xmlns="http://www.w3.org/2000/svg" xmlns:xlink="http://www.w3.org/1999/xlink">
 <metadata>
  <rdf:RDF xmlns:cc="http://creativecommons.org/ns#" xmlns:dc="http://purl.org/dc/elements/1.1/" xmlns:rdf="http://www.w3.org/1999/02/22-rdf-syntax-ns#">
   <cc:Work>
    <dc:type rdf:resource="http://purl.org/dc/dcmitype/StillImage"/>
    <dc:date>2022-07-24T15:54:44.658341</dc:date>
    <dc:format>image/svg+xml</dc:format>
    <dc:creator>
     <cc:Agent>
      <dc:title>Matplotlib v3.4.2, https://matplotlib.org/</dc:title>
     </cc:Agent>
    </dc:creator>
   </cc:Work>
  </rdf:RDF>
 </metadata>
 <defs>
  <style type="text/css">*{stroke-linecap:butt;stroke-linejoin:round;}</style>
 </defs>
 <g id="figure_1">
  <g id="patch_1">
   <path d="M 0 1301.874375 
L 1724.98125 1301.874375 
L 1724.98125 0 
L 0 0 
z
" style="fill:#ffffff;"/>
  </g>
  <g id="axes_1">
   <g id="patch_2">
    <path d="M 43.78125 586.86358 
L 1717.78125 586.86358 
L 1717.78125 22.318125 
L 43.78125 22.318125 
z
" style="fill:#ffffff;"/>
   </g>
   <g id="matplotlib.axis_1">
    <g id="xtick_1">
     <g id="line2d_1">
      <defs>
       <path d="M 0 0 
L 0 3.5 
" id="m4d45949b97" style="stroke:#000000;stroke-width:0.8;"/>
      </defs>
      <g>
       <use style="stroke:#000000;stroke-width:0.8;" x="119.872159" xlink:href="#m4d45949b97" y="586.86358"/>
      </g>
     </g>
     <g id="text_1">
      <!-- 0 -->
      <g transform="translate(116.690909 601.462017)scale(0.1 -0.1)">
       <defs>
        <path d="M 2034 4250 
Q 1547 4250 1301 3770 
Q 1056 3291 1056 2328 
Q 1056 1369 1301 889 
Q 1547 409 2034 409 
Q 2525 409 2770 889 
Q 3016 1369 3016 2328 
Q 3016 3291 2770 3770 
Q 2525 4250 2034 4250 
z
M 2034 4750 
Q 2819 4750 3233 4129 
Q 3647 3509 3647 2328 
Q 3647 1150 3233 529 
Q 2819 -91 2034 -91 
Q 1250 -91 836 529 
Q 422 1150 422 2328 
Q 422 3509 836 4129 
Q 1250 4750 2034 4750 
z
" id="DejaVuSans-30" transform="scale(0.015625)"/>
       </defs>
       <use xlink:href="#DejaVuSans-30"/>
      </g>
     </g>
    </g>
    <g id="xtick_2">
     <g id="line2d_2">
      <g>
       <use style="stroke:#000000;stroke-width:0.8;" x="367.523613" xlink:href="#m4d45949b97" y="586.86358"/>
      </g>
     </g>
     <g id="text_2">
      <!-- 200 -->
      <g transform="translate(357.979863 601.462017)scale(0.1 -0.1)">
       <defs>
        <path d="M 1228 531 
L 3431 531 
L 3431 0 
L 469 0 
L 469 531 
Q 828 903 1448 1529 
Q 2069 2156 2228 2338 
Q 2531 2678 2651 2914 
Q 2772 3150 2772 3378 
Q 2772 3750 2511 3984 
Q 2250 4219 1831 4219 
Q 1534 4219 1204 4116 
Q 875 4013 500 3803 
L 500 4441 
Q 881 4594 1212 4672 
Q 1544 4750 1819 4750 
Q 2544 4750 2975 4387 
Q 3406 4025 3406 3419 
Q 3406 3131 3298 2873 
Q 3191 2616 2906 2266 
Q 2828 2175 2409 1742 
Q 1991 1309 1228 531 
z
" id="DejaVuSans-32" transform="scale(0.015625)"/>
       </defs>
       <use xlink:href="#DejaVuSans-32"/>
       <use x="63.623047" xlink:href="#DejaVuSans-30"/>
       <use x="127.246094" xlink:href="#DejaVuSans-30"/>
      </g>
     </g>
    </g>
    <g id="xtick_3">
     <g id="line2d_3">
      <g>
       <use style="stroke:#000000;stroke-width:0.8;" x="615.175066" xlink:href="#m4d45949b97" y="586.86358"/>
      </g>
     </g>
     <g id="text_3">
      <!-- 400 -->
      <g transform="translate(605.631316 601.462017)scale(0.1 -0.1)">
       <defs>
        <path d="M 2419 4116 
L 825 1625 
L 2419 1625 
L 2419 4116 
z
M 2253 4666 
L 3047 4666 
L 3047 1625 
L 3713 1625 
L 3713 1100 
L 3047 1100 
L 3047 0 
L 2419 0 
L 2419 1100 
L 313 1100 
L 313 1709 
L 2253 4666 
z
" id="DejaVuSans-34" transform="scale(0.015625)"/>
       </defs>
       <use xlink:href="#DejaVuSans-34"/>
       <use x="63.623047" xlink:href="#DejaVuSans-30"/>
       <use x="127.246094" xlink:href="#DejaVuSans-30"/>
      </g>
     </g>
    </g>
    <g id="xtick_4">
     <g id="line2d_4">
      <g>
       <use style="stroke:#000000;stroke-width:0.8;" x="862.82652" xlink:href="#m4d45949b97" y="586.86358"/>
      </g>
     </g>
     <g id="text_4">
      <!-- 600 -->
      <g transform="translate(853.28277 601.462017)scale(0.1 -0.1)">
       <defs>
        <path d="M 2113 2584 
Q 1688 2584 1439 2293 
Q 1191 2003 1191 1497 
Q 1191 994 1439 701 
Q 1688 409 2113 409 
Q 2538 409 2786 701 
Q 3034 994 3034 1497 
Q 3034 2003 2786 2293 
Q 2538 2584 2113 2584 
z
M 3366 4563 
L 3366 3988 
Q 3128 4100 2886 4159 
Q 2644 4219 2406 4219 
Q 1781 4219 1451 3797 
Q 1122 3375 1075 2522 
Q 1259 2794 1537 2939 
Q 1816 3084 2150 3084 
Q 2853 3084 3261 2657 
Q 3669 2231 3669 1497 
Q 3669 778 3244 343 
Q 2819 -91 2113 -91 
Q 1303 -91 875 529 
Q 447 1150 447 2328 
Q 447 3434 972 4092 
Q 1497 4750 2381 4750 
Q 2619 4750 2861 4703 
Q 3103 4656 3366 4563 
z
" id="DejaVuSans-36" transform="scale(0.015625)"/>
       </defs>
       <use xlink:href="#DejaVuSans-36"/>
       <use x="63.623047" xlink:href="#DejaVuSans-30"/>
       <use x="127.246094" xlink:href="#DejaVuSans-30"/>
      </g>
     </g>
    </g>
    <g id="xtick_5">
     <g id="line2d_5">
      <g>
       <use style="stroke:#000000;stroke-width:0.8;" x="1110.477973" xlink:href="#m4d45949b97" y="586.86358"/>
      </g>
     </g>
     <g id="text_5">
      <!-- 800 -->
      <g transform="translate(1100.934223 601.462017)scale(0.1 -0.1)">
       <defs>
        <path d="M 2034 2216 
Q 1584 2216 1326 1975 
Q 1069 1734 1069 1313 
Q 1069 891 1326 650 
Q 1584 409 2034 409 
Q 2484 409 2743 651 
Q 3003 894 3003 1313 
Q 3003 1734 2745 1975 
Q 2488 2216 2034 2216 
z
M 1403 2484 
Q 997 2584 770 2862 
Q 544 3141 544 3541 
Q 544 4100 942 4425 
Q 1341 4750 2034 4750 
Q 2731 4750 3128 4425 
Q 3525 4100 3525 3541 
Q 3525 3141 3298 2862 
Q 3072 2584 2669 2484 
Q 3125 2378 3379 2068 
Q 3634 1759 3634 1313 
Q 3634 634 3220 271 
Q 2806 -91 2034 -91 
Q 1263 -91 848 271 
Q 434 634 434 1313 
Q 434 1759 690 2068 
Q 947 2378 1403 2484 
z
M 1172 3481 
Q 1172 3119 1398 2916 
Q 1625 2713 2034 2713 
Q 2441 2713 2670 2916 
Q 2900 3119 2900 3481 
Q 2900 3844 2670 4047 
Q 2441 4250 2034 4250 
Q 1625 4250 1398 4047 
Q 1172 3844 1172 3481 
z
" id="DejaVuSans-38" transform="scale(0.015625)"/>
       </defs>
       <use xlink:href="#DejaVuSans-38"/>
       <use x="63.623047" xlink:href="#DejaVuSans-30"/>
       <use x="127.246094" xlink:href="#DejaVuSans-30"/>
      </g>
     </g>
    </g>
    <g id="xtick_6">
     <g id="line2d_6">
      <g>
       <use style="stroke:#000000;stroke-width:0.8;" x="1358.129427" xlink:href="#m4d45949b97" y="586.86358"/>
      </g>
     </g>
     <g id="text_6">
      <!-- 1000 -->
      <g transform="translate(1345.404427 601.462017)scale(0.1 -0.1)">
       <defs>
        <path d="M 794 531 
L 1825 531 
L 1825 4091 
L 703 3866 
L 703 4441 
L 1819 4666 
L 2450 4666 
L 2450 531 
L 3481 531 
L 3481 0 
L 794 0 
L 794 531 
z
" id="DejaVuSans-31" transform="scale(0.015625)"/>
       </defs>
       <use xlink:href="#DejaVuSans-31"/>
       <use x="63.623047" xlink:href="#DejaVuSans-30"/>
       <use x="127.246094" xlink:href="#DejaVuSans-30"/>
       <use x="190.869141" xlink:href="#DejaVuSans-30"/>
      </g>
     </g>
    </g>
    <g id="xtick_7">
     <g id="line2d_7">
      <g>
       <use style="stroke:#000000;stroke-width:0.8;" x="1605.78088" xlink:href="#m4d45949b97" y="586.86358"/>
      </g>
     </g>
     <g id="text_7">
      <!-- 1200 -->
      <g transform="translate(1593.05588 601.462017)scale(0.1 -0.1)">
       <use xlink:href="#DejaVuSans-31"/>
       <use x="63.623047" xlink:href="#DejaVuSans-32"/>
       <use x="127.246094" xlink:href="#DejaVuSans-30"/>
       <use x="190.869141" xlink:href="#DejaVuSans-30"/>
      </g>
     </g>
    </g>
    <g id="text_8">
     <!-- frame -->
     <g transform="translate(865.954687 615.140142)scale(0.1 -0.1)">
      <defs>
       <path d="M 2375 4863 
L 2375 4384 
L 1825 4384 
Q 1516 4384 1395 4259 
Q 1275 4134 1275 3809 
L 1275 3500 
L 2222 3500 
L 2222 3053 
L 1275 3053 
L 1275 0 
L 697 0 
L 697 3053 
L 147 3053 
L 147 3500 
L 697 3500 
L 697 3744 
Q 697 4328 969 4595 
Q 1241 4863 1831 4863 
L 2375 4863 
z
" id="DejaVuSans-66" transform="scale(0.015625)"/>
       <path d="M 2631 2963 
Q 2534 3019 2420 3045 
Q 2306 3072 2169 3072 
Q 1681 3072 1420 2755 
Q 1159 2438 1159 1844 
L 1159 0 
L 581 0 
L 581 3500 
L 1159 3500 
L 1159 2956 
Q 1341 3275 1631 3429 
Q 1922 3584 2338 3584 
Q 2397 3584 2469 3576 
Q 2541 3569 2628 3553 
L 2631 2963 
z
" id="DejaVuSans-72" transform="scale(0.015625)"/>
       <path d="M 2194 1759 
Q 1497 1759 1228 1600 
Q 959 1441 959 1056 
Q 959 750 1161 570 
Q 1363 391 1709 391 
Q 2188 391 2477 730 
Q 2766 1069 2766 1631 
L 2766 1759 
L 2194 1759 
z
M 3341 1997 
L 3341 0 
L 2766 0 
L 2766 531 
Q 2569 213 2275 61 
Q 1981 -91 1556 -91 
Q 1019 -91 701 211 
Q 384 513 384 1019 
Q 384 1609 779 1909 
Q 1175 2209 1959 2209 
L 2766 2209 
L 2766 2266 
Q 2766 2663 2505 2880 
Q 2244 3097 1772 3097 
Q 1472 3097 1187 3025 
Q 903 2953 641 2809 
L 641 3341 
Q 956 3463 1253 3523 
Q 1550 3584 1831 3584 
Q 2591 3584 2966 3190 
Q 3341 2797 3341 1997 
z
" id="DejaVuSans-61" transform="scale(0.015625)"/>
       <path d="M 3328 2828 
Q 3544 3216 3844 3400 
Q 4144 3584 4550 3584 
Q 5097 3584 5394 3201 
Q 5691 2819 5691 2113 
L 5691 0 
L 5113 0 
L 5113 2094 
Q 5113 2597 4934 2840 
Q 4756 3084 4391 3084 
Q 3944 3084 3684 2787 
Q 3425 2491 3425 1978 
L 3425 0 
L 2847 0 
L 2847 2094 
Q 2847 2600 2669 2842 
Q 2491 3084 2119 3084 
Q 1678 3084 1418 2786 
Q 1159 2488 1159 1978 
L 1159 0 
L 581 0 
L 581 3500 
L 1159 3500 
L 1159 2956 
Q 1356 3278 1631 3431 
Q 1906 3584 2284 3584 
Q 2666 3584 2933 3390 
Q 3200 3197 3328 2828 
z
" id="DejaVuSans-6d" transform="scale(0.015625)"/>
       <path d="M 3597 1894 
L 3597 1613 
L 953 1613 
Q 991 1019 1311 708 
Q 1631 397 2203 397 
Q 2534 397 2845 478 
Q 3156 559 3463 722 
L 3463 178 
Q 3153 47 2828 -22 
Q 2503 -91 2169 -91 
Q 1331 -91 842 396 
Q 353 884 353 1716 
Q 353 2575 817 3079 
Q 1281 3584 2069 3584 
Q 2775 3584 3186 3129 
Q 3597 2675 3597 1894 
z
M 3022 2063 
Q 3016 2534 2758 2815 
Q 2500 3097 2075 3097 
Q 1594 3097 1305 2825 
Q 1016 2553 972 2059 
L 3022 2063 
z
" id="DejaVuSans-65" transform="scale(0.015625)"/>
      </defs>
      <use xlink:href="#DejaVuSans-66"/>
      <use x="35.205078" xlink:href="#DejaVuSans-72"/>
      <use x="76.318359" xlink:href="#DejaVuSans-61"/>
      <use x="137.597656" xlink:href="#DejaVuSans-6d"/>
      <use x="235.009766" xlink:href="#DejaVuSans-65"/>
     </g>
    </g>
   </g>
   <g id="matplotlib.axis_2">
    <g id="ytick_1">
     <g id="line2d_8">
      <defs>
       <path d="M 0 0 
L -3.5 0 
" id="mbcb3d67729" style="stroke:#000000;stroke-width:0.8;"/>
      </defs>
      <g>
       <use style="stroke:#000000;stroke-width:0.8;" x="43.78125" xlink:href="#mbcb3d67729" y="557.625362"/>
      </g>
     </g>
     <g id="text_9">
      <!-- 1.8 -->
      <g transform="translate(20.878125 561.424581)scale(0.1 -0.1)">
       <defs>
        <path d="M 684 794 
L 1344 794 
L 1344 0 
L 684 0 
L 684 794 
z
" id="DejaVuSans-2e" transform="scale(0.015625)"/>
       </defs>
       <use xlink:href="#DejaVuSans-31"/>
       <use x="63.623047" xlink:href="#DejaVuSans-2e"/>
       <use x="95.410156" xlink:href="#DejaVuSans-38"/>
      </g>
     </g>
    </g>
    <g id="ytick_2">
     <g id="line2d_9">
      <g>
       <use style="stroke:#000000;stroke-width:0.8;" x="43.78125" xlink:href="#mbcb3d67729" y="474.083414"/>
      </g>
     </g>
     <g id="text_10">
      <!-- 2.0 -->
      <g transform="translate(20.878125 477.882633)scale(0.1 -0.1)">
       <use xlink:href="#DejaVuSans-32"/>
       <use x="63.623047" xlink:href="#DejaVuSans-2e"/>
       <use x="95.410156" xlink:href="#DejaVuSans-30"/>
      </g>
     </g>
    </g>
    <g id="ytick_3">
     <g id="line2d_10">
      <g>
       <use style="stroke:#000000;stroke-width:0.8;" x="43.78125" xlink:href="#mbcb3d67729" y="390.541466"/>
      </g>
     </g>
     <g id="text_11">
      <!-- 2.2 -->
      <g transform="translate(20.878125 394.340685)scale(0.1 -0.1)">
       <use xlink:href="#DejaVuSans-32"/>
       <use x="63.623047" xlink:href="#DejaVuSans-2e"/>
       <use x="95.410156" xlink:href="#DejaVuSans-32"/>
      </g>
     </g>
    </g>
    <g id="ytick_4">
     <g id="line2d_11">
      <g>
       <use style="stroke:#000000;stroke-width:0.8;" x="43.78125" xlink:href="#mbcb3d67729" y="306.999519"/>
      </g>
     </g>
     <g id="text_12">
      <!-- 2.4 -->
      <g transform="translate(20.878125 310.798737)scale(0.1 -0.1)">
       <use xlink:href="#DejaVuSans-32"/>
       <use x="63.623047" xlink:href="#DejaVuSans-2e"/>
       <use x="95.410156" xlink:href="#DejaVuSans-34"/>
      </g>
     </g>
    </g>
    <g id="ytick_5">
     <g id="line2d_12">
      <g>
       <use style="stroke:#000000;stroke-width:0.8;" x="43.78125" xlink:href="#mbcb3d67729" y="223.457571"/>
      </g>
     </g>
     <g id="text_13">
      <!-- 2.6 -->
      <g transform="translate(20.878125 227.25679)scale(0.1 -0.1)">
       <use xlink:href="#DejaVuSans-32"/>
       <use x="63.623047" xlink:href="#DejaVuSans-2e"/>
       <use x="95.410156" xlink:href="#DejaVuSans-36"/>
      </g>
     </g>
    </g>
    <g id="ytick_6">
     <g id="line2d_13">
      <g>
       <use style="stroke:#000000;stroke-width:0.8;" x="43.78125" xlink:href="#mbcb3d67729" y="139.915623"/>
      </g>
     </g>
     <g id="text_14">
      <!-- 2.8 -->
      <g transform="translate(20.878125 143.714842)scale(0.1 -0.1)">
       <use xlink:href="#DejaVuSans-32"/>
       <use x="63.623047" xlink:href="#DejaVuSans-2e"/>
       <use x="95.410156" xlink:href="#DejaVuSans-38"/>
      </g>
     </g>
    </g>
    <g id="ytick_7">
     <g id="line2d_14">
      <g>
       <use style="stroke:#000000;stroke-width:0.8;" x="43.78125" xlink:href="#mbcb3d67729" y="56.373675"/>
      </g>
     </g>
     <g id="text_15">
      <!-- 3.0 -->
      <g transform="translate(20.878125 60.172894)scale(0.1 -0.1)">
       <defs>
        <path d="M 2597 2516 
Q 3050 2419 3304 2112 
Q 3559 1806 3559 1356 
Q 3559 666 3084 287 
Q 2609 -91 1734 -91 
Q 1441 -91 1130 -33 
Q 819 25 488 141 
L 488 750 
Q 750 597 1062 519 
Q 1375 441 1716 441 
Q 2309 441 2620 675 
Q 2931 909 2931 1356 
Q 2931 1769 2642 2001 
Q 2353 2234 1838 2234 
L 1294 2234 
L 1294 2753 
L 1863 2753 
Q 2328 2753 2575 2939 
Q 2822 3125 2822 3475 
Q 2822 3834 2567 4026 
Q 2313 4219 1838 4219 
Q 1578 4219 1281 4162 
Q 984 4106 628 3988 
L 628 4550 
Q 988 4650 1302 4700 
Q 1616 4750 1894 4750 
Q 2613 4750 3031 4423 
Q 3450 4097 3450 3541 
Q 3450 3153 3228 2886 
Q 3006 2619 2597 2516 
z
" id="DejaVuSans-33" transform="scale(0.015625)"/>
       </defs>
       <use xlink:href="#DejaVuSans-33"/>
       <use x="63.623047" xlink:href="#DejaVuSans-2e"/>
       <use x="95.410156" xlink:href="#DejaVuSans-30"/>
      </g>
     </g>
    </g>
    <g id="text_16">
     <!-- GCaMP -->
     <g transform="translate(14.798437 322.349446)rotate(-90)scale(0.1 -0.1)">
      <defs>
       <path d="M 3809 666 
L 3809 1919 
L 2778 1919 
L 2778 2438 
L 4434 2438 
L 4434 434 
Q 4069 175 3628 42 
Q 3188 -91 2688 -91 
Q 1594 -91 976 548 
Q 359 1188 359 2328 
Q 359 3472 976 4111 
Q 1594 4750 2688 4750 
Q 3144 4750 3555 4637 
Q 3966 4525 4313 4306 
L 4313 3634 
Q 3963 3931 3569 4081 
Q 3175 4231 2741 4231 
Q 1884 4231 1454 3753 
Q 1025 3275 1025 2328 
Q 1025 1384 1454 906 
Q 1884 428 2741 428 
Q 3075 428 3337 486 
Q 3600 544 3809 666 
z
" id="DejaVuSans-47" transform="scale(0.015625)"/>
       <path d="M 4122 4306 
L 4122 3641 
Q 3803 3938 3442 4084 
Q 3081 4231 2675 4231 
Q 1875 4231 1450 3742 
Q 1025 3253 1025 2328 
Q 1025 1406 1450 917 
Q 1875 428 2675 428 
Q 3081 428 3442 575 
Q 3803 722 4122 1019 
L 4122 359 
Q 3791 134 3420 21 
Q 3050 -91 2638 -91 
Q 1578 -91 968 557 
Q 359 1206 359 2328 
Q 359 3453 968 4101 
Q 1578 4750 2638 4750 
Q 3056 4750 3426 4639 
Q 3797 4528 4122 4306 
z
" id="DejaVuSans-43" transform="scale(0.015625)"/>
       <path d="M 628 4666 
L 1569 4666 
L 2759 1491 
L 3956 4666 
L 4897 4666 
L 4897 0 
L 4281 0 
L 4281 4097 
L 3078 897 
L 2444 897 
L 1241 4097 
L 1241 0 
L 628 0 
L 628 4666 
z
" id="DejaVuSans-4d" transform="scale(0.015625)"/>
       <path d="M 1259 4147 
L 1259 2394 
L 2053 2394 
Q 2494 2394 2734 2622 
Q 2975 2850 2975 3272 
Q 2975 3691 2734 3919 
Q 2494 4147 2053 4147 
L 1259 4147 
z
M 628 4666 
L 2053 4666 
Q 2838 4666 3239 4311 
Q 3641 3956 3641 3272 
Q 3641 2581 3239 2228 
Q 2838 1875 2053 1875 
L 1259 1875 
L 1259 0 
L 628 0 
L 628 4666 
z
" id="DejaVuSans-50" transform="scale(0.015625)"/>
      </defs>
      <use xlink:href="#DejaVuSans-47"/>
      <use x="77.490234" xlink:href="#DejaVuSans-43"/>
      <use x="147.314453" xlink:href="#DejaVuSans-61"/>
      <use x="208.59375" xlink:href="#DejaVuSans-4d"/>
      <use x="294.873047" xlink:href="#DejaVuSans-50"/>
     </g>
    </g>
   </g>
   <g id="line2d_15">
    <path clip-path="url(#p27d514122a)" d="M 119.872159 518.78737 
L 122.348674 491.35463 
L 123.586931 480.350862 
L 126.063445 460.600314 
L 128.53996 437.934467 
L 129.778217 428.699571 
L 131.016474 421.687759 
L 132.254732 416.856201 
L 133.492989 414.226198 
L 134.731246 412.858427 
L 135.969504 411.770644 
L 137.207761 411.788867 
L 138.446018 413.804609 
L 139.684275 415.416108 
L 140.922533 412.644523 
L 142.16079 404.116606 
L 143.399047 391.510384 
L 144.637304 377.65989 
L 145.875562 365.252273 
L 147.113819 356.320244 
L 148.352076 351.801664 
L 149.590334 351.365231 
L 150.828591 353.931744 
L 152.066848 357.802408 
L 153.305105 360.396514 
L 154.543363 358.916296 
L 155.78162 352.096957 
L 157.019877 341.066489 
L 160.734649 301.556644 
L 161.972906 292.799658 
L 163.211163 289.854785 
L 164.449421 292.173002 
L 165.687678 296.66732 
L 166.925935 299.718174 
L 168.164193 299.161968 
L 169.40245 295.06977 
L 170.640707 288.734589 
L 171.878964 281.128153 
L 173.117222 272.270812 
L 174.355479 261.143031 
L 175.593736 246.425178 
L 178.070251 211.204783 
L 179.308508 200.869698 
L 180.546765 200.91573 
L 181.785022 206.531357 
L 183.02328 208.205387 
L 184.261537 200.843812 
L 185.499794 187.616093 
L 186.738052 176.272926 
L 187.976309 172.368932 
L 189.214566 175.193729 
L 190.452823 179.749239 
L 191.691081 181.186951 
L 192.929338 177.627466 
L 195.405852 164.202682 
L 196.64411 159.348152 
L 197.882367 156.448947 
L 199.120624 155.023358 
L 200.358881 153.420298 
L 201.597139 149.703841 
L 204.073653 138.056509 
L 205.311911 134.849101 
L 206.550168 134.401596 
L 207.788425 133.742298 
L 209.026682 129.016432 
L 210.26494 117.998644 
L 211.503197 101.424963 
L 212.741454 83.277096 
L 213.979711 69.418644 
L 215.217969 64.359508 
L 216.456226 67.805912 
L 217.694483 74.804837 
L 218.93274 79.653413 
L 220.170998 79.411229 
L 221.409255 74.970829 
L 222.647512 69.768404 
L 223.88577 66.405062 
L 225.124027 64.117644 
L 226.362284 60.658458 
L 227.600541 56.099145 
L 228.838799 53.356261 
L 230.077056 55.235339 
L 231.315313 61.92907 
L 232.55357 71.772983 
L 233.791828 82.798588 
L 235.030085 92.351613 
L 236.268342 97.852357 
L 237.5066 99.384149 
L 238.744857 99.583663 
L 239.983114 101.010709 
L 241.221371 105.031974 
L 242.459629 111.817614 
L 243.697886 119.281745 
L 244.936143 123.564133 
L 246.1744 123.266909 
L 247.412658 122.164399 
L 248.650915 125.190714 
L 249.889172 132.958457 
L 251.127429 141.625505 
L 252.365687 145.556497 
L 253.603944 140.229262 
L 254.842201 125.851545 
L 256.080459 107.966536 
L 257.318716 93.014845 
L 259.79523 73.145197 
L 261.033488 61.160208 
L 262.271745 50.647234 
L 263.510002 47.979282 
L 264.748259 54.493019 
L 267.224774 78.145227 
L 268.463031 84.218009 
L 269.701288 81.940427 
L 272.177803 64.244214 
L 273.41606 59.594431 
L 274.654318 60.951979 
L 278.369089 77.018431 
L 279.607347 82.938199 
L 282.083861 97.912859 
L 284.560376 110.363466 
L 285.798633 115.832863 
L 287.03689 120.072505 
L 288.275147 122.347318 
L 290.751662 124.005832 
L 291.989919 126.259187 
L 294.466434 133.595995 
L 295.704691 135.89691 
L 296.942948 136.565855 
L 298.181206 136.079729 
L 299.419463 135.425486 
L 300.65772 135.435892 
L 301.895977 136.412505 
L 303.134235 138.644761 
L 304.372492 141.702447 
L 305.610749 143.991244 
L 306.849006 144.366743 
L 309.325521 142.22162 
L 310.563778 142.949307 
L 311.802036 144.941437 
L 313.040293 145.63835 
L 314.27855 143.625872 
L 315.516807 141.314679 
L 316.755065 142.474072 
L 319.231579 152.749184 
L 320.469836 155.574249 
L 321.708094 155.675961 
L 324.184608 152.714634 
L 325.422866 153.915411 
L 326.661123 159.56964 
L 327.89938 170.234445 
L 329.137637 185.340344 
L 330.375895 202.208271 
L 331.614152 216.285447 
L 332.852409 224.074224 
L 334.090666 225.233467 
L 335.328924 221.72719 
L 336.567181 216.724022 
L 337.805438 213.637615 
L 339.043695 214.081898 
L 340.281953 216.705195 
L 341.52021 218.554635 
L 342.758467 217.872888 
L 343.996725 215.044029 
L 345.234982 210.841536 
L 346.473239 205.181146 
L 347.711496 197.748452 
L 348.949754 189.20894 
L 350.188011 182.024499 
L 351.426268 179.770289 
L 352.664525 184.089056 
L 356.379297 209.239516 
L 357.617554 211.944377 
L 358.855812 208.801019 
L 360.094069 200.861731 
L 361.332326 189.912633 
L 363.808841 165.852029 
L 365.047098 159.104488 
L 366.285355 158.763617 
L 367.523613 162.693788 
L 371.238384 177.960161 
L 372.476642 179.943806 
L 373.714899 176.786866 
L 374.953156 168.561638 
L 376.191413 158.342203 
L 379.906185 130.150058 
L 382.3827 108.369547 
L 383.620957 100.488545 
L 384.859214 94.889566 
L 386.097472 91.877751 
L 387.335729 93.770702 
L 388.573986 102.493065 
L 391.050501 131.284775 
L 392.288758 141.397635 
L 393.527015 142.99648 
L 394.765272 134.761448 
L 396.00353 118.132887 
L 398.480044 75.147766 
L 399.718302 59.031733 
L 400.956559 53.577253 
L 402.194816 60.506621 
L 403.433073 77.058363 
L 404.671331 97.53395 
L 405.909588 115.141968 
L 407.147845 124.778058 
L 408.386102 126.660133 
L 409.62436 125.876818 
L 410.862617 126.907036 
L 412.100874 130.351782 
L 414.577389 139.019243 
L 415.815646 143.883396 
L 417.053903 150.918336 
L 418.292161 161.789517 
L 419.530418 176.955909 
L 422.006932 213.37921 
L 423.24519 227.953448 
L 424.483447 236.004143 
L 425.721704 237.396377 
L 426.959961 234.468075 
L 428.198219 230.868233 
L 429.436476 230.202908 
L 430.674733 233.375388 
L 431.912991 237.949367 
L 433.151248 241.310499 
L 434.389505 243.001299 
L 435.627762 244.498794 
L 436.86602 247.274318 
L 438.104277 250.392847 
L 439.342534 251.751667 
L 440.580791 251.767139 
L 441.819049 252.873485 
L 443.057306 255.495971 
L 444.295563 257.124411 
L 445.53382 255.334207 
L 446.772078 250.117558 
L 448.010335 243.76415 
L 449.248592 239.437992 
L 450.48685 239.305748 
L 451.725107 243.550488 
L 452.963364 251.058906 
L 454.201621 260.058206 
L 455.439879 267.002164 
L 456.678136 266.860104 
L 457.916393 257.566892 
L 460.392908 227.937572 
L 461.631165 217.496391 
L 462.869422 214.110198 
L 464.107679 218.961122 
L 465.345937 230.704748 
L 469.060709 275.719838 
L 470.298966 285.647201 
L 471.537223 290.779284 
L 472.77548 290.972447 
L 474.013738 286.8218 
L 475.251995 279.161373 
L 477.728509 260.043977 
L 478.966767 256.469045 
L 480.205024 261.585361 
L 481.443281 273.846909 
L 482.681538 287.959834 
L 483.919796 298.141383 
L 485.158053 301.21346 
L 486.39631 297.944217 
L 487.634568 292.452858 
L 488.872825 289.811743 
L 490.111082 291.956625 
L 491.349339 295.273428 
L 492.587597 293.953753 
L 493.825854 285.913342 
L 495.064111 274.61241 
L 496.302368 265.854081 
L 497.540626 262.852203 
L 498.778883 264.122742 
L 500.01714 266.610153 
L 501.255397 268.841366 
L 502.493655 269.636964 
L 503.731912 267.427877 
L 504.970169 263.079733 
L 506.208427 260.558406 
L 507.446684 263.045881 
L 509.923198 276.77199 
L 511.161456 281.61208 
L 512.399713 285.192021 
L 513.63797 290.210277 
L 514.876227 296.776985 
L 516.114485 301.754622 
L 517.352742 302.027835 
L 518.590999 297.294044 
L 519.829257 290.062207 
L 521.067514 283.955551 
L 522.305771 281.738232 
L 523.544028 283.952089 
L 524.782286 289.165581 
L 526.020543 295.786038 
L 527.2588 304.124594 
L 528.497057 315.87849 
L 530.973572 345.810168 
L 532.211829 356.544687 
L 533.450086 360.95746 
L 534.688344 358.818468 
L 535.926601 350.752549 
L 538.403116 324.838164 
L 539.641373 315.390558 
L 540.87963 314.613547 
L 542.117887 323.839407 
L 543.356145 340.133694 
L 544.594402 358.047251 
L 545.832659 372.783716 
L 547.070916 381.713327 
L 548.309174 383.79917 
L 549.547431 379.321972 
L 553.262203 353.353257 
L 554.50046 348.413232 
L 555.738717 345.561186 
L 556.976975 345.869957 
L 558.215232 351.636064 
L 559.453489 363.333984 
L 560.691746 378.055049 
L 561.930004 390.989059 
L 563.168261 397.789377 
L 564.406518 396.455449 
L 565.644775 388.503885 
L 566.883033 378.211566 
L 568.12129 369.909826 
L 569.359547 366.431459 
L 570.597804 369.1474 
L 571.836062 376.8819 
L 573.074319 385.964218 
L 574.312576 393.675083 
L 575.550834 399.77683 
L 576.789091 403.753085 
L 578.027348 403.591628 
L 579.265605 398.026559 
L 580.503863 387.556806 
L 581.74212 373.119331 
L 584.218634 339.427968 
L 585.456892 326.160812 
L 586.695149 317.390455 
L 587.933406 313.771898 
L 589.171663 316.875038 
L 590.409921 327.579883 
L 592.886435 360.916181 
L 594.124693 373.448312 
L 595.36295 379.860594 
L 596.601207 381.623658 
L 597.839464 380.388429 
L 599.077722 376.617099 
L 601.554236 365.14161 
L 602.792493 361.613286 
L 604.030751 360.626992 
L 605.269008 360.678847 
L 606.507265 360.10504 
L 607.745523 358.515092 
L 608.98378 357.254708 
L 610.222037 358.708331 
L 611.460294 365.144371 
L 612.698552 377.784818 
L 613.936809 395.94438 
L 615.175066 416.406131 
L 616.413323 434.295583 
L 617.651581 446.461989 
L 618.889838 453.863865 
L 620.128095 459.853903 
L 621.366352 467.6365 
L 622.60461 478.723668 
L 623.842867 491.674597 
L 625.081124 502.851785 
L 626.319382 509.449467 
L 627.557639 511.742256 
L 628.795896 511.761149 
L 630.034153 510.343454 
L 631.272411 507.309155 
L 632.510668 503.517575 
L 633.748925 500.834311 
L 634.987182 501.170338 
L 636.22544 505.721433 
L 638.701954 521.490107 
L 639.940211 525.433483 
L 641.178469 522.662167 
L 642.416726 512.827233 
L 643.654983 498.000672 
L 644.893241 481.353861 
L 646.131498 466.529762 
L 647.369755 456.931417 
L 648.608012 452.879619 
L 649.84627 451.054878 
L 651.084527 447.902236 
L 652.322784 441.248945 
L 653.561041 429.930148 
L 656.037556 399.502495 
L 657.275813 388.070763 
L 658.51407 382.667749 
L 659.752328 382.083857 
L 660.990585 382.570101 
L 662.228842 380.848663 
L 663.4671 377.386022 
L 664.705357 375.48222 
L 665.943614 377.008044 
L 667.181871 381.196446 
L 668.420129 386.474307 
L 669.658386 390.86959 
L 670.896643 391.78998 
L 672.1349 387.744347 
L 673.373158 380.82703 
L 674.611415 375.733706 
L 675.849672 375.285092 
L 677.087929 378.647733 
L 678.326187 382.785343 
L 679.564444 383.411217 
L 680.802701 377.336794 
L 683.279216 353.603506 
L 684.517473 346.237777 
L 685.75573 345.441239 
L 686.993988 348.543481 
L 688.232245 350.496398 
L 689.470502 347.151823 
L 690.708759 338.010528 
L 691.947017 326.90997 
L 693.185274 318.21437 
L 695.661789 305.729778 
L 698.138303 291.338032 
L 701.853075 271.49354 
L 703.091332 267.568181 
L 704.329589 267.988325 
L 705.567847 271.99921 
L 706.806104 278.421515 
L 708.044361 286.67737 
L 709.282618 296.122152 
L 710.520876 306.427849 
L 711.759133 317.875017 
L 712.99739 331.079826 
L 714.235648 347.658632 
L 716.712162 390.097847 
L 717.950419 404.84203 
L 719.188677 408.00957 
L 720.426934 400.438254 
L 721.665191 386.219203 
L 722.903448 370.59616 
L 724.141706 359.770368 
L 725.379963 358.06645 
L 726.61822 363.818241 
L 727.856477 371.421278 
L 729.094735 377.31271 
L 730.332992 381.393589 
L 731.571249 384.33758 
L 732.809507 385.80613 
L 734.047764 384.460475 
L 735.286021 379.023588 
L 736.524278 369.983743 
L 737.762536 360.074733 
L 740.23905 342.633531 
L 741.477307 327.817135 
L 742.715565 303.27042 
L 743.953822 271.765114 
L 745.192079 243.265755 
L 746.430336 228.384372 
L 747.668594 230.122133 
L 748.906851 243.817034 
L 752.621623 302.501302 
L 753.85988 317.2525 
L 755.098137 327.221522 
L 756.336395 330.403827 
L 757.574652 325.090264 
L 760.051166 302.776447 
L 761.289424 299.334943 
L 762.527681 305.692265 
L 763.765938 319.723371 
L 766.242453 357.170626 
L 769.957225 413.731 
L 771.195482 427.779808 
L 772.433739 433.618147 
L 773.671996 427.762329 
L 774.910254 410.717948 
L 776.148511 388.183084 
L 777.386768 368.502557 
L 778.625025 358.255175 
L 779.863283 358.456971 
L 781.10154 363.993627 
L 782.339797 368.492053 
L 783.578054 370.027555 
L 784.816312 370.810469 
L 786.054569 373.541223 
L 787.292826 380.305394 
L 788.531084 391.876984 
L 789.769341 405.709778 
L 791.007598 416.490143 
L 792.245855 419.654309 
L 793.484113 414.687767 
L 794.72237 405.555284 
L 795.960627 397.444237 
L 797.198884 393.147096 
L 798.437142 392.574458 
L 799.675399 394.374353 
L 802.151914 399.839432 
L 803.390171 404.167668 
L 804.628428 413.533605 
L 805.866685 430.909362 
L 808.3432 477.409398 
L 809.581457 491.272745 
L 810.819714 495.09611 
L 812.057972 493.601192 
L 813.296229 491.025421 
L 814.534486 487.959101 
L 815.772743 484.086667 
L 817.011001 480.620039 
L 818.249258 479.026698 
L 819.487515 479.58666 
L 820.725773 482.174402 
L 821.96403 486.82034 
L 823.202287 492.235235 
L 824.440544 495.498287 
L 825.678802 494.489702 
L 826.917059 489.630221 
L 828.155316 483.101756 
L 829.393573 477.191899 
L 830.631831 474.034229 
L 831.870088 476.020464 
L 833.108345 484.131441 
L 835.58486 508.094852 
L 836.823117 517.885847 
L 840.537889 542.103013 
L 841.776146 549.280235 
L 843.014403 554.196679 
L 844.252661 556.149432 
L 845.490918 556.111094 
L 846.729175 555.561644 
L 847.967432 554.126916 
L 849.20569 550.352055 
L 850.443947 544.777774 
L 851.682204 539.762942 
L 852.920461 535.948517 
L 854.158719 530.211367 
L 855.396976 517.835456 
L 856.635233 497.059538 
L 860.350005 420.310044 
L 861.588262 405.431888 
L 862.82652 400.178112 
L 865.303034 401.330537 
L 866.541291 399.424361 
L 867.779549 396.301263 
L 869.017806 394.314129 
L 870.256063 394.922816 
L 871.49432 399.025111 
L 872.732578 407.902736 
L 873.970835 421.962758 
L 876.44735 455.887113 
L 877.685607 468.534632 
L 878.923864 473.707805 
L 880.162121 470.422665 
L 881.400379 460.226192 
L 882.638636 445.493808 
L 885.11515 413.223521 
L 886.353408 401.179069 
L 887.591665 394.756756 
L 888.829922 394.131837 
L 890.06818 398.174536 
L 891.306437 405.112879 
L 892.544694 412.98967 
L 893.782951 421.809199 
L 895.021209 433.63035 
L 897.497723 464.564835 
L 898.73598 477.126861 
L 899.974238 484.530788 
L 901.212495 486.931666 
L 902.450752 486.096391 
L 903.689009 484.092207 
L 904.927267 483.24215 
L 906.165524 486.830216 
L 907.403781 496.417304 
L 908.642039 508.762694 
L 909.880296 518.532148 
L 911.118553 523.077839 
L 912.35681 522.564046 
L 913.595068 517.719855 
L 914.833325 509.791973 
L 916.071582 500.466625 
L 917.309839 490.120349 
L 918.548097 477.466422 
L 919.786354 460.976835 
L 922.262868 419.589276 
L 923.501126 402.714655 
L 924.739383 393.358359 
L 925.97764 391.185789 
L 927.215898 392.45749 
L 928.454155 392.143818 
L 929.692412 387.330555 
L 930.930669 378.828775 
L 933.407184 359.38973 
L 934.645441 348.555199 
L 935.883698 335.367959 
L 937.121956 320.570485 
L 938.360213 308.27099 
L 939.59847 305.136553 
L 940.836727 317.188646 
L 942.074985 345.347327 
L 943.313242 382.326265 
L 944.551499 415.456486 
L 945.789757 434.834369 
L 947.028014 438.417887 
L 948.266271 430.097706 
L 949.504528 415.193894 
L 950.742786 398.235664 
L 951.981043 383.517523 
L 953.2193 375.241356 
L 954.457557 375.678104 
L 955.695815 383.504302 
L 956.934072 394.293975 
L 958.172329 402.997358 
L 959.410586 406.407736 
L 960.648844 403.848731 
L 961.887101 395.847028 
L 963.125358 382.799965 
L 964.363616 366.462729 
L 965.601873 351.816425 
L 966.84013 345.567636 
L 968.078387 352.527852 
L 969.316645 371.727527 
L 970.554902 395.282484 
L 971.793159 413.59001 
L 973.031416 422.553687 
L 974.269674 425.131035 
L 975.507931 427.162546 
L 976.746188 432.433225 
L 979.222703 447.63409 
L 980.46096 453.332981 
L 981.699217 460.740187 
L 982.937475 473.285923 
L 985.413989 504.943032 
L 986.652246 515.300868 
L 987.890504 520.520168 
L 990.367018 525.040115 
L 991.605275 528.460524 
L 992.843533 532.226601 
L 994.08179 534.520142 
L 995.320047 534.820465 
L 996.558305 534.568027 
L 997.796562 535.851303 
L 999.034819 539.303955 
L 1000.273076 543.097883 
L 1001.511334 544.337086 
L 1002.749591 540.568381 
L 1003.987848 530.243859 
L 1006.464363 501.007496 
L 1007.70262 495.366116 
L 1008.940877 500.090638 
L 1011.417392 520.657398 
L 1012.655649 526.374993 
L 1013.893906 529.243543 
L 1015.132164 530.799134 
L 1016.370421 529.457941 
L 1017.608678 523.662971 
L 1018.846935 516.6252 
L 1020.085193 514.585867 
L 1021.32345 519.696328 
L 1022.561707 527.59733 
L 1023.799964 532.692107 
L 1025.038222 532.512205 
L 1026.276479 527.143957 
L 1027.514736 517.647947 
L 1029.991251 493.833552 
L 1031.229508 484.612617 
L 1032.467765 480.05116 
L 1033.706023 481.343645 
L 1036.182537 493.487278 
L 1037.420794 493.101434 
L 1038.659052 480.76968 
L 1039.897309 454.030328 
L 1042.373823 379.795677 
L 1043.612081 355.521876 
L 1044.850338 350.586662 
L 1046.088595 362.47253 
L 1047.326852 381.428182 
L 1048.56511 396.754557 
L 1049.803367 402.205329 
L 1051.041624 396.255472 
L 1052.279882 380.319466 
L 1054.756396 336.672952 
L 1055.994653 324.223931 
L 1057.232911 328.624663 
L 1058.471168 351.710058 
L 1060.947682 418.546563 
L 1062.18594 439.593033 
L 1063.424197 447.526267 
L 1064.662454 446.759297 
L 1065.900711 443.128584 
L 1067.138969 440.332465 
L 1068.377226 439.055006 
L 1069.615483 438.003491 
L 1070.853741 435.970411 
L 1074.568512 427.69389 
L 1075.80677 421.888796 
L 1077.045027 411.344432 
L 1080.759799 367.937655 
L 1081.998056 359.035041 
L 1083.236313 354.431529 
L 1084.474571 354.627685 
L 1085.712828 360.710835 
L 1086.951085 372.75368 
L 1089.4276 404.280071 
L 1090.665857 416.02285 
L 1091.904114 421.177976 
L 1093.142371 420.230153 
L 1094.380629 417.143947 
L 1095.618886 416.422932 
L 1096.857143 420.278785 
L 1098.0954 428.942378 
L 1100.571915 454.297345 
L 1101.810172 462.484978 
L 1103.04843 462.264773 
L 1104.286687 453.520952 
L 1106.763201 425.699824 
L 1108.001459 416.254254 
L 1109.239716 411.219622 
L 1111.71623 404.26414 
L 1112.954488 402.222572 
L 1115.431002 400.373744 
L 1116.669259 399.906184 
L 1117.907517 401.941827 
L 1119.145774 408.027678 
L 1124.098803 443.939639 
L 1125.33706 448.738296 
L 1126.575318 447.927378 
L 1127.813575 441.293994 
L 1131.528347 412.668195 
L 1132.766604 406.057893 
L 1134.004861 403.614473 
L 1135.243118 406.290355 
L 1136.481376 413.477394 
L 1138.95789 433.847852 
L 1140.196148 442.101248 
L 1141.434405 446.123049 
L 1142.672662 444.944616 
L 1143.910919 439.973703 
L 1145.149177 435.531935 
L 1146.387434 436.234236 
L 1147.625691 443.072379 
L 1148.863948 452.350445 
L 1150.102206 457.686181 
L 1151.340463 453.746614 
L 1152.57872 440.306859 
L 1153.816977 422.905321 
L 1155.055235 408.534314 
L 1156.293492 400.965158 
L 1157.531749 400.506111 
L 1158.770007 406.02767 
L 1160.008264 415.437333 
L 1161.246521 425.78249 
L 1162.484778 434.451721 
L 1163.723036 440.257915 
L 1164.961293 443.349067 
L 1166.19955 444.153533 
L 1167.437807 442.840722 
L 1168.676065 440.11634 
L 1169.914322 437.700407 
L 1171.152579 437.457135 
L 1172.390837 440.335769 
L 1173.629094 445.752474 
L 1174.867351 451.682631 
L 1176.105608 456.371889 
L 1177.343866 460.22359 
L 1178.582123 464.655597 
L 1179.82038 468.496424 
L 1181.058637 467.534637 
L 1182.296895 459.011231 
L 1183.535152 444.579389 
L 1184.773409 428.542232 
L 1187.249924 400.274095 
L 1188.488181 383.528571 
L 1190.964696 343.855619 
L 1192.202953 332.652035 
L 1193.44121 333.699113 
L 1194.679467 347.07198 
L 1195.917725 370.649153 
L 1198.394239 427.64982 
L 1199.632496 444.420763 
L 1200.870754 447.828086 
L 1202.109011 442.416854 
L 1203.347268 435.023422 
L 1204.585525 430.916991 
L 1205.823783 433.403498 
L 1207.06204 443.195868 
L 1209.538555 471.183391 
L 1210.776812 480.376986 
L 1212.015069 483.354016 
L 1213.253326 481.305567 
L 1214.491584 476.8672 
L 1215.729841 471.696514 
L 1216.968098 464.8814 
L 1218.206355 454.526753 
L 1220.68287 429.256034 
L 1221.921127 420.284363 
L 1223.159384 414.97372 
L 1225.635899 409.423294 
L 1226.874156 403.689492 
L 1228.112414 395.835097 
L 1229.350671 389.640436 
L 1230.588928 387.968861 
L 1231.827185 390.558092 
L 1233.065443 395.434611 
L 1236.780214 413.415618 
L 1238.018472 417.2777 
L 1239.256729 418.483047 
L 1240.494986 417.33199 
L 1241.733243 414.286391 
L 1245.448015 402.106838 
L 1246.686273 398.727778 
L 1247.92453 396.027643 
L 1249.162787 394.306101 
L 1250.401044 394.44297 
L 1251.639302 397.348213 
L 1252.877559 402.047072 
L 1254.115816 406.040648 
L 1255.354073 408.659917 
L 1256.592331 411.570007 
L 1259.068845 419.728191 
L 1260.307103 423.177521 
L 1261.54536 426.020158 
L 1262.783617 427.986259 
L 1264.021874 428.392543 
L 1265.260132 426.977205 
L 1266.498389 423.766327 
L 1267.736646 419.640172 
L 1268.974903 417.190277 
L 1270.213161 418.583084 
L 1273.927932 431.099664 
L 1275.16619 434.172306 
L 1276.404447 435.168684 
L 1277.642704 431.817606 
L 1278.880962 425.079594 
L 1280.119219 419.628927 
L 1281.357476 419.139455 
L 1282.595733 423.025679 
L 1283.833991 428.033526 
L 1285.072248 431.378669 
L 1287.548762 434.036845 
L 1288.78702 437.524549 
L 1290.025277 444.393853 
L 1291.263534 453.102778 
L 1292.501791 459.343084 
L 1293.740049 459.40855 
L 1294.978306 453.362707 
L 1296.216563 444.755896 
L 1297.454821 438.439023 
L 1298.693078 437.776909 
L 1299.931335 442.285568 
L 1301.169592 449.330931 
L 1303.646107 465.050754 
L 1304.884364 469.805248 
L 1306.122621 471.126891 
L 1307.360879 470.388295 
L 1308.599136 467.65528 
L 1309.837393 462.171731 
L 1311.07565 454.676275 
L 1316.02868 421.048404 
L 1317.266937 410.662084 
L 1318.505194 397.982823 
L 1319.743451 387.377616 
L 1320.981709 385.467942 
L 1322.219966 394.90522 
L 1323.458223 412.047969 
L 1325.934738 450.782018 
L 1327.172995 468.598943 
L 1328.411252 482.680959 
L 1329.649509 491.476587 
L 1330.887767 495.549779 
L 1332.126024 495.633254 
L 1333.364281 491.708608 
L 1334.602539 484.110575 
L 1338.31731 454.925463 
L 1339.555568 451.461079 
L 1340.793825 456.884693 
L 1342.032082 473.01974 
L 1343.270339 498.553007 
L 1344.508597 527.803948 
L 1345.746854 551.316688 
L 1346.985111 561.202423 
L 1348.223368 557.018259 
L 1349.461626 544.864942 
L 1350.699883 531.576369 
L 1351.93814 521.44096 
L 1353.176398 515.575453 
L 1354.414655 511.164928 
L 1355.652912 502.039217 
L 1356.891169 481.96803 
L 1358.129427 447.870136 
L 1359.367684 399.578201 
L 1361.844198 286.986667 
L 1363.082456 266.262125 
L 1364.320713 294.317307 
L 1366.797228 413.704087 
L 1368.035485 452.830335 
L 1369.273742 468.332831 
L 1370.511999 466.484619 
L 1372.988514 446.709193 
L 1374.226771 441.351627 
L 1375.465028 439.209091 
L 1376.703286 438.012152 
L 1377.941543 439.520571 
L 1379.1798 446.753472 
L 1380.418057 459.20492 
L 1381.656315 473.016028 
L 1382.894572 484.317287 
L 1384.132829 492.065038 
L 1385.371087 497.247069 
L 1386.609344 500.329957 
L 1387.847601 501.504756 
L 1389.085858 501.765087 
L 1390.324116 501.873425 
L 1391.562373 501.125362 
L 1392.80063 497.691287 
L 1394.038887 490.78333 
L 1395.277145 482.888261 
L 1396.515402 478.501909 
L 1397.753659 479.339195 
L 1398.991916 481.874148 
L 1400.230174 480.885637 
L 1401.468431 474.006877 
L 1403.944946 452.992084 
L 1405.183203 448.310027 
L 1406.42146 449.275062 
L 1407.659717 453.681503 
L 1410.136232 467.04291 
L 1411.374489 469.940987 
L 1412.612746 465.205974 
L 1413.851004 453.27281 
L 1415.089261 438.456229 
L 1416.327518 425.358059 
L 1417.565775 416.165835 
L 1418.804033 411.718249 
L 1420.04229 411.689068 
L 1421.280547 412.699654 
L 1422.518805 410.874745 
L 1423.757062 407.266433 
L 1424.995319 407.216318 
L 1426.233576 413.764091 
L 1429.948348 446.703983 
L 1431.186605 451.795061 
L 1432.424863 451.539264 
L 1433.66312 447.812987 
L 1434.901377 444.69081 
L 1436.139634 446.17728 
L 1437.377892 453.160118 
L 1439.854406 471.85838 
L 1441.092664 477.153879 
L 1442.330921 476.406608 
L 1443.569178 468.797362 
L 1444.807435 457.668197 
L 1446.045693 448.274326 
L 1447.28395 443.294907 
L 1448.522207 441.921669 
L 1450.998722 442.037072 
L 1452.236979 440.891045 
L 1453.475236 436.252519 
L 1454.713494 426.158866 
L 1455.951751 412.996295 
L 1457.190008 403.884191 
L 1458.428265 405.346843 
L 1459.666523 418.577994 
L 1463.381294 480.921772 
L 1464.619552 489.089339 
L 1465.857809 486.145368 
L 1467.096066 474.115886 
L 1468.334323 457.550644 
L 1469.572581 442.948267 
L 1470.810838 435.198218 
L 1473.287353 431.213 
L 1474.52561 424.382663 
L 1475.763867 413.9459 
L 1477.002124 406.554805 
L 1478.240382 407.944374 
L 1479.478639 418.219905 
L 1481.955153 449.666443 
L 1483.193411 461.990615 
L 1484.431668 468.809333 
L 1485.669925 470.283709 
L 1486.908182 466.511073 
L 1488.14644 459.272334 
L 1489.384697 454.563012 
L 1490.622954 458.100246 
L 1493.099469 480.248565 
L 1494.337726 486.495562 
L 1495.575983 484.874271 
L 1496.814241 475.356011 
L 1499.290755 445.16567 
L 1500.529012 435.695919 
L 1501.76727 434.818478 
L 1504.243784 444.687333 
L 1505.482041 445.476937 
L 1506.720299 443.78482 
L 1507.958556 444.394957 
L 1509.196813 450.799689 
L 1510.435071 462.222351 
L 1511.673328 476.044249 
L 1515.3881 521.508224 
L 1516.626357 530.596868 
L 1517.864614 532.232856 
L 1519.102871 526.88764 
L 1520.341129 516.380429 
L 1521.579386 501.761193 
L 1524.0559 467.291605 
L 1525.294158 455.795599 
L 1526.532415 452.654338 
L 1527.770672 456.560721 
L 1529.00893 463.276469 
L 1530.247187 468.10938 
L 1531.485444 469.529647 
L 1532.723701 470.34616 
L 1533.961959 473.954904 
L 1536.438473 486.484037 
L 1537.67673 488.076245 
L 1538.914988 484.220502 
L 1540.153245 476.548438 
L 1542.62976 457.907947 
L 1543.868017 451.269355 
L 1545.106274 448.865644 
L 1546.344531 450.560193 
L 1547.582789 454.771561 
L 1548.821046 459.701475 
L 1550.059303 463.906249 
L 1551.29756 465.785049 
L 1552.535818 464.692959 
L 1553.774075 462.772457 
L 1555.012332 463.03162 
L 1556.250589 465.926659 
L 1557.488847 469.523087 
L 1558.727104 472.58715 
L 1559.965361 476.507723 
L 1561.203619 483.780603 
L 1562.441876 494.297861 
L 1563.680133 503.551278 
L 1564.91839 505.525638 
L 1566.156648 497.495415 
L 1568.633162 466.94323 
L 1569.871419 456.925863 
L 1571.109677 454.542084 
L 1572.347934 458.294863 
L 1573.586191 463.979337 
L 1574.824448 467.408903 
L 1576.062706 467.395782 
L 1577.300963 465.100471 
L 1578.53922 461.227224 
L 1581.015735 450.567714 
L 1582.253992 448.114086 
L 1583.492249 450.485518 
L 1584.730507 457.93167 
L 1585.968764 470.032512 
L 1588.445278 501.244996 
L 1589.683536 513.516718 
L 1590.921793 519.4895 
L 1592.16005 518.195661 
L 1593.398307 511.145554 
L 1595.874822 492.910675 
L 1597.113079 485.775926 
L 1598.351337 479.934903 
L 1599.589594 475.833357 
L 1600.827851 474.420371 
L 1602.066108 474.236202 
L 1603.304366 471.629779 
L 1605.78088 458.889498 
L 1607.019137 458.204409 
L 1608.257395 463.938618 
L 1609.495652 471.650317 
L 1610.733909 478.536778 
L 1611.972166 486.064294 
L 1613.210424 496.12274 
L 1615.686938 519.307077 
L 1616.925196 525.147573 
L 1618.163453 521.048676 
L 1619.40171 504.039478 
L 1620.639967 476.029461 
L 1621.878225 444.877904 
L 1623.116482 420.534226 
L 1624.354739 409.237416 
L 1625.592996 411.167016 
L 1626.831254 422.978632 
L 1628.069511 441.072806 
L 1630.546026 481.513732 
L 1631.784283 496.450314 
L 1633.02254 504.644174 
L 1634.260797 506.13877 
L 1635.499055 503.644693 
L 1636.737312 500.388841 
L 1637.975569 496.147871 
L 1639.213826 487.281212 
L 1640.452084 471.504198 
L 1641.690341 450.898919 
L 1641.690341 450.898919 
" style="fill:none;stroke:#008000;stroke-linecap:square;stroke-width:1.5;"/>
   </g>
   <g id="patch_3">
    <path d="M 43.78125 586.86358 
L 43.78125 22.318125 
" style="fill:none;stroke:#000000;stroke-linecap:square;stroke-linejoin:miter;stroke-width:0.8;"/>
   </g>
   <g id="patch_4">
    <path d="M 1717.78125 586.86358 
L 1717.78125 22.318125 
" style="fill:none;stroke:#000000;stroke-linecap:square;stroke-linejoin:miter;stroke-width:0.8;"/>
   </g>
   <g id="patch_5">
    <path d="M 43.78125 586.86358 
L 1717.78125 586.86358 
" style="fill:none;stroke:#000000;stroke-linecap:square;stroke-linejoin:miter;stroke-width:0.8;"/>
   </g>
   <g id="patch_6">
    <path d="M 43.78125 22.318125 
L 1717.78125 22.318125 
" style="fill:none;stroke:#000000;stroke-linecap:square;stroke-linejoin:miter;stroke-width:0.8;"/>
   </g>
   <g id="text_17">
    <!-- before binarisation -->
    <g transform="translate(824.1825 16.318125)scale(0.12 -0.12)">
     <defs>
      <path d="M 3116 1747 
Q 3116 2381 2855 2742 
Q 2594 3103 2138 3103 
Q 1681 3103 1420 2742 
Q 1159 2381 1159 1747 
Q 1159 1113 1420 752 
Q 1681 391 2138 391 
Q 2594 391 2855 752 
Q 3116 1113 3116 1747 
z
M 1159 2969 
Q 1341 3281 1617 3432 
Q 1894 3584 2278 3584 
Q 2916 3584 3314 3078 
Q 3713 2572 3713 1747 
Q 3713 922 3314 415 
Q 2916 -91 2278 -91 
Q 1894 -91 1617 61 
Q 1341 213 1159 525 
L 1159 0 
L 581 0 
L 581 4863 
L 1159 4863 
L 1159 2969 
z
" id="DejaVuSans-62" transform="scale(0.015625)"/>
      <path d="M 1959 3097 
Q 1497 3097 1228 2736 
Q 959 2375 959 1747 
Q 959 1119 1226 758 
Q 1494 397 1959 397 
Q 2419 397 2687 759 
Q 2956 1122 2956 1747 
Q 2956 2369 2687 2733 
Q 2419 3097 1959 3097 
z
M 1959 3584 
Q 2709 3584 3137 3096 
Q 3566 2609 3566 1747 
Q 3566 888 3137 398 
Q 2709 -91 1959 -91 
Q 1206 -91 779 398 
Q 353 888 353 1747 
Q 353 2609 779 3096 
Q 1206 3584 1959 3584 
z
" id="DejaVuSans-6f" transform="scale(0.015625)"/>
      <path id="DejaVuSans-20" transform="scale(0.015625)"/>
      <path d="M 603 3500 
L 1178 3500 
L 1178 0 
L 603 0 
L 603 3500 
z
M 603 4863 
L 1178 4863 
L 1178 4134 
L 603 4134 
L 603 4863 
z
" id="DejaVuSans-69" transform="scale(0.015625)"/>
      <path d="M 3513 2113 
L 3513 0 
L 2938 0 
L 2938 2094 
Q 2938 2591 2744 2837 
Q 2550 3084 2163 3084 
Q 1697 3084 1428 2787 
Q 1159 2491 1159 1978 
L 1159 0 
L 581 0 
L 581 3500 
L 1159 3500 
L 1159 2956 
Q 1366 3272 1645 3428 
Q 1925 3584 2291 3584 
Q 2894 3584 3203 3211 
Q 3513 2838 3513 2113 
z
" id="DejaVuSans-6e" transform="scale(0.015625)"/>
      <path d="M 2834 3397 
L 2834 2853 
Q 2591 2978 2328 3040 
Q 2066 3103 1784 3103 
Q 1356 3103 1142 2972 
Q 928 2841 928 2578 
Q 928 2378 1081 2264 
Q 1234 2150 1697 2047 
L 1894 2003 
Q 2506 1872 2764 1633 
Q 3022 1394 3022 966 
Q 3022 478 2636 193 
Q 2250 -91 1575 -91 
Q 1294 -91 989 -36 
Q 684 19 347 128 
L 347 722 
Q 666 556 975 473 
Q 1284 391 1588 391 
Q 1994 391 2212 530 
Q 2431 669 2431 922 
Q 2431 1156 2273 1281 
Q 2116 1406 1581 1522 
L 1381 1569 
Q 847 1681 609 1914 
Q 372 2147 372 2553 
Q 372 3047 722 3315 
Q 1072 3584 1716 3584 
Q 2034 3584 2315 3537 
Q 2597 3491 2834 3397 
z
" id="DejaVuSans-73" transform="scale(0.015625)"/>
      <path d="M 1172 4494 
L 1172 3500 
L 2356 3500 
L 2356 3053 
L 1172 3053 
L 1172 1153 
Q 1172 725 1289 603 
Q 1406 481 1766 481 
L 2356 481 
L 2356 0 
L 1766 0 
Q 1100 0 847 248 
Q 594 497 594 1153 
L 594 3053 
L 172 3053 
L 172 3500 
L 594 3500 
L 594 4494 
L 1172 4494 
z
" id="DejaVuSans-74" transform="scale(0.015625)"/>
     </defs>
     <use xlink:href="#DejaVuSans-62"/>
     <use x="63.476562" xlink:href="#DejaVuSans-65"/>
     <use x="125" xlink:href="#DejaVuSans-66"/>
     <use x="160.205078" xlink:href="#DejaVuSans-6f"/>
     <use x="221.386719" xlink:href="#DejaVuSans-72"/>
     <use x="260.25" xlink:href="#DejaVuSans-65"/>
     <use x="321.773438" xlink:href="#DejaVuSans-20"/>
     <use x="353.560547" xlink:href="#DejaVuSans-62"/>
     <use x="417.037109" xlink:href="#DejaVuSans-69"/>
     <use x="444.820312" xlink:href="#DejaVuSans-6e"/>
     <use x="508.199219" xlink:href="#DejaVuSans-61"/>
     <use x="569.478516" xlink:href="#DejaVuSans-72"/>
     <use x="610.591797" xlink:href="#DejaVuSans-69"/>
     <use x="638.375" xlink:href="#DejaVuSans-73"/>
     <use x="690.474609" xlink:href="#DejaVuSans-61"/>
     <use x="751.753906" xlink:href="#DejaVuSans-74"/>
     <use x="790.962891" xlink:href="#DejaVuSans-69"/>
     <use x="818.746094" xlink:href="#DejaVuSans-6f"/>
     <use x="879.927734" xlink:href="#DejaVuSans-6e"/>
    </g>
   </g>
  </g>
  <g id="axes_2">
   <g id="patch_7">
    <path d="M 43.78125 1264.318125 
L 1717.78125 1264.318125 
L 1717.78125 699.77267 
L 43.78125 699.77267 
z
" style="fill:#ffffff;"/>
   </g>
   <g id="matplotlib.axis_3">
    <g id="xtick_8">
     <g id="line2d_16">
      <g>
       <use style="stroke:#000000;stroke-width:0.8;" x="119.872159" xlink:href="#m4d45949b97" y="1264.318125"/>
      </g>
     </g>
     <g id="text_18">
      <!-- 0 -->
      <g transform="translate(116.690909 1278.916563)scale(0.1 -0.1)">
       <use xlink:href="#DejaVuSans-30"/>
      </g>
     </g>
    </g>
    <g id="xtick_9">
     <g id="line2d_17">
      <g>
       <use style="stroke:#000000;stroke-width:0.8;" x="367.523613" xlink:href="#m4d45949b97" y="1264.318125"/>
      </g>
     </g>
     <g id="text_19">
      <!-- 200 -->
      <g transform="translate(357.979863 1278.916563)scale(0.1 -0.1)">
       <use xlink:href="#DejaVuSans-32"/>
       <use x="63.623047" xlink:href="#DejaVuSans-30"/>
       <use x="127.246094" xlink:href="#DejaVuSans-30"/>
      </g>
     </g>
    </g>
    <g id="xtick_10">
     <g id="line2d_18">
      <g>
       <use style="stroke:#000000;stroke-width:0.8;" x="615.175066" xlink:href="#m4d45949b97" y="1264.318125"/>
      </g>
     </g>
     <g id="text_20">
      <!-- 400 -->
      <g transform="translate(605.631316 1278.916563)scale(0.1 -0.1)">
       <use xlink:href="#DejaVuSans-34"/>
       <use x="63.623047" xlink:href="#DejaVuSans-30"/>
       <use x="127.246094" xlink:href="#DejaVuSans-30"/>
      </g>
     </g>
    </g>
    <g id="xtick_11">
     <g id="line2d_19">
      <g>
       <use style="stroke:#000000;stroke-width:0.8;" x="862.82652" xlink:href="#m4d45949b97" y="1264.318125"/>
      </g>
     </g>
     <g id="text_21">
      <!-- 600 -->
      <g transform="translate(853.28277 1278.916563)scale(0.1 -0.1)">
       <use xlink:href="#DejaVuSans-36"/>
       <use x="63.623047" xlink:href="#DejaVuSans-30"/>
       <use x="127.246094" xlink:href="#DejaVuSans-30"/>
      </g>
     </g>
    </g>
    <g id="xtick_12">
     <g id="line2d_20">
      <g>
       <use style="stroke:#000000;stroke-width:0.8;" x="1110.477973" xlink:href="#m4d45949b97" y="1264.318125"/>
      </g>
     </g>
     <g id="text_22">
      <!-- 800 -->
      <g transform="translate(1100.934223 1278.916563)scale(0.1 -0.1)">
       <use xlink:href="#DejaVuSans-38"/>
       <use x="63.623047" xlink:href="#DejaVuSans-30"/>
       <use x="127.246094" xlink:href="#DejaVuSans-30"/>
      </g>
     </g>
    </g>
    <g id="xtick_13">
     <g id="line2d_21">
      <g>
       <use style="stroke:#000000;stroke-width:0.8;" x="1358.129427" xlink:href="#m4d45949b97" y="1264.318125"/>
      </g>
     </g>
     <g id="text_23">
      <!-- 1000 -->
      <g transform="translate(1345.404427 1278.916563)scale(0.1 -0.1)">
       <use xlink:href="#DejaVuSans-31"/>
       <use x="63.623047" xlink:href="#DejaVuSans-30"/>
       <use x="127.246094" xlink:href="#DejaVuSans-30"/>
       <use x="190.869141" xlink:href="#DejaVuSans-30"/>
      </g>
     </g>
    </g>
    <g id="xtick_14">
     <g id="line2d_22">
      <g>
       <use style="stroke:#000000;stroke-width:0.8;" x="1605.78088" xlink:href="#m4d45949b97" y="1264.318125"/>
      </g>
     </g>
     <g id="text_24">
      <!-- 1200 -->
      <g transform="translate(1593.05588 1278.916563)scale(0.1 -0.1)">
       <use xlink:href="#DejaVuSans-31"/>
       <use x="63.623047" xlink:href="#DejaVuSans-32"/>
       <use x="127.246094" xlink:href="#DejaVuSans-30"/>
       <use x="190.869141" xlink:href="#DejaVuSans-30"/>
      </g>
     </g>
    </g>
    <g id="text_25">
     <!-- frame -->
     <g transform="translate(865.954687 1292.594688)scale(0.1 -0.1)">
      <use xlink:href="#DejaVuSans-66"/>
      <use x="35.205078" xlink:href="#DejaVuSans-72"/>
      <use x="76.318359" xlink:href="#DejaVuSans-61"/>
      <use x="137.597656" xlink:href="#DejaVuSans-6d"/>
      <use x="235.009766" xlink:href="#DejaVuSans-65"/>
     </g>
    </g>
   </g>
   <g id="matplotlib.axis_4">
    <g id="ytick_8">
     <g id="line2d_23">
      <g>
       <use style="stroke:#000000;stroke-width:0.8;" x="43.78125" xlink:href="#mbcb3d67729" y="1238.656968"/>
      </g>
     </g>
     <g id="text_26">
      <!-- 0.0 -->
      <g transform="translate(20.878125 1242.456187)scale(0.1 -0.1)">
       <use xlink:href="#DejaVuSans-30"/>
       <use x="63.623047" xlink:href="#DejaVuSans-2e"/>
       <use x="95.410156" xlink:href="#DejaVuSans-30"/>
      </g>
     </g>
    </g>
    <g id="ytick_9">
     <g id="line2d_24">
      <g>
       <use style="stroke:#000000;stroke-width:0.8;" x="43.78125" xlink:href="#mbcb3d67729" y="1136.01234"/>
      </g>
     </g>
     <g id="text_27">
      <!-- 0.2 -->
      <g transform="translate(20.878125 1139.811559)scale(0.1 -0.1)">
       <use xlink:href="#DejaVuSans-30"/>
       <use x="63.623047" xlink:href="#DejaVuSans-2e"/>
       <use x="95.410156" xlink:href="#DejaVuSans-32"/>
      </g>
     </g>
    </g>
    <g id="ytick_10">
     <g id="line2d_25">
      <g>
       <use style="stroke:#000000;stroke-width:0.8;" x="43.78125" xlink:href="#mbcb3d67729" y="1033.367712"/>
      </g>
     </g>
     <g id="text_28">
      <!-- 0.4 -->
      <g transform="translate(20.878125 1037.166931)scale(0.1 -0.1)">
       <use xlink:href="#DejaVuSans-30"/>
       <use x="63.623047" xlink:href="#DejaVuSans-2e"/>
       <use x="95.410156" xlink:href="#DejaVuSans-34"/>
      </g>
     </g>
    </g>
    <g id="ytick_11">
     <g id="line2d_26">
      <g>
       <use style="stroke:#000000;stroke-width:0.8;" x="43.78125" xlink:href="#mbcb3d67729" y="930.723084"/>
      </g>
     </g>
     <g id="text_29">
      <!-- 0.6 -->
      <g transform="translate(20.878125 934.522302)scale(0.1 -0.1)">
       <use xlink:href="#DejaVuSans-30"/>
       <use x="63.623047" xlink:href="#DejaVuSans-2e"/>
       <use x="95.410156" xlink:href="#DejaVuSans-36"/>
      </g>
     </g>
    </g>
    <g id="ytick_12">
     <g id="line2d_27">
      <g>
       <use style="stroke:#000000;stroke-width:0.8;" x="43.78125" xlink:href="#mbcb3d67729" y="828.078456"/>
      </g>
     </g>
     <g id="text_30">
      <!-- 0.8 -->
      <g transform="translate(20.878125 831.877674)scale(0.1 -0.1)">
       <use xlink:href="#DejaVuSans-30"/>
       <use x="63.623047" xlink:href="#DejaVuSans-2e"/>
       <use x="95.410156" xlink:href="#DejaVuSans-38"/>
      </g>
     </g>
    </g>
    <g id="ytick_13">
     <g id="line2d_28">
      <g>
       <use style="stroke:#000000;stroke-width:0.8;" x="43.78125" xlink:href="#mbcb3d67729" y="725.433827"/>
      </g>
     </g>
     <g id="text_31">
      <!-- 1.0 -->
      <g transform="translate(20.878125 729.233046)scale(0.1 -0.1)">
       <use xlink:href="#DejaVuSans-31"/>
       <use x="63.623047" xlink:href="#DejaVuSans-2e"/>
       <use x="95.410156" xlink:href="#DejaVuSans-30"/>
      </g>
     </g>
    </g>
    <g id="text_32">
     <!-- GCaMP -->
     <g transform="translate(14.798437 999.803991)rotate(-90)scale(0.1 -0.1)">
      <use xlink:href="#DejaVuSans-47"/>
      <use x="77.490234" xlink:href="#DejaVuSans-43"/>
      <use x="147.314453" xlink:href="#DejaVuSans-61"/>
      <use x="208.59375" xlink:href="#DejaVuSans-4d"/>
      <use x="294.873047" xlink:href="#DejaVuSans-50"/>
     </g>
    </g>
   </g>
   <g id="line2d_29">
    <path clip-path="url(#pd7987d1f31)" d="M 119.872159 1238.656968 
L 175.593736 1238.656968 
L 176.831993 725.433827 
L 434.389505 725.433827 
L 435.627762 1238.656968 
L 446.772078 1238.656968 
L 448.010335 725.433827 
L 451.725107 725.433827 
L 452.963364 1238.656968 
L 457.916393 1238.656968 
L 459.15465 725.433827 
L 465.345937 725.433827 
L 466.584194 1238.656968 
L 743.953822 1238.656968 
L 745.192079 725.433827 
L 748.906851 725.433827 
L 750.145108 1238.656968 
L 1641.690341 1238.656968 
L 1641.690341 1238.656968 
" style="fill:none;stroke:#008000;stroke-linecap:square;stroke-width:1.5;"/>
   </g>
   <g id="patch_8">
    <path d="M 43.78125 1264.318125 
L 43.78125 699.77267 
" style="fill:none;stroke:#000000;stroke-linecap:square;stroke-linejoin:miter;stroke-width:0.8;"/>
   </g>
   <g id="patch_9">
    <path d="M 1717.78125 1264.318125 
L 1717.78125 699.77267 
" style="fill:none;stroke:#000000;stroke-linecap:square;stroke-linejoin:miter;stroke-width:0.8;"/>
   </g>
   <g id="patch_10">
    <path d="M 43.78125 1264.318125 
L 1717.78125 1264.318125 
" style="fill:none;stroke:#000000;stroke-linecap:square;stroke-linejoin:miter;stroke-width:0.8;"/>
   </g>
   <g id="patch_11">
    <path d="M 43.78125 699.77267 
L 1717.78125 699.77267 
" style="fill:none;stroke:#000000;stroke-linecap:square;stroke-linejoin:miter;stroke-width:0.8;"/>
   </g>
   <g id="text_33">
    <!-- before binarisation -->
    <g transform="translate(824.1825 693.77267)scale(0.12 -0.12)">
     <use xlink:href="#DejaVuSans-62"/>
     <use x="63.476562" xlink:href="#DejaVuSans-65"/>
     <use x="125" xlink:href="#DejaVuSans-66"/>
     <use x="160.205078" xlink:href="#DejaVuSans-6f"/>
     <use x="221.386719" xlink:href="#DejaVuSans-72"/>
     <use x="260.25" xlink:href="#DejaVuSans-65"/>
     <use x="321.773438" xlink:href="#DejaVuSans-20"/>
     <use x="353.560547" xlink:href="#DejaVuSans-62"/>
     <use x="417.037109" xlink:href="#DejaVuSans-69"/>
     <use x="444.820312" xlink:href="#DejaVuSans-6e"/>
     <use x="508.199219" xlink:href="#DejaVuSans-61"/>
     <use x="569.478516" xlink:href="#DejaVuSans-72"/>
     <use x="610.591797" xlink:href="#DejaVuSans-69"/>
     <use x="638.375" xlink:href="#DejaVuSans-73"/>
     <use x="690.474609" xlink:href="#DejaVuSans-61"/>
     <use x="751.753906" xlink:href="#DejaVuSans-74"/>
     <use x="790.962891" xlink:href="#DejaVuSans-69"/>
     <use x="818.746094" xlink:href="#DejaVuSans-6f"/>
     <use x="879.927734" xlink:href="#DejaVuSans-6e"/>
    </g>
   </g>
  </g>
 </g>
 <defs>
  <clipPath id="p27d514122a">
   <rect height="564.545455" width="1674" x="43.78125" y="22.318125"/>
  </clipPath>
  <clipPath id="pd7987d1f31">
   <rect height="564.545455" width="1674" x="43.78125" y="699.77267"/>
  </clipPath>
 </defs>
</svg>
