<?xml version="1.0" encoding="utf-8" standalone="no"?>
<!DOCTYPE svg PUBLIC "-//W3C//DTD SVG 1.1//EN"
  "http://www.w3.org/Graphics/SVG/1.1/DTD/svg11.dtd">
<svg height="1301.874375pt" version="1.1" viewBox="0 0 1724.98125 1301.874375" width="1724.98125pt" xmlns="http://www.w3.org/2000/svg" xmlns:xlink="http://www.w3.org/1999/xlink">
 <metadata>
  <rdf:RDF xmlns:cc="http://creativecommons.org/ns#" xmlns:dc="http://purl.org/dc/elements/1.1/" xmlns:rdf="http://www.w3.org/1999/02/22-rdf-syntax-ns#">
   <cc:Work>
    <dc:type rdf:resource="http://purl.org/dc/dcmitype/StillImage"/>
    <dc:date>2022-07-24T15:54:44.471839</dc:date>
    <dc:format>image/svg+xml</dc:format>
    <dc:creator>
     <cc:Agent>
      <dc:title>Matplotlib v3.4.2, https://matplotlib.org/</dc:title>
     </cc:Agent>
    </dc:creator>
   </cc:Work>
  </rdf:RDF>
 </metadata>
 <defs>
  <style type="text/css">*{stroke-linecap:butt;stroke-linejoin:round;}</style>
 </defs>
 <g id="figure_1">
  <g id="patch_1">
   <path d="M 0 1301.874375 
L 1724.98125 1301.874375 
L 1724.98125 0 
L 0 0 
z
" style="fill:#ffffff;"/>
  </g>
  <g id="axes_1">
   <g id="patch_2">
    <path d="M 43.78125 586.86358 
L 1717.78125 586.86358 
L 1717.78125 22.318125 
L 43.78125 22.318125 
z
" style="fill:#ffffff;"/>
   </g>
   <g id="matplotlib.axis_1">
    <g id="xtick_1">
     <g id="line2d_1">
      <defs>
       <path d="M 0 0 
L 0 3.5 
" id="me79cc59550" style="stroke:#000000;stroke-width:0.8;"/>
      </defs>
      <g>
       <use style="stroke:#000000;stroke-width:0.8;" x="119.872159" xlink:href="#me79cc59550" y="586.86358"/>
      </g>
     </g>
     <g id="text_1">
      <!-- 0 -->
      <g transform="translate(116.690909 601.462017)scale(0.1 -0.1)">
       <defs>
        <path d="M 2034 4250 
Q 1547 4250 1301 3770 
Q 1056 3291 1056 2328 
Q 1056 1369 1301 889 
Q 1547 409 2034 409 
Q 2525 409 2770 889 
Q 3016 1369 3016 2328 
Q 3016 3291 2770 3770 
Q 2525 4250 2034 4250 
z
M 2034 4750 
Q 2819 4750 3233 4129 
Q 3647 3509 3647 2328 
Q 3647 1150 3233 529 
Q 2819 -91 2034 -91 
Q 1250 -91 836 529 
Q 422 1150 422 2328 
Q 422 3509 836 4129 
Q 1250 4750 2034 4750 
z
" id="DejaVuSans-30" transform="scale(0.015625)"/>
       </defs>
       <use xlink:href="#DejaVuSans-30"/>
      </g>
     </g>
    </g>
    <g id="xtick_2">
     <g id="line2d_2">
      <g>
       <use style="stroke:#000000;stroke-width:0.8;" x="367.523613" xlink:href="#me79cc59550" y="586.86358"/>
      </g>
     </g>
     <g id="text_2">
      <!-- 200 -->
      <g transform="translate(357.979863 601.462017)scale(0.1 -0.1)">
       <defs>
        <path d="M 1228 531 
L 3431 531 
L 3431 0 
L 469 0 
L 469 531 
Q 828 903 1448 1529 
Q 2069 2156 2228 2338 
Q 2531 2678 2651 2914 
Q 2772 3150 2772 3378 
Q 2772 3750 2511 3984 
Q 2250 4219 1831 4219 
Q 1534 4219 1204 4116 
Q 875 4013 500 3803 
L 500 4441 
Q 881 4594 1212 4672 
Q 1544 4750 1819 4750 
Q 2544 4750 2975 4387 
Q 3406 4025 3406 3419 
Q 3406 3131 3298 2873 
Q 3191 2616 2906 2266 
Q 2828 2175 2409 1742 
Q 1991 1309 1228 531 
z
" id="DejaVuSans-32" transform="scale(0.015625)"/>
       </defs>
       <use xlink:href="#DejaVuSans-32"/>
       <use x="63.623047" xlink:href="#DejaVuSans-30"/>
       <use x="127.246094" xlink:href="#DejaVuSans-30"/>
      </g>
     </g>
    </g>
    <g id="xtick_3">
     <g id="line2d_3">
      <g>
       <use style="stroke:#000000;stroke-width:0.8;" x="615.175066" xlink:href="#me79cc59550" y="586.86358"/>
      </g>
     </g>
     <g id="text_3">
      <!-- 400 -->
      <g transform="translate(605.631316 601.462017)scale(0.1 -0.1)">
       <defs>
        <path d="M 2419 4116 
L 825 1625 
L 2419 1625 
L 2419 4116 
z
M 2253 4666 
L 3047 4666 
L 3047 1625 
L 3713 1625 
L 3713 1100 
L 3047 1100 
L 3047 0 
L 2419 0 
L 2419 1100 
L 313 1100 
L 313 1709 
L 2253 4666 
z
" id="DejaVuSans-34" transform="scale(0.015625)"/>
       </defs>
       <use xlink:href="#DejaVuSans-34"/>
       <use x="63.623047" xlink:href="#DejaVuSans-30"/>
       <use x="127.246094" xlink:href="#DejaVuSans-30"/>
      </g>
     </g>
    </g>
    <g id="xtick_4">
     <g id="line2d_4">
      <g>
       <use style="stroke:#000000;stroke-width:0.8;" x="862.82652" xlink:href="#me79cc59550" y="586.86358"/>
      </g>
     </g>
     <g id="text_4">
      <!-- 600 -->
      <g transform="translate(853.28277 601.462017)scale(0.1 -0.1)">
       <defs>
        <path d="M 2113 2584 
Q 1688 2584 1439 2293 
Q 1191 2003 1191 1497 
Q 1191 994 1439 701 
Q 1688 409 2113 409 
Q 2538 409 2786 701 
Q 3034 994 3034 1497 
Q 3034 2003 2786 2293 
Q 2538 2584 2113 2584 
z
M 3366 4563 
L 3366 3988 
Q 3128 4100 2886 4159 
Q 2644 4219 2406 4219 
Q 1781 4219 1451 3797 
Q 1122 3375 1075 2522 
Q 1259 2794 1537 2939 
Q 1816 3084 2150 3084 
Q 2853 3084 3261 2657 
Q 3669 2231 3669 1497 
Q 3669 778 3244 343 
Q 2819 -91 2113 -91 
Q 1303 -91 875 529 
Q 447 1150 447 2328 
Q 447 3434 972 4092 
Q 1497 4750 2381 4750 
Q 2619 4750 2861 4703 
Q 3103 4656 3366 4563 
z
" id="DejaVuSans-36" transform="scale(0.015625)"/>
       </defs>
       <use xlink:href="#DejaVuSans-36"/>
       <use x="63.623047" xlink:href="#DejaVuSans-30"/>
       <use x="127.246094" xlink:href="#DejaVuSans-30"/>
      </g>
     </g>
    </g>
    <g id="xtick_5">
     <g id="line2d_5">
      <g>
       <use style="stroke:#000000;stroke-width:0.8;" x="1110.477973" xlink:href="#me79cc59550" y="586.86358"/>
      </g>
     </g>
     <g id="text_5">
      <!-- 800 -->
      <g transform="translate(1100.934223 601.462017)scale(0.1 -0.1)">
       <defs>
        <path d="M 2034 2216 
Q 1584 2216 1326 1975 
Q 1069 1734 1069 1313 
Q 1069 891 1326 650 
Q 1584 409 2034 409 
Q 2484 409 2743 651 
Q 3003 894 3003 1313 
Q 3003 1734 2745 1975 
Q 2488 2216 2034 2216 
z
M 1403 2484 
Q 997 2584 770 2862 
Q 544 3141 544 3541 
Q 544 4100 942 4425 
Q 1341 4750 2034 4750 
Q 2731 4750 3128 4425 
Q 3525 4100 3525 3541 
Q 3525 3141 3298 2862 
Q 3072 2584 2669 2484 
Q 3125 2378 3379 2068 
Q 3634 1759 3634 1313 
Q 3634 634 3220 271 
Q 2806 -91 2034 -91 
Q 1263 -91 848 271 
Q 434 634 434 1313 
Q 434 1759 690 2068 
Q 947 2378 1403 2484 
z
M 1172 3481 
Q 1172 3119 1398 2916 
Q 1625 2713 2034 2713 
Q 2441 2713 2670 2916 
Q 2900 3119 2900 3481 
Q 2900 3844 2670 4047 
Q 2441 4250 2034 4250 
Q 1625 4250 1398 4047 
Q 1172 3844 1172 3481 
z
" id="DejaVuSans-38" transform="scale(0.015625)"/>
       </defs>
       <use xlink:href="#DejaVuSans-38"/>
       <use x="63.623047" xlink:href="#DejaVuSans-30"/>
       <use x="127.246094" xlink:href="#DejaVuSans-30"/>
      </g>
     </g>
    </g>
    <g id="xtick_6">
     <g id="line2d_6">
      <g>
       <use style="stroke:#000000;stroke-width:0.8;" x="1358.129427" xlink:href="#me79cc59550" y="586.86358"/>
      </g>
     </g>
     <g id="text_6">
      <!-- 1000 -->
      <g transform="translate(1345.404427 601.462017)scale(0.1 -0.1)">
       <defs>
        <path d="M 794 531 
L 1825 531 
L 1825 4091 
L 703 3866 
L 703 4441 
L 1819 4666 
L 2450 4666 
L 2450 531 
L 3481 531 
L 3481 0 
L 794 0 
L 794 531 
z
" id="DejaVuSans-31" transform="scale(0.015625)"/>
       </defs>
       <use xlink:href="#DejaVuSans-31"/>
       <use x="63.623047" xlink:href="#DejaVuSans-30"/>
       <use x="127.246094" xlink:href="#DejaVuSans-30"/>
       <use x="190.869141" xlink:href="#DejaVuSans-30"/>
      </g>
     </g>
    </g>
    <g id="xtick_7">
     <g id="line2d_7">
      <g>
       <use style="stroke:#000000;stroke-width:0.8;" x="1605.78088" xlink:href="#me79cc59550" y="586.86358"/>
      </g>
     </g>
     <g id="text_7">
      <!-- 1200 -->
      <g transform="translate(1593.05588 601.462017)scale(0.1 -0.1)">
       <use xlink:href="#DejaVuSans-31"/>
       <use x="63.623047" xlink:href="#DejaVuSans-32"/>
       <use x="127.246094" xlink:href="#DejaVuSans-30"/>
       <use x="190.869141" xlink:href="#DejaVuSans-30"/>
      </g>
     </g>
    </g>
    <g id="text_8">
     <!-- frame -->
     <g transform="translate(865.954687 615.140142)scale(0.1 -0.1)">
      <defs>
       <path d="M 2375 4863 
L 2375 4384 
L 1825 4384 
Q 1516 4384 1395 4259 
Q 1275 4134 1275 3809 
L 1275 3500 
L 2222 3500 
L 2222 3053 
L 1275 3053 
L 1275 0 
L 697 0 
L 697 3053 
L 147 3053 
L 147 3500 
L 697 3500 
L 697 3744 
Q 697 4328 969 4595 
Q 1241 4863 1831 4863 
L 2375 4863 
z
" id="DejaVuSans-66" transform="scale(0.015625)"/>
       <path d="M 2631 2963 
Q 2534 3019 2420 3045 
Q 2306 3072 2169 3072 
Q 1681 3072 1420 2755 
Q 1159 2438 1159 1844 
L 1159 0 
L 581 0 
L 581 3500 
L 1159 3500 
L 1159 2956 
Q 1341 3275 1631 3429 
Q 1922 3584 2338 3584 
Q 2397 3584 2469 3576 
Q 2541 3569 2628 3553 
L 2631 2963 
z
" id="DejaVuSans-72" transform="scale(0.015625)"/>
       <path d="M 2194 1759 
Q 1497 1759 1228 1600 
Q 959 1441 959 1056 
Q 959 750 1161 570 
Q 1363 391 1709 391 
Q 2188 391 2477 730 
Q 2766 1069 2766 1631 
L 2766 1759 
L 2194 1759 
z
M 3341 1997 
L 3341 0 
L 2766 0 
L 2766 531 
Q 2569 213 2275 61 
Q 1981 -91 1556 -91 
Q 1019 -91 701 211 
Q 384 513 384 1019 
Q 384 1609 779 1909 
Q 1175 2209 1959 2209 
L 2766 2209 
L 2766 2266 
Q 2766 2663 2505 2880 
Q 2244 3097 1772 3097 
Q 1472 3097 1187 3025 
Q 903 2953 641 2809 
L 641 3341 
Q 956 3463 1253 3523 
Q 1550 3584 1831 3584 
Q 2591 3584 2966 3190 
Q 3341 2797 3341 1997 
z
" id="DejaVuSans-61" transform="scale(0.015625)"/>
       <path d="M 3328 2828 
Q 3544 3216 3844 3400 
Q 4144 3584 4550 3584 
Q 5097 3584 5394 3201 
Q 5691 2819 5691 2113 
L 5691 0 
L 5113 0 
L 5113 2094 
Q 5113 2597 4934 2840 
Q 4756 3084 4391 3084 
Q 3944 3084 3684 2787 
Q 3425 2491 3425 1978 
L 3425 0 
L 2847 0 
L 2847 2094 
Q 2847 2600 2669 2842 
Q 2491 3084 2119 3084 
Q 1678 3084 1418 2786 
Q 1159 2488 1159 1978 
L 1159 0 
L 581 0 
L 581 3500 
L 1159 3500 
L 1159 2956 
Q 1356 3278 1631 3431 
Q 1906 3584 2284 3584 
Q 2666 3584 2933 3390 
Q 3200 3197 3328 2828 
z
" id="DejaVuSans-6d" transform="scale(0.015625)"/>
       <path d="M 3597 1894 
L 3597 1613 
L 953 1613 
Q 991 1019 1311 708 
Q 1631 397 2203 397 
Q 2534 397 2845 478 
Q 3156 559 3463 722 
L 3463 178 
Q 3153 47 2828 -22 
Q 2503 -91 2169 -91 
Q 1331 -91 842 396 
Q 353 884 353 1716 
Q 353 2575 817 3079 
Q 1281 3584 2069 3584 
Q 2775 3584 3186 3129 
Q 3597 2675 3597 1894 
z
M 3022 2063 
Q 3016 2534 2758 2815 
Q 2500 3097 2075 3097 
Q 1594 3097 1305 2825 
Q 1016 2553 972 2059 
L 3022 2063 
z
" id="DejaVuSans-65" transform="scale(0.015625)"/>
      </defs>
      <use xlink:href="#DejaVuSans-66"/>
      <use x="35.205078" xlink:href="#DejaVuSans-72"/>
      <use x="76.318359" xlink:href="#DejaVuSans-61"/>
      <use x="137.597656" xlink:href="#DejaVuSans-6d"/>
      <use x="235.009766" xlink:href="#DejaVuSans-65"/>
     </g>
    </g>
   </g>
   <g id="matplotlib.axis_2">
    <g id="ytick_1">
     <g id="line2d_8">
      <defs>
       <path d="M 0 0 
L -3.5 0 
" id="mbe33a13c28" style="stroke:#000000;stroke-width:0.8;"/>
      </defs>
      <g>
       <use style="stroke:#000000;stroke-width:0.8;" x="43.78125" xlink:href="#mbe33a13c28" y="578.958294"/>
      </g>
     </g>
     <g id="text_9">
      <!-- 2.0 -->
      <g transform="translate(20.878125 582.757513)scale(0.1 -0.1)">
       <defs>
        <path d="M 684 794 
L 1344 794 
L 1344 0 
L 684 0 
L 684 794 
z
" id="DejaVuSans-2e" transform="scale(0.015625)"/>
       </defs>
       <use xlink:href="#DejaVuSans-32"/>
       <use x="63.623047" xlink:href="#DejaVuSans-2e"/>
       <use x="95.410156" xlink:href="#DejaVuSans-30"/>
      </g>
     </g>
    </g>
    <g id="ytick_2">
     <g id="line2d_9">
      <g>
       <use style="stroke:#000000;stroke-width:0.8;" x="43.78125" xlink:href="#mbe33a13c28" y="504.899759"/>
      </g>
     </g>
     <g id="text_10">
      <!-- 2.5 -->
      <g transform="translate(20.878125 508.698978)scale(0.1 -0.1)">
       <defs>
        <path d="M 691 4666 
L 3169 4666 
L 3169 4134 
L 1269 4134 
L 1269 2991 
Q 1406 3038 1543 3061 
Q 1681 3084 1819 3084 
Q 2600 3084 3056 2656 
Q 3513 2228 3513 1497 
Q 3513 744 3044 326 
Q 2575 -91 1722 -91 
Q 1428 -91 1123 -41 
Q 819 9 494 109 
L 494 744 
Q 775 591 1075 516 
Q 1375 441 1709 441 
Q 2250 441 2565 725 
Q 2881 1009 2881 1497 
Q 2881 1984 2565 2268 
Q 2250 2553 1709 2553 
Q 1456 2553 1204 2497 
Q 953 2441 691 2322 
L 691 4666 
z
" id="DejaVuSans-35" transform="scale(0.015625)"/>
       </defs>
       <use xlink:href="#DejaVuSans-32"/>
       <use x="63.623047" xlink:href="#DejaVuSans-2e"/>
       <use x="95.410156" xlink:href="#DejaVuSans-35"/>
      </g>
     </g>
    </g>
    <g id="ytick_3">
     <g id="line2d_10">
      <g>
       <use style="stroke:#000000;stroke-width:0.8;" x="43.78125" xlink:href="#mbe33a13c28" y="430.841223"/>
      </g>
     </g>
     <g id="text_11">
      <!-- 3.0 -->
      <g transform="translate(20.878125 434.640442)scale(0.1 -0.1)">
       <defs>
        <path d="M 2597 2516 
Q 3050 2419 3304 2112 
Q 3559 1806 3559 1356 
Q 3559 666 3084 287 
Q 2609 -91 1734 -91 
Q 1441 -91 1130 -33 
Q 819 25 488 141 
L 488 750 
Q 750 597 1062 519 
Q 1375 441 1716 441 
Q 2309 441 2620 675 
Q 2931 909 2931 1356 
Q 2931 1769 2642 2001 
Q 2353 2234 1838 2234 
L 1294 2234 
L 1294 2753 
L 1863 2753 
Q 2328 2753 2575 2939 
Q 2822 3125 2822 3475 
Q 2822 3834 2567 4026 
Q 2313 4219 1838 4219 
Q 1578 4219 1281 4162 
Q 984 4106 628 3988 
L 628 4550 
Q 988 4650 1302 4700 
Q 1616 4750 1894 4750 
Q 2613 4750 3031 4423 
Q 3450 4097 3450 3541 
Q 3450 3153 3228 2886 
Q 3006 2619 2597 2516 
z
" id="DejaVuSans-33" transform="scale(0.015625)"/>
       </defs>
       <use xlink:href="#DejaVuSans-33"/>
       <use x="63.623047" xlink:href="#DejaVuSans-2e"/>
       <use x="95.410156" xlink:href="#DejaVuSans-30"/>
      </g>
     </g>
    </g>
    <g id="ytick_4">
     <g id="line2d_11">
      <g>
       <use style="stroke:#000000;stroke-width:0.8;" x="43.78125" xlink:href="#mbe33a13c28" y="356.782688"/>
      </g>
     </g>
     <g id="text_12">
      <!-- 3.5 -->
      <g transform="translate(20.878125 360.581906)scale(0.1 -0.1)">
       <use xlink:href="#DejaVuSans-33"/>
       <use x="63.623047" xlink:href="#DejaVuSans-2e"/>
       <use x="95.410156" xlink:href="#DejaVuSans-35"/>
      </g>
     </g>
    </g>
    <g id="ytick_5">
     <g id="line2d_12">
      <g>
       <use style="stroke:#000000;stroke-width:0.8;" x="43.78125" xlink:href="#mbe33a13c28" y="282.724152"/>
      </g>
     </g>
     <g id="text_13">
      <!-- 4.0 -->
      <g transform="translate(20.878125 286.523371)scale(0.1 -0.1)">
       <use xlink:href="#DejaVuSans-34"/>
       <use x="63.623047" xlink:href="#DejaVuSans-2e"/>
       <use x="95.410156" xlink:href="#DejaVuSans-30"/>
      </g>
     </g>
    </g>
    <g id="ytick_6">
     <g id="line2d_13">
      <g>
       <use style="stroke:#000000;stroke-width:0.8;" x="43.78125" xlink:href="#mbe33a13c28" y="208.665617"/>
      </g>
     </g>
     <g id="text_14">
      <!-- 4.5 -->
      <g transform="translate(20.878125 212.464835)scale(0.1 -0.1)">
       <use xlink:href="#DejaVuSans-34"/>
       <use x="63.623047" xlink:href="#DejaVuSans-2e"/>
       <use x="95.410156" xlink:href="#DejaVuSans-35"/>
      </g>
     </g>
    </g>
    <g id="ytick_7">
     <g id="line2d_14">
      <g>
       <use style="stroke:#000000;stroke-width:0.8;" x="43.78125" xlink:href="#mbe33a13c28" y="134.607081"/>
      </g>
     </g>
     <g id="text_15">
      <!-- 5.0 -->
      <g transform="translate(20.878125 138.4063)scale(0.1 -0.1)">
       <use xlink:href="#DejaVuSans-35"/>
       <use x="63.623047" xlink:href="#DejaVuSans-2e"/>
       <use x="95.410156" xlink:href="#DejaVuSans-30"/>
      </g>
     </g>
    </g>
    <g id="ytick_8">
     <g id="line2d_15">
      <g>
       <use style="stroke:#000000;stroke-width:0.8;" x="43.78125" xlink:href="#mbe33a13c28" y="60.548545"/>
      </g>
     </g>
     <g id="text_16">
      <!-- 5.5 -->
      <g transform="translate(20.878125 64.347764)scale(0.1 -0.1)">
       <use xlink:href="#DejaVuSans-35"/>
       <use x="63.623047" xlink:href="#DejaVuSans-2e"/>
       <use x="95.410156" xlink:href="#DejaVuSans-35"/>
      </g>
     </g>
    </g>
    <g id="text_17">
     <!-- GCaMP -->
     <g transform="translate(14.798437 322.349446)rotate(-90)scale(0.1 -0.1)">
      <defs>
       <path d="M 3809 666 
L 3809 1919 
L 2778 1919 
L 2778 2438 
L 4434 2438 
L 4434 434 
Q 4069 175 3628 42 
Q 3188 -91 2688 -91 
Q 1594 -91 976 548 
Q 359 1188 359 2328 
Q 359 3472 976 4111 
Q 1594 4750 2688 4750 
Q 3144 4750 3555 4637 
Q 3966 4525 4313 4306 
L 4313 3634 
Q 3963 3931 3569 4081 
Q 3175 4231 2741 4231 
Q 1884 4231 1454 3753 
Q 1025 3275 1025 2328 
Q 1025 1384 1454 906 
Q 1884 428 2741 428 
Q 3075 428 3337 486 
Q 3600 544 3809 666 
z
" id="DejaVuSans-47" transform="scale(0.015625)"/>
       <path d="M 4122 4306 
L 4122 3641 
Q 3803 3938 3442 4084 
Q 3081 4231 2675 4231 
Q 1875 4231 1450 3742 
Q 1025 3253 1025 2328 
Q 1025 1406 1450 917 
Q 1875 428 2675 428 
Q 3081 428 3442 575 
Q 3803 722 4122 1019 
L 4122 359 
Q 3791 134 3420 21 
Q 3050 -91 2638 -91 
Q 1578 -91 968 557 
Q 359 1206 359 2328 
Q 359 3453 968 4101 
Q 1578 4750 2638 4750 
Q 3056 4750 3426 4639 
Q 3797 4528 4122 4306 
z
" id="DejaVuSans-43" transform="scale(0.015625)"/>
       <path d="M 628 4666 
L 1569 4666 
L 2759 1491 
L 3956 4666 
L 4897 4666 
L 4897 0 
L 4281 0 
L 4281 4097 
L 3078 897 
L 2444 897 
L 1241 4097 
L 1241 0 
L 628 0 
L 628 4666 
z
" id="DejaVuSans-4d" transform="scale(0.015625)"/>
       <path d="M 1259 4147 
L 1259 2394 
L 2053 2394 
Q 2494 2394 2734 2622 
Q 2975 2850 2975 3272 
Q 2975 3691 2734 3919 
Q 2494 4147 2053 4147 
L 1259 4147 
z
M 628 4666 
L 2053 4666 
Q 2838 4666 3239 4311 
Q 3641 3956 3641 3272 
Q 3641 2581 3239 2228 
Q 2838 1875 2053 1875 
L 1259 1875 
L 1259 0 
L 628 0 
L 628 4666 
z
" id="DejaVuSans-50" transform="scale(0.015625)"/>
      </defs>
      <use xlink:href="#DejaVuSans-47"/>
      <use x="77.490234" xlink:href="#DejaVuSans-43"/>
      <use x="147.314453" xlink:href="#DejaVuSans-61"/>
      <use x="208.59375" xlink:href="#DejaVuSans-4d"/>
      <use x="294.873047" xlink:href="#DejaVuSans-50"/>
     </g>
    </g>
   </g>
   <g id="line2d_16">
    <path clip-path="url(#p0aed53e159)" d="M 119.872159 81.084282 
L 121.110416 81.898597 
L 122.348674 80.930147 
L 124.825188 75.105858 
L 126.063445 74.173485 
L 127.301703 76.24846 
L 128.53996 81.135408 
L 129.778217 87.195246 
L 131.016474 92.365992 
L 132.254732 95.737192 
L 133.492989 97.921425 
L 134.731246 101.331812 
L 135.969504 109.435494 
L 137.207761 123.87844 
L 140.922533 179.77863 
L 142.16079 190.948358 
L 143.399047 195.496453 
L 144.637304 194.400989 
L 145.875562 190.066212 
L 147.113819 185.299404 
L 148.352076 182.262429 
L 149.590334 182.160777 
L 150.828591 185.385901 
L 152.066848 191.684582 
L 153.305105 200.334973 
L 157.019877 230.320156 
L 158.258134 236.851065 
L 159.496392 239.748519 
L 160.734649 239.336968 
L 161.972906 237.581691 
L 163.211163 237.969169 
L 164.449421 243.340345 
L 165.687678 253.920891 
L 169.40245 294.912681 
L 170.640707 302.87331 
L 171.878964 305.931438 
L 173.117222 305.20166 
L 174.355479 301.883013 
L 175.593736 296.506037 
L 176.831993 290.26747 
L 178.070251 286.166876 
L 179.308508 287.543411 
L 180.546765 294.415788 
L 181.785022 302.047901 
L 183.02328 305.836407 
L 184.261537 306.744095 
L 185.499794 309.578258 
L 186.738052 317.370459 
L 187.976309 329.210028 
L 191.691081 368.228767 
L 192.929338 378.274556 
L 194.167595 385.190055 
L 195.405852 389.705283 
L 197.882367 397.295346 
L 199.120624 401.766597 
L 200.358881 405.726807 
L 201.597139 408.131172 
L 202.835396 409.422429 
L 204.073653 411.140096 
L 205.311911 414.45839 
L 207.788425 424.794809 
L 209.026682 428.57435 
L 210.26494 429.557698 
L 212.741454 427.239896 
L 213.979711 428.406578 
L 215.217969 432.519886 
L 216.456226 438.040899 
L 217.694483 442.623853 
L 218.93274 444.487116 
L 220.170998 443.217906 
L 222.647512 437.161715 
L 223.88577 435.993333 
L 225.124027 437.366654 
L 226.362284 441.484594 
L 227.600541 447.64604 
L 230.077056 462.053464 
L 233.791828 487.048667 
L 235.030085 491.942731 
L 236.268342 492.659298 
L 237.5066 489.976492 
L 238.744857 485.448788 
L 241.221371 474.730864 
L 242.459629 471.505285 
L 243.697886 472.502327 
L 244.936143 477.533894 
L 246.1744 483.331307 
L 247.412658 486.090822 
L 248.650915 484.830181 
L 249.889172 482.150375 
L 251.127429 482.00225 
L 252.365687 486.488847 
L 254.842201 501.128479 
L 256.080459 504.113503 
L 257.318716 501.94154 
L 258.556973 495.153217 
L 261.033488 475.214684 
L 262.271745 468.943979 
L 263.510002 468.537368 
L 264.748259 472.455848 
L 265.986517 477.597679 
L 267.224774 481.914625 
L 268.463031 484.783271 
L 269.701288 486.318828 
L 270.939546 487.291597 
L 272.177803 488.82321 
L 274.654318 493.820298 
L 275.892575 495.666871 
L 277.130832 496.612844 
L 278.369089 497.092735 
L 279.607347 497.759898 
L 280.845604 499.265553 
L 282.083861 501.986917 
L 283.322118 505.758363 
L 287.03689 518.809454 
L 288.275147 522.535881 
L 289.513405 525.414859 
L 290.751662 527.911931 
L 291.989919 531.10176 
L 294.466434 539.837318 
L 295.704691 543.040158 
L 296.942948 544.12871 
L 298.181206 543.424915 
L 299.419463 541.734103 
L 300.65772 539.351304 
L 301.895977 536.359352 
L 305.610749 526.675642 
L 306.849006 525.222609 
L 308.087264 525.289102 
L 309.325521 526.145366 
L 310.563778 527.540919 
L 311.802036 529.497162 
L 313.040293 531.72765 
L 314.27855 534.22212 
L 315.516807 537.384605 
L 316.755065 540.970448 
L 317.993322 544.071026 
L 319.231579 546.287715 
L 320.469836 547.825844 
L 321.708094 548.980485 
L 322.946351 549.866211 
L 324.184608 550.173358 
L 325.422866 549.417477 
L 326.661123 546.968102 
L 327.89938 542.273361 
L 329.137637 536.248036 
L 330.375895 531.41316 
L 331.614152 529.825252 
L 332.852409 531.297045 
L 334.090666 533.747564 
L 335.328924 535.362505 
L 336.567181 536.248957 
L 337.805438 537.880276 
L 339.043695 541.157705 
L 340.281953 545.143666 
L 341.52021 547.908289 
L 342.758467 548.415854 
L 343.996725 547.206311 
L 345.234982 545.693123 
L 346.473239 545.276903 
L 347.711496 546.673159 
L 348.949754 549.553623 
L 350.188011 552.921701 
L 351.426268 555.886377 
L 352.664525 558.08052 
L 353.902783 559.50489 
L 355.14104 560.30807 
L 356.379297 560.86527 
L 357.617554 561.202423 
L 358.855812 560.490031 
L 360.094069 558.211087 
L 361.332326 554.854153 
L 362.570584 550.910364 
L 363.808841 546.392631 
L 366.285355 535.967871 
L 367.523613 531.613043 
L 368.76187 529.595285 
L 370.000127 530.42554 
L 371.238384 533.284611 
L 372.476642 536.70307 
L 373.714899 539.627472 
L 376.191413 544.388336 
L 377.429671 546.514621 
L 378.667928 546.976466 
L 379.906185 544.767421 
L 382.3827 536.853606 
L 383.620957 534.512043 
L 384.859214 533.982914 
L 386.097472 534.467151 
L 387.335729 534.706087 
L 388.573986 533.587386 
L 389.812243 530.543661 
L 391.050501 525.609303 
L 392.288758 519.0039 
L 393.527015 510.863963 
L 396.00353 492.704507 
L 397.241787 485.371903 
L 398.480044 480.340798 
L 399.718302 477.129688 
L 403.433073 469.811707 
L 404.671331 467.844765 
L 405.909588 467.258434 
L 407.147845 468.276279 
L 408.386102 470.298219 
L 410.862617 474.968041 
L 413.339132 480.49587 
L 414.577389 481.859967 
L 415.815646 479.800453 
L 417.053903 473.149153 
L 418.292161 462.187429 
L 420.768675 436.228506 
L 422.006932 428.920322 
L 423.24519 429.542612 
L 424.483447 437.510053 
L 425.721704 450.134274 
L 428.198219 479.458796 
L 429.436476 491.303145 
L 430.674733 498.243415 
L 431.912991 499.652937 
L 433.151248 496.519392 
L 434.389505 490.50923 
L 435.627762 482.480185 
L 436.86602 472.126698 
L 439.342534 447.418277 
L 440.580791 438.718624 
L 441.819049 435.72152 
L 444.295563 438.318273 
L 445.53382 435.271135 
L 446.772078 427.178529 
L 448.010335 416.618496 
L 449.248592 407.254051 
L 450.48685 401.648854 
L 451.725107 400.371228 
L 452.963364 402.043169 
L 454.201621 404.061537 
L 455.439879 404.035201 
L 456.678136 401.219606 
L 457.916393 396.561302 
L 460.392908 385.291318 
L 461.631165 378.800738 
L 462.869422 371.714561 
L 466.584194 348.243696 
L 467.822451 345.016758 
L 469.060709 347.352336 
L 470.298966 354.076843 
L 471.537223 362.108603 
L 472.77548 368.268032 
L 474.013738 371.027879 
L 475.251995 370.371025 
L 476.490252 366.922596 
L 477.728509 362.444206 
L 478.966767 359.151024 
L 481.443281 355.978131 
L 482.681538 352.890497 
L 483.919796 347.943414 
L 485.158053 342.357181 
L 486.39631 337.704179 
L 487.634568 334.930673 
L 488.872825 333.996466 
L 490.111082 333.689264 
L 491.349339 332.476142 
L 492.587597 329.595958 
L 493.825854 324.370836 
L 495.064111 315.647024 
L 496.302368 303.347371 
L 498.778883 276.207845 
L 500.01714 265.764068 
L 501.255397 259.150243 
L 502.493655 256.359487 
L 503.731912 256.146482 
L 504.970169 256.489221 
L 506.208427 255.826861 
L 507.446684 254.538008 
L 508.684941 254.370887 
L 509.923198 256.366863 
L 511.161456 260.445071 
L 513.63797 271.516196 
L 514.876227 275.289544 
L 516.114485 275.962995 
L 517.352742 273.425949 
L 518.590999 268.738863 
L 519.829257 262.928723 
L 522.305771 249.526649 
L 523.544028 242.261991 
L 524.782286 233.554854 
L 527.2588 213.869908 
L 528.497057 208.090515 
L 529.735315 207.688588 
L 530.973572 212.558644 
L 532.211829 220.469825 
L 533.450086 227.441456 
L 534.688344 229.385857 
L 535.926601 224.220323 
L 537.164858 213.581924 
L 538.403116 201.783034 
L 539.641373 192.282494 
L 540.87963 185.97556 
L 542.117887 182.358623 
L 543.356145 181.531145 
L 544.594402 184.599854 
L 545.832659 191.407755 
L 547.070916 199.128648 
L 548.309174 204.265327 
L 549.547431 205.167259 
L 550.785688 202.371831 
L 553.262203 192.374464 
L 554.50046 189.25368 
L 555.738717 190.087429 
L 556.976975 195.132914 
L 558.215232 201.864072 
L 559.453489 206.193254 
L 560.691746 204.876141 
L 561.930004 196.539792 
L 563.168261 182.312434 
L 564.406518 166.67075 
L 565.644775 156.088205 
L 566.883033 155.117155 
L 568.12129 162.773209 
L 569.359547 173.091102 
L 570.597804 180.256776 
L 571.836062 182.789404 
L 573.074319 182.857603 
L 574.312576 183.756334 
L 575.550834 187.870081 
L 576.789091 194.241717 
L 578.027348 198.650801 
L 579.265605 197.555208 
L 580.503863 190.520159 
L 582.980377 168.573517 
L 584.218634 160.194168 
L 585.456892 154.267295 
L 586.695149 149.49659 
L 587.933406 146.157924 
L 589.171663 144.5231 
L 590.409921 143.574489 
L 591.648178 142.359127 
L 592.886435 140.435222 
L 596.601207 132.411572 
L 597.839464 130.868494 
L 599.077722 130.30244 
L 600.315979 129.389538 
L 602.792493 124.926658 
L 604.030751 123.653197 
L 605.269008 123.736438 
L 606.507265 125.563361 
L 607.745523 130.217475 
L 608.98378 137.97846 
L 610.222037 146.794402 
L 611.460294 153.434098 
L 612.698552 156.303345 
L 613.936809 156.012742 
L 615.175066 153.540303 
L 616.413323 149.749256 
L 617.651581 146.617255 
L 618.889838 146.071432 
L 620.128095 147.482605 
L 621.366352 148.50682 
L 622.60461 147.585881 
L 623.842867 145.158103 
L 625.081124 143.189044 
L 626.319382 142.331288 
L 627.557639 139.775192 
L 628.795896 132.330137 
L 632.510668 98.074372 
L 633.748925 90.172374 
L 634.987182 85.035968 
L 637.463697 78.357814 
L 638.701954 73.939772 
L 639.940211 68.957784 
L 641.178469 64.618281 
L 642.416726 61.994457 
L 643.654983 61.739394 
L 644.893241 62.985446 
L 646.131498 63.540218 
L 647.369755 62.366343 
L 648.608012 59.831652 
L 649.84627 55.804654 
L 651.084527 50.845197 
L 652.322784 47.979282 
L 653.561041 50.041222 
L 654.799299 56.715564 
L 656.037556 65.332537 
L 657.275813 72.376222 
L 658.51407 74.271589 
L 659.752328 69.620206 
L 660.990585 61.270718 
L 662.228842 54.288087 
L 663.4671 52.48401 
L 664.705357 57.745821 
L 665.943614 69.649138 
L 667.181871 84.612788 
L 668.420129 97.892767 
L 669.658386 106.850941 
L 670.896643 111.620325 
L 672.1349 113.654082 
L 673.373158 114.266596 
L 674.611415 113.421776 
L 675.849672 109.781692 
L 677.087929 102.776248 
L 679.564444 85.07601 
L 680.802701 77.898076 
L 682.040959 73.108663 
L 683.279216 70.811765 
L 684.517473 70.403371 
L 685.75573 71.78976 
L 686.993988 76.249574 
L 688.232245 84.312841 
L 689.470502 93.149268 
L 690.708759 98.008621 
L 691.947017 96.107678 
L 693.185274 88.583193 
L 694.423531 79.031862 
L 695.661789 70.422212 
L 696.900046 63.966833 
L 698.138303 60.554852 
L 699.37656 61.332677 
L 700.614818 66.787446 
L 701.853075 76.360656 
L 703.091332 87.948944 
L 704.329589 98.01164 
L 705.567847 104.321654 
L 710.520876 119.030898 
L 711.759133 123.682075 
L 712.99739 128.831694 
L 714.235648 133.307851 
L 716.712162 140.380299 
L 717.950419 145.55056 
L 720.426934 158.612977 
L 721.665191 163.755636 
L 722.903448 165.815756 
L 724.141706 163.742729 
L 726.61822 152.718907 
L 727.856477 148.54296 
L 731.571249 139.25655 
L 732.809507 137.581892 
L 734.047764 135.190941 
L 735.286021 129.054716 
L 736.524278 118.15882 
L 739.000793 90.318181 
L 740.23905 80.11897 
L 741.477307 75.276113 
L 742.715565 75.039297 
L 745.192079 78.817994 
L 746.430336 79.47272 
L 747.668594 79.451312 
L 748.906851 80.067144 
L 750.145108 82.21193 
L 753.85988 91.44595 
L 755.098137 97.71426 
L 756.336395 108.599332 
L 758.812909 135.951818 
L 760.051166 148.08067 
L 761.289424 158.044513 
L 762.527681 165.783557 
L 763.765938 171.422177 
L 765.004195 174.716481 
L 766.242453 175.540023 
L 767.48071 174.380206 
L 768.718967 171.571011 
L 769.957225 166.607913 
L 771.195482 158.653222 
L 772.433739 148.619018 
L 773.671996 140.393496 
L 774.910254 137.729505 
L 776.148511 140.636992 
L 777.386768 145.987136 
L 778.625025 150.405667 
L 779.863283 152.081943 
L 781.10154 150.044852 
L 782.339797 143.040835 
L 783.578054 130.558127 
L 786.054569 99.944651 
L 787.292826 92.002307 
L 788.531084 92.273473 
L 789.769341 97.631642 
L 791.007598 104.099788 
L 792.245855 109.081344 
L 793.484113 110.613873 
L 794.72237 107.622385 
L 797.198884 94.215572 
L 798.437142 90.518473 
L 799.675399 92.640252 
L 800.913656 101.086927 
L 803.390171 125.231506 
L 804.628428 131.367052 
L 805.866685 131.416681 
L 807.104943 128.494521 
L 808.3432 125.860374 
L 809.581457 124.092874 
L 810.819714 121.234889 
L 812.057972 115.001905 
L 813.296229 104.915801 
L 814.534486 92.965613 
L 815.772743 82.688902 
L 817.011001 77.309257 
L 818.249258 77.556603 
L 819.487515 81.505879 
L 820.725773 86.897885 
L 821.96403 91.775224 
L 823.202287 93.930435 
L 824.440544 92.963038 
L 825.678802 91.33822 
L 826.917059 91.270744 
L 828.155316 92.526854 
L 829.393573 94.233984 
L 830.631831 96.996035 
L 831.870088 102.119863 
L 834.346602 117.26934 
L 835.58486 122.82842 
L 836.823117 121.991132 
L 838.061374 111.540877 
L 839.299632 94.337942 
L 840.537889 78.858037 
L 841.776146 72.377089 
L 843.014403 76.271795 
L 844.252661 87.301857 
L 847.967432 130.096182 
L 850.443947 159.77287 
L 851.682204 172.272579 
L 852.920461 179.442197 
L 854.158719 180.475666 
L 855.396976 177.090176 
L 857.873491 165.816069 
L 859.111748 162.207699 
L 860.350005 162.051454 
L 861.588262 165.260675 
L 864.064777 176.209759 
L 865.303034 178.256239 
L 866.541291 175.041459 
L 867.779549 167.749158 
L 869.017806 159.093626 
L 870.256063 151.291888 
L 871.49432 146.095015 
L 872.732578 145.688396 
L 873.970835 151.928881 
L 875.209092 164.207243 
L 876.44735 178.620835 
L 877.685607 189.91406 
L 878.923864 195.031547 
L 880.162121 194.484655 
L 881.400379 190.079166 
L 882.638636 182.808812 
L 883.876893 173.017958 
L 886.353408 151.209833 
L 887.591665 145.594761 
L 888.829922 147.398498 
L 890.06818 156.476892 
L 891.306437 170.894161 
L 892.544694 188.957612 
L 895.021209 227.492657 
L 896.259466 241.029703 
L 897.497723 247.534646 
L 898.73598 248.030979 
L 899.974238 245.716109 
L 901.212495 244.301138 
L 902.450752 247.080424 
L 903.689009 254.667927 
L 904.927267 263.805324 
L 906.165524 271.194324 
L 907.403781 275.844341 
L 908.642039 276.280143 
L 909.880296 270.32681 
L 911.118553 258.773174 
L 912.35681 245.654544 
L 913.595068 235.039286 
L 914.833325 229.355015 
L 916.071582 229.129923 
L 917.309839 232.844742 
L 918.548097 238.064682 
L 919.786354 242.625346 
L 921.024611 245.180924 
L 922.262868 246.606816 
L 923.501126 249.443123 
L 924.739383 254.145279 
L 925.97764 258.089424 
L 927.215898 259.41701 
L 928.454155 259.37698 
L 929.692412 259.645686 
L 930.930669 259.475253 
L 932.168927 256.715408 
L 933.407184 250.081857 
L 934.645441 239.506361 
L 935.883698 225.536191 
L 937.121956 209.684163 
L 938.360213 195.407254 
L 939.59847 186.952468 
L 940.836727 185.454309 
L 942.074985 187.965746 
L 943.313242 191.611068 
L 944.551499 196.138181 
L 947.028014 206.798121 
L 948.266271 209.147637 
L 949.504528 207.428597 
L 951.981043 197.781254 
L 953.2193 196.01204 
L 954.457557 197.524133 
L 956.934072 203.799861 
L 958.172329 207.216581 
L 959.410586 211.74833 
L 960.648844 217.993538 
L 963.125358 232.509092 
L 964.363616 237.934747 
L 965.601873 242.52721 
L 966.84013 248.3943 
L 969.316645 264.731515 
L 970.554902 269.77137 
L 971.793159 269.745411 
L 974.269674 262.227207 
L 975.507931 261.920463 
L 976.746188 266.981182 
L 977.984446 276.554828 
L 979.222703 287.93555 
L 980.46096 298.209745 
L 981.699217 305.185354 
L 982.937475 307.741472 
L 984.175732 305.908842 
L 985.413989 300.802406 
L 986.652246 294.181209 
L 987.890504 286.741572 
L 989.128761 278.324595 
L 990.367018 270.87218 
L 991.605275 268.224796 
L 992.843533 272.710913 
L 994.08179 283.31423 
L 997.796562 322.030766 
L 999.034819 333.293086 
L 1000.273076 340.949038 
L 1001.511334 342.876867 
L 1003.987848 338.473898 
L 1005.226105 337.922574 
L 1006.464363 338.183659 
L 1007.70262 337.462587 
L 1008.940877 334.260765 
L 1010.179134 329.216548 
L 1011.417392 324.834916 
L 1012.655649 322.408059 
L 1013.893906 321.8812 
L 1015.132164 323.937278 
L 1016.370421 329.760962 
L 1017.608678 339.702938 
L 1021.32345 377.368709 
L 1022.561707 386.386912 
L 1025.038222 401.820099 
L 1026.276479 411.098599 
L 1027.514736 419.335062 
L 1028.752993 423.799977 
L 1029.991251 424.137622 
L 1031.229508 420.900996 
L 1032.467765 414.378343 
L 1033.706023 406.162188 
L 1034.94428 399.399809 
L 1036.182537 396.729134 
L 1037.420794 398.285822 
L 1038.659052 401.79201 
L 1039.897309 404.515219 
L 1041.135566 405.003054 
L 1043.612081 402.441851 
L 1044.850338 401.489502 
L 1046.088595 399.532438 
L 1047.326852 396.274512 
L 1048.56511 394.196125 
L 1049.803367 395.867424 
L 1051.041624 401.197258 
L 1053.518139 414.720598 
L 1054.756396 418.935975 
L 1055.994653 420.696171 
L 1057.232911 422.034361 
L 1058.471168 425.065907 
L 1059.709425 429.399212 
L 1060.947682 432.145511 
L 1062.18594 430.420183 
L 1063.424197 423.705966 
L 1064.662454 414.387514 
L 1065.900711 406.568149 
L 1067.138969 403.201205 
L 1068.377226 404.031587 
L 1070.853741 410.368293 
L 1072.091998 411.56758 
L 1073.330255 408.913372 
L 1074.568512 403.405846 
L 1075.80677 398.555246 
L 1077.045027 397.752948 
L 1078.283284 401.911848 
L 1080.759799 415.708993 
L 1081.998056 419.409922 
L 1083.236313 418.087111 
L 1085.712828 406.742264 
L 1086.951085 404.932677 
L 1088.189342 406.362086 
L 1089.4276 407.609605 
L 1090.665857 406.935811 
L 1091.904114 405.911618 
L 1093.142371 407.651441 
L 1094.380629 414.380384 
L 1095.618886 425.708608 
L 1096.857143 438.804107 
L 1098.0954 450.214952 
L 1099.333658 457.641393 
L 1100.571915 460.840668 
L 1101.810172 460.732853 
L 1103.04843 457.741836 
L 1104.286687 451.863624 
L 1105.524944 444.335001 
L 1106.763201 438.474674 
L 1108.001459 437.538243 
L 1109.239716 441.381981 
L 1110.477973 446.512741 
L 1111.71623 449.599294 
L 1112.954488 450.474858 
L 1114.192745 451.935293 
L 1115.431002 456.335485 
L 1116.669259 463.164079 
L 1119.145774 478.108384 
L 1120.384031 485.030568 
L 1121.622289 490.218278 
L 1122.860546 491.306915 
L 1124.098803 486.767242 
L 1125.33706 477.619799 
L 1129.051832 444.69389 
L 1130.290089 435.286099 
L 1131.528347 428.422687 
L 1132.766604 426.229163 
L 1134.004861 428.6729 
L 1136.481376 438.477045 
L 1137.719633 441.938316 
L 1138.95789 446.052436 
L 1140.196148 454.755795 
L 1141.434405 468.897509 
L 1142.672662 484.673829 
L 1143.910919 496.243265 
L 1145.149177 499.682946 
L 1146.387434 496.568532 
L 1147.625691 492.040047 
L 1148.863948 488.431168 
L 1150.102206 483.868256 
L 1152.57872 471.065767 
L 1153.816977 468.971679 
L 1155.055235 471.686264 
L 1156.293492 477.836117 
L 1158.770007 493.028969 
L 1160.008264 496.683106 
L 1161.246521 494.405276 
L 1162.484778 487.347977 
L 1163.723036 479.576909 
L 1164.961293 475.347789 
L 1166.19955 476.907273 
L 1167.437807 483.621977 
L 1168.676065 492.645988 
L 1169.914322 500.803298 
L 1171.152579 506.342032 
L 1172.390837 509.449847 
L 1173.629094 511.178357 
L 1178.582123 516.273828 
L 1179.82038 518.024412 
L 1181.058637 520.924417 
L 1182.296895 524.567755 
L 1183.535152 527.427026 
L 1184.773409 527.668256 
L 1186.011666 523.818723 
L 1187.249924 515.744586 
L 1190.964696 484.278908 
L 1192.202953 475.717785 
L 1193.44121 471.000011 
L 1194.679467 471.549875 
L 1195.917725 476.930819 
L 1197.155982 486.140227 
L 1199.632496 508.303135 
L 1200.870754 515.971792 
L 1202.109011 519.838231 
L 1203.347268 521.072036 
L 1204.585525 522.036115 
L 1205.823783 524.59498 
L 1208.300297 533.078448 
L 1209.538555 536.233813 
L 1210.776812 535.713404 
L 1212.015069 528.333723 
L 1213.253326 513.359072 
L 1214.491584 494.745341 
L 1215.729841 478.998628 
L 1216.968098 471.276483 
L 1218.206355 473.076815 
L 1219.444613 482.129916 
L 1223.159384 520.397519 
L 1224.397642 529.256498 
L 1225.635899 534.033728 
L 1226.874156 534.700779 
L 1228.112414 531.482207 
L 1229.350671 525.296866 
L 1230.588928 517.317485 
L 1233.065443 500.299526 
L 1234.3037 495.396364 
L 1235.541957 494.738473 
L 1236.780214 497.75446 
L 1239.256729 507.916858 
L 1240.494986 509.820137 
L 1241.733243 508.108003 
L 1244.209758 500.700832 
L 1245.448015 497.956071 
L 1246.686273 496.300449 
L 1247.92453 495.454327 
L 1249.162787 495.052086 
L 1251.639302 494.671215 
L 1252.877559 494.745563 
L 1254.115816 495.426308 
L 1255.354073 497.287396 
L 1256.592331 500.815911 
L 1259.068845 510.410672 
L 1260.307103 512.537008 
L 1261.54536 510.597226 
L 1262.783617 505.214869 
L 1264.021874 498.966888 
L 1265.260132 494.997324 
L 1266.498389 495.497223 
L 1267.736646 500.180548 
L 1268.974903 506.179986 
L 1270.213161 510.490403 
L 1271.451418 511.878099 
L 1272.689675 510.588541 
L 1273.927932 507.824616 
L 1275.16619 505.353313 
L 1276.404447 504.72688 
L 1277.642704 506.658953 
L 1280.119219 514.687036 
L 1281.357476 516.960411 
L 1282.595733 517.190161 
L 1283.833991 516.709735 
L 1285.072248 516.595978 
L 1286.310505 516.711 
L 1287.548762 516.401502 
L 1288.78702 515.344372 
L 1290.025277 513.023846 
L 1291.263534 507.964365 
L 1292.501791 499.003705 
L 1296.216563 463.358367 
L 1297.454821 457.924167 
L 1298.693078 459.845678 
L 1299.931335 467.581875 
L 1301.169592 476.920237 
L 1302.40785 484.294435 
L 1303.646107 488.313112 
L 1304.884364 489.257253 
L 1306.122621 488.596205 
L 1307.360879 487.649115 
L 1308.599136 486.41732 
L 1309.837393 484.828126 
L 1311.07565 483.938082 
L 1312.313908 485.168958 
L 1313.552165 488.973351 
L 1314.790422 493.876423 
L 1316.02868 497.187803 
L 1317.266937 498.000382 
L 1318.505194 498.665648 
L 1319.743451 501.730988 
L 1320.981709 506.438515 
L 1322.219966 509.380734 
L 1323.458223 507.868422 
L 1324.69648 501.818134 
L 1325.934738 492.79152 
L 1327.172995 482.937272 
L 1328.411252 474.657617 
L 1329.649509 469.092543 
L 1330.887767 465.662526 
L 1332.126024 464.116655 
L 1333.364281 464.876241 
L 1334.602539 467.094139 
L 1335.840796 468.352215 
L 1337.079053 466.850727 
L 1338.31731 463.165378 
L 1342.032082 450.311762 
L 1343.270339 446.751422 
L 1344.508597 445.099543 
L 1345.746854 446.159746 
L 1346.985111 450.195073 
L 1348.223368 456.726414 
L 1350.699883 471.766259 
L 1353.176398 484.638994 
L 1354.414655 490.750387 
L 1355.652912 495.001888 
L 1356.891169 495.782971 
L 1358.129427 492.912158 
L 1359.367684 487.076711 
L 1360.605941 478.960022 
L 1361.844198 468.850095 
L 1364.320713 445.920752 
L 1365.55897 439.995831 
L 1366.797228 442.549987 
L 1368.035485 452.889358 
L 1369.273742 467.109548 
L 1370.511999 479.742254 
L 1371.750257 486.360585 
L 1372.988514 485.9578 
L 1375.465028 475.357312 
L 1376.703286 473.266577 
L 1377.941543 475.306355 
L 1379.1798 478.092085 
L 1380.418057 477.11383 
L 1381.656315 470.97151 
L 1382.894572 462.539557 
L 1384.132829 455.993677 
L 1385.371087 453.133868 
L 1386.609344 452.82655 
L 1387.847601 453.449252 
L 1389.085858 455.109088 
L 1390.324116 459.444401 
L 1391.562373 467.451154 
L 1394.038887 487.253546 
L 1395.277145 493.766626 
L 1396.515402 497.303592 
L 1397.753659 499.257351 
L 1398.991916 500.388051 
L 1400.230174 500.310751 
L 1401.468431 498.591372 
L 1402.706688 495.49028 
L 1403.944946 492.026681 
L 1405.183203 489.656613 
L 1406.42146 489.212336 
L 1407.659717 490.223706 
L 1408.897975 491.444654 
L 1410.136232 491.569455 
L 1411.374489 489.6652 
L 1413.851004 481.89601 
L 1415.089261 479.220989 
L 1416.327518 478.1151 
L 1418.804033 477.333529 
L 1420.04229 477.30338 
L 1421.280547 478.360818 
L 1422.518805 481.010662 
L 1424.995319 489.520594 
L 1426.233576 492.128283 
L 1427.471834 491.547206 
L 1428.710091 487.644945 
L 1431.186605 474.647175 
L 1432.424863 470.628476 
L 1433.66312 471.241026 
L 1434.901377 475.895511 
L 1436.139634 482.040776 
L 1437.377892 486.826972 
L 1438.616149 488.112663 
L 1439.854406 485.205466 
L 1442.330921 474.04473 
L 1443.569178 470.646332 
L 1444.807435 469.201598 
L 1446.045693 468.266841 
L 1448.522207 465.556479 
L 1449.760464 464.754876 
L 1450.998722 464.35346 
L 1452.236979 463.762837 
L 1453.475236 462.806377 
L 1454.713494 462.07309 
L 1455.951751 462.587235 
L 1458.428265 466.406636 
L 1459.666523 466.661798 
L 1460.90478 465.144121 
L 1462.143037 463.096119 
L 1463.381294 462.084464 
L 1464.619552 462.699445 
L 1465.857809 463.988571 
L 1467.096066 464.516094 
L 1468.334323 463.646888 
L 1469.572581 461.850851 
L 1470.810838 460.398732 
L 1472.049095 460.404538 
L 1473.287353 461.493469 
L 1474.52561 462.017576 
L 1475.763867 460.912755 
L 1477.002124 458.384226 
L 1479.478639 451.674629 
L 1480.716896 449.252371 
L 1481.955153 448.385503 
L 1483.193411 448.682173 
L 1484.431668 449.844846 
L 1485.669925 452.67426 
L 1486.908182 457.684891 
L 1489.384697 469.459205 
L 1491.861212 479.853131 
L 1493.099469 484.504097 
L 1494.337726 486.441607 
L 1495.575983 483.678636 
L 1496.814241 476.860561 
L 1498.052498 468.889239 
L 1499.290755 462.613167 
L 1500.529012 459.406903 
L 1501.76727 459.081249 
L 1503.005527 460.789992 
L 1504.243784 464.087734 
L 1505.482041 468.9517 
L 1506.720299 475.312464 
L 1509.196813 491.105318 
L 1510.435071 496.906151 
L 1511.673328 497.773584 
L 1512.911585 493.958339 
L 1514.149842 487.58267 
L 1515.3881 479.458643 
L 1516.626357 468.430518 
L 1517.864614 453.511481 
L 1519.102871 436.321334 
L 1520.341129 421.575329 
L 1521.579386 414.165705 
L 1522.817643 415.02038 
L 1524.0559 421.43281 
L 1525.294158 431.27554 
L 1527.770672 456.344195 
L 1529.00893 465.811926 
L 1530.247187 470.802849 
L 1531.485444 471.905058 
L 1532.723701 469.872066 
L 1533.961959 466.062259 
L 1535.200216 462.761458 
L 1536.438473 461.57498 
L 1537.67673 462.286167 
L 1538.914988 463.476008 
L 1540.153245 463.510341 
L 1541.391502 460.975869 
L 1542.62976 454.722384 
L 1543.868017 444.171074 
L 1545.106274 430.818564 
L 1546.344531 419.210977 
L 1547.582789 414.259544 
L 1548.821046 417.240579 
L 1550.059303 425.960586 
L 1552.535818 450.717871 
L 1553.774075 460.589264 
L 1555.012332 464.405587 
L 1556.250589 462.247905 
L 1557.488847 456.275045 
L 1561.203619 433.256637 
L 1562.441876 427.472364 
L 1563.680133 423.321048 
L 1564.91839 420.493401 
L 1566.156648 417.195302 
L 1567.394905 411.306541 
L 1568.633162 402.846425 
L 1569.871419 393.594344 
L 1571.109677 385.471255 
L 1572.347934 380.051655 
L 1573.586191 377.659143 
L 1574.824448 376.514357 
L 1576.062706 374.508064 
L 1577.300963 372.816316 
L 1578.53922 375.638043 
L 1579.777478 384.237187 
L 1581.015735 394.495403 
L 1582.253992 402.539063 
L 1584.730507 414.418613 
L 1585.968764 419.301546 
L 1587.207021 422.580466 
L 1588.445278 424.675836 
L 1589.683536 425.581561 
L 1590.921793 423.812513 
L 1592.16005 418.095325 
L 1595.874822 391.145234 
L 1597.113079 385.279843 
L 1598.351337 382.644859 
L 1599.589594 384.276305 
L 1600.827851 391.328539 
L 1602.066108 403.543951 
L 1604.542623 432.7278 
L 1605.78088 444.28108 
L 1607.019137 453.24453 
L 1608.257395 459.525448 
L 1609.495652 460.475243 
L 1610.733909 452.713 
L 1611.972166 436.169889 
L 1613.210424 415.94671 
L 1614.448681 399.244811 
L 1615.686938 389.426321 
L 1616.925196 384.905459 
L 1618.163453 383.372733 
L 1619.40171 383.620686 
L 1620.639967 384.835507 
L 1621.878225 386.789126 
L 1623.116482 389.604234 
L 1624.354739 393.057096 
L 1625.592996 396.161515 
L 1626.831254 396.802803 
L 1628.069511 393.255851 
L 1630.546026 380.594695 
L 1631.784283 378.425997 
L 1633.02254 381.680331 
L 1634.260797 389.839062 
L 1635.499055 400.457951 
L 1636.737312 409.273711 
L 1637.975569 412.259731 
L 1639.213826 407.860747 
L 1640.452084 396.206854 
L 1641.690341 379.299973 
L 1641.690341 379.299973 
" style="fill:none;stroke:#008000;stroke-linecap:square;stroke-width:1.5;"/>
   </g>
   <g id="patch_3">
    <path d="M 43.78125 586.86358 
L 43.78125 22.318125 
" style="fill:none;stroke:#000000;stroke-linecap:square;stroke-linejoin:miter;stroke-width:0.8;"/>
   </g>
   <g id="patch_4">
    <path d="M 1717.78125 586.86358 
L 1717.78125 22.318125 
" style="fill:none;stroke:#000000;stroke-linecap:square;stroke-linejoin:miter;stroke-width:0.8;"/>
   </g>
   <g id="patch_5">
    <path d="M 43.78125 586.86358 
L 1717.78125 586.86358 
" style="fill:none;stroke:#000000;stroke-linecap:square;stroke-linejoin:miter;stroke-width:0.8;"/>
   </g>
   <g id="patch_6">
    <path d="M 43.78125 22.318125 
L 1717.78125 22.318125 
" style="fill:none;stroke:#000000;stroke-linecap:square;stroke-linejoin:miter;stroke-width:0.8;"/>
   </g>
   <g id="text_18">
    <!-- before binarisation -->
    <g transform="translate(824.1825 16.318125)scale(0.12 -0.12)">
     <defs>
      <path d="M 3116 1747 
Q 3116 2381 2855 2742 
Q 2594 3103 2138 3103 
Q 1681 3103 1420 2742 
Q 1159 2381 1159 1747 
Q 1159 1113 1420 752 
Q 1681 391 2138 391 
Q 2594 391 2855 752 
Q 3116 1113 3116 1747 
z
M 1159 2969 
Q 1341 3281 1617 3432 
Q 1894 3584 2278 3584 
Q 2916 3584 3314 3078 
Q 3713 2572 3713 1747 
Q 3713 922 3314 415 
Q 2916 -91 2278 -91 
Q 1894 -91 1617 61 
Q 1341 213 1159 525 
L 1159 0 
L 581 0 
L 581 4863 
L 1159 4863 
L 1159 2969 
z
" id="DejaVuSans-62" transform="scale(0.015625)"/>
      <path d="M 1959 3097 
Q 1497 3097 1228 2736 
Q 959 2375 959 1747 
Q 959 1119 1226 758 
Q 1494 397 1959 397 
Q 2419 397 2687 759 
Q 2956 1122 2956 1747 
Q 2956 2369 2687 2733 
Q 2419 3097 1959 3097 
z
M 1959 3584 
Q 2709 3584 3137 3096 
Q 3566 2609 3566 1747 
Q 3566 888 3137 398 
Q 2709 -91 1959 -91 
Q 1206 -91 779 398 
Q 353 888 353 1747 
Q 353 2609 779 3096 
Q 1206 3584 1959 3584 
z
" id="DejaVuSans-6f" transform="scale(0.015625)"/>
      <path id="DejaVuSans-20" transform="scale(0.015625)"/>
      <path d="M 603 3500 
L 1178 3500 
L 1178 0 
L 603 0 
L 603 3500 
z
M 603 4863 
L 1178 4863 
L 1178 4134 
L 603 4134 
L 603 4863 
z
" id="DejaVuSans-69" transform="scale(0.015625)"/>
      <path d="M 3513 2113 
L 3513 0 
L 2938 0 
L 2938 2094 
Q 2938 2591 2744 2837 
Q 2550 3084 2163 3084 
Q 1697 3084 1428 2787 
Q 1159 2491 1159 1978 
L 1159 0 
L 581 0 
L 581 3500 
L 1159 3500 
L 1159 2956 
Q 1366 3272 1645 3428 
Q 1925 3584 2291 3584 
Q 2894 3584 3203 3211 
Q 3513 2838 3513 2113 
z
" id="DejaVuSans-6e" transform="scale(0.015625)"/>
      <path d="M 2834 3397 
L 2834 2853 
Q 2591 2978 2328 3040 
Q 2066 3103 1784 3103 
Q 1356 3103 1142 2972 
Q 928 2841 928 2578 
Q 928 2378 1081 2264 
Q 1234 2150 1697 2047 
L 1894 2003 
Q 2506 1872 2764 1633 
Q 3022 1394 3022 966 
Q 3022 478 2636 193 
Q 2250 -91 1575 -91 
Q 1294 -91 989 -36 
Q 684 19 347 128 
L 347 722 
Q 666 556 975 473 
Q 1284 391 1588 391 
Q 1994 391 2212 530 
Q 2431 669 2431 922 
Q 2431 1156 2273 1281 
Q 2116 1406 1581 1522 
L 1381 1569 
Q 847 1681 609 1914 
Q 372 2147 372 2553 
Q 372 3047 722 3315 
Q 1072 3584 1716 3584 
Q 2034 3584 2315 3537 
Q 2597 3491 2834 3397 
z
" id="DejaVuSans-73" transform="scale(0.015625)"/>
      <path d="M 1172 4494 
L 1172 3500 
L 2356 3500 
L 2356 3053 
L 1172 3053 
L 1172 1153 
Q 1172 725 1289 603 
Q 1406 481 1766 481 
L 2356 481 
L 2356 0 
L 1766 0 
Q 1100 0 847 248 
Q 594 497 594 1153 
L 594 3053 
L 172 3053 
L 172 3500 
L 594 3500 
L 594 4494 
L 1172 4494 
z
" id="DejaVuSans-74" transform="scale(0.015625)"/>
     </defs>
     <use xlink:href="#DejaVuSans-62"/>
     <use x="63.476562" xlink:href="#DejaVuSans-65"/>
     <use x="125" xlink:href="#DejaVuSans-66"/>
     <use x="160.205078" xlink:href="#DejaVuSans-6f"/>
     <use x="221.386719" xlink:href="#DejaVuSans-72"/>
     <use x="260.25" xlink:href="#DejaVuSans-65"/>
     <use x="321.773438" xlink:href="#DejaVuSans-20"/>
     <use x="353.560547" xlink:href="#DejaVuSans-62"/>
     <use x="417.037109" xlink:href="#DejaVuSans-69"/>
     <use x="444.820312" xlink:href="#DejaVuSans-6e"/>
     <use x="508.199219" xlink:href="#DejaVuSans-61"/>
     <use x="569.478516" xlink:href="#DejaVuSans-72"/>
     <use x="610.591797" xlink:href="#DejaVuSans-69"/>
     <use x="638.375" xlink:href="#DejaVuSans-73"/>
     <use x="690.474609" xlink:href="#DejaVuSans-61"/>
     <use x="751.753906" xlink:href="#DejaVuSans-74"/>
     <use x="790.962891" xlink:href="#DejaVuSans-69"/>
     <use x="818.746094" xlink:href="#DejaVuSans-6f"/>
     <use x="879.927734" xlink:href="#DejaVuSans-6e"/>
    </g>
   </g>
  </g>
  <g id="axes_2">
   <g id="patch_7">
    <path d="M 43.78125 1264.318125 
L 1717.78125 1264.318125 
L 1717.78125 699.77267 
L 43.78125 699.77267 
z
" style="fill:#ffffff;"/>
   </g>
   <g id="matplotlib.axis_3">
    <g id="xtick_8">
     <g id="line2d_17">
      <g>
       <use style="stroke:#000000;stroke-width:0.8;" x="119.872159" xlink:href="#me79cc59550" y="1264.318125"/>
      </g>
     </g>
     <g id="text_19">
      <!-- 0 -->
      <g transform="translate(116.690909 1278.916563)scale(0.1 -0.1)">
       <use xlink:href="#DejaVuSans-30"/>
      </g>
     </g>
    </g>
    <g id="xtick_9">
     <g id="line2d_18">
      <g>
       <use style="stroke:#000000;stroke-width:0.8;" x="367.523613" xlink:href="#me79cc59550" y="1264.318125"/>
      </g>
     </g>
     <g id="text_20">
      <!-- 200 -->
      <g transform="translate(357.979863 1278.916563)scale(0.1 -0.1)">
       <use xlink:href="#DejaVuSans-32"/>
       <use x="63.623047" xlink:href="#DejaVuSans-30"/>
       <use x="127.246094" xlink:href="#DejaVuSans-30"/>
      </g>
     </g>
    </g>
    <g id="xtick_10">
     <g id="line2d_19">
      <g>
       <use style="stroke:#000000;stroke-width:0.8;" x="615.175066" xlink:href="#me79cc59550" y="1264.318125"/>
      </g>
     </g>
     <g id="text_21">
      <!-- 400 -->
      <g transform="translate(605.631316 1278.916563)scale(0.1 -0.1)">
       <use xlink:href="#DejaVuSans-34"/>
       <use x="63.623047" xlink:href="#DejaVuSans-30"/>
       <use x="127.246094" xlink:href="#DejaVuSans-30"/>
      </g>
     </g>
    </g>
    <g id="xtick_11">
     <g id="line2d_20">
      <g>
       <use style="stroke:#000000;stroke-width:0.8;" x="862.82652" xlink:href="#me79cc59550" y="1264.318125"/>
      </g>
     </g>
     <g id="text_22">
      <!-- 600 -->
      <g transform="translate(853.28277 1278.916563)scale(0.1 -0.1)">
       <use xlink:href="#DejaVuSans-36"/>
       <use x="63.623047" xlink:href="#DejaVuSans-30"/>
       <use x="127.246094" xlink:href="#DejaVuSans-30"/>
      </g>
     </g>
    </g>
    <g id="xtick_12">
     <g id="line2d_21">
      <g>
       <use style="stroke:#000000;stroke-width:0.8;" x="1110.477973" xlink:href="#me79cc59550" y="1264.318125"/>
      </g>
     </g>
     <g id="text_23">
      <!-- 800 -->
      <g transform="translate(1100.934223 1278.916563)scale(0.1 -0.1)">
       <use xlink:href="#DejaVuSans-38"/>
       <use x="63.623047" xlink:href="#DejaVuSans-30"/>
       <use x="127.246094" xlink:href="#DejaVuSans-30"/>
      </g>
     </g>
    </g>
    <g id="xtick_13">
     <g id="line2d_22">
      <g>
       <use style="stroke:#000000;stroke-width:0.8;" x="1358.129427" xlink:href="#me79cc59550" y="1264.318125"/>
      </g>
     </g>
     <g id="text_24">
      <!-- 1000 -->
      <g transform="translate(1345.404427 1278.916563)scale(0.1 -0.1)">
       <use xlink:href="#DejaVuSans-31"/>
       <use x="63.623047" xlink:href="#DejaVuSans-30"/>
       <use x="127.246094" xlink:href="#DejaVuSans-30"/>
       <use x="190.869141" xlink:href="#DejaVuSans-30"/>
      </g>
     </g>
    </g>
    <g id="xtick_14">
     <g id="line2d_23">
      <g>
       <use style="stroke:#000000;stroke-width:0.8;" x="1605.78088" xlink:href="#me79cc59550" y="1264.318125"/>
      </g>
     </g>
     <g id="text_25">
      <!-- 1200 -->
      <g transform="translate(1593.05588 1278.916563)scale(0.1 -0.1)">
       <use xlink:href="#DejaVuSans-31"/>
       <use x="63.623047" xlink:href="#DejaVuSans-32"/>
       <use x="127.246094" xlink:href="#DejaVuSans-30"/>
       <use x="190.869141" xlink:href="#DejaVuSans-30"/>
      </g>
     </g>
    </g>
    <g id="text_26">
     <!-- frame -->
     <g transform="translate(865.954687 1292.594688)scale(0.1 -0.1)">
      <use xlink:href="#DejaVuSans-66"/>
      <use x="35.205078" xlink:href="#DejaVuSans-72"/>
      <use x="76.318359" xlink:href="#DejaVuSans-61"/>
      <use x="137.597656" xlink:href="#DejaVuSans-6d"/>
      <use x="235.009766" xlink:href="#DejaVuSans-65"/>
     </g>
    </g>
   </g>
   <g id="matplotlib.axis_4">
    <g id="ytick_9">
     <g id="line2d_24">
      <g>
       <use style="stroke:#000000;stroke-width:0.8;" x="43.78125" xlink:href="#mbe33a13c28" y="1238.656968"/>
      </g>
     </g>
     <g id="text_27">
      <!-- 0.0 -->
      <g transform="translate(20.878125 1242.456187)scale(0.1 -0.1)">
       <use xlink:href="#DejaVuSans-30"/>
       <use x="63.623047" xlink:href="#DejaVuSans-2e"/>
       <use x="95.410156" xlink:href="#DejaVuSans-30"/>
      </g>
     </g>
    </g>
    <g id="ytick_10">
     <g id="line2d_25">
      <g>
       <use style="stroke:#000000;stroke-width:0.8;" x="43.78125" xlink:href="#mbe33a13c28" y="1136.01234"/>
      </g>
     </g>
     <g id="text_28">
      <!-- 0.2 -->
      <g transform="translate(20.878125 1139.811559)scale(0.1 -0.1)">
       <use xlink:href="#DejaVuSans-30"/>
       <use x="63.623047" xlink:href="#DejaVuSans-2e"/>
       <use x="95.410156" xlink:href="#DejaVuSans-32"/>
      </g>
     </g>
    </g>
    <g id="ytick_11">
     <g id="line2d_26">
      <g>
       <use style="stroke:#000000;stroke-width:0.8;" x="43.78125" xlink:href="#mbe33a13c28" y="1033.367712"/>
      </g>
     </g>
     <g id="text_29">
      <!-- 0.4 -->
      <g transform="translate(20.878125 1037.166931)scale(0.1 -0.1)">
       <use xlink:href="#DejaVuSans-30"/>
       <use x="63.623047" xlink:href="#DejaVuSans-2e"/>
       <use x="95.410156" xlink:href="#DejaVuSans-34"/>
      </g>
     </g>
    </g>
    <g id="ytick_12">
     <g id="line2d_27">
      <g>
       <use style="stroke:#000000;stroke-width:0.8;" x="43.78125" xlink:href="#mbe33a13c28" y="930.723084"/>
      </g>
     </g>
     <g id="text_30">
      <!-- 0.6 -->
      <g transform="translate(20.878125 934.522302)scale(0.1 -0.1)">
       <use xlink:href="#DejaVuSans-30"/>
       <use x="63.623047" xlink:href="#DejaVuSans-2e"/>
       <use x="95.410156" xlink:href="#DejaVuSans-36"/>
      </g>
     </g>
    </g>
    <g id="ytick_13">
     <g id="line2d_28">
      <g>
       <use style="stroke:#000000;stroke-width:0.8;" x="43.78125" xlink:href="#mbe33a13c28" y="828.078456"/>
      </g>
     </g>
     <g id="text_31">
      <!-- 0.8 -->
      <g transform="translate(20.878125 831.877674)scale(0.1 -0.1)">
       <use xlink:href="#DejaVuSans-30"/>
       <use x="63.623047" xlink:href="#DejaVuSans-2e"/>
       <use x="95.410156" xlink:href="#DejaVuSans-38"/>
      </g>
     </g>
    </g>
    <g id="ytick_14">
     <g id="line2d_29">
      <g>
       <use style="stroke:#000000;stroke-width:0.8;" x="43.78125" xlink:href="#mbe33a13c28" y="725.433827"/>
      </g>
     </g>
     <g id="text_32">
      <!-- 1.0 -->
      <g transform="translate(20.878125 729.233046)scale(0.1 -0.1)">
       <use xlink:href="#DejaVuSans-31"/>
       <use x="63.623047" xlink:href="#DejaVuSans-2e"/>
       <use x="95.410156" xlink:href="#DejaVuSans-30"/>
      </g>
     </g>
    </g>
    <g id="text_33">
     <!-- GCaMP -->
     <g transform="translate(14.798437 999.803991)rotate(-90)scale(0.1 -0.1)">
      <use xlink:href="#DejaVuSans-47"/>
      <use x="77.490234" xlink:href="#DejaVuSans-43"/>
      <use x="147.314453" xlink:href="#DejaVuSans-61"/>
      <use x="208.59375" xlink:href="#DejaVuSans-4d"/>
      <use x="294.873047" xlink:href="#DejaVuSans-50"/>
     </g>
    </g>
   </g>
   <g id="line2d_30">
    <path clip-path="url(#p9d1943a71a)" d="M 119.872159 725.433827 
L 152.066848 725.433827 
L 153.305105 1238.656968 
L 538.403116 1238.656968 
L 539.641373 725.433827 
L 545.832659 725.433827 
L 547.070916 1238.656968 
L 552.023945 1238.656968 
L 553.262203 725.433827 
L 556.976975 725.433827 
L 558.215232 1238.656968 
L 560.691746 1238.656968 
L 561.930004 725.433827 
L 576.789091 725.433827 
L 578.027348 1238.656968 
L 579.265605 1238.656968 
L 580.503863 725.433827 
L 892.544694 725.433827 
L 893.782951 1238.656968 
L 937.121956 1238.656968 
L 938.360213 725.433827 
L 944.551499 725.433827 
L 945.789757 1238.656968 
L 951.981043 1238.656968 
L 953.2193 725.433827 
L 954.457557 1238.656968 
L 1641.690341 1238.656968 
L 1641.690341 1238.656968 
" style="fill:none;stroke:#008000;stroke-linecap:square;stroke-width:1.5;"/>
   </g>
   <g id="patch_8">
    <path d="M 43.78125 1264.318125 
L 43.78125 699.77267 
" style="fill:none;stroke:#000000;stroke-linecap:square;stroke-linejoin:miter;stroke-width:0.8;"/>
   </g>
   <g id="patch_9">
    <path d="M 1717.78125 1264.318125 
L 1717.78125 699.77267 
" style="fill:none;stroke:#000000;stroke-linecap:square;stroke-linejoin:miter;stroke-width:0.8;"/>
   </g>
   <g id="patch_10">
    <path d="M 43.78125 1264.318125 
L 1717.78125 1264.318125 
" style="fill:none;stroke:#000000;stroke-linecap:square;stroke-linejoin:miter;stroke-width:0.8;"/>
   </g>
   <g id="patch_11">
    <path d="M 43.78125 699.77267 
L 1717.78125 699.77267 
" style="fill:none;stroke:#000000;stroke-linecap:square;stroke-linejoin:miter;stroke-width:0.8;"/>
   </g>
   <g id="text_34">
    <!-- before binarisation -->
    <g transform="translate(824.1825 693.77267)scale(0.12 -0.12)">
     <use xlink:href="#DejaVuSans-62"/>
     <use x="63.476562" xlink:href="#DejaVuSans-65"/>
     <use x="125" xlink:href="#DejaVuSans-66"/>
     <use x="160.205078" xlink:href="#DejaVuSans-6f"/>
     <use x="221.386719" xlink:href="#DejaVuSans-72"/>
     <use x="260.25" xlink:href="#DejaVuSans-65"/>
     <use x="321.773438" xlink:href="#DejaVuSans-20"/>
     <use x="353.560547" xlink:href="#DejaVuSans-62"/>
     <use x="417.037109" xlink:href="#DejaVuSans-69"/>
     <use x="444.820312" xlink:href="#DejaVuSans-6e"/>
     <use x="508.199219" xlink:href="#DejaVuSans-61"/>
     <use x="569.478516" xlink:href="#DejaVuSans-72"/>
     <use x="610.591797" xlink:href="#DejaVuSans-69"/>
     <use x="638.375" xlink:href="#DejaVuSans-73"/>
     <use x="690.474609" xlink:href="#DejaVuSans-61"/>
     <use x="751.753906" xlink:href="#DejaVuSans-74"/>
     <use x="790.962891" xlink:href="#DejaVuSans-69"/>
     <use x="818.746094" xlink:href="#DejaVuSans-6f"/>
     <use x="879.927734" xlink:href="#DejaVuSans-6e"/>
    </g>
   </g>
  </g>
 </g>
 <defs>
  <clipPath id="p0aed53e159">
   <rect height="564.545455" width="1674" x="43.78125" y="22.318125"/>
  </clipPath>
  <clipPath id="p9d1943a71a">
   <rect height="564.545455" width="1674" x="43.78125" y="699.77267"/>
  </clipPath>
 </defs>
</svg>
