<?xml version="1.0" encoding="utf-8" standalone="no"?>
<!DOCTYPE svg PUBLIC "-//W3C//DTD SVG 1.1//EN"
  "http://www.w3.org/Graphics/SVG/1.1/DTD/svg11.dtd">
<svg height="1301.874375pt" version="1.1" viewBox="0 0 1724.98125 1301.874375" width="1724.98125pt" xmlns="http://www.w3.org/2000/svg" xmlns:xlink="http://www.w3.org/1999/xlink">
 <metadata>
  <rdf:RDF xmlns:cc="http://creativecommons.org/ns#" xmlns:dc="http://purl.org/dc/elements/1.1/" xmlns:rdf="http://www.w3.org/1999/02/22-rdf-syntax-ns#">
   <cc:Work>
    <dc:type rdf:resource="http://purl.org/dc/dcmitype/StillImage"/>
    <dc:date>2022-07-24T15:54:44.843219</dc:date>
    <dc:format>image/svg+xml</dc:format>
    <dc:creator>
     <cc:Agent>
      <dc:title>Matplotlib v3.4.2, https://matplotlib.org/</dc:title>
     </cc:Agent>
    </dc:creator>
   </cc:Work>
  </rdf:RDF>
 </metadata>
 <defs>
  <style type="text/css">*{stroke-linecap:butt;stroke-linejoin:round;}</style>
 </defs>
 <g id="figure_1">
  <g id="patch_1">
   <path d="M 0 1301.874375 
L 1724.98125 1301.874375 
L 1724.98125 0 
L 0 0 
z
" style="fill:#ffffff;"/>
  </g>
  <g id="axes_1">
   <g id="patch_2">
    <path d="M 43.78125 586.86358 
L 1717.78125 586.86358 
L 1717.78125 22.318125 
L 43.78125 22.318125 
z
" style="fill:#ffffff;"/>
   </g>
   <g id="matplotlib.axis_1">
    <g id="xtick_1">
     <g id="line2d_1">
      <defs>
       <path d="M 0 0 
L 0 3.5 
" id="mbfdb9e9dd7" style="stroke:#000000;stroke-width:0.8;"/>
      </defs>
      <g>
       <use style="stroke:#000000;stroke-width:0.8;" x="119.872159" xlink:href="#mbfdb9e9dd7" y="586.86358"/>
      </g>
     </g>
     <g id="text_1">
      <!-- 0 -->
      <g transform="translate(116.690909 601.462017)scale(0.1 -0.1)">
       <defs>
        <path d="M 2034 4250 
Q 1547 4250 1301 3770 
Q 1056 3291 1056 2328 
Q 1056 1369 1301 889 
Q 1547 409 2034 409 
Q 2525 409 2770 889 
Q 3016 1369 3016 2328 
Q 3016 3291 2770 3770 
Q 2525 4250 2034 4250 
z
M 2034 4750 
Q 2819 4750 3233 4129 
Q 3647 3509 3647 2328 
Q 3647 1150 3233 529 
Q 2819 -91 2034 -91 
Q 1250 -91 836 529 
Q 422 1150 422 2328 
Q 422 3509 836 4129 
Q 1250 4750 2034 4750 
z
" id="DejaVuSans-30" transform="scale(0.015625)"/>
       </defs>
       <use xlink:href="#DejaVuSans-30"/>
      </g>
     </g>
    </g>
    <g id="xtick_2">
     <g id="line2d_2">
      <g>
       <use style="stroke:#000000;stroke-width:0.8;" x="367.523613" xlink:href="#mbfdb9e9dd7" y="586.86358"/>
      </g>
     </g>
     <g id="text_2">
      <!-- 200 -->
      <g transform="translate(357.979863 601.462017)scale(0.1 -0.1)">
       <defs>
        <path d="M 1228 531 
L 3431 531 
L 3431 0 
L 469 0 
L 469 531 
Q 828 903 1448 1529 
Q 2069 2156 2228 2338 
Q 2531 2678 2651 2914 
Q 2772 3150 2772 3378 
Q 2772 3750 2511 3984 
Q 2250 4219 1831 4219 
Q 1534 4219 1204 4116 
Q 875 4013 500 3803 
L 500 4441 
Q 881 4594 1212 4672 
Q 1544 4750 1819 4750 
Q 2544 4750 2975 4387 
Q 3406 4025 3406 3419 
Q 3406 3131 3298 2873 
Q 3191 2616 2906 2266 
Q 2828 2175 2409 1742 
Q 1991 1309 1228 531 
z
" id="DejaVuSans-32" transform="scale(0.015625)"/>
       </defs>
       <use xlink:href="#DejaVuSans-32"/>
       <use x="63.623047" xlink:href="#DejaVuSans-30"/>
       <use x="127.246094" xlink:href="#DejaVuSans-30"/>
      </g>
     </g>
    </g>
    <g id="xtick_3">
     <g id="line2d_3">
      <g>
       <use style="stroke:#000000;stroke-width:0.8;" x="615.175066" xlink:href="#mbfdb9e9dd7" y="586.86358"/>
      </g>
     </g>
     <g id="text_3">
      <!-- 400 -->
      <g transform="translate(605.631316 601.462017)scale(0.1 -0.1)">
       <defs>
        <path d="M 2419 4116 
L 825 1625 
L 2419 1625 
L 2419 4116 
z
M 2253 4666 
L 3047 4666 
L 3047 1625 
L 3713 1625 
L 3713 1100 
L 3047 1100 
L 3047 0 
L 2419 0 
L 2419 1100 
L 313 1100 
L 313 1709 
L 2253 4666 
z
" id="DejaVuSans-34" transform="scale(0.015625)"/>
       </defs>
       <use xlink:href="#DejaVuSans-34"/>
       <use x="63.623047" xlink:href="#DejaVuSans-30"/>
       <use x="127.246094" xlink:href="#DejaVuSans-30"/>
      </g>
     </g>
    </g>
    <g id="xtick_4">
     <g id="line2d_4">
      <g>
       <use style="stroke:#000000;stroke-width:0.8;" x="862.82652" xlink:href="#mbfdb9e9dd7" y="586.86358"/>
      </g>
     </g>
     <g id="text_4">
      <!-- 600 -->
      <g transform="translate(853.28277 601.462017)scale(0.1 -0.1)">
       <defs>
        <path d="M 2113 2584 
Q 1688 2584 1439 2293 
Q 1191 2003 1191 1497 
Q 1191 994 1439 701 
Q 1688 409 2113 409 
Q 2538 409 2786 701 
Q 3034 994 3034 1497 
Q 3034 2003 2786 2293 
Q 2538 2584 2113 2584 
z
M 3366 4563 
L 3366 3988 
Q 3128 4100 2886 4159 
Q 2644 4219 2406 4219 
Q 1781 4219 1451 3797 
Q 1122 3375 1075 2522 
Q 1259 2794 1537 2939 
Q 1816 3084 2150 3084 
Q 2853 3084 3261 2657 
Q 3669 2231 3669 1497 
Q 3669 778 3244 343 
Q 2819 -91 2113 -91 
Q 1303 -91 875 529 
Q 447 1150 447 2328 
Q 447 3434 972 4092 
Q 1497 4750 2381 4750 
Q 2619 4750 2861 4703 
Q 3103 4656 3366 4563 
z
" id="DejaVuSans-36" transform="scale(0.015625)"/>
       </defs>
       <use xlink:href="#DejaVuSans-36"/>
       <use x="63.623047" xlink:href="#DejaVuSans-30"/>
       <use x="127.246094" xlink:href="#DejaVuSans-30"/>
      </g>
     </g>
    </g>
    <g id="xtick_5">
     <g id="line2d_5">
      <g>
       <use style="stroke:#000000;stroke-width:0.8;" x="1110.477973" xlink:href="#mbfdb9e9dd7" y="586.86358"/>
      </g>
     </g>
     <g id="text_5">
      <!-- 800 -->
      <g transform="translate(1100.934223 601.462017)scale(0.1 -0.1)">
       <defs>
        <path d="M 2034 2216 
Q 1584 2216 1326 1975 
Q 1069 1734 1069 1313 
Q 1069 891 1326 650 
Q 1584 409 2034 409 
Q 2484 409 2743 651 
Q 3003 894 3003 1313 
Q 3003 1734 2745 1975 
Q 2488 2216 2034 2216 
z
M 1403 2484 
Q 997 2584 770 2862 
Q 544 3141 544 3541 
Q 544 4100 942 4425 
Q 1341 4750 2034 4750 
Q 2731 4750 3128 4425 
Q 3525 4100 3525 3541 
Q 3525 3141 3298 2862 
Q 3072 2584 2669 2484 
Q 3125 2378 3379 2068 
Q 3634 1759 3634 1313 
Q 3634 634 3220 271 
Q 2806 -91 2034 -91 
Q 1263 -91 848 271 
Q 434 634 434 1313 
Q 434 1759 690 2068 
Q 947 2378 1403 2484 
z
M 1172 3481 
Q 1172 3119 1398 2916 
Q 1625 2713 2034 2713 
Q 2441 2713 2670 2916 
Q 2900 3119 2900 3481 
Q 2900 3844 2670 4047 
Q 2441 4250 2034 4250 
Q 1625 4250 1398 4047 
Q 1172 3844 1172 3481 
z
" id="DejaVuSans-38" transform="scale(0.015625)"/>
       </defs>
       <use xlink:href="#DejaVuSans-38"/>
       <use x="63.623047" xlink:href="#DejaVuSans-30"/>
       <use x="127.246094" xlink:href="#DejaVuSans-30"/>
      </g>
     </g>
    </g>
    <g id="xtick_6">
     <g id="line2d_6">
      <g>
       <use style="stroke:#000000;stroke-width:0.8;" x="1358.129427" xlink:href="#mbfdb9e9dd7" y="586.86358"/>
      </g>
     </g>
     <g id="text_6">
      <!-- 1000 -->
      <g transform="translate(1345.404427 601.462017)scale(0.1 -0.1)">
       <defs>
        <path d="M 794 531 
L 1825 531 
L 1825 4091 
L 703 3866 
L 703 4441 
L 1819 4666 
L 2450 4666 
L 2450 531 
L 3481 531 
L 3481 0 
L 794 0 
L 794 531 
z
" id="DejaVuSans-31" transform="scale(0.015625)"/>
       </defs>
       <use xlink:href="#DejaVuSans-31"/>
       <use x="63.623047" xlink:href="#DejaVuSans-30"/>
       <use x="127.246094" xlink:href="#DejaVuSans-30"/>
       <use x="190.869141" xlink:href="#DejaVuSans-30"/>
      </g>
     </g>
    </g>
    <g id="xtick_7">
     <g id="line2d_7">
      <g>
       <use style="stroke:#000000;stroke-width:0.8;" x="1605.78088" xlink:href="#mbfdb9e9dd7" y="586.86358"/>
      </g>
     </g>
     <g id="text_7">
      <!-- 1200 -->
      <g transform="translate(1593.05588 601.462017)scale(0.1 -0.1)">
       <use xlink:href="#DejaVuSans-31"/>
       <use x="63.623047" xlink:href="#DejaVuSans-32"/>
       <use x="127.246094" xlink:href="#DejaVuSans-30"/>
       <use x="190.869141" xlink:href="#DejaVuSans-30"/>
      </g>
     </g>
    </g>
    <g id="text_8">
     <!-- frame -->
     <g transform="translate(865.954687 615.140142)scale(0.1 -0.1)">
      <defs>
       <path d="M 2375 4863 
L 2375 4384 
L 1825 4384 
Q 1516 4384 1395 4259 
Q 1275 4134 1275 3809 
L 1275 3500 
L 2222 3500 
L 2222 3053 
L 1275 3053 
L 1275 0 
L 697 0 
L 697 3053 
L 147 3053 
L 147 3500 
L 697 3500 
L 697 3744 
Q 697 4328 969 4595 
Q 1241 4863 1831 4863 
L 2375 4863 
z
" id="DejaVuSans-66" transform="scale(0.015625)"/>
       <path d="M 2631 2963 
Q 2534 3019 2420 3045 
Q 2306 3072 2169 3072 
Q 1681 3072 1420 2755 
Q 1159 2438 1159 1844 
L 1159 0 
L 581 0 
L 581 3500 
L 1159 3500 
L 1159 2956 
Q 1341 3275 1631 3429 
Q 1922 3584 2338 3584 
Q 2397 3584 2469 3576 
Q 2541 3569 2628 3553 
L 2631 2963 
z
" id="DejaVuSans-72" transform="scale(0.015625)"/>
       <path d="M 2194 1759 
Q 1497 1759 1228 1600 
Q 959 1441 959 1056 
Q 959 750 1161 570 
Q 1363 391 1709 391 
Q 2188 391 2477 730 
Q 2766 1069 2766 1631 
L 2766 1759 
L 2194 1759 
z
M 3341 1997 
L 3341 0 
L 2766 0 
L 2766 531 
Q 2569 213 2275 61 
Q 1981 -91 1556 -91 
Q 1019 -91 701 211 
Q 384 513 384 1019 
Q 384 1609 779 1909 
Q 1175 2209 1959 2209 
L 2766 2209 
L 2766 2266 
Q 2766 2663 2505 2880 
Q 2244 3097 1772 3097 
Q 1472 3097 1187 3025 
Q 903 2953 641 2809 
L 641 3341 
Q 956 3463 1253 3523 
Q 1550 3584 1831 3584 
Q 2591 3584 2966 3190 
Q 3341 2797 3341 1997 
z
" id="DejaVuSans-61" transform="scale(0.015625)"/>
       <path d="M 3328 2828 
Q 3544 3216 3844 3400 
Q 4144 3584 4550 3584 
Q 5097 3584 5394 3201 
Q 5691 2819 5691 2113 
L 5691 0 
L 5113 0 
L 5113 2094 
Q 5113 2597 4934 2840 
Q 4756 3084 4391 3084 
Q 3944 3084 3684 2787 
Q 3425 2491 3425 1978 
L 3425 0 
L 2847 0 
L 2847 2094 
Q 2847 2600 2669 2842 
Q 2491 3084 2119 3084 
Q 1678 3084 1418 2786 
Q 1159 2488 1159 1978 
L 1159 0 
L 581 0 
L 581 3500 
L 1159 3500 
L 1159 2956 
Q 1356 3278 1631 3431 
Q 1906 3584 2284 3584 
Q 2666 3584 2933 3390 
Q 3200 3197 3328 2828 
z
" id="DejaVuSans-6d" transform="scale(0.015625)"/>
       <path d="M 3597 1894 
L 3597 1613 
L 953 1613 
Q 991 1019 1311 708 
Q 1631 397 2203 397 
Q 2534 397 2845 478 
Q 3156 559 3463 722 
L 3463 178 
Q 3153 47 2828 -22 
Q 2503 -91 2169 -91 
Q 1331 -91 842 396 
Q 353 884 353 1716 
Q 353 2575 817 3079 
Q 1281 3584 2069 3584 
Q 2775 3584 3186 3129 
Q 3597 2675 3597 1894 
z
M 3022 2063 
Q 3016 2534 2758 2815 
Q 2500 3097 2075 3097 
Q 1594 3097 1305 2825 
Q 1016 2553 972 2059 
L 3022 2063 
z
" id="DejaVuSans-65" transform="scale(0.015625)"/>
      </defs>
      <use xlink:href="#DejaVuSans-66"/>
      <use x="35.205078" xlink:href="#DejaVuSans-72"/>
      <use x="76.318359" xlink:href="#DejaVuSans-61"/>
      <use x="137.597656" xlink:href="#DejaVuSans-6d"/>
      <use x="235.009766" xlink:href="#DejaVuSans-65"/>
     </g>
    </g>
   </g>
   <g id="matplotlib.axis_2">
    <g id="ytick_1">
     <g id="line2d_8">
      <defs>
       <path d="M 0 0 
L -3.5 0 
" id="mfcb678aaa0" style="stroke:#000000;stroke-width:0.8;"/>
      </defs>
      <g>
       <use style="stroke:#000000;stroke-width:0.8;" x="43.78125" xlink:href="#mfcb678aaa0" y="531.013699"/>
      </g>
     </g>
     <g id="text_9">
      <!-- 4 -->
      <g transform="translate(30.41875 534.812918)scale(0.1 -0.1)">
       <use xlink:href="#DejaVuSans-34"/>
      </g>
     </g>
    </g>
    <g id="ytick_2">
     <g id="line2d_9">
      <g>
       <use style="stroke:#000000;stroke-width:0.8;" x="43.78125" xlink:href="#mfcb678aaa0" y="459.07038"/>
      </g>
     </g>
     <g id="text_10">
      <!-- 5 -->
      <g transform="translate(30.41875 462.869598)scale(0.1 -0.1)">
       <defs>
        <path d="M 691 4666 
L 3169 4666 
L 3169 4134 
L 1269 4134 
L 1269 2991 
Q 1406 3038 1543 3061 
Q 1681 3084 1819 3084 
Q 2600 3084 3056 2656 
Q 3513 2228 3513 1497 
Q 3513 744 3044 326 
Q 2575 -91 1722 -91 
Q 1428 -91 1123 -41 
Q 819 9 494 109 
L 494 744 
Q 775 591 1075 516 
Q 1375 441 1709 441 
Q 2250 441 2565 725 
Q 2881 1009 2881 1497 
Q 2881 1984 2565 2268 
Q 2250 2553 1709 2553 
Q 1456 2553 1204 2497 
Q 953 2441 691 2322 
L 691 4666 
z
" id="DejaVuSans-35" transform="scale(0.015625)"/>
       </defs>
       <use xlink:href="#DejaVuSans-35"/>
      </g>
     </g>
    </g>
    <g id="ytick_3">
     <g id="line2d_10">
      <g>
       <use style="stroke:#000000;stroke-width:0.8;" x="43.78125" xlink:href="#mfcb678aaa0" y="387.12706"/>
      </g>
     </g>
     <g id="text_11">
      <!-- 6 -->
      <g transform="translate(30.41875 390.926279)scale(0.1 -0.1)">
       <use xlink:href="#DejaVuSans-36"/>
      </g>
     </g>
    </g>
    <g id="ytick_4">
     <g id="line2d_11">
      <g>
       <use style="stroke:#000000;stroke-width:0.8;" x="43.78125" xlink:href="#mfcb678aaa0" y="315.183741"/>
      </g>
     </g>
     <g id="text_12">
      <!-- 7 -->
      <g transform="translate(30.41875 318.98296)scale(0.1 -0.1)">
       <defs>
        <path d="M 525 4666 
L 3525 4666 
L 3525 4397 
L 1831 0 
L 1172 0 
L 2766 4134 
L 525 4134 
L 525 4666 
z
" id="DejaVuSans-37" transform="scale(0.015625)"/>
       </defs>
       <use xlink:href="#DejaVuSans-37"/>
      </g>
     </g>
    </g>
    <g id="ytick_5">
     <g id="line2d_12">
      <g>
       <use style="stroke:#000000;stroke-width:0.8;" x="43.78125" xlink:href="#mfcb678aaa0" y="243.240422"/>
      </g>
     </g>
     <g id="text_13">
      <!-- 8 -->
      <g transform="translate(30.41875 247.03964)scale(0.1 -0.1)">
       <use xlink:href="#DejaVuSans-38"/>
      </g>
     </g>
    </g>
    <g id="ytick_6">
     <g id="line2d_13">
      <g>
       <use style="stroke:#000000;stroke-width:0.8;" x="43.78125" xlink:href="#mfcb678aaa0" y="171.297102"/>
      </g>
     </g>
     <g id="text_14">
      <!-- 9 -->
      <g transform="translate(30.41875 175.096321)scale(0.1 -0.1)">
       <defs>
        <path d="M 703 97 
L 703 672 
Q 941 559 1184 500 
Q 1428 441 1663 441 
Q 2288 441 2617 861 
Q 2947 1281 2994 2138 
Q 2813 1869 2534 1725 
Q 2256 1581 1919 1581 
Q 1219 1581 811 2004 
Q 403 2428 403 3163 
Q 403 3881 828 4315 
Q 1253 4750 1959 4750 
Q 2769 4750 3195 4129 
Q 3622 3509 3622 2328 
Q 3622 1225 3098 567 
Q 2575 -91 1691 -91 
Q 1453 -91 1209 -44 
Q 966 3 703 97 
z
M 1959 2075 
Q 2384 2075 2632 2365 
Q 2881 2656 2881 3163 
Q 2881 3666 2632 3958 
Q 2384 4250 1959 4250 
Q 1534 4250 1286 3958 
Q 1038 3666 1038 3163 
Q 1038 2656 1286 2365 
Q 1534 2075 1959 2075 
z
" id="DejaVuSans-39" transform="scale(0.015625)"/>
       </defs>
       <use xlink:href="#DejaVuSans-39"/>
      </g>
     </g>
    </g>
    <g id="ytick_7">
     <g id="line2d_14">
      <g>
       <use style="stroke:#000000;stroke-width:0.8;" x="43.78125" xlink:href="#mfcb678aaa0" y="99.353783"/>
      </g>
     </g>
     <g id="text_15">
      <!-- 10 -->
      <g transform="translate(24.05625 103.153002)scale(0.1 -0.1)">
       <use xlink:href="#DejaVuSans-31"/>
       <use x="63.623047" xlink:href="#DejaVuSans-30"/>
      </g>
     </g>
    </g>
    <g id="ytick_8">
     <g id="line2d_15">
      <g>
       <use style="stroke:#000000;stroke-width:0.8;" x="43.78125" xlink:href="#mfcb678aaa0" y="27.410463"/>
      </g>
     </g>
     <g id="text_16">
      <!-- 11 -->
      <g transform="translate(24.05625 31.209682)scale(0.1 -0.1)">
       <use xlink:href="#DejaVuSans-31"/>
       <use x="63.623047" xlink:href="#DejaVuSans-31"/>
      </g>
     </g>
    </g>
    <g id="text_17">
     <!-- GCaMP -->
     <g transform="translate(17.976562 322.349446)rotate(-90)scale(0.1 -0.1)">
      <defs>
       <path d="M 3809 666 
L 3809 1919 
L 2778 1919 
L 2778 2438 
L 4434 2438 
L 4434 434 
Q 4069 175 3628 42 
Q 3188 -91 2688 -91 
Q 1594 -91 976 548 
Q 359 1188 359 2328 
Q 359 3472 976 4111 
Q 1594 4750 2688 4750 
Q 3144 4750 3555 4637 
Q 3966 4525 4313 4306 
L 4313 3634 
Q 3963 3931 3569 4081 
Q 3175 4231 2741 4231 
Q 1884 4231 1454 3753 
Q 1025 3275 1025 2328 
Q 1025 1384 1454 906 
Q 1884 428 2741 428 
Q 3075 428 3337 486 
Q 3600 544 3809 666 
z
" id="DejaVuSans-47" transform="scale(0.015625)"/>
       <path d="M 4122 4306 
L 4122 3641 
Q 3803 3938 3442 4084 
Q 3081 4231 2675 4231 
Q 1875 4231 1450 3742 
Q 1025 3253 1025 2328 
Q 1025 1406 1450 917 
Q 1875 428 2675 428 
Q 3081 428 3442 575 
Q 3803 722 4122 1019 
L 4122 359 
Q 3791 134 3420 21 
Q 3050 -91 2638 -91 
Q 1578 -91 968 557 
Q 359 1206 359 2328 
Q 359 3453 968 4101 
Q 1578 4750 2638 4750 
Q 3056 4750 3426 4639 
Q 3797 4528 4122 4306 
z
" id="DejaVuSans-43" transform="scale(0.015625)"/>
       <path d="M 628 4666 
L 1569 4666 
L 2759 1491 
L 3956 4666 
L 4897 4666 
L 4897 0 
L 4281 0 
L 4281 4097 
L 3078 897 
L 2444 897 
L 1241 4097 
L 1241 0 
L 628 0 
L 628 4666 
z
" id="DejaVuSans-4d" transform="scale(0.015625)"/>
       <path d="M 1259 4147 
L 1259 2394 
L 2053 2394 
Q 2494 2394 2734 2622 
Q 2975 2850 2975 3272 
Q 2975 3691 2734 3919 
Q 2494 4147 2053 4147 
L 1259 4147 
z
M 628 4666 
L 2053 4666 
Q 2838 4666 3239 4311 
Q 3641 3956 3641 3272 
Q 3641 2581 3239 2228 
Q 2838 1875 2053 1875 
L 1259 1875 
L 1259 0 
L 628 0 
L 628 4666 
z
" id="DejaVuSans-50" transform="scale(0.015625)"/>
      </defs>
      <use xlink:href="#DejaVuSans-47"/>
      <use x="77.490234" xlink:href="#DejaVuSans-43"/>
      <use x="147.314453" xlink:href="#DejaVuSans-61"/>
      <use x="208.59375" xlink:href="#DejaVuSans-4d"/>
      <use x="294.873047" xlink:href="#DejaVuSans-50"/>
     </g>
    </g>
   </g>
   <g id="line2d_16">
    <path clip-path="url(#pd6aa0d5737)" d="M 119.872159 98.485445 
L 121.110416 92.944138 
L 122.348674 89.28482 
L 123.586931 88.935253 
L 124.825188 92.50287 
L 126.063445 99.35603 
L 127.301703 106.965796 
L 128.53996 111.679823 
L 129.778217 111.391602 
L 131.016474 106.902143 
L 133.492989 93.806975 
L 134.731246 88.457146 
L 135.969504 85.192524 
L 137.207761 83.754754 
L 138.446018 82.959654 
L 140.922533 80.909285 
L 142.16079 81.698256 
L 143.399047 84.854808 
L 144.637304 88.496312 
L 145.875562 89.671019 
L 147.113819 87.032852 
L 148.352076 81.586503 
L 150.828591 69.281684 
L 152.066848 64.20354 
L 153.305105 60.958432 
L 154.543363 60.668583 
L 155.78162 63.155459 
L 158.258134 70.25096 
L 159.496392 72.785722 
L 160.734649 74.867817 
L 161.972906 77.451898 
L 163.211163 81.227813 
L 166.925935 96.227545 
L 171.878964 111.771523 
L 173.117222 114.231487 
L 174.355479 113.809722 
L 175.593736 110.693757 
L 176.831993 106.059653 
L 178.070251 100.544506 
L 180.546765 87.921667 
L 181.785022 83.880942 
L 183.02328 84.131158 
L 184.261537 88.314601 
L 185.499794 93.002133 
L 186.738052 94.707475 
L 187.976309 93.484089 
L 189.214566 91.99578 
L 190.452823 91.867328 
L 191.691081 93.031602 
L 192.929338 95.609738 
L 194.167595 100.019866 
L 195.405852 105.434427 
L 196.64411 109.45955 
L 197.882367 109.660131 
L 199.120624 105.174569 
L 201.597139 89.418118 
L 202.835396 83.87915 
L 204.073653 80.864311 
L 205.311911 78.902909 
L 206.550168 76.520592 
L 207.788425 72.705753 
L 209.026682 67.149467 
L 210.26494 60.693039 
L 211.503197 55.298814 
L 212.741454 52.698786 
L 213.979711 52.862116 
L 215.217969 54.24376 
L 217.694483 56.496169 
L 218.93274 58.587909 
L 220.170998 62.528837 
L 222.647512 73.15576 
L 223.88577 77.787719 
L 225.124027 81.46994 
L 226.362284 84.023446 
L 228.838799 87.675412 
L 230.077056 90.678037 
L 233.791828 102.667865 
L 235.030085 104.687174 
L 236.268342 103.50171 
L 237.5066 98.65858 
L 241.221371 76.560287 
L 242.459629 71.346669 
L 243.697886 69.771573 
L 244.936143 71.665565 
L 246.1744 74.862466 
L 249.889172 83.641864 
L 252.365687 91.48365 
L 253.603944 94.479756 
L 254.842201 95.886047 
L 256.080459 94.976132 
L 257.318716 91.028198 
L 258.556973 83.838133 
L 259.79523 74.728298 
L 261.033488 66.559445 
L 262.271745 61.249859 
L 263.510002 58.113928 
L 265.986517 52.799302 
L 267.224774 50.059879 
L 268.463031 47.979282 
L 269.701288 48.011042 
L 270.939546 51.836673 
L 272.177803 59.335061 
L 273.41606 67.883617 
L 274.654318 74.598959 
L 275.892575 78.6943 
L 278.369089 84.110773 
L 279.607347 87.655961 
L 280.845604 92.282978 
L 282.083861 97.705844 
L 283.322118 102.61419 
L 284.560376 105.636002 
L 285.798633 106.907893 
L 287.03689 107.909685 
L 288.275147 109.995159 
L 289.513405 113.33252 
L 290.751662 117.343457 
L 291.989919 122.200905 
L 293.228177 128.769428 
L 294.466434 136.558585 
L 295.704691 143.149615 
L 296.942948 146.22766 
L 298.181206 145.461058 
L 299.419463 142.77104 
L 300.65772 141.094815 
L 301.895977 142.343426 
L 303.134235 146.514111 
L 305.610749 157.624378 
L 306.849006 160.815693 
L 308.087264 161.095882 
L 309.325521 158.943992 
L 311.802036 152.314851 
L 313.040293 150.248202 
L 314.27855 149.878341 
L 315.516807 151.19765 
L 316.755065 153.981982 
L 317.993322 158.528251 
L 319.231579 165.479787 
L 321.708094 183.296609 
L 322.946351 189.510958 
L 324.184608 191.714743 
L 325.422866 190.059562 
L 326.661123 185.572759 
L 327.89938 180.080048 
L 329.137637 175.689987 
L 330.375895 173.421602 
L 331.614152 172.963359 
L 332.852409 173.83505 
L 334.090666 175.84769 
L 335.328924 178.173864 
L 336.567181 179.48602 
L 337.805438 179.993258 
L 339.043695 181.735521 
L 340.281953 185.938846 
L 341.52021 191.358514 
L 342.758467 195.762008 
L 343.996725 198.038149 
L 345.234982 198.354879 
L 346.473239 197.224499 
L 347.711496 195.101274 
L 351.426268 186.910444 
L 352.664525 185.559421 
L 353.902783 186.206045 
L 355.14104 189.27259 
L 356.379297 194.012831 
L 357.617554 198.16204 
L 358.855812 199.213123 
L 360.094069 196.385462 
L 361.332326 190.940819 
L 362.570584 184.876243 
L 363.808841 179.808795 
L 365.047098 176.935067 
L 366.285355 176.933396 
L 367.523613 179.151294 
L 368.76187 181.634745 
L 370.000127 182.520911 
L 371.238384 181.309058 
L 373.714899 176.264051 
L 374.953156 174.784372 
L 376.191413 174.922731 
L 377.429671 175.957335 
L 378.667928 176.602232 
L 379.906185 176.71411 
L 382.3827 177.420229 
L 383.620957 176.885329 
L 384.859214 174.726891 
L 387.335729 168.291212 
L 388.573986 167.322039 
L 389.812243 169.483529 
L 391.050501 173.964169 
L 392.288758 178.958316 
L 393.527015 183.284552 
L 394.765272 186.40454 
L 396.00353 187.705002 
L 397.241787 186.971557 
L 398.480044 185.088696 
L 399.718302 183.494331 
L 400.956559 183.153531 
L 402.194816 183.853586 
L 403.433073 184.228049 
L 404.671331 183.053752 
L 407.147845 178.147053 
L 408.386102 177.297916 
L 410.862617 178.288273 
L 412.100874 178.048489 
L 414.577389 177.139501 
L 415.815646 177.423871 
L 417.053903 180.25409 
L 418.292161 187.553063 
L 419.530418 198.899038 
L 420.768675 211.289709 
L 422.006932 221.213189 
L 423.24519 226.848744 
L 424.483447 228.970936 
L 425.721704 229.81398 
L 426.959961 231.191484 
L 428.198219 234.048916 
L 430.674733 242.591959 
L 431.912991 245.017166 
L 433.151248 244.959991 
L 435.627762 241.489894 
L 436.86602 241.016108 
L 439.342534 242.184195 
L 440.580791 241.910391 
L 441.819049 240.196302 
L 443.057306 236.789414 
L 445.53382 227.831746 
L 446.772078 225.243274 
L 448.010335 224.910842 
L 449.248592 226.283235 
L 450.48685 228.06995 
L 451.725107 228.788833 
L 452.963364 227.91704 
L 454.201621 226.369405 
L 455.439879 225.516513 
L 457.916393 225.97913 
L 459.15465 225.234098 
L 460.392908 223.55064 
L 462.869422 219.598083 
L 465.345937 214.648646 
L 466.584194 213.05444 
L 467.822451 213.534914 
L 469.060709 215.807144 
L 470.298966 219.033918 
L 471.537223 223.093268 
L 472.77548 228.186131 
L 475.251995 239.515204 
L 476.490252 243.620423 
L 477.728509 245.204722 
L 478.966767 244.552608 
L 480.205024 243.348641 
L 481.443281 242.754588 
L 482.681538 242.59848 
L 483.919796 242.629795 
L 485.158053 243.056173 
L 486.39631 243.687803 
L 487.634568 243.671467 
L 488.872825 242.388771 
L 491.349339 237.753379 
L 492.587597 237.08943 
L 493.825854 239.231368 
L 496.302368 247.400062 
L 497.540626 250.063281 
L 498.778883 251.018812 
L 500.01714 250.704928 
L 501.255397 249.804783 
L 502.493655 248.638153 
L 503.731912 246.901805 
L 506.208427 242.013058 
L 507.446684 241.24213 
L 508.684941 242.465708 
L 509.923198 245.197582 
L 511.161456 249.10904 
L 513.63797 258.21822 
L 514.876227 261.790732 
L 516.114485 264.473409 
L 517.352742 266.435824 
L 518.590999 268.046829 
L 519.829257 270.207438 
L 521.067514 273.830271 
L 522.305771 278.391367 
L 523.544028 281.613008 
L 524.782286 281.663641 
L 527.2588 277.143359 
L 528.497057 277.254515 
L 529.735315 279.982937 
L 530.973572 284.997044 
L 533.450086 298.687309 
L 534.688344 302.897034 
L 535.926601 302.450847 
L 537.164858 298.190726 
L 538.403116 293.154098 
L 539.641373 290.063808 
L 540.87963 289.712217 
L 542.117887 291.46896 
L 543.356145 294.575265 
L 545.832659 302.37377 
L 547.070916 305.158834 
L 548.309174 306.660645 
L 549.547431 307.641458 
L 550.785688 308.464283 
L 552.023945 308.748916 
L 553.262203 308.335143 
L 555.738717 306.739383 
L 556.976975 306.858297 
L 558.215232 308.957568 
L 559.453489 313.366107 
L 560.691746 319.379986 
L 563.168261 332.382373 
L 564.406518 337.310413 
L 565.644775 339.758533 
L 566.883033 339.398995 
L 568.12129 336.953419 
L 569.359547 333.946409 
L 570.597804 331.682585 
L 573.074319 328.907478 
L 574.312576 327.517554 
L 575.550834 326.415136 
L 576.789091 325.719288 
L 578.027348 325.389074 
L 579.265605 325.758884 
L 580.503863 327.468159 
L 581.74212 330.734765 
L 582.980377 334.715291 
L 584.218634 337.789443 
L 585.456892 338.431361 
L 586.695149 335.639521 
L 587.933406 328.972452 
L 589.171663 318.698065 
L 591.648178 293.405422 
L 592.886435 284.13503 
L 594.124693 281.066493 
L 595.36295 284.986426 
L 596.601207 293.983782 
L 597.839464 304.31189 
L 599.077722 312.559604 
L 600.315979 317.526578 
L 601.554236 320.123836 
L 604.030751 323.45052 
L 605.269008 324.804173 
L 606.507265 325.300449 
L 607.745523 325.131114 
L 608.98378 325.874646 
L 610.222037 329.794207 
L 611.460294 337.846106 
L 613.936809 357.828146 
L 615.175066 364.740205 
L 616.413323 368.706278 
L 617.651581 370.03216 
L 618.889838 369.130688 
L 620.128095 366.990204 
L 621.366352 365.518351 
L 622.60461 366.46582 
L 625.081124 372.79803 
L 626.319382 374.606844 
L 627.557639 375.186021 
L 628.795896 375.349033 
L 630.034153 375.816166 
L 631.272411 377.140588 
L 632.510668 379.630372 
L 633.748925 383.373811 
L 634.987182 388.171105 
L 637.463697 398.395678 
L 638.701954 402.192018 
L 639.940211 404.329668 
L 641.178469 404.838938 
L 643.654983 404.033342 
L 644.893241 404.477314 
L 646.131498 405.313468 
L 647.369755 405.752404 
L 648.608012 405.664786 
L 649.84627 405.902515 
L 651.084527 407.781961 
L 652.322784 411.656022 
L 653.561041 416.120122 
L 654.799299 419.139669 
L 656.037556 419.309165 
L 657.275813 416.123637 
L 658.51407 410.216374 
L 659.752328 403.601388 
L 660.990585 398.964783 
L 662.228842 398.238877 
L 663.4671 401.741196 
L 664.705357 408.243316 
L 667.181871 422.76155 
L 668.420129 428.249484 
L 669.658386 431.68869 
L 670.896643 432.800464 
L 672.1349 431.808656 
L 673.373158 429.686396 
L 674.611415 427.912828 
L 675.849672 427.571382 
L 677.087929 428.569148 
L 678.326187 429.797647 
L 679.564444 430.087894 
L 680.802701 429.107392 
L 682.040959 427.691011 
L 683.279216 427.290948 
L 684.517473 428.886551 
L 685.75573 432.311053 
L 686.993988 436.410045 
L 688.232245 439.957555 
L 689.470502 442.134685 
L 690.708759 442.091252 
L 691.947017 439.176724 
L 693.185274 433.724983 
L 695.661789 419.420171 
L 696.900046 412.324578 
L 698.138303 406.329105 
L 699.37656 402.344107 
L 700.614818 401.238115 
L 701.853075 403.351103 
L 703.091332 407.776343 
L 704.329589 412.614418 
L 705.567847 416.443098 
L 708.044361 421.829282 
L 709.282618 425.254697 
L 710.520876 429.940108 
L 711.759133 435.175298 
L 712.99739 439.442855 
L 714.235648 441.997768 
L 717.950419 446.959252 
L 722.903448 453.50788 
L 724.141706 453.836716 
L 725.379963 452.250018 
L 726.61822 448.628515 
L 730.332992 433.325491 
L 731.571249 429.662075 
L 732.809507 427.742674 
L 734.047764 427.838526 
L 735.286021 429.516876 
L 736.524278 431.603257 
L 737.762536 432.720674 
L 739.000793 431.720809 
L 740.23905 428.307671 
L 741.477307 423.81404 
L 742.715565 420.810386 
L 743.953822 421.162098 
L 746.430336 427.139132 
L 747.668594 428.823157 
L 748.906851 429.485375 
L 750.145108 429.409633 
L 751.383366 428.146191 
L 752.621623 425.218785 
L 753.85988 420.887983 
L 756.336395 411.414111 
L 758.812909 402.937206 
L 761.289424 394.536558 
L 763.765938 385.875704 
L 765.004195 382.783021 
L 766.242453 381.030395 
L 767.48071 381.017612 
L 768.718967 383.061452 
L 771.195482 389.735271 
L 772.433739 391.64973 
L 773.671996 391.904101 
L 774.910254 391.04594 
L 776.148511 389.973784 
L 777.386768 389.300046 
L 778.625025 389.263901 
L 779.863283 389.882714 
L 781.10154 391.06378 
L 782.339797 392.866175 
L 783.578054 395.619634 
L 784.816312 399.535677 
L 787.292826 408.557248 
L 788.531084 411.464911 
L 789.769341 411.834399 
L 791.007598 409.566323 
L 792.245855 406.098614 
L 793.484113 403.234698 
L 795.960627 399.578949 
L 797.198884 396.458207 
L 798.437142 392.546448 
L 799.675399 390.032682 
L 800.913656 390.720023 
L 802.151914 394.719843 
L 803.390171 401.231466 
L 807.104943 424.551937 
L 808.3432 428.751043 
L 809.581457 428.713398 
L 810.819714 424.763841 
L 813.296229 413.373078 
L 814.534486 409.958515 
L 815.772743 409.561545 
L 817.011001 411.579401 
L 818.249258 414.102209 
L 819.487515 415.196009 
L 820.725773 414.186172 
L 821.96403 411.400776 
L 824.440544 403.145856 
L 825.678802 400.028914 
L 826.917059 399.032623 
L 828.155316 400.397819 
L 829.393573 403.432245 
L 830.631831 406.81567 
L 831.870088 409.41737 
L 833.108345 410.6989 
L 834.346602 410.472134 
L 835.58486 408.579743 
L 836.823117 404.715999 
L 838.061374 398.616404 
L 840.537889 383.390281 
L 841.776146 378.159672 
L 843.014403 376.44978 
L 844.252661 377.862207 
L 845.490918 380.148189 
L 846.729175 380.409746 
L 847.967432 377.056673 
L 849.20569 370.760553 
L 850.443947 363.878726 
L 851.682204 359.105625 
L 852.920461 358.011667 
L 854.158719 360.172455 
L 856.635233 367.091946 
L 859.111748 373.34147 
L 860.350005 375.577696 
L 861.588262 376.197519 
L 862.82652 375.778331 
L 864.064777 375.525459 
L 865.303034 376.0203 
L 866.541291 376.664768 
L 867.779549 376.370788 
L 869.017806 375.059981 
L 870.256063 374.026538 
L 871.49432 374.72658 
L 872.732578 377.332211 
L 873.970835 380.231772 
L 875.209092 380.866517 
L 876.44735 377.644602 
L 877.685607 371.179688 
L 880.162121 355.538403 
L 881.400379 349.59074 
L 882.638636 346.607248 
L 883.876893 346.978191 
L 885.11515 350.348847 
L 886.353408 355.927421 
L 887.591665 363.009308 
L 892.544694 395.046516 
L 895.021209 406.88717 
L 896.259466 412.618571 
L 897.497723 416.952584 
L 898.73598 418.284207 
L 901.212495 415.409913 
L 902.450752 416.213748 
L 904.927267 422.413174 
L 906.165524 423.953318 
L 907.403781 424.037237 
L 909.880296 423.142267 
L 911.118553 422.311229 
L 913.595068 418.939635 
L 914.833325 418.447947 
L 916.071582 419.905673 
L 919.786354 427.488967 
L 923.501126 434.787125 
L 924.739383 436.604278 
L 925.97764 437.207384 
L 927.215898 435.665663 
L 928.454155 431.304313 
L 932.168927 411.197997 
L 933.407184 406.927272 
L 934.645441 403.880437 
L 935.883698 402.616001 
L 937.121956 404.241674 
L 938.360213 408.632593 
L 940.836727 419.77072 
L 942.074985 423.923557 
L 943.313242 426.757188 
L 945.789757 431.088488 
L 947.028014 433.102876 
L 948.266271 434.521058 
L 949.504528 434.731609 
L 950.742786 433.308583 
L 951.981043 430.115523 
L 953.2193 425.172796 
L 954.457557 419.230247 
L 955.695815 414.285331 
L 956.934072 412.13193 
L 958.172329 412.760639 
L 960.648844 417.232923 
L 961.887101 418.592695 
L 963.125358 418.215085 
L 964.363616 415.437416 
L 965.601873 409.912649 
L 968.078387 394.037271 
L 969.316645 387.649184 
L 970.554902 385.044967 
L 971.793159 386.747255 
L 973.031416 391.71331 
L 975.507931 405.07635 
L 976.746188 410.76895 
L 977.984446 415.001222 
L 979.222703 417.942725 
L 980.46096 419.703674 
L 981.699217 420.693078 
L 982.937475 422.040919 
L 984.175732 424.64282 
L 985.413989 428.266206 
L 991.605275 448.263926 
L 994.08179 454.931844 
L 995.320047 458.016668 
L 996.558305 460.227738 
L 997.796562 460.916853 
L 999.034819 459.963889 
L 1000.273076 457.451528 
L 1001.511334 453.676657 
L 1003.987848 445.322031 
L 1005.226105 442.640758 
L 1006.464363 441.809283 
L 1007.70262 442.546779 
L 1010.179134 445.337695 
L 1011.417392 446.368838 
L 1012.655649 447.007846 
L 1013.893906 447.145101 
L 1015.132164 447.130562 
L 1016.370421 448.068619 
L 1017.608678 450.704044 
L 1018.846935 454.324933 
L 1020.085193 457.244599 
L 1021.32345 457.939376 
L 1022.561707 455.985116 
L 1025.038222 448.652257 
L 1026.276479 446.390086 
L 1027.514736 445.833938 
L 1028.752993 445.919956 
L 1029.991251 445.527737 
L 1032.467765 443.691215 
L 1033.706023 443.647546 
L 1034.94428 444.821047 
L 1036.182537 447.233817 
L 1037.420794 450.499485 
L 1038.659052 453.290179 
L 1039.897309 454.191052 
L 1041.135566 453.437594 
L 1042.373823 452.356759 
L 1043.612081 451.571754 
L 1044.850338 451.104884 
L 1046.088595 451.194373 
L 1047.326852 451.88853 
L 1048.56511 452.824612 
L 1049.803367 453.947294 
L 1051.041624 455.734513 
L 1052.279882 458.234445 
L 1053.518139 460.298908 
L 1054.756396 460.515987 
L 1055.994653 458.587463 
L 1057.232911 455.234262 
L 1058.471168 451.493992 
L 1059.709425 448.240679 
L 1062.18594 442.964608 
L 1063.424197 441.062956 
L 1064.662454 440.770454 
L 1065.900711 442.222025 
L 1068.377226 447.280379 
L 1072.091998 454.799148 
L 1073.330255 457.025277 
L 1074.568512 457.833152 
L 1075.80677 455.956123 
L 1077.045027 451.505441 
L 1078.283284 446.319663 
L 1079.521541 442.684609 
L 1080.759799 441.745497 
L 1081.998056 442.542329 
L 1083.236313 442.689077 
L 1084.474571 440.818716 
L 1085.712828 437.948352 
L 1086.951085 435.841194 
L 1088.189342 435.016716 
L 1090.665857 434.737336 
L 1091.904114 433.598806 
L 1093.142371 431.40277 
L 1094.380629 429.688962 
L 1095.618886 430.854901 
L 1096.857143 435.959467 
L 1099.333658 451.272065 
L 1100.571915 457.087117 
L 1101.810172 460.904413 
L 1103.04843 463.43622 
L 1104.286687 465.133627 
L 1105.524944 466.106412 
L 1106.763201 466.524671 
L 1108.001459 466.74248 
L 1109.239716 467.236904 
L 1110.477973 468.336353 
L 1111.71623 470.178505 
L 1112.954488 472.991601 
L 1114.192745 476.880744 
L 1115.431002 481.297565 
L 1116.669259 485.163959 
L 1117.907517 487.474668 
L 1119.145774 488.023392 
L 1120.384031 487.958047 
L 1121.622289 488.967564 
L 1122.860546 491.753762 
L 1125.33706 499.431077 
L 1126.575318 501.536182 
L 1127.813575 501.526729 
L 1129.051832 500.08079 
L 1130.290089 498.076922 
L 1131.528347 495.43914 
L 1132.766604 491.514415 
L 1136.481376 475.989827 
L 1137.719633 472.931286 
L 1138.95789 472.403887 
L 1140.196148 473.944259 
L 1142.672662 478.903433 
L 1143.910919 480.452192 
L 1145.149177 480.291616 
L 1147.625691 477.314527 
L 1148.863948 476.740913 
L 1150.102206 477.251825 
L 1151.340463 478.543797 
L 1152.57872 480.228082 
L 1153.816977 481.685772 
L 1155.055235 482.447011 
L 1156.293492 483.045677 
L 1157.531749 484.450405 
L 1158.770007 486.534278 
L 1160.008264 488.031372 
L 1161.246521 488.133266 
L 1162.484778 487.371917 
L 1163.723036 486.987256 
L 1164.961293 487.971945 
L 1166.19955 490.286806 
L 1167.437807 492.95836 
L 1168.676065 495.21366 
L 1169.914322 496.834281 
L 1171.152579 497.590762 
L 1172.390837 497.284471 
L 1173.629094 496.123496 
L 1174.867351 494.62048 
L 1176.105608 493.582909 
L 1177.343866 494.185462 
L 1178.582123 496.991159 
L 1179.82038 500.759185 
L 1181.058637 502.981146 
L 1182.296895 501.943402 
L 1184.773409 494.853666 
L 1186.011666 494.404379 
L 1187.249924 498.435336 
L 1189.726438 512.280947 
L 1190.964696 514.464296 
L 1192.202953 510.992155 
L 1194.679467 497.120106 
L 1195.917725 493.172221 
L 1197.155982 492.653744 
L 1198.394239 494.264877 
L 1199.632496 496.596727 
L 1200.870754 499.452706 
L 1202.109011 503.150051 
L 1203.347268 507.219847 
L 1204.585525 510.457065 
L 1205.823783 511.625838 
L 1207.06204 510.224114 
L 1209.538555 504.202209 
L 1210.776812 502.968871 
L 1212.015069 504.101699 
L 1213.253326 506.939556 
L 1215.729841 513.128269 
L 1216.968098 516.023213 
L 1218.206355 519.423531 
L 1219.444613 523.434424 
L 1220.68287 527.05676 
L 1221.921127 528.937069 
L 1223.159384 528.783766 
L 1224.397642 527.753663 
L 1225.635899 527.69059 
L 1226.874156 529.562127 
L 1228.112414 532.358986 
L 1229.350671 534.054036 
L 1230.588928 533.498034 
L 1231.827185 531.059325 
L 1233.065443 528.010538 
L 1234.3037 525.660269 
L 1235.541957 524.608222 
L 1236.780214 524.639201 
L 1238.018472 525.392218 
L 1239.256729 526.768744 
L 1240.494986 528.843864 
L 1241.733243 531.786247 
L 1242.971501 535.298124 
L 1244.209758 538.070952 
L 1245.448015 538.489891 
L 1246.686273 535.801293 
L 1247.92453 530.538801 
L 1250.401044 518.160994 
L 1251.639302 513.675201 
L 1252.877559 510.897448 
L 1254.115816 509.443439 
L 1255.354073 509.150278 
L 1256.592331 510.13854 
L 1257.830588 512.010272 
L 1259.068845 514.098636 
L 1260.307103 516.655154 
L 1261.54536 520.652165 
L 1264.021874 531.012239 
L 1265.260132 533.600048 
L 1266.498389 533.313779 
L 1267.736646 530.849041 
L 1270.213161 523.289127 
L 1271.451418 520.910341 
L 1272.689675 521.188812 
L 1273.927932 524.133425 
L 1276.404447 533.550464 
L 1277.642704 537.272375 
L 1278.880962 538.70991 
L 1280.119219 537.876158 
L 1281.357476 536.189695 
L 1282.595733 534.884008 
L 1283.833991 534.248636 
L 1285.072248 534.752751 
L 1286.310505 536.948088 
L 1287.548762 539.93218 
L 1288.78702 541.538497 
L 1290.025277 540.359504 
L 1292.501791 534.02332 
L 1293.740049 533.166746 
L 1294.978306 535.280699 
L 1296.216563 539.838573 
L 1297.454821 545.231406 
L 1298.693078 549.474382 
L 1299.931335 551.461506 
L 1301.169592 551.618961 
L 1302.40785 551.44057 
L 1303.646107 552.296806 
L 1304.884364 554.496673 
L 1306.122621 557.221648 
L 1307.360879 559.15231 
L 1308.599136 559.374047 
L 1309.837393 557.916445 
L 1311.07565 555.398128 
L 1314.790422 546.429653 
L 1316.02868 543.815378 
L 1317.266937 541.899233 
L 1318.505194 541.423865 
L 1319.743451 542.529363 
L 1320.981709 544.287784 
L 1323.458223 547.137994 
L 1324.69648 548.596172 
L 1325.934738 549.637337 
L 1327.172995 549.275962 
L 1328.411252 546.965639 
L 1329.649509 542.980904 
L 1330.887767 538.422584 
L 1332.126024 534.854842 
L 1333.364281 533.460878 
L 1334.602539 534.182472 
L 1335.840796 535.613175 
L 1337.079053 535.992459 
L 1338.31731 534.410287 
L 1340.793825 527.809914 
L 1342.032082 525.692658 
L 1343.270339 525.22294 
L 1344.508597 525.488318 
L 1345.746854 525.30597 
L 1346.985111 524.111275 
L 1348.223368 521.95751 
L 1349.461626 518.939902 
L 1350.699883 515.101135 
L 1353.176398 506.223999 
L 1354.414655 502.674667 
L 1355.652912 501.268894 
L 1356.891169 502.749987 
L 1358.129427 506.814766 
L 1360.605941 518.057905 
L 1361.844198 522.858145 
L 1363.082456 525.867526 
L 1364.320713 526.845929 
L 1365.55897 526.835515 
L 1366.797228 527.487115 
L 1368.035485 529.484081 
L 1369.273742 531.841373 
L 1370.511999 532.803027 
L 1371.750257 531.428405 
L 1374.226771 524.995687 
L 1375.465028 523.631427 
L 1376.703286 524.828746 
L 1379.1798 530.400742 
L 1380.418057 533.275453 
L 1381.656315 535.752805 
L 1382.894572 536.847712 
L 1384.132829 536.16873 
L 1385.371087 534.766694 
L 1386.609344 534.241247 
L 1387.847601 535.369865 
L 1392.80063 544.309819 
L 1394.038887 547.205135 
L 1395.277145 549.303086 
L 1396.515402 548.80635 
L 1397.753659 545.250272 
L 1401.468431 528.717524 
L 1402.706688 525.845077 
L 1403.944946 525.446656 
L 1405.183203 526.902362 
L 1406.42146 528.860622 
L 1407.659717 530.413865 
L 1408.897975 531.490155 
L 1412.612746 534.116325 
L 1413.851004 535.585017 
L 1415.089261 537.742361 
L 1416.327518 540.296605 
L 1417.565775 542.568316 
L 1418.804033 543.942903 
L 1420.04229 544.250074 
L 1421.280547 544.01503 
L 1423.757062 543.951038 
L 1424.995319 542.590741 
L 1426.233576 538.420939 
L 1427.471834 530.952016 
L 1428.710091 521.459455 
L 1429.948348 513.055409 
L 1431.186605 509.204093 
L 1432.424863 511.396695 
L 1433.66312 518.135413 
L 1434.901377 526.03931 
L 1436.139634 532.035729 
L 1437.377892 535.05818 
L 1438.616149 536.313338 
L 1439.854406 538.014937 
L 1441.092664 541.285235 
L 1442.330921 545.309521 
L 1443.569178 548.599857 
L 1444.807435 550.310117 
L 1446.045693 550.312644 
L 1447.28395 548.709633 
L 1448.522207 545.468342 
L 1449.760464 540.57087 
L 1450.998722 534.670043 
L 1452.236979 529.35702 
L 1453.475236 526.121906 
L 1454.713494 524.9219 
L 1455.951751 524.058582 
L 1457.190008 521.64509 
L 1459.666523 512.980515 
L 1460.90478 509.46984 
L 1463.381294 503.666525 
L 1464.619552 501.529365 
L 1465.857809 502.122631 
L 1467.096066 506.319612 
L 1468.334323 513.31637 
L 1469.572581 521.417328 
L 1470.810838 528.301204 
L 1472.049095 531.860354 
L 1473.287353 531.468002 
L 1474.52561 528.11439 
L 1475.763867 523.732865 
L 1477.002124 519.961585 
L 1478.240382 517.187447 
L 1479.478639 515.266786 
L 1480.716896 514.245613 
L 1481.955153 513.698421 
L 1483.193411 512.692708 
L 1485.669925 509.127486 
L 1486.908182 509.625815 
L 1488.14644 513.989348 
L 1490.622954 528.493014 
L 1491.861212 531.957064 
L 1493.099469 529.395956 
L 1494.337726 520.620608 
L 1495.575983 508.515582 
L 1496.814241 498.202567 
L 1498.052498 493.810815 
L 1499.290755 496.004579 
L 1500.529012 502.679264 
L 1503.005527 519.082421 
L 1504.243784 525.704277 
L 1505.482041 530.275724 
L 1506.720299 532.806386 
L 1507.958556 533.618116 
L 1509.196813 532.578867 
L 1511.673328 526.954626 
L 1512.911585 525.28363 
L 1514.149842 524.81854 
L 1515.3881 524.05576 
L 1516.626357 522.033103 
L 1517.864614 519.658346 
L 1519.102871 518.613843 
L 1520.341129 519.70743 
L 1522.817643 525.163046 
L 1524.0559 525.678138 
L 1525.294158 524.030157 
L 1526.532415 523.122912 
L 1527.770672 525.023901 
L 1529.00893 527.682784 
L 1530.247187 527.697659 
L 1532.723701 522.435142 
L 1533.961959 521.948688 
L 1535.200216 522.295739 
L 1536.438473 521.194619 
L 1537.67673 518.503645 
L 1538.914988 516.128985 
L 1540.153245 515.366905 
L 1541.391502 515.902459 
L 1542.62976 516.689259 
L 1543.868017 516.608647 
L 1545.106274 515.289712 
L 1546.344531 513.649958 
L 1547.582789 512.846891 
L 1548.821046 513.519617 
L 1550.059303 516.249965 
L 1552.535818 525.449928 
L 1553.774075 526.807183 
L 1555.012332 524.245513 
L 1556.250589 520.106002 
L 1557.488847 517.61992 
L 1558.727104 518.353235 
L 1561.203619 524.562991 
L 1562.441876 525.719375 
L 1563.680133 523.775985 
L 1564.91839 518.709335 
L 1567.394905 504.75895 
L 1568.633162 499.803019 
L 1569.871419 497.627886 
L 1571.109677 497.872754 
L 1572.347934 499.938274 
L 1573.586191 503.851834 
L 1574.824448 509.640806 
L 1576.062706 516.082879 
L 1577.300963 521.349873 
L 1578.53922 524.580293 
L 1579.777478 525.706234 
L 1581.015735 524.945004 
L 1582.253992 523.259563 
L 1583.492249 521.825792 
L 1584.730507 520.71403 
L 1585.968764 518.739393 
L 1587.207021 514.732486 
L 1589.683536 503.307386 
L 1590.921793 499.008228 
L 1592.16005 496.664749 
L 1593.398307 496.253634 
L 1594.636565 497.683871 
L 1595.874822 500.954597 
L 1598.351337 510.249184 
L 1599.589594 512.858546 
L 1600.827851 513.013597 
L 1602.066108 512.058096 
L 1603.304366 511.735802 
L 1604.542623 513.106641 
L 1605.78088 516.349917 
L 1607.019137 520.977907 
L 1608.257395 526.159093 
L 1609.495652 530.599204 
L 1610.733909 532.430772 
L 1611.972166 530.4754 
L 1613.210424 525.935204 
L 1614.448681 521.851439 
L 1615.686938 520.788333 
L 1616.925196 523.319593 
L 1618.163453 527.902375 
L 1619.40171 531.534495 
L 1620.639967 531.196679 
L 1621.878225 525.760461 
L 1624.354739 507.738196 
L 1625.592996 501.408951 
L 1626.831254 499.640708 
L 1628.069511 503.078373 
L 1629.307768 510.783479 
L 1630.546026 519.715497 
L 1631.784283 526.02755 
L 1633.02254 527.353912 
L 1634.260797 524.084284 
L 1635.499055 519.076669 
L 1636.737312 515.888507 
L 1637.975569 517.278954 
L 1639.213826 525.263091 
L 1640.452084 540.623291 
L 1641.690341 561.202423 
L 1641.690341 561.202423 
" style="fill:none;stroke:#008000;stroke-linecap:square;stroke-width:1.5;"/>
   </g>
   <g id="patch_3">
    <path d="M 43.78125 586.86358 
L 43.78125 22.318125 
" style="fill:none;stroke:#000000;stroke-linecap:square;stroke-linejoin:miter;stroke-width:0.8;"/>
   </g>
   <g id="patch_4">
    <path d="M 1717.78125 586.86358 
L 1717.78125 22.318125 
" style="fill:none;stroke:#000000;stroke-linecap:square;stroke-linejoin:miter;stroke-width:0.8;"/>
   </g>
   <g id="patch_5">
    <path d="M 43.78125 586.86358 
L 1717.78125 586.86358 
" style="fill:none;stroke:#000000;stroke-linecap:square;stroke-linejoin:miter;stroke-width:0.8;"/>
   </g>
   <g id="patch_6">
    <path d="M 43.78125 22.318125 
L 1717.78125 22.318125 
" style="fill:none;stroke:#000000;stroke-linecap:square;stroke-linejoin:miter;stroke-width:0.8;"/>
   </g>
   <g id="text_18">
    <!-- before binarisation -->
    <g transform="translate(824.1825 16.318125)scale(0.12 -0.12)">
     <defs>
      <path d="M 3116 1747 
Q 3116 2381 2855 2742 
Q 2594 3103 2138 3103 
Q 1681 3103 1420 2742 
Q 1159 2381 1159 1747 
Q 1159 1113 1420 752 
Q 1681 391 2138 391 
Q 2594 391 2855 752 
Q 3116 1113 3116 1747 
z
M 1159 2969 
Q 1341 3281 1617 3432 
Q 1894 3584 2278 3584 
Q 2916 3584 3314 3078 
Q 3713 2572 3713 1747 
Q 3713 922 3314 415 
Q 2916 -91 2278 -91 
Q 1894 -91 1617 61 
Q 1341 213 1159 525 
L 1159 0 
L 581 0 
L 581 4863 
L 1159 4863 
L 1159 2969 
z
" id="DejaVuSans-62" transform="scale(0.015625)"/>
      <path d="M 1959 3097 
Q 1497 3097 1228 2736 
Q 959 2375 959 1747 
Q 959 1119 1226 758 
Q 1494 397 1959 397 
Q 2419 397 2687 759 
Q 2956 1122 2956 1747 
Q 2956 2369 2687 2733 
Q 2419 3097 1959 3097 
z
M 1959 3584 
Q 2709 3584 3137 3096 
Q 3566 2609 3566 1747 
Q 3566 888 3137 398 
Q 2709 -91 1959 -91 
Q 1206 -91 779 398 
Q 353 888 353 1747 
Q 353 2609 779 3096 
Q 1206 3584 1959 3584 
z
" id="DejaVuSans-6f" transform="scale(0.015625)"/>
      <path id="DejaVuSans-20" transform="scale(0.015625)"/>
      <path d="M 603 3500 
L 1178 3500 
L 1178 0 
L 603 0 
L 603 3500 
z
M 603 4863 
L 1178 4863 
L 1178 4134 
L 603 4134 
L 603 4863 
z
" id="DejaVuSans-69" transform="scale(0.015625)"/>
      <path d="M 3513 2113 
L 3513 0 
L 2938 0 
L 2938 2094 
Q 2938 2591 2744 2837 
Q 2550 3084 2163 3084 
Q 1697 3084 1428 2787 
Q 1159 2491 1159 1978 
L 1159 0 
L 581 0 
L 581 3500 
L 1159 3500 
L 1159 2956 
Q 1366 3272 1645 3428 
Q 1925 3584 2291 3584 
Q 2894 3584 3203 3211 
Q 3513 2838 3513 2113 
z
" id="DejaVuSans-6e" transform="scale(0.015625)"/>
      <path d="M 2834 3397 
L 2834 2853 
Q 2591 2978 2328 3040 
Q 2066 3103 1784 3103 
Q 1356 3103 1142 2972 
Q 928 2841 928 2578 
Q 928 2378 1081 2264 
Q 1234 2150 1697 2047 
L 1894 2003 
Q 2506 1872 2764 1633 
Q 3022 1394 3022 966 
Q 3022 478 2636 193 
Q 2250 -91 1575 -91 
Q 1294 -91 989 -36 
Q 684 19 347 128 
L 347 722 
Q 666 556 975 473 
Q 1284 391 1588 391 
Q 1994 391 2212 530 
Q 2431 669 2431 922 
Q 2431 1156 2273 1281 
Q 2116 1406 1581 1522 
L 1381 1569 
Q 847 1681 609 1914 
Q 372 2147 372 2553 
Q 372 3047 722 3315 
Q 1072 3584 1716 3584 
Q 2034 3584 2315 3537 
Q 2597 3491 2834 3397 
z
" id="DejaVuSans-73" transform="scale(0.015625)"/>
      <path d="M 1172 4494 
L 1172 3500 
L 2356 3500 
L 2356 3053 
L 1172 3053 
L 1172 1153 
Q 1172 725 1289 603 
Q 1406 481 1766 481 
L 2356 481 
L 2356 0 
L 1766 0 
Q 1100 0 847 248 
Q 594 497 594 1153 
L 594 3053 
L 172 3053 
L 172 3500 
L 594 3500 
L 594 4494 
L 1172 4494 
z
" id="DejaVuSans-74" transform="scale(0.015625)"/>
     </defs>
     <use xlink:href="#DejaVuSans-62"/>
     <use x="63.476562" xlink:href="#DejaVuSans-65"/>
     <use x="125" xlink:href="#DejaVuSans-66"/>
     <use x="160.205078" xlink:href="#DejaVuSans-6f"/>
     <use x="221.386719" xlink:href="#DejaVuSans-72"/>
     <use x="260.25" xlink:href="#DejaVuSans-65"/>
     <use x="321.773438" xlink:href="#DejaVuSans-20"/>
     <use x="353.560547" xlink:href="#DejaVuSans-62"/>
     <use x="417.037109" xlink:href="#DejaVuSans-69"/>
     <use x="444.820312" xlink:href="#DejaVuSans-6e"/>
     <use x="508.199219" xlink:href="#DejaVuSans-61"/>
     <use x="569.478516" xlink:href="#DejaVuSans-72"/>
     <use x="610.591797" xlink:href="#DejaVuSans-69"/>
     <use x="638.375" xlink:href="#DejaVuSans-73"/>
     <use x="690.474609" xlink:href="#DejaVuSans-61"/>
     <use x="751.753906" xlink:href="#DejaVuSans-74"/>
     <use x="790.962891" xlink:href="#DejaVuSans-69"/>
     <use x="818.746094" xlink:href="#DejaVuSans-6f"/>
     <use x="879.927734" xlink:href="#DejaVuSans-6e"/>
    </g>
   </g>
  </g>
  <g id="axes_2">
   <g id="patch_7">
    <path d="M 43.78125 1264.318125 
L 1717.78125 1264.318125 
L 1717.78125 699.77267 
L 43.78125 699.77267 
z
" style="fill:#ffffff;"/>
   </g>
   <g id="matplotlib.axis_3">
    <g id="xtick_8">
     <g id="line2d_17">
      <g>
       <use style="stroke:#000000;stroke-width:0.8;" x="119.872159" xlink:href="#mbfdb9e9dd7" y="1264.318125"/>
      </g>
     </g>
     <g id="text_19">
      <!-- 0 -->
      <g transform="translate(116.690909 1278.916563)scale(0.1 -0.1)">
       <use xlink:href="#DejaVuSans-30"/>
      </g>
     </g>
    </g>
    <g id="xtick_9">
     <g id="line2d_18">
      <g>
       <use style="stroke:#000000;stroke-width:0.8;" x="367.523613" xlink:href="#mbfdb9e9dd7" y="1264.318125"/>
      </g>
     </g>
     <g id="text_20">
      <!-- 200 -->
      <g transform="translate(357.979863 1278.916563)scale(0.1 -0.1)">
       <use xlink:href="#DejaVuSans-32"/>
       <use x="63.623047" xlink:href="#DejaVuSans-30"/>
       <use x="127.246094" xlink:href="#DejaVuSans-30"/>
      </g>
     </g>
    </g>
    <g id="xtick_10">
     <g id="line2d_19">
      <g>
       <use style="stroke:#000000;stroke-width:0.8;" x="615.175066" xlink:href="#mbfdb9e9dd7" y="1264.318125"/>
      </g>
     </g>
     <g id="text_21">
      <!-- 400 -->
      <g transform="translate(605.631316 1278.916563)scale(0.1 -0.1)">
       <use xlink:href="#DejaVuSans-34"/>
       <use x="63.623047" xlink:href="#DejaVuSans-30"/>
       <use x="127.246094" xlink:href="#DejaVuSans-30"/>
      </g>
     </g>
    </g>
    <g id="xtick_11">
     <g id="line2d_20">
      <g>
       <use style="stroke:#000000;stroke-width:0.8;" x="862.82652" xlink:href="#mbfdb9e9dd7" y="1264.318125"/>
      </g>
     </g>
     <g id="text_22">
      <!-- 600 -->
      <g transform="translate(853.28277 1278.916563)scale(0.1 -0.1)">
       <use xlink:href="#DejaVuSans-36"/>
       <use x="63.623047" xlink:href="#DejaVuSans-30"/>
       <use x="127.246094" xlink:href="#DejaVuSans-30"/>
      </g>
     </g>
    </g>
    <g id="xtick_12">
     <g id="line2d_21">
      <g>
       <use style="stroke:#000000;stroke-width:0.8;" x="1110.477973" xlink:href="#mbfdb9e9dd7" y="1264.318125"/>
      </g>
     </g>
     <g id="text_23">
      <!-- 800 -->
      <g transform="translate(1100.934223 1278.916563)scale(0.1 -0.1)">
       <use xlink:href="#DejaVuSans-38"/>
       <use x="63.623047" xlink:href="#DejaVuSans-30"/>
       <use x="127.246094" xlink:href="#DejaVuSans-30"/>
      </g>
     </g>
    </g>
    <g id="xtick_13">
     <g id="line2d_22">
      <g>
       <use style="stroke:#000000;stroke-width:0.8;" x="1358.129427" xlink:href="#mbfdb9e9dd7" y="1264.318125"/>
      </g>
     </g>
     <g id="text_24">
      <!-- 1000 -->
      <g transform="translate(1345.404427 1278.916563)scale(0.1 -0.1)">
       <use xlink:href="#DejaVuSans-31"/>
       <use x="63.623047" xlink:href="#DejaVuSans-30"/>
       <use x="127.246094" xlink:href="#DejaVuSans-30"/>
       <use x="190.869141" xlink:href="#DejaVuSans-30"/>
      </g>
     </g>
    </g>
    <g id="xtick_14">
     <g id="line2d_23">
      <g>
       <use style="stroke:#000000;stroke-width:0.8;" x="1605.78088" xlink:href="#mbfdb9e9dd7" y="1264.318125"/>
      </g>
     </g>
     <g id="text_25">
      <!-- 1200 -->
      <g transform="translate(1593.05588 1278.916563)scale(0.1 -0.1)">
       <use xlink:href="#DejaVuSans-31"/>
       <use x="63.623047" xlink:href="#DejaVuSans-32"/>
       <use x="127.246094" xlink:href="#DejaVuSans-30"/>
       <use x="190.869141" xlink:href="#DejaVuSans-30"/>
      </g>
     </g>
    </g>
    <g id="text_26">
     <!-- frame -->
     <g transform="translate(865.954687 1292.594688)scale(0.1 -0.1)">
      <use xlink:href="#DejaVuSans-66"/>
      <use x="35.205078" xlink:href="#DejaVuSans-72"/>
      <use x="76.318359" xlink:href="#DejaVuSans-61"/>
      <use x="137.597656" xlink:href="#DejaVuSans-6d"/>
      <use x="235.009766" xlink:href="#DejaVuSans-65"/>
     </g>
    </g>
   </g>
   <g id="matplotlib.axis_4">
    <g id="ytick_9">
     <g id="line2d_24">
      <g>
       <use style="stroke:#000000;stroke-width:0.8;" x="43.78125" xlink:href="#mfcb678aaa0" y="1238.656968"/>
      </g>
     </g>
     <g id="text_27">
      <!-- 0.0 -->
      <g transform="translate(20.878125 1242.456187)scale(0.1 -0.1)">
       <defs>
        <path d="M 684 794 
L 1344 794 
L 1344 0 
L 684 0 
L 684 794 
z
" id="DejaVuSans-2e" transform="scale(0.015625)"/>
       </defs>
       <use xlink:href="#DejaVuSans-30"/>
       <use x="63.623047" xlink:href="#DejaVuSans-2e"/>
       <use x="95.410156" xlink:href="#DejaVuSans-30"/>
      </g>
     </g>
    </g>
    <g id="ytick_10">
     <g id="line2d_25">
      <g>
       <use style="stroke:#000000;stroke-width:0.8;" x="43.78125" xlink:href="#mfcb678aaa0" y="1136.01234"/>
      </g>
     </g>
     <g id="text_28">
      <!-- 0.2 -->
      <g transform="translate(20.878125 1139.811559)scale(0.1 -0.1)">
       <use xlink:href="#DejaVuSans-30"/>
       <use x="63.623047" xlink:href="#DejaVuSans-2e"/>
       <use x="95.410156" xlink:href="#DejaVuSans-32"/>
      </g>
     </g>
    </g>
    <g id="ytick_11">
     <g id="line2d_26">
      <g>
       <use style="stroke:#000000;stroke-width:0.8;" x="43.78125" xlink:href="#mfcb678aaa0" y="1033.367712"/>
      </g>
     </g>
     <g id="text_29">
      <!-- 0.4 -->
      <g transform="translate(20.878125 1037.166931)scale(0.1 -0.1)">
       <use xlink:href="#DejaVuSans-30"/>
       <use x="63.623047" xlink:href="#DejaVuSans-2e"/>
       <use x="95.410156" xlink:href="#DejaVuSans-34"/>
      </g>
     </g>
    </g>
    <g id="ytick_12">
     <g id="line2d_27">
      <g>
       <use style="stroke:#000000;stroke-width:0.8;" x="43.78125" xlink:href="#mfcb678aaa0" y="930.723084"/>
      </g>
     </g>
     <g id="text_30">
      <!-- 0.6 -->
      <g transform="translate(20.878125 934.522302)scale(0.1 -0.1)">
       <use xlink:href="#DejaVuSans-30"/>
       <use x="63.623047" xlink:href="#DejaVuSans-2e"/>
       <use x="95.410156" xlink:href="#DejaVuSans-36"/>
      </g>
     </g>
    </g>
    <g id="ytick_13">
     <g id="line2d_28">
      <g>
       <use style="stroke:#000000;stroke-width:0.8;" x="43.78125" xlink:href="#mfcb678aaa0" y="828.078456"/>
      </g>
     </g>
     <g id="text_31">
      <!-- 0.8 -->
      <g transform="translate(20.878125 831.877674)scale(0.1 -0.1)">
       <use xlink:href="#DejaVuSans-30"/>
       <use x="63.623047" xlink:href="#DejaVuSans-2e"/>
       <use x="95.410156" xlink:href="#DejaVuSans-38"/>
      </g>
     </g>
    </g>
    <g id="ytick_14">
     <g id="line2d_29">
      <g>
       <use style="stroke:#000000;stroke-width:0.8;" x="43.78125" xlink:href="#mfcb678aaa0" y="725.433827"/>
      </g>
     </g>
     <g id="text_32">
      <!-- 1.0 -->
      <g transform="translate(20.878125 729.233046)scale(0.1 -0.1)">
       <use xlink:href="#DejaVuSans-31"/>
       <use x="63.623047" xlink:href="#DejaVuSans-2e"/>
       <use x="95.410156" xlink:href="#DejaVuSans-30"/>
      </g>
     </g>
    </g>
    <g id="text_33">
     <!-- GCaMP -->
     <g transform="translate(14.798437 999.803991)rotate(-90)scale(0.1 -0.1)">
      <use xlink:href="#DejaVuSans-47"/>
      <use x="77.490234" xlink:href="#DejaVuSans-43"/>
      <use x="147.314453" xlink:href="#DejaVuSans-61"/>
      <use x="208.59375" xlink:href="#DejaVuSans-4d"/>
      <use x="294.873047" xlink:href="#DejaVuSans-50"/>
     </g>
    </g>
   </g>
   <g id="line2d_30">
    <path clip-path="url(#p7aaeae7633)" d="M 119.872159 725.433827 
L 422.006932 725.433827 
L 423.24519 1238.656968 
L 445.53382 1238.656968 
L 446.772078 725.433827 
L 448.010335 725.433827 
L 449.248592 1238.656968 
L 454.201621 1238.656968 
L 455.439879 725.433827 
L 456.678136 725.433827 
L 457.916393 1238.656968 
L 459.15465 725.433827 
L 471.537223 725.433827 
L 472.77548 1238.656968 
L 1641.690341 1238.656968 
L 1641.690341 1238.656968 
" style="fill:none;stroke:#008000;stroke-linecap:square;stroke-width:1.5;"/>
   </g>
   <g id="patch_8">
    <path d="M 43.78125 1264.318125 
L 43.78125 699.77267 
" style="fill:none;stroke:#000000;stroke-linecap:square;stroke-linejoin:miter;stroke-width:0.8;"/>
   </g>
   <g id="patch_9">
    <path d="M 1717.78125 1264.318125 
L 1717.78125 699.77267 
" style="fill:none;stroke:#000000;stroke-linecap:square;stroke-linejoin:miter;stroke-width:0.8;"/>
   </g>
   <g id="patch_10">
    <path d="M 43.78125 1264.318125 
L 1717.78125 1264.318125 
" style="fill:none;stroke:#000000;stroke-linecap:square;stroke-linejoin:miter;stroke-width:0.8;"/>
   </g>
   <g id="patch_11">
    <path d="M 43.78125 699.77267 
L 1717.78125 699.77267 
" style="fill:none;stroke:#000000;stroke-linecap:square;stroke-linejoin:miter;stroke-width:0.8;"/>
   </g>
   <g id="text_34">
    <!-- before binarisation -->
    <g transform="translate(824.1825 693.77267)scale(0.12 -0.12)">
     <use xlink:href="#DejaVuSans-62"/>
     <use x="63.476562" xlink:href="#DejaVuSans-65"/>
     <use x="125" xlink:href="#DejaVuSans-66"/>
     <use x="160.205078" xlink:href="#DejaVuSans-6f"/>
     <use x="221.386719" xlink:href="#DejaVuSans-72"/>
     <use x="260.25" xlink:href="#DejaVuSans-65"/>
     <use x="321.773438" xlink:href="#DejaVuSans-20"/>
     <use x="353.560547" xlink:href="#DejaVuSans-62"/>
     <use x="417.037109" xlink:href="#DejaVuSans-69"/>
     <use x="444.820312" xlink:href="#DejaVuSans-6e"/>
     <use x="508.199219" xlink:href="#DejaVuSans-61"/>
     <use x="569.478516" xlink:href="#DejaVuSans-72"/>
     <use x="610.591797" xlink:href="#DejaVuSans-69"/>
     <use x="638.375" xlink:href="#DejaVuSans-73"/>
     <use x="690.474609" xlink:href="#DejaVuSans-61"/>
     <use x="751.753906" xlink:href="#DejaVuSans-74"/>
     <use x="790.962891" xlink:href="#DejaVuSans-69"/>
     <use x="818.746094" xlink:href="#DejaVuSans-6f"/>
     <use x="879.927734" xlink:href="#DejaVuSans-6e"/>
    </g>
   </g>
  </g>
 </g>
 <defs>
  <clipPath id="pd6aa0d5737">
   <rect height="564.545455" width="1674" x="43.78125" y="22.318125"/>
  </clipPath>
  <clipPath id="p7aaeae7633">
   <rect height="564.545455" width="1674" x="43.78125" y="699.77267"/>
  </clipPath>
 </defs>
</svg>
