<?xml version="1.0" encoding="utf-8" standalone="no"?>
<!DOCTYPE svg PUBLIC "-//W3C//DTD SVG 1.1//EN"
  "http://www.w3.org/Graphics/SVG/1.1/DTD/svg11.dtd">
<svg height="1301.874375pt" version="1.1" viewBox="0 0 1724.98125 1301.874375" width="1724.98125pt" xmlns="http://www.w3.org/2000/svg" xmlns:xlink="http://www.w3.org/1999/xlink">
 <metadata>
  <rdf:RDF xmlns:cc="http://creativecommons.org/ns#" xmlns:dc="http://purl.org/dc/elements/1.1/" xmlns:rdf="http://www.w3.org/1999/02/22-rdf-syntax-ns#">
   <cc:Work>
    <dc:type rdf:resource="http://purl.org/dc/dcmitype/StillImage"/>
    <dc:date>2022-07-24T15:54:45.025606</dc:date>
    <dc:format>image/svg+xml</dc:format>
    <dc:creator>
     <cc:Agent>
      <dc:title>Matplotlib v3.4.2, https://matplotlib.org/</dc:title>
     </cc:Agent>
    </dc:creator>
   </cc:Work>
  </rdf:RDF>
 </metadata>
 <defs>
  <style type="text/css">*{stroke-linecap:butt;stroke-linejoin:round;}</style>
 </defs>
 <g id="figure_1">
  <g id="patch_1">
   <path d="M 0 1301.874375 
L 1724.98125 1301.874375 
L 1724.98125 0 
L 0 0 
z
" style="fill:#ffffff;"/>
  </g>
  <g id="axes_1">
   <g id="patch_2">
    <path d="M 43.78125 586.86358 
L 1717.78125 586.86358 
L 1717.78125 22.318125 
L 43.78125 22.318125 
z
" style="fill:#ffffff;"/>
   </g>
   <g id="matplotlib.axis_1">
    <g id="xtick_1">
     <g id="line2d_1">
      <defs>
       <path d="M 0 0 
L 0 3.5 
" id="ma9c9cb3dca" style="stroke:#000000;stroke-width:0.8;"/>
      </defs>
      <g>
       <use style="stroke:#000000;stroke-width:0.8;" x="119.872159" xlink:href="#ma9c9cb3dca" y="586.86358"/>
      </g>
     </g>
     <g id="text_1">
      <!-- 0 -->
      <g transform="translate(116.690909 601.462017)scale(0.1 -0.1)">
       <defs>
        <path d="M 2034 4250 
Q 1547 4250 1301 3770 
Q 1056 3291 1056 2328 
Q 1056 1369 1301 889 
Q 1547 409 2034 409 
Q 2525 409 2770 889 
Q 3016 1369 3016 2328 
Q 3016 3291 2770 3770 
Q 2525 4250 2034 4250 
z
M 2034 4750 
Q 2819 4750 3233 4129 
Q 3647 3509 3647 2328 
Q 3647 1150 3233 529 
Q 2819 -91 2034 -91 
Q 1250 -91 836 529 
Q 422 1150 422 2328 
Q 422 3509 836 4129 
Q 1250 4750 2034 4750 
z
" id="DejaVuSans-30" transform="scale(0.015625)"/>
       </defs>
       <use xlink:href="#DejaVuSans-30"/>
      </g>
     </g>
    </g>
    <g id="xtick_2">
     <g id="line2d_2">
      <g>
       <use style="stroke:#000000;stroke-width:0.8;" x="367.523613" xlink:href="#ma9c9cb3dca" y="586.86358"/>
      </g>
     </g>
     <g id="text_2">
      <!-- 200 -->
      <g transform="translate(357.979863 601.462017)scale(0.1 -0.1)">
       <defs>
        <path d="M 1228 531 
L 3431 531 
L 3431 0 
L 469 0 
L 469 531 
Q 828 903 1448 1529 
Q 2069 2156 2228 2338 
Q 2531 2678 2651 2914 
Q 2772 3150 2772 3378 
Q 2772 3750 2511 3984 
Q 2250 4219 1831 4219 
Q 1534 4219 1204 4116 
Q 875 4013 500 3803 
L 500 4441 
Q 881 4594 1212 4672 
Q 1544 4750 1819 4750 
Q 2544 4750 2975 4387 
Q 3406 4025 3406 3419 
Q 3406 3131 3298 2873 
Q 3191 2616 2906 2266 
Q 2828 2175 2409 1742 
Q 1991 1309 1228 531 
z
" id="DejaVuSans-32" transform="scale(0.015625)"/>
       </defs>
       <use xlink:href="#DejaVuSans-32"/>
       <use x="63.623047" xlink:href="#DejaVuSans-30"/>
       <use x="127.246094" xlink:href="#DejaVuSans-30"/>
      </g>
     </g>
    </g>
    <g id="xtick_3">
     <g id="line2d_3">
      <g>
       <use style="stroke:#000000;stroke-width:0.8;" x="615.175066" xlink:href="#ma9c9cb3dca" y="586.86358"/>
      </g>
     </g>
     <g id="text_3">
      <!-- 400 -->
      <g transform="translate(605.631316 601.462017)scale(0.1 -0.1)">
       <defs>
        <path d="M 2419 4116 
L 825 1625 
L 2419 1625 
L 2419 4116 
z
M 2253 4666 
L 3047 4666 
L 3047 1625 
L 3713 1625 
L 3713 1100 
L 3047 1100 
L 3047 0 
L 2419 0 
L 2419 1100 
L 313 1100 
L 313 1709 
L 2253 4666 
z
" id="DejaVuSans-34" transform="scale(0.015625)"/>
       </defs>
       <use xlink:href="#DejaVuSans-34"/>
       <use x="63.623047" xlink:href="#DejaVuSans-30"/>
       <use x="127.246094" xlink:href="#DejaVuSans-30"/>
      </g>
     </g>
    </g>
    <g id="xtick_4">
     <g id="line2d_4">
      <g>
       <use style="stroke:#000000;stroke-width:0.8;" x="862.82652" xlink:href="#ma9c9cb3dca" y="586.86358"/>
      </g>
     </g>
     <g id="text_4">
      <!-- 600 -->
      <g transform="translate(853.28277 601.462017)scale(0.1 -0.1)">
       <defs>
        <path d="M 2113 2584 
Q 1688 2584 1439 2293 
Q 1191 2003 1191 1497 
Q 1191 994 1439 701 
Q 1688 409 2113 409 
Q 2538 409 2786 701 
Q 3034 994 3034 1497 
Q 3034 2003 2786 2293 
Q 2538 2584 2113 2584 
z
M 3366 4563 
L 3366 3988 
Q 3128 4100 2886 4159 
Q 2644 4219 2406 4219 
Q 1781 4219 1451 3797 
Q 1122 3375 1075 2522 
Q 1259 2794 1537 2939 
Q 1816 3084 2150 3084 
Q 2853 3084 3261 2657 
Q 3669 2231 3669 1497 
Q 3669 778 3244 343 
Q 2819 -91 2113 -91 
Q 1303 -91 875 529 
Q 447 1150 447 2328 
Q 447 3434 972 4092 
Q 1497 4750 2381 4750 
Q 2619 4750 2861 4703 
Q 3103 4656 3366 4563 
z
" id="DejaVuSans-36" transform="scale(0.015625)"/>
       </defs>
       <use xlink:href="#DejaVuSans-36"/>
       <use x="63.623047" xlink:href="#DejaVuSans-30"/>
       <use x="127.246094" xlink:href="#DejaVuSans-30"/>
      </g>
     </g>
    </g>
    <g id="xtick_5">
     <g id="line2d_5">
      <g>
       <use style="stroke:#000000;stroke-width:0.8;" x="1110.477973" xlink:href="#ma9c9cb3dca" y="586.86358"/>
      </g>
     </g>
     <g id="text_5">
      <!-- 800 -->
      <g transform="translate(1100.934223 601.462017)scale(0.1 -0.1)">
       <defs>
        <path d="M 2034 2216 
Q 1584 2216 1326 1975 
Q 1069 1734 1069 1313 
Q 1069 891 1326 650 
Q 1584 409 2034 409 
Q 2484 409 2743 651 
Q 3003 894 3003 1313 
Q 3003 1734 2745 1975 
Q 2488 2216 2034 2216 
z
M 1403 2484 
Q 997 2584 770 2862 
Q 544 3141 544 3541 
Q 544 4100 942 4425 
Q 1341 4750 2034 4750 
Q 2731 4750 3128 4425 
Q 3525 4100 3525 3541 
Q 3525 3141 3298 2862 
Q 3072 2584 2669 2484 
Q 3125 2378 3379 2068 
Q 3634 1759 3634 1313 
Q 3634 634 3220 271 
Q 2806 -91 2034 -91 
Q 1263 -91 848 271 
Q 434 634 434 1313 
Q 434 1759 690 2068 
Q 947 2378 1403 2484 
z
M 1172 3481 
Q 1172 3119 1398 2916 
Q 1625 2713 2034 2713 
Q 2441 2713 2670 2916 
Q 2900 3119 2900 3481 
Q 2900 3844 2670 4047 
Q 2441 4250 2034 4250 
Q 1625 4250 1398 4047 
Q 1172 3844 1172 3481 
z
" id="DejaVuSans-38" transform="scale(0.015625)"/>
       </defs>
       <use xlink:href="#DejaVuSans-38"/>
       <use x="63.623047" xlink:href="#DejaVuSans-30"/>
       <use x="127.246094" xlink:href="#DejaVuSans-30"/>
      </g>
     </g>
    </g>
    <g id="xtick_6">
     <g id="line2d_6">
      <g>
       <use style="stroke:#000000;stroke-width:0.8;" x="1358.129427" xlink:href="#ma9c9cb3dca" y="586.86358"/>
      </g>
     </g>
     <g id="text_6">
      <!-- 1000 -->
      <g transform="translate(1345.404427 601.462017)scale(0.1 -0.1)">
       <defs>
        <path d="M 794 531 
L 1825 531 
L 1825 4091 
L 703 3866 
L 703 4441 
L 1819 4666 
L 2450 4666 
L 2450 531 
L 3481 531 
L 3481 0 
L 794 0 
L 794 531 
z
" id="DejaVuSans-31" transform="scale(0.015625)"/>
       </defs>
       <use xlink:href="#DejaVuSans-31"/>
       <use x="63.623047" xlink:href="#DejaVuSans-30"/>
       <use x="127.246094" xlink:href="#DejaVuSans-30"/>
       <use x="190.869141" xlink:href="#DejaVuSans-30"/>
      </g>
     </g>
    </g>
    <g id="xtick_7">
     <g id="line2d_7">
      <g>
       <use style="stroke:#000000;stroke-width:0.8;" x="1605.78088" xlink:href="#ma9c9cb3dca" y="586.86358"/>
      </g>
     </g>
     <g id="text_7">
      <!-- 1200 -->
      <g transform="translate(1593.05588 601.462017)scale(0.1 -0.1)">
       <use xlink:href="#DejaVuSans-31"/>
       <use x="63.623047" xlink:href="#DejaVuSans-32"/>
       <use x="127.246094" xlink:href="#DejaVuSans-30"/>
       <use x="190.869141" xlink:href="#DejaVuSans-30"/>
      </g>
     </g>
    </g>
    <g id="text_8">
     <!-- frame -->
     <g transform="translate(865.954687 615.140142)scale(0.1 -0.1)">
      <defs>
       <path d="M 2375 4863 
L 2375 4384 
L 1825 4384 
Q 1516 4384 1395 4259 
Q 1275 4134 1275 3809 
L 1275 3500 
L 2222 3500 
L 2222 3053 
L 1275 3053 
L 1275 0 
L 697 0 
L 697 3053 
L 147 3053 
L 147 3500 
L 697 3500 
L 697 3744 
Q 697 4328 969 4595 
Q 1241 4863 1831 4863 
L 2375 4863 
z
" id="DejaVuSans-66" transform="scale(0.015625)"/>
       <path d="M 2631 2963 
Q 2534 3019 2420 3045 
Q 2306 3072 2169 3072 
Q 1681 3072 1420 2755 
Q 1159 2438 1159 1844 
L 1159 0 
L 581 0 
L 581 3500 
L 1159 3500 
L 1159 2956 
Q 1341 3275 1631 3429 
Q 1922 3584 2338 3584 
Q 2397 3584 2469 3576 
Q 2541 3569 2628 3553 
L 2631 2963 
z
" id="DejaVuSans-72" transform="scale(0.015625)"/>
       <path d="M 2194 1759 
Q 1497 1759 1228 1600 
Q 959 1441 959 1056 
Q 959 750 1161 570 
Q 1363 391 1709 391 
Q 2188 391 2477 730 
Q 2766 1069 2766 1631 
L 2766 1759 
L 2194 1759 
z
M 3341 1997 
L 3341 0 
L 2766 0 
L 2766 531 
Q 2569 213 2275 61 
Q 1981 -91 1556 -91 
Q 1019 -91 701 211 
Q 384 513 384 1019 
Q 384 1609 779 1909 
Q 1175 2209 1959 2209 
L 2766 2209 
L 2766 2266 
Q 2766 2663 2505 2880 
Q 2244 3097 1772 3097 
Q 1472 3097 1187 3025 
Q 903 2953 641 2809 
L 641 3341 
Q 956 3463 1253 3523 
Q 1550 3584 1831 3584 
Q 2591 3584 2966 3190 
Q 3341 2797 3341 1997 
z
" id="DejaVuSans-61" transform="scale(0.015625)"/>
       <path d="M 3328 2828 
Q 3544 3216 3844 3400 
Q 4144 3584 4550 3584 
Q 5097 3584 5394 3201 
Q 5691 2819 5691 2113 
L 5691 0 
L 5113 0 
L 5113 2094 
Q 5113 2597 4934 2840 
Q 4756 3084 4391 3084 
Q 3944 3084 3684 2787 
Q 3425 2491 3425 1978 
L 3425 0 
L 2847 0 
L 2847 2094 
Q 2847 2600 2669 2842 
Q 2491 3084 2119 3084 
Q 1678 3084 1418 2786 
Q 1159 2488 1159 1978 
L 1159 0 
L 581 0 
L 581 3500 
L 1159 3500 
L 1159 2956 
Q 1356 3278 1631 3431 
Q 1906 3584 2284 3584 
Q 2666 3584 2933 3390 
Q 3200 3197 3328 2828 
z
" id="DejaVuSans-6d" transform="scale(0.015625)"/>
       <path d="M 3597 1894 
L 3597 1613 
L 953 1613 
Q 991 1019 1311 708 
Q 1631 397 2203 397 
Q 2534 397 2845 478 
Q 3156 559 3463 722 
L 3463 178 
Q 3153 47 2828 -22 
Q 2503 -91 2169 -91 
Q 1331 -91 842 396 
Q 353 884 353 1716 
Q 353 2575 817 3079 
Q 1281 3584 2069 3584 
Q 2775 3584 3186 3129 
Q 3597 2675 3597 1894 
z
M 3022 2063 
Q 3016 2534 2758 2815 
Q 2500 3097 2075 3097 
Q 1594 3097 1305 2825 
Q 1016 2553 972 2059 
L 3022 2063 
z
" id="DejaVuSans-65" transform="scale(0.015625)"/>
      </defs>
      <use xlink:href="#DejaVuSans-66"/>
      <use x="35.205078" xlink:href="#DejaVuSans-72"/>
      <use x="76.318359" xlink:href="#DejaVuSans-61"/>
      <use x="137.597656" xlink:href="#DejaVuSans-6d"/>
      <use x="235.009766" xlink:href="#DejaVuSans-65"/>
     </g>
    </g>
   </g>
   <g id="matplotlib.axis_2">
    <g id="ytick_1">
     <g id="line2d_8">
      <defs>
       <path d="M 0 0 
L -3.5 0 
" id="mab95f1cc58" style="stroke:#000000;stroke-width:0.8;"/>
      </defs>
      <g>
       <use style="stroke:#000000;stroke-width:0.8;" x="43.78125" xlink:href="#mab95f1cc58" y="561.202423"/>
      </g>
     </g>
     <g id="text_9">
      <!-- 0.0 -->
      <g transform="translate(20.878125 565.001641)scale(0.1 -0.1)">
       <defs>
        <path d="M 684 794 
L 1344 794 
L 1344 0 
L 684 0 
L 684 794 
z
" id="DejaVuSans-2e" transform="scale(0.015625)"/>
       </defs>
       <use xlink:href="#DejaVuSans-30"/>
       <use x="63.623047" xlink:href="#DejaVuSans-2e"/>
       <use x="95.410156" xlink:href="#DejaVuSans-30"/>
      </g>
     </g>
    </g>
    <g id="ytick_2">
     <g id="line2d_9">
      <g>
       <use style="stroke:#000000;stroke-width:0.8;" x="43.78125" xlink:href="#mab95f1cc58" y="465.710825"/>
      </g>
     </g>
     <g id="text_10">
      <!-- 0.5 -->
      <g transform="translate(20.878125 469.510044)scale(0.1 -0.1)">
       <defs>
        <path d="M 691 4666 
L 3169 4666 
L 3169 4134 
L 1269 4134 
L 1269 2991 
Q 1406 3038 1543 3061 
Q 1681 3084 1819 3084 
Q 2600 3084 3056 2656 
Q 3513 2228 3513 1497 
Q 3513 744 3044 326 
Q 2575 -91 1722 -91 
Q 1428 -91 1123 -41 
Q 819 9 494 109 
L 494 744 
Q 775 591 1075 516 
Q 1375 441 1709 441 
Q 2250 441 2565 725 
Q 2881 1009 2881 1497 
Q 2881 1984 2565 2268 
Q 2250 2553 1709 2553 
Q 1456 2553 1204 2497 
Q 953 2441 691 2322 
L 691 4666 
z
" id="DejaVuSans-35" transform="scale(0.015625)"/>
       </defs>
       <use xlink:href="#DejaVuSans-30"/>
       <use x="63.623047" xlink:href="#DejaVuSans-2e"/>
       <use x="95.410156" xlink:href="#DejaVuSans-35"/>
      </g>
     </g>
    </g>
    <g id="ytick_3">
     <g id="line2d_10">
      <g>
       <use style="stroke:#000000;stroke-width:0.8;" x="43.78125" xlink:href="#mab95f1cc58" y="370.219228"/>
      </g>
     </g>
     <g id="text_11">
      <!-- 1.0 -->
      <g transform="translate(20.878125 374.018447)scale(0.1 -0.1)">
       <use xlink:href="#DejaVuSans-31"/>
       <use x="63.623047" xlink:href="#DejaVuSans-2e"/>
       <use x="95.410156" xlink:href="#DejaVuSans-30"/>
      </g>
     </g>
    </g>
    <g id="ytick_4">
     <g id="line2d_11">
      <g>
       <use style="stroke:#000000;stroke-width:0.8;" x="43.78125" xlink:href="#mab95f1cc58" y="274.727631"/>
      </g>
     </g>
     <g id="text_12">
      <!-- 1.5 -->
      <g transform="translate(20.878125 278.52685)scale(0.1 -0.1)">
       <use xlink:href="#DejaVuSans-31"/>
       <use x="63.623047" xlink:href="#DejaVuSans-2e"/>
       <use x="95.410156" xlink:href="#DejaVuSans-35"/>
      </g>
     </g>
    </g>
    <g id="ytick_5">
     <g id="line2d_12">
      <g>
       <use style="stroke:#000000;stroke-width:0.8;" x="43.78125" xlink:href="#mab95f1cc58" y="179.236034"/>
      </g>
     </g>
     <g id="text_13">
      <!-- 2.0 -->
      <g transform="translate(20.878125 183.035253)scale(0.1 -0.1)">
       <use xlink:href="#DejaVuSans-32"/>
       <use x="63.623047" xlink:href="#DejaVuSans-2e"/>
       <use x="95.410156" xlink:href="#DejaVuSans-30"/>
      </g>
     </g>
    </g>
    <g id="ytick_6">
     <g id="line2d_13">
      <g>
       <use style="stroke:#000000;stroke-width:0.8;" x="43.78125" xlink:href="#mab95f1cc58" y="83.744437"/>
      </g>
     </g>
     <g id="text_14">
      <!-- 2.5 -->
      <g transform="translate(20.878125 87.543656)scale(0.1 -0.1)">
       <use xlink:href="#DejaVuSans-32"/>
       <use x="63.623047" xlink:href="#DejaVuSans-2e"/>
       <use x="95.410156" xlink:href="#DejaVuSans-35"/>
      </g>
     </g>
    </g>
    <g id="text_15">
     <!-- GCaMP -->
     <g transform="translate(14.798437 322.349446)rotate(-90)scale(0.1 -0.1)">
      <defs>
       <path d="M 3809 666 
L 3809 1919 
L 2778 1919 
L 2778 2438 
L 4434 2438 
L 4434 434 
Q 4069 175 3628 42 
Q 3188 -91 2688 -91 
Q 1594 -91 976 548 
Q 359 1188 359 2328 
Q 359 3472 976 4111 
Q 1594 4750 2688 4750 
Q 3144 4750 3555 4637 
Q 3966 4525 4313 4306 
L 4313 3634 
Q 3963 3931 3569 4081 
Q 3175 4231 2741 4231 
Q 1884 4231 1454 3753 
Q 1025 3275 1025 2328 
Q 1025 1384 1454 906 
Q 1884 428 2741 428 
Q 3075 428 3337 486 
Q 3600 544 3809 666 
z
" id="DejaVuSans-47" transform="scale(0.015625)"/>
       <path d="M 4122 4306 
L 4122 3641 
Q 3803 3938 3442 4084 
Q 3081 4231 2675 4231 
Q 1875 4231 1450 3742 
Q 1025 3253 1025 2328 
Q 1025 1406 1450 917 
Q 1875 428 2675 428 
Q 3081 428 3442 575 
Q 3803 722 4122 1019 
L 4122 359 
Q 3791 134 3420 21 
Q 3050 -91 2638 -91 
Q 1578 -91 968 557 
Q 359 1206 359 2328 
Q 359 3453 968 4101 
Q 1578 4750 2638 4750 
Q 3056 4750 3426 4639 
Q 3797 4528 4122 4306 
z
" id="DejaVuSans-43" transform="scale(0.015625)"/>
       <path d="M 628 4666 
L 1569 4666 
L 2759 1491 
L 3956 4666 
L 4897 4666 
L 4897 0 
L 4281 0 
L 4281 4097 
L 3078 897 
L 2444 897 
L 1241 4097 
L 1241 0 
L 628 0 
L 628 4666 
z
" id="DejaVuSans-4d" transform="scale(0.015625)"/>
       <path d="M 1259 4147 
L 1259 2394 
L 2053 2394 
Q 2494 2394 2734 2622 
Q 2975 2850 2975 3272 
Q 2975 3691 2734 3919 
Q 2494 4147 2053 4147 
L 1259 4147 
z
M 628 4666 
L 2053 4666 
Q 2838 4666 3239 4311 
Q 3641 3956 3641 3272 
Q 3641 2581 3239 2228 
Q 2838 1875 2053 1875 
L 1259 1875 
L 1259 0 
L 628 0 
L 628 4666 
z
" id="DejaVuSans-50" transform="scale(0.015625)"/>
      </defs>
      <use xlink:href="#DejaVuSans-47"/>
      <use x="77.490234" xlink:href="#DejaVuSans-43"/>
      <use x="147.314453" xlink:href="#DejaVuSans-61"/>
      <use x="208.59375" xlink:href="#DejaVuSans-4d"/>
      <use x="294.873047" xlink:href="#DejaVuSans-50"/>
     </g>
    </g>
   </g>
   <g id="line2d_14">
    <path clip-path="url(#p2a0c1a9834)" d="M 119.872159 410.35834 
L 121.110416 411.094719 
L 122.348674 411.616753 
L 123.586931 411.745076 
L 124.825188 411.186628 
L 126.063445 409.476307 
L 127.301703 406.272602 
L 128.53996 401.688427 
L 129.778217 396.595391 
L 131.016474 393.047985 
L 132.254732 393.553039 
L 133.492989 398.574364 
L 134.731246 405.627638 
L 135.969504 411.781757 
L 137.207761 415.781503 
L 138.446018 417.73075 
L 139.684275 418.25904 
L 140.922533 418.056956 
L 142.16079 417.55562 
L 143.399047 416.858307 
L 144.637304 415.868971 
L 148.352076 411.91566 
L 153.305105 408.071654 
L 154.543363 407.733346 
L 155.78162 408.020533 
L 157.019877 408.986274 
L 159.496392 411.916768 
L 160.734649 412.806439 
L 161.972906 412.717623 
L 164.449421 411.002751 
L 165.687678 410.613476 
L 166.925935 410.680636 
L 168.164193 410.999724 
L 169.40245 411.4728 
L 170.640707 412.152944 
L 171.878964 413.190327 
L 176.831993 418.738799 
L 178.070251 419.492008 
L 179.308508 419.566433 
L 180.546765 419.020574 
L 181.785022 417.914249 
L 184.261537 414.624729 
L 185.499794 413.329236 
L 186.738052 412.608773 
L 187.976309 412.289571 
L 190.452823 411.992632 
L 191.691081 411.997806 
L 192.929338 412.269882 
L 195.405852 413.434872 
L 196.64411 413.566182 
L 197.882367 412.773947 
L 200.358881 409.852517 
L 201.597139 409.645514 
L 202.835396 410.960671 
L 204.073653 413.099103 
L 205.311911 414.856632 
L 206.550168 415.518798 
L 207.788425 415.252131 
L 209.026682 414.584236 
L 210.26494 413.742835 
L 211.503197 412.526137 
L 212.741454 410.728753 
L 213.979711 408.611696 
L 215.217969 406.860136 
L 216.456226 406.134459 
L 217.694483 406.626256 
L 218.93274 407.985921 
L 221.409255 411.601717 
L 222.647512 413.436723 
L 223.88577 414.918028 
L 225.124027 415.560312 
L 226.362284 414.933922 
L 227.600541 412.885045 
L 230.077056 406.577141 
L 231.315313 404.367364 
L 232.55357 403.602585 
L 233.791828 403.956743 
L 236.268342 405.543756 
L 237.5066 405.912773 
L 238.744857 405.88748 
L 239.983114 405.729018 
L 241.221371 405.705931 
L 243.697886 405.874354 
L 246.1744 405.380156 
L 247.412658 405.630438 
L 248.650915 406.603931 
L 249.889172 407.926714 
L 251.127429 408.903958 
L 252.365687 409.136689 
L 254.842201 408.627177 
L 257.318716 408.600722 
L 258.556973 408.301388 
L 259.79523 407.805327 
L 261.033488 407.561112 
L 262.271745 407.931544 
L 264.748259 409.543036 
L 265.986517 409.672781 
L 267.224774 409.020315 
L 268.463031 407.692116 
L 270.939546 403.923713 
L 272.177803 402.579745 
L 273.41606 402.104532 
L 275.892575 402.026284 
L 277.130832 401.893208 
L 278.369089 401.470463 
L 279.607347 400.092344 
L 280.845604 397.234706 
L 283.322118 389.447563 
L 284.560376 387.123381 
L 285.798633 387.578721 
L 287.03689 391.803035 
L 288.275147 399.603702 
L 289.513405 408.949538 
L 290.751662 417.139409 
L 291.989919 422.57719 
L 293.228177 424.99028 
L 294.466434 424.806267 
L 295.704691 422.946586 
L 296.942948 420.643752 
L 298.181206 418.870844 
L 299.419463 417.801076 
L 300.65772 416.931539 
L 301.895977 415.562411 
L 303.134235 413.065679 
L 304.372492 409.180721 
L 306.849006 399.276055 
L 308.087264 395.205108 
L 309.325521 392.658626 
L 310.563778 391.410165 
L 311.802036 391.156455 
L 313.040293 392.361792 
L 314.27855 395.604875 
L 316.755065 404.729805 
L 317.993322 407.315284 
L 319.231579 407.588052 
L 320.469836 406.016169 
L 322.946351 401.3715 
L 324.184608 400.106651 
L 325.422866 399.818082 
L 329.137637 400.739018 
L 330.375895 400.636539 
L 334.090666 399.612438 
L 336.567181 399.665372 
L 337.805438 399.411611 
L 340.281953 398.497788 
L 341.52021 397.890335 
L 342.758467 396.970026 
L 346.473239 393.199032 
L 347.711496 392.258005 
L 348.949754 391.790758 
L 350.188011 391.944178 
L 351.426268 392.531942 
L 352.664525 392.923909 
L 353.902783 392.515484 
L 355.14104 391.21084 
L 358.855812 385.663905 
L 360.094069 385.152094 
L 361.332326 386.242946 
L 362.570584 388.825591 
L 363.808841 392.01906 
L 365.047098 394.670302 
L 366.285355 396.083102 
L 367.523613 396.300403 
L 368.76187 395.852169 
L 370.000127 395.284964 
L 373.714899 394.034975 
L 376.191413 392.452751 
L 377.429671 392.287969 
L 378.667928 393.319817 
L 381.144443 396.964283 
L 382.3827 397.998278 
L 383.620957 398.306166 
L 384.859214 397.83534 
L 386.097472 396.360819 
L 387.335729 393.893103 
L 388.573986 390.94098 
L 389.812243 388.473114 
L 391.050501 387.326466 
L 392.288758 387.558383 
L 393.527015 388.644827 
L 394.765272 390.016636 
L 396.00353 391.137882 
L 397.241787 391.534932 
L 398.480044 390.976792 
L 399.718302 389.4764 
L 402.194816 385.014014 
L 403.433073 383.411435 
L 404.671331 383.311406 
L 405.909588 385.050254 
L 408.386102 390.758498 
L 409.62436 392.922406 
L 410.862617 394.620056 
L 412.100874 396.105793 
L 413.339132 397.380699 
L 414.577389 398.370588 
L 415.815646 399.085352 
L 417.053903 399.403708 
L 418.292161 398.863112 
L 419.530418 397.118387 
L 422.006932 391.625779 
L 423.24519 389.461872 
L 424.483447 388.262407 
L 425.721704 387.80508 
L 426.959961 387.950437 
L 428.198219 388.742012 
L 429.436476 390.037726 
L 431.912991 393.384712 
L 433.151248 395.144515 
L 434.389505 396.648521 
L 435.627762 397.516631 
L 436.86602 397.408748 
L 438.104277 396.356515 
L 441.819049 391.597164 
L 443.057306 390.259049 
L 444.295563 389.205062 
L 445.53382 388.588453 
L 446.772078 388.166018 
L 448.010335 387.487173 
L 450.48685 385.367999 
L 451.725107 384.797181 
L 454.201621 385.010424 
L 455.439879 384.328923 
L 456.678136 382.645841 
L 457.916393 380.597211 
L 459.15465 378.949761 
L 460.392908 377.917069 
L 461.631165 377.283301 
L 462.869422 377.017801 
L 464.107679 377.326651 
L 465.345937 378.170333 
L 466.584194 379.186565 
L 467.822451 379.945102 
L 469.060709 380.054078 
L 470.298966 379.303239 
L 472.77548 376.377201 
L 474.013738 375.289033 
L 475.251995 374.681375 
L 476.490252 374.275169 
L 477.728509 373.741313 
L 478.966767 372.806711 
L 481.443281 369.901896 
L 482.681538 368.84287 
L 483.919796 368.802444 
L 485.158053 369.964995 
L 486.39631 372.062685 
L 488.872825 377.210119 
L 490.111082 379.324846 
L 491.349339 380.712602 
L 492.587597 381.500411 
L 493.825854 381.610501 
L 495.064111 380.543502 
L 496.302368 378.23576 
L 497.540626 375.582576 
L 498.778883 373.794466 
L 500.01714 373.45579 
L 501.255397 374.258488 
L 502.493655 375.381528 
L 503.731912 376.03467 
L 504.970169 375.840864 
L 506.208427 374.914427 
L 507.446684 373.702876 
L 508.684941 372.749186 
L 509.923198 372.415694 
L 511.161456 372.64775 
L 512.399713 373.035328 
L 513.63797 373.220769 
L 514.876227 373.233049 
L 516.114485 373.387663 
L 517.352742 373.998475 
L 518.590999 375.176161 
L 522.305771 379.76243 
L 523.544028 380.465946 
L 524.782286 380.26069 
L 526.020543 379.254962 
L 527.2588 377.941163 
L 528.497057 376.941624 
L 530.973572 375.977395 
L 532.211829 374.891943 
L 533.450086 373.033217 
L 535.926601 368.375723 
L 537.164858 367.034408 
L 538.403116 367.085922 
L 540.87963 368.727159 
L 542.117887 368.886856 
L 543.356145 368.575026 
L 545.832659 367.605797 
L 549.547431 366.694304 
L 550.785688 366.871343 
L 552.023945 367.931072 
L 553.262203 369.482275 
L 554.50046 370.554182 
L 555.738717 370.374597 
L 556.976975 368.511634 
L 558.215232 365.01424 
L 561.930004 352.156079 
L 563.168261 348.707201 
L 564.406518 346.513305 
L 565.644775 346.277749 
L 566.883033 348.308288 
L 568.12129 352.29005 
L 569.359547 357.253552 
L 570.597804 361.661063 
L 571.836062 364.001901 
L 573.074319 363.894377 
L 575.550834 360.952444 
L 576.789091 360.341895 
L 578.027348 360.750511 
L 580.503863 363.17151 
L 581.74212 363.689618 
L 584.218634 363.777641 
L 585.456892 363.849599 
L 586.695149 363.252174 
L 589.171663 360.144208 
L 590.409921 360.007237 
L 591.648178 362.526653 
L 592.886435 367.282385 
L 594.124693 372.617131 
L 595.36295 376.932677 
L 596.601207 379.244622 
L 597.839464 379.19537 
L 599.077722 377.165232 
L 601.554236 370.880629 
L 602.792493 368.396197 
L 604.030751 366.892706 
L 605.269008 366.303804 
L 606.507265 366.554674 
L 607.745523 367.722895 
L 608.98378 369.804204 
L 610.222037 372.298603 
L 611.460294 374.304479 
L 612.698552 375.080891 
L 613.936809 374.458526 
L 615.175066 372.986533 
L 616.413323 371.701643 
L 617.651581 371.305016 
L 618.889838 371.669702 
L 620.128095 372.577759 
L 621.366352 374.368232 
L 625.081124 382.721729 
L 626.319382 384.078875 
L 627.557639 384.435321 
L 628.795896 384.17296 
L 630.034153 384.027717 
L 631.272411 384.468941 
L 632.510668 385.443273 
L 633.748925 386.841885 
L 634.987182 388.758931 
L 637.463697 393.425243 
L 638.701954 394.312555 
L 639.940211 393.072984 
L 641.178469 390.045725 
L 642.416726 386.294309 
L 643.654983 382.975049 
L 644.893241 381.038959 
L 646.131498 380.903101 
L 647.369755 382.139368 
L 648.608012 383.715492 
L 649.84627 384.715878 
L 651.084527 384.803639 
L 652.322784 384.123545 
L 654.799299 382.036796 
L 657.275813 380.297266 
L 662.228842 377.294456 
L 663.4671 377.143459 
L 664.705357 377.195338 
L 665.943614 376.494739 
L 667.181871 374.25787 
L 669.658386 367.464896 
L 670.896643 365.915611 
L 672.1349 366.580024 
L 673.373158 368.318181 
L 674.611415 369.476114 
L 675.849672 369.43464 
L 677.087929 368.970775 
L 678.326187 369.210303 
L 680.802701 371.666578 
L 682.040959 372.136114 
L 683.279216 371.644086 
L 684.517473 370.90049 
L 685.75573 370.938624 
L 686.993988 372.325933 
L 689.470502 376.678319 
L 690.708759 377.515399 
L 691.947017 376.616029 
L 693.185274 373.942646 
L 696.900046 361.940783 
L 698.138303 359.493671 
L 699.37656 359.259748 
L 700.614818 361.301604 
L 701.853075 364.474673 
L 703.091332 367.036404 
L 704.329589 367.791278 
L 705.567847 366.828154 
L 706.806104 365.27061 
L 708.044361 364.510559 
L 709.282618 365.482598 
L 710.520876 368.18859 
L 711.759133 371.715396 
L 712.99739 374.711492 
L 714.235648 376.043767 
L 715.473905 375.337376 
L 716.712162 373.134632 
L 717.950419 370.623235 
L 719.188677 369.104535 
L 720.426934 369.417142 
L 721.665191 371.564238 
L 724.141706 377.576667 
L 725.379963 379.329776 
L 726.61822 380.020862 
L 727.856477 380.029776 
L 729.094735 379.432806 
L 730.332992 378.241344 
L 731.571249 376.555036 
L 732.809507 374.353324 
L 734.047764 371.606501 
L 736.524278 365.669791 
L 737.762536 364.139252 
L 739.000793 364.476297 
L 743.953822 370.381589 
L 745.192079 371.727856 
L 746.430336 372.616088 
L 747.668594 372.829277 
L 750.145108 372.423755 
L 751.383366 372.602089 
L 752.621623 372.347909 
L 753.85988 370.43548 
L 755.098137 366.396439 
L 758.812909 350.471555 
L 760.051166 346.698997 
L 761.289424 344.196493 
L 762.527681 343.233885 
L 763.765938 343.878896 
L 765.004195 345.657294 
L 766.242453 347.75341 
L 767.48071 349.520003 
L 768.718967 350.683046 
L 769.957225 350.95889 
L 771.195482 349.977229 
L 773.671996 346.045214 
L 774.910254 344.689733 
L 777.386768 342.786 
L 778.625025 342.260036 
L 779.863283 342.743032 
L 781.10154 344.68384 
L 782.339797 347.678517 
L 783.578054 350.275839 
L 784.816312 350.82258 
L 786.054569 348.443131 
L 787.292826 343.445382 
L 789.769341 330.710678 
L 791.007598 325.505364 
L 792.245855 322.235705 
L 793.484113 321.62801 
L 794.72237 323.833267 
L 795.960627 327.900018 
L 798.437142 337.05291 
L 799.675399 342.453029 
L 800.913656 349.383455 
L 803.390171 364.880559 
L 804.628428 371.081191 
L 805.866685 375.297959 
L 807.104943 377.035152 
L 808.3432 376.235875 
L 809.581457 374.027375 
L 810.819714 372.328957 
L 812.057972 372.435573 
L 813.296229 374.20931 
L 814.534486 376.57677 
L 815.772743 378.445654 
L 817.011001 379.26721 
L 818.249258 379.361351 
L 819.487515 379.64024 
L 820.725773 380.781303 
L 821.96403 382.820617 
L 823.202287 385.125388 
L 824.440544 386.563625 
L 825.678802 386.239078 
L 826.917059 384.191744 
L 829.393573 378.267322 
L 830.631831 375.788421 
L 831.870088 374.253313 
L 833.108345 374.294701 
L 834.346602 376.285226 
L 836.823117 383.17697 
L 838.061374 385.95005 
L 839.299632 387.995899 
L 841.776146 391.393254 
L 843.014403 392.518181 
L 844.252661 392.626391 
L 846.729175 391.213999 
L 849.20569 390.782228 
L 850.443947 389.537682 
L 851.682204 386.854831 
L 855.396976 375.217804 
L 856.635233 372.987046 
L 857.873491 371.725022 
L 860.350005 370.15827 
L 861.588262 369.584452 
L 862.82652 369.874851 
L 864.064777 371.304697 
L 865.303034 373.31685 
L 866.541291 374.990116 
L 867.779549 375.634314 
L 869.017806 375.0481 
L 870.256063 373.410649 
L 871.49432 371.250714 
L 872.732578 369.516565 
L 873.970835 369.014058 
L 875.209092 369.723405 
L 876.44735 370.944974 
L 877.685607 371.750832 
L 878.923864 371.234655 
L 880.162121 368.756929 
L 881.400379 364.140623 
L 882.638636 357.625425 
L 885.11515 342.55612 
L 886.353408 337.786308 
L 887.591665 337.206918 
L 888.829922 340.879527 
L 890.06818 347.610533 
L 892.544694 363.82085 
L 893.782951 370.629373 
L 895.021209 375.792298 
L 896.259466 379.465417 
L 897.497723 381.892606 
L 898.73598 383.182175 
L 899.974238 383.343366 
L 901.212495 382.587265 
L 902.450752 381.622235 
L 903.689009 381.412178 
L 904.927267 382.678305 
L 906.165524 385.444134 
L 907.403781 388.671938 
L 908.642039 390.712213 
L 909.880296 390.557041 
L 911.118553 388.460639 
L 914.833325 379.266482 
L 916.071582 377.028836 
L 917.309839 375.711596 
L 918.548097 375.552524 
L 919.786354 376.442191 
L 921.024611 377.701499 
L 922.262868 378.115503 
L 923.501126 376.570598 
L 924.739383 372.968343 
L 925.97764 368.376829 
L 927.215898 364.247258 
L 928.454155 361.422922 
L 929.692412 359.794461 
L 930.930669 358.966442 
L 932.168927 358.862243 
L 933.407184 359.394098 
L 934.645441 360.122643 
L 935.883698 360.500664 
L 937.121956 360.122494 
L 938.360213 358.673312 
L 939.59847 356.038232 
L 940.836727 352.948216 
L 942.074985 351.129963 
L 943.313242 351.975909 
L 944.551499 355.227914 
L 947.028014 363.346181 
L 948.266271 366.222878 
L 949.504528 367.831471 
L 950.742786 368.374058 
L 951.981043 368.519198 
L 953.2193 368.917082 
L 954.457557 369.562428 
L 955.695815 369.923097 
L 956.934072 369.485564 
L 958.172329 367.909583 
L 959.410586 365.192732 
L 961.887101 358.602869 
L 963.125358 356.085802 
L 964.363616 354.509783 
L 965.601873 353.551224 
L 966.84013 352.789613 
L 968.078387 352.182446 
L 969.316645 351.891045 
L 970.554902 351.921671 
L 971.793159 352.224575 
L 973.031416 352.910036 
L 975.507931 354.833542 
L 976.746188 355.713528 
L 977.984446 357.109716 
L 979.222703 359.349072 
L 981.699217 364.909529 
L 982.937475 367.080341 
L 984.175732 368.335037 
L 985.413989 368.762197 
L 986.652246 368.85345 
L 987.890504 369.122384 
L 989.128761 369.697355 
L 990.367018 370.623497 
L 991.605275 372.438225 
L 992.843533 375.755415 
L 994.08179 380.43738 
L 995.320047 385.680935 
L 996.558305 390.422785 
L 997.796562 393.436929 
L 999.034819 393.939213 
L 1000.273076 392.472153 
L 1001.511334 390.500349 
L 1002.749591 389.008195 
L 1005.226105 386.984373 
L 1006.464363 385.747362 
L 1007.70262 384.282872 
L 1011.417392 379.299916 
L 1012.655649 378.179702 
L 1013.893906 377.596081 
L 1015.132164 377.512762 
L 1016.370421 377.841418 
L 1017.608678 378.313234 
L 1018.846935 378.444289 
L 1020.085193 377.878954 
L 1021.32345 376.667402 
L 1022.561707 375.061515 
L 1023.799964 373.186127 
L 1025.038222 370.93444 
L 1027.514736 365.563267 
L 1028.752993 363.300296 
L 1029.991251 361.781714 
L 1031.229508 361.068383 
L 1032.467765 361.004083 
L 1033.706023 361.207263 
L 1034.94428 361.2379 
L 1036.182537 360.808193 
L 1037.420794 359.896276 
L 1039.897309 357.445187 
L 1041.135566 355.581434 
L 1042.373823 352.611862 
L 1044.850338 344.818847 
L 1046.088595 342.109285 
L 1047.326852 340.759652 
L 1049.803367 339.393933 
L 1051.041624 339.06073 
L 1053.518139 339.405302 
L 1054.756396 339.160939 
L 1055.994653 338.568227 
L 1057.232911 338.391646 
L 1058.471168 339.309864 
L 1060.947682 342.956148 
L 1062.18594 343.754505 
L 1063.424197 343.194966 
L 1064.662454 341.580216 
L 1067.138969 337.210819 
L 1068.377226 334.440553 
L 1069.615483 330.883821 
L 1070.853741 326.898643 
L 1072.091998 323.503872 
L 1073.330255 321.723758 
L 1074.568512 321.931771 
L 1075.80677 323.602962 
L 1077.045027 325.869647 
L 1078.283284 328.521405 
L 1079.521541 332.007194 
L 1081.998056 341.222261 
L 1083.236313 345.792791 
L 1084.474571 349.902146 
L 1085.712828 353.379208 
L 1086.951085 355.859529 
L 1088.189342 356.924118 
L 1089.4276 356.479006 
L 1090.665857 354.742146 
L 1091.904114 351.764878 
L 1093.142371 347.341106 
L 1094.380629 341.384142 
L 1095.618886 333.902788 
L 1096.857143 324.788959 
L 1098.0954 313.900997 
L 1099.333658 300.74086 
L 1100.571915 284.341422 
L 1101.810172 264.435553 
L 1105.524944 197.923711 
L 1108.001459 159.85286 
L 1109.239716 143.389585 
L 1110.477973 128.556165 
L 1111.71623 115.252905 
L 1112.954488 103.437919 
L 1114.192745 93.508844 
L 1115.431002 85.838822 
L 1116.669259 79.794962 
L 1119.145774 69.334454 
L 1120.384031 64.936576 
L 1121.622289 61.313179 
L 1122.860546 58.337014 
L 1124.098803 55.927474 
L 1125.33706 54.33369 
L 1126.575318 53.711257 
L 1127.813575 54.074829 
L 1129.051832 55.601144 
L 1130.290089 57.817954 
L 1131.528347 59.005921 
L 1132.766604 57.866675 
L 1134.004861 55.660264 
L 1135.243118 55.245982 
L 1136.481376 58.044184 
L 1137.719633 63.292011 
L 1138.95789 69.719352 
L 1141.434405 84.34554 
L 1142.672662 91.924548 
L 1143.910919 97.722643 
L 1145.149177 99.769341 
L 1146.387434 97.752699 
L 1147.625691 93.558092 
L 1148.863948 89.888089 
L 1150.102206 88.611997 
L 1151.340463 89.872236 
L 1152.57872 92.294903 
L 1153.816977 94.370367 
L 1156.293492 96.876629 
L 1157.531749 99.331687 
L 1158.770007 103.79584 
L 1160.008264 110.407132 
L 1162.484778 127.02609 
L 1163.723036 133.292244 
L 1164.961293 136.168761 
L 1166.19955 135.393195 
L 1167.437807 130.586308 
L 1168.676065 121.098121 
L 1169.914322 107.481165 
L 1171.152579 92.499432 
L 1172.390837 80.174115 
L 1173.629094 73.549625 
L 1174.867351 73.064839 
L 1176.105608 76.894957 
L 1178.582123 88.201131 
L 1179.82038 92.849199 
L 1181.058637 95.5863 
L 1182.296895 95.798788 
L 1183.535152 93.910578 
L 1184.773409 90.477858 
L 1186.011666 85.337489 
L 1187.249924 79.060384 
L 1188.488181 73.868366 
L 1189.726438 71.603317 
L 1190.964696 71.913051 
L 1192.202953 73.471768 
L 1193.44121 75.56199 
L 1194.679467 77.929437 
L 1195.917725 80.773791 
L 1197.155982 84.999468 
L 1198.394239 91.2867 
L 1200.870754 106.72437 
L 1202.109011 113.153634 
L 1203.347268 117.784036 
L 1204.585525 120.532576 
L 1205.823783 121.867918 
L 1207.06204 122.847873 
L 1209.538555 125.864826 
L 1210.776812 126.504404 
L 1212.015069 125.813941 
L 1213.253326 124.310701 
L 1214.491584 122.364688 
L 1215.729841 119.594289 
L 1216.968098 115.428436 
L 1218.206355 109.636265 
L 1220.68287 95.297756 
L 1221.921127 89.114829 
L 1223.159384 84.302746 
L 1226.874156 72.267136 
L 1228.112414 67.244274 
L 1229.350671 63.434426 
L 1230.588928 62.420561 
L 1231.827185 63.361072 
L 1233.065443 64.067188 
L 1234.3037 63.614652 
L 1235.541957 62.98736 
L 1236.780214 63.615295 
L 1238.018472 66.045529 
L 1240.494986 73.206949 
L 1241.733243 75.454501 
L 1242.971501 76.733965 
L 1244.209758 78.31869 
L 1245.448015 80.513684 
L 1246.686273 81.823068 
L 1247.92453 80.825768 
L 1249.162787 77.910488 
L 1250.401044 74.186515 
L 1252.877559 65.401357 
L 1254.115816 60.967589 
L 1255.354073 56.955132 
L 1256.592331 53.503585 
L 1257.830588 51.238802 
L 1259.068845 50.907878 
L 1260.307103 52.747236 
L 1261.54536 56.256017 
L 1262.783617 60.425494 
L 1264.021874 64.148499 
L 1265.260132 66.136636 
L 1266.498389 65.191264 
L 1267.736646 61.395785 
L 1270.213161 51.472297 
L 1271.451418 48.37874 
L 1272.689675 47.979282 
L 1273.927932 50.319503 
L 1277.642704 61.828046 
L 1280.119219 67.718372 
L 1281.357476 69.830633 
L 1282.595733 70.443487 
L 1286.310505 68.810104 
L 1287.548762 67.938055 
L 1288.78702 67.409383 
L 1290.025277 68.650428 
L 1291.263534 72.113545 
L 1292.501791 77.054417 
L 1296.216563 94.297364 
L 1298.693078 103.983341 
L 1299.931335 109.677846 
L 1301.169592 117.357416 
L 1302.40785 127.771712 
L 1304.884364 154.193195 
L 1306.122621 164.460949 
L 1307.360879 168.777374 
L 1308.599136 167.863787 
L 1309.837393 164.571927 
L 1311.07565 160.511607 
L 1312.313908 155.934808 
L 1313.552165 151.996304 
L 1314.790422 151.156219 
L 1316.02868 155.464816 
L 1317.266937 164.977291 
L 1320.981709 202.878672 
L 1322.219966 209.699626 
L 1323.458223 210.710323 
L 1325.934738 205.727901 
L 1327.172995 205.440942 
L 1329.649509 207.467356 
L 1330.887767 208.732214 
L 1332.126024 210.788097 
L 1334.602539 215.459257 
L 1335.840796 217.913211 
L 1337.079053 218.19025 
L 1338.31731 213.316926 
L 1339.555568 203.125854 
L 1342.032082 177.874197 
L 1343.270339 166.736174 
L 1344.508597 157.453374 
L 1345.746854 150.358836 
L 1346.985111 145.336857 
L 1348.223368 141.784233 
L 1349.461626 138.614135 
L 1350.699883 134.394707 
L 1351.93814 128.176325 
L 1353.176398 120.011672 
L 1354.414655 110.877051 
L 1355.652912 102.964835 
L 1356.891169 98.929453 
L 1358.129427 99.835837 
L 1359.367684 104.920241 
L 1360.605941 112.876503 
L 1361.844198 121.706002 
L 1363.082456 127.97179 
L 1364.320713 128.856358 
L 1366.797228 122.272246 
L 1368.035485 123.423251 
L 1369.273742 130.205979 
L 1370.511999 140.405261 
L 1371.750257 149.634042 
L 1372.988514 154.145095 
L 1374.226771 152.646738 
L 1375.465028 146.393671 
L 1376.703286 138.493586 
L 1377.941543 132.274952 
L 1379.1798 129.798623 
L 1380.418057 131.918819 
L 1381.656315 138.686102 
L 1382.894572 149.325233 
L 1386.609344 189.206889 
L 1387.847601 198.850234 
L 1389.085858 205.196735 
L 1394.038887 222.851948 
L 1396.515402 229.84309 
L 1397.753659 233.836283 
L 1398.991916 236.97449 
L 1400.230174 237.348467 
L 1401.468431 234.377828 
L 1405.183203 219.19971 
L 1406.42146 216.211502 
L 1407.659717 214.455573 
L 1411.374489 210.700949 
L 1412.612746 211.02542 
L 1413.851004 212.982285 
L 1416.327518 218.393551 
L 1417.565775 220.199277 
L 1418.804033 220.52721 
L 1420.04229 218.72959 
L 1422.518805 211.39332 
L 1423.757062 209.593898 
L 1424.995319 211.216538 
L 1426.233576 216.763916 
L 1428.710091 233.86192 
L 1429.948348 240.920228 
L 1431.186605 245.227623 
L 1432.424863 246.519816 
L 1433.66312 245.928406 
L 1434.901377 245.478128 
L 1436.139634 246.211505 
L 1437.377892 247.814722 
L 1439.854406 251.583275 
L 1441.092664 254.318392 
L 1442.330921 259.146883 
L 1444.807435 272.809283 
L 1446.045693 276.347962 
L 1447.28395 275.29717 
L 1448.522207 270.795033 
L 1449.760464 265.423671 
L 1450.998722 261.471067 
L 1452.236979 259.751657 
L 1453.475236 259.468661 
L 1454.713494 258.75969 
L 1455.951751 255.570044 
L 1457.190008 248.618187 
L 1458.428265 237.847971 
L 1459.666523 224.174107 
L 1462.143037 195.65985 
L 1463.381294 186.266638 
L 1464.619552 182.699606 
L 1465.857809 184.190951 
L 1467.096066 188.574729 
L 1469.572581 198.724723 
L 1470.810838 202.432216 
L 1472.049095 205.136194 
L 1473.287353 207.025458 
L 1474.52561 207.334529 
L 1475.763867 205.388351 
L 1478.240382 198.200898 
L 1479.478639 194.349606 
L 1483.193411 181.735024 
L 1484.431668 178.785331 
L 1485.669925 176.819613 
L 1486.908182 176.088774 
L 1488.14644 177.040967 
L 1489.384697 179.719763 
L 1491.861212 186.790345 
L 1493.099469 189.083206 
L 1494.337726 190.125636 
L 1495.575983 190.552185 
L 1496.814241 192.087009 
L 1498.052498 196.721657 
L 1499.290755 204.694349 
L 1500.529012 213.96089 
L 1501.76727 221.593308 
L 1503.005527 225.831594 
L 1504.243784 227.340401 
L 1505.482041 228.20362 
L 1506.720299 230.024825 
L 1507.958556 233.346819 
L 1509.196813 238.021526 
L 1510.435071 243.707504 
L 1511.673328 250.289663 
L 1512.911585 257.826991 
L 1516.626357 283.584959 
L 1517.864614 289.847459 
L 1519.102871 292.107036 
L 1520.341129 289.781263 
L 1521.579386 284.599097 
L 1522.817643 280.086682 
L 1524.0559 279.295779 
L 1525.294158 282.927676 
L 1526.532415 289.670453 
L 1527.770672 297.274208 
L 1529.00893 303.341227 
L 1530.247187 306.452425 
L 1531.485444 306.760255 
L 1532.723701 305.531954 
L 1533.961959 304.597763 
L 1535.200216 305.516449 
L 1536.438473 308.534933 
L 1537.67673 312.641662 
L 1538.914988 316.340495 
L 1540.153245 318.08309 
L 1541.391502 317.003737 
L 1543.868017 310.75083 
L 1545.106274 309.088034 
L 1546.344531 309.218515 
L 1548.821046 311.828936 
L 1550.059303 311.702397 
L 1551.29756 309.804081 
L 1552.535818 307.447162 
L 1553.774075 306.288343 
L 1555.012332 307.008171 
L 1556.250589 309.469639 
L 1557.488847 313.411226 
L 1561.203619 328.592661 
L 1562.441876 332.278087 
L 1563.680133 334.79953 
L 1564.91839 336.352911 
L 1566.156648 337.148498 
L 1567.394905 336.97604 
L 1568.633162 335.315551 
L 1569.871419 331.818025 
L 1573.586191 317.231938 
L 1574.824448 314.789889 
L 1576.062706 313.796535 
L 1577.300963 313.698009 
L 1578.53922 314.463188 
L 1579.777478 316.433573 
L 1581.015735 319.924817 
L 1582.253992 324.900432 
L 1585.968764 342.460175 
L 1587.207021 347.441254 
L 1588.445278 351.386099 
L 1589.683536 353.622059 
L 1590.921793 353.449964 
L 1592.16005 351.115152 
L 1593.398307 347.945258 
L 1594.636565 345.291072 
L 1595.874822 343.711355 
L 1597.113079 343.053032 
L 1598.351337 342.900757 
L 1599.589594 343.093369 
L 1600.827851 343.883805 
L 1602.066108 345.377262 
L 1604.542623 349.432531 
L 1605.78088 351.531645 
L 1607.019137 353.304077 
L 1608.257395 354.528002 
L 1609.495652 354.786856 
L 1610.733909 353.523954 
L 1611.972166 350.532656 
L 1614.448681 341.308493 
L 1615.686938 337.717243 
L 1616.925196 561.202423 
L 1618.163453 337.954404 
L 1619.40171 340.780031 
L 1620.639967 343.885955 
L 1621.878225 346.416966 
L 1623.116482 348.150408 
L 1624.354739 349.336598 
L 1625.592996 350.010189 
L 1626.831254 349.849517 
L 1628.069511 348.703933 
L 1629.307768 346.811191 
L 1630.546026 344.673948 
L 1631.784283 342.881307 
L 1633.02254 341.961957 
L 1634.260797 342.44234 
L 1635.499055 344.644488 
L 1639.213826 354.868461 
L 1640.452084 356.554712 
L 1641.690341 357.232646 
L 1641.690341 357.232646 
" style="fill:none;stroke:#008000;stroke-linecap:square;stroke-width:1.5;"/>
   </g>
   <g id="patch_3">
    <path d="M 43.78125 586.86358 
L 43.78125 22.318125 
" style="fill:none;stroke:#000000;stroke-linecap:square;stroke-linejoin:miter;stroke-width:0.8;"/>
   </g>
   <g id="patch_4">
    <path d="M 1717.78125 586.86358 
L 1717.78125 22.318125 
" style="fill:none;stroke:#000000;stroke-linecap:square;stroke-linejoin:miter;stroke-width:0.8;"/>
   </g>
   <g id="patch_5">
    <path d="M 43.78125 586.86358 
L 1717.78125 586.86358 
" style="fill:none;stroke:#000000;stroke-linecap:square;stroke-linejoin:miter;stroke-width:0.8;"/>
   </g>
   <g id="patch_6">
    <path d="M 43.78125 22.318125 
L 1717.78125 22.318125 
" style="fill:none;stroke:#000000;stroke-linecap:square;stroke-linejoin:miter;stroke-width:0.8;"/>
   </g>
   <g id="text_16">
    <!-- before binarisation -->
    <g transform="translate(824.1825 16.318125)scale(0.12 -0.12)">
     <defs>
      <path d="M 3116 1747 
Q 3116 2381 2855 2742 
Q 2594 3103 2138 3103 
Q 1681 3103 1420 2742 
Q 1159 2381 1159 1747 
Q 1159 1113 1420 752 
Q 1681 391 2138 391 
Q 2594 391 2855 752 
Q 3116 1113 3116 1747 
z
M 1159 2969 
Q 1341 3281 1617 3432 
Q 1894 3584 2278 3584 
Q 2916 3584 3314 3078 
Q 3713 2572 3713 1747 
Q 3713 922 3314 415 
Q 2916 -91 2278 -91 
Q 1894 -91 1617 61 
Q 1341 213 1159 525 
L 1159 0 
L 581 0 
L 581 4863 
L 1159 4863 
L 1159 2969 
z
" id="DejaVuSans-62" transform="scale(0.015625)"/>
      <path d="M 1959 3097 
Q 1497 3097 1228 2736 
Q 959 2375 959 1747 
Q 959 1119 1226 758 
Q 1494 397 1959 397 
Q 2419 397 2687 759 
Q 2956 1122 2956 1747 
Q 2956 2369 2687 2733 
Q 2419 3097 1959 3097 
z
M 1959 3584 
Q 2709 3584 3137 3096 
Q 3566 2609 3566 1747 
Q 3566 888 3137 398 
Q 2709 -91 1959 -91 
Q 1206 -91 779 398 
Q 353 888 353 1747 
Q 353 2609 779 3096 
Q 1206 3584 1959 3584 
z
" id="DejaVuSans-6f" transform="scale(0.015625)"/>
      <path id="DejaVuSans-20" transform="scale(0.015625)"/>
      <path d="M 603 3500 
L 1178 3500 
L 1178 0 
L 603 0 
L 603 3500 
z
M 603 4863 
L 1178 4863 
L 1178 4134 
L 603 4134 
L 603 4863 
z
" id="DejaVuSans-69" transform="scale(0.015625)"/>
      <path d="M 3513 2113 
L 3513 0 
L 2938 0 
L 2938 2094 
Q 2938 2591 2744 2837 
Q 2550 3084 2163 3084 
Q 1697 3084 1428 2787 
Q 1159 2491 1159 1978 
L 1159 0 
L 581 0 
L 581 3500 
L 1159 3500 
L 1159 2956 
Q 1366 3272 1645 3428 
Q 1925 3584 2291 3584 
Q 2894 3584 3203 3211 
Q 3513 2838 3513 2113 
z
" id="DejaVuSans-6e" transform="scale(0.015625)"/>
      <path d="M 2834 3397 
L 2834 2853 
Q 2591 2978 2328 3040 
Q 2066 3103 1784 3103 
Q 1356 3103 1142 2972 
Q 928 2841 928 2578 
Q 928 2378 1081 2264 
Q 1234 2150 1697 2047 
L 1894 2003 
Q 2506 1872 2764 1633 
Q 3022 1394 3022 966 
Q 3022 478 2636 193 
Q 2250 -91 1575 -91 
Q 1294 -91 989 -36 
Q 684 19 347 128 
L 347 722 
Q 666 556 975 473 
Q 1284 391 1588 391 
Q 1994 391 2212 530 
Q 2431 669 2431 922 
Q 2431 1156 2273 1281 
Q 2116 1406 1581 1522 
L 1381 1569 
Q 847 1681 609 1914 
Q 372 2147 372 2553 
Q 372 3047 722 3315 
Q 1072 3584 1716 3584 
Q 2034 3584 2315 3537 
Q 2597 3491 2834 3397 
z
" id="DejaVuSans-73" transform="scale(0.015625)"/>
      <path d="M 1172 4494 
L 1172 3500 
L 2356 3500 
L 2356 3053 
L 1172 3053 
L 1172 1153 
Q 1172 725 1289 603 
Q 1406 481 1766 481 
L 2356 481 
L 2356 0 
L 1766 0 
Q 1100 0 847 248 
Q 594 497 594 1153 
L 594 3053 
L 172 3053 
L 172 3500 
L 594 3500 
L 594 4494 
L 1172 4494 
z
" id="DejaVuSans-74" transform="scale(0.015625)"/>
     </defs>
     <use xlink:href="#DejaVuSans-62"/>
     <use x="63.476562" xlink:href="#DejaVuSans-65"/>
     <use x="125" xlink:href="#DejaVuSans-66"/>
     <use x="160.205078" xlink:href="#DejaVuSans-6f"/>
     <use x="221.386719" xlink:href="#DejaVuSans-72"/>
     <use x="260.25" xlink:href="#DejaVuSans-65"/>
     <use x="321.773438" xlink:href="#DejaVuSans-20"/>
     <use x="353.560547" xlink:href="#DejaVuSans-62"/>
     <use x="417.037109" xlink:href="#DejaVuSans-69"/>
     <use x="444.820312" xlink:href="#DejaVuSans-6e"/>
     <use x="508.199219" xlink:href="#DejaVuSans-61"/>
     <use x="569.478516" xlink:href="#DejaVuSans-72"/>
     <use x="610.591797" xlink:href="#DejaVuSans-69"/>
     <use x="638.375" xlink:href="#DejaVuSans-73"/>
     <use x="690.474609" xlink:href="#DejaVuSans-61"/>
     <use x="751.753906" xlink:href="#DejaVuSans-74"/>
     <use x="790.962891" xlink:href="#DejaVuSans-69"/>
     <use x="818.746094" xlink:href="#DejaVuSans-6f"/>
     <use x="879.927734" xlink:href="#DejaVuSans-6e"/>
    </g>
   </g>
  </g>
  <g id="axes_2">
   <g id="patch_7">
    <path d="M 43.78125 1264.318125 
L 1717.78125 1264.318125 
L 1717.78125 699.77267 
L 43.78125 699.77267 
z
" style="fill:#ffffff;"/>
   </g>
   <g id="matplotlib.axis_3">
    <g id="xtick_8">
     <g id="line2d_15">
      <g>
       <use style="stroke:#000000;stroke-width:0.8;" x="119.872159" xlink:href="#ma9c9cb3dca" y="1264.318125"/>
      </g>
     </g>
     <g id="text_17">
      <!-- 0 -->
      <g transform="translate(116.690909 1278.916563)scale(0.1 -0.1)">
       <use xlink:href="#DejaVuSans-30"/>
      </g>
     </g>
    </g>
    <g id="xtick_9">
     <g id="line2d_16">
      <g>
       <use style="stroke:#000000;stroke-width:0.8;" x="367.523613" xlink:href="#ma9c9cb3dca" y="1264.318125"/>
      </g>
     </g>
     <g id="text_18">
      <!-- 200 -->
      <g transform="translate(357.979863 1278.916563)scale(0.1 -0.1)">
       <use xlink:href="#DejaVuSans-32"/>
       <use x="63.623047" xlink:href="#DejaVuSans-30"/>
       <use x="127.246094" xlink:href="#DejaVuSans-30"/>
      </g>
     </g>
    </g>
    <g id="xtick_10">
     <g id="line2d_17">
      <g>
       <use style="stroke:#000000;stroke-width:0.8;" x="615.175066" xlink:href="#ma9c9cb3dca" y="1264.318125"/>
      </g>
     </g>
     <g id="text_19">
      <!-- 400 -->
      <g transform="translate(605.631316 1278.916563)scale(0.1 -0.1)">
       <use xlink:href="#DejaVuSans-34"/>
       <use x="63.623047" xlink:href="#DejaVuSans-30"/>
       <use x="127.246094" xlink:href="#DejaVuSans-30"/>
      </g>
     </g>
    </g>
    <g id="xtick_11">
     <g id="line2d_18">
      <g>
       <use style="stroke:#000000;stroke-width:0.8;" x="862.82652" xlink:href="#ma9c9cb3dca" y="1264.318125"/>
      </g>
     </g>
     <g id="text_20">
      <!-- 600 -->
      <g transform="translate(853.28277 1278.916563)scale(0.1 -0.1)">
       <use xlink:href="#DejaVuSans-36"/>
       <use x="63.623047" xlink:href="#DejaVuSans-30"/>
       <use x="127.246094" xlink:href="#DejaVuSans-30"/>
      </g>
     </g>
    </g>
    <g id="xtick_12">
     <g id="line2d_19">
      <g>
       <use style="stroke:#000000;stroke-width:0.8;" x="1110.477973" xlink:href="#ma9c9cb3dca" y="1264.318125"/>
      </g>
     </g>
     <g id="text_21">
      <!-- 800 -->
      <g transform="translate(1100.934223 1278.916563)scale(0.1 -0.1)">
       <use xlink:href="#DejaVuSans-38"/>
       <use x="63.623047" xlink:href="#DejaVuSans-30"/>
       <use x="127.246094" xlink:href="#DejaVuSans-30"/>
      </g>
     </g>
    </g>
    <g id="xtick_13">
     <g id="line2d_20">
      <g>
       <use style="stroke:#000000;stroke-width:0.8;" x="1358.129427" xlink:href="#ma9c9cb3dca" y="1264.318125"/>
      </g>
     </g>
     <g id="text_22">
      <!-- 1000 -->
      <g transform="translate(1345.404427 1278.916563)scale(0.1 -0.1)">
       <use xlink:href="#DejaVuSans-31"/>
       <use x="63.623047" xlink:href="#DejaVuSans-30"/>
       <use x="127.246094" xlink:href="#DejaVuSans-30"/>
       <use x="190.869141" xlink:href="#DejaVuSans-30"/>
      </g>
     </g>
    </g>
    <g id="xtick_14">
     <g id="line2d_21">
      <g>
       <use style="stroke:#000000;stroke-width:0.8;" x="1605.78088" xlink:href="#ma9c9cb3dca" y="1264.318125"/>
      </g>
     </g>
     <g id="text_23">
      <!-- 1200 -->
      <g transform="translate(1593.05588 1278.916563)scale(0.1 -0.1)">
       <use xlink:href="#DejaVuSans-31"/>
       <use x="63.623047" xlink:href="#DejaVuSans-32"/>
       <use x="127.246094" xlink:href="#DejaVuSans-30"/>
       <use x="190.869141" xlink:href="#DejaVuSans-30"/>
      </g>
     </g>
    </g>
    <g id="text_24">
     <!-- frame -->
     <g transform="translate(865.954687 1292.594688)scale(0.1 -0.1)">
      <use xlink:href="#DejaVuSans-66"/>
      <use x="35.205078" xlink:href="#DejaVuSans-72"/>
      <use x="76.318359" xlink:href="#DejaVuSans-61"/>
      <use x="137.597656" xlink:href="#DejaVuSans-6d"/>
      <use x="235.009766" xlink:href="#DejaVuSans-65"/>
     </g>
    </g>
   </g>
   <g id="matplotlib.axis_4">
    <g id="ytick_7">
     <g id="line2d_22">
      <g>
       <use style="stroke:#000000;stroke-width:0.8;" x="43.78125" xlink:href="#mab95f1cc58" y="1238.656968"/>
      </g>
     </g>
     <g id="text_25">
      <!-- 0.0 -->
      <g transform="translate(20.878125 1242.456187)scale(0.1 -0.1)">
       <use xlink:href="#DejaVuSans-30"/>
       <use x="63.623047" xlink:href="#DejaVuSans-2e"/>
       <use x="95.410156" xlink:href="#DejaVuSans-30"/>
      </g>
     </g>
    </g>
    <g id="ytick_8">
     <g id="line2d_23">
      <g>
       <use style="stroke:#000000;stroke-width:0.8;" x="43.78125" xlink:href="#mab95f1cc58" y="1136.01234"/>
      </g>
     </g>
     <g id="text_26">
      <!-- 0.2 -->
      <g transform="translate(20.878125 1139.811559)scale(0.1 -0.1)">
       <use xlink:href="#DejaVuSans-30"/>
       <use x="63.623047" xlink:href="#DejaVuSans-2e"/>
       <use x="95.410156" xlink:href="#DejaVuSans-32"/>
      </g>
     </g>
    </g>
    <g id="ytick_9">
     <g id="line2d_24">
      <g>
       <use style="stroke:#000000;stroke-width:0.8;" x="43.78125" xlink:href="#mab95f1cc58" y="1033.367712"/>
      </g>
     </g>
     <g id="text_27">
      <!-- 0.4 -->
      <g transform="translate(20.878125 1037.166931)scale(0.1 -0.1)">
       <use xlink:href="#DejaVuSans-30"/>
       <use x="63.623047" xlink:href="#DejaVuSans-2e"/>
       <use x="95.410156" xlink:href="#DejaVuSans-34"/>
      </g>
     </g>
    </g>
    <g id="ytick_10">
     <g id="line2d_25">
      <g>
       <use style="stroke:#000000;stroke-width:0.8;" x="43.78125" xlink:href="#mab95f1cc58" y="930.723084"/>
      </g>
     </g>
     <g id="text_28">
      <!-- 0.6 -->
      <g transform="translate(20.878125 934.522302)scale(0.1 -0.1)">
       <use xlink:href="#DejaVuSans-30"/>
       <use x="63.623047" xlink:href="#DejaVuSans-2e"/>
       <use x="95.410156" xlink:href="#DejaVuSans-36"/>
      </g>
     </g>
    </g>
    <g id="ytick_11">
     <g id="line2d_26">
      <g>
       <use style="stroke:#000000;stroke-width:0.8;" x="43.78125" xlink:href="#mab95f1cc58" y="828.078456"/>
      </g>
     </g>
     <g id="text_29">
      <!-- 0.8 -->
      <g transform="translate(20.878125 831.877674)scale(0.1 -0.1)">
       <use xlink:href="#DejaVuSans-30"/>
       <use x="63.623047" xlink:href="#DejaVuSans-2e"/>
       <use x="95.410156" xlink:href="#DejaVuSans-38"/>
      </g>
     </g>
    </g>
    <g id="ytick_12">
     <g id="line2d_27">
      <g>
       <use style="stroke:#000000;stroke-width:0.8;" x="43.78125" xlink:href="#mab95f1cc58" y="725.433827"/>
      </g>
     </g>
     <g id="text_30">
      <!-- 1.0 -->
      <g transform="translate(20.878125 729.233046)scale(0.1 -0.1)">
       <use xlink:href="#DejaVuSans-31"/>
       <use x="63.623047" xlink:href="#DejaVuSans-2e"/>
       <use x="95.410156" xlink:href="#DejaVuSans-30"/>
      </g>
     </g>
    </g>
    <g id="text_31">
     <!-- GCaMP -->
     <g transform="translate(14.798437 999.803991)rotate(-90)scale(0.1 -0.1)">
      <use xlink:href="#DejaVuSans-47"/>
      <use x="77.490234" xlink:href="#DejaVuSans-43"/>
      <use x="147.314453" xlink:href="#DejaVuSans-61"/>
      <use x="208.59375" xlink:href="#DejaVuSans-4d"/>
      <use x="294.873047" xlink:href="#DejaVuSans-50"/>
     </g>
    </g>
   </g>
   <g id="line2d_28">
    <path clip-path="url(#p37af139f52)" d="M 119.872159 1238.656968 
L 1104.286687 1238.656968 
L 1105.524944 725.433827 
L 1319.743451 725.433827 
L 1320.981709 1238.656968 
L 1339.555568 1238.656968 
L 1340.793825 725.433827 
L 1387.847601 725.433827 
L 1389.085858 1238.656968 
L 1460.90478 1238.656968 
L 1462.143037 725.433827 
L 1469.572581 725.433827 
L 1470.810838 1238.656968 
L 1477.002124 1238.656968 
L 1478.240382 725.433827 
L 1498.052498 725.433827 
L 1499.290755 1238.656968 
L 1641.690341 1238.656968 
L 1641.690341 1238.656968 
" style="fill:none;stroke:#008000;stroke-linecap:square;stroke-width:1.5;"/>
   </g>
   <g id="patch_8">
    <path d="M 43.78125 1264.318125 
L 43.78125 699.77267 
" style="fill:none;stroke:#000000;stroke-linecap:square;stroke-linejoin:miter;stroke-width:0.8;"/>
   </g>
   <g id="patch_9">
    <path d="M 1717.78125 1264.318125 
L 1717.78125 699.77267 
" style="fill:none;stroke:#000000;stroke-linecap:square;stroke-linejoin:miter;stroke-width:0.8;"/>
   </g>
   <g id="patch_10">
    <path d="M 43.78125 1264.318125 
L 1717.78125 1264.318125 
" style="fill:none;stroke:#000000;stroke-linecap:square;stroke-linejoin:miter;stroke-width:0.8;"/>
   </g>
   <g id="patch_11">
    <path d="M 43.78125 699.77267 
L 1717.78125 699.77267 
" style="fill:none;stroke:#000000;stroke-linecap:square;stroke-linejoin:miter;stroke-width:0.8;"/>
   </g>
   <g id="text_32">
    <!-- before binarisation -->
    <g transform="translate(824.1825 693.77267)scale(0.12 -0.12)">
     <use xlink:href="#DejaVuSans-62"/>
     <use x="63.476562" xlink:href="#DejaVuSans-65"/>
     <use x="125" xlink:href="#DejaVuSans-66"/>
     <use x="160.205078" xlink:href="#DejaVuSans-6f"/>
     <use x="221.386719" xlink:href="#DejaVuSans-72"/>
     <use x="260.25" xlink:href="#DejaVuSans-65"/>
     <use x="321.773438" xlink:href="#DejaVuSans-20"/>
     <use x="353.560547" xlink:href="#DejaVuSans-62"/>
     <use x="417.037109" xlink:href="#DejaVuSans-69"/>
     <use x="444.820312" xlink:href="#DejaVuSans-6e"/>
     <use x="508.199219" xlink:href="#DejaVuSans-61"/>
     <use x="569.478516" xlink:href="#DejaVuSans-72"/>
     <use x="610.591797" xlink:href="#DejaVuSans-69"/>
     <use x="638.375" xlink:href="#DejaVuSans-73"/>
     <use x="690.474609" xlink:href="#DejaVuSans-61"/>
     <use x="751.753906" xlink:href="#DejaVuSans-74"/>
     <use x="790.962891" xlink:href="#DejaVuSans-69"/>
     <use x="818.746094" xlink:href="#DejaVuSans-6f"/>
     <use x="879.927734" xlink:href="#DejaVuSans-6e"/>
    </g>
   </g>
  </g>
 </g>
 <defs>
  <clipPath id="p2a0c1a9834">
   <rect height="564.545455" width="1674" x="43.78125" y="22.318125"/>
  </clipPath>
  <clipPath id="p37af139f52">
   <rect height="564.545455" width="1674" x="43.78125" y="699.77267"/>
  </clipPath>
 </defs>
</svg>
