<?xml version="1.0" encoding="utf-8" standalone="no"?>
<!DOCTYPE svg PUBLIC "-//W3C//DTD SVG 1.1//EN"
  "http://www.w3.org/Graphics/SVG/1.1/DTD/svg11.dtd">
<svg height="1301.874375pt" version="1.1" viewBox="0 0 1724.98125 1301.874375" width="1724.98125pt" xmlns="http://www.w3.org/2000/svg" xmlns:xlink="http://www.w3.org/1999/xlink">
 <metadata>
  <rdf:RDF xmlns:cc="http://creativecommons.org/ns#" xmlns:dc="http://purl.org/dc/elements/1.1/" xmlns:rdf="http://www.w3.org/1999/02/22-rdf-syntax-ns#">
   <cc:Work>
    <dc:type rdf:resource="http://purl.org/dc/dcmitype/StillImage"/>
    <dc:date>2022-07-24T15:54:45.207122</dc:date>
    <dc:format>image/svg+xml</dc:format>
    <dc:creator>
     <cc:Agent>
      <dc:title>Matplotlib v3.4.2, https://matplotlib.org/</dc:title>
     </cc:Agent>
    </dc:creator>
   </cc:Work>
  </rdf:RDF>
 </metadata>
 <defs>
  <style type="text/css">*{stroke-linecap:butt;stroke-linejoin:round;}</style>
 </defs>
 <g id="figure_1">
  <g id="patch_1">
   <path d="M 0 1301.874375 
L 1724.98125 1301.874375 
L 1724.98125 0 
L 0 0 
z
" style="fill:#ffffff;"/>
  </g>
  <g id="axes_1">
   <g id="patch_2">
    <path d="M 43.78125 586.86358 
L 1717.78125 586.86358 
L 1717.78125 22.318125 
L 43.78125 22.318125 
z
" style="fill:#ffffff;"/>
   </g>
   <g id="matplotlib.axis_1">
    <g id="xtick_1">
     <g id="line2d_1">
      <defs>
       <path d="M 0 0 
L 0 3.5 
" id="mc11f403d2b" style="stroke:#000000;stroke-width:0.8;"/>
      </defs>
      <g>
       <use style="stroke:#000000;stroke-width:0.8;" x="119.872159" xlink:href="#mc11f403d2b" y="586.86358"/>
      </g>
     </g>
     <g id="text_1">
      <!-- 0 -->
      <g transform="translate(116.690909 601.462017)scale(0.1 -0.1)">
       <defs>
        <path d="M 2034 4250 
Q 1547 4250 1301 3770 
Q 1056 3291 1056 2328 
Q 1056 1369 1301 889 
Q 1547 409 2034 409 
Q 2525 409 2770 889 
Q 3016 1369 3016 2328 
Q 3016 3291 2770 3770 
Q 2525 4250 2034 4250 
z
M 2034 4750 
Q 2819 4750 3233 4129 
Q 3647 3509 3647 2328 
Q 3647 1150 3233 529 
Q 2819 -91 2034 -91 
Q 1250 -91 836 529 
Q 422 1150 422 2328 
Q 422 3509 836 4129 
Q 1250 4750 2034 4750 
z
" id="DejaVuSans-30" transform="scale(0.015625)"/>
       </defs>
       <use xlink:href="#DejaVuSans-30"/>
      </g>
     </g>
    </g>
    <g id="xtick_2">
     <g id="line2d_2">
      <g>
       <use style="stroke:#000000;stroke-width:0.8;" x="367.523613" xlink:href="#mc11f403d2b" y="586.86358"/>
      </g>
     </g>
     <g id="text_2">
      <!-- 200 -->
      <g transform="translate(357.979863 601.462017)scale(0.1 -0.1)">
       <defs>
        <path d="M 1228 531 
L 3431 531 
L 3431 0 
L 469 0 
L 469 531 
Q 828 903 1448 1529 
Q 2069 2156 2228 2338 
Q 2531 2678 2651 2914 
Q 2772 3150 2772 3378 
Q 2772 3750 2511 3984 
Q 2250 4219 1831 4219 
Q 1534 4219 1204 4116 
Q 875 4013 500 3803 
L 500 4441 
Q 881 4594 1212 4672 
Q 1544 4750 1819 4750 
Q 2544 4750 2975 4387 
Q 3406 4025 3406 3419 
Q 3406 3131 3298 2873 
Q 3191 2616 2906 2266 
Q 2828 2175 2409 1742 
Q 1991 1309 1228 531 
z
" id="DejaVuSans-32" transform="scale(0.015625)"/>
       </defs>
       <use xlink:href="#DejaVuSans-32"/>
       <use x="63.623047" xlink:href="#DejaVuSans-30"/>
       <use x="127.246094" xlink:href="#DejaVuSans-30"/>
      </g>
     </g>
    </g>
    <g id="xtick_3">
     <g id="line2d_3">
      <g>
       <use style="stroke:#000000;stroke-width:0.8;" x="615.175066" xlink:href="#mc11f403d2b" y="586.86358"/>
      </g>
     </g>
     <g id="text_3">
      <!-- 400 -->
      <g transform="translate(605.631316 601.462017)scale(0.1 -0.1)">
       <defs>
        <path d="M 2419 4116 
L 825 1625 
L 2419 1625 
L 2419 4116 
z
M 2253 4666 
L 3047 4666 
L 3047 1625 
L 3713 1625 
L 3713 1100 
L 3047 1100 
L 3047 0 
L 2419 0 
L 2419 1100 
L 313 1100 
L 313 1709 
L 2253 4666 
z
" id="DejaVuSans-34" transform="scale(0.015625)"/>
       </defs>
       <use xlink:href="#DejaVuSans-34"/>
       <use x="63.623047" xlink:href="#DejaVuSans-30"/>
       <use x="127.246094" xlink:href="#DejaVuSans-30"/>
      </g>
     </g>
    </g>
    <g id="xtick_4">
     <g id="line2d_4">
      <g>
       <use style="stroke:#000000;stroke-width:0.8;" x="862.82652" xlink:href="#mc11f403d2b" y="586.86358"/>
      </g>
     </g>
     <g id="text_4">
      <!-- 600 -->
      <g transform="translate(853.28277 601.462017)scale(0.1 -0.1)">
       <defs>
        <path d="M 2113 2584 
Q 1688 2584 1439 2293 
Q 1191 2003 1191 1497 
Q 1191 994 1439 701 
Q 1688 409 2113 409 
Q 2538 409 2786 701 
Q 3034 994 3034 1497 
Q 3034 2003 2786 2293 
Q 2538 2584 2113 2584 
z
M 3366 4563 
L 3366 3988 
Q 3128 4100 2886 4159 
Q 2644 4219 2406 4219 
Q 1781 4219 1451 3797 
Q 1122 3375 1075 2522 
Q 1259 2794 1537 2939 
Q 1816 3084 2150 3084 
Q 2853 3084 3261 2657 
Q 3669 2231 3669 1497 
Q 3669 778 3244 343 
Q 2819 -91 2113 -91 
Q 1303 -91 875 529 
Q 447 1150 447 2328 
Q 447 3434 972 4092 
Q 1497 4750 2381 4750 
Q 2619 4750 2861 4703 
Q 3103 4656 3366 4563 
z
" id="DejaVuSans-36" transform="scale(0.015625)"/>
       </defs>
       <use xlink:href="#DejaVuSans-36"/>
       <use x="63.623047" xlink:href="#DejaVuSans-30"/>
       <use x="127.246094" xlink:href="#DejaVuSans-30"/>
      </g>
     </g>
    </g>
    <g id="xtick_5">
     <g id="line2d_5">
      <g>
       <use style="stroke:#000000;stroke-width:0.8;" x="1110.477973" xlink:href="#mc11f403d2b" y="586.86358"/>
      </g>
     </g>
     <g id="text_5">
      <!-- 800 -->
      <g transform="translate(1100.934223 601.462017)scale(0.1 -0.1)">
       <defs>
        <path d="M 2034 2216 
Q 1584 2216 1326 1975 
Q 1069 1734 1069 1313 
Q 1069 891 1326 650 
Q 1584 409 2034 409 
Q 2484 409 2743 651 
Q 3003 894 3003 1313 
Q 3003 1734 2745 1975 
Q 2488 2216 2034 2216 
z
M 1403 2484 
Q 997 2584 770 2862 
Q 544 3141 544 3541 
Q 544 4100 942 4425 
Q 1341 4750 2034 4750 
Q 2731 4750 3128 4425 
Q 3525 4100 3525 3541 
Q 3525 3141 3298 2862 
Q 3072 2584 2669 2484 
Q 3125 2378 3379 2068 
Q 3634 1759 3634 1313 
Q 3634 634 3220 271 
Q 2806 -91 2034 -91 
Q 1263 -91 848 271 
Q 434 634 434 1313 
Q 434 1759 690 2068 
Q 947 2378 1403 2484 
z
M 1172 3481 
Q 1172 3119 1398 2916 
Q 1625 2713 2034 2713 
Q 2441 2713 2670 2916 
Q 2900 3119 2900 3481 
Q 2900 3844 2670 4047 
Q 2441 4250 2034 4250 
Q 1625 4250 1398 4047 
Q 1172 3844 1172 3481 
z
" id="DejaVuSans-38" transform="scale(0.015625)"/>
       </defs>
       <use xlink:href="#DejaVuSans-38"/>
       <use x="63.623047" xlink:href="#DejaVuSans-30"/>
       <use x="127.246094" xlink:href="#DejaVuSans-30"/>
      </g>
     </g>
    </g>
    <g id="xtick_6">
     <g id="line2d_6">
      <g>
       <use style="stroke:#000000;stroke-width:0.8;" x="1358.129427" xlink:href="#mc11f403d2b" y="586.86358"/>
      </g>
     </g>
     <g id="text_6">
      <!-- 1000 -->
      <g transform="translate(1345.404427 601.462017)scale(0.1 -0.1)">
       <defs>
        <path d="M 794 531 
L 1825 531 
L 1825 4091 
L 703 3866 
L 703 4441 
L 1819 4666 
L 2450 4666 
L 2450 531 
L 3481 531 
L 3481 0 
L 794 0 
L 794 531 
z
" id="DejaVuSans-31" transform="scale(0.015625)"/>
       </defs>
       <use xlink:href="#DejaVuSans-31"/>
       <use x="63.623047" xlink:href="#DejaVuSans-30"/>
       <use x="127.246094" xlink:href="#DejaVuSans-30"/>
       <use x="190.869141" xlink:href="#DejaVuSans-30"/>
      </g>
     </g>
    </g>
    <g id="xtick_7">
     <g id="line2d_7">
      <g>
       <use style="stroke:#000000;stroke-width:0.8;" x="1605.78088" xlink:href="#mc11f403d2b" y="586.86358"/>
      </g>
     </g>
     <g id="text_7">
      <!-- 1200 -->
      <g transform="translate(1593.05588 601.462017)scale(0.1 -0.1)">
       <use xlink:href="#DejaVuSans-31"/>
       <use x="63.623047" xlink:href="#DejaVuSans-32"/>
       <use x="127.246094" xlink:href="#DejaVuSans-30"/>
       <use x="190.869141" xlink:href="#DejaVuSans-30"/>
      </g>
     </g>
    </g>
    <g id="text_8">
     <!-- frame -->
     <g transform="translate(865.954687 615.140142)scale(0.1 -0.1)">
      <defs>
       <path d="M 2375 4863 
L 2375 4384 
L 1825 4384 
Q 1516 4384 1395 4259 
Q 1275 4134 1275 3809 
L 1275 3500 
L 2222 3500 
L 2222 3053 
L 1275 3053 
L 1275 0 
L 697 0 
L 697 3053 
L 147 3053 
L 147 3500 
L 697 3500 
L 697 3744 
Q 697 4328 969 4595 
Q 1241 4863 1831 4863 
L 2375 4863 
z
" id="DejaVuSans-66" transform="scale(0.015625)"/>
       <path d="M 2631 2963 
Q 2534 3019 2420 3045 
Q 2306 3072 2169 3072 
Q 1681 3072 1420 2755 
Q 1159 2438 1159 1844 
L 1159 0 
L 581 0 
L 581 3500 
L 1159 3500 
L 1159 2956 
Q 1341 3275 1631 3429 
Q 1922 3584 2338 3584 
Q 2397 3584 2469 3576 
Q 2541 3569 2628 3553 
L 2631 2963 
z
" id="DejaVuSans-72" transform="scale(0.015625)"/>
       <path d="M 2194 1759 
Q 1497 1759 1228 1600 
Q 959 1441 959 1056 
Q 959 750 1161 570 
Q 1363 391 1709 391 
Q 2188 391 2477 730 
Q 2766 1069 2766 1631 
L 2766 1759 
L 2194 1759 
z
M 3341 1997 
L 3341 0 
L 2766 0 
L 2766 531 
Q 2569 213 2275 61 
Q 1981 -91 1556 -91 
Q 1019 -91 701 211 
Q 384 513 384 1019 
Q 384 1609 779 1909 
Q 1175 2209 1959 2209 
L 2766 2209 
L 2766 2266 
Q 2766 2663 2505 2880 
Q 2244 3097 1772 3097 
Q 1472 3097 1187 3025 
Q 903 2953 641 2809 
L 641 3341 
Q 956 3463 1253 3523 
Q 1550 3584 1831 3584 
Q 2591 3584 2966 3190 
Q 3341 2797 3341 1997 
z
" id="DejaVuSans-61" transform="scale(0.015625)"/>
       <path d="M 3328 2828 
Q 3544 3216 3844 3400 
Q 4144 3584 4550 3584 
Q 5097 3584 5394 3201 
Q 5691 2819 5691 2113 
L 5691 0 
L 5113 0 
L 5113 2094 
Q 5113 2597 4934 2840 
Q 4756 3084 4391 3084 
Q 3944 3084 3684 2787 
Q 3425 2491 3425 1978 
L 3425 0 
L 2847 0 
L 2847 2094 
Q 2847 2600 2669 2842 
Q 2491 3084 2119 3084 
Q 1678 3084 1418 2786 
Q 1159 2488 1159 1978 
L 1159 0 
L 581 0 
L 581 3500 
L 1159 3500 
L 1159 2956 
Q 1356 3278 1631 3431 
Q 1906 3584 2284 3584 
Q 2666 3584 2933 3390 
Q 3200 3197 3328 2828 
z
" id="DejaVuSans-6d" transform="scale(0.015625)"/>
       <path d="M 3597 1894 
L 3597 1613 
L 953 1613 
Q 991 1019 1311 708 
Q 1631 397 2203 397 
Q 2534 397 2845 478 
Q 3156 559 3463 722 
L 3463 178 
Q 3153 47 2828 -22 
Q 2503 -91 2169 -91 
Q 1331 -91 842 396 
Q 353 884 353 1716 
Q 353 2575 817 3079 
Q 1281 3584 2069 3584 
Q 2775 3584 3186 3129 
Q 3597 2675 3597 1894 
z
M 3022 2063 
Q 3016 2534 2758 2815 
Q 2500 3097 2075 3097 
Q 1594 3097 1305 2825 
Q 1016 2553 972 2059 
L 3022 2063 
z
" id="DejaVuSans-65" transform="scale(0.015625)"/>
      </defs>
      <use xlink:href="#DejaVuSans-66"/>
      <use x="35.205078" xlink:href="#DejaVuSans-72"/>
      <use x="76.318359" xlink:href="#DejaVuSans-61"/>
      <use x="137.597656" xlink:href="#DejaVuSans-6d"/>
      <use x="235.009766" xlink:href="#DejaVuSans-65"/>
     </g>
    </g>
   </g>
   <g id="matplotlib.axis_2">
    <g id="ytick_1">
     <g id="line2d_8">
      <defs>
       <path d="M 0 0 
L -3.5 0 
" id="m7e194a624f" style="stroke:#000000;stroke-width:0.8;"/>
      </defs>
      <g>
       <use style="stroke:#000000;stroke-width:0.8;" x="43.78125" xlink:href="#m7e194a624f" y="561.202423"/>
      </g>
     </g>
     <g id="text_9">
      <!-- 0.0 -->
      <g transform="translate(20.878125 565.001641)scale(0.1 -0.1)">
       <defs>
        <path d="M 684 794 
L 1344 794 
L 1344 0 
L 684 0 
L 684 794 
z
" id="DejaVuSans-2e" transform="scale(0.015625)"/>
       </defs>
       <use xlink:href="#DejaVuSans-30"/>
       <use x="63.623047" xlink:href="#DejaVuSans-2e"/>
       <use x="95.410156" xlink:href="#DejaVuSans-30"/>
      </g>
     </g>
    </g>
    <g id="ytick_2">
     <g id="line2d_9">
      <g>
       <use style="stroke:#000000;stroke-width:0.8;" x="43.78125" xlink:href="#m7e194a624f" y="474.918032"/>
      </g>
     </g>
     <g id="text_10">
      <!-- 0.5 -->
      <g transform="translate(20.878125 478.71725)scale(0.1 -0.1)">
       <defs>
        <path d="M 691 4666 
L 3169 4666 
L 3169 4134 
L 1269 4134 
L 1269 2991 
Q 1406 3038 1543 3061 
Q 1681 3084 1819 3084 
Q 2600 3084 3056 2656 
Q 3513 2228 3513 1497 
Q 3513 744 3044 326 
Q 2575 -91 1722 -91 
Q 1428 -91 1123 -41 
Q 819 9 494 109 
L 494 744 
Q 775 591 1075 516 
Q 1375 441 1709 441 
Q 2250 441 2565 725 
Q 2881 1009 2881 1497 
Q 2881 1984 2565 2268 
Q 2250 2553 1709 2553 
Q 1456 2553 1204 2497 
Q 953 2441 691 2322 
L 691 4666 
z
" id="DejaVuSans-35" transform="scale(0.015625)"/>
       </defs>
       <use xlink:href="#DejaVuSans-30"/>
       <use x="63.623047" xlink:href="#DejaVuSans-2e"/>
       <use x="95.410156" xlink:href="#DejaVuSans-35"/>
      </g>
     </g>
    </g>
    <g id="ytick_3">
     <g id="line2d_10">
      <g>
       <use style="stroke:#000000;stroke-width:0.8;" x="43.78125" xlink:href="#m7e194a624f" y="388.633641"/>
      </g>
     </g>
     <g id="text_11">
      <!-- 1.0 -->
      <g transform="translate(20.878125 392.432859)scale(0.1 -0.1)">
       <use xlink:href="#DejaVuSans-31"/>
       <use x="63.623047" xlink:href="#DejaVuSans-2e"/>
       <use x="95.410156" xlink:href="#DejaVuSans-30"/>
      </g>
     </g>
    </g>
    <g id="ytick_4">
     <g id="line2d_11">
      <g>
       <use style="stroke:#000000;stroke-width:0.8;" x="43.78125" xlink:href="#m7e194a624f" y="302.34925"/>
      </g>
     </g>
     <g id="text_12">
      <!-- 1.5 -->
      <g transform="translate(20.878125 306.148468)scale(0.1 -0.1)">
       <use xlink:href="#DejaVuSans-31"/>
       <use x="63.623047" xlink:href="#DejaVuSans-2e"/>
       <use x="95.410156" xlink:href="#DejaVuSans-35"/>
      </g>
     </g>
    </g>
    <g id="ytick_5">
     <g id="line2d_12">
      <g>
       <use style="stroke:#000000;stroke-width:0.8;" x="43.78125" xlink:href="#m7e194a624f" y="216.064859"/>
      </g>
     </g>
     <g id="text_13">
      <!-- 2.0 -->
      <g transform="translate(20.878125 219.864078)scale(0.1 -0.1)">
       <use xlink:href="#DejaVuSans-32"/>
       <use x="63.623047" xlink:href="#DejaVuSans-2e"/>
       <use x="95.410156" xlink:href="#DejaVuSans-30"/>
      </g>
     </g>
    </g>
    <g id="ytick_6">
     <g id="line2d_13">
      <g>
       <use style="stroke:#000000;stroke-width:0.8;" x="43.78125" xlink:href="#m7e194a624f" y="129.780468"/>
      </g>
     </g>
     <g id="text_14">
      <!-- 2.5 -->
      <g transform="translate(20.878125 133.579687)scale(0.1 -0.1)">
       <use xlink:href="#DejaVuSans-32"/>
       <use x="63.623047" xlink:href="#DejaVuSans-2e"/>
       <use x="95.410156" xlink:href="#DejaVuSans-35"/>
      </g>
     </g>
    </g>
    <g id="ytick_7">
     <g id="line2d_14">
      <g>
       <use style="stroke:#000000;stroke-width:0.8;" x="43.78125" xlink:href="#m7e194a624f" y="43.496077"/>
      </g>
     </g>
     <g id="text_15">
      <!-- 3.0 -->
      <g transform="translate(20.878125 47.295296)scale(0.1 -0.1)">
       <defs>
        <path d="M 2597 2516 
Q 3050 2419 3304 2112 
Q 3559 1806 3559 1356 
Q 3559 666 3084 287 
Q 2609 -91 1734 -91 
Q 1441 -91 1130 -33 
Q 819 25 488 141 
L 488 750 
Q 750 597 1062 519 
Q 1375 441 1716 441 
Q 2309 441 2620 675 
Q 2931 909 2931 1356 
Q 2931 1769 2642 2001 
Q 2353 2234 1838 2234 
L 1294 2234 
L 1294 2753 
L 1863 2753 
Q 2328 2753 2575 2939 
Q 2822 3125 2822 3475 
Q 2822 3834 2567 4026 
Q 2313 4219 1838 4219 
Q 1578 4219 1281 4162 
Q 984 4106 628 3988 
L 628 4550 
Q 988 4650 1302 4700 
Q 1616 4750 1894 4750 
Q 2613 4750 3031 4423 
Q 3450 4097 3450 3541 
Q 3450 3153 3228 2886 
Q 3006 2619 2597 2516 
z
" id="DejaVuSans-33" transform="scale(0.015625)"/>
       </defs>
       <use xlink:href="#DejaVuSans-33"/>
       <use x="63.623047" xlink:href="#DejaVuSans-2e"/>
       <use x="95.410156" xlink:href="#DejaVuSans-30"/>
      </g>
     </g>
    </g>
    <g id="text_16">
     <!-- GCaMP -->
     <g transform="translate(14.798437 322.349446)rotate(-90)scale(0.1 -0.1)">
      <defs>
       <path d="M 3809 666 
L 3809 1919 
L 2778 1919 
L 2778 2438 
L 4434 2438 
L 4434 434 
Q 4069 175 3628 42 
Q 3188 -91 2688 -91 
Q 1594 -91 976 548 
Q 359 1188 359 2328 
Q 359 3472 976 4111 
Q 1594 4750 2688 4750 
Q 3144 4750 3555 4637 
Q 3966 4525 4313 4306 
L 4313 3634 
Q 3963 3931 3569 4081 
Q 3175 4231 2741 4231 
Q 1884 4231 1454 3753 
Q 1025 3275 1025 2328 
Q 1025 1384 1454 906 
Q 1884 428 2741 428 
Q 3075 428 3337 486 
Q 3600 544 3809 666 
z
" id="DejaVuSans-47" transform="scale(0.015625)"/>
       <path d="M 4122 4306 
L 4122 3641 
Q 3803 3938 3442 4084 
Q 3081 4231 2675 4231 
Q 1875 4231 1450 3742 
Q 1025 3253 1025 2328 
Q 1025 1406 1450 917 
Q 1875 428 2675 428 
Q 3081 428 3442 575 
Q 3803 722 4122 1019 
L 4122 359 
Q 3791 134 3420 21 
Q 3050 -91 2638 -91 
Q 1578 -91 968 557 
Q 359 1206 359 2328 
Q 359 3453 968 4101 
Q 1578 4750 2638 4750 
Q 3056 4750 3426 4639 
Q 3797 4528 4122 4306 
z
" id="DejaVuSans-43" transform="scale(0.015625)"/>
       <path d="M 628 4666 
L 1569 4666 
L 2759 1491 
L 3956 4666 
L 4897 4666 
L 4897 0 
L 4281 0 
L 4281 4097 
L 3078 897 
L 2444 897 
L 1241 4097 
L 1241 0 
L 628 0 
L 628 4666 
z
" id="DejaVuSans-4d" transform="scale(0.015625)"/>
       <path d="M 1259 4147 
L 1259 2394 
L 2053 2394 
Q 2494 2394 2734 2622 
Q 2975 2850 2975 3272 
Q 2975 3691 2734 3919 
Q 2494 4147 2053 4147 
L 1259 4147 
z
M 628 4666 
L 2053 4666 
Q 2838 4666 3239 4311 
Q 3641 3956 3641 3272 
Q 3641 2581 3239 2228 
Q 2838 1875 2053 1875 
L 1259 1875 
L 1259 0 
L 628 0 
L 628 4666 
z
" id="DejaVuSans-50" transform="scale(0.015625)"/>
      </defs>
      <use xlink:href="#DejaVuSans-47"/>
      <use x="77.490234" xlink:href="#DejaVuSans-43"/>
      <use x="147.314453" xlink:href="#DejaVuSans-61"/>
      <use x="208.59375" xlink:href="#DejaVuSans-4d"/>
      <use x="294.873047" xlink:href="#DejaVuSans-50"/>
     </g>
    </g>
   </g>
   <g id="line2d_15">
    <path clip-path="url(#p29079efc56)" d="M 119.872159 461.167341 
L 121.110416 460.142064 
L 122.348674 459.387738 
L 123.586931 459.103668 
L 124.825188 459.386303 
L 126.063445 460.24885 
L 128.53996 463.003209 
L 129.778217 464.378247 
L 131.016474 465.515646 
L 132.254732 466.240084 
L 133.492989 466.337637 
L 134.731246 465.648183 
L 135.969504 464.150067 
L 137.207761 461.962921 
L 138.446018 459.453877 
L 139.684275 457.292901 
L 140.922533 456.073365 
L 142.16079 455.788156 
L 143.399047 455.631442 
L 144.637304 454.254686 
L 145.875562 450.423671 
L 147.113819 443.762015 
L 149.590334 427.249563 
L 150.828591 421.805205 
L 152.066848 419.696225 
L 153.305105 420.314533 
L 154.543363 422.664361 
L 155.78162 426.019957 
L 159.496392 437.635161 
L 160.734649 440.309862 
L 161.972906 441.21568 
L 163.211163 439.333743 
L 164.449421 433.376337 
L 165.687678 422.265011 
L 166.925935 406.507417 
L 168.164193 389.164256 
L 169.40245 374.699209 
L 170.640707 366.135033 
L 171.878964 362.966469 
L 173.117222 361.598158 
L 174.355479 357.812716 
L 175.593736 349.350783 
L 178.070251 324.475178 
L 179.308508 315.597963 
L 180.546765 312.638718 
L 181.785022 315.021635 
L 183.02328 320.588017 
L 184.261537 326.918662 
L 185.499794 331.555408 
L 186.738052 332.112241 
L 187.976309 327.32258 
L 190.452823 309.512234 
L 191.691081 304.569197 
L 192.929338 305.525632 
L 194.167595 311.310202 
L 195.405852 319.133874 
L 196.64411 326.244155 
L 197.882367 331.024626 
L 199.120624 332.647255 
L 200.358881 330.373069 
L 201.597139 323.882789 
L 202.835396 314.049969 
L 204.073653 303.268061 
L 205.311911 294.746256 
L 206.550168 290.64968 
L 207.788425 290.558443 
L 209.026682 291.762675 
L 210.26494 290.948009 
L 211.503197 285.84965 
L 212.741454 276.374878 
L 213.979711 264.982073 
L 215.217969 255.523382 
L 216.456226 251.079452 
L 217.694483 252.667705 
L 218.93274 259.159316 
L 220.170998 267.699167 
L 221.409255 274.638781 
L 222.647512 276.649642 
L 223.88577 271.64661 
L 225.124027 259.688845 
L 228.838799 210.453573 
L 230.077056 197.589607 
L 231.315313 186.413888 
L 232.55357 177.263935 
L 233.791828 172.597121 
L 235.030085 174.661366 
L 236.268342 183.093915 
L 238.744857 206.816315 
L 239.983114 214.898236 
L 241.221371 217.230343 
L 242.459629 213.551874 
L 243.697886 205.243069 
L 244.936143 195.137151 
L 246.1744 187.224686 
L 247.412658 185.040442 
L 248.650915 189.541005 
L 249.889172 198.883549 
L 251.127429 209.840356 
L 252.365687 219.28373 
L 253.603944 225.579795 
L 254.842201 229.319401 
L 256.080459 232.147898 
L 257.318716 234.542061 
L 258.556973 235.113609 
L 259.79523 231.929444 
L 261.033488 224.303315 
L 264.748259 191.880185 
L 265.986517 180.604298 
L 267.224774 166.590975 
L 268.463031 150.94638 
L 269.701288 137.991306 
L 270.939546 131.619572 
L 272.177803 132.799237 
L 273.41606 139.555674 
L 274.654318 148.0775 
L 275.892575 154.436873 
L 277.130832 155.971371 
L 278.369089 151.278003 
L 279.607347 140.247023 
L 280.845604 125.445937 
L 282.083861 112.173543 
L 283.322118 105.253919 
L 284.560376 106.124543 
L 285.798633 113.102945 
L 287.03689 122.551963 
L 288.275147 129.676957 
L 289.513405 130.210339 
L 290.751662 122.156806 
L 291.989919 106.458389 
L 294.466434 67.610875 
L 295.704691 53.716334 
L 296.942948 47.979282 
L 298.181206 50.990686 
L 299.419463 60.600429 
L 300.65772 72.680504 
L 301.895977 82.638622 
L 303.134235 87.214471 
L 304.372492 86.09751 
L 305.610749 82.233261 
L 306.849006 79.794673 
L 308.087264 81.297895 
L 309.325521 86.417024 
L 310.563778 92.879188 
L 311.802036 98.363264 
L 313.040293 101.723055 
L 314.27855 102.420638 
L 315.516807 99.872048 
L 317.993322 89.095396 
L 319.231579 87.121707 
L 320.469836 90.52366 
L 321.708094 98.73669 
L 325.422866 131.090724 
L 326.661123 137.479212 
L 327.89938 139.238001 
L 329.137637 136.130074 
L 331.614152 122.775168 
L 332.852409 119.120761 
L 334.090666 120.424217 
L 335.328924 126.874944 
L 336.567181 137.242512 
L 337.805438 149.036884 
L 339.043695 159.525696 
L 340.281953 166.881879 
L 341.52021 170.377265 
L 342.758467 169.931837 
L 343.996725 166.222689 
L 345.234982 161.13715 
L 346.473239 157.303793 
L 347.711496 156.537077 
L 348.949754 158.522102 
L 352.664525 167.885519 
L 353.902783 172.049014 
L 355.14104 176.666609 
L 356.379297 180.447856 
L 357.617554 182.244961 
L 358.855812 181.591683 
L 360.094069 178.483644 
L 362.570584 168.975484 
L 363.808841 167.53912 
L 365.047098 170.771266 
L 366.285355 177.454557 
L 367.523613 184.841725 
L 368.76187 190.285121 
L 370.000127 191.748715 
L 371.238384 188.079659 
L 372.476642 179.788404 
L 373.714899 169.822812 
L 374.953156 162.713871 
L 376.191413 161.633843 
L 377.429671 166.415559 
L 381.144443 191.021961 
L 382.3827 196.895855 
L 383.620957 201.087406 
L 384.859214 203.408381 
L 386.097472 203.307633 
L 387.335729 200.728551 
L 388.573986 197.038914 
L 389.812243 194.501954 
L 391.050501 194.92274 
L 392.288758 198.67998 
L 393.527015 204.236632 
L 394.765272 208.740817 
L 396.00353 209.417875 
L 397.241787 204.686189 
L 398.480044 195.243746 
L 399.718302 184.24083 
L 400.956559 174.944814 
L 402.194816 168.196059 
L 404.671331 156.78349 
L 408.386102 136.483762 
L 409.62436 132.651623 
L 410.862617 130.881745 
L 412.100874 130.74816 
L 413.339132 132.985376 
L 414.577389 138.827948 
L 415.815646 148.320301 
L 418.292161 170.169887 
L 419.530418 178.408616 
L 420.768675 184.292443 
L 422.006932 188.051479 
L 423.24519 189.425356 
L 424.483447 187.707289 
L 425.721704 182.145313 
L 426.959961 173.144435 
L 428.198219 163.257693 
L 429.436476 156.212796 
L 430.674733 154.640403 
L 431.912991 158.78484 
L 433.151248 167.102605 
L 435.627762 188.700008 
L 438.104277 209.937528 
L 439.342534 219.334644 
L 440.580791 227.014467 
L 441.819049 232.296544 
L 443.057306 235.415867 
L 444.295563 237.204131 
L 445.53382 237.884317 
L 446.772078 236.581857 
L 448.010335 232.001505 
L 449.248592 223.738933 
L 451.725107 203.501803 
L 452.963364 196.35461 
L 454.201621 192.626665 
L 455.439879 192.466093 
L 456.678136 195.611413 
L 457.916393 201.199646 
L 460.392908 213.963898 
L 461.631165 218.058725 
L 462.869422 219.634016 
L 464.107679 218.66201 
L 465.345937 214.604864 
L 466.584194 206.778633 
L 467.822451 195.725355 
L 470.298966 171.989764 
L 471.537223 163.975861 
L 472.77548 161.72569 
L 474.013738 166.017852 
L 476.490252 183.512837 
L 477.728509 189.197291 
L 478.966767 190.54013 
L 480.205024 188.01767 
L 481.443281 182.552011 
L 482.681538 174.900879 
L 485.158053 156.724528 
L 486.39631 150.471193 
L 487.634568 149.277266 
L 488.872825 153.26982 
L 490.111082 160.911234 
L 491.349339 170.654124 
L 493.825854 191.659576 
L 495.064111 200.204828 
L 496.302368 206.554647 
L 497.540626 211.239185 
L 498.778883 214.98297 
L 500.01714 217.67317 
L 501.255397 218.211078 
L 502.493655 215.805522 
L 504.970169 207.055543 
L 506.208427 205.207462 
L 507.446684 206.380825 
L 509.923198 212.660258 
L 511.161456 213.557133 
L 512.399713 211.229786 
L 513.63797 206.982161 
L 514.876227 203.61263 
L 516.114485 203.031387 
L 518.590999 206.578019 
L 519.829257 205.765395 
L 521.067514 200.792741 
L 522.305771 191.430993 
L 523.544028 178.33542 
L 524.782286 163.61654 
L 526.020543 150.928913 
L 527.2588 143.491449 
L 528.497057 142.342656 
L 529.735315 146.569319 
L 530.973572 154.588057 
L 532.211829 165.030245 
L 534.688344 188.458647 
L 535.926601 198.217361 
L 537.164858 204.044134 
L 538.403116 205.163447 
L 539.641373 202.741375 
L 540.87963 199.318157 
L 542.117887 197.421695 
L 543.356145 198.445625 
L 544.594402 202.751572 
L 545.832659 209.986375 
L 547.070916 218.575447 
L 548.309174 225.548478 
L 549.547431 227.780251 
L 550.785688 223.953533 
L 552.023945 215.471322 
L 553.262203 205.346081 
L 554.50046 196.281562 
L 555.738717 190.038253 
L 556.976975 187.935726 
L 558.215232 190.391058 
L 560.691746 201.993559 
L 561.930004 205.746603 
L 563.168261 205.853759 
L 564.406518 202.274567 
L 565.644775 195.654769 
L 566.883033 187.787696 
L 568.12129 182.029785 
L 569.359547 181.327425 
L 570.597804 185.955152 
L 573.074319 201.84355 
L 574.312576 208.370359 
L 575.550834 212.212676 
L 576.789091 212.785819 
L 578.027348 209.935655 
L 579.265605 204.178328 
L 580.503863 197.07925 
L 581.74212 191.214666 
L 582.980377 189.331844 
L 584.218634 192.686683 
L 586.695149 207.461218 
L 587.933406 212.465209 
L 589.171663 213.058189 
L 590.409921 208.936576 
L 591.648178 201.216396 
L 592.886435 192.220155 
L 594.124693 184.904659 
L 595.36295 182.047268 
L 596.601207 184.904212 
L 597.839464 192.149556 
L 599.077722 200.713898 
L 600.315979 207.58351 
L 601.554236 210.685522 
L 602.792493 209.090096 
L 604.030751 203.308198 
L 606.507265 187.277846 
L 607.745523 181.475728 
L 608.98378 178.832873 
L 610.222037 178.790104 
L 611.460294 179.404077 
L 612.698552 179.060176 
L 613.936809 178.025567 
L 615.175066 177.702558 
L 616.413323 178.767852 
L 617.651581 180.406649 
L 618.889838 181.078606 
L 620.128095 180.290925 
L 621.366352 179.670434 
L 622.60461 181.722554 
L 623.842867 187.356424 
L 625.081124 194.950491 
L 626.319382 201.785977 
L 627.557639 205.650519 
L 628.795896 205.957854 
L 630.034153 204.922365 
L 631.272411 206.413589 
L 632.510668 212.528181 
L 636.22544 241.575064 
L 637.463697 247.610217 
L 638.701954 250.535484 
L 639.940211 251.005677 
L 641.178469 249.981926 
L 643.654983 246.672396 
L 644.893241 246.356693 
L 646.131498 248.169587 
L 648.608012 254.630679 
L 649.84627 255.026366 
L 651.084527 250.87945 
L 652.322784 242.469461 
L 653.561041 232.498652 
L 654.799299 224.295975 
L 656.037556 220.024791 
L 657.275813 219.890059 
L 658.51407 222.55851 
L 659.752328 226.756321 
L 660.990585 232.131227 
L 664.705357 251.667615 
L 665.943614 254.795619 
L 667.181871 253.579053 
L 668.420129 248.249764 
L 672.1349 224.863863 
L 673.373158 221.910579 
L 674.611415 224.127124 
L 675.849672 230.715696 
L 679.564444 257.241704 
L 680.802701 263.605379 
L 682.040959 267.393566 
L 683.279216 268.0383 
L 684.517473 265.133812 
L 685.75573 259.011498 
L 686.993988 251.38715 
L 688.232245 244.596417 
L 689.470502 239.628078 
L 690.708759 235.411016 
L 693.185274 225.560032 
L 694.423531 222.314796 
L 695.661789 221.395922 
L 696.900046 221.223885 
L 698.138303 220.0422 
L 699.37656 217.539183 
L 700.614818 214.679355 
L 701.853075 212.534527 
L 703.091332 211.341445 
L 704.329589 210.733126 
L 705.567847 210.26021 
L 708.044361 208.963455 
L 709.282618 209.141224 
L 710.520876 210.415669 
L 711.759133 212.442225 
L 712.99739 214.772766 
L 714.235648 216.799818 
L 715.473905 217.424018 
L 716.712162 215.35037 
L 717.950419 209.967538 
L 720.426934 194.320096 
L 721.665191 187.996374 
L 722.903448 183.955346 
L 724.141706 182.970276 
L 725.379963 185.907888 
L 726.61822 192.522072 
L 727.856477 201.474759 
L 730.332992 220.807726 
L 731.571249 229.631469 
L 732.809507 237.236108 
L 734.047764 242.882486 
L 735.286021 246.346676 
L 736.524278 248.089877 
L 737.762536 248.344305 
L 739.000793 246.838177 
L 740.23905 243.581811 
L 741.477307 239.623681 
L 742.715565 236.814882 
L 743.953822 236.570333 
L 745.192079 238.796278 
L 746.430336 242.009688 
L 747.668594 244.749922 
L 751.383366 251.301622 
L 752.621623 251.657057 
L 753.85988 249.622134 
L 755.098137 245.75726 
L 756.336395 241.476839 
L 757.574652 238.492791 
L 758.812909 238.373256 
L 760.051166 241.801673 
L 761.289424 248.013006 
L 762.527681 255.161316 
L 763.765938 261.16417 
L 765.004195 264.624902 
L 766.242453 265.560413 
L 767.48071 265.03181 
L 768.718967 263.722385 
L 769.957225 261.350921 
L 771.195482 257.969809 
L 772.433739 254.958932 
L 773.671996 253.724148 
L 774.910254 254.041356 
L 776.148511 254.579381 
L 777.386768 254.814997 
L 778.625025 255.797347 
L 779.863283 258.914661 
L 781.10154 264.499911 
L 783.578054 278.594857 
L 784.816312 283.436422 
L 786.054569 285.39354 
L 787.292826 285.307792 
L 788.531084 284.904135 
L 789.769341 285.865539 
L 791.007598 289.189135 
L 794.72237 304.96287 
L 795.960627 307.705319 
L 797.198884 309.005307 
L 798.437142 309.9535 
L 799.675399 311.278265 
L 800.913656 312.829335 
L 802.151914 314.014501 
L 803.390171 314.153786 
L 804.628428 312.701744 
L 805.866685 310.037495 
L 807.104943 307.852144 
L 808.3432 307.802719 
L 809.581457 309.995236 
L 810.819714 313.431245 
L 813.296229 321.313548 
L 815.772743 330.253476 
L 817.011001 333.205211 
L 818.249258 333.290607 
L 820.725773 329.010442 
L 821.96403 327.883043 
L 824.440544 327.008412 
L 825.678802 326.116448 
L 826.917059 325.529425 
L 828.155316 326.266061 
L 829.393573 328.446441 
L 830.631831 331.207512 
L 831.870088 333.614768 
L 833.108345 335.041492 
L 834.346602 335.146631 
L 836.823117 333.248229 
L 838.061374 333.066365 
L 839.299632 333.852245 
L 840.537889 335.428157 
L 843.014403 340.001503 
L 844.252661 341.278517 
L 845.490918 340.465095 
L 846.729175 337.741125 
L 847.967432 334.611966 
L 849.20569 332.890255 
L 850.443947 333.241737 
L 851.682204 335.076738 
L 852.920461 337.756043 
L 855.396976 344.021938 
L 856.635233 346.287018 
L 857.873491 346.905438 
L 859.111748 345.054462 
L 860.350005 340.357698 
L 862.82652 326.683022 
L 864.064777 322.227657 
L 865.303034 321.55567 
L 866.541291 324.423762 
L 867.779549 329.688299 
L 869.017806 335.784459 
L 870.256063 341.06393 
L 871.49432 344.524297 
L 872.732578 346.061204 
L 873.970835 345.896045 
L 875.209092 344.260174 
L 876.44735 341.686057 
L 877.685607 338.791558 
L 878.923864 335.587702 
L 881.400379 327.620974 
L 882.638636 325.257716 
L 883.876893 326.225222 
L 885.11515 330.007398 
L 886.353408 334.343936 
L 887.591665 337.07204 
L 888.829922 337.286157 
L 890.06818 335.108197 
L 891.306437 330.96873 
L 893.782951 320.514834 
L 895.021209 317.290775 
L 896.259466 317.015337 
L 897.497723 319.781197 
L 898.73598 324.905881 
L 899.974238 331.184091 
L 901.212495 336.885511 
L 902.450752 340.246726 
L 903.689009 340.41859 
L 904.927267 337.475442 
L 906.165524 331.947501 
L 907.403781 325.111913 
L 908.642039 319.21187 
L 909.880296 316.523009 
L 911.118553 317.722315 
L 912.35681 321.492129 
L 914.833325 331.314888 
L 916.071582 336.470374 
L 917.309839 340.651352 
L 918.548097 342.52803 
L 919.786354 341.265453 
L 921.024611 336.507451 
L 922.262868 328.400009 
L 924.739383 308.312112 
L 925.97764 301.429909 
L 927.215898 299.586607 
L 928.454155 303.116645 
L 930.930669 317.792028 
L 932.168927 323.548751 
L 933.407184 326.701692 
L 934.645441 327.791693 
L 935.883698 327.829666 
L 937.121956 327.63757 
L 938.360213 327.770845 
L 939.59847 328.736963 
L 940.836727 330.699139 
L 943.313242 335.784435 
L 944.551499 338.042632 
L 945.789757 340.007142 
L 947.028014 341.691411 
L 948.266271 342.760362 
L 949.504528 342.568543 
L 950.742786 340.602591 
L 951.981043 336.948601 
L 954.457557 328.280991 
L 955.695815 325.625127 
L 956.934072 324.982369 
L 958.172329 326.213688 
L 959.410586 328.988021 
L 960.648844 333.158451 
L 961.887101 338.742547 
L 965.601873 358.597424 
L 966.84013 363.470117 
L 968.078387 366.874093 
L 969.316645 368.666186 
L 970.554902 368.697736 
L 971.793159 367.242607 
L 973.031416 365.245163 
L 974.269674 363.891626 
L 975.507931 364.044329 
L 976.746188 365.769432 
L 977.984446 368.043223 
L 979.222703 369.438911 
L 980.46096 369.391687 
L 982.937475 367.54033 
L 984.175732 367.328988 
L 985.413989 368.411666 
L 986.652246 370.948409 
L 989.128761 377.21927 
L 990.367018 379.509672 
L 994.08179 385.573978 
L 995.320047 386.615316 
L 996.558305 386.373667 
L 997.796562 384.950931 
L 999.034819 382.748576 
L 1000.273076 380.246856 
L 1001.511334 378.012418 
L 1002.749591 376.564628 
L 1005.226105 375.137256 
L 1006.464363 373.048958 
L 1007.70262 368.851405 
L 1008.940877 362.707947 
L 1012.655649 341.639495 
L 1015.132164 329.753961 
L 1016.370421 324.734239 
L 1017.608678 321.786674 
L 1018.846935 321.93423 
L 1020.085193 325.140211 
L 1021.32345 330.434359 
L 1023.799964 342.28752 
L 1025.038222 347.198609 
L 1026.276479 350.549341 
L 1027.514736 352.078448 
L 1028.752993 352.61235 
L 1029.991251 353.653816 
L 1031.229508 356.111406 
L 1034.94428 366.66436 
L 1036.182537 368.736589 
L 1037.420794 369.182716 
L 1038.659052 367.824291 
L 1039.897309 364.874822 
L 1042.373823 356.86274 
L 1043.612081 353.724587 
L 1044.850338 352.236283 
L 1046.088595 352.406583 
L 1047.326852 353.681294 
L 1048.56511 355.266373 
L 1049.803367 356.304227 
L 1051.041624 356.194157 
L 1053.518139 353.893269 
L 1054.756396 353.388691 
L 1057.232911 353.789937 
L 1059.709425 353.001442 
L 1060.947682 353.499311 
L 1063.424197 357.016623 
L 1064.662454 357.54283 
L 1065.900711 356.394776 
L 1067.138969 354.501045 
L 1068.377226 353.093928 
L 1069.615483 352.675991 
L 1070.853741 352.815957 
L 1072.091998 352.645918 
L 1073.330255 351.542845 
L 1074.568512 349.686646 
L 1075.80677 348.108102 
L 1077.045027 348.00563 
L 1078.283284 349.979378 
L 1079.521541 353.741368 
L 1081.998056 362.447888 
L 1083.236313 365.257548 
L 1084.474571 366.166594 
L 1085.712828 365.241332 
L 1086.951085 363.183701 
L 1088.189342 360.859704 
L 1089.4276 358.851171 
L 1090.665857 357.400735 
L 1091.904114 356.570173 
L 1093.142371 356.209198 
L 1094.380629 355.665646 
L 1095.618886 353.825319 
L 1096.857143 349.796401 
L 1098.0954 343.654547 
L 1100.571915 329.923056 
L 1101.810172 326.064685 
L 1103.04843 326.401588 
L 1104.286687 330.631239 
L 1106.763201 343.28347 
L 1108.001459 347.842894 
L 1109.239716 349.689737 
L 1110.477973 349.259391 
L 1114.192745 345.178087 
L 1115.431002 343.901089 
L 1116.669259 343.22706 
L 1117.907517 344.166597 
L 1119.145774 347.000443 
L 1120.384031 350.720076 
L 1121.622289 353.772896 
L 1122.860546 355.355966 
L 1124.098803 355.906299 
L 1125.33706 356.286025 
L 1126.575318 356.916808 
L 1127.813575 357.834401 
L 1131.528347 361.239661 
L 1132.766604 362.038053 
L 1134.004861 362.429427 
L 1135.243118 362.164441 
L 1136.481376 360.981191 
L 1137.719633 358.848752 
L 1138.95789 355.929227 
L 1141.434405 348.933589 
L 1142.672662 346.090388 
L 1143.910919 344.232008 
L 1145.149177 343.01544 
L 1146.387434 342.013705 
L 1147.625691 341.321266 
L 1148.863948 341.524951 
L 1150.102206 343.181655 
L 1151.340463 346.448362 
L 1152.57872 351.100234 
L 1155.055235 361.826016 
L 1156.293492 365.768425 
L 1157.531749 367.592968 
L 1158.770007 367.050723 
L 1160.008264 364.365444 
L 1162.484778 355.818164 
L 1163.723036 352.525063 
L 1164.961293 350.889629 
L 1166.19955 350.664464 
L 1167.437807 351.623587 
L 1168.676065 353.549671 
L 1171.152579 358.351537 
L 1172.390837 361.136484 
L 1173.629094 364.668714 
L 1177.343866 377.319214 
L 1178.582123 379.438774 
L 1179.82038 379.047149 
L 1181.058637 376.073631 
L 1182.296895 371.148691 
L 1184.773409 359.87104 
L 1186.011666 356.135297 
L 1187.249924 354.836118 
L 1188.488181 355.816785 
L 1189.726438 358.406145 
L 1190.964696 362.249846 
L 1192.202953 367.299827 
L 1193.44121 372.936214 
L 1194.679467 377.811071 
L 1195.917725 380.795932 
L 1197.155982 381.609007 
L 1198.394239 380.456931 
L 1199.632496 377.644281 
L 1200.870754 373.603251 
L 1204.585525 359.139292 
L 1205.823783 355.897588 
L 1207.06204 354.674768 
L 1208.300297 355.34442 
L 1210.776812 358.629228 
L 1212.015069 359.275865 
L 1214.491584 358.98778 
L 1215.729841 359.511267 
L 1220.68287 364.052169 
L 1221.921127 364.839996 
L 1223.159384 364.972253 
L 1224.397642 364.735565 
L 1225.635899 364.8429 
L 1226.874156 365.729902 
L 1229.350671 368.47069 
L 1230.588928 369.161031 
L 1231.827185 368.740805 
L 1233.065443 366.973779 
L 1235.541957 361.977491 
L 1236.780214 360.711569 
L 1238.018472 361.172556 
L 1239.256729 363.542082 
L 1241.733243 371.01219 
L 1242.971501 374.192082 
L 1244.209758 376.652898 
L 1245.448015 378.252885 
L 1246.686273 378.544801 
L 1247.92453 377.38724 
L 1249.162787 375.444163 
L 1250.401044 373.775391 
L 1251.639302 372.950201 
L 1252.877559 372.680824 
L 1254.115816 372.104033 
L 1255.354073 370.455828 
L 1256.592331 367.937016 
L 1257.830588 365.738184 
L 1259.068845 364.935127 
L 1260.307103 365.750459 
L 1261.54536 367.775139 
L 1262.783617 370.194744 
L 1264.021874 371.742976 
L 1265.260132 371.104601 
L 1266.498389 367.934414 
L 1268.974903 358.817636 
L 1270.213161 355.674526 
L 1271.451418 354.449362 
L 1272.689675 355.076263 
L 1273.927932 356.627336 
L 1275.16619 357.632252 
L 1276.404447 357.216931 
L 1277.642704 355.886197 
L 1278.880962 355.006762 
L 1280.119219 355.610438 
L 1281.357476 357.812979 
L 1282.595733 361.146169 
L 1285.072248 368.627784 
L 1286.310505 371.45931 
L 1287.548762 372.89603 
L 1288.78702 372.449761 
L 1290.025277 369.596194 
L 1291.263534 363.848451 
L 1292.501791 355.362586 
L 1293.740049 345.755883 
L 1294.978306 338.00799 
L 1296.216563 334.802636 
L 1297.454821 336.692062 
L 1298.693078 342.006605 
L 1299.931335 348.272247 
L 1301.169592 353.549326 
L 1302.40785 356.907856 
L 1303.646107 358.184268 
L 1304.884364 357.683875 
L 1306.122621 356.036017 
L 1307.360879 353.943012 
L 1308.599136 352.14254 
L 1309.837393 351.451529 
L 1311.07565 352.249828 
L 1312.313908 353.933006 
L 1313.552165 355.234058 
L 1314.790422 355.026251 
L 1316.02868 352.670784 
L 1317.266937 348.027795 
L 1319.743451 336.188372 
L 1320.981709 333.503788 
L 1322.219966 334.951942 
L 1323.458223 339.470058 
L 1324.69648 344.842795 
L 1325.934738 349.461099 
L 1327.172995 352.887584 
L 1328.411252 355.10332 
L 1329.649509 355.856003 
L 1330.887767 354.683824 
L 1332.126024 351.311438 
L 1334.602539 341.209453 
L 1335.840796 337.883067 
L 1337.079053 337.228682 
L 1338.31731 338.955857 
L 1340.793825 344.975338 
L 1342.032082 345.458925 
L 1343.270339 342.263894 
L 1345.746854 330.932286 
L 1346.985111 328.054778 
L 1348.223368 328.863343 
L 1349.461626 333.029934 
L 1353.176398 351.615188 
L 1354.414655 354.839073 
L 1355.652912 355.723753 
L 1356.891169 354.852405 
L 1358.129427 352.574427 
L 1359.367684 348.692282 
L 1361.844198 337.825248 
L 1363.082456 334.877283 
L 1364.320713 336.267926 
L 1365.55897 341.631344 
L 1368.035485 355.547305 
L 1369.273742 360.530513 
L 1370.511999 363.483253 
L 1371.750257 364.326927 
L 1372.988514 362.965848 
L 1374.226771 359.871 
L 1375.465028 356.323734 
L 1376.703286 353.549758 
L 1377.941543 352.057402 
L 1379.1798 351.922378 
L 1380.418057 352.902396 
L 1381.656315 354.458571 
L 1385.371087 359.622083 
L 1386.609344 360.560302 
L 1387.847601 360.535918 
L 1390.324116 358.688055 
L 1391.562373 358.640575 
L 1392.80063 359.869916 
L 1394.038887 361.839454 
L 1395.277145 363.550243 
L 1396.515402 364.043481 
L 1397.753659 362.582095 
L 1398.991916 358.651128 
L 1400.230174 352.381705 
L 1401.468431 345.194147 
L 1402.706688 339.391182 
L 1403.944946 336.594233 
L 1405.183203 336.704873 
L 1406.42146 338.457646 
L 1408.897975 343.277324 
L 1410.136232 346.120507 
L 1412.612746 352.316842 
L 1413.851004 354.631996 
L 1415.089261 355.776656 
L 1416.327518 356.203521 
L 1417.565775 356.778377 
L 1418.804033 357.711824 
L 1420.04229 358.317478 
L 1421.280547 357.904851 
L 1422.518805 356.378569 
L 1424.995319 351.675389 
L 1426.233576 350.101132 
L 1427.471834 350.034593 
L 1428.710091 351.737714 
L 1431.186605 357.694136 
L 1432.424863 359.138851 
L 1433.66312 358.613356 
L 1436.139634 355.362117 
L 1437.377892 354.553636 
L 1438.616149 354.713367 
L 1439.854406 355.320115 
L 1441.092664 355.44338 
L 1442.330921 354.705447 
L 1443.569178 353.617138 
L 1444.807435 353.175625 
L 1446.045693 354.284253 
L 1447.28395 357.008294 
L 1448.522207 360.235304 
L 1449.760464 362.145951 
L 1450.998722 361.048043 
L 1452.236979 356.332963 
L 1453.475236 348.926859 
L 1454.713494 340.580972 
L 1455.951751 333.145356 
L 1457.190008 328.406094 
L 1458.428265 327.42027 
L 1459.666523 329.727892 
L 1467.096066 353.454214 
L 1468.334323 357.063991 
L 1469.572581 359.461972 
L 1470.810838 359.580257 
L 1472.049095 357.003911 
L 1473.287353 352.071993 
L 1475.763867 339.339258 
L 1477.002124 334.532693 
L 1478.240382 332.452484 
L 1479.478639 333.247172 
L 1480.716896 335.930809 
L 1481.955153 338.998005 
L 1483.193411 341.225969 
L 1484.431668 342.066344 
L 1485.669925 341.425493 
L 1488.14644 337.707583 
L 1489.384697 336.885371 
L 1490.622954 337.547947 
L 1491.861212 339.398393 
L 1495.575983 347.203912 
L 1496.814241 348.872758 
L 1498.052498 349.648978 
L 1499.290755 349.578981 
L 1500.529012 348.864279 
L 1501.76727 348.010062 
L 1503.005527 347.866194 
L 1504.243784 349.200226 
L 1505.482041 351.984065 
L 1506.720299 355.263577 
L 1507.958556 357.955004 
L 1509.196813 359.611596 
L 1510.435071 360.36726 
L 1511.673328 360.380095 
L 1512.911585 359.63824 
L 1515.3881 357.008516 
L 1516.626357 356.515339 
L 1517.864614 357.132996 
L 1519.102871 358.240005 
L 1520.341129 358.872944 
L 1521.579386 358.60853 
L 1522.817643 357.389171 
L 1524.0559 355.018387 
L 1529.00893 341.661283 
L 1530.247187 338.410303 
L 1531.485444 335.482711 
L 1532.723701 333.883411 
L 1533.961959 334.342229 
L 1535.200216 336.464962 
L 1536.438473 339.132598 
L 1537.67673 341.444336 
L 1538.914988 343.090866 
L 1540.153245 344.090046 
L 1541.391502 344.205511 
L 1542.62976 343.300538 
L 1545.106274 340.41508 
L 1546.344531 338.680909 
L 1547.582789 336.636895 
L 1548.821046 334.92445 
L 1550.059303 334.404712 
L 1551.29756 335.431726 
L 1552.535818 337.61183 
L 1553.774075 340.036645 
L 1555.012332 341.848562 
L 1556.250589 342.762841 
L 1557.488847 343.016542 
L 1558.727104 343.067091 
L 1559.965361 343.4986 
L 1561.203619 344.61303 
L 1562.441876 345.979388 
L 1563.680133 346.843283 
L 1564.91839 346.787843 
L 1566.156648 345.931918 
L 1569.871419 342.439878 
L 1571.109677 341.548452 
L 1572.347934 341.176145 
L 1573.586191 341.599659 
L 1574.824448 342.932946 
L 1576.062706 345.041965 
L 1577.300963 347.690961 
L 1579.777478 353.749598 
L 1581.015735 356.093502 
L 1582.253992 357.086185 
L 1584.730507 356.67288 
L 1585.968764 357.167697 
L 1587.207021 357.812161 
L 1588.445278 357.44211 
L 1589.683536 355.81517 
L 1590.921793 353.738872 
L 1592.16005 352.083503 
L 1593.398307 351.149144 
L 1594.636565 350.651295 
L 1595.874822 349.885929 
L 1597.113079 348.175478 
L 1598.351337 345.634803 
L 1599.589594 343.350339 
L 1600.827851 342.493876 
L 1602.066108 343.436659 
L 1603.304366 345.684488 
L 1604.542623 348.262037 
L 1605.78088 350.315706 
L 1607.019137 351.901638 
L 1608.257395 354.110788 
L 1609.495652 357.950845 
L 1611.972166 367.789146 
L 1613.210424 371.043827 
L 1614.448681 373.064474 
L 1615.686938 561.202423 
L 1616.925196 376.447528 
L 1618.163453 378.100109 
L 1619.40171 379.125459 
L 1620.639967 378.964201 
L 1621.878225 377.54699 
L 1623.116482 375.306096 
L 1624.354739 372.548942 
L 1625.592996 369.12574 
L 1628.069511 360.574088 
L 1629.307768 357.345649 
L 1630.546026 355.838773 
L 1631.784283 355.148467 
L 1633.02254 353.801577 
L 1634.260797 351.506966 
L 1635.499055 349.596844 
L 1636.737312 349.93188 
L 1637.975569 353.54212 
L 1639.213826 359.903483 
L 1641.690341 375.44103 
L 1641.690341 375.44103 
" style="fill:none;stroke:#008000;stroke-linecap:square;stroke-width:1.5;"/>
   </g>
   <g id="patch_3">
    <path d="M 43.78125 586.86358 
L 43.78125 22.318125 
" style="fill:none;stroke:#000000;stroke-linecap:square;stroke-linejoin:miter;stroke-width:0.8;"/>
   </g>
   <g id="patch_4">
    <path d="M 1717.78125 586.86358 
L 1717.78125 22.318125 
" style="fill:none;stroke:#000000;stroke-linecap:square;stroke-linejoin:miter;stroke-width:0.8;"/>
   </g>
   <g id="patch_5">
    <path d="M 43.78125 586.86358 
L 1717.78125 586.86358 
" style="fill:none;stroke:#000000;stroke-linecap:square;stroke-linejoin:miter;stroke-width:0.8;"/>
   </g>
   <g id="patch_6">
    <path d="M 43.78125 22.318125 
L 1717.78125 22.318125 
" style="fill:none;stroke:#000000;stroke-linecap:square;stroke-linejoin:miter;stroke-width:0.8;"/>
   </g>
   <g id="text_17">
    <!-- before binarisation -->
    <g transform="translate(824.1825 16.318125)scale(0.12 -0.12)">
     <defs>
      <path d="M 3116 1747 
Q 3116 2381 2855 2742 
Q 2594 3103 2138 3103 
Q 1681 3103 1420 2742 
Q 1159 2381 1159 1747 
Q 1159 1113 1420 752 
Q 1681 391 2138 391 
Q 2594 391 2855 752 
Q 3116 1113 3116 1747 
z
M 1159 2969 
Q 1341 3281 1617 3432 
Q 1894 3584 2278 3584 
Q 2916 3584 3314 3078 
Q 3713 2572 3713 1747 
Q 3713 922 3314 415 
Q 2916 -91 2278 -91 
Q 1894 -91 1617 61 
Q 1341 213 1159 525 
L 1159 0 
L 581 0 
L 581 4863 
L 1159 4863 
L 1159 2969 
z
" id="DejaVuSans-62" transform="scale(0.015625)"/>
      <path d="M 1959 3097 
Q 1497 3097 1228 2736 
Q 959 2375 959 1747 
Q 959 1119 1226 758 
Q 1494 397 1959 397 
Q 2419 397 2687 759 
Q 2956 1122 2956 1747 
Q 2956 2369 2687 2733 
Q 2419 3097 1959 3097 
z
M 1959 3584 
Q 2709 3584 3137 3096 
Q 3566 2609 3566 1747 
Q 3566 888 3137 398 
Q 2709 -91 1959 -91 
Q 1206 -91 779 398 
Q 353 888 353 1747 
Q 353 2609 779 3096 
Q 1206 3584 1959 3584 
z
" id="DejaVuSans-6f" transform="scale(0.015625)"/>
      <path id="DejaVuSans-20" transform="scale(0.015625)"/>
      <path d="M 603 3500 
L 1178 3500 
L 1178 0 
L 603 0 
L 603 3500 
z
M 603 4863 
L 1178 4863 
L 1178 4134 
L 603 4134 
L 603 4863 
z
" id="DejaVuSans-69" transform="scale(0.015625)"/>
      <path d="M 3513 2113 
L 3513 0 
L 2938 0 
L 2938 2094 
Q 2938 2591 2744 2837 
Q 2550 3084 2163 3084 
Q 1697 3084 1428 2787 
Q 1159 2491 1159 1978 
L 1159 0 
L 581 0 
L 581 3500 
L 1159 3500 
L 1159 2956 
Q 1366 3272 1645 3428 
Q 1925 3584 2291 3584 
Q 2894 3584 3203 3211 
Q 3513 2838 3513 2113 
z
" id="DejaVuSans-6e" transform="scale(0.015625)"/>
      <path d="M 2834 3397 
L 2834 2853 
Q 2591 2978 2328 3040 
Q 2066 3103 1784 3103 
Q 1356 3103 1142 2972 
Q 928 2841 928 2578 
Q 928 2378 1081 2264 
Q 1234 2150 1697 2047 
L 1894 2003 
Q 2506 1872 2764 1633 
Q 3022 1394 3022 966 
Q 3022 478 2636 193 
Q 2250 -91 1575 -91 
Q 1294 -91 989 -36 
Q 684 19 347 128 
L 347 722 
Q 666 556 975 473 
Q 1284 391 1588 391 
Q 1994 391 2212 530 
Q 2431 669 2431 922 
Q 2431 1156 2273 1281 
Q 2116 1406 1581 1522 
L 1381 1569 
Q 847 1681 609 1914 
Q 372 2147 372 2553 
Q 372 3047 722 3315 
Q 1072 3584 1716 3584 
Q 2034 3584 2315 3537 
Q 2597 3491 2834 3397 
z
" id="DejaVuSans-73" transform="scale(0.015625)"/>
      <path d="M 1172 4494 
L 1172 3500 
L 2356 3500 
L 2356 3053 
L 1172 3053 
L 1172 1153 
Q 1172 725 1289 603 
Q 1406 481 1766 481 
L 2356 481 
L 2356 0 
L 1766 0 
Q 1100 0 847 248 
Q 594 497 594 1153 
L 594 3053 
L 172 3053 
L 172 3500 
L 594 3500 
L 594 4494 
L 1172 4494 
z
" id="DejaVuSans-74" transform="scale(0.015625)"/>
     </defs>
     <use xlink:href="#DejaVuSans-62"/>
     <use x="63.476562" xlink:href="#DejaVuSans-65"/>
     <use x="125" xlink:href="#DejaVuSans-66"/>
     <use x="160.205078" xlink:href="#DejaVuSans-6f"/>
     <use x="221.386719" xlink:href="#DejaVuSans-72"/>
     <use x="260.25" xlink:href="#DejaVuSans-65"/>
     <use x="321.773438" xlink:href="#DejaVuSans-20"/>
     <use x="353.560547" xlink:href="#DejaVuSans-62"/>
     <use x="417.037109" xlink:href="#DejaVuSans-69"/>
     <use x="444.820312" xlink:href="#DejaVuSans-6e"/>
     <use x="508.199219" xlink:href="#DejaVuSans-61"/>
     <use x="569.478516" xlink:href="#DejaVuSans-72"/>
     <use x="610.591797" xlink:href="#DejaVuSans-69"/>
     <use x="638.375" xlink:href="#DejaVuSans-73"/>
     <use x="690.474609" xlink:href="#DejaVuSans-61"/>
     <use x="751.753906" xlink:href="#DejaVuSans-74"/>
     <use x="790.962891" xlink:href="#DejaVuSans-69"/>
     <use x="818.746094" xlink:href="#DejaVuSans-6f"/>
     <use x="879.927734" xlink:href="#DejaVuSans-6e"/>
    </g>
   </g>
  </g>
  <g id="axes_2">
   <g id="patch_7">
    <path d="M 43.78125 1264.318125 
L 1717.78125 1264.318125 
L 1717.78125 699.77267 
L 43.78125 699.77267 
z
" style="fill:#ffffff;"/>
   </g>
   <g id="matplotlib.axis_3">
    <g id="xtick_8">
     <g id="line2d_16">
      <g>
       <use style="stroke:#000000;stroke-width:0.8;" x="119.872159" xlink:href="#mc11f403d2b" y="1264.318125"/>
      </g>
     </g>
     <g id="text_18">
      <!-- 0 -->
      <g transform="translate(116.690909 1278.916563)scale(0.1 -0.1)">
       <use xlink:href="#DejaVuSans-30"/>
      </g>
     </g>
    </g>
    <g id="xtick_9">
     <g id="line2d_17">
      <g>
       <use style="stroke:#000000;stroke-width:0.8;" x="367.523613" xlink:href="#mc11f403d2b" y="1264.318125"/>
      </g>
     </g>
     <g id="text_19">
      <!-- 200 -->
      <g transform="translate(357.979863 1278.916563)scale(0.1 -0.1)">
       <use xlink:href="#DejaVuSans-32"/>
       <use x="63.623047" xlink:href="#DejaVuSans-30"/>
       <use x="127.246094" xlink:href="#DejaVuSans-30"/>
      </g>
     </g>
    </g>
    <g id="xtick_10">
     <g id="line2d_18">
      <g>
       <use style="stroke:#000000;stroke-width:0.8;" x="615.175066" xlink:href="#mc11f403d2b" y="1264.318125"/>
      </g>
     </g>
     <g id="text_20">
      <!-- 400 -->
      <g transform="translate(605.631316 1278.916563)scale(0.1 -0.1)">
       <use xlink:href="#DejaVuSans-34"/>
       <use x="63.623047" xlink:href="#DejaVuSans-30"/>
       <use x="127.246094" xlink:href="#DejaVuSans-30"/>
      </g>
     </g>
    </g>
    <g id="xtick_11">
     <g id="line2d_19">
      <g>
       <use style="stroke:#000000;stroke-width:0.8;" x="862.82652" xlink:href="#mc11f403d2b" y="1264.318125"/>
      </g>
     </g>
     <g id="text_21">
      <!-- 600 -->
      <g transform="translate(853.28277 1278.916563)scale(0.1 -0.1)">
       <use xlink:href="#DejaVuSans-36"/>
       <use x="63.623047" xlink:href="#DejaVuSans-30"/>
       <use x="127.246094" xlink:href="#DejaVuSans-30"/>
      </g>
     </g>
    </g>
    <g id="xtick_12">
     <g id="line2d_20">
      <g>
       <use style="stroke:#000000;stroke-width:0.8;" x="1110.477973" xlink:href="#mc11f403d2b" y="1264.318125"/>
      </g>
     </g>
     <g id="text_22">
      <!-- 800 -->
      <g transform="translate(1100.934223 1278.916563)scale(0.1 -0.1)">
       <use xlink:href="#DejaVuSans-38"/>
       <use x="63.623047" xlink:href="#DejaVuSans-30"/>
       <use x="127.246094" xlink:href="#DejaVuSans-30"/>
      </g>
     </g>
    </g>
    <g id="xtick_13">
     <g id="line2d_21">
      <g>
       <use style="stroke:#000000;stroke-width:0.8;" x="1358.129427" xlink:href="#mc11f403d2b" y="1264.318125"/>
      </g>
     </g>
     <g id="text_23">
      <!-- 1000 -->
      <g transform="translate(1345.404427 1278.916563)scale(0.1 -0.1)">
       <use xlink:href="#DejaVuSans-31"/>
       <use x="63.623047" xlink:href="#DejaVuSans-30"/>
       <use x="127.246094" xlink:href="#DejaVuSans-30"/>
       <use x="190.869141" xlink:href="#DejaVuSans-30"/>
      </g>
     </g>
    </g>
    <g id="xtick_14">
     <g id="line2d_22">
      <g>
       <use style="stroke:#000000;stroke-width:0.8;" x="1605.78088" xlink:href="#mc11f403d2b" y="1264.318125"/>
      </g>
     </g>
     <g id="text_24">
      <!-- 1200 -->
      <g transform="translate(1593.05588 1278.916563)scale(0.1 -0.1)">
       <use xlink:href="#DejaVuSans-31"/>
       <use x="63.623047" xlink:href="#DejaVuSans-32"/>
       <use x="127.246094" xlink:href="#DejaVuSans-30"/>
       <use x="190.869141" xlink:href="#DejaVuSans-30"/>
      </g>
     </g>
    </g>
    <g id="text_25">
     <!-- frame -->
     <g transform="translate(865.954687 1292.594688)scale(0.1 -0.1)">
      <use xlink:href="#DejaVuSans-66"/>
      <use x="35.205078" xlink:href="#DejaVuSans-72"/>
      <use x="76.318359" xlink:href="#DejaVuSans-61"/>
      <use x="137.597656" xlink:href="#DejaVuSans-6d"/>
      <use x="235.009766" xlink:href="#DejaVuSans-65"/>
     </g>
    </g>
   </g>
   <g id="matplotlib.axis_4">
    <g id="ytick_8">
     <g id="line2d_23">
      <g>
       <use style="stroke:#000000;stroke-width:0.8;" x="43.78125" xlink:href="#m7e194a624f" y="1238.656968"/>
      </g>
     </g>
     <g id="text_26">
      <!-- 0.0 -->
      <g transform="translate(20.878125 1242.456187)scale(0.1 -0.1)">
       <use xlink:href="#DejaVuSans-30"/>
       <use x="63.623047" xlink:href="#DejaVuSans-2e"/>
       <use x="95.410156" xlink:href="#DejaVuSans-30"/>
      </g>
     </g>
    </g>
    <g id="ytick_9">
     <g id="line2d_24">
      <g>
       <use style="stroke:#000000;stroke-width:0.8;" x="43.78125" xlink:href="#m7e194a624f" y="1136.01234"/>
      </g>
     </g>
     <g id="text_27">
      <!-- 0.2 -->
      <g transform="translate(20.878125 1139.811559)scale(0.1 -0.1)">
       <use xlink:href="#DejaVuSans-30"/>
       <use x="63.623047" xlink:href="#DejaVuSans-2e"/>
       <use x="95.410156" xlink:href="#DejaVuSans-32"/>
      </g>
     </g>
    </g>
    <g id="ytick_10">
     <g id="line2d_25">
      <g>
       <use style="stroke:#000000;stroke-width:0.8;" x="43.78125" xlink:href="#m7e194a624f" y="1033.367712"/>
      </g>
     </g>
     <g id="text_28">
      <!-- 0.4 -->
      <g transform="translate(20.878125 1037.166931)scale(0.1 -0.1)">
       <use xlink:href="#DejaVuSans-30"/>
       <use x="63.623047" xlink:href="#DejaVuSans-2e"/>
       <use x="95.410156" xlink:href="#DejaVuSans-34"/>
      </g>
     </g>
    </g>
    <g id="ytick_11">
     <g id="line2d_26">
      <g>
       <use style="stroke:#000000;stroke-width:0.8;" x="43.78125" xlink:href="#m7e194a624f" y="930.723084"/>
      </g>
     </g>
     <g id="text_29">
      <!-- 0.6 -->
      <g transform="translate(20.878125 934.522302)scale(0.1 -0.1)">
       <use xlink:href="#DejaVuSans-30"/>
       <use x="63.623047" xlink:href="#DejaVuSans-2e"/>
       <use x="95.410156" xlink:href="#DejaVuSans-36"/>
      </g>
     </g>
    </g>
    <g id="ytick_12">
     <g id="line2d_27">
      <g>
       <use style="stroke:#000000;stroke-width:0.8;" x="43.78125" xlink:href="#m7e194a624f" y="828.078456"/>
      </g>
     </g>
     <g id="text_30">
      <!-- 0.8 -->
      <g transform="translate(20.878125 831.877674)scale(0.1 -0.1)">
       <use xlink:href="#DejaVuSans-30"/>
       <use x="63.623047" xlink:href="#DejaVuSans-2e"/>
       <use x="95.410156" xlink:href="#DejaVuSans-38"/>
      </g>
     </g>
    </g>
    <g id="ytick_13">
     <g id="line2d_28">
      <g>
       <use style="stroke:#000000;stroke-width:0.8;" x="43.78125" xlink:href="#m7e194a624f" y="725.433827"/>
      </g>
     </g>
     <g id="text_31">
      <!-- 1.0 -->
      <g transform="translate(20.878125 729.233046)scale(0.1 -0.1)">
       <use xlink:href="#DejaVuSans-31"/>
       <use x="63.623047" xlink:href="#DejaVuSans-2e"/>
       <use x="95.410156" xlink:href="#DejaVuSans-30"/>
      </g>
     </g>
    </g>
    <g id="text_32">
     <!-- GCaMP -->
     <g transform="translate(14.798437 999.803991)rotate(-90)scale(0.1 -0.1)">
      <use xlink:href="#DejaVuSans-47"/>
      <use x="77.490234" xlink:href="#DejaVuSans-43"/>
      <use x="147.314453" xlink:href="#DejaVuSans-61"/>
      <use x="208.59375" xlink:href="#DejaVuSans-4d"/>
      <use x="294.873047" xlink:href="#DejaVuSans-50"/>
     </g>
    </g>
   </g>
   <g id="line2d_29">
    <path clip-path="url(#p1fbebec2ab)" d="M 119.872159 1238.656968 
L 228.838799 1238.656968 
L 230.077056 725.433827 
L 238.744857 725.433827 
L 239.983114 1238.656968 
L 242.459629 1238.656968 
L 243.697886 725.433827 
L 249.889172 725.433827 
L 251.127429 1238.656968 
L 262.271745 1238.656968 
L 263.510002 725.433827 
L 394.765272 725.433827 
L 396.00353 1238.656968 
L 397.241787 725.433827 
L 436.86602 725.433827 
L 438.104277 1238.656968 
L 450.48685 1238.656968 
L 451.725107 725.433827 
L 459.15465 725.433827 
L 460.392908 1238.656968 
L 465.345937 1238.656968 
L 466.584194 725.433827 
L 496.302368 725.433827 
L 497.540626 1238.656968 
L 503.731912 1238.656968 
L 504.970169 725.433827 
L 507.446684 725.433827 
L 508.684941 1238.656968 
L 512.399713 1238.656968 
L 513.63797 725.433827 
L 544.594402 725.433827 
L 545.832659 1238.656968 
L 552.023945 1238.656968 
L 553.262203 725.433827 
L 574.312576 725.433827 
L 575.550834 1238.656968 
L 578.027348 1238.656968 
L 579.265605 725.433827 
L 586.695149 725.433827 
L 587.933406 1238.656968 
L 589.171663 1238.656968 
L 590.409921 725.433827 
L 600.315979 725.433827 
L 601.554236 1238.656968 
L 602.792493 1238.656968 
L 604.030751 725.433827 
L 631.272411 725.433827 
L 632.510668 1238.656968 
L 706.806104 1238.656968 
L 708.044361 725.433827 
L 709.282618 1238.656968 
L 717.950419 1238.656968 
L 719.188677 725.433827 
L 727.856477 725.433827 
L 729.094735 1238.656968 
L 1641.690341 1238.656968 
L 1641.690341 1238.656968 
" style="fill:none;stroke:#008000;stroke-linecap:square;stroke-width:1.5;"/>
   </g>
   <g id="patch_8">
    <path d="M 43.78125 1264.318125 
L 43.78125 699.77267 
" style="fill:none;stroke:#000000;stroke-linecap:square;stroke-linejoin:miter;stroke-width:0.8;"/>
   </g>
   <g id="patch_9">
    <path d="M 1717.78125 1264.318125 
L 1717.78125 699.77267 
" style="fill:none;stroke:#000000;stroke-linecap:square;stroke-linejoin:miter;stroke-width:0.8;"/>
   </g>
   <g id="patch_10">
    <path d="M 43.78125 1264.318125 
L 1717.78125 1264.318125 
" style="fill:none;stroke:#000000;stroke-linecap:square;stroke-linejoin:miter;stroke-width:0.8;"/>
   </g>
   <g id="patch_11">
    <path d="M 43.78125 699.77267 
L 1717.78125 699.77267 
" style="fill:none;stroke:#000000;stroke-linecap:square;stroke-linejoin:miter;stroke-width:0.8;"/>
   </g>
   <g id="text_33">
    <!-- before binarisation -->
    <g transform="translate(824.1825 693.77267)scale(0.12 -0.12)">
     <use xlink:href="#DejaVuSans-62"/>
     <use x="63.476562" xlink:href="#DejaVuSans-65"/>
     <use x="125" xlink:href="#DejaVuSans-66"/>
     <use x="160.205078" xlink:href="#DejaVuSans-6f"/>
     <use x="221.386719" xlink:href="#DejaVuSans-72"/>
     <use x="260.25" xlink:href="#DejaVuSans-65"/>
     <use x="321.773438" xlink:href="#DejaVuSans-20"/>
     <use x="353.560547" xlink:href="#DejaVuSans-62"/>
     <use x="417.037109" xlink:href="#DejaVuSans-69"/>
     <use x="444.820312" xlink:href="#DejaVuSans-6e"/>
     <use x="508.199219" xlink:href="#DejaVuSans-61"/>
     <use x="569.478516" xlink:href="#DejaVuSans-72"/>
     <use x="610.591797" xlink:href="#DejaVuSans-69"/>
     <use x="638.375" xlink:href="#DejaVuSans-73"/>
     <use x="690.474609" xlink:href="#DejaVuSans-61"/>
     <use x="751.753906" xlink:href="#DejaVuSans-74"/>
     <use x="790.962891" xlink:href="#DejaVuSans-69"/>
     <use x="818.746094" xlink:href="#DejaVuSans-6f"/>
     <use x="879.927734" xlink:href="#DejaVuSans-6e"/>
    </g>
   </g>
  </g>
 </g>
 <defs>
  <clipPath id="p29079efc56">
   <rect height="564.545455" width="1674" x="43.78125" y="22.318125"/>
  </clipPath>
  <clipPath id="p1fbebec2ab">
   <rect height="564.545455" width="1674" x="43.78125" y="699.77267"/>
  </clipPath>
 </defs>
</svg>
