<?xml version="1.0" encoding="utf-8" standalone="no"?>
<!DOCTYPE svg PUBLIC "-//W3C//DTD SVG 1.1//EN"
  "http://www.w3.org/Graphics/SVG/1.1/DTD/svg11.dtd">
<svg height="1301.874375pt" version="1.1" viewBox="0 0 1724.98125 1301.874375" width="1724.98125pt" xmlns="http://www.w3.org/2000/svg" xmlns:xlink="http://www.w3.org/1999/xlink">
 <metadata>
  <rdf:RDF xmlns:cc="http://creativecommons.org/ns#" xmlns:dc="http://purl.org/dc/elements/1.1/" xmlns:rdf="http://www.w3.org/1999/02/22-rdf-syntax-ns#">
   <cc:Work>
    <dc:type rdf:resource="http://purl.org/dc/dcmitype/StillImage"/>
    <dc:date>2022-07-24T15:54:45.390632</dc:date>
    <dc:format>image/svg+xml</dc:format>
    <dc:creator>
     <cc:Agent>
      <dc:title>Matplotlib v3.4.2, https://matplotlib.org/</dc:title>
     </cc:Agent>
    </dc:creator>
   </cc:Work>
  </rdf:RDF>
 </metadata>
 <defs>
  <style type="text/css">*{stroke-linecap:butt;stroke-linejoin:round;}</style>
 </defs>
 <g id="figure_1">
  <g id="patch_1">
   <path d="M 0 1301.874375 
L 1724.98125 1301.874375 
L 1724.98125 0 
L 0 0 
z
" style="fill:#ffffff;"/>
  </g>
  <g id="axes_1">
   <g id="patch_2">
    <path d="M 43.78125 586.86358 
L 1717.78125 586.86358 
L 1717.78125 22.318125 
L 43.78125 22.318125 
z
" style="fill:#ffffff;"/>
   </g>
   <g id="matplotlib.axis_1">
    <g id="xtick_1">
     <g id="line2d_1">
      <defs>
       <path d="M 0 0 
L 0 3.5 
" id="mb124d2ec52" style="stroke:#000000;stroke-width:0.8;"/>
      </defs>
      <g>
       <use style="stroke:#000000;stroke-width:0.8;" x="119.872159" xlink:href="#mb124d2ec52" y="586.86358"/>
      </g>
     </g>
     <g id="text_1">
      <!-- 0 -->
      <g transform="translate(116.690909 601.462017)scale(0.1 -0.1)">
       <defs>
        <path d="M 2034 4250 
Q 1547 4250 1301 3770 
Q 1056 3291 1056 2328 
Q 1056 1369 1301 889 
Q 1547 409 2034 409 
Q 2525 409 2770 889 
Q 3016 1369 3016 2328 
Q 3016 3291 2770 3770 
Q 2525 4250 2034 4250 
z
M 2034 4750 
Q 2819 4750 3233 4129 
Q 3647 3509 3647 2328 
Q 3647 1150 3233 529 
Q 2819 -91 2034 -91 
Q 1250 -91 836 529 
Q 422 1150 422 2328 
Q 422 3509 836 4129 
Q 1250 4750 2034 4750 
z
" id="DejaVuSans-30" transform="scale(0.015625)"/>
       </defs>
       <use xlink:href="#DejaVuSans-30"/>
      </g>
     </g>
    </g>
    <g id="xtick_2">
     <g id="line2d_2">
      <g>
       <use style="stroke:#000000;stroke-width:0.8;" x="367.523613" xlink:href="#mb124d2ec52" y="586.86358"/>
      </g>
     </g>
     <g id="text_2">
      <!-- 200 -->
      <g transform="translate(357.979863 601.462017)scale(0.1 -0.1)">
       <defs>
        <path d="M 1228 531 
L 3431 531 
L 3431 0 
L 469 0 
L 469 531 
Q 828 903 1448 1529 
Q 2069 2156 2228 2338 
Q 2531 2678 2651 2914 
Q 2772 3150 2772 3378 
Q 2772 3750 2511 3984 
Q 2250 4219 1831 4219 
Q 1534 4219 1204 4116 
Q 875 4013 500 3803 
L 500 4441 
Q 881 4594 1212 4672 
Q 1544 4750 1819 4750 
Q 2544 4750 2975 4387 
Q 3406 4025 3406 3419 
Q 3406 3131 3298 2873 
Q 3191 2616 2906 2266 
Q 2828 2175 2409 1742 
Q 1991 1309 1228 531 
z
" id="DejaVuSans-32" transform="scale(0.015625)"/>
       </defs>
       <use xlink:href="#DejaVuSans-32"/>
       <use x="63.623047" xlink:href="#DejaVuSans-30"/>
       <use x="127.246094" xlink:href="#DejaVuSans-30"/>
      </g>
     </g>
    </g>
    <g id="xtick_3">
     <g id="line2d_3">
      <g>
       <use style="stroke:#000000;stroke-width:0.8;" x="615.175066" xlink:href="#mb124d2ec52" y="586.86358"/>
      </g>
     </g>
     <g id="text_3">
      <!-- 400 -->
      <g transform="translate(605.631316 601.462017)scale(0.1 -0.1)">
       <defs>
        <path d="M 2419 4116 
L 825 1625 
L 2419 1625 
L 2419 4116 
z
M 2253 4666 
L 3047 4666 
L 3047 1625 
L 3713 1625 
L 3713 1100 
L 3047 1100 
L 3047 0 
L 2419 0 
L 2419 1100 
L 313 1100 
L 313 1709 
L 2253 4666 
z
" id="DejaVuSans-34" transform="scale(0.015625)"/>
       </defs>
       <use xlink:href="#DejaVuSans-34"/>
       <use x="63.623047" xlink:href="#DejaVuSans-30"/>
       <use x="127.246094" xlink:href="#DejaVuSans-30"/>
      </g>
     </g>
    </g>
    <g id="xtick_4">
     <g id="line2d_4">
      <g>
       <use style="stroke:#000000;stroke-width:0.8;" x="862.82652" xlink:href="#mb124d2ec52" y="586.86358"/>
      </g>
     </g>
     <g id="text_4">
      <!-- 600 -->
      <g transform="translate(853.28277 601.462017)scale(0.1 -0.1)">
       <defs>
        <path d="M 2113 2584 
Q 1688 2584 1439 2293 
Q 1191 2003 1191 1497 
Q 1191 994 1439 701 
Q 1688 409 2113 409 
Q 2538 409 2786 701 
Q 3034 994 3034 1497 
Q 3034 2003 2786 2293 
Q 2538 2584 2113 2584 
z
M 3366 4563 
L 3366 3988 
Q 3128 4100 2886 4159 
Q 2644 4219 2406 4219 
Q 1781 4219 1451 3797 
Q 1122 3375 1075 2522 
Q 1259 2794 1537 2939 
Q 1816 3084 2150 3084 
Q 2853 3084 3261 2657 
Q 3669 2231 3669 1497 
Q 3669 778 3244 343 
Q 2819 -91 2113 -91 
Q 1303 -91 875 529 
Q 447 1150 447 2328 
Q 447 3434 972 4092 
Q 1497 4750 2381 4750 
Q 2619 4750 2861 4703 
Q 3103 4656 3366 4563 
z
" id="DejaVuSans-36" transform="scale(0.015625)"/>
       </defs>
       <use xlink:href="#DejaVuSans-36"/>
       <use x="63.623047" xlink:href="#DejaVuSans-30"/>
       <use x="127.246094" xlink:href="#DejaVuSans-30"/>
      </g>
     </g>
    </g>
    <g id="xtick_5">
     <g id="line2d_5">
      <g>
       <use style="stroke:#000000;stroke-width:0.8;" x="1110.477973" xlink:href="#mb124d2ec52" y="586.86358"/>
      </g>
     </g>
     <g id="text_5">
      <!-- 800 -->
      <g transform="translate(1100.934223 601.462017)scale(0.1 -0.1)">
       <defs>
        <path d="M 2034 2216 
Q 1584 2216 1326 1975 
Q 1069 1734 1069 1313 
Q 1069 891 1326 650 
Q 1584 409 2034 409 
Q 2484 409 2743 651 
Q 3003 894 3003 1313 
Q 3003 1734 2745 1975 
Q 2488 2216 2034 2216 
z
M 1403 2484 
Q 997 2584 770 2862 
Q 544 3141 544 3541 
Q 544 4100 942 4425 
Q 1341 4750 2034 4750 
Q 2731 4750 3128 4425 
Q 3525 4100 3525 3541 
Q 3525 3141 3298 2862 
Q 3072 2584 2669 2484 
Q 3125 2378 3379 2068 
Q 3634 1759 3634 1313 
Q 3634 634 3220 271 
Q 2806 -91 2034 -91 
Q 1263 -91 848 271 
Q 434 634 434 1313 
Q 434 1759 690 2068 
Q 947 2378 1403 2484 
z
M 1172 3481 
Q 1172 3119 1398 2916 
Q 1625 2713 2034 2713 
Q 2441 2713 2670 2916 
Q 2900 3119 2900 3481 
Q 2900 3844 2670 4047 
Q 2441 4250 2034 4250 
Q 1625 4250 1398 4047 
Q 1172 3844 1172 3481 
z
" id="DejaVuSans-38" transform="scale(0.015625)"/>
       </defs>
       <use xlink:href="#DejaVuSans-38"/>
       <use x="63.623047" xlink:href="#DejaVuSans-30"/>
       <use x="127.246094" xlink:href="#DejaVuSans-30"/>
      </g>
     </g>
    </g>
    <g id="xtick_6">
     <g id="line2d_6">
      <g>
       <use style="stroke:#000000;stroke-width:0.8;" x="1358.129427" xlink:href="#mb124d2ec52" y="586.86358"/>
      </g>
     </g>
     <g id="text_6">
      <!-- 1000 -->
      <g transform="translate(1345.404427 601.462017)scale(0.1 -0.1)">
       <defs>
        <path d="M 794 531 
L 1825 531 
L 1825 4091 
L 703 3866 
L 703 4441 
L 1819 4666 
L 2450 4666 
L 2450 531 
L 3481 531 
L 3481 0 
L 794 0 
L 794 531 
z
" id="DejaVuSans-31" transform="scale(0.015625)"/>
       </defs>
       <use xlink:href="#DejaVuSans-31"/>
       <use x="63.623047" xlink:href="#DejaVuSans-30"/>
       <use x="127.246094" xlink:href="#DejaVuSans-30"/>
       <use x="190.869141" xlink:href="#DejaVuSans-30"/>
      </g>
     </g>
    </g>
    <g id="xtick_7">
     <g id="line2d_7">
      <g>
       <use style="stroke:#000000;stroke-width:0.8;" x="1605.78088" xlink:href="#mb124d2ec52" y="586.86358"/>
      </g>
     </g>
     <g id="text_7">
      <!-- 1200 -->
      <g transform="translate(1593.05588 601.462017)scale(0.1 -0.1)">
       <use xlink:href="#DejaVuSans-31"/>
       <use x="63.623047" xlink:href="#DejaVuSans-32"/>
       <use x="127.246094" xlink:href="#DejaVuSans-30"/>
       <use x="190.869141" xlink:href="#DejaVuSans-30"/>
      </g>
     </g>
    </g>
    <g id="text_8">
     <!-- frame -->
     <g transform="translate(865.954687 615.140142)scale(0.1 -0.1)">
      <defs>
       <path d="M 2375 4863 
L 2375 4384 
L 1825 4384 
Q 1516 4384 1395 4259 
Q 1275 4134 1275 3809 
L 1275 3500 
L 2222 3500 
L 2222 3053 
L 1275 3053 
L 1275 0 
L 697 0 
L 697 3053 
L 147 3053 
L 147 3500 
L 697 3500 
L 697 3744 
Q 697 4328 969 4595 
Q 1241 4863 1831 4863 
L 2375 4863 
z
" id="DejaVuSans-66" transform="scale(0.015625)"/>
       <path d="M 2631 2963 
Q 2534 3019 2420 3045 
Q 2306 3072 2169 3072 
Q 1681 3072 1420 2755 
Q 1159 2438 1159 1844 
L 1159 0 
L 581 0 
L 581 3500 
L 1159 3500 
L 1159 2956 
Q 1341 3275 1631 3429 
Q 1922 3584 2338 3584 
Q 2397 3584 2469 3576 
Q 2541 3569 2628 3553 
L 2631 2963 
z
" id="DejaVuSans-72" transform="scale(0.015625)"/>
       <path d="M 2194 1759 
Q 1497 1759 1228 1600 
Q 959 1441 959 1056 
Q 959 750 1161 570 
Q 1363 391 1709 391 
Q 2188 391 2477 730 
Q 2766 1069 2766 1631 
L 2766 1759 
L 2194 1759 
z
M 3341 1997 
L 3341 0 
L 2766 0 
L 2766 531 
Q 2569 213 2275 61 
Q 1981 -91 1556 -91 
Q 1019 -91 701 211 
Q 384 513 384 1019 
Q 384 1609 779 1909 
Q 1175 2209 1959 2209 
L 2766 2209 
L 2766 2266 
Q 2766 2663 2505 2880 
Q 2244 3097 1772 3097 
Q 1472 3097 1187 3025 
Q 903 2953 641 2809 
L 641 3341 
Q 956 3463 1253 3523 
Q 1550 3584 1831 3584 
Q 2591 3584 2966 3190 
Q 3341 2797 3341 1997 
z
" id="DejaVuSans-61" transform="scale(0.015625)"/>
       <path d="M 3328 2828 
Q 3544 3216 3844 3400 
Q 4144 3584 4550 3584 
Q 5097 3584 5394 3201 
Q 5691 2819 5691 2113 
L 5691 0 
L 5113 0 
L 5113 2094 
Q 5113 2597 4934 2840 
Q 4756 3084 4391 3084 
Q 3944 3084 3684 2787 
Q 3425 2491 3425 1978 
L 3425 0 
L 2847 0 
L 2847 2094 
Q 2847 2600 2669 2842 
Q 2491 3084 2119 3084 
Q 1678 3084 1418 2786 
Q 1159 2488 1159 1978 
L 1159 0 
L 581 0 
L 581 3500 
L 1159 3500 
L 1159 2956 
Q 1356 3278 1631 3431 
Q 1906 3584 2284 3584 
Q 2666 3584 2933 3390 
Q 3200 3197 3328 2828 
z
" id="DejaVuSans-6d" transform="scale(0.015625)"/>
       <path d="M 3597 1894 
L 3597 1613 
L 953 1613 
Q 991 1019 1311 708 
Q 1631 397 2203 397 
Q 2534 397 2845 478 
Q 3156 559 3463 722 
L 3463 178 
Q 3153 47 2828 -22 
Q 2503 -91 2169 -91 
Q 1331 -91 842 396 
Q 353 884 353 1716 
Q 353 2575 817 3079 
Q 1281 3584 2069 3584 
Q 2775 3584 3186 3129 
Q 3597 2675 3597 1894 
z
M 3022 2063 
Q 3016 2534 2758 2815 
Q 2500 3097 2075 3097 
Q 1594 3097 1305 2825 
Q 1016 2553 972 2059 
L 3022 2063 
z
" id="DejaVuSans-65" transform="scale(0.015625)"/>
      </defs>
      <use xlink:href="#DejaVuSans-66"/>
      <use x="35.205078" xlink:href="#DejaVuSans-72"/>
      <use x="76.318359" xlink:href="#DejaVuSans-61"/>
      <use x="137.597656" xlink:href="#DejaVuSans-6d"/>
      <use x="235.009766" xlink:href="#DejaVuSans-65"/>
     </g>
    </g>
   </g>
   <g id="matplotlib.axis_2">
    <g id="ytick_1">
     <g id="line2d_8">
      <defs>
       <path d="M 0 0 
L -3.5 0 
" id="m069cfec609" style="stroke:#000000;stroke-width:0.8;"/>
      </defs>
      <g>
       <use style="stroke:#000000;stroke-width:0.8;" x="43.78125" xlink:href="#m069cfec609" y="561.202423"/>
      </g>
     </g>
     <g id="text_9">
      <!-- 0.0 -->
      <g transform="translate(20.878125 565.001641)scale(0.1 -0.1)">
       <defs>
        <path d="M 684 794 
L 1344 794 
L 1344 0 
L 684 0 
L 684 794 
z
" id="DejaVuSans-2e" transform="scale(0.015625)"/>
       </defs>
       <use xlink:href="#DejaVuSans-30"/>
       <use x="63.623047" xlink:href="#DejaVuSans-2e"/>
       <use x="95.410156" xlink:href="#DejaVuSans-30"/>
      </g>
     </g>
    </g>
    <g id="ytick_2">
     <g id="line2d_9">
      <g>
       <use style="stroke:#000000;stroke-width:0.8;" x="43.78125" xlink:href="#m069cfec609" y="457.596835"/>
      </g>
     </g>
     <g id="text_10">
      <!-- 0.5 -->
      <g transform="translate(20.878125 461.396054)scale(0.1 -0.1)">
       <defs>
        <path d="M 691 4666 
L 3169 4666 
L 3169 4134 
L 1269 4134 
L 1269 2991 
Q 1406 3038 1543 3061 
Q 1681 3084 1819 3084 
Q 2600 3084 3056 2656 
Q 3513 2228 3513 1497 
Q 3513 744 3044 326 
Q 2575 -91 1722 -91 
Q 1428 -91 1123 -41 
Q 819 9 494 109 
L 494 744 
Q 775 591 1075 516 
Q 1375 441 1709 441 
Q 2250 441 2565 725 
Q 2881 1009 2881 1497 
Q 2881 1984 2565 2268 
Q 2250 2553 1709 2553 
Q 1456 2553 1204 2497 
Q 953 2441 691 2322 
L 691 4666 
z
" id="DejaVuSans-35" transform="scale(0.015625)"/>
       </defs>
       <use xlink:href="#DejaVuSans-30"/>
       <use x="63.623047" xlink:href="#DejaVuSans-2e"/>
       <use x="95.410156" xlink:href="#DejaVuSans-35"/>
      </g>
     </g>
    </g>
    <g id="ytick_3">
     <g id="line2d_10">
      <g>
       <use style="stroke:#000000;stroke-width:0.8;" x="43.78125" xlink:href="#m069cfec609" y="353.991248"/>
      </g>
     </g>
     <g id="text_11">
      <!-- 1.0 -->
      <g transform="translate(20.878125 357.790466)scale(0.1 -0.1)">
       <use xlink:href="#DejaVuSans-31"/>
       <use x="63.623047" xlink:href="#DejaVuSans-2e"/>
       <use x="95.410156" xlink:href="#DejaVuSans-30"/>
      </g>
     </g>
    </g>
    <g id="ytick_4">
     <g id="line2d_11">
      <g>
       <use style="stroke:#000000;stroke-width:0.8;" x="43.78125" xlink:href="#m069cfec609" y="250.38566"/>
      </g>
     </g>
     <g id="text_12">
      <!-- 1.5 -->
      <g transform="translate(20.878125 254.184879)scale(0.1 -0.1)">
       <use xlink:href="#DejaVuSans-31"/>
       <use x="63.623047" xlink:href="#DejaVuSans-2e"/>
       <use x="95.410156" xlink:href="#DejaVuSans-35"/>
      </g>
     </g>
    </g>
    <g id="ytick_5">
     <g id="line2d_12">
      <g>
       <use style="stroke:#000000;stroke-width:0.8;" x="43.78125" xlink:href="#m069cfec609" y="146.780073"/>
      </g>
     </g>
     <g id="text_13">
      <!-- 2.0 -->
      <g transform="translate(20.878125 150.579292)scale(0.1 -0.1)">
       <use xlink:href="#DejaVuSans-32"/>
       <use x="63.623047" xlink:href="#DejaVuSans-2e"/>
       <use x="95.410156" xlink:href="#DejaVuSans-30"/>
      </g>
     </g>
    </g>
    <g id="ytick_6">
     <g id="line2d_13">
      <g>
       <use style="stroke:#000000;stroke-width:0.8;" x="43.78125" xlink:href="#m069cfec609" y="43.174486"/>
      </g>
     </g>
     <g id="text_14">
      <!-- 2.5 -->
      <g transform="translate(20.878125 46.973704)scale(0.1 -0.1)">
       <use xlink:href="#DejaVuSans-32"/>
       <use x="63.623047" xlink:href="#DejaVuSans-2e"/>
       <use x="95.410156" xlink:href="#DejaVuSans-35"/>
      </g>
     </g>
    </g>
    <g id="text_15">
     <!-- GCaMP -->
     <g transform="translate(14.798437 322.349446)rotate(-90)scale(0.1 -0.1)">
      <defs>
       <path d="M 3809 666 
L 3809 1919 
L 2778 1919 
L 2778 2438 
L 4434 2438 
L 4434 434 
Q 4069 175 3628 42 
Q 3188 -91 2688 -91 
Q 1594 -91 976 548 
Q 359 1188 359 2328 
Q 359 3472 976 4111 
Q 1594 4750 2688 4750 
Q 3144 4750 3555 4637 
Q 3966 4525 4313 4306 
L 4313 3634 
Q 3963 3931 3569 4081 
Q 3175 4231 2741 4231 
Q 1884 4231 1454 3753 
Q 1025 3275 1025 2328 
Q 1025 1384 1454 906 
Q 1884 428 2741 428 
Q 3075 428 3337 486 
Q 3600 544 3809 666 
z
" id="DejaVuSans-47" transform="scale(0.015625)"/>
       <path d="M 4122 4306 
L 4122 3641 
Q 3803 3938 3442 4084 
Q 3081 4231 2675 4231 
Q 1875 4231 1450 3742 
Q 1025 3253 1025 2328 
Q 1025 1406 1450 917 
Q 1875 428 2675 428 
Q 3081 428 3442 575 
Q 3803 722 4122 1019 
L 4122 359 
Q 3791 134 3420 21 
Q 3050 -91 2638 -91 
Q 1578 -91 968 557 
Q 359 1206 359 2328 
Q 359 3453 968 4101 
Q 1578 4750 2638 4750 
Q 3056 4750 3426 4639 
Q 3797 4528 4122 4306 
z
" id="DejaVuSans-43" transform="scale(0.015625)"/>
       <path d="M 628 4666 
L 1569 4666 
L 2759 1491 
L 3956 4666 
L 4897 4666 
L 4897 0 
L 4281 0 
L 4281 4097 
L 3078 897 
L 2444 897 
L 1241 4097 
L 1241 0 
L 628 0 
L 628 4666 
z
" id="DejaVuSans-4d" transform="scale(0.015625)"/>
       <path d="M 1259 4147 
L 1259 2394 
L 2053 2394 
Q 2494 2394 2734 2622 
Q 2975 2850 2975 3272 
Q 2975 3691 2734 3919 
Q 2494 4147 2053 4147 
L 1259 4147 
z
M 628 4666 
L 2053 4666 
Q 2838 4666 3239 4311 
Q 3641 3956 3641 3272 
Q 3641 2581 3239 2228 
Q 2838 1875 2053 1875 
L 1259 1875 
L 1259 0 
L 628 0 
L 628 4666 
z
" id="DejaVuSans-50" transform="scale(0.015625)"/>
      </defs>
      <use xlink:href="#DejaVuSans-47"/>
      <use x="77.490234" xlink:href="#DejaVuSans-43"/>
      <use x="147.314453" xlink:href="#DejaVuSans-61"/>
      <use x="208.59375" xlink:href="#DejaVuSans-4d"/>
      <use x="294.873047" xlink:href="#DejaVuSans-50"/>
     </g>
    </g>
   </g>
   <g id="line2d_14">
    <path clip-path="url(#p201704feba)" d="M 119.872159 459.221907 
L 122.348674 460.701623 
L 123.586931 461.137555 
L 124.825188 461.230427 
L 126.063445 460.878175 
L 127.301703 460.082923 
L 129.778217 457.991446 
L 131.016474 457.186279 
L 132.254732 456.672351 
L 134.731246 456.092272 
L 135.969504 455.948715 
L 137.207761 456.012676 
L 138.446018 456.303396 
L 140.922533 457.101604 
L 142.16079 457.294483 
L 143.399047 457.069197 
L 144.637304 456.044948 
L 145.875562 453.815843 
L 147.113819 450.271847 
L 149.590334 441.508465 
L 150.828591 438.006774 
L 152.066848 435.85764 
L 153.305105 435.234786 
L 154.543363 436.078141 
L 155.78162 438.107728 
L 158.258134 443.332553 
L 159.496392 445.519579 
L 160.734649 447.014533 
L 161.972906 446.973829 
L 163.211163 443.873121 
L 164.449421 435.917803 
L 165.687678 421.9007 
L 166.925935 402.550019 
L 168.164193 381.324356 
L 169.40245 362.798185 
L 170.640707 349.483391 
L 171.878964 340.427376 
L 173.117222 332.31746 
L 174.355479 321.379793 
L 175.593736 305.637004 
L 176.831993 287.078811 
L 178.070251 271.140435 
L 179.308508 262.762542 
L 180.546765 263.003771 
L 181.785022 269.207686 
L 183.02328 277.132472 
L 184.261537 282.587302 
L 185.499794 282.073276 
L 186.738052 273.284066 
L 187.976309 256.329636 
L 189.214566 234.991227 
L 190.452823 215.703473 
L 191.691081 204.18735 
L 192.929338 202.899076 
L 194.167595 210.660382 
L 197.882367 248.697646 
L 199.120624 255.022583 
L 200.358881 255.101171 
L 201.597139 248.420535 
L 202.835396 236.255154 
L 204.073653 222.374336 
L 205.311911 211.816213 
L 206.550168 207.79742 
L 207.788425 209.549758 
L 209.026682 213.172565 
L 210.26494 214.228027 
L 211.503197 209.863656 
L 212.741454 199.741471 
L 215.217969 173.196168 
L 216.456226 165.163009 
L 217.694483 163.887866 
L 218.93274 167.839729 
L 220.170998 173.092943 
L 221.409255 175.439097 
L 222.647512 172.032367 
L 223.88577 161.977965 
L 225.124027 146.555408 
L 226.362284 129.273658 
L 227.600541 114.710975 
L 228.838799 105.685161 
L 230.077056 100.990069 
L 231.315313 96.784197 
L 232.55357 90.547028 
L 233.791828 82.964154 
L 235.030085 76.591142 
L 236.268342 74.162767 
L 237.5066 77.310711 
L 238.744857 85.179502 
L 239.983114 94.563944 
L 241.221371 101.731832 
L 242.459629 103.695601 
L 243.697886 98.903961 
L 244.936143 88.457161 
L 246.1744 76.425852 
L 247.412658 68.040874 
L 248.650915 67.013415 
L 249.889172 73.699535 
L 251.127429 85.477061 
L 254.842201 126.106336 
L 256.080459 138.726924 
L 257.318716 149.36035 
L 258.556973 156.271388 
L 259.79523 158.313124 
L 261.033488 155.496185 
L 262.271745 149.161862 
L 264.748259 132.272052 
L 267.224774 115.105087 
L 268.463031 108.236402 
L 269.701288 103.702351 
L 270.939546 102.820717 
L 272.177803 106.312578 
L 273.41606 113.172697 
L 274.654318 121.044975 
L 275.892575 127.106947 
L 277.130832 128.512081 
L 278.369089 123.662973 
L 279.607347 113.716059 
L 280.845604 102.040668 
L 282.083861 92.199645 
L 283.322118 86.466501 
L 284.560376 85.689186 
L 285.798633 89.792726 
L 288.275147 105.837356 
L 289.513405 110.669041 
L 290.751662 108.694715 
L 291.989919 99.146735 
L 293.228177 84.194185 
L 294.466434 67.862824 
L 295.704691 54.628801 
L 296.942948 47.979282 
L 298.181206 48.899475 
L 299.419463 55.474617 
L 300.65772 64.178235 
L 301.895977 71.233227 
L 303.134235 73.206629 
L 304.372492 68.49249 
L 305.610749 59.317518 
L 306.849006 51.062876 
L 308.087264 48.547625 
L 309.325521 52.909633 
L 313.040293 78.663116 
L 314.27855 81.8541 
L 315.516807 80.340218 
L 316.755065 74.966395 
L 317.993322 67.972936 
L 319.231579 62.131405 
L 320.469836 59.836196 
L 321.708094 62.773 
L 322.946351 71.175548 
L 326.661123 108.473795 
L 327.89938 116.86918 
L 329.137637 120.367421 
L 330.375895 119.026968 
L 332.852409 110.800498 
L 334.090666 108.796868 
L 335.328924 109.478922 
L 336.567181 112.695169 
L 337.805438 118.164454 
L 339.043695 125.454736 
L 341.52021 141.09258 
L 342.758467 146.00627 
L 343.996725 146.881426 
L 345.234982 143.795482 
L 347.711496 133.547732 
L 348.949754 130.077045 
L 350.188011 128.743065 
L 351.426268 130.179092 
L 352.664525 135.332078 
L 353.902783 144.631432 
L 356.379297 169.419872 
L 357.617554 178.894996 
L 358.855812 183.048684 
L 360.094069 181.765227 
L 362.570584 172.592385 
L 363.808841 169.269247 
L 365.047098 167.354106 
L 366.285355 166.583898 
L 367.523613 167.252485 
L 368.76187 169.451707 
L 370.000127 171.964983 
L 371.238384 172.868952 
L 372.476642 170.9997 
L 373.714899 167.032668 
L 374.953156 163.908814 
L 376.191413 164.685117 
L 378.667928 172.81366 
L 379.906185 172.794416 
L 381.144443 168.294224 
L 382.3827 160.76656 
L 384.859214 143.532099 
L 386.097472 136.036949 
L 387.335729 130.394135 
L 388.573986 127.849852 
L 389.812243 129.322334 
L 391.050501 134.373954 
L 393.527015 147.728052 
L 394.765272 151.814071 
L 396.00353 151.731843 
L 397.241787 146.606371 
L 399.718302 128.306088 
L 400.956559 121.323578 
L 402.194816 117.110039 
L 403.433073 113.750961 
L 404.671331 109.350243 
L 408.386102 92.646919 
L 409.62436 89.820158 
L 410.862617 89.521925 
L 412.100874 90.479077 
L 413.339132 90.787792 
L 414.577389 90.724886 
L 415.815646 93.112708 
L 417.053903 100.421938 
L 418.292161 112.696969 
L 420.768675 143.382907 
L 422.006932 156.650205 
L 423.24519 165.969691 
L 424.483447 170.040875 
L 425.721704 168.006678 
L 426.959961 160.433152 
L 428.198219 150.541578 
L 429.436476 142.844455 
L 430.674733 139.910304 
L 431.912991 141.547634 
L 433.151248 146.433365 
L 434.389505 153.182456 
L 436.86602 168.576599 
L 439.342534 186.338447 
L 440.580791 195.526296 
L 441.819049 203.708052 
L 443.057306 210.140894 
L 444.295563 214.223345 
L 445.53382 215.283557 
L 446.772078 212.734688 
L 448.010335 206.705576 
L 450.48685 190.691114 
L 451.725107 184.96144 
L 452.963364 182.197371 
L 454.201621 182.313232 
L 455.439879 184.994558 
L 457.916393 193.40099 
L 459.15465 195.272881 
L 460.392908 194.276171 
L 461.631165 191.130157 
L 462.869422 187.121495 
L 464.107679 182.697499 
L 465.345937 176.904396 
L 466.584194 168.558324 
L 470.298966 136.978353 
L 471.537223 130.22038 
L 472.77548 127.730239 
L 474.013738 130.291689 
L 475.251995 136.952179 
L 477.728509 153.285114 
L 478.966767 159.445396 
L 480.205024 163.170002 
L 481.443281 163.604359 
L 482.681538 159.321879 
L 483.919796 149.423491 
L 486.39631 120.812792 
L 487.634568 111.653738 
L 488.872825 111.78044 
L 490.111082 121.146783 
L 493.825854 164.90664 
L 495.064111 173.957162 
L 496.302368 178.227884 
L 497.540626 178.342085 
L 501.255397 171.871222 
L 502.493655 169.871673 
L 504.970169 164.371782 
L 506.208427 163.038073 
L 507.446684 164.67144 
L 508.684941 169.647058 
L 509.923198 176.283091 
L 511.161456 181.73721 
L 512.399713 184.581502 
L 513.63797 186.048662 
L 514.876227 188.417869 
L 516.114485 192.733667 
L 519.829257 209.892415 
L 521.067514 212.888118 
L 522.305771 211.844681 
L 523.544028 205.692893 
L 524.782286 195.043215 
L 526.020543 182.432447 
L 527.2588 171.600456 
L 528.497057 165.769503 
L 529.735315 166.215344 
L 530.973572 172.452634 
L 532.211829 182.694926 
L 533.450086 194.215488 
L 534.688344 204.674888 
L 535.926601 212.969711 
L 537.164858 218.627926 
L 538.403116 221.26106 
L 539.641373 221.164176 
L 540.87963 220.023057 
L 542.117887 219.844943 
L 543.356145 221.288272 
L 544.594402 223.927048 
L 545.832659 227.483824 
L 548.309174 236.237654 
L 549.547431 238.569693 
L 550.785688 236.943 
L 552.023945 231.126963 
L 554.50046 214.277242 
L 555.738717 207.895398 
L 556.976975 204.99606 
L 558.215232 206.0587 
L 559.453489 210.666033 
L 561.930004 224.772746 
L 563.168261 230.21014 
L 564.406518 231.82595 
L 565.644775 228.672621 
L 566.883033 221.727636 
L 568.12129 213.832193 
L 569.359547 208.271313 
L 570.597804 206.790227 
L 571.836062 208.817853 
L 573.074319 212.313204 
L 574.312576 214.935179 
L 575.550834 215.099468 
L 576.789091 212.792287 
L 579.265605 206.043279 
L 580.503863 204.03389 
L 581.74212 203.527948 
L 582.980377 204.694176 
L 584.218634 207.908992 
L 586.695149 217.841183 
L 587.933406 220.774144 
L 589.171663 220.979516 
L 590.409921 219.485549 
L 591.648178 217.462338 
L 592.886435 214.993199 
L 594.124693 211.999324 
L 595.36295 209.406855 
L 596.601207 208.371995 
L 597.839464 208.819965 
L 599.077722 209.45341 
L 600.315979 208.891018 
L 601.554236 206.28416 
L 602.792493 201.413308 
L 604.030751 194.804865 
L 606.507265 180.214487 
L 607.745523 174.448351 
L 608.98378 171.302585 
L 610.222037 170.916733 
L 611.460294 172.242961 
L 612.698552 174.118752 
L 613.936809 176.280533 
L 615.175066 179.116041 
L 616.413323 182.256776 
L 617.651581 184.194585 
L 618.889838 183.962391 
L 620.128095 182.535435 
L 621.366352 181.890543 
L 622.60461 183.083584 
L 623.842867 185.851652 
L 625.081124 189.668432 
L 626.319382 194.277292 
L 628.795896 204.865606 
L 631.272411 216.740134 
L 633.748925 229.133358 
L 634.987182 234.645448 
L 637.463697 244.080436 
L 638.701954 247.848164 
L 639.940211 249.674446 
L 641.178469 248.565945 
L 642.416726 244.77532 
L 643.654983 239.894466 
L 644.893241 236.090106 
L 646.131498 234.798168 
L 647.369755 235.548991 
L 648.608012 235.919469 
L 649.84627 232.840202 
L 651.084527 224.74168 
L 654.799299 189.426397 
L 656.037556 182.160162 
L 657.275813 179.366663 
L 658.51407 180.825849 
L 659.752328 185.505373 
L 660.990585 192.329264 
L 662.228842 200.070027 
L 663.4671 206.951304 
L 664.705357 211.12228 
L 665.943614 211.368786 
L 667.181871 207.661022 
L 670.896643 189.582657 
L 672.1349 184.975337 
L 673.373158 182.463379 
L 674.611415 183.43014 
L 675.849672 187.605465 
L 677.087929 192.696285 
L 678.326187 196.349423 
L 679.564444 197.943001 
L 680.802701 198.540608 
L 682.040959 199.94479 
L 683.279216 203.364553 
L 684.517473 208.476573 
L 685.75573 214.368091 
L 689.470502 233.611918 
L 690.708759 236.930588 
L 691.947017 236.729019 
L 693.185274 234.211221 
L 694.423531 232.053165 
L 695.661789 232.354505 
L 696.900046 235.403972 
L 698.138303 239.884428 
L 699.37656 243.797561 
L 700.614818 245.792044 
L 701.853075 246.039382 
L 703.091332 245.81813 
L 704.329589 246.362385 
L 705.567847 247.946101 
L 706.806104 249.814989 
L 708.044361 251.056975 
L 709.282618 251.43198 
L 710.520876 251.21766 
L 712.99739 250.123664 
L 714.235648 250.009186 
L 715.473905 250.225817 
L 716.712162 249.604597 
L 717.950419 246.915274 
L 719.188677 242.234605 
L 721.665191 231.393505 
L 722.903448 226.564421 
L 724.141706 223.498405 
L 725.379963 223.878444 
L 726.61822 227.600589 
L 729.094735 237.348479 
L 731.571249 246.563969 
L 732.809507 252.07088 
L 736.524278 270.512493 
L 737.762536 275.18901 
L 739.000793 278.234876 
L 740.23905 279.799331 
L 741.477307 280.621709 
L 742.715565 281.26985 
L 743.953822 281.522477 
L 745.192079 280.87198 
L 746.430336 279.122205 
L 748.906851 274.245456 
L 750.145108 273.464745 
L 751.383366 274.540442 
L 752.621623 276.195635 
L 753.85988 276.619632 
L 755.098137 274.903144 
L 756.336395 271.817383 
L 757.574652 269.447045 
L 758.812909 269.573532 
L 760.051166 272.442566 
L 761.289424 277.198676 
L 762.527681 282.631906 
L 763.765938 287.321236 
L 765.004195 290.187727 
L 766.242453 291.425354 
L 767.48071 292.363939 
L 768.718967 294.198354 
L 769.957225 296.884634 
L 771.195482 299.10658 
L 772.433739 299.553189 
L 773.671996 298.091249 
L 774.910254 295.400186 
L 776.148511 292.380898 
L 777.386768 290.227882 
L 778.625025 290.046326 
L 779.863283 291.996956 
L 781.10154 295.042269 
L 782.339797 297.545364 
L 783.578054 298.19542 
L 784.816312 296.61924 
L 786.054569 293.291994 
L 787.292826 289.2803 
L 788.531084 286.330734 
L 789.769341 286.235586 
L 791.007598 289.425518 
L 794.72237 304.771329 
L 795.960627 308.01961 
L 797.198884 310.159816 
L 798.437142 311.402003 
L 799.675399 311.927913 
L 800.913656 311.722671 
L 802.151914 310.512305 
L 803.390171 308.167676 
L 805.866685 301.464702 
L 807.104943 298.990275 
L 808.3432 298.497255 
L 809.581457 299.983666 
L 810.819714 302.899469 
L 814.534486 314.384608 
L 815.772743 316.933186 
L 817.011001 318.054845 
L 818.249258 318.084763 
L 819.487515 318.340024 
L 820.725773 319.895445 
L 821.96403 322.34056 
L 823.202287 324.316247 
L 824.440544 324.782164 
L 825.678802 323.615159 
L 828.155316 319.095397 
L 829.393573 317.410099 
L 830.631831 316.825741 
L 831.870088 317.073503 
L 833.108345 317.198193 
L 834.346602 315.917802 
L 835.58486 312.360669 
L 839.299632 296.503899 
L 840.537889 293.536101 
L 841.776146 292.211338 
L 843.014403 292.342029 
L 844.252661 293.713963 
L 845.490918 295.974227 
L 847.967432 301.739275 
L 849.20569 304.615763 
L 850.443947 306.74902 
L 851.682204 307.434008 
L 852.920461 306.458846 
L 854.158719 304.562146 
L 855.396976 303.304309 
L 856.635233 304.10364 
L 857.873491 306.943333 
L 859.111748 310.302604 
L 860.350005 312.364221 
L 861.588262 312.0595 
L 862.82652 309.712213 
L 864.064777 306.92326 
L 865.303034 305.350601 
L 866.541291 305.870759 
L 867.779549 308.566148 
L 870.256063 316.765327 
L 871.49432 319.934696 
L 872.732578 321.717675 
L 873.970835 321.980852 
L 875.209092 320.899933 
L 876.44735 319.014926 
L 877.685607 316.824576 
L 878.923864 314.314634 
L 881.400379 308.502927 
L 882.638636 307.828938 
L 883.876893 310.341574 
L 885.11515 314.746908 
L 886.353408 318.544245 
L 887.591665 319.979351 
L 888.829922 318.401421 
L 890.06818 313.623158 
L 891.306437 305.85306 
L 893.782951 286.793093 
L 895.021209 279.804224 
L 896.259466 277.163597 
L 897.497723 279.693842 
L 898.73598 286.528042 
L 901.212495 303.429287 
L 902.450752 308.700366 
L 903.689009 310.331675 
L 904.927267 308.327275 
L 906.165524 303.053134 
L 908.642039 288.498862 
L 909.880296 284.2761 
L 911.118553 284.361418 
L 912.35681 288.162022 
L 914.833325 300.262974 
L 916.071582 306.43189 
L 917.309839 311.900486 
L 918.548097 315.391669 
L 919.786354 315.253006 
L 921.024611 310.539529 
L 922.262868 301.961071 
L 923.501126 292.020108 
L 924.739383 284.014587 
L 925.97764 280.432696 
L 927.215898 281.605206 
L 928.454155 285.757937 
L 934.645441 310.451078 
L 935.883698 315.432513 
L 937.121956 319.747542 
L 938.360213 322.564429 
L 939.59847 323.949312 
L 940.836727 325.035158 
L 942.074985 326.846836 
L 943.313242 329.616029 
L 944.551499 333.291223 
L 947.028014 341.774695 
L 948.266271 344.333269 
L 949.504528 344.53616 
L 950.742786 342.611115 
L 953.2193 336.816546 
L 954.457557 335.38764 
L 955.695815 335.836743 
L 956.934072 337.741334 
L 958.172329 339.899812 
L 959.410586 341.286389 
L 960.648844 341.810516 
L 961.887101 342.088589 
L 963.125358 342.785046 
L 964.363616 344.253593 
L 968.078387 350.583996 
L 974.269674 357.643141 
L 975.507931 358.493399 
L 976.746188 358.567218 
L 977.984446 357.837083 
L 979.222703 356.387923 
L 981.699217 352.251606 
L 982.937475 351.100582 
L 984.175732 351.346181 
L 985.413989 352.604417 
L 989.128761 356.975646 
L 990.367018 359.374831 
L 991.605275 362.206876 
L 992.843533 364.468366 
L 994.08179 365.602495 
L 996.558305 366.421059 
L 997.796562 367.734223 
L 999.034819 370.336394 
L 1000.273076 373.339101 
L 1001.511334 374.553647 
L 1002.749591 372.205569 
L 1003.987848 366.188453 
L 1005.226105 357.635981 
L 1007.70262 339.1822 
L 1008.940877 331.89016 
L 1010.179134 326.729682 
L 1011.417392 323.641369 
L 1012.655649 322.002401 
L 1013.893906 320.857919 
L 1015.132164 319.912705 
L 1016.370421 319.937511 
L 1017.608678 321.557768 
L 1018.846935 324.3924 
L 1022.561707 333.955682 
L 1023.799964 336.787981 
L 1025.038222 338.786199 
L 1026.276479 339.2127 
L 1027.514736 338.158808 
L 1028.752993 336.658232 
L 1029.991251 335.875035 
L 1031.229508 336.436565 
L 1033.706023 340.038071 
L 1034.94428 341.117189 
L 1036.182537 341.532259 
L 1037.420794 342.236803 
L 1038.659052 343.719572 
L 1039.897309 345.453998 
L 1041.135566 346.622204 
L 1042.373823 347.287705 
L 1043.612081 348.464532 
L 1044.850338 350.82803 
L 1046.088595 353.877603 
L 1047.326852 356.515134 
L 1048.56511 357.877023 
L 1049.803367 357.623787 
L 1051.041624 356.058512 
L 1052.279882 354.016951 
L 1053.518139 352.409482 
L 1054.756396 351.693486 
L 1055.994653 351.329314 
L 1057.232911 349.951555 
L 1058.471168 346.694234 
L 1062.18594 333.322502 
L 1065.900711 321.97358 
L 1068.377226 313.429697 
L 1070.853741 304.351211 
L 1072.091998 298.973057 
L 1074.568512 286.339337 
L 1075.80677 282.321603 
L 1077.045027 281.98394 
L 1078.283284 285.236749 
L 1079.521541 291.004687 
L 1081.998056 304.805009 
L 1083.236313 310.358855 
L 1084.474571 314.07592 
L 1085.712828 315.843636 
L 1086.951085 315.867746 
L 1088.189342 315.037685 
L 1089.4276 314.7919 
L 1090.665857 316.053111 
L 1091.904114 318.419935 
L 1093.142371 320.315886 
L 1094.380629 319.751014 
L 1095.618886 315.208709 
L 1096.857143 306.235402 
L 1100.571915 270.100156 
L 1101.810172 264.473713 
L 1103.04843 264.317504 
L 1104.286687 268.492266 
L 1105.524944 275.47056 
L 1108.001459 292.195486 
L 1109.239716 298.155551 
L 1110.477973 300.192745 
L 1111.71623 298.187595 
L 1112.954488 293.249332 
L 1115.431002 279.557823 
L 1116.669259 274.638534 
L 1117.907517 274.262096 
L 1119.145774 278.4518 
L 1122.860546 297.86734 
L 1124.098803 301.3581 
L 1125.33706 302.634787 
L 1127.813575 302.914487 
L 1129.051832 304.163603 
L 1131.528347 308.826615 
L 1132.766604 309.821883 
L 1134.004861 308.951961 
L 1135.243118 306.540515 
L 1136.481376 303.084885 
L 1137.719633 298.66181 
L 1138.95789 293.051438 
L 1140.196148 286.651643 
L 1141.434405 281.177138 
L 1142.672662 278.720293 
L 1143.910919 279.741342 
L 1145.149177 282.42656 
L 1146.387434 284.437768 
L 1147.625691 284.873778 
L 1150.102206 283.787612 
L 1151.340463 284.285093 
L 1152.57872 286.265573 
L 1153.816977 289.602025 
L 1155.055235 293.562945 
L 1156.293492 297.112399 
L 1157.531749 299.490037 
L 1158.770007 300.468149 
L 1161.246521 300.51541 
L 1162.484778 301.431383 
L 1163.723036 303.369916 
L 1164.961293 306.389665 
L 1166.19955 310.604814 
L 1167.437807 315.419008 
L 1168.676065 319.496806 
L 1169.914322 321.98048 
L 1172.390837 324.507182 
L 1173.629094 325.837841 
L 1174.867351 326.936739 
L 1176.105608 327.314508 
L 1177.343866 326.422991 
L 1178.582123 323.522177 
L 1179.82038 318.329149 
L 1181.058637 311.986925 
L 1182.296895 306.498666 
L 1183.535152 302.771005 
L 1184.773409 300.16338 
L 1186.011666 298.266451 
L 1187.249924 297.824267 
L 1188.488181 299.651833 
L 1189.726438 303.851046 
L 1190.964696 309.93479 
L 1193.44121 323.194068 
L 1194.679467 327.605419 
L 1195.917725 328.999491 
L 1197.155982 326.953778 
L 1198.394239 322.055462 
L 1202.109011 302.529806 
L 1203.347268 296.921588 
L 1204.585525 292.445841 
L 1205.823783 289.958525 
L 1207.06204 289.897462 
L 1208.300297 291.796545 
L 1209.538555 294.877772 
L 1210.776812 298.600318 
L 1212.015069 302.791908 
L 1214.491584 312.638123 
L 1215.729841 317.89518 
L 1216.968098 322.640185 
L 1218.206355 325.91833 
L 1219.444613 326.980733 
L 1220.68287 326.053407 
L 1221.921127 324.470441 
L 1223.159384 323.770173 
L 1224.397642 324.782769 
L 1225.635899 327.648645 
L 1228.112414 336.259205 
L 1229.350671 339.404984 
L 1230.588928 340.05274 
L 1231.827185 337.179106 
L 1233.065443 330.998888 
L 1234.3037 323.59451 
L 1235.541957 317.685954 
L 1236.780214 315.012296 
L 1238.018472 315.819567 
L 1239.256729 319.003684 
L 1240.494986 322.633226 
L 1241.733243 325.133979 
L 1242.971501 326.080862 
L 1244.209758 325.587721 
L 1245.448015 323.695512 
L 1247.92453 318.22554 
L 1249.162787 316.982092 
L 1250.401044 317.485267 
L 1251.639302 318.852094 
L 1252.877559 319.343132 
L 1254.115816 317.672669 
L 1256.592331 310.772448 
L 1257.830588 309.402395 
L 1259.068845 311.072028 
L 1260.307103 315.220251 
L 1261.54536 320.1521 
L 1262.783617 323.982074 
L 1264.021874 325.28204 
L 1265.260132 323.355111 
L 1266.498389 318.54681 
L 1268.974903 306.117528 
L 1270.213161 301.685841 
L 1271.451418 299.880561 
L 1272.689675 300.87496 
L 1273.927932 304.053953 
L 1276.404447 313.256772 
L 1277.642704 317.796456 
L 1278.880962 321.775561 
L 1280.119219 324.957233 
L 1281.357476 327.309576 
L 1282.595733 329.328674 
L 1283.833991 331.826268 
L 1285.072248 335.257069 
L 1287.548762 343.43164 
L 1288.78702 346.763133 
L 1290.025277 348.268669 
L 1291.263534 346.416162 
L 1292.501791 340.28248 
L 1293.740049 330.69064 
L 1294.978306 320.146775 
L 1296.216563 311.539781 
L 1297.454821 306.418453 
L 1298.693078 304.676936 
L 1299.931335 305.730429 
L 1301.169592 309.024366 
L 1303.646107 318.105221 
L 1304.884364 321.302277 
L 1306.122621 322.231353 
L 1307.360879 320.697589 
L 1308.599136 317.832249 
L 1309.837393 315.529584 
L 1311.07565 315.120726 
L 1312.313908 316.675138 
L 1313.552165 319.279209 
L 1314.790422 321.538103 
L 1316.02868 321.793153 
L 1317.266937 318.719 
L 1318.505194 312.512939 
L 1319.743451 305.478454 
L 1320.981709 300.883837 
L 1322.219966 300.696595 
L 1323.458223 304.281633 
L 1324.69648 309.212945 
L 1325.934738 313.386331 
L 1327.172995 316.306851 
L 1328.411252 318.332584 
L 1329.649509 319.427194 
L 1330.887767 318.844839 
L 1332.126024 315.702179 
L 1334.602539 304.667393 
L 1335.840796 301.469659 
L 1337.079053 301.824884 
L 1339.555568 307.992963 
L 1340.793825 308.90891 
L 1342.032082 305.874541 
L 1343.270339 299.099735 
L 1344.508597 290.885881 
L 1345.746854 284.678235 
L 1346.985111 283.193515 
L 1348.223368 286.929773 
L 1349.461626 294.306558 
L 1351.93814 311.177372 
L 1353.176398 317.657647 
L 1354.414655 321.751714 
L 1355.652912 323.272811 
L 1356.891169 322.445353 
L 1358.129427 319.552558 
L 1359.367684 315.044421 
L 1360.605941 310.019471 
L 1361.844198 306.239847 
L 1363.082456 305.104973 
L 1364.320713 306.732831 
L 1365.55897 310.372075 
L 1368.035485 319.24511 
L 1369.273742 322.304316 
L 1370.511999 324.057321 
L 1371.750257 325.080454 
L 1374.226771 326.817109 
L 1375.465028 327.956528 
L 1376.703286 329.457036 
L 1377.941543 330.624283 
L 1379.1798 330.140987 
L 1380.418057 327.435155 
L 1381.656315 323.585859 
L 1382.894572 320.609151 
L 1384.132829 319.963153 
L 1385.371087 321.796582 
L 1387.847601 328.792784 
L 1389.085858 331.251361 
L 1390.324116 331.878252 
L 1391.562373 331.209072 
L 1392.80063 330.903202 
L 1394.038887 332.50987 
L 1396.515402 339.251948 
L 1397.753659 340.203056 
L 1398.991916 337.347344 
L 1400.230174 330.726733 
L 1401.468431 322.189479 
L 1402.706688 314.557 
L 1403.944946 309.957314 
L 1405.183203 308.887805 
L 1406.42146 310.524865 
L 1407.659717 313.641519 
L 1410.136232 320.64186 
L 1411.374489 323.567409 
L 1412.612746 325.905863 
L 1415.089261 329.593832 
L 1416.327518 330.943878 
L 1417.565775 331.427164 
L 1420.04229 330.756547 
L 1421.280547 330.894089 
L 1422.518805 331.728145 
L 1423.757062 332.964451 
L 1424.995319 333.864648 
L 1426.233576 333.662475 
L 1427.471834 331.930873 
L 1428.710091 328.47308 
L 1429.948348 323.164506 
L 1431.186605 316.077198 
L 1433.66312 299.22544 
L 1434.901377 292.364844 
L 1436.139634 288.84679 
L 1437.377892 289.417078 
L 1438.616149 293.344056 
L 1439.854406 299.069095 
L 1442.330921 311.321535 
L 1443.569178 316.071296 
L 1444.807435 318.778623 
L 1446.045693 319.328146 
L 1447.28395 318.492942 
L 1448.522207 317.186651 
L 1449.760464 315.273259 
L 1450.998722 311.364398 
L 1452.236979 303.833637 
L 1453.475236 291.854552 
L 1457.190008 245.366385 
L 1458.428265 238.276606 
L 1459.666523 238.957766 
L 1460.90478 245.499884 
L 1467.096066 291.29284 
L 1468.334323 297.698707 
L 1469.572581 301.090572 
L 1470.810838 300.295261 
L 1472.049095 294.788039 
L 1473.287353 285.332153 
L 1474.52561 274.162349 
L 1475.763867 264.292489 
L 1477.002124 258.147746 
L 1478.240382 256.718896 
L 1479.478639 259.481888 
L 1481.955153 269.114131 
L 1483.193411 270.447815 
L 1484.431668 266.242785 
L 1485.669925 255.824619 
L 1488.14644 227.552167 
L 1489.384697 219.454922 
L 1490.622954 219.362182 
L 1491.861212 225.86829 
L 1494.337726 245.076542 
L 1495.575983 252.164706 
L 1496.814241 255.872507 
L 1498.052498 256.166554 
L 1499.290755 253.164386 
L 1500.529012 247.925378 
L 1501.76727 243.208961 
L 1503.005527 241.944878 
L 1504.243784 245.346673 
L 1505.482041 252.52957 
L 1506.720299 261.095861 
L 1507.958556 268.364839 
L 1509.196813 272.841966 
L 1510.435071 274.737135 
L 1512.911585 275.80761 
L 1514.149842 277.061065 
L 1515.3881 279.233016 
L 1517.864614 284.748371 
L 1519.102871 287.031115 
L 1520.341129 289.028294 
L 1521.579386 291.48058 
L 1522.817643 294.848576 
L 1524.0559 298.602717 
L 1525.294158 301.371459 
L 1526.532415 301.907495 
L 1527.770672 300.323546 
L 1529.00893 298.207587 
L 1530.247187 297.310571 
L 1531.485444 298.472274 
L 1532.723701 301.524402 
L 1535.200216 309.239926 
L 1536.438473 311.844613 
L 1537.67673 313.359816 
L 1538.914988 314.386005 
L 1540.153245 315.589552 
L 1542.62976 318.671484 
L 1543.868017 319.398281 
L 1545.106274 318.319655 
L 1546.344531 314.415674 
L 1547.582789 307.736672 
L 1548.821046 300.033575 
L 1550.059303 293.698857 
L 1551.29756 290.172581 
L 1552.535818 289.627839 
L 1553.774075 291.603293 
L 1555.012332 295.42384 
L 1557.488847 305.138669 
L 1558.727104 308.575667 
L 1559.965361 309.129788 
L 1561.203619 306.208553 
L 1562.441876 300.608638 
L 1563.680133 294.172266 
L 1564.91839 288.864124 
L 1566.156648 285.892129 
L 1567.394905 285.572705 
L 1568.633162 287.677105 
L 1569.871419 291.68005 
L 1572.347934 301.903503 
L 1573.586191 306.211791 
L 1574.824448 309.282638 
L 1576.062706 310.78773 
L 1577.300963 310.471456 
L 1578.53922 308.679314 
L 1579.777478 306.467553 
L 1581.015735 305.067042 
L 1582.253992 305.33316 
L 1583.492249 307.498892 
L 1585.968764 314.863355 
L 1587.207021 317.540997 
L 1588.445278 318.306193 
L 1589.683536 317.417006 
L 1592.16005 314.421879 
L 1593.398307 313.025862 
L 1594.636565 311.204932 
L 1595.874822 308.60169 
L 1597.113079 305.409481 
L 1598.351337 302.716711 
L 1599.589594 302.062848 
L 1600.827851 304.187688 
L 1602.066108 308.493408 
L 1603.304366 313.656255 
L 1604.542623 318.232711 
L 1605.78088 320.978365 
L 1607.019137 321.256681 
L 1608.257395 319.252546 
L 1610.733909 312.32857 
L 1611.972166 310.044708 
L 1613.210424 309.955248 
L 1614.448681 312.465157 
L 1615.686938 561.202423 
L 1616.925196 322.723674 
L 1618.163453 327.805895 
L 1619.40171 331.848078 
L 1620.639967 334.883514 
L 1621.878225 336.557571 
L 1623.116482 336.129906 
L 1624.354739 333.405461 
L 1626.831254 325.066838 
L 1628.069511 322.495321 
L 1629.307768 321.80381 
L 1630.546026 321.836886 
L 1631.784283 320.963103 
L 1633.02254 318.565946 
L 1634.260797 315.640981 
L 1635.499055 314.289826 
L 1636.737312 316.559362 
L 1637.975569 322.881844 
L 1640.452084 341.318466 
L 1641.690341 350.940918 
L 1641.690341 350.940918 
" style="fill:none;stroke:#008000;stroke-linecap:square;stroke-width:1.5;"/>
   </g>
   <g id="patch_3">
    <path d="M 43.78125 586.86358 
L 43.78125 22.318125 
" style="fill:none;stroke:#000000;stroke-linecap:square;stroke-linejoin:miter;stroke-width:0.8;"/>
   </g>
   <g id="patch_4">
    <path d="M 1717.78125 586.86358 
L 1717.78125 22.318125 
" style="fill:none;stroke:#000000;stroke-linecap:square;stroke-linejoin:miter;stroke-width:0.8;"/>
   </g>
   <g id="patch_5">
    <path d="M 43.78125 586.86358 
L 1717.78125 586.86358 
" style="fill:none;stroke:#000000;stroke-linecap:square;stroke-linejoin:miter;stroke-width:0.8;"/>
   </g>
   <g id="patch_6">
    <path d="M 43.78125 22.318125 
L 1717.78125 22.318125 
" style="fill:none;stroke:#000000;stroke-linecap:square;stroke-linejoin:miter;stroke-width:0.8;"/>
   </g>
   <g id="text_16">
    <!-- before binarisation -->
    <g transform="translate(824.1825 16.318125)scale(0.12 -0.12)">
     <defs>
      <path d="M 3116 1747 
Q 3116 2381 2855 2742 
Q 2594 3103 2138 3103 
Q 1681 3103 1420 2742 
Q 1159 2381 1159 1747 
Q 1159 1113 1420 752 
Q 1681 391 2138 391 
Q 2594 391 2855 752 
Q 3116 1113 3116 1747 
z
M 1159 2969 
Q 1341 3281 1617 3432 
Q 1894 3584 2278 3584 
Q 2916 3584 3314 3078 
Q 3713 2572 3713 1747 
Q 3713 922 3314 415 
Q 2916 -91 2278 -91 
Q 1894 -91 1617 61 
Q 1341 213 1159 525 
L 1159 0 
L 581 0 
L 581 4863 
L 1159 4863 
L 1159 2969 
z
" id="DejaVuSans-62" transform="scale(0.015625)"/>
      <path d="M 1959 3097 
Q 1497 3097 1228 2736 
Q 959 2375 959 1747 
Q 959 1119 1226 758 
Q 1494 397 1959 397 
Q 2419 397 2687 759 
Q 2956 1122 2956 1747 
Q 2956 2369 2687 2733 
Q 2419 3097 1959 3097 
z
M 1959 3584 
Q 2709 3584 3137 3096 
Q 3566 2609 3566 1747 
Q 3566 888 3137 398 
Q 2709 -91 1959 -91 
Q 1206 -91 779 398 
Q 353 888 353 1747 
Q 353 2609 779 3096 
Q 1206 3584 1959 3584 
z
" id="DejaVuSans-6f" transform="scale(0.015625)"/>
      <path id="DejaVuSans-20" transform="scale(0.015625)"/>
      <path d="M 603 3500 
L 1178 3500 
L 1178 0 
L 603 0 
L 603 3500 
z
M 603 4863 
L 1178 4863 
L 1178 4134 
L 603 4134 
L 603 4863 
z
" id="DejaVuSans-69" transform="scale(0.015625)"/>
      <path d="M 3513 2113 
L 3513 0 
L 2938 0 
L 2938 2094 
Q 2938 2591 2744 2837 
Q 2550 3084 2163 3084 
Q 1697 3084 1428 2787 
Q 1159 2491 1159 1978 
L 1159 0 
L 581 0 
L 581 3500 
L 1159 3500 
L 1159 2956 
Q 1366 3272 1645 3428 
Q 1925 3584 2291 3584 
Q 2894 3584 3203 3211 
Q 3513 2838 3513 2113 
z
" id="DejaVuSans-6e" transform="scale(0.015625)"/>
      <path d="M 2834 3397 
L 2834 2853 
Q 2591 2978 2328 3040 
Q 2066 3103 1784 3103 
Q 1356 3103 1142 2972 
Q 928 2841 928 2578 
Q 928 2378 1081 2264 
Q 1234 2150 1697 2047 
L 1894 2003 
Q 2506 1872 2764 1633 
Q 3022 1394 3022 966 
Q 3022 478 2636 193 
Q 2250 -91 1575 -91 
Q 1294 -91 989 -36 
Q 684 19 347 128 
L 347 722 
Q 666 556 975 473 
Q 1284 391 1588 391 
Q 1994 391 2212 530 
Q 2431 669 2431 922 
Q 2431 1156 2273 1281 
Q 2116 1406 1581 1522 
L 1381 1569 
Q 847 1681 609 1914 
Q 372 2147 372 2553 
Q 372 3047 722 3315 
Q 1072 3584 1716 3584 
Q 2034 3584 2315 3537 
Q 2597 3491 2834 3397 
z
" id="DejaVuSans-73" transform="scale(0.015625)"/>
      <path d="M 1172 4494 
L 1172 3500 
L 2356 3500 
L 2356 3053 
L 1172 3053 
L 1172 1153 
Q 1172 725 1289 603 
Q 1406 481 1766 481 
L 2356 481 
L 2356 0 
L 1766 0 
Q 1100 0 847 248 
Q 594 497 594 1153 
L 594 3053 
L 172 3053 
L 172 3500 
L 594 3500 
L 594 4494 
L 1172 4494 
z
" id="DejaVuSans-74" transform="scale(0.015625)"/>
     </defs>
     <use xlink:href="#DejaVuSans-62"/>
     <use x="63.476562" xlink:href="#DejaVuSans-65"/>
     <use x="125" xlink:href="#DejaVuSans-66"/>
     <use x="160.205078" xlink:href="#DejaVuSans-6f"/>
     <use x="221.386719" xlink:href="#DejaVuSans-72"/>
     <use x="260.25" xlink:href="#DejaVuSans-65"/>
     <use x="321.773438" xlink:href="#DejaVuSans-20"/>
     <use x="353.560547" xlink:href="#DejaVuSans-62"/>
     <use x="417.037109" xlink:href="#DejaVuSans-69"/>
     <use x="444.820312" xlink:href="#DejaVuSans-6e"/>
     <use x="508.199219" xlink:href="#DejaVuSans-61"/>
     <use x="569.478516" xlink:href="#DejaVuSans-72"/>
     <use x="610.591797" xlink:href="#DejaVuSans-69"/>
     <use x="638.375" xlink:href="#DejaVuSans-73"/>
     <use x="690.474609" xlink:href="#DejaVuSans-61"/>
     <use x="751.753906" xlink:href="#DejaVuSans-74"/>
     <use x="790.962891" xlink:href="#DejaVuSans-69"/>
     <use x="818.746094" xlink:href="#DejaVuSans-6f"/>
     <use x="879.927734" xlink:href="#DejaVuSans-6e"/>
    </g>
   </g>
  </g>
  <g id="axes_2">
   <g id="patch_7">
    <path d="M 43.78125 1264.318125 
L 1717.78125 1264.318125 
L 1717.78125 699.77267 
L 43.78125 699.77267 
z
" style="fill:#ffffff;"/>
   </g>
   <g id="matplotlib.axis_3">
    <g id="xtick_8">
     <g id="line2d_15">
      <g>
       <use style="stroke:#000000;stroke-width:0.8;" x="119.872159" xlink:href="#mb124d2ec52" y="1264.318125"/>
      </g>
     </g>
     <g id="text_17">
      <!-- 0 -->
      <g transform="translate(116.690909 1278.916563)scale(0.1 -0.1)">
       <use xlink:href="#DejaVuSans-30"/>
      </g>
     </g>
    </g>
    <g id="xtick_9">
     <g id="line2d_16">
      <g>
       <use style="stroke:#000000;stroke-width:0.8;" x="367.523613" xlink:href="#mb124d2ec52" y="1264.318125"/>
      </g>
     </g>
     <g id="text_18">
      <!-- 200 -->
      <g transform="translate(357.979863 1278.916563)scale(0.1 -0.1)">
       <use xlink:href="#DejaVuSans-32"/>
       <use x="63.623047" xlink:href="#DejaVuSans-30"/>
       <use x="127.246094" xlink:href="#DejaVuSans-30"/>
      </g>
     </g>
    </g>
    <g id="xtick_10">
     <g id="line2d_17">
      <g>
       <use style="stroke:#000000;stroke-width:0.8;" x="615.175066" xlink:href="#mb124d2ec52" y="1264.318125"/>
      </g>
     </g>
     <g id="text_19">
      <!-- 400 -->
      <g transform="translate(605.631316 1278.916563)scale(0.1 -0.1)">
       <use xlink:href="#DejaVuSans-34"/>
       <use x="63.623047" xlink:href="#DejaVuSans-30"/>
       <use x="127.246094" xlink:href="#DejaVuSans-30"/>
      </g>
     </g>
    </g>
    <g id="xtick_11">
     <g id="line2d_18">
      <g>
       <use style="stroke:#000000;stroke-width:0.8;" x="862.82652" xlink:href="#mb124d2ec52" y="1264.318125"/>
      </g>
     </g>
     <g id="text_20">
      <!-- 600 -->
      <g transform="translate(853.28277 1278.916563)scale(0.1 -0.1)">
       <use xlink:href="#DejaVuSans-36"/>
       <use x="63.623047" xlink:href="#DejaVuSans-30"/>
       <use x="127.246094" xlink:href="#DejaVuSans-30"/>
      </g>
     </g>
    </g>
    <g id="xtick_12">
     <g id="line2d_19">
      <g>
       <use style="stroke:#000000;stroke-width:0.8;" x="1110.477973" xlink:href="#mb124d2ec52" y="1264.318125"/>
      </g>
     </g>
     <g id="text_21">
      <!-- 800 -->
      <g transform="translate(1100.934223 1278.916563)scale(0.1 -0.1)">
       <use xlink:href="#DejaVuSans-38"/>
       <use x="63.623047" xlink:href="#DejaVuSans-30"/>
       <use x="127.246094" xlink:href="#DejaVuSans-30"/>
      </g>
     </g>
    </g>
    <g id="xtick_13">
     <g id="line2d_20">
      <g>
       <use style="stroke:#000000;stroke-width:0.8;" x="1358.129427" xlink:href="#mb124d2ec52" y="1264.318125"/>
      </g>
     </g>
     <g id="text_22">
      <!-- 1000 -->
      <g transform="translate(1345.404427 1278.916563)scale(0.1 -0.1)">
       <use xlink:href="#DejaVuSans-31"/>
       <use x="63.623047" xlink:href="#DejaVuSans-30"/>
       <use x="127.246094" xlink:href="#DejaVuSans-30"/>
       <use x="190.869141" xlink:href="#DejaVuSans-30"/>
      </g>
     </g>
    </g>
    <g id="xtick_14">
     <g id="line2d_21">
      <g>
       <use style="stroke:#000000;stroke-width:0.8;" x="1605.78088" xlink:href="#mb124d2ec52" y="1264.318125"/>
      </g>
     </g>
     <g id="text_23">
      <!-- 1200 -->
      <g transform="translate(1593.05588 1278.916563)scale(0.1 -0.1)">
       <use xlink:href="#DejaVuSans-31"/>
       <use x="63.623047" xlink:href="#DejaVuSans-32"/>
       <use x="127.246094" xlink:href="#DejaVuSans-30"/>
       <use x="190.869141" xlink:href="#DejaVuSans-30"/>
      </g>
     </g>
    </g>
    <g id="text_24">
     <!-- frame -->
     <g transform="translate(865.954687 1292.594688)scale(0.1 -0.1)">
      <use xlink:href="#DejaVuSans-66"/>
      <use x="35.205078" xlink:href="#DejaVuSans-72"/>
      <use x="76.318359" xlink:href="#DejaVuSans-61"/>
      <use x="137.597656" xlink:href="#DejaVuSans-6d"/>
      <use x="235.009766" xlink:href="#DejaVuSans-65"/>
     </g>
    </g>
   </g>
   <g id="matplotlib.axis_4">
    <g id="ytick_7">
     <g id="line2d_22">
      <g>
       <use style="stroke:#000000;stroke-width:0.8;" x="43.78125" xlink:href="#m069cfec609" y="1238.656968"/>
      </g>
     </g>
     <g id="text_25">
      <!-- 0.0 -->
      <g transform="translate(20.878125 1242.456187)scale(0.1 -0.1)">
       <use xlink:href="#DejaVuSans-30"/>
       <use x="63.623047" xlink:href="#DejaVuSans-2e"/>
       <use x="95.410156" xlink:href="#DejaVuSans-30"/>
      </g>
     </g>
    </g>
    <g id="ytick_8">
     <g id="line2d_23">
      <g>
       <use style="stroke:#000000;stroke-width:0.8;" x="43.78125" xlink:href="#m069cfec609" y="1136.01234"/>
      </g>
     </g>
     <g id="text_26">
      <!-- 0.2 -->
      <g transform="translate(20.878125 1139.811559)scale(0.1 -0.1)">
       <use xlink:href="#DejaVuSans-30"/>
       <use x="63.623047" xlink:href="#DejaVuSans-2e"/>
       <use x="95.410156" xlink:href="#DejaVuSans-32"/>
      </g>
     </g>
    </g>
    <g id="ytick_9">
     <g id="line2d_24">
      <g>
       <use style="stroke:#000000;stroke-width:0.8;" x="43.78125" xlink:href="#m069cfec609" y="1033.367712"/>
      </g>
     </g>
     <g id="text_27">
      <!-- 0.4 -->
      <g transform="translate(20.878125 1037.166931)scale(0.1 -0.1)">
       <use xlink:href="#DejaVuSans-30"/>
       <use x="63.623047" xlink:href="#DejaVuSans-2e"/>
       <use x="95.410156" xlink:href="#DejaVuSans-34"/>
      </g>
     </g>
    </g>
    <g id="ytick_10">
     <g id="line2d_25">
      <g>
       <use style="stroke:#000000;stroke-width:0.8;" x="43.78125" xlink:href="#m069cfec609" y="930.723084"/>
      </g>
     </g>
     <g id="text_28">
      <!-- 0.6 -->
      <g transform="translate(20.878125 934.522302)scale(0.1 -0.1)">
       <use xlink:href="#DejaVuSans-30"/>
       <use x="63.623047" xlink:href="#DejaVuSans-2e"/>
       <use x="95.410156" xlink:href="#DejaVuSans-36"/>
      </g>
     </g>
    </g>
    <g id="ytick_11">
     <g id="line2d_26">
      <g>
       <use style="stroke:#000000;stroke-width:0.8;" x="43.78125" xlink:href="#m069cfec609" y="828.078456"/>
      </g>
     </g>
     <g id="text_29">
      <!-- 0.8 -->
      <g transform="translate(20.878125 831.877674)scale(0.1 -0.1)">
       <use xlink:href="#DejaVuSans-30"/>
       <use x="63.623047" xlink:href="#DejaVuSans-2e"/>
       <use x="95.410156" xlink:href="#DejaVuSans-38"/>
      </g>
     </g>
    </g>
    <g id="ytick_12">
     <g id="line2d_27">
      <g>
       <use style="stroke:#000000;stroke-width:0.8;" x="43.78125" xlink:href="#m069cfec609" y="725.433827"/>
      </g>
     </g>
     <g id="text_30">
      <!-- 1.0 -->
      <g transform="translate(20.878125 729.233046)scale(0.1 -0.1)">
       <use xlink:href="#DejaVuSans-31"/>
       <use x="63.623047" xlink:href="#DejaVuSans-2e"/>
       <use x="95.410156" xlink:href="#DejaVuSans-30"/>
      </g>
     </g>
    </g>
    <g id="text_31">
     <!-- GCaMP -->
     <g transform="translate(14.798437 999.803991)rotate(-90)scale(0.1 -0.1)">
      <use xlink:href="#DejaVuSans-47"/>
      <use x="77.490234" xlink:href="#DejaVuSans-43"/>
      <use x="147.314453" xlink:href="#DejaVuSans-61"/>
      <use x="208.59375" xlink:href="#DejaVuSans-4d"/>
      <use x="294.873047" xlink:href="#DejaVuSans-50"/>
     </g>
    </g>
   </g>
   <g id="line2d_28">
    <path clip-path="url(#p5f20fba5a1)" d="M 119.872159 1238.656968 
L 213.979711 1238.656968 
L 215.217969 725.433827 
L 357.617554 725.433827 
L 358.855812 1238.656968 
L 360.094069 1238.656968 
L 361.332326 725.433827 
L 438.104277 725.433827 
L 439.342534 1238.656968 
L 464.107679 1238.656968 
L 465.345937 725.433827 
L 509.923198 725.433827 
L 511.161456 1238.656968 
L 526.020543 1238.656968 
L 527.2588 725.433827 
L 530.973572 725.433827 
L 532.211829 1238.656968 
L 605.269008 1238.656968 
L 606.507265 725.433827 
L 615.175066 725.433827 
L 616.413323 1238.656968 
L 656.037556 1238.656968 
L 657.275813 725.433827 
L 658.51407 1238.656968 
L 1641.690341 1238.656968 
L 1641.690341 1238.656968 
" style="fill:none;stroke:#008000;stroke-linecap:square;stroke-width:1.5;"/>
   </g>
   <g id="patch_8">
    <path d="M 43.78125 1264.318125 
L 43.78125 699.77267 
" style="fill:none;stroke:#000000;stroke-linecap:square;stroke-linejoin:miter;stroke-width:0.8;"/>
   </g>
   <g id="patch_9">
    <path d="M 1717.78125 1264.318125 
L 1717.78125 699.77267 
" style="fill:none;stroke:#000000;stroke-linecap:square;stroke-linejoin:miter;stroke-width:0.8;"/>
   </g>
   <g id="patch_10">
    <path d="M 43.78125 1264.318125 
L 1717.78125 1264.318125 
" style="fill:none;stroke:#000000;stroke-linecap:square;stroke-linejoin:miter;stroke-width:0.8;"/>
   </g>
   <g id="patch_11">
    <path d="M 43.78125 699.77267 
L 1717.78125 699.77267 
" style="fill:none;stroke:#000000;stroke-linecap:square;stroke-linejoin:miter;stroke-width:0.8;"/>
   </g>
   <g id="text_32">
    <!-- before binarisation -->
    <g transform="translate(824.1825 693.77267)scale(0.12 -0.12)">
     <use xlink:href="#DejaVuSans-62"/>
     <use x="63.476562" xlink:href="#DejaVuSans-65"/>
     <use x="125" xlink:href="#DejaVuSans-66"/>
     <use x="160.205078" xlink:href="#DejaVuSans-6f"/>
     <use x="221.386719" xlink:href="#DejaVuSans-72"/>
     <use x="260.25" xlink:href="#DejaVuSans-65"/>
     <use x="321.773438" xlink:href="#DejaVuSans-20"/>
     <use x="353.560547" xlink:href="#DejaVuSans-62"/>
     <use x="417.037109" xlink:href="#DejaVuSans-69"/>
     <use x="444.820312" xlink:href="#DejaVuSans-6e"/>
     <use x="508.199219" xlink:href="#DejaVuSans-61"/>
     <use x="569.478516" xlink:href="#DejaVuSans-72"/>
     <use x="610.591797" xlink:href="#DejaVuSans-69"/>
     <use x="638.375" xlink:href="#DejaVuSans-73"/>
     <use x="690.474609" xlink:href="#DejaVuSans-61"/>
     <use x="751.753906" xlink:href="#DejaVuSans-74"/>
     <use x="790.962891" xlink:href="#DejaVuSans-69"/>
     <use x="818.746094" xlink:href="#DejaVuSans-6f"/>
     <use x="879.927734" xlink:href="#DejaVuSans-6e"/>
    </g>
   </g>
  </g>
 </g>
 <defs>
  <clipPath id="p201704feba">
   <rect height="564.545455" width="1674" x="43.78125" y="22.318125"/>
  </clipPath>
  <clipPath id="p5f20fba5a1">
   <rect height="564.545455" width="1674" x="43.78125" y="699.77267"/>
  </clipPath>
 </defs>
</svg>
