<?xml version="1.0" encoding="utf-8" standalone="no"?>
<!DOCTYPE svg PUBLIC "-//W3C//DTD SVG 1.1//EN"
  "http://www.w3.org/Graphics/SVG/1.1/DTD/svg11.dtd">
<svg height="1301.874375pt" version="1.1" viewBox="0 0 1724.98125 1301.874375" width="1724.98125pt" xmlns="http://www.w3.org/2000/svg" xmlns:xlink="http://www.w3.org/1999/xlink">
 <metadata>
  <rdf:RDF xmlns:cc="http://creativecommons.org/ns#" xmlns:dc="http://purl.org/dc/elements/1.1/" xmlns:rdf="http://www.w3.org/1999/02/22-rdf-syntax-ns#">
   <cc:Work>
    <dc:type rdf:resource="http://purl.org/dc/dcmitype/StillImage"/>
    <dc:date>2022-07-24T15:54:45.760252</dc:date>
    <dc:format>image/svg+xml</dc:format>
    <dc:creator>
     <cc:Agent>
      <dc:title>Matplotlib v3.4.2, https://matplotlib.org/</dc:title>
     </cc:Agent>
    </dc:creator>
   </cc:Work>
  </rdf:RDF>
 </metadata>
 <defs>
  <style type="text/css">*{stroke-linecap:butt;stroke-linejoin:round;}</style>
 </defs>
 <g id="figure_1">
  <g id="patch_1">
   <path d="M 0 1301.874375 
L 1724.98125 1301.874375 
L 1724.98125 0 
L 0 0 
z
" style="fill:#ffffff;"/>
  </g>
  <g id="axes_1">
   <g id="patch_2">
    <path d="M 43.78125 586.86358 
L 1717.78125 586.86358 
L 1717.78125 22.318125 
L 43.78125 22.318125 
z
" style="fill:#ffffff;"/>
   </g>
   <g id="matplotlib.axis_1">
    <g id="xtick_1">
     <g id="line2d_1">
      <defs>
       <path d="M 0 0 
L 0 3.5 
" id="mca5c4196d5" style="stroke:#000000;stroke-width:0.8;"/>
      </defs>
      <g>
       <use style="stroke:#000000;stroke-width:0.8;" x="119.872159" xlink:href="#mca5c4196d5" y="586.86358"/>
      </g>
     </g>
     <g id="text_1">
      <!-- 0 -->
      <g transform="translate(116.690909 601.462017)scale(0.1 -0.1)">
       <defs>
        <path d="M 2034 4250 
Q 1547 4250 1301 3770 
Q 1056 3291 1056 2328 
Q 1056 1369 1301 889 
Q 1547 409 2034 409 
Q 2525 409 2770 889 
Q 3016 1369 3016 2328 
Q 3016 3291 2770 3770 
Q 2525 4250 2034 4250 
z
M 2034 4750 
Q 2819 4750 3233 4129 
Q 3647 3509 3647 2328 
Q 3647 1150 3233 529 
Q 2819 -91 2034 -91 
Q 1250 -91 836 529 
Q 422 1150 422 2328 
Q 422 3509 836 4129 
Q 1250 4750 2034 4750 
z
" id="DejaVuSans-30" transform="scale(0.015625)"/>
       </defs>
       <use xlink:href="#DejaVuSans-30"/>
      </g>
     </g>
    </g>
    <g id="xtick_2">
     <g id="line2d_2">
      <g>
       <use style="stroke:#000000;stroke-width:0.8;" x="367.523613" xlink:href="#mca5c4196d5" y="586.86358"/>
      </g>
     </g>
     <g id="text_2">
      <!-- 200 -->
      <g transform="translate(357.979863 601.462017)scale(0.1 -0.1)">
       <defs>
        <path d="M 1228 531 
L 3431 531 
L 3431 0 
L 469 0 
L 469 531 
Q 828 903 1448 1529 
Q 2069 2156 2228 2338 
Q 2531 2678 2651 2914 
Q 2772 3150 2772 3378 
Q 2772 3750 2511 3984 
Q 2250 4219 1831 4219 
Q 1534 4219 1204 4116 
Q 875 4013 500 3803 
L 500 4441 
Q 881 4594 1212 4672 
Q 1544 4750 1819 4750 
Q 2544 4750 2975 4387 
Q 3406 4025 3406 3419 
Q 3406 3131 3298 2873 
Q 3191 2616 2906 2266 
Q 2828 2175 2409 1742 
Q 1991 1309 1228 531 
z
" id="DejaVuSans-32" transform="scale(0.015625)"/>
       </defs>
       <use xlink:href="#DejaVuSans-32"/>
       <use x="63.623047" xlink:href="#DejaVuSans-30"/>
       <use x="127.246094" xlink:href="#DejaVuSans-30"/>
      </g>
     </g>
    </g>
    <g id="xtick_3">
     <g id="line2d_3">
      <g>
       <use style="stroke:#000000;stroke-width:0.8;" x="615.175066" xlink:href="#mca5c4196d5" y="586.86358"/>
      </g>
     </g>
     <g id="text_3">
      <!-- 400 -->
      <g transform="translate(605.631316 601.462017)scale(0.1 -0.1)">
       <defs>
        <path d="M 2419 4116 
L 825 1625 
L 2419 1625 
L 2419 4116 
z
M 2253 4666 
L 3047 4666 
L 3047 1625 
L 3713 1625 
L 3713 1100 
L 3047 1100 
L 3047 0 
L 2419 0 
L 2419 1100 
L 313 1100 
L 313 1709 
L 2253 4666 
z
" id="DejaVuSans-34" transform="scale(0.015625)"/>
       </defs>
       <use xlink:href="#DejaVuSans-34"/>
       <use x="63.623047" xlink:href="#DejaVuSans-30"/>
       <use x="127.246094" xlink:href="#DejaVuSans-30"/>
      </g>
     </g>
    </g>
    <g id="xtick_4">
     <g id="line2d_4">
      <g>
       <use style="stroke:#000000;stroke-width:0.8;" x="862.82652" xlink:href="#mca5c4196d5" y="586.86358"/>
      </g>
     </g>
     <g id="text_4">
      <!-- 600 -->
      <g transform="translate(853.28277 601.462017)scale(0.1 -0.1)">
       <defs>
        <path d="M 2113 2584 
Q 1688 2584 1439 2293 
Q 1191 2003 1191 1497 
Q 1191 994 1439 701 
Q 1688 409 2113 409 
Q 2538 409 2786 701 
Q 3034 994 3034 1497 
Q 3034 2003 2786 2293 
Q 2538 2584 2113 2584 
z
M 3366 4563 
L 3366 3988 
Q 3128 4100 2886 4159 
Q 2644 4219 2406 4219 
Q 1781 4219 1451 3797 
Q 1122 3375 1075 2522 
Q 1259 2794 1537 2939 
Q 1816 3084 2150 3084 
Q 2853 3084 3261 2657 
Q 3669 2231 3669 1497 
Q 3669 778 3244 343 
Q 2819 -91 2113 -91 
Q 1303 -91 875 529 
Q 447 1150 447 2328 
Q 447 3434 972 4092 
Q 1497 4750 2381 4750 
Q 2619 4750 2861 4703 
Q 3103 4656 3366 4563 
z
" id="DejaVuSans-36" transform="scale(0.015625)"/>
       </defs>
       <use xlink:href="#DejaVuSans-36"/>
       <use x="63.623047" xlink:href="#DejaVuSans-30"/>
       <use x="127.246094" xlink:href="#DejaVuSans-30"/>
      </g>
     </g>
    </g>
    <g id="xtick_5">
     <g id="line2d_5">
      <g>
       <use style="stroke:#000000;stroke-width:0.8;" x="1110.477973" xlink:href="#mca5c4196d5" y="586.86358"/>
      </g>
     </g>
     <g id="text_5">
      <!-- 800 -->
      <g transform="translate(1100.934223 601.462017)scale(0.1 -0.1)">
       <defs>
        <path d="M 2034 2216 
Q 1584 2216 1326 1975 
Q 1069 1734 1069 1313 
Q 1069 891 1326 650 
Q 1584 409 2034 409 
Q 2484 409 2743 651 
Q 3003 894 3003 1313 
Q 3003 1734 2745 1975 
Q 2488 2216 2034 2216 
z
M 1403 2484 
Q 997 2584 770 2862 
Q 544 3141 544 3541 
Q 544 4100 942 4425 
Q 1341 4750 2034 4750 
Q 2731 4750 3128 4425 
Q 3525 4100 3525 3541 
Q 3525 3141 3298 2862 
Q 3072 2584 2669 2484 
Q 3125 2378 3379 2068 
Q 3634 1759 3634 1313 
Q 3634 634 3220 271 
Q 2806 -91 2034 -91 
Q 1263 -91 848 271 
Q 434 634 434 1313 
Q 434 1759 690 2068 
Q 947 2378 1403 2484 
z
M 1172 3481 
Q 1172 3119 1398 2916 
Q 1625 2713 2034 2713 
Q 2441 2713 2670 2916 
Q 2900 3119 2900 3481 
Q 2900 3844 2670 4047 
Q 2441 4250 2034 4250 
Q 1625 4250 1398 4047 
Q 1172 3844 1172 3481 
z
" id="DejaVuSans-38" transform="scale(0.015625)"/>
       </defs>
       <use xlink:href="#DejaVuSans-38"/>
       <use x="63.623047" xlink:href="#DejaVuSans-30"/>
       <use x="127.246094" xlink:href="#DejaVuSans-30"/>
      </g>
     </g>
    </g>
    <g id="xtick_6">
     <g id="line2d_6">
      <g>
       <use style="stroke:#000000;stroke-width:0.8;" x="1358.129427" xlink:href="#mca5c4196d5" y="586.86358"/>
      </g>
     </g>
     <g id="text_6">
      <!-- 1000 -->
      <g transform="translate(1345.404427 601.462017)scale(0.1 -0.1)">
       <defs>
        <path d="M 794 531 
L 1825 531 
L 1825 4091 
L 703 3866 
L 703 4441 
L 1819 4666 
L 2450 4666 
L 2450 531 
L 3481 531 
L 3481 0 
L 794 0 
L 794 531 
z
" id="DejaVuSans-31" transform="scale(0.015625)"/>
       </defs>
       <use xlink:href="#DejaVuSans-31"/>
       <use x="63.623047" xlink:href="#DejaVuSans-30"/>
       <use x="127.246094" xlink:href="#DejaVuSans-30"/>
       <use x="190.869141" xlink:href="#DejaVuSans-30"/>
      </g>
     </g>
    </g>
    <g id="xtick_7">
     <g id="line2d_7">
      <g>
       <use style="stroke:#000000;stroke-width:0.8;" x="1605.78088" xlink:href="#mca5c4196d5" y="586.86358"/>
      </g>
     </g>
     <g id="text_7">
      <!-- 1200 -->
      <g transform="translate(1593.05588 601.462017)scale(0.1 -0.1)">
       <use xlink:href="#DejaVuSans-31"/>
       <use x="63.623047" xlink:href="#DejaVuSans-32"/>
       <use x="127.246094" xlink:href="#DejaVuSans-30"/>
       <use x="190.869141" xlink:href="#DejaVuSans-30"/>
      </g>
     </g>
    </g>
    <g id="text_8">
     <!-- frame -->
     <g transform="translate(865.954687 615.140142)scale(0.1 -0.1)">
      <defs>
       <path d="M 2375 4863 
L 2375 4384 
L 1825 4384 
Q 1516 4384 1395 4259 
Q 1275 4134 1275 3809 
L 1275 3500 
L 2222 3500 
L 2222 3053 
L 1275 3053 
L 1275 0 
L 697 0 
L 697 3053 
L 147 3053 
L 147 3500 
L 697 3500 
L 697 3744 
Q 697 4328 969 4595 
Q 1241 4863 1831 4863 
L 2375 4863 
z
" id="DejaVuSans-66" transform="scale(0.015625)"/>
       <path d="M 2631 2963 
Q 2534 3019 2420 3045 
Q 2306 3072 2169 3072 
Q 1681 3072 1420 2755 
Q 1159 2438 1159 1844 
L 1159 0 
L 581 0 
L 581 3500 
L 1159 3500 
L 1159 2956 
Q 1341 3275 1631 3429 
Q 1922 3584 2338 3584 
Q 2397 3584 2469 3576 
Q 2541 3569 2628 3553 
L 2631 2963 
z
" id="DejaVuSans-72" transform="scale(0.015625)"/>
       <path d="M 2194 1759 
Q 1497 1759 1228 1600 
Q 959 1441 959 1056 
Q 959 750 1161 570 
Q 1363 391 1709 391 
Q 2188 391 2477 730 
Q 2766 1069 2766 1631 
L 2766 1759 
L 2194 1759 
z
M 3341 1997 
L 3341 0 
L 2766 0 
L 2766 531 
Q 2569 213 2275 61 
Q 1981 -91 1556 -91 
Q 1019 -91 701 211 
Q 384 513 384 1019 
Q 384 1609 779 1909 
Q 1175 2209 1959 2209 
L 2766 2209 
L 2766 2266 
Q 2766 2663 2505 2880 
Q 2244 3097 1772 3097 
Q 1472 3097 1187 3025 
Q 903 2953 641 2809 
L 641 3341 
Q 956 3463 1253 3523 
Q 1550 3584 1831 3584 
Q 2591 3584 2966 3190 
Q 3341 2797 3341 1997 
z
" id="DejaVuSans-61" transform="scale(0.015625)"/>
       <path d="M 3328 2828 
Q 3544 3216 3844 3400 
Q 4144 3584 4550 3584 
Q 5097 3584 5394 3201 
Q 5691 2819 5691 2113 
L 5691 0 
L 5113 0 
L 5113 2094 
Q 5113 2597 4934 2840 
Q 4756 3084 4391 3084 
Q 3944 3084 3684 2787 
Q 3425 2491 3425 1978 
L 3425 0 
L 2847 0 
L 2847 2094 
Q 2847 2600 2669 2842 
Q 2491 3084 2119 3084 
Q 1678 3084 1418 2786 
Q 1159 2488 1159 1978 
L 1159 0 
L 581 0 
L 581 3500 
L 1159 3500 
L 1159 2956 
Q 1356 3278 1631 3431 
Q 1906 3584 2284 3584 
Q 2666 3584 2933 3390 
Q 3200 3197 3328 2828 
z
" id="DejaVuSans-6d" transform="scale(0.015625)"/>
       <path d="M 3597 1894 
L 3597 1613 
L 953 1613 
Q 991 1019 1311 708 
Q 1631 397 2203 397 
Q 2534 397 2845 478 
Q 3156 559 3463 722 
L 3463 178 
Q 3153 47 2828 -22 
Q 2503 -91 2169 -91 
Q 1331 -91 842 396 
Q 353 884 353 1716 
Q 353 2575 817 3079 
Q 1281 3584 2069 3584 
Q 2775 3584 3186 3129 
Q 3597 2675 3597 1894 
z
M 3022 2063 
Q 3016 2534 2758 2815 
Q 2500 3097 2075 3097 
Q 1594 3097 1305 2825 
Q 1016 2553 972 2059 
L 3022 2063 
z
" id="DejaVuSans-65" transform="scale(0.015625)"/>
      </defs>
      <use xlink:href="#DejaVuSans-66"/>
      <use x="35.205078" xlink:href="#DejaVuSans-72"/>
      <use x="76.318359" xlink:href="#DejaVuSans-61"/>
      <use x="137.597656" xlink:href="#DejaVuSans-6d"/>
      <use x="235.009766" xlink:href="#DejaVuSans-65"/>
     </g>
    </g>
   </g>
   <g id="matplotlib.axis_2">
    <g id="ytick_1">
     <g id="line2d_8">
      <defs>
       <path d="M 0 0 
L -3.5 0 
" id="m68e2a04c93" style="stroke:#000000;stroke-width:0.8;"/>
      </defs>
      <g>
       <use style="stroke:#000000;stroke-width:0.8;" x="43.78125" xlink:href="#m68e2a04c93" y="561.202423"/>
      </g>
     </g>
     <g id="text_9">
      <!-- 0.0 -->
      <g transform="translate(20.878125 565.001641)scale(0.1 -0.1)">
       <defs>
        <path d="M 684 794 
L 1344 794 
L 1344 0 
L 684 0 
L 684 794 
z
" id="DejaVuSans-2e" transform="scale(0.015625)"/>
       </defs>
       <use xlink:href="#DejaVuSans-30"/>
       <use x="63.623047" xlink:href="#DejaVuSans-2e"/>
       <use x="95.410156" xlink:href="#DejaVuSans-30"/>
      </g>
     </g>
    </g>
    <g id="ytick_2">
     <g id="line2d_9">
      <g>
       <use style="stroke:#000000;stroke-width:0.8;" x="43.78125" xlink:href="#m68e2a04c93" y="487.339057"/>
      </g>
     </g>
     <g id="text_10">
      <!-- 0.5 -->
      <g transform="translate(20.878125 491.138276)scale(0.1 -0.1)">
       <defs>
        <path d="M 691 4666 
L 3169 4666 
L 3169 4134 
L 1269 4134 
L 1269 2991 
Q 1406 3038 1543 3061 
Q 1681 3084 1819 3084 
Q 2600 3084 3056 2656 
Q 3513 2228 3513 1497 
Q 3513 744 3044 326 
Q 2575 -91 1722 -91 
Q 1428 -91 1123 -41 
Q 819 9 494 109 
L 494 744 
Q 775 591 1075 516 
Q 1375 441 1709 441 
Q 2250 441 2565 725 
Q 2881 1009 2881 1497 
Q 2881 1984 2565 2268 
Q 2250 2553 1709 2553 
Q 1456 2553 1204 2497 
Q 953 2441 691 2322 
L 691 4666 
z
" id="DejaVuSans-35" transform="scale(0.015625)"/>
       </defs>
       <use xlink:href="#DejaVuSans-30"/>
       <use x="63.623047" xlink:href="#DejaVuSans-2e"/>
       <use x="95.410156" xlink:href="#DejaVuSans-35"/>
      </g>
     </g>
    </g>
    <g id="ytick_3">
     <g id="line2d_10">
      <g>
       <use style="stroke:#000000;stroke-width:0.8;" x="43.78125" xlink:href="#m68e2a04c93" y="413.475691"/>
      </g>
     </g>
     <g id="text_11">
      <!-- 1.0 -->
      <g transform="translate(20.878125 417.27491)scale(0.1 -0.1)">
       <use xlink:href="#DejaVuSans-31"/>
       <use x="63.623047" xlink:href="#DejaVuSans-2e"/>
       <use x="95.410156" xlink:href="#DejaVuSans-30"/>
      </g>
     </g>
    </g>
    <g id="ytick_4">
     <g id="line2d_11">
      <g>
       <use style="stroke:#000000;stroke-width:0.8;" x="43.78125" xlink:href="#m68e2a04c93" y="339.612325"/>
      </g>
     </g>
     <g id="text_12">
      <!-- 1.5 -->
      <g transform="translate(20.878125 343.411544)scale(0.1 -0.1)">
       <use xlink:href="#DejaVuSans-31"/>
       <use x="63.623047" xlink:href="#DejaVuSans-2e"/>
       <use x="95.410156" xlink:href="#DejaVuSans-35"/>
      </g>
     </g>
    </g>
    <g id="ytick_5">
     <g id="line2d_12">
      <g>
       <use style="stroke:#000000;stroke-width:0.8;" x="43.78125" xlink:href="#m68e2a04c93" y="265.748959"/>
      </g>
     </g>
     <g id="text_13">
      <!-- 2.0 -->
      <g transform="translate(20.878125 269.548178)scale(0.1 -0.1)">
       <use xlink:href="#DejaVuSans-32"/>
       <use x="63.623047" xlink:href="#DejaVuSans-2e"/>
       <use x="95.410156" xlink:href="#DejaVuSans-30"/>
      </g>
     </g>
    </g>
    <g id="ytick_6">
     <g id="line2d_13">
      <g>
       <use style="stroke:#000000;stroke-width:0.8;" x="43.78125" xlink:href="#m68e2a04c93" y="191.885594"/>
      </g>
     </g>
     <g id="text_14">
      <!-- 2.5 -->
      <g transform="translate(20.878125 195.684812)scale(0.1 -0.1)">
       <use xlink:href="#DejaVuSans-32"/>
       <use x="63.623047" xlink:href="#DejaVuSans-2e"/>
       <use x="95.410156" xlink:href="#DejaVuSans-35"/>
      </g>
     </g>
    </g>
    <g id="ytick_7">
     <g id="line2d_14">
      <g>
       <use style="stroke:#000000;stroke-width:0.8;" x="43.78125" xlink:href="#m68e2a04c93" y="118.022228"/>
      </g>
     </g>
     <g id="text_15">
      <!-- 3.0 -->
      <g transform="translate(20.878125 121.821447)scale(0.1 -0.1)">
       <defs>
        <path d="M 2597 2516 
Q 3050 2419 3304 2112 
Q 3559 1806 3559 1356 
Q 3559 666 3084 287 
Q 2609 -91 1734 -91 
Q 1441 -91 1130 -33 
Q 819 25 488 141 
L 488 750 
Q 750 597 1062 519 
Q 1375 441 1716 441 
Q 2309 441 2620 675 
Q 2931 909 2931 1356 
Q 2931 1769 2642 2001 
Q 2353 2234 1838 2234 
L 1294 2234 
L 1294 2753 
L 1863 2753 
Q 2328 2753 2575 2939 
Q 2822 3125 2822 3475 
Q 2822 3834 2567 4026 
Q 2313 4219 1838 4219 
Q 1578 4219 1281 4162 
Q 984 4106 628 3988 
L 628 4550 
Q 988 4650 1302 4700 
Q 1616 4750 1894 4750 
Q 2613 4750 3031 4423 
Q 3450 4097 3450 3541 
Q 3450 3153 3228 2886 
Q 3006 2619 2597 2516 
z
" id="DejaVuSans-33" transform="scale(0.015625)"/>
       </defs>
       <use xlink:href="#DejaVuSans-33"/>
       <use x="63.623047" xlink:href="#DejaVuSans-2e"/>
       <use x="95.410156" xlink:href="#DejaVuSans-30"/>
      </g>
     </g>
    </g>
    <g id="ytick_8">
     <g id="line2d_15">
      <g>
       <use style="stroke:#000000;stroke-width:0.8;" x="43.78125" xlink:href="#m68e2a04c93" y="44.158862"/>
      </g>
     </g>
     <g id="text_16">
      <!-- 3.5 -->
      <g transform="translate(20.878125 47.958081)scale(0.1 -0.1)">
       <use xlink:href="#DejaVuSans-33"/>
       <use x="63.623047" xlink:href="#DejaVuSans-2e"/>
       <use x="95.410156" xlink:href="#DejaVuSans-35"/>
      </g>
     </g>
    </g>
    <g id="text_17">
     <!-- GCaMP -->
     <g transform="translate(14.798437 322.349446)rotate(-90)scale(0.1 -0.1)">
      <defs>
       <path d="M 3809 666 
L 3809 1919 
L 2778 1919 
L 2778 2438 
L 4434 2438 
L 4434 434 
Q 4069 175 3628 42 
Q 3188 -91 2688 -91 
Q 1594 -91 976 548 
Q 359 1188 359 2328 
Q 359 3472 976 4111 
Q 1594 4750 2688 4750 
Q 3144 4750 3555 4637 
Q 3966 4525 4313 4306 
L 4313 3634 
Q 3963 3931 3569 4081 
Q 3175 4231 2741 4231 
Q 1884 4231 1454 3753 
Q 1025 3275 1025 2328 
Q 1025 1384 1454 906 
Q 1884 428 2741 428 
Q 3075 428 3337 486 
Q 3600 544 3809 666 
z
" id="DejaVuSans-47" transform="scale(0.015625)"/>
       <path d="M 4122 4306 
L 4122 3641 
Q 3803 3938 3442 4084 
Q 3081 4231 2675 4231 
Q 1875 4231 1450 3742 
Q 1025 3253 1025 2328 
Q 1025 1406 1450 917 
Q 1875 428 2675 428 
Q 3081 428 3442 575 
Q 3803 722 4122 1019 
L 4122 359 
Q 3791 134 3420 21 
Q 3050 -91 2638 -91 
Q 1578 -91 968 557 
Q 359 1206 359 2328 
Q 359 3453 968 4101 
Q 1578 4750 2638 4750 
Q 3056 4750 3426 4639 
Q 3797 4528 4122 4306 
z
" id="DejaVuSans-43" transform="scale(0.015625)"/>
       <path d="M 628 4666 
L 1569 4666 
L 2759 1491 
L 3956 4666 
L 4897 4666 
L 4897 0 
L 4281 0 
L 4281 4097 
L 3078 897 
L 2444 897 
L 1241 4097 
L 1241 0 
L 628 0 
L 628 4666 
z
" id="DejaVuSans-4d" transform="scale(0.015625)"/>
       <path d="M 1259 4147 
L 1259 2394 
L 2053 2394 
Q 2494 2394 2734 2622 
Q 2975 2850 2975 3272 
Q 2975 3691 2734 3919 
Q 2494 4147 2053 4147 
L 1259 4147 
z
M 628 4666 
L 2053 4666 
Q 2838 4666 3239 4311 
Q 3641 3956 3641 3272 
Q 3641 2581 3239 2228 
Q 2838 1875 2053 1875 
L 1259 1875 
L 1259 0 
L 628 0 
L 628 4666 
z
" id="DejaVuSans-50" transform="scale(0.015625)"/>
      </defs>
      <use xlink:href="#DejaVuSans-47"/>
      <use x="77.490234" xlink:href="#DejaVuSans-43"/>
      <use x="147.314453" xlink:href="#DejaVuSans-61"/>
      <use x="208.59375" xlink:href="#DejaVuSans-4d"/>
      <use x="294.873047" xlink:href="#DejaVuSans-50"/>
     </g>
    </g>
   </g>
   <g id="line2d_16">
    <path clip-path="url(#p8780d89f89)" d="M 119.872159 304.816534 
L 121.110416 312.324737 
L 122.348674 318.766487 
L 123.586931 323.896272 
L 124.825188 327.944146 
L 126.063445 330.96422 
L 127.301703 333.031004 
L 128.53996 334.460393 
L 129.778217 335.336038 
L 131.016474 335.279061 
L 132.254732 334.052933 
L 134.731246 330.032738 
L 135.969504 328.716093 
L 137.207761 328.544981 
L 138.446018 329.548446 
L 139.684275 331.437432 
L 140.922533 333.69831 
L 142.16079 335.704643 
L 143.399047 337.102506 
L 144.637304 337.932148 
L 145.875562 338.322461 
L 147.113819 338.338651 
L 148.352076 338.009078 
L 149.590334 337.31802 
L 153.305105 334.309349 
L 154.543363 334.008678 
L 155.78162 334.670937 
L 157.019877 336.250677 
L 158.258134 338.170929 
L 159.496392 339.784007 
L 160.734649 340.777181 
L 161.972906 341.057248 
L 163.211163 340.532362 
L 164.449421 339.178989 
L 165.687678 337.254885 
L 166.925935 335.572513 
L 168.164193 335.314326 
L 169.40245 337.076727 
L 173.117222 346.458088 
L 174.355479 348.327227 
L 176.831993 350.950698 
L 178.070251 352.036977 
L 179.308508 352.798811 
L 180.546765 352.959267 
L 181.785022 352.485603 
L 185.499794 349.85563 
L 186.738052 349.512647 
L 187.976309 349.796887 
L 191.691081 351.705449 
L 192.929338 351.845249 
L 194.167595 351.432994 
L 195.405852 350.512589 
L 197.882367 348.4536 
L 200.358881 346.578863 
L 201.597139 346.027789 
L 202.835396 346.22849 
L 204.073653 347.122265 
L 205.311911 348.253214 
L 206.550168 349.12422 
L 209.026682 349.978053 
L 210.26494 350.752137 
L 212.741454 353.052651 
L 213.979711 353.695296 
L 215.217969 353.844526 
L 217.694483 353.643807 
L 218.93274 353.31834 
L 220.170998 352.55417 
L 225.124027 347.745537 
L 227.600541 344.867001 
L 228.838799 343.898219 
L 230.077056 343.651575 
L 231.315313 344.042371 
L 232.55357 344.832472 
L 235.030085 346.725944 
L 236.268342 347.829312 
L 237.5066 349.463604 
L 239.983114 354.11148 
L 241.221371 355.778437 
L 242.459629 356.240432 
L 243.697886 355.57847 
L 244.936143 354.065978 
L 246.1744 352.182186 
L 247.412658 350.753344 
L 248.650915 350.406512 
L 249.889172 351.111271 
L 252.365687 353.590598 
L 254.842201 355.422042 
L 256.080459 356.884058 
L 258.556973 361.243702 
L 259.79523 362.899704 
L 261.033488 363.538283 
L 262.271745 363.021094 
L 263.510002 361.514808 
L 264.748259 359.327734 
L 265.986517 356.843457 
L 267.224774 354.628995 
L 268.463031 353.206666 
L 269.701288 352.775409 
L 270.939546 353.182093 
L 272.177803 353.944787 
L 273.41606 354.50453 
L 275.892575 354.73805 
L 277.130832 355.274742 
L 278.369089 356.464937 
L 279.607347 357.918858 
L 280.845604 359.090386 
L 282.083861 359.761702 
L 284.560376 360.584634 
L 285.798633 361.488832 
L 287.03689 362.684858 
L 288.275147 363.701408 
L 289.513405 364.270135 
L 291.989919 364.788566 
L 293.228177 365.560518 
L 294.466434 367.04925 
L 295.704691 368.876654 
L 296.942948 370.364375 
L 298.181206 371.071493 
L 299.419463 370.855468 
L 300.65772 369.776701 
L 301.895977 368.210657 
L 303.134235 366.840579 
L 304.372492 366.392069 
L 305.610749 367.285901 
L 306.849006 369.323307 
L 308.087264 371.617333 
L 309.325521 373.083461 
L 310.563778 373.163877 
L 311.802036 371.980759 
L 315.516807 365.978459 
L 317.993322 362.034423 
L 319.231579 360.272799 
L 320.469836 358.909435 
L 321.708094 358.028093 
L 322.946351 357.51184 
L 324.184608 357.203822 
L 325.422866 357.255154 
L 326.661123 358.013167 
L 329.137637 360.884678 
L 330.375895 361.73375 
L 331.614152 361.642765 
L 332.852409 360.507044 
L 336.567181 354.876138 
L 337.805438 354.246123 
L 339.043695 354.960799 
L 340.281953 356.842048 
L 341.52021 358.978668 
L 342.758467 360.46031 
L 343.996725 360.994489 
L 345.234982 360.774296 
L 348.949754 359.016341 
L 350.188011 358.660691 
L 351.426268 358.081654 
L 352.664525 356.858842 
L 355.14104 353.268575 
L 356.379297 351.877279 
L 357.617554 351.117798 
L 358.855812 351.094793 
L 360.094069 351.498319 
L 361.332326 351.779628 
L 362.570584 351.912138 
L 363.808841 352.524136 
L 365.047098 354.06573 
L 366.285355 356.071246 
L 367.523613 357.540162 
L 368.76187 357.896553 
L 370.000127 357.249241 
L 372.476642 354.947754 
L 373.714899 354.522035 
L 374.953156 354.9628 
L 379.906185 358.633667 
L 381.144443 359.463808 
L 382.3827 359.915265 
L 383.620957 359.791669 
L 386.097472 358.687066 
L 387.335729 358.001096 
L 388.573986 356.957263 
L 392.288758 352.645776 
L 393.527015 351.91611 
L 394.765272 352.350058 
L 396.00353 354.051916 
L 397.241787 356.291408 
L 398.480044 358.124364 
L 399.718302 359.012104 
L 400.956559 358.892662 
L 402.194816 358.074522 
L 407.147845 353.794251 
L 408.386102 353.237028 
L 409.62436 353.196877 
L 410.862617 353.596109 
L 413.339132 354.880483 
L 414.577389 354.962672 
L 415.815646 354.166235 
L 419.530418 349.554569 
L 420.768675 348.848229 
L 422.006932 349.035619 
L 423.24519 350.204949 
L 424.483447 352.246488 
L 426.959961 357.333049 
L 428.198219 359.202793 
L 430.674733 361.909331 
L 431.912991 363.138199 
L 433.151248 364.011311 
L 434.389505 364.351297 
L 435.627762 364.038507 
L 436.86602 362.990192 
L 438.104277 361.297777 
L 439.342534 359.023457 
L 440.580791 356.029757 
L 441.819049 352.239079 
L 443.057306 347.976176 
L 444.295563 344.142196 
L 445.53382 341.861814 
L 446.772078 341.702945 
L 448.010335 343.415929 
L 449.248592 346.370317 
L 451.725107 353.085045 
L 452.963364 355.181156 
L 454.201621 355.789417 
L 455.439879 355.102101 
L 459.15465 350.782792 
L 461.631165 348.795236 
L 462.869422 348.066827 
L 466.584194 346.838918 
L 467.822451 346.178826 
L 469.060709 345.793325 
L 470.298966 345.853312 
L 472.77548 346.312767 
L 474.013738 346.75623 
L 475.251995 347.75065 
L 476.490252 349.397348 
L 478.966767 353.557368 
L 480.205024 355.151322 
L 481.443281 355.923728 
L 482.681538 355.862933 
L 483.919796 355.300323 
L 486.39631 353.756103 
L 487.634568 352.690354 
L 488.872825 351.135266 
L 490.111082 348.801093 
L 492.587597 343.05544 
L 493.825854 341.675572 
L 495.064111 342.009143 
L 496.302368 343.247146 
L 497.540626 344.19471 
L 498.778883 344.371127 
L 500.01714 344.209357 
L 501.255397 344.266342 
L 502.493655 344.550325 
L 503.731912 344.675413 
L 504.970169 344.319246 
L 506.208427 343.396975 
L 508.684941 340.909235 
L 509.923198 340.188163 
L 511.161456 340.087173 
L 514.876227 341.118059 
L 517.352742 340.811377 
L 518.590999 341.167147 
L 519.829257 342.372375 
L 521.067514 343.880228 
L 522.305771 344.805023 
L 523.544028 344.714961 
L 524.782286 343.898283 
L 527.2588 341.990926 
L 528.497057 340.604559 
L 529.735315 338.510099 
L 530.973572 336.172603 
L 532.211829 334.275526 
L 533.450086 332.71343 
L 534.688344 330.479659 
L 535.926601 326.61184 
L 537.164858 320.842758 
L 538.403116 313.364539 
L 539.641373 304.547161 
L 544.594402 266.725401 
L 545.832659 260.055188 
L 550.785688 238.735579 
L 552.023945 234.509563 
L 553.262203 232.926736 
L 554.50046 234.445289 
L 556.976975 241.689019 
L 558.215232 244.306328 
L 559.453489 245.529098 
L 560.691746 245.398658 
L 561.930004 243.833649 
L 563.168261 240.796163 
L 566.883033 228.886009 
L 568.12129 226.319329 
L 569.359547 224.213178 
L 570.597804 221.661953 
L 571.836062 218.016452 
L 573.074319 213.1273 
L 575.550834 200.897461 
L 576.789091 194.684854 
L 578.027348 189.552794 
L 579.265605 186.323543 
L 580.503863 184.907777 
L 581.74212 183.965709 
L 582.980377 181.663041 
L 584.218634 176.899017 
L 586.695149 164.144855 
L 587.933406 160.815567 
L 589.171663 160.484895 
L 590.409921 161.467657 
L 591.648178 162.180772 
L 592.886435 162.146187 
L 594.124693 161.508679 
L 596.601207 159.474845 
L 597.839464 158.738469 
L 599.077722 158.511626 
L 600.315979 158.940025 
L 601.554236 160.084322 
L 602.792493 161.590009 
L 604.030751 162.760333 
L 605.269008 163.1191 
L 606.507265 162.652331 
L 607.745523 161.728921 
L 608.98378 161.217763 
L 610.222037 162.316694 
L 611.460294 165.572326 
L 612.698552 170.440331 
L 613.936809 176.218514 
L 617.651581 195.319361 
L 618.889838 200.045277 
L 620.128095 203.557123 
L 621.366352 206.187834 
L 622.60461 208.150582 
L 626.319382 212.815099 
L 627.557639 213.851282 
L 628.795896 213.849581 
L 630.034153 213.16472 
L 631.272411 212.863569 
L 632.510668 213.609827 
L 633.748925 215.026073 
L 634.987182 216.11559 
L 636.22544 215.774108 
L 637.463697 213.347961 
L 639.940211 205.676294 
L 641.178469 203.441971 
L 642.416726 202.792012 
L 643.654983 202.483215 
L 644.893241 200.784838 
L 646.131498 196.622689 
L 649.84627 178.513675 
L 651.084527 174.450436 
L 652.322784 171.476043 
L 653.561041 169.007505 
L 654.799299 166.108758 
L 656.037556 161.794523 
L 659.752328 144.696698 
L 660.990585 141.089837 
L 662.228842 139.183467 
L 663.4671 138.474093 
L 664.705357 138.026502 
L 665.943614 137.133294 
L 667.181871 135.528801 
L 669.658386 131.057017 
L 670.896643 128.728289 
L 672.1349 126.152725 
L 675.849672 117.742607 
L 677.087929 116.277137 
L 678.326187 115.914288 
L 679.564444 115.698319 
L 680.802701 114.749523 
L 682.040959 112.825049 
L 683.279216 109.79838 
L 684.517473 105.537538 
L 686.993988 95.597856 
L 688.232245 92.024054 
L 689.470502 89.949312 
L 691.947017 87.675391 
L 693.185274 85.360248 
L 694.423531 81.65749 
L 695.661789 77.527237 
L 696.900046 74.058672 
L 698.138303 71.462864 
L 699.37656 69.398825 
L 700.614818 67.706122 
L 701.853075 66.577266 
L 703.091332 66.391144 
L 704.329589 67.32479 
L 706.806104 70.802981 
L 708.044361 72.087834 
L 709.282618 72.026069 
L 710.520876 70.150785 
L 712.99739 63.817113 
L 714.235648 61.230467 
L 715.473905 60.343016 
L 716.712162 62.210872 
L 717.950419 66.585155 
L 719.188677 71.54177 
L 720.426934 74.702029 
L 721.665191 74.432093 
L 722.903448 70.426207 
L 726.61822 50.97421 
L 727.856477 47.979282 
L 729.094735 48.0845 
L 730.332992 50.856119 
L 731.571249 55.693065 
L 732.809507 62.152146 
L 734.047764 69.240099 
L 735.286021 75.365488 
L 736.524278 79.81447 
L 737.762536 83.126365 
L 739.000793 85.760392 
L 740.23905 87.661337 
L 741.477307 88.9517 
L 742.715565 89.959485 
L 743.953822 90.643834 
L 745.192079 90.653497 
L 746.430336 89.990166 
L 747.668594 89.037613 
L 748.906851 87.753843 
L 750.145108 85.581544 
L 752.621623 79.476595 
L 753.85988 77.891091 
L 755.098137 78.327479 
L 756.336395 80.448235 
L 760.051166 89.683581 
L 761.289424 92.08157 
L 762.527681 93.218348 
L 763.765938 92.295426 
L 765.004195 89.187013 
L 766.242453 85.01136 
L 767.48071 82.029233 
L 768.718967 82.352374 
L 769.957225 86.372001 
L 772.433739 98.22845 
L 773.671996 102.051239 
L 774.910254 104.213462 
L 776.148511 105.910201 
L 777.386768 107.905865 
L 778.625025 110.506392 
L 779.863283 113.654771 
L 781.10154 116.443576 
L 782.339797 117.918755 
L 783.578054 118.468442 
L 784.816312 119.382563 
L 786.054569 121.448415 
L 788.531084 127.415224 
L 789.769341 129.672862 
L 791.007598 131.134119 
L 792.245855 132.346952 
L 793.484113 133.987018 
L 795.960627 138.6196 
L 797.198884 140.382993 
L 799.675399 142.482284 
L 800.913656 144.252709 
L 802.151914 147.729526 
L 803.390171 153.132465 
L 805.866685 166.154558 
L 807.104943 171.753424 
L 810.819714 185.604965 
L 812.057972 191.51353 
L 814.534486 204.410028 
L 815.772743 208.605351 
L 817.011001 210.376292 
L 819.487515 211.362375 
L 820.725773 212.658335 
L 821.96403 214.699007 
L 824.440544 219.92756 
L 825.678802 222.582379 
L 826.917059 224.851709 
L 828.155316 226.539607 
L 830.631831 229.218927 
L 831.870088 229.844964 
L 833.108345 229.109894 
L 834.346602 226.776796 
L 836.823117 219.645155 
L 838.061374 217.605273 
L 839.299632 217.904238 
L 840.537889 219.856473 
L 845.490918 229.413127 
L 846.729175 231.876857 
L 852.920461 242.86535 
L 854.158719 244.576644 
L 855.396976 245.711821 
L 856.635233 246.296804 
L 857.873491 246.439851 
L 859.111748 246.037442 
L 860.350005 244.812489 
L 861.588262 242.60512 
L 862.82652 239.497203 
L 865.303034 231.896912 
L 866.541291 228.756848 
L 867.779549 226.972809 
L 869.017806 226.481427 
L 871.49432 226.467812 
L 872.732578 226.344282 
L 873.970835 226.451846 
L 875.209092 227.025094 
L 876.44735 228.227088 
L 877.685607 229.791486 
L 878.923864 230.888401 
L 880.162121 230.856868 
L 881.400379 229.837907 
L 882.638636 228.607034 
L 883.876893 228.215827 
L 885.11515 229.450049 
L 887.591665 235.08705 
L 888.829922 236.939129 
L 891.306437 238.102076 
L 892.544694 240.086302 
L 893.782951 244.208161 
L 895.021209 250.53147 
L 896.259466 258.018726 
L 897.497723 264.771808 
L 898.73598 269.384401 
L 899.974238 271.662301 
L 901.212495 272.050829 
L 902.450752 270.80992 
L 903.689009 268.051876 
L 908.642039 253.364059 
L 911.118553 246.538223 
L 912.35681 243.666408 
L 914.833325 238.656693 
L 916.071582 235.380821 
L 917.309839 231.371483 
L 921.024611 218.22542 
L 923.501126 210.858925 
L 924.739383 207.458339 
L 925.97764 204.631249 
L 927.215898 202.403475 
L 928.454155 200.757936 
L 929.692412 199.727101 
L 930.930669 199.108566 
L 932.168927 198.673757 
L 933.407184 198.494085 
L 934.645441 198.80377 
L 937.121956 200.127428 
L 939.59847 200.600626 
L 940.836727 200.820362 
L 942.074985 200.768979 
L 943.313242 199.894857 
L 945.789757 196.171216 
L 947.028014 195.175236 
L 948.266271 195.072374 
L 949.504528 195.175647 
L 950.742786 195.04264 
L 951.981043 194.756263 
L 953.2193 194.931698 
L 954.457557 196.319269 
L 955.695815 199.048422 
L 956.934072 202.458445 
L 958.172329 205.524738 
L 959.410586 207.396597 
L 960.648844 207.975151 
L 961.887101 207.834747 
L 963.125358 207.345398 
L 964.363616 206.318999 
L 965.601873 204.619069 
L 968.078387 200.658591 
L 969.316645 199.667731 
L 970.554902 200.175775 
L 971.793159 202.209286 
L 974.269674 208.355056 
L 976.746188 214.785213 
L 977.984446 218.939163 
L 979.222703 224.367327 
L 981.699217 237.637746 
L 982.937475 243.145268 
L 984.175732 246.930653 
L 985.413989 249.378728 
L 986.652246 251.063653 
L 987.890504 252.224261 
L 990.367018 253.941808 
L 991.605275 255.478954 
L 992.843533 257.877931 
L 994.08179 261.007254 
L 995.320047 264.813326 
L 996.558305 269.571494 
L 999.034819 280.279409 
L 1000.273076 283.066615 
L 1001.511334 282.86565 
L 1003.987848 278.767297 
L 1005.226105 277.969138 
L 1006.464363 278.900246 
L 1007.70262 281.374116 
L 1010.179134 287.917172 
L 1011.417392 290.45515 
L 1012.655649 291.737928 
L 1013.893906 291.615791 
L 1015.132164 290.456932 
L 1018.846935 285.445687 
L 1020.085193 284.857715 
L 1021.32345 285.084038 
L 1023.799964 286.243444 
L 1025.038222 286.494161 
L 1026.276479 286.208152 
L 1027.514736 285.182544 
L 1028.752993 283.209078 
L 1029.991251 279.950554 
L 1031.229508 275.259202 
L 1033.706023 264.822235 
L 1034.94428 260.737858 
L 1036.182537 257.414837 
L 1037.420794 254.649795 
L 1038.659052 252.479352 
L 1039.897309 250.984474 
L 1041.135566 250.088602 
L 1043.612081 249.157597 
L 1044.850338 248.249482 
L 1047.326852 245.130212 
L 1048.56511 243.937075 
L 1049.803367 243.317828 
L 1051.041624 243.022188 
L 1052.279882 242.494117 
L 1053.518139 241.104115 
L 1055.994653 236.654427 
L 1057.232911 235.591776 
L 1058.471168 235.90336 
L 1059.709425 237.205045 
L 1060.947682 238.792755 
L 1062.18594 239.78655 
L 1063.424197 239.867029 
L 1064.662454 239.603923 
L 1065.900711 239.543109 
L 1067.138969 239.719187 
L 1068.377226 240.343287 
L 1069.615483 242.142354 
L 1070.853741 245.578278 
L 1072.091998 249.857448 
L 1073.330255 253.022898 
L 1074.568512 253.440696 
L 1075.80677 251.10992 
L 1078.283284 244.002732 
L 1079.521541 242.29233 
L 1080.759799 242.871553 
L 1081.998056 245.763604 
L 1083.236313 250.562466 
L 1086.951085 267.644412 
L 1089.4276 277.844595 
L 1090.665857 282.578823 
L 1091.904114 286.623364 
L 1093.142371 289.426689 
L 1094.380629 290.53982 
L 1095.618886 290.107524 
L 1096.857143 288.968908 
L 1098.0954 288.083186 
L 1100.571915 287.554953 
L 1101.810172 286.766708 
L 1103.04843 285.251307 
L 1104.286687 283.523998 
L 1105.524944 282.40257 
L 1106.763201 282.543958 
L 1108.001459 284.099139 
L 1109.239716 286.655987 
L 1111.71623 292.516312 
L 1112.954488 294.90914 
L 1114.192745 296.505988 
L 1115.431002 297.325759 
L 1116.669259 297.62577 
L 1117.907517 297.679169 
L 1119.145774 297.553996 
L 1120.384031 297.26353 
L 1121.622289 297.098852 
L 1122.860546 297.400061 
L 1125.33706 298.793819 
L 1126.575318 298.607969 
L 1127.813575 297.199598 
L 1129.051832 295.300153 
L 1130.290089 294.384376 
L 1131.528347 295.29063 
L 1134.004861 300.032832 
L 1135.243118 301.607258 
L 1136.481376 301.612339 
L 1137.719633 300.291654 
L 1138.95789 298.803419 
L 1140.196148 298.255392 
L 1141.434405 298.41793 
L 1142.672662 297.870737 
L 1143.910919 295.660081 
L 1145.149177 292.142396 
L 1147.625691 284.310432 
L 1148.863948 280.896617 
L 1151.340463 275.025871 
L 1155.055235 264.533317 
L 1156.293492 261.749495 
L 1157.531749 259.417222 
L 1160.008264 255.623105 
L 1162.484778 252.146521 
L 1163.723036 250.847892 
L 1164.961293 250.446946 
L 1166.19955 251.275989 
L 1167.437807 253.298875 
L 1168.676065 256.201716 
L 1171.152579 263.301115 
L 1173.629094 270.198974 
L 1174.867351 273.006916 
L 1176.105608 275.16787 
L 1177.343866 276.164065 
L 1178.582123 275.449334 
L 1179.82038 273.224624 
L 1181.058637 270.586046 
L 1182.296895 268.670524 
L 1183.535152 267.909541 
L 1184.773409 268.122398 
L 1186.011666 268.682668 
L 1187.249924 268.42077 
L 1188.488181 266.300612 
L 1189.726438 262.778954 
L 1190.964696 259.613904 
L 1192.202953 257.877875 
L 1193.44121 257.218308 
L 1194.679467 257.082853 
L 1195.917725 257.434863 
L 1197.155982 258.343409 
L 1198.394239 259.830396 
L 1199.632496 262.180399 
L 1200.870754 265.790115 
L 1202.109011 270.641727 
L 1203.347268 276.133581 
L 1204.585525 280.986368 
L 1205.823783 283.31219 
L 1207.06204 281.69196 
L 1208.300297 276.471419 
L 1209.538555 269.789058 
L 1210.776812 264.348361 
L 1212.015069 261.935485 
L 1213.253326 262.800705 
L 1214.491584 266.103486 
L 1216.968098 274.779957 
L 1218.206355 277.685613 
L 1219.444613 278.824715 
L 1220.68287 278.414189 
L 1223.159384 276.088554 
L 1225.635899 274.494273 
L 1226.874156 273.102168 
L 1228.112414 271.487802 
L 1229.350671 270.417075 
L 1231.827185 269.826277 
L 1233.065443 269.214364 
L 1235.541957 267.81343 
L 1236.780214 267.297309 
L 1238.018472 267.445434 
L 1239.256729 269.437949 
L 1240.494986 274.040249 
L 1244.209758 294.065531 
L 1245.448015 298.077012 
L 1246.686273 299.813877 
L 1247.92453 299.936136 
L 1251.639302 298.484722 
L 1254.115816 297.839355 
L 1255.354073 297.312922 
L 1256.592331 296.245848 
L 1259.068845 292.925716 
L 1260.307103 291.668685 
L 1261.54536 291.380333 
L 1262.783617 292.112954 
L 1264.021874 293.330631 
L 1265.260132 294.202929 
L 1266.498389 294.011676 
L 1267.736646 292.450428 
L 1270.213161 287.574777 
L 1271.451418 286.453948 
L 1272.689675 287.047242 
L 1275.16619 291.028505 
L 1276.404447 292.369651 
L 1277.642704 292.96468 
L 1278.880962 293.416472 
L 1280.119219 294.419874 
L 1281.357476 296.506637 
L 1283.833991 302.142934 
L 1285.072248 303.348699 
L 1286.310505 302.733503 
L 1287.548762 300.694667 
L 1288.78702 298.028579 
L 1290.025277 295.641366 
L 1291.263534 294.181394 
L 1292.501791 293.653339 
L 1296.216563 293.184554 
L 1297.454821 293.646356 
L 1298.693078 294.430316 
L 1299.931335 295.476916 
L 1301.169592 297.076033 
L 1302.40785 299.325011 
L 1303.646107 301.848564 
L 1304.884364 303.89686 
L 1306.122621 304.770454 
L 1307.360879 304.62732 
L 1308.599136 304.347936 
L 1309.837393 304.235654 
L 1311.07565 303.795649 
L 1312.313908 302.790457 
L 1313.552165 301.603977 
L 1314.790422 300.800388 
L 1316.02868 300.631011 
L 1317.266937 300.717983 
L 1318.505194 300.334334 
L 1319.743451 299.169285 
L 1320.981709 297.762494 
L 1322.219966 297.028046 
L 1323.458223 297.279087 
L 1324.69648 298.1575 
L 1325.934738 299.570991 
L 1327.172995 301.718846 
L 1328.411252 304.156232 
L 1329.649509 305.934914 
L 1330.887767 306.706276 
L 1332.126024 307.023522 
L 1333.364281 307.571769 
L 1337.079053 310.369719 
L 1338.31731 310.647994 
L 1339.555568 310.262315 
L 1340.793825 309.130871 
L 1342.032082 307.405541 
L 1343.270339 305.32744 
L 1344.508597 302.80722 
L 1345.746854 299.925524 
L 1346.985111 297.495403 
L 1348.223368 296.219424 
L 1349.461626 295.92259 
L 1350.699883 296.246458 
L 1351.93814 297.197197 
L 1354.414655 300.293729 
L 1358.129427 305.174498 
L 1359.367684 306.416563 
L 1360.605941 307.202904 
L 1363.082456 308.23009 
L 1364.320713 309.394449 
L 1365.55897 311.392104 
L 1369.273742 318.944007 
L 1370.511999 320.990019 
L 1371.750257 322.168639 
L 1372.988514 322.019849 
L 1374.226771 320.251457 
L 1375.465028 316.881748 
L 1377.941543 308.014229 
L 1379.1798 304.920597 
L 1380.418057 304.513898 
L 1381.656315 307.326952 
L 1384.132829 317.336118 
L 1385.371087 320.516645 
L 1386.609344 321.360906 
L 1387.847601 320.74674 
L 1389.085858 319.897159 
L 1390.324116 319.390262 
L 1392.80063 318.797104 
L 1396.515402 317.324547 
L 1397.753659 317.683278 
L 1398.991916 318.51874 
L 1400.230174 319.0453 
L 1401.468431 318.698275 
L 1405.183203 315.593231 
L 1406.42146 315.356265 
L 1407.659717 315.98373 
L 1408.897975 317.440506 
L 1410.136232 319.181551 
L 1411.374489 320.201442 
L 1412.612746 319.554252 
L 1413.851004 317.108946 
L 1416.327518 310.236143 
L 1417.565775 308.081507 
L 1418.804033 308.016322 
L 1420.04229 309.807439 
L 1421.280547 312.229565 
L 1422.518805 314.258238 
L 1423.757062 315.645931 
L 1424.995319 316.454271 
L 1426.233576 316.567482 
L 1427.471834 315.54818 
L 1428.710091 312.985647 
L 1429.948348 309.104643 
L 1432.424863 300.560687 
L 1433.66312 297.257965 
L 1434.901377 295.239247 
L 1436.139634 294.525784 
L 1437.377892 294.647005 
L 1438.616149 295.27831 
L 1441.092664 297.610343 
L 1442.330921 298.230873 
L 1443.569178 297.8028 
L 1444.807435 296.229209 
L 1446.045693 293.949362 
L 1447.28395 292.083688 
L 1448.522207 291.500413 
L 1450.998722 292.07523 
L 1452.236979 292.075691 
L 1453.475236 292.361591 
L 1454.713494 293.189008 
L 1457.190008 295.524355 
L 1458.428265 296.20122 
L 1459.666523 295.542728 
L 1460.90478 292.746525 
L 1463.381294 282.894357 
L 1464.619552 279.52731 
L 1465.857809 278.905063 
L 1467.096066 280.650672 
L 1469.572581 286.682712 
L 1470.810838 288.936818 
L 1472.049095 289.943987 
L 1473.287353 289.655213 
L 1475.763867 287.61353 
L 1477.002124 287.501697 
L 1478.240382 288.327439 
L 1479.478639 289.619971 
L 1480.716896 290.517841 
L 1481.955153 290.429731 
L 1483.193411 289.527351 
L 1485.669925 287.036272 
L 1486.908182 286.071427 
L 1488.14644 286.073857 
L 1489.384697 287.493148 
L 1490.622954 290.210888 
L 1493.099469 297.497764 
L 1494.337726 300.434246 
L 1495.575983 301.571168 
L 1496.814241 300.940591 
L 1498.052498 299.748776 
L 1499.290755 298.916293 
L 1500.529012 298.266851 
L 1503.005527 296.656722 
L 1504.243784 296.274199 
L 1505.482041 296.118661 
L 1506.720299 295.496203 
L 1507.958556 294.001399 
L 1509.196813 292.245933 
L 1510.435071 291.489349 
L 1511.673328 292.484141 
L 1512.911585 294.925197 
L 1515.3881 301.426535 
L 1516.626357 304.057599 
L 1517.864614 305.270496 
L 1519.102871 305.250318 
L 1520.341129 304.891606 
L 1521.579386 304.655761 
L 1522.817643 303.9275 
L 1524.0559 301.645928 
L 1525.294158 297.633269 
L 1526.532415 293.112652 
L 1527.770672 289.664804 
L 1529.00893 288.13243 
L 1530.247187 288.600555 
L 1531.485444 290.462112 
L 1532.723701 292.534478 
L 1533.961959 294.024888 
L 1536.438473 296.317973 
L 1537.67673 297.13678 
L 1538.914988 297.42648 
L 1541.391502 297.770596 
L 1542.62976 297.692986 
L 1543.868017 297.465199 
L 1545.106274 297.547212 
L 1546.344531 297.894564 
L 1547.582789 298.119407 
L 1548.821046 298.088451 
L 1550.059303 297.813851 
L 1551.29756 297.36631 
L 1552.535818 297.135621 
L 1555.012332 297.678883 
L 1556.250589 296.798044 
L 1557.488847 294.43945 
L 1559.965361 288.268297 
L 1562.441876 282.787528 
L 1563.680133 280.477455 
L 1564.91839 278.855515 
L 1566.156648 278.433508 
L 1567.394905 279.462568 
L 1568.633162 281.684438 
L 1571.109677 287.756781 
L 1572.347934 289.991365 
L 1573.586191 290.630203 
L 1574.824448 289.883992 
L 1576.062706 288.686437 
L 1577.300963 288.008125 
L 1578.53922 288.347783 
L 1581.015735 290.376208 
L 1582.253992 290.715453 
L 1583.492249 290.852933 
L 1585.968764 291.691828 
L 1587.207021 291.624274 
L 1588.445278 291.004544 
L 1589.683536 290.244785 
L 1590.921793 289.810912 
L 1592.16005 289.986966 
L 1593.398307 290.848299 
L 1594.636565 292.161521 
L 1595.874822 293.264899 
L 1597.113079 293.293277 
L 1598.351337 291.663772 
L 1599.589594 288.221564 
L 1600.827851 283.102751 
L 1603.304366 270.893742 
L 1604.542623 267.173308 
L 1605.78088 267.699468 
L 1607.019137 273.194085 
L 1609.495652 292.083661 
L 1610.733909 299.453457 
L 1611.972166 303.199227 
L 1613.210424 304.269811 
L 1614.448681 304.727255 
L 1615.686938 561.202423 
L 1616.925196 308.841872 
L 1618.163453 311.281228 
L 1619.40171 312.199258 
L 1620.639967 310.875748 
L 1621.878225 307.204807 
L 1625.592996 291.698479 
L 1626.831254 288.4161 
L 1628.069511 286.727308 
L 1629.307768 287.066571 
L 1630.546026 289.61487 
L 1631.784283 293.339768 
L 1633.02254 296.124567 
L 1634.260797 296.327232 
L 1635.499055 293.892358 
L 1637.975569 285.685872 
L 1640.452084 277.336569 
L 1641.690341 272.868588 
L 1641.690341 272.868588 
" style="fill:none;stroke:#008000;stroke-linecap:square;stroke-width:1.5;"/>
   </g>
   <g id="patch_3">
    <path d="M 43.78125 586.86358 
L 43.78125 22.318125 
" style="fill:none;stroke:#000000;stroke-linecap:square;stroke-linejoin:miter;stroke-width:0.8;"/>
   </g>
   <g id="patch_4">
    <path d="M 1717.78125 586.86358 
L 1717.78125 22.318125 
" style="fill:none;stroke:#000000;stroke-linecap:square;stroke-linejoin:miter;stroke-width:0.8;"/>
   </g>
   <g id="patch_5">
    <path d="M 43.78125 586.86358 
L 1717.78125 586.86358 
" style="fill:none;stroke:#000000;stroke-linecap:square;stroke-linejoin:miter;stroke-width:0.8;"/>
   </g>
   <g id="patch_6">
    <path d="M 43.78125 22.318125 
L 1717.78125 22.318125 
" style="fill:none;stroke:#000000;stroke-linecap:square;stroke-linejoin:miter;stroke-width:0.8;"/>
   </g>
   <g id="text_18">
    <!-- before binarisation -->
    <g transform="translate(824.1825 16.318125)scale(0.12 -0.12)">
     <defs>
      <path d="M 3116 1747 
Q 3116 2381 2855 2742 
Q 2594 3103 2138 3103 
Q 1681 3103 1420 2742 
Q 1159 2381 1159 1747 
Q 1159 1113 1420 752 
Q 1681 391 2138 391 
Q 2594 391 2855 752 
Q 3116 1113 3116 1747 
z
M 1159 2969 
Q 1341 3281 1617 3432 
Q 1894 3584 2278 3584 
Q 2916 3584 3314 3078 
Q 3713 2572 3713 1747 
Q 3713 922 3314 415 
Q 2916 -91 2278 -91 
Q 1894 -91 1617 61 
Q 1341 213 1159 525 
L 1159 0 
L 581 0 
L 581 4863 
L 1159 4863 
L 1159 2969 
z
" id="DejaVuSans-62" transform="scale(0.015625)"/>
      <path d="M 1959 3097 
Q 1497 3097 1228 2736 
Q 959 2375 959 1747 
Q 959 1119 1226 758 
Q 1494 397 1959 397 
Q 2419 397 2687 759 
Q 2956 1122 2956 1747 
Q 2956 2369 2687 2733 
Q 2419 3097 1959 3097 
z
M 1959 3584 
Q 2709 3584 3137 3096 
Q 3566 2609 3566 1747 
Q 3566 888 3137 398 
Q 2709 -91 1959 -91 
Q 1206 -91 779 398 
Q 353 888 353 1747 
Q 353 2609 779 3096 
Q 1206 3584 1959 3584 
z
" id="DejaVuSans-6f" transform="scale(0.015625)"/>
      <path id="DejaVuSans-20" transform="scale(0.015625)"/>
      <path d="M 603 3500 
L 1178 3500 
L 1178 0 
L 603 0 
L 603 3500 
z
M 603 4863 
L 1178 4863 
L 1178 4134 
L 603 4134 
L 603 4863 
z
" id="DejaVuSans-69" transform="scale(0.015625)"/>
      <path d="M 3513 2113 
L 3513 0 
L 2938 0 
L 2938 2094 
Q 2938 2591 2744 2837 
Q 2550 3084 2163 3084 
Q 1697 3084 1428 2787 
Q 1159 2491 1159 1978 
L 1159 0 
L 581 0 
L 581 3500 
L 1159 3500 
L 1159 2956 
Q 1366 3272 1645 3428 
Q 1925 3584 2291 3584 
Q 2894 3584 3203 3211 
Q 3513 2838 3513 2113 
z
" id="DejaVuSans-6e" transform="scale(0.015625)"/>
      <path d="M 2834 3397 
L 2834 2853 
Q 2591 2978 2328 3040 
Q 2066 3103 1784 3103 
Q 1356 3103 1142 2972 
Q 928 2841 928 2578 
Q 928 2378 1081 2264 
Q 1234 2150 1697 2047 
L 1894 2003 
Q 2506 1872 2764 1633 
Q 3022 1394 3022 966 
Q 3022 478 2636 193 
Q 2250 -91 1575 -91 
Q 1294 -91 989 -36 
Q 684 19 347 128 
L 347 722 
Q 666 556 975 473 
Q 1284 391 1588 391 
Q 1994 391 2212 530 
Q 2431 669 2431 922 
Q 2431 1156 2273 1281 
Q 2116 1406 1581 1522 
L 1381 1569 
Q 847 1681 609 1914 
Q 372 2147 372 2553 
Q 372 3047 722 3315 
Q 1072 3584 1716 3584 
Q 2034 3584 2315 3537 
Q 2597 3491 2834 3397 
z
" id="DejaVuSans-73" transform="scale(0.015625)"/>
      <path d="M 1172 4494 
L 1172 3500 
L 2356 3500 
L 2356 3053 
L 1172 3053 
L 1172 1153 
Q 1172 725 1289 603 
Q 1406 481 1766 481 
L 2356 481 
L 2356 0 
L 1766 0 
Q 1100 0 847 248 
Q 594 497 594 1153 
L 594 3053 
L 172 3053 
L 172 3500 
L 594 3500 
L 594 4494 
L 1172 4494 
z
" id="DejaVuSans-74" transform="scale(0.015625)"/>
     </defs>
     <use xlink:href="#DejaVuSans-62"/>
     <use x="63.476562" xlink:href="#DejaVuSans-65"/>
     <use x="125" xlink:href="#DejaVuSans-66"/>
     <use x="160.205078" xlink:href="#DejaVuSans-6f"/>
     <use x="221.386719" xlink:href="#DejaVuSans-72"/>
     <use x="260.25" xlink:href="#DejaVuSans-65"/>
     <use x="321.773438" xlink:href="#DejaVuSans-20"/>
     <use x="353.560547" xlink:href="#DejaVuSans-62"/>
     <use x="417.037109" xlink:href="#DejaVuSans-69"/>
     <use x="444.820312" xlink:href="#DejaVuSans-6e"/>
     <use x="508.199219" xlink:href="#DejaVuSans-61"/>
     <use x="569.478516" xlink:href="#DejaVuSans-72"/>
     <use x="610.591797" xlink:href="#DejaVuSans-69"/>
     <use x="638.375" xlink:href="#DejaVuSans-73"/>
     <use x="690.474609" xlink:href="#DejaVuSans-61"/>
     <use x="751.753906" xlink:href="#DejaVuSans-74"/>
     <use x="790.962891" xlink:href="#DejaVuSans-69"/>
     <use x="818.746094" xlink:href="#DejaVuSans-6f"/>
     <use x="879.927734" xlink:href="#DejaVuSans-6e"/>
    </g>
   </g>
  </g>
  <g id="axes_2">
   <g id="patch_7">
    <path d="M 43.78125 1264.318125 
L 1717.78125 1264.318125 
L 1717.78125 699.77267 
L 43.78125 699.77267 
z
" style="fill:#ffffff;"/>
   </g>
   <g id="matplotlib.axis_3">
    <g id="xtick_8">
     <g id="line2d_17">
      <g>
       <use style="stroke:#000000;stroke-width:0.8;" x="119.872159" xlink:href="#mca5c4196d5" y="1264.318125"/>
      </g>
     </g>
     <g id="text_19">
      <!-- 0 -->
      <g transform="translate(116.690909 1278.916563)scale(0.1 -0.1)">
       <use xlink:href="#DejaVuSans-30"/>
      </g>
     </g>
    </g>
    <g id="xtick_9">
     <g id="line2d_18">
      <g>
       <use style="stroke:#000000;stroke-width:0.8;" x="367.523613" xlink:href="#mca5c4196d5" y="1264.318125"/>
      </g>
     </g>
     <g id="text_20">
      <!-- 200 -->
      <g transform="translate(357.979863 1278.916563)scale(0.1 -0.1)">
       <use xlink:href="#DejaVuSans-32"/>
       <use x="63.623047" xlink:href="#DejaVuSans-30"/>
       <use x="127.246094" xlink:href="#DejaVuSans-30"/>
      </g>
     </g>
    </g>
    <g id="xtick_10">
     <g id="line2d_19">
      <g>
       <use style="stroke:#000000;stroke-width:0.8;" x="615.175066" xlink:href="#mca5c4196d5" y="1264.318125"/>
      </g>
     </g>
     <g id="text_21">
      <!-- 400 -->
      <g transform="translate(605.631316 1278.916563)scale(0.1 -0.1)">
       <use xlink:href="#DejaVuSans-34"/>
       <use x="63.623047" xlink:href="#DejaVuSans-30"/>
       <use x="127.246094" xlink:href="#DejaVuSans-30"/>
      </g>
     </g>
    </g>
    <g id="xtick_11">
     <g id="line2d_20">
      <g>
       <use style="stroke:#000000;stroke-width:0.8;" x="862.82652" xlink:href="#mca5c4196d5" y="1264.318125"/>
      </g>
     </g>
     <g id="text_22">
      <!-- 600 -->
      <g transform="translate(853.28277 1278.916563)scale(0.1 -0.1)">
       <use xlink:href="#DejaVuSans-36"/>
       <use x="63.623047" xlink:href="#DejaVuSans-30"/>
       <use x="127.246094" xlink:href="#DejaVuSans-30"/>
      </g>
     </g>
    </g>
    <g id="xtick_12">
     <g id="line2d_21">
      <g>
       <use style="stroke:#000000;stroke-width:0.8;" x="1110.477973" xlink:href="#mca5c4196d5" y="1264.318125"/>
      </g>
     </g>
     <g id="text_23">
      <!-- 800 -->
      <g transform="translate(1100.934223 1278.916563)scale(0.1 -0.1)">
       <use xlink:href="#DejaVuSans-38"/>
       <use x="63.623047" xlink:href="#DejaVuSans-30"/>
       <use x="127.246094" xlink:href="#DejaVuSans-30"/>
      </g>
     </g>
    </g>
    <g id="xtick_13">
     <g id="line2d_22">
      <g>
       <use style="stroke:#000000;stroke-width:0.8;" x="1358.129427" xlink:href="#mca5c4196d5" y="1264.318125"/>
      </g>
     </g>
     <g id="text_24">
      <!-- 1000 -->
      <g transform="translate(1345.404427 1278.916563)scale(0.1 -0.1)">
       <use xlink:href="#DejaVuSans-31"/>
       <use x="63.623047" xlink:href="#DejaVuSans-30"/>
       <use x="127.246094" xlink:href="#DejaVuSans-30"/>
       <use x="190.869141" xlink:href="#DejaVuSans-30"/>
      </g>
     </g>
    </g>
    <g id="xtick_14">
     <g id="line2d_23">
      <g>
       <use style="stroke:#000000;stroke-width:0.8;" x="1605.78088" xlink:href="#mca5c4196d5" y="1264.318125"/>
      </g>
     </g>
     <g id="text_25">
      <!-- 1200 -->
      <g transform="translate(1593.05588 1278.916563)scale(0.1 -0.1)">
       <use xlink:href="#DejaVuSans-31"/>
       <use x="63.623047" xlink:href="#DejaVuSans-32"/>
       <use x="127.246094" xlink:href="#DejaVuSans-30"/>
       <use x="190.869141" xlink:href="#DejaVuSans-30"/>
      </g>
     </g>
    </g>
    <g id="text_26">
     <!-- frame -->
     <g transform="translate(865.954687 1292.594688)scale(0.1 -0.1)">
      <use xlink:href="#DejaVuSans-66"/>
      <use x="35.205078" xlink:href="#DejaVuSans-72"/>
      <use x="76.318359" xlink:href="#DejaVuSans-61"/>
      <use x="137.597656" xlink:href="#DejaVuSans-6d"/>
      <use x="235.009766" xlink:href="#DejaVuSans-65"/>
     </g>
    </g>
   </g>
   <g id="matplotlib.axis_4">
    <g id="ytick_9">
     <g id="line2d_24">
      <g>
       <use style="stroke:#000000;stroke-width:0.8;" x="43.78125" xlink:href="#m68e2a04c93" y="1238.656968"/>
      </g>
     </g>
     <g id="text_27">
      <!-- 0.0 -->
      <g transform="translate(20.878125 1242.456187)scale(0.1 -0.1)">
       <use xlink:href="#DejaVuSans-30"/>
       <use x="63.623047" xlink:href="#DejaVuSans-2e"/>
       <use x="95.410156" xlink:href="#DejaVuSans-30"/>
      </g>
     </g>
    </g>
    <g id="ytick_10">
     <g id="line2d_25">
      <g>
       <use style="stroke:#000000;stroke-width:0.8;" x="43.78125" xlink:href="#m68e2a04c93" y="1136.01234"/>
      </g>
     </g>
     <g id="text_28">
      <!-- 0.2 -->
      <g transform="translate(20.878125 1139.811559)scale(0.1 -0.1)">
       <use xlink:href="#DejaVuSans-30"/>
       <use x="63.623047" xlink:href="#DejaVuSans-2e"/>
       <use x="95.410156" xlink:href="#DejaVuSans-32"/>
      </g>
     </g>
    </g>
    <g id="ytick_11">
     <g id="line2d_26">
      <g>
       <use style="stroke:#000000;stroke-width:0.8;" x="43.78125" xlink:href="#m68e2a04c93" y="1033.367712"/>
      </g>
     </g>
     <g id="text_29">
      <!-- 0.4 -->
      <g transform="translate(20.878125 1037.166931)scale(0.1 -0.1)">
       <use xlink:href="#DejaVuSans-30"/>
       <use x="63.623047" xlink:href="#DejaVuSans-2e"/>
       <use x="95.410156" xlink:href="#DejaVuSans-34"/>
      </g>
     </g>
    </g>
    <g id="ytick_12">
     <g id="line2d_27">
      <g>
       <use style="stroke:#000000;stroke-width:0.8;" x="43.78125" xlink:href="#m68e2a04c93" y="930.723084"/>
      </g>
     </g>
     <g id="text_30">
      <!-- 0.6 -->
      <g transform="translate(20.878125 934.522302)scale(0.1 -0.1)">
       <use xlink:href="#DejaVuSans-30"/>
       <use x="63.623047" xlink:href="#DejaVuSans-2e"/>
       <use x="95.410156" xlink:href="#DejaVuSans-36"/>
      </g>
     </g>
    </g>
    <g id="ytick_13">
     <g id="line2d_28">
      <g>
       <use style="stroke:#000000;stroke-width:0.8;" x="43.78125" xlink:href="#m68e2a04c93" y="828.078456"/>
      </g>
     </g>
     <g id="text_31">
      <!-- 0.8 -->
      <g transform="translate(20.878125 831.877674)scale(0.1 -0.1)">
       <use xlink:href="#DejaVuSans-30"/>
       <use x="63.623047" xlink:href="#DejaVuSans-2e"/>
       <use x="95.410156" xlink:href="#DejaVuSans-38"/>
      </g>
     </g>
    </g>
    <g id="ytick_14">
     <g id="line2d_29">
      <g>
       <use style="stroke:#000000;stroke-width:0.8;" x="43.78125" xlink:href="#m68e2a04c93" y="725.433827"/>
      </g>
     </g>
     <g id="text_32">
      <!-- 1.0 -->
      <g transform="translate(20.878125 729.233046)scale(0.1 -0.1)">
       <use xlink:href="#DejaVuSans-31"/>
       <use x="63.623047" xlink:href="#DejaVuSans-2e"/>
       <use x="95.410156" xlink:href="#DejaVuSans-30"/>
      </g>
     </g>
    </g>
    <g id="text_33">
     <!-- GCaMP -->
     <g transform="translate(14.798437 999.803991)rotate(-90)scale(0.1 -0.1)">
      <use xlink:href="#DejaVuSans-47"/>
      <use x="77.490234" xlink:href="#DejaVuSans-43"/>
      <use x="147.314453" xlink:href="#DejaVuSans-61"/>
      <use x="208.59375" xlink:href="#DejaVuSans-4d"/>
      <use x="294.873047" xlink:href="#DejaVuSans-50"/>
     </g>
    </g>
   </g>
   <g id="line2d_30">
    <path clip-path="url(#p794bb30c0c)" d="M 119.872159 1238.656968 
L 575.550834 1238.656968 
L 576.789091 725.433827 
L 617.651581 725.433827 
L 618.889838 1238.656968 
L 646.131498 1238.656968 
L 647.369755 725.433827 
L 812.057972 725.433827 
L 813.296229 1238.656968 
L 945.789757 1238.656968 
L 947.028014 725.433827 
L 953.2193 725.433827 
L 954.457557 1238.656968 
L 1641.690341 1238.656968 
L 1641.690341 1238.656968 
" style="fill:none;stroke:#008000;stroke-linecap:square;stroke-width:1.5;"/>
   </g>
   <g id="patch_8">
    <path d="M 43.78125 1264.318125 
L 43.78125 699.77267 
" style="fill:none;stroke:#000000;stroke-linecap:square;stroke-linejoin:miter;stroke-width:0.8;"/>
   </g>
   <g id="patch_9">
    <path d="M 1717.78125 1264.318125 
L 1717.78125 699.77267 
" style="fill:none;stroke:#000000;stroke-linecap:square;stroke-linejoin:miter;stroke-width:0.8;"/>
   </g>
   <g id="patch_10">
    <path d="M 43.78125 1264.318125 
L 1717.78125 1264.318125 
" style="fill:none;stroke:#000000;stroke-linecap:square;stroke-linejoin:miter;stroke-width:0.8;"/>
   </g>
   <g id="patch_11">
    <path d="M 43.78125 699.77267 
L 1717.78125 699.77267 
" style="fill:none;stroke:#000000;stroke-linecap:square;stroke-linejoin:miter;stroke-width:0.8;"/>
   </g>
   <g id="text_34">
    <!-- before binarisation -->
    <g transform="translate(824.1825 693.77267)scale(0.12 -0.12)">
     <use xlink:href="#DejaVuSans-62"/>
     <use x="63.476562" xlink:href="#DejaVuSans-65"/>
     <use x="125" xlink:href="#DejaVuSans-66"/>
     <use x="160.205078" xlink:href="#DejaVuSans-6f"/>
     <use x="221.386719" xlink:href="#DejaVuSans-72"/>
     <use x="260.25" xlink:href="#DejaVuSans-65"/>
     <use x="321.773438" xlink:href="#DejaVuSans-20"/>
     <use x="353.560547" xlink:href="#DejaVuSans-62"/>
     <use x="417.037109" xlink:href="#DejaVuSans-69"/>
     <use x="444.820312" xlink:href="#DejaVuSans-6e"/>
     <use x="508.199219" xlink:href="#DejaVuSans-61"/>
     <use x="569.478516" xlink:href="#DejaVuSans-72"/>
     <use x="610.591797" xlink:href="#DejaVuSans-69"/>
     <use x="638.375" xlink:href="#DejaVuSans-73"/>
     <use x="690.474609" xlink:href="#DejaVuSans-61"/>
     <use x="751.753906" xlink:href="#DejaVuSans-74"/>
     <use x="790.962891" xlink:href="#DejaVuSans-69"/>
     <use x="818.746094" xlink:href="#DejaVuSans-6f"/>
     <use x="879.927734" xlink:href="#DejaVuSans-6e"/>
    </g>
   </g>
  </g>
 </g>
 <defs>
  <clipPath id="p8780d89f89">
   <rect height="564.545455" width="1674" x="43.78125" y="22.318125"/>
  </clipPath>
  <clipPath id="p794bb30c0c">
   <rect height="564.545455" width="1674" x="43.78125" y="699.77267"/>
  </clipPath>
 </defs>
</svg>
