<?xml version="1.0" encoding="utf-8" standalone="no"?>
<!DOCTYPE svg PUBLIC "-//W3C//DTD SVG 1.1//EN"
  "http://www.w3.org/Graphics/SVG/1.1/DTD/svg11.dtd">
<svg height="1301.874375pt" version="1.1" viewBox="0 0 1731.34375 1301.874375" width="1731.34375pt" xmlns="http://www.w3.org/2000/svg" xmlns:xlink="http://www.w3.org/1999/xlink">
 <metadata>
  <rdf:RDF xmlns:cc="http://creativecommons.org/ns#" xmlns:dc="http://purl.org/dc/elements/1.1/" xmlns:rdf="http://www.w3.org/1999/02/22-rdf-syntax-ns#">
   <cc:Work>
    <dc:type rdf:resource="http://purl.org/dc/dcmitype/StillImage"/>
    <dc:date>2022-07-24T15:54:46.138243</dc:date>
    <dc:format>image/svg+xml</dc:format>
    <dc:creator>
     <cc:Agent>
      <dc:title>Matplotlib v3.4.2, https://matplotlib.org/</dc:title>
     </cc:Agent>
    </dc:creator>
   </cc:Work>
  </rdf:RDF>
 </metadata>
 <defs>
  <style type="text/css">*{stroke-linecap:butt;stroke-linejoin:round;}</style>
 </defs>
 <g id="figure_1">
  <g id="patch_1">
   <path d="M 0 1301.874375 
L 1731.34375 1301.874375 
L 1731.34375 0 
L 0 0 
z
" style="fill:#ffffff;"/>
  </g>
  <g id="axes_1">
   <g id="patch_2">
    <path d="M 50.14375 586.86358 
L 1724.14375 586.86358 
L 1724.14375 22.318125 
L 50.14375 22.318125 
z
" style="fill:#ffffff;"/>
   </g>
   <g id="matplotlib.axis_1">
    <g id="xtick_1">
     <g id="line2d_1">
      <defs>
       <path d="M 0 0 
L 0 3.5 
" id="me8f45482a5" style="stroke:#000000;stroke-width:0.8;"/>
      </defs>
      <g>
       <use style="stroke:#000000;stroke-width:0.8;" x="126.234659" xlink:href="#me8f45482a5" y="586.86358"/>
      </g>
     </g>
     <g id="text_1">
      <!-- 0 -->
      <g transform="translate(123.053409 601.462017)scale(0.1 -0.1)">
       <defs>
        <path d="M 2034 4250 
Q 1547 4250 1301 3770 
Q 1056 3291 1056 2328 
Q 1056 1369 1301 889 
Q 1547 409 2034 409 
Q 2525 409 2770 889 
Q 3016 1369 3016 2328 
Q 3016 3291 2770 3770 
Q 2525 4250 2034 4250 
z
M 2034 4750 
Q 2819 4750 3233 4129 
Q 3647 3509 3647 2328 
Q 3647 1150 3233 529 
Q 2819 -91 2034 -91 
Q 1250 -91 836 529 
Q 422 1150 422 2328 
Q 422 3509 836 4129 
Q 1250 4750 2034 4750 
z
" id="DejaVuSans-30" transform="scale(0.015625)"/>
       </defs>
       <use xlink:href="#DejaVuSans-30"/>
      </g>
     </g>
    </g>
    <g id="xtick_2">
     <g id="line2d_2">
      <g>
       <use style="stroke:#000000;stroke-width:0.8;" x="373.886113" xlink:href="#me8f45482a5" y="586.86358"/>
      </g>
     </g>
     <g id="text_2">
      <!-- 200 -->
      <g transform="translate(364.342363 601.462017)scale(0.1 -0.1)">
       <defs>
        <path d="M 1228 531 
L 3431 531 
L 3431 0 
L 469 0 
L 469 531 
Q 828 903 1448 1529 
Q 2069 2156 2228 2338 
Q 2531 2678 2651 2914 
Q 2772 3150 2772 3378 
Q 2772 3750 2511 3984 
Q 2250 4219 1831 4219 
Q 1534 4219 1204 4116 
Q 875 4013 500 3803 
L 500 4441 
Q 881 4594 1212 4672 
Q 1544 4750 1819 4750 
Q 2544 4750 2975 4387 
Q 3406 4025 3406 3419 
Q 3406 3131 3298 2873 
Q 3191 2616 2906 2266 
Q 2828 2175 2409 1742 
Q 1991 1309 1228 531 
z
" id="DejaVuSans-32" transform="scale(0.015625)"/>
       </defs>
       <use xlink:href="#DejaVuSans-32"/>
       <use x="63.623047" xlink:href="#DejaVuSans-30"/>
       <use x="127.246094" xlink:href="#DejaVuSans-30"/>
      </g>
     </g>
    </g>
    <g id="xtick_3">
     <g id="line2d_3">
      <g>
       <use style="stroke:#000000;stroke-width:0.8;" x="621.537566" xlink:href="#me8f45482a5" y="586.86358"/>
      </g>
     </g>
     <g id="text_3">
      <!-- 400 -->
      <g transform="translate(611.993816 601.462017)scale(0.1 -0.1)">
       <defs>
        <path d="M 2419 4116 
L 825 1625 
L 2419 1625 
L 2419 4116 
z
M 2253 4666 
L 3047 4666 
L 3047 1625 
L 3713 1625 
L 3713 1100 
L 3047 1100 
L 3047 0 
L 2419 0 
L 2419 1100 
L 313 1100 
L 313 1709 
L 2253 4666 
z
" id="DejaVuSans-34" transform="scale(0.015625)"/>
       </defs>
       <use xlink:href="#DejaVuSans-34"/>
       <use x="63.623047" xlink:href="#DejaVuSans-30"/>
       <use x="127.246094" xlink:href="#DejaVuSans-30"/>
      </g>
     </g>
    </g>
    <g id="xtick_4">
     <g id="line2d_4">
      <g>
       <use style="stroke:#000000;stroke-width:0.8;" x="869.18902" xlink:href="#me8f45482a5" y="586.86358"/>
      </g>
     </g>
     <g id="text_4">
      <!-- 600 -->
      <g transform="translate(859.64527 601.462017)scale(0.1 -0.1)">
       <defs>
        <path d="M 2113 2584 
Q 1688 2584 1439 2293 
Q 1191 2003 1191 1497 
Q 1191 994 1439 701 
Q 1688 409 2113 409 
Q 2538 409 2786 701 
Q 3034 994 3034 1497 
Q 3034 2003 2786 2293 
Q 2538 2584 2113 2584 
z
M 3366 4563 
L 3366 3988 
Q 3128 4100 2886 4159 
Q 2644 4219 2406 4219 
Q 1781 4219 1451 3797 
Q 1122 3375 1075 2522 
Q 1259 2794 1537 2939 
Q 1816 3084 2150 3084 
Q 2853 3084 3261 2657 
Q 3669 2231 3669 1497 
Q 3669 778 3244 343 
Q 2819 -91 2113 -91 
Q 1303 -91 875 529 
Q 447 1150 447 2328 
Q 447 3434 972 4092 
Q 1497 4750 2381 4750 
Q 2619 4750 2861 4703 
Q 3103 4656 3366 4563 
z
" id="DejaVuSans-36" transform="scale(0.015625)"/>
       </defs>
       <use xlink:href="#DejaVuSans-36"/>
       <use x="63.623047" xlink:href="#DejaVuSans-30"/>
       <use x="127.246094" xlink:href="#DejaVuSans-30"/>
      </g>
     </g>
    </g>
    <g id="xtick_5">
     <g id="line2d_5">
      <g>
       <use style="stroke:#000000;stroke-width:0.8;" x="1116.840473" xlink:href="#me8f45482a5" y="586.86358"/>
      </g>
     </g>
     <g id="text_5">
      <!-- 800 -->
      <g transform="translate(1107.296723 601.462017)scale(0.1 -0.1)">
       <defs>
        <path d="M 2034 2216 
Q 1584 2216 1326 1975 
Q 1069 1734 1069 1313 
Q 1069 891 1326 650 
Q 1584 409 2034 409 
Q 2484 409 2743 651 
Q 3003 894 3003 1313 
Q 3003 1734 2745 1975 
Q 2488 2216 2034 2216 
z
M 1403 2484 
Q 997 2584 770 2862 
Q 544 3141 544 3541 
Q 544 4100 942 4425 
Q 1341 4750 2034 4750 
Q 2731 4750 3128 4425 
Q 3525 4100 3525 3541 
Q 3525 3141 3298 2862 
Q 3072 2584 2669 2484 
Q 3125 2378 3379 2068 
Q 3634 1759 3634 1313 
Q 3634 634 3220 271 
Q 2806 -91 2034 -91 
Q 1263 -91 848 271 
Q 434 634 434 1313 
Q 434 1759 690 2068 
Q 947 2378 1403 2484 
z
M 1172 3481 
Q 1172 3119 1398 2916 
Q 1625 2713 2034 2713 
Q 2441 2713 2670 2916 
Q 2900 3119 2900 3481 
Q 2900 3844 2670 4047 
Q 2441 4250 2034 4250 
Q 1625 4250 1398 4047 
Q 1172 3844 1172 3481 
z
" id="DejaVuSans-38" transform="scale(0.015625)"/>
       </defs>
       <use xlink:href="#DejaVuSans-38"/>
       <use x="63.623047" xlink:href="#DejaVuSans-30"/>
       <use x="127.246094" xlink:href="#DejaVuSans-30"/>
      </g>
     </g>
    </g>
    <g id="xtick_6">
     <g id="line2d_6">
      <g>
       <use style="stroke:#000000;stroke-width:0.8;" x="1364.491927" xlink:href="#me8f45482a5" y="586.86358"/>
      </g>
     </g>
     <g id="text_6">
      <!-- 1000 -->
      <g transform="translate(1351.766927 601.462017)scale(0.1 -0.1)">
       <defs>
        <path d="M 794 531 
L 1825 531 
L 1825 4091 
L 703 3866 
L 703 4441 
L 1819 4666 
L 2450 4666 
L 2450 531 
L 3481 531 
L 3481 0 
L 794 0 
L 794 531 
z
" id="DejaVuSans-31" transform="scale(0.015625)"/>
       </defs>
       <use xlink:href="#DejaVuSans-31"/>
       <use x="63.623047" xlink:href="#DejaVuSans-30"/>
       <use x="127.246094" xlink:href="#DejaVuSans-30"/>
       <use x="190.869141" xlink:href="#DejaVuSans-30"/>
      </g>
     </g>
    </g>
    <g id="xtick_7">
     <g id="line2d_7">
      <g>
       <use style="stroke:#000000;stroke-width:0.8;" x="1612.14338" xlink:href="#me8f45482a5" y="586.86358"/>
      </g>
     </g>
     <g id="text_7">
      <!-- 1200 -->
      <g transform="translate(1599.41838 601.462017)scale(0.1 -0.1)">
       <use xlink:href="#DejaVuSans-31"/>
       <use x="63.623047" xlink:href="#DejaVuSans-32"/>
       <use x="127.246094" xlink:href="#DejaVuSans-30"/>
       <use x="190.869141" xlink:href="#DejaVuSans-30"/>
      </g>
     </g>
    </g>
    <g id="text_8">
     <!-- frame -->
     <g transform="translate(872.317187 615.140142)scale(0.1 -0.1)">
      <defs>
       <path d="M 2375 4863 
L 2375 4384 
L 1825 4384 
Q 1516 4384 1395 4259 
Q 1275 4134 1275 3809 
L 1275 3500 
L 2222 3500 
L 2222 3053 
L 1275 3053 
L 1275 0 
L 697 0 
L 697 3053 
L 147 3053 
L 147 3500 
L 697 3500 
L 697 3744 
Q 697 4328 969 4595 
Q 1241 4863 1831 4863 
L 2375 4863 
z
" id="DejaVuSans-66" transform="scale(0.015625)"/>
       <path d="M 2631 2963 
Q 2534 3019 2420 3045 
Q 2306 3072 2169 3072 
Q 1681 3072 1420 2755 
Q 1159 2438 1159 1844 
L 1159 0 
L 581 0 
L 581 3500 
L 1159 3500 
L 1159 2956 
Q 1341 3275 1631 3429 
Q 1922 3584 2338 3584 
Q 2397 3584 2469 3576 
Q 2541 3569 2628 3553 
L 2631 2963 
z
" id="DejaVuSans-72" transform="scale(0.015625)"/>
       <path d="M 2194 1759 
Q 1497 1759 1228 1600 
Q 959 1441 959 1056 
Q 959 750 1161 570 
Q 1363 391 1709 391 
Q 2188 391 2477 730 
Q 2766 1069 2766 1631 
L 2766 1759 
L 2194 1759 
z
M 3341 1997 
L 3341 0 
L 2766 0 
L 2766 531 
Q 2569 213 2275 61 
Q 1981 -91 1556 -91 
Q 1019 -91 701 211 
Q 384 513 384 1019 
Q 384 1609 779 1909 
Q 1175 2209 1959 2209 
L 2766 2209 
L 2766 2266 
Q 2766 2663 2505 2880 
Q 2244 3097 1772 3097 
Q 1472 3097 1187 3025 
Q 903 2953 641 2809 
L 641 3341 
Q 956 3463 1253 3523 
Q 1550 3584 1831 3584 
Q 2591 3584 2966 3190 
Q 3341 2797 3341 1997 
z
" id="DejaVuSans-61" transform="scale(0.015625)"/>
       <path d="M 3328 2828 
Q 3544 3216 3844 3400 
Q 4144 3584 4550 3584 
Q 5097 3584 5394 3201 
Q 5691 2819 5691 2113 
L 5691 0 
L 5113 0 
L 5113 2094 
Q 5113 2597 4934 2840 
Q 4756 3084 4391 3084 
Q 3944 3084 3684 2787 
Q 3425 2491 3425 1978 
L 3425 0 
L 2847 0 
L 2847 2094 
Q 2847 2600 2669 2842 
Q 2491 3084 2119 3084 
Q 1678 3084 1418 2786 
Q 1159 2488 1159 1978 
L 1159 0 
L 581 0 
L 581 3500 
L 1159 3500 
L 1159 2956 
Q 1356 3278 1631 3431 
Q 1906 3584 2284 3584 
Q 2666 3584 2933 3390 
Q 3200 3197 3328 2828 
z
" id="DejaVuSans-6d" transform="scale(0.015625)"/>
       <path d="M 3597 1894 
L 3597 1613 
L 953 1613 
Q 991 1019 1311 708 
Q 1631 397 2203 397 
Q 2534 397 2845 478 
Q 3156 559 3463 722 
L 3463 178 
Q 3153 47 2828 -22 
Q 2503 -91 2169 -91 
Q 1331 -91 842 396 
Q 353 884 353 1716 
Q 353 2575 817 3079 
Q 1281 3584 2069 3584 
Q 2775 3584 3186 3129 
Q 3597 2675 3597 1894 
z
M 3022 2063 
Q 3016 2534 2758 2815 
Q 2500 3097 2075 3097 
Q 1594 3097 1305 2825 
Q 1016 2553 972 2059 
L 3022 2063 
z
" id="DejaVuSans-65" transform="scale(0.015625)"/>
      </defs>
      <use xlink:href="#DejaVuSans-66"/>
      <use x="35.205078" xlink:href="#DejaVuSans-72"/>
      <use x="76.318359" xlink:href="#DejaVuSans-61"/>
      <use x="137.597656" xlink:href="#DejaVuSans-6d"/>
      <use x="235.009766" xlink:href="#DejaVuSans-65"/>
     </g>
    </g>
   </g>
   <g id="matplotlib.axis_2">
    <g id="ytick_1">
     <g id="line2d_8">
      <defs>
       <path d="M 0 0 
L -3.5 0 
" id="m5747b08df9" style="stroke:#000000;stroke-width:0.8;"/>
      </defs>
      <g>
       <use style="stroke:#000000;stroke-width:0.8;" x="50.14375" xlink:href="#m5747b08df9" y="548.393149"/>
      </g>
     </g>
     <g id="text_9">
      <!-- 2.00 -->
      <g transform="translate(20.878125 552.192367)scale(0.1 -0.1)">
       <defs>
        <path d="M 684 794 
L 1344 794 
L 1344 0 
L 684 0 
L 684 794 
z
" id="DejaVuSans-2e" transform="scale(0.015625)"/>
       </defs>
       <use xlink:href="#DejaVuSans-32"/>
       <use x="63.623047" xlink:href="#DejaVuSans-2e"/>
       <use x="95.410156" xlink:href="#DejaVuSans-30"/>
       <use x="159.033203" xlink:href="#DejaVuSans-30"/>
      </g>
     </g>
    </g>
    <g id="ytick_2">
     <g id="line2d_9">
      <g>
       <use style="stroke:#000000;stroke-width:0.8;" x="50.14375" xlink:href="#m5747b08df9" y="483.958584"/>
      </g>
     </g>
     <g id="text_10">
      <!-- 2.25 -->
      <g transform="translate(20.878125 487.757803)scale(0.1 -0.1)">
       <defs>
        <path d="M 691 4666 
L 3169 4666 
L 3169 4134 
L 1269 4134 
L 1269 2991 
Q 1406 3038 1543 3061 
Q 1681 3084 1819 3084 
Q 2600 3084 3056 2656 
Q 3513 2228 3513 1497 
Q 3513 744 3044 326 
Q 2575 -91 1722 -91 
Q 1428 -91 1123 -41 
Q 819 9 494 109 
L 494 744 
Q 775 591 1075 516 
Q 1375 441 1709 441 
Q 2250 441 2565 725 
Q 2881 1009 2881 1497 
Q 2881 1984 2565 2268 
Q 2250 2553 1709 2553 
Q 1456 2553 1204 2497 
Q 953 2441 691 2322 
L 691 4666 
z
" id="DejaVuSans-35" transform="scale(0.015625)"/>
       </defs>
       <use xlink:href="#DejaVuSans-32"/>
       <use x="63.623047" xlink:href="#DejaVuSans-2e"/>
       <use x="95.410156" xlink:href="#DejaVuSans-32"/>
       <use x="159.033203" xlink:href="#DejaVuSans-35"/>
      </g>
     </g>
    </g>
    <g id="ytick_3">
     <g id="line2d_10">
      <g>
       <use style="stroke:#000000;stroke-width:0.8;" x="50.14375" xlink:href="#m5747b08df9" y="419.52402"/>
      </g>
     </g>
     <g id="text_11">
      <!-- 2.50 -->
      <g transform="translate(20.878125 423.323238)scale(0.1 -0.1)">
       <use xlink:href="#DejaVuSans-32"/>
       <use x="63.623047" xlink:href="#DejaVuSans-2e"/>
       <use x="95.410156" xlink:href="#DejaVuSans-35"/>
       <use x="159.033203" xlink:href="#DejaVuSans-30"/>
      </g>
     </g>
    </g>
    <g id="ytick_4">
     <g id="line2d_11">
      <g>
       <use style="stroke:#000000;stroke-width:0.8;" x="50.14375" xlink:href="#m5747b08df9" y="355.089455"/>
      </g>
     </g>
     <g id="text_12">
      <!-- 2.75 -->
      <g transform="translate(20.878125 358.888674)scale(0.1 -0.1)">
       <defs>
        <path d="M 525 4666 
L 3525 4666 
L 3525 4397 
L 1831 0 
L 1172 0 
L 2766 4134 
L 525 4134 
L 525 4666 
z
" id="DejaVuSans-37" transform="scale(0.015625)"/>
       </defs>
       <use xlink:href="#DejaVuSans-32"/>
       <use x="63.623047" xlink:href="#DejaVuSans-2e"/>
       <use x="95.410156" xlink:href="#DejaVuSans-37"/>
       <use x="159.033203" xlink:href="#DejaVuSans-35"/>
      </g>
     </g>
    </g>
    <g id="ytick_5">
     <g id="line2d_12">
      <g>
       <use style="stroke:#000000;stroke-width:0.8;" x="50.14375" xlink:href="#m5747b08df9" y="290.654891"/>
      </g>
     </g>
     <g id="text_13">
      <!-- 3.00 -->
      <g transform="translate(20.878125 294.454109)scale(0.1 -0.1)">
       <defs>
        <path d="M 2597 2516 
Q 3050 2419 3304 2112 
Q 3559 1806 3559 1356 
Q 3559 666 3084 287 
Q 2609 -91 1734 -91 
Q 1441 -91 1130 -33 
Q 819 25 488 141 
L 488 750 
Q 750 597 1062 519 
Q 1375 441 1716 441 
Q 2309 441 2620 675 
Q 2931 909 2931 1356 
Q 2931 1769 2642 2001 
Q 2353 2234 1838 2234 
L 1294 2234 
L 1294 2753 
L 1863 2753 
Q 2328 2753 2575 2939 
Q 2822 3125 2822 3475 
Q 2822 3834 2567 4026 
Q 2313 4219 1838 4219 
Q 1578 4219 1281 4162 
Q 984 4106 628 3988 
L 628 4550 
Q 988 4650 1302 4700 
Q 1616 4750 1894 4750 
Q 2613 4750 3031 4423 
Q 3450 4097 3450 3541 
Q 3450 3153 3228 2886 
Q 3006 2619 2597 2516 
z
" id="DejaVuSans-33" transform="scale(0.015625)"/>
       </defs>
       <use xlink:href="#DejaVuSans-33"/>
       <use x="63.623047" xlink:href="#DejaVuSans-2e"/>
       <use x="95.410156" xlink:href="#DejaVuSans-30"/>
       <use x="159.033203" xlink:href="#DejaVuSans-30"/>
      </g>
     </g>
    </g>
    <g id="ytick_6">
     <g id="line2d_13">
      <g>
       <use style="stroke:#000000;stroke-width:0.8;" x="50.14375" xlink:href="#m5747b08df9" y="226.220326"/>
      </g>
     </g>
     <g id="text_14">
      <!-- 3.25 -->
      <g transform="translate(20.878125 230.019545)scale(0.1 -0.1)">
       <use xlink:href="#DejaVuSans-33"/>
       <use x="63.623047" xlink:href="#DejaVuSans-2e"/>
       <use x="95.410156" xlink:href="#DejaVuSans-32"/>
       <use x="159.033203" xlink:href="#DejaVuSans-35"/>
      </g>
     </g>
    </g>
    <g id="ytick_7">
     <g id="line2d_14">
      <g>
       <use style="stroke:#000000;stroke-width:0.8;" x="50.14375" xlink:href="#m5747b08df9" y="161.785762"/>
      </g>
     </g>
     <g id="text_15">
      <!-- 3.50 -->
      <g transform="translate(20.878125 165.58498)scale(0.1 -0.1)">
       <use xlink:href="#DejaVuSans-33"/>
       <use x="63.623047" xlink:href="#DejaVuSans-2e"/>
       <use x="95.410156" xlink:href="#DejaVuSans-35"/>
       <use x="159.033203" xlink:href="#DejaVuSans-30"/>
      </g>
     </g>
    </g>
    <g id="ytick_8">
     <g id="line2d_15">
      <g>
       <use style="stroke:#000000;stroke-width:0.8;" x="50.14375" xlink:href="#m5747b08df9" y="97.351197"/>
      </g>
     </g>
     <g id="text_16">
      <!-- 3.75 -->
      <g transform="translate(20.878125 101.150416)scale(0.1 -0.1)">
       <use xlink:href="#DejaVuSans-33"/>
       <use x="63.623047" xlink:href="#DejaVuSans-2e"/>
       <use x="95.410156" xlink:href="#DejaVuSans-37"/>
       <use x="159.033203" xlink:href="#DejaVuSans-35"/>
      </g>
     </g>
    </g>
    <g id="ytick_9">
     <g id="line2d_16">
      <g>
       <use style="stroke:#000000;stroke-width:0.8;" x="50.14375" xlink:href="#m5747b08df9" y="32.916633"/>
      </g>
     </g>
     <g id="text_17">
      <!-- 4.00 -->
      <g transform="translate(20.878125 36.715851)scale(0.1 -0.1)">
       <use xlink:href="#DejaVuSans-34"/>
       <use x="63.623047" xlink:href="#DejaVuSans-2e"/>
       <use x="95.410156" xlink:href="#DejaVuSans-30"/>
       <use x="159.033203" xlink:href="#DejaVuSans-30"/>
      </g>
     </g>
    </g>
    <g id="text_18">
     <!-- GCaMP -->
     <g transform="translate(14.798438 322.349446)rotate(-90)scale(0.1 -0.1)">
      <defs>
       <path d="M 3809 666 
L 3809 1919 
L 2778 1919 
L 2778 2438 
L 4434 2438 
L 4434 434 
Q 4069 175 3628 42 
Q 3188 -91 2688 -91 
Q 1594 -91 976 548 
Q 359 1188 359 2328 
Q 359 3472 976 4111 
Q 1594 4750 2688 4750 
Q 3144 4750 3555 4637 
Q 3966 4525 4313 4306 
L 4313 3634 
Q 3963 3931 3569 4081 
Q 3175 4231 2741 4231 
Q 1884 4231 1454 3753 
Q 1025 3275 1025 2328 
Q 1025 1384 1454 906 
Q 1884 428 2741 428 
Q 3075 428 3337 486 
Q 3600 544 3809 666 
z
" id="DejaVuSans-47" transform="scale(0.015625)"/>
       <path d="M 4122 4306 
L 4122 3641 
Q 3803 3938 3442 4084 
Q 3081 4231 2675 4231 
Q 1875 4231 1450 3742 
Q 1025 3253 1025 2328 
Q 1025 1406 1450 917 
Q 1875 428 2675 428 
Q 3081 428 3442 575 
Q 3803 722 4122 1019 
L 4122 359 
Q 3791 134 3420 21 
Q 3050 -91 2638 -91 
Q 1578 -91 968 557 
Q 359 1206 359 2328 
Q 359 3453 968 4101 
Q 1578 4750 2638 4750 
Q 3056 4750 3426 4639 
Q 3797 4528 4122 4306 
z
" id="DejaVuSans-43" transform="scale(0.015625)"/>
       <path d="M 628 4666 
L 1569 4666 
L 2759 1491 
L 3956 4666 
L 4897 4666 
L 4897 0 
L 4281 0 
L 4281 4097 
L 3078 897 
L 2444 897 
L 1241 4097 
L 1241 0 
L 628 0 
L 628 4666 
z
" id="DejaVuSans-4d" transform="scale(0.015625)"/>
       <path d="M 1259 4147 
L 1259 2394 
L 2053 2394 
Q 2494 2394 2734 2622 
Q 2975 2850 2975 3272 
Q 2975 3691 2734 3919 
Q 2494 4147 2053 4147 
L 1259 4147 
z
M 628 4666 
L 2053 4666 
Q 2838 4666 3239 4311 
Q 3641 3956 3641 3272 
Q 3641 2581 3239 2228 
Q 2838 1875 2053 1875 
L 1259 1875 
L 1259 0 
L 628 0 
L 628 4666 
z
" id="DejaVuSans-50" transform="scale(0.015625)"/>
      </defs>
      <use xlink:href="#DejaVuSans-47"/>
      <use x="77.490234" xlink:href="#DejaVuSans-43"/>
      <use x="147.314453" xlink:href="#DejaVuSans-61"/>
      <use x="208.59375" xlink:href="#DejaVuSans-4d"/>
      <use x="294.873047" xlink:href="#DejaVuSans-50"/>
     </g>
    </g>
   </g>
   <g id="line2d_17">
    <path clip-path="url(#p120e64d4d4)" d="M 126.234659 47.979282 
L 127.472916 58.98822 
L 128.711174 65.279436 
L 129.949431 66.225362 
L 131.187688 64.242455 
L 133.664203 59.036944 
L 134.90246 56.838374 
L 136.140717 55.737045 
L 137.378974 57.106949 
L 138.617232 61.457004 
L 139.855489 67.093113 
L 141.093746 71.545128 
L 142.332004 75.026438 
L 143.570261 81.339457 
L 144.808518 94.595857 
L 146.046775 116.04811 
L 149.761547 198.477411 
L 150.999804 215.018389 
L 152.238062 219.945505 
L 153.476319 213.158403 
L 154.714576 198.683258 
L 155.952834 186.167461 
L 157.191091 186.37262 
L 158.429348 201.914475 
L 160.905863 248.728793 
L 162.14412 266.872262 
L 167.097149 323.609103 
L 168.335406 336.366678 
L 169.573663 344.158609 
L 170.811921 345.417544 
L 172.050178 341.294478 
L 173.288435 335.006735 
L 174.526693 329.662069 
L 175.76495 326.484291 
L 177.003207 325.34713 
L 178.241464 326.544697 
L 179.479722 330.209596 
L 180.717979 334.410048 
L 181.956236 335.763182 
L 183.194493 331.818108 
L 184.432751 322.843144 
L 185.671008 312.834528 
L 186.909265 308.42422 
L 188.147522 314.014529 
L 189.38578 327.945337 
L 190.624037 344.82082 
L 191.862294 359.794601 
L 193.100552 370.480001 
L 194.338809 377.141903 
L 195.577066 381.268334 
L 196.815323 383.624936 
L 198.053581 384.279747 
L 200.530095 383.696551 
L 201.768352 383.941825 
L 203.00661 384.99571 
L 204.244867 387.440633 
L 205.483124 390.134556 
L 206.721381 388.358012 
L 207.959639 375.351175 
L 209.197896 347.117254 
L 211.674411 267.878508 
L 212.912668 241.510407 
L 214.150925 233.579566 
L 215.389182 241.039978 
L 216.62744 258.248699 
L 217.865697 281.196653 
L 220.342211 332.305437 
L 221.580469 354.002854 
L 222.818726 370.519625 
L 224.056983 381.318918 
L 225.29524 386.561768 
L 226.533498 387.343831 
L 227.771755 384.814582 
L 229.010012 379.181995 
L 231.486527 361.704835 
L 232.724784 355.714288 
L 233.963041 356.869752 
L 235.201299 366.315323 
L 237.677813 393.80224 
L 238.91607 403.042373 
L 240.154328 407.623412 
L 241.392585 409.137282 
L 242.630842 409.478943 
L 243.8691 409.650595 
L 246.345614 410.66514 
L 247.583871 409.234695 
L 248.822129 402.325597 
L 250.060386 387.494306 
L 252.5369 342.332593 
L 253.775158 326.622852 
L 255.013415 324.084051 
L 256.251672 333.497985 
L 257.489929 350.539634 
L 261.204701 412.246081 
L 262.442959 425.101057 
L 263.681216 432.99829 
L 264.919473 437.600445 
L 266.15773 438.740615 
L 267.395988 435.535331 
L 268.634245 427.613908 
L 269.872502 415.005577 
L 271.110759 399.600165 
L 272.349017 386.665681 
L 273.587274 381.899843 
L 274.825531 386.262654 
L 276.063788 395.91592 
L 278.540303 417.428372 
L 279.77856 426.272353 
L 281.016818 431.98391 
L 282.255075 433.118359 
L 283.493332 428.704126 
L 284.731589 418.271975 
L 285.969847 401.954611 
L 287.208104 380.83522 
L 292.161133 284.763619 
L 293.39939 267.040973 
L 294.637647 256.377141 
L 295.875905 253.511017 
L 297.114162 255.292872 
L 298.352419 256.382354 
L 299.590677 253.288756 
L 300.828934 246.141959 
L 302.067191 237.386707 
L 303.305448 230.027202 
L 304.543706 226.792102 
L 305.781963 229.522771 
L 307.02022 237.831251 
L 308.258477 248.580839 
L 309.496735 258.255818 
L 310.734992 265.333399 
L 311.973249 269.766733 
L 313.211506 273.003394 
L 314.449764 278.624941 
L 315.688021 289.234274 
L 318.164536 319.108274 
L 320.64105 351.688289 
L 323.117565 386.695486 
L 324.355822 401.451761 
L 325.594079 412.536103 
L 326.832336 420.245044 
L 329.308851 431.536103 
L 330.547108 436.778677 
L 331.785366 439.973138 
L 333.023623 439.162504 
L 334.26188 433.61979 
L 336.738395 416.306545 
L 337.976652 411.297111 
L 339.214909 411.506507 
L 341.691424 420.389096 
L 342.929681 421.940922 
L 344.167938 420.140628 
L 345.406195 417.797823 
L 346.644453 418.213622 
L 347.88271 422.306177 
L 349.120967 427.733767 
L 350.359225 430.918323 
L 351.597482 430.134868 
L 354.073996 423.263803 
L 355.312254 421.621912 
L 356.550511 421.547541 
L 357.788768 422.446662 
L 359.027025 424.807145 
L 360.265283 430.069852 
L 361.50354 439.407131 
L 362.741797 452.326938 
L 365.218312 480.04 
L 366.456569 490.344873 
L 367.694826 496.358881 
L 368.933084 498.294867 
L 370.171341 497.684355 
L 371.409598 496.214447 
L 372.647855 494.933686 
L 373.886113 494.243573 
L 375.12437 493.845145 
L 376.362627 493.053211 
L 377.600884 491.87658 
L 378.839142 491.02049 
L 380.077399 490.836308 
L 381.315656 491.574305 
L 382.553913 493.776763 
L 385.030428 500.302469 
L 386.268685 501.97275 
L 387.506943 501.622909 
L 388.7452 499.54926 
L 389.983457 496.745514 
L 391.221714 493.632806 
L 392.459972 489.432637 
L 393.698229 484.212053 
L 394.936486 480.754633 
L 396.174743 482.877656 
L 397.413001 491.925069 
L 398.651258 505.743192 
L 399.889515 520.859142 
L 401.127772 534.606806 
L 402.36603 545.759165 
L 403.604287 554.178431 
L 404.842544 559.638256 
L 406.080802 561.202423 
L 407.319059 558.198734 
L 408.557316 551.344739 
L 409.795573 542.257078 
L 413.510345 511.712314 
L 414.748602 503.204136 
L 415.98686 496.24809 
L 417.225117 492.062299 
L 418.463374 492.464129 
L 419.701632 497.017524 
L 420.939889 502.228586 
L 422.178146 504.579682 
L 423.416403 503.527752 
L 425.892918 498.385905 
L 427.131175 496.362033 
L 428.369432 494.790809 
L 429.60769 494.247786 
L 430.845947 496.206242 
L 432.084204 501.586639 
L 434.560719 516.865151 
L 435.798976 522.585096 
L 437.037233 526.180648 
L 438.275491 527.679423 
L 439.513748 526.634477 
L 440.752005 522.86376 
L 443.22852 512.276893 
L 444.466777 508.663147 
L 445.705034 505.871278 
L 446.943291 503.751088 
L 448.181549 504.290421 
L 449.419806 509.031953 
L 450.658063 516.378629 
L 451.89632 522.793238 
L 453.134578 525.539441 
L 454.372835 523.539531 
L 455.611092 516.856589 
L 456.84935 506.456648 
L 458.087607 494.590836 
L 459.325864 484.541226 
L 460.564121 478.621722 
L 461.802379 476.37535 
L 463.040636 475.20131 
L 464.278893 472.844674 
L 465.51715 469.440538 
L 466.755408 467.045112 
L 467.993665 467.478554 
L 469.231922 470.657538 
L 470.470179 474.266755 
L 471.708437 475.582065 
L 472.946694 474.098255 
L 474.184951 471.434348 
L 475.423209 469.275559 
L 476.661466 468.427362 
L 477.899723 468.775057 
L 480.376238 470.30329 
L 481.614495 470.544735 
L 482.852752 469.613601 
L 485.329267 464.888286 
L 486.567524 463.581299 
L 487.805781 462.943789 
L 489.044038 461.642421 
L 490.282296 459.508335 
L 491.520553 457.733852 
L 492.75881 457.43487 
L 493.997068 458.893885 
L 495.235325 461.691627 
L 496.473582 464.811344 
L 497.711839 467.191829 
L 498.950097 468.791631 
L 500.188354 470.62053 
L 501.426611 473.279869 
L 503.903126 479.737616 
L 507.617897 490.879792 
L 508.856155 493.285577 
L 510.094412 493.348711 
L 511.332669 490.063504 
L 512.570927 485.047342 
L 513.809184 482.176167 
L 515.047441 484.155839 
L 516.285698 490.626559 
L 517.523956 499.785466 
L 520.00047 519.626107 
L 521.238727 526.769964 
L 522.476985 530.509459 
L 523.715242 531.174175 
L 524.953499 529.72743 
L 527.430014 525.008206 
L 528.668271 523.724719 
L 529.906528 522.745392 
L 531.144786 520.139149 
L 532.383043 514.457156 
L 533.6213 506.214255 
L 536.097815 487.259554 
L 538.574329 468.17325 
L 539.812586 460.731998 
L 541.050844 455.426635 
L 542.289101 451.954271 
L 543.527358 450.727743 
L 544.765616 452.656265 
L 547.24213 462.069868 
L 548.480387 465.560957 
L 549.718645 467.507275 
L 550.956902 468.849264 
L 552.195159 470.407064 
L 553.433416 472.435117 
L 554.671674 475.081407 
L 557.148188 481.623642 
L 558.386445 483.3239 
L 559.624703 481.96194 
L 560.86296 477.17718 
L 563.339475 462.807571 
L 564.577732 456.911449 
L 565.815989 454.660822 
L 567.054246 458.185691 
L 568.292504 467.569106 
L 570.769018 492.149393 
L 572.007275 501.085625 
L 573.245533 505.326949 
L 574.48379 504.816527 
L 575.722047 501.962531 
L 576.960304 500.187993 
L 578.198562 500.782955 
L 579.436819 502.397199 
L 580.675076 503.784619 
L 581.913334 505.91553 
L 583.151591 510.299702 
L 584.389848 515.995389 
L 585.628105 520.222488 
L 586.866363 521.623514 
L 588.10462 521.252326 
L 589.342877 520.453961 
L 590.581134 519.056141 
L 591.819392 515.84908 
L 593.057649 510.104857 
L 596.772421 487.118298 
L 598.010678 480.791707 
L 599.248935 476.651394 
L 600.487193 476.394957 
L 601.72545 480.255953 
L 602.963707 486.589327 
L 605.440222 500.059414 
L 606.678479 505.185086 
L 607.916736 507.366263 
L 609.154993 505.734624 
L 610.393251 500.787911 
L 611.631508 493.533243 
L 616.584537 459.631687 
L 617.822794 453.570718 
L 619.061052 452.593825 
L 620.299309 457.948249 
L 622.775823 477.207358 
L 624.014081 483.286836 
L 625.252338 485.404872 
L 626.490595 484.838477 
L 627.728852 483.485119 
L 628.96711 483.564438 
L 630.205367 486.486464 
L 632.681882 497.099558 
L 633.920139 499.000603 
L 635.158396 495.686174 
L 637.634911 481.182524 
L 638.873168 476.060315 
L 640.111425 475.440998 
L 641.349682 480.632448 
L 643.826197 499.64531 
L 645.064454 505.504764 
L 646.302711 507.113523 
L 647.540969 506.630931 
L 648.779226 506.623931 
L 650.017483 508.515549 
L 651.255741 512.863008 
L 652.493998 519.522443 
L 653.732255 526.947368 
L 654.970512 532.556782 
L 656.20877 534.693979 
L 657.447027 533.602958 
L 658.685284 530.570488 
L 659.923541 527.124898 
L 661.161799 524.605488 
L 662.400056 523.38662 
L 663.638313 522.507443 
L 666.114828 519.602055 
L 667.353085 519.249686 
L 668.591342 520.506231 
L 669.8296 523.638538 
L 671.067857 528.611132 
L 673.544371 540.390794 
L 674.782629 543.550557 
L 676.020886 542.911405 
L 677.259143 539.088345 
L 678.4974 534.093707 
L 679.735658 530.028035 
L 680.973915 527.628882 
L 682.212172 526.025613 
L 683.450429 523.987647 
L 684.688687 521.009082 
L 685.926944 517.640106 
L 687.165201 515.037688 
L 689.641716 512.063945 
L 690.879973 509.163837 
L 692.11823 504.860799 
L 694.594745 495.784533 
L 695.833002 492.076774 
L 697.071259 489.23712 
L 698.309517 487.500882 
L 699.547774 486.318818 
L 700.786031 483.844692 
L 702.024289 477.816636 
L 703.262546 466.698656 
L 704.500803 449.611156 
L 705.73906 426.652304 
L 706.977318 400.657649 
L 708.215575 377.357513 
L 709.453832 361.988174 
L 710.692089 355.766643 
L 711.930347 356.120195 
L 713.168604 359.640613 
L 714.406861 364.4706 
L 715.645118 370.688448 
L 716.883376 378.859896 
L 719.35989 398.846824 
L 724.312919 441.247608 
L 725.551177 450.273572 
L 726.789434 458.018849 
L 728.027691 463.967807 
L 729.265948 467.083625 
L 730.504206 466.073039 
L 731.742463 460.251351 
L 732.98072 451.533402 
L 734.218977 444.199001 
L 735.457235 440.906611 
L 736.695492 440.561113 
L 737.933749 441.181997 
L 739.172007 443.146233 
L 740.410264 448.052308 
L 741.648521 455.671835 
L 745.363293 480.564239 
L 746.60155 487.45251 
L 747.839807 489.958839 
L 749.078065 485.980487 
L 750.316322 476.82719 
L 751.554579 465.938558 
L 752.792836 456.045682 
L 754.031094 448.270535 
L 755.269351 443.396583 
L 756.507608 442.359435 
L 757.745866 444.826647 
L 758.984123 448.539916 
L 760.22238 450.880901 
L 762.698895 451.302838 
L 763.937152 454.549353 
L 766.413666 467.782594 
L 767.651924 471.345957 
L 768.890181 470.400387 
L 770.128438 466.4667 
L 771.366695 463.358004 
L 772.604953 464.664717 
L 773.84321 470.73297 
L 775.081467 478.309868 
L 776.319725 483.201476 
L 777.557982 483.050801 
L 778.796239 478.699798 
L 780.034496 473.455298 
L 781.272754 469.903373 
L 782.511011 468.108339 
L 783.749268 467.292207 
L 784.987525 466.925168 
L 786.225783 466.382035 
L 787.46404 465.610404 
L 788.702297 465.436607 
L 789.940554 466.397078 
L 792.417069 470.021637 
L 793.655326 471.867767 
L 794.893584 473.111289 
L 796.131841 472.208288 
L 797.370098 467.963464 
L 798.608355 461.522476 
L 799.846613 455.768583 
L 801.08487 452.843134 
L 802.323127 452.762934 
L 803.561384 454.066246 
L 806.037899 457.241042 
L 807.276156 459.135043 
L 812.229185 467.75558 
L 813.467443 468.877988 
L 814.7057 468.98074 
L 815.943957 468.355846 
L 817.182214 467.554119 
L 818.420472 466.506098 
L 819.658729 464.112841 
L 820.896986 459.288162 
L 823.373501 445.12826 
L 824.611758 439.575717 
L 825.850015 437.414558 
L 827.088273 439.581696 
L 828.32653 445.392831 
L 829.564787 452.135076 
L 830.803044 456.222256 
L 832.041302 455.404367 
L 833.279559 450.165111 
L 834.517816 443.10276 
L 835.756073 437.045151 
L 836.994331 433.56175 
L 838.232588 432.701934 
L 839.470845 433.676416 
L 840.709102 435.889713 
L 841.94736 439.385352 
L 845.662132 453.566735 
L 846.900389 456.730178 
L 848.138646 459.143987 
L 850.615161 463.08583 
L 851.853418 464.513123 
L 853.091675 464.933831 
L 854.329932 463.994665 
L 856.806447 459.950343 
L 858.044704 459.251061 
L 859.282961 460.517066 
L 860.521219 462.677379 
L 861.759476 464.111645 
L 862.997733 464.215543 
L 864.235991 463.610687 
L 865.474248 463.345098 
L 866.712505 463.678583 
L 867.950762 463.685809 
L 869.18902 462.384718 
L 870.427277 459.933671 
L 872.903791 454.580941 
L 874.142049 452.536998 
L 875.380306 451.318022 
L 876.618563 450.347731 
L 877.85682 448.754393 
L 881.571592 441.843407 
L 882.80985 440.967904 
L 884.048107 441.57594 
L 885.286364 443.258009 
L 889.001136 449.27629 
L 890.239393 449.890603 
L 891.47765 448.155797 
L 893.954165 441.310922 
L 895.192422 438.235402 
L 896.43068 434.23058 
L 897.668937 428.021622 
L 898.907194 419.273506 
L 900.145451 409.076599 
L 901.383709 400.5969 
L 902.621966 398.101501 
L 903.860223 403.854066 
L 905.09848 416.017848 
L 907.574995 443.382311 
L 908.813252 453.869942 
L 910.051509 461.38414 
L 911.289767 465.320016 
L 912.528024 465.566212 
L 913.766281 463.074404 
L 915.004539 458.945315 
L 917.481053 448.159503 
L 918.71931 442.835172 
L 921.195825 434.042599 
L 922.434082 429.969108 
L 923.672339 426.447399 
L 924.910597 424.165088 
L 926.148854 423.33913 
L 927.387111 423.860004 
L 928.625368 425.528674 
L 929.863626 427.976279 
L 931.101883 430.992061 
L 932.34014 434.754246 
L 933.578398 439.218078 
L 934.816655 442.986641 
L 936.054912 443.243035 
L 937.293169 437.973232 
L 938.531427 428.281854 
L 939.769684 417.554642 
L 941.007941 408.566925 
L 942.246198 402.210049 
L 943.484456 397.63547 
L 944.722713 392.414097 
L 945.96097 384.360408 
L 948.437485 363.934655 
L 949.675742 356.758001 
L 950.913999 353.812869 
L 952.152257 355.146815 
L 953.390514 359.566409 
L 954.628771 365.084269 
L 955.867028 369.479052 
L 957.105286 371.246341 
L 958.343543 370.300883 
L 959.5818 367.349122 
L 960.820057 363.057278 
L 962.058315 358.221492 
L 963.296572 354.078325 
L 964.534829 352.252966 
L 965.773086 354.371335 
L 967.011344 360.791344 
L 969.487858 377.978279 
L 970.726116 383.342832 
L 973.20263 387.935703 
L 974.440887 393.216516 
L 976.917402 411.314578 
L 978.155659 417.617289 
L 979.393916 418.995169 
L 980.632174 415.975641 
L 981.870431 410.527872 
L 985.585203 391.717621 
L 986.82346 387.542125 
L 988.061717 384.157419 
L 989.299975 381.293806 
L 990.538232 380.669059 
L 991.776489 383.634344 
L 993.014746 388.793651 
L 994.253004 393.379034 
L 995.491261 395.926803 
L 996.729518 397.069784 
L 997.967775 398.468736 
L 999.206033 401.195316 
L 1001.682547 408.854281 
L 1002.920805 411.258 
L 1004.159062 411.254018 
L 1005.397319 410.186517 
L 1006.635576 410.815146 
L 1007.873834 414.25039 
L 1009.112091 419.584778 
L 1010.350348 426.02008 
L 1011.588605 433.751643 
L 1012.826863 442.72012 
L 1014.06512 450.856326 
L 1015.303377 454.746716 
L 1016.541634 453.159827 
L 1017.779892 448.173135 
L 1019.018149 442.302388 
L 1020.256406 437.079085 
L 1021.494664 434.193996 
L 1022.732921 435.241557 
L 1023.971178 439.895956 
L 1027.68595 457.482592 
L 1030.162464 472.055244 
L 1031.400722 474.767463 
L 1032.638979 470.452192 
L 1033.877236 459.263884 
L 1037.592008 414.107677 
L 1038.830265 404.585804 
L 1040.068523 399.934479 
L 1041.30678 398.980101 
L 1043.783294 400.44877 
L 1045.021552 400.32874 
L 1046.259809 400.473176 
L 1047.498066 403.194618 
L 1048.736323 409.445846 
L 1049.974581 417.695822 
L 1051.212838 424.556308 
L 1052.451095 425.820411 
L 1053.689352 419.112446 
L 1054.92761 406.344962 
L 1056.165867 392.389324 
L 1057.404124 381.439397 
L 1058.642382 374.208077 
L 1059.880639 367.660618 
L 1061.118896 358.209872 
L 1063.595411 332.229089 
L 1064.833668 322.516891 
L 1066.071925 318.606402 
L 1067.310182 320.863373 
L 1068.54844 328.133172 
L 1071.024954 349.267956 
L 1072.263211 359.865007 
L 1073.501469 368.286828 
L 1074.739726 372.085459 
L 1075.977983 370.198848 
L 1077.216241 363.34873 
L 1078.454498 351.961239 
L 1080.931012 322.661816 
L 1082.16927 315.66019 
L 1083.407527 320.30459 
L 1084.645784 335.410871 
L 1087.122299 374.311597 
L 1088.360556 389.348734 
L 1089.598813 399.23908 
L 1090.837071 404.256934 
L 1092.075328 405.932373 
L 1093.313585 406.285361 
L 1094.551842 406.393081 
L 1095.7901 405.222641 
L 1097.028357 400.870024 
L 1099.504871 385.656212 
L 1100.743129 381.134707 
L 1101.981386 381.368219 
L 1103.219643 384.971116 
L 1104.4579 389.79913 
L 1105.696158 395.374191 
L 1106.934415 402.422041 
L 1109.41093 419.333044 
L 1110.649187 423.168824 
L 1111.887444 419.410319 
L 1114.363959 400.041015 
L 1115.602216 395.739613 
L 1116.840473 397.971427 
L 1119.316988 410.492169 
L 1120.555245 414.084288 
L 1121.793502 415.03776 
L 1123.031759 414.538323 
L 1124.270017 412.700694 
L 1125.508274 408.564473 
L 1126.746531 401.996745 
L 1127.984789 394.566013 
L 1129.223046 388.321766 
L 1130.461303 385.296179 
L 1131.69956 387.491759 
L 1132.937818 395.122144 
L 1135.414332 415.709547 
L 1136.652589 423.499072 
L 1137.890847 427.914921 
L 1139.129104 427.875607 
L 1140.367361 423.161471 
L 1141.605618 415.11809 
L 1144.082133 397.049571 
L 1145.32039 389.397927 
L 1146.558648 383.274594 
L 1147.796905 379.256649 
L 1149.035162 378.012662 
L 1150.273419 379.698836 
L 1151.511677 383.675341 
L 1152.749934 388.677412 
L 1153.988191 393.08206 
L 1155.226448 395.799334 
L 1157.702963 398.858067 
L 1158.94122 399.974353 
L 1160.179477 399.683807 
L 1161.417735 397.501705 
L 1162.655992 393.285131 
L 1163.894249 387.479602 
L 1165.132507 382.246553 
L 1166.370764 381.089642 
L 1167.609021 385.82038 
L 1170.085536 402.056965 
L 1171.323793 407.645562 
L 1172.56205 411.453133 
L 1173.800307 414.014978 
L 1175.038565 414.460803 
L 1176.276822 411.879374 
L 1177.515079 407.214374 
L 1178.753337 402.998542 
L 1179.991594 401.582489 
L 1181.229851 403.410166 
L 1183.706366 410.461485 
L 1184.944623 413.201648 
L 1186.18288 414.460711 
L 1187.421137 412.913573 
L 1188.659395 407.680256 
L 1191.135909 392.356737 
L 1192.374166 387.458787 
L 1193.612424 385.32993 
L 1194.850681 384.282051 
L 1196.088938 382.117779 
L 1197.327196 377.950736 
L 1198.565453 372.808304 
L 1199.80371 368.196733 
L 1201.041967 364.950643 
L 1202.280225 363.141333 
L 1203.518482 361.868196 
L 1204.756739 359.557547 
L 1205.994996 355.861142 
L 1207.233254 352.842829 
L 1208.471511 353.142124 
L 1209.709768 357.772455 
L 1213.42454 381.001802 
L 1214.662797 385.402305 
L 1215.901055 388.491889 
L 1217.139312 391.245927 
L 1218.377569 393.63519 
L 1219.615826 395.207756 
L 1220.854084 395.952725 
L 1223.330598 396.436322 
L 1224.568855 396.521355 
L 1225.807113 396.444105 
L 1227.04537 396.571041 
L 1228.283627 397.260518 
L 1229.521884 398.843648 
L 1230.760142 401.457988 
L 1231.998399 403.687986 
L 1233.236656 402.859861 
L 1234.474914 397.35817 
L 1235.713171 387.752782 
L 1238.189685 364.677569 
L 1239.427943 355.719678 
L 1240.6662 349.870324 
L 1241.904457 347.000326 
L 1243.142714 348.233673 
L 1244.380972 354.974358 
L 1246.857486 376.695079 
L 1248.095743 383.557236 
L 1249.334001 384.926306 
L 1250.572258 381.759755 
L 1251.810515 375.888075 
L 1253.048773 369.269759 
L 1254.28703 363.851378 
L 1255.525287 360.480925 
L 1258.001802 356.928631 
L 1259.240059 353.845234 
L 1260.478316 349.157218 
L 1261.716573 345.241836 
L 1262.954831 345.52136 
L 1264.193088 351.777285 
L 1266.669603 373.417794 
L 1267.90786 380.512491 
L 1269.146117 382.115185 
L 1270.384374 379.431781 
L 1272.860889 371.053818 
L 1274.099146 366.246086 
L 1276.575661 352.869722 
L 1277.813918 348.41274 
L 1279.052175 348.417745 
L 1280.290432 352.204948 
L 1281.52869 357.385766 
L 1282.766947 361.859601 
L 1284.005204 364.572177 
L 1285.243462 365.179187 
L 1286.481719 363.796786 
L 1287.719976 361.233868 
L 1288.958233 359.004568 
L 1290.196491 358.448347 
L 1291.434748 359.697392 
L 1292.673005 361.707956 
L 1293.911262 363.166084 
L 1295.14952 363.121059 
L 1296.387777 361.050373 
L 1297.626034 356.849541 
L 1300.102549 345.288359 
L 1301.340806 341.406895 
L 1302.579063 340.369104 
L 1303.817321 341.63938 
L 1305.055578 343.477808 
L 1306.293835 344.101803 
L 1307.532092 343.230435 
L 1308.77035 341.403918 
L 1310.008607 338.759007 
L 1311.246864 335.767828 
L 1312.485121 334.038003 
L 1313.723379 335.297593 
L 1314.961636 339.497913 
L 1316.199893 345.101059 
L 1317.43815 351.552439 
L 1318.676408 359.586769 
L 1319.914665 368.573406 
L 1321.152922 375.956077 
L 1322.39118 380.264192 
L 1326.105951 387.277689 
L 1327.344209 388.08215 
L 1328.582466 385.764684 
L 1329.820723 380.446931 
L 1331.05898 374.253765 
L 1332.297238 369.304102 
L 1333.535495 366.047727 
L 1334.773752 364.567946 
L 1336.012009 365.738445 
L 1337.250267 369.028932 
L 1338.488524 371.543164 
L 1339.726781 370.899675 
L 1340.965039 366.734149 
L 1342.203296 359.506667 
L 1343.441553 349.801774 
L 1345.918068 328.048719 
L 1347.156325 320.584417 
L 1348.394582 317.513694 
L 1349.632839 318.01615 
L 1352.109354 322.299001 
L 1353.347611 323.66944 
L 1354.585868 324.249552 
L 1355.824126 323.198473 
L 1357.062383 319.598545 
L 1358.30064 314.388825 
L 1359.538898 310.04101 
L 1360.777155 308.04999 
L 1362.015412 307.75829 
L 1363.253669 307.999744 
L 1364.491927 308.563849 
L 1365.730184 309.699246 
L 1366.968441 311.517726 
L 1368.206698 313.656011 
L 1369.444956 315.063808 
L 1370.683213 315.084106 
L 1371.92147 314.06069 
L 1373.159728 312.290814 
L 1374.397985 310.089684 
L 1375.636242 308.608418 
L 1376.874499 309.052741 
L 1378.112757 312.055995 
L 1379.351014 318.495745 
L 1380.589271 329.453341 
L 1383.065786 359.253321 
L 1384.304043 370.478112 
L 1385.5423 375.866469 
L 1386.780557 375.582311 
L 1388.018815 370.481511 
L 1389.257072 361.975666 
L 1390.495329 352.604052 
L 1391.733587 344.327253 
L 1392.971844 337.220517 
L 1394.210101 331.29776 
L 1395.448358 327.330282 
L 1396.686616 325.410253 
L 1397.924873 324.739819 
L 1399.16313 324.861811 
L 1400.401387 325.946513 
L 1401.639645 327.758812 
L 1402.877902 329.048754 
L 1404.116159 328.065894 
L 1405.354416 323.645373 
L 1406.592674 316.011322 
L 1407.830931 307.15833 
L 1409.069188 300.76122 
L 1410.307446 299.926521 
L 1411.545703 304.262593 
L 1414.022217 316.909378 
L 1415.260475 321.926061 
L 1416.498732 325.836226 
L 1417.736989 328.666767 
L 1418.975246 330.372364 
L 1420.213504 331.248222 
L 1421.451761 330.631977 
L 1422.690018 326.293812 
L 1423.928275 317.604998 
L 1425.166533 307.802195 
L 1426.40479 301.60351 
L 1427.643047 302.215821 
L 1428.881305 310.166751 
L 1431.357819 334.009257 
L 1432.596076 338.831051 
L 1433.834334 334.506723 
L 1435.072591 322.857542 
L 1436.310848 308.726657 
L 1437.549105 296.694611 
L 1438.787363 289.038749 
L 1440.02562 285.862873 
L 1441.263877 285.640974 
L 1442.502134 285.810014 
L 1443.740392 284.788483 
L 1444.978649 284.204928 
L 1446.216906 287.437907 
L 1447.455164 295.31717 
L 1449.931678 316.629662 
L 1451.169935 327.383996 
L 1452.408193 335.544384 
L 1453.64645 338.722617 
L 1454.884707 336.691017 
L 1456.122964 330.69045 
L 1457.361222 322.054451 
L 1461.075994 290.918661 
L 1462.314251 286.307456 
L 1463.552508 287.839746 
L 1464.790765 293.782344 
L 1466.029023 300.923095 
L 1467.26728 305.861034 
L 1468.505537 306.905315 
L 1469.743794 305.223169 
L 1470.982052 303.092768 
L 1472.220309 301.756901 
L 1473.458566 301.124568 
L 1474.696823 300.340542 
L 1475.935081 298.288405 
L 1477.173338 294.109343 
L 1478.411595 288.463049 
L 1479.649853 284.181839 
L 1480.88811 284.289043 
L 1482.126367 289.287667 
L 1483.364624 296.478292 
L 1484.602882 301.40818 
L 1485.841139 300.00631 
L 1487.079396 290.476569 
L 1489.555911 257.880113 
L 1490.794168 245.356781 
L 1492.032425 240.907679 
L 1493.270682 245.848211 
L 1494.50894 259.960757 
L 1495.747197 281.958668 
L 1496.985454 307.243458 
L 1498.223712 327.74479 
L 1499.461969 336.930015 
L 1500.700226 334.272448 
L 1503.176741 314.25346 
L 1504.414998 306.411492 
L 1505.653255 301.675701 
L 1506.891512 299.22337 
L 1508.12977 298.39646 
L 1509.368027 299.602896 
L 1510.606284 303.309276 
L 1511.844541 307.930633 
L 1513.082799 310.74501 
L 1514.321056 310.778832 
L 1515.559313 308.969768 
L 1516.797571 306.100407 
L 1518.035828 301.572361 
L 1519.274085 294.63197 
L 1520.512342 286.276211 
L 1521.7506 278.958349 
L 1522.988857 274.880952 
L 1524.227114 274.468689 
L 1526.703629 277.844845 
L 1527.941886 278.747085 
L 1530.4184 279.165263 
L 1531.656658 279.723985 
L 1532.894915 279.689833 
L 1534.133172 276.196772 
L 1535.37143 266.618298 
L 1536.609687 252.438397 
L 1537.847944 240.339576 
L 1539.086201 237.085055 
L 1540.324459 243.708838 
L 1541.562716 256.897087 
L 1544.03923 288.923002 
L 1545.277488 299.583518 
L 1546.515745 302.815193 
L 1547.754002 299.002743 
L 1548.99226 289.408006 
L 1550.230517 275.329566 
L 1552.707031 243.011785 
L 1553.945289 232.722155 
L 1555.183546 230.095419 
L 1556.421803 234.726226 
L 1558.898318 252.169883 
L 1560.136575 254.837692 
L 1561.374832 249.799047 
L 1562.613089 238.011592 
L 1565.089604 207.803002 
L 1566.327861 196.268439 
L 1567.566119 189.587605 
L 1568.804376 188.890272 
L 1570.042633 192.640843 
L 1572.519148 201.203604 
L 1573.757405 207.49835 
L 1574.995662 219.485399 
L 1576.233919 238.326232 
L 1578.710434 284.605098 
L 1579.948691 301.167977 
L 1581.186948 304.235605 
L 1582.425206 289.531907 
L 1583.663463 258.503687 
L 1587.378235 134.167929 
L 1588.616492 107.436416 
L 1589.854749 94.912878 
L 1591.093007 94.608961 
L 1592.331264 103.126616 
L 1594.807778 128.916514 
L 1596.046036 136.552441 
L 1597.284293 139.85099 
L 1598.52255 143.848456 
L 1599.760807 151.54957 
L 1600.999065 160.996017 
L 1602.237322 168.526833 
L 1603.475579 171.837155 
L 1604.713837 170.786837 
L 1605.952094 168.792656 
L 1607.190351 173.300503 
L 1608.428608 190.352945 
L 1612.14338 272.231624 
L 1613.381637 284.148301 
L 1614.619895 280.581966 
L 1615.858152 263.093196 
L 1618.334666 214.091411 
L 1619.572924 195.548551 
L 1620.811181 182.691666 
L 1622.049438 173.688656 
L 1623.287696 167.794917 
L 1624.525953 165.387576 
L 1625.76421 166.319522 
L 1627.002467 168.619821 
L 1628.240725 168.838028 
L 1629.478982 164.568128 
L 1630.717239 156.473151 
L 1631.955496 147.354859 
L 1633.193754 140.239004 
L 1634.432011 136.454437 
L 1635.670268 134.213641 
L 1636.908526 130.790406 
L 1638.146783 126.136615 
L 1639.38504 123.161975 
L 1640.623297 125.620989 
L 1641.861555 135.176398 
L 1643.099812 150.219149 
L 1644.338069 169.541545 
L 1645.576326 195.566818 
L 1646.814584 231.213178 
L 1648.052841 274.399354 
L 1648.052841 274.399354 
" style="fill:none;stroke:#008000;stroke-linecap:square;stroke-width:1.5;"/>
   </g>
   <g id="patch_3">
    <path d="M 50.14375 586.86358 
L 50.14375 22.318125 
" style="fill:none;stroke:#000000;stroke-linecap:square;stroke-linejoin:miter;stroke-width:0.8;"/>
   </g>
   <g id="patch_4">
    <path d="M 1724.14375 586.86358 
L 1724.14375 22.318125 
" style="fill:none;stroke:#000000;stroke-linecap:square;stroke-linejoin:miter;stroke-width:0.8;"/>
   </g>
   <g id="patch_5">
    <path d="M 50.14375 586.86358 
L 1724.14375 586.86358 
" style="fill:none;stroke:#000000;stroke-linecap:square;stroke-linejoin:miter;stroke-width:0.8;"/>
   </g>
   <g id="patch_6">
    <path d="M 50.14375 22.318125 
L 1724.14375 22.318125 
" style="fill:none;stroke:#000000;stroke-linecap:square;stroke-linejoin:miter;stroke-width:0.8;"/>
   </g>
   <g id="text_19">
    <!-- before binarisation -->
    <g transform="translate(830.545 16.318125)scale(0.12 -0.12)">
     <defs>
      <path d="M 3116 1747 
Q 3116 2381 2855 2742 
Q 2594 3103 2138 3103 
Q 1681 3103 1420 2742 
Q 1159 2381 1159 1747 
Q 1159 1113 1420 752 
Q 1681 391 2138 391 
Q 2594 391 2855 752 
Q 3116 1113 3116 1747 
z
M 1159 2969 
Q 1341 3281 1617 3432 
Q 1894 3584 2278 3584 
Q 2916 3584 3314 3078 
Q 3713 2572 3713 1747 
Q 3713 922 3314 415 
Q 2916 -91 2278 -91 
Q 1894 -91 1617 61 
Q 1341 213 1159 525 
L 1159 0 
L 581 0 
L 581 4863 
L 1159 4863 
L 1159 2969 
z
" id="DejaVuSans-62" transform="scale(0.015625)"/>
      <path d="M 1959 3097 
Q 1497 3097 1228 2736 
Q 959 2375 959 1747 
Q 959 1119 1226 758 
Q 1494 397 1959 397 
Q 2419 397 2687 759 
Q 2956 1122 2956 1747 
Q 2956 2369 2687 2733 
Q 2419 3097 1959 3097 
z
M 1959 3584 
Q 2709 3584 3137 3096 
Q 3566 2609 3566 1747 
Q 3566 888 3137 398 
Q 2709 -91 1959 -91 
Q 1206 -91 779 398 
Q 353 888 353 1747 
Q 353 2609 779 3096 
Q 1206 3584 1959 3584 
z
" id="DejaVuSans-6f" transform="scale(0.015625)"/>
      <path id="DejaVuSans-20" transform="scale(0.015625)"/>
      <path d="M 603 3500 
L 1178 3500 
L 1178 0 
L 603 0 
L 603 3500 
z
M 603 4863 
L 1178 4863 
L 1178 4134 
L 603 4134 
L 603 4863 
z
" id="DejaVuSans-69" transform="scale(0.015625)"/>
      <path d="M 3513 2113 
L 3513 0 
L 2938 0 
L 2938 2094 
Q 2938 2591 2744 2837 
Q 2550 3084 2163 3084 
Q 1697 3084 1428 2787 
Q 1159 2491 1159 1978 
L 1159 0 
L 581 0 
L 581 3500 
L 1159 3500 
L 1159 2956 
Q 1366 3272 1645 3428 
Q 1925 3584 2291 3584 
Q 2894 3584 3203 3211 
Q 3513 2838 3513 2113 
z
" id="DejaVuSans-6e" transform="scale(0.015625)"/>
      <path d="M 2834 3397 
L 2834 2853 
Q 2591 2978 2328 3040 
Q 2066 3103 1784 3103 
Q 1356 3103 1142 2972 
Q 928 2841 928 2578 
Q 928 2378 1081 2264 
Q 1234 2150 1697 2047 
L 1894 2003 
Q 2506 1872 2764 1633 
Q 3022 1394 3022 966 
Q 3022 478 2636 193 
Q 2250 -91 1575 -91 
Q 1294 -91 989 -36 
Q 684 19 347 128 
L 347 722 
Q 666 556 975 473 
Q 1284 391 1588 391 
Q 1994 391 2212 530 
Q 2431 669 2431 922 
Q 2431 1156 2273 1281 
Q 2116 1406 1581 1522 
L 1381 1569 
Q 847 1681 609 1914 
Q 372 2147 372 2553 
Q 372 3047 722 3315 
Q 1072 3584 1716 3584 
Q 2034 3584 2315 3537 
Q 2597 3491 2834 3397 
z
" id="DejaVuSans-73" transform="scale(0.015625)"/>
      <path d="M 1172 4494 
L 1172 3500 
L 2356 3500 
L 2356 3053 
L 1172 3053 
L 1172 1153 
Q 1172 725 1289 603 
Q 1406 481 1766 481 
L 2356 481 
L 2356 0 
L 1766 0 
Q 1100 0 847 248 
Q 594 497 594 1153 
L 594 3053 
L 172 3053 
L 172 3500 
L 594 3500 
L 594 4494 
L 1172 4494 
z
" id="DejaVuSans-74" transform="scale(0.015625)"/>
     </defs>
     <use xlink:href="#DejaVuSans-62"/>
     <use x="63.476562" xlink:href="#DejaVuSans-65"/>
     <use x="125" xlink:href="#DejaVuSans-66"/>
     <use x="160.205078" xlink:href="#DejaVuSans-6f"/>
     <use x="221.386719" xlink:href="#DejaVuSans-72"/>
     <use x="260.25" xlink:href="#DejaVuSans-65"/>
     <use x="321.773438" xlink:href="#DejaVuSans-20"/>
     <use x="353.560547" xlink:href="#DejaVuSans-62"/>
     <use x="417.037109" xlink:href="#DejaVuSans-69"/>
     <use x="444.820312" xlink:href="#DejaVuSans-6e"/>
     <use x="508.199219" xlink:href="#DejaVuSans-61"/>
     <use x="569.478516" xlink:href="#DejaVuSans-72"/>
     <use x="610.591797" xlink:href="#DejaVuSans-69"/>
     <use x="638.375" xlink:href="#DejaVuSans-73"/>
     <use x="690.474609" xlink:href="#DejaVuSans-61"/>
     <use x="751.753906" xlink:href="#DejaVuSans-74"/>
     <use x="790.962891" xlink:href="#DejaVuSans-69"/>
     <use x="818.746094" xlink:href="#DejaVuSans-6f"/>
     <use x="879.927734" xlink:href="#DejaVuSans-6e"/>
    </g>
   </g>
  </g>
  <g id="axes_2">
   <g id="patch_7">
    <path d="M 50.14375 1264.318125 
L 1724.14375 1264.318125 
L 1724.14375 699.77267 
L 50.14375 699.77267 
z
" style="fill:#ffffff;"/>
   </g>
   <g id="matplotlib.axis_3">
    <g id="xtick_8">
     <g id="line2d_18">
      <g>
       <use style="stroke:#000000;stroke-width:0.8;" x="126.234659" xlink:href="#me8f45482a5" y="1264.318125"/>
      </g>
     </g>
     <g id="text_20">
      <!-- 0 -->
      <g transform="translate(123.053409 1278.916563)scale(0.1 -0.1)">
       <use xlink:href="#DejaVuSans-30"/>
      </g>
     </g>
    </g>
    <g id="xtick_9">
     <g id="line2d_19">
      <g>
       <use style="stroke:#000000;stroke-width:0.8;" x="373.886113" xlink:href="#me8f45482a5" y="1264.318125"/>
      </g>
     </g>
     <g id="text_21">
      <!-- 200 -->
      <g transform="translate(364.342363 1278.916563)scale(0.1 -0.1)">
       <use xlink:href="#DejaVuSans-32"/>
       <use x="63.623047" xlink:href="#DejaVuSans-30"/>
       <use x="127.246094" xlink:href="#DejaVuSans-30"/>
      </g>
     </g>
    </g>
    <g id="xtick_10">
     <g id="line2d_20">
      <g>
       <use style="stroke:#000000;stroke-width:0.8;" x="621.537566" xlink:href="#me8f45482a5" y="1264.318125"/>
      </g>
     </g>
     <g id="text_22">
      <!-- 400 -->
      <g transform="translate(611.993816 1278.916563)scale(0.1 -0.1)">
       <use xlink:href="#DejaVuSans-34"/>
       <use x="63.623047" xlink:href="#DejaVuSans-30"/>
       <use x="127.246094" xlink:href="#DejaVuSans-30"/>
      </g>
     </g>
    </g>
    <g id="xtick_11">
     <g id="line2d_21">
      <g>
       <use style="stroke:#000000;stroke-width:0.8;" x="869.18902" xlink:href="#me8f45482a5" y="1264.318125"/>
      </g>
     </g>
     <g id="text_23">
      <!-- 600 -->
      <g transform="translate(859.64527 1278.916563)scale(0.1 -0.1)">
       <use xlink:href="#DejaVuSans-36"/>
       <use x="63.623047" xlink:href="#DejaVuSans-30"/>
       <use x="127.246094" xlink:href="#DejaVuSans-30"/>
      </g>
     </g>
    </g>
    <g id="xtick_12">
     <g id="line2d_22">
      <g>
       <use style="stroke:#000000;stroke-width:0.8;" x="1116.840473" xlink:href="#me8f45482a5" y="1264.318125"/>
      </g>
     </g>
     <g id="text_24">
      <!-- 800 -->
      <g transform="translate(1107.296723 1278.916563)scale(0.1 -0.1)">
       <use xlink:href="#DejaVuSans-38"/>
       <use x="63.623047" xlink:href="#DejaVuSans-30"/>
       <use x="127.246094" xlink:href="#DejaVuSans-30"/>
      </g>
     </g>
    </g>
    <g id="xtick_13">
     <g id="line2d_23">
      <g>
       <use style="stroke:#000000;stroke-width:0.8;" x="1364.491927" xlink:href="#me8f45482a5" y="1264.318125"/>
      </g>
     </g>
     <g id="text_25">
      <!-- 1000 -->
      <g transform="translate(1351.766927 1278.916563)scale(0.1 -0.1)">
       <use xlink:href="#DejaVuSans-31"/>
       <use x="63.623047" xlink:href="#DejaVuSans-30"/>
       <use x="127.246094" xlink:href="#DejaVuSans-30"/>
       <use x="190.869141" xlink:href="#DejaVuSans-30"/>
      </g>
     </g>
    </g>
    <g id="xtick_14">
     <g id="line2d_24">
      <g>
       <use style="stroke:#000000;stroke-width:0.8;" x="1612.14338" xlink:href="#me8f45482a5" y="1264.318125"/>
      </g>
     </g>
     <g id="text_26">
      <!-- 1200 -->
      <g transform="translate(1599.41838 1278.916563)scale(0.1 -0.1)">
       <use xlink:href="#DejaVuSans-31"/>
       <use x="63.623047" xlink:href="#DejaVuSans-32"/>
       <use x="127.246094" xlink:href="#DejaVuSans-30"/>
       <use x="190.869141" xlink:href="#DejaVuSans-30"/>
      </g>
     </g>
    </g>
    <g id="text_27">
     <!-- frame -->
     <g transform="translate(872.317187 1292.594688)scale(0.1 -0.1)">
      <use xlink:href="#DejaVuSans-66"/>
      <use x="35.205078" xlink:href="#DejaVuSans-72"/>
      <use x="76.318359" xlink:href="#DejaVuSans-61"/>
      <use x="137.597656" xlink:href="#DejaVuSans-6d"/>
      <use x="235.009766" xlink:href="#DejaVuSans-65"/>
     </g>
    </g>
   </g>
   <g id="matplotlib.axis_4">
    <g id="ytick_10">
     <g id="line2d_25">
      <g>
       <use style="stroke:#000000;stroke-width:0.8;" x="50.14375" xlink:href="#m5747b08df9" y="1238.656968"/>
      </g>
     </g>
     <g id="text_28">
      <!-- 0.0 -->
      <g transform="translate(27.240625 1242.456187)scale(0.1 -0.1)">
       <use xlink:href="#DejaVuSans-30"/>
       <use x="63.623047" xlink:href="#DejaVuSans-2e"/>
       <use x="95.410156" xlink:href="#DejaVuSans-30"/>
      </g>
     </g>
    </g>
    <g id="ytick_11">
     <g id="line2d_26">
      <g>
       <use style="stroke:#000000;stroke-width:0.8;" x="50.14375" xlink:href="#m5747b08df9" y="1136.01234"/>
      </g>
     </g>
     <g id="text_29">
      <!-- 0.2 -->
      <g transform="translate(27.240625 1139.811559)scale(0.1 -0.1)">
       <use xlink:href="#DejaVuSans-30"/>
       <use x="63.623047" xlink:href="#DejaVuSans-2e"/>
       <use x="95.410156" xlink:href="#DejaVuSans-32"/>
      </g>
     </g>
    </g>
    <g id="ytick_12">
     <g id="line2d_27">
      <g>
       <use style="stroke:#000000;stroke-width:0.8;" x="50.14375" xlink:href="#m5747b08df9" y="1033.367712"/>
      </g>
     </g>
     <g id="text_30">
      <!-- 0.4 -->
      <g transform="translate(27.240625 1037.166931)scale(0.1 -0.1)">
       <use xlink:href="#DejaVuSans-30"/>
       <use x="63.623047" xlink:href="#DejaVuSans-2e"/>
       <use x="95.410156" xlink:href="#DejaVuSans-34"/>
      </g>
     </g>
    </g>
    <g id="ytick_13">
     <g id="line2d_28">
      <g>
       <use style="stroke:#000000;stroke-width:0.8;" x="50.14375" xlink:href="#m5747b08df9" y="930.723084"/>
      </g>
     </g>
     <g id="text_31">
      <!-- 0.6 -->
      <g transform="translate(27.240625 934.522302)scale(0.1 -0.1)">
       <use xlink:href="#DejaVuSans-30"/>
       <use x="63.623047" xlink:href="#DejaVuSans-2e"/>
       <use x="95.410156" xlink:href="#DejaVuSans-36"/>
      </g>
     </g>
    </g>
    <g id="ytick_14">
     <g id="line2d_29">
      <g>
       <use style="stroke:#000000;stroke-width:0.8;" x="50.14375" xlink:href="#m5747b08df9" y="828.078456"/>
      </g>
     </g>
     <g id="text_32">
      <!-- 0.8 -->
      <g transform="translate(27.240625 831.877674)scale(0.1 -0.1)">
       <use xlink:href="#DejaVuSans-30"/>
       <use x="63.623047" xlink:href="#DejaVuSans-2e"/>
       <use x="95.410156" xlink:href="#DejaVuSans-38"/>
      </g>
     </g>
    </g>
    <g id="ytick_15">
     <g id="line2d_30">
      <g>
       <use style="stroke:#000000;stroke-width:0.8;" x="50.14375" xlink:href="#m5747b08df9" y="725.433827"/>
      </g>
     </g>
     <g id="text_33">
      <!-- 1.0 -->
      <g transform="translate(27.240625 729.233046)scale(0.1 -0.1)">
       <use xlink:href="#DejaVuSans-31"/>
       <use x="63.623047" xlink:href="#DejaVuSans-2e"/>
       <use x="95.410156" xlink:href="#DejaVuSans-30"/>
      </g>
     </g>
    </g>
    <g id="text_34">
     <!-- GCaMP -->
     <g transform="translate(21.160938 999.803991)rotate(-90)scale(0.1 -0.1)">
      <use xlink:href="#DejaVuSans-47"/>
      <use x="77.490234" xlink:href="#DejaVuSans-43"/>
      <use x="147.314453" xlink:href="#DejaVuSans-61"/>
      <use x="208.59375" xlink:href="#DejaVuSans-4d"/>
      <use x="294.873047" xlink:href="#DejaVuSans-50"/>
     </g>
    </g>
   </g>
   <g id="line2d_31">
    <path clip-path="url(#p7991ea6588)" d="M 126.234659 725.433827 
L 163.382377 725.433827 
L 164.620634 1238.656968 
L 210.436153 1238.656968 
L 211.674411 725.433827 
L 217.865697 725.433827 
L 219.103954 1238.656968 
L 290.922876 1238.656968 
L 292.161133 725.433827 
L 315.688021 725.433827 
L 316.926278 1238.656968 
L 1437.549105 1238.656968 
L 1438.787363 725.433827 
L 1446.216906 725.433827 
L 1447.455164 1238.656968 
L 1461.075994 1238.656968 
L 1462.314251 725.433827 
L 1463.552508 725.433827 
L 1464.790765 1238.656968 
L 1477.173338 1238.656968 
L 1478.411595 725.433827 
L 1482.126367 725.433827 
L 1483.364624 1238.656968 
L 1487.079396 1238.656968 
L 1488.317653 725.433827 
L 1495.747197 725.433827 
L 1496.985454 1238.656968 
L 1519.274085 1238.656968 
L 1520.512342 725.433827 
L 1544.03923 725.433827 
L 1545.277488 1238.656968 
L 1547.754002 1238.656968 
L 1548.99226 725.433827 
L 1578.710434 725.433827 
L 1579.948691 1238.656968 
L 1581.186948 1238.656968 
L 1582.425206 725.433827 
L 1648.052841 725.433827 
L 1648.052841 725.433827 
" style="fill:none;stroke:#008000;stroke-linecap:square;stroke-width:1.5;"/>
   </g>
   <g id="patch_8">
    <path d="M 50.14375 1264.318125 
L 50.14375 699.77267 
" style="fill:none;stroke:#000000;stroke-linecap:square;stroke-linejoin:miter;stroke-width:0.8;"/>
   </g>
   <g id="patch_9">
    <path d="M 1724.14375 1264.318125 
L 1724.14375 699.77267 
" style="fill:none;stroke:#000000;stroke-linecap:square;stroke-linejoin:miter;stroke-width:0.8;"/>
   </g>
   <g id="patch_10">
    <path d="M 50.14375 1264.318125 
L 1724.14375 1264.318125 
" style="fill:none;stroke:#000000;stroke-linecap:square;stroke-linejoin:miter;stroke-width:0.8;"/>
   </g>
   <g id="patch_11">
    <path d="M 50.14375 699.77267 
L 1724.14375 699.77267 
" style="fill:none;stroke:#000000;stroke-linecap:square;stroke-linejoin:miter;stroke-width:0.8;"/>
   </g>
   <g id="text_35">
    <!-- before binarisation -->
    <g transform="translate(830.545 693.77267)scale(0.12 -0.12)">
     <use xlink:href="#DejaVuSans-62"/>
     <use x="63.476562" xlink:href="#DejaVuSans-65"/>
     <use x="125" xlink:href="#DejaVuSans-66"/>
     <use x="160.205078" xlink:href="#DejaVuSans-6f"/>
     <use x="221.386719" xlink:href="#DejaVuSans-72"/>
     <use x="260.25" xlink:href="#DejaVuSans-65"/>
     <use x="321.773438" xlink:href="#DejaVuSans-20"/>
     <use x="353.560547" xlink:href="#DejaVuSans-62"/>
     <use x="417.037109" xlink:href="#DejaVuSans-69"/>
     <use x="444.820312" xlink:href="#DejaVuSans-6e"/>
     <use x="508.199219" xlink:href="#DejaVuSans-61"/>
     <use x="569.478516" xlink:href="#DejaVuSans-72"/>
     <use x="610.591797" xlink:href="#DejaVuSans-69"/>
     <use x="638.375" xlink:href="#DejaVuSans-73"/>
     <use x="690.474609" xlink:href="#DejaVuSans-61"/>
     <use x="751.753906" xlink:href="#DejaVuSans-74"/>
     <use x="790.962891" xlink:href="#DejaVuSans-69"/>
     <use x="818.746094" xlink:href="#DejaVuSans-6f"/>
     <use x="879.927734" xlink:href="#DejaVuSans-6e"/>
    </g>
   </g>
  </g>
 </g>
 <defs>
  <clipPath id="p120e64d4d4">
   <rect height="564.545455" width="1674" x="50.14375" y="22.318125"/>
  </clipPath>
  <clipPath id="p7991ea6588">
   <rect height="564.545455" width="1674" x="50.14375" y="699.77267"/>
  </clipPath>
 </defs>
</svg>
