<?xml version="1.0" encoding="utf-8" standalone="no"?>
<!DOCTYPE svg PUBLIC "-//W3C//DTD SVG 1.1//EN"
  "http://www.w3.org/Graphics/SVG/1.1/DTD/svg11.dtd">
<svg height="1301.874375pt" version="1.1" viewBox="0 0 1724.98125 1301.874375" width="1724.98125pt" xmlns="http://www.w3.org/2000/svg" xmlns:xlink="http://www.w3.org/1999/xlink">
 <metadata>
  <rdf:RDF xmlns:cc="http://creativecommons.org/ns#" xmlns:dc="http://purl.org/dc/elements/1.1/" xmlns:rdf="http://www.w3.org/1999/02/22-rdf-syntax-ns#">
   <cc:Work>
    <dc:type rdf:resource="http://purl.org/dc/dcmitype/StillImage"/>
    <dc:date>2022-07-24T15:54:46.325770</dc:date>
    <dc:format>image/svg+xml</dc:format>
    <dc:creator>
     <cc:Agent>
      <dc:title>Matplotlib v3.4.2, https://matplotlib.org/</dc:title>
     </cc:Agent>
    </dc:creator>
   </cc:Work>
  </rdf:RDF>
 </metadata>
 <defs>
  <style type="text/css">*{stroke-linecap:butt;stroke-linejoin:round;}</style>
 </defs>
 <g id="figure_1">
  <g id="patch_1">
   <path d="M 0 1301.874375 
L 1724.98125 1301.874375 
L 1724.98125 0 
L 0 0 
z
" style="fill:#ffffff;"/>
  </g>
  <g id="axes_1">
   <g id="patch_2">
    <path d="M 43.78125 586.86358 
L 1717.78125 586.86358 
L 1717.78125 22.318125 
L 43.78125 22.318125 
z
" style="fill:#ffffff;"/>
   </g>
   <g id="matplotlib.axis_1">
    <g id="xtick_1">
     <g id="line2d_1">
      <defs>
       <path d="M 0 0 
L 0 3.5 
" id="mb65f4d0ca0" style="stroke:#000000;stroke-width:0.8;"/>
      </defs>
      <g>
       <use style="stroke:#000000;stroke-width:0.8;" x="119.872159" xlink:href="#mb65f4d0ca0" y="586.86358"/>
      </g>
     </g>
     <g id="text_1">
      <!-- 0 -->
      <g transform="translate(116.690909 601.462017)scale(0.1 -0.1)">
       <defs>
        <path d="M 2034 4250 
Q 1547 4250 1301 3770 
Q 1056 3291 1056 2328 
Q 1056 1369 1301 889 
Q 1547 409 2034 409 
Q 2525 409 2770 889 
Q 3016 1369 3016 2328 
Q 3016 3291 2770 3770 
Q 2525 4250 2034 4250 
z
M 2034 4750 
Q 2819 4750 3233 4129 
Q 3647 3509 3647 2328 
Q 3647 1150 3233 529 
Q 2819 -91 2034 -91 
Q 1250 -91 836 529 
Q 422 1150 422 2328 
Q 422 3509 836 4129 
Q 1250 4750 2034 4750 
z
" id="DejaVuSans-30" transform="scale(0.015625)"/>
       </defs>
       <use xlink:href="#DejaVuSans-30"/>
      </g>
     </g>
    </g>
    <g id="xtick_2">
     <g id="line2d_2">
      <g>
       <use style="stroke:#000000;stroke-width:0.8;" x="367.523613" xlink:href="#mb65f4d0ca0" y="586.86358"/>
      </g>
     </g>
     <g id="text_2">
      <!-- 200 -->
      <g transform="translate(357.979863 601.462017)scale(0.1 -0.1)">
       <defs>
        <path d="M 1228 531 
L 3431 531 
L 3431 0 
L 469 0 
L 469 531 
Q 828 903 1448 1529 
Q 2069 2156 2228 2338 
Q 2531 2678 2651 2914 
Q 2772 3150 2772 3378 
Q 2772 3750 2511 3984 
Q 2250 4219 1831 4219 
Q 1534 4219 1204 4116 
Q 875 4013 500 3803 
L 500 4441 
Q 881 4594 1212 4672 
Q 1544 4750 1819 4750 
Q 2544 4750 2975 4387 
Q 3406 4025 3406 3419 
Q 3406 3131 3298 2873 
Q 3191 2616 2906 2266 
Q 2828 2175 2409 1742 
Q 1991 1309 1228 531 
z
" id="DejaVuSans-32" transform="scale(0.015625)"/>
       </defs>
       <use xlink:href="#DejaVuSans-32"/>
       <use x="63.623047" xlink:href="#DejaVuSans-30"/>
       <use x="127.246094" xlink:href="#DejaVuSans-30"/>
      </g>
     </g>
    </g>
    <g id="xtick_3">
     <g id="line2d_3">
      <g>
       <use style="stroke:#000000;stroke-width:0.8;" x="615.175066" xlink:href="#mb65f4d0ca0" y="586.86358"/>
      </g>
     </g>
     <g id="text_3">
      <!-- 400 -->
      <g transform="translate(605.631316 601.462017)scale(0.1 -0.1)">
       <defs>
        <path d="M 2419 4116 
L 825 1625 
L 2419 1625 
L 2419 4116 
z
M 2253 4666 
L 3047 4666 
L 3047 1625 
L 3713 1625 
L 3713 1100 
L 3047 1100 
L 3047 0 
L 2419 0 
L 2419 1100 
L 313 1100 
L 313 1709 
L 2253 4666 
z
" id="DejaVuSans-34" transform="scale(0.015625)"/>
       </defs>
       <use xlink:href="#DejaVuSans-34"/>
       <use x="63.623047" xlink:href="#DejaVuSans-30"/>
       <use x="127.246094" xlink:href="#DejaVuSans-30"/>
      </g>
     </g>
    </g>
    <g id="xtick_4">
     <g id="line2d_4">
      <g>
       <use style="stroke:#000000;stroke-width:0.8;" x="862.82652" xlink:href="#mb65f4d0ca0" y="586.86358"/>
      </g>
     </g>
     <g id="text_4">
      <!-- 600 -->
      <g transform="translate(853.28277 601.462017)scale(0.1 -0.1)">
       <defs>
        <path d="M 2113 2584 
Q 1688 2584 1439 2293 
Q 1191 2003 1191 1497 
Q 1191 994 1439 701 
Q 1688 409 2113 409 
Q 2538 409 2786 701 
Q 3034 994 3034 1497 
Q 3034 2003 2786 2293 
Q 2538 2584 2113 2584 
z
M 3366 4563 
L 3366 3988 
Q 3128 4100 2886 4159 
Q 2644 4219 2406 4219 
Q 1781 4219 1451 3797 
Q 1122 3375 1075 2522 
Q 1259 2794 1537 2939 
Q 1816 3084 2150 3084 
Q 2853 3084 3261 2657 
Q 3669 2231 3669 1497 
Q 3669 778 3244 343 
Q 2819 -91 2113 -91 
Q 1303 -91 875 529 
Q 447 1150 447 2328 
Q 447 3434 972 4092 
Q 1497 4750 2381 4750 
Q 2619 4750 2861 4703 
Q 3103 4656 3366 4563 
z
" id="DejaVuSans-36" transform="scale(0.015625)"/>
       </defs>
       <use xlink:href="#DejaVuSans-36"/>
       <use x="63.623047" xlink:href="#DejaVuSans-30"/>
       <use x="127.246094" xlink:href="#DejaVuSans-30"/>
      </g>
     </g>
    </g>
    <g id="xtick_5">
     <g id="line2d_5">
      <g>
       <use style="stroke:#000000;stroke-width:0.8;" x="1110.477973" xlink:href="#mb65f4d0ca0" y="586.86358"/>
      </g>
     </g>
     <g id="text_5">
      <!-- 800 -->
      <g transform="translate(1100.934223 601.462017)scale(0.1 -0.1)">
       <defs>
        <path d="M 2034 2216 
Q 1584 2216 1326 1975 
Q 1069 1734 1069 1313 
Q 1069 891 1326 650 
Q 1584 409 2034 409 
Q 2484 409 2743 651 
Q 3003 894 3003 1313 
Q 3003 1734 2745 1975 
Q 2488 2216 2034 2216 
z
M 1403 2484 
Q 997 2584 770 2862 
Q 544 3141 544 3541 
Q 544 4100 942 4425 
Q 1341 4750 2034 4750 
Q 2731 4750 3128 4425 
Q 3525 4100 3525 3541 
Q 3525 3141 3298 2862 
Q 3072 2584 2669 2484 
Q 3125 2378 3379 2068 
Q 3634 1759 3634 1313 
Q 3634 634 3220 271 
Q 2806 -91 2034 -91 
Q 1263 -91 848 271 
Q 434 634 434 1313 
Q 434 1759 690 2068 
Q 947 2378 1403 2484 
z
M 1172 3481 
Q 1172 3119 1398 2916 
Q 1625 2713 2034 2713 
Q 2441 2713 2670 2916 
Q 2900 3119 2900 3481 
Q 2900 3844 2670 4047 
Q 2441 4250 2034 4250 
Q 1625 4250 1398 4047 
Q 1172 3844 1172 3481 
z
" id="DejaVuSans-38" transform="scale(0.015625)"/>
       </defs>
       <use xlink:href="#DejaVuSans-38"/>
       <use x="63.623047" xlink:href="#DejaVuSans-30"/>
       <use x="127.246094" xlink:href="#DejaVuSans-30"/>
      </g>
     </g>
    </g>
    <g id="xtick_6">
     <g id="line2d_6">
      <g>
       <use style="stroke:#000000;stroke-width:0.8;" x="1358.129427" xlink:href="#mb65f4d0ca0" y="586.86358"/>
      </g>
     </g>
     <g id="text_6">
      <!-- 1000 -->
      <g transform="translate(1345.404427 601.462017)scale(0.1 -0.1)">
       <defs>
        <path d="M 794 531 
L 1825 531 
L 1825 4091 
L 703 3866 
L 703 4441 
L 1819 4666 
L 2450 4666 
L 2450 531 
L 3481 531 
L 3481 0 
L 794 0 
L 794 531 
z
" id="DejaVuSans-31" transform="scale(0.015625)"/>
       </defs>
       <use xlink:href="#DejaVuSans-31"/>
       <use x="63.623047" xlink:href="#DejaVuSans-30"/>
       <use x="127.246094" xlink:href="#DejaVuSans-30"/>
       <use x="190.869141" xlink:href="#DejaVuSans-30"/>
      </g>
     </g>
    </g>
    <g id="xtick_7">
     <g id="line2d_7">
      <g>
       <use style="stroke:#000000;stroke-width:0.8;" x="1605.78088" xlink:href="#mb65f4d0ca0" y="586.86358"/>
      </g>
     </g>
     <g id="text_7">
      <!-- 1200 -->
      <g transform="translate(1593.05588 601.462017)scale(0.1 -0.1)">
       <use xlink:href="#DejaVuSans-31"/>
       <use x="63.623047" xlink:href="#DejaVuSans-32"/>
       <use x="127.246094" xlink:href="#DejaVuSans-30"/>
       <use x="190.869141" xlink:href="#DejaVuSans-30"/>
      </g>
     </g>
    </g>
    <g id="text_8">
     <!-- frame -->
     <g transform="translate(865.954687 615.140142)scale(0.1 -0.1)">
      <defs>
       <path d="M 2375 4863 
L 2375 4384 
L 1825 4384 
Q 1516 4384 1395 4259 
Q 1275 4134 1275 3809 
L 1275 3500 
L 2222 3500 
L 2222 3053 
L 1275 3053 
L 1275 0 
L 697 0 
L 697 3053 
L 147 3053 
L 147 3500 
L 697 3500 
L 697 3744 
Q 697 4328 969 4595 
Q 1241 4863 1831 4863 
L 2375 4863 
z
" id="DejaVuSans-66" transform="scale(0.015625)"/>
       <path d="M 2631 2963 
Q 2534 3019 2420 3045 
Q 2306 3072 2169 3072 
Q 1681 3072 1420 2755 
Q 1159 2438 1159 1844 
L 1159 0 
L 581 0 
L 581 3500 
L 1159 3500 
L 1159 2956 
Q 1341 3275 1631 3429 
Q 1922 3584 2338 3584 
Q 2397 3584 2469 3576 
Q 2541 3569 2628 3553 
L 2631 2963 
z
" id="DejaVuSans-72" transform="scale(0.015625)"/>
       <path d="M 2194 1759 
Q 1497 1759 1228 1600 
Q 959 1441 959 1056 
Q 959 750 1161 570 
Q 1363 391 1709 391 
Q 2188 391 2477 730 
Q 2766 1069 2766 1631 
L 2766 1759 
L 2194 1759 
z
M 3341 1997 
L 3341 0 
L 2766 0 
L 2766 531 
Q 2569 213 2275 61 
Q 1981 -91 1556 -91 
Q 1019 -91 701 211 
Q 384 513 384 1019 
Q 384 1609 779 1909 
Q 1175 2209 1959 2209 
L 2766 2209 
L 2766 2266 
Q 2766 2663 2505 2880 
Q 2244 3097 1772 3097 
Q 1472 3097 1187 3025 
Q 903 2953 641 2809 
L 641 3341 
Q 956 3463 1253 3523 
Q 1550 3584 1831 3584 
Q 2591 3584 2966 3190 
Q 3341 2797 3341 1997 
z
" id="DejaVuSans-61" transform="scale(0.015625)"/>
       <path d="M 3328 2828 
Q 3544 3216 3844 3400 
Q 4144 3584 4550 3584 
Q 5097 3584 5394 3201 
Q 5691 2819 5691 2113 
L 5691 0 
L 5113 0 
L 5113 2094 
Q 5113 2597 4934 2840 
Q 4756 3084 4391 3084 
Q 3944 3084 3684 2787 
Q 3425 2491 3425 1978 
L 3425 0 
L 2847 0 
L 2847 2094 
Q 2847 2600 2669 2842 
Q 2491 3084 2119 3084 
Q 1678 3084 1418 2786 
Q 1159 2488 1159 1978 
L 1159 0 
L 581 0 
L 581 3500 
L 1159 3500 
L 1159 2956 
Q 1356 3278 1631 3431 
Q 1906 3584 2284 3584 
Q 2666 3584 2933 3390 
Q 3200 3197 3328 2828 
z
" id="DejaVuSans-6d" transform="scale(0.015625)"/>
       <path d="M 3597 1894 
L 3597 1613 
L 953 1613 
Q 991 1019 1311 708 
Q 1631 397 2203 397 
Q 2534 397 2845 478 
Q 3156 559 3463 722 
L 3463 178 
Q 3153 47 2828 -22 
Q 2503 -91 2169 -91 
Q 1331 -91 842 396 
Q 353 884 353 1716 
Q 353 2575 817 3079 
Q 1281 3584 2069 3584 
Q 2775 3584 3186 3129 
Q 3597 2675 3597 1894 
z
M 3022 2063 
Q 3016 2534 2758 2815 
Q 2500 3097 2075 3097 
Q 1594 3097 1305 2825 
Q 1016 2553 972 2059 
L 3022 2063 
z
" id="DejaVuSans-65" transform="scale(0.015625)"/>
      </defs>
      <use xlink:href="#DejaVuSans-66"/>
      <use x="35.205078" xlink:href="#DejaVuSans-72"/>
      <use x="76.318359" xlink:href="#DejaVuSans-61"/>
      <use x="137.597656" xlink:href="#DejaVuSans-6d"/>
      <use x="235.009766" xlink:href="#DejaVuSans-65"/>
     </g>
    </g>
   </g>
   <g id="matplotlib.axis_2">
    <g id="ytick_1">
     <g id="line2d_8">
      <defs>
       <path d="M 0 0 
L -3.5 0 
" id="mf33cfd49fd" style="stroke:#000000;stroke-width:0.8;"/>
      </defs>
      <g>
       <use style="stroke:#000000;stroke-width:0.8;" x="43.78125" xlink:href="#mf33cfd49fd" y="504.115039"/>
      </g>
     </g>
     <g id="text_9">
      <!-- 1.0 -->
      <g transform="translate(20.878125 507.914258)scale(0.1 -0.1)">
       <defs>
        <path d="M 684 794 
L 1344 794 
L 1344 0 
L 684 0 
L 684 794 
z
" id="DejaVuSans-2e" transform="scale(0.015625)"/>
       </defs>
       <use xlink:href="#DejaVuSans-31"/>
       <use x="63.623047" xlink:href="#DejaVuSans-2e"/>
       <use x="95.410156" xlink:href="#DejaVuSans-30"/>
      </g>
     </g>
    </g>
    <g id="ytick_2">
     <g id="line2d_9">
      <g>
       <use style="stroke:#000000;stroke-width:0.8;" x="43.78125" xlink:href="#mf33cfd49fd" y="415.208488"/>
      </g>
     </g>
     <g id="text_10">
      <!-- 1.5 -->
      <g transform="translate(20.878125 419.007707)scale(0.1 -0.1)">
       <defs>
        <path d="M 691 4666 
L 3169 4666 
L 3169 4134 
L 1269 4134 
L 1269 2991 
Q 1406 3038 1543 3061 
Q 1681 3084 1819 3084 
Q 2600 3084 3056 2656 
Q 3513 2228 3513 1497 
Q 3513 744 3044 326 
Q 2575 -91 1722 -91 
Q 1428 -91 1123 -41 
Q 819 9 494 109 
L 494 744 
Q 775 591 1075 516 
Q 1375 441 1709 441 
Q 2250 441 2565 725 
Q 2881 1009 2881 1497 
Q 2881 1984 2565 2268 
Q 2250 2553 1709 2553 
Q 1456 2553 1204 2497 
Q 953 2441 691 2322 
L 691 4666 
z
" id="DejaVuSans-35" transform="scale(0.015625)"/>
       </defs>
       <use xlink:href="#DejaVuSans-31"/>
       <use x="63.623047" xlink:href="#DejaVuSans-2e"/>
       <use x="95.410156" xlink:href="#DejaVuSans-35"/>
      </g>
     </g>
    </g>
    <g id="ytick_3">
     <g id="line2d_10">
      <g>
       <use style="stroke:#000000;stroke-width:0.8;" x="43.78125" xlink:href="#mf33cfd49fd" y="326.301937"/>
      </g>
     </g>
     <g id="text_11">
      <!-- 2.0 -->
      <g transform="translate(20.878125 330.101156)scale(0.1 -0.1)">
       <use xlink:href="#DejaVuSans-32"/>
       <use x="63.623047" xlink:href="#DejaVuSans-2e"/>
       <use x="95.410156" xlink:href="#DejaVuSans-30"/>
      </g>
     </g>
    </g>
    <g id="ytick_4">
     <g id="line2d_11">
      <g>
       <use style="stroke:#000000;stroke-width:0.8;" x="43.78125" xlink:href="#mf33cfd49fd" y="237.395386"/>
      </g>
     </g>
     <g id="text_12">
      <!-- 2.5 -->
      <g transform="translate(20.878125 241.194605)scale(0.1 -0.1)">
       <use xlink:href="#DejaVuSans-32"/>
       <use x="63.623047" xlink:href="#DejaVuSans-2e"/>
       <use x="95.410156" xlink:href="#DejaVuSans-35"/>
      </g>
     </g>
    </g>
    <g id="ytick_5">
     <g id="line2d_12">
      <g>
       <use style="stroke:#000000;stroke-width:0.8;" x="43.78125" xlink:href="#mf33cfd49fd" y="148.488835"/>
      </g>
     </g>
     <g id="text_13">
      <!-- 3.0 -->
      <g transform="translate(20.878125 152.288054)scale(0.1 -0.1)">
       <defs>
        <path d="M 2597 2516 
Q 3050 2419 3304 2112 
Q 3559 1806 3559 1356 
Q 3559 666 3084 287 
Q 2609 -91 1734 -91 
Q 1441 -91 1130 -33 
Q 819 25 488 141 
L 488 750 
Q 750 597 1062 519 
Q 1375 441 1716 441 
Q 2309 441 2620 675 
Q 2931 909 2931 1356 
Q 2931 1769 2642 2001 
Q 2353 2234 1838 2234 
L 1294 2234 
L 1294 2753 
L 1863 2753 
Q 2328 2753 2575 2939 
Q 2822 3125 2822 3475 
Q 2822 3834 2567 4026 
Q 2313 4219 1838 4219 
Q 1578 4219 1281 4162 
Q 984 4106 628 3988 
L 628 4550 
Q 988 4650 1302 4700 
Q 1616 4750 1894 4750 
Q 2613 4750 3031 4423 
Q 3450 4097 3450 3541 
Q 3450 3153 3228 2886 
Q 3006 2619 2597 2516 
z
" id="DejaVuSans-33" transform="scale(0.015625)"/>
       </defs>
       <use xlink:href="#DejaVuSans-33"/>
       <use x="63.623047" xlink:href="#DejaVuSans-2e"/>
       <use x="95.410156" xlink:href="#DejaVuSans-30"/>
      </g>
     </g>
    </g>
    <g id="ytick_6">
     <g id="line2d_13">
      <g>
       <use style="stroke:#000000;stroke-width:0.8;" x="43.78125" xlink:href="#mf33cfd49fd" y="59.582284"/>
      </g>
     </g>
     <g id="text_14">
      <!-- 3.5 -->
      <g transform="translate(20.878125 63.381503)scale(0.1 -0.1)">
       <use xlink:href="#DejaVuSans-33"/>
       <use x="63.623047" xlink:href="#DejaVuSans-2e"/>
       <use x="95.410156" xlink:href="#DejaVuSans-35"/>
      </g>
     </g>
    </g>
    <g id="text_15">
     <!-- GCaMP -->
     <g transform="translate(14.798437 322.349446)rotate(-90)scale(0.1 -0.1)">
      <defs>
       <path d="M 3809 666 
L 3809 1919 
L 2778 1919 
L 2778 2438 
L 4434 2438 
L 4434 434 
Q 4069 175 3628 42 
Q 3188 -91 2688 -91 
Q 1594 -91 976 548 
Q 359 1188 359 2328 
Q 359 3472 976 4111 
Q 1594 4750 2688 4750 
Q 3144 4750 3555 4637 
Q 3966 4525 4313 4306 
L 4313 3634 
Q 3963 3931 3569 4081 
Q 3175 4231 2741 4231 
Q 1884 4231 1454 3753 
Q 1025 3275 1025 2328 
Q 1025 1384 1454 906 
Q 1884 428 2741 428 
Q 3075 428 3337 486 
Q 3600 544 3809 666 
z
" id="DejaVuSans-47" transform="scale(0.015625)"/>
       <path d="M 4122 4306 
L 4122 3641 
Q 3803 3938 3442 4084 
Q 3081 4231 2675 4231 
Q 1875 4231 1450 3742 
Q 1025 3253 1025 2328 
Q 1025 1406 1450 917 
Q 1875 428 2675 428 
Q 3081 428 3442 575 
Q 3803 722 4122 1019 
L 4122 359 
Q 3791 134 3420 21 
Q 3050 -91 2638 -91 
Q 1578 -91 968 557 
Q 359 1206 359 2328 
Q 359 3453 968 4101 
Q 1578 4750 2638 4750 
Q 3056 4750 3426 4639 
Q 3797 4528 4122 4306 
z
" id="DejaVuSans-43" transform="scale(0.015625)"/>
       <path d="M 628 4666 
L 1569 4666 
L 2759 1491 
L 3956 4666 
L 4897 4666 
L 4897 0 
L 4281 0 
L 4281 4097 
L 3078 897 
L 2444 897 
L 1241 4097 
L 1241 0 
L 628 0 
L 628 4666 
z
" id="DejaVuSans-4d" transform="scale(0.015625)"/>
       <path d="M 1259 4147 
L 1259 2394 
L 2053 2394 
Q 2494 2394 2734 2622 
Q 2975 2850 2975 3272 
Q 2975 3691 2734 3919 
Q 2494 4147 2053 4147 
L 1259 4147 
z
M 628 4666 
L 2053 4666 
Q 2838 4666 3239 4311 
Q 3641 3956 3641 3272 
Q 3641 2581 3239 2228 
Q 2838 1875 2053 1875 
L 1259 1875 
L 1259 0 
L 628 0 
L 628 4666 
z
" id="DejaVuSans-50" transform="scale(0.015625)"/>
      </defs>
      <use xlink:href="#DejaVuSans-47"/>
      <use x="77.490234" xlink:href="#DejaVuSans-43"/>
      <use x="147.314453" xlink:href="#DejaVuSans-61"/>
      <use x="208.59375" xlink:href="#DejaVuSans-4d"/>
      <use x="294.873047" xlink:href="#DejaVuSans-50"/>
     </g>
    </g>
   </g>
   <g id="line2d_14">
    <path clip-path="url(#p05c5847b3c)" d="M 119.872159 558.334048 
L 121.110416 558.846865 
L 126.063445 560.447238 
L 127.301703 560.933435 
L 128.53996 561.202423 
L 129.778217 561.155993 
L 131.016474 560.609914 
L 132.254732 559.334804 
L 134.731246 555.689723 
L 135.969504 554.582064 
L 137.207761 554.141388 
L 138.446018 553.892967 
L 139.684275 553.333633 
L 142.16079 551.221778 
L 143.399047 550.617472 
L 144.637304 550.593606 
L 147.113819 551.020186 
L 148.352076 551.366481 
L 150.828591 552.26033 
L 153.305105 552.544321 
L 154.543363 552.979562 
L 155.78162 553.652711 
L 157.019877 554.072512 
L 158.258134 553.993619 
L 160.734649 553.366876 
L 161.972906 553.350284 
L 165.687678 553.907975 
L 168.164193 554.048808 
L 169.40245 554.373016 
L 170.640707 555.03332 
L 171.878964 555.923409 
L 173.117222 556.629438 
L 174.355479 556.599575 
L 175.593736 555.676643 
L 176.831993 554.531068 
L 178.070251 554.140396 
L 179.308508 554.784198 
L 181.785022 556.982578 
L 183.02328 557.416576 
L 184.261537 557.019364 
L 186.738052 554.829271 
L 187.976309 554.366788 
L 190.452823 554.956572 
L 191.691081 554.750656 
L 192.929338 553.851834 
L 194.167595 552.366341 
L 195.405852 550.298718 
L 196.64411 547.833166 
L 197.882367 545.748532 
L 199.120624 544.917504 
L 200.358881 545.420861 
L 202.835396 547.588226 
L 204.073653 547.985593 
L 205.311911 547.831806 
L 206.550168 547.555694 
L 207.788425 547.537885 
L 209.026682 547.975004 
L 210.26494 548.914327 
L 212.741454 551.416426 
L 213.979711 552.333574 
L 215.217969 552.809207 
L 216.456226 552.851886 
L 217.694483 552.357338 
L 218.93274 550.986977 
L 220.170998 548.671717 
L 221.409255 546.076353 
L 222.647512 544.057073 
L 223.88577 542.895726 
L 225.124027 542.452846 
L 226.362284 542.636209 
L 227.600541 543.331275 
L 230.077056 545.075947 
L 231.315313 545.557981 
L 232.55357 545.524694 
L 233.791828 544.995776 
L 235.030085 544.224544 
L 236.268342 543.594263 
L 237.5066 543.365864 
L 239.983114 543.591337 
L 241.221371 543.778273 
L 242.459629 544.118444 
L 246.1744 545.756965 
L 247.412658 545.402265 
L 248.650915 544.088314 
L 251.127429 539.926474 
L 252.365687 538.952912 
L 253.603944 539.922281 
L 254.842201 542.526459 
L 256.080459 545.516806 
L 257.318716 547.869811 
L 258.556973 549.500039 
L 259.79523 550.721684 
L 261.033488 551.385285 
L 262.271745 550.739722 
L 263.510002 548.003718 
L 264.748259 543.134642 
L 267.224774 531.423321 
L 268.463031 527.238116 
L 269.701288 525.297887 
L 270.939546 525.967813 
L 272.177803 529.080965 
L 274.654318 537.895773 
L 275.892575 540.901769 
L 277.130832 542.371687 
L 278.369089 542.450423 
L 279.607347 541.511271 
L 280.845604 540.173093 
L 282.083861 539.151082 
L 283.322118 539.103181 
L 284.560376 540.167462 
L 287.03689 543.141272 
L 288.275147 544.495263 
L 289.513405 546.315218 
L 290.751662 548.867002 
L 291.989919 551.721033 
L 293.228177 553.987098 
L 294.466434 555.113641 
L 295.704691 555.289683 
L 296.942948 554.982531 
L 299.419463 554.059281 
L 300.65772 554.303961 
L 301.895977 555.45288 
L 303.134235 556.814631 
L 304.372492 557.439148 
L 305.610749 557.398596 
L 306.849006 557.562062 
L 309.325521 558.955475 
L 310.563778 559.198357 
L 311.802036 558.851086 
L 315.516807 556.415774 
L 316.755065 555.791378 
L 317.993322 554.428495 
L 319.231579 551.800005 
L 321.708094 544.811197 
L 322.946351 542.488177 
L 324.184608 541.960245 
L 325.422866 542.953767 
L 326.661123 544.476481 
L 327.89938 545.510545 
L 329.137637 545.522838 
L 330.375895 544.56076 
L 332.852409 541.795277 
L 334.090666 541.099962 
L 335.328924 541.155588 
L 339.043695 543.029356 
L 340.281953 543.285006 
L 341.52021 543.202446 
L 342.758467 542.732755 
L 345.234982 541.212481 
L 346.473239 540.677737 
L 351.426268 539.605363 
L 353.902783 539.379474 
L 355.14104 539.057922 
L 356.379297 538.906609 
L 357.617554 539.439404 
L 358.855812 540.69145 
L 360.094069 542.14125 
L 361.332326 543.016209 
L 362.570584 542.677528 
L 363.808841 541.103182 
L 365.047098 539.00038 
L 366.285355 537.241453 
L 367.523613 536.165376 
L 370.000127 534.837459 
L 371.238384 533.894815 
L 372.476642 532.765767 
L 373.714899 531.84184 
L 374.953156 531.462764 
L 376.191413 531.677483 
L 377.429671 532.366077 
L 379.906185 534.337533 
L 381.144443 535.020598 
L 382.3827 535.123335 
L 383.620957 534.545531 
L 386.097472 532.465616 
L 387.335729 531.665739 
L 388.573986 531.066242 
L 389.812243 530.621646 
L 391.050501 530.509691 
L 392.288758 530.869125 
L 393.527015 531.482509 
L 394.765272 531.803802 
L 396.00353 531.319967 
L 397.241787 530.028956 
L 398.480044 528.517117 
L 399.718302 527.482041 
L 400.956559 527.194795 
L 403.433073 527.466782 
L 404.671331 527.217791 
L 405.909588 526.797204 
L 407.147845 526.795625 
L 408.386102 527.78504 
L 410.862617 531.591368 
L 412.100874 532.912844 
L 413.339132 533.182632 
L 414.577389 532.448254 
L 415.815646 531.353966 
L 417.053903 530.555244 
L 418.292161 530.131089 
L 420.768675 529.558878 
L 422.006932 529.363068 
L 423.24519 529.045397 
L 424.483447 528.33485 
L 425.721704 527.191218 
L 426.959961 525.703753 
L 430.674733 520.597221 
L 431.912991 519.690531 
L 433.151248 519.702735 
L 434.389505 520.555453 
L 435.627762 521.764303 
L 436.86602 522.543608 
L 438.104277 522.245581 
L 439.342534 520.971725 
L 440.580791 519.499786 
L 441.819049 518.626391 
L 443.057306 518.58747 
L 444.295563 519.041706 
L 448.010335 520.940845 
L 449.248592 520.985127 
L 450.48685 520.18967 
L 452.963364 517.170044 
L 454.201621 516.198147 
L 455.439879 516.230597 
L 456.678136 517.142917 
L 457.916393 518.310066 
L 459.15465 519.040206 
L 460.392908 519.049919 
L 461.631165 518.642538 
L 462.869422 518.431819 
L 464.107679 518.865811 
L 465.345937 519.960637 
L 467.822451 522.883281 
L 470.298966 526.00749 
L 471.537223 526.74581 
L 472.77548 525.891987 
L 474.013738 523.562751 
L 475.251995 520.966992 
L 476.490252 519.281012 
L 477.728509 518.761233 
L 478.966767 519.064526 
L 480.205024 519.588166 
L 481.443281 519.465565 
L 482.681538 518.091993 
L 485.158053 513.42208 
L 486.39631 511.849227 
L 487.634568 511.449115 
L 488.872825 512.157146 
L 491.349339 514.769091 
L 492.587597 515.734363 
L 493.825854 516.290287 
L 495.064111 516.61894 
L 496.302368 516.808138 
L 497.540626 516.606053 
L 498.778883 515.808133 
L 500.01714 514.658595 
L 501.255397 513.74765 
L 502.493655 513.599675 
L 504.970169 514.939499 
L 506.208427 515.051614 
L 507.446684 514.321623 
L 508.684941 513.049207 
L 511.161456 510.210459 
L 512.399713 509.208169 
L 513.63797 508.775692 
L 516.114485 508.813193 
L 517.352742 508.248534 
L 518.590999 506.576176 
L 522.305771 498.637856 
L 523.544028 497.506176 
L 524.782286 497.374405 
L 526.020543 497.899683 
L 527.2588 498.803915 
L 528.497057 499.964795 
L 529.735315 501.492753 
L 530.973572 503.483178 
L 533.450086 507.770684 
L 534.688344 509.44656 
L 535.926601 510.594625 
L 537.164858 511.183802 
L 539.641373 511.78916 
L 540.87963 512.141607 
L 542.117887 512.079717 
L 544.594402 510.926478 
L 545.832659 510.331581 
L 547.070916 509.280719 
L 548.309174 507.362492 
L 549.547431 504.845071 
L 550.785688 502.754118 
L 552.023945 502.084678 
L 553.262203 502.960727 
L 554.50046 504.80399 
L 555.738717 506.925091 
L 556.976975 508.756978 
L 558.215232 509.979082 
L 559.453489 510.640336 
L 560.691746 511.082613 
L 561.930004 511.682557 
L 563.168261 512.419842 
L 564.406518 512.804604 
L 565.644775 512.420882 
L 566.883033 511.104797 
L 568.12129 508.70115 
L 571.836062 498.894575 
L 573.074319 496.85823 
L 575.550834 493.184558 
L 576.789091 491.669929 
L 578.027348 491.218408 
L 579.265605 492.285454 
L 580.503863 494.809217 
L 582.980377 501.874218 
L 584.218634 504.496824 
L 585.456892 505.024714 
L 586.695149 502.974684 
L 587.933406 499.000982 
L 589.171663 494.587592 
L 590.409921 491.031085 
L 591.648178 488.650527 
L 592.886435 487.163593 
L 594.124693 486.549611 
L 595.36295 486.803573 
L 596.601207 487.293925 
L 597.839464 487.323558 
L 600.315979 486.47041 
L 601.554236 486.634152 
L 602.792493 487.762357 
L 604.030751 489.821165 
L 606.507265 494.887102 
L 607.745523 497.027205 
L 608.98378 498.680614 
L 611.460294 501.214017 
L 612.698552 502.280873 
L 613.936809 502.794821 
L 615.175066 502.492369 
L 616.413323 501.703505 
L 617.651581 501.133876 
L 618.889838 501.20615 
L 620.128095 501.778343 
L 621.366352 502.597206 
L 622.60461 503.821393 
L 623.842867 505.831729 
L 627.557639 514.307057 
L 628.795896 516.061391 
L 630.034153 516.668171 
L 631.272411 516.15251 
L 632.510668 515.100804 
L 633.748925 514.286478 
L 634.987182 514.048178 
L 637.463697 514.390448 
L 638.701954 514.315317 
L 639.940211 513.655914 
L 641.178469 512.018729 
L 642.416726 509.668068 
L 643.654983 507.713333 
L 644.893241 506.976823 
L 646.131498 507.223072 
L 647.369755 507.641306 
L 648.608012 507.550101 
L 649.84627 506.695865 
L 651.084527 505.401581 
L 652.322784 504.408699 
L 653.561041 504.140526 
L 654.799299 504.104163 
L 656.037556 503.269362 
L 657.275813 501.070735 
L 658.51407 497.79126 
L 659.752328 493.95234 
L 660.990585 489.68437 
L 662.228842 484.771729 
L 664.705357 474.265027 
L 665.943614 471.096597 
L 667.181871 470.689796 
L 668.420129 472.71384 
L 670.896643 479.061511 
L 672.1349 481.687241 
L 673.373158 483.754115 
L 674.611415 485.329925 
L 675.849672 486.505301 
L 677.087929 487.387225 
L 678.326187 488.046576 
L 679.564444 488.419869 
L 680.802701 488.383134 
L 682.040959 488.021305 
L 683.279216 487.52265 
L 684.517473 486.677819 
L 685.75573 485.068788 
L 686.993988 483.021902 
L 688.232245 481.420926 
L 690.708759 479.596038 
L 691.947017 478.788345 
L 693.185274 478.468046 
L 694.423531 479.005012 
L 695.661789 480.095905 
L 696.900046 480.820057 
L 698.138303 480.532926 
L 699.37656 479.483881 
L 700.614818 478.167547 
L 701.853075 476.363803 
L 703.091332 473.446134 
L 704.329589 469.707481 
L 705.567847 466.690727 
L 706.806104 465.765756 
L 708.044361 467.090882 
L 709.282618 470.316623 
L 710.520876 475.124239 
L 712.99739 485.869104 
L 714.235648 489.569425 
L 715.473905 491.483896 
L 716.712162 491.788768 
L 717.950419 490.535726 
L 719.188677 487.628374 
L 721.665191 479.874943 
L 722.903448 477.271459 
L 724.141706 475.902428 
L 725.379963 475.255297 
L 726.61822 475.122964 
L 727.856477 475.75438 
L 729.094735 477.24614 
L 730.332992 479.303898 
L 732.809507 484.007513 
L 734.047764 486.505321 
L 735.286021 488.499068 
L 736.524278 489.43798 
L 737.762536 489.505306 
L 739.000793 489.363176 
L 740.23905 489.461392 
L 741.477307 489.830468 
L 743.953822 490.977019 
L 745.192079 491.749555 
L 746.430336 492.26456 
L 747.668594 491.468002 
L 748.906851 488.542304 
L 751.383366 479.300413 
L 752.621623 476.529314 
L 753.85988 476.72197 
L 755.098137 479.34283 
L 756.336395 482.589063 
L 757.574652 484.672185 
L 758.812909 484.780342 
L 760.051166 483.157955 
L 763.765938 475.689174 
L 765.004195 474.467758 
L 766.242453 474.319931 
L 767.48071 474.985193 
L 768.718967 476.403988 
L 769.957225 478.618726 
L 773.671996 486.746267 
L 774.910254 488.817957 
L 776.148511 489.549028 
L 777.386768 488.574838 
L 778.625025 486.556124 
L 779.863283 484.83283 
L 781.10154 484.70207 
L 782.339797 486.544815 
L 783.578054 489.314885 
L 784.816312 491.398634 
L 786.054569 491.999318 
L 787.292826 491.27294 
L 789.769341 488.365799 
L 791.007598 488.269133 
L 792.245855 489.929089 
L 793.484113 492.15941 
L 794.72237 492.898083 
L 795.960627 490.86463 
L 797.198884 486.262869 
L 798.437142 480.758096 
L 799.675399 476.843457 
L 800.913656 475.835526 
L 802.151914 476.786192 
L 803.390171 478.368389 
L 804.628428 480.463 
L 807.104943 485.440754 
L 808.3432 487.712935 
L 809.581457 491.071834 
L 810.819714 496.394995 
L 813.296229 510.085903 
L 814.534486 515.141682 
L 815.772743 517.087765 
L 817.011001 515.988716 
L 818.249258 513.018148 
L 820.725773 505.693434 
L 821.96403 502.447007 
L 823.202287 500.132252 
L 824.440544 499.047179 
L 825.678802 499.316622 
L 826.917059 501.041823 
L 828.155316 503.9633 
L 830.631831 510.687574 
L 831.870088 513.141867 
L 833.108345 514.080632 
L 834.346602 513.184458 
L 835.58486 510.563302 
L 838.061374 502.797535 
L 839.299632 500.662102 
L 840.537889 501.095917 
L 843.014403 505.033301 
L 844.252661 505.780581 
L 845.490918 505.462599 
L 846.729175 504.415533 
L 847.967432 502.818692 
L 850.443947 499.087365 
L 851.682204 497.477187 
L 852.920461 496.414268 
L 854.158719 496.277761 
L 856.635233 497.699751 
L 857.873491 497.606012 
L 859.111748 496.396096 
L 860.350005 494.382505 
L 865.303034 485.196525 
L 866.541291 483.073821 
L 867.779549 481.59131 
L 869.017806 481.833365 
L 870.256063 484.014875 
L 871.49432 486.733244 
L 872.732578 488.114004 
L 873.970835 487.187418 
L 875.209092 484.102595 
L 878.923864 470.625513 
L 880.162121 467.692167 
L 881.400379 466.564799 
L 882.638636 467.437624 
L 883.876893 470.069631 
L 885.11515 474.038432 
L 887.591665 483.166502 
L 888.829922 486.062719 
L 890.06818 487.078236 
L 891.306437 486.591568 
L 892.544694 485.253999 
L 893.782951 483.730238 
L 895.021209 482.585957 
L 896.259466 482.348568 
L 897.497723 483.452618 
L 898.73598 485.740291 
L 899.974238 488.349197 
L 901.212495 490.539466 
L 903.689009 494.376927 
L 904.927267 496.950104 
L 906.165524 499.923184 
L 907.403781 502.437413 
L 908.642039 503.002408 
L 909.880296 500.053915 
L 911.118553 492.900596 
L 912.35681 482.246483 
L 913.595068 469.406956 
L 914.833325 454.682172 
L 917.309839 419.987987 
L 918.548097 406.463625 
L 919.786354 402.290164 
L 921.024611 409.933235 
L 922.262868 427.94684 
L 924.739383 472.469078 
L 925.97764 486.855325 
L 927.215898 492.812773 
L 928.454155 491.629487 
L 929.692412 485.940161 
L 930.930669 478.640402 
L 932.168927 472.298092 
L 933.407184 468.674869 
L 934.645441 468.303212 
L 935.883698 470.625811 
L 939.59847 481.657467 
L 940.836727 483.833437 
L 942.074985 484.496152 
L 943.313242 483.714977 
L 945.789757 480.558742 
L 947.028014 479.913322 
L 948.266271 480.83602 
L 949.504528 483.180511 
L 950.742786 485.91238 
L 951.981043 487.739713 
L 953.2193 487.834176 
L 954.457557 486.316599 
L 955.695815 484.392656 
L 956.934072 483.791143 
L 958.172329 485.462876 
L 959.410586 488.516098 
L 960.648844 490.839125 
L 961.887101 490.845547 
L 963.125358 488.332596 
L 966.84013 476.391591 
L 968.078387 474.021276 
L 969.316645 472.642936 
L 970.554902 471.842609 
L 971.793159 471.202383 
L 973.031416 470.693523 
L 974.269674 470.638787 
L 975.507931 471.344465 
L 976.746188 472.842194 
L 979.222703 476.668377 
L 980.46096 478.381503 
L 981.699217 479.867947 
L 982.937475 480.914708 
L 984.175732 481.172114 
L 985.413989 480.520447 
L 986.652246 479.482497 
L 987.890504 478.818869 
L 989.128761 478.666272 
L 990.367018 478.761996 
L 991.605275 479.23004 
L 992.843533 480.576446 
L 994.08179 483.212981 
L 995.320047 487.070097 
L 996.558305 491.464523 
L 997.796562 495.413737 
L 999.034819 498.202196 
L 1000.273076 499.700923 
L 1001.511334 500.18312 
L 1002.749591 499.952116 
L 1005.226105 498.609249 
L 1006.464363 498.303871 
L 1007.70262 498.495537 
L 1008.940877 498.803967 
L 1010.179134 498.310059 
L 1011.417392 495.468696 
L 1012.655649 487.911707 
L 1013.893906 472.933608 
L 1015.132164 449.095176 
L 1016.370421 417.661942 
L 1018.846935 349.237757 
L 1020.085193 323.455852 
L 1021.32345 309.167661 
L 1022.561707 306.009032 
L 1023.799964 308.650979 
L 1025.038222 309.460771 
L 1026.276479 302.577654 
L 1027.514736 286.945197 
L 1029.991251 243.581177 
L 1032.467765 198.848682 
L 1033.706023 180.376601 
L 1034.94428 170.055011 
L 1036.182537 170.696432 
L 1037.420794 178.934745 
L 1038.659052 186.310892 
L 1039.897309 185.924182 
L 1041.135566 175.793609 
L 1042.373823 158.102191 
L 1043.612081 138.049989 
L 1044.850338 121.00401 
L 1046.088595 109.651157 
L 1047.326852 103.925568 
L 1048.56511 102.319734 
L 1049.803367 103.850966 
L 1051.041624 109.196954 
L 1052.279882 119.278742 
L 1053.518139 133.41125 
L 1055.994653 163.383585 
L 1057.232911 174.801712 
L 1063.424197 220.484409 
L 1064.662454 227.158428 
L 1067.138969 237.875239 
L 1068.377226 243.909044 
L 1069.615483 250.938987 
L 1070.853741 259.373821 
L 1073.330255 278.311917 
L 1074.568512 285.854386 
L 1075.80677 290.292161 
L 1077.045027 291.224326 
L 1078.283284 289.938385 
L 1079.521541 289.157163 
L 1080.759799 291.725968 
L 1081.998056 299.312082 
L 1083.236313 311.45448 
L 1085.712828 338.683999 
L 1086.951085 348.350513 
L 1088.189342 354.159961 
L 1089.4276 356.754416 
L 1090.665857 356.912786 
L 1091.904114 355.364545 
L 1093.142371 352.578117 
L 1094.380629 348.274534 
L 1095.618886 341.315439 
L 1096.857143 330.152075 
L 1098.0954 313.780116 
L 1099.333658 292.635566 
L 1101.810172 246.023284 
L 1103.04843 226.210483 
L 1105.524944 192.96539 
L 1108.001459 162.210296 
L 1109.239716 150.270826 
L 1110.477973 141.926751 
L 1112.954488 129.349478 
L 1115.431002 113.235582 
L 1116.669259 104.990892 
L 1117.907517 97.966045 
L 1119.145774 93.715224 
L 1120.384031 94.00538 
L 1121.622289 99.58138 
L 1125.33706 126.986702 
L 1126.575318 134.022803 
L 1127.813575 139.254556 
L 1129.051832 141.910389 
L 1130.290089 141.966062 
L 1131.528347 141.022278 
L 1132.766604 141.286203 
L 1134.004861 143.761207 
L 1135.243118 147.854789 
L 1137.719633 156.706553 
L 1138.95789 160.131747 
L 1140.196148 162.791476 
L 1141.434405 165.018662 
L 1142.672662 166.521634 
L 1143.910919 166.738974 
L 1145.149177 166.059043 
L 1146.387434 165.692512 
L 1147.625691 166.79603 
L 1148.863948 170.012945 
L 1150.102206 175.282824 
L 1153.816977 195.638585 
L 1155.055235 200.847296 
L 1156.293492 204.254591 
L 1158.770007 208.407719 
L 1161.246521 212.481724 
L 1162.484778 213.810251 
L 1163.723036 213.122563 
L 1164.961293 208.706491 
L 1166.19955 199.902062 
L 1167.437807 186.995305 
L 1168.676065 170.629164 
L 1173.629094 97.687797 
L 1174.867351 80.979002 
L 1176.105608 67.973898 
L 1177.343866 62.076814 
L 1178.582123 64.539921 
L 1181.058637 81.022903 
L 1182.296895 87.51545 
L 1183.535152 92.895901 
L 1184.773409 99.179286 
L 1186.011666 107.304356 
L 1188.488181 126.656757 
L 1189.726438 136.648551 
L 1190.964696 145.322154 
L 1192.202953 150.687702 
L 1193.44121 152.537093 
L 1194.679467 152.195097 
L 1195.917725 151.023205 
L 1197.155982 150.57404 
L 1198.394239 152.633813 
L 1199.632496 157.791218 
L 1204.585525 184.794238 
L 1207.06204 200.031162 
L 1208.300297 205.707092 
L 1209.538555 208.531552 
L 1210.776812 207.173706 
L 1212.015069 200.835411 
L 1213.253326 190.130397 
L 1215.729841 162.376587 
L 1218.206355 130.12841 
L 1220.68287 94.252909 
L 1221.921127 75.263014 
L 1223.159384 58.29947 
L 1224.397642 48.178444 
L 1225.635899 47.979282 
L 1226.874156 56.554837 
L 1229.350671 83.773667 
L 1230.588928 94.866426 
L 1231.827185 101.625906 
L 1233.065443 104.360374 
L 1234.3037 103.809214 
L 1235.541957 100.401769 
L 1236.780214 95.575013 
L 1238.018472 92.289378 
L 1239.256729 92.6718 
L 1241.733243 98.766112 
L 1242.971501 100.919444 
L 1244.209758 102.502484 
L 1245.448015 103.638688 
L 1246.686273 103.870578 
L 1247.92453 102.800185 
L 1249.162787 100.8464 
L 1250.401044 99.729366 
L 1251.639302 101.883002 
L 1252.877559 109.07041 
L 1254.115816 121.871586 
L 1255.354073 139.654837 
L 1256.592331 159.790929 
L 1257.830588 177.852126 
L 1259.068845 190.25525 
L 1260.307103 196.547009 
L 1261.54536 198.746715 
L 1262.783617 199.459336 
L 1264.021874 200.984685 
L 1265.260132 204.342866 
L 1266.498389 208.050786 
L 1267.736646 209.682917 
L 1268.974903 209.032819 
L 1270.213161 208.087181 
L 1271.451418 208.63223 
L 1272.689675 211.786596 
L 1273.927932 218.56793 
L 1277.642704 248.483391 
L 1278.880962 255.138709 
L 1280.119219 260.51597 
L 1281.357476 266.684718 
L 1282.595733 274.757205 
L 1283.833991 283.645515 
L 1285.072248 291.544023 
L 1286.310505 297.958839 
L 1287.548762 303.134966 
L 1288.78702 306.451385 
L 1290.025277 306.825356 
L 1291.263534 304.332783 
L 1292.501791 300.732282 
L 1293.740049 298.391691 
L 1294.978306 298.333102 
L 1296.216563 299.700646 
L 1297.454821 301.751448 
L 1298.693078 304.836922 
L 1301.169592 312.877145 
L 1302.40785 315.572491 
L 1303.646107 316.109646 
L 1306.122621 313.35073 
L 1307.360879 313.577069 
L 1308.599136 316.350344 
L 1309.837393 322.370145 
L 1311.07565 331.910988 
L 1313.552165 354.226079 
L 1314.790422 362.641416 
L 1316.02868 368.38163 
L 1317.266937 371.344252 
L 1318.505194 371.926888 
L 1319.743451 371.387306 
L 1320.981709 370.454565 
L 1322.219966 368.754261 
L 1323.458223 366.667156 
L 1324.69648 366.166567 
L 1325.934738 368.903988 
L 1328.411252 380.306718 
L 1329.649509 383.903654 
L 1330.887767 384.038962 
L 1332.126024 381.642312 
L 1333.364281 378.638009 
L 1334.602539 376.471119 
L 1335.840796 375.722751 
L 1337.079053 376.468429 
L 1338.31731 378.618994 
L 1339.555568 382.188685 
L 1340.793825 387.403489 
L 1342.032082 394.493033 
L 1344.508597 411.47177 
L 1345.746854 418.056322 
L 1346.985111 421.695137 
L 1348.223368 421.755111 
L 1349.461626 417.99092 
L 1350.699883 411.445981 
L 1351.93814 404.265811 
L 1353.176398 398.240024 
L 1354.414655 394.375678 
L 1355.652912 393.467006 
L 1356.891169 395.86911 
L 1358.129427 401.12563 
L 1359.367684 408.462266 
L 1361.844198 425.670062 
L 1363.082456 433.193998 
L 1364.320713 438.953786 
L 1365.55897 443.009316 
L 1366.797228 445.632678 
L 1368.035485 447.029197 
L 1369.273742 447.396748 
L 1370.511999 446.852495 
L 1372.988514 444.279666 
L 1374.226771 443.422186 
L 1375.465028 443.353944 
L 1376.703286 444.085204 
L 1377.941543 445.058302 
L 1379.1798 445.070569 
L 1380.418057 443.232271 
L 1381.656315 440.080185 
L 1382.894572 437.479496 
L 1384.132829 437.169388 
L 1385.371087 439.07491 
L 1386.609344 441.454841 
L 1387.847601 442.961773 
L 1389.085858 443.655043 
L 1390.324116 444.12485 
L 1391.562373 444.880818 
L 1392.80063 446.525804 
L 1394.038887 449.587484 
L 1396.515402 458.189736 
L 1397.753659 460.796846 
L 1398.991916 460.589933 
L 1400.230174 458.069602 
L 1401.468431 454.954885 
L 1402.706688 452.698517 
L 1403.944946 451.664415 
L 1405.183203 451.621374 
L 1406.42146 452.319746 
L 1407.659717 453.357639 
L 1408.897975 454.125871 
L 1410.136232 453.940092 
L 1411.374489 452.002923 
L 1412.612746 448.084283 
L 1413.851004 443.439029 
L 1415.089261 440.057947 
L 1416.327518 439.197685 
L 1417.565775 440.91747 
L 1418.804033 444.004851 
L 1420.04229 446.381006 
L 1421.280547 446.59548 
L 1423.757062 443.621189 
L 1424.995319 443.622287 
L 1426.233576 444.974022 
L 1428.710091 448.294283 
L 1429.948348 449.99676 
L 1431.186605 452.237907 
L 1436.139634 463.082546 
L 1437.377892 465.297471 
L 1438.616149 466.735947 
L 1439.854406 467.512139 
L 1442.330921 468.354711 
L 1443.569178 469.706806 
L 1444.807435 472.567528 
L 1446.045693 476.18886 
L 1447.28395 479.387253 
L 1449.760464 484.562072 
L 1452.236979 490.749299 
L 1453.475236 492.771117 
L 1454.713494 492.463192 
L 1455.951751 489.72873 
L 1457.190008 485.899729 
L 1458.428265 482.651794 
L 1460.90478 477.997187 
L 1463.381294 471.136262 
L 1464.619552 470.666449 
L 1465.857809 473.939031 
L 1467.096066 478.857577 
L 1468.334323 482.919862 
L 1469.572581 485.035408 
L 1470.810838 485.147438 
L 1472.049095 483.847877 
L 1473.287353 481.986999 
L 1474.52561 479.863905 
L 1475.763867 477.156413 
L 1477.002124 474.051475 
L 1478.240382 471.80649 
L 1479.478639 471.622422 
L 1480.716896 473.379836 
L 1481.955153 475.773686 
L 1483.193411 477.618902 
L 1486.908182 481.194375 
L 1488.14644 482.272164 
L 1489.384697 483.077199 
L 1490.622954 483.716786 
L 1491.861212 484.190411 
L 1493.099469 484.495693 
L 1494.337726 484.971426 
L 1495.575983 485.620248 
L 1496.814241 485.208763 
L 1498.052498 482.089636 
L 1499.290755 475.769119 
L 1501.76727 459.230525 
L 1503.005527 454.060825 
L 1504.243784 453.041904 
L 1505.482041 455.215043 
L 1506.720299 458.537303 
L 1507.958556 461.434296 
L 1510.435071 465.812621 
L 1512.911585 469.402668 
L 1514.149842 472.865413 
L 1515.3881 478.916353 
L 1517.864614 493.879729 
L 1519.102871 498.43088 
L 1520.341129 499.527049 
L 1521.579386 497.453652 
L 1522.817643 492.760951 
L 1524.0559 485.935854 
L 1525.294158 478.006675 
L 1526.532415 470.808994 
L 1527.770672 466.160453 
L 1529.00893 465.065836 
L 1530.247187 467.506797 
L 1531.485444 472.549583 
L 1532.723701 478.637204 
L 1533.961959 483.86798 
L 1535.200216 486.901407 
L 1536.438473 488.014814 
L 1537.67673 488.321374 
L 1538.914988 488.350878 
L 1540.153245 488.076163 
L 1541.391502 487.558304 
L 1542.62976 487.602467 
L 1543.868017 489.686562 
L 1545.106274 494.186586 
L 1546.344531 499.286753 
L 1547.582789 502.44286 
L 1548.821046 501.932398 
L 1550.059303 496.936516 
L 1551.29756 487.545241 
L 1552.535818 475.521211 
L 1553.774075 464.592332 
L 1555.012332 458.255112 
L 1556.250589 456.873694 
L 1557.488847 458.257548 
L 1558.727104 460.520394 
L 1559.965361 463.265163 
L 1561.203619 466.774276 
L 1562.441876 470.851174 
L 1563.680133 474.418001 
L 1564.91839 476.247643 
L 1566.156648 475.97448 
L 1567.394905 474.198331 
L 1568.633162 471.930405 
L 1569.871419 470.058486 
L 1571.109677 469.00014 
L 1573.586191 468.012351 
L 1574.824448 466.682775 
L 1576.062706 464.512887 
L 1577.300963 462.097104 
L 1578.53922 460.437553 
L 1579.777478 460.550672 
L 1581.015735 463.079436 
L 1582.253992 468.123509 
L 1583.492249 475.140323 
L 1584.730507 482.961766 
L 1585.968764 490.054224 
L 1587.207021 495.172721 
L 1588.445278 497.87136 
L 1589.683536 497.976256 
L 1590.921793 495.151172 
L 1592.16005 489.680776 
L 1593.398307 482.988612 
L 1594.636565 476.956644 
L 1595.874822 472.991114 
L 1597.113079 471.64046 
L 1598.351337 472.802564 
L 1599.589594 475.953208 
L 1600.827851 480.07092 
L 1602.066108 483.634844 
L 1603.304366 485.150504 
L 1604.542623 483.82175 
L 1605.78088 479.624922 
L 1607.019137 473.161817 
L 1609.495652 458.103117 
L 1610.733909 451.726768 
L 1611.972166 447.443744 
L 1613.210424 446.356238 
L 1614.448681 449.174731 
L 1615.686938 455.247371 
L 1616.925196 462.353256 
L 1618.163453 467.892281 
L 1619.40171 470.003265 
L 1620.639967 468.378563 
L 1623.116482 461.323249 
L 1624.354739 459.510764 
L 1625.592996 458.902491 
L 1626.831254 458.495579 
L 1628.069511 457.545395 
L 1629.307768 455.782119 
L 1631.784283 451.199018 
L 1633.02254 449.962951 
L 1634.260797 450.230468 
L 1635.499055 452.107579 
L 1636.737312 454.874782 
L 1637.975569 456.900639 
L 1639.213826 456.920489 
L 1640.452084 454.889871 
L 1641.690341 451.604424 
L 1641.690341 451.604424 
" style="fill:none;stroke:#008000;stroke-linecap:square;stroke-width:1.5;"/>
   </g>
   <g id="patch_3">
    <path d="M 43.78125 586.86358 
L 43.78125 22.318125 
" style="fill:none;stroke:#000000;stroke-linecap:square;stroke-linejoin:miter;stroke-width:0.8;"/>
   </g>
   <g id="patch_4">
    <path d="M 1717.78125 586.86358 
L 1717.78125 22.318125 
" style="fill:none;stroke:#000000;stroke-linecap:square;stroke-linejoin:miter;stroke-width:0.8;"/>
   </g>
   <g id="patch_5">
    <path d="M 43.78125 586.86358 
L 1717.78125 586.86358 
" style="fill:none;stroke:#000000;stroke-linecap:square;stroke-linejoin:miter;stroke-width:0.8;"/>
   </g>
   <g id="patch_6">
    <path d="M 43.78125 22.318125 
L 1717.78125 22.318125 
" style="fill:none;stroke:#000000;stroke-linecap:square;stroke-linejoin:miter;stroke-width:0.8;"/>
   </g>
   <g id="text_16">
    <!-- before binarisation -->
    <g transform="translate(824.1825 16.318125)scale(0.12 -0.12)">
     <defs>
      <path d="M 3116 1747 
Q 3116 2381 2855 2742 
Q 2594 3103 2138 3103 
Q 1681 3103 1420 2742 
Q 1159 2381 1159 1747 
Q 1159 1113 1420 752 
Q 1681 391 2138 391 
Q 2594 391 2855 752 
Q 3116 1113 3116 1747 
z
M 1159 2969 
Q 1341 3281 1617 3432 
Q 1894 3584 2278 3584 
Q 2916 3584 3314 3078 
Q 3713 2572 3713 1747 
Q 3713 922 3314 415 
Q 2916 -91 2278 -91 
Q 1894 -91 1617 61 
Q 1341 213 1159 525 
L 1159 0 
L 581 0 
L 581 4863 
L 1159 4863 
L 1159 2969 
z
" id="DejaVuSans-62" transform="scale(0.015625)"/>
      <path d="M 1959 3097 
Q 1497 3097 1228 2736 
Q 959 2375 959 1747 
Q 959 1119 1226 758 
Q 1494 397 1959 397 
Q 2419 397 2687 759 
Q 2956 1122 2956 1747 
Q 2956 2369 2687 2733 
Q 2419 3097 1959 3097 
z
M 1959 3584 
Q 2709 3584 3137 3096 
Q 3566 2609 3566 1747 
Q 3566 888 3137 398 
Q 2709 -91 1959 -91 
Q 1206 -91 779 398 
Q 353 888 353 1747 
Q 353 2609 779 3096 
Q 1206 3584 1959 3584 
z
" id="DejaVuSans-6f" transform="scale(0.015625)"/>
      <path id="DejaVuSans-20" transform="scale(0.015625)"/>
      <path d="M 603 3500 
L 1178 3500 
L 1178 0 
L 603 0 
L 603 3500 
z
M 603 4863 
L 1178 4863 
L 1178 4134 
L 603 4134 
L 603 4863 
z
" id="DejaVuSans-69" transform="scale(0.015625)"/>
      <path d="M 3513 2113 
L 3513 0 
L 2938 0 
L 2938 2094 
Q 2938 2591 2744 2837 
Q 2550 3084 2163 3084 
Q 1697 3084 1428 2787 
Q 1159 2491 1159 1978 
L 1159 0 
L 581 0 
L 581 3500 
L 1159 3500 
L 1159 2956 
Q 1366 3272 1645 3428 
Q 1925 3584 2291 3584 
Q 2894 3584 3203 3211 
Q 3513 2838 3513 2113 
z
" id="DejaVuSans-6e" transform="scale(0.015625)"/>
      <path d="M 2834 3397 
L 2834 2853 
Q 2591 2978 2328 3040 
Q 2066 3103 1784 3103 
Q 1356 3103 1142 2972 
Q 928 2841 928 2578 
Q 928 2378 1081 2264 
Q 1234 2150 1697 2047 
L 1894 2003 
Q 2506 1872 2764 1633 
Q 3022 1394 3022 966 
Q 3022 478 2636 193 
Q 2250 -91 1575 -91 
Q 1294 -91 989 -36 
Q 684 19 347 128 
L 347 722 
Q 666 556 975 473 
Q 1284 391 1588 391 
Q 1994 391 2212 530 
Q 2431 669 2431 922 
Q 2431 1156 2273 1281 
Q 2116 1406 1581 1522 
L 1381 1569 
Q 847 1681 609 1914 
Q 372 2147 372 2553 
Q 372 3047 722 3315 
Q 1072 3584 1716 3584 
Q 2034 3584 2315 3537 
Q 2597 3491 2834 3397 
z
" id="DejaVuSans-73" transform="scale(0.015625)"/>
      <path d="M 1172 4494 
L 1172 3500 
L 2356 3500 
L 2356 3053 
L 1172 3053 
L 1172 1153 
Q 1172 725 1289 603 
Q 1406 481 1766 481 
L 2356 481 
L 2356 0 
L 1766 0 
Q 1100 0 847 248 
Q 594 497 594 1153 
L 594 3053 
L 172 3053 
L 172 3500 
L 594 3500 
L 594 4494 
L 1172 4494 
z
" id="DejaVuSans-74" transform="scale(0.015625)"/>
     </defs>
     <use xlink:href="#DejaVuSans-62"/>
     <use x="63.476562" xlink:href="#DejaVuSans-65"/>
     <use x="125" xlink:href="#DejaVuSans-66"/>
     <use x="160.205078" xlink:href="#DejaVuSans-6f"/>
     <use x="221.386719" xlink:href="#DejaVuSans-72"/>
     <use x="260.25" xlink:href="#DejaVuSans-65"/>
     <use x="321.773438" xlink:href="#DejaVuSans-20"/>
     <use x="353.560547" xlink:href="#DejaVuSans-62"/>
     <use x="417.037109" xlink:href="#DejaVuSans-69"/>
     <use x="444.820312" xlink:href="#DejaVuSans-6e"/>
     <use x="508.199219" xlink:href="#DejaVuSans-61"/>
     <use x="569.478516" xlink:href="#DejaVuSans-72"/>
     <use x="610.591797" xlink:href="#DejaVuSans-69"/>
     <use x="638.375" xlink:href="#DejaVuSans-73"/>
     <use x="690.474609" xlink:href="#DejaVuSans-61"/>
     <use x="751.753906" xlink:href="#DejaVuSans-74"/>
     <use x="790.962891" xlink:href="#DejaVuSans-69"/>
     <use x="818.746094" xlink:href="#DejaVuSans-6f"/>
     <use x="879.927734" xlink:href="#DejaVuSans-6e"/>
    </g>
   </g>
  </g>
  <g id="axes_2">
   <g id="patch_7">
    <path d="M 43.78125 1264.318125 
L 1717.78125 1264.318125 
L 1717.78125 699.77267 
L 43.78125 699.77267 
z
" style="fill:#ffffff;"/>
   </g>
   <g id="matplotlib.axis_3">
    <g id="xtick_8">
     <g id="line2d_15">
      <g>
       <use style="stroke:#000000;stroke-width:0.8;" x="119.872159" xlink:href="#mb65f4d0ca0" y="1264.318125"/>
      </g>
     </g>
     <g id="text_17">
      <!-- 0 -->
      <g transform="translate(116.690909 1278.916563)scale(0.1 -0.1)">
       <use xlink:href="#DejaVuSans-30"/>
      </g>
     </g>
    </g>
    <g id="xtick_9">
     <g id="line2d_16">
      <g>
       <use style="stroke:#000000;stroke-width:0.8;" x="367.523613" xlink:href="#mb65f4d0ca0" y="1264.318125"/>
      </g>
     </g>
     <g id="text_18">
      <!-- 200 -->
      <g transform="translate(357.979863 1278.916563)scale(0.1 -0.1)">
       <use xlink:href="#DejaVuSans-32"/>
       <use x="63.623047" xlink:href="#DejaVuSans-30"/>
       <use x="127.246094" xlink:href="#DejaVuSans-30"/>
      </g>
     </g>
    </g>
    <g id="xtick_10">
     <g id="line2d_17">
      <g>
       <use style="stroke:#000000;stroke-width:0.8;" x="615.175066" xlink:href="#mb65f4d0ca0" y="1264.318125"/>
      </g>
     </g>
     <g id="text_19">
      <!-- 400 -->
      <g transform="translate(605.631316 1278.916563)scale(0.1 -0.1)">
       <use xlink:href="#DejaVuSans-34"/>
       <use x="63.623047" xlink:href="#DejaVuSans-30"/>
       <use x="127.246094" xlink:href="#DejaVuSans-30"/>
      </g>
     </g>
    </g>
    <g id="xtick_11">
     <g id="line2d_18">
      <g>
       <use style="stroke:#000000;stroke-width:0.8;" x="862.82652" xlink:href="#mb65f4d0ca0" y="1264.318125"/>
      </g>
     </g>
     <g id="text_20">
      <!-- 600 -->
      <g transform="translate(853.28277 1278.916563)scale(0.1 -0.1)">
       <use xlink:href="#DejaVuSans-36"/>
       <use x="63.623047" xlink:href="#DejaVuSans-30"/>
       <use x="127.246094" xlink:href="#DejaVuSans-30"/>
      </g>
     </g>
    </g>
    <g id="xtick_12">
     <g id="line2d_19">
      <g>
       <use style="stroke:#000000;stroke-width:0.8;" x="1110.477973" xlink:href="#mb65f4d0ca0" y="1264.318125"/>
      </g>
     </g>
     <g id="text_21">
      <!-- 800 -->
      <g transform="translate(1100.934223 1278.916563)scale(0.1 -0.1)">
       <use xlink:href="#DejaVuSans-38"/>
       <use x="63.623047" xlink:href="#DejaVuSans-30"/>
       <use x="127.246094" xlink:href="#DejaVuSans-30"/>
      </g>
     </g>
    </g>
    <g id="xtick_13">
     <g id="line2d_20">
      <g>
       <use style="stroke:#000000;stroke-width:0.8;" x="1358.129427" xlink:href="#mb65f4d0ca0" y="1264.318125"/>
      </g>
     </g>
     <g id="text_22">
      <!-- 1000 -->
      <g transform="translate(1345.404427 1278.916563)scale(0.1 -0.1)">
       <use xlink:href="#DejaVuSans-31"/>
       <use x="63.623047" xlink:href="#DejaVuSans-30"/>
       <use x="127.246094" xlink:href="#DejaVuSans-30"/>
       <use x="190.869141" xlink:href="#DejaVuSans-30"/>
      </g>
     </g>
    </g>
    <g id="xtick_14">
     <g id="line2d_21">
      <g>
       <use style="stroke:#000000;stroke-width:0.8;" x="1605.78088" xlink:href="#mb65f4d0ca0" y="1264.318125"/>
      </g>
     </g>
     <g id="text_23">
      <!-- 1200 -->
      <g transform="translate(1593.05588 1278.916563)scale(0.1 -0.1)">
       <use xlink:href="#DejaVuSans-31"/>
       <use x="63.623047" xlink:href="#DejaVuSans-32"/>
       <use x="127.246094" xlink:href="#DejaVuSans-30"/>
       <use x="190.869141" xlink:href="#DejaVuSans-30"/>
      </g>
     </g>
    </g>
    <g id="text_24">
     <!-- frame -->
     <g transform="translate(865.954687 1292.594688)scale(0.1 -0.1)">
      <use xlink:href="#DejaVuSans-66"/>
      <use x="35.205078" xlink:href="#DejaVuSans-72"/>
      <use x="76.318359" xlink:href="#DejaVuSans-61"/>
      <use x="137.597656" xlink:href="#DejaVuSans-6d"/>
      <use x="235.009766" xlink:href="#DejaVuSans-65"/>
     </g>
    </g>
   </g>
   <g id="matplotlib.axis_4">
    <g id="ytick_7">
     <g id="line2d_22">
      <g>
       <use style="stroke:#000000;stroke-width:0.8;" x="43.78125" xlink:href="#mf33cfd49fd" y="1238.656968"/>
      </g>
     </g>
     <g id="text_25">
      <!-- 0.0 -->
      <g transform="translate(20.878125 1242.456187)scale(0.1 -0.1)">
       <use xlink:href="#DejaVuSans-30"/>
       <use x="63.623047" xlink:href="#DejaVuSans-2e"/>
       <use x="95.410156" xlink:href="#DejaVuSans-30"/>
      </g>
     </g>
    </g>
    <g id="ytick_8">
     <g id="line2d_23">
      <g>
       <use style="stroke:#000000;stroke-width:0.8;" x="43.78125" xlink:href="#mf33cfd49fd" y="1136.01234"/>
      </g>
     </g>
     <g id="text_26">
      <!-- 0.2 -->
      <g transform="translate(20.878125 1139.811559)scale(0.1 -0.1)">
       <use xlink:href="#DejaVuSans-30"/>
       <use x="63.623047" xlink:href="#DejaVuSans-2e"/>
       <use x="95.410156" xlink:href="#DejaVuSans-32"/>
      </g>
     </g>
    </g>
    <g id="ytick_9">
     <g id="line2d_24">
      <g>
       <use style="stroke:#000000;stroke-width:0.8;" x="43.78125" xlink:href="#mf33cfd49fd" y="1033.367712"/>
      </g>
     </g>
     <g id="text_27">
      <!-- 0.4 -->
      <g transform="translate(20.878125 1037.166931)scale(0.1 -0.1)">
       <use xlink:href="#DejaVuSans-30"/>
       <use x="63.623047" xlink:href="#DejaVuSans-2e"/>
       <use x="95.410156" xlink:href="#DejaVuSans-34"/>
      </g>
     </g>
    </g>
    <g id="ytick_10">
     <g id="line2d_25">
      <g>
       <use style="stroke:#000000;stroke-width:0.8;" x="43.78125" xlink:href="#mf33cfd49fd" y="930.723084"/>
      </g>
     </g>
     <g id="text_28">
      <!-- 0.6 -->
      <g transform="translate(20.878125 934.522302)scale(0.1 -0.1)">
       <use xlink:href="#DejaVuSans-30"/>
       <use x="63.623047" xlink:href="#DejaVuSans-2e"/>
       <use x="95.410156" xlink:href="#DejaVuSans-36"/>
      </g>
     </g>
    </g>
    <g id="ytick_11">
     <g id="line2d_26">
      <g>
       <use style="stroke:#000000;stroke-width:0.8;" x="43.78125" xlink:href="#mf33cfd49fd" y="828.078456"/>
      </g>
     </g>
     <g id="text_29">
      <!-- 0.8 -->
      <g transform="translate(20.878125 831.877674)scale(0.1 -0.1)">
       <use xlink:href="#DejaVuSans-30"/>
       <use x="63.623047" xlink:href="#DejaVuSans-2e"/>
       <use x="95.410156" xlink:href="#DejaVuSans-38"/>
      </g>
     </g>
    </g>
    <g id="ytick_12">
     <g id="line2d_27">
      <g>
       <use style="stroke:#000000;stroke-width:0.8;" x="43.78125" xlink:href="#mf33cfd49fd" y="725.433827"/>
      </g>
     </g>
     <g id="text_30">
      <!-- 1.0 -->
      <g transform="translate(20.878125 729.233046)scale(0.1 -0.1)">
       <use xlink:href="#DejaVuSans-31"/>
       <use x="63.623047" xlink:href="#DejaVuSans-2e"/>
       <use x="95.410156" xlink:href="#DejaVuSans-30"/>
      </g>
     </g>
    </g>
    <g id="text_31">
     <!-- GCaMP -->
     <g transform="translate(14.798437 999.803991)rotate(-90)scale(0.1 -0.1)">
      <use xlink:href="#DejaVuSans-47"/>
      <use x="77.490234" xlink:href="#DejaVuSans-43"/>
      <use x="147.314453" xlink:href="#DejaVuSans-61"/>
      <use x="208.59375" xlink:href="#DejaVuSans-4d"/>
      <use x="294.873047" xlink:href="#DejaVuSans-50"/>
     </g>
    </g>
   </g>
   <g id="line2d_28">
    <path clip-path="url(#pc3b0e1ed98)" d="M 119.872159 1238.656968 
L 1021.32345 1238.656968 
L 1022.561707 725.433827 
L 1023.799964 1238.656968 
L 1025.038222 1238.656968 
L 1026.276479 725.433827 
L 1081.998056 725.433827 
L 1083.236313 1238.656968 
L 1098.0954 1238.656968 
L 1099.333658 725.433827 
L 1298.693078 725.433827 
L 1299.931335 1238.656968 
L 1641.690341 1238.656968 
L 1641.690341 1238.656968 
" style="fill:none;stroke:#008000;stroke-linecap:square;stroke-width:1.5;"/>
   </g>
   <g id="patch_8">
    <path d="M 43.78125 1264.318125 
L 43.78125 699.77267 
" style="fill:none;stroke:#000000;stroke-linecap:square;stroke-linejoin:miter;stroke-width:0.8;"/>
   </g>
   <g id="patch_9">
    <path d="M 1717.78125 1264.318125 
L 1717.78125 699.77267 
" style="fill:none;stroke:#000000;stroke-linecap:square;stroke-linejoin:miter;stroke-width:0.8;"/>
   </g>
   <g id="patch_10">
    <path d="M 43.78125 1264.318125 
L 1717.78125 1264.318125 
" style="fill:none;stroke:#000000;stroke-linecap:square;stroke-linejoin:miter;stroke-width:0.8;"/>
   </g>
   <g id="patch_11">
    <path d="M 43.78125 699.77267 
L 1717.78125 699.77267 
" style="fill:none;stroke:#000000;stroke-linecap:square;stroke-linejoin:miter;stroke-width:0.8;"/>
   </g>
   <g id="text_32">
    <!-- before binarisation -->
    <g transform="translate(824.1825 693.77267)scale(0.12 -0.12)">
     <use xlink:href="#DejaVuSans-62"/>
     <use x="63.476562" xlink:href="#DejaVuSans-65"/>
     <use x="125" xlink:href="#DejaVuSans-66"/>
     <use x="160.205078" xlink:href="#DejaVuSans-6f"/>
     <use x="221.386719" xlink:href="#DejaVuSans-72"/>
     <use x="260.25" xlink:href="#DejaVuSans-65"/>
     <use x="321.773438" xlink:href="#DejaVuSans-20"/>
     <use x="353.560547" xlink:href="#DejaVuSans-62"/>
     <use x="417.037109" xlink:href="#DejaVuSans-69"/>
     <use x="444.820312" xlink:href="#DejaVuSans-6e"/>
     <use x="508.199219" xlink:href="#DejaVuSans-61"/>
     <use x="569.478516" xlink:href="#DejaVuSans-72"/>
     <use x="610.591797" xlink:href="#DejaVuSans-69"/>
     <use x="638.375" xlink:href="#DejaVuSans-73"/>
     <use x="690.474609" xlink:href="#DejaVuSans-61"/>
     <use x="751.753906" xlink:href="#DejaVuSans-74"/>
     <use x="790.962891" xlink:href="#DejaVuSans-69"/>
     <use x="818.746094" xlink:href="#DejaVuSans-6f"/>
     <use x="879.927734" xlink:href="#DejaVuSans-6e"/>
    </g>
   </g>
  </g>
 </g>
 <defs>
  <clipPath id="p05c5847b3c">
   <rect height="564.545455" width="1674" x="43.78125" y="22.318125"/>
  </clipPath>
  <clipPath id="pc3b0e1ed98">
   <rect height="564.545455" width="1674" x="43.78125" y="699.77267"/>
  </clipPath>
 </defs>
</svg>
