<?xml version="1.0" encoding="utf-8" standalone="no"?>
<!DOCTYPE svg PUBLIC "-//W3C//DTD SVG 1.1//EN"
  "http://www.w3.org/Graphics/SVG/1.1/DTD/svg11.dtd">
<svg height="1301.874375pt" version="1.1" viewBox="0 0 1724.98125 1301.874375" width="1724.98125pt" xmlns="http://www.w3.org/2000/svg" xmlns:xlink="http://www.w3.org/1999/xlink">
 <metadata>
  <rdf:RDF xmlns:cc="http://creativecommons.org/ns#" xmlns:dc="http://purl.org/dc/elements/1.1/" xmlns:rdf="http://www.w3.org/1999/02/22-rdf-syntax-ns#">
   <cc:Work>
    <dc:type rdf:resource="http://purl.org/dc/dcmitype/StillImage"/>
    <dc:date>2022-07-24T15:54:46.505262</dc:date>
    <dc:format>image/svg+xml</dc:format>
    <dc:creator>
     <cc:Agent>
      <dc:title>Matplotlib v3.4.2, https://matplotlib.org/</dc:title>
     </cc:Agent>
    </dc:creator>
   </cc:Work>
  </rdf:RDF>
 </metadata>
 <defs>
  <style type="text/css">*{stroke-linecap:butt;stroke-linejoin:round;}</style>
 </defs>
 <g id="figure_1">
  <g id="patch_1">
   <path d="M 0 1301.874375 
L 1724.98125 1301.874375 
L 1724.98125 0 
L 0 0 
z
" style="fill:#ffffff;"/>
  </g>
  <g id="axes_1">
   <g id="patch_2">
    <path d="M 43.78125 586.86358 
L 1717.78125 586.86358 
L 1717.78125 22.318125 
L 43.78125 22.318125 
z
" style="fill:#ffffff;"/>
   </g>
   <g id="matplotlib.axis_1">
    <g id="xtick_1">
     <g id="line2d_1">
      <defs>
       <path d="M 0 0 
L 0 3.5 
" id="m71b810c32f" style="stroke:#000000;stroke-width:0.8;"/>
      </defs>
      <g>
       <use style="stroke:#000000;stroke-width:0.8;" x="119.872159" xlink:href="#m71b810c32f" y="586.86358"/>
      </g>
     </g>
     <g id="text_1">
      <!-- 0 -->
      <g transform="translate(116.690909 601.462017)scale(0.1 -0.1)">
       <defs>
        <path d="M 2034 4250 
Q 1547 4250 1301 3770 
Q 1056 3291 1056 2328 
Q 1056 1369 1301 889 
Q 1547 409 2034 409 
Q 2525 409 2770 889 
Q 3016 1369 3016 2328 
Q 3016 3291 2770 3770 
Q 2525 4250 2034 4250 
z
M 2034 4750 
Q 2819 4750 3233 4129 
Q 3647 3509 3647 2328 
Q 3647 1150 3233 529 
Q 2819 -91 2034 -91 
Q 1250 -91 836 529 
Q 422 1150 422 2328 
Q 422 3509 836 4129 
Q 1250 4750 2034 4750 
z
" id="DejaVuSans-30" transform="scale(0.015625)"/>
       </defs>
       <use xlink:href="#DejaVuSans-30"/>
      </g>
     </g>
    </g>
    <g id="xtick_2">
     <g id="line2d_2">
      <g>
       <use style="stroke:#000000;stroke-width:0.8;" x="367.523613" xlink:href="#m71b810c32f" y="586.86358"/>
      </g>
     </g>
     <g id="text_2">
      <!-- 200 -->
      <g transform="translate(357.979863 601.462017)scale(0.1 -0.1)">
       <defs>
        <path d="M 1228 531 
L 3431 531 
L 3431 0 
L 469 0 
L 469 531 
Q 828 903 1448 1529 
Q 2069 2156 2228 2338 
Q 2531 2678 2651 2914 
Q 2772 3150 2772 3378 
Q 2772 3750 2511 3984 
Q 2250 4219 1831 4219 
Q 1534 4219 1204 4116 
Q 875 4013 500 3803 
L 500 4441 
Q 881 4594 1212 4672 
Q 1544 4750 1819 4750 
Q 2544 4750 2975 4387 
Q 3406 4025 3406 3419 
Q 3406 3131 3298 2873 
Q 3191 2616 2906 2266 
Q 2828 2175 2409 1742 
Q 1991 1309 1228 531 
z
" id="DejaVuSans-32" transform="scale(0.015625)"/>
       </defs>
       <use xlink:href="#DejaVuSans-32"/>
       <use x="63.623047" xlink:href="#DejaVuSans-30"/>
       <use x="127.246094" xlink:href="#DejaVuSans-30"/>
      </g>
     </g>
    </g>
    <g id="xtick_3">
     <g id="line2d_3">
      <g>
       <use style="stroke:#000000;stroke-width:0.8;" x="615.175066" xlink:href="#m71b810c32f" y="586.86358"/>
      </g>
     </g>
     <g id="text_3">
      <!-- 400 -->
      <g transform="translate(605.631316 601.462017)scale(0.1 -0.1)">
       <defs>
        <path d="M 2419 4116 
L 825 1625 
L 2419 1625 
L 2419 4116 
z
M 2253 4666 
L 3047 4666 
L 3047 1625 
L 3713 1625 
L 3713 1100 
L 3047 1100 
L 3047 0 
L 2419 0 
L 2419 1100 
L 313 1100 
L 313 1709 
L 2253 4666 
z
" id="DejaVuSans-34" transform="scale(0.015625)"/>
       </defs>
       <use xlink:href="#DejaVuSans-34"/>
       <use x="63.623047" xlink:href="#DejaVuSans-30"/>
       <use x="127.246094" xlink:href="#DejaVuSans-30"/>
      </g>
     </g>
    </g>
    <g id="xtick_4">
     <g id="line2d_4">
      <g>
       <use style="stroke:#000000;stroke-width:0.8;" x="862.82652" xlink:href="#m71b810c32f" y="586.86358"/>
      </g>
     </g>
     <g id="text_4">
      <!-- 600 -->
      <g transform="translate(853.28277 601.462017)scale(0.1 -0.1)">
       <defs>
        <path d="M 2113 2584 
Q 1688 2584 1439 2293 
Q 1191 2003 1191 1497 
Q 1191 994 1439 701 
Q 1688 409 2113 409 
Q 2538 409 2786 701 
Q 3034 994 3034 1497 
Q 3034 2003 2786 2293 
Q 2538 2584 2113 2584 
z
M 3366 4563 
L 3366 3988 
Q 3128 4100 2886 4159 
Q 2644 4219 2406 4219 
Q 1781 4219 1451 3797 
Q 1122 3375 1075 2522 
Q 1259 2794 1537 2939 
Q 1816 3084 2150 3084 
Q 2853 3084 3261 2657 
Q 3669 2231 3669 1497 
Q 3669 778 3244 343 
Q 2819 -91 2113 -91 
Q 1303 -91 875 529 
Q 447 1150 447 2328 
Q 447 3434 972 4092 
Q 1497 4750 2381 4750 
Q 2619 4750 2861 4703 
Q 3103 4656 3366 4563 
z
" id="DejaVuSans-36" transform="scale(0.015625)"/>
       </defs>
       <use xlink:href="#DejaVuSans-36"/>
       <use x="63.623047" xlink:href="#DejaVuSans-30"/>
       <use x="127.246094" xlink:href="#DejaVuSans-30"/>
      </g>
     </g>
    </g>
    <g id="xtick_5">
     <g id="line2d_5">
      <g>
       <use style="stroke:#000000;stroke-width:0.8;" x="1110.477973" xlink:href="#m71b810c32f" y="586.86358"/>
      </g>
     </g>
     <g id="text_5">
      <!-- 800 -->
      <g transform="translate(1100.934223 601.462017)scale(0.1 -0.1)">
       <defs>
        <path d="M 2034 2216 
Q 1584 2216 1326 1975 
Q 1069 1734 1069 1313 
Q 1069 891 1326 650 
Q 1584 409 2034 409 
Q 2484 409 2743 651 
Q 3003 894 3003 1313 
Q 3003 1734 2745 1975 
Q 2488 2216 2034 2216 
z
M 1403 2484 
Q 997 2584 770 2862 
Q 544 3141 544 3541 
Q 544 4100 942 4425 
Q 1341 4750 2034 4750 
Q 2731 4750 3128 4425 
Q 3525 4100 3525 3541 
Q 3525 3141 3298 2862 
Q 3072 2584 2669 2484 
Q 3125 2378 3379 2068 
Q 3634 1759 3634 1313 
Q 3634 634 3220 271 
Q 2806 -91 2034 -91 
Q 1263 -91 848 271 
Q 434 634 434 1313 
Q 434 1759 690 2068 
Q 947 2378 1403 2484 
z
M 1172 3481 
Q 1172 3119 1398 2916 
Q 1625 2713 2034 2713 
Q 2441 2713 2670 2916 
Q 2900 3119 2900 3481 
Q 2900 3844 2670 4047 
Q 2441 4250 2034 4250 
Q 1625 4250 1398 4047 
Q 1172 3844 1172 3481 
z
" id="DejaVuSans-38" transform="scale(0.015625)"/>
       </defs>
       <use xlink:href="#DejaVuSans-38"/>
       <use x="63.623047" xlink:href="#DejaVuSans-30"/>
       <use x="127.246094" xlink:href="#DejaVuSans-30"/>
      </g>
     </g>
    </g>
    <g id="xtick_6">
     <g id="line2d_6">
      <g>
       <use style="stroke:#000000;stroke-width:0.8;" x="1358.129427" xlink:href="#m71b810c32f" y="586.86358"/>
      </g>
     </g>
     <g id="text_6">
      <!-- 1000 -->
      <g transform="translate(1345.404427 601.462017)scale(0.1 -0.1)">
       <defs>
        <path d="M 794 531 
L 1825 531 
L 1825 4091 
L 703 3866 
L 703 4441 
L 1819 4666 
L 2450 4666 
L 2450 531 
L 3481 531 
L 3481 0 
L 794 0 
L 794 531 
z
" id="DejaVuSans-31" transform="scale(0.015625)"/>
       </defs>
       <use xlink:href="#DejaVuSans-31"/>
       <use x="63.623047" xlink:href="#DejaVuSans-30"/>
       <use x="127.246094" xlink:href="#DejaVuSans-30"/>
       <use x="190.869141" xlink:href="#DejaVuSans-30"/>
      </g>
     </g>
    </g>
    <g id="xtick_7">
     <g id="line2d_7">
      <g>
       <use style="stroke:#000000;stroke-width:0.8;" x="1605.78088" xlink:href="#m71b810c32f" y="586.86358"/>
      </g>
     </g>
     <g id="text_7">
      <!-- 1200 -->
      <g transform="translate(1593.05588 601.462017)scale(0.1 -0.1)">
       <use xlink:href="#DejaVuSans-31"/>
       <use x="63.623047" xlink:href="#DejaVuSans-32"/>
       <use x="127.246094" xlink:href="#DejaVuSans-30"/>
       <use x="190.869141" xlink:href="#DejaVuSans-30"/>
      </g>
     </g>
    </g>
    <g id="text_8">
     <!-- frame -->
     <g transform="translate(865.954687 615.140142)scale(0.1 -0.1)">
      <defs>
       <path d="M 2375 4863 
L 2375 4384 
L 1825 4384 
Q 1516 4384 1395 4259 
Q 1275 4134 1275 3809 
L 1275 3500 
L 2222 3500 
L 2222 3053 
L 1275 3053 
L 1275 0 
L 697 0 
L 697 3053 
L 147 3053 
L 147 3500 
L 697 3500 
L 697 3744 
Q 697 4328 969 4595 
Q 1241 4863 1831 4863 
L 2375 4863 
z
" id="DejaVuSans-66" transform="scale(0.015625)"/>
       <path d="M 2631 2963 
Q 2534 3019 2420 3045 
Q 2306 3072 2169 3072 
Q 1681 3072 1420 2755 
Q 1159 2438 1159 1844 
L 1159 0 
L 581 0 
L 581 3500 
L 1159 3500 
L 1159 2956 
Q 1341 3275 1631 3429 
Q 1922 3584 2338 3584 
Q 2397 3584 2469 3576 
Q 2541 3569 2628 3553 
L 2631 2963 
z
" id="DejaVuSans-72" transform="scale(0.015625)"/>
       <path d="M 2194 1759 
Q 1497 1759 1228 1600 
Q 959 1441 959 1056 
Q 959 750 1161 570 
Q 1363 391 1709 391 
Q 2188 391 2477 730 
Q 2766 1069 2766 1631 
L 2766 1759 
L 2194 1759 
z
M 3341 1997 
L 3341 0 
L 2766 0 
L 2766 531 
Q 2569 213 2275 61 
Q 1981 -91 1556 -91 
Q 1019 -91 701 211 
Q 384 513 384 1019 
Q 384 1609 779 1909 
Q 1175 2209 1959 2209 
L 2766 2209 
L 2766 2266 
Q 2766 2663 2505 2880 
Q 2244 3097 1772 3097 
Q 1472 3097 1187 3025 
Q 903 2953 641 2809 
L 641 3341 
Q 956 3463 1253 3523 
Q 1550 3584 1831 3584 
Q 2591 3584 2966 3190 
Q 3341 2797 3341 1997 
z
" id="DejaVuSans-61" transform="scale(0.015625)"/>
       <path d="M 3328 2828 
Q 3544 3216 3844 3400 
Q 4144 3584 4550 3584 
Q 5097 3584 5394 3201 
Q 5691 2819 5691 2113 
L 5691 0 
L 5113 0 
L 5113 2094 
Q 5113 2597 4934 2840 
Q 4756 3084 4391 3084 
Q 3944 3084 3684 2787 
Q 3425 2491 3425 1978 
L 3425 0 
L 2847 0 
L 2847 2094 
Q 2847 2600 2669 2842 
Q 2491 3084 2119 3084 
Q 1678 3084 1418 2786 
Q 1159 2488 1159 1978 
L 1159 0 
L 581 0 
L 581 3500 
L 1159 3500 
L 1159 2956 
Q 1356 3278 1631 3431 
Q 1906 3584 2284 3584 
Q 2666 3584 2933 3390 
Q 3200 3197 3328 2828 
z
" id="DejaVuSans-6d" transform="scale(0.015625)"/>
       <path d="M 3597 1894 
L 3597 1613 
L 953 1613 
Q 991 1019 1311 708 
Q 1631 397 2203 397 
Q 2534 397 2845 478 
Q 3156 559 3463 722 
L 3463 178 
Q 3153 47 2828 -22 
Q 2503 -91 2169 -91 
Q 1331 -91 842 396 
Q 353 884 353 1716 
Q 353 2575 817 3079 
Q 1281 3584 2069 3584 
Q 2775 3584 3186 3129 
Q 3597 2675 3597 1894 
z
M 3022 2063 
Q 3016 2534 2758 2815 
Q 2500 3097 2075 3097 
Q 1594 3097 1305 2825 
Q 1016 2553 972 2059 
L 3022 2063 
z
" id="DejaVuSans-65" transform="scale(0.015625)"/>
      </defs>
      <use xlink:href="#DejaVuSans-66"/>
      <use x="35.205078" xlink:href="#DejaVuSans-72"/>
      <use x="76.318359" xlink:href="#DejaVuSans-61"/>
      <use x="137.597656" xlink:href="#DejaVuSans-6d"/>
      <use x="235.009766" xlink:href="#DejaVuSans-65"/>
     </g>
    </g>
   </g>
   <g id="matplotlib.axis_2">
    <g id="ytick_1">
     <g id="line2d_8">
      <defs>
       <path d="M 0 0 
L -3.5 0 
" id="m51ba5f5367" style="stroke:#000000;stroke-width:0.8;"/>
      </defs>
      <g>
       <use style="stroke:#000000;stroke-width:0.8;" x="43.78125" xlink:href="#m51ba5f5367" y="561.202423"/>
      </g>
     </g>
     <g id="text_9">
      <!-- 0 -->
      <g transform="translate(30.41875 565.001641)scale(0.1 -0.1)">
       <use xlink:href="#DejaVuSans-30"/>
      </g>
     </g>
    </g>
    <g id="ytick_2">
     <g id="line2d_9">
      <g>
       <use style="stroke:#000000;stroke-width:0.8;" x="43.78125" xlink:href="#m51ba5f5367" y="453.562426"/>
      </g>
     </g>
     <g id="text_10">
      <!-- 1 -->
      <g transform="translate(30.41875 457.361644)scale(0.1 -0.1)">
       <use xlink:href="#DejaVuSans-31"/>
      </g>
     </g>
    </g>
    <g id="ytick_3">
     <g id="line2d_10">
      <g>
       <use style="stroke:#000000;stroke-width:0.8;" x="43.78125" xlink:href="#m51ba5f5367" y="345.922429"/>
      </g>
     </g>
     <g id="text_11">
      <!-- 2 -->
      <g transform="translate(30.41875 349.721648)scale(0.1 -0.1)">
       <use xlink:href="#DejaVuSans-32"/>
      </g>
     </g>
    </g>
    <g id="ytick_4">
     <g id="line2d_11">
      <g>
       <use style="stroke:#000000;stroke-width:0.8;" x="43.78125" xlink:href="#m51ba5f5367" y="238.282432"/>
      </g>
     </g>
     <g id="text_12">
      <!-- 3 -->
      <g transform="translate(30.41875 242.081651)scale(0.1 -0.1)">
       <defs>
        <path d="M 2597 2516 
Q 3050 2419 3304 2112 
Q 3559 1806 3559 1356 
Q 3559 666 3084 287 
Q 2609 -91 1734 -91 
Q 1441 -91 1130 -33 
Q 819 25 488 141 
L 488 750 
Q 750 597 1062 519 
Q 1375 441 1716 441 
Q 2309 441 2620 675 
Q 2931 909 2931 1356 
Q 2931 1769 2642 2001 
Q 2353 2234 1838 2234 
L 1294 2234 
L 1294 2753 
L 1863 2753 
Q 2328 2753 2575 2939 
Q 2822 3125 2822 3475 
Q 2822 3834 2567 4026 
Q 2313 4219 1838 4219 
Q 1578 4219 1281 4162 
Q 984 4106 628 3988 
L 628 4550 
Q 988 4650 1302 4700 
Q 1616 4750 1894 4750 
Q 2613 4750 3031 4423 
Q 3450 4097 3450 3541 
Q 3450 3153 3228 2886 
Q 3006 2619 2597 2516 
z
" id="DejaVuSans-33" transform="scale(0.015625)"/>
       </defs>
       <use xlink:href="#DejaVuSans-33"/>
      </g>
     </g>
    </g>
    <g id="ytick_5">
     <g id="line2d_12">
      <g>
       <use style="stroke:#000000;stroke-width:0.8;" x="43.78125" xlink:href="#m51ba5f5367" y="130.642435"/>
      </g>
     </g>
     <g id="text_13">
      <!-- 4 -->
      <g transform="translate(30.41875 134.441654)scale(0.1 -0.1)">
       <use xlink:href="#DejaVuSans-34"/>
      </g>
     </g>
    </g>
    <g id="ytick_6">
     <g id="line2d_13">
      <g>
       <use style="stroke:#000000;stroke-width:0.8;" x="43.78125" xlink:href="#m51ba5f5367" y="23.002438"/>
      </g>
     </g>
     <g id="text_14">
      <!-- 5 -->
      <g transform="translate(30.41875 26.801657)scale(0.1 -0.1)">
       <defs>
        <path d="M 691 4666 
L 3169 4666 
L 3169 4134 
L 1269 4134 
L 1269 2991 
Q 1406 3038 1543 3061 
Q 1681 3084 1819 3084 
Q 2600 3084 3056 2656 
Q 3513 2228 3513 1497 
Q 3513 744 3044 326 
Q 2575 -91 1722 -91 
Q 1428 -91 1123 -41 
Q 819 9 494 109 
L 494 744 
Q 775 591 1075 516 
Q 1375 441 1709 441 
Q 2250 441 2565 725 
Q 2881 1009 2881 1497 
Q 2881 1984 2565 2268 
Q 2250 2553 1709 2553 
Q 1456 2553 1204 2497 
Q 953 2441 691 2322 
L 691 4666 
z
" id="DejaVuSans-35" transform="scale(0.015625)"/>
       </defs>
       <use xlink:href="#DejaVuSans-35"/>
      </g>
     </g>
    </g>
    <g id="text_15">
     <!-- GCaMP -->
     <g transform="translate(24.339062 322.349446)rotate(-90)scale(0.1 -0.1)">
      <defs>
       <path d="M 3809 666 
L 3809 1919 
L 2778 1919 
L 2778 2438 
L 4434 2438 
L 4434 434 
Q 4069 175 3628 42 
Q 3188 -91 2688 -91 
Q 1594 -91 976 548 
Q 359 1188 359 2328 
Q 359 3472 976 4111 
Q 1594 4750 2688 4750 
Q 3144 4750 3555 4637 
Q 3966 4525 4313 4306 
L 4313 3634 
Q 3963 3931 3569 4081 
Q 3175 4231 2741 4231 
Q 1884 4231 1454 3753 
Q 1025 3275 1025 2328 
Q 1025 1384 1454 906 
Q 1884 428 2741 428 
Q 3075 428 3337 486 
Q 3600 544 3809 666 
z
" id="DejaVuSans-47" transform="scale(0.015625)"/>
       <path d="M 4122 4306 
L 4122 3641 
Q 3803 3938 3442 4084 
Q 3081 4231 2675 4231 
Q 1875 4231 1450 3742 
Q 1025 3253 1025 2328 
Q 1025 1406 1450 917 
Q 1875 428 2675 428 
Q 3081 428 3442 575 
Q 3803 722 4122 1019 
L 4122 359 
Q 3791 134 3420 21 
Q 3050 -91 2638 -91 
Q 1578 -91 968 557 
Q 359 1206 359 2328 
Q 359 3453 968 4101 
Q 1578 4750 2638 4750 
Q 3056 4750 3426 4639 
Q 3797 4528 4122 4306 
z
" id="DejaVuSans-43" transform="scale(0.015625)"/>
       <path d="M 628 4666 
L 1569 4666 
L 2759 1491 
L 3956 4666 
L 4897 4666 
L 4897 0 
L 4281 0 
L 4281 4097 
L 3078 897 
L 2444 897 
L 1241 4097 
L 1241 0 
L 628 0 
L 628 4666 
z
" id="DejaVuSans-4d" transform="scale(0.015625)"/>
       <path d="M 1259 4147 
L 1259 2394 
L 2053 2394 
Q 2494 2394 2734 2622 
Q 2975 2850 2975 3272 
Q 2975 3691 2734 3919 
Q 2494 4147 2053 4147 
L 1259 4147 
z
M 628 4666 
L 2053 4666 
Q 2838 4666 3239 4311 
Q 3641 3956 3641 3272 
Q 3641 2581 3239 2228 
Q 2838 1875 2053 1875 
L 1259 1875 
L 1259 0 
L 628 0 
L 628 4666 
z
" id="DejaVuSans-50" transform="scale(0.015625)"/>
      </defs>
      <use xlink:href="#DejaVuSans-47"/>
      <use x="77.490234" xlink:href="#DejaVuSans-43"/>
      <use x="147.314453" xlink:href="#DejaVuSans-61"/>
      <use x="208.59375" xlink:href="#DejaVuSans-4d"/>
      <use x="294.873047" xlink:href="#DejaVuSans-50"/>
     </g>
    </g>
   </g>
   <g id="line2d_14">
    <path clip-path="url(#p2ccdff3851)" d="M 119.872159 420.441881 
L 121.110416 425.801967 
L 122.348674 429.384937 
L 123.586931 429.776429 
L 124.825188 426.126824 
L 126.063445 418.067822 
L 127.301703 405.837218 
L 128.53996 390.454659 
L 131.016474 357.374321 
L 132.254732 343.832234 
L 133.492989 334.350789 
L 134.731246 328.906819 
L 135.969504 326.469383 
L 137.207761 325.810624 
L 138.446018 325.571015 
L 139.684275 324.018415 
L 140.922533 319.504044 
L 142.16079 311.524105 
L 145.875562 281.212584 
L 147.113819 273.513505 
L 148.352076 268.348967 
L 149.590334 266.080627 
L 152.066848 265.43895 
L 153.305105 263.782615 
L 154.543363 260.727766 
L 155.78162 257.234507 
L 157.019877 254.351617 
L 158.258134 252.682229 
L 159.496392 252.405847 
L 160.734649 253.407624 
L 161.972906 255.13819 
L 163.211163 256.645435 
L 164.449421 256.849509 
L 165.687678 254.645257 
L 166.925935 249.460393 
L 169.40245 235.186804 
L 170.640707 230.345469 
L 171.878964 227.946002 
L 173.117222 226.414867 
L 174.355479 223.519923 
L 175.593736 217.951647 
L 176.831993 210.51913 
L 178.070251 203.854926 
L 179.308508 200.658215 
L 180.546765 202.565006 
L 181.785022 210.016926 
L 183.02328 221.769797 
L 184.261537 234.792474 
L 185.499794 245.271404 
L 186.738052 250.118422 
L 187.976309 248.590763 
L 190.452823 236.459126 
L 191.691081 233.20151 
L 192.929338 234.86334 
L 194.167595 241.07906 
L 195.405852 250.440283 
L 196.64411 261.74489 
L 200.358881 299.09412 
L 201.597139 308.068701 
L 202.835396 313.109765 
L 204.073653 313.681807 
L 205.311911 309.456818 
L 206.550168 300.364144 
L 207.788425 286.717936 
L 209.026682 269.319996 
L 210.26494 248.716094 
L 211.503197 224.36264 
L 215.217969 142.466422 
L 216.456226 126.03835 
L 217.694483 120.22072 
L 218.93274 124.43419 
L 220.170998 135.642672 
L 223.88577 178.816041 
L 225.124027 189.312696 
L 226.362284 194.09861 
L 227.600541 190.919302 
L 228.838799 177.671689 
L 230.077056 153.283636 
L 232.55357 86.899516 
L 233.791828 61.517352 
L 235.030085 48.894677 
L 236.268342 47.979282 
L 237.5066 55.023854 
L 238.744857 66.691532 
L 239.983114 81.302523 
L 241.221371 98.496576 
L 243.697886 136.438429 
L 244.936143 152.97801 
L 246.1744 166.134958 
L 247.412658 175.169117 
L 248.650915 179.674717 
L 251.127429 182.460601 
L 252.365687 186.902736 
L 253.603944 195.332458 
L 256.080459 217.170052 
L 257.318716 226.56833 
L 258.556973 234.211163 
L 259.79523 240.351604 
L 262.271745 251.316081 
L 264.748259 264.769681 
L 265.986517 270.444324 
L 267.224774 274.353567 
L 269.701288 279.856479 
L 270.939546 283.441486 
L 272.177803 288.177312 
L 274.654318 299.540706 
L 275.892575 302.586859 
L 277.130832 299.887651 
L 278.369089 289.087095 
L 279.607347 270.380257 
L 280.845604 247.566014 
L 282.083861 226.91948 
L 283.322118 213.770075 
L 284.560376 209.974112 
L 285.798633 214.41151 
L 287.03689 224.496997 
L 289.513405 248.775299 
L 290.751662 257.886563 
L 291.989919 263.325931 
L 293.228177 264.611405 
L 294.466434 262.251919 
L 295.704691 258.622255 
L 296.942948 257.062625 
L 298.181206 259.373413 
L 300.65772 270.361778 
L 301.895977 274.03617 
L 303.134235 273.499521 
L 304.372492 267.260227 
L 306.849006 244.396201 
L 308.087264 237.190966 
L 309.325521 237.306935 
L 310.563778 244.080505 
L 311.802036 254.24226 
L 313.040293 263.399737 
L 314.27855 267.771969 
L 315.516807 265.197983 
L 316.755065 256.060092 
L 317.993322 244.200542 
L 319.231579 235.230458 
L 320.469836 232.74721 
L 321.708094 236.910454 
L 322.946351 246.216361 
L 324.184608 259.025615 
L 326.661123 287.550778 
L 327.89938 298.671998 
L 329.137637 305.086432 
L 330.375895 306.702791 
L 332.852409 304.474701 
L 334.090666 305.926706 
L 335.328924 310.976071 
L 336.567181 319.375935 
L 339.043695 339.661517 
L 340.281953 347.400487 
L 341.52021 350.937428 
L 342.758467 348.723047 
L 343.996725 339.898724 
L 345.234982 324.616291 
L 346.473239 304.368032 
L 348.949754 258.944302 
L 350.188011 240.727772 
L 351.426268 231.606127 
L 352.664525 233.372716 
L 353.902783 242.992086 
L 355.14104 254.798412 
L 356.379297 263.815487 
L 357.617554 267.547324 
L 358.855812 266.253621 
L 361.332326 258.336828 
L 362.570584 257.163388 
L 363.808841 259.267208 
L 366.285355 267.453201 
L 367.523613 270.910411 
L 368.76187 273.878645 
L 370.000127 276.141725 
L 371.238384 276.01321 
L 372.476642 271.832122 
L 373.714899 264.613639 
L 374.953156 258.096648 
L 376.191413 255.874926 
L 377.429671 258.785228 
L 379.906185 270.262398 
L 381.144443 273.800385 
L 383.620957 277.77213 
L 386.097472 283.468269 
L 387.335729 285.497591 
L 388.573986 287.311243 
L 389.812243 289.952452 
L 392.288758 296.454119 
L 393.527015 298.561269 
L 394.765272 298.804201 
L 396.00353 295.645806 
L 397.241787 287.626766 
L 400.956559 251.043616 
L 403.433073 234.380783 
L 405.909588 216.594519 
L 408.386102 198.909536 
L 409.62436 192.326483 
L 410.862617 189.228725 
L 412.100874 190.307952 
L 413.339132 195.727463 
L 414.577389 205.481607 
L 415.815646 218.83803 
L 418.292161 248.733536 
L 419.530418 260.977094 
L 420.768675 269.087862 
L 422.006932 271.152114 
L 423.24519 265.125674 
L 424.483447 249.839386 
L 425.721704 226.228549 
L 426.959961 198.597864 
L 428.198219 174.43243 
L 429.436476 160.843555 
L 430.674733 160.329961 
L 431.912991 170.459736 
L 433.151248 186.664506 
L 435.627762 222.343602 
L 436.86602 237.934663 
L 438.104277 250.566127 
L 439.342534 259.654034 
L 440.580791 265.702798 
L 441.819049 269.920511 
L 443.057306 272.957975 
L 444.295563 274.06657 
L 445.53382 271.261488 
L 446.772078 262.510823 
L 448.010335 247.020013 
L 449.248592 225.692141 
L 451.725107 177.535058 
L 452.963364 157.331727 
L 454.201621 142.097435 
L 455.439879 132.92397 
L 456.678136 130.586638 
L 457.916393 134.666092 
L 459.15465 143.326616 
L 461.631165 165.7619 
L 465.345937 201.97299 
L 466.584194 209.322947 
L 467.822451 210.475429 
L 469.060709 205.941618 
L 471.537223 191.257048 
L 472.77548 188.178518 
L 474.013738 190.142112 
L 475.251995 195.315174 
L 477.728509 206.977823 
L 478.966767 211.915403 
L 480.205024 215.269518 
L 481.443281 215.562107 
L 482.681538 210.90357 
L 483.919796 200.035646 
L 486.39631 167.577034 
L 487.634568 155.632927 
L 488.872825 151.57042 
L 490.111082 155.416164 
L 491.349339 165.476257 
L 492.587597 179.886544 
L 495.064111 212.266743 
L 496.302368 223.610839 
L 497.540626 229.123855 
L 498.778883 230.735671 
L 500.01714 231.950217 
L 501.255397 235.128986 
L 502.493655 240.387807 
L 504.970169 253.355638 
L 506.208427 260.21752 
L 507.446684 266.043118 
L 508.684941 269.540422 
L 509.923198 270.788966 
L 511.161456 270.759254 
L 512.399713 270.498023 
L 513.63797 271.449102 
L 514.876227 274.926087 
L 517.352742 286.637055 
L 518.590999 291.067849 
L 519.829257 292.503084 
L 521.067514 290.253708 
L 522.305771 283.756068 
L 523.544028 271.635511 
L 524.782286 252.578432 
L 528.497057 176.207472 
L 529.735315 159.839666 
L 530.973572 154.740667 
L 532.211829 162.3514 
L 533.450086 180.898635 
L 537.164858 255.063565 
L 538.403116 271.203166 
L 539.641373 279.799164 
L 540.87963 282.029761 
L 542.117887 280.187343 
L 544.594402 272.04951 
L 545.832659 269.732062 
L 547.070916 271.066347 
L 548.309174 275.816765 
L 550.785688 287.694887 
L 552.023945 292.10392 
L 553.262203 295.536699 
L 554.50046 298.114476 
L 555.738717 299.599412 
L 556.976975 300.265261 
L 558.215232 301.250882 
L 559.453489 303.773763 
L 560.691746 308.154057 
L 561.930004 313.196485 
L 563.168261 316.387517 
L 564.406518 315.270284 
L 565.644775 308.93539 
L 568.12129 289.472844 
L 569.359547 284.149459 
L 570.597804 284.092346 
L 573.074319 290.248597 
L 574.312576 290.894524 
L 575.550834 289.337487 
L 576.789091 287.504088 
L 578.027348 286.982453 
L 579.265605 287.532546 
L 580.503863 287.696391 
L 581.74212 287.030267 
L 582.980377 287.11138 
L 584.218634 289.477657 
L 585.456892 293.438001 
L 586.695149 296.518023 
L 587.933406 296.600679 
L 589.171663 293.859064 
L 594.124693 279.350073 
L 595.36295 277.364527 
L 596.601207 280.234352 
L 597.839464 287.9797 
L 599.077722 297.48902 
L 600.315979 305.00297 
L 601.554236 308.139557 
L 602.792493 306.636692 
L 605.269008 298.036297 
L 606.507265 295.837095 
L 607.745523 296.795646 
L 608.98378 300.938395 
L 610.222037 307.291582 
L 612.698552 320.658254 
L 615.175066 333.329544 
L 616.413323 340.421478 
L 617.651581 346.832292 
L 618.889838 351.224256 
L 620.128095 353.434292 
L 621.366352 354.703781 
L 622.60461 356.751137 
L 623.842867 360.596007 
L 626.319382 371.624023 
L 627.557639 375.833222 
L 628.795896 377.955665 
L 630.034153 379.053128 
L 631.272411 380.620647 
L 633.748925 385.19044 
L 634.987182 386.317028 
L 636.22544 385.840052 
L 637.463697 383.946548 
L 638.701954 381.409985 
L 639.940211 379.139153 
L 641.178469 377.651006 
L 642.416726 377.15054 
L 643.654983 378.014441 
L 644.893241 380.827058 
L 646.131498 385.552339 
L 647.369755 390.724688 
L 648.608012 393.904451 
L 649.84627 392.854222 
L 651.084527 386.515527 
L 652.322784 375.682693 
L 654.799299 350.229885 
L 656.037556 339.986217 
L 657.275813 332.228958 
L 658.51407 326.954821 
L 659.752328 325.333557 
L 660.990585 328.731419 
L 662.228842 336.873233 
L 664.705357 357.548544 
L 665.943614 364.279443 
L 667.181871 366.132626 
L 668.420129 362.908921 
L 670.896643 348.898408 
L 672.1349 344.395824 
L 673.373158 344.865271 
L 674.611415 350.284479 
L 677.087929 366.259734 
L 678.326187 370.493076 
L 679.564444 370.197798 
L 680.802701 366.847142 
L 684.517473 354.252021 
L 686.993988 343.137028 
L 688.232245 339.735433 
L 689.470502 339.860166 
L 690.708759 342.223031 
L 691.947017 343.996284 
L 693.185274 343.856468 
L 694.423531 343.369366 
L 695.661789 344.805404 
L 696.900046 348.404399 
L 698.138303 352.501061 
L 699.37656 355.637116 
L 700.614818 357.910843 
L 701.853075 360.440196 
L 704.329589 366.982503 
L 705.567847 368.56499 
L 706.806104 367.483398 
L 708.044361 364.023894 
L 712.99739 345.779349 
L 714.235648 343.407043 
L 715.473905 343.428268 
L 716.712162 345.362838 
L 717.950419 347.746731 
L 719.188677 349.56115 
L 720.426934 350.595727 
L 721.665191 350.410682 
L 722.903448 348.450277 
L 724.141706 345.521203 
L 725.379963 343.824958 
L 726.61822 345.094324 
L 727.856477 349.32569 
L 730.332992 361.317206 
L 731.571249 366.109016 
L 732.809507 369.178458 
L 734.047764 371.383269 
L 735.286021 374.045906 
L 736.524278 377.508625 
L 737.762536 380.508243 
L 739.000793 380.995139 
L 740.23905 378.218833 
L 741.477307 373.966038 
L 742.715565 370.820863 
L 743.953822 369.484731 
L 745.192079 368.637389 
L 746.430336 366.857944 
L 748.906851 361.188456 
L 750.145108 360.174477 
L 751.383366 361.429815 
L 752.621623 363.825941 
L 753.85988 365.735166 
L 755.098137 366.156596 
L 756.336395 365.368728 
L 757.574652 364.846982 
L 758.812909 366.110948 
L 760.051166 369.530417 
L 762.527681 378.637494 
L 763.765938 381.712216 
L 765.004195 383.422318 
L 766.242453 384.869381 
L 768.718967 388.724554 
L 769.957225 389.182943 
L 771.195482 387.386592 
L 772.433739 383.725239 
L 774.910254 375.501905 
L 776.148511 372.061672 
L 777.386768 369.55327 
L 778.625025 369.264071 
L 779.863283 372.331977 
L 781.10154 378.473683 
L 783.578054 393.289045 
L 784.816312 398.894179 
L 786.054569 401.920298 
L 787.292826 402.365618 
L 788.531084 401.987533 
L 789.769341 403.185837 
L 791.007598 406.68202 
L 792.245855 410.965298 
L 793.484113 413.832197 
L 794.72237 413.719346 
L 795.960627 410.08451 
L 798.437142 397.19559 
L 799.675399 393.045862 
L 800.913656 392.430958 
L 802.151914 394.605488 
L 804.628428 401.756755 
L 805.866685 404.666651 
L 809.581457 411.549611 
L 810.819714 415.48815 
L 812.057972 421.319519 
L 813.296229 428.255016 
L 814.534486 434.059588 
L 815.772743 436.355157 
L 817.011001 434.432196 
L 818.249258 430.021952 
L 819.487515 426.234612 
L 820.725773 425.039135 
L 821.96403 425.708896 
L 823.202287 426.041156 
L 824.440544 424.326655 
L 825.678802 420.375649 
L 826.917059 415.93393 
L 828.155316 413.709039 
L 829.393573 415.362628 
L 830.631831 420.299375 
L 831.870088 425.886841 
L 833.108345 429.113513 
L 834.346602 428.393995 
L 835.58486 423.965669 
L 839.299632 403.971745 
L 840.537889 398.854261 
L 841.776146 395.420499 
L 843.014403 393.708918 
L 844.252661 392.667272 
L 845.490918 391.44948 
L 846.729175 390.708156 
L 847.967432 391.646823 
L 850.443947 396.741111 
L 851.682204 396.790813 
L 852.920461 393.747461 
L 854.158719 389.261716 
L 855.396976 386.368038 
L 856.635233 387.4454 
L 859.111748 396.722402 
L 860.350005 398.503179 
L 861.588262 396.148129 
L 864.064777 385.994002 
L 865.303034 383.713001 
L 866.541291 385.349748 
L 867.779549 390.418499 
L 869.017806 396.944779 
L 870.256063 402.348419 
L 871.49432 404.852289 
L 872.732578 404.063443 
L 873.970835 400.405316 
L 875.209092 394.686468 
L 877.685607 382.23563 
L 878.923864 377.827544 
L 880.162121 375.859303 
L 881.400379 377.247081 
L 882.638636 381.964013 
L 883.876893 388.749506 
L 886.353408 403.861198 
L 887.591665 409.856053 
L 888.829922 412.373893 
L 890.06818 410.709816 
L 891.306437 406.614147 
L 892.544694 403.391617 
L 893.782951 403.500407 
L 895.021209 407.03664 
L 896.259466 411.913834 
L 897.497723 415.05184 
L 898.73598 414.816855 
L 899.974238 412.876308 
L 901.212495 412.406074 
L 902.450752 414.547876 
L 903.689009 417.3972 
L 904.927267 417.993106 
L 906.165524 415.005671 
L 909.880296 398.907328 
L 911.118553 393.172678 
L 912.35681 388.595381 
L 913.595068 387.485766 
L 914.833325 390.567516 
L 916.071582 396.55987 
L 918.548097 410.262185 
L 919.786354 416.074345 
L 921.024611 419.352238 
L 922.262868 418.256878 
L 923.501126 412.892364 
L 924.739383 405.765852 
L 925.97764 400.236075 
L 927.215898 398.598855 
L 928.454155 401.068014 
L 929.692412 406.253014 
L 930.930669 412.208678 
L 932.168927 417.172715 
L 933.407184 420.167043 
L 934.645441 421.221545 
L 935.883698 420.657611 
L 937.121956 418.254692 
L 938.360213 413.525897 
L 940.836727 399.815179 
L 942.074985 395.536739 
L 943.313242 396.047876 
L 944.551499 401.058178 
L 945.789757 408.068869 
L 947.028014 414.139039 
L 948.266271 417.3978 
L 949.504528 417.309356 
L 950.742786 414.363358 
L 951.981043 410.045203 
L 953.2193 406.709201 
L 954.457557 406.230807 
L 956.934072 410.130696 
L 958.172329 409.19613 
L 959.410586 404.119463 
L 961.887101 387.819145 
L 963.125358 383.507962 
L 964.363616 384.975194 
L 965.601873 391.7446 
L 968.078387 411.319935 
L 969.316645 419.85092 
L 970.554902 426.782119 
L 971.793159 432.015821 
L 973.031416 435.646545 
L 975.507931 441.317015 
L 976.746188 442.919477 
L 977.984446 440.903075 
L 979.222703 434.130527 
L 980.46096 424.467364 
L 981.699217 416.051512 
L 982.937475 412.596709 
L 984.175732 414.47666 
L 985.413989 418.564046 
L 986.652246 421.059778 
L 987.890504 419.915406 
L 989.128761 415.208166 
L 991.605275 402.534549 
L 992.843533 399.591152 
L 994.08179 401.986787 
L 995.320047 410.439433 
L 996.558305 423.681746 
L 997.796562 438.795551 
L 999.034819 451.878069 
L 1000.273076 459.839842 
L 1001.511334 461.700471 
L 1002.749591 457.785054 
L 1003.987848 448.541201 
L 1005.226105 434.982155 
L 1006.464363 419.917001 
L 1007.70262 406.862119 
L 1008.940877 397.189266 
L 1010.179134 389.879151 
L 1011.417392 384.127085 
L 1012.655649 380.747055 
L 1013.893906 380.602406 
L 1016.370421 384.464829 
L 1017.608678 385.002048 
L 1018.846935 384.560643 
L 1020.085193 384.262572 
L 1021.32345 385.328809 
L 1022.561707 388.148185 
L 1023.799964 391.553937 
L 1025.038222 393.36427 
L 1026.276479 392.580743 
L 1027.514736 390.722741 
L 1028.752993 390.117796 
L 1029.991251 392.012283 
L 1032.467765 400.579051 
L 1033.706023 402.446049 
L 1034.94428 400.67676 
L 1036.182537 397.213127 
L 1037.420794 395.425546 
L 1038.659052 397.122521 
L 1039.897309 400.994817 
L 1041.135566 403.737022 
L 1042.373823 402.547914 
L 1043.612081 397.097695 
L 1046.088595 381.831868 
L 1047.326852 375.766533 
L 1048.56511 372.356315 
L 1049.803367 372.474815 
L 1051.041624 376.094143 
L 1052.279882 382.30588 
L 1054.756396 397.497696 
L 1055.994653 402.967747 
L 1057.232911 404.497941 
L 1058.471168 402.104855 
L 1059.709425 398.160833 
L 1060.947682 395.792583 
L 1062.18594 396.24282 
L 1063.424197 397.776041 
L 1064.662454 397.405532 
L 1065.900711 393.887746 
L 1067.138969 389.294255 
L 1068.377226 387.150902 
L 1069.615483 388.270593 
L 1070.853741 389.569521 
L 1072.091998 387.799709 
L 1074.568512 378.267895 
L 1075.80677 376.831422 
L 1077.045027 379.919175 
L 1078.283284 386.5952 
L 1079.521541 395.403802 
L 1080.759799 405.020457 
L 1081.998056 413.591296 
L 1083.236313 418.437136 
L 1084.474571 416.944787 
L 1085.712828 408.03356 
L 1088.189342 378.978124 
L 1089.4276 371.757524 
L 1090.665857 375.803971 
L 1091.904114 388.350071 
L 1093.142371 402.921727 
L 1094.380629 414.079737 
L 1095.618886 419.366853 
L 1096.857143 419.456808 
L 1099.333658 414.918148 
L 1100.571915 413.243599 
L 1101.810172 411.886681 
L 1103.04843 410.930464 
L 1104.286687 410.538618 
L 1106.763201 411.088739 
L 1108.001459 410.131531 
L 1109.239716 407.26035 
L 1110.477973 403.676746 
L 1111.71623 401.675864 
L 1112.954488 402.897717 
L 1114.192745 406.394681 
L 1115.431002 408.989993 
L 1116.669259 408.316271 
L 1117.907517 404.942227 
L 1119.145774 402.092904 
L 1120.384031 403.819847 
L 1121.622289 412.182535 
L 1122.860546 424.968203 
L 1124.098803 436.353852 
L 1125.33706 440.625354 
L 1126.575318 435.829119 
L 1129.051832 413.485273 
L 1130.290089 406.918098 
L 1131.528347 406.29976 
L 1132.766604 409.454636 
L 1134.004861 413.22227 
L 1135.243118 414.480487 
L 1136.481376 411.213493 
L 1137.719633 404.09051 
L 1138.95789 395.760605 
L 1140.196148 388.756284 
L 1141.434405 384.547224 
L 1142.672662 383.287286 
L 1143.910919 384.122649 
L 1145.149177 386.250586 
L 1146.387434 389.465621 
L 1147.625691 393.641425 
L 1150.102206 403.347937 
L 1152.57872 414.1672 
L 1153.816977 417.865642 
L 1155.055235 418.99659 
L 1156.293492 416.86469 
L 1157.531749 410.706571 
L 1160.008264 392.259823 
L 1161.246521 386.413559 
L 1162.484778 384.69251 
L 1163.723036 386.904577 
L 1164.961293 393.113036 
L 1167.437807 410.783744 
L 1168.676065 414.230641 
L 1169.914322 410.893955 
L 1171.152579 403.462336 
L 1172.390837 397.419224 
L 1173.629094 397.206701 
L 1174.867351 403.536152 
L 1176.105608 414.0937 
L 1177.343866 425.979865 
L 1178.582123 436.631551 
L 1179.82038 443.724985 
L 1181.058637 446.278629 
L 1182.296895 445.123352 
L 1183.535152 441.690301 
L 1186.011666 433.144445 
L 1187.249924 431.818385 
L 1188.488181 435.40376 
L 1189.726438 443.510917 
L 1190.964696 453.051067 
L 1192.202953 460.828335 
L 1193.44121 465.270318 
L 1194.679467 465.945718 
L 1195.917725 462.598547 
L 1197.155982 455.126018 
L 1199.632496 433.658482 
L 1200.870754 424.89434 
L 1204.585525 404.1872 
L 1205.823783 400.420526 
L 1207.06204 400.762167 
L 1208.300297 401.60322 
L 1209.538555 398.485902 
L 1210.776812 391.872074 
L 1212.015069 386.907933 
L 1213.253326 388.263526 
L 1214.491584 397.132304 
L 1218.206355 438.958544 
L 1219.444613 445.101256 
L 1220.68287 444.544464 
L 1223.159384 433.693798 
L 1224.397642 432.710032 
L 1225.635899 437.359038 
L 1226.874156 444.980783 
L 1228.112414 451.848766 
L 1229.350671 455.571754 
L 1230.588928 455.486197 
L 1231.827185 451.682714 
L 1233.065443 444.539841 
L 1234.3037 435.510569 
L 1235.541957 427.670573 
L 1236.780214 424.087227 
L 1238.018472 425.053527 
L 1239.256729 428.060142 
L 1240.494986 430.534768 
L 1241.733243 431.121477 
L 1242.971501 429.115062 
L 1244.209758 424.270183 
L 1245.448015 416.553173 
L 1246.686273 406.017141 
L 1247.92453 394.141371 
L 1249.162787 384.555806 
L 1250.401044 381.05741 
L 1251.639302 385.456778 
L 1252.877559 396.979514 
L 1255.354073 428.020356 
L 1256.592331 440.649994 
L 1257.830588 448.975815 
L 1259.068845 453.049044 
L 1260.307103 454.161891 
L 1261.54536 454.141822 
L 1262.783617 454.582879 
L 1264.021874 456.063065 
L 1265.260132 457.925404 
L 1266.498389 459.15479 
L 1267.736646 459.424395 
L 1268.974903 459.257274 
L 1270.213161 459.258155 
L 1271.451418 459.560968 
L 1272.689675 460.130969 
L 1273.927932 460.870578 
L 1275.16619 461.367514 
L 1276.404447 461.220368 
L 1277.642704 460.353536 
L 1278.880962 458.468346 
L 1280.119219 454.693181 
L 1281.357476 448.518057 
L 1285.072248 425.408644 
L 1286.310505 421.25485 
L 1287.548762 420.204849 
L 1288.78702 418.971769 
L 1290.025277 413.36 
L 1291.263534 402.836732 
L 1292.501791 390.512573 
L 1293.740049 380.148389 
L 1294.978306 375.802468 
L 1296.216563 381.093609 
L 1297.454821 395.922943 
L 1299.931335 436.277954 
L 1301.169592 452.265497 
L 1302.40785 462.472583 
L 1303.646107 467.589602 
L 1304.884364 469.267475 
L 1306.122621 469.068017 
L 1307.360879 468.028414 
L 1308.599136 466.602992 
L 1309.837393 464.80458 
L 1311.07565 462.452935 
L 1313.552165 456.477202 
L 1314.790422 454.202749 
L 1316.02868 452.186343 
L 1317.266937 447.631082 
L 1318.505194 437.449138 
L 1319.743451 421.264447 
L 1320.981709 402.328437 
L 1322.219966 385.482145 
L 1323.458223 374.092428 
L 1324.69648 369.050443 
L 1325.934738 369.826391 
L 1327.172995 375.401764 
L 1328.411252 384.218791 
L 1329.649509 394.036561 
L 1330.887767 402.687338 
L 1332.126024 409.003549 
L 1333.364281 413.157258 
L 1334.602539 416.017422 
L 1335.840796 418.039386 
L 1337.079053 419.695143 
L 1338.31731 421.948508 
L 1339.555568 424.673574 
L 1340.793825 425.128649 
L 1342.032082 418.762926 
L 1343.270339 402.711975 
L 1345.746854 356.792379 
L 1346.985111 344.211258 
L 1348.223368 346.417004 
L 1349.461626 360.783481 
L 1351.93814 399.498393 
L 1353.176398 413.640172 
L 1354.414655 422.756065 
L 1355.652912 428.520877 
L 1356.891169 432.499637 
L 1358.129427 434.565599 
L 1359.367684 432.206311 
L 1360.605941 423.030588 
L 1364.320713 379.350263 
L 1365.55897 370.926151 
L 1366.797228 366.550908 
L 1368.035485 364.947045 
L 1369.273742 364.94142 
L 1370.511999 365.848279 
L 1371.750257 367.527531 
L 1372.988514 370.233942 
L 1374.226771 374.295191 
L 1376.703286 384.898692 
L 1377.941543 387.827411 
L 1379.1798 386.82588 
L 1380.418057 382.689073 
L 1381.656315 377.502765 
L 1382.894572 561.202423 
L 1384.132829 561.202423 
L 1385.371087 368.067575 
L 1386.609344 367.389585 
L 1387.847601 367.322382 
L 1392.80063 368.083854 
L 1395.277145 368.132341 
L 1396.515402 561.202423 
L 1397.753659 368.075154 
L 1410.136232 367.846391 
L 1412.612746 367.808307 
L 1413.851004 561.202423 
L 1416.327518 561.202423 
L 1417.565775 367.796021 
L 1421.280547 367.708792 
L 1422.518805 367.536498 
L 1423.757062 367.224645 
L 1427.471834 365.875686 
L 1428.710091 366.138193 
L 1429.948348 367.730355 
L 1431.186605 371.490433 
L 1432.424863 378.032025 
L 1434.901377 396.550777 
L 1436.139634 403.670736 
L 1437.377892 406.397322 
L 1438.616149 405.468109 
L 1441.092664 400.792611 
L 1442.330921 398.181399 
L 1443.569178 396.308864 
L 1444.807435 396.281951 
L 1446.045693 398.018688 
L 1447.28395 401.115969 
L 1448.522207 405.267381 
L 1449.760464 408.692937 
L 1450.998722 408.737187 
L 1453.475236 401.446082 
L 1454.713494 402.125864 
L 1455.951751 409.668882 
L 1458.428265 434.468328 
L 1459.666523 443.027076 
L 1460.90478 446.661481 
L 1462.143037 446.207961 
L 1463.381294 443.904825 
L 1464.619552 442.788629 
L 1465.857809 444.318472 
L 1467.096066 446.866978 
L 1468.334323 447.920695 
L 1469.572581 446.705183 
L 1472.049095 441.28245 
L 1473.287353 439.293934 
L 1474.52561 438.687406 
L 1475.763867 440.020976 
L 1477.002124 442.716482 
L 1478.240382 443.87752 
L 1479.478639 439.941529 
L 1480.716896 429.734062 
L 1483.193411 400.860461 
L 1484.431668 385.705291 
L 1485.669925 366.428868 
L 1488.14644 317.477127 
L 1489.384697 307.619156 
L 1490.622954 319.782324 
L 1491.861212 349.128286 
L 1493.099469 381.797601 
L 1494.337726 406.147327 
L 1495.575983 418.926306 
L 1496.814241 422.75903 
L 1498.052498 421.975131 
L 1499.290755 420.456958 
L 1500.529012 420.386131 
L 1501.76727 421.4257 
L 1503.005527 421.263909 
L 1504.243784 418.073651 
L 1505.482041 411.879099 
L 1506.720299 403.366744 
L 1509.196813 384.467385 
L 1510.435071 377.735572 
L 1511.673328 373.959667 
L 1512.911585 372.985579 
L 1514.149842 374.419111 
L 1515.3881 377.438342 
L 1519.102871 387.882171 
L 1520.341129 390.332259 
L 1521.579386 391.781123 
L 1522.817643 394.078986 
L 1525.294158 403.195181 
L 1526.532415 404.134438 
L 1527.770672 399.258046 
L 1531.485444 372.073021 
L 1532.723701 367.122662 
L 1533.961959 364.739276 
L 1535.200216 364.056 
L 1536.438473 364.259003 
L 1538.914988 365.289367 
L 1540.153245 365.665923 
L 1541.391502 365.878389 
L 1542.62976 365.936116 
L 1543.868017 365.843687 
L 1545.106274 365.586857 
L 1546.344531 365.146622 
L 1548.821046 363.90611 
L 1550.059303 363.570456 
L 1551.29756 364.151669 
L 1552.535818 366.549404 
L 1553.774075 371.761861 
L 1555.012332 380.37138 
L 1557.488847 402.516974 
L 1558.727104 409.995126 
L 1559.965361 413.614696 
L 1561.203619 415.905479 
L 1562.441876 418.906468 
L 1563.680133 422.410066 
L 1564.91839 424.64638 
L 1566.156648 423.496813 
L 1568.633162 414.365102 
L 1569.871419 412.925145 
L 1572.347934 415.665577 
L 1573.586191 413.500223 
L 1574.824448 406.084567 
L 1577.300963 382.24206 
L 1578.53922 372.575804 
L 1579.777478 366.578446 
L 1581.015735 363.708611 
L 1582.253992 362.899002 
L 1583.492249 363.15312 
L 1585.968764 364.37035 
L 1587.207021 364.792615 
L 1588.445278 365.023145 
L 1590.921793 365.102297 
L 1602.066108 364.804151 
L 1607.019137 364.727678 
L 1608.257395 561.202423 
L 1610.733909 561.202423 
L 1611.972166 364.648149 
L 1613.210424 561.202423 
L 1616.925196 561.202423 
L 1618.163453 364.549042 
L 1619.40171 364.529227 
L 1620.639967 561.202423 
L 1629.307768 561.202423 
L 1630.546026 364.350765 
L 1641.690341 364.172137 
L 1641.690341 364.172137 
" style="fill:none;stroke:#008000;stroke-linecap:square;stroke-width:1.5;"/>
   </g>
   <g id="patch_3">
    <path d="M 43.78125 586.86358 
L 43.78125 22.318125 
" style="fill:none;stroke:#000000;stroke-linecap:square;stroke-linejoin:miter;stroke-width:0.8;"/>
   </g>
   <g id="patch_4">
    <path d="M 1717.78125 586.86358 
L 1717.78125 22.318125 
" style="fill:none;stroke:#000000;stroke-linecap:square;stroke-linejoin:miter;stroke-width:0.8;"/>
   </g>
   <g id="patch_5">
    <path d="M 43.78125 586.86358 
L 1717.78125 586.86358 
" style="fill:none;stroke:#000000;stroke-linecap:square;stroke-linejoin:miter;stroke-width:0.8;"/>
   </g>
   <g id="patch_6">
    <path d="M 43.78125 22.318125 
L 1717.78125 22.318125 
" style="fill:none;stroke:#000000;stroke-linecap:square;stroke-linejoin:miter;stroke-width:0.8;"/>
   </g>
   <g id="text_16">
    <!-- before binarisation -->
    <g transform="translate(824.1825 16.318125)scale(0.12 -0.12)">
     <defs>
      <path d="M 3116 1747 
Q 3116 2381 2855 2742 
Q 2594 3103 2138 3103 
Q 1681 3103 1420 2742 
Q 1159 2381 1159 1747 
Q 1159 1113 1420 752 
Q 1681 391 2138 391 
Q 2594 391 2855 752 
Q 3116 1113 3116 1747 
z
M 1159 2969 
Q 1341 3281 1617 3432 
Q 1894 3584 2278 3584 
Q 2916 3584 3314 3078 
Q 3713 2572 3713 1747 
Q 3713 922 3314 415 
Q 2916 -91 2278 -91 
Q 1894 -91 1617 61 
Q 1341 213 1159 525 
L 1159 0 
L 581 0 
L 581 4863 
L 1159 4863 
L 1159 2969 
z
" id="DejaVuSans-62" transform="scale(0.015625)"/>
      <path d="M 1959 3097 
Q 1497 3097 1228 2736 
Q 959 2375 959 1747 
Q 959 1119 1226 758 
Q 1494 397 1959 397 
Q 2419 397 2687 759 
Q 2956 1122 2956 1747 
Q 2956 2369 2687 2733 
Q 2419 3097 1959 3097 
z
M 1959 3584 
Q 2709 3584 3137 3096 
Q 3566 2609 3566 1747 
Q 3566 888 3137 398 
Q 2709 -91 1959 -91 
Q 1206 -91 779 398 
Q 353 888 353 1747 
Q 353 2609 779 3096 
Q 1206 3584 1959 3584 
z
" id="DejaVuSans-6f" transform="scale(0.015625)"/>
      <path id="DejaVuSans-20" transform="scale(0.015625)"/>
      <path d="M 603 3500 
L 1178 3500 
L 1178 0 
L 603 0 
L 603 3500 
z
M 603 4863 
L 1178 4863 
L 1178 4134 
L 603 4134 
L 603 4863 
z
" id="DejaVuSans-69" transform="scale(0.015625)"/>
      <path d="M 3513 2113 
L 3513 0 
L 2938 0 
L 2938 2094 
Q 2938 2591 2744 2837 
Q 2550 3084 2163 3084 
Q 1697 3084 1428 2787 
Q 1159 2491 1159 1978 
L 1159 0 
L 581 0 
L 581 3500 
L 1159 3500 
L 1159 2956 
Q 1366 3272 1645 3428 
Q 1925 3584 2291 3584 
Q 2894 3584 3203 3211 
Q 3513 2838 3513 2113 
z
" id="DejaVuSans-6e" transform="scale(0.015625)"/>
      <path d="M 2834 3397 
L 2834 2853 
Q 2591 2978 2328 3040 
Q 2066 3103 1784 3103 
Q 1356 3103 1142 2972 
Q 928 2841 928 2578 
Q 928 2378 1081 2264 
Q 1234 2150 1697 2047 
L 1894 2003 
Q 2506 1872 2764 1633 
Q 3022 1394 3022 966 
Q 3022 478 2636 193 
Q 2250 -91 1575 -91 
Q 1294 -91 989 -36 
Q 684 19 347 128 
L 347 722 
Q 666 556 975 473 
Q 1284 391 1588 391 
Q 1994 391 2212 530 
Q 2431 669 2431 922 
Q 2431 1156 2273 1281 
Q 2116 1406 1581 1522 
L 1381 1569 
Q 847 1681 609 1914 
Q 372 2147 372 2553 
Q 372 3047 722 3315 
Q 1072 3584 1716 3584 
Q 2034 3584 2315 3537 
Q 2597 3491 2834 3397 
z
" id="DejaVuSans-73" transform="scale(0.015625)"/>
      <path d="M 1172 4494 
L 1172 3500 
L 2356 3500 
L 2356 3053 
L 1172 3053 
L 1172 1153 
Q 1172 725 1289 603 
Q 1406 481 1766 481 
L 2356 481 
L 2356 0 
L 1766 0 
Q 1100 0 847 248 
Q 594 497 594 1153 
L 594 3053 
L 172 3053 
L 172 3500 
L 594 3500 
L 594 4494 
L 1172 4494 
z
" id="DejaVuSans-74" transform="scale(0.015625)"/>
     </defs>
     <use xlink:href="#DejaVuSans-62"/>
     <use x="63.476562" xlink:href="#DejaVuSans-65"/>
     <use x="125" xlink:href="#DejaVuSans-66"/>
     <use x="160.205078" xlink:href="#DejaVuSans-6f"/>
     <use x="221.386719" xlink:href="#DejaVuSans-72"/>
     <use x="260.25" xlink:href="#DejaVuSans-65"/>
     <use x="321.773438" xlink:href="#DejaVuSans-20"/>
     <use x="353.560547" xlink:href="#DejaVuSans-62"/>
     <use x="417.037109" xlink:href="#DejaVuSans-69"/>
     <use x="444.820312" xlink:href="#DejaVuSans-6e"/>
     <use x="508.199219" xlink:href="#DejaVuSans-61"/>
     <use x="569.478516" xlink:href="#DejaVuSans-72"/>
     <use x="610.591797" xlink:href="#DejaVuSans-69"/>
     <use x="638.375" xlink:href="#DejaVuSans-73"/>
     <use x="690.474609" xlink:href="#DejaVuSans-61"/>
     <use x="751.753906" xlink:href="#DejaVuSans-74"/>
     <use x="790.962891" xlink:href="#DejaVuSans-69"/>
     <use x="818.746094" xlink:href="#DejaVuSans-6f"/>
     <use x="879.927734" xlink:href="#DejaVuSans-6e"/>
    </g>
   </g>
  </g>
  <g id="axes_2">
   <g id="patch_7">
    <path d="M 43.78125 1264.318125 
L 1717.78125 1264.318125 
L 1717.78125 699.77267 
L 43.78125 699.77267 
z
" style="fill:#ffffff;"/>
   </g>
   <g id="matplotlib.axis_3">
    <g id="xtick_8">
     <g id="line2d_15">
      <g>
       <use style="stroke:#000000;stroke-width:0.8;" x="119.872159" xlink:href="#m71b810c32f" y="1264.318125"/>
      </g>
     </g>
     <g id="text_17">
      <!-- 0 -->
      <g transform="translate(116.690909 1278.916563)scale(0.1 -0.1)">
       <use xlink:href="#DejaVuSans-30"/>
      </g>
     </g>
    </g>
    <g id="xtick_9">
     <g id="line2d_16">
      <g>
       <use style="stroke:#000000;stroke-width:0.8;" x="367.523613" xlink:href="#m71b810c32f" y="1264.318125"/>
      </g>
     </g>
     <g id="text_18">
      <!-- 200 -->
      <g transform="translate(357.979863 1278.916563)scale(0.1 -0.1)">
       <use xlink:href="#DejaVuSans-32"/>
       <use x="63.623047" xlink:href="#DejaVuSans-30"/>
       <use x="127.246094" xlink:href="#DejaVuSans-30"/>
      </g>
     </g>
    </g>
    <g id="xtick_10">
     <g id="line2d_17">
      <g>
       <use style="stroke:#000000;stroke-width:0.8;" x="615.175066" xlink:href="#m71b810c32f" y="1264.318125"/>
      </g>
     </g>
     <g id="text_19">
      <!-- 400 -->
      <g transform="translate(605.631316 1278.916563)scale(0.1 -0.1)">
       <use xlink:href="#DejaVuSans-34"/>
       <use x="63.623047" xlink:href="#DejaVuSans-30"/>
       <use x="127.246094" xlink:href="#DejaVuSans-30"/>
      </g>
     </g>
    </g>
    <g id="xtick_11">
     <g id="line2d_18">
      <g>
       <use style="stroke:#000000;stroke-width:0.8;" x="862.82652" xlink:href="#m71b810c32f" y="1264.318125"/>
      </g>
     </g>
     <g id="text_20">
      <!-- 600 -->
      <g transform="translate(853.28277 1278.916563)scale(0.1 -0.1)">
       <use xlink:href="#DejaVuSans-36"/>
       <use x="63.623047" xlink:href="#DejaVuSans-30"/>
       <use x="127.246094" xlink:href="#DejaVuSans-30"/>
      </g>
     </g>
    </g>
    <g id="xtick_12">
     <g id="line2d_19">
      <g>
       <use style="stroke:#000000;stroke-width:0.8;" x="1110.477973" xlink:href="#m71b810c32f" y="1264.318125"/>
      </g>
     </g>
     <g id="text_21">
      <!-- 800 -->
      <g transform="translate(1100.934223 1278.916563)scale(0.1 -0.1)">
       <use xlink:href="#DejaVuSans-38"/>
       <use x="63.623047" xlink:href="#DejaVuSans-30"/>
       <use x="127.246094" xlink:href="#DejaVuSans-30"/>
      </g>
     </g>
    </g>
    <g id="xtick_13">
     <g id="line2d_20">
      <g>
       <use style="stroke:#000000;stroke-width:0.8;" x="1358.129427" xlink:href="#m71b810c32f" y="1264.318125"/>
      </g>
     </g>
     <g id="text_22">
      <!-- 1000 -->
      <g transform="translate(1345.404427 1278.916563)scale(0.1 -0.1)">
       <use xlink:href="#DejaVuSans-31"/>
       <use x="63.623047" xlink:href="#DejaVuSans-30"/>
       <use x="127.246094" xlink:href="#DejaVuSans-30"/>
       <use x="190.869141" xlink:href="#DejaVuSans-30"/>
      </g>
     </g>
    </g>
    <g id="xtick_14">
     <g id="line2d_21">
      <g>
       <use style="stroke:#000000;stroke-width:0.8;" x="1605.78088" xlink:href="#m71b810c32f" y="1264.318125"/>
      </g>
     </g>
     <g id="text_23">
      <!-- 1200 -->
      <g transform="translate(1593.05588 1278.916563)scale(0.1 -0.1)">
       <use xlink:href="#DejaVuSans-31"/>
       <use x="63.623047" xlink:href="#DejaVuSans-32"/>
       <use x="127.246094" xlink:href="#DejaVuSans-30"/>
       <use x="190.869141" xlink:href="#DejaVuSans-30"/>
      </g>
     </g>
    </g>
    <g id="text_24">
     <!-- frame -->
     <g transform="translate(865.954687 1292.594688)scale(0.1 -0.1)">
      <use xlink:href="#DejaVuSans-66"/>
      <use x="35.205078" xlink:href="#DejaVuSans-72"/>
      <use x="76.318359" xlink:href="#DejaVuSans-61"/>
      <use x="137.597656" xlink:href="#DejaVuSans-6d"/>
      <use x="235.009766" xlink:href="#DejaVuSans-65"/>
     </g>
    </g>
   </g>
   <g id="matplotlib.axis_4">
    <g id="ytick_7">
     <g id="line2d_22">
      <g>
       <use style="stroke:#000000;stroke-width:0.8;" x="43.78125" xlink:href="#m51ba5f5367" y="1238.656968"/>
      </g>
     </g>
     <g id="text_25">
      <!-- 0.0 -->
      <g transform="translate(20.878125 1242.456187)scale(0.1 -0.1)">
       <defs>
        <path d="M 684 794 
L 1344 794 
L 1344 0 
L 684 0 
L 684 794 
z
" id="DejaVuSans-2e" transform="scale(0.015625)"/>
       </defs>
       <use xlink:href="#DejaVuSans-30"/>
       <use x="63.623047" xlink:href="#DejaVuSans-2e"/>
       <use x="95.410156" xlink:href="#DejaVuSans-30"/>
      </g>
     </g>
    </g>
    <g id="ytick_8">
     <g id="line2d_23">
      <g>
       <use style="stroke:#000000;stroke-width:0.8;" x="43.78125" xlink:href="#m51ba5f5367" y="1136.01234"/>
      </g>
     </g>
     <g id="text_26">
      <!-- 0.2 -->
      <g transform="translate(20.878125 1139.811559)scale(0.1 -0.1)">
       <use xlink:href="#DejaVuSans-30"/>
       <use x="63.623047" xlink:href="#DejaVuSans-2e"/>
       <use x="95.410156" xlink:href="#DejaVuSans-32"/>
      </g>
     </g>
    </g>
    <g id="ytick_9">
     <g id="line2d_24">
      <g>
       <use style="stroke:#000000;stroke-width:0.8;" x="43.78125" xlink:href="#m51ba5f5367" y="1033.367712"/>
      </g>
     </g>
     <g id="text_27">
      <!-- 0.4 -->
      <g transform="translate(20.878125 1037.166931)scale(0.1 -0.1)">
       <use xlink:href="#DejaVuSans-30"/>
       <use x="63.623047" xlink:href="#DejaVuSans-2e"/>
       <use x="95.410156" xlink:href="#DejaVuSans-34"/>
      </g>
     </g>
    </g>
    <g id="ytick_10">
     <g id="line2d_25">
      <g>
       <use style="stroke:#000000;stroke-width:0.8;" x="43.78125" xlink:href="#m51ba5f5367" y="930.723084"/>
      </g>
     </g>
     <g id="text_28">
      <!-- 0.6 -->
      <g transform="translate(20.878125 934.522302)scale(0.1 -0.1)">
       <use xlink:href="#DejaVuSans-30"/>
       <use x="63.623047" xlink:href="#DejaVuSans-2e"/>
       <use x="95.410156" xlink:href="#DejaVuSans-36"/>
      </g>
     </g>
    </g>
    <g id="ytick_11">
     <g id="line2d_26">
      <g>
       <use style="stroke:#000000;stroke-width:0.8;" x="43.78125" xlink:href="#m51ba5f5367" y="828.078456"/>
      </g>
     </g>
     <g id="text_29">
      <!-- 0.8 -->
      <g transform="translate(20.878125 831.877674)scale(0.1 -0.1)">
       <use xlink:href="#DejaVuSans-30"/>
       <use x="63.623047" xlink:href="#DejaVuSans-2e"/>
       <use x="95.410156" xlink:href="#DejaVuSans-38"/>
      </g>
     </g>
    </g>
    <g id="ytick_12">
     <g id="line2d_27">
      <g>
       <use style="stroke:#000000;stroke-width:0.8;" x="43.78125" xlink:href="#m51ba5f5367" y="725.433827"/>
      </g>
     </g>
     <g id="text_30">
      <!-- 1.0 -->
      <g transform="translate(20.878125 729.233046)scale(0.1 -0.1)">
       <use xlink:href="#DejaVuSans-31"/>
       <use x="63.623047" xlink:href="#DejaVuSans-2e"/>
       <use x="95.410156" xlink:href="#DejaVuSans-30"/>
      </g>
     </g>
    </g>
    <g id="text_31">
     <!-- GCaMP -->
     <g transform="translate(14.798437 999.803991)rotate(-90)scale(0.1 -0.1)">
      <use xlink:href="#DejaVuSans-47"/>
      <use x="77.490234" xlink:href="#DejaVuSans-43"/>
      <use x="147.314453" xlink:href="#DejaVuSans-61"/>
      <use x="208.59375" xlink:href="#DejaVuSans-4d"/>
      <use x="294.873047" xlink:href="#DejaVuSans-50"/>
     </g>
    </g>
   </g>
   <g id="line2d_28">
    <path clip-path="url(#p3c61a99d96)" d="M 119.872159 1238.656968 
L 148.352076 1238.656968 
L 149.590334 725.433827 
L 196.64411 725.433827 
L 197.882367 1238.656968 
L 209.026682 1238.656968 
L 210.26494 725.433827 
L 264.748259 725.433827 
L 265.986517 1238.656968 
L 279.607347 1238.656968 
L 280.845604 725.433827 
L 299.419463 725.433827 
L 300.65772 1238.656968 
L 303.134235 1238.656968 
L 304.372492 725.433827 
L 313.040293 725.433827 
L 314.27855 1238.656968 
L 315.516807 725.433827 
L 324.184608 725.433827 
L 325.422866 1238.656968 
L 347.711496 1238.656968 
L 348.949754 725.433827 
L 356.379297 725.433827 
L 357.617554 1238.656968 
L 358.855812 725.433827 
L 365.047098 725.433827 
L 366.285355 1238.656968 
L 372.476642 1238.656968 
L 373.714899 725.433827 
L 378.667928 725.433827 
L 379.906185 1238.656968 
L 398.480044 1238.656968 
L 399.718302 725.433827 
L 419.530418 725.433827 
L 420.768675 1238.656968 
L 422.006932 1238.656968 
L 423.24519 725.433827 
L 440.580791 725.433827 
L 441.819049 1238.656968 
L 445.53382 1238.656968 
L 446.772078 725.433827 
L 507.446684 725.433827 
L 508.684941 1238.656968 
L 523.544028 1238.656968 
L 524.782286 725.433827 
L 537.164858 725.433827 
L 538.403116 1238.656968 
L 1641.690341 1238.656968 
L 1641.690341 1238.656968 
" style="fill:none;stroke:#008000;stroke-linecap:square;stroke-width:1.5;"/>
   </g>
   <g id="patch_8">
    <path d="M 43.78125 1264.318125 
L 43.78125 699.77267 
" style="fill:none;stroke:#000000;stroke-linecap:square;stroke-linejoin:miter;stroke-width:0.8;"/>
   </g>
   <g id="patch_9">
    <path d="M 1717.78125 1264.318125 
L 1717.78125 699.77267 
" style="fill:none;stroke:#000000;stroke-linecap:square;stroke-linejoin:miter;stroke-width:0.8;"/>
   </g>
   <g id="patch_10">
    <path d="M 43.78125 1264.318125 
L 1717.78125 1264.318125 
" style="fill:none;stroke:#000000;stroke-linecap:square;stroke-linejoin:miter;stroke-width:0.8;"/>
   </g>
   <g id="patch_11">
    <path d="M 43.78125 699.77267 
L 1717.78125 699.77267 
" style="fill:none;stroke:#000000;stroke-linecap:square;stroke-linejoin:miter;stroke-width:0.8;"/>
   </g>
   <g id="text_32">
    <!-- before binarisation -->
    <g transform="translate(824.1825 693.77267)scale(0.12 -0.12)">
     <use xlink:href="#DejaVuSans-62"/>
     <use x="63.476562" xlink:href="#DejaVuSans-65"/>
     <use x="125" xlink:href="#DejaVuSans-66"/>
     <use x="160.205078" xlink:href="#DejaVuSans-6f"/>
     <use x="221.386719" xlink:href="#DejaVuSans-72"/>
     <use x="260.25" xlink:href="#DejaVuSans-65"/>
     <use x="321.773438" xlink:href="#DejaVuSans-20"/>
     <use x="353.560547" xlink:href="#DejaVuSans-62"/>
     <use x="417.037109" xlink:href="#DejaVuSans-69"/>
     <use x="444.820312" xlink:href="#DejaVuSans-6e"/>
     <use x="508.199219" xlink:href="#DejaVuSans-61"/>
     <use x="569.478516" xlink:href="#DejaVuSans-72"/>
     <use x="610.591797" xlink:href="#DejaVuSans-69"/>
     <use x="638.375" xlink:href="#DejaVuSans-73"/>
     <use x="690.474609" xlink:href="#DejaVuSans-61"/>
     <use x="751.753906" xlink:href="#DejaVuSans-74"/>
     <use x="790.962891" xlink:href="#DejaVuSans-69"/>
     <use x="818.746094" xlink:href="#DejaVuSans-6f"/>
     <use x="879.927734" xlink:href="#DejaVuSans-6e"/>
    </g>
   </g>
  </g>
 </g>
 <defs>
  <clipPath id="p2ccdff3851">
   <rect height="564.545455" width="1674" x="43.78125" y="22.318125"/>
  </clipPath>
  <clipPath id="p3c61a99d96">
   <rect height="564.545455" width="1674" x="43.78125" y="699.77267"/>
  </clipPath>
 </defs>
</svg>
