<?xml version="1.0" encoding="utf-8" standalone="no"?>
<!DOCTYPE svg PUBLIC "-//W3C//DTD SVG 1.1//EN"
  "http://www.w3.org/Graphics/SVG/1.1/DTD/svg11.dtd">
<svg height="1301.874375pt" version="1.1" viewBox="0 0 1731.34375 1301.874375" width="1731.34375pt" xmlns="http://www.w3.org/2000/svg" xmlns:xlink="http://www.w3.org/1999/xlink">
 <metadata>
  <rdf:RDF xmlns:cc="http://creativecommons.org/ns#" xmlns:dc="http://purl.org/dc/elements/1.1/" xmlns:rdf="http://www.w3.org/1999/02/22-rdf-syntax-ns#">
   <cc:Work>
    <dc:type rdf:resource="http://purl.org/dc/dcmitype/StillImage"/>
    <dc:date>2022-07-24T15:54:46.690766</dc:date>
    <dc:format>image/svg+xml</dc:format>
    <dc:creator>
     <cc:Agent>
      <dc:title>Matplotlib v3.4.2, https://matplotlib.org/</dc:title>
     </cc:Agent>
    </dc:creator>
   </cc:Work>
  </rdf:RDF>
 </metadata>
 <defs>
  <style type="text/css">*{stroke-linecap:butt;stroke-linejoin:round;}</style>
 </defs>
 <g id="figure_1">
  <g id="patch_1">
   <path d="M 0 1301.874375 
L 1731.34375 1301.874375 
L 1731.34375 0 
L 0 0 
z
" style="fill:#ffffff;"/>
  </g>
  <g id="axes_1">
   <g id="patch_2">
    <path d="M 50.14375 586.86358 
L 1724.14375 586.86358 
L 1724.14375 22.318125 
L 50.14375 22.318125 
z
" style="fill:#ffffff;"/>
   </g>
   <g id="matplotlib.axis_1">
    <g id="xtick_1">
     <g id="line2d_1">
      <defs>
       <path d="M 0 0 
L 0 3.5 
" id="m8e939397a1" style="stroke:#000000;stroke-width:0.8;"/>
      </defs>
      <g>
       <use style="stroke:#000000;stroke-width:0.8;" x="126.234659" xlink:href="#m8e939397a1" y="586.86358"/>
      </g>
     </g>
     <g id="text_1">
      <!-- 0 -->
      <g transform="translate(123.053409 601.462017)scale(0.1 -0.1)">
       <defs>
        <path d="M 2034 4250 
Q 1547 4250 1301 3770 
Q 1056 3291 1056 2328 
Q 1056 1369 1301 889 
Q 1547 409 2034 409 
Q 2525 409 2770 889 
Q 3016 1369 3016 2328 
Q 3016 3291 2770 3770 
Q 2525 4250 2034 4250 
z
M 2034 4750 
Q 2819 4750 3233 4129 
Q 3647 3509 3647 2328 
Q 3647 1150 3233 529 
Q 2819 -91 2034 -91 
Q 1250 -91 836 529 
Q 422 1150 422 2328 
Q 422 3509 836 4129 
Q 1250 4750 2034 4750 
z
" id="DejaVuSans-30" transform="scale(0.015625)"/>
       </defs>
       <use xlink:href="#DejaVuSans-30"/>
      </g>
     </g>
    </g>
    <g id="xtick_2">
     <g id="line2d_2">
      <g>
       <use style="stroke:#000000;stroke-width:0.8;" x="373.886113" xlink:href="#m8e939397a1" y="586.86358"/>
      </g>
     </g>
     <g id="text_2">
      <!-- 200 -->
      <g transform="translate(364.342363 601.462017)scale(0.1 -0.1)">
       <defs>
        <path d="M 1228 531 
L 3431 531 
L 3431 0 
L 469 0 
L 469 531 
Q 828 903 1448 1529 
Q 2069 2156 2228 2338 
Q 2531 2678 2651 2914 
Q 2772 3150 2772 3378 
Q 2772 3750 2511 3984 
Q 2250 4219 1831 4219 
Q 1534 4219 1204 4116 
Q 875 4013 500 3803 
L 500 4441 
Q 881 4594 1212 4672 
Q 1544 4750 1819 4750 
Q 2544 4750 2975 4387 
Q 3406 4025 3406 3419 
Q 3406 3131 3298 2873 
Q 3191 2616 2906 2266 
Q 2828 2175 2409 1742 
Q 1991 1309 1228 531 
z
" id="DejaVuSans-32" transform="scale(0.015625)"/>
       </defs>
       <use xlink:href="#DejaVuSans-32"/>
       <use x="63.623047" xlink:href="#DejaVuSans-30"/>
       <use x="127.246094" xlink:href="#DejaVuSans-30"/>
      </g>
     </g>
    </g>
    <g id="xtick_3">
     <g id="line2d_3">
      <g>
       <use style="stroke:#000000;stroke-width:0.8;" x="621.537566" xlink:href="#m8e939397a1" y="586.86358"/>
      </g>
     </g>
     <g id="text_3">
      <!-- 400 -->
      <g transform="translate(611.993816 601.462017)scale(0.1 -0.1)">
       <defs>
        <path d="M 2419 4116 
L 825 1625 
L 2419 1625 
L 2419 4116 
z
M 2253 4666 
L 3047 4666 
L 3047 1625 
L 3713 1625 
L 3713 1100 
L 3047 1100 
L 3047 0 
L 2419 0 
L 2419 1100 
L 313 1100 
L 313 1709 
L 2253 4666 
z
" id="DejaVuSans-34" transform="scale(0.015625)"/>
       </defs>
       <use xlink:href="#DejaVuSans-34"/>
       <use x="63.623047" xlink:href="#DejaVuSans-30"/>
       <use x="127.246094" xlink:href="#DejaVuSans-30"/>
      </g>
     </g>
    </g>
    <g id="xtick_4">
     <g id="line2d_4">
      <g>
       <use style="stroke:#000000;stroke-width:0.8;" x="869.18902" xlink:href="#m8e939397a1" y="586.86358"/>
      </g>
     </g>
     <g id="text_4">
      <!-- 600 -->
      <g transform="translate(859.64527 601.462017)scale(0.1 -0.1)">
       <defs>
        <path d="M 2113 2584 
Q 1688 2584 1439 2293 
Q 1191 2003 1191 1497 
Q 1191 994 1439 701 
Q 1688 409 2113 409 
Q 2538 409 2786 701 
Q 3034 994 3034 1497 
Q 3034 2003 2786 2293 
Q 2538 2584 2113 2584 
z
M 3366 4563 
L 3366 3988 
Q 3128 4100 2886 4159 
Q 2644 4219 2406 4219 
Q 1781 4219 1451 3797 
Q 1122 3375 1075 2522 
Q 1259 2794 1537 2939 
Q 1816 3084 2150 3084 
Q 2853 3084 3261 2657 
Q 3669 2231 3669 1497 
Q 3669 778 3244 343 
Q 2819 -91 2113 -91 
Q 1303 -91 875 529 
Q 447 1150 447 2328 
Q 447 3434 972 4092 
Q 1497 4750 2381 4750 
Q 2619 4750 2861 4703 
Q 3103 4656 3366 4563 
z
" id="DejaVuSans-36" transform="scale(0.015625)"/>
       </defs>
       <use xlink:href="#DejaVuSans-36"/>
       <use x="63.623047" xlink:href="#DejaVuSans-30"/>
       <use x="127.246094" xlink:href="#DejaVuSans-30"/>
      </g>
     </g>
    </g>
    <g id="xtick_5">
     <g id="line2d_5">
      <g>
       <use style="stroke:#000000;stroke-width:0.8;" x="1116.840473" xlink:href="#m8e939397a1" y="586.86358"/>
      </g>
     </g>
     <g id="text_5">
      <!-- 800 -->
      <g transform="translate(1107.296723 601.462017)scale(0.1 -0.1)">
       <defs>
        <path d="M 2034 2216 
Q 1584 2216 1326 1975 
Q 1069 1734 1069 1313 
Q 1069 891 1326 650 
Q 1584 409 2034 409 
Q 2484 409 2743 651 
Q 3003 894 3003 1313 
Q 3003 1734 2745 1975 
Q 2488 2216 2034 2216 
z
M 1403 2484 
Q 997 2584 770 2862 
Q 544 3141 544 3541 
Q 544 4100 942 4425 
Q 1341 4750 2034 4750 
Q 2731 4750 3128 4425 
Q 3525 4100 3525 3541 
Q 3525 3141 3298 2862 
Q 3072 2584 2669 2484 
Q 3125 2378 3379 2068 
Q 3634 1759 3634 1313 
Q 3634 634 3220 271 
Q 2806 -91 2034 -91 
Q 1263 -91 848 271 
Q 434 634 434 1313 
Q 434 1759 690 2068 
Q 947 2378 1403 2484 
z
M 1172 3481 
Q 1172 3119 1398 2916 
Q 1625 2713 2034 2713 
Q 2441 2713 2670 2916 
Q 2900 3119 2900 3481 
Q 2900 3844 2670 4047 
Q 2441 4250 2034 4250 
Q 1625 4250 1398 4047 
Q 1172 3844 1172 3481 
z
" id="DejaVuSans-38" transform="scale(0.015625)"/>
       </defs>
       <use xlink:href="#DejaVuSans-38"/>
       <use x="63.623047" xlink:href="#DejaVuSans-30"/>
       <use x="127.246094" xlink:href="#DejaVuSans-30"/>
      </g>
     </g>
    </g>
    <g id="xtick_6">
     <g id="line2d_6">
      <g>
       <use style="stroke:#000000;stroke-width:0.8;" x="1364.491927" xlink:href="#m8e939397a1" y="586.86358"/>
      </g>
     </g>
     <g id="text_6">
      <!-- 1000 -->
      <g transform="translate(1351.766927 601.462017)scale(0.1 -0.1)">
       <defs>
        <path d="M 794 531 
L 1825 531 
L 1825 4091 
L 703 3866 
L 703 4441 
L 1819 4666 
L 2450 4666 
L 2450 531 
L 3481 531 
L 3481 0 
L 794 0 
L 794 531 
z
" id="DejaVuSans-31" transform="scale(0.015625)"/>
       </defs>
       <use xlink:href="#DejaVuSans-31"/>
       <use x="63.623047" xlink:href="#DejaVuSans-30"/>
       <use x="127.246094" xlink:href="#DejaVuSans-30"/>
       <use x="190.869141" xlink:href="#DejaVuSans-30"/>
      </g>
     </g>
    </g>
    <g id="xtick_7">
     <g id="line2d_7">
      <g>
       <use style="stroke:#000000;stroke-width:0.8;" x="1612.14338" xlink:href="#m8e939397a1" y="586.86358"/>
      </g>
     </g>
     <g id="text_7">
      <!-- 1200 -->
      <g transform="translate(1599.41838 601.462017)scale(0.1 -0.1)">
       <use xlink:href="#DejaVuSans-31"/>
       <use x="63.623047" xlink:href="#DejaVuSans-32"/>
       <use x="127.246094" xlink:href="#DejaVuSans-30"/>
       <use x="190.869141" xlink:href="#DejaVuSans-30"/>
      </g>
     </g>
    </g>
    <g id="text_8">
     <!-- frame -->
     <g transform="translate(872.317187 615.140142)scale(0.1 -0.1)">
      <defs>
       <path d="M 2375 4863 
L 2375 4384 
L 1825 4384 
Q 1516 4384 1395 4259 
Q 1275 4134 1275 3809 
L 1275 3500 
L 2222 3500 
L 2222 3053 
L 1275 3053 
L 1275 0 
L 697 0 
L 697 3053 
L 147 3053 
L 147 3500 
L 697 3500 
L 697 3744 
Q 697 4328 969 4595 
Q 1241 4863 1831 4863 
L 2375 4863 
z
" id="DejaVuSans-66" transform="scale(0.015625)"/>
       <path d="M 2631 2963 
Q 2534 3019 2420 3045 
Q 2306 3072 2169 3072 
Q 1681 3072 1420 2755 
Q 1159 2438 1159 1844 
L 1159 0 
L 581 0 
L 581 3500 
L 1159 3500 
L 1159 2956 
Q 1341 3275 1631 3429 
Q 1922 3584 2338 3584 
Q 2397 3584 2469 3576 
Q 2541 3569 2628 3553 
L 2631 2963 
z
" id="DejaVuSans-72" transform="scale(0.015625)"/>
       <path d="M 2194 1759 
Q 1497 1759 1228 1600 
Q 959 1441 959 1056 
Q 959 750 1161 570 
Q 1363 391 1709 391 
Q 2188 391 2477 730 
Q 2766 1069 2766 1631 
L 2766 1759 
L 2194 1759 
z
M 3341 1997 
L 3341 0 
L 2766 0 
L 2766 531 
Q 2569 213 2275 61 
Q 1981 -91 1556 -91 
Q 1019 -91 701 211 
Q 384 513 384 1019 
Q 384 1609 779 1909 
Q 1175 2209 1959 2209 
L 2766 2209 
L 2766 2266 
Q 2766 2663 2505 2880 
Q 2244 3097 1772 3097 
Q 1472 3097 1187 3025 
Q 903 2953 641 2809 
L 641 3341 
Q 956 3463 1253 3523 
Q 1550 3584 1831 3584 
Q 2591 3584 2966 3190 
Q 3341 2797 3341 1997 
z
" id="DejaVuSans-61" transform="scale(0.015625)"/>
       <path d="M 3328 2828 
Q 3544 3216 3844 3400 
Q 4144 3584 4550 3584 
Q 5097 3584 5394 3201 
Q 5691 2819 5691 2113 
L 5691 0 
L 5113 0 
L 5113 2094 
Q 5113 2597 4934 2840 
Q 4756 3084 4391 3084 
Q 3944 3084 3684 2787 
Q 3425 2491 3425 1978 
L 3425 0 
L 2847 0 
L 2847 2094 
Q 2847 2600 2669 2842 
Q 2491 3084 2119 3084 
Q 1678 3084 1418 2786 
Q 1159 2488 1159 1978 
L 1159 0 
L 581 0 
L 581 3500 
L 1159 3500 
L 1159 2956 
Q 1356 3278 1631 3431 
Q 1906 3584 2284 3584 
Q 2666 3584 2933 3390 
Q 3200 3197 3328 2828 
z
" id="DejaVuSans-6d" transform="scale(0.015625)"/>
       <path d="M 3597 1894 
L 3597 1613 
L 953 1613 
Q 991 1019 1311 708 
Q 1631 397 2203 397 
Q 2534 397 2845 478 
Q 3156 559 3463 722 
L 3463 178 
Q 3153 47 2828 -22 
Q 2503 -91 2169 -91 
Q 1331 -91 842 396 
Q 353 884 353 1716 
Q 353 2575 817 3079 
Q 1281 3584 2069 3584 
Q 2775 3584 3186 3129 
Q 3597 2675 3597 1894 
z
M 3022 2063 
Q 3016 2534 2758 2815 
Q 2500 3097 2075 3097 
Q 1594 3097 1305 2825 
Q 1016 2553 972 2059 
L 3022 2063 
z
" id="DejaVuSans-65" transform="scale(0.015625)"/>
      </defs>
      <use xlink:href="#DejaVuSans-66"/>
      <use x="35.205078" xlink:href="#DejaVuSans-72"/>
      <use x="76.318359" xlink:href="#DejaVuSans-61"/>
      <use x="137.597656" xlink:href="#DejaVuSans-6d"/>
      <use x="235.009766" xlink:href="#DejaVuSans-65"/>
     </g>
    </g>
   </g>
   <g id="matplotlib.axis_2">
    <g id="ytick_1">
     <g id="line2d_8">
      <defs>
       <path d="M 0 0 
L -3.5 0 
" id="m85a635ed3a" style="stroke:#000000;stroke-width:0.8;"/>
      </defs>
      <g>
       <use style="stroke:#000000;stroke-width:0.8;" x="50.14375" xlink:href="#m85a635ed3a" y="561.202423"/>
      </g>
     </g>
     <g id="text_9">
      <!-- 0.00 -->
      <g transform="translate(20.878125 565.001641)scale(0.1 -0.1)">
       <defs>
        <path d="M 684 794 
L 1344 794 
L 1344 0 
L 684 0 
L 684 794 
z
" id="DejaVuSans-2e" transform="scale(0.015625)"/>
       </defs>
       <use xlink:href="#DejaVuSans-30"/>
       <use x="63.623047" xlink:href="#DejaVuSans-2e"/>
       <use x="95.410156" xlink:href="#DejaVuSans-30"/>
       <use x="159.033203" xlink:href="#DejaVuSans-30"/>
      </g>
     </g>
    </g>
    <g id="ytick_2">
     <g id="line2d_9">
      <g>
       <use style="stroke:#000000;stroke-width:0.8;" x="50.14375" xlink:href="#m85a635ed3a" y="495.832082"/>
      </g>
     </g>
     <g id="text_10">
      <!-- 0.25 -->
      <g transform="translate(20.878125 499.6313)scale(0.1 -0.1)">
       <defs>
        <path d="M 691 4666 
L 3169 4666 
L 3169 4134 
L 1269 4134 
L 1269 2991 
Q 1406 3038 1543 3061 
Q 1681 3084 1819 3084 
Q 2600 3084 3056 2656 
Q 3513 2228 3513 1497 
Q 3513 744 3044 326 
Q 2575 -91 1722 -91 
Q 1428 -91 1123 -41 
Q 819 9 494 109 
L 494 744 
Q 775 591 1075 516 
Q 1375 441 1709 441 
Q 2250 441 2565 725 
Q 2881 1009 2881 1497 
Q 2881 1984 2565 2268 
Q 2250 2553 1709 2553 
Q 1456 2553 1204 2497 
Q 953 2441 691 2322 
L 691 4666 
z
" id="DejaVuSans-35" transform="scale(0.015625)"/>
       </defs>
       <use xlink:href="#DejaVuSans-30"/>
       <use x="63.623047" xlink:href="#DejaVuSans-2e"/>
       <use x="95.410156" xlink:href="#DejaVuSans-32"/>
       <use x="159.033203" xlink:href="#DejaVuSans-35"/>
      </g>
     </g>
    </g>
    <g id="ytick_3">
     <g id="line2d_10">
      <g>
       <use style="stroke:#000000;stroke-width:0.8;" x="50.14375" xlink:href="#m85a635ed3a" y="430.461741"/>
      </g>
     </g>
     <g id="text_11">
      <!-- 0.50 -->
      <g transform="translate(20.878125 434.260959)scale(0.1 -0.1)">
       <use xlink:href="#DejaVuSans-30"/>
       <use x="63.623047" xlink:href="#DejaVuSans-2e"/>
       <use x="95.410156" xlink:href="#DejaVuSans-35"/>
       <use x="159.033203" xlink:href="#DejaVuSans-30"/>
      </g>
     </g>
    </g>
    <g id="ytick_4">
     <g id="line2d_11">
      <g>
       <use style="stroke:#000000;stroke-width:0.8;" x="50.14375" xlink:href="#m85a635ed3a" y="365.0914"/>
      </g>
     </g>
     <g id="text_12">
      <!-- 0.75 -->
      <g transform="translate(20.878125 368.890619)scale(0.1 -0.1)">
       <defs>
        <path d="M 525 4666 
L 3525 4666 
L 3525 4397 
L 1831 0 
L 1172 0 
L 2766 4134 
L 525 4134 
L 525 4666 
z
" id="DejaVuSans-37" transform="scale(0.015625)"/>
       </defs>
       <use xlink:href="#DejaVuSans-30"/>
       <use x="63.623047" xlink:href="#DejaVuSans-2e"/>
       <use x="95.410156" xlink:href="#DejaVuSans-37"/>
       <use x="159.033203" xlink:href="#DejaVuSans-35"/>
      </g>
     </g>
    </g>
    <g id="ytick_5">
     <g id="line2d_12">
      <g>
       <use style="stroke:#000000;stroke-width:0.8;" x="50.14375" xlink:href="#m85a635ed3a" y="299.721059"/>
      </g>
     </g>
     <g id="text_13">
      <!-- 1.00 -->
      <g transform="translate(20.878125 303.520278)scale(0.1 -0.1)">
       <use xlink:href="#DejaVuSans-31"/>
       <use x="63.623047" xlink:href="#DejaVuSans-2e"/>
       <use x="95.410156" xlink:href="#DejaVuSans-30"/>
       <use x="159.033203" xlink:href="#DejaVuSans-30"/>
      </g>
     </g>
    </g>
    <g id="ytick_6">
     <g id="line2d_13">
      <g>
       <use style="stroke:#000000;stroke-width:0.8;" x="50.14375" xlink:href="#m85a635ed3a" y="234.350718"/>
      </g>
     </g>
     <g id="text_14">
      <!-- 1.25 -->
      <g transform="translate(20.878125 238.149937)scale(0.1 -0.1)">
       <use xlink:href="#DejaVuSans-31"/>
       <use x="63.623047" xlink:href="#DejaVuSans-2e"/>
       <use x="95.410156" xlink:href="#DejaVuSans-32"/>
       <use x="159.033203" xlink:href="#DejaVuSans-35"/>
      </g>
     </g>
    </g>
    <g id="ytick_7">
     <g id="line2d_14">
      <g>
       <use style="stroke:#000000;stroke-width:0.8;" x="50.14375" xlink:href="#m85a635ed3a" y="168.980377"/>
      </g>
     </g>
     <g id="text_15">
      <!-- 1.50 -->
      <g transform="translate(20.878125 172.779596)scale(0.1 -0.1)">
       <use xlink:href="#DejaVuSans-31"/>
       <use x="63.623047" xlink:href="#DejaVuSans-2e"/>
       <use x="95.410156" xlink:href="#DejaVuSans-35"/>
       <use x="159.033203" xlink:href="#DejaVuSans-30"/>
      </g>
     </g>
    </g>
    <g id="ytick_8">
     <g id="line2d_15">
      <g>
       <use style="stroke:#000000;stroke-width:0.8;" x="50.14375" xlink:href="#m85a635ed3a" y="103.610036"/>
      </g>
     </g>
     <g id="text_16">
      <!-- 1.75 -->
      <g transform="translate(20.878125 107.409255)scale(0.1 -0.1)">
       <use xlink:href="#DejaVuSans-31"/>
       <use x="63.623047" xlink:href="#DejaVuSans-2e"/>
       <use x="95.410156" xlink:href="#DejaVuSans-37"/>
       <use x="159.033203" xlink:href="#DejaVuSans-35"/>
      </g>
     </g>
    </g>
    <g id="ytick_9">
     <g id="line2d_16">
      <g>
       <use style="stroke:#000000;stroke-width:0.8;" x="50.14375" xlink:href="#m85a635ed3a" y="38.239695"/>
      </g>
     </g>
     <g id="text_17">
      <!-- 2.00 -->
      <g transform="translate(20.878125 42.038914)scale(0.1 -0.1)">
       <use xlink:href="#DejaVuSans-32"/>
       <use x="63.623047" xlink:href="#DejaVuSans-2e"/>
       <use x="95.410156" xlink:href="#DejaVuSans-30"/>
       <use x="159.033203" xlink:href="#DejaVuSans-30"/>
      </g>
     </g>
    </g>
    <g id="text_18">
     <!-- GCaMP -->
     <g transform="translate(14.798438 322.349446)rotate(-90)scale(0.1 -0.1)">
      <defs>
       <path d="M 3809 666 
L 3809 1919 
L 2778 1919 
L 2778 2438 
L 4434 2438 
L 4434 434 
Q 4069 175 3628 42 
Q 3188 -91 2688 -91 
Q 1594 -91 976 548 
Q 359 1188 359 2328 
Q 359 3472 976 4111 
Q 1594 4750 2688 4750 
Q 3144 4750 3555 4637 
Q 3966 4525 4313 4306 
L 4313 3634 
Q 3963 3931 3569 4081 
Q 3175 4231 2741 4231 
Q 1884 4231 1454 3753 
Q 1025 3275 1025 2328 
Q 1025 1384 1454 906 
Q 1884 428 2741 428 
Q 3075 428 3337 486 
Q 3600 544 3809 666 
z
" id="DejaVuSans-47" transform="scale(0.015625)"/>
       <path d="M 4122 4306 
L 4122 3641 
Q 3803 3938 3442 4084 
Q 3081 4231 2675 4231 
Q 1875 4231 1450 3742 
Q 1025 3253 1025 2328 
Q 1025 1406 1450 917 
Q 1875 428 2675 428 
Q 3081 428 3442 575 
Q 3803 722 4122 1019 
L 4122 359 
Q 3791 134 3420 21 
Q 3050 -91 2638 -91 
Q 1578 -91 968 557 
Q 359 1206 359 2328 
Q 359 3453 968 4101 
Q 1578 4750 2638 4750 
Q 3056 4750 3426 4639 
Q 3797 4528 4122 4306 
z
" id="DejaVuSans-43" transform="scale(0.015625)"/>
       <path d="M 628 4666 
L 1569 4666 
L 2759 1491 
L 3956 4666 
L 4897 4666 
L 4897 0 
L 4281 0 
L 4281 4097 
L 3078 897 
L 2444 897 
L 1241 4097 
L 1241 0 
L 628 0 
L 628 4666 
z
" id="DejaVuSans-4d" transform="scale(0.015625)"/>
       <path d="M 1259 4147 
L 1259 2394 
L 2053 2394 
Q 2494 2394 2734 2622 
Q 2975 2850 2975 3272 
Q 2975 3691 2734 3919 
Q 2494 4147 2053 4147 
L 1259 4147 
z
M 628 4666 
L 2053 4666 
Q 2838 4666 3239 4311 
Q 3641 3956 3641 3272 
Q 3641 2581 3239 2228 
Q 2838 1875 2053 1875 
L 1259 1875 
L 1259 0 
L 628 0 
L 628 4666 
z
" id="DejaVuSans-50" transform="scale(0.015625)"/>
      </defs>
      <use xlink:href="#DejaVuSans-47"/>
      <use x="77.490234" xlink:href="#DejaVuSans-43"/>
      <use x="147.314453" xlink:href="#DejaVuSans-61"/>
      <use x="208.59375" xlink:href="#DejaVuSans-4d"/>
      <use x="294.873047" xlink:href="#DejaVuSans-50"/>
     </g>
    </g>
   </g>
   <g id="line2d_17">
    <path clip-path="url(#p5cd211a607)" d="M 126.234659 404.258639 
L 127.472916 399.433215 
L 128.711174 395.834965 
L 129.949431 394.26142 
L 131.187688 394.740581 
L 132.425945 396.617725 
L 133.664203 398.841859 
L 134.90246 400.305379 
L 136.140717 400.452721 
L 137.378974 399.615027 
L 139.855489 397.409034 
L 141.093746 396.418105 
L 142.332004 395.704357 
L 143.570261 395.55781 
L 144.808518 395.956628 
L 148.52329 397.93638 
L 149.761547 397.992365 
L 150.999804 397.383038 
L 153.476319 395.514193 
L 154.714576 395.108217 
L 155.952834 394.887924 
L 157.191091 394.107258 
L 158.429348 392.341528 
L 162.14412 385.171766 
L 163.382377 383.865816 
L 164.620634 383.931521 
L 165.858892 385.540572 
L 167.097149 388.070205 
L 168.335406 390.262426 
L 169.573663 391.091184 
L 170.811921 390.465934 
L 173.288435 387.854967 
L 174.526693 387.215021 
L 177.003207 386.730929 
L 178.241464 386.133797 
L 180.717979 384.701643 
L 181.956236 384.110612 
L 185.671008 381.891869 
L 191.862294 379.79832 
L 193.100552 379.048324 
L 194.338809 378.15847 
L 195.577066 377.861206 
L 196.815323 378.587937 
L 200.530095 382.890848 
L 201.768352 383.998941 
L 203.00661 384.872583 
L 204.244867 385.16019 
L 205.483124 384.359851 
L 207.959639 380.420896 
L 209.197896 379.565617 
L 210.436153 380.486971 
L 211.674411 382.635702 
L 214.150925 387.33727 
L 215.389182 389.109915 
L 216.62744 390.06425 
L 217.865697 389.817474 
L 219.103954 388.333317 
L 221.580469 384.06264 
L 222.818726 382.557828 
L 224.056983 381.755778 
L 225.29524 381.653319 
L 226.533498 382.157057 
L 227.771755 383.140251 
L 229.010012 384.609505 
L 232.724784 390.418742 
L 233.963041 391.211554 
L 235.201299 391.24568 
L 236.439556 390.68261 
L 237.677813 389.303322 
L 238.91607 386.887383 
L 240.154328 383.858586 
L 241.392585 381.247393 
L 242.630842 380.014638 
L 243.8691 380.487695 
L 245.107357 382.199169 
L 246.345614 384.233628 
L 247.583871 385.773803 
L 248.822129 386.17101 
L 250.060386 385.079808 
L 252.5369 380.838094 
L 253.775158 379.531401 
L 255.013415 379.063311 
L 256.251672 379.042154 
L 258.728187 379.290973 
L 259.966444 379.200599 
L 261.204701 378.671586 
L 262.442959 377.531339 
L 263.681216 375.799125 
L 268.634245 367.820737 
L 269.872502 366.204564 
L 271.110759 364.999155 
L 274.825531 362.333635 
L 276.063788 362.001376 
L 277.302046 363.038118 
L 278.540303 365.816314 
L 281.016818 374.033002 
L 282.255075 376.930174 
L 283.493332 378.160919 
L 285.969847 378.414367 
L 288.446361 379.510114 
L 289.684618 379.486079 
L 290.922876 378.507306 
L 294.637647 373.704132 
L 295.875905 372.481597 
L 297.114162 371.515676 
L 298.352419 370.911669 
L 300.828934 370.341262 
L 303.305448 369.949382 
L 304.543706 369.984299 
L 307.02022 370.751631 
L 308.258477 370.592913 
L 309.496735 369.315077 
L 310.734992 367.052072 
L 311.973249 364.500179 
L 313.211506 362.438577 
L 314.449764 361.517491 
L 315.688021 362.192728 
L 316.926278 364.364404 
L 319.402793 369.829698 
L 320.64105 371.697221 
L 321.879307 372.820128 
L 323.117565 373.468432 
L 325.594079 374.482877 
L 326.832336 374.669077 
L 328.070594 374.190747 
L 329.308851 373.012142 
L 333.023623 368.170964 
L 334.26188 366.777782 
L 335.500137 365.940879 
L 336.738395 366.215372 
L 337.976652 367.592447 
L 340.453166 371.418244 
L 341.691424 372.712075 
L 342.929681 373.32069 
L 344.167938 373.519275 
L 345.406195 373.403106 
L 346.644453 372.672841 
L 347.88271 371.14729 
L 349.120967 369.288623 
L 350.359225 367.95005 
L 351.597482 367.636445 
L 352.835739 368.20438 
L 354.073996 369.18506 
L 355.312254 370.350366 
L 356.550511 371.868412 
L 357.788768 373.651554 
L 359.027025 374.887922 
L 360.265283 374.719676 
L 361.50354 373.081715 
L 365.218312 365.795302 
L 366.456569 364.656908 
L 367.694826 364.739383 
L 368.933084 366.085114 
L 371.409598 370.747403 
L 372.647855 372.23677 
L 373.886113 372.468562 
L 375.12437 372.091497 
L 376.362627 372.064394 
L 378.839142 373.201088 
L 380.077399 373.086606 
L 381.315656 371.515478 
L 382.553913 368.353217 
L 383.792171 364.435316 
L 385.030428 361.112582 
L 386.268685 359.558279 
L 387.506943 360.007067 
L 388.7452 361.515611 
L 389.983457 362.831911 
L 391.221714 363.310594 
L 392.459972 363.015184 
L 393.698229 362.436339 
L 394.936486 362.096305 
L 397.413001 362.145188 
L 398.651258 362.229943 
L 399.889515 362.44099 
L 401.127772 362.516864 
L 402.36603 362.040191 
L 403.604287 360.901862 
L 407.319059 356.256867 
L 408.557316 354.847756 
L 409.795573 353.752827 
L 411.033831 353.343672 
L 413.510345 353.655791 
L 414.748602 353.494317 
L 415.98686 352.956546 
L 418.463374 351.554341 
L 420.939889 350.382543 
L 422.178146 350.311347 
L 423.416403 351.153714 
L 427.131175 355.715676 
L 428.369432 356.625579 
L 429.60769 357.360508 
L 430.845947 357.922619 
L 432.084204 357.909521 
L 433.322461 356.993747 
L 435.798976 353.714998 
L 437.037233 352.556428 
L 438.275491 351.704522 
L 439.513748 350.512628 
L 441.990262 347.44991 
L 443.22852 346.63127 
L 444.466777 346.391313 
L 445.705034 346.516644 
L 446.943291 346.936842 
L 448.181549 347.716484 
L 449.419806 348.829074 
L 450.658063 350.132966 
L 451.89632 351.652883 
L 453.134578 353.638745 
L 455.611092 358.41863 
L 456.84935 359.536693 
L 458.087607 359.154305 
L 459.325864 357.648877 
L 460.564121 355.442151 
L 461.802379 352.980608 
L 463.040636 351.008473 
L 464.278893 350.386775 
L 465.51715 351.407181 
L 466.755408 353.325186 
L 467.993665 354.829323 
L 469.231922 355.019634 
L 471.708437 353.315681 
L 472.946694 352.857896 
L 474.184951 352.233663 
L 475.423209 350.889343 
L 476.661466 348.971296 
L 477.899723 347.267499 
L 479.13798 346.486719 
L 480.376238 346.689328 
L 481.614495 347.664058 
L 482.852752 349.358311 
L 484.091009 351.479642 
L 485.329267 353.152594 
L 486.567524 353.554716 
L 487.805781 352.607329 
L 489.044038 350.922456 
L 490.282296 349.455852 
L 491.520553 348.886582 
L 493.997068 349.182373 
L 495.235325 348.968229 
L 496.473582 348.424683 
L 497.711839 347.621083 
L 498.950097 346.538709 
L 500.188354 345.276293 
L 501.426611 344.307204 
L 502.664868 344.370196 
L 503.903126 345.847289 
L 507.617897 353.253401 
L 508.856155 354.274276 
L 510.094412 354.11042 
L 511.332669 352.739473 
L 512.570927 350.085285 
L 513.809184 346.266611 
L 516.285698 337.567708 
L 517.523956 334.164596 
L 518.762213 332.239705 
L 520.00047 332.129261 
L 522.476985 334.519622 
L 523.715242 334.444746 
L 524.953499 332.425271 
L 526.191757 329.094192 
L 527.430014 326.151925 
L 528.668271 324.966164 
L 529.906528 325.549959 
L 532.383043 328.610055 
L 533.6213 330.28717 
L 534.859557 332.341061 
L 538.574329 340.288595 
L 539.812586 342.347041 
L 541.050844 344.077524 
L 542.289101 345.052902 
L 543.527358 344.226313 
L 544.765616 340.956741 
L 547.24213 330.65377 
L 548.480387 326.559678 
L 549.718645 323.851469 
L 550.956902 321.962544 
L 552.195159 320.482851 
L 553.433416 319.370833 
L 554.671674 318.592797 
L 558.386445 316.918111 
L 559.624703 316.974115 
L 560.86296 318.01326 
L 562.101217 320.335804 
L 563.339475 324.066724 
L 564.577732 328.936317 
L 567.054246 339.557945 
L 568.292504 343.383248 
L 569.530761 344.682129 
L 570.769018 343.148495 
L 572.007275 339.571001 
L 573.245533 335.388851 
L 574.48379 332.371683 
L 575.722047 332.295287 
L 576.960304 335.603764 
L 579.436819 345.25897 
L 580.675076 348.279231 
L 581.913334 349.479133 
L 583.151591 348.927163 
L 584.389848 346.709639 
L 586.866363 340.125923 
L 588.10462 338.315948 
L 589.342877 338.313673 
L 590.581134 339.567962 
L 593.057649 342.83936 
L 594.295906 344.245277 
L 595.534163 345.222062 
L 596.772421 345.467822 
L 598.010678 344.764233 
L 599.248935 343.145222 
L 600.487193 341.175941 
L 601.72545 339.660324 
L 602.963707 338.603805 
L 604.201964 337.053978 
L 605.440222 334.424155 
L 607.916736 328.046558 
L 609.154993 325.336725 
L 610.393251 323.215352 
L 611.631508 321.838721 
L 614.108023 319.986153 
L 615.34628 318.780952 
L 616.584537 317.397771 
L 617.822794 315.740122 
L 620.299309 311.72779 
L 624.014081 304.589673 
L 625.252338 304.061959 
L 626.490595 304.759578 
L 627.728852 305.83143 
L 628.96711 306.684724 
L 630.205367 307.330267 
L 631.443624 308.305232 
L 632.681882 309.99225 
L 633.920139 311.908735 
L 635.158396 313.138386 
L 636.396653 313.173524 
L 637.634911 311.901674 
L 638.873168 309.31319 
L 640.111425 305.994468 
L 641.349682 303.982328 
L 642.58794 305.937814 
L 643.826197 312.471597 
L 645.064454 321.205273 
L 646.302711 329.074839 
L 647.540969 334.546438 
L 648.779226 337.598137 
L 650.017483 338.582299 
L 651.255741 337.352012 
L 652.493998 333.506898 
L 653.732255 327.273794 
L 656.20877 312.971281 
L 657.447027 308.632118 
L 658.685284 307.89242 
L 659.923541 310.15603 
L 661.161799 313.107886 
L 662.400056 314.175981 
L 663.638313 312.365564 
L 666.114828 305.033925 
L 667.353085 303.32491 
L 668.591342 304.332381 
L 669.8296 307.695584 
L 672.306114 316.404363 
L 673.544371 318.879987 
L 674.782629 319.595788 
L 676.020886 319.246883 
L 677.259143 318.333563 
L 679.735658 315.982115 
L 680.973915 314.556409 
L 682.212172 312.795647 
L 683.450429 311.253537 
L 684.688687 310.672703 
L 685.926944 311.292088 
L 687.165201 312.930755 
L 689.641716 317.685815 
L 690.879973 319.632106 
L 692.11823 320.870265 
L 693.356488 321.460078 
L 694.594745 321.335466 
L 695.833002 320.472334 
L 697.071259 319.072299 
L 698.309517 317.147464 
L 699.547774 314.208156 
L 700.786031 309.727469 
L 703.262546 298.039108 
L 704.500803 293.032668 
L 705.73906 289.562679 
L 706.977318 288.120749 
L 708.215575 289.03872 
L 709.453832 291.790847 
L 710.692089 295.065503 
L 711.930347 297.72947 
L 713.168604 299.237747 
L 714.406861 299.456534 
L 715.645118 298.699531 
L 716.883376 297.715563 
L 718.121633 297.254345 
L 719.35989 297.708231 
L 720.598148 299.116181 
L 724.312919 305.00016 
L 725.551177 305.978595 
L 726.789434 305.704661 
L 728.027691 304.245089 
L 729.265948 302.376575 
L 730.504206 300.731342 
L 731.742463 299.285204 
L 732.98072 298.022346 
L 734.218977 297.315892 
L 735.457235 297.370363 
L 737.933749 298.389821 
L 739.172007 298.609873 
L 740.410264 299.051008 
L 741.648521 300.311493 
L 742.886778 302.458612 
L 745.363293 307.637447 
L 746.60155 309.001681 
L 747.839807 308.902907 
L 750.316322 306.961184 
L 751.554579 306.456322 
L 752.792836 306.404431 
L 754.031094 306.823816 
L 755.269351 307.449114 
L 756.507608 307.392946 
L 757.745866 305.539902 
L 758.984123 301.510584 
L 760.22238 296.447273 
L 761.460637 292.359525 
L 762.698895 290.476385 
L 763.937152 290.37716 
L 765.175409 290.567897 
L 766.413666 289.843915 
L 767.651924 287.926412 
L 771.366695 279.471672 
L 772.604953 278.124859 
L 773.84321 277.795222 
L 775.081467 278.170308 
L 776.319725 278.843746 
L 777.557982 279.278261 
L 778.796239 278.939091 
L 780.034496 277.313627 
L 781.272754 273.941064 
L 782.511011 268.786387 
L 783.749268 262.779021 
L 784.987525 258.039942 
L 786.225783 256.941403 
L 787.46404 260.068533 
L 788.702297 265.38614 
L 789.940554 270.037447 
L 791.178812 272.5324 
L 792.417069 273.027161 
L 793.655326 272.447235 
L 794.893584 271.733086 
L 796.131841 271.465589 
L 797.370098 271.901841 
L 798.608355 273.109966 
L 801.08487 276.460883 
L 802.323127 277.020211 
L 803.561384 276.072058 
L 804.799642 274.410713 
L 806.037899 273.818123 
L 807.276156 275.634899 
L 808.514414 279.810934 
L 809.752671 285.005952 
L 810.990928 289.350086 
L 812.229185 291.852736 
L 813.467443 293.300902 
L 814.7057 295.332417 
L 815.943957 298.83026 
L 817.182214 303.247248 
L 818.420472 306.99405 
L 819.658729 308.809631 
L 822.135243 309.502338 
L 823.373501 310.383611 
L 824.611758 310.85673 
L 827.088273 309.993486 
L 828.32653 311.034189 
L 829.564787 314.507069 
L 830.803044 320.274869 
L 832.041302 326.929725 
L 833.279559 332.574168 
L 834.517816 336.206714 
L 835.756073 337.941255 
L 836.994331 337.959915 
L 838.232588 335.996167 
L 839.470845 331.704624 
L 840.709102 325.016107 
L 843.185617 307.624111 
L 844.423874 301.56175 
L 845.662132 300.308046 
L 846.900389 303.464505 
L 849.376903 315.149372 
L 850.615161 319.755397 
L 851.853418 322.01338 
L 853.091675 322.247502 
L 856.806447 320.192321 
L 858.044704 320.019946 
L 859.282961 321.161762 
L 860.521219 324.346628 
L 861.759476 328.611481 
L 862.997733 331.666547 
L 864.235991 331.549192 
L 865.474248 327.99501 
L 870.427277 306.314885 
L 872.903791 293.797947 
L 874.142049 288.656679 
L 875.380306 284.930834 
L 876.618563 282.570569 
L 877.85682 281.288197 
L 880.333335 279.584374 
L 881.571592 278.277316 
L 882.80985 276.035095 
L 884.048107 272.622468 
L 885.286364 268.414014 
L 886.524621 263.638739 
L 889.001136 252.500656 
L 890.239393 247.913854 
L 891.47765 245.564361 
L 892.715908 246.124002 
L 893.954165 250.395401 
L 895.192422 259.122283 
L 896.43068 271.671716 
L 897.668937 285.690032 
L 898.907194 298.34232 
L 900.145451 307.301947 
L 901.383709 311.365553 
L 902.621966 311.235319 
L 903.860223 308.916149 
L 906.336738 303.311512 
L 907.574995 301.165957 
L 908.813252 299.845759 
L 910.051509 299.47979 
L 911.289767 299.836834 
L 912.528024 300.562203 
L 913.766281 302.086486 
L 915.004539 305.383358 
L 917.481053 315.410922 
L 918.71931 318.545548 
L 919.957568 318.631619 
L 921.195825 315.900788 
L 922.434082 311.45142 
L 923.672339 306.406049 
L 924.910597 301.965479 
L 926.148854 299.170478 
L 927.387111 297.857522 
L 928.625368 296.887777 
L 929.863626 295.509854 
L 933.578398 290.54477 
L 937.293169 284.599006 
L 938.531427 283.386132 
L 939.769684 283.147759 
L 941.007941 284.195946 
L 943.484456 288.430262 
L 944.722713 289.59268 
L 945.96097 289.665575 
L 947.199227 289.212654 
L 948.437485 288.552512 
L 949.675742 287.323856 
L 950.913999 285.06134 
L 952.152257 282.044677 
L 953.390514 279.426091 
L 954.628771 278.312455 
L 955.867028 278.823684 
L 957.105286 280.521238 
L 959.5818 285.276162 
L 960.820057 286.350289 
L 962.058315 285.817581 
L 963.296572 283.942839 
L 964.534829 280.962391 
L 965.773086 276.869429 
L 968.249601 266.525943 
L 969.487858 262.679021 
L 970.726116 261.353214 
L 971.964373 262.272301 
L 973.20263 263.913351 
L 974.440887 264.655655 
L 975.679145 263.979488 
L 979.393916 259.743817 
L 981.870431 257.099857 
L 983.108688 255.075505 
L 984.346946 251.68724 
L 986.82346 242.481911 
L 988.061717 239.150278 
L 989.299975 238.011724 
L 990.538232 239.223782 
L 991.776489 242.451535 
L 994.253004 251.927166 
L 995.491261 255.543819 
L 996.729518 256.976705 
L 997.967775 256.536609 
L 999.206033 255.52268 
L 1000.44429 254.960344 
L 1002.920805 254.917082 
L 1004.159062 254.038779 
L 1005.397319 251.798689 
L 1006.635576 249.010239 
L 1007.873834 246.931417 
L 1009.112091 245.784811 
L 1010.350348 245.162114 
L 1011.588605 245.105576 
L 1014.06512 246.405376 
L 1015.303377 245.925631 
L 1016.541634 243.49017 
L 1017.779892 238.875644 
L 1019.018149 232.4015 
L 1021.494664 216.53546 
L 1022.732921 208.491789 
L 1023.971178 201.636074 
L 1025.209435 196.963673 
L 1026.447693 194.859266 
L 1027.68595 194.871421 
L 1028.924207 196.183686 
L 1030.162464 198.290707 
L 1032.638979 203.475788 
L 1033.877236 204.637943 
L 1035.115493 203.201735 
L 1036.353751 199.006387 
L 1037.592008 193.356692 
L 1038.830265 188.464635 
L 1040.068523 185.914549 
L 1041.30678 185.492022 
L 1042.545037 185.676785 
L 1043.783294 185.030269 
L 1045.021552 183.072986 
L 1046.259809 180.146588 
L 1048.736323 173.654685 
L 1049.974581 171.869974 
L 1051.212838 172.522185 
L 1052.451095 175.611465 
L 1053.689352 179.529479 
L 1054.92761 181.863888 
L 1056.165867 181.262884 
L 1057.404124 178.402588 
L 1059.880639 170.978626 
L 1062.357153 163.118205 
L 1063.595411 160.056006 
L 1064.833668 158.473351 
L 1066.071925 158.22351 
L 1067.310182 158.199575 
L 1068.54844 157.570699 
L 1069.786697 156.678938 
L 1071.024954 156.251335 
L 1072.263211 156.673264 
L 1073.501469 158.189027 
L 1074.739726 161.045064 
L 1075.977983 165.159883 
L 1078.454498 174.796428 
L 1079.692755 178.324749 
L 1080.931012 179.061925 
L 1082.16927 176.254944 
L 1083.407527 170.444397 
L 1085.884041 155.35922 
L 1087.122299 148.883065 
L 1088.360556 144.568687 
L 1089.598813 143.278946 
L 1090.837071 145.702318 
L 1092.075328 151.420887 
L 1093.313585 158.001862 
L 1094.551842 162.172695 
L 1095.7901 162.403612 
L 1097.028357 159.935759 
L 1098.266614 157.094941 
L 1099.504871 155.285882 
L 1100.743129 154.760165 
L 1101.981386 155.266142 
L 1103.219643 156.51888 
L 1105.696158 160.316992 
L 1106.934415 161.498901 
L 1108.172672 160.249623 
L 1109.41093 154.952449 
L 1110.649187 145.288331 
L 1111.887444 133.202718 
L 1113.125701 122.434937 
L 1114.363959 116.261779 
L 1115.602216 115.19291 
L 1116.840473 117.39229 
L 1119.316988 124.558576 
L 1120.555245 127.323109 
L 1121.793502 128.663291 
L 1123.031759 128.799196 
L 1125.508274 128.352603 
L 1126.746531 127.664941 
L 1127.984789 125.911991 
L 1129.223046 123.591037 
L 1130.461303 121.651588 
L 1131.69956 120.513565 
L 1132.937818 120.181524 
L 1134.176075 121.054393 
L 1135.414332 123.871032 
L 1137.890847 133.175753 
L 1139.129104 136.987427 
L 1140.367361 139.520176 
L 1141.605618 141.049095 
L 1144.082133 143.3348 
L 1145.32039 144.010601 
L 1146.558648 143.330562 
L 1147.796905 141.295601 
L 1151.511677 133.956338 
L 1153.988191 127.837523 
L 1155.226448 125.445649 
L 1156.464706 125.108945 
L 1157.702963 128.142856 
L 1158.94122 134.102233 
L 1160.179477 140.82635 
L 1162.655992 152.366284 
L 1163.894249 157.558969 
L 1165.132507 161.410425 
L 1166.370764 162.585755 
L 1167.609021 160.497273 
L 1168.847278 155.914943 
L 1170.085536 150.809693 
L 1171.323793 147.256406 
L 1172.56205 146.404235 
L 1173.800307 147.800299 
L 1175.038565 149.563018 
L 1176.276822 150.027862 
L 1177.515079 149.002654 
L 1178.753337 147.098407 
L 1179.991594 144.565027 
L 1182.468108 138.058356 
L 1183.706366 136.132845 
L 1184.944623 136.336902 
L 1186.18288 137.936507 
L 1187.421137 139.789037 
L 1188.659395 141.174721 
L 1189.897652 141.280118 
L 1191.135909 139.588946 
L 1192.374166 137.143744 
L 1193.612424 135.855521 
L 1194.850681 136.536468 
L 1196.088938 138.357175 
L 1197.327196 139.735508 
L 1198.565453 139.606625 
L 1201.041967 136.95889 
L 1202.280225 136.371878 
L 1203.518482 136.161022 
L 1207.233254 135.081049 
L 1209.709768 133.990746 
L 1210.948025 134.428635 
L 1212.186283 136.685471 
L 1213.42454 140.645846 
L 1214.662797 145.146386 
L 1215.901055 148.92963 
L 1217.139312 151.414783 
L 1218.377569 152.596691 
L 1219.615826 152.705738 
L 1220.854084 152.262501 
L 1222.092341 151.947061 
L 1224.568855 151.935483 
L 1225.807113 151.167915 
L 1227.04537 148.715148 
L 1228.283627 144.42731 
L 1229.521884 139.395239 
L 1230.760142 134.853042 
L 1231.998399 131.58742 
L 1233.236656 130.210723 
L 1234.474914 131.032739 
L 1235.713171 133.696091 
L 1236.951428 137.524636 
L 1240.6662 151.23576 
L 1241.904457 153.089485 
L 1243.142714 150.595861 
L 1244.380972 143.831707 
L 1245.619229 135.6393 
L 1246.857486 129.63953 
L 1248.095743 127.415796 
L 1249.334001 128.330738 
L 1250.572258 131.648338 
L 1251.810515 137.085551 
L 1254.28703 149.808185 
L 1255.525287 154.780213 
L 1256.763544 158.761438 
L 1258.001802 162.143877 
L 1259.240059 164.722887 
L 1260.478316 166.04926 
L 1261.716573 166.658354 
L 1262.954831 168.102998 
L 1264.193088 171.570467 
L 1266.669603 182.197961 
L 1267.90786 185.351265 
L 1269.146117 185.294654 
L 1270.384374 182.922573 
L 1271.622632 179.908446 
L 1272.860889 177.584841 
L 1274.099146 176.614579 
L 1275.337403 176.538392 
L 1276.575661 175.874881 
L 1279.052175 171.758397 
L 1280.290432 171.060769 
L 1281.52869 172.662802 
L 1282.766947 176.516793 
L 1284.005204 181.608535 
L 1285.243462 186.097398 
L 1286.481719 188.495124 
L 1287.719976 188.916825 
L 1288.958233 188.881924 
L 1290.196491 189.719627 
L 1291.434748 191.468617 
L 1292.673005 193.758271 
L 1293.911262 196.789882 
L 1295.14952 200.396857 
L 1296.387777 203.260752 
L 1297.626034 204.016158 
L 1298.864291 202.516697 
L 1300.102549 199.995484 
L 1301.340806 198.36986 
L 1302.579063 199.023847 
L 1303.817321 202.118151 
L 1306.293835 211.485614 
L 1307.532092 214.131108 
L 1308.77035 213.03624 
L 1310.008607 207.248016 
L 1312.485121 186.832957 
L 1313.723379 178.957392 
L 1314.961636 175.032291 
L 1317.43815 171.648233 
L 1319.914665 166.577281 
L 1321.152922 165.767014 
L 1322.39118 167.754647 
L 1323.629437 172.651379 
L 1324.867694 178.978278 
L 1326.105951 184.070515 
L 1327.344209 186.213534 
L 1331.05898 186.790938 
L 1332.297238 185.716996 
L 1333.535495 182.155513 
L 1334.773752 176.090211 
L 1336.012009 169.247646 
L 1337.250267 164.729362 
L 1338.488524 164.971516 
L 1339.726781 170.042103 
L 1342.203296 184.529306 
L 1343.441553 189.35364 
L 1344.67981 191.881563 
L 1345.918068 192.174014 
L 1347.156325 190.217544 
L 1348.394582 186.236698 
L 1350.871097 176.467412 
L 1352.109354 172.941914 
L 1353.347611 170.69653 
L 1354.585868 169.790149 
L 1357.062383 169.991698 
L 1358.30064 169.882515 
L 1359.538898 170.59478 
L 1360.777155 173.291637 
L 1362.015412 178.048778 
L 1364.491927 190.605407 
L 1366.968441 203.40778 
L 1368.206698 208.175509 
L 1369.444956 210.560588 
L 1370.683213 210.227174 
L 1371.92147 207.947047 
L 1374.397985 202.116846 
L 1375.636242 200.415719 
L 1376.874499 201.111608 
L 1378.112757 204.346008 
L 1379.351014 208.647599 
L 1380.589271 212.500565 
L 1381.827528 215.427672 
L 1383.065786 217.641027 
L 1384.304043 219.377953 
L 1386.780557 222.261099 
L 1388.018815 224.927048 
L 1389.257072 229.463088 
L 1390.495329 235.756172 
L 1391.733587 242.665631 
L 1392.971844 247.741474 
L 1394.210101 247.896164 
L 1395.448358 241.264669 
L 1396.686616 228.918392 
L 1397.924873 214.606149 
L 1399.16313 202.187678 
L 1400.401387 193.857926 
L 1401.639645 190.894951 
L 1402.877902 194.145852 
L 1404.116159 203.042829 
L 1406.592674 226.308487 
L 1407.830931 233.969206 
L 1409.069188 236.493869 
L 1410.307446 233.998298 
L 1412.78396 223.455353 
L 1415.260475 215.983198 
L 1416.498732 211.13105 
L 1418.975246 199.653576 
L 1420.213504 194.595286 
L 1421.451761 190.931673 
L 1422.690018 189.44504 
L 1423.928275 190.267854 
L 1425.166533 193.288414 
L 1427.643047 203.334517 
L 1428.881305 205.933171 
L 1430.119562 203.94551 
L 1431.357819 198.196284 
L 1432.596076 191.637921 
L 1433.834334 186.863644 
L 1435.072591 184.802481 
L 1436.310848 184.774037 
L 1437.549105 185.670999 
L 1438.787363 187.715472 
L 1440.02562 192.153286 
L 1443.740392 211.882185 
L 1444.978649 215.237944 
L 1446.216906 215.970605 
L 1447.455164 215.40451 
L 1448.693421 215.639419 
L 1451.169935 218.985612 
L 1452.408193 219.439399 
L 1453.64645 218.274236 
L 1454.884707 216.468501 
L 1457.361222 213.251162 
L 1458.599479 211.214064 
L 1459.837736 209.412588 
L 1461.075994 208.323128 
L 1464.790765 206.186408 
L 1467.26728 205.818663 
L 1468.505537 205.006839 
L 1470.982052 201.871919 
L 1472.220309 200.705243 
L 1473.458566 199.796371 
L 1474.696823 198.436296 
L 1475.935081 195.668911 
L 1477.173338 191.118395 
L 1478.411595 185.151194 
L 1480.88811 172.450441 
L 1482.126367 168.689417 
L 1483.364624 169.378174 
L 1484.602882 175.742324 
L 1487.079396 196.189292 
L 1488.317653 202.853068 
L 1489.555911 204.696039 
L 1490.794168 201.846358 
L 1492.032425 195.346658 
L 1495.747197 170.161927 
L 1496.985454 162.647126 
L 1498.223712 155.847557 
L 1499.461969 149.685602 
L 1500.700226 144.732115 
L 1501.938483 142.549516 
L 1503.176741 144.104291 
L 1504.414998 148.836826 
L 1508.12977 167.62097 
L 1509.368027 171.283109 
L 1510.606284 172.202129 
L 1511.844541 170.993368 
L 1513.082799 169.131709 
L 1514.321056 167.66174 
L 1515.559313 166.996068 
L 1516.797571 167.39554 
L 1518.035828 169.051593 
L 1519.274085 171.933387 
L 1520.512342 175.452783 
L 1521.7506 178.477978 
L 1522.988857 180.383506 
L 1524.227114 181.353391 
L 1525.465371 181.113343 
L 1526.703629 178.666544 
L 1527.941886 174.126202 
L 1529.180143 170.252827 
L 1530.4184 170.464597 
L 1531.656658 175.081748 
L 1532.894915 181.178425 
L 1534.133172 185.113055 
L 1535.37143 184.107779 
L 1536.609687 177.531603 
L 1537.847944 167.864276 
L 1539.086201 159.347131 
L 1540.324459 155.304709 
L 1541.562716 157.033772 
L 1542.800973 164.049683 
L 1544.03923 173.999988 
L 1545.277488 182.573988 
L 1546.515745 184.904903 
L 1547.754002 178.881243 
L 1550.230517 155.599843 
L 1551.468774 147.79221 
L 1552.707031 144.659275 
L 1553.945289 144.80743 
L 1555.183546 145.979135 
L 1556.421803 145.846413 
L 1557.66006 142.771232 
L 1560.136575 131.912956 
L 1561.374832 130.84004 
L 1562.613089 135.148325 
L 1563.851347 143.601684 
L 1566.327861 163.994617 
L 1567.566119 170.285062 
L 1568.804376 171.357357 
L 1570.042633 168.347201 
L 1571.28089 164.717602 
L 1572.519148 163.710002 
L 1573.757405 165.728551 
L 1574.995662 168.617092 
L 1576.233919 170.099512 
L 1577.472177 169.11328 
L 1578.710434 165.391115 
L 1581.186948 153.791398 
L 1582.425206 150.408941 
L 1583.663463 149.61575 
L 1584.90172 149.282441 
L 1586.139978 147.544825 
L 1587.378235 144.513552 
L 1588.616492 141.80968 
L 1589.854749 141.017088 
L 1591.093007 142.067341 
L 1592.331264 143.430555 
L 1593.569521 143.65014 
L 1594.807778 141.802749 
L 1596.046036 137.575285 
L 1597.284293 131.52702 
L 1599.760807 117.489544 
L 1600.999065 114.44017 
L 1602.237322 118.164769 
L 1604.713837 136.590488 
L 1605.952094 143.853295 
L 1607.190351 148.64778 
L 1608.428608 152.637914 
L 1610.905123 161.484983 
L 1612.14338 561.202423 
L 1613.381637 163.77062 
L 1614.619895 161.498167 
L 1615.858152 158.761173 
L 1617.096409 156.732418 
L 1618.334666 155.740887 
L 1619.572924 155.568145 
L 1620.811181 155.754116 
L 1622.049438 155.668125 
L 1623.287696 154.606138 
L 1624.525953 151.942137 
L 1625.76421 147.295246 
L 1628.240725 135.719257 
L 1629.478982 130.121488 
L 1630.717239 121.028326 
L 1633.193754 91.268586 
L 1634.432011 83.266561 
L 1635.670268 85.218207 
L 1636.908526 92.111308 
L 1638.146783 97.194645 
L 1639.38504 96.884238 
L 1640.623297 92.12431 
L 1641.861555 86.361504 
L 1644.338069 77.033001 
L 1645.576326 70.699913 
L 1646.814584 60.86578 
L 1648.052841 47.979282 
L 1648.052841 47.979282 
" style="fill:none;stroke:#008000;stroke-linecap:square;stroke-width:1.5;"/>
   </g>
   <g id="patch_3">
    <path d="M 50.14375 586.86358 
L 50.14375 22.318125 
" style="fill:none;stroke:#000000;stroke-linecap:square;stroke-linejoin:miter;stroke-width:0.8;"/>
   </g>
   <g id="patch_4">
    <path d="M 1724.14375 586.86358 
L 1724.14375 22.318125 
" style="fill:none;stroke:#000000;stroke-linecap:square;stroke-linejoin:miter;stroke-width:0.8;"/>
   </g>
   <g id="patch_5">
    <path d="M 50.14375 586.86358 
L 1724.14375 586.86358 
" style="fill:none;stroke:#000000;stroke-linecap:square;stroke-linejoin:miter;stroke-width:0.8;"/>
   </g>
   <g id="patch_6">
    <path d="M 50.14375 22.318125 
L 1724.14375 22.318125 
" style="fill:none;stroke:#000000;stroke-linecap:square;stroke-linejoin:miter;stroke-width:0.8;"/>
   </g>
   <g id="text_19">
    <!-- before binarisation -->
    <g transform="translate(830.545 16.318125)scale(0.12 -0.12)">
     <defs>
      <path d="M 3116 1747 
Q 3116 2381 2855 2742 
Q 2594 3103 2138 3103 
Q 1681 3103 1420 2742 
Q 1159 2381 1159 1747 
Q 1159 1113 1420 752 
Q 1681 391 2138 391 
Q 2594 391 2855 752 
Q 3116 1113 3116 1747 
z
M 1159 2969 
Q 1341 3281 1617 3432 
Q 1894 3584 2278 3584 
Q 2916 3584 3314 3078 
Q 3713 2572 3713 1747 
Q 3713 922 3314 415 
Q 2916 -91 2278 -91 
Q 1894 -91 1617 61 
Q 1341 213 1159 525 
L 1159 0 
L 581 0 
L 581 4863 
L 1159 4863 
L 1159 2969 
z
" id="DejaVuSans-62" transform="scale(0.015625)"/>
      <path d="M 1959 3097 
Q 1497 3097 1228 2736 
Q 959 2375 959 1747 
Q 959 1119 1226 758 
Q 1494 397 1959 397 
Q 2419 397 2687 759 
Q 2956 1122 2956 1747 
Q 2956 2369 2687 2733 
Q 2419 3097 1959 3097 
z
M 1959 3584 
Q 2709 3584 3137 3096 
Q 3566 2609 3566 1747 
Q 3566 888 3137 398 
Q 2709 -91 1959 -91 
Q 1206 -91 779 398 
Q 353 888 353 1747 
Q 353 2609 779 3096 
Q 1206 3584 1959 3584 
z
" id="DejaVuSans-6f" transform="scale(0.015625)"/>
      <path id="DejaVuSans-20" transform="scale(0.015625)"/>
      <path d="M 603 3500 
L 1178 3500 
L 1178 0 
L 603 0 
L 603 3500 
z
M 603 4863 
L 1178 4863 
L 1178 4134 
L 603 4134 
L 603 4863 
z
" id="DejaVuSans-69" transform="scale(0.015625)"/>
      <path d="M 3513 2113 
L 3513 0 
L 2938 0 
L 2938 2094 
Q 2938 2591 2744 2837 
Q 2550 3084 2163 3084 
Q 1697 3084 1428 2787 
Q 1159 2491 1159 1978 
L 1159 0 
L 581 0 
L 581 3500 
L 1159 3500 
L 1159 2956 
Q 1366 3272 1645 3428 
Q 1925 3584 2291 3584 
Q 2894 3584 3203 3211 
Q 3513 2838 3513 2113 
z
" id="DejaVuSans-6e" transform="scale(0.015625)"/>
      <path d="M 2834 3397 
L 2834 2853 
Q 2591 2978 2328 3040 
Q 2066 3103 1784 3103 
Q 1356 3103 1142 2972 
Q 928 2841 928 2578 
Q 928 2378 1081 2264 
Q 1234 2150 1697 2047 
L 1894 2003 
Q 2506 1872 2764 1633 
Q 3022 1394 3022 966 
Q 3022 478 2636 193 
Q 2250 -91 1575 -91 
Q 1294 -91 989 -36 
Q 684 19 347 128 
L 347 722 
Q 666 556 975 473 
Q 1284 391 1588 391 
Q 1994 391 2212 530 
Q 2431 669 2431 922 
Q 2431 1156 2273 1281 
Q 2116 1406 1581 1522 
L 1381 1569 
Q 847 1681 609 1914 
Q 372 2147 372 2553 
Q 372 3047 722 3315 
Q 1072 3584 1716 3584 
Q 2034 3584 2315 3537 
Q 2597 3491 2834 3397 
z
" id="DejaVuSans-73" transform="scale(0.015625)"/>
      <path d="M 1172 4494 
L 1172 3500 
L 2356 3500 
L 2356 3053 
L 1172 3053 
L 1172 1153 
Q 1172 725 1289 603 
Q 1406 481 1766 481 
L 2356 481 
L 2356 0 
L 1766 0 
Q 1100 0 847 248 
Q 594 497 594 1153 
L 594 3053 
L 172 3053 
L 172 3500 
L 594 3500 
L 594 4494 
L 1172 4494 
z
" id="DejaVuSans-74" transform="scale(0.015625)"/>
     </defs>
     <use xlink:href="#DejaVuSans-62"/>
     <use x="63.476562" xlink:href="#DejaVuSans-65"/>
     <use x="125" xlink:href="#DejaVuSans-66"/>
     <use x="160.205078" xlink:href="#DejaVuSans-6f"/>
     <use x="221.386719" xlink:href="#DejaVuSans-72"/>
     <use x="260.25" xlink:href="#DejaVuSans-65"/>
     <use x="321.773438" xlink:href="#DejaVuSans-20"/>
     <use x="353.560547" xlink:href="#DejaVuSans-62"/>
     <use x="417.037109" xlink:href="#DejaVuSans-69"/>
     <use x="444.820312" xlink:href="#DejaVuSans-6e"/>
     <use x="508.199219" xlink:href="#DejaVuSans-61"/>
     <use x="569.478516" xlink:href="#DejaVuSans-72"/>
     <use x="610.591797" xlink:href="#DejaVuSans-69"/>
     <use x="638.375" xlink:href="#DejaVuSans-73"/>
     <use x="690.474609" xlink:href="#DejaVuSans-61"/>
     <use x="751.753906" xlink:href="#DejaVuSans-74"/>
     <use x="790.962891" xlink:href="#DejaVuSans-69"/>
     <use x="818.746094" xlink:href="#DejaVuSans-6f"/>
     <use x="879.927734" xlink:href="#DejaVuSans-6e"/>
    </g>
   </g>
  </g>
  <g id="axes_2">
   <g id="patch_7">
    <path d="M 50.14375 1264.318125 
L 1724.14375 1264.318125 
L 1724.14375 699.77267 
L 50.14375 699.77267 
z
" style="fill:#ffffff;"/>
   </g>
   <g id="matplotlib.axis_3">
    <g id="xtick_8">
     <g id="line2d_18">
      <g>
       <use style="stroke:#000000;stroke-width:0.8;" x="126.234659" xlink:href="#m8e939397a1" y="1264.318125"/>
      </g>
     </g>
     <g id="text_20">
      <!-- 0 -->
      <g transform="translate(123.053409 1278.916563)scale(0.1 -0.1)">
       <use xlink:href="#DejaVuSans-30"/>
      </g>
     </g>
    </g>
    <g id="xtick_9">
     <g id="line2d_19">
      <g>
       <use style="stroke:#000000;stroke-width:0.8;" x="373.886113" xlink:href="#m8e939397a1" y="1264.318125"/>
      </g>
     </g>
     <g id="text_21">
      <!-- 200 -->
      <g transform="translate(364.342363 1278.916563)scale(0.1 -0.1)">
       <use xlink:href="#DejaVuSans-32"/>
       <use x="63.623047" xlink:href="#DejaVuSans-30"/>
       <use x="127.246094" xlink:href="#DejaVuSans-30"/>
      </g>
     </g>
    </g>
    <g id="xtick_10">
     <g id="line2d_20">
      <g>
       <use style="stroke:#000000;stroke-width:0.8;" x="621.537566" xlink:href="#m8e939397a1" y="1264.318125"/>
      </g>
     </g>
     <g id="text_22">
      <!-- 400 -->
      <g transform="translate(611.993816 1278.916563)scale(0.1 -0.1)">
       <use xlink:href="#DejaVuSans-34"/>
       <use x="63.623047" xlink:href="#DejaVuSans-30"/>
       <use x="127.246094" xlink:href="#DejaVuSans-30"/>
      </g>
     </g>
    </g>
    <g id="xtick_11">
     <g id="line2d_21">
      <g>
       <use style="stroke:#000000;stroke-width:0.8;" x="869.18902" xlink:href="#m8e939397a1" y="1264.318125"/>
      </g>
     </g>
     <g id="text_23">
      <!-- 600 -->
      <g transform="translate(859.64527 1278.916563)scale(0.1 -0.1)">
       <use xlink:href="#DejaVuSans-36"/>
       <use x="63.623047" xlink:href="#DejaVuSans-30"/>
       <use x="127.246094" xlink:href="#DejaVuSans-30"/>
      </g>
     </g>
    </g>
    <g id="xtick_12">
     <g id="line2d_22">
      <g>
       <use style="stroke:#000000;stroke-width:0.8;" x="1116.840473" xlink:href="#m8e939397a1" y="1264.318125"/>
      </g>
     </g>
     <g id="text_24">
      <!-- 800 -->
      <g transform="translate(1107.296723 1278.916563)scale(0.1 -0.1)">
       <use xlink:href="#DejaVuSans-38"/>
       <use x="63.623047" xlink:href="#DejaVuSans-30"/>
       <use x="127.246094" xlink:href="#DejaVuSans-30"/>
      </g>
     </g>
    </g>
    <g id="xtick_13">
     <g id="line2d_23">
      <g>
       <use style="stroke:#000000;stroke-width:0.8;" x="1364.491927" xlink:href="#m8e939397a1" y="1264.318125"/>
      </g>
     </g>
     <g id="text_25">
      <!-- 1000 -->
      <g transform="translate(1351.766927 1278.916563)scale(0.1 -0.1)">
       <use xlink:href="#DejaVuSans-31"/>
       <use x="63.623047" xlink:href="#DejaVuSans-30"/>
       <use x="127.246094" xlink:href="#DejaVuSans-30"/>
       <use x="190.869141" xlink:href="#DejaVuSans-30"/>
      </g>
     </g>
    </g>
    <g id="xtick_14">
     <g id="line2d_24">
      <g>
       <use style="stroke:#000000;stroke-width:0.8;" x="1612.14338" xlink:href="#m8e939397a1" y="1264.318125"/>
      </g>
     </g>
     <g id="text_26">
      <!-- 1200 -->
      <g transform="translate(1599.41838 1278.916563)scale(0.1 -0.1)">
       <use xlink:href="#DejaVuSans-31"/>
       <use x="63.623047" xlink:href="#DejaVuSans-32"/>
       <use x="127.246094" xlink:href="#DejaVuSans-30"/>
       <use x="190.869141" xlink:href="#DejaVuSans-30"/>
      </g>
     </g>
    </g>
    <g id="text_27">
     <!-- frame -->
     <g transform="translate(872.317187 1292.594688)scale(0.1 -0.1)">
      <use xlink:href="#DejaVuSans-66"/>
      <use x="35.205078" xlink:href="#DejaVuSans-72"/>
      <use x="76.318359" xlink:href="#DejaVuSans-61"/>
      <use x="137.597656" xlink:href="#DejaVuSans-6d"/>
      <use x="235.009766" xlink:href="#DejaVuSans-65"/>
     </g>
    </g>
   </g>
   <g id="matplotlib.axis_4">
    <g id="ytick_10">
     <g id="line2d_25">
      <g>
       <use style="stroke:#000000;stroke-width:0.8;" x="50.14375" xlink:href="#m85a635ed3a" y="1238.656968"/>
      </g>
     </g>
     <g id="text_28">
      <!-- 0.0 -->
      <g transform="translate(27.240625 1242.456187)scale(0.1 -0.1)">
       <use xlink:href="#DejaVuSans-30"/>
       <use x="63.623047" xlink:href="#DejaVuSans-2e"/>
       <use x="95.410156" xlink:href="#DejaVuSans-30"/>
      </g>
     </g>
    </g>
    <g id="ytick_11">
     <g id="line2d_26">
      <g>
       <use style="stroke:#000000;stroke-width:0.8;" x="50.14375" xlink:href="#m85a635ed3a" y="1136.01234"/>
      </g>
     </g>
     <g id="text_29">
      <!-- 0.2 -->
      <g transform="translate(27.240625 1139.811559)scale(0.1 -0.1)">
       <use xlink:href="#DejaVuSans-30"/>
       <use x="63.623047" xlink:href="#DejaVuSans-2e"/>
       <use x="95.410156" xlink:href="#DejaVuSans-32"/>
      </g>
     </g>
    </g>
    <g id="ytick_12">
     <g id="line2d_27">
      <g>
       <use style="stroke:#000000;stroke-width:0.8;" x="50.14375" xlink:href="#m85a635ed3a" y="1033.367712"/>
      </g>
     </g>
     <g id="text_30">
      <!-- 0.4 -->
      <g transform="translate(27.240625 1037.166931)scale(0.1 -0.1)">
       <use xlink:href="#DejaVuSans-30"/>
       <use x="63.623047" xlink:href="#DejaVuSans-2e"/>
       <use x="95.410156" xlink:href="#DejaVuSans-34"/>
      </g>
     </g>
    </g>
    <g id="ytick_13">
     <g id="line2d_28">
      <g>
       <use style="stroke:#000000;stroke-width:0.8;" x="50.14375" xlink:href="#m85a635ed3a" y="930.723084"/>
      </g>
     </g>
     <g id="text_31">
      <!-- 0.6 -->
      <g transform="translate(27.240625 934.522302)scale(0.1 -0.1)">
       <use xlink:href="#DejaVuSans-30"/>
       <use x="63.623047" xlink:href="#DejaVuSans-2e"/>
       <use x="95.410156" xlink:href="#DejaVuSans-36"/>
      </g>
     </g>
    </g>
    <g id="ytick_14">
     <g id="line2d_29">
      <g>
       <use style="stroke:#000000;stroke-width:0.8;" x="50.14375" xlink:href="#m85a635ed3a" y="828.078456"/>
      </g>
     </g>
     <g id="text_32">
      <!-- 0.8 -->
      <g transform="translate(27.240625 831.877674)scale(0.1 -0.1)">
       <use xlink:href="#DejaVuSans-30"/>
       <use x="63.623047" xlink:href="#DejaVuSans-2e"/>
       <use x="95.410156" xlink:href="#DejaVuSans-38"/>
      </g>
     </g>
    </g>
    <g id="ytick_15">
     <g id="line2d_30">
      <g>
       <use style="stroke:#000000;stroke-width:0.8;" x="50.14375" xlink:href="#m85a635ed3a" y="725.433827"/>
      </g>
     </g>
     <g id="text_33">
      <!-- 1.0 -->
      <g transform="translate(27.240625 729.233046)scale(0.1 -0.1)">
       <use xlink:href="#DejaVuSans-31"/>
       <use x="63.623047" xlink:href="#DejaVuSans-2e"/>
       <use x="95.410156" xlink:href="#DejaVuSans-30"/>
      </g>
     </g>
    </g>
    <g id="text_34">
     <!-- GCaMP -->
     <g transform="translate(21.160938 999.803991)rotate(-90)scale(0.1 -0.1)">
      <use xlink:href="#DejaVuSans-47"/>
      <use x="77.490234" xlink:href="#DejaVuSans-43"/>
      <use x="147.314453" xlink:href="#DejaVuSans-61"/>
      <use x="208.59375" xlink:href="#DejaVuSans-4d"/>
      <use x="294.873047" xlink:href="#DejaVuSans-50"/>
     </g>
    </g>
   </g>
   <g id="line2d_31">
    <path clip-path="url(#p6e94539c35)" d="M 126.234659 1238.656968 
L 1047.498066 1238.656968 
L 1048.736323 725.433827 
L 1051.212838 725.433827 
L 1052.451095 1238.656968 
L 1058.642382 1238.656968 
L 1059.880639 725.433827 
L 1077.216241 725.433827 
L 1078.454498 1238.656968 
L 1082.16927 1238.656968 
L 1083.407527 725.433827 
L 1264.193088 725.433827 
L 1265.431345 1238.656968 
L 1276.575661 1238.656968 
L 1277.813918 725.433827 
L 1281.52869 725.433827 
L 1282.766947 1238.656968 
L 1314.961636 1238.656968 
L 1316.199893 725.433827 
L 1323.629437 725.433827 
L 1324.867694 1238.656968 
L 1334.773752 1238.656968 
L 1336.012009 725.433827 
L 1339.726781 725.433827 
L 1340.965039 1238.656968 
L 1350.871097 1238.656968 
L 1352.109354 725.433827 
L 1360.777155 725.433827 
L 1362.015412 1238.656968 
L 1479.649853 1238.656968 
L 1480.88811 725.433827 
L 1483.364624 725.433827 
L 1484.602882 1238.656968 
L 1494.50894 1238.656968 
L 1495.747197 725.433827 
L 1519.274085 725.433827 
L 1520.512342 1238.656968 
L 1526.703629 1238.656968 
L 1527.941886 725.433827 
L 1530.4184 725.433827 
L 1531.656658 1238.656968 
L 1536.609687 1238.656968 
L 1537.847944 725.433827 
L 1544.03923 725.433827 
L 1545.277488 1238.656968 
L 1547.754002 1238.656968 
L 1548.99226 725.433827 
L 1610.905123 725.433827 
L 1612.14338 1238.656968 
L 1613.381637 725.433827 
L 1648.052841 725.433827 
L 1648.052841 725.433827 
" style="fill:none;stroke:#008000;stroke-linecap:square;stroke-width:1.5;"/>
   </g>
   <g id="patch_8">
    <path d="M 50.14375 1264.318125 
L 50.14375 699.77267 
" style="fill:none;stroke:#000000;stroke-linecap:square;stroke-linejoin:miter;stroke-width:0.8;"/>
   </g>
   <g id="patch_9">
    <path d="M 1724.14375 1264.318125 
L 1724.14375 699.77267 
" style="fill:none;stroke:#000000;stroke-linecap:square;stroke-linejoin:miter;stroke-width:0.8;"/>
   </g>
   <g id="patch_10">
    <path d="M 50.14375 1264.318125 
L 1724.14375 1264.318125 
" style="fill:none;stroke:#000000;stroke-linecap:square;stroke-linejoin:miter;stroke-width:0.8;"/>
   </g>
   <g id="patch_11">
    <path d="M 50.14375 699.77267 
L 1724.14375 699.77267 
" style="fill:none;stroke:#000000;stroke-linecap:square;stroke-linejoin:miter;stroke-width:0.8;"/>
   </g>
   <g id="text_35">
    <!-- before binarisation -->
    <g transform="translate(830.545 693.77267)scale(0.12 -0.12)">
     <use xlink:href="#DejaVuSans-62"/>
     <use x="63.476562" xlink:href="#DejaVuSans-65"/>
     <use x="125" xlink:href="#DejaVuSans-66"/>
     <use x="160.205078" xlink:href="#DejaVuSans-6f"/>
     <use x="221.386719" xlink:href="#DejaVuSans-72"/>
     <use x="260.25" xlink:href="#DejaVuSans-65"/>
     <use x="321.773438" xlink:href="#DejaVuSans-20"/>
     <use x="353.560547" xlink:href="#DejaVuSans-62"/>
     <use x="417.037109" xlink:href="#DejaVuSans-69"/>
     <use x="444.820312" xlink:href="#DejaVuSans-6e"/>
     <use x="508.199219" xlink:href="#DejaVuSans-61"/>
     <use x="569.478516" xlink:href="#DejaVuSans-72"/>
     <use x="610.591797" xlink:href="#DejaVuSans-69"/>
     <use x="638.375" xlink:href="#DejaVuSans-73"/>
     <use x="690.474609" xlink:href="#DejaVuSans-61"/>
     <use x="751.753906" xlink:href="#DejaVuSans-74"/>
     <use x="790.962891" xlink:href="#DejaVuSans-69"/>
     <use x="818.746094" xlink:href="#DejaVuSans-6f"/>
     <use x="879.927734" xlink:href="#DejaVuSans-6e"/>
    </g>
   </g>
  </g>
 </g>
 <defs>
  <clipPath id="p5cd211a607">
   <rect height="564.545455" width="1674" x="50.14375" y="22.318125"/>
  </clipPath>
  <clipPath id="p6e94539c35">
   <rect height="564.545455" width="1674" x="50.14375" y="699.77267"/>
  </clipPath>
 </defs>
</svg>
