<?xml version="1.0" encoding="utf-8" standalone="no"?>
<!DOCTYPE svg PUBLIC "-//W3C//DTD SVG 1.1//EN"
  "http://www.w3.org/Graphics/SVG/1.1/DTD/svg11.dtd">
<svg height="1301.874375pt" version="1.1" viewBox="0 0 1724.98125 1301.874375" width="1724.98125pt" xmlns="http://www.w3.org/2000/svg" xmlns:xlink="http://www.w3.org/1999/xlink">
 <metadata>
  <rdf:RDF xmlns:cc="http://creativecommons.org/ns#" xmlns:dc="http://purl.org/dc/elements/1.1/" xmlns:rdf="http://www.w3.org/1999/02/22-rdf-syntax-ns#">
   <cc:Work>
    <dc:type rdf:resource="http://purl.org/dc/dcmitype/StillImage"/>
    <dc:date>2022-07-24T15:54:46.878265</dc:date>
    <dc:format>image/svg+xml</dc:format>
    <dc:creator>
     <cc:Agent>
      <dc:title>Matplotlib v3.4.2, https://matplotlib.org/</dc:title>
     </cc:Agent>
    </dc:creator>
   </cc:Work>
  </rdf:RDF>
 </metadata>
 <defs>
  <style type="text/css">*{stroke-linecap:butt;stroke-linejoin:round;}</style>
 </defs>
 <g id="figure_1">
  <g id="patch_1">
   <path d="M 0 1301.874375 
L 1724.98125 1301.874375 
L 1724.98125 0 
L 0 0 
z
" style="fill:#ffffff;"/>
  </g>
  <g id="axes_1">
   <g id="patch_2">
    <path d="M 43.78125 586.86358 
L 1717.78125 586.86358 
L 1717.78125 22.318125 
L 43.78125 22.318125 
z
" style="fill:#ffffff;"/>
   </g>
   <g id="matplotlib.axis_1">
    <g id="xtick_1">
     <g id="line2d_1">
      <defs>
       <path d="M 0 0 
L 0 3.5 
" id="m04c12ec17b" style="stroke:#000000;stroke-width:0.8;"/>
      </defs>
      <g>
       <use style="stroke:#000000;stroke-width:0.8;" x="119.872159" xlink:href="#m04c12ec17b" y="586.86358"/>
      </g>
     </g>
     <g id="text_1">
      <!-- 0 -->
      <g transform="translate(116.690909 601.462017)scale(0.1 -0.1)">
       <defs>
        <path d="M 2034 4250 
Q 1547 4250 1301 3770 
Q 1056 3291 1056 2328 
Q 1056 1369 1301 889 
Q 1547 409 2034 409 
Q 2525 409 2770 889 
Q 3016 1369 3016 2328 
Q 3016 3291 2770 3770 
Q 2525 4250 2034 4250 
z
M 2034 4750 
Q 2819 4750 3233 4129 
Q 3647 3509 3647 2328 
Q 3647 1150 3233 529 
Q 2819 -91 2034 -91 
Q 1250 -91 836 529 
Q 422 1150 422 2328 
Q 422 3509 836 4129 
Q 1250 4750 2034 4750 
z
" id="DejaVuSans-30" transform="scale(0.015625)"/>
       </defs>
       <use xlink:href="#DejaVuSans-30"/>
      </g>
     </g>
    </g>
    <g id="xtick_2">
     <g id="line2d_2">
      <g>
       <use style="stroke:#000000;stroke-width:0.8;" x="367.523613" xlink:href="#m04c12ec17b" y="586.86358"/>
      </g>
     </g>
     <g id="text_2">
      <!-- 200 -->
      <g transform="translate(357.979863 601.462017)scale(0.1 -0.1)">
       <defs>
        <path d="M 1228 531 
L 3431 531 
L 3431 0 
L 469 0 
L 469 531 
Q 828 903 1448 1529 
Q 2069 2156 2228 2338 
Q 2531 2678 2651 2914 
Q 2772 3150 2772 3378 
Q 2772 3750 2511 3984 
Q 2250 4219 1831 4219 
Q 1534 4219 1204 4116 
Q 875 4013 500 3803 
L 500 4441 
Q 881 4594 1212 4672 
Q 1544 4750 1819 4750 
Q 2544 4750 2975 4387 
Q 3406 4025 3406 3419 
Q 3406 3131 3298 2873 
Q 3191 2616 2906 2266 
Q 2828 2175 2409 1742 
Q 1991 1309 1228 531 
z
" id="DejaVuSans-32" transform="scale(0.015625)"/>
       </defs>
       <use xlink:href="#DejaVuSans-32"/>
       <use x="63.623047" xlink:href="#DejaVuSans-30"/>
       <use x="127.246094" xlink:href="#DejaVuSans-30"/>
      </g>
     </g>
    </g>
    <g id="xtick_3">
     <g id="line2d_3">
      <g>
       <use style="stroke:#000000;stroke-width:0.8;" x="615.175066" xlink:href="#m04c12ec17b" y="586.86358"/>
      </g>
     </g>
     <g id="text_3">
      <!-- 400 -->
      <g transform="translate(605.631316 601.462017)scale(0.1 -0.1)">
       <defs>
        <path d="M 2419 4116 
L 825 1625 
L 2419 1625 
L 2419 4116 
z
M 2253 4666 
L 3047 4666 
L 3047 1625 
L 3713 1625 
L 3713 1100 
L 3047 1100 
L 3047 0 
L 2419 0 
L 2419 1100 
L 313 1100 
L 313 1709 
L 2253 4666 
z
" id="DejaVuSans-34" transform="scale(0.015625)"/>
       </defs>
       <use xlink:href="#DejaVuSans-34"/>
       <use x="63.623047" xlink:href="#DejaVuSans-30"/>
       <use x="127.246094" xlink:href="#DejaVuSans-30"/>
      </g>
     </g>
    </g>
    <g id="xtick_4">
     <g id="line2d_4">
      <g>
       <use style="stroke:#000000;stroke-width:0.8;" x="862.82652" xlink:href="#m04c12ec17b" y="586.86358"/>
      </g>
     </g>
     <g id="text_4">
      <!-- 600 -->
      <g transform="translate(853.28277 601.462017)scale(0.1 -0.1)">
       <defs>
        <path d="M 2113 2584 
Q 1688 2584 1439 2293 
Q 1191 2003 1191 1497 
Q 1191 994 1439 701 
Q 1688 409 2113 409 
Q 2538 409 2786 701 
Q 3034 994 3034 1497 
Q 3034 2003 2786 2293 
Q 2538 2584 2113 2584 
z
M 3366 4563 
L 3366 3988 
Q 3128 4100 2886 4159 
Q 2644 4219 2406 4219 
Q 1781 4219 1451 3797 
Q 1122 3375 1075 2522 
Q 1259 2794 1537 2939 
Q 1816 3084 2150 3084 
Q 2853 3084 3261 2657 
Q 3669 2231 3669 1497 
Q 3669 778 3244 343 
Q 2819 -91 2113 -91 
Q 1303 -91 875 529 
Q 447 1150 447 2328 
Q 447 3434 972 4092 
Q 1497 4750 2381 4750 
Q 2619 4750 2861 4703 
Q 3103 4656 3366 4563 
z
" id="DejaVuSans-36" transform="scale(0.015625)"/>
       </defs>
       <use xlink:href="#DejaVuSans-36"/>
       <use x="63.623047" xlink:href="#DejaVuSans-30"/>
       <use x="127.246094" xlink:href="#DejaVuSans-30"/>
      </g>
     </g>
    </g>
    <g id="xtick_5">
     <g id="line2d_5">
      <g>
       <use style="stroke:#000000;stroke-width:0.8;" x="1110.477973" xlink:href="#m04c12ec17b" y="586.86358"/>
      </g>
     </g>
     <g id="text_5">
      <!-- 800 -->
      <g transform="translate(1100.934223 601.462017)scale(0.1 -0.1)">
       <defs>
        <path d="M 2034 2216 
Q 1584 2216 1326 1975 
Q 1069 1734 1069 1313 
Q 1069 891 1326 650 
Q 1584 409 2034 409 
Q 2484 409 2743 651 
Q 3003 894 3003 1313 
Q 3003 1734 2745 1975 
Q 2488 2216 2034 2216 
z
M 1403 2484 
Q 997 2584 770 2862 
Q 544 3141 544 3541 
Q 544 4100 942 4425 
Q 1341 4750 2034 4750 
Q 2731 4750 3128 4425 
Q 3525 4100 3525 3541 
Q 3525 3141 3298 2862 
Q 3072 2584 2669 2484 
Q 3125 2378 3379 2068 
Q 3634 1759 3634 1313 
Q 3634 634 3220 271 
Q 2806 -91 2034 -91 
Q 1263 -91 848 271 
Q 434 634 434 1313 
Q 434 1759 690 2068 
Q 947 2378 1403 2484 
z
M 1172 3481 
Q 1172 3119 1398 2916 
Q 1625 2713 2034 2713 
Q 2441 2713 2670 2916 
Q 2900 3119 2900 3481 
Q 2900 3844 2670 4047 
Q 2441 4250 2034 4250 
Q 1625 4250 1398 4047 
Q 1172 3844 1172 3481 
z
" id="DejaVuSans-38" transform="scale(0.015625)"/>
       </defs>
       <use xlink:href="#DejaVuSans-38"/>
       <use x="63.623047" xlink:href="#DejaVuSans-30"/>
       <use x="127.246094" xlink:href="#DejaVuSans-30"/>
      </g>
     </g>
    </g>
    <g id="xtick_6">
     <g id="line2d_6">
      <g>
       <use style="stroke:#000000;stroke-width:0.8;" x="1358.129427" xlink:href="#m04c12ec17b" y="586.86358"/>
      </g>
     </g>
     <g id="text_6">
      <!-- 1000 -->
      <g transform="translate(1345.404427 601.462017)scale(0.1 -0.1)">
       <defs>
        <path d="M 794 531 
L 1825 531 
L 1825 4091 
L 703 3866 
L 703 4441 
L 1819 4666 
L 2450 4666 
L 2450 531 
L 3481 531 
L 3481 0 
L 794 0 
L 794 531 
z
" id="DejaVuSans-31" transform="scale(0.015625)"/>
       </defs>
       <use xlink:href="#DejaVuSans-31"/>
       <use x="63.623047" xlink:href="#DejaVuSans-30"/>
       <use x="127.246094" xlink:href="#DejaVuSans-30"/>
       <use x="190.869141" xlink:href="#DejaVuSans-30"/>
      </g>
     </g>
    </g>
    <g id="xtick_7">
     <g id="line2d_7">
      <g>
       <use style="stroke:#000000;stroke-width:0.8;" x="1605.78088" xlink:href="#m04c12ec17b" y="586.86358"/>
      </g>
     </g>
     <g id="text_7">
      <!-- 1200 -->
      <g transform="translate(1593.05588 601.462017)scale(0.1 -0.1)">
       <use xlink:href="#DejaVuSans-31"/>
       <use x="63.623047" xlink:href="#DejaVuSans-32"/>
       <use x="127.246094" xlink:href="#DejaVuSans-30"/>
       <use x="190.869141" xlink:href="#DejaVuSans-30"/>
      </g>
     </g>
    </g>
    <g id="text_8">
     <!-- frame -->
     <g transform="translate(865.954687 615.140142)scale(0.1 -0.1)">
      <defs>
       <path d="M 2375 4863 
L 2375 4384 
L 1825 4384 
Q 1516 4384 1395 4259 
Q 1275 4134 1275 3809 
L 1275 3500 
L 2222 3500 
L 2222 3053 
L 1275 3053 
L 1275 0 
L 697 0 
L 697 3053 
L 147 3053 
L 147 3500 
L 697 3500 
L 697 3744 
Q 697 4328 969 4595 
Q 1241 4863 1831 4863 
L 2375 4863 
z
" id="DejaVuSans-66" transform="scale(0.015625)"/>
       <path d="M 2631 2963 
Q 2534 3019 2420 3045 
Q 2306 3072 2169 3072 
Q 1681 3072 1420 2755 
Q 1159 2438 1159 1844 
L 1159 0 
L 581 0 
L 581 3500 
L 1159 3500 
L 1159 2956 
Q 1341 3275 1631 3429 
Q 1922 3584 2338 3584 
Q 2397 3584 2469 3576 
Q 2541 3569 2628 3553 
L 2631 2963 
z
" id="DejaVuSans-72" transform="scale(0.015625)"/>
       <path d="M 2194 1759 
Q 1497 1759 1228 1600 
Q 959 1441 959 1056 
Q 959 750 1161 570 
Q 1363 391 1709 391 
Q 2188 391 2477 730 
Q 2766 1069 2766 1631 
L 2766 1759 
L 2194 1759 
z
M 3341 1997 
L 3341 0 
L 2766 0 
L 2766 531 
Q 2569 213 2275 61 
Q 1981 -91 1556 -91 
Q 1019 -91 701 211 
Q 384 513 384 1019 
Q 384 1609 779 1909 
Q 1175 2209 1959 2209 
L 2766 2209 
L 2766 2266 
Q 2766 2663 2505 2880 
Q 2244 3097 1772 3097 
Q 1472 3097 1187 3025 
Q 903 2953 641 2809 
L 641 3341 
Q 956 3463 1253 3523 
Q 1550 3584 1831 3584 
Q 2591 3584 2966 3190 
Q 3341 2797 3341 1997 
z
" id="DejaVuSans-61" transform="scale(0.015625)"/>
       <path d="M 3328 2828 
Q 3544 3216 3844 3400 
Q 4144 3584 4550 3584 
Q 5097 3584 5394 3201 
Q 5691 2819 5691 2113 
L 5691 0 
L 5113 0 
L 5113 2094 
Q 5113 2597 4934 2840 
Q 4756 3084 4391 3084 
Q 3944 3084 3684 2787 
Q 3425 2491 3425 1978 
L 3425 0 
L 2847 0 
L 2847 2094 
Q 2847 2600 2669 2842 
Q 2491 3084 2119 3084 
Q 1678 3084 1418 2786 
Q 1159 2488 1159 1978 
L 1159 0 
L 581 0 
L 581 3500 
L 1159 3500 
L 1159 2956 
Q 1356 3278 1631 3431 
Q 1906 3584 2284 3584 
Q 2666 3584 2933 3390 
Q 3200 3197 3328 2828 
z
" id="DejaVuSans-6d" transform="scale(0.015625)"/>
       <path d="M 3597 1894 
L 3597 1613 
L 953 1613 
Q 991 1019 1311 708 
Q 1631 397 2203 397 
Q 2534 397 2845 478 
Q 3156 559 3463 722 
L 3463 178 
Q 3153 47 2828 -22 
Q 2503 -91 2169 -91 
Q 1331 -91 842 396 
Q 353 884 353 1716 
Q 353 2575 817 3079 
Q 1281 3584 2069 3584 
Q 2775 3584 3186 3129 
Q 3597 2675 3597 1894 
z
M 3022 2063 
Q 3016 2534 2758 2815 
Q 2500 3097 2075 3097 
Q 1594 3097 1305 2825 
Q 1016 2553 972 2059 
L 3022 2063 
z
" id="DejaVuSans-65" transform="scale(0.015625)"/>
      </defs>
      <use xlink:href="#DejaVuSans-66"/>
      <use x="35.205078" xlink:href="#DejaVuSans-72"/>
      <use x="76.318359" xlink:href="#DejaVuSans-61"/>
      <use x="137.597656" xlink:href="#DejaVuSans-6d"/>
      <use x="235.009766" xlink:href="#DejaVuSans-65"/>
     </g>
    </g>
   </g>
   <g id="matplotlib.axis_2">
    <g id="ytick_1">
     <g id="line2d_8">
      <defs>
       <path d="M 0 0 
L -3.5 0 
" id="ma3fbcd4fbb" style="stroke:#000000;stroke-width:0.8;"/>
      </defs>
      <g>
       <use style="stroke:#000000;stroke-width:0.8;" x="43.78125" xlink:href="#ma3fbcd4fbb" y="561.202423"/>
      </g>
     </g>
     <g id="text_9">
      <!-- 0.0 -->
      <g transform="translate(20.878125 565.001641)scale(0.1 -0.1)">
       <defs>
        <path d="M 684 794 
L 1344 794 
L 1344 0 
L 684 0 
L 684 794 
z
" id="DejaVuSans-2e" transform="scale(0.015625)"/>
       </defs>
       <use xlink:href="#DejaVuSans-30"/>
       <use x="63.623047" xlink:href="#DejaVuSans-2e"/>
       <use x="95.410156" xlink:href="#DejaVuSans-30"/>
      </g>
     </g>
    </g>
    <g id="ytick_2">
     <g id="line2d_9">
      <g>
       <use style="stroke:#000000;stroke-width:0.8;" x="43.78125" xlink:href="#ma3fbcd4fbb" y="473.457296"/>
      </g>
     </g>
     <g id="text_10">
      <!-- 0.5 -->
      <g transform="translate(20.878125 477.256515)scale(0.1 -0.1)">
       <defs>
        <path d="M 691 4666 
L 3169 4666 
L 3169 4134 
L 1269 4134 
L 1269 2991 
Q 1406 3038 1543 3061 
Q 1681 3084 1819 3084 
Q 2600 3084 3056 2656 
Q 3513 2228 3513 1497 
Q 3513 744 3044 326 
Q 2575 -91 1722 -91 
Q 1428 -91 1123 -41 
Q 819 9 494 109 
L 494 744 
Q 775 591 1075 516 
Q 1375 441 1709 441 
Q 2250 441 2565 725 
Q 2881 1009 2881 1497 
Q 2881 1984 2565 2268 
Q 2250 2553 1709 2553 
Q 1456 2553 1204 2497 
Q 953 2441 691 2322 
L 691 4666 
z
" id="DejaVuSans-35" transform="scale(0.015625)"/>
       </defs>
       <use xlink:href="#DejaVuSans-30"/>
       <use x="63.623047" xlink:href="#DejaVuSans-2e"/>
       <use x="95.410156" xlink:href="#DejaVuSans-35"/>
      </g>
     </g>
    </g>
    <g id="ytick_3">
     <g id="line2d_10">
      <g>
       <use style="stroke:#000000;stroke-width:0.8;" x="43.78125" xlink:href="#ma3fbcd4fbb" y="385.71217"/>
      </g>
     </g>
     <g id="text_11">
      <!-- 1.0 -->
      <g transform="translate(20.878125 389.511389)scale(0.1 -0.1)">
       <use xlink:href="#DejaVuSans-31"/>
       <use x="63.623047" xlink:href="#DejaVuSans-2e"/>
       <use x="95.410156" xlink:href="#DejaVuSans-30"/>
      </g>
     </g>
    </g>
    <g id="ytick_4">
     <g id="line2d_11">
      <g>
       <use style="stroke:#000000;stroke-width:0.8;" x="43.78125" xlink:href="#ma3fbcd4fbb" y="297.967044"/>
      </g>
     </g>
     <g id="text_12">
      <!-- 1.5 -->
      <g transform="translate(20.878125 301.766263)scale(0.1 -0.1)">
       <use xlink:href="#DejaVuSans-31"/>
       <use x="63.623047" xlink:href="#DejaVuSans-2e"/>
       <use x="95.410156" xlink:href="#DejaVuSans-35"/>
      </g>
     </g>
    </g>
    <g id="ytick_5">
     <g id="line2d_12">
      <g>
       <use style="stroke:#000000;stroke-width:0.8;" x="43.78125" xlink:href="#ma3fbcd4fbb" y="210.221918"/>
      </g>
     </g>
     <g id="text_13">
      <!-- 2.0 -->
      <g transform="translate(20.878125 214.021136)scale(0.1 -0.1)">
       <use xlink:href="#DejaVuSans-32"/>
       <use x="63.623047" xlink:href="#DejaVuSans-2e"/>
       <use x="95.410156" xlink:href="#DejaVuSans-30"/>
      </g>
     </g>
    </g>
    <g id="ytick_6">
     <g id="line2d_13">
      <g>
       <use style="stroke:#000000;stroke-width:0.8;" x="43.78125" xlink:href="#ma3fbcd4fbb" y="122.476791"/>
      </g>
     </g>
     <g id="text_14">
      <!-- 2.5 -->
      <g transform="translate(20.878125 126.27601)scale(0.1 -0.1)">
       <use xlink:href="#DejaVuSans-32"/>
       <use x="63.623047" xlink:href="#DejaVuSans-2e"/>
       <use x="95.410156" xlink:href="#DejaVuSans-35"/>
      </g>
     </g>
    </g>
    <g id="ytick_7">
     <g id="line2d_14">
      <g>
       <use style="stroke:#000000;stroke-width:0.8;" x="43.78125" xlink:href="#ma3fbcd4fbb" y="34.731665"/>
      </g>
     </g>
     <g id="text_15">
      <!-- 3.0 -->
      <g transform="translate(20.878125 38.530884)scale(0.1 -0.1)">
       <defs>
        <path d="M 2597 2516 
Q 3050 2419 3304 2112 
Q 3559 1806 3559 1356 
Q 3559 666 3084 287 
Q 2609 -91 1734 -91 
Q 1441 -91 1130 -33 
Q 819 25 488 141 
L 488 750 
Q 750 597 1062 519 
Q 1375 441 1716 441 
Q 2309 441 2620 675 
Q 2931 909 2931 1356 
Q 2931 1769 2642 2001 
Q 2353 2234 1838 2234 
L 1294 2234 
L 1294 2753 
L 1863 2753 
Q 2328 2753 2575 2939 
Q 2822 3125 2822 3475 
Q 2822 3834 2567 4026 
Q 2313 4219 1838 4219 
Q 1578 4219 1281 4162 
Q 984 4106 628 3988 
L 628 4550 
Q 988 4650 1302 4700 
Q 1616 4750 1894 4750 
Q 2613 4750 3031 4423 
Q 3450 4097 3450 3541 
Q 3450 3153 3228 2886 
Q 3006 2619 2597 2516 
z
" id="DejaVuSans-33" transform="scale(0.015625)"/>
       </defs>
       <use xlink:href="#DejaVuSans-33"/>
       <use x="63.623047" xlink:href="#DejaVuSans-2e"/>
       <use x="95.410156" xlink:href="#DejaVuSans-30"/>
      </g>
     </g>
    </g>
    <g id="text_16">
     <!-- GCaMP -->
     <g transform="translate(14.798437 322.349446)rotate(-90)scale(0.1 -0.1)">
      <defs>
       <path d="M 3809 666 
L 3809 1919 
L 2778 1919 
L 2778 2438 
L 4434 2438 
L 4434 434 
Q 4069 175 3628 42 
Q 3188 -91 2688 -91 
Q 1594 -91 976 548 
Q 359 1188 359 2328 
Q 359 3472 976 4111 
Q 1594 4750 2688 4750 
Q 3144 4750 3555 4637 
Q 3966 4525 4313 4306 
L 4313 3634 
Q 3963 3931 3569 4081 
Q 3175 4231 2741 4231 
Q 1884 4231 1454 3753 
Q 1025 3275 1025 2328 
Q 1025 1384 1454 906 
Q 1884 428 2741 428 
Q 3075 428 3337 486 
Q 3600 544 3809 666 
z
" id="DejaVuSans-47" transform="scale(0.015625)"/>
       <path d="M 4122 4306 
L 4122 3641 
Q 3803 3938 3442 4084 
Q 3081 4231 2675 4231 
Q 1875 4231 1450 3742 
Q 1025 3253 1025 2328 
Q 1025 1406 1450 917 
Q 1875 428 2675 428 
Q 3081 428 3442 575 
Q 3803 722 4122 1019 
L 4122 359 
Q 3791 134 3420 21 
Q 3050 -91 2638 -91 
Q 1578 -91 968 557 
Q 359 1206 359 2328 
Q 359 3453 968 4101 
Q 1578 4750 2638 4750 
Q 3056 4750 3426 4639 
Q 3797 4528 4122 4306 
z
" id="DejaVuSans-43" transform="scale(0.015625)"/>
       <path d="M 628 4666 
L 1569 4666 
L 2759 1491 
L 3956 4666 
L 4897 4666 
L 4897 0 
L 4281 0 
L 4281 4097 
L 3078 897 
L 2444 897 
L 1241 4097 
L 1241 0 
L 628 0 
L 628 4666 
z
" id="DejaVuSans-4d" transform="scale(0.015625)"/>
       <path d="M 1259 4147 
L 1259 2394 
L 2053 2394 
Q 2494 2394 2734 2622 
Q 2975 2850 2975 3272 
Q 2975 3691 2734 3919 
Q 2494 4147 2053 4147 
L 1259 4147 
z
M 628 4666 
L 2053 4666 
Q 2838 4666 3239 4311 
Q 3641 3956 3641 3272 
Q 3641 2581 3239 2228 
Q 2838 1875 2053 1875 
L 1259 1875 
L 1259 0 
L 628 0 
L 628 4666 
z
" id="DejaVuSans-50" transform="scale(0.015625)"/>
      </defs>
      <use xlink:href="#DejaVuSans-47"/>
      <use x="77.490234" xlink:href="#DejaVuSans-43"/>
      <use x="147.314453" xlink:href="#DejaVuSans-61"/>
      <use x="208.59375" xlink:href="#DejaVuSans-4d"/>
      <use x="294.873047" xlink:href="#DejaVuSans-50"/>
     </g>
    </g>
   </g>
   <g id="line2d_15">
    <path clip-path="url(#pd7fab48976)" d="M 119.872159 446.114659 
L 122.348674 453.971398 
L 123.586931 456.909029 
L 124.825188 457.948026 
L 126.063445 455.716188 
L 127.301703 448.447836 
L 128.53996 434.741258 
L 131.016474 393.854029 
L 132.254732 379.364784 
L 133.492989 379.070895 
L 134.731246 392.506662 
L 135.969504 411.736464 
L 137.207761 428.829902 
L 138.446018 440.649749 
L 139.684275 447.784125 
L 140.922533 451.916391 
L 142.16079 454.379654 
L 143.399047 455.774003 
L 144.637304 456.283225 
L 145.875562 456.104129 
L 147.113819 455.470067 
L 149.590334 453.624107 
L 152.066848 451.532499 
L 153.305105 450.458138 
L 154.543363 449.687111 
L 155.78162 449.443149 
L 157.019877 449.706571 
L 158.258134 450.096686 
L 159.496392 450.107687 
L 160.734649 449.52953 
L 164.449421 446.532455 
L 165.687678 446.722378 
L 166.925935 448.030019 
L 169.40245 452.316972 
L 170.640707 453.982675 
L 171.878964 454.721417 
L 173.117222 454.573974 
L 174.355479 453.738748 
L 175.593736 452.329577 
L 178.070251 448.88059 
L 179.308508 447.591132 
L 180.546765 446.944281 
L 181.785022 447.020759 
L 183.02328 447.608549 
L 184.261537 448.336358 
L 185.499794 448.899254 
L 186.738052 449.034625 
L 187.976309 448.624807 
L 194.167595 444.880898 
L 195.405852 444.369327 
L 199.120624 443.520461 
L 200.358881 443.111568 
L 201.597139 442.905603 
L 202.835396 442.970071 
L 204.073653 443.298477 
L 205.311911 443.975198 
L 206.550168 444.93803 
L 207.788425 445.703218 
L 209.026682 445.746615 
L 211.503197 444.472164 
L 212.741454 444.115498 
L 213.979711 444.207839 
L 215.217969 444.687623 
L 216.456226 445.330048 
L 217.694483 445.820147 
L 220.170998 446.175784 
L 221.409255 446.763584 
L 222.647512 447.53318 
L 223.88577 447.730282 
L 225.124027 446.890734 
L 226.362284 445.385922 
L 227.600541 444.221351 
L 228.838799 444.145073 
L 230.077056 445.160815 
L 232.55357 448.763336 
L 233.791828 450.090071 
L 235.030085 450.527337 
L 236.268342 450.294764 
L 239.983114 448.726847 
L 241.221371 448.49645 
L 242.459629 448.470471 
L 243.697886 448.253945 
L 244.936143 447.500327 
L 247.412658 445.235911 
L 248.650915 444.555818 
L 249.889172 444.168881 
L 251.127429 443.500277 
L 252.365687 442.178428 
L 253.603944 440.52534 
L 254.842201 439.150915 
L 256.080459 438.288481 
L 257.318716 437.847386 
L 258.556973 437.869523 
L 259.79523 438.520598 
L 261.033488 439.821101 
L 262.271745 441.6989 
L 263.510002 443.926904 
L 264.748259 445.832475 
L 265.986517 446.58645 
L 267.224774 445.854995 
L 268.463031 443.982498 
L 269.701288 441.750043 
L 270.939546 439.957886 
L 272.177803 438.978079 
L 273.41606 438.713272 
L 274.654318 438.960598 
L 275.892575 439.583883 
L 277.130832 440.48509 
L 278.369089 441.634142 
L 280.845604 444.117019 
L 282.083861 444.674841 
L 283.322118 444.223255 
L 284.560376 442.660908 
L 287.03689 437.952291 
L 288.275147 436.273503 
L 289.513405 435.755139 
L 290.751662 436.264856 
L 291.989919 437.039569 
L 293.228177 437.238481 
L 294.466434 436.559426 
L 296.942948 434.040223 
L 298.181206 433.075501 
L 299.419463 432.46737 
L 300.65772 432.264545 
L 301.895977 432.5501 
L 303.134235 433.40287 
L 304.372492 434.797774 
L 305.610749 436.427111 
L 306.849006 437.855381 
L 308.087264 438.902586 
L 309.325521 439.658901 
L 310.563778 440.063414 
L 311.802036 439.8062 
L 313.040293 438.793595 
L 314.27855 437.429918 
L 315.516807 436.405495 
L 316.755065 436.197469 
L 317.993322 436.604476 
L 319.231579 436.845687 
L 320.469836 436.343083 
L 321.708094 435.45952 
L 322.946351 435.158754 
L 324.184608 435.855896 
L 325.422866 436.9408 
L 326.661123 437.404935 
L 327.89938 436.788073 
L 329.137637 435.57687 
L 330.375895 434.678691 
L 331.614152 434.548807 
L 332.852409 434.877073 
L 334.090666 435.054527 
L 335.328924 434.752834 
L 336.567181 433.9942 
L 339.043695 432.043008 
L 340.281953 431.233484 
L 341.52021 430.208481 
L 342.758467 428.41203 
L 343.996725 425.540838 
L 346.473239 418.24155 
L 347.711496 416.453844 
L 348.949754 417.373038 
L 351.426268 422.83623 
L 352.664525 424.791864 
L 353.902783 425.813193 
L 355.14104 425.808183 
L 356.379297 424.793992 
L 357.617554 423.08194 
L 358.855812 421.10595 
L 360.094069 419.541985 
L 361.332326 419.316204 
L 362.570584 420.965839 
L 363.808841 424.211897 
L 365.047098 428.15078 
L 366.285355 431.679068 
L 367.523613 433.872713 
L 368.76187 434.219009 
L 370.000127 432.92075 
L 371.238384 430.921579 
L 372.476642 429.239727 
L 373.714899 428.374635 
L 374.953156 428.299617 
L 376.191413 428.627559 
L 377.429671 428.802725 
L 378.667928 428.37175 
L 379.906185 427.031808 
L 381.144443 424.634277 
L 382.3827 421.632296 
L 383.620957 419.228268 
L 384.859214 418.485882 
L 386.097472 419.457793 
L 388.573986 423.344305 
L 389.812243 424.712209 
L 391.050501 425.169234 
L 392.288758 424.738026 
L 393.527015 423.799523 
L 394.765272 423.139641 
L 396.00353 423.449948 
L 397.241787 424.775031 
L 398.480044 426.765256 
L 400.956559 431.552418 
L 402.194816 433.421432 
L 403.433073 433.855832 
L 404.671331 432.682916 
L 405.909588 430.818565 
L 407.147845 429.334046 
L 408.386102 428.531517 
L 409.62436 428.21795 
L 410.862617 428.253904 
L 412.100874 428.430148 
L 413.339132 428.370165 
L 414.577389 427.878576 
L 415.815646 427.247025 
L 417.053903 427.081201 
L 418.292161 427.599438 
L 419.530418 428.242399 
L 420.768675 428.238924 
L 422.006932 427.27882 
L 423.24519 425.520106 
L 424.483447 423.180857 
L 425.721704 420.224308 
L 426.959961 416.446431 
L 429.436476 406.884007 
L 430.674733 403.53792 
L 431.912991 403.065203 
L 433.151248 404.822101 
L 436.86602 412.44668 
L 438.104277 414.165073 
L 439.342534 414.943656 
L 440.580791 414.912165 
L 441.819049 414.348211 
L 444.295563 412.842636 
L 445.53382 412.46863 
L 446.772078 412.405203 
L 448.010335 412.644898 
L 449.248592 413.340222 
L 450.48685 414.545325 
L 451.725107 415.909737 
L 452.963364 416.860981 
L 454.201621 417.160962 
L 456.678136 417.056097 
L 457.916393 417.516668 
L 460.392908 419.102542 
L 461.631165 419.244575 
L 462.869422 418.687125 
L 464.107679 417.756533 
L 465.345937 417.037765 
L 466.584194 417.053295 
L 467.822451 418.078382 
L 469.060709 419.959425 
L 470.298966 422.055878 
L 471.537223 423.59436 
L 472.77548 424.082632 
L 474.013738 423.482244 
L 475.251995 422.032682 
L 476.490252 419.920447 
L 477.728509 417.196788 
L 480.205024 410.837512 
L 481.443281 408.674792 
L 482.681538 408.243198 
L 483.919796 409.555649 
L 486.39631 413.950857 
L 487.634568 415.000796 
L 488.872825 414.72477 
L 492.587597 411.44428 
L 493.825854 410.952938 
L 495.064111 410.917179 
L 496.302368 411.013716 
L 497.540626 410.755739 
L 498.778883 409.897948 
L 500.01714 408.491736 
L 503.731912 403.30895 
L 504.970169 402.592189 
L 506.208427 402.95985 
L 507.446684 404.319893 
L 509.923198 408.332863 
L 511.161456 409.953233 
L 512.399713 410.8429 
L 513.63797 410.999638 
L 514.876227 410.805616 
L 516.114485 410.846338 
L 517.352742 411.434502 
L 518.590999 412.177835 
L 519.829257 412.278953 
L 521.067514 411.332981 
L 523.544028 407.946603 
L 524.782286 407.162089 
L 526.020543 407.633954 
L 527.2588 409.005713 
L 528.497057 410.565104 
L 529.735315 411.75341 
L 530.973572 412.474324 
L 532.211829 412.937487 
L 533.450086 413.092881 
L 534.688344 412.61952 
L 535.926601 411.657596 
L 537.164858 410.860506 
L 538.403116 410.557831 
L 539.641373 410.447881 
L 540.87963 410.155597 
L 543.356145 409.126665 
L 544.594402 408.354772 
L 545.832659 407.231695 
L 548.309174 404.711052 
L 549.547431 403.787438 
L 550.785688 403.392165 
L 552.023945 403.635085 
L 553.262203 404.209845 
L 554.50046 404.410524 
L 555.738717 403.702937 
L 558.215232 401.003407 
L 559.453489 400.733452 
L 560.691746 401.792616 
L 561.930004 403.742809 
L 564.406518 408.022914 
L 565.644775 409.536798 
L 566.883033 409.983151 
L 568.12129 408.743552 
L 569.359547 405.643912 
L 570.597804 401.519945 
L 571.836062 397.834576 
L 573.074319 395.690676 
L 574.312576 395.357353 
L 575.550834 396.510346 
L 576.789091 398.633007 
L 578.027348 401.109863 
L 579.265605 403.141568 
L 580.503863 404.01271 
L 581.74212 403.415229 
L 582.980377 401.301807 
L 584.218634 397.886148 
L 585.456892 393.997182 
L 586.695149 390.925304 
L 587.933406 389.673308 
L 589.171663 390.443586 
L 591.648178 394.918928 
L 592.886435 396.381251 
L 594.124693 396.928455 
L 595.36295 397.310985 
L 596.601207 398.330508 
L 597.839464 400.265298 
L 601.554236 407.827843 
L 602.792493 408.49369 
L 604.030751 407.29156 
L 605.269008 404.701531 
L 607.745523 398.306066 
L 610.222037 392.862381 
L 611.460294 390.484483 
L 612.698552 389.031483 
L 613.936809 388.872523 
L 615.175066 389.550564 
L 616.413323 390.795594 
L 617.651581 392.910765 
L 620.128095 398.778775 
L 621.366352 400.713937 
L 622.60461 401.521278 
L 623.842867 401.972134 
L 625.081124 402.944545 
L 627.557639 406.311987 
L 628.795896 407.555847 
L 630.034153 408.163695 
L 631.272411 407.813511 
L 632.510668 406.28933 
L 633.748925 404.305165 
L 634.987182 403.051524 
L 636.22544 403.136993 
L 637.463697 404.444074 
L 638.701954 406.297388 
L 639.940211 407.632244 
L 641.178469 407.727031 
L 642.416726 406.559117 
L 643.654983 404.396764 
L 644.893241 401.742553 
L 646.131498 399.426782 
L 647.369755 398.163258 
L 648.608012 398.039085 
L 649.84627 398.515238 
L 651.084527 398.75137 
L 652.322784 397.747903 
L 653.561041 394.706396 
L 654.799299 389.771093 
L 657.275813 378.550662 
L 658.51407 374.117284 
L 659.752328 371.612904 
L 660.990585 372.106127 
L 663.4671 378.694192 
L 664.705357 379.462482 
L 665.943614 376.804416 
L 668.420129 367.830094 
L 669.658386 364.088673 
L 670.896643 361.373475 
L 672.1349 360.395345 
L 673.373158 361.745854 
L 674.611415 365.378048 
L 677.087929 375.296279 
L 678.326187 378.491044 
L 679.564444 379.243165 
L 680.802701 377.873566 
L 682.040959 375.607113 
L 683.279216 373.940821 
L 684.517473 373.687095 
L 685.75573 374.524129 
L 688.232245 376.695045 
L 689.470502 377.60292 
L 690.708759 378.199285 
L 691.947017 378.30962 
L 693.185274 378.041082 
L 695.661789 377.334539 
L 696.900046 377.387142 
L 698.138303 378.043189 
L 699.37656 379.497125 
L 700.614818 381.946375 
L 703.091332 388.254982 
L 704.329589 390.287163 
L 705.567847 391.102526 
L 706.806104 390.652335 
L 708.044361 388.818891 
L 710.520876 383.518386 
L 711.759133 381.757818 
L 712.99739 381.208558 
L 714.235648 382.180316 
L 716.712162 386.87206 
L 717.950419 388.025019 
L 719.188677 387.809103 
L 720.426934 387.272263 
L 721.665191 387.373689 
L 722.903448 388.319281 
L 724.141706 389.806096 
L 725.379963 391.649868 
L 727.856477 396.251524 
L 729.094735 397.984334 
L 730.332992 398.38112 
L 731.571249 397.064023 
L 732.809507 394.296635 
L 734.047764 391.222845 
L 735.286021 389.305926 
L 736.524278 389.024371 
L 737.762536 389.290642 
L 739.000793 388.587857 
L 740.23905 386.528684 
L 741.477307 384.181902 
L 742.715565 382.966929 
L 743.953822 383.192664 
L 746.430336 384.854628 
L 747.668594 385.484908 
L 748.906851 385.749975 
L 750.145108 385.251334 
L 751.383366 383.894588 
L 753.85988 380.336417 
L 755.098137 379.36585 
L 756.336395 379.897843 
L 757.574652 382.018897 
L 760.051166 387.574676 
L 761.289424 389.501664 
L 762.527681 390.511673 
L 763.765938 390.531519 
L 765.004195 389.446816 
L 766.242453 387.305356 
L 768.718967 382.016217 
L 769.957225 380.139747 
L 771.195482 379.198806 
L 772.433739 378.697315 
L 773.671996 378.0503 
L 774.910254 377.574051 
L 776.148511 378.199678 
L 777.386768 380.613811 
L 778.625025 384.928894 
L 781.10154 396.463366 
L 782.339797 401.043275 
L 783.578054 403.153971 
L 784.816312 402.520926 
L 786.054569 400.064882 
L 787.292826 397.15714 
L 788.531084 394.576098 
L 792.245855 387.627801 
L 793.484113 385.203213 
L 794.72237 383.259033 
L 795.960627 382.014671 
L 797.198884 381.596995 
L 798.437142 382.194993 
L 799.675399 383.797044 
L 800.913656 385.875127 
L 802.151914 387.503199 
L 803.390171 388.092028 
L 804.628428 388.101027 
L 805.866685 388.509658 
L 807.104943 389.589765 
L 808.3432 390.851685 
L 810.819714 392.934498 
L 812.057972 393.854063 
L 813.296229 394.376947 
L 814.534486 394.221179 
L 815.772743 393.719833 
L 817.011001 393.632026 
L 818.249258 394.148993 
L 819.487515 394.50957 
L 820.725773 393.927176 
L 821.96403 392.396856 
L 823.202287 390.559246 
L 824.440544 389.243764 
L 825.678802 388.913286 
L 826.917059 389.196814 
L 828.155316 389.053751 
L 829.393573 387.540271 
L 830.631831 384.544165 
L 831.870088 381.120452 
L 833.108345 379.194676 
L 834.346602 380.261245 
L 836.823117 387.847174 
L 838.061374 389.707498 
L 839.299632 388.668199 
L 840.537889 385.846261 
L 841.776146 383.32858 
L 843.014403 382.77411 
L 844.252661 384.559097 
L 846.729175 391.309197 
L 847.967432 392.912293 
L 849.20569 391.759921 
L 850.443947 388.357584 
L 852.920461 380.066364 
L 854.158719 377.141042 
L 855.396976 375.361275 
L 856.635233 374.492093 
L 857.873491 374.146279 
L 860.350005 373.791232 
L 861.588262 373.146863 
L 862.82652 371.634568 
L 864.064777 369.531481 
L 865.303034 367.907969 
L 866.541291 367.778339 
L 867.779549 369.405035 
L 869.017806 372.515311 
L 870.256063 376.735475 
L 872.732578 385.806656 
L 873.970835 388.731452 
L 875.209092 389.562242 
L 876.44735 387.998317 
L 878.923864 381.146023 
L 880.162121 378.993373 
L 881.400379 378.49989 
L 882.638636 378.72876 
L 883.876893 377.970039 
L 885.11515 375.099727 
L 886.353408 371.054621 
L 887.591665 368.522848 
L 888.829922 369.611639 
L 890.06818 373.855339 
L 891.306437 378.784741 
L 892.544694 382.147842 
L 893.782951 383.598903 
L 895.021209 384.42885 
L 898.73598 387.985073 
L 899.974238 388.381916 
L 901.212495 388.134676 
L 902.450752 387.656248 
L 903.689009 387.731127 
L 904.927267 388.539018 
L 906.165524 389.174844 
L 907.403781 388.620873 
L 909.880296 384.993918 
L 911.118553 384.130636 
L 912.35681 384.71034 
L 913.595068 386.178203 
L 916.071582 389.369977 
L 917.309839 390.563174 
L 918.548097 390.768588 
L 919.786354 389.5446 
L 921.024611 387.092593 
L 924.739383 377.854071 
L 925.97764 374.277472 
L 928.454155 365.779796 
L 929.692412 362.915983 
L 930.930669 362.577102 
L 932.168927 365.320807 
L 933.407184 370.488514 
L 935.883698 382.269345 
L 937.121956 386.481538 
L 938.360213 388.35982 
L 939.59847 387.735983 
L 942.074985 383.319385 
L 943.313242 382.012229 
L 944.551499 381.605171 
L 945.789757 381.709175 
L 948.266271 382.328093 
L 949.504528 381.986303 
L 950.742786 380.940444 
L 951.981043 379.698106 
L 953.2193 378.886745 
L 955.695815 378.364055 
L 956.934072 377.294685 
L 958.172329 374.750899 
L 959.410586 370.754601 
L 960.648844 366.217076 
L 961.887101 362.614796 
L 963.125358 361.333243 
L 964.363616 363.080871 
L 965.601873 367.523025 
L 968.078387 378.724369 
L 969.316645 382.255251 
L 970.554902 383.189098 
L 971.793159 381.58314 
L 973.031416 377.991534 
L 975.507931 368.49585 
L 976.746188 365.428973 
L 977.984446 364.609059 
L 979.222703 365.289262 
L 980.46096 366.708965 
L 981.699217 368.941862 
L 982.937475 372.090229 
L 984.175732 375.63993 
L 985.413989 378.700033 
L 986.652246 380.361857 
L 987.890504 380.281043 
L 989.128761 379.127671 
L 990.367018 378.251107 
L 991.605275 379.093837 
L 992.843533 382.733609 
L 994.08179 389.30819 
L 996.558305 405.853362 
L 997.796562 411.049151 
L 999.034819 410.929295 
L 1000.273076 404.96874 
L 1003.987848 375.48569 
L 1005.226105 370.278317 
L 1006.464363 368.643876 
L 1007.70262 368.998846 
L 1008.940877 369.107251 
L 1010.179134 367.502839 
L 1011.417392 363.841539 
L 1012.655649 358.36627 
L 1013.893906 351.631246 
L 1015.132164 343.645439 
L 1016.370421 332.807889 
L 1017.608678 317.087691 
L 1018.846935 296.482528 
L 1021.32345 251.182498 
L 1022.561707 232.073328 
L 1023.799964 217.144815 
L 1025.038222 206.6937 
L 1026.276479 200.167776 
L 1027.514736 195.174856 
L 1028.752993 188.057715 
L 1029.991251 176.139718 
L 1031.229508 159.230889 
L 1033.706023 120.602872 
L 1034.94428 105.596997 
L 1036.182537 96.628857 
L 1037.420794 93.719714 
L 1038.659052 95.54669 
L 1039.897309 100.748768 
L 1042.373823 113.812098 
L 1043.612081 118.838412 
L 1044.850338 122.681062 
L 1046.088595 125.075086 
L 1047.326852 125.457558 
L 1048.56511 123.399474 
L 1049.803367 119.130716 
L 1051.041624 113.868975 
L 1052.279882 109.537646 
L 1053.518139 108.299179 
L 1054.756396 111.557094 
L 1055.994653 118.917815 
L 1058.471168 136.848083 
L 1059.709425 142.482249 
L 1060.947682 144.59661 
L 1062.18594 143.761787 
L 1064.662454 138.666476 
L 1065.900711 137.64933 
L 1067.138969 139.715878 
L 1068.377226 145.762194 
L 1072.091998 173.842172 
L 1073.330255 181.39205 
L 1075.80677 193.58209 
L 1077.045027 199.653958 
L 1079.521541 213.385483 
L 1080.759799 218.624344 
L 1081.998056 222.831902 
L 1083.236313 228.575294 
L 1084.474571 237.283598 
L 1086.951085 257.599751 
L 1088.189342 264.191602 
L 1089.4276 266.243632 
L 1090.665857 264.562538 
L 1091.904114 261.354732 
L 1093.142371 258.697912 
L 1094.380629 257.871729 
L 1095.618886 258.986478 
L 1096.857143 260.808644 
L 1098.0954 261.612508 
L 1099.333658 260.310858 
L 1100.571915 256.562747 
L 1101.810172 250.235283 
L 1103.04843 241.474562 
L 1105.524944 220.098509 
L 1108.001459 196.182978 
L 1111.71623 157.223691 
L 1112.954488 147.10228 
L 1114.192745 139.763181 
L 1115.431002 135.660549 
L 1116.669259 134.347291 
L 1117.907517 133.567358 
L 1119.145774 130.312052 
L 1120.384031 123.317871 
L 1122.860546 105.109642 
L 1124.098803 98.794332 
L 1125.33706 96.086773 
L 1126.575318 96.849222 
L 1127.813575 100.161709 
L 1129.051832 104.881151 
L 1136.481376 136.785683 
L 1137.719633 140.414859 
L 1138.95789 140.885084 
L 1140.196148 138.193193 
L 1142.672662 129.683456 
L 1143.910919 127.635804 
L 1145.149177 128.536515 
L 1146.387434 131.927589 
L 1147.625691 136.682571 
L 1148.863948 141.91041 
L 1150.102206 146.54462 
L 1151.340463 148.726949 
L 1152.57872 147.18727 
L 1155.055235 138.889117 
L 1156.293492 137.044195 
L 1157.531749 137.17242 
L 1158.770007 137.426456 
L 1160.008264 136.733245 
L 1162.484778 134.260956 
L 1163.723036 132.487418 
L 1164.961293 129.20229 
L 1169.914322 111.223535 
L 1171.152579 104.906626 
L 1172.390837 95.610739 
L 1174.867351 71.251911 
L 1176.105608 62.501501 
L 1177.343866 60.398684 
L 1178.582123 64.935885 
L 1182.296895 89.894205 
L 1183.535152 94.599757 
L 1184.773409 94.228893 
L 1186.011666 87.171968 
L 1188.488181 60.985917 
L 1189.726438 51.246546 
L 1190.964696 47.979282 
L 1192.202953 51.355419 
L 1193.44121 60.540142 
L 1194.679467 74.466138 
L 1195.917725 92.019577 
L 1198.394239 130.406409 
L 1199.632496 145.932196 
L 1200.870754 157.211361 
L 1202.109011 164.406888 
L 1203.347268 167.5603 
L 1204.585525 166.721212 
L 1207.06204 159.107165 
L 1208.300297 157.196083 
L 1209.538555 157.796349 
L 1210.776812 160.214555 
L 1212.015069 163.910004 
L 1213.253326 168.140374 
L 1214.491584 171.458322 
L 1215.729841 172.59739 
L 1216.968098 171.753125 
L 1218.206355 170.675261 
L 1219.444613 170.975867 
L 1221.921127 174.127039 
L 1223.159384 174.439006 
L 1224.397642 172.464715 
L 1225.635899 167.334919 
L 1228.112414 150.992933 
L 1229.350671 145.614605 
L 1230.588928 144.055352 
L 1231.827185 143.85199 
L 1233.065443 141.778135 
L 1234.3037 135.97382 
L 1235.541957 126.239748 
L 1238.018472 102.458654 
L 1239.256729 94.643582 
L 1240.494986 95.425286 
L 1241.733243 107.981036 
L 1244.209758 149.847236 
L 1245.448015 165.549317 
L 1246.686273 175.070246 
L 1247.92453 179.298506 
L 1249.162787 179.713021 
L 1250.401044 178.166244 
L 1251.639302 176.901648 
L 1252.877559 178.563273 
L 1254.115816 184.297173 
L 1255.354073 192.861103 
L 1257.830588 213.357643 
L 1259.068845 223.9765 
L 1260.307103 232.821197 
L 1261.54536 238.216127 
L 1262.783617 240.493945 
L 1264.021874 241.52354 
L 1265.260132 242.183154 
L 1266.498389 241.88363 
L 1267.736646 240.438582 
L 1268.974903 238.75305 
L 1270.213161 237.948101 
L 1271.451418 238.053513 
L 1272.689675 236.974322 
L 1273.927932 232.219591 
L 1276.404447 216.775793 
L 1277.642704 212.219469 
L 1278.880962 211.114692 
L 1280.119219 211.990087 
L 1281.357476 212.222671 
L 1282.595733 210.043541 
L 1283.833991 206.004812 
L 1285.072248 203.021039 
L 1286.310505 204.667969 
L 1287.548762 211.349443 
L 1288.78702 219.288761 
L 1290.025277 224.112681 
L 1291.263534 224.243171 
L 1293.740049 218.212565 
L 1294.978306 216.46174 
L 1296.216563 217.542799 
L 1297.454821 223.623311 
L 1298.693078 234.972882 
L 1299.931335 247.803178 
L 1301.169592 256.884225 
L 1302.40785 258.728599 
L 1303.646107 252.941865 
L 1304.884364 243.295537 
L 1306.122621 235.450127 
L 1307.360879 231.992566 
L 1308.599136 231.459195 
L 1309.837393 231.827362 
L 1311.07565 232.909658 
L 1312.313908 234.722487 
L 1313.552165 235.715515 
L 1314.790422 234.819365 
L 1316.02868 233.473519 
L 1317.266937 234.443712 
L 1318.505194 240.496606 
L 1319.743451 253.416373 
L 1322.219966 290.71395 
L 1323.458223 304.833545 
L 1324.69648 312.440175 
L 1325.934738 314.374671 
L 1327.172995 310.87312 
L 1328.411252 301.18659 
L 1329.649509 285.055424 
L 1330.887767 263.049294 
L 1332.126024 237.993103 
L 1333.364281 217.785873 
L 1334.602539 212.387252 
L 1335.840796 224.571533 
L 1338.31731 268.780431 
L 1339.555568 561.202423 
L 1585.968764 561.202423 
L 1587.207021 328.268496 
L 1588.445278 339.521627 
L 1590.921793 359.675486 
L 1592.16005 369.01047 
L 1593.398307 375.069023 
L 1594.636565 375.958326 
L 1595.874822 372.68169 
L 1597.113079 368.155605 
L 1598.351337 364.818562 
L 1599.589594 363.29156 
L 1600.827851 363.245699 
L 1602.066108 364.245036 
L 1603.304366 364.670451 
L 1604.542623 361.242342 
L 1605.78088 350.722972 
L 1607.019137 331.526421 
L 1608.257395 304.453919 
L 1609.495652 273.795985 
L 1610.733909 247.414057 
L 1611.972166 233.361477 
L 1613.210424 234.878327 
L 1614.448681 249.469659 
L 1615.686938 273.261734 
L 1616.925196 561.202423 
L 1618.163453 335.464148 
L 1619.40171 362.577215 
L 1620.639967 378.230272 
L 1621.878225 378.6766 
L 1623.116482 364.760691 
L 1625.592996 319.612731 
L 1626.831254 303.539415 
L 1628.069511 298.917234 
L 1629.307768 305.615697 
L 1630.546026 317.338091 
L 1631.784283 325.595516 
L 1633.02254 325.745538 
L 1634.260797 319.169795 
L 1635.499055 310.786893 
L 1636.737312 305.488979 
L 1637.975569 305.574114 
L 1639.213826 309.938873 
L 1641.690341 321.902309 
L 1641.690341 321.902309 
" style="fill:none;stroke:#008000;stroke-linecap:square;stroke-width:1.5;"/>
   </g>
   <g id="patch_3">
    <path d="M 43.78125 586.86358 
L 43.78125 22.318125 
" style="fill:none;stroke:#000000;stroke-linecap:square;stroke-linejoin:miter;stroke-width:0.8;"/>
   </g>
   <g id="patch_4">
    <path d="M 1717.78125 586.86358 
L 1717.78125 22.318125 
" style="fill:none;stroke:#000000;stroke-linecap:square;stroke-linejoin:miter;stroke-width:0.8;"/>
   </g>
   <g id="patch_5">
    <path d="M 43.78125 586.86358 
L 1717.78125 586.86358 
" style="fill:none;stroke:#000000;stroke-linecap:square;stroke-linejoin:miter;stroke-width:0.8;"/>
   </g>
   <g id="patch_6">
    <path d="M 43.78125 22.318125 
L 1717.78125 22.318125 
" style="fill:none;stroke:#000000;stroke-linecap:square;stroke-linejoin:miter;stroke-width:0.8;"/>
   </g>
   <g id="text_17">
    <!-- before binarisation -->
    <g transform="translate(824.1825 16.318125)scale(0.12 -0.12)">
     <defs>
      <path d="M 3116 1747 
Q 3116 2381 2855 2742 
Q 2594 3103 2138 3103 
Q 1681 3103 1420 2742 
Q 1159 2381 1159 1747 
Q 1159 1113 1420 752 
Q 1681 391 2138 391 
Q 2594 391 2855 752 
Q 3116 1113 3116 1747 
z
M 1159 2969 
Q 1341 3281 1617 3432 
Q 1894 3584 2278 3584 
Q 2916 3584 3314 3078 
Q 3713 2572 3713 1747 
Q 3713 922 3314 415 
Q 2916 -91 2278 -91 
Q 1894 -91 1617 61 
Q 1341 213 1159 525 
L 1159 0 
L 581 0 
L 581 4863 
L 1159 4863 
L 1159 2969 
z
" id="DejaVuSans-62" transform="scale(0.015625)"/>
      <path d="M 1959 3097 
Q 1497 3097 1228 2736 
Q 959 2375 959 1747 
Q 959 1119 1226 758 
Q 1494 397 1959 397 
Q 2419 397 2687 759 
Q 2956 1122 2956 1747 
Q 2956 2369 2687 2733 
Q 2419 3097 1959 3097 
z
M 1959 3584 
Q 2709 3584 3137 3096 
Q 3566 2609 3566 1747 
Q 3566 888 3137 398 
Q 2709 -91 1959 -91 
Q 1206 -91 779 398 
Q 353 888 353 1747 
Q 353 2609 779 3096 
Q 1206 3584 1959 3584 
z
" id="DejaVuSans-6f" transform="scale(0.015625)"/>
      <path id="DejaVuSans-20" transform="scale(0.015625)"/>
      <path d="M 603 3500 
L 1178 3500 
L 1178 0 
L 603 0 
L 603 3500 
z
M 603 4863 
L 1178 4863 
L 1178 4134 
L 603 4134 
L 603 4863 
z
" id="DejaVuSans-69" transform="scale(0.015625)"/>
      <path d="M 3513 2113 
L 3513 0 
L 2938 0 
L 2938 2094 
Q 2938 2591 2744 2837 
Q 2550 3084 2163 3084 
Q 1697 3084 1428 2787 
Q 1159 2491 1159 1978 
L 1159 0 
L 581 0 
L 581 3500 
L 1159 3500 
L 1159 2956 
Q 1366 3272 1645 3428 
Q 1925 3584 2291 3584 
Q 2894 3584 3203 3211 
Q 3513 2838 3513 2113 
z
" id="DejaVuSans-6e" transform="scale(0.015625)"/>
      <path d="M 2834 3397 
L 2834 2853 
Q 2591 2978 2328 3040 
Q 2066 3103 1784 3103 
Q 1356 3103 1142 2972 
Q 928 2841 928 2578 
Q 928 2378 1081 2264 
Q 1234 2150 1697 2047 
L 1894 2003 
Q 2506 1872 2764 1633 
Q 3022 1394 3022 966 
Q 3022 478 2636 193 
Q 2250 -91 1575 -91 
Q 1294 -91 989 -36 
Q 684 19 347 128 
L 347 722 
Q 666 556 975 473 
Q 1284 391 1588 391 
Q 1994 391 2212 530 
Q 2431 669 2431 922 
Q 2431 1156 2273 1281 
Q 2116 1406 1581 1522 
L 1381 1569 
Q 847 1681 609 1914 
Q 372 2147 372 2553 
Q 372 3047 722 3315 
Q 1072 3584 1716 3584 
Q 2034 3584 2315 3537 
Q 2597 3491 2834 3397 
z
" id="DejaVuSans-73" transform="scale(0.015625)"/>
      <path d="M 1172 4494 
L 1172 3500 
L 2356 3500 
L 2356 3053 
L 1172 3053 
L 1172 1153 
Q 1172 725 1289 603 
Q 1406 481 1766 481 
L 2356 481 
L 2356 0 
L 1766 0 
Q 1100 0 847 248 
Q 594 497 594 1153 
L 594 3053 
L 172 3053 
L 172 3500 
L 594 3500 
L 594 4494 
L 1172 4494 
z
" id="DejaVuSans-74" transform="scale(0.015625)"/>
     </defs>
     <use xlink:href="#DejaVuSans-62"/>
     <use x="63.476562" xlink:href="#DejaVuSans-65"/>
     <use x="125" xlink:href="#DejaVuSans-66"/>
     <use x="160.205078" xlink:href="#DejaVuSans-6f"/>
     <use x="221.386719" xlink:href="#DejaVuSans-72"/>
     <use x="260.25" xlink:href="#DejaVuSans-65"/>
     <use x="321.773438" xlink:href="#DejaVuSans-20"/>
     <use x="353.560547" xlink:href="#DejaVuSans-62"/>
     <use x="417.037109" xlink:href="#DejaVuSans-69"/>
     <use x="444.820312" xlink:href="#DejaVuSans-6e"/>
     <use x="508.199219" xlink:href="#DejaVuSans-61"/>
     <use x="569.478516" xlink:href="#DejaVuSans-72"/>
     <use x="610.591797" xlink:href="#DejaVuSans-69"/>
     <use x="638.375" xlink:href="#DejaVuSans-73"/>
     <use x="690.474609" xlink:href="#DejaVuSans-61"/>
     <use x="751.753906" xlink:href="#DejaVuSans-74"/>
     <use x="790.962891" xlink:href="#DejaVuSans-69"/>
     <use x="818.746094" xlink:href="#DejaVuSans-6f"/>
     <use x="879.927734" xlink:href="#DejaVuSans-6e"/>
    </g>
   </g>
  </g>
  <g id="axes_2">
   <g id="patch_7">
    <path d="M 43.78125 1264.318125 
L 1717.78125 1264.318125 
L 1717.78125 699.77267 
L 43.78125 699.77267 
z
" style="fill:#ffffff;"/>
   </g>
   <g id="matplotlib.axis_3">
    <g id="xtick_8">
     <g id="line2d_16">
      <g>
       <use style="stroke:#000000;stroke-width:0.8;" x="119.872159" xlink:href="#m04c12ec17b" y="1264.318125"/>
      </g>
     </g>
     <g id="text_18">
      <!-- 0 -->
      <g transform="translate(116.690909 1278.916563)scale(0.1 -0.1)">
       <use xlink:href="#DejaVuSans-30"/>
      </g>
     </g>
    </g>
    <g id="xtick_9">
     <g id="line2d_17">
      <g>
       <use style="stroke:#000000;stroke-width:0.8;" x="367.523613" xlink:href="#m04c12ec17b" y="1264.318125"/>
      </g>
     </g>
     <g id="text_19">
      <!-- 200 -->
      <g transform="translate(357.979863 1278.916563)scale(0.1 -0.1)">
       <use xlink:href="#DejaVuSans-32"/>
       <use x="63.623047" xlink:href="#DejaVuSans-30"/>
       <use x="127.246094" xlink:href="#DejaVuSans-30"/>
      </g>
     </g>
    </g>
    <g id="xtick_10">
     <g id="line2d_18">
      <g>
       <use style="stroke:#000000;stroke-width:0.8;" x="615.175066" xlink:href="#m04c12ec17b" y="1264.318125"/>
      </g>
     </g>
     <g id="text_20">
      <!-- 400 -->
      <g transform="translate(605.631316 1278.916563)scale(0.1 -0.1)">
       <use xlink:href="#DejaVuSans-34"/>
       <use x="63.623047" xlink:href="#DejaVuSans-30"/>
       <use x="127.246094" xlink:href="#DejaVuSans-30"/>
      </g>
     </g>
    </g>
    <g id="xtick_11">
     <g id="line2d_19">
      <g>
       <use style="stroke:#000000;stroke-width:0.8;" x="862.82652" xlink:href="#m04c12ec17b" y="1264.318125"/>
      </g>
     </g>
     <g id="text_21">
      <!-- 600 -->
      <g transform="translate(853.28277 1278.916563)scale(0.1 -0.1)">
       <use xlink:href="#DejaVuSans-36"/>
       <use x="63.623047" xlink:href="#DejaVuSans-30"/>
       <use x="127.246094" xlink:href="#DejaVuSans-30"/>
      </g>
     </g>
    </g>
    <g id="xtick_12">
     <g id="line2d_20">
      <g>
       <use style="stroke:#000000;stroke-width:0.8;" x="1110.477973" xlink:href="#m04c12ec17b" y="1264.318125"/>
      </g>
     </g>
     <g id="text_22">
      <!-- 800 -->
      <g transform="translate(1100.934223 1278.916563)scale(0.1 -0.1)">
       <use xlink:href="#DejaVuSans-38"/>
       <use x="63.623047" xlink:href="#DejaVuSans-30"/>
       <use x="127.246094" xlink:href="#DejaVuSans-30"/>
      </g>
     </g>
    </g>
    <g id="xtick_13">
     <g id="line2d_21">
      <g>
       <use style="stroke:#000000;stroke-width:0.8;" x="1358.129427" xlink:href="#m04c12ec17b" y="1264.318125"/>
      </g>
     </g>
     <g id="text_23">
      <!-- 1000 -->
      <g transform="translate(1345.404427 1278.916563)scale(0.1 -0.1)">
       <use xlink:href="#DejaVuSans-31"/>
       <use x="63.623047" xlink:href="#DejaVuSans-30"/>
       <use x="127.246094" xlink:href="#DejaVuSans-30"/>
       <use x="190.869141" xlink:href="#DejaVuSans-30"/>
      </g>
     </g>
    </g>
    <g id="xtick_14">
     <g id="line2d_22">
      <g>
       <use style="stroke:#000000;stroke-width:0.8;" x="1605.78088" xlink:href="#m04c12ec17b" y="1264.318125"/>
      </g>
     </g>
     <g id="text_24">
      <!-- 1200 -->
      <g transform="translate(1593.05588 1278.916563)scale(0.1 -0.1)">
       <use xlink:href="#DejaVuSans-31"/>
       <use x="63.623047" xlink:href="#DejaVuSans-32"/>
       <use x="127.246094" xlink:href="#DejaVuSans-30"/>
       <use x="190.869141" xlink:href="#DejaVuSans-30"/>
      </g>
     </g>
    </g>
    <g id="text_25">
     <!-- frame -->
     <g transform="translate(865.954687 1292.594688)scale(0.1 -0.1)">
      <use xlink:href="#DejaVuSans-66"/>
      <use x="35.205078" xlink:href="#DejaVuSans-72"/>
      <use x="76.318359" xlink:href="#DejaVuSans-61"/>
      <use x="137.597656" xlink:href="#DejaVuSans-6d"/>
      <use x="235.009766" xlink:href="#DejaVuSans-65"/>
     </g>
    </g>
   </g>
   <g id="matplotlib.axis_4">
    <g id="ytick_8">
     <g id="line2d_23">
      <g>
       <use style="stroke:#000000;stroke-width:0.8;" x="43.78125" xlink:href="#ma3fbcd4fbb" y="1238.656968"/>
      </g>
     </g>
     <g id="text_26">
      <!-- 0.0 -->
      <g transform="translate(20.878125 1242.456187)scale(0.1 -0.1)">
       <use xlink:href="#DejaVuSans-30"/>
       <use x="63.623047" xlink:href="#DejaVuSans-2e"/>
       <use x="95.410156" xlink:href="#DejaVuSans-30"/>
      </g>
     </g>
    </g>
    <g id="ytick_9">
     <g id="line2d_24">
      <g>
       <use style="stroke:#000000;stroke-width:0.8;" x="43.78125" xlink:href="#ma3fbcd4fbb" y="1136.01234"/>
      </g>
     </g>
     <g id="text_27">
      <!-- 0.2 -->
      <g transform="translate(20.878125 1139.811559)scale(0.1 -0.1)">
       <use xlink:href="#DejaVuSans-30"/>
       <use x="63.623047" xlink:href="#DejaVuSans-2e"/>
       <use x="95.410156" xlink:href="#DejaVuSans-32"/>
      </g>
     </g>
    </g>
    <g id="ytick_10">
     <g id="line2d_25">
      <g>
       <use style="stroke:#000000;stroke-width:0.8;" x="43.78125" xlink:href="#ma3fbcd4fbb" y="1033.367712"/>
      </g>
     </g>
     <g id="text_28">
      <!-- 0.4 -->
      <g transform="translate(20.878125 1037.166931)scale(0.1 -0.1)">
       <use xlink:href="#DejaVuSans-30"/>
       <use x="63.623047" xlink:href="#DejaVuSans-2e"/>
       <use x="95.410156" xlink:href="#DejaVuSans-34"/>
      </g>
     </g>
    </g>
    <g id="ytick_11">
     <g id="line2d_26">
      <g>
       <use style="stroke:#000000;stroke-width:0.8;" x="43.78125" xlink:href="#ma3fbcd4fbb" y="930.723084"/>
      </g>
     </g>
     <g id="text_29">
      <!-- 0.6 -->
      <g transform="translate(20.878125 934.522302)scale(0.1 -0.1)">
       <use xlink:href="#DejaVuSans-30"/>
       <use x="63.623047" xlink:href="#DejaVuSans-2e"/>
       <use x="95.410156" xlink:href="#DejaVuSans-36"/>
      </g>
     </g>
    </g>
    <g id="ytick_12">
     <g id="line2d_27">
      <g>
       <use style="stroke:#000000;stroke-width:0.8;" x="43.78125" xlink:href="#ma3fbcd4fbb" y="828.078456"/>
      </g>
     </g>
     <g id="text_30">
      <!-- 0.8 -->
      <g transform="translate(20.878125 831.877674)scale(0.1 -0.1)">
       <use xlink:href="#DejaVuSans-30"/>
       <use x="63.623047" xlink:href="#DejaVuSans-2e"/>
       <use x="95.410156" xlink:href="#DejaVuSans-38"/>
      </g>
     </g>
    </g>
    <g id="ytick_13">
     <g id="line2d_28">
      <g>
       <use style="stroke:#000000;stroke-width:0.8;" x="43.78125" xlink:href="#ma3fbcd4fbb" y="725.433827"/>
      </g>
     </g>
     <g id="text_31">
      <!-- 1.0 -->
      <g transform="translate(20.878125 729.233046)scale(0.1 -0.1)">
       <use xlink:href="#DejaVuSans-31"/>
       <use x="63.623047" xlink:href="#DejaVuSans-2e"/>
       <use x="95.410156" xlink:href="#DejaVuSans-30"/>
      </g>
     </g>
    </g>
    <g id="text_32">
     <!-- GCaMP -->
     <g transform="translate(14.798437 999.803991)rotate(-90)scale(0.1 -0.1)">
      <use xlink:href="#DejaVuSans-47"/>
      <use x="77.490234" xlink:href="#DejaVuSans-43"/>
      <use x="147.314453" xlink:href="#DejaVuSans-61"/>
      <use x="208.59375" xlink:href="#DejaVuSans-4d"/>
      <use x="294.873047" xlink:href="#DejaVuSans-50"/>
     </g>
    </g>
   </g>
   <g id="line2d_29">
    <path clip-path="url(#p7fac9c48ca)" d="M 119.872159 1238.656968 
L 1020.085193 1238.656968 
L 1021.32345 725.433827 
L 1085.712828 725.433827 
L 1086.951085 1238.656968 
L 1100.571915 1238.656968 
L 1101.810172 725.433827 
L 1299.931335 725.433827 
L 1301.169592 1238.656968 
L 1302.40785 1238.656968 
L 1303.646107 725.433827 
L 1318.505194 725.433827 
L 1319.743451 1238.656968 
L 1330.887767 1238.656968 
L 1332.126024 725.433827 
L 1337.079053 725.433827 
L 1338.31731 1238.656968 
L 1609.495652 1238.656968 
L 1610.733909 725.433827 
L 1614.448681 725.433827 
L 1615.686938 1238.656968 
L 1641.690341 1238.656968 
L 1641.690341 1238.656968 
" style="fill:none;stroke:#008000;stroke-linecap:square;stroke-width:1.5;"/>
   </g>
   <g id="patch_8">
    <path d="M 43.78125 1264.318125 
L 43.78125 699.77267 
" style="fill:none;stroke:#000000;stroke-linecap:square;stroke-linejoin:miter;stroke-width:0.8;"/>
   </g>
   <g id="patch_9">
    <path d="M 1717.78125 1264.318125 
L 1717.78125 699.77267 
" style="fill:none;stroke:#000000;stroke-linecap:square;stroke-linejoin:miter;stroke-width:0.8;"/>
   </g>
   <g id="patch_10">
    <path d="M 43.78125 1264.318125 
L 1717.78125 1264.318125 
" style="fill:none;stroke:#000000;stroke-linecap:square;stroke-linejoin:miter;stroke-width:0.8;"/>
   </g>
   <g id="patch_11">
    <path d="M 43.78125 699.77267 
L 1717.78125 699.77267 
" style="fill:none;stroke:#000000;stroke-linecap:square;stroke-linejoin:miter;stroke-width:0.8;"/>
   </g>
   <g id="text_33">
    <!-- before binarisation -->
    <g transform="translate(824.1825 693.77267)scale(0.12 -0.12)">
     <use xlink:href="#DejaVuSans-62"/>
     <use x="63.476562" xlink:href="#DejaVuSans-65"/>
     <use x="125" xlink:href="#DejaVuSans-66"/>
     <use x="160.205078" xlink:href="#DejaVuSans-6f"/>
     <use x="221.386719" xlink:href="#DejaVuSans-72"/>
     <use x="260.25" xlink:href="#DejaVuSans-65"/>
     <use x="321.773438" xlink:href="#DejaVuSans-20"/>
     <use x="353.560547" xlink:href="#DejaVuSans-62"/>
     <use x="417.037109" xlink:href="#DejaVuSans-69"/>
     <use x="444.820312" xlink:href="#DejaVuSans-6e"/>
     <use x="508.199219" xlink:href="#DejaVuSans-61"/>
     <use x="569.478516" xlink:href="#DejaVuSans-72"/>
     <use x="610.591797" xlink:href="#DejaVuSans-69"/>
     <use x="638.375" xlink:href="#DejaVuSans-73"/>
     <use x="690.474609" xlink:href="#DejaVuSans-61"/>
     <use x="751.753906" xlink:href="#DejaVuSans-74"/>
     <use x="790.962891" xlink:href="#DejaVuSans-69"/>
     <use x="818.746094" xlink:href="#DejaVuSans-6f"/>
     <use x="879.927734" xlink:href="#DejaVuSans-6e"/>
    </g>
   </g>
  </g>
 </g>
 <defs>
  <clipPath id="pd7fab48976">
   <rect height="564.545455" width="1674" x="43.78125" y="22.318125"/>
  </clipPath>
  <clipPath id="p7fac9c48ca">
   <rect height="564.545455" width="1674" x="43.78125" y="699.77267"/>
  </clipPath>
 </defs>
</svg>
