<?xml version="1.0" encoding="utf-8" standalone="no"?>
<!DOCTYPE svg PUBLIC "-//W3C//DTD SVG 1.1//EN"
  "http://www.w3.org/Graphics/SVG/1.1/DTD/svg11.dtd">
<svg height="1301.874375pt" version="1.1" viewBox="0 0 1724.98125 1301.874375" width="1724.98125pt" xmlns="http://www.w3.org/2000/svg" xmlns:xlink="http://www.w3.org/1999/xlink">
 <metadata>
  <rdf:RDF xmlns:cc="http://creativecommons.org/ns#" xmlns:dc="http://purl.org/dc/elements/1.1/" xmlns:rdf="http://www.w3.org/1999/02/22-rdf-syntax-ns#">
   <cc:Work>
    <dc:type rdf:resource="http://purl.org/dc/dcmitype/StillImage"/>
    <dc:date>2022-07-24T15:54:47.057785</dc:date>
    <dc:format>image/svg+xml</dc:format>
    <dc:creator>
     <cc:Agent>
      <dc:title>Matplotlib v3.4.2, https://matplotlib.org/</dc:title>
     </cc:Agent>
    </dc:creator>
   </cc:Work>
  </rdf:RDF>
 </metadata>
 <defs>
  <style type="text/css">*{stroke-linecap:butt;stroke-linejoin:round;}</style>
 </defs>
 <g id="figure_1">
  <g id="patch_1">
   <path d="M 0 1301.874375 
L 1724.98125 1301.874375 
L 1724.98125 0 
L 0 0 
z
" style="fill:#ffffff;"/>
  </g>
  <g id="axes_1">
   <g id="patch_2">
    <path d="M 43.78125 586.86358 
L 1717.78125 586.86358 
L 1717.78125 22.318125 
L 43.78125 22.318125 
z
" style="fill:#ffffff;"/>
   </g>
   <g id="matplotlib.axis_1">
    <g id="xtick_1">
     <g id="line2d_1">
      <defs>
       <path d="M 0 0 
L 0 3.5 
" id="m4261aa7f5d" style="stroke:#000000;stroke-width:0.8;"/>
      </defs>
      <g>
       <use style="stroke:#000000;stroke-width:0.8;" x="119.872159" xlink:href="#m4261aa7f5d" y="586.86358"/>
      </g>
     </g>
     <g id="text_1">
      <!-- 0 -->
      <g transform="translate(116.690909 601.462017)scale(0.1 -0.1)">
       <defs>
        <path d="M 2034 4250 
Q 1547 4250 1301 3770 
Q 1056 3291 1056 2328 
Q 1056 1369 1301 889 
Q 1547 409 2034 409 
Q 2525 409 2770 889 
Q 3016 1369 3016 2328 
Q 3016 3291 2770 3770 
Q 2525 4250 2034 4250 
z
M 2034 4750 
Q 2819 4750 3233 4129 
Q 3647 3509 3647 2328 
Q 3647 1150 3233 529 
Q 2819 -91 2034 -91 
Q 1250 -91 836 529 
Q 422 1150 422 2328 
Q 422 3509 836 4129 
Q 1250 4750 2034 4750 
z
" id="DejaVuSans-30" transform="scale(0.015625)"/>
       </defs>
       <use xlink:href="#DejaVuSans-30"/>
      </g>
     </g>
    </g>
    <g id="xtick_2">
     <g id="line2d_2">
      <g>
       <use style="stroke:#000000;stroke-width:0.8;" x="367.523613" xlink:href="#m4261aa7f5d" y="586.86358"/>
      </g>
     </g>
     <g id="text_2">
      <!-- 200 -->
      <g transform="translate(357.979863 601.462017)scale(0.1 -0.1)">
       <defs>
        <path d="M 1228 531 
L 3431 531 
L 3431 0 
L 469 0 
L 469 531 
Q 828 903 1448 1529 
Q 2069 2156 2228 2338 
Q 2531 2678 2651 2914 
Q 2772 3150 2772 3378 
Q 2772 3750 2511 3984 
Q 2250 4219 1831 4219 
Q 1534 4219 1204 4116 
Q 875 4013 500 3803 
L 500 4441 
Q 881 4594 1212 4672 
Q 1544 4750 1819 4750 
Q 2544 4750 2975 4387 
Q 3406 4025 3406 3419 
Q 3406 3131 3298 2873 
Q 3191 2616 2906 2266 
Q 2828 2175 2409 1742 
Q 1991 1309 1228 531 
z
" id="DejaVuSans-32" transform="scale(0.015625)"/>
       </defs>
       <use xlink:href="#DejaVuSans-32"/>
       <use x="63.623047" xlink:href="#DejaVuSans-30"/>
       <use x="127.246094" xlink:href="#DejaVuSans-30"/>
      </g>
     </g>
    </g>
    <g id="xtick_3">
     <g id="line2d_3">
      <g>
       <use style="stroke:#000000;stroke-width:0.8;" x="615.175066" xlink:href="#m4261aa7f5d" y="586.86358"/>
      </g>
     </g>
     <g id="text_3">
      <!-- 400 -->
      <g transform="translate(605.631316 601.462017)scale(0.1 -0.1)">
       <defs>
        <path d="M 2419 4116 
L 825 1625 
L 2419 1625 
L 2419 4116 
z
M 2253 4666 
L 3047 4666 
L 3047 1625 
L 3713 1625 
L 3713 1100 
L 3047 1100 
L 3047 0 
L 2419 0 
L 2419 1100 
L 313 1100 
L 313 1709 
L 2253 4666 
z
" id="DejaVuSans-34" transform="scale(0.015625)"/>
       </defs>
       <use xlink:href="#DejaVuSans-34"/>
       <use x="63.623047" xlink:href="#DejaVuSans-30"/>
       <use x="127.246094" xlink:href="#DejaVuSans-30"/>
      </g>
     </g>
    </g>
    <g id="xtick_4">
     <g id="line2d_4">
      <g>
       <use style="stroke:#000000;stroke-width:0.8;" x="862.82652" xlink:href="#m4261aa7f5d" y="586.86358"/>
      </g>
     </g>
     <g id="text_4">
      <!-- 600 -->
      <g transform="translate(853.28277 601.462017)scale(0.1 -0.1)">
       <defs>
        <path d="M 2113 2584 
Q 1688 2584 1439 2293 
Q 1191 2003 1191 1497 
Q 1191 994 1439 701 
Q 1688 409 2113 409 
Q 2538 409 2786 701 
Q 3034 994 3034 1497 
Q 3034 2003 2786 2293 
Q 2538 2584 2113 2584 
z
M 3366 4563 
L 3366 3988 
Q 3128 4100 2886 4159 
Q 2644 4219 2406 4219 
Q 1781 4219 1451 3797 
Q 1122 3375 1075 2522 
Q 1259 2794 1537 2939 
Q 1816 3084 2150 3084 
Q 2853 3084 3261 2657 
Q 3669 2231 3669 1497 
Q 3669 778 3244 343 
Q 2819 -91 2113 -91 
Q 1303 -91 875 529 
Q 447 1150 447 2328 
Q 447 3434 972 4092 
Q 1497 4750 2381 4750 
Q 2619 4750 2861 4703 
Q 3103 4656 3366 4563 
z
" id="DejaVuSans-36" transform="scale(0.015625)"/>
       </defs>
       <use xlink:href="#DejaVuSans-36"/>
       <use x="63.623047" xlink:href="#DejaVuSans-30"/>
       <use x="127.246094" xlink:href="#DejaVuSans-30"/>
      </g>
     </g>
    </g>
    <g id="xtick_5">
     <g id="line2d_5">
      <g>
       <use style="stroke:#000000;stroke-width:0.8;" x="1110.477973" xlink:href="#m4261aa7f5d" y="586.86358"/>
      </g>
     </g>
     <g id="text_5">
      <!-- 800 -->
      <g transform="translate(1100.934223 601.462017)scale(0.1 -0.1)">
       <defs>
        <path d="M 2034 2216 
Q 1584 2216 1326 1975 
Q 1069 1734 1069 1313 
Q 1069 891 1326 650 
Q 1584 409 2034 409 
Q 2484 409 2743 651 
Q 3003 894 3003 1313 
Q 3003 1734 2745 1975 
Q 2488 2216 2034 2216 
z
M 1403 2484 
Q 997 2584 770 2862 
Q 544 3141 544 3541 
Q 544 4100 942 4425 
Q 1341 4750 2034 4750 
Q 2731 4750 3128 4425 
Q 3525 4100 3525 3541 
Q 3525 3141 3298 2862 
Q 3072 2584 2669 2484 
Q 3125 2378 3379 2068 
Q 3634 1759 3634 1313 
Q 3634 634 3220 271 
Q 2806 -91 2034 -91 
Q 1263 -91 848 271 
Q 434 634 434 1313 
Q 434 1759 690 2068 
Q 947 2378 1403 2484 
z
M 1172 3481 
Q 1172 3119 1398 2916 
Q 1625 2713 2034 2713 
Q 2441 2713 2670 2916 
Q 2900 3119 2900 3481 
Q 2900 3844 2670 4047 
Q 2441 4250 2034 4250 
Q 1625 4250 1398 4047 
Q 1172 3844 1172 3481 
z
" id="DejaVuSans-38" transform="scale(0.015625)"/>
       </defs>
       <use xlink:href="#DejaVuSans-38"/>
       <use x="63.623047" xlink:href="#DejaVuSans-30"/>
       <use x="127.246094" xlink:href="#DejaVuSans-30"/>
      </g>
     </g>
    </g>
    <g id="xtick_6">
     <g id="line2d_6">
      <g>
       <use style="stroke:#000000;stroke-width:0.8;" x="1358.129427" xlink:href="#m4261aa7f5d" y="586.86358"/>
      </g>
     </g>
     <g id="text_6">
      <!-- 1000 -->
      <g transform="translate(1345.404427 601.462017)scale(0.1 -0.1)">
       <defs>
        <path d="M 794 531 
L 1825 531 
L 1825 4091 
L 703 3866 
L 703 4441 
L 1819 4666 
L 2450 4666 
L 2450 531 
L 3481 531 
L 3481 0 
L 794 0 
L 794 531 
z
" id="DejaVuSans-31" transform="scale(0.015625)"/>
       </defs>
       <use xlink:href="#DejaVuSans-31"/>
       <use x="63.623047" xlink:href="#DejaVuSans-30"/>
       <use x="127.246094" xlink:href="#DejaVuSans-30"/>
       <use x="190.869141" xlink:href="#DejaVuSans-30"/>
      </g>
     </g>
    </g>
    <g id="xtick_7">
     <g id="line2d_7">
      <g>
       <use style="stroke:#000000;stroke-width:0.8;" x="1605.78088" xlink:href="#m4261aa7f5d" y="586.86358"/>
      </g>
     </g>
     <g id="text_7">
      <!-- 1200 -->
      <g transform="translate(1593.05588 601.462017)scale(0.1 -0.1)">
       <use xlink:href="#DejaVuSans-31"/>
       <use x="63.623047" xlink:href="#DejaVuSans-32"/>
       <use x="127.246094" xlink:href="#DejaVuSans-30"/>
       <use x="190.869141" xlink:href="#DejaVuSans-30"/>
      </g>
     </g>
    </g>
    <g id="text_8">
     <!-- frame -->
     <g transform="translate(865.954687 615.140142)scale(0.1 -0.1)">
      <defs>
       <path d="M 2375 4863 
L 2375 4384 
L 1825 4384 
Q 1516 4384 1395 4259 
Q 1275 4134 1275 3809 
L 1275 3500 
L 2222 3500 
L 2222 3053 
L 1275 3053 
L 1275 0 
L 697 0 
L 697 3053 
L 147 3053 
L 147 3500 
L 697 3500 
L 697 3744 
Q 697 4328 969 4595 
Q 1241 4863 1831 4863 
L 2375 4863 
z
" id="DejaVuSans-66" transform="scale(0.015625)"/>
       <path d="M 2631 2963 
Q 2534 3019 2420 3045 
Q 2306 3072 2169 3072 
Q 1681 3072 1420 2755 
Q 1159 2438 1159 1844 
L 1159 0 
L 581 0 
L 581 3500 
L 1159 3500 
L 1159 2956 
Q 1341 3275 1631 3429 
Q 1922 3584 2338 3584 
Q 2397 3584 2469 3576 
Q 2541 3569 2628 3553 
L 2631 2963 
z
" id="DejaVuSans-72" transform="scale(0.015625)"/>
       <path d="M 2194 1759 
Q 1497 1759 1228 1600 
Q 959 1441 959 1056 
Q 959 750 1161 570 
Q 1363 391 1709 391 
Q 2188 391 2477 730 
Q 2766 1069 2766 1631 
L 2766 1759 
L 2194 1759 
z
M 3341 1997 
L 3341 0 
L 2766 0 
L 2766 531 
Q 2569 213 2275 61 
Q 1981 -91 1556 -91 
Q 1019 -91 701 211 
Q 384 513 384 1019 
Q 384 1609 779 1909 
Q 1175 2209 1959 2209 
L 2766 2209 
L 2766 2266 
Q 2766 2663 2505 2880 
Q 2244 3097 1772 3097 
Q 1472 3097 1187 3025 
Q 903 2953 641 2809 
L 641 3341 
Q 956 3463 1253 3523 
Q 1550 3584 1831 3584 
Q 2591 3584 2966 3190 
Q 3341 2797 3341 1997 
z
" id="DejaVuSans-61" transform="scale(0.015625)"/>
       <path d="M 3328 2828 
Q 3544 3216 3844 3400 
Q 4144 3584 4550 3584 
Q 5097 3584 5394 3201 
Q 5691 2819 5691 2113 
L 5691 0 
L 5113 0 
L 5113 2094 
Q 5113 2597 4934 2840 
Q 4756 3084 4391 3084 
Q 3944 3084 3684 2787 
Q 3425 2491 3425 1978 
L 3425 0 
L 2847 0 
L 2847 2094 
Q 2847 2600 2669 2842 
Q 2491 3084 2119 3084 
Q 1678 3084 1418 2786 
Q 1159 2488 1159 1978 
L 1159 0 
L 581 0 
L 581 3500 
L 1159 3500 
L 1159 2956 
Q 1356 3278 1631 3431 
Q 1906 3584 2284 3584 
Q 2666 3584 2933 3390 
Q 3200 3197 3328 2828 
z
" id="DejaVuSans-6d" transform="scale(0.015625)"/>
       <path d="M 3597 1894 
L 3597 1613 
L 953 1613 
Q 991 1019 1311 708 
Q 1631 397 2203 397 
Q 2534 397 2845 478 
Q 3156 559 3463 722 
L 3463 178 
Q 3153 47 2828 -22 
Q 2503 -91 2169 -91 
Q 1331 -91 842 396 
Q 353 884 353 1716 
Q 353 2575 817 3079 
Q 1281 3584 2069 3584 
Q 2775 3584 3186 3129 
Q 3597 2675 3597 1894 
z
M 3022 2063 
Q 3016 2534 2758 2815 
Q 2500 3097 2075 3097 
Q 1594 3097 1305 2825 
Q 1016 2553 972 2059 
L 3022 2063 
z
" id="DejaVuSans-65" transform="scale(0.015625)"/>
      </defs>
      <use xlink:href="#DejaVuSans-66"/>
      <use x="35.205078" xlink:href="#DejaVuSans-72"/>
      <use x="76.318359" xlink:href="#DejaVuSans-61"/>
      <use x="137.597656" xlink:href="#DejaVuSans-6d"/>
      <use x="235.009766" xlink:href="#DejaVuSans-65"/>
     </g>
    </g>
   </g>
   <g id="matplotlib.axis_2">
    <g id="ytick_1">
     <g id="line2d_8">
      <defs>
       <path d="M 0 0 
L -3.5 0 
" id="m0f25de5805" style="stroke:#000000;stroke-width:0.8;"/>
      </defs>
      <g>
       <use style="stroke:#000000;stroke-width:0.8;" x="43.78125" xlink:href="#m0f25de5805" y="561.202423"/>
      </g>
     </g>
     <g id="text_9">
      <!-- 0 -->
      <g transform="translate(30.41875 565.001641)scale(0.1 -0.1)">
       <use xlink:href="#DejaVuSans-30"/>
      </g>
     </g>
    </g>
    <g id="ytick_2">
     <g id="line2d_9">
      <g>
       <use style="stroke:#000000;stroke-width:0.8;" x="43.78125" xlink:href="#m0f25de5805" y="436.237898"/>
      </g>
     </g>
     <g id="text_10">
      <!-- 2 -->
      <g transform="translate(30.41875 440.037117)scale(0.1 -0.1)">
       <use xlink:href="#DejaVuSans-32"/>
      </g>
     </g>
    </g>
    <g id="ytick_3">
     <g id="line2d_10">
      <g>
       <use style="stroke:#000000;stroke-width:0.8;" x="43.78125" xlink:href="#m0f25de5805" y="311.273374"/>
      </g>
     </g>
     <g id="text_11">
      <!-- 4 -->
      <g transform="translate(30.41875 315.072592)scale(0.1 -0.1)">
       <use xlink:href="#DejaVuSans-34"/>
      </g>
     </g>
    </g>
    <g id="ytick_4">
     <g id="line2d_11">
      <g>
       <use style="stroke:#000000;stroke-width:0.8;" x="43.78125" xlink:href="#m0f25de5805" y="186.308849"/>
      </g>
     </g>
     <g id="text_12">
      <!-- 6 -->
      <g transform="translate(30.41875 190.108068)scale(0.1 -0.1)">
       <use xlink:href="#DejaVuSans-36"/>
      </g>
     </g>
    </g>
    <g id="ytick_5">
     <g id="line2d_12">
      <g>
       <use style="stroke:#000000;stroke-width:0.8;" x="43.78125" xlink:href="#m0f25de5805" y="61.344325"/>
      </g>
     </g>
     <g id="text_13">
      <!-- 8 -->
      <g transform="translate(30.41875 65.143543)scale(0.1 -0.1)">
       <use xlink:href="#DejaVuSans-38"/>
      </g>
     </g>
    </g>
    <g id="text_14">
     <!-- GCaMP -->
     <g transform="translate(24.339062 322.349446)rotate(-90)scale(0.1 -0.1)">
      <defs>
       <path d="M 3809 666 
L 3809 1919 
L 2778 1919 
L 2778 2438 
L 4434 2438 
L 4434 434 
Q 4069 175 3628 42 
Q 3188 -91 2688 -91 
Q 1594 -91 976 548 
Q 359 1188 359 2328 
Q 359 3472 976 4111 
Q 1594 4750 2688 4750 
Q 3144 4750 3555 4637 
Q 3966 4525 4313 4306 
L 4313 3634 
Q 3963 3931 3569 4081 
Q 3175 4231 2741 4231 
Q 1884 4231 1454 3753 
Q 1025 3275 1025 2328 
Q 1025 1384 1454 906 
Q 1884 428 2741 428 
Q 3075 428 3337 486 
Q 3600 544 3809 666 
z
" id="DejaVuSans-47" transform="scale(0.015625)"/>
       <path d="M 4122 4306 
L 4122 3641 
Q 3803 3938 3442 4084 
Q 3081 4231 2675 4231 
Q 1875 4231 1450 3742 
Q 1025 3253 1025 2328 
Q 1025 1406 1450 917 
Q 1875 428 2675 428 
Q 3081 428 3442 575 
Q 3803 722 4122 1019 
L 4122 359 
Q 3791 134 3420 21 
Q 3050 -91 2638 -91 
Q 1578 -91 968 557 
Q 359 1206 359 2328 
Q 359 3453 968 4101 
Q 1578 4750 2638 4750 
Q 3056 4750 3426 4639 
Q 3797 4528 4122 4306 
z
" id="DejaVuSans-43" transform="scale(0.015625)"/>
       <path d="M 628 4666 
L 1569 4666 
L 2759 1491 
L 3956 4666 
L 4897 4666 
L 4897 0 
L 4281 0 
L 4281 4097 
L 3078 897 
L 2444 897 
L 1241 4097 
L 1241 0 
L 628 0 
L 628 4666 
z
" id="DejaVuSans-4d" transform="scale(0.015625)"/>
       <path d="M 1259 4147 
L 1259 2394 
L 2053 2394 
Q 2494 2394 2734 2622 
Q 2975 2850 2975 3272 
Q 2975 3691 2734 3919 
Q 2494 4147 2053 4147 
L 1259 4147 
z
M 628 4666 
L 2053 4666 
Q 2838 4666 3239 4311 
Q 3641 3956 3641 3272 
Q 3641 2581 3239 2228 
Q 2838 1875 2053 1875 
L 1259 1875 
L 1259 0 
L 628 0 
L 628 4666 
z
" id="DejaVuSans-50" transform="scale(0.015625)"/>
      </defs>
      <use xlink:href="#DejaVuSans-47"/>
      <use x="77.490234" xlink:href="#DejaVuSans-43"/>
      <use x="147.314453" xlink:href="#DejaVuSans-61"/>
      <use x="208.59375" xlink:href="#DejaVuSans-4d"/>
      <use x="294.873047" xlink:href="#DejaVuSans-50"/>
     </g>
    </g>
   </g>
   <g id="line2d_13">
    <path clip-path="url(#pcf2d312d77)" d="M 119.872159 161.798814 
L 121.110416 161.964193 
L 122.348674 158.675035 
L 123.586931 151.72208 
L 124.825188 143.96997 
L 126.063445 138.119645 
L 127.301703 134.191898 
L 128.53996 129.709669 
L 129.778217 122.018815 
L 133.492989 89.701067 
L 134.731246 84.202723 
L 135.969504 81.76288 
L 137.207761 80.583963 
L 138.446018 79.60267 
L 139.684275 78.969845 
L 140.922533 78.483251 
L 142.16079 76.376669 
L 143.399047 70.608868 
L 145.875562 52.332317 
L 147.113819 47.979282 
L 148.352076 50.509203 
L 149.590334 58.703282 
L 152.066848 82.229724 
L 153.305105 93.764826 
L 157.019877 124.207519 
L 158.258134 132.649117 
L 159.496392 136.536545 
L 160.734649 132.989727 
L 161.972906 121.655908 
L 164.449421 91.379663 
L 165.687678 80.991438 
L 166.925935 74.534827 
L 168.164193 70.360939 
L 169.40245 67.577289 
L 170.640707 66.499887 
L 171.878964 67.683254 
L 173.117222 70.153321 
L 174.355479 71.219574 
L 175.593736 68.666702 
L 176.831993 62.734611 
L 178.070251 56.155769 
L 179.308508 52.708748 
L 180.546765 55.065854 
L 181.785022 62.994699 
L 183.02328 73.538025 
L 184.261537 83.112321 
L 185.499794 89.280012 
L 186.738052 91.158654 
L 187.976309 89.357587 
L 189.214566 86.219299 
L 190.452823 85.515322 
L 191.691081 89.945998 
L 192.929338 98.540543 
L 194.167595 108.086761 
L 195.405852 116.515208 
L 196.64411 123.31561 
L 197.882367 128.316795 
L 199.120624 131.671842 
L 200.358881 133.831834 
L 201.597139 135.481763 
L 202.835396 138.0828 
L 204.073653 143.25235 
L 206.550168 159.288317 
L 207.788425 165.410521 
L 209.026682 168.045545 
L 210.26494 167.546215 
L 211.503197 165.210852 
L 212.741454 162.433247 
L 213.979711 160.090851 
L 215.217969 158.477506 
L 216.456226 157.88311 
L 217.694483 159.02542 
L 218.93274 162.460263 
L 221.409255 172.928143 
L 222.647512 176.479088 
L 223.88577 177.485292 
L 225.124027 176.337164 
L 227.600541 171.549189 
L 228.838799 170.384132 
L 230.077056 171.747077 
L 231.315313 175.912229 
L 232.55357 181.370648 
L 233.791828 185.135416 
L 235.030085 184.4823 
L 236.268342 178.653809 
L 237.5066 168.790145 
L 241.221371 131.673984 
L 242.459629 122.83864 
L 243.697886 117.917746 
L 244.936143 117.102637 
L 246.1744 120.015272 
L 247.412658 125.457456 
L 249.889172 138.117121 
L 257.318716 170.446042 
L 261.033488 185.880878 
L 262.271745 189.995298 
L 263.510002 192.909287 
L 264.748259 194.456188 
L 265.986517 194.717501 
L 267.224774 193.998345 
L 269.701288 191.718654 
L 270.939546 191.173939 
L 272.177803 191.220673 
L 273.41606 190.903519 
L 274.654318 188.81356 
L 275.892575 184.623953 
L 277.130832 179.507004 
L 278.369089 174.975658 
L 279.607347 171.719246 
L 280.845604 169.714544 
L 282.083861 168.818089 
L 283.322118 168.720433 
L 285.798633 169.226837 
L 287.03689 169.161619 
L 288.275147 168.131806 
L 289.513405 165.687023 
L 291.989919 158.627168 
L 293.228177 155.961262 
L 294.466434 154.470536 
L 295.704691 153.961508 
L 296.942948 154.280395 
L 298.181206 155.470219 
L 299.419463 157.437818 
L 303.134235 164.221722 
L 304.372492 167.306126 
L 305.610749 171.656187 
L 310.563778 191.460203 
L 311.802036 195.43486 
L 313.040293 197.825031 
L 314.27855 198.340806 
L 315.516807 196.71852 
L 316.755065 192.925171 
L 317.993322 187.562279 
L 319.231579 181.696081 
L 320.469836 176.425622 
L 321.708094 172.774541 
L 322.946351 171.504328 
L 324.184608 172.727657 
L 325.422866 176.020289 
L 326.661123 180.768452 
L 329.137637 191.797371 
L 330.375895 197.804282 
L 332.852409 211.922796 
L 334.090666 217.684448 
L 335.328924 220.758959 
L 336.567181 221.108976 
L 337.805438 219.260566 
L 339.043695 215.85043 
L 341.52021 207.709509 
L 342.758467 205.03653 
L 343.996725 204.330905 
L 345.234982 205.518302 
L 346.473239 208.415146 
L 347.711496 213.051827 
L 348.949754 218.767256 
L 350.188011 223.848812 
L 351.426268 226.769114 
L 352.664525 227.253368 
L 353.902783 225.809593 
L 355.14104 222.818479 
L 356.379297 218.406079 
L 358.855812 207.16134 
L 360.094069 202.66067 
L 361.332326 200.522214 
L 362.570584 201.047869 
L 363.808841 203.852087 
L 365.047098 208.27656 
L 366.285355 213.448848 
L 367.523613 218.088007 
L 368.76187 220.921176 
L 370.000127 221.651122 
L 372.476642 220.673306 
L 373.714899 220.878356 
L 374.953156 221.73028 
L 376.191413 222.402922 
L 377.429671 221.839325 
L 378.667928 219.81227 
L 379.906185 216.694969 
L 381.144443 212.156609 
L 382.3827 205.494979 
L 384.859214 188.724353 
L 386.097472 182.576468 
L 387.335729 180.573612 
L 388.573986 183.144313 
L 391.050501 194.585175 
L 392.288758 198.447144 
L 393.527015 199.944934 
L 394.765272 200.384867 
L 396.00353 201.014809 
L 397.241787 201.856758 
L 398.480044 202.251858 
L 399.718302 201.984213 
L 400.956559 201.584839 
L 402.194816 201.826606 
L 403.433073 203.131229 
L 404.671331 205.459348 
L 407.147845 211.563329 
L 408.386102 213.466213 
L 409.62436 213.710426 
L 410.862617 212.970402 
L 412.100874 212.450902 
L 413.339132 212.999434 
L 414.577389 214.717686 
L 417.053903 219.768983 
L 418.292161 221.806984 
L 419.530418 222.591411 
L 420.768675 222.075319 
L 422.006932 221.266714 
L 423.24519 221.56795 
L 424.483447 223.546844 
L 426.959961 229.995803 
L 428.198219 232.449138 
L 429.436476 233.200664 
L 430.674733 232.042881 
L 431.912991 229.379969 
L 434.389505 222.130829 
L 435.627762 219.052406 
L 436.86602 216.788704 
L 438.104277 215.343115 
L 439.342534 215.210989 
L 440.580791 216.990708 
L 441.819049 220.514025 
L 443.057306 224.757001 
L 444.295563 228.473348 
L 445.53382 230.722769 
L 446.772078 231.004669 
L 448.010335 229.523831 
L 449.248592 227.268664 
L 450.48685 225.399344 
L 451.725107 224.832413 
L 452.963364 226.182335 
L 454.201621 229.343174 
L 455.439879 233.248857 
L 456.678136 236.491067 
L 457.916393 238.129605 
L 459.15465 237.707823 
L 460.392908 234.946021 
L 461.631165 230.024641 
L 462.869422 223.945306 
L 464.107679 218.475409 
L 465.345937 215.501761 
L 466.584194 215.840613 
L 467.822451 218.809269 
L 469.060709 223.211074 
L 470.298966 228.416803 
L 474.013738 246.35769 
L 475.251995 251.261545 
L 476.490252 254.301459 
L 477.728509 254.511299 
L 478.966767 251.5872 
L 481.443281 241.40013 
L 482.681538 238.380815 
L 483.919796 238.480636 
L 485.158053 241.439628 
L 486.39631 246.474326 
L 490.111082 264.69388 
L 491.349339 268.211118 
L 492.587597 269.159433 
L 493.825854 268.02461 
L 495.064111 265.65379 
L 496.302368 262.474014 
L 498.778883 254.626549 
L 500.01714 250.272305 
L 503.731912 235.889641 
L 504.970169 232.557628 
L 506.208427 231.240699 
L 507.446684 232.179516 
L 508.684941 235.059011 
L 509.923198 239.397243 
L 511.161456 244.410215 
L 512.399713 248.580235 
L 513.63797 250.254694 
L 514.876227 248.929814 
L 517.352742 242.967509 
L 518.590999 241.951051 
L 519.829257 242.933491 
L 521.067514 244.965075 
L 522.305771 246.776106 
L 523.544028 247.57313 
L 524.782286 247.215175 
L 526.020543 246.25724 
L 527.2588 245.713202 
L 528.497057 246.183308 
L 529.735315 247.503409 
L 530.973572 249.093121 
L 532.211829 250.317529 
L 533.450086 250.921305 
L 534.688344 251.338137 
L 535.926601 252.516562 
L 537.164858 255.310407 
L 538.403116 259.853421 
L 540.87963 271.016025 
L 542.117887 275.063719 
L 543.356145 276.218885 
L 544.594402 273.870231 
L 547.070916 263.642841 
L 548.309174 259.916481 
L 549.547431 258.983301 
L 550.785688 260.924219 
L 553.262203 267.943523 
L 554.50046 269.592897 
L 555.738717 269.370466 
L 559.453489 265.607578 
L 560.691746 264.108248 
L 561.930004 261.488801 
L 563.168261 258.114976 
L 564.406518 255.179488 
L 566.883033 251.287102 
L 568.12129 248.49831 
L 570.597804 240.809404 
L 571.836062 238.415836 
L 573.074319 238.314168 
L 574.312576 240.065474 
L 575.550834 242.230516 
L 576.789091 243.145837 
L 578.027348 241.719157 
L 579.265605 237.754843 
L 580.503863 231.751088 
L 582.980377 216.770082 
L 585.456892 199.078405 
L 586.695149 190.230501 
L 587.933406 183.302033 
L 589.171663 179.595367 
L 590.409921 179.951911 
L 591.648178 184.014576 
L 592.886435 189.703409 
L 594.124693 194.415301 
L 595.36295 196.9075 
L 596.601207 197.817449 
L 597.839464 198.431301 
L 599.077722 199.294869 
L 600.315979 199.981504 
L 601.554236 199.635556 
L 602.792493 197.529696 
L 604.030751 193.482866 
L 606.507265 182.371754 
L 607.745523 177.869333 
L 608.98378 175.427446 
L 610.222037 174.858705 
L 611.460294 175.481295 
L 612.698552 176.998472 
L 613.936809 179.339207 
L 615.175066 181.953469 
L 616.413323 183.755032 
L 617.651581 183.85606 
L 618.889838 182.306763 
L 620.128095 180.138051 
L 621.366352 178.632486 
L 622.60461 178.49 
L 623.842867 179.591001 
L 625.081124 181.136342 
L 626.319382 182.135855 
L 627.557639 182.178157 
L 628.795896 181.359506 
L 630.034153 179.723366 
L 633.748925 173.068295 
L 636.22544 169.513104 
L 637.463697 166.539365 
L 639.940211 157.950107 
L 641.178469 154.958835 
L 642.416726 154.271421 
L 643.654983 156.051746 
L 644.893241 159.65821 
L 646.131498 163.84632 
L 647.369755 167.380939 
L 648.608012 169.438948 
L 649.84627 169.51389 
L 651.084527 167.557225 
L 652.322784 164.626491 
L 653.561041 162.803489 
L 654.799299 163.684163 
L 656.037556 167.078963 
L 658.51407 175.563439 
L 659.752328 178.538164 
L 660.990585 180.264733 
L 662.228842 181.02528 
L 663.4671 181.226204 
L 664.705357 181.080896 
L 665.943614 180.811711 
L 667.181871 180.882522 
L 668.420129 181.728083 
L 669.658386 183.41154 
L 670.896643 185.815647 
L 672.1349 188.941727 
L 673.373158 192.542726 
L 674.611415 195.737454 
L 675.849672 197.665035 
L 677.087929 198.481254 
L 678.326187 199.133787 
L 680.802701 200.996293 
L 682.040959 201.355671 
L 684.517473 201.082618 
L 685.75573 201.594388 
L 686.993988 202.695281 
L 689.470502 205.247537 
L 690.708759 205.692264 
L 691.947017 204.923249 
L 693.185274 202.998158 
L 694.423531 200.183572 
L 695.661789 196.985671 
L 696.900046 194.279041 
L 698.138303 192.826151 
L 699.37656 192.884669 
L 700.614818 194.266343 
L 701.853075 196.506162 
L 703.091332 199.007886 
L 704.329589 201.024518 
L 705.567847 201.968439 
L 706.806104 202.21672 
L 708.044361 203.108075 
L 709.282618 205.830705 
L 711.759133 214.986927 
L 712.99739 217.816259 
L 714.235648 217.60467 
L 715.473905 214.532207 
L 716.712162 210.161888 
L 717.950419 206.695418 
L 719.188677 205.61088 
L 720.426934 206.923485 
L 721.665191 209.727666 
L 722.903448 213.311544 
L 725.379963 221.939299 
L 726.61822 226.312363 
L 727.856477 230.00146 
L 730.332992 236.165977 
L 732.809507 243.561228 
L 734.047764 246.514565 
L 735.286021 248.648412 
L 736.524278 250.184818 
L 739.000793 252.590046 
L 741.477307 255.600578 
L 742.715565 257.190557 
L 743.953822 258.985299 
L 746.430336 263.101294 
L 747.668594 264.640565 
L 748.906851 265.589422 
L 750.145108 266.372563 
L 751.383366 267.532168 
L 753.85988 270.981311 
L 755.098137 272.64481 
L 757.574652 275.608254 
L 758.812909 277.542193 
L 761.289424 281.910554 
L 762.527681 283.796725 
L 763.765938 285.430219 
L 765.004195 286.757174 
L 766.242453 287.480936 
L 767.48071 287.171822 
L 768.718967 285.83412 
L 769.957225 284.123466 
L 771.195482 282.759343 
L 772.433739 281.997744 
L 773.671996 281.767088 
L 774.910254 281.968433 
L 776.148511 282.600496 
L 777.386768 283.697668 
L 778.625025 285.030639 
L 779.863283 286.025953 
L 781.10154 286.248944 
L 783.578054 285.413907 
L 784.816312 285.625719 
L 786.054569 286.669617 
L 787.292826 287.998988 
L 788.531084 289.024981 
L 789.769341 289.643159 
L 791.007598 289.746785 
L 792.245855 289.083563 
L 793.484113 287.638868 
L 795.960627 283.529571 
L 797.198884 281.988818 
L 798.437142 281.430279 
L 799.675399 281.989454 
L 800.913656 283.530706 
L 803.390171 287.600924 
L 804.628428 289.87094 
L 807.104943 294.957911 
L 808.3432 296.951068 
L 809.581457 297.814462 
L 810.819714 297.43952 
L 812.057972 296.315094 
L 815.772743 292.565378 
L 817.011001 291.573571 
L 819.487515 290.198724 
L 820.725773 288.838534 
L 823.202287 285.150376 
L 824.440544 284.033413 
L 825.678802 283.770269 
L 826.917059 284.191307 
L 828.155316 285.018584 
L 829.393573 286.31172 
L 831.870088 290.069047 
L 833.108345 291.329204 
L 835.58486 292.468018 
L 838.061374 294.326284 
L 839.299632 294.131757 
L 840.537889 292.178362 
L 841.776146 288.778643 
L 845.490918 276.452641 
L 846.729175 273.213426 
L 847.967432 270.847032 
L 849.20569 269.480968 
L 850.443947 269.387871 
L 851.682204 270.568212 
L 855.396976 276.17315 
L 856.635233 277.333234 
L 857.873491 277.612187 
L 859.111748 276.501463 
L 860.350005 273.808724 
L 862.82652 266.612184 
L 864.064777 264.465502 
L 865.303034 263.968326 
L 866.541291 264.237924 
L 867.779549 264.11596 
L 869.017806 263.002573 
L 871.49432 258.687642 
L 872.732578 257.498257 
L 873.970835 257.993982 
L 875.209092 259.53693 
L 876.44735 260.869594 
L 877.685607 261.183152 
L 878.923864 260.384003 
L 880.162121 258.715212 
L 881.400379 256.607889 
L 882.638636 254.747856 
L 883.876893 253.72407 
L 885.11515 253.545352 
L 887.591665 254.170619 
L 888.829922 254.561383 
L 890.06818 255.206409 
L 892.544694 257.375751 
L 893.782951 257.901381 
L 895.021209 257.674091 
L 897.497723 256.116741 
L 898.73598 256.290787 
L 899.974238 258.151247 
L 901.212495 261.328742 
L 903.689009 268.455931 
L 904.927267 271.701396 
L 906.165524 274.369021 
L 907.403781 275.951143 
L 908.642039 276.1653 
L 909.880296 275.124901 
L 912.35681 271.515152 
L 913.595068 271.054287 
L 914.833325 272.502758 
L 917.309839 278.685826 
L 918.548097 280.502438 
L 919.786354 279.988602 
L 921.024611 277.932987 
L 922.262868 276.388886 
L 923.501126 276.737695 
L 925.97764 280.281132 
L 927.215898 280.787092 
L 928.454155 280.070527 
L 929.692412 279.121907 
L 930.930669 278.749735 
L 933.407184 278.995758 
L 934.645441 278.345651 
L 935.883698 276.384972 
L 937.121956 272.899235 
L 939.59847 263.576513 
L 940.836727 260.263709 
L 942.074985 259.134288 
L 943.313242 259.777605 
L 944.551499 261.076341 
L 945.789757 262.066097 
L 947.028014 262.374097 
L 949.504528 262.205761 
L 950.742786 261.945568 
L 951.981043 261.347765 
L 953.2193 260.879041 
L 954.457557 261.27847 
L 955.695815 262.79809 
L 956.934072 264.804402 
L 958.172329 266.270533 
L 959.410586 266.802463 
L 960.648844 266.730272 
L 961.887101 266.331261 
L 963.125358 265.798296 
L 964.363616 265.642061 
L 965.601873 266.296678 
L 966.84013 267.718101 
L 970.554902 273.305577 
L 971.793159 274.49586 
L 973.031416 275.270805 
L 974.269674 275.665845 
L 975.507931 275.606452 
L 976.746188 275.127855 
L 979.222703 273.839781 
L 980.46096 273.729709 
L 981.699217 274.619516 
L 982.937475 276.526161 
L 987.890504 286.004942 
L 990.367018 292.887656 
L 991.605275 295.581188 
L 992.843533 296.465215 
L 994.08179 295.437653 
L 995.320047 293.957429 
L 996.558305 293.772693 
L 997.796562 295.078693 
L 999.034819 296.869819 
L 1001.511334 300.018279 
L 1002.749591 302.006094 
L 1005.226105 306.814554 
L 1006.464363 308.27771 
L 1007.70262 308.751537 
L 1008.940877 308.761535 
L 1011.417392 308.472042 
L 1012.655649 308.55382 
L 1013.893906 309.126748 
L 1015.132164 310.197544 
L 1016.370421 311.938472 
L 1020.085193 319.290603 
L 1021.32345 320.658006 
L 1023.799964 322.576265 
L 1025.038222 323.057088 
L 1026.276479 322.580619 
L 1027.514736 321.199455 
L 1029.991251 317.844321 
L 1031.229508 316.792179 
L 1032.467765 316.28532 
L 1033.706023 316.151648 
L 1036.182537 316.138937 
L 1037.420794 315.685823 
L 1038.659052 314.835185 
L 1039.897309 314.246624 
L 1041.135566 314.968128 
L 1042.373823 317.371623 
L 1043.612081 320.423505 
L 1044.850338 322.485865 
L 1046.088595 322.65394 
L 1047.326852 321.131089 
L 1049.803367 316.273093 
L 1051.041624 314.330318 
L 1052.279882 313.391459 
L 1053.518139 313.526794 
L 1054.756396 314.191119 
L 1055.994653 315.022961 
L 1057.232911 316.554422 
L 1058.471168 319.341878 
L 1059.709425 322.813752 
L 1060.947682 325.815819 
L 1062.18594 327.652785 
L 1063.424197 328.051112 
L 1064.662454 326.924051 
L 1065.900711 324.489312 
L 1068.377226 318.288473 
L 1069.615483 316.142457 
L 1070.853741 315.166716 
L 1072.091998 315.313294 
L 1073.330255 316.532331 
L 1074.568512 318.769428 
L 1075.80677 321.856509 
L 1078.283284 328.798868 
L 1079.521541 331.675098 
L 1080.759799 333.969091 
L 1081.998056 335.568256 
L 1083.236313 336.137395 
L 1084.474571 335.358842 
L 1085.712828 333.325019 
L 1088.189342 328.360572 
L 1089.4276 326.523065 
L 1090.665857 325.331588 
L 1091.904114 324.847486 
L 1093.142371 324.943098 
L 1094.380629 325.657901 
L 1095.618886 327.431469 
L 1096.857143 330.472657 
L 1098.0954 334.069837 
L 1099.333658 336.962495 
L 1100.571915 338.427384 
L 1101.810172 338.734309 
L 1103.04843 338.622678 
L 1104.286687 338.681938 
L 1105.524944 339.203585 
L 1108.001459 341.162755 
L 1109.239716 341.764647 
L 1110.477973 341.905134 
L 1111.71623 341.764893 
L 1112.954488 341.330752 
L 1115.431002 339.831516 
L 1116.669259 339.600002 
L 1117.907517 340.128808 
L 1119.145774 341.332708 
L 1120.384031 342.802883 
L 1121.622289 343.87355 
L 1122.860546 344.193816 
L 1124.098803 344.158427 
L 1125.33706 344.362875 
L 1126.575318 345.069201 
L 1127.813575 346.26464 
L 1129.051832 347.651154 
L 1130.290089 348.796144 
L 1131.528347 349.447414 
L 1132.766604 349.261606 
L 1134.004861 347.781929 
L 1135.243118 345.360158 
L 1136.481376 343.341827 
L 1137.719633 342.965927 
L 1138.95789 344.493481 
L 1141.434405 349.782352 
L 1142.672662 351.546508 
L 1143.910919 352.256022 
L 1145.149177 352.149378 
L 1147.625691 351.171749 
L 1148.863948 350.896149 
L 1150.102206 350.973297 
L 1151.340463 351.25922 
L 1152.57872 351.161801 
L 1153.816977 350.185202 
L 1155.055235 348.669617 
L 1156.293492 347.611241 
L 1157.531749 347.735914 
L 1158.770007 349.113538 
L 1161.246521 353.849183 
L 1162.484778 355.607486 
L 1163.723036 355.99483 
L 1164.961293 354.675921 
L 1167.437807 348.951975 
L 1168.676065 347.270554 
L 1169.914322 347.504266 
L 1172.390837 349.981614 
L 1174.867351 351.384919 
L 1176.105608 352.384612 
L 1179.82038 356.012077 
L 1181.058637 355.783183 
L 1182.296895 353.656337 
L 1183.535152 349.771304 
L 1184.773409 345.194475 
L 1186.011666 341.396491 
L 1187.249924 339.133457 
L 1188.488181 338.076048 
L 1189.726438 337.706302 
L 1190.964696 337.928128 
L 1192.202953 338.786672 
L 1193.44121 340.281694 
L 1194.679467 342.458781 
L 1197.155982 348.138258 
L 1198.394239 350.396437 
L 1199.632496 351.39236 
L 1200.870754 351.28095 
L 1204.585525 349.92251 
L 1207.06204 347.580356 
L 1208.300297 346.898994 
L 1209.538555 346.448472 
L 1212.015069 344.843106 
L 1213.253326 344.630687 
L 1214.491584 345.426381 
L 1215.729841 346.671365 
L 1219.444613 349.911141 
L 1220.68287 351.331537 
L 1221.921127 352.217329 
L 1223.159384 352.545136 
L 1224.397642 353.091647 
L 1226.874156 355.288637 
L 1228.112414 355.754867 
L 1229.350671 355.515702 
L 1230.588928 354.844999 
L 1231.827185 354.024214 
L 1233.065443 353.026418 
L 1234.3037 351.652914 
L 1236.780214 348.482485 
L 1238.018472 347.612532 
L 1239.256729 347.590788 
L 1241.733243 348.634874 
L 1242.971501 349.522979 
L 1244.209758 351.074605 
L 1246.686273 355.017278 
L 1247.92453 356.654262 
L 1249.162787 357.79961 
L 1250.401044 358.100816 
L 1251.639302 357.384417 
L 1255.354073 353.200422 
L 1256.592331 352.171022 
L 1257.830588 351.838007 
L 1259.068845 352.356099 
L 1260.307103 353.195872 
L 1261.54536 353.607909 
L 1262.783617 353.423843 
L 1264.021874 353.107645 
L 1265.260132 353.151391 
L 1266.498389 353.455598 
L 1267.736646 353.291028 
L 1268.974903 351.934811 
L 1270.213161 349.357185 
L 1272.689675 343.379913 
L 1273.927932 341.102687 
L 1275.16619 339.481599 
L 1276.404447 338.81197 
L 1277.642704 339.48492 
L 1278.880962 341.292011 
L 1280.119219 343.411548 
L 1281.357476 345.231177 
L 1282.595733 346.84188 
L 1286.310505 352.284738 
L 1287.548762 353.140765 
L 1290.025277 353.762504 
L 1291.263534 354.186774 
L 1292.501791 354.062038 
L 1293.740049 352.789151 
L 1294.978306 350.51002 
L 1298.693078 342.402645 
L 1302.40785 335.603965 
L 1303.646107 334.137625 
L 1304.884364 334.120448 
L 1306.122621 335.527504 
L 1307.360879 337.887051 
L 1308.599136 340.608934 
L 1309.837393 342.790642 
L 1311.07565 343.418475 
L 1312.313908 342.164725 
L 1314.790422 337.149019 
L 1316.02868 335.470452 
L 1317.266937 334.903092 
L 1318.505194 334.913888 
L 1319.743451 334.810953 
L 1323.458223 333.650996 
L 1324.69648 333.563872 
L 1327.172995 333.967589 
L 1328.411252 333.769841 
L 1329.649509 333.024957 
L 1330.887767 331.968563 
L 1332.126024 330.569505 
L 1333.364281 328.470338 
L 1335.840796 323.086389 
L 1337.079053 321.6744 
L 1338.31731 321.981197 
L 1339.555568 323.334634 
L 1340.793825 324.50642 
L 1342.032082 324.796007 
L 1343.270339 324.350581 
L 1345.746854 323.033098 
L 1346.985111 322.846678 
L 1348.223368 323.363324 
L 1350.699883 325.481424 
L 1351.93814 325.687375 
L 1353.176398 324.689224 
L 1354.414655 322.47947 
L 1355.652912 319.632763 
L 1356.891169 317.160068 
L 1358.129427 315.55331 
L 1360.605941 313.449288 
L 1361.844198 312.539326 
L 1365.55897 310.46577 
L 1366.797228 309.690998 
L 1368.035485 309.586065 
L 1369.273742 310.532638 
L 1370.511999 312.281579 
L 1372.988514 316.466189 
L 1374.226771 318.314075 
L 1375.465028 319.761667 
L 1377.941543 322.114241 
L 1379.1798 323.089905 
L 1380.418057 323.277655 
L 1381.656315 322.237322 
L 1384.132829 317.886207 
L 1385.371087 316.27359 
L 1386.609344 315.547062 
L 1387.847601 315.35881 
L 1389.085858 315.428096 
L 1394.038887 316.465254 
L 1395.277145 316.636894 
L 1396.515402 317.138186 
L 1397.753659 317.891329 
L 1398.991916 318.360505 
L 1400.230174 318.301109 
L 1402.706688 317.9349 
L 1403.944946 317.303035 
L 1405.183203 315.848499 
L 1406.42146 314.12952 
L 1407.659717 313.044359 
L 1408.897975 312.844801 
L 1410.136232 313.243496 
L 1411.374489 314.050829 
L 1416.327518 318.312976 
L 1417.565775 319.040182 
L 1418.804033 319.301857 
L 1420.04229 319.283653 
L 1421.280547 319.096582 
L 1422.518805 318.512644 
L 1423.757062 317.545124 
L 1424.995319 316.796864 
L 1426.233576 317.024503 
L 1427.471834 318.558742 
L 1429.948348 323.674079 
L 1431.186605 325.691246 
L 1432.424863 326.742284 
L 1433.66312 327.02879 
L 1436.139634 327.205988 
L 1437.377892 326.796771 
L 1438.616149 325.538322 
L 1439.854406 323.931968 
L 1441.092664 322.656589 
L 1442.330921 321.607213 
L 1443.569178 320.319657 
L 1444.807435 318.734322 
L 1446.045693 316.962107 
L 1448.522207 312.920799 
L 1449.760464 311.403538 
L 1450.998722 311.291157 
L 1452.236979 313.069901 
L 1453.475236 316.449157 
L 1454.713494 320.542452 
L 1455.951751 324.171338 
L 1457.190008 326.26256 
L 1458.428265 326.47058 
L 1459.666523 325.349804 
L 1460.90478 323.889255 
L 1462.143037 322.957344 
L 1463.381294 323.042042 
L 1464.619552 324.324539 
L 1465.857809 326.647638 
L 1467.096066 329.257868 
L 1468.334323 330.908513 
L 1469.572581 330.585884 
L 1470.810838 328.171261 
L 1473.287353 320.98144 
L 1474.52561 318.978955 
L 1475.763867 318.923265 
L 1477.002124 320.579565 
L 1478.240382 323.474622 
L 1479.478639 326.848879 
L 1480.716896 329.732755 
L 1481.955153 331.331674 
L 1483.193411 331.612231 
L 1484.431668 331.40233 
L 1485.669925 331.4692 
L 1486.908182 331.924006 
L 1488.14644 332.648055 
L 1490.622954 334.493561 
L 1491.861212 335.128036 
L 1493.099469 335.165686 
L 1494.337726 334.36729 
L 1495.575983 332.763302 
L 1496.814241 330.562453 
L 1499.290755 325.166376 
L 1500.529012 323.080262 
L 1501.76727 322.339984 
L 1503.005527 323.121386 
L 1504.243784 324.741428 
L 1505.482041 325.980488 
L 1506.720299 326.215338 
L 1507.958556 325.873578 
L 1509.196813 325.680709 
L 1514.149842 326.249047 
L 1516.626357 327.133686 
L 1517.864614 327.077912 
L 1519.102871 326.684382 
L 1520.341129 326.615446 
L 1521.579386 327.333819 
L 1522.817643 328.546752 
L 1524.0559 329.29744 
L 1525.294158 328.851176 
L 1526.532415 327.371027 
L 1527.770672 325.407005 
L 1530.247187 320.933027 
L 1531.485444 319.102352 
L 1532.723701 318.422043 
L 1533.961959 319.11124 
L 1536.438473 322.032538 
L 1538.914988 324.22556 
L 1540.153245 326.052753 
L 1541.391502 328.877327 
L 1542.62976 332.145352 
L 1543.868017 334.650686 
L 1545.106274 335.279749 
L 1546.344531 333.884115 
L 1547.582789 331.24158 
L 1548.821046 328.264963 
L 1550.059303 325.672624 
L 1551.29756 324.116851 
L 1552.535818 323.903009 
L 1553.774075 324.688118 
L 1556.250589 327.009637 
L 1557.488847 327.566165 
L 1558.727104 327.11165 
L 1559.965361 325.641273 
L 1561.203619 323.890035 
L 1562.441876 322.982908 
L 1563.680133 323.378482 
L 1564.91839 324.676356 
L 1566.156648 326.492712 
L 1567.394905 328.534091 
L 1568.633162 330.194766 
L 1569.871419 331.025189 
L 1571.109677 331.172245 
L 1572.347934 330.97711 
L 1573.586191 330.55206 
L 1578.53922 327.98071 
L 1579.777478 326.473955 
L 1582.253992 322.578093 
L 1583.492249 320.967652 
L 1584.730507 320.120939 
L 1585.968764 320.650512 
L 1588.445278 324.440532 
L 1589.683536 325.570572 
L 1590.921793 325.795379 
L 1594.636565 325.448499 
L 1595.874822 324.958021 
L 1597.113079 324.238769 
L 1598.351337 323.390634 
L 1599.589594 322.291358 
L 1600.827851 320.964693 
L 1602.066108 319.836719 
L 1603.304366 319.630405 
L 1604.542623 320.925202 
L 1605.78088 323.577773 
L 1607.019137 326.621709 
L 1608.257395 328.975912 
L 1609.495652 330.131671 
L 1610.733909 330.21945 
L 1611.972166 329.901732 
L 1613.210424 329.98705 
L 1614.448681 330.774632 
L 1615.686938 561.202423 
L 1616.925196 332.309094 
L 1618.163453 332.109983 
L 1619.40171 332.265481 
L 1620.639967 333.872896 
L 1623.116482 339.474434 
L 1624.354739 341.062839 
L 1625.592996 341.027732 
L 1626.831254 339.426159 
L 1628.069511 336.417421 
L 1630.546026 328.780705 
L 1631.784283 326.900362 
L 1633.02254 327.434076 
L 1635.499055 331.527999 
L 1636.737312 332.125193 
L 1637.975569 330.840239 
L 1639.213826 327.730916 
L 1640.452084 323.160076 
L 1641.690341 317.756152 
L 1641.690341 317.756152 
" style="fill:none;stroke:#008000;stroke-linecap:square;stroke-width:1.5;"/>
   </g>
   <g id="patch_3">
    <path d="M 43.78125 586.86358 
L 43.78125 22.318125 
" style="fill:none;stroke:#000000;stroke-linecap:square;stroke-linejoin:miter;stroke-width:0.8;"/>
   </g>
   <g id="patch_4">
    <path d="M 1717.78125 586.86358 
L 1717.78125 22.318125 
" style="fill:none;stroke:#000000;stroke-linecap:square;stroke-linejoin:miter;stroke-width:0.8;"/>
   </g>
   <g id="patch_5">
    <path d="M 43.78125 586.86358 
L 1717.78125 586.86358 
" style="fill:none;stroke:#000000;stroke-linecap:square;stroke-linejoin:miter;stroke-width:0.8;"/>
   </g>
   <g id="patch_6">
    <path d="M 43.78125 22.318125 
L 1717.78125 22.318125 
" style="fill:none;stroke:#000000;stroke-linecap:square;stroke-linejoin:miter;stroke-width:0.8;"/>
   </g>
   <g id="text_15">
    <!-- before binarisation -->
    <g transform="translate(824.1825 16.318125)scale(0.12 -0.12)">
     <defs>
      <path d="M 3116 1747 
Q 3116 2381 2855 2742 
Q 2594 3103 2138 3103 
Q 1681 3103 1420 2742 
Q 1159 2381 1159 1747 
Q 1159 1113 1420 752 
Q 1681 391 2138 391 
Q 2594 391 2855 752 
Q 3116 1113 3116 1747 
z
M 1159 2969 
Q 1341 3281 1617 3432 
Q 1894 3584 2278 3584 
Q 2916 3584 3314 3078 
Q 3713 2572 3713 1747 
Q 3713 922 3314 415 
Q 2916 -91 2278 -91 
Q 1894 -91 1617 61 
Q 1341 213 1159 525 
L 1159 0 
L 581 0 
L 581 4863 
L 1159 4863 
L 1159 2969 
z
" id="DejaVuSans-62" transform="scale(0.015625)"/>
      <path d="M 1959 3097 
Q 1497 3097 1228 2736 
Q 959 2375 959 1747 
Q 959 1119 1226 758 
Q 1494 397 1959 397 
Q 2419 397 2687 759 
Q 2956 1122 2956 1747 
Q 2956 2369 2687 2733 
Q 2419 3097 1959 3097 
z
M 1959 3584 
Q 2709 3584 3137 3096 
Q 3566 2609 3566 1747 
Q 3566 888 3137 398 
Q 2709 -91 1959 -91 
Q 1206 -91 779 398 
Q 353 888 353 1747 
Q 353 2609 779 3096 
Q 1206 3584 1959 3584 
z
" id="DejaVuSans-6f" transform="scale(0.015625)"/>
      <path id="DejaVuSans-20" transform="scale(0.015625)"/>
      <path d="M 603 3500 
L 1178 3500 
L 1178 0 
L 603 0 
L 603 3500 
z
M 603 4863 
L 1178 4863 
L 1178 4134 
L 603 4134 
L 603 4863 
z
" id="DejaVuSans-69" transform="scale(0.015625)"/>
      <path d="M 3513 2113 
L 3513 0 
L 2938 0 
L 2938 2094 
Q 2938 2591 2744 2837 
Q 2550 3084 2163 3084 
Q 1697 3084 1428 2787 
Q 1159 2491 1159 1978 
L 1159 0 
L 581 0 
L 581 3500 
L 1159 3500 
L 1159 2956 
Q 1366 3272 1645 3428 
Q 1925 3584 2291 3584 
Q 2894 3584 3203 3211 
Q 3513 2838 3513 2113 
z
" id="DejaVuSans-6e" transform="scale(0.015625)"/>
      <path d="M 2834 3397 
L 2834 2853 
Q 2591 2978 2328 3040 
Q 2066 3103 1784 3103 
Q 1356 3103 1142 2972 
Q 928 2841 928 2578 
Q 928 2378 1081 2264 
Q 1234 2150 1697 2047 
L 1894 2003 
Q 2506 1872 2764 1633 
Q 3022 1394 3022 966 
Q 3022 478 2636 193 
Q 2250 -91 1575 -91 
Q 1294 -91 989 -36 
Q 684 19 347 128 
L 347 722 
Q 666 556 975 473 
Q 1284 391 1588 391 
Q 1994 391 2212 530 
Q 2431 669 2431 922 
Q 2431 1156 2273 1281 
Q 2116 1406 1581 1522 
L 1381 1569 
Q 847 1681 609 1914 
Q 372 2147 372 2553 
Q 372 3047 722 3315 
Q 1072 3584 1716 3584 
Q 2034 3584 2315 3537 
Q 2597 3491 2834 3397 
z
" id="DejaVuSans-73" transform="scale(0.015625)"/>
      <path d="M 1172 4494 
L 1172 3500 
L 2356 3500 
L 2356 3053 
L 1172 3053 
L 1172 1153 
Q 1172 725 1289 603 
Q 1406 481 1766 481 
L 2356 481 
L 2356 0 
L 1766 0 
Q 1100 0 847 248 
Q 594 497 594 1153 
L 594 3053 
L 172 3053 
L 172 3500 
L 594 3500 
L 594 4494 
L 1172 4494 
z
" id="DejaVuSans-74" transform="scale(0.015625)"/>
     </defs>
     <use xlink:href="#DejaVuSans-62"/>
     <use x="63.476562" xlink:href="#DejaVuSans-65"/>
     <use x="125" xlink:href="#DejaVuSans-66"/>
     <use x="160.205078" xlink:href="#DejaVuSans-6f"/>
     <use x="221.386719" xlink:href="#DejaVuSans-72"/>
     <use x="260.25" xlink:href="#DejaVuSans-65"/>
     <use x="321.773438" xlink:href="#DejaVuSans-20"/>
     <use x="353.560547" xlink:href="#DejaVuSans-62"/>
     <use x="417.037109" xlink:href="#DejaVuSans-69"/>
     <use x="444.820312" xlink:href="#DejaVuSans-6e"/>
     <use x="508.199219" xlink:href="#DejaVuSans-61"/>
     <use x="569.478516" xlink:href="#DejaVuSans-72"/>
     <use x="610.591797" xlink:href="#DejaVuSans-69"/>
     <use x="638.375" xlink:href="#DejaVuSans-73"/>
     <use x="690.474609" xlink:href="#DejaVuSans-61"/>
     <use x="751.753906" xlink:href="#DejaVuSans-74"/>
     <use x="790.962891" xlink:href="#DejaVuSans-69"/>
     <use x="818.746094" xlink:href="#DejaVuSans-6f"/>
     <use x="879.927734" xlink:href="#DejaVuSans-6e"/>
    </g>
   </g>
  </g>
  <g id="axes_2">
   <g id="patch_7">
    <path d="M 43.78125 1264.318125 
L 1717.78125 1264.318125 
L 1717.78125 699.77267 
L 43.78125 699.77267 
z
" style="fill:#ffffff;"/>
   </g>
   <g id="matplotlib.axis_3">
    <g id="xtick_8">
     <g id="line2d_14">
      <g>
       <use style="stroke:#000000;stroke-width:0.8;" x="119.872159" xlink:href="#m4261aa7f5d" y="1264.318125"/>
      </g>
     </g>
     <g id="text_16">
      <!-- 0 -->
      <g transform="translate(116.690909 1278.916563)scale(0.1 -0.1)">
       <use xlink:href="#DejaVuSans-30"/>
      </g>
     </g>
    </g>
    <g id="xtick_9">
     <g id="line2d_15">
      <g>
       <use style="stroke:#000000;stroke-width:0.8;" x="367.523613" xlink:href="#m4261aa7f5d" y="1264.318125"/>
      </g>
     </g>
     <g id="text_17">
      <!-- 200 -->
      <g transform="translate(357.979863 1278.916563)scale(0.1 -0.1)">
       <use xlink:href="#DejaVuSans-32"/>
       <use x="63.623047" xlink:href="#DejaVuSans-30"/>
       <use x="127.246094" xlink:href="#DejaVuSans-30"/>
      </g>
     </g>
    </g>
    <g id="xtick_10">
     <g id="line2d_16">
      <g>
       <use style="stroke:#000000;stroke-width:0.8;" x="615.175066" xlink:href="#m4261aa7f5d" y="1264.318125"/>
      </g>
     </g>
     <g id="text_18">
      <!-- 400 -->
      <g transform="translate(605.631316 1278.916563)scale(0.1 -0.1)">
       <use xlink:href="#DejaVuSans-34"/>
       <use x="63.623047" xlink:href="#DejaVuSans-30"/>
       <use x="127.246094" xlink:href="#DejaVuSans-30"/>
      </g>
     </g>
    </g>
    <g id="xtick_11">
     <g id="line2d_17">
      <g>
       <use style="stroke:#000000;stroke-width:0.8;" x="862.82652" xlink:href="#m4261aa7f5d" y="1264.318125"/>
      </g>
     </g>
     <g id="text_19">
      <!-- 600 -->
      <g transform="translate(853.28277 1278.916563)scale(0.1 -0.1)">
       <use xlink:href="#DejaVuSans-36"/>
       <use x="63.623047" xlink:href="#DejaVuSans-30"/>
       <use x="127.246094" xlink:href="#DejaVuSans-30"/>
      </g>
     </g>
    </g>
    <g id="xtick_12">
     <g id="line2d_18">
      <g>
       <use style="stroke:#000000;stroke-width:0.8;" x="1110.477973" xlink:href="#m4261aa7f5d" y="1264.318125"/>
      </g>
     </g>
     <g id="text_20">
      <!-- 800 -->
      <g transform="translate(1100.934223 1278.916563)scale(0.1 -0.1)">
       <use xlink:href="#DejaVuSans-38"/>
       <use x="63.623047" xlink:href="#DejaVuSans-30"/>
       <use x="127.246094" xlink:href="#DejaVuSans-30"/>
      </g>
     </g>
    </g>
    <g id="xtick_13">
     <g id="line2d_19">
      <g>
       <use style="stroke:#000000;stroke-width:0.8;" x="1358.129427" xlink:href="#m4261aa7f5d" y="1264.318125"/>
      </g>
     </g>
     <g id="text_21">
      <!-- 1000 -->
      <g transform="translate(1345.404427 1278.916563)scale(0.1 -0.1)">
       <use xlink:href="#DejaVuSans-31"/>
       <use x="63.623047" xlink:href="#DejaVuSans-30"/>
       <use x="127.246094" xlink:href="#DejaVuSans-30"/>
       <use x="190.869141" xlink:href="#DejaVuSans-30"/>
      </g>
     </g>
    </g>
    <g id="xtick_14">
     <g id="line2d_20">
      <g>
       <use style="stroke:#000000;stroke-width:0.8;" x="1605.78088" xlink:href="#m4261aa7f5d" y="1264.318125"/>
      </g>
     </g>
     <g id="text_22">
      <!-- 1200 -->
      <g transform="translate(1593.05588 1278.916563)scale(0.1 -0.1)">
       <use xlink:href="#DejaVuSans-31"/>
       <use x="63.623047" xlink:href="#DejaVuSans-32"/>
       <use x="127.246094" xlink:href="#DejaVuSans-30"/>
       <use x="190.869141" xlink:href="#DejaVuSans-30"/>
      </g>
     </g>
    </g>
    <g id="text_23">
     <!-- frame -->
     <g transform="translate(865.954687 1292.594688)scale(0.1 -0.1)">
      <use xlink:href="#DejaVuSans-66"/>
      <use x="35.205078" xlink:href="#DejaVuSans-72"/>
      <use x="76.318359" xlink:href="#DejaVuSans-61"/>
      <use x="137.597656" xlink:href="#DejaVuSans-6d"/>
      <use x="235.009766" xlink:href="#DejaVuSans-65"/>
     </g>
    </g>
   </g>
   <g id="matplotlib.axis_4">
    <g id="ytick_6">
     <g id="line2d_21">
      <g>
       <use style="stroke:#000000;stroke-width:0.8;" x="43.78125" xlink:href="#m0f25de5805" y="1238.656968"/>
      </g>
     </g>
     <g id="text_24">
      <!-- 0.0 -->
      <g transform="translate(20.878125 1242.456187)scale(0.1 -0.1)">
       <defs>
        <path d="M 684 794 
L 1344 794 
L 1344 0 
L 684 0 
L 684 794 
z
" id="DejaVuSans-2e" transform="scale(0.015625)"/>
       </defs>
       <use xlink:href="#DejaVuSans-30"/>
       <use x="63.623047" xlink:href="#DejaVuSans-2e"/>
       <use x="95.410156" xlink:href="#DejaVuSans-30"/>
      </g>
     </g>
    </g>
    <g id="ytick_7">
     <g id="line2d_22">
      <g>
       <use style="stroke:#000000;stroke-width:0.8;" x="43.78125" xlink:href="#m0f25de5805" y="1136.01234"/>
      </g>
     </g>
     <g id="text_25">
      <!-- 0.2 -->
      <g transform="translate(20.878125 1139.811559)scale(0.1 -0.1)">
       <use xlink:href="#DejaVuSans-30"/>
       <use x="63.623047" xlink:href="#DejaVuSans-2e"/>
       <use x="95.410156" xlink:href="#DejaVuSans-32"/>
      </g>
     </g>
    </g>
    <g id="ytick_8">
     <g id="line2d_23">
      <g>
       <use style="stroke:#000000;stroke-width:0.8;" x="43.78125" xlink:href="#m0f25de5805" y="1033.367712"/>
      </g>
     </g>
     <g id="text_26">
      <!-- 0.4 -->
      <g transform="translate(20.878125 1037.166931)scale(0.1 -0.1)">
       <use xlink:href="#DejaVuSans-30"/>
       <use x="63.623047" xlink:href="#DejaVuSans-2e"/>
       <use x="95.410156" xlink:href="#DejaVuSans-34"/>
      </g>
     </g>
    </g>
    <g id="ytick_9">
     <g id="line2d_24">
      <g>
       <use style="stroke:#000000;stroke-width:0.8;" x="43.78125" xlink:href="#m0f25de5805" y="930.723084"/>
      </g>
     </g>
     <g id="text_27">
      <!-- 0.6 -->
      <g transform="translate(20.878125 934.522302)scale(0.1 -0.1)">
       <use xlink:href="#DejaVuSans-30"/>
       <use x="63.623047" xlink:href="#DejaVuSans-2e"/>
       <use x="95.410156" xlink:href="#DejaVuSans-36"/>
      </g>
     </g>
    </g>
    <g id="ytick_10">
     <g id="line2d_25">
      <g>
       <use style="stroke:#000000;stroke-width:0.8;" x="43.78125" xlink:href="#m0f25de5805" y="828.078456"/>
      </g>
     </g>
     <g id="text_28">
      <!-- 0.8 -->
      <g transform="translate(20.878125 831.877674)scale(0.1 -0.1)">
       <use xlink:href="#DejaVuSans-30"/>
       <use x="63.623047" xlink:href="#DejaVuSans-2e"/>
       <use x="95.410156" xlink:href="#DejaVuSans-38"/>
      </g>
     </g>
    </g>
    <g id="ytick_11">
     <g id="line2d_26">
      <g>
       <use style="stroke:#000000;stroke-width:0.8;" x="43.78125" xlink:href="#m0f25de5805" y="725.433827"/>
      </g>
     </g>
     <g id="text_29">
      <!-- 1.0 -->
      <g transform="translate(20.878125 729.233046)scale(0.1 -0.1)">
       <use xlink:href="#DejaVuSans-31"/>
       <use x="63.623047" xlink:href="#DejaVuSans-2e"/>
       <use x="95.410156" xlink:href="#DejaVuSans-30"/>
      </g>
     </g>
    </g>
    <g id="text_30">
     <!-- GCaMP -->
     <g transform="translate(14.798437 999.803991)rotate(-90)scale(0.1 -0.1)">
      <use xlink:href="#DejaVuSans-47"/>
      <use x="77.490234" xlink:href="#DejaVuSans-43"/>
      <use x="147.314453" xlink:href="#DejaVuSans-61"/>
      <use x="208.59375" xlink:href="#DejaVuSans-4d"/>
      <use x="294.873047" xlink:href="#DejaVuSans-50"/>
     </g>
    </g>
   </g>
   <g id="line2d_27">
    <path clip-path="url(#p24e86d4a1a)" d="M 119.872159 725.433827 
L 262.271745 725.433827 
L 263.510002 1238.656968 
L 268.463031 1238.656968 
L 269.701288 725.433827 
L 310.563778 725.433827 
L 311.802036 1238.656968 
L 316.755065 1238.656968 
L 317.993322 725.433827 
L 329.137637 725.433827 
L 330.375895 1238.656968 
L 383.620957 1238.656968 
L 384.859214 725.433827 
L 389.812243 725.433827 
L 391.050501 1238.656968 
L 585.456892 1238.656968 
L 586.695149 725.433827 
L 592.886435 725.433827 
L 594.124693 1238.656968 
L 604.030751 1238.656968 
L 605.269008 725.433827 
L 672.1349 725.433827 
L 673.373158 1238.656968 
L 1641.690341 1238.656968 
L 1641.690341 1238.656968 
" style="fill:none;stroke:#008000;stroke-linecap:square;stroke-width:1.5;"/>
   </g>
   <g id="patch_8">
    <path d="M 43.78125 1264.318125 
L 43.78125 699.77267 
" style="fill:none;stroke:#000000;stroke-linecap:square;stroke-linejoin:miter;stroke-width:0.8;"/>
   </g>
   <g id="patch_9">
    <path d="M 1717.78125 1264.318125 
L 1717.78125 699.77267 
" style="fill:none;stroke:#000000;stroke-linecap:square;stroke-linejoin:miter;stroke-width:0.8;"/>
   </g>
   <g id="patch_10">
    <path d="M 43.78125 1264.318125 
L 1717.78125 1264.318125 
" style="fill:none;stroke:#000000;stroke-linecap:square;stroke-linejoin:miter;stroke-width:0.8;"/>
   </g>
   <g id="patch_11">
    <path d="M 43.78125 699.77267 
L 1717.78125 699.77267 
" style="fill:none;stroke:#000000;stroke-linecap:square;stroke-linejoin:miter;stroke-width:0.8;"/>
   </g>
   <g id="text_31">
    <!-- before binarisation -->
    <g transform="translate(824.1825 693.77267)scale(0.12 -0.12)">
     <use xlink:href="#DejaVuSans-62"/>
     <use x="63.476562" xlink:href="#DejaVuSans-65"/>
     <use x="125" xlink:href="#DejaVuSans-66"/>
     <use x="160.205078" xlink:href="#DejaVuSans-6f"/>
     <use x="221.386719" xlink:href="#DejaVuSans-72"/>
     <use x="260.25" xlink:href="#DejaVuSans-65"/>
     <use x="321.773438" xlink:href="#DejaVuSans-20"/>
     <use x="353.560547" xlink:href="#DejaVuSans-62"/>
     <use x="417.037109" xlink:href="#DejaVuSans-69"/>
     <use x="444.820312" xlink:href="#DejaVuSans-6e"/>
     <use x="508.199219" xlink:href="#DejaVuSans-61"/>
     <use x="569.478516" xlink:href="#DejaVuSans-72"/>
     <use x="610.591797" xlink:href="#DejaVuSans-69"/>
     <use x="638.375" xlink:href="#DejaVuSans-73"/>
     <use x="690.474609" xlink:href="#DejaVuSans-61"/>
     <use x="751.753906" xlink:href="#DejaVuSans-74"/>
     <use x="790.962891" xlink:href="#DejaVuSans-69"/>
     <use x="818.746094" xlink:href="#DejaVuSans-6f"/>
     <use x="879.927734" xlink:href="#DejaVuSans-6e"/>
    </g>
   </g>
  </g>
 </g>
 <defs>
  <clipPath id="pcf2d312d77">
   <rect height="564.545455" width="1674" x="43.78125" y="22.318125"/>
  </clipPath>
  <clipPath id="p24e86d4a1a">
   <rect height="564.545455" width="1674" x="43.78125" y="699.77267"/>
  </clipPath>
 </defs>
</svg>
