<?xml version="1.0" encoding="utf-8" standalone="no"?>
<!DOCTYPE svg PUBLIC "-//W3C//DTD SVG 1.1//EN"
  "http://www.w3.org/Graphics/SVG/1.1/DTD/svg11.dtd">
<svg height="1301.874375pt" version="1.1" viewBox="0 0 1731.34375 1301.874375" width="1731.34375pt" xmlns="http://www.w3.org/2000/svg" xmlns:xlink="http://www.w3.org/1999/xlink">
 <metadata>
  <rdf:RDF xmlns:cc="http://creativecommons.org/ns#" xmlns:dc="http://purl.org/dc/elements/1.1/" xmlns:rdf="http://www.w3.org/1999/02/22-rdf-syntax-ns#">
   <cc:Work>
    <dc:type rdf:resource="http://purl.org/dc/dcmitype/StillImage"/>
    <dc:date>2022-07-24T15:54:47.242291</dc:date>
    <dc:format>image/svg+xml</dc:format>
    <dc:creator>
     <cc:Agent>
      <dc:title>Matplotlib v3.4.2, https://matplotlib.org/</dc:title>
     </cc:Agent>
    </dc:creator>
   </cc:Work>
  </rdf:RDF>
 </metadata>
 <defs>
  <style type="text/css">*{stroke-linecap:butt;stroke-linejoin:round;}</style>
 </defs>
 <g id="figure_1">
  <g id="patch_1">
   <path d="M 0 1301.874375 
L 1731.34375 1301.874375 
L 1731.34375 0 
L 0 0 
z
" style="fill:#ffffff;"/>
  </g>
  <g id="axes_1">
   <g id="patch_2">
    <path d="M 50.14375 586.86358 
L 1724.14375 586.86358 
L 1724.14375 22.318125 
L 50.14375 22.318125 
z
" style="fill:#ffffff;"/>
   </g>
   <g id="matplotlib.axis_1">
    <g id="xtick_1">
     <g id="line2d_1">
      <defs>
       <path d="M 0 0 
L 0 3.5 
" id="m9540d16d8f" style="stroke:#000000;stroke-width:0.8;"/>
      </defs>
      <g>
       <use style="stroke:#000000;stroke-width:0.8;" x="126.234659" xlink:href="#m9540d16d8f" y="586.86358"/>
      </g>
     </g>
     <g id="text_1">
      <!-- 0 -->
      <g transform="translate(123.053409 601.462017)scale(0.1 -0.1)">
       <defs>
        <path d="M 2034 4250 
Q 1547 4250 1301 3770 
Q 1056 3291 1056 2328 
Q 1056 1369 1301 889 
Q 1547 409 2034 409 
Q 2525 409 2770 889 
Q 3016 1369 3016 2328 
Q 3016 3291 2770 3770 
Q 2525 4250 2034 4250 
z
M 2034 4750 
Q 2819 4750 3233 4129 
Q 3647 3509 3647 2328 
Q 3647 1150 3233 529 
Q 2819 -91 2034 -91 
Q 1250 -91 836 529 
Q 422 1150 422 2328 
Q 422 3509 836 4129 
Q 1250 4750 2034 4750 
z
" id="DejaVuSans-30" transform="scale(0.015625)"/>
       </defs>
       <use xlink:href="#DejaVuSans-30"/>
      </g>
     </g>
    </g>
    <g id="xtick_2">
     <g id="line2d_2">
      <g>
       <use style="stroke:#000000;stroke-width:0.8;" x="373.886113" xlink:href="#m9540d16d8f" y="586.86358"/>
      </g>
     </g>
     <g id="text_2">
      <!-- 200 -->
      <g transform="translate(364.342363 601.462017)scale(0.1 -0.1)">
       <defs>
        <path d="M 1228 531 
L 3431 531 
L 3431 0 
L 469 0 
L 469 531 
Q 828 903 1448 1529 
Q 2069 2156 2228 2338 
Q 2531 2678 2651 2914 
Q 2772 3150 2772 3378 
Q 2772 3750 2511 3984 
Q 2250 4219 1831 4219 
Q 1534 4219 1204 4116 
Q 875 4013 500 3803 
L 500 4441 
Q 881 4594 1212 4672 
Q 1544 4750 1819 4750 
Q 2544 4750 2975 4387 
Q 3406 4025 3406 3419 
Q 3406 3131 3298 2873 
Q 3191 2616 2906 2266 
Q 2828 2175 2409 1742 
Q 1991 1309 1228 531 
z
" id="DejaVuSans-32" transform="scale(0.015625)"/>
       </defs>
       <use xlink:href="#DejaVuSans-32"/>
       <use x="63.623047" xlink:href="#DejaVuSans-30"/>
       <use x="127.246094" xlink:href="#DejaVuSans-30"/>
      </g>
     </g>
    </g>
    <g id="xtick_3">
     <g id="line2d_3">
      <g>
       <use style="stroke:#000000;stroke-width:0.8;" x="621.537566" xlink:href="#m9540d16d8f" y="586.86358"/>
      </g>
     </g>
     <g id="text_3">
      <!-- 400 -->
      <g transform="translate(611.993816 601.462017)scale(0.1 -0.1)">
       <defs>
        <path d="M 2419 4116 
L 825 1625 
L 2419 1625 
L 2419 4116 
z
M 2253 4666 
L 3047 4666 
L 3047 1625 
L 3713 1625 
L 3713 1100 
L 3047 1100 
L 3047 0 
L 2419 0 
L 2419 1100 
L 313 1100 
L 313 1709 
L 2253 4666 
z
" id="DejaVuSans-34" transform="scale(0.015625)"/>
       </defs>
       <use xlink:href="#DejaVuSans-34"/>
       <use x="63.623047" xlink:href="#DejaVuSans-30"/>
       <use x="127.246094" xlink:href="#DejaVuSans-30"/>
      </g>
     </g>
    </g>
    <g id="xtick_4">
     <g id="line2d_4">
      <g>
       <use style="stroke:#000000;stroke-width:0.8;" x="869.18902" xlink:href="#m9540d16d8f" y="586.86358"/>
      </g>
     </g>
     <g id="text_4">
      <!-- 600 -->
      <g transform="translate(859.64527 601.462017)scale(0.1 -0.1)">
       <defs>
        <path d="M 2113 2584 
Q 1688 2584 1439 2293 
Q 1191 2003 1191 1497 
Q 1191 994 1439 701 
Q 1688 409 2113 409 
Q 2538 409 2786 701 
Q 3034 994 3034 1497 
Q 3034 2003 2786 2293 
Q 2538 2584 2113 2584 
z
M 3366 4563 
L 3366 3988 
Q 3128 4100 2886 4159 
Q 2644 4219 2406 4219 
Q 1781 4219 1451 3797 
Q 1122 3375 1075 2522 
Q 1259 2794 1537 2939 
Q 1816 3084 2150 3084 
Q 2853 3084 3261 2657 
Q 3669 2231 3669 1497 
Q 3669 778 3244 343 
Q 2819 -91 2113 -91 
Q 1303 -91 875 529 
Q 447 1150 447 2328 
Q 447 3434 972 4092 
Q 1497 4750 2381 4750 
Q 2619 4750 2861 4703 
Q 3103 4656 3366 4563 
z
" id="DejaVuSans-36" transform="scale(0.015625)"/>
       </defs>
       <use xlink:href="#DejaVuSans-36"/>
       <use x="63.623047" xlink:href="#DejaVuSans-30"/>
       <use x="127.246094" xlink:href="#DejaVuSans-30"/>
      </g>
     </g>
    </g>
    <g id="xtick_5">
     <g id="line2d_5">
      <g>
       <use style="stroke:#000000;stroke-width:0.8;" x="1116.840473" xlink:href="#m9540d16d8f" y="586.86358"/>
      </g>
     </g>
     <g id="text_5">
      <!-- 800 -->
      <g transform="translate(1107.296723 601.462017)scale(0.1 -0.1)">
       <defs>
        <path d="M 2034 2216 
Q 1584 2216 1326 1975 
Q 1069 1734 1069 1313 
Q 1069 891 1326 650 
Q 1584 409 2034 409 
Q 2484 409 2743 651 
Q 3003 894 3003 1313 
Q 3003 1734 2745 1975 
Q 2488 2216 2034 2216 
z
M 1403 2484 
Q 997 2584 770 2862 
Q 544 3141 544 3541 
Q 544 4100 942 4425 
Q 1341 4750 2034 4750 
Q 2731 4750 3128 4425 
Q 3525 4100 3525 3541 
Q 3525 3141 3298 2862 
Q 3072 2584 2669 2484 
Q 3125 2378 3379 2068 
Q 3634 1759 3634 1313 
Q 3634 634 3220 271 
Q 2806 -91 2034 -91 
Q 1263 -91 848 271 
Q 434 634 434 1313 
Q 434 1759 690 2068 
Q 947 2378 1403 2484 
z
M 1172 3481 
Q 1172 3119 1398 2916 
Q 1625 2713 2034 2713 
Q 2441 2713 2670 2916 
Q 2900 3119 2900 3481 
Q 2900 3844 2670 4047 
Q 2441 4250 2034 4250 
Q 1625 4250 1398 4047 
Q 1172 3844 1172 3481 
z
" id="DejaVuSans-38" transform="scale(0.015625)"/>
       </defs>
       <use xlink:href="#DejaVuSans-38"/>
       <use x="63.623047" xlink:href="#DejaVuSans-30"/>
       <use x="127.246094" xlink:href="#DejaVuSans-30"/>
      </g>
     </g>
    </g>
    <g id="xtick_6">
     <g id="line2d_6">
      <g>
       <use style="stroke:#000000;stroke-width:0.8;" x="1364.491927" xlink:href="#m9540d16d8f" y="586.86358"/>
      </g>
     </g>
     <g id="text_6">
      <!-- 1000 -->
      <g transform="translate(1351.766927 601.462017)scale(0.1 -0.1)">
       <defs>
        <path d="M 794 531 
L 1825 531 
L 1825 4091 
L 703 3866 
L 703 4441 
L 1819 4666 
L 2450 4666 
L 2450 531 
L 3481 531 
L 3481 0 
L 794 0 
L 794 531 
z
" id="DejaVuSans-31" transform="scale(0.015625)"/>
       </defs>
       <use xlink:href="#DejaVuSans-31"/>
       <use x="63.623047" xlink:href="#DejaVuSans-30"/>
       <use x="127.246094" xlink:href="#DejaVuSans-30"/>
       <use x="190.869141" xlink:href="#DejaVuSans-30"/>
      </g>
     </g>
    </g>
    <g id="xtick_7">
     <g id="line2d_7">
      <g>
       <use style="stroke:#000000;stroke-width:0.8;" x="1612.14338" xlink:href="#m9540d16d8f" y="586.86358"/>
      </g>
     </g>
     <g id="text_7">
      <!-- 1200 -->
      <g transform="translate(1599.41838 601.462017)scale(0.1 -0.1)">
       <use xlink:href="#DejaVuSans-31"/>
       <use x="63.623047" xlink:href="#DejaVuSans-32"/>
       <use x="127.246094" xlink:href="#DejaVuSans-30"/>
       <use x="190.869141" xlink:href="#DejaVuSans-30"/>
      </g>
     </g>
    </g>
    <g id="text_8">
     <!-- frame -->
     <g transform="translate(872.317187 615.140142)scale(0.1 -0.1)">
      <defs>
       <path d="M 2375 4863 
L 2375 4384 
L 1825 4384 
Q 1516 4384 1395 4259 
Q 1275 4134 1275 3809 
L 1275 3500 
L 2222 3500 
L 2222 3053 
L 1275 3053 
L 1275 0 
L 697 0 
L 697 3053 
L 147 3053 
L 147 3500 
L 697 3500 
L 697 3744 
Q 697 4328 969 4595 
Q 1241 4863 1831 4863 
L 2375 4863 
z
" id="DejaVuSans-66" transform="scale(0.015625)"/>
       <path d="M 2631 2963 
Q 2534 3019 2420 3045 
Q 2306 3072 2169 3072 
Q 1681 3072 1420 2755 
Q 1159 2438 1159 1844 
L 1159 0 
L 581 0 
L 581 3500 
L 1159 3500 
L 1159 2956 
Q 1341 3275 1631 3429 
Q 1922 3584 2338 3584 
Q 2397 3584 2469 3576 
Q 2541 3569 2628 3553 
L 2631 2963 
z
" id="DejaVuSans-72" transform="scale(0.015625)"/>
       <path d="M 2194 1759 
Q 1497 1759 1228 1600 
Q 959 1441 959 1056 
Q 959 750 1161 570 
Q 1363 391 1709 391 
Q 2188 391 2477 730 
Q 2766 1069 2766 1631 
L 2766 1759 
L 2194 1759 
z
M 3341 1997 
L 3341 0 
L 2766 0 
L 2766 531 
Q 2569 213 2275 61 
Q 1981 -91 1556 -91 
Q 1019 -91 701 211 
Q 384 513 384 1019 
Q 384 1609 779 1909 
Q 1175 2209 1959 2209 
L 2766 2209 
L 2766 2266 
Q 2766 2663 2505 2880 
Q 2244 3097 1772 3097 
Q 1472 3097 1187 3025 
Q 903 2953 641 2809 
L 641 3341 
Q 956 3463 1253 3523 
Q 1550 3584 1831 3584 
Q 2591 3584 2966 3190 
Q 3341 2797 3341 1997 
z
" id="DejaVuSans-61" transform="scale(0.015625)"/>
       <path d="M 3328 2828 
Q 3544 3216 3844 3400 
Q 4144 3584 4550 3584 
Q 5097 3584 5394 3201 
Q 5691 2819 5691 2113 
L 5691 0 
L 5113 0 
L 5113 2094 
Q 5113 2597 4934 2840 
Q 4756 3084 4391 3084 
Q 3944 3084 3684 2787 
Q 3425 2491 3425 1978 
L 3425 0 
L 2847 0 
L 2847 2094 
Q 2847 2600 2669 2842 
Q 2491 3084 2119 3084 
Q 1678 3084 1418 2786 
Q 1159 2488 1159 1978 
L 1159 0 
L 581 0 
L 581 3500 
L 1159 3500 
L 1159 2956 
Q 1356 3278 1631 3431 
Q 1906 3584 2284 3584 
Q 2666 3584 2933 3390 
Q 3200 3197 3328 2828 
z
" id="DejaVuSans-6d" transform="scale(0.015625)"/>
       <path d="M 3597 1894 
L 3597 1613 
L 953 1613 
Q 991 1019 1311 708 
Q 1631 397 2203 397 
Q 2534 397 2845 478 
Q 3156 559 3463 722 
L 3463 178 
Q 3153 47 2828 -22 
Q 2503 -91 2169 -91 
Q 1331 -91 842 396 
Q 353 884 353 1716 
Q 353 2575 817 3079 
Q 1281 3584 2069 3584 
Q 2775 3584 3186 3129 
Q 3597 2675 3597 1894 
z
M 3022 2063 
Q 3016 2534 2758 2815 
Q 2500 3097 2075 3097 
Q 1594 3097 1305 2825 
Q 1016 2553 972 2059 
L 3022 2063 
z
" id="DejaVuSans-65" transform="scale(0.015625)"/>
      </defs>
      <use xlink:href="#DejaVuSans-66"/>
      <use x="35.205078" xlink:href="#DejaVuSans-72"/>
      <use x="76.318359" xlink:href="#DejaVuSans-61"/>
      <use x="137.597656" xlink:href="#DejaVuSans-6d"/>
      <use x="235.009766" xlink:href="#DejaVuSans-65"/>
     </g>
    </g>
   </g>
   <g id="matplotlib.axis_2">
    <g id="ytick_1">
     <g id="line2d_8">
      <defs>
       <path d="M 0 0 
L -3.5 0 
" id="ma4d15c7d25" style="stroke:#000000;stroke-width:0.8;"/>
      </defs>
      <g>
       <use style="stroke:#000000;stroke-width:0.8;" x="50.14375" xlink:href="#ma4d15c7d25" y="561.202423"/>
      </g>
     </g>
     <g id="text_9">
      <!-- 0.00 -->
      <g transform="translate(20.878125 565.001641)scale(0.1 -0.1)">
       <defs>
        <path d="M 684 794 
L 1344 794 
L 1344 0 
L 684 0 
L 684 794 
z
" id="DejaVuSans-2e" transform="scale(0.015625)"/>
       </defs>
       <use xlink:href="#DejaVuSans-30"/>
       <use x="63.623047" xlink:href="#DejaVuSans-2e"/>
       <use x="95.410156" xlink:href="#DejaVuSans-30"/>
       <use x="159.033203" xlink:href="#DejaVuSans-30"/>
      </g>
     </g>
    </g>
    <g id="ytick_2">
     <g id="line2d_9">
      <g>
       <use style="stroke:#000000;stroke-width:0.8;" x="50.14375" xlink:href="#ma4d15c7d25" y="497.630004"/>
      </g>
     </g>
     <g id="text_10">
      <!-- 0.25 -->
      <g transform="translate(20.878125 501.429223)scale(0.1 -0.1)">
       <defs>
        <path d="M 691 4666 
L 3169 4666 
L 3169 4134 
L 1269 4134 
L 1269 2991 
Q 1406 3038 1543 3061 
Q 1681 3084 1819 3084 
Q 2600 3084 3056 2656 
Q 3513 2228 3513 1497 
Q 3513 744 3044 326 
Q 2575 -91 1722 -91 
Q 1428 -91 1123 -41 
Q 819 9 494 109 
L 494 744 
Q 775 591 1075 516 
Q 1375 441 1709 441 
Q 2250 441 2565 725 
Q 2881 1009 2881 1497 
Q 2881 1984 2565 2268 
Q 2250 2553 1709 2553 
Q 1456 2553 1204 2497 
Q 953 2441 691 2322 
L 691 4666 
z
" id="DejaVuSans-35" transform="scale(0.015625)"/>
       </defs>
       <use xlink:href="#DejaVuSans-30"/>
       <use x="63.623047" xlink:href="#DejaVuSans-2e"/>
       <use x="95.410156" xlink:href="#DejaVuSans-32"/>
       <use x="159.033203" xlink:href="#DejaVuSans-35"/>
      </g>
     </g>
    </g>
    <g id="ytick_3">
     <g id="line2d_10">
      <g>
       <use style="stroke:#000000;stroke-width:0.8;" x="50.14375" xlink:href="#ma4d15c7d25" y="434.057585"/>
      </g>
     </g>
     <g id="text_11">
      <!-- 0.50 -->
      <g transform="translate(20.878125 437.856804)scale(0.1 -0.1)">
       <use xlink:href="#DejaVuSans-30"/>
       <use x="63.623047" xlink:href="#DejaVuSans-2e"/>
       <use x="95.410156" xlink:href="#DejaVuSans-35"/>
       <use x="159.033203" xlink:href="#DejaVuSans-30"/>
      </g>
     </g>
    </g>
    <g id="ytick_4">
     <g id="line2d_11">
      <g>
       <use style="stroke:#000000;stroke-width:0.8;" x="50.14375" xlink:href="#ma4d15c7d25" y="370.485166"/>
      </g>
     </g>
     <g id="text_12">
      <!-- 0.75 -->
      <g transform="translate(20.878125 374.284385)scale(0.1 -0.1)">
       <defs>
        <path d="M 525 4666 
L 3525 4666 
L 3525 4397 
L 1831 0 
L 1172 0 
L 2766 4134 
L 525 4134 
L 525 4666 
z
" id="DejaVuSans-37" transform="scale(0.015625)"/>
       </defs>
       <use xlink:href="#DejaVuSans-30"/>
       <use x="63.623047" xlink:href="#DejaVuSans-2e"/>
       <use x="95.410156" xlink:href="#DejaVuSans-37"/>
       <use x="159.033203" xlink:href="#DejaVuSans-35"/>
      </g>
     </g>
    </g>
    <g id="ytick_5">
     <g id="line2d_12">
      <g>
       <use style="stroke:#000000;stroke-width:0.8;" x="50.14375" xlink:href="#ma4d15c7d25" y="306.912748"/>
      </g>
     </g>
     <g id="text_13">
      <!-- 1.00 -->
      <g transform="translate(20.878125 310.711966)scale(0.1 -0.1)">
       <use xlink:href="#DejaVuSans-31"/>
       <use x="63.623047" xlink:href="#DejaVuSans-2e"/>
       <use x="95.410156" xlink:href="#DejaVuSans-30"/>
       <use x="159.033203" xlink:href="#DejaVuSans-30"/>
      </g>
     </g>
    </g>
    <g id="ytick_6">
     <g id="line2d_13">
      <g>
       <use style="stroke:#000000;stroke-width:0.8;" x="50.14375" xlink:href="#ma4d15c7d25" y="243.340329"/>
      </g>
     </g>
     <g id="text_14">
      <!-- 1.25 -->
      <g transform="translate(20.878125 247.139548)scale(0.1 -0.1)">
       <use xlink:href="#DejaVuSans-31"/>
       <use x="63.623047" xlink:href="#DejaVuSans-2e"/>
       <use x="95.410156" xlink:href="#DejaVuSans-32"/>
       <use x="159.033203" xlink:href="#DejaVuSans-35"/>
      </g>
     </g>
    </g>
    <g id="ytick_7">
     <g id="line2d_14">
      <g>
       <use style="stroke:#000000;stroke-width:0.8;" x="50.14375" xlink:href="#ma4d15c7d25" y="179.76791"/>
      </g>
     </g>
     <g id="text_15">
      <!-- 1.50 -->
      <g transform="translate(20.878125 183.567129)scale(0.1 -0.1)">
       <use xlink:href="#DejaVuSans-31"/>
       <use x="63.623047" xlink:href="#DejaVuSans-2e"/>
       <use x="95.410156" xlink:href="#DejaVuSans-35"/>
       <use x="159.033203" xlink:href="#DejaVuSans-30"/>
      </g>
     </g>
    </g>
    <g id="ytick_8">
     <g id="line2d_15">
      <g>
       <use style="stroke:#000000;stroke-width:0.8;" x="50.14375" xlink:href="#ma4d15c7d25" y="116.195492"/>
      </g>
     </g>
     <g id="text_16">
      <!-- 1.75 -->
      <g transform="translate(20.878125 119.99471)scale(0.1 -0.1)">
       <use xlink:href="#DejaVuSans-31"/>
       <use x="63.623047" xlink:href="#DejaVuSans-2e"/>
       <use x="95.410156" xlink:href="#DejaVuSans-37"/>
       <use x="159.033203" xlink:href="#DejaVuSans-35"/>
      </g>
     </g>
    </g>
    <g id="ytick_9">
     <g id="line2d_16">
      <g>
       <use style="stroke:#000000;stroke-width:0.8;" x="50.14375" xlink:href="#ma4d15c7d25" y="52.623073"/>
      </g>
     </g>
     <g id="text_17">
      <!-- 2.00 -->
      <g transform="translate(20.878125 56.422292)scale(0.1 -0.1)">
       <use xlink:href="#DejaVuSans-32"/>
       <use x="63.623047" xlink:href="#DejaVuSans-2e"/>
       <use x="95.410156" xlink:href="#DejaVuSans-30"/>
       <use x="159.033203" xlink:href="#DejaVuSans-30"/>
      </g>
     </g>
    </g>
    <g id="text_18">
     <!-- GCaMP -->
     <g transform="translate(14.798438 322.349446)rotate(-90)scale(0.1 -0.1)">
      <defs>
       <path d="M 3809 666 
L 3809 1919 
L 2778 1919 
L 2778 2438 
L 4434 2438 
L 4434 434 
Q 4069 175 3628 42 
Q 3188 -91 2688 -91 
Q 1594 -91 976 548 
Q 359 1188 359 2328 
Q 359 3472 976 4111 
Q 1594 4750 2688 4750 
Q 3144 4750 3555 4637 
Q 3966 4525 4313 4306 
L 4313 3634 
Q 3963 3931 3569 4081 
Q 3175 4231 2741 4231 
Q 1884 4231 1454 3753 
Q 1025 3275 1025 2328 
Q 1025 1384 1454 906 
Q 1884 428 2741 428 
Q 3075 428 3337 486 
Q 3600 544 3809 666 
z
" id="DejaVuSans-47" transform="scale(0.015625)"/>
       <path d="M 4122 4306 
L 4122 3641 
Q 3803 3938 3442 4084 
Q 3081 4231 2675 4231 
Q 1875 4231 1450 3742 
Q 1025 3253 1025 2328 
Q 1025 1406 1450 917 
Q 1875 428 2675 428 
Q 3081 428 3442 575 
Q 3803 722 4122 1019 
L 4122 359 
Q 3791 134 3420 21 
Q 3050 -91 2638 -91 
Q 1578 -91 968 557 
Q 359 1206 359 2328 
Q 359 3453 968 4101 
Q 1578 4750 2638 4750 
Q 3056 4750 3426 4639 
Q 3797 4528 4122 4306 
z
" id="DejaVuSans-43" transform="scale(0.015625)"/>
       <path d="M 628 4666 
L 1569 4666 
L 2759 1491 
L 3956 4666 
L 4897 4666 
L 4897 0 
L 4281 0 
L 4281 4097 
L 3078 897 
L 2444 897 
L 1241 4097 
L 1241 0 
L 628 0 
L 628 4666 
z
" id="DejaVuSans-4d" transform="scale(0.015625)"/>
       <path d="M 1259 4147 
L 1259 2394 
L 2053 2394 
Q 2494 2394 2734 2622 
Q 2975 2850 2975 3272 
Q 2975 3691 2734 3919 
Q 2494 4147 2053 4147 
L 1259 4147 
z
M 628 4666 
L 2053 4666 
Q 2838 4666 3239 4311 
Q 3641 3956 3641 3272 
Q 3641 2581 3239 2228 
Q 2838 1875 2053 1875 
L 1259 1875 
L 1259 0 
L 628 0 
L 628 4666 
z
" id="DejaVuSans-50" transform="scale(0.015625)"/>
      </defs>
      <use xlink:href="#DejaVuSans-47"/>
      <use x="77.490234" xlink:href="#DejaVuSans-43"/>
      <use x="147.314453" xlink:href="#DejaVuSans-61"/>
      <use x="208.59375" xlink:href="#DejaVuSans-4d"/>
      <use x="294.873047" xlink:href="#DejaVuSans-50"/>
     </g>
    </g>
   </g>
   <g id="line2d_17">
    <path clip-path="url(#p2b7e09403d)" d="M 126.234659 434.121788 
L 127.472916 434.727043 
L 129.949431 436.490162 
L 131.187688 436.800971 
L 132.425945 436.089292 
L 133.664203 434.251791 
L 134.90246 431.445293 
L 137.378974 425.146542 
L 138.617232 422.959191 
L 139.855489 421.871651 
L 141.093746 421.840023 
L 142.332004 422.349251 
L 143.570261 422.619713 
L 144.808518 422.155359 
L 146.046775 420.899859 
L 147.285033 418.849508 
L 148.52329 415.7317 
L 149.761547 411.261265 
L 150.999804 405.592472 
L 153.476319 392.931535 
L 154.714576 387.478498 
L 155.952834 383.750311 
L 157.191091 382.247096 
L 158.429348 382.94162 
L 159.667605 385.003927 
L 160.905863 386.793257 
L 162.14412 386.763158 
L 163.382377 384.406243 
L 164.620634 380.321396 
L 165.858892 375.832331 
L 167.097149 372.497237 
L 168.335406 371.3751 
L 169.573663 372.363331 
L 170.811921 374.248199 
L 172.050178 375.594285 
L 173.288435 375.631598 
L 174.526693 374.370642 
L 177.003207 370.174887 
L 178.241464 368.732947 
L 179.479722 368.490297 
L 180.717979 369.308112 
L 181.956236 370.290651 
L 183.194493 370.525204 
L 185.671008 369.353796 
L 186.909265 369.66149 
L 188.147522 371.077679 
L 189.38578 372.805756 
L 190.624037 373.458963 
L 191.862294 371.960337 
L 193.100552 368.365356 
L 194.338809 363.920586 
L 195.577066 360.209413 
L 196.815323 358.240793 
L 198.053581 358.252165 
L 199.291838 359.865275 
L 201.768352 364.36918 
L 203.00661 365.597883 
L 204.244867 365.565606 
L 205.483124 364.113542 
L 206.721381 361.34734 
L 210.436153 350.112895 
L 211.674411 347.508994 
L 212.912668 345.959571 
L 214.150925 344.821725 
L 215.389182 343.297085 
L 216.62744 340.741493 
L 217.865697 336.746577 
L 221.580469 321.20335 
L 222.818726 318.582051 
L 224.056983 318.449654 
L 225.29524 320.459564 
L 227.771755 326.762665 
L 229.010012 329.429114 
L 230.24827 331.293165 
L 231.486527 332.065378 
L 232.724784 331.69153 
L 233.963041 330.614855 
L 235.201299 329.320195 
L 236.439556 327.726377 
L 237.677813 325.475897 
L 238.91607 322.806136 
L 240.154328 320.64842 
L 241.392585 319.840544 
L 242.630842 320.644728 
L 243.8691 322.840879 
L 246.345614 329.107914 
L 248.822129 335.319035 
L 250.060386 337.856849 
L 251.298643 339.488758 
L 252.5369 340.046981 
L 253.775158 339.698514 
L 255.013415 338.971624 
L 256.251672 338.67318 
L 257.489929 339.396336 
L 258.728187 341.149329 
L 259.966444 343.683515 
L 261.204701 346.937334 
L 263.681216 354.228491 
L 264.919473 356.334162 
L 266.15773 356.284662 
L 267.395988 353.961058 
L 269.872502 345.830634 
L 271.110759 342.830405 
L 272.349017 341.437003 
L 273.587274 341.436737 
L 274.825531 342.659468 
L 276.063788 344.939098 
L 277.302046 347.69981 
L 278.540303 349.955793 
L 279.77856 350.917759 
L 281.016818 350.369866 
L 282.255075 348.358417 
L 283.493332 345.019344 
L 284.731589 340.70005 
L 285.969847 335.620153 
L 287.208104 329.519512 
L 288.446361 322.112076 
L 290.922876 305.552585 
L 292.161133 298.749222 
L 293.39939 294.183599 
L 294.637647 291.965698 
L 295.875905 291.604578 
L 297.114162 292.295066 
L 299.590677 294.345776 
L 303.305448 297.791584 
L 307.02022 300.089728 
L 308.258477 300.273315 
L 309.496735 299.510257 
L 311.973249 296.848133 
L 313.211506 295.388009 
L 314.449764 294.196273 
L 315.688021 294.025502 
L 316.926278 295.102014 
L 318.164536 296.732688 
L 319.402793 297.766728 
L 320.64105 297.142952 
L 321.879307 294.268915 
L 323.117565 289.268899 
L 325.594079 277.462164 
L 326.832336 273.139803 
L 329.308851 266.343108 
L 330.547108 261.861624 
L 334.26188 245.425655 
L 335.500137 242.938186 
L 336.738395 243.216787 
L 337.976652 245.276481 
L 339.214909 247.604286 
L 340.453166 249.001507 
L 341.691424 248.792626 
L 342.929681 246.953162 
L 345.406195 241.688829 
L 346.644453 240.152768 
L 347.88271 239.661115 
L 349.120967 239.697276 
L 350.359225 239.563688 
L 351.597482 238.720886 
L 354.073996 235.924574 
L 355.312254 235.517026 
L 356.550511 236.391207 
L 357.788768 238.856685 
L 359.027025 242.908764 
L 360.265283 247.392017 
L 361.50354 250.305203 
L 362.741797 250.237504 
L 363.980054 247.25797 
L 366.456569 238.122342 
L 367.694826 234.860965 
L 368.933084 233.099677 
L 370.171341 232.104865 
L 371.409598 230.825401 
L 372.647855 228.591916 
L 377.600884 216.139018 
L 380.077399 209.681038 
L 383.792171 201.303303 
L 385.030428 199.174329 
L 386.268685 198.53131 
L 387.506943 199.083708 
L 388.7452 200.093789 
L 389.983457 201.788337 
L 391.221714 204.982947 
L 394.936486 219.035519 
L 396.174743 222.679959 
L 397.413001 225.790302 
L 398.651258 227.864541 
L 399.889515 227.778601 
L 401.127772 225.082375 
L 404.842544 212.709922 
L 406.080802 209.757626 
L 407.319059 208.412832 
L 408.557316 208.585082 
L 409.795573 208.879918 
L 411.033831 207.949175 
L 412.272088 205.953581 
L 413.510345 204.258982 
L 414.748602 203.562656 
L 415.98686 203.302925 
L 417.225117 203.237371 
L 418.463374 204.14996 
L 419.701632 206.545193 
L 422.178146 212.734213 
L 423.416403 214.747077 
L 424.654661 215.62113 
L 425.892918 215.21776 
L 427.131175 213.629379 
L 429.60769 209.53938 
L 433.322461 204.391311 
L 434.560719 202.208261 
L 435.798976 199.363715 
L 438.275491 192.58519 
L 439.513748 189.858051 
L 440.752005 188.146941 
L 441.990262 187.50565 
L 443.22852 188.268828 
L 444.466777 190.832916 
L 445.705034 194.954738 
L 448.181549 204.794286 
L 449.419806 208.433535 
L 450.658063 209.607901 
L 451.89632 207.796111 
L 453.134578 203.596609 
L 454.372835 198.782881 
L 455.611092 195.649695 
L 456.84935 195.83386 
L 458.087607 199.698281 
L 459.325864 206.283289 
L 460.564121 213.618473 
L 461.802379 219.628412 
L 463.040636 223.097532 
L 464.278893 223.926844 
L 465.51715 222.507692 
L 466.755408 219.319206 
L 467.993665 215.480445 
L 469.231922 212.559619 
L 470.470179 211.090822 
L 471.708437 210.143945 
L 472.946694 208.661159 
L 474.184951 206.398634 
L 476.661466 200.748376 
L 477.899723 198.98907 
L 479.13798 199.195085 
L 480.376238 201.284803 
L 481.614495 204.529107 
L 485.329267 216.158304 
L 486.567524 217.61768 
L 487.805781 216.936568 
L 489.044038 216.022513 
L 490.282296 216.578743 
L 491.520553 218.780556 
L 493.997068 224.876104 
L 495.235325 226.811153 
L 496.473582 227.271447 
L 497.711839 226.772741 
L 498.950097 226.118712 
L 500.188354 225.290905 
L 501.426611 223.972203 
L 502.664868 222.879287 
L 503.903126 223.226082 
L 505.141383 225.230456 
L 507.617897 230.621748 
L 508.856155 232.003937 
L 510.094412 231.336776 
L 511.332669 228.196304 
L 513.809184 217.527256 
L 515.047441 213.562351 
L 516.285698 212.136939 
L 517.523956 212.651687 
L 518.762213 214.237719 
L 520.00047 216.890865 
L 522.476985 224.661768 
L 523.715242 226.994566 
L 524.953499 226.500127 
L 526.191757 223.338538 
L 527.430014 218.525972 
L 532.383043 196.415677 
L 533.6213 193.230822 
L 534.859557 191.695866 
L 536.097815 192.181804 
L 537.336072 194.647827 
L 538.574329 198.389905 
L 542.289101 211.748195 
L 543.527358 214.050185 
L 544.765616 214.638701 
L 546.003873 214.53851 
L 547.24213 214.898421 
L 548.480387 216.139242 
L 549.718645 217.565564 
L 550.956902 218.324925 
L 552.195159 218.277233 
L 553.433416 217.509671 
L 554.671674 216.086995 
L 555.909931 214.177319 
L 557.148188 211.40499 
L 558.386445 206.920255 
L 562.101217 188.44275 
L 563.339475 184.81816 
L 564.577732 184.007043 
L 565.815989 185.567107 
L 567.054246 187.754445 
L 568.292504 188.702008 
L 569.530761 187.687807 
L 570.769018 185.119983 
L 572.007275 181.382663 
L 573.245533 176.238766 
L 575.722047 163.186261 
L 576.960304 158.188825 
L 578.198562 155.940284 
L 579.436819 156.784962 
L 580.675076 159.812415 
L 581.913334 163.23631 
L 583.151591 165.69647 
L 584.389848 167.063866 
L 588.10462 170.081915 
L 589.342877 169.817725 
L 590.581134 167.532122 
L 591.819392 163.064519 
L 593.057649 156.475802 
L 594.295906 147.711512 
L 595.534163 137.583789 
L 596.772421 128.570712 
L 598.010678 123.376006 
L 599.248935 122.666564 
L 600.487193 125.05118 
L 601.72545 129.028985 
L 602.963707 134.134076 
L 605.440222 145.601749 
L 606.678479 149.924924 
L 610.393251 160.78736 
L 611.631508 163.295577 
L 612.869765 164.648106 
L 614.108023 165.002284 
L 615.34628 164.487891 
L 617.822794 162.169165 
L 619.061052 161.819489 
L 620.299309 162.555663 
L 621.537566 164.177866 
L 622.775823 166.724873 
L 624.014081 170.607485 
L 626.490595 180.841285 
L 627.728852 184.715542 
L 628.96711 186.946848 
L 630.205367 188.42679 
L 631.443624 190.372242 
L 632.681882 193.035573 
L 633.920139 195.423109 
L 635.158396 196.342682 
L 636.396653 195.778629 
L 637.634911 194.861233 
L 638.873168 194.593424 
L 640.111425 195.094605 
L 641.349682 195.900736 
L 642.58794 196.866504 
L 643.826197 198.460334 
L 645.064454 201.01014 
L 646.302711 204.405084 
L 647.540969 208.565494 
L 648.779226 213.601575 
L 651.255741 225.417541 
L 652.493998 229.748281 
L 653.732255 230.985795 
L 654.970512 229.160927 
L 657.447027 221.929201 
L 658.685284 218.052685 
L 659.923541 213.539973 
L 662.400056 203.08448 
L 663.638313 199.765072 
L 664.87657 198.938655 
L 667.353085 200.118187 
L 669.8296 200.663038 
L 671.067857 200.369528 
L 672.306114 198.500938 
L 673.544371 194.539864 
L 677.259143 178.881115 
L 678.4974 174.279496 
L 679.735658 169.145583 
L 680.973915 162.569181 
L 683.450429 145.658166 
L 684.688687 137.319721 
L 685.926944 130.047206 
L 689.641716 111.007111 
L 690.879973 103.502353 
L 697.071259 62.17502 
L 698.309517 55.255366 
L 699.547774 50.262579 
L 700.786031 47.979282 
L 702.024289 48.35843 
L 703.262546 50.366573 
L 705.73906 55.698814 
L 706.977318 59.053916 
L 710.692089 71.323628 
L 711.930347 72.891485 
L 713.168604 71.81276 
L 714.406861 68.542051 
L 715.645118 64.541269 
L 716.883376 61.362757 
L 718.121633 59.612194 
L 719.35989 59.374234 
L 720.598148 61.042663 
L 721.836405 64.8693 
L 724.312919 76.040037 
L 726.789434 86.736159 
L 728.027691 90.97336 
L 730.504206 97.286792 
L 731.742463 101.803044 
L 734.218977 114.215493 
L 735.457235 118.927468 
L 736.695492 120.792022 
L 737.933749 119.950688 
L 739.172007 117.888564 
L 740.410264 116.789568 
L 741.648521 118.662039 
L 742.886778 124.36212 
L 746.60155 150.223362 
L 747.839807 156.350368 
L 749.078065 159.799483 
L 750.316322 160.199782 
L 751.554579 158.416766 
L 752.792836 156.172338 
L 754.031094 154.860697 
L 755.269351 154.924749 
L 756.507608 155.956474 
L 758.984123 158.40597 
L 760.22238 159.213916 
L 761.460637 159.061771 
L 762.698895 157.716799 
L 763.937152 156.096615 
L 765.175409 155.574063 
L 766.413666 157.001518 
L 767.651924 160.580131 
L 768.890181 165.98309 
L 771.366695 178.082934 
L 772.604953 181.909636 
L 773.84321 183.034638 
L 775.081467 181.010404 
L 776.319725 175.841897 
L 777.557982 169.074944 
L 778.796239 163.228857 
L 780.034496 159.859535 
L 781.272754 159.136264 
L 782.511011 160.743424 
L 783.749268 164.043127 
L 786.225783 172.029417 
L 789.940554 184.631024 
L 791.178812 186.462255 
L 792.417069 186.023848 
L 793.655326 183.519861 
L 794.893584 179.38921 
L 797.370098 169.067021 
L 798.608355 163.355332 
L 802.323127 145.02941 
L 803.561384 141.419346 
L 804.799642 141.585904 
L 806.037899 146.400566 
L 807.276156 155.34983 
L 809.752671 178.125086 
L 810.990928 187.643412 
L 812.229185 195.083853 
L 815.943957 213.75455 
L 817.182214 218.678595 
L 818.420472 221.01205 
L 819.658729 220.10804 
L 820.896986 216.671481 
L 822.135243 212.497154 
L 823.373501 209.333214 
L 824.611758 207.71777 
L 827.088273 206.542681 
L 828.32653 204.862685 
L 829.564787 201.27424 
L 830.803044 195.84165 
L 832.041302 189.615979 
L 833.279559 184.585329 
L 834.517816 182.90541 
L 835.756073 185.339482 
L 836.994331 190.242798 
L 838.232588 194.435851 
L 839.470845 195.422541 
L 840.709102 193.022108 
L 841.94736 189.318185 
L 843.185617 186.861538 
L 844.423874 186.425829 
L 845.662132 186.669677 
L 846.900389 185.70089 
L 848.138646 182.687651 
L 849.376903 178.526359 
L 850.615161 175.033038 
L 851.853418 173.523003 
L 853.091675 174.232622 
L 855.56819 178.789724 
L 856.806447 180.177876 
L 858.044704 180.308053 
L 859.282961 180.173429 
L 860.521219 181.000476 
L 861.759476 182.619581 
L 862.997733 183.593713 
L 864.235991 182.892095 
L 865.474248 180.981387 
L 866.712505 179.602705 
L 867.950762 180.574548 
L 869.18902 184.416496 
L 872.903791 201.040549 
L 874.142049 205.383091 
L 875.380306 209.083121 
L 876.618563 211.740033 
L 877.85682 212.449556 
L 879.095078 210.492451 
L 880.333335 206.177878 
L 881.571592 201.060071 
L 882.80985 197.293302 
L 884.048107 196.475369 
L 885.286364 198.553098 
L 886.524621 201.769554 
L 887.762879 204.030208 
L 890.239393 205.633174 
L 891.47765 207.983457 
L 892.715908 211.556049 
L 893.954165 214.517532 
L 895.192422 214.929102 
L 896.43068 212.563185 
L 897.668937 209.880211 
L 898.907194 209.874526 
L 900.145451 213.009054 
L 901.383709 217.701742 
L 902.621966 223.027612 
L 903.860223 229.293379 
L 906.336738 243.570845 
L 907.574995 248.069585 
L 908.813252 247.813777 
L 910.051509 242.306472 
L 913.766281 215.129991 
L 915.004539 209.74792 
L 916.242796 207.37107 
L 917.481053 208.132858 
L 918.71931 212.132355 
L 919.957568 218.847351 
L 922.434082 234.687689 
L 923.672339 240.639372 
L 924.910597 244.339488 
L 926.148854 245.848242 
L 927.387111 245.427176 
L 928.625368 243.460428 
L 929.863626 240.224256 
L 933.578398 228.090267 
L 934.816655 225.473423 
L 936.054912 225.010805 
L 937.293169 227.795834 
L 938.531427 234.169415 
L 941.007941 251.813594 
L 942.246198 258.324381 
L 943.484456 261.953418 
L 944.722713 264.014927 
L 945.96097 266.30518 
L 947.199227 269.660196 
L 949.675742 277.509318 
L 950.913999 280.166827 
L 952.152257 281.098358 
L 953.390514 280.563348 
L 954.628771 279.775276 
L 955.867028 279.897089 
L 957.105286 281.286431 
L 958.343543 284.113914 
L 959.5818 288.640128 
L 960.820057 294.304314 
L 962.058315 299.409332 
L 963.296572 302.374779 
L 964.534829 303.047666 
L 967.011344 302.116782 
L 968.249601 302.271116 
L 969.487858 302.651559 
L 970.726116 302.739104 
L 973.20263 302.175585 
L 974.440887 303.052128 
L 975.679145 305.822234 
L 978.155659 314.149138 
L 979.393916 317.418007 
L 980.632174 319.338231 
L 981.870431 320.169194 
L 985.585203 321.614473 
L 986.82346 321.989044 
L 988.061717 322.884457 
L 989.299975 324.488834 
L 990.538232 326.312236 
L 991.776489 327.434725 
L 993.014746 327.033323 
L 994.253004 324.957855 
L 995.491261 321.466691 
L 996.729518 316.527282 
L 1000.44429 298.276456 
L 1001.682547 295.191664 
L 1002.920805 295.056162 
L 1004.159062 297.767635 
L 1006.635576 306.209989 
L 1007.873834 309.055302 
L 1009.112091 309.901683 
L 1010.350348 307.931036 
L 1011.588605 303.057476 
L 1014.06512 290.834433 
L 1015.303377 286.906238 
L 1016.541634 284.725666 
L 1017.779892 282.992986 
L 1019.018149 280.197762 
L 1020.256406 275.291204 
L 1021.494664 268.145975 
L 1022.732921 260.150686 
L 1023.971178 253.776766 
L 1025.209435 250.682227 
L 1026.447693 250.63426 
L 1027.68595 252.386814 
L 1028.924207 254.563712 
L 1030.162464 255.710062 
L 1031.400722 254.579098 
L 1032.638979 250.640605 
L 1033.877236 244.424418 
L 1035.115493 237.531282 
L 1036.353751 231.665172 
L 1037.592008 227.327203 
L 1038.830265 223.896785 
L 1040.068523 220.952391 
L 1041.30678 219.254349 
L 1042.545037 220.389011 
L 1043.783294 225.231299 
L 1045.021552 233.118441 
L 1047.498066 251.897838 
L 1048.736323 259.473009 
L 1049.974581 264.412022 
L 1051.212838 266.577087 
L 1052.451095 265.992885 
L 1053.689352 262.941607 
L 1056.165867 253.971512 
L 1057.404124 251.723978 
L 1058.642382 253.074751 
L 1059.880639 257.698564 
L 1061.118896 263.563056 
L 1062.357153 268.254226 
L 1063.595411 270.398948 
L 1064.833668 269.931362 
L 1066.071925 267.551106 
L 1068.54844 261.428509 
L 1069.786697 259.178711 
L 1071.024954 257.564429 
L 1072.263211 256.58396 
L 1073.501469 256.549061 
L 1074.739726 257.850422 
L 1075.977983 260.592926 
L 1078.454498 267.991763 
L 1079.692755 270.277027 
L 1080.931012 270.322354 
L 1082.16927 269.002496 
L 1083.407527 268.721091 
L 1084.645784 271.289878 
L 1085.884041 276.554746 
L 1087.122299 282.954663 
L 1088.360556 288.499159 
L 1089.598813 291.451797 
L 1090.837071 291.045269 
L 1092.075328 287.991717 
L 1093.313585 284.26524 
L 1094.551842 282.041307 
L 1095.7901 282.329517 
L 1097.028357 284.468425 
L 1099.504871 290.142533 
L 1100.743129 292.507443 
L 1101.981386 293.044337 
L 1103.219643 290.95662 
L 1105.696158 283.002085 
L 1106.934415 280.109811 
L 1108.172672 279.145569 
L 1109.41093 280.276827 
L 1111.887444 285.385041 
L 1113.125701 286.201825 
L 1114.363959 283.953026 
L 1115.602216 278.583108 
L 1119.316988 257.09989 
L 1120.555245 252.238348 
L 1121.793502 249.272393 
L 1123.031759 248.633154 
L 1124.270017 250.688687 
L 1125.508274 254.907605 
L 1126.746531 259.943423 
L 1127.984789 264.418943 
L 1129.223046 267.395396 
L 1130.461303 268.794167 
L 1131.69956 269.569039 
L 1132.937818 270.822902 
L 1134.176075 272.917503 
L 1135.414332 275.643867 
L 1136.652589 278.887362 
L 1137.890847 282.932988 
L 1141.605618 298.162666 
L 1142.843876 300.936543 
L 1144.082133 301.59162 
L 1145.32039 300.771143 
L 1146.558648 298.833026 
L 1147.796905 295.932003 
L 1149.035162 292.517063 
L 1150.273419 288.606593 
L 1151.511677 283.636854 
L 1155.226448 265.542561 
L 1156.464706 260.98698 
L 1157.702963 258.679062 
L 1158.94122 258.789724 
L 1160.179477 260.459367 
L 1161.417735 263.205509 
L 1162.655992 267.871388 
L 1163.894249 275.478029 
L 1165.132507 285.108708 
L 1166.370764 293.651611 
L 1167.609021 298.086723 
L 1168.847278 297.530354 
L 1170.085536 293.169164 
L 1171.323793 287.276399 
L 1172.56205 282.534324 
L 1173.800307 281.112844 
L 1175.038565 283.479394 
L 1177.515079 293.090055 
L 1178.753337 296.340438 
L 1179.991594 297.41157 
L 1181.229851 296.856956 
L 1182.468108 296.043369 
L 1183.706366 296.30634 
L 1186.18288 299.438087 
L 1187.421137 299.480047 
L 1188.659395 297.028365 
L 1189.897652 292.137181 
L 1191.135909 284.994015 
L 1192.374166 275.628324 
L 1193.612424 265.279557 
L 1194.850681 257.136149 
L 1196.088938 253.785976 
L 1197.327196 254.439664 
L 1199.80371 258.338688 
L 1201.041967 260.116482 
L 1202.280225 261.492761 
L 1203.518482 262.08659 
L 1204.756739 262.389353 
L 1205.994996 263.318952 
L 1207.233254 264.61828 
L 1208.471511 264.527695 
L 1209.709768 261.178335 
L 1210.948025 254.058876 
L 1212.186283 244.815748 
L 1213.42454 236.751691 
L 1214.662797 232.667111 
L 1215.901055 233.032948 
L 1217.139312 236.463574 
L 1218.377569 241.398389 
L 1222.092341 257.857563 
L 1223.330598 262.354002 
L 1224.568855 265.790989 
L 1225.807113 268.312011 
L 1227.04537 270.139438 
L 1229.521884 272.953707 
L 1230.760142 275.172945 
L 1233.236656 281.360157 
L 1234.474914 283.206076 
L 1235.713171 283.495801 
L 1236.951428 282.151646 
L 1238.189685 279.25476 
L 1239.427943 275.808163 
L 1240.6662 273.286302 
L 1241.904457 272.193689 
L 1243.142714 272.06024 
L 1244.380972 272.312574 
L 1245.619229 272.34503 
L 1246.857486 271.674655 
L 1248.095743 270.530483 
L 1249.334001 269.856332 
L 1250.572258 270.293258 
L 1251.810515 271.065876 
L 1253.048773 270.491838 
L 1254.28703 267.537131 
L 1256.763544 258.261073 
L 1258.001802 256.013851 
L 1259.240059 256.491733 
L 1260.478316 259.030297 
L 1264.193088 269.933373 
L 1266.669603 275.477626 
L 1269.146117 282.304458 
L 1270.384374 284.76503 
L 1271.622632 285.200161 
L 1272.860889 283.166141 
L 1274.099146 278.550415 
L 1275.337403 271.703103 
L 1277.813918 256.335759 
L 1279.052175 250.624122 
L 1280.290432 247.528574 
L 1281.52869 247.471003 
L 1282.766947 250.338938 
L 1284.005204 255.389728 
L 1285.243462 260.959881 
L 1286.481719 265.225252 
L 1287.719976 267.742198 
L 1288.958233 269.516936 
L 1290.196491 271.703941 
L 1291.434748 274.876648 
L 1293.911262 283.710733 
L 1295.14952 287.099627 
L 1296.387777 287.44323 
L 1297.626034 283.662243 
L 1298.864291 275.918412 
L 1301.340806 256.463346 
L 1302.579063 250.897071 
L 1303.817321 250.715833 
L 1305.055578 254.817401 
L 1306.293835 260.460885 
L 1307.532092 265.264393 
L 1308.77035 268.803394 
L 1310.008607 272.720268 
L 1311.246864 279.007137 
L 1312.485121 288.148302 
L 1314.961636 308.849987 
L 1316.199893 316.656146 
L 1317.43815 321.353744 
L 1318.676408 322.582334 
L 1319.914665 320.28516 
L 1321.152922 314.769611 
L 1322.39118 306.466654 
L 1323.629437 295.483508 
L 1327.344209 254.992413 
L 1328.582466 247.2926 
L 1329.820723 245.452047 
L 1331.05898 248.119717 
L 1332.297238 253.327235 
L 1334.773752 265.900258 
L 1336.012009 270.236591 
L 1337.250267 271.220505 
L 1338.488524 267.994088 
L 1339.726781 260.83978 
L 1340.965039 251.868577 
L 1342.203296 244.331322 
L 1343.441553 240.722301 
L 1344.67981 241.431813 
L 1345.918068 244.544362 
L 1347.156325 246.439136 
L 1348.394582 243.238787 
L 1349.632839 233.212772 
L 1350.871097 218.982414 
L 1352.109354 206.941689 
L 1353.347611 202.817844 
L 1354.585868 207.519927 
L 1355.824126 217.775469 
L 1358.30064 240.692694 
L 1359.538898 250.313611 
L 1360.777155 257.870185 
L 1362.015412 262.161307 
L 1363.253669 262.241091 
L 1364.491927 258.093503 
L 1365.730184 250.424974 
L 1368.206698 230.51227 
L 1369.444956 222.649611 
L 1370.683213 218.911854 
L 1371.92147 219.904638 
L 1373.159728 224.392865 
L 1376.874499 241.28968 
L 1380.589271 261.215975 
L 1381.827528 264.083689 
L 1383.065786 262.897577 
L 1384.304043 256.902983 
L 1385.5423 246.353975 
L 1388.018815 220.120495 
L 1389.257072 209.132831 
L 1390.495329 201.756728 
L 1391.733587 199.367721 
L 1392.971844 202.328461 
L 1394.210101 209.338839 
L 1396.686616 227.13893 
L 1397.924873 235.010013 
L 1399.16313 241.59449 
L 1400.401387 246.276529 
L 1401.639645 248.092478 
L 1402.877902 246.569034 
L 1404.116159 241.993138 
L 1405.354416 235.185783 
L 1407.830931 219.342363 
L 1409.069188 213.449996 
L 1410.307446 210.836326 
L 1411.545703 211.205521 
L 1412.78396 213.113623 
L 1414.022217 215.314122 
L 1415.260475 217.06499 
L 1416.498732 218.006973 
L 1417.736989 218.399957 
L 1418.975246 218.604233 
L 1420.213504 218.15059 
L 1421.451761 216.772363 
L 1422.690018 216.208304 
L 1423.928275 218.727925 
L 1426.40479 228.866857 
L 1427.643047 231.316768 
L 1428.881305 231.261102 
L 1430.119562 229.792045 
L 1431.357819 228.116763 
L 1432.596076 227.4798 
L 1433.834334 228.68908 
L 1435.072591 231.868001 
L 1436.310848 236.741493 
L 1437.549105 242.219086 
L 1438.787363 246.316248 
L 1440.02562 247.920392 
L 1441.263877 247.848766 
L 1442.502134 247.4015 
L 1443.740392 247.08136 
L 1444.978649 246.915289 
L 1446.216906 247.119343 
L 1447.455164 248.211659 
L 1448.693421 250.34001 
L 1449.931678 252.843263 
L 1453.64645 259.687681 
L 1454.884707 262.342689 
L 1456.122964 264.412986 
L 1457.361222 265.176215 
L 1458.599479 264.358478 
L 1459.837736 262.780891 
L 1461.075994 262.458653 
L 1462.314251 264.7636 
L 1463.552508 268.610899 
L 1464.790765 271.520061 
L 1466.029023 272.192017 
L 1468.505537 270.664017 
L 1469.743794 271.184407 
L 1470.982052 273.124624 
L 1472.220309 276.261408 
L 1474.696823 283.556562 
L 1475.935081 286.526974 
L 1477.173338 288.161447 
L 1478.411595 287.19385 
L 1479.649853 283.133082 
L 1482.126367 271.764479 
L 1483.364624 268.268947 
L 1484.602882 266.739702 
L 1487.079396 265.626882 
L 1488.317653 264.865198 
L 1489.555911 263.834665 
L 1490.794168 262.04486 
L 1492.032425 258.578108 
L 1494.50894 248.452489 
L 1495.747197 245.598295 
L 1496.985454 245.45019 
L 1498.223712 247.428754 
L 1499.461969 250.71833 
L 1500.700226 254.360673 
L 1501.938483 257.432944 
L 1503.176741 259.925559 
L 1504.414998 262.837879 
L 1505.653255 267.010654 
L 1506.891512 272.485392 
L 1508.12977 278.565401 
L 1509.368027 283.824751 
L 1510.606284 286.801799 
L 1511.844541 286.84361 
L 1513.082799 283.981469 
L 1514.321056 278.85163 
L 1515.559313 272.934481 
L 1516.797571 268.052917 
L 1518.035828 265.677109 
L 1519.274085 266.413784 
L 1520.512342 269.452551 
L 1522.988857 276.960588 
L 1524.227114 280.283481 
L 1527.941886 288.625604 
L 1529.180143 291.164085 
L 1530.4184 292.181434 
L 1531.656658 290.057821 
L 1532.894915 283.768221 
L 1534.133172 273.545271 
L 1535.37143 261.226635 
L 1536.609687 250.069487 
L 1537.847944 243.175098 
L 1539.086201 241.64501 
L 1540.324459 244.380825 
L 1541.562716 249.548911 
L 1544.03923 262.395724 
L 1545.277488 268.904229 
L 1546.515745 274.741476 
L 1547.754002 279.06272 
L 1548.99226 281.473155 
L 1550.230517 281.945324 
L 1551.468774 280.140274 
L 1552.707031 275.761862 
L 1555.183546 263.434602 
L 1556.421803 259.283846 
L 1557.66006 258.112715 
L 1558.898318 260.122278 
L 1560.136575 264.855292 
L 1562.613089 277.473417 
L 1563.851347 282.596674 
L 1565.089604 286.118714 
L 1566.327861 288.297835 
L 1567.566119 289.305615 
L 1568.804376 288.989961 
L 1571.28089 286.061165 
L 1572.519148 285.137088 
L 1573.757405 284.445928 
L 1574.995662 283.154536 
L 1576.233919 280.983093 
L 1577.472177 278.07096 
L 1578.710434 273.897715 
L 1579.948691 266.808423 
L 1581.186948 255.09409 
L 1582.425206 238.574059 
L 1584.90172 201.137629 
L 1586.139978 189.174947 
L 1587.378235 186.084802 
L 1588.616492 190.369423 
L 1589.854749 198.105848 
L 1592.331264 215.316369 
L 1594.807778 232.695833 
L 1597.284293 246.888946 
L 1598.52255 253.829238 
L 1599.760807 260.115531 
L 1600.999065 263.50911 
L 1602.237322 262.151104 
L 1603.475579 256.151696 
L 1604.713837 247.752224 
L 1605.952094 240.464201 
L 1607.190351 237.528019 
L 1608.428608 240.692809 
L 1609.666866 249.508038 
L 1610.905123 261.030618 
L 1612.14338 271.2408 
L 1613.381637 277.463679 
L 1614.619895 279.281295 
L 1615.858152 277.735918 
L 1617.096409 274.283783 
L 1618.334666 270.431767 
L 1619.572924 267.731975 
L 1620.811181 267.341078 
L 1622.049438 561.202423 
L 1623.287696 272.9719 
L 1624.525953 276.333678 
L 1625.76421 278.176485 
L 1627.002467 278.526012 
L 1628.240725 278.701152 
L 1629.478982 280.288789 
L 1630.717239 284.003628 
L 1633.193754 294.773115 
L 1634.432011 298.11281 
L 1635.670268 297.641823 
L 1636.908526 293.404059 
L 1638.146783 287.26947 
L 1639.38504 281.806985 
L 1640.623297 278.95454 
L 1641.861555 279.213303 
L 1643.099812 281.182203 
L 1644.338069 281.449633 
L 1645.576326 275.919798 
L 1646.814584 262.484037 
L 1648.052841 243.196746 
L 1648.052841 243.196746 
" style="fill:none;stroke:#008000;stroke-linecap:square;stroke-width:1.5;"/>
   </g>
   <g id="patch_3">
    <path d="M 50.14375 586.86358 
L 50.14375 22.318125 
" style="fill:none;stroke:#000000;stroke-linecap:square;stroke-linejoin:miter;stroke-width:0.8;"/>
   </g>
   <g id="patch_4">
    <path d="M 1724.14375 586.86358 
L 1724.14375 22.318125 
" style="fill:none;stroke:#000000;stroke-linecap:square;stroke-linejoin:miter;stroke-width:0.8;"/>
   </g>
   <g id="patch_5">
    <path d="M 50.14375 586.86358 
L 1724.14375 586.86358 
" style="fill:none;stroke:#000000;stroke-linecap:square;stroke-linejoin:miter;stroke-width:0.8;"/>
   </g>
   <g id="patch_6">
    <path d="M 50.14375 22.318125 
L 1724.14375 22.318125 
" style="fill:none;stroke:#000000;stroke-linecap:square;stroke-linejoin:miter;stroke-width:0.8;"/>
   </g>
   <g id="text_19">
    <!-- before binarisation -->
    <g transform="translate(830.545 16.318125)scale(0.12 -0.12)">
     <defs>
      <path d="M 3116 1747 
Q 3116 2381 2855 2742 
Q 2594 3103 2138 3103 
Q 1681 3103 1420 2742 
Q 1159 2381 1159 1747 
Q 1159 1113 1420 752 
Q 1681 391 2138 391 
Q 2594 391 2855 752 
Q 3116 1113 3116 1747 
z
M 1159 2969 
Q 1341 3281 1617 3432 
Q 1894 3584 2278 3584 
Q 2916 3584 3314 3078 
Q 3713 2572 3713 1747 
Q 3713 922 3314 415 
Q 2916 -91 2278 -91 
Q 1894 -91 1617 61 
Q 1341 213 1159 525 
L 1159 0 
L 581 0 
L 581 4863 
L 1159 4863 
L 1159 2969 
z
" id="DejaVuSans-62" transform="scale(0.015625)"/>
      <path d="M 1959 3097 
Q 1497 3097 1228 2736 
Q 959 2375 959 1747 
Q 959 1119 1226 758 
Q 1494 397 1959 397 
Q 2419 397 2687 759 
Q 2956 1122 2956 1747 
Q 2956 2369 2687 2733 
Q 2419 3097 1959 3097 
z
M 1959 3584 
Q 2709 3584 3137 3096 
Q 3566 2609 3566 1747 
Q 3566 888 3137 398 
Q 2709 -91 1959 -91 
Q 1206 -91 779 398 
Q 353 888 353 1747 
Q 353 2609 779 3096 
Q 1206 3584 1959 3584 
z
" id="DejaVuSans-6f" transform="scale(0.015625)"/>
      <path id="DejaVuSans-20" transform="scale(0.015625)"/>
      <path d="M 603 3500 
L 1178 3500 
L 1178 0 
L 603 0 
L 603 3500 
z
M 603 4863 
L 1178 4863 
L 1178 4134 
L 603 4134 
L 603 4863 
z
" id="DejaVuSans-69" transform="scale(0.015625)"/>
      <path d="M 3513 2113 
L 3513 0 
L 2938 0 
L 2938 2094 
Q 2938 2591 2744 2837 
Q 2550 3084 2163 3084 
Q 1697 3084 1428 2787 
Q 1159 2491 1159 1978 
L 1159 0 
L 581 0 
L 581 3500 
L 1159 3500 
L 1159 2956 
Q 1366 3272 1645 3428 
Q 1925 3584 2291 3584 
Q 2894 3584 3203 3211 
Q 3513 2838 3513 2113 
z
" id="DejaVuSans-6e" transform="scale(0.015625)"/>
      <path d="M 2834 3397 
L 2834 2853 
Q 2591 2978 2328 3040 
Q 2066 3103 1784 3103 
Q 1356 3103 1142 2972 
Q 928 2841 928 2578 
Q 928 2378 1081 2264 
Q 1234 2150 1697 2047 
L 1894 2003 
Q 2506 1872 2764 1633 
Q 3022 1394 3022 966 
Q 3022 478 2636 193 
Q 2250 -91 1575 -91 
Q 1294 -91 989 -36 
Q 684 19 347 128 
L 347 722 
Q 666 556 975 473 
Q 1284 391 1588 391 
Q 1994 391 2212 530 
Q 2431 669 2431 922 
Q 2431 1156 2273 1281 
Q 2116 1406 1581 1522 
L 1381 1569 
Q 847 1681 609 1914 
Q 372 2147 372 2553 
Q 372 3047 722 3315 
Q 1072 3584 1716 3584 
Q 2034 3584 2315 3537 
Q 2597 3491 2834 3397 
z
" id="DejaVuSans-73" transform="scale(0.015625)"/>
      <path d="M 1172 4494 
L 1172 3500 
L 2356 3500 
L 2356 3053 
L 1172 3053 
L 1172 1153 
Q 1172 725 1289 603 
Q 1406 481 1766 481 
L 2356 481 
L 2356 0 
L 1766 0 
Q 1100 0 847 248 
Q 594 497 594 1153 
L 594 3053 
L 172 3053 
L 172 3500 
L 594 3500 
L 594 4494 
L 1172 4494 
z
" id="DejaVuSans-74" transform="scale(0.015625)"/>
     </defs>
     <use xlink:href="#DejaVuSans-62"/>
     <use x="63.476562" xlink:href="#DejaVuSans-65"/>
     <use x="125" xlink:href="#DejaVuSans-66"/>
     <use x="160.205078" xlink:href="#DejaVuSans-6f"/>
     <use x="221.386719" xlink:href="#DejaVuSans-72"/>
     <use x="260.25" xlink:href="#DejaVuSans-65"/>
     <use x="321.773438" xlink:href="#DejaVuSans-20"/>
     <use x="353.560547" xlink:href="#DejaVuSans-62"/>
     <use x="417.037109" xlink:href="#DejaVuSans-69"/>
     <use x="444.820312" xlink:href="#DejaVuSans-6e"/>
     <use x="508.199219" xlink:href="#DejaVuSans-61"/>
     <use x="569.478516" xlink:href="#DejaVuSans-72"/>
     <use x="610.591797" xlink:href="#DejaVuSans-69"/>
     <use x="638.375" xlink:href="#DejaVuSans-73"/>
     <use x="690.474609" xlink:href="#DejaVuSans-61"/>
     <use x="751.753906" xlink:href="#DejaVuSans-74"/>
     <use x="790.962891" xlink:href="#DejaVuSans-69"/>
     <use x="818.746094" xlink:href="#DejaVuSans-6f"/>
     <use x="879.927734" xlink:href="#DejaVuSans-6e"/>
    </g>
   </g>
  </g>
  <g id="axes_2">
   <g id="patch_7">
    <path d="M 50.14375 1264.318125 
L 1724.14375 1264.318125 
L 1724.14375 699.77267 
L 50.14375 699.77267 
z
" style="fill:#ffffff;"/>
   </g>
   <g id="matplotlib.axis_3">
    <g id="xtick_8">
     <g id="line2d_18">
      <g>
       <use style="stroke:#000000;stroke-width:0.8;" x="126.234659" xlink:href="#m9540d16d8f" y="1264.318125"/>
      </g>
     </g>
     <g id="text_20">
      <!-- 0 -->
      <g transform="translate(123.053409 1278.916563)scale(0.1 -0.1)">
       <use xlink:href="#DejaVuSans-30"/>
      </g>
     </g>
    </g>
    <g id="xtick_9">
     <g id="line2d_19">
      <g>
       <use style="stroke:#000000;stroke-width:0.8;" x="373.886113" xlink:href="#m9540d16d8f" y="1264.318125"/>
      </g>
     </g>
     <g id="text_21">
      <!-- 200 -->
      <g transform="translate(364.342363 1278.916563)scale(0.1 -0.1)">
       <use xlink:href="#DejaVuSans-32"/>
       <use x="63.623047" xlink:href="#DejaVuSans-30"/>
       <use x="127.246094" xlink:href="#DejaVuSans-30"/>
      </g>
     </g>
    </g>
    <g id="xtick_10">
     <g id="line2d_20">
      <g>
       <use style="stroke:#000000;stroke-width:0.8;" x="621.537566" xlink:href="#m9540d16d8f" y="1264.318125"/>
      </g>
     </g>
     <g id="text_22">
      <!-- 400 -->
      <g transform="translate(611.993816 1278.916563)scale(0.1 -0.1)">
       <use xlink:href="#DejaVuSans-34"/>
       <use x="63.623047" xlink:href="#DejaVuSans-30"/>
       <use x="127.246094" xlink:href="#DejaVuSans-30"/>
      </g>
     </g>
    </g>
    <g id="xtick_11">
     <g id="line2d_21">
      <g>
       <use style="stroke:#000000;stroke-width:0.8;" x="869.18902" xlink:href="#m9540d16d8f" y="1264.318125"/>
      </g>
     </g>
     <g id="text_23">
      <!-- 600 -->
      <g transform="translate(859.64527 1278.916563)scale(0.1 -0.1)">
       <use xlink:href="#DejaVuSans-36"/>
       <use x="63.623047" xlink:href="#DejaVuSans-30"/>
       <use x="127.246094" xlink:href="#DejaVuSans-30"/>
      </g>
     </g>
    </g>
    <g id="xtick_12">
     <g id="line2d_22">
      <g>
       <use style="stroke:#000000;stroke-width:0.8;" x="1116.840473" xlink:href="#m9540d16d8f" y="1264.318125"/>
      </g>
     </g>
     <g id="text_24">
      <!-- 800 -->
      <g transform="translate(1107.296723 1278.916563)scale(0.1 -0.1)">
       <use xlink:href="#DejaVuSans-38"/>
       <use x="63.623047" xlink:href="#DejaVuSans-30"/>
       <use x="127.246094" xlink:href="#DejaVuSans-30"/>
      </g>
     </g>
    </g>
    <g id="xtick_13">
     <g id="line2d_23">
      <g>
       <use style="stroke:#000000;stroke-width:0.8;" x="1364.491927" xlink:href="#m9540d16d8f" y="1264.318125"/>
      </g>
     </g>
     <g id="text_25">
      <!-- 1000 -->
      <g transform="translate(1351.766927 1278.916563)scale(0.1 -0.1)">
       <use xlink:href="#DejaVuSans-31"/>
       <use x="63.623047" xlink:href="#DejaVuSans-30"/>
       <use x="127.246094" xlink:href="#DejaVuSans-30"/>
       <use x="190.869141" xlink:href="#DejaVuSans-30"/>
      </g>
     </g>
    </g>
    <g id="xtick_14">
     <g id="line2d_24">
      <g>
       <use style="stroke:#000000;stroke-width:0.8;" x="1612.14338" xlink:href="#m9540d16d8f" y="1264.318125"/>
      </g>
     </g>
     <g id="text_26">
      <!-- 1200 -->
      <g transform="translate(1599.41838 1278.916563)scale(0.1 -0.1)">
       <use xlink:href="#DejaVuSans-31"/>
       <use x="63.623047" xlink:href="#DejaVuSans-32"/>
       <use x="127.246094" xlink:href="#DejaVuSans-30"/>
       <use x="190.869141" xlink:href="#DejaVuSans-30"/>
      </g>
     </g>
    </g>
    <g id="text_27">
     <!-- frame -->
     <g transform="translate(872.317187 1292.594688)scale(0.1 -0.1)">
      <use xlink:href="#DejaVuSans-66"/>
      <use x="35.205078" xlink:href="#DejaVuSans-72"/>
      <use x="76.318359" xlink:href="#DejaVuSans-61"/>
      <use x="137.597656" xlink:href="#DejaVuSans-6d"/>
      <use x="235.009766" xlink:href="#DejaVuSans-65"/>
     </g>
    </g>
   </g>
   <g id="matplotlib.axis_4">
    <g id="ytick_10">
     <g id="line2d_25">
      <g>
       <use style="stroke:#000000;stroke-width:0.8;" x="50.14375" xlink:href="#ma4d15c7d25" y="1238.656968"/>
      </g>
     </g>
     <g id="text_28">
      <!-- 0.0 -->
      <g transform="translate(27.240625 1242.456187)scale(0.1 -0.1)">
       <use xlink:href="#DejaVuSans-30"/>
       <use x="63.623047" xlink:href="#DejaVuSans-2e"/>
       <use x="95.410156" xlink:href="#DejaVuSans-30"/>
      </g>
     </g>
    </g>
    <g id="ytick_11">
     <g id="line2d_26">
      <g>
       <use style="stroke:#000000;stroke-width:0.8;" x="50.14375" xlink:href="#ma4d15c7d25" y="1136.01234"/>
      </g>
     </g>
     <g id="text_29">
      <!-- 0.2 -->
      <g transform="translate(27.240625 1139.811559)scale(0.1 -0.1)">
       <use xlink:href="#DejaVuSans-30"/>
       <use x="63.623047" xlink:href="#DejaVuSans-2e"/>
       <use x="95.410156" xlink:href="#DejaVuSans-32"/>
      </g>
     </g>
    </g>
    <g id="ytick_12">
     <g id="line2d_27">
      <g>
       <use style="stroke:#000000;stroke-width:0.8;" x="50.14375" xlink:href="#ma4d15c7d25" y="1033.367712"/>
      </g>
     </g>
     <g id="text_30">
      <!-- 0.4 -->
      <g transform="translate(27.240625 1037.166931)scale(0.1 -0.1)">
       <use xlink:href="#DejaVuSans-30"/>
       <use x="63.623047" xlink:href="#DejaVuSans-2e"/>
       <use x="95.410156" xlink:href="#DejaVuSans-34"/>
      </g>
     </g>
    </g>
    <g id="ytick_13">
     <g id="line2d_28">
      <g>
       <use style="stroke:#000000;stroke-width:0.8;" x="50.14375" xlink:href="#ma4d15c7d25" y="930.723084"/>
      </g>
     </g>
     <g id="text_31">
      <!-- 0.6 -->
      <g transform="translate(27.240625 934.522302)scale(0.1 -0.1)">
       <use xlink:href="#DejaVuSans-30"/>
       <use x="63.623047" xlink:href="#DejaVuSans-2e"/>
       <use x="95.410156" xlink:href="#DejaVuSans-36"/>
      </g>
     </g>
    </g>
    <g id="ytick_14">
     <g id="line2d_29">
      <g>
       <use style="stroke:#000000;stroke-width:0.8;" x="50.14375" xlink:href="#ma4d15c7d25" y="828.078456"/>
      </g>
     </g>
     <g id="text_32">
      <!-- 0.8 -->
      <g transform="translate(27.240625 831.877674)scale(0.1 -0.1)">
       <use xlink:href="#DejaVuSans-30"/>
       <use x="63.623047" xlink:href="#DejaVuSans-2e"/>
       <use x="95.410156" xlink:href="#DejaVuSans-38"/>
      </g>
     </g>
    </g>
    <g id="ytick_15">
     <g id="line2d_30">
      <g>
       <use style="stroke:#000000;stroke-width:0.8;" x="50.14375" xlink:href="#ma4d15c7d25" y="725.433827"/>
      </g>
     </g>
     <g id="text_33">
      <!-- 1.0 -->
      <g transform="translate(27.240625 729.233046)scale(0.1 -0.1)">
       <use xlink:href="#DejaVuSans-31"/>
       <use x="63.623047" xlink:href="#DejaVuSans-2e"/>
       <use x="95.410156" xlink:href="#DejaVuSans-30"/>
      </g>
     </g>
    </g>
    <g id="text_34">
     <!-- GCaMP -->
     <g transform="translate(21.160938 999.803991)rotate(-90)scale(0.1 -0.1)">
      <use xlink:href="#DejaVuSans-47"/>
      <use x="77.490234" xlink:href="#DejaVuSans-43"/>
      <use x="147.314453" xlink:href="#DejaVuSans-61"/>
      <use x="208.59375" xlink:href="#DejaVuSans-4d"/>
      <use x="294.873047" xlink:href="#DejaVuSans-50"/>
     </g>
    </g>
   </g>
   <g id="line2d_31">
    <path clip-path="url(#pe330ef8397)" d="M 126.234659 1238.656968 
L 572.007275 1238.656968 
L 573.245533 725.433827 
L 625.252338 725.433827 
L 626.490595 1238.656968 
L 676.020886 1238.656968 
L 677.259143 725.433827 
L 771.366695 725.433827 
L 772.604953 1238.656968 
L 775.081467 1238.656968 
L 776.319725 725.433827 
L 787.46404 725.433827 
L 788.702297 1238.656968 
L 793.655326 1238.656968 
L 794.893584 725.433827 
L 809.752671 725.433827 
L 810.990928 1238.656968 
L 848.138646 1238.656968 
L 849.376903 725.433827 
L 859.282961 725.433827 
L 860.521219 1238.656968 
L 865.474248 1238.656968 
L 866.712505 725.433827 
L 867.950762 725.433827 
L 869.18902 1238.656968 
L 1648.052841 1238.656968 
L 1648.052841 1238.656968 
" style="fill:none;stroke:#008000;stroke-linecap:square;stroke-width:1.5;"/>
   </g>
   <g id="patch_8">
    <path d="M 50.14375 1264.318125 
L 50.14375 699.77267 
" style="fill:none;stroke:#000000;stroke-linecap:square;stroke-linejoin:miter;stroke-width:0.8;"/>
   </g>
   <g id="patch_9">
    <path d="M 1724.14375 1264.318125 
L 1724.14375 699.77267 
" style="fill:none;stroke:#000000;stroke-linecap:square;stroke-linejoin:miter;stroke-width:0.8;"/>
   </g>
   <g id="patch_10">
    <path d="M 50.14375 1264.318125 
L 1724.14375 1264.318125 
" style="fill:none;stroke:#000000;stroke-linecap:square;stroke-linejoin:miter;stroke-width:0.8;"/>
   </g>
   <g id="patch_11">
    <path d="M 50.14375 699.77267 
L 1724.14375 699.77267 
" style="fill:none;stroke:#000000;stroke-linecap:square;stroke-linejoin:miter;stroke-width:0.8;"/>
   </g>
   <g id="text_35">
    <!-- before binarisation -->
    <g transform="translate(830.545 693.77267)scale(0.12 -0.12)">
     <use xlink:href="#DejaVuSans-62"/>
     <use x="63.476562" xlink:href="#DejaVuSans-65"/>
     <use x="125" xlink:href="#DejaVuSans-66"/>
     <use x="160.205078" xlink:href="#DejaVuSans-6f"/>
     <use x="221.386719" xlink:href="#DejaVuSans-72"/>
     <use x="260.25" xlink:href="#DejaVuSans-65"/>
     <use x="321.773438" xlink:href="#DejaVuSans-20"/>
     <use x="353.560547" xlink:href="#DejaVuSans-62"/>
     <use x="417.037109" xlink:href="#DejaVuSans-69"/>
     <use x="444.820312" xlink:href="#DejaVuSans-6e"/>
     <use x="508.199219" xlink:href="#DejaVuSans-61"/>
     <use x="569.478516" xlink:href="#DejaVuSans-72"/>
     <use x="610.591797" xlink:href="#DejaVuSans-69"/>
     <use x="638.375" xlink:href="#DejaVuSans-73"/>
     <use x="690.474609" xlink:href="#DejaVuSans-61"/>
     <use x="751.753906" xlink:href="#DejaVuSans-74"/>
     <use x="790.962891" xlink:href="#DejaVuSans-69"/>
     <use x="818.746094" xlink:href="#DejaVuSans-6f"/>
     <use x="879.927734" xlink:href="#DejaVuSans-6e"/>
    </g>
   </g>
  </g>
 </g>
 <defs>
  <clipPath id="p2b7e09403d">
   <rect height="564.545455" width="1674" x="50.14375" y="22.318125"/>
  </clipPath>
  <clipPath id="pe330ef8397">
   <rect height="564.545455" width="1674" x="50.14375" y="699.77267"/>
  </clipPath>
 </defs>
</svg>
