<?xml version="1.0" encoding="utf-8" standalone="no"?>
<!DOCTYPE svg PUBLIC "-//W3C//DTD SVG 1.1//EN"
  "http://www.w3.org/Graphics/SVG/1.1/DTD/svg11.dtd">
<svg height="1301.874375pt" version="1.1" viewBox="0 0 1724.98125 1301.874375" width="1724.98125pt" xmlns="http://www.w3.org/2000/svg" xmlns:xlink="http://www.w3.org/1999/xlink">
 <metadata>
  <rdf:RDF xmlns:cc="http://creativecommons.org/ns#" xmlns:dc="http://purl.org/dc/elements/1.1/" xmlns:rdf="http://www.w3.org/1999/02/22-rdf-syntax-ns#">
   <cc:Work>
    <dc:type rdf:resource="http://purl.org/dc/dcmitype/StillImage"/>
    <dc:date>2022-07-24T15:54:47.428792</dc:date>
    <dc:format>image/svg+xml</dc:format>
    <dc:creator>
     <cc:Agent>
      <dc:title>Matplotlib v3.4.2, https://matplotlib.org/</dc:title>
     </cc:Agent>
    </dc:creator>
   </cc:Work>
  </rdf:RDF>
 </metadata>
 <defs>
  <style type="text/css">*{stroke-linecap:butt;stroke-linejoin:round;}</style>
 </defs>
 <g id="figure_1">
  <g id="patch_1">
   <path d="M 0 1301.874375 
L 1724.98125 1301.874375 
L 1724.98125 0 
L 0 0 
z
" style="fill:#ffffff;"/>
  </g>
  <g id="axes_1">
   <g id="patch_2">
    <path d="M 43.78125 586.86358 
L 1717.78125 586.86358 
L 1717.78125 22.318125 
L 43.78125 22.318125 
z
" style="fill:#ffffff;"/>
   </g>
   <g id="matplotlib.axis_1">
    <g id="xtick_1">
     <g id="line2d_1">
      <defs>
       <path d="M 0 0 
L 0 3.5 
" id="m0f1f5ee90c" style="stroke:#000000;stroke-width:0.8;"/>
      </defs>
      <g>
       <use style="stroke:#000000;stroke-width:0.8;" x="119.872159" xlink:href="#m0f1f5ee90c" y="586.86358"/>
      </g>
     </g>
     <g id="text_1">
      <!-- 0 -->
      <g transform="translate(116.690909 601.462017)scale(0.1 -0.1)">
       <defs>
        <path d="M 2034 4250 
Q 1547 4250 1301 3770 
Q 1056 3291 1056 2328 
Q 1056 1369 1301 889 
Q 1547 409 2034 409 
Q 2525 409 2770 889 
Q 3016 1369 3016 2328 
Q 3016 3291 2770 3770 
Q 2525 4250 2034 4250 
z
M 2034 4750 
Q 2819 4750 3233 4129 
Q 3647 3509 3647 2328 
Q 3647 1150 3233 529 
Q 2819 -91 2034 -91 
Q 1250 -91 836 529 
Q 422 1150 422 2328 
Q 422 3509 836 4129 
Q 1250 4750 2034 4750 
z
" id="DejaVuSans-30" transform="scale(0.015625)"/>
       </defs>
       <use xlink:href="#DejaVuSans-30"/>
      </g>
     </g>
    </g>
    <g id="xtick_2">
     <g id="line2d_2">
      <g>
       <use style="stroke:#000000;stroke-width:0.8;" x="367.523613" xlink:href="#m0f1f5ee90c" y="586.86358"/>
      </g>
     </g>
     <g id="text_2">
      <!-- 200 -->
      <g transform="translate(357.979863 601.462017)scale(0.1 -0.1)">
       <defs>
        <path d="M 1228 531 
L 3431 531 
L 3431 0 
L 469 0 
L 469 531 
Q 828 903 1448 1529 
Q 2069 2156 2228 2338 
Q 2531 2678 2651 2914 
Q 2772 3150 2772 3378 
Q 2772 3750 2511 3984 
Q 2250 4219 1831 4219 
Q 1534 4219 1204 4116 
Q 875 4013 500 3803 
L 500 4441 
Q 881 4594 1212 4672 
Q 1544 4750 1819 4750 
Q 2544 4750 2975 4387 
Q 3406 4025 3406 3419 
Q 3406 3131 3298 2873 
Q 3191 2616 2906 2266 
Q 2828 2175 2409 1742 
Q 1991 1309 1228 531 
z
" id="DejaVuSans-32" transform="scale(0.015625)"/>
       </defs>
       <use xlink:href="#DejaVuSans-32"/>
       <use x="63.623047" xlink:href="#DejaVuSans-30"/>
       <use x="127.246094" xlink:href="#DejaVuSans-30"/>
      </g>
     </g>
    </g>
    <g id="xtick_3">
     <g id="line2d_3">
      <g>
       <use style="stroke:#000000;stroke-width:0.8;" x="615.175066" xlink:href="#m0f1f5ee90c" y="586.86358"/>
      </g>
     </g>
     <g id="text_3">
      <!-- 400 -->
      <g transform="translate(605.631316 601.462017)scale(0.1 -0.1)">
       <defs>
        <path d="M 2419 4116 
L 825 1625 
L 2419 1625 
L 2419 4116 
z
M 2253 4666 
L 3047 4666 
L 3047 1625 
L 3713 1625 
L 3713 1100 
L 3047 1100 
L 3047 0 
L 2419 0 
L 2419 1100 
L 313 1100 
L 313 1709 
L 2253 4666 
z
" id="DejaVuSans-34" transform="scale(0.015625)"/>
       </defs>
       <use xlink:href="#DejaVuSans-34"/>
       <use x="63.623047" xlink:href="#DejaVuSans-30"/>
       <use x="127.246094" xlink:href="#DejaVuSans-30"/>
      </g>
     </g>
    </g>
    <g id="xtick_4">
     <g id="line2d_4">
      <g>
       <use style="stroke:#000000;stroke-width:0.8;" x="862.82652" xlink:href="#m0f1f5ee90c" y="586.86358"/>
      </g>
     </g>
     <g id="text_4">
      <!-- 600 -->
      <g transform="translate(853.28277 601.462017)scale(0.1 -0.1)">
       <defs>
        <path d="M 2113 2584 
Q 1688 2584 1439 2293 
Q 1191 2003 1191 1497 
Q 1191 994 1439 701 
Q 1688 409 2113 409 
Q 2538 409 2786 701 
Q 3034 994 3034 1497 
Q 3034 2003 2786 2293 
Q 2538 2584 2113 2584 
z
M 3366 4563 
L 3366 3988 
Q 3128 4100 2886 4159 
Q 2644 4219 2406 4219 
Q 1781 4219 1451 3797 
Q 1122 3375 1075 2522 
Q 1259 2794 1537 2939 
Q 1816 3084 2150 3084 
Q 2853 3084 3261 2657 
Q 3669 2231 3669 1497 
Q 3669 778 3244 343 
Q 2819 -91 2113 -91 
Q 1303 -91 875 529 
Q 447 1150 447 2328 
Q 447 3434 972 4092 
Q 1497 4750 2381 4750 
Q 2619 4750 2861 4703 
Q 3103 4656 3366 4563 
z
" id="DejaVuSans-36" transform="scale(0.015625)"/>
       </defs>
       <use xlink:href="#DejaVuSans-36"/>
       <use x="63.623047" xlink:href="#DejaVuSans-30"/>
       <use x="127.246094" xlink:href="#DejaVuSans-30"/>
      </g>
     </g>
    </g>
    <g id="xtick_5">
     <g id="line2d_5">
      <g>
       <use style="stroke:#000000;stroke-width:0.8;" x="1110.477973" xlink:href="#m0f1f5ee90c" y="586.86358"/>
      </g>
     </g>
     <g id="text_5">
      <!-- 800 -->
      <g transform="translate(1100.934223 601.462017)scale(0.1 -0.1)">
       <defs>
        <path d="M 2034 2216 
Q 1584 2216 1326 1975 
Q 1069 1734 1069 1313 
Q 1069 891 1326 650 
Q 1584 409 2034 409 
Q 2484 409 2743 651 
Q 3003 894 3003 1313 
Q 3003 1734 2745 1975 
Q 2488 2216 2034 2216 
z
M 1403 2484 
Q 997 2584 770 2862 
Q 544 3141 544 3541 
Q 544 4100 942 4425 
Q 1341 4750 2034 4750 
Q 2731 4750 3128 4425 
Q 3525 4100 3525 3541 
Q 3525 3141 3298 2862 
Q 3072 2584 2669 2484 
Q 3125 2378 3379 2068 
Q 3634 1759 3634 1313 
Q 3634 634 3220 271 
Q 2806 -91 2034 -91 
Q 1263 -91 848 271 
Q 434 634 434 1313 
Q 434 1759 690 2068 
Q 947 2378 1403 2484 
z
M 1172 3481 
Q 1172 3119 1398 2916 
Q 1625 2713 2034 2713 
Q 2441 2713 2670 2916 
Q 2900 3119 2900 3481 
Q 2900 3844 2670 4047 
Q 2441 4250 2034 4250 
Q 1625 4250 1398 4047 
Q 1172 3844 1172 3481 
z
" id="DejaVuSans-38" transform="scale(0.015625)"/>
       </defs>
       <use xlink:href="#DejaVuSans-38"/>
       <use x="63.623047" xlink:href="#DejaVuSans-30"/>
       <use x="127.246094" xlink:href="#DejaVuSans-30"/>
      </g>
     </g>
    </g>
    <g id="xtick_6">
     <g id="line2d_6">
      <g>
       <use style="stroke:#000000;stroke-width:0.8;" x="1358.129427" xlink:href="#m0f1f5ee90c" y="586.86358"/>
      </g>
     </g>
     <g id="text_6">
      <!-- 1000 -->
      <g transform="translate(1345.404427 601.462017)scale(0.1 -0.1)">
       <defs>
        <path d="M 794 531 
L 1825 531 
L 1825 4091 
L 703 3866 
L 703 4441 
L 1819 4666 
L 2450 4666 
L 2450 531 
L 3481 531 
L 3481 0 
L 794 0 
L 794 531 
z
" id="DejaVuSans-31" transform="scale(0.015625)"/>
       </defs>
       <use xlink:href="#DejaVuSans-31"/>
       <use x="63.623047" xlink:href="#DejaVuSans-30"/>
       <use x="127.246094" xlink:href="#DejaVuSans-30"/>
       <use x="190.869141" xlink:href="#DejaVuSans-30"/>
      </g>
     </g>
    </g>
    <g id="xtick_7">
     <g id="line2d_7">
      <g>
       <use style="stroke:#000000;stroke-width:0.8;" x="1605.78088" xlink:href="#m0f1f5ee90c" y="586.86358"/>
      </g>
     </g>
     <g id="text_7">
      <!-- 1200 -->
      <g transform="translate(1593.05588 601.462017)scale(0.1 -0.1)">
       <use xlink:href="#DejaVuSans-31"/>
       <use x="63.623047" xlink:href="#DejaVuSans-32"/>
       <use x="127.246094" xlink:href="#DejaVuSans-30"/>
       <use x="190.869141" xlink:href="#DejaVuSans-30"/>
      </g>
     </g>
    </g>
    <g id="text_8">
     <!-- frame -->
     <g transform="translate(865.954687 615.140142)scale(0.1 -0.1)">
      <defs>
       <path d="M 2375 4863 
L 2375 4384 
L 1825 4384 
Q 1516 4384 1395 4259 
Q 1275 4134 1275 3809 
L 1275 3500 
L 2222 3500 
L 2222 3053 
L 1275 3053 
L 1275 0 
L 697 0 
L 697 3053 
L 147 3053 
L 147 3500 
L 697 3500 
L 697 3744 
Q 697 4328 969 4595 
Q 1241 4863 1831 4863 
L 2375 4863 
z
" id="DejaVuSans-66" transform="scale(0.015625)"/>
       <path d="M 2631 2963 
Q 2534 3019 2420 3045 
Q 2306 3072 2169 3072 
Q 1681 3072 1420 2755 
Q 1159 2438 1159 1844 
L 1159 0 
L 581 0 
L 581 3500 
L 1159 3500 
L 1159 2956 
Q 1341 3275 1631 3429 
Q 1922 3584 2338 3584 
Q 2397 3584 2469 3576 
Q 2541 3569 2628 3553 
L 2631 2963 
z
" id="DejaVuSans-72" transform="scale(0.015625)"/>
       <path d="M 2194 1759 
Q 1497 1759 1228 1600 
Q 959 1441 959 1056 
Q 959 750 1161 570 
Q 1363 391 1709 391 
Q 2188 391 2477 730 
Q 2766 1069 2766 1631 
L 2766 1759 
L 2194 1759 
z
M 3341 1997 
L 3341 0 
L 2766 0 
L 2766 531 
Q 2569 213 2275 61 
Q 1981 -91 1556 -91 
Q 1019 -91 701 211 
Q 384 513 384 1019 
Q 384 1609 779 1909 
Q 1175 2209 1959 2209 
L 2766 2209 
L 2766 2266 
Q 2766 2663 2505 2880 
Q 2244 3097 1772 3097 
Q 1472 3097 1187 3025 
Q 903 2953 641 2809 
L 641 3341 
Q 956 3463 1253 3523 
Q 1550 3584 1831 3584 
Q 2591 3584 2966 3190 
Q 3341 2797 3341 1997 
z
" id="DejaVuSans-61" transform="scale(0.015625)"/>
       <path d="M 3328 2828 
Q 3544 3216 3844 3400 
Q 4144 3584 4550 3584 
Q 5097 3584 5394 3201 
Q 5691 2819 5691 2113 
L 5691 0 
L 5113 0 
L 5113 2094 
Q 5113 2597 4934 2840 
Q 4756 3084 4391 3084 
Q 3944 3084 3684 2787 
Q 3425 2491 3425 1978 
L 3425 0 
L 2847 0 
L 2847 2094 
Q 2847 2600 2669 2842 
Q 2491 3084 2119 3084 
Q 1678 3084 1418 2786 
Q 1159 2488 1159 1978 
L 1159 0 
L 581 0 
L 581 3500 
L 1159 3500 
L 1159 2956 
Q 1356 3278 1631 3431 
Q 1906 3584 2284 3584 
Q 2666 3584 2933 3390 
Q 3200 3197 3328 2828 
z
" id="DejaVuSans-6d" transform="scale(0.015625)"/>
       <path d="M 3597 1894 
L 3597 1613 
L 953 1613 
Q 991 1019 1311 708 
Q 1631 397 2203 397 
Q 2534 397 2845 478 
Q 3156 559 3463 722 
L 3463 178 
Q 3153 47 2828 -22 
Q 2503 -91 2169 -91 
Q 1331 -91 842 396 
Q 353 884 353 1716 
Q 353 2575 817 3079 
Q 1281 3584 2069 3584 
Q 2775 3584 3186 3129 
Q 3597 2675 3597 1894 
z
M 3022 2063 
Q 3016 2534 2758 2815 
Q 2500 3097 2075 3097 
Q 1594 3097 1305 2825 
Q 1016 2553 972 2059 
L 3022 2063 
z
" id="DejaVuSans-65" transform="scale(0.015625)"/>
      </defs>
      <use xlink:href="#DejaVuSans-66"/>
      <use x="35.205078" xlink:href="#DejaVuSans-72"/>
      <use x="76.318359" xlink:href="#DejaVuSans-61"/>
      <use x="137.597656" xlink:href="#DejaVuSans-6d"/>
      <use x="235.009766" xlink:href="#DejaVuSans-65"/>
     </g>
    </g>
   </g>
   <g id="matplotlib.axis_2">
    <g id="ytick_1">
     <g id="line2d_8">
      <defs>
       <path d="M 0 0 
L -3.5 0 
" id="m42c1d98efd" style="stroke:#000000;stroke-width:0.8;"/>
      </defs>
      <g>
       <use style="stroke:#000000;stroke-width:0.8;" x="43.78125" xlink:href="#m42c1d98efd" y="508.820211"/>
      </g>
     </g>
     <g id="text_9">
      <!-- 0.8 -->
      <g transform="translate(20.878125 512.619429)scale(0.1 -0.1)">
       <defs>
        <path d="M 684 794 
L 1344 794 
L 1344 0 
L 684 0 
L 684 794 
z
" id="DejaVuSans-2e" transform="scale(0.015625)"/>
       </defs>
       <use xlink:href="#DejaVuSans-30"/>
       <use x="63.623047" xlink:href="#DejaVuSans-2e"/>
       <use x="95.410156" xlink:href="#DejaVuSans-38"/>
      </g>
     </g>
    </g>
    <g id="ytick_2">
     <g id="line2d_9">
      <g>
       <use style="stroke:#000000;stroke-width:0.8;" x="43.78125" xlink:href="#m42c1d98efd" y="413.079898"/>
      </g>
     </g>
     <g id="text_10">
      <!-- 1.0 -->
      <g transform="translate(20.878125 416.879117)scale(0.1 -0.1)">
       <use xlink:href="#DejaVuSans-31"/>
       <use x="63.623047" xlink:href="#DejaVuSans-2e"/>
       <use x="95.410156" xlink:href="#DejaVuSans-30"/>
      </g>
     </g>
    </g>
    <g id="ytick_3">
     <g id="line2d_10">
      <g>
       <use style="stroke:#000000;stroke-width:0.8;" x="43.78125" xlink:href="#m42c1d98efd" y="317.339586"/>
      </g>
     </g>
     <g id="text_11">
      <!-- 1.2 -->
      <g transform="translate(20.878125 321.138804)scale(0.1 -0.1)">
       <use xlink:href="#DejaVuSans-31"/>
       <use x="63.623047" xlink:href="#DejaVuSans-2e"/>
       <use x="95.410156" xlink:href="#DejaVuSans-32"/>
      </g>
     </g>
    </g>
    <g id="ytick_4">
     <g id="line2d_11">
      <g>
       <use style="stroke:#000000;stroke-width:0.8;" x="43.78125" xlink:href="#m42c1d98efd" y="221.599273"/>
      </g>
     </g>
     <g id="text_12">
      <!-- 1.4 -->
      <g transform="translate(20.878125 225.398492)scale(0.1 -0.1)">
       <use xlink:href="#DejaVuSans-31"/>
       <use x="63.623047" xlink:href="#DejaVuSans-2e"/>
       <use x="95.410156" xlink:href="#DejaVuSans-34"/>
      </g>
     </g>
    </g>
    <g id="ytick_5">
     <g id="line2d_12">
      <g>
       <use style="stroke:#000000;stroke-width:0.8;" x="43.78125" xlink:href="#m42c1d98efd" y="125.85896"/>
      </g>
     </g>
     <g id="text_13">
      <!-- 1.6 -->
      <g transform="translate(20.878125 129.658179)scale(0.1 -0.1)">
       <use xlink:href="#DejaVuSans-31"/>
       <use x="63.623047" xlink:href="#DejaVuSans-2e"/>
       <use x="95.410156" xlink:href="#DejaVuSans-36"/>
      </g>
     </g>
    </g>
    <g id="ytick_6">
     <g id="line2d_13">
      <g>
       <use style="stroke:#000000;stroke-width:0.8;" x="43.78125" xlink:href="#m42c1d98efd" y="30.118648"/>
      </g>
     </g>
     <g id="text_14">
      <!-- 1.8 -->
      <g transform="translate(20.878125 33.917867)scale(0.1 -0.1)">
       <use xlink:href="#DejaVuSans-31"/>
       <use x="63.623047" xlink:href="#DejaVuSans-2e"/>
       <use x="95.410156" xlink:href="#DejaVuSans-38"/>
      </g>
     </g>
    </g>
    <g id="text_15">
     <!-- GCaMP -->
     <g transform="translate(14.798437 322.349446)rotate(-90)scale(0.1 -0.1)">
      <defs>
       <path d="M 3809 666 
L 3809 1919 
L 2778 1919 
L 2778 2438 
L 4434 2438 
L 4434 434 
Q 4069 175 3628 42 
Q 3188 -91 2688 -91 
Q 1594 -91 976 548 
Q 359 1188 359 2328 
Q 359 3472 976 4111 
Q 1594 4750 2688 4750 
Q 3144 4750 3555 4637 
Q 3966 4525 4313 4306 
L 4313 3634 
Q 3963 3931 3569 4081 
Q 3175 4231 2741 4231 
Q 1884 4231 1454 3753 
Q 1025 3275 1025 2328 
Q 1025 1384 1454 906 
Q 1884 428 2741 428 
Q 3075 428 3337 486 
Q 3600 544 3809 666 
z
" id="DejaVuSans-47" transform="scale(0.015625)"/>
       <path d="M 4122 4306 
L 4122 3641 
Q 3803 3938 3442 4084 
Q 3081 4231 2675 4231 
Q 1875 4231 1450 3742 
Q 1025 3253 1025 2328 
Q 1025 1406 1450 917 
Q 1875 428 2675 428 
Q 3081 428 3442 575 
Q 3803 722 4122 1019 
L 4122 359 
Q 3791 134 3420 21 
Q 3050 -91 2638 -91 
Q 1578 -91 968 557 
Q 359 1206 359 2328 
Q 359 3453 968 4101 
Q 1578 4750 2638 4750 
Q 3056 4750 3426 4639 
Q 3797 4528 4122 4306 
z
" id="DejaVuSans-43" transform="scale(0.015625)"/>
       <path d="M 628 4666 
L 1569 4666 
L 2759 1491 
L 3956 4666 
L 4897 4666 
L 4897 0 
L 4281 0 
L 4281 4097 
L 3078 897 
L 2444 897 
L 1241 4097 
L 1241 0 
L 628 0 
L 628 4666 
z
" id="DejaVuSans-4d" transform="scale(0.015625)"/>
       <path d="M 1259 4147 
L 1259 2394 
L 2053 2394 
Q 2494 2394 2734 2622 
Q 2975 2850 2975 3272 
Q 2975 3691 2734 3919 
Q 2494 4147 2053 4147 
L 1259 4147 
z
M 628 4666 
L 2053 4666 
Q 2838 4666 3239 4311 
Q 3641 3956 3641 3272 
Q 3641 2581 3239 2228 
Q 2838 1875 2053 1875 
L 1259 1875 
L 1259 0 
L 628 0 
L 628 4666 
z
" id="DejaVuSans-50" transform="scale(0.015625)"/>
      </defs>
      <use xlink:href="#DejaVuSans-47"/>
      <use x="77.490234" xlink:href="#DejaVuSans-43"/>
      <use x="147.314453" xlink:href="#DejaVuSans-61"/>
      <use x="208.59375" xlink:href="#DejaVuSans-4d"/>
      <use x="294.873047" xlink:href="#DejaVuSans-50"/>
     </g>
    </g>
   </g>
   <g id="line2d_14">
    <path clip-path="url(#pdd5a8ca2b0)" d="M 119.872159 546.932226 
L 122.348674 554.40381 
L 123.586931 557.136273 
L 124.825188 557.715493 
L 126.063445 555.941676 
L 127.301703 553.112222 
L 128.53996 551.018032 
L 129.778217 550.56189 
L 131.016474 551.524772 
L 132.254732 553.082676 
L 133.492989 554.168498 
L 134.731246 553.882107 
L 135.969504 552.005756 
L 137.207761 548.948001 
L 138.446018 545.444227 
L 139.684275 542.427976 
L 140.922533 540.867362 
L 142.16079 541.868679 
L 143.399047 546.180327 
L 144.637304 552.641068 
L 145.875562 558.355469 
L 147.113819 561.202423 
L 148.352076 560.939945 
L 149.590334 558.338121 
L 150.828591 554.774852 
L 152.066848 551.752502 
L 153.305105 549.778457 
L 155.78162 546.879338 
L 157.019877 545.084681 
L 158.258134 542.491899 
L 160.734649 534.857187 
L 161.972906 531.974408 
L 163.211163 530.654641 
L 164.449421 530.389293 
L 165.687678 530.889232 
L 166.925935 532.065558 
L 168.164193 533.551382 
L 169.40245 535.364627 
L 170.640707 538.10209 
L 171.878964 541.946276 
L 175.593736 555.302915 
L 176.831993 557.884847 
L 178.070251 557.553218 
L 179.308508 554.261241 
L 181.785022 544.890052 
L 183.02328 541.775914 
L 184.261537 539.635046 
L 185.499794 537.203602 
L 186.738052 534.184032 
L 187.976309 532.03007 
L 189.214566 532.35291 
L 190.452823 535.083286 
L 191.691081 538.501437 
L 192.929338 540.424123 
L 194.167595 539.827444 
L 195.405852 537.745518 
L 196.64411 535.933931 
L 199.120624 533.629513 
L 200.358881 532.185811 
L 201.597139 531.563305 
L 202.835396 532.567617 
L 204.073653 534.587151 
L 205.311911 535.97868 
L 206.550168 535.566475 
L 209.026682 532.127702 
L 210.26494 531.701958 
L 211.503197 532.641732 
L 212.741454 533.960924 
L 213.979711 534.2365 
L 215.217969 532.68004 
L 216.456226 529.656572 
L 217.694483 526.331168 
L 218.93274 523.68984 
L 220.170998 521.98166 
L 221.409255 521.189912 
L 222.647512 521.324315 
L 223.88577 521.94811 
L 225.124027 522.180861 
L 226.362284 521.371134 
L 227.600541 519.356476 
L 230.077056 513.274329 
L 231.315313 510.777104 
L 232.55357 508.740648 
L 233.791828 506.376023 
L 235.030085 503.317041 
L 236.268342 499.840258 
L 237.5066 496.842211 
L 238.744857 495.667491 
L 239.983114 497.16274 
L 241.221371 501.058521 
L 242.459629 506.513461 
L 244.936143 518.1455 
L 246.1744 521.992864 
L 247.412658 523.597252 
L 248.650915 522.706562 
L 249.889172 519.21291 
L 252.365687 509.070687 
L 253.603944 506.264239 
L 254.842201 506.153083 
L 256.080459 508.2762 
L 258.556973 515.25024 
L 259.79523 518.022128 
L 261.033488 519.367808 
L 262.271745 519.150175 
L 263.510002 517.466576 
L 264.748259 514.179293 
L 265.986517 509.051991 
L 267.224774 502.363193 
L 268.463031 495.004893 
L 269.701288 488.38468 
L 270.939546 483.973118 
L 272.177803 482.057215 
L 273.41606 481.594568 
L 274.654318 481.628508 
L 275.892575 482.246576 
L 277.130832 484.303716 
L 278.369089 488.33129 
L 280.845604 498.692387 
L 282.083861 502.668075 
L 284.560376 508.821706 
L 285.798633 511.320325 
L 287.03689 512.417704 
L 288.275147 511.35273 
L 289.513405 508.039073 
L 290.751662 503.521633 
L 291.989919 499.656914 
L 293.228177 497.292881 
L 294.466434 495.586203 
L 295.704691 493.287931 
L 296.942948 489.730109 
L 299.419463 480.422389 
L 300.65772 477.036897 
L 301.895977 476.120493 
L 303.134235 478.366528 
L 304.372492 483.646493 
L 305.610749 490.537133 
L 306.849006 496.635122 
L 308.087264 500.30101 
L 309.325521 501.565916 
L 310.563778 500.851867 
L 311.802036 498.677932 
L 313.040293 496.783547 
L 314.27855 496.980331 
L 315.516807 498.716933 
L 316.755065 499.438109 
L 317.993322 497.288899 
L 319.231579 492.491493 
L 320.469836 486.129135 
L 321.708094 479.17952 
L 322.946351 473.392603 
L 324.184608 470.980528 
L 325.422866 472.706658 
L 326.661123 477.814629 
L 327.89938 485.266711 
L 329.137637 493.636367 
L 330.375895 500.531881 
L 331.614152 503.623005 
L 332.852409 502.46002 
L 334.090666 498.625692 
L 337.805438 485.055781 
L 339.043695 481.28252 
L 340.281953 479.558382 
L 341.52021 480.573996 
L 342.758467 483.848785 
L 345.234982 492.656258 
L 346.473239 494.947831 
L 347.711496 495.03459 
L 348.949754 494.719598 
L 350.188011 495.368948 
L 351.426268 496.720354 
L 352.664525 498.29341 
L 353.902783 500.219583 
L 355.14104 502.839699 
L 356.379297 506.370066 
L 357.617554 510.331186 
L 358.855812 513.179732 
L 360.094069 513.588324 
L 361.332326 511.791622 
L 363.808841 506.611671 
L 367.523613 501.202101 
L 368.76187 498.904909 
L 370.000127 495.91548 
L 372.476642 488.115125 
L 373.714899 484.971176 
L 374.953156 483.352151 
L 376.191413 483.119582 
L 377.429671 483.511822 
L 378.667928 483.524744 
L 379.906185 482.27277 
L 381.144443 479.409126 
L 382.3827 475.220445 
L 383.620957 470.381755 
L 384.859214 466.044224 
L 386.097472 463.622007 
L 387.335729 463.580666 
L 388.573986 465.19295 
L 389.812243 467.988734 
L 392.288758 475.931745 
L 393.527015 478.724781 
L 396.00353 482.171968 
L 397.241787 483.02252 
L 398.480044 481.970363 
L 399.718302 479.146305 
L 400.956559 476.014596 
L 402.194816 473.599989 
L 403.433073 471.555255 
L 404.671331 469.261823 
L 405.909588 466.521585 
L 407.147845 463.218815 
L 408.386102 459.54248 
L 409.62436 456.546031 
L 410.862617 455.775788 
L 412.100874 457.948961 
L 414.577389 466.199849 
L 415.815646 468.744809 
L 417.053903 469.577897 
L 418.292161 469.304164 
L 420.768675 467.737049 
L 422.006932 467.222865 
L 423.24519 466.365567 
L 424.483447 464.569378 
L 425.721704 461.716212 
L 426.959961 457.755733 
L 428.198219 453.228174 
L 429.436476 449.806214 
L 430.674733 449.348381 
L 431.912991 452.96882 
L 433.151248 460.769485 
L 435.627762 480.815386 
L 436.86602 486.323409 
L 438.104277 486.600673 
L 439.342534 483.266669 
L 440.580791 479.368932 
L 441.819049 477.117482 
L 443.057306 476.154933 
L 444.295563 474.304493 
L 445.53382 469.695788 
L 446.772078 461.809375 
L 449.248592 441.713628 
L 450.48685 434.709722 
L 451.725107 431.016793 
L 454.201621 426.410468 
L 455.439879 424.705762 
L 456.678136 424.075455 
L 457.916393 424.207307 
L 459.15465 425.212025 
L 460.392908 427.60811 
L 461.631165 430.98338 
L 462.869422 433.756389 
L 464.107679 434.338632 
L 465.345937 432.70638 
L 466.584194 430.579497 
L 467.822451 429.515283 
L 469.060709 429.66106 
L 470.298966 430.839739 
L 471.537223 433.557432 
L 472.77548 438.206017 
L 474.013738 443.870189 
L 475.251995 448.098698 
L 476.490252 448.219763 
L 477.728509 443.647284 
L 478.966767 436.250091 
L 481.443281 420.230186 
L 482.681538 413.731387 
L 483.919796 410.987058 
L 485.158053 413.981612 
L 487.634568 430.076913 
L 488.872825 435.146305 
L 490.111082 435.807693 
L 491.349339 433.458925 
L 492.587597 429.204501 
L 493.825854 422.661682 
L 496.302368 405.703904 
L 497.540626 401.871964 
L 498.778883 403.87982 
L 500.01714 409.974782 
L 502.493655 425.676327 
L 503.731912 432.117284 
L 504.970169 435.418213 
L 506.208427 434.149343 
L 507.446684 428.083626 
L 509.923198 409.371626 
L 511.161456 401.972739 
L 512.399713 398.522897 
L 513.63797 400.021038 
L 516.114485 410.712296 
L 517.352742 412.900804 
L 518.590999 410.800013 
L 521.067514 400.444785 
L 522.305771 396.515226 
L 523.544028 395.163651 
L 524.782286 397.277199 
L 526.020543 402.840429 
L 527.2588 410.246704 
L 528.497057 416.860059 
L 529.735315 420.509999 
L 530.973572 420.868696 
L 533.450086 418.049415 
L 534.688344 417.042868 
L 535.926601 414.723387 
L 537.164858 407.677587 
L 538.403116 392.238089 
L 540.87963 341.402344 
L 542.117887 327.756605 
L 543.356145 335.901078 
L 545.832659 384.767549 
L 547.070916 403.420436 
L 548.309174 413.366976 
L 549.547431 416.185157 
L 550.785688 414.9281 
L 552.023945 412.613718 
L 553.262203 411.291387 
L 554.50046 411.61155 
L 555.738717 412.874901 
L 556.976975 413.86649 
L 558.215232 413.930782 
L 559.453489 412.966138 
L 560.691746 410.628407 
L 561.930004 406.183611 
L 564.406518 392.337852 
L 565.644775 388.469943 
L 566.883033 389.971028 
L 568.12129 395.739217 
L 570.597804 412.080249 
L 571.836062 420.022457 
L 573.074319 425.884403 
L 574.312576 428.396515 
L 575.550834 427.360835 
L 576.789091 423.647639 
L 578.027348 418.517976 
L 580.503863 407.613587 
L 581.74212 404.380169 
L 582.980377 405.103823 
L 584.218634 410.064586 
L 586.695149 425.224814 
L 587.933406 430.376162 
L 589.171663 432.183428 
L 590.409921 431.603484 
L 595.36295 425.832342 
L 596.601207 424.49375 
L 597.839464 422.430509 
L 599.077722 418.719227 
L 601.554236 409.516197 
L 604.030751 401.918968 
L 606.507265 393.274903 
L 607.745523 390.213193 
L 608.98378 388.770837 
L 610.222037 388.812817 
L 611.460294 390.304669 
L 612.698552 393.742993 
L 613.936809 398.710319 
L 615.175066 403.035847 
L 616.413323 404.023939 
L 617.651581 399.788882 
L 618.889838 390.490389 
L 620.128095 379.157589 
L 621.366352 369.993056 
L 622.60461 365.625234 
L 623.842867 366.312782 
L 625.081124 370.478568 
L 626.319382 375.491236 
L 627.557639 378.964678 
L 628.795896 380.142693 
L 630.034153 380.402308 
L 631.272411 382.208989 
L 632.510668 386.72704 
L 633.748925 392.38617 
L 634.987182 396.666222 
L 636.22544 398.769383 
L 637.463697 399.609705 
L 638.701954 399.96271 
L 639.940211 399.601702 
L 641.178469 398.336829 
L 642.416726 396.834886 
L 644.893241 394.461272 
L 646.131498 394.005229 
L 647.369755 395.471864 
L 648.608012 398.692987 
L 649.84627 401.440985 
L 651.084527 401.962082 
L 652.322784 401.066373 
L 653.561041 401.306689 
L 654.799299 404.533154 
L 656.037556 409.797868 
L 657.275813 414.223039 
L 658.51407 416.433429 
L 660.990585 418.707439 
L 662.228842 419.543094 
L 663.4671 418.672691 
L 664.705357 415.432313 
L 665.943614 411.386775 
L 667.181871 409.081499 
L 668.420129 408.650318 
L 669.658386 407.798162 
L 670.896643 405.068394 
L 674.611415 393.369444 
L 675.849672 390.321189 
L 677.087929 388.238561 
L 678.326187 387.768574 
L 679.564444 389.494277 
L 680.802701 393.638341 
L 682.040959 398.740361 
L 683.279216 401.614649 
L 684.517473 399.609038 
L 685.75573 392.232201 
L 686.993988 381.868131 
L 688.232245 373.105967 
L 689.470502 369.221782 
L 690.708759 369.519707 
L 691.947017 370.766988 
L 693.185274 370.490058 
L 694.423531 368.520473 
L 698.138303 360.043921 
L 699.37656 358.086806 
L 700.614818 356.768823 
L 704.329589 353.973428 
L 705.567847 352.800835 
L 706.806104 352.524611 
L 708.044361 354.689052 
L 709.282618 359.709161 
L 711.759133 371.982256 
L 712.99739 376.805848 
L 714.235648 380.659197 
L 715.473905 382.764931 
L 716.712162 381.871936 
L 719.188677 374.489676 
L 720.426934 372.927574 
L 721.665191 373.677529 
L 722.903448 374.680804 
L 724.141706 373.796128 
L 725.379963 369.136103 
L 726.61822 359.298617 
L 727.856477 346.287375 
L 729.094735 336.433361 
L 730.332992 335.311276 
L 731.571249 342.429474 
L 732.809507 352.412373 
L 734.047764 360.559014 
L 736.524278 371.73514 
L 742.715565 404.978619 
L 743.953822 408.275875 
L 745.192079 405.591881 
L 746.430336 397.859531 
L 747.668594 388.89181 
L 748.906851 382.60229 
L 750.145108 379.88866 
L 751.383366 377.918884 
L 752.621623 372.996362 
L 755.098137 354.816145 
L 756.336395 349.894166 
L 757.574652 352.912956 
L 758.812909 363.233231 
L 760.051166 376.319036 
L 761.289424 386.692447 
L 762.527681 391.675656 
L 763.765938 392.156137 
L 765.004195 390.154552 
L 766.242453 386.878502 
L 767.48071 382.376285 
L 771.195482 364.351294 
L 773.671996 354.740903 
L 774.910254 349.198492 
L 777.386768 336.285223 
L 778.625025 331.613185 
L 779.863283 330.591106 
L 781.10154 335.403266 
L 782.339797 346.939225 
L 783.578054 362.477969 
L 784.816312 376.498894 
L 786.054569 383.984936 
L 787.292826 382.877877 
L 788.531084 375.049713 
L 789.769341 365.2099 
L 791.007598 357.370432 
L 792.245855 352.723493 
L 793.484113 350.847384 
L 794.72237 350.94134 
L 797.198884 352.976692 
L 798.437142 353.575346 
L 799.675399 353.90472 
L 800.913656 355.431828 
L 802.151914 360.797759 
L 803.390171 371.656529 
L 807.104943 417.399637 
L 808.3432 423.907283 
L 809.581457 423.393823 
L 810.819714 420.045902 
L 812.057972 418.739266 
L 813.296229 421.714636 
L 814.534486 428.299553 
L 815.772743 436.454341 
L 817.011001 443.433421 
L 818.249258 445.651229 
L 819.487515 440.275916 
L 820.725773 427.950532 
L 821.96403 412.996537 
L 823.202287 400.512522 
L 824.440544 392.999866 
L 826.917059 384.172997 
L 828.155316 378.737263 
L 829.393573 375.346511 
L 830.631831 376.370762 
L 831.870088 381.173085 
L 833.108345 387.636178 
L 834.346602 393.444672 
L 835.58486 395.758201 
L 836.823117 392.998003 
L 838.061374 387.43966 
L 839.299632 384.023556 
L 840.537889 385.822668 
L 843.014403 397.420224 
L 844.252661 401.164061 
L 845.490918 401.511667 
L 846.729175 398.197725 
L 849.20569 386.66003 
L 850.443947 383.875737 
L 851.682204 384.080628 
L 854.158719 386.53011 
L 855.396976 388.958292 
L 856.635233 394.576223 
L 857.873491 403.602084 
L 860.350005 425.495726 
L 861.588262 435.195056 
L 862.82652 441.680384 
L 864.064777 441.415756 
L 865.303034 430.671973 
L 866.541291 410.248043 
L 867.779549 386.589686 
L 869.017806 366.70033 
L 870.256063 354.09246 
L 871.49432 349.455091 
L 872.732578 351.70675 
L 875.209092 363.353815 
L 876.44735 366.148104 
L 877.685607 365.400733 
L 878.923864 361.309209 
L 880.162121 354.201882 
L 883.876893 326.97825 
L 885.11515 322.75863 
L 886.353408 323.870079 
L 887.591665 330.386824 
L 888.829922 339.812218 
L 890.06818 347.858424 
L 891.306437 351.382435 
L 892.544694 350.28613 
L 895.021209 342.723725 
L 896.259466 341.312531 
L 897.497723 345.31576 
L 898.73598 356.363598 
L 901.212495 389.182286 
L 902.450752 402.700115 
L 903.689009 410.783432 
L 904.927267 413.177393 
L 906.165524 411.404706 
L 907.403781 407.219354 
L 908.642039 401.160176 
L 909.880296 392.998325 
L 912.35681 373.688226 
L 913.595068 365.084886 
L 914.833325 358.087904 
L 917.309839 346.668734 
L 918.548097 340.726023 
L 919.786354 339.602275 
L 921.024611 347.703577 
L 923.501126 379.014809 
L 924.739383 389.217405 
L 925.97764 390.623106 
L 927.215898 383.828539 
L 928.454155 373.186121 
L 929.692412 364.175499 
L 930.930669 359.322841 
L 932.168927 357.761789 
L 933.407184 357.345318 
L 934.645441 356.206239 
L 935.883698 353.978157 
L 937.121956 351.154315 
L 938.360213 346.820057 
L 939.59847 339.671243 
L 940.836727 331.180899 
L 942.074985 325.258072 
L 943.313242 325.869248 
L 944.551499 334.723719 
L 945.789757 348.76702 
L 947.028014 361.075957 
L 948.266271 365.110754 
L 949.504528 357.237721 
L 950.742786 337.471494 
L 953.2193 285.532409 
L 954.457557 268.94426 
L 955.695815 263.140901 
L 956.934072 266.231334 
L 958.172329 274.584758 
L 959.410586 284.198074 
L 960.648844 291.441215 
L 961.887101 294.69517 
L 963.125358 295.51323 
L 964.363616 297.856174 
L 965.601873 305.389013 
L 968.078387 329.709915 
L 969.316645 337.052499 
L 970.554902 339.018441 
L 971.793159 338.642665 
L 973.031416 339.880727 
L 974.269674 344.191532 
L 975.507931 349.58106 
L 976.746188 353.121756 
L 977.984446 353.16001 
L 979.222703 349.297603 
L 981.699217 336.040412 
L 982.937475 332.557031 
L 984.175732 333.162656 
L 985.413989 336.241446 
L 986.652246 338.070225 
L 987.890504 335.144735 
L 989.128761 327.353221 
L 990.367018 318.260719 
L 991.605275 311.877756 
L 992.843533 310.002351 
L 994.08179 313.121101 
L 995.320047 321.93458 
L 996.558305 336.059093 
L 997.796562 352.265013 
L 999.034819 365.920847 
L 1000.273076 374.173647 
L 1001.511334 376.532637 
L 1002.749591 373.39032 
L 1003.987848 365.855985 
L 1006.464363 346.146625 
L 1007.70262 339.048981 
L 1008.940877 336.431408 
L 1010.179134 337.288478 
L 1011.417392 338.473361 
L 1012.655649 337.751691 
L 1013.893906 334.920806 
L 1015.132164 329.565809 
L 1016.370421 319.766199 
L 1017.608678 304.396784 
L 1020.085193 266.178476 
L 1021.32345 250.995058 
L 1022.561707 241.264665 
L 1026.276479 221.256131 
L 1028.752993 207.090986 
L 1029.991251 202.546294 
L 1031.229508 203.126282 
L 1032.467765 209.471349 
L 1036.182537 239.382516 
L 1037.420794 242.299064 
L 1038.659052 237.253902 
L 1039.897309 225.758638 
L 1041.135566 212.722529 
L 1042.373823 202.192397 
L 1046.088595 178.63375 
L 1049.803367 156.278838 
L 1051.041624 151.070689 
L 1052.279882 149.573122 
L 1053.518139 152.284849 
L 1054.756396 156.704818 
L 1055.994653 157.233366 
L 1057.232911 150.37755 
L 1058.471168 139.032392 
L 1059.709425 129.910708 
L 1060.947682 127.816192 
L 1062.18594 132.99692 
L 1063.424197 142.967406 
L 1068.377226 191.379578 
L 1069.615483 199.801678 
L 1070.853741 205.261611 
L 1072.091998 208.526985 
L 1073.330255 210.448068 
L 1074.568512 211.58181 
L 1075.80677 212.287016 
L 1077.045027 213.171247 
L 1078.283284 215.314787 
L 1079.521541 219.501673 
L 1080.759799 225.983192 
L 1081.998056 233.929338 
L 1083.236313 239.649932 
L 1084.474571 237.675279 
L 1085.712828 225.500191 
L 1088.189342 189.143943 
L 1089.4276 178.813282 
L 1090.665857 177.031459 
L 1091.904114 181.399816 
L 1095.618886 201.724701 
L 1096.857143 206.968643 
L 1098.0954 208.441868 
L 1099.333658 204.181523 
L 1100.571915 196.656869 
L 1101.810172 191.754689 
L 1103.04843 193.420597 
L 1104.286687 201.356504 
L 1105.524944 213.493175 
L 1106.763201 227.073447 
L 1108.001459 238.017004 
L 1109.239716 242.697434 
L 1110.477973 240.064348 
L 1111.71623 231.13403 
L 1112.954488 217.529544 
L 1114.192745 202.265079 
L 1115.431002 191.551003 
L 1116.669259 191.77481 
L 1117.907517 203.448693 
L 1120.384031 237.368568 
L 1121.622289 250.408172 
L 1122.860546 259.338686 
L 1124.098803 263.648158 
L 1125.33706 263.463774 
L 1126.575318 260.233077 
L 1127.813575 255.535222 
L 1130.290089 244.57328 
L 1131.528347 239.969619 
L 1135.243118 229.022225 
L 1136.481376 226.114835 
L 1137.719633 226.109669 
L 1138.95789 230.519578 
L 1141.434405 245.639816 
L 1142.672662 251.74409 
L 1143.910919 256.648112 
L 1145.149177 261.020815 
L 1146.387434 263.982596 
L 1147.625691 263.90015 
L 1148.863948 260.589816 
L 1150.102206 255.267689 
L 1151.340463 249.402003 
L 1152.57872 244.558395 
L 1153.816977 242.403429 
L 1155.055235 244.007131 
L 1157.531749 253.732184 
L 1158.770007 255.361933 
L 1160.008264 252.928327 
L 1161.246521 248.945309 
L 1162.484778 246.72228 
L 1163.723036 249.278645 
L 1164.961293 257.83574 
L 1167.437807 280.798921 
L 1168.676065 287.242253 
L 1169.914322 287.534456 
L 1171.152579 281.734991 
L 1172.390837 271.173302 
L 1173.629094 258.410716 
L 1174.867351 247.81563 
L 1176.105608 244.467256 
L 1177.343866 249.79267 
L 1178.582123 258.589955 
L 1179.82038 263.380238 
L 1181.058637 261.322984 
L 1182.296895 255.492802 
L 1183.535152 251.715775 
L 1184.773409 254.85776 
L 1186.011666 265.163124 
L 1187.249924 278.187262 
L 1188.488181 289.791354 
L 1189.726438 299.288626 
L 1192.202953 315.62389 
L 1193.44121 321.678371 
L 1194.679467 323.240897 
L 1195.917725 319.125754 
L 1198.394239 303.426221 
L 1199.632496 298.164263 
L 1200.870754 295.735676 
L 1202.109011 295.731468 
L 1203.347268 298.303971 
L 1205.823783 307.545707 
L 1207.06204 310.33142 
L 1208.300297 310.875127 
L 1209.538555 308.848758 
L 1210.776812 303.098597 
L 1213.253326 285.397306 
L 1214.491584 283.218135 
L 1215.729841 288.661773 
L 1218.206355 306.129695 
L 1219.444613 312.489623 
L 1220.68287 316.335715 
L 1221.921127 316.87924 
L 1224.397642 312.205915 
L 1225.635899 312.897428 
L 1226.874156 317.415676 
L 1229.350671 331.398493 
L 1230.588928 336.894618 
L 1231.827185 338.124448 
L 1233.065443 335.190628 
L 1234.3037 331.82752 
L 1235.541957 332.020783 
L 1236.780214 336.441413 
L 1238.018472 342.672202 
L 1239.256729 348.177684 
L 1240.494986 351.548205 
L 1241.733243 351.43777 
L 1242.971501 346.300955 
L 1244.209758 335.83079 
L 1245.448015 322.44934 
L 1246.686273 310.441501 
L 1247.92453 302.511723 
L 1249.162787 297.758674 
L 1250.401044 293.707184 
L 1252.877559 284.768356 
L 1254.115816 281.36586 
L 1255.354073 279.841021 
L 1256.592331 280.313499 
L 1257.830588 281.515167 
L 1259.068845 281.217692 
L 1260.307103 278.12641 
L 1262.783617 268.351693 
L 1264.021874 265.824442 
L 1265.260132 267.242102 
L 1266.498389 272.668697 
L 1267.736646 279.549085 
L 1268.974903 284.739612 
L 1270.213161 286.696999 
L 1271.451418 285.338514 
L 1272.689675 281.666133 
L 1276.404447 268.030675 
L 1277.642704 264.615434 
L 1278.880962 263.166535 
L 1280.119219 263.496152 
L 1281.357476 264.720845 
L 1283.833991 267.651822 
L 1285.072248 269.730204 
L 1286.310505 272.556694 
L 1291.263534 286.041669 
L 1292.501791 288.85042 
L 1293.740049 290.361791 
L 1294.978306 290.046174 
L 1296.216563 288.435127 
L 1298.693078 284.146469 
L 1299.931335 281.379016 
L 1301.169592 277.899235 
L 1302.40785 273.681167 
L 1304.884364 263.410845 
L 1306.122621 260.170142 
L 1307.360879 261.063134 
L 1308.599136 266.760905 
L 1309.837393 277.295385 
L 1311.07565 292.524282 
L 1314.790422 347.415537 
L 1316.02868 357.640815 
L 1317.266937 357.293999 
L 1318.505194 344.381556 
L 1320.981709 297.463586 
L 1322.219966 281.629975 
L 1323.458223 279.259581 
L 1324.69648 286.290078 
L 1325.934738 294.230827 
L 1327.172995 298.515182 
L 1328.411252 301.010923 
L 1329.649509 306.711382 
L 1330.887767 317.928555 
L 1332.126024 331.292451 
L 1333.364281 341.742787 
L 1334.602539 346.738984 
L 1335.840796 345.387566 
L 1337.079053 336.818729 
L 1338.31731 320.128168 
L 1339.555568 295.370923 
L 1342.032082 234.177311 
L 1343.270339 211.714628 
L 1344.508597 205.555676 
L 1345.746854 214.962366 
L 1346.985111 230.373504 
L 1348.223368 243.366573 
L 1349.461626 252.416163 
L 1351.93814 267.514964 
L 1353.176398 275.982797 
L 1354.414655 283.470115 
L 1355.652912 287.381568 
L 1356.891169 286.815854 
L 1358.129427 281.85145 
L 1359.367684 271.875748 
L 1361.844198 244.043742 
L 1363.082456 233.997655 
L 1364.320713 228.185531 
L 1365.55897 225.542313 
L 1366.797228 223.925231 
L 1368.035485 221.786229 
L 1369.273742 221.672673 
L 1370.511999 227.056831 
L 1371.750257 235.766139 
L 1372.988514 242.162279 
L 1374.226771 243.62642 
L 1375.465028 240.769191 
L 1376.703286 235.78469 
L 1377.941543 232.164711 
L 1379.1798 232.66931 
L 1380.418057 238.430305 
L 1381.656315 249.910249 
L 1382.894572 267.003692 
L 1385.371087 307.725794 
L 1386.609344 320.662126 
L 1387.847601 323.941254 
L 1389.085858 319.433 
L 1390.324116 310.416753 
L 1391.562373 296.414545 
L 1392.80063 273.551174 
L 1395.277145 209.301975 
L 1396.515402 183.205164 
L 1397.753659 166.946751 
L 1398.991916 160.739336 
L 1400.230174 163.154704 
L 1401.468431 169.633159 
L 1402.706688 174.993735 
L 1405.183203 181.361207 
L 1406.42146 187.072368 
L 1407.659717 195.150588 
L 1408.897975 204.087028 
L 1410.136232 214.240798 
L 1411.374489 227.947528 
L 1417.565775 315.029015 
L 1418.804033 326.608176 
L 1420.04229 332.824785 
L 1422.518805 339.309711 
L 1423.757062 341.721352 
L 1424.995319 340.530094 
L 1426.233576 333.545725 
L 1427.471834 320.636841 
L 1429.948348 287.852346 
L 1432.424863 261.256538 
L 1434.901377 234.550801 
L 1436.139634 222.815275 
L 1437.377892 215.16673 
L 1438.616149 212.562518 
L 1439.854406 214.416036 
L 1441.092664 219.705693 
L 1442.330921 226.635612 
L 1443.569178 232.281491 
L 1444.807435 233.002829 
L 1446.045693 226.768517 
L 1448.522207 206.323248 
L 1449.760464 199.943162 
L 1450.998722 198.092435 
L 1452.236979 199.181967 
L 1453.475236 197.918581 
L 1454.713494 189.294751 
L 1457.190008 158.328253 
L 1458.428265 148.314498 
L 1459.666523 145.274677 
L 1460.90478 144.80879 
L 1462.143037 141.648269 
L 1464.619552 128.357076 
L 1465.857809 125.092996 
L 1467.096066 127.872588 
L 1468.334323 138.101514 
L 1469.572581 152.952319 
L 1470.810838 164.389918 
L 1472.049095 165.860452 
L 1473.287353 159.089062 
L 1474.52561 150.99884 
L 1475.763867 147.409901 
L 1477.002124 150.949707 
L 1478.240382 161.090514 
L 1480.716896 188.409172 
L 1481.955153 195.695295 
L 1483.193411 195.715465 
L 1484.431668 191.243247 
L 1485.669925 184.178251 
L 1486.908182 174.601461 
L 1489.384697 152.792229 
L 1491.861212 132.669403 
L 1493.099469 124.164387 
L 1494.337726 118.780971 
L 1496.814241 113.088633 
L 1498.052498 109.674229 
L 1499.290755 108.55357 
L 1500.529012 113.308862 
L 1501.76727 125.032318 
L 1504.243784 159.814707 
L 1505.482041 170.439322 
L 1506.720299 170.511398 
L 1507.958556 165.566779 
L 1509.196813 164.75646 
L 1510.435071 173.43617 
L 1511.673328 190.694548 
L 1512.911585 209.68611 
L 1514.149842 222.294293 
L 1515.3881 224.847534 
L 1516.626357 217.491457 
L 1517.864614 200.638814 
L 1520.341129 152.044309 
L 1521.579386 138.896961 
L 1522.817643 145.849738 
L 1524.0559 174.776224 
L 1526.532415 259.907487 
L 1527.770672 287.48243 
L 1529.00893 295.272888 
L 1530.247187 287.309722 
L 1531.485444 272.791755 
L 1532.723701 260.712341 
L 1533.961959 254.743444 
L 1535.200216 251.908749 
L 1537.67673 245.460275 
L 1538.914988 240.65531 
L 1540.153245 228.582534 
L 1542.62976 186.519555 
L 1543.868017 177.791608 
L 1545.106274 187.542719 
L 1546.344531 213.330855 
L 1548.821046 278.763462 
L 1550.059303 304.123967 
L 1551.29756 321.841909 
L 1552.535818 331.529807 
L 1553.774075 330.915035 
L 1555.012332 314.977486 
L 1556.250589 279.182689 
L 1559.965361 125.134336 
L 1561.203619 94.68886 
L 1562.441876 76.717346 
L 1563.680133 65.745702 
L 1564.91839 61.235423 
L 1566.156648 69.73669 
L 1567.394905 96.171696 
L 1571.109677 212.519552 
L 1572.347934 235.740763 
L 1573.586191 248.4458 
L 1574.824448 250.990789 
L 1576.062706 242.02272 
L 1577.300963 223.587062 
L 1578.53922 203.346351 
L 1579.777478 189.202824 
L 1581.015735 182.957119 
L 1582.253992 181.0397 
L 1583.492249 181.027966 
L 1584.730507 184.712109 
L 1585.968764 193.2496 
L 1587.207021 203.112776 
L 1588.445278 209.334408 
L 1589.683536 209.854062 
L 1590.921793 207.301314 
L 1592.16005 206.931882 
L 1593.398307 208.629764 
L 1594.636565 202.997747 
L 1595.874822 180.668932 
L 1598.351337 104.24741 
L 1599.589594 77.982344 
L 1600.827851 74.300714 
L 1602.066108 91.35952 
L 1603.304366 117.136005 
L 1604.542623 137.774199 
L 1605.78088 145.029407 
L 1607.019137 139.566433 
L 1608.257395 129.354628 
L 1609.495652 122.330193 
L 1610.733909 120.910594 
L 1611.972166 124.082354 
L 1613.210424 129.972045 
L 1614.448681 135.242185 
L 1616.925196 140.764772 
L 1619.40171 150.863991 
L 1620.639967 150.668194 
L 1621.878225 142.830112 
L 1623.116482 125.79047 
L 1625.592996 73.139389 
L 1626.831254 53.894266 
L 1628.069511 47.979282 
L 1629.307768 54.933784 
L 1630.546026 71.873682 
L 1631.784283 93.382027 
L 1633.02254 112.171484 
L 1634.260797 124.022886 
L 1635.499055 128.702517 
L 1637.975569 128.32499 
L 1639.213826 132.917513 
L 1640.452084 144.574242 
L 1641.690341 162.075494 
L 1641.690341 162.075494 
" style="fill:none;stroke:#008000;stroke-linecap:square;stroke-width:1.5;"/>
   </g>
   <g id="patch_3">
    <path d="M 43.78125 586.86358 
L 43.78125 22.318125 
" style="fill:none;stroke:#000000;stroke-linecap:square;stroke-linejoin:miter;stroke-width:0.8;"/>
   </g>
   <g id="patch_4">
    <path d="M 1717.78125 586.86358 
L 1717.78125 22.318125 
" style="fill:none;stroke:#000000;stroke-linecap:square;stroke-linejoin:miter;stroke-width:0.8;"/>
   </g>
   <g id="patch_5">
    <path d="M 43.78125 586.86358 
L 1717.78125 586.86358 
" style="fill:none;stroke:#000000;stroke-linecap:square;stroke-linejoin:miter;stroke-width:0.8;"/>
   </g>
   <g id="patch_6">
    <path d="M 43.78125 22.318125 
L 1717.78125 22.318125 
" style="fill:none;stroke:#000000;stroke-linecap:square;stroke-linejoin:miter;stroke-width:0.8;"/>
   </g>
   <g id="text_16">
    <!-- before binarisation -->
    <g transform="translate(824.1825 16.318125)scale(0.12 -0.12)">
     <defs>
      <path d="M 3116 1747 
Q 3116 2381 2855 2742 
Q 2594 3103 2138 3103 
Q 1681 3103 1420 2742 
Q 1159 2381 1159 1747 
Q 1159 1113 1420 752 
Q 1681 391 2138 391 
Q 2594 391 2855 752 
Q 3116 1113 3116 1747 
z
M 1159 2969 
Q 1341 3281 1617 3432 
Q 1894 3584 2278 3584 
Q 2916 3584 3314 3078 
Q 3713 2572 3713 1747 
Q 3713 922 3314 415 
Q 2916 -91 2278 -91 
Q 1894 -91 1617 61 
Q 1341 213 1159 525 
L 1159 0 
L 581 0 
L 581 4863 
L 1159 4863 
L 1159 2969 
z
" id="DejaVuSans-62" transform="scale(0.015625)"/>
      <path d="M 1959 3097 
Q 1497 3097 1228 2736 
Q 959 2375 959 1747 
Q 959 1119 1226 758 
Q 1494 397 1959 397 
Q 2419 397 2687 759 
Q 2956 1122 2956 1747 
Q 2956 2369 2687 2733 
Q 2419 3097 1959 3097 
z
M 1959 3584 
Q 2709 3584 3137 3096 
Q 3566 2609 3566 1747 
Q 3566 888 3137 398 
Q 2709 -91 1959 -91 
Q 1206 -91 779 398 
Q 353 888 353 1747 
Q 353 2609 779 3096 
Q 1206 3584 1959 3584 
z
" id="DejaVuSans-6f" transform="scale(0.015625)"/>
      <path id="DejaVuSans-20" transform="scale(0.015625)"/>
      <path d="M 603 3500 
L 1178 3500 
L 1178 0 
L 603 0 
L 603 3500 
z
M 603 4863 
L 1178 4863 
L 1178 4134 
L 603 4134 
L 603 4863 
z
" id="DejaVuSans-69" transform="scale(0.015625)"/>
      <path d="M 3513 2113 
L 3513 0 
L 2938 0 
L 2938 2094 
Q 2938 2591 2744 2837 
Q 2550 3084 2163 3084 
Q 1697 3084 1428 2787 
Q 1159 2491 1159 1978 
L 1159 0 
L 581 0 
L 581 3500 
L 1159 3500 
L 1159 2956 
Q 1366 3272 1645 3428 
Q 1925 3584 2291 3584 
Q 2894 3584 3203 3211 
Q 3513 2838 3513 2113 
z
" id="DejaVuSans-6e" transform="scale(0.015625)"/>
      <path d="M 2834 3397 
L 2834 2853 
Q 2591 2978 2328 3040 
Q 2066 3103 1784 3103 
Q 1356 3103 1142 2972 
Q 928 2841 928 2578 
Q 928 2378 1081 2264 
Q 1234 2150 1697 2047 
L 1894 2003 
Q 2506 1872 2764 1633 
Q 3022 1394 3022 966 
Q 3022 478 2636 193 
Q 2250 -91 1575 -91 
Q 1294 -91 989 -36 
Q 684 19 347 128 
L 347 722 
Q 666 556 975 473 
Q 1284 391 1588 391 
Q 1994 391 2212 530 
Q 2431 669 2431 922 
Q 2431 1156 2273 1281 
Q 2116 1406 1581 1522 
L 1381 1569 
Q 847 1681 609 1914 
Q 372 2147 372 2553 
Q 372 3047 722 3315 
Q 1072 3584 1716 3584 
Q 2034 3584 2315 3537 
Q 2597 3491 2834 3397 
z
" id="DejaVuSans-73" transform="scale(0.015625)"/>
      <path d="M 1172 4494 
L 1172 3500 
L 2356 3500 
L 2356 3053 
L 1172 3053 
L 1172 1153 
Q 1172 725 1289 603 
Q 1406 481 1766 481 
L 2356 481 
L 2356 0 
L 1766 0 
Q 1100 0 847 248 
Q 594 497 594 1153 
L 594 3053 
L 172 3053 
L 172 3500 
L 594 3500 
L 594 4494 
L 1172 4494 
z
" id="DejaVuSans-74" transform="scale(0.015625)"/>
     </defs>
     <use xlink:href="#DejaVuSans-62"/>
     <use x="63.476562" xlink:href="#DejaVuSans-65"/>
     <use x="125" xlink:href="#DejaVuSans-66"/>
     <use x="160.205078" xlink:href="#DejaVuSans-6f"/>
     <use x="221.386719" xlink:href="#DejaVuSans-72"/>
     <use x="260.25" xlink:href="#DejaVuSans-65"/>
     <use x="321.773438" xlink:href="#DejaVuSans-20"/>
     <use x="353.560547" xlink:href="#DejaVuSans-62"/>
     <use x="417.037109" xlink:href="#DejaVuSans-69"/>
     <use x="444.820312" xlink:href="#DejaVuSans-6e"/>
     <use x="508.199219" xlink:href="#DejaVuSans-61"/>
     <use x="569.478516" xlink:href="#DejaVuSans-72"/>
     <use x="610.591797" xlink:href="#DejaVuSans-69"/>
     <use x="638.375" xlink:href="#DejaVuSans-73"/>
     <use x="690.474609" xlink:href="#DejaVuSans-61"/>
     <use x="751.753906" xlink:href="#DejaVuSans-74"/>
     <use x="790.962891" xlink:href="#DejaVuSans-69"/>
     <use x="818.746094" xlink:href="#DejaVuSans-6f"/>
     <use x="879.927734" xlink:href="#DejaVuSans-6e"/>
    </g>
   </g>
  </g>
  <g id="axes_2">
   <g id="patch_7">
    <path d="M 43.78125 1264.318125 
L 1717.78125 1264.318125 
L 1717.78125 699.77267 
L 43.78125 699.77267 
z
" style="fill:#ffffff;"/>
   </g>
   <g id="matplotlib.axis_3">
    <g id="xtick_8">
     <g id="line2d_15">
      <g>
       <use style="stroke:#000000;stroke-width:0.8;" x="119.872159" xlink:href="#m0f1f5ee90c" y="1264.318125"/>
      </g>
     </g>
     <g id="text_17">
      <!-- 0 -->
      <g transform="translate(116.690909 1278.916563)scale(0.1 -0.1)">
       <use xlink:href="#DejaVuSans-30"/>
      </g>
     </g>
    </g>
    <g id="xtick_9">
     <g id="line2d_16">
      <g>
       <use style="stroke:#000000;stroke-width:0.8;" x="367.523613" xlink:href="#m0f1f5ee90c" y="1264.318125"/>
      </g>
     </g>
     <g id="text_18">
      <!-- 200 -->
      <g transform="translate(357.979863 1278.916563)scale(0.1 -0.1)">
       <use xlink:href="#DejaVuSans-32"/>
       <use x="63.623047" xlink:href="#DejaVuSans-30"/>
       <use x="127.246094" xlink:href="#DejaVuSans-30"/>
      </g>
     </g>
    </g>
    <g id="xtick_10">
     <g id="line2d_17">
      <g>
       <use style="stroke:#000000;stroke-width:0.8;" x="615.175066" xlink:href="#m0f1f5ee90c" y="1264.318125"/>
      </g>
     </g>
     <g id="text_19">
      <!-- 400 -->
      <g transform="translate(605.631316 1278.916563)scale(0.1 -0.1)">
       <use xlink:href="#DejaVuSans-34"/>
       <use x="63.623047" xlink:href="#DejaVuSans-30"/>
       <use x="127.246094" xlink:href="#DejaVuSans-30"/>
      </g>
     </g>
    </g>
    <g id="xtick_11">
     <g id="line2d_18">
      <g>
       <use style="stroke:#000000;stroke-width:0.8;" x="862.82652" xlink:href="#m0f1f5ee90c" y="1264.318125"/>
      </g>
     </g>
     <g id="text_20">
      <!-- 600 -->
      <g transform="translate(853.28277 1278.916563)scale(0.1 -0.1)">
       <use xlink:href="#DejaVuSans-36"/>
       <use x="63.623047" xlink:href="#DejaVuSans-30"/>
       <use x="127.246094" xlink:href="#DejaVuSans-30"/>
      </g>
     </g>
    </g>
    <g id="xtick_12">
     <g id="line2d_19">
      <g>
       <use style="stroke:#000000;stroke-width:0.8;" x="1110.477973" xlink:href="#m0f1f5ee90c" y="1264.318125"/>
      </g>
     </g>
     <g id="text_21">
      <!-- 800 -->
      <g transform="translate(1100.934223 1278.916563)scale(0.1 -0.1)">
       <use xlink:href="#DejaVuSans-38"/>
       <use x="63.623047" xlink:href="#DejaVuSans-30"/>
       <use x="127.246094" xlink:href="#DejaVuSans-30"/>
      </g>
     </g>
    </g>
    <g id="xtick_13">
     <g id="line2d_20">
      <g>
       <use style="stroke:#000000;stroke-width:0.8;" x="1358.129427" xlink:href="#m0f1f5ee90c" y="1264.318125"/>
      </g>
     </g>
     <g id="text_22">
      <!-- 1000 -->
      <g transform="translate(1345.404427 1278.916563)scale(0.1 -0.1)">
       <use xlink:href="#DejaVuSans-31"/>
       <use x="63.623047" xlink:href="#DejaVuSans-30"/>
       <use x="127.246094" xlink:href="#DejaVuSans-30"/>
       <use x="190.869141" xlink:href="#DejaVuSans-30"/>
      </g>
     </g>
    </g>
    <g id="xtick_14">
     <g id="line2d_21">
      <g>
       <use style="stroke:#000000;stroke-width:0.8;" x="1605.78088" xlink:href="#m0f1f5ee90c" y="1264.318125"/>
      </g>
     </g>
     <g id="text_23">
      <!-- 1200 -->
      <g transform="translate(1593.05588 1278.916563)scale(0.1 -0.1)">
       <use xlink:href="#DejaVuSans-31"/>
       <use x="63.623047" xlink:href="#DejaVuSans-32"/>
       <use x="127.246094" xlink:href="#DejaVuSans-30"/>
       <use x="190.869141" xlink:href="#DejaVuSans-30"/>
      </g>
     </g>
    </g>
    <g id="text_24">
     <!-- frame -->
     <g transform="translate(865.954687 1292.594688)scale(0.1 -0.1)">
      <use xlink:href="#DejaVuSans-66"/>
      <use x="35.205078" xlink:href="#DejaVuSans-72"/>
      <use x="76.318359" xlink:href="#DejaVuSans-61"/>
      <use x="137.597656" xlink:href="#DejaVuSans-6d"/>
      <use x="235.009766" xlink:href="#DejaVuSans-65"/>
     </g>
    </g>
   </g>
   <g id="matplotlib.axis_4">
    <g id="ytick_7">
     <g id="line2d_22">
      <g>
       <use style="stroke:#000000;stroke-width:0.8;" x="43.78125" xlink:href="#m42c1d98efd" y="1238.656968"/>
      </g>
     </g>
     <g id="text_25">
      <!-- 0.0 -->
      <g transform="translate(20.878125 1242.456187)scale(0.1 -0.1)">
       <use xlink:href="#DejaVuSans-30"/>
       <use x="63.623047" xlink:href="#DejaVuSans-2e"/>
       <use x="95.410156" xlink:href="#DejaVuSans-30"/>
      </g>
     </g>
    </g>
    <g id="ytick_8">
     <g id="line2d_23">
      <g>
       <use style="stroke:#000000;stroke-width:0.8;" x="43.78125" xlink:href="#m42c1d98efd" y="1136.01234"/>
      </g>
     </g>
     <g id="text_26">
      <!-- 0.2 -->
      <g transform="translate(20.878125 1139.811559)scale(0.1 -0.1)">
       <use xlink:href="#DejaVuSans-30"/>
       <use x="63.623047" xlink:href="#DejaVuSans-2e"/>
       <use x="95.410156" xlink:href="#DejaVuSans-32"/>
      </g>
     </g>
    </g>
    <g id="ytick_9">
     <g id="line2d_24">
      <g>
       <use style="stroke:#000000;stroke-width:0.8;" x="43.78125" xlink:href="#m42c1d98efd" y="1033.367712"/>
      </g>
     </g>
     <g id="text_27">
      <!-- 0.4 -->
      <g transform="translate(20.878125 1037.166931)scale(0.1 -0.1)">
       <use xlink:href="#DejaVuSans-30"/>
       <use x="63.623047" xlink:href="#DejaVuSans-2e"/>
       <use x="95.410156" xlink:href="#DejaVuSans-34"/>
      </g>
     </g>
    </g>
    <g id="ytick_10">
     <g id="line2d_25">
      <g>
       <use style="stroke:#000000;stroke-width:0.8;" x="43.78125" xlink:href="#m42c1d98efd" y="930.723084"/>
      </g>
     </g>
     <g id="text_28">
      <!-- 0.6 -->
      <g transform="translate(20.878125 934.522302)scale(0.1 -0.1)">
       <use xlink:href="#DejaVuSans-30"/>
       <use x="63.623047" xlink:href="#DejaVuSans-2e"/>
       <use x="95.410156" xlink:href="#DejaVuSans-36"/>
      </g>
     </g>
    </g>
    <g id="ytick_11">
     <g id="line2d_26">
      <g>
       <use style="stroke:#000000;stroke-width:0.8;" x="43.78125" xlink:href="#m42c1d98efd" y="828.078456"/>
      </g>
     </g>
     <g id="text_29">
      <!-- 0.8 -->
      <g transform="translate(20.878125 831.877674)scale(0.1 -0.1)">
       <use xlink:href="#DejaVuSans-30"/>
       <use x="63.623047" xlink:href="#DejaVuSans-2e"/>
       <use x="95.410156" xlink:href="#DejaVuSans-38"/>
      </g>
     </g>
    </g>
    <g id="ytick_12">
     <g id="line2d_27">
      <g>
       <use style="stroke:#000000;stroke-width:0.8;" x="43.78125" xlink:href="#m42c1d98efd" y="725.433827"/>
      </g>
     </g>
     <g id="text_30">
      <!-- 1.0 -->
      <g transform="translate(20.878125 729.233046)scale(0.1 -0.1)">
       <use xlink:href="#DejaVuSans-31"/>
       <use x="63.623047" xlink:href="#DejaVuSans-2e"/>
       <use x="95.410156" xlink:href="#DejaVuSans-30"/>
      </g>
     </g>
    </g>
    <g id="text_31">
     <!-- GCaMP -->
     <g transform="translate(14.798437 999.803991)rotate(-90)scale(0.1 -0.1)">
      <use xlink:href="#DejaVuSans-47"/>
      <use x="77.490234" xlink:href="#DejaVuSans-43"/>
      <use x="147.314453" xlink:href="#DejaVuSans-61"/>
      <use x="208.59375" xlink:href="#DejaVuSans-4d"/>
      <use x="294.873047" xlink:href="#DejaVuSans-50"/>
     </g>
    </g>
   </g>
   <g id="line2d_28">
    <path clip-path="url(#p69b8a0e29b)" d="M 119.872159 1238.656968 
L 1023.799964 1238.656968 
L 1025.038222 725.433827 
L 1033.706023 725.433827 
L 1034.94428 1238.656968 
L 1038.659052 1238.656968 
L 1039.897309 725.433827 
L 1080.759799 725.433827 
L 1081.998056 1238.656968 
L 1084.474571 1238.656968 
L 1085.712828 725.433827 
L 1106.763201 725.433827 
L 1108.001459 1238.656968 
L 1111.71623 1238.656968 
L 1112.954488 725.433827 
L 1119.145774 725.433827 
L 1120.384031 1238.656968 
L 1135.243118 1238.656968 
L 1136.481376 725.433827 
L 1137.719633 725.433827 
L 1138.95789 1238.656968 
L 1342.032082 1238.656968 
L 1343.270339 725.433827 
L 1345.746854 725.433827 
L 1346.985111 1238.656968 
L 1363.082456 1238.656968 
L 1364.320713 725.433827 
L 1370.511999 725.433827 
L 1371.750257 1238.656968 
L 1394.038887 1238.656968 
L 1395.277145 725.433827 
L 1411.374489 725.433827 
L 1412.612746 1238.656968 
L 1434.901377 1238.656968 
L 1436.139634 725.433827 
L 1442.330921 725.433827 
L 1443.569178 1238.656968 
L 1444.807435 1238.656968 
L 1446.045693 725.433827 
L 1525.294158 725.433827 
L 1526.532415 1238.656968 
L 1540.153245 1238.656968 
L 1541.391502 725.433827 
L 1546.344531 725.433827 
L 1547.582789 1238.656968 
L 1556.250589 1238.656968 
L 1557.488847 725.433827 
L 1571.109677 725.433827 
L 1572.347934 1238.656968 
L 1576.062706 1238.656968 
L 1577.300963 725.433827 
L 1641.690341 725.433827 
L 1641.690341 725.433827 
" style="fill:none;stroke:#008000;stroke-linecap:square;stroke-width:1.5;"/>
   </g>
   <g id="patch_8">
    <path d="M 43.78125 1264.318125 
L 43.78125 699.77267 
" style="fill:none;stroke:#000000;stroke-linecap:square;stroke-linejoin:miter;stroke-width:0.8;"/>
   </g>
   <g id="patch_9">
    <path d="M 1717.78125 1264.318125 
L 1717.78125 699.77267 
" style="fill:none;stroke:#000000;stroke-linecap:square;stroke-linejoin:miter;stroke-width:0.8;"/>
   </g>
   <g id="patch_10">
    <path d="M 43.78125 1264.318125 
L 1717.78125 1264.318125 
" style="fill:none;stroke:#000000;stroke-linecap:square;stroke-linejoin:miter;stroke-width:0.8;"/>
   </g>
   <g id="patch_11">
    <path d="M 43.78125 699.77267 
L 1717.78125 699.77267 
" style="fill:none;stroke:#000000;stroke-linecap:square;stroke-linejoin:miter;stroke-width:0.8;"/>
   </g>
   <g id="text_32">
    <!-- before binarisation -->
    <g transform="translate(824.1825 693.77267)scale(0.12 -0.12)">
     <use xlink:href="#DejaVuSans-62"/>
     <use x="63.476562" xlink:href="#DejaVuSans-65"/>
     <use x="125" xlink:href="#DejaVuSans-66"/>
     <use x="160.205078" xlink:href="#DejaVuSans-6f"/>
     <use x="221.386719" xlink:href="#DejaVuSans-72"/>
     <use x="260.25" xlink:href="#DejaVuSans-65"/>
     <use x="321.773438" xlink:href="#DejaVuSans-20"/>
     <use x="353.560547" xlink:href="#DejaVuSans-62"/>
     <use x="417.037109" xlink:href="#DejaVuSans-69"/>
     <use x="444.820312" xlink:href="#DejaVuSans-6e"/>
     <use x="508.199219" xlink:href="#DejaVuSans-61"/>
     <use x="569.478516" xlink:href="#DejaVuSans-72"/>
     <use x="610.591797" xlink:href="#DejaVuSans-69"/>
     <use x="638.375" xlink:href="#DejaVuSans-73"/>
     <use x="690.474609" xlink:href="#DejaVuSans-61"/>
     <use x="751.753906" xlink:href="#DejaVuSans-74"/>
     <use x="790.962891" xlink:href="#DejaVuSans-69"/>
     <use x="818.746094" xlink:href="#DejaVuSans-6f"/>
     <use x="879.927734" xlink:href="#DejaVuSans-6e"/>
    </g>
   </g>
  </g>
 </g>
 <defs>
  <clipPath id="pdd5a8ca2b0">
   <rect height="564.545455" width="1674" x="43.78125" y="22.318125"/>
  </clipPath>
  <clipPath id="p69b8a0e29b">
   <rect height="564.545455" width="1674" x="43.78125" y="699.77267"/>
  </clipPath>
 </defs>
</svg>
