<?xml version="1.0" encoding="utf-8" standalone="no"?>
<!DOCTYPE svg PUBLIC "-//W3C//DTD SVG 1.1//EN"
  "http://www.w3.org/Graphics/SVG/1.1/DTD/svg11.dtd">
<svg height="1301.874375pt" version="1.1" viewBox="0 0 1731.34375 1301.874375" width="1731.34375pt" xmlns="http://www.w3.org/2000/svg" xmlns:xlink="http://www.w3.org/1999/xlink">
 <metadata>
  <rdf:RDF xmlns:cc="http://creativecommons.org/ns#" xmlns:dc="http://purl.org/dc/elements/1.1/" xmlns:rdf="http://www.w3.org/1999/02/22-rdf-syntax-ns#">
   <cc:Work>
    <dc:type rdf:resource="http://purl.org/dc/dcmitype/StillImage"/>
    <dc:date>2022-07-24T15:54:47.612730</dc:date>
    <dc:format>image/svg+xml</dc:format>
    <dc:creator>
     <cc:Agent>
      <dc:title>Matplotlib v3.4.2, https://matplotlib.org/</dc:title>
     </cc:Agent>
    </dc:creator>
   </cc:Work>
  </rdf:RDF>
 </metadata>
 <defs>
  <style type="text/css">*{stroke-linecap:butt;stroke-linejoin:round;}</style>
 </defs>
 <g id="figure_1">
  <g id="patch_1">
   <path d="M 0 1301.874375 
L 1731.34375 1301.874375 
L 1731.34375 0 
L 0 0 
z
" style="fill:#ffffff;"/>
  </g>
  <g id="axes_1">
   <g id="patch_2">
    <path d="M 50.14375 586.86358 
L 1724.14375 586.86358 
L 1724.14375 22.318125 
L 50.14375 22.318125 
z
" style="fill:#ffffff;"/>
   </g>
   <g id="matplotlib.axis_1">
    <g id="xtick_1">
     <g id="line2d_1">
      <defs>
       <path d="M 0 0 
L 0 3.5 
" id="mb5b60581ca" style="stroke:#000000;stroke-width:0.8;"/>
      </defs>
      <g>
       <use style="stroke:#000000;stroke-width:0.8;" x="126.234659" xlink:href="#mb5b60581ca" y="586.86358"/>
      </g>
     </g>
     <g id="text_1">
      <!-- 0 -->
      <g transform="translate(123.053409 601.462017)scale(0.1 -0.1)">
       <defs>
        <path d="M 2034 4250 
Q 1547 4250 1301 3770 
Q 1056 3291 1056 2328 
Q 1056 1369 1301 889 
Q 1547 409 2034 409 
Q 2525 409 2770 889 
Q 3016 1369 3016 2328 
Q 3016 3291 2770 3770 
Q 2525 4250 2034 4250 
z
M 2034 4750 
Q 2819 4750 3233 4129 
Q 3647 3509 3647 2328 
Q 3647 1150 3233 529 
Q 2819 -91 2034 -91 
Q 1250 -91 836 529 
Q 422 1150 422 2328 
Q 422 3509 836 4129 
Q 1250 4750 2034 4750 
z
" id="DejaVuSans-30" transform="scale(0.015625)"/>
       </defs>
       <use xlink:href="#DejaVuSans-30"/>
      </g>
     </g>
    </g>
    <g id="xtick_2">
     <g id="line2d_2">
      <g>
       <use style="stroke:#000000;stroke-width:0.8;" x="373.886113" xlink:href="#mb5b60581ca" y="586.86358"/>
      </g>
     </g>
     <g id="text_2">
      <!-- 200 -->
      <g transform="translate(364.342363 601.462017)scale(0.1 -0.1)">
       <defs>
        <path d="M 1228 531 
L 3431 531 
L 3431 0 
L 469 0 
L 469 531 
Q 828 903 1448 1529 
Q 2069 2156 2228 2338 
Q 2531 2678 2651 2914 
Q 2772 3150 2772 3378 
Q 2772 3750 2511 3984 
Q 2250 4219 1831 4219 
Q 1534 4219 1204 4116 
Q 875 4013 500 3803 
L 500 4441 
Q 881 4594 1212 4672 
Q 1544 4750 1819 4750 
Q 2544 4750 2975 4387 
Q 3406 4025 3406 3419 
Q 3406 3131 3298 2873 
Q 3191 2616 2906 2266 
Q 2828 2175 2409 1742 
Q 1991 1309 1228 531 
z
" id="DejaVuSans-32" transform="scale(0.015625)"/>
       </defs>
       <use xlink:href="#DejaVuSans-32"/>
       <use x="63.623047" xlink:href="#DejaVuSans-30"/>
       <use x="127.246094" xlink:href="#DejaVuSans-30"/>
      </g>
     </g>
    </g>
    <g id="xtick_3">
     <g id="line2d_3">
      <g>
       <use style="stroke:#000000;stroke-width:0.8;" x="621.537566" xlink:href="#mb5b60581ca" y="586.86358"/>
      </g>
     </g>
     <g id="text_3">
      <!-- 400 -->
      <g transform="translate(611.993816 601.462017)scale(0.1 -0.1)">
       <defs>
        <path d="M 2419 4116 
L 825 1625 
L 2419 1625 
L 2419 4116 
z
M 2253 4666 
L 3047 4666 
L 3047 1625 
L 3713 1625 
L 3713 1100 
L 3047 1100 
L 3047 0 
L 2419 0 
L 2419 1100 
L 313 1100 
L 313 1709 
L 2253 4666 
z
" id="DejaVuSans-34" transform="scale(0.015625)"/>
       </defs>
       <use xlink:href="#DejaVuSans-34"/>
       <use x="63.623047" xlink:href="#DejaVuSans-30"/>
       <use x="127.246094" xlink:href="#DejaVuSans-30"/>
      </g>
     </g>
    </g>
    <g id="xtick_4">
     <g id="line2d_4">
      <g>
       <use style="stroke:#000000;stroke-width:0.8;" x="869.18902" xlink:href="#mb5b60581ca" y="586.86358"/>
      </g>
     </g>
     <g id="text_4">
      <!-- 600 -->
      <g transform="translate(859.64527 601.462017)scale(0.1 -0.1)">
       <defs>
        <path d="M 2113 2584 
Q 1688 2584 1439 2293 
Q 1191 2003 1191 1497 
Q 1191 994 1439 701 
Q 1688 409 2113 409 
Q 2538 409 2786 701 
Q 3034 994 3034 1497 
Q 3034 2003 2786 2293 
Q 2538 2584 2113 2584 
z
M 3366 4563 
L 3366 3988 
Q 3128 4100 2886 4159 
Q 2644 4219 2406 4219 
Q 1781 4219 1451 3797 
Q 1122 3375 1075 2522 
Q 1259 2794 1537 2939 
Q 1816 3084 2150 3084 
Q 2853 3084 3261 2657 
Q 3669 2231 3669 1497 
Q 3669 778 3244 343 
Q 2819 -91 2113 -91 
Q 1303 -91 875 529 
Q 447 1150 447 2328 
Q 447 3434 972 4092 
Q 1497 4750 2381 4750 
Q 2619 4750 2861 4703 
Q 3103 4656 3366 4563 
z
" id="DejaVuSans-36" transform="scale(0.015625)"/>
       </defs>
       <use xlink:href="#DejaVuSans-36"/>
       <use x="63.623047" xlink:href="#DejaVuSans-30"/>
       <use x="127.246094" xlink:href="#DejaVuSans-30"/>
      </g>
     </g>
    </g>
    <g id="xtick_5">
     <g id="line2d_5">
      <g>
       <use style="stroke:#000000;stroke-width:0.8;" x="1116.840473" xlink:href="#mb5b60581ca" y="586.86358"/>
      </g>
     </g>
     <g id="text_5">
      <!-- 800 -->
      <g transform="translate(1107.296723 601.462017)scale(0.1 -0.1)">
       <defs>
        <path d="M 2034 2216 
Q 1584 2216 1326 1975 
Q 1069 1734 1069 1313 
Q 1069 891 1326 650 
Q 1584 409 2034 409 
Q 2484 409 2743 651 
Q 3003 894 3003 1313 
Q 3003 1734 2745 1975 
Q 2488 2216 2034 2216 
z
M 1403 2484 
Q 997 2584 770 2862 
Q 544 3141 544 3541 
Q 544 4100 942 4425 
Q 1341 4750 2034 4750 
Q 2731 4750 3128 4425 
Q 3525 4100 3525 3541 
Q 3525 3141 3298 2862 
Q 3072 2584 2669 2484 
Q 3125 2378 3379 2068 
Q 3634 1759 3634 1313 
Q 3634 634 3220 271 
Q 2806 -91 2034 -91 
Q 1263 -91 848 271 
Q 434 634 434 1313 
Q 434 1759 690 2068 
Q 947 2378 1403 2484 
z
M 1172 3481 
Q 1172 3119 1398 2916 
Q 1625 2713 2034 2713 
Q 2441 2713 2670 2916 
Q 2900 3119 2900 3481 
Q 2900 3844 2670 4047 
Q 2441 4250 2034 4250 
Q 1625 4250 1398 4047 
Q 1172 3844 1172 3481 
z
" id="DejaVuSans-38" transform="scale(0.015625)"/>
       </defs>
       <use xlink:href="#DejaVuSans-38"/>
       <use x="63.623047" xlink:href="#DejaVuSans-30"/>
       <use x="127.246094" xlink:href="#DejaVuSans-30"/>
      </g>
     </g>
    </g>
    <g id="xtick_6">
     <g id="line2d_6">
      <g>
       <use style="stroke:#000000;stroke-width:0.8;" x="1364.491927" xlink:href="#mb5b60581ca" y="586.86358"/>
      </g>
     </g>
     <g id="text_6">
      <!-- 1000 -->
      <g transform="translate(1351.766927 601.462017)scale(0.1 -0.1)">
       <defs>
        <path d="M 794 531 
L 1825 531 
L 1825 4091 
L 703 3866 
L 703 4441 
L 1819 4666 
L 2450 4666 
L 2450 531 
L 3481 531 
L 3481 0 
L 794 0 
L 794 531 
z
" id="DejaVuSans-31" transform="scale(0.015625)"/>
       </defs>
       <use xlink:href="#DejaVuSans-31"/>
       <use x="63.623047" xlink:href="#DejaVuSans-30"/>
       <use x="127.246094" xlink:href="#DejaVuSans-30"/>
       <use x="190.869141" xlink:href="#DejaVuSans-30"/>
      </g>
     </g>
    </g>
    <g id="xtick_7">
     <g id="line2d_7">
      <g>
       <use style="stroke:#000000;stroke-width:0.8;" x="1612.14338" xlink:href="#mb5b60581ca" y="586.86358"/>
      </g>
     </g>
     <g id="text_7">
      <!-- 1200 -->
      <g transform="translate(1599.41838 601.462017)scale(0.1 -0.1)">
       <use xlink:href="#DejaVuSans-31"/>
       <use x="63.623047" xlink:href="#DejaVuSans-32"/>
       <use x="127.246094" xlink:href="#DejaVuSans-30"/>
       <use x="190.869141" xlink:href="#DejaVuSans-30"/>
      </g>
     </g>
    </g>
    <g id="text_8">
     <!-- frame -->
     <g transform="translate(872.317187 615.140142)scale(0.1 -0.1)">
      <defs>
       <path d="M 2375 4863 
L 2375 4384 
L 1825 4384 
Q 1516 4384 1395 4259 
Q 1275 4134 1275 3809 
L 1275 3500 
L 2222 3500 
L 2222 3053 
L 1275 3053 
L 1275 0 
L 697 0 
L 697 3053 
L 147 3053 
L 147 3500 
L 697 3500 
L 697 3744 
Q 697 4328 969 4595 
Q 1241 4863 1831 4863 
L 2375 4863 
z
" id="DejaVuSans-66" transform="scale(0.015625)"/>
       <path d="M 2631 2963 
Q 2534 3019 2420 3045 
Q 2306 3072 2169 3072 
Q 1681 3072 1420 2755 
Q 1159 2438 1159 1844 
L 1159 0 
L 581 0 
L 581 3500 
L 1159 3500 
L 1159 2956 
Q 1341 3275 1631 3429 
Q 1922 3584 2338 3584 
Q 2397 3584 2469 3576 
Q 2541 3569 2628 3553 
L 2631 2963 
z
" id="DejaVuSans-72" transform="scale(0.015625)"/>
       <path d="M 2194 1759 
Q 1497 1759 1228 1600 
Q 959 1441 959 1056 
Q 959 750 1161 570 
Q 1363 391 1709 391 
Q 2188 391 2477 730 
Q 2766 1069 2766 1631 
L 2766 1759 
L 2194 1759 
z
M 3341 1997 
L 3341 0 
L 2766 0 
L 2766 531 
Q 2569 213 2275 61 
Q 1981 -91 1556 -91 
Q 1019 -91 701 211 
Q 384 513 384 1019 
Q 384 1609 779 1909 
Q 1175 2209 1959 2209 
L 2766 2209 
L 2766 2266 
Q 2766 2663 2505 2880 
Q 2244 3097 1772 3097 
Q 1472 3097 1187 3025 
Q 903 2953 641 2809 
L 641 3341 
Q 956 3463 1253 3523 
Q 1550 3584 1831 3584 
Q 2591 3584 2966 3190 
Q 3341 2797 3341 1997 
z
" id="DejaVuSans-61" transform="scale(0.015625)"/>
       <path d="M 3328 2828 
Q 3544 3216 3844 3400 
Q 4144 3584 4550 3584 
Q 5097 3584 5394 3201 
Q 5691 2819 5691 2113 
L 5691 0 
L 5113 0 
L 5113 2094 
Q 5113 2597 4934 2840 
Q 4756 3084 4391 3084 
Q 3944 3084 3684 2787 
Q 3425 2491 3425 1978 
L 3425 0 
L 2847 0 
L 2847 2094 
Q 2847 2600 2669 2842 
Q 2491 3084 2119 3084 
Q 1678 3084 1418 2786 
Q 1159 2488 1159 1978 
L 1159 0 
L 581 0 
L 581 3500 
L 1159 3500 
L 1159 2956 
Q 1356 3278 1631 3431 
Q 1906 3584 2284 3584 
Q 2666 3584 2933 3390 
Q 3200 3197 3328 2828 
z
" id="DejaVuSans-6d" transform="scale(0.015625)"/>
       <path d="M 3597 1894 
L 3597 1613 
L 953 1613 
Q 991 1019 1311 708 
Q 1631 397 2203 397 
Q 2534 397 2845 478 
Q 3156 559 3463 722 
L 3463 178 
Q 3153 47 2828 -22 
Q 2503 -91 2169 -91 
Q 1331 -91 842 396 
Q 353 884 353 1716 
Q 353 2575 817 3079 
Q 1281 3584 2069 3584 
Q 2775 3584 3186 3129 
Q 3597 2675 3597 1894 
z
M 3022 2063 
Q 3016 2534 2758 2815 
Q 2500 3097 2075 3097 
Q 1594 3097 1305 2825 
Q 1016 2553 972 2059 
L 3022 2063 
z
" id="DejaVuSans-65" transform="scale(0.015625)"/>
      </defs>
      <use xlink:href="#DejaVuSans-66"/>
      <use x="35.205078" xlink:href="#DejaVuSans-72"/>
      <use x="76.318359" xlink:href="#DejaVuSans-61"/>
      <use x="137.597656" xlink:href="#DejaVuSans-6d"/>
      <use x="235.009766" xlink:href="#DejaVuSans-65"/>
     </g>
    </g>
   </g>
   <g id="matplotlib.axis_2">
    <g id="ytick_1">
     <g id="line2d_8">
      <defs>
       <path d="M 0 0 
L -3.5 0 
" id="me1d298fde3" style="stroke:#000000;stroke-width:0.8;"/>
      </defs>
      <g>
       <use style="stroke:#000000;stroke-width:0.8;" x="50.14375" xlink:href="#me1d298fde3" y="541.661699"/>
      </g>
     </g>
     <g id="text_9">
      <!-- 0.50 -->
      <g transform="translate(20.878125 545.460918)scale(0.1 -0.1)">
       <defs>
        <path d="M 684 794 
L 1344 794 
L 1344 0 
L 684 0 
L 684 794 
z
" id="DejaVuSans-2e" transform="scale(0.015625)"/>
        <path d="M 691 4666 
L 3169 4666 
L 3169 4134 
L 1269 4134 
L 1269 2991 
Q 1406 3038 1543 3061 
Q 1681 3084 1819 3084 
Q 2600 3084 3056 2656 
Q 3513 2228 3513 1497 
Q 3513 744 3044 326 
Q 2575 -91 1722 -91 
Q 1428 -91 1123 -41 
Q 819 9 494 109 
L 494 744 
Q 775 591 1075 516 
Q 1375 441 1709 441 
Q 2250 441 2565 725 
Q 2881 1009 2881 1497 
Q 2881 1984 2565 2268 
Q 2250 2553 1709 2553 
Q 1456 2553 1204 2497 
Q 953 2441 691 2322 
L 691 4666 
z
" id="DejaVuSans-35" transform="scale(0.015625)"/>
       </defs>
       <use xlink:href="#DejaVuSans-30"/>
       <use x="63.623047" xlink:href="#DejaVuSans-2e"/>
       <use x="95.410156" xlink:href="#DejaVuSans-35"/>
       <use x="159.033203" xlink:href="#DejaVuSans-30"/>
      </g>
     </g>
    </g>
    <g id="ytick_2">
     <g id="line2d_9">
      <g>
       <use style="stroke:#000000;stroke-width:0.8;" x="50.14375" xlink:href="#me1d298fde3" y="473.277611"/>
      </g>
     </g>
     <g id="text_10">
      <!-- 0.75 -->
      <g transform="translate(20.878125 477.07683)scale(0.1 -0.1)">
       <defs>
        <path d="M 525 4666 
L 3525 4666 
L 3525 4397 
L 1831 0 
L 1172 0 
L 2766 4134 
L 525 4134 
L 525 4666 
z
" id="DejaVuSans-37" transform="scale(0.015625)"/>
       </defs>
       <use xlink:href="#DejaVuSans-30"/>
       <use x="63.623047" xlink:href="#DejaVuSans-2e"/>
       <use x="95.410156" xlink:href="#DejaVuSans-37"/>
       <use x="159.033203" xlink:href="#DejaVuSans-35"/>
      </g>
     </g>
    </g>
    <g id="ytick_3">
     <g id="line2d_10">
      <g>
       <use style="stroke:#000000;stroke-width:0.8;" x="50.14375" xlink:href="#me1d298fde3" y="404.893523"/>
      </g>
     </g>
     <g id="text_11">
      <!-- 1.00 -->
      <g transform="translate(20.878125 408.692742)scale(0.1 -0.1)">
       <use xlink:href="#DejaVuSans-31"/>
       <use x="63.623047" xlink:href="#DejaVuSans-2e"/>
       <use x="95.410156" xlink:href="#DejaVuSans-30"/>
       <use x="159.033203" xlink:href="#DejaVuSans-30"/>
      </g>
     </g>
    </g>
    <g id="ytick_4">
     <g id="line2d_11">
      <g>
       <use style="stroke:#000000;stroke-width:0.8;" x="50.14375" xlink:href="#me1d298fde3" y="336.509436"/>
      </g>
     </g>
     <g id="text_12">
      <!-- 1.25 -->
      <g transform="translate(20.878125 340.308654)scale(0.1 -0.1)">
       <use xlink:href="#DejaVuSans-31"/>
       <use x="63.623047" xlink:href="#DejaVuSans-2e"/>
       <use x="95.410156" xlink:href="#DejaVuSans-32"/>
       <use x="159.033203" xlink:href="#DejaVuSans-35"/>
      </g>
     </g>
    </g>
    <g id="ytick_5">
     <g id="line2d_12">
      <g>
       <use style="stroke:#000000;stroke-width:0.8;" x="50.14375" xlink:href="#me1d298fde3" y="268.125348"/>
      </g>
     </g>
     <g id="text_13">
      <!-- 1.50 -->
      <g transform="translate(20.878125 271.924567)scale(0.1 -0.1)">
       <use xlink:href="#DejaVuSans-31"/>
       <use x="63.623047" xlink:href="#DejaVuSans-2e"/>
       <use x="95.410156" xlink:href="#DejaVuSans-35"/>
       <use x="159.033203" xlink:href="#DejaVuSans-30"/>
      </g>
     </g>
    </g>
    <g id="ytick_6">
     <g id="line2d_13">
      <g>
       <use style="stroke:#000000;stroke-width:0.8;" x="50.14375" xlink:href="#me1d298fde3" y="199.74126"/>
      </g>
     </g>
     <g id="text_14">
      <!-- 1.75 -->
      <g transform="translate(20.878125 203.540479)scale(0.1 -0.1)">
       <use xlink:href="#DejaVuSans-31"/>
       <use x="63.623047" xlink:href="#DejaVuSans-2e"/>
       <use x="95.410156" xlink:href="#DejaVuSans-37"/>
       <use x="159.033203" xlink:href="#DejaVuSans-35"/>
      </g>
     </g>
    </g>
    <g id="ytick_7">
     <g id="line2d_14">
      <g>
       <use style="stroke:#000000;stroke-width:0.8;" x="50.14375" xlink:href="#me1d298fde3" y="131.357173"/>
      </g>
     </g>
     <g id="text_15">
      <!-- 2.00 -->
      <g transform="translate(20.878125 135.156391)scale(0.1 -0.1)">
       <use xlink:href="#DejaVuSans-32"/>
       <use x="63.623047" xlink:href="#DejaVuSans-2e"/>
       <use x="95.410156" xlink:href="#DejaVuSans-30"/>
       <use x="159.033203" xlink:href="#DejaVuSans-30"/>
      </g>
     </g>
    </g>
    <g id="ytick_8">
     <g id="line2d_15">
      <g>
       <use style="stroke:#000000;stroke-width:0.8;" x="50.14375" xlink:href="#me1d298fde3" y="62.973085"/>
      </g>
     </g>
     <g id="text_16">
      <!-- 2.25 -->
      <g transform="translate(20.878125 66.772304)scale(0.1 -0.1)">
       <use xlink:href="#DejaVuSans-32"/>
       <use x="63.623047" xlink:href="#DejaVuSans-2e"/>
       <use x="95.410156" xlink:href="#DejaVuSans-32"/>
       <use x="159.033203" xlink:href="#DejaVuSans-35"/>
      </g>
     </g>
    </g>
    <g id="text_17">
     <!-- GCaMP -->
     <g transform="translate(14.798438 322.349446)rotate(-90)scale(0.1 -0.1)">
      <defs>
       <path d="M 3809 666 
L 3809 1919 
L 2778 1919 
L 2778 2438 
L 4434 2438 
L 4434 434 
Q 4069 175 3628 42 
Q 3188 -91 2688 -91 
Q 1594 -91 976 548 
Q 359 1188 359 2328 
Q 359 3472 976 4111 
Q 1594 4750 2688 4750 
Q 3144 4750 3555 4637 
Q 3966 4525 4313 4306 
L 4313 3634 
Q 3963 3931 3569 4081 
Q 3175 4231 2741 4231 
Q 1884 4231 1454 3753 
Q 1025 3275 1025 2328 
Q 1025 1384 1454 906 
Q 1884 428 2741 428 
Q 3075 428 3337 486 
Q 3600 544 3809 666 
z
" id="DejaVuSans-47" transform="scale(0.015625)"/>
       <path d="M 4122 4306 
L 4122 3641 
Q 3803 3938 3442 4084 
Q 3081 4231 2675 4231 
Q 1875 4231 1450 3742 
Q 1025 3253 1025 2328 
Q 1025 1406 1450 917 
Q 1875 428 2675 428 
Q 3081 428 3442 575 
Q 3803 722 4122 1019 
L 4122 359 
Q 3791 134 3420 21 
Q 3050 -91 2638 -91 
Q 1578 -91 968 557 
Q 359 1206 359 2328 
Q 359 3453 968 4101 
Q 1578 4750 2638 4750 
Q 3056 4750 3426 4639 
Q 3797 4528 4122 4306 
z
" id="DejaVuSans-43" transform="scale(0.015625)"/>
       <path d="M 628 4666 
L 1569 4666 
L 2759 1491 
L 3956 4666 
L 4897 4666 
L 4897 0 
L 4281 0 
L 4281 4097 
L 3078 897 
L 2444 897 
L 1241 4097 
L 1241 0 
L 628 0 
L 628 4666 
z
" id="DejaVuSans-4d" transform="scale(0.015625)"/>
       <path d="M 1259 4147 
L 1259 2394 
L 2053 2394 
Q 2494 2394 2734 2622 
Q 2975 2850 2975 3272 
Q 2975 3691 2734 3919 
Q 2494 4147 2053 4147 
L 1259 4147 
z
M 628 4666 
L 2053 4666 
Q 2838 4666 3239 4311 
Q 3641 3956 3641 3272 
Q 3641 2581 3239 2228 
Q 2838 1875 2053 1875 
L 1259 1875 
L 1259 0 
L 628 0 
L 628 4666 
z
" id="DejaVuSans-50" transform="scale(0.015625)"/>
      </defs>
      <use xlink:href="#DejaVuSans-47"/>
      <use x="77.490234" xlink:href="#DejaVuSans-43"/>
      <use x="147.314453" xlink:href="#DejaVuSans-61"/>
      <use x="208.59375" xlink:href="#DejaVuSans-4d"/>
      <use x="294.873047" xlink:href="#DejaVuSans-50"/>
     </g>
    </g>
   </g>
   <g id="line2d_16">
    <path clip-path="url(#p1a58008a61)" d="M 126.234659 561.202423 
L 127.472916 558.125979 
L 128.711174 555.421578 
L 129.949431 553.226528 
L 131.187688 551.700223 
L 132.425945 551.137444 
L 133.664203 551.639769 
L 136.140717 553.928503 
L 137.378974 554.27942 
L 138.617232 553.670265 
L 139.855489 552.308036 
L 141.093746 550.410227 
L 142.332004 548.079144 
L 144.808518 543.017916 
L 146.046775 541.050913 
L 147.285033 539.70879 
L 149.761547 537.657107 
L 150.999804 536.222799 
L 153.476319 532.743721 
L 154.714576 531.375976 
L 155.952834 530.413831 
L 158.429348 528.82945 
L 159.667605 527.83236 
L 160.905863 526.346822 
L 162.14412 524.244035 
L 165.858892 517.002314 
L 168.335406 513.194054 
L 169.573663 511.537136 
L 170.811921 510.106685 
L 174.526693 506.555384 
L 175.76495 504.364495 
L 177.003207 501.248616 
L 179.479722 493.886776 
L 180.717979 490.712388 
L 181.956236 488.219317 
L 183.194493 486.53206 
L 184.432751 485.705912 
L 186.909265 485.223407 
L 188.147522 483.973273 
L 190.624037 479.120171 
L 193.100552 475.537707 
L 194.338809 473.013934 
L 195.577066 469.481209 
L 198.053581 461.107352 
L 199.291838 457.659942 
L 200.530095 455.550237 
L 201.768352 454.664674 
L 204.244867 454.347069 
L 205.483124 453.428257 
L 206.721381 451.336362 
L 209.197896 445.978912 
L 210.436153 444.391996 
L 211.674411 443.886191 
L 212.912668 444.203607 
L 214.150925 444.970963 
L 215.389182 445.478025 
L 216.62744 444.868494 
L 217.865697 442.638691 
L 219.103954 438.665082 
L 221.580469 428.041354 
L 222.818726 423.899054 
L 224.056983 421.296461 
L 225.29524 419.746868 
L 226.533498 418.690083 
L 230.24827 416.066993 
L 231.486527 414.805 
L 235.201299 409.947284 
L 236.439556 407.492874 
L 237.677813 403.163847 
L 238.91607 396.676278 
L 240.154328 389.189715 
L 241.392585 382.598418 
L 242.630842 378.237343 
L 243.8691 376.272799 
L 245.107357 375.716681 
L 246.345614 374.870007 
L 247.583871 372.295782 
L 248.822129 367.843455 
L 251.298643 357.834046 
L 252.5369 353.632273 
L 253.775158 350.018708 
L 255.013415 347.394506 
L 256.251672 346.190766 
L 257.489929 346.202252 
L 258.728187 346.755246 
L 259.966444 347.134729 
L 261.204701 346.47022 
L 262.442959 343.981556 
L 263.681216 339.616967 
L 264.919473 333.914915 
L 266.15773 327.344449 
L 267.395988 319.973982 
L 269.872502 302.478289 
L 271.110759 293.955765 
L 272.349017 287.827274 
L 273.587274 284.844962 
L 274.825531 284.195912 
L 276.063788 284.526767 
L 277.302046 285.157328 
L 279.77856 286.709582 
L 281.016818 286.417749 
L 282.255075 284.266405 
L 283.493332 280.389585 
L 285.969847 271.251726 
L 287.208104 267.307152 
L 288.446361 264.266295 
L 289.684618 261.724539 
L 290.922876 258.477478 
L 292.161133 253.606771 
L 294.637647 241.467516 
L 295.875905 237.035039 
L 297.114162 234.758709 
L 298.352419 234.750499 
L 299.590677 237.131972 
L 302.067191 245.010534 
L 303.305448 246.523945 
L 304.543706 246.037921 
L 305.781963 245.269297 
L 307.02022 245.534846 
L 309.496735 247.903868 
L 310.734992 248.434515 
L 313.211506 248.71631 
L 314.449764 248.438954 
L 315.688021 247.210914 
L 316.926278 244.646002 
L 318.164536 240.956761 
L 320.64105 232.25501 
L 321.879307 227.22864 
L 325.594079 210.878847 
L 326.832336 206.611712 
L 328.070594 203.690244 
L 329.308851 202.574316 
L 330.547108 203.183457 
L 331.785366 205.12773 
L 334.26188 211.002507 
L 335.500137 212.791279 
L 336.738395 212.491798 
L 337.976652 209.841968 
L 339.214909 204.943748 
L 340.453166 198.041949 
L 342.929681 181.211343 
L 344.167938 175.047253 
L 345.406195 172.899224 
L 346.644453 174.769262 
L 347.88271 179.585393 
L 349.120967 185.743212 
L 350.359225 191.031238 
L 351.597482 193.559251 
L 352.835739 192.703228 
L 354.073996 188.925108 
L 356.550511 177.98864 
L 357.788768 174.034897 
L 359.027025 172.559993 
L 360.265283 173.975635 
L 362.741797 181.630019 
L 363.980054 183.472627 
L 365.218312 182.088741 
L 366.456569 178.172985 
L 368.933084 168.952114 
L 370.171341 165.43027 
L 371.409598 162.714104 
L 372.647855 161.016419 
L 373.886113 160.856393 
L 376.362627 163.426714 
L 377.600884 163.225902 
L 378.839142 161.225589 
L 380.077399 158.047483 
L 382.553913 150.437175 
L 383.792171 145.869072 
L 386.268685 136.071433 
L 387.506943 132.516777 
L 388.7452 129.870207 
L 389.983457 128.010397 
L 391.221714 127.515039 
L 392.459972 128.450057 
L 393.698229 129.241141 
L 394.936486 128.048506 
L 397.413001 121.94179 
L 398.651258 119.841729 
L 399.889515 118.696371 
L 401.127772 118.256722 
L 402.36603 118.429222 
L 403.604287 119.378094 
L 404.842544 120.783465 
L 406.080802 121.095096 
L 407.319059 119.10516 
L 409.795573 112.258376 
L 411.033831 110.070214 
L 412.272088 109.147944 
L 413.510345 109.020585 
L 414.748602 108.333741 
L 415.98686 105.391506 
L 417.225117 99.945747 
L 418.463374 93.751709 
L 419.701632 88.793578 
L 420.939889 85.647724 
L 422.178146 83.903934 
L 423.416403 83.354376 
L 424.654661 83.975635 
L 425.892918 85.376948 
L 427.131175 87.167921 
L 428.369432 89.670786 
L 429.60769 93.821976 
L 432.084204 105.659234 
L 433.322461 108.783718 
L 434.560719 108.22325 
L 435.798976 105.034432 
L 437.037233 100.455792 
L 438.275491 94.908138 
L 440.752005 82.222255 
L 441.990262 77.026774 
L 443.22852 73.861013 
L 444.466777 72.681927 
L 445.705034 72.782647 
L 446.943291 73.56385 
L 448.181549 75.013341 
L 449.419806 77.392549 
L 450.658063 80.3841 
L 451.89632 82.58214 
L 453.134578 82.07539 
L 454.372835 78.377635 
L 455.611092 73.782679 
L 456.84935 71.746618 
L 458.087607 73.746878 
L 459.325864 78.045155 
L 460.564121 81.451328 
L 461.802379 81.925536 
L 463.040636 79.481878 
L 464.278893 75.489404 
L 465.51715 72.065316 
L 466.755408 71.599693 
L 467.993665 75.427172 
L 469.231922 82.884389 
L 470.470179 91.893232 
L 471.708437 100.049528 
L 472.946694 105.593205 
L 474.184951 108.005347 
L 475.423209 107.862138 
L 476.661466 106.054564 
L 477.899723 102.937356 
L 479.13798 98.436538 
L 480.376238 93.019205 
L 481.614495 88.239753 
L 482.852752 86.033296 
L 484.091009 87.155438 
L 485.329267 90.505186 
L 486.567524 94.220237 
L 487.805781 97.043047 
L 489.044038 98.501002 
L 490.282296 98.629171 
L 491.520553 97.850595 
L 492.75881 96.560385 
L 495.235325 93.483955 
L 496.473582 92.604523 
L 497.711839 92.933753 
L 498.950097 94.764315 
L 500.188354 97.456739 
L 501.426611 99.65233 
L 502.664868 100.107196 
L 503.903126 98.076115 
L 506.37964 89.537197 
L 507.617897 87.078487 
L 508.856155 87.218603 
L 511.332669 91.400296 
L 512.570927 91.273698 
L 513.809184 87.842206 
L 516.285698 77.295801 
L 517.523956 73.270228 
L 518.762213 70.226197 
L 520.00047 67.987007 
L 521.238727 67.241456 
L 522.476985 68.9308 
L 523.715242 73.170821 
L 524.953499 78.484798 
L 526.191757 81.91525 
L 527.430014 81.334063 
L 528.668271 77.374915 
L 531.144786 67.394772 
L 532.383043 63.711979 
L 537.336072 51.33928 
L 538.574329 48.94792 
L 539.812586 47.979282 
L 541.050844 49.333564 
L 542.289101 52.665747 
L 544.765616 60.346142 
L 548.480387 70.113904 
L 549.718645 72.584378 
L 550.956902 73.531883 
L 552.195159 73.300923 
L 553.433416 72.729066 
L 554.671674 72.700596 
L 555.909931 74.577137 
L 557.148188 79.969222 
L 558.386445 89.63723 
L 559.624703 102.870862 
L 562.101217 132.813773 
L 563.339475 145.103328 
L 564.577732 153.064464 
L 565.815989 156.528799 
L 567.054246 156.672229 
L 568.292504 155.259318 
L 569.530761 154.157752 
L 570.769018 154.428686 
L 572.007275 156.179286 
L 574.48379 162.437338 
L 575.722047 163.986009 
L 576.960304 162.979016 
L 578.198562 160.697865 
L 579.436819 159.274651 
L 580.675076 160.104633 
L 581.913334 163.150492 
L 583.151591 167.033512 
L 584.389848 170.007671 
L 585.628105 170.774432 
L 586.866363 168.218264 
L 588.10462 161.729681 
L 590.581134 144.362292 
L 591.819392 139.076635 
L 593.057649 137.701215 
L 594.295906 140.100104 
L 595.534163 145.487037 
L 598.010678 159.650091 
L 599.248935 165.266735 
L 600.487193 168.495648 
L 601.72545 169.244246 
L 602.963707 168.064978 
L 604.201964 166.04021 
L 605.440222 164.282119 
L 606.678479 163.377046 
L 607.916736 163.469929 
L 609.154993 164.464588 
L 610.393251 165.77723 
L 611.631508 166.469899 
L 612.869765 166.054834 
L 615.34628 163.61067 
L 616.584537 162.748414 
L 617.822794 162.665043 
L 619.061052 163.962551 
L 620.299309 167.042362 
L 622.775823 175.858927 
L 624.014081 179.678536 
L 625.252338 183.02851 
L 626.490595 185.813053 
L 627.728852 187.104018 
L 628.96711 186.070962 
L 631.443624 180.401442 
L 632.681882 180.90893 
L 633.920139 186.378331 
L 636.396653 204.539458 
L 637.634911 211.751084 
L 638.873168 217.166559 
L 640.111425 221.050969 
L 641.349682 222.754159 
L 642.58794 221.685375 
L 645.064454 214.860242 
L 646.302711 214.294012 
L 647.540969 218.322029 
L 648.779226 226.159684 
L 651.255741 245.172783 
L 652.493998 253.679818 
L 653.732255 259.79799 
L 654.970512 262.528806 
L 656.20877 262.081745 
L 657.447027 259.095546 
L 659.923541 249.934373 
L 661.161799 247.422556 
L 662.400056 247.564382 
L 663.638313 249.654659 
L 664.87657 252.753311 
L 666.114828 256.458314 
L 668.591342 264.716 
L 669.8296 267.143499 
L 671.067857 266.455719 
L 672.306114 262.393648 
L 673.544371 256.500035 
L 674.782629 251.322465 
L 676.020886 249.156067 
L 677.259143 251.231664 
L 678.4974 257.14082 
L 680.973915 272.506821 
L 682.212172 278.34697 
L 683.450429 282.391762 
L 684.688687 285.0591 
L 685.926944 286.410106 
L 687.165201 286.498744 
L 688.403459 285.863216 
L 689.641716 284.977163 
L 693.356488 281.876998 
L 694.594745 280.626772 
L 695.833002 278.849164 
L 697.071259 276.138174 
L 698.309517 272.193728 
L 699.547774 267.583675 
L 700.786031 263.66129 
L 702.024289 261.603794 
L 703.262546 261.837522 
L 704.500803 264.011793 
L 705.73906 267.374237 
L 708.215575 275.268095 
L 709.453832 277.790911 
L 710.692089 277.658566 
L 713.168604 273.107599 
L 714.406861 272.09379 
L 715.645118 272.145843 
L 716.883376 272.947782 
L 718.121633 274.638018 
L 720.598148 279.544489 
L 721.836405 282.130783 
L 723.074662 285.227876 
L 724.312919 289.531523 
L 726.789434 300.892011 
L 728.027691 305.165989 
L 729.265948 306.914113 
L 730.504206 306.612044 
L 731.742463 305.724882 
L 732.98072 305.552924 
L 734.218977 306.649837 
L 736.695492 310.622641 
L 737.933749 311.785958 
L 739.172007 311.821026 
L 740.410264 311.143347 
L 741.648521 310.952909 
L 742.886778 312.055395 
L 744.125036 314.133914 
L 747.839807 321.007653 
L 750.316322 325.176719 
L 754.031094 330.384082 
L 755.269351 331.390551 
L 756.507608 330.955076 
L 757.745866 329.180354 
L 758.984123 326.827497 
L 760.22238 324.203997 
L 761.460637 320.82706 
L 763.937152 312.364951 
L 765.175409 310.017389 
L 766.413666 309.912386 
L 768.890181 312.488695 
L 770.128438 312.717676 
L 772.604953 310.938655 
L 773.84321 310.961938 
L 775.081467 312.780983 
L 776.319725 316.478822 
L 777.557982 320.823013 
L 778.796239 323.709201 
L 780.034496 323.500531 
L 781.272754 319.952438 
L 784.987525 302.769983 
L 786.225783 298.920951 
L 787.46404 297.444767 
L 788.702297 299.793625 
L 789.940554 306.536285 
L 793.655326 336.134374 
L 794.893584 342.288225 
L 796.131841 344.181182 
L 797.370098 341.838696 
L 799.846613 331.663993 
L 801.08487 329.740073 
L 802.323127 331.887319 
L 807.276156 350.328422 
L 808.514414 355.558098 
L 809.752671 361.666269 
L 810.990928 368.678743 
L 812.229185 376.762654 
L 814.7057 394.088923 
L 815.943957 400.535447 
L 817.182214 404.221985 
L 818.420472 405.32351 
L 819.658729 404.656855 
L 820.896986 403.657391 
L 822.135243 403.670325 
L 823.373501 404.920721 
L 824.611758 406.773204 
L 825.850015 408.943615 
L 827.088273 411.734883 
L 829.564787 418.356489 
L 830.803044 420.254178 
L 832.041302 419.912263 
L 833.279559 416.743253 
L 834.517816 410.529161 
L 836.994331 393.836794 
L 838.232588 388.501707 
L 839.470845 387.621769 
L 840.709102 391.619771 
L 841.94736 400.030754 
L 843.185617 410.670251 
L 844.423874 419.988343 
L 845.662132 425.422051 
L 846.900389 426.855842 
L 848.138646 425.812012 
L 850.615161 422.367829 
L 851.853418 421.208076 
L 853.091675 420.713712 
L 854.329932 420.462284 
L 855.56819 419.168208 
L 856.806447 416.163535 
L 858.044704 412.52931 
L 859.282961 410.105112 
L 860.521219 409.800232 
L 861.759476 411.112953 
L 862.997733 412.917784 
L 864.235991 414.440972 
L 865.474248 415.403806 
L 866.712505 415.421535 
L 867.950762 414.208042 
L 869.18902 412.245326 
L 870.427277 409.92806 
L 871.665534 406.897773 
L 874.142049 399.909611 
L 875.380306 397.570297 
L 876.618563 395.688978 
L 877.85682 392.932508 
L 879.095078 388.466615 
L 881.571592 377.185863 
L 882.80985 373.045882 
L 884.048107 370.949279 
L 885.286364 370.446676 
L 886.524621 370.991988 
L 887.762879 372.804495 
L 889.001136 376.007011 
L 892.715908 387.57079 
L 893.954165 391.879446 
L 896.43068 401.384214 
L 897.668937 405.569011 
L 900.145451 412.578825 
L 901.383709 416.57674 
L 902.621966 421.220722 
L 903.860223 426.395605 
L 905.09848 432.160185 
L 907.574995 445.115125 
L 908.813252 450.062206 
L 910.051509 452.692266 
L 911.289767 453.777365 
L 913.766281 455.431696 
L 915.004539 455.448237 
L 916.242796 452.879991 
L 917.481053 447.144161 
L 919.957568 431.293537 
L 921.195825 424.754187 
L 922.434082 420.593325 
L 923.672339 418.047784 
L 924.910597 415.220879 
L 926.148854 410.619319 
L 928.625368 398.469343 
L 929.863626 394.515804 
L 931.101883 393.508165 
L 932.34014 395.217882 
L 934.816655 402.357776 
L 936.054912 404.8394 
L 937.293169 405.132232 
L 938.531427 403.068165 
L 941.007941 395.657389 
L 942.246198 392.640811 
L 943.484456 390.666265 
L 944.722713 389.976938 
L 945.96097 390.48527 
L 947.199227 391.244831 
L 948.437485 391.201955 
L 950.913999 389.703586 
L 952.152257 389.370623 
L 953.390514 388.83167 
L 954.628771 387.916755 
L 955.867028 387.387192 
L 957.105286 388.255804 
L 958.343543 390.982171 
L 960.820057 399.276885 
L 962.058315 402.389279 
L 963.296572 404.015241 
L 964.534829 404.546197 
L 968.249601 404.847089 
L 969.487858 405.679351 
L 970.726116 408.231271 
L 971.964373 413.239133 
L 974.440887 426.531828 
L 975.679145 430.818962 
L 976.917402 432.341075 
L 978.155659 432.020282 
L 980.632174 430.380852 
L 981.870431 429.785069 
L 983.108688 429.356629 
L 984.346946 428.757676 
L 985.585203 427.543467 
L 986.82346 426.009022 
L 988.061717 425.229565 
L 989.299975 426.148755 
L 990.538232 428.927994 
L 991.776489 433.26472 
L 994.253004 444.172732 
L 995.491261 448.335173 
L 996.729518 450.327088 
L 997.967775 450.364443 
L 1001.682547 447.451239 
L 1002.920805 446.337729 
L 1004.159062 444.934565 
L 1005.397319 443.193033 
L 1006.635576 440.657947 
L 1010.350348 429.960479 
L 1012.826863 424.225125 
L 1014.06512 421.69215 
L 1015.303377 419.782001 
L 1016.541634 418.903032 
L 1017.779892 419.429131 
L 1019.018149 421.472429 
L 1020.256406 424.740303 
L 1022.732921 432.730001 
L 1023.971178 436.010847 
L 1025.209435 438.141827 
L 1026.447693 439.138301 
L 1027.68595 438.974765 
L 1028.924207 437.701305 
L 1030.162464 435.664046 
L 1032.638979 431.059326 
L 1033.877236 429.457433 
L 1037.592008 425.752316 
L 1038.830265 425.337531 
L 1040.068523 426.413651 
L 1042.545037 431.234433 
L 1043.783294 431.649373 
L 1045.021552 428.830401 
L 1046.259809 423.931658 
L 1047.498066 419.958378 
L 1048.736323 419.476331 
L 1049.974581 422.963877 
L 1052.451095 434.319053 
L 1053.689352 437.316565 
L 1054.92761 437.064007 
L 1056.165867 433.952677 
L 1057.404124 428.883511 
L 1058.642382 423.121056 
L 1059.880639 418.273216 
L 1061.118896 415.659387 
L 1062.357153 415.506194 
L 1063.595411 417.273157 
L 1064.833668 420.495833 
L 1067.310182 429.329768 
L 1068.54844 432.719274 
L 1069.786697 433.647626 
L 1071.024954 431.569089 
L 1072.263211 426.921045 
L 1073.501469 421.074937 
L 1074.739726 415.850329 
L 1075.977983 412.586477 
L 1077.216241 411.686308 
L 1078.454498 412.931338 
L 1079.692755 415.911101 
L 1080.931012 420.262423 
L 1082.16927 425.659438 
L 1084.645784 437.130938 
L 1085.884041 441.71359 
L 1087.122299 445.41223 
L 1088.360556 448.589186 
L 1089.598813 450.753825 
L 1090.837071 450.928825 
L 1092.075328 449.29779 
L 1093.313585 447.216784 
L 1094.551842 445.492765 
L 1095.7901 443.991599 
L 1097.028357 442.901007 
L 1098.266614 443.251485 
L 1099.504871 445.915095 
L 1100.743129 450.633988 
L 1103.219643 461.393068 
L 1104.4579 464.714807 
L 1105.696158 465.659807 
L 1106.934415 464.804337 
L 1108.172672 463.424141 
L 1109.41093 462.653188 
L 1110.649187 462.840458 
L 1114.363959 464.975489 
L 1115.602216 464.937159 
L 1116.840473 463.761386 
L 1118.07873 461.029032 
L 1119.316988 456.711601 
L 1120.555245 451.639032 
L 1121.793502 447.614942 
L 1123.031759 446.422882 
L 1124.270017 448.360727 
L 1126.746531 455.343165 
L 1127.984789 457.680011 
L 1129.223046 459.086488 
L 1131.69956 460.902559 
L 1135.414332 464.704087 
L 1136.652589 465.690983 
L 1139.129104 468.07947 
L 1140.367361 468.679602 
L 1141.605618 467.726875 
L 1142.843876 464.693547 
L 1144.082133 459.924326 
L 1145.32039 454.529397 
L 1146.558648 449.850243 
L 1147.796905 446.9388 
L 1149.035162 446.015878 
L 1150.273419 446.33301 
L 1151.511677 446.884849 
L 1153.988191 447.6641 
L 1155.226448 448.510653 
L 1157.702963 450.840685 
L 1161.417735 453.541248 
L 1163.894249 456.504674 
L 1166.370764 459.445446 
L 1167.609021 460.470341 
L 1168.847278 460.601672 
L 1171.323793 459.427598 
L 1172.56205 459.94922 
L 1173.800307 461.83492 
L 1177.515079 469.5895 
L 1178.753337 471.674993 
L 1179.991594 473.108002 
L 1181.229851 473.355053 
L 1182.468108 472.271287 
L 1184.944623 468.691716 
L 1186.18288 466.50536 
L 1187.421137 463.981779 
L 1188.659395 461.726544 
L 1189.897652 460.188012 
L 1191.135909 459.199227 
L 1192.374166 457.933227 
L 1193.612424 455.377828 
L 1196.088938 446.999586 
L 1197.327196 444.394476 
L 1198.565453 444.789641 
L 1201.041967 450.008595 
L 1202.280225 450.974016 
L 1203.518482 450.150233 
L 1204.756739 448.751787 
L 1205.994996 448.296567 
L 1207.233254 449.40943 
L 1209.709768 453.47998 
L 1210.948025 454.313324 
L 1212.186283 454.207764 
L 1213.42454 454.316703 
L 1214.662797 455.231455 
L 1215.901055 456.495153 
L 1217.139312 457.412041 
L 1218.377569 457.403947 
L 1219.615826 456.275092 
L 1220.854084 454.815409 
L 1222.092341 454.20479 
L 1224.568855 454.84448 
L 1228.283627 455.022372 
L 1229.521884 454.725624 
L 1230.760142 453.564793 
L 1231.998399 450.949949 
L 1233.236656 446.772962 
L 1234.474914 442.082517 
L 1235.713171 438.400351 
L 1236.951428 436.459335 
L 1238.189685 436.212932 
L 1239.427943 437.646891 
L 1240.6662 441.131394 
L 1241.904457 446.648502 
L 1244.380972 459.108266 
L 1245.619229 464.15378 
L 1246.857486 467.849469 
L 1248.095743 469.765021 
L 1249.334001 469.949493 
L 1250.572258 468.980992 
L 1251.810515 467.73919 
L 1253.048773 467.210438 
L 1254.28703 467.897754 
L 1255.525287 469.399477 
L 1256.763544 470.657293 
L 1258.001802 470.639118 
L 1259.240059 469.120916 
L 1261.716573 464.85423 
L 1262.954831 463.168872 
L 1264.193088 461.751585 
L 1265.431345 461.208732 
L 1266.669603 462.245897 
L 1267.90786 464.769654 
L 1270.384374 471.239205 
L 1271.622632 472.848146 
L 1272.860889 472.053357 
L 1274.099146 469.128704 
L 1277.813918 457.23054 
L 1279.052175 454.699588 
L 1280.290432 453.129695 
L 1281.52869 452.52093 
L 1282.766947 453.173075 
L 1284.005204 454.965593 
L 1287.719976 461.335402 
L 1291.434748 469.729112 
L 1292.673005 471.545821 
L 1293.911262 472.674192 
L 1295.14952 473.346517 
L 1296.387777 473.722932 
L 1298.864291 473.966441 
L 1300.102549 474.902297 
L 1301.340806 476.402075 
L 1302.579063 477.48579 
L 1303.817321 477.499981 
L 1305.055578 476.29848 
L 1307.532092 472.218923 
L 1308.77035 471.417155 
L 1310.008607 472.159857 
L 1311.246864 473.668042 
L 1312.485121 474.605405 
L 1313.723379 473.949291 
L 1314.961636 471.696072 
L 1316.199893 468.865543 
L 1317.43815 466.573896 
L 1318.676408 465.474676 
L 1319.914665 465.906323 
L 1321.152922 467.850967 
L 1322.39118 470.875346 
L 1324.867694 477.50397 
L 1326.105951 480.178561 
L 1327.344209 482.349693 
L 1328.582466 483.968247 
L 1329.820723 484.651487 
L 1331.05898 483.826127 
L 1332.297238 481.367858 
L 1333.535495 478.150025 
L 1334.773752 475.397337 
L 1337.250267 471.564977 
L 1339.726781 467.826362 
L 1340.965039 466.201091 
L 1342.203296 465.099545 
L 1343.441553 464.794771 
L 1344.67981 464.606923 
L 1347.156325 463.027693 
L 1348.394582 463.042859 
L 1350.871097 464.311954 
L 1352.109354 464.628717 
L 1353.347611 464.400928 
L 1354.585868 463.786971 
L 1355.824126 463.566618 
L 1357.062383 464.685663 
L 1358.30064 467.661094 
L 1359.538898 471.789969 
L 1360.777155 475.260634 
L 1362.015412 476.601597 
L 1363.253669 475.477178 
L 1364.491927 472.365607 
L 1366.968441 464.579166 
L 1368.206698 462.288269 
L 1369.444956 461.227971 
L 1370.683213 459.85952 
L 1371.92147 456.93933 
L 1373.159728 453.193471 
L 1374.397985 450.38687 
L 1375.636242 449.369342 
L 1376.874499 450.207027 
L 1378.112757 452.97929 
L 1381.827528 465.968039 
L 1383.065786 468.973033 
L 1386.780557 476.102925 
L 1388.018815 477.7527 
L 1389.257072 478.048991 
L 1391.733587 476.514918 
L 1392.971844 476.761372 
L 1394.210101 477.877368 
L 1395.448358 478.800179 
L 1396.686616 478.57942 
L 1397.924873 477.031888 
L 1399.16313 474.37976 
L 1400.401387 470.739163 
L 1401.639645 466.145305 
L 1402.877902 461.019896 
L 1404.116159 456.40535 
L 1405.354416 453.109313 
L 1407.830931 448.163755 
L 1409.069188 445.115255 
L 1410.307446 442.885764 
L 1411.545703 443.459353 
L 1412.78396 447.374864 
L 1414.022217 452.87379 
L 1415.260475 457.393303 
L 1416.498732 459.673609 
L 1417.736989 460.231146 
L 1418.975246 460.22042 
L 1420.213504 460.531141 
L 1422.690018 462.573383 
L 1423.928275 462.746753 
L 1425.166533 461.505229 
L 1426.40479 459.441968 
L 1427.643047 458.087097 
L 1428.881305 458.882462 
L 1430.119562 461.846308 
L 1431.357819 465.630811 
L 1432.596076 468.752571 
L 1433.834334 470.188128 
L 1435.072591 469.39031 
L 1437.549105 464.824937 
L 1438.787363 464.176688 
L 1440.02562 465.031689 
L 1441.263877 466.687319 
L 1444.978649 472.306112 
L 1446.216906 472.333621 
L 1447.455164 470.547601 
L 1448.693421 468.525643 
L 1449.931678 467.682762 
L 1451.169935 467.657287 
L 1452.408193 467.113663 
L 1453.64645 465.27519 
L 1454.884707 462.635211 
L 1456.122964 460.505848 
L 1457.361222 459.823071 
L 1458.599479 460.522254 
L 1463.552508 466.058124 
L 1464.790765 467.923568 
L 1467.26728 472.351021 
L 1468.505537 473.835244 
L 1469.743794 474.500893 
L 1470.982052 474.453937 
L 1472.220309 473.677679 
L 1473.458566 471.893482 
L 1474.696823 469.188545 
L 1477.173338 462.938475 
L 1478.411595 459.174074 
L 1480.88811 450.731966 
L 1482.126367 448.806218 
L 1483.364624 450.307175 
L 1484.602882 454.793476 
L 1485.841139 460.326829 
L 1487.079396 465.153455 
L 1488.317653 468.604272 
L 1489.555911 470.502173 
L 1490.794168 470.591206 
L 1492.032425 469.017534 
L 1493.270682 466.805099 
L 1494.50894 465.174297 
L 1495.747197 464.579947 
L 1496.985454 464.577249 
L 1498.223712 464.397504 
L 1499.461969 463.560592 
L 1500.700226 462.211157 
L 1501.938483 461.176883 
L 1503.176741 461.258377 
L 1504.414998 462.108671 
L 1505.653255 461.988006 
L 1506.891512 459.109176 
L 1509.368027 448.335859 
L 1510.606284 444.921954 
L 1511.844541 444.400415 
L 1513.082799 447.233726 
L 1514.321056 453.408844 
L 1515.559313 461.268569 
L 1516.797571 467.82548 
L 1518.035828 471.259232 
L 1519.274085 472.327219 
L 1520.512342 472.819449 
L 1522.988857 474.421651 
L 1524.227114 475.578021 
L 1525.465371 477.720066 
L 1527.941886 483.740666 
L 1529.180143 485.02904 
L 1530.4184 484.691542 
L 1531.656658 483.410507 
L 1532.894915 481.574532 
L 1535.37143 477.398952 
L 1536.609687 476.378013 
L 1537.847944 476.697763 
L 1539.086201 478.268011 
L 1540.324459 480.948154 
L 1541.562716 484.685755 
L 1542.800973 488.999747 
L 1544.03923 492.748132 
L 1545.277488 495.128177 
L 1546.515745 496.497457 
L 1547.754002 497.588001 
L 1548.99226 498.468945 
L 1550.230517 498.696334 
L 1551.468774 497.941831 
L 1552.707031 496.250083 
L 1553.945289 494.166463 
L 1555.183546 492.747415 
L 1556.421803 492.895968 
L 1558.898318 495.900257 
L 1560.136575 496.016454 
L 1561.374832 493.992776 
L 1562.613089 490.020912 
L 1565.089604 479.959411 
L 1566.327861 474.574089 
L 1567.566119 468.381614 
L 1568.804376 460.709133 
L 1570.042633 450.950133 
L 1572.519148 428.700955 
L 1573.757405 419.676217 
L 1574.995662 413.075092 
L 1576.233919 408.528943 
L 1577.472177 405.640645 
L 1578.710434 405.482609 
L 1579.948691 410.773944 
L 1581.186948 422.600471 
L 1582.425206 437.530637 
L 1583.663463 450.257953 
L 1584.90172 458.622004 
L 1589.854749 481.573349 
L 1591.093007 487.696831 
L 1592.331264 492.348079 
L 1593.569521 495.355219 
L 1594.807778 497.204982 
L 1596.046036 498.748934 
L 1597.284293 500.87506 
L 1598.52255 503.52531 
L 1599.760807 505.441177 
L 1600.999065 505.163595 
L 1602.237322 501.691482 
L 1603.475579 494.399227 
L 1604.713837 483.186483 
L 1607.190351 456.599266 
L 1608.428608 449.003671 
L 1609.666866 448.562293 
L 1610.905123 454.065819 
L 1612.14338 463.247607 
L 1615.858152 497.52467 
L 1617.096409 505.531326 
L 1618.334666 511.949135 
L 1619.572924 517.551385 
L 1620.811181 521.803734 
L 1622.049438 523.876424 
L 1623.287696 523.959276 
L 1624.525953 522.952121 
L 1625.76421 521.564593 
L 1627.002467 520.672467 
L 1628.240725 521.348544 
L 1629.478982 524.018729 
L 1630.717239 527.762261 
L 1631.955496 530.101473 
L 1633.193754 527.966849 
L 1634.432011 519.291093 
L 1635.670268 504.231634 
L 1639.38504 447.617848 
L 1640.623297 432.080014 
L 1641.861555 421.036051 
L 1643.099812 415.404329 
L 1644.338069 414.063052 
L 1645.576326 414.321534 
L 1646.814584 413.258109 
L 1648.052841 409.938549 
L 1648.052841 409.938549 
" style="fill:none;stroke:#008000;stroke-linecap:square;stroke-width:1.5;"/>
   </g>
   <g id="patch_3">
    <path d="M 50.14375 586.86358 
L 50.14375 22.318125 
" style="fill:none;stroke:#000000;stroke-linecap:square;stroke-linejoin:miter;stroke-width:0.8;"/>
   </g>
   <g id="patch_4">
    <path d="M 1724.14375 586.86358 
L 1724.14375 22.318125 
" style="fill:none;stroke:#000000;stroke-linecap:square;stroke-linejoin:miter;stroke-width:0.8;"/>
   </g>
   <g id="patch_5">
    <path d="M 50.14375 586.86358 
L 1724.14375 586.86358 
" style="fill:none;stroke:#000000;stroke-linecap:square;stroke-linejoin:miter;stroke-width:0.8;"/>
   </g>
   <g id="patch_6">
    <path d="M 50.14375 22.318125 
L 1724.14375 22.318125 
" style="fill:none;stroke:#000000;stroke-linecap:square;stroke-linejoin:miter;stroke-width:0.8;"/>
   </g>
   <g id="text_18">
    <!-- before binarisation -->
    <g transform="translate(830.545 16.318125)scale(0.12 -0.12)">
     <defs>
      <path d="M 3116 1747 
Q 3116 2381 2855 2742 
Q 2594 3103 2138 3103 
Q 1681 3103 1420 2742 
Q 1159 2381 1159 1747 
Q 1159 1113 1420 752 
Q 1681 391 2138 391 
Q 2594 391 2855 752 
Q 3116 1113 3116 1747 
z
M 1159 2969 
Q 1341 3281 1617 3432 
Q 1894 3584 2278 3584 
Q 2916 3584 3314 3078 
Q 3713 2572 3713 1747 
Q 3713 922 3314 415 
Q 2916 -91 2278 -91 
Q 1894 -91 1617 61 
Q 1341 213 1159 525 
L 1159 0 
L 581 0 
L 581 4863 
L 1159 4863 
L 1159 2969 
z
" id="DejaVuSans-62" transform="scale(0.015625)"/>
      <path d="M 1959 3097 
Q 1497 3097 1228 2736 
Q 959 2375 959 1747 
Q 959 1119 1226 758 
Q 1494 397 1959 397 
Q 2419 397 2687 759 
Q 2956 1122 2956 1747 
Q 2956 2369 2687 2733 
Q 2419 3097 1959 3097 
z
M 1959 3584 
Q 2709 3584 3137 3096 
Q 3566 2609 3566 1747 
Q 3566 888 3137 398 
Q 2709 -91 1959 -91 
Q 1206 -91 779 398 
Q 353 888 353 1747 
Q 353 2609 779 3096 
Q 1206 3584 1959 3584 
z
" id="DejaVuSans-6f" transform="scale(0.015625)"/>
      <path id="DejaVuSans-20" transform="scale(0.015625)"/>
      <path d="M 603 3500 
L 1178 3500 
L 1178 0 
L 603 0 
L 603 3500 
z
M 603 4863 
L 1178 4863 
L 1178 4134 
L 603 4134 
L 603 4863 
z
" id="DejaVuSans-69" transform="scale(0.015625)"/>
      <path d="M 3513 2113 
L 3513 0 
L 2938 0 
L 2938 2094 
Q 2938 2591 2744 2837 
Q 2550 3084 2163 3084 
Q 1697 3084 1428 2787 
Q 1159 2491 1159 1978 
L 1159 0 
L 581 0 
L 581 3500 
L 1159 3500 
L 1159 2956 
Q 1366 3272 1645 3428 
Q 1925 3584 2291 3584 
Q 2894 3584 3203 3211 
Q 3513 2838 3513 2113 
z
" id="DejaVuSans-6e" transform="scale(0.015625)"/>
      <path d="M 2834 3397 
L 2834 2853 
Q 2591 2978 2328 3040 
Q 2066 3103 1784 3103 
Q 1356 3103 1142 2972 
Q 928 2841 928 2578 
Q 928 2378 1081 2264 
Q 1234 2150 1697 2047 
L 1894 2003 
Q 2506 1872 2764 1633 
Q 3022 1394 3022 966 
Q 3022 478 2636 193 
Q 2250 -91 1575 -91 
Q 1294 -91 989 -36 
Q 684 19 347 128 
L 347 722 
Q 666 556 975 473 
Q 1284 391 1588 391 
Q 1994 391 2212 530 
Q 2431 669 2431 922 
Q 2431 1156 2273 1281 
Q 2116 1406 1581 1522 
L 1381 1569 
Q 847 1681 609 1914 
Q 372 2147 372 2553 
Q 372 3047 722 3315 
Q 1072 3584 1716 3584 
Q 2034 3584 2315 3537 
Q 2597 3491 2834 3397 
z
" id="DejaVuSans-73" transform="scale(0.015625)"/>
      <path d="M 1172 4494 
L 1172 3500 
L 2356 3500 
L 2356 3053 
L 1172 3053 
L 1172 1153 
Q 1172 725 1289 603 
Q 1406 481 1766 481 
L 2356 481 
L 2356 0 
L 1766 0 
Q 1100 0 847 248 
Q 594 497 594 1153 
L 594 3053 
L 172 3053 
L 172 3500 
L 594 3500 
L 594 4494 
L 1172 4494 
z
" id="DejaVuSans-74" transform="scale(0.015625)"/>
     </defs>
     <use xlink:href="#DejaVuSans-62"/>
     <use x="63.476562" xlink:href="#DejaVuSans-65"/>
     <use x="125" xlink:href="#DejaVuSans-66"/>
     <use x="160.205078" xlink:href="#DejaVuSans-6f"/>
     <use x="221.386719" xlink:href="#DejaVuSans-72"/>
     <use x="260.25" xlink:href="#DejaVuSans-65"/>
     <use x="321.773438" xlink:href="#DejaVuSans-20"/>
     <use x="353.560547" xlink:href="#DejaVuSans-62"/>
     <use x="417.037109" xlink:href="#DejaVuSans-69"/>
     <use x="444.820312" xlink:href="#DejaVuSans-6e"/>
     <use x="508.199219" xlink:href="#DejaVuSans-61"/>
     <use x="569.478516" xlink:href="#DejaVuSans-72"/>
     <use x="610.591797" xlink:href="#DejaVuSans-69"/>
     <use x="638.375" xlink:href="#DejaVuSans-73"/>
     <use x="690.474609" xlink:href="#DejaVuSans-61"/>
     <use x="751.753906" xlink:href="#DejaVuSans-74"/>
     <use x="790.962891" xlink:href="#DejaVuSans-69"/>
     <use x="818.746094" xlink:href="#DejaVuSans-6f"/>
     <use x="879.927734" xlink:href="#DejaVuSans-6e"/>
    </g>
   </g>
  </g>
  <g id="axes_2">
   <g id="patch_7">
    <path d="M 50.14375 1264.318125 
L 1724.14375 1264.318125 
L 1724.14375 699.77267 
L 50.14375 699.77267 
z
" style="fill:#ffffff;"/>
   </g>
   <g id="matplotlib.axis_3">
    <g id="xtick_8">
     <g id="line2d_17">
      <g>
       <use style="stroke:#000000;stroke-width:0.8;" x="126.234659" xlink:href="#mb5b60581ca" y="1264.318125"/>
      </g>
     </g>
     <g id="text_19">
      <!-- 0 -->
      <g transform="translate(123.053409 1278.916563)scale(0.1 -0.1)">
       <use xlink:href="#DejaVuSans-30"/>
      </g>
     </g>
    </g>
    <g id="xtick_9">
     <g id="line2d_18">
      <g>
       <use style="stroke:#000000;stroke-width:0.8;" x="373.886113" xlink:href="#mb5b60581ca" y="1264.318125"/>
      </g>
     </g>
     <g id="text_20">
      <!-- 200 -->
      <g transform="translate(364.342363 1278.916563)scale(0.1 -0.1)">
       <use xlink:href="#DejaVuSans-32"/>
       <use x="63.623047" xlink:href="#DejaVuSans-30"/>
       <use x="127.246094" xlink:href="#DejaVuSans-30"/>
      </g>
     </g>
    </g>
    <g id="xtick_10">
     <g id="line2d_19">
      <g>
       <use style="stroke:#000000;stroke-width:0.8;" x="621.537566" xlink:href="#mb5b60581ca" y="1264.318125"/>
      </g>
     </g>
     <g id="text_21">
      <!-- 400 -->
      <g transform="translate(611.993816 1278.916563)scale(0.1 -0.1)">
       <use xlink:href="#DejaVuSans-34"/>
       <use x="63.623047" xlink:href="#DejaVuSans-30"/>
       <use x="127.246094" xlink:href="#DejaVuSans-30"/>
      </g>
     </g>
    </g>
    <g id="xtick_11">
     <g id="line2d_20">
      <g>
       <use style="stroke:#000000;stroke-width:0.8;" x="869.18902" xlink:href="#mb5b60581ca" y="1264.318125"/>
      </g>
     </g>
     <g id="text_22">
      <!-- 600 -->
      <g transform="translate(859.64527 1278.916563)scale(0.1 -0.1)">
       <use xlink:href="#DejaVuSans-36"/>
       <use x="63.623047" xlink:href="#DejaVuSans-30"/>
       <use x="127.246094" xlink:href="#DejaVuSans-30"/>
      </g>
     </g>
    </g>
    <g id="xtick_12">
     <g id="line2d_21">
      <g>
       <use style="stroke:#000000;stroke-width:0.8;" x="1116.840473" xlink:href="#mb5b60581ca" y="1264.318125"/>
      </g>
     </g>
     <g id="text_23">
      <!-- 800 -->
      <g transform="translate(1107.296723 1278.916563)scale(0.1 -0.1)">
       <use xlink:href="#DejaVuSans-38"/>
       <use x="63.623047" xlink:href="#DejaVuSans-30"/>
       <use x="127.246094" xlink:href="#DejaVuSans-30"/>
      </g>
     </g>
    </g>
    <g id="xtick_13">
     <g id="line2d_22">
      <g>
       <use style="stroke:#000000;stroke-width:0.8;" x="1364.491927" xlink:href="#mb5b60581ca" y="1264.318125"/>
      </g>
     </g>
     <g id="text_24">
      <!-- 1000 -->
      <g transform="translate(1351.766927 1278.916563)scale(0.1 -0.1)">
       <use xlink:href="#DejaVuSans-31"/>
       <use x="63.623047" xlink:href="#DejaVuSans-30"/>
       <use x="127.246094" xlink:href="#DejaVuSans-30"/>
       <use x="190.869141" xlink:href="#DejaVuSans-30"/>
      </g>
     </g>
    </g>
    <g id="xtick_14">
     <g id="line2d_23">
      <g>
       <use style="stroke:#000000;stroke-width:0.8;" x="1612.14338" xlink:href="#mb5b60581ca" y="1264.318125"/>
      </g>
     </g>
     <g id="text_25">
      <!-- 1200 -->
      <g transform="translate(1599.41838 1278.916563)scale(0.1 -0.1)">
       <use xlink:href="#DejaVuSans-31"/>
       <use x="63.623047" xlink:href="#DejaVuSans-32"/>
       <use x="127.246094" xlink:href="#DejaVuSans-30"/>
       <use x="190.869141" xlink:href="#DejaVuSans-30"/>
      </g>
     </g>
    </g>
    <g id="text_26">
     <!-- frame -->
     <g transform="translate(872.317187 1292.594688)scale(0.1 -0.1)">
      <use xlink:href="#DejaVuSans-66"/>
      <use x="35.205078" xlink:href="#DejaVuSans-72"/>
      <use x="76.318359" xlink:href="#DejaVuSans-61"/>
      <use x="137.597656" xlink:href="#DejaVuSans-6d"/>
      <use x="235.009766" xlink:href="#DejaVuSans-65"/>
     </g>
    </g>
   </g>
   <g id="matplotlib.axis_4">
    <g id="ytick_9">
     <g id="line2d_24">
      <g>
       <use style="stroke:#000000;stroke-width:0.8;" x="50.14375" xlink:href="#me1d298fde3" y="1238.656968"/>
      </g>
     </g>
     <g id="text_27">
      <!-- 0.0 -->
      <g transform="translate(27.240625 1242.456187)scale(0.1 -0.1)">
       <use xlink:href="#DejaVuSans-30"/>
       <use x="63.623047" xlink:href="#DejaVuSans-2e"/>
       <use x="95.410156" xlink:href="#DejaVuSans-30"/>
      </g>
     </g>
    </g>
    <g id="ytick_10">
     <g id="line2d_25">
      <g>
       <use style="stroke:#000000;stroke-width:0.8;" x="50.14375" xlink:href="#me1d298fde3" y="1136.01234"/>
      </g>
     </g>
     <g id="text_28">
      <!-- 0.2 -->
      <g transform="translate(27.240625 1139.811559)scale(0.1 -0.1)">
       <use xlink:href="#DejaVuSans-30"/>
       <use x="63.623047" xlink:href="#DejaVuSans-2e"/>
       <use x="95.410156" xlink:href="#DejaVuSans-32"/>
      </g>
     </g>
    </g>
    <g id="ytick_11">
     <g id="line2d_26">
      <g>
       <use style="stroke:#000000;stroke-width:0.8;" x="50.14375" xlink:href="#me1d298fde3" y="1033.367712"/>
      </g>
     </g>
     <g id="text_29">
      <!-- 0.4 -->
      <g transform="translate(27.240625 1037.166931)scale(0.1 -0.1)">
       <use xlink:href="#DejaVuSans-30"/>
       <use x="63.623047" xlink:href="#DejaVuSans-2e"/>
       <use x="95.410156" xlink:href="#DejaVuSans-34"/>
      </g>
     </g>
    </g>
    <g id="ytick_12">
     <g id="line2d_27">
      <g>
       <use style="stroke:#000000;stroke-width:0.8;" x="50.14375" xlink:href="#me1d298fde3" y="930.723084"/>
      </g>
     </g>
     <g id="text_30">
      <!-- 0.6 -->
      <g transform="translate(27.240625 934.522302)scale(0.1 -0.1)">
       <use xlink:href="#DejaVuSans-30"/>
       <use x="63.623047" xlink:href="#DejaVuSans-2e"/>
       <use x="95.410156" xlink:href="#DejaVuSans-36"/>
      </g>
     </g>
    </g>
    <g id="ytick_13">
     <g id="line2d_28">
      <g>
       <use style="stroke:#000000;stroke-width:0.8;" x="50.14375" xlink:href="#me1d298fde3" y="828.078456"/>
      </g>
     </g>
     <g id="text_31">
      <!-- 0.8 -->
      <g transform="translate(27.240625 831.877674)scale(0.1 -0.1)">
       <use xlink:href="#DejaVuSans-30"/>
       <use x="63.623047" xlink:href="#DejaVuSans-2e"/>
       <use x="95.410156" xlink:href="#DejaVuSans-38"/>
      </g>
     </g>
    </g>
    <g id="ytick_14">
     <g id="line2d_29">
      <g>
       <use style="stroke:#000000;stroke-width:0.8;" x="50.14375" xlink:href="#me1d298fde3" y="725.433827"/>
      </g>
     </g>
     <g id="text_32">
      <!-- 1.0 -->
      <g transform="translate(27.240625 729.233046)scale(0.1 -0.1)">
       <use xlink:href="#DejaVuSans-31"/>
       <use x="63.623047" xlink:href="#DejaVuSans-2e"/>
       <use x="95.410156" xlink:href="#DejaVuSans-30"/>
      </g>
     </g>
    </g>
    <g id="text_33">
     <!-- GCaMP -->
     <g transform="translate(21.160938 999.803991)rotate(-90)scale(0.1 -0.1)">
      <use xlink:href="#DejaVuSans-47"/>
      <use x="77.490234" xlink:href="#DejaVuSans-43"/>
      <use x="147.314453" xlink:href="#DejaVuSans-61"/>
      <use x="208.59375" xlink:href="#DejaVuSans-4d"/>
      <use x="294.873047" xlink:href="#DejaVuSans-50"/>
     </g>
    </g>
   </g>
   <g id="line2d_30">
    <path clip-path="url(#p1ed6ae8ec6)" d="M 126.234659 1238.656968 
L 323.117565 1238.656968 
L 324.355822 725.433827 
L 638.873168 725.433827 
L 640.111425 1238.656968 
L 642.58794 1238.656968 
L 643.826197 725.433827 
L 647.540969 725.433827 
L 648.779226 1238.656968 
L 1648.052841 1238.656968 
L 1648.052841 1238.656968 
" style="fill:none;stroke:#008000;stroke-linecap:square;stroke-width:1.5;"/>
   </g>
   <g id="patch_8">
    <path d="M 50.14375 1264.318125 
L 50.14375 699.77267 
" style="fill:none;stroke:#000000;stroke-linecap:square;stroke-linejoin:miter;stroke-width:0.8;"/>
   </g>
   <g id="patch_9">
    <path d="M 1724.14375 1264.318125 
L 1724.14375 699.77267 
" style="fill:none;stroke:#000000;stroke-linecap:square;stroke-linejoin:miter;stroke-width:0.8;"/>
   </g>
   <g id="patch_10">
    <path d="M 50.14375 1264.318125 
L 1724.14375 1264.318125 
" style="fill:none;stroke:#000000;stroke-linecap:square;stroke-linejoin:miter;stroke-width:0.8;"/>
   </g>
   <g id="patch_11">
    <path d="M 50.14375 699.77267 
L 1724.14375 699.77267 
" style="fill:none;stroke:#000000;stroke-linecap:square;stroke-linejoin:miter;stroke-width:0.8;"/>
   </g>
   <g id="text_34">
    <!-- before binarisation -->
    <g transform="translate(830.545 693.77267)scale(0.12 -0.12)">
     <use xlink:href="#DejaVuSans-62"/>
     <use x="63.476562" xlink:href="#DejaVuSans-65"/>
     <use x="125" xlink:href="#DejaVuSans-66"/>
     <use x="160.205078" xlink:href="#DejaVuSans-6f"/>
     <use x="221.386719" xlink:href="#DejaVuSans-72"/>
     <use x="260.25" xlink:href="#DejaVuSans-65"/>
     <use x="321.773438" xlink:href="#DejaVuSans-20"/>
     <use x="353.560547" xlink:href="#DejaVuSans-62"/>
     <use x="417.037109" xlink:href="#DejaVuSans-69"/>
     <use x="444.820312" xlink:href="#DejaVuSans-6e"/>
     <use x="508.199219" xlink:href="#DejaVuSans-61"/>
     <use x="569.478516" xlink:href="#DejaVuSans-72"/>
     <use x="610.591797" xlink:href="#DejaVuSans-69"/>
     <use x="638.375" xlink:href="#DejaVuSans-73"/>
     <use x="690.474609" xlink:href="#DejaVuSans-61"/>
     <use x="751.753906" xlink:href="#DejaVuSans-74"/>
     <use x="790.962891" xlink:href="#DejaVuSans-69"/>
     <use x="818.746094" xlink:href="#DejaVuSans-6f"/>
     <use x="879.927734" xlink:href="#DejaVuSans-6e"/>
    </g>
   </g>
  </g>
 </g>
 <defs>
  <clipPath id="p1a58008a61">
   <rect height="564.545455" width="1674" x="50.14375" y="22.318125"/>
  </clipPath>
  <clipPath id="p1ed6ae8ec6">
   <rect height="564.545455" width="1674" x="50.14375" y="699.77267"/>
  </clipPath>
 </defs>
</svg>
