<?xml version="1.0" encoding="utf-8" standalone="no"?>
<!DOCTYPE svg PUBLIC "-//W3C//DTD SVG 1.1//EN"
  "http://www.w3.org/Graphics/SVG/1.1/DTD/svg11.dtd">
<svg height="1301.874375pt" version="1.1" viewBox="0 0 1724.98125 1301.874375" width="1724.98125pt" xmlns="http://www.w3.org/2000/svg" xmlns:xlink="http://www.w3.org/1999/xlink">
 <metadata>
  <rdf:RDF xmlns:cc="http://creativecommons.org/ns#" xmlns:dc="http://purl.org/dc/elements/1.1/" xmlns:rdf="http://www.w3.org/1999/02/22-rdf-syntax-ns#">
   <cc:Work>
    <dc:type rdf:resource="http://purl.org/dc/dcmitype/StillImage"/>
    <dc:date>2022-07-24T15:54:47.798235</dc:date>
    <dc:format>image/svg+xml</dc:format>
    <dc:creator>
     <cc:Agent>
      <dc:title>Matplotlib v3.4.2, https://matplotlib.org/</dc:title>
     </cc:Agent>
    </dc:creator>
   </cc:Work>
  </rdf:RDF>
 </metadata>
 <defs>
  <style type="text/css">*{stroke-linecap:butt;stroke-linejoin:round;}</style>
 </defs>
 <g id="figure_1">
  <g id="patch_1">
   <path d="M 0 1301.874375 
L 1724.98125 1301.874375 
L 1724.98125 0 
L 0 0 
z
" style="fill:#ffffff;"/>
  </g>
  <g id="axes_1">
   <g id="patch_2">
    <path d="M 43.78125 586.86358 
L 1717.78125 586.86358 
L 1717.78125 22.318125 
L 43.78125 22.318125 
z
" style="fill:#ffffff;"/>
   </g>
   <g id="matplotlib.axis_1">
    <g id="xtick_1">
     <g id="line2d_1">
      <defs>
       <path d="M 0 0 
L 0 3.5 
" id="m7dc3b4a7df" style="stroke:#000000;stroke-width:0.8;"/>
      </defs>
      <g>
       <use style="stroke:#000000;stroke-width:0.8;" x="119.872159" xlink:href="#m7dc3b4a7df" y="586.86358"/>
      </g>
     </g>
     <g id="text_1">
      <!-- 0 -->
      <g transform="translate(116.690909 601.462017)scale(0.1 -0.1)">
       <defs>
        <path d="M 2034 4250 
Q 1547 4250 1301 3770 
Q 1056 3291 1056 2328 
Q 1056 1369 1301 889 
Q 1547 409 2034 409 
Q 2525 409 2770 889 
Q 3016 1369 3016 2328 
Q 3016 3291 2770 3770 
Q 2525 4250 2034 4250 
z
M 2034 4750 
Q 2819 4750 3233 4129 
Q 3647 3509 3647 2328 
Q 3647 1150 3233 529 
Q 2819 -91 2034 -91 
Q 1250 -91 836 529 
Q 422 1150 422 2328 
Q 422 3509 836 4129 
Q 1250 4750 2034 4750 
z
" id="DejaVuSans-30" transform="scale(0.015625)"/>
       </defs>
       <use xlink:href="#DejaVuSans-30"/>
      </g>
     </g>
    </g>
    <g id="xtick_2">
     <g id="line2d_2">
      <g>
       <use style="stroke:#000000;stroke-width:0.8;" x="367.523613" xlink:href="#m7dc3b4a7df" y="586.86358"/>
      </g>
     </g>
     <g id="text_2">
      <!-- 200 -->
      <g transform="translate(357.979863 601.462017)scale(0.1 -0.1)">
       <defs>
        <path d="M 1228 531 
L 3431 531 
L 3431 0 
L 469 0 
L 469 531 
Q 828 903 1448 1529 
Q 2069 2156 2228 2338 
Q 2531 2678 2651 2914 
Q 2772 3150 2772 3378 
Q 2772 3750 2511 3984 
Q 2250 4219 1831 4219 
Q 1534 4219 1204 4116 
Q 875 4013 500 3803 
L 500 4441 
Q 881 4594 1212 4672 
Q 1544 4750 1819 4750 
Q 2544 4750 2975 4387 
Q 3406 4025 3406 3419 
Q 3406 3131 3298 2873 
Q 3191 2616 2906 2266 
Q 2828 2175 2409 1742 
Q 1991 1309 1228 531 
z
" id="DejaVuSans-32" transform="scale(0.015625)"/>
       </defs>
       <use xlink:href="#DejaVuSans-32"/>
       <use x="63.623047" xlink:href="#DejaVuSans-30"/>
       <use x="127.246094" xlink:href="#DejaVuSans-30"/>
      </g>
     </g>
    </g>
    <g id="xtick_3">
     <g id="line2d_3">
      <g>
       <use style="stroke:#000000;stroke-width:0.8;" x="615.175066" xlink:href="#m7dc3b4a7df" y="586.86358"/>
      </g>
     </g>
     <g id="text_3">
      <!-- 400 -->
      <g transform="translate(605.631316 601.462017)scale(0.1 -0.1)">
       <defs>
        <path d="M 2419 4116 
L 825 1625 
L 2419 1625 
L 2419 4116 
z
M 2253 4666 
L 3047 4666 
L 3047 1625 
L 3713 1625 
L 3713 1100 
L 3047 1100 
L 3047 0 
L 2419 0 
L 2419 1100 
L 313 1100 
L 313 1709 
L 2253 4666 
z
" id="DejaVuSans-34" transform="scale(0.015625)"/>
       </defs>
       <use xlink:href="#DejaVuSans-34"/>
       <use x="63.623047" xlink:href="#DejaVuSans-30"/>
       <use x="127.246094" xlink:href="#DejaVuSans-30"/>
      </g>
     </g>
    </g>
    <g id="xtick_4">
     <g id="line2d_4">
      <g>
       <use style="stroke:#000000;stroke-width:0.8;" x="862.82652" xlink:href="#m7dc3b4a7df" y="586.86358"/>
      </g>
     </g>
     <g id="text_4">
      <!-- 600 -->
      <g transform="translate(853.28277 601.462017)scale(0.1 -0.1)">
       <defs>
        <path d="M 2113 2584 
Q 1688 2584 1439 2293 
Q 1191 2003 1191 1497 
Q 1191 994 1439 701 
Q 1688 409 2113 409 
Q 2538 409 2786 701 
Q 3034 994 3034 1497 
Q 3034 2003 2786 2293 
Q 2538 2584 2113 2584 
z
M 3366 4563 
L 3366 3988 
Q 3128 4100 2886 4159 
Q 2644 4219 2406 4219 
Q 1781 4219 1451 3797 
Q 1122 3375 1075 2522 
Q 1259 2794 1537 2939 
Q 1816 3084 2150 3084 
Q 2853 3084 3261 2657 
Q 3669 2231 3669 1497 
Q 3669 778 3244 343 
Q 2819 -91 2113 -91 
Q 1303 -91 875 529 
Q 447 1150 447 2328 
Q 447 3434 972 4092 
Q 1497 4750 2381 4750 
Q 2619 4750 2861 4703 
Q 3103 4656 3366 4563 
z
" id="DejaVuSans-36" transform="scale(0.015625)"/>
       </defs>
       <use xlink:href="#DejaVuSans-36"/>
       <use x="63.623047" xlink:href="#DejaVuSans-30"/>
       <use x="127.246094" xlink:href="#DejaVuSans-30"/>
      </g>
     </g>
    </g>
    <g id="xtick_5">
     <g id="line2d_5">
      <g>
       <use style="stroke:#000000;stroke-width:0.8;" x="1110.477973" xlink:href="#m7dc3b4a7df" y="586.86358"/>
      </g>
     </g>
     <g id="text_5">
      <!-- 800 -->
      <g transform="translate(1100.934223 601.462017)scale(0.1 -0.1)">
       <defs>
        <path d="M 2034 2216 
Q 1584 2216 1326 1975 
Q 1069 1734 1069 1313 
Q 1069 891 1326 650 
Q 1584 409 2034 409 
Q 2484 409 2743 651 
Q 3003 894 3003 1313 
Q 3003 1734 2745 1975 
Q 2488 2216 2034 2216 
z
M 1403 2484 
Q 997 2584 770 2862 
Q 544 3141 544 3541 
Q 544 4100 942 4425 
Q 1341 4750 2034 4750 
Q 2731 4750 3128 4425 
Q 3525 4100 3525 3541 
Q 3525 3141 3298 2862 
Q 3072 2584 2669 2484 
Q 3125 2378 3379 2068 
Q 3634 1759 3634 1313 
Q 3634 634 3220 271 
Q 2806 -91 2034 -91 
Q 1263 -91 848 271 
Q 434 634 434 1313 
Q 434 1759 690 2068 
Q 947 2378 1403 2484 
z
M 1172 3481 
Q 1172 3119 1398 2916 
Q 1625 2713 2034 2713 
Q 2441 2713 2670 2916 
Q 2900 3119 2900 3481 
Q 2900 3844 2670 4047 
Q 2441 4250 2034 4250 
Q 1625 4250 1398 4047 
Q 1172 3844 1172 3481 
z
" id="DejaVuSans-38" transform="scale(0.015625)"/>
       </defs>
       <use xlink:href="#DejaVuSans-38"/>
       <use x="63.623047" xlink:href="#DejaVuSans-30"/>
       <use x="127.246094" xlink:href="#DejaVuSans-30"/>
      </g>
     </g>
    </g>
    <g id="xtick_6">
     <g id="line2d_6">
      <g>
       <use style="stroke:#000000;stroke-width:0.8;" x="1358.129427" xlink:href="#m7dc3b4a7df" y="586.86358"/>
      </g>
     </g>
     <g id="text_6">
      <!-- 1000 -->
      <g transform="translate(1345.404427 601.462017)scale(0.1 -0.1)">
       <defs>
        <path d="M 794 531 
L 1825 531 
L 1825 4091 
L 703 3866 
L 703 4441 
L 1819 4666 
L 2450 4666 
L 2450 531 
L 3481 531 
L 3481 0 
L 794 0 
L 794 531 
z
" id="DejaVuSans-31" transform="scale(0.015625)"/>
       </defs>
       <use xlink:href="#DejaVuSans-31"/>
       <use x="63.623047" xlink:href="#DejaVuSans-30"/>
       <use x="127.246094" xlink:href="#DejaVuSans-30"/>
       <use x="190.869141" xlink:href="#DejaVuSans-30"/>
      </g>
     </g>
    </g>
    <g id="xtick_7">
     <g id="line2d_7">
      <g>
       <use style="stroke:#000000;stroke-width:0.8;" x="1605.78088" xlink:href="#m7dc3b4a7df" y="586.86358"/>
      </g>
     </g>
     <g id="text_7">
      <!-- 1200 -->
      <g transform="translate(1593.05588 601.462017)scale(0.1 -0.1)">
       <use xlink:href="#DejaVuSans-31"/>
       <use x="63.623047" xlink:href="#DejaVuSans-32"/>
       <use x="127.246094" xlink:href="#DejaVuSans-30"/>
       <use x="190.869141" xlink:href="#DejaVuSans-30"/>
      </g>
     </g>
    </g>
    <g id="text_8">
     <!-- frame -->
     <g transform="translate(865.954687 615.140142)scale(0.1 -0.1)">
      <defs>
       <path d="M 2375 4863 
L 2375 4384 
L 1825 4384 
Q 1516 4384 1395 4259 
Q 1275 4134 1275 3809 
L 1275 3500 
L 2222 3500 
L 2222 3053 
L 1275 3053 
L 1275 0 
L 697 0 
L 697 3053 
L 147 3053 
L 147 3500 
L 697 3500 
L 697 3744 
Q 697 4328 969 4595 
Q 1241 4863 1831 4863 
L 2375 4863 
z
" id="DejaVuSans-66" transform="scale(0.015625)"/>
       <path d="M 2631 2963 
Q 2534 3019 2420 3045 
Q 2306 3072 2169 3072 
Q 1681 3072 1420 2755 
Q 1159 2438 1159 1844 
L 1159 0 
L 581 0 
L 581 3500 
L 1159 3500 
L 1159 2956 
Q 1341 3275 1631 3429 
Q 1922 3584 2338 3584 
Q 2397 3584 2469 3576 
Q 2541 3569 2628 3553 
L 2631 2963 
z
" id="DejaVuSans-72" transform="scale(0.015625)"/>
       <path d="M 2194 1759 
Q 1497 1759 1228 1600 
Q 959 1441 959 1056 
Q 959 750 1161 570 
Q 1363 391 1709 391 
Q 2188 391 2477 730 
Q 2766 1069 2766 1631 
L 2766 1759 
L 2194 1759 
z
M 3341 1997 
L 3341 0 
L 2766 0 
L 2766 531 
Q 2569 213 2275 61 
Q 1981 -91 1556 -91 
Q 1019 -91 701 211 
Q 384 513 384 1019 
Q 384 1609 779 1909 
Q 1175 2209 1959 2209 
L 2766 2209 
L 2766 2266 
Q 2766 2663 2505 2880 
Q 2244 3097 1772 3097 
Q 1472 3097 1187 3025 
Q 903 2953 641 2809 
L 641 3341 
Q 956 3463 1253 3523 
Q 1550 3584 1831 3584 
Q 2591 3584 2966 3190 
Q 3341 2797 3341 1997 
z
" id="DejaVuSans-61" transform="scale(0.015625)"/>
       <path d="M 3328 2828 
Q 3544 3216 3844 3400 
Q 4144 3584 4550 3584 
Q 5097 3584 5394 3201 
Q 5691 2819 5691 2113 
L 5691 0 
L 5113 0 
L 5113 2094 
Q 5113 2597 4934 2840 
Q 4756 3084 4391 3084 
Q 3944 3084 3684 2787 
Q 3425 2491 3425 1978 
L 3425 0 
L 2847 0 
L 2847 2094 
Q 2847 2600 2669 2842 
Q 2491 3084 2119 3084 
Q 1678 3084 1418 2786 
Q 1159 2488 1159 1978 
L 1159 0 
L 581 0 
L 581 3500 
L 1159 3500 
L 1159 2956 
Q 1356 3278 1631 3431 
Q 1906 3584 2284 3584 
Q 2666 3584 2933 3390 
Q 3200 3197 3328 2828 
z
" id="DejaVuSans-6d" transform="scale(0.015625)"/>
       <path d="M 3597 1894 
L 3597 1613 
L 953 1613 
Q 991 1019 1311 708 
Q 1631 397 2203 397 
Q 2534 397 2845 478 
Q 3156 559 3463 722 
L 3463 178 
Q 3153 47 2828 -22 
Q 2503 -91 2169 -91 
Q 1331 -91 842 396 
Q 353 884 353 1716 
Q 353 2575 817 3079 
Q 1281 3584 2069 3584 
Q 2775 3584 3186 3129 
Q 3597 2675 3597 1894 
z
M 3022 2063 
Q 3016 2534 2758 2815 
Q 2500 3097 2075 3097 
Q 1594 3097 1305 2825 
Q 1016 2553 972 2059 
L 3022 2063 
z
" id="DejaVuSans-65" transform="scale(0.015625)"/>
      </defs>
      <use xlink:href="#DejaVuSans-66"/>
      <use x="35.205078" xlink:href="#DejaVuSans-72"/>
      <use x="76.318359" xlink:href="#DejaVuSans-61"/>
      <use x="137.597656" xlink:href="#DejaVuSans-6d"/>
      <use x="235.009766" xlink:href="#DejaVuSans-65"/>
     </g>
    </g>
   </g>
   <g id="matplotlib.axis_2">
    <g id="ytick_1">
     <g id="line2d_8">
      <defs>
       <path d="M 0 0 
L -3.5 0 
" id="m50c3374d0c" style="stroke:#000000;stroke-width:0.8;"/>
      </defs>
      <g>
       <use style="stroke:#000000;stroke-width:0.8;" x="43.78125" xlink:href="#m50c3374d0c" y="529.321209"/>
      </g>
     </g>
     <g id="text_9">
      <!-- 4 -->
      <g transform="translate(30.41875 533.120428)scale(0.1 -0.1)">
       <use xlink:href="#DejaVuSans-34"/>
      </g>
     </g>
    </g>
    <g id="ytick_2">
     <g id="line2d_9">
      <g>
       <use style="stroke:#000000;stroke-width:0.8;" x="43.78125" xlink:href="#m50c3374d0c" y="411.834405"/>
      </g>
     </g>
     <g id="text_10">
      <!-- 6 -->
      <g transform="translate(30.41875 415.633623)scale(0.1 -0.1)">
       <use xlink:href="#DejaVuSans-36"/>
      </g>
     </g>
    </g>
    <g id="ytick_3">
     <g id="line2d_10">
      <g>
       <use style="stroke:#000000;stroke-width:0.8;" x="43.78125" xlink:href="#m50c3374d0c" y="294.3476"/>
      </g>
     </g>
     <g id="text_11">
      <!-- 8 -->
      <g transform="translate(30.41875 298.146819)scale(0.1 -0.1)">
       <use xlink:href="#DejaVuSans-38"/>
      </g>
     </g>
    </g>
    <g id="ytick_4">
     <g id="line2d_11">
      <g>
       <use style="stroke:#000000;stroke-width:0.8;" x="43.78125" xlink:href="#m50c3374d0c" y="176.860795"/>
      </g>
     </g>
     <g id="text_12">
      <!-- 10 -->
      <g transform="translate(24.05625 180.660014)scale(0.1 -0.1)">
       <use xlink:href="#DejaVuSans-31"/>
       <use x="63.623047" xlink:href="#DejaVuSans-30"/>
      </g>
     </g>
    </g>
    <g id="ytick_5">
     <g id="line2d_12">
      <g>
       <use style="stroke:#000000;stroke-width:0.8;" x="43.78125" xlink:href="#m50c3374d0c" y="59.37399"/>
      </g>
     </g>
     <g id="text_13">
      <!-- 12 -->
      <g transform="translate(24.05625 63.173209)scale(0.1 -0.1)">
       <use xlink:href="#DejaVuSans-31"/>
       <use x="63.623047" xlink:href="#DejaVuSans-32"/>
      </g>
     </g>
    </g>
    <g id="text_14">
     <!-- GCaMP -->
     <g transform="translate(17.976562 322.349446)rotate(-90)scale(0.1 -0.1)">
      <defs>
       <path d="M 3809 666 
L 3809 1919 
L 2778 1919 
L 2778 2438 
L 4434 2438 
L 4434 434 
Q 4069 175 3628 42 
Q 3188 -91 2688 -91 
Q 1594 -91 976 548 
Q 359 1188 359 2328 
Q 359 3472 976 4111 
Q 1594 4750 2688 4750 
Q 3144 4750 3555 4637 
Q 3966 4525 4313 4306 
L 4313 3634 
Q 3963 3931 3569 4081 
Q 3175 4231 2741 4231 
Q 1884 4231 1454 3753 
Q 1025 3275 1025 2328 
Q 1025 1384 1454 906 
Q 1884 428 2741 428 
Q 3075 428 3337 486 
Q 3600 544 3809 666 
z
" id="DejaVuSans-47" transform="scale(0.015625)"/>
       <path d="M 4122 4306 
L 4122 3641 
Q 3803 3938 3442 4084 
Q 3081 4231 2675 4231 
Q 1875 4231 1450 3742 
Q 1025 3253 1025 2328 
Q 1025 1406 1450 917 
Q 1875 428 2675 428 
Q 3081 428 3442 575 
Q 3803 722 4122 1019 
L 4122 359 
Q 3791 134 3420 21 
Q 3050 -91 2638 -91 
Q 1578 -91 968 557 
Q 359 1206 359 2328 
Q 359 3453 968 4101 
Q 1578 4750 2638 4750 
Q 3056 4750 3426 4639 
Q 3797 4528 4122 4306 
z
" id="DejaVuSans-43" transform="scale(0.015625)"/>
       <path d="M 628 4666 
L 1569 4666 
L 2759 1491 
L 3956 4666 
L 4897 4666 
L 4897 0 
L 4281 0 
L 4281 4097 
L 3078 897 
L 2444 897 
L 1241 4097 
L 1241 0 
L 628 0 
L 628 4666 
z
" id="DejaVuSans-4d" transform="scale(0.015625)"/>
       <path d="M 1259 4147 
L 1259 2394 
L 2053 2394 
Q 2494 2394 2734 2622 
Q 2975 2850 2975 3272 
Q 2975 3691 2734 3919 
Q 2494 4147 2053 4147 
L 1259 4147 
z
M 628 4666 
L 2053 4666 
Q 2838 4666 3239 4311 
Q 3641 3956 3641 3272 
Q 3641 2581 3239 2228 
Q 2838 1875 2053 1875 
L 1259 1875 
L 1259 0 
L 628 0 
L 628 4666 
z
" id="DejaVuSans-50" transform="scale(0.015625)"/>
      </defs>
      <use xlink:href="#DejaVuSans-47"/>
      <use x="77.490234" xlink:href="#DejaVuSans-43"/>
      <use x="147.314453" xlink:href="#DejaVuSans-61"/>
      <use x="208.59375" xlink:href="#DejaVuSans-4d"/>
      <use x="294.873047" xlink:href="#DejaVuSans-50"/>
     </g>
    </g>
   </g>
   <g id="line2d_13">
    <path clip-path="url(#p2237eb39b6)" d="M 119.872159 47.979282 
L 121.110416 74.840847 
L 122.348674 96.557564 
L 123.586931 110.188318 
L 124.825188 115.280952 
L 126.063445 113.973421 
L 127.301703 110.623374 
L 128.53996 109.751309 
L 129.778217 113.786198 
L 131.016474 122.360479 
L 134.731246 156.580467 
L 135.969504 164.547868 
L 137.207761 168.465079 
L 138.446018 169.67113 
L 139.684275 170.22731 
L 140.922533 171.680407 
L 142.16079 174.991519 
L 143.399047 180.663203 
L 144.637304 188.658354 
L 147.113819 207.584327 
L 148.352076 214.642279 
L 149.590334 218.251888 
L 150.828591 219.886537 
L 152.066848 222.094761 
L 153.305105 225.397326 
L 154.543363 228.150897 
L 155.78162 229.331204 
L 157.019877 229.891467 
L 158.258134 231.477485 
L 159.496392 234.747418 
L 160.734649 239.187188 
L 164.449421 254.450947 
L 165.687678 258.716328 
L 166.925935 261.982132 
L 168.164193 263.911642 
L 169.40245 264.285128 
L 170.640707 263.691614 
L 171.878964 263.879574 
L 173.117222 267.133339 
L 174.355479 274.300438 
L 175.593736 283.558058 
L 176.831993 291.910083 
L 178.070251 297.106264 
L 179.308508 298.079468 
L 180.546765 295.178119 
L 181.785022 290.249694 
L 183.02328 285.827839 
L 184.261537 283.953381 
L 185.499794 285.108903 
L 186.738052 288.255347 
L 194.167595 312.086432 
L 195.405852 314.773498 
L 196.64411 315.39345 
L 197.882367 314.112524 
L 199.120624 312.257032 
L 200.358881 311.361284 
L 201.597139 311.516723 
L 202.835396 312.112526 
L 204.073653 313.554452 
L 205.311911 316.504122 
L 206.550168 320.282753 
L 207.788425 323.397268 
L 209.026682 325.248977 
L 210.26494 326.538406 
L 211.503197 328.112774 
L 212.741454 330.298176 
L 213.979711 333.574724 
L 215.217969 338.826678 
L 216.456226 346.248882 
L 217.694483 354.511726 
L 218.93274 361.633616 
L 220.170998 366.510832 
L 221.409255 369.146042 
L 222.647512 369.990212 
L 223.88577 369.882401 
L 225.124027 369.998772 
L 226.362284 371.157804 
L 227.600541 373.505811 
L 230.077056 379.470718 
L 231.315313 381.074858 
L 232.55357 381.159996 
L 233.791828 380.037673 
L 235.030085 378.020832 
L 237.5066 372.524025 
L 238.744857 370.279526 
L 241.221371 366.695258 
L 242.459629 364.826045 
L 243.697886 364.343572 
L 244.936143 366.254014 
L 246.1744 370.323272 
L 249.889172 386.465453 
L 251.127429 389.187577 
L 252.365687 388.099898 
L 253.603944 383.093415 
L 256.080459 369.669993 
L 257.318716 364.977609 
L 258.556973 362.388971 
L 259.79523 362.093542 
L 261.033488 364.149151 
L 262.271745 368.162775 
L 263.510002 373.47673 
L 265.986517 385.480964 
L 267.224774 389.195584 
L 268.463031 389.746786 
L 269.701288 388.091876 
L 270.939546 385.853906 
L 272.177803 384.410952 
L 273.41606 384.610669 
L 274.654318 386.239319 
L 277.130832 390.304585 
L 278.369089 391.834428 
L 279.607347 392.733906 
L 280.845604 393.36371 
L 282.083861 395.190878 
L 283.322118 399.478771 
L 285.798633 411.240953 
L 287.03689 415.251805 
L 288.275147 417.156373 
L 290.751662 417.938675 
L 291.989919 420.137033 
L 293.228177 425.026157 
L 296.942948 445.857971 
L 298.181206 448.837355 
L 299.419463 448.502355 
L 300.65772 445.579801 
L 303.134235 437.421132 
L 304.372492 435.437016 
L 305.610749 436.36768 
L 306.849006 439.81816 
L 308.087264 443.905001 
L 309.325521 446.431421 
L 310.563778 446.535188 
L 311.802036 444.992139 
L 314.27855 440.70121 
L 315.516807 439.279304 
L 316.755065 439.498325 
L 317.993322 441.5483 
L 319.231579 444.531045 
L 320.469836 446.965189 
L 321.708094 448.008951 
L 322.946351 448.060118 
L 324.184608 447.648665 
L 325.422866 446.351173 
L 326.661123 443.41381 
L 327.89938 438.814203 
L 329.137637 433.55321 
L 330.375895 429.567625 
L 331.614152 428.721638 
L 332.852409 431.035248 
L 336.567181 442.476912 
L 337.805438 447.507087 
L 340.281953 458.350832 
L 341.52021 462.541674 
L 342.758467 465.848969 
L 343.996725 468.07253 
L 345.234982 468.637163 
L 346.473239 467.492888 
L 347.711496 465.520179 
L 348.949754 463.931398 
L 350.188011 463.431875 
L 351.426268 464.079529 
L 352.664525 465.631429 
L 355.14104 469.598805 
L 356.379297 470.930377 
L 357.617554 471.265797 
L 358.855812 470.939857 
L 360.094069 470.740294 
L 363.808841 471.248585 
L 365.047098 471.895855 
L 366.285355 473.357454 
L 367.523613 475.190202 
L 368.76187 476.604499 
L 370.000127 477.26033 
L 371.238384 477.206188 
L 372.476642 476.394514 
L 373.714899 474.543099 
L 374.953156 471.401619 
L 377.429671 462.949041 
L 378.667928 459.78258 
L 379.906185 458.459858 
L 381.144443 458.775 
L 382.3827 459.823758 
L 383.620957 460.467228 
L 384.859214 459.970766 
L 386.097472 458.931712 
L 387.335729 458.82499 
L 388.573986 460.166202 
L 389.812243 462.274985 
L 391.050501 464.714673 
L 394.765272 473.299473 
L 396.00353 474.822538 
L 397.241787 474.921107 
L 398.480044 473.53746 
L 402.194816 466.18969 
L 403.433073 465.349299 
L 404.671331 465.925751 
L 407.147845 469.553733 
L 408.386102 469.962595 
L 409.62436 468.312738 
L 410.862617 465.714629 
L 412.100874 463.852167 
L 414.577389 462.376289 
L 415.815646 460.899255 
L 417.053903 459.193709 
L 418.292161 458.754195 
L 419.530418 460.677009 
L 420.768675 464.802666 
L 422.006932 469.830563 
L 423.24519 474.032297 
L 424.483447 476.279787 
L 425.721704 476.589552 
L 426.959961 475.447339 
L 428.198219 473.120657 
L 429.436476 470.112788 
L 430.674733 467.497036 
L 431.912991 466.40488 
L 433.151248 467.556556 
L 434.389505 471.149217 
L 435.627762 476.843004 
L 436.86602 483.549833 
L 438.104277 489.090364 
L 439.342534 490.789521 
L 440.580791 487.481296 
L 443.057306 473.620688 
L 444.295563 468.470321 
L 445.53382 466.337228 
L 446.772078 467.313238 
L 448.010335 470.686886 
L 450.48685 480.10228 
L 454.201621 495.487727 
L 455.439879 499.633897 
L 456.678136 502.933328 
L 457.916393 505.195997 
L 459.15465 506.21936 
L 460.392908 505.999484 
L 461.631165 504.541301 
L 464.107679 499.905128 
L 465.345937 498.704258 
L 466.584194 499.034446 
L 467.822451 500.997446 
L 470.298966 507.223972 
L 471.537223 509.407673 
L 472.77548 510.796045 
L 474.013738 511.819305 
L 475.251995 512.20399 
L 476.490252 511.311585 
L 477.728509 509.152755 
L 478.966767 506.559853 
L 480.205024 504.341504 
L 483.919796 499.003276 
L 485.158053 497.075785 
L 486.39631 496.328718 
L 487.634568 497.749512 
L 488.872825 501.666697 
L 492.587597 518.892106 
L 493.825854 521.401262 
L 495.064111 521.725452 
L 496.302368 520.493314 
L 497.540626 518.113766 
L 498.778883 514.820308 
L 502.493655 502.800314 
L 503.731912 500.281321 
L 504.970169 499.765118 
L 506.208427 501.787648 
L 507.446684 505.942579 
L 508.684941 510.681968 
L 509.923198 514.211964 
L 511.161456 515.390448 
L 512.399713 514.287167 
L 514.876227 509.900571 
L 516.114485 508.544369 
L 517.352742 508.255097 
L 518.590999 509.028395 
L 519.829257 510.712847 
L 521.067514 512.807522 
L 522.305771 514.207617 
L 523.544028 513.902735 
L 524.782286 512.021544 
L 526.020543 509.782327 
L 527.2588 508.442809 
L 528.497057 508.294569 
L 529.735315 508.457061 
L 530.973572 507.507083 
L 532.211829 504.668254 
L 533.450086 500.902782 
L 534.688344 498.391109 
L 535.926601 498.555264 
L 537.164858 501.083454 
L 538.403116 504.933185 
L 540.87963 513.799493 
L 542.117887 517.225303 
L 543.356145 519.267168 
L 544.594402 520.327081 
L 547.070916 521.982139 
L 549.547431 524.079707 
L 550.785688 525.304166 
L 554.50046 529.448463 
L 555.738717 529.721772 
L 556.976975 528.441953 
L 559.453489 522.957298 
L 560.691746 521.328927 
L 561.930004 521.454834 
L 563.168261 522.859664 
L 564.406518 524.556169 
L 565.644775 525.649853 
L 566.883033 525.84914 
L 569.359547 525.087141 
L 570.597804 524.922061 
L 571.836062 525.2008 
L 574.312576 526.841542 
L 575.550834 527.01392 
L 576.789091 526.068927 
L 578.027348 524.535293 
L 579.265605 523.335547 
L 580.503863 523.230816 
L 581.74212 524.570618 
L 584.218634 529.019298 
L 585.456892 530.311046 
L 586.695149 530.906557 
L 587.933406 531.325869 
L 589.171663 531.58182 
L 590.409921 531.177862 
L 592.886435 528.79674 
L 594.124693 528.274235 
L 595.36295 528.653882 
L 596.601207 529.854456 
L 597.839464 531.792853 
L 600.315979 536.470456 
L 601.554236 538.600898 
L 602.792493 540.296696 
L 604.030751 540.918203 
L 605.269008 540.06059 
L 607.745523 536.245918 
L 608.98378 534.104619 
L 610.222037 530.836233 
L 611.460294 525.585387 
L 613.936809 512.545137 
L 615.175066 508.048036 
L 616.413323 505.630158 
L 617.651581 505.267065 
L 618.889838 506.871388 
L 621.366352 511.98501 
L 622.60461 513.585181 
L 623.842867 514.665991 
L 625.081124 515.961087 
L 627.557639 519.121158 
L 628.795896 520.176814 
L 630.034153 520.867092 
L 632.510668 521.894586 
L 633.748925 523.051193 
L 634.987182 525.007739 
L 636.22544 527.712068 
L 637.463697 531.252992 
L 638.701954 535.890497 
L 641.178469 546.702435 
L 642.416726 550.324263 
L 643.654983 551.903131 
L 644.893241 552.059518 
L 646.131498 551.267947 
L 647.369755 549.248686 
L 648.608012 545.599712 
L 649.84627 540.573089 
L 653.561041 523.724085 
L 654.799299 519.727343 
L 656.037556 517.544834 
L 657.275813 516.394964 
L 658.51407 514.598594 
L 659.752328 511.11603 
L 663.4671 497.187885 
L 664.705357 493.99041 
L 665.943614 492.359258 
L 667.181871 492.679178 
L 668.420129 494.890267 
L 669.658386 498.464631 
L 674.611415 514.982785 
L 675.849672 518.338859 
L 677.087929 520.699941 
L 678.326187 521.475904 
L 679.564444 520.280735 
L 680.802701 517.199349 
L 684.517473 504.35455 
L 685.75573 502.259074 
L 686.993988 502.712653 
L 688.232245 505.767487 
L 690.708759 515.247833 
L 691.947017 518.873187 
L 695.661789 527.100699 
L 696.900046 529.182889 
L 698.138303 529.573743 
L 699.37656 527.782216 
L 700.614818 524.005242 
L 701.853075 519.334221 
L 703.091332 515.272075 
L 704.329589 512.850137 
L 705.567847 512.345653 
L 706.806104 513.272582 
L 708.044361 514.509032 
L 709.282618 515.034404 
L 710.520876 514.541788 
L 712.99739 512.275546 
L 714.235648 511.590694 
L 715.473905 511.213138 
L 716.712162 511.139861 
L 717.950419 511.542034 
L 720.426934 512.962777 
L 721.665191 513.801859 
L 722.903448 515.031344 
L 724.141706 516.666005 
L 725.379963 518.664747 
L 729.094735 525.970514 
L 730.332992 527.574302 
L 731.571249 528.466074 
L 732.809507 528.948297 
L 734.047764 529.193267 
L 735.286021 529.296892 
L 736.524278 529.558527 
L 739.000793 530.787826 
L 740.23905 530.567225 
L 741.477307 528.780221 
L 743.953822 522.137193 
L 745.192079 519.764421 
L 746.430336 519.026505 
L 747.668594 519.472601 
L 748.906851 520.224444 
L 750.145108 520.398509 
L 751.383366 519.372223 
L 753.85988 515.528423 
L 755.098137 514.967793 
L 756.336395 515.272469 
L 757.574652 515.192479 
L 760.051166 513.293219 
L 761.289424 513.373016 
L 762.527681 514.512499 
L 763.765938 516.392347 
L 765.004195 519.121769 
L 766.242453 522.466838 
L 767.48071 525.388115 
L 768.718967 527.082627 
L 769.957225 528.046859 
L 771.195482 529.65093 
L 772.433739 532.841826 
L 773.671996 537.554599 
L 774.910254 542.910242 
L 776.148511 547.584575 
L 777.386768 550.425545 
L 778.625025 551.125698 
L 779.863283 550.258213 
L 782.339797 546.678942 
L 783.578054 546.013284 
L 784.816312 547.835205 
L 787.292826 555.094789 
L 788.531084 556.858736 
L 789.769341 556.890378 
L 791.007598 555.754531 
L 792.245855 553.554286 
L 793.484113 550.726661 
L 794.72237 548.636869 
L 795.960627 548.490821 
L 797.198884 550.121178 
L 798.437142 552.102479 
L 799.675399 552.947166 
L 800.913656 552.145687 
L 804.628428 546.483835 
L 807.104943 543.93662 
L 808.3432 542.442137 
L 809.581457 541.55902 
L 810.819714 542.425152 
L 812.057972 545.274329 
L 814.534486 552.963094 
L 815.772743 555.925676 
L 817.011001 557.985438 
L 818.249258 559.196848 
L 819.487515 559.550254 
L 820.725773 559.103052 
L 821.96403 557.994027 
L 823.202287 556.368806 
L 828.155316 548.585711 
L 831.870088 543.540436 
L 833.108345 543.165166 
L 834.346602 544.223568 
L 835.58486 546.351337 
L 839.299632 554.682887 
L 840.537889 556.112544 
L 841.776146 555.921098 
L 843.014403 554.371875 
L 845.490918 549.976181 
L 846.729175 548.834511 
L 847.967432 548.983265 
L 849.20569 549.76602 
L 850.443947 550.168402 
L 851.682204 549.786017 
L 852.920461 549.016632 
L 854.158719 548.490293 
L 855.396976 548.632583 
L 856.635233 549.597789 
L 859.111748 552.448257 
L 860.350005 552.793361 
L 861.588262 551.344613 
L 862.82652 547.657945 
L 865.303034 536.719031 
L 866.541291 532.691192 
L 867.779549 530.590647 
L 869.017806 529.937643 
L 870.256063 530.752403 
L 871.49432 533.525383 
L 872.732578 538.082085 
L 873.970835 543.30569 
L 875.209092 547.948244 
L 876.44735 551.416798 
L 877.685607 553.633074 
L 878.923864 554.622747 
L 881.400379 555.099245 
L 882.638636 555.661208 
L 883.876893 555.984858 
L 885.11515 555.726894 
L 886.353408 555.161818 
L 887.591665 554.405609 
L 888.829922 552.795155 
L 890.06818 549.806593 
L 891.306437 546.076781 
L 892.544694 542.717097 
L 893.782951 540.262823 
L 895.021209 538.581625 
L 896.259466 537.480076 
L 897.497723 537.41316 
L 898.73598 539.062481 
L 899.974238 542.253809 
L 901.212495 545.881105 
L 902.450752 548.713754 
L 903.689009 550.431101 
L 904.927267 551.946729 
L 906.165524 554.208278 
L 907.403781 557.014218 
L 908.642039 559.452191 
L 909.880296 560.881565 
L 911.118553 561.202423 
L 912.35681 560.631554 
L 913.595068 559.326731 
L 914.833325 557.269283 
L 916.071582 554.520963 
L 917.309839 551.167059 
L 918.548097 547.065861 
L 921.024611 537.269292 
L 922.262868 533.900984 
L 923.501126 533.356292 
L 924.739383 535.437153 
L 927.215898 542.357321 
L 928.454155 545.15547 
L 929.692412 546.556659 
L 930.930669 546.479653 
L 933.407184 544.710153 
L 934.645441 544.018333 
L 935.883698 542.952725 
L 938.360213 539.202711 
L 939.59847 538.12595 
L 940.836727 538.109896 
L 942.074985 538.820014 
L 943.313242 540.182761 
L 944.551499 542.293071 
L 945.789757 544.730962 
L 947.028014 546.51113 
L 948.266271 546.749159 
L 949.504528 545.263876 
L 950.742786 542.77548 
L 951.981043 540.639817 
L 953.2193 539.892036 
L 954.457557 540.211663 
L 955.695815 540.303771 
L 956.934072 539.369783 
L 958.172329 537.589037 
L 959.410586 535.365559 
L 960.648844 532.81884 
L 963.125358 527.138396 
L 964.363616 525.167667 
L 965.601873 524.825044 
L 966.84013 525.945075 
L 968.078387 527.521051 
L 969.316645 528.55834 
L 970.554902 528.445217 
L 971.793159 526.913239 
L 973.031416 524.236802 
L 976.746188 514.567978 
L 977.984446 511.264603 
L 979.222703 508.804404 
L 980.46096 508.09826 
L 981.699217 509.476914 
L 982.937475 512.330779 
L 985.413989 518.599497 
L 986.652246 520.933286 
L 987.890504 522.562301 
L 989.128761 523.582521 
L 994.08179 526.017144 
L 995.320047 527.040085 
L 996.558305 528.940511 
L 999.034819 534.321939 
L 1001.511334 540.014968 
L 1002.749591 541.968917 
L 1003.987848 542.024217 
L 1005.226105 540.038005 
L 1006.464363 537.1324 
L 1007.70262 534.948634 
L 1008.940877 534.449767 
L 1010.179134 535.457554 
L 1011.417392 536.97877 
L 1012.655649 537.88213 
L 1013.893906 537.880671 
L 1015.132164 537.75035 
L 1016.370421 537.916986 
L 1017.608678 537.323609 
L 1018.846935 534.447028 
L 1020.085193 528.933603 
L 1022.561707 514.874238 
L 1023.799964 509.231335 
L 1025.038222 505.390804 
L 1026.276479 503.037783 
L 1027.514736 501.067463 
L 1028.752993 498.10011 
L 1029.991251 493.417481 
L 1031.229508 487.051297 
L 1032.467765 479.105055 
L 1033.706023 469.409057 
L 1034.94428 457.821118 
L 1037.420794 431.799988 
L 1038.659052 420.240946 
L 1039.897309 411.161351 
L 1041.135566 404.468678 
L 1042.373823 399.440586 
L 1043.612081 396.095652 
L 1044.850338 395.435226 
L 1046.088595 397.918025 
L 1047.326852 402.69156 
L 1048.56511 408.789335 
L 1049.803367 416.023816 
L 1052.279882 433.409052 
L 1054.756396 451.185136 
L 1055.994653 458.61556 
L 1057.232911 463.964053 
L 1058.471168 465.882746 
L 1059.709425 463.489285 
L 1060.947682 457.564225 
L 1062.18594 450.384127 
L 1063.424197 444.470305 
L 1064.662454 441.64 
L 1065.900711 442.6544 
L 1067.138969 447.080201 
L 1069.615483 459.999738 
L 1070.853741 465.138996 
L 1072.091998 467.763112 
L 1073.330255 467.81926 
L 1074.568512 466.314383 
L 1075.80677 464.477157 
L 1077.045027 463.662347 
L 1078.283284 465.309783 
L 1079.521541 469.972211 
L 1081.998056 483.93773 
L 1083.236313 489.737869 
L 1084.474571 493.305278 
L 1085.712828 494.835319 
L 1086.951085 494.856987 
L 1088.189342 493.410329 
L 1089.4276 490.10764 
L 1090.665857 484.912071 
L 1094.380629 466.089817 
L 1095.618886 462.150416 
L 1096.857143 459.651531 
L 1098.0954 457.424771 
L 1099.333658 454.387356 
L 1100.571915 449.912345 
L 1101.810172 443.781487 
L 1105.524944 421.014328 
L 1106.763201 415.221338 
L 1108.001459 411.289488 
L 1110.477973 405.748592 
L 1111.71623 401.292394 
L 1112.954488 395.194102 
L 1115.431002 381.653197 
L 1116.669259 375.711922 
L 1117.907517 370.511085 
L 1119.145774 365.815914 
L 1120.384031 361.703251 
L 1121.622289 358.370514 
L 1122.860546 355.626139 
L 1124.098803 353.331042 
L 1125.33706 352.121605 
L 1126.575318 352.884955 
L 1127.813575 355.679319 
L 1130.290089 363.912113 
L 1131.528347 367.099252 
L 1132.766604 368.445699 
L 1134.004861 368.302602 
L 1135.243118 367.909117 
L 1136.481376 368.078072 
L 1137.719633 368.591481 
L 1138.95789 368.703808 
L 1140.196148 367.616762 
L 1141.434405 364.512094 
L 1142.672662 359.090277 
L 1145.149177 346.301501 
L 1146.387434 342.14206 
L 1147.625691 340.297483 
L 1148.863948 340.686693 
L 1150.102206 342.336273 
L 1151.340463 342.981063 
L 1152.57872 340.678133 
L 1153.816977 335.985504 
L 1155.055235 331.750094 
L 1156.293492 330.196375 
L 1157.531749 330.409938 
L 1158.770007 329.656872 
L 1160.008264 326.615882 
L 1164.961293 308.224568 
L 1166.19955 304.920466 
L 1167.437807 303.175896 
L 1168.676065 302.124398 
L 1169.914322 300.633646 
L 1171.152579 298.344647 
L 1173.629094 292.834683 
L 1174.867351 291.69747 
L 1176.105608 293.708774 
L 1177.343866 299.005525 
L 1178.582123 305.465136 
L 1179.82038 310.416085 
L 1181.058637 312.731506 
L 1182.296895 313.395723 
L 1183.535152 314.657909 
L 1184.773409 318.230912 
L 1187.249924 329.283256 
L 1188.488181 333.427168 
L 1189.726438 335.281643 
L 1190.964696 333.772111 
L 1192.202953 328.485373 
L 1194.679467 312.206578 
L 1195.917725 305.788659 
L 1197.155982 302.123059 
L 1198.394239 299.727144 
L 1199.632496 296.101014 
L 1202.109011 284.894392 
L 1203.347268 282.311951 
L 1204.585525 284.273119 
L 1207.06204 294.811605 
L 1208.300297 297.720789 
L 1209.538555 297.722648 
L 1210.776812 296.464509 
L 1212.015069 297.510747 
L 1213.253326 303.165045 
L 1215.729841 320.784205 
L 1216.968098 327.445564 
L 1218.206355 330.188385 
L 1219.444613 327.919091 
L 1220.68287 320.758342 
L 1221.921127 309.723183 
L 1223.159384 296.156086 
L 1225.635899 265.423355 
L 1229.350671 217.052771 
L 1230.588928 202.991219 
L 1231.827185 191.77634 
L 1233.065443 185.512915 
L 1234.3037 186.003759 
L 1235.541957 194.045808 
L 1236.780214 208.566202 
L 1240.494986 262.369542 
L 1241.733243 277.058397 
L 1242.971501 288.188086 
L 1244.209758 296.274345 
L 1246.686273 310.051109 
L 1249.162787 324.830645 
L 1250.401044 329.486854 
L 1251.639302 330.618454 
L 1252.877559 329.342352 
L 1254.115816 328.284659 
L 1255.354073 329.646347 
L 1259.068845 340.458754 
L 1260.307103 343.408292 
L 1261.54536 347.371283 
L 1264.021874 358.556152 
L 1265.260132 362.364049 
L 1266.498389 362.513743 
L 1268.974903 358.197666 
L 1271.451418 356.198054 
L 1272.689675 353.696747 
L 1273.927932 349.913188 
L 1275.16619 347.039093 
L 1276.404447 346.956795 
L 1278.880962 351.739639 
L 1280.119219 351.754807 
L 1281.357476 348.126258 
L 1282.595733 340.843789 
L 1285.072248 320.91264 
L 1286.310505 312.510358 
L 1287.548762 306.86892 
L 1288.78702 305.099417 
L 1290.025277 307.741144 
L 1293.740049 324.342181 
L 1294.978306 328.397366 
L 1296.216563 331.436058 
L 1298.693078 336.118579 
L 1299.931335 337.131968 
L 1301.169592 335.251781 
L 1302.40785 329.950287 
L 1304.884364 315.675867 
L 1306.122621 311.321399 
L 1307.360879 310.183656 
L 1308.599136 311.333012 
L 1309.837393 313.275256 
L 1311.07565 314.80169 
L 1312.313908 315.17649 
L 1313.552165 313.981977 
L 1314.790422 311.054953 
L 1316.02868 306.650827 
L 1317.266937 301.692358 
L 1318.505194 297.554138 
L 1319.743451 295.21872 
L 1320.981709 294.629528 
L 1322.219966 294.510001 
L 1323.458223 292.844367 
L 1324.69648 288.642127 
L 1325.934738 283.412903 
L 1327.172995 279.961878 
L 1328.411252 279.800025 
L 1329.649509 282.798522 
L 1330.887767 288.621728 
L 1333.364281 304.174424 
L 1334.602539 310.945694 
L 1335.840796 316.769747 
L 1337.079053 321.348084 
L 1338.31731 324.523623 
L 1340.793825 329.507087 
L 1343.270339 333.689681 
L 1344.508597 336.66768 
L 1345.746854 341.076629 
L 1346.985111 346.896925 
L 1349.461626 360.511712 
L 1350.699883 365.930109 
L 1351.93814 369.205968 
L 1353.176398 369.933655 
L 1354.414655 367.484114 
L 1355.652912 361.849521 
L 1356.891169 354.85542 
L 1358.129427 349.511632 
L 1359.367684 347.853817 
L 1360.605941 349.716883 
L 1361.844198 353.132367 
L 1363.082456 355.291176 
L 1364.320713 353.960818 
L 1365.55897 348.695873 
L 1366.797228 340.457488 
L 1368.035485 330.378664 
L 1370.511999 308.430178 
L 1371.750257 299.545075 
L 1374.226771 287.214277 
L 1375.465028 278.652708 
L 1379.1798 243.906122 
L 1380.418057 237.132718 
L 1381.656315 236.594702 
L 1382.894572 242.809017 
L 1384.132829 253.547604 
L 1385.371087 265.293404 
L 1386.609344 274.326604 
L 1387.847601 277.005994 
L 1389.085858 271.460262 
L 1390.324116 258.777496 
L 1392.80063 225.902135 
L 1394.038887 214.226075 
L 1395.277145 209.478474 
L 1396.515402 210.761396 
L 1397.753659 214.382244 
L 1398.991916 215.954485 
L 1400.230174 212.919505 
L 1401.468431 206.401706 
L 1402.706688 200.662492 
L 1403.944946 199.747545 
L 1405.183203 204.108156 
L 1408.897975 223.766308 
L 1410.136232 230.049726 
L 1411.374489 234.277329 
L 1412.612746 235.581992 
L 1413.851004 234.477723 
L 1415.089261 230.665413 
L 1417.565775 216.541288 
L 1418.804033 212.492186 
L 1420.04229 213.555041 
L 1421.280547 217.360834 
L 1422.518805 219.428774 
L 1423.757062 217.670781 
L 1424.995319 214.431814 
L 1426.233576 213.838653 
L 1427.471834 218.191203 
L 1428.710091 226.882994 
L 1432.424863 260.953726 
L 1433.66312 267.360692 
L 1434.901377 267.866272 
L 1436.139634 264.494118 
L 1437.377892 260.545082 
L 1438.616149 257.375055 
L 1439.854406 253.439622 
L 1441.092664 246.757985 
L 1443.569178 229.208149 
L 1444.807435 223.01789 
L 1446.045693 220.372256 
L 1447.28395 221.73622 
L 1448.522207 227.228589 
L 1452.236979 253.009609 
L 1453.475236 259.073777 
L 1454.713494 263.247384 
L 1455.951751 265.600081 
L 1457.190008 267.26178 
L 1458.428265 269.271085 
L 1459.666523 270.987701 
L 1460.90478 270.841386 
L 1462.143037 268.23 
L 1463.381294 264.284573 
L 1464.619552 261.150904 
L 1465.857809 260.810867 
L 1467.096066 263.462188 
L 1468.334323 267.06163 
L 1470.810838 272.383088 
L 1472.049095 277.552511 
L 1473.287353 286.3779 
L 1474.52561 296.360365 
L 1475.763867 304.382487 
L 1477.002124 310.031876 
L 1478.240382 314.47594 
L 1479.478639 318.321452 
L 1480.716896 321.670237 
L 1481.955153 324.491649 
L 1483.193411 326.281296 
L 1484.431668 326.227474 
L 1485.669925 324.026358 
L 1488.14644 316.76941 
L 1489.384697 314.23217 
L 1490.622954 313.324259 
L 1491.861212 313.872582 
L 1493.099469 315.388133 
L 1494.337726 317.572007 
L 1495.575983 320.017441 
L 1496.814241 321.937816 
L 1498.052498 323.015437 
L 1499.290755 323.48705 
L 1500.529012 322.860218 
L 1501.76727 320.345686 
L 1505.482041 308.467473 
L 1506.720299 305.462284 
L 1507.958556 304.361794 
L 1509.196813 307.138577 
L 1510.435071 314.757945 
L 1511.673328 325.963557 
L 1512.911585 338.202873 
L 1514.149842 348.434124 
L 1515.3881 353.549196 
L 1516.626357 352.025667 
L 1517.864614 345.147302 
L 1521.579386 316.5743 
L 1522.817643 309.916893 
L 1524.0559 307.283977 
L 1525.294158 308.531885 
L 1529.00893 317.129742 
L 1530.247187 320.93315 
L 1531.485444 325.540227 
L 1532.723701 329.561889 
L 1533.961959 331.443441 
L 1535.200216 330.187836 
L 1537.67673 322.792395 
L 1538.914988 321.169435 
L 1540.153245 320.708052 
L 1541.391502 319.529234 
L 1542.62976 316.607675 
L 1543.868017 311.77939 
L 1545.106274 306.489458 
L 1546.344531 303.585891 
L 1547.582789 304.571187 
L 1548.821046 308.354007 
L 1551.29756 317.185902 
L 1552.535818 320.314379 
L 1555.012332 323.858471 
L 1556.250589 327.683864 
L 1557.488847 335.037793 
L 1558.727104 345.753355 
L 1564.91839 408.641262 
L 1567.394905 431.537797 
L 1569.871419 453.000258 
L 1571.109677 462.542779 
L 1572.347934 470.073763 
L 1573.586191 474.472651 
L 1574.824448 474.558152 
L 1576.062706 469.234483 
L 1577.300963 457.818889 
L 1578.53922 440.596633 
L 1582.253992 377.041744 
L 1583.492249 364.833574 
L 1584.730507 361.865115 
L 1585.968764 366.533756 
L 1587.207021 376.070969 
L 1589.683536 400.152498 
L 1590.921793 408.462125 
L 1592.16005 411.643431 
L 1593.398307 410.985712 
L 1594.636565 408.271673 
L 1595.874822 403.80252 
L 1597.113079 397.530222 
L 1598.351337 390.593534 
L 1599.589594 384.606152 
L 1600.827851 380.311155 
L 1602.066108 377.050334 
L 1603.304366 372.909307 
L 1604.542623 366.703176 
L 1607.019137 353.312383 
L 1611.972166 327.210613 
L 1613.210424 322.040072 
L 1614.448681 317.623293 
L 1615.686938 314.630963 
L 1616.925196 313.849527 
L 1618.163453 316.931259 
L 1619.40171 325.066519 
L 1620.639967 338.180661 
L 1623.116482 370.020833 
L 1624.354739 379.205009 
L 1625.592996 379.958888 
L 1626.831254 373.85879 
L 1628.069511 364.97026 
L 1629.307768 358.004975 
L 1630.546026 356.073497 
L 1631.784283 359.163841 
L 1634.260797 369.923798 
L 1635.499055 373.305646 
L 1636.737312 373.849252 
L 1637.975569 369.879976 
L 1639.213826 360.324674 
L 1640.452084 346.111628 
L 1641.690341 329.504054 
L 1641.690341 329.504054 
" style="fill:none;stroke:#008000;stroke-linecap:square;stroke-width:1.5;"/>
   </g>
   <g id="patch_3">
    <path d="M 43.78125 586.86358 
L 43.78125 22.318125 
" style="fill:none;stroke:#000000;stroke-linecap:square;stroke-linejoin:miter;stroke-width:0.8;"/>
   </g>
   <g id="patch_4">
    <path d="M 1717.78125 586.86358 
L 1717.78125 22.318125 
" style="fill:none;stroke:#000000;stroke-linecap:square;stroke-linejoin:miter;stroke-width:0.8;"/>
   </g>
   <g id="patch_5">
    <path d="M 43.78125 586.86358 
L 1717.78125 586.86358 
" style="fill:none;stroke:#000000;stroke-linecap:square;stroke-linejoin:miter;stroke-width:0.8;"/>
   </g>
   <g id="patch_6">
    <path d="M 43.78125 22.318125 
L 1717.78125 22.318125 
" style="fill:none;stroke:#000000;stroke-linecap:square;stroke-linejoin:miter;stroke-width:0.8;"/>
   </g>
   <g id="text_15">
    <!-- before binarisation -->
    <g transform="translate(824.1825 16.318125)scale(0.12 -0.12)">
     <defs>
      <path d="M 3116 1747 
Q 3116 2381 2855 2742 
Q 2594 3103 2138 3103 
Q 1681 3103 1420 2742 
Q 1159 2381 1159 1747 
Q 1159 1113 1420 752 
Q 1681 391 2138 391 
Q 2594 391 2855 752 
Q 3116 1113 3116 1747 
z
M 1159 2969 
Q 1341 3281 1617 3432 
Q 1894 3584 2278 3584 
Q 2916 3584 3314 3078 
Q 3713 2572 3713 1747 
Q 3713 922 3314 415 
Q 2916 -91 2278 -91 
Q 1894 -91 1617 61 
Q 1341 213 1159 525 
L 1159 0 
L 581 0 
L 581 4863 
L 1159 4863 
L 1159 2969 
z
" id="DejaVuSans-62" transform="scale(0.015625)"/>
      <path d="M 1959 3097 
Q 1497 3097 1228 2736 
Q 959 2375 959 1747 
Q 959 1119 1226 758 
Q 1494 397 1959 397 
Q 2419 397 2687 759 
Q 2956 1122 2956 1747 
Q 2956 2369 2687 2733 
Q 2419 3097 1959 3097 
z
M 1959 3584 
Q 2709 3584 3137 3096 
Q 3566 2609 3566 1747 
Q 3566 888 3137 398 
Q 2709 -91 1959 -91 
Q 1206 -91 779 398 
Q 353 888 353 1747 
Q 353 2609 779 3096 
Q 1206 3584 1959 3584 
z
" id="DejaVuSans-6f" transform="scale(0.015625)"/>
      <path id="DejaVuSans-20" transform="scale(0.015625)"/>
      <path d="M 603 3500 
L 1178 3500 
L 1178 0 
L 603 0 
L 603 3500 
z
M 603 4863 
L 1178 4863 
L 1178 4134 
L 603 4134 
L 603 4863 
z
" id="DejaVuSans-69" transform="scale(0.015625)"/>
      <path d="M 3513 2113 
L 3513 0 
L 2938 0 
L 2938 2094 
Q 2938 2591 2744 2837 
Q 2550 3084 2163 3084 
Q 1697 3084 1428 2787 
Q 1159 2491 1159 1978 
L 1159 0 
L 581 0 
L 581 3500 
L 1159 3500 
L 1159 2956 
Q 1366 3272 1645 3428 
Q 1925 3584 2291 3584 
Q 2894 3584 3203 3211 
Q 3513 2838 3513 2113 
z
" id="DejaVuSans-6e" transform="scale(0.015625)"/>
      <path d="M 2834 3397 
L 2834 2853 
Q 2591 2978 2328 3040 
Q 2066 3103 1784 3103 
Q 1356 3103 1142 2972 
Q 928 2841 928 2578 
Q 928 2378 1081 2264 
Q 1234 2150 1697 2047 
L 1894 2003 
Q 2506 1872 2764 1633 
Q 3022 1394 3022 966 
Q 3022 478 2636 193 
Q 2250 -91 1575 -91 
Q 1294 -91 989 -36 
Q 684 19 347 128 
L 347 722 
Q 666 556 975 473 
Q 1284 391 1588 391 
Q 1994 391 2212 530 
Q 2431 669 2431 922 
Q 2431 1156 2273 1281 
Q 2116 1406 1581 1522 
L 1381 1569 
Q 847 1681 609 1914 
Q 372 2147 372 2553 
Q 372 3047 722 3315 
Q 1072 3584 1716 3584 
Q 2034 3584 2315 3537 
Q 2597 3491 2834 3397 
z
" id="DejaVuSans-73" transform="scale(0.015625)"/>
      <path d="M 1172 4494 
L 1172 3500 
L 2356 3500 
L 2356 3053 
L 1172 3053 
L 1172 1153 
Q 1172 725 1289 603 
Q 1406 481 1766 481 
L 2356 481 
L 2356 0 
L 1766 0 
Q 1100 0 847 248 
Q 594 497 594 1153 
L 594 3053 
L 172 3053 
L 172 3500 
L 594 3500 
L 594 4494 
L 1172 4494 
z
" id="DejaVuSans-74" transform="scale(0.015625)"/>
     </defs>
     <use xlink:href="#DejaVuSans-62"/>
     <use x="63.476562" xlink:href="#DejaVuSans-65"/>
     <use x="125" xlink:href="#DejaVuSans-66"/>
     <use x="160.205078" xlink:href="#DejaVuSans-6f"/>
     <use x="221.386719" xlink:href="#DejaVuSans-72"/>
     <use x="260.25" xlink:href="#DejaVuSans-65"/>
     <use x="321.773438" xlink:href="#DejaVuSans-20"/>
     <use x="353.560547" xlink:href="#DejaVuSans-62"/>
     <use x="417.037109" xlink:href="#DejaVuSans-69"/>
     <use x="444.820312" xlink:href="#DejaVuSans-6e"/>
     <use x="508.199219" xlink:href="#DejaVuSans-61"/>
     <use x="569.478516" xlink:href="#DejaVuSans-72"/>
     <use x="610.591797" xlink:href="#DejaVuSans-69"/>
     <use x="638.375" xlink:href="#DejaVuSans-73"/>
     <use x="690.474609" xlink:href="#DejaVuSans-61"/>
     <use x="751.753906" xlink:href="#DejaVuSans-74"/>
     <use x="790.962891" xlink:href="#DejaVuSans-69"/>
     <use x="818.746094" xlink:href="#DejaVuSans-6f"/>
     <use x="879.927734" xlink:href="#DejaVuSans-6e"/>
    </g>
   </g>
  </g>
  <g id="axes_2">
   <g id="patch_7">
    <path d="M 43.78125 1264.318125 
L 1717.78125 1264.318125 
L 1717.78125 699.77267 
L 43.78125 699.77267 
z
" style="fill:#ffffff;"/>
   </g>
   <g id="matplotlib.axis_3">
    <g id="xtick_8">
     <g id="line2d_14">
      <g>
       <use style="stroke:#000000;stroke-width:0.8;" x="119.872159" xlink:href="#m7dc3b4a7df" y="1264.318125"/>
      </g>
     </g>
     <g id="text_16">
      <!-- 0 -->
      <g transform="translate(116.690909 1278.916563)scale(0.1 -0.1)">
       <use xlink:href="#DejaVuSans-30"/>
      </g>
     </g>
    </g>
    <g id="xtick_9">
     <g id="line2d_15">
      <g>
       <use style="stroke:#000000;stroke-width:0.8;" x="367.523613" xlink:href="#m7dc3b4a7df" y="1264.318125"/>
      </g>
     </g>
     <g id="text_17">
      <!-- 200 -->
      <g transform="translate(357.979863 1278.916563)scale(0.1 -0.1)">
       <use xlink:href="#DejaVuSans-32"/>
       <use x="63.623047" xlink:href="#DejaVuSans-30"/>
       <use x="127.246094" xlink:href="#DejaVuSans-30"/>
      </g>
     </g>
    </g>
    <g id="xtick_10">
     <g id="line2d_16">
      <g>
       <use style="stroke:#000000;stroke-width:0.8;" x="615.175066" xlink:href="#m7dc3b4a7df" y="1264.318125"/>
      </g>
     </g>
     <g id="text_18">
      <!-- 400 -->
      <g transform="translate(605.631316 1278.916563)scale(0.1 -0.1)">
       <use xlink:href="#DejaVuSans-34"/>
       <use x="63.623047" xlink:href="#DejaVuSans-30"/>
       <use x="127.246094" xlink:href="#DejaVuSans-30"/>
      </g>
     </g>
    </g>
    <g id="xtick_11">
     <g id="line2d_17">
      <g>
       <use style="stroke:#000000;stroke-width:0.8;" x="862.82652" xlink:href="#m7dc3b4a7df" y="1264.318125"/>
      </g>
     </g>
     <g id="text_19">
      <!-- 600 -->
      <g transform="translate(853.28277 1278.916563)scale(0.1 -0.1)">
       <use xlink:href="#DejaVuSans-36"/>
       <use x="63.623047" xlink:href="#DejaVuSans-30"/>
       <use x="127.246094" xlink:href="#DejaVuSans-30"/>
      </g>
     </g>
    </g>
    <g id="xtick_12">
     <g id="line2d_18">
      <g>
       <use style="stroke:#000000;stroke-width:0.8;" x="1110.477973" xlink:href="#m7dc3b4a7df" y="1264.318125"/>
      </g>
     </g>
     <g id="text_20">
      <!-- 800 -->
      <g transform="translate(1100.934223 1278.916563)scale(0.1 -0.1)">
       <use xlink:href="#DejaVuSans-38"/>
       <use x="63.623047" xlink:href="#DejaVuSans-30"/>
       <use x="127.246094" xlink:href="#DejaVuSans-30"/>
      </g>
     </g>
    </g>
    <g id="xtick_13">
     <g id="line2d_19">
      <g>
       <use style="stroke:#000000;stroke-width:0.8;" x="1358.129427" xlink:href="#m7dc3b4a7df" y="1264.318125"/>
      </g>
     </g>
     <g id="text_21">
      <!-- 1000 -->
      <g transform="translate(1345.404427 1278.916563)scale(0.1 -0.1)">
       <use xlink:href="#DejaVuSans-31"/>
       <use x="63.623047" xlink:href="#DejaVuSans-30"/>
       <use x="127.246094" xlink:href="#DejaVuSans-30"/>
       <use x="190.869141" xlink:href="#DejaVuSans-30"/>
      </g>
     </g>
    </g>
    <g id="xtick_14">
     <g id="line2d_20">
      <g>
       <use style="stroke:#000000;stroke-width:0.8;" x="1605.78088" xlink:href="#m7dc3b4a7df" y="1264.318125"/>
      </g>
     </g>
     <g id="text_22">
      <!-- 1200 -->
      <g transform="translate(1593.05588 1278.916563)scale(0.1 -0.1)">
       <use xlink:href="#DejaVuSans-31"/>
       <use x="63.623047" xlink:href="#DejaVuSans-32"/>
       <use x="127.246094" xlink:href="#DejaVuSans-30"/>
       <use x="190.869141" xlink:href="#DejaVuSans-30"/>
      </g>
     </g>
    </g>
    <g id="text_23">
     <!-- frame -->
     <g transform="translate(865.954687 1292.594688)scale(0.1 -0.1)">
      <use xlink:href="#DejaVuSans-66"/>
      <use x="35.205078" xlink:href="#DejaVuSans-72"/>
      <use x="76.318359" xlink:href="#DejaVuSans-61"/>
      <use x="137.597656" xlink:href="#DejaVuSans-6d"/>
      <use x="235.009766" xlink:href="#DejaVuSans-65"/>
     </g>
    </g>
   </g>
   <g id="matplotlib.axis_4">
    <g id="ytick_6">
     <g id="line2d_21">
      <g>
       <use style="stroke:#000000;stroke-width:0.8;" x="43.78125" xlink:href="#m50c3374d0c" y="1238.656968"/>
      </g>
     </g>
     <g id="text_24">
      <!-- 0.0 -->
      <g transform="translate(20.878125 1242.456187)scale(0.1 -0.1)">
       <defs>
        <path d="M 684 794 
L 1344 794 
L 1344 0 
L 684 0 
L 684 794 
z
" id="DejaVuSans-2e" transform="scale(0.015625)"/>
       </defs>
       <use xlink:href="#DejaVuSans-30"/>
       <use x="63.623047" xlink:href="#DejaVuSans-2e"/>
       <use x="95.410156" xlink:href="#DejaVuSans-30"/>
      </g>
     </g>
    </g>
    <g id="ytick_7">
     <g id="line2d_22">
      <g>
       <use style="stroke:#000000;stroke-width:0.8;" x="43.78125" xlink:href="#m50c3374d0c" y="1136.01234"/>
      </g>
     </g>
     <g id="text_25">
      <!-- 0.2 -->
      <g transform="translate(20.878125 1139.811559)scale(0.1 -0.1)">
       <use xlink:href="#DejaVuSans-30"/>
       <use x="63.623047" xlink:href="#DejaVuSans-2e"/>
       <use x="95.410156" xlink:href="#DejaVuSans-32"/>
      </g>
     </g>
    </g>
    <g id="ytick_8">
     <g id="line2d_23">
      <g>
       <use style="stroke:#000000;stroke-width:0.8;" x="43.78125" xlink:href="#m50c3374d0c" y="1033.367712"/>
      </g>
     </g>
     <g id="text_26">
      <!-- 0.4 -->
      <g transform="translate(20.878125 1037.166931)scale(0.1 -0.1)">
       <use xlink:href="#DejaVuSans-30"/>
       <use x="63.623047" xlink:href="#DejaVuSans-2e"/>
       <use x="95.410156" xlink:href="#DejaVuSans-34"/>
      </g>
     </g>
    </g>
    <g id="ytick_9">
     <g id="line2d_24">
      <g>
       <use style="stroke:#000000;stroke-width:0.8;" x="43.78125" xlink:href="#m50c3374d0c" y="930.723084"/>
      </g>
     </g>
     <g id="text_27">
      <!-- 0.6 -->
      <g transform="translate(20.878125 934.522302)scale(0.1 -0.1)">
       <use xlink:href="#DejaVuSans-30"/>
       <use x="63.623047" xlink:href="#DejaVuSans-2e"/>
       <use x="95.410156" xlink:href="#DejaVuSans-36"/>
      </g>
     </g>
    </g>
    <g id="ytick_10">
     <g id="line2d_25">
      <g>
       <use style="stroke:#000000;stroke-width:0.8;" x="43.78125" xlink:href="#m50c3374d0c" y="828.078456"/>
      </g>
     </g>
     <g id="text_28">
      <!-- 0.8 -->
      <g transform="translate(20.878125 831.877674)scale(0.1 -0.1)">
       <use xlink:href="#DejaVuSans-30"/>
       <use x="63.623047" xlink:href="#DejaVuSans-2e"/>
       <use x="95.410156" xlink:href="#DejaVuSans-38"/>
      </g>
     </g>
    </g>
    <g id="ytick_11">
     <g id="line2d_26">
      <g>
       <use style="stroke:#000000;stroke-width:0.8;" x="43.78125" xlink:href="#m50c3374d0c" y="725.433827"/>
      </g>
     </g>
     <g id="text_29">
      <!-- 1.0 -->
      <g transform="translate(20.878125 729.233046)scale(0.1 -0.1)">
       <use xlink:href="#DejaVuSans-31"/>
       <use x="63.623047" xlink:href="#DejaVuSans-2e"/>
       <use x="95.410156" xlink:href="#DejaVuSans-30"/>
      </g>
     </g>
    </g>
    <g id="text_30">
     <!-- GCaMP -->
     <g transform="translate(14.798437 999.803991)rotate(-90)scale(0.1 -0.1)">
      <use xlink:href="#DejaVuSans-47"/>
      <use x="77.490234" xlink:href="#DejaVuSans-43"/>
      <use x="147.314453" xlink:href="#DejaVuSans-61"/>
      <use x="208.59375" xlink:href="#DejaVuSans-4d"/>
      <use x="294.873047" xlink:href="#DejaVuSans-50"/>
     </g>
    </g>
   </g>
   <g id="line2d_27">
    <path clip-path="url(#p10aeab94de)" d="M 119.872159 725.433827 
L 191.691081 725.433827 
L 192.929338 1238.656968 
L 1164.961293 1238.656968 
L 1166.19955 725.433827 
L 1178.582123 725.433827 
L 1179.82038 1238.656968 
L 1194.679467 1238.656968 
L 1195.917725 725.433827 
L 1213.253326 725.433827 
L 1214.491584 1238.656968 
L 1221.921127 1238.656968 
L 1223.159384 725.433827 
L 1245.448015 725.433827 
L 1246.686273 1238.656968 
L 1286.310505 1238.656968 
L 1287.548762 725.433827 
L 1288.78702 725.433827 
L 1290.025277 1238.656968 
L 1314.790422 1238.656968 
L 1316.02868 725.433827 
L 1333.364281 725.433827 
L 1334.602539 1238.656968 
L 1370.511999 1238.656968 
L 1371.750257 725.433827 
L 1475.763867 725.433827 
L 1477.002124 1238.656968 
L 1505.482041 1238.656968 
L 1506.720299 725.433827 
L 1509.196813 725.433827 
L 1510.435071 1238.656968 
L 1522.817643 1238.656968 
L 1524.0559 725.433827 
L 1525.294158 1238.656968 
L 1543.868017 1238.656968 
L 1545.106274 725.433827 
L 1547.582789 725.433827 
L 1548.821046 1238.656968 
L 1641.690341 1238.656968 
L 1641.690341 1238.656968 
" style="fill:none;stroke:#008000;stroke-linecap:square;stroke-width:1.5;"/>
   </g>
   <g id="patch_8">
    <path d="M 43.78125 1264.318125 
L 43.78125 699.77267 
" style="fill:none;stroke:#000000;stroke-linecap:square;stroke-linejoin:miter;stroke-width:0.8;"/>
   </g>
   <g id="patch_9">
    <path d="M 1717.78125 1264.318125 
L 1717.78125 699.77267 
" style="fill:none;stroke:#000000;stroke-linecap:square;stroke-linejoin:miter;stroke-width:0.8;"/>
   </g>
   <g id="patch_10">
    <path d="M 43.78125 1264.318125 
L 1717.78125 1264.318125 
" style="fill:none;stroke:#000000;stroke-linecap:square;stroke-linejoin:miter;stroke-width:0.8;"/>
   </g>
   <g id="patch_11">
    <path d="M 43.78125 699.77267 
L 1717.78125 699.77267 
" style="fill:none;stroke:#000000;stroke-linecap:square;stroke-linejoin:miter;stroke-width:0.8;"/>
   </g>
   <g id="text_31">
    <!-- before binarisation -->
    <g transform="translate(824.1825 693.77267)scale(0.12 -0.12)">
     <use xlink:href="#DejaVuSans-62"/>
     <use x="63.476562" xlink:href="#DejaVuSans-65"/>
     <use x="125" xlink:href="#DejaVuSans-66"/>
     <use x="160.205078" xlink:href="#DejaVuSans-6f"/>
     <use x="221.386719" xlink:href="#DejaVuSans-72"/>
     <use x="260.25" xlink:href="#DejaVuSans-65"/>
     <use x="321.773438" xlink:href="#DejaVuSans-20"/>
     <use x="353.560547" xlink:href="#DejaVuSans-62"/>
     <use x="417.037109" xlink:href="#DejaVuSans-69"/>
     <use x="444.820312" xlink:href="#DejaVuSans-6e"/>
     <use x="508.199219" xlink:href="#DejaVuSans-61"/>
     <use x="569.478516" xlink:href="#DejaVuSans-72"/>
     <use x="610.591797" xlink:href="#DejaVuSans-69"/>
     <use x="638.375" xlink:href="#DejaVuSans-73"/>
     <use x="690.474609" xlink:href="#DejaVuSans-61"/>
     <use x="751.753906" xlink:href="#DejaVuSans-74"/>
     <use x="790.962891" xlink:href="#DejaVuSans-69"/>
     <use x="818.746094" xlink:href="#DejaVuSans-6f"/>
     <use x="879.927734" xlink:href="#DejaVuSans-6e"/>
    </g>
   </g>
  </g>
 </g>
 <defs>
  <clipPath id="p2237eb39b6">
   <rect height="564.545455" width="1674" x="43.78125" y="22.318125"/>
  </clipPath>
  <clipPath id="p10aeab94de">
   <rect height="564.545455" width="1674" x="43.78125" y="699.77267"/>
  </clipPath>
 </defs>
</svg>
