<?xml version="1.0" encoding="utf-8" standalone="no"?>
<!DOCTYPE svg PUBLIC "-//W3C//DTD SVG 1.1//EN"
  "http://www.w3.org/Graphics/SVG/1.1/DTD/svg11.dtd">
<svg height="1301.874375pt" version="1.1" viewBox="0 0 1731.34375 1301.874375" width="1731.34375pt" xmlns="http://www.w3.org/2000/svg" xmlns:xlink="http://www.w3.org/1999/xlink">
 <metadata>
  <rdf:RDF xmlns:cc="http://creativecommons.org/ns#" xmlns:dc="http://purl.org/dc/elements/1.1/" xmlns:rdf="http://www.w3.org/1999/02/22-rdf-syntax-ns#">
   <cc:Work>
    <dc:type rdf:resource="http://purl.org/dc/dcmitype/StillImage"/>
    <dc:date>2022-07-24T15:54:47.981745</dc:date>
    <dc:format>image/svg+xml</dc:format>
    <dc:creator>
     <cc:Agent>
      <dc:title>Matplotlib v3.4.2, https://matplotlib.org/</dc:title>
     </cc:Agent>
    </dc:creator>
   </cc:Work>
  </rdf:RDF>
 </metadata>
 <defs>
  <style type="text/css">*{stroke-linecap:butt;stroke-linejoin:round;}</style>
 </defs>
 <g id="figure_1">
  <g id="patch_1">
   <path d="M 0 1301.874375 
L 1731.34375 1301.874375 
L 1731.34375 0 
L 0 0 
z
" style="fill:#ffffff;"/>
  </g>
  <g id="axes_1">
   <g id="patch_2">
    <path d="M 50.14375 586.86358 
L 1724.14375 586.86358 
L 1724.14375 22.318125 
L 50.14375 22.318125 
z
" style="fill:#ffffff;"/>
   </g>
   <g id="matplotlib.axis_1">
    <g id="xtick_1">
     <g id="line2d_1">
      <defs>
       <path d="M 0 0 
L 0 3.5 
" id="md9f1eca4da" style="stroke:#000000;stroke-width:0.8;"/>
      </defs>
      <g>
       <use style="stroke:#000000;stroke-width:0.8;" x="126.234659" xlink:href="#md9f1eca4da" y="586.86358"/>
      </g>
     </g>
     <g id="text_1">
      <!-- 0 -->
      <g transform="translate(123.053409 601.462017)scale(0.1 -0.1)">
       <defs>
        <path d="M 2034 4250 
Q 1547 4250 1301 3770 
Q 1056 3291 1056 2328 
Q 1056 1369 1301 889 
Q 1547 409 2034 409 
Q 2525 409 2770 889 
Q 3016 1369 3016 2328 
Q 3016 3291 2770 3770 
Q 2525 4250 2034 4250 
z
M 2034 4750 
Q 2819 4750 3233 4129 
Q 3647 3509 3647 2328 
Q 3647 1150 3233 529 
Q 2819 -91 2034 -91 
Q 1250 -91 836 529 
Q 422 1150 422 2328 
Q 422 3509 836 4129 
Q 1250 4750 2034 4750 
z
" id="DejaVuSans-30" transform="scale(0.015625)"/>
       </defs>
       <use xlink:href="#DejaVuSans-30"/>
      </g>
     </g>
    </g>
    <g id="xtick_2">
     <g id="line2d_2">
      <g>
       <use style="stroke:#000000;stroke-width:0.8;" x="373.886113" xlink:href="#md9f1eca4da" y="586.86358"/>
      </g>
     </g>
     <g id="text_2">
      <!-- 200 -->
      <g transform="translate(364.342363 601.462017)scale(0.1 -0.1)">
       <defs>
        <path d="M 1228 531 
L 3431 531 
L 3431 0 
L 469 0 
L 469 531 
Q 828 903 1448 1529 
Q 2069 2156 2228 2338 
Q 2531 2678 2651 2914 
Q 2772 3150 2772 3378 
Q 2772 3750 2511 3984 
Q 2250 4219 1831 4219 
Q 1534 4219 1204 4116 
Q 875 4013 500 3803 
L 500 4441 
Q 881 4594 1212 4672 
Q 1544 4750 1819 4750 
Q 2544 4750 2975 4387 
Q 3406 4025 3406 3419 
Q 3406 3131 3298 2873 
Q 3191 2616 2906 2266 
Q 2828 2175 2409 1742 
Q 1991 1309 1228 531 
z
" id="DejaVuSans-32" transform="scale(0.015625)"/>
       </defs>
       <use xlink:href="#DejaVuSans-32"/>
       <use x="63.623047" xlink:href="#DejaVuSans-30"/>
       <use x="127.246094" xlink:href="#DejaVuSans-30"/>
      </g>
     </g>
    </g>
    <g id="xtick_3">
     <g id="line2d_3">
      <g>
       <use style="stroke:#000000;stroke-width:0.8;" x="621.537566" xlink:href="#md9f1eca4da" y="586.86358"/>
      </g>
     </g>
     <g id="text_3">
      <!-- 400 -->
      <g transform="translate(611.993816 601.462017)scale(0.1 -0.1)">
       <defs>
        <path d="M 2419 4116 
L 825 1625 
L 2419 1625 
L 2419 4116 
z
M 2253 4666 
L 3047 4666 
L 3047 1625 
L 3713 1625 
L 3713 1100 
L 3047 1100 
L 3047 0 
L 2419 0 
L 2419 1100 
L 313 1100 
L 313 1709 
L 2253 4666 
z
" id="DejaVuSans-34" transform="scale(0.015625)"/>
       </defs>
       <use xlink:href="#DejaVuSans-34"/>
       <use x="63.623047" xlink:href="#DejaVuSans-30"/>
       <use x="127.246094" xlink:href="#DejaVuSans-30"/>
      </g>
     </g>
    </g>
    <g id="xtick_4">
     <g id="line2d_4">
      <g>
       <use style="stroke:#000000;stroke-width:0.8;" x="869.18902" xlink:href="#md9f1eca4da" y="586.86358"/>
      </g>
     </g>
     <g id="text_4">
      <!-- 600 -->
      <g transform="translate(859.64527 601.462017)scale(0.1 -0.1)">
       <defs>
        <path d="M 2113 2584 
Q 1688 2584 1439 2293 
Q 1191 2003 1191 1497 
Q 1191 994 1439 701 
Q 1688 409 2113 409 
Q 2538 409 2786 701 
Q 3034 994 3034 1497 
Q 3034 2003 2786 2293 
Q 2538 2584 2113 2584 
z
M 3366 4563 
L 3366 3988 
Q 3128 4100 2886 4159 
Q 2644 4219 2406 4219 
Q 1781 4219 1451 3797 
Q 1122 3375 1075 2522 
Q 1259 2794 1537 2939 
Q 1816 3084 2150 3084 
Q 2853 3084 3261 2657 
Q 3669 2231 3669 1497 
Q 3669 778 3244 343 
Q 2819 -91 2113 -91 
Q 1303 -91 875 529 
Q 447 1150 447 2328 
Q 447 3434 972 4092 
Q 1497 4750 2381 4750 
Q 2619 4750 2861 4703 
Q 3103 4656 3366 4563 
z
" id="DejaVuSans-36" transform="scale(0.015625)"/>
       </defs>
       <use xlink:href="#DejaVuSans-36"/>
       <use x="63.623047" xlink:href="#DejaVuSans-30"/>
       <use x="127.246094" xlink:href="#DejaVuSans-30"/>
      </g>
     </g>
    </g>
    <g id="xtick_5">
     <g id="line2d_5">
      <g>
       <use style="stroke:#000000;stroke-width:0.8;" x="1116.840473" xlink:href="#md9f1eca4da" y="586.86358"/>
      </g>
     </g>
     <g id="text_5">
      <!-- 800 -->
      <g transform="translate(1107.296723 601.462017)scale(0.1 -0.1)">
       <defs>
        <path d="M 2034 2216 
Q 1584 2216 1326 1975 
Q 1069 1734 1069 1313 
Q 1069 891 1326 650 
Q 1584 409 2034 409 
Q 2484 409 2743 651 
Q 3003 894 3003 1313 
Q 3003 1734 2745 1975 
Q 2488 2216 2034 2216 
z
M 1403 2484 
Q 997 2584 770 2862 
Q 544 3141 544 3541 
Q 544 4100 942 4425 
Q 1341 4750 2034 4750 
Q 2731 4750 3128 4425 
Q 3525 4100 3525 3541 
Q 3525 3141 3298 2862 
Q 3072 2584 2669 2484 
Q 3125 2378 3379 2068 
Q 3634 1759 3634 1313 
Q 3634 634 3220 271 
Q 2806 -91 2034 -91 
Q 1263 -91 848 271 
Q 434 634 434 1313 
Q 434 1759 690 2068 
Q 947 2378 1403 2484 
z
M 1172 3481 
Q 1172 3119 1398 2916 
Q 1625 2713 2034 2713 
Q 2441 2713 2670 2916 
Q 2900 3119 2900 3481 
Q 2900 3844 2670 4047 
Q 2441 4250 2034 4250 
Q 1625 4250 1398 4047 
Q 1172 3844 1172 3481 
z
" id="DejaVuSans-38" transform="scale(0.015625)"/>
       </defs>
       <use xlink:href="#DejaVuSans-38"/>
       <use x="63.623047" xlink:href="#DejaVuSans-30"/>
       <use x="127.246094" xlink:href="#DejaVuSans-30"/>
      </g>
     </g>
    </g>
    <g id="xtick_6">
     <g id="line2d_6">
      <g>
       <use style="stroke:#000000;stroke-width:0.8;" x="1364.491927" xlink:href="#md9f1eca4da" y="586.86358"/>
      </g>
     </g>
     <g id="text_6">
      <!-- 1000 -->
      <g transform="translate(1351.766927 601.462017)scale(0.1 -0.1)">
       <defs>
        <path d="M 794 531 
L 1825 531 
L 1825 4091 
L 703 3866 
L 703 4441 
L 1819 4666 
L 2450 4666 
L 2450 531 
L 3481 531 
L 3481 0 
L 794 0 
L 794 531 
z
" id="DejaVuSans-31" transform="scale(0.015625)"/>
       </defs>
       <use xlink:href="#DejaVuSans-31"/>
       <use x="63.623047" xlink:href="#DejaVuSans-30"/>
       <use x="127.246094" xlink:href="#DejaVuSans-30"/>
       <use x="190.869141" xlink:href="#DejaVuSans-30"/>
      </g>
     </g>
    </g>
    <g id="xtick_7">
     <g id="line2d_7">
      <g>
       <use style="stroke:#000000;stroke-width:0.8;" x="1612.14338" xlink:href="#md9f1eca4da" y="586.86358"/>
      </g>
     </g>
     <g id="text_7">
      <!-- 1200 -->
      <g transform="translate(1599.41838 601.462017)scale(0.1 -0.1)">
       <use xlink:href="#DejaVuSans-31"/>
       <use x="63.623047" xlink:href="#DejaVuSans-32"/>
       <use x="127.246094" xlink:href="#DejaVuSans-30"/>
       <use x="190.869141" xlink:href="#DejaVuSans-30"/>
      </g>
     </g>
    </g>
    <g id="text_8">
     <!-- frame -->
     <g transform="translate(872.317187 615.140142)scale(0.1 -0.1)">
      <defs>
       <path d="M 2375 4863 
L 2375 4384 
L 1825 4384 
Q 1516 4384 1395 4259 
Q 1275 4134 1275 3809 
L 1275 3500 
L 2222 3500 
L 2222 3053 
L 1275 3053 
L 1275 0 
L 697 0 
L 697 3053 
L 147 3053 
L 147 3500 
L 697 3500 
L 697 3744 
Q 697 4328 969 4595 
Q 1241 4863 1831 4863 
L 2375 4863 
z
" id="DejaVuSans-66" transform="scale(0.015625)"/>
       <path d="M 2631 2963 
Q 2534 3019 2420 3045 
Q 2306 3072 2169 3072 
Q 1681 3072 1420 2755 
Q 1159 2438 1159 1844 
L 1159 0 
L 581 0 
L 581 3500 
L 1159 3500 
L 1159 2956 
Q 1341 3275 1631 3429 
Q 1922 3584 2338 3584 
Q 2397 3584 2469 3576 
Q 2541 3569 2628 3553 
L 2631 2963 
z
" id="DejaVuSans-72" transform="scale(0.015625)"/>
       <path d="M 2194 1759 
Q 1497 1759 1228 1600 
Q 959 1441 959 1056 
Q 959 750 1161 570 
Q 1363 391 1709 391 
Q 2188 391 2477 730 
Q 2766 1069 2766 1631 
L 2766 1759 
L 2194 1759 
z
M 3341 1997 
L 3341 0 
L 2766 0 
L 2766 531 
Q 2569 213 2275 61 
Q 1981 -91 1556 -91 
Q 1019 -91 701 211 
Q 384 513 384 1019 
Q 384 1609 779 1909 
Q 1175 2209 1959 2209 
L 2766 2209 
L 2766 2266 
Q 2766 2663 2505 2880 
Q 2244 3097 1772 3097 
Q 1472 3097 1187 3025 
Q 903 2953 641 2809 
L 641 3341 
Q 956 3463 1253 3523 
Q 1550 3584 1831 3584 
Q 2591 3584 2966 3190 
Q 3341 2797 3341 1997 
z
" id="DejaVuSans-61" transform="scale(0.015625)"/>
       <path d="M 3328 2828 
Q 3544 3216 3844 3400 
Q 4144 3584 4550 3584 
Q 5097 3584 5394 3201 
Q 5691 2819 5691 2113 
L 5691 0 
L 5113 0 
L 5113 2094 
Q 5113 2597 4934 2840 
Q 4756 3084 4391 3084 
Q 3944 3084 3684 2787 
Q 3425 2491 3425 1978 
L 3425 0 
L 2847 0 
L 2847 2094 
Q 2847 2600 2669 2842 
Q 2491 3084 2119 3084 
Q 1678 3084 1418 2786 
Q 1159 2488 1159 1978 
L 1159 0 
L 581 0 
L 581 3500 
L 1159 3500 
L 1159 2956 
Q 1356 3278 1631 3431 
Q 1906 3584 2284 3584 
Q 2666 3584 2933 3390 
Q 3200 3197 3328 2828 
z
" id="DejaVuSans-6d" transform="scale(0.015625)"/>
       <path d="M 3597 1894 
L 3597 1613 
L 953 1613 
Q 991 1019 1311 708 
Q 1631 397 2203 397 
Q 2534 397 2845 478 
Q 3156 559 3463 722 
L 3463 178 
Q 3153 47 2828 -22 
Q 2503 -91 2169 -91 
Q 1331 -91 842 396 
Q 353 884 353 1716 
Q 353 2575 817 3079 
Q 1281 3584 2069 3584 
Q 2775 3584 3186 3129 
Q 3597 2675 3597 1894 
z
M 3022 2063 
Q 3016 2534 2758 2815 
Q 2500 3097 2075 3097 
Q 1594 3097 1305 2825 
Q 1016 2553 972 2059 
L 3022 2063 
z
" id="DejaVuSans-65" transform="scale(0.015625)"/>
      </defs>
      <use xlink:href="#DejaVuSans-66"/>
      <use x="35.205078" xlink:href="#DejaVuSans-72"/>
      <use x="76.318359" xlink:href="#DejaVuSans-61"/>
      <use x="137.597656" xlink:href="#DejaVuSans-6d"/>
      <use x="235.009766" xlink:href="#DejaVuSans-65"/>
     </g>
    </g>
   </g>
   <g id="matplotlib.axis_2">
    <g id="ytick_1">
     <g id="line2d_8">
      <defs>
       <path d="M 0 0 
L -3.5 0 
" id="m6b523f3c3c" style="stroke:#000000;stroke-width:0.8;"/>
      </defs>
      <g>
       <use style="stroke:#000000;stroke-width:0.8;" x="50.14375" xlink:href="#m6b523f3c3c" y="520.55351"/>
      </g>
     </g>
     <g id="text_9">
      <!-- 0.50 -->
      <g transform="translate(20.878125 524.352728)scale(0.1 -0.1)">
       <defs>
        <path d="M 684 794 
L 1344 794 
L 1344 0 
L 684 0 
L 684 794 
z
" id="DejaVuSans-2e" transform="scale(0.015625)"/>
        <path d="M 691 4666 
L 3169 4666 
L 3169 4134 
L 1269 4134 
L 1269 2991 
Q 1406 3038 1543 3061 
Q 1681 3084 1819 3084 
Q 2600 3084 3056 2656 
Q 3513 2228 3513 1497 
Q 3513 744 3044 326 
Q 2575 -91 1722 -91 
Q 1428 -91 1123 -41 
Q 819 9 494 109 
L 494 744 
Q 775 591 1075 516 
Q 1375 441 1709 441 
Q 2250 441 2565 725 
Q 2881 1009 2881 1497 
Q 2881 1984 2565 2268 
Q 2250 2553 1709 2553 
Q 1456 2553 1204 2497 
Q 953 2441 691 2322 
L 691 4666 
z
" id="DejaVuSans-35" transform="scale(0.015625)"/>
       </defs>
       <use xlink:href="#DejaVuSans-30"/>
       <use x="63.623047" xlink:href="#DejaVuSans-2e"/>
       <use x="95.410156" xlink:href="#DejaVuSans-35"/>
       <use x="159.033203" xlink:href="#DejaVuSans-30"/>
      </g>
     </g>
    </g>
    <g id="ytick_2">
     <g id="line2d_9">
      <g>
       <use style="stroke:#000000;stroke-width:0.8;" x="50.14375" xlink:href="#m6b523f3c3c" y="444.991698"/>
      </g>
     </g>
     <g id="text_10">
      <!-- 0.75 -->
      <g transform="translate(20.878125 448.790917)scale(0.1 -0.1)">
       <defs>
        <path d="M 525 4666 
L 3525 4666 
L 3525 4397 
L 1831 0 
L 1172 0 
L 2766 4134 
L 525 4134 
L 525 4666 
z
" id="DejaVuSans-37" transform="scale(0.015625)"/>
       </defs>
       <use xlink:href="#DejaVuSans-30"/>
       <use x="63.623047" xlink:href="#DejaVuSans-2e"/>
       <use x="95.410156" xlink:href="#DejaVuSans-37"/>
       <use x="159.033203" xlink:href="#DejaVuSans-35"/>
      </g>
     </g>
    </g>
    <g id="ytick_3">
     <g id="line2d_10">
      <g>
       <use style="stroke:#000000;stroke-width:0.8;" x="50.14375" xlink:href="#m6b523f3c3c" y="369.429887"/>
      </g>
     </g>
     <g id="text_11">
      <!-- 1.00 -->
      <g transform="translate(20.878125 373.229106)scale(0.1 -0.1)">
       <use xlink:href="#DejaVuSans-31"/>
       <use x="63.623047" xlink:href="#DejaVuSans-2e"/>
       <use x="95.410156" xlink:href="#DejaVuSans-30"/>
       <use x="159.033203" xlink:href="#DejaVuSans-30"/>
      </g>
     </g>
    </g>
    <g id="ytick_4">
     <g id="line2d_11">
      <g>
       <use style="stroke:#000000;stroke-width:0.8;" x="50.14375" xlink:href="#m6b523f3c3c" y="293.868076"/>
      </g>
     </g>
     <g id="text_12">
      <!-- 1.25 -->
      <g transform="translate(20.878125 297.667294)scale(0.1 -0.1)">
       <use xlink:href="#DejaVuSans-31"/>
       <use x="63.623047" xlink:href="#DejaVuSans-2e"/>
       <use x="95.410156" xlink:href="#DejaVuSans-32"/>
       <use x="159.033203" xlink:href="#DejaVuSans-35"/>
      </g>
     </g>
    </g>
    <g id="ytick_5">
     <g id="line2d_12">
      <g>
       <use style="stroke:#000000;stroke-width:0.8;" x="50.14375" xlink:href="#m6b523f3c3c" y="218.306264"/>
      </g>
     </g>
     <g id="text_13">
      <!-- 1.50 -->
      <g transform="translate(20.878125 222.105483)scale(0.1 -0.1)">
       <use xlink:href="#DejaVuSans-31"/>
       <use x="63.623047" xlink:href="#DejaVuSans-2e"/>
       <use x="95.410156" xlink:href="#DejaVuSans-35"/>
       <use x="159.033203" xlink:href="#DejaVuSans-30"/>
      </g>
     </g>
    </g>
    <g id="ytick_6">
     <g id="line2d_13">
      <g>
       <use style="stroke:#000000;stroke-width:0.8;" x="50.14375" xlink:href="#m6b523f3c3c" y="142.744453"/>
      </g>
     </g>
     <g id="text_14">
      <!-- 1.75 -->
      <g transform="translate(20.878125 146.543672)scale(0.1 -0.1)">
       <use xlink:href="#DejaVuSans-31"/>
       <use x="63.623047" xlink:href="#DejaVuSans-2e"/>
       <use x="95.410156" xlink:href="#DejaVuSans-37"/>
       <use x="159.033203" xlink:href="#DejaVuSans-35"/>
      </g>
     </g>
    </g>
    <g id="ytick_7">
     <g id="line2d_14">
      <g>
       <use style="stroke:#000000;stroke-width:0.8;" x="50.14375" xlink:href="#m6b523f3c3c" y="67.182642"/>
      </g>
     </g>
     <g id="text_15">
      <!-- 2.00 -->
      <g transform="translate(20.878125 70.98186)scale(0.1 -0.1)">
       <use xlink:href="#DejaVuSans-32"/>
       <use x="63.623047" xlink:href="#DejaVuSans-2e"/>
       <use x="95.410156" xlink:href="#DejaVuSans-30"/>
       <use x="159.033203" xlink:href="#DejaVuSans-30"/>
      </g>
     </g>
    </g>
    <g id="text_16">
     <!-- GCaMP -->
     <g transform="translate(14.798438 322.349446)rotate(-90)scale(0.1 -0.1)">
      <defs>
       <path d="M 3809 666 
L 3809 1919 
L 2778 1919 
L 2778 2438 
L 4434 2438 
L 4434 434 
Q 4069 175 3628 42 
Q 3188 -91 2688 -91 
Q 1594 -91 976 548 
Q 359 1188 359 2328 
Q 359 3472 976 4111 
Q 1594 4750 2688 4750 
Q 3144 4750 3555 4637 
Q 3966 4525 4313 4306 
L 4313 3634 
Q 3963 3931 3569 4081 
Q 3175 4231 2741 4231 
Q 1884 4231 1454 3753 
Q 1025 3275 1025 2328 
Q 1025 1384 1454 906 
Q 1884 428 2741 428 
Q 3075 428 3337 486 
Q 3600 544 3809 666 
z
" id="DejaVuSans-47" transform="scale(0.015625)"/>
       <path d="M 4122 4306 
L 4122 3641 
Q 3803 3938 3442 4084 
Q 3081 4231 2675 4231 
Q 1875 4231 1450 3742 
Q 1025 3253 1025 2328 
Q 1025 1406 1450 917 
Q 1875 428 2675 428 
Q 3081 428 3442 575 
Q 3803 722 4122 1019 
L 4122 359 
Q 3791 134 3420 21 
Q 3050 -91 2638 -91 
Q 1578 -91 968 557 
Q 359 1206 359 2328 
Q 359 3453 968 4101 
Q 1578 4750 2638 4750 
Q 3056 4750 3426 4639 
Q 3797 4528 4122 4306 
z
" id="DejaVuSans-43" transform="scale(0.015625)"/>
       <path d="M 628 4666 
L 1569 4666 
L 2759 1491 
L 3956 4666 
L 4897 4666 
L 4897 0 
L 4281 0 
L 4281 4097 
L 3078 897 
L 2444 897 
L 1241 4097 
L 1241 0 
L 628 0 
L 628 4666 
z
" id="DejaVuSans-4d" transform="scale(0.015625)"/>
       <path d="M 1259 4147 
L 1259 2394 
L 2053 2394 
Q 2494 2394 2734 2622 
Q 2975 2850 2975 3272 
Q 2975 3691 2734 3919 
Q 2494 4147 2053 4147 
L 1259 4147 
z
M 628 4666 
L 2053 4666 
Q 2838 4666 3239 4311 
Q 3641 3956 3641 3272 
Q 3641 2581 3239 2228 
Q 2838 1875 2053 1875 
L 1259 1875 
L 1259 0 
L 628 0 
L 628 4666 
z
" id="DejaVuSans-50" transform="scale(0.015625)"/>
      </defs>
      <use xlink:href="#DejaVuSans-47"/>
      <use x="77.490234" xlink:href="#DejaVuSans-43"/>
      <use x="147.314453" xlink:href="#DejaVuSans-61"/>
      <use x="208.59375" xlink:href="#DejaVuSans-4d"/>
      <use x="294.873047" xlink:href="#DejaVuSans-50"/>
     </g>
    </g>
   </g>
   <g id="line2d_15">
    <path clip-path="url(#p99058fadbf)" d="M 126.234659 561.202423 
L 127.472916 557.39011 
L 128.711174 554.245008 
L 134.90246 542.252386 
L 136.140717 541.298452 
L 137.378974 541.718602 
L 139.855489 543.92068 
L 141.093746 544.117489 
L 142.332004 543.050944 
L 143.570261 540.801636 
L 146.046775 534.623235 
L 147.285033 531.542189 
L 148.52329 528.787427 
L 149.761547 526.608907 
L 150.999804 525.277733 
L 153.476319 523.683721 
L 154.714576 522.208775 
L 155.952834 520.134048 
L 159.667605 513.158337 
L 160.905863 511.510039 
L 162.14412 510.482324 
L 163.382377 509.748474 
L 164.620634 508.718581 
L 165.858892 507.014279 
L 167.097149 504.718493 
L 168.335406 502.098412 
L 169.573663 499.130432 
L 170.811921 495.525291 
L 172.050178 491.122512 
L 174.526693 481.027492 
L 175.76495 476.731803 
L 177.003207 473.890696 
L 178.241464 472.566359 
L 179.479722 472.298712 
L 180.717979 472.484315 
L 181.956236 472.483104 
L 183.194493 471.703253 
L 184.432751 469.856132 
L 185.671008 467.004459 
L 189.38578 456.536656 
L 190.624037 453.835912 
L 191.862294 451.678149 
L 196.815323 444.13223 
L 200.530095 438.13866 
L 204.244867 431.710645 
L 206.721381 426.213773 
L 207.959639 424.368048 
L 209.197896 424.106512 
L 210.436153 425.185372 
L 211.674411 426.903166 
L 212.912668 428.410364 
L 214.150925 428.895064 
L 215.389182 427.974533 
L 216.62744 425.638888 
L 217.865697 421.827223 
L 219.103954 416.417565 
L 220.342211 409.548899 
L 221.580469 402.002504 
L 222.818726 395.159606 
L 224.056983 389.915335 
L 226.533498 381.687328 
L 229.010012 372.215966 
L 230.24827 367.361252 
L 231.486527 363.166309 
L 232.724784 360.188625 
L 237.677813 351.926588 
L 238.91607 350.270521 
L 240.154328 348.424415 
L 241.392585 345.986931 
L 242.630842 343.278392 
L 243.8691 340.877034 
L 245.107357 338.754689 
L 246.345614 336.294799 
L 247.583871 333.128847 
L 251.298643 321.823454 
L 252.5369 317.641101 
L 253.775158 312.506207 
L 256.251672 299.571191 
L 257.489929 293.207623 
L 258.728187 287.543965 
L 259.966444 282.699307 
L 261.204701 278.733035 
L 263.681216 271.81686 
L 267.395988 260.602513 
L 268.634245 258.777299 
L 269.872502 258.357527 
L 271.110759 257.706342 
L 272.349017 255.393486 
L 274.825531 248.389384 
L 276.063788 246.572906 
L 278.540303 245.504358 
L 279.77856 243.763 
L 281.016818 241.190291 
L 282.255075 238.915614 
L 287.208104 232.310192 
L 288.446361 229.889816 
L 289.684618 225.632504 
L 290.922876 219.006146 
L 293.39939 202.432816 
L 294.637647 195.485157 
L 295.875905 191.355767 
L 297.114162 190.964455 
L 298.352419 194.223873 
L 299.590677 199.53713 
L 300.828934 204.345477 
L 302.067191 206.90259 
L 303.305448 207.212995 
L 304.543706 206.120189 
L 307.02022 202.581589 
L 308.258477 201.55131 
L 309.496735 201.595924 
L 310.734992 202.618765 
L 313.211506 206.168948 
L 314.449764 206.951631 
L 315.688021 205.989627 
L 316.926278 203.228907 
L 318.164536 198.942476 
L 319.402793 193.529709 
L 321.879307 181.615401 
L 323.117565 176.858527 
L 324.355822 173.624386 
L 325.594079 171.35765 
L 326.832336 169.541398 
L 328.070594 168.019036 
L 329.308851 166.299239 
L 330.547108 163.551405 
L 334.26188 151.633613 
L 335.500137 149.299071 
L 336.738395 147.767567 
L 337.976652 146.451675 
L 339.214909 144.501635 
L 340.453166 141.698003 
L 341.691424 139.27152 
L 342.929681 138.279777 
L 344.167938 137.877919 
L 345.406195 136.612451 
L 346.644453 134.663609 
L 347.88271 133.635212 
L 349.120967 134.170681 
L 350.359225 134.92059 
L 351.597482 134.248963 
L 352.835739 131.771314 
L 354.073996 127.931471 
L 355.312254 123.12456 
L 356.550511 117.592064 
L 357.788768 111.443122 
L 360.265283 97.914452 
L 361.50354 92.633752 
L 362.741797 90.828561 
L 363.980054 93.758323 
L 365.218312 100.984878 
L 367.694826 119.885911 
L 368.933084 126.41576 
L 370.171341 128.064189 
L 371.409598 124.245473 
L 372.647855 116.184663 
L 373.886113 106.391626 
L 375.12437 98.098664 
L 376.362627 94.150805 
L 377.600884 95.409524 
L 378.839142 100.36389 
L 380.077399 106.092025 
L 381.315656 109.722999 
L 382.553913 110.163125 
L 385.030428 107.530558 
L 386.268685 106.489094 
L 387.506943 103.956775 
L 389.983457 94.545587 
L 391.221714 91.128074 
L 392.459972 89.363964 
L 394.936486 87.665621 
L 396.174743 85.370092 
L 398.651258 77.766673 
L 399.889515 75.607665 
L 401.127772 75.452627 
L 402.36603 76.91162 
L 404.842544 81.016994 
L 406.080802 83.486603 
L 408.557316 90.682624 
L 409.795573 93.426236 
L 411.033831 94.613111 
L 412.272088 94.31253 
L 413.510345 93.005672 
L 414.748602 91.523964 
L 415.98686 90.454093 
L 417.225117 89.593029 
L 418.463374 88.226659 
L 419.701632 85.727955 
L 420.939889 81.525967 
L 423.416403 68.764476 
L 424.654661 64.506215 
L 425.892918 64.978405 
L 427.131175 70.444888 
L 429.60769 87.240824 
L 430.845947 93.44772 
L 432.084204 96.930612 
L 433.322461 97.67703 
L 434.560719 95.238838 
L 435.798976 89.313216 
L 439.513748 64.699387 
L 440.752005 60.705451 
L 441.990262 60.123236 
L 444.466777 62.823488 
L 445.705034 62.608934 
L 448.181549 59.207662 
L 449.419806 59.53098 
L 451.89632 64.635426 
L 453.134578 65.254643 
L 454.372835 63.476 
L 455.611092 61.085832 
L 456.84935 60.019392 
L 458.087607 61.262168 
L 459.325864 65.287348 
L 461.802379 77.332798 
L 463.040636 79.579637 
L 464.278893 77.05105 
L 465.51715 71.190163 
L 466.755408 64.388705 
L 467.993665 58.445962 
L 469.231922 54.147814 
L 470.470179 51.393399 
L 471.708437 49.727439 
L 472.946694 48.763356 
L 474.184951 48.168847 
L 475.423209 47.979282 
L 476.661466 48.871641 
L 477.899723 51.381727 
L 479.13798 54.985611 
L 480.376238 58.242352 
L 481.614495 59.834505 
L 482.852752 59.479777 
L 484.091009 57.826043 
L 485.329267 55.900265 
L 486.567524 54.587608 
L 487.805781 54.326601 
L 489.044038 55.665183 
L 490.282296 59.360712 
L 491.520553 65.216952 
L 492.75881 71.724549 
L 493.997068 77.15186 
L 495.235325 80.622698 
L 496.473582 82.194325 
L 497.711839 82.271572 
L 498.950097 81.217381 
L 500.188354 79.363501 
L 501.426611 77.289927 
L 502.664868 75.95101 
L 503.903126 76.03726 
L 505.141383 76.689851 
L 506.37964 75.585354 
L 507.617897 71.332604 
L 508.856155 65.100598 
L 510.094412 59.714765 
L 511.332669 57.348679 
L 512.570927 57.720148 
L 513.809184 59.333027 
L 515.047441 61.918828 
L 516.285698 66.07798 
L 518.762213 76.788339 
L 520.00047 80.931874 
L 521.238727 83.338937 
L 522.476985 83.690791 
L 523.715242 82.434146 
L 524.953499 80.815321 
L 526.191757 79.791704 
L 527.430014 79.488733 
L 528.668271 79.596053 
L 529.906528 79.4652 
L 531.144786 78.276791 
L 532.383043 75.876652 
L 534.859557 70.14325 
L 536.097815 68.443518 
L 537.336072 68.635326 
L 538.574329 70.952685 
L 539.812586 74.858848 
L 541.050844 79.685166 
L 542.289101 85.39822 
L 543.527358 93.198576 
L 544.765616 105.368181 
L 547.24213 141.246669 
L 548.480387 149.97433 
L 549.718645 142.564106 
L 553.433416 87.76913 
L 554.671674 77.089926 
L 555.909931 71.224762 
L 557.148188 68.684262 
L 558.386445 68.563116 
L 559.624703 71.505451 
L 560.86296 78.119242 
L 562.101217 87.990599 
L 565.815989 123.647979 
L 567.054246 132.259291 
L 568.292504 138.385403 
L 569.530761 141.538272 
L 570.769018 141.573652 
L 572.007275 139.946787 
L 573.245533 138.83792 
L 574.48379 139.416569 
L 575.722047 141.366859 
L 576.960304 144.056123 
L 578.198562 147.682335 
L 580.675076 157.075879 
L 581.913334 160.918907 
L 583.151591 163.597979 
L 584.389848 164.739856 
L 585.628105 163.96556 
L 586.866363 161.597367 
L 588.10462 158.106627 
L 589.342877 153.49977 
L 591.819392 142.607558 
L 593.057649 138.526856 
L 594.295906 136.192642 
L 595.534163 135.672519 
L 596.772421 136.63274 
L 600.487193 141.080537 
L 601.72545 143.2109 
L 602.963707 146.025646 
L 604.201964 149.493408 
L 605.440222 153.75554 
L 607.916736 163.217128 
L 609.154993 166.535497 
L 610.393251 168.623589 
L 612.869765 171.315219 
L 614.108023 172.388492 
L 615.34628 172.450553 
L 616.584537 171.037713 
L 617.822794 168.913512 
L 619.061052 167.56699 
L 620.299309 167.657358 
L 622.775823 169.189224 
L 624.014081 169.548965 
L 625.252338 169.503358 
L 626.490595 169.200846 
L 627.728852 169.589393 
L 628.96711 171.743222 
L 630.205367 175.555901 
L 632.681882 184.046448 
L 635.158396 190.949761 
L 636.396653 195.45728 
L 637.634911 201.91611 
L 638.873168 209.343047 
L 640.111425 215.34919 
L 641.349682 218.807346 
L 642.58794 221.039309 
L 643.826197 224.062558 
L 645.064454 228.603428 
L 646.302711 233.61019 
L 647.540969 236.91786 
L 648.779226 236.922007 
L 650.017483 234.02759 
L 651.255741 230.210712 
L 652.493998 227.719622 
L 653.732255 228.065625 
L 654.970512 231.220862 
L 656.20877 236.019072 
L 657.447027 241.582825 
L 658.685284 247.678355 
L 659.923541 254.397154 
L 661.161799 262.339066 
L 663.638313 281.040883 
L 664.87657 288.676124 
L 666.114828 293.682759 
L 667.353085 295.671445 
L 668.591342 295.167552 
L 669.8296 294.102277 
L 671.067857 294.542381 
L 672.306114 296.936972 
L 673.544371 300.095567 
L 674.782629 302.554608 
L 676.020886 303.336585 
L 677.259143 302.205512 
L 678.4974 300.19276 
L 679.735658 299.032082 
L 680.973915 299.546838 
L 682.212172 301.246673 
L 683.450429 303.156173 
L 684.688687 304.119255 
L 685.926944 302.758364 
L 687.165201 298.342049 
L 689.641716 284.942494 
L 690.879973 279.50779 
L 692.11823 275.592885 
L 693.356488 272.551359 
L 694.594745 270.052725 
L 695.833002 268.243999 
L 697.071259 267.442236 
L 698.309517 268.06934 
L 699.547774 270.501529 
L 700.786031 274.541984 
L 702.024289 279.054859 
L 703.262546 282.535089 
L 704.500803 284.120678 
L 705.73906 283.739242 
L 706.977318 281.679442 
L 708.215575 278.693034 
L 709.453832 276.062322 
L 710.692089 274.955767 
L 711.930347 275.760968 
L 713.168604 278.034572 
L 714.406861 280.987193 
L 715.645118 284.240362 
L 716.883376 288.069402 
L 720.598148 301.938487 
L 723.074662 311.272826 
L 724.312919 315.13585 
L 725.551177 317.194335 
L 726.789434 317.329153 
L 729.265948 315.30582 
L 730.504206 314.768251 
L 731.742463 315.149969 
L 732.98072 316.335899 
L 735.457235 319.612061 
L 737.933749 323.103686 
L 739.172007 324.110732 
L 740.410264 324.073321 
L 741.648521 322.744735 
L 746.60155 313.316237 
L 747.839807 311.423141 
L 749.078065 310.287514 
L 750.316322 310.233823 
L 751.554579 310.796173 
L 752.792836 311.043262 
L 754.031094 310.90335 
L 755.269351 311.276827 
L 756.507608 312.783352 
L 757.745866 315.522686 
L 758.984123 319.396818 
L 760.22238 323.701887 
L 761.460637 327.483642 
L 762.698895 330.55328 
L 763.937152 332.878782 
L 765.175409 333.373492 
L 766.413666 330.639659 
L 767.651924 324.747248 
L 768.890181 317.762822 
L 770.128438 312.591944 
L 771.366695 311.264396 
L 772.604953 313.954276 
L 775.081467 324.518882 
L 776.319725 328.433115 
L 777.557982 330.824408 
L 778.796239 332.961543 
L 780.034496 335.721753 
L 781.272754 339.022321 
L 782.511011 342.882768 
L 784.987525 351.595507 
L 786.225783 354.196884 
L 787.46404 354.487218 
L 788.702297 352.602581 
L 789.940554 349.170563 
L 791.178812 344.893732 
L 793.655326 335.485644 
L 794.893584 331.925888 
L 796.131841 331.341913 
L 797.370098 334.58035 
L 798.608355 340.522585 
L 799.846613 347.146737 
L 801.08487 352.569863 
L 802.323127 355.025773 
L 803.561384 353.225621 
L 804.799642 347.233113 
L 807.276156 330.972617 
L 808.514414 326.816568 
L 809.752671 327.83712 
L 810.990928 333.682972 
L 812.229185 343.234075 
L 815.943957 378.723254 
L 817.182214 386.831099 
L 818.420472 392.227238 
L 819.658729 394.916683 
L 820.896986 393.962347 
L 822.135243 388.670199 
L 824.611758 372.146061 
L 825.850015 366.501782 
L 827.088273 364.840599 
L 828.32653 367.293867 
L 829.564787 372.428131 
L 830.803044 378.06182 
L 832.041302 382.68901 
L 833.279559 385.783878 
L 834.517816 387.164831 
L 835.756073 386.315912 
L 836.994331 382.673508 
L 838.232588 377.164429 
L 839.470845 372.49931 
L 840.709102 370.936463 
L 841.94736 372.827552 
L 843.185617 377.55648 
L 845.662132 390.090892 
L 846.900389 393.655792 
L 848.138646 393.74103 
L 849.376903 390.811054 
L 851.853418 382.027789 
L 853.091675 378.622575 
L 854.329932 377.382108 
L 855.56819 379.103133 
L 858.044704 386.329079 
L 859.282961 387.877471 
L 860.521219 387.508472 
L 861.759476 386.827785 
L 862.997733 387.866094 
L 864.235991 391.678233 
L 865.474248 397.699682 
L 867.950762 410.935561 
L 869.18902 415.93948 
L 870.427277 419.14864 
L 871.665534 420.639887 
L 872.903791 420.506503 
L 874.142049 418.885929 
L 875.380306 416.222891 
L 876.618563 413.013845 
L 877.85682 409.162792 
L 879.095078 403.944626 
L 882.80985 384.179581 
L 884.048107 380.328135 
L 885.286364 379.070226 
L 886.524621 380.047807 
L 887.762879 382.321697 
L 890.239393 387.544294 
L 891.47765 389.268758 
L 892.715908 389.397366 
L 893.954165 387.945234 
L 895.192422 386.09419 
L 896.43068 385.133988 
L 897.668937 385.549257 
L 898.907194 387.173155 
L 900.145451 389.944111 
L 901.383709 394.22966 
L 902.621966 400.017433 
L 905.09848 412.180702 
L 906.336738 416.756228 
L 907.574995 419.763327 
L 910.051509 423.168939 
L 911.289767 425.352662 
L 913.766281 430.223261 
L 915.004539 431.745591 
L 916.242796 431.882677 
L 917.481053 430.195671 
L 918.71931 426.879802 
L 919.957568 422.519453 
L 922.434082 412.108093 
L 923.672339 408.243315 
L 924.910597 407.106049 
L 926.148854 408.278214 
L 927.387111 410.625464 
L 929.863626 415.921505 
L 932.34014 420.782861 
L 934.816655 426.568874 
L 936.054912 427.553134 
L 937.293169 425.484515 
L 939.769684 416.730852 
L 941.007941 414.329784 
L 942.246198 414.351649 
L 943.484456 416.653348 
L 944.722713 420.686661 
L 945.96097 425.177369 
L 947.199227 428.657878 
L 948.437485 430.188887 
L 949.675742 429.674844 
L 950.913999 428.467688 
L 952.152257 429.269721 
L 953.390514 433.977654 
L 955.867028 448.664888 
L 957.105286 451.508358 
L 958.343543 448.842064 
L 959.5818 442.226972 
L 962.058315 427.01614 
L 963.296572 421.295474 
L 964.534829 417.3431 
L 965.773086 415.100003 
L 967.011344 414.44787 
L 968.249601 415.159671 
L 970.726116 418.463949 
L 971.964373 419.388744 
L 973.20263 419.139261 
L 974.440887 418.231536 
L 975.679145 418.2542 
L 976.917402 420.987776 
L 978.155659 426.567858 
L 979.393916 433.035103 
L 980.632174 438.334955 
L 981.870431 441.893919 
L 983.108688 444.07725 
L 984.346946 445.293452 
L 985.585203 445.700226 
L 986.82346 445.180446 
L 988.061717 443.778616 
L 989.299975 442.121065 
L 991.776489 439.430857 
L 994.253004 435.862476 
L 995.491261 435.148305 
L 996.729518 436.122375 
L 997.967775 438.524245 
L 1001.682547 447.598991 
L 1002.920805 451.153595 
L 1006.635576 463.340751 
L 1007.873834 465.869919 
L 1009.112091 466.052932 
L 1010.350348 464.104754 
L 1011.588605 461.707321 
L 1012.826863 460.453235 
L 1014.06512 460.472897 
L 1015.303377 460.733693 
L 1016.541634 460.29828 
L 1017.779892 458.961068 
L 1019.018149 456.495307 
L 1020.256406 452.474018 
L 1021.494664 447.65083 
L 1022.732921 443.835304 
L 1023.971178 441.840776 
L 1025.209435 440.957524 
L 1026.447693 440.487857 
L 1027.68595 440.819764 
L 1028.924207 442.597105 
L 1030.162464 445.650651 
L 1031.400722 449.58106 
L 1033.877236 459.492776 
L 1035.115493 464.28549 
L 1036.353751 468.026418 
L 1037.592008 470.285981 
L 1038.830265 471.114414 
L 1040.068523 471.327825 
L 1041.30678 471.83543 
L 1043.783294 473.758836 
L 1045.021552 474.512966 
L 1046.259809 475.46383 
L 1047.498066 476.749255 
L 1048.736323 477.408979 
L 1049.974581 475.903977 
L 1051.212838 471.391037 
L 1053.689352 458.657692 
L 1054.92761 454.776032 
L 1057.404124 451.175793 
L 1058.642382 447.728544 
L 1059.880639 442.975406 
L 1061.118896 438.727804 
L 1062.357153 436.297049 
L 1063.595411 435.340492 
L 1066.071925 433.996898 
L 1067.310182 433.655369 
L 1068.54844 434.109758 
L 1069.786697 435.607798 
L 1072.263211 440.057987 
L 1073.501469 441.146413 
L 1074.739726 440.789442 
L 1075.977983 439.200658 
L 1078.454498 435.059574 
L 1079.692755 433.527274 
L 1080.931012 432.624642 
L 1082.16927 432.701109 
L 1083.407527 434.300748 
L 1084.645784 437.820425 
L 1085.884041 443.165295 
L 1087.122299 449.885161 
L 1089.598813 464.665208 
L 1090.837071 470.632361 
L 1092.075328 474.599824 
L 1093.313585 476.257143 
L 1094.551842 475.656763 
L 1095.7901 473.274573 
L 1097.028357 469.607422 
L 1099.504871 460.659336 
L 1100.743129 457.158582 
L 1101.981386 455.355743 
L 1103.219643 455.059781 
L 1104.4579 455.619566 
L 1105.696158 457.062898 
L 1106.934415 459.9987 
L 1108.172672 464.705216 
L 1110.649187 476.270878 
L 1111.887444 480.777531 
L 1115.602216 491.924218 
L 1116.840473 493.746742 
L 1118.07873 493.892142 
L 1119.316988 493.737342 
L 1120.555245 494.485304 
L 1121.793502 496.241849 
L 1124.270017 501.150588 
L 1125.508274 502.482833 
L 1126.746531 501.96229 
L 1127.984789 500.849852 
L 1129.223046 501.509594 
L 1130.461303 504.754462 
L 1131.69956 509.101084 
L 1132.937818 512.730445 
L 1134.176075 514.885632 
L 1135.414332 515.485175 
L 1136.652589 514.421393 
L 1137.890847 511.426407 
L 1139.129104 506.616576 
L 1140.367361 501.005987 
L 1141.605618 495.957975 
L 1142.843876 492.095018 
L 1144.082133 489.264649 
L 1145.32039 487.489767 
L 1146.558648 487.221954 
L 1147.796905 488.403748 
L 1149.035162 489.770979 
L 1150.273419 489.71824 
L 1151.511677 487.875825 
L 1153.988191 482.875689 
L 1155.226448 481.035387 
L 1156.464706 479.600366 
L 1158.94122 477.172373 
L 1160.179477 475.57014 
L 1161.417735 473.29813 
L 1163.894249 467.817316 
L 1165.132507 466.933453 
L 1166.370764 468.638701 
L 1168.847278 475.927014 
L 1170.085536 478.830067 
L 1171.323793 480.583371 
L 1172.56205 481.503699 
L 1173.800307 481.900037 
L 1175.038565 481.671796 
L 1176.276822 480.693799 
L 1178.753337 477.800765 
L 1179.991594 476.576978 
L 1181.229851 475.644716 
L 1182.468108 474.942158 
L 1183.706366 473.987142 
L 1184.944623 471.731433 
L 1186.18288 467.123178 
L 1187.421137 460.053037 
L 1188.659395 451.895951 
L 1189.897652 445.269016 
L 1191.135909 443.077811 
L 1192.374166 446.671413 
L 1194.850681 461.765562 
L 1196.088938 466.038448 
L 1197.327196 466.547594 
L 1198.565453 463.99317 
L 1199.80371 458.340631 
L 1201.041967 449.034846 
L 1202.280225 435.995973 
L 1203.518482 421.14967 
L 1204.756739 409.010423 
L 1205.994996 403.86261 
L 1207.233254 406.59745 
L 1208.471511 414.567676 
L 1209.709768 423.784463 
L 1210.948025 431.244893 
L 1212.186283 435.501628 
L 1213.42454 436.301376 
L 1214.662797 435.245714 
L 1215.901055 435.537202 
L 1217.139312 439.427383 
L 1218.377569 447.401674 
L 1219.615826 458.98005 
L 1220.854084 471.97622 
L 1222.092341 483.417766 
L 1223.330598 492.643057 
L 1224.568855 500.902075 
L 1225.807113 508.176784 
L 1227.04537 513.273686 
L 1230.760142 522.782614 
L 1233.236656 529.890299 
L 1234.474914 533.151061 
L 1235.713171 535.548537 
L 1236.951428 536.265985 
L 1238.189685 535.115224 
L 1244.380972 523.358266 
L 1245.619229 519.429153 
L 1246.857486 513.403627 
L 1248.095743 504.661569 
L 1249.334001 492.496027 
L 1251.810515 462.623741 
L 1253.048773 452.761089 
L 1254.28703 450.922934 
L 1255.525287 457.692555 
L 1256.763544 470.527177 
L 1258.001802 484.93364 
L 1259.240059 496.697739 
L 1260.478316 502.107188 
L 1261.716573 498.190752 
L 1262.954831 484.582788 
L 1266.669603 424.717654 
L 1267.90786 411.616617 
L 1269.146117 407.008382 
L 1270.384374 412.895436 
L 1271.622632 427.543235 
L 1272.860889 445.097204 
L 1274.099146 458.220248 
L 1275.337403 461.697957 
L 1276.575661 454.811465 
L 1277.813918 442.055897 
L 1279.052175 430.725323 
L 1280.290432 425.871389 
L 1281.52869 427.860556 
L 1282.766947 434.271452 
L 1286.481719 458.813245 
L 1288.958233 472.972197 
L 1290.196491 481.372394 
L 1292.673005 501.680955 
L 1293.911262 509.109069 
L 1295.14952 512.013124 
L 1296.387777 510.173934 
L 1297.626034 505.988292 
L 1298.864291 503.497561 
L 1300.102549 505.124184 
L 1302.579063 514.098283 
L 1303.817321 517.064648 
L 1306.293835 520.336231 
L 1308.77035 524.685012 
L 1310.008607 526.029218 
L 1311.246864 526.466097 
L 1312.485121 526.389938 
L 1313.723379 526.173297 
L 1314.961636 526.514713 
L 1316.199893 528.256027 
L 1317.43815 531.231334 
L 1318.676408 533.877762 
L 1319.914665 534.425582 
L 1321.152922 532.467885 
L 1323.629437 525.810443 
L 1324.867694 523.192467 
L 1326.105951 521.445389 
L 1327.344209 520.59769 
L 1328.582466 520.721843 
L 1329.820723 521.809691 
L 1331.05898 523.283018 
L 1332.297238 523.607091 
L 1333.535495 520.566911 
L 1334.773752 511.947639 
L 1336.012009 496.444588 
L 1338.488524 453.263225 
L 1339.726781 435.953198 
L 1340.965039 425.191046 
L 1342.203296 418.495054 
L 1343.441553 413.57181 
L 1344.67981 411.058763 
L 1345.918068 411.989077 
L 1347.156325 415.444067 
L 1348.394582 419.3486 
L 1349.632839 421.792431 
L 1350.871097 421.528088 
L 1352.109354 418.117705 
L 1353.347611 412.674143 
L 1354.585868 407.934236 
L 1355.824126 406.503992 
L 1357.062383 409.305588 
L 1358.30064 415.427701 
L 1359.538898 422.832345 
L 1360.777155 429.480685 
L 1362.015412 434.197355 
L 1363.253669 436.618951 
L 1364.491927 436.658864 
L 1365.730184 434.612422 
L 1366.968441 431.74166 
L 1368.206698 430.030806 
L 1369.444956 430.85707 
L 1370.683213 433.734065 
L 1373.159728 440.185398 
L 1374.397985 444.186627 
L 1375.636242 450.117584 
L 1378.112757 465.547836 
L 1379.351014 471.964888 
L 1380.589271 476.116562 
L 1381.827528 477.433804 
L 1383.065786 475.891515 
L 1384.304043 471.922645 
L 1385.5423 465.494552 
L 1386.780557 456.521054 
L 1388.018815 445.411604 
L 1389.257072 432.21791 
L 1390.495329 417.648223 
L 1391.733587 404.966942 
L 1392.971844 398.385744 
L 1394.210101 400.067563 
L 1395.448358 409.244211 
L 1397.924873 437.22399 
L 1399.16313 448.657736 
L 1400.401387 456.094628 
L 1401.639645 460.838863 
L 1402.877902 464.62287 
L 1404.116159 467.814291 
L 1405.354416 469.887766 
L 1406.592674 470.55578 
L 1407.830931 469.974396 
L 1411.545703 465.985507 
L 1412.78396 465.007139 
L 1414.022217 463.543751 
L 1415.260475 461.138337 
L 1416.498732 458.127988 
L 1417.736989 455.670043 
L 1420.213504 453.141718 
L 1421.451761 450.352253 
L 1422.690018 444.944291 
L 1425.166533 429.37404 
L 1426.40479 426.52047 
L 1427.643047 431.378651 
L 1428.881305 442.178249 
L 1430.119562 454.233528 
L 1431.357819 463.452351 
L 1432.596076 467.7672 
L 1433.834334 466.663865 
L 1435.072591 460.649967 
L 1437.549105 442.245637 
L 1438.787363 436.426419 
L 1440.02562 434.697834 
L 1441.263877 434.732803 
L 1442.502134 434.108242 
L 1443.740392 432.548697 
L 1444.978649 430.732957 
L 1446.216906 428.196156 
L 1448.693421 420.19272 
L 1449.931678 418.640034 
L 1451.169935 419.831343 
L 1452.408193 421.285011 
L 1453.64645 420.817053 
L 1454.884707 418.754414 
L 1456.122964 416.469808 
L 1457.361222 413.864089 
L 1458.599479 410.042173 
L 1459.837736 405.545652 
L 1461.075994 401.961661 
L 1462.314251 400.399777 
L 1463.552508 401.641262 
L 1464.790765 406.428303 
L 1466.029023 414.597025 
L 1468.505537 434.289198 
L 1469.743794 442.502151 
L 1470.982052 448.784841 
L 1472.220309 452.640856 
L 1473.458566 453.717167 
L 1474.696823 452.709512 
L 1475.935081 451.005842 
L 1477.173338 449.631662 
L 1478.411595 448.866676 
L 1479.649853 448.239744 
L 1480.88811 446.992597 
L 1482.126367 445.201143 
L 1483.364624 444.081915 
L 1484.602882 444.66369 
L 1487.079396 448.750325 
L 1488.317653 450.068969 
L 1489.555911 450.395603 
L 1493.270682 449.640022 
L 1494.50894 449.311619 
L 1495.747197 448.611149 
L 1499.461969 445.414856 
L 1500.700226 444.970824 
L 1501.938483 444.879945 
L 1503.176741 444.56707 
L 1504.414998 443.525522 
L 1505.653255 441.689775 
L 1508.12977 437.01939 
L 1509.368027 435.286208 
L 1510.606284 432.878634 
L 1511.844541 427.28881 
L 1513.082799 417.893434 
L 1514.321056 407.338939 
L 1515.559313 399.538941 
L 1516.797571 397.24205 
L 1518.035828 400.907615 
L 1519.274085 408.970245 
L 1520.512342 419.443116 
L 1522.988857 444.298259 
L 1524.227114 456.7795 
L 1526.703629 478.400263 
L 1527.941886 488.905796 
L 1529.180143 497.123748 
L 1530.4184 499.077946 
L 1531.656658 492.602836 
L 1532.894915 477.61012 
L 1534.133172 455.275526 
L 1535.37143 429.512331 
L 1536.609687 406.118563 
L 1537.847944 388.467592 
L 1539.086201 376.460146 
L 1540.324459 369.078106 
L 1541.562716 365.465146 
L 1542.800973 364.617421 
L 1544.03923 365.541758 
L 1545.277488 367.485121 
L 1546.515745 369.830375 
L 1547.754002 371.800224 
L 1548.99226 372.409837 
L 1550.230517 371.115461 
L 1551.468774 368.358962 
L 1552.707031 365.138631 
L 1553.945289 362.482614 
L 1555.183546 361.612748 
L 1556.421803 364.29772 
L 1557.66006 372.843123 
L 1558.898318 389.407077 
L 1560.136575 414.294645 
L 1561.374832 443.777183 
L 1562.613089 470.036088 
L 1563.851347 484.932555 
L 1565.089604 484.595655 
L 1566.327861 470.907286 
L 1568.804376 429.628521 
L 1570.042633 415.255136 
L 1571.28089 407.91583 
L 1572.519148 405.547784 
L 1573.757405 405.97044 
L 1574.995662 407.847502 
L 1576.233919 409.969312 
L 1577.472177 410.937536 
L 1578.710434 410.863225 
L 1579.948691 412.642844 
L 1581.186948 419.686316 
L 1582.425206 433.270896 
L 1583.663463 452.331443 
L 1584.90172 473.386819 
L 1586.139978 490.95208 
L 1587.378235 500.014113 
L 1588.616492 497.564289 
L 1589.854749 482.289215 
L 1591.093007 455.833171 
L 1592.331264 424.83816 
L 1593.569521 398.855626 
L 1594.807778 384.91219 
L 1596.046036 384.704228 
L 1597.284293 395.2896 
L 1600.999065 442.749438 
L 1603.475579 470.268194 
L 1604.713837 481.28912 
L 1605.952094 489.178612 
L 1607.190351 494.266214 
L 1608.428608 496.148994 
L 1609.666866 492.70798 
L 1610.905123 482.196521 
L 1612.14338 465.157635 
L 1613.381637 443.278542 
L 1615.858152 394.668529 
L 1617.096409 376.122167 
L 1618.334666 365.547391 
L 1619.572924 363.336607 
L 1620.811181 368.902003 
L 1622.049438 381.109233 
L 1624.525953 414.800219 
L 1625.76421 427.809925 
L 1627.002467 434.348686 
L 1628.240725 437.480834 
L 1629.478982 443.410944 
L 1630.717239 454.722754 
L 1633.193754 482.832559 
L 1634.432011 494.582775 
L 1635.670268 502.943945 
L 1636.908526 507.00938 
L 1638.146783 506.781651 
L 1639.38504 503.404653 
L 1640.623297 499.184315 
L 1641.861555 496.92695 
L 1643.099812 496.770304 
L 1644.338069 493.951707 
L 1645.576326 482.029929 
L 1646.814584 458.118474 
L 1648.052841 425.62361 
L 1648.052841 425.62361 
" style="fill:none;stroke:#008000;stroke-linecap:square;stroke-width:1.5;"/>
   </g>
   <g id="patch_3">
    <path d="M 50.14375 586.86358 
L 50.14375 22.318125 
" style="fill:none;stroke:#000000;stroke-linecap:square;stroke-linejoin:miter;stroke-width:0.8;"/>
   </g>
   <g id="patch_4">
    <path d="M 1724.14375 586.86358 
L 1724.14375 22.318125 
" style="fill:none;stroke:#000000;stroke-linecap:square;stroke-linejoin:miter;stroke-width:0.8;"/>
   </g>
   <g id="patch_5">
    <path d="M 50.14375 586.86358 
L 1724.14375 586.86358 
" style="fill:none;stroke:#000000;stroke-linecap:square;stroke-linejoin:miter;stroke-width:0.8;"/>
   </g>
   <g id="patch_6">
    <path d="M 50.14375 22.318125 
L 1724.14375 22.318125 
" style="fill:none;stroke:#000000;stroke-linecap:square;stroke-linejoin:miter;stroke-width:0.8;"/>
   </g>
   <g id="text_17">
    <!-- before binarisation -->
    <g transform="translate(830.545 16.318125)scale(0.12 -0.12)">
     <defs>
      <path d="M 3116 1747 
Q 3116 2381 2855 2742 
Q 2594 3103 2138 3103 
Q 1681 3103 1420 2742 
Q 1159 2381 1159 1747 
Q 1159 1113 1420 752 
Q 1681 391 2138 391 
Q 2594 391 2855 752 
Q 3116 1113 3116 1747 
z
M 1159 2969 
Q 1341 3281 1617 3432 
Q 1894 3584 2278 3584 
Q 2916 3584 3314 3078 
Q 3713 2572 3713 1747 
Q 3713 922 3314 415 
Q 2916 -91 2278 -91 
Q 1894 -91 1617 61 
Q 1341 213 1159 525 
L 1159 0 
L 581 0 
L 581 4863 
L 1159 4863 
L 1159 2969 
z
" id="DejaVuSans-62" transform="scale(0.015625)"/>
      <path d="M 1959 3097 
Q 1497 3097 1228 2736 
Q 959 2375 959 1747 
Q 959 1119 1226 758 
Q 1494 397 1959 397 
Q 2419 397 2687 759 
Q 2956 1122 2956 1747 
Q 2956 2369 2687 2733 
Q 2419 3097 1959 3097 
z
M 1959 3584 
Q 2709 3584 3137 3096 
Q 3566 2609 3566 1747 
Q 3566 888 3137 398 
Q 2709 -91 1959 -91 
Q 1206 -91 779 398 
Q 353 888 353 1747 
Q 353 2609 779 3096 
Q 1206 3584 1959 3584 
z
" id="DejaVuSans-6f" transform="scale(0.015625)"/>
      <path id="DejaVuSans-20" transform="scale(0.015625)"/>
      <path d="M 603 3500 
L 1178 3500 
L 1178 0 
L 603 0 
L 603 3500 
z
M 603 4863 
L 1178 4863 
L 1178 4134 
L 603 4134 
L 603 4863 
z
" id="DejaVuSans-69" transform="scale(0.015625)"/>
      <path d="M 3513 2113 
L 3513 0 
L 2938 0 
L 2938 2094 
Q 2938 2591 2744 2837 
Q 2550 3084 2163 3084 
Q 1697 3084 1428 2787 
Q 1159 2491 1159 1978 
L 1159 0 
L 581 0 
L 581 3500 
L 1159 3500 
L 1159 2956 
Q 1366 3272 1645 3428 
Q 1925 3584 2291 3584 
Q 2894 3584 3203 3211 
Q 3513 2838 3513 2113 
z
" id="DejaVuSans-6e" transform="scale(0.015625)"/>
      <path d="M 2834 3397 
L 2834 2853 
Q 2591 2978 2328 3040 
Q 2066 3103 1784 3103 
Q 1356 3103 1142 2972 
Q 928 2841 928 2578 
Q 928 2378 1081 2264 
Q 1234 2150 1697 2047 
L 1894 2003 
Q 2506 1872 2764 1633 
Q 3022 1394 3022 966 
Q 3022 478 2636 193 
Q 2250 -91 1575 -91 
Q 1294 -91 989 -36 
Q 684 19 347 128 
L 347 722 
Q 666 556 975 473 
Q 1284 391 1588 391 
Q 1994 391 2212 530 
Q 2431 669 2431 922 
Q 2431 1156 2273 1281 
Q 2116 1406 1581 1522 
L 1381 1569 
Q 847 1681 609 1914 
Q 372 2147 372 2553 
Q 372 3047 722 3315 
Q 1072 3584 1716 3584 
Q 2034 3584 2315 3537 
Q 2597 3491 2834 3397 
z
" id="DejaVuSans-73" transform="scale(0.015625)"/>
      <path d="M 1172 4494 
L 1172 3500 
L 2356 3500 
L 2356 3053 
L 1172 3053 
L 1172 1153 
Q 1172 725 1289 603 
Q 1406 481 1766 481 
L 2356 481 
L 2356 0 
L 1766 0 
Q 1100 0 847 248 
Q 594 497 594 1153 
L 594 3053 
L 172 3053 
L 172 3500 
L 594 3500 
L 594 4494 
L 1172 4494 
z
" id="DejaVuSans-74" transform="scale(0.015625)"/>
     </defs>
     <use xlink:href="#DejaVuSans-62"/>
     <use x="63.476562" xlink:href="#DejaVuSans-65"/>
     <use x="125" xlink:href="#DejaVuSans-66"/>
     <use x="160.205078" xlink:href="#DejaVuSans-6f"/>
     <use x="221.386719" xlink:href="#DejaVuSans-72"/>
     <use x="260.25" xlink:href="#DejaVuSans-65"/>
     <use x="321.773438" xlink:href="#DejaVuSans-20"/>
     <use x="353.560547" xlink:href="#DejaVuSans-62"/>
     <use x="417.037109" xlink:href="#DejaVuSans-69"/>
     <use x="444.820312" xlink:href="#DejaVuSans-6e"/>
     <use x="508.199219" xlink:href="#DejaVuSans-61"/>
     <use x="569.478516" xlink:href="#DejaVuSans-72"/>
     <use x="610.591797" xlink:href="#DejaVuSans-69"/>
     <use x="638.375" xlink:href="#DejaVuSans-73"/>
     <use x="690.474609" xlink:href="#DejaVuSans-61"/>
     <use x="751.753906" xlink:href="#DejaVuSans-74"/>
     <use x="790.962891" xlink:href="#DejaVuSans-69"/>
     <use x="818.746094" xlink:href="#DejaVuSans-6f"/>
     <use x="879.927734" xlink:href="#DejaVuSans-6e"/>
    </g>
   </g>
  </g>
  <g id="axes_2">
   <g id="patch_7">
    <path d="M 50.14375 1264.318125 
L 1724.14375 1264.318125 
L 1724.14375 699.77267 
L 50.14375 699.77267 
z
" style="fill:#ffffff;"/>
   </g>
   <g id="matplotlib.axis_3">
    <g id="xtick_8">
     <g id="line2d_16">
      <g>
       <use style="stroke:#000000;stroke-width:0.8;" x="126.234659" xlink:href="#md9f1eca4da" y="1264.318125"/>
      </g>
     </g>
     <g id="text_18">
      <!-- 0 -->
      <g transform="translate(123.053409 1278.916563)scale(0.1 -0.1)">
       <use xlink:href="#DejaVuSans-30"/>
      </g>
     </g>
    </g>
    <g id="xtick_9">
     <g id="line2d_17">
      <g>
       <use style="stroke:#000000;stroke-width:0.8;" x="373.886113" xlink:href="#md9f1eca4da" y="1264.318125"/>
      </g>
     </g>
     <g id="text_19">
      <!-- 200 -->
      <g transform="translate(364.342363 1278.916563)scale(0.1 -0.1)">
       <use xlink:href="#DejaVuSans-32"/>
       <use x="63.623047" xlink:href="#DejaVuSans-30"/>
       <use x="127.246094" xlink:href="#DejaVuSans-30"/>
      </g>
     </g>
    </g>
    <g id="xtick_10">
     <g id="line2d_18">
      <g>
       <use style="stroke:#000000;stroke-width:0.8;" x="621.537566" xlink:href="#md9f1eca4da" y="1264.318125"/>
      </g>
     </g>
     <g id="text_20">
      <!-- 400 -->
      <g transform="translate(611.993816 1278.916563)scale(0.1 -0.1)">
       <use xlink:href="#DejaVuSans-34"/>
       <use x="63.623047" xlink:href="#DejaVuSans-30"/>
       <use x="127.246094" xlink:href="#DejaVuSans-30"/>
      </g>
     </g>
    </g>
    <g id="xtick_11">
     <g id="line2d_19">
      <g>
       <use style="stroke:#000000;stroke-width:0.8;" x="869.18902" xlink:href="#md9f1eca4da" y="1264.318125"/>
      </g>
     </g>
     <g id="text_21">
      <!-- 600 -->
      <g transform="translate(859.64527 1278.916563)scale(0.1 -0.1)">
       <use xlink:href="#DejaVuSans-36"/>
       <use x="63.623047" xlink:href="#DejaVuSans-30"/>
       <use x="127.246094" xlink:href="#DejaVuSans-30"/>
      </g>
     </g>
    </g>
    <g id="xtick_12">
     <g id="line2d_20">
      <g>
       <use style="stroke:#000000;stroke-width:0.8;" x="1116.840473" xlink:href="#md9f1eca4da" y="1264.318125"/>
      </g>
     </g>
     <g id="text_22">
      <!-- 800 -->
      <g transform="translate(1107.296723 1278.916563)scale(0.1 -0.1)">
       <use xlink:href="#DejaVuSans-38"/>
       <use x="63.623047" xlink:href="#DejaVuSans-30"/>
       <use x="127.246094" xlink:href="#DejaVuSans-30"/>
      </g>
     </g>
    </g>
    <g id="xtick_13">
     <g id="line2d_21">
      <g>
       <use style="stroke:#000000;stroke-width:0.8;" x="1364.491927" xlink:href="#md9f1eca4da" y="1264.318125"/>
      </g>
     </g>
     <g id="text_23">
      <!-- 1000 -->
      <g transform="translate(1351.766927 1278.916563)scale(0.1 -0.1)">
       <use xlink:href="#DejaVuSans-31"/>
       <use x="63.623047" xlink:href="#DejaVuSans-30"/>
       <use x="127.246094" xlink:href="#DejaVuSans-30"/>
       <use x="190.869141" xlink:href="#DejaVuSans-30"/>
      </g>
     </g>
    </g>
    <g id="xtick_14">
     <g id="line2d_22">
      <g>
       <use style="stroke:#000000;stroke-width:0.8;" x="1612.14338" xlink:href="#md9f1eca4da" y="1264.318125"/>
      </g>
     </g>
     <g id="text_24">
      <!-- 1200 -->
      <g transform="translate(1599.41838 1278.916563)scale(0.1 -0.1)">
       <use xlink:href="#DejaVuSans-31"/>
       <use x="63.623047" xlink:href="#DejaVuSans-32"/>
       <use x="127.246094" xlink:href="#DejaVuSans-30"/>
       <use x="190.869141" xlink:href="#DejaVuSans-30"/>
      </g>
     </g>
    </g>
    <g id="text_25">
     <!-- frame -->
     <g transform="translate(872.317187 1292.594688)scale(0.1 -0.1)">
      <use xlink:href="#DejaVuSans-66"/>
      <use x="35.205078" xlink:href="#DejaVuSans-72"/>
      <use x="76.318359" xlink:href="#DejaVuSans-61"/>
      <use x="137.597656" xlink:href="#DejaVuSans-6d"/>
      <use x="235.009766" xlink:href="#DejaVuSans-65"/>
     </g>
    </g>
   </g>
   <g id="matplotlib.axis_4">
    <g id="ytick_8">
     <g id="line2d_23">
      <g>
       <use style="stroke:#000000;stroke-width:0.8;" x="50.14375" xlink:href="#m6b523f3c3c" y="1238.656968"/>
      </g>
     </g>
     <g id="text_26">
      <!-- 0.0 -->
      <g transform="translate(27.240625 1242.456187)scale(0.1 -0.1)">
       <use xlink:href="#DejaVuSans-30"/>
       <use x="63.623047" xlink:href="#DejaVuSans-2e"/>
       <use x="95.410156" xlink:href="#DejaVuSans-30"/>
      </g>
     </g>
    </g>
    <g id="ytick_9">
     <g id="line2d_24">
      <g>
       <use style="stroke:#000000;stroke-width:0.8;" x="50.14375" xlink:href="#m6b523f3c3c" y="1136.01234"/>
      </g>
     </g>
     <g id="text_27">
      <!-- 0.2 -->
      <g transform="translate(27.240625 1139.811559)scale(0.1 -0.1)">
       <use xlink:href="#DejaVuSans-30"/>
       <use x="63.623047" xlink:href="#DejaVuSans-2e"/>
       <use x="95.410156" xlink:href="#DejaVuSans-32"/>
      </g>
     </g>
    </g>
    <g id="ytick_10">
     <g id="line2d_25">
      <g>
       <use style="stroke:#000000;stroke-width:0.8;" x="50.14375" xlink:href="#m6b523f3c3c" y="1033.367712"/>
      </g>
     </g>
     <g id="text_28">
      <!-- 0.4 -->
      <g transform="translate(27.240625 1037.166931)scale(0.1 -0.1)">
       <use xlink:href="#DejaVuSans-30"/>
       <use x="63.623047" xlink:href="#DejaVuSans-2e"/>
       <use x="95.410156" xlink:href="#DejaVuSans-34"/>
      </g>
     </g>
    </g>
    <g id="ytick_11">
     <g id="line2d_26">
      <g>
       <use style="stroke:#000000;stroke-width:0.8;" x="50.14375" xlink:href="#m6b523f3c3c" y="930.723084"/>
      </g>
     </g>
     <g id="text_29">
      <!-- 0.6 -->
      <g transform="translate(27.240625 934.522302)scale(0.1 -0.1)">
       <use xlink:href="#DejaVuSans-30"/>
       <use x="63.623047" xlink:href="#DejaVuSans-2e"/>
       <use x="95.410156" xlink:href="#DejaVuSans-36"/>
      </g>
     </g>
    </g>
    <g id="ytick_12">
     <g id="line2d_27">
      <g>
       <use style="stroke:#000000;stroke-width:0.8;" x="50.14375" xlink:href="#m6b523f3c3c" y="828.078456"/>
      </g>
     </g>
     <g id="text_30">
      <!-- 0.8 -->
      <g transform="translate(27.240625 831.877674)scale(0.1 -0.1)">
       <use xlink:href="#DejaVuSans-30"/>
       <use x="63.623047" xlink:href="#DejaVuSans-2e"/>
       <use x="95.410156" xlink:href="#DejaVuSans-38"/>
      </g>
     </g>
    </g>
    <g id="ytick_13">
     <g id="line2d_28">
      <g>
       <use style="stroke:#000000;stroke-width:0.8;" x="50.14375" xlink:href="#m6b523f3c3c" y="725.433827"/>
      </g>
     </g>
     <g id="text_31">
      <!-- 1.0 -->
      <g transform="translate(27.240625 729.233046)scale(0.1 -0.1)">
       <use xlink:href="#DejaVuSans-31"/>
       <use x="63.623047" xlink:href="#DejaVuSans-2e"/>
       <use x="95.410156" xlink:href="#DejaVuSans-30"/>
      </g>
     </g>
    </g>
    <g id="text_32">
     <!-- GCaMP -->
     <g transform="translate(21.160938 999.803991)rotate(-90)scale(0.1 -0.1)">
      <use xlink:href="#DejaVuSans-47"/>
      <use x="77.490234" xlink:href="#DejaVuSans-43"/>
      <use x="147.314453" xlink:href="#DejaVuSans-61"/>
      <use x="208.59375" xlink:href="#DejaVuSans-4d"/>
      <use x="294.873047" xlink:href="#DejaVuSans-50"/>
     </g>
    </g>
   </g>
   <g id="line2d_29">
    <path clip-path="url(#p15071197a5)" d="M 126.234659 1238.656968 
L 292.161133 1238.656968 
L 293.39939 725.433827 
L 300.828934 725.433827 
L 302.067191 1238.656968 
L 304.543706 1238.656968 
L 305.781963 725.433827 
L 311.973249 725.433827 
L 313.211506 1238.656968 
L 315.688021 1238.656968 
L 316.926278 725.433827 
L 637.634911 725.433827 
L 638.873168 1238.656968 
L 1648.052841 1238.656968 
L 1648.052841 1238.656968 
" style="fill:none;stroke:#008000;stroke-linecap:square;stroke-width:1.5;"/>
   </g>
   <g id="patch_8">
    <path d="M 50.14375 1264.318125 
L 50.14375 699.77267 
" style="fill:none;stroke:#000000;stroke-linecap:square;stroke-linejoin:miter;stroke-width:0.8;"/>
   </g>
   <g id="patch_9">
    <path d="M 1724.14375 1264.318125 
L 1724.14375 699.77267 
" style="fill:none;stroke:#000000;stroke-linecap:square;stroke-linejoin:miter;stroke-width:0.8;"/>
   </g>
   <g id="patch_10">
    <path d="M 50.14375 1264.318125 
L 1724.14375 1264.318125 
" style="fill:none;stroke:#000000;stroke-linecap:square;stroke-linejoin:miter;stroke-width:0.8;"/>
   </g>
   <g id="patch_11">
    <path d="M 50.14375 699.77267 
L 1724.14375 699.77267 
" style="fill:none;stroke:#000000;stroke-linecap:square;stroke-linejoin:miter;stroke-width:0.8;"/>
   </g>
   <g id="text_33">
    <!-- before binarisation -->
    <g transform="translate(830.545 693.77267)scale(0.12 -0.12)">
     <use xlink:href="#DejaVuSans-62"/>
     <use x="63.476562" xlink:href="#DejaVuSans-65"/>
     <use x="125" xlink:href="#DejaVuSans-66"/>
     <use x="160.205078" xlink:href="#DejaVuSans-6f"/>
     <use x="221.386719" xlink:href="#DejaVuSans-72"/>
     <use x="260.25" xlink:href="#DejaVuSans-65"/>
     <use x="321.773438" xlink:href="#DejaVuSans-20"/>
     <use x="353.560547" xlink:href="#DejaVuSans-62"/>
     <use x="417.037109" xlink:href="#DejaVuSans-69"/>
     <use x="444.820312" xlink:href="#DejaVuSans-6e"/>
     <use x="508.199219" xlink:href="#DejaVuSans-61"/>
     <use x="569.478516" xlink:href="#DejaVuSans-72"/>
     <use x="610.591797" xlink:href="#DejaVuSans-69"/>
     <use x="638.375" xlink:href="#DejaVuSans-73"/>
     <use x="690.474609" xlink:href="#DejaVuSans-61"/>
     <use x="751.753906" xlink:href="#DejaVuSans-74"/>
     <use x="790.962891" xlink:href="#DejaVuSans-69"/>
     <use x="818.746094" xlink:href="#DejaVuSans-6f"/>
     <use x="879.927734" xlink:href="#DejaVuSans-6e"/>
    </g>
   </g>
  </g>
 </g>
 <defs>
  <clipPath id="p99058fadbf">
   <rect height="564.545455" width="1674" x="50.14375" y="22.318125"/>
  </clipPath>
  <clipPath id="p15071197a5">
   <rect height="564.545455" width="1674" x="50.14375" y="699.77267"/>
  </clipPath>
 </defs>
</svg>
