<?xml version="1.0" encoding="utf-8" standalone="no"?>
<!DOCTYPE svg PUBLIC "-//W3C//DTD SVG 1.1//EN"
  "http://www.w3.org/Graphics/SVG/1.1/DTD/svg11.dtd">
<svg height="1301.874375pt" version="1.1" viewBox="0 0 1731.34375 1301.874375" width="1731.34375pt" xmlns="http://www.w3.org/2000/svg" xmlns:xlink="http://www.w3.org/1999/xlink">
 <metadata>
  <rdf:RDF xmlns:cc="http://creativecommons.org/ns#" xmlns:dc="http://purl.org/dc/elements/1.1/" xmlns:rdf="http://www.w3.org/1999/02/22-rdf-syntax-ns#">
   <cc:Work>
    <dc:type rdf:resource="http://purl.org/dc/dcmitype/StillImage"/>
    <dc:date>2022-07-24T15:54:48.172235</dc:date>
    <dc:format>image/svg+xml</dc:format>
    <dc:creator>
     <cc:Agent>
      <dc:title>Matplotlib v3.4.2, https://matplotlib.org/</dc:title>
     </cc:Agent>
    </dc:creator>
   </cc:Work>
  </rdf:RDF>
 </metadata>
 <defs>
  <style type="text/css">*{stroke-linecap:butt;stroke-linejoin:round;}</style>
 </defs>
 <g id="figure_1">
  <g id="patch_1">
   <path d="M 0 1301.874375 
L 1731.34375 1301.874375 
L 1731.34375 0 
L 0 0 
z
" style="fill:#ffffff;"/>
  </g>
  <g id="axes_1">
   <g id="patch_2">
    <path d="M 50.14375 586.86358 
L 1724.14375 586.86358 
L 1724.14375 22.318125 
L 50.14375 22.318125 
z
" style="fill:#ffffff;"/>
   </g>
   <g id="matplotlib.axis_1">
    <g id="xtick_1">
     <g id="line2d_1">
      <defs>
       <path d="M 0 0 
L 0 3.5 
" id="m3cd7a99fca" style="stroke:#000000;stroke-width:0.8;"/>
      </defs>
      <g>
       <use style="stroke:#000000;stroke-width:0.8;" x="126.234659" xlink:href="#m3cd7a99fca" y="586.86358"/>
      </g>
     </g>
     <g id="text_1">
      <!-- 0 -->
      <g transform="translate(123.053409 601.462017)scale(0.1 -0.1)">
       <defs>
        <path d="M 2034 4250 
Q 1547 4250 1301 3770 
Q 1056 3291 1056 2328 
Q 1056 1369 1301 889 
Q 1547 409 2034 409 
Q 2525 409 2770 889 
Q 3016 1369 3016 2328 
Q 3016 3291 2770 3770 
Q 2525 4250 2034 4250 
z
M 2034 4750 
Q 2819 4750 3233 4129 
Q 3647 3509 3647 2328 
Q 3647 1150 3233 529 
Q 2819 -91 2034 -91 
Q 1250 -91 836 529 
Q 422 1150 422 2328 
Q 422 3509 836 4129 
Q 1250 4750 2034 4750 
z
" id="DejaVuSans-30" transform="scale(0.015625)"/>
       </defs>
       <use xlink:href="#DejaVuSans-30"/>
      </g>
     </g>
    </g>
    <g id="xtick_2">
     <g id="line2d_2">
      <g>
       <use style="stroke:#000000;stroke-width:0.8;" x="373.886113" xlink:href="#m3cd7a99fca" y="586.86358"/>
      </g>
     </g>
     <g id="text_2">
      <!-- 200 -->
      <g transform="translate(364.342363 601.462017)scale(0.1 -0.1)">
       <defs>
        <path d="M 1228 531 
L 3431 531 
L 3431 0 
L 469 0 
L 469 531 
Q 828 903 1448 1529 
Q 2069 2156 2228 2338 
Q 2531 2678 2651 2914 
Q 2772 3150 2772 3378 
Q 2772 3750 2511 3984 
Q 2250 4219 1831 4219 
Q 1534 4219 1204 4116 
Q 875 4013 500 3803 
L 500 4441 
Q 881 4594 1212 4672 
Q 1544 4750 1819 4750 
Q 2544 4750 2975 4387 
Q 3406 4025 3406 3419 
Q 3406 3131 3298 2873 
Q 3191 2616 2906 2266 
Q 2828 2175 2409 1742 
Q 1991 1309 1228 531 
z
" id="DejaVuSans-32" transform="scale(0.015625)"/>
       </defs>
       <use xlink:href="#DejaVuSans-32"/>
       <use x="63.623047" xlink:href="#DejaVuSans-30"/>
       <use x="127.246094" xlink:href="#DejaVuSans-30"/>
      </g>
     </g>
    </g>
    <g id="xtick_3">
     <g id="line2d_3">
      <g>
       <use style="stroke:#000000;stroke-width:0.8;" x="621.537566" xlink:href="#m3cd7a99fca" y="586.86358"/>
      </g>
     </g>
     <g id="text_3">
      <!-- 400 -->
      <g transform="translate(611.993816 601.462017)scale(0.1 -0.1)">
       <defs>
        <path d="M 2419 4116 
L 825 1625 
L 2419 1625 
L 2419 4116 
z
M 2253 4666 
L 3047 4666 
L 3047 1625 
L 3713 1625 
L 3713 1100 
L 3047 1100 
L 3047 0 
L 2419 0 
L 2419 1100 
L 313 1100 
L 313 1709 
L 2253 4666 
z
" id="DejaVuSans-34" transform="scale(0.015625)"/>
       </defs>
       <use xlink:href="#DejaVuSans-34"/>
       <use x="63.623047" xlink:href="#DejaVuSans-30"/>
       <use x="127.246094" xlink:href="#DejaVuSans-30"/>
      </g>
     </g>
    </g>
    <g id="xtick_4">
     <g id="line2d_4">
      <g>
       <use style="stroke:#000000;stroke-width:0.8;" x="869.18902" xlink:href="#m3cd7a99fca" y="586.86358"/>
      </g>
     </g>
     <g id="text_4">
      <!-- 600 -->
      <g transform="translate(859.64527 601.462017)scale(0.1 -0.1)">
       <defs>
        <path d="M 2113 2584 
Q 1688 2584 1439 2293 
Q 1191 2003 1191 1497 
Q 1191 994 1439 701 
Q 1688 409 2113 409 
Q 2538 409 2786 701 
Q 3034 994 3034 1497 
Q 3034 2003 2786 2293 
Q 2538 2584 2113 2584 
z
M 3366 4563 
L 3366 3988 
Q 3128 4100 2886 4159 
Q 2644 4219 2406 4219 
Q 1781 4219 1451 3797 
Q 1122 3375 1075 2522 
Q 1259 2794 1537 2939 
Q 1816 3084 2150 3084 
Q 2853 3084 3261 2657 
Q 3669 2231 3669 1497 
Q 3669 778 3244 343 
Q 2819 -91 2113 -91 
Q 1303 -91 875 529 
Q 447 1150 447 2328 
Q 447 3434 972 4092 
Q 1497 4750 2381 4750 
Q 2619 4750 2861 4703 
Q 3103 4656 3366 4563 
z
" id="DejaVuSans-36" transform="scale(0.015625)"/>
       </defs>
       <use xlink:href="#DejaVuSans-36"/>
       <use x="63.623047" xlink:href="#DejaVuSans-30"/>
       <use x="127.246094" xlink:href="#DejaVuSans-30"/>
      </g>
     </g>
    </g>
    <g id="xtick_5">
     <g id="line2d_5">
      <g>
       <use style="stroke:#000000;stroke-width:0.8;" x="1116.840473" xlink:href="#m3cd7a99fca" y="586.86358"/>
      </g>
     </g>
     <g id="text_5">
      <!-- 800 -->
      <g transform="translate(1107.296723 601.462017)scale(0.1 -0.1)">
       <defs>
        <path d="M 2034 2216 
Q 1584 2216 1326 1975 
Q 1069 1734 1069 1313 
Q 1069 891 1326 650 
Q 1584 409 2034 409 
Q 2484 409 2743 651 
Q 3003 894 3003 1313 
Q 3003 1734 2745 1975 
Q 2488 2216 2034 2216 
z
M 1403 2484 
Q 997 2584 770 2862 
Q 544 3141 544 3541 
Q 544 4100 942 4425 
Q 1341 4750 2034 4750 
Q 2731 4750 3128 4425 
Q 3525 4100 3525 3541 
Q 3525 3141 3298 2862 
Q 3072 2584 2669 2484 
Q 3125 2378 3379 2068 
Q 3634 1759 3634 1313 
Q 3634 634 3220 271 
Q 2806 -91 2034 -91 
Q 1263 -91 848 271 
Q 434 634 434 1313 
Q 434 1759 690 2068 
Q 947 2378 1403 2484 
z
M 1172 3481 
Q 1172 3119 1398 2916 
Q 1625 2713 2034 2713 
Q 2441 2713 2670 2916 
Q 2900 3119 2900 3481 
Q 2900 3844 2670 4047 
Q 2441 4250 2034 4250 
Q 1625 4250 1398 4047 
Q 1172 3844 1172 3481 
z
" id="DejaVuSans-38" transform="scale(0.015625)"/>
       </defs>
       <use xlink:href="#DejaVuSans-38"/>
       <use x="63.623047" xlink:href="#DejaVuSans-30"/>
       <use x="127.246094" xlink:href="#DejaVuSans-30"/>
      </g>
     </g>
    </g>
    <g id="xtick_6">
     <g id="line2d_6">
      <g>
       <use style="stroke:#000000;stroke-width:0.8;" x="1364.491927" xlink:href="#m3cd7a99fca" y="586.86358"/>
      </g>
     </g>
     <g id="text_6">
      <!-- 1000 -->
      <g transform="translate(1351.766927 601.462017)scale(0.1 -0.1)">
       <defs>
        <path d="M 794 531 
L 1825 531 
L 1825 4091 
L 703 3866 
L 703 4441 
L 1819 4666 
L 2450 4666 
L 2450 531 
L 3481 531 
L 3481 0 
L 794 0 
L 794 531 
z
" id="DejaVuSans-31" transform="scale(0.015625)"/>
       </defs>
       <use xlink:href="#DejaVuSans-31"/>
       <use x="63.623047" xlink:href="#DejaVuSans-30"/>
       <use x="127.246094" xlink:href="#DejaVuSans-30"/>
       <use x="190.869141" xlink:href="#DejaVuSans-30"/>
      </g>
     </g>
    </g>
    <g id="xtick_7">
     <g id="line2d_7">
      <g>
       <use style="stroke:#000000;stroke-width:0.8;" x="1612.14338" xlink:href="#m3cd7a99fca" y="586.86358"/>
      </g>
     </g>
     <g id="text_7">
      <!-- 1200 -->
      <g transform="translate(1599.41838 601.462017)scale(0.1 -0.1)">
       <use xlink:href="#DejaVuSans-31"/>
       <use x="63.623047" xlink:href="#DejaVuSans-32"/>
       <use x="127.246094" xlink:href="#DejaVuSans-30"/>
       <use x="190.869141" xlink:href="#DejaVuSans-30"/>
      </g>
     </g>
    </g>
    <g id="text_8">
     <!-- frame -->
     <g transform="translate(872.317187 615.140142)scale(0.1 -0.1)">
      <defs>
       <path d="M 2375 4863 
L 2375 4384 
L 1825 4384 
Q 1516 4384 1395 4259 
Q 1275 4134 1275 3809 
L 1275 3500 
L 2222 3500 
L 2222 3053 
L 1275 3053 
L 1275 0 
L 697 0 
L 697 3053 
L 147 3053 
L 147 3500 
L 697 3500 
L 697 3744 
Q 697 4328 969 4595 
Q 1241 4863 1831 4863 
L 2375 4863 
z
" id="DejaVuSans-66" transform="scale(0.015625)"/>
       <path d="M 2631 2963 
Q 2534 3019 2420 3045 
Q 2306 3072 2169 3072 
Q 1681 3072 1420 2755 
Q 1159 2438 1159 1844 
L 1159 0 
L 581 0 
L 581 3500 
L 1159 3500 
L 1159 2956 
Q 1341 3275 1631 3429 
Q 1922 3584 2338 3584 
Q 2397 3584 2469 3576 
Q 2541 3569 2628 3553 
L 2631 2963 
z
" id="DejaVuSans-72" transform="scale(0.015625)"/>
       <path d="M 2194 1759 
Q 1497 1759 1228 1600 
Q 959 1441 959 1056 
Q 959 750 1161 570 
Q 1363 391 1709 391 
Q 2188 391 2477 730 
Q 2766 1069 2766 1631 
L 2766 1759 
L 2194 1759 
z
M 3341 1997 
L 3341 0 
L 2766 0 
L 2766 531 
Q 2569 213 2275 61 
Q 1981 -91 1556 -91 
Q 1019 -91 701 211 
Q 384 513 384 1019 
Q 384 1609 779 1909 
Q 1175 2209 1959 2209 
L 2766 2209 
L 2766 2266 
Q 2766 2663 2505 2880 
Q 2244 3097 1772 3097 
Q 1472 3097 1187 3025 
Q 903 2953 641 2809 
L 641 3341 
Q 956 3463 1253 3523 
Q 1550 3584 1831 3584 
Q 2591 3584 2966 3190 
Q 3341 2797 3341 1997 
z
" id="DejaVuSans-61" transform="scale(0.015625)"/>
       <path d="M 3328 2828 
Q 3544 3216 3844 3400 
Q 4144 3584 4550 3584 
Q 5097 3584 5394 3201 
Q 5691 2819 5691 2113 
L 5691 0 
L 5113 0 
L 5113 2094 
Q 5113 2597 4934 2840 
Q 4756 3084 4391 3084 
Q 3944 3084 3684 2787 
Q 3425 2491 3425 1978 
L 3425 0 
L 2847 0 
L 2847 2094 
Q 2847 2600 2669 2842 
Q 2491 3084 2119 3084 
Q 1678 3084 1418 2786 
Q 1159 2488 1159 1978 
L 1159 0 
L 581 0 
L 581 3500 
L 1159 3500 
L 1159 2956 
Q 1356 3278 1631 3431 
Q 1906 3584 2284 3584 
Q 2666 3584 2933 3390 
Q 3200 3197 3328 2828 
z
" id="DejaVuSans-6d" transform="scale(0.015625)"/>
       <path d="M 3597 1894 
L 3597 1613 
L 953 1613 
Q 991 1019 1311 708 
Q 1631 397 2203 397 
Q 2534 397 2845 478 
Q 3156 559 3463 722 
L 3463 178 
Q 3153 47 2828 -22 
Q 2503 -91 2169 -91 
Q 1331 -91 842 396 
Q 353 884 353 1716 
Q 353 2575 817 3079 
Q 1281 3584 2069 3584 
Q 2775 3584 3186 3129 
Q 3597 2675 3597 1894 
z
M 3022 2063 
Q 3016 2534 2758 2815 
Q 2500 3097 2075 3097 
Q 1594 3097 1305 2825 
Q 1016 2553 972 2059 
L 3022 2063 
z
" id="DejaVuSans-65" transform="scale(0.015625)"/>
      </defs>
      <use xlink:href="#DejaVuSans-66"/>
      <use x="35.205078" xlink:href="#DejaVuSans-72"/>
      <use x="76.318359" xlink:href="#DejaVuSans-61"/>
      <use x="137.597656" xlink:href="#DejaVuSans-6d"/>
      <use x="235.009766" xlink:href="#DejaVuSans-65"/>
     </g>
    </g>
   </g>
   <g id="matplotlib.axis_2">
    <g id="ytick_1">
     <g id="line2d_8">
      <defs>
       <path d="M 0 0 
L -3.5 0 
" id="m0b6c419690" style="stroke:#000000;stroke-width:0.8;"/>
      </defs>
      <g>
       <use style="stroke:#000000;stroke-width:0.8;" x="50.14375" xlink:href="#m0b6c419690" y="561.202423"/>
      </g>
     </g>
     <g id="text_9">
      <!-- 0.00 -->
      <g transform="translate(20.878125 565.001641)scale(0.1 -0.1)">
       <defs>
        <path d="M 684 794 
L 1344 794 
L 1344 0 
L 684 0 
L 684 794 
z
" id="DejaVuSans-2e" transform="scale(0.015625)"/>
       </defs>
       <use xlink:href="#DejaVuSans-30"/>
       <use x="63.623047" xlink:href="#DejaVuSans-2e"/>
       <use x="95.410156" xlink:href="#DejaVuSans-30"/>
       <use x="159.033203" xlink:href="#DejaVuSans-30"/>
      </g>
     </g>
    </g>
    <g id="ytick_2">
     <g id="line2d_9">
      <g>
       <use style="stroke:#000000;stroke-width:0.8;" x="50.14375" xlink:href="#m0b6c419690" y="486.698768"/>
      </g>
     </g>
     <g id="text_10">
      <!-- 0.25 -->
      <g transform="translate(20.878125 490.497987)scale(0.1 -0.1)">
       <defs>
        <path d="M 691 4666 
L 3169 4666 
L 3169 4134 
L 1269 4134 
L 1269 2991 
Q 1406 3038 1543 3061 
Q 1681 3084 1819 3084 
Q 2600 3084 3056 2656 
Q 3513 2228 3513 1497 
Q 3513 744 3044 326 
Q 2575 -91 1722 -91 
Q 1428 -91 1123 -41 
Q 819 9 494 109 
L 494 744 
Q 775 591 1075 516 
Q 1375 441 1709 441 
Q 2250 441 2565 725 
Q 2881 1009 2881 1497 
Q 2881 1984 2565 2268 
Q 2250 2553 1709 2553 
Q 1456 2553 1204 2497 
Q 953 2441 691 2322 
L 691 4666 
z
" id="DejaVuSans-35" transform="scale(0.015625)"/>
       </defs>
       <use xlink:href="#DejaVuSans-30"/>
       <use x="63.623047" xlink:href="#DejaVuSans-2e"/>
       <use x="95.410156" xlink:href="#DejaVuSans-32"/>
       <use x="159.033203" xlink:href="#DejaVuSans-35"/>
      </g>
     </g>
    </g>
    <g id="ytick_3">
     <g id="line2d_10">
      <g>
       <use style="stroke:#000000;stroke-width:0.8;" x="50.14375" xlink:href="#m0b6c419690" y="412.195114"/>
      </g>
     </g>
     <g id="text_11">
      <!-- 0.50 -->
      <g transform="translate(20.878125 415.994332)scale(0.1 -0.1)">
       <use xlink:href="#DejaVuSans-30"/>
       <use x="63.623047" xlink:href="#DejaVuSans-2e"/>
       <use x="95.410156" xlink:href="#DejaVuSans-35"/>
       <use x="159.033203" xlink:href="#DejaVuSans-30"/>
      </g>
     </g>
    </g>
    <g id="ytick_4">
     <g id="line2d_11">
      <g>
       <use style="stroke:#000000;stroke-width:0.8;" x="50.14375" xlink:href="#m0b6c419690" y="337.691459"/>
      </g>
     </g>
     <g id="text_12">
      <!-- 0.75 -->
      <g transform="translate(20.878125 341.490678)scale(0.1 -0.1)">
       <defs>
        <path d="M 525 4666 
L 3525 4666 
L 3525 4397 
L 1831 0 
L 1172 0 
L 2766 4134 
L 525 4134 
L 525 4666 
z
" id="DejaVuSans-37" transform="scale(0.015625)"/>
       </defs>
       <use xlink:href="#DejaVuSans-30"/>
       <use x="63.623047" xlink:href="#DejaVuSans-2e"/>
       <use x="95.410156" xlink:href="#DejaVuSans-37"/>
       <use x="159.033203" xlink:href="#DejaVuSans-35"/>
      </g>
     </g>
    </g>
    <g id="ytick_5">
     <g id="line2d_12">
      <g>
       <use style="stroke:#000000;stroke-width:0.8;" x="50.14375" xlink:href="#m0b6c419690" y="263.187805"/>
      </g>
     </g>
     <g id="text_13">
      <!-- 1.00 -->
      <g transform="translate(20.878125 266.987024)scale(0.1 -0.1)">
       <use xlink:href="#DejaVuSans-31"/>
       <use x="63.623047" xlink:href="#DejaVuSans-2e"/>
       <use x="95.410156" xlink:href="#DejaVuSans-30"/>
       <use x="159.033203" xlink:href="#DejaVuSans-30"/>
      </g>
     </g>
    </g>
    <g id="ytick_6">
     <g id="line2d_13">
      <g>
       <use style="stroke:#000000;stroke-width:0.8;" x="50.14375" xlink:href="#m0b6c419690" y="188.68415"/>
      </g>
     </g>
     <g id="text_14">
      <!-- 1.25 -->
      <g transform="translate(20.878125 192.483369)scale(0.1 -0.1)">
       <use xlink:href="#DejaVuSans-31"/>
       <use x="63.623047" xlink:href="#DejaVuSans-2e"/>
       <use x="95.410156" xlink:href="#DejaVuSans-32"/>
       <use x="159.033203" xlink:href="#DejaVuSans-35"/>
      </g>
     </g>
    </g>
    <g id="ytick_7">
     <g id="line2d_14">
      <g>
       <use style="stroke:#000000;stroke-width:0.8;" x="50.14375" xlink:href="#m0b6c419690" y="114.180496"/>
      </g>
     </g>
     <g id="text_15">
      <!-- 1.50 -->
      <g transform="translate(20.878125 117.979715)scale(0.1 -0.1)">
       <use xlink:href="#DejaVuSans-31"/>
       <use x="63.623047" xlink:href="#DejaVuSans-2e"/>
       <use x="95.410156" xlink:href="#DejaVuSans-35"/>
       <use x="159.033203" xlink:href="#DejaVuSans-30"/>
      </g>
     </g>
    </g>
    <g id="ytick_8">
     <g id="line2d_15">
      <g>
       <use style="stroke:#000000;stroke-width:0.8;" x="50.14375" xlink:href="#m0b6c419690" y="39.676842"/>
      </g>
     </g>
     <g id="text_16">
      <!-- 1.75 -->
      <g transform="translate(20.878125 43.47606)scale(0.1 -0.1)">
       <use xlink:href="#DejaVuSans-31"/>
       <use x="63.623047" xlink:href="#DejaVuSans-2e"/>
       <use x="95.410156" xlink:href="#DejaVuSans-37"/>
       <use x="159.033203" xlink:href="#DejaVuSans-35"/>
      </g>
     </g>
    </g>
    <g id="text_17">
     <!-- GCaMP -->
     <g transform="translate(14.798438 322.349446)rotate(-90)scale(0.1 -0.1)">
      <defs>
       <path d="M 3809 666 
L 3809 1919 
L 2778 1919 
L 2778 2438 
L 4434 2438 
L 4434 434 
Q 4069 175 3628 42 
Q 3188 -91 2688 -91 
Q 1594 -91 976 548 
Q 359 1188 359 2328 
Q 359 3472 976 4111 
Q 1594 4750 2688 4750 
Q 3144 4750 3555 4637 
Q 3966 4525 4313 4306 
L 4313 3634 
Q 3963 3931 3569 4081 
Q 3175 4231 2741 4231 
Q 1884 4231 1454 3753 
Q 1025 3275 1025 2328 
Q 1025 1384 1454 906 
Q 1884 428 2741 428 
Q 3075 428 3337 486 
Q 3600 544 3809 666 
z
" id="DejaVuSans-47" transform="scale(0.015625)"/>
       <path d="M 4122 4306 
L 4122 3641 
Q 3803 3938 3442 4084 
Q 3081 4231 2675 4231 
Q 1875 4231 1450 3742 
Q 1025 3253 1025 2328 
Q 1025 1406 1450 917 
Q 1875 428 2675 428 
Q 3081 428 3442 575 
Q 3803 722 4122 1019 
L 4122 359 
Q 3791 134 3420 21 
Q 3050 -91 2638 -91 
Q 1578 -91 968 557 
Q 359 1206 359 2328 
Q 359 3453 968 4101 
Q 1578 4750 2638 4750 
Q 3056 4750 3426 4639 
Q 3797 4528 4122 4306 
z
" id="DejaVuSans-43" transform="scale(0.015625)"/>
       <path d="M 628 4666 
L 1569 4666 
L 2759 1491 
L 3956 4666 
L 4897 4666 
L 4897 0 
L 4281 0 
L 4281 4097 
L 3078 897 
L 2444 897 
L 1241 4097 
L 1241 0 
L 628 0 
L 628 4666 
z
" id="DejaVuSans-4d" transform="scale(0.015625)"/>
       <path d="M 1259 4147 
L 1259 2394 
L 2053 2394 
Q 2494 2394 2734 2622 
Q 2975 2850 2975 3272 
Q 2975 3691 2734 3919 
Q 2494 4147 2053 4147 
L 1259 4147 
z
M 628 4666 
L 2053 4666 
Q 2838 4666 3239 4311 
Q 3641 3956 3641 3272 
Q 3641 2581 3239 2228 
Q 2838 1875 2053 1875 
L 1259 1875 
L 1259 0 
L 628 0 
L 628 4666 
z
" id="DejaVuSans-50" transform="scale(0.015625)"/>
      </defs>
      <use xlink:href="#DejaVuSans-47"/>
      <use x="77.490234" xlink:href="#DejaVuSans-43"/>
      <use x="147.314453" xlink:href="#DejaVuSans-61"/>
      <use x="208.59375" xlink:href="#DejaVuSans-4d"/>
      <use x="294.873047" xlink:href="#DejaVuSans-50"/>
     </g>
    </g>
   </g>
   <g id="line2d_16">
    <path clip-path="url(#p64a72fac5b)" d="M 126.234659 438.023349 
L 131.187688 401.631139 
L 132.425945 393.035903 
L 133.664203 385.416971 
L 134.90246 379.466871 
L 136.140717 375.131044 
L 138.617232 368.383963 
L 139.855489 364.234213 
L 141.093746 358.232565 
L 142.332004 350.06976 
L 144.808518 332.387624 
L 146.046775 326.24642 
L 148.52329 318.30395 
L 149.761547 312.815182 
L 153.476319 290.202152 
L 154.714576 284.341908 
L 155.952834 277.778504 
L 157.191091 269.161491 
L 160.905863 239.016464 
L 162.14412 232.427521 
L 163.382377 228.764198 
L 164.620634 227.264366 
L 165.858892 226.975145 
L 167.097149 227.055982 
L 168.335406 226.663808 
L 169.573663 225.430944 
L 170.811921 223.620938 
L 172.050178 221.27246 
L 173.288435 217.893259 
L 174.526693 213.210587 
L 175.76495 207.434853 
L 178.241464 194.371393 
L 179.479722 188.592468 
L 180.717979 184.930603 
L 181.956236 184.760244 
L 183.194493 188.315667 
L 184.432751 193.805135 
L 185.671008 198.247889 
L 186.909265 199.580471 
L 188.147522 197.821115 
L 190.624037 191.23023 
L 193.100552 185.414044 
L 195.577066 178.424726 
L 198.053581 172.470465 
L 199.291838 167.808246 
L 200.530095 160.345223 
L 203.00661 139.921833 
L 204.244867 131.594783 
L 205.483124 127.489074 
L 206.721381 128.401142 
L 207.959639 133.885981 
L 209.197896 142.738834 
L 210.436153 152.584224 
L 211.674411 159.753545 
L 212.912668 161.507254 
L 214.150925 158.093505 
L 215.389182 151.145049 
L 216.62744 141.048252 
L 217.865697 127.603753 
L 219.103954 112.378645 
L 220.342211 98.612529 
L 221.580469 88.824822 
L 222.818726 83.71423 
L 224.056983 83.026341 
L 225.29524 85.971511 
L 226.533498 91.371581 
L 227.771755 98.333955 
L 231.486527 122.247555 
L 232.724784 127.700417 
L 233.963041 129.114195 
L 235.201299 126.751833 
L 236.439556 123.570174 
L 237.677813 122.358635 
L 238.91607 123.278551 
L 240.154328 124.567241 
L 241.392585 124.490052 
L 242.630842 122.745331 
L 243.8691 120.074144 
L 245.107357 116.670845 
L 246.345614 112.444913 
L 247.583871 108.681676 
L 248.822129 107.698879 
L 250.060386 110.858182 
L 251.298643 117.457766 
L 252.5369 125.110705 
L 253.775158 131.18386 
L 255.013415 134.177484 
L 256.251672 134.20388 
L 257.489929 132.593848 
L 259.966444 128.44994 
L 261.204701 125.484865 
L 262.442959 121.463883 
L 264.919473 112.515795 
L 266.15773 109.498685 
L 267.395988 108.806542 
L 268.634245 110.294557 
L 269.872502 112.229336 
L 271.110759 113.077822 
L 272.349017 113.420797 
L 273.587274 115.271981 
L 274.825531 119.691468 
L 276.063788 125.536053 
L 277.302046 130.41261 
L 278.540303 132.339882 
L 279.77856 130.607389 
L 281.016818 126.124912 
L 282.255075 121.108635 
L 283.493332 117.136854 
L 284.731589 113.745513 
L 285.969847 109.862044 
L 287.208104 105.260583 
L 289.684618 95.118228 
L 290.922876 91.878974 
L 292.161133 93.1429 
L 293.39939 101.346049 
L 294.637647 115.985568 
L 295.875905 132.334117 
L 297.114162 144.25438 
L 298.352419 148.306163 
L 299.590677 145.124692 
L 300.828934 137.821412 
L 302.067191 129.708777 
L 303.305448 123.086143 
L 304.543706 118.933993 
L 305.781963 117.080002 
L 307.02022 116.88161 
L 308.258477 118.721736 
L 309.496735 125.040687 
L 310.734992 137.963197 
L 313.211506 171.693829 
L 314.449764 183.488661 
L 315.688021 191.408597 
L 316.926278 197.321425 
L 318.164536 200.887392 
L 319.402793 199.682048 
L 320.64105 192.341354 
L 323.117565 169.588759 
L 324.355822 162.357473 
L 325.594079 160.453854 
L 326.832336 163.088815 
L 328.070594 168.732066 
L 330.547108 182.564779 
L 331.785366 188.312062 
L 333.023623 192.131046 
L 334.26188 194.172631 
L 335.500137 195.843938 
L 337.976652 200.538303 
L 339.214909 201.98798 
L 340.453166 201.454768 
L 341.691424 198.129243 
L 344.167938 186.420621 
L 345.406195 182.531026 
L 347.88271 179.095617 
L 349.120967 175.456726 
L 350.359225 168.604796 
L 351.597482 158.432153 
L 352.835739 146.596743 
L 354.073996 135.951627 
L 355.312254 128.636638 
L 356.550511 125.195229 
L 357.788768 124.853734 
L 359.027025 126.138148 
L 360.265283 128.009506 
L 361.50354 130.258654 
L 366.456569 140.333103 
L 367.694826 142.384305 
L 368.933084 143.630378 
L 370.171341 143.377149 
L 371.409598 140.850174 
L 372.647855 136.050629 
L 375.12437 124.275069 
L 376.362627 119.007704 
L 377.600884 115.079145 
L 378.839142 113.255326 
L 380.077399 113.5495 
L 381.315656 115.487329 
L 383.792171 121.095598 
L 385.030428 122.572748 
L 386.268685 122.377361 
L 387.506943 120.674126 
L 389.983457 115.385141 
L 391.221714 113.938494 
L 392.459972 114.822579 
L 393.698229 118.255004 
L 394.936486 123.454683 
L 396.174743 129.235681 
L 397.413001 134.431589 
L 398.651258 138.210594 
L 399.889515 140.401425 
L 401.127772 141.342119 
L 402.36603 141.465935 
L 403.604287 141.273044 
L 404.842544 141.415901 
L 406.080802 142.450118 
L 407.319059 144.48223 
L 408.557316 147.062505 
L 409.795573 149.205702 
L 411.033831 149.423071 
L 412.272088 146.329185 
L 413.510345 140.21138 
L 414.748602 133.493369 
L 415.98686 128.319199 
L 417.225117 124.877611 
L 418.463374 122.600983 
L 420.939889 118.966195 
L 422.178146 117.774936 
L 423.416403 119.806791 
L 424.654661 126.848561 
L 425.892918 136.034679 
L 427.131175 139.95772 
L 428.369432 132.349864 
L 429.60769 112.972611 
L 432.084204 64.223885 
L 433.322461 50.255132 
L 434.560719 47.979282 
L 435.798976 54.787042 
L 437.037233 65.391671 
L 438.275491 74.78174 
L 439.513748 80.668819 
L 440.752005 83.894034 
L 441.990262 86.477528 
L 445.705034 95.34296 
L 446.943291 98.66976 
L 450.658063 110.83377 
L 451.89632 112.753878 
L 453.134578 112.888875 
L 454.372835 111.335403 
L 455.611092 108.266481 
L 459.325864 96.304236 
L 460.564121 94.525994 
L 461.802379 95.307923 
L 463.040636 98.375715 
L 465.51715 107.106347 
L 466.755408 110.396815 
L 467.993665 112.151728 
L 469.231922 112.380795 
L 470.470179 111.003282 
L 471.708437 107.928345 
L 472.946694 103.989914 
L 474.184951 101.160273 
L 475.423209 101.142629 
L 476.661466 103.967787 
L 479.13798 112.589936 
L 480.376238 115.951001 
L 481.614495 117.665705 
L 484.091009 118.00884 
L 485.329267 120.366482 
L 486.567524 125.784352 
L 489.044038 139.977137 
L 491.520553 153.126751 
L 492.75881 160.597104 
L 493.997068 166.582043 
L 495.235325 168.313431 
L 496.473582 165.003986 
L 498.950097 152.021952 
L 500.188354 148.371749 
L 501.426611 147.906668 
L 502.664868 149.869352 
L 503.903126 153.666583 
L 505.141383 158.647564 
L 506.37964 164.125032 
L 507.617897 170.14889 
L 508.856155 177.422355 
L 510.094412 185.785021 
L 511.332669 192.746696 
L 512.570927 194.287411 
L 513.809184 188.072341 
L 516.285698 164.478698 
L 517.523956 159.023711 
L 518.762213 161.546749 
L 520.00047 169.317665 
L 526.191757 216.608463 
L 527.430014 222.643691 
L 528.668271 225.152235 
L 529.906528 225.197549 
L 531.144786 224.501387 
L 532.383043 224.940751 
L 533.6213 227.524074 
L 537.336072 240.034092 
L 538.574329 243.546955 
L 539.812586 246.061268 
L 541.050844 246.504653 
L 542.289101 244.007706 
L 543.527358 238.914035 
L 544.765616 232.818896 
L 546.003873 227.32031 
L 547.24213 223.35213 
L 548.480387 221.994069 
L 549.718645 224.353813 
L 550.956902 229.909907 
L 552.195159 236.35212 
L 553.433416 241.224085 
L 554.671674 243.058276 
L 555.909931 241.613603 
L 557.148188 237.671353 
L 558.386445 232.380929 
L 559.624703 226.243575 
L 560.86296 218.516227 
L 562.101217 208.13251 
L 565.815989 170.605287 
L 567.054246 161.537701 
L 568.292504 154.707623 
L 569.530761 149.863124 
L 570.769018 147.511636 
L 572.007275 147.655508 
L 573.245533 148.771745 
L 574.48379 149.246556 
L 575.722047 149.00804 
L 576.960304 149.106439 
L 578.198562 150.300916 
L 579.436819 152.118483 
L 580.675076 153.500874 
L 581.913334 154.606968 
L 583.151591 156.972672 
L 584.389848 161.817917 
L 586.866363 175.788367 
L 588.10462 180.960053 
L 589.342877 183.083157 
L 590.581134 181.647288 
L 591.819392 177.270228 
L 593.057649 172.207789 
L 594.295906 169.357495 
L 595.534163 170.674801 
L 596.772421 176.175109 
L 599.248935 191.76476 
L 600.487193 198.594617 
L 601.72545 204.635217 
L 602.963707 209.618751 
L 604.201964 212.532355 
L 605.440222 212.233266 
L 606.678479 208.307972 
L 609.154993 196.031463 
L 610.393251 191.827052 
L 611.631508 191.028904 
L 612.869765 195.193729 
L 614.108023 204.669802 
L 615.34628 218.307233 
L 617.822794 250.789764 
L 619.061052 264.401807 
L 620.299309 272.200278 
L 621.537566 273.042822 
L 622.775823 268.099069 
L 624.014081 259.476558 
L 626.490595 239.744276 
L 627.728852 233.366302 
L 628.96711 231.197698 
L 630.205367 232.432792 
L 631.443624 234.993746 
L 632.681882 236.946874 
L 633.920139 237.601797 
L 635.158396 237.203924 
L 636.396653 236.23757 
L 637.634911 235.575887 
L 638.873168 236.785435 
L 640.111425 241.396328 
L 642.58794 257.493607 
L 643.826197 263.808256 
L 645.064454 267.907964 
L 646.302711 270.774495 
L 647.540969 272.386377 
L 648.779226 272.140288 
L 650.017483 270.26593 
L 652.493998 265.036692 
L 653.732255 561.202423 
L 706.977318 561.202423 
L 708.215575 209.999341 
L 709.453832 200.320615 
L 710.692089 196.195835 
L 711.930347 195.324992 
L 713.168604 195.355769 
L 714.406861 195.51538 
L 715.645118 195.435446 
L 716.883376 194.320095 
L 718.121633 192.294925 
L 719.35989 191.138139 
L 720.598148 192.541305 
L 721.836405 196.238483 
L 723.074662 200.535878 
L 724.312919 203.969157 
L 725.551177 205.473788 
L 726.789434 204.182184 
L 728.027691 200.445144 
L 729.265948 196.047243 
L 730.504206 192.732698 
L 731.742463 191.609373 
L 732.98072 193.605875 
L 734.218977 198.796327 
L 736.695492 212.82082 
L 737.933749 217.484596 
L 739.172007 218.415945 
L 740.410264 215.613119 
L 741.648521 209.740606 
L 742.886778 201.255753 
L 745.363293 180.145282 
L 746.60155 172.403215 
L 747.839807 169.740171 
L 749.078065 172.275035 
L 750.316322 178.193307 
L 751.554579 184.721478 
L 752.792836 189.7458 
L 754.031094 192.744189 
L 755.269351 194.456145 
L 756.507608 195.596284 
L 757.745866 195.45828 
L 758.984123 192.391117 
L 761.460637 179.596478 
L 762.698895 175.295406 
L 763.937152 173.334724 
L 765.175409 172.174446 
L 766.413666 171.70795 
L 767.651924 173.03008 
L 768.890181 177.010641 
L 770.128438 184.300715 
L 771.366695 195.065909 
L 773.84321 219.532819 
L 775.081467 227.477726 
L 776.319725 230.566502 
L 777.557982 229.623706 
L 778.796239 226.97396 
L 780.034496 225.028497 
L 781.272754 224.592992 
L 782.511011 224.75445 
L 783.749268 224.437371 
L 784.987525 223.586928 
L 786.225783 222.489523 
L 787.46404 220.728881 
L 788.702297 217.769797 
L 789.940554 214.104175 
L 791.178812 211.09443 
L 792.417069 209.989041 
L 793.655326 211.426925 
L 794.893584 215.657263 
L 796.131841 223.170111 
L 797.370098 234.731717 
L 801.08487 279.348826 
L 802.323127 287.089864 
L 803.561384 289.60125 
L 804.799642 289.92642 
L 806.037899 291.604864 
L 807.276156 295.95744 
L 808.514414 301.187762 
L 809.752671 303.883309 
L 810.990928 301.48744 
L 812.229185 293.949868 
L 813.467443 284.06431 
L 814.7057 275.816604 
L 815.943957 271.464413 
L 817.182214 270.530513 
L 818.420472 271.293376 
L 820.896986 273.581046 
L 822.135243 275.3599 
L 825.850015 283.283291 
L 827.088273 286.575283 
L 829.564787 296.378242 
L 830.803044 299.321905 
L 832.041302 299.0525 
L 833.279559 295.921895 
L 835.756073 286.933083 
L 836.994331 284.803584 
L 838.232588 285.721886 
L 839.470845 289.145443 
L 840.709102 293.273471 
L 841.94736 296.024866 
L 843.185617 296.306192 
L 845.662132 293.523147 
L 846.900389 293.514645 
L 849.376903 295.013158 
L 850.615161 296.250498 
L 851.853418 299.216432 
L 853.091675 304.527608 
L 855.56819 317.251599 
L 856.806447 322.517839 
L 858.044704 327.221926 
L 859.282961 330.534468 
L 860.521219 330.845748 
L 861.759476 327.35911 
L 862.997733 320.679109 
L 865.474248 304.455933 
L 866.712505 299.232839 
L 867.950762 298.001852 
L 869.18902 300.084571 
L 870.427277 302.963965 
L 871.665534 304.339643 
L 872.903791 304.478458 
L 874.142049 305.314393 
L 875.380306 307.645576 
L 876.618563 311.030149 
L 877.85682 314.931861 
L 879.095078 318.13446 
L 880.333335 318.708218 
L 881.571592 315.762415 
L 885.286364 300.265455 
L 886.524621 296.533679 
L 889.001136 289.970537 
L 890.239393 285.94283 
L 891.47765 282.396608 
L 892.715908 281.170202 
L 893.954165 283.298537 
L 895.192422 288.200215 
L 898.907194 305.794139 
L 902.621966 326.51373 
L 905.09848 338.261354 
L 906.336738 343.187373 
L 907.574995 346.331189 
L 908.813252 347.060647 
L 910.051509 345.518457 
L 912.528024 339.176429 
L 913.766281 336.911545 
L 915.004539 335.943905 
L 916.242796 336.045086 
L 918.71931 337.694341 
L 919.957568 338.192208 
L 922.434082 338.605156 
L 923.672339 339.300244 
L 924.910597 341.178412 
L 926.148854 344.766412 
L 927.387111 349.383907 
L 928.625368 352.964996 
L 929.863626 353.752257 
L 931.101883 351.844184 
L 933.578398 345.658616 
L 934.816655 342.959778 
L 936.054912 340.733352 
L 937.293169 339.379128 
L 938.531427 338.838757 
L 939.769684 338.560876 
L 941.007941 338.423116 
L 942.246198 339.020807 
L 943.484456 341.309522 
L 944.722713 345.685864 
L 945.96097 351.042935 
L 947.199227 355.323828 
L 948.437485 356.952841 
L 949.675742 355.334687 
L 950.913999 350.563109 
L 952.152257 343.27955 
L 953.390514 334.768186 
L 954.628771 327.2153 
L 955.867028 323.434362 
L 957.105286 325.023351 
L 958.343543 330.603184 
L 959.5818 336.857375 
L 960.820057 341.229067 
L 962.058315 343.178751 
L 963.296572 343.407268 
L 964.534829 342.562877 
L 965.773086 340.943311 
L 967.011344 339.006166 
L 968.249601 337.458532 
L 969.487858 336.847901 
L 970.726116 337.233635 
L 971.964373 338.011798 
L 973.20263 337.977881 
L 974.440887 335.767873 
L 975.679145 330.638494 
L 978.155659 316.438318 
L 979.393916 312.770457 
L 980.632174 313.894066 
L 981.870431 319.163725 
L 984.346946 334.366675 
L 985.585203 340.270846 
L 986.82346 344.068474 
L 988.061717 346.610394 
L 989.299975 347.883899 
L 990.538232 346.978831 
L 991.776489 343.645576 
L 993.014746 338.56332 
L 994.253004 332.853863 
L 995.491261 327.81362 
L 996.729518 324.638935 
L 997.967775 323.941531 
L 999.206033 325.278249 
L 1001.682547 329.628561 
L 1002.920805 330.569532 
L 1004.159062 328.788924 
L 1005.397319 322.984176 
L 1007.873834 304.391492 
L 1009.112091 299.716622 
L 1010.350348 302.586349 
L 1011.588605 311.896041 
L 1012.826863 323.551518 
L 1014.06512 333.478822 
L 1015.303377 339.31728 
L 1016.541634 340.252464 
L 1017.779892 337.498297 
L 1019.018149 334.268322 
L 1020.256406 333.239594 
L 1021.494664 334.416743 
L 1022.732921 335.848485 
L 1023.971178 335.804163 
L 1025.209435 334.087835 
L 1026.447693 330.97472 
L 1027.68595 326.071765 
L 1030.162464 313.71079 
L 1031.400722 309.249246 
L 1032.638979 305.6963 
L 1035.115493 297.599965 
L 1036.353751 295.657505 
L 1037.592008 297.642508 
L 1038.830265 302.75405 
L 1041.30678 314.707999 
L 1042.545037 318.767278 
L 1043.783294 320.068869 
L 1045.021552 317.939294 
L 1046.259809 312.584303 
L 1048.736323 299.140196 
L 1049.974581 293.724286 
L 1051.212838 289.239861 
L 1052.451095 285.749254 
L 1053.689352 283.583588 
L 1054.92761 282.733281 
L 1056.165867 282.335299 
L 1057.404124 280.69125 
L 1058.642382 275.943856 
L 1059.880639 267.389186 
L 1061.118896 256.679121 
L 1062.357153 247.680254 
L 1063.595411 244.541062 
L 1064.833668 249.011603 
L 1066.071925 259.038146 
L 1067.310182 270.096649 
L 1068.54844 278.318722 
L 1069.786697 282.071095 
L 1071.024954 281.174361 
L 1072.263211 276.436312 
L 1073.501469 269.413736 
L 1074.739726 261.220576 
L 1077.216241 243.358676 
L 1078.454498 235.857337 
L 1079.692755 230.91628 
L 1080.931012 229.573871 
L 1082.16927 232.677839 
L 1083.407527 239.768084 
L 1085.884041 258.177019 
L 1087.122299 266.127626 
L 1088.360556 272.609118 
L 1089.598813 277.582899 
L 1090.837071 280.413395 
L 1092.075328 280.001663 
L 1093.313585 275.8411 
L 1095.7901 261.723393 
L 1097.028357 256.670835 
L 1098.266614 254.750798 
L 1099.504871 254.296563 
L 1100.743129 252.633551 
L 1101.981386 248.700952 
L 1103.219643 244.130826 
L 1104.4579 241.997104 
L 1105.696158 244.339733 
L 1106.934415 250.671214 
L 1109.41093 266.593466 
L 1110.649187 273.382922 
L 1111.887444 278.864806 
L 1113.125701 282.045335 
L 1114.363959 281.072626 
L 1115.602216 275.036889 
L 1116.840473 264.922686 
L 1119.316988 241.166699 
L 1120.555245 232.497609 
L 1121.793502 228.590741 
L 1123.031759 230.269075 
L 1124.270017 236.54839 
L 1126.746531 253.002207 
L 1127.984789 259.080399 
L 1129.223046 262.167815 
L 1130.461303 262.260453 
L 1131.69956 260.677431 
L 1132.937818 259.453586 
L 1134.176075 260.557618 
L 1135.414332 265.06228 
L 1137.890847 278.680719 
L 1139.129104 282.427359 
L 1140.367361 282.032561 
L 1141.605618 278.285312 
L 1142.843876 273.722599 
L 1144.082133 271.19041 
L 1145.32039 272.060438 
L 1146.558648 275.184292 
L 1147.796905 277.829822 
L 1149.035162 278.386034 
L 1150.273419 277.237345 
L 1151.511677 274.925534 
L 1152.749934 271.847042 
L 1153.988191 269.685987 
L 1155.226448 270.678883 
L 1156.464706 275.350509 
L 1158.94122 289.697809 
L 1162.655992 312.191821 
L 1163.894249 317.545362 
L 1165.132507 321.21927 
L 1166.370764 323.12929 
L 1167.609021 322.397727 
L 1168.847278 318.885519 
L 1170.085536 314.470302 
L 1171.323793 311.282986 
L 1172.56205 309.558726 
L 1173.800307 308.146413 
L 1175.038565 305.640667 
L 1176.276822 301.103276 
L 1177.515079 295.257709 
L 1178.753337 290.366617 
L 1179.991594 288.417301 
L 1181.229851 289.91856 
L 1182.468108 294.532191 
L 1183.706366 302.05143 
L 1184.944623 311.405897 
L 1186.18288 319.796157 
L 1187.421137 324.600682 
L 1188.659395 325.186172 
L 1189.897652 322.668787 
L 1191.135909 319.309286 
L 1192.374166 317.551918 
L 1193.612424 318.310187 
L 1194.850681 320.014843 
L 1196.088938 319.660043 
L 1197.327196 315.264331 
L 1199.80371 299.280362 
L 1201.041967 293.260294 
L 1202.280225 291.262577 
L 1203.518482 293.551544 
L 1205.994996 303.63283 
L 1207.233254 307.376525 
L 1208.471511 310.080676 
L 1209.709768 312.466169 
L 1210.948025 314.16969 
L 1212.186283 314.075196 
L 1213.42454 311.908183 
L 1214.662797 308.803898 
L 1215.901055 306.237366 
L 1217.139312 305.216681 
L 1218.377569 306.404044 
L 1219.615826 309.52842 
L 1220.854084 312.235172 
L 1222.092341 311.315125 
L 1223.330598 306.083247 
L 1224.568855 299.472518 
L 1225.807113 295.35551 
L 1227.04537 295.138182 
L 1228.283627 296.823566 
L 1229.521884 297.376724 
L 1230.760142 295.600628 
L 1233.236656 288.86826 
L 1234.474914 286.874398 
L 1235.713171 287.097655 
L 1236.951428 289.877226 
L 1238.189685 295.516527 
L 1240.6662 311.434377 
L 1241.904457 317.926879 
L 1243.142714 321.521477 
L 1244.380972 321.80457 
L 1245.619229 319.400866 
L 1246.857486 315.510138 
L 1248.095743 312.16108 
L 1249.334001 311.818007 
L 1251.810515 317.655296 
L 1253.048773 317.941843 
L 1254.28703 315.150212 
L 1255.525287 311.808248 
L 1256.763544 311.77862 
L 1258.001802 317.061739 
L 1259.240059 325.642154 
L 1260.478316 333.360092 
L 1261.716573 337.911483 
L 1262.954831 339.820212 
L 1264.193088 339.876604 
L 1265.431345 338.17542 
L 1266.669603 335.950996 
L 1267.90786 335.369387 
L 1269.146117 336.409916 
L 1270.384374 336.302603 
L 1271.622632 333.083659 
L 1272.860889 327.966075 
L 1274.099146 323.501423 
L 1275.337403 320.951773 
L 1276.575661 320.116467 
L 1277.813918 320.408766 
L 1279.052175 320.94395 
L 1280.290432 320.453186 
L 1281.52869 318.489078 
L 1282.766947 315.847151 
L 1284.005204 313.878016 
L 1285.243462 314.236494 
L 1286.481719 317.857379 
L 1288.958233 329.659648 
L 1290.196491 331.780168 
L 1291.434748 328.729979 
L 1293.911262 317.506261 
L 1295.14952 312.496683 
L 1296.387777 304.906988 
L 1298.864291 283.400147 
L 1300.102549 276.362282 
L 1301.340806 274.813128 
L 1302.579063 278.708364 
L 1305.055578 294.592709 
L 1306.293835 298.63565 
L 1307.532092 296.138852 
L 1310.008607 282.216887 
L 1311.246864 279.246274 
L 1312.485121 281.842492 
L 1313.723379 289.501226 
L 1316.199893 310.217313 
L 1317.43815 318.055697 
L 1318.676408 322.271454 
L 1319.914665 323.948928 
L 1321.152922 325.265517 
L 1322.39118 326.264704 
L 1323.629437 325.003891 
L 1326.105951 317.522608 
L 1327.344209 316.466067 
L 1328.582466 317.739812 
L 1329.820723 319.414436 
L 1331.05898 320.825716 
L 1332.297238 323.107082 
L 1333.535495 327.792121 
L 1334.773752 335.318634 
L 1337.250267 352.883418 
L 1338.488524 360.047891 
L 1339.726781 365.004755 
L 1340.965039 366.208668 
L 1342.203296 362.034417 
L 1343.441553 352.187539 
L 1344.67981 339.049969 
L 1345.918068 327.511815 
L 1347.156325 321.922389 
L 1348.394582 322.796547 
L 1350.871097 330.583143 
L 1353.347611 336.213478 
L 1354.585868 339.265793 
L 1355.824126 341.881766 
L 1357.062383 344.197719 
L 1358.30064 345.805682 
L 1359.538898 345.449776 
L 1360.777155 343.500499 
L 1362.015412 342.215474 
L 1363.253669 342.507264 
L 1364.491927 342.561109 
L 1365.730184 340.706987 
L 1366.968441 338.251545 
L 1368.206698 337.888513 
L 1369.444956 340.047717 
L 1370.683213 342.786335 
L 1371.92147 344.370005 
L 1373.159728 344.075409 
L 1374.397985 342.171777 
L 1375.636242 340.576163 
L 1376.874499 341.568538 
L 1378.112757 345.568988 
L 1379.351014 351.724591 
L 1380.589271 359.666283 
L 1381.827528 369.648898 
L 1383.065786 381.046911 
L 1384.304043 390.768306 
L 1385.5423 394.241405 
L 1386.780557 388.116597 
L 1388.018815 371.666676 
L 1389.257072 347.079443 
L 1390.495329 319.589473 
L 1391.733587 295.768658 
L 1392.971844 279.97294 
L 1394.210101 272.875757 
L 1395.448358 272.965095 
L 1396.686616 278.042217 
L 1399.16313 292.710995 
L 1400.401387 296.947409 
L 1401.639645 298.136961 
L 1402.877902 298.551147 
L 1404.116159 300.386909 
L 1405.354416 304.271635 
L 1407.830931 314.540132 
L 1409.069188 317.295359 
L 1410.307446 317.35912 
L 1412.78396 314.493135 
L 1414.022217 314.224595 
L 1415.260475 315.308654 
L 1416.498732 317.775849 
L 1417.736989 319.872126 
L 1418.975246 318.207739 
L 1420.213504 311.757743 
L 1421.451761 303.840722 
L 1422.690018 299.6499 
L 1423.928275 303.301626 
L 1425.166533 315.904 
L 1427.643047 351.294895 
L 1428.881305 362.612667 
L 1430.119562 367.279362 
L 1431.357819 366.934217 
L 1432.596076 363.132798 
L 1435.072591 351.218763 
L 1436.310848 346.709788 
L 1437.549105 344.836893 
L 1438.787363 345.891858 
L 1440.02562 349.364918 
L 1441.263877 354.025593 
L 1442.502134 358.179539 
L 1443.740392 360.037489 
L 1444.978649 358.624578 
L 1446.216906 354.715721 
L 1447.455164 350.242058 
L 1448.693421 346.995361 
L 1449.931678 346.18076 
L 1451.169935 348.250529 
L 1452.408193 352.823572 
L 1454.884707 365.333585 
L 1456.122964 370.218045 
L 1457.361222 372.831808 
L 1458.599479 373.979139 
L 1459.837736 374.955684 
L 1461.075994 376.156273 
L 1462.314251 377.115732 
L 1463.552508 377.121935 
L 1464.790765 375.614546 
L 1466.029023 372.687567 
L 1468.505537 365.775188 
L 1469.743794 362.867643 
L 1472.220309 357.915715 
L 1474.696823 353.509176 
L 1475.935081 351.584178 
L 1477.173338 350.282852 
L 1478.411595 349.592007 
L 1479.649853 349.0856 
L 1480.88811 348.244995 
L 1482.126367 347.169967 
L 1483.364624 347.06983 
L 1484.602882 348.909209 
L 1485.841139 351.880227 
L 1487.079396 354.445783 
L 1488.317653 355.871537 
L 1489.555911 356.064017 
L 1490.794168 355.017157 
L 1492.032425 352.586174 
L 1493.270682 348.63563 
L 1495.747197 339.021787 
L 1496.985454 336.223578 
L 1498.223712 335.993787 
L 1499.461969 337.591155 
L 1500.700226 339.565027 
L 1503.176741 343.02467 
L 1504.414998 345.797723 
L 1505.653255 350.028753 
L 1508.12977 360.179739 
L 1509.368027 362.675644 
L 1510.606284 362.090801 
L 1511.844541 359.207684 
L 1513.082799 355.646326 
L 1514.321056 352.90083 
L 1515.559313 351.526697 
L 1516.797571 351.421599 
L 1518.035828 352.490085 
L 1519.274085 354.436509 
L 1520.512342 356.630315 
L 1521.7506 358.489595 
L 1522.988857 359.593712 
L 1524.227114 359.382989 
L 1525.465371 357.104083 
L 1526.703629 352.486143 
L 1529.180143 340.380031 
L 1530.4184 335.620096 
L 1531.656658 331.425587 
L 1532.894915 326.246017 
L 1534.133172 319.113265 
L 1535.37143 309.690833 
L 1536.609687 297.626908 
L 1537.847944 282.433421 
L 1541.562716 229.37645 
L 1542.800973 223.442578 
L 1544.03923 229.348319 
L 1546.515745 253.876821 
L 1547.754002 261.676538 
L 1548.99226 265.489963 
L 1550.230517 266.596702 
L 1551.468774 266.248415 
L 1553.945289 264.480794 
L 1555.183546 263.908979 
L 1556.421803 263.805576 
L 1557.66006 264.282042 
L 1558.898318 265.403394 
L 1561.374832 268.94314 
L 1562.613089 270.200623 
L 1563.851347 270.305953 
L 1565.089604 269.394857 
L 1566.327861 268.20581 
L 1567.566119 267.772332 
L 1568.804376 269.201216 
L 1570.042633 273.092569 
L 1571.28089 278.29458 
L 1572.519148 281.853808 
L 1573.757405 281.832099 
L 1574.995662 279.460946 
L 1576.233919 277.413161 
L 1577.472177 277.155777 
L 1578.710434 278.567547 
L 1579.948691 281.349128 
L 1581.186948 285.728621 
L 1582.425206 291.110528 
L 1583.663463 295.500738 
L 1584.90172 297.465204 
L 1586.139978 297.219992 
L 1587.378235 295.373897 
L 1588.616492 291.920856 
L 1589.854749 286.716975 
L 1591.093007 280.642581 
L 1592.331264 275.6602 
L 1593.569521 273.172018 
L 1594.807778 272.699263 
L 1596.046036 272.35856 
L 1597.284293 270.750085 
L 1598.52255 268.23282 
L 1599.760807 266.077499 
L 1600.999065 265.151112 
L 1602.237322 265.668371 
L 1603.475579 267.331758 
L 1604.713837 269.262136 
L 1605.952094 270.207391 
L 1607.190351 270.129317 
L 1608.428608 272.497918 
L 1609.666866 282.797697 
L 1610.905123 302.106392 
L 1612.14338 561.202423 
L 1648.052841 561.202423 
L 1648.052841 561.202423 
" style="fill:none;stroke:#008000;stroke-linecap:square;stroke-width:1.5;"/>
   </g>
   <g id="patch_3">
    <path d="M 50.14375 586.86358 
L 50.14375 22.318125 
" style="fill:none;stroke:#000000;stroke-linecap:square;stroke-linejoin:miter;stroke-width:0.8;"/>
   </g>
   <g id="patch_4">
    <path d="M 1724.14375 586.86358 
L 1724.14375 22.318125 
" style="fill:none;stroke:#000000;stroke-linecap:square;stroke-linejoin:miter;stroke-width:0.8;"/>
   </g>
   <g id="patch_5">
    <path d="M 50.14375 586.86358 
L 1724.14375 586.86358 
" style="fill:none;stroke:#000000;stroke-linecap:square;stroke-linejoin:miter;stroke-width:0.8;"/>
   </g>
   <g id="patch_6">
    <path d="M 50.14375 22.318125 
L 1724.14375 22.318125 
" style="fill:none;stroke:#000000;stroke-linecap:square;stroke-linejoin:miter;stroke-width:0.8;"/>
   </g>
   <g id="text_18">
    <!-- before binarisation -->
    <g transform="translate(830.545 16.318125)scale(0.12 -0.12)">
     <defs>
      <path d="M 3116 1747 
Q 3116 2381 2855 2742 
Q 2594 3103 2138 3103 
Q 1681 3103 1420 2742 
Q 1159 2381 1159 1747 
Q 1159 1113 1420 752 
Q 1681 391 2138 391 
Q 2594 391 2855 752 
Q 3116 1113 3116 1747 
z
M 1159 2969 
Q 1341 3281 1617 3432 
Q 1894 3584 2278 3584 
Q 2916 3584 3314 3078 
Q 3713 2572 3713 1747 
Q 3713 922 3314 415 
Q 2916 -91 2278 -91 
Q 1894 -91 1617 61 
Q 1341 213 1159 525 
L 1159 0 
L 581 0 
L 581 4863 
L 1159 4863 
L 1159 2969 
z
" id="DejaVuSans-62" transform="scale(0.015625)"/>
      <path d="M 1959 3097 
Q 1497 3097 1228 2736 
Q 959 2375 959 1747 
Q 959 1119 1226 758 
Q 1494 397 1959 397 
Q 2419 397 2687 759 
Q 2956 1122 2956 1747 
Q 2956 2369 2687 2733 
Q 2419 3097 1959 3097 
z
M 1959 3584 
Q 2709 3584 3137 3096 
Q 3566 2609 3566 1747 
Q 3566 888 3137 398 
Q 2709 -91 1959 -91 
Q 1206 -91 779 398 
Q 353 888 353 1747 
Q 353 2609 779 3096 
Q 1206 3584 1959 3584 
z
" id="DejaVuSans-6f" transform="scale(0.015625)"/>
      <path id="DejaVuSans-20" transform="scale(0.015625)"/>
      <path d="M 603 3500 
L 1178 3500 
L 1178 0 
L 603 0 
L 603 3500 
z
M 603 4863 
L 1178 4863 
L 1178 4134 
L 603 4134 
L 603 4863 
z
" id="DejaVuSans-69" transform="scale(0.015625)"/>
      <path d="M 3513 2113 
L 3513 0 
L 2938 0 
L 2938 2094 
Q 2938 2591 2744 2837 
Q 2550 3084 2163 3084 
Q 1697 3084 1428 2787 
Q 1159 2491 1159 1978 
L 1159 0 
L 581 0 
L 581 3500 
L 1159 3500 
L 1159 2956 
Q 1366 3272 1645 3428 
Q 1925 3584 2291 3584 
Q 2894 3584 3203 3211 
Q 3513 2838 3513 2113 
z
" id="DejaVuSans-6e" transform="scale(0.015625)"/>
      <path d="M 2834 3397 
L 2834 2853 
Q 2591 2978 2328 3040 
Q 2066 3103 1784 3103 
Q 1356 3103 1142 2972 
Q 928 2841 928 2578 
Q 928 2378 1081 2264 
Q 1234 2150 1697 2047 
L 1894 2003 
Q 2506 1872 2764 1633 
Q 3022 1394 3022 966 
Q 3022 478 2636 193 
Q 2250 -91 1575 -91 
Q 1294 -91 989 -36 
Q 684 19 347 128 
L 347 722 
Q 666 556 975 473 
Q 1284 391 1588 391 
Q 1994 391 2212 530 
Q 2431 669 2431 922 
Q 2431 1156 2273 1281 
Q 2116 1406 1581 1522 
L 1381 1569 
Q 847 1681 609 1914 
Q 372 2147 372 2553 
Q 372 3047 722 3315 
Q 1072 3584 1716 3584 
Q 2034 3584 2315 3537 
Q 2597 3491 2834 3397 
z
" id="DejaVuSans-73" transform="scale(0.015625)"/>
      <path d="M 1172 4494 
L 1172 3500 
L 2356 3500 
L 2356 3053 
L 1172 3053 
L 1172 1153 
Q 1172 725 1289 603 
Q 1406 481 1766 481 
L 2356 481 
L 2356 0 
L 1766 0 
Q 1100 0 847 248 
Q 594 497 594 1153 
L 594 3053 
L 172 3053 
L 172 3500 
L 594 3500 
L 594 4494 
L 1172 4494 
z
" id="DejaVuSans-74" transform="scale(0.015625)"/>
     </defs>
     <use xlink:href="#DejaVuSans-62"/>
     <use x="63.476562" xlink:href="#DejaVuSans-65"/>
     <use x="125" xlink:href="#DejaVuSans-66"/>
     <use x="160.205078" xlink:href="#DejaVuSans-6f"/>
     <use x="221.386719" xlink:href="#DejaVuSans-72"/>
     <use x="260.25" xlink:href="#DejaVuSans-65"/>
     <use x="321.773438" xlink:href="#DejaVuSans-20"/>
     <use x="353.560547" xlink:href="#DejaVuSans-62"/>
     <use x="417.037109" xlink:href="#DejaVuSans-69"/>
     <use x="444.820312" xlink:href="#DejaVuSans-6e"/>
     <use x="508.199219" xlink:href="#DejaVuSans-61"/>
     <use x="569.478516" xlink:href="#DejaVuSans-72"/>
     <use x="610.591797" xlink:href="#DejaVuSans-69"/>
     <use x="638.375" xlink:href="#DejaVuSans-73"/>
     <use x="690.474609" xlink:href="#DejaVuSans-61"/>
     <use x="751.753906" xlink:href="#DejaVuSans-74"/>
     <use x="790.962891" xlink:href="#DejaVuSans-69"/>
     <use x="818.746094" xlink:href="#DejaVuSans-6f"/>
     <use x="879.927734" xlink:href="#DejaVuSans-6e"/>
    </g>
   </g>
  </g>
  <g id="axes_2">
   <g id="patch_7">
    <path d="M 50.14375 1264.318125 
L 1724.14375 1264.318125 
L 1724.14375 699.77267 
L 50.14375 699.77267 
z
" style="fill:#ffffff;"/>
   </g>
   <g id="matplotlib.axis_3">
    <g id="xtick_8">
     <g id="line2d_17">
      <g>
       <use style="stroke:#000000;stroke-width:0.8;" x="126.234659" xlink:href="#m3cd7a99fca" y="1264.318125"/>
      </g>
     </g>
     <g id="text_19">
      <!-- 0 -->
      <g transform="translate(123.053409 1278.916563)scale(0.1 -0.1)">
       <use xlink:href="#DejaVuSans-30"/>
      </g>
     </g>
    </g>
    <g id="xtick_9">
     <g id="line2d_18">
      <g>
       <use style="stroke:#000000;stroke-width:0.8;" x="373.886113" xlink:href="#m3cd7a99fca" y="1264.318125"/>
      </g>
     </g>
     <g id="text_20">
      <!-- 200 -->
      <g transform="translate(364.342363 1278.916563)scale(0.1 -0.1)">
       <use xlink:href="#DejaVuSans-32"/>
       <use x="63.623047" xlink:href="#DejaVuSans-30"/>
       <use x="127.246094" xlink:href="#DejaVuSans-30"/>
      </g>
     </g>
    </g>
    <g id="xtick_10">
     <g id="line2d_19">
      <g>
       <use style="stroke:#000000;stroke-width:0.8;" x="621.537566" xlink:href="#m3cd7a99fca" y="1264.318125"/>
      </g>
     </g>
     <g id="text_21">
      <!-- 400 -->
      <g transform="translate(611.993816 1278.916563)scale(0.1 -0.1)">
       <use xlink:href="#DejaVuSans-34"/>
       <use x="63.623047" xlink:href="#DejaVuSans-30"/>
       <use x="127.246094" xlink:href="#DejaVuSans-30"/>
      </g>
     </g>
    </g>
    <g id="xtick_11">
     <g id="line2d_20">
      <g>
       <use style="stroke:#000000;stroke-width:0.8;" x="869.18902" xlink:href="#m3cd7a99fca" y="1264.318125"/>
      </g>
     </g>
     <g id="text_22">
      <!-- 600 -->
      <g transform="translate(859.64527 1278.916563)scale(0.1 -0.1)">
       <use xlink:href="#DejaVuSans-36"/>
       <use x="63.623047" xlink:href="#DejaVuSans-30"/>
       <use x="127.246094" xlink:href="#DejaVuSans-30"/>
      </g>
     </g>
    </g>
    <g id="xtick_12">
     <g id="line2d_21">
      <g>
       <use style="stroke:#000000;stroke-width:0.8;" x="1116.840473" xlink:href="#m3cd7a99fca" y="1264.318125"/>
      </g>
     </g>
     <g id="text_23">
      <!-- 800 -->
      <g transform="translate(1107.296723 1278.916563)scale(0.1 -0.1)">
       <use xlink:href="#DejaVuSans-38"/>
       <use x="63.623047" xlink:href="#DejaVuSans-30"/>
       <use x="127.246094" xlink:href="#DejaVuSans-30"/>
      </g>
     </g>
    </g>
    <g id="xtick_13">
     <g id="line2d_22">
      <g>
       <use style="stroke:#000000;stroke-width:0.8;" x="1364.491927" xlink:href="#m3cd7a99fca" y="1264.318125"/>
      </g>
     </g>
     <g id="text_24">
      <!-- 1000 -->
      <g transform="translate(1351.766927 1278.916563)scale(0.1 -0.1)">
       <use xlink:href="#DejaVuSans-31"/>
       <use x="63.623047" xlink:href="#DejaVuSans-30"/>
       <use x="127.246094" xlink:href="#DejaVuSans-30"/>
       <use x="190.869141" xlink:href="#DejaVuSans-30"/>
      </g>
     </g>
    </g>
    <g id="xtick_14">
     <g id="line2d_23">
      <g>
       <use style="stroke:#000000;stroke-width:0.8;" x="1612.14338" xlink:href="#m3cd7a99fca" y="1264.318125"/>
      </g>
     </g>
     <g id="text_25">
      <!-- 1200 -->
      <g transform="translate(1599.41838 1278.916563)scale(0.1 -0.1)">
       <use xlink:href="#DejaVuSans-31"/>
       <use x="63.623047" xlink:href="#DejaVuSans-32"/>
       <use x="127.246094" xlink:href="#DejaVuSans-30"/>
       <use x="190.869141" xlink:href="#DejaVuSans-30"/>
      </g>
     </g>
    </g>
    <g id="text_26">
     <!-- frame -->
     <g transform="translate(872.317187 1292.594688)scale(0.1 -0.1)">
      <use xlink:href="#DejaVuSans-66"/>
      <use x="35.205078" xlink:href="#DejaVuSans-72"/>
      <use x="76.318359" xlink:href="#DejaVuSans-61"/>
      <use x="137.597656" xlink:href="#DejaVuSans-6d"/>
      <use x="235.009766" xlink:href="#DejaVuSans-65"/>
     </g>
    </g>
   </g>
   <g id="matplotlib.axis_4">
    <g id="ytick_9">
     <g id="line2d_24">
      <g>
       <use style="stroke:#000000;stroke-width:0.8;" x="50.14375" xlink:href="#m0b6c419690" y="1238.656968"/>
      </g>
     </g>
     <g id="text_27">
      <!-- 0.0 -->
      <g transform="translate(27.240625 1242.456187)scale(0.1 -0.1)">
       <use xlink:href="#DejaVuSans-30"/>
       <use x="63.623047" xlink:href="#DejaVuSans-2e"/>
       <use x="95.410156" xlink:href="#DejaVuSans-30"/>
      </g>
     </g>
    </g>
    <g id="ytick_10">
     <g id="line2d_25">
      <g>
       <use style="stroke:#000000;stroke-width:0.8;" x="50.14375" xlink:href="#m0b6c419690" y="1136.01234"/>
      </g>
     </g>
     <g id="text_28">
      <!-- 0.2 -->
      <g transform="translate(27.240625 1139.811559)scale(0.1 -0.1)">
       <use xlink:href="#DejaVuSans-30"/>
       <use x="63.623047" xlink:href="#DejaVuSans-2e"/>
       <use x="95.410156" xlink:href="#DejaVuSans-32"/>
      </g>
     </g>
    </g>
    <g id="ytick_11">
     <g id="line2d_26">
      <g>
       <use style="stroke:#000000;stroke-width:0.8;" x="50.14375" xlink:href="#m0b6c419690" y="1033.367712"/>
      </g>
     </g>
     <g id="text_29">
      <!-- 0.4 -->
      <g transform="translate(27.240625 1037.166931)scale(0.1 -0.1)">
       <use xlink:href="#DejaVuSans-30"/>
       <use x="63.623047" xlink:href="#DejaVuSans-2e"/>
       <use x="95.410156" xlink:href="#DejaVuSans-34"/>
      </g>
     </g>
    </g>
    <g id="ytick_12">
     <g id="line2d_27">
      <g>
       <use style="stroke:#000000;stroke-width:0.8;" x="50.14375" xlink:href="#m0b6c419690" y="930.723084"/>
      </g>
     </g>
     <g id="text_30">
      <!-- 0.6 -->
      <g transform="translate(27.240625 934.522302)scale(0.1 -0.1)">
       <use xlink:href="#DejaVuSans-30"/>
       <use x="63.623047" xlink:href="#DejaVuSans-2e"/>
       <use x="95.410156" xlink:href="#DejaVuSans-36"/>
      </g>
     </g>
    </g>
    <g id="ytick_13">
     <g id="line2d_28">
      <g>
       <use style="stroke:#000000;stroke-width:0.8;" x="50.14375" xlink:href="#m0b6c419690" y="828.078456"/>
      </g>
     </g>
     <g id="text_31">
      <!-- 0.8 -->
      <g transform="translate(27.240625 831.877674)scale(0.1 -0.1)">
       <use xlink:href="#DejaVuSans-30"/>
       <use x="63.623047" xlink:href="#DejaVuSans-2e"/>
       <use x="95.410156" xlink:href="#DejaVuSans-38"/>
      </g>
     </g>
    </g>
    <g id="ytick_14">
     <g id="line2d_29">
      <g>
       <use style="stroke:#000000;stroke-width:0.8;" x="50.14375" xlink:href="#m0b6c419690" y="725.433827"/>
      </g>
     </g>
     <g id="text_32">
      <!-- 1.0 -->
      <g transform="translate(27.240625 729.233046)scale(0.1 -0.1)">
       <use xlink:href="#DejaVuSans-31"/>
       <use x="63.623047" xlink:href="#DejaVuSans-2e"/>
       <use x="95.410156" xlink:href="#DejaVuSans-30"/>
      </g>
     </g>
    </g>
    <g id="text_33">
     <!-- GCaMP -->
     <g transform="translate(21.160938 999.803991)rotate(-90)scale(0.1 -0.1)">
      <use xlink:href="#DejaVuSans-47"/>
      <use x="77.490234" xlink:href="#DejaVuSans-43"/>
      <use x="147.314453" xlink:href="#DejaVuSans-61"/>
      <use x="208.59375" xlink:href="#DejaVuSans-4d"/>
      <use x="294.873047" xlink:href="#DejaVuSans-50"/>
     </g>
    </g>
   </g>
   <g id="line2d_30">
    <path clip-path="url(#p4a9e86ed1c)" d="M 126.234659 1238.656968 
L 199.291838 1238.656968 
L 200.530095 725.433827 
L 311.973249 725.433827 
L 313.211506 1238.656968 
L 323.117565 1238.656968 
L 324.355822 725.433827 
L 325.594079 725.433827 
L 326.832336 1238.656968 
L 350.359225 1238.656968 
L 351.597482 725.433827 
L 492.75881 725.433827 
L 493.997068 1238.656968 
L 496.473582 1238.656968 
L 497.711839 725.433827 
L 505.141383 725.433827 
L 506.37964 1238.656968 
L 516.285698 1238.656968 
L 517.523956 725.433827 
L 518.762213 725.433827 
L 520.00047 1238.656968 
L 565.815989 1238.656968 
L 567.054246 725.433827 
L 584.389848 725.433827 
L 585.628105 1238.656968 
L 1648.052841 1238.656968 
L 1648.052841 1238.656968 
" style="fill:none;stroke:#008000;stroke-linecap:square;stroke-width:1.5;"/>
   </g>
   <g id="patch_8">
    <path d="M 50.14375 1264.318125 
L 50.14375 699.77267 
" style="fill:none;stroke:#000000;stroke-linecap:square;stroke-linejoin:miter;stroke-width:0.8;"/>
   </g>
   <g id="patch_9">
    <path d="M 1724.14375 1264.318125 
L 1724.14375 699.77267 
" style="fill:none;stroke:#000000;stroke-linecap:square;stroke-linejoin:miter;stroke-width:0.8;"/>
   </g>
   <g id="patch_10">
    <path d="M 50.14375 1264.318125 
L 1724.14375 1264.318125 
" style="fill:none;stroke:#000000;stroke-linecap:square;stroke-linejoin:miter;stroke-width:0.8;"/>
   </g>
   <g id="patch_11">
    <path d="M 50.14375 699.77267 
L 1724.14375 699.77267 
" style="fill:none;stroke:#000000;stroke-linecap:square;stroke-linejoin:miter;stroke-width:0.8;"/>
   </g>
   <g id="text_34">
    <!-- before binarisation -->
    <g transform="translate(830.545 693.77267)scale(0.12 -0.12)">
     <use xlink:href="#DejaVuSans-62"/>
     <use x="63.476562" xlink:href="#DejaVuSans-65"/>
     <use x="125" xlink:href="#DejaVuSans-66"/>
     <use x="160.205078" xlink:href="#DejaVuSans-6f"/>
     <use x="221.386719" xlink:href="#DejaVuSans-72"/>
     <use x="260.25" xlink:href="#DejaVuSans-65"/>
     <use x="321.773438" xlink:href="#DejaVuSans-20"/>
     <use x="353.560547" xlink:href="#DejaVuSans-62"/>
     <use x="417.037109" xlink:href="#DejaVuSans-69"/>
     <use x="444.820312" xlink:href="#DejaVuSans-6e"/>
     <use x="508.199219" xlink:href="#DejaVuSans-61"/>
     <use x="569.478516" xlink:href="#DejaVuSans-72"/>
     <use x="610.591797" xlink:href="#DejaVuSans-69"/>
     <use x="638.375" xlink:href="#DejaVuSans-73"/>
     <use x="690.474609" xlink:href="#DejaVuSans-61"/>
     <use x="751.753906" xlink:href="#DejaVuSans-74"/>
     <use x="790.962891" xlink:href="#DejaVuSans-69"/>
     <use x="818.746094" xlink:href="#DejaVuSans-6f"/>
     <use x="879.927734" xlink:href="#DejaVuSans-6e"/>
    </g>
   </g>
  </g>
 </g>
 <defs>
  <clipPath id="p64a72fac5b">
   <rect height="564.545455" width="1674" x="50.14375" y="22.318125"/>
  </clipPath>
  <clipPath id="p4a9e86ed1c">
   <rect height="564.545455" width="1674" x="50.14375" y="699.77267"/>
  </clipPath>
 </defs>
</svg>
