<?xml version="1.0" encoding="utf-8" standalone="no"?>
<!DOCTYPE svg PUBLIC "-//W3C//DTD SVG 1.1//EN"
  "http://www.w3.org/Graphics/SVG/1.1/DTD/svg11.dtd">
<svg height="1301.874375pt" version="1.1" viewBox="0 0 1724.98125 1301.874375" width="1724.98125pt" xmlns="http://www.w3.org/2000/svg" xmlns:xlink="http://www.w3.org/1999/xlink">
 <metadata>
  <rdf:RDF xmlns:cc="http://creativecommons.org/ns#" xmlns:dc="http://purl.org/dc/elements/1.1/" xmlns:rdf="http://www.w3.org/1999/02/22-rdf-syntax-ns#">
   <cc:Work>
    <dc:type rdf:resource="http://purl.org/dc/dcmitype/StillImage"/>
    <dc:date>2022-07-24T15:54:48.356743</dc:date>
    <dc:format>image/svg+xml</dc:format>
    <dc:creator>
     <cc:Agent>
      <dc:title>Matplotlib v3.4.2, https://matplotlib.org/</dc:title>
     </cc:Agent>
    </dc:creator>
   </cc:Work>
  </rdf:RDF>
 </metadata>
 <defs>
  <style type="text/css">*{stroke-linecap:butt;stroke-linejoin:round;}</style>
 </defs>
 <g id="figure_1">
  <g id="patch_1">
   <path d="M 0 1301.874375 
L 1724.98125 1301.874375 
L 1724.98125 0 
L 0 0 
z
" style="fill:#ffffff;"/>
  </g>
  <g id="axes_1">
   <g id="patch_2">
    <path d="M 43.78125 586.86358 
L 1717.78125 586.86358 
L 1717.78125 22.318125 
L 43.78125 22.318125 
z
" style="fill:#ffffff;"/>
   </g>
   <g id="matplotlib.axis_1">
    <g id="xtick_1">
     <g id="line2d_1">
      <defs>
       <path d="M 0 0 
L 0 3.5 
" id="mc5a53129f0" style="stroke:#000000;stroke-width:0.8;"/>
      </defs>
      <g>
       <use style="stroke:#000000;stroke-width:0.8;" x="119.872159" xlink:href="#mc5a53129f0" y="586.86358"/>
      </g>
     </g>
     <g id="text_1">
      <!-- 0 -->
      <g transform="translate(116.690909 601.462017)scale(0.1 -0.1)">
       <defs>
        <path d="M 2034 4250 
Q 1547 4250 1301 3770 
Q 1056 3291 1056 2328 
Q 1056 1369 1301 889 
Q 1547 409 2034 409 
Q 2525 409 2770 889 
Q 3016 1369 3016 2328 
Q 3016 3291 2770 3770 
Q 2525 4250 2034 4250 
z
M 2034 4750 
Q 2819 4750 3233 4129 
Q 3647 3509 3647 2328 
Q 3647 1150 3233 529 
Q 2819 -91 2034 -91 
Q 1250 -91 836 529 
Q 422 1150 422 2328 
Q 422 3509 836 4129 
Q 1250 4750 2034 4750 
z
" id="DejaVuSans-30" transform="scale(0.015625)"/>
       </defs>
       <use xlink:href="#DejaVuSans-30"/>
      </g>
     </g>
    </g>
    <g id="xtick_2">
     <g id="line2d_2">
      <g>
       <use style="stroke:#000000;stroke-width:0.8;" x="367.523613" xlink:href="#mc5a53129f0" y="586.86358"/>
      </g>
     </g>
     <g id="text_2">
      <!-- 200 -->
      <g transform="translate(357.979863 601.462017)scale(0.1 -0.1)">
       <defs>
        <path d="M 1228 531 
L 3431 531 
L 3431 0 
L 469 0 
L 469 531 
Q 828 903 1448 1529 
Q 2069 2156 2228 2338 
Q 2531 2678 2651 2914 
Q 2772 3150 2772 3378 
Q 2772 3750 2511 3984 
Q 2250 4219 1831 4219 
Q 1534 4219 1204 4116 
Q 875 4013 500 3803 
L 500 4441 
Q 881 4594 1212 4672 
Q 1544 4750 1819 4750 
Q 2544 4750 2975 4387 
Q 3406 4025 3406 3419 
Q 3406 3131 3298 2873 
Q 3191 2616 2906 2266 
Q 2828 2175 2409 1742 
Q 1991 1309 1228 531 
z
" id="DejaVuSans-32" transform="scale(0.015625)"/>
       </defs>
       <use xlink:href="#DejaVuSans-32"/>
       <use x="63.623047" xlink:href="#DejaVuSans-30"/>
       <use x="127.246094" xlink:href="#DejaVuSans-30"/>
      </g>
     </g>
    </g>
    <g id="xtick_3">
     <g id="line2d_3">
      <g>
       <use style="stroke:#000000;stroke-width:0.8;" x="615.175066" xlink:href="#mc5a53129f0" y="586.86358"/>
      </g>
     </g>
     <g id="text_3">
      <!-- 400 -->
      <g transform="translate(605.631316 601.462017)scale(0.1 -0.1)">
       <defs>
        <path d="M 2419 4116 
L 825 1625 
L 2419 1625 
L 2419 4116 
z
M 2253 4666 
L 3047 4666 
L 3047 1625 
L 3713 1625 
L 3713 1100 
L 3047 1100 
L 3047 0 
L 2419 0 
L 2419 1100 
L 313 1100 
L 313 1709 
L 2253 4666 
z
" id="DejaVuSans-34" transform="scale(0.015625)"/>
       </defs>
       <use xlink:href="#DejaVuSans-34"/>
       <use x="63.623047" xlink:href="#DejaVuSans-30"/>
       <use x="127.246094" xlink:href="#DejaVuSans-30"/>
      </g>
     </g>
    </g>
    <g id="xtick_4">
     <g id="line2d_4">
      <g>
       <use style="stroke:#000000;stroke-width:0.8;" x="862.82652" xlink:href="#mc5a53129f0" y="586.86358"/>
      </g>
     </g>
     <g id="text_4">
      <!-- 600 -->
      <g transform="translate(853.28277 601.462017)scale(0.1 -0.1)">
       <defs>
        <path d="M 2113 2584 
Q 1688 2584 1439 2293 
Q 1191 2003 1191 1497 
Q 1191 994 1439 701 
Q 1688 409 2113 409 
Q 2538 409 2786 701 
Q 3034 994 3034 1497 
Q 3034 2003 2786 2293 
Q 2538 2584 2113 2584 
z
M 3366 4563 
L 3366 3988 
Q 3128 4100 2886 4159 
Q 2644 4219 2406 4219 
Q 1781 4219 1451 3797 
Q 1122 3375 1075 2522 
Q 1259 2794 1537 2939 
Q 1816 3084 2150 3084 
Q 2853 3084 3261 2657 
Q 3669 2231 3669 1497 
Q 3669 778 3244 343 
Q 2819 -91 2113 -91 
Q 1303 -91 875 529 
Q 447 1150 447 2328 
Q 447 3434 972 4092 
Q 1497 4750 2381 4750 
Q 2619 4750 2861 4703 
Q 3103 4656 3366 4563 
z
" id="DejaVuSans-36" transform="scale(0.015625)"/>
       </defs>
       <use xlink:href="#DejaVuSans-36"/>
       <use x="63.623047" xlink:href="#DejaVuSans-30"/>
       <use x="127.246094" xlink:href="#DejaVuSans-30"/>
      </g>
     </g>
    </g>
    <g id="xtick_5">
     <g id="line2d_5">
      <g>
       <use style="stroke:#000000;stroke-width:0.8;" x="1110.477973" xlink:href="#mc5a53129f0" y="586.86358"/>
      </g>
     </g>
     <g id="text_5">
      <!-- 800 -->
      <g transform="translate(1100.934223 601.462017)scale(0.1 -0.1)">
       <defs>
        <path d="M 2034 2216 
Q 1584 2216 1326 1975 
Q 1069 1734 1069 1313 
Q 1069 891 1326 650 
Q 1584 409 2034 409 
Q 2484 409 2743 651 
Q 3003 894 3003 1313 
Q 3003 1734 2745 1975 
Q 2488 2216 2034 2216 
z
M 1403 2484 
Q 997 2584 770 2862 
Q 544 3141 544 3541 
Q 544 4100 942 4425 
Q 1341 4750 2034 4750 
Q 2731 4750 3128 4425 
Q 3525 4100 3525 3541 
Q 3525 3141 3298 2862 
Q 3072 2584 2669 2484 
Q 3125 2378 3379 2068 
Q 3634 1759 3634 1313 
Q 3634 634 3220 271 
Q 2806 -91 2034 -91 
Q 1263 -91 848 271 
Q 434 634 434 1313 
Q 434 1759 690 2068 
Q 947 2378 1403 2484 
z
M 1172 3481 
Q 1172 3119 1398 2916 
Q 1625 2713 2034 2713 
Q 2441 2713 2670 2916 
Q 2900 3119 2900 3481 
Q 2900 3844 2670 4047 
Q 2441 4250 2034 4250 
Q 1625 4250 1398 4047 
Q 1172 3844 1172 3481 
z
" id="DejaVuSans-38" transform="scale(0.015625)"/>
       </defs>
       <use xlink:href="#DejaVuSans-38"/>
       <use x="63.623047" xlink:href="#DejaVuSans-30"/>
       <use x="127.246094" xlink:href="#DejaVuSans-30"/>
      </g>
     </g>
    </g>
    <g id="xtick_6">
     <g id="line2d_6">
      <g>
       <use style="stroke:#000000;stroke-width:0.8;" x="1358.129427" xlink:href="#mc5a53129f0" y="586.86358"/>
      </g>
     </g>
     <g id="text_6">
      <!-- 1000 -->
      <g transform="translate(1345.404427 601.462017)scale(0.1 -0.1)">
       <defs>
        <path d="M 794 531 
L 1825 531 
L 1825 4091 
L 703 3866 
L 703 4441 
L 1819 4666 
L 2450 4666 
L 2450 531 
L 3481 531 
L 3481 0 
L 794 0 
L 794 531 
z
" id="DejaVuSans-31" transform="scale(0.015625)"/>
       </defs>
       <use xlink:href="#DejaVuSans-31"/>
       <use x="63.623047" xlink:href="#DejaVuSans-30"/>
       <use x="127.246094" xlink:href="#DejaVuSans-30"/>
       <use x="190.869141" xlink:href="#DejaVuSans-30"/>
      </g>
     </g>
    </g>
    <g id="xtick_7">
     <g id="line2d_7">
      <g>
       <use style="stroke:#000000;stroke-width:0.8;" x="1605.78088" xlink:href="#mc5a53129f0" y="586.86358"/>
      </g>
     </g>
     <g id="text_7">
      <!-- 1200 -->
      <g transform="translate(1593.05588 601.462017)scale(0.1 -0.1)">
       <use xlink:href="#DejaVuSans-31"/>
       <use x="63.623047" xlink:href="#DejaVuSans-32"/>
       <use x="127.246094" xlink:href="#DejaVuSans-30"/>
       <use x="190.869141" xlink:href="#DejaVuSans-30"/>
      </g>
     </g>
    </g>
    <g id="text_8">
     <!-- frame -->
     <g transform="translate(865.954687 615.140142)scale(0.1 -0.1)">
      <defs>
       <path d="M 2375 4863 
L 2375 4384 
L 1825 4384 
Q 1516 4384 1395 4259 
Q 1275 4134 1275 3809 
L 1275 3500 
L 2222 3500 
L 2222 3053 
L 1275 3053 
L 1275 0 
L 697 0 
L 697 3053 
L 147 3053 
L 147 3500 
L 697 3500 
L 697 3744 
Q 697 4328 969 4595 
Q 1241 4863 1831 4863 
L 2375 4863 
z
" id="DejaVuSans-66" transform="scale(0.015625)"/>
       <path d="M 2631 2963 
Q 2534 3019 2420 3045 
Q 2306 3072 2169 3072 
Q 1681 3072 1420 2755 
Q 1159 2438 1159 1844 
L 1159 0 
L 581 0 
L 581 3500 
L 1159 3500 
L 1159 2956 
Q 1341 3275 1631 3429 
Q 1922 3584 2338 3584 
Q 2397 3584 2469 3576 
Q 2541 3569 2628 3553 
L 2631 2963 
z
" id="DejaVuSans-72" transform="scale(0.015625)"/>
       <path d="M 2194 1759 
Q 1497 1759 1228 1600 
Q 959 1441 959 1056 
Q 959 750 1161 570 
Q 1363 391 1709 391 
Q 2188 391 2477 730 
Q 2766 1069 2766 1631 
L 2766 1759 
L 2194 1759 
z
M 3341 1997 
L 3341 0 
L 2766 0 
L 2766 531 
Q 2569 213 2275 61 
Q 1981 -91 1556 -91 
Q 1019 -91 701 211 
Q 384 513 384 1019 
Q 384 1609 779 1909 
Q 1175 2209 1959 2209 
L 2766 2209 
L 2766 2266 
Q 2766 2663 2505 2880 
Q 2244 3097 1772 3097 
Q 1472 3097 1187 3025 
Q 903 2953 641 2809 
L 641 3341 
Q 956 3463 1253 3523 
Q 1550 3584 1831 3584 
Q 2591 3584 2966 3190 
Q 3341 2797 3341 1997 
z
" id="DejaVuSans-61" transform="scale(0.015625)"/>
       <path d="M 3328 2828 
Q 3544 3216 3844 3400 
Q 4144 3584 4550 3584 
Q 5097 3584 5394 3201 
Q 5691 2819 5691 2113 
L 5691 0 
L 5113 0 
L 5113 2094 
Q 5113 2597 4934 2840 
Q 4756 3084 4391 3084 
Q 3944 3084 3684 2787 
Q 3425 2491 3425 1978 
L 3425 0 
L 2847 0 
L 2847 2094 
Q 2847 2600 2669 2842 
Q 2491 3084 2119 3084 
Q 1678 3084 1418 2786 
Q 1159 2488 1159 1978 
L 1159 0 
L 581 0 
L 581 3500 
L 1159 3500 
L 1159 2956 
Q 1356 3278 1631 3431 
Q 1906 3584 2284 3584 
Q 2666 3584 2933 3390 
Q 3200 3197 3328 2828 
z
" id="DejaVuSans-6d" transform="scale(0.015625)"/>
       <path d="M 3597 1894 
L 3597 1613 
L 953 1613 
Q 991 1019 1311 708 
Q 1631 397 2203 397 
Q 2534 397 2845 478 
Q 3156 559 3463 722 
L 3463 178 
Q 3153 47 2828 -22 
Q 2503 -91 2169 -91 
Q 1331 -91 842 396 
Q 353 884 353 1716 
Q 353 2575 817 3079 
Q 1281 3584 2069 3584 
Q 2775 3584 3186 3129 
Q 3597 2675 3597 1894 
z
M 3022 2063 
Q 3016 2534 2758 2815 
Q 2500 3097 2075 3097 
Q 1594 3097 1305 2825 
Q 1016 2553 972 2059 
L 3022 2063 
z
" id="DejaVuSans-65" transform="scale(0.015625)"/>
      </defs>
      <use xlink:href="#DejaVuSans-66"/>
      <use x="35.205078" xlink:href="#DejaVuSans-72"/>
      <use x="76.318359" xlink:href="#DejaVuSans-61"/>
      <use x="137.597656" xlink:href="#DejaVuSans-6d"/>
      <use x="235.009766" xlink:href="#DejaVuSans-65"/>
     </g>
    </g>
   </g>
   <g id="matplotlib.axis_2">
    <g id="ytick_1">
     <g id="line2d_8">
      <defs>
       <path d="M 0 0 
L -3.5 0 
" id="m900887716c" style="stroke:#000000;stroke-width:0.8;"/>
      </defs>
      <g>
       <use style="stroke:#000000;stroke-width:0.8;" x="43.78125" xlink:href="#m900887716c" y="572.576327"/>
      </g>
     </g>
     <g id="text_9">
      <!-- 0.5 -->
      <g transform="translate(20.878125 576.375545)scale(0.1 -0.1)">
       <defs>
        <path d="M 684 794 
L 1344 794 
L 1344 0 
L 684 0 
L 684 794 
z
" id="DejaVuSans-2e" transform="scale(0.015625)"/>
        <path d="M 691 4666 
L 3169 4666 
L 3169 4134 
L 1269 4134 
L 1269 2991 
Q 1406 3038 1543 3061 
Q 1681 3084 1819 3084 
Q 2600 3084 3056 2656 
Q 3513 2228 3513 1497 
Q 3513 744 3044 326 
Q 2575 -91 1722 -91 
Q 1428 -91 1123 -41 
Q 819 9 494 109 
L 494 744 
Q 775 591 1075 516 
Q 1375 441 1709 441 
Q 2250 441 2565 725 
Q 2881 1009 2881 1497 
Q 2881 1984 2565 2268 
Q 2250 2553 1709 2553 
Q 1456 2553 1204 2497 
Q 953 2441 691 2322 
L 691 4666 
z
" id="DejaVuSans-35" transform="scale(0.015625)"/>
       </defs>
       <use xlink:href="#DejaVuSans-30"/>
       <use x="63.623047" xlink:href="#DejaVuSans-2e"/>
       <use x="95.410156" xlink:href="#DejaVuSans-35"/>
      </g>
     </g>
    </g>
    <g id="ytick_2">
     <g id="line2d_9">
      <g>
       <use style="stroke:#000000;stroke-width:0.8;" x="43.78125" xlink:href="#m900887716c" y="453.312622"/>
      </g>
     </g>
     <g id="text_10">
      <!-- 1.0 -->
      <g transform="translate(20.878125 457.111841)scale(0.1 -0.1)">
       <use xlink:href="#DejaVuSans-31"/>
       <use x="63.623047" xlink:href="#DejaVuSans-2e"/>
       <use x="95.410156" xlink:href="#DejaVuSans-30"/>
      </g>
     </g>
    </g>
    <g id="ytick_3">
     <g id="line2d_10">
      <g>
       <use style="stroke:#000000;stroke-width:0.8;" x="43.78125" xlink:href="#m900887716c" y="334.048917"/>
      </g>
     </g>
     <g id="text_11">
      <!-- 1.5 -->
      <g transform="translate(20.878125 337.848136)scale(0.1 -0.1)">
       <use xlink:href="#DejaVuSans-31"/>
       <use x="63.623047" xlink:href="#DejaVuSans-2e"/>
       <use x="95.410156" xlink:href="#DejaVuSans-35"/>
      </g>
     </g>
    </g>
    <g id="ytick_4">
     <g id="line2d_11">
      <g>
       <use style="stroke:#000000;stroke-width:0.8;" x="43.78125" xlink:href="#m900887716c" y="214.785212"/>
      </g>
     </g>
     <g id="text_12">
      <!-- 2.0 -->
      <g transform="translate(20.878125 218.584431)scale(0.1 -0.1)">
       <use xlink:href="#DejaVuSans-32"/>
       <use x="63.623047" xlink:href="#DejaVuSans-2e"/>
       <use x="95.410156" xlink:href="#DejaVuSans-30"/>
      </g>
     </g>
    </g>
    <g id="ytick_5">
     <g id="line2d_12">
      <g>
       <use style="stroke:#000000;stroke-width:0.8;" x="43.78125" xlink:href="#m900887716c" y="95.521507"/>
      </g>
     </g>
     <g id="text_13">
      <!-- 2.5 -->
      <g transform="translate(20.878125 99.320726)scale(0.1 -0.1)">
       <use xlink:href="#DejaVuSans-32"/>
       <use x="63.623047" xlink:href="#DejaVuSans-2e"/>
       <use x="95.410156" xlink:href="#DejaVuSans-35"/>
      </g>
     </g>
    </g>
    <g id="text_14">
     <!-- GCaMP -->
     <g transform="translate(14.798437 322.349446)rotate(-90)scale(0.1 -0.1)">
      <defs>
       <path d="M 3809 666 
L 3809 1919 
L 2778 1919 
L 2778 2438 
L 4434 2438 
L 4434 434 
Q 4069 175 3628 42 
Q 3188 -91 2688 -91 
Q 1594 -91 976 548 
Q 359 1188 359 2328 
Q 359 3472 976 4111 
Q 1594 4750 2688 4750 
Q 3144 4750 3555 4637 
Q 3966 4525 4313 4306 
L 4313 3634 
Q 3963 3931 3569 4081 
Q 3175 4231 2741 4231 
Q 1884 4231 1454 3753 
Q 1025 3275 1025 2328 
Q 1025 1384 1454 906 
Q 1884 428 2741 428 
Q 3075 428 3337 486 
Q 3600 544 3809 666 
z
" id="DejaVuSans-47" transform="scale(0.015625)"/>
       <path d="M 4122 4306 
L 4122 3641 
Q 3803 3938 3442 4084 
Q 3081 4231 2675 4231 
Q 1875 4231 1450 3742 
Q 1025 3253 1025 2328 
Q 1025 1406 1450 917 
Q 1875 428 2675 428 
Q 3081 428 3442 575 
Q 3803 722 4122 1019 
L 4122 359 
Q 3791 134 3420 21 
Q 3050 -91 2638 -91 
Q 1578 -91 968 557 
Q 359 1206 359 2328 
Q 359 3453 968 4101 
Q 1578 4750 2638 4750 
Q 3056 4750 3426 4639 
Q 3797 4528 4122 4306 
z
" id="DejaVuSans-43" transform="scale(0.015625)"/>
       <path d="M 628 4666 
L 1569 4666 
L 2759 1491 
L 3956 4666 
L 4897 4666 
L 4897 0 
L 4281 0 
L 4281 4097 
L 3078 897 
L 2444 897 
L 1241 4097 
L 1241 0 
L 628 0 
L 628 4666 
z
" id="DejaVuSans-4d" transform="scale(0.015625)"/>
       <path d="M 1259 4147 
L 1259 2394 
L 2053 2394 
Q 2494 2394 2734 2622 
Q 2975 2850 2975 3272 
Q 2975 3691 2734 3919 
Q 2494 4147 2053 4147 
L 1259 4147 
z
M 628 4666 
L 2053 4666 
Q 2838 4666 3239 4311 
Q 3641 3956 3641 3272 
Q 3641 2581 3239 2228 
Q 2838 1875 2053 1875 
L 1259 1875 
L 1259 0 
L 628 0 
L 628 4666 
z
" id="DejaVuSans-50" transform="scale(0.015625)"/>
      </defs>
      <use xlink:href="#DejaVuSans-47"/>
      <use x="77.490234" xlink:href="#DejaVuSans-43"/>
      <use x="147.314453" xlink:href="#DejaVuSans-61"/>
      <use x="208.59375" xlink:href="#DejaVuSans-4d"/>
      <use x="294.873047" xlink:href="#DejaVuSans-50"/>
     </g>
    </g>
   </g>
   <g id="line2d_13">
    <path clip-path="url(#pa74d2de4ec)" d="M 119.872159 561.202423 
L 121.110416 558.094054 
L 123.586931 552.29595 
L 124.825188 548.296338 
L 126.063445 542.905823 
L 127.301703 536.342758 
L 131.016474 514.472627 
L 132.254732 508.868917 
L 133.492989 505.455425 
L 134.731246 503.778699 
L 135.969504 502.631226 
L 137.207761 501.046074 
L 138.446018 498.679227 
L 139.684275 495.521737 
L 140.922533 491.573232 
L 142.16079 486.905026 
L 145.875562 471.41596 
L 147.113819 467.144494 
L 148.352076 463.969651 
L 150.828591 458.945025 
L 152.066848 455.156934 
L 153.305105 449.475216 
L 154.543363 441.908039 
L 158.258134 416.330276 
L 159.496392 410.014591 
L 160.734649 405.481035 
L 161.972906 402.375516 
L 163.211163 400.033581 
L 166.925935 393.635323 
L 168.164193 390.727961 
L 169.40245 387.511157 
L 170.640707 384.814747 
L 171.878964 383.243376 
L 174.355479 382.063794 
L 175.593736 380.763204 
L 176.831993 378.779154 
L 178.070251 376.561985 
L 179.308508 373.641448 
L 180.546765 368.606802 
L 181.785022 360.820476 
L 184.261537 341.750875 
L 185.499794 333.441552 
L 186.738052 326.672949 
L 187.976309 321.065593 
L 191.691081 307.011513 
L 194.167595 294.951106 
L 195.405852 290.553519 
L 196.64411 288.186304 
L 197.882367 287.397814 
L 199.120624 288.032291 
L 200.358881 289.240457 
L 201.597139 289.248371 
L 202.835396 287.03221 
L 205.311911 278.989447 
L 206.550168 275.09286 
L 207.788425 270.815266 
L 209.026682 264.674674 
L 210.26494 255.896422 
L 213.979711 223.823166 
L 215.217969 215.075216 
L 216.456226 207.725642 
L 217.694483 202.23968 
L 218.93274 199.640857 
L 220.170998 200.49907 
L 221.409255 204.020069 
L 222.647512 208.411658 
L 223.88577 211.744695 
L 225.124027 212.245293 
L 226.362284 208.801039 
L 228.838799 195.138841 
L 230.077056 191.965591 
L 231.315313 194.636402 
L 232.55357 201.216604 
L 233.791828 207.148694 
L 235.030085 208.618498 
L 236.268342 204.876817 
L 238.744857 190.796735 
L 239.983114 186.147585 
L 241.221371 185.421572 
L 243.697886 189.797568 
L 244.936143 188.903418 
L 246.1744 183.417112 
L 247.412658 173.463439 
L 249.889172 149.665181 
L 251.127429 141.927689 
L 252.365687 138.352501 
L 253.603944 137.881405 
L 254.842201 138.065432 
L 256.080459 135.777289 
L 257.318716 129.427769 
L 259.79523 109.911668 
L 261.033488 102.314269 
L 262.271745 98.833646 
L 263.510002 98.57122 
L 264.748259 99.170366 
L 265.986517 99.529714 
L 267.224774 99.729133 
L 268.463031 98.738569 
L 269.701288 94.748616 
L 270.939546 87.113355 
L 273.41606 65.841441 
L 274.654318 57.535609 
L 275.892575 53.498565 
L 277.130832 52.877635 
L 278.369089 54.419408 
L 279.607347 58.277305 
L 280.845604 64.382947 
L 282.083861 71.124689 
L 283.322118 76.966796 
L 285.798633 86.256549 
L 288.275147 94.591669 
L 289.513405 98.641021 
L 290.751662 103.346096 
L 293.228177 114.894843 
L 294.466434 119.360107 
L 295.704691 121.245932 
L 296.942948 120.935277 
L 298.181206 119.695592 
L 299.419463 117.994284 
L 301.895977 113.358989 
L 303.134235 112.139082 
L 304.372492 112.281093 
L 305.610749 113.422732 
L 306.849006 115.244144 
L 308.087264 117.838036 
L 309.325521 121.506132 
L 311.802036 130.221502 
L 313.040293 132.214704 
L 314.27855 131.00233 
L 315.516807 127.0692 
L 316.755065 121.988903 
L 317.993322 117.55344 
L 319.231579 115.141246 
L 320.469836 115.564365 
L 321.708094 118.397873 
L 322.946351 121.715352 
L 324.184608 124.157028 
L 325.422866 126.856987 
L 326.661123 132.175492 
L 327.89938 140.768522 
L 329.137637 150.455416 
L 330.375895 158.022704 
L 331.614152 161.599142 
L 332.852409 160.989086 
L 334.090666 156.675747 
L 335.328924 149.694629 
L 336.567181 141.986173 
L 337.805438 135.300668 
L 339.043695 129.435486 
L 340.281953 122.692253 
L 343.996725 98.569894 
L 345.234982 92.449228 
L 347.711496 81.401479 
L 348.949754 76.560856 
L 350.188011 74.301324 
L 351.426268 76.332591 
L 352.664525 83.275358 
L 355.14104 105.301043 
L 356.379297 113.247856 
L 357.617554 115.662359 
L 358.855812 112.933923 
L 361.332326 101.97977 
L 362.570584 98.566809 
L 363.808841 97.181102 
L 366.285355 96.302378 
L 367.523613 95.593609 
L 368.76187 94.081938 
L 370.000127 91.250945 
L 371.238384 87.703406 
L 372.476642 85.144006 
L 373.714899 84.353993 
L 374.953156 84.61434 
L 376.191413 85.589249 
L 377.429671 87.433275 
L 378.667928 89.046098 
L 379.906185 88.454199 
L 381.144443 84.721931 
L 382.3827 78.373102 
L 383.620957 70.319686 
L 386.097472 52.975008 
L 387.335729 47.979282 
L 388.573986 48.679123 
L 389.812243 55.4072 
L 391.050501 66.434028 
L 392.288758 78.897899 
L 393.527015 90.078788 
L 394.765272 98.4012 
L 396.00353 103.836494 
L 397.241787 107.28012 
L 398.480044 108.949171 
L 399.718302 108.071217 
L 402.194816 101.183861 
L 403.433073 100.286372 
L 404.671331 103.112054 
L 409.62436 122.499783 
L 412.100874 130.913234 
L 413.339132 133.21848 
L 414.577389 131.753292 
L 415.815646 125.919961 
L 417.053903 117.685645 
L 418.292161 110.506196 
L 419.530418 106.534344 
L 420.768675 104.591766 
L 422.006932 101.656336 
L 423.24519 96.113849 
L 424.483447 89.25484 
L 425.721704 83.840692 
L 426.959961 81.285106 
L 428.198219 80.984829 
L 429.436476 81.885363 
L 430.674733 83.038435 
L 431.912991 83.658055 
L 433.151248 83.798554 
L 434.389505 83.718058 
L 435.627762 82.922451 
L 436.86602 81.349618 
L 438.104277 80.424213 
L 439.342534 81.733302 
L 440.580791 85.529356 
L 443.057306 95.872995 
L 445.53382 104.239916 
L 446.772078 107.838042 
L 448.010335 110.246281 
L 449.248592 110.89125 
L 450.48685 109.311538 
L 451.725107 105.351639 
L 452.963364 100.393812 
L 454.201621 96.525192 
L 455.439879 94.674526 
L 456.678136 94.957831 
L 457.916393 97.953951 
L 459.15465 104.28947 
L 460.392908 113.26 
L 462.869422 132.08633 
L 464.107679 139.320918 
L 465.345937 144.076564 
L 466.584194 146.242564 
L 467.822451 145.732799 
L 469.060709 142.445191 
L 470.298966 137.575276 
L 471.537223 133.809703 
L 472.77548 133.681538 
L 474.013738 137.517254 
L 476.490252 148.554401 
L 477.728509 152.92679 
L 478.966767 155.758472 
L 480.205024 156.667374 
L 481.443281 156.051161 
L 482.681538 154.355125 
L 483.919796 151.227658 
L 485.158053 146.080312 
L 486.39631 140.047881 
L 487.634568 136.543634 
L 488.872825 138.454742 
L 490.111082 145.513158 
L 492.587597 165.149416 
L 493.825854 173.673776 
L 495.064111 178.93135 
L 496.302368 179.204465 
L 497.540626 174.200294 
L 498.778883 165.185715 
L 500.01714 154.518857 
L 501.255397 145.25513 
L 502.493655 140.062813 
L 503.731912 140.263623 
L 504.970169 145.457264 
L 506.208427 153.93492 
L 509.923198 184.430222 
L 511.161456 191.697286 
L 512.399713 196.340669 
L 513.63797 198.717427 
L 514.876227 199.083416 
L 517.352742 197.192839 
L 518.590999 196.72284 
L 519.829257 197.022244 
L 521.067514 198.381754 
L 522.305771 201.059742 
L 523.544028 205.370912 
L 524.782286 210.901798 
L 526.020543 215.451046 
L 527.2588 216.517297 
L 528.497057 213.763688 
L 529.735315 209.123217 
L 530.973572 204.950538 
L 532.211829 202.079741 
L 533.450086 199.96904 
L 534.688344 198.540401 
L 535.926601 198.216973 
L 537.164858 198.620518 
L 538.403116 198.57649 
L 539.641373 197.043436 
L 540.87963 193.708753 
L 543.356145 183.862126 
L 544.594402 181.208545 
L 545.832659 182.949745 
L 547.070916 188.287241 
L 548.309174 194.765854 
L 549.547431 200.573765 
L 550.785688 204.694608 
L 552.023945 206.22982 
L 553.262203 204.70808 
L 554.50046 200.638308 
L 555.738717 195.325531 
L 556.976975 190.512847 
L 558.215232 187.98147 
L 559.453489 188.809226 
L 560.691746 192.981072 
L 563.168261 205.622541 
L 564.406518 209.924032 
L 565.644775 211.466477 
L 566.883033 210.759014 
L 568.12129 208.870059 
L 569.359547 206.453979 
L 571.836062 200.90749 
L 573.074319 198.928092 
L 574.312576 197.980818 
L 575.550834 197.861851 
L 576.789091 198.621086 
L 578.027348 200.411008 
L 580.503863 205.123547 
L 581.74212 207.982015 
L 582.980377 212.15748 
L 584.218634 217.765929 
L 586.695149 230.203764 
L 587.933406 235.468023 
L 590.409921 244.36994 
L 591.648178 248.307971 
L 592.886435 251.28111 
L 594.124693 252.71354 
L 595.36295 252.340951 
L 596.601207 249.925209 
L 597.839464 245.167012 
L 599.077722 238.848714 
L 600.315979 233.257494 
L 601.554236 230.181358 
L 602.792493 229.272045 
L 604.030751 229.313461 
L 605.269008 230.126573 
L 606.507265 232.123708 
L 607.745523 235.204732 
L 608.98378 239.53914 
L 610.222037 246.304168 
L 611.460294 256.306832 
L 613.936809 279.401096 
L 615.175066 287.585987 
L 616.413323 292.401547 
L 617.651581 294.067205 
L 618.889838 292.651107 
L 620.128095 288.451125 
L 623.842867 270.438632 
L 625.081124 268.156016 
L 626.319382 269.96399 
L 627.557639 274.73628 
L 628.795896 280.117008 
L 631.272411 289.70357 
L 632.510668 295.255337 
L 633.748925 301.484138 
L 634.987182 308.646246 
L 636.22544 318.052228 
L 637.463697 330.874714 
L 638.701954 347.024198 
L 641.178469 381.434998 
L 642.416726 393.892484 
L 643.654983 401.078471 
L 644.893241 403.359159 
L 646.131498 401.993039 
L 647.369755 398.886695 
L 648.608012 396.09071 
L 649.84627 394.994818 
L 651.084527 395.842221 
L 652.322784 397.999261 
L 653.561041 400.747438 
L 656.037556 406.862557 
L 657.275813 409.429291 
L 658.51407 410.406921 
L 659.752328 408.751383 
L 660.990585 403.910123 
L 662.228842 395.80578 
L 663.4671 384.915188 
L 664.705357 372.820943 
L 665.943614 362.044308 
L 667.181871 354.814425 
L 668.420129 351.665813 
L 670.896643 350.241394 
L 672.1349 349.01771 
L 673.373158 348.7533 
L 674.611415 351.586539 
L 675.849672 358.380836 
L 678.326187 376.923305 
L 679.564444 383.386622 
L 680.802701 385.88533 
L 682.040959 384.95923 
L 683.279216 382.679131 
L 684.517473 381.123457 
L 685.75573 381.165467 
L 686.993988 382.5457 
L 688.232245 384.438358 
L 689.470502 386.093966 
L 690.708759 387.301925 
L 691.947017 388.224802 
L 693.185274 388.917533 
L 694.423531 389.161111 
L 695.661789 388.494495 
L 696.900046 386.096637 
L 698.138303 381.141587 
L 700.614818 366.706799 
L 701.853075 361.564331 
L 703.091332 359.397858 
L 704.329589 359.726521 
L 705.567847 361.933647 
L 706.806104 365.646118 
L 708.044361 369.99393 
L 709.282618 373.258639 
L 710.520876 374.020624 
L 711.759133 372.226984 
L 715.473905 362.487608 
L 716.712162 360.339675 
L 717.950419 359.137469 
L 719.188677 358.965166 
L 720.426934 359.609853 
L 722.903448 361.823643 
L 724.141706 361.780734 
L 725.379963 359.708661 
L 727.856477 352.153407 
L 729.094735 349.463051 
L 730.332992 348.429128 
L 731.571249 348.876022 
L 732.809507 349.806544 
L 734.047764 349.825958 
L 735.286021 348.46984 
L 736.524278 346.547103 
L 737.762536 345.212061 
L 739.000793 345.335105 
L 740.23905 347.265822 
L 741.477307 350.656785 
L 742.715565 354.837609 
L 743.953822 359.481697 
L 746.430336 370.110014 
L 747.668594 374.28305 
L 748.906851 375.415789 
L 750.145108 373.687307 
L 751.383366 371.519663 
L 752.621623 371.296928 
L 753.85988 373.738875 
L 755.098137 378.329797 
L 756.336395 383.834933 
L 757.574652 388.522721 
L 758.812909 391.521934 
L 760.051166 393.95272 
L 761.289424 397.82399 
L 763.765938 410.404362 
L 765.004195 414.641015 
L 766.242453 414.40188 
L 767.48071 409.484674 
L 768.718967 401.360374 
L 771.195482 381.926807 
L 773.671996 359.889338 
L 774.910254 348.612134 
L 776.148511 339.838668 
L 777.386768 334.794866 
L 778.625025 332.95956 
L 779.863283 333.646494 
L 781.10154 336.168231 
L 782.339797 339.073041 
L 783.578054 341.105238 
L 784.816312 341.85968 
L 786.054569 341.068506 
L 787.292826 338.688082 
L 788.531084 335.62542 
L 789.769341 333.559186 
L 791.007598 333.798638 
L 792.245855 336.528614 
L 793.484113 341.509817 
L 794.72237 348.737629 
L 797.198884 366.57953 
L 798.437142 374.251026 
L 799.675399 380.2852 
L 800.913656 384.717976 
L 802.151914 387.585106 
L 803.390171 389.441518 
L 804.628428 391.536422 
L 805.866685 394.493618 
L 807.104943 397.124539 
L 808.3432 398.013637 
L 809.581457 397.640686 
L 810.819714 397.470488 
L 812.057972 398.142666 
L 813.296229 399.550303 
L 814.534486 401.546059 
L 815.772743 404.040283 
L 817.011001 406.970149 
L 819.487515 413.616545 
L 820.725773 416.485712 
L 823.202287 421.355449 
L 826.917059 429.365881 
L 828.155316 431.091514 
L 831.870088 434.369029 
L 833.108345 434.818052 
L 834.346602 433.864539 
L 835.58486 431.55017 
L 836.823117 428.555286 
L 838.061374 425.859941 
L 839.299632 424.128764 
L 840.537889 423.457523 
L 841.776146 423.737295 
L 843.014403 424.943891 
L 844.252661 427.203469 
L 845.490918 430.340295 
L 846.729175 433.149749 
L 847.967432 433.863867 
L 849.20569 431.69588 
L 852.920461 419.375842 
L 854.158719 417.560684 
L 855.396976 417.227487 
L 856.635233 417.525448 
L 857.873491 417.467451 
L 859.111748 416.299278 
L 860.350005 413.808238 
L 861.588262 410.662017 
L 862.82652 408.507547 
L 864.064777 409.014735 
L 865.303034 412.38301 
L 869.017806 427.362 
L 870.256063 430.321202 
L 871.49432 430.433127 
L 872.732578 427.292647 
L 875.209092 416.525706 
L 876.44735 412.571136 
L 877.685607 410.512824 
L 878.923864 408.985695 
L 880.162121 405.877423 
L 881.400379 400.389161 
L 882.638636 394.146967 
L 883.876893 390.223996 
L 885.11515 390.556796 
L 886.353408 394.206129 
L 887.591665 398.701198 
L 888.829922 402.194452 
L 890.06818 403.65271 
L 891.306437 402.984797 
L 892.544694 401.676424 
L 893.782951 401.843029 
L 895.021209 404.721855 
L 896.259466 410.387068 
L 897.497723 418.365162 
L 898.73598 428.258603 
L 899.974238 439.264406 
L 901.212495 449.253892 
L 902.450752 455.62505 
L 903.689009 457.356633 
L 904.927267 455.721664 
L 906.165524 452.979046 
L 907.403781 450.788693 
L 908.642039 449.99644 
L 909.880296 450.852329 
L 911.118553 452.711283 
L 912.35681 454.236566 
L 913.595068 454.356654 
L 914.833325 452.932211 
L 916.071582 450.485234 
L 917.309839 447.425506 
L 919.786354 440.251009 
L 921.024611 437.35279 
L 922.262868 435.558895 
L 923.501126 434.523123 
L 924.739383 433.83813 
L 925.97764 433.451443 
L 927.215898 433.438853 
L 928.454155 433.799546 
L 929.692412 434.484868 
L 930.930669 435.480179 
L 932.168927 436.927489 
L 933.407184 439.006808 
L 934.645441 441.434598 
L 935.883698 443.307741 
L 937.121956 443.730739 
L 938.360213 442.524206 
L 939.59847 440.197343 
L 942.074985 434.550662 
L 943.313242 432.226247 
L 944.551499 430.641955 
L 947.028014 428.303601 
L 949.504528 425.756733 
L 950.742786 424.946334 
L 951.981043 424.703041 
L 953.2193 425.270052 
L 954.457557 426.822568 
L 955.695815 429.588729 
L 956.934072 433.575112 
L 958.172329 437.957599 
L 959.410586 441.406691 
L 960.648844 442.991608 
L 961.887101 442.687249 
L 963.125358 441.370289 
L 964.363616 440.317111 
L 965.601873 440.510523 
L 966.84013 442.16742 
L 969.316645 446.990838 
L 970.554902 449.054675 
L 971.793159 451.614091 
L 974.269674 459.044292 
L 975.507931 461.960015 
L 976.746188 463.37838 
L 977.984446 463.536668 
L 979.222703 462.858671 
L 980.46096 461.639721 
L 981.699217 460.249856 
L 982.937475 459.135869 
L 984.175732 458.439894 
L 985.413989 458.027051 
L 986.652246 457.829039 
L 987.890504 457.941555 
L 989.128761 458.602258 
L 990.367018 459.94989 
L 991.605275 461.6491 
L 992.843533 463.155085 
L 994.08179 464.325486 
L 995.320047 465.253161 
L 996.558305 465.515739 
L 997.796562 464.173878 
L 999.034819 460.79282 
L 1001.511334 451.523515 
L 1002.749591 449.106756 
L 1003.987848 449.978003 
L 1005.226105 453.474046 
L 1006.464363 457.358828 
L 1007.70262 458.88389 
L 1008.940877 456.286213 
L 1011.417392 444.437579 
L 1012.655649 440.267958 
L 1013.893906 438.158324 
L 1015.132164 437.72316 
L 1016.370421 438.538543 
L 1018.846935 441.598763 
L 1020.085193 442.544219 
L 1021.32345 441.810979 
L 1022.561707 438.530363 
L 1023.799964 432.865242 
L 1025.038222 426.676486 
L 1026.276479 422.785021 
L 1027.514736 422.736467 
L 1028.752993 425.914773 
L 1031.229508 435.631607 
L 1032.467765 438.130164 
L 1033.706023 437.060564 
L 1034.94428 432.81671 
L 1036.182537 426.725678 
L 1038.659052 412.750648 
L 1041.135566 398.527382 
L 1042.373823 393.870317 
L 1043.612081 393.162978 
L 1044.850338 396.837737 
L 1046.088595 403.527184 
L 1047.326852 411.099256 
L 1048.56511 417.773609 
L 1049.803367 422.366352 
L 1051.041624 424.334439 
L 1052.279882 423.898809 
L 1053.518139 421.883198 
L 1054.756396 419.495369 
L 1055.994653 418.046657 
L 1057.232911 418.362029 
L 1058.471168 420.239278 
L 1059.709425 422.408193 
L 1060.947682 423.224075 
L 1062.18594 421.759734 
L 1063.424197 418.330121 
L 1064.662454 414.218934 
L 1065.900711 411.06553 
L 1067.138969 410.183245 
L 1068.377226 412.219529 
L 1069.615483 416.920315 
L 1070.853741 422.779137 
L 1072.091998 427.619223 
L 1073.330255 430.003468 
L 1074.568512 429.972404 
L 1075.80677 428.68932 
L 1077.045027 427.644863 
L 1078.283284 427.912655 
L 1079.521541 429.640789 
L 1080.759799 432.063355 
L 1081.998056 434.143516 
L 1083.236313 435.456128 
L 1084.474571 436.413736 
L 1085.712828 437.609827 
L 1088.189342 440.804712 
L 1089.4276 442.1385 
L 1090.665857 443.160839 
L 1091.904114 443.767505 
L 1093.142371 443.419308 
L 1094.380629 441.404146 
L 1095.618886 437.58382 
L 1096.857143 433.107549 
L 1098.0954 430.097927 
L 1099.333658 430.002321 
L 1100.571915 432.262931 
L 1101.810172 435.029421 
L 1103.04843 436.784329 
L 1104.286687 436.969422 
L 1105.524944 436.135608 
L 1106.763201 435.892684 
L 1108.001459 437.557643 
L 1111.71623 446.822329 
L 1114.192745 451.543268 
L 1115.431002 453.578684 
L 1116.669259 454.9655 
L 1117.907517 455.48868 
L 1119.145774 455.216409 
L 1120.384031 454.544505 
L 1121.622289 454.148365 
L 1122.860546 454.414113 
L 1124.098803 454.836393 
L 1125.33706 454.449084 
L 1126.575318 452.828894 
L 1127.813575 450.470632 
L 1129.051832 448.451057 
L 1130.290089 447.846499 
L 1131.528347 448.976552 
L 1132.766604 451.181021 
L 1135.243118 456.252132 
L 1136.481376 458.369637 
L 1137.719633 459.53439 
L 1138.95789 459.681148 
L 1141.434405 459.078503 
L 1142.672662 459.250621 
L 1143.910919 459.891357 
L 1145.149177 460.689933 
L 1146.387434 460.85737 
L 1147.625691 459.740028 
L 1148.863948 457.714526 
L 1150.102206 455.971697 
L 1151.340463 455.518846 
L 1152.57872 457.02938 
L 1153.816977 461.093993 
L 1155.055235 467.505417 
L 1156.293492 474.718493 
L 1157.531749 480.674971 
L 1158.770007 483.794235 
L 1160.008264 483.409577 
L 1161.246521 479.984176 
L 1163.723036 470.088115 
L 1164.961293 466.834534 
L 1166.19955 465.594442 
L 1167.437807 465.770565 
L 1168.676065 466.392973 
L 1171.152579 467.322404 
L 1172.390837 468.312213 
L 1176.105608 473.17446 
L 1177.343866 473.744653 
L 1178.582123 473.466833 
L 1181.058637 471.718232 
L 1182.296895 471.476895 
L 1183.535152 471.809204 
L 1186.011666 472.930551 
L 1187.249924 473.776165 
L 1188.488181 474.949763 
L 1189.726438 475.916829 
L 1190.964696 475.795424 
L 1192.202953 474.171414 
L 1193.44121 471.352665 
L 1195.917725 464.981836 
L 1197.155982 462.778928 
L 1198.394239 461.10316 
L 1199.632496 459.616318 
L 1200.870754 458.900936 
L 1202.109011 460.277178 
L 1203.347268 464.660715 
L 1204.585525 471.627836 
L 1207.06204 487.47038 
L 1208.300297 493.662724 
L 1209.538555 497.707655 
L 1210.776812 499.530225 
L 1212.015069 499.47654 
L 1213.253326 498.108864 
L 1215.729841 494.013947 
L 1216.968098 492.822725 
L 1218.206355 492.686934 
L 1219.444613 493.03327 
L 1220.68287 492.976191 
L 1221.921127 492.124829 
L 1223.159384 490.941326 
L 1224.397642 490.339063 
L 1225.635899 490.938461 
L 1226.874156 492.355352 
L 1228.112414 493.393317 
L 1229.350671 493.319434 
L 1231.827185 491.722201 
L 1233.065443 491.549458 
L 1234.3037 492.108419 
L 1235.541957 493.343657 
L 1236.780214 495.347001 
L 1238.018472 498.189888 
L 1240.494986 505.222117 
L 1241.733243 508.212351 
L 1242.971501 509.895711 
L 1244.209758 510.084087 
L 1245.448015 509.096504 
L 1247.92453 505.935598 
L 1249.162787 505.543658 
L 1251.639302 507.326249 
L 1252.877559 506.25785 
L 1254.115816 502.529067 
L 1256.592331 491.244041 
L 1257.830588 486.539859 
L 1259.068845 483.251336 
L 1260.307103 481.071461 
L 1261.54536 479.926454 
L 1262.783617 480.53798 
L 1264.021874 483.534273 
L 1266.498389 492.545455 
L 1267.736646 495.990786 
L 1268.974903 498.806089 
L 1270.213161 501.093996 
L 1271.451418 502.128414 
L 1272.689675 501.200418 
L 1273.927932 498.523851 
L 1275.16619 495.272164 
L 1276.404447 492.505792 
L 1277.642704 490.151654 
L 1278.880962 487.506006 
L 1281.357476 481.560478 
L 1282.595733 479.263483 
L 1283.833991 477.692738 
L 1285.072248 477.079786 
L 1286.310505 477.568478 
L 1287.548762 478.506244 
L 1288.78702 478.696946 
L 1290.025277 477.416846 
L 1291.263534 474.787767 
L 1292.501791 471.546779 
L 1293.740049 468.820949 
L 1294.978306 467.754876 
L 1296.216563 468.812479 
L 1297.454821 471.213646 
L 1298.693078 473.352387 
L 1299.931335 474.307902 
L 1301.169592 474.830569 
L 1302.40785 476.366005 
L 1303.646107 479.464802 
L 1306.122621 487.024887 
L 1307.360879 489.586144 
L 1309.837393 493.216994 
L 1311.07565 494.885002 
L 1312.313908 496.264652 
L 1313.552165 497.074915 
L 1314.790422 496.820505 
L 1317.266937 494.179751 
L 1318.505194 494.638738 
L 1319.743451 497.001862 
L 1320.981709 499.787387 
L 1322.219966 501.313047 
L 1323.458223 500.807901 
L 1324.69648 498.602971 
L 1325.934738 495.969732 
L 1327.172995 494.177503 
L 1328.411252 493.123332 
L 1330.887767 490.642396 
L 1332.126024 490.906078 
L 1333.364281 493.155055 
L 1334.602539 496.342125 
L 1335.840796 499.177094 
L 1337.079053 501.268245 
L 1338.31731 503.11464 
L 1339.555568 505.316733 
L 1342.032082 510.574802 
L 1343.270339 512.434867 
L 1344.508597 513.459527 
L 1345.746854 514.326969 
L 1346.985111 515.451462 
L 1348.223368 516.35969 
L 1349.461626 516.304249 
L 1350.699883 515.091363 
L 1353.176398 511.702617 
L 1354.414655 510.64614 
L 1355.652912 510.595843 
L 1356.891169 512.364679 
L 1359.367684 518.95502 
L 1360.605941 520.028127 
L 1361.844198 518.330645 
L 1364.320713 510.957999 
L 1365.55897 508.579693 
L 1366.797228 508.280718 
L 1368.035485 509.829355 
L 1369.273742 512.669298 
L 1370.511999 516.16661 
L 1371.750257 519.160292 
L 1372.988514 520.113361 
L 1374.226771 518.01455 
L 1375.465028 512.996811 
L 1377.941543 499.576788 
L 1379.1798 493.746754 
L 1380.418057 488.982013 
L 1381.656315 485.060845 
L 1382.894572 482.078662 
L 1384.132829 480.79802 
L 1385.371087 482.168632 
L 1386.609344 486.049 
L 1387.847601 490.482014 
L 1389.085858 492.99293 
L 1390.324116 492.48912 
L 1391.562373 489.630514 
L 1392.80063 486.028159 
L 1394.038887 483.243532 
L 1395.277145 482.001373 
L 1396.515402 482.036787 
L 1398.991916 483.136573 
L 1401.468431 483.761298 
L 1402.706688 484.614778 
L 1403.944946 486.433194 
L 1405.183203 488.876112 
L 1406.42146 490.527708 
L 1407.659717 489.694324 
L 1408.897975 486.004007 
L 1410.136232 481.042452 
L 1411.374489 477.155344 
L 1412.612746 475.699071 
L 1413.851004 476.518176 
L 1415.089261 478.658833 
L 1416.327518 481.216277 
L 1417.565775 484.048554 
L 1418.804033 487.89322 
L 1420.04229 493.346417 
L 1422.518805 506.01847 
L 1423.757062 510.17526 
L 1424.995319 511.424987 
L 1426.233576 509.486286 
L 1427.471834 504.698948 
L 1428.710091 498.703581 
L 1429.948348 494.060383 
L 1431.186605 492.380593 
L 1432.424863 493.536364 
L 1433.66312 496.67115 
L 1434.901377 501.150883 
L 1436.139634 506.107874 
L 1437.377892 509.649455 
L 1438.616149 509.804863 
L 1439.854406 506.24888 
L 1442.330921 494.263703 
L 1443.569178 489.741912 
L 1446.045693 483.932214 
L 1447.28395 480.524993 
L 1448.522207 478.681828 
L 1449.760464 480.234396 
L 1450.998722 484.507238 
L 1454.713494 500.550447 
L 1455.951751 504.036225 
L 1457.190008 504.767323 
L 1458.428265 502.746283 
L 1459.666523 499.721082 
L 1460.90478 497.851454 
L 1462.143037 497.947264 
L 1463.381294 499.571616 
L 1465.857809 504.450737 
L 1467.096066 505.630232 
L 1468.334323 504.781042 
L 1469.572581 502.334765 
L 1470.810838 499.547671 
L 1472.049095 497.40277 
L 1473.287353 496.109755 
L 1474.52561 495.507744 
L 1475.763867 495.778684 
L 1477.002124 497.596225 
L 1478.240382 501.061214 
L 1479.478639 504.905941 
L 1480.716896 507.580637 
L 1481.955153 508.345503 
L 1483.193411 507.127289 
L 1484.431668 504.373581 
L 1485.669925 500.761428 
L 1488.14644 492.522217 
L 1489.384697 489.001663 
L 1490.622954 487.612263 
L 1491.861212 489.485862 
L 1494.337726 498.527274 
L 1495.575983 502.010655 
L 1496.814241 504.334591 
L 1498.052498 506.016478 
L 1499.290755 507.177351 
L 1500.529012 507.434317 
L 1501.76727 506.197485 
L 1503.005527 503.417106 
L 1505.482041 496.268817 
L 1506.720299 492.391137 
L 1509.196813 483.062839 
L 1510.435071 479.301797 
L 1511.673328 477.522959 
L 1512.911585 477.856516 
L 1514.149842 479.55711 
L 1516.626357 483.779817 
L 1517.864614 485.211869 
L 1519.102871 485.779058 
L 1520.341129 485.777768 
L 1521.579386 485.507943 
L 1522.817643 484.864724 
L 1524.0559 483.650256 
L 1525.294158 482.100943 
L 1526.532415 481.011013 
L 1527.770672 481.024938 
L 1529.00893 481.697047 
L 1530.247187 481.810049 
L 1531.485444 480.692374 
L 1532.723701 478.554483 
L 1535.200216 473.605375 
L 1536.438473 471.895349 
L 1537.67673 471.039218 
L 1538.914988 471.074554 
L 1540.153245 471.906807 
L 1541.391502 473.637737 
L 1542.62976 476.463263 
L 1543.868017 479.727912 
L 1545.106274 482.153268 
L 1546.344531 483.349193 
L 1547.582789 483.889011 
L 1548.821046 484.134187 
L 1550.059303 484.03866 
L 1551.29756 483.601301 
L 1552.535818 483.010042 
L 1553.774075 482.843635 
L 1555.012332 483.898208 
L 1556.250589 486.292424 
L 1557.488847 489.147256 
L 1558.727104 491.231008 
L 1559.965361 491.5378 
L 1561.203619 489.83345 
L 1562.441876 487.159271 
L 1563.680133 485.151866 
L 1564.91839 484.660995 
L 1566.156648 485.215354 
L 1568.633162 486.753123 
L 1569.871419 488.081198 
L 1571.109677 489.671723 
L 1572.347934 490.935522 
L 1573.586191 491.298004 
L 1574.824448 490.276728 
L 1576.062706 487.881308 
L 1578.53922 481.698767 
L 1582.253992 473.776377 
L 1583.492249 470.466615 
L 1585.968764 462.799594 
L 1588.445278 455.007293 
L 1589.683536 452.305015 
L 1590.921793 451.738416 
L 1592.16005 453.334416 
L 1594.636565 458.547358 
L 1595.874822 460.891921 
L 1597.113079 462.918333 
L 1598.351337 464.136821 
L 1600.827851 464.786115 
L 1602.066108 466.195439 
L 1604.542623 470.61076 
L 1605.78088 471.328929 
L 1607.019137 469.987856 
L 1608.257395 466.790124 
L 1609.495652 462.72822 
L 1610.733909 459.603906 
L 1611.972166 459.859388 
L 1613.210424 464.655642 
L 1614.448681 472.098577 
L 1615.686938 478.656224 
L 1616.925196 481.83977 
L 1618.163453 481.128609 
L 1619.40171 477.475712 
L 1623.116482 462.089233 
L 1625.592996 453.181376 
L 1628.069511 442.901249 
L 1629.307768 440.335645 
L 1630.546026 440.910492 
L 1631.784283 443.59108 
L 1633.02254 445.961576 
L 1634.260797 445.589774 
L 1635.499055 442.185101 
L 1636.737312 438.1671 
L 1637.975569 436.742054 
L 1639.213826 439.807717 
L 1640.452084 447.263483 
L 1641.690341 457.371898 
L 1641.690341 457.371898 
" style="fill:none;stroke:#008000;stroke-linecap:square;stroke-width:1.5;"/>
   </g>
   <g id="patch_3">
    <path d="M 43.78125 586.86358 
L 43.78125 22.318125 
" style="fill:none;stroke:#000000;stroke-linecap:square;stroke-linejoin:miter;stroke-width:0.8;"/>
   </g>
   <g id="patch_4">
    <path d="M 1717.78125 586.86358 
L 1717.78125 22.318125 
" style="fill:none;stroke:#000000;stroke-linecap:square;stroke-linejoin:miter;stroke-width:0.8;"/>
   </g>
   <g id="patch_5">
    <path d="M 43.78125 586.86358 
L 1717.78125 586.86358 
" style="fill:none;stroke:#000000;stroke-linecap:square;stroke-linejoin:miter;stroke-width:0.8;"/>
   </g>
   <g id="patch_6">
    <path d="M 43.78125 22.318125 
L 1717.78125 22.318125 
" style="fill:none;stroke:#000000;stroke-linecap:square;stroke-linejoin:miter;stroke-width:0.8;"/>
   </g>
   <g id="text_15">
    <!-- before binarisation -->
    <g transform="translate(824.1825 16.318125)scale(0.12 -0.12)">
     <defs>
      <path d="M 3116 1747 
Q 3116 2381 2855 2742 
Q 2594 3103 2138 3103 
Q 1681 3103 1420 2742 
Q 1159 2381 1159 1747 
Q 1159 1113 1420 752 
Q 1681 391 2138 391 
Q 2594 391 2855 752 
Q 3116 1113 3116 1747 
z
M 1159 2969 
Q 1341 3281 1617 3432 
Q 1894 3584 2278 3584 
Q 2916 3584 3314 3078 
Q 3713 2572 3713 1747 
Q 3713 922 3314 415 
Q 2916 -91 2278 -91 
Q 1894 -91 1617 61 
Q 1341 213 1159 525 
L 1159 0 
L 581 0 
L 581 4863 
L 1159 4863 
L 1159 2969 
z
" id="DejaVuSans-62" transform="scale(0.015625)"/>
      <path d="M 1959 3097 
Q 1497 3097 1228 2736 
Q 959 2375 959 1747 
Q 959 1119 1226 758 
Q 1494 397 1959 397 
Q 2419 397 2687 759 
Q 2956 1122 2956 1747 
Q 2956 2369 2687 2733 
Q 2419 3097 1959 3097 
z
M 1959 3584 
Q 2709 3584 3137 3096 
Q 3566 2609 3566 1747 
Q 3566 888 3137 398 
Q 2709 -91 1959 -91 
Q 1206 -91 779 398 
Q 353 888 353 1747 
Q 353 2609 779 3096 
Q 1206 3584 1959 3584 
z
" id="DejaVuSans-6f" transform="scale(0.015625)"/>
      <path id="DejaVuSans-20" transform="scale(0.015625)"/>
      <path d="M 603 3500 
L 1178 3500 
L 1178 0 
L 603 0 
L 603 3500 
z
M 603 4863 
L 1178 4863 
L 1178 4134 
L 603 4134 
L 603 4863 
z
" id="DejaVuSans-69" transform="scale(0.015625)"/>
      <path d="M 3513 2113 
L 3513 0 
L 2938 0 
L 2938 2094 
Q 2938 2591 2744 2837 
Q 2550 3084 2163 3084 
Q 1697 3084 1428 2787 
Q 1159 2491 1159 1978 
L 1159 0 
L 581 0 
L 581 3500 
L 1159 3500 
L 1159 2956 
Q 1366 3272 1645 3428 
Q 1925 3584 2291 3584 
Q 2894 3584 3203 3211 
Q 3513 2838 3513 2113 
z
" id="DejaVuSans-6e" transform="scale(0.015625)"/>
      <path d="M 2834 3397 
L 2834 2853 
Q 2591 2978 2328 3040 
Q 2066 3103 1784 3103 
Q 1356 3103 1142 2972 
Q 928 2841 928 2578 
Q 928 2378 1081 2264 
Q 1234 2150 1697 2047 
L 1894 2003 
Q 2506 1872 2764 1633 
Q 3022 1394 3022 966 
Q 3022 478 2636 193 
Q 2250 -91 1575 -91 
Q 1294 -91 989 -36 
Q 684 19 347 128 
L 347 722 
Q 666 556 975 473 
Q 1284 391 1588 391 
Q 1994 391 2212 530 
Q 2431 669 2431 922 
Q 2431 1156 2273 1281 
Q 2116 1406 1581 1522 
L 1381 1569 
Q 847 1681 609 1914 
Q 372 2147 372 2553 
Q 372 3047 722 3315 
Q 1072 3584 1716 3584 
Q 2034 3584 2315 3537 
Q 2597 3491 2834 3397 
z
" id="DejaVuSans-73" transform="scale(0.015625)"/>
      <path d="M 1172 4494 
L 1172 3500 
L 2356 3500 
L 2356 3053 
L 1172 3053 
L 1172 1153 
Q 1172 725 1289 603 
Q 1406 481 1766 481 
L 2356 481 
L 2356 0 
L 1766 0 
Q 1100 0 847 248 
Q 594 497 594 1153 
L 594 3053 
L 172 3053 
L 172 3500 
L 594 3500 
L 594 4494 
L 1172 4494 
z
" id="DejaVuSans-74" transform="scale(0.015625)"/>
     </defs>
     <use xlink:href="#DejaVuSans-62"/>
     <use x="63.476562" xlink:href="#DejaVuSans-65"/>
     <use x="125" xlink:href="#DejaVuSans-66"/>
     <use x="160.205078" xlink:href="#DejaVuSans-6f"/>
     <use x="221.386719" xlink:href="#DejaVuSans-72"/>
     <use x="260.25" xlink:href="#DejaVuSans-65"/>
     <use x="321.773438" xlink:href="#DejaVuSans-20"/>
     <use x="353.560547" xlink:href="#DejaVuSans-62"/>
     <use x="417.037109" xlink:href="#DejaVuSans-69"/>
     <use x="444.820312" xlink:href="#DejaVuSans-6e"/>
     <use x="508.199219" xlink:href="#DejaVuSans-61"/>
     <use x="569.478516" xlink:href="#DejaVuSans-72"/>
     <use x="610.591797" xlink:href="#DejaVuSans-69"/>
     <use x="638.375" xlink:href="#DejaVuSans-73"/>
     <use x="690.474609" xlink:href="#DejaVuSans-61"/>
     <use x="751.753906" xlink:href="#DejaVuSans-74"/>
     <use x="790.962891" xlink:href="#DejaVuSans-69"/>
     <use x="818.746094" xlink:href="#DejaVuSans-6f"/>
     <use x="879.927734" xlink:href="#DejaVuSans-6e"/>
    </g>
   </g>
  </g>
  <g id="axes_2">
   <g id="patch_7">
    <path d="M 43.78125 1264.318125 
L 1717.78125 1264.318125 
L 1717.78125 699.77267 
L 43.78125 699.77267 
z
" style="fill:#ffffff;"/>
   </g>
   <g id="matplotlib.axis_3">
    <g id="xtick_8">
     <g id="line2d_14">
      <g>
       <use style="stroke:#000000;stroke-width:0.8;" x="119.872159" xlink:href="#mc5a53129f0" y="1264.318125"/>
      </g>
     </g>
     <g id="text_16">
      <!-- 0 -->
      <g transform="translate(116.690909 1278.916563)scale(0.1 -0.1)">
       <use xlink:href="#DejaVuSans-30"/>
      </g>
     </g>
    </g>
    <g id="xtick_9">
     <g id="line2d_15">
      <g>
       <use style="stroke:#000000;stroke-width:0.8;" x="367.523613" xlink:href="#mc5a53129f0" y="1264.318125"/>
      </g>
     </g>
     <g id="text_17">
      <!-- 200 -->
      <g transform="translate(357.979863 1278.916563)scale(0.1 -0.1)">
       <use xlink:href="#DejaVuSans-32"/>
       <use x="63.623047" xlink:href="#DejaVuSans-30"/>
       <use x="127.246094" xlink:href="#DejaVuSans-30"/>
      </g>
     </g>
    </g>
    <g id="xtick_10">
     <g id="line2d_16">
      <g>
       <use style="stroke:#000000;stroke-width:0.8;" x="615.175066" xlink:href="#mc5a53129f0" y="1264.318125"/>
      </g>
     </g>
     <g id="text_18">
      <!-- 400 -->
      <g transform="translate(605.631316 1278.916563)scale(0.1 -0.1)">
       <use xlink:href="#DejaVuSans-34"/>
       <use x="63.623047" xlink:href="#DejaVuSans-30"/>
       <use x="127.246094" xlink:href="#DejaVuSans-30"/>
      </g>
     </g>
    </g>
    <g id="xtick_11">
     <g id="line2d_17">
      <g>
       <use style="stroke:#000000;stroke-width:0.8;" x="862.82652" xlink:href="#mc5a53129f0" y="1264.318125"/>
      </g>
     </g>
     <g id="text_19">
      <!-- 600 -->
      <g transform="translate(853.28277 1278.916563)scale(0.1 -0.1)">
       <use xlink:href="#DejaVuSans-36"/>
       <use x="63.623047" xlink:href="#DejaVuSans-30"/>
       <use x="127.246094" xlink:href="#DejaVuSans-30"/>
      </g>
     </g>
    </g>
    <g id="xtick_12">
     <g id="line2d_18">
      <g>
       <use style="stroke:#000000;stroke-width:0.8;" x="1110.477973" xlink:href="#mc5a53129f0" y="1264.318125"/>
      </g>
     </g>
     <g id="text_20">
      <!-- 800 -->
      <g transform="translate(1100.934223 1278.916563)scale(0.1 -0.1)">
       <use xlink:href="#DejaVuSans-38"/>
       <use x="63.623047" xlink:href="#DejaVuSans-30"/>
       <use x="127.246094" xlink:href="#DejaVuSans-30"/>
      </g>
     </g>
    </g>
    <g id="xtick_13">
     <g id="line2d_19">
      <g>
       <use style="stroke:#000000;stroke-width:0.8;" x="1358.129427" xlink:href="#mc5a53129f0" y="1264.318125"/>
      </g>
     </g>
     <g id="text_21">
      <!-- 1000 -->
      <g transform="translate(1345.404427 1278.916563)scale(0.1 -0.1)">
       <use xlink:href="#DejaVuSans-31"/>
       <use x="63.623047" xlink:href="#DejaVuSans-30"/>
       <use x="127.246094" xlink:href="#DejaVuSans-30"/>
       <use x="190.869141" xlink:href="#DejaVuSans-30"/>
      </g>
     </g>
    </g>
    <g id="xtick_14">
     <g id="line2d_20">
      <g>
       <use style="stroke:#000000;stroke-width:0.8;" x="1605.78088" xlink:href="#mc5a53129f0" y="1264.318125"/>
      </g>
     </g>
     <g id="text_22">
      <!-- 1200 -->
      <g transform="translate(1593.05588 1278.916563)scale(0.1 -0.1)">
       <use xlink:href="#DejaVuSans-31"/>
       <use x="63.623047" xlink:href="#DejaVuSans-32"/>
       <use x="127.246094" xlink:href="#DejaVuSans-30"/>
       <use x="190.869141" xlink:href="#DejaVuSans-30"/>
      </g>
     </g>
    </g>
    <g id="text_23">
     <!-- frame -->
     <g transform="translate(865.954687 1292.594688)scale(0.1 -0.1)">
      <use xlink:href="#DejaVuSans-66"/>
      <use x="35.205078" xlink:href="#DejaVuSans-72"/>
      <use x="76.318359" xlink:href="#DejaVuSans-61"/>
      <use x="137.597656" xlink:href="#DejaVuSans-6d"/>
      <use x="235.009766" xlink:href="#DejaVuSans-65"/>
     </g>
    </g>
   </g>
   <g id="matplotlib.axis_4">
    <g id="ytick_6">
     <g id="line2d_21">
      <g>
       <use style="stroke:#000000;stroke-width:0.8;" x="43.78125" xlink:href="#m900887716c" y="1238.656968"/>
      </g>
     </g>
     <g id="text_24">
      <!-- 0.0 -->
      <g transform="translate(20.878125 1242.456187)scale(0.1 -0.1)">
       <use xlink:href="#DejaVuSans-30"/>
       <use x="63.623047" xlink:href="#DejaVuSans-2e"/>
       <use x="95.410156" xlink:href="#DejaVuSans-30"/>
      </g>
     </g>
    </g>
    <g id="ytick_7">
     <g id="line2d_22">
      <g>
       <use style="stroke:#000000;stroke-width:0.8;" x="43.78125" xlink:href="#m900887716c" y="1136.01234"/>
      </g>
     </g>
     <g id="text_25">
      <!-- 0.2 -->
      <g transform="translate(20.878125 1139.811559)scale(0.1 -0.1)">
       <use xlink:href="#DejaVuSans-30"/>
       <use x="63.623047" xlink:href="#DejaVuSans-2e"/>
       <use x="95.410156" xlink:href="#DejaVuSans-32"/>
      </g>
     </g>
    </g>
    <g id="ytick_8">
     <g id="line2d_23">
      <g>
       <use style="stroke:#000000;stroke-width:0.8;" x="43.78125" xlink:href="#m900887716c" y="1033.367712"/>
      </g>
     </g>
     <g id="text_26">
      <!-- 0.4 -->
      <g transform="translate(20.878125 1037.166931)scale(0.1 -0.1)">
       <use xlink:href="#DejaVuSans-30"/>
       <use x="63.623047" xlink:href="#DejaVuSans-2e"/>
       <use x="95.410156" xlink:href="#DejaVuSans-34"/>
      </g>
     </g>
    </g>
    <g id="ytick_9">
     <g id="line2d_24">
      <g>
       <use style="stroke:#000000;stroke-width:0.8;" x="43.78125" xlink:href="#m900887716c" y="930.723084"/>
      </g>
     </g>
     <g id="text_27">
      <!-- 0.6 -->
      <g transform="translate(20.878125 934.522302)scale(0.1 -0.1)">
       <use xlink:href="#DejaVuSans-30"/>
       <use x="63.623047" xlink:href="#DejaVuSans-2e"/>
       <use x="95.410156" xlink:href="#DejaVuSans-36"/>
      </g>
     </g>
    </g>
    <g id="ytick_10">
     <g id="line2d_25">
      <g>
       <use style="stroke:#000000;stroke-width:0.8;" x="43.78125" xlink:href="#m900887716c" y="828.078456"/>
      </g>
     </g>
     <g id="text_28">
      <!-- 0.8 -->
      <g transform="translate(20.878125 831.877674)scale(0.1 -0.1)">
       <use xlink:href="#DejaVuSans-30"/>
       <use x="63.623047" xlink:href="#DejaVuSans-2e"/>
       <use x="95.410156" xlink:href="#DejaVuSans-38"/>
      </g>
     </g>
    </g>
    <g id="ytick_11">
     <g id="line2d_26">
      <g>
       <use style="stroke:#000000;stroke-width:0.8;" x="43.78125" xlink:href="#m900887716c" y="725.433827"/>
      </g>
     </g>
     <g id="text_29">
      <!-- 1.0 -->
      <g transform="translate(20.878125 729.233046)scale(0.1 -0.1)">
       <use xlink:href="#DejaVuSans-31"/>
       <use x="63.623047" xlink:href="#DejaVuSans-2e"/>
       <use x="95.410156" xlink:href="#DejaVuSans-30"/>
      </g>
     </g>
    </g>
    <g id="text_30">
     <!-- GCaMP -->
     <g transform="translate(14.798437 999.803991)rotate(-90)scale(0.1 -0.1)">
      <use xlink:href="#DejaVuSans-47"/>
      <use x="77.490234" xlink:href="#DejaVuSans-43"/>
      <use x="147.314453" xlink:href="#DejaVuSans-61"/>
      <use x="208.59375" xlink:href="#DejaVuSans-4d"/>
      <use x="294.873047" xlink:href="#DejaVuSans-50"/>
     </g>
    </g>
   </g>
   <g id="line2d_27">
    <path clip-path="url(#p86289ba496)" d="M 119.872159 1238.656968 
L 213.979711 1238.656968 
L 215.217969 725.433827 
L 584.218634 725.433827 
L 585.456892 1238.656968 
L 1641.690341 1238.656968 
L 1641.690341 1238.656968 
" style="fill:none;stroke:#008000;stroke-linecap:square;stroke-width:1.5;"/>
   </g>
   <g id="patch_8">
    <path d="M 43.78125 1264.318125 
L 43.78125 699.77267 
" style="fill:none;stroke:#000000;stroke-linecap:square;stroke-linejoin:miter;stroke-width:0.8;"/>
   </g>
   <g id="patch_9">
    <path d="M 1717.78125 1264.318125 
L 1717.78125 699.77267 
" style="fill:none;stroke:#000000;stroke-linecap:square;stroke-linejoin:miter;stroke-width:0.8;"/>
   </g>
   <g id="patch_10">
    <path d="M 43.78125 1264.318125 
L 1717.78125 1264.318125 
" style="fill:none;stroke:#000000;stroke-linecap:square;stroke-linejoin:miter;stroke-width:0.8;"/>
   </g>
   <g id="patch_11">
    <path d="M 43.78125 699.77267 
L 1717.78125 699.77267 
" style="fill:none;stroke:#000000;stroke-linecap:square;stroke-linejoin:miter;stroke-width:0.8;"/>
   </g>
   <g id="text_31">
    <!-- before binarisation -->
    <g transform="translate(824.1825 693.77267)scale(0.12 -0.12)">
     <use xlink:href="#DejaVuSans-62"/>
     <use x="63.476562" xlink:href="#DejaVuSans-65"/>
     <use x="125" xlink:href="#DejaVuSans-66"/>
     <use x="160.205078" xlink:href="#DejaVuSans-6f"/>
     <use x="221.386719" xlink:href="#DejaVuSans-72"/>
     <use x="260.25" xlink:href="#DejaVuSans-65"/>
     <use x="321.773438" xlink:href="#DejaVuSans-20"/>
     <use x="353.560547" xlink:href="#DejaVuSans-62"/>
     <use x="417.037109" xlink:href="#DejaVuSans-69"/>
     <use x="444.820312" xlink:href="#DejaVuSans-6e"/>
     <use x="508.199219" xlink:href="#DejaVuSans-61"/>
     <use x="569.478516" xlink:href="#DejaVuSans-72"/>
     <use x="610.591797" xlink:href="#DejaVuSans-69"/>
     <use x="638.375" xlink:href="#DejaVuSans-73"/>
     <use x="690.474609" xlink:href="#DejaVuSans-61"/>
     <use x="751.753906" xlink:href="#DejaVuSans-74"/>
     <use x="790.962891" xlink:href="#DejaVuSans-69"/>
     <use x="818.746094" xlink:href="#DejaVuSans-6f"/>
     <use x="879.927734" xlink:href="#DejaVuSans-6e"/>
    </g>
   </g>
  </g>
 </g>
 <defs>
  <clipPath id="pa74d2de4ec">
   <rect height="564.545455" width="1674" x="43.78125" y="22.318125"/>
  </clipPath>
  <clipPath id="p86289ba496">
   <rect height="564.545455" width="1674" x="43.78125" y="699.77267"/>
  </clipPath>
 </defs>
</svg>
