<?xml version="1.0" encoding="utf-8" standalone="no"?>
<!DOCTYPE svg PUBLIC "-//W3C//DTD SVG 1.1//EN"
  "http://www.w3.org/Graphics/SVG/1.1/DTD/svg11.dtd">
<svg height="1301.874375pt" version="1.1" viewBox="0 0 1724.98125 1301.874375" width="1724.98125pt" xmlns="http://www.w3.org/2000/svg" xmlns:xlink="http://www.w3.org/1999/xlink">
 <metadata>
  <rdf:RDF xmlns:cc="http://creativecommons.org/ns#" xmlns:dc="http://purl.org/dc/elements/1.1/" xmlns:rdf="http://www.w3.org/1999/02/22-rdf-syntax-ns#">
   <cc:Work>
    <dc:type rdf:resource="http://purl.org/dc/dcmitype/StillImage"/>
    <dc:date>2022-07-24T15:54:48.540251</dc:date>
    <dc:format>image/svg+xml</dc:format>
    <dc:creator>
     <cc:Agent>
      <dc:title>Matplotlib v3.4.2, https://matplotlib.org/</dc:title>
     </cc:Agent>
    </dc:creator>
   </cc:Work>
  </rdf:RDF>
 </metadata>
 <defs>
  <style type="text/css">*{stroke-linecap:butt;stroke-linejoin:round;}</style>
 </defs>
 <g id="figure_1">
  <g id="patch_1">
   <path d="M 0 1301.874375 
L 1724.98125 1301.874375 
L 1724.98125 0 
L 0 0 
z
" style="fill:#ffffff;"/>
  </g>
  <g id="axes_1">
   <g id="patch_2">
    <path d="M 43.78125 586.86358 
L 1717.78125 586.86358 
L 1717.78125 22.318125 
L 43.78125 22.318125 
z
" style="fill:#ffffff;"/>
   </g>
   <g id="matplotlib.axis_1">
    <g id="xtick_1">
     <g id="line2d_1">
      <defs>
       <path d="M 0 0 
L 0 3.5 
" id="md37ef981c0" style="stroke:#000000;stroke-width:0.8;"/>
      </defs>
      <g>
       <use style="stroke:#000000;stroke-width:0.8;" x="119.872159" xlink:href="#md37ef981c0" y="586.86358"/>
      </g>
     </g>
     <g id="text_1">
      <!-- 0 -->
      <g transform="translate(116.690909 601.462017)scale(0.1 -0.1)">
       <defs>
        <path d="M 2034 4250 
Q 1547 4250 1301 3770 
Q 1056 3291 1056 2328 
Q 1056 1369 1301 889 
Q 1547 409 2034 409 
Q 2525 409 2770 889 
Q 3016 1369 3016 2328 
Q 3016 3291 2770 3770 
Q 2525 4250 2034 4250 
z
M 2034 4750 
Q 2819 4750 3233 4129 
Q 3647 3509 3647 2328 
Q 3647 1150 3233 529 
Q 2819 -91 2034 -91 
Q 1250 -91 836 529 
Q 422 1150 422 2328 
Q 422 3509 836 4129 
Q 1250 4750 2034 4750 
z
" id="DejaVuSans-30" transform="scale(0.015625)"/>
       </defs>
       <use xlink:href="#DejaVuSans-30"/>
      </g>
     </g>
    </g>
    <g id="xtick_2">
     <g id="line2d_2">
      <g>
       <use style="stroke:#000000;stroke-width:0.8;" x="367.523613" xlink:href="#md37ef981c0" y="586.86358"/>
      </g>
     </g>
     <g id="text_2">
      <!-- 200 -->
      <g transform="translate(357.979863 601.462017)scale(0.1 -0.1)">
       <defs>
        <path d="M 1228 531 
L 3431 531 
L 3431 0 
L 469 0 
L 469 531 
Q 828 903 1448 1529 
Q 2069 2156 2228 2338 
Q 2531 2678 2651 2914 
Q 2772 3150 2772 3378 
Q 2772 3750 2511 3984 
Q 2250 4219 1831 4219 
Q 1534 4219 1204 4116 
Q 875 4013 500 3803 
L 500 4441 
Q 881 4594 1212 4672 
Q 1544 4750 1819 4750 
Q 2544 4750 2975 4387 
Q 3406 4025 3406 3419 
Q 3406 3131 3298 2873 
Q 3191 2616 2906 2266 
Q 2828 2175 2409 1742 
Q 1991 1309 1228 531 
z
" id="DejaVuSans-32" transform="scale(0.015625)"/>
       </defs>
       <use xlink:href="#DejaVuSans-32"/>
       <use x="63.623047" xlink:href="#DejaVuSans-30"/>
       <use x="127.246094" xlink:href="#DejaVuSans-30"/>
      </g>
     </g>
    </g>
    <g id="xtick_3">
     <g id="line2d_3">
      <g>
       <use style="stroke:#000000;stroke-width:0.8;" x="615.175066" xlink:href="#md37ef981c0" y="586.86358"/>
      </g>
     </g>
     <g id="text_3">
      <!-- 400 -->
      <g transform="translate(605.631316 601.462017)scale(0.1 -0.1)">
       <defs>
        <path d="M 2419 4116 
L 825 1625 
L 2419 1625 
L 2419 4116 
z
M 2253 4666 
L 3047 4666 
L 3047 1625 
L 3713 1625 
L 3713 1100 
L 3047 1100 
L 3047 0 
L 2419 0 
L 2419 1100 
L 313 1100 
L 313 1709 
L 2253 4666 
z
" id="DejaVuSans-34" transform="scale(0.015625)"/>
       </defs>
       <use xlink:href="#DejaVuSans-34"/>
       <use x="63.623047" xlink:href="#DejaVuSans-30"/>
       <use x="127.246094" xlink:href="#DejaVuSans-30"/>
      </g>
     </g>
    </g>
    <g id="xtick_4">
     <g id="line2d_4">
      <g>
       <use style="stroke:#000000;stroke-width:0.8;" x="862.82652" xlink:href="#md37ef981c0" y="586.86358"/>
      </g>
     </g>
     <g id="text_4">
      <!-- 600 -->
      <g transform="translate(853.28277 601.462017)scale(0.1 -0.1)">
       <defs>
        <path d="M 2113 2584 
Q 1688 2584 1439 2293 
Q 1191 2003 1191 1497 
Q 1191 994 1439 701 
Q 1688 409 2113 409 
Q 2538 409 2786 701 
Q 3034 994 3034 1497 
Q 3034 2003 2786 2293 
Q 2538 2584 2113 2584 
z
M 3366 4563 
L 3366 3988 
Q 3128 4100 2886 4159 
Q 2644 4219 2406 4219 
Q 1781 4219 1451 3797 
Q 1122 3375 1075 2522 
Q 1259 2794 1537 2939 
Q 1816 3084 2150 3084 
Q 2853 3084 3261 2657 
Q 3669 2231 3669 1497 
Q 3669 778 3244 343 
Q 2819 -91 2113 -91 
Q 1303 -91 875 529 
Q 447 1150 447 2328 
Q 447 3434 972 4092 
Q 1497 4750 2381 4750 
Q 2619 4750 2861 4703 
Q 3103 4656 3366 4563 
z
" id="DejaVuSans-36" transform="scale(0.015625)"/>
       </defs>
       <use xlink:href="#DejaVuSans-36"/>
       <use x="63.623047" xlink:href="#DejaVuSans-30"/>
       <use x="127.246094" xlink:href="#DejaVuSans-30"/>
      </g>
     </g>
    </g>
    <g id="xtick_5">
     <g id="line2d_5">
      <g>
       <use style="stroke:#000000;stroke-width:0.8;" x="1110.477973" xlink:href="#md37ef981c0" y="586.86358"/>
      </g>
     </g>
     <g id="text_5">
      <!-- 800 -->
      <g transform="translate(1100.934223 601.462017)scale(0.1 -0.1)">
       <defs>
        <path d="M 2034 2216 
Q 1584 2216 1326 1975 
Q 1069 1734 1069 1313 
Q 1069 891 1326 650 
Q 1584 409 2034 409 
Q 2484 409 2743 651 
Q 3003 894 3003 1313 
Q 3003 1734 2745 1975 
Q 2488 2216 2034 2216 
z
M 1403 2484 
Q 997 2584 770 2862 
Q 544 3141 544 3541 
Q 544 4100 942 4425 
Q 1341 4750 2034 4750 
Q 2731 4750 3128 4425 
Q 3525 4100 3525 3541 
Q 3525 3141 3298 2862 
Q 3072 2584 2669 2484 
Q 3125 2378 3379 2068 
Q 3634 1759 3634 1313 
Q 3634 634 3220 271 
Q 2806 -91 2034 -91 
Q 1263 -91 848 271 
Q 434 634 434 1313 
Q 434 1759 690 2068 
Q 947 2378 1403 2484 
z
M 1172 3481 
Q 1172 3119 1398 2916 
Q 1625 2713 2034 2713 
Q 2441 2713 2670 2916 
Q 2900 3119 2900 3481 
Q 2900 3844 2670 4047 
Q 2441 4250 2034 4250 
Q 1625 4250 1398 4047 
Q 1172 3844 1172 3481 
z
" id="DejaVuSans-38" transform="scale(0.015625)"/>
       </defs>
       <use xlink:href="#DejaVuSans-38"/>
       <use x="63.623047" xlink:href="#DejaVuSans-30"/>
       <use x="127.246094" xlink:href="#DejaVuSans-30"/>
      </g>
     </g>
    </g>
    <g id="xtick_6">
     <g id="line2d_6">
      <g>
       <use style="stroke:#000000;stroke-width:0.8;" x="1358.129427" xlink:href="#md37ef981c0" y="586.86358"/>
      </g>
     </g>
     <g id="text_6">
      <!-- 1000 -->
      <g transform="translate(1345.404427 601.462017)scale(0.1 -0.1)">
       <defs>
        <path d="M 794 531 
L 1825 531 
L 1825 4091 
L 703 3866 
L 703 4441 
L 1819 4666 
L 2450 4666 
L 2450 531 
L 3481 531 
L 3481 0 
L 794 0 
L 794 531 
z
" id="DejaVuSans-31" transform="scale(0.015625)"/>
       </defs>
       <use xlink:href="#DejaVuSans-31"/>
       <use x="63.623047" xlink:href="#DejaVuSans-30"/>
       <use x="127.246094" xlink:href="#DejaVuSans-30"/>
       <use x="190.869141" xlink:href="#DejaVuSans-30"/>
      </g>
     </g>
    </g>
    <g id="xtick_7">
     <g id="line2d_7">
      <g>
       <use style="stroke:#000000;stroke-width:0.8;" x="1605.78088" xlink:href="#md37ef981c0" y="586.86358"/>
      </g>
     </g>
     <g id="text_7">
      <!-- 1200 -->
      <g transform="translate(1593.05588 601.462017)scale(0.1 -0.1)">
       <use xlink:href="#DejaVuSans-31"/>
       <use x="63.623047" xlink:href="#DejaVuSans-32"/>
       <use x="127.246094" xlink:href="#DejaVuSans-30"/>
       <use x="190.869141" xlink:href="#DejaVuSans-30"/>
      </g>
     </g>
    </g>
    <g id="text_8">
     <!-- frame -->
     <g transform="translate(865.954687 615.140142)scale(0.1 -0.1)">
      <defs>
       <path d="M 2375 4863 
L 2375 4384 
L 1825 4384 
Q 1516 4384 1395 4259 
Q 1275 4134 1275 3809 
L 1275 3500 
L 2222 3500 
L 2222 3053 
L 1275 3053 
L 1275 0 
L 697 0 
L 697 3053 
L 147 3053 
L 147 3500 
L 697 3500 
L 697 3744 
Q 697 4328 969 4595 
Q 1241 4863 1831 4863 
L 2375 4863 
z
" id="DejaVuSans-66" transform="scale(0.015625)"/>
       <path d="M 2631 2963 
Q 2534 3019 2420 3045 
Q 2306 3072 2169 3072 
Q 1681 3072 1420 2755 
Q 1159 2438 1159 1844 
L 1159 0 
L 581 0 
L 581 3500 
L 1159 3500 
L 1159 2956 
Q 1341 3275 1631 3429 
Q 1922 3584 2338 3584 
Q 2397 3584 2469 3576 
Q 2541 3569 2628 3553 
L 2631 2963 
z
" id="DejaVuSans-72" transform="scale(0.015625)"/>
       <path d="M 2194 1759 
Q 1497 1759 1228 1600 
Q 959 1441 959 1056 
Q 959 750 1161 570 
Q 1363 391 1709 391 
Q 2188 391 2477 730 
Q 2766 1069 2766 1631 
L 2766 1759 
L 2194 1759 
z
M 3341 1997 
L 3341 0 
L 2766 0 
L 2766 531 
Q 2569 213 2275 61 
Q 1981 -91 1556 -91 
Q 1019 -91 701 211 
Q 384 513 384 1019 
Q 384 1609 779 1909 
Q 1175 2209 1959 2209 
L 2766 2209 
L 2766 2266 
Q 2766 2663 2505 2880 
Q 2244 3097 1772 3097 
Q 1472 3097 1187 3025 
Q 903 2953 641 2809 
L 641 3341 
Q 956 3463 1253 3523 
Q 1550 3584 1831 3584 
Q 2591 3584 2966 3190 
Q 3341 2797 3341 1997 
z
" id="DejaVuSans-61" transform="scale(0.015625)"/>
       <path d="M 3328 2828 
Q 3544 3216 3844 3400 
Q 4144 3584 4550 3584 
Q 5097 3584 5394 3201 
Q 5691 2819 5691 2113 
L 5691 0 
L 5113 0 
L 5113 2094 
Q 5113 2597 4934 2840 
Q 4756 3084 4391 3084 
Q 3944 3084 3684 2787 
Q 3425 2491 3425 1978 
L 3425 0 
L 2847 0 
L 2847 2094 
Q 2847 2600 2669 2842 
Q 2491 3084 2119 3084 
Q 1678 3084 1418 2786 
Q 1159 2488 1159 1978 
L 1159 0 
L 581 0 
L 581 3500 
L 1159 3500 
L 1159 2956 
Q 1356 3278 1631 3431 
Q 1906 3584 2284 3584 
Q 2666 3584 2933 3390 
Q 3200 3197 3328 2828 
z
" id="DejaVuSans-6d" transform="scale(0.015625)"/>
       <path d="M 3597 1894 
L 3597 1613 
L 953 1613 
Q 991 1019 1311 708 
Q 1631 397 2203 397 
Q 2534 397 2845 478 
Q 3156 559 3463 722 
L 3463 178 
Q 3153 47 2828 -22 
Q 2503 -91 2169 -91 
Q 1331 -91 842 396 
Q 353 884 353 1716 
Q 353 2575 817 3079 
Q 1281 3584 2069 3584 
Q 2775 3584 3186 3129 
Q 3597 2675 3597 1894 
z
M 3022 2063 
Q 3016 2534 2758 2815 
Q 2500 3097 2075 3097 
Q 1594 3097 1305 2825 
Q 1016 2553 972 2059 
L 3022 2063 
z
" id="DejaVuSans-65" transform="scale(0.015625)"/>
      </defs>
      <use xlink:href="#DejaVuSans-66"/>
      <use x="35.205078" xlink:href="#DejaVuSans-72"/>
      <use x="76.318359" xlink:href="#DejaVuSans-61"/>
      <use x="137.597656" xlink:href="#DejaVuSans-6d"/>
      <use x="235.009766" xlink:href="#DejaVuSans-65"/>
     </g>
    </g>
   </g>
   <g id="matplotlib.axis_2">
    <g id="ytick_1">
     <g id="line2d_8">
      <defs>
       <path d="M 0 0 
L -3.5 0 
" id="m18a4c35b8c" style="stroke:#000000;stroke-width:0.8;"/>
      </defs>
      <g>
       <use style="stroke:#000000;stroke-width:0.8;" x="43.78125" xlink:href="#m18a4c35b8c" y="574.545356"/>
      </g>
     </g>
     <g id="text_9">
      <!-- 0.6 -->
      <g transform="translate(20.878125 578.344575)scale(0.1 -0.1)">
       <defs>
        <path d="M 684 794 
L 1344 794 
L 1344 0 
L 684 0 
L 684 794 
z
" id="DejaVuSans-2e" transform="scale(0.015625)"/>
       </defs>
       <use xlink:href="#DejaVuSans-30"/>
       <use x="63.623047" xlink:href="#DejaVuSans-2e"/>
       <use x="95.410156" xlink:href="#DejaVuSans-36"/>
      </g>
     </g>
    </g>
    <g id="ytick_2">
     <g id="line2d_9">
      <g>
       <use style="stroke:#000000;stroke-width:0.8;" x="43.78125" xlink:href="#m18a4c35b8c" y="505.487099"/>
      </g>
     </g>
     <g id="text_10">
      <!-- 0.8 -->
      <g transform="translate(20.878125 509.286318)scale(0.1 -0.1)">
       <use xlink:href="#DejaVuSans-30"/>
       <use x="63.623047" xlink:href="#DejaVuSans-2e"/>
       <use x="95.410156" xlink:href="#DejaVuSans-38"/>
      </g>
     </g>
    </g>
    <g id="ytick_3">
     <g id="line2d_10">
      <g>
       <use style="stroke:#000000;stroke-width:0.8;" x="43.78125" xlink:href="#m18a4c35b8c" y="436.428843"/>
      </g>
     </g>
     <g id="text_11">
      <!-- 1.0 -->
      <g transform="translate(20.878125 440.228061)scale(0.1 -0.1)">
       <use xlink:href="#DejaVuSans-31"/>
       <use x="63.623047" xlink:href="#DejaVuSans-2e"/>
       <use x="95.410156" xlink:href="#DejaVuSans-30"/>
      </g>
     </g>
    </g>
    <g id="ytick_4">
     <g id="line2d_11">
      <g>
       <use style="stroke:#000000;stroke-width:0.8;" x="43.78125" xlink:href="#m18a4c35b8c" y="367.370586"/>
      </g>
     </g>
     <g id="text_12">
      <!-- 1.2 -->
      <g transform="translate(20.878125 371.169804)scale(0.1 -0.1)">
       <use xlink:href="#DejaVuSans-31"/>
       <use x="63.623047" xlink:href="#DejaVuSans-2e"/>
       <use x="95.410156" xlink:href="#DejaVuSans-32"/>
      </g>
     </g>
    </g>
    <g id="ytick_5">
     <g id="line2d_12">
      <g>
       <use style="stroke:#000000;stroke-width:0.8;" x="43.78125" xlink:href="#m18a4c35b8c" y="298.312329"/>
      </g>
     </g>
     <g id="text_13">
      <!-- 1.4 -->
      <g transform="translate(20.878125 302.111548)scale(0.1 -0.1)">
       <use xlink:href="#DejaVuSans-31"/>
       <use x="63.623047" xlink:href="#DejaVuSans-2e"/>
       <use x="95.410156" xlink:href="#DejaVuSans-34"/>
      </g>
     </g>
    </g>
    <g id="ytick_6">
     <g id="line2d_13">
      <g>
       <use style="stroke:#000000;stroke-width:0.8;" x="43.78125" xlink:href="#m18a4c35b8c" y="229.254072"/>
      </g>
     </g>
     <g id="text_14">
      <!-- 1.6 -->
      <g transform="translate(20.878125 233.053291)scale(0.1 -0.1)">
       <use xlink:href="#DejaVuSans-31"/>
       <use x="63.623047" xlink:href="#DejaVuSans-2e"/>
       <use x="95.410156" xlink:href="#DejaVuSans-36"/>
      </g>
     </g>
    </g>
    <g id="ytick_7">
     <g id="line2d_14">
      <g>
       <use style="stroke:#000000;stroke-width:0.8;" x="43.78125" xlink:href="#m18a4c35b8c" y="160.195815"/>
      </g>
     </g>
     <g id="text_15">
      <!-- 1.8 -->
      <g transform="translate(20.878125 163.995034)scale(0.1 -0.1)">
       <use xlink:href="#DejaVuSans-31"/>
       <use x="63.623047" xlink:href="#DejaVuSans-2e"/>
       <use x="95.410156" xlink:href="#DejaVuSans-38"/>
      </g>
     </g>
    </g>
    <g id="ytick_8">
     <g id="line2d_15">
      <g>
       <use style="stroke:#000000;stroke-width:0.8;" x="43.78125" xlink:href="#m18a4c35b8c" y="91.137559"/>
      </g>
     </g>
     <g id="text_16">
      <!-- 2.0 -->
      <g transform="translate(20.878125 94.936777)scale(0.1 -0.1)">
       <use xlink:href="#DejaVuSans-32"/>
       <use x="63.623047" xlink:href="#DejaVuSans-2e"/>
       <use x="95.410156" xlink:href="#DejaVuSans-30"/>
      </g>
     </g>
    </g>
    <g id="text_17">
     <!-- GCaMP -->
     <g transform="translate(14.798437 322.349446)rotate(-90)scale(0.1 -0.1)">
      <defs>
       <path d="M 3809 666 
L 3809 1919 
L 2778 1919 
L 2778 2438 
L 4434 2438 
L 4434 434 
Q 4069 175 3628 42 
Q 3188 -91 2688 -91 
Q 1594 -91 976 548 
Q 359 1188 359 2328 
Q 359 3472 976 4111 
Q 1594 4750 2688 4750 
Q 3144 4750 3555 4637 
Q 3966 4525 4313 4306 
L 4313 3634 
Q 3963 3931 3569 4081 
Q 3175 4231 2741 4231 
Q 1884 4231 1454 3753 
Q 1025 3275 1025 2328 
Q 1025 1384 1454 906 
Q 1884 428 2741 428 
Q 3075 428 3337 486 
Q 3600 544 3809 666 
z
" id="DejaVuSans-47" transform="scale(0.015625)"/>
       <path d="M 4122 4306 
L 4122 3641 
Q 3803 3938 3442 4084 
Q 3081 4231 2675 4231 
Q 1875 4231 1450 3742 
Q 1025 3253 1025 2328 
Q 1025 1406 1450 917 
Q 1875 428 2675 428 
Q 3081 428 3442 575 
Q 3803 722 4122 1019 
L 4122 359 
Q 3791 134 3420 21 
Q 3050 -91 2638 -91 
Q 1578 -91 968 557 
Q 359 1206 359 2328 
Q 359 3453 968 4101 
Q 1578 4750 2638 4750 
Q 3056 4750 3426 4639 
Q 3797 4528 4122 4306 
z
" id="DejaVuSans-43" transform="scale(0.015625)"/>
       <path d="M 628 4666 
L 1569 4666 
L 2759 1491 
L 3956 4666 
L 4897 4666 
L 4897 0 
L 4281 0 
L 4281 4097 
L 3078 897 
L 2444 897 
L 1241 4097 
L 1241 0 
L 628 0 
L 628 4666 
z
" id="DejaVuSans-4d" transform="scale(0.015625)"/>
       <path d="M 1259 4147 
L 1259 2394 
L 2053 2394 
Q 2494 2394 2734 2622 
Q 2975 2850 2975 3272 
Q 2975 3691 2734 3919 
Q 2494 4147 2053 4147 
L 1259 4147 
z
M 628 4666 
L 2053 4666 
Q 2838 4666 3239 4311 
Q 3641 3956 3641 3272 
Q 3641 2581 3239 2228 
Q 2838 1875 2053 1875 
L 1259 1875 
L 1259 0 
L 628 0 
L 628 4666 
z
" id="DejaVuSans-50" transform="scale(0.015625)"/>
      </defs>
      <use xlink:href="#DejaVuSans-47"/>
      <use x="77.490234" xlink:href="#DejaVuSans-43"/>
      <use x="147.314453" xlink:href="#DejaVuSans-61"/>
      <use x="208.59375" xlink:href="#DejaVuSans-4d"/>
      <use x="294.873047" xlink:href="#DejaVuSans-50"/>
     </g>
    </g>
   </g>
   <g id="line2d_16">
    <path clip-path="url(#p4de75b121f)" d="M 119.872159 561.202423 
L 121.110416 560.869605 
L 122.348674 559.83797 
L 123.586931 558.419886 
L 124.825188 557.360642 
L 126.063445 556.690901 
L 127.301703 555.65765 
L 128.53996 553.490831 
L 129.778217 550.016695 
L 131.016474 545.87588 
L 132.254732 542.286148 
L 133.492989 540.343713 
L 134.731246 540.362546 
L 135.969504 541.5558 
L 137.207761 542.335033 
L 138.446018 541.531158 
L 139.684275 539.628388 
L 140.922533 538.506517 
L 142.16079 539.64817 
L 143.399047 542.872199 
L 144.637304 546.957372 
L 145.875562 550.570013 
L 147.113819 552.441094 
L 148.352076 551.868809 
L 149.590334 549.36203 
L 150.828591 546.234004 
L 152.066848 543.586931 
L 153.305105 541.828644 
L 154.543363 540.756456 
L 158.258134 538.266903 
L 160.734649 537.219471 
L 161.972906 537.175097 
L 163.211163 538.242764 
L 164.449421 540.093523 
L 165.687678 541.290145 
L 166.925935 540.770879 
L 168.164193 538.698686 
L 171.878964 529.990777 
L 173.117222 528.128841 
L 174.355479 527.646976 
L 175.593736 528.545738 
L 176.831993 530.978364 
L 178.070251 535.281905 
L 181.785022 552.859396 
L 183.02328 556.651624 
L 184.261537 558.90631 
L 185.499794 559.837303 
L 186.738052 559.558154 
L 187.976309 557.995008 
L 189.214566 555.004866 
L 190.452823 550.562861 
L 191.691081 544.503022 
L 195.405852 521.939585 
L 196.64411 518.072792 
L 197.882367 516.890045 
L 199.120624 517.267414 
L 200.358881 517.780744 
L 201.597139 516.919941 
L 202.835396 513.279256 
L 205.311911 500.372501 
L 206.550168 498.619133 
L 207.788425 503.690674 
L 209.026682 512.948827 
L 210.26494 521.289003 
L 211.503197 524.617068 
L 212.741454 521.217662 
L 213.979711 511.473486 
L 216.456226 481.859857 
L 217.694483 470.664394 
L 218.93274 469.697258 
L 220.170998 480.280163 
L 221.409255 496.680715 
L 222.647512 511.334452 
L 223.88577 520.192903 
L 225.124027 522.699969 
L 226.362284 520.578824 
L 227.600541 517.708064 
L 228.838799 518.005459 
L 230.077056 522.547003 
L 232.55357 537.526235 
L 233.791828 542.776172 
L 235.030085 544.180745 
L 236.268342 542.663647 
L 239.983114 535.707275 
L 241.221371 532.320267 
L 244.936143 519.661167 
L 247.412658 512.689517 
L 248.650915 508.446856 
L 249.889172 503.71786 
L 251.127429 499.776856 
L 252.365687 497.817595 
L 253.603944 498.360738 
L 254.842201 500.895983 
L 256.080459 504.015553 
L 257.318716 506.133418 
L 258.556973 506.114016 
L 259.79523 503.915135 
L 261.033488 500.798868 
L 262.271745 498.847464 
L 263.510002 500.226044 
L 264.748259 505.918858 
L 268.463031 531.243193 
L 269.701288 537.088717 
L 270.939546 540.553779 
L 272.177803 540.668644 
L 273.41606 536.698844 
L 274.654318 528.582837 
L 275.892575 517.204538 
L 277.130832 503.633027 
L 279.607347 474.493255 
L 280.845604 466.142905 
L 282.083861 466.980989 
L 283.322118 475.263733 
L 284.560376 486.002751 
L 285.798633 494.862195 
L 287.03689 498.967051 
L 288.275147 496.639701 
L 289.513405 488.219953 
L 290.751662 476.388109 
L 291.989919 466.293267 
L 293.228177 464.69605 
L 294.466434 474.692782 
L 296.942948 508.727058 
L 298.181206 520.669412 
L 299.419463 526.284309 
L 300.65772 526.035067 
L 301.895977 521.30777 
L 304.372492 506.719071 
L 305.610749 502.578199 
L 306.849006 503.098248 
L 308.087264 506.640537 
L 309.325521 510.573742 
L 313.040293 520.507005 
L 314.27855 523.185463 
L 315.516807 523.423165 
L 316.755065 519.758367 
L 317.993322 512.444123 
L 320.469836 494.718882 
L 321.708094 487.71354 
L 322.946351 482.640216 
L 324.184608 479.20614 
L 325.422866 477.255363 
L 326.661123 476.9132 
L 327.89938 477.695915 
L 329.137637 478.275425 
L 330.375895 477.67524 
L 331.614152 476.225994 
L 332.852409 475.50667 
L 334.090666 477.190918 
L 336.567181 484.951791 
L 337.805438 485.867827 
L 339.043695 482.46125 
L 340.281953 474.726063 
L 341.52021 463.566832 
L 342.758467 450.976632 
L 343.996725 439.901482 
L 345.234982 433.246232 
L 346.473239 432.388991 
L 348.949754 438.965495 
L 350.188011 441.433536 
L 351.426268 445.629023 
L 352.664525 453.750653 
L 353.902783 464.121528 
L 355.14104 473.115364 
L 356.379297 478.579168 
L 357.617554 480.723864 
L 358.855812 480.884621 
L 360.094069 480.354015 
L 361.332326 480.125584 
L 362.570584 480.626953 
L 363.808841 481.424499 
L 365.047098 481.787267 
L 366.285355 481.707332 
L 367.523613 481.984806 
L 370.000127 483.854265 
L 371.238384 483.677516 
L 372.476642 482.458117 
L 373.714899 480.965882 
L 374.953156 479.83731 
L 376.191413 478.974803 
L 377.429671 477.711247 
L 378.667928 475.605444 
L 379.906185 472.888225 
L 381.144443 469.486178 
L 382.3827 463.940077 
L 383.620957 454.391834 
L 384.859214 440.708494 
L 386.097472 425.254853 
L 387.335729 411.757254 
L 388.573986 403.509261 
L 389.812243 401.803244 
L 391.050501 406.100929 
L 392.288758 415.566602 
L 393.527015 428.031864 
L 394.765272 438.862302 
L 396.00353 444.265937 
L 397.241787 444.18184 
L 398.480044 440.79344 
L 399.718302 436.444915 
L 400.956559 433.423108 
L 402.194816 433.309514 
L 403.433073 435.747568 
L 407.147845 446.311243 
L 409.62436 451.314865 
L 410.862617 454.268889 
L 413.339132 461.463857 
L 414.577389 462.655846 
L 415.815646 459.069575 
L 417.053903 449.830188 
L 419.530418 425.102902 
L 420.768675 419.652292 
L 422.006932 423.546294 
L 423.24519 435.162598 
L 424.483447 449.043443 
L 425.721704 459.28877 
L 426.959961 463.343123 
L 428.198219 462.961305 
L 429.436476 461.519617 
L 430.674733 461.200386 
L 431.912991 462.830189 
L 433.151248 466.618969 
L 436.86602 482.584396 
L 438.104277 486.013574 
L 439.342534 486.561688 
L 440.580791 482.313405 
L 441.819049 471.232411 
L 443.057306 451.947399 
L 444.295563 425.129835 
L 445.53382 394.91077 
L 446.772078 368.754669 
L 448.010335 354.931121 
L 449.248592 358.912051 
L 450.48685 380.15211 
L 452.963364 441.462203 
L 454.201621 464.373361 
L 455.439879 478.614928 
L 456.678136 485.69159 
L 457.916393 487.347413 
L 459.15465 484.959848 
L 460.392908 479.53894 
L 461.631165 471.738573 
L 464.107679 453.025538 
L 465.345937 446.95014 
L 466.584194 446.754082 
L 467.822451 452.253192 
L 470.298966 468.8246 
L 471.537223 474.264328 
L 472.77548 473.889248 
L 474.013738 464.463458 
L 475.251995 445.194597 
L 476.490252 419.920265 
L 477.728509 397.588855 
L 478.966767 389.379459 
L 480.205024 399.713308 
L 482.681538 441.972053 
L 483.919796 455.286098 
L 485.158053 458.514249 
L 486.39631 452.319118 
L 488.872825 428.62754 
L 490.111082 422.31511 
L 491.349339 424.456039 
L 492.587597 435.247124 
L 495.064111 468.148124 
L 496.302368 479.130811 
L 497.540626 481.675256 
L 498.778883 475.579414 
L 500.01714 463.255639 
L 501.255397 448.96978 
L 502.493655 437.035619 
L 503.731912 430.684727 
L 504.970169 431.948665 
L 506.208427 440.472832 
L 507.446684 452.39556 
L 508.684941 462.289201 
L 509.923198 466.903433 
L 511.161456 466.676133 
L 512.399713 463.894963 
L 513.63797 460.406645 
L 514.876227 457.293181 
L 516.114485 455.28671 
L 517.352742 454.529848 
L 518.590999 454.661355 
L 519.829257 455.175485 
L 521.067514 455.135119 
L 522.305771 453.146643 
L 523.544028 447.991762 
L 524.782286 439.476547 
L 526.020543 429.793369 
L 527.2588 423.512831 
L 528.497057 424.070267 
L 529.735315 430.577087 
L 530.973572 439.294165 
L 532.211829 446.73239 
L 533.450086 450.759312 
L 534.688344 450.834003 
L 535.926601 447.89156 
L 537.164858 443.262282 
L 539.641373 433.049046 
L 540.87963 430.165188 
L 542.117887 429.973853 
L 543.356145 431.360512 
L 544.594402 432.490517 
L 545.832659 432.21842 
L 547.070916 430.234563 
L 549.547431 424.221936 
L 550.785688 422.337424 
L 552.023945 421.197973 
L 553.262203 420.411903 
L 554.50046 419.353989 
L 555.738717 415.904644 
L 556.976975 407.204309 
L 558.215232 392.762834 
L 559.453489 376.590194 
L 560.691746 365.27775 
L 561.930004 363.685854 
L 563.168261 371.187908 
L 564.406518 381.660543 
L 566.883033 398.701802 
L 568.12129 410.67088 
L 569.359547 424.829944 
L 570.597804 436.310663 
L 571.836062 441.687505 
L 573.074319 441.116151 
L 574.312576 437.200588 
L 579.265605 418.228333 
L 580.503863 414.710152 
L 581.74212 414.870468 
L 582.980377 419.476524 
L 584.218634 426.689181 
L 585.456892 432.930692 
L 586.695149 433.830561 
L 587.933406 425.65639 
L 589.171663 407.228511 
L 591.648178 355.619737 
L 592.886435 339.115836 
L 594.124693 336.770356 
L 595.36295 346.361033 
L 597.839464 375.428217 
L 599.077722 384.528735 
L 600.315979 387.385763 
L 601.554236 384.613846 
L 602.792493 377.908472 
L 604.030751 369.560812 
L 605.269008 362.175047 
L 606.507265 357.635516 
L 607.745523 356.021944 
L 608.98378 355.629996 
L 610.222037 353.630174 
L 611.460294 347.233772 
L 612.698552 335.211952 
L 616.413323 285.408931 
L 617.651581 276.605189 
L 618.889838 277.667918 
L 620.128095 289.617335 
L 621.366352 309.601164 
L 623.842867 354.571138 
L 626.319382 394.428721 
L 627.557639 411.758123 
L 628.795896 425.387492 
L 630.034153 434.019949 
L 631.272411 438.523668 
L 632.510668 441.437565 
L 633.748925 444.777568 
L 634.987182 448.48636 
L 636.22544 450.596868 
L 637.463697 449.056834 
L 638.701954 444.022729 
L 639.940211 438.437822 
L 641.178469 435.79585 
L 642.416726 436.917426 
L 643.654983 439.212045 
L 644.893241 439.436181 
L 646.131498 436.65182 
L 647.369755 432.345092 
L 648.608012 428.609324 
L 649.84627 426.473949 
L 651.084527 425.702808 
L 652.322784 425.853793 
L 653.561041 426.811632 
L 656.037556 430.090664 
L 657.275813 431.355144 
L 658.51407 431.526402 
L 659.752328 428.481974 
L 660.990585 418.049467 
L 662.228842 396.485446 
L 663.4671 364.116496 
L 665.943614 291.924572 
L 667.181871 266.253266 
L 668.420129 251.112558 
L 669.658386 244.48996 
L 670.896643 242.414749 
L 672.1349 241.123011 
L 674.611415 236.808998 
L 675.849672 237.542304 
L 677.087929 244.083709 
L 678.326187 256.617911 
L 683.279216 321.242327 
L 684.517473 333.575692 
L 685.75573 342.416388 
L 686.993988 348.029629 
L 688.232245 351.82241 
L 689.470502 354.765248 
L 690.708759 356.370691 
L 691.947017 355.773279 
L 693.185274 353.130118 
L 694.423531 349.858292 
L 695.661789 348.392492 
L 696.900046 350.166711 
L 698.138303 352.626016 
L 699.37656 350.769871 
L 700.614818 342.311066 
L 704.329589 303.682629 
L 705.567847 297.151948 
L 706.806104 296.789557 
L 708.044361 301.506571 
L 709.282618 307.754497 
L 710.520876 311.195095 
L 711.759133 311.277686 
L 712.99739 313.472269 
L 714.235648 322.692685 
L 715.473905 335.601205 
L 716.712162 343.340358 
L 717.950419 339.432764 
L 719.188677 323.237305 
L 720.426934 298.392509 
L 721.665191 269.942378 
L 722.903448 244.499384 
L 724.141706 231.820747 
L 725.379963 239.90012 
L 726.61822 265.469063 
L 727.856477 294.373821 
L 729.094735 313.086737 
L 730.332992 315.794528 
L 731.571249 302.170603 
L 732.809507 274.247858 
L 736.524278 164.242392 
L 737.762536 145.716224 
L 739.000793 141.254195 
L 740.23905 144.661838 
L 741.477307 150.698261 
L 742.715565 159.925653 
L 743.953822 175.99189 
L 745.192079 200.879724 
L 747.668594 265.659617 
L 748.906851 292.795492 
L 750.145108 311.167666 
L 751.383366 321.180106 
L 752.621623 323.53031 
L 753.85988 318.715635 
L 755.098137 307.306995 
L 756.336395 290.144408 
L 757.574652 268.99187 
L 758.812909 245.388708 
L 760.051166 218.143438 
L 761.289424 184.016375 
L 763.765938 100.002327 
L 765.004195 65.858002 
L 766.242453 47.979282 
L 767.48071 48.853935 
L 768.718967 65.529751 
L 771.195482 117.307361 
L 772.433739 137.333431 
L 773.671996 147.247709 
L 774.910254 147.159736 
L 776.148511 141.187135 
L 777.386768 134.43306 
L 778.625025 129.493423 
L 779.863283 126.439936 
L 781.10154 124.550926 
L 782.339797 123.121925 
L 783.578054 122.246357 
L 784.816312 123.152784 
L 786.054569 126.707592 
L 787.292826 131.78459 
L 788.531084 136.172267 
L 791.007598 142.394194 
L 792.245855 146.313543 
L 793.484113 149.73797 
L 794.72237 151.276704 
L 795.960627 151.159199 
L 797.198884 150.666401 
L 799.675399 150.603171 
L 800.913656 149.168465 
L 802.151914 145.69318 
L 803.390171 141.308761 
L 804.628428 137.524219 
L 805.866685 134.828797 
L 807.104943 133.639232 
L 808.3432 136.014271 
L 809.581457 145.71205 
L 810.819714 166.109568 
L 814.534486 254.528055 
L 815.772743 266.809747 
L 817.011001 266.621588 
L 818.249258 258.171964 
L 819.487515 248.305398 
L 820.725773 243.442917 
L 821.96403 245.887637 
L 823.202287 254.82011 
L 825.678802 281.539028 
L 826.917059 287.544173 
L 828.155316 282.907308 
L 829.393573 269.658015 
L 830.631831 250.962764 
L 833.108345 207.209466 
L 834.346602 190.944712 
L 835.58486 183.688296 
L 836.823117 185.530482 
L 838.061374 194.812276 
L 840.537889 222.920563 
L 841.776146 233.387609 
L 843.014403 237.951363 
L 844.252661 236.722612 
L 845.490918 232.157889 
L 846.729175 228.091034 
L 847.967432 226.940675 
L 849.20569 228.871474 
L 852.920461 239.628377 
L 854.158719 244.940804 
L 856.635233 259.458574 
L 857.873491 264.902148 
L 859.111748 268.084637 
L 860.350005 268.424544 
L 861.588262 264.841774 
L 862.82652 256.916942 
L 865.303034 234.513133 
L 866.541291 226.468811 
L 867.779549 224.349557 
L 869.017806 228.006597 
L 870.256063 235.407246 
L 872.732578 252.508907 
L 873.970835 258.044854 
L 875.209092 258.279211 
L 876.44735 251.757387 
L 877.685607 239.439749 
L 880.162121 207.725238 
L 881.400379 194.495726 
L 882.638636 185.626859 
L 883.876893 181.747048 
L 885.11515 183.195038 
L 886.353408 188.836476 
L 887.591665 195.531445 
L 888.829922 199.778985 
L 890.06818 200.236157 
L 891.306437 198.745103 
L 892.544694 198.517868 
L 893.782951 201.808864 
L 895.021209 209.418226 
L 896.259466 220.949351 
L 898.73598 250.685414 
L 901.212495 282.744155 
L 903.689009 321.940565 
L 904.927267 330.560594 
L 906.165524 319.007318 
L 907.403781 286.550399 
L 909.880296 201.983686 
L 911.118553 172.652033 
L 912.35681 154.610366 
L 913.595068 143.703554 
L 914.833325 136.84738 
L 916.071582 133.048008 
L 917.309839 132.552929 
L 918.548097 135.281317 
L 919.786354 139.760716 
L 921.024611 143.617281 
L 922.262868 145.005286 
L 923.501126 144.184829 
L 924.739383 143.726171 
L 925.97764 145.928972 
L 927.215898 150.030386 
L 928.454155 153.727198 
L 929.692412 156.716522 
L 932.168927 163.10032 
L 933.407184 164.173202 
L 934.645441 163.365628 
L 935.883698 162.048007 
L 937.121956 159.93429 
L 938.360213 155.721957 
L 939.59847 149.298002 
L 940.836727 141.48968 
L 942.074985 134.905621 
L 943.313242 134.916025 
L 944.551499 145.204441 
L 947.028014 179.394834 
L 948.266271 187.610922 
L 949.504528 183.350489 
L 950.742786 168.994876 
L 951.981043 152.706108 
L 953.2193 143.088122 
L 954.457557 145.405274 
L 955.695815 160.98231 
L 956.934072 186.361721 
L 958.172329 214.059023 
L 959.410586 236.103849 
L 960.648844 246.604915 
L 961.887101 242.622947 
L 963.125358 225.899132 
L 964.363616 203.97905 
L 965.601873 185.547186 
L 970.554902 132.029037 
L 971.793159 123.785796 
L 973.031416 122.342158 
L 974.269674 127.284561 
L 975.507931 136.803249 
L 976.746188 147.898568 
L 977.984446 157.253231 
L 979.222703 162.943759 
L 980.46096 165.916682 
L 981.699217 169.444792 
L 982.937475 176.125884 
L 984.175732 185.019937 
L 985.413989 192.534127 
L 986.652246 195.996428 
L 987.890504 195.534207 
L 989.128761 192.904152 
L 990.367018 189.310443 
L 994.08179 176.848956 
L 995.320047 173.147785 
L 996.558305 168.725071 
L 997.796562 162.783441 
L 1000.273076 148.354029 
L 1001.511334 143.846985 
L 1002.749591 143.34605 
L 1003.987848 147.370126 
L 1005.226105 155.498076 
L 1006.464363 165.968328 
L 1007.70262 175.27097 
L 1008.940877 178.618691 
L 1010.179134 172.793376 
L 1011.417392 159.283495 
L 1012.655649 143.267534 
L 1013.893906 129.097674 
L 1015.132164 117.818206 
L 1016.370421 109.047616 
L 1017.608678 103.143967 
L 1018.846935 100.179039 
L 1020.085193 98.61495 
L 1021.32345 97.518979 
L 1022.561707 99.462194 
L 1023.799964 108.499804 
L 1025.038222 124.715296 
L 1026.276479 142.670071 
L 1027.514736 156.82907 
L 1029.991251 178.902176 
L 1031.229508 194.240299 
L 1032.467765 213.31435 
L 1034.94428 254.094027 
L 1036.182537 268.872987 
L 1037.420794 276.547055 
L 1038.659052 277.890309 
L 1039.897309 276.250447 
L 1041.135566 275.727551 
L 1042.373823 278.461261 
L 1043.612081 283.472717 
L 1044.850338 287.197138 
L 1046.088595 284.634599 
L 1047.326852 272.002555 
L 1048.56511 249.814232 
L 1051.041624 197.699627 
L 1052.279882 178.363663 
L 1053.518139 166.584818 
L 1054.756396 161.979067 
L 1055.994653 164.103922 
L 1057.232911 172.743991 
L 1058.471168 186.223587 
L 1059.709425 201.527813 
L 1060.947682 215.452064 
L 1062.18594 224.692196 
L 1063.424197 226.899141 
L 1064.662454 222.451447 
L 1067.138969 206.892505 
L 1068.377226 202.574178 
L 1069.615483 202.552359 
L 1070.853741 206.711658 
L 1073.330255 221.245282 
L 1074.568512 226.942486 
L 1078.283284 240.371927 
L 1079.521541 241.986001 
L 1080.759799 240.486901 
L 1081.998056 237.858308 
L 1083.236313 236.15102 
L 1084.474571 235.459971 
L 1085.712828 234.960614 
L 1086.951085 234.846186 
L 1088.189342 235.958335 
L 1094.380629 247.215788 
L 1096.857143 253.307401 
L 1098.0954 255.243002 
L 1099.333658 255.670245 
L 1100.571915 255.081908 
L 1101.810172 253.657238 
L 1103.04843 250.907341 
L 1104.286687 246.304281 
L 1106.763201 234.219843 
L 1108.001459 230.073899 
L 1109.239716 228.207756 
L 1111.71623 226.70104 
L 1112.954488 226.254089 
L 1114.192745 227.797203 
L 1115.431002 232.434152 
L 1117.907517 246.210467 
L 1119.145774 250.664723 
L 1120.384031 252.153571 
L 1121.622289 251.369128 
L 1124.098803 247.074982 
L 1125.33706 246.448389 
L 1126.575318 248.24946 
L 1129.051832 255.105458 
L 1130.290089 257.013014 
L 1131.528347 257.042293 
L 1132.766604 255.709651 
L 1134.004861 254.063963 
L 1135.243118 253.117586 
L 1136.481376 253.237198 
L 1137.719633 254.296442 
L 1138.95789 256.464991 
L 1140.196148 260.184996 
L 1141.434405 265.48327 
L 1143.910919 277.497476 
L 1145.149177 281.381163 
L 1146.387434 282.683642 
L 1147.625691 281.502004 
L 1148.863948 278.203866 
L 1151.340463 269.291956 
L 1152.57872 265.939 
L 1153.816977 263.956982 
L 1155.055235 263.483432 
L 1157.531749 264.772146 
L 1158.770007 264.616266 
L 1160.008264 263.159623 
L 1161.246521 260.847715 
L 1162.484778 259.210871 
L 1163.723036 259.558691 
L 1166.19955 263.610995 
L 1167.437807 264.120212 
L 1168.676065 263.404235 
L 1169.914322 263.364702 
L 1171.152579 265.441395 
L 1172.390837 269.260872 
L 1176.105608 282.004524 
L 1177.343866 285.19227 
L 1178.582123 286.937164 
L 1179.82038 288.074249 
L 1181.058637 289.756726 
L 1182.296895 292.168333 
L 1183.535152 294.971495 
L 1184.773409 298.286897 
L 1186.011666 302.317204 
L 1187.249924 305.863188 
L 1188.488181 306.700095 
L 1189.726438 304.253489 
L 1190.964696 300.415625 
L 1192.202953 297.235397 
L 1193.44121 295.244059 
L 1194.679467 294.113304 
L 1195.917725 293.243023 
L 1197.155982 291.463333 
L 1198.394239 287.76196 
L 1200.870754 277.130223 
L 1202.109011 273.165716 
L 1203.347268 271.37732 
L 1204.585525 271.762699 
L 1207.06204 276.001976 
L 1208.300297 276.012502 
L 1209.538555 272.494382 
L 1210.776812 266.876909 
L 1212.015069 262.018405 
L 1213.253326 259.705193 
L 1214.491584 260.512232 
L 1215.729841 264.812948 
L 1216.968098 272.076872 
L 1219.444613 288.246068 
L 1220.68287 294.880681 
L 1221.921127 300.150709 
L 1223.159384 303.536268 
L 1224.397642 304.526883 
L 1225.635899 303.288644 
L 1229.350671 295.577769 
L 1230.588928 293.506277 
L 1231.827185 291.042916 
L 1233.065443 287.026685 
L 1234.3037 280.731092 
L 1235.541957 272.910345 
L 1236.780214 265.920311 
L 1238.018472 262.596698 
L 1239.256729 265.237838 
L 1240.494986 274.901917 
L 1241.733243 290.344622 
L 1242.971501 308.05556 
L 1244.209758 323.580354 
L 1245.448015 332.7124 
L 1246.686273 333.011083 
L 1247.92453 325.183363 
L 1250.401044 299.965402 
L 1251.639302 290.362686 
L 1252.877559 285.106621 
L 1254.115816 283.812097 
L 1255.354073 285.454743 
L 1256.592331 289.015155 
L 1259.068845 298.380344 
L 1260.307103 301.677753 
L 1261.54536 302.853084 
L 1262.783617 302.101333 
L 1265.260132 297.935059 
L 1266.498389 297.332547 
L 1268.974903 299.34154 
L 1271.451418 300.772587 
L 1272.689675 301.856073 
L 1275.16619 304.555412 
L 1276.404447 304.99677 
L 1277.642704 303.380044 
L 1278.880962 299.528199 
L 1282.595733 283.494099 
L 1283.833991 281.603015 
L 1285.072248 282.782052 
L 1286.310505 286.126431 
L 1287.548762 289.854078 
L 1288.78702 292.091198 
L 1290.025277 291.327009 
L 1291.263534 287.329388 
L 1292.501791 282.137581 
L 1293.740049 278.724126 
L 1294.978306 278.489556 
L 1296.216563 280.342529 
L 1297.454821 281.984108 
L 1298.693078 282.228103 
L 1301.169592 281.183488 
L 1302.40785 280.424187 
L 1303.646107 278.718672 
L 1304.884364 276.474524 
L 1306.122621 275.232416 
L 1307.360879 276.370567 
L 1308.599136 280.21388 
L 1309.837393 286.229545 
L 1311.07565 294.0697 
L 1312.313908 303.868179 
L 1313.552165 314.701543 
L 1314.790422 323.873498 
L 1316.02868 328.872629 
L 1317.266937 329.378574 
L 1318.505194 327.053283 
L 1319.743451 324.049509 
L 1320.981709 321.862891 
L 1322.219966 320.811882 
L 1323.458223 319.979065 
L 1324.69648 318.160341 
L 1327.172995 312.379394 
L 1328.411252 310.873915 
L 1329.649509 311.6499 
L 1330.887767 314.449508 
L 1332.126024 317.715768 
L 1333.364281 320.055044 
L 1334.602539 321.690584 
L 1335.840796 323.84964 
L 1337.079053 327.322985 
L 1338.31731 332.062252 
L 1340.793825 342.42673 
L 1342.032082 346.514902 
L 1343.270339 349.569207 
L 1344.508597 351.897229 
L 1345.746854 353.789943 
L 1346.985111 355.234803 
L 1348.223368 356.16674 
L 1350.699883 357.278185 
L 1351.93814 357.587571 
L 1353.176398 357.684231 
L 1354.414655 358.097893 
L 1355.652912 359.368668 
L 1356.891169 361.135521 
L 1358.129427 362.437648 
L 1359.367684 362.766148 
L 1360.605941 362.578624 
L 1361.844198 362.766627 
L 1364.320713 364.653371 
L 1365.55897 364.476654 
L 1366.797228 362.386968 
L 1369.273742 355.199251 
L 1370.511999 352.389766 
L 1371.750257 350.608018 
L 1372.988514 349.971008 
L 1374.226771 350.885532 
L 1375.465028 353.011326 
L 1376.703286 354.686903 
L 1377.941543 354.218329 
L 1379.1798 351.373924 
L 1380.418057 346.860713 
L 1381.656315 341.519862 
L 1382.894572 337.402854 
L 1384.132829 337.723845 
L 1385.371087 343.881823 
L 1387.847601 363.439709 
L 1389.085858 369.962346 
L 1390.324116 372.133454 
L 1391.562373 370.21922 
L 1392.80063 365.054948 
L 1395.277145 350.731009 
L 1396.515402 342.894522 
L 1397.753659 333.63006 
L 1398.991916 323.505385 
L 1400.230174 315.093258 
L 1401.468431 310.992645 
L 1402.706688 311.659296 
L 1403.944946 315.87849 
L 1405.183203 322.958424 
L 1406.42146 332.759892 
L 1407.659717 343.789242 
L 1408.897975 353.506401 
L 1410.136232 360.558462 
L 1411.374489 364.964353 
L 1412.612746 366.669822 
L 1413.851004 365.315452 
L 1415.089261 361.36219 
L 1416.327518 356.825862 
L 1417.565775 354.165061 
L 1418.804033 354.456216 
L 1421.280547 359.370952 
L 1422.518805 359.960359 
L 1423.757062 357.913872 
L 1424.995319 353.628402 
L 1426.233576 348.251637 
L 1427.471834 343.419694 
L 1428.710091 340.243955 
L 1429.948348 338.871962 
L 1431.186605 339.16383 
L 1433.66312 342.313438 
L 1434.901377 342.049372 
L 1436.139634 338.60566 
L 1438.616149 325.501868 
L 1439.854406 321.047887 
L 1441.092664 320.755447 
L 1442.330921 324.216035 
L 1443.569178 329.051502 
L 1444.807435 331.909993 
L 1446.045693 330.601725 
L 1447.28395 326.400015 
L 1448.522207 323.267566 
L 1449.760464 324.018072 
L 1450.998722 328.099482 
L 1453.475236 338.149946 
L 1454.713494 342.026079 
L 1455.951751 344.691215 
L 1457.190008 346.834482 
L 1458.428265 349.91528 
L 1459.666523 354.291182 
L 1460.90478 358.22277 
L 1462.143037 359.835129 
L 1463.381294 359.397897 
L 1464.619552 358.643482 
L 1465.857809 358.832964 
L 1467.096066 360.386272 
L 1469.572581 365.515448 
L 1470.810838 365.567232 
L 1472.049095 361.882697 
L 1473.287353 354.98106 
L 1474.52561 346.962487 
L 1475.763867 340.300563 
L 1477.002124 336.549514 
L 1478.240382 335.573528 
L 1479.478639 335.858119 
L 1480.716896 336.009122 
L 1481.955153 335.68754 
L 1483.193411 335.031435 
L 1484.431668 333.987715 
L 1485.669925 332.597661 
L 1486.908182 331.600046 
L 1488.14644 332.168984 
L 1489.384697 334.855216 
L 1490.622954 339.163991 
L 1495.575983 359.686521 
L 1496.814241 364.99939 
L 1498.052498 369.361052 
L 1499.290755 371.349329 
L 1500.529012 370.47071 
L 1501.76727 367.197972 
L 1503.005527 362.09843 
L 1505.482041 350.009455 
L 1506.720299 345.51261 
L 1507.958556 342.897468 
L 1509.196813 341.849799 
L 1510.435071 341.529102 
L 1511.673328 341.09158 
L 1512.911585 340.152695 
L 1515.3881 337.252887 
L 1516.626357 336.36913 
L 1517.864614 336.430179 
L 1520.341129 337.744677 
L 1521.579386 337.503184 
L 1522.817643 335.468444 
L 1524.0559 330.794777 
L 1525.294158 323.492768 
L 1526.532415 315.256444 
L 1527.770672 309.222529 
L 1529.00893 307.860933 
L 1530.247187 311.01286 
L 1531.485444 316.101056 
L 1532.723701 319.767887 
L 1533.961959 319.70101 
L 1535.200216 315.331439 
L 1536.438473 307.494243 
L 1538.914988 288.46213 
L 1540.153245 280.499337 
L 1541.391502 274.893017 
L 1542.62976 271.372244 
L 1543.868017 268.842022 
L 1545.106274 266.931197 
L 1546.344531 266.909064 
L 1547.582789 270.249032 
L 1548.821046 276.3938 
L 1550.059303 283.136289 
L 1552.535818 295.511659 
L 1553.774075 303.006393 
L 1556.250589 319.304554 
L 1557.488847 323.910375 
L 1558.727104 323.790862 
L 1559.965361 318.101762 
L 1561.203619 307.044308 
L 1562.441876 293.717456 
L 1563.680133 283.370702 
L 1564.91839 279.422034 
L 1566.156648 280.826886 
L 1567.394905 283.976916 
L 1571.109677 292.341899 
L 1573.586191 299.694215 
L 1574.824448 302.887293 
L 1576.062706 305.500651 
L 1577.300963 307.207961 
L 1578.53922 306.987347 
L 1579.777478 304.753388 
L 1581.015735 301.785955 
L 1582.253992 299.290272 
L 1583.492249 297.629216 
L 1585.968764 295.560962 
L 1587.207021 293.951982 
L 1588.445278 291.53786 
L 1589.683536 288.730565 
L 1590.921793 286.763263 
L 1592.16005 287.236294 
L 1593.398307 290.392069 
L 1594.636565 294.375405 
L 1595.874822 297.079361 
L 1598.351337 299.569519 
L 1599.589594 301.98615 
L 1600.827851 305.775108 
L 1603.304366 314.939036 
L 1604.542623 317.949835 
L 1605.78088 318.613378 
L 1608.257395 316.523683 
L 1610.733909 317.137695 
L 1611.972166 315.184415 
L 1613.210424 310.485952 
L 1614.448681 305.015423 
L 1615.686938 301.031196 
L 1616.925196 299.428341 
L 1618.163453 300.180664 
L 1619.40171 303.332716 
L 1620.639967 308.76501 
L 1623.116482 322.037376 
L 1624.354739 326.890638 
L 1625.592996 328.636009 
L 1626.831254 325.141796 
L 1628.069511 314.645346 
L 1630.546026 284.765614 
L 1631.784283 279.143084 
L 1633.02254 284.354856 
L 1635.499055 308.121971 
L 1636.737312 313.783795 
L 1637.975569 309.281298 
L 1639.213826 293.475369 
L 1640.452084 268.143257 
L 1641.690341 237.364527 
L 1641.690341 237.364527 
" style="fill:none;stroke:#008000;stroke-linecap:square;stroke-width:1.5;"/>
   </g>
   <g id="patch_3">
    <path d="M 43.78125 586.86358 
L 43.78125 22.318125 
" style="fill:none;stroke:#000000;stroke-linecap:square;stroke-linejoin:miter;stroke-width:0.8;"/>
   </g>
   <g id="patch_4">
    <path d="M 1717.78125 586.86358 
L 1717.78125 22.318125 
" style="fill:none;stroke:#000000;stroke-linecap:square;stroke-linejoin:miter;stroke-width:0.8;"/>
   </g>
   <g id="patch_5">
    <path d="M 43.78125 586.86358 
L 1717.78125 586.86358 
" style="fill:none;stroke:#000000;stroke-linecap:square;stroke-linejoin:miter;stroke-width:0.8;"/>
   </g>
   <g id="patch_6">
    <path d="M 43.78125 22.318125 
L 1717.78125 22.318125 
" style="fill:none;stroke:#000000;stroke-linecap:square;stroke-linejoin:miter;stroke-width:0.8;"/>
   </g>
   <g id="text_18">
    <!-- before binarisation -->
    <g transform="translate(824.1825 16.318125)scale(0.12 -0.12)">
     <defs>
      <path d="M 3116 1747 
Q 3116 2381 2855 2742 
Q 2594 3103 2138 3103 
Q 1681 3103 1420 2742 
Q 1159 2381 1159 1747 
Q 1159 1113 1420 752 
Q 1681 391 2138 391 
Q 2594 391 2855 752 
Q 3116 1113 3116 1747 
z
M 1159 2969 
Q 1341 3281 1617 3432 
Q 1894 3584 2278 3584 
Q 2916 3584 3314 3078 
Q 3713 2572 3713 1747 
Q 3713 922 3314 415 
Q 2916 -91 2278 -91 
Q 1894 -91 1617 61 
Q 1341 213 1159 525 
L 1159 0 
L 581 0 
L 581 4863 
L 1159 4863 
L 1159 2969 
z
" id="DejaVuSans-62" transform="scale(0.015625)"/>
      <path d="M 1959 3097 
Q 1497 3097 1228 2736 
Q 959 2375 959 1747 
Q 959 1119 1226 758 
Q 1494 397 1959 397 
Q 2419 397 2687 759 
Q 2956 1122 2956 1747 
Q 2956 2369 2687 2733 
Q 2419 3097 1959 3097 
z
M 1959 3584 
Q 2709 3584 3137 3096 
Q 3566 2609 3566 1747 
Q 3566 888 3137 398 
Q 2709 -91 1959 -91 
Q 1206 -91 779 398 
Q 353 888 353 1747 
Q 353 2609 779 3096 
Q 1206 3584 1959 3584 
z
" id="DejaVuSans-6f" transform="scale(0.015625)"/>
      <path id="DejaVuSans-20" transform="scale(0.015625)"/>
      <path d="M 603 3500 
L 1178 3500 
L 1178 0 
L 603 0 
L 603 3500 
z
M 603 4863 
L 1178 4863 
L 1178 4134 
L 603 4134 
L 603 4863 
z
" id="DejaVuSans-69" transform="scale(0.015625)"/>
      <path d="M 3513 2113 
L 3513 0 
L 2938 0 
L 2938 2094 
Q 2938 2591 2744 2837 
Q 2550 3084 2163 3084 
Q 1697 3084 1428 2787 
Q 1159 2491 1159 1978 
L 1159 0 
L 581 0 
L 581 3500 
L 1159 3500 
L 1159 2956 
Q 1366 3272 1645 3428 
Q 1925 3584 2291 3584 
Q 2894 3584 3203 3211 
Q 3513 2838 3513 2113 
z
" id="DejaVuSans-6e" transform="scale(0.015625)"/>
      <path d="M 2834 3397 
L 2834 2853 
Q 2591 2978 2328 3040 
Q 2066 3103 1784 3103 
Q 1356 3103 1142 2972 
Q 928 2841 928 2578 
Q 928 2378 1081 2264 
Q 1234 2150 1697 2047 
L 1894 2003 
Q 2506 1872 2764 1633 
Q 3022 1394 3022 966 
Q 3022 478 2636 193 
Q 2250 -91 1575 -91 
Q 1294 -91 989 -36 
Q 684 19 347 128 
L 347 722 
Q 666 556 975 473 
Q 1284 391 1588 391 
Q 1994 391 2212 530 
Q 2431 669 2431 922 
Q 2431 1156 2273 1281 
Q 2116 1406 1581 1522 
L 1381 1569 
Q 847 1681 609 1914 
Q 372 2147 372 2553 
Q 372 3047 722 3315 
Q 1072 3584 1716 3584 
Q 2034 3584 2315 3537 
Q 2597 3491 2834 3397 
z
" id="DejaVuSans-73" transform="scale(0.015625)"/>
      <path d="M 1172 4494 
L 1172 3500 
L 2356 3500 
L 2356 3053 
L 1172 3053 
L 1172 1153 
Q 1172 725 1289 603 
Q 1406 481 1766 481 
L 2356 481 
L 2356 0 
L 1766 0 
Q 1100 0 847 248 
Q 594 497 594 1153 
L 594 3053 
L 172 3053 
L 172 3500 
L 594 3500 
L 594 4494 
L 1172 4494 
z
" id="DejaVuSans-74" transform="scale(0.015625)"/>
     </defs>
     <use xlink:href="#DejaVuSans-62"/>
     <use x="63.476562" xlink:href="#DejaVuSans-65"/>
     <use x="125" xlink:href="#DejaVuSans-66"/>
     <use x="160.205078" xlink:href="#DejaVuSans-6f"/>
     <use x="221.386719" xlink:href="#DejaVuSans-72"/>
     <use x="260.25" xlink:href="#DejaVuSans-65"/>
     <use x="321.773438" xlink:href="#DejaVuSans-20"/>
     <use x="353.560547" xlink:href="#DejaVuSans-62"/>
     <use x="417.037109" xlink:href="#DejaVuSans-69"/>
     <use x="444.820312" xlink:href="#DejaVuSans-6e"/>
     <use x="508.199219" xlink:href="#DejaVuSans-61"/>
     <use x="569.478516" xlink:href="#DejaVuSans-72"/>
     <use x="610.591797" xlink:href="#DejaVuSans-69"/>
     <use x="638.375" xlink:href="#DejaVuSans-73"/>
     <use x="690.474609" xlink:href="#DejaVuSans-61"/>
     <use x="751.753906" xlink:href="#DejaVuSans-74"/>
     <use x="790.962891" xlink:href="#DejaVuSans-69"/>
     <use x="818.746094" xlink:href="#DejaVuSans-6f"/>
     <use x="879.927734" xlink:href="#DejaVuSans-6e"/>
    </g>
   </g>
  </g>
  <g id="axes_2">
   <g id="patch_7">
    <path d="M 43.78125 1264.318125 
L 1717.78125 1264.318125 
L 1717.78125 699.77267 
L 43.78125 699.77267 
z
" style="fill:#ffffff;"/>
   </g>
   <g id="matplotlib.axis_3">
    <g id="xtick_8">
     <g id="line2d_17">
      <g>
       <use style="stroke:#000000;stroke-width:0.8;" x="119.872159" xlink:href="#md37ef981c0" y="1264.318125"/>
      </g>
     </g>
     <g id="text_19">
      <!-- 0 -->
      <g transform="translate(116.690909 1278.916563)scale(0.1 -0.1)">
       <use xlink:href="#DejaVuSans-30"/>
      </g>
     </g>
    </g>
    <g id="xtick_9">
     <g id="line2d_18">
      <g>
       <use style="stroke:#000000;stroke-width:0.8;" x="367.523613" xlink:href="#md37ef981c0" y="1264.318125"/>
      </g>
     </g>
     <g id="text_20">
      <!-- 200 -->
      <g transform="translate(357.979863 1278.916563)scale(0.1 -0.1)">
       <use xlink:href="#DejaVuSans-32"/>
       <use x="63.623047" xlink:href="#DejaVuSans-30"/>
       <use x="127.246094" xlink:href="#DejaVuSans-30"/>
      </g>
     </g>
    </g>
    <g id="xtick_10">
     <g id="line2d_19">
      <g>
       <use style="stroke:#000000;stroke-width:0.8;" x="615.175066" xlink:href="#md37ef981c0" y="1264.318125"/>
      </g>
     </g>
     <g id="text_21">
      <!-- 400 -->
      <g transform="translate(605.631316 1278.916563)scale(0.1 -0.1)">
       <use xlink:href="#DejaVuSans-34"/>
       <use x="63.623047" xlink:href="#DejaVuSans-30"/>
       <use x="127.246094" xlink:href="#DejaVuSans-30"/>
      </g>
     </g>
    </g>
    <g id="xtick_11">
     <g id="line2d_20">
      <g>
       <use style="stroke:#000000;stroke-width:0.8;" x="862.82652" xlink:href="#md37ef981c0" y="1264.318125"/>
      </g>
     </g>
     <g id="text_22">
      <!-- 600 -->
      <g transform="translate(853.28277 1278.916563)scale(0.1 -0.1)">
       <use xlink:href="#DejaVuSans-36"/>
       <use x="63.623047" xlink:href="#DejaVuSans-30"/>
       <use x="127.246094" xlink:href="#DejaVuSans-30"/>
      </g>
     </g>
    </g>
    <g id="xtick_12">
     <g id="line2d_21">
      <g>
       <use style="stroke:#000000;stroke-width:0.8;" x="1110.477973" xlink:href="#md37ef981c0" y="1264.318125"/>
      </g>
     </g>
     <g id="text_23">
      <!-- 800 -->
      <g transform="translate(1100.934223 1278.916563)scale(0.1 -0.1)">
       <use xlink:href="#DejaVuSans-38"/>
       <use x="63.623047" xlink:href="#DejaVuSans-30"/>
       <use x="127.246094" xlink:href="#DejaVuSans-30"/>
      </g>
     </g>
    </g>
    <g id="xtick_13">
     <g id="line2d_22">
      <g>
       <use style="stroke:#000000;stroke-width:0.8;" x="1358.129427" xlink:href="#md37ef981c0" y="1264.318125"/>
      </g>
     </g>
     <g id="text_24">
      <!-- 1000 -->
      <g transform="translate(1345.404427 1278.916563)scale(0.1 -0.1)">
       <use xlink:href="#DejaVuSans-31"/>
       <use x="63.623047" xlink:href="#DejaVuSans-30"/>
       <use x="127.246094" xlink:href="#DejaVuSans-30"/>
       <use x="190.869141" xlink:href="#DejaVuSans-30"/>
      </g>
     </g>
    </g>
    <g id="xtick_14">
     <g id="line2d_23">
      <g>
       <use style="stroke:#000000;stroke-width:0.8;" x="1605.78088" xlink:href="#md37ef981c0" y="1264.318125"/>
      </g>
     </g>
     <g id="text_25">
      <!-- 1200 -->
      <g transform="translate(1593.05588 1278.916563)scale(0.1 -0.1)">
       <use xlink:href="#DejaVuSans-31"/>
       <use x="63.623047" xlink:href="#DejaVuSans-32"/>
       <use x="127.246094" xlink:href="#DejaVuSans-30"/>
       <use x="190.869141" xlink:href="#DejaVuSans-30"/>
      </g>
     </g>
    </g>
    <g id="text_26">
     <!-- frame -->
     <g transform="translate(865.954687 1292.594688)scale(0.1 -0.1)">
      <use xlink:href="#DejaVuSans-66"/>
      <use x="35.205078" xlink:href="#DejaVuSans-72"/>
      <use x="76.318359" xlink:href="#DejaVuSans-61"/>
      <use x="137.597656" xlink:href="#DejaVuSans-6d"/>
      <use x="235.009766" xlink:href="#DejaVuSans-65"/>
     </g>
    </g>
   </g>
   <g id="matplotlib.axis_4">
    <g id="ytick_9">
     <g id="line2d_24">
      <g>
       <use style="stroke:#000000;stroke-width:0.8;" x="43.78125" xlink:href="#m18a4c35b8c" y="1238.656968"/>
      </g>
     </g>
     <g id="text_27">
      <!-- 0.0 -->
      <g transform="translate(20.878125 1242.456187)scale(0.1 -0.1)">
       <use xlink:href="#DejaVuSans-30"/>
       <use x="63.623047" xlink:href="#DejaVuSans-2e"/>
       <use x="95.410156" xlink:href="#DejaVuSans-30"/>
      </g>
     </g>
    </g>
    <g id="ytick_10">
     <g id="line2d_25">
      <g>
       <use style="stroke:#000000;stroke-width:0.8;" x="43.78125" xlink:href="#m18a4c35b8c" y="1136.01234"/>
      </g>
     </g>
     <g id="text_28">
      <!-- 0.2 -->
      <g transform="translate(20.878125 1139.811559)scale(0.1 -0.1)">
       <use xlink:href="#DejaVuSans-30"/>
       <use x="63.623047" xlink:href="#DejaVuSans-2e"/>
       <use x="95.410156" xlink:href="#DejaVuSans-32"/>
      </g>
     </g>
    </g>
    <g id="ytick_11">
     <g id="line2d_26">
      <g>
       <use style="stroke:#000000;stroke-width:0.8;" x="43.78125" xlink:href="#m18a4c35b8c" y="1033.367712"/>
      </g>
     </g>
     <g id="text_29">
      <!-- 0.4 -->
      <g transform="translate(20.878125 1037.166931)scale(0.1 -0.1)">
       <use xlink:href="#DejaVuSans-30"/>
       <use x="63.623047" xlink:href="#DejaVuSans-2e"/>
       <use x="95.410156" xlink:href="#DejaVuSans-34"/>
      </g>
     </g>
    </g>
    <g id="ytick_12">
     <g id="line2d_27">
      <g>
       <use style="stroke:#000000;stroke-width:0.8;" x="43.78125" xlink:href="#m18a4c35b8c" y="930.723084"/>
      </g>
     </g>
     <g id="text_30">
      <!-- 0.6 -->
      <g transform="translate(20.878125 934.522302)scale(0.1 -0.1)">
       <use xlink:href="#DejaVuSans-30"/>
       <use x="63.623047" xlink:href="#DejaVuSans-2e"/>
       <use x="95.410156" xlink:href="#DejaVuSans-36"/>
      </g>
     </g>
    </g>
    <g id="ytick_13">
     <g id="line2d_28">
      <g>
       <use style="stroke:#000000;stroke-width:0.8;" x="43.78125" xlink:href="#m18a4c35b8c" y="828.078456"/>
      </g>
     </g>
     <g id="text_31">
      <!-- 0.8 -->
      <g transform="translate(20.878125 831.877674)scale(0.1 -0.1)">
       <use xlink:href="#DejaVuSans-30"/>
       <use x="63.623047" xlink:href="#DejaVuSans-2e"/>
       <use x="95.410156" xlink:href="#DejaVuSans-38"/>
      </g>
     </g>
    </g>
    <g id="ytick_14">
     <g id="line2d_29">
      <g>
       <use style="stroke:#000000;stroke-width:0.8;" x="43.78125" xlink:href="#m18a4c35b8c" y="725.433827"/>
      </g>
     </g>
     <g id="text_32">
      <!-- 1.0 -->
      <g transform="translate(20.878125 729.233046)scale(0.1 -0.1)">
       <use xlink:href="#DejaVuSans-31"/>
       <use x="63.623047" xlink:href="#DejaVuSans-2e"/>
       <use x="95.410156" xlink:href="#DejaVuSans-30"/>
      </g>
     </g>
    </g>
    <g id="text_33">
     <!-- GCaMP -->
     <g transform="translate(14.798437 999.803991)rotate(-90)scale(0.1 -0.1)">
      <use xlink:href="#DejaVuSans-47"/>
      <use x="77.490234" xlink:href="#DejaVuSans-43"/>
      <use x="147.314453" xlink:href="#DejaVuSans-61"/>
      <use x="208.59375" xlink:href="#DejaVuSans-4d"/>
      <use x="294.873047" xlink:href="#DejaVuSans-50"/>
     </g>
    </g>
   </g>
   <g id="line2d_30">
    <path clip-path="url(#p1ba3edd592)" d="M 119.872159 1238.656968 
L 734.047764 1238.656968 
L 735.286021 725.433827 
L 745.192079 725.433827 
L 746.430336 1238.656968 
L 758.812909 1238.656968 
L 760.051166 725.433827 
L 812.057972 725.433827 
L 813.296229 1238.656968 
L 831.870088 1238.656968 
L 833.108345 725.433827 
L 839.299632 725.433827 
L 840.537889 1238.656968 
L 878.923864 1238.656968 
L 880.162121 725.433827 
L 896.259466 725.433827 
L 897.497723 1238.656968 
L 908.642039 1238.656968 
L 909.880296 725.433827 
L 958.172329 725.433827 
L 959.410586 1238.656968 
L 963.125358 1238.656968 
L 964.363616 725.433827 
L 1032.467765 725.433827 
L 1033.706023 1238.656968 
L 1049.803367 1238.656968 
L 1051.041624 725.433827 
L 1060.947682 725.433827 
L 1062.18594 1238.656968 
L 1064.662454 1238.656968 
L 1065.900711 725.433827 
L 1072.091998 725.433827 
L 1073.330255 1238.656968 
L 1641.690341 1238.656968 
L 1641.690341 1238.656968 
" style="fill:none;stroke:#008000;stroke-linecap:square;stroke-width:1.5;"/>
   </g>
   <g id="patch_8">
    <path d="M 43.78125 1264.318125 
L 43.78125 699.77267 
" style="fill:none;stroke:#000000;stroke-linecap:square;stroke-linejoin:miter;stroke-width:0.8;"/>
   </g>
   <g id="patch_9">
    <path d="M 1717.78125 1264.318125 
L 1717.78125 699.77267 
" style="fill:none;stroke:#000000;stroke-linecap:square;stroke-linejoin:miter;stroke-width:0.8;"/>
   </g>
   <g id="patch_10">
    <path d="M 43.78125 1264.318125 
L 1717.78125 1264.318125 
" style="fill:none;stroke:#000000;stroke-linecap:square;stroke-linejoin:miter;stroke-width:0.8;"/>
   </g>
   <g id="patch_11">
    <path d="M 43.78125 699.77267 
L 1717.78125 699.77267 
" style="fill:none;stroke:#000000;stroke-linecap:square;stroke-linejoin:miter;stroke-width:0.8;"/>
   </g>
   <g id="text_34">
    <!-- before binarisation -->
    <g transform="translate(824.1825 693.77267)scale(0.12 -0.12)">
     <use xlink:href="#DejaVuSans-62"/>
     <use x="63.476562" xlink:href="#DejaVuSans-65"/>
     <use x="125" xlink:href="#DejaVuSans-66"/>
     <use x="160.205078" xlink:href="#DejaVuSans-6f"/>
     <use x="221.386719" xlink:href="#DejaVuSans-72"/>
     <use x="260.25" xlink:href="#DejaVuSans-65"/>
     <use x="321.773438" xlink:href="#DejaVuSans-20"/>
     <use x="353.560547" xlink:href="#DejaVuSans-62"/>
     <use x="417.037109" xlink:href="#DejaVuSans-69"/>
     <use x="444.820312" xlink:href="#DejaVuSans-6e"/>
     <use x="508.199219" xlink:href="#DejaVuSans-61"/>
     <use x="569.478516" xlink:href="#DejaVuSans-72"/>
     <use x="610.591797" xlink:href="#DejaVuSans-69"/>
     <use x="638.375" xlink:href="#DejaVuSans-73"/>
     <use x="690.474609" xlink:href="#DejaVuSans-61"/>
     <use x="751.753906" xlink:href="#DejaVuSans-74"/>
     <use x="790.962891" xlink:href="#DejaVuSans-69"/>
     <use x="818.746094" xlink:href="#DejaVuSans-6f"/>
     <use x="879.927734" xlink:href="#DejaVuSans-6e"/>
    </g>
   </g>
  </g>
 </g>
 <defs>
  <clipPath id="p4de75b121f">
   <rect height="564.545455" width="1674" x="43.78125" y="22.318125"/>
  </clipPath>
  <clipPath id="p1ba3edd592">
   <rect height="564.545455" width="1674" x="43.78125" y="699.77267"/>
  </clipPath>
 </defs>
</svg>
