<?xml version="1.0" encoding="utf-8" standalone="no"?>
<!DOCTYPE svg PUBLIC "-//W3C//DTD SVG 1.1//EN"
  "http://www.w3.org/Graphics/SVG/1.1/DTD/svg11.dtd">
<svg height="1301.874375pt" version="1.1" viewBox="0 0 1724.98125 1301.874375" width="1724.98125pt" xmlns="http://www.w3.org/2000/svg" xmlns:xlink="http://www.w3.org/1999/xlink">
 <metadata>
  <rdf:RDF xmlns:cc="http://creativecommons.org/ns#" xmlns:dc="http://purl.org/dc/elements/1.1/" xmlns:rdf="http://www.w3.org/1999/02/22-rdf-syntax-ns#">
   <cc:Work>
    <dc:type rdf:resource="http://purl.org/dc/dcmitype/StillImage"/>
    <dc:date>2022-07-24T15:54:48.730166</dc:date>
    <dc:format>image/svg+xml</dc:format>
    <dc:creator>
     <cc:Agent>
      <dc:title>Matplotlib v3.4.2, https://matplotlib.org/</dc:title>
     </cc:Agent>
    </dc:creator>
   </cc:Work>
  </rdf:RDF>
 </metadata>
 <defs>
  <style type="text/css">*{stroke-linecap:butt;stroke-linejoin:round;}</style>
 </defs>
 <g id="figure_1">
  <g id="patch_1">
   <path d="M 0 1301.874375 
L 1724.98125 1301.874375 
L 1724.98125 0 
L 0 0 
z
" style="fill:#ffffff;"/>
  </g>
  <g id="axes_1">
   <g id="patch_2">
    <path d="M 43.78125 586.86358 
L 1717.78125 586.86358 
L 1717.78125 22.318125 
L 43.78125 22.318125 
z
" style="fill:#ffffff;"/>
   </g>
   <g id="matplotlib.axis_1">
    <g id="xtick_1">
     <g id="line2d_1">
      <defs>
       <path d="M 0 0 
L 0 3.5 
" id="m7339003907" style="stroke:#000000;stroke-width:0.8;"/>
      </defs>
      <g>
       <use style="stroke:#000000;stroke-width:0.8;" x="119.872159" xlink:href="#m7339003907" y="586.86358"/>
      </g>
     </g>
     <g id="text_1">
      <!-- 0 -->
      <g transform="translate(116.690909 601.462017)scale(0.1 -0.1)">
       <defs>
        <path d="M 2034 4250 
Q 1547 4250 1301 3770 
Q 1056 3291 1056 2328 
Q 1056 1369 1301 889 
Q 1547 409 2034 409 
Q 2525 409 2770 889 
Q 3016 1369 3016 2328 
Q 3016 3291 2770 3770 
Q 2525 4250 2034 4250 
z
M 2034 4750 
Q 2819 4750 3233 4129 
Q 3647 3509 3647 2328 
Q 3647 1150 3233 529 
Q 2819 -91 2034 -91 
Q 1250 -91 836 529 
Q 422 1150 422 2328 
Q 422 3509 836 4129 
Q 1250 4750 2034 4750 
z
" id="DejaVuSans-30" transform="scale(0.015625)"/>
       </defs>
       <use xlink:href="#DejaVuSans-30"/>
      </g>
     </g>
    </g>
    <g id="xtick_2">
     <g id="line2d_2">
      <g>
       <use style="stroke:#000000;stroke-width:0.8;" x="367.523613" xlink:href="#m7339003907" y="586.86358"/>
      </g>
     </g>
     <g id="text_2">
      <!-- 200 -->
      <g transform="translate(357.979863 601.462017)scale(0.1 -0.1)">
       <defs>
        <path d="M 1228 531 
L 3431 531 
L 3431 0 
L 469 0 
L 469 531 
Q 828 903 1448 1529 
Q 2069 2156 2228 2338 
Q 2531 2678 2651 2914 
Q 2772 3150 2772 3378 
Q 2772 3750 2511 3984 
Q 2250 4219 1831 4219 
Q 1534 4219 1204 4116 
Q 875 4013 500 3803 
L 500 4441 
Q 881 4594 1212 4672 
Q 1544 4750 1819 4750 
Q 2544 4750 2975 4387 
Q 3406 4025 3406 3419 
Q 3406 3131 3298 2873 
Q 3191 2616 2906 2266 
Q 2828 2175 2409 1742 
Q 1991 1309 1228 531 
z
" id="DejaVuSans-32" transform="scale(0.015625)"/>
       </defs>
       <use xlink:href="#DejaVuSans-32"/>
       <use x="63.623047" xlink:href="#DejaVuSans-30"/>
       <use x="127.246094" xlink:href="#DejaVuSans-30"/>
      </g>
     </g>
    </g>
    <g id="xtick_3">
     <g id="line2d_3">
      <g>
       <use style="stroke:#000000;stroke-width:0.8;" x="615.175066" xlink:href="#m7339003907" y="586.86358"/>
      </g>
     </g>
     <g id="text_3">
      <!-- 400 -->
      <g transform="translate(605.631316 601.462017)scale(0.1 -0.1)">
       <defs>
        <path d="M 2419 4116 
L 825 1625 
L 2419 1625 
L 2419 4116 
z
M 2253 4666 
L 3047 4666 
L 3047 1625 
L 3713 1625 
L 3713 1100 
L 3047 1100 
L 3047 0 
L 2419 0 
L 2419 1100 
L 313 1100 
L 313 1709 
L 2253 4666 
z
" id="DejaVuSans-34" transform="scale(0.015625)"/>
       </defs>
       <use xlink:href="#DejaVuSans-34"/>
       <use x="63.623047" xlink:href="#DejaVuSans-30"/>
       <use x="127.246094" xlink:href="#DejaVuSans-30"/>
      </g>
     </g>
    </g>
    <g id="xtick_4">
     <g id="line2d_4">
      <g>
       <use style="stroke:#000000;stroke-width:0.8;" x="862.82652" xlink:href="#m7339003907" y="586.86358"/>
      </g>
     </g>
     <g id="text_4">
      <!-- 600 -->
      <g transform="translate(853.28277 601.462017)scale(0.1 -0.1)">
       <defs>
        <path d="M 2113 2584 
Q 1688 2584 1439 2293 
Q 1191 2003 1191 1497 
Q 1191 994 1439 701 
Q 1688 409 2113 409 
Q 2538 409 2786 701 
Q 3034 994 3034 1497 
Q 3034 2003 2786 2293 
Q 2538 2584 2113 2584 
z
M 3366 4563 
L 3366 3988 
Q 3128 4100 2886 4159 
Q 2644 4219 2406 4219 
Q 1781 4219 1451 3797 
Q 1122 3375 1075 2522 
Q 1259 2794 1537 2939 
Q 1816 3084 2150 3084 
Q 2853 3084 3261 2657 
Q 3669 2231 3669 1497 
Q 3669 778 3244 343 
Q 2819 -91 2113 -91 
Q 1303 -91 875 529 
Q 447 1150 447 2328 
Q 447 3434 972 4092 
Q 1497 4750 2381 4750 
Q 2619 4750 2861 4703 
Q 3103 4656 3366 4563 
z
" id="DejaVuSans-36" transform="scale(0.015625)"/>
       </defs>
       <use xlink:href="#DejaVuSans-36"/>
       <use x="63.623047" xlink:href="#DejaVuSans-30"/>
       <use x="127.246094" xlink:href="#DejaVuSans-30"/>
      </g>
     </g>
    </g>
    <g id="xtick_5">
     <g id="line2d_5">
      <g>
       <use style="stroke:#000000;stroke-width:0.8;" x="1110.477973" xlink:href="#m7339003907" y="586.86358"/>
      </g>
     </g>
     <g id="text_5">
      <!-- 800 -->
      <g transform="translate(1100.934223 601.462017)scale(0.1 -0.1)">
       <defs>
        <path d="M 2034 2216 
Q 1584 2216 1326 1975 
Q 1069 1734 1069 1313 
Q 1069 891 1326 650 
Q 1584 409 2034 409 
Q 2484 409 2743 651 
Q 3003 894 3003 1313 
Q 3003 1734 2745 1975 
Q 2488 2216 2034 2216 
z
M 1403 2484 
Q 997 2584 770 2862 
Q 544 3141 544 3541 
Q 544 4100 942 4425 
Q 1341 4750 2034 4750 
Q 2731 4750 3128 4425 
Q 3525 4100 3525 3541 
Q 3525 3141 3298 2862 
Q 3072 2584 2669 2484 
Q 3125 2378 3379 2068 
Q 3634 1759 3634 1313 
Q 3634 634 3220 271 
Q 2806 -91 2034 -91 
Q 1263 -91 848 271 
Q 434 634 434 1313 
Q 434 1759 690 2068 
Q 947 2378 1403 2484 
z
M 1172 3481 
Q 1172 3119 1398 2916 
Q 1625 2713 2034 2713 
Q 2441 2713 2670 2916 
Q 2900 3119 2900 3481 
Q 2900 3844 2670 4047 
Q 2441 4250 2034 4250 
Q 1625 4250 1398 4047 
Q 1172 3844 1172 3481 
z
" id="DejaVuSans-38" transform="scale(0.015625)"/>
       </defs>
       <use xlink:href="#DejaVuSans-38"/>
       <use x="63.623047" xlink:href="#DejaVuSans-30"/>
       <use x="127.246094" xlink:href="#DejaVuSans-30"/>
      </g>
     </g>
    </g>
    <g id="xtick_6">
     <g id="line2d_6">
      <g>
       <use style="stroke:#000000;stroke-width:0.8;" x="1358.129427" xlink:href="#m7339003907" y="586.86358"/>
      </g>
     </g>
     <g id="text_6">
      <!-- 1000 -->
      <g transform="translate(1345.404427 601.462017)scale(0.1 -0.1)">
       <defs>
        <path d="M 794 531 
L 1825 531 
L 1825 4091 
L 703 3866 
L 703 4441 
L 1819 4666 
L 2450 4666 
L 2450 531 
L 3481 531 
L 3481 0 
L 794 0 
L 794 531 
z
" id="DejaVuSans-31" transform="scale(0.015625)"/>
       </defs>
       <use xlink:href="#DejaVuSans-31"/>
       <use x="63.623047" xlink:href="#DejaVuSans-30"/>
       <use x="127.246094" xlink:href="#DejaVuSans-30"/>
       <use x="190.869141" xlink:href="#DejaVuSans-30"/>
      </g>
     </g>
    </g>
    <g id="xtick_7">
     <g id="line2d_7">
      <g>
       <use style="stroke:#000000;stroke-width:0.8;" x="1605.78088" xlink:href="#m7339003907" y="586.86358"/>
      </g>
     </g>
     <g id="text_7">
      <!-- 1200 -->
      <g transform="translate(1593.05588 601.462017)scale(0.1 -0.1)">
       <use xlink:href="#DejaVuSans-31"/>
       <use x="63.623047" xlink:href="#DejaVuSans-32"/>
       <use x="127.246094" xlink:href="#DejaVuSans-30"/>
       <use x="190.869141" xlink:href="#DejaVuSans-30"/>
      </g>
     </g>
    </g>
    <g id="text_8">
     <!-- frame -->
     <g transform="translate(865.954687 615.140142)scale(0.1 -0.1)">
      <defs>
       <path d="M 2375 4863 
L 2375 4384 
L 1825 4384 
Q 1516 4384 1395 4259 
Q 1275 4134 1275 3809 
L 1275 3500 
L 2222 3500 
L 2222 3053 
L 1275 3053 
L 1275 0 
L 697 0 
L 697 3053 
L 147 3053 
L 147 3500 
L 697 3500 
L 697 3744 
Q 697 4328 969 4595 
Q 1241 4863 1831 4863 
L 2375 4863 
z
" id="DejaVuSans-66" transform="scale(0.015625)"/>
       <path d="M 2631 2963 
Q 2534 3019 2420 3045 
Q 2306 3072 2169 3072 
Q 1681 3072 1420 2755 
Q 1159 2438 1159 1844 
L 1159 0 
L 581 0 
L 581 3500 
L 1159 3500 
L 1159 2956 
Q 1341 3275 1631 3429 
Q 1922 3584 2338 3584 
Q 2397 3584 2469 3576 
Q 2541 3569 2628 3553 
L 2631 2963 
z
" id="DejaVuSans-72" transform="scale(0.015625)"/>
       <path d="M 2194 1759 
Q 1497 1759 1228 1600 
Q 959 1441 959 1056 
Q 959 750 1161 570 
Q 1363 391 1709 391 
Q 2188 391 2477 730 
Q 2766 1069 2766 1631 
L 2766 1759 
L 2194 1759 
z
M 3341 1997 
L 3341 0 
L 2766 0 
L 2766 531 
Q 2569 213 2275 61 
Q 1981 -91 1556 -91 
Q 1019 -91 701 211 
Q 384 513 384 1019 
Q 384 1609 779 1909 
Q 1175 2209 1959 2209 
L 2766 2209 
L 2766 2266 
Q 2766 2663 2505 2880 
Q 2244 3097 1772 3097 
Q 1472 3097 1187 3025 
Q 903 2953 641 2809 
L 641 3341 
Q 956 3463 1253 3523 
Q 1550 3584 1831 3584 
Q 2591 3584 2966 3190 
Q 3341 2797 3341 1997 
z
" id="DejaVuSans-61" transform="scale(0.015625)"/>
       <path d="M 3328 2828 
Q 3544 3216 3844 3400 
Q 4144 3584 4550 3584 
Q 5097 3584 5394 3201 
Q 5691 2819 5691 2113 
L 5691 0 
L 5113 0 
L 5113 2094 
Q 5113 2597 4934 2840 
Q 4756 3084 4391 3084 
Q 3944 3084 3684 2787 
Q 3425 2491 3425 1978 
L 3425 0 
L 2847 0 
L 2847 2094 
Q 2847 2600 2669 2842 
Q 2491 3084 2119 3084 
Q 1678 3084 1418 2786 
Q 1159 2488 1159 1978 
L 1159 0 
L 581 0 
L 581 3500 
L 1159 3500 
L 1159 2956 
Q 1356 3278 1631 3431 
Q 1906 3584 2284 3584 
Q 2666 3584 2933 3390 
Q 3200 3197 3328 2828 
z
" id="DejaVuSans-6d" transform="scale(0.015625)"/>
       <path d="M 3597 1894 
L 3597 1613 
L 953 1613 
Q 991 1019 1311 708 
Q 1631 397 2203 397 
Q 2534 397 2845 478 
Q 3156 559 3463 722 
L 3463 178 
Q 3153 47 2828 -22 
Q 2503 -91 2169 -91 
Q 1331 -91 842 396 
Q 353 884 353 1716 
Q 353 2575 817 3079 
Q 1281 3584 2069 3584 
Q 2775 3584 3186 3129 
Q 3597 2675 3597 1894 
z
M 3022 2063 
Q 3016 2534 2758 2815 
Q 2500 3097 2075 3097 
Q 1594 3097 1305 2825 
Q 1016 2553 972 2059 
L 3022 2063 
z
" id="DejaVuSans-65" transform="scale(0.015625)"/>
      </defs>
      <use xlink:href="#DejaVuSans-66"/>
      <use x="35.205078" xlink:href="#DejaVuSans-72"/>
      <use x="76.318359" xlink:href="#DejaVuSans-61"/>
      <use x="137.597656" xlink:href="#DejaVuSans-6d"/>
      <use x="235.009766" xlink:href="#DejaVuSans-65"/>
     </g>
    </g>
   </g>
   <g id="matplotlib.axis_2">
    <g id="ytick_1">
     <g id="line2d_8">
      <defs>
       <path d="M 0 0 
L -3.5 0 
" id="ma1814a4c0a" style="stroke:#000000;stroke-width:0.8;"/>
      </defs>
      <g>
       <use style="stroke:#000000;stroke-width:0.8;" x="43.78125" xlink:href="#ma1814a4c0a" y="581.87486"/>
      </g>
     </g>
     <g id="text_9">
      <!-- 0.6 -->
      <g transform="translate(20.878125 585.674078)scale(0.1 -0.1)">
       <defs>
        <path d="M 684 794 
L 1344 794 
L 1344 0 
L 684 0 
L 684 794 
z
" id="DejaVuSans-2e" transform="scale(0.015625)"/>
       </defs>
       <use xlink:href="#DejaVuSans-30"/>
       <use x="63.623047" xlink:href="#DejaVuSans-2e"/>
       <use x="95.410156" xlink:href="#DejaVuSans-36"/>
      </g>
     </g>
    </g>
    <g id="ytick_2">
     <g id="line2d_9">
      <g>
       <use style="stroke:#000000;stroke-width:0.8;" x="43.78125" xlink:href="#ma1814a4c0a" y="518.937811"/>
      </g>
     </g>
     <g id="text_10">
      <!-- 0.8 -->
      <g transform="translate(20.878125 522.737029)scale(0.1 -0.1)">
       <use xlink:href="#DejaVuSans-30"/>
       <use x="63.623047" xlink:href="#DejaVuSans-2e"/>
       <use x="95.410156" xlink:href="#DejaVuSans-38"/>
      </g>
     </g>
    </g>
    <g id="ytick_3">
     <g id="line2d_10">
      <g>
       <use style="stroke:#000000;stroke-width:0.8;" x="43.78125" xlink:href="#ma1814a4c0a" y="456.000762"/>
      </g>
     </g>
     <g id="text_11">
      <!-- 1.0 -->
      <g transform="translate(20.878125 459.79998)scale(0.1 -0.1)">
       <use xlink:href="#DejaVuSans-31"/>
       <use x="63.623047" xlink:href="#DejaVuSans-2e"/>
       <use x="95.410156" xlink:href="#DejaVuSans-30"/>
      </g>
     </g>
    </g>
    <g id="ytick_4">
     <g id="line2d_11">
      <g>
       <use style="stroke:#000000;stroke-width:0.8;" x="43.78125" xlink:href="#ma1814a4c0a" y="393.063713"/>
      </g>
     </g>
     <g id="text_12">
      <!-- 1.2 -->
      <g transform="translate(20.878125 396.862931)scale(0.1 -0.1)">
       <use xlink:href="#DejaVuSans-31"/>
       <use x="63.623047" xlink:href="#DejaVuSans-2e"/>
       <use x="95.410156" xlink:href="#DejaVuSans-32"/>
      </g>
     </g>
    </g>
    <g id="ytick_5">
     <g id="line2d_12">
      <g>
       <use style="stroke:#000000;stroke-width:0.8;" x="43.78125" xlink:href="#ma1814a4c0a" y="330.126664"/>
      </g>
     </g>
     <g id="text_13">
      <!-- 1.4 -->
      <g transform="translate(20.878125 333.925882)scale(0.1 -0.1)">
       <use xlink:href="#DejaVuSans-31"/>
       <use x="63.623047" xlink:href="#DejaVuSans-2e"/>
       <use x="95.410156" xlink:href="#DejaVuSans-34"/>
      </g>
     </g>
    </g>
    <g id="ytick_6">
     <g id="line2d_13">
      <g>
       <use style="stroke:#000000;stroke-width:0.8;" x="43.78125" xlink:href="#ma1814a4c0a" y="267.189615"/>
      </g>
     </g>
     <g id="text_14">
      <!-- 1.6 -->
      <g transform="translate(20.878125 270.988833)scale(0.1 -0.1)">
       <use xlink:href="#DejaVuSans-31"/>
       <use x="63.623047" xlink:href="#DejaVuSans-2e"/>
       <use x="95.410156" xlink:href="#DejaVuSans-36"/>
      </g>
     </g>
    </g>
    <g id="ytick_7">
     <g id="line2d_14">
      <g>
       <use style="stroke:#000000;stroke-width:0.8;" x="43.78125" xlink:href="#ma1814a4c0a" y="204.252566"/>
      </g>
     </g>
     <g id="text_15">
      <!-- 1.8 -->
      <g transform="translate(20.878125 208.051784)scale(0.1 -0.1)">
       <use xlink:href="#DejaVuSans-31"/>
       <use x="63.623047" xlink:href="#DejaVuSans-2e"/>
       <use x="95.410156" xlink:href="#DejaVuSans-38"/>
      </g>
     </g>
    </g>
    <g id="ytick_8">
     <g id="line2d_15">
      <g>
       <use style="stroke:#000000;stroke-width:0.8;" x="43.78125" xlink:href="#ma1814a4c0a" y="141.315517"/>
      </g>
     </g>
     <g id="text_16">
      <!-- 2.0 -->
      <g transform="translate(20.878125 145.114735)scale(0.1 -0.1)">
       <use xlink:href="#DejaVuSans-32"/>
       <use x="63.623047" xlink:href="#DejaVuSans-2e"/>
       <use x="95.410156" xlink:href="#DejaVuSans-30"/>
      </g>
     </g>
    </g>
    <g id="ytick_9">
     <g id="line2d_16">
      <g>
       <use style="stroke:#000000;stroke-width:0.8;" x="43.78125" xlink:href="#ma1814a4c0a" y="78.378468"/>
      </g>
     </g>
     <g id="text_17">
      <!-- 2.2 -->
      <g transform="translate(20.878125 82.177686)scale(0.1 -0.1)">
       <use xlink:href="#DejaVuSans-32"/>
       <use x="63.623047" xlink:href="#DejaVuSans-2e"/>
       <use x="95.410156" xlink:href="#DejaVuSans-32"/>
      </g>
     </g>
    </g>
    <g id="text_18">
     <!-- GCaMP -->
     <g transform="translate(14.798437 322.349446)rotate(-90)scale(0.1 -0.1)">
      <defs>
       <path d="M 3809 666 
L 3809 1919 
L 2778 1919 
L 2778 2438 
L 4434 2438 
L 4434 434 
Q 4069 175 3628 42 
Q 3188 -91 2688 -91 
Q 1594 -91 976 548 
Q 359 1188 359 2328 
Q 359 3472 976 4111 
Q 1594 4750 2688 4750 
Q 3144 4750 3555 4637 
Q 3966 4525 4313 4306 
L 4313 3634 
Q 3963 3931 3569 4081 
Q 3175 4231 2741 4231 
Q 1884 4231 1454 3753 
Q 1025 3275 1025 2328 
Q 1025 1384 1454 906 
Q 1884 428 2741 428 
Q 3075 428 3337 486 
Q 3600 544 3809 666 
z
" id="DejaVuSans-47" transform="scale(0.015625)"/>
       <path d="M 4122 4306 
L 4122 3641 
Q 3803 3938 3442 4084 
Q 3081 4231 2675 4231 
Q 1875 4231 1450 3742 
Q 1025 3253 1025 2328 
Q 1025 1406 1450 917 
Q 1875 428 2675 428 
Q 3081 428 3442 575 
Q 3803 722 4122 1019 
L 4122 359 
Q 3791 134 3420 21 
Q 3050 -91 2638 -91 
Q 1578 -91 968 557 
Q 359 1206 359 2328 
Q 359 3453 968 4101 
Q 1578 4750 2638 4750 
Q 3056 4750 3426 4639 
Q 3797 4528 4122 4306 
z
" id="DejaVuSans-43" transform="scale(0.015625)"/>
       <path d="M 628 4666 
L 1569 4666 
L 2759 1491 
L 3956 4666 
L 4897 4666 
L 4897 0 
L 4281 0 
L 4281 4097 
L 3078 897 
L 2444 897 
L 1241 4097 
L 1241 0 
L 628 0 
L 628 4666 
z
" id="DejaVuSans-4d" transform="scale(0.015625)"/>
       <path d="M 1259 4147 
L 1259 2394 
L 2053 2394 
Q 2494 2394 2734 2622 
Q 2975 2850 2975 3272 
Q 2975 3691 2734 3919 
Q 2494 4147 2053 4147 
L 1259 4147 
z
M 628 4666 
L 2053 4666 
Q 2838 4666 3239 4311 
Q 3641 3956 3641 3272 
Q 3641 2581 3239 2228 
Q 2838 1875 2053 1875 
L 1259 1875 
L 1259 0 
L 628 0 
L 628 4666 
z
" id="DejaVuSans-50" transform="scale(0.015625)"/>
      </defs>
      <use xlink:href="#DejaVuSans-47"/>
      <use x="77.490234" xlink:href="#DejaVuSans-43"/>
      <use x="147.314453" xlink:href="#DejaVuSans-61"/>
      <use x="208.59375" xlink:href="#DejaVuSans-4d"/>
      <use x="294.873047" xlink:href="#DejaVuSans-50"/>
     </g>
    </g>
   </g>
   <g id="line2d_17">
    <path clip-path="url(#p5fb3ecce47)" d="M 119.872159 544.984403 
L 121.110416 541.203582 
L 122.348674 538.175304 
L 123.586931 536.017912 
L 127.301703 530.56236 
L 129.778217 526.703136 
L 131.016474 525.307424 
L 132.254732 524.96144 
L 133.492989 525.683639 
L 135.969504 527.996274 
L 137.207761 528.702184 
L 138.446018 529.07364 
L 140.922533 529.560396 
L 142.16079 530.161773 
L 143.399047 531.213715 
L 144.637304 532.9525 
L 145.875562 535.547102 
L 148.352076 541.32049 
L 150.828591 546.074045 
L 154.543363 554.14622 
L 155.78162 555.897144 
L 157.019877 556.635079 
L 158.258134 556.386629 
L 159.496392 555.177679 
L 161.972906 550.917815 
L 163.211163 549.561882 
L 164.449421 549.642814 
L 165.687678 550.819256 
L 168.164193 553.976747 
L 169.40245 555.725925 
L 171.878964 559.722355 
L 173.117222 561.05624 
L 174.355479 561.202423 
L 175.593736 560.127469 
L 178.070251 556.365874 
L 179.308508 554.984517 
L 180.546765 554.578363 
L 181.785022 555.136989 
L 183.02328 556.088452 
L 184.261537 556.662851 
L 185.499794 556.485528 
L 191.691081 553.023478 
L 192.929338 552.673567 
L 194.167595 552.674088 
L 195.405852 552.82281 
L 196.64411 552.741446 
L 197.882367 551.946992 
L 199.120624 550.083298 
L 202.835396 541.687153 
L 205.311911 537.208643 
L 206.550168 535.31025 
L 207.788425 534.494769 
L 209.026682 535.184313 
L 210.26494 537.119697 
L 211.503197 539.583611 
L 212.741454 541.724622 
L 213.979711 543.075941 
L 216.456226 544.532294 
L 220.170998 546.632643 
L 222.647512 547.651421 
L 223.88577 548.683305 
L 226.362284 551.868289 
L 227.600541 552.625635 
L 228.838799 552.257329 
L 230.077056 550.942046 
L 232.55357 547.380916 
L 236.268342 542.714113 
L 237.5066 541.410637 
L 238.744857 540.790269 
L 239.983114 541.056301 
L 241.221371 541.850072 
L 242.459629 542.332786 
L 243.697886 541.763702 
L 244.936143 539.885376 
L 247.412658 534.423027 
L 248.650915 533.159879 
L 249.889172 533.924936 
L 251.127429 536.42994 
L 253.603944 543.018237 
L 254.842201 545.491219 
L 256.080459 547.174776 
L 257.318716 548.383121 
L 259.79523 550.28374 
L 261.033488 550.778278 
L 262.271745 550.722345 
L 263.510002 550.286886 
L 264.748259 549.665617 
L 265.986517 548.854646 
L 268.463031 546.702311 
L 269.701288 546.0685 
L 270.939546 546.409596 
L 272.177803 547.624552 
L 273.41606 549.003053 
L 274.654318 549.904939 
L 275.892575 550.212564 
L 277.130832 550.143932 
L 279.607347 549.755288 
L 280.845604 549.22231 
L 282.083861 547.849304 
L 283.322118 545.412427 
L 284.560376 542.048768 
L 285.798633 537.927372 
L 287.03689 533.095577 
L 289.513405 522.956092 
L 290.751662 519.832718 
L 291.989919 519.043307 
L 293.228177 520.12417 
L 294.466434 521.93219 
L 295.704691 523.30824 
L 296.942948 523.623123 
L 298.181206 522.840252 
L 300.65772 519.734148 
L 301.895977 518.79116 
L 303.134235 518.626144 
L 304.372492 518.660782 
L 305.610749 518.31002 
L 306.849006 517.574717 
L 308.087264 517.032265 
L 309.325521 517.587668 
L 310.563778 519.71066 
L 311.802036 522.705668 
L 313.040293 525.365662 
L 314.27855 527.126045 
L 315.516807 528.114473 
L 316.755065 528.589462 
L 319.231579 528.814856 
L 320.469836 528.832051 
L 321.708094 528.589462 
L 322.946351 527.846697 
L 324.184608 526.55278 
L 325.422866 524.814608 
L 326.661123 522.764689 
L 331.614152 513.620047 
L 332.852409 511.867552 
L 334.090666 510.493664 
L 335.328924 509.630974 
L 336.567181 509.725733 
L 337.805438 511.073389 
L 339.043695 513.070481 
L 340.281953 514.50235 
L 341.52021 514.599346 
L 342.758467 513.511646 
L 345.234982 510.028709 
L 347.711496 506.055823 
L 348.949754 504.515966 
L 350.188011 503.61829 
L 351.426268 503.335672 
L 352.664525 503.757825 
L 355.14104 505.974169 
L 356.379297 506.372591 
L 357.617554 505.54512 
L 361.332326 500.266728 
L 362.570584 499.217908 
L 363.808841 498.79501 
L 365.047098 499.143181 
L 366.285355 500.181383 
L 367.523613 501.499577 
L 368.76187 502.611288 
L 370.000127 503.135761 
L 371.238384 502.987893 
L 373.714899 501.990398 
L 374.953156 501.369186 
L 376.191413 500.481239 
L 379.906185 497.146181 
L 384.859214 492.514716 
L 386.097472 491.542211 
L 387.335729 491.302533 
L 388.573986 491.971179 
L 389.812243 492.961593 
L 392.288758 494.236135 
L 393.527015 495.529086 
L 394.765272 498.103018 
L 396.00353 501.911307 
L 397.241787 506.276001 
L 398.480044 510.10758 
L 399.718302 512.397692 
L 400.956559 512.778464 
L 402.194816 511.524454 
L 403.433073 509.168321 
L 404.671331 506.407991 
L 405.909588 504.00428 
L 407.147845 502.38386 
L 408.386102 501.531838 
L 409.62436 501.377417 
L 412.100874 502.356628 
L 413.339132 502.000235 
L 414.577389 500.271801 
L 417.053903 495.24568 
L 418.292161 493.645709 
L 419.530418 492.719345 
L 420.768675 492.205479 
L 423.24519 491.941167 
L 424.483447 491.445244 
L 425.721704 490.217159 
L 426.959961 488.279059 
L 430.674733 481.335604 
L 431.912991 479.645451 
L 433.151248 478.877726 
L 434.389505 479.164266 
L 435.627762 480.332876 
L 436.86602 482.302862 
L 439.342534 487.640508 
L 440.580791 489.428296 
L 441.819049 489.431767 
L 443.057306 487.324762 
L 444.295563 483.413137 
L 446.772078 474.001226 
L 448.010335 471.385802 
L 449.248592 471.466062 
L 451.725107 475.610808 
L 452.963364 476.481188 
L 454.201621 476.276031 
L 455.439879 475.942726 
L 457.916393 475.785653 
L 459.15465 475.307716 
L 461.631165 473.055511 
L 462.869422 472.711342 
L 464.107679 473.978377 
L 465.345937 476.813825 
L 467.822451 483.757299 
L 469.060709 485.450917 
L 470.298966 484.381093 
L 471.537223 480.131441 
L 474.013738 466.622003 
L 475.251995 461.32071 
L 476.490252 458.66611 
L 477.728509 458.701701 
L 478.966767 461.118128 
L 481.443281 469.624272 
L 482.681538 472.734249 
L 483.919796 474.091805 
L 485.158053 474.339879 
L 486.39631 474.115945 
L 487.634568 473.374914 
L 488.872825 471.88086 
L 491.349339 468.191527 
L 492.587597 466.820884 
L 493.825854 465.756607 
L 495.064111 465.08278 
L 496.302368 464.918329 
L 497.540626 465.297898 
L 498.778883 466.238026 
L 502.493655 470.484262 
L 503.731912 471.10494 
L 504.970169 470.893846 
L 506.208427 470.352607 
L 507.446684 470.34632 
L 508.684941 471.446476 
L 509.923198 473.53942 
L 511.161456 475.978969 
L 512.399713 478.030256 
L 513.63797 479.123362 
L 514.876227 478.93466 
L 516.114485 477.611737 
L 518.590999 473.604757 
L 521.067514 469.131393 
L 523.544028 463.714053 
L 524.782286 461.562225 
L 526.020543 460.17518 
L 527.2588 459.260465 
L 528.497057 458.690808 
L 529.735315 458.486621 
L 530.973572 458.152944 
L 532.211829 456.61783 
L 533.450086 453.0855 
L 535.926601 442.490051 
L 537.164858 438.264976 
L 538.403116 435.72115 
L 539.641373 434.430994 
L 540.87963 433.436431 
L 542.117887 431.604532 
L 543.356145 427.998675 
L 544.594402 422.455132 
L 547.070916 410.142744 
L 548.309174 405.537015 
L 549.547431 402.03325 
L 552.023945 396.376656 
L 553.262203 393.690097 
L 554.50046 391.541856 
L 555.738717 390.053171 
L 556.976975 388.362307 
L 558.215232 385.361129 
L 559.453489 380.924968 
L 563.168261 366.033732 
L 565.644775 356.31775 
L 570.597804 335.598904 
L 573.074319 325.465925 
L 574.312576 320.921371 
L 575.550834 317.372022 
L 576.789091 315.91607 
L 578.027348 317.17483 
L 579.265605 320.60826 
L 580.503863 324.548414 
L 581.74212 327.128646 
L 582.980377 327.297567 
L 584.218634 325.05945 
L 585.456892 321.152303 
L 586.695149 316.31684 
L 587.933406 310.849384 
L 589.171663 304.745606 
L 590.409921 297.878483 
L 592.886435 282.940758 
L 594.124693 276.589844 
L 595.36295 271.680975 
L 596.601207 268.192078 
L 597.839464 265.977566 
L 600.315979 263.198946 
L 601.554236 261.463828 
L 605.269008 254.930061 
L 606.507265 254.960088 
L 607.745523 258.219143 
L 610.222037 271.582584 
L 611.460294 276.151002 
L 612.698552 277.891718 
L 615.175066 278.706289 
L 617.651581 279.487048 
L 618.889838 280.36266 
L 620.128095 281.818566 
L 621.366352 283.029779 
L 622.60461 282.880162 
L 623.842867 281.101235 
L 626.319382 275.856081 
L 627.557639 274.721479 
L 628.795896 276.065666 
L 630.034153 280.216287 
L 632.510668 291.297922 
L 633.748925 294.615812 
L 634.987182 295.879098 
L 636.22544 295.098101 
L 637.463697 291.885339 
L 638.701954 286.455049 
L 641.178469 273.175352 
L 642.416726 265.842226 
L 644.893241 249.732882 
L 646.131498 243.48023 
L 648.608012 233.696976 
L 649.84627 227.089631 
L 652.322784 210.985716 
L 653.561041 204.16095 
L 654.799299 199.033916 
L 656.037556 195.180611 
L 657.275813 191.804188 
L 658.51407 187.890408 
L 659.752328 182.644899 
L 660.990585 176.506011 
L 662.228842 171.352132 
L 663.4671 169.042984 
L 664.705357 169.804672 
L 667.181871 174.863599 
L 668.420129 176.53342 
L 669.658386 177.079684 
L 670.896643 176.80091 
L 672.1349 176.215449 
L 673.373158 175.401819 
L 674.611415 173.839178 
L 677.087929 168.938246 
L 678.326187 166.367555 
L 679.564444 162.327135 
L 680.802701 155.790507 
L 683.279216 140.316532 
L 684.517473 134.706195 
L 685.75573 131.520918 
L 686.993988 131.13283 
L 688.232245 133.379148 
L 689.470502 136.398716 
L 690.708759 137.47398 
L 691.947017 135.970435 
L 693.185274 133.55876 
L 694.423531 131.753999 
L 695.661789 130.579767 
L 696.900046 128.484791 
L 698.138303 123.448969 
L 699.37656 115.251214 
L 700.614818 106.095616 
L 701.853075 98.548291 
L 703.091332 93.547317 
L 704.329589 90.421018 
L 706.806104 85.259929 
L 708.044361 82.518132 
L 709.282618 80.31961 
L 710.520876 79.718222 
L 711.759133 82.054476 
L 712.99739 87.469422 
L 714.235648 94.036904 
L 715.473905 99.06483 
L 716.712162 100.75085 
L 717.950419 99.238362 
L 719.188677 96.80516 
L 720.426934 96.247626 
L 721.665191 98.551025 
L 722.903448 102.339411 
L 724.141706 105.62491 
L 725.379963 107.213013 
L 726.61822 106.125252 
L 727.856477 101.636751 
L 729.094735 94.91792 
L 730.332992 89.372412 
L 731.571249 88.458476 
L 732.809507 92.723218 
L 734.047764 99.079588 
L 735.286021 103.351925 
L 736.524278 103.172318 
L 737.762536 99.094582 
L 741.477307 82.966816 
L 743.953822 70.666932 
L 745.192079 66.523008 
L 746.430336 64.339866 
L 747.668594 63.291154 
L 748.906851 63.050977 
L 750.145108 63.907412 
L 751.383366 66.087922 
L 753.85988 72.806691 
L 755.098137 75.040176 
L 756.336395 75.166052 
L 757.574652 73.442307 
L 758.812909 70.410334 
L 760.051166 66.167545 
L 763.765938 50.030684 
L 765.004195 47.979282 
L 766.242453 50.900588 
L 767.48071 59.639601 
L 771.195482 98.826134 
L 772.433739 107.410552 
L 773.671996 112.906234 
L 774.910254 115.842259 
L 776.148511 116.502623 
L 777.386768 115.664676 
L 778.625025 114.985104 
L 779.863283 115.882 
L 781.10154 118.345959 
L 782.339797 121.334782 
L 783.578054 123.950151 
L 784.816312 126.238912 
L 786.054569 128.802541 
L 788.531084 134.237995 
L 789.769341 136.844472 
L 793.484113 146.13971 
L 794.72237 148.063941 
L 795.960627 149.186408 
L 797.198884 149.610503 
L 798.437142 149.4999 
L 799.675399 148.895538 
L 800.913656 147.725519 
L 802.151914 146.391581 
L 803.390171 145.606202 
L 804.628428 145.261266 
L 805.866685 144.495638 
L 810.819714 138.751906 
L 813.296229 134.88029 
L 814.534486 133.960847 
L 815.772743 134.82859 
L 817.011001 137.939061 
L 819.487515 148.74236 
L 820.725773 151.974716 
L 821.96403 151.812359 
L 823.202287 149.834542 
L 824.440544 148.433311 
L 825.678802 148.717639 
L 828.155316 151.299825 
L 829.393573 152.430589 
L 830.631831 153.71819 
L 831.870088 154.666821 
L 833.108345 154.44501 
L 834.346602 153.515764 
L 835.58486 153.722435 
L 836.823117 156.337972 
L 839.299632 164.49655 
L 840.537889 166.909685 
L 841.776146 167.478549 
L 843.014403 166.310401 
L 844.252661 164.033836 
L 845.490918 161.466421 
L 846.729175 159.453938 
L 847.967432 159.442008 
L 849.20569 162.769143 
L 850.443947 168.515089 
L 851.682204 173.031311 
L 852.920461 172.348187 
L 854.158719 165.390886 
L 855.396976 155.303967 
L 856.635233 147.120834 
L 857.873491 143.695098 
L 859.111748 144.438989 
L 860.350005 147.472409 
L 861.588262 151.556285 
L 866.541291 169.893214 
L 867.779549 175.015331 
L 869.017806 180.838897 
L 872.732578 201.384114 
L 873.970835 205.736343 
L 875.209092 207.973313 
L 876.44735 208.832779 
L 878.923864 209.529331 
L 880.162121 210.351723 
L 881.400379 211.537713 
L 883.876893 213.392433 
L 885.11515 214.903068 
L 886.353408 216.732278 
L 887.591665 217.413792 
L 888.829922 215.734553 
L 890.06818 211.79561 
L 891.306437 206.957493 
L 892.544694 202.7612 
L 893.782951 199.973428 
L 896.259466 196.908412 
L 897.497723 194.253526 
L 898.73598 189.823939 
L 902.450752 173.233229 
L 903.689009 169.261756 
L 904.927267 166.25755 
L 906.165524 162.907886 
L 907.403781 158.12647 
L 909.880296 146.664409 
L 911.118553 142.347484 
L 912.35681 139.703891 
L 913.595068 138.082579 
L 914.833325 136.9825 
L 916.071582 136.833929 
L 917.309839 137.714278 
L 918.548097 138.442301 
L 919.786354 137.275674 
L 921.024611 132.790658 
L 922.262868 124.670558 
L 924.739383 104.331121 
L 925.97764 97.449969 
L 927.215898 94.739852 
L 928.454155 95.829732 
L 929.692412 100.054986 
L 932.168927 112.441858 
L 933.407184 116.857814 
L 934.645441 119.17087 
L 935.883698 119.503917 
L 937.121956 117.728335 
L 938.360213 113.702186 
L 942.074985 96.699547 
L 947.028014 75.872997 
L 948.266271 72.10297 
L 949.504528 71.137139 
L 950.742786 73.48452 
L 951.981043 77.879646 
L 953.2193 81.70789 
L 954.457557 83.062316 
L 955.695815 82.228746 
L 956.934072 80.913996 
L 958.172329 80.991182 
L 959.410586 83.708222 
L 960.648844 88.856677 
L 961.887101 94.805373 
L 963.125358 99.893142 
L 964.363616 103.327636 
L 965.601873 105.04682 
L 966.84013 105.549324 
L 968.078387 105.588309 
L 969.316645 106.059363 
L 970.554902 107.863519 
L 973.031416 113.660622 
L 974.269674 114.722708 
L 975.507931 114.467464 
L 976.746188 114.788524 
L 977.984446 117.394023 
L 979.222703 122.711893 
L 980.46096 129.915866 
L 982.937475 146.444833 
L 984.175732 155.018985 
L 985.413989 162.304323 
L 986.652246 166.5364 
L 987.890504 167.250711 
L 989.128761 165.770592 
L 990.367018 163.868831 
L 991.605275 162.751113 
L 992.843533 163.527805 
L 994.08179 167.463832 
L 995.320047 175.065062 
L 996.558305 185.524771 
L 1000.273076 221.934894 
L 1001.511334 232.076362 
L 1002.749591 237.925601 
L 1003.987848 237.584481 
L 1005.226105 231.142793 
L 1007.70262 211.64899 
L 1008.940877 204.849859 
L 1010.179134 201.625545 
L 1011.417392 201.429087 
L 1012.655649 203.4738 
L 1013.893906 207.920807 
L 1015.132164 215.059359 
L 1016.370421 223.463493 
L 1017.608678 230.216209 
L 1018.846935 232.838262 
L 1020.085193 230.885464 
L 1021.32345 225.935925 
L 1023.799964 213.673709 
L 1025.038222 208.393161 
L 1026.276479 205.317598 
L 1027.514736 205.046978 
L 1029.991251 208.826613 
L 1031.229508 208.290755 
L 1032.467765 203.951226 
L 1033.706023 196.550699 
L 1034.94428 188.308228 
L 1036.182537 181.510477 
L 1037.420794 176.845225 
L 1041.135566 166.786354 
L 1044.850338 157.683763 
L 1046.088595 155.244245 
L 1047.326852 154.7114 
L 1048.56511 156.516165 
L 1049.803367 158.985185 
L 1051.041624 159.941042 
L 1052.279882 159.074074 
L 1053.518139 157.240902 
L 1057.232911 150.394733 
L 1058.471168 149.042222 
L 1059.709425 148.097265 
L 1060.947682 147.568698 
L 1062.18594 147.880481 
L 1063.424197 149.510425 
L 1064.662454 152.933243 
L 1065.900711 158.347372 
L 1068.377226 171.450107 
L 1069.615483 177.215775 
L 1070.853741 181.724818 
L 1072.091998 184.284157 
L 1073.330255 184.925096 
L 1074.568512 184.873357 
L 1075.80677 185.91814 
L 1077.045027 189.403247 
L 1078.283284 195.505147 
L 1080.759799 210.661893 
L 1081.998056 215.787853 
L 1083.236313 217.487081 
L 1084.474571 216.416461 
L 1088.189342 209.508265 
L 1089.4276 209.488868 
L 1090.665857 212.268285 
L 1091.904114 217.44962 
L 1094.380629 229.317735 
L 1095.618886 233.226312 
L 1096.857143 234.279931 
L 1098.0954 232.188602 
L 1100.571915 223.968186 
L 1101.810172 221.525638 
L 1103.04843 221.249994 
L 1104.286687 222.374317 
L 1105.524944 223.885364 
L 1106.763201 226.057489 
L 1108.001459 230.393101 
L 1109.239716 237.606357 
L 1110.477973 246.326125 
L 1111.71623 254.034913 
L 1112.954488 258.647737 
L 1114.192745 259.132906 
L 1115.431002 255.912891 
L 1116.669259 251.143206 
L 1117.907517 247.423921 
L 1119.145774 245.945166 
L 1120.384031 246.549064 
L 1121.622289 248.825496 
L 1122.860546 251.978169 
L 1124.098803 254.491335 
L 1125.33706 254.999375 
L 1126.575318 253.438324 
L 1127.813575 251.539414 
L 1129.051832 252.041033 
L 1130.290089 256.556145 
L 1132.766604 271.765335 
L 1134.004861 277.523008 
L 1135.243118 280.384821 
L 1136.481376 280.991293 
L 1138.95789 280.806684 
L 1140.196148 279.809698 
L 1143.910919 273.545496 
L 1145.149177 272.46029 
L 1146.387434 271.836539 
L 1147.625691 271.583736 
L 1148.863948 271.532721 
L 1150.102206 271.701089 
L 1151.340463 272.56158 
L 1152.57872 274.560091 
L 1153.816977 277.237456 
L 1155.055235 279.071545 
L 1156.293492 278.572345 
L 1157.531749 275.557353 
L 1160.008264 267.259209 
L 1161.246521 265.113301 
L 1162.484778 265.501498 
L 1163.723036 268.043315 
L 1164.961293 271.213672 
L 1166.19955 273.27766 
L 1167.437807 273.53868 
L 1168.676065 272.447886 
L 1169.914322 270.971156 
L 1171.152579 270.176628 
L 1172.390837 270.874399 
L 1173.629094 273.255112 
L 1176.105608 280.441931 
L 1177.343866 283.429156 
L 1178.582123 285.522936 
L 1179.82038 286.611631 
L 1181.058637 286.08064 
L 1182.296895 283.384644 
L 1183.535152 278.847243 
L 1186.011666 268.123924 
L 1187.249924 263.870751 
L 1188.488181 261.00887 
L 1189.726438 259.848816 
L 1190.964696 260.629458 
L 1192.202953 262.980159 
L 1193.44121 266.501466 
L 1195.917725 275.262947 
L 1197.155982 277.10542 
L 1198.394239 275.790287 
L 1200.870754 269.816937 
L 1202.109011 268.507641 
L 1203.347268 269.634666 
L 1204.585525 273.538909 
L 1205.823783 279.818683 
L 1207.06204 287.055697 
L 1208.300297 292.993113 
L 1209.538555 295.992126 
L 1210.776812 296.354694 
L 1212.015069 295.439471 
L 1214.491584 292.592508 
L 1215.729841 291.629196 
L 1216.968098 292.106483 
L 1218.206355 294.564733 
L 1220.68287 302.742915 
L 1221.921127 305.727348 
L 1223.159384 306.760379 
L 1224.397642 306.190947 
L 1225.635899 304.82216 
L 1229.350671 299.597902 
L 1230.588928 299.471589 
L 1231.827185 300.909863 
L 1233.065443 303.717384 
L 1235.541957 311.233808 
L 1236.780214 314.441501 
L 1238.018472 316.718972 
L 1239.256729 318.279631 
L 1241.733243 321.026984 
L 1242.971501 322.849991 
L 1244.209758 325.333603 
L 1245.448015 328.2033 
L 1246.686273 330.151942 
L 1247.92453 329.716287 
L 1249.162787 326.744648 
L 1252.877559 314.219396 
L 1254.115816 311.015658 
L 1255.354073 308.658923 
L 1256.592331 307.150026 
L 1257.830588 306.20935 
L 1260.307103 304.820408 
L 1261.54536 304.406388 
L 1262.783617 304.657522 
L 1264.021874 305.556882 
L 1265.260132 307.34816 
L 1266.498389 310.496398 
L 1267.736646 314.250248 
L 1268.974903 317.22469 
L 1270.213161 319.157372 
L 1271.451418 320.471093 
L 1272.689675 321.187676 
L 1273.927932 320.89724 
L 1275.16619 319.056569 
L 1276.404447 315.623455 
L 1277.642704 311.640513 
L 1278.880962 308.444502 
L 1280.119219 306.274704 
L 1282.595733 302.797772 
L 1283.833991 301.879121 
L 1285.072248 302.841129 
L 1286.310505 305.957942 
L 1287.548762 310.173272 
L 1288.78702 313.843351 
L 1290.025277 315.716405 
L 1291.263534 315.806612 
L 1292.501791 315.25745 
L 1293.740049 315.141492 
L 1294.978306 316.160936 
L 1296.216563 318.680533 
L 1297.454821 321.791612 
L 1298.693078 323.709641 
L 1299.931335 323.63859 
L 1301.169592 321.847772 
L 1302.40785 318.238973 
L 1303.646107 312.209964 
L 1307.360879 287.724064 
L 1308.599136 283.076675 
L 1309.837393 280.909903 
L 1311.07565 280.745239 
L 1312.313908 283.173751 
L 1313.552165 289.091278 
L 1314.790422 297.974282 
L 1316.02868 307.80925 
L 1317.266937 316.511471 
L 1318.505194 322.829972 
L 1319.743451 326.374771 
L 1320.981709 327.772554 
L 1322.219966 328.167618 
L 1323.458223 327.909783 
L 1325.934738 325.973597 
L 1327.172995 326.597104 
L 1328.411252 329.483757 
L 1329.649509 334.354621 
L 1332.126024 346.086877 
L 1333.364281 350.515824 
L 1334.602539 352.259165 
L 1335.840796 350.612302 
L 1337.079053 346.2606 
L 1338.31731 341.066433 
L 1339.555568 337.258632 
L 1340.793825 336.860892 
L 1342.032082 340.805547 
L 1343.270339 347.986314 
L 1344.508597 355.837988 
L 1345.746854 361.999465 
L 1346.985111 365.225459 
L 1348.223368 365.542284 
L 1349.461626 363.915013 
L 1350.699883 361.267419 
L 1351.93814 358.207826 
L 1353.176398 355.929776 
L 1354.414655 356.188022 
L 1355.652912 359.519095 
L 1356.891169 364.306587 
L 1358.129427 368.348314 
L 1360.605941 373.425685 
L 1363.082456 380.56033 
L 1364.320713 382.622518 
L 1365.55897 381.612105 
L 1366.797228 377.299805 
L 1369.273742 363.903197 
L 1370.511999 358.688765 
L 1371.750257 355.782208 
L 1372.988514 355.020885 
L 1374.226771 355.900737 
L 1375.465028 357.131864 
L 1376.703286 356.725304 
L 1377.941543 353.635588 
L 1380.418057 344.542237 
L 1381.656315 341.199938 
L 1382.894572 339.033308 
L 1384.132829 338.47431 
L 1385.371087 340.017228 
L 1386.609344 343.685138 
L 1387.847601 348.497433 
L 1389.085858 352.269279 
L 1390.324116 352.991273 
L 1391.562373 350.606987 
L 1394.038887 342.615307 
L 1395.277145 339.4313 
L 1396.515402 337.587151 
L 1397.753659 337.226183 
L 1398.991916 338.014633 
L 1400.230174 339.029016 
L 1401.468431 339.207916 
L 1402.706688 338.165822 
L 1406.42146 332.671387 
L 1407.659717 332.249855 
L 1408.897975 334.916963 
L 1410.136232 341.85579 
L 1412.612746 361.385563 
L 1413.851004 368.539551 
L 1415.089261 372.658569 
L 1416.327518 374.714002 
L 1418.804033 377.785806 
L 1420.04229 378.301287 
L 1421.280547 376.426751 
L 1422.518805 372.197909 
L 1424.995319 361.051943 
L 1426.233576 357.492035 
L 1427.471834 357.423969 
L 1428.710091 360.07405 
L 1429.948348 363.484304 
L 1431.186605 366.397933 
L 1432.424863 368.056376 
L 1433.66312 367.752392 
L 1434.901377 365.212693 
L 1436.139634 360.779471 
L 1438.616149 350.252594 
L 1439.854406 345.964385 
L 1441.092664 342.618363 
L 1442.330921 340.142674 
L 1443.569178 338.62357 
L 1444.807435 338.084367 
L 1446.045693 338.169502 
L 1447.28395 338.750355 
L 1448.522207 340.235687 
L 1449.760464 342.552781 
L 1450.998722 344.447607 
L 1452.236979 344.449976 
L 1453.475236 342.701674 
L 1454.713494 341.186595 
L 1455.951751 341.465684 
L 1457.190008 342.963147 
L 1458.428265 343.896749 
L 1459.666523 342.781355 
L 1460.90478 338.71366 
L 1462.143037 331.40293 
L 1464.619552 313.3367 
L 1465.857809 307.519778 
L 1467.096066 304.461291 
L 1468.334323 302.839961 
L 1472.049095 299.533255 
L 1473.287353 297.836336 
L 1474.52561 296.811544 
L 1475.763867 297.416854 
L 1477.002124 299.533665 
L 1478.240382 302.774582 
L 1481.955153 315.137274 
L 1483.193411 320.002394 
L 1484.431668 326.261901 
L 1488.14644 348.012286 
L 1489.384697 354.192005 
L 1490.622954 359.396977 
L 1491.861212 363.095398 
L 1493.099469 364.580443 
L 1494.337726 363.425933 
L 1495.575983 359.902559 
L 1498.052498 350.33988 
L 1499.290755 346.90659 
L 1501.76727 342.025888 
L 1503.005527 340.169521 
L 1504.243784 339.474328 
L 1505.482041 339.791501 
L 1506.720299 340.566792 
L 1507.958556 341.958672 
L 1509.196813 344.496708 
L 1512.911585 354.448821 
L 1514.149842 357.379348 
L 1515.3881 359.065753 
L 1516.626357 358.552955 
L 1517.864614 355.832711 
L 1519.102871 352.516562 
L 1520.341129 350.818814 
L 1521.579386 351.010931 
L 1522.817643 350.820141 
L 1524.0559 347.727186 
L 1525.294158 340.807792 
L 1527.770672 320.827246 
L 1529.00893 313.223158 
L 1530.247187 309.683471 
L 1531.485444 309.390487 
L 1532.723701 310.203948 
L 1533.961959 310.5413 
L 1535.200216 310.108916 
L 1536.438473 309.434731 
L 1537.67673 309.36624 
L 1538.914988 310.387586 
L 1540.153245 312.187479 
L 1541.391502 314.382808 
L 1542.62976 317.018911 
L 1546.344531 325.684232 
L 1547.582789 329.512552 
L 1548.821046 334.803829 
L 1551.29756 347.781769 
L 1552.535818 352.282746 
L 1553.774075 352.85251 
L 1555.012332 349.635832 
L 1556.250589 344.885697 
L 1557.488847 340.997831 
L 1558.727104 339.157927 
L 1559.965361 339.113128 
L 1561.203619 339.495232 
L 1562.441876 339.101383 
L 1566.156648 335.821191 
L 1567.394905 334.545492 
L 1568.633162 332.9584 
L 1569.871419 330.721186 
L 1571.109677 327.792026 
L 1572.347934 325.483104 
L 1573.586191 325.956449 
L 1574.824448 330.06368 
L 1576.062706 336.063886 
L 1577.300963 340.751369 
L 1578.53922 341.85413 
L 1579.777478 339.376188 
L 1581.015735 334.517411 
L 1583.492249 322.357236 
L 1584.730507 318.575016 
L 1585.968764 318.09224 
L 1587.207021 320.888973 
L 1588.445278 326.404632 
L 1589.683536 332.872743 
L 1590.921793 337.394525 
L 1592.16005 337.986613 
L 1593.398307 334.926669 
L 1594.636565 330.2844 
L 1595.874822 326.633841 
L 1597.113079 325.252967 
L 1598.351337 325.237841 
L 1599.589594 324.74931 
L 1600.827851 322.597287 
L 1602.066108 318.622336 
L 1603.304366 313.661623 
L 1604.542623 309.457557 
L 1605.78088 307.907402 
L 1607.019137 310.17397 
L 1608.257395 316.482705 
L 1610.733909 335.471417 
L 1611.972166 342.047751 
L 1613.210424 343.864134 
L 1614.448681 341.468591 
L 1615.686938 336.610384 
L 1616.925196 331.201111 
L 1618.163453 326.720384 
L 1619.40171 324.236741 
L 1620.639967 324.393394 
L 1621.878225 327.138674 
L 1623.116482 331.92583 
L 1625.592996 343.448406 
L 1626.831254 346.367975 
L 1628.069511 344.465023 
L 1629.307768 337.475745 
L 1630.546026 328.243755 
L 1631.784283 321.114627 
L 1633.02254 318.566196 
L 1634.260797 320.116728 
L 1635.499055 324.020763 
L 1636.737312 328.499884 
L 1637.975569 332.077025 
L 1640.452084 336.963839 
L 1641.690341 340.145416 
L 1641.690341 340.145416 
" style="fill:none;stroke:#008000;stroke-linecap:square;stroke-width:1.5;"/>
   </g>
   <g id="patch_3">
    <path d="M 43.78125 586.86358 
L 43.78125 22.318125 
" style="fill:none;stroke:#000000;stroke-linecap:square;stroke-linejoin:miter;stroke-width:0.8;"/>
   </g>
   <g id="patch_4">
    <path d="M 1717.78125 586.86358 
L 1717.78125 22.318125 
" style="fill:none;stroke:#000000;stroke-linecap:square;stroke-linejoin:miter;stroke-width:0.8;"/>
   </g>
   <g id="patch_5">
    <path d="M 43.78125 586.86358 
L 1717.78125 586.86358 
" style="fill:none;stroke:#000000;stroke-linecap:square;stroke-linejoin:miter;stroke-width:0.8;"/>
   </g>
   <g id="patch_6">
    <path d="M 43.78125 22.318125 
L 1717.78125 22.318125 
" style="fill:none;stroke:#000000;stroke-linecap:square;stroke-linejoin:miter;stroke-width:0.8;"/>
   </g>
   <g id="text_19">
    <!-- before binarisation -->
    <g transform="translate(824.1825 16.318125)scale(0.12 -0.12)">
     <defs>
      <path d="M 3116 1747 
Q 3116 2381 2855 2742 
Q 2594 3103 2138 3103 
Q 1681 3103 1420 2742 
Q 1159 2381 1159 1747 
Q 1159 1113 1420 752 
Q 1681 391 2138 391 
Q 2594 391 2855 752 
Q 3116 1113 3116 1747 
z
M 1159 2969 
Q 1341 3281 1617 3432 
Q 1894 3584 2278 3584 
Q 2916 3584 3314 3078 
Q 3713 2572 3713 1747 
Q 3713 922 3314 415 
Q 2916 -91 2278 -91 
Q 1894 -91 1617 61 
Q 1341 213 1159 525 
L 1159 0 
L 581 0 
L 581 4863 
L 1159 4863 
L 1159 2969 
z
" id="DejaVuSans-62" transform="scale(0.015625)"/>
      <path d="M 1959 3097 
Q 1497 3097 1228 2736 
Q 959 2375 959 1747 
Q 959 1119 1226 758 
Q 1494 397 1959 397 
Q 2419 397 2687 759 
Q 2956 1122 2956 1747 
Q 2956 2369 2687 2733 
Q 2419 3097 1959 3097 
z
M 1959 3584 
Q 2709 3584 3137 3096 
Q 3566 2609 3566 1747 
Q 3566 888 3137 398 
Q 2709 -91 1959 -91 
Q 1206 -91 779 398 
Q 353 888 353 1747 
Q 353 2609 779 3096 
Q 1206 3584 1959 3584 
z
" id="DejaVuSans-6f" transform="scale(0.015625)"/>
      <path id="DejaVuSans-20" transform="scale(0.015625)"/>
      <path d="M 603 3500 
L 1178 3500 
L 1178 0 
L 603 0 
L 603 3500 
z
M 603 4863 
L 1178 4863 
L 1178 4134 
L 603 4134 
L 603 4863 
z
" id="DejaVuSans-69" transform="scale(0.015625)"/>
      <path d="M 3513 2113 
L 3513 0 
L 2938 0 
L 2938 2094 
Q 2938 2591 2744 2837 
Q 2550 3084 2163 3084 
Q 1697 3084 1428 2787 
Q 1159 2491 1159 1978 
L 1159 0 
L 581 0 
L 581 3500 
L 1159 3500 
L 1159 2956 
Q 1366 3272 1645 3428 
Q 1925 3584 2291 3584 
Q 2894 3584 3203 3211 
Q 3513 2838 3513 2113 
z
" id="DejaVuSans-6e" transform="scale(0.015625)"/>
      <path d="M 2834 3397 
L 2834 2853 
Q 2591 2978 2328 3040 
Q 2066 3103 1784 3103 
Q 1356 3103 1142 2972 
Q 928 2841 928 2578 
Q 928 2378 1081 2264 
Q 1234 2150 1697 2047 
L 1894 2003 
Q 2506 1872 2764 1633 
Q 3022 1394 3022 966 
Q 3022 478 2636 193 
Q 2250 -91 1575 -91 
Q 1294 -91 989 -36 
Q 684 19 347 128 
L 347 722 
Q 666 556 975 473 
Q 1284 391 1588 391 
Q 1994 391 2212 530 
Q 2431 669 2431 922 
Q 2431 1156 2273 1281 
Q 2116 1406 1581 1522 
L 1381 1569 
Q 847 1681 609 1914 
Q 372 2147 372 2553 
Q 372 3047 722 3315 
Q 1072 3584 1716 3584 
Q 2034 3584 2315 3537 
Q 2597 3491 2834 3397 
z
" id="DejaVuSans-73" transform="scale(0.015625)"/>
      <path d="M 1172 4494 
L 1172 3500 
L 2356 3500 
L 2356 3053 
L 1172 3053 
L 1172 1153 
Q 1172 725 1289 603 
Q 1406 481 1766 481 
L 2356 481 
L 2356 0 
L 1766 0 
Q 1100 0 847 248 
Q 594 497 594 1153 
L 594 3053 
L 172 3053 
L 172 3500 
L 594 3500 
L 594 4494 
L 1172 4494 
z
" id="DejaVuSans-74" transform="scale(0.015625)"/>
     </defs>
     <use xlink:href="#DejaVuSans-62"/>
     <use x="63.476562" xlink:href="#DejaVuSans-65"/>
     <use x="125" xlink:href="#DejaVuSans-66"/>
     <use x="160.205078" xlink:href="#DejaVuSans-6f"/>
     <use x="221.386719" xlink:href="#DejaVuSans-72"/>
     <use x="260.25" xlink:href="#DejaVuSans-65"/>
     <use x="321.773438" xlink:href="#DejaVuSans-20"/>
     <use x="353.560547" xlink:href="#DejaVuSans-62"/>
     <use x="417.037109" xlink:href="#DejaVuSans-69"/>
     <use x="444.820312" xlink:href="#DejaVuSans-6e"/>
     <use x="508.199219" xlink:href="#DejaVuSans-61"/>
     <use x="569.478516" xlink:href="#DejaVuSans-72"/>
     <use x="610.591797" xlink:href="#DejaVuSans-69"/>
     <use x="638.375" xlink:href="#DejaVuSans-73"/>
     <use x="690.474609" xlink:href="#DejaVuSans-61"/>
     <use x="751.753906" xlink:href="#DejaVuSans-74"/>
     <use x="790.962891" xlink:href="#DejaVuSans-69"/>
     <use x="818.746094" xlink:href="#DejaVuSans-6f"/>
     <use x="879.927734" xlink:href="#DejaVuSans-6e"/>
    </g>
   </g>
  </g>
  <g id="axes_2">
   <g id="patch_7">
    <path d="M 43.78125 1264.318125 
L 1717.78125 1264.318125 
L 1717.78125 699.77267 
L 43.78125 699.77267 
z
" style="fill:#ffffff;"/>
   </g>
   <g id="matplotlib.axis_3">
    <g id="xtick_8">
     <g id="line2d_18">
      <g>
       <use style="stroke:#000000;stroke-width:0.8;" x="119.872159" xlink:href="#m7339003907" y="1264.318125"/>
      </g>
     </g>
     <g id="text_20">
      <!-- 0 -->
      <g transform="translate(116.690909 1278.916563)scale(0.1 -0.1)">
       <use xlink:href="#DejaVuSans-30"/>
      </g>
     </g>
    </g>
    <g id="xtick_9">
     <g id="line2d_19">
      <g>
       <use style="stroke:#000000;stroke-width:0.8;" x="367.523613" xlink:href="#m7339003907" y="1264.318125"/>
      </g>
     </g>
     <g id="text_21">
      <!-- 200 -->
      <g transform="translate(357.979863 1278.916563)scale(0.1 -0.1)">
       <use xlink:href="#DejaVuSans-32"/>
       <use x="63.623047" xlink:href="#DejaVuSans-30"/>
       <use x="127.246094" xlink:href="#DejaVuSans-30"/>
      </g>
     </g>
    </g>
    <g id="xtick_10">
     <g id="line2d_20">
      <g>
       <use style="stroke:#000000;stroke-width:0.8;" x="615.175066" xlink:href="#m7339003907" y="1264.318125"/>
      </g>
     </g>
     <g id="text_22">
      <!-- 400 -->
      <g transform="translate(605.631316 1278.916563)scale(0.1 -0.1)">
       <use xlink:href="#DejaVuSans-34"/>
       <use x="63.623047" xlink:href="#DejaVuSans-30"/>
       <use x="127.246094" xlink:href="#DejaVuSans-30"/>
      </g>
     </g>
    </g>
    <g id="xtick_11">
     <g id="line2d_21">
      <g>
       <use style="stroke:#000000;stroke-width:0.8;" x="862.82652" xlink:href="#m7339003907" y="1264.318125"/>
      </g>
     </g>
     <g id="text_23">
      <!-- 600 -->
      <g transform="translate(853.28277 1278.916563)scale(0.1 -0.1)">
       <use xlink:href="#DejaVuSans-36"/>
       <use x="63.623047" xlink:href="#DejaVuSans-30"/>
       <use x="127.246094" xlink:href="#DejaVuSans-30"/>
      </g>
     </g>
    </g>
    <g id="xtick_12">
     <g id="line2d_22">
      <g>
       <use style="stroke:#000000;stroke-width:0.8;" x="1110.477973" xlink:href="#m7339003907" y="1264.318125"/>
      </g>
     </g>
     <g id="text_24">
      <!-- 800 -->
      <g transform="translate(1100.934223 1278.916563)scale(0.1 -0.1)">
       <use xlink:href="#DejaVuSans-38"/>
       <use x="63.623047" xlink:href="#DejaVuSans-30"/>
       <use x="127.246094" xlink:href="#DejaVuSans-30"/>
      </g>
     </g>
    </g>
    <g id="xtick_13">
     <g id="line2d_23">
      <g>
       <use style="stroke:#000000;stroke-width:0.8;" x="1358.129427" xlink:href="#m7339003907" y="1264.318125"/>
      </g>
     </g>
     <g id="text_25">
      <!-- 1000 -->
      <g transform="translate(1345.404427 1278.916563)scale(0.1 -0.1)">
       <use xlink:href="#DejaVuSans-31"/>
       <use x="63.623047" xlink:href="#DejaVuSans-30"/>
       <use x="127.246094" xlink:href="#DejaVuSans-30"/>
       <use x="190.869141" xlink:href="#DejaVuSans-30"/>
      </g>
     </g>
    </g>
    <g id="xtick_14">
     <g id="line2d_24">
      <g>
       <use style="stroke:#000000;stroke-width:0.8;" x="1605.78088" xlink:href="#m7339003907" y="1264.318125"/>
      </g>
     </g>
     <g id="text_26">
      <!-- 1200 -->
      <g transform="translate(1593.05588 1278.916563)scale(0.1 -0.1)">
       <use xlink:href="#DejaVuSans-31"/>
       <use x="63.623047" xlink:href="#DejaVuSans-32"/>
       <use x="127.246094" xlink:href="#DejaVuSans-30"/>
       <use x="190.869141" xlink:href="#DejaVuSans-30"/>
      </g>
     </g>
    </g>
    <g id="text_27">
     <!-- frame -->
     <g transform="translate(865.954687 1292.594688)scale(0.1 -0.1)">
      <use xlink:href="#DejaVuSans-66"/>
      <use x="35.205078" xlink:href="#DejaVuSans-72"/>
      <use x="76.318359" xlink:href="#DejaVuSans-61"/>
      <use x="137.597656" xlink:href="#DejaVuSans-6d"/>
      <use x="235.009766" xlink:href="#DejaVuSans-65"/>
     </g>
    </g>
   </g>
   <g id="matplotlib.axis_4">
    <g id="ytick_10">
     <g id="line2d_25">
      <g>
       <use style="stroke:#000000;stroke-width:0.8;" x="43.78125" xlink:href="#ma1814a4c0a" y="1238.656968"/>
      </g>
     </g>
     <g id="text_28">
      <!-- 0.0 -->
      <g transform="translate(20.878125 1242.456187)scale(0.1 -0.1)">
       <use xlink:href="#DejaVuSans-30"/>
       <use x="63.623047" xlink:href="#DejaVuSans-2e"/>
       <use x="95.410156" xlink:href="#DejaVuSans-30"/>
      </g>
     </g>
    </g>
    <g id="ytick_11">
     <g id="line2d_26">
      <g>
       <use style="stroke:#000000;stroke-width:0.8;" x="43.78125" xlink:href="#ma1814a4c0a" y="1136.01234"/>
      </g>
     </g>
     <g id="text_29">
      <!-- 0.2 -->
      <g transform="translate(20.878125 1139.811559)scale(0.1 -0.1)">
       <use xlink:href="#DejaVuSans-30"/>
       <use x="63.623047" xlink:href="#DejaVuSans-2e"/>
       <use x="95.410156" xlink:href="#DejaVuSans-32"/>
      </g>
     </g>
    </g>
    <g id="ytick_12">
     <g id="line2d_27">
      <g>
       <use style="stroke:#000000;stroke-width:0.8;" x="43.78125" xlink:href="#ma1814a4c0a" y="1033.367712"/>
      </g>
     </g>
     <g id="text_30">
      <!-- 0.4 -->
      <g transform="translate(20.878125 1037.166931)scale(0.1 -0.1)">
       <use xlink:href="#DejaVuSans-30"/>
       <use x="63.623047" xlink:href="#DejaVuSans-2e"/>
       <use x="95.410156" xlink:href="#DejaVuSans-34"/>
      </g>
     </g>
    </g>
    <g id="ytick_13">
     <g id="line2d_28">
      <g>
       <use style="stroke:#000000;stroke-width:0.8;" x="43.78125" xlink:href="#ma1814a4c0a" y="930.723084"/>
      </g>
     </g>
     <g id="text_31">
      <!-- 0.6 -->
      <g transform="translate(20.878125 934.522302)scale(0.1 -0.1)">
       <use xlink:href="#DejaVuSans-30"/>
       <use x="63.623047" xlink:href="#DejaVuSans-2e"/>
       <use x="95.410156" xlink:href="#DejaVuSans-36"/>
      </g>
     </g>
    </g>
    <g id="ytick_14">
     <g id="line2d_29">
      <g>
       <use style="stroke:#000000;stroke-width:0.8;" x="43.78125" xlink:href="#ma1814a4c0a" y="828.078456"/>
      </g>
     </g>
     <g id="text_32">
      <!-- 0.8 -->
      <g transform="translate(20.878125 831.877674)scale(0.1 -0.1)">
       <use xlink:href="#DejaVuSans-30"/>
       <use x="63.623047" xlink:href="#DejaVuSans-2e"/>
       <use x="95.410156" xlink:href="#DejaVuSans-38"/>
      </g>
     </g>
    </g>
    <g id="ytick_15">
     <g id="line2d_30">
      <g>
       <use style="stroke:#000000;stroke-width:0.8;" x="43.78125" xlink:href="#ma1814a4c0a" y="725.433827"/>
      </g>
     </g>
     <g id="text_33">
      <!-- 1.0 -->
      <g transform="translate(20.878125 729.233046)scale(0.1 -0.1)">
       <use xlink:href="#DejaVuSans-31"/>
       <use x="63.623047" xlink:href="#DejaVuSans-2e"/>
       <use x="95.410156" xlink:href="#DejaVuSans-30"/>
      </g>
     </g>
    </g>
    <g id="text_34">
     <!-- GCaMP -->
     <g transform="translate(14.798437 999.803991)rotate(-90)scale(0.1 -0.1)">
      <use xlink:href="#DejaVuSans-47"/>
      <use x="77.490234" xlink:href="#DejaVuSans-43"/>
      <use x="147.314453" xlink:href="#DejaVuSans-61"/>
      <use x="208.59375" xlink:href="#DejaVuSans-4d"/>
      <use x="294.873047" xlink:href="#DejaVuSans-50"/>
     </g>
    </g>
   </g>
   <g id="line2d_31">
    <path clip-path="url(#p8bde27b878)" d="M 119.872159 1238.656968 
L 659.752328 1238.656968 
L 660.990585 725.433827 
L 867.779549 725.433827 
L 869.017806 1238.656968 
L 901.212495 1238.656968 
L 902.450752 725.433827 
L 995.320047 725.433827 
L 996.558305 1238.656968 
L 1036.182537 1238.656968 
L 1037.420794 725.433827 
L 1069.615483 725.433827 
L 1070.853741 1238.656968 
L 1641.690341 1238.656968 
L 1641.690341 1238.656968 
" style="fill:none;stroke:#008000;stroke-linecap:square;stroke-width:1.5;"/>
   </g>
   <g id="patch_8">
    <path d="M 43.78125 1264.318125 
L 43.78125 699.77267 
" style="fill:none;stroke:#000000;stroke-linecap:square;stroke-linejoin:miter;stroke-width:0.8;"/>
   </g>
   <g id="patch_9">
    <path d="M 1717.78125 1264.318125 
L 1717.78125 699.77267 
" style="fill:none;stroke:#000000;stroke-linecap:square;stroke-linejoin:miter;stroke-width:0.8;"/>
   </g>
   <g id="patch_10">
    <path d="M 43.78125 1264.318125 
L 1717.78125 1264.318125 
" style="fill:none;stroke:#000000;stroke-linecap:square;stroke-linejoin:miter;stroke-width:0.8;"/>
   </g>
   <g id="patch_11">
    <path d="M 43.78125 699.77267 
L 1717.78125 699.77267 
" style="fill:none;stroke:#000000;stroke-linecap:square;stroke-linejoin:miter;stroke-width:0.8;"/>
   </g>
   <g id="text_35">
    <!-- before binarisation -->
    <g transform="translate(824.1825 693.77267)scale(0.12 -0.12)">
     <use xlink:href="#DejaVuSans-62"/>
     <use x="63.476562" xlink:href="#DejaVuSans-65"/>
     <use x="125" xlink:href="#DejaVuSans-66"/>
     <use x="160.205078" xlink:href="#DejaVuSans-6f"/>
     <use x="221.386719" xlink:href="#DejaVuSans-72"/>
     <use x="260.25" xlink:href="#DejaVuSans-65"/>
     <use x="321.773438" xlink:href="#DejaVuSans-20"/>
     <use x="353.560547" xlink:href="#DejaVuSans-62"/>
     <use x="417.037109" xlink:href="#DejaVuSans-69"/>
     <use x="444.820312" xlink:href="#DejaVuSans-6e"/>
     <use x="508.199219" xlink:href="#DejaVuSans-61"/>
     <use x="569.478516" xlink:href="#DejaVuSans-72"/>
     <use x="610.591797" xlink:href="#DejaVuSans-69"/>
     <use x="638.375" xlink:href="#DejaVuSans-73"/>
     <use x="690.474609" xlink:href="#DejaVuSans-61"/>
     <use x="751.753906" xlink:href="#DejaVuSans-74"/>
     <use x="790.962891" xlink:href="#DejaVuSans-69"/>
     <use x="818.746094" xlink:href="#DejaVuSans-6f"/>
     <use x="879.927734" xlink:href="#DejaVuSans-6e"/>
    </g>
   </g>
  </g>
 </g>
 <defs>
  <clipPath id="p5fb3ecce47">
   <rect height="564.545455" width="1674" x="43.78125" y="22.318125"/>
  </clipPath>
  <clipPath id="p8bde27b878">
   <rect height="564.545455" width="1674" x="43.78125" y="699.77267"/>
  </clipPath>
 </defs>
</svg>
