<?xml version="1.0" encoding="utf-8" standalone="no"?>
<!DOCTYPE svg PUBLIC "-//W3C//DTD SVG 1.1//EN"
  "http://www.w3.org/Graphics/SVG/1.1/DTD/svg11.dtd">
<svg height="1301.874375pt" version="1.1" viewBox="0 0 1724.98125 1301.874375" width="1724.98125pt" xmlns="http://www.w3.org/2000/svg" xmlns:xlink="http://www.w3.org/1999/xlink">
 <metadata>
  <rdf:RDF xmlns:cc="http://creativecommons.org/ns#" xmlns:dc="http://purl.org/dc/elements/1.1/" xmlns:rdf="http://www.w3.org/1999/02/22-rdf-syntax-ns#">
   <cc:Work>
    <dc:type rdf:resource="http://purl.org/dc/dcmitype/StillImage"/>
    <dc:date>2022-07-24T15:54:49.096218</dc:date>
    <dc:format>image/svg+xml</dc:format>
    <dc:creator>
     <cc:Agent>
      <dc:title>Matplotlib v3.4.2, https://matplotlib.org/</dc:title>
     </cc:Agent>
    </dc:creator>
   </cc:Work>
  </rdf:RDF>
 </metadata>
 <defs>
  <style type="text/css">*{stroke-linecap:butt;stroke-linejoin:round;}</style>
 </defs>
 <g id="figure_1">
  <g id="patch_1">
   <path d="M 0 1301.874375 
L 1724.98125 1301.874375 
L 1724.98125 0 
L 0 0 
z
" style="fill:#ffffff;"/>
  </g>
  <g id="axes_1">
   <g id="patch_2">
    <path d="M 43.78125 586.86358 
L 1717.78125 586.86358 
L 1717.78125 22.318125 
L 43.78125 22.318125 
z
" style="fill:#ffffff;"/>
   </g>
   <g id="matplotlib.axis_1">
    <g id="xtick_1">
     <g id="line2d_1">
      <defs>
       <path d="M 0 0 
L 0 3.5 
" id="m007b8ba023" style="stroke:#000000;stroke-width:0.8;"/>
      </defs>
      <g>
       <use style="stroke:#000000;stroke-width:0.8;" x="119.872159" xlink:href="#m007b8ba023" y="586.86358"/>
      </g>
     </g>
     <g id="text_1">
      <!-- 0 -->
      <g transform="translate(116.690909 601.462017)scale(0.1 -0.1)">
       <defs>
        <path d="M 2034 4250 
Q 1547 4250 1301 3770 
Q 1056 3291 1056 2328 
Q 1056 1369 1301 889 
Q 1547 409 2034 409 
Q 2525 409 2770 889 
Q 3016 1369 3016 2328 
Q 3016 3291 2770 3770 
Q 2525 4250 2034 4250 
z
M 2034 4750 
Q 2819 4750 3233 4129 
Q 3647 3509 3647 2328 
Q 3647 1150 3233 529 
Q 2819 -91 2034 -91 
Q 1250 -91 836 529 
Q 422 1150 422 2328 
Q 422 3509 836 4129 
Q 1250 4750 2034 4750 
z
" id="DejaVuSans-30" transform="scale(0.015625)"/>
       </defs>
       <use xlink:href="#DejaVuSans-30"/>
      </g>
     </g>
    </g>
    <g id="xtick_2">
     <g id="line2d_2">
      <g>
       <use style="stroke:#000000;stroke-width:0.8;" x="367.523613" xlink:href="#m007b8ba023" y="586.86358"/>
      </g>
     </g>
     <g id="text_2">
      <!-- 200 -->
      <g transform="translate(357.979863 601.462017)scale(0.1 -0.1)">
       <defs>
        <path d="M 1228 531 
L 3431 531 
L 3431 0 
L 469 0 
L 469 531 
Q 828 903 1448 1529 
Q 2069 2156 2228 2338 
Q 2531 2678 2651 2914 
Q 2772 3150 2772 3378 
Q 2772 3750 2511 3984 
Q 2250 4219 1831 4219 
Q 1534 4219 1204 4116 
Q 875 4013 500 3803 
L 500 4441 
Q 881 4594 1212 4672 
Q 1544 4750 1819 4750 
Q 2544 4750 2975 4387 
Q 3406 4025 3406 3419 
Q 3406 3131 3298 2873 
Q 3191 2616 2906 2266 
Q 2828 2175 2409 1742 
Q 1991 1309 1228 531 
z
" id="DejaVuSans-32" transform="scale(0.015625)"/>
       </defs>
       <use xlink:href="#DejaVuSans-32"/>
       <use x="63.623047" xlink:href="#DejaVuSans-30"/>
       <use x="127.246094" xlink:href="#DejaVuSans-30"/>
      </g>
     </g>
    </g>
    <g id="xtick_3">
     <g id="line2d_3">
      <g>
       <use style="stroke:#000000;stroke-width:0.8;" x="615.175066" xlink:href="#m007b8ba023" y="586.86358"/>
      </g>
     </g>
     <g id="text_3">
      <!-- 400 -->
      <g transform="translate(605.631316 601.462017)scale(0.1 -0.1)">
       <defs>
        <path d="M 2419 4116 
L 825 1625 
L 2419 1625 
L 2419 4116 
z
M 2253 4666 
L 3047 4666 
L 3047 1625 
L 3713 1625 
L 3713 1100 
L 3047 1100 
L 3047 0 
L 2419 0 
L 2419 1100 
L 313 1100 
L 313 1709 
L 2253 4666 
z
" id="DejaVuSans-34" transform="scale(0.015625)"/>
       </defs>
       <use xlink:href="#DejaVuSans-34"/>
       <use x="63.623047" xlink:href="#DejaVuSans-30"/>
       <use x="127.246094" xlink:href="#DejaVuSans-30"/>
      </g>
     </g>
    </g>
    <g id="xtick_4">
     <g id="line2d_4">
      <g>
       <use style="stroke:#000000;stroke-width:0.8;" x="862.82652" xlink:href="#m007b8ba023" y="586.86358"/>
      </g>
     </g>
     <g id="text_4">
      <!-- 600 -->
      <g transform="translate(853.28277 601.462017)scale(0.1 -0.1)">
       <defs>
        <path d="M 2113 2584 
Q 1688 2584 1439 2293 
Q 1191 2003 1191 1497 
Q 1191 994 1439 701 
Q 1688 409 2113 409 
Q 2538 409 2786 701 
Q 3034 994 3034 1497 
Q 3034 2003 2786 2293 
Q 2538 2584 2113 2584 
z
M 3366 4563 
L 3366 3988 
Q 3128 4100 2886 4159 
Q 2644 4219 2406 4219 
Q 1781 4219 1451 3797 
Q 1122 3375 1075 2522 
Q 1259 2794 1537 2939 
Q 1816 3084 2150 3084 
Q 2853 3084 3261 2657 
Q 3669 2231 3669 1497 
Q 3669 778 3244 343 
Q 2819 -91 2113 -91 
Q 1303 -91 875 529 
Q 447 1150 447 2328 
Q 447 3434 972 4092 
Q 1497 4750 2381 4750 
Q 2619 4750 2861 4703 
Q 3103 4656 3366 4563 
z
" id="DejaVuSans-36" transform="scale(0.015625)"/>
       </defs>
       <use xlink:href="#DejaVuSans-36"/>
       <use x="63.623047" xlink:href="#DejaVuSans-30"/>
       <use x="127.246094" xlink:href="#DejaVuSans-30"/>
      </g>
     </g>
    </g>
    <g id="xtick_5">
     <g id="line2d_5">
      <g>
       <use style="stroke:#000000;stroke-width:0.8;" x="1110.477973" xlink:href="#m007b8ba023" y="586.86358"/>
      </g>
     </g>
     <g id="text_5">
      <!-- 800 -->
      <g transform="translate(1100.934223 601.462017)scale(0.1 -0.1)">
       <defs>
        <path d="M 2034 2216 
Q 1584 2216 1326 1975 
Q 1069 1734 1069 1313 
Q 1069 891 1326 650 
Q 1584 409 2034 409 
Q 2484 409 2743 651 
Q 3003 894 3003 1313 
Q 3003 1734 2745 1975 
Q 2488 2216 2034 2216 
z
M 1403 2484 
Q 997 2584 770 2862 
Q 544 3141 544 3541 
Q 544 4100 942 4425 
Q 1341 4750 2034 4750 
Q 2731 4750 3128 4425 
Q 3525 4100 3525 3541 
Q 3525 3141 3298 2862 
Q 3072 2584 2669 2484 
Q 3125 2378 3379 2068 
Q 3634 1759 3634 1313 
Q 3634 634 3220 271 
Q 2806 -91 2034 -91 
Q 1263 -91 848 271 
Q 434 634 434 1313 
Q 434 1759 690 2068 
Q 947 2378 1403 2484 
z
M 1172 3481 
Q 1172 3119 1398 2916 
Q 1625 2713 2034 2713 
Q 2441 2713 2670 2916 
Q 2900 3119 2900 3481 
Q 2900 3844 2670 4047 
Q 2441 4250 2034 4250 
Q 1625 4250 1398 4047 
Q 1172 3844 1172 3481 
z
" id="DejaVuSans-38" transform="scale(0.015625)"/>
       </defs>
       <use xlink:href="#DejaVuSans-38"/>
       <use x="63.623047" xlink:href="#DejaVuSans-30"/>
       <use x="127.246094" xlink:href="#DejaVuSans-30"/>
      </g>
     </g>
    </g>
    <g id="xtick_6">
     <g id="line2d_6">
      <g>
       <use style="stroke:#000000;stroke-width:0.8;" x="1358.129427" xlink:href="#m007b8ba023" y="586.86358"/>
      </g>
     </g>
     <g id="text_6">
      <!-- 1000 -->
      <g transform="translate(1345.404427 601.462017)scale(0.1 -0.1)">
       <defs>
        <path d="M 794 531 
L 1825 531 
L 1825 4091 
L 703 3866 
L 703 4441 
L 1819 4666 
L 2450 4666 
L 2450 531 
L 3481 531 
L 3481 0 
L 794 0 
L 794 531 
z
" id="DejaVuSans-31" transform="scale(0.015625)"/>
       </defs>
       <use xlink:href="#DejaVuSans-31"/>
       <use x="63.623047" xlink:href="#DejaVuSans-30"/>
       <use x="127.246094" xlink:href="#DejaVuSans-30"/>
       <use x="190.869141" xlink:href="#DejaVuSans-30"/>
      </g>
     </g>
    </g>
    <g id="xtick_7">
     <g id="line2d_7">
      <g>
       <use style="stroke:#000000;stroke-width:0.8;" x="1605.78088" xlink:href="#m007b8ba023" y="586.86358"/>
      </g>
     </g>
     <g id="text_7">
      <!-- 1200 -->
      <g transform="translate(1593.05588 601.462017)scale(0.1 -0.1)">
       <use xlink:href="#DejaVuSans-31"/>
       <use x="63.623047" xlink:href="#DejaVuSans-32"/>
       <use x="127.246094" xlink:href="#DejaVuSans-30"/>
       <use x="190.869141" xlink:href="#DejaVuSans-30"/>
      </g>
     </g>
    </g>
    <g id="text_8">
     <!-- frame -->
     <g transform="translate(865.954687 615.140142)scale(0.1 -0.1)">
      <defs>
       <path d="M 2375 4863 
L 2375 4384 
L 1825 4384 
Q 1516 4384 1395 4259 
Q 1275 4134 1275 3809 
L 1275 3500 
L 2222 3500 
L 2222 3053 
L 1275 3053 
L 1275 0 
L 697 0 
L 697 3053 
L 147 3053 
L 147 3500 
L 697 3500 
L 697 3744 
Q 697 4328 969 4595 
Q 1241 4863 1831 4863 
L 2375 4863 
z
" id="DejaVuSans-66" transform="scale(0.015625)"/>
       <path d="M 2631 2963 
Q 2534 3019 2420 3045 
Q 2306 3072 2169 3072 
Q 1681 3072 1420 2755 
Q 1159 2438 1159 1844 
L 1159 0 
L 581 0 
L 581 3500 
L 1159 3500 
L 1159 2956 
Q 1341 3275 1631 3429 
Q 1922 3584 2338 3584 
Q 2397 3584 2469 3576 
Q 2541 3569 2628 3553 
L 2631 2963 
z
" id="DejaVuSans-72" transform="scale(0.015625)"/>
       <path d="M 2194 1759 
Q 1497 1759 1228 1600 
Q 959 1441 959 1056 
Q 959 750 1161 570 
Q 1363 391 1709 391 
Q 2188 391 2477 730 
Q 2766 1069 2766 1631 
L 2766 1759 
L 2194 1759 
z
M 3341 1997 
L 3341 0 
L 2766 0 
L 2766 531 
Q 2569 213 2275 61 
Q 1981 -91 1556 -91 
Q 1019 -91 701 211 
Q 384 513 384 1019 
Q 384 1609 779 1909 
Q 1175 2209 1959 2209 
L 2766 2209 
L 2766 2266 
Q 2766 2663 2505 2880 
Q 2244 3097 1772 3097 
Q 1472 3097 1187 3025 
Q 903 2953 641 2809 
L 641 3341 
Q 956 3463 1253 3523 
Q 1550 3584 1831 3584 
Q 2591 3584 2966 3190 
Q 3341 2797 3341 1997 
z
" id="DejaVuSans-61" transform="scale(0.015625)"/>
       <path d="M 3328 2828 
Q 3544 3216 3844 3400 
Q 4144 3584 4550 3584 
Q 5097 3584 5394 3201 
Q 5691 2819 5691 2113 
L 5691 0 
L 5113 0 
L 5113 2094 
Q 5113 2597 4934 2840 
Q 4756 3084 4391 3084 
Q 3944 3084 3684 2787 
Q 3425 2491 3425 1978 
L 3425 0 
L 2847 0 
L 2847 2094 
Q 2847 2600 2669 2842 
Q 2491 3084 2119 3084 
Q 1678 3084 1418 2786 
Q 1159 2488 1159 1978 
L 1159 0 
L 581 0 
L 581 3500 
L 1159 3500 
L 1159 2956 
Q 1356 3278 1631 3431 
Q 1906 3584 2284 3584 
Q 2666 3584 2933 3390 
Q 3200 3197 3328 2828 
z
" id="DejaVuSans-6d" transform="scale(0.015625)"/>
       <path d="M 3597 1894 
L 3597 1613 
L 953 1613 
Q 991 1019 1311 708 
Q 1631 397 2203 397 
Q 2534 397 2845 478 
Q 3156 559 3463 722 
L 3463 178 
Q 3153 47 2828 -22 
Q 2503 -91 2169 -91 
Q 1331 -91 842 396 
Q 353 884 353 1716 
Q 353 2575 817 3079 
Q 1281 3584 2069 3584 
Q 2775 3584 3186 3129 
Q 3597 2675 3597 1894 
z
M 3022 2063 
Q 3016 2534 2758 2815 
Q 2500 3097 2075 3097 
Q 1594 3097 1305 2825 
Q 1016 2553 972 2059 
L 3022 2063 
z
" id="DejaVuSans-65" transform="scale(0.015625)"/>
      </defs>
      <use xlink:href="#DejaVuSans-66"/>
      <use x="35.205078" xlink:href="#DejaVuSans-72"/>
      <use x="76.318359" xlink:href="#DejaVuSans-61"/>
      <use x="137.597656" xlink:href="#DejaVuSans-6d"/>
      <use x="235.009766" xlink:href="#DejaVuSans-65"/>
     </g>
    </g>
   </g>
   <g id="matplotlib.axis_2">
    <g id="ytick_1">
     <g id="line2d_8">
      <defs>
       <path d="M 0 0 
L -3.5 0 
" id="mea560266c3" style="stroke:#000000;stroke-width:0.8;"/>
      </defs>
      <g>
       <use style="stroke:#000000;stroke-width:0.8;" x="43.78125" xlink:href="#mea560266c3" y="541.402984"/>
      </g>
     </g>
     <g id="text_9">
      <!-- 0.6 -->
      <g transform="translate(20.878125 545.202202)scale(0.1 -0.1)">
       <defs>
        <path d="M 684 794 
L 1344 794 
L 1344 0 
L 684 0 
L 684 794 
z
" id="DejaVuSans-2e" transform="scale(0.015625)"/>
       </defs>
       <use xlink:href="#DejaVuSans-30"/>
       <use x="63.623047" xlink:href="#DejaVuSans-2e"/>
       <use x="95.410156" xlink:href="#DejaVuSans-36"/>
      </g>
     </g>
    </g>
    <g id="ytick_2">
     <g id="line2d_9">
      <g>
       <use style="stroke:#000000;stroke-width:0.8;" x="43.78125" xlink:href="#mea560266c3" y="477.725042"/>
      </g>
     </g>
     <g id="text_10">
      <!-- 0.8 -->
      <g transform="translate(20.878125 481.524261)scale(0.1 -0.1)">
       <use xlink:href="#DejaVuSans-30"/>
       <use x="63.623047" xlink:href="#DejaVuSans-2e"/>
       <use x="95.410156" xlink:href="#DejaVuSans-38"/>
      </g>
     </g>
    </g>
    <g id="ytick_3">
     <g id="line2d_10">
      <g>
       <use style="stroke:#000000;stroke-width:0.8;" x="43.78125" xlink:href="#mea560266c3" y="414.047101"/>
      </g>
     </g>
     <g id="text_11">
      <!-- 1.0 -->
      <g transform="translate(20.878125 417.84632)scale(0.1 -0.1)">
       <use xlink:href="#DejaVuSans-31"/>
       <use x="63.623047" xlink:href="#DejaVuSans-2e"/>
       <use x="95.410156" xlink:href="#DejaVuSans-30"/>
      </g>
     </g>
    </g>
    <g id="ytick_4">
     <g id="line2d_11">
      <g>
       <use style="stroke:#000000;stroke-width:0.8;" x="43.78125" xlink:href="#mea560266c3" y="350.36916"/>
      </g>
     </g>
     <g id="text_12">
      <!-- 1.2 -->
      <g transform="translate(20.878125 354.168378)scale(0.1 -0.1)">
       <use xlink:href="#DejaVuSans-31"/>
       <use x="63.623047" xlink:href="#DejaVuSans-2e"/>
       <use x="95.410156" xlink:href="#DejaVuSans-32"/>
      </g>
     </g>
    </g>
    <g id="ytick_5">
     <g id="line2d_12">
      <g>
       <use style="stroke:#000000;stroke-width:0.8;" x="43.78125" xlink:href="#mea560266c3" y="286.691218"/>
      </g>
     </g>
     <g id="text_13">
      <!-- 1.4 -->
      <g transform="translate(20.878125 290.490437)scale(0.1 -0.1)">
       <use xlink:href="#DejaVuSans-31"/>
       <use x="63.623047" xlink:href="#DejaVuSans-2e"/>
       <use x="95.410156" xlink:href="#DejaVuSans-34"/>
      </g>
     </g>
    </g>
    <g id="ytick_6">
     <g id="line2d_13">
      <g>
       <use style="stroke:#000000;stroke-width:0.8;" x="43.78125" xlink:href="#mea560266c3" y="223.013277"/>
      </g>
     </g>
     <g id="text_14">
      <!-- 1.6 -->
      <g transform="translate(20.878125 226.812496)scale(0.1 -0.1)">
       <use xlink:href="#DejaVuSans-31"/>
       <use x="63.623047" xlink:href="#DejaVuSans-2e"/>
       <use x="95.410156" xlink:href="#DejaVuSans-36"/>
      </g>
     </g>
    </g>
    <g id="ytick_7">
     <g id="line2d_14">
      <g>
       <use style="stroke:#000000;stroke-width:0.8;" x="43.78125" xlink:href="#mea560266c3" y="159.335335"/>
      </g>
     </g>
     <g id="text_15">
      <!-- 1.8 -->
      <g transform="translate(20.878125 163.134554)scale(0.1 -0.1)">
       <use xlink:href="#DejaVuSans-31"/>
       <use x="63.623047" xlink:href="#DejaVuSans-2e"/>
       <use x="95.410156" xlink:href="#DejaVuSans-38"/>
      </g>
     </g>
    </g>
    <g id="ytick_8">
     <g id="line2d_15">
      <g>
       <use style="stroke:#000000;stroke-width:0.8;" x="43.78125" xlink:href="#mea560266c3" y="95.657394"/>
      </g>
     </g>
     <g id="text_16">
      <!-- 2.0 -->
      <g transform="translate(20.878125 99.456613)scale(0.1 -0.1)">
       <use xlink:href="#DejaVuSans-32"/>
       <use x="63.623047" xlink:href="#DejaVuSans-2e"/>
       <use x="95.410156" xlink:href="#DejaVuSans-30"/>
      </g>
     </g>
    </g>
    <g id="ytick_9">
     <g id="line2d_16">
      <g>
       <use style="stroke:#000000;stroke-width:0.8;" x="43.78125" xlink:href="#mea560266c3" y="31.979453"/>
      </g>
     </g>
     <g id="text_17">
      <!-- 2.2 -->
      <g transform="translate(20.878125 35.778671)scale(0.1 -0.1)">
       <use xlink:href="#DejaVuSans-32"/>
       <use x="63.623047" xlink:href="#DejaVuSans-2e"/>
       <use x="95.410156" xlink:href="#DejaVuSans-32"/>
      </g>
     </g>
    </g>
    <g id="text_18">
     <!-- GCaMP -->
     <g transform="translate(14.798437 322.349446)rotate(-90)scale(0.1 -0.1)">
      <defs>
       <path d="M 3809 666 
L 3809 1919 
L 2778 1919 
L 2778 2438 
L 4434 2438 
L 4434 434 
Q 4069 175 3628 42 
Q 3188 -91 2688 -91 
Q 1594 -91 976 548 
Q 359 1188 359 2328 
Q 359 3472 976 4111 
Q 1594 4750 2688 4750 
Q 3144 4750 3555 4637 
Q 3966 4525 4313 4306 
L 4313 3634 
Q 3963 3931 3569 4081 
Q 3175 4231 2741 4231 
Q 1884 4231 1454 3753 
Q 1025 3275 1025 2328 
Q 1025 1384 1454 906 
Q 1884 428 2741 428 
Q 3075 428 3337 486 
Q 3600 544 3809 666 
z
" id="DejaVuSans-47" transform="scale(0.015625)"/>
       <path d="M 4122 4306 
L 4122 3641 
Q 3803 3938 3442 4084 
Q 3081 4231 2675 4231 
Q 1875 4231 1450 3742 
Q 1025 3253 1025 2328 
Q 1025 1406 1450 917 
Q 1875 428 2675 428 
Q 3081 428 3442 575 
Q 3803 722 4122 1019 
L 4122 359 
Q 3791 134 3420 21 
Q 3050 -91 2638 -91 
Q 1578 -91 968 557 
Q 359 1206 359 2328 
Q 359 3453 968 4101 
Q 1578 4750 2638 4750 
Q 3056 4750 3426 4639 
Q 3797 4528 4122 4306 
z
" id="DejaVuSans-43" transform="scale(0.015625)"/>
       <path d="M 628 4666 
L 1569 4666 
L 2759 1491 
L 3956 4666 
L 4897 4666 
L 4897 0 
L 4281 0 
L 4281 4097 
L 3078 897 
L 2444 897 
L 1241 4097 
L 1241 0 
L 628 0 
L 628 4666 
z
" id="DejaVuSans-4d" transform="scale(0.015625)"/>
       <path d="M 1259 4147 
L 1259 2394 
L 2053 2394 
Q 2494 2394 2734 2622 
Q 2975 2850 2975 3272 
Q 2975 3691 2734 3919 
Q 2494 4147 2053 4147 
L 1259 4147 
z
M 628 4666 
L 2053 4666 
Q 2838 4666 3239 4311 
Q 3641 3956 3641 3272 
Q 3641 2581 3239 2228 
Q 2838 1875 2053 1875 
L 1259 1875 
L 1259 0 
L 628 0 
L 628 4666 
z
" id="DejaVuSans-50" transform="scale(0.015625)"/>
      </defs>
      <use xlink:href="#DejaVuSans-47"/>
      <use x="77.490234" xlink:href="#DejaVuSans-43"/>
      <use x="147.314453" xlink:href="#DejaVuSans-61"/>
      <use x="208.59375" xlink:href="#DejaVuSans-4d"/>
      <use x="294.873047" xlink:href="#DejaVuSans-50"/>
     </g>
    </g>
   </g>
   <g id="line2d_17">
    <path clip-path="url(#p0ff2d97791)" d="M 119.872159 560.652645 
L 121.110416 561.020652 
L 122.348674 561.202423 
L 123.586931 560.692669 
L 124.825188 558.900723 
L 127.301703 552.890666 
L 128.53996 550.987383 
L 129.778217 550.572461 
L 131.016474 551.171397 
L 135.969504 555.119683 
L 138.446018 556.315113 
L 139.684275 556.802177 
L 140.922533 557.003658 
L 143.399047 556.889144 
L 145.875562 557.019261 
L 147.113819 556.822614 
L 148.352076 556.267814 
L 149.590334 555.408451 
L 150.828591 554.753287 
L 152.066848 554.869328 
L 154.543363 556.506653 
L 155.78162 556.986514 
L 157.019877 556.835976 
L 158.258134 555.909295 
L 160.734649 552.787088 
L 164.449421 547.872283 
L 165.687678 547.291831 
L 166.925935 547.867214 
L 168.164193 548.89951 
L 169.40245 549.484817 
L 170.640707 549.425468 
L 171.878964 548.943608 
L 173.117222 548.02859 
L 175.593736 545.255106 
L 176.831993 544.1731 
L 178.070251 543.478805 
L 179.308508 542.964863 
L 180.546765 542.781068 
L 181.785022 543.540001 
L 183.02328 545.547769 
L 184.261537 548.101266 
L 185.499794 549.889564 
L 186.738052 550.196913 
L 187.976309 549.283744 
L 189.214566 547.67648 
L 191.691081 543.809653 
L 192.929338 542.124106 
L 194.167595 541.122181 
L 195.405852 541.064258 
L 196.64411 541.542607 
L 197.882367 541.85566 
L 199.120624 541.835195 
L 200.358881 541.962471 
L 201.597139 542.883556 
L 202.835396 544.784825 
L 204.073653 546.892809 
L 205.311911 547.863593 
L 206.550168 547.01172 
L 207.788425 544.820329 
L 209.026682 542.219945 
L 210.26494 540.019224 
L 211.503197 538.897881 
L 212.741454 539.042009 
L 213.979711 539.799961 
L 215.217969 540.185401 
L 216.456226 539.609434 
L 217.694483 538.100242 
L 218.93274 536.187152 
L 220.170998 534.672351 
L 221.409255 534.206588 
L 222.647512 535.036007 
L 223.88577 537.152488 
L 226.362284 543.373259 
L 227.600541 545.182341 
L 228.838799 544.860242 
L 230.077056 542.547371 
L 232.55357 535.842637 
L 233.791828 534.148211 
L 235.030085 534.337851 
L 236.268342 535.739463 
L 237.5066 537.328757 
L 238.744857 538.279768 
L 239.983114 538.536685 
L 241.221371 538.608834 
L 242.459629 538.540564 
L 243.697886 537.86945 
L 246.1744 534.989691 
L 247.412658 534.205735 
L 248.650915 534.620901 
L 249.889172 535.771267 
L 251.127429 536.667028 
L 252.365687 536.793263 
L 253.603944 536.265771 
L 254.842201 535.168567 
L 256.080459 533.326459 
L 257.318716 530.703263 
L 258.556973 527.806479 
L 259.79523 525.5699 
L 261.033488 524.612592 
L 262.271745 524.691116 
L 264.748259 525.424623 
L 265.986517 526.060252 
L 268.463031 528.367553 
L 269.701288 529.025762 
L 270.939546 528.968292 
L 272.177803 528.349366 
L 273.41606 527.513963 
L 274.654318 527.018933 
L 275.892575 527.372073 
L 278.369089 529.575795 
L 279.607347 530.155161 
L 280.845604 530.343298 
L 282.083861 530.391337 
L 283.322118 530.024764 
L 284.560376 528.885325 
L 285.798633 527.342476 
L 287.03689 526.298036 
L 288.275147 526.336511 
L 289.513405 527.295889 
L 290.751662 528.43603 
L 291.989919 528.970977 
L 293.228177 528.539574 
L 296.942948 525.07825 
L 298.181206 524.484495 
L 299.419463 524.101956 
L 300.65772 524.23554 
L 301.895977 525.477345 
L 303.134235 528.229971 
L 305.610749 536.399769 
L 306.849006 539.502163 
L 308.087264 540.767334 
L 309.325521 540.105865 
L 311.802036 536.33633 
L 313.040293 535.849507 
L 314.27855 536.893725 
L 316.755065 540.554765 
L 317.993322 541.511028 
L 319.231579 540.872437 
L 320.469836 538.383901 
L 322.946351 531.013873 
L 324.184608 528.562593 
L 325.422866 527.739006 
L 326.661123 528.212678 
L 329.137637 530.566029 
L 330.375895 531.152754 
L 331.614152 530.932659 
L 332.852409 530.37329 
L 334.090666 530.394616 
L 335.328924 531.552966 
L 336.567181 533.42349 
L 337.805438 534.79295 
L 339.043695 534.35999 
L 340.281953 531.581372 
L 342.758467 522.76279 
L 343.996725 519.315162 
L 345.234982 517.098181 
L 346.473239 515.94654 
L 347.711496 515.56995 
L 348.949754 515.693774 
L 350.188011 516.247926 
L 351.426268 517.386699 
L 352.664525 519.284458 
L 353.902783 521.879305 
L 355.14104 524.757508 
L 356.379297 527.239122 
L 357.617554 528.639384 
L 358.855812 528.473319 
L 360.094069 526.556751 
L 361.332326 523.252285 
L 362.570584 519.577707 
L 363.808841 516.823228 
L 365.047098 515.987596 
L 366.285355 517.31271 
L 368.76187 523.131591 
L 370.000127 524.901768 
L 371.238384 524.828822 
L 372.476642 523.67211 
L 373.714899 522.707604 
L 374.953156 522.494565 
L 376.191413 522.538004 
L 377.429671 521.924214 
L 378.667928 520.551405 
L 379.906185 519.360862 
L 381.144443 518.956563 
L 382.3827 518.869514 
L 383.620957 518.583285 
L 384.859214 518.420323 
L 386.097472 519.060962 
L 387.335729 520.641093 
L 388.573986 522.58527 
L 389.812243 524.171928 
L 391.050501 524.891664 
L 392.288758 524.474229 
L 393.527015 523.16019 
L 394.765272 521.676274 
L 396.00353 520.582555 
L 397.241787 519.972147 
L 398.480044 519.749897 
L 399.718302 519.785997 
L 400.956559 520.024089 
L 402.194816 520.690336 
L 403.433073 521.988483 
L 404.671331 523.627884 
L 405.909588 525.043912 
L 407.147845 525.755286 
L 408.386102 525.535195 
L 409.62436 524.537795 
L 410.862617 522.982788 
L 413.339132 518.765236 
L 415.815646 514.376939 
L 420.768675 504.774358 
L 422.006932 501.293292 
L 423.24519 497.376628 
L 424.483447 493.989169 
L 425.721704 492.033157 
L 426.959961 491.658886 
L 428.198219 491.935054 
L 429.436476 491.43539 
L 430.674733 489.408629 
L 433.151248 482.89829 
L 434.389505 481.019075 
L 435.627762 481.627134 
L 436.86602 483.964724 
L 438.104277 486.041446 
L 439.342534 486.758783 
L 440.580791 486.61009 
L 441.819049 486.855154 
L 443.057306 488.567689 
L 444.295563 491.874792 
L 445.53382 495.712334 
L 446.772078 498.432493 
L 448.010335 499.004894 
L 449.248592 497.802291 
L 450.48685 496.024088 
L 451.725107 494.703843 
L 452.963364 494.51989 
L 454.201621 495.74469 
L 455.439879 498.05845 
L 456.678136 500.746621 
L 457.916393 502.887616 
L 459.15465 503.559387 
L 460.392908 502.535294 
L 461.631165 500.635431 
L 462.869422 499.010902 
L 464.107679 498.284986 
L 465.345937 498.506764 
L 467.822451 500.218841 
L 469.060709 500.187832 
L 470.298966 499.056467 
L 472.77548 495.922584 
L 474.013738 494.67983 
L 475.251995 493.820536 
L 476.490252 493.811267 
L 477.728509 494.805323 
L 478.966767 496.369848 
L 480.205024 497.699292 
L 481.443281 497.96007 
L 482.681538 496.957978 
L 483.919796 495.41585 
L 485.158053 494.179068 
L 487.634568 492.483667 
L 488.872825 491.266773 
L 491.349339 487.848117 
L 492.587597 487.154938 
L 493.825854 488.647353 
L 496.302368 495.918761 
L 497.540626 498.304922 
L 498.778883 498.9111 
L 500.01714 498.352198 
L 501.255397 497.482131 
L 502.493655 497.134834 
L 503.731912 497.810833 
L 504.970169 499.308686 
L 508.684941 504.490417 
L 509.923198 505.014468 
L 511.161456 503.651793 
L 514.876227 494.838784 
L 517.352742 491.12512 
L 518.590999 489.756276 
L 519.829257 489.429405 
L 521.067514 490.432432 
L 522.305771 492.078883 
L 523.544028 493.318717 
L 524.782286 493.827374 
L 526.020543 494.057961 
L 527.2588 494.587726 
L 528.497057 495.460491 
L 529.735315 495.92946 
L 530.973572 495.242266 
L 532.211829 493.511104 
L 533.450086 491.26222 
L 535.926601 485.907758 
L 537.164858 482.898289 
L 538.403116 479.462394 
L 540.87963 471.29056 
L 542.117887 468.922117 
L 543.356145 469.87061 
L 544.594402 474.119287 
L 545.832659 479.746046 
L 547.070916 484.478315 
L 548.309174 487.342523 
L 549.547431 488.541769 
L 550.785688 488.539426 
L 552.023945 487.503277 
L 553.262203 485.093216 
L 554.50046 480.841292 
L 556.976975 468.858988 
L 558.215232 464.239382 
L 559.453489 461.477361 
L 560.691746 459.134595 
L 561.930004 455.697441 
L 565.644775 441.526905 
L 566.883033 437.714198 
L 568.12129 434.601205 
L 569.359547 432.540806 
L 570.597804 432.229516 
L 571.836062 433.643958 
L 573.074319 436.315272 
L 574.312576 440.524614 
L 576.789091 452.646231 
L 578.027348 456.179806 
L 579.265605 455.231289 
L 580.503863 450.613139 
L 581.74212 445.240525 
L 582.980377 442.201361 
L 584.218634 443.350039 
L 585.456892 448.672345 
L 587.933406 463.944956 
L 589.171663 470.066798 
L 590.409921 474.305092 
L 591.648178 476.604958 
L 592.886435 477.165707 
L 594.124693 476.845429 
L 595.36295 476.92212 
L 596.601207 478.133698 
L 599.077722 482.647317 
L 600.315979 483.987876 
L 601.554236 483.573527 
L 604.030751 480.125118 
L 605.269008 479.058892 
L 606.507265 479.03631 
L 608.98378 480.968074 
L 610.222037 480.266261 
L 611.460294 475.704923 
L 612.698552 466.634663 
L 615.175066 444.145216 
L 616.413323 436.84408 
L 617.651581 433.449187 
L 618.889838 432.327944 
L 620.128095 431.455616 
L 621.366352 429.757781 
L 622.60461 427.564889 
L 623.842867 426.171905 
L 625.081124 426.590181 
L 626.319382 428.647071 
L 627.557639 431.385555 
L 628.795896 433.744457 
L 630.034153 434.713399 
L 631.272411 433.702955 
L 633.748925 428.57281 
L 634.987182 427.704531 
L 636.22544 430.064467 
L 637.463697 435.762018 
L 638.701954 442.477007 
L 639.940211 446.568639 
L 641.178469 445.760187 
L 642.416726 440.319449 
L 646.131498 415.7073 
L 647.369755 411.988857 
L 648.608012 412.636638 
L 649.84627 416.60744 
L 651.084527 421.856824 
L 652.322784 426.253171 
L 653.561041 428.374828 
L 654.799299 427.960336 
L 656.037556 425.340163 
L 657.275813 420.803472 
L 659.752328 409.568364 
L 660.990585 405.526994 
L 662.228842 402.712282 
L 663.4671 400.485307 
L 664.705357 399.023528 
L 665.943614 398.913573 
L 667.181871 400.325759 
L 668.420129 402.804506 
L 669.658386 405.566502 
L 670.896643 407.928069 
L 672.1349 409.596727 
L 673.373158 410.747858 
L 675.849672 412.656538 
L 677.087929 413.725846 
L 678.326187 414.156815 
L 679.564444 412.525786 
L 680.802701 408.460053 
L 684.517473 392.607146 
L 685.75573 390.17385 
L 686.993988 391.348841 
L 688.232245 395.885452 
L 690.708759 408.74136 
L 691.947017 413.858393 
L 693.185274 417.293536 
L 694.423531 419.203302 
L 695.661789 420.207164 
L 696.900046 421.488308 
L 698.138303 423.91551 
L 699.37656 427.465873 
L 700.614818 431.995942 
L 701.853075 437.615508 
L 703.091332 443.75589 
L 704.329589 448.851775 
L 705.567847 451.356664 
L 706.806104 450.681217 
L 708.044361 447.4531 
L 710.520876 438.902358 
L 711.759133 435.690691 
L 712.99739 433.980831 
L 714.235648 433.762717 
L 715.473905 434.414822 
L 716.712162 435.457775 
L 717.950419 437.064126 
L 719.188677 439.330245 
L 720.426934 441.245809 
L 721.665191 441.085692 
L 722.903448 437.979917 
L 725.379963 427.862289 
L 726.61822 424.923995 
L 727.856477 424.843294 
L 730.332992 429.23117 
L 731.571249 429.542847 
L 732.809507 427.120813 
L 734.047764 422.645906 
L 735.286021 417.502926 
L 736.524278 413.254707 
L 737.762536 411.19921 
L 739.000793 412.05563 
L 740.23905 415.682634 
L 742.715565 425.92473 
L 743.953822 429.871249 
L 745.192079 432.0722 
L 746.430336 432.0705 
L 747.668594 429.961059 
L 750.145108 423.269256 
L 751.383366 421.406361 
L 752.621623 421.509451 
L 753.85988 422.644489 
L 755.098137 423.328391 
L 756.336395 423.167239 
L 757.574652 422.878123 
L 758.812909 422.777044 
L 760.051166 422.307036 
L 761.289424 421.093611 
L 762.527681 419.289456 
L 763.765938 416.586578 
L 765.004195 412.202924 
L 766.242453 406.457661 
L 767.48071 401.353495 
L 768.718967 399.151637 
L 769.957225 400.606433 
L 772.433739 407.674534 
L 773.671996 409.029012 
L 774.910254 408.385969 
L 776.148511 406.641694 
L 777.386768 405.134843 
L 778.625025 405.386932 
L 779.863283 408.253167 
L 781.10154 413.591514 
L 783.578054 427.67735 
L 784.816312 433.530439 
L 786.054569 436.68048 
L 787.292826 436.720427 
L 788.531084 434.622756 
L 791.007598 428.701862 
L 792.245855 426.523243 
L 793.484113 426.07059 
L 794.72237 427.415114 
L 795.960627 429.46053 
L 797.198884 430.726334 
L 798.437142 430.159057 
L 799.675399 427.501336 
L 800.913656 423.261688 
L 803.390171 413.342237 
L 804.628428 408.848255 
L 808.3432 396.863966 
L 809.581457 393.106154 
L 810.819714 391.650952 
L 812.057972 394.157666 
L 813.296229 399.864479 
L 817.011001 419.813672 
L 818.249258 424.088204 
L 819.487515 424.995217 
L 821.96403 421.580254 
L 823.202287 422.032347 
L 824.440544 425.094828 
L 825.678802 429.204383 
L 826.917059 431.669556 
L 828.155316 430.246741 
L 829.393573 424.381716 
L 830.631831 415.119343 
L 831.870088 404.669775 
L 833.108345 395.701014 
L 834.346602 389.585571 
L 835.58486 385.896774 
L 836.823117 384.067478 
L 838.061374 384.516742 
L 839.299632 388.234876 
L 840.537889 395.656266 
L 843.014403 414.925691 
L 844.252661 420.433194 
L 845.490918 420.711894 
L 846.729175 417.124577 
L 847.967432 412.368178 
L 849.20569 408.743579 
L 850.443947 407.142376 
L 851.682204 407.028583 
L 855.396976 408.389549 
L 856.635233 408.571913 
L 857.873491 408.258636 
L 860.350005 406.720911 
L 861.588262 407.00243 
L 864.064777 409.917675 
L 865.303034 410.701805 
L 867.779549 411.007138 
L 869.017806 411.120698 
L 870.256063 410.609407 
L 871.49432 408.964827 
L 872.732578 406.941371 
L 873.970835 406.443247 
L 875.209092 409.413773 
L 876.44735 416.691461 
L 880.162121 447.811982 
L 881.400379 454.830916 
L 882.638636 459.47248 
L 883.876893 462.547529 
L 885.11515 464.529322 
L 886.353408 465.070526 
L 887.591665 463.265421 
L 888.829922 458.104383 
L 890.06818 449.17153 
L 892.544694 425.370764 
L 893.782951 415.161885 
L 895.021209 407.653738 
L 896.259466 402.187508 
L 897.497723 397.84925 
L 898.73598 394.55948 
L 899.974238 392.551726 
L 901.212495 391.466714 
L 902.450752 391.104042 
L 903.689009 392.399845 
L 904.927267 396.424634 
L 907.403781 408.002706 
L 908.642039 411.920846 
L 909.880296 414.861784 
L 911.118553 417.276809 
L 912.35681 418.60745 
L 913.595068 418.718183 
L 914.833325 417.945507 
L 916.071582 416.05629 
L 917.309839 412.635452 
L 918.548097 408.306739 
L 919.786354 404.672131 
L 921.024611 402.928186 
L 922.262868 403.314434 
L 923.501126 405.701898 
L 925.97764 413.001037 
L 927.215898 414.298366 
L 928.454155 411.690857 
L 929.692412 405.087596 
L 930.930669 396.480292 
L 932.168927 388.704026 
L 933.407184 383.790171 
L 934.645441 382.633023 
L 935.883698 385.296723 
L 937.121956 390.71001 
L 938.360213 396.628712 
L 939.59847 400.626262 
L 940.836727 401.163247 
L 942.074985 398.629789 
L 943.313242 395.693541 
L 944.551499 395.393951 
L 945.789757 398.619145 
L 947.028014 403.556714 
L 948.266271 407.335604 
L 949.504528 408.203517 
L 950.742786 406.067831 
L 951.981043 401.726056 
L 953.2193 395.964367 
L 955.695815 382.740251 
L 956.934072 378.530214 
L 958.172329 378.167244 
L 959.410586 381.399471 
L 960.648844 387.106016 
L 961.887101 394.486169 
L 964.363616 410.562379 
L 965.601873 417.025384 
L 966.84013 421.748062 
L 968.078387 424.829282 
L 969.316645 425.568445 
L 970.554902 422.578647 
L 971.793159 415.819777 
L 974.269674 399.42876 
L 975.507931 393.254863 
L 976.746188 388.0802 
L 977.984446 383.561279 
L 979.222703 380.846208 
L 980.46096 381.237819 
L 981.699217 384.910393 
L 984.175732 395.881605 
L 985.413989 397.811324 
L 986.652246 394.550107 
L 987.890504 386.213134 
L 989.128761 375.184198 
L 990.367018 365.406078 
L 991.605275 360.748711 
L 992.843533 362.873139 
L 994.08179 370.436455 
L 995.320047 381.242619 
L 996.558305 394.435367 
L 999.034819 426.030065 
L 1001.511334 458.632924 
L 1002.749591 472.047323 
L 1003.987848 481.263276 
L 1005.226105 485.718181 
L 1006.464363 485.672924 
L 1007.70262 482.14129 
L 1010.179134 471.316812 
L 1011.417392 464.89036 
L 1012.655649 456.784975 
L 1015.132164 437.823246 
L 1016.370421 429.645693 
L 1017.608678 424.179036 
L 1018.846935 421.764504 
L 1020.085193 422.027796 
L 1021.32345 424.531262 
L 1022.561707 428.347155 
L 1023.799964 431.670301 
L 1025.038222 432.114189 
L 1026.276479 427.567879 
L 1027.514736 417.569773 
L 1031.229508 377.728423 
L 1034.94428 346.580964 
L 1036.182537 337.574849 
L 1037.420794 331.650306 
L 1038.659052 330.272163 
L 1039.897309 334.853951 
L 1041.135566 345.612619 
L 1042.373823 359.544082 
L 1043.612081 371.012279 
L 1044.850338 375.663462 
L 1046.088595 373.814156 
L 1047.326852 369.227715 
L 1048.56511 365.279852 
L 1049.803367 363.084533 
L 1051.041624 362.096217 
L 1053.518139 360.724326 
L 1054.756396 359.074088 
L 1057.232911 352.855939 
L 1058.471168 352.49994 
L 1059.709425 355.628687 
L 1062.18594 365.642587 
L 1063.424197 369.673344 
L 1064.662454 371.456348 
L 1065.900711 369.880713 
L 1067.138969 366.207538 
L 1068.377226 364.193013 
L 1069.615483 366.690266 
L 1072.091998 378.935635 
L 1073.330255 382.766037 
L 1074.568512 383.914224 
L 1075.80677 382.669738 
L 1077.045027 378.811913 
L 1079.521541 366.463081 
L 1080.759799 361.820146 
L 1081.998056 359.086068 
L 1083.236313 357.692957 
L 1084.474571 357.142609 
L 1085.712828 356.995933 
L 1086.951085 357.223099 
L 1088.189342 358.560742 
L 1089.4276 361.77472 
L 1090.665857 365.812949 
L 1091.904114 367.488505 
L 1093.142371 364.350858 
L 1094.380629 356.787794 
L 1099.333658 315.850342 
L 1101.810172 295.262975 
L 1103.04843 289.319252 
L 1104.286687 288.382313 
L 1106.763201 291.88177 
L 1108.001459 292.265211 
L 1109.239716 290.316675 
L 1110.477973 285.317096 
L 1114.192745 263.056286 
L 1116.669259 251.272464 
L 1121.622289 228.799782 
L 1122.860546 224.342944 
L 1124.098803 222.477486 
L 1125.33706 224.030714 
L 1126.575318 227.663772 
L 1127.813575 230.285436 
L 1129.051832 229.812492 
L 1130.290089 227.332952 
L 1131.528347 226.100644 
L 1132.766604 229.024326 
L 1134.004861 236.608839 
L 1135.243118 246.319931 
L 1136.481376 254.56209 
L 1137.719633 259.18352 
L 1138.95789 259.523624 
L 1140.196148 255.735554 
L 1141.434405 248.925885 
L 1145.149177 224.687662 
L 1146.387434 220.04962 
L 1147.625691 217.553693 
L 1150.102206 213.011673 
L 1151.340463 212.662723 
L 1152.57872 216.287977 
L 1155.055235 229.39815 
L 1156.293492 232.631611 
L 1157.531749 232.488096 
L 1158.770007 230.908909 
L 1160.008264 229.675295 
L 1161.246521 228.781129 
L 1162.484778 227.719754 
L 1163.723036 226.927668 
L 1164.961293 226.570269 
L 1166.19955 225.804862 
L 1168.676065 222.668637 
L 1169.914322 220.987657 
L 1171.152579 217.666364 
L 1172.390837 210.573034 
L 1173.629094 199.481907 
L 1176.105608 174.308629 
L 1177.343866 164.361853 
L 1178.582123 157.079175 
L 1179.82038 152.474527 
L 1181.058637 150.656725 
L 1182.296895 151.463255 
L 1183.535152 154.310212 
L 1184.773409 158.465651 
L 1188.488181 172.512154 
L 1189.726438 176.155316 
L 1190.964696 176.867291 
L 1192.202953 174.356124 
L 1193.44121 171.105464 
L 1194.679467 170.497273 
L 1195.917725 174.771327 
L 1197.155982 183.568602 
L 1198.394239 193.608096 
L 1199.632496 200.35165 
L 1200.870754 200.549235 
L 1202.109011 194.534564 
L 1203.347268 186.073246 
L 1204.585525 179.318161 
L 1205.823783 176.674943 
L 1207.06204 178.632844 
L 1209.538555 189.033933 
L 1210.776812 191.173533 
L 1212.015069 187.815886 
L 1213.253326 178.469061 
L 1216.968098 137.547239 
L 1218.206355 129.120162 
L 1219.444613 125.042915 
L 1220.68287 123.735023 
L 1221.921127 123.107574 
L 1223.159384 121.799972 
L 1224.397642 118.956836 
L 1225.635899 114.170441 
L 1226.874156 107.882247 
L 1229.350671 94.020717 
L 1230.588928 87.95761 
L 1231.827185 82.669719 
L 1233.065443 76.469051 
L 1234.3037 67.859679 
L 1235.541957 58.099433 
L 1236.780214 50.555585 
L 1238.018472 47.979282 
L 1239.256729 50.742405 
L 1240.494986 56.992273 
L 1241.733243 65.294683 
L 1242.971501 76.707543 
L 1244.209758 92.253202 
L 1246.686273 126.487083 
L 1247.92453 139.022129 
L 1249.162787 145.620142 
L 1250.401044 146.051949 
L 1251.639302 142.509481 
L 1252.877559 137.418038 
L 1254.115816 130.910172 
L 1255.354073 121.691873 
L 1256.592331 110.386765 
L 1257.830588 100.142867 
L 1259.068845 93.588961 
L 1260.307103 91.205717 
L 1261.54536 91.857634 
L 1262.783617 93.192945 
L 1264.021874 92.866302 
L 1265.260132 90.402744 
L 1266.498389 87.677521 
L 1267.736646 87.881206 
L 1268.974903 93.425193 
L 1270.213161 103.790657 
L 1271.451418 115.997502 
L 1272.689675 127.081537 
L 1273.927932 134.762128 
L 1275.16619 137.218958 
L 1276.404447 134.90401 
L 1277.642704 131.491831 
L 1278.880962 130.591593 
L 1280.119219 132.272353 
L 1281.357476 134.240072 
L 1282.595733 135.080255 
L 1283.833991 135.206076 
L 1285.072248 135.158179 
L 1286.310505 133.925145 
L 1287.548762 129.865118 
L 1288.78702 122.494753 
L 1291.263534 103.577159 
L 1292.501791 97.812597 
L 1293.740049 97.528185 
L 1294.978306 101.831155 
L 1296.216563 107.826823 
L 1297.454821 113.116896 
L 1298.693078 116.933141 
L 1301.169592 122.057755 
L 1302.40785 125.647904 
L 1303.646107 131.255997 
L 1304.884364 139.088187 
L 1308.599136 168.083858 
L 1309.837393 173.576459 
L 1311.07565 174.869086 
L 1312.313908 172.820538 
L 1313.552165 168.572432 
L 1314.790422 163.409375 
L 1316.02868 159.092545 
L 1317.266937 156.856856 
L 1318.505194 157.120106 
L 1319.743451 159.859687 
L 1320.981709 163.84056 
L 1322.219966 166.655126 
L 1323.458223 166.865982 
L 1325.934738 163.582703 
L 1327.172995 163.242817 
L 1328.411252 164.811921 
L 1330.887767 170.066652 
L 1332.126024 171.209254 
L 1333.364281 170.185614 
L 1334.602539 166.212709 
L 1335.840796 159.454432 
L 1337.079053 151.409076 
L 1338.31731 144.120309 
L 1339.555568 138.852448 
L 1343.270339 127.73242 
L 1345.746854 119.300033 
L 1346.985111 116.225195 
L 1348.223368 114.444595 
L 1349.461626 114.328553 
L 1350.699883 115.911827 
L 1351.93814 117.935517 
L 1353.176398 118.585918 
L 1354.414655 116.765279 
L 1355.652912 112.345486 
L 1359.367684 93.559246 
L 1360.605941 88.257993 
L 1361.844198 84.586416 
L 1363.082456 84.04178 
L 1364.320713 87.124544 
L 1365.55897 93.717371 
L 1366.797228 103.918332 
L 1368.035485 117.444643 
L 1369.273742 132.348027 
L 1370.511999 144.742421 
L 1371.750257 151.25357 
L 1372.988514 151.829736 
L 1375.465028 146.250588 
L 1376.703286 145.818836 
L 1377.941543 148.480227 
L 1380.418057 157.476154 
L 1381.656315 161.207577 
L 1382.894572 163.934086 
L 1384.132829 166.159365 
L 1385.371087 169.409884 
L 1386.609344 174.963119 
L 1387.847601 181.234653 
L 1389.085858 184.506584 
L 1390.324116 182.746359 
L 1391.562373 177.00692 
L 1392.80063 169.785691 
L 1394.038887 163.296805 
L 1396.515402 153.500304 
L 1397.753659 147.323447 
L 1398.991916 138.698579 
L 1401.468431 118.12907 
L 1402.706688 111.481984 
L 1403.944946 110.278461 
L 1406.42146 116.270976 
L 1407.659717 114.466053 
L 1408.897975 107.999209 
L 1410.136232 100.30762 
L 1411.374489 95.235631 
L 1412.612746 95.303329 
L 1413.851004 100.743417 
L 1415.089261 109.028014 
L 1416.327518 116.170281 
L 1417.565775 120.10774 
L 1418.804033 122.44381 
L 1420.04229 125.979326 
L 1421.280547 131.664703 
L 1422.518805 138.737891 
L 1423.757062 146.933007 
L 1426.233576 165.67166 
L 1427.471834 171.574022 
L 1428.710091 172.493358 
L 1429.948348 169.27767 
L 1431.186605 164.510819 
L 1432.424863 161.170581 
L 1433.66312 161.525011 
L 1434.901377 165.948358 
L 1437.377892 178.732237 
L 1438.616149 183.216109 
L 1439.854406 185.537211 
L 1441.092664 185.467385 
L 1442.330921 182.662102 
L 1444.807435 171.752268 
L 1446.045693 168.943137 
L 1447.28395 172.259604 
L 1448.522207 182.370356 
L 1449.760464 195.822088 
L 1450.998722 206.99323 
L 1452.236979 212.10772 
L 1453.475236 211.215864 
L 1454.713494 206.187862 
L 1455.951751 198.487663 
L 1457.190008 189.911637 
L 1458.428265 182.251906 
L 1460.90478 168.712115 
L 1462.143037 163.313889 
L 1463.381294 161.783021 
L 1464.619552 165.000874 
L 1467.096066 176.894046 
L 1468.334323 180.872671 
L 1469.572581 182.314968 
L 1470.810838 181.842299 
L 1472.049095 180.982901 
L 1473.287353 181.424531 
L 1474.52561 184.120732 
L 1475.763867 188.684842 
L 1477.002124 193.907072 
L 1478.240382 198.241417 
L 1479.478639 199.71143 
L 1480.716896 197.056773 
L 1481.955153 191.508744 
L 1483.193411 186.716234 
L 1484.431668 186.488749 
L 1485.669925 192.178448 
L 1488.14644 211.986546 
L 1489.384697 218.756847 
L 1490.622954 220.978277 
L 1491.861212 219.253873 
L 1493.099469 214.032665 
L 1494.337726 206.366022 
L 1495.575983 199.979833 
L 1496.814241 199.83114 
L 1498.052498 207.346012 
L 1499.290755 217.872667 
L 1500.529012 224.217222 
L 1501.76727 222.579026 
L 1504.243784 207.737827 
L 1505.482041 204.972333 
L 1506.720299 207.336395 
L 1509.196813 218.140702 
L 1510.435071 222.00576 
L 1512.911585 226.513306 
L 1514.149842 230.624195 
L 1515.3881 235.920351 
L 1516.626357 240.431802 
L 1517.864614 242.704827 
L 1519.102871 243.115254 
L 1520.341129 243.331547 
L 1521.579386 244.423926 
L 1522.817643 246.19906 
L 1524.0559 248.474074 
L 1525.294158 252.199006 
L 1526.532415 258.275874 
L 1527.770672 265.488323 
L 1529.00893 271.223235 
L 1530.247187 273.804427 
L 1531.485444 272.998313 
L 1532.723701 269.305925 
L 1536.438473 252.765151 
L 1537.67673 251.121901 
L 1538.914988 252.989054 
L 1540.153245 256.177725 
L 1541.391502 258.063373 
L 1542.62976 257.646218 
L 1543.868017 254.868997 
L 1545.106274 249.975139 
L 1546.344531 244.317909 
L 1547.582789 240.534223 
L 1548.821046 240.30078 
L 1550.059303 242.51156 
L 1551.29756 245.364414 
L 1552.535818 248.770092 
L 1553.774075 253.468471 
L 1555.012332 259.636416 
L 1558.727104 280.992829 
L 1559.965361 285.681442 
L 1562.441876 293.655134 
L 1563.680133 297.979994 
L 1564.91839 301.53987 
L 1568.633162 309.135399 
L 1569.871419 312.109242 
L 1571.109677 313.623102 
L 1572.347934 312.958025 
L 1573.586191 310.635279 
L 1574.824448 307.754472 
L 1576.062706 305.79583 
L 1577.300963 306.419228 
L 1578.53922 310.076354 
L 1579.777478 314.800767 
L 1581.015735 316.990802 
L 1582.253992 313.434535 
L 1583.492249 303.589663 
L 1584.730507 290.864995 
L 1585.968764 280.822201 
L 1587.207021 277.591238 
L 1588.445278 281.994734 
L 1589.683536 291.825502 
L 1590.921793 302.936858 
L 1592.16005 311.026656 
L 1593.398307 313.736927 
L 1594.636565 311.302306 
L 1597.113079 299.598803 
L 1598.351337 296.057384 
L 1599.589594 296.803087 
L 1600.827851 301.710821 
L 1602.066108 308.241616 
L 1603.304366 313.201371 
L 1604.542623 316.366076 
L 1605.78088 320.440507 
L 1607.019137 327.522631 
L 1609.495652 347.625686 
L 1610.733909 355.708975 
L 1611.972166 359.272863 
L 1613.210424 357.881337 
L 1614.448681 353.433049 
L 1615.686938 347.888464 
L 1618.163453 334.855819 
L 1619.40171 329.623799 
L 1620.639967 325.840386 
L 1621.878225 321.15383 
L 1623.116482 313.500796 
L 1624.354739 302.77193 
L 1625.592996 290.79102 
L 1626.831254 280.353905 
L 1628.069511 273.185168 
L 1629.307768 268.733843 
L 1630.546026 265.072651 
L 1631.784283 260.995766 
L 1633.02254 257.423424 
L 1634.260797 256.674325 
L 1635.499055 260.78253 
L 1636.737312 270.255084 
L 1637.975569 284.006986 
L 1639.213826 301.366545 
L 1640.452084 323.141595 
L 1641.690341 348.75664 
L 1641.690341 348.75664 
" style="fill:none;stroke:#008000;stroke-linecap:square;stroke-width:1.5;"/>
   </g>
   <g id="patch_3">
    <path d="M 43.78125 586.86358 
L 43.78125 22.318125 
" style="fill:none;stroke:#000000;stroke-linecap:square;stroke-linejoin:miter;stroke-width:0.8;"/>
   </g>
   <g id="patch_4">
    <path d="M 1717.78125 586.86358 
L 1717.78125 22.318125 
" style="fill:none;stroke:#000000;stroke-linecap:square;stroke-linejoin:miter;stroke-width:0.8;"/>
   </g>
   <g id="patch_5">
    <path d="M 43.78125 586.86358 
L 1717.78125 586.86358 
" style="fill:none;stroke:#000000;stroke-linecap:square;stroke-linejoin:miter;stroke-width:0.8;"/>
   </g>
   <g id="patch_6">
    <path d="M 43.78125 22.318125 
L 1717.78125 22.318125 
" style="fill:none;stroke:#000000;stroke-linecap:square;stroke-linejoin:miter;stroke-width:0.8;"/>
   </g>
   <g id="text_19">
    <!-- before binarisation -->
    <g transform="translate(824.1825 16.318125)scale(0.12 -0.12)">
     <defs>
      <path d="M 3116 1747 
Q 3116 2381 2855 2742 
Q 2594 3103 2138 3103 
Q 1681 3103 1420 2742 
Q 1159 2381 1159 1747 
Q 1159 1113 1420 752 
Q 1681 391 2138 391 
Q 2594 391 2855 752 
Q 3116 1113 3116 1747 
z
M 1159 2969 
Q 1341 3281 1617 3432 
Q 1894 3584 2278 3584 
Q 2916 3584 3314 3078 
Q 3713 2572 3713 1747 
Q 3713 922 3314 415 
Q 2916 -91 2278 -91 
Q 1894 -91 1617 61 
Q 1341 213 1159 525 
L 1159 0 
L 581 0 
L 581 4863 
L 1159 4863 
L 1159 2969 
z
" id="DejaVuSans-62" transform="scale(0.015625)"/>
      <path d="M 1959 3097 
Q 1497 3097 1228 2736 
Q 959 2375 959 1747 
Q 959 1119 1226 758 
Q 1494 397 1959 397 
Q 2419 397 2687 759 
Q 2956 1122 2956 1747 
Q 2956 2369 2687 2733 
Q 2419 3097 1959 3097 
z
M 1959 3584 
Q 2709 3584 3137 3096 
Q 3566 2609 3566 1747 
Q 3566 888 3137 398 
Q 2709 -91 1959 -91 
Q 1206 -91 779 398 
Q 353 888 353 1747 
Q 353 2609 779 3096 
Q 1206 3584 1959 3584 
z
" id="DejaVuSans-6f" transform="scale(0.015625)"/>
      <path id="DejaVuSans-20" transform="scale(0.015625)"/>
      <path d="M 603 3500 
L 1178 3500 
L 1178 0 
L 603 0 
L 603 3500 
z
M 603 4863 
L 1178 4863 
L 1178 4134 
L 603 4134 
L 603 4863 
z
" id="DejaVuSans-69" transform="scale(0.015625)"/>
      <path d="M 3513 2113 
L 3513 0 
L 2938 0 
L 2938 2094 
Q 2938 2591 2744 2837 
Q 2550 3084 2163 3084 
Q 1697 3084 1428 2787 
Q 1159 2491 1159 1978 
L 1159 0 
L 581 0 
L 581 3500 
L 1159 3500 
L 1159 2956 
Q 1366 3272 1645 3428 
Q 1925 3584 2291 3584 
Q 2894 3584 3203 3211 
Q 3513 2838 3513 2113 
z
" id="DejaVuSans-6e" transform="scale(0.015625)"/>
      <path d="M 2834 3397 
L 2834 2853 
Q 2591 2978 2328 3040 
Q 2066 3103 1784 3103 
Q 1356 3103 1142 2972 
Q 928 2841 928 2578 
Q 928 2378 1081 2264 
Q 1234 2150 1697 2047 
L 1894 2003 
Q 2506 1872 2764 1633 
Q 3022 1394 3022 966 
Q 3022 478 2636 193 
Q 2250 -91 1575 -91 
Q 1294 -91 989 -36 
Q 684 19 347 128 
L 347 722 
Q 666 556 975 473 
Q 1284 391 1588 391 
Q 1994 391 2212 530 
Q 2431 669 2431 922 
Q 2431 1156 2273 1281 
Q 2116 1406 1581 1522 
L 1381 1569 
Q 847 1681 609 1914 
Q 372 2147 372 2553 
Q 372 3047 722 3315 
Q 1072 3584 1716 3584 
Q 2034 3584 2315 3537 
Q 2597 3491 2834 3397 
z
" id="DejaVuSans-73" transform="scale(0.015625)"/>
      <path d="M 1172 4494 
L 1172 3500 
L 2356 3500 
L 2356 3053 
L 1172 3053 
L 1172 1153 
Q 1172 725 1289 603 
Q 1406 481 1766 481 
L 2356 481 
L 2356 0 
L 1766 0 
Q 1100 0 847 248 
Q 594 497 594 1153 
L 594 3053 
L 172 3053 
L 172 3500 
L 594 3500 
L 594 4494 
L 1172 4494 
z
" id="DejaVuSans-74" transform="scale(0.015625)"/>
     </defs>
     <use xlink:href="#DejaVuSans-62"/>
     <use x="63.476562" xlink:href="#DejaVuSans-65"/>
     <use x="125" xlink:href="#DejaVuSans-66"/>
     <use x="160.205078" xlink:href="#DejaVuSans-6f"/>
     <use x="221.386719" xlink:href="#DejaVuSans-72"/>
     <use x="260.25" xlink:href="#DejaVuSans-65"/>
     <use x="321.773438" xlink:href="#DejaVuSans-20"/>
     <use x="353.560547" xlink:href="#DejaVuSans-62"/>
     <use x="417.037109" xlink:href="#DejaVuSans-69"/>
     <use x="444.820312" xlink:href="#DejaVuSans-6e"/>
     <use x="508.199219" xlink:href="#DejaVuSans-61"/>
     <use x="569.478516" xlink:href="#DejaVuSans-72"/>
     <use x="610.591797" xlink:href="#DejaVuSans-69"/>
     <use x="638.375" xlink:href="#DejaVuSans-73"/>
     <use x="690.474609" xlink:href="#DejaVuSans-61"/>
     <use x="751.753906" xlink:href="#DejaVuSans-74"/>
     <use x="790.962891" xlink:href="#DejaVuSans-69"/>
     <use x="818.746094" xlink:href="#DejaVuSans-6f"/>
     <use x="879.927734" xlink:href="#DejaVuSans-6e"/>
    </g>
   </g>
  </g>
  <g id="axes_2">
   <g id="patch_7">
    <path d="M 43.78125 1264.318125 
L 1717.78125 1264.318125 
L 1717.78125 699.77267 
L 43.78125 699.77267 
z
" style="fill:#ffffff;"/>
   </g>
   <g id="matplotlib.axis_3">
    <g id="xtick_8">
     <g id="line2d_18">
      <g>
       <use style="stroke:#000000;stroke-width:0.8;" x="119.872159" xlink:href="#m007b8ba023" y="1264.318125"/>
      </g>
     </g>
     <g id="text_20">
      <!-- 0 -->
      <g transform="translate(116.690909 1278.916563)scale(0.1 -0.1)">
       <use xlink:href="#DejaVuSans-30"/>
      </g>
     </g>
    </g>
    <g id="xtick_9">
     <g id="line2d_19">
      <g>
       <use style="stroke:#000000;stroke-width:0.8;" x="367.523613" xlink:href="#m007b8ba023" y="1264.318125"/>
      </g>
     </g>
     <g id="text_21">
      <!-- 200 -->
      <g transform="translate(357.979863 1278.916563)scale(0.1 -0.1)">
       <use xlink:href="#DejaVuSans-32"/>
       <use x="63.623047" xlink:href="#DejaVuSans-30"/>
       <use x="127.246094" xlink:href="#DejaVuSans-30"/>
      </g>
     </g>
    </g>
    <g id="xtick_10">
     <g id="line2d_20">
      <g>
       <use style="stroke:#000000;stroke-width:0.8;" x="615.175066" xlink:href="#m007b8ba023" y="1264.318125"/>
      </g>
     </g>
     <g id="text_22">
      <!-- 400 -->
      <g transform="translate(605.631316 1278.916563)scale(0.1 -0.1)">
       <use xlink:href="#DejaVuSans-34"/>
       <use x="63.623047" xlink:href="#DejaVuSans-30"/>
       <use x="127.246094" xlink:href="#DejaVuSans-30"/>
      </g>
     </g>
    </g>
    <g id="xtick_11">
     <g id="line2d_21">
      <g>
       <use style="stroke:#000000;stroke-width:0.8;" x="862.82652" xlink:href="#m007b8ba023" y="1264.318125"/>
      </g>
     </g>
     <g id="text_23">
      <!-- 600 -->
      <g transform="translate(853.28277 1278.916563)scale(0.1 -0.1)">
       <use xlink:href="#DejaVuSans-36"/>
       <use x="63.623047" xlink:href="#DejaVuSans-30"/>
       <use x="127.246094" xlink:href="#DejaVuSans-30"/>
      </g>
     </g>
    </g>
    <g id="xtick_12">
     <g id="line2d_22">
      <g>
       <use style="stroke:#000000;stroke-width:0.8;" x="1110.477973" xlink:href="#m007b8ba023" y="1264.318125"/>
      </g>
     </g>
     <g id="text_24">
      <!-- 800 -->
      <g transform="translate(1100.934223 1278.916563)scale(0.1 -0.1)">
       <use xlink:href="#DejaVuSans-38"/>
       <use x="63.623047" xlink:href="#DejaVuSans-30"/>
       <use x="127.246094" xlink:href="#DejaVuSans-30"/>
      </g>
     </g>
    </g>
    <g id="xtick_13">
     <g id="line2d_23">
      <g>
       <use style="stroke:#000000;stroke-width:0.8;" x="1358.129427" xlink:href="#m007b8ba023" y="1264.318125"/>
      </g>
     </g>
     <g id="text_25">
      <!-- 1000 -->
      <g transform="translate(1345.404427 1278.916563)scale(0.1 -0.1)">
       <use xlink:href="#DejaVuSans-31"/>
       <use x="63.623047" xlink:href="#DejaVuSans-30"/>
       <use x="127.246094" xlink:href="#DejaVuSans-30"/>
       <use x="190.869141" xlink:href="#DejaVuSans-30"/>
      </g>
     </g>
    </g>
    <g id="xtick_14">
     <g id="line2d_24">
      <g>
       <use style="stroke:#000000;stroke-width:0.8;" x="1605.78088" xlink:href="#m007b8ba023" y="1264.318125"/>
      </g>
     </g>
     <g id="text_26">
      <!-- 1200 -->
      <g transform="translate(1593.05588 1278.916563)scale(0.1 -0.1)">
       <use xlink:href="#DejaVuSans-31"/>
       <use x="63.623047" xlink:href="#DejaVuSans-32"/>
       <use x="127.246094" xlink:href="#DejaVuSans-30"/>
       <use x="190.869141" xlink:href="#DejaVuSans-30"/>
      </g>
     </g>
    </g>
    <g id="text_27">
     <!-- frame -->
     <g transform="translate(865.954687 1292.594688)scale(0.1 -0.1)">
      <use xlink:href="#DejaVuSans-66"/>
      <use x="35.205078" xlink:href="#DejaVuSans-72"/>
      <use x="76.318359" xlink:href="#DejaVuSans-61"/>
      <use x="137.597656" xlink:href="#DejaVuSans-6d"/>
      <use x="235.009766" xlink:href="#DejaVuSans-65"/>
     </g>
    </g>
   </g>
   <g id="matplotlib.axis_4">
    <g id="ytick_10">
     <g id="line2d_25">
      <g>
       <use style="stroke:#000000;stroke-width:0.8;" x="43.78125" xlink:href="#mea560266c3" y="1238.656968"/>
      </g>
     </g>
     <g id="text_28">
      <!-- 0.0 -->
      <g transform="translate(20.878125 1242.456187)scale(0.1 -0.1)">
       <use xlink:href="#DejaVuSans-30"/>
       <use x="63.623047" xlink:href="#DejaVuSans-2e"/>
       <use x="95.410156" xlink:href="#DejaVuSans-30"/>
      </g>
     </g>
    </g>
    <g id="ytick_11">
     <g id="line2d_26">
      <g>
       <use style="stroke:#000000;stroke-width:0.8;" x="43.78125" xlink:href="#mea560266c3" y="1136.01234"/>
      </g>
     </g>
     <g id="text_29">
      <!-- 0.2 -->
      <g transform="translate(20.878125 1139.811559)scale(0.1 -0.1)">
       <use xlink:href="#DejaVuSans-30"/>
       <use x="63.623047" xlink:href="#DejaVuSans-2e"/>
       <use x="95.410156" xlink:href="#DejaVuSans-32"/>
      </g>
     </g>
    </g>
    <g id="ytick_12">
     <g id="line2d_27">
      <g>
       <use style="stroke:#000000;stroke-width:0.8;" x="43.78125" xlink:href="#mea560266c3" y="1033.367712"/>
      </g>
     </g>
     <g id="text_30">
      <!-- 0.4 -->
      <g transform="translate(20.878125 1037.166931)scale(0.1 -0.1)">
       <use xlink:href="#DejaVuSans-30"/>
       <use x="63.623047" xlink:href="#DejaVuSans-2e"/>
       <use x="95.410156" xlink:href="#DejaVuSans-34"/>
      </g>
     </g>
    </g>
    <g id="ytick_13">
     <g id="line2d_28">
      <g>
       <use style="stroke:#000000;stroke-width:0.8;" x="43.78125" xlink:href="#mea560266c3" y="930.723084"/>
      </g>
     </g>
     <g id="text_31">
      <!-- 0.6 -->
      <g transform="translate(20.878125 934.522302)scale(0.1 -0.1)">
       <use xlink:href="#DejaVuSans-30"/>
       <use x="63.623047" xlink:href="#DejaVuSans-2e"/>
       <use x="95.410156" xlink:href="#DejaVuSans-36"/>
      </g>
     </g>
    </g>
    <g id="ytick_14">
     <g id="line2d_29">
      <g>
       <use style="stroke:#000000;stroke-width:0.8;" x="43.78125" xlink:href="#mea560266c3" y="828.078456"/>
      </g>
     </g>
     <g id="text_32">
      <!-- 0.8 -->
      <g transform="translate(20.878125 831.877674)scale(0.1 -0.1)">
       <use xlink:href="#DejaVuSans-30"/>
       <use x="63.623047" xlink:href="#DejaVuSans-2e"/>
       <use x="95.410156" xlink:href="#DejaVuSans-38"/>
      </g>
     </g>
    </g>
    <g id="ytick_15">
     <g id="line2d_30">
      <g>
       <use style="stroke:#000000;stroke-width:0.8;" x="43.78125" xlink:href="#mea560266c3" y="725.433827"/>
      </g>
     </g>
     <g id="text_33">
      <!-- 1.0 -->
      <g transform="translate(20.878125 729.233046)scale(0.1 -0.1)">
       <use xlink:href="#DejaVuSans-31"/>
       <use x="63.623047" xlink:href="#DejaVuSans-2e"/>
       <use x="95.410156" xlink:href="#DejaVuSans-30"/>
      </g>
     </g>
    </g>
    <g id="text_34">
     <!-- GCaMP -->
     <g transform="translate(14.798437 999.803991)rotate(-90)scale(0.1 -0.1)">
      <use xlink:href="#DejaVuSans-47"/>
      <use x="77.490234" xlink:href="#DejaVuSans-43"/>
      <use x="147.314453" xlink:href="#DejaVuSans-61"/>
      <use x="208.59375" xlink:href="#DejaVuSans-4d"/>
      <use x="294.873047" xlink:href="#DejaVuSans-50"/>
     </g>
    </g>
   </g>
   <g id="line2d_31">
    <path clip-path="url(#pfd947ab988)" d="M 119.872159 1238.656968 
L 1122.860546 1238.656968 
L 1124.098803 725.433827 
L 1125.33706 1238.656968 
L 1145.149177 1238.656968 
L 1146.387434 725.433827 
L 1153.816977 725.433827 
L 1155.055235 1238.656968 
L 1167.437807 1238.656968 
L 1168.676065 725.433827 
L 1499.290755 725.433827 
L 1500.529012 1238.656968 
L 1501.76727 725.433827 
L 1510.435071 725.433827 
L 1511.673328 1238.656968 
L 1641.690341 1238.656968 
L 1641.690341 1238.656968 
" style="fill:none;stroke:#008000;stroke-linecap:square;stroke-width:1.5;"/>
   </g>
   <g id="patch_8">
    <path d="M 43.78125 1264.318125 
L 43.78125 699.77267 
" style="fill:none;stroke:#000000;stroke-linecap:square;stroke-linejoin:miter;stroke-width:0.8;"/>
   </g>
   <g id="patch_9">
    <path d="M 1717.78125 1264.318125 
L 1717.78125 699.77267 
" style="fill:none;stroke:#000000;stroke-linecap:square;stroke-linejoin:miter;stroke-width:0.8;"/>
   </g>
   <g id="patch_10">
    <path d="M 43.78125 1264.318125 
L 1717.78125 1264.318125 
" style="fill:none;stroke:#000000;stroke-linecap:square;stroke-linejoin:miter;stroke-width:0.8;"/>
   </g>
   <g id="patch_11">
    <path d="M 43.78125 699.77267 
L 1717.78125 699.77267 
" style="fill:none;stroke:#000000;stroke-linecap:square;stroke-linejoin:miter;stroke-width:0.8;"/>
   </g>
   <g id="text_35">
    <!-- before binarisation -->
    <g transform="translate(824.1825 693.77267)scale(0.12 -0.12)">
     <use xlink:href="#DejaVuSans-62"/>
     <use x="63.476562" xlink:href="#DejaVuSans-65"/>
     <use x="125" xlink:href="#DejaVuSans-66"/>
     <use x="160.205078" xlink:href="#DejaVuSans-6f"/>
     <use x="221.386719" xlink:href="#DejaVuSans-72"/>
     <use x="260.25" xlink:href="#DejaVuSans-65"/>
     <use x="321.773438" xlink:href="#DejaVuSans-20"/>
     <use x="353.560547" xlink:href="#DejaVuSans-62"/>
     <use x="417.037109" xlink:href="#DejaVuSans-69"/>
     <use x="444.820312" xlink:href="#DejaVuSans-6e"/>
     <use x="508.199219" xlink:href="#DejaVuSans-61"/>
     <use x="569.478516" xlink:href="#DejaVuSans-72"/>
     <use x="610.591797" xlink:href="#DejaVuSans-69"/>
     <use x="638.375" xlink:href="#DejaVuSans-73"/>
     <use x="690.474609" xlink:href="#DejaVuSans-61"/>
     <use x="751.753906" xlink:href="#DejaVuSans-74"/>
     <use x="790.962891" xlink:href="#DejaVuSans-69"/>
     <use x="818.746094" xlink:href="#DejaVuSans-6f"/>
     <use x="879.927734" xlink:href="#DejaVuSans-6e"/>
    </g>
   </g>
  </g>
 </g>
 <defs>
  <clipPath id="p0ff2d97791">
   <rect height="564.545455" width="1674" x="43.78125" y="22.318125"/>
  </clipPath>
  <clipPath id="pfd947ab988">
   <rect height="564.545455" width="1674" x="43.78125" y="699.77267"/>
  </clipPath>
 </defs>
</svg>
