<?xml version="1.0" encoding="utf-8" standalone="no"?>
<!DOCTYPE svg PUBLIC "-//W3C//DTD SVG 1.1//EN"
  "http://www.w3.org/Graphics/SVG/1.1/DTD/svg11.dtd">
<svg height="1301.874375pt" version="1.1" viewBox="0 0 1724.98125 1301.874375" width="1724.98125pt" xmlns="http://www.w3.org/2000/svg" xmlns:xlink="http://www.w3.org/1999/xlink">
 <metadata>
  <rdf:RDF xmlns:cc="http://creativecommons.org/ns#" xmlns:dc="http://purl.org/dc/elements/1.1/" xmlns:rdf="http://www.w3.org/1999/02/22-rdf-syntax-ns#">
   <cc:Work>
    <dc:type rdf:resource="http://purl.org/dc/dcmitype/StillImage"/>
    <dc:date>2022-07-24T15:54:49.279289</dc:date>
    <dc:format>image/svg+xml</dc:format>
    <dc:creator>
     <cc:Agent>
      <dc:title>Matplotlib v3.4.2, https://matplotlib.org/</dc:title>
     </cc:Agent>
    </dc:creator>
   </cc:Work>
  </rdf:RDF>
 </metadata>
 <defs>
  <style type="text/css">*{stroke-linecap:butt;stroke-linejoin:round;}</style>
 </defs>
 <g id="figure_1">
  <g id="patch_1">
   <path d="M 0 1301.874375 
L 1724.98125 1301.874375 
L 1724.98125 0 
L 0 0 
z
" style="fill:#ffffff;"/>
  </g>
  <g id="axes_1">
   <g id="patch_2">
    <path d="M 43.78125 586.86358 
L 1717.78125 586.86358 
L 1717.78125 22.318125 
L 43.78125 22.318125 
z
" style="fill:#ffffff;"/>
   </g>
   <g id="matplotlib.axis_1">
    <g id="xtick_1">
     <g id="line2d_1">
      <defs>
       <path d="M 0 0 
L 0 3.5 
" id="mc0ac92ef5f" style="stroke:#000000;stroke-width:0.8;"/>
      </defs>
      <g>
       <use style="stroke:#000000;stroke-width:0.8;" x="119.872159" xlink:href="#mc0ac92ef5f" y="586.86358"/>
      </g>
     </g>
     <g id="text_1">
      <!-- 0 -->
      <g transform="translate(116.690909 601.462017)scale(0.1 -0.1)">
       <defs>
        <path d="M 2034 4250 
Q 1547 4250 1301 3770 
Q 1056 3291 1056 2328 
Q 1056 1369 1301 889 
Q 1547 409 2034 409 
Q 2525 409 2770 889 
Q 3016 1369 3016 2328 
Q 3016 3291 2770 3770 
Q 2525 4250 2034 4250 
z
M 2034 4750 
Q 2819 4750 3233 4129 
Q 3647 3509 3647 2328 
Q 3647 1150 3233 529 
Q 2819 -91 2034 -91 
Q 1250 -91 836 529 
Q 422 1150 422 2328 
Q 422 3509 836 4129 
Q 1250 4750 2034 4750 
z
" id="DejaVuSans-30" transform="scale(0.015625)"/>
       </defs>
       <use xlink:href="#DejaVuSans-30"/>
      </g>
     </g>
    </g>
    <g id="xtick_2">
     <g id="line2d_2">
      <g>
       <use style="stroke:#000000;stroke-width:0.8;" x="367.523613" xlink:href="#mc0ac92ef5f" y="586.86358"/>
      </g>
     </g>
     <g id="text_2">
      <!-- 200 -->
      <g transform="translate(357.979863 601.462017)scale(0.1 -0.1)">
       <defs>
        <path d="M 1228 531 
L 3431 531 
L 3431 0 
L 469 0 
L 469 531 
Q 828 903 1448 1529 
Q 2069 2156 2228 2338 
Q 2531 2678 2651 2914 
Q 2772 3150 2772 3378 
Q 2772 3750 2511 3984 
Q 2250 4219 1831 4219 
Q 1534 4219 1204 4116 
Q 875 4013 500 3803 
L 500 4441 
Q 881 4594 1212 4672 
Q 1544 4750 1819 4750 
Q 2544 4750 2975 4387 
Q 3406 4025 3406 3419 
Q 3406 3131 3298 2873 
Q 3191 2616 2906 2266 
Q 2828 2175 2409 1742 
Q 1991 1309 1228 531 
z
" id="DejaVuSans-32" transform="scale(0.015625)"/>
       </defs>
       <use xlink:href="#DejaVuSans-32"/>
       <use x="63.623047" xlink:href="#DejaVuSans-30"/>
       <use x="127.246094" xlink:href="#DejaVuSans-30"/>
      </g>
     </g>
    </g>
    <g id="xtick_3">
     <g id="line2d_3">
      <g>
       <use style="stroke:#000000;stroke-width:0.8;" x="615.175066" xlink:href="#mc0ac92ef5f" y="586.86358"/>
      </g>
     </g>
     <g id="text_3">
      <!-- 400 -->
      <g transform="translate(605.631316 601.462017)scale(0.1 -0.1)">
       <defs>
        <path d="M 2419 4116 
L 825 1625 
L 2419 1625 
L 2419 4116 
z
M 2253 4666 
L 3047 4666 
L 3047 1625 
L 3713 1625 
L 3713 1100 
L 3047 1100 
L 3047 0 
L 2419 0 
L 2419 1100 
L 313 1100 
L 313 1709 
L 2253 4666 
z
" id="DejaVuSans-34" transform="scale(0.015625)"/>
       </defs>
       <use xlink:href="#DejaVuSans-34"/>
       <use x="63.623047" xlink:href="#DejaVuSans-30"/>
       <use x="127.246094" xlink:href="#DejaVuSans-30"/>
      </g>
     </g>
    </g>
    <g id="xtick_4">
     <g id="line2d_4">
      <g>
       <use style="stroke:#000000;stroke-width:0.8;" x="862.82652" xlink:href="#mc0ac92ef5f" y="586.86358"/>
      </g>
     </g>
     <g id="text_4">
      <!-- 600 -->
      <g transform="translate(853.28277 601.462017)scale(0.1 -0.1)">
       <defs>
        <path d="M 2113 2584 
Q 1688 2584 1439 2293 
Q 1191 2003 1191 1497 
Q 1191 994 1439 701 
Q 1688 409 2113 409 
Q 2538 409 2786 701 
Q 3034 994 3034 1497 
Q 3034 2003 2786 2293 
Q 2538 2584 2113 2584 
z
M 3366 4563 
L 3366 3988 
Q 3128 4100 2886 4159 
Q 2644 4219 2406 4219 
Q 1781 4219 1451 3797 
Q 1122 3375 1075 2522 
Q 1259 2794 1537 2939 
Q 1816 3084 2150 3084 
Q 2853 3084 3261 2657 
Q 3669 2231 3669 1497 
Q 3669 778 3244 343 
Q 2819 -91 2113 -91 
Q 1303 -91 875 529 
Q 447 1150 447 2328 
Q 447 3434 972 4092 
Q 1497 4750 2381 4750 
Q 2619 4750 2861 4703 
Q 3103 4656 3366 4563 
z
" id="DejaVuSans-36" transform="scale(0.015625)"/>
       </defs>
       <use xlink:href="#DejaVuSans-36"/>
       <use x="63.623047" xlink:href="#DejaVuSans-30"/>
       <use x="127.246094" xlink:href="#DejaVuSans-30"/>
      </g>
     </g>
    </g>
    <g id="xtick_5">
     <g id="line2d_5">
      <g>
       <use style="stroke:#000000;stroke-width:0.8;" x="1110.477973" xlink:href="#mc0ac92ef5f" y="586.86358"/>
      </g>
     </g>
     <g id="text_5">
      <!-- 800 -->
      <g transform="translate(1100.934223 601.462017)scale(0.1 -0.1)">
       <defs>
        <path d="M 2034 2216 
Q 1584 2216 1326 1975 
Q 1069 1734 1069 1313 
Q 1069 891 1326 650 
Q 1584 409 2034 409 
Q 2484 409 2743 651 
Q 3003 894 3003 1313 
Q 3003 1734 2745 1975 
Q 2488 2216 2034 2216 
z
M 1403 2484 
Q 997 2584 770 2862 
Q 544 3141 544 3541 
Q 544 4100 942 4425 
Q 1341 4750 2034 4750 
Q 2731 4750 3128 4425 
Q 3525 4100 3525 3541 
Q 3525 3141 3298 2862 
Q 3072 2584 2669 2484 
Q 3125 2378 3379 2068 
Q 3634 1759 3634 1313 
Q 3634 634 3220 271 
Q 2806 -91 2034 -91 
Q 1263 -91 848 271 
Q 434 634 434 1313 
Q 434 1759 690 2068 
Q 947 2378 1403 2484 
z
M 1172 3481 
Q 1172 3119 1398 2916 
Q 1625 2713 2034 2713 
Q 2441 2713 2670 2916 
Q 2900 3119 2900 3481 
Q 2900 3844 2670 4047 
Q 2441 4250 2034 4250 
Q 1625 4250 1398 4047 
Q 1172 3844 1172 3481 
z
" id="DejaVuSans-38" transform="scale(0.015625)"/>
       </defs>
       <use xlink:href="#DejaVuSans-38"/>
       <use x="63.623047" xlink:href="#DejaVuSans-30"/>
       <use x="127.246094" xlink:href="#DejaVuSans-30"/>
      </g>
     </g>
    </g>
    <g id="xtick_6">
     <g id="line2d_6">
      <g>
       <use style="stroke:#000000;stroke-width:0.8;" x="1358.129427" xlink:href="#mc0ac92ef5f" y="586.86358"/>
      </g>
     </g>
     <g id="text_6">
      <!-- 1000 -->
      <g transform="translate(1345.404427 601.462017)scale(0.1 -0.1)">
       <defs>
        <path d="M 794 531 
L 1825 531 
L 1825 4091 
L 703 3866 
L 703 4441 
L 1819 4666 
L 2450 4666 
L 2450 531 
L 3481 531 
L 3481 0 
L 794 0 
L 794 531 
z
" id="DejaVuSans-31" transform="scale(0.015625)"/>
       </defs>
       <use xlink:href="#DejaVuSans-31"/>
       <use x="63.623047" xlink:href="#DejaVuSans-30"/>
       <use x="127.246094" xlink:href="#DejaVuSans-30"/>
       <use x="190.869141" xlink:href="#DejaVuSans-30"/>
      </g>
     </g>
    </g>
    <g id="xtick_7">
     <g id="line2d_7">
      <g>
       <use style="stroke:#000000;stroke-width:0.8;" x="1605.78088" xlink:href="#mc0ac92ef5f" y="586.86358"/>
      </g>
     </g>
     <g id="text_7">
      <!-- 1200 -->
      <g transform="translate(1593.05588 601.462017)scale(0.1 -0.1)">
       <use xlink:href="#DejaVuSans-31"/>
       <use x="63.623047" xlink:href="#DejaVuSans-32"/>
       <use x="127.246094" xlink:href="#DejaVuSans-30"/>
       <use x="190.869141" xlink:href="#DejaVuSans-30"/>
      </g>
     </g>
    </g>
    <g id="text_8">
     <!-- frame -->
     <g transform="translate(865.954687 615.140142)scale(0.1 -0.1)">
      <defs>
       <path d="M 2375 4863 
L 2375 4384 
L 1825 4384 
Q 1516 4384 1395 4259 
Q 1275 4134 1275 3809 
L 1275 3500 
L 2222 3500 
L 2222 3053 
L 1275 3053 
L 1275 0 
L 697 0 
L 697 3053 
L 147 3053 
L 147 3500 
L 697 3500 
L 697 3744 
Q 697 4328 969 4595 
Q 1241 4863 1831 4863 
L 2375 4863 
z
" id="DejaVuSans-66" transform="scale(0.015625)"/>
       <path d="M 2631 2963 
Q 2534 3019 2420 3045 
Q 2306 3072 2169 3072 
Q 1681 3072 1420 2755 
Q 1159 2438 1159 1844 
L 1159 0 
L 581 0 
L 581 3500 
L 1159 3500 
L 1159 2956 
Q 1341 3275 1631 3429 
Q 1922 3584 2338 3584 
Q 2397 3584 2469 3576 
Q 2541 3569 2628 3553 
L 2631 2963 
z
" id="DejaVuSans-72" transform="scale(0.015625)"/>
       <path d="M 2194 1759 
Q 1497 1759 1228 1600 
Q 959 1441 959 1056 
Q 959 750 1161 570 
Q 1363 391 1709 391 
Q 2188 391 2477 730 
Q 2766 1069 2766 1631 
L 2766 1759 
L 2194 1759 
z
M 3341 1997 
L 3341 0 
L 2766 0 
L 2766 531 
Q 2569 213 2275 61 
Q 1981 -91 1556 -91 
Q 1019 -91 701 211 
Q 384 513 384 1019 
Q 384 1609 779 1909 
Q 1175 2209 1959 2209 
L 2766 2209 
L 2766 2266 
Q 2766 2663 2505 2880 
Q 2244 3097 1772 3097 
Q 1472 3097 1187 3025 
Q 903 2953 641 2809 
L 641 3341 
Q 956 3463 1253 3523 
Q 1550 3584 1831 3584 
Q 2591 3584 2966 3190 
Q 3341 2797 3341 1997 
z
" id="DejaVuSans-61" transform="scale(0.015625)"/>
       <path d="M 3328 2828 
Q 3544 3216 3844 3400 
Q 4144 3584 4550 3584 
Q 5097 3584 5394 3201 
Q 5691 2819 5691 2113 
L 5691 0 
L 5113 0 
L 5113 2094 
Q 5113 2597 4934 2840 
Q 4756 3084 4391 3084 
Q 3944 3084 3684 2787 
Q 3425 2491 3425 1978 
L 3425 0 
L 2847 0 
L 2847 2094 
Q 2847 2600 2669 2842 
Q 2491 3084 2119 3084 
Q 1678 3084 1418 2786 
Q 1159 2488 1159 1978 
L 1159 0 
L 581 0 
L 581 3500 
L 1159 3500 
L 1159 2956 
Q 1356 3278 1631 3431 
Q 1906 3584 2284 3584 
Q 2666 3584 2933 3390 
Q 3200 3197 3328 2828 
z
" id="DejaVuSans-6d" transform="scale(0.015625)"/>
       <path d="M 3597 1894 
L 3597 1613 
L 953 1613 
Q 991 1019 1311 708 
Q 1631 397 2203 397 
Q 2534 397 2845 478 
Q 3156 559 3463 722 
L 3463 178 
Q 3153 47 2828 -22 
Q 2503 -91 2169 -91 
Q 1331 -91 842 396 
Q 353 884 353 1716 
Q 353 2575 817 3079 
Q 1281 3584 2069 3584 
Q 2775 3584 3186 3129 
Q 3597 2675 3597 1894 
z
M 3022 2063 
Q 3016 2534 2758 2815 
Q 2500 3097 2075 3097 
Q 1594 3097 1305 2825 
Q 1016 2553 972 2059 
L 3022 2063 
z
" id="DejaVuSans-65" transform="scale(0.015625)"/>
      </defs>
      <use xlink:href="#DejaVuSans-66"/>
      <use x="35.205078" xlink:href="#DejaVuSans-72"/>
      <use x="76.318359" xlink:href="#DejaVuSans-61"/>
      <use x="137.597656" xlink:href="#DejaVuSans-6d"/>
      <use x="235.009766" xlink:href="#DejaVuSans-65"/>
     </g>
    </g>
   </g>
   <g id="matplotlib.axis_2">
    <g id="ytick_1">
     <g id="line2d_8">
      <defs>
       <path d="M 0 0 
L -3.5 0 
" id="mee635e3c8f" style="stroke:#000000;stroke-width:0.8;"/>
      </defs>
      <g>
       <use style="stroke:#000000;stroke-width:0.8;" x="43.78125" xlink:href="#mee635e3c8f" y="561.202423"/>
      </g>
     </g>
     <g id="text_9">
      <!-- 0.0 -->
      <g transform="translate(20.878125 565.001641)scale(0.1 -0.1)">
       <defs>
        <path d="M 684 794 
L 1344 794 
L 1344 0 
L 684 0 
L 684 794 
z
" id="DejaVuSans-2e" transform="scale(0.015625)"/>
       </defs>
       <use xlink:href="#DejaVuSans-30"/>
       <use x="63.623047" xlink:href="#DejaVuSans-2e"/>
       <use x="95.410156" xlink:href="#DejaVuSans-30"/>
      </g>
     </g>
    </g>
    <g id="ytick_2">
     <g id="line2d_9">
      <g>
       <use style="stroke:#000000;stroke-width:0.8;" x="43.78125" xlink:href="#mee635e3c8f" y="450.170794"/>
      </g>
     </g>
     <g id="text_10">
      <!-- 0.2 -->
      <g transform="translate(20.878125 453.970013)scale(0.1 -0.1)">
       <use xlink:href="#DejaVuSans-30"/>
       <use x="63.623047" xlink:href="#DejaVuSans-2e"/>
       <use x="95.410156" xlink:href="#DejaVuSans-32"/>
      </g>
     </g>
    </g>
    <g id="ytick_3">
     <g id="line2d_10">
      <g>
       <use style="stroke:#000000;stroke-width:0.8;" x="43.78125" xlink:href="#mee635e3c8f" y="339.139166"/>
      </g>
     </g>
     <g id="text_11">
      <!-- 0.4 -->
      <g transform="translate(20.878125 342.938385)scale(0.1 -0.1)">
       <use xlink:href="#DejaVuSans-30"/>
       <use x="63.623047" xlink:href="#DejaVuSans-2e"/>
       <use x="95.410156" xlink:href="#DejaVuSans-34"/>
      </g>
     </g>
    </g>
    <g id="ytick_4">
     <g id="line2d_11">
      <g>
       <use style="stroke:#000000;stroke-width:0.8;" x="43.78125" xlink:href="#mee635e3c8f" y="228.107538"/>
      </g>
     </g>
     <g id="text_12">
      <!-- 0.6 -->
      <g transform="translate(20.878125 231.906757)scale(0.1 -0.1)">
       <use xlink:href="#DejaVuSans-30"/>
       <use x="63.623047" xlink:href="#DejaVuSans-2e"/>
       <use x="95.410156" xlink:href="#DejaVuSans-36"/>
      </g>
     </g>
    </g>
    <g id="ytick_5">
     <g id="line2d_12">
      <g>
       <use style="stroke:#000000;stroke-width:0.8;" x="43.78125" xlink:href="#mee635e3c8f" y="117.07591"/>
      </g>
     </g>
     <g id="text_13">
      <!-- 0.8 -->
      <g transform="translate(20.878125 120.875129)scale(0.1 -0.1)">
       <use xlink:href="#DejaVuSans-30"/>
       <use x="63.623047" xlink:href="#DejaVuSans-2e"/>
       <use x="95.410156" xlink:href="#DejaVuSans-38"/>
      </g>
     </g>
    </g>
    <g id="text_14">
     <!-- GCaMP -->
     <g transform="translate(14.798437 322.349446)rotate(-90)scale(0.1 -0.1)">
      <defs>
       <path d="M 3809 666 
L 3809 1919 
L 2778 1919 
L 2778 2438 
L 4434 2438 
L 4434 434 
Q 4069 175 3628 42 
Q 3188 -91 2688 -91 
Q 1594 -91 976 548 
Q 359 1188 359 2328 
Q 359 3472 976 4111 
Q 1594 4750 2688 4750 
Q 3144 4750 3555 4637 
Q 3966 4525 4313 4306 
L 4313 3634 
Q 3963 3931 3569 4081 
Q 3175 4231 2741 4231 
Q 1884 4231 1454 3753 
Q 1025 3275 1025 2328 
Q 1025 1384 1454 906 
Q 1884 428 2741 428 
Q 3075 428 3337 486 
Q 3600 544 3809 666 
z
" id="DejaVuSans-47" transform="scale(0.015625)"/>
       <path d="M 4122 4306 
L 4122 3641 
Q 3803 3938 3442 4084 
Q 3081 4231 2675 4231 
Q 1875 4231 1450 3742 
Q 1025 3253 1025 2328 
Q 1025 1406 1450 917 
Q 1875 428 2675 428 
Q 3081 428 3442 575 
Q 3803 722 4122 1019 
L 4122 359 
Q 3791 134 3420 21 
Q 3050 -91 2638 -91 
Q 1578 -91 968 557 
Q 359 1206 359 2328 
Q 359 3453 968 4101 
Q 1578 4750 2638 4750 
Q 3056 4750 3426 4639 
Q 3797 4528 4122 4306 
z
" id="DejaVuSans-43" transform="scale(0.015625)"/>
       <path d="M 628 4666 
L 1569 4666 
L 2759 1491 
L 3956 4666 
L 4897 4666 
L 4897 0 
L 4281 0 
L 4281 4097 
L 3078 897 
L 2444 897 
L 1241 4097 
L 1241 0 
L 628 0 
L 628 4666 
z
" id="DejaVuSans-4d" transform="scale(0.015625)"/>
       <path d="M 1259 4147 
L 1259 2394 
L 2053 2394 
Q 2494 2394 2734 2622 
Q 2975 2850 2975 3272 
Q 2975 3691 2734 3919 
Q 2494 4147 2053 4147 
L 1259 4147 
z
M 628 4666 
L 2053 4666 
Q 2838 4666 3239 4311 
Q 3641 3956 3641 3272 
Q 3641 2581 3239 2228 
Q 2838 1875 2053 1875 
L 1259 1875 
L 1259 0 
L 628 0 
L 628 4666 
z
" id="DejaVuSans-50" transform="scale(0.015625)"/>
      </defs>
      <use xlink:href="#DejaVuSans-47"/>
      <use x="77.490234" xlink:href="#DejaVuSans-43"/>
      <use x="147.314453" xlink:href="#DejaVuSans-61"/>
      <use x="208.59375" xlink:href="#DejaVuSans-4d"/>
      <use x="294.873047" xlink:href="#DejaVuSans-50"/>
     </g>
    </g>
   </g>
   <g id="line2d_13">
    <path clip-path="url(#pa65ea80f70)" d="M 119.872159 306.521472 
L 121.110416 315.411757 
L 122.348674 323.165377 
L 123.586931 329.481339 
L 124.825188 334.11459 
L 126.063445 336.134903 
L 127.301703 335.082422 
L 128.53996 331.894804 
L 129.778217 327.5775 
L 131.016474 321.925711 
L 133.492989 307.698794 
L 134.731246 303.523292 
L 135.969504 303.473958 
L 137.207761 306.551441 
L 138.446018 310.712828 
L 139.684275 314.405369 
L 140.922533 317.613312 
L 142.16079 321.279947 
L 143.399047 325.520448 
L 144.637304 328.821918 
L 145.875562 329.242496 
L 147.113819 326.393315 
L 148.352076 321.971815 
L 149.590334 318.767868 
L 150.828591 319.512339 
L 152.066848 325.161506 
L 153.305105 333.519615 
L 154.543363 340.569354 
L 155.78162 343.284198 
L 157.019877 341.340467 
L 158.258134 337.003299 
L 159.496392 333.455032 
L 160.734649 332.758768 
L 161.972906 334.72618 
L 163.211163 337.389328 
L 164.449421 339.053961 
L 165.687678 340.077052 
L 166.925935 342.06206 
L 169.40245 348.788725 
L 170.640707 349.92059 
L 171.878964 348.029513 
L 173.117222 344.391 
L 174.355479 341.435623 
L 175.593736 340.864438 
L 176.831993 342.629279 
L 178.070251 345.358181 
L 179.308508 347.320739 
L 180.546765 347.003556 
L 181.785022 343.502175 
L 184.261537 330.587311 
L 185.499794 326.453564 
L 186.738052 326.307467 
L 187.976309 328.999764 
L 189.214566 332.060879 
L 190.452823 333.718939 
L 191.691081 333.434428 
L 194.167595 329.633092 
L 195.405852 329.304681 
L 196.64411 331.050287 
L 199.120624 336.894226 
L 200.358881 337.6543 
L 201.597139 334.943927 
L 204.073653 323.424953 
L 205.311911 319.740159 
L 206.550168 319.712029 
L 207.788425 322.859841 
L 210.26494 332.062678 
L 211.503197 335.565088 
L 212.741454 337.848838 
L 213.979711 339.139168 
L 215.217969 339.499846 
L 216.456226 338.718936 
L 217.694483 336.84104 
L 218.93274 334.51092 
L 220.170998 332.635383 
L 221.409255 331.815115 
L 222.647512 332.141818 
L 223.88577 333.478322 
L 225.124027 335.674383 
L 226.362284 338.196355 
L 227.600541 339.877827 
L 228.838799 339.577774 
L 230.077056 336.672328 
L 231.315313 330.940942 
L 235.030085 307.629855 
L 236.268342 302.267547 
L 237.5066 299.690828 
L 238.744857 300.73836 
L 239.983114 304.830045 
L 241.221371 310.08175 
L 242.459629 314.41135 
L 243.697886 316.238031 
L 244.936143 314.73893 
L 246.1744 309.981159 
L 248.650915 296.582027 
L 249.889172 292.789978 
L 251.127429 293.140633 
L 252.365687 297.415278 
L 253.603944 304.493718 
L 256.080459 321.131677 
L 257.318716 328.131846 
L 258.556973 333.515278 
L 259.79523 337.089092 
L 261.033488 338.966245 
L 262.271745 339.800503 
L 263.510002 340.29181 
L 264.748259 340.408214 
L 265.986517 339.480246 
L 267.224774 337.147866 
L 269.701288 330.791714 
L 272.177803 325.633723 
L 274.654318 319.583035 
L 275.892575 317.651763 
L 277.130832 317.188757 
L 278.369089 318.078254 
L 279.607347 320.19438 
L 280.845604 322.88013 
L 282.083861 325.012592 
L 283.322118 325.824196 
L 284.560376 324.300748 
L 285.798633 319.23231 
L 287.03689 311.010946 
L 289.513405 292.872513 
L 290.751662 285.867052 
L 291.989919 281.064003 
L 293.228177 278.513831 
L 294.466434 278.251574 
L 295.704691 280.667572 
L 296.942948 286.02906 
L 298.181206 293.769724 
L 300.65772 311.627242 
L 301.895977 319.087936 
L 303.134235 324.123692 
L 304.372492 326.383543 
L 305.610749 325.576998 
L 306.849006 321.951776 
L 308.087264 317.24015 
L 309.325521 313.689125 
L 310.563778 312.181255 
L 311.802036 312.045111 
L 314.27855 312.83068 
L 315.516807 312.54566 
L 316.755065 310.52908 
L 317.993322 305.627661 
L 319.231579 297.580139 
L 320.469836 288.134506 
L 321.708094 280.49738 
L 322.946351 277.433349 
L 324.184608 279.457768 
L 325.422866 284.338865 
L 326.661123 288.481788 
L 327.89938 289.071714 
L 329.137637 285.364021 
L 330.375895 278.533321 
L 331.614152 270.632685 
L 332.852409 263.817747 
L 334.090666 259.924034 
L 335.328924 259.546812 
L 337.805438 263.080706 
L 339.043695 263.138841 
L 340.281953 261.159447 
L 342.758467 254.452653 
L 343.996725 253.141499 
L 345.234982 254.597923 
L 347.711496 261.336672 
L 348.949754 262.913652 
L 350.188011 262.374965 
L 351.426268 261.036842 
L 352.664525 260.535693 
L 353.902783 261.295389 
L 355.14104 262.346698 
L 356.379297 262.312004 
L 357.617554 260.551079 
L 360.094069 254.85245 
L 361.332326 252.625796 
L 362.570584 250.633422 
L 363.808841 248.889926 
L 365.047098 248.321792 
L 366.285355 249.214794 
L 367.523613 250.385616 
L 368.76187 250.749666 
L 370.000127 250.471757 
L 371.238384 250.337102 
L 372.476642 250.815379 
L 376.191413 253.641736 
L 377.429671 253.905766 
L 378.667928 253.440269 
L 379.906185 252.627456 
L 381.144443 251.606961 
L 382.3827 250.30517 
L 383.620957 249.23952 
L 384.859214 249.192205 
L 386.097472 250.338915 
L 387.335729 251.889748 
L 388.573986 252.362454 
L 389.812243 250.975487 
L 391.050501 248.815227 
L 392.288758 247.819322 
L 393.527015 248.944073 
L 394.765272 251.922877 
L 396.00353 256.218653 
L 398.480044 266.430843 
L 399.718302 270.36311 
L 400.956559 272.644736 
L 402.194816 273.650774 
L 403.433073 274.049064 
L 404.671331 274.171364 
L 405.909588 274.011817 
L 407.147845 273.563667 
L 408.386102 272.819498 
L 409.62436 271.911374 
L 410.862617 271.37467 
L 412.100874 271.512422 
L 413.339132 271.521025 
L 414.577389 270.152513 
L 415.815646 266.954246 
L 417.053903 262.027338 
L 418.292161 255.535414 
L 422.006932 232.513912 
L 424.483447 216.456954 
L 425.721704 209.296039 
L 426.959961 203.92255 
L 428.198219 200.336475 
L 430.674733 194.859077 
L 431.912991 191.756579 
L 433.151248 189.007226 
L 434.389505 188.181045 
L 435.627762 190.64176 
L 436.86602 196.37901 
L 440.580791 219.66885 
L 441.819049 225.697372 
L 443.057306 229.723991 
L 444.295563 231.182881 
L 445.53382 230.677441 
L 446.772078 229.781862 
L 448.010335 229.552728 
L 449.248592 230.165582 
L 450.48685 231.367284 
L 451.725107 232.264801 
L 452.963364 231.346785 
L 454.201621 227.707016 
L 455.439879 222.316493 
L 456.678136 217.727066 
L 457.916393 216.367581 
L 459.15465 218.9531 
L 460.392908 224.470702 
L 461.631165 231.322695 
L 462.869422 237.474273 
L 464.107679 240.250551 
L 465.345937 237.688064 
L 466.584194 230.105742 
L 467.822451 220.293596 
L 469.060709 212.345246 
L 470.298966 209.45908 
L 471.537223 211.926549 
L 472.77548 217.148396 
L 474.013738 221.69778 
L 475.251995 223.446682 
L 476.490252 222.273732 
L 477.728509 219.336095 
L 482.681538 205.593906 
L 483.919796 204.468526 
L 485.158053 207.605075 
L 486.39631 215.341114 
L 487.634568 224.933788 
L 488.872825 232.645576 
L 490.111082 236.647409 
L 491.349339 237.336675 
L 492.587597 235.658522 
L 493.825854 232.359592 
L 496.302368 223.859485 
L 498.778883 214.873698 
L 500.01714 210.280219 
L 501.255397 206.959705 
L 502.493655 206.729964 
L 503.731912 210.665893 
L 504.970169 218.045468 
L 507.446684 235.26582 
L 508.684941 242.236542 
L 509.923198 246.078949 
L 511.161456 244.296652 
L 512.399713 236.297935 
L 513.63797 225.190519 
L 514.876227 215.350854 
L 516.114485 209.246555 
L 517.352742 206.642971 
L 518.590999 205.786087 
L 519.829257 205.455261 
L 521.067514 205.507772 
L 522.305771 205.78276 
L 523.544028 205.7926 
L 524.782286 205.234575 
L 526.020543 204.484856 
L 527.2588 204.779334 
L 528.497057 206.96483 
L 529.735315 209.987878 
L 530.973572 211.817572 
L 532.211829 211.460374 
L 533.450086 209.5446 
L 534.688344 207.86007 
L 535.926601 208.020034 
L 537.164858 209.256195 
L 538.403116 208.088138 
L 539.641373 201.696053 
L 542.117887 181.710176 
L 543.356145 176.392478 
L 544.594402 175.630038 
L 545.832659 176.95913 
L 547.070916 178.003271 
L 548.309174 177.694281 
L 549.547431 175.549693 
L 550.785688 171.141988 
L 552.023945 164.241666 
L 553.262203 154.618198 
L 554.50046 141.847172 
L 556.976975 110.493424 
L 558.215232 98.146453 
L 559.453489 91.610606 
L 560.691746 90.573097 
L 561.930004 93.754766 
L 563.168261 100.300713 
L 565.644775 117.254811 
L 566.883033 123.936914 
L 568.12129 129.729636 
L 569.359547 136.570998 
L 570.597804 145.679127 
L 571.836062 155.821063 
L 573.074319 163.400579 
L 574.312576 165.777043 
L 575.550834 163.367726 
L 576.789091 157.84281 
L 579.265605 142.747548 
L 580.503863 137.389174 
L 581.74212 136.820278 
L 582.980377 142.47265 
L 584.218634 154.210858 
L 586.695149 183.477032 
L 587.933406 193.165347 
L 589.171663 197.362165 
L 590.409921 196.863508 
L 591.648178 193.071149 
L 592.886435 187.131435 
L 595.36295 173.349682 
L 596.601207 168.520606 
L 597.839464 166.956754 
L 599.077722 169.590913 
L 600.315979 176.148454 
L 601.554236 184.549118 
L 602.792493 191.744515 
L 604.030751 195.644747 
L 605.269008 196.32958 
L 606.507265 195.146296 
L 607.745523 192.663674 
L 608.98378 187.768935 
L 610.222037 178.925473 
L 611.460294 165.815493 
L 612.698552 149.474586 
L 616.413323 95.015105 
L 617.651581 80.986868 
L 618.889838 72.078889 
L 620.128095 67.363726 
L 621.366352 64.46105 
L 622.60461 61.17956 
L 625.081124 52.504509 
L 626.319382 49.108222 
L 627.557639 47.979282 
L 628.795896 51.165049 
L 630.034153 60.533063 
L 631.272411 76.310621 
L 632.510668 97.600098 
L 633.748925 123.744896 
L 636.22544 180.620598 
L 637.463697 199.95792 
L 638.701954 208.064758 
L 639.940211 207.717382 
L 641.178469 204.392581 
L 642.416726 201.76104 
L 643.654983 200.437447 
L 644.893241 199.444547 
L 646.131498 197.704511 
L 647.369755 194.616822 
L 648.608012 190.220113 
L 649.84627 185.330807 
L 651.084527 181.014614 
L 653.561041 174.207572 
L 654.799299 171.091521 
L 656.037556 169.766106 
L 657.275813 171.700656 
L 658.51407 176.321069 
L 659.752328 181.635134 
L 660.990585 185.093096 
L 662.228842 183.89165 
L 663.4671 176.574116 
L 664.705357 164.326334 
L 667.181871 136.463855 
L 668.420129 126.624172 
L 669.658386 122.335024 
L 670.896643 123.630607 
L 672.1349 129.470361 
L 673.373158 138.974683 
L 675.849672 162.149933 
L 677.087929 170.920958 
L 678.326187 176.695369 
L 679.564444 180.453696 
L 680.802701 182.949796 
L 682.040959 184.397926 
L 683.279216 185.392072 
L 685.75573 187.975197 
L 686.993988 187.499739 
L 688.232245 184.171036 
L 689.470502 177.941486 
L 691.947017 161.412489 
L 693.185274 154.267463 
L 694.423531 148.655235 
L 695.661789 143.894261 
L 696.900046 139.799703 
L 698.138303 137.561016 
L 699.37656 138.373261 
L 700.614818 141.851292 
L 701.853075 146.109248 
L 703.091332 149.103096 
L 704.329589 150.153974 
L 705.567847 150.081856 
L 706.806104 150.184219 
L 708.044361 151.770283 
L 709.282618 155.844759 
L 712.99739 174.285121 
L 714.235648 177.086899 
L 715.473905 177.266001 
L 716.712162 175.005954 
L 717.950419 170.462523 
L 720.426934 156.779133 
L 721.665191 152.070293 
L 722.903448 151.893767 
L 724.141706 155.583742 
L 725.379963 160.009571 
L 726.61822 161.682157 
L 727.856477 159.15392 
L 730.332992 148.79831 
L 731.571249 144.218992 
L 734.047764 133.717204 
L 735.286021 130.318646 
L 736.524278 130.44233 
L 739.000793 135.922378 
L 740.23905 137.397661 
L 741.477307 137.358571 
L 742.715565 135.967068 
L 743.953822 132.430955 
L 745.192079 125.923949 
L 746.430336 118.068481 
L 747.668594 112.90134 
L 748.906851 113.217924 
L 750.145108 117.953496 
L 751.383366 123.622877 
L 752.621623 127.565535 
L 753.85988 129.489396 
L 755.098137 130.078024 
L 756.336395 128.885515 
L 757.574652 124.498557 
L 758.812909 116.820105 
L 760.051166 108.05014 
L 761.289424 100.436781 
L 762.527681 95.003408 
L 763.765938 93.622102 
L 765.004195 99.044164 
L 766.242453 111.690508 
L 768.718967 145.016511 
L 769.957225 157.801191 
L 771.195482 166.231789 
L 772.433739 171.305124 
L 773.671996 172.545952 
L 774.910254 167.849369 
L 776.148511 157.333253 
L 777.386768 144.465354 
L 778.625025 133.084624 
L 779.863283 125.954298 
L 781.10154 125.337378 
L 782.339797 132.848869 
L 783.578054 148.285896 
L 786.054569 188.466655 
L 787.292826 203.07008 
L 788.531084 210.217732 
L 789.769341 210.625759 
L 791.007598 206.888996 
L 794.72237 192.382622 
L 797.198884 178.666941 
L 798.437142 174.233195 
L 799.675399 174.806008 
L 800.913656 180.416019 
L 802.151914 188.385489 
L 803.390171 193.482439 
L 804.628428 190.67282 
L 805.866685 179.805097 
L 807.104943 166.289571 
L 808.3432 156.878729 
L 809.581457 155.350653 
L 810.819714 161.028369 
L 812.057972 170.764936 
L 814.534486 191.767685 
L 815.772743 198.708681 
L 817.011001 201.054543 
L 818.249258 197.894184 
L 819.487515 189.142165 
L 823.202287 151.807702 
L 824.440544 142.425529 
L 825.678802 137.470814 
L 826.917059 138.931014 
L 828.155316 146.113635 
L 829.393573 154.429513 
L 830.631831 158.50606 
L 831.870088 157.494211 
L 833.108345 155.667235 
L 834.346602 157.057884 
L 835.58486 161.951562 
L 838.061374 175.098129 
L 839.299632 179.464264 
L 840.537889 179.634041 
L 841.776146 175.325207 
L 843.014403 169.302233 
L 844.252661 165.615586 
L 845.490918 165.986038 
L 847.967432 172.027148 
L 849.20569 173.591513 
L 850.443947 173.646528 
L 851.682204 172.664894 
L 852.920461 170.379621 
L 854.158719 166.276886 
L 855.396976 160.434795 
L 856.635233 153.766968 
L 857.873491 148.552085 
L 859.111748 148.6142 
L 860.350005 156.866373 
L 862.82652 185.341773 
L 864.064777 192.718377 
L 865.303034 191.992437 
L 867.779549 179.908667 
L 869.017806 177.257731 
L 870.256063 180.075919 
L 871.49432 188.02987 
L 872.732578 198.572784 
L 873.970835 207.833475 
L 875.209092 212.791855 
L 876.44735 213.226504 
L 878.923864 209.632136 
L 880.162121 208.135864 
L 881.400379 205.813873 
L 882.638636 201.817267 
L 883.876893 196.641104 
L 885.11515 192.048359 
L 886.353408 189.850293 
L 887.591665 189.873483 
L 888.829922 188.43953 
L 890.06818 180.033798 
L 891.306437 160.880654 
L 892.544694 131.247986 
L 893.782951 97.344858 
L 895.021209 70.686508 
L 896.259466 61.54147 
L 897.497723 71.55766 
L 898.73598 93.481911 
L 899.974238 117.730459 
L 901.212495 137.706192 
L 902.450752 150.295396 
L 903.689009 155.287929 
L 904.927267 155.210113 
L 906.165524 154.041021 
L 907.403781 154.41634 
L 908.642039 155.956614 
L 909.880296 156.98917 
L 912.35681 157.072195 
L 913.595068 158.201432 
L 914.833325 160.522585 
L 916.071582 163.557855 
L 917.309839 167.001977 
L 918.548097 170.915206 
L 919.786354 175.3134 
L 921.024611 178.989435 
L 922.262868 179.329557 
L 923.501126 174.644339 
L 924.739383 166.002871 
L 925.97764 156.306542 
L 927.215898 149.280336 
L 928.454155 148.89434 
L 929.692412 156.663692 
L 932.168927 183.309279 
L 933.407184 193.31746 
L 934.645441 196.973439 
L 935.883698 193.499397 
L 937.121956 184.772743 
L 938.360213 173.329018 
L 940.836727 147.510501 
L 942.074985 138.537679 
L 943.313242 137.109888 
L 944.551499 143.394897 
L 945.789757 154.660598 
L 947.028014 166.946133 
L 948.266271 175.258834 
L 949.504528 176.294346 
L 950.742786 172.052097 
L 951.981043 167.184416 
L 954.457557 160.098272 
L 955.695815 154.835376 
L 956.934072 148.115564 
L 958.172329 143.17156 
L 959.410586 143.739215 
L 960.648844 150.051112 
L 961.887101 158.277588 
L 963.125358 164.414602 
L 964.363616 167.362721 
L 965.601873 168.48341 
L 966.84013 169.875532 
L 968.078387 172.834253 
L 969.316645 176.809923 
L 970.554902 179.756372 
L 971.793159 180.073228 
L 973.031416 177.593841 
L 974.269674 172.241418 
L 975.507931 163.141961 
L 977.984446 136.156318 
L 979.222703 126.338024 
L 980.46096 123.616075 
L 981.699217 126.690086 
L 982.937475 133.214782 
L 984.175732 142.612059 
L 985.413989 155.217912 
L 987.890504 185.345985 
L 989.128761 197.72826 
L 990.367018 204.887508 
L 991.605275 205.696223 
L 992.843533 201.920007 
L 994.08179 196.281076 
L 995.320047 187.963359 
L 996.558305 173.366821 
L 999.034819 129.965003 
L 1000.273076 117.834002 
L 1001.511334 122.07645 
L 1002.749591 139.644323 
L 1006.464363 211.165812 
L 1008.940877 263.463956 
L 1010.179134 283.064393 
L 1011.417392 288.810759 
L 1012.655649 279.711901 
L 1013.893906 260.333949 
L 1017.608678 187.971137 
L 1018.846935 172.2192 
L 1020.085193 163.920998 
L 1021.32345 162.658057 
L 1022.561707 168.323349 
L 1023.799964 181.244933 
L 1026.276479 221.599937 
L 1027.514736 235.02967 
L 1028.752993 233.506086 
L 1029.991251 218.768659 
L 1031.229508 200.264066 
L 1032.467765 187.041779 
L 1033.706023 183.62786 
L 1034.94428 190.597706 
L 1037.420794 217.853019 
L 1038.659052 224.262581 
L 1039.897309 221.326242 
L 1041.135566 210.723044 
L 1042.373823 195.412089 
L 1044.850338 162.426701 
L 1046.088595 149.724537 
L 1047.326852 143.122356 
L 1048.56511 143.66053 
L 1049.803367 148.643942 
L 1051.041624 154.123488 
L 1052.279882 158.200105 
L 1053.518139 161.212865 
L 1054.756396 163.702552 
L 1055.994653 165.166749 
L 1057.232911 165.561348 
L 1058.471168 166.113993 
L 1059.709425 167.372872 
L 1060.947682 168.99261 
L 1062.18594 171.425953 
L 1063.424197 175.487832 
L 1065.900711 185.849703 
L 1067.138969 188.743121 
L 1068.377226 190.589704 
L 1069.615483 195.04132 
L 1072.091998 211.01569 
L 1073.330255 212.803547 
L 1074.568512 206.417461 
L 1075.80677 193.568728 
L 1079.521541 143.69372 
L 1080.759799 131.921626 
L 1081.998056 126.642694 
L 1083.236313 125.490007 
L 1084.474571 125.067294 
L 1085.712828 125.214806 
L 1086.951085 128.310127 
L 1089.4276 141.261899 
L 1090.665857 143.572181 
L 1091.904114 139.830371 
L 1093.142371 130.150403 
L 1094.380629 116.148691 
L 1095.618886 100.806369 
L 1096.857143 87.640496 
L 1098.0954 78.897603 
L 1101.810172 62.666571 
L 1103.04843 58.512788 
L 1104.286687 58.928347 
L 1105.524944 63.783663 
L 1106.763201 70.284665 
L 1108.001459 76.187311 
L 1109.239716 81.422673 
L 1110.477973 85.645921 
L 1111.71623 86.754472 
L 1112.954488 82.973896 
L 1114.192745 75.026894 
L 1115.431002 65.979017 
L 1116.669259 58.911487 
L 1117.907517 54.870763 
L 1119.145774 53.020245 
L 1120.384031 52.164212 
L 1121.622289 52.642998 
L 1122.860546 56.95107 
L 1124.098803 67.488421 
L 1126.575318 97.813583 
L 1127.813575 102.517101 
L 1129.051832 94.431167 
L 1130.290089 80.309073 
L 1131.528347 69.439739 
L 1132.766604 66.05965 
L 1134.004861 68.425604 
L 1135.243118 71.511061 
L 1136.481376 71.742204 
L 1137.719633 69.673676 
L 1140.196148 64.706924 
L 1141.434405 64.031663 
L 1142.672662 66.999154 
L 1143.910919 74.219757 
L 1145.149177 87.619853 
L 1146.387434 110.338622 
L 1148.863948 170.764765 
L 1150.102206 196.370562 
L 1151.340463 212.02863 
L 1152.57872 213.621784 
L 1153.816977 202.432329 
L 1156.293492 163.574565 
L 1157.531749 152.235583 
L 1158.770007 154.76147 
L 1161.246521 174.153183 
L 1162.484778 181.091502 
L 1163.723036 185.84735 
L 1164.961293 187.226615 
L 1166.19955 185.559508 
L 1167.437807 183.663387 
L 1168.676065 184.070623 
L 1169.914322 188.026793 
L 1172.390837 202.316045 
L 1173.629094 202.792494 
L 1174.867351 195.49645 
L 1176.105608 185.050817 
L 1177.343866 177.122798 
L 1178.582123 174.926003 
L 1179.82038 178.619656 
L 1181.058637 185.475263 
L 1182.296895 191.338481 
L 1183.535152 193.337202 
L 1184.773409 191.138412 
L 1186.011666 186.025496 
L 1188.488181 174.114954 
L 1189.726438 169.825005 
L 1192.202953 162.563396 
L 1193.44121 159.845218 
L 1194.679467 159.526212 
L 1195.917725 161.19631 
L 1197.155982 163.372197 
L 1198.394239 165.070073 
L 1199.632496 166.051311 
L 1202.109011 167.050054 
L 1203.347268 168.213497 
L 1204.585525 170.674984 
L 1205.823783 174.80984 
L 1207.06204 179.899129 
L 1208.300297 183.504007 
L 1209.538555 183.436205 
L 1210.776812 180.289779 
L 1214.491584 168.199193 
L 1215.729841 162.279246 
L 1216.968098 152.727098 
L 1218.206355 138.227535 
L 1220.68287 103.001516 
L 1221.921127 96.6725 
L 1223.159384 105.35049 
L 1225.635899 142.303688 
L 1226.874156 156.258737 
L 1228.112414 164.783909 
L 1229.350671 168.952961 
L 1230.588928 170.243704 
L 1231.827185 169.998006 
L 1233.065443 169.184357 
L 1234.3037 561.202423 
L 1641.690341 561.202423 
L 1641.690341 561.202423 
" style="fill:none;stroke:#008000;stroke-linecap:square;stroke-width:1.5;"/>
   </g>
   <g id="patch_3">
    <path d="M 43.78125 586.86358 
L 43.78125 22.318125 
" style="fill:none;stroke:#000000;stroke-linecap:square;stroke-linejoin:miter;stroke-width:0.8;"/>
   </g>
   <g id="patch_4">
    <path d="M 1717.78125 586.86358 
L 1717.78125 22.318125 
" style="fill:none;stroke:#000000;stroke-linecap:square;stroke-linejoin:miter;stroke-width:0.8;"/>
   </g>
   <g id="patch_5">
    <path d="M 43.78125 586.86358 
L 1717.78125 586.86358 
" style="fill:none;stroke:#000000;stroke-linecap:square;stroke-linejoin:miter;stroke-width:0.8;"/>
   </g>
   <g id="patch_6">
    <path d="M 43.78125 22.318125 
L 1717.78125 22.318125 
" style="fill:none;stroke:#000000;stroke-linecap:square;stroke-linejoin:miter;stroke-width:0.8;"/>
   </g>
   <g id="text_15">
    <!-- before binarisation -->
    <g transform="translate(824.1825 16.318125)scale(0.12 -0.12)">
     <defs>
      <path d="M 3116 1747 
Q 3116 2381 2855 2742 
Q 2594 3103 2138 3103 
Q 1681 3103 1420 2742 
Q 1159 2381 1159 1747 
Q 1159 1113 1420 752 
Q 1681 391 2138 391 
Q 2594 391 2855 752 
Q 3116 1113 3116 1747 
z
M 1159 2969 
Q 1341 3281 1617 3432 
Q 1894 3584 2278 3584 
Q 2916 3584 3314 3078 
Q 3713 2572 3713 1747 
Q 3713 922 3314 415 
Q 2916 -91 2278 -91 
Q 1894 -91 1617 61 
Q 1341 213 1159 525 
L 1159 0 
L 581 0 
L 581 4863 
L 1159 4863 
L 1159 2969 
z
" id="DejaVuSans-62" transform="scale(0.015625)"/>
      <path d="M 1959 3097 
Q 1497 3097 1228 2736 
Q 959 2375 959 1747 
Q 959 1119 1226 758 
Q 1494 397 1959 397 
Q 2419 397 2687 759 
Q 2956 1122 2956 1747 
Q 2956 2369 2687 2733 
Q 2419 3097 1959 3097 
z
M 1959 3584 
Q 2709 3584 3137 3096 
Q 3566 2609 3566 1747 
Q 3566 888 3137 398 
Q 2709 -91 1959 -91 
Q 1206 -91 779 398 
Q 353 888 353 1747 
Q 353 2609 779 3096 
Q 1206 3584 1959 3584 
z
" id="DejaVuSans-6f" transform="scale(0.015625)"/>
      <path id="DejaVuSans-20" transform="scale(0.015625)"/>
      <path d="M 603 3500 
L 1178 3500 
L 1178 0 
L 603 0 
L 603 3500 
z
M 603 4863 
L 1178 4863 
L 1178 4134 
L 603 4134 
L 603 4863 
z
" id="DejaVuSans-69" transform="scale(0.015625)"/>
      <path d="M 3513 2113 
L 3513 0 
L 2938 0 
L 2938 2094 
Q 2938 2591 2744 2837 
Q 2550 3084 2163 3084 
Q 1697 3084 1428 2787 
Q 1159 2491 1159 1978 
L 1159 0 
L 581 0 
L 581 3500 
L 1159 3500 
L 1159 2956 
Q 1366 3272 1645 3428 
Q 1925 3584 2291 3584 
Q 2894 3584 3203 3211 
Q 3513 2838 3513 2113 
z
" id="DejaVuSans-6e" transform="scale(0.015625)"/>
      <path d="M 2834 3397 
L 2834 2853 
Q 2591 2978 2328 3040 
Q 2066 3103 1784 3103 
Q 1356 3103 1142 2972 
Q 928 2841 928 2578 
Q 928 2378 1081 2264 
Q 1234 2150 1697 2047 
L 1894 2003 
Q 2506 1872 2764 1633 
Q 3022 1394 3022 966 
Q 3022 478 2636 193 
Q 2250 -91 1575 -91 
Q 1294 -91 989 -36 
Q 684 19 347 128 
L 347 722 
Q 666 556 975 473 
Q 1284 391 1588 391 
Q 1994 391 2212 530 
Q 2431 669 2431 922 
Q 2431 1156 2273 1281 
Q 2116 1406 1581 1522 
L 1381 1569 
Q 847 1681 609 1914 
Q 372 2147 372 2553 
Q 372 3047 722 3315 
Q 1072 3584 1716 3584 
Q 2034 3584 2315 3537 
Q 2597 3491 2834 3397 
z
" id="DejaVuSans-73" transform="scale(0.015625)"/>
      <path d="M 1172 4494 
L 1172 3500 
L 2356 3500 
L 2356 3053 
L 1172 3053 
L 1172 1153 
Q 1172 725 1289 603 
Q 1406 481 1766 481 
L 2356 481 
L 2356 0 
L 1766 0 
Q 1100 0 847 248 
Q 594 497 594 1153 
L 594 3053 
L 172 3053 
L 172 3500 
L 594 3500 
L 594 4494 
L 1172 4494 
z
" id="DejaVuSans-74" transform="scale(0.015625)"/>
     </defs>
     <use xlink:href="#DejaVuSans-62"/>
     <use x="63.476562" xlink:href="#DejaVuSans-65"/>
     <use x="125" xlink:href="#DejaVuSans-66"/>
     <use x="160.205078" xlink:href="#DejaVuSans-6f"/>
     <use x="221.386719" xlink:href="#DejaVuSans-72"/>
     <use x="260.25" xlink:href="#DejaVuSans-65"/>
     <use x="321.773438" xlink:href="#DejaVuSans-20"/>
     <use x="353.560547" xlink:href="#DejaVuSans-62"/>
     <use x="417.037109" xlink:href="#DejaVuSans-69"/>
     <use x="444.820312" xlink:href="#DejaVuSans-6e"/>
     <use x="508.199219" xlink:href="#DejaVuSans-61"/>
     <use x="569.478516" xlink:href="#DejaVuSans-72"/>
     <use x="610.591797" xlink:href="#DejaVuSans-69"/>
     <use x="638.375" xlink:href="#DejaVuSans-73"/>
     <use x="690.474609" xlink:href="#DejaVuSans-61"/>
     <use x="751.753906" xlink:href="#DejaVuSans-74"/>
     <use x="790.962891" xlink:href="#DejaVuSans-69"/>
     <use x="818.746094" xlink:href="#DejaVuSans-6f"/>
     <use x="879.927734" xlink:href="#DejaVuSans-6e"/>
    </g>
   </g>
  </g>
  <g id="axes_2">
   <g id="patch_7">
    <path d="M 43.78125 1264.318125 
L 1717.78125 1264.318125 
L 1717.78125 699.77267 
L 43.78125 699.77267 
z
" style="fill:#ffffff;"/>
   </g>
   <g id="matplotlib.axis_3">
    <g id="xtick_8">
     <g id="line2d_14">
      <g>
       <use style="stroke:#000000;stroke-width:0.8;" x="119.872159" xlink:href="#mc0ac92ef5f" y="1264.318125"/>
      </g>
     </g>
     <g id="text_16">
      <!-- 0 -->
      <g transform="translate(116.690909 1278.916563)scale(0.1 -0.1)">
       <use xlink:href="#DejaVuSans-30"/>
      </g>
     </g>
    </g>
    <g id="xtick_9">
     <g id="line2d_15">
      <g>
       <use style="stroke:#000000;stroke-width:0.8;" x="367.523613" xlink:href="#mc0ac92ef5f" y="1264.318125"/>
      </g>
     </g>
     <g id="text_17">
      <!-- 200 -->
      <g transform="translate(357.979863 1278.916563)scale(0.1 -0.1)">
       <use xlink:href="#DejaVuSans-32"/>
       <use x="63.623047" xlink:href="#DejaVuSans-30"/>
       <use x="127.246094" xlink:href="#DejaVuSans-30"/>
      </g>
     </g>
    </g>
    <g id="xtick_10">
     <g id="line2d_16">
      <g>
       <use style="stroke:#000000;stroke-width:0.8;" x="615.175066" xlink:href="#mc0ac92ef5f" y="1264.318125"/>
      </g>
     </g>
     <g id="text_18">
      <!-- 400 -->
      <g transform="translate(605.631316 1278.916563)scale(0.1 -0.1)">
       <use xlink:href="#DejaVuSans-34"/>
       <use x="63.623047" xlink:href="#DejaVuSans-30"/>
       <use x="127.246094" xlink:href="#DejaVuSans-30"/>
      </g>
     </g>
    </g>
    <g id="xtick_11">
     <g id="line2d_17">
      <g>
       <use style="stroke:#000000;stroke-width:0.8;" x="862.82652" xlink:href="#mc0ac92ef5f" y="1264.318125"/>
      </g>
     </g>
     <g id="text_19">
      <!-- 600 -->
      <g transform="translate(853.28277 1278.916563)scale(0.1 -0.1)">
       <use xlink:href="#DejaVuSans-36"/>
       <use x="63.623047" xlink:href="#DejaVuSans-30"/>
       <use x="127.246094" xlink:href="#DejaVuSans-30"/>
      </g>
     </g>
    </g>
    <g id="xtick_12">
     <g id="line2d_18">
      <g>
       <use style="stroke:#000000;stroke-width:0.8;" x="1110.477973" xlink:href="#mc0ac92ef5f" y="1264.318125"/>
      </g>
     </g>
     <g id="text_20">
      <!-- 800 -->
      <g transform="translate(1100.934223 1278.916563)scale(0.1 -0.1)">
       <use xlink:href="#DejaVuSans-38"/>
       <use x="63.623047" xlink:href="#DejaVuSans-30"/>
       <use x="127.246094" xlink:href="#DejaVuSans-30"/>
      </g>
     </g>
    </g>
    <g id="xtick_13">
     <g id="line2d_19">
      <g>
       <use style="stroke:#000000;stroke-width:0.8;" x="1358.129427" xlink:href="#mc0ac92ef5f" y="1264.318125"/>
      </g>
     </g>
     <g id="text_21">
      <!-- 1000 -->
      <g transform="translate(1345.404427 1278.916563)scale(0.1 -0.1)">
       <use xlink:href="#DejaVuSans-31"/>
       <use x="63.623047" xlink:href="#DejaVuSans-30"/>
       <use x="127.246094" xlink:href="#DejaVuSans-30"/>
       <use x="190.869141" xlink:href="#DejaVuSans-30"/>
      </g>
     </g>
    </g>
    <g id="xtick_14">
     <g id="line2d_20">
      <g>
       <use style="stroke:#000000;stroke-width:0.8;" x="1605.78088" xlink:href="#mc0ac92ef5f" y="1264.318125"/>
      </g>
     </g>
     <g id="text_22">
      <!-- 1200 -->
      <g transform="translate(1593.05588 1278.916563)scale(0.1 -0.1)">
       <use xlink:href="#DejaVuSans-31"/>
       <use x="63.623047" xlink:href="#DejaVuSans-32"/>
       <use x="127.246094" xlink:href="#DejaVuSans-30"/>
       <use x="190.869141" xlink:href="#DejaVuSans-30"/>
      </g>
     </g>
    </g>
    <g id="text_23">
     <!-- frame -->
     <g transform="translate(865.954687 1292.594688)scale(0.1 -0.1)">
      <use xlink:href="#DejaVuSans-66"/>
      <use x="35.205078" xlink:href="#DejaVuSans-72"/>
      <use x="76.318359" xlink:href="#DejaVuSans-61"/>
      <use x="137.597656" xlink:href="#DejaVuSans-6d"/>
      <use x="235.009766" xlink:href="#DejaVuSans-65"/>
     </g>
    </g>
   </g>
   <g id="matplotlib.axis_4">
    <g id="ytick_6">
     <g id="line2d_21">
      <g>
       <use style="stroke:#000000;stroke-width:0.8;" x="43.78125" xlink:href="#mee635e3c8f" y="1238.656968"/>
      </g>
     </g>
     <g id="text_24">
      <!-- 0.0 -->
      <g transform="translate(20.878125 1242.456187)scale(0.1 -0.1)">
       <use xlink:href="#DejaVuSans-30"/>
       <use x="63.623047" xlink:href="#DejaVuSans-2e"/>
       <use x="95.410156" xlink:href="#DejaVuSans-30"/>
      </g>
     </g>
    </g>
    <g id="ytick_7">
     <g id="line2d_22">
      <g>
       <use style="stroke:#000000;stroke-width:0.8;" x="43.78125" xlink:href="#mee635e3c8f" y="1136.01234"/>
      </g>
     </g>
     <g id="text_25">
      <!-- 0.2 -->
      <g transform="translate(20.878125 1139.811559)scale(0.1 -0.1)">
       <use xlink:href="#DejaVuSans-30"/>
       <use x="63.623047" xlink:href="#DejaVuSans-2e"/>
       <use x="95.410156" xlink:href="#DejaVuSans-32"/>
      </g>
     </g>
    </g>
    <g id="ytick_8">
     <g id="line2d_23">
      <g>
       <use style="stroke:#000000;stroke-width:0.8;" x="43.78125" xlink:href="#mee635e3c8f" y="1033.367712"/>
      </g>
     </g>
     <g id="text_26">
      <!-- 0.4 -->
      <g transform="translate(20.878125 1037.166931)scale(0.1 -0.1)">
       <use xlink:href="#DejaVuSans-30"/>
       <use x="63.623047" xlink:href="#DejaVuSans-2e"/>
       <use x="95.410156" xlink:href="#DejaVuSans-34"/>
      </g>
     </g>
    </g>
    <g id="ytick_9">
     <g id="line2d_24">
      <g>
       <use style="stroke:#000000;stroke-width:0.8;" x="43.78125" xlink:href="#mee635e3c8f" y="930.723084"/>
      </g>
     </g>
     <g id="text_27">
      <!-- 0.6 -->
      <g transform="translate(20.878125 934.522302)scale(0.1 -0.1)">
       <use xlink:href="#DejaVuSans-30"/>
       <use x="63.623047" xlink:href="#DejaVuSans-2e"/>
       <use x="95.410156" xlink:href="#DejaVuSans-36"/>
      </g>
     </g>
    </g>
    <g id="ytick_10">
     <g id="line2d_25">
      <g>
       <use style="stroke:#000000;stroke-width:0.8;" x="43.78125" xlink:href="#mee635e3c8f" y="828.078456"/>
      </g>
     </g>
     <g id="text_28">
      <!-- 0.8 -->
      <g transform="translate(20.878125 831.877674)scale(0.1 -0.1)">
       <use xlink:href="#DejaVuSans-30"/>
       <use x="63.623047" xlink:href="#DejaVuSans-2e"/>
       <use x="95.410156" xlink:href="#DejaVuSans-38"/>
      </g>
     </g>
    </g>
    <g id="ytick_11">
     <g id="line2d_26">
      <g>
       <use style="stroke:#000000;stroke-width:0.8;" x="43.78125" xlink:href="#mee635e3c8f" y="725.433827"/>
      </g>
     </g>
     <g id="text_29">
      <!-- 1.0 -->
      <g transform="translate(20.878125 729.233046)scale(0.1 -0.1)">
       <use xlink:href="#DejaVuSans-31"/>
       <use x="63.623047" xlink:href="#DejaVuSans-2e"/>
       <use x="95.410156" xlink:href="#DejaVuSans-30"/>
      </g>
     </g>
    </g>
    <g id="text_30">
     <!-- GCaMP -->
     <g transform="translate(14.798437 999.803991)rotate(-90)scale(0.1 -0.1)">
      <use xlink:href="#DejaVuSans-47"/>
      <use x="77.490234" xlink:href="#DejaVuSans-43"/>
      <use x="147.314453" xlink:href="#DejaVuSans-61"/>
      <use x="208.59375" xlink:href="#DejaVuSans-4d"/>
      <use x="294.873047" xlink:href="#DejaVuSans-50"/>
     </g>
    </g>
   </g>
   <g id="line2d_27">
    <path clip-path="url(#p9bfec6eb00)" d="M 119.872159 1238.656968 
L 554.50046 1238.656968 
L 555.738717 725.433827 
L 566.883033 725.433827 
L 568.12129 1238.656968 
L 613.936809 1238.656968 
L 615.175066 725.433827 
L 633.748925 725.433827 
L 634.987182 1238.656968 
L 667.181871 1238.656968 
L 668.420129 725.433827 
L 670.896643 725.433827 
L 672.1349 1238.656968 
L 743.953822 1238.656968 
L 745.192079 725.433827 
L 752.621623 725.433827 
L 753.85988 1238.656968 
L 756.336395 1238.656968 
L 757.574652 725.433827 
L 766.242453 725.433827 
L 767.48071 1238.656968 
L 778.625025 1238.656968 
L 779.863283 725.433827 
L 781.10154 725.433827 
L 782.339797 1238.656968 
L 892.544694 1238.656968 
L 893.782951 725.433827 
L 899.974238 725.433827 
L 901.212495 1238.656968 
L 977.984446 1238.656968 
L 979.222703 725.433827 
L 981.699217 725.433827 
L 982.937475 1238.656968 
L 999.034819 1238.656968 
L 1000.273076 725.433827 
L 1001.511334 725.433827 
L 1002.749591 1238.656968 
L 1080.759799 1238.656968 
L 1081.998056 725.433827 
L 1085.712828 725.433827 
L 1086.951085 1238.656968 
L 1093.142371 1238.656968 
L 1094.380629 725.433827 
L 1146.387434 725.433827 
L 1147.625691 1238.656968 
L 1218.206355 1238.656968 
L 1219.444613 725.433827 
L 1224.397642 725.433827 
L 1225.635899 1238.656968 
L 1641.690341 1238.656968 
L 1641.690341 1238.656968 
" style="fill:none;stroke:#008000;stroke-linecap:square;stroke-width:1.5;"/>
   </g>
   <g id="patch_8">
    <path d="M 43.78125 1264.318125 
L 43.78125 699.77267 
" style="fill:none;stroke:#000000;stroke-linecap:square;stroke-linejoin:miter;stroke-width:0.8;"/>
   </g>
   <g id="patch_9">
    <path d="M 1717.78125 1264.318125 
L 1717.78125 699.77267 
" style="fill:none;stroke:#000000;stroke-linecap:square;stroke-linejoin:miter;stroke-width:0.8;"/>
   </g>
   <g id="patch_10">
    <path d="M 43.78125 1264.318125 
L 1717.78125 1264.318125 
" style="fill:none;stroke:#000000;stroke-linecap:square;stroke-linejoin:miter;stroke-width:0.8;"/>
   </g>
   <g id="patch_11">
    <path d="M 43.78125 699.77267 
L 1717.78125 699.77267 
" style="fill:none;stroke:#000000;stroke-linecap:square;stroke-linejoin:miter;stroke-width:0.8;"/>
   </g>
   <g id="text_31">
    <!-- before binarisation -->
    <g transform="translate(824.1825 693.77267)scale(0.12 -0.12)">
     <use xlink:href="#DejaVuSans-62"/>
     <use x="63.476562" xlink:href="#DejaVuSans-65"/>
     <use x="125" xlink:href="#DejaVuSans-66"/>
     <use x="160.205078" xlink:href="#DejaVuSans-6f"/>
     <use x="221.386719" xlink:href="#DejaVuSans-72"/>
     <use x="260.25" xlink:href="#DejaVuSans-65"/>
     <use x="321.773438" xlink:href="#DejaVuSans-20"/>
     <use x="353.560547" xlink:href="#DejaVuSans-62"/>
     <use x="417.037109" xlink:href="#DejaVuSans-69"/>
     <use x="444.820312" xlink:href="#DejaVuSans-6e"/>
     <use x="508.199219" xlink:href="#DejaVuSans-61"/>
     <use x="569.478516" xlink:href="#DejaVuSans-72"/>
     <use x="610.591797" xlink:href="#DejaVuSans-69"/>
     <use x="638.375" xlink:href="#DejaVuSans-73"/>
     <use x="690.474609" xlink:href="#DejaVuSans-61"/>
     <use x="751.753906" xlink:href="#DejaVuSans-74"/>
     <use x="790.962891" xlink:href="#DejaVuSans-69"/>
     <use x="818.746094" xlink:href="#DejaVuSans-6f"/>
     <use x="879.927734" xlink:href="#DejaVuSans-6e"/>
    </g>
   </g>
  </g>
 </g>
 <defs>
  <clipPath id="pa65ea80f70">
   <rect height="564.545455" width="1674" x="43.78125" y="22.318125"/>
  </clipPath>
  <clipPath id="p9bfec6eb00">
   <rect height="564.545455" width="1674" x="43.78125" y="699.77267"/>
  </clipPath>
 </defs>
</svg>
