<?xml version="1.0" encoding="utf-8" standalone="no"?>
<!DOCTYPE svg PUBLIC "-//W3C//DTD SVG 1.1//EN"
  "http://www.w3.org/Graphics/SVG/1.1/DTD/svg11.dtd">
<svg height="1301.874375pt" version="1.1" viewBox="0 0 1724.98125 1301.874375" width="1724.98125pt" xmlns="http://www.w3.org/2000/svg" xmlns:xlink="http://www.w3.org/1999/xlink">
 <metadata>
  <rdf:RDF xmlns:cc="http://creativecommons.org/ns#" xmlns:dc="http://purl.org/dc/elements/1.1/" xmlns:rdf="http://www.w3.org/1999/02/22-rdf-syntax-ns#">
   <cc:Work>
    <dc:type rdf:resource="http://purl.org/dc/dcmitype/StillImage"/>
    <dc:date>2022-07-24T15:54:49.456817</dc:date>
    <dc:format>image/svg+xml</dc:format>
    <dc:creator>
     <cc:Agent>
      <dc:title>Matplotlib v3.4.2, https://matplotlib.org/</dc:title>
     </cc:Agent>
    </dc:creator>
   </cc:Work>
  </rdf:RDF>
 </metadata>
 <defs>
  <style type="text/css">*{stroke-linecap:butt;stroke-linejoin:round;}</style>
 </defs>
 <g id="figure_1">
  <g id="patch_1">
   <path d="M 0 1301.874375 
L 1724.98125 1301.874375 
L 1724.98125 0 
L 0 0 
z
" style="fill:#ffffff;"/>
  </g>
  <g id="axes_1">
   <g id="patch_2">
    <path d="M 43.78125 586.86358 
L 1717.78125 586.86358 
L 1717.78125 22.318125 
L 43.78125 22.318125 
z
" style="fill:#ffffff;"/>
   </g>
   <g id="matplotlib.axis_1">
    <g id="xtick_1">
     <g id="line2d_1">
      <defs>
       <path d="M 0 0 
L 0 3.5 
" id="mb534d3cd17" style="stroke:#000000;stroke-width:0.8;"/>
      </defs>
      <g>
       <use style="stroke:#000000;stroke-width:0.8;" x="119.872159" xlink:href="#mb534d3cd17" y="586.86358"/>
      </g>
     </g>
     <g id="text_1">
      <!-- 0 -->
      <g transform="translate(116.690909 601.462017)scale(0.1 -0.1)">
       <defs>
        <path d="M 2034 4250 
Q 1547 4250 1301 3770 
Q 1056 3291 1056 2328 
Q 1056 1369 1301 889 
Q 1547 409 2034 409 
Q 2525 409 2770 889 
Q 3016 1369 3016 2328 
Q 3016 3291 2770 3770 
Q 2525 4250 2034 4250 
z
M 2034 4750 
Q 2819 4750 3233 4129 
Q 3647 3509 3647 2328 
Q 3647 1150 3233 529 
Q 2819 -91 2034 -91 
Q 1250 -91 836 529 
Q 422 1150 422 2328 
Q 422 3509 836 4129 
Q 1250 4750 2034 4750 
z
" id="DejaVuSans-30" transform="scale(0.015625)"/>
       </defs>
       <use xlink:href="#DejaVuSans-30"/>
      </g>
     </g>
    </g>
    <g id="xtick_2">
     <g id="line2d_2">
      <g>
       <use style="stroke:#000000;stroke-width:0.8;" x="367.523613" xlink:href="#mb534d3cd17" y="586.86358"/>
      </g>
     </g>
     <g id="text_2">
      <!-- 200 -->
      <g transform="translate(357.979863 601.462017)scale(0.1 -0.1)">
       <defs>
        <path d="M 1228 531 
L 3431 531 
L 3431 0 
L 469 0 
L 469 531 
Q 828 903 1448 1529 
Q 2069 2156 2228 2338 
Q 2531 2678 2651 2914 
Q 2772 3150 2772 3378 
Q 2772 3750 2511 3984 
Q 2250 4219 1831 4219 
Q 1534 4219 1204 4116 
Q 875 4013 500 3803 
L 500 4441 
Q 881 4594 1212 4672 
Q 1544 4750 1819 4750 
Q 2544 4750 2975 4387 
Q 3406 4025 3406 3419 
Q 3406 3131 3298 2873 
Q 3191 2616 2906 2266 
Q 2828 2175 2409 1742 
Q 1991 1309 1228 531 
z
" id="DejaVuSans-32" transform="scale(0.015625)"/>
       </defs>
       <use xlink:href="#DejaVuSans-32"/>
       <use x="63.623047" xlink:href="#DejaVuSans-30"/>
       <use x="127.246094" xlink:href="#DejaVuSans-30"/>
      </g>
     </g>
    </g>
    <g id="xtick_3">
     <g id="line2d_3">
      <g>
       <use style="stroke:#000000;stroke-width:0.8;" x="615.175066" xlink:href="#mb534d3cd17" y="586.86358"/>
      </g>
     </g>
     <g id="text_3">
      <!-- 400 -->
      <g transform="translate(605.631316 601.462017)scale(0.1 -0.1)">
       <defs>
        <path d="M 2419 4116 
L 825 1625 
L 2419 1625 
L 2419 4116 
z
M 2253 4666 
L 3047 4666 
L 3047 1625 
L 3713 1625 
L 3713 1100 
L 3047 1100 
L 3047 0 
L 2419 0 
L 2419 1100 
L 313 1100 
L 313 1709 
L 2253 4666 
z
" id="DejaVuSans-34" transform="scale(0.015625)"/>
       </defs>
       <use xlink:href="#DejaVuSans-34"/>
       <use x="63.623047" xlink:href="#DejaVuSans-30"/>
       <use x="127.246094" xlink:href="#DejaVuSans-30"/>
      </g>
     </g>
    </g>
    <g id="xtick_4">
     <g id="line2d_4">
      <g>
       <use style="stroke:#000000;stroke-width:0.8;" x="862.82652" xlink:href="#mb534d3cd17" y="586.86358"/>
      </g>
     </g>
     <g id="text_4">
      <!-- 600 -->
      <g transform="translate(853.28277 601.462017)scale(0.1 -0.1)">
       <defs>
        <path d="M 2113 2584 
Q 1688 2584 1439 2293 
Q 1191 2003 1191 1497 
Q 1191 994 1439 701 
Q 1688 409 2113 409 
Q 2538 409 2786 701 
Q 3034 994 3034 1497 
Q 3034 2003 2786 2293 
Q 2538 2584 2113 2584 
z
M 3366 4563 
L 3366 3988 
Q 3128 4100 2886 4159 
Q 2644 4219 2406 4219 
Q 1781 4219 1451 3797 
Q 1122 3375 1075 2522 
Q 1259 2794 1537 2939 
Q 1816 3084 2150 3084 
Q 2853 3084 3261 2657 
Q 3669 2231 3669 1497 
Q 3669 778 3244 343 
Q 2819 -91 2113 -91 
Q 1303 -91 875 529 
Q 447 1150 447 2328 
Q 447 3434 972 4092 
Q 1497 4750 2381 4750 
Q 2619 4750 2861 4703 
Q 3103 4656 3366 4563 
z
" id="DejaVuSans-36" transform="scale(0.015625)"/>
       </defs>
       <use xlink:href="#DejaVuSans-36"/>
       <use x="63.623047" xlink:href="#DejaVuSans-30"/>
       <use x="127.246094" xlink:href="#DejaVuSans-30"/>
      </g>
     </g>
    </g>
    <g id="xtick_5">
     <g id="line2d_5">
      <g>
       <use style="stroke:#000000;stroke-width:0.8;" x="1110.477973" xlink:href="#mb534d3cd17" y="586.86358"/>
      </g>
     </g>
     <g id="text_5">
      <!-- 800 -->
      <g transform="translate(1100.934223 601.462017)scale(0.1 -0.1)">
       <defs>
        <path d="M 2034 2216 
Q 1584 2216 1326 1975 
Q 1069 1734 1069 1313 
Q 1069 891 1326 650 
Q 1584 409 2034 409 
Q 2484 409 2743 651 
Q 3003 894 3003 1313 
Q 3003 1734 2745 1975 
Q 2488 2216 2034 2216 
z
M 1403 2484 
Q 997 2584 770 2862 
Q 544 3141 544 3541 
Q 544 4100 942 4425 
Q 1341 4750 2034 4750 
Q 2731 4750 3128 4425 
Q 3525 4100 3525 3541 
Q 3525 3141 3298 2862 
Q 3072 2584 2669 2484 
Q 3125 2378 3379 2068 
Q 3634 1759 3634 1313 
Q 3634 634 3220 271 
Q 2806 -91 2034 -91 
Q 1263 -91 848 271 
Q 434 634 434 1313 
Q 434 1759 690 2068 
Q 947 2378 1403 2484 
z
M 1172 3481 
Q 1172 3119 1398 2916 
Q 1625 2713 2034 2713 
Q 2441 2713 2670 2916 
Q 2900 3119 2900 3481 
Q 2900 3844 2670 4047 
Q 2441 4250 2034 4250 
Q 1625 4250 1398 4047 
Q 1172 3844 1172 3481 
z
" id="DejaVuSans-38" transform="scale(0.015625)"/>
       </defs>
       <use xlink:href="#DejaVuSans-38"/>
       <use x="63.623047" xlink:href="#DejaVuSans-30"/>
       <use x="127.246094" xlink:href="#DejaVuSans-30"/>
      </g>
     </g>
    </g>
    <g id="xtick_6">
     <g id="line2d_6">
      <g>
       <use style="stroke:#000000;stroke-width:0.8;" x="1358.129427" xlink:href="#mb534d3cd17" y="586.86358"/>
      </g>
     </g>
     <g id="text_6">
      <!-- 1000 -->
      <g transform="translate(1345.404427 601.462017)scale(0.1 -0.1)">
       <defs>
        <path d="M 794 531 
L 1825 531 
L 1825 4091 
L 703 3866 
L 703 4441 
L 1819 4666 
L 2450 4666 
L 2450 531 
L 3481 531 
L 3481 0 
L 794 0 
L 794 531 
z
" id="DejaVuSans-31" transform="scale(0.015625)"/>
       </defs>
       <use xlink:href="#DejaVuSans-31"/>
       <use x="63.623047" xlink:href="#DejaVuSans-30"/>
       <use x="127.246094" xlink:href="#DejaVuSans-30"/>
       <use x="190.869141" xlink:href="#DejaVuSans-30"/>
      </g>
     </g>
    </g>
    <g id="xtick_7">
     <g id="line2d_7">
      <g>
       <use style="stroke:#000000;stroke-width:0.8;" x="1605.78088" xlink:href="#mb534d3cd17" y="586.86358"/>
      </g>
     </g>
     <g id="text_7">
      <!-- 1200 -->
      <g transform="translate(1593.05588 601.462017)scale(0.1 -0.1)">
       <use xlink:href="#DejaVuSans-31"/>
       <use x="63.623047" xlink:href="#DejaVuSans-32"/>
       <use x="127.246094" xlink:href="#DejaVuSans-30"/>
       <use x="190.869141" xlink:href="#DejaVuSans-30"/>
      </g>
     </g>
    </g>
    <g id="text_8">
     <!-- frame -->
     <g transform="translate(865.954687 615.140142)scale(0.1 -0.1)">
      <defs>
       <path d="M 2375 4863 
L 2375 4384 
L 1825 4384 
Q 1516 4384 1395 4259 
Q 1275 4134 1275 3809 
L 1275 3500 
L 2222 3500 
L 2222 3053 
L 1275 3053 
L 1275 0 
L 697 0 
L 697 3053 
L 147 3053 
L 147 3500 
L 697 3500 
L 697 3744 
Q 697 4328 969 4595 
Q 1241 4863 1831 4863 
L 2375 4863 
z
" id="DejaVuSans-66" transform="scale(0.015625)"/>
       <path d="M 2631 2963 
Q 2534 3019 2420 3045 
Q 2306 3072 2169 3072 
Q 1681 3072 1420 2755 
Q 1159 2438 1159 1844 
L 1159 0 
L 581 0 
L 581 3500 
L 1159 3500 
L 1159 2956 
Q 1341 3275 1631 3429 
Q 1922 3584 2338 3584 
Q 2397 3584 2469 3576 
Q 2541 3569 2628 3553 
L 2631 2963 
z
" id="DejaVuSans-72" transform="scale(0.015625)"/>
       <path d="M 2194 1759 
Q 1497 1759 1228 1600 
Q 959 1441 959 1056 
Q 959 750 1161 570 
Q 1363 391 1709 391 
Q 2188 391 2477 730 
Q 2766 1069 2766 1631 
L 2766 1759 
L 2194 1759 
z
M 3341 1997 
L 3341 0 
L 2766 0 
L 2766 531 
Q 2569 213 2275 61 
Q 1981 -91 1556 -91 
Q 1019 -91 701 211 
Q 384 513 384 1019 
Q 384 1609 779 1909 
Q 1175 2209 1959 2209 
L 2766 2209 
L 2766 2266 
Q 2766 2663 2505 2880 
Q 2244 3097 1772 3097 
Q 1472 3097 1187 3025 
Q 903 2953 641 2809 
L 641 3341 
Q 956 3463 1253 3523 
Q 1550 3584 1831 3584 
Q 2591 3584 2966 3190 
Q 3341 2797 3341 1997 
z
" id="DejaVuSans-61" transform="scale(0.015625)"/>
       <path d="M 3328 2828 
Q 3544 3216 3844 3400 
Q 4144 3584 4550 3584 
Q 5097 3584 5394 3201 
Q 5691 2819 5691 2113 
L 5691 0 
L 5113 0 
L 5113 2094 
Q 5113 2597 4934 2840 
Q 4756 3084 4391 3084 
Q 3944 3084 3684 2787 
Q 3425 2491 3425 1978 
L 3425 0 
L 2847 0 
L 2847 2094 
Q 2847 2600 2669 2842 
Q 2491 3084 2119 3084 
Q 1678 3084 1418 2786 
Q 1159 2488 1159 1978 
L 1159 0 
L 581 0 
L 581 3500 
L 1159 3500 
L 1159 2956 
Q 1356 3278 1631 3431 
Q 1906 3584 2284 3584 
Q 2666 3584 2933 3390 
Q 3200 3197 3328 2828 
z
" id="DejaVuSans-6d" transform="scale(0.015625)"/>
       <path d="M 3597 1894 
L 3597 1613 
L 953 1613 
Q 991 1019 1311 708 
Q 1631 397 2203 397 
Q 2534 397 2845 478 
Q 3156 559 3463 722 
L 3463 178 
Q 3153 47 2828 -22 
Q 2503 -91 2169 -91 
Q 1331 -91 842 396 
Q 353 884 353 1716 
Q 353 2575 817 3079 
Q 1281 3584 2069 3584 
Q 2775 3584 3186 3129 
Q 3597 2675 3597 1894 
z
M 3022 2063 
Q 3016 2534 2758 2815 
Q 2500 3097 2075 3097 
Q 1594 3097 1305 2825 
Q 1016 2553 972 2059 
L 3022 2063 
z
" id="DejaVuSans-65" transform="scale(0.015625)"/>
      </defs>
      <use xlink:href="#DejaVuSans-66"/>
      <use x="35.205078" xlink:href="#DejaVuSans-72"/>
      <use x="76.318359" xlink:href="#DejaVuSans-61"/>
      <use x="137.597656" xlink:href="#DejaVuSans-6d"/>
      <use x="235.009766" xlink:href="#DejaVuSans-65"/>
     </g>
    </g>
   </g>
   <g id="matplotlib.axis_2">
    <g id="ytick_1">
     <g id="line2d_8">
      <defs>
       <path d="M 0 0 
L -3.5 0 
" id="m1fdd73eaf9" style="stroke:#000000;stroke-width:0.8;"/>
      </defs>
      <g>
       <use style="stroke:#000000;stroke-width:0.8;" x="43.78125" xlink:href="#m1fdd73eaf9" y="561.202423"/>
      </g>
     </g>
     <g id="text_9">
      <!-- 0.0 -->
      <g transform="translate(20.878125 565.001641)scale(0.1 -0.1)">
       <defs>
        <path d="M 684 794 
L 1344 794 
L 1344 0 
L 684 0 
L 684 794 
z
" id="DejaVuSans-2e" transform="scale(0.015625)"/>
       </defs>
       <use xlink:href="#DejaVuSans-30"/>
       <use x="63.623047" xlink:href="#DejaVuSans-2e"/>
       <use x="95.410156" xlink:href="#DejaVuSans-30"/>
      </g>
     </g>
    </g>
    <g id="ytick_2">
     <g id="line2d_9">
      <g>
       <use style="stroke:#000000;stroke-width:0.8;" x="43.78125" xlink:href="#m1fdd73eaf9" y="461.399382"/>
      </g>
     </g>
     <g id="text_10">
      <!-- 0.5 -->
      <g transform="translate(20.878125 465.1986)scale(0.1 -0.1)">
       <defs>
        <path d="M 691 4666 
L 3169 4666 
L 3169 4134 
L 1269 4134 
L 1269 2991 
Q 1406 3038 1543 3061 
Q 1681 3084 1819 3084 
Q 2600 3084 3056 2656 
Q 3513 2228 3513 1497 
Q 3513 744 3044 326 
Q 2575 -91 1722 -91 
Q 1428 -91 1123 -41 
Q 819 9 494 109 
L 494 744 
Q 775 591 1075 516 
Q 1375 441 1709 441 
Q 2250 441 2565 725 
Q 2881 1009 2881 1497 
Q 2881 1984 2565 2268 
Q 2250 2553 1709 2553 
Q 1456 2553 1204 2497 
Q 953 2441 691 2322 
L 691 4666 
z
" id="DejaVuSans-35" transform="scale(0.015625)"/>
       </defs>
       <use xlink:href="#DejaVuSans-30"/>
       <use x="63.623047" xlink:href="#DejaVuSans-2e"/>
       <use x="95.410156" xlink:href="#DejaVuSans-35"/>
      </g>
     </g>
    </g>
    <g id="ytick_3">
     <g id="line2d_10">
      <g>
       <use style="stroke:#000000;stroke-width:0.8;" x="43.78125" xlink:href="#m1fdd73eaf9" y="361.596341"/>
      </g>
     </g>
     <g id="text_11">
      <!-- 1.0 -->
      <g transform="translate(20.878125 365.395559)scale(0.1 -0.1)">
       <use xlink:href="#DejaVuSans-31"/>
       <use x="63.623047" xlink:href="#DejaVuSans-2e"/>
       <use x="95.410156" xlink:href="#DejaVuSans-30"/>
      </g>
     </g>
    </g>
    <g id="ytick_4">
     <g id="line2d_11">
      <g>
       <use style="stroke:#000000;stroke-width:0.8;" x="43.78125" xlink:href="#m1fdd73eaf9" y="261.7933"/>
      </g>
     </g>
     <g id="text_12">
      <!-- 1.5 -->
      <g transform="translate(20.878125 265.592518)scale(0.1 -0.1)">
       <use xlink:href="#DejaVuSans-31"/>
       <use x="63.623047" xlink:href="#DejaVuSans-2e"/>
       <use x="95.410156" xlink:href="#DejaVuSans-35"/>
      </g>
     </g>
    </g>
    <g id="ytick_5">
     <g id="line2d_12">
      <g>
       <use style="stroke:#000000;stroke-width:0.8;" x="43.78125" xlink:href="#m1fdd73eaf9" y="161.990259"/>
      </g>
     </g>
     <g id="text_13">
      <!-- 2.0 -->
      <g transform="translate(20.878125 165.789477)scale(0.1 -0.1)">
       <use xlink:href="#DejaVuSans-32"/>
       <use x="63.623047" xlink:href="#DejaVuSans-2e"/>
       <use x="95.410156" xlink:href="#DejaVuSans-30"/>
      </g>
     </g>
    </g>
    <g id="ytick_6">
     <g id="line2d_13">
      <g>
       <use style="stroke:#000000;stroke-width:0.8;" x="43.78125" xlink:href="#m1fdd73eaf9" y="62.187218"/>
      </g>
     </g>
     <g id="text_14">
      <!-- 2.5 -->
      <g transform="translate(20.878125 65.986436)scale(0.1 -0.1)">
       <use xlink:href="#DejaVuSans-32"/>
       <use x="63.623047" xlink:href="#DejaVuSans-2e"/>
       <use x="95.410156" xlink:href="#DejaVuSans-35"/>
      </g>
     </g>
    </g>
    <g id="text_15">
     <!-- GCaMP -->
     <g transform="translate(14.798437 322.349446)rotate(-90)scale(0.1 -0.1)">
      <defs>
       <path d="M 3809 666 
L 3809 1919 
L 2778 1919 
L 2778 2438 
L 4434 2438 
L 4434 434 
Q 4069 175 3628 42 
Q 3188 -91 2688 -91 
Q 1594 -91 976 548 
Q 359 1188 359 2328 
Q 359 3472 976 4111 
Q 1594 4750 2688 4750 
Q 3144 4750 3555 4637 
Q 3966 4525 4313 4306 
L 4313 3634 
Q 3963 3931 3569 4081 
Q 3175 4231 2741 4231 
Q 1884 4231 1454 3753 
Q 1025 3275 1025 2328 
Q 1025 1384 1454 906 
Q 1884 428 2741 428 
Q 3075 428 3337 486 
Q 3600 544 3809 666 
z
" id="DejaVuSans-47" transform="scale(0.015625)"/>
       <path d="M 4122 4306 
L 4122 3641 
Q 3803 3938 3442 4084 
Q 3081 4231 2675 4231 
Q 1875 4231 1450 3742 
Q 1025 3253 1025 2328 
Q 1025 1406 1450 917 
Q 1875 428 2675 428 
Q 3081 428 3442 575 
Q 3803 722 4122 1019 
L 4122 359 
Q 3791 134 3420 21 
Q 3050 -91 2638 -91 
Q 1578 -91 968 557 
Q 359 1206 359 2328 
Q 359 3453 968 4101 
Q 1578 4750 2638 4750 
Q 3056 4750 3426 4639 
Q 3797 4528 4122 4306 
z
" id="DejaVuSans-43" transform="scale(0.015625)"/>
       <path d="M 628 4666 
L 1569 4666 
L 2759 1491 
L 3956 4666 
L 4897 4666 
L 4897 0 
L 4281 0 
L 4281 4097 
L 3078 897 
L 2444 897 
L 1241 4097 
L 1241 0 
L 628 0 
L 628 4666 
z
" id="DejaVuSans-4d" transform="scale(0.015625)"/>
       <path d="M 1259 4147 
L 1259 2394 
L 2053 2394 
Q 2494 2394 2734 2622 
Q 2975 2850 2975 3272 
Q 2975 3691 2734 3919 
Q 2494 4147 2053 4147 
L 1259 4147 
z
M 628 4666 
L 2053 4666 
Q 2838 4666 3239 4311 
Q 3641 3956 3641 3272 
Q 3641 2581 3239 2228 
Q 2838 1875 2053 1875 
L 1259 1875 
L 1259 0 
L 628 0 
L 628 4666 
z
" id="DejaVuSans-50" transform="scale(0.015625)"/>
      </defs>
      <use xlink:href="#DejaVuSans-47"/>
      <use x="77.490234" xlink:href="#DejaVuSans-43"/>
      <use x="147.314453" xlink:href="#DejaVuSans-61"/>
      <use x="208.59375" xlink:href="#DejaVuSans-4d"/>
      <use x="294.873047" xlink:href="#DejaVuSans-50"/>
     </g>
    </g>
   </g>
   <g id="line2d_14">
    <path clip-path="url(#pf7a580e0f1)" d="M 119.872159 361.606165 
L 121.110416 369.517172 
L 122.348674 375.464512 
L 123.586931 378.468448 
L 124.825188 378.971444 
L 126.063445 378.492485 
L 127.301703 378.433387 
L 128.53996 379.110929 
L 129.778217 380.025612 
L 131.016474 380.73818 
L 133.492989 381.696706 
L 134.731246 381.902564 
L 135.969504 381.494997 
L 137.207761 380.254429 
L 139.684275 376.732883 
L 140.922533 375.786385 
L 142.16079 375.973056 
L 143.399047 377.314072 
L 144.637304 379.139716 
L 145.875562 380.240683 
L 147.113819 379.865612 
L 149.590334 376.866637 
L 150.828591 376.365166 
L 152.066848 376.888957 
L 153.305105 377.748181 
L 154.543363 378.440104 
L 157.019877 379.576116 
L 158.258134 379.965337 
L 159.496392 379.620921 
L 160.734649 378.379167 
L 163.211163 374.984659 
L 164.449421 373.632103 
L 165.687678 373.019878 
L 166.925935 373.209754 
L 168.164193 373.560141 
L 169.40245 373.294665 
L 170.640707 372.43206 
L 171.878964 371.749943 
L 173.117222 371.876759 
L 175.593736 373.7773 
L 176.831993 374.103234 
L 178.070251 373.386618 
L 179.308508 372.334946 
L 180.546765 372.118432 
L 181.785022 373.103396 
L 183.02328 374.593502 
L 184.261537 375.700257 
L 185.499794 376.01753 
L 186.738052 375.378549 
L 187.976309 373.543882 
L 189.214566 370.613822 
L 190.452823 367.308361 
L 191.691081 364.365611 
L 192.929338 362.055962 
L 194.167595 360.568018 
L 195.405852 360.264676 
L 196.64411 361.251363 
L 197.882367 363.161079 
L 199.120624 365.650613 
L 200.358881 368.817045 
L 202.835396 376.536922 
L 204.073653 378.967719 
L 205.311911 378.932679 
L 206.550168 376.325575 
L 207.788425 371.919051 
L 210.26494 362.242364 
L 211.503197 358.804563 
L 212.741454 356.937694 
L 213.979711 356.7377 
L 215.217969 358.109302 
L 217.694483 362.93885 
L 218.93274 364.191243 
L 220.170998 364.048688 
L 221.409255 363.18753 
L 222.647512 362.549807 
L 223.88577 362.666115 
L 225.124027 363.478237 
L 226.362284 364.527784 
L 227.600541 365.282986 
L 228.838799 365.31612 
L 230.077056 364.104752 
L 231.315313 361.334882 
L 232.55357 357.765578 
L 233.791828 354.855474 
L 235.030085 353.535569 
L 236.268342 353.809272 
L 238.744857 355.982931 
L 239.983114 356.092247 
L 241.221371 355.020753 
L 243.697886 351.598572 
L 244.936143 350.821962 
L 246.1744 350.99292 
L 247.412658 351.411834 
L 248.650915 351.083247 
L 249.889172 349.631377 
L 251.127429 347.641576 
L 252.365687 346.114024 
L 253.603944 345.697997 
L 254.842201 346.407664 
L 258.556973 350.535678 
L 263.510002 353.49201 
L 264.748259 353.398386 
L 265.986517 352.471392 
L 267.224774 350.966452 
L 270.939546 345.358141 
L 272.177803 343.891089 
L 274.654318 340.531612 
L 275.892575 339.819341 
L 277.130832 340.567103 
L 278.369089 342.558434 
L 279.607347 345.106522 
L 280.845604 347.367332 
L 282.083861 348.62618 
L 283.322118 348.459469 
L 284.560376 346.950397 
L 285.798633 344.832043 
L 287.03689 343.058736 
L 288.275147 342.357442 
L 289.513405 343.17542 
L 290.751662 345.475152 
L 294.466434 355.285499 
L 295.704691 357.194625 
L 296.942948 357.696557 
L 298.181206 356.999859 
L 299.419463 355.502384 
L 300.65772 353.741623 
L 301.895977 352.233616 
L 303.134235 351.158976 
L 306.849006 348.733389 
L 308.087264 346.806137 
L 309.325521 343.228438 
L 310.563778 338.056334 
L 313.040293 326.619637 
L 314.27855 321.897116 
L 315.516807 318.254637 
L 316.755065 316.0578 
L 317.993322 315.438121 
L 319.231579 315.592667 
L 320.469836 315.107798 
L 321.708094 313.356654 
L 322.946351 311.061738 
L 324.184608 309.135867 
L 325.422866 307.571159 
L 326.661123 305.726293 
L 327.89938 303.009028 
L 330.375895 295.496346 
L 331.614152 293.300265 
L 332.852409 294.085398 
L 334.090666 297.613828 
L 335.328924 302.147069 
L 336.567181 305.891239 
L 337.805438 307.890558 
L 339.043695 307.846105 
L 340.281953 306.044739 
L 342.758467 300.532697 
L 343.996725 298.271223 
L 346.473239 294.66084 
L 347.711496 292.992016 
L 348.949754 291.896072 
L 350.188011 292.161624 
L 351.426268 294.182163 
L 352.664525 297.224689 
L 353.902783 299.903551 
L 355.14104 301.285793 
L 356.379297 301.314398 
L 357.617554 300.482727 
L 360.094069 298.05461 
L 361.332326 297.124054 
L 363.808841 296.154041 
L 365.047098 294.835176 
L 366.285355 292.322376 
L 367.523613 289.240576 
L 368.76187 287.097413 
L 370.000127 287.293905 
L 371.238384 289.946016 
L 372.476642 293.698876 
L 373.714899 296.689347 
L 374.953156 297.822951 
L 376.191413 297.067279 
L 377.429671 294.724406 
L 378.667928 291.198971 
L 379.906185 287.333606 
L 381.144443 284.295492 
L 382.3827 283.241742 
L 383.620957 284.735798 
L 386.097472 290.76215 
L 387.335729 292.005429 
L 388.573986 292.025823 
L 389.812243 292.522618 
L 391.050501 295.080151 
L 392.288758 299.733884 
L 393.527015 304.960784 
L 394.765272 309.03741 
L 396.00353 310.863118 
L 397.241787 309.989671 
L 398.480044 306.758802 
L 399.718302 302.102053 
L 400.956559 296.70955 
L 403.433073 284.714093 
L 404.671331 279.841489 
L 405.909588 277.270575 
L 407.147845 277.181679 
L 408.386102 278.922453 
L 410.862617 284.012822 
L 412.100874 285.719221 
L 413.339132 286.541106 
L 414.577389 287.119194 
L 415.815646 288.168551 
L 417.053903 289.407876 
L 418.292161 289.360872 
L 419.530418 286.232439 
L 420.768675 279.197524 
L 423.24519 259.612197 
L 424.483447 252.68729 
L 425.721704 250.26447 
L 426.959961 252.28752 
L 428.198219 257.279227 
L 429.436476 263.081365 
L 430.674733 267.44316 
L 431.912991 268.566618 
L 433.151248 266.045924 
L 434.389505 261.440502 
L 435.627762 257.284507 
L 436.86602 255.098179 
L 438.104277 254.721365 
L 439.342534 255.333344 
L 440.580791 256.233103 
L 441.819049 256.863915 
L 443.057306 256.734718 
L 444.295563 255.610693 
L 445.53382 253.994441 
L 446.772078 253.022648 
L 448.010335 253.221945 
L 449.248592 253.620594 
L 450.48685 252.873111 
L 451.725107 251.19488 
L 452.963364 250.231125 
L 454.201621 250.914575 
L 455.439879 252.688423 
L 459.15465 259.135503 
L 460.392908 260.764274 
L 461.631165 261.862362 
L 462.869422 262.239802 
L 464.107679 261.651602 
L 466.584194 259.532981 
L 467.822451 258.659313 
L 469.060709 257.449516 
L 474.013738 250.780533 
L 475.251995 249.331288 
L 476.490252 248.297997 
L 477.728509 248.349882 
L 478.966767 249.668752 
L 480.205024 251.57528 
L 481.443281 253.025407 
L 482.681538 253.20747 
L 483.919796 251.735268 
L 486.39631 245.846832 
L 487.634568 244.439708 
L 488.872825 245.171749 
L 490.111082 246.642848 
L 491.349339 247.086373 
L 493.825854 245.462342 
L 495.064111 246.069539 
L 496.302368 248.440068 
L 498.778883 255.51302 
L 500.01714 258.138531 
L 501.255397 258.851728 
L 502.493655 257.299744 
L 503.731912 254.476095 
L 504.970169 252.354061 
L 506.208427 252.074628 
L 507.446684 253.128213 
L 508.684941 254.463833 
L 509.923198 255.30366 
L 511.161456 255.065604 
L 512.399713 253.390274 
L 513.63797 250.11027 
L 514.876227 245.268635 
L 517.352742 233.852718 
L 518.590999 229.308733 
L 519.829257 225.963451 
L 522.305771 220.522676 
L 523.544028 218.107438 
L 524.782286 216.611431 
L 526.020543 216.262943 
L 527.2588 217.018159 
L 528.497057 219.110499 
L 529.735315 222.568796 
L 530.973572 226.509147 
L 532.211829 229.7053 
L 533.450086 231.585075 
L 534.688344 232.057914 
L 535.926601 231.016502 
L 537.164858 228.650392 
L 538.403116 225.283951 
L 539.641373 220.58425 
L 540.87963 214.210611 
L 543.356145 200.311304 
L 544.594402 195.268449 
L 545.832659 192.04659 
L 547.070916 189.665694 
L 548.309174 186.640265 
L 552.023945 174.770994 
L 553.262203 169.495912 
L 554.50046 161.648611 
L 555.738717 152.425611 
L 556.976975 145.03064 
L 558.215232 142.476278 
L 559.453489 145.598653 
L 561.930004 158.650165 
L 563.168261 162.219239 
L 564.406518 162.380487 
L 565.644775 159.509605 
L 566.883033 154.952006 
L 568.12129 151.213241 
L 569.359547 150.757346 
L 570.597804 154.526079 
L 573.074319 167.860734 
L 574.312576 172.014018 
L 575.550834 173.176818 
L 576.789091 172.34111 
L 579.265605 168.968495 
L 580.503863 168.408092 
L 581.74212 170.13158 
L 582.980377 174.76641 
L 585.456892 187.767073 
L 586.695149 190.974486 
L 587.933406 190.196807 
L 589.171663 186.574008 
L 590.409921 182.074407 
L 591.648178 178.404378 
L 592.886435 176.624209 
L 594.124693 177.252887 
L 595.36295 180.172822 
L 596.601207 184.302468 
L 597.839464 187.862426 
L 599.077722 189.500999 
L 600.315979 189.344403 
L 604.030751 186.721494 
L 605.269008 185.839229 
L 606.507265 185.351955 
L 607.745523 185.648092 
L 608.98378 186.832826 
L 610.222037 188.804066 
L 611.460294 191.122105 
L 612.698552 192.337776 
L 613.936809 190.347757 
L 615.175066 184.313605 
L 617.651581 167.576305 
L 618.889838 161.24146 
L 620.128095 157.209907 
L 621.366352 155.467433 
L 622.60461 156.169692 
L 623.842867 159.21913 
L 625.081124 163.95213 
L 627.557639 175.247301 
L 628.795896 179.492155 
L 630.034153 181.698903 
L 631.272411 182.211509 
L 632.510668 181.36221 
L 633.748925 179.322302 
L 634.987182 176.071972 
L 636.22544 170.995335 
L 637.463697 163.691081 
L 639.940211 146.615897 
L 641.178469 140.238538 
L 642.416726 137.355712 
L 643.654983 138.568741 
L 644.893241 142.956404 
L 648.608012 161.240784 
L 649.84627 165.461165 
L 651.084527 167.672415 
L 652.322784 168.143664 
L 654.799299 167.132746 
L 657.275813 167.333054 
L 658.51407 166.053784 
L 659.752328 162.989116 
L 663.4671 150.949771 
L 664.705357 148.468124 
L 665.943614 148.41443 
L 667.181871 150.640429 
L 669.658386 157.795237 
L 670.896643 160.834854 
L 673.373158 166.367243 
L 674.611415 168.40176 
L 675.849672 168.350044 
L 677.087929 165.941965 
L 678.326187 162.375171 
L 679.564444 159.610272 
L 680.802701 159.501407 
L 682.040959 162.722688 
L 683.279216 168.527054 
L 684.517473 175.533378 
L 685.75573 181.766417 
L 686.993988 185.051082 
L 688.232245 184.677834 
L 689.470502 181.691512 
L 691.947017 173.599032 
L 693.185274 170.861747 
L 694.423531 169.949291 
L 695.661789 170.731604 
L 698.138303 174.390799 
L 700.614818 177.508934 
L 701.853075 180.106358 
L 703.091332 183.552837 
L 704.329589 186.520206 
L 705.567847 187.027038 
L 706.806104 183.137835 
L 708.044361 173.787341 
L 709.282618 159.525722 
L 711.759133 126.230414 
L 712.99739 113.914618 
L 714.235648 107.647486 
L 715.473905 107.224373 
L 716.712162 111.291517 
L 717.950419 118.460799 
L 720.426934 135.523503 
L 721.665191 142.283292 
L 722.903448 146.802837 
L 724.141706 148.965714 
L 725.379963 148.74682 
L 726.61822 146.282417 
L 727.856477 142.611483 
L 729.094735 140.032214 
L 730.332992 141.208649 
L 731.571249 147.575472 
L 732.809507 158.22705 
L 734.047764 170.290045 
L 735.286021 180.795686 
L 736.524278 188.341444 
L 737.762536 193.097966 
L 739.000793 195.893283 
L 740.23905 197.359135 
L 741.477307 197.463588 
L 742.715565 196.05535 
L 743.953822 193.601656 
L 745.192079 190.543106 
L 746.430336 186.788007 
L 747.668594 182.675483 
L 748.906851 179.270971 
L 750.145108 177.390583 
L 751.383366 176.905184 
L 752.621623 176.551747 
L 753.85988 174.569691 
L 755.098137 170.195508 
L 758.812909 151.999751 
L 760.051166 148.730776 
L 761.289424 147.579581 
L 762.527681 145.862711 
L 763.765938 140.525957 
L 765.004195 131.224947 
L 766.242453 120.499495 
L 767.48071 111.843601 
L 768.718967 108.232067 
L 769.957225 111.265948 
L 771.195482 120.216186 
L 772.433739 131.734639 
L 773.671996 141.470664 
L 774.910254 146.864868 
L 776.148511 148.459786 
L 777.386768 148.216043 
L 778.625025 147.375866 
L 779.863283 146.153425 
L 781.10154 144.069271 
L 782.339797 140.516341 
L 784.816312 131.152923 
L 786.054569 127.650419 
L 787.292826 125.856226 
L 788.531084 126.062959 
L 789.769341 127.856795 
L 791.007598 129.956097 
L 792.245855 130.719588 
L 793.484113 128.871149 
L 794.72237 124.181827 
L 797.198884 110.168775 
L 798.437142 104.832199 
L 799.675399 103.848984 
L 800.913656 108.195843 
L 802.151914 116.563747 
L 803.390171 125.873511 
L 804.628428 133.199464 
L 805.866685 137.197124 
L 807.104943 137.892987 
L 808.3432 136.196032 
L 810.819714 131.127274 
L 812.057972 129.237825 
L 815.772743 124.436624 
L 817.011001 121.752748 
L 819.487515 114.870605 
L 820.725773 112.391922 
L 821.96403 111.718859 
L 823.202287 113.92628 
L 824.440544 119.862381 
L 825.678802 129.199004 
L 828.155316 150.40496 
L 829.393573 159.324644 
L 830.631831 166.598089 
L 831.870088 171.591178 
L 833.108345 173.000408 
L 834.346602 170.353651 
L 835.58486 165.676698 
L 836.823117 162.444354 
L 838.061374 162.366814 
L 839.299632 164.147584 
L 840.537889 165.726917 
L 841.776146 166.397056 
L 843.014403 166.513756 
L 844.252661 166.314752 
L 845.490918 165.32058 
L 846.729175 162.989103 
L 847.967432 159.832606 
L 849.20569 157.055028 
L 850.443947 155.252189 
L 851.682204 154.310181 
L 852.920461 154.073417 
L 854.158719 154.222428 
L 855.396976 153.653781 
L 856.635233 150.660383 
L 857.873491 144.468832 
L 859.111748 136.574702 
L 860.350005 129.915866 
L 861.588262 126.696501 
L 862.82652 127.153608 
L 864.064777 130.197822 
L 865.303034 134.895194 
L 866.541291 140.557061 
L 867.779549 145.178595 
L 869.017806 145.379173 
L 870.256063 139.541309 
L 871.49432 130.653961 
L 872.732578 124.079882 
L 873.970835 122.181253 
L 876.44735 123.881643 
L 877.685607 124.07939 
L 878.923864 124.902318 
L 880.162121 127.727844 
L 881.400379 132.360172 
L 882.638636 137.445916 
L 883.876893 141.603289 
L 885.11515 143.528342 
L 886.353408 142.233346 
L 887.591665 137.82546 
L 890.06818 125.170381 
L 891.306437 117.688022 
L 892.544694 107.400237 
L 893.782951 94.940182 
L 895.021209 84.546045 
L 896.259466 80.479297 
L 897.497723 84.063381 
L 898.73598 94.063047 
L 901.212495 121.060815 
L 902.450752 132.614302 
L 903.689009 141.473616 
L 904.927267 147.273 
L 906.165524 149.950418 
L 907.403781 150.122063 
L 909.880296 147.974178 
L 912.35681 146.89723 
L 913.595068 145.402665 
L 914.833325 142.647562 
L 917.309839 136.135567 
L 919.786354 130.22859 
L 921.024611 127.913522 
L 922.262868 126.385695 
L 923.501126 125.5695 
L 924.739383 124.466045 
L 925.97764 121.587777 
L 927.215898 116.580784 
L 928.454155 110.862988 
L 929.692412 106.512145 
L 930.930669 104.268561 
L 934.645441 100.229052 
L 935.883698 98.862199 
L 937.121956 96.970216 
L 938.360213 93.953538 
L 939.59847 89.504832 
L 940.836727 84.616195 
L 942.074985 81.503097 
L 943.313242 81.814504 
L 944.551499 86.16592 
L 945.789757 94.699386 
L 948.266271 118.072357 
L 949.504528 127.608869 
L 950.742786 133.667384 
L 951.981043 136.525162 
L 953.2193 137.084853 
L 954.457557 136.099693 
L 956.934072 132.043436 
L 958.172329 130.523478 
L 959.410586 129.821088 
L 960.648844 129.747872 
L 961.887101 130.187552 
L 964.363616 131.45986 
L 965.601873 132.331774 
L 968.078387 135.487769 
L 969.316645 135.249476 
L 970.554902 132.446248 
L 973.031416 123.598354 
L 974.269674 121.153601 
L 975.507931 121.516214 
L 976.746188 123.77581 
L 980.46096 132.568141 
L 981.699217 134.812342 
L 982.937475 136.825867 
L 984.175732 138.558895 
L 985.413989 139.916929 
L 986.652246 141.681814 
L 987.890504 144.532691 
L 989.128761 147.993759 
L 990.367018 150.966048 
L 991.605275 152.610026 
L 992.843533 152.745795 
L 994.08179 151.635529 
L 995.320047 149.445388 
L 997.796562 143.192927 
L 999.034819 142.017582 
L 1000.273076 143.909352 
L 1001.511334 147.969979 
L 1003.987848 157.704677 
L 1006.464363 167.699452 
L 1007.70262 171.196433 
L 1008.940877 172.826196 
L 1010.179134 172.094846 
L 1011.417392 169.129963 
L 1013.893906 161.291266 
L 1015.132164 157.855035 
L 1016.370421 153.887201 
L 1018.846935 144.64425 
L 1020.085193 141.94159 
L 1021.32345 141.270363 
L 1022.561707 142.356627 
L 1023.799964 144.36443 
L 1025.038222 145.728707 
L 1026.276479 145.224685 
L 1028.752993 141.16406 
L 1029.991251 141.079991 
L 1031.229508 143.711506 
L 1033.706023 152.639628 
L 1034.94428 155.506214 
L 1036.182537 156.734187 
L 1037.420794 157.040868 
L 1041.135566 157.002221 
L 1042.373823 155.551146 
L 1043.612081 151.901833 
L 1044.850338 146.78052 
L 1046.088595 142.156711 
L 1047.326852 139.513128 
L 1048.56511 139.099166 
L 1049.803367 140.421351 
L 1052.279882 144.485499 
L 1053.518139 145.918624 
L 1054.756396 146.096231 
L 1055.994653 144.514722 
L 1057.232911 142.101211 
L 1058.471168 140.98251 
L 1059.709425 142.819956 
L 1062.18594 151.931349 
L 1063.424197 154.828513 
L 1064.662454 154.875058 
L 1065.900711 152.029906 
L 1069.615483 137.793513 
L 1070.853741 134.576458 
L 1072.091998 133.045355 
L 1073.330255 133.723878 
L 1075.80677 138.409501 
L 1077.045027 139.32973 
L 1078.283284 139.305382 
L 1079.521541 139.677099 
L 1080.759799 140.981295 
L 1081.998056 143.252435 
L 1083.236313 147.122772 
L 1084.474571 153.270447 
L 1086.951085 168.649408 
L 1088.189342 173.61236 
L 1089.4276 174.671971 
L 1090.665857 171.601051 
L 1091.904114 165.300019 
L 1093.142371 158.212431 
L 1094.380629 153.417264 
L 1095.618886 152.408134 
L 1096.857143 154.370152 
L 1099.333658 160.643978 
L 1100.571915 162.971259 
L 1101.810172 164.186357 
L 1103.04843 163.863277 
L 1104.286687 161.563941 
L 1105.524944 157.337476 
L 1108.001459 146.50139 
L 1109.239716 142.723952 
L 1110.477973 141.995194 
L 1111.71623 144.730363 
L 1112.954488 150.139113 
L 1115.431002 164.13454 
L 1116.669259 170.003071 
L 1117.907517 172.808263 
L 1119.145774 172.22577 
L 1120.384031 169.506009 
L 1122.860546 162.486545 
L 1124.098803 159.505525 
L 1125.33706 157.158385 
L 1126.575318 155.574541 
L 1127.813575 154.977617 
L 1129.051832 155.38021 
L 1131.528347 157.514412 
L 1132.766604 158.080517 
L 1134.004861 158.133258 
L 1136.481376 157.734624 
L 1138.95789 156.967076 
L 1140.196148 157.209411 
L 1141.434405 158.218538 
L 1142.672662 160.310045 
L 1143.910919 163.828933 
L 1145.149177 168.180675 
L 1146.387434 171.955253 
L 1147.625691 174.185348 
L 1148.863948 174.540598 
L 1150.102206 172.791433 
L 1152.57872 166.51708 
L 1153.816977 165.207697 
L 1155.055235 165.292975 
L 1156.293492 165.057067 
L 1157.531749 163.147994 
L 1158.770007 160.89566 
L 1160.008264 161.767696 
L 1161.246521 167.082885 
L 1162.484778 174.222652 
L 1163.723036 179.620027 
L 1164.961293 181.058457 
L 1166.19955 177.934293 
L 1168.676065 165.534262 
L 1169.914322 162.090246 
L 1171.152579 162.436206 
L 1172.390837 165.822546 
L 1173.629094 170.031423 
L 1174.867351 172.492997 
L 1176.105608 171.912387 
L 1178.582123 166.340059 
L 1179.82038 164.660528 
L 1181.058637 163.438673 
L 1182.296895 161.655251 
L 1184.773409 156.3599 
L 1186.011666 155.143479 
L 1187.249924 156.33143 
L 1188.488181 159.519862 
L 1189.726438 163.547022 
L 1190.964696 166.698487 
L 1192.202953 167.459825 
L 1193.44121 166.134138 
L 1194.679467 164.576641 
L 1195.917725 164.222714 
L 1197.155982 165.170623 
L 1198.394239 166.860978 
L 1199.632496 169.117626 
L 1200.870754 172.398699 
L 1202.109011 176.739032 
L 1203.347268 180.614281 
L 1204.585525 181.835558 
L 1205.823783 179.658201 
L 1207.06204 175.509402 
L 1208.300297 171.827083 
L 1209.538555 170.113099 
L 1210.776812 169.968382 
L 1212.015069 170.122516 
L 1214.491584 169.97666 
L 1215.729841 170.489867 
L 1216.968098 171.652854 
L 1219.444613 174.810275 
L 1220.68287 176.910761 
L 1221.921127 180.554327 
L 1223.159384 186.742882 
L 1224.397642 194.488891 
L 1225.635899 200.182423 
L 1226.874156 200.297974 
L 1228.112414 194.191641 
L 1229.350671 183.655454 
L 1230.588928 171.726949 
L 1231.827185 162.431745 
L 1233.065443 159.122251 
L 1234.3037 162.162185 
L 1235.541957 169.168549 
L 1238.018472 184.844277 
L 1239.256729 190.818073 
L 1240.494986 194.586608 
L 1241.733243 195.482387 
L 1242.971501 193.291528 
L 1244.209758 188.914912 
L 1245.448015 184.062564 
L 1246.686273 180.069295 
L 1247.92453 177.363566 
L 1249.162787 176.168215 
L 1250.401044 176.825976 
L 1251.639302 179.174055 
L 1254.115816 186.189508 
L 1255.354073 188.554441 
L 1256.592331 187.681284 
L 1257.830588 183.163911 
L 1259.068845 177.113505 
L 1260.307103 172.44898 
L 1261.54536 170.642472 
L 1262.783617 170.784715 
L 1264.021874 169.981994 
L 1265.260132 165.412224 
L 1266.498389 156.908703 
L 1268.974903 137.506838 
L 1270.213161 130.975377 
L 1271.451418 128.717011 
L 1272.689675 132.005207 
L 1273.927932 141.105349 
L 1277.642704 181.081766 
L 1278.880962 188.829834 
L 1280.119219 191.148825 
L 1281.357476 189.016704 
L 1283.833991 180.067498 
L 1286.310505 172.846398 
L 1287.548762 168.341135 
L 1288.78702 162.471165 
L 1291.263534 148.968517 
L 1292.501791 144.762112 
L 1293.740049 143.700055 
L 1294.978306 145.382296 
L 1296.216563 148.939882 
L 1297.454821 153.037408 
L 1298.693078 156.237562 
L 1299.931335 157.62452 
L 1301.169592 156.819278 
L 1302.40785 153.822748 
L 1303.646107 149.652072 
L 1304.884364 146.608075 
L 1306.122621 146.311654 
L 1307.360879 147.809946 
L 1308.599136 149.105111 
L 1309.837393 149.620725 
L 1311.07565 149.721392 
L 1313.552165 149.237084 
L 1314.790422 149.529281 
L 1318.505194 151.778658 
L 1319.743451 153.172033 
L 1323.458223 159.49917 
L 1324.69648 161.302281 
L 1325.934738 162.756316 
L 1327.172995 162.766768 
L 1328.411252 159.724073 
L 1329.649509 153.321853 
L 1330.887767 145.659496 
L 1332.126024 139.575901 
L 1333.364281 136.656016 
L 1334.602539 137.305828 
L 1335.840796 141.114607 
L 1339.555568 158.173456 
L 1340.793825 161.614007 
L 1342.032082 162.84744 
L 1343.270339 161.690743 
L 1344.508597 158.305537 
L 1345.746854 153.772629 
L 1346.985111 149.863583 
L 1348.223368 147.77841 
L 1349.461626 147.478018 
L 1350.699883 148.13639 
L 1351.93814 148.392819 
L 1353.176398 146.473051 
L 1354.414655 141.344643 
L 1355.652912 134.197266 
L 1356.891169 128.402616 
L 1358.129427 126.974369 
L 1359.367684 129.863102 
L 1360.605941 134.398002 
L 1361.844198 137.7392 
L 1363.082456 138.959023 
L 1364.320713 139.671181 
L 1365.55897 141.955228 
L 1366.797228 145.650477 
L 1368.035485 148.830157 
L 1369.273742 150.251425 
L 1370.511999 150.452051 
L 1371.750257 151.269427 
L 1372.988514 154.380457 
L 1374.226771 159.333581 
L 1375.465028 163.473926 
L 1376.703286 164.790334 
L 1377.941543 163.687221 
L 1379.1798 161.317016 
L 1380.418057 158.160214 
L 1382.894572 151.298296 
L 1384.132829 149.220777 
L 1385.371087 149.209497 
L 1386.609344 151.646885 
L 1387.847601 155.834553 
L 1389.085858 159.218293 
L 1390.324116 158.590775 
L 1391.562373 153.43588 
L 1392.80063 146.596399 
L 1394.038887 141.385689 
L 1395.277145 139.728889 
L 1396.515402 141.86502 
L 1397.753659 146.006495 
L 1398.991916 149.229161 
L 1400.230174 149.815893 
L 1401.468431 148.81936 
L 1402.706688 148.685891 
L 1403.944946 149.884232 
L 1405.183203 150.05727 
L 1406.42146 147.185469 
L 1407.659717 142.185097 
L 1408.897975 138.145714 
L 1410.136232 138.119993 
L 1411.374489 142.813693 
L 1412.612746 149.458633 
L 1413.851004 153.965611 
L 1415.089261 154.870139 
L 1416.327518 154.537924 
L 1417.565775 155.906009 
L 1418.804033 158.791215 
L 1420.04229 160.74925 
L 1421.280547 160.621567 
L 1422.518805 159.512755 
L 1424.995319 158.00139 
L 1426.233576 155.604158 
L 1428.710091 147.535611 
L 1431.186605 141.948727 
L 1432.424863 138.358108 
L 1433.66312 136.163239 
L 1434.901377 137.458042 
L 1436.139634 142.097055 
L 1437.377892 148.124419 
L 1438.616149 152.66094 
L 1439.854406 153.305661 
L 1441.092664 149.916582 
L 1442.330921 145.249185 
L 1443.569178 143.348596 
L 1444.807435 146.114633 
L 1446.045693 151.441711 
L 1447.28395 155.342093 
L 1448.522207 155.397944 
L 1449.760464 152.306599 
L 1450.998722 148.878875 
L 1452.236979 147.772699 
L 1453.475236 150.037126 
L 1455.951751 158.957344 
L 1457.190008 161.231092 
L 1458.428265 161.104866 
L 1459.666523 159.006696 
L 1462.143037 152.348533 
L 1463.381294 150.152725 
L 1464.619552 149.698986 
L 1465.857809 150.872982 
L 1467.096066 152.726114 
L 1468.334323 153.352114 
L 1469.572581 150.828396 
L 1470.810838 144.595283 
L 1472.049095 136.390488 
L 1473.287353 130.217326 
L 1474.52561 129.728659 
L 1475.763867 134.708234 
L 1477.002124 141.578575 
L 1478.240382 147.324833 
L 1479.478639 151.856376 
L 1480.716896 157.288957 
L 1481.955153 165.492163 
L 1484.431668 185.857087 
L 1485.669925 190.92596 
L 1486.908182 187.089533 
L 1488.14644 171.657909 
L 1489.384697 144.96557 
L 1491.861212 80.612843 
L 1493.099469 58.259735 
L 1494.337726 47.979282 
L 1495.575983 50.07028 
L 1496.814241 63.094961 
L 1498.052498 83.710348 
L 1499.290755 106.670534 
L 1500.529012 125.907108 
L 1501.76727 137.004231 
L 1503.005527 139.457757 
L 1504.243784 136.982011 
L 1505.482041 135.540092 
L 1506.720299 138.975947 
L 1509.196813 152.592685 
L 1510.435071 155.606346 
L 1511.673328 154.251005 
L 1515.3881 141.626461 
L 1516.626357 136.158324 
L 1517.864614 127.822987 
L 1521.579386 94.294348 
L 1522.817643 87.057837 
L 1524.0559 84.502102 
L 1525.294158 87.510645 
L 1526.532415 96.128531 
L 1527.770672 107.839884 
L 1529.00893 118.194642 
L 1530.247187 124.127866 
L 1531.485444 126.158151 
L 1532.723701 127.464947 
L 1533.961959 130.723732 
L 1535.200216 136.237161 
L 1537.67673 149.711758 
L 1538.914988 155.133653 
L 1540.153245 158.098292 
L 1541.391502 157.874193 
L 1542.62976 153.987967 
L 1543.868017 146.486985 
L 1545.106274 137.150426 
L 1546.344531 129.99524 
L 1547.582789 128.580281 
L 1548.821046 132.690092 
L 1550.059303 139.132884 
L 1551.29756 144.649581 
L 1552.535818 147.369111 
L 1553.774075 147.433468 
L 1555.012332 146.495848 
L 1556.250589 146.199565 
L 1557.488847 147.518764 
L 1558.727104 149.863481 
L 1559.965361 150.290964 
L 1561.203619 146.467868 
L 1562.441876 140.440879 
L 1563.680133 136.603647 
L 1564.91839 136.969839 
L 1566.156648 140.840993 
L 1567.394905 146.977659 
L 1571.109677 168.933001 
L 1572.347934 174.719083 
L 1573.586191 178.127361 
L 1574.824448 177.932703 
L 1576.062706 172.47037 
L 1577.300963 160.827235 
L 1579.777478 127.098404 
L 1581.015735 114.399799 
L 1582.253992 110.005044 
L 1583.492249 115.108899 
L 1585.968764 137.587184 
L 1587.207021 140.672545 
L 1588.445278 134.433378 
L 1589.683536 123.673484 
L 1590.921793 115.16154 
L 1592.16005 112.277022 
L 1593.398307 114.293474 
L 1594.636565 118.455442 
L 1595.874822 121.577153 
L 1597.113079 121.945474 
L 1598.351337 120.487525 
L 1599.589594 119.5302 
L 1600.827851 120.948989 
L 1602.066108 125.453765 
L 1603.304366 131.977703 
L 1604.542623 137.056272 
L 1605.78088 136.410515 
L 1607.019137 128.191985 
L 1608.257395 114.250389 
L 1610.733909 83.133416 
L 1611.972166 71.593844 
L 1613.210424 65.093367 
L 1614.448681 561.202423 
L 1615.686938 67.205316 
L 1616.925196 74.397096 
L 1618.163453 84.472189 
L 1620.639967 107.063873 
L 1623.116482 127.502586 
L 1624.354739 136.484025 
L 1625.592996 142.441824 
L 1626.831254 145.13899 
L 1628.069511 145.993951 
L 1629.307768 145.936351 
L 1630.546026 145.049947 
L 1631.784283 143.747935 
L 1633.02254 142.964419 
L 1634.260797 142.859344 
L 1635.499055 142.466592 
L 1636.737312 141.63764 
L 1637.975569 142.269241 
L 1639.213826 146.279933 
L 1640.452084 153.389139 
L 1641.690341 161.934865 
L 1641.690341 161.934865 
" style="fill:none;stroke:#008000;stroke-linecap:square;stroke-width:1.5;"/>
   </g>
   <g id="patch_3">
    <path d="M 43.78125 586.86358 
L 43.78125 22.318125 
" style="fill:none;stroke:#000000;stroke-linecap:square;stroke-linejoin:miter;stroke-width:0.8;"/>
   </g>
   <g id="patch_4">
    <path d="M 1717.78125 586.86358 
L 1717.78125 22.318125 
" style="fill:none;stroke:#000000;stroke-linecap:square;stroke-linejoin:miter;stroke-width:0.8;"/>
   </g>
   <g id="patch_5">
    <path d="M 43.78125 586.86358 
L 1717.78125 586.86358 
" style="fill:none;stroke:#000000;stroke-linecap:square;stroke-linejoin:miter;stroke-width:0.8;"/>
   </g>
   <g id="patch_6">
    <path d="M 43.78125 22.318125 
L 1717.78125 22.318125 
" style="fill:none;stroke:#000000;stroke-linecap:square;stroke-linejoin:miter;stroke-width:0.8;"/>
   </g>
   <g id="text_16">
    <!-- before binarisation -->
    <g transform="translate(824.1825 16.318125)scale(0.12 -0.12)">
     <defs>
      <path d="M 3116 1747 
Q 3116 2381 2855 2742 
Q 2594 3103 2138 3103 
Q 1681 3103 1420 2742 
Q 1159 2381 1159 1747 
Q 1159 1113 1420 752 
Q 1681 391 2138 391 
Q 2594 391 2855 752 
Q 3116 1113 3116 1747 
z
M 1159 2969 
Q 1341 3281 1617 3432 
Q 1894 3584 2278 3584 
Q 2916 3584 3314 3078 
Q 3713 2572 3713 1747 
Q 3713 922 3314 415 
Q 2916 -91 2278 -91 
Q 1894 -91 1617 61 
Q 1341 213 1159 525 
L 1159 0 
L 581 0 
L 581 4863 
L 1159 4863 
L 1159 2969 
z
" id="DejaVuSans-62" transform="scale(0.015625)"/>
      <path d="M 1959 3097 
Q 1497 3097 1228 2736 
Q 959 2375 959 1747 
Q 959 1119 1226 758 
Q 1494 397 1959 397 
Q 2419 397 2687 759 
Q 2956 1122 2956 1747 
Q 2956 2369 2687 2733 
Q 2419 3097 1959 3097 
z
M 1959 3584 
Q 2709 3584 3137 3096 
Q 3566 2609 3566 1747 
Q 3566 888 3137 398 
Q 2709 -91 1959 -91 
Q 1206 -91 779 398 
Q 353 888 353 1747 
Q 353 2609 779 3096 
Q 1206 3584 1959 3584 
z
" id="DejaVuSans-6f" transform="scale(0.015625)"/>
      <path id="DejaVuSans-20" transform="scale(0.015625)"/>
      <path d="M 603 3500 
L 1178 3500 
L 1178 0 
L 603 0 
L 603 3500 
z
M 603 4863 
L 1178 4863 
L 1178 4134 
L 603 4134 
L 603 4863 
z
" id="DejaVuSans-69" transform="scale(0.015625)"/>
      <path d="M 3513 2113 
L 3513 0 
L 2938 0 
L 2938 2094 
Q 2938 2591 2744 2837 
Q 2550 3084 2163 3084 
Q 1697 3084 1428 2787 
Q 1159 2491 1159 1978 
L 1159 0 
L 581 0 
L 581 3500 
L 1159 3500 
L 1159 2956 
Q 1366 3272 1645 3428 
Q 1925 3584 2291 3584 
Q 2894 3584 3203 3211 
Q 3513 2838 3513 2113 
z
" id="DejaVuSans-6e" transform="scale(0.015625)"/>
      <path d="M 2834 3397 
L 2834 2853 
Q 2591 2978 2328 3040 
Q 2066 3103 1784 3103 
Q 1356 3103 1142 2972 
Q 928 2841 928 2578 
Q 928 2378 1081 2264 
Q 1234 2150 1697 2047 
L 1894 2003 
Q 2506 1872 2764 1633 
Q 3022 1394 3022 966 
Q 3022 478 2636 193 
Q 2250 -91 1575 -91 
Q 1294 -91 989 -36 
Q 684 19 347 128 
L 347 722 
Q 666 556 975 473 
Q 1284 391 1588 391 
Q 1994 391 2212 530 
Q 2431 669 2431 922 
Q 2431 1156 2273 1281 
Q 2116 1406 1581 1522 
L 1381 1569 
Q 847 1681 609 1914 
Q 372 2147 372 2553 
Q 372 3047 722 3315 
Q 1072 3584 1716 3584 
Q 2034 3584 2315 3537 
Q 2597 3491 2834 3397 
z
" id="DejaVuSans-73" transform="scale(0.015625)"/>
      <path d="M 1172 4494 
L 1172 3500 
L 2356 3500 
L 2356 3053 
L 1172 3053 
L 1172 1153 
Q 1172 725 1289 603 
Q 1406 481 1766 481 
L 2356 481 
L 2356 0 
L 1766 0 
Q 1100 0 847 248 
Q 594 497 594 1153 
L 594 3053 
L 172 3053 
L 172 3500 
L 594 3500 
L 594 4494 
L 1172 4494 
z
" id="DejaVuSans-74" transform="scale(0.015625)"/>
     </defs>
     <use xlink:href="#DejaVuSans-62"/>
     <use x="63.476562" xlink:href="#DejaVuSans-65"/>
     <use x="125" xlink:href="#DejaVuSans-66"/>
     <use x="160.205078" xlink:href="#DejaVuSans-6f"/>
     <use x="221.386719" xlink:href="#DejaVuSans-72"/>
     <use x="260.25" xlink:href="#DejaVuSans-65"/>
     <use x="321.773438" xlink:href="#DejaVuSans-20"/>
     <use x="353.560547" xlink:href="#DejaVuSans-62"/>
     <use x="417.037109" xlink:href="#DejaVuSans-69"/>
     <use x="444.820312" xlink:href="#DejaVuSans-6e"/>
     <use x="508.199219" xlink:href="#DejaVuSans-61"/>
     <use x="569.478516" xlink:href="#DejaVuSans-72"/>
     <use x="610.591797" xlink:href="#DejaVuSans-69"/>
     <use x="638.375" xlink:href="#DejaVuSans-73"/>
     <use x="690.474609" xlink:href="#DejaVuSans-61"/>
     <use x="751.753906" xlink:href="#DejaVuSans-74"/>
     <use x="790.962891" xlink:href="#DejaVuSans-69"/>
     <use x="818.746094" xlink:href="#DejaVuSans-6f"/>
     <use x="879.927734" xlink:href="#DejaVuSans-6e"/>
    </g>
   </g>
  </g>
  <g id="axes_2">
   <g id="patch_7">
    <path d="M 43.78125 1264.318125 
L 1717.78125 1264.318125 
L 1717.78125 699.77267 
L 43.78125 699.77267 
z
" style="fill:#ffffff;"/>
   </g>
   <g id="matplotlib.axis_3">
    <g id="xtick_8">
     <g id="line2d_15">
      <g>
       <use style="stroke:#000000;stroke-width:0.8;" x="119.872159" xlink:href="#mb534d3cd17" y="1264.318125"/>
      </g>
     </g>
     <g id="text_17">
      <!-- 0 -->
      <g transform="translate(116.690909 1278.916563)scale(0.1 -0.1)">
       <use xlink:href="#DejaVuSans-30"/>
      </g>
     </g>
    </g>
    <g id="xtick_9">
     <g id="line2d_16">
      <g>
       <use style="stroke:#000000;stroke-width:0.8;" x="367.523613" xlink:href="#mb534d3cd17" y="1264.318125"/>
      </g>
     </g>
     <g id="text_18">
      <!-- 200 -->
      <g transform="translate(357.979863 1278.916563)scale(0.1 -0.1)">
       <use xlink:href="#DejaVuSans-32"/>
       <use x="63.623047" xlink:href="#DejaVuSans-30"/>
       <use x="127.246094" xlink:href="#DejaVuSans-30"/>
      </g>
     </g>
    </g>
    <g id="xtick_10">
     <g id="line2d_17">
      <g>
       <use style="stroke:#000000;stroke-width:0.8;" x="615.175066" xlink:href="#mb534d3cd17" y="1264.318125"/>
      </g>
     </g>
     <g id="text_19">
      <!-- 400 -->
      <g transform="translate(605.631316 1278.916563)scale(0.1 -0.1)">
       <use xlink:href="#DejaVuSans-34"/>
       <use x="63.623047" xlink:href="#DejaVuSans-30"/>
       <use x="127.246094" xlink:href="#DejaVuSans-30"/>
      </g>
     </g>
    </g>
    <g id="xtick_11">
     <g id="line2d_18">
      <g>
       <use style="stroke:#000000;stroke-width:0.8;" x="862.82652" xlink:href="#mb534d3cd17" y="1264.318125"/>
      </g>
     </g>
     <g id="text_20">
      <!-- 600 -->
      <g transform="translate(853.28277 1278.916563)scale(0.1 -0.1)">
       <use xlink:href="#DejaVuSans-36"/>
       <use x="63.623047" xlink:href="#DejaVuSans-30"/>
       <use x="127.246094" xlink:href="#DejaVuSans-30"/>
      </g>
     </g>
    </g>
    <g id="xtick_12">
     <g id="line2d_19">
      <g>
       <use style="stroke:#000000;stroke-width:0.8;" x="1110.477973" xlink:href="#mb534d3cd17" y="1264.318125"/>
      </g>
     </g>
     <g id="text_21">
      <!-- 800 -->
      <g transform="translate(1100.934223 1278.916563)scale(0.1 -0.1)">
       <use xlink:href="#DejaVuSans-38"/>
       <use x="63.623047" xlink:href="#DejaVuSans-30"/>
       <use x="127.246094" xlink:href="#DejaVuSans-30"/>
      </g>
     </g>
    </g>
    <g id="xtick_13">
     <g id="line2d_20">
      <g>
       <use style="stroke:#000000;stroke-width:0.8;" x="1358.129427" xlink:href="#mb534d3cd17" y="1264.318125"/>
      </g>
     </g>
     <g id="text_22">
      <!-- 1000 -->
      <g transform="translate(1345.404427 1278.916563)scale(0.1 -0.1)">
       <use xlink:href="#DejaVuSans-31"/>
       <use x="63.623047" xlink:href="#DejaVuSans-30"/>
       <use x="127.246094" xlink:href="#DejaVuSans-30"/>
       <use x="190.869141" xlink:href="#DejaVuSans-30"/>
      </g>
     </g>
    </g>
    <g id="xtick_14">
     <g id="line2d_21">
      <g>
       <use style="stroke:#000000;stroke-width:0.8;" x="1605.78088" xlink:href="#mb534d3cd17" y="1264.318125"/>
      </g>
     </g>
     <g id="text_23">
      <!-- 1200 -->
      <g transform="translate(1593.05588 1278.916563)scale(0.1 -0.1)">
       <use xlink:href="#DejaVuSans-31"/>
       <use x="63.623047" xlink:href="#DejaVuSans-32"/>
       <use x="127.246094" xlink:href="#DejaVuSans-30"/>
       <use x="190.869141" xlink:href="#DejaVuSans-30"/>
      </g>
     </g>
    </g>
    <g id="text_24">
     <!-- frame -->
     <g transform="translate(865.954687 1292.594688)scale(0.1 -0.1)">
      <use xlink:href="#DejaVuSans-66"/>
      <use x="35.205078" xlink:href="#DejaVuSans-72"/>
      <use x="76.318359" xlink:href="#DejaVuSans-61"/>
      <use x="137.597656" xlink:href="#DejaVuSans-6d"/>
      <use x="235.009766" xlink:href="#DejaVuSans-65"/>
     </g>
    </g>
   </g>
   <g id="matplotlib.axis_4">
    <g id="ytick_7">
     <g id="line2d_22">
      <g>
       <use style="stroke:#000000;stroke-width:0.8;" x="43.78125" xlink:href="#m1fdd73eaf9" y="1238.656968"/>
      </g>
     </g>
     <g id="text_25">
      <!-- 0.0 -->
      <g transform="translate(20.878125 1242.456187)scale(0.1 -0.1)">
       <use xlink:href="#DejaVuSans-30"/>
       <use x="63.623047" xlink:href="#DejaVuSans-2e"/>
       <use x="95.410156" xlink:href="#DejaVuSans-30"/>
      </g>
     </g>
    </g>
    <g id="ytick_8">
     <g id="line2d_23">
      <g>
       <use style="stroke:#000000;stroke-width:0.8;" x="43.78125" xlink:href="#m1fdd73eaf9" y="1136.01234"/>
      </g>
     </g>
     <g id="text_26">
      <!-- 0.2 -->
      <g transform="translate(20.878125 1139.811559)scale(0.1 -0.1)">
       <use xlink:href="#DejaVuSans-30"/>
       <use x="63.623047" xlink:href="#DejaVuSans-2e"/>
       <use x="95.410156" xlink:href="#DejaVuSans-32"/>
      </g>
     </g>
    </g>
    <g id="ytick_9">
     <g id="line2d_24">
      <g>
       <use style="stroke:#000000;stroke-width:0.8;" x="43.78125" xlink:href="#m1fdd73eaf9" y="1033.367712"/>
      </g>
     </g>
     <g id="text_27">
      <!-- 0.4 -->
      <g transform="translate(20.878125 1037.166931)scale(0.1 -0.1)">
       <use xlink:href="#DejaVuSans-30"/>
       <use x="63.623047" xlink:href="#DejaVuSans-2e"/>
       <use x="95.410156" xlink:href="#DejaVuSans-34"/>
      </g>
     </g>
    </g>
    <g id="ytick_10">
     <g id="line2d_25">
      <g>
       <use style="stroke:#000000;stroke-width:0.8;" x="43.78125" xlink:href="#m1fdd73eaf9" y="930.723084"/>
      </g>
     </g>
     <g id="text_28">
      <!-- 0.6 -->
      <g transform="translate(20.878125 934.522302)scale(0.1 -0.1)">
       <use xlink:href="#DejaVuSans-30"/>
       <use x="63.623047" xlink:href="#DejaVuSans-2e"/>
       <use x="95.410156" xlink:href="#DejaVuSans-36"/>
      </g>
     </g>
    </g>
    <g id="ytick_11">
     <g id="line2d_26">
      <g>
       <use style="stroke:#000000;stroke-width:0.8;" x="43.78125" xlink:href="#m1fdd73eaf9" y="828.078456"/>
      </g>
     </g>
     <g id="text_29">
      <!-- 0.8 -->
      <g transform="translate(20.878125 831.877674)scale(0.1 -0.1)">
       <use xlink:href="#DejaVuSans-30"/>
       <use x="63.623047" xlink:href="#DejaVuSans-2e"/>
       <use x="95.410156" xlink:href="#DejaVuSans-38"/>
      </g>
     </g>
    </g>
    <g id="ytick_12">
     <g id="line2d_27">
      <g>
       <use style="stroke:#000000;stroke-width:0.8;" x="43.78125" xlink:href="#m1fdd73eaf9" y="725.433827"/>
      </g>
     </g>
     <g id="text_30">
      <!-- 1.0 -->
      <g transform="translate(20.878125 729.233046)scale(0.1 -0.1)">
       <use xlink:href="#DejaVuSans-31"/>
       <use x="63.623047" xlink:href="#DejaVuSans-2e"/>
       <use x="95.410156" xlink:href="#DejaVuSans-30"/>
      </g>
     </g>
    </g>
    <g id="text_31">
     <!-- GCaMP -->
     <g transform="translate(14.798437 999.803991)rotate(-90)scale(0.1 -0.1)">
      <use xlink:href="#DejaVuSans-47"/>
      <use x="77.490234" xlink:href="#DejaVuSans-43"/>
      <use x="147.314453" xlink:href="#DejaVuSans-61"/>
      <use x="208.59375" xlink:href="#DejaVuSans-4d"/>
      <use x="294.873047" xlink:href="#DejaVuSans-50"/>
     </g>
    </g>
   </g>
   <g id="line2d_28">
    <path clip-path="url(#pf8adcf2bfb)" d="M 119.872159 1238.656968 
L 711.759133 1238.656968 
L 712.99739 725.433827 
L 716.712162 725.433827 
L 717.950419 1238.656968 
L 766.242453 1238.656968 
L 767.48071 725.433827 
L 769.957225 725.433827 
L 771.195482 1238.656968 
L 795.960627 1238.656968 
L 797.198884 725.433827 
L 800.913656 725.433827 
L 802.151914 1238.656968 
L 819.487515 1238.656968 
L 820.725773 725.433827 
L 823.202287 725.433827 
L 824.440544 1238.656968 
L 891.306437 1238.656968 
L 892.544694 725.433827 
L 899.974238 725.433827 
L 901.212495 1238.656968 
L 927.215898 1238.656968 
L 928.454155 725.433827 
L 947.028014 725.433827 
L 948.266271 1238.656968 
L 1489.384697 1238.656968 
L 1490.622954 725.433827 
L 1499.290755 725.433827 
L 1500.529012 1238.656968 
L 1519.102871 1238.656968 
L 1520.341129 725.433827 
L 1527.770672 725.433827 
L 1529.00893 1238.656968 
L 1579.777478 1238.656968 
L 1581.015735 725.433827 
L 1582.253992 725.433827 
L 1583.492249 1238.656968 
L 1590.921793 1238.656968 
L 1592.16005 725.433827 
L 1593.398307 725.433827 
L 1594.636565 1238.656968 
L 1607.019137 1238.656968 
L 1608.257395 725.433827 
L 1613.210424 725.433827 
L 1614.448681 1238.656968 
L 1615.686938 725.433827 
L 1620.639967 725.433827 
L 1621.878225 1238.656968 
L 1641.690341 1238.656968 
L 1641.690341 1238.656968 
" style="fill:none;stroke:#008000;stroke-linecap:square;stroke-width:1.5;"/>
   </g>
   <g id="patch_8">
    <path d="M 43.78125 1264.318125 
L 43.78125 699.77267 
" style="fill:none;stroke:#000000;stroke-linecap:square;stroke-linejoin:miter;stroke-width:0.8;"/>
   </g>
   <g id="patch_9">
    <path d="M 1717.78125 1264.318125 
L 1717.78125 699.77267 
" style="fill:none;stroke:#000000;stroke-linecap:square;stroke-linejoin:miter;stroke-width:0.8;"/>
   </g>
   <g id="patch_10">
    <path d="M 43.78125 1264.318125 
L 1717.78125 1264.318125 
" style="fill:none;stroke:#000000;stroke-linecap:square;stroke-linejoin:miter;stroke-width:0.8;"/>
   </g>
   <g id="patch_11">
    <path d="M 43.78125 699.77267 
L 1717.78125 699.77267 
" style="fill:none;stroke:#000000;stroke-linecap:square;stroke-linejoin:miter;stroke-width:0.8;"/>
   </g>
   <g id="text_32">
    <!-- before binarisation -->
    <g transform="translate(824.1825 693.77267)scale(0.12 -0.12)">
     <use xlink:href="#DejaVuSans-62"/>
     <use x="63.476562" xlink:href="#DejaVuSans-65"/>
     <use x="125" xlink:href="#DejaVuSans-66"/>
     <use x="160.205078" xlink:href="#DejaVuSans-6f"/>
     <use x="221.386719" xlink:href="#DejaVuSans-72"/>
     <use x="260.25" xlink:href="#DejaVuSans-65"/>
     <use x="321.773438" xlink:href="#DejaVuSans-20"/>
     <use x="353.560547" xlink:href="#DejaVuSans-62"/>
     <use x="417.037109" xlink:href="#DejaVuSans-69"/>
     <use x="444.820312" xlink:href="#DejaVuSans-6e"/>
     <use x="508.199219" xlink:href="#DejaVuSans-61"/>
     <use x="569.478516" xlink:href="#DejaVuSans-72"/>
     <use x="610.591797" xlink:href="#DejaVuSans-69"/>
     <use x="638.375" xlink:href="#DejaVuSans-73"/>
     <use x="690.474609" xlink:href="#DejaVuSans-61"/>
     <use x="751.753906" xlink:href="#DejaVuSans-74"/>
     <use x="790.962891" xlink:href="#DejaVuSans-69"/>
     <use x="818.746094" xlink:href="#DejaVuSans-6f"/>
     <use x="879.927734" xlink:href="#DejaVuSans-6e"/>
    </g>
   </g>
  </g>
 </g>
 <defs>
  <clipPath id="pf7a580e0f1">
   <rect height="564.545455" width="1674" x="43.78125" y="22.318125"/>
  </clipPath>
  <clipPath id="pf8adcf2bfb">
   <rect height="564.545455" width="1674" x="43.78125" y="699.77267"/>
  </clipPath>
 </defs>
</svg>
