<?xml version="1.0" encoding="utf-8" standalone="no"?>
<!DOCTYPE svg PUBLIC "-//W3C//DTD SVG 1.1//EN"
  "http://www.w3.org/Graphics/SVG/1.1/DTD/svg11.dtd">
<svg height="432pt" version="1.1" viewBox="0 0 720 432" width="720pt" xmlns="http://www.w3.org/2000/svg" xmlns:xlink="http://www.w3.org/1999/xlink">
 <metadata>
  <rdf:RDF xmlns:cc="http://creativecommons.org/ns#" xmlns:dc="http://purl.org/dc/elements/1.1/" xmlns:rdf="http://www.w3.org/1999/02/22-rdf-syntax-ns#">
   <cc:Work>
    <dc:type rdf:resource="http://purl.org/dc/dcmitype/StillImage"/>
    <dc:date>2022-07-24T15:55:00.699229</dc:date>
    <dc:format>image/svg+xml</dc:format>
    <dc:creator>
     <cc:Agent>
      <dc:title>Matplotlib v3.4.2, https://matplotlib.org/</dc:title>
     </cc:Agent>
    </dc:creator>
   </cc:Work>
  </rdf:RDF>
 </metadata>
 <defs>
  <style type="text/css">*{stroke-linecap:butt;stroke-linejoin:round;}</style>
 </defs>
 <g id="figure_1">
  <g id="patch_1">
   <path d="M 0 432 
L 720 432 
L 720 0 
L 0 0 
z
" style="fill:#ffffff;"/>
  </g>
  <g id="axes_1">
   <g id="patch_2">
    <path d="M 90 384.48 
L 648 384.48 
L 648 51.84 
L 90 51.84 
z
" style="fill:#ffffff;"/>
   </g>
   <g id="patch_3">
    <path clip-path="url(#p289ad6dbb0)" d="M 115.363636 384.48 
L 121 384.48 
L 121 67.68 
L 115.363636 67.68 
z
" style="fill:#fcffa4;opacity:0.7;stroke:#e0e0e0;stroke-linejoin:miter;stroke-width:0.5;"/>
   </g>
   <g id="patch_4">
    <path clip-path="url(#p289ad6dbb0)" d="M 121 384.48 
L 126.636364 384.48 
L 126.636364 384.48 
L 121 384.48 
z
" style="fill:#000004;opacity:0.7;stroke:#e0e0e0;stroke-linejoin:miter;stroke-width:0.5;"/>
   </g>
   <g id="patch_5">
    <path clip-path="url(#p289ad6dbb0)" d="M 126.636364 384.48 
L 132.272727 384.48 
L 132.272727 380.018966 
L 126.636364 380.018966 
z
" style="fill:#010108;opacity:0.7;stroke:#e0e0e0;stroke-linejoin:miter;stroke-width:0.5;"/>
   </g>
   <g id="patch_6">
    <path clip-path="url(#p289ad6dbb0)" d="M 132.272727 384.48 
L 137.909091 384.48 
L 137.909091 181.403077 
L 132.272727 181.403077 
z
" style="fill:#e8602d;opacity:0.7;stroke:#e0e0e0;stroke-linejoin:miter;stroke-width:0.5;"/>
   </g>
   <g id="patch_7">
    <path clip-path="url(#p289ad6dbb0)" d="M 137.909091 384.48 
L 143.545455 384.48 
L 143.545455 384.48 
L 137.909091 384.48 
z
" style="fill:#000004;opacity:0.7;stroke:#e0e0e0;stroke-linejoin:miter;stroke-width:0.5;"/>
   </g>
   <g id="patch_8">
    <path clip-path="url(#p289ad6dbb0)" d="M 143.545455 384.48 
L 149.181818 384.48 
L 149.181818 366.302951 
L 143.545455 366.302951 
z
" style="fill:#09061f;opacity:0.7;stroke:#e0e0e0;stroke-linejoin:miter;stroke-width:0.5;"/>
   </g>
   <g id="patch_9">
    <path clip-path="url(#p289ad6dbb0)" d="M 149.181818 384.48 
L 154.818182 384.48 
L 154.818182 191.656797 
L 149.181818 191.656797 
z
" style="fill:#df5337;opacity:0.7;stroke:#e0e0e0;stroke-linejoin:miter;stroke-width:0.5;"/>
   </g>
   <g id="patch_10">
    <path clip-path="url(#p289ad6dbb0)" d="M 154.818182 384.48 
L 160.454545 384.48 
L 160.454545 294.593493 
L 154.818182 294.593493 
z
" style="fill:#64156e;opacity:0.7;stroke:#e0e0e0;stroke-linejoin:miter;stroke-width:0.5;"/>
   </g>
   <g id="patch_11">
    <path clip-path="url(#p289ad6dbb0)" d="M 160.454545 384.48 
L 166.090909 384.48 
L 166.090909 355.716318 
L 160.454545 355.716318 
z
" style="fill:#140b34;opacity:0.7;stroke:#e0e0e0;stroke-linejoin:miter;stroke-width:0.5;"/>
   </g>
   <g id="patch_12">
    <path clip-path="url(#p289ad6dbb0)" d="M 166.090909 384.48 
L 171.727273 384.48 
L 171.727273 220.220731 
L 166.090909 220.220731 
z
" style="fill:#c13a50;opacity:0.7;stroke:#e0e0e0;stroke-linejoin:miter;stroke-width:0.5;"/>
   </g>
   <g id="patch_13">
    <path clip-path="url(#p289ad6dbb0)" d="M 171.727273 384.48 
L 177.363636 384.48 
L 177.363636 180.870416 
L 171.727273 180.870416 
z
" style="fill:#e8602d;opacity:0.7;stroke:#e0e0e0;stroke-linejoin:miter;stroke-width:0.5;"/>
   </g>
   <g id="patch_14">
    <path clip-path="url(#p289ad6dbb0)" d="M 177.363636 384.48 
L 183 384.48 
L 183 309.507995 
L 177.363636 309.507995 
z
" style="fill:#510e6c;opacity:0.7;stroke:#e0e0e0;stroke-linejoin:miter;stroke-width:0.5;"/>
   </g>
   <g id="patch_15">
    <path clip-path="url(#p289ad6dbb0)" d="M 183 384.48 
L 188.636364 384.48 
L 188.636364 234.469407 
L 183 234.469407 
z
" style="fill:#b1325a;opacity:0.7;stroke:#e0e0e0;stroke-linejoin:miter;stroke-width:0.5;"/>
   </g>
   <g id="patch_16">
    <path clip-path="url(#p289ad6dbb0)" d="M 188.636364 384.48 
L 194.272727 384.48 
L 194.272727 215.892863 
L 188.636364 215.892863 
z
" style="fill:#c73e4c;opacity:0.7;stroke:#e0e0e0;stroke-linejoin:miter;stroke-width:0.5;"/>
   </g>
   <g id="patch_17">
    <path clip-path="url(#p289ad6dbb0)" d="M 194.272727 384.48 
L 199.909091 384.48 
L 199.909091 266.362472 
L 194.272727 266.362472 
z
" style="fill:#88226a;opacity:0.7;stroke:#e0e0e0;stroke-linejoin:miter;stroke-width:0.5;"/>
   </g>
   <g id="patch_18">
    <path clip-path="url(#p289ad6dbb0)" d="M 199.909091 384.48 
L 205.545455 384.48 
L 205.545455 260.636368 
L 199.909091 260.636368 
z
" style="fill:#902568;opacity:0.7;stroke:#e0e0e0;stroke-linejoin:miter;stroke-width:0.5;"/>
   </g>
   <g id="patch_19">
    <path clip-path="url(#p289ad6dbb0)" d="M 205.545455 384.48 
L 211.181818 384.48 
L 211.181818 224.748348 
L 205.545455 224.748348 
z
" style="fill:#bd3853;opacity:0.7;stroke:#e0e0e0;stroke-linejoin:miter;stroke-width:0.5;"/>
   </g>
   <g id="patch_20">
    <path clip-path="url(#p289ad6dbb0)" d="M 211.181818 384.48 
L 216.818182 384.48 
L 216.818182 245.189206 
L 211.181818 245.189206 
z
" style="fill:#a32c61;opacity:0.7;stroke:#e0e0e0;stroke-linejoin:miter;stroke-width:0.5;"/>
   </g>
   <g id="patch_21">
    <path clip-path="url(#p289ad6dbb0)" d="M 216.818182 384.48 
L 222.454545 384.48 
L 222.454545 220.753392 
L 216.818182 220.753392 
z
" style="fill:#c13a50;opacity:0.7;stroke:#e0e0e0;stroke-linejoin:miter;stroke-width:0.5;"/>
   </g>
   <g id="patch_22">
    <path clip-path="url(#p289ad6dbb0)" d="M 222.454545 384.48 
L 228.090909 384.48 
L 228.090909 258.505725 
L 222.454545 258.505725 
z
" style="fill:#922568;opacity:0.7;stroke:#e0e0e0;stroke-linejoin:miter;stroke-width:0.5;"/>
   </g>
   <g id="patch_23">
    <path clip-path="url(#p289ad6dbb0)" d="M 228.090909 384.48 
L 233.727273 384.48 
L 233.727273 250.582396 
L 228.090909 250.582396 
z
" style="fill:#9d2964;opacity:0.7;stroke:#e0e0e0;stroke-linejoin:miter;stroke-width:0.5;"/>
   </g>
   <g id="patch_24">
    <path clip-path="url(#p289ad6dbb0)" d="M 233.727273 384.48 
L 239.363636 384.48 
L 239.363636 251.647718 
L 233.727273 251.647718 
z
" style="fill:#9b2964;opacity:0.7;stroke:#e0e0e0;stroke-linejoin:miter;stroke-width:0.5;"/>
   </g>
   <g id="patch_25">
    <path clip-path="url(#p289ad6dbb0)" d="M 239.363636 384.48 
L 245 384.48 
L 245 264.564741 
L 239.363636 264.564741 
z
" style="fill:#8a226a;opacity:0.7;stroke:#e0e0e0;stroke-linejoin:miter;stroke-width:0.5;"/>
   </g>
   <g id="patch_26">
    <path clip-path="url(#p289ad6dbb0)" d="M 245 384.48 
L 250.636364 384.48 
L 250.636364 280.211652 
L 245 280.211652 
z
" style="fill:#771c6d;opacity:0.7;stroke:#e0e0e0;stroke-linejoin:miter;stroke-width:0.5;"/>
   </g>
   <g id="patch_27">
    <path clip-path="url(#p289ad6dbb0)" d="M 250.636364 384.48 
L 256.272727 384.48 
L 256.272727 276.083531 
L 250.636364 276.083531 
z
" style="fill:#7c1d6d;opacity:0.7;stroke:#e0e0e0;stroke-linejoin:miter;stroke-width:0.5;"/>
   </g>
   <g id="patch_28">
    <path clip-path="url(#p289ad6dbb0)" d="M 256.272727 384.48 
L 261.909091 384.48 
L 261.909091 286.936494 
L 256.272727 286.936494 
z
" style="fill:#6d186e;opacity:0.7;stroke:#e0e0e0;stroke-linejoin:miter;stroke-width:0.5;"/>
   </g>
   <g id="patch_29">
    <path clip-path="url(#p289ad6dbb0)" d="M 261.909091 384.48 
L 267.545455 384.48 
L 267.545455 301.118588 
L 261.909091 301.118588 
z
" style="fill:#5c126e;opacity:0.7;stroke:#e0e0e0;stroke-linejoin:miter;stroke-width:0.5;"/>
   </g>
   <g id="patch_30">
    <path clip-path="url(#p289ad6dbb0)" d="M 267.545455 384.48 
L 273.181818 384.48 
L 273.181818 292.795763 
L 267.545455 292.795763 
z
" style="fill:#67166e;opacity:0.7;stroke:#e0e0e0;stroke-linejoin:miter;stroke-width:0.5;"/>
   </g>
   <g id="patch_31">
    <path clip-path="url(#p289ad6dbb0)" d="M 273.181818 384.48 
L 278.818182 384.48 
L 278.818182 299.320858 
L 273.181818 299.320858 
z
" style="fill:#5d126e;opacity:0.7;stroke:#e0e0e0;stroke-linejoin:miter;stroke-width:0.5;"/>
   </g>
   <g id="patch_32">
    <path clip-path="url(#p289ad6dbb0)" d="M 278.818182 384.48 
L 284.454545 384.48 
L 284.454545 299.65377 
L 278.818182 299.65377 
z
" style="fill:#5d126e;opacity:0.7;stroke:#e0e0e0;stroke-linejoin:miter;stroke-width:0.5;"/>
   </g>
   <g id="patch_33">
    <path clip-path="url(#p289ad6dbb0)" d="M 284.454545 384.48 
L 290.090909 384.48 
L 290.090909 308.043178 
L 284.454545 308.043178 
z
" style="fill:#520e6d;opacity:0.7;stroke:#e0e0e0;stroke-linejoin:miter;stroke-width:0.5;"/>
   </g>
   <g id="patch_34">
    <path clip-path="url(#p289ad6dbb0)" d="M 290.090909 384.48 
L 295.727273 384.48 
L 295.727273 287.868651 
L 290.090909 287.868651 
z
" style="fill:#6d186e;opacity:0.7;stroke:#e0e0e0;stroke-linejoin:miter;stroke-width:0.5;"/>
   </g>
   <g id="patch_35">
    <path clip-path="url(#p289ad6dbb0)" d="M 295.727273 384.48 
L 301.363636 384.48 
L 301.363636 297.123632 
L 295.727273 297.123632 
z
" style="fill:#61136e;opacity:0.7;stroke:#e0e0e0;stroke-linejoin:miter;stroke-width:0.5;"/>
   </g>
   <g id="patch_36">
    <path clip-path="url(#p289ad6dbb0)" d="M 301.363636 384.48 
L 307 384.48 
L 307 303.049483 
L 301.363636 303.049483 
z
" style="fill:#59106e;opacity:0.7;stroke:#e0e0e0;stroke-linejoin:miter;stroke-width:0.5;"/>
   </g>
   <g id="patch_37">
    <path clip-path="url(#p289ad6dbb0)" d="M 307 384.48 
L 312.636364 384.48 
L 312.636364 308.242926 
L 307 308.242926 
z
" style="fill:#520e6d;opacity:0.7;stroke:#e0e0e0;stroke-linejoin:miter;stroke-width:0.5;"/>
   </g>
   <g id="patch_38">
    <path clip-path="url(#p289ad6dbb0)" d="M 312.636364 384.48 
L 318.272727 384.48 
L 318.272727 315.500429 
L 312.636364 315.500429 
z
" style="fill:#490b6a;opacity:0.7;stroke:#e0e0e0;stroke-linejoin:miter;stroke-width:0.5;"/>
   </g>
   <g id="patch_39">
    <path clip-path="url(#p289ad6dbb0)" d="M 318.272727 384.48 
L 323.909091 384.48 
L 323.909091 294.327163 
L 318.272727 294.327163 
z
" style="fill:#64156e;opacity:0.7;stroke:#e0e0e0;stroke-linejoin:miter;stroke-width:0.5;"/>
   </g>
   <g id="patch_40">
    <path clip-path="url(#p289ad6dbb0)" d="M 323.909091 384.48 
L 329.545455 384.48 
L 329.545455 328.617201 
L 323.909091 328.617201 
z
" style="fill:#380962;opacity:0.7;stroke:#e0e0e0;stroke-linejoin:miter;stroke-width:0.5;"/>
   </g>
   <g id="patch_41">
    <path clip-path="url(#p289ad6dbb0)" d="M 329.545455 384.48 
L 335.181818 384.48 
L 335.181818 301.984161 
L 329.545455 301.984161 
z
" style="fill:#5a116e;opacity:0.7;stroke:#e0e0e0;stroke-linejoin:miter;stroke-width:0.5;"/>
   </g>
   <g id="patch_42">
    <path clip-path="url(#p289ad6dbb0)" d="M 335.181818 384.48 
L 340.818182 384.48 
L 340.818182 320.227793 
L 335.181818 320.227793 
z
" style="fill:#420a68;opacity:0.7;stroke:#e0e0e0;stroke-linejoin:miter;stroke-width:0.5;"/>
   </g>
   <g id="patch_43">
    <path clip-path="url(#p289ad6dbb0)" d="M 340.818182 384.48 
L 346.454545 384.48 
L 346.454545 305.046961 
L 340.818182 305.046961 
z
" style="fill:#57106e;opacity:0.7;stroke:#e0e0e0;stroke-linejoin:miter;stroke-width:0.5;"/>
   </g>
   <g id="patch_44">
    <path clip-path="url(#p289ad6dbb0)" d="M 346.454545 384.48 
L 352.090909 384.48 
L 352.090909 314.834603 
L 346.454545 314.834603 
z
" style="fill:#4a0c6b;opacity:0.7;stroke:#e0e0e0;stroke-linejoin:miter;stroke-width:0.5;"/>
   </g>
   <g id="patch_45">
    <path clip-path="url(#p289ad6dbb0)" d="M 352.090909 384.48 
L 357.727273 384.48 
L 357.727273 304.847213 
L 352.090909 304.847213 
z
" style="fill:#57106e;opacity:0.7;stroke:#e0e0e0;stroke-linejoin:miter;stroke-width:0.5;"/>
   </g>
   <g id="patch_46">
    <path clip-path="url(#p289ad6dbb0)" d="M 357.727273 384.48 
L 363.363636 384.48 
L 363.363636 307.710265 
L 357.727273 307.710265 
z
" style="fill:#540f6d;opacity:0.7;stroke:#e0e0e0;stroke-linejoin:miter;stroke-width:0.5;"/>
   </g>
   <g id="patch_47">
    <path clip-path="url(#p289ad6dbb0)" d="M 363.363636 384.48 
L 369 384.48 
L 369 317.697654 
L 363.363636 317.697654 
z
" style="fill:#450a69;opacity:0.7;stroke:#e0e0e0;stroke-linejoin:miter;stroke-width:0.5;"/>
   </g>
   <g id="patch_48">
    <path clip-path="url(#p289ad6dbb0)" d="M 369 384.48 
L 374.636364 384.48 
L 374.636364 277.3486 
L 369 277.3486 
z
" style="fill:#7a1d6d;opacity:0.7;stroke:#e0e0e0;stroke-linejoin:miter;stroke-width:0.5;"/>
   </g>
   <g id="patch_49">
    <path clip-path="url(#p289ad6dbb0)" d="M 374.636364 384.48 
L 380.272727 384.48 
L 380.272727 312.437629 
L 374.636364 312.437629 
z
" style="fill:#4d0d6c;opacity:0.7;stroke:#e0e0e0;stroke-linejoin:miter;stroke-width:0.5;"/>
   </g>
   <g id="patch_50">
    <path clip-path="url(#p289ad6dbb0)" d="M 380.272727 384.48 
L 385.909091 384.48 
L 385.909091 321.093367 
L 380.272727 321.093367 
z
" style="fill:#420a68;opacity:0.7;stroke:#e0e0e0;stroke-linejoin:miter;stroke-width:0.5;"/>
   </g>
   <g id="patch_51">
    <path clip-path="url(#p289ad6dbb0)" d="M 385.909091 384.48 
L 391.545455 384.48 
L 391.545455 316.432585 
L 385.909091 316.432585 
z
" style="fill:#470b6a;opacity:0.7;stroke:#e0e0e0;stroke-linejoin:miter;stroke-width:0.5;"/>
   </g>
   <g id="patch_52">
    <path clip-path="url(#p289ad6dbb0)" d="M 391.545455 384.48 
L 397.181818 384.48 
L 397.181818 327.751627 
L 391.545455 327.751627 
z
" style="fill:#380962;opacity:0.7;stroke:#e0e0e0;stroke-linejoin:miter;stroke-width:0.5;"/>
   </g>
   <g id="patch_53">
    <path clip-path="url(#p289ad6dbb0)" d="M 397.181818 384.48 
L 402.818182 384.48 
L 402.818182 317.298159 
L 397.181818 317.298159 
z
" style="fill:#470b6a;opacity:0.7;stroke:#e0e0e0;stroke-linejoin:miter;stroke-width:0.5;"/>
   </g>
   <g id="patch_54">
    <path clip-path="url(#p289ad6dbb0)" d="M 402.818182 384.48 
L 408.454545 384.48 
L 408.454545 320.893619 
L 402.818182 320.893619 
z
" style="fill:#420a68;opacity:0.7;stroke:#e0e0e0;stroke-linejoin:miter;stroke-width:0.5;"/>
   </g>
   <g id="patch_55">
    <path clip-path="url(#p289ad6dbb0)" d="M 408.454545 384.48 
L 414.090909 384.48 
L 414.090909 335.208878 
L 408.454545 335.208878 
z
" style="fill:#2d0b59;opacity:0.7;stroke:#e0e0e0;stroke-linejoin:miter;stroke-width:0.5;"/>
   </g>
   <g id="patch_56">
    <path clip-path="url(#p289ad6dbb0)" d="M 414.090909 384.48 
L 419.727273 384.48 
L 419.727273 337.872182 
L 414.090909 337.872182 
z
" style="fill:#290b55;opacity:0.7;stroke:#e0e0e0;stroke-linejoin:miter;stroke-width:0.5;"/>
   </g>
   <g id="patch_57">
    <path clip-path="url(#p289ad6dbb0)" d="M 419.727273 384.48 
L 425.363636 384.48 
L 425.363636 325.288071 
L 419.727273 325.288071 
z
" style="fill:#3b0964;opacity:0.7;stroke:#e0e0e0;stroke-linejoin:miter;stroke-width:0.5;"/>
   </g>
   <g id="patch_58">
    <path clip-path="url(#p289ad6dbb0)" d="M 425.363636 384.48 
L 431 384.48 
L 431 327.751627 
L 425.363636 327.751627 
z
" style="fill:#380962;opacity:0.7;stroke:#e0e0e0;stroke-linejoin:miter;stroke-width:0.5;"/>
   </g>
   <g id="patch_59">
    <path clip-path="url(#p289ad6dbb0)" d="M 431 384.48 
L 436.636364 384.48 
L 436.636364 330.215183 
L 431 330.215183 
z
" style="fill:#340a5f;opacity:0.7;stroke:#e0e0e0;stroke-linejoin:miter;stroke-width:0.5;"/>
   </g>
   <g id="patch_60">
    <path clip-path="url(#p289ad6dbb0)" d="M 436.636364 384.48 
L 442.272727 384.48 
L 442.272727 323.22401 
L 436.636364 323.22401 
z
" style="fill:#3e0966;opacity:0.7;stroke:#e0e0e0;stroke-linejoin:miter;stroke-width:0.5;"/>
   </g>
   <g id="patch_61">
    <path clip-path="url(#p289ad6dbb0)" d="M 442.272727 384.48 
L 447.909091 384.48 
L 447.909091 328.151122 
L 442.272727 328.151122 
z
" style="fill:#380962;opacity:0.7;stroke:#e0e0e0;stroke-linejoin:miter;stroke-width:0.5;"/>
   </g>
   <g id="patch_62">
    <path clip-path="url(#p289ad6dbb0)" d="M 447.909091 384.48 
L 453.545455 384.48 
L 453.545455 339.86966 
L 447.909091 339.86966 
z
" style="fill:#280b53;opacity:0.7;stroke:#e0e0e0;stroke-linejoin:miter;stroke-width:0.5;"/>
   </g>
   <g id="patch_63">
    <path clip-path="url(#p289ad6dbb0)" d="M 453.545455 384.48 
L 459.181818 384.48 
L 459.181818 316.232837 
L 453.545455 316.232837 
z
" style="fill:#490b6a;opacity:0.7;stroke:#e0e0e0;stroke-linejoin:miter;stroke-width:0.5;"/>
   </g>
   <g id="patch_64">
    <path clip-path="url(#p289ad6dbb0)" d="M 459.181818 384.48 
L 464.818182 384.48 
L 464.818182 317.497907 
L 459.181818 317.497907 
z
" style="fill:#470b6a;opacity:0.7;stroke:#e0e0e0;stroke-linejoin:miter;stroke-width:0.5;"/>
   </g>
   <g id="patch_65">
    <path clip-path="url(#p289ad6dbb0)" d="M 464.818182 384.48 
L 470.454545 384.48 
L 470.454545 318.896141 
L 464.818182 318.896141 
z
" style="fill:#440a68;opacity:0.7;stroke:#e0e0e0;stroke-linejoin:miter;stroke-width:0.5;"/>
   </g>
   <g id="patch_66">
    <path clip-path="url(#p289ad6dbb0)" d="M 470.454545 384.48 
L 476.090909 384.48 
L 476.090909 322.95768 
L 470.454545 322.95768 
z
" style="fill:#3e0966;opacity:0.7;stroke:#e0e0e0;stroke-linejoin:miter;stroke-width:0.5;"/>
   </g>
   <g id="patch_67">
    <path clip-path="url(#p289ad6dbb0)" d="M 476.090909 384.48 
L 481.727273 384.48 
L 481.727273 323.22401 
L 476.090909 323.22401 
z
" style="fill:#3e0966;opacity:0.7;stroke:#e0e0e0;stroke-linejoin:miter;stroke-width:0.5;"/>
   </g>
   <g id="patch_68">
    <path clip-path="url(#p289ad6dbb0)" d="M 481.727273 384.48 
L 487.363636 384.48 
L 487.363636 325.354653 
L 481.727273 325.354653 
z
" style="fill:#3b0964;opacity:0.7;stroke:#e0e0e0;stroke-linejoin:miter;stroke-width:0.5;"/>
   </g>
   <g id="patch_69">
    <path clip-path="url(#p289ad6dbb0)" d="M 487.363636 384.48 
L 493 384.48 
L 493 329.349609 
L 487.363636 329.349609 
z
" style="fill:#360961;opacity:0.7;stroke:#e0e0e0;stroke-linejoin:miter;stroke-width:0.5;"/>
   </g>
   <g id="patch_70">
    <path clip-path="url(#p289ad6dbb0)" d="M 493 384.48 
L 498.636364 384.48 
L 498.636364 322.558184 
L 493 322.558184 
z
" style="fill:#400a67;opacity:0.7;stroke:#e0e0e0;stroke-linejoin:miter;stroke-width:0.5;"/>
   </g>
   <g id="patch_71">
    <path clip-path="url(#p289ad6dbb0)" d="M 498.636364 384.48 
L 504.272727 384.48 
L 504.272727 327.951375 
L 498.636364 327.951375 
z
" style="fill:#380962;opacity:0.7;stroke:#e0e0e0;stroke-linejoin:miter;stroke-width:0.5;"/>
   </g>
   <g id="patch_72">
    <path clip-path="url(#p289ad6dbb0)" d="M 504.272727 384.48 
L 509.909091 384.48 
L 509.909091 334.676217 
L 504.272727 334.676217 
z
" style="fill:#2f0a5b;opacity:0.7;stroke:#e0e0e0;stroke-linejoin:miter;stroke-width:0.5;"/>
   </g>
   <g id="patch_73">
    <path clip-path="url(#p289ad6dbb0)" d="M 509.909091 384.48 
L 515.545455 384.48 
L 515.545455 329.083279 
L 509.909091 329.083279 
z
" style="fill:#360961;opacity:0.7;stroke:#e0e0e0;stroke-linejoin:miter;stroke-width:0.5;"/>
   </g>
   <g id="patch_74">
    <path clip-path="url(#p289ad6dbb0)" d="M 515.545455 384.48 
L 521.181818 384.48 
L 521.181818 347.792989 
L 515.545455 347.792989 
z
" style="fill:#1c0c43;opacity:0.7;stroke:#e0e0e0;stroke-linejoin:miter;stroke-width:0.5;"/>
   </g>
   <g id="patch_75">
    <path clip-path="url(#p289ad6dbb0)" d="M 521.181818 384.48 
L 526.818182 384.48 
L 526.818182 320.294376 
L 521.181818 320.294376 
z
" style="fill:#420a68;opacity:0.7;stroke:#e0e0e0;stroke-linejoin:miter;stroke-width:0.5;"/>
   </g>
   <g id="patch_76">
    <path clip-path="url(#p289ad6dbb0)" d="M 526.818182 384.48 
L 532.454545 384.48 
L 532.454545 336.740277 
L 526.818182 336.740277 
z
" style="fill:#2b0b57;opacity:0.7;stroke:#e0e0e0;stroke-linejoin:miter;stroke-width:0.5;"/>
   </g>
   <g id="patch_77">
    <path clip-path="url(#p289ad6dbb0)" d="M 532.454545 384.48 
L 538.090909 384.48 
L 538.090909 339.137251 
L 532.454545 339.137251 
z
" style="fill:#280b53;opacity:0.7;stroke:#e0e0e0;stroke-linejoin:miter;stroke-width:0.5;"/>
   </g>
   <g id="patch_78">
    <path clip-path="url(#p289ad6dbb0)" d="M 538.090909 384.48 
L 543.727273 384.48 
L 543.727273 328.151122 
L 538.090909 328.151122 
z
" style="fill:#380962;opacity:0.7;stroke:#e0e0e0;stroke-linejoin:miter;stroke-width:0.5;"/>
   </g>
   <g id="patch_79">
    <path clip-path="url(#p289ad6dbb0)" d="M 543.727273 384.48 
L 549.363636 384.48 
L 549.363636 333.744061 
L 543.727273 333.744061 
z
" style="fill:#2f0a5b;opacity:0.7;stroke:#e0e0e0;stroke-linejoin:miter;stroke-width:0.5;"/>
   </g>
   <g id="patch_80">
    <path clip-path="url(#p289ad6dbb0)" d="M 549.363636 384.48 
L 555 384.48 
L 555 340.735233 
L 549.363636 340.735233 
z
" style="fill:#260c51;opacity:0.7;stroke:#e0e0e0;stroke-linejoin:miter;stroke-width:0.5;"/>
   </g>
   <g id="patch_81">
    <path clip-path="url(#p289ad6dbb0)" d="M 555 384.48 
L 560.636364 384.48 
L 560.636364 336.607112 
L 555 336.607112 
z
" style="fill:#2b0b57;opacity:0.7;stroke:#e0e0e0;stroke-linejoin:miter;stroke-width:0.5;"/>
   </g>
   <g id="patch_82">
    <path clip-path="url(#p289ad6dbb0)" d="M 560.636364 384.48 
L 566.272727 384.48 
L 566.272727 338.937503 
L 560.636364 338.937503 
z
" style="fill:#280b53;opacity:0.7;stroke:#e0e0e0;stroke-linejoin:miter;stroke-width:0.5;"/>
   </g>
   <g id="patch_83">
    <path clip-path="url(#p289ad6dbb0)" d="M 566.272727 384.48 
L 571.909091 384.48 
L 571.909091 351.588197 
L 566.272727 351.588197 
z
" style="fill:#180c3c;opacity:0.7;stroke:#e0e0e0;stroke-linejoin:miter;stroke-width:0.5;"/>
   </g>
   <g id="patch_84">
    <path clip-path="url(#p289ad6dbb0)" d="M 571.909091 384.48 
L 577.545455 384.48 
L 577.545455 346.261589 
L 571.909091 346.261589 
z
" style="fill:#1e0c45;opacity:0.7;stroke:#e0e0e0;stroke-linejoin:miter;stroke-width:0.5;"/>
   </g>
   <g id="patch_85">
    <path clip-path="url(#p289ad6dbb0)" d="M 577.545455 384.48 
L 583.181818 384.48 
L 583.181818 357.780378 
L 577.545455 357.780378 
z
" style="fill:#110a30;opacity:0.7;stroke:#e0e0e0;stroke-linejoin:miter;stroke-width:0.5;"/>
   </g>
   <g id="patch_86">
    <path clip-path="url(#p289ad6dbb0)" d="M 583.181818 384.48 
L 588.818182 384.48 
L 588.818182 360.044187 
L 583.181818 360.044187 
z
" style="fill:#0e092b;opacity:0.7;stroke:#e0e0e0;stroke-linejoin:miter;stroke-width:0.5;"/>
   </g>
   <g id="patch_87">
    <path clip-path="url(#p289ad6dbb0)" d="M 588.818182 384.48 
L 594.454545 384.48 
L 594.454545 360.243934 
L 588.818182 360.243934 
z
" style="fill:#0e092b;opacity:0.7;stroke:#e0e0e0;stroke-linejoin:miter;stroke-width:0.5;"/>
   </g>
   <g id="patch_88">
    <path clip-path="url(#p289ad6dbb0)" d="M 594.454545 384.48 
L 600.090909 384.48 
L 600.090909 371.895889 
L 594.454545 371.895889 
z
" style="fill:#050417;opacity:0.7;stroke:#e0e0e0;stroke-linejoin:miter;stroke-width:0.5;"/>
   </g>
   <g id="patch_89">
    <path clip-path="url(#p289ad6dbb0)" d="M 600.090909 384.48 
L 605.727273 384.48 
L 605.727273 364.438638 
L 600.090909 364.438638 
z
" style="fill:#0b0724;opacity:0.7;stroke:#e0e0e0;stroke-linejoin:miter;stroke-width:0.5;"/>
   </g>
   <g id="patch_90">
    <path clip-path="url(#p289ad6dbb0)" d="M 605.727273 384.48 
L 611.363636 384.48 
L 611.363636 378.221236 
L 605.727273 378.221236 
z
" style="fill:#02020c;opacity:0.7;stroke:#e0e0e0;stroke-linejoin:miter;stroke-width:0.5;"/>
   </g>
   <g id="patch_91">
    <path clip-path="url(#p289ad6dbb0)" d="M 611.363636 384.48 
L 617 384.48 
L 617 368.167264 
L 611.363636 368.167264 
z
" style="fill:#08051d;opacity:0.7;stroke:#e0e0e0;stroke-linejoin:miter;stroke-width:0.5;"/>
   </g>
   <g id="patch_92">
    <path clip-path="url(#p289ad6dbb0)" d="M 617 384.48 
L 622.636364 384.48 
L 622.636364 360.144061 
L 617 360.144061 
z
" style="fill:#0e092b;opacity:0.7;stroke:#e0e0e0;stroke-linejoin:miter;stroke-width:0.5;"/>
   </g>
   <g id="matplotlib.axis_1">
    <g id="xtick_1">
     <g id="line2d_1">
      <defs>
       <path d="M 0 0 
L 0 3.5 
" id="m478e57f04e" style="stroke:#000000;stroke-width:0.8;"/>
      </defs>
      <g>
       <use style="stroke:#000000;stroke-width:0.8;" x="115.363636" xlink:href="#m478e57f04e" y="384.48"/>
      </g>
     </g>
     <g id="text_1">
      <!-- 0.0 -->
      <g transform="translate(107.412074 399.078438)scale(0.1 -0.1)">
       <defs>
        <path d="M 2034 4250 
Q 1547 4250 1301 3770 
Q 1056 3291 1056 2328 
Q 1056 1369 1301 889 
Q 1547 409 2034 409 
Q 2525 409 2770 889 
Q 3016 1369 3016 2328 
Q 3016 3291 2770 3770 
Q 2525 4250 2034 4250 
z
M 2034 4750 
Q 2819 4750 3233 4129 
Q 3647 3509 3647 2328 
Q 3647 1150 3233 529 
Q 2819 -91 2034 -91 
Q 1250 -91 836 529 
Q 422 1150 422 2328 
Q 422 3509 836 4129 
Q 1250 4750 2034 4750 
z
" id="DejaVuSans-30" transform="scale(0.015625)"/>
        <path d="M 684 794 
L 1344 794 
L 1344 0 
L 684 0 
L 684 794 
z
" id="DejaVuSans-2e" transform="scale(0.015625)"/>
       </defs>
       <use xlink:href="#DejaVuSans-30"/>
       <use x="63.623047" xlink:href="#DejaVuSans-2e"/>
       <use x="95.410156" xlink:href="#DejaVuSans-30"/>
      </g>
     </g>
    </g>
    <g id="xtick_2">
     <g id="line2d_2">
      <g>
       <use style="stroke:#000000;stroke-width:0.8;" x="216.818182" xlink:href="#m478e57f04e" y="384.48"/>
      </g>
     </g>
     <g id="text_2">
      <!-- 0.2 -->
      <g transform="translate(208.866619 399.078438)scale(0.1 -0.1)">
       <defs>
        <path d="M 1228 531 
L 3431 531 
L 3431 0 
L 469 0 
L 469 531 
Q 828 903 1448 1529 
Q 2069 2156 2228 2338 
Q 2531 2678 2651 2914 
Q 2772 3150 2772 3378 
Q 2772 3750 2511 3984 
Q 2250 4219 1831 4219 
Q 1534 4219 1204 4116 
Q 875 4013 500 3803 
L 500 4441 
Q 881 4594 1212 4672 
Q 1544 4750 1819 4750 
Q 2544 4750 2975 4387 
Q 3406 4025 3406 3419 
Q 3406 3131 3298 2873 
Q 3191 2616 2906 2266 
Q 2828 2175 2409 1742 
Q 1991 1309 1228 531 
z
" id="DejaVuSans-32" transform="scale(0.015625)"/>
       </defs>
       <use xlink:href="#DejaVuSans-30"/>
       <use x="63.623047" xlink:href="#DejaVuSans-2e"/>
       <use x="95.410156" xlink:href="#DejaVuSans-32"/>
      </g>
     </g>
    </g>
    <g id="xtick_3">
     <g id="line2d_3">
      <g>
       <use style="stroke:#000000;stroke-width:0.8;" x="318.272727" xlink:href="#m478e57f04e" y="384.48"/>
      </g>
     </g>
     <g id="text_3">
      <!-- 0.4 -->
      <g transform="translate(310.321165 399.078438)scale(0.1 -0.1)">
       <defs>
        <path d="M 2419 4116 
L 825 1625 
L 2419 1625 
L 2419 4116 
z
M 2253 4666 
L 3047 4666 
L 3047 1625 
L 3713 1625 
L 3713 1100 
L 3047 1100 
L 3047 0 
L 2419 0 
L 2419 1100 
L 313 1100 
L 313 1709 
L 2253 4666 
z
" id="DejaVuSans-34" transform="scale(0.015625)"/>
       </defs>
       <use xlink:href="#DejaVuSans-30"/>
       <use x="63.623047" xlink:href="#DejaVuSans-2e"/>
       <use x="95.410156" xlink:href="#DejaVuSans-34"/>
      </g>
     </g>
    </g>
    <g id="xtick_4">
     <g id="line2d_4">
      <g>
       <use style="stroke:#000000;stroke-width:0.8;" x="419.727273" xlink:href="#m478e57f04e" y="384.48"/>
      </g>
     </g>
     <g id="text_4">
      <!-- 0.6 -->
      <g transform="translate(411.77571 399.078438)scale(0.1 -0.1)">
       <defs>
        <path d="M 2113 2584 
Q 1688 2584 1439 2293 
Q 1191 2003 1191 1497 
Q 1191 994 1439 701 
Q 1688 409 2113 409 
Q 2538 409 2786 701 
Q 3034 994 3034 1497 
Q 3034 2003 2786 2293 
Q 2538 2584 2113 2584 
z
M 3366 4563 
L 3366 3988 
Q 3128 4100 2886 4159 
Q 2644 4219 2406 4219 
Q 1781 4219 1451 3797 
Q 1122 3375 1075 2522 
Q 1259 2794 1537 2939 
Q 1816 3084 2150 3084 
Q 2853 3084 3261 2657 
Q 3669 2231 3669 1497 
Q 3669 778 3244 343 
Q 2819 -91 2113 -91 
Q 1303 -91 875 529 
Q 447 1150 447 2328 
Q 447 3434 972 4092 
Q 1497 4750 2381 4750 
Q 2619 4750 2861 4703 
Q 3103 4656 3366 4563 
z
" id="DejaVuSans-36" transform="scale(0.015625)"/>
       </defs>
       <use xlink:href="#DejaVuSans-30"/>
       <use x="63.623047" xlink:href="#DejaVuSans-2e"/>
       <use x="95.410156" xlink:href="#DejaVuSans-36"/>
      </g>
     </g>
    </g>
    <g id="xtick_5">
     <g id="line2d_5">
      <g>
       <use style="stroke:#000000;stroke-width:0.8;" x="521.181818" xlink:href="#m478e57f04e" y="384.48"/>
      </g>
     </g>
     <g id="text_5">
      <!-- 0.8 -->
      <g transform="translate(513.230256 399.078438)scale(0.1 -0.1)">
       <defs>
        <path d="M 2034 2216 
Q 1584 2216 1326 1975 
Q 1069 1734 1069 1313 
Q 1069 891 1326 650 
Q 1584 409 2034 409 
Q 2484 409 2743 651 
Q 3003 894 3003 1313 
Q 3003 1734 2745 1975 
Q 2488 2216 2034 2216 
z
M 1403 2484 
Q 997 2584 770 2862 
Q 544 3141 544 3541 
Q 544 4100 942 4425 
Q 1341 4750 2034 4750 
Q 2731 4750 3128 4425 
Q 3525 4100 3525 3541 
Q 3525 3141 3298 2862 
Q 3072 2584 2669 2484 
Q 3125 2378 3379 2068 
Q 3634 1759 3634 1313 
Q 3634 634 3220 271 
Q 2806 -91 2034 -91 
Q 1263 -91 848 271 
Q 434 634 434 1313 
Q 434 1759 690 2068 
Q 947 2378 1403 2484 
z
M 1172 3481 
Q 1172 3119 1398 2916 
Q 1625 2713 2034 2713 
Q 2441 2713 2670 2916 
Q 2900 3119 2900 3481 
Q 2900 3844 2670 4047 
Q 2441 4250 2034 4250 
Q 1625 4250 1398 4047 
Q 1172 3844 1172 3481 
z
" id="DejaVuSans-38" transform="scale(0.015625)"/>
       </defs>
       <use xlink:href="#DejaVuSans-30"/>
       <use x="63.623047" xlink:href="#DejaVuSans-2e"/>
       <use x="95.410156" xlink:href="#DejaVuSans-38"/>
      </g>
     </g>
    </g>
    <g id="xtick_6">
     <g id="line2d_6">
      <g>
       <use style="stroke:#000000;stroke-width:0.8;" x="622.636364" xlink:href="#m478e57f04e" y="384.48"/>
      </g>
     </g>
     <g id="text_6">
      <!-- 1.0 -->
      <g transform="translate(614.684801 399.078438)scale(0.1 -0.1)">
       <defs>
        <path d="M 794 531 
L 1825 531 
L 1825 4091 
L 703 3866 
L 703 4441 
L 1819 4666 
L 2450 4666 
L 2450 531 
L 3481 531 
L 3481 0 
L 794 0 
L 794 531 
z
" id="DejaVuSans-31" transform="scale(0.015625)"/>
       </defs>
       <use xlink:href="#DejaVuSans-31"/>
       <use x="63.623047" xlink:href="#DejaVuSans-2e"/>
       <use x="95.410156" xlink:href="#DejaVuSans-30"/>
      </g>
     </g>
    </g>
    <g id="text_7">
     <!-- edge weight -->
     <g transform="translate(331.861875 414.27625)scale(0.12 -0.12)">
      <defs>
       <path d="M 3597 1894 
L 3597 1613 
L 953 1613 
Q 991 1019 1311 708 
Q 1631 397 2203 397 
Q 2534 397 2845 478 
Q 3156 559 3463 722 
L 3463 178 
Q 3153 47 2828 -22 
Q 2503 -91 2169 -91 
Q 1331 -91 842 396 
Q 353 884 353 1716 
Q 353 2575 817 3079 
Q 1281 3584 2069 3584 
Q 2775 3584 3186 3129 
Q 3597 2675 3597 1894 
z
M 3022 2063 
Q 3016 2534 2758 2815 
Q 2500 3097 2075 3097 
Q 1594 3097 1305 2825 
Q 1016 2553 972 2059 
L 3022 2063 
z
" id="DejaVuSans-65" transform="scale(0.015625)"/>
       <path d="M 2906 2969 
L 2906 4863 
L 3481 4863 
L 3481 0 
L 2906 0 
L 2906 525 
Q 2725 213 2448 61 
Q 2172 -91 1784 -91 
Q 1150 -91 751 415 
Q 353 922 353 1747 
Q 353 2572 751 3078 
Q 1150 3584 1784 3584 
Q 2172 3584 2448 3432 
Q 2725 3281 2906 2969 
z
M 947 1747 
Q 947 1113 1208 752 
Q 1469 391 1925 391 
Q 2381 391 2643 752 
Q 2906 1113 2906 1747 
Q 2906 2381 2643 2742 
Q 2381 3103 1925 3103 
Q 1469 3103 1208 2742 
Q 947 2381 947 1747 
z
" id="DejaVuSans-64" transform="scale(0.015625)"/>
       <path d="M 2906 1791 
Q 2906 2416 2648 2759 
Q 2391 3103 1925 3103 
Q 1463 3103 1205 2759 
Q 947 2416 947 1791 
Q 947 1169 1205 825 
Q 1463 481 1925 481 
Q 2391 481 2648 825 
Q 2906 1169 2906 1791 
z
M 3481 434 
Q 3481 -459 3084 -895 
Q 2688 -1331 1869 -1331 
Q 1566 -1331 1297 -1286 
Q 1028 -1241 775 -1147 
L 775 -588 
Q 1028 -725 1275 -790 
Q 1522 -856 1778 -856 
Q 2344 -856 2625 -561 
Q 2906 -266 2906 331 
L 2906 616 
Q 2728 306 2450 153 
Q 2172 0 1784 0 
Q 1141 0 747 490 
Q 353 981 353 1791 
Q 353 2603 747 3093 
Q 1141 3584 1784 3584 
Q 2172 3584 2450 3431 
Q 2728 3278 2906 2969 
L 2906 3500 
L 3481 3500 
L 3481 434 
z
" id="DejaVuSans-67" transform="scale(0.015625)"/>
       <path id="DejaVuSans-20" transform="scale(0.015625)"/>
       <path d="M 269 3500 
L 844 3500 
L 1563 769 
L 2278 3500 
L 2956 3500 
L 3675 769 
L 4391 3500 
L 4966 3500 
L 4050 0 
L 3372 0 
L 2619 2869 
L 1863 0 
L 1184 0 
L 269 3500 
z
" id="DejaVuSans-77" transform="scale(0.015625)"/>
       <path d="M 603 3500 
L 1178 3500 
L 1178 0 
L 603 0 
L 603 3500 
z
M 603 4863 
L 1178 4863 
L 1178 4134 
L 603 4134 
L 603 4863 
z
" id="DejaVuSans-69" transform="scale(0.015625)"/>
       <path d="M 3513 2113 
L 3513 0 
L 2938 0 
L 2938 2094 
Q 2938 2591 2744 2837 
Q 2550 3084 2163 3084 
Q 1697 3084 1428 2787 
Q 1159 2491 1159 1978 
L 1159 0 
L 581 0 
L 581 4863 
L 1159 4863 
L 1159 2956 
Q 1366 3272 1645 3428 
Q 1925 3584 2291 3584 
Q 2894 3584 3203 3211 
Q 3513 2838 3513 2113 
z
" id="DejaVuSans-68" transform="scale(0.015625)"/>
       <path d="M 1172 4494 
L 1172 3500 
L 2356 3500 
L 2356 3053 
L 1172 3053 
L 1172 1153 
Q 1172 725 1289 603 
Q 1406 481 1766 481 
L 2356 481 
L 2356 0 
L 1766 0 
Q 1100 0 847 248 
Q 594 497 594 1153 
L 594 3053 
L 172 3053 
L 172 3500 
L 594 3500 
L 594 4494 
L 1172 4494 
z
" id="DejaVuSans-74" transform="scale(0.015625)"/>
      </defs>
      <use xlink:href="#DejaVuSans-65"/>
      <use x="61.523438" xlink:href="#DejaVuSans-64"/>
      <use x="125" xlink:href="#DejaVuSans-67"/>
      <use x="188.476562" xlink:href="#DejaVuSans-65"/>
      <use x="250" xlink:href="#DejaVuSans-20"/>
      <use x="281.787109" xlink:href="#DejaVuSans-77"/>
      <use x="363.574219" xlink:href="#DejaVuSans-65"/>
      <use x="425.097656" xlink:href="#DejaVuSans-69"/>
      <use x="452.880859" xlink:href="#DejaVuSans-67"/>
      <use x="516.357422" xlink:href="#DejaVuSans-68"/>
      <use x="579.736328" xlink:href="#DejaVuSans-74"/>
     </g>
    </g>
   </g>
   <g id="matplotlib.axis_2">
    <g id="ytick_1">
     <g id="line2d_7">
      <defs>
       <path d="M 0 0 
L -3.5 0 
" id="md4df65e533" style="stroke:#000000;stroke-width:0.8;"/>
      </defs>
      <g>
       <use style="stroke:#000000;stroke-width:0.8;" x="90" xlink:href="#md4df65e533" y="384.48"/>
      </g>
     </g>
     <g id="text_8">
      <!-- 0 -->
      <g transform="translate(76.6375 388.279219)scale(0.1 -0.1)">
       <use xlink:href="#DejaVuSans-30"/>
      </g>
     </g>
    </g>
    <g id="ytick_2">
     <g id="line2d_8">
      <g>
       <use style="stroke:#000000;stroke-width:0.8;" x="90" xlink:href="#md4df65e533" y="317.897402"/>
      </g>
     </g>
     <g id="text_9">
      <!-- 2000 -->
      <g transform="translate(57.55 321.696621)scale(0.1 -0.1)">
       <use xlink:href="#DejaVuSans-32"/>
       <use x="63.623047" xlink:href="#DejaVuSans-30"/>
       <use x="127.246094" xlink:href="#DejaVuSans-30"/>
       <use x="190.869141" xlink:href="#DejaVuSans-30"/>
      </g>
     </g>
    </g>
    <g id="ytick_3">
     <g id="line2d_9">
      <g>
       <use style="stroke:#000000;stroke-width:0.8;" x="90" xlink:href="#md4df65e533" y="251.314805"/>
      </g>
     </g>
     <g id="text_10">
      <!-- 4000 -->
      <g transform="translate(57.55 255.114023)scale(0.1 -0.1)">
       <use xlink:href="#DejaVuSans-34"/>
       <use x="63.623047" xlink:href="#DejaVuSans-30"/>
       <use x="127.246094" xlink:href="#DejaVuSans-30"/>
       <use x="190.869141" xlink:href="#DejaVuSans-30"/>
      </g>
     </g>
    </g>
    <g id="ytick_4">
     <g id="line2d_10">
      <g>
       <use style="stroke:#000000;stroke-width:0.8;" x="90" xlink:href="#md4df65e533" y="184.732207"/>
      </g>
     </g>
     <g id="text_11">
      <!-- 6000 -->
      <g transform="translate(57.55 188.531426)scale(0.1 -0.1)">
       <use xlink:href="#DejaVuSans-36"/>
       <use x="63.623047" xlink:href="#DejaVuSans-30"/>
       <use x="127.246094" xlink:href="#DejaVuSans-30"/>
       <use x="190.869141" xlink:href="#DejaVuSans-30"/>
      </g>
     </g>
    </g>
    <g id="ytick_5">
     <g id="line2d_11">
      <g>
       <use style="stroke:#000000;stroke-width:0.8;" x="90" xlink:href="#md4df65e533" y="118.149609"/>
      </g>
     </g>
     <g id="text_12">
      <!-- 8000 -->
      <g transform="translate(57.55 121.948828)scale(0.1 -0.1)">
       <use xlink:href="#DejaVuSans-38"/>
       <use x="63.623047" xlink:href="#DejaVuSans-30"/>
       <use x="127.246094" xlink:href="#DejaVuSans-30"/>
       <use x="190.869141" xlink:href="#DejaVuSans-30"/>
      </g>
     </g>
    </g>
    <g id="text_13">
     <!-- count of edges -->
     <g transform="translate(51.054375 262.812187)rotate(-90)scale(0.12 -0.12)">
      <defs>
       <path d="M 3122 3366 
L 3122 2828 
Q 2878 2963 2633 3030 
Q 2388 3097 2138 3097 
Q 1578 3097 1268 2742 
Q 959 2388 959 1747 
Q 959 1106 1268 751 
Q 1578 397 2138 397 
Q 2388 397 2633 464 
Q 2878 531 3122 666 
L 3122 134 
Q 2881 22 2623 -34 
Q 2366 -91 2075 -91 
Q 1284 -91 818 406 
Q 353 903 353 1747 
Q 353 2603 823 3093 
Q 1294 3584 2113 3584 
Q 2378 3584 2631 3529 
Q 2884 3475 3122 3366 
z
" id="DejaVuSans-63" transform="scale(0.015625)"/>
       <path d="M 1959 3097 
Q 1497 3097 1228 2736 
Q 959 2375 959 1747 
Q 959 1119 1226 758 
Q 1494 397 1959 397 
Q 2419 397 2687 759 
Q 2956 1122 2956 1747 
Q 2956 2369 2687 2733 
Q 2419 3097 1959 3097 
z
M 1959 3584 
Q 2709 3584 3137 3096 
Q 3566 2609 3566 1747 
Q 3566 888 3137 398 
Q 2709 -91 1959 -91 
Q 1206 -91 779 398 
Q 353 888 353 1747 
Q 353 2609 779 3096 
Q 1206 3584 1959 3584 
z
" id="DejaVuSans-6f" transform="scale(0.015625)"/>
       <path d="M 544 1381 
L 544 3500 
L 1119 3500 
L 1119 1403 
Q 1119 906 1312 657 
Q 1506 409 1894 409 
Q 2359 409 2629 706 
Q 2900 1003 2900 1516 
L 2900 3500 
L 3475 3500 
L 3475 0 
L 2900 0 
L 2900 538 
Q 2691 219 2414 64 
Q 2138 -91 1772 -91 
Q 1169 -91 856 284 
Q 544 659 544 1381 
z
M 1991 3584 
L 1991 3584 
z
" id="DejaVuSans-75" transform="scale(0.015625)"/>
       <path d="M 3513 2113 
L 3513 0 
L 2938 0 
L 2938 2094 
Q 2938 2591 2744 2837 
Q 2550 3084 2163 3084 
Q 1697 3084 1428 2787 
Q 1159 2491 1159 1978 
L 1159 0 
L 581 0 
L 581 3500 
L 1159 3500 
L 1159 2956 
Q 1366 3272 1645 3428 
Q 1925 3584 2291 3584 
Q 2894 3584 3203 3211 
Q 3513 2838 3513 2113 
z
" id="DejaVuSans-6e" transform="scale(0.015625)"/>
       <path d="M 2375 4863 
L 2375 4384 
L 1825 4384 
Q 1516 4384 1395 4259 
Q 1275 4134 1275 3809 
L 1275 3500 
L 2222 3500 
L 2222 3053 
L 1275 3053 
L 1275 0 
L 697 0 
L 697 3053 
L 147 3053 
L 147 3500 
L 697 3500 
L 697 3744 
Q 697 4328 969 4595 
Q 1241 4863 1831 4863 
L 2375 4863 
z
" id="DejaVuSans-66" transform="scale(0.015625)"/>
       <path d="M 2834 3397 
L 2834 2853 
Q 2591 2978 2328 3040 
Q 2066 3103 1784 3103 
Q 1356 3103 1142 2972 
Q 928 2841 928 2578 
Q 928 2378 1081 2264 
Q 1234 2150 1697 2047 
L 1894 2003 
Q 2506 1872 2764 1633 
Q 3022 1394 3022 966 
Q 3022 478 2636 193 
Q 2250 -91 1575 -91 
Q 1294 -91 989 -36 
Q 684 19 347 128 
L 347 722 
Q 666 556 975 473 
Q 1284 391 1588 391 
Q 1994 391 2212 530 
Q 2431 669 2431 922 
Q 2431 1156 2273 1281 
Q 2116 1406 1581 1522 
L 1381 1569 
Q 847 1681 609 1914 
Q 372 2147 372 2553 
Q 372 3047 722 3315 
Q 1072 3584 1716 3584 
Q 2034 3584 2315 3537 
Q 2597 3491 2834 3397 
z
" id="DejaVuSans-73" transform="scale(0.015625)"/>
      </defs>
      <use xlink:href="#DejaVuSans-63"/>
      <use x="54.980469" xlink:href="#DejaVuSans-6f"/>
      <use x="116.162109" xlink:href="#DejaVuSans-75"/>
      <use x="179.541016" xlink:href="#DejaVuSans-6e"/>
      <use x="242.919922" xlink:href="#DejaVuSans-74"/>
      <use x="282.128906" xlink:href="#DejaVuSans-20"/>
      <use x="313.916016" xlink:href="#DejaVuSans-6f"/>
      <use x="375.097656" xlink:href="#DejaVuSans-66"/>
      <use x="410.302734" xlink:href="#DejaVuSans-20"/>
      <use x="442.089844" xlink:href="#DejaVuSans-65"/>
      <use x="503.613281" xlink:href="#DejaVuSans-64"/>
      <use x="567.089844" xlink:href="#DejaVuSans-67"/>
      <use x="630.566406" xlink:href="#DejaVuSans-65"/>
      <use x="692.089844" xlink:href="#DejaVuSans-73"/>
     </g>
    </g>
   </g>
   <g id="patch_93">
    <path d="M 90 384.48 
L 90 51.84 
" style="fill:none;stroke:#000000;stroke-linecap:square;stroke-linejoin:miter;stroke-width:0.8;"/>
   </g>
   <g id="patch_94">
    <path d="M 648 384.48 
L 648 51.84 
" style="fill:none;stroke:#000000;stroke-linecap:square;stroke-linejoin:miter;stroke-width:0.8;"/>
   </g>
   <g id="patch_95">
    <path d="M 90 384.48 
L 648 384.48 
" style="fill:none;stroke:#000000;stroke-linecap:square;stroke-linejoin:miter;stroke-width:0.8;"/>
   </g>
   <g id="patch_96">
    <path d="M 90 51.84 
L 648 51.84 
" style="fill:none;stroke:#000000;stroke-linecap:square;stroke-linejoin:miter;stroke-width:0.8;"/>
   </g>
   <g id="text_14">
    <!-- histogram of edge weights against edge count -->
    <g transform="translate(205.624375 30.163062)scale(0.14 -0.14)">
     <defs>
      <path d="M 2631 2963 
Q 2534 3019 2420 3045 
Q 2306 3072 2169 3072 
Q 1681 3072 1420 2755 
Q 1159 2438 1159 1844 
L 1159 0 
L 581 0 
L 581 3500 
L 1159 3500 
L 1159 2956 
Q 1341 3275 1631 3429 
Q 1922 3584 2338 3584 
Q 2397 3584 2469 3576 
Q 2541 3569 2628 3553 
L 2631 2963 
z
" id="DejaVuSans-72" transform="scale(0.015625)"/>
      <path d="M 2194 1759 
Q 1497 1759 1228 1600 
Q 959 1441 959 1056 
Q 959 750 1161 570 
Q 1363 391 1709 391 
Q 2188 391 2477 730 
Q 2766 1069 2766 1631 
L 2766 1759 
L 2194 1759 
z
M 3341 1997 
L 3341 0 
L 2766 0 
L 2766 531 
Q 2569 213 2275 61 
Q 1981 -91 1556 -91 
Q 1019 -91 701 211 
Q 384 513 384 1019 
Q 384 1609 779 1909 
Q 1175 2209 1959 2209 
L 2766 2209 
L 2766 2266 
Q 2766 2663 2505 2880 
Q 2244 3097 1772 3097 
Q 1472 3097 1187 3025 
Q 903 2953 641 2809 
L 641 3341 
Q 956 3463 1253 3523 
Q 1550 3584 1831 3584 
Q 2591 3584 2966 3190 
Q 3341 2797 3341 1997 
z
" id="DejaVuSans-61" transform="scale(0.015625)"/>
      <path d="M 3328 2828 
Q 3544 3216 3844 3400 
Q 4144 3584 4550 3584 
Q 5097 3584 5394 3201 
Q 5691 2819 5691 2113 
L 5691 0 
L 5113 0 
L 5113 2094 
Q 5113 2597 4934 2840 
Q 4756 3084 4391 3084 
Q 3944 3084 3684 2787 
Q 3425 2491 3425 1978 
L 3425 0 
L 2847 0 
L 2847 2094 
Q 2847 2600 2669 2842 
Q 2491 3084 2119 3084 
Q 1678 3084 1418 2786 
Q 1159 2488 1159 1978 
L 1159 0 
L 581 0 
L 581 3500 
L 1159 3500 
L 1159 2956 
Q 1356 3278 1631 3431 
Q 1906 3584 2284 3584 
Q 2666 3584 2933 3390 
Q 3200 3197 3328 2828 
z
" id="DejaVuSans-6d" transform="scale(0.015625)"/>
     </defs>
     <use xlink:href="#DejaVuSans-68"/>
     <use x="63.378906" xlink:href="#DejaVuSans-69"/>
     <use x="91.162109" xlink:href="#DejaVuSans-73"/>
     <use x="143.261719" xlink:href="#DejaVuSans-74"/>
     <use x="182.470703" xlink:href="#DejaVuSans-6f"/>
     <use x="243.652344" xlink:href="#DejaVuSans-67"/>
     <use x="307.128906" xlink:href="#DejaVuSans-72"/>
     <use x="348.242188" xlink:href="#DejaVuSans-61"/>
     <use x="409.521484" xlink:href="#DejaVuSans-6d"/>
     <use x="506.933594" xlink:href="#DejaVuSans-20"/>
     <use x="538.720703" xlink:href="#DejaVuSans-6f"/>
     <use x="599.902344" xlink:href="#DejaVuSans-66"/>
     <use x="635.107422" xlink:href="#DejaVuSans-20"/>
     <use x="666.894531" xlink:href="#DejaVuSans-65"/>
     <use x="728.417969" xlink:href="#DejaVuSans-64"/>
     <use x="791.894531" xlink:href="#DejaVuSans-67"/>
     <use x="855.371094" xlink:href="#DejaVuSans-65"/>
     <use x="916.894531" xlink:href="#DejaVuSans-20"/>
     <use x="948.681641" xlink:href="#DejaVuSans-77"/>
     <use x="1030.46875" xlink:href="#DejaVuSans-65"/>
     <use x="1091.992188" xlink:href="#DejaVuSans-69"/>
     <use x="1119.775391" xlink:href="#DejaVuSans-67"/>
     <use x="1183.251953" xlink:href="#DejaVuSans-68"/>
     <use x="1246.630859" xlink:href="#DejaVuSans-74"/>
     <use x="1285.839844" xlink:href="#DejaVuSans-73"/>
     <use x="1337.939453" xlink:href="#DejaVuSans-20"/>
     <use x="1369.726562" xlink:href="#DejaVuSans-61"/>
     <use x="1431.005859" xlink:href="#DejaVuSans-67"/>
     <use x="1494.482422" xlink:href="#DejaVuSans-61"/>
     <use x="1555.761719" xlink:href="#DejaVuSans-69"/>
     <use x="1583.544922" xlink:href="#DejaVuSans-6e"/>
     <use x="1646.923828" xlink:href="#DejaVuSans-73"/>
     <use x="1699.023438" xlink:href="#DejaVuSans-74"/>
     <use x="1738.232422" xlink:href="#DejaVuSans-20"/>
     <use x="1770.019531" xlink:href="#DejaVuSans-65"/>
     <use x="1831.542969" xlink:href="#DejaVuSans-64"/>
     <use x="1895.019531" xlink:href="#DejaVuSans-67"/>
     <use x="1958.496094" xlink:href="#DejaVuSans-65"/>
     <use x="2020.019531" xlink:href="#DejaVuSans-20"/>
     <use x="2051.806641" xlink:href="#DejaVuSans-63"/>
     <use x="2106.787109" xlink:href="#DejaVuSans-6f"/>
     <use x="2167.96875" xlink:href="#DejaVuSans-75"/>
     <use x="2231.347656" xlink:href="#DejaVuSans-6e"/>
     <use x="2294.726562" xlink:href="#DejaVuSans-74"/>
    </g>
    <!-- threshold = 0.7772496708433125 -->
    <g transform="translate(247.784063 45.84)scale(0.14 -0.14)">
     <defs>
      <path d="M 603 4863 
L 1178 4863 
L 1178 0 
L 603 0 
L 603 4863 
z
" id="DejaVuSans-6c" transform="scale(0.015625)"/>
      <path d="M 678 2906 
L 4684 2906 
L 4684 2381 
L 678 2381 
L 678 2906 
z
M 678 1631 
L 4684 1631 
L 4684 1100 
L 678 1100 
L 678 1631 
z
" id="DejaVuSans-3d" transform="scale(0.015625)"/>
      <path d="M 525 4666 
L 3525 4666 
L 3525 4397 
L 1831 0 
L 1172 0 
L 2766 4134 
L 525 4134 
L 525 4666 
z
" id="DejaVuSans-37" transform="scale(0.015625)"/>
      <path d="M 703 97 
L 703 672 
Q 941 559 1184 500 
Q 1428 441 1663 441 
Q 2288 441 2617 861 
Q 2947 1281 2994 2138 
Q 2813 1869 2534 1725 
Q 2256 1581 1919 1581 
Q 1219 1581 811 2004 
Q 403 2428 403 3163 
Q 403 3881 828 4315 
Q 1253 4750 1959 4750 
Q 2769 4750 3195 4129 
Q 3622 3509 3622 2328 
Q 3622 1225 3098 567 
Q 2575 -91 1691 -91 
Q 1453 -91 1209 -44 
Q 966 3 703 97 
z
M 1959 2075 
Q 2384 2075 2632 2365 
Q 2881 2656 2881 3163 
Q 2881 3666 2632 3958 
Q 2384 4250 1959 4250 
Q 1534 4250 1286 3958 
Q 1038 3666 1038 3163 
Q 1038 2656 1286 2365 
Q 1534 2075 1959 2075 
z
" id="DejaVuSans-39" transform="scale(0.015625)"/>
      <path d="M 2597 2516 
Q 3050 2419 3304 2112 
Q 3559 1806 3559 1356 
Q 3559 666 3084 287 
Q 2609 -91 1734 -91 
Q 1441 -91 1130 -33 
Q 819 25 488 141 
L 488 750 
Q 750 597 1062 519 
Q 1375 441 1716 441 
Q 2309 441 2620 675 
Q 2931 909 2931 1356 
Q 2931 1769 2642 2001 
Q 2353 2234 1838 2234 
L 1294 2234 
L 1294 2753 
L 1863 2753 
Q 2328 2753 2575 2939 
Q 2822 3125 2822 3475 
Q 2822 3834 2567 4026 
Q 2313 4219 1838 4219 
Q 1578 4219 1281 4162 
Q 984 4106 628 3988 
L 628 4550 
Q 988 4650 1302 4700 
Q 1616 4750 1894 4750 
Q 2613 4750 3031 4423 
Q 3450 4097 3450 3541 
Q 3450 3153 3228 2886 
Q 3006 2619 2597 2516 
z
" id="DejaVuSans-33" transform="scale(0.015625)"/>
      <path d="M 691 4666 
L 3169 4666 
L 3169 4134 
L 1269 4134 
L 1269 2991 
Q 1406 3038 1543 3061 
Q 1681 3084 1819 3084 
Q 2600 3084 3056 2656 
Q 3513 2228 3513 1497 
Q 3513 744 3044 326 
Q 2575 -91 1722 -91 
Q 1428 -91 1123 -41 
Q 819 9 494 109 
L 494 744 
Q 775 591 1075 516 
Q 1375 441 1709 441 
Q 2250 441 2565 725 
Q 2881 1009 2881 1497 
Q 2881 1984 2565 2268 
Q 2250 2553 1709 2553 
Q 1456 2553 1204 2497 
Q 953 2441 691 2322 
L 691 4666 
z
" id="DejaVuSans-35" transform="scale(0.015625)"/>
     </defs>
     <use xlink:href="#DejaVuSans-74"/>
     <use x="39.208984" xlink:href="#DejaVuSans-68"/>
     <use x="102.587891" xlink:href="#DejaVuSans-72"/>
     <use x="141.451172" xlink:href="#DejaVuSans-65"/>
     <use x="202.974609" xlink:href="#DejaVuSans-73"/>
     <use x="255.074219" xlink:href="#DejaVuSans-68"/>
     <use x="318.453125" xlink:href="#DejaVuSans-6f"/>
     <use x="379.634766" xlink:href="#DejaVuSans-6c"/>
     <use x="407.417969" xlink:href="#DejaVuSans-64"/>
     <use x="470.894531" xlink:href="#DejaVuSans-20"/>
     <use x="502.681641" xlink:href="#DejaVuSans-3d"/>
     <use x="586.470703" xlink:href="#DejaVuSans-20"/>
     <use x="618.257812" xlink:href="#DejaVuSans-30"/>
     <use x="681.880859" xlink:href="#DejaVuSans-2e"/>
     <use x="713.667969" xlink:href="#DejaVuSans-37"/>
     <use x="777.291016" xlink:href="#DejaVuSans-37"/>
     <use x="840.914062" xlink:href="#DejaVuSans-37"/>
     <use x="904.537109" xlink:href="#DejaVuSans-32"/>
     <use x="968.160156" xlink:href="#DejaVuSans-34"/>
     <use x="1031.783203" xlink:href="#DejaVuSans-39"/>
     <use x="1095.40625" xlink:href="#DejaVuSans-36"/>
     <use x="1159.029297" xlink:href="#DejaVuSans-37"/>
     <use x="1222.652344" xlink:href="#DejaVuSans-30"/>
     <use x="1286.275391" xlink:href="#DejaVuSans-38"/>
     <use x="1349.898438" xlink:href="#DejaVuSans-34"/>
     <use x="1413.521484" xlink:href="#DejaVuSans-33"/>
     <use x="1477.144531" xlink:href="#DejaVuSans-33"/>
     <use x="1540.767578" xlink:href="#DejaVuSans-31"/>
     <use x="1604.390625" xlink:href="#DejaVuSans-32"/>
     <use x="1668.013672" xlink:href="#DejaVuSans-35"/>
    </g>
   </g>
  </g>
 </g>
 <defs>
  <clipPath id="p289ad6dbb0">
   <rect height="332.64" width="558" x="90" y="51.84"/>
  </clipPath>
 </defs>
</svg>
